<?xml version="1.0" encoding="UTF-8"?>
<svg id="Warstwa_2" data-name="Warstwa 2" xmlns="http://www.w3.org/2000/svg" viewBox="0 0 48.26 35.6">
  <g id="icon-set-v2-combat-action-pixarts-store">
    <g id="icon-set-v2-combat-action-pixarts-store_128">
      <path d="M46.47,20.95l.04,4.53-1.53-1.98-2.95,6.25-2.42-3.69-3.86,5.87-2.93-5.07-4.15,5.31-2.94-5.54-4.13,4.55-2.54-5.75-3.75,3.64c-.61-1.45-.84-2.13-1.32-3.03-1.08-2.03-3.49-2.2-5.18-.87l-1.23-5.87-2.85,2.18-1.03-6.9-2.13,1.45c.21-2.56.82-4.49-.37-6.86-1.1,5.3-2.35,8.58.82,13.35,2.09,3.13,4.88,5.44,8,7.23l.3-2.3c.05-.36.67-1.03,1.03-1.02,1.55.07,1.41,3.1,1.25,4.71,8.24,4.39,21.41,6.62,29.91,1.57,5.46-3.25,5.09-8.43,5.76-14.22-.6.5-1.8,1.69-1.79,2.46Z"/>
      <path d="M32.67,8.82c-.31-1.68-.88-3.48-1.56-5.53l-4.05,3.48-2.54-5.71-4.06,4.47-3.07-5.54-3.78,5.41-3.24-4.38-3.3,6.12-2.42-3.6c-1.05,3.06-2.45,6.41-1.47,9.03,7.98-6.61,20.11-4.63,28.55-.88.24-.99.61-2.05.95-2.87Z"/>
      <path d="M45.13,21.76c1.81-2.54,1.33-5.8,1.24-8.73l-3.09,2.27-1.2-6.51-3.09,2.97c-.93-2.55-2.76-3.94-5.21-2.94l-.32,2.82-4.46,2.49,2.2,1.98c1.41-.79,3.1-1.74,4.43-2.63.48-.32-.58-1.74-1-2.12.03-.22.63-.79.92-.75,1.78.26,1.23,2.52,1.58,3.68,3.26,1.9,5.89,4.42,8,7.45Z"/>
      <path d="M29.72,16.49c-4.54-3.84-11.27-2.09-11.45.61-.18,2.66,5.95,5.71,11.14,2.8.49-.27,1.05-1.22,1.04-1.72,0-.43-.39-1.4-.72-1.69Z"/>
      <polygon points="21.45 22.1 18.69 20.53 13.77 23.48 15.63 26.01 21.45 22.1"/>
      <path d="M29.84,21.37c-5.16,2.36-7.65-.55-9.59,3.7l3.57-1.88c2.52.46,5.34.18,6.02-1.82Z"/>
      <path d="M31.79,17.91l4.84-2.51c.85-2.14-6.15,2.1-4.84,2.51Z"/>
    </g>
  </g>
</svg>