<?xml version="1.0" encoding="UTF-8"?>
<svg id="Warstwa_2" data-name="Warstwa 2" xmlns="http://www.w3.org/2000/svg" viewBox="0 0 54.39 48.51">
  <g id="icon-set-v2-combat-action-pixarts-store">
    <g id="icon-set-v2-combat-action-pixarts-store_12">
      <path d="M53.34,30.81l.5-1.67-3.12-.45c.97,1.02,1.42,1.32,2.62,2.12Z"/>
      <path d="M4.27,48.15c-.79-2.06-.25-3.29,1.21-4.31,7.86-5.51,5.14-2.24,10.5-11.45l7.13,4.24c0,6.36,1.02,4.83.3,11.49l6.52.38c.39.02,1.21-.83.96-1.02-1.79-1.39-2.67-.86-3.94-2.41.4-3.66.96-7.18.75-10.69-2.25-2.38-4.79-4.41-7.4-6.54.41-2.3,2.09-4.21,3.64-5.79.71,1.65,1.1,3.74,2.56,4.6,1.66.98,4.21.37,5.81.15.47.24,1.48.91,1.77.56.26-.31.59-1.13.72-1.68.16-.72-.61-1.97-1.24-1.95-.52.02-1.39.62-1.77.95l-3.78-.73c-.49-2.45-1.03-5.37-2.31-7.49-1.42.06-3-.07-3.13-1.43l2.19,1.06c2.07-1.72,3.17-4.7,1.95-7.16-.88-1.79-3.9-2.15-5.18-.61-.99,1.19-.72,2.72-.81,4.58-4.72.4-7.35-.27-12.33,2.29-.89.94-4.17,7.81-3.95,8.95.53.47,1.52,1.16,2.12,1.35.52.16,1.58-.52,1.81-1.02.23-.5-.08-1.77-.27-2.52l2.94-3.96h3.18c-.84,2.66-1.43,5.2-2.4,7.76-1.35,3.57-2.81,6.94-3.73,10.61-2.17,1.21-3.51,2.96-5.05,4.82-1.61,1.96-3.59,4.1-2.91,7.03,1.18.45,2.89.36,4.14-.06Z"/>
      <path d="M45.46,14.28l.5-3.04-2.68,2.3,1.9-13.54-5.91,12.91-2.71-7.66-.83,7.26-4.31-3.85c1.32,6.92,3.92,5.95,10.06,8.26.35,3.74.38,7.5-.16,11.2-.71,4.85-2.87,6.95-1.95,9.53l2-3.82,4.26,6.08-1.98-9.04,9.67,4.57-7.91-8.96c2.23-.27,3.72-.22,5.88-.15l-4.64-2.16,7.74-2.83-7.08-.96,2.5-2.75-2.93.07,6.12-7.53-7.53,4.12Z"/>
      <path d="M32.08,23.1c.35-.64.95-1.53,1.45-1.46.4.05.85.79,1.16,1.18,2.27,2.89-.02,6.49-1.35,6.69-.4.06-.92-1.28-1.36-1.29l-5.96-.18c.08,2.04,1.04,3.67,2.38,5.27,1.53,1.83-1.4,3.21,4.61,7.84,7.03-5.91,7.93-14.98,7.27-23.37-2.81-.8-5.06-1.69-7.67-2.89l-4.95,2.82,1.28,4.75c.23.85,2.72,1.39,3.14.62ZM38.65,18.87c.68,5.84-.15,15.91-5.64,20.17,4.21-6.16,5.73-11.8,4.82-19.48-2.23-.8-4.26-1.33-5.99-3.06l6.8,2.36Z"/>
      <path d="M32.33,3.73c-.31.21-.95,1.15-.67,1.47l2.31,2.7-.08-3.55c0-.45-1.19-.85-1.55-.61Z"/>
      <path d="M42.3,42.96c.3-.2.68-1.09.52-1.45l-1.2-2.87-.71,3.57c-.08.42,1.04.99,1.38.75Z"/>
    </g>
  </g>
</svg>