<?xml version="1.0" encoding="UTF-8"?>
<svg id="Warstwa_2" data-name="Warstwa 2" xmlns="http://www.w3.org/2000/svg" viewBox="0 0 53.29 43.23">
  <g id="icon-set-v2-combat-action-pixarts-store">
    <g id="icon-set-v2-combat-action-pixarts-store_88">
      <path d="M5.48,13.58l13.49-2.57c.41-.16,1.03-.6,1.11-.33l.33,1.14.33,1.12c1.38,4.74.81-6.57-1.42-6.86l.23,3.49c.01-.18-1.02-.97-1.49-.89l-14.2,2.55c-1.53.27-2.73.97-3.87,2.01,1.95.78,3.52.72,5.48.35Z"/>
      <path d="M24.87,10.53c3.35-2.43,2.86-.18,7.91-1.75l6.56,1.08-3.33.96-3.08,4.92-17.16.58c-1.15.04-2.54.31-3.8.54l9.82.24,9.45.41c-.2.74-.97,1.47-1.6,1.48l-7.09.17c2.34.57,4.81.63,7.15.73-2.1,6.17,7.56,7.16,11.22,8.25-4.09,1.98-3.7,4.18-7.79,5.14-.69.16-1.84.97-1.85,1.53,1.78,2.83.81,6.51,3.4,7.15.25-2.02.3-4.32,1.07-6.05l10.28-5.35c.89-.47,1.68-1.88,1.76-2.87.22-2.78-7.21-5.83-9.04-7.05l4.51-3.76-2.65-.15c-.56-.03-2.78-2.69-1.16-4.26.53-.51,2.18-.86,2.86-.51,5.52,2.89,5.71.11,7.04,2.25-2.84.11-4.79-.31-7.17-1.37-.82-.36-2.32.24-2.36.99-.17,2.82,2.21,1.34,6.18,3.34,1.75.88,5.7,2.66,6.98.61,1.8-2.87-5.5-8.8-5.82-8.38.14-.18.32-.68.52-.58l.73.37c.31.16.98.41,1.3.47.37.07,4.07-3.51,2.59-7.26C51.29-.23,48.79-.03,46.54.03l-15.39.38,14.06,1.21c-3.54.48-6.62.45-9.93.56l-9.43.33,18.71.65c.27,1.12.3,2.41.05,3.08-2.66-1.15-4.1-1.61-6.48-1.5-1.66.08-3.26-.09-4.97-.15-2.31-.07-4.7,1.44-7.02,1.97-.89.21-2.03.25-2.97.39-1.38.2-1.87,1.81-1.53,2.76.45,1.25,2.13,1.64,3.25.83Z"/>
      <path d="M20.07,30.86l-15.03.62,7.19.35,6.67.33c-3.72,4.32-2.97,1.76-5.84,3.27l-1.3,5.42c-.15.64.2,2.02.78,2.26.53.21,1.61.09,2.11-.08l-.46-1.86c1.64-3.6,7.69-5.9,11.63-7.99,2.75-1.46,5.23-3.68,7.89-5.75-2.34-1.07-4-2.2-5.2-4.35l-4.21,5.45-11.94.45,9.75.53c-.41.46-1.43,1.31-2.05,1.33Z"/>
      <rect x="18.33" y="21.89" width="10.41" height=".41"/>
    </g>
  </g>
</svg>