<?xml version="1.0" encoding="UTF-8"?>
<svg id="Warstwa_2" data-name="Warstwa 2" xmlns="http://www.w3.org/2000/svg" viewBox="0 0 49.4 48.16">
  <g id="icon-set-v2-combat-action-pixarts-store">
    <g id="icon-set-v2-combat-action-pixarts-store_129">
      <path d="M43.58,12.88c-.37-.13-1.55.03-1.96-.23-2.48-1.59-6.58-3.46-9.87-3.92-.81-.11,0-1.88.66-2.09.61-.19.46-2.26-.17-2.5l-5.37.03c-.27.72-.41,2.2.1,2.48.58.32,1.33,1.99.74,2.08-3.9.63-7.21,2.1-10.37,4.08-.55-.02-1.58.04-1.96.29-.33.21.03,1.45-.24,1.82-2.1,2.68-4.45,6.55-5.03,10.36-1.35,8.91,3.21,17.18,11.04,20.95,7.93,3.82,17.48,1.86,23.38-4.83,6.9-7.81,6.29-19.24-.66-26.7.28-.82.15-1.66-.3-1.82ZM45.59,28.44c0,8.81-7.14,15.94-15.94,15.94s-15.94-7.14-15.94-15.94,7.14-15.94,15.94-15.94,15.94,7.14,15.94,15.94Z"/>
      <path d="M35.36,2.95C35.3,1.22,34.52,0,32.68,0h-5.99c-1.77,0-2.74,1.22-2.74,2.95,0,1.46.26,3.01,2.03,3.18l-.4-2.54c-.06-.41.04-1.32.29-1.61.2-.23.91-.43,1.21-.43l6.57.12c.19,1.65.09,2.89-.08,4.29,1.48-.11,1.85-1.6,1.79-3.01Z"/>
      <path d="M48.42,11.75l-3.88-3.6c-.97.72-1.57,1.42-2.09,2.45l4.01,3.55c.85-.84,1.38-1.47,1.96-2.4Z"/>
      <path d="M13.09,13.81l4.01-3.5-2.18-2.23-3.85,3.52c-.04.85,1.35,2.51,2.03,2.2Z"/>
      <path d="M7.84,25.81c-2.81.15-5.16.32-7.84.91l7.48.61.36-1.51Z"/>
      <path d="M1.57,22.22c1.39.11,8.29,2.17,7.09-.68l-7.09.68Z"/>
      <path d="M8.58,34.65c0-.43-6.37.05-7.02.52l7.03.63v-1.15Z"/>
      <path d="M1.18,30.89l6.59.69c1.92-2.6-6.29-.84-6.59-.69Z"/>
      <path d="M4.93,39.48l5.7.66c.18-2.94-4.48-.95-5.7-.66Z"/>
      <path d="M10.05,18.66l.57-1.3c-2.13.14-3.55.25-5.82.67l3.94.76c.32.06,1.19.15,1.31-.14Z"/>
      <path d="M27.25,32.16l2.03-1.4c2.48-.05,2.11-1.87,2.8-3.37l5.12-11.04-7.85,9.75c-1.5,1.87-1.29-1.88-2.1,6.05Z"/>
      <rect x="28.87" y="39.63" width="1.51" height="3.31"/>
      <rect x="28.83" y="13.94" width="1.57" height="3.31" transform="translate(-.39 .76) rotate(-1.47)"/>
      <rect x="15.13" y="27.73" width="3.21" height="1.49" transform="translate(-.67 .4) rotate(-1.35)"/>
      <path d="M41.21,29.2h1.19s1.3-.03,1.3-.03c.26,0,.27-.58.36-1.48l-3.01.17c-.31.02-.17,1.34.16,1.34Z"/>
    </g>
  </g>
</svg>