<?xml version="1.0" encoding="UTF-8"?>
<svg id="Warstwa_2" data-name="Warstwa 2" xmlns="http://www.w3.org/2000/svg" viewBox="0 0 39.8 47.18">
  <g id="icon-set-v2-combat-action-pixarts-store">
    <g id="icon-set-v2-combat-action-pixarts-store_167">
      <path d="M25.97,20.62c-5.11-3.62-3.47-8.75-6.08-8.74-.59,0-1.61.93-1.73,1.63-.84,4.77-4.26,8.5-9.26,8.76-3.61.19-5.63-3-6.92-2.97-1.56.03-3.77,6.08.5,9.7,4.12,3.5,1.75,7.09,3.47,12.8,1.4,4.65,6.19,6.56,10.39,4.56,5.91-2.82,8.58,2.94,14.06-.08,6.9-3.81,1.88-12.93,6.5-16.86,2.87-2.44,3.84-6.22,1.84-9.69-1.48-2.57-5.31,6.18-12.77.89ZM19.62,28.77c1.68.45,3.67-1.26,5.35-1.19-.57,2.25-3.2,3.31-5.1,3.27-1.92-.04-4.46-.93-5.15-3.4l4.89,1.32ZM29.69,43.83c-1.57,3.12-6.47-2.52-15.4.56-1.19.41-3.48.66-4.17-.64-1.13-2.14-.05-4.82,1.53-6.56,4.22-4.65,11.69-4.89,16.16-.48,1.86,1.83,3.12,4.65,1.88,7.12Z"/>
      <path d="M12.54,12.13c-1.99-.65-4.11-.44-5.7.96-1.39,1.22-2.53,3.24-1.69,5.33l10.25-1.64c-.25-2.73-1.28-3.66-2.87-4.65Z"/>
      <path d="M24.63,16.8l10.19,1.64c.55-3.54-1.55-6.25-4.54-6.61-2.87-.35-5.91,1.65-5.65,4.97Z"/>
      <path d="M15.54,0C12.35,7.81,3.82,3.72,2.24,11.33c5.06-4.65,10.09-2.88,13.26-6.43,1.26-1.41,1.82-3.35.04-4.9Z"/>
      <path d="M24.22.06c-1.72,1.42-1.2,3.18-.06,4.57,3.24,3.91,8.07,2.02,13.29,6.51C35.85,3.89,27.66,7.65,24.22.06Z"/>
    </g>
  </g>
</svg>