<?xml version="1.0" encoding="UTF-8"?>
<svg id="Warstwa_2" data-name="Warstwa 2" xmlns="http://www.w3.org/2000/svg" viewBox="0 0 36.01 47.76">
  <g id="icon-set-v2-combat-action-pixarts-store">
    <g id="icon-set-v2-combat-action-pixarts-store_157">
      <path d="M9.41,47.09c5.48,1.28,12.07.34,17.51.2,6.38-2.7,9.58-9.73,9.04-15.99-.54-6.33-4.67-11.84-11.25-14.33l.04-4.21c1.56-.77,1.98-1.67,2.01-3.31.02-1.1-.72-3.49-2.37-2.87-.85.32-2.04,1.39-3.1,1.49-8.75.83-8.22-1.19-9.58-1.66-1.56-.54-2.64,1.74-2.55,3.04.12,1.68.6,2.61,2.17,3.4l-.04,4.07C4.71,19.56.42,25.06.02,31.77c-.34,5.72,2.89,13.74,9.38,15.32ZM13.7,18.29l.13-5.5c2.77.48,5.54.59,8.4-.03l.09,5.59c1.93.9,3.25,1.53,5.03,2.59-6.24,2.1-12.29,1.92-18.62-.05l4.96-2.6ZM6.95,22.32c7.2,2.12,14.76,2.39,22.2.04,6.7,6.54,5.84,17.41-2.67,22.79-5.46-.15-11.4.91-16.65-.33-4.28-1.01-6.65-6.52-7.2-9.72-.86-4.99.77-9.32,4.33-12.78Z"/>
      <path d="M12.3.99c.13,1.67.48,3.52,1.19,4.92,3.05,1.07,6.17,1.16,9.24-.09.58-1.63.91-3.4.95-4.86-3.98-1.24-7.6-1.31-11.38.04Z"/>
      <path d="M11.35,38.1c.34.29,1.17.55,1.71.75,1.34.48-.03,1.17,1.45,2.6.2.19.76-.17.94-.45.34-.83.68-1.01.66-.19l.49,1.02c.08.17.68.2.76.02l.45-.96c.13-.79.35-.72.51.39.17.23.9.86,1.02.65l.58-.97c.15-.8.4-1.06.58,0,.28.2,1.17.48,1.24.22l.28-.94c.83-2.74,2.07-.85,2.82-2.38.21-.43-.15-1.66-.04-2.18.4-1.94,1.31-4.15-.02-6.29-.84-1.36-2.34-2.77-4.45-3.35-3.98-1.08-8.24.68-9.61,4.51-.6,1.67.13,3.57.43,5.2.1.56-.21,1.99.19,2.33ZM21.34,31.91c1.15,0,2.07.88,2.07,1.97s-.93,1.97-2.07,1.97-2.07-.88-2.07-1.97.93-1.97,2.07-1.97ZM19.45,38.04l-2.7.18c.38-1.15.56-1.55,1.25-2.68l1.45,2.49ZM14.67,31.94c1.14,0,2.07.88,2.07,1.97s-.93,1.97-2.07,1.97-2.07-.88-2.07-1.97.93-1.97,2.07-1.97Z"/>
    </g>
  </g>
</svg>