<?xml version="1.0" encoding="UTF-8"?>
<svg id="Warstwa_2" data-name="Warstwa 2" xmlns="http://www.w3.org/2000/svg" viewBox="0 0 47.97 49.11">
  <g id="icon-set-v2-combat-action-pixarts-store">
    <g id="icon-set-v2-combat-action-pixarts-store_71">
      <path d="M37.18,10.8l.74.18-3.93,4.06c-2.86,2.95-5.15,6.41-6.53,10.34-.94,2.69.94,5.32-.14,6.74-.21.28-1.16.28-1.4.03-1.31-1.34,1.29-3.88-1-6.26-1.54,1.79-2.98,3.45-4.67,4.83-3.35,2.73-.11,5.37-1.59,6.52-.28.21-1.09.29-1.35.06-1.19-1.05.84-3.28-.15-4.65-6.76,4.98-11.71,10.2-17.14,16.47,4.04-1.9,6.69-5.43,10.87-8.07,4.34,6.43,12.35,8.64,19.46,5.25,5.64-2.69,8.53-8.58,8-14.89-.32-3.81-1.87-7.11-3.67-10.56l3.66-2.86c-1.45-.59-2.37-.43-4.4-.25l7.9-8.5-2.15.37L47.97,1.2c-1.33.43-12.26,9.24-10.79,9.6ZM34.93,30.11c1.45,3.29.94,6.82-.87,9.77-1.54,2.52-4.43,4.74-7.98,4.9,5.39-4.16,8.39-7.47,8.85-14.67Z"/>
      <path d="M5.76,35.06h2.9s.36,2.05.36,2.05l5.74-6.76.44-1.61c5.96-4.44,3.96-4.3,10.41-9.12,3.34-2.49,6.35-5.1,9.45-7.71l-2.37.65-.28-1.15c-.94.56-1.81,1.05-2.74,1.1-2.6-3.86-4.52-7.93-6.18-12.51-2.9,9.15-8.11,15.15-12.66,23.7-1.45,3.17-2.28,6.39-2.33,9.78-1.09.33-1.89.64-2.74,1.58ZM19.25,22.04c.16-.02.75.14.73.3l-.07.83c-.06.77-1.72,2.32-2.35,1.5-.71-.93.87-2.52,1.68-2.62Z"/>
      <path d="M40.64,17.1c.59,1.16,3.21.21,2.58-1.21-.35-.79-2.96.46-2.58,1.21Z"/>
    </g>
  </g>
</svg>