<?xml version="1.0" encoding="UTF-8"?>
<svg id="Warstwa_2" data-name="Warstwa 2" xmlns="http://www.w3.org/2000/svg" viewBox="0 0 50.88 49.47">
  <g id="icon-set-v2-combat-action-pixarts-store">
    <g id="icon-set-v2-combat-action-pixarts-store_08">
      <path d="M35.44,8.13c.21,2.02.13,3.45-.23,5.2l-5.41,4.07c.83,1.22,1.82,2.28,3.11,3.35l3.52-4.79c1.67-1.12,3.69-1.13,5.75-.65,3.23-4.89,6.24-9.73,8.71-15.32-5.68,2.13-10.68,5.02-15.44,8.13ZM40.26,12.29l-2.98.96,1.02-2.75,7.42-5.46-5.46,7.25Z"/>
      <rect x="-4.83" y="32.77" width="40.97" height="2.8" transform="translate(-19.41 20.62) rotate(-44.25)"/>
      <path d="M24.65,12.81l-9.68.75,7.53,3.29-10.34,4.42,9.56.05-2,3.21c2.27-1.6,3.88-2.98,5.83-4.76l-4.6-.2,6-2.78-4.73-2.11,5.91-.71-3.02-2.87c2.85.44,4.94.88,7.79.96l-5.44-4.21.5,2.42-8.61-2.29,5.28,4.81Z"/>
      <polygon points="37.69 18.59 37.18 26.69 35.02 23.14 33.34 28.98 32.17 23.97 28.87 29.35 28.65 25.88 24.33 30.28 27.1 28.94 25.79 37.87 31.43 28.27 33.07 36.87 35.46 26.83 39.2 33 38.36 23.99 40.36 24.67 37.69 18.59"/>
    </g>
  </g>
</svg>