<?xml version="1.0" encoding="UTF-8"?>
<svg id="Warstwa_2" data-name="Warstwa 2" xmlns="http://www.w3.org/2000/svg" viewBox="0 0 34.72 46.62">
  <g id="icon-set-v2-combat-action-pixarts-store">
    <g id="icon-set-v2-combat-action-pixarts-store_42">
      <path d="M34.72,37.16c-2.55-3.75-2.74-8.15-.18-11.59l-.09-11.32-4.45,1.44,3.04-2.44c-.68-2.5-1.87-4.59-3.92-6.41-.61,1.72-1.85,2.75-3.48,2.49,1.39-.65,2.82-2.81,1.56-3.94-1.64-1.48-3.97-2.11-6.14-2.69l-1.73,9.19.5-10.01c-.45-.7-1.59-1.79-2.48-1.87-.67-.06-1.93,1.02-2.46,1.62l.39,7.21c.06,1.15.23,2.2.1,3.39l-1.71-9.5C8.03,3.8,3.24,7.61,1.68,13.21l3.19,2.59L.39,14.35c0,3.71-.43,7.62,0,11.12,1.98,3.81,2.52,7.76-.4,11.6,2.84,4.64,7.2,7.99,12.47,9.32l-1.1-17.3-6.84-3.73-.48-5.51,11.5,4.2-1.07,7.46c.52,1.08,1.75,2.28,2.87,3.26l3.04-2.98-1.15-7.09c1.47-1.15,2.9-1.77,4.93-2.69-.21-1.61-2.68-3.91-1.16-5.22,1.61-1.37,1.07-2.58,1.09-4.72l1.31,3.29-1.11,2.62,2.34,3.32,4.07-1.4-.58,5.38-2.72,1.67.54,2.03-1.21,3.17c-.09-1.75.02-2.9-.93-4.14-.87.31-1.75.79-2.41,1.32l-1.13,17.28,4.43-1.83.97-4.17,1.29,2.77c2.38-1.86,4.27-3.88,5.75-6.23ZM4.97,32.06c.68.91,1.4,1.56,1.48,2.36l.14,1.31c.09.86,1.76-.77,1.93,4.36-.97-1.06-2.11-2-3.39-2.78.6-4.03-1-3.28-.16-5.25Z"/>
    </g>
  </g>
</svg>