<?xml version="1.0" encoding="UTF-8"?>
<svg id="Warstwa_2" data-name="Warstwa 2" xmlns="http://www.w3.org/2000/svg" viewBox="0 0 48.26 50.21">
  <g id="icon-set-v2-combat-action-pixarts-store">
    <g id="icon-set-v2-combat-action-pixarts-store_176">
      <path d="M30.25,50.17c8.86-.63,16.42-7.89,17.8-17.35,1.13-7.72-2.21-15.09-8.18-18.61-6.46-3.82-14.51-3.01-20.57,2.2l2.52,2.67c4.31-3.35,9.57-4.22,14.17-2.33,4.65,1.91,7.87,6.18,8.45,11.55.75,6.98-3.01,13.73-9.19,16.59-5.99,2.76-12.81,1.18-16.69-4.17-3.73-5.13-3.82-12.56.29-18.37l-2.68-2.62c-3.53,4.68-4.73,10.09-3.89,15.53,1.44,9.25,9.12,15.54,17.97,14.91Z"/>
      <path d="M21.35,24.88c-2.48,3.72-2.6,7.83-1.21,11.23,1.54,3.78,4.7,6.2,8.63,6.41,4.86.27,9.31-2.72,11.25-7.27,1.98-4.67.93-10.08-2.38-13.05-3.68-3.31-8.9-3.73-13.25-.55l2.31,2.39,1.74-3.56,1.26,2.96c4.47-.33,7.83,2.98,7.59,7.64-.22,4.24-3.85,7.82-8,7.58-4.12-.24-6.84-3.97-6.29-8.5l-2.58-.98,3.3-2-2.38-2.3Z"/>
      <path d="M4.02,4.87c-.14.38.03,1,.43,1.4l21.32,21.33-2.68,1.42,7.86,2.35-2.62-8.09-1.3,2.82L5.34,4.33c-.3-.3-1.19.19-1.32.54Z"/>
      <path d="M30.93,32.56l-4.37-1.13c.02,2.51,2.13,3.83,4.1,3.43,2.06-.41,3.41-2.53,3.07-4.7-.24-1.54-1.23-2.87-2.85-2.84l1.16,4c.07.23,0,.8-.09,1-.09.2-.77.31-1.01.25Z"/>
      <path d="M0,6.49l5.74,5.79,3.13-.21L3.28,6.38c-.95-.06-2.15-.01-3.28.1Z"/>
      <path d="M5.76,0l.05,3.5,5.61,5.5c.17-1.31.2-2.33.08-3.23L5.76,0Z"/>
    </g>
  </g>
</svg>