<?xml version="1.0" encoding="UTF-8"?>
<svg id="Warstwa_2" data-name="Warstwa 2" xmlns="http://www.w3.org/2000/svg" viewBox="0 0 47.76 47.39">
  <g id="icon-set-v2-combat-action-pixarts-store">
    <g id="icon-set-v2-combat-action-pixarts-store_72">
      <path d="M3.11,40.56c1.59.38,2.8.74,2.96,2.68.18,2.29,2.08,4.29,4.59,4.14,3.7-.22,6.15-3.74,5.02-7.49-.27-.9,0-2.38.55-2.95l9.84-10-3.33.04c.87-1.42,1.63-2.88,2-4.77l-4.17,1.29-.03-1.96-5.66,5.59c-1.77,1.75-3.68,3.4-5.72,4.82l-3.61-.65c-2.59-.47-4.72,1.46-5.36,3.63-.66,2.21.44,5.03,2.92,5.62ZM21.03,25.42c-.5,1.83-1.04,2.97-1.87,4.45l.22-2.73-2.19-.07,3.84-1.65Z"/>
      <path d="M47.04,13.92c1.45-2.4.74-5.63-2.15-6.68l-3.26-1.19c.62-2.02.03-3.55-1.23-4.71-1.31-1.21-3.06-1.71-4.75-1.03-2.8,1.13-4.34,3.7-3.55,6.66.44,1.66-.1,3.34-1.35,4.58l-7.6,7.5,1.78.17c.19.02.15.27.28.88.44,0,1.83-.33,2-.9l.7-2.35c1.03.38-.32,2.13,1.53,2.48-1.08.85-1.96,2.17-2.86,3.75h2.18s-.02,1.36-.02,1.36l7.31-6.82c4.51-4.21,7.78,1.61,10.98-3.71Z"/>
      <path d="M33.93,32.01l.75-.91c1.36.61,2.09,1.95,3.97,1.87l-4.61-3.89-.71.86c-1.22-.81-2.02-1.32-3.09-1.78l3.69,3.85Z"/>
      <path d="M16.37,13.76c-.5.31-.85.63-1.01.48l-.77-.77c-.79-.78-1.34-1.73-2.58-1.7l3.18,4.13,1.46-.14,2.36,1.96-2.65-3.96Z"/>
      <path d="M19.91,13.08l.33,1.25c.21.78.51,1.59.8,1.88l-.33-5.01c-.56.14-1.23.44-1.31.2l-.32-.89c-.39-1.1-.62-1.91-1.53-2.72l1.08,5.16c.73,0,1.22-.15,1.29.12Z"/>
      <path d="M29.2,32.73l-1.39-3.33.62,4.94,1.37-.37c.48,1.3.81,2.53,1.75,3.74-.02-2.19-.68-3.77-1.32-5.5l-1.03.51Z"/>
      <path d="M13.73,19.71l-3.14.11c1.62.58,3.3.95,4.48,1.04.84-1.82,1.91-.38,3.62-.73l-4.6-1.75-.35,1.34Z"/>
      <path d="M36.52,25.87l3.77-.23-4.85-.98c-.76,2.47-2.88.25-4.44.95l5.02,1.58.5-1.33Z"/>
    </g>
  </g>
</svg>