<?xml version="1.0" encoding="UTF-8"?>
<svg id="Warstwa_2" data-name="Warstwa 2" xmlns="http://www.w3.org/2000/svg" viewBox="0 0 46.81 44.65">
  <g id="icon-set-v2-combat-action-pixarts-store">
    <g id="icon-set-v2-combat-action-pixarts-store_38">
      <path d="M37.09,19.97c3.88-8.31-2.71-16.68-3.52-14.92-.69,1.49.99,2.49-1.25,3.52-.19.09-.51.37-.5.55l.07,1.23-.65-2.01,1.16-1.15c.44-.43-.98-2.31-.57-2.68l1.11-1.01c-1.22-.71-2.51-1.35-3.86-1.86l-2.86,4.24,3.53,2.01-6.04,7.23,2.6-6.34-3.52-1.55,2.79-6.46C19.71-.02,13.85,2.09,10.51,6.88c-2.62,3.75-2.46,8.53-.88,12.7,1.76-1.76,2.08-3.82,1.9-6.31,1.44,2.25.59,4.48-.3,6.78l-1.72,4.42c-.48,1.24,1.43,4.28,2.73,4.31,1.56-.09,3.25-.26,4.69-.19l-.59,1.22.88,3.83c.06.27.89.23,1.01,0l.45-.85c.19.97.47,2.14,1.13,2.11.39-.55.82-1.47,1.1-2.06l.38,2.27c.06.37,1.45.43,1.55.07l.38-1.35c.21-.74.28-.8.25.01.22.75.3,1.47.64,1.64.28.14,1.2.03,1.3-.26l.46-1.35c.05-.81.11-.85.22-.07l.68.93c.14.19.84-.07.87-.31l.11-.87c.07-.17.14-.32.18-.42,0,0,0,0,0,0,.1-.22.08-.18,0,0,.68.64.73.86.92.76l.66-.36,1.14-3.91c-.54-.21-.88-.35-.98-.39,0,0,0,0,0,0-.03-.01-.03-.01,0,0,.09,0,.43-.7.52-.71,1.16-.15,3.31.21,4.73.35,1.15-.68,2.89-3.3,2.46-4.54-1.74-2.83-4.12-8.68-2.05-11.42-.3,2.71.17,4.8,1.76,7.07ZM17.27,24.71c-.85.11-2.26.21-3-.27-.58-.38-2.2-3.93-.54-5.75.86-.94,2.12-1.4,3.37-.74l4.01,2.13c.72,2.59-1.43,4.3-3.84,4.62ZM25.14,29.45c-.69.25-.94-.32-1.77-1.15-.1-.1-.31.38-.41.47l-.98.81c-.22.18-.97-.69-.96-1.01.05-1.45.85-3.9,2.33-5.08,1.05.41,3.26,5.42,1.79,5.96ZM32.69,24.13c-.71.69-1.09,1.12-1.77,2.12-.39-.73-1.39-1.72-2.61-1.9-1.63-.24-3.8-2.68-2.45-4.16-.01.01,4.41-3.14,4.89-3.11,0,0,2.77,2.15,2.93,2.65.43,1.34-.12,3.55-1,4.41Z"/>
      <path d="M29.66,29.21s0,0,0,0c-.03-.01-.04-.01,0,0Z"/>
      <path d="M27.93,33.11s0,0,0,0c.08-.18.1-.22,0,0Z"/>
      <path d="M29.97,38.61l-1.23-1.81-.85,2.62-.96-2.12-.99,2.83-.53-1.58c-.11-.33-1.31-.34-1.44,0l-.56,1.36c.12.8.05.65-.14-.08-.27-.61-.43-1.07-.67-1.34-.24-.27-1.32-.26-1.41.09l-.38,1.58-.42-1.45c-.09-.3-.75-1.17-.97-.94-.22.22-.43.66-.77,1.28l-.63-1.97-.82,1.48c-.11.2-1.01-.42-1.07-.64-1.06-3.53-.64-6.63-2.76-6.98l.2,6.32c.03.96.33,1.74.98,2.37,4.66,4.56,3.55,5.31,8.72,4.88,1.11-.09,3.47.53,4.38-.29,1.96-1.78,3.9-3.9,5.56-5.9l.13-7.17c-2.82.16-1.46,5.17-3.36,7.47Z"/>
      <path d="M9.12,29.22c-1.02-.02-1.96,3.28-5.69,2.5-2.03-.43-3.2,1.05-3.41,2.63-.26,1.94,1.96,1.88,2.73,3.04.81,1.22.58,3.31,2.74,3.2,4.31-.22,1.47-3.96,5.11-6.9.49-.4,1.13-1.52.9-2.1-.38-.94-2.11-2.36-2.38-2.37Z"/>
      <path d="M43.9,3.52c-.27-1.09-.29-2.78-1.53-3.27-1.02-.4-2.26-.35-3.12.29-1.71,1.27-.03,3-1.27,5.42l1.91,4.5c1.3-1.09,2.62-1.76,4.29-1.47,1.72.3,2.66-1.34,2.63-2.78-.03-1.43-1.54-2.11-2.9-2.69Z"/>
    </g>
  </g>
</svg>