<?xml version="1.0" encoding="UTF-8"?>
<svg id="Warstwa_2" data-name="Warstwa 2" xmlns="http://www.w3.org/2000/svg" viewBox="0 0 40.73 47.54">
  <g id="icon-set-v2-combat-action-pixarts-store">
    <g id="icon-set-v2-combat-action-pixarts-store_26">
      <path d="M26.68,38.87l.11-11.45c.02-1.51,2.47-2.09,3.68-2.95-2-3.99-4.9-7.32-7.89-10.23-.27-.26-1.47.01-1.28.32,1.74,2.8,2.89,5.64,3.08,8.98.02.39-.65,1.25-1.03,1.2-1.48-.18-.92-5.83-3.58-8.85,0,2.53-.37,5.5-1.36,7.39-.19.37-1.54.33-1.57-.04-.14-2.27,1.9-4.38.55-8.14-2.73-.05-4.84-.32-7.28-.96l-2.71,3.11c-2.31,2.65-4.27,5.44-5.8,8.61-2.78,5.75-2.4,13.57,4.24,16.25,3.29,1.33,6.85,1.73,10.4,1.55-.47-5.22,6.93-5.09,10.41-4.78Z"/>
      <path d="M5.24,3.67l6.08,6.34c2.11,2.2,8.22,1.55,10.35-.31,1.99-1.74,3.03-3.78,5.47-5.48-1.52-1-3.55-1.47-4.98-1.26l-2.11,3.46c-.08-2.02,2.24-4.45,1.16-5.79-.23-.28-1.23-.69-1.59-.63l-7.1,1.24,1.64,5.88-1.99-3.24c-2.04.17-3.68.78-5.06-.66l4.58-.96c-2.46-1.19-4.42-.19-6.45,1.4Z"/>
      <path d="M17.84,42.72c.09.32.68.97,1,1.1,7.04,2.81,13.77-.81,10.4-2.47-5.34-2.63-11.92-.44-11.41,1.38Z"/>
      <path d="M28.16,28.33c.12.32.67.91,1.01,1.05,6.33,2.54,12.13-.25,11.43-1.6-1.71-3.3-13.44-2.2-12.43.55Z"/>
      <path d="M40.55,30.07c-3.94,1.93-8.3,1.84-12.37.15-1.05,3.92,13.9,3.68,12.37-.15Z"/>
      <path d="M40.6,38.22c-4.03,2.01-8.27,1.79-12.43.12.3,4.07,13.44,3.76,12.43-.12Z"/>
      <path d="M28.29,32.99c-1.4,3.63,13.66,3.87,12.28-.22-3.83,1.94-8.03,1.84-12.28.22Z"/>
      <path d="M17.89,44.67c-1.31,3.67,12.94,4,12.27-.06-4.1,1.73-8.11,1.76-12.27.06Z"/>
      <path d="M28.13,35.51c-1.15,3.9,13.51,4.17,12.56-.03-4.08,2.01-8.47,1.99-12.56.03Z"/>
      <path d="M32.11,42.29c-.41-.04-.85,1.07-.57,1.26,1.9,1.27,10.27.33,9-2.55-2.26,1.42-6.06,1.51-8.43,1.29Z"/>
      <path d="M21.73,11.26c-3.24,1.34-7.2,1.26-10.42.31-.32-.1-1.14.22-1.06.48.88,2.79,13.63,1.23,12.03-.28l-.55-.52Z"/>
    </g>
  </g>
</svg>