<?xml version="1.0" encoding="UTF-8"?>
<svg id="Warstwa_2" data-name="Warstwa 2" xmlns="http://www.w3.org/2000/svg" viewBox="0 0 52.52 50.53">
  <g id="icon-set-v2-combat-action-pixarts-store">
    <g id="icon-set-v2-combat-action-pixarts-store_27">
      <path d="M35.07,24.31l3.89-11.97-9.57,10.48-7.67-12.67,1.52,16.78-13.78-13.83,7.73,19.3-9.29-6.54,3.09,7.51-2.62-.31c1.99,2.06,3.45,3.57,5.04,5.59l-6.11.33,3.98,3.22c1.71,1.38,3.56,2.35,5.69,2.9l-1.33-2.74,4.46,1.85-1.94-6.24,5.49,4.88,3.66-10.28,1.72,9.78,4.91-4.77-1.4,6.13,4.18-1.55-1.2,2.82c1.72-.4,3.53-1.27,4.92-2.47l4.53-3.89-6.21.41,4.84-8.57-7.11,3.3,9.08-15.68-10.49,6.23Z"/>
      <path d="M43.74,41.06l-2.31,2.08.28,1.27c.07.31-.86.98-1.16,1.1-7.74,3.13-20.67,3.05-28.64.22-.43-.15-1.28-.59-1.39-.96-.11-.36.05-1.11.12-1.68l-2.46-1.99c-1.67.64-3.56,1.39-4.33,3.12-.34.75.97,2.36,1.74,2.75,9.02,4.57,25.35,4.08,35.16,2.13,2.51-.5,9.46-3.12,7.2-5.57-1.17-1.26-2.66-2.16-4.22-2.48Z"/>
      <path d="M14.59,7.84L10.84,0l1.63,11.65,2.71-1.75,3.54,7.06c-.28-3.96-1-6.91-1.63-10.35l-2.49,1.23Z"/>
      <polygon points="33.71 6.03 33 2.99 31.38 5.91 28.78 5.07 30.23 7.73 28.2 9.71 31 9.95 31.58 12.7 33.02 10.06 35.84 10.67 34.42 8.13 36.58 6.05 33.71 6.03"/>
      <path d="M4.29,21.28l1.79.82,1.99-1.18c-.09-.12-.69-.85-.6-1.21l.33-1.37c-.62-.01-1.32.18-1.53-.07l-.8-.92c-.25.56-.46,1.45-.8,1.49l-1.55.15,1.23,1.22c.23.23-.08,1.02-.04,1.07Z"/>
      <path d="M44.81,34.01c3.26-.42,5.73-3.39,7.71-6.06-7.95,3.49-2.32,1.7-7.71,6.06Z"/>
      <path d="M49.35,24.17c.92-.18,1.47-1.99,1.21-2.78l-1.01-.23c-.22-.05-.63-.56-.69-.63l-1.56,1.32c.16.63.16,1.55.03,1.97l2.01.35Z"/>
      <path d="M4.77,29.05l-3.1-3.4-1.08-.16c-2.4-.36,3.29,3.84,4.18,3.56Z"/>
      <path d="M7.04,36.3l-2.92-2.63c-.17-.16-1.2-.08-1.52-.02,1.28,1.21,2.29,2.96,4.44,2.65Z"/>
    </g>
  </g>
</svg>