<?xml version="1.0" encoding="UTF-8"?>
<svg id="Warstwa_2" data-name="Warstwa 2" xmlns="http://www.w3.org/2000/svg" viewBox="0 0 46.27 49">
  <g id="icon-set-v2-combat-action-pixarts-store">
    <g id="icon-set-v2-combat-action-pixarts-store_113">
      <path d="M45.78,17.26l.49-2.06-1.68-1.28-1.66,1.31.69,2.1c.63-.11,1.75-.13,2.16-.06Z"/>
      <path d="M35.7,24.84c1.94.15,8.41.82,9.15-1.5.62-1.94-3.94-5.68-5.66-6.11l2.64,2.59c.38.37.82,1.49.65,1.94-1.06,2.84-14.86.17-17.64-1.31.63-.23,1.66-.39,2.21-.28l8.44,1.69c-.28-1.93-.56-3.19-1.01-4.95,2.63-1.39,11.63-6.37,10.51-9.66-1.36-3.99-15.8-.4-18.64,1.14l7.83-1.36c1.71-.3,6.21-.8,7.05.97,1.73,3.68-12.73,9.9-15.59,11.31-1,.49-1.93,1.11-3.1.68-4.33-1.58-8.33-3.23-12.35-5.37-1.34-.72-5.83-3.62-4.71-5.29,1.67-2.49,10.08.03,12.95-.19-2.37-1.1-16.18-3.67-16.48-.1-.29,3.44,7.81,7.09,10.33,8.57l-.68,4.34,6.75-1.52c.45-.1,1.44.25,1.92.54-1.8,1.18-12.16,2.26-12.2,3.04l-.05,1.11,3.45-.24c1.32.84-.19,2.07-.58,2.81-1.37,2.59.93,5.43,2.16,7.67,1.03,1.88,1.48,3.53,2.49,5.18.67,1.09.72,3.5-.39,4.36-2.72,2.09-5.91,2.35-9.03,4.1l34.93-.03-7.45-2.94c-1.13-.45-2.37-1.53-2.57-2.46-.71-3.26,1.71-3.84,2.84-8.64,1.92-1.76,3.57-4.71,2.4-7.45-.34-.32-.88-.96-1.16-1.26-.23-.24.34-1.3.6-1.39Z"/>
      <path d="M23.23,18.94l9.52-4.45c-5.71-4.66-13.92-4.5-18.98.64,3.32,1.57,6.2,2.69,9.46,3.81Z"/>
      <path d="M3.47,20.16c-.53,1.75-1.6,2.77-3.47,2.82.64.63,1.84,1.2,1.84,1.75l.02,2.47c1.46-1.45,2.82-1.21,4.43-.47-.75-2.25-.34-3.01,1.13-4.34-2.19.22-3.09-.85-3.95-2.23Z"/>
      <path d="M23.48,7.23c-.43-2.3.28-3.11,1.77-4.08-.93-.29-2.39-.46-2.61-1.02l-.82-2.12c-.45.84-.84,1.72-1.24,2.1s-1.71.31-2.64.43c1.4,1.32,1.82,2.36,1.15,4.43,1.79-1.28,2.9-.93,4.39.27Z"/>
      <path d="M35.89,9.8l-1.69-1.19c-.49.5-.96.94-1.19,1.27-.19.28.23,1.29.31,1.54l1.94.07.63-1.69Z"/>
      <path d="M4.95,19.98l3.6-3.24c-1.55.09-3.55,1.04-3.6,3.24Z"/>
    </g>
  </g>
</svg>