<?xml version="1.0" encoding="UTF-8"?>
<svg id="Warstwa_2" data-name="Warstwa 2" xmlns="http://www.w3.org/2000/svg" viewBox="0 0 41.41 43.24">
  <g id="icon-set-v2-combat-action-pixarts-store">
    <g id="icon-set-v2-combat-action-pixarts-store_122">
      <path d="M7.83,43.17l-.87-10.22c4.07-5.87.98-4.4.88-11.66l3.02,8.17c1.69,4.57,1.78,9.02.4,13.76h20.46s-2.4-11.33-2.4-11.33c-.74-3.47-1.52-6.77-.46-10.16.28,2.4.54,4.57,1.03,6.81l1.65,7.51c.57,2.62,2.42,4.78,3.62,7.2l6.27-.06c-.11-4.1-2.77-7.07-3.32-10.78-.48-3.26-.76-6.57-.7-9.97l.09-5.16c.05-2.66-1.83-4.36-4.21-5.37l-5.12-2.16c-1.44-.61-2.06-2.06-1.51-3.65,1.12,1.39,2.45,2.28,4.49,2.64l1.74-3.7c.36-.75.72-1.09,1.97-1.42l-.56-3.61-15.51.03c1.18,5.05-2.02,7-1.91,7.21l.63,1.07-1.82,1.61,5.6,6.54c.93-.72,1.74-1.31,2.85-1.76-2.08,3.12-2.53,5.83-1.89,9.58l-1.44-1.64-.82,7.42c-.94-1.8-1.39-3.67-1.8-5.97l-2.49,1.87c.21-1.79.92-3.15,1.89-4.57l-6.82-6.68-1.7,1.77c-1.03-.5-1.98-1.63-2.42-3.08-.98.7-1.95,2.25-2.13,3.74-.28,2.27-1.21,4.02-1.91,6.18-3.63,11.11-3.07,9.18-.61,19.84h5.85Z"/>
      <path d="M12.44,12.96c-.26-.01-.58.39-.86.77l7.93,7.64,1.52-3.37-6.59-7.4c-2.86.93,4.61,6.46,5.02,8.53l-5.91-5.63c-.21-.2-.84-.53-1.11-.54Z"/>
      <path d="M4.64,5.22l4.71,5.51,2.25-2.17L6.2,3.12l-.16-1.37c-.86-.32-1.85-.24-2.51.33-.67.58-.88,1.63-.66,2.51l1.77.64Z"/>
      <path d="M8.29,13.21c-.17.21-.14.94-.04,1.16.55,1.23,1.91-1.79,4.3-2.78.61-1.41,1.84-2.59,3.03-3.27.3-3.81-6.73,4.22-7.29,4.9Z"/>
    </g>
  </g>
</svg>