<?xml version="1.0" encoding="UTF-8"?>
<svg id="Warstwa_2" data-name="Warstwa 2" xmlns="http://www.w3.org/2000/svg" viewBox="0 0 48.34 47.97">
  <g id="icon-set-v2-combat-action-pixarts-store">
    <g id="icon-set-v2-combat-action-pixarts-store_68">
      <path d="M15.11,18.95c-1.36,2.43,2.19,6.31,2.15,9.95,4.42,1.85,9.63,1.89,13.95,0,.08-4.74,5.19-8.94.44-11.7-2.98-1.73,1.4-5.89-2.42-7.44.08,2.37-.94,3.68-2.65,4.64-1.72.96-3.25.91-4.93-.13-1.48-.92-2.46-2.07-2.14-4.16-.39-.05-1.09-.07-1.33.17-.24.24-.56,1.14-.54,1.49l.31,4.53c-1.04.88-2.29,1.66-2.84,2.65Z"/>
      <path d="M16.46,32.41l-3.64,10.91,7.82,4.61,3.51-10.5,3.63,10.53,7.81-4.57-3.62-10.85c-7,3.17-8.75,3.07-15.51-.13Z"/>
      <path d="M15.24,9.48c-4.29-1.11-7.21,3.25-7.53,6.33-.06.56-1.28,1.8-.82,1.98,1.84.75,3.81,1.17,5.85,1.2l4.02-3.17.05-8.3c-.96-.14-1.47.71-1.57,1.96Z"/>
      <path d="M41.83,17.73l-1.29-1.71c-.02-4.03-3.29-7.08-7.32-6.8-.24-.88-.65-1.58-1.51-1.82l-.07,8.37c1.04.84,2.7,2.27,3.96,2.95,2.03.65,4.17-.32,6.24-.98Z"/>
      <path d="M27.52,3.09c-1.26-1.43-5.41-1.29-6.72.06-.68,2.46-.59,5.15-.36,7.76.08.95,1.91,1.97,2.8,2.17l.06-4.61c-1.17-.37-1.92-.84-1.88-1.53l5.6.02c-.04,1.06-.93,1.3-1.98,1.55l.19,4.84c1.25-.7,2.25-1.41,2.97-2.19-.04-2.72.37-5.55-.7-8.06Z"/>
      <path d="M9.48,31.12l1.07-3.04c-1.77-1.81-4.47-2.37-6.42-.68l.66,3.83c.31,1.82-.08,4.03,1.15,5.69.62.84,3.33.98,3.99.18.58-.7,1.12-1.53,1.16-2,.12-1.6-2.33-1.92-1.61-3.98Z"/>
      <path d="M37.95,28.07l1.3,4.09-1.85,2.46c.02.78.82,2.61,1.59,2.79.98.24,2.55.03,3.68-.24.74-1.88.78-3.89,1.03-5.93l.5-4.11c-2.08-1.47-4.55-.53-6.26.93Z"/>
      <path d="M43.65,7.72l-1.41.03,5.45-6.99c-2.57,1.44-4.21,2.97-6.43,4.58l.19-1.84c-1.41,1.36-2.14,2.32-3.69,2.81l.36-5.54-3.2,5.7c3.17,2.5,5.62,1.73,7.17,7.1.27-.53.7-1.58,1.1-1.82l5.14-3.05-5.95.94,1.27-1.9Z"/>
      <path d="M6.55,12.68c.7-1.57,1.85-3.23,3.43-4.1l3.72-2.03L10.17.55l.63,5.76c-1.56-.64-2.49-1.45-3.68-2.53l.14,1.55L0,0l6.59,7.95-1.63-.15,1.15,1.91-5.83-.96,6.26,3.94Z"/>
      <path d="M7.95,19.94c-.51.83-1.19,1.44-1.98,1.97-.9.6-.81,3.11-.25,3.71l4.91,1.1,1.29-2.65c1.22-1.56,2.32-3.05,2.51-4.89-3.55,1.97-5.64-.59-6.48.76Z"/>
      <path d="M42.89,25.8c.92-5.74-.99-2.58-2.72-6.47-1.94.51-3.83.92-6.04,0,.28,2.7,1.46,2.38,3.2,6.44l.39.92c.2.47,2.81-1.22,5.16-.87Z"/>
      <path d="M30.98,30.04c-4.33,1.71-9.46,1.67-13.74-.1-.29.16-.56,1.32-.25,1.49,5.32,3.03,9.23,2.92,14.56-.05.31-.17-.25-1.47-.57-1.34Z"/>
    </g>
  </g>
</svg>