<?xml version="1.0" encoding="UTF-8"?>
<svg id="Warstwa_2" data-name="Warstwa 2" xmlns="http://www.w3.org/2000/svg" viewBox="0 0 52.49 43.49">
  <g id="icon-set-v2-combat-action-pixarts-store">
    <g id="icon-set-v2-combat-action-pixarts-store_37">
      <path d="M14.48,33.83c.41-.21,1.25.78.94,1.02-1.32,1.06-3,2.35-4.13,3.72,2.37-.22,6.09-4.42,6.55-1.56-2.83,2.18-5.74,4.11-8.33,6.48,4.84-2.47,9.2-5.27,13.87-8.01,2.02,1.17,4.17,2.31,6.37,2.64,5.69-5.61,6.91-15.17,4.78-21.96-.2-.64-1.55-.56-1.7-.24l-.61,1.37c-.2.45-1.43.6-1.98.79l1.2,5.2-2.22,1.45-.89,3.35-.4-3.51,2.4-1.78-1.4-3.72c-.2-.52-.57-1.43-1.01-1.51-1.5-.25-2.72,2.33-4.94,3.08l2.57-3.18-1.53-1.35,4.53.36c4.76.38.73-2.25,5.15-2.84.31-.38,0-1.99-.56-2.26-3.94.06-7.95-.28-11.75-.94-2.8,3.13-5.88,5.36-9.48,7.29l1.45,4.84c-4.56,3.06-8.77,5.92-13.05,9.31,3.68-1.68,6.69-3.47,10.22-5.38.36.72.66,1.48.81,2.1-2.18,1.59-4.13,2.88-6.07,4.68,2.45.04,7.66-4.89,7.62-1.79-4.33,3.1-8.66,6.15-12.88,9.58,4.99-2.15,9.81-4.81,14.48-7.23Z"/>
      <path d="M46.72,15.12l3.35-1.79c-1.22-.2-2.7-.36-3.6-.79-.49-.23-.1-1.89.31-2.29l5.72-5.52-7.29,2.23c-.58.18-2.3,0-2.36-.55-.06-.65.2-1.71.33-2.27-.95.39-2.29.71-2.9.21-.15-1.36.2-2.83.5-4.35-1.6,1.02-3.39,2.17-5.18,3.02-.5.24-2.18.13-2.3-.41-.1-.49-.18-1.32-.28-2.45l-4.16,2.39,2.69-.27.97,2.35,5.15-.35c.43-.03,1.21,1.04,1.33,1.44l2.28,7.41c.43,1.41,1.06,3.06,1.13,4.38l.39,6.86c1.15.1,2.15.31,3.11.76l2.89,1.38-2.72-3.57c-.48-.63-.46-2.28.22-2.47l2.9-.82-2.61-1.62c-.37-.23-.82-1.07-.81-1.48,0-.41.54-1.22.93-1.43Z"/>
      <path d="M21.22,8.54c4.68,1.45,9.01,1.28,13.37,1.2l1.09,3.48c.53.21,2.23-.78,2.07-1.41l-1.3-4.82c-5.57.53-10.82.2-16.18-1.27-3.78,4.4-8.01,7.54-13.15,9.93.66,2.76,1.39,5.08,2.39,7.74l1.99-1.42-1.46-4.96c4.43-2.14,7.79-5,11.18-8.46Z"/>
      <path d="M23.19,37.2l-2.2,1.52c3.48,2.05,6.4,3.27,10.1,4.18,7.7-8.04,10.39-17.95,7.11-28.76l-2.18,1.24c2.38,9.64.77,17.13-5.73,24.68-2.62-.7-4.62-1.64-7.11-2.86Z"/>
      <path d="M9.94,11.3c1.98-1.29,4.03-2.56,5.57-4.11l-.46-5.97c-.29,1.5-.38,3.14-1.17,4.36-.37.57-2.13.29-2.73-.03l-3.34-1.77,2.57,5.08-3.06.81,2.62,1.63Z"/>
      <path d="M39.37,34.94c-.47.91-.81,2.08-.93,3.22.32-.36,1.28-1.7,1.79-1.49.89.36,1.58,1.57,2.02,2.24-.23-2.6-.57-5-1.09-7.45l-1.79,3.49Z"/>
      <polygon points="43.33 33.94 47.67 34.92 43.84 31.95 43.33 33.94"/>
    </g>
  </g>
</svg>