<?xml version="1.0" encoding="UTF-8"?>
<svg id="Warstwa_2" data-name="Warstwa 2" xmlns="http://www.w3.org/2000/svg" viewBox="0 0 47.21 53.2">
  <g id="icon-set-v2-combat-action-pixarts-store">
    <g id="icon-set-v2-combat-action-pixarts-store_78">
      <path d="M25.84,46.14l-1.27-3.21c-.65,1.08-1.1,2.7-.93,3.56.06.33,1,.97,1.2.75l1-1.1Z"/>
      <path d="M9.34,11.27c-3.46.36-6.66,2.78-7.58,6.63-1.02,4.23.34,8.65,3.39,11.75l8.68,8.82c2.31,2.35-.14,7.75,1,8.5.24.16.86.12,1.08-.07,1.07-.88-.29-3.01.61-5.25,4.75,2.2-.46,11.31,2.6,11.55,3.61.28-3.28-10.08,4.56-14.4l.75,3.61c.72-1.75.09-4.28,1.28-5.48l5.87-5.93c2.78-2.81,7.32-9.73,3.38-12.78l-8.21,8.25c.04.57.26,1.39-.05,1.5-4.52,1.52-.9,5.77-2.48,9.14-3.02-.23.5-5.73-2.3-7.2-4.3,1.77.12,7.21-2.53,7.23-.39,0-.85-.86-.82-1.25.14-1.88,1.4-14.16-2.58-7.8-2.78-1.28,2.45-3.63,2.52-5.69l-1.5-.68c-.25-.11.1-1.08.38-1.06l.93.05c.62.03,2.12.13,2.61-.37l7.68-7.87c-1.47-3.31-8.28.73-9.66,3.98-2.17-3.83-5.56-5.58-9.61-5.16ZM4.52,22.89c-1.52-2.92-.55-6.44,2.15-8.31,1.38-.96,3.2-1.2,4.51-.19-4.21,1.13-6.62,4.17-6.65,8.5Z"/>
      <polygon points="33.62 10.76 36.54 13.77 44.61 5.22 41.88 2.72 33.62 10.76"/>
      <path d="M8.06,35.09c-3.15,3.63-5.85,7.3-8.06,11.69l3.17-1.64.36,3.86c1.37-.62.26-4.12,1.27-4.9l6.2-4.78c.27-.21.9-.87.69-1.09l-.94-.98c-.21-.22-.92.42-1.15.61l-4.09,3.34,4.23-4.73c-.2-.54-1.11-1.35-1.67-1.4Z"/>
      <path d="M24.12,27.11l10.01-9.86c-.74-.82-1.54-1.49-2.17-1.55l-10.13,10.35c.05.74,1.7,1.65,2.29,1.07Z"/>
      <path d="M29.82,13.05l-9.64,9.97c-.29.3-.15,1.95.23,2,.38.05,1.06-.15,1.55-.62l9.62-9.16c-.06-.78-1.06-2.04-1.75-2.2Z"/>
      <path d="M29.19,7.79c-.38.11-1.24,1.12-1.02,1.46,1.21,1.34,3.2,3.61,4.54,4.95l5.12,5.15c.48-.38,1.21-1.17,1.37-1.63l-8.5-8.82c-.5-.52-1.06-1.24-1.51-1.11Z"/>
      <path d="M43.1.14c-.43.16-.98,1.29-.68,1.66.74.92,2.26,2.59,3.36,3.12,1.08.52,1.8-1.75,1.23-2.44-1.09-1.34-2.25-2.98-3.91-2.34Z"/>
    </g>
  </g>
</svg>