<?xml version="1.0" encoding="UTF-8"?>
<svg id="Warstwa_2" data-name="Warstwa 2" xmlns="http://www.w3.org/2000/svg" viewBox="0 0 45.56 44.72">
  <g id="icon-set-v2-combat-action-pixarts-store">
    <g id="icon-set-v2-combat-action-pixarts-store_123">
      <path d="M42.81,13.84l-5.19,2.81-4.43-5.69c-3.03-3.89-10.4-2.1-14.88-1.49l-6.09,5.68c-.65.61-.91,1.84-.67,2.59.21.63,1.78,1.5,2.28,1.04l5.98-5.51c1.03-.3,2.86-.27,4.36-.14l-4.93,6.68c-1.67,2.26-1.58,5.49,1.08,7.18l8.93,5.65-.15,9.14c-.02,1.47.85,2.72,2.2,2.92.88.13,2.67-.57,2.77-1.75.4-4.55.49-8.65.42-13.19-2.63-2.07-4.88-3.71-7.62-5.63l5.56-7.28,2.99,3.75c.45.57,1.89.74,2.56.37l6.91-3.88c.7-.39.89-2,.43-2.75-.37-.6-1.76-.89-2.5-.49Z"/>
      <path d="M5.78,43.68c.92.8,2.46.73,3.58-.27,6.61-5.93,8.79-5.99,11.93-13.88-1.64-1.49-2.75-2.57-4.05-3.96-1.29,2.15-1.97,5.22-3.58,7.19-3.35,4.09-11.53,7.75-7.88,10.92Z"/>
      <path d="M.97,43.67c.58.5,2.59.71,2.61-.32.05-2.51.21-3.59,1.67-5.01,2.18-2.12,5.19-3.81,7.01-6.31,1.95-2.67,2.89-6.11,4.36-9.09.57-1.15.08-2.9-1.12-3.21-.76-.19-2.36.65-2.93,1.29-1.43,4.06-1.91,8.98-4.9,11.96L.41,40.25c-.87.87-.19,2.76.56,3.41Z"/>
      <circle cx="35.69" cy="5.64" r="4.26"/>
      <path d="M23.95,6.86c1.79.41,4.03.21,5.88.34l.55-4.38c.2-1.62-2.14-2.61-3.48-2.79-1.48-.21-2.69.93-3.79,2.21-.83.97-.78,4.25.84,4.62Z"/>
      <path d="M10.73,14.78c1.84-2.1,3.86-3.87,5.84-5.86-1.57-.02-3.91-.26-4.87.45-2.52,1.87-4.45,3.9-6.56,6.15-.59.63-.66,2.15-.22,2.69,2.01,2.42,4.87-2.33,5.82-3.43Z"/>
      <path d="M22.13,34.63l-.46,7.18c-.08,1.28,1.04,2.52,2.08,2.73.79.15,2.62-.59,2.66-1.55l.46-10.16-4.02-2.41c-.34.8-.6,1.44-.37,1.39.19-.04.95-.17,1.09-.07l2.53,1.77c.34,2.48.19,5.47-.28,8.36-.17,1.04-2.32.9-2.82.01-1.82-3.26,1.07-5.52-.9-7.26Z"/>
    </g>
  </g>
</svg>