<?xml version="1.0" encoding="UTF-8"?>
<svg id="Warstwa_2" data-name="Warstwa 2" xmlns="http://www.w3.org/2000/svg" viewBox="0 0 42.53 49.46">
  <g id="icon-set-v2-combat-action-pixarts-store">
    <g id="icon-set-v2-combat-action-pixarts-store_55">
      <polygon points="7.66 26.98 18.93 25.38 8.64 49.46 35.06 16.37 22.74 17.51 33.32 0 19.09 .11 7.66 26.98"/>
      <path d="M6.99,6.22l-2.62,2.43L0,1.32c.92,3.78,2.17,7.17,3.58,10.87l2.62-2.31,3.46,6.62c.67-1.28.35-2.36-.12-3.61l-2.54-6.66Z"/>
      <path d="M34.22,44.23l-3.83-6.84,3.17-1.24-6.46-6.9c-.36.99-.17,2,.4,2.75l2.42,3.16-2.9,1.5c2.57,2.88,4.46,5.3,7.19,7.57Z"/>
      <path d="M37.18,8.25l-1.46-2.75-6.38,7.5c2.38-1.09,3.75-2.38,5.69-3.76l1.83,2.72c2.11-2.82,3.97-5.11,5.67-8.32l-5.34,4.62Z"/>
      <path d="M6.27,32.71L.16,40.01c2.35-1.19,3.75-2.52,5.89-4.12l1.8,2.55,5.84-7.51c-2.14,1.09-3.63,2.37-5.61,3.99l-1.81-2.21Z"/>
    </g>
  </g>
</svg>