<?xml version="1.0" encoding="UTF-8"?>
<svg id="Warstwa_2" data-name="Warstwa 2" xmlns="http://www.w3.org/2000/svg" viewBox="0 0 47.61 46.48">
  <g id="icon-set-v2-combat-action-pixarts-store">
    <g id="icon-set-v2-combat-action-pixarts-store_86">
      <path d="M10.85,28.03c2.4,5.49,6,10.45,11.38,13.09V8.04c-4.49,2.85-8.88,4.44-13.94,5.32.09,5.13.9,9.93,2.56,14.66Z"/>
      <path d="M22.19,45.81c2.69-1.63,5.05-3.35,7.44-5.43-.19-.81-.64-1.74-1.06-2.32l-6.39,4.7c-11.57-6.75-15.17-18.07-15.1-30.45,5.54-.88,10.6-2.52,14.96-5.71l6.26,3.48,1.05-2.49-7.36-4.02c-5.12,3.63-10.85,6-17.4,6.53-.45,15.17,3.75,27.91,17.59,35.69Z"/>
      <path d="M34.59,0c-2.6,4.84-4.62,9.65-6.32,14.79l3.43-1.98c-.61,3.57-3.38,5.96-4.65,9.16l7.84-5.44-2.39,3.58c1.44-.43,3.05-1.17,4.15-.94.71.44,1.33.97,1.8.84.47-.13,1.25-.92,1.26-1.4l.06-2.64-1.29.22,5.24-5.84-5.41,2.62L47.55.42l-12.51,11.02,1.39-4.96-3.67,3.82c.21-3.55,1.2-6.64,1.82-10.3Z"/>
      <path d="M13.02,41.27c-2.55-3.16-4.85-6.53-6.8-10.08l-3.28,3.1,3.37-.02-3.74,4.37,4.13-1.46L.3,46.48l8.02-6.59.14,1.72,1.69-1.52-.77,4.67c1.35-1.52,2.26-2.65,3.64-3.49Z"/>
      <path d="M37.61,31.66l4.24.4c-3.15-1.73-6.05-3-9.38-4.01l1.63,2.02-5.25-2.16,3.43,2.81-.58.7,3.92,4.09.09-1.9,11.39,6.15-9.5-8.1Z"/>
      <path d="M7.74,5.86C6.8,6.48,1.95.73,0,.09l4.49,6.78-1.74-.79.48,1.88-2.64-.2,2.16,3.29.53-2.04c.14-.53,6.97-1.21,8.55-2.15L7.87,1.64l.64,2.7c.09.36-.42,1.29-.77,1.52Z"/>
      <path d="M32.98,37.12c.6-.97,1.12-1.61,1.06-2.04-.09-.61-1.7-2.34-1.86-2.09l-.62.99c-.14.23-.36.82-.55.77l-.78-.2.11,1.61-3.25-4.4c.71,1.95,1.35,3.64,2.21,5.36l4.56,9.18c-.13-3.56-3.31-7.68-1.71-10.69l.84,1.51Z"/>
      <path d="M36.93,21.33c-2.54.65-4.89,1.7-7.26,2.91l5.75-.99c1.48-.25,2.98-.66,4.41-1l7.79-3.66-10.68,2.73Z"/>
      <path d="M38.84,23.76c-.86.13-2.21.4-2.89,1.08-.53.53-.72,1.88-.95,2.87.73.33,1.79.63,2.46.55l1.38-4.5Z"/>
      <path d="M43.2,42.71c-.44-1.48-1.57-2.56-3.07-2.83.59,1.36,1.4,2.47,3.07,2.83Z"/>
    </g>
  </g>
</svg>