<?xml version="1.0" encoding="UTF-8"?>
<svg id="Warstwa_2" data-name="Warstwa 2" xmlns="http://www.w3.org/2000/svg" viewBox="0 0 45.28 45.72">
  <g id="icon-set-v2-combat-action-pixarts-store">
    <g id="icon-set-v2-combat-action-pixarts-store_139">
      <path d="M.64,3.67c.13,2.07.35,3.72,1.32,5.59,1.64,3.17-.74,5-.23,6.52.15.45.99,1.07,1.52,1.18,2.44.52,15.54,2.17,11.67-3.14,0-5.12,1.86-8.76,2.17-13.81H.42s.22,3.66.22,3.66Z"/>
      <path d="M15.91,25.26c-3.04.74-6.22,1.02-9.25.94l-.21,5.82c.9,1.08,2.19,2.89,3.07,4.34,1.23-.04,2.87,0,4.14.57,5.17,2.34,11.03,2.54,16.26,0,.05-2.47-.61-4.7-2.92-5.36-6.61-1.89-5.56-1.32-11.11-6.31Z"/>
      <path d="M16.74,23.54l-.04-6.43c-2.59,2.85-12.87,1.91-16.07.47l-.08,5.26c0,.27.85.97.97.78.9-1.38.66-3.17,2.47-3.62.65-.16,1.79.25,1.93.7.63,2.05-.76,2.46-.41,3.85,4.01.6,7.42.17,11.23-1.02Z"/>
      <path d="M31.81,26.79c-.11-.26-.82-.47-1.01-.43l-.04,2.87c-2.59-.55-.77-3.37-2.25-3.29-.83,1.47-.05,4.35,1.86,4.29.65-.02,1.27-.34,1.6.08.23.29.07,1.33.2,1.68.54,1.44,2.84,2.89,4.67,2.03l-3.97-2.43c.47-.26,1.22-.46,1.13-.7l-.35-.93,2.85,1.46c-.47.32-.98.59-.84.76.1.13.41.49.54.59l2.74,2.25-1.77-.68c.1,1.49.24,2.37.64,3.62-.32.37-1.07,1.1-1.42,1.41v-1.04c-.01-.44-3.12.41-3.98,1.82-.37.6-.55,1.35-.94,1.4l-1.29.18-.07-.91c-.04-.51-5.55-.62-5.44,1.19l5.37-.29c-1.12.5-1.76,1.12-1.27,1.75.65.15,6.96-1.16,5.38-2.1l-1.03-.62,3.16-1.5c-.17.76-.49,1.52-.22,1.54l1.25.11c-1.31.97-2.7,1.62-4.46,2.53,1.47,1.54,5.75-1.29,5.39-2.2l-.46-1.16c.85-.85,1.64-1.66,2.4-2.99h-2.07s1.35-2.74,1.35-2.74l-1.42-1.98c-.52-1.92-2.46-3.58-4.57-2.75-.65.26-1.61-.48-1.54-1.21.06-.56.04-1.28-.11-1.62Z"/>
      <path d="M4.36,21.11c-2.76.29-2.04,10.37-.69,5.27l1.1-4.17c.08-.31-.1-1.14-.41-1.11Z"/>
      <path d="M18.55,43.33c-.31-.92-.88-1.11-1.74-1.67l5.66.25c-.48-1.89-5.75-1.8-5.74-.72v.55s-4.26-.74-4.26-.74c-1.75,1.72,5.47,2.61,6.08,2.32Z"/>
      <path d="M25.77,42.4l-4.66.02c-.25,0-.87.63-.72.8.12.13.57.57.75.58l4.85.1c.22,0,.77-.8.62-.92-.15-.12-.65-.58-.84-.58Z"/>
      <path d="M39.1,32.68c1.69,2.23,2.15,4.36.53,6.43,1.67.1,2.38-1.13,2.27-2.77-.12-1.8-.66-3.76-2.8-3.66Z"/>
      <path d="M3.22,38.06c.73,1.06,1.74,2.35,3.17,1.52-1.69-1.6-2.64-3.14-3.37-5.29-1.35,1.02-.59,2.63.21,3.77Z"/>
      <path d="M2.11,31.92l-.4-6.6c-1.83.01-1.64,7,.4,6.6Z"/>
      <path d="M2.69,29.77c-.05.16-.21.67-.17.86l.92,3.7c.34.69.58,1.11,1.71,1.21-.41-1.74-1.02-3.92-1.49-5.36-.08-.24-.91-.62-.97-.41Z"/>
      <path d="M5.84,37.43c-.02.26.14,1.01.36,1.2l2.65,2.19-.64.75c-.41.48,2.26,2.96,4.99,2.52.23-.04.8-.72.6-.78l-.66-.2c-1.6-.49-3.07-1.06-4.19-1.92l1.43-.34c.23-.06-.14-.9-.34-1.05l-3.01-2.26c-.21-.16-1.16-.37-1.18-.11Z"/>
      <path d="M21.91,45.29c.13-.3.39-.87.24-.87l-.79-.05c-1.6-.09-3.21-.23-4.95-.42-1.15,1.57,4.21,2.15,5.5,1.34Z"/>
      <path d="M30.88,43.72c-2.18.44-3.89.66-6.19.86.08,1.85,6.42,1.37,6.19-.86Z"/>
      <path d="M4.3,25.62c-.22,2.06-.26,3.94.3,5.85,1.34-.17,1.21-6.37-.3-5.85Z"/>
      <path d="M9.45,38.87c1.88.95,3.46,1.62,5.21,2.02.15-1.5-5.13-3.74-5.21-2.02Z"/>
      <path d="M5.02,33.74c.91,1.65,1.76,3.12,3.04,4,.35-2.32-1.17-2.81-1.98-4.29l-1.07.29Z"/>
      <path d="M.64,36.88l.68-2.51c.09-.32.25-1.02.04-1.19l-1.12-.9c-.22,1.75-.54,2.83.41,4.6Z"/>
      <path d="M25.45,17l-2.54,1.24c2.04.66,2.7,1.29,3.27,2.9.48,1.36.69,1.98-.02,3.71l2.45-.77c.71,1,1.93.91,2.96,1.29,1,.37,1.49,1.81,2.99,1.38,1.12-.32,2.06.44,2.82,1.48.12-1.54.6-2.43,1.92-3.18.83-.47,1.72-.51,2.89-.29-.61-1.19-.58-2.1-.16-3.12.62-1.53,1.19-2.04,3.24-2.38l-2.14-1.33-.88-3.79,1.4-2.58-2.75.68-2.67-2.28-.6-2.72-1.79,2.03-3.5-.13-1.87-2.03c-.61,3.5.31,2.69-2.79,4.92l-2.79-.33c1.97,2.91,1.45,1.75.55,5.3ZM40.09,20.35l-3.39.6c-.52-1.24-.34-2.37,1.04-2.72l2.34,2.11ZM38.18,11.54l-.45,3.19c-1.34-.13-1.91-.6-2.4-1.67l2.84-1.51ZM32.33,14.76c-.24,1.2-.89,1.93-1.95,2.09l-1.14-3.26,3.09,1.17Z"/>
    </g>
  </g>
</svg>