<?xml version="1.0" encoding="UTF-8"?>
<svg id="Warstwa_2" data-name="Warstwa 2" xmlns="http://www.w3.org/2000/svg" viewBox="0 0 41.4 50.4">
  <g id="icon-set-v2-combat-action-pixarts-store">
    <g id="icon-set-v2-combat-action-pixarts-store_160">
      <path d="M25.68,23.16v-8.84s6.63-.12,6.63-.12L20.72,0l-11.64,14.22,6.71.07v8.94S0,29.17,0,29.17v21.23s41.4-.02,41.4-.02v-21.22s-15.71-6.01-15.71-6.01ZM20.68,47.81c-7.6-3.58-9.56-10.52-9.04-18.02,3.42-.56,6.21-1.54,9.07-3.23,2.85,1.56,5.69,2.7,9.17,3.34.4,7.81-1.37,14.37-9.21,17.91Z"/>
      <path d="M22.1,31.74c-.87-.07-2.33,0-2.85.22l-.08,3.23-3.56.14.09,2.91,3.4.15.18,3.49,2.95-.09v-3.38s3.61-.18,3.61-.18l.08-2.84-3.65-.2-.18-3.44Z"/>
    </g>
  </g>
</svg>