<?xml version="1.0" encoding="UTF-8"?>
<svg id="Warstwa_2" data-name="Warstwa 2" xmlns="http://www.w3.org/2000/svg" viewBox="0 0 48.73 51.03">
  <g id="icon-set-v2-combat-action-pixarts-store">
    <g id="icon-set-v2-combat-action-pixarts-store_143">
      <path d="M21.56,9.46c.36-2.22-.23-4.07-1.49-5.54-.29,2.08.37,3.81,1.49,5.54Z"/>
      <path d="M31.42,5.26c1.79-1.23,3.02-3.07,2.38-5.26-1.16,1.69-2.03,3.35-2.38,5.26Z"/>
      <path d="M13.1,48.72c4.77-3.92,11.35-10.98,10.79-17.9l-2.36,5.26-.29-4.35-5.56,4.26c1.18-2.61,2.28-4.21,3.53-6.42l-7.28-.1,6.48-3.09-6.57-4.09,7.08.89-2.47-5.61,5.03,3.48.08-6.83c1.18,2.12,1.64,3.91,2.59,6.45.6-2.3,1.08-4.53,1.23-6.94-4.88-.97-8.81-2.8-12.53-6.08-3.69,3.65-7.92,5.5-12.84,6.17.03,5.44.33,10.72,1.19,16.1,1.37,8.63,5.49,13.65,11.91,18.8ZM12.99,10.59c1.98,1.59,3.86,2.73,6.06,3.73.8.16,1.17.99.82,1.89-2.38-1.15-4.51-2.34-6.87-3.88-2.95,2.08-6.04,3.77-9.7,4.65.17,4.43.53,8.81,1.21,13.26.97,6.3,4.03,9.57,8.57,13.86,2.9-2.6,4.92-5.45,7.08-8.79,1.34,2.69-4.95,8.57-6.99,10.54l-4.43-4.3C2.6,35.59,2.38,24.4,2.04,15.91c4.31-.7,7.71-2.77,10.95-5.32Z"/>
      <path d="M24.91,43.1c.71-3.44,1.39-6.53,1.77-9.77.16-1.35-1.21-3.11.42-4.58,3.55,3.07-1.07,7.25.85,8.1,2.78,1.24.79-5.36,4.78-5.34l5.88.03c-2.01,4.14-2.27,3.22-6.37,3.52l-2.98,10.27c3.94-.02,7.59-1.08,10.49-3.42-.16-1.32,2.13-6.8,2.32-4.94l.15,1.39c.09.86.35,2.03.99,2.22.48.14,1.67-.23,1.87-.57-.56-1.96-.55-3.76.02-5.69,1.03-3.49,1.14-7.61-1.26-10.46-2.81-3.34-7.45-2.96-10.64.21l-1.17-3.14c-5.29,2.21-6.07,9.6-7.7,15.47-.66,2.36-1.25,4.64.58,6.69Z"/>
      <path d="M44.33,12.14c-2.2-2.02-5.01-2.94-7.87-3.5.37,3.19.35,5.88-.37,9.29,7.04-1.71,10.32,5.85,11.35,11.93,2.22-6.03,1.84-13.2-3.1-17.73Z"/>
      <path d="M41.26,40.81c-.34,1.76-.93,2.68-2.19,3.31-3.58,1.79-7.07,3.47-11.18,2.67l.21-2.5-4.07,3.23-.43-2.32-2.22,3.03c2.56,2.52,5.1,2.58,7.96,2.76,3.55.22,6.68-.82,9.48-3.21,4.29-3.67,7.74-.56,8.83-.38,3.09.52-6.66-7.21-6.38-6.59Z"/>
      <path d="M26.45,13.51l.05,7.62,1.54-1.24.04,1.75c.5-.46,1.6-1.35,1.85-1.98l1.46-3.74-2.4,1.95.37-5.98-2.15,3.35c.02-4.04.15-7.36-.72-11.08-2.34,6.94-.04,7.86-.03,9.36Z"/>
      <path d="M31.97,8.72l1.25,8.54c.2.62,1.7.92,2.4.5l.19-9c-1.38.08-2.5.05-3.84-.03Z"/>
      <path d="M33.63,18.83c-.38,1.09-.34,2.24.03,3.29,3.28-2.54,7.09-2.05,10.3.1-1.84-3.12-5.27-4.14-8.27-2.95l-.69,1.46c-.22-.8-.62-1.64-1.36-1.91Z"/>
    </g>
  </g>
</svg>