<?xml version="1.0" encoding="UTF-8"?>
<svg id="Warstwa_2" data-name="Warstwa 2" xmlns="http://www.w3.org/2000/svg" viewBox="0 0 43.99 49.53">
  <g id="icon-set-v2-combat-action-pixarts-store">
    <g id="icon-set-v2-combat-action-pixarts-store_15">
      <path d="M31.09,27.88l1.52,3.58c3.28-8.29.13-18.04-9.2-20.3l.39,2.26-5.43,2.51c1.26,3.13,3.02,3.1,3.53,6.17l-1.5-1.15c-.25-.19-3.75,1.69-3.83,4.57-.57-2.2.74-3.6,2.61-5.13l-2.12-3.37-3.95,1.16-1.04-.93c1.5-.09,3.5-.44,4.55-1.49l3.41-3.43c1.11-1.12-1.49-2.94-2.77-2.88-4.42.18-8.34,1.31-11.75,3.97C.1,17.65-1.38,24.87,1.31,30.92l2-4.28c.37-.8.06-2.43.05-3.58,1.18,1.64,1.13,3.67.14,5.52-1.78,3.3,0,3.92-2.48,8.22-.06.85.89,2.31,1.35,3.07,1.01,1.65,2.09,2.4,4.17,2.01,1.18-.22,3.01.55,2.91,1.81l-.29,3.94,3.16,1.18.84-2.9.68,3.05,2.15.57.89-3.4c.53.89.78,1.91.87,2.91.06.62,2.05.44,2.19-.14l.71-2.86.89,2.75,2.98-1.03.12-4.82c.02-.69,1.13-2.02.66-2.56-.6-.7-1.4-1.07-2.54-1.58l.3-2.59c-1.43-.69-2.72-1.37-3.13-2.24-.55-1.16-.66-3.18.06-4.02,1.57-1.82,4.09-1.48,6.26-.98,2.48.58,3.34,2.53,2.7,4.79-.26.92-.72,2.07-1.29,2.54-1.35,1.12-3.86-.6-3.77,1.34.09,1.81,1.65.02,2.73,3.27.26.79,2.19,1.27,3.02.96.66-.25,1.38-1.32,1.88-1.93,1.73-2.12.84-3.2.3-5.49l-1.23-5.23c-.53-2.25-1.29-4.22.05-6.17-.34,1.94-.25,3.26.43,4.85ZM6.59,36.5c-1.73-.86-2.53-4.2-1.65-5.74,1.51-2.64,4.86-2.39,7.21-1.48,1.6.62,2.49,1.54,2.22,3.4-.58,4.05-6.45,4.48-7.78,3.82ZM18.84,42.09c-1.31-.02-1.61-1.52-1.83-1.32l-.67.61c-.22.2-.72.57-.95.72-.29.2-1.15-.66-1.13-1.09.06-1.64.85-4.67,2.64-6.03,1.61.48,3.93,7.14,1.95,7.11Z"/>
      <path d="M43.99,13.12l-4.94-.75c-4.94-.75,1.31-8.73,2.06-11.05-1.97.85-9.96,7.32-10.91,3.61l-1.26-4.93-2.37,3.8c-.33.53-1.21,1.19-1.71,1.31-.49.12-1.62-.37-1.98-.78l-2.05-2.28.04,5.62.87-2.77c.79.68,1.9,1.91,3,1.96,1.45.07,2.44-1.5,3.4-2.48.62,1.42,1.03,3.64,3.06,3.71,1.68.05,3.4-1.07,5.21-1.78-.6,1.87-1.54,3.57-1.3,5.22.27,1.89,2.4,2.12,4.02,2.59-.71,1.01-2.33,1.95-2.12,3.65.16,1.27,1.47,2.36,2.13,3.14l-2.22,1.06,6.16-.22c-1.66-1.09-3.85-2.15-4.44-3.75.56-2.67,3.28-3.33,5.36-4.88Z"/>
    </g>
  </g>
</svg>