<?xml version="1.0" encoding="UTF-8"?>
<svg id="Warstwa_2" data-name="Warstwa 2" xmlns="http://www.w3.org/2000/svg" viewBox="0 0 44.93 47.94">
  <g id="icon-set-v2-combat-action-pixarts-store">
    <g id="icon-set-v2-combat-action-pixarts-store_32">
      <path d="M34.65,29.24c-2.76-2.74-5.03-5.68-6.49-9.33-.63-1.58-2.17-2.28-3.91-2.7,1.58-1.63,2.31-3.45,1.4-5.44-.87-1.92-3.29-2.84-5.1-1.45-2.21,1.69-1.99,4.94.28,6.85-1.94.58-3.39,1.26-4.12,2.99-1.47,3.49-3.97,6.5-6.4,9.13l3.04,4.21c1.99-2.54,3.6-5.18,5.14-8.15.85,4.3-3.72,14.8-6.58,18.85,4.7,4.94,16.77,5.03,21.21-.05-3.61-5.82-6.47-11.77-6.76-18.62,1.81,2.9,3.16,5.4,5.27,8.05l3.02-4.33Z"/>
      <path d="M12.32,24.46c.74-.54,1.64-1.63,2.18-2.64l2.37-4.48c-1.96-3.34-.62-4.84-3.37-6.34C8.36,8.17,4.93,5.83,2.56,0c-1.76,3.9-.22,7.63,2.1,10.86C2.9,9.9,1.54,8.56.01,7.09c-.21,3.91,2,6.68,5.08,8.93-1.2-.08-2.35-.39-3.92-.88,1,3.08,3.78,4.47,7.22,5.44l-3.51.52c3.2,3.19,4.57.64,7.44,3.35Z"/>
      <path d="M44.89,7.08c-1.55,1.59-2.83,3.01-4.77,3.83,2.52-3.27,4.1-6.91,2.37-10.8-2.66,5.73-5.85,7.98-11.02,10.86-.92.51-1.71,1.47-2.01,2.41l-1.29,4.01,1.92,3.52c.71,1.3,1.52,2.62,2.32,3.79,3.03-3.06,3.98-.17,7.66-3.61l-3.78-.53c3.17-.74,6.23-2.09,7.29-5.28l-3.76.77c2.91-2.34,5.47-5.11,5.06-8.98Z"/>
      <path d="M18.26,7.43c5.32,2.04,10.57-.42,9.16-1.45-2.75-2.02-10.26-1.21-9.97.53.04.26.55.82.81.92ZM26.64,6.34c-2.55,1.31-5.49,1.21-8.26.12,2.39-1.39,5.43-1.29,8.26-.12Z"/>
    </g>
  </g>
</svg>