<?xml version="1.0" encoding="UTF-8"?>
<svg id="Warstwa_2" data-name="Warstwa 2" xmlns="http://www.w3.org/2000/svg" viewBox="0 0 51.02 51.1">
  <g id="icon-set-v2-combat-action-pixarts-store">
    <g id="icon-set-v2-combat-action-pixarts-store_74">
      <path d="M38.92,27.63c1.39-3.5,1.87-6.68.54-10.12-1.77,1.55-3.42,3.16-4.36,4.9l-1.87-3.15-2.23,1.18c.34-1.28.66-2.81.12-3.35-.65-.65-1.64-.93-2.75-1.36l2.23-.2.29-1.86,1.19.64,2.08-2.33c-6.5-4.12-15.4-1.76-18.83,5.26-1.58,3.22-1.01,6.88.22,10.35l1.72-5.22c.15,1.58-.3,3.24-.82,4.98l-1.05,3.53c-.28.94.85,2.65,1.58,3.25,1.72,1.42,2.54-.41,4.68,1.41.14.12-.7.51-.67.69l.42,3.33c.03.26,1.04.8,1.13.56l.47-1.15c.31,1.09.51,1.66,1.36,2.16l.66-2.23c.3,1.31.24,2.21,1.4,2.62l.76-2.43.92,2.26c.74-.13,1.23-1.04,1.47-1.9-.03.17.8,1.78,1,1.38.25-.5.62-1.33.81-1.78l.72,1.07c.11.16.75-.59.78-.82l.48-3.09c-.15-.24-.69-.75-.49-.88.15-.1.7-.54.88-.56l2.96-.19c.99-.57,2.54-2.64,2.24-3.7l-1.08-3.83c-.4-1.42-.83-2.71-.77-3.91l1.79,4.47ZM21.45,31.3c-1.84.33-2.9-.28-3.33-1.95-.17-.64-.24-1.84-.01-2.38.3-.71,1.32-1.35,2.23-1.65,1.81-.6,4.68.2,5,2.23.33,2.09-2.04,3.42-3.88,3.75ZM28.58,35.33l-1.37-.44c-.44-.14-1.75.73-1.85.2-.37-2,.47-3.71,1.94-4.96,1.24.94,2.58,5.62,1.28,5.2ZM35.15,30.97c-2.21,1.21-5.9-.49-6.03-3.04-.08-1.57,1.76-2.52,2.78-2.73,1.46-.3,3.26.02,4.18,1.33.78,1.13.55,3.63-.93,4.44Z"/>
      <path d="M20.04,37.1c-1.72-3.22-5.58,3.63-7.4,4.12l4.44-5.17-1.95-1.1-7.85,8.26c-1.97,2.08-3.06,4.83-4.3,7.73,7.86-3.54,11.25-7.79,17.07-13.84Z"/>
      <path d="M6.71,4.64c0-1.72-.86-2.57-2.59-2.49-1.16.05-1.39,1.54-1.93,2.58-.43.84-2.57.71-1.89,2.46,1.27,3.26,2.91.27,5.93,2.86l7.29,6.25,1.78-2.27-7.31-6.49c-.69-.61-1.28-2.03-1.28-2.89Z"/>
      <path d="M45.84,47.54c.54-.19,3.57-3.01,3.46-3.91-.26-2.06-3.08-.66-5.19-2.48l-6-5.17-2.91.73,6.92,5.98c2.28,1.97,1.47,5.64,3.72,4.85Z"/>
      <path d="M37.63,51.02c1.01.41,3.86-.82,4.09-1.6.12-.4-.37-1.41-.8-1.64-3.32-1.76-3.02-4.12-5.33-7.39-2.66,1.48.86,4.1,1.38,7.98.13.98-.42,2.21.66,2.66Z"/>
      <polygon points="46.63 2.18 40.02 8.85 42.23 11.17 48.71 4.4 46.63 2.18"/>
      <path d="M3.17,18.66c3.24-.42,3.79,2.85,8.26.72-2.46-1.37-5.55-1.52-7.4-3.46-1.07-1.12-2.28-2.39-3.83-1.13L0,17.65c-.11,1.69,2.12,1.14,3.16,1.01Z"/>
      <path d="M17.35.41c-.54-.16-3.54.39-3.85.99-.88,1.7,1.31,1.88,2.56,4.82l1.61,3.77c.67-.29.57-.29.76-.25l1.09.23-1.83-5.4c-.53-1.56.98-3.77-.33-4.15Z"/>
      <path d="M48.35,34.32c-2.49-.11-4.85-1.27-7.28-1.85l.44,1.09c.04.09.07.11-.02.15l-.83.36,4.72,1.81c1.99.76,3.37,3.99,4.05,2.6,1.42-2.9,2.06-3.12,1.2-4.09-.42-.47-1.54-.03-2.29-.06Z"/>
      <rect x="39.18" y="5.01" width="1.95" height="12.49" transform="translate(3.65 31.42) rotate(-44.58)"/>
      <path d="M39.11,12.89l-4.97,5.23c-.16.46,1.1,1.77,1.45,1.46l5.3-5.15-1.78-1.55Z"/>
      <path d="M32.7,18.01l5.92-5.56c-.34-.73-1.17-1.56-1.87-1.63l-4.28,4.91c-.37.42-.03,1.88.22,2.28Z"/>
      <path d="M50.54,3.88c1.31-1.3-1.06-3.37-2.17-3.85-.29-.13-1.09.2-1.3.42-.17.18-.34.92-.16,1.1l2.15,2.14c.26.26,1.22.45,1.48.2Z"/>
      <path d="M17.11,12.57l-1.52-2.79-.42,1.04c-.71-1-1.23-1.71-2.29-2.34.13.74,3.06,5.07,4.23,4.09Z"/>
    </g>
  </g>
</svg>