<?xml version="1.0" encoding="UTF-8"?>
<svg id="Warstwa_2" data-name="Warstwa 2" xmlns="http://www.w3.org/2000/svg" viewBox="0 0 56.7 43.71">
  <g id="icon-set-v2-combat-action-pixarts-store">
    <g id="icon-set-v2-combat-action-pixarts-store_25">
      <path d="M32.61,34.59c-6.89-6.27-4.57-3.09-6.27-12.54-1.39.21-2.63.27-4.29.2l-1.01,7.08c-1.26,2.06-3.5,3.71-5.32,5.25.96,1.04,1.74,2.26,2.3,3.98l4.55-2.32c.78-.4,2.44-.38,3.11-.03l4.56,2.35c.44-1.61,1.28-2.9,2.37-3.95Z"/>
      <path d="M42.32,15.34l-3.84-.03c-1.64,8.49.42,6.15-6.12,11.64.75,1.13,1.46,2.36,2.12,3.71,7.76-3.5,4.45-3.07,11.76-.07.65-1.55,1.32-2.63,2.15-3.55-6.8-5.61-4.4-3.28-6.08-11.71Z"/>
      <path d="M13.93,24.87c1.22-.59,2.63-.3,3.94.3l2.17.99c1.2-3.22.59-5.71-1.53-7.71l-.94-6.68-4.01.21c-1.37,8.37.31,5.93-5.65,11.35.72,1.01,1.2,1.94,1.74,3.62l4.28-2.09Z"/>
      <path d="M27.08,20.34l-2.92-11.53-2.85,11.51c1.86,1.53,3.89,1.25,5.77.02Z"/>
      <path d="M13.88,35.32c-2.25,2.57-4.28,4.95-6.47,8.28,3.33-.87,6.48-2.3,9.58-3.79.24-2.33-1.49-4.56-3.12-4.49Z"/>
      <path d="M34.29,35.31c-1.85.16-3.45,2.82-2.89,4.69l9.61,3.72c-2.16-3.41-4.31-5.81-6.71-8.4Z"/>
      <path d="M42.98,13.44l-2.63-10.45-2.56,10.51c1.42,1.44,3.86,1.5,5.19-.06Z"/>
      <path d="M18.15,10L15.6,0c-1.06,3.44-1.82,6.71-2.52,10.12,1.33,1.52,3.87,1.36,5.07-.12Z"/>
      <path d="M47.43,32.08l9.27,3.53-6.59-8.07c-1.83-.15-3.43,2.97-2.68,4.54Z"/>
      <path d="M6.13,23.98c-2.18,2.43-4,4.66-6.13,7.6l8.88-3.38c.26-1.89-1.02-4.15-2.75-4.22Z"/>
      <path d="M29.21,29.6l3.5,3c.9-1.14.6-2.73.2-3.46-.34-.63-1.5-1.49-2.2-1.42-.52.06-1.28,1.32-1.5,1.88Z"/>
      <path d="M22.28,37.88l1.93,4.05,1.86-4.24c-1.22-1.07-2.88-.97-3.79.18Z"/>
      <path d="M15.57,29.69l1.9-3.8c-1.94-.55-2.21-.53-3.57.07l1.67,3.73Z"/>
      <path d="M38.67,30.05l1.67,3.43,1.6-3.48c-.79-.95-2.32-1.02-3.26.05Z"/>
    </g>
  </g>
</svg>