<?xml version="1.0" encoding="UTF-8"?>
<svg id="Warstwa_2" data-name="Warstwa 2" xmlns="http://www.w3.org/2000/svg" viewBox="0 0 51.9 49.51">
  <g id="icon-set-v2-combat-action-pixarts-store">
    <g id="icon-set-v2-combat-action-pixarts-store_22">
      <path d="M35.71,14.48c-1.24-1.87,2.22-3.57-.2-4.73l-3.04,3.63c-.73.88-2.15,1.24-3.37.91-.82-.22-1.43-1.62-1.59-2.71l-.44-3.01-2.03,2.77c-.57.78-2.1,1.48-3,1.27-2.35-.56-2.23-3.49-3.55-3.1-.48.14-.77,1.18-.6,1.61l1.32,3.28c.18.46-.14,1.59-.57,1.74-2.51.86-7.46-4.73-9.16-6.76-.67-.8-2.55-1.57-2.84-.47-.85,3.24,5.99,3.49,8.47,8.47.16.33.16,1.26-.03,1.49-.19.23-.86.2-1.2.05l-2.87-1.32c-.89.92,1.93,1.99,1.09,3.58-.66,1.25-3.03.96-2.41,1.41l.64.47c.52.38,1.29,1.16,1.34,1.69s-.84,1.58-1.36,1.74l-3.45,1.08c-.29.09-.7.75-.72,1.02-.02.27.87.7,1.18.65l4.29-.74c.53-.09,1.73.74,1.74,1.25.07,1.89-2.49,1.88-3.38,3.95,1.9,1.31,3.69-3.63,6.05-2.22-.65,1.92-1.77,3.74-3.24,5.12l-8.28,7.75c-.69.64-1.61,2.11-1.2,2.96,3.64,1.61,5.52-6.74,13.07-11.96.44-.3,1.58-.64,1.83-.3l.91,1.22c.54-.29,1.42-.72,1.95-.8.46-.07,1.23,1.18,1.18,1.73l-.5,5.7c-.03.34.24,1.09.5,1.3.25.22,1.05-.58,1.1-.92l.57-4.32c.07-.55.84-1.53,1.35-1.82.39-.23,1.16-.03,1.84.25l1.33-3.44c.22-.57,1.32-1.24,1.87-1.24,3.68,0,4.14,7,5.96,5.4.28-.25.37-1.29.14-1.64l-1.58-2.5c-.23-.36-.07-1.67.32-1.84,1.24-.56,2.6.6,2.41.16l-.27-.6c-.2-.46-.43-1.16-.3-1.53.1-.3,1.21-.47,1.51-.39,5.8,1.47,8.14,5.89,11.82,6.44.49.07,1.43-.42,1.54-.86.89-3.59-9.22-3.26-12.28-6.68.82-.93,1.8-.77,3.06-.83l1-.05c.14,0,.09-.58-.04-.64l-.66-.31c-.41-.19-1.15-.88-1.19-1.33-.12-1.2,2.37-1.35,2.09-2.41l-4.65-.13c-.98-.03-2.15-1.15-2.16-2.1-.02-.86.69-1.75,1.23-2.57,1.34-2.03,2.65-3.81,4.67-5.21l7.24-5.02c.66-.46,1.32-2.2.42-2.45-1.52-.43-3.08.81-4.12,1.82-1.55,1.51-9.15,9.45-10.74,7.05Z"/>
      <path d="M6.82,0c-1.7,2.85,4.27,7.13,5.93,8.5l-2.21-4.46c-.81-1.63-1.74-3.55-3.72-4.04Z"/>
      <path d="M33.33,40.47c-.41,1.91.78,6.72,2.84,6.04,2.09-.69-1.05-5.25-2.84-6.04Z"/>
      <path d="M6.62,31.65c-1.14-.21-7.38,1.03-6.55,2.88.9,2,5.44-1.3,6.55-2.88Z"/>
      <path d="M26.41,49.42c1.78.93,1.59-5.46.35-6.99-.72,2.09-2.17,6.04-.35,6.99Z"/>
      <path d="M15.19,6.45c.41.83,1.39,2.13,2.69,1.03.52-.44.3-2.09-.1-2.72-.32-.5-1.35-1.24-2.11-.95-.95.37-.8,1.99-.48,2.64Z"/>
      <path d="M38.21,1.09c-2.15.56-2.77,3.03-2.95,5.24,2.92-1.32,4.11-5.55,2.95-5.24Z"/>
      <path d="M50.12,29.25c.48-1.77-3.04-1.87-3.72-.9.39,1.08,3.16,2.31,3.72.9Z"/>
      <path d="M47.59,14.12c-1.32-.86-3.38.52-3.14,1.7.96.79,3.04-.18,3.14-1.7Z"/>
    </g>
  </g>
</svg>