<?xml version="1.0" encoding="UTF-8"?>
<svg id="Warstwa_2" data-name="Warstwa 2" xmlns="http://www.w3.org/2000/svg" viewBox="0 0 43.83 43.56">
  <g id="icon-set-v2-combat-action-pixarts-store">
    <g id="icon-set-v2-combat-action-pixarts-store_104">
      <path d="M20.38,42.38c6.75-4.03,11.47-9.89,13.67-17.21,1.38-5.02,1.98-9.99,1.75-15.2-5.81-.76-10.93-2.59-15.56-6.02-4.74,3.46-9.98,5.27-15.72,5.98-.06,4.61.22,8.9,1.31,13.26,1.89,8.27,7.02,15.09,14.54,19.18ZM7.58,12.44c4.69-.85,8.73-2.63,12.73-4.94,3.95,2.4,7.97,3.96,12.68,4.95-.03,3.68-.45,7.15-1.27,10.67-1.62,6.54-5.4,11.95-11.39,15.85-5.35-3.05-8.85-7.89-10.95-13.47-1.39-4.24-1.98-8.51-1.8-13.06Z"/>
      <path d="M37.51,15.3l6.32-2.11-5.14-1.5,5.06-5-6.68,1.33,2.72-8.02-6.31,6.06-1.4-5.61-2.06,5.59-2.22-3.44-.19,3.78c3.46,1.04,6.08,1.66,9.75,2.33l.15,6.59Z"/>
      <path d="M6.98,34.8l-5.16,8.24,7.92-5.41.44,5.62,2.46-4.47c-3.04-3.24-5.44-6.46-7.02-10.83l-4.68.78,5.26,2.26-6.21,3.99,6.98-.17Z"/>
      <path d="M33.73,30.63c-1.8,3.33-3.56,5.63-6.04,8.16l2.58,4.77.61-5.81c2.69,1.7,4.63,3.51,7.52,5.03l-4.91-8.08,6.56.2-6.32-4.28Z"/>
      <path d="M20.22,36.94l-.04-27.28c-3.94,2.05-7.09,3.37-11.04,4.24.11,3.84.75,7.46,1.82,11.08,1.78,4.84,4.86,9.11,9.25,11.96Z"/>
    </g>
  </g>
</svg>