<?xml version="1.0" encoding="UTF-8"?>
<svg id="Warstwa_2" data-name="Warstwa 2" xmlns="http://www.w3.org/2000/svg" viewBox="0 0 51.29 45.28">
  <g id="icon-set-v2-combat-action-pixarts-store">
    <g id="icon-set-v2-combat-action-pixarts-store_140">
      <path d="M2.42,12.01c0,.65.53,1.17,1.17,1.17s1.17-.53,1.17-1.17-.53-1.17-1.17-1.17-1.17.53-1.17,1.17Z"/>
      <path d="M28.06,40.88c-.94-.05-1.73.69-2.7,1.64-.36-2.71-2.09-4.44-4.5-4.35-.37-1.47-.74-2.51-1.35-3.76,1.42-1.55,1.7-3.9.51-5.64-1.11-1.61-3.2-2.39-5.34-2.02.1-1.67-.19-3.23-1.48-4.15-1.09-.78-2.87-.98-4-.11l.21,2.37c-1.96-3.79-5.64-5.68-9.42-3.54l.08,10.67c1.85-.36,3.07-.35,4.38.46.83.51,1.56,2.12,2.03,3.1,1.45.62,3.66,1.34,3,3.32-.87-1.41-2.67-1.62-3.68-2.32-.78-.53-1.16-2.49-2.26-2.84-1.16-.37-2.5-.53-3.53.21l.04,11.29,41.64.07-10.89-2.13c-.55-1.22-1.46-2.2-2.75-2.27ZM17.74,39.03c.23-2.62-2.99-2.43-3.94-3.53-1.49-1.72-2.08-4.29-5.6-3.6,1.24-.87,2.39-.96,3.52-.54,1.38.51,2.01,2.11,2.66,3.16,1.73.8,4.47,1.38,3.36,4.51Z"/>
      <path d="M48.71,13.84c-1,1.32-1.92,2.02-3.65,2.3l-2.41-6.61c.52-.58,1.8-.29,2.33-.43,2.47-.63,2.42-5.72,2-6.43-1.11-1.9-4.09-2.34-5.95-1.22-5.32-4.47-3.89,3.09-9.76.05.58,1.28,1.62,2.46,2.6,2.82,1.35.5,2.78.06,4-.51l2.1-.97.26,4.12c.24,1.39-7.89-.92-10.15-.29-2.14,2.2-4.09,4.39-6.03,6.71-.33.4.04,1.6.45,1.89.43.3,1.55.47,1.98.22.43-.25.68-1.47.84-2.05l3.77-3.47,3.47.79c-.99,2.18-1.5,4.34-2.72,6.05-4.22,5.9-1.58,6.04-5.67,13.11-1.32,1.62-3.94,2.62-4.62,4.85-.21.69,1.07,2.71,1.76,2.28,5.81-3.65,6.82-4.58,10.45-10.45l5.27,2.2-2.92,3.06c-1.33,1.39-2.54,2.22-4.55,3.46l2.07,5.1c.16.39,1.47.7,1.61.35.78-1.93-1.26-3.94,2.16-6.06,1.9-1.18,7.03-4.09,7.08-5.88.06-2.42-5.55-5.6-7.58-7.18,1.26-2.02,2.9-4.02,4.86-5.3.65,1.59,1.38,3.29,2.92,3.62,2.41-1.62,8.3-3.4,6.22-6.01-.38-.47-1.78-.6-2.14-.11Z"/>
      <path d="M9.98,15.47c-.77.24-1.66.71-1.92,1.16-.26.45.15,1.63.61,2.01.79.65,2.94-.07,3.12-.56.1-.28,0-.84-.13-1.71-.07-.5-1.14-1.06-1.68-.9Z"/>
      <path d="M25.06,8.65l-7.77.21c-.55.01-1.58.41-1.94.61l8.48.25c.46.01,1.26-.74,1.23-1.06Z"/>
      <path d="M28.07,5.14l-8.52.48c-.11.73,9.83,1.09,8.52-.48Z"/>
      <path d="M27.48,19.53c-3.27-.47-6.22-.07-9.1.18,3.12-.21,6.12,1.32,9.1-.18Z"/>
      <path d="M20.12,14.57c.36.05,1.36.03,1.32-.21-.05-.25-.2-1.03-.14-.73l-6.37.3,5.19.64Z"/>
    </g>
  </g>
</svg>