<?xml version="1.0" encoding="UTF-8"?>
<svg id="Warstwa_2" data-name="Warstwa 2" xmlns="http://www.w3.org/2000/svg" viewBox="0 0 50.53 49.37">
  <g id="icon-set-v2-combat-action-pixarts-store">
    <g id="icon-set-v2-combat-action-pixarts-store_67">
      <rect x="-5.2" y="32.33" width="42.62" height="2.5" transform="translate(-18.88 20.83) rotate(-44.34)"/>
      <path d="M37.36,7.45c.83,5.05-2.4,5.33-5.63,7.98,1.15,1.14,2.26,2.15,3.32,2.95,1.3-2.07,1.81-3.08,2.9-4.36,1.13-1.33,3.15-1.03,4.82-.63L50.53,0c-4.91,2.13-9.05,4.62-13.18,7.45ZM41.86,11.14l-3.5.98,3.95-4.63c1.38-1.62,2.7-3.04,4.8-4.09l-5.25,7.73Z"/>
      <path d="M28.66,14.61c-7.27,7.02-12.74,5.2-20.93,10.12-2.13,1.7-4.32,3.31-5.34,5.89,3.22-3.16,6.45-5.16,10.48-6.47l7.09-2.3c3.7-1.2,6.92-3.53,8.7-7.25Z"/>
      <path d="M25.42,39.57c3.64-6.04,3.7-11.84,9.33-17.52-1.89.78-3.35,2.28-4.58,3.98-5.58,7.69-3.96,14.29-13.83,21.59,3.94-1.22,6.85-4.36,9.08-8.05Z"/>
      <path d="M33.51,11.8c1.9.05,2.83-1.5,2.53-3.06-.27-1.38.28-2.21,1.55-2.91l-1.85-2.89-.54,2.69-5.44-3.08,3.37,5.13-6.04-.43,5.8,3.08-3.75,1.36,4.38.12Z"/>
      <path d="M44.15,13.56l-.95,1.44c-.28.43-2.66-1.18-4.15-.06-.59.44-1.23,1.69-1.2,2.38l.16,4.32,1.71-3.7,2.64,6.38-.12-6.33,4.8,2.87-3.03-5.5h2.61s-2.46-1.8-2.46-1.8Z"/>
      <path d="M9.56,19.6l5.32-.96c2.61-.34,5.09-1.08,7.2-2.62,3.33-2.42,2.44-.61,3.75-4.49l-5.31,1.28,2.12,1.04c-4.38,4.68-8.96,3.03-13.08,5.74Z"/>
      <path d="M33.69,28.11c-4.01,7.66-2.67,5.54-5.24,14.35,3.05-4.43,2.22-8.76,6.42-13.45l.99,2.5,1.09-6.11c-1.3.88-2.79,1.79-3.27,2.71Z"/>
      <path d="M8.61,31.76c1.94-1.44,3.67-2.76,5.79-3.96l5.03-2.33c-4.43.52-8.3,2.8-10.82,6.3Z"/>
      <path d="M24.96,30.25l-6.34,9.44c3.34-2.36,5.29-5.88,6.34-9.44Z"/>
      <path d="M31.52,18.1l1.02,1.1c.16.17,1.05-.49.89-.76-.41-.71-1.33-1.71-1.83-2.01-.21-.13-.88.62-.74.82.14.2.47.64.66.85Z"/>
    </g>
  </g>
</svg>