<?xml version="1.0" encoding="UTF-8"?>
<svg id="Warstwa_2" data-name="Warstwa 2" xmlns="http://www.w3.org/2000/svg" viewBox="0 0 46.93 47.09">
  <g id="icon-set-v2-combat-action-pixarts-store">
    <g id="icon-set-v2-combat-action-pixarts-store_49">
      <path d="M46.25,0c-8.27,3.27-15.12,8.3-21.06,14.56l-10.96,11.54c.77,1.04,1.42,1.75,2.36,2.37,6.56-6.13,12.56-12.24,19.19-17.84l-17.46,19.63c.79.86,1.46,1.51,2.4,2.3C30.39,22.7,41.5,13.48,46.25,0Z"/>
      <path d="M.29,7.11c-1.21,2.3,1.7,3.17,2.25,4.46.75,1.76.58,3.27,2.71,4.22,3.36,1.5,7.22,2.56,11.14,1.73-2.32-.54-10.25-1.55-11.2-4.93,5.78,1.56,11.63,2.15,17.83,1.66l2.6-2.57c-5.36.25-10.53.16-15.72-1.32,1.6-2.79,4.44-2.53,6.83-3.47-2.92-.33-5.91.26-8.49,1.59-.85.44-1.41.99-2.11.49-.72-.52-.92-1.05-1.01-2.02C10.06,2.95,22.51,2.83,28.69,3.33,22.71.9,3.52.99.29,7.11Z"/>
      <path d="M43.14,10.37c-.46.27-1.18,1.33-.88,1.72.44.57.97,1.27,1.18,1.7.21.43-.26,1.63-.65,1.94-4.53,3.56-5.84,1.61-8.44,6.17l5.91-1.28c-.69,5.53-11.12,4.57-12.76,7.81,4.68-.02,18.66-2.15,15.73-9.19,1.63-1.24,4.04-2.48,3.66-4.99-.28-1.82-2.15-3.21-3.76-3.88Z"/>
      <path d="M.81,40.59c-2.51.67,1.46,5.49,4.4,6.47.48.16,1.65-.69,1.64-1.11-.01-.42-.15-1.14-.33-1.97l8.08-7.95-3.81-3.59-7.72,8.19c-.8-.13-1.74-.18-2.26-.04Z"/>
      <path d="M20.48,38.68c1.23-.94,2.05-1.64,2.83-2.51-5.48-3.16-9.6-7.09-12.64-12.51-1.1.7-2.08,1.68-2.51,2.81,3.23,5.03,7.31,8.82,12.32,12.22Z"/>
      <path d="M25.21,34.28c4.49,1.28,9.62.59,13.05-2.94l1.01-3.52-8.84,2.78,4.83-.18c-1.59,2.82-6.88,3.32-10.04,3.86Z"/>
      <path d="M33.83,36.06l-5.57,2.18-4.05,2.15c2.15.1,3.73-.26,5.48-.74,1.73-.84,3.18-2,4.15-3.59Z"/>
      <path d="M14.78,22.68l1.83-1.76-8.35-1.51c1.86,1.53,4.06,2.5,6.52,3.27Z"/>
    </g>
  </g>
</svg>