<?xml version="1.0" encoding="UTF-8"?>
<svg id="Warstwa_2" data-name="Warstwa 2" xmlns="http://www.w3.org/2000/svg" viewBox="0 0 50.17 40.86">
  <g id="icon-set-v2-combat-action-pixarts-store">
    <g id="icon-set-v2-combat-action-pixarts-store_175">
      <path d="M11.96,27.2l26.36,11.21-2.43,2.45,10.51-.04-7.29-7.92-.1,3.61L4.45,21.87c-.58.39-.93,1.21-.79,1.84l8.3,3.49Z"/>
      <path d="M11.37,16.16l27.67-11.75.02,3.56L46.27.21l-10.73-.21,2.83,2.53L5.78,16.42c1.98-.03,3.95.03,5.59-.26Z"/>
      <path d="M41.81,19.36l-31.8.4c-.41,0-1.43.4-1.76.47l-3.59-1.53c-.23.38-.16,2,.43,2.29,1.94.98,4.59,2.11,6.98,2.8-1.39-1.37-2.31-2.21-3.28-3.51,1.57.44,2.21.82,3.3,1.46l29.85-.35-1.53,3.37,9.76-4.48-9.81-4.27,1.45,3.35Z"/>
      <polygon points="11.07 27.96 3.38 24.61 0 25.73 8.13 29.31 11.07 27.96"/>
      <path d="M11.06,13.05l-3-1.25L.13,15.14c1.27.82,2.99,1.27,4.33.7l6.6-2.8Z"/>
      <path d="M12.66,18.77c-2.41-3.22-4.42-.72-8.09-1.79-2.27-.66-1.74,2.81,8.09,1.79Z"/>
      <path d="M30.36,38.9c.23.1,1.4-.33,1.23-.45-1.45-1.1-11.41-4.75-13.83-5.18,3.76,1.94,8.84,4.08,12.6,5.63Z"/>
      <path d="M29.57,2.09l-11.4,5.31c4.88-1.22,8.9-2.96,13.31-4.81-.58-.65-1.39-.74-1.91-.5Z"/>
      <path d="M22.98,37.9c-4.35-1.82-8.51-3.54-13.22-4.66.35.23,14.41,7.03,13.22,4.66Z"/>
      <path d="M21.05,2.6l-12.55,5.52c5.23-1.48,9.68-3.2,14.4-5.14-.64-.73-1.27-.64-1.86-.38Z"/>
    </g>
  </g>
</svg>