<?xml version="1.0" encoding="UTF-8"?>
<svg id="Warstwa_2" data-name="Warstwa 2" xmlns="http://www.w3.org/2000/svg" viewBox="0 0 50.85 51.19">
  <g id="icon-set-v2-combat-action-pixarts-store">
    <g id="icon-set-v2-combat-action-pixarts-store_106">
      <path d="M44.03,19.27l-34.34,6.53-3.17-1.54c3.74-6.61,9.6-11.82,12.97-19.1-5.52,6.23-9.66,12.81-14.63,19.38l-4.86,1.24,2.56,2.13-1.35,3.14,4.02-.58c7.06,5.31,13.13,11.19,20.72,16.14-5.75-6.26-13.06-10.57-19.21-16.33,1.04-.78,2.01-1.77,2.97-2.93l34.41-6.66-.06,2.51,6.79-4.57c-2.96-.77-5.25-1.18-8-1.58l1.19,2.21Z"/>
      <path d="M27.46,50.93c.39.29,1.7.35,2.05.09.36-.26.5-1.17.38-1.67-.1-.43-.86-.59-1.87-1,.1-1.27.9-3.23,1.93-4.34l5.51-5.98c1.61-1.74,3.4-5.17,2.46-7.42-1.04-2.49-1.88-4.11-2.2-6.94l-2.91.39c.54,6.82,4.49,7.37-.16,13.27-2.32,2.94-9.43,10.49-5.19,13.6Z"/>
      <path d="M34.59,20.02c.69-.21,2.43-4.89-.62-7.69-5.57-5.11-10.08-3.95-13.32-9.06.69-.56,1.64-1.33,1.51-1.83-.15-.55-.88-1.31-1.4-1.43-.51-.11-1.68.67-1.85,1.23-.46,1.54.23,3.41,1.36,4.6,4.35,4.56,9.19,4.15,12.09,9.58l-.12,4.56c.33.2,1.77.22,2.35.04Z"/>
    </g>
  </g>
</svg>