<?xml version="1.0" encoding="UTF-8"?>
<svg id="Warstwa_2" data-name="Warstwa 2" xmlns="http://www.w3.org/2000/svg" viewBox="0 0 49.01 54">
  <g id="icon-set-v2-combat-action-pixarts-store">
    <g id="icon-set-v2-combat-action-pixarts-store_14">
      <path d="M43.93,37.3c.26-.24.52-1.32.31-1.64-.7-1.03-1.87-1.6-3.06-1.7.15,1.09.44,2.18,1.06,3.03.27.37,1.38.59,1.7.31Z"/>
      <path d="M31.04,10.43c-.77-.85-.92-2.65-.26-3.75l2.41-4.03c.42-.7-.4-2.46-1.09-2.63-.68-.16-2.18.52-2.32,1.29l-.92,5.1c-.32,1.79-2.5,2.92-3.87,1.96-3.32-2.33-2.95,2.37-5.13,1.78-.71-.19-1.84-.74-2.78-1.17.11,1.18.27,3.33-.55,3.81-1.84,1.08-3.63-.15-4.74-1.42-1.48-1.68-4.73-6.5-7.34-4.19-.86.76-1.28,2.6-.45,3.64,2.08,2.61,5.23,1.49,8.32,4.19.83.73,1.25,2.28.8,3.24-.91,1.95-4.75,1.37-3.97,2.26.95,1.08,2.32.55,3.03,2.5.25.7,0,2.21-.53,2.84-2.44,2.86-5.35,2.75-9.75,4.57-1.01.42-1.82,2.17-1.31,3.17.41.81,1.69,1.53,2.42,1.52,3.3-.05,6.68-8.36,11.31-6.39,4.33,1.85,3.27,11.14,2.25,15.21-.26,1.02.22,3.3,1.26,3.07,3.46-.75-.43-6.38,1.32-11.94.38-1.22,1.63-2.08,2.77-1.98,4.83.41,2.82,14.07,2.21,17.63-.1.6.29,2.05.55,2.6.22.47,1.55.85,2.02.56,3.12-1.96-1.57-10.09.52-20.07.13-.64.74-1.58,1.12-1.97.38-.39,1.83-.53,2.27-.11,1.08,1.02,1.17,3.12.95,4.67l-.65,4.57c-.07.52.48,1.6.91,1.72.43.12,1.36-.03,1.59-.41,1.22-2.01-2.14-7.1.18-13.09.54-1.4,1.86-2.41,3.15-2.45,3.42-.11,3.98,6.06,7.65,3.57.67-.45.8-2.35.41-3.13-.3-.61-1.17-1.52-1.89-1.78l-4.16-1.47c-.75-.27-1.68-1.75-1.65-2.5.09-2.26,3.26-2.91,2.3-3.34l-1.02-.46c-.91-.41-2.08-1.09-2.29-1.82-.22-.75.05-2.28.49-2.87,3.95-5.26,9.4-3.91,12.07-7.67.7-.98.38-2.78-.28-3.39-.65-.6-2.53-.89-3.35-.36-4.06,2.65-4.86,6.8-10.22,9.51-1.23.62-2.89.31-3.72-.61Z"/>
      <path d="M48.01,12.16c.02-1.17-2.12-1.28-2.95-.79-.75.44-1.8,1.47-1.71,2.35,1.37,1.01,4.62.55,4.66-1.56Z"/>
      <path d="M2.17,25.71l3.16-2.31c-1.64-.39-2.83-.47-4.34-.1-.58.14-1.17,1.33-.95,1.83.22.5,1.67.91,2.13.58Z"/>
      <path d="M16.15,7.43c.62-.24.41-1.9.16-2.51-.25-.61-1.31-1.23-2.19-.88-.68.27-.49,2.1-.04,2.59.39.43,1.48,1.02,2.07.8Z"/>
    </g>
  </g>
</svg>