<?xml version="1.0" encoding="UTF-8"?>
<svg id="Warstwa_2" data-name="Warstwa 2" xmlns="http://www.w3.org/2000/svg" viewBox="0 0 50.07 48.16">
  <g id="icon-set-v2-combat-action-pixarts-store">
    <g id="icon-set-v2-combat-action-pixarts-store_54">
      <path d="M45.76,12.9c1.4-3.44.39-7.1-2.25-8.94-2.85-1.98-6.62-1.81-8.95.65.82,1.4,1.55,2.64,1.47,4.22-2.74-4.66-8.12-6.11-12.73-3.86-4.46,2.18-6.59,7.63-4.43,12.37,2.79-1.42,6.05-1.34,7.71,1.38-2.51-.87-4.79-1.05-6.68.4-1.8,1.39-2.83,3.52-2.66,6.09-1.24-2.01-1.07-4.3.28-6.47-2.66-1.54-5.74-1.12-8.05.74-1.98,1.6-3.1,4.38-2.4,7.17.92,3.7,4.27,5.88,7.88,5.88-2.31,1.29-4.61.67-6.82-.56l-6.1,10.43,4.51-2.99L0,48.16l12.06-6.68c-1.47,2.17-2.96,3.13-4.66,4.9l12.59-5.58c2.07,2.05,4.76,3.02,7.44,2,2.28-.86,4.41-3.09,4.32-5.82-1.6-.34-3.12-.89-3.93-2.23,1.86.55,3.8,1.09,5.6.32,1.51-.64,2.98-2.11,3.43-3.92.43-1.71.04-3.53-1.07-4.96-.74-.95-2.42-1.42-4.08-2.03,1.56-.63,3.68-.05,5.25.53,2-1.22,1.7-4.04,1.34-6.15,2.31,2,1.76,5.14.19,7.48l.7,3.98c4.4.97,8.69-1.84,10.22-5.79,1.65-4.25.08-8.67-3.66-11.3Z"/>
      <path d="M14.98,10.67c.76-5.35,4.67-8.57,10.17-9.53-2.59-1.48-5.47-1.5-8.11-.15-2.04,1.05-3.45,3.42-3.92,6.04-1.9-.09-3.95.22-5.26,1.64-3.35,3.63-.74,5.92-2.18,8.45-1.01,1.77-1.51,3.48-.92,5.3.26-3.54,2.29-5.99,5.25-7.43-.45-1.17-.78-2.55-.43-3.13,1.19-2.01,3.41-2.21,5.4-1.2Z"/>
      <path d="M40.2,33.59c-.08,2.19-.04,4.91-1.48,6.62-1.61,1.91-3.94,2.37-6.05,2.3,2.51,1.57,4.83,1.36,7.14.31,1.82-.82,2.44-2.96,3.71-4.77.65-.92,2.77-1.41,3.09-2.71.35-1.44.49-2.85-.31-4.06-1.7,1.74-3.97,1.97-6.1,2.31Z"/>
    </g>
  </g>
</svg>