<?xml version="1.0" encoding="UTF-8"?>
<svg id="Warstwa_2" data-name="Warstwa 2" xmlns="http://www.w3.org/2000/svg" viewBox="0 0 49.83 47.92">
  <g id="icon-set-v2-combat-action-pixarts-store">
    <g id="icon-set-v2-combat-action-pixarts-store_62">
      <path d="M44.29,23.76c-1.24-1.07-1.9-2.5-2.33-4.11-.88-3.32-3.78-5.95-7.2-6.09-5.71-.23-4.04-5.02-7.26-6.76l.68,4.61c.37,2.5,1.95,4.18,4.26,5.75-1.8,1.24-4.1.39-5.34-1.29-.85-1.15-1.45-2.76-1.91-4.18-1.46-4.49-5.98-6.81-10.44-5.35,1.89.84,4.92,2.85,3.59,4.56-.89,1.15-4.01.35-5.31.11C4.56,9.39,8.76.22,0,0c2.35,1.54,3.73,4.19,3.32,7.21-.61,4.46,1.66,8.1,6.04,9.32,1.75.49,3.8,1.31,4.84,2.71.89,1.21.8,2.92-.19,3.72-.81.65-2.42.77-3.39-.04-2.52-2.13-1.96-3.71-4.43-4.48.58,1.58,1.02,2.81,1.18,4.24.32,2.84,1.98,5.25,4.93,5.68l3.7.53c2.31.33,4.3,2,4.01,4.41-2.75-2.52-6.25-3.23-8.91-.72,10.89-.74,3.57,11.36,16.78,12.19-1.24.98-2.65,1.07-4.5,1.25,4.06,2.61,5.54-.47,9.71,1.39,3.41,1.52,5.21-.71,7.42-2.03,2.11-1.26,3.29-2.01,4.5-4.36.67-1.3,3.25-2.55,2.6-4.96l1.56-2.12c2.72-8.7-4.07-9.64-4.87-16.43-.98,2.12-.31,3.95-.03,6.26ZM47.48,31c.32,1.58-1.61,2.69-1.8,3.76-.4,2.25-1.24,3.11-2.77,4.59-1.21,1.17-2.23,3.18-4.07,3.68-.62.48-1.37,1.81-2.12,2.08-.8.29-2.3.04-3.23-.47-2.09-1.15-3.94-2.05-5.9-3.35-3.36-2.22-5.44-7.21-2.98-10.69,0,4.73,1.15,8.94,5.53,10.36-1.05-2.05.21-3.16.74-4.51.51-1.29.84-2.21,1.79-3.95-1.18.1-2.77.21-4.11-.28,2.59-.02,5.32-1.55,6.28-4.16l-.14-2.18.61.56c.15.14.55-.22.74-.23l1.14.22c-1.2,1.62-2.19,5.71-.02,6.26.33.08.98-.43,1.18-.76l2.44-4.07c1.66-2.76-2.06-4.41-4.63-6.3-4.39,1.57-9.06,2.62-9.76,7.76-.54-1.61-.1-3.47.91-5.12-1.83-.63-3.72-1.82-4.01-4.1,6.63,6.02,10.9-2.72,15.08.93,6.07,5.3,3.19,5.18,6.53,6.8,1.35.66,2.33,1.95,2.57,3.15Z"/>
      <path d="M7.41,28.95c-2.28-3.25-1.06-6.36-5.82-6.72,3.19,3.03,1.08,5.82,5.82,6.72Z"/>
      <path d="M9.15,1.55c-.38,3.04.32,4.59,3.44,5.66.42-3.43-1.82-2.58-3.44-5.66Z"/>
      <path d="M.49,12.16c-.43,1.32-.52,2.7.07,4.07.36.85,1.77,1.71,2.72,1.91l-1.67-4.09c-.26-.63-.64-1.23-1.12-1.9Z"/>
      <path d="M32.55,35.71c.04.46.39,1.45.79,1.75l4.82,3.61c.46.34,1.89,0,2.16-.43.27-.43.54-1.29.62-1.95-2.21-1.62-4.61-3.41-7.05-4.31-.49-.18-1.38.88-1.34,1.33Z"/>
      <path d="M39.81,32.14c-.86,1.63-1.94,1.79-3.59,1.93,1.95,1.33,3.89,2.91,6.15,3.44,1.1.26,2.09-2.23,1.44-2.82-1.22-1.1-2.62-1.88-4-2.55Z"/>
      <path d="M32.36,38.13c-.36-.25-1.41.66-1.39,1.07.01.35.1,1.2.35,1.51,1.19,1.5,3.67,4,5.6,2.54,1.67-1.27-3.05-4.08-4.55-5.12Z"/>
      <path d="M40.35,31.04l4.06,2.34c1.46-.65,2.15-2.51,1.04-3.45-.96-.8-1.94-1.37-3.08-2.04l-2.02,3.14Z"/>
    </g>
  </g>
</svg>