<?xml version="1.0" encoding="UTF-8"?>
<svg id="Warstwa_2" data-name="Warstwa 2" xmlns="http://www.w3.org/2000/svg" viewBox="0 0 48.48 47.77">
  <g id="icon-set-v2-combat-action-pixarts-store">
    <g id="icon-set-v2-combat-action-pixarts-store_24">
      <path d="M4.21,40.04c2.02-.05,4.1.91,6.11,1.7-2,.45-2.69,1.5-2.65,3.39l-3.6,1.86,4.8-.9.69-2.27,4.6-1c-.16.7-.56,1.31-.33,1.57l.93,1.02c.26.29.77.73.71,1l-.3,1.36,1.52-1.49-1.91-2.07,1.58-1.98,6.01,3.64,1.67-3.94,6.66,1.39-.72,2.62,8.37,1.44-6.26-2.38.88-2.54c-2.14-.71-3.77-.67-5.32-2.39l8.19-2.08,3.24,2.12,9.37-1.95-9.02.64-3.38-2.48-11.11,2.22,1.71,2.15-3.68-.44-1.54,2.76-5.5-2.89c-2.15,1.6-4.43,1.24-6.05-.34l2.92-1.3c-4.1-2.99-2.46-3.11-7.39-3.26l-.42-1.85-5.02-1.01,4.03,1.77-.58,2,4.77.59c.57.07,1.64,1.03,1.97,1.41L.02,40.14l4.19-.1Z"/>
      <path d="M26.64,36.55l5.87-1.71.36-2.16,4.62-1.73c-2.34.18-4.35.58-6.12.98l-.25,1.98c-.1.78-3.59.21-4.48,2.65Z"/>
      <path d="M7.36,11.69l-.72,12.04c1.32-.57,1.64-1.61,1.53-2.89l-.81-9.15Z"/>
      <rect x="11.75" y="23.43" width="10.16" height="13.37" transform="translate(-16.41 20.91) rotate(-45.32)"/>
      <path d="M43.34.02c-.43-.12-1.37.48-1.69.85-6.28,7.48-12.72,14.32-19.54,21.4.61.97,1.39,1.77,2.47,2.36L45.95,4c.89-.86-.79-3.47-2.6-3.99Z"/>
      <path d="M21.03,39.53l5.47-5.49c.36-.52-.29-1.98-.83-2.47l-7.27,7.34c.44.59,2.1,1.15,2.63.62Z"/>
      <path d="M8.05,28.59l7.18-7.04c-.3-.4-.71-.85-1.02-1.09-.31-.24-1.45.09-1.75.4l-5.22,5.31c-.44.45.14,2.09.8,2.43Z"/>
      <path d="M11.8,17.62c-.3-5.31-.43-9.89-1.03-14.95-.62,5.83-.83,11.5-.87,17.4,1.1-.45,1.96-1.37,1.9-2.45Z"/>
      <path d="M13.69,17.44c2.71,3.66.67-8.82.8-9.52-.64,3.31-.67,6.13-.8,9.52Z"/>
      <path d="M19.68,24.35l3.3,3.18c.73-1.05.85-1.8.38-2.23l-2.35-2.17c-.38-.35-1.67.89-1.33,1.22Z"/>
      <path d="M11.05,34.48l2.17,2.06c.18.17.69.08,1.32-.23-.88-1-2.09-2.28-2.9-2.97-.27-.18-.82.93-.59,1.14Z"/>
    </g>
  </g>
</svg>