<?xml version="1.0" encoding="UTF-8"?>
<svg id="Warstwa_2" data-name="Warstwa 2" xmlns="http://www.w3.org/2000/svg" viewBox="0 0 47.81 48.67">
  <g id="icon-set-v2-combat-action-pixarts-store">
    <g id="icon-set-v2-combat-action-pixarts-store_46">
      <path d="M32.17,24.35l-12.66,8.94c.14.87.77,1.69,1.51,2.03l16.71-10.6-15.9,12.5c.63.88.98,1.32,1.58,1.95,9.17-6.5,18.4-11.37,24.39-21.21-5.91.95-10.98,3.11-15.63,6.39Z"/>
      <path d="M13.75,19.49c.39.83.85,1.56,1.37,2.1l16.36-10.28-15.16,11.9c.2.64.67,1.26,1.34,1.93l13.42-9.22c4.44-3.05,8.02-6.85,10.95-11.74-6.16,1.07-11.77,3.44-16.77,7.04l-11.5,8.28Z"/>
      <path d="M18.57,8.42c-5.29,3.06-11.88-.22-17.23,2.33,6.45-.48,11.78,2.15,17.27.04,2.13-.82,3.61-2.6,3.88-4.45.32-2.17-.21-4.31-2.1-5.51-1.43-.91-3.54-1.09-5.28-.44-1.11.42-2.44,1.74-2.73,3.26-.37,1.91.56,3.52,2.23,3.92,1.52.36,3.53-.47,3.3-2.45-.52,1.09-1.53,1.77-2.74,1.5-1.05-.24-1.63-1.63-1.23-2.8.57-1.68,2.24-2.26,3.79-1.99,1.41.24,2.55,1.41,2.7,2.74.16,1.44-.48,3.06-1.86,3.85Z"/>
      <path d="M39.84,36.87c.66-.56,1.98-.34,3.26-.04-.72-1.15-2.56-1.45-3.69-.87-1.3.67-1.89,2.18-1.52,3.64.66,2.63,3.19,3.7,5.75,3.1,3.01-.72,4.66-3.39,4-6.46-.52-2.45-2.75-4.49-5.8-4.42-3.91.08-7.78,2-10.3,4.87,3.72-1.42,6.55-3.24,10.21-2.85,1.61.17,3.24,1.06,3.69,2.26.63,1.67.12,3.37-1.01,4.19-1.38,1-3.23,1.18-4.48.04-.99-.9-1.1-2.61-.1-3.45Z"/>
      <path d="M0,29.5c-.07,1.86,1.3,4.15,3.21,4.92,1.15.46,1.21-1.66,1.49-2.29l7.38-4.89-2.39-3.39-7.03,5.23c-.81-.32-2.63-.62-2.66.42Z"/>
      <path d="M8.49,43.31c-.81-.25-2.68-.68-2.63.46.07,1.84,1.48,4.16,3.4,4.79.96.32,1.34-1.52,1.42-2.28l7.27-4.98-2.21-3.32-7.24,5.32Z"/>
      <path d="M16.37,30.02l2.43-1.66c-3.68-2.97-5.96-6.52-7.49-10.89-6.03.17,3.31,10.96,5.06,12.55Z"/>
      <path d="M22.22,43.98l2.7-1.59c-3.74-2.68-6.35-6.41-7.84-10.89-.81.23-1.88.99-2.19,1.79,1.45,4.16,4.12,7.53,7.34,10.69Z"/>
      <path d="M32.53,47.12c-.75-.2-1.37-1.31-1.82-2.34-.89,1.5-.02,3.39,1.71,3.79,2.13.49,4.14-.79,4.48-2.78.31-1.85-.71-3.74-2.78-4.38-2.11-.65-4.49-.17-6.41.6,2.44.18,4.37.06,6.19.82,1.11.47,1.63,1.97,1.39,2.88-.29,1.1-1.59,1.73-2.76,1.41Z"/>
      <path d="M16.82,13.38c-4.13.13-7.25-.08-11.01-.37,2.83,1.82,8.74,2.45,11.01.37Z"/>
    </g>
  </g>
</svg>