<?xml version="1.0" encoding="UTF-8"?>
<svg id="Warstwa_2" data-name="Warstwa 2" xmlns="http://www.w3.org/2000/svg" viewBox="0 0 50.7 49.6">
  <g id="icon-set-v2-combat-action-pixarts-store">
    <g id="icon-set-v2-combat-action-pixarts-store_09">
      <path d="M35.65,17.57c2.25,3.08,2.01,6.72-.77,9.85,8.84.94,16.54-6.37,15.77-15.58-3.27,2.48-6.98,3.11-9.96.61l-5.04,5.12ZM47.7,14.74c.23,5.04-4.32,10.01-9.9,10.04,4.81-1.35,8.45-4.75,9.9-10.04Z"/>
      <path d="M14.52,19.39l.9,2.17c1.96.6,3.19,1.67,4.55,3.51.85-.45,1.82-1.38,2.27-2.29l-2.08-1.57-1.12-3.22-2.35-1.21-.37-5.09L.35,2.02l8.8,16.4c1.86.26,3.87.6,5.37.97ZM16.2,17.45l-1.32,1.1-4.71-6.31,6.03,5.21Z"/>
      <path d="M31.79,13.31l4.85-4.85c-2.74-2.54-2.26-5.81.27-8.42-8.04-.63-14.65,6.55-13.51,14.46,3.07-3.2,4.94-3.22,8.38-1.2Z"/>
      <path d="M24.45,29.46l16.53,17.43c.54.57,1.08,2,1.66,2.71,2.23.06,3.81-1.85,3.33-3.76l-2.42-1.47-16.98-17.29c-1.05.67-1.78,1.41-2.11,2.38Z"/>
      <rect x="9.67" y="24.94" width="26.3" height="3.07" transform="translate(-12.06 24.23) rotate(-45.55)"/>
      <path d="M3.57,49.54c.55-.04,1.1-1.49,1.46-1.88,2.78-3.1,5.92-6.28,9.05-9.24-.34-1.42-1.62-2.74-3-2.97-3.09,3.26-6.17,6.43-9.36,9.44-.39.36-1.83.67-1.72,1.16.38,1.61,1.97,3.6,3.57,3.5Z"/>
      <rect x="31.45" y="11.31" width="9.1" height="3.71" transform="translate(1.16 29.15) rotate(-44.73)"/>
      <path d="M39.85,9.09l1.18,1.02c.2.17,1.08-.72,1.06-1.01-.05-.8-1-1.94-1.64-2.14-.39-.12-1.67.63-1.48.99.15.3.62.91.88,1.14Z"/>
    </g>
  </g>
</svg>