<?xml version="1.0" encoding="UTF-8"?>
<svg id="Warstwa_2" data-name="Warstwa 2" xmlns="http://www.w3.org/2000/svg" viewBox="0 0 52.49 49.07">
  <g id="icon-set-v2-combat-action-pixarts-store">
    <g id="icon-set-v2-combat-action-pixarts-store_76">
      <path d="M46.34,43.76l.88-1.41-2.9.12,7.63-6.2-8.86,4.39.4-1.92-1.88.63,1.13-3.15-3.28,2.36-.44-1.59c-.29.37-.77,1.03-.97,1.39-.16.3.47.98.7,1.29l5.66,7.7c-.5.08-1.77-.23-2.08-.66l-5.59-7.79.06-35.22c-.59-.33-2.5-.32-2.54.21l-.02,35.91-5,7.64h-6.07s-5.01-7.86-5.01-7.86l.03-36h-2.57s-.02,35.63-.02,35.63l-5.9,7.87-1.87.3,5.85-7.66c.27-.35.83-1.3.59-1.65l-.89-1.28-.6,1.73-3-2.13.93,2.95-1.84-.57.73,2.05L.61,36.33l7.24,5.84-2.49-.02.83,1.56-6.19-1.67c2.4,1.78,4.97,2.78,7.56,3.75l-2.76.84.63,2.43h41.69s.49-2.55.49-2.55l-2.89-.58c3.02-1.27,5.28-2.33,7.77-3.75-2.25.27-3.84.87-6.15,1.56ZM12.29,47.38l3.15-4.12.31,4.18-3.47-.06ZM17.93,47.43l.16-3.8,2.21,3.68-2.36.13ZM32.07,47.31l2.24-3.65.21,3.8-2.45-.15ZM36.86,47.49l.02-4.28,3.16,4.1-3.18.18Z"/>
      <polygon points="19.2 18.7 33.31 12.27 33.19 7.73 19.17 7.77 19.2 18.7"/>
      <rect x="13.71" y="0" width="24.96" height="2.68"/>
      <path d="M23.3,35.21c.73-1.49,1.66-2.17,3.11-2.17,1.25,0,2.06,1.05,2.85,2.26l3.97-.09-.05-3.9h-13.97c-.12,1.39-.12,2.81.16,3.97l3.94-.06Z"/>
      <path d="M33.13,40.12c.15-1.36.19-2.75.01-3.83-6.16-1.19-3.69,2.24-7.17,1.98-3.14-.23-.76-3.17-6.71-2.01-.19,1.26-.08,2.72.19,3.88l13.68-.02Z"/>
      <path d="M32.52,13.56l-12.49,5.73c-.44.2-.8.56-.94.76-.15.2.43.94.69.85l12.7-5.72c.26-.12.7-.63.86-.81.15-.18-.48-.97-.82-.81Z"/>
      <path d="M26,3.37c-.21.11-.44.6-.45.86l-.17,2.84h1.58s-.13-2.84-.13-2.84c-.01-.31-.55-1.01-.82-.86Z"/>
      <path d="M.77,28.55c.5,1.77,2.16,2.76,3.67,4.16-.69-1.53-1.1-3.83-3.67-4.16Z"/>
      <path d="M51.2,28.7c-1.74-.2-2.83,3.03-3.31,3.99l3.21-2.87c.26-.23.4-1.09.1-1.12Z"/>
    </g>
  </g>
</svg>