<?xml version="1.0" encoding="UTF-8"?>
<svg id="Warstwa_2" data-name="Warstwa 2" xmlns="http://www.w3.org/2000/svg" viewBox="0 0 53.04 47.05">
  <g id="icon-set-v2-combat-action-pixarts-store">
    <g id="icon-set-v2-combat-action-pixarts-store_174">
      <path d="M20.56,9.19l-12.69,10.04c2.99,3.63,6,6.3,8.12,9.92,1.58,2.7,2.02,5.95,4.92,7.97l8.03-5.69c8.23-5.83,12.95-4.34,19.92-16.56-1.88-3.01-4.86-2.26-7-.78-1.95,1.34-3.76,2.35-4.61,4.6.07-.91.17-1.63-.07-1.6-.18.02-.73.09-.95.14-9.32,2.38-10.27-1.61-15.65-8.04Z"/>
      <path d="M37.71,35.08l-3.01,4.16,4.52-1.48c-2.93,5.52-10.75,8.23-16.01,9.27,9.06.36,16.88-4.06,22-10.86-.19,4.33-3.08,6.95-5.43,10.35,5.42-2.83,8.84-7.52,10.69-12.99l1.08,5.01c1.9-4.88,1.95-10.21.3-15.22-4.54,5.73-7.27,8.85-14.13,11.77Z"/>
      <path d="M5.29,18.8c5.16-3.77,9.84-7.46,14.69-11.46.39-.32.34-1.69.02-2.1L15.99,0,0,12.56c1.82,2.56,3.12,4.2,5.29,6.24Z"/>
      <path d="M51.82,17.01c.2-.38-.65-1.82-1.05-1.67-1.31.5-4.77,8.22-10.36,11.28l-8.77,4.79c-3.49,1.91-6.3,4.35-9.69,6.83l1.85,2.59c.26.36,1.53.35,1.87.09l6.21-4.72-.18-2.35c9.94-4.95,14.74-6.53,20.11-16.85Z"/>
    </g>
  </g>
</svg>