<?xml version="1.0" encoding="UTF-8"?>
<svg id="Warstwa_2" data-name="Warstwa 2" xmlns="http://www.w3.org/2000/svg" viewBox="0 0 47.55 47.08">
  <g id="icon-set-v2-combat-action-pixarts-store">
    <g id="icon-set-v2-combat-action-pixarts-store_82">
      <path d="M44.79,27.39c.23-.8-.43-1.56-.9-1.7-.35-.11-1.25.1-1.47.43-.23.34.45,1.15.75,1.44.29.29,1.51.26,1.63-.17Z"/>
      <path d="M21.1,40.66c-1.52,1.42-.77,3.19.14,5.06-1.73-.26-2.58-2-2.3-3.63.59-3.41,3.57-5.55,6.88-5.73,1.5-.08,2.34-1.45,1.97-2.63-.33-1.06-1.75-1.7-2.96-1.23-3.95,1.51-5.37,6.37-6.41,5.57-1.45-1.11.48-4.08,1.11-5.39-4.22,2.23-5.54,7.15-4.78,11.83-1.79-1.8-1.6-4.34-1.82-6.94-3.42,4.6-2.72,6.22-9.2,7.11,5.84-2.94,8.16-9.43,11.77-14.01l-.9,4.57,4.94-5.6c3.21-3.64,7.53-5.83,11.99-6.98-4.02-.73-7.31.95-10.41,2.81,3.51-3.96,8.44-5.95,13.74-6.56,4.4-.51,10.41-2.31,9.6-7.57-.24-1.58-1.56-3.06-3.3-3.75-5.5-2.16-12.86,1.45-16.99,5.04-4.42,3.84-7.37,8.58-10.26,13.61.55-3.4,2.59-5.94,3.87-9.05-5.31,4.68-7.08,11.8-10.35,16.53.28-3.34,1.31-5.85.77-8.65-.24-1.28-1.45-2.07-2.51-1.81-3.01.72.26,4.71.09,9-.16,3.84-2.1,6.93-5.8,8.41l.04,6.41h30.53c-3.78-1.47-8.21-1.46-9.47-6.42ZM40.3,9.4c.18.08-.28,1-.53.97-4.33-.52-8.35.45-12.38,2.31,2.31-2.9,8.82-5.15,12.91-3.28Z"/>
      <path d="M23.63,8.74c.62-.44.97-1.86.62-2.46-.32-.54-1.64-.76-2.41-.38-4.85,2.37-8.52,11.31-10.01,16.3l3.06-4.61c2.43-3.66,5.26-6.38,8.75-8.84Z"/>
      <path d="M25.92,27.14c4.05-1,7.29-1.15,10.88.51.72.33,2.13-.6,2.19-1.27.34-4.49-11.07-1.51-13.07.76Z"/>
      <path d="M33.22,2.44c.37-.82-.03-2.22-.68-2.4-.82-.22-2.1.35-2.2,1.22-.33,2.76-1.76,4.51-3.52,6.62,2.79-1.04,5.21-2.8,6.4-5.44Z"/>
      <path d="M2.34,36.74c1.57-2.31,2.05-5.21.81-7.81-.41-.87-2.12-.79-2.69-.12-1.55,1.84,3.01,2.54,1.87,7.93Z"/>
      <path d="M43.04,22.28c.74-2.87-5.62-2.36-7.54-1,3.32.35,6.92,3.38,7.54,1Z"/>
      <path d="M37.38,3.15l-2.46,1.63c2.27-.17,6.74.26,6.92-1.64.04-.41-.84-1.15-1.26-1.11-1.1.09-2.33.59-3.2,1.13Z"/>
      <path d="M47.51,17.75c-.14-.23-.66-.75-.96-.81-1.14-.24-2.98.72-3.55,1.73l3.74.28c.38.03.94-.91.77-1.2Z"/>
      <circle cx="4" cy="20.18" r="1.17"/>
      <path d="M24.46,39.29c0,.56.45,1.01,1.01,1.01s1.01-.45,1.01-1.01-.45-1.01-1.01-1.01-1.01.45-1.01,1.01Z"/>
    </g>
  </g>
</svg>