<?xml version="1.0" encoding="UTF-8"?>
<svg id="Warstwa_2" data-name="Warstwa 2" xmlns="http://www.w3.org/2000/svg" viewBox="0 0 53.07 49.02">
  <g id="icon-set-v2-combat-action-pixarts-store">
    <g id="icon-set-v2-combat-action-pixarts-store_80">
      <path d="M33.23,0c3.79.85,14.48,2.7,14.55,7.29.02,1.06-.77,2.33-1.52,2.92-1.6-4.62-12.08-6-16.24-5.82,2.98.68,12.37,2.43,12.57,6.47.13,2.49-6.38,3.9-8.5,4.26-6.11,1.05-12.2,1.06-18.35.14,2.41-2.17,5.4-2.3,8.32-2.7l3.69-.51-3.28-.21c-10.45-.68-10.94,3.83-13.05,2.62-.64-.37-1.19-1.78-.77-2.46,2.13-3.47,10.17-3.79,13.5-4.33-3.87-1.14-17.62.11-17.54,5.3-.75-.58-1.59-1.46-1.71-2.16-.47-2.73,3.62-4.92,5.48-5.42l8.19-2.2c-5.81.25-13.27,1.22-17.37,5.31-1.7,1.7-1.58,4.18.19,5.79,3.6,3.28,6.73,3.3,11.06,7.94l-6.73-2.35c6.65,7.19,20.34,8.55,29.63,7.65-6.84,2.9-14.11,3.06-21.82,2.75,5.75,4.94,10.4,6.72,17.71,6.55-3.93,1.82-8.41,1.43-12.33-.57,1.89,3.39,5.12,3.52,8.55,4.52-1.71.54-3.39.57-5.4.45,1.39,2.88,3.54,5.54,6.3,7.42.11-2.27.52-4.17,1.89-5.43-.69-.05-1.21-.11-1.37-.29l5.02-3.61-1.87.03c2.02-1.41,3.73-2.75,4.89-5.36-4.9.42-9.56.55-14.1-1.22,5.04-.02,17.46-1.83,19.78-6.92l-3.77.77c3.02-1.53,5.26-3.54,7.68-5.84,1.48-1.4,4.42-1.33,5.02-3.84-5.84,4.32-22.4,4.52-29.52,2.33,8.42.29,23.59-1.48,29.77-7.95,1.61-1.69,1.8-4.03.07-5.71C47.5,1.38,38.79.04,33.23,0ZM35.62,23.54c-6.4,1.97-13.31,1.33-19.96-.35-1.56-.59-3.15-1.24-3.57-3.11,7.8,2.75,15.12,3.49,23.54,3.46Z"/>
      <path d="M12,42.29l4.04,4.59-4.42,2.06,11.78.07c-1.63-1.59-3.38-1.56-3.84-3.77,1.3.38,2.1.76,3.22,1.28-1.14-3.41-3.6-6.35-7.14-7.32.05,1.64,2.81,2.6,1.84,4.19-2-.52-3.35-.96-5.48-1.11Z"/>
      <path d="M34.05,46.62l-3.72,2.33,11.3-.04c-1.39-1.17-2.2-1.19-3.55-1.62l1.14-2.79c-.35-1.03-1.57-.86-2.74-.97-.76-.07-.73-1.95-.74-2.97-1.62,1.54-2.98,3.24-4.17,5.04,1.07-.34,1.99-.71,2.86-.78.5-.04.07,1.52-.38,1.8Z"/>
      <path d="M34.39,32.52c2.97.08,15.86-1.17,14.43-5.59-.25-.77-1.37-1.61-2.32-1.95,2.41,5.01-9.78,6.46-12.11,7.53Z"/>
      <path d="M20.8,28.93c-4.12-1.12-15.51-2.07-16.56-6.34-.24.19-.91.87-1.14,1.23-.63.97,1.9,2.68,2.91,2.98,4.99,1.47,9.98,2.42,14.8,2.14Z"/>
      <path d="M9.23,33.42c-1.27,1.29,2.68,6.63,3.78,5.13-.44-2.58-1.85-3.81-3.78-5.13Z"/>
      <path d="M39,40.54c1.27-.32,3.24-1.57,3.58-2.58.09-.25-.2-1.56-.23-1.7-1.71.8-3.45,2.05-3.35,4.28Z"/>
      <path d="M49.88,14.6c-2.19,1.14-4.4,2.56-6.63,3.66,2.59-.15,5.03-1.33,7.1-3.04.12-.5.3-1.02.16-.95l-.63.33Z"/>
    </g>
  </g>
</svg>