<?xml version="1.0" encoding="UTF-8"?>
<svg id="Warstwa_2" data-name="Warstwa 2" xmlns="http://www.w3.org/2000/svg" viewBox="0 0 42.08 46.02">
  <g id="icon-set-v2-combat-action-pixarts-store">
    <g id="icon-set-v2-combat-action-pixarts-store_77">
      <path d="M27.84,7.46l-.19-1.64c-1.77,1.87-4.56,7.98-7.96,6.01-2.31-1.34-1.08-4.57-2.82-4.89-.49-.09-1.45.25-1.62.69s.09,1.66.48,1.95c2.04,1.47,2.86,5.19.54,6.59-2.75,1.65-5.93-3.51-8.35-4.59-.59-.26-1.86.12-2.08.63-.19.44-.08,1.73.29,2.06.78.69,2.2,1.15,3.31,1.22,2.08.13,4.58,1.87,4.04,4.13-.38,1.59-2.78,1.34-4.03,1.14l-.45,1.84-3.83,1.96,3.69-.02c.37,0,1.18.27,1.36.57.81,1.35-4.15,4.53-5.07,5.15l2.01.54c-.33,1.86-.81,3.6-1.78,4.98L.34,42.98c2.18-1.03,3.32-2.96,5.34-3.75,2-.79,3.53-1.48,4.92-3.25.66-.83,2.6-2.1,3.44-.82.48.72.67,2.24,1.03,3.32l1.53-3.86c.11-.27.9-.75,1.07-.56,3.27,3.8-2.03,12.06,1.84,11.96,1.33-.03,1.53-2.23,1.15-3.39-1.38-4.24-.99-8.82,2.19-12.08l1.02,1.94c1.95-.74-1.34-5.03,2.6-5.88l1.66,4.69.56-3.45c.17-1.07.58-3,1.62-3.51l5.06-2.49,2.97.32c.49.05,1.4-.9,1.4-1.35.04-4.9-7.02,3.3-9.25.7-1.27-1.48,1.08-3.23,2.17-4.02l6.98-5.08c-.35-.6-5.5,2.39-5.58.37-.01-.36.19-1.11.44-1.47,1.12-1.64,2.15-3.31,3.19-5.12,1.25-2.18,2.91-4.02,4.38-6.2-1.66.94-13.9,10.43-14.24,7.46ZM29.49,10.86c1.39-1.32,3.26-2.36,5.13-3.37l-2.81,3.83c-.47,1.98-1.27,3.5-3.41,4-1.68,2.54.43,5.61-3.65,6.12-2.53.31-.97,4.52-1.23,4.82-.26.3-.9.86-1.08.97-.75-.39-1.72-.74-2.4-.7-.55.03-1.2.79-1.64,1.46-.73,1.11-2.22,1.45-3.22,2.16-5.1,3.67-2.44.73-7.73,5.84.78-2.32,2.19-4.15,3.92-5.98l1.17-3.69c5.41-2.64,2.74-3.86,4.55-6.2,1.09-1.41,4.94-.2,5.58-4.31.18-1.14,1.27-2.39,2.4-2.4,2.19-.02,3.01-1.22,4.4-2.55Z"/>
      <path d="M29.28,36c-.13-1.22-.5-2.24-1.15-3.44l-1.34,3.28,1.16,1.28c.26.29,1.39-.69,1.34-1.13Z"/>
      <path d="M.02,26.63c.26,1.13,1.71.65,2.47.02.23-.2.66-1,.43-1.06-1.61-.46-3.11.15-2.9,1.04Z"/>
    </g>
  </g>
</svg>