<?xml version="1.0" encoding="UTF-8"?>
<svg id="Warstwa_2" data-name="Warstwa 2" xmlns="http://www.w3.org/2000/svg" viewBox="0 0 50.18 41.71">
  <g id="icon-set-v2-combat-action-pixarts-store">
    <g id="icon-set-v2-combat-action-pixarts-store_59">
      <path d="M31.28,7.88c-8.51-4.09-11.55-3.28-20.27-2.27l6.96.79c-1.79,1.05-3.61,2.91-5.67,3.19l-10.48,1.44,8.72.57c.29,1.03.64,2.27,1.27,2.54.71.31,1.86,0,2.51-.35l7.5-4.09,4.68,1.68-1.75,2.26-8.42,1.2,6.55.73c-.14.36-.98,1.66-1.54,1.73-5.11.68-10.51.6-15.78,1.71l13.96.72c-1.29,2.7-.79,5.61,1.85,6.8l8.34,3.75c-.31.94-1.25,1.71-2.23,1.87l-4.65.73,4.58.73-2.6,3.51c-2.21.28-3.99.44-6.17,1.08l5.16.52c.29,1.19.76,2.53,1.94,2.92.8.26,2.2-.24,2.84-1.02l7.98-9.73c.43-.52.83-1.86.69-2.53-.13-.6-.86-1.54-1.51-1.87l-6.88-3.54,5.83-6.56,3.88,3.61-4.2.68,5.83.9c1.63.25,2.64.45,3.83-.87l5.78-6.41c.74-.81.3-2.71-.47-3.16-.83-.47-2.23-.31-2.91.41l-4.7,4.97c-2.6-2.77-7.39-7.17-10.45-8.64Z"/>
      <path d="M0,32.9c3.44.83,5.7.47,8.82,1l-4.23,3.06c-1.31.95-1.29,2.66-.54,3.68.97,1.33,2.52,1.18,3.76.32l10.73-7.36c1.59-1.09,2.84-3.29,4.14-4.64-2.1-1.17-3.48-2.28-4.91-3.84l-2.3,2.92-7.38.46c-.23.01-.92.5-.92.56l7.4.48c-.88.78-2.21,2.15-3.15,2.24l-11.42,1.11Z"/>
      <path d="M34.85,8.71c1.86,1.6,4.4,1.45,6.07.18,2.16-1.64,2.5-4.34,1.5-6.32C41.16.06,38.89-.15,36.36.06l-11.17.93,8.61.89c-1.51,2.94-.75,5.29,1.05,6.83Z"/>
    </g>
  </g>
</svg>