<?xml version="1.0" encoding="UTF-8"?>
<svg id="Warstwa_2" data-name="Warstwa 2" xmlns="http://www.w3.org/2000/svg" viewBox="0 0 47.2 47.47">
  <g id="icon-set-v2-combat-action-pixarts-store">
    <g id="icon-set-v2-combat-action-pixarts-store_41">
      <rect x="4.94" y="4" width="3.5" height="43.55" transform="translate(-5 1.85) rotate(-11.49)"/>
      <path d="M2.31,3.62c.45-.04,1.18-.17,1.24-.41.31-1.29.04-2.91-1.02-3.18C1.99-.1.92.19.37.59c-.92.67.13,3.21.48,3.17l1.46-.14Z"/>
      <path d="M43.65,20.51l-5.76-1.03c1.42-1.15,2.39-1.28,3.83-1.94l2.24-2.94-3.04-2.7,2.82-2.36,1.37-6.41c-6.23,2.78-14.63,5.23-20.58.79-1.62-1.21-3.95-2.25-5.9-1.85-.32.06-1,.86-1.27.68-.22-.14-.78-.78-1.12-.86-3.33-.78-8.24.33-11.27,2.17,5.7,11.86,5.27,11.58,5.26,24.88,2.42-.96,4.7-2.08,7.13-2.32,1.29-.13,3.23.25,4.06-.53.56-.53,1.26-1.36,1.69-1.09.52.33,1.01.95,1.45,1.47,2.94,3.54,9.7,3.67,10.11,2.86l.58-1.17c3.01,2.38,8.81-.34,11.95-1.86l-4.71-3.43,1.16-2.35ZM17.21,22.42c.56-1.34,1.52-1.8,2.7-1.95.98-.13,1.94.37,2.85,1.7-1.9.43-3.51.53-5.55.25ZM39.41,9.45c-1.64,1.7-3.49,2.09-5.29.37,1.01-1.34,7.26-2.42,5.29-.37ZM31.21,17.66c-2,.83-4.12-1.21-4.52-2.99,3.68,1.41,3.14-2.74,8.59,1.18-.37.23-.81.46-1.32.68l-2.74,1.14ZM33.07,24.76c1.49-.49,3.16-.4,4.62.99-1.57.4-3.35.8-4.62-.99Z"/>
    </g>
  </g>
</svg>