<?xml version="1.0" encoding="UTF-8"?>
<svg id="Warstwa_2" data-name="Warstwa 2" xmlns="http://www.w3.org/2000/svg" viewBox="0 0 45.72 49.68">
  <g id="icon-set-v2-combat-action-pixarts-store">
    <g id="icon-set-v2-combat-action-pixarts-store_163">
      <path d="M13.37,20.59c-4.08-.34-7.45-2.06-11.04-3.65,2.31,5.79,8.34,6.47,13.19,8.03-2.91.33-5.57-.03-8.56-.49,5.34,6.37,12.36.33,14.77,7.48,3.17-2.64,3.97-6.4,3.27-10.22-.61-3.31-2.84-6.1-6.1-7.93C12.24,10.07,5.31,6.5,1.2,0c-.38,7.39,5.38,11.56,10.6,15.5C7.15,13.84,3.33,11.2,0,7.65c-.01,7.4,8.12,10.26,13.37,12.94ZM22.57,28.09c-.05-4.28-1.43-8.06-4.72-10.62l-5.42-4.22c6.26,2.73,13.02,7.21,10.14,14.84Z"/>
      <path d="M43.01,41.34c-1.82-.86-4.02-1.28-5.82-1.63-.25-.53-.7-1.2-1.22-1.63-5.59-4.64-3.9-8.03-2.28-14.24l-6.98-2.44c.98,4.84-1.21,11.78-5.98,12.66l-1.26-3.18c-.3-.75-2.45-1.48-2.88-.71-.88,1.59-1.44,3.08-2,4.86,5.62,2.37,10.5,4.92,15.35,8.4,5.07,3.63,8.38,2.97,14.77,2.63.91-1.56.05-3.88-1.71-4.71Z"/>
      <path d="M37.02,15.74l-14.65-5.1c-.72-.25-1.74,2.08-1.14,2.55,2.24,1.73,3.99,3.66,4.89,6.39l8.69,3.09c.37.13,1.32-.87,1.46-1.26l1.44-4.1c.16-.45-.22-1.4-.7-1.57Z"/>
      <path d="M44.31,49.51c.39-.02,1.11-.46,1.34-.76.18-.24-.04-1.19-.28-1.33l-8.5.1c-2.42.03-4.81-1.09-6.77-2.45-4.97-3.45-10.02-6.32-15.82-8.63-.77.72-1.37,2.59-.87,3.54l7.3,3.4.95-.96c.19-.19.93.17,1.17.33l6.18,4.17c4.82,3.26,9.7,2.87,15.3,2.6Z"/>
      <polygon points="24.67 47.48 9.16 48.86 28.78 49.67 24.67 47.48"/>
      <path d="M19.07,45.96c-1.24-1.45-2.9-1.48-4.71-1.36l-8.19.55c.92.31,1.94.5,2.98.53l9.92.28Z"/>
      <path d="M8.84,41.15l-6.71.7,9.94.54c-.89-1.15-2.08-1.36-3.23-1.24Z"/>
    </g>
  </g>
</svg>