<?xml version="1.0" encoding="UTF-8"?>
<svg id="Warstwa_2" data-name="Warstwa 2" xmlns="http://www.w3.org/2000/svg" viewBox="0 0 52.81 48.08">
  <g id="icon-set-v2-combat-action-pixarts-store">
    <g id="icon-set-v2-combat-action-pixarts-store_166">
      <path d="M50.61,23.56c1.78-3.98-10.8-10.05-8.13-7.59,1.47,1.36,8.41,5.26,6.66,7.22-1.44,1.61-8.47.69-10.75.29-9.59-1.69-18.67-4.76-27.33-9.13-1.98-1-9.3-5.08-8.65-7.28.49-1.63,5.44-1.23,7.16-1.42.26-1.66-7.95-1.49-8.56,1.07-.65,2.77,4.81,6.38,7.18,7.68,8.03,4.41,16.54,7.61,25.5,9.61,3.26.73,15.4,2.94,16.92-.45Z"/>
      <path d="M35.94,15.2c-5.91-4.51-13.96-4.42-19.9-.02,3.38,1.66,6.44,2.76,9.91,3.92l9.99-3.9Z"/>
      <path d="M44.26,5.58l4.35.66c.34.05.91.78.88,1.1-.35,4.15-16.65,10.89-21.18,12.33.24.3,1.54.9,2.01.73,4.55-1.64,9.1-3.55,13.26-5.95,2.26-1.3,8.33-5.1,7.1-7.87-.84-1.89-5.69-2.83-6.41-.99Z"/>
      <path d="M25.86,9.55c4.81,0,8.66,3.82,13.75,4.29-3.57-2.5-7.84-3.49-12.09-5.22l7.45-1.96-.05-.44c-.01-.11-.82-.28-.99-.23l-8.1,2.09-6.21-1.7c-.12-.03-.78.02-.82.13l-.12.35c-.04.12.33.25.48.3l4.65,1.49-11.72,4.85c2.62.92,9.17-3.96,13.76-3.96Z"/>
      <polygon points="14.17 7 16.81 8.53 16.52 5.48 18.87 3.45 15.89 2.87 14.67 0 13.19 2.6 10.1 2.87 12.13 5.3 11.36 8.23 14.17 7"/>
      <path d="M39.26,1.52l-.99,2.61-2.6.49,1.97,1.64-.17,2.7c.88-.51,1.67-1.18,2.21-1.2.54-.02,1.46.55,2.36.9l-.53-2.68,1.73-1.74-2.79-.4-1.19-2.31Z"/>
      <path d="M20.43,21.99c-3.78.97-8.12,1.62-11.87,1.95-.32.03-.84.63-.93.86-.65,1.6,14-1.37,15.56-2.18-.83-.78-1.73-.89-2.77-.63Z"/>
      <path d="M6.97,22.89c-3.68,1-3.62-4.21-4.06-1.29-.19,1.24-1.14,1.98-2.91,2l1.9,1.57-.15,2.5,2.1-1.37,2.06.77c-.19-1.1-.54-2.24-.2-2.65l1.27-1.53Z"/>
      <path d="M39.8,22.44c-.44-1.75-.73-2.56-1.27-3.86l-5.83,2.42,7.11,1.44Z"/>
      <polygon points="12.11 22.29 18.97 20.98 13.4 18.59 12.11 22.29"/>
      <path d="M51.97,16.79c.09-.79.48-1.8.84-2.19-.72-.31-1.63-1.06-2.03-1.63-.41.67-1.24,1.24-2,1.51.65.65.99,1.68.79,2.45.76-.21,1.82-.27,2.4-.15Z"/>
      <path d="M3.96,19.12c-.03.12.62.13.76.03l4.63-3.38c-1.14-.76-5.1,2.01-5.39,3.35Z"/>
      <path d="M3,14.33l-1.44-1.07-1.34,1.1c.47.95.68,1.47,1.36,1.47.7,0,.95-.54,1.42-1.5Z"/>
      <path d="M41.68,28.58l-1.81-2.14c-4.65-.73-9.32-1.76-13.95-3.1l-5.61,1.36,1.79,1.41c-2.75-.47-4.44-.41-6.53,1.89-.07-.77.06-1.21.42-2.37l-3.74.72-2.26,2.58c-.82,3.14.64,6.18,3.47,7.87l2.11,4.78c1.89,4.27,6.88,6.91,11.64,6.45,3.11-.3,5.97-2.07,7.88-4.36,1.74-2.09,2.5-4.5,3.46-7.03,2.88-1.34,4.74-5.16,3.13-8.06ZM28.42,35.23c.05.81-1.07,1.54-1.81,1.61-1.2.11-2.76-.2-3.04-1.63,1.67.43,2.85.54,4.85.02ZM19.43,31.57c-1.04-.07-2.46-.68-3.07-1.92,2.47.42,4.14,1.18,6.17-.65l.56.81c-1.2,1.34-2.13,1.86-3.67,1.76ZM31.14,41.48c-.4,1.64-3.31.14-8.49,1.34-.53.12-1.55-.21-1.59-.75,2.28-3.31,10.63-2.81,10.08-.58ZM31.97,31.11c-1.34-.24-3.28-1.13-2.81-2.96,2.22,1.89,4.16,1.81,6.71,1-.67,1.75-2.47,2.23-3.9,1.97Z"/>
    </g>
  </g>
</svg>