<?xml version="1.0" encoding="UTF-8"?>
<svg id="Warstwa_2" data-name="Warstwa 2" xmlns="http://www.w3.org/2000/svg" viewBox="0 0 51.71 52.14">
  <g id="icon-set-v2-combat-action-pixarts-store">
    <g id="icon-set-v2-combat-action-pixarts-store_35">
      <path d="M18.95,29.53l-4.74,4.25c-.22.2-1.08.4-1.31.45-.23.05-.08-.81-.1-1.06-3.08-5.59-2.05-12.35,2.11-17.26-.23-.95-.65-1.81-1.21-2.78v-2.5s-5.75-2.48-5.75-2.48l2.52,6.21c-1.87,2.78-3.09,5.49-3.68,8.94l-6.8,2.65,6.74,2.62.82,3.36,3.71-1.73-2.66,4.4,1.97,3.4-2.61,6.02,6.05-2.53,6.17,3.32c.3,2.46,2.42,5.06,4.16,7.29l.18-22.97-6.19-6.67c-2.19,2.5-1.44,4.95.61,7.07ZM20.17,39.78l-3.44-2.09,3.36-3.24.08,5.33Z"/>
      <path d="M40.72,35.92l-1.04-3.31-1.49,1.74-5.24-5c2.51-2.16,2.54-4.86.59-6.86l-6.14,6.77.11,22.88c1.5-1.91,2.66-3.53,3.6-5.51,2.83-5.98.14-1.81,2.07-6.57l1.35,3.42,3.44-1.95,5.92,2.54c-.8-2.12-1.52-3.77-2.12-5.71-.3-.95-.37-1.62-1.04-2.45ZM31.8,39.79l-.07-5.29,3.53,3.07-3.46,2.22Z"/>
      <path d="M37.72,10.66c-2.87-2.03-5.91-3.16-9.14-3.93l-2.67-6.74-2.55,6.84c-2.89.45-6.71,2.1-8.48,3.9-.21.22-.16,1.77.14,1.74l1.5-.14.12,2c1.9-1.18,3.41-1.97,5.66-2.79l.38,5.78,3.19-2.19-.07-2.28c.94,1.39,2.09,2.34,3.5,2.95l.21-4.13c3.95.49,5.98,3.38,8.76,5.39.84.61,2.76-.19,2.83,1.99.8-.17,2.12-.84,2.2-1.42l-1.86-3.37,2.52-6.11-6.23,2.53Z"/>
      <path d="M43.98,19.42c-1.36,1.17-2.32,1.45-4.11.89,1.17,3.24,1.08,6.73.48,10.18,2.35,2.96.73,3.45,2.5,4.46.21.12.79-.64.87-.93l1.49-5.38,6.5-2.72-6.48-2.47-1.25-4.04Z"/>
      <path d="M26.79,16.03l-4.19,2.14c-.4,5.01.03,3.83,3.41,7.55,1.19-1.28,2.24-2.23,2.91-3.28,1.45-2.27-.1-5.12-2.13-6.4Z"/>
    </g>
  </g>
</svg>