<?xml version="1.0" encoding="UTF-8"?>
<svg id="Warstwa_2" data-name="Warstwa 2" xmlns="http://www.w3.org/2000/svg" viewBox="0 0 47.51 42.69">
  <g id="icon-set-v2-combat-action-pixarts-store">
    <g id="icon-set-v2-combat-action-pixarts-store_135">
      <path d="M44.18,32c-.67-2.09-4.37-2.12-4.01-3.01.5-1.22,2.07-3.45.33-4.85-.74-.6-2.43-.85-3.16.07-1.1,1.38-.55,2.93-.1,4.95-2.84-.83-4.38-4.53-3.35-7.36.3-.82.55-1.71.11-2.16-.41-.42-2.2-.22-2.27.37-.19,1.72-.26,3.57-.27,5.2,1.97,1.58,1.63,3.91,2.56,5.73.67,1.32,2.76,2.31,1.98,4.3-.62-2.2-2.97-2.91-4.62-3.93.5-1.43,1.13-3.64-.71-4.83-.91-.59-2.67-.55-3.33.46-1.12,1.74-.79,3.71.55,5.35l-1.91,1.83c-.3,1.63.31,3.45.99,5.03l-2.22,3,.95-3.37-1.14-3.66c-.11-.36-1.17-.81-1.12-1.16.2-1.43,1.54-3.66-.37-4.83-.67-.41-2.31-.43-2.84.32-1.23,1.76-.24,3.3.22,5.19-2.12-.36-3.03-1.64-4.2-3.06l-2.52.69c.74,1.41,1.38,2.26,2.33,3.37l1.56,1.8-.88,5.27h29.7s.12-5.13.12-5.13c-.76-.28-1.84-.55-2.86-.79.31-1.42.96-3.27.48-4.77Z"/>
      <path d="M34.45,13c.67,1.47.24,3.13,2.2,3.85,2.09.76,4.39,1.27,6.65,1l1.66-10.92c-3.22-.32-7.61.49-7.28-3.41C37.98.04,29.55-.23,26.93.11c1.18,3.24.65,6.05-.55,8.9l1.98,2.25c2.02-.12,5.12-.17,6.07,1.74Z"/>
      <path d="M15.44,14.25c-1.1,5.58-5.4,10.69-11.92,10.09-.61.81-.63,2.22.21,2.99,4.56,1.52,8.86.7,12.86-1.34,2.27-1.42,4.24-2.95,6.45-4.86-3.54-1.15-5.83-3.46-7.6-6.88Z"/>
      <path d="M28.43,15.96c-.69-4.13-3.9-7.54-7.95-8.62-1.63-.43-3.63.05-4.21,1.64-1.76,4.82,3.46,11.26,8.82,11.08,2.27-.08,3.71-1.91,3.34-4.1ZM26.37,17.55c-.93,1.55-6.25-.25-8.59-6.06-.18-.46.04-1.72.37-2.07.38-.4,1.45-.68,2.12-.48,4.23,1.21,7.65,6.03,6.1,8.62Z"/>
      <path d="M45.75,4.2c-.32.17.06,1.19,0,1.62l-3.34,22.57c-.05.31.24.72.39.84.14.12.69-.45.73-.69l3.52-22.49c.07-.47.71-1.31.38-1.6-.47-.42-1.18-.52-1.66-.26Z"/>
      <path d="M12.82,6.16c.43-.13.9-.79.86-1.31-3.5-.16-6.92,1.33-9.02,3.84-2.22,2.65-3.34,6.21-2.25,9.46.9-7.22,3.99-10.02,10.41-11.99Z"/>
      <path d="M6.98,12.06c-1.57,1.92-2.11,4.47-1.46,6.81.56-4.66,3.31-7.6,7.87-9.21-2.42-.99-5,.68-6.41,2.4Z"/>
      <path d="M10.58,29.07c-.19-.16-1.22-.02-1.26.1,1.05,1.9,3.33,2.51,5.34,1.91,1.74-.52,3.59-2.05,2.99-4.51-.53.49-1.08,1.19-1.39,1.85-1.07,2.24-4.17,1.89-5.69.65Z"/>
      <path d="M25.51,30.9l.32-3.8c-.78-1.57-1.41-2.93-1.89-4.7.04-.02-.5.25-.76.38-.25.13-.15.95-.06,1.23l2.39,6.88Z"/>
      <path d="M2.74,23.42c-.12-.3-1.27-.89-1.64-.57-1.22,1.07-1.38,3.25-.7,4.65.38.06,1.38.01,1.62-.04-.15-1.96-.03-2.64.72-4.03Z"/>
      <path d="M9.22,15c-1.03,1.41-1.23,3.04-.59,4.55.36-2.88,1.66-4.8,4.43-6.1-1.65-.78-3.09.53-3.84,1.55Z"/>
    </g>
  </g>
</svg>