<?xml version="1.0" encoding="UTF-8"?>
<svg id="Warstwa_2" data-name="Warstwa 2" xmlns="http://www.w3.org/2000/svg" viewBox="0 0 45.67 43.54">
  <g id="icon-set-v2-combat-action-pixarts-store">
    <g id="icon-set-v2-combat-action-pixarts-store_136">
      <path d="M4.85,43.27c2.99-1.86,5.34-4.14,7.69-6.83l9.1-10.42,2.28-2.54c4.97-2.03,5.42-3.23,8.76-7.18,1.03-1.22-.04-2.09-.31-3.05-.23-.82.22-2.28-.67-2.76-.27-.04-.93.1-.89-.1l.21-.92c.1-.44.14-1.6-.17-1.9-.31-.3-.95-.37-1.8-.55l.07-1.29c.05-.87-.42-1.69-1.35-1.86-1.33-.25-1.81,1.85-4.13,3.6.88,1.18.22,2.38.22,3.47,0,1.7-.2,2.75-.98,4.24-.64,1.22-1.22,1.85-2.33,2.63-1.04.74-1.63,2.03-3.45,1.44-.87-.28-1.69.18-2.32.9C10.72,24.8,5.79,28,.01,30.73v12.69c1.63.03,3.58.2,4.83-.15Z"/>
      <path d="M40.2,28.46c-3.55.87-6.29,4.02-7.21,7.41l7.23,7.66,5.44-.14-.02-12.29-5.45-2.64Z"/>
      <path d="M17.3,2.84L14.12.18l-.45,3.2c-2.29-1.04-3.94-2.07-6.06-3.39l2.51,6.49L1.47,5.08l5.88,6.17-4.58,1.46,5.7,3.27-2.43,2.14,4.29,1.43c-1.62-5.61,1.01-14.39,6.97-16.71Z"/>
      <path d="M39.36,27.29c.77-.31,1.5.11,2.03.72l.24-1.22c.07-.38-3.04-2.81-3.72-2.92-4.94.17-9.79,5.88-10.27,10.44l2.66,3.28c.29.36.9.9,1.29.99s1.28-.35,1.43-.58c-.69-.35-1.63-.84-1.41-1.74,1.08-4.29,3.89-7.41,7.75-8.98ZM33.14,27.35c.74-.46,2.13.85,1.56,1.52l-1.68.78c-.31-.43-.35-2,.13-2.3Z"/>
      <path d="M31.63,20.05c-3.9,4.69-6.23,2.94-8.65,7.02,1.55,1.28,2.98,2.71,4.21,4.22,1.3-2.22,2.5-3.97,3.9-5.73l4.11-2.21c-1.41-.82-2.59-1.82-3.57-3.3Z"/>
      <path d="M22.7,12.11c-.39-.75-7.85-6.37-8.11-2.76-.06.85.49,1.23,1.42,1.66l5.8,2.68c.38.16,1.08-1.22.89-1.58Z"/>
      <path d="M21.25,15.5c.05-.5-.37-1.22-.76-1.39l-5.84-2.6c-.51-.23-1.37,1.1-1.26,1.61.11.51.66,1.05,1.24,1.25l5.14,1.81c.5.18,1.43-.21,1.47-.67Z"/>
      <path d="M14.31,18.47c.66-.01,1.75-.55,2.7-.26,1.1.34,2.12-.22,2.07-1.17-1.65-.83-3.82-1.63-5.62-1.78-1.09.73-.17,3.23.85,3.21Z"/>
      <path d="M24.82,4.73c-.56-1.2-2.01-1.36-3.14-.83l-2.33,1.09c-.28.13-.7.68-.64.94.39,1.58,5.04,1.06,6.11-1.2Z"/>
      <path d="M22.64,8.24c-1.92-.97-3.4.12-4.74-1.36-.32-.36-.2-1.2-.22-2-.34-.06-1.11.44-1.25.82-.12.32.16,1.19.49,1.37,2.99,1.55,4.85,3.54,5.89,2.85.28-.19.16-1.51-.18-1.68Z"/>
    </g>
  </g>
</svg>