<?xml version="1.0" encoding="UTF-8"?>
<svg id="Warstwa_2" data-name="Warstwa 2" xmlns="http://www.w3.org/2000/svg" viewBox="0 0 44.45 41.14">
  <g id="icon-set-v2-combat-action-pixarts-store">
    <g id="icon-set-v2-combat-action-pixarts-store_116">
      <path d="M5.61,35.09c2.92.61,7.72,3.07,9.99.67,1.73-1.83-.01-4.36,1.39-5.54,3.64-3.06-3.28-2.54-3.64-5.89-.27-2.51,2.11-3.99,4.28-3.91.9.03,1.78-.49,2.34-1.1l.85-.92c.38-.41-1.15-2.35-.45-3.22.98-1.21,3.7-.84,4.28-2.29.26-.64-.03-1.97-.42-2.54l-4.04-5.95c-.97-1.25-.84-2.6-.25-4.39L0,.02v41.13s3.63-.04,3.63-.04c.52-2.21,1.02-4.06,1.98-6.02Z"/>
      <path d="M36.79,39.25c10.26-7.77,10.14-23.91.01-31.47,6.13,10.13,5.94,21.19-.01,31.47Z"/>
      <path d="M37.72,23.59c0-4.26-1.68-8.68-5.7-11.13,4.25,7.17,4.2,15.12-.23,22.32,4.07-2.44,5.93-7.12,5.93-11.19Z"/>
      <path d="M31.34,23.62c0-2.43-.95-5.29-3.72-6.5,2.55,4.55,2.16,8.98-.17,13.11,2.8-1.29,3.88-4.08,3.89-6.62Z"/>
      <path d="M25.27,25.11c.33.07,1.23-.19,1.14-.46l-.36-1.09c-1.44.12-3.02.31-4.82.66l4.04.89Z"/>
      <path d="M24.45,27.75c-1.08-.57-2.46-1.15-3.74-1.37l3.27,2.85c.39-.36.86-1.28.47-1.48Z"/>
      <path d="M21.16,22.13c1.28-.28,3.04-1.03,4-1.64.45-2.55-4.49,1.55-4,1.64Z"/>
    </g>
  </g>
</svg>