<?xml version="1.0" encoding="UTF-8"?>
<svg id="Warstwa_2" data-name="Warstwa 2" xmlns="http://www.w3.org/2000/svg" viewBox="0 0 45.46 44.78">
  <g id="icon-set-v2-combat-action-pixarts-store">
    <g id="icon-set-v2-combat-action-pixarts-store_44">
      <path d="M22.92,16.27c1.02.23,1.47.07,2.54-.19l.46,1.25c3.49-1.31,7.29-6.61,10.35-8.33l-7.51,8.37-1.02,3.85c1.3.48,1.99.36,2.81-.4l12-11.23c1.24-2.93,2-6.11,2.92-9.59l-9.62,2.49-12.91,13.78Z"/>
      <path d="M23.09,20.08l-2.08.53-.62-2.07-8.44,8.48,2.11,2.6,5.72-5.27c1-.92,2.1-1.71,3.36-2.16l-7.68,8.53c.45.94,1.53,1.96,2.5,2.17l7.98-7.91-2.05-.4,1.35-4.1c-1.05.17-1.46.17-2.15-.39Z"/>
      <path d="M5.77,42.01l6.57-6.33-3.07-3.09-6.39,6.55c-.88.16-3.1-.49-2.87,1.24.23,1.71,2.76,4.24,4.5,4.4,1.84.16.73-2.26,1.25-2.76Z"/>
      <path d="M17.23,38.26l2.63-2.05c-4.5-3.01-7.93-6.46-10.81-11.1-.97.78-1.72,1.61-2.1,2.56,2.97,4.13,6.25,7.29,10.28,10.6Z"/>
      <path d="M34.02,25.01c-1.46-.45-2.77-.78-4.13-.98,1.08,1.02,2.06,1.81,3.31,2.74.45-.31.97-1.27.81-1.77Z"/>
      <polygon points="20.07 10.08 18.18 10.92 21.4 14.16 20.07 10.08"/>
      <path d="M16.55,15.84c1.18.24,2.2.34,3.35.22-.79-.83-1.93-1.44-2.79-1.67-.25.1-.57,1.1-.56,1.45Z"/>
      <polygon points="27.72 28.81 29.6 28.63 28.28 25.09 27.72 28.81"/>
    </g>
  </g>
</svg>