<?xml version="1.0" encoding="UTF-8"?>
<svg id="Warstwa_2" data-name="Warstwa 2" xmlns="http://www.w3.org/2000/svg" viewBox="0 0 53.42 50.56">
  <defs>
    <style>
      .cls-1 {
        fill: #fff;
      }
    </style>
  </defs>
  <g id="Warstwa_1-2" data-name="Warstwa 1">
    <g id="game-icon-v3-dark-magic-pixarts-store_55">
      <path class="cls-1" d="M44.25,4.74c-.81.44-1.52,2.05-1.33,3.2l.89,5.31-1.81-1.61c.27,3.1,4.84,3.36,3.6,9.46-.41,2.03-1.53,3.77-2.85,5.37-3.22,3.91.08,4.37-7.37,6.27l4.51-3.4-.53-.86c1.74-2.19,3.23-4.55,2.91-7.43-.54,2.33-1.34,4.36-2.93,6.2-3.82,4.41-9.79,7.08-14.99,2.82,2.12,4.3,8.75,4.93,13.22,3.26.8-.3,1.77-.49,2.65-.67l-.54-.55,3.82-3.2,2.5-2.06c4.82-3.97,6.52-9.73,5.31-16.12.86,1.7,1.13,3.31,1.63,5.44.67-6.23-1.2-5.49-2.09-6.96-.95-1.58-1.29-3.36-2.86-4.31-1.09-.66-2.62-.75-3.72-.15ZM47.1,10.62c1.79-.22,2.1,2.93,1.51,4.05l-.62-1.2-.28,1.04c-.24.87-2.4-3.67-.61-3.9Z"/>
      <path class="cls-1" d="M12.85,47.41c3.02-2.11.14-7.22-2.7-9.7-4.99-4.37-3.66-8.87-.47-13.47l-.56,5.03c.38-2.43.69-4.04,2.48-6.09l-1.93.99c2.03-2.94,5.03-6.3,9-6.24-3.05.84-6.22,4.54-7.14,7.67,1.68-1.57,2.86-3.4,4.78-4.61.88-.56,1.91-1.49,2.71-1.93,3.31-1.83,7.63-.69,10.02,1.81-.39-1.66-1.89-2.74-3.27-3.37-3.62-1.66-7.31-1.07-10.89.14-1.68.57-3.59.65-4.94,2.28-1.26,1.52-2.47,3.15-3.6,4.68l-.39-1.04c-3.44,4.82-3.68,10.2-2.59,16.04-1.28-1.95-1.81-4.07-2.35-6.48-.73,2.96,2.16,7.76,4.12,10.28,1.34,1.73,2.5,3.53,4.7,4.26,1,.33,2.33.24,3.03-.25ZM10.73,41.03c.92-.11,2.03,1.7,1.02,2.58-.86.14-1.53-1.84-1.02-2.58ZM6.24,38.68l1.19-.41c.86.68,1.82,2.16,1.82,3.67-1.86.76-3.28-1.73-3.01-3.26ZM7.27,43.3c.99-.14,1.96.16,2.62,1.47-1.2,1.22-2.3-.16-2.62-1.47Z"/>
      <path class="cls-1" d="M11.91,8.72c7.79-5.36,11.85-2.24,18.36,2.7l-.83-2.03c2.84,1.84,4.4,4.65,4.42,7.87-.94-1.4-1.73-3.13-2.95-4.09-2.3-1.83-4.83-2.95-7.71-2.98,5.87,1.82,10.01,6.05,10.18,12.36v-4.64c1.65,3.19.02,6.87-1.87,9.54,1.95-1.01,3.22-3.13,3.74-5.37,1.19-5.11-1-10.32-5.2-13.46C22.14,2.71,24.47,1.04,11.46,1.9c2.26-1.36,4.71-1.45,7.16-1.12-5.01-2.24-7.88.95-11.1,2.08-2.38.83-4.61,1.72-5.25,4.46-.24,1.05,0,2.49.75,3.29,2.28,2.46,6.67-.36,8.89-1.89ZM12.11,4.95c-.41.26-.35.34.26.9-1.08.87-2.86,1.48-4.45,1.22.34-2.3,2.81-2.54,4.19-2.12ZM9.02,8.48c0,1.04-2.03,1.77-2.81.71.09-.82,2.01-1.26,2.81-.71ZM5.51,5.39l1.49-.43c.64,1.02-.73,2.13-1.59,1.88-.34-.1-.21-1.36.11-1.45Z"/>
      <path class="cls-1" d="M45.59,37.49c-2.58.15-4.7,1.66-6.18,3.83-2.28,3.36-6.19,3.91-9.62,2.31-5.52-2.58-2.79-1.9-7.04-4-1.98-.98-2.72-3.4-2.9-5.39,1.49,2.07,2.81,3.77,4.86,4.92,2.55,1.43,4.97,3.28,8.17,2.72-3.27-1.2-3.33-.08-6.39-2.22l2.51.07c-5.08-1.77-8.6-5.26-9.33-10.47-.34-2.4.41-4.51,2.03-6.28-2.16.83-3.25,3.04-3.78,5.21-.91,3.7.41,7,2.23,10.16.81,1.41,1.48,3.18,3.13,3.99,7.7,3.81,4.53,7.75,18.91,5.84-.64.68-1.69,1.42-2.62,2.01,2.54.16,3.79-2.71,6.09-4.5,1.55-1.21,2.96-2.49,3.28-4.51.33-2.09-1.25-3.82-3.35-3.69ZM41.24,45.73l-1.37-1.23,2.87-2.04c.16-.11.88.01,1.07.06.99.24-.92,2.72-2.57,3.21ZM42.27,41l.84-1.32c.19-.3,1.62-.16,1.61.19,0,.98-1.4,1.58-2.45,1.14ZM45.17,44.07c-.15-.41-.17-1.18.02-1.53.27-.49,1.32-1.07,1.66-.84.11,1.39-.61,2.15-1.68,2.37Z"/>
      <path class="cls-1" d="M37.59,18.57c-.97,6.27-2.28,11.59-9.79,11.49,1.85.81,3.98.55,5.81-.3,3.11-1.43,4.76-4.05,5.66-7.19,1.49-5.2.74-10.34-2.93-14.49l2.01,1.03c-.62-1.29-1.44-2.45-1.87-3.66-.76-2.12-1.51-4.26-4.11-4.63-.44-.06-1.46.2-1.74.54-1.33,1.6,1.25,4.24,2.71,5.4,3,2.39,5.43,5.43,5.63,9.54l-2.1-3.29.87,3.21c.77,2.83.81,5.68-.47,8.27.33-2.53.45-4.09.33-5.92Z"/>
      <path class="cls-1" d="M52.82,28.18c-1.38-1.3-3.82-.24-4.84.97-2.64,3.11-7.47,8.04-11.96,7.88l3.18-1.65c-3.59.84-7.85,2.3-11.05.3l-2.15-1.34c-2.67-1.67-4.04-4.18-4.69-7.28-1.04,5.87,3.68,9.72,9.29,10.86,5.46,1.11,10.36-.69,14.13-4.61l-1.59,2.7c1.35-.68,2.49-1.66,3.73-2.15,1.23-.49,8.71-3.08,5.95-5.68Z"/>
      <path class="cls-1" d="M17.74,24.55c1.48-2.95,4.37-4.25,7.68-3.87-1.87-1.05-3.96-.58-5.97.17-4.02,1.98-6.29,6.03-6.31,10.52,0,3.79,1.13,7.2,3.64,10.01l2.73,3.05-1.79-.48,3.48,5.6c.3.48,1.44.92,1.91.99.47.08,1.42-.5,1.61-.99.52-1.4-.36-3.08-1.59-4.05l-4.31-3.38c-2.55-2-4.2-4.98-4.11-8.32.56.96,1.03,1.76,1.72,2.57-1.23-3.58-2.85-10.13,1.31-11.84Z"/>
      <path class="cls-1" d="M3.21,22.37c4.47-2.3,5.13-6.74,9.73-9.42-3.36.84-2.94,2.12-5.75,3.61l.4-1.11-4,1.86c-1.16.54-2.3,1.09-3.1,1.93-.65.69-.61,2.09-.16,2.64.54.66,2,.94,2.88.49Z"/>
      <path class="cls-1" d="M29.33,16.02c-3.9-3.87-13.38-5.46-17.35-1.3,2.7-.82,5.15-1.61,7.67-1.38l-3.46,1.24c6.87-.83,6.53-1.38,11.14,1.67,2.58,1.71,4.33,4.01,4.13,7.4,1.01-2.82-.03-5.53-2.14-7.63Z"/>
      <path class="cls-1" d="M38.79,40.92c-2.61,1.58-4.77,2.02-7.46,1.92,2.66,1.41,5.71.05,7.46-1.92Z"/>
      <path class="cls-1" d="M9.31,35.35c-.67-2.25-.78-4.11-.9-6.69-.91,2.32-.61,4.95.9,6.69Z"/>
      <path class="cls-1" d="M44.28,17.27c.36,2.47-.13,4.18-.81,6.29,2-1.7,1.67-4.41.81-6.29Z"/>
    </g>
  </g>
</svg>