<?xml version="1.0" encoding="UTF-8"?>
<svg id="Warstwa_2" data-name="Warstwa 2" xmlns="http://www.w3.org/2000/svg" viewBox="0 0 50.79 47.53">
  <defs>
    <style>
      .cls-1 {
        fill: #fff;
      }
    </style>
  </defs>
  <g id="Warstwa_1-2" data-name="Warstwa 1">
    <g id="game-icon-v4-rogue-pixarts-store_83">
      <path class="cls-1" d="M35.43,11.54c.72,1.35,1.56,2.33,2.74,3.05l4.4-4.37,1.87,5.2L50.79,0l-15.95,5.63,5.17,2.11-4.58,3.8Z"/>
      <path class="cls-1" d="M19.62,19.65c1.94-.23,3.88.34,5.56,1.04l5.75,2.39c2.09.87,4.38.84,6.59.41-2.35,2.14-5.55,1.95-8.88,1.19,2.48,2.11,6.13,2.55,9.05,1.16,1.9-.91,3.22-2.72,3.62-4.44.49-2.13.03-4.28-1.37-5.77,0,1.83.14,3.6-1.37,4.59-5.85,3.81-12.11-5.94-20.46-2.88-3.83,1.4-5.78,5.69-3.54,9.41-.31-3.45,1.24-6.63,5.06-7.09Z"/>
      <path class="cls-1" d="M4.87,40.56c.47.83,1.15,1.46,1.92,1.79l20.8-19.02c-.84-.62-1.73-1.03-2.77-1.27L4.87,40.56Z"/>
      <path class="cls-1" d="M5.8,38.53l9.17-8.8c-5.53.27-5.61-.46-9.1,3.16l1.2.49c-4.14,1.19-3.9,1.85-7.08,4.71,2.23.28,3.81.4,5.8.44Z"/>
      <path class="cls-1" d="M12.65,43.43l1.4-2.79.52,1.44,2.74-2.59c.39-2.08.77-3.71.85-6.19l-9.36,8.3-.03,5.91c1.54-1.31,3.08-2.5,3.87-4.1Z"/>
      <path class="cls-1" d="M27.15,27.8c.64,1.23,1.09,2.65.79,3.78-.76,2.86-4.38,3.03-6.85,3.37,2.56,1.06,5.53.91,7.68-1.01,1.06-.94,1.56-2.54,1.06-3.94-.35-.97-1.56-2.01-2.69-2.2Z"/>
      <path class="cls-1" d="M32.58,18.8l4.18-3.8-1.94-2.03-5.08,4.72c.89.55,1.94,1.05,2.84,1.11Z"/>
      <path class="cls-1" d="M28.08,16.88c-1.09-2.29-3.49-3.27-5.76-3.3-2.02-.03-4.33.78-5.57,2.66,3.82-1.85,7.51-1.25,11.33.64Z"/>
      <path class="cls-1" d="M33.67,11.59l.59-1.52c-2.2-1.48-7.92-.81-7.51,2.12,2.11-1.65,4.37-1.81,6.92-.6Z"/>
    </g>
  </g>
</svg>