<?xml version="1.0" encoding="UTF-8"?>
<svg id="Warstwa_2" data-name="Warstwa 2" xmlns="http://www.w3.org/2000/svg" viewBox="0 0 43.84 43.07">
  <defs>
    <style>
      .cls-1 {
        fill: #fff;
      }
    </style>
  </defs>
  <g id="Warstwa_1-2" data-name="Warstwa 1">
    <g id="game-icon-v7-magic-pixarts-store_210">
      <path class="cls-1" d="M23.04,25.23c-1.11.21-2.8-.62-3.95-1.27l1.25-.56-1.86-.22c-.34-2.15-.32-4.39.07-6.64,2.8,1.54,1.61,3.43,1.13,6.01l2.02-4.44c.25-.53,6.45-3.71,5.97-2.56l.57-1.38-4.24,1.58c.12-1.01.51-2.26,1.18-3.08l6.41-7.92.15,3.41,3.1-.98-2.38.26-.32-3.53,9.73-2.78-2.44,9.51-3.93-.09c-.31,0-.77-.62-.96-.93l-.9,2.02c1.75-.49,3.27-.66,5.4-.44l-9.39,7.24-3.18.02c.33-.76.79-1.82.97-2.88l-2.73,6.04c-.93.39-2.35,1.05-3.49.52l-.89,1.12c3.77-.19,3.92-1.33,6.4,1.27l-3.65.69Z"/>
      <path class="cls-1" d="M14.87,5.33l-1.67,5.05-.41-4.87c-4.55.89-8.03,3.95-10.82,7.52,1.17-4.11,4.38-6.69,7.79-8.95l-3.06-.63,10.72-2.02-3.32-.37c.56-.81,8.86.42,9.32.57l3.17,1.05-.92-2.68,3.09,2.52,1.91.56-5.13,6.15.05-2.75c-1.42-1.05-3.21-.46-4.45.64-.09-.97-.49-2-1.05-1.86l-1.94,3.69-.66-4.06-2.61.43Z"/>
      <path class="cls-1" d="M39.29,28.39l-3.37-.26,2.81-1.65c.31-.18,1.01-.58.95-.89l-.27-1.42-1.23.53c.79-1.19,1.49-1.78.87-2.9l-3.8,1.68,2.49-3.34c.28-.37.47-1.16.33-1.54-.19-.51-1.23-.76-1.82-.77l-1.14-.02c-.21,0,.31-.84.51-1.02l5.06-4.52,3.16,3.07-2.77-.49c.43,1.37.74,2.47,1.03,3.66.64,2.64,2.02,4.87,1.7,7.79l-.84-1.42-1.23,9.49-.95-2.05c-2.05,3.27-3.92,6.4-7.45,7.98,3.4-3.14,5.61-7.37,5.97-11.91Z"/>
      <path class="cls-1" d="M12.92,31.58c-.41-.07-.25,3.05-3.54,4.54-.76-.27-1.9-1.29-2.16-1.93l.7-1.97c.48-1.35,2.74-2.11,4.91-4.77l2.53-3.1,1.78,1.74,1.62,1.52-2.83-.19,1.62.94-3.71,3.39-.92-.17Z"/>
      <path class="cls-1" d="M5.93,41.01l-.58-.88c-.06-.1-.17-.12-.21-.01-.65,1.97-2.31,1.87-5.14,2.95.51-2.34,1.2-4.39,2.41-6.49.42-.73,2.29-1.16,2.77-.62.8.88,1.33,1.89.8,2.82l.57-.9c.1-.16.47.1.81.31l-1.44,2.82Z"/>
      <path class="cls-1" d="M34.36,20.32c-2.15,1.23-6.82,3.88-8.8,2.44-.48-.35-.36-1.9.21-2.26,3.5-2.23,4.53-.94,8.59-.18Z"/>
      <path class="cls-1" d="M20.61,18.02c-1.21-4.76.28-5.42,2.48-9.28.79,2.75,1.61,8.47-2.48,9.28Z"/>
      <path class="cls-1" d="M21.08,25.69c.27.44-.63,1.38-1.13,1.31-2.1-.31-3.47-1.76-3.83-3.82-.09-.49.62-1.47,1.11-1.83.73,2.33,1.78,3.58,3.84,4.34Z"/>
      <path class="cls-1" d="M9.39,37c-.08.87-1.53,1.16-2.19.47s-2.87-2.73-1.9-3.64c.2-.19.78-.33.96-.25.72,1.2,1.84,2.39,3.14,3.42Z"/>
    </g>
  </g>
</svg>