<?xml version="1.0" encoding="UTF-8"?>
<svg id="Warstwa_2" data-name="Warstwa 2" xmlns="http://www.w3.org/2000/svg" viewBox="0 0 54.48 51.25">
  <defs>
    <style>
      .cls-1 {
        fill: #fff;
      }
    </style>
  </defs>
  <g id="Warstwa_1-2" data-name="Warstwa 1">
    <g id="game-icon-v3-dark-magic-pixarts-store_40">
      <path class="cls-1" d="M32.68,7.33c.29,2.31.31,4.14-1.54,5.57.72-9.36-5.33-6.13-3.74-12.9-5.91,4.72,2.48,7.61-2.87,11.97-1.22-3.86-2.21-2.34-2.31-5.91-1.79,1.1-2.22,3.49-.91,5.35,1.99,2.85-1.41,6.74-1.66,6.14-.81-1.98,1.1-2.98-1.07-5.23.26,3.61-4.33,6.34-1.9,10.41.9,1.52,2.66,3.27,5.04,3.24-1.44-.94-2.28-2.76-1.38-4.18.84,1.35,1.83,2.34,3.31,2.35-1.59-2.11-1.54-4.72-.02-6.54.5,2.01.62,3.54,2.39,3.61-1.41-3.25-.47-6.56,2.25-8.14-.12,1.78-.81,3.81-.01,4.94l2.1,2.96.33-2.97c1.76,1.73,1.95,3.81.59,6.3,1.29-.4,1.92-1.14,2.89-2.18.4,1.38-.2,2.7-1.21,3.84,2.17-.15,4.04-1.67,4.76-3.07,1.1-2.14.82-4.32-.13-6.17l-1.55-2.99c-.62.34.64,6.01-1.36,4.8-3.91-2.38,3.92-7.28-2-11.18Z"/>
      <path class="cls-1" d="M36.29,30.53l1.85-3.02-22.2.05c.81.68,1.27,1.15,1.51,2.37l-1.84-1.97c-.5-.54-2.35-.59-2.85-.2l-.08,10.5,1.64-2.79c.64.92,1.16,1.12,2.07,1.26l1.23,6.3c3.2-9.02-.81-5.85-1.41-11.51l2.93,4.12c1.43-3.32,4.7-4.96,8.17-5,3.36-.04,6.53,1.93,8.05,5.03l1.84-1.53-1.4,2.26c-.57,6.79,1.13,1.1,1.52,8.24,1.65-4.44-.81-4,2.39-10.04l1.63,5.32c.46-4.05.53-8.17.34-12.29-3.39-1.07-2.65,1.56-5.4,2.92Z"/>
      <path class="cls-1" d="M51.88,49.58c-.14-.37-1.19-.62-1.61-.63l-11.65-.34,5.36-.41c3.63-.28,5.54.39,5.23-1.08-.07-.32-.64-1.03-.98-1.03l-12.96.11c-.81,0-2.43.76-3.21.94.02,1.15-.48,2.15-1.61,2.64-2.43,1.06-7.91,1.03-8.1-2.5-.52-.28-2.17-1.09-3.03-1.1l-13.24-.12c-.3.62-.63,1.53-.7,1.89l10.26.59c-2.96,1.12-12.56-.42-13.09,1.19-.12.38.23,1.5.65,1.5h48.51c.18-.59.31-1.29.17-1.65Z"/>
      <path class="cls-1" d="M34.15,40.36c1.16-2.09.38-4.3-.93-6.01-2.84-3.72-9.34-3.32-11.71-.27-1.32,1.7-2.46,4.03-1.12,6.32l.86-3.21c.16,1,.05,2.22-.32,3.37l-.96,2.93c-.16.49.4,1.58.82,1.85.84.54,4.06-.62,3.5.83-.22.57-.6,1.14-.45,1.41l.57,1.02c.52-.47.97-.88.87-.79l.47,1.33c.05.14.41-.15.46-.28l.34-.87.95,1.42.53-1.78.99,1.68.49-2.08.63,1.41c1.69-1.03-.62-3.11.36-3.23,2.09-.26,2.53.67,3.27-.11.29-.31.76-1.15.86-1.54l-1-3.2c-.33-1.06-.48-2.18-.26-3.02l.79,2.8ZM22.15,43.32c-.61-.4-.83-2.28-.33-2.9.51-.63,1.92-.38,2.56-.09l2.25,1.01c-.32,1.59-2.85,2.9-4.49,1.99ZM28.34,45.8l-1.05-.27c-.21-.05-.53.19-1.15.46-.16-.74.14-2.47,1.05-2.92,1.05-.23,1.63,2.02,1.15,2.72ZM32.49,43.21c-1.48,1.08-3.91-.05-4.58-1.89l2.63-1.1c.53-.22,1.89-.26,2.2.17.38.51.29,2.42-.25,2.82Z"/>
      <path class="cls-1" d="M13.86,38.79l-1.69,2.8-.78-4.59c-.79-.17-2.4-.19-3.22-.01l-.03,8.03,7.84.02c.05-2.62.28-4.61-.6-6.86l-1.02,3.78-.49-3.16Z"/>
      <path class="cls-1" d="M40.79,42.45c-.52-1.78-.63-2.66-1.48-4.17-.72,2.49-.53,4.27-.6,6.72h7.76s-.04-8.19-.04-8.19l-3.71.12c-.05,2.46-.24,4.24-1.94,5.52Z"/>
      <path class="cls-1" d="M44.87,16.62l-.97-1.64-.31,4.13c-.05.66.72,2.12,1.32,2.19,1.33.15,3.37.09,4.6-.17.4-1.77-.06-3.22-.6-4.31-.06.59-.47,1.9-.99,1.76-.79-.21-.71-1.8-.31-2.36,2.12-3.04-1.31-4.26-1.52-6.34-1.73,2.73,2.59,3.8-1.22,6.75Z"/>
      <path class="cls-1" d="M6.36,17.31l-.62-1.67c-.52,1.58-1.31,3.81-.08,5.34,1.09.53,3.55.7,4.81.1,1.16-.55.74-2.88.34-3.43-.38.57-1.2,1.59-1.62,1.41-1.82-.78,2-2.63-.7-5.95-.38-.47-.65-1.62-.88-2.39-2.77,2.13,1.72,4.04-1.25,6.59Z"/>
      <path class="cls-1" d="M12.34,22.18l-8.69.04c-.35,1.44,2.31,1.16,2.02,2.34-.07.27-.34,1.06-.33.98-.6-1.22-.49.13-.55.37-.04.19.59.6.84.59l5.49-.1c.1-.42.22-1.35.02-1.56l-1.06-1.1,1.51-.12c.34-.03.69-.85.76-1.43Z"/>
      <path class="cls-1" d="M42.12,22.28c.02.35.45,1.33.78,1.52.32.19.88-.14,1.7-.39l-.49,2.29-.73-.72c-.09-.09-.21.02-.23.15l-.11,1.19,6.29.2c.35.01.54-1.21.3-1.34l-.89-.48,2.07-2.33-8.68-.1Z"/>
      <path class="cls-1" d="M54.05,27.47l-11.24.02c-.06.79.06,1.78.33,2.42l11.23-.15c.2-.74.14-2.29-.32-2.29Z"/>
      <path class="cls-1" d="M1.65,29.84h10.11s-.12-2.36-.12-2.36l-11.03-.02c-.48,0-.78,1.48-.52,1.81.25.33.96.57,1.56.57Z"/>
      <polygon class="cls-1" points="2.48 30.7 3.76 32.89 11.63 32.92 11.5 30.56 2.48 30.7"/>
      <path class="cls-1" d="M43.29,30.59c-.6,0-.66,2.29-.06,2.3l7.49.08,1.29-2.34-8.72-.04Z"/>
      <path class="cls-1" d="M48.93,34.05l-5.96-.21-.09,1.92,4.88-.02c.5,0,1.21-1.13,1.17-1.69Z"/>
      <path class="cls-1" d="M11.26,33.91l-5.49.17c-.02,1.01.81,1.74,1.63,1.73l4.45-.08c-.06-.71-.28-1.83-.59-1.82Z"/>
    </g>
  </g>
</svg>