<?xml version="1.0" encoding="UTF-8"?>
<svg id="Warstwa_2" data-name="Warstwa 2" xmlns="http://www.w3.org/2000/svg" viewBox="0 0 51.65 48.58">
  <defs>
    <style>
      .cls-1 {
        fill: #fff;
      }
    </style>
  </defs>
  <g id="Warstwa_1-2" data-name="Warstwa 1">
    <g id="game-icon-v6-elemental-pixarts-store_306">
      <circle class="cls-1" cx="14.37" cy="13.38" r="1.32"/>
      <g>
        <circle class="cls-1" cx="25.81" cy="24.17" r="5.73"/>
        <path class="cls-1" d="M38.25,22.3c2.68-3.11,7.37-7.84,5.47-11.81-1.6-3.35-8.64-1.38-11.47-.92,3.16-1.69,12.65-4.4,15.06-1.02,2.55,3.57-3.24,9.54-5.5,12.3-.95,1.16-2.08,1.94-3.57,1.44Z"/>
        <path class="cls-1" d="M10.63,39.18c2.21.42,4.43.11,6.86,0-3.03,1.42-10.99,3.26-13.25-.1-2.18-3.25,3.51-9.96,6.12-12.49.47-.46,1.73-.67,2.37-.49-2.05,2.75-4.04,4.8-5.01,7.76-.77,2.35.43,4.86,2.91,5.33Z"/>
        <path class="cls-1" d="M24.14,32.97c-.73,2.13-12.58,5.86-13.48,1.29-.34-1.72.62-3.41,1.52-4.5-.03,1.35-.07,2.78.42,3.63,1.78,3.07,8.5-.03,11.55-.42Z"/>
        <path class="cls-1" d="M6.88,23.42c2.51.19,12.96-.17,11.93.96-.88.95-7.74.3-11.92.84-1.02.13-1.84,1.81-3.03.59-.75-.77-.85-2.1-.3-2.8,1.37-1.74,2.27.34,3.33.42Z"/>
        <path class="cls-1" d="M44.92,25.13c-.79-.54-12.12.11-12.01-.56l.15-.91,11.77-.17c.84-.55,1.88-1.97,3.13-.65.64.68.78,1.92-.12,2.91-.83.91-2.05.04-2.92-.62Z"/>
        <path class="cls-1" d="M26.75,41.48c.24,1.42,1.87,2.06.7,3.38-.66.75-2.2.94-2.91.17-1.04-1.13-.41-2.44.57-3.46v-8.99c0-.31.37-1.04.47-1.22s.88.2.89.48c.09,2.55-.18,6.91.28,9.64Z"/>
        <path class="cls-1" d="M26.44,16.1c0,.39-.1.84-.14,1-.05.24-1.1-.34-1.1-.67l-.18-9.58c-1.01-1.09-1.56-2.22-.83-3.09.93-1.09,2.4-.9,3.13-.08.93,1.04.16,2.39-.65,3.24l-.23,9.19Z"/>
        <path class="cls-1" d="M39.54,17.95c.02-1.18.05-2.46-.33-3.35-.3-.72-1.88-1.4-2.84-1.48-3.24-.27-5.76,1.5-9.19,1.94,1.48-2.25,11.59-5.3,13.31-2.18,1.03,1.85.02,3.76-.96,5.08Z"/>
        <path class="cls-1" d="M28.78,45.95c1.41-1.84.56-3.88-.48-5.73,2.85,1.5,2.71,5.01,1.01,6.82-1.95,2.08-5,2.03-6.88.03-1.9-2.03-1.72-5.63,1.22-6.78-1.55,1.83-2.03,4.17-.42,5.98,1.3,1.45,4.17,1.5,5.55-.31Z"/>
        <path class="cls-1" d="M24.31,1.58c-1.2.57-2.16,2.19-2.14,3.4.02,1.36.96,2.6,1.79,3.95-1.07-.41-1.99-1.71-2.47-2.92-.94-2.36.41-4.71,2.32-5.57,2.37-1.07,5.02-.1,6.07,1.95,1.15,2.25.53,5.33-2.14,6.07,1.46-1.61,2.42-3.19,1.39-5.27-.69-1.38-2.56-2.68-4.81-1.61Z"/>
        <path class="cls-1" d="M50.12,25.64c.78-1.76-.07-3.42-1.14-4.27-1.4-1.11-2.96-.96-4.99-.16,1.07-1.62,3.38-1.98,5.06-1.18,1.78.85,2.82,2.68,2.55,4.8-.25,1.97-1.72,3.45-3.37,3.85-2.07.5-4.22-.13-5.06-2.1,1.53.8,2.51,1.4,3.82,1.3,1.06-.08,2.57-.95,3.14-2.24Z"/>
        <path class="cls-1" d="M6.91,20.69c-2.11-.18-3.8.07-4.76,1.21-1.34,1.6-1.13,3.59.09,4.85,1.39,1.42,3.19,1.11,5.36.73-1.76,1.87-4.57,1.84-6.39-.1-1.38-1.46-1.84-4.09,0-6.22,1.15-1.33,3.96-2.37,5.7-.47Z"/>
        <path class="cls-1" d="M18.61,20.92c-1.14.95-2.05,2.16-3.82,1.38,2.97-2.25,5.62-4.69,9.42-6.04l-5.59,4.66Z"/>
        <path class="cls-1" d="M27.52,31.67c1.8-1.47,3.53-2.84,5.33-4.52,1.03-.96,2.25-1.58,3.76-1.39-2.85,2.42-5.53,4.47-9.09,5.91Z"/>
        <path class="cls-1" d="M5.85,42.26c-1.13.13-2.63-.55-3.44-1.34-2.14-2.07-1.02-5.32.49-7.73l-.75,3.36c-.63,2.83,1.06,4.69,3.7,5.71Z"/>
        <path class="cls-1" d="M50.16,8.12c.65,2.11-.09,4.23-1.21,5.6.34-1.97.81-3.26.54-4.88-.18-1.07-1.54-2.15-2.63-2.83,1.2-.21,2.87.73,3.29,2.11Z"/>
        <circle class="cls-1" cx="37.86" cy="34.66" r="1.37"/>
        <path class="cls-1" d="M34.34,19.28l-1.85-1.62c.68,0,1.63-.91,1.84-1.72l1.54,1.84-1.53,1.5Z"/>
      </g>
    </g>
  </g>
</svg>