<?xml version="1.0" encoding="UTF-8"?>
<svg id="Warstwa_2" data-name="Warstwa 2" xmlns="http://www.w3.org/2000/svg" viewBox="0 0 43.5 52.34">
  <defs>
    <style>
      .cls-1 {
        fill: #fff;
      }
    </style>
  </defs>
  <g id="Warstwa_1-2" data-name="Warstwa 1">
    <g id="game-icon-v3-dark-magic-pixarts-store_56">
      <path class="cls-1" d="M38.96,15.85c-3.35-1.18-6.38-.65-9.26,1.22l.21-2.45c-3.44-.44-6.46-1.06-9.84-2.14-.52-.17-1.43.04-1.84.23-1-1.12-3.1-2.18-4.69-1.46-1.87.85-3.61,3.77-2,6.66.12.21-.98.63-1.03.92-.1.65-1.7,10.49-.51,10.17-1.62.43-2.47,7.5-4.35,10.33,2.93,1.89,6.36,3.12,9.66,3.89l9.22,2.15-.92,2.35c-.59,1.5.19,3.44,1.44,3.98,4.63,1.99,6.47-4.82,7.41-8.17.29-1.02.13-1.57-.66-2.69l1.48-.82c.19-.61,1.43-8.9.07-8.07.16-.1.8-.51.83-.69l.68-4.64c.06-.38-.62-1.54-.7-1.6,2.36-1.28.51-5.5,4.83-9.19ZM20.25,17.54l.33.96,2.68-3.7.92,4.74.99-1.78c.25.81.46,2.4.27,3.44-.14.81-1.63,1.77-2.32,1.9-.14-.9-.26-1.29-.96-3.22-.87.31-1.46,1.51-1.7,2.7-1.8-1.2-1.62-3.6-.23-5.05ZM10.56,34.38c3.68.47,7.04,1.24,10.62,2.74-3.73-.21-7.14-1.09-10.62-2.74ZM23.23,42.26l1.48-2.97c-1.35.77-1.85,2.32-2.48,4.15-.87-1.85.52-4.04,2.62-4.76l1.24,2.79-2.86.78ZM11.11,32.2c6.35.85,12.22,2.17,18.57,4.14-6.22-.57-12.49-1.99-18.57-4.14ZM11.5,29.85c6.36.8,12.24,2.11,18.58,4.11-6.2-.68-12.51-1.96-18.58-4.11ZM14.51,28.54c-.79-.13-1.69-.58-2.11-1.25l18.36,4.17c-5.68-.21-10.72-2.01-16.25-2.92ZM12.56,25.2c5.75.51,10.87,2.07,16.71,3.1.59.1,1.39.69,1.59,1.09-6.24-1.3-12.11-2.09-18.29-4.19ZM13.19,22.61l18.37,4.05c-1.73.49-17.55-2.78-18.37-4.05Z"/>
      <path class="cls-1" d="M17.77,9.12l-.12-2.98c-1.66,1.18-3.4,1.86-5.31,1.87,1.19-1.51,1.69-3.02.73-4.24-.64,1.58-1.39,2.75-2.52,3.67-3.33,2.71.13,4.36-1.92,7.18l-1.06-2.63c-1.74,7.05.62,6.16.57,8.48-.04,1.62-.29,2.78.57,4.23l1.32-10.14c.28-2.13,2.37-4.98,4.76-4.47,5.1,1.09,9.62,3.05,15.67,3.62.38.34.97,1.28,1.38,1.17l1.84-.48c2.05-.53,5.36-.12,6.98,1.15,1.93,1.52.98,5.05-.51,6.3l-3.22-.46c-.83,3.43-1.46,6.3-1.47,9.84l3.08-3.37c-.06-.26-.14-.51-.3-.47l-.92.23c-.87-3.23,4.52-2.55,5.8-7.4,2.05-7.78-4.82-6.14-2.13-12.07-2.8-.09-1.95,5.1-3.14,4.22-1.61-1.2.15-1.49-1.93-4.55-.05,1.1-.15,2.25-.63,3.06-.38.65-1.92.91-2.58.75,1.34-4.71-.3-.82-.55-7.95l-.88,3.37c-1.18,1.12-2.45,2.09-3.97,2.86,3.88-6.16-2.72-3.82,1.03-9.88-1.53.45-3.07,1.2-4.02,2.64-.43.65-.05,2.19.34,3.03,1.5,3.23-5.06,3.52-6.87,3.45Z"/>
      <path class="cls-1" d="M4.24,45.96c4.36,1.05,8.48,2.23,12.61,3.86l6.41,2.52c-1.14-2.35-1.22-3.84-.39-6.24l-7.11-1.76c-.76.52-1.19.34-1.91.05-4.43-1.77-8.45-3.71-12.8-6.05-1.07,1.21-1.33,3.25-.75,4.89.52,1.46,2.19,2.31,3.94,2.73Z"/>
      <path class="cls-1" d="M39.9,20.66c.71-1.32,1.16-3.02.2-4.16-1.18.7-2.07,1.91-2.45,3.2.59.45,1.66.93,2.24.96Z"/>
    </g>
  </g>
</svg>