<?xml version="1.0" encoding="UTF-8"?>
<svg id="Warstwa_2" data-name="Warstwa 2" xmlns="http://www.w3.org/2000/svg" viewBox="0 0 41.93 40.85">
  <defs>
    <style>
      .cls-1 {
        fill: #fff;
      }
    </style>
  </defs>
  <g id="Warstwa_1-2" data-name="Warstwa 1">
    <g id="game-icon-v7-magic-pixarts-store_199">
      <path class="cls-1" d="M23.58,24.76c.56-4.24-1.83-6.99,1.39-10.87l-3.19.53.56-1.78c-1.12.54-1.45,1.86-1.18,2.79l2.18-.6c-1.56,2.99.12,5.26-2.65,4.82l-.47-3.55-2.65-.13,1.36-1.62-1.86-.76,3.19-2.36-2.39-.8c4.81-2.11,5.08-5.59,9.87-2.34-.8-1.21-1.27-1.85-1.84-2.99l3.73,1.72c-1.97-1.5-3.49-3.42-3.08-6.12,4.24,6.05,8.9,3.61,12.42,8.09.32.41.36,1.56-.03,1.76-2.25,1.17-1.53-2.37-5.5-2.67l1.61,2.75,2.52.35c-1.29.98-2.9,1.35-5.06,1.85l1.55,2.53-2.56.26c-.53.05-.86.91-.98,1.75l1.43-1.03-.08,4.44s-.49.19-.55.32l-1.43,3.11-.21-3.46c-.58,2.41-1.49,4-3.71,4.72.9-2.6,1.39-4.96,1.07-7.59-.65.39-1.3.9-1.07,1.21,1.4,1.84.06,5.04-2.39,5.66ZM30.19,13.78l-2.33.29,1.36-2.52-2.45-.05,1.88-1.65-3.15-1.08c.66.7,1.31.89,2.14,1.25l-1.85,1.6c.9.46,1.68.56,2.36.47-.51.98-1,2.2-.73,2.84.37.07,1.51-.37,1.6-.07l.41,1.35.76-2.43Z"/>
      <path class="cls-1" d="M19.18,25.27c-4.51,3.52-6.08,6.07-10.2,9.86-1.21-.07-3.62-1.91-2.78-3.3,1.96-3.21,8.49-7.6,10.87-12.43l1.22,2.62,3.05,1.89c-.23.31-.98.97-1.29.78l-1.39-.84-.67,1.13,1.19.28Z"/>
      <path class="cls-1" d="M31.46,29.12c3.08-1.19,4.59-3.9,5.72-6.81.03,2.97-1.55,5.2-3.08,7.69,2.42-.96,3.73-2.96,5.06-4.96l.03,1.7,2.35-4.8c-.3,5.28-4.06,9.49-8.8,11.51-5.05,2.15-10.83,1.35-15.34-1.24,5.22,1.24,10.15,1.85,14.47-1.05-3.89.42-7.31,1.16-10.59-.83,3.59.83,6.68.15,10.17-1.2Z"/>
      <path class="cls-1" d="M20.42,4.5c-6.55,1.95-10.82,7.35-10.75,14.33-.98-2.38-.33-4.71,0-7.33-2.63,3.15-1.93,6.73-1.43,10.87-3.58-6.59-1.08-14.43,4.79-19.14C15.58,1.18,18.49-.33,22.19.06l-4.59,1.7c-1.15.42-6.14,4.6-6.28,6.28,2.86-1.89,5.49-3.75,9.09-3.54Z"/>
      <path class="cls-1" d="M35.05,13.73l2.74,4.01c-2.31-.59-3.16-2.84-4.16-4.44,2.04-.49,3.3-1.11,4.97-2.06,1.22-.7,2.68,1.17,3.1,2.2.56,1.37.02,3-1.04,3.85-.64-2.5-2.59-3.18-5.61-3.57Z"/>
      <path class="cls-1" d="M5.13,39.16l-5.13,1.69c.13-1.89,1.72-5.21,1.73-5.42.05-.62.32-1.36.85-1.92,1.27,2.35,2.55,3.82,4.87,4.78-.32,1.23-1.49.6-2.32.87Z"/>
      <path class="cls-1" d="M8.03,37.36c-1.99-.17-4.23-1.98-4.48-4.18-.05-.5.95-1.25,1.43-1.43.71,2.4,1.99,3.69,4.28,4.27.03.24-.79,1.36-1.23,1.34Z"/>
      <path class="cls-1" d="M22.29,23.4c-2.91-1.54-3.99-1.58-4.51-5.01-.07-.44.89-1.22,1.46-1.39l1.11,3.44c.63.14,1.82.27,2.06.69.27.47.18,1.64-.12,2.27Z"/>
      <path class="cls-1" d="M33.61,4.63c-.89-.13-2.05-.57-2.62-1.14-.65-.66-.41-2.13-.19-3.12l2.81,4.26Z"/>
      <path class="cls-1" d="M11.53,16.55c-.27-2.13.23-4.15,1.92-5.42l-1.92,5.42Z"/>
    </g>
  </g>
</svg>