<?xml version="1.0" encoding="UTF-8"?>
<svg id="Warstwa_2" data-name="Warstwa 2" xmlns="http://www.w3.org/2000/svg" viewBox="0 0 31.68 46.98">
  <defs>
    <style>
      .cls-1 {
        fill: #fff;
      }
    </style>
  </defs>
  <g id="Warstwa_1-2" data-name="Warstwa 1">
    <g id="game-icon-v7-magic-pixarts-store_207">
      <path class="cls-1" d="M12.22,35.3l-.86-1.23,2.74-2.23c2.4-1.96,1.11-4.79,1.27-6.51.2-2.05-.17-3.95-1.81-5.49l-4.04-3.77c-.55-.51-1.15-2.09-.78-2.7,3.45-2.69,6.28,1.32,11,1.14,1.54-.06,3.08-.66,3.31-2.26-2.07,1.78-4.41,1.71-7.02.56l5.13-2.04c.54-.21,1.93.19,2.24.62s.33,1.45.09,2.17c-1.66,5.02-7.93,5.37-7.45,12.47.1,1.52-.27,3.81.68,5.12,1.79,2.47,8.53,3.13,7.47,8.03-.6,2.75-13.67,2.91-16.23.09-1.62-1.78.22-4.81,2.2-5.03l2.09,1.06Z"/>
      <path class="cls-1" d="M31.37,41.42c.34,1.03.12,2.72-.69,3.59-9.47,2.51-19.25,2.69-28.66.18-.69-.19-1.59-.85-1.87-1.33-.32-.54-.02-2.13.29-2.66,6.79,3.89,23.6,3.55,30.94.21Z"/>
      <path class="cls-1" d="M31.17,5.53c-4.83-3.37-25.92-3.37-30.59-.11C0,5.02-.35,2.89.61,2.43,9.75-1.89,31.21.29,31.67,3.23c.1.66-.26,1.93-.49,2.29Z"/>
      <path class="cls-1" d="M7.3,40.85l-2.05-.53c-1.85-15.54,14.61-13.14,4.96-20.94C3.52,13.98,5.39,6.64,5.52,6.62l1.35-.14c-2.47,11.25,7.21,12.22,7.33,16.95.04,1.46-1,2.99-2.26,3.9-4.14,3.01-7.24,8.11-4.64,13.52Z"/>
      <path class="cls-1" d="M20.92,26.93c7.03,5.33,5.9,13.3,5.15,13.47l-1.74.38c.42-.59.88-1.18.93-1.54.66-4.86-1.64-9.1-5.48-11.93-1.58-1.16-2.97-3.12-2.07-5.12,1.69-3.74,9.13-5.43,7.34-15.57.82-.13,1.47.56,1.51,1.34.59,10.75-8.5,11.79-8.09,15.63.13,1.25,1.46,2.61,2.43,3.35Z"/>
      <path class="cls-1" d="M2.1,22.8c-5.04-5.39,2.6-11.28-.36-16.36-.19-.32.72-1.15.95-.93.47.45,1.26,1.82,1.19,2.48l-.77,7.02c-.22,1.98.05,3.35,1.93,4.64l-2.95,3.15Z"/>
      <path class="cls-1" d="M28.29,40.6c-1.02-6.28,1.9-10.4-.44-12.6l-.74-.7c-.18-.17.51-1.02.73-.84,1.04.85,1.88,3.19,1.64,4.52,1.08-2.11.26-4.04-1.16-5.63l1.38-1.1c.62-.49,3.31,2.89.26,10.17-2.25,5.37,2.07,6.37-.77,7.04-.28.07-.85-.57-.9-.87Z"/>
      <path class="cls-1" d="M3.79,28.25c-2.31,2.18.9,6.67-.39,12.26-.06.27-.59.8-.82.89-2.24.89.97-2.87-.67-6.7-1.14-2.66-2.86-8.86.17-10.5.47.24,1.23,1.12,1.34,1.54-1.56,1.5-2.02,3.55-1.17,5.35.15-1.89.47-3.67,2.25-4.7.44.56-.02,1.21-.72,1.86Z"/>
      <path class="cls-1" d="M28.25,21.18c1.76-1.67,2.03-3.77,1.24-5.8-.12,2.07-.58,3.75-1.66,5.23-.3-.28-.91-.84-.73-1.04l1.03-1.2c2.25-2.61-1.76-8.72.68-12.7.15-.24,1.13.38,1.03.64-2.46,5.42,4.57,10.77.1,16.44l-1.7-1.58Z"/>
      <path class="cls-1" d="M27.75,6.08c-.67.36-10.45-2.8-22.25-.06l-1.18.27c-.25.06-.5-.71-.47-.99,7.45-2.17,16.05-1.97,23.75-.24.25.06.34.91.15,1.01Z"/>
      <path class="cls-1" d="M28.2,41.2c-7.44,3.17-16.6,2.45-24.25.55-.26-.06-.03-1.14.18-1.1l1.25.25c7.41,2.42,14.77,1,22.83.3Z"/>
      <path class="cls-1" d="M28.8,23.48c0,.57-1.28,1.71-1.77,1.74-.5-.47-1.1-1.26-1.17-1.76s.64-1.76,1.14-1.8c.55-.04,1.79,1.14,1.79,1.82Z"/>
      <path class="cls-1" d="M5.75,24.36l-.87.89c-.37.38-2.07-1.58-1.92-1.81l.76-1.24c.2-.32,1.39-.62,1.56-.3s.19.73.13,1.18l.67.41c.15.1-.2.74-.33.87Z"/>
      <path class="cls-1" d="M10.52,7.06l-2.65,4.44c-.19-.96-.21-2.44.19-3.76.23-.75,1.9-1.03,2.46-.68Z"/>
    </g>
  </g>
</svg>