<?xml version="1.0" encoding="UTF-8"?>
<svg id="Warstwa_2" data-name="Warstwa 2" xmlns="http://www.w3.org/2000/svg" viewBox="0 0 57.83 54.45">
  <defs>
    <style>
      .cls-1 {
        fill: #fff;
      }
    </style>
  </defs>
  <g id="Warstwa_1-2" data-name="Warstwa 1">
    <g id="game-icon-v3-dark-magic-pixarts-store_38">
      <path class="cls-1" d="M25.26,19.27c4.33-2.46,9.06-3.02,13.4-.72-.53-3.8-3.36-6.04-6.93-6.74-3.64-.72-6.62.79-10.27,2.17,3.98-3.56,10.36-4.24,15-1.02,3.12,2.16,3.91,6.28,3.23,9.61-.49,2.44-1.53,4.09-2.83,6.29l2.56,1.52c1.71-2.62,2.85-4.89,3.42-7.74,1.31-6.55-2.59-12.63-9.18-13.9-4.95-.96-9.89.17-14.05,3.2,1.89,2.75,3.69,5.05,5.67,7.33Z"/>
      <path class="cls-1" d="M9.55,32.23c1.49,4.73,5.8,7.67,10.79,8.02,4.02.29,8.08-1.1,11.45-3.28-.14-.91-.92-1.93-1.68-2.12-3.48,2.21-7.52,3.32-11.46,2.18-3.89-1.13-6.77-4.21-6.85-8.51-.06-3.47.96-6.45,3.11-8.47-2.92,5.06-4.06,10.33.9,14.38-.34-3.59.71-6.67,3.02-9.56-1.28-2.35-3.47-5.52-6-6.7-3.44,3.82-4.87,9.07-3.29,14.07Z"/>
      <path class="cls-1" d="M32.25,37.33c-3.02,2.48-6.53,3.25-10.38,3.67-2.47.27-4.76-.71-7.49-1.31.87,1.12,1.77,1.94,2.93,2.89,1.35,1.11,1.55,3.88,7.79,3.81,3.58-.04,6.9-1.07,9.92-2.9.96-.58.43-2.01-.06-2.66l-2.7-3.5ZM31.28,44.4c-1.14,0-2.06-.92-2.06-2.06s.92-2.06,2.06-2.06,2.06.92,2.06,2.06-.92,2.06-2.06,2.06Z"/>
      <path class="cls-1" d="M43.53,35.64c4.39-5.81,5.02-13.11.14-18.73.57,5.14-.59,9.61-3.67,13.73l3.54,5ZM42.58,29.18c.52-.26,1.68.2,1.97.61.33.47.54,1.78.16,2.22-.68.79-2,.39-2.56-.18-.68-.69-.41-2.23.43-2.66Z"/>
      <path class="cls-1" d="M6.16,48.57c.16.27,1.23.65,1.3.37.57-2.24-1.88-4.12,5.32-9.78l-1.64-1.79c-3.34,2.92-7.81,6.41-4.97,11.2Z"/>
      <path class="cls-1" d="M43.4,13.07c2.28-.99,5-4.82,8.71-6.34-.38-4.8-7.69,2.71-9.05,4.01-.57.54-.32,2.61.33,2.33Z"/>
      <path class="cls-1" d="M49.22,9.4c.78,1.92,3.34,1.78,4.7.55l3.92-3.54-.93-2.09c-1.67,1.44-3.18,2.94-4.81,4.1-.57.4-2.53.17-2.87.98Z"/>
      <path class="cls-1" d="M6.97,54.45l2.7-2.8c.83-.86,1.51-2.45,1.18-3.79-.22-.93-1.3-2.02-2.56-2.46-.27,1.03.24,2.48.37,3.39-.72,1.63-2.14,2.89-3.45,4.22l1.75,1.44Z"/>
      <path class="cls-1" d="M12.5,44.12c-.56-.03-1.45-.61-2.18-1-.5.53-.5,2.1.08,2.68,2.27,2.27,5.66-.1,6.85-2.08l-1.41-1.38c-.31-.3-1.83,1.86-3.34,1.78Z"/>
      <path class="cls-1" d="M44.26,15.46l.98,1.82c2.55-1.05,4.23-3.89,2.89-6.42-2.89.26-.71,1.97-3.87,4.6Z"/>
      <path class="cls-1" d="M40.01,7.72l-1.94,1.68,2.24,1.21c.95-1.67,5.68-1.53,4.66-2.89-1.2-1.61-3.66-1.14-4.96,0Z"/>
      <path class="cls-1" d="M50.85,0l-3.27,2.9c-.97.86-1.33,2.47-.64,3.63l5.49-5-1.58-1.53Z"/>
      <path class="cls-1" d="M1.79,49.48l1.3-1.12c1.43-1.23,2.28-2.74,1.04-4.43-1.59,1.58-3.06,3.14-4.13,4.59.21.54,1.46,1.24,1.79.95Z"/>
      <path class="cls-1" d="M49.98,39.06l-.45-1.18,2.09,1.58.55-3.4-5.34,1.48c1.22.76,1.84,1.03,3.15,1.51Z"/>
      <path class="cls-1" d="M42.41,47.95c-.59-1.38-1.25-2.21-2.24-3.17l-.36,4.06c.8.23,2.35-.11,2.6-.89Z"/>
      <path class="cls-1" d="M6.38,9.78c.92.8,1.94.77,2.92.72l1.34.27-2.4-3.33-1.87,2.34Z"/>
      <path class="cls-1" d="M37.57,30.14l1.57,2.59c.88,1.06,1.59,1.89,2.91,2.36l-1.68-2.87c-.8-.87-1.49-1.5-2.79-2.09Z"/>
      <polygon class="cls-1" points="15.82 2.42 13.61 3.6 15.84 7.02 15.82 2.42"/>
      <path class="cls-1" d="M9.68,36.02c-.71.73-2.06,2.41-2.06,3.49l2.53-1.96c.23-.18.46-.79.49-1.04.03-.25-.78-.67-.96-.49Z"/>
      <path class="cls-1" d="M39.04,39.98c.1.79.24,1.78.66,1.9.45.13,1.3.33,1.99.48-.21-1.65-1.1-2.39-2.65-2.38Z"/>
      <path class="cls-1" d="M10.94,18.38l-.68.36c-1.03.55-2.07,1.65-.83,2.94l1.74-2.59c.12-.17-.08-.8-.23-.72Z"/>
      <polygon class="cls-1" points="36.39 37.75 39.13 36.88 36.19 35.36 36.39 37.75"/>
      <path class="cls-1" d="M21.25,8.37c-.41.19-.49.72-.41,1.73l2.81-1.47c-.53-.54-1.63-.61-2.4-.26Z"/>
      <path class="cls-1" d="M30.71,41.06c-.28.25-.44,1.27-.37,1.64.07.37.83.94,1.24.85.86-.19,1.03-1.36.74-1.86-.23-.39-1.28-.94-1.62-.63Z"/>
    </g>
  </g>
</svg>