<?xml version="1.0" encoding="UTF-8"?>
<svg id="Warstwa_2" data-name="Warstwa 2" xmlns="http://www.w3.org/2000/svg" viewBox="0 0 55.77 42.87">
  <defs>
    <style>
      .cls-1 {
        fill: #fff;
      }
    </style>
  </defs>
  <g id="Warstwa_1-2" data-name="Warstwa 1">
    <g id="game-icon-v6-elemental-pixarts-store_300">
      <path class="cls-1" d="M43.19,12.74c-8.42,8.79-18.74,14.84-30.14,18.18-4.1-6.47-3.66-14.25.55-20.1,4.14-5.75,11.3-8.53,18.46-6.85,4.83,1.13,8.85,3.9,11.13,8.76ZM23.65,17.01c-.56,3.08-2.95,4.67-5.38,3.77-1.94-.72-1.78-2.8-1.42-4.85l-2.84,3.17c-1.07-2.34,1.74-7.97,5.38-7.6.47.05,1.57.54,1.5.97l-.33,2.25c.4-.24,1.03-1.38,1.18-2.09.12-.54-.67-1.58-1.21-2.01-2.11-1.64,5.19-4.11,6.24-3.9.09.73.01,1.45.25,1.34l1.01-.44,3.89-1.71c-.8-.38-2,0-3.25.09-11.69.92-7.98,4.32-10.1,4.62-2.25.32-4,2.02-4.67,4.28-1.38,4.67-2.22,3.67,1.03,9.57-.08-2.37-.61-4.04.44-5.4,1.42,1.54,2.39,2.53,3.74,3.68l.73,1.8.54-2.78c.59-.41,1.91-1.53,2.61-1.73l3.73-1.06-2.17-.65c-.4-.12-.58-.98-.91-1.34ZM32.65,16.84c.23-.88.43-2.31.88-2.87.39-.49,1.72-.72,2.46-1.01-.88-.38-2.27-.59-2.57-1.23s-.58-1.93-.78-2.74l-.85,2.72c-.2.64-1.85.89-2.55,1.25.73.34,2.34.62,2.55,1.27l.85,2.61ZM16.02,25.42l-.51,1.73-2.73-1.68c.27.77,1.25,1.86,1.93,2.05,1.02.29,6.33-.57,4.97-1.82-1.29.41-2.43.29-3.66-.28Z"/>
      <path class="cls-1" d="M7.29,38.93c1.19-.49,1.97-2.52,2.27-3.69l2.79-1.05-.05,2.93c0,.24-.97.94-1.1.73l-.88-1.38-1.84,2.74c14.31-1.89,35.61-14.37,43.72-26.57-1.28-.34-2.44-.28-3.31-.05l.38,1.89c.1.51-1.36,1.42-1.8,1.14-.73-.46-.32-1.55.62-2.32l-1.49.48c1.02-2.54,3.72-2.95,6.33-2.23,1.17-1.45,2.01-3.64,1.65-5.62-.38-2.1-3.64-2.72-4.89-1.92-.23.14-.15,1.31-.4,1.38l-1.11.32c-.34.1-1.68.2-1.59-.15l.42-1.65.33,1.61c.1,0,.92-.45,1.04-.73s.07-.79,0-1.22c-4.73-.42-8.17,2.41-10.18,1.39,3.22-1.52,6.52-2.08,10.16-2.55-1.3-2.34-3.46-1.08-5.8-1.18C44.2.47,46.05-.02,48,0c.83,0,1.72,1.71,2.08,2.39,1.74.32,4.19.81,5.14,2.36,1.56,2.54-.59,4.71-.76,6.99-.13,1.73,1.3,3.38-.55,5.17l-3.05,2.97c.84-2.35,3.03-3.54,2.22-6.34-10.19,13.15-28.31,23.61-44.54,27,1.78,2.33,3.58.47,6.07,1.03l-3.91,1.14c-1.89.55-3.62-.34-3.9-2.3l-2.81-.37c-1.34-.18-2.97-1.1-3.52-2.09-.76-1.38-.51-3.37.22-4.71.87-1.57.8-2.16.13-3.63-.81-1.78,1.17-4.12,2.67-4.52-.73,1.72-1.68,2.79-1.2,4.5l6.65-6.83c1.6,1.3-5.12,5.65-5.9,7.82l2.77.24c-.05.23-.5,1.36-.85,1.29l-2.07-.46c-1.11,1.01-2.38,3.65-1.63,5.41.82,1.93,3.77,2.81,6.03,1.87Z"/>
      <path class="cls-1" d="M21.18,38.11c8.99-4.01,17.19-8.46,24.58-15.13-.32,5.85-3.55,10.81-7.51,13.53-5.1,3.5-11.21,4.26-17.07,1.59ZM27.16,37.66c4.44.46,6.86-2.62,9.99-4.47,1.69-1,5.47-1.07,3.88-4.72-1.24,2.65-2.86,3.53-4.92,4.6l-4.69,2.45-4.27,2.15Z"/>
      <path class="cls-1" d="M9.33,26.32c1.6.37-3.17,4.33-.83,5.61,1.54.84,3.89.59,5.67.02,11.09-3.55,25.17-11.35,31.67-21.11.47-.71.6-2.85-.08-3.22-1.12-.62-3.05-.29-4.59-.14-.3-1.32,4.68-1.81,5.78.02,3.75,6.24-22.15,24.47-36.29,25.91-1.35.14-3.6-.59-3.7-2.06-.11-1.76.93-3.61,2.37-5.03Z"/>
      <path class="cls-1" d="M35.38,24.78c-.44-1.1,1.03-2.86,2.21-2.36.89.38,1.28,2.09.58,2.6-.79.57-2.34.87-2.79-.25Z"/>
      <path class="cls-1" d="M6.58,37.54c-.27.36-1.8.34-1.95-.04s.15-1.01.56-1.56c.85-1.16,2.11-1.63,3.36-.97l-1.96,2.57Z"/>
      <path class="cls-1" d="M46.58,17.38c-.3,1.26-1.92,2.54-3.53,1.6l2.02-.75c-.58-.42-1.36-1.27-1.13-1.69.23-.42,1.08-1.14,1.55-1.23.56-.1,1.43.91,1.48,1.57l-1.27-.62c-.31-.15-.88.67-.89.91l1.77.21Z"/>
    </g>
  </g>
</svg>