<?xml version="1.0" encoding="UTF-8"?>
<svg id="Warstwa_2" data-name="Warstwa 2" xmlns="http://www.w3.org/2000/svg" viewBox="0 0 40.1 44.68">
  <defs>
    <style>
      .cls-1 {
        fill: #fff;
      }
    </style>
  </defs>
  <g id="Warstwa_1-2" data-name="Warstwa 1">
    <g id="game-icon-v7-magic-pixarts-store_194">
      <path class="cls-1" d="M23.27,27.92c5.29.92,10.21-1.18,13.12-5.87l-.04,2.88c2.98-3.19,2.88-7.14,2.81-11.33,2.17,5.92.43,12.36-4.26,16.6-3.86,3.49-9.07,4.72-14.05,3.19l2.41-5.47ZM35.01,27.51l-.88.8c-.11.1-.48-.18-.41-.32l.41-.78c.14-.28-.79-.41-1.06-.25-.25.15-.82.58-.66.82l.71,1.07c.24.35,1.16.39,1.48.12.45-.38.72-1.34.41-1.46ZM29.61,32.26c.67-1.05.72-1.31.9-1.26l1.26.39-1.04-2.76c-.08-.21-1.08.19-.97.38l.56.99-2.17-1.32c.47,1.64.85,2.62,1.46,3.57Z"/>
      <path class="cls-1" d="M19.42,27.29c-3.07,2.62-2.34,3.2-9.36,4.46l4.66-2.69c.48-.28.92-1.34.74-1.84-1.07.93-1.9,1.79-3.28,2.45l5.22-7.62c.97-1.42,2.75-2.41,4.49-2.66,5.95-.82,7.91,1.48,11.65-2.02.21-.2.83-.42,1.01-.5.25-.12.56.97.34,1.21-.82.92-2.47,2.23-3.63,3.06l1.27.13c-1.54,3.44-4.13-.57-10.59,1.81-.42.15-1.11.92-1.23,1.16,1.21-.47,2.07-.81,3.31-.89l-4.6,3.93Z"/>
      <path class="cls-1" d="M15.55,9.12c-4.09,6.42.13,10.82-1.42,12.17l-3.92,3.4c-2.78-4.87-2.69-10.23.15-15.07,2.33-3.97,6.8-7.32,12.18-7.36-4.14,1.43-7.95,3.55-9.55,8.03l2.55-1.17ZM12.49,14.56c.18-.15.44-.72.49-.95s-.83-.47-.94-.26l-.48.9-1.11-2.23-1,2.15c.91.59,1.2.8,1.91,1.34l1.13-.95ZM9.78,20.6l2.88-.11c.26-.01.94-.74.69-.79l-1.75-.32,1.28-1.95-3.54.39c-.02.48-.1.86.06.84l.88-.1,1.01-.12c.12-.01.12.29.17.51l-1.67,1.65Z"/>
      <path class="cls-1" d="M21.51,18.8l.14-1.44c-.73,1.13-1.44,1.96-2.74,2.47.79-4.81,3.15-5.72,1.23-9.66v4.02s-.99-3.39-.99-3.39c-.45-1.52.07-3.23,1.42-4.07l.54,3.25c1.46-1.2,2.52-2.54,3.12-4.23.99-2.75,3.57-4.17,6.53-3.67,2.81.47,4.94-.24,7.5-2.07-.52,3.38-3.39,3.16-6.24,3.45l3.02.36c-1.5.82-3.09.95-4.35.42l1.2-.66c-3.59-.52-5.97,5.1-7.83,7.45.11-1.2.39-2.29.84-3.75-1.53,2.26-1.88,4.55-1.28,7.26l.85,3.85-2.98.41Z"/>
      <path class="cls-1" d="M3.3,38.33c.64-1.77,1.4-2.9,2.45-4.48,2.01-1.13,8.37-2.6,10.56-2.71l2.1-1.59c-.23,1.9-1.58,3.13-3.26,3.67l-5.77,1.85c-.82.26-1.62.49-2.41.65-1.09.83-2.01,1.58-3.67,2.61Z"/>
      <path class="cls-1" d="M1.33,44.36l-1.16.21,1.31-1.94-1.06.38c-.25.09-.57-.84-.33-1.07,2.83-2.75,7.64-6.64,11.88-6.81l-4.68,3.19.55.6c.09.1-2.15,2.82-3.1,4.5-.74,1.32-2.2,1.55-3.4.94Z"/>
      <path class="cls-1" d="M33,13.01l-4.2,1.57,1.48-4.48,1.63-.53c-1.28-.18-1.71-.08-2.84-.71l5.86-2.16-.02.88c0,.09-.12.34-.02.3l.98-.37c-.35,1.97-.8,3.9-1.37,6.08-1.36-.53-.75-1.33-1.01-2.7l-.49,2.13Z"/>
      <path class="cls-1" d="M29.51,11l-1.89,4.5c-.06.13-.41.49-.5.55s-.14,0-.17-.11c-.03-.11-.11-.75-.07-.9l1.65-5.64c.73-.02,1.24.94.96,1.6Z"/>
      <path class="cls-1" d="M34.02,14.21c-2.01,1.01-3.96,1.82-6.34,2.25-.36-.27,6.11-4.2,6.34-2.25Z"/>
    </g>
  </g>
</svg>