<?xml version="1.0" encoding="UTF-8"?>
<svg id="Warstwa_2" data-name="Warstwa 2" xmlns="http://www.w3.org/2000/svg" viewBox="0 0 50.95 56.06">
  <defs>
    <style>
      .cls-1 {
        fill: #fff;
      }
    </style>
  </defs>
  <g id="Warstwa_1-2" data-name="Warstwa 1">
    <g id="game-icon-v5-divine-pixarts-store_179">
      <path class="cls-1" d="M7.68,24.31c-3.02.06-5.21-1.66-7.37-3.62,1.32,5.35,6.23,8.5,11.29,7.91-1.12-.98-1.93-1.78-2.55-2.74l1.34-.14c-1.68-1.53-2.32-3.26-2.59-5.45l1.21.83c-.67-2.13-.86-3.97-.68-6.26l1.12,1.66c.16-1.65.22-2.87,1.12-3.94-.79,2.99.21,5.11,1.97,7.71-1.1-.44-1.99-1.11-3.19-2.01.12,2.43,1.92,3.92,3.83,5.47-1.35-.3-2.49-.66-3.77-1.1.93,2.54,3.07,3.19,5.37,4.07l-3.13.48c1.3,1.27,2.72,1.47,4.56,1.63l-1.24.93,3.76.51c-1.9.9-3.69.7-5.55.12l.6-.95-3.44.28c-1.94.16-3.72.09-5.66-.37,2.48,2.67,6.1,3.48,9.72,2.71-1.3,1.29-2.93,1.59-4.99,1.84,2.7.95,5.35.74,7.95-.96-.24.93-.86,1.72-1.62,2.58,1.27.12,3.15-.68,3.73-2.06.15-.35.14-1.17.19-1.73l1.25,1.39-.22-2.88c.66,1.02,1.33,2.21,1.73,3.41.87,2.67-.84,4.62-3.23,5.56l1.91.05c-1.25,1.92-3.4,2.64-5.52,1.47.39,1.66,2.02,2.2,3.55,1.7,1.32-.43,2.46-1.52,3.4-2.37-.78,3.2-7.32,7.57-9.71,5.23-.62-.61-.84-1.54-1.25-2.67l-1.07,3.17c-1.42-3.12,1.68-4.99-.07-8.45-.52-1.03-1.87-1.83-3.2-2.3l-.66-.23c-.08-.03-.07.27-.03.35.52,1.02,2.74,1.69,2.27,4.44-4.89-3.37-4.2-2.42-4.68-8.33-.74,2.06-.83,3.6-1.02,5.62l-1.02-1.86c-.53,1.52-.16,3.29,1.05,4.51l3.03,3.04-.75-2.44c1.59.22,2.4,1.6,2.35,3.08-.13,3.4,2.35,6,5.77,6.02.51,0,1.44.13,1.86.22.42,1.24.99,2.15,1.88,2.92-.23-1.78-.32-3.37,1.04-4.64-.14,2.59.8,4.74,3.15,6-3.19-5.99.92-8.39,2.97-13.14-.2,3.56-3.32,6.27-2.38,9.98,1.47-5.25,4.86-5.03,4.24-11.35,4.4,8.95-5.12,11.7-.74,16.83,1.01-5.29,4.47-4.11,3.33-10.89,1.71,2.33,2.63,4.97.79,8.38,2.81-2.12,3.64-6.07,1.6-9.21l-1.67-2.57c2.72,1.18,4.11,3.43,4.33,6.47,1.56-5.11-1.24-6.4-4.18-8.76l1.99.33c-1.44-1.19-2.34-2.12-2.93-3.58l-.62,1.56c-1.07-2.51,1.31-6.12,2.2-7.92l-.16,3.01,1.44-1.39c-.11.96-.3,2.04.1,2.5.99,1.15,2.35,1.66,3.54,1.62-.71-.87-1.23-1.52-1.65-2.57,2.5,1.49,5.22,1.93,7.8.82-2.04-.28-3.49-.54-4.7-1.75,3.7.61,7.13-.01,9.65-2.8-4.52,1.06-5.36.02-9.44.25l.83.73c-1.94.69-3.72.71-5.53-.05l3.47-.52-1.12-.94c1.69-.24,3.51-.23,4.7-1.61l-3.08-.49c2.21-.81,4.32-1.53,5.25-3.85l-3.34.93c1.68-1.77,3.41-3.01,3.57-5.55-.97.79-1.81,1.42-3.02,1.95,1.51-2.7,2.53-5,1.61-7.77,1.31,1.31,1.02,2.75,1.07,4.48l1.26-1.68c.39,2.09-.04,4.05-.75,5.95l1.28-.73c-.23,2.02-1.04,3.9-2.52,5.33l1.35.36-2.64,2.55c5.22.55,9.94-2.64,11.19-7.86-1.96,1.88-4.14,3.4-6.78,3.37l3-2.23c3.2-2.38,4.53-6.37,3.69-10-.97,3.52-3.22,5.81-6.18,7.42.58-.86,1.11-1.6,1.76-2.42,2.96-3.75,3.14-9.09.11-12.77.86,3.47.36,7.18-2.29,9.44,2.02-5.75.04-11.75-5.9-13.61,3.97,3.42,4.17,8.81,1.54,13.51l-1.84,3.29c.02-1.7.05-2.83-.19-4.13-1.02,5.04-5.47,4.33-3.89,9.85.47,1.65-1.13,2.94-2.56,3.02-1.48.08-2.82-.93-2.93-2.65l1.08.71-1.23-3.73,1.03-.04-1.37-2.19c2.12-.81,3.04-2.18,2.8-3.99-.39,1.13-1.19,1.9-2.15,2.1.31-.85.49-1.54.39-2.43-.59,1.63-1.87,2.64-3.69,2.66-1.65.01-2.17,1.04-3.11,2.03-.67.71-2.3,1.01-1.56,2.5.8-.62,2.7-1.03,3.23.04.69,1.39-.44,2.98-1.5,3.62l.84.4c-.71.88-2.34,1.27-3.62.91-.92-.26-2.31-1.6-1.89-2.87,1.82-5.47-2.94-4.67-3.8-9.93-.3,1.38-.22,2.49-.17,4-.85-.89-1.22-2.15-1.85-3.18C8.74,9.08,8.81,3.5,13.11,0,7.53,1.46,5.09,7.52,7.14,13.46c-2.74-2.18-2.87-5.43-2.57-8.8-2.69,3.36-2.52,8.2-.07,11.61l2.23,3.12c-2.62-1.15-5.48-4.35-6.16-7.49-1.46,5.95,2.5,9.83,7.12,12.42Z"/>
      <path class="cls-1" d="M48.75,34.69l-.86,2.15-.78-5.39c-1.52.86,1.29,4.31-2.97,6.79-.67.39-1.3.81-1.94,1.24-.43-1.76.67-2.99,2.23-4.31-1.57-.11-3.08.93-3.76,2.01-2.12,3.31,1.75,6.13-.59,8.89.19-1.46.06-2.61-.5-3.76l-.69,1.49c-1.61-1.24-1.68-3.09-.9-4.78-1.36.52-2.01,1.96-1.9,3.33l.3,3.72.63-1.47c1.59,2.76-2.08,4.36-3.56,7.19l5.71-2.56c6.82-3.06,1.63-7.98,6.62-9.13l-.62,1.97c2.78-2.13,4.72-3.9,3.59-7.35Z"/>
      <path class="cls-1" d="M12.34,11.79l1.68-2.16c.74-.95,1.22-2.1.61-3.32-1.06,2.54-3.3,2.66-2.29,5.48Z"/>
      <path class="cls-1" d="M37.76,8.57l-1.36-2.21c-1.04,2.78.8,2.91,2.18,5.35.45-.97.38-2.43-.82-3.14Z"/>
      <path class="cls-1" d="M1.98,30.93c.89-2.49-.67-1.97-1.54-5.08-.31.58-.68,2.19-.24,2.76l1.78,2.32Z"/>
      <path class="cls-1" d="M50.6,26.12l-1.39,2.6c-.41.54-.42,1.47-.17,2.07l1.82-2.11c.2-.77.07-1.87-.26-2.55Z"/>
    </g>
  </g>
</svg>