<?xml version="1.0" encoding="UTF-8"?>
<svg id="Warstwa_2" data-name="Warstwa 2" xmlns="http://www.w3.org/2000/svg" viewBox="0 0 51.83 54.08">
  <defs>
    <style>
      .cls-1 {
        fill: #fff;
      }
    </style>
  </defs>
  <g id="Warstwa_1-2" data-name="Warstwa 1">
    <g id="game-icon-v5-divine-pixarts-store_82">
      <path class="cls-1" d="M43.17,30.86c-2.91,2.47-6.11,3.55-9.93,3.89-3.55.31-7.33.38-10.38-1.6.07-4.96,6.13-4.19,8.38-9.23.18-.4-.01-1.66-.38-1.89-1.4-.88-6.97,3.69-11.1,5.37-9.06,3.69-7,5.08-13.34,12.6,1.32,2.91,4.06,5.52,7.19,6.63,1.64-1.47,3.66-3.15,6.13-3.32l10.57-.71c1.73-.12,3.49-1.52,4.94-2.56l-4.69.24c13.58-4.04,9.05-2.25,19.59-11.05-1.14-2.94-5.77.6-6.98,1.63Z"/>
      <path class="cls-1" d="M49.59,6.6c.39-2.06-.45-4.19-1.87-5.29-1.66-1.29-3.74-1.39-5.55-.16,2.22-.27,3.78.3,4.52,2.17,2.06,5.26-6.82,7.79-10.7,8.72-2.57.62-5.13,1.12-7.5,2.16-3.73,1.64-7.01,4.58-7.76,8.55,6.81-9.66,13.06-6.49,22.61-9.51,2.9-1.56,5.64-3.35,6.25-6.65Z"/>
      <path class="cls-1" d="M15.68,50.23c1.3.22,2.86-.49,3.54-1.36.67-.85,1.12-2.36.37-3.04-.24.97-.47,2.31-.99,2.75-2.56,2.16-13.21-2.43-15.02-12.37-.19-1.06.39-2.67,1.13-3.08.74-.41,1.8-.38,3.26-.39-1.33-.74-3.35-1.04-4.63-.09-4.67,3.47,1.52,15.77,12.34,17.58Z"/>
      <path class="cls-1" d="M21.69,51.17c.87-1.41.83-3.23.33-4.46-.02,2.72-.88,4.3-3.22,4.84-4.27.98-8.41-.52-12.1-2.75-2.65-1.6-4.39-3.79-4.56-7.09-1.75,1.69-1.06,4.01.37,5.68,4.8,5.63,16.22,8.56,19.18,3.78Z"/>
      <path class="cls-1" d="M44.9,22.97c-1.08-.9-2.91-.33-3.46.79l-2.26,4.56c-.83,1.68-2.52,3.17-3.79,4.74,6.8-.23,6.53-4.16,9.51-10.09Z"/>
      <path class="cls-1" d="M26.25,12.99c1.72-.62,3.18-1.07,4.44-2.13-2.27.57-4.15,1.06-6.2,1.72-5.4,1.74-8.7,7.38-6.57,12.86-.16-5.44,2.89-10.47,8.33-12.45Z"/>
      <path class="cls-1" d="M37.45,24.96c-2.83.26-3.01,5.13-4.9,8.52,3.97-1.43,5.03-5.05,4.9-8.52Z"/>
      <path class="cls-1" d="M48.75,13.68c-1.09,3.48-.43,3.17-3.98,4.44.81.18,2.37.26,2.81.85.45.6.8,1.69,1.19,2.65.39-2.04,1.15-3.21,3.05-3.68-2.22-.64-2.73-2.3-3.08-4.27Z"/>
      <path class="cls-1" d="M8.25,53.78c-3.36-2.09-5.85-3.6-7.83-6.7-2.35,2.22,5.74,8.45,7.83,6.7Z"/>
      <path class="cls-1" d="M34.19,4.36l1.05,2.14c.29-.68.68-1.82,1.13-2.26.45-.44,1.87-.54,2.54-.72-1.08-.38-2.21-.64-2.72-1.07-.44-.38-.66-1.78-.8-2.46-1.44,3.04-.35,2.44-3.55,3.53.68.22,2.11.33,2.36.83Z"/>
      <path class="cls-1" d="M25.51,5.42l-2.43,1.05c.87.22,2.39.34,2.63.97l.93,2.47c.22-.82.39-2.25.91-2.66.46-.36,1.51-.63,2.25-.88-2.23-.36-2.98-1.66-3.16-3.54-.45.89-.56,2.34-1.13,2.58Z"/>
      <path class="cls-1" d="M10.52,27.23l.63,1.82c.43-1.74,1.1-2.37,2.32-2.84-.55-.25-1.63-.5-1.76-.97l-.52-1.93c-.88,2.59.11,1.88-2.65,3.16.52.1,1.82.3,1.98.77Z"/>
      <path class="cls-1" d="M25.1,20.38c1.49-.62,2.86-1.32,4.44-1.59l6.14-1.05c-1.39-.82-9.77.28-10.58,2.63Z"/>
      <polygon class="cls-1" points="41.07 19.48 39.51 17.59 38.22 19.56 39.49 21.42 41.07 19.48"/>
      <path class="cls-1" d="M15.92,16.71l-1.54-1.82c-.56.74-1.48,1.63-1.98,1.96l2.02,1.27,1.51-1.42Z"/>
      <path class="cls-1" d="M28.74,47.69l1.74,1.76c.07-.22.27-1.14.56-1.26l1.1-.44c-1-.59-1.66-1.49-1.71-2.2l-1.69,2.14Z"/>
    </g>
  </g>
</svg>