<?xml version="1.0" encoding="UTF-8"?>
<svg id="Warstwa_2" data-name="Warstwa 2" xmlns="http://www.w3.org/2000/svg" viewBox="0 0 53.22 49.08">
  <defs>
    <style>
      .cls-1 {
        fill: #fff;
      }
    </style>
  </defs>
  <g id="Warstwa_1-2" data-name="Warstwa 1">
    <g id="icon-set-v2-combat-action-pixarts-store_48">
      <path class="cls-1" d="M38.37,37.69c.25.24,1.05.69.84.88l-1.33,1.27-1.85-3.76-1.95,5.61c-1.96-1.76-2.47-3-3.7-4.94l-.08,3.91-2.87-1.07c.61-1.05.69-1.77.3-2.62-.25-.55-1.27-1.13-1.99-1.3l-5.17-1.2,3.01,3.3-5.89.84c2.12.98,3.45,1.49,5.3,2.78l-8.81,5.66,11.93-3.14-1.35,3.97,4.97-3.11c.71-.45,2.32-.24,2.79.51l2.41,3.81c.45-1.55.84-2.94,1.53-4.22.36-.66,2.23-.89,2.95-.65l9.05,3.01-4.9-4.63c-.24-.23-.31-1.18-.1-1.38.16-.15.73-.6,1.04-.67l8.7-1.89-8.79-1.58c-.14-.74.24-1.77.71-2.27l3.43-3.61-7.61,2.96,1.22-5.53c-2.05,2.71-3.35,5.73-3.8,9.06Z"/>
      <path class="cls-1" d="M20.3,5.47c-.29-.03-.94-.27-1.32-.44C13.81,2.66,8.22,1.05,2.44.87c5.05,1.58,10.76,3.6,14.85,7,.28.24-.25,1.31-.58,1.31-1.45,0-5.37-2.89-8.38-2.93l6.82,4.28c-.98,1.16-1.98,2.98-.92,4.07l14.57,14.9c1.01,1.03,2.7,2.89,4.53,1.5,2.34-1.77,4.57-4.18,6.76-6.44.86-.88,1.44-2.07,1.38-3.18-.05-.94-.69-1.95-1.47-2.74l-13.22-13.48c-1.01-1.03-1.85-1.54-3.23-2C19.93,1.93,16.59.22,12.61,0c3.03,1.34,5.89,2.56,8.71,4.22-.29.57-.66,1.28-1.03,1.25Z"/>
      <path class="cls-1" d="M5.16,44.51l16.28-17.27c.38-.4,1.94-1.13,1.57-1.5l-4.12-4.14C12.87,27.92,6.73,33.53.3,39.44c-1.55,1.43,3.27,6.08,4.86,5.07Z"/>
      <path class="cls-1" d="M37.17,11c-.92-1.35-3.48-4.68-5.06-2.37l4.22,4.41c.7-.37,1.23-1.46.84-2.04Z"/>
      <path class="cls-1" d="M51.32,25.88l-2.11-1.7c-1.47,1.19-2.49,2.38-3.35,4.02,2.27.13,3.77-.69,5.47-2.32Z"/>
    </g>
  </g>
</svg>