<?xml version="1.0" encoding="UTF-8"?>
<svg id="Warstwa_2" data-name="Warstwa 2" xmlns="http://www.w3.org/2000/svg" viewBox="0 0 34.37 49.67">
  <defs>
    <style>
      .cls-1 {
        fill: #fff;
      }
    </style>
  </defs>
  <g id="Warstwa_1-2" data-name="Warstwa 1">
    <g id="icon-v10-loot-pixarts-store_128">
      <path class="cls-1" d="M30.12,13.48c-.38-1.3-.49-2.78-.4-3.98l-4.61,1.71-.36-1.35,1.58-2.19-1.71.6,1.76-3.14-3.8,2.43c-.49.31-1.43-.75-1.28-1.27l.82-2.77,2.3-2.61L17.48,0c-.56-.07-1.17.69-1.79,1.51l-.96-1.39-4.71.86c1.49,1.73,2.55,3.45,3.09,5.31l-1.11,1.08-4.71-2.77,3.21,4.14-2.45-.94,1.61,2.06c.22.28-.43,1.22-.8,1.22-1.75,0-1.23-1.59-4.08-.28l.14-1.11L.78,6.41C.16,9.52-.24,12.55.16,15.61l2.62-1.89c-1.6,3.91-3.09,1.72-1.87,7.98,1.13-1.2,8.22-5.13,8.5-3.64.05.27-.07.88-.26,1.14l-1.89,2.52,2.46-1.33-2.11,3.34,3.52-2.38-.15,1.8.97-1.2c1.38,3.03,2.81,2.67,2.15,5.25-.64-1.15-.96-1.63-1.9-2.39-.69,1.17-.64,2.28-.82,3.58l-2.02,14.67,3.36-.77c1.54-5.48.57-5.73,5.83-8.7l.3-2.98c1-1.88,1.1-3.47.6-5.79,3.07,4.29.17,3.97.64,7.32,4.5-3.32,2.17-6.09,1.76-11.16l1.3,1.01-.02-1.08,3.42,2.62-2.1-3.15,2.54,1.12-1.94-2.4c-.17-.21-.36-.72-.37-.96-.02-.24.7-.6.92-.52l3.96,1.45c1.54.56,2.65,1.75,3.79,2.95.99-6.43,1.63-9.23.24-15.73-3.13,1.88-2.65,4.05-3.44,7.19ZM20.53,16.54c-.22,1.5-1.46,2.87-3.18,3.13-2.04.3-4.02-.52-4.96-2.09-1.05-1.76-1.59-4.23-.06-5.8-.49,2.09-.14,3.75,1.41,5.08,1.24,1.06,3.1,1.36,4.31-.05.31-.37.59-1.36.41-1.77-.19-.43-.91-.89-1.77-1.45-.36-.07.83-.86,1.32-.75,1.55.34,2.77,2.11,2.53,3.72ZM22.68,16.11c-.49-2.9-2.52-5.33-5.41-4.45-.88.27-1.61,1.2-1.72,1.81-.17,1.01.36,1.69,1.37,2.46-.21.43-1.45.55-2.03.07-.9-.74-1.45-2.08-1.3-3.1.15-1,.99-2.22,1.91-2.8,1.93-1.22,4.09-.7,5.61.57,1.6,1.34,2.18,3.44,1.56,5.44Z"/>
      <path class="cls-1" d="M22.58,42.69l2.28.98-1.61-11.53-3.4,2.62c-.14,1.67-.84,3.06-1.81,4.25l.86-3.62c-1.68.45-3.04,1.03-4.23,2.1l-.37,3.94c-.47,5.08-7.39,2.79-5.01,7.51l7.47.72c.58.06,1.7-1.19,1.98-1.42.71,1.68,4.5.64,6.42.57,1.2-4.85-2.41-2.91-2.59-6.12Z"/>
    </g>
  </g>
</svg>