<?xml version="1.0" encoding="UTF-8"?>
<svg id="Warstwa_2" data-name="Warstwa 2" xmlns="http://www.w3.org/2000/svg" viewBox="0 0 53.34 56.86">
  <g id="icon-v9-equipment-pixarts-store">
    <g id="icon-v9-equipment-pixarts-store_41">
      <path d="M46.91,44.06l-1.53-2.27c-4.46-1.4-5.4,5.59-10.5,3.06.8-.1,1.05-.75,1.29-1.58l.49-1.7c.11-.37-.55-.88-1.02-1.17-.76,1.16-1.34,2.39-1.73,3.5-1.23.07-2.61.03-3.31-.65.92-.17,2.59-.03,2.96-.66l2.07-3.59c.73-1.27,1.5-2,1.77-3.9l-3.57,2.15c-.61.37-1.2,1.3-1.7,2.05l-.43-3.23.85.63.96-5.94c.17-1.08-.1-2.23-.32-3.48l.61.62c.12.12.5-.2.55-.37l.33-1.02c1.11.96-.28,1.7-.43,2.55l-1.42,8.13,4.37-2.64-.04-4.21c0-.66-.73-1.78-1.07-2.41l-1.67-3.07c-2.09,2.32-3.8,4.55-5.09,7.36-.26.58-1.63,4.93-.09,5.97,1.31.89.96,2.03,1,3.32.07,2.41-.62,4.68-3.14,5.2.57-.75,1.65-1.45,1.73-1.97l.61-4.02c-1.01.5-2.14,1.09-2.74,1.55-.86,1.39.52,3.57-.95,4.11l.25-4.06-3.07-1.96.81,4.89c.83.64,1.84,1.17,2.47,2.14l-3.07-1.61-1.16-5.63c-.32-1.27,3.73-3.94,4.79-4.41l-1.32-9.82-.61-.37c-.15-.09.3-1.08.17-1.25-1.21-1.54-3.45-4.23-4.88-5.85-.35,4.02,1.75,6.94,1.21,10.71l-2.09-11.52-2.68,9.09,4.63,2.68,2.46-2.11-1.54,2.72.95,7.51-1.86-7.49-4.44-2.56c.61,2.52,1.07,4.64,1.96,6.82l2.28,5.58c-.65,1.18-1.08,2.36-1.5,3.46l1.06.88c-.62.1-.92.14-1.15.19-.23.05-.41.59-.51.77l-.59-1.08c-.73-.11-2.32.9-1.93,1.86.3.73,1.9,1.3,2.65,1.51-.79.45-2.56.2-3-.61-.26-.47-.04-1.75.04-2.41-.51-.82-1.99-1.55-2.55-2.27l-5.05-6.44c-.69-.89-1.83-1.09-2.71-.7l-1.59.69,1.55,2.64c.82-1.21.52-2.32,2.04-2.53l-1.75,2.46,4,1.51-5.32.96c-.89.26-1.6,2.4-1.91,3.27l3.46,1.12.74-1.83-2.4.07,1.43-.46c.22-.07.11-.41.12-.81.95.5,1.95.55,3.12.42.73.02.84.04.07.05l-1.84.82c-.39.17-.41,1.25-.33,1.9l2.98-1.08c.61-.22,2.06.18,2.74.5l-.86,2.56c3.36.42,1.78,3.12,4.49,3.09.57,0,1.19-.76,2.15-1.35l-2.05,2.76c1.54,0,3.21-.31,4.03-2.31l-.41,2.2,1.71,2.47c1.19-1.67,1.27-3.69.29-5.8,1.13-.07.37,3.76,2.91,3.1l1.29-2.08-.33,2.86,3.54,2.39c.59-1.06,1.09-2.09,1.4-2.89-.22-.25-1.43-.87-1.53-.55l-.4,1.37-.7-1.34c-.14-.27-.92.37-1.37.53l1.36-1.86c.36.41,1.01.94,1.41.97.55.04.93-.56,1.02-1.25l1.53,1.09.56-1.95c.29.77.66,1.45,1.08,1.66l1.46-1.65c.07.25-.39,1.48-.78,1.61l-1.66.58,3.07,2.1c.87-1.06,1.45-2.48,1.52-3.65l-2.5-2.02c1.49.22,2.33.65,3.39,1.11.75.33,2.49-.55,2.94-1.39.23-.43.09-1.56,0-2.03l2.03.98.41-1.61.57,1.95,2.59-1.17-3.38-1.71,3.26.54Z"/>
      <path d="M31.96,23.75l-.42-1.08-1.59,2.84c-.58,1.04-.67,2.41-.25,3.42l3.33-3.98c.39-.46,1.84-.71,2.17-.26l2.26,3.04c1.43-1.7,3.16-2.61,5.25-2.75l7.09-12.92-5.9,1.41c-4.13,4.2-4.18,7.52-6.85,12.08.2-3.58,5.3-11.14,4.22-13.82-.71-1.76-1.56-3.35-2.37-5l-6.95,17.01Z"/>
      <path d="M11.23,18.52c-1.12-2.63-3.78-4.02-6.47-4.2l2.89,5.76,5.38,11.21,4.03,1.24c-1.04-3.04-1.87-4.99-3.02-7.41l-2.82-6.6Z"/>
      <path d="M28.79,0c-.61,2.09-.95,8.5-.69,10.35l.46,3.3c2.07-1.32,3.07-2.3,5.03-2.65-1.8,1.22-3.6,2.34-5.18,3.74l-.3,3.37-.78,10.36c-.15,1.98-.12,3.61.25,5.6l1.2-3.84c.28-.9-.14-2.67,0-3.67.38-2.83,2.63-4.73,3.77-7.23,1.2-2.63,1.91-8.28.29-11.44L28.79,0Z"/>
      <path d="M25.43,11.03l1.81-2.6c.81-1.16.57-3.35.65-4.72l.21-3.62-6.11,9.82,3.44,1.12Z"/>
      <path d="M22.07,18.96l3.56,4.6c.84,1.08.7,2.58,1.09,4.11l.53-6.4.36-4.51c.08-.94-.03-2.07-.22-2.9.16-.12.53-.91.48-1.28l-.5-3.33-1.88,2.28-3.52-.92c-.13,2.77-.34,5.49.11,8.35Z"/>
      <path d="M12.44,8.64l-6.5-4.59c.92,2.72,2.79,8.25,5.2,8.77.69-1.32,1.15-2.21,2.02-3.32l-1.83,4.87c.22,2.21.57,4.38,1.52,6.55l2.54,5.79,1.81-6.06-3.13-9.21c-.3-.88-.9-2.28-1.63-2.8Z"/>
      <path d="M15.86,43.12c.64.65,2.96.21,3.42-.51.45-.69.89-2.47.63-3.22-1.7-4.73-2.5-6.51-7.46-6.79l2.76,2.31-3.18-1.59.58,3.87c.55.31,2.34.25,2.6-.33l1.41-3.08-.65,2.96,1.38,2.91-1.73-2.08c-1.06.18-2.46.26-3.41.14l-.65-5.61c-.52,1.62-.78,3.53-.55,4.94,1.45,2.19,3.13,4.31,4.87,6.06Z"/>
      <path d="M41.79,11.26c.29.6.14,2.08.19,2.89,1.38-.6,2.42-2.03,1.4-3.62L48.35.32l-9.01,5.88,2.46,5.07Z"/>
      <path d="M49.97,11.48l-.95-10.74c-1.75,2.81-5.1,9.18-4.9,12.14l5.84-1.39Z"/>
      <polygon points="10.27 32.57 5.41 27.13 1.29 28.24 9.79 35.98 10.27 32.57"/>
      <path d="M42.03,34.43c1.17-1.32,1.09-2.44.81-4.15l-.72-4.38c-.49-.39-1.85.25-2.04.94-.14.53.45,1.28.91,1.88.07.36.02.82.25.88l1.03.27c-.98.23-1.73.6-2.13,1.51l-2.96,6.7c2.22-.72,3.5-2.13,4.86-3.66Z"/>
      <path d="M4.39,13.63l3.89.88c.25-1.95.05-3.59-.74-5.22l-2.32-4.86-.83,9.21Z"/>
      <path d="M47.68,32.95l-.87,2.29-.04-1.94-6.19,3.47.7,1.92,4.79-2.3c.63-.17,2.21.99,2.33,1.23-.83-.2-2.18-.67-2.79-.38l-4.44,2.09.65,1.88c6.66-2.63,7.07-.79,10.73-6.77l-1.81.12,2.21-.89-5.26-.73Z"/>
      <path d="M5.7,26.65l-.71-4.12-3.82-.75c-.25-.05-1.09.47-1.16.49l1.04,5.24c1.32-.15,2.69-.42,3.94-.93-.71-.77.36-.05.72.06Z"/>
      <path d="M5.67,22.7c-.4,4.9,1.88,5.64,4.61,9l1.93-.64c-1.64-3.23-3.87-5.85-6.53-8.36Z"/>
      <path d="M46.82,21.6c-3.03,2.83-4.46,5.34-3.25,9.32.3,1,.37,1.53.25,2.69,2.61-1.37,4.85-3.08,7.07-5.37-1.28-.4-2.91-.78-3.95-.53-.57.14-1.34,1.26-1.8,1.59l1.32-2.33c.83-1.48.52-3.48.37-5.38Z"/>
      <path d="M18.91,16.89c.24-.23,1.02.19,1.55.29l.2-3.84-2.47-2.29c-1.9,2.53-1.71,5.43-.32,7.7.49-.97.77-1.59,1.04-1.86Z"/>
      <path d="M36.57,43.72l-.29.98c-.3.99,3.78-.82,4.37-2.64l-.75-4.23c-1.1.67-2.36,1.52-3.39,2.34.34.6.96,1.36,1.33,1.72-.45.15-1.03,1.01-1.28,1.82Z"/>
      <path d="M47.39,21.31l.19,4.19,4.98-5.07-5.12,6.38,4.18.96,1.72-7.25c-2.3-1.17-2.89.02-5.95.79Z"/>
      <path d="M39.35,27.92c-.37.13-1.28.77-1.27,1.21l.13,5.19,2.3-4.96c.2-.44-.73-1.58-1.16-1.43Z"/>
      <polygon points="26.19 41.77 25.97 37.03 22.98 39.65 26.19 41.77"/>
      <polygon points="26.51 41.58 29.59 39.78 26.61 36.99 26.51 41.58"/>
      <path d="M17.95,55.87l1.33-4.05c-1.01.22-2.18.58-2.96,1.01l.9,2.99c.34.08.66.07.65.22l-.07.83,3.85-2.26-1.71-2.32-2,3.6Z"/>
      <path d="M10.86,16.65l.14-3.2-2.11-1.55c.07,2.77-.46,3.33,1.98,4.75Z"/>
      <path d="M38.61,49.85c.52.61,2.42,1.24,2.93.67.78-.88,1.02-2.3.9-3.28l-3.83,2.61Z"/>
      <path d="M9.43,47.64c.01.34,1.36.73,1.51.41.28-.59.85-2.1,1.12-2.78-1.49-1-2.67,1.37-2.63,2.37Z"/>
    </g>
  </g>
</svg>