<?xml version="1.0" encoding="UTF-8"?>
<svg id="Warstwa_2" data-name="Warstwa 2" xmlns="http://www.w3.org/2000/svg" viewBox="0 0 40.82 55.89">
  <g id="icon-v9-equipment-pixarts-store">
    <g id="icon-v9-equipment-pixarts-store_216">
      <path d="M13.38,40.76c.02,3.13,1.45,5.99,4.15,7.54,2.02,1.17,3.76,1.17,5.78-.16,2.49-1.64,3.9-4.63,3.81-7.7-.08-2.76-1.65-5.47-4.24-7.18,2.16-2.17,2.17-5.41.16-7.54.58-.97.95-1.88.71-2.63-.22-.67-1.03-1.46-1.69-1.63.29.84.75,3.04-.27,3.1l-3.38.19c-.63-.88-.34-2.16-.01-3.38-.58.25-1.46,1.03-1.69,1.62-.3.79.25,1.91.72,2.74-1.78,2.15-1.98,5.44.31,7.51-2.68,1.88-4.37,4.52-4.35,7.53ZM20.21,47.38l-.8-2.58,1.81-.45-1.01,3.03ZM16.21,36.84c.23-1.07,1.47,1.25,2.47,1.16.74-1.1,1.17-2.33,1.58-3.7.43,1.28.86,2.57,1.57,3.65l2.51-1.24c-.51,1.17-1.1,1.65-1.91,2.48l2.22,1.72c-.58,1.24-1.2,2.19-2.27,2.95l1.12-2.1c.19-.36-.67-1.25-.92-1.08-.39.91-1.1,2.86-2.09,2.99-1.67.22-1.99-1.97-2.67-2.97l-.63.3c-.22.1-.01.79.1,1.02l.99,2.19-2.67-3.14,2.65-2.01-1.86-1.47c-.13-.1-.22-.59-.19-.75Z"/>
      <path d="M37,7.17c-1.24-.37-2.59-.91-3.62-1.53-.06-1.95.59-3.37,1.23-5.26-1.79,1.13-1.72,3.03-2.13,5.02-2.99-.65-5.47-1.35-5.72-5.4-1.86,3.26-4.54,1.18-6.49,1.15-2.09-.03-4.72,2.02-6.66-1.04,0,3.92-3.11,4.63-5.54,5.41-.5-2.12-.42-4.06-2.31-5.19.66,2.08,1.48,3.59,1.26,5.48l-3.55,1.29C2.48,4.49,2.41,1.92,0,.34c1.29,2.54,2.01,5.03,3.09,7.53.88,2.05,4,3.34,4.01,6.24.66-2.62-1.24-4.11-2.81-6.08,3.25-1.86,3.98-1.14,6.3.89.25-1.71-1.29-1.42-2.34-2.5l2.55-.93c1.63-.59,2.72-1.57,3.56-3.25l2.56,3.71-.63,2.21-1.92.63,3.44,1.02c-2.09.78-3.89.87-5.46,2.24,2.45.38,4.67,1,4.49,3.46l-1.41,2.56c-1.4-1.28-2.4-2.63-4.11-2.57,1.35,1.24,2.69,2.04,3.47,3.42l-1.46,3.73c.97-.79,1.44-2.24,2.42-2.93,2.77-1.96,6.62-1.66,9.31.1.76,1.06,1.38,2.07,2.26,2.99l-1.61-3.94,3.45-3.41c-1.67.2-2.64,1.32-4.02,2.58-.44-.63-1.4-2.15-1.33-2.97.2-2.2,2.39-2.62,4.37-2.96-1.62-1.45-3.21-1.34-5.27-2.29l3.56-.85-2.01-.64c-1.54-2.47.07-3.8,1.71-5.98.94,1.55,1.81,2.56,3.32,3.11l2.57.95-2.29,1.77.76.71c.67-.83,1.66-2.06,2.72-1.91,1.12.16,2.24.59,3.12.93-1.6,1.9-3.67,3.57-3.02,6.29.44-2.93,2.86-4.26,4.18-6.23,1.37-2.04.98-5.22,3.3-7.28-1.62-1.33-3.53,5.75-3.83,6.49ZM22.1,14.2l-3.74.03,1.88-3.38,1.87,3.35ZM20.72,5.78l1.72.26-1.61,2.02-.11-2.28ZM15.7,2.65l4.14-.45c.04.63.03,1.84-.14,2.43-.14.51-1.95.55-2.3.12l-1.71-2.1ZM16.55,8.57l.97-1.88,1.52,2.5-2.48-.62ZM14.56,11.59l4.68-1.14-1.58,3.59c-1.11-.98-1.7-1.48-3.1-2.45ZM24.08,18.28c-2.73-.69-4.84-.64-7.66,0,.34-.95.87-2.23,1.68-2.86,1.04-.82,3.12-.86,4.23-.07.82.58,1.34,1.85,1.75,2.93ZM25.94,11.63l-3,2.44-1.83-3.59,4.83,1.15ZM23.87,8.74l-2.51.5,1.57-2.5.94,1.99ZM23.09,4.78c-.31.41-1.93.41-2.2-.03-.32-.53-.26-2.03-.12-2.46l3.85.49-1.54,2Z"/>
      <path d="M7.31,47.29c.49.33,1.79.01,1.85-.47l.77-5.62c.07-.48-.88-1.13-1.67-1.37l-.96,7.45Z"/>
      <path d="M30.59,41.49l.68,4.78c.05.33.44.93.65,1.16.21.22,1.33-.03,1.28-.38l-.9-7.02c-.81.01-1.81.78-1.71,1.46Z"/>
      <path d="M8.22,28.91l6.92,2.19c.19-.67.09-1.02-.18-1.47l-5.29-2.32c-.37-.16-1.17.14-1.41.38-.19.19-.28,1.15-.04,1.22Z"/>
      <path d="M8.49,34.97l6.97-2.17c.2-.29.44-.51.32-.6-.12-.09-.75-.35-.96-.31l-7.48,1.23c.35.77.69,1.33,1.15,1.86Z"/>
      <path d="M30.26,27.54l-4.43,2.03c-.45.33-.66,1.13-.2,1.47l7.06-2.24c-.16-.43-.49-1.08-.77-1.34-.28-.26-1.26-.09-1.65.09Z"/>
      <path d="M30.04,39.89c.55.09,1.57-.51,1.66-1.04l-3.85-3.45c-.94-.84-2.26-1.35-3.45-1.73l5.65,6.22Z"/>
      <path d="M24.85,32.7l6.98,2.24,1.24-1.76-6.94-1.31c-.25-.05-.97.09-1.13.17-.15.08-.13.31-.16.66Z"/>
      <path d="M8.69,39.02c.31.5,1.72,1.14,2.1.69l4.85-5.78c-3.17.88-4.8,3.11-6.95,5.09Z"/>
      <path d="M15.06,28.72c.34-.76.28-1.33-.02-1.69l-4.06-5.03-1.55,1.24,5.63,5.48Z"/>
      <path d="M36.13,23.15l-3.81,3.7,1.04,1.57,4.48-4.37c-.06-.4-1.38-1.23-1.72-.89Z"/>
      <path d="M8.86,22.41c.71-.27,1.68-.97,1.64-1.48l-.33-4.05c-.07-.87-.97-1.6-1.92-1.15l.61,6.69Z"/>
      <path d="M25.65,28.52c1.94-1.63,3.76-3.43,5.33-5.24.14-.45-1.27-1.27-1.56-.92l-3.96,4.82c-.21.25-.09,1.23.19,1.34Z"/>
      <path d="M30.47,16.15l-.51,4.82c-.05.52,1.15,1.25,1.75,1.25l.46-6.33c-.27-.4-1.66-.2-1.71.25Z"/>
      <path d="M37.97,37.6l-4.2-3.95c-.46.63-.83,1.21-1.02,1.67l4.04,3.63c.33.29,1.49-1.05,1.18-1.34Z"/>
      <path d="M2.88,24.19l4.21,4.11c.52-.54.95-1.2.91-1.62l-3.55-3.54c-.42-.42-1.78.55-1.58,1.05Z"/>
      <path d="M6.63,33.8l-4.2,3.84c-.23.34.94,1.49,1.26,1.21l3.72-3.22c.44-.38-.2-1.88-.77-1.82Z"/>
      <path d="M37.79,40.77l2.23,6.78c.7-3.06-.18-5.94-1.21-8.86-1.02.22-1.32,1.17-1.02,2.08Z"/>
      <path d="M1.16,14.49c-.62,2.97-.06,5.82,1.01,8.66.84-.36,1.48-.95,1.34-1.39l-2.34-7.27Z"/>
      <path d="M2.8,39.38c-.22-.2-.68-.46-1.07-.66-1.12,2.89-1.86,5.78-1.26,8.93l2.25-6.98c.1-.31.3-1.1.07-1.3Z"/>
      <path d="M32.92,48.55c-.43-.21-1.37-.49-1.58-.42l-2.69,7.38c2.15-1.71,3.25-4.28,4.27-6.96Z"/>
      <path d="M38.4,23.05c1.05-2.92,1.61-5.84.79-8.51-.59,2.61-1.22,4.86-2.1,7.26-.18.5.79,1.4,1.31,1.25Z"/>
      <path d="M9.17,48.35c-.11-.28-1.57,0-1.5.21.76,2.81,2.32,5.35,4.31,7.33l-2.8-7.54Z"/>
      <path d="M27.44,7.82l2.87,7.14c.17.42,1.65-.09,1.5-.53-.93-2.48-2.42-4.76-4.38-6.6Z"/>
      <path d="M10.36,14.57l2.32-6.35c-1.93,1.75-3.26,3.97-4.07,6.38.3.44,1.55.5,1.75-.03Z"/>
    </g>
  </g>
</svg>