<?xml version="1.0" encoding="UTF-8"?>
<svg id="Warstwa_2" data-name="Warstwa 2" xmlns="http://www.w3.org/2000/svg" viewBox="0 0 42.95 60.54">
  <g id="icon-v9-equipment-pixarts-store">
    <g id="icon-v9-equipment-pixarts-store_352">
      <path d="M6.62,23.26c-2.17-1.12-4.1-2.13-6.62-3.06l5.18,6.28c1.05-.21,1.8-.19,2.44.04-4.86,2.12.37,4.83-2,8.12-.46.64-.09,1.59.55,2.05,3.07,2.25,5.51,4.83,6.78,8.42l1.15-.75c-.42,1.05-.65,1.96-.38,2.96,1.97,7.43.27,11.05,4.14,13.24l-.49-22.64-3.95-.83-1.38,2.83.25-3.21c-1.12-.86-2.25-1.89-2.68-3.02l-1.41-3.72,5.29,1.7-.64-4.97,2.49,5.71,4.4,2.7-.14,6.86,1.96,2.52,1.93-2.58-.22-6.83,4.58-2.78c.38-.77.76-2.22.93-3.09l-2.07.72c.52-.68,1.74-1.62,1.98-2.27l1.34-3.52-.11,2.97,1.2-.12c-1.78,1.2-1.72,3.27-1.51,4.68l5.28-1.84-1.53,3.97c-.44,1.14-1.54,2.13-2.66,2.85l-.3,3.55-.99-3.08-3.68.8-.57,22.56c1.12-.55,2.44-1.87,2.57-3.02.45-3.96.87-7.56,1.87-11.32l-.85-2.23,1.26,1.08c1.21-2.69,2.56-4.56,4.58-6.38l3.13-2.84-1.09-3.66c.8-1.68,1.06-3.11.72-4.6l-1.99-.88c.22-.2,1.05-.8,1.36-.66l1.13.52,5.13-6.3c-2.49.98-4.48,2-6.56,3.09l-1.14,2.5c-1.12-1.77,1.58-2.8-.16-5.15l-4.1,1.31c.36-1.78,1.48-1.56,2.83-1.52l3.95-12.03-7.49,8.68-.09,3.89c-.45-1.3-.86-2.74-1.12-3.89l1.47-1.76c-1.91-1.18-3.43-1.83-5.53-2.53l.33,2.92-2.71,2.34,1.93,8.11c.34,1.42-1.3,3.18-2.65,3.56l1.89-3.22-2.32-8.69-2.25,8.64,1.78,3.39c-.82-.46-2.94-2.02-2.63-3.33l2.02-8.44-2.85-2.47.33-2.8c-2.04.64-3.74,1.42-5.39,2.54l1.41,1.81-1.07,3.83-.09-3.81-7.44-8.59c.39,1.6,3.39,12.19,4.43,11.77.23-.09.41-.18,1.02-.49l1.48,2.15-4.25-1.37c-1.98,1.81.75,3.12-.36,5.02l-1.02-2.42Z"/>
      <path d="M36.74,45.74l-.11-6.49c-1.84,1.99-1.96,4.2-2.72,6.52v-4.24c-3.56,3.21-4.81,9.92-4.92,14.65l6.64-6.12-.81-1.61c1.55.43,2.94.71,4.71.77l-2.78-3.48Z"/>
      <path d="M7.43,50.09l6.65,6.15c-.12-3-.79-6.6-1.56-8.98-.15,0-.9.05-1,.06-.11,0,.07-.17.13-.28.98-1.78-1.13-4.12-2.48-5.37l-.25,3.76c-.71-2.37-.74-4.49-2.57-6.21l-.11,6.56-2.86,3.46c1.64-.01,2.94-.28,4.69-.76l-.65,1.62Z"/>
      <polygon points="21.37 15.52 22.67 17.06 24.44 15.01 21.45 0 18.54 14.97 20.54 16.96 21.37 15.52"/>
      <path d="M4.91,31.11c-1.57.16-2.76.52-4.53,1.05l4.8,1.8c.53-1.23.38-2.92-.27-2.86Z"/>
      <path d="M37.89,30.86c-.37,1.1-.39,1.97.06,3.12l4.5-1.85-4.56-1.28Z"/>
      <path d="M17.09,35.05c-1.99-1.18-3.38-1.83-5.56-2.46.79,3.27,3.57,3.2,5.56,2.46Z"/>
      <path d="M31.29,32.63c-2.17.65-3.62,1.32-5.23,2.46,2.07.61,4.71.81,5.23-2.46Z"/>
    </g>
  </g>
</svg>