<?xml version="1.0" encoding="UTF-8"?>
<svg id="Warstwa_2" data-name="Warstwa 2" xmlns="http://www.w3.org/2000/svg" viewBox="0 0 40.4 56.26">
  <g id="icon-v9-equipment-pixarts-store">
    <g id="icon-v9-equipment-pixarts-store_219">
      <path d="M15.33,50.62l-1.16-.58.35,3.29c.07.61,1.06,1.46,1.62,1.85l.92-2.52.66,2.97c.39.26,1.53.59,1.95.63l.66-3.03.77,3.02,1.93-.66.57-2.89.91,2.45c.49-.34,1.5-1.28,1.58-1.89l.41-3.23-1.22.56c.15-.53.51-1.3.89-1.54,1.34-.88,3.34.96,4.17.08.96-1.01,2.02-2.46,2.62-3.54-2.82-3.16-.29-4.43-2.09-6.06-1.54-1.4-1.55-3.32-.52-4.91.1.94.14,2.28.49,2.85l2.2,3.49c3.24-3.93,2.38-7.2.91-10.97-.21,1.16-.25,2.57-1.02,3.13-.3.22-1.27-.26-1.3-.62-.04-.36-.12-1.38.03-1.7,2.55-5.49-4.02-5.85-3.01-10.41-3.41,1.85-.29,5.24-1.69,6.39-.84.69-2.41.19-3.06-.46-2.1-2.07-.55-4.41.57-6.33,1.91-3.27-.85-6.85-3.01-8.77.36,2.42.92,4.63-.92,6.17-3.36,2.8-8.39,3.38-7.53,9.42.13.91-.69,2.1-1.51,2.23-.62.1-1.95-.63-1.99-1.3l-.21-3.16c-1.98,2.99-3.52,6.04-3.96,9.53-.33,2.56,1.11,4.94,2.14,7.02,2.11-4.85,2.37-1.16,2.8-6.64,2.76,5.14-2.58,3.92-.99,8.66l-1.53,2.46,1.84,2.86c1.64,2.55,4.91-1.99,5.73,2.17ZM28.79,40.39c1.04.62.97,1.78.78,2.84-.33,1.85-1.33,2.92-3.46,2.93-2.15,0-3.93-1.1-4.23-3.13,2.56-.69,4.8-3.91,6.91-2.65ZM20.35,45.25c.96,1.05,2.26,3.32,1.61,4.71-.1.22-.81-.08-.97-.27l-.57-.66c-.12-.14-.51.3-.67.48l-.61.66c-.8.87-1.34-2.84,1.22-4.92ZM11.01,41.39c.1-.57,1.3-1.34,1.88-1.33,2.05.04,2.95,1.94,5.76,3-.04.93-1.19,2.43-2.14,2.75-1.47.5-3.38.64-4.44-.46-.9-.93-1.3-2.59-1.05-3.95Z"/>
      <path d="M11.3,22.82c1.56-3.52,4.29-3.7,1.6-7.46-1.48,3.66-3.64,4.26-1.6,7.46Z"/>
      <path d="M9.63,8.63c.79-.35,1.11-.45,1.16-.65.05-.2-.23-.77-.42-.95l-4.3-3.99c-.2-.18-.89-.29-1.12-.15-.23.14-.27.97-.06,1.18l4.74,4.56Z"/>
      <path d="M35.34,2.67c-.23-.01-.83.04-1.03.24l-4.33,4.21c-.23.23-.25,1.01-.02,1.22.18.17,1.1.1,1.31-.12l4.28-4.35c.17-.17.01-1.19-.21-1.2Z"/>
      <path d="M8.04,10.01l4,2.97c.57.43,2,.02,2.32-.48-2.38-1.47-4.33-2.85-6.58-4.58-.26.36-.17,1.77.25,2.09Z"/>
      <path d="M19.18,16.47c2.5-1.53.87-4.64.31-6.71-2.96-.88-.48,5.26-.31,6.71Z"/>
      <path d="M32.5,7.82c-2.1,1.89-3.95,3.31-6.39,4.62.59.62,1.9.82,2.53.36l3.67-2.71c.68-.5.79-1.96.2-2.28Z"/>
      <path d="M.22.14C-.05.24-.06,1.19.12,1.42l2.82,3.75c.55.74,2.02.95,2.53.44C3.93,3.89,2.48,2.12,1.33.48,1.15.21.48.04.22.14Z"/>
      <path d="M40.09.05c-.23.02-.78.18-.95.38l-4.12,5.06c.79.71,2.05.3,2.81-.76l2.53-3.52c.13-.19-.03-1.19-.27-1.17Z"/>
      <path d="M11.14,5.22c-.24-.12-1.34.17-1.23.38.9,1.63,3.8,3.15,5.66,4.31,1.82-1.25-4.07-4.5-4.43-4.69Z"/>
      <path d="M29.12,5.2l-4.02,2.79c-.25.61-.35,1.2-.16,1.86,2.35-1.47,3.85-2.5,5.87-4.16-.3-.44-1.36-.72-1.68-.49Z"/>
      <path d="M13.66,11.46l3.6,1.53c.15-.73.03-1.85-.39-2.01l-3.2-1.25c-.23-.09-.83.65-.72.88.11.23.46.75.71.85Z"/>
      <path d="M7.85,3.83C8.47,1.6,6.93-.32,4.75.05c.85,1.4,1.88,2.85,3.1,3.78Z"/>
      <path d="M24.27,12.06c.13.22,1.06.03,1.33-.11l1.5-.78c.27-.14.47-.83.32-1.09-.12-.21-.88-.39-1.14-.28l-2.68,1.15.66,1.11Z"/>
      <path d="M30.62,22.22c.93-.29,1.81-1.57,1.48-2.4-.36-.89-.77-1.51-1.35-2.43-.34,1.54-.45,2.98-.13,4.82Z"/>
      <path d="M33.08,1.06c-.49.82-.84,1.53-.17,2.56l2.74-3.37c-1.36-.46-2.07-.04-2.58.81Z"/>
      <circle cx="14.5" cy="43.24" r="1.5"/>
      <path d="M26.68,44.48c.9-.58,1.25-1.65.58-2.24-.53-.47-1.68-.62-2.19-.11-.63.63-.77,1.6-.36,2.11.4.5,1.46.57,1.97.24Z"/>
    </g>
  </g>
</svg>