<?xml version="1.0" encoding="UTF-8"?>
<svg id="Warstwa_2" data-name="Warstwa 2" xmlns="http://www.w3.org/2000/svg" viewBox="0 0 47.46 56.93">
  <g id="icon-v9-equipment-pixarts-store">
    <g id="icon-v9-equipment-pixarts-store_34">
      <path d="M22.52,45.8c6.73-.89,11.99-1.45,18.46.9l5-7.04c1-1.41,1.78-3.08.51-4.65-.44,1.48-.92,2.89-1.77,4.11l-4,5.77c-6.25-2.08-11.54-1.52-18.01-.66-6.85.92-6.34-.25-9.98-4.5,3.25,1.3,2.26,4.7,8.12,3.99,6.79-.82,12.89-1.89,19.49.53,2.22-4.14,5.66-5.85,5.27-9.91-.32-3.36-.91-6.5-2.62-9.48.33,3.23.98,7.96-.11,11.31-.04-5.78-.22-15.74-5.91-19.14,2.3,5.9,4.11,11.97,3.57,18.42-1.01-7.82-2.44-16.41-7.77-22.61-1.24.22-2.12.22-3.24.03.13.32.45,1.11.75,1.62,3.39,5.8,6.3,11.74,7.55,18.54-2.14-5.17-4.38-9.99-6.78-15.01l-2.76-5.77c-1.03-2.16-1.99-4.34-1.96-6.94,1.6,1.87.81,7.45,5.24,6.54l.63-2.74.43,2.93c.03.21.72-.24.73-.45l.04-.82c.23.77.48,1.76.97,2.34l1.93,2.3c.2.23,1.03.42,1.22.21l.56-.63.05,1.58c0,.3.74.6.95.69l.76-4.45c-1.53.59-3.17,0-4.21-1.31-1.21-1.54-1.55-3.59-1.68-5.77-.91.67-1.89,1.48-2.64,1.6-1.92.32-4.49-2.1-5.21-3.39l-2.23-3.99-1.97,3.65c-.51.95-.98,1.91-.84,2.81.95-.57,1.2-.63.71,0-2.01,2.6-4.95,3.94-7.86,3.42,2.41-.39,5.04-1.32,6.45-2.71.23-.22.24-1.15,0-1.12-2.35.31-4.06,5.23-10.89.25.27,1.93.84,4.12.34,5.99-1.07,3.94-4.92,5.63-9.03,5.13,1.16,1.52,2.59,2.76,3.12,4.33,1.26,3.77-.18,7.3-3.89,9.12,4.8.86,7.4,5.01,6.47,9.38.22-.03.44-.05.66-.07.44-2.48.28-4.39-.93-6.83,1.66,1.57,2.73,4.6.97,6.83,3.68-.27,6.77,1.22,7.38,5.16,2.67.74,5.26.8,7.97.44ZM32.89,14.62c1.4,1.45,2.47,3.13,2.77,5.02-1.13-1.69-1.99-3.26-2.77-5.02ZM32.64,8.83c-2.09.52-3.98-.26-5-1.96,3.97,2.37,3.22.73,5,1.96ZM18.25,42.54c-.8,0-1.46-.65-1.46-1.46s.65-1.46,1.46-1.46,1.46.65,1.46,1.46-.65,1.46-1.46,1.46ZM27.93,13.93c-2.17-2.98-3.71-6.62-4.01-10.68l4.01,10.68ZM11.27,10.73c.72,2.99-1.1,5.48-3.39,7.08-.63.39-1.26.82-1.89.79,3.06-2.07,5-4.38,5.28-7.87ZM5.18,21.31c1.08.55,1.16,7.56-1.42,7.85,1.63-2.38,2.02-4.95,1.42-7.85ZM9.88,39.19c-.03-2.84.23-5.26-1.98-6.95l-2.82-.84,2.98-.42-3.7-1.1,3.6-.15c.99-3.61,1.62-6.48-1.42-8.94l3.11.78-2.32-2.28,2.81,1.14,3.8-4.03c1.25-1.32-.24-3-.62-4.45,1.05.99,1.9,1.97,3.43,2.43l-2.03-3.15,2.52,2.11c1.15-.25,2.99-.83,4.26-1.35,1.01-2.49,1.42-4.86,1.84-7.56.23,2.45-.18,5-.62,7.6,2.15.96,8.11,5.97,8.28,8.17-2.54-2.86-5.16-5.43-8.66-7.22-1.66.46-3.51,1.13-5.12,1.87,3.45,2.44,6.5,4.23,9.24,7.03,4.58,4.69,8.26,10.32,9.97,16.77-3.35-7.48-7.52-14.38-14.36-19.07l-6.42-4.41-1.11,2.14c-1.44,1.34-2.78,2.66-3.88,4.22,8.75,2.76,16.69,7.74,20.94,15.66-5.72-7.32-13.07-12.47-22.02-14.26.61,2.52.11,4.85-.48,7.51,7.34,1.01,14.61,3.58,19.63,9.32-5.79-4.19-11.7-7.48-19.07-7.49,1.14,2.15,1.66,4.64.24,6.89ZM26.59,25.33l-11.85-8.19c4.66,1.4,8.51,4.52,11.85,8.19ZM20.96,29.03l-7.08-2.76c-1.06-.29-2.08-.64-2.86-1.4,3.65.7,6.98,1.83,9.94,4.16ZM11.76,33.63c2.63.3,4.71.68,7.09,1.66l-6.41-.79c-.26-.03-.47-.29-.67-.87Z"/>
      <path d="M26.95,50.2c5.05-.47,10.14-.08,14.82,1.72,1.48-3.63,7.5-7.66,4.53-10.97-1.88,2.55-3.44,4.93-4.93,7.59-3.8-1.62-7.88-2.25-11.97-1.9l-6.88.58c1.09.63,1.47,1.18,1.43,1.76-.03.42-.89.92-1.34.9-.43-.01-1.22-.78-1.04-1.17l.67-1.41-3.77.1c.73,3.93,5.31,3.09,8.49,2.79Z"/>
      <path d="M42,53.23c-3.1-1.26-6.62-2.08-10.11-1.91l-9.78.48c-.02,1.66,1.3,3.03,3.23,3.09l6.9.24c3.56.12,7.11.74,10.28,1.8l4.15-6.63c.81-1.3,1.23-2.82.06-4.06l-4.73,6.99ZM25.69,54.18c-.62,0-1.12-.5-1.12-1.12s.5-1.12,1.12-1.12,1.12.5,1.12,1.12-.5,1.12-1.12,1.12Z"/>
    </g>
  </g>
</svg>