<?xml version="1.0" encoding="UTF-8"?>
<svg id="Warstwa_2" data-name="Warstwa 2" xmlns="http://www.w3.org/2000/svg" viewBox="0 0 54.74 47.25">
  <g id="icon-v9-equipment-pixarts-store">
    <g id="icon-v9-equipment-pixarts-store_265">
      <path d="M7.34,43.64l.05-5.3c.04-3.86-2.74,4.72-.05,5.3Z"/>
      <path d="M.89,12.77l-.14-2.8c-.4.48-.81,1.2-.75,1.61.05.37.4.73.89,1.19Z"/>
      <path d="M20.26,21.56c1.15-.78,2.74-1.31,3.74-.26l.03,2.58c2.34.87.84.95,1.61,2.95.07.18.48-.05.6-.2.08-.1.12-.48.08-.59l-.55-1.77,2.45.5c.12,1.25.21,1.9.37,2.6l1.08-.79c.1-.07.57.5.66.42.23-.22.69-.92.56-1.21l-.58-1.28,1.9-.74.07-3.01c.98-.45,2.31.34,3.39.6,1.06.26,2.82-2.36,2.17-3.25-.84-1.15-1.24-1.7-.87-3.18.62-2.53-3.14-2.18-1.2-6.27.2,1.84.57,3.3,1.74,4.53.95-3.86-.91-7.46-4.34-9.11l-.63,1.87-.15-2.17c-3-1.56-6.34-1.26-9.25.21-3.43,1.73-5.38,4.84-4.51,8.94,1.14-.98,1.59-2.37,1.64-3.84,1.69,3.62-.46,2.51-1.23,5.17.68,1.49.16,2.72-.79,3.97-.45.94,1.16,2.91,1.99,3.33ZM29.81,15.44l3.89-2.01c.33-.17,1.49.31,1.77.56.51.44.25,3.15-.3,3.91-.3.41-1.45.67-1.99.57l-2.8-.54c-.71-1.02-1.24-1.91-1.97-3.5l1.4,1.02ZM29.6,21.63c-.22.35-.82-.02-1.55-.83l-.45.68c-.15.23-1.2.2-1.24-.09-.15-1.04.46-3.36,1.41-3.78,1.29-.54,2.62,2.79,1.84,4.02ZM27.74,14.61l-1.58,3.03-3.32.81c-1.18.29-2.27-.5-2.35-1.65l-.19-2.57c3.78-2.75,4.85,2.88,7.44.37Z"/>
      <path d="M6.62,8.35c.2.03.72-.81.52-.89l-.74-.31-2.82-1.19c-.34-.14-.85-1.27-.57-1.48.28-.21.81-.53,1.05-.66l-.31.83c-.05.14.28.57.42.63,4.79,2.36,3.52.23,5.39.35,8.14.53,2.49,2.37,8.33,1.89,2.15-3.72,5.87-5.98,10.12-5.92,4.14.06,8.16,1.91,10.22,5.98,1.14.02,2.34-.01,3.05-.19,1.07-1.78,5.64-2.2,7.35-1.03.95.08,2.88-.79,3.65-1.33.24-.17-.17-.98-.28-1.27.42.12,1.07.52,1.21.89.11.31-.36,1.2-.67,1.34l-3.09,1.31c-.2.08-.47.63-.32.76.15.12.78.37.97.3l3.49-1.41c.6-.24,1.19-1.38,1.15-1.93-.15-2.44-6.95-3.49-9.24-3.81C33.56-.45,21.58-.4,9.65,1.35,7.6,1.65,1.44,2.77,1.35,5.02c-.08,1.92,3.62,3.06,5.27,3.33Z"/>
      <path d="M47.06,6.79c-1.15-.29-3.18.04-4.27.29,3.01,1.45,1.68,13.26,1.45,15.9l.73-1.54.34,1.32,2.78-1.01c.48-2.27,1.42-14.34-1.04-14.97ZM47.13,15.89c-.72.26-1.57-.79-1.53-1.4.04-.61.9-1.74,1.44-1.52,1.14.48,1.45,2.43.09,2.92Z"/>
      <path d="M7.98,8.25c-.77,4.54-.73,8.88.15,13.39,1.17.85,3.07,1.25,4.26,1.09-1.5-4.42-1.37-11.03-.22-14.75l1.45-.8c-1.81-.47-5.23-1.37-5.65,1.08ZM9.3,15.96c-.84.06-1.27-.9-1.26-1.47.01-.53.46-1.53,1.15-1.53.47,0,1.1.81,1.2,1.23.13.52-.26,1.72-1.09,1.78Z"/>
      <path d="M12.58,10.42c-.82,4.31,1.42,2.6,1.46,4.8.01.72-.93,1.34-1.46,1.89-.46.51-.15,2.07.09,2.93l4.91.66c-.43-1.3-.98-2.16-.72-2.57l1.14-1.77-.78-5.49-4.64-.45Z"/>
      <path d="M39.38,18.36l-.8,2.35,4.9-.75c.22-.91.54-2.42.06-2.89-.6-.55-1.47-1.21-1.4-1.84.31-2.62,2.01-.47,1.38-4.79l-4.4.36-.93,5.52c.13.56,1.37,1.52,1.2,2.04Z"/>
      <path d="M1.6,15.94c1.28,1.36,3.08,2.17,5.02,2.53l.02-9.19c-2.02-.62-3.6-1.3-5.19-2.15l.14,8.82ZM3.22,12.31c.1-.3.59-.84.87-.97.34-.16,1.14.6,1.21,1.05.19,1.08-.19,2.26-1.04,2.25-1.01,0-1.32-1.48-1.04-2.33Z"/>
      <path d="M54.42,16.02l.23-8.86c-1.68.89-3.38,1.58-5.08,2.14l.06,9.18c1.66-.39,3.87-1.16,4.79-2.46ZM51.8,11.35c.45-.03,1.1.98,1.15,1.42.06.52-.17,1.68-1.17,1.86-.54.1-1.16-1.05-1.15-1.55.02-.59.41-1.68,1.17-1.73Z"/>
      <path d="M33.68,22.33c-.77.75-.51,6.28-1.49,8.84,4.62-3.42,3.06-10.39,1.49-8.84Z"/>
      <path d="M23.9,31.02l-1.24-8.64-.69,1.77-.29-2.2c-1.56,3.36-.31,6.85,2.22,9.06Z"/>
      <path d="M13.08,20.79c-.2-.02-.5.61-.36.74,1.07,1,5.38,1.35,7.15,1.36l-1.91-1.64-4.88-.46Z"/>
      <path d="M36.64,22.97l6.09-.82c.46-.28.86-.85.84-1.43l-4.93.52c-.67.07-1.64,1.11-2,1.72Z"/>
      <path d="M6.27,19.14l-4.63-2.05c-.15,1.88,3.41,3.03,5.05,3.47.02-.71-.14-1.3-.41-1.42Z"/>
      <path d="M48.05,39.52c.53-8.99-1.03-4.62-1.03-4.95l.03,4.63c0,.19.99.5,1,.32Z"/>
      <path d="M48.07,31.73c.13-2.17.13-3.92,0-5.94-1.57-1.02-1.49,7.24,0,5.94Z"/>
      <path d="M46.43,43.87l-.05-6.02c-1.7.16-1.51,6.02.05,6.02Z"/>
      <path d="M9,26.01c-.04-.14-.85,0-.87.15-.75,7.53.91,5.24.93,4.62l.16-3.69c.01-.28-.16-.88-.23-1.09Z"/>
      <path d="M49.47,20.54c2.02-.6,4.32-.93,5.11-3.35l-3.92,1.69-1.08.47c-.25.11-.16.91-.11,1.19Z"/>
      <path d="M7.33,28.09l-.08-5.88c-1.82-.1-1.27,5.52.08,5.88Z"/>
      <path d="M34.68,39.6c.06-.17-.75-.3-.92-.23l-3.76,1.41c-.2.08-.81.64-.66.78l.53.47,4.53-1.65.28-.78Z"/>
      <rect x="14.46" y="6.9" width="1.33" height="4.74" transform="translate(4.62 23.56) rotate(-85.15)"/>
      <path d="M15.39,31.67c.13-1.08-1.27-4.85-1.79-5.6-1.48-2.15-.12,5.29,1.79,5.6Z"/>
      <path d="M38.74,8.82c-.33.04.15,1.33.5,1.29l3.95-.49c.2-.02.2-.93.01-1.01-.13-.05-.55-.2-.69-.19l-3.78.39Z"/>
      <path d="M26.49,40.86l-.91-.42,5.31-.38c-.27-1.18-5.11-.98-5.21-.38l-.15.87-2.98-1.16c-.29-.11-1.23.42-1,.6,3.02,2.36,7.43,2.02,4.94.88Z"/>
      <path d="M31.37,42.25c-2.28.61-4.18.52-6.47,0-.47,1.82,6.62,2.28,6.47,0Z"/>
      <path d="M8.67,40.1c.65-1.91.45-3.71.51-5.87-1.76-2.46-1.47,6.22-.51,5.87Z"/>
      <path d="M22.45,41.58l-4.96-3.98c-.64,1.79,3.89,5.08,4.96,3.98Z"/>
      <path d="M40.81,31.43c0,.15.89-.23.95-.4l1.51-3.95c.07-.19-.44-1.08-.61-.96l-.46.32-1.36,4.23c-.06.19-.04.61-.03.76Z"/>
      <path d="M19.27,38.05c.33-.12.62-.49.54-.68l-.39-.94c1.67.92,2.64,2.21,4.43,2.61-.69-1.68-2.4-2.59-3.71-3.13-.34.14-.93.65-1.11.44l-.72-.84c-.7-.82-1.15-2.04-2.52-1.65.75,1.44,2.18,3.21,3.47,4.19Z"/>
      <path d="M47.49,47.25c1.01-.03,1.09-6.31-.15-5.38-.47,1.77-.53,3.43.15,5.38Z"/>
      <path d="M38.59,37.91c-1.71,1.44-3.08,2.36-4.99,3.54,1.35,1.29,5.76-2.29,4.99-3.54Z"/>
      <path d="M42.88,30.41l-2.88,5.44c2.62-.57,3.39-3.63,2.88-5.44Z"/>
      <path d="M48.86,27.87c1.66-1.82,1.62-4.34.01-5.93v5.93Z"/>
      <path d="M16.14,35.97l-2.89-5.62c-.59,2.31.54,4.95,2.89,5.62Z"/>
      <path d="M46.26,35.91c.19-2.05.18-3.96.06-6.13-1.62,1.79-1.56,4.31-.06,6.13Z"/>
      <path d="M48.81,43.74c1.8-1.84,1.42-4.2,0-5.94v5.94Z"/>
      <path d="M9.84,37.84l-.14,5.91c1.98-1.84,1.48-4.27.14-5.91Z"/>
      <path d="M7.34,29.85c-1.62-.08-1.49,6.34.08,5.79l-.08-5.79Z"/>
      <path d="M48.76,35.71c1.53-.1,1.68-5.27.09-5.62l-.09,5.62Z"/>
      <path d="M37.18,36.48c-.42-.41-1.33-.78-1.66-.53l-2.91,2.29c-.14.11-.23.97-.06.91.17-.05.7-.21.89-.35l3.32-2.39-.31,1.31c-.47,1.97,4.24-3.03,3.83-4.1-1.79.14-2.06,2.17-3.1,2.84Z"/>
      <path d="M15.58,29.37c.72,1.85,1.55,3.56,2.57,4.8.38-2.39-.77-4.19-2.57-4.8Z"/>
      <path d="M9.81,29.94l-.03,5.75c1.77-1.76,1.66-4.33.03-5.75Z"/>
      <path d="M38.25,34.44l2.03-4.21c1.48-3.07-3.75,2-2.03,4.21Z"/>
      <path d="M7.97,42.57v3.87c0,.18.52.52.68.62.1.07.32-.44.32-.57l.12-3.58c0-.25-.27-.74-.39-.93-.08-.13-.74.44-.74.59Z"/>
      <path d="M45.2,23.8l-.7.24-.98,4.09c1.29.42,2.21-4.51,1.68-4.33Z"/>
      <rect x="14.36" y="23.57" width="1.07" height="3.8" transform="translate(-4.57 3.3) rotate(-10.96)"/>
      <path d="M12.38,27.98c-.16-1.68-.41-2.95-.91-4.33-.94,1.68-.35,3.47.91,4.33Z"/>
      <path d="M41.96,23.57c-1.55.77-1.46,3.53-.79,4.01l.99-3.21c.04-.14-.13-.83-.19-.8Z"/>
      <path d="M46.33,24.05c-1.16,1.27-.99,2.7-.01,3.89.11-1.24.11-2.5.01-3.89Z"/>
      <path d="M10.02,23.75c-.26,1.42-.41,2.69-.15,4.11,1.16-1.38.91-3.04.15-4.11Z"/>
      <path d="M27.39,27.17c.75-.38.84-2.08.02-2.25-.36-.06-.93.81-.88,1.17.05.36.57,1.05.86,1.08Z"/>
      <path d="M12.48,13.82c-.12.52-.11,1.88-.01,2.4,1.36-.85,1.12-2.02.01-2.4Z"/>
    </g>
  </g>
</svg>