<?xml version="1.0" encoding="UTF-8"?>
<svg id="Warstwa_2" data-name="Warstwa 2" xmlns="http://www.w3.org/2000/svg" viewBox="0 0 57.41 59.52">
  <g id="icon-v9-equipment-pixarts-store">
    <g id="icon-v9-equipment-pixarts-store_102">
      <path d="M2.7,45.88l.1-2.96L0,41.79c-.05,1.95,1.05,3.16,2.7,4.09Z"/>
      <path d="M18.47,8.85l-2.84-1.49-.61,1.55-.37-1.8c-.1-.5-4.44-1.23-5.8-5.58-1.01,6.71,4.01,7,7.82,10.23l-6.07-1.96c.55.88,1.16,1.63,1.59,2.16.23.28.18,1.34.55,1.39l1.58.18-1.4-1.77c1.59.28,2.51,1.28,3.43,2.86-2.03,0-3.5-.63-5.42-1.58-1.06,1.3-1.88,2.44-2.91,4.01l6.31.18-.15,1.76c5.76,2.23,5.68,1.52,8.98,6.58,1.31.24,2.84-.85,2.74-1.95-3.93-.36-3.56-2.68-7.06-4.96-.51.18-1.33.59-1.61.26l-1.33-1.58c-.98-1.16-3.32-.56-3.91-2.66l4.52,1.82.82,1.7,1.45-.33c.35-.08,1.02.67,1.34.86l1.96,1.13c.1,1.51,2.24,3.46,3.77,2.71,2.07-1.02,1.81-4.21.27-5.74-.71-.7-.71-2.08-.36-2.8l.44,1.85c1.99-.9,1.26-3.23.3-4.3-.7-.78,2.58-4.15-2.78-8.94l1.05,5.73c.25,1.35,1.9,2.63.47,4.23l-.18-1.76c-3.54-4.42-8.29-4.63-9.66-9.36-1.14,1.11-.59,3.99.61,4.57.49.03,1.9.06,1.95.1.07,1.11.3,1.51.77,2.11l3.18,4.01c-1.67-.63-2.29-2.1-3.44-3.42ZM23.36,16.11l.65-1.23c.38.21.05,2.44-.65,2.36l-3.75-.45c-.7-1.8-1.63-2.72-3.26-3.68,3.33-.72,6.48,4.02,7.02,2.99Z"/>
      <path d="M26.09,2.52c2.52,1.53,5.05,2.55,6.26,5.23-1.64-.88-2.96-1.7-4.57-2.09l1.35,5.47c5.78,1.76,2.68,2.62,5.36,2.89,1.25.12,3.63,2.17,3.88,3.31l-1.78-1.07c-.4-.24-1.02-1.1-1.35-1.47l-1.96-.1c-.77-.04-1.32-3.02-2.72-1.9-.02.79-.02,1.78.3,2.19.78,1.01,5.26.89,6.5,4.79.25.79,1.58,1.31,2.39,1.17.6-.1,1.42-1.31,1.42-1.76-1.39-.03-2.64.12-3.02-1.81,1.09.54,1.77.9,2.48,1.15.51.19,1.47-.83,1.72-1.32,1.83-3.59-2.28-3.72-1.06-6.49l.55,1.31c2.01-1.1.32-2.84.35-4.03.03-1.39,1.83-4.39-3.11-7.95l.87,3.89.51,1.92c-.81-.84-1.28-1.2-2.28-1.51-1.08-.33-1.97-.2-2.7.6l-1.08-.24c.97,1.14,1.54,1.71,1.87,2.95-3.38-2.98-4.4-5.54-10.18-5.13ZM39.27,11.49l-.14,1.47c-.04.43-1.08.14-1.56.02l-2.43-.62-1.58-3.1c4.27,1,4.35,4.73,5.72,2.24Z"/>
      <path d="M50.92,43.31c-1.27-1.56-3.47-1.47-5.35-1.24l-5.12.63c-2.41.3-3.81-1.23-4.45-3.13-1.24-.42-2.83-1.15-3.64-2.44l-3.16,2.16,2.1,2.07c.66.65,1.84,1.19,2.73,1.64l1.53,1.93c.42.53,1.73.39,2.26.06l2.87,2.91c.69.7,1.97,1.22,2.8,1.32-.46-1.52-.42-2.87.4-3.79l2.1-.64c-1.6-.63-2.44-.79-3.95-1.13.73-.52,1.94-.79,2.74-.43.97.43,1.45,1.27,2.07,2.13l2.13,2.95-.2-2.43c-.11-1.35.91-2.25,2.13-2.57Z"/>
      <path d="M22.63,36.47c1.19-2.25,1.59-4.48.56-6.43-.24.92-1.07,2.12-1.49,1.77l-4.88-4.05c-.73.28-1.85,1.65-1.91,2.47-.26,3.36,5,4.92,7.73,6.25Z"/>
      <path d="M12.84,51.3l-1.59-3.37c-1,.51-2.11.43-2.42-.39-.54-1.43-.81-2.54-1.22-4.21l-1.66.38c-.34.08-.86.18-1.01-.02l-.63-.8c-1.53,2.77.79,2.54-.2,5.39,1.79,2.7,5.62,4.01,8.73,3.01Z"/>
      <path d="M24.02,35.77l-.9,2.03-6.76-3.09c-1.11.78-1.64,2.51-1.08,3.53,1.87,3.44,5.29,1.08,9.72,2.82.9-1.74.63-3.89-.97-5.28Z"/>
      <path d="M23.8,56.15l.44-.99.72,1.19c.14.23.69.09.86.04-.4-1.41-.36-3.3,1.2-4.14.4-.22,1.36-.29,2.09-.48-1.2-.79-2.34-.75-3.92-.71l.72-.86c.14-.17-2.73-1.94-3.87-.31,0-.49-.49-1.8-1.02-1.9-.79-.15-2.2,1.17-1.95,1.82,2.34,3.32,1.52,5.65,4.72,6.35Z"/>
      <path d="M17.12,21.61c-4.51,2.67,2.7,7.07,4.64,9.01,1.1-1.16,1.9-2.48,1.98-3.6-2.33.74-2.64-4.31-6.61-5.41Z"/>
      <path d="M32.45,22.77c-.78.82-1.66,1.85-1.71,2.59-.16,2.45,4.99,4.36,7.01,5.57,1.28-1.93,1.33-3.8.91-5.71-.69.66-1.33,1.24-1.8,1.39l-4.4-3.84Z"/>
      <path d="M39.23,30.21l-1.29,1.79-5.79-3c-.8,1-1.52,2.25-1.16,3.19,1.17,3.11,5.26,1.17,9.08,2.86.74-1.61.29-3.44-.84-4.85Z"/>
      <path d="M20.85,44.67c2.69-.59,4.83-.44,7.52.04.27-.55.48-2.38-.12-2.88l-1.79-1.46-.68,1.85c-3-.85-5.63-1.26-8.55-1-.13,2.02,1.49,3.92,3.62,3.45Z"/>
      <path d="M15.37,33.83l-1.6-3-2.5,1.62c-2.15,1.39-2.74,4.72-.84,6.66,2.54-1.17,4.01-3.26,4.94-5.28Z"/>
      <path d="M33.3,17.51c-.54-.13-1.62.75-1.7,1.3-.41,2.63,3.42,4.83,5.33,6.65,1.3-.97,2.09-2.08,2.02-3.44-2.76,1.71-1.87-3.61-5.65-4.52Z"/>
      <path d="M41.08,34.51c-.11.89-.25,1.55-.62,1.66-2.25-.73-5.08-1.43-7.42-.97.08,5.32,6.09,1.91,10.27,3.31,1.06-1.82-.7-3.6-2.23-4Z"/>
      <path d="M29.3,45.95c-2.67-.5-5.55-1.47-7.85-.03,1.05,4.64,4.7,1.43,10.79.99.29-.02.94-.47,1.03-.74l-3.47-2.71-.5,2.49Z"/>
      <path d="M8.81,14.23l-3.78-1.78c-2.04,2.08-2.4,4.17-4.41,6.75,5.74-.65,5.24-.6,8.19-4.97Z"/>
      <path d="M10.11,27.8c.18.89.76,3.3,2.17,2.73,1.59-.65,2.88-2.56,3.6-3.66l-1.4-3.04c-.44.2-1.4.59-1.87.65-1.72.21-2.88,1.45-2.5,3.32Z"/>
      <path d="M11.05,12.24l-2.3-3.2c-5.52-.5-4.89-2.19-7.92-2.39,1.55,1.98,7.03,8.7,10.22,5.6Z"/>
      <path d="M26.59,33.74c2.38-1.58,3.55-3.2,4.69-5.19l-1.67-2.77-3.43,2.52c-.37,1.87-.35,3.74.41,5.44Z"/>
      <path d="M37.07,39.4c.3,1.92,1.73,2.54,3.5,2.34l5.43-.61c.5-.06,1.77-.95,1.43-1.34-.8-.94-1.89-1.54-2.81-1.94l-.45,1.88c-2.59-.7-4.82-1.04-7.11-.32Z"/>
      <path d="M6.39,19.19c-2.75.38-3.39,5.43-3.21,7.93l4.52-3.23c.58-.41,1.48-1.82,1.55-2.14-1.54-.39-2.15-.5-2.5-.76-.33-.25-.26-.99-.36-1.8Z"/>
      <path d="M38.61,58.14c.44-3.02-1.12-6.92-4.51-7.24-1.08-.1-1.37,2.04-1.1,2.96.54,1.87,3.41,1.79,5.62,4.28Z"/>
      <path d="M35.03,49.73c-.82-.79-2.22-.96-3.3-.86-.95-1.3-3.43-.66-5.12.35l2.89,1.94c.86,1.57,1.72,2.98,2.9,4.2-.21-1.72-.71-3.41.35-4.74.39-.48,1.7-.74,2.27-.89Z"/>
      <path d="M9,29.34c1.18-1.34.69-3.65-.87-4.53-2.87,1.83-3.18,3.81-3.32,7.5,1.61-.88,3.09-1.72,4.19-2.97Z"/>
      <path d="M13.71,44.27c1.1-.11,2.79-2.4,2.43-3.38l-2.19-2.53c-.92-.03-2.53,1.53-2.53,2.58,0,1.37.64,3.49,2.29,3.33Z"/>
      <path d="M26.37,54.64c.03.78.57,1.68,1.35,2.1,1.48.89,2.61,1.73,3.85,2.78.42-2.84-.7-5.89-3.39-6.66-.95-.27-1.85.98-1.81,1.78Z"/>
      <path d="M32.08,34.67c-.87-.71-1.52-1.35-2.31-2.23l-3.11,2.35c.59,1.32,1.31,2.42,2.25,3.45,2.18-.66,3.21-1.98,3.17-3.57Z"/>
      <path d="M16.85,49.19l1.18-.64c1.15-.62,2.11-1.49,2.48-2.5-2-.5-2.87-1.07-4.05-2.6-.55.4-1.43,1.37-1.52,2.05-.23,1.71,1.39,3.97,1.91,3.69Z"/>
      <path d="M10.31,40.39c-.97-.91-1.55-1.83-2.1-3.17-2.09.54-3.89,3.34-2.69,5.47,1.63.3,3.68-1.04,4.79-2.31Z"/>
      <path d="M50.52,47.95l3.97,2.35c.24-2.93-1.65-5.69-4.23-6.04-1,.78-.79,3.07.26,3.69Z"/>
      <path d="M39.31,53.21l3.91,1.87c-.06-2.99-2.28-5.54-4.93-5.71-.73,1.25-.18,3.26,1.02,3.84Z"/>
      <path d="M48.26,51.52c.61-2.67-1.06-5.76-3.7-5.59-.65.04-.96,1.75-.67,2.24.26.44.87,1,1.43,1.37l2.95,1.98Z"/>
      <path d="M12.4,18.53c-.51.59-1.29,1.69-1.47,2.44-.2.82.59,2.21,1.3,2.6,1.52-.2,3.33-1.36,3.74-2.52-1.97-.73-2.64-1.11-3.57-2.51Z"/>
      <path d="M10.21,47.37l2.8-2.03c-1.81-.8-2.25-2.05-2.49-3.8-.4.22-1.6,1-1.75,1.55-.36,1.4.33,3.5,1.44,4.28Z"/>
      <path d="M31.32,22.52c.53-1.03-.69-2.84-1.53-2.92l-2.54,6.77c1.43-1.12,3.14-2.06,4.07-3.85Z"/>
      <path d="M5.3,37.35c2.18-.5,3.59-1.85,3.86-4l-2.01-1.57c-1.1,1.95-1.51,3.4-1.86,5.56Z"/>
      <path d="M15.8,51.92c.51-2.93-1.22-1.59-1.89-6.34l-1.81,1.83c.49,2.06,1.46,3.88,3.7,4.51Z"/>
      <path d="M5.09,38.08l-4.12-3.3c-.06,2.64,1.82,3.89,3.33,5.9l.8-2.6Z"/>
      <path d="M53.52,43.11c-.12.76.14,2.55.8,2.91l3.09,1.7c-.09-2.56-1.74-4.15-3.89-4.61Z"/>
      <path d="M20.34,54.13c-.68-2-1.78-4.58-3.4-4.07-.5.16-.79,1.59-.42,1.97,1.12,1.16,2.13,1.7,3.82,2.1Z"/>
      <path d="M7.56,18.22c-.49.16-.56,1.65-.19,1.99,1.2,1.12,3.48-.02,4.29-2.01-1.32-.18-3.17-.3-4.1.01Z"/>
      <path d="M32.93,47.6c1.67.47,2.59.93,3.19,2.3.28.41.74,1.06.69.99.4-2.02.74-2.03,2.22-2.62l-2.83-.85c-1.2-.36-2.3-.51-3.27.18Z"/>
      <path d="M37.15,3.37c-1.39-1.49-2.42-2.47-4.11-3.37l1.68,4.01,2.43-.64Z"/>
      <path d="M50.2,40.89c-.9-.23-1.68-.35-2.45,0,2.28.66,3.69,1.4,4.7,3.23.25-.68.37-1.38.66-1.55l1.07-.65-3.98-1.04Z"/>
      <path d="M29.41,14.4c-.37,1.44-.52,2.81.18,4.58.83-.5,1.77-1.2,2.4-1.73-1.68-1.13-1.92-1.42-2.59-2.84Z"/>
      <path d="M9.73,32.47c.43-.09,1.17-.73,1.21-1.16.04-.44-.79-1.45-1.11-1.33l-1.64,1.34c.05.4,1.05,1.25,1.54,1.15Z"/>
      <path d="M10.07,22.05c-.75.89-1.17,1.82-.75,2.78.28.65,1.94-.32,1.71-.79l-.96-1.98Z"/>
    </g>
  </g>
</svg>