<?xml version="1.0" encoding="UTF-8"?>
<svg id="Warstwa_2" data-name="Warstwa 2" xmlns="http://www.w3.org/2000/svg" viewBox="0 0 58.05 56.43">
  <g id="icon-v9-equipment-pixarts-store">
    <g id="icon-v9-equipment-pixarts-store_108">
      <path d="M28.25,7.05c5.34,1.14,7.45,2.28,12.34-.44.25-.14.57-1.02.35-1.13l-.78-.39c.35-.4.82-1.28.93-1.9.09-.48-.47-1.64-.95-1.78C34.59-.19,28.99-.49,23.39.81c-.44.1-1.15.9-1.13,1.3.09,1.62,5.46.26,5.99,4.94ZM40.14,2.46c-5.54,2.38-12.03,1.94-17.41-.65,5.87,1.48,11.52,1.64,17.41.65Z"/>
      <path d="M21.07,51.62c-3.53-1.62-6.97-2.9-10.64-4.11-1.62-.53-3.11-1.1-4.29-2.27,2.16.72,3.82,1.5,5.73,1.8-1.87-.98-3.55-1.63-5.09-2.59l-.72-.45c.18.11-.58,2.34-.32,3.12.17.5,1.07,1.32,1.62,1.51l8.81,3.01c2.79.95,5.22,2.54,8.04,3.44,6.04,1.94,12.48,1.84,18.14-.81,1.64-.77,2.62-2.22,1.92-3.85-5.76,5.54-16.42,4.3-23.19,1.19Z"/>
      <path d="M36.32,51.2l1.69-.36c.36-.08.67-1.18.39-1.57-3.18-4.49-13.08-4.32-16.18.04,5.82,2.81,8.1,3.15,14.1,1.88Z"/>
      <path d="M51.11,43.8c.51-.03,1.32-.92,1.39-1.38.28-1.77-3.87-3.08-5.05-3.33-3.2-.7-6.4.3-9.01,1.79.77.54,1.15.16,2.12-.38l-.49,1.11c2.11.83,9.09,2.3,11.04,2.19Z"/>
      <path d="M34.95,45.58c-.03-2.37-4.92-2.59-6.78-2.6-4.38-.01-8.44,1.46-11.08,4.79l2.48,1.13c3.68-3.99,10.08-4.19,15.38-3.32Z"/>
      <path d="M27.28,13.6c4.65.09,8.57-.63,12.48-2.74l.46-3.27c-4.11,1.94-7.87,2.75-12.28,2.85l-.65,3.16Z"/>
      <path d="M48.06,45.75l-6.3-.98c.79.52,1.7,1.65,2.61,2.14,4.58,2.46,14.9.23,13.56-4.41-2.54,2.62-6.19,3.82-9.88,3.24Z"/>
      <path d="M49.36,38.49c-2.65-3.6-11.71-2.16-15.17.05l2.66,2.07,4.97-1.86c2.47-.93,4.87-.48,7.55-.26Z"/>
      <path d="M33.84,43.16c-.88-1.94-2.56-5.04-4.87-5.19-2.48.07-4.37,2.94-5.47,4.68,3.79-.57,6.99-.48,10.34.51Z"/>
      <path d="M26.72,14.94c3.34,2.68,7.26,3.23,11.48,3.66.26-1.01.47-2.3.48-2.98-5.2.62-8.99-3.05-11.96-.68Z"/>
      <path d="M28.97,36.94c-.45-.69-1.3-1.3-2.13-1.29-.56,0-1.24.78-1.96,1.18l-2.59,1.42c-2.12,1.87-3.29,4.4-3.91,7.07,6-2.71,4.4-6.39,10.59-8.37Z"/>
      <path d="M37.03,36.39c1.55-2.8,2.87-4.82,5.98-5.78-.52-.65-2-1.48-2.72-1.08l-3.4,1.89c-2.12,1.18-2.55,4.2-3.18,6.42,1.11-.23,2.83-.76,3.31-1.45Z"/>
      <path d="M15.28,46.87c1.91-3.61,3.8-6.36,6.43-9.21-1.84-2.75-8.55,6.82-9.02,8.56.49.61,2.26,1.27,2.59.65Z"/>
      <path d="M47.49,36.3c-.81-1.81-2.03-4.42-4.17-4.57-2.32-.15-4.11,2.4-5.22,4.36,3.19-.65,6.14-.7,9.4.21Z"/>
      <path d="M26.27,23.71c4.16,1.16,8.33,1.47,11.87-.58-4.5-.46-7.86-1.11-11.78-2.42-.09,1.09-.12,2.1-.09,3Z"/>
      <path d="M13.33,43.01l-1.37-4.1c-.49-1.47-1.36-2.99-3.37-3.19.57,3.58,1.74,6.67,3.33,9.88.52-.48,1.63-1.93,1.41-2.59Z"/>
      <path d="M38.25,19.28l-4.63-.16-4.46,1.76c3.13.85,5.76,1.25,9.05,1.46l.05-3.06Z"/>
      <path d="M42.59,46.95l-4.85-3.13c-.68,2.14-.04,3.55,1.33,5.06.69.76,1.84,1.01,2.77.7.68-.23,1.71-2.02.76-2.63Z"/>
      <path d="M54.6,41.99c.38-.02.9-.71,1-1.11l.54-2.09-5.4-3.04.68,4.01,1.76,1.58c.28.25,1.05.67,1.43.66Z"/>
      <path d="M10.83,45.51l-3.13-8.83c-.78,2.14-1.75,4.71-.42,6.98.54.91,2.61,1.5,3.54,1.86Z"/>
      <path d="M56.77,40.62c-.47,1.4-1.37,2.61-3.02,2.27-1.59,2.85-4.32,1.93-6.74,1.4-3.16-.69-5.98-1.46-9.26-2.62,1.2,2.32,9.39,3.41,11.9,3.55,3.7.2,10.3-3.46,7.11-4.6Z"/>
      <circle cx="22.9" cy="34.45" r="2.22"/>
      <path d="M34.34,30.81l-3.8,4.38c.49,1.28,1.07,2.2,1.92,2.79,1.19-3,1.98-4.81,3.55-7.03l-.71-.49c-.15-.1-.81.19-.96.36Z"/>
      <path d="M19.64,35.09c0-1.17-.95-2.13-2.13-2.13s-2.13.95-2.13,2.13.95,2.13,2.13,2.13,2.13-.95,2.13-2.13Z"/>
      <path d="M26.76,16.3l-.34,3.93c2.55-.04,4.21-.6,6.28-1.54l-5.94-2.39Z"/>
      <polygon points="17.11 38.48 14.66 36.8 12.42 37.87 13.98 42.3 17.11 38.48"/>
      <path d="M14.5,34.55c0-1.09-.89-1.98-1.98-1.98s-1.98.89-1.98,1.98.89,1.98,1.98,1.98,1.98-.89,1.98-1.98Z"/>
      <path d="M30.21,26.62c1.39-.91,2.96-.48,4.27.03,2.42-1.69,3.63-.9,3.96-1.94.06-.2-.26-.71-.44-.63l-.71.3c-3.55,1.52-7.48,1.08-11.12.11l.11,1.36c1.4-.67,2.76-.27,3.95.77Z"/>
      <path d="M35.32,28.2c0,1.07.87,1.94,1.94,1.94s1.94-.87,1.94-1.94-.87-1.94-1.94-1.94-1.94.87-1.94,1.94Z"/>
      <path d="M7.95,30.92c-1.06.41-1.52,1.7-1.3,2.6.23.95,1.99,1.94,2.61,1.06l1.22-2.48c-.22-.78-1.8-1.46-2.53-1.18Z"/>
      <path d="M32.44,26.85c-1.05,0-1.9.85-1.9,1.9s.85,1.9,1.9,1.9,1.9-.85,1.9-1.9-.85-1.9-1.9-1.9Z"/>
      <path d="M26.92,30.41c-.69-.21-2.28.39-2.22,1.11l1.77,2.8c.54.85,2.38-.91,2.22-1.81-.16-.86-.79-1.8-1.77-2.09Z"/>
      <path d="M33.21,14.17c1.94.58,3.56.75,5.64.7l.47-2.77-6.11,2.07Z"/>
      <path d="M41.25,24.95c-.66-.18-2.09.27-2.15.76.46.85.94,1.98,1.34,2.53.66.91,2.19-.61,2.09-1.35-.1-.78-.52-1.73-1.29-1.94Z"/>
      <path d="M50.51,39.26l-.84-4.21c-.25-1.27-1.93-2.16-3.23-2.3.72,1.3,1.39,2.68,2.21,3.85l1.87,2.66Z"/>
      <path d="M36.39,44.05c.91-1.98-1.88-4.36-3.44-4.46l1.96,4.01c.16.33,1.33.77,1.48.45Z"/>
      <path d="M34.09,8.73l-5.9-.75c-.13.33-.01,1.73.4,1.73,1.56.02,4.02-.47,5.5-.98Z"/>
      <polygon points="29.72 34.96 32.31 31.78 29.83 30.53 29.72 34.96"/>
      <path d="M29.1,26.68c-.67-.37-1.84-.42-2.14-.18l2.28,2.74c.34-1.16.37-2.28-.14-2.56Z"/>
      <path d="M25.48,29.45l2.45.03-1.31-1.23c-.22-.2-1.03.08-1.22.28-.14.15-.11.92.09.92Z"/>
      <path d="M39.16,23.3c.05.43.31,1.15.56,1.09l1.61-.39-.68-.92c-.2-.27-1.53-.13-1.49.22Z"/>
      <path d="M5.59,6.54l.56,3.71c4.6,1.78,16.05,3.88,19.85-.4l-.05-2.14.18-1.78c.04-.41-1.01-.83-1.47-.98-5.81-1.84-11.84-1.67-17.78-.25-.68.16-1.38,1.26-1.29,1.84ZM6.98,8.94l7.12,1.74c-2.57.3-4.97-.48-7.12-1.74ZM25.3,6.08c-2.3,2.68-16.78,2.13-19.02-.26,7.91,1.53,11.2,1.9,19.02.26Z"/>
      <path d="M8.09,18.81c6.17.6,11.22-1.19,16.66-3.29l.68-4.15c-5.14,2.56-10.51,3.56-16.31,4.06l4.64,1.59c-2.43-.04-4.05-.95-6.43-1.88l.76,3.66Z"/>
      <path d="M23.76,26.81v-3.31c-4.68,2.02-8.7,3.88-14,3.91-.12.55.02,1.77.26,2.43,5.03.76,9.32-.77,13.75-3.03Z"/>
      <path d="M11.01,19.85c2.55,1.33,10.13,4.34,12.89,3.04l.19-2.97c-6.71.15-5.69-1.71-13.08-.07Z"/>
      <path d="M4.31,30.04c1.55-4.32,3.17-8.77,1.85-13.5-1.21,3.99-2.27,7.87-4.09,11.36l2.24,2.14Z"/>
      <path d="M9.19,22.6c2.62,1.35,9.24,3.19,11.6,1.34-4.48-.97-8.16-2.49-12.31-4.47-.07.82.1,2.7.71,3.12Z"/>
      <path d="M7.38,14.45c3.78.34,7.37-.32,10.85-1.25-4.12-.46-7.7-.93-11.71-1.93-.2.75.08,2.64.86,3.18Z"/>
      <path d="M3.22,21.86c3.1-5.1,1.62-6.2,1.4-5.94l-.76.93-3.85,4.74,1.6,2.93,1.62-2.66Z"/>
      <path d="M24.05,29.99c-4.56,1.1-8.56,1.14-13.32.46.19.39.7,1.06.98,1.23,1.23-.13,2.5.38,3.47,1.3,1.49-1.34,3.26-1.17,4.54-.02,2.73-2.63,4.31-.97,4.33-2.96Z"/>
      <path d="M9.19,23.85l.45,2.88c2.62-.19,4.8-.59,6.97-1.18l-7.42-1.7Z"/>
      <path d="M24.41,16.49l-5.5,2.18c1.64.44,3.4.61,5.11.36.32-.78.48-1.99.39-2.55Z"/>
      <path d="M18.11,30.05c2.02.02,3.58-.25,5.77-.73l-.15-1.45-5.62,2.18Z"/>
      <path d="M6.16,31.11l2.57-1.39c.31-.85-1.18-1.4-2.02-.89-.69.41-1.02,1.81-.55,2.29Z"/>
      <path d="M6.06,15.57l-.79-3.79c-.25.23-.85,1.49-.96,2.21-.1.66,1.31,1.68,1.76,1.58Z"/>
    </g>
  </g>
</svg>