<?xml version="1.0" encoding="UTF-8"?>
<svg id="Warstwa_2" data-name="Warstwa 2" xmlns="http://www.w3.org/2000/svg" viewBox="0 0 43.88 50.41">
  <g id="icon-v9-equipment-pixarts-store">
    <g id="icon-v9-equipment-pixarts-store_378">
      <path d="M10.73,36.61l-2.97,6.25,6.2-2.99c2.7,1.99,5.61,3.38,8.9,4.03l2.17,6.52,2.41-6.46c8.09-.91,14.74-6.56,16.44-14.46-3.89,7.54-12.95,9.67-19.37,4.87-6.47-4.84-7.08-14.35-.95-19.78,5.14-4.5,11.98-4.66,17.58-.27-2.9-4.85-8.25-7.54-13.87-8.18l-2.27-6.13-2.13,6.31c-3.57.63-6.5,2.07-9.18,4.23l-6.26-3.02,3.13,6.25c-1.94,2.75-3.2,5.74-3.58,9.26l-6.98,2.31,6.98,2.44c.64,3.19,1.71,6.09,3.75,8.82ZM10,23.66c1.07-9.72,9.96-16.84,19.86-14.55-7.58.98-13.36,7.11-13.5,14.82l1.99,1.2-1.78,1.14c.65,8.35,9.63,14.57,18.03,12.77-3.39,1.95-7.15,2.85-11.04,2.13-7.23-1.34-12.68-7.23-13.5-14.56l-2.46-1.43,2.4-1.52Z"/>
      <polygon points="12.95 29.53 13.95 26.11 17.24 25.12 13.95 23.95 12.94 20.62 11.87 24.08 8.68 25.09 12.02 26.27 12.95 29.53"/>
      <path d="M15.24,19.34c.26-.5.43-1.29.74-1.38l1.26-.37c-1.12-.53-1.82-1.28-2.19-2.19-.29,1.07-.94,1.79-1.81,2.01,1,.46,1.57,1.05,1.99,1.93Z"/>
      <path d="M15.4,30.2c-.38,1.39-1,1.98-2.18,2.24.5.22,1.4.4,1.56.75l.64,1.41c.3-1.59.95-1.77,2.25-2.14-2.19-.97-1.32-.02-2.28-2.26Z"/>
      <path d="M20.4,36.72l-1.26-1.33-.99,1.33.95,1.44c.53-.71,1.03-1.25,1.3-1.45Z"/>
      <polygon points="19.79 12.79 18.83 11.4 17.71 12.69 18.93 13.75 19.79 12.79"/>
    </g>
  </g>
</svg>