<?xml version="1.0" encoding="UTF-8"?>
<svg id="Warstwa_2" data-name="Warstwa 2" xmlns="http://www.w3.org/2000/svg" viewBox="0 0 42.53 61.35">
  <g id="icon-v9-equipment-pixarts-store">
    <g id="icon-v9-equipment-pixarts-store_280">
      <path d="M21.56,21.2c2.93-2.9,2.7-4.09,5.9-3.42.72.15,2.01-1.33,1.59-1.92-5.08-7.27-1.13-5.48-4.99-9.21l-2.46,2.43c.09-.19-.89-1.48-1.34-1.26-.96.47-1.59,2.38-1.61,3.28l-1.33-1.72-3.56,6.69c.19,3.46,3.59-.73,7.8,5.12Z"/>
      <path d="M37.54,50.14c-.21-1.06-.47-1.97-.84-2.95-1.24,1.17-.63,2.51.84,2.95Z"/>
      <path d="M30.82,45.07c-.82-.69-1.55,5,.25,7.39,1.15-1.54,2.7-4.92.75-6.55l-1-.84Z"/>
      <path d="M18.51,44.37c-1.19,1.84-1.38,3.77-.67,5.55,1.66-1.47,2.15-3.79.67-5.55Z"/>
      <path d="M29.77,25.84c.8-.07,2.21-.72,2.55-1.23.89-1.32-.52-3.85-2.15-3.64-.87.11-2.29,1.49-2.55,2.36-.25.84,1.28,2.58,2.15,2.5ZM30.24,21.68c.54-.22,1.43.71,1.56,1.37.14.69-.59,1.64-1.65,2-.85.29-1.68-.76-1.68-1.58,0-.67.75-1.38,1.77-1.79Z"/>
      <path d="M27.34,20.82c-1.06.35-1.91.81-2.86,1.28l-3.38,1.64c2.59-.11,4.44-1.43,6.24-2.92Z"/>
      <path d="M10.23,43.42c-1.48.42-3.19-.71-3.97-1.69.17-.78.43-1.8.27-2.33-.6.47-1.24,1.92-.89,2.74.68,1.56,4.95,3.57,4.58,1.28Z"/>
      <path d="M9.42,53.51l2.67-2.82c.31-1.01.4-1.85.21-2.95l-1.87,1.33c-.48,1.5-.71,2.38-1.01,4.44Z"/>
      <path d="M11.28,39.13c-.47,1.54-.91,2.96-1.04,4.29,1.1-1.14,1.57-3.23,1.85-4.84-1.01-.54-1.79-.91-2.34-1.32-.34-.51-1.57-.48-2.11-.15-.69.43-1.3,1.59-1.09,2.29l1.68-2.01,3.06,1.74Z"/>
      <path d="M15.86,31.52c1,.75,2.47,1.82,3.18,2.85.07-.47.28-1.7.58-1.57l1.07.45c.53-1.32,1.35-2.72,2.29-4l.03-3.32,1.97,8.35c.87-1.17,1.58-2.31,2.43-3.78l1.59,1.77,1.49-2.66c1.02-.7,2.14.8,2.87,1.03l5.2,1.21-2.27-4.25c-.74.07-1.53.2-1.74-.13-.25-.4-.47-.86-.74-1.45l2.62.53-1.41-6.09c-.66-1.23-2.98-2.58-4.16-2.96-.79.59-1.78,1.53-2.49,1.73l-4.96,1.39c1.67-2.59,6.13-.78,7.57-5.33-1.31-2.43-2.45-4.64-3.08-7.38-1.29-5.6-1.2-4.11-6.16-7.92-4.04,1.92-6.83,2.9-6.54,8.14-1.43,4.29-5.1,5.71-2.39,8.97,2.64,3.18,3.77.36,5.56,2.94l-4.26-.58c-.79-.11-1.72-1.55-2.4-2.13-1.05.5-2.57,1.37-3.24,1.99l-1.89,4.02,2.31-.86c-.62,1.16-1.21,1.41-1.97,2.11-.93,1.2-1.59,2.72-2.17,4.24l4.14-2.31.24,3.21,5.57-4.81-.47,4.61c.82.09,1.12,1.6,1.63,1.98ZM27.62,23.34c.26-.87,1.68-2.25,2.55-2.36,1.63-.21,3.04,2.32,2.15,3.64-.34.51-1.75,1.16-2.55,1.23-.87.08-2.4-1.66-2.15-2.5ZM24.47,22.1c.96-.46,1.8-.93,2.86-1.28-1.8,1.49-3.65,2.81-6.24,2.92l3.38-1.64ZM13.76,16.08l3.56-6.69,1.33,1.72c.02-.9.65-2.81,1.61-3.28.44-.22,1.43,1.07,1.34,1.26l2.46-2.43c3.86,3.72-.09,1.94,4.99,9.21.41.59-.87,2.07-1.59,1.92-3.19-.67-2.97.53-5.9,3.42-4.21-5.85-7.61-1.66-7.8-5.12Z"/>
      <path d="M6.27,41.73c.77.98,2.48,2.1,3.97,1.69.14-1.32.57-2.75,1.04-4.29l-3.06-1.74-1.68,2.01c.16.53-.1,1.55-.27,2.33Z"/>
      <path d="M6.28,53.66c.12-.22.65-.57.83-.69.18-.11.6.8.59,1.08l-.09,5.79c1.31-.58,1.99-1.03,3.19-1.99l2.05,2.57,1.16-8.57c.28-2.06,1.7-3.96.67-6.27-.74-1.65.5-2.72.86-4.2.63-2.65.8-5.82,1.01-8.37-1.18-.36-1.8-.99-2.1-1.96l-1.18-1,.05-2.91c-1.32,1.5-1.94,2.64-2.55,4.02l.04-1.82-1.83,1.72-1.12-2.87c-.5.03-1.31,1.04-1.45,1.77l-3.16,16.44c-.73,3.79-1.72,7.05-3.23,10.97l3.98-2.8.63,2.27,1.67-3.19ZM12.09,50.69l-2.67,2.82c.29-2.06.52-2.93,1.01-4.44l1.87-1.33c.19,1.09.1,1.93-.21,2.95ZM6.54,39.4c-.21-.7.4-1.86,1.09-2.29.54-.33,1.77-.37,2.11.15.56.41,1.33.78,2.34,1.32-.28,1.61-.75,3.7-1.85,4.84.37,2.29-3.9.28-4.58-1.28-.35-.81.29-2.27.89-2.74Z"/>
      <path d="M35.66,53.22c.79.88,1.4,1.91,2.14,3.18.2.15.5-.6.69-1.35l4.04,2.31-2.81-9.82c-1.22-4.27-3.72-4.86-3.1-7.46l2.12,2.37-1.81-9.57c-.24-1.27-2.52-1.39-3.36-.68l-1.81-1.51.66,5.41-1.65-5.18c-.74,1.35-1.31,2.16-2.12,2.85l-.96-1.6c-.31.49-1.25,1.73-1.22,2.39.1,2.24.32,5.04.66,7.28.09.56.72,1.69.68,2.24-.11,1.68-.3,3.38.07,4.82,1.07,4.1,1.61,7.97,1.51,12.45l2.59-3.01,1.94.32c-.43-2.82-.39-5.06.69-7.66l1.05,2.21ZM36.7,47.19c.38.99.63,1.89.84,2.95-1.47-.44-2.08-1.78-.84-2.95ZM31.07,52.46c-1.8-2.39-1.07-8.08-.25-7.39l1,.84c1.95,1.63.4,5.02-.75,6.55Z"/>
      <path d="M14.55,56.01c.91-.39,1.97-.88,2.53-.94.7.36,2.1.88,2.37.26.9-2,1.36-3.46,1.94-5.38l2.75,8.34,1.83-3.28c.55.08,1.48.63,2.31,1.07l-1.19-6.81c-.19-1.08-.13-2.38-.06-3.67.05-.91-.6-2.16-.69-2.97l-.78-6.58c-.43.13-1.13.23-1.19-.04l-1.2-5.39c-1.52.82-1.64,3.84-2.46,3.64l-.73-.18-.64,2.73-1.79-2.59c-.6,2.65-.45,5.19-1.23,7.59-.48,1.47-1.09,2.59-.67,4.24.58,2.25.04,3.99-.75,6.08-.27,1.01-.28,2.82-.35,3.89ZM18.51,44.37c1.48,1.76,1,4.08-.67,5.55-.71-1.78-.52-3.71.67-5.55Z"/>
      <path d="M30.15,25.05c1.06-.36,1.79-1.3,1.65-2-.14-.66-1.02-1.59-1.56-1.37-1.02.41-1.77,1.12-1.77,1.79,0,.82.84,1.87,1.68,1.58Z"/>
    </g>
  </g>
</svg>