<?xml version="1.0" encoding="UTF-8"?>
<svg id="Warstwa_2" data-name="Warstwa 2" xmlns="http://www.w3.org/2000/svg" viewBox="0 0 56.32 55.2">
  <g id="icon-v9-equipment-pixarts-store">
    <g id="icon-v9-equipment-pixarts-store_09">
      <path d="M13.61,24.06c5.63,3.82,4.37,4.09,7.32,10.02l6.55-4.66.04-10-6.34-4.2c-2.78,2.73-5.52,5.43-7.57,8.83ZM24.52,21.1l-.34,1.07-2.43-1.65c-1.37,2.63,3.62,2.53,2.19,4.68l-2.42-1.47v3.71c-.01.17-.49.6-.62.7-.17.13-.68-.37-.68-.71l.1-9.14c1.2.25,4.28,2.51,4.19,2.81Z"/>
      <path d="M35.14,15.17l-6.32,4.3.06,9.93,6.66,4.67,2.39-5.14c.97-2.08,2.91-3.23,4.79-4.49-1.38-2.89-3.51-5.29-5.79-7.53l-1.78-1.75ZM37.04,26.78c.11.13.17.67.17.85,0,.23-.8.25-.99.05l-1.89-1.94-1.83,1.96c-.15.16-.8.26-.96.14-.22-.16-.16-.81.06-1.06l1.77-2.02-2.37-2.64,3.44-3.75,3.29,3.71-2.4,2.67,1.74,2.04Z"/>
      <path d="M45.58,19.12l-4.8-4.53c.04-.55.26-1.64.49-2.19l4.24-10.16c-.8-.91-1.65-1.66-2.63-2.24l-4.45,3.86c.62,2.17,2.05-.88,3.56-.93l-4.93,12.18,8.26,7.41,11-5.88c-.45-1.12-.84-1.91-1.38-2.79l-9.36,5.27Z"/>
      <path d="M.06,16.53l11.14,5.93,8.13-7.52L14.41,2.96l2.84,1.6.45-.41c.11-.1-.23-.67-.35-.78l-3.83-3.37c-1.12.62-2.1,1.53-2.48,2.56l4.91,11.78-5.15,4.72L1.5,13.85.06,16.53Z"/>
      <path d="M41.86,13.98l3.92,3.8,8.3-4.93-1.12-7.32c-2.07-1.01-4.2-1.71-6.49-2.4l-4.6,10.85ZM47.6,6.38h3.7c.38,2.13.66,3.66.6,5.5-1.61-1.06-1.36-2.4-1.77-3.89l-1.93-.33-.97-.17c-.27-.05.1-1.12.37-1.12ZM49.69,11.36c.59.32.04,1.99-.83,2.3l-1.25-2.71-1.74-.52c-.42-.13-.3-1.29-.08-1.8,2.66,1.28.04.61,3.9,2.73Z"/>
      <path d="M2.25,12.89l8.53,4.8,3.86-3.87L9.92,3.1l-6.43,2.23-1.23,7.56ZM10.17,8.84c.38-.21.86.96.71,1.33-.2.5-1.06.56-1.87.33l-1.49,3.26c-.75-.86-1.26-1.79-1.58-2.73l2.43-.17c.51-.73,1.17-1.66,1.8-2.01ZM5.06,6.32l4.02.22c.17,0,.29.85.13.87l-1,.17c-3.97.69-.97,2.52-3.72,4.34.04-2.12.22-3.47.58-5.6Z"/>
      <path d="M0,52.94l5.08-1.05c.38-2.62.83-4.98,1.59-7.48l2.28-7.45L.15,31.85,0,35.44c2.09.88,3.58,1.56,5.43,2.57l-2.64,10.83-2.76.24-.03,3.86Z"/>
      <path d="M51.05,38.02l5.03-2.54c.18-1.09.18-2.51.02-3.51l-8.65,5.13,1.84,5.83c.95,3.01,1.53,5.89,2.03,9.01l4.88.93.03-3.81-2.77-.22-2.4-10.83Z"/>
      <path d="M34.28,1.7c-4.13.96-7.92.97-12.05-.05-1.7,1.44-3.03,3.02-4.32,4.87l10.32,6.53,10.3-6.61-4.24-4.73ZM28.09,10.85l-7.9-4.97,2.33-2.79c3.89.83,7.54.8,11.39-.01l2.38,2.88-8.2,4.89Z"/>
      <path d="M8.27,34.18c1.92-1.76,3.94-12.03,1.45-9.02-.44.53-.85,1.07-1.25,1.14-.33.06-1.15-.23-1.47-.36l-4.17-1.74-2.07,6.44c3.24.37,5.29,1.2,7.51,3.55Z"/>
      <path d="M48.19,34.18c2.26-2.36,4.49-3.17,7.5-3.46l-2.21-6.47-5.33,2.33-2.41-1.95c-.53,3.7.65,6.58,2.44,9.56Z"/>
      <path d="M21.95,52.24l6.3,2.96,6.21-2.93-1.58-7.2-9.37-.04-1.55,7.21ZM24.96,46.73l6.31-.02,1.36,4.48-4.38,2.18-4.29-2.08,1.01-4.56Z"/>
      <polygon points="27.51 34.83 27.41 31.19 15.06 39.76 18.16 41.14 27.51 34.83"/>
      <polygon points="28.9 34.9 38.49 41.24 41.32 39.74 28.83 31.11 28.9 34.9"/>
      <path d="M38.3,30.95l5.04,3.67c2.07-4.93,1.84-4.14.04-9.11-2.31,1.27-4.23,2.86-5.08,5.45Z"/>
      <path d="M19.26,41.65c2.69,1.75,5.31,2.09,8.32,1.71l-.09-7.1-8.23,5.39Z"/>
      <path d="M37.19,41.67l-8.36-5.49-.05,7.08c2.92.52,5.85.27,8.41-1.59Z"/>
      <path d="M28.77,13.89l.14,3.95c2.9-1.82,5.08-3.16,7.42-5.1.62-1.32,1.2-2.93,1.76-4.64l-9.32,5.79Z"/>
      <path d="M13.03,25.68c-.55,1.56-1.17,3.14-1.48,4.6.31,1.4,1.01,2.97,1.6,4.39l4.85-3.64c-.76-2.65-2.58-4.33-4.96-5.34Z"/>
      <path d="M27.48,17.8l.02-4.01-9.19-5.61c1.82,6.51,4.04,5.89,9.17,9.62Z"/>
      <path d="M1.99,47.36l2.13-8.83L.11,36.83l-.05,10.66c.04.47,1.8.38,1.92-.14Z"/>
      <path d="M22.2,44.82l-4.47-2.01-2.03,6.6,4.94,2.3,1.56-6.89ZM19.3,49.27c-.91-.17-1.81-1.6-1.56-2.31.3-.84,1.7-1.47,2.62-1.23l-1.65,1.49.58,2.06Z"/>
      <path d="M54.36,47.46c.11.47,1.87.4,1.87,0l.04-10.65-3.94,1.9,2.03,8.76Z"/>
      <path d="M38.79,42.9l-4.44,1.91,1.5,6.97,4.99-2.36-2.05-6.52ZM37.03,49.46c-.72-1.31-1.03-2.52-1.11-4.04.84.03,2.37.21,2.57.81.26.75.33,1.54.42,2.57l-1.34-1.15-.54,1.81Z"/>
      <path d="M39.86,42.33l2.01,6.49,3.34-1.82-1.83-6.19-3.53,1.51ZM42.86,46.42l-.4-1.24-.8-.99c-.2-.25.47-1.1.74-1.25l.22.94c.05.2.65.23,1.14.35l-.9,2.2Z"/>
      <path d="M14.43,48.88l2.17-6.53-3.41-1.55-2.02,6.1,3.26,1.98ZM13.73,43.07c.1-.17.83.14.91.33.08.18.13.74-.06.78l-.71.13c-.14.02,0,.75.09.99.11.33-.71.47-1.15.41.13-.78.58-2.05.93-2.63Z"/>
      <path d="M13.34,35.75l1.11,2.75,5.23-3.72c-.35-1.12-.84-2.27-1.24-2.95l-5.1,3.92Z"/>
      <polygon points="43.08 35.76 37.79 31.77 36.73 34.78 42.07 38.52 43.08 35.76"/>
      <path d="M7.61,24.89c.65-.45,1.3-1.21,1.56-1.76l-6.63-3.59-.89,2.54,5.96,2.81Z"/>
      <polygon points="54.82 22.03 53.81 19.53 47.2 23.21 48.69 24.9 54.82 22.03"/>
      <path d="M35.7,22c-.11-.48-.68-1.09-1.41-1.75l-1.57,1.71c.44.51.94,1.05,1.44,1.51.41.37,1.65-.93,1.53-1.47Z"/>
      <path d="M30.53,47.85l-4.7-.04-.67,2.94c3.53,1.75,2.5,1.82,6.14,0l-.77-2.89Z"/>
    </g>
  </g>
</svg>