<?xml version="1.0" encoding="UTF-8"?>
<svg id="Warstwa_2" data-name="Warstwa 2" xmlns="http://www.w3.org/2000/svg" viewBox="0 0 32.71 55.81">
  <g id="icon-v9-equipment-pixarts-store">
    <g id="icon-v9-equipment-pixarts-store_374">
      <path d="M6.13,36.56c.3-1.88,1.62-3.23,3.59-3.2l2.18.04-1.16,2.38,2.46-1.1.03,10.94c0,1.95-1.08,3.46-3.06,3.7.4,1.51,1.71,2.26,3.19,2.22.76,1.67,1.6,2.89,3.07,4.26l3.13-4.06c.96-.63,2.9-.66,2.81-2.43-1.45-.1-2.92-1.36-2.93-3.02l-.03-11.62,2.44,1.03-1.12-2.4c1.32,0,2.35.02,3.5.23,1.35.25,1.99,1.75,2.27,2.91,1.48-.54,2.04-1.93,1.97-3.25,1.56-.78,2.67-1.5,4.22-2.85l-4.13-2.97c-.19-1.21-.68-2.84-2.17-3.11-.7,3.29-3.1,3.22-5.64,2.97l1.06-2.33-2.36,1.21-.04-2.52c-.03-1.86,1.39-3.2,3.17-3.24-.47-1.8-2.04-2.25-3.51-2.23l-1.1-2.59.35-1.33-.82.57.11-5.4c0-.49-1.18-.89-1.59-.81-.34.07-1.08.57-1.07.95l.13,5.02-.85-.21.43,1.4-1.24,2.4c-1.5,0-3.14.71-3.27,2.29,1.2.11,2.65.87,2.89,2.2.21,1.13.18,2.14.15,3.51l-2.43-1.18,1.12,2.4-2.51-.03c-1.71-.02-2.8-1.31-3.15-3.11-1.47.51-2.13,1.96-2.13,3.3-1.57.74-2.7,1.54-4.1,2.87,1.47,1.23,2.66,2.02,4.15,2.79-.01,1.34.52,2.68,1.98,3.35ZM6.05,27.7c.61.38,1.96,1.22,2.77,1.23l6.01.04v-6.4c-.01-.87-1.08-2.05-1.66-2.53.49-.17,1.38-.48,1.58-.81l1.51-2.44c1.93,1.99.52,2.24,2.93,3.33-.25.34-1.29,1.55-1.3,2.19l-.07,6.66,6.47-.13c.71-.01,1.88-.97,2.4-1.36.83,2.45,1.41,1.09,2.73,2.8.5.64-2.2,1.01-2.76,2.79-.93-.69-2.2-1.31-3.33-1.3l-5.5.08v14.48c-.01,1.23.7,2.44,1.45,3.39-2.09.46-2.21,3.27-2.94,2.98-1.45-.57-.48-2.11-2.85-2.98.54-.86,1.39-2.17,1.38-3.37l-.02-14.5-5.89-.05c-.86,0-2.21.77-2.79,1.14-.55-.56-1.34-1.26-2.01-1.73l-.93-.66c-.72-.51,2.31-1.18,2.82-2.84Z"/>
      <path d="M14.11,12.15c.15-.64.2-2.1-.24-2.47-1.88-1.56-2.22-4.26-.59-6.05,1.66-1.83,4.42-1.88,6.07,0,3.44,3.91-2.38,6.28-.8,8.45,3.07-1.04,4.48-4.04,3.9-7.08C21.92,2.1,19.33,0,16.33,0c-2.98,0-5.53,2.14-6.13,4.98-.63,3.03.91,6.02,3.92,7.16Z"/>
    </g>
  </g>
</svg>