<?xml version="1.0" encoding="UTF-8"?>
<svg id="Warstwa_2" data-name="Warstwa 2" xmlns="http://www.w3.org/2000/svg" viewBox="0 0 52.39 56.9">
  <g id="icon-v9-equipment-pixarts-store">
    <g id="icon-v9-equipment-pixarts-store_159">
      <path d="M37.88,10.33c3.57,3.9,5.82,8.47,4.76,13.74,3.22.38,6.32,1.08,8.03,3.92-2.55-2.38-5.92-2.88-9.51-2.89,1.69-6.7-1.45-13.3-7.37-16.2l-.06,2.83c4.14,2.6,5.98,7.27,4.93,12.22l2.58,2.41-1.32,3.38,3.47-.37c1.87-.2,3.7.94,4.59,2.34,3.12,4.93-3.75,12.37-7.61,14.44,1.53-1.93,2.95-3.68,3.93-5.5l-2.76-3.2-2.95,2.51c1.8-2.88,4.07-5.11,4.18-8.62-1.83,3.9-4.11,6.85-7.38,9.28-6.53,4.85-14.46,8.37-22.8,6.75,2.2,1.99,4.85,1.27,7.55,1.68l-2.03.97c2.71,5.09,5.75,2.82,10.39,2.53-4.14,2.07-13.57,3.76-16.54-1.05-2.96-4.81,3.55-10.69,7.07-13.3,1.71-1.28,3.75-1.65,5.96-1.89l-4.32-1.09.44-3.39c-8.93-3.54-7.64-8-8.69-11.92-.74-2.75-2.21-.25,1.08-7.39-3.16,2.44-4.09,6.23-3.66,10.11.62,5.7,3.68,8.95,8.78,11.53-4.98,3.25-9.69,7.57-10.97,13.76-.32-4.92,4.28-10.03,8.04-13.49-5.48-3.36-8.03-9.16-6.9-15.87C.75,27.13-3.52,38.41,3.68,48.65c2.36,3.35,5.14,6.3,9.23,7.52,9.2,2.76,21.49-2.86,28.89-8.36,3.74-2.78,6.76-6.09,9.01-10.08,1.52-2.7,1.95-5.58,1.26-8.61-1.69-7.49-6.34-15.81-14.2-18.8Z"/>
      <path d="M16.38,10.21l-1.86,4.16,14.63-6.07-5.22-1.49c-.99-.28-1.75-.49-2.92-.31l-.9-1.14c-.32-.4-1.24-.83-1.7-.7-.46.13-1.13.95-.99,1.36.21.59.51,1.6.22,1.94-.54.56-.92,1.48-1.26,2.26Z"/>
      <path d="M25.21,34.45c2.07,1.35,4.66,1.47,6.94,1.72.6.27,1.77,1.71,2.55,1.17.67-.47.58-2.08.57-2.82,1.26-1.64,2.68-3.41,2.9-5.92l-12.96,5.86Z"/>
      <rect x="12.45" y="12.04" width="20.23" height="2.36" transform="translate(-3.37 9.83) rotate(-22.92)"/>
      <path d="M38.05,25.75c-.42-.18-1.47.04-1.95.26l-13.11,5.9c-.05.86-.02,1.7.23,2.23l15.84-7.02c-.11-.43-.6-1.2-1.01-1.37Z"/>
      <path d="M19.59.37c-2.22-.85-4.7-.25-5.89,1.87-.66,1.17-.66,2.7.05,3.79.59.91,1.51,2.05,3.14,1.26l-1.51-2.41c-1.04-1.66.89-2.97,2.05-3.17,3.21-.55,2.82,3.36,4,3.51,1.35-1.82.11-4.11-1.85-4.86Z"/>
      <path d="M16.08,18.78l7.13,11.64c.36.35,1.83-.44,1.59-.85l-7.04-11.67c-.56-.1-1.57.45-1.68.88Z"/>
      <path d="M24.4,22.58c.58.91,1.85,1.39,2.89,1.09-.66-.9-1.35-2.42-.05-2.71.56-.07,1.02,1.46,1.12,2.13.61-.37,1.19-1.41,1.16-2.16-.03-.62-.57-1.83-1.09-2.17l-4.13-2.68.24,3.48c-.83.98-.74,2.09-.15,3.01Z"/>
      <rect x="32.11" y="11.76" width="1.89" height="14" transform="translate(-4.41 12.36) rotate(-19.88)"/>
      <polygon points="27.89 28.48 31.9 26.69 30.27 23.08 25.83 25.11 27.89 28.48"/>
    </g>
  </g>
</svg>