<?xml version="1.0" encoding="UTF-8"?>
<svg id="Warstwa_2" data-name="Warstwa 2" xmlns="http://www.w3.org/2000/svg" viewBox="0 0 59.19 42">
  <g id="icon-v9-equipment-pixarts-store">
    <g id="icon-v9-equipment-pixarts-store_195">
      <path d="M38.84,29.74c-.08-2.42.97-4.59,3.18-5.73,1.1-.57,2.96-.43,3.69.61l3.73,5.3c.41-.9.79-2,.83-2.65.02-.33-1.11-.88-1.29-1.24-.89-1.78-1.16-5.36.33-7.26.93-1.19,1.16-2.14,1.17-4.08l-3.29,3.78c-.47.54-.69,2.01-.98,2.8l-.78-1.87-7.12,2.56-1.58,3.41c-.37-1.19-.72-2.31-1.13-2.99-4.45.56-8.42.53-12.68-.07l-.56,3.43-1.26-3.8-6.22-2.11-1.35,1.73c-.71-4.79-2.12-2.83-4.64-6.97-1.71,4.44,4.11,3.24,1.23,11.56l-1.54,1.1,1.1,2.68,3.72-5.23c.63-.89,2.04-1.29,3.09-.9,2.57.95,4.01,3.25,3.87,5.99-.07,1.5-1.12,2.68-2.51,3.08l-4.21,1.24c2.14,1.55,4.52,2.52,7.09,3.15l1.22-2.36.69,2.83,4.2.54-2.01-6.35c-.81-2.56.62-4.86,3.27-5.58,2.82-.76,6.87,1.13,6.48,4.45-.31,2.6-1.41,4.84-2.02,7.38l4.06-.38.98-2.99,1.48,2.4c2.47-.8,4.37-1.55,6.75-2.99l-4.43-1.36c-1.52-.47-2.48-1.56-2.53-3.11Z"/>
      <path d="M13.42,17.64l2.83-.81-.42,2.03c6.26,2.69,13.11,3.28,19.75,2.13,1.2-4.57-4.95.16-15.92-3.27-3.43-1.08-8.42-3.35-7.95-7.4.52-4.39,7.62-6.57,11.51-7.49-.16-.24-.53-.76-.72-1-.53-.64-8.05,1.91-11.21,4.48-2.61,2.12-3.45,5.48-1.36,8.25.87,1.16,2.3,2.31,3.49,3.06Z"/>
      <path d="M47.58,11.01c-.18,4.68-7.54,6.75-11.3,7.56l2.33,2.09c4.54-1.2,12.53-4.63,11.78-9.96-.76-5.43-8.21-7.64-12.68-8.9-.84-.24-1.82.35-1.91,1.08,4.11.85,11.96,3.2,11.78,8.13Z"/>
      <path d="M14.7,8.13l2.47-.41-1.77,2.54,1.62-.27-1.35,3.25,1.58.1c.26.02-.39,1.3-.23,1.49,1.07,1.31,4.41,2.22,6.34,1.75.38-.29.82-1.33.82-1.82l-.08-10.9c-3.71.72-7.07,1.57-9.4,4.28ZM20.99,15.7c-.99,0-1.79-.8-1.79-1.79s.8-1.79,1.79-1.79,1.79.8,1.79,1.79-.8,1.79-1.79,1.79ZM20.92,6.19c.99,0,1.79.8,1.79,1.79s-.8,1.79-1.79,1.79-1.79-.8-1.79-1.79.8-1.79,1.79-1.79Z"/>
      <path d="M36.93,16.96c2.02-.39,3.78-1.02,5.51-1.98l-.7-1.85,1.73.18-1.35-3.45,1.48.22-1.59-2.56,2.69.64c-2.72-2.77-6.15-3.75-9.78-4.28l.02,11.13c0,1.08.91,1.67,2,1.96ZM38.28,6.18c1,0,1.81.81,1.81,1.81s-.81,1.81-1.81,1.81-1.81-.81-1.81-1.81.81-1.81,1.81-1.81ZM38.19,12.17c.97,0,1.76.79,1.76,1.76s-.79,1.76-1.76,1.76-1.76-.79-1.76-1.76.79-1.76,1.76-1.76Z"/>
      <path d="M27.38,28.12c-.69.36-1.73,1.65-1.47,2.56,1.13,3.96,2.26,7.33,3.66,11.31l3.5-10.27c.3-.87.06-2.05-.44-2.79l-2.24,7.56.18-8.62c-.84-.42-2.29-.22-3.19.24Z"/>
      <path d="M40.76,27.43l5.61,4.42-6.05-2.01c.13.7.83,1.44,1.64,1.69l8.75,2.72c-2.13-3.51-4-6.43-6.49-9.15-1.15-.84-3.68,1.01-3.46,2.32Z"/>
      <path d="M14.81,25.02c-2.38,3.06-4.39,5.83-6.6,9.36l8.42-2.65c.92-.29,1.91-.62,2.18-1.89l-6.65,2.43,6.43-4.98c-.63-1.6-2.38-2.68-3.77-2.28Z"/>
      <path d="M49.67,22.23l5.44.8-4.76,1.28c-.24.06-.66.72-.47.76,1.58.37,6.9-1.51,9.31-2.22-2.78-1.52-5.49-2.73-8.55-4.01-.82.87-1.12,2.22-.97,3.38Z"/>
      <path d="M9.2,24.39c-.16-.06-.59-.19-.83-.24l-4.51-.96,5.65-.96c.11-1.08-.25-2.53-1-3.37-3.04,1.34-5.43,2.44-8.51,4.03l8.96,2.53c.16-.47.41-.98.24-1.04Z"/>
      <path d="M4.83,12.62h2.16c.52-.02.6-1.61.44-2.06l-5.79,1.11c2.02,1.31,3.64,2.43,5.63,3.22-.85-1.48-1.53-1.53-2.44-2.27Z"/>
      <path d="M54.19,12.58c-.73,1.14-2.5.72-2.29,2.56l5.55-3.47-5.75-1.14.23,2.1,2.26-.04Z"/>
      <polygon points="16.42 2.38 12.05 0 13.23 3.8 16.42 2.38"/>
      <polygon points="47.04 .16 42.89 2.3 45.84 3.93 47.04 .16"/>
    </g>
  </g>
</svg>