<?xml version="1.0" encoding="UTF-8"?>
<svg id="Warstwa_2" data-name="Warstwa 2" xmlns="http://www.w3.org/2000/svg" viewBox="0 0 45.55 50.86">
  <g id="icon-v9-equipment-pixarts-store">
    <g id="icon-v9-equipment-pixarts-store_368">
      <path d="M28.1,25.25l3.96-6.26-2.67,1.17c-.15.07-.6.54-.51.66l.07.09.06-.03s-.02.05-.03.07l.44.55-3.16,3.22c-1.37-1.98,2-2.13,2.72-3.77l-.03-.04-3.2,1.79-3.02-16.8-3.11,16.93-4.01-2.63c1.59-.81,2.95-1.43,4.61-2.6-2.14-.45-3.94,1.02-4.78,2.39l-2.11-1.13c.88,1.92,1.62,3.24,3.03,4.69l-.06-.14-.09-.18h0s-1.13-2.47-1.13-2.47l4.1,4.19c-.62.31-1.22.34-1.43.1l-1.54-1.81.08.17,1,2.07L0,28.33l8.18,1.54,4.23.76,4.69.87-3.63,5.94c1.79-.04,2.14-1.3,2.94-2.56.48-.76,1.87-2.04,2.51-2.65.12-.11.71.33.62.48-.08.14-.33.53-.49.68l-2.32,2.15,2.98-1.64,3.09,16.97,3-16.77,6.23,3.88c-1.1-2.53-2.27-4.43-4.09-6.22l1.77,3.45c-1.32-.96-2.26-1.84-3.46-3.33l19.3-3.51-17.45-3.12ZM19.65,31.3l-14.89-2.72,17.85-.16-2.8-3.11,2.74-14.89.22,17.88-3.13,2.99ZM22.88,46.51l-.05-17.75,2.84,2.67-2.79,15.08ZM23.07,28.44l2.96-2.88,14.44,2.49-17.41.39Z"/>
      <path d="M29.02,20.87l-.06.03.03.04s.02-.05.03-.07Z"/>
      <polygon points="16.22 23.24 16.3 23.42 16.23 23.25 16.22 23.24"/>
      <path d="M8.03,25.93c.9-6.43,5.86-11.36,12.27-12.36.31-.7.46-1.57.44-2.24-3.7.18-6.65,1.83-9.39,4.04l-3.68-2.14,2.18,3.63c-2.36,2.89-3.92,5.88-4.13,9.59.9.02,1.8-.12,2.32-.52Z"/>
      <path d="M34.17,15.34c-2.82-2.36-5.96-3.82-9.58-4.08.07.82.23,1.65.56,2.25,6.45,1.05,11.21,5.95,12.38,12.34.28.52,1.86.72,2.23.36-.34-3.55-1.92-6.7-4.06-9.34l1.93-3.5-3.47,1.98Z"/>
      <path d="M37.48,30.69c-1,6.56-6,11.39-12.5,12.5l-.38,2.13c3.92-.21,6.71-1.95,9.64-4.05l3.48,2.08-2-3.64c2.21-2.85,3.82-5.93,4.07-9.48l-2.31.47Z"/>
      <path d="M5.79,30.15c.14,3.78,1.87,6.68,4.02,9.57l-1.94,3.58,3.52-2c2.9,2.33,5.93,3.78,9.43,4-.02-1.18-.2-2.05-.61-2.13-6.35-1.24-11.09-6.01-12.2-12.39-.69-.26-1.44-.47-2.21-.62Z"/>
      <path d="M22.58,0c-1.87.06-3.4,1.45-3.65,3.27-.25,1.84.7,3.74,2.63,4.23,1.17-1.13-2.87-3.01-.56-5.28.94-.92,2.52-1.03,3.44.04,2.29,2.68-1.87,3.95-.28,5.1,1.84-.5,2.71-2.64,2.3-4.39C26.05,1.18,24.45-.06,22.58,0Z"/>
      <path d="M12.21,25.83c.85-1.01,1.81-3.29,1.97-4.13.39-2.07-3.24,3.16-1.97,4.13Z"/>
      <path d="M14.14,35.38c-.14-1.75-.87-3.39-2.16-4.32.16,1.77.64,3.36,2.16,4.32Z"/>
      <path d="M29.76,19.64c-.92-1.46-2.63-2.23-4.46-2.26,1.02,1.37,2.61,1.87,4.46,2.26Z"/>
      <path d="M31.31,35.64c1.02-1.24,1.42-2.06,2.46-3.86l-.75-.66c-.93,1.59-1.83,2.63-1.71,4.52Z"/>
      <path d="M20.09,39.12c-1.38-1.33-2.76-2.09-4.5-2.11,1.16,1.28,2.84,2.22,4.5,2.11Z"/>
      <path d="M25.28,39.06c1.66.18,2.88-.55,4.27-1.72.35-1.27-4.39,1.18-4.27,1.72Z"/>
      <path d="M33.56,25.71c-.24-1.8-.84-3.06-2.04-4.51-1.27-.81,1.68,5.47,2.04,4.51Z"/>
    </g>
  </g>
</svg>