<?xml version="1.0" encoding="UTF-8"?>
<svg id="Warstwa_2" data-name="Warstwa 2" xmlns="http://www.w3.org/2000/svg" viewBox="0 0 48.89 57.06">
  <g id="icon-v9-equipment-pixarts-store">
    <g id="icon-v9-equipment-pixarts-store_158">
      <path d="M43.05,34.72c1.92-5.47-.98-12.58-2.02-11l-.95,1.44c1.36,1.34,2.15,2.93,2.21,4.72-.79-1.54-1.45-2.85-3.01-3.6l-2.49,1.34c7.31,3.09,1.11,14.73-3.05,17.9.79-1.76,2.27-3.09,2.58-4.94.3-1.75-1.62-3.81-3.22-4.07l-3.96,3.72c1.61-2.5,5.05-7.19,4.08-10.45-.95,3.22-2.01,6.06-4.22,8.59-4.38,5.02-10.25,8.79-17.39,9.12,1.6,1.66,3.66.65,5.39.6-.46.33-1.25,1.05-1.5,1.63,1.25,2.44,4.18,3.74,6.97,2.74l3.63-1.3c-3.08,2.34-6.89,3.48-10.8,3.09-2.37-.24-4.43-1.93-4.74-4.23-.38-2.86.54-5.17,2.04-7.72l-2.67-.91c-2.07,3.46-2.79,6.7-2.73,10.42-1.39-3.57.23-7.38,1.56-10.72l-8.39-1.83c-1.27,6.54,1.99,11.13,6.64,14.91,2.59,2.11,5.59,3.18,9,2.8,4.36-.49,8.19-2.1,11.95-4.38,6.85-4.15,12.41-10.24,15.09-17.88Z"/>
      <path d="M27.11,4.51c-3.31,2.94-6.14,5.59-8.93,8.9,5.3,1.95,8.58,5.67,10.04,10.78,4.06.52,8.9-2.22,11.57-4.81l-3.88-2c.05-1.6.24-3.25-.61-4.6-.6-.95-2.72-.77-3.31-1.54-.52-.68-.21-2.77-.99-3.25-.87-.53-2.34-.62-3.32-.77l-.56-2.7ZM29.94,20.8c.31-.35,1.37-.21,1.61.27l-.8.25c-.21.07-.58.57-.42.72l.9.85c-.22.07-1.17,0-1.47-.27-.35-.31-.18-1.42.18-1.82Z"/>
      <path d="M5.86,31.12l4.72-3.19-3.75,4.17,13.88,4.67c1.52-1.62,2.87-3.15,4.16-4.87-.07-.94-.98-2.12-1.76-2.39l-1.08,1.96,1.16,1.21c-.83.39-1.16.22-1.96-.37l-2.33,2.63c-.1.11-.91-.02-.9-.17,0-.15.08-.59.23-.77l3.49-3.93c.3-.34,1.04-.7.91-.99-1.27-2.78-5.68-3.64-8.37-3.97-.1-2.05-.26-3.77-.65-5.51-.95-.02-.93.17-.58-.87l-5.67,2.56c-.7.32-1.17,1.05-1.03,1.82,1.75-1.04,3.11-2.31,5.19-2.66l-5.68,4.15c-.66,1.85-.32,4.53.04,6.5Z"/>
      <path d="M.54,37.25l16.88,4.15c1.2-.93,2.2-2.13,2.61-3.66l-15.15-4.64c-.89-3.42-.68-6.83,0-10.61-1.39.61-3.16,1.41-3.83,2.5C-.52,28.91-.01,33.01.54,37.25ZM14.91,37.37c.54-.35,1.86.19,1.75.87l-.97.18c-.21.04-.71.5-.56.65l.82.83c-.35.03-1.32-.22-1.58-.6-.33-.48.07-1.63.54-1.93ZM4.53,34.32l-2.07,1.18,1.3.62c-.59.48-1.76.4-2.03-.23-.27-.63.26-1.76.79-2.02l1.17-.56c.31-.15,1.12.84.84,1.01ZM3.16,24.7c.34.41.36,1.61.22,2.04l-.65-1.33-1.13,1.24-.03-1.37c0-.41,1.32-.9,1.58-.59Z"/>
      <path d="M32.07.41c-1.57.3-2.85,1.59-3.88,2.62l.66,3.05c1.25.07,2.59.07,3.42.93.61.63.6,2.41.85,3.2,1.07.61,3.16.68,3.61,1.95.5,1.39.47,2.97.6,4.5l3.76,1.85c3.61-1.47,1.23-7.34-.98-9.47-.75,1.66-1.38,3.15-2.95,2.38,1.09-.94,2.41-1.78,2.41-3.24,0-.87-.98-2.38-1.65-2.84l-2.6-1.78c-.13.46-.47,1.62-.68,2.15-.13.31-1.46,0-1.58-.15.94-.72,1.93-1.46,1.63-2.79-.21-.92-1.64-2.56-2.64-2.37ZM39.09,14.58c.19-.33.95-.45,1.43-.55l1.59-.33-1.17,2.47-2.28-.27c-.03-.09.25-1.03.43-1.33ZM35.2,7.16l2.51-.4c-.12.61-.33,1.66-.66,2.07-.34.41-1.47.43-2.72.43l.87-2.1ZM32.2,4.14c-.22.32-1.13.27-1.62.26-.43-.11-.67-.18-.86-.29-.24-.14.11-1.15.36-1.23l2.5-.77c-.07.91-.16,1.71-.37,2.03Z"/>
      <path d="M15.99,16.38c-.41-.13-1.58.65-1.53,1.05.75,1.93,1.05,4.07.98,6.15,3.54.35,6.78,1.73,8.76,4.76l3.17-2.12-1.62-4.03c-1.16-2.87-6.68-9.25-9.8-6.36,2.29.58,2.55,2.9,2.51,4.87,3.31.34,6.82,2.56,6.84,6.14-1.94-2.92-3.73-5.53-7.25-5.76.28-1.83-.41-3.89-2.05-4.7Z"/>
      <path d="M17.83,11.71c2.21-2.08,3.73-3.82,5.49-6.07-1.66-.05-3.13.12-4.57.56l-.92,5.5Z"/>
      <path d="M34.55,26.95c3.21-1.13,4.93-3.15,5.71-5.78l-6.18,3.61c-.06.64.19,1.82.47,2.17Z"/>
      <path d="M43.1,11.22c1.12,2.12,1.27,3.66,1.05,5.98,2.29.02,2.85-4.07,2.01-5.26-.63-.9-2.36-.97-3.06-.72Z"/>
      <path d="M26.61.99l-3.88,1.57c-1.04.42-1.71.98-2.33,1.9l4.41-.07,2.41-2.27c.17-.16.31-.56.34-.78.03-.17-.81-.42-.97-.36Z"/>
      <path d="M41.46,8.29c.37.72,1.82,1.94,2.56.92.63-.87-.18-2.8-.91-3.49-.75-.72-2.25-.86-3.36-.8l1.7,3.37Z"/>
      <path d="M34.72.1c.65.89,1.58,2.17,2.16,2.91.45.58,2.34.36,2.94.07-.65-2.6-2.77-3.38-5.1-2.98Z"/>
      <polygon points="29.87 28.58 33.15 27.45 32.82 25.26 28.85 25.97 29.87 28.58"/>
      <path d="M48.06,17.88c-1.65.21-2.45.34-4.17.75.78,1.17,1.08,1.46,2.07,2.29,1.14-1.25,1.55-1.74,2.1-3.04Z"/>
      <path d="M48.46,16.52c.89-1.78.3-3.39-.93-4.52.13,1.99-.19,3.39-.98,5.17.52.23,1.62-.07,1.91-.65Z"/>
      <path d="M27.17,29.27l-.74-.49c-.2-.13-.96-.23-.94,0l.09,1.02c.03.3.43,1.2.65,1.09l1.06-.53c.61-.3,1.23-.85,1.25-1.59,0-.5-.62-1.34-1.17-1.01l.25.93c.04.17-.3.67-.45.57Z"/>
      <path d="M44.92,6.13l.19,3.82,1.74.15c-.1-2.11-.64-3.12-1.92-3.97Z"/>
      <path d="M43.88,22.52c.36-.18.8-.6,1.51-1.24-.77-.62-1.51-1.25-2.12-1.26-.44,0-.93,1.21-.77,1.62.16.41.99,1.08,1.38.88Z"/>
      <path d="M42.52,3.51c-.5-1.34-1.51-2.42-2.65-2.79l.9,2.67c.14.41,1.54.48,1.76.12Z"/>
    </g>
  </g>
</svg>