<?xml version="1.0" encoding="UTF-8"?>
<svg id="Warstwa_2" data-name="Warstwa 2" xmlns="http://www.w3.org/2000/svg" viewBox="0 0 56.91 34.69">
  <g id="icon-v9-equipment-pixarts-store">
    <g id="icon-v9-equipment-pixarts-store_247">
      <path d="M3.06,6.99c2.26,1.55,5.13,2.47,7.87,2.93l6.49,1.09c.74.13,1.49.81,1.67,1.61-.68-.61-1.54-1.13-2.5-1.23-3.92-.42-11-1.43-13.87-4.16l-.11,1.46c1.48,0,2.35.52,2.5,1.82.15,1.3.25,2.13.58,3.83l.86-2.97c.39-.69,2.71-1.01,3.09-.23l1.28,2.64c-1.18,1.18-.48,2.03.39,2.9l.71.71c.15.15.62-.4.7-.59s-.22-.49-.48-.88c-.25-.36.14-1.1.29-1.73l.37-1.57c.1-.44,3.23-.71,3.41-.08l.49,1.68c.26.89.14,1.61,0,2.56-.13.96,1.63,1.71,2.63,1.97.16,1.34.14,3.15.01,4.41-.65.19-1.45.23-1.47.59l-.1,1.62c-.04.62.48,1.47.94,1.84l-1.05.32c-.19.06.34.66.53.68l.94.06c-.18-3.71,2.04-7.08,5.2-9.04.29-.18.61-1.34.28-1.44l-1.32-.37c-.75-.08-.74-.13,0-.17l1.26-.02c.16,0,.19-.48.21-.82-6.11-.96-2.97-5.92-7.71-6.37-1.89-.18-14.38-1.9-13.03-4.77.66-1.39,2.39-1.9,3.49-1.77-1.1.52-2.18,1.05-2.78,1.89,2.03,2.44,9.59,3.37,12.67,3.68,3.4.35,1.4,1.63,7.29,1.01l.35-2.25c1.75-1.07,4.59-1.15,6.25-.07.4.26.37,1.61.23,2.05,2.15,1.38,4.37-.03,6.39-.41,2.61-.49,13.35-1.64,13.88-4.22l-3.39-1.75c1.41.08,3.16.43,3.98,1.66,2.04,3.04-11.25,4.81-12.83,4.97-4.96.51-1.25,4.48-8.13,6.96,2.2,1.12,3.53-.71,4.89-1.81-.52,2.05-2.55,2.37-4.51,2.81-.11.26.37,1.3.79,1.57,5.64,3.55,3.63,8.67,5.63,7.28.3-.21.49-.78.53-1.3.1-1.33-.36-1.8-1.36-2.45-.51-.9-.49-3.26-.04-4.24.9-.43,2.72-1.19,2.78-2.01-.29-.91-.52-1.78-.3-2.62l.42-1.58c.2-.75,3.42-.7,3.62-.03l.5,1.66c.2.67.02,1.85-.27,2.41-.08.17.39.78.57.65.72-.52,1.32-1.22,1.68-1.92.16-.31-.43-1.1-.41-1.45l.68-2.7c.2-.71,2.21-.61,2.93-.14.57.38.91,1.32,1.66,2.5l.91-4.66,1.66-.39c.27-.06.2-.84.06-1.4-2.66,2.83-10.24,3.82-14.54,4.57-.5.09-1.33.65-1.83.94.12-.61.97-1.5,1.66-1.62l5.73-.95c2.06-.34,10.28-2.24,9.18-4.99-.79-1.98-5.33-3.12-7.47-3.51-12.21-2.22-24.6-2.12-36.81.07-2.18.39-4.02,1.03-6,1.87-1.14.48-2.11,2.55-.82,3.43Z"/>
      <path d="M20.95,29.64c.91,2.64,3.27,4.75,6.51,5.02,1.98.16,4.11-.22,5.71-1.45,2.17-1.67,3.08-4.27,2.83-6.87-.24-2.5-1.58-4.64-4.22-6.1-1.77-.97-.43-4.35-1.34-5.55l-.47,5.3c-.18-1.57-.21-3.2-.21-4.93l-3.78-.43-.27,5-2.25,1.74c-2.53,1.95-3.58,5.17-2.51,8.26ZM34.03,23.83c1.39,1.28,1.36,4.18.5,6.17-.82,1.91-2.66,3.51-5.17,3.73-2.91.25-5.07-.63-6.61-2.65-1.47-1.92-1.84-4.8-.35-6.94l3.1-.45c2.7-.39,5.54-.18,8.53.14Z"/>
      <path d="M17.9,20.69l.68,2.09c.55-.88.59-3.55-.09-3.96-.1-.06-.43.2-.45.31l-.07.42c-2.1.63-4.1.6-6.49.23-.13.78-.18,2.1.05,2.97,1.71.92,4.05.92,5.87.27l.49-2.33Z"/>
      <path d="M45.28,19.52c-2.55.87-4.6.84-7.11-.53-.41,1.41-.57,2.57.23,4.01l.54-3.1.34,3.02c1.98.77,4.22.69,6.07-.16l-.07-3.24Z"/>
      <path d="M51.51,18.21c-2.27.44-3.77.52-5.62.12l.37,3.2c1.58.66,3.54.67,5.1-.28.15-.91.2-2.39.16-3.04Z"/>
      <path d="M10.48,21.5l.31-3.06c-1.82.24-3.6.19-5.58-.34-.11.82-.04,2.37.32,3.23,1.48.86,3.75.86,4.96.18Z"/>
      <path d="M56.71,16.17c-1.55.73-3.17.79-4.84.56l.64,3.22c1.39.07,3.17.13,4.06-.72.55-.56.32-2.49.14-3.06Z"/>
      <path d="M.08,16.28c-.11.65-.12,2.16.07,3.06,1.28.63,3.27.78,4.21.38l.4-2.89c-1.61,0-2.98-.08-4.68-.56Z"/>
      <path d="M25.38,11.08c-.18.17-.52,1.15-.45,1.54.36,1.92,6.01,2.46,6.82.2.13-.36-.07-1.07-.35-1.79-1.06,1.75-5.14,2-6.02.05Z"/>
      <path d="M16.11,27.24l.29-2.94-3.64-.12c-.06.76-.16,2.26.44,2.92.47.52,2.03.29,2.92.14Z"/>
      <path d="M47.04,25.8c-.46-.35-.72-1.4-1.05-2.41-.07.59-.08,2.16.43,2.6,1.19,1.04,3.71,1.12,4.34-.16.47-.96.53-2.68.22-3.52-.64,1.34-.05,2.85-1.18,3.69.27-1.04.41-1.94.5-3.4l-3.58.24c-.07.69-.07,2.32.44,2.7.46.35,1.75.35,2.49.53-.48.32-2.02.17-2.59-.28Z"/>
      <path d="M10.58,25.74c.42-.74.28-2.24.05-2.99l-.69,2.83-.08-2.82-3.37-.09-.09,2.99-.68-3.61c-.22.88-.34,2.44.07,3.41.74,1.7,3.84,1.94,4.79.27Z"/>
      <path d="M2.54,13.51c-.93.08-2.09,1.28-2.26,2.42,2.06.22,3.63.23,5.45-.07-.57-2.09-1.81-2.46-3.19-2.34Z"/>
      <path d="M5.4,17.45c1.89.62,4.01.69,5.5-.09-.85-1-1.43-1.84-1.98-2.09-1.15-.52-3.03.82-3.52,2.18Z"/>
      <path d="M43.68,27.04c.43-.67.35-2.02.27-2.88l-3.46.13.35,3c.62.18,2.48.31,2.84-.26Z"/>
      <path d="M28.28,11.88c1.54,0,2.75-1.17,2.09-2.53l-4.17-.13c-.14,1.6.63,2.66,2.08,2.67Z"/>
      <path d="M1.42,20.67l-.23,2.53-.4-2.95c-.37,1.14-.41,2.49-.01,3.48.4,1.01,2.71,1.44,3.34.51.62-.91.4-2.61.15-3.47l-2.86-.1Z"/>
      <path d="M55.26,23.24c.34-.46.32-1.98.14-2.54h-2.87c-.31.63-.19,2.25.57,2.81.48.35,1.83.19,2.17-.26Z"/>
      <path d="M56.06,20.26l-.27,3.18c-1.12.89-2.52.76-3.87.19,1.03,1.52,3.04,1.13,4.31.13,0-1.17-.05-2.4-.17-3.5Z"/>
      <path d="M56.27,15.77c-.14-1.43-1.08-2.23-2.31-2.3-1.09-.06-2.07.89-2.24,2.07l3.49-.11-2.05.85,3.11-.51Z"/>
      <path d="M42.57,19.17l-2.19-.52,4.06-.24c-.51-1.28-1.57-1.89-2.79-1.52-.93.28-1.69,1.12-1.97,2.34l2.9-.06Z"/>
      <path d="M16.12,18.75c.16.28.31.29.82.23-.13-1.1-.94-2.11-1.76-2.17-1.42-.1-2.42.33-2.56,1.62l3.5.31Z"/>
      <path d="M49.15,17.16c.57-.05,1.43-.48,1.28-.95-.31-.94-2.15-1.25-2.91-.77-.56.35-1.13,1.27-1.49,1.99l3.12-.27Z"/>
      <path d="M39.85,23.79l-.22,2.57c-.04.44.28,1.49.66,1.69,1.48.79,4.71.6,4.66-1.36l-.06-2.82c-.33,1.51-.26,2.75-.89,3.55-.78.99-3.15.8-3.69-.3-.4-.81-.19-2.22-.46-3.32Z"/>
      <path d="M11.84,23.72l.15,3.87c1.32,1.3,3.67,1.17,5.03-.05.14-.96.13-2.51.06-3.31l-.55,3.12c-1.21,1.07-3.32.84-4.19-.47-.1-1-.07-2.06-.51-3.17Z"/>
      <path d="M25.89,8.61c1.77.44,3.36.5,4.73-.06-1.77-.88-3.35-.71-4.73.06Z"/>
      <path d="M49.62,11.95c-.73-.76-2.17-.77-2.47-.07-.27.63.68,1.38,1.18,1.37.66-.01,1.76-.82,1.3-1.3Z"/>
      <path d="M13.8,16.36c.72.14,2.3-.22,2.83-.92l-3.77-.35c.08.33.61,1.2.94,1.27Z"/>
      <path d="M44.06,15.36h-3.77c1.13,1.46,3.02,1.4,3.77,0Z"/>
      <path d="M13.31,12.88c.07.79.35,1.76.83,1.77.63.02,1.5-.2,1.67-.39l-2.3-.62,2.3-.59-2.51-.18Z"/>
      <path d="M55.73,11.93l-3.53.26c.97,1.27,3,1.16,3.53-.26Z"/>
      <path d="M9.82,13.71l-3.32.12c1.01,1.37,3.02,1.29,3.32-.12Z"/>
      <path d="M2.63,13c.63.08,1.82-.4,1.92-.85l-3.42-.2c.21.41.98.98,1.5,1.05Z"/>
      <path d="M48.61,14.76c.56.02,1.65-.49,1.45-.89l-3.49-.27c.25.77,1.2,1.12,2.04,1.16Z"/>
      <path d="M8.62,13.13c.25-.08.62-.88.58-1.15-.11-.72-2.09-.88-2.2.22l1.41.16-1.3.53c.59.2,1.2.34,1.52.25Z"/>
      <path d="M47.51,17.83c1.33.55,2.58.09,3.89-.69-.22-.47-.86-.06-1.29.15l-2.6.54Z"/>
      <path d="M26.95,33.12c.95.23,2,.18,2.96-.04,3.59-.83,5.41-4.37,4.16-7.78-5.83,2.45-7.21-.01-11.61.03-1.32,3.57.89,6.9,4.49,7.79Z"/>
      <path d="M33.76,24.76c-3.39-1.54-6.96-.99-10.17-.1,4.33,1.2,5.96,1.98,10.17.1Z"/>
    </g>
  </g>
</svg>