<?xml version="1.0" encoding="UTF-8"?>
<svg id="Warstwa_2" data-name="Warstwa 2" xmlns="http://www.w3.org/2000/svg" viewBox="0 0 56.15 59.04">
  <g id="icon-v9-equipment-pixarts-store">
    <g id="icon-v9-equipment-pixarts-store_69">
      <path d="M11.66,11.84c-1.23.56-1.92,2.4-.35,2.76.42-.71.49-2.01.35-2.76Z"/>
      <path d="M14.66,57.06l-3.15,1.86c1.09.28,2.69.06,3.57-.49.24-.15.42-1.02.35-1.24-.06-.17-.58-.23-.76-.13Z"/>
      <path d="M1.25,43.14c1.29-1.76,2.9-2.93,4.7-1.86l-.27,2.24c2.2-1.36,3.58-2.73,5.92-2.38.33,2.51-1.67,4.12-3.82,4.9-3.76,1.37-5.7,5.01-3.9,8.78.63,1.32.32,2.48-.44,3.85.8-.09,1.9-.38,2.29-.87,1.1-1.39-.75-4.32.71-6.43,1.68-2.43,7.59-1.97,9.79-1.96-.96,3.11-2.79,5.03-5.49,6.22,2.73-.17,5.24-1,7.48-2.59.78-.55,2.31-3.47,3.77-2.45,1.48,1.03-1.49,4.09-3.27,4.88,1.41-.12,4.28-.27,5.04-1.88,1.46-3.14,2.39-6.43,5.03-8.82,3.71-3.37,4.89-.38,12.12-8.9,1.74-2.05,3.74-3.21,5.91-4.56,1.8-1.12,3.44-1.99,5.55-2.75l2.81-4.01c.93-1.33.76-3.86.98-5.66-1.82,0-2.1,1.77-3.14,2.72l-2.96,2.7c-1.26,1.15-3.41,1.45-5.3,1.63.73-2.43,5.18-3.89,6.82-6.05.64-.84,1.71-2.55,2.03-3.54l1.53-4.8-1.64-5.01c-1.67.45.77,3.86-2.86,5.29-1.57.62-1.53,3.17-2.6,4.03l-5.57,3.77c-.29.2-1.24.07-1.31-.21,1.99-3.41,4.64-6.22,7.12-9.16,2.06-2.46,2.56-6.87,5.06-9l-5.14.69-1.43,1.61c-1.26,1.43-3.65,2.05-4.88,3.6-.04.05-7.26,9.79-7.34,6.8,0-.22.02-.77.13-1.02l2.31-5.49c3.97-4.23,2.68-4.14,7.99-7.41h-3.82c-1.8.01-2.96-.04-4.52.88l-4.41,2.58-3.74,6.06c-1.27,2.06-4.69,8.02-7.62,8.3-.14-1.46-.17-2.91,0-4.19,2.9-2.07,3.44-6.11.98-8.96-3.54,6.72-7.29,4.49-7.4,8-.22,6.9-3.69,5.95-2.31,12.39.55,2.56.36,4.95-1.09,7.2-5.39,8.35-9.75,5.2-9.79,10.88ZM44.21,30.01c-.83.57-1.84,1.17-3.01,1.81-.3-1.85,1.01-2.71,3.01-1.81ZM19.67,48.2c1.54-1.84,2.08-3.87,4.24-3.68,1,.09-.78,3.99-4.24,3.68ZM24.98,41.45l-3.55.05c.41-1.27,1.65-1.75,2.9-1.34l4.26,1.39c-1.26.06-2.39.04-3.61-.1ZM42.43,9.79c.78-.42,1.8.96,1.68,1.8-.21,1.55-.96,2.78-2.05,4.09l-.53-2.71h-2.05c.73-1.27,1.6-2.46,2.95-3.18ZM37.36,27.03c.41,2.09.47,3.9.52,6.08l1.12-1.41c-1.01,5.88-7.55,9.2-12.89,6.55,8.6-1.57,9.51-3.55,11.25-11.22ZM34.22,6.54c1.19.87.52,3.18-.65,3.86-.27-.17-.98-1.26-1.29-1.1l-2.01,1.04c.33-1.69,2-3.87,3.95-3.79ZM28.89,19.36c3.42,1.73,4.37,5.09,4.67,9.01l1.21-5.33c.2,2.45.05,4.99-.57,7.72-.78,3.46-5.1,5.87-8.57,5.47-2.08-.24-3.36-1.62-3.31-3.33.05-1.94,1.44-3.26,3.44-3.37-.57-.93-1.91-1.07-2.74-.56-4.85,2.97-2.02,7.62-3.49,13.16-1.48,2.26-4.52,3.58-6.98,3.45,6.76-3.85,3.6-7.82,3.41-13.36l1.04,1.96c-.5-4.34,2.83-8.39,7.46-8.27,1.23.03,2.42.72,2.9,1.51.54.89.84,3.15-.27,3.35-.7.13-1.77-.29-2.06.12-.3.42-.22,1.78.27,2.03,1.44.76,3.25.15,4.22-1.05,1.69-2.08,1.53-4.67.56-7-1.18-2.84-3.25-4.4-6.54-5.22,1.67-.85,3.75-1.11,5.34-.31ZM16.57,21.57l-.03,2.86c2.55-2.04,5.53-3.03,8.36-1.49-5.72,0-8.76,3.92-10.34,8.73l-.12-4.54c-.05-2.11.94-3.98,2.13-5.56ZM12.3,34.24c.36.96.42,2.06.03,2.73-.34.58-1.28,1.1-2.21,1.37.31-1.7.89-2.7,2.18-4.1Z"/>
      <path d="M6.92,28.46c.74,1.84.62,3.32-.19,5.36,2.97-1.86,4.58-5.53,3.34-8.64-1.06-2.67-1.05-5.12.61-7.9-3.66,2.29-5.44,7.02-3.76,11.17ZM8.12,27.48c-.36-.12-1.11-.86-1.1-1.27s.38-1.17.65-1.54c1,.49,1.17,1.73.45,2.81Z"/>
      <path d="M41.15,39.66c-2.74,1.03-1.41,1.98-4.68,3.51.76,3.93-5.69-.71-8.51,6.33,3.8-3.46,8.26-.46,10.86-4.27l-1.29.21,1.86-1.78,1.76-4Z"/>
      <path d="M29.58,1.65c-2.97,1.07-3.65,2.4-3.23,5.83,4.01-1.69.34-2.07,3.23-5.83Z"/>
      <path d="M43.75,36.07l3.27-.8c.91-.22,1.66-1.18,1.98-2.13l-2.27.44c-1.39.27-2.6,1.37-2.98,2.49Z"/>
      <path d="M.28,50.72c1.1-1.69,1.81-3.2,2.3-5.38l-2.58,1.99.28,3.39Z"/>
      <path d="M9.27,52.86l2.8-.91c-1.33-1.09-2.38-.37-2.8.91Z"/>
    </g>
  </g>
</svg>