<?xml version="1.0" encoding="UTF-8"?>
<svg id="Warstwa_2" data-name="Warstwa 2" xmlns="http://www.w3.org/2000/svg" viewBox="0 0 55.48 61.05">
  <g id="icon-v9-equipment-pixarts-store">
    <g id="icon-v9-equipment-pixarts-store_337">
      <path d="M38.16,34.68c-1.56-.07-3.06.16-4.7.57,1.1-2.56,3.8-3.36,6.55-2.29-1.16-2.52-3.74-2.23-5.88-.9l-1.13-1.77.12,2.46-2.14,2.86c-.16.22-1.03.36-1.15.14l-.65-1.19c-.14.14-.38,1.5-.04,1.8l1.15.98c.15.25.63,1,.41,1.19l-1.02.93,2.66-.12c-3.08-3.23,4.98,1.54,5.81-4.65Z"/>
      <path d="M42.97,32.5c-.96,1.69-1.03,3.52.31,4.81.87-1.7,1.02-3.62-.31-4.81Z"/>
      <path d="M12.4,37.25c.79-1.63.79-3.18.04-4.65-1.21,1.48-1.2,3.3-.04,4.65Z"/>
      <path d="M18.7,31.12c-1.43-.14-3.01.4-3.14,1.82,2.75-1.13,5.43.1,6.42,2.51-1.73-.64-3.23-.96-4.96-.75,1.29,5.3,6.44,2.7,6.48,3.55l.05,1.05,1.88.05-.27-2.12c.36-.34.94-.86,1.2-1.15.26-.29-.17-1.3-.27-1.39-1.81,4.38-2.09-3.07-7.4-3.58Z"/>
      <path d="M37.79,46.84c-.38-2.43-.84-4.8-2.39-6.86,1.49-.71,4.26-1.19,4.71-3.34,1.29-6.16-.17-8.21-5.64-11.35l-3.4,4.3c.4-1.35,1.25-3.45,1.7-4.54.09-.21-.75-.79-.9-.62-.15.17-.57.64-.68.88l-3.6,8.04-3.54-7.99c-.13-.3-.61-.76-.76-.91-.16-.16-.97.38-.87.59.5,1.1,1.51,3.28,1.76,4.56l-3.37-4.28c-5.28,3.08-6.9,5.32-5.57,11.31.44,1.98,3.2,2.8,4.82,3.25-.62.82-1.48,2.05-1.71,3.11l-.83,3.83-.68-2.32c-.15-.5-1.16-.74-1.83-.89,1.01,3.67,2.96,6.6,5.3,9.39,1.26-5.39-3.94-6.94,1.63-12.09-.26,1.23-1.32,2.86-1.22,3.95.3,3.07,6.09,2.9,6.78,1.51-3.01-3.71-1.78-1.57-3.87-2.96-.35-.23-.13-1.55.27-1.66,1.98-.53,2.5,2.37,5.95.09.44-.29,1.64-.31,1.92.08.24.33.2,1.26-.06,1.64-.23.34-1.11.25-1.63.41-.74.62-1.52,1.54-2.18,2.38,2.38,1.75,5.41,1.14,6.99-1.15l-1.35-4.15c5.56,5.24-.13,6.91,1.74,12.01,2.3-2.88,3.85-5.8,5.3-9.44-1.73-.11-2.35,1.38-2.79,3.24ZM26.37,36.09c-.26.29-.84.81-1.2,1.15l.27,2.12-1.88-.05-.05-1.05c-.04-.85-5.2,1.75-6.48-3.55,1.72-.21,3.23.11,4.96.75-.99-2.42-3.67-3.65-6.42-2.51.13-1.42,1.71-1.96,3.14-1.82,5.31.51,5.6,7.96,7.4,3.58.1.09.53,1.1.27,1.39ZM32.35,39.32l-2.66.12,1.02-.93c.22-.2-.26-.94-.41-1.19l-1.15-.98c-.34-.29-.1-1.66.04-1.8l.65,1.19c.12.21.99.07,1.15-.14l2.14-2.86-.12-2.46,1.13,1.77c2.14-1.33,4.72-1.62,5.88.9-2.75-1.07-5.45-.27-6.55,2.29,1.64-.4,3.15-.63,4.7-.57-.83,6.19-8.89,1.41-5.81,4.65Z"/>
      <path d="M24.83,19.91c.71.02,1.81-.06,2.25-.19.65-4.16-.72-7.94.74-11.93l.26,12.05,2.62.09c.78-2.27,1.1-4.31,1.19-6.57l-1.95,1.01c1.69-2.02,2.32-4.13,1.19-6.19l-1.63,1.48,1.27-3.38c-.51-2.26-1.46-4.26-2.96-6.28-2.07,2.89-3.41,4.45-2.06,7.86l-1.4-1.17-.88,5.58,1.66,2.82-1.73-.99c.09,2.2.52,3.92,1.42,5.81Z"/>
      <path d="M32.74,20.38c.58.35,1.49.72,2.08.85l3.81-8.85c-.42,3.53-1.8,6.09-2.98,9.21l1.93,1.12c1.28-1.75,2.16-3.31,3.07-5.24l-1.27-.57c2.66-1.18,2.7-5.15,2.46-5.14l-.94.06c2.05-1.97,1.38-5.08.52-7.77-2.88,2.39-5.02,3.69-4.33,7.16l-.9-1.4c-1.47,1.83-2.06,3.93-1.18,6.6l-1.13-1.52c-.7,1.54-1.06,3.56-1.15,5.49Z"/>
      <path d="M14.11,3.97c-.9,2.78-1.54,5.85.55,8.04l-1.08-.24c-.14,2.06.49,3.96,2.62,5.38l-1.61.13c1.07,2.11,1.97,3.56,3.28,5.43l1.76-1.32c-1.34-3.39-2.57-6.36-3.16-9.88l3.89,9.57c.5.11,1.96-.23,2.04-.72.28-1.64-.07-3.78-.82-5.53l-1.42,2.3c1.09-2.77.89-5.03-.96-7.39l-.74,1.46c.35-3.64-1.58-4.92-4.34-7.21Z"/>
      <path d="M13.86,26.21c.34.11,1.27-.54,1.15-.86l-.44-1.12c-1.76-2.18-3.68-4.22-4.69-6.67l5.64,6.64c.2.23,1.13-.23,1.11-.51-.03-.28-.17-.94-.32-1.19l-1.98-3.39-.82.65c.17-2.36-.91-3.74-2.8-5.25l-.37,1.5c-.84-3.31-2.6-3.86-5.95-5.11.19,2.99.62,5.31,3.07,6.32-.42.22-1.1.5-.99.73l.45.91c.9,1.82,2.15,2.75,4.03,3.29l-1.86.09c.83,1.64,3.03,3.42,4.77,3.99Z"/>
      <path d="M49.82,16.04c.81-1.62,1.21-3.49,1.28-5.15-3.88,1.55-4.75,1.92-5.93,5.13l-.39-1.48c-1.78,1.15-2.76,2.79-2.82,5.28l-.5-1.55-2.42,4.63c-.14.26-.08.82.01,1.06.59,1.48,4.36-4.53,5.46-4.89-.37,2.6-6.44,6.19-2.91,7.23,1.83-1.04,3.62-2.47,4.89-4.05l-1.87-.22c3.2-.45,4.48-4.31,4.26-4.34l-1.42-.21c.74-.47,2.08-.87,2.36-1.43Z"/>
      <path d="M42.01,42.97l-2.3,5.41c.42.08.86.07.81.22l-.31.92c-.34,1-.1,2.58.13,3.79l.83-.41c-.87,3.25.09,4.44,1.48,7.36,1.83-2.64,3.52-5.38,1.9-8.19l1.01.49c.13-2.2.27-4.9-.8-6.95l-.41-.79c-.04-.07.23,0,.33,0l.52-.04c-.68-1.86-1.46-3.61-2.77-5.22.43,4.68.99,8.62.59,12.81l-1-9.39Z"/>
      <path d="M15.54,47.9l-2.07-4.61-1.01,7.96.3-11.25c-1.24,1.57-2.1,3.46-2.06,5.08.64.24,0,.94-.55,1.44l-.4,5.74,1-.08c-1.31,2.88.14,5.19,1.95,8.12l1.44-2.96c.69-1.42.44-3.05-.07-4.79l1.09.95c.2-1.9.51-4.1.38-5.6Z"/>
      <path d="M32.69,58.67c3.24-2.44.87-6.28,1.82-11.24-.35.34-.91,1.39-.97,2.08l-.49,5.75c-.03.4-.4,1.12-.71,1.3-.3.17-1.21.15-1.56.01-4.99-2.02-6.15.82-7.65.07-.32-.16-.83-.97-.85-1.34l-.34-4.85c-.08-1.2-.65-2.43-1.17-3.23,1.02,5.35-1.47,8.92,2.23,11.63,1.12.82,3.02,2.12,4.61,2.21,1.77.09,3.79-1.42,5.08-2.38ZM30.17,58.1c-1.71-.2-3.04-.14-5.14.09,1.34-1.19,3.66-1.71,5.14-.09Z"/>
      <path d="M4.22,26.54c1.33,1.36,2.47,1.68,5,1.8l-1.87.58c1.67,1.03,3.66,2.23,5.44.69l-4.77-3.49,4.57,2.11c.16.07.88-.41.77-.54-.11-.14-.38-.44-.57-.59l-3.63-3.07c-1.16-.98-2.57-1.67-3.9-2.06l-.04,1.14c-1.29-1.69-3.2-2.07-5.22-1.67.85,2.28,2.72,3.57,4.22,5.1Z"/>
      <path d="M49.95,23.42l.29-1.37c-1.88.42-3.27,1.19-4.6,2.37l-2.97,2.67c-.17.15-.42.44-.53.59-.11.15.66.6.82.52l5.73-2.94c-1.66,1.47-3.82,2.69-5.78,4.06-.06.5,1.12,1.26,1.56,1.09l3.28-1.31-1.35-.82c2.01-.26,4,.06,4.75-1.95,1.83-1.04,3.29-2.69,4.34-4.84-2.21-.37-4.36.04-5.53,1.93Z"/>
      <path d="M3.07,51.74c3.15-1.8,4.58-2.99,4.62-6.01l.5,1.36c.12.33.83-.8.87-.89l2.76-7.13c-2.06.82-2.55,2.89-4.2,4.17.1-1.85,4.15-4.7,2.84-5.43-1.23-.69-1.75,1.52-2.37,1.73-1.35,1.17-2.57,2.63-3.39,4.15,1.47,1.02-2.55,2-1.62,8.06Z"/>
      <path d="M44.47,37.92c1.52,2.4,3.28,4.27,4.18,6.78-1.74-1.97-2.63-4.1-4.99-5.75l2.59,6.68c.16.42.71,1.2.96,1.54l.62-1.16c.19,3.19,1.86,3.93,4.52,5.69.29-3.12-.06-6.05-2.46-7.35l.92-.45c-.12-.71-5.21-7.61-6.34-5.97Z"/>
      <path d="M13.89,30.49c1.18-1.96,2.47-3.56,4.29-5,7.55-4.85,18.49-3.41,23.23,4.73.04-1.56-.76-3.05-1.92-4.27-5.7-6.02-15.2-6.82-21.7-1.66-2,1.59-3.76,3.5-3.9,6.19Z"/>
      <path d="M42.42,31.51c-1.69,1.16-1.29,5.88.2,6.77.3.18,1.28-.36,1.4-.68.77-2.06.75-6.25-1.6-6.09ZM43.28,37.3c-1.35-1.29-1.27-3.12-.31-4.81,1.33,1.19,1.18,3.1.31,4.81Z"/>
      <path d="M12.57,31.52c-2.01.34-2.33,6.01.03,7.16,2.22-1.63,1.5-7.42-.03-7.16ZM12.4,37.25c-1.17-1.35-1.18-3.17.04-4.65.76,1.47.75,3.02-.04,4.65Z"/>
      <polygon points="29.59 23.91 25.54 23.98 27.6 28.47 29.59 23.91"/>
      <path d="M38.03,41.17c-.23.17-.25,1.22.02,1.25.83.11,3.69-1.7,2.86-3.38l-2.88,2.13Z"/>
      <path d="M17.88,41.82l-3.64-2.95c-.09,1.91,1.43,4.13,3.64,2.95Z"/>
      <path d="M23.81,55.62l3.35-.8c.22-.05.47-.5.33-.6-.16-.12-.45-.35-.57-.21-.09.1-.37.44-.36.43-.51-.31-.86-.56-.97-.36l-.52.94-1.25-2.06c-.46.78-.55,2.34,0,2.67Z"/>
      <path d="M25.58,49.1c.16-.1.39-.66.57-.61l.83.24.76-.26c.25-.08.83.49.97.31l.71-.9c-.83-.19-4.52-.28-4.51.79,0,.25.46.56.67.43Z"/>
      <path d="M30.78,55.68c1.68-.14,1.44-1.72.7-2.68-.49.67-.97,2.07-.7,2.68Z"/>
      <path d="M32.71,48c-.55.09-1.42.43-1.34.76l.46,2.08c.63-.86.99-1.89.88-2.83Z"/>
      <path d="M22.82,47.86c-.14.88.2,1.97.84,3.02.55-.9,1.01-2.51-.84-3.02Z"/>
    </g>
  </g>
</svg>