<?xml version="1.0" encoding="UTF-8"?>
<svg id="Warstwa_2" data-name="Warstwa 2" xmlns="http://www.w3.org/2000/svg" viewBox="0 0 55.43 56.98">
  <g id="icon-v9-equipment-pixarts-store">
    <g id="icon-v9-equipment-pixarts-store_39">
      <path d="M32.67,3.23l-4.32-1.78-3.8-1.45,1.05,3.35c-2.8-1.32-5.96-2.01-9.04-1.55l2.77,2.42c-5.22.26-5.01,1.66-10.42,1.48l2.37,2.93c-1.64.11-3.09.24-4.78.71l2.06.92c-1.83,1.57-3.95,1.91-6.57,2.53.98.98,2.37,1.55,3.82,1.9-1.19.77-2.63,1.8-3.53,3.03L.02,20.81l4.22-.66C1.94,22.41.17,24.6,0,27.46l2.57-1.43-1.27,4.49L.05,34.4c1.46-.23,2.71-.72,4.16-1.38l-.36,3.8,2.52-1.06.06,3.77,2.26-2.4c.39,2.29-.37,3.56-1.34,5.47,1.72-.42,3.25-.99,4.76-1.7-.01,2.34.32,4.89,2.18,6.39l1.26-3.76c.52,2.38.99,3.85,2.25,5.53l.69-3.38c2,3.03,4.45,5.48,7.66,7.29l.12-2.83c1.52,1.88,2.01,3.5,2.86,5.86l1.38-3.31.6,3.91c2.31-1.44,1.45-3.81.84-6.01-.52-1.88.27-4.45-2.2-5.61l-.86,1.94-1.17-4.02-1.3,2.02-1.54-3.47-1.14,1.56-1.14-4.07-1.73,2.54c-1.2-2.73-1.32-5.12-.97-7.99l-3.25,1.78c.23-2.04.68-3.68,1.38-5.58l-1.36-.46,1.92-3.28c.29-.5.98-1.03,1.71-1.55l-2.4-.97.57-.72c.16-.2-3.06-2.32-5.19-1.85,1.14-.8,2.29-.7,3.85-.76l-2.55-1.46,2.19-.81c-1.35-.95-2.22-1.38-3.73-2.11l3.41-.07-.27-2.13,6.05-.38-1.46-1.72,3.81-.81-1.59-2.85,7.38,1.08-.21-1.85c1.98.79,4.02,1.74,5.89,2.78.1-.26.35-1.06.53-.91l.69.58.85.71c.14.12.25-.75.36-1.21,1.34,1.02,2.31,2.06,3.54,3.72l3.03-2.57c2.23,2.51,2.81,6.12,1.55,9.31l1.74,2.9-.24,2.82c2.23,1.44.88,3.55,1.03,5.18.25,2.54,2.31,4.96.56,7.62-1.83,2.77-2.75,5.68-5.13,5.99l-.18-2.43c-.74,1.05-1.04,2.15-1.03,3.08h1.87s-.49,3.8-.49,3.8c-.15,1.13.25,2.41.99,3.55l.64-4.51,1.15,1.62.7-4.66,1.41,2.15.5-3.61,1.11.84.52-4.71,1.47,1.52c.25-2.48-.3-4.24-.84-6.61l2.1,1.03-.64-3.71c-.21-1.21-.55-2.13-.99-3.42l2.49,1.17c-.13-2-1.29-3.41-2.77-5.27l2.81.06-3.81-4.31,1.97-.3c-.97-1.23-2.23-2.02-3.7-2.62l1.3-2.82-2.34.9c.31-2.17.28-3.79-.77-5.46l-.93,1.05-1.78-4.81-1.69,2.54-1.61-3.25-.73,1.57c-1.09-1.87-2.59-3.48-4.42-4.83l.1,3-4.26-3.22-.09,1.98Z"/>
      <path d="M26.29,38.24l.33,4.04,1.9-1.99.64,2.92,1.38-.03c2.22,1.59,2.69,3.92,2.89,6.32l.68,2.29.28.95c.05.16.41-.25.51-.39l.42-.62,1.3,3.28,1.35-1.53,1.57,3.49c1.55-1.4,2.48-2.85,3.22-4.58l.51,1.45c1.25-1.11,1.13-2.76.41-4.3-2.67-1.25-7.78,2.83-8.91-2.4-.4-1.85-1.09-4.47-2-5.89-.18-.27-.93-.83-.85-1.11.41-1.42,1.21-5.41,2.79-5.2,1.52.21,2.5,2.98,5.27,3.89,1.47.48,4.17.18,5.12-.99.81-1-.94-2.1-1.84-2.19-.59-.06-1.32-.54-1.58-.93-.29-.42-.19-1.68.15-1.87,1.99.58,5.56,2.1,6.77-.52l-3.97-5.5c-.34-.23-1.14-.67-1.55-.91l-.45-3.87c.39-.24.87,4.86,2.05,3.44l2.17-2.61c1.01-.94-4.05-5.2-3.98-7.38l2.45,2.14c.71-2.1.82-3.96-.24-5.95l-2.41,2.02c-.23.19-.34,1.17-.4,1.42l-2.49-4.11-.54,2.31-1.83-2.71.05,1.85c-1.52-1.74-3.21-3-5.35-3.36l1.22,2.35c-2.23-1.68-5-1.95-8.1-2.33.75,1,1.5,1.6,2.52,2.3l-5.26.35c1.16.81,1.83,1.43,2.71,2.33,1.29,1.32,3.93,1.57,3.78,4-3.3-3.03-7.33-3.71-11.24-3.35,1.45,3.29,0,5.79,3.97,7.91.28-.22.62-.52.76-.75.11-.17-.1-.82-.22-1l-1.29-2.04.39-.7-1.37-1.81c1.21,0,2.65.24,3.38.95l3,2.93-2.52.59,1.3.66-2.64,1.48,1.12.81c-1.94,1.28-3.46,2.17-4.82,3.89l2.29-.38c-1.14,1.75-2.05,3.22-2.77,5.17l3.98-1.49c-.83,2.46-1.32,4.85-.82,7.23l2.98-2.1-.26,3.88,2.1-1.77ZM37.23,30.42c.25-.24,1.13-.82,1.58-.8.54.02,1.57.71,1.89,1.19-1.33-.34-2.04-.46-3.47-.39ZM30.03,22.4l.6,1.68c.13.38,1.26.46,1.65.37,3.94-.89,4.21,2.26,6.52,2.27.53,0,1.54-.93,1.46-1.46-.13-.85-.47-1.64-.84-2.7,1.12.66,1.82,2.25,1.58,3.81l-2.01,1.4,2.65.62-5.09.07.51-.45c.69-.61-1.48,1.24-4.57-2-1.02-1.07-3.59-1.33-2.46-3.62ZM27.96,27.73c2.23,7.74,6.71.51,8.61,6.11-1.04-.75-1.87-2.25-3.38-1.34-.92.55-1.46,1.91-2.2,3.06l.03-2.2-3.9-3.2.83-2.43Z"/>
      <path d="M45.65,42.3c.94-.81,1.43-1.56,1.55-2.73-1.22-.5-5.68.41-5.45,1l.22.59c.05.13.5-.47.63-.49l2.99-.42.06,2.05Z"/>
      <path d="M48.14,38.27c1.12-1.21,1.41-2.54.87-3.74l-2.81,3.21c-.04.6,1.44,1.07,1.94.53Z"/>
      <path d="M41.06,40.5l-2.03-.87-.15,3.85c1.03-.7,1.69-1.71,2.18-2.98Z"/>
      <path d="M47.73,29.16c1.16-1.46.48-2.51-.72-3.6l-.95,1.74,1.66,1.85Z"/>
      <path d="M36.95,48.11l1.14.56c.25.12.82-.74.81-1.09l-.09-2.15-1.86,2.68Z"/>
      <path d="M44.07,45.83c-.66.65-1.27,1.47-1.5,2.37,1.66.04,1.57-1.31,1.5-2.37Z"/>
    </g>
  </g>
</svg>