<?xml version="1.0" encoding="UTF-8"?>
<svg id="Warstwa_2" data-name="Warstwa 2" xmlns="http://www.w3.org/2000/svg" viewBox="0 0 50.69 57.64">
  <g id="icon-v9-equipment-pixarts-store">
    <g id="icon-v9-equipment-pixarts-store_166">
      <path d="M40.99,29.91l.1,3.84c1.62.71,3.06,1.37,4.1,2.59-1.53-.72-2.48-1.33-4.25-1.43,1.59,3.55,4.96,5.33,2.87,9.38-1.18,2.28-3.05,4.25-5.13,5.61l1.71-2.4c.15-.21.24-.75.22-.96-.07-.8-3.23,1.19-5.96-.11-5.12,3.14-9.24,5.31-15.99,4.39,1.55,1.13,3.54,1.07,5.49,1.04l-1.56.93c1.63,2.65,4.16,2.16,7.07,1.87-2.5,1.39-10.14,2.44-12.05-1.39-2.39-4.79,3.65-10.58,7.46-12.67l-2.4-1.86c-4.29,3.35-6.12,5.46-7.86,9.8.64-4.66,4.06-7.88,7.37-10.6l-1.31-4.91c-2.09.44-4.36.11-6.37-.54-5.57,6.11-7.52,15.08-.86,21.5,2.83,2.73,6.38,4.02,10.47,3.55,8.03-.93,15.65-5.15,20.5-11.6,4.24-5.63,1.8-11.07-1.78-16.34-.29-.42-1.85-.18-1.83.31Z"/>
      <path d="M38.65,26.82l-1.64-2.46-4.1-1.87c-1.66,1.18-3.32,1.39-5.35.58-.31,2.14-1.9,3.02-3.83,3.23,1.1,3.77-2.01-1.65-7.16-1.27l-6.4.47c7.19,12.02,13.29,1.86,12.64,7.22-.41,3.39,2.02,6.27,5.23,7.13,1.31.35,2.45.95,3.65,1.62l-.36-2.18,2.2,3.48c1,1.58,3.59,1,4.83-.36l-1.7-1.05c-.35-.22-.83-.85-.8-1.2.03-.35.75-.84,1.14-.88l3.15-.33c.31-.03,1.13.22,1.09.51-.03.22-.15.74-.22.96l-.68,2.09c1.55.36,1.94-1.07,1.8-2.27-.42-3.68-3-2.17-2.58-8.73l-1.25,1.24c-1.18-2.6,2.54-2.63.33-5.94ZM18.91,30.34l.76-1.03-2.9-1.39c-1.35-.24-2.3-.51-3.48-1.1l4.96-.03,3.94,3.01-3.28.53ZM30.37,33.56c-3.57.15-2.73.32-5.01-2.5,2.73-1.68,5.72,1.18,7.17,3.96l-2.16-1.46Z"/>
      <path d="M26.5,23.16c-3.25-2.41-4.27-5.92-3.31-10.12-2.65,2.05-2.22,5-1.9,7.67-2.22-.1-4.5-.89-6.03-2.38-2.45-2.38-2.67-5.35-1.35-8.6-3.41,2.37-3.36,6.64-.95,9.78-3.88-.63-6.98-3.75-7.08-7.7-.07-2.53,1.36-4.47,2.92-6.58-2.93.78-4.16,3.51-5.21,6.41-1.28-1.71-1.96-3.98-1.58-6.09L2.93.38C-.2,3.47-.88,8.61,1.17,12.59c1.27,2.47,3.04,4.42,4.9,6.52-2.45.1-3.99-1.51-5.86-3.11.72,3.07,3.29,5.25,6.5,5.62l11.2,1.27c3.74.42,6.98,4.55,8.59.28Z"/>
      <path d="M49.08,11.3c-.25,1.77-1.62,3.35-3.36,3.9,3.06-5.71.8-12.97-5.26-15.19,2.29,3.2,4.78,5.65,4.15,9.59-1.7-1.62-3.14-3.37-5.44-3.23l2.17,1.9c2.41,2.11,2.68,6.1.14,8.34-.99.87-2.43,1.64-3.53,2.17-.13-3.19-.91-5.81-3.96-6.63,2.34,3.07,2.6,6.5.33,9.69l2.94,1.32c2.85-4.01,9.72-4.93,11.9-7.82,1.79-2.38,2.06-5.95.53-8.4l-.61,4.38Z"/>
      <path d="M39.01,23.83c-.68.68-.69,2.01.15,2.46,1.47-1.45,2.85-2.86,4.8-3.28-.8.68-2.08,1.52-2.6,2.35l-1.27,2.05c3.55,1.88,6.64-4.42,6.78-7.05l-4.49,1.66c-1.22.45-2.49.93-3.37,1.81Z"/>
      <path d="M39.02,43.63l-3.72,1c1.51,1.19,3.72.96,5.35-.62-.46-.33-1.27-.48-1.63-.39Z"/>
    </g>
  </g>
</svg>