<?xml version="1.0" encoding="UTF-8"?>
<svg id="Warstwa_2" data-name="Warstwa 2" xmlns="http://www.w3.org/2000/svg" viewBox="0 0 54.28 56.99">
  <g id="icon-v9-equipment-pixarts-store">
    <g id="icon-v9-equipment-pixarts-store_141">
      <path d="M52.32,2.85c-6.24-3.59-14.03-3.71-20.52-.77-4.88,2.21-8.21,6.04-11.31,10.13l.62-2.12c-2.32-.05-3.96,1.7-4.18,3.89l-.28,2.87C12.52,24.92,3.92,21.09.62,28.91c-1.47,3.48-.33,7.48,3.15,9.35.23-.36.1-1.11-.21-1.53-2.24-3.05-1.17-7.13,2.04-9.06,4.12-2.48,5.38.43,10.2-6.72-1.08,5.68-6.65,7.4-9.53,14.66-1.74,4.39-1.09,9.37,2.57,12.53.59.51,1.73-.54,1.82-1.12.23-1.63-2.37-2.41-1.81-6.28.57-3.95,2.79-7.22,6.04-9.4,2.68-1.8,4.14-4.04,5.51-7.13-.4,4.11-1.85,7.49-1.51,11.3.31,3.47,2.32,6.3,5.31,7.21,3.1.94,6.61.19,8.58-2.57,1.4-1.95,1.44-4.49-.19-6.02-1.21-1.15-3.18-.77-4.27.25,1.26.21,2.5.46,2.9,1.21.45.87.38,2.19-.16,2.9-1.33,1.73-3.37,2.08-5.32,1.24-1.46-.63-2.67-2.22-2.69-4.24-.04-3.62,2.16-7.01,5.48-8.41-1.19,1.26,1.48,4.24,3.56,4.7,2.27.5,4.48.59,6.48-.71,1.63-1.06,2.44-3.05,2.06-5.04-.22-1.17-1.17-2.3-2.06-2.65-1.13-.45-2.31-.38-3.35.25-.51.31-.78,1.69-.36,1.74l1.39-1.02c.33-.24,1.42.25,1.67.58.46.59.62,1.83.3,2.46-.24.48-1.09,1.14-1.68,1.33-1.8.57-3.46-.56-4.02-2.03-.58-1.55-.12-3.04,1.24-4.19,3.08-2.59.95-4.9,4.9-5.63-1.15,1.04-2.27,2.72-1.93,4.13,1.39.12,2.68,1.21,3.95,1.52,2.68.65,6.06-.99,8.19-2.65,5.41-4.25,7.12-14.87,3.44-16.99ZM43.79,16.37c-.57.31-1.74.44-2.42.35.4-.92,1.74-1.74,2.42-.35ZM22.58,18.37c-.57-1.24-.25-2.98,1.3-3.79l-1.3,3.79ZM32.69,19.26c-2.21,5.12-6.08,1.57-9.07,2.72.56-3.2,2.68-6.15,5.84-6.96,1.17-.3,2.58.13,3.22.98.68.9.47,2.18,0,3.25ZM34.46,15.73c-.67-2.49-2.81-3.36-5.46-3.29,1.33-.66,2.8-.53,4.15.15,1.13.57,1.94,1.66,1.31,3.14ZM25.67,9.47c3.67-5,9.82-7.99,16.54-7.57-5.94,1.06-11.43,3.32-16.54,7.57ZM41.64,19.21l-1.21.33c-.22.06-.46-.73-.3-.88l.7-.65c.21-.2,1.05-.18,1.27.02.23.2-.14,1.09-.46,1.17ZM45.83,17.68c-.88.85-1.19,2.99-3.3,1.98,1.4-1.03,2.06-1.94,2.13-3.39l2.31-1.55c.49.24.98.54,1.2.36l1.45-1.19c.23,2.26-2.53,2.59-3.78,3.79Z"/>
      <path d="M42.55,24.83c-1.52,1.86,5.18.84,7.01,5.39-2.08-1.74-4.48-2.99-6.97-3.1l-.95,3.28c1.78.41,3.91.93,5.27,2.15,4.6,4.13-.65,12.11-4.8,14.74l2.94-4.62-1.76-.24-.98-2.31c-.91.89-1.67,1.57-2.73,2.25,1.19-2.17,5.17-6.66,3.69-9.43-2.07,9.88-15.14,17.73-24.97,15.8.06.14.96.88,1.35.89l6.72.19-2.78.98c2.33,4.16,4.75,2.56,8.34,2.1-4.54,2.73-12.54,2.87-15.59-2.62l-3.63,2.18c3.22,3.58,8.52,5.19,13.64,4.21,10.02-1.92,22.37-9.28,25.04-19.77,1.07-4.18-1.55-10.41-3.81-14.05l-5.01,1.95Z"/>
      <path d="M11.59,8.66c-.43-1.03-1.65-1.99-2.95-2.1-1.76-.15-3.39.81-3.35,2.44,1.27-1.23,2.75-1.52,3.81-.55,1,.92,1.25,2.69.09,3.74-1.27,1.16-2.78,2.28-3.81,3.68-1.57,2.13-1.21,5,1.03,6.32,1.66-.43,3.31-.98,4.94-1.65l-1.95-.6c-.57-.18-1.43-1.16-1.49-1.75-.33-3.38,5.63-4.81,3.67-9.53Z"/>
      <path d="M11.88,42.4l.82,4.6c1.93-1.51,2.21-3.59,1.46-5.87l2.94,2.26c.11-.22.46-1.02.45-1.39-.01-.37-.77-.94-.88-1.32-.44-1.62-.9-3.29-1.63-4.82-2.04,1.73-3.62,3.99-3.16,6.54Z"/>
      <path d="M15.56,43.72c-.1,4.53-5.19,6.63-9.19,5.54,2.55,2.25,6.46,2.3,8.87-.1,1.54-1.54,1.8-3.79.32-5.44Z"/>
      <path d="M24.75,34.53l3.81-2.56-1.74-1.71c-1.12,1.32-1.81,2.49-2.07,4.27Z"/>
      <path d="M18,38.31c-.56.61.47,2.53,1.3,2.06.64-.65-.51-2.33-1.3-2.06Z"/>
      <path d="M16.99,35.9c.2.38.63.83,1.07,1.12.35-1.02.29-2.24-.43-2.48-.4.11-.81,1.03-.64,1.36Z"/>
      <rect x="20.54" y="41.17" width="1.09" height="2.45" transform="translate(-24.51 29.63) rotate(-47.93)"/>
      <rect x="2.73" y="31.3" width="2.07" height="1.15" transform="translate(-27.41 24.24) rotate(-69.49)"/>
      <rect x="9.74" y="36.99" width="2.42" height="1" transform="translate(-27.12 28.77) rotate(-60.82)"/>
      <rect x="24.02" y="42.73" width=".99" height="2.32" transform="translate(-23.59 58.5) rotate(-77.7)"/>
      <path d="M3.29,18.08c-.35-.13-.89.86-.84,1.23.04.29.51.83.82.93.56-.55.63-1.93.02-2.16Z"/>
      <rect x="4.47" y="28.51" width="2.12" height="1.13" transform="translate(-15.45 8.2) rotate(-34.36)"/>
      <path d="M18.47,30.6c-.88.73-1.48,1.65-.69,2.66.65-.97.8-1.82.69-2.66Z"/>
      <rect x="12.12" y="33.85" width="2.21" height="1.01" transform="translate(-20.19 18.9) rotate(-44.12)"/>
      <path d="M28.22,44.47c.3-.05.58-.36,1.1-1.03l-2.48.27c.58.64.91.84,1.39.76Z"/>
      <path d="M9.86,27.19c-1.09-.14-1.87.08-2.54.68.97.57,2,.16,2.54-.68Z"/>
      <path d="M27.97,16.78c-.9.44-1.69,1.48-1.5,2.6l3-1.7.96.02c.26,0,0,1.26-.24,1.43-1.01.72-2.49.84-3.88.88.86,1.7,2.7,1.46,3.97.73,1-.57,1.67-2.22.94-3.48-.6-1.04-2.18-1.01-3.24-.49Z"/>
    </g>
  </g>
</svg>