<?xml version="1.0" encoding="UTF-8"?>
<svg id="Warstwa_2" data-name="Warstwa 2" xmlns="http://www.w3.org/2000/svg" viewBox="0 0 57.12 46.02">
  <g id="icon-v9-equipment-pixarts-store">
    <g id="icon-v9-equipment-pixarts-store_40">
      <path d="M15.7,41.75c.91-1.23,2.31-1.83,3.78-2.26l4.01-1.16,4.62-1.34c-1.13-3.14.96-9.68,1.56-8.23l.24.57c.9,2.15,1.55,4.01,2.94,5.96l6.05-4.36c-.97,2.19-3.47,3.09-5.37,4.67-.04.79,1.57,1.67,2.41,1.09,1.87-1.3,10-7.55,6.17-9.6l-2.63,3.26c.71-1.81,2.14-3.1,1.48-4.88-1.12-3-1.29,2.27-3.08,3.11-1.96.92-4.19.74-5.95-.13,2.61.18,4.92.57,6.18-2.01.48-.99-4.01,1.98-7.5-1.68-2.16-2.26-2.77-5.12-2.37-8.38-2.66,1.3-1.6,5.47-1.34,7.8-1.2-1.81-2.24-5.19-.73-7.24,1.13-1.53,3.02-2.65,4.07-4.42l-2.55-.69c-.88.84-2.34.93-3.45,1.45-3.8,1.76-5.93,5.4-8.14,8.77.56-2.91,2.6-5.04,4.23-7.59-5.03,1.12-8.15,8.31-8.73,12.38-.04.31.77,1.14.95.88l1.75-2.59c-.27,1.69-1.07,2.79-1.77,4.28-1.34,2.82-1.07,6.27.19,8.95-1.39-1.5-2.01-3.14-2.24-5.17-2.19,2.37,2.8,9.16,4.17,11.94,2.49-1.29,4.55-2.22,7.05-3.19.52-.54,1.04-1.71,1.4-2.68-2.78.46-4.91,1.26-7.36,2.51ZM14.5,34.03c-.66-2.72.36-8.35,1.35-11.05.03.99-.08,1.96-.25,2.84-.93,4.81-.22,3.71-1.1,8.21Z"/>
      <path d="M49.05,17.58c-.35,1.68-1.04,3.03-2.26,3.99,1.8,1.14,3.69.2,5.06-1.14-.3,1.4-1.51,1.9-3.14,2.18l1.68,2.16,2.36.23-2.08.41c1.01,4.86-.45,9.88-4.44,12.69-2.93,2.06-6.68,1.8-9.96.7-4.15-1.39-5.53-4.82-6.83-8.52-1.1,2.03-.85,9.96,3.15,9.25l-2.1.39c.24.91,1.04,2.16,2.14,2.36.86.16,1.9-.31,2.92-.68-.67,1.01-1.79,1.21-2.96,1.56.71.53,1.59,1.21,2.33,1.55,1.1.5,2.84-.71,3.27-1.69l-.13-2.39c1.55,1.92.24,3.76-1.52,4.75,1.19.65,2.75.98,3.9.21,1-.67,1.58-1.69,1.92-3.13.55,1.31,0,2.6-1.3,3.52,1.01.11,2.45.12,3.17-.3,1.4-.82,1.22-2.43,1.7-3.96l.21,3.18c.59.02,2.02-.69,2.55-1.43.57-.78.33-1.84.37-3.1l1,2.42c1.23-1.35,2.21-2.4,1.4-4.48l1.26,1.17c.82-.91,1.8-2.53,1.86-3.99l.04-.89c0-.1.39,0,.59,0,2.77-5.27,1.11-15.93-6.14-16.99Z"/>
      <path d="M53.83,15.2c-.15-.02.55-.64.49-.78-.81-1.98-3.82-4.62-5.09-3.54l-1.7,1.44c.15-1.22,1.08-1.87,2.27-2.46-1.06-.89-3.19-2.22-4.7-1.73-1.92.62-1.55,3.1-1.6,4.8-1.27-1.61-.35-3.47.22-5.31-1.53-.16-3.75-.3-4.74.62-1.99,1.85-1.67,4.78-.71,7.13-1.99-1.66-1.72-4.38-.95-6.64-1.32.43-3.08,1.16-3.66,2.26-1.69,3.18-.8,6.54.79,9.67-2.5-1.86-2.32-5.1-2.54-8.2-3.16,2.73-3.68,7.6-1.17,10.82.93,1.2,2.47,1.99,3.89,2,2.27-4.32,5.48-7.82,10.07-9.03,5.97-1.57,10.98,2.27,12.17,8.43.88-1.8-.65-9.12-3.04-9.48Z"/>
      <path d="M10.63,24.46c1.4-3.8,3.53-7.23,6.3-9.88.36-.35-.66-2.4-5.06.8.76-1.46,2.47-2.26,3.9-2.8-.45-2.14-2.75-1.89-4.68-1.95,1.12-.63,2.58-.59,3.98-.42.31-2.3-1.68-2.84-3.63-3.15,1.07-.5,2.65-.14,3.64.7.8.68.92,2.03,1.14,3.4l.47-1.18c.08,1.22.18,1.99.91,3.11,1.25-1.68,1.27-3.68-.29-5.07l-.42,1.75c.12-1.63-.32-2.84-1.88-3.65-1.86-.97-3.86-.99-5.91.16-1.34.75-2.65,2.46-3.12,4.28l2.3-1.6-1.42,1.73c-1.34,1.63-1.86,3.69-.87,5.72.72-1.36,1.31-2.78,2.66-3.26-.92,1.46-2.25,2.86-2.16,4.69.06,1.05,1.02,2.48,1.58,3.29.61-1.36.83-2.36,1.85-3.17l-.94,3.4c-.32,1.14.76,2.64,1.65,3.08Z"/>
      <path d="M21.58,13.33c1.49-.28,2.02-1.3,2.16-2.4.26.44.61,1.21.88,1.11.27-.1.83-.39,1.06-.57.23-.17-.07-.85-.18-1.24-.91-3.38.14-6.56.88-10.22-4.11,3.27-5.35,8.44-4.8,13.33Z"/>
      <path d="M2,33.2l-1.28.31c.19.59.61,1.94,1.25,1.94.77,0,1.69-.06,2.46-.12l-2.13,1.22c.53.72,1.86,1.59,2.73,1.34.83-.24,1.53-1.29,1.7-1.97.22-.89-.49-2.31-1.17-2.47-.14-.03-.51.65-.57.53-1.06-2.23-3.72-3.1-3.67-8.83-1.48,1.56-2.23,7.49.7,8.05Z"/>
      <path d="M50.04,27.1c-.07-.66-.56-1.3-1.27-1.13-1.76.41.04,1.92-.92,5.5.16.23.59.84.47.67-.55-.75-2.02,3.93-3.73,4.97,1.26,1.04,2.04-.35,2.77-1.05,3.23-3.09,3.03-6.94,2.56-7.18l-.7-.35.8-.45c.17-.09.06-.6.02-.98Z"/>
      <path d="M47.86,25.92l1.74-.83c-1.14-1.13-1.73-1.51-2.87-1.85l1.13,2.68Z"/>
      <polygon points="23.43 39.09 22.98 41.49 29.22 40.05 28.25 37.88 23.43 39.09"/>
      <path d="M6.91,33.82c.83,2.44-.26,3.95-2.04,4.97,1.27.61,2.26.84,2.88.44.48-.31,1.16-1.37,1.13-1.96l-.19-3.78-1.78.33Z"/>
      <path d="M48.48,17.28l-3.08.02c-.33,1.79-.53,2.59-.99,3.92,2.08.13,4.24-1.19,4.08-3.94Z"/>
      <path d="M28.65,10.91l1.86.28c.36.05.54-1.27.58-1.64l.47-4.55c-1.97,1.51-3.02,3.65-2.91,5.91Z"/>
      <path d="M41.48,18.84l.77,2.71c1.98-.4,2.92-2.12,2.1-4.04l-2.87,1.33Z"/>
      <path d="M39.48,23.08c.48-.35,1.44-1.14,1.88-1.6.24-.25-.03-1.55-.32-1.65-.76-.28-2.45,1.14-2.25,1.61l.69,1.64Z"/>
      <path d="M36.14,25.15c.99.11,1.67-.25,2.36-.99.45-.48.4-1.47-.34-2.13-.91.7-1.43,1.55-2.02,3.11Z"/>
      <path d="M18.05,13.64c.86,0,1.71-.59,1.57-1.08l-.56-1.9-1.01,2.98Z"/>
    </g>
  </g>
</svg>