<?xml version="1.0" encoding="UTF-8"?>
<svg id="Warstwa_2" data-name="Warstwa 2" xmlns="http://www.w3.org/2000/svg" viewBox="0 0 55.47 48.63">
  <g id="icon-v9-equipment-pixarts-store">
    <g id="icon-v9-equipment-pixarts-store_175">
      <path d="M41.89,35.4c3.08-1.26,10.88-5.34,11.6-8.64l-2.12.99c-.58-1.89-1.18-3.77-1.21-5.9,0-1.13,2.26-2.29,2.85-3.16.42-1.45.3-3.69-.08-5.3-1.32-5.58-12.67-9.22-17.75-9.94l-.14,2.73,3.04.67c.57.13,1.27,1.29,1.11,1.85-.18.64-1.09,1.17-1.75,1.09l-2.75-.33c-.4-.05-.61,1.14-.38,1.53l10.44,3.17c.78.24,1.98.08,2.9.09l-.86-2.91,2.81,1.84c-.27-1.91-1.38-3.1-2.46-4.53,1.48.76,2.87,1.92,3.74,3.39,2.89,4.87-3.61,9.32-7.39,11.2-11.09,5.5-23.66,7.26-35.82,4.77-1.55-.32-3.66-1.31-4.14-2.63-.68-1.87,1.55-2.35,2.03-3.82-1.83.02-3.4,1.73-3.78,3.26-.48,1.92.57,2.87,1.96,3.64.39,1.83.76,4.48.86,6.25.02.35-.81,1.14-.58,1.39,1.54,1.64,4.93,2.65,7.32,2.99,10.38,1.48,20.89.3,30.55-3.67ZM43.27,11.51c-.67,0-1.21-.54-1.21-1.21s.54-1.21,1.21-1.21,1.21.54,1.21,1.21-.54,1.21-1.21,1.21ZM46.81,24.04c.88,2.37,1.38,4.03,1.63,6.34l-5.63,2.93c-.95-2.3-1.3-4.12-1.63-6.62l5.63-2.65ZM36.42,28.61l1.49,6.48-6.6,1.9-1.41-6.7,6.51-1.67ZM24.63,30.92l1.18,6.69-6.84.33c-.51-2.37-.81-4.29-1.06-6.79l6.73-.23ZM7.11,30.04l6.13.98.86,6.57c-2.38-.1-4.14-.37-6.32-.93-.4-2.29-.59-4.34-.67-6.62Z"/>
      <path d="M5.92,20.35c3.52,2.92,7.5,4.59,11.74,6.16,2.77,1.03,5.5,1.3,8.2.44-.41-.17-1.53-.71-1.47-1.06l1.05-5.64,6.43,1.1-.76,4.79,4.94-1.42.64-2.7c4.63-.1,4.71,1.11,8.55-1.69-9.85.66-22.23-2.44-30.49-6.21-2.45-1.12-8.36-4.68-7.72-7.44.75-3.23,10.8-4.19,13.74-3.61-2.95.61-5.57,1.25-8.33,2.4l4.62.17c-1.69.96-3.08,1.76-4.3,2.99l5.24.24-5.21,2.31c3.77-.45,7.33-.88,11.27-.67.03-2.89.36-5.45,1.12-8.43-5.87-.5-12.47-.71-17.72,2.05-2.13,1.12-2.13,2.81-2.11,4.83.08,5.75-4.14,7.47.57,11.38ZM14.68,16.6l5.99,2.23-1.53,6.37-6-2.42,1.54-6.17ZM7.27,12.03l4.15,2.66c-.42,2.14-.84,3.71-1.58,6.09-1.55-.65-3.55-1.62-4.19-3.11-.39-1.83.73-3.81,1.62-5.63Z"/>
      <path d="M52.1,30.57c.58,4.96-8.8,6.6-12.44,7.47l-10.31,2.49-.34,6.29c-2.63-.23-4.41-.47-6.67-.91l.09-4.72-4.87-.03-.51,3.55-5.54-2.21-.67-2.07-4.4-.69c3.3,4.96,12.02,7.31,17.58,8.15,7.4,1.11,14.68,1.13,21.81-1.27,2.14-.72,5.26-1.91,6.07-4.18.83-2.33-.5-5.34.51-7.75.58-1.39,1.62-3.17-.3-4.14ZM34.45,46.88l.15-6.37,6.38-.68.14,6.49-6.66.56ZM50.07,42.43c-.67,1.67-3.24,2-5.12,2.57l-.03-6.2,4.71-1.78c.39,1.66,1.15,3.64.44,5.4Z"/>
      <path d="M31.17,7.34c.58-2.01,2.18-.87,2.55-2.2.6-2.14-5.96-2.08-7.38-2.06-.74,1.31-2.24,7.68.05,7.95l4.66.54c.45.05,1.33-.51,1.55-.85,1.16-1.77-1.83-2.01-1.44-3.38ZM27.62,10.14c-.67,0-1.22-.55-1.22-1.22s.55-1.22,1.22-1.22,1.22.55,1.22,1.22-.55,1.22-1.22,1.22ZM28.61,6.55c-.62.05-1.59-.26-1.78-.72-.19-.46.44-1.74.93-1.67.66.1,1.31.32,1.5.69.25.49-.16,1.66-.65,1.7Z"/>
      <path d="M20.21,15.01c1.42.46,2.91.31,4.51.16,6.33-.57,16.06-.82,21.67,2.66.54.67.92,1.03,1.22.81,2.3-1.67-3.81-3.51-5.05-3.77-7.39-1.55-14.84-1.73-22.36.14Z"/>
      <path d="M34.24,2.34c2.11-.28,4.99.67,7.35,1.76.75-1.15-.19-2.21-1.3-2.44l-5.7-1.15c-1.24-.25-2.64.79-2.25,2.03.15.47,1.41-.14,1.91-.21Z"/>
      <polygon points="50.96 21.89 52.07 26.15 54.77 23.03 52.93 20.05 50.96 21.89"/>
      <path d="M26.13,21.46l-.8,4.14,2.16-.92c1.23-.52,2.14-1.24,3.27-2.51l-4.63-.72Z"/>
      <path d="M0,31.77l3.39,2.36c-.12-2.03-.05-3.69-1.36-5.6l-2.03,3.24Z"/>
      <path d="M21.93.84l.97-.12c4.37-.53,1.11,1.35,7.38,1.31-.28-2.74-7.2-1.92-8.7-1.9.09.59.16.73.36.71Z"/>
      <path d="M24.24,41.32c-.06.4-.08.6-.1.71-.02.08-.72-.07-.72.03l.03,2.96,2.11-1.38,2.48,2.25.33-4.04-2.28,1.46,1.58-1.96h-3.42Z"/>
      <polygon points="53.09 40.12 55.47 37.33 53.23 35.02 53.09 40.12"/>
      <polygon points="4.45 9.17 1.67 10.9 3.25 14.15 4.45 9.17"/>
      <path d="M37.93,8c-1.97-.87-4.02-1.37-5.85-.53,1.8,1.13,4.2,1.86,5.85.53Z"/>
      <path d="M13.82,41.09l2.26,2.11c.31-.84.29-2.14-.22-2.14l-2.05.02Z"/>
      <path d="M12.42,25.93c-1.34-.47-2.74-.06-3.79,1.01,1.49.06,2.65-.34,3.79-1.01Z"/>
      <polygon points="29.91 26.38 30.69 23.04 28.58 24.59 29.91 26.38"/>
      <path d="M43.23,31.79c2.3-1.62,3.17-3.82,3.1-6.55l-3.78,2.01,1.48.87-1.79-.23.99,3.89Z"/>
      <path d="M22.4,33.8l-.57,1.53,2.76,1.2-.76-4.69-4.53.27c-.12,1.47-.04,3.02.46,4.47l2.64-2.78Z"/>
      <path d="M31.41,32.48l.63,3.11,2.48-2.25,2.13.89-.41-3.01c-.31-.17-.56-.23-.57-.39l-.03-.99-4.23,1.16.52.72c.08.12-.54.62-.51.76Z"/>
      <path d="M8.22,31.27l.37,3.74,3.38-2.6-2.2,2.41,3.2,1.86c-.18-1.81-.39-3.15-.76-4.73l-3.99-.68Z"/>
      <path d="M18.65,20.03l.5-.49c.13-.13-.47-.43-.65-.49l-2.97-1.09-.46,1.21c-.28.74-.54,1.73-.49,2.48.92-.02.92-.87.93-1.93.71,1.63,1.44,2.87,2.88,4.19l.88-3.84c-1.51.3-.89.22-.62-.04Z"/>
      <path d="M10.33,15.59c-.31-.77-1.7-1.6-2.79-2.2l-.78,2.68,2.47,3.36,1.11-3.84Z"/>
      <path d="M35.55,45.99l2.37-1.72c.61-.44,1.19-1.26,1.55-1.89l-.28,1.81c-.04.29.45.56.94.9l.13-4.3-4.39.55c-.36,1.57-.45,2.95-.32,4.65Z"/>
      <polygon points="45.89 39.37 45.9 43.68 49.17 41.38 49.07 38.24 45.89 39.37"/>
    </g>
  </g>
</svg>