<?xml version="1.0" encoding="UTF-8"?>
<svg id="Warstwa_2" data-name="Warstwa 2" xmlns="http://www.w3.org/2000/svg" viewBox="0 0 57.97 55.74">
  <g id="icon-v9-equipment-pixarts-store">
    <g id="icon-v9-equipment-pixarts-store_105">
      <path d="M4.81,32.79c-.06-.27-.76-.61-.96-.44l-1.88,1.6c.59.52,1.92.57,2.44.08.22-.21.46-.97.4-1.24Z"/>
      <path d="M5.42,4.23c-.92.19-1.52,1.47-1.33,2.34l1.05,4.9c3.9,1.6,7.64,2.16,11.87,1.69.03-1.89-.15-3.58-.72-5.4-2.65-1.05-8.92-.38-10.6-2.44,5.53-2.5,15.88-1.37,21.06-.33-1.25,1.94-3.31,1.62-5.11,1.05-1.18-.37-4.14-.49-4.01,1.42l.68,9.64c2.58-.08,5.82-.49,8.06-2.36l2.01-7.9c.12-.45.05-1.5-.26-1.79-.31-.29-1.11-.7-1.64-.83-6.99-1.71-14.02-1.48-21.06.02ZM13.87,8.97c.87,0,1.57.7,1.57,1.57s-.7,1.57-1.57,1.57-1.57-.7-1.57-1.57.7-1.57,1.57-1.57Z"/>
      <path d="M28.8,49.44c-.07.4.18,1.53.44,1.81,2.7.31,6.04.64,8.77-.55.51-.31,1.24-1.9,1.8-2.11l3.94-1.46c-.27-4.86-2.78-5.72-6.8-6.18-1.35-.16-3.97,1.09-4.6,2.25-.47,1.72-.98,3.68-2.15,5.12-.59.38-1.32.67-1.4,1.13Z"/>
      <path d="M25.52,42.18c.02-.19.49-.63.63-.75.1-.08.16.42.12.54l-.28.73c.33.48.74-.94,1.03-.84l1.11.4c.18.07.52-.59.58-.75-2.7-1.34-5.11-2.83-7.69-4.81-1.56.93-3.5,2.11-4.62,3.71-.22.32-1.91,3.97-1.13,5.11.27.39,1.02.56,1.66.89l7.66,3.93c1.31-1.36.42-2.85.59-4.57l.34-3.58Z"/>
      <path d="M21.36,2.13c5.64-1.58,10.66-1.86,16.16-.69,1.19.25,2.61.21,3.9.17-1.17,3.18-4.02-.31-6.5,1.15-.95.56-.41,1.65-.47,2.89l-.32,6.4c2.32.11,4.77-.03,6.55-1.39l2.46-8.93c-3.74-1.48-19.39-3.2-21.78.4Z"/>
      <path d="M48.78,36.37c-1.22,5.4-3.36,2.63-2.25,6.69,8.73,1.16,4.09-1.78,9.98-3.61.68-2.13-1.38-3.89-3.24-4.62-1.61-.62-4.03-.52-4.5,1.54Z"/>
      <path d="M40.23,33.09c-1.26-.63-2.13-1.22-3.33-2.39-1.63,1.16-3.17,2.7-4.53,4.44,1.79,1.66,3.43,2.18,5.82,2.36l3.8,3.06c.16.13.69.35.85.42.16.07.24-.8.22-.99l-.44-3.79,1.44-1.19-3.83-1.92ZM36.64,33.66c-.51,0-.92-.41-.92-.92s.41-.92.92-.92.92.41.92.92-.41.92-.92.92ZM38.81,34.98c-.34.1-.72-.72-.6-1.1.11-.34.64-1.12.91-.89.27.23.74.79.91,1.1.14.25-.94.8-1.23.89Z"/>
      <path d="M19.46,33.4c-.36-1-.77-1.98-1.15-2.67-4.02,1.01-7.42.62-11.57.22,1.87,2.79,4.1,4.84,6.36,6.74l6.36-4.3ZM17.13,32.08c.52,0,.95.42.95.95s-.43.95-.95.95-.95-.42-.95-.95.43-.95.95-.95Z"/>
      <path d="M33.77,38.4l-5.64-3.81c-1.76-1.19-4.25.83-5.99,1.59,2.33,2.11,4.74,3.48,7.43,4.42l4.2-2.2Z"/>
      <path d="M44.56,47.94c-1.5.45-3.32,1.02-4.4,1.63-1.88,3.94-7.98,2.78-11.41,2.69-.08.39.25,1.46.64,1.54l4.86.23c.73.03,1.93-.11,2.48-.28l4.6-1.41c-.67-.54-1.26-1.32-.57-2.05.43-.45,1.74.45,1.6.96-.1.38-.35.77-.85,1.53l3.2,2.95c.17-2.03-.59-3.22-1.49-4.17.65-.5,1.18-.91,1.52-1.31.42-.49.26-1.99-.18-2.32Z"/>
      <path d="M17.04,14.04c-4.12.2-7.53-.21-11.69-1.25,1.17,4.58,8.27,4.43,12.02,4.53l-.33-3.28Z"/>
      <path d="M37.63,30.35c2.52,1.64,4.9,2.94,7.47,4.16l3.2-1.99-6.23-3.85c-1.29-.32-3.31.75-4.44,1.67Z"/>
      <path d="M11.4,44.98c.49-3-1.41-1.01-1.56-5.35l-3.75-3.78c-.8,2.33-.55,5.25,1.17,7.33.89,1.08,2.71,1.45,4.14,1.8Z"/>
      <path d="M29.23,33.8c.23-.9-.62-2.22-1.78-2.06-4.88.67-8.92,3-12.6,6.08-.3.25-1.17.6-1.07.92s.49,1.09.63,1.3c3.22-2.53,10.81-8.13,14.82-6.24Z"/>
      <path d="M53.33,43.34c-2.37.79-4.81.87-7.13.6-1.72,2.17,5.1,1.4,6.01,1.29,1.59-.18,2.27-.69,3.46-1.41l2.04-1.23c.47-.28.23-1.48.03-2.35-1.88-.06-3.94.86-4.41,3.1Z"/>
      <path d="M28.35,29.48c.53.7,1.7,1.88,2.13,2.22l4.08-3.58c.2-.45-.15-1.67-.56-2.25-1.49.25-3.51.62-4.88.94-.65.16-1.17,2.15-.78,2.67ZM33.28,26.6c.5,0,.91.41.91.91s-.41.91-.91.91-.91-.41-.91-.91.41-.91.91-.91Z"/>
      <path d="M43.52,28.46c-.04-.63-.63-1.63-1.19-1.82-3.07-1.06-12.87,4.68-10.53,7.67,2.27-2.89,7.84-7.95,11.71-5.84Z"/>
      <path d="M5.06,40.29c-.87,1.68-.58,4.17.89,5.61,1.63,1.59,4.16,2.24,6.13,2.48.22-4.78-5.58-.39-7.02-8.09Z"/>
      <path d="M29.23,3.66c.7,1.68.73,3,.64,4.93l3.33.51c.34-1.45.66-3.12.31-4.39-1.24-.58-2.87-.86-4.28-1.05Z"/>
      <path d="M29.23,44.37c1.84-1.89,6.12-5.14,8.71-4.46l2.52.67c-1.37-2.49-4.03-2.24-6.25-1.28-2.5,1.09-4.65,2.13-6.26,4.61l1.27.46Z"/>
      <path d="M8.08,18.76c-.23-1.46-.87-2.11-1.93-2.78-.47,1.28.28,2.86,1.93,2.78Z"/>
      <path d="M27.04,21.99l-1.95,1.54.41-.61c.11-.16.07-.68-.11-.63l-.89.24c-.56.15-1.32.08-1.99-.09l-7.46-1.93c-.22-.06-.8-.23-.79-.05l.08,1.03-.87-1.52-5.14-2.41c.09.48.31,1.47.57,1.88s1.4.75,1.74.75c.33-1.12.43-1.24.35-.22.78,1.25,2.43,1.59,3.64,1.74.48.06,1.43.95,1.85.77l1.35-.58c.11.69.56,1.42,1.01,1.34l2.11-.36c.04.25.65.89,1.06.91l3.22.17c1.12.06,2.5-.68,1.81-2Z"/>
      <path d="M26.43,30.75c-.29-.55-.66-1.23-.88-1.54-.26-.37-4.77-.34-6.21,1.41l.89,2.28,6.2-2.14Z"/>
      <path d="M5.95,31.81c-.38,1.16.07,2.63.95,3.47l4.76,4.59.88-1.47c-3.18-2.5-4.32-3.88-6.59-6.59Z"/>
      <path d="M24.75,51.5l-.96-.44-7.99-4.14c-.27.74.21,1.38.79,1.72l5.1,2.98c.91.53,2.06,1.03,3.04,1.34.16-.42.32-1.33.03-1.46Z"/>
      <path d="M26.82,25.64c-5.06,1.76-6.6.72-11.86.12.16.73.73,1.42,1.13,1.37l1.37-.17,2.4.5c.44.09,1.41.51,1.71.31l.95-.65-.15.95,3.7-.54c.52-.08,1.14-1.68.75-1.9Z"/>
      <path d="M46.12,35.6l-.57,1.51c-.09.25-.88,0-.95-.09l.28-1.72-1.39,3.02,1.98-.41c1.66-1.97,3.57-3.77,6.1-4.58l2.63.91c-.8-3.22-7.13-1.15-8.07,1.35Z"/>
      <path d="M27.39,46.77c-1.7.58-2.03,7.19-.55,7.7.37.13,1.56-.05,1.32-.32-1.86-2.85,1.58-8.17-.76-7.37Z"/>
      <path d="M42.05,10.72c-.54-.08-1.1,1.25-1.08,1.86-2.85,1.18-2.21,1.96-6.63,3.71,0,.12,1.19.92,1.48.78l3.35-1.53-.18-1.37c.45.24,1.19.79,1.45.5l1.02-1.12c.68-.75,1.48-1.85.6-2.84Z"/>
      <path d="M36.29,13.04l-6.57-.33c-.29-.01-.48.8-.26.95.16.12.76.46.95.47l4.26.25.36-1.04c-.42,1.23,3.25.26,3.72-.52-.92.08-1.58.26-2.45.22Z"/>
      <path d="M13.41,43.47c-.25-.08-1.02.12-1.01.38.05,2.29.34,6.22,3.36,6.05-2.22-3.25-1.16-6.02-2.34-6.43Z"/>
      <path d="M7.5,22.12l.41-1.05c.1,2.32,4.57,1.91,6.19,1.78l-4.62-1.63-4.35-1.61c-.74,1.57,2.25,2.79,2.36,2.5Z"/>
      <path d="M33.09,9.82l-3.3-.56-.42,2.38,4.04.68c.1-1.16.13-2.42-.32-2.5Z"/>
      <path d="M38.96,24.4l-3.83,1.09.61,1.9,4.77-1.83c-.06-.46-1.1-1.29-1.55-1.16Z"/>
      <path d="M13.91,25.44l-5.56-1.78c-.16.35.45,1.73.99,1.86l5.51,1.38c-.07-1.48-.3-1.26-.94-1.46Z"/>
      <path d="M7.99,24.97c.17-1.6-1.35-2.49-2.52-2.05.26,1.13,1.62,1.94,2.52,2.05Z"/>
      <path d="M36.65,24.35c-1.77-1.25-4.19-.27-5.95.18-.4.1-1.45-.47-1.67-.15-1.98,2.89,6.65.02,7.63-.02Z"/>
      <path d="M27.34,18.76l-7.06,2.09c1.81.64,7.26.76,7.06-2.09Z"/>
      <path d="M44.37,39.2c-.82,1.64-.75,4.13.68,5.53l.56-5.32c.03-.29-1.09-.51-1.24-.21Z"/>
      <path d="M29.8,46.99c.49-.87.99-1.8,1.36-2.78-1.29.89-1.77,1.53-2.91,1.23-1.13-.29-1.28-1.04-1.16-2.28l-1.39,3.02c1.61-.81,2.59-.44,4.1.8Z"/>
      <path d="M3.32,24.97c.35-.03.18-1.17.38-1.46.44-.61,1.66-1.68.43-2.59-1.16,1.32-2.11,2.58-2.68,3.98.84.06,1.48.1,1.86.07Z"/>
      <path d="M37.89,18.58l-3.36.58c-.24.04-.8.76-.59.86.16.08.99.48,1.2.43l3.08-.74c.23-.06.78-.77.56-.87-.17-.07-.7-.29-.88-.26Z"/>
      <path d="M11.5,27.39l-5.51-2.23c-.46,2.06,4.72,2.86,5.51,2.23Z"/>
      <path d="M1.17,27.67c-.02.18.61.63.75.57.44-.53.96-1.78,1.05-2.46-.75-.3-2.07-.37-2.36.1-.37.6-.57,1.41-.61,2.24l1.26-1.43-.09.98Z"/>
      <path d="M27.81,16.39l.2-1.63c-1.78,1.28-2.87,2-4.61,2.63l-.17.66c-1.37-.35-2.36-.33-3.69-.02.68.95,1.4,1.55,2.22,1.37.75-.16,1.43-.55,1.99-1.08.7.24,2.34-.04,2.51-.74.03-.13-.35-.68-.44-.77-.07-.07.19.01.28.04l.61.21c.35.12,1.07-.32,1.12-.68Z"/>
      <path d="M12.97,24.19l4.33,1.04c1.36.33,3.62-2.32-4.33-1.04Z"/>
      <path d="M6.38,29.39c.35.15.88-.11,1.22-.36.73.96,1.83,1.08,2.74,1.01.72-.05,2.26.69,2.86.19.37-.77-.91-1.55-1.66-1.59l-2.63-.17c-.29-.02-.96-.41-1.14-.2l-.47.56c-.27-.65-1.17-1.37-1.58-.99-.28.26.22,1.35.65,1.54Z"/>
      <path d="M16.38,30.19c.31-.08.04-.94-.11-1.29.62.32,1.31.71,1.74.8.44.09,1.26-.49,1.75-.97-1.43-.15-2.58-.15-3.97-.11l-2.32.07c-.08,1.68,2.14,1.7,2.9,1.5Z"/>
      <path d="M14.99,41.07c-1.75.9-2.73.6-4-.49-.44,1.38.79,1.94,1.84,2.04,1.06.1,2.39-.29,2.16-1.55Z"/>
      <path d="M11.1,52.49l1.28-2.87c-.88-.29-1.48-.45-2.33-.61l1.04,3.48Z"/>
      <path d="M30.48,21.65c.69.28,1.48-.05,2.14-.64-1.11-.75-2.1-1.14-3.59-.74.37.58.98,1.19,1.45,1.38Z"/>
      <path d="M41.24,21.23c-.37.4-.97,1.06-.91,1-2.49-.32-4.17-.51-6.4-.99-.68-.15-1.59.13-1.69.94l2.61.37c.88.76,2.51,1.23,3.55-.19.23,1.05,1.16,1.4,1.95,1.04.95-.43,1.4-1.4.89-2.18Z"/>
      <path d="M17.73,19.69c.65.07,1.96-.08,2.34-.18-.85-1.84-2.21-1.51-3.69-1.22.43.6.82,1.34,1.35,1.4Z"/>
      <polygon points="52.33 49.06 52.81 45.85 50.53 46.16 52.33 49.06"/>
      <path d="M55.24,45.29l2.26,1.84c-.06-1.73-.18-2.08-.72-3.25l-1.54,1.41Z"/>
      <path d="M29.71,18.8l5.04-1.16c-1.02-2.26-2.45-.38-3.59-.25l-1.52.17c-.33.04-.28,1.32.07,1.24Z"/>
      <path d="M40.35,19.53c-.67.26-2.14.92-2.69,1.2.77.47,2.17.47,2.84-.03.16-.12.06-1.25-.14-1.17Z"/>
      <path d="M5.57,17.48c.22-1.45-.46-2.63-1.42-3.56-.61,1.59.14,2.84,1.42,3.56Z"/>
      <polygon points="6.54 50.5 8.29 48.38 6.44 47.62 6.54 50.5"/>
      <path d="M13.66,18.52c.95.75,1.95,1.12,2.95,1.18-.52-1.71-1.77-1.98-2.95-1.18Z"/>
      <path d="M38.59,16.83c1.73-.09,3.13-.62,3.27-2.34l-3.27,2.34Z"/>
      <path d="M46.46,47.17l.64,1.48.87-2.28c-1.28-.32-1.79.15-1.5.8Z"/>
      <path d="M40.84,17.11l-2.08.96c.53.69,1.45.97,1.8.52.24-.31.35-1.06.28-1.48Z"/>
      <path d="M32.55,15.52c-1.04-.37-2.15-.39-2.72.21.91.87,2.16.55,2.72-.21Z"/>
      <path d="M5.11,31.79l-.03-2.65c-1.41.86-1.05,2.19.03,2.65Z"/>
      <path d="M4.83,46.11c-.49.36-.89,1.25-.91,1.94l1.5-.93c.2-.13-.33-.79-.58-1Z"/>
    </g>
  </g>
</svg>