<?xml version="1.0" encoding="UTF-8"?>
<svg id="Warstwa_2" data-name="Warstwa 2" xmlns="http://www.w3.org/2000/svg" viewBox="0 0 56.07 53.74">
  <g id="icon-v9-equipment-pixarts-store">
    <g id="icon-v9-equipment-pixarts-store_10">
      <path d="M15.27,24.48l-1.77-1.74-1.29,4.48c-.64,2.21.84,4.84,1.33,7.17l3.99-2.74c-1.03,1.93-2.01,3.19-3.35,4.85l1.03,4.54,4.31-4.71-2.1,5.67,2.02,1,1.41-2.02.15,2.88,6.89,2.88,7-2.95-.19-3.12,1.52,2.33c.61-.2,1.72-.77,2.2-1.16l-2.42-5.84,4.48,5.05,1.09-4.48-3.51-5.03,4.19,2.86c2.42-8.67,1.89-4.49.07-11.77l-1.77,1.85c-1.41-2.72-2.88-4.44-5.05-6.14,1.18-3.27,1.97-6.41,2.03-9.97-2.7,3.15-5.63,4.68-9.78,6.16l-5.47-2.67c-1.69-.82-2.79-2.25-4.12-3.68.22,3.63.94,6.9,1.94,10.25-2.03,1.6-3.53,3.66-4.86,6.06ZM22.79,18.55l3.45,3.12,1.65-5.88,1.66,5.98,3.38-3.17-1,4.43,4.28-1.07-2.84,3.44,6.39,1.43-6.39,1.5,2.99,3.3-4.41-.94,1.32,4.69c-1.12-1.14-2.2-2.14-3.63-3.08l-1.8,10.56-1.76-10.68-3.49,3.04,1.24-4.45-4.33.88,3.01-3.34-6.43-1.46,6.48-1.42-3.06-3.51,4.41,1.12-1.13-4.51Z"/>
      <path d="M14.82,22.1l3.63-4.32c-2.57-3.27-4.78-7.37-6.07-11.28-.12-.37-.89-.61-1.12-.4-.98.87-.17,3.28-2.55,3.89-.85.22-1.93-.09-3.03-.57-.21.11-.59,1.1-.51,1.44.39,1.62-1,2.19-1.75,2.94l-3.42,3.42c4.71.7,12.19.93,14.82,4.89Z"/>
      <path d="M40.94,22.06c3.55-4.2,9.8-4.05,14.86-4.86l-3.41-3.38c-.94-.94-2.41-1.55-1.83-3.29.73-2.18-1.89.25-3.9-.7-2.15-1.01-1.09-2.99-2.26-3.81-.19-.14-.83.08-.94.44-1.22,3.74-3.5,7.99-6.11,11.19l3.59,4.41Z"/>
      <path d="M47.15,38l2.02,4.07c1.28-.54,2.44-1.02,3.49-.41,1.16.68.93,2.06.47,2.96-.34.67-1.51.99-2.35,1.03.71,2.19,1.06,4.08,1.19,6.39l4.1,1.57-.11-22.47c-3.15,4.74-1.15,6.4-8.81,6.86Z"/>
      <path d="M27.78,48.1c-4.71-1.78-8.8-3.66-13.24-6.09l-1.22,2.02c4.64,3.09,9.35,5.24,14.59,7.12,5.17-1.9,9.83-4.01,14.5-7.13-.48-.9-.87-1.5-1.31-2.01-4.38,2.69-8.63,4.46-13.33,6.08Z"/>
      <path d="M5.04,45.67c-.94-.09-1.93-.46-2.43-1.19-.4-.57-.49-2.02.07-2.53,1.34-1.22,2.46-.46,3.86.18.89-1.18,1.63-2.64,2.15-4.15-2.26-.39-4.58.1-6.06-1.77-1.09-1.38-1.42-3.13-2.58-4.97L0,53.56l3.91-1.56c.14-2.38.53-4.33,1.13-6.33Z"/>
      <path d="M27.98,13.26c2.71-.69,9.13-3.84,8.82-7.38l-2.85-3.11c-4.16,1.76-8.11,1.46-12.27.06l-2.66,3.14c-.3,3.43,6.19,6.64,8.97,7.29ZM21.55,4.91c.15-.39,1.1-.7,1.53-.57,7.2,2.02,9.74-.97,11.02.35,1.98,2.03-2.91,4.23-3.82,4.76-.97.57-.97,2.74-2.35,2.78-1.15.03-1.42-1.97-2.12-2.54-1.09-.88-5.2-2.29-4.27-4.78Z"/>
      <path d="M48.02,35.15c1.57-.4,3.54-.84,4.56-1.56,2.19-1.56,1.42-4.85.24-6.79l-4.27.33-2.24-3.66c-1.97,6.5-1.49,6.26,1.71,11.68Z"/>
      <path d="M7.84,35.18c2.87-5.62,3.7-5.07,1.61-11.62l-2.29,3.6-4.25-.36-1.36,3.79,1.56,3.2,4.72,1.4Z"/>
      <path d="M31.44,51.25l1.04,2.46c4.72-1.29,8.23-3.37,11.77-6.05l-1.7-2.24c-3.76,2.43-7.17,4.11-11.1,5.83Z"/>
      <path d="M11.52,47.73c3.83,2.64,7.4,4.72,11.93,6.01l.89-2.54c-4.1-1.68-7.52-3.49-11.15-5.71l-1.66,2.24Z"/>
      <path d="M16.89,6.05c.07-.92.05-1.54-.3-2.12-.85-1.43-1.51-2.49-2.77-3.82-1.93,5.46.94,10.38,3.93,14.86-.35-3.12-1.1-5.81-.86-8.92Z"/>
      <path d="M41.98.06c-1.37,1.41-2.3,2.91-3.24,4.57.92,3.38-.31,6.68-.67,10.36,2.99-4.67,5.8-9.03,3.91-14.93Z"/>
      <path d="M9.12,8.65c.49-.32,1.05-1.86.57-2.34L3.26,0l3.57,8.95c.63.29,1.74.06,2.29-.29Z"/>
      <path d="M52.38,18.75c-2.36.37-4.68.89-6.99,1.53l2.22,2.27,7.02-.96-2.25-2.84Z"/>
      <path d="M48.93,8.92L52.51.02l-6.26,6.14c-.45.44-.13,1.89.3,2.35.41.45,1.78.79,2.39.39Z"/>
      <path d="M10.29,20.32c-2.5-.73-4.68-1.19-7.03-1.48l-2.14,2.71,7.03,1.1,2.13-2.33Z"/>
      <polygon points="49.4 25.75 54.48 25.17 53.42 22.94 48.26 23.77 49.4 25.75"/>
      <path d="M7.48,23.83l-5.01-.86-1.1,2.16c1.59.23,3.35.49,4.88.51.51,0,1.27-1.62,1.23-1.8Z"/>
      <path d="M52.47,43.54c.07-.38-.6-1.4-1.08-1.25-1.38.43-2.99,1.15-4.45,2.1,2.23.27,5.2,1.05,5.53-.85Z"/>
      <path d="M3.4,43.88c.83,1.41,3.32.83,5.15.51-1.25-1.16-3.25-2.02-4.67-2.04-.4,0-.66,1.22-.48,1.53Z"/>
      <path d="M4.24,10.71c-1.11-.61-2.47-.96-3.8-1.08l3.05,3c.52-.18,1.21-1.67.76-1.92Z"/>
      <path d="M51.48,11.89c.12.29.89.66,1.13.42l2.86-2.81-3.67.98c-.35.09-.43,1.12-.31,1.41Z"/>
      <path d="M27.92,31.36c2.45,0,4.44-1.99,4.44-4.44s-1.99-4.44-4.44-4.44-4.44,1.99-4.44,4.44,1.99,4.44,4.44,4.44Z"/>
    </g>
  </g>
</svg>