<?xml version="1.0" encoding="UTF-8"?>
<svg id="Warstwa_2" data-name="Warstwa 2" xmlns="http://www.w3.org/2000/svg" viewBox="0 0 58.08 60.38">
  <g id="icon-v9-equipment-pixarts-store">
    <g id="icon-v9-equipment-pixarts-store_47">
      <path d="M3.58,49.52c.33.33,1.06.49,1.83.64l.66,2.2c2.03,2.77,5,4.38,7.97,5.74.97.45,1.82.98,2.83.53.25-.11,1.19-.24,1.22,0l.13,1.2c1.06.36,8.47,1.65,7.8-1.57-5.12.38-10.2-.87-13.98-4.38l4.39,1.92c2.94,1.28,6.66,2.26,9.81,1.26l5.1-9.67c-5.23-1.06-6.9-3.18-10.83-5.79,1.3,2.09,2.57,4.84.8,6.83l-3.31,3.74-2.61-.17c-.52-.03-1.63.84-2.12.65-1.85-.74-3.27-2.18-3.94-3.78l.8-1.55c-.42-.79-.92-1.83-.87-2.47.05-.58.85-1.36,1.3-1.98,1.17-1.59,2.28-2.99,4.02-3.31,1.83-.33,3.38.35,5.05,1.17-3.2-2.85-5.9-6.15-7.65-10.2l-9.4,6.99c-.03,3.42,1.45,6.13,2.74,9.23-2.78-2.23-3.26-5.78-3.59-9.17l-1.18.22c-1.46.27.44,7.91,1.53,9.19l1.3.37c-.91.67-.34,1.61.22,2.17ZM20.25,50.97c.09-.13.19-.25.31-.38.89-.95,2.17-1.79,3.39-1.53,1.22.26,2.68,1.44,2.53,2.95-.24,2.38-2.32,4.51-4.92,4.14-.63-.09-3.03-2.72-1.35-5.12,0-.04.02-.06.04-.06ZM4.96,42.3c-.07-.15.08-.63.1-.75.03-.17-.51-.66-.51-.83.02-1.27,1.35-3.46,2.69-4.07,1.56-.7,3.13.22,3.69,1.4,1.17,2.43-.86,5.06-3.27,5.58-.87.19-2.37-.61-2.71-1.32Z"/>
      <path d="M52.15,1.83c-4.74-2.79-10.15-2.39-14.3,1.23-2.89,2.52-4.76,5.93-4.19,10.01l.77,5.59c.25,1.81-4.05,4.33-1.55,5.98,1.68-1.12,3.59-2.61,4.56-4.57.45-.9-.05-2.48.21-3.67l.97,3.63c-1.13,1.99-2.03,3.95-4.08,5.57,1.08,1.88,5.61-4.4,5.17-6.44-.66-3.02-1.88-5.81-.86-8.72,1.1-3.16,3.3-4.95,6.52-5.42,5.04-.73,9.3,2.91,9.33,8.12.02,3.25-1.68,5.95-4.63,7.26,3.65.03,6.43-2.36,7.5-5.74,1.62-5.11-.94-10.17-5.44-12.82ZM55.46,14.61c-.14-1.32-.03-2.85-.25-4.01-.72-3.87-4.21-6.18-7.99-6.6-6.46-.71-9.24,4.32-10,9.62-.79-2.95.46-6.07,2.22-8.19,3.69-4.44,11.34-3.27,14.64,1.03,1.8,2.35,2.11,5.39,1.38,8.14Z"/>
      <path d="M16.71,25.81c2.22,6.62,11.48,14.61,18.58,15.6,2.2-3.1,2.6-6.94.91-10.36-3.61.27-9.26-3.45-8.9-7.49-3.58-1.45-7.75-.7-10.59,2.25ZM31.56,38.17l.38-2.44.79.92c.2.24,1.29-.08,1.34-.43l.65-4.62c1.55,2.85,1.45,6.05-.52,8.62-2.12-.5-3.84-1.3-5.52-2.51l2.88.46Z"/>
      <path d="M33.54,45.92l1.81-3.38c-4.72-1.35-8.73-3.5-12.29-6.81-2.96-2.76-6.55-6.41-7.29-10.4l-3.3,3.31c2.38,7.42,13.15,17.21,21.07,17.27ZM31.51,42.43c.71,0,1.29.58,1.29,1.29s-.58,1.29-1.29,1.29-1.29-.58-1.29-1.29.58-1.29,1.29-1.29ZM26.84,40.27c.4-.18,1.32.6,1.42,1.02.11.48-.45,1.47-.93,1.55-.42.07-1.21-.39-1.56-.75-.34-.35.47-1.53,1.08-1.82ZM22.15,36.79c.72,0,1.31.59,1.31,1.31s-.59,1.31-1.31,1.31-1.31-.59-1.31-1.31.59-1.31,1.31-1.31ZM17.63,32.57c.44-.23,1.26.04,1.45.45.3.62-.14,1.92-.76,1.98-.73.06-1.64-.45-1.66-.93-.01-.51.46-1.23.96-1.5ZM15.05,28.41c.42-.08,1.26.75,1.2,1.18-.05.43-.68,1.17-1.13,1.3-.42.12-1.1-.53-1.31-.96-.22-.46.6-1.39,1.23-1.52Z"/>
      <path d="M28.3,24.57c.2,2.09,2.22,3.62,3.64,4.29.15-.59.55-1.16.93-1.07l1.64.4c-2.08-1.45-4.56-2.67-4.57-5.51.91,1.68,1.68,3.21,3.31,4.09l2.36,1.27c-.93.78-1.37,1.06-2.49,1.66.66.19,2.1.42,2.61-.11.57-.59,1.09-2.43.41-2.76-2.82-.23-4.71-1.8-5.15-4.63-1.16.22-2.79,1.31-2.69,2.36Z"/>
      <path d="M12.29,51.25l.98-.7c.13-.09.28.35.31.51l.11.59,1.46-1.01,2.44.64c.78-1.04,1.45-1.91,2.19-2.5,2.26-1.82,1.91-4.51.02-6.52-1.55-1.64-4.26-3.04-6.3-1.24-.88.77-1.78,1.94-2.59,2.87l-.83.95c-.4.45,1.65,2.01,1.16,2.73l-.82,1.22c.29.15,1.2.66,1.65.96.36.24.12.92.22,1.5ZM15.75,47.03c.72-.33,2.05-.07,2.76.68.37.39-.2,1.74-.68,1.91-.62.22-1.71.08-2.14-.39-.4-.43-.48-1.96.06-2.21ZM13.71,49.03c-.43,0-.77-.35-.77-.77s.35-.77.77-.77.77.35.77.77-.35.77-.77.77ZM11.76,45.37c-.19-.71.16-2.48,1.27-2.28.95.17,1.9,2.18,1.38,2.91-.87,1.2-2.39.35-2.65-.63Z"/>
      <path d="M20.36,52.03l.24.98c.06.26-.11,1.19.15,1.14l1.16-.23-.81,1.45,2.82-.36c-.54-.88-.78-1.29-.93-1.6-.12-.25,1.2-.44,1.25-.17l.22,1.23c.32-.43.81-1.11,1.24-1.76.76-1.15-.6-2.66-1.63-2.99-1.16-.37-2.43.44-2.93,1.58l1.59,1.29c.07.27-.8,1.15-1,.87-.04-.05-1.21-2.54-1.47-2.5-.01.02-.03.04-.04.06-.03.12.01.42.15,1Z"/>
      <path d="M20.21,51.02s.03-.04.04-.06c-.02,0-.04.02-.04.06Z"/>
      <path d="M9.9,41.47c1.31-1.29.94-2.84-.08-3.86-1.05-1.04-3.42-.29-3.25.76.06.33.68,1.01.82,1.3.12.23-.44.8-.74,1.02l-.82-1.87c-1.04,1.66.3,3.68.38,3.61l.84-.67.29,1.34c1-.45,1.85-.95,2.55-1.63ZM9.27,41.29c.04.26-.6.78-.87.76-.35-.03-.93-.83-.86-1.18.14-.66,1.65-.17,1.73.42Z"/>
    </g>
  </g>
</svg>