<?xml version="1.0" encoding="UTF-8"?>
<svg id="Warstwa_2" data-name="Warstwa 2" xmlns="http://www.w3.org/2000/svg" viewBox="0 0 39.51 55.89">
  <g id="icon-v9-equipment-pixarts-store">
    <g id="icon-v9-equipment-pixarts-store_355">
      <path d="M35.68,12.02c-1.67,2.5-2.37,8.58.76,10.35-1.86-3.52-1.3-6.67-.76-10.35Z"/>
      <path d="M3.56,11.98c.75,3.66,1.19,6.8-.5,10.17,3.1-1.76,2.25-7.99.5-10.17Z"/>
      <path d="M15.96,47.76c2.4,1.71,5.46,1.59,7.52,0-2.83-.2-5.1-.2-7.52,0Z"/>
      <path d="M7.53,45.01c1.97-2.85,4.05-5.69,5.38-9.19-2.58,2.61-4.78,5.41-5.38,9.19Z"/>
      <path d="M34.44,24.04c-.98-.75-2.91-1.12-3.92-1.33-.81-2.72-2.78-8.15-4.7-9.87l1.63,4.9,1.24,4.46c.16.56-.4,1.66-.96,1.73-.69.08-1.1-.51-1.42-1.23l-1.75-3.92c-1.33-2.98-3.39-2.42-1.87-5.56,1.29-2.66,2.89-4.75,4.85-7.12-1.3.9-2.87,2.03-3.74,3.21l-2.91,3.94-4.09-4.12,3.1,5.42c-1.36,1.27-2.22,2.33-3.3,3.77l-4.18-2.92,3.4,3.66c-2.36,4.83-1.24.96-3.23,5l-3.29-1.03c-1.95-.61-3.93.24-4.8,1.81,2.01,1.46.21,3.29,4.75,4.59.09,1.38-1.73,2.16-2.1,3.21-.98,2.82-1.58,5.46-2.15,8.47,2.44-3.35,1.82-4.67,4.32-8.36l2.08-3.06,3.4-.49-2.7,2.45c2.72-.46,3.8-2.67,4.95-4.87.62-1.18,2.17-2.18,1.05-3.58-.36.9-.76,1.84-1.37,2.19-.39.22-1.67-.12-1.76-.56-.07-.37.14-1.22.38-1.52l1.94-2.4c.12-.14,1.16.09,1.08-.08-.79-1.75.83-2.82,2.31-4.76,1.38,1.37,1.86,2.84,2.54,4.65.39,1.04,1.41,2.62,1.51,3.75.06.62-1.61,1.29-2.13.96-.56-.35-1.01-1.37-1.31-2.3-1.16,1.45.28,2.44,1,3.51.95,1.42,1.72,2.77,3.7,2.98,1.72,4.18,2.37,3.35,3.32,7.69.61-2.33-.53-5-1.29-7.21-.12-.4,1.18-.77,1.55-.57.31.17.69.69.93,1.14,2.27,4.38,1.51,6.14,2.46,10.38.49-4.22.07-8.23-1.31-12.13,1.67-1.19,2.79-2.78,2.78-4.88Z"/>
      <path d="M17.2,43.01c-1.7.01-3.78,1.21-5.06,2.41,5.86-.7,9.61-.72,15.15,0-1.48-1.5-3.47-2.46-5.27-2.45l-4.82.03Z"/>
      <path d="M22.29,32.74l-.42-4.74c-.42,1.64-.38,3.38.42,4.74Z"/>
      <path d="M17.03,37.57c-.97-.44-1.86-.38-2.08-1.48-.17.43-.41,1.56-.06,1.8l1.4,1c4.64,3.3,8.38-1.12,8.42-1.29.12-.45-.05-1.38-.14-1.72-.43.96-.55,1.37-.85,1.45-3.02.73-4.14,1.41-6.69.24Z"/>
      <path d="M38.5,17.74c-.13-3.72-.73-7.56-2.86-10.72C30.94.06,18.16-1.9,10.55,1.93c.18,3.33,2.6,5.38,2.45,7.92-1.45-2.26-2.37-4.15-4.35-5.95l.96,3.57c-1-.98-2.24-2.03-3.41-2.58C1.1,7.44,1.23,16.13.77,20.99c-.27,2.79-1.39,5.52-.3,8.36.74,1.93,4.28,4.02,4.76,6.62l-3.24-2.69,1.18,6.93c.45,2.64,1.36,4.89,3.19,6.83l5.67,5.99-.31-3.45c.84,1.5,1.12,3.86,2.83,4.9,3.15,1.92,7.74,1.9,10.89-.03,2.16-1.32,3.99-3.36,5.51-5.17-.49-2.18-1.03-3.85-1.08-6.13l2.53,4.58c2.13-1.74,3.38-4,3.86-6.63l1.38-7.63-3.03,2.35c.75-3.01,3.33-3.88,4.4-6.34,1.33-3.07-.33-7.16-.5-11.74ZM3.07,22.15c1.68-3.37,1.24-6.5.5-10.17,1.76,2.18,2.61,8.41-.5,10.17ZM7.53,45.01c.6-3.77,2.8-6.57,5.38-9.19-1.33,3.49-3.41,6.34-5.38,9.19ZM15.96,47.76c2.43-.2,4.69-.2,7.52,0-2.06,1.59-5.12,1.71-7.52,0ZM12.14,45.42c1.27-1.2,3.35-2.4,5.06-2.41l4.82-.03c1.79-.01,3.79.95,5.27,2.45-5.54-.73-9.29-.7-15.15,0ZM23.72,37.32c.31-.07.43-.49.85-1.45.09.35.26,1.27.14,1.72-.05.17-3.78,4.58-8.42,1.29l-1.4-1c-.34-.24-.1-1.37.06-1.8.22,1.1,1.11,1.04,2.08,1.48,2.55,1.17,3.68.49,6.69-.24ZM21.87,28l.42,4.74c-.8-1.36-.84-3.1-.42-4.74ZM32.96,41.05c-.96-4.24-.19-6-2.46-10.38-.24-.46-.62-.98-.93-1.14-.37-.2-1.67.17-1.55.57.76,2.22,1.9,4.89,1.29,7.21-.96-4.35-1.61-3.52-3.32-7.69-1.98-.21-2.75-1.56-3.7-2.98-.72-1.07-2.16-2.06-1-3.51.3.92.75,1.94,1.31,2.3.53.33,2.19-.33,2.13-.96-.11-1.13-1.12-2.71-1.51-3.75-.68-1.81-1.16-3.28-2.54-4.65-1.47,1.94-3.09,3.01-2.31,4.76.08.17-.97-.06-1.08.08l-1.94,2.4c-.24.3-.45,1.15-.38,1.52.08.44,1.37.78,1.76.56.61-.35,1.02-1.29,1.37-2.19,1.12,1.4-.44,2.4-1.05,3.58-1.15,2.2-2.23,4.41-4.95,4.87l2.7-2.45-3.4.49-2.08,3.06c-2.5,3.69-1.88,5.01-4.32,8.36.56-3.01,1.16-5.65,2.15-8.47.37-1.05,2.19-1.84,2.1-3.21-4.54-1.3-2.74-3.13-4.75-4.59.87-1.57,2.86-2.41,4.8-1.81l3.29,1.03c1.99-4.04.87-.17,3.23-5l-3.4-3.66,4.18,2.92c1.08-1.45,1.94-2.51,3.3-3.77l-3.1-5.42,4.09,4.12,2.91-3.94c.87-1.18,2.45-2.31,3.74-3.21-1.96,2.37-3.56,4.46-4.85,7.12-1.52,3.14.54,2.58,1.87,5.56l1.75,3.92c.32.72.73,1.31,1.42,1.23.56-.06,1.12-1.16.96-1.73l-1.24-4.46-1.63-4.9c1.92,1.72,3.89,7.15,4.7,9.87,1.02.21,2.94.58,3.92,1.33,0,2.1-1.11,3.69-2.78,4.88,1.38,3.89,1.79,7.9,1.31,12.13ZM35.68,12.02c-.54,3.69-1.1,6.83.76,10.35-3.13-1.77-2.43-7.85-.76-10.35Z"/>
    </g>
  </g>
</svg>