<?xml version="1.0" encoding="UTF-8"?>
<svg id="Warstwa_2" data-name="Warstwa 2" xmlns="http://www.w3.org/2000/svg" viewBox="0 0 50.71 51.29">
  <g id="icon-v9-equipment-pixarts-store">
    <g id="icon-v9-equipment-pixarts-store_188">
      <path d="M26.81,32.11c.02,1.15-.08,2.34-.5,2.91-.43-1.78-.92-2.8-2.43-3.51l-.86-3.16c.64.15,1.8.44,2.22.2l9.84-7.94c-4.56-3.02-9.97-1.23-12.35,3.72-2.12-4.02-6.18-6.23-10.4-4.77-4.03,1.4-6.09,5.64-5.34,9.87.58,3.26,2.19,6.23,4.59,8.55l7.5,7.25c1.34,1.3,2.44,2.82,3.53,4.47,3.73-5.96,10.53-9.57,13.96-15.41,1.95-3.32,2.76-7.33.81-10.75l-10.55,8.56Z"/>
      <path d="M11.76,40.66l-5.67,4.58-.41-4.17L0,51.29l11.08-3.26-4.05-1.34,6.12-4.89c.08-.49-1-1.46-1.39-1.14Z"/>
      <rect x="22.17" y="21.65" width="26.9" height="1.61" transform="translate(-6.19 27.44) rotate(-39.02)"/>
      <path d="M21.14,6.46c1.89,1.3-.57,2.51,1.21,3.89-.49.48-1.39,1.27-1.62,1.81-.29.64.03,1.82.6,2.53.29-2.02.64-3.72,2.33-5.11l-.71-3.01c-1.29-.85-2.21-1.52-2.37-2.83-.13-1.12.67-2.16,1.53-2.47,2.99-1.09,2.94,4.01,6.49,3.35C25.03,3.13,25.62-.24,22.6.01c-1.65.14-2.79,1.4-3.05,2.66-.32,1.59.24,2.86,1.59,3.79Z"/>
      <path d="M44.78,8.9l-2.06,1.59-.93,4.43-.1-3.3c-.4.18-1.41.88-1.51,1.36l-.88,4.01-.17-3.46-1.52,1.2-.23,4.23,4.64-3.91c2.23-1.88,2.43-.4,2.75-6.15Z"/>
      <path d="M43.35,18.47c-1.37.8-2.5,1.87-3.87,3.09,2.42.58,3.7,1.29,5.15-.69l-2.22-.86c1.84.1,3.66.63,4.7-1.18-1.04-.17-2.9-.62-3.77-.35Z"/>
      <path d="M21.69,16.32c-.55.07-1.31.77-1.41,1.25-.11.53.04,1.68.43,2.04l1.96,1.82,2.17-2.1c.37-.36.27-1.77,0-2.24-.21-.37-.92-.72-1.21-.71.21,1.25.32,1.8.25,2.37-.05.41-.91,1.09-1.3.99-.49-.12-1.26-.95-1.19-1.4l.3-2.02Z"/>
      <path d="M44,17.82c1.51.15,2.98.25,4.6.23l2.11-1.89-4.51-.42-2.21,2.08Z"/>
      <path d="M22.45,12.93c-.47,1.83-.47,3.54-.02,5.49,1.19.89,1.02-6.3.02-5.49Z"/>
      <path d="M24.63,12.57c0-.67-.79-1.66-1.46-1.79l.71,4.13c.35-.39.75-1.51.75-2.34Z"/>
    </g>
  </g>
</svg>