<?xml version="1.0" encoding="UTF-8"?>
<svg id="Warstwa_2" data-name="Warstwa 2" xmlns="http://www.w3.org/2000/svg" viewBox="0 0 54.39 50.49">
  <g id="icon-v9-equipment-pixarts-store">
    <g id="icon-v9-equipment-pixarts-store_391">
      <path d="M16.43,4.17c.2.47.72.73,1.44.86.44-.97.38-1.97-.48-2.22-.48-.14-1.14.93-.96,1.36Z"/>
      <path d="M54.39,23.87l-8.86-2.46c-.74-.21-.79-2.14-.46-2.86,1.05-2.31,4.72.33,6.28-4.65-3.98,2.34-3.36-.21-7.87.74-.46.06-1.03-1.27-.78-1.69l4.33-7.09-7.5,3.77-4.39-3.14c-.52-2.59.97-4.57.15-5.97-.12-.2-1-.06-1.09.29l-2.37,9.17c5.31,2.3,8.04,7.12,7.38,12.65-.4,3.39-2.11,6.6-4.92,8.3,1.62-2.32,3.59-4.54,1.69-7.24l-.6,1.81c-3.18-1.06,1.36-4.17-2.39-6.46,1.48,4.5-2.01,3.63-.38,7.08.35.74.29,2.02-.27,2.34-.76.44-1.66.42-2.11.05-.55-.46-.8-1.8-.41-2.42,3.59-5.64.42-4.52-.45-8.79-1.17,1.65.83,4.72-.91,4.9-.39.04-1.31-.37-1.48-.73-1.58-3.34,3.38-6.47-.63-9.31.54,1.99-.37,3.66-1.74,4.98-3.98,3.83.14,6.65.63,8.85.16.7-.53,1.88-1.09,2.08-.65.23-1.75,0-2.14-.45-1.63-1.92,2.06-4.78-1.83-7.06,1.4,5.81-4.31,3.84-.34,10.23-3-1.89-4.55-5.37-4.82-8.87-.42-5.34,2.58-9.78,7.46-11.96L20.09.97c-.08-.3-.98-.63-1.11-.36-.75,1.59.71,4.13-.1,6.01l-4,3.09-7.51-3.78,4.15,7.08c.33.56-.45,1.89-1.01,2.22-2.47,1.49-3.88-3.23-7.96-.79,5.15,1.45,1.54,2.1,6.35,4.92.72.42.37,2.02-.42,2.24L0,23.96l9.19,2.43c.53.54.57,2.19.2,2.79-1.55,2.56-5.01-.08-6.04,4.91,3.86-2.95,3.95.43,8.12-1.45.47.04,1.43,1.45,1.12,1.97l-4.29,7.37,7.54-4.36c.94.09,2.24.87,2.58,1.59,1.35,2.86-3.51,3.48-1.09,8.11,1.09-4.78,2.92-2.07,5.14-6.23.28-.52,2.09-.35,2.26.23l2.38,9.17,2.48-9.35c.79-.26,1.92-.5,2.7-.52.68-.02,1.7,1.26,1.71,1.88,0,2.41,1.4,4.06,3.71,4.68-2.79-4.6-.06-2.07-1.13-8.23-.1-.6,1.32-1.53,1.87-1.22l7.48,4.19-4.24-7.45c-.34-.6.66-1.98,1.32-2.19,3.28-1.07,3.38,3.32,8.34,1.26-4.91-1.38-2.18-3.28-6.39-5.38-.33-.16-.42-1.1-.2-1.4.84-1.19,7.61-1.93,9.62-2.88ZM39.78,34.17c-5.21,5.91-13.7,7.6-20.76,3.69-6.72-3.72-10.34-11.64-8.07-19.37,1.2-4.09,3.83-7.91,7.98-9.43-6.53,4.72-9.45,12.59-6.34,20.1,2.69,6.5,9.42,10.34,16.4,9.56,6.6-.74,12.25-5.82,13.59-12.69,1.28-6.57-1.61-12.9-7.15-16.88,2.12.57,3.92,2.18,5.27,4.04,4.68,6.46,4.27,15.08-.92,20.98Z"/>
      <path d="M21.36,1.36c-.45.26.05,1.66.39,1.81,3.54-1.86,7.33-1.91,10.91.12l.38-1.75c-3.54-1.88-8.27-2.17-11.67-.18Z"/>
      <path d="M36.2,4.79c1.8.14,2.92.22,4.24-.9l-4.22-.74c-.05.29-.06,1.11-.02,1.63Z"/>
    </g>
  </g>
</svg>