<?xml version="1.0" encoding="UTF-8"?>
<svg id="Warstwa_2" data-name="Warstwa 2" xmlns="http://www.w3.org/2000/svg" viewBox="0 0 57.82 58.88">
  <g id="icon-v9-equipment-pixarts-store">
    <g id="icon-v9-equipment-pixarts-store_332">
      <path d="M31.54,24.6c-1.36-.14-2.62,1.25-3.35,2.25-.69-.9-2-2.23-2.94-2.59-.35-.13-1.11.85-.94,1.18l.59,1.16c.51-.29.67-.5.79-.37l.7.75c.44.47,1.61,1.29,2.18,1.1.5-.17,4.44-2.59,2.97-3.48Z"/>
      <path d="M38.3,28.8c-2.69-2.6.85,7.39-.12,8.47l-1.01-3.42.14,4.8c.04,1.27-1.29,8.39-3.63,7.12l-1.08-.58c-.18-.1-.71.66-.92.66-.91-.01-2.8-.37-3.7-.23-1.46.23-2.86.34-4.04-.24l-1.59.59c-.37.14-1.22-.56-1.45-.91-.66-1-.85-2.25-1.18-3.44-.44-1.61-1.08-3.15-.16-4.52.08,1.29.09,2.22.72,3.02.94-1.57-.68-2.23-.94-5.66-.74,1.38-1.13,2.93-1.25,4.81l-1.04-3.97c-.76,2.1-1.08,3.84-2.47,5.26,1.02.55,1.91,1.17,2.15,2l-1.16-.67c-.23-.13-1.02.36-1.2.58l-2.05,2.52c-.16.2-.38,1.07-.15,1.02,1.6-.35,2.42-1.34,2.94-.79.8.86,1.01,2.08,1.45,3.35l.55-2.61c.75,2.26-1.12,3.1,1.59,4.27.4-1.28.63-2.09,1.52-2.81l-.29,2.18c1.09-.3,2.11.22,2.47,1.29l.89,2.67,1.09-3.01c.15,1.55.73,2.74,2.15,3.82l.2-1.52c.98.21,2.08.13,2.81-.26.14.18.65.8.77.76.68-.21,1.41-1.43,1.6-2.4l1.26,2.83c.2-1.24.37-2.22.92-3.24.45-.85,1.37-1.03,2.4-.97.09-.6-.52-1.98-1.26-2.2l-3.59,2.08c-4.2-3.74-5.94,1.67-8.83-1.45l-2.36-.7c-1.21-1.61-1.54-3.21-1.73-5.71l2.19,4.86,4.23,1.98c2.23-1.35,4.41-1.39,6.5.03,5.26-2.41,4.23-2.15,6.18-7.73-.03,2.12-.61,4.53-1.81,6.37.7,1.05,1.12,1.99,1.75,3.55l1.59-1.77c-.14-1.17-.24-2.11-.15-3.11l.83,2.64c.31-1.12.7-2.55,1.32-3.25.44-.5,1.28.33,2.77.95.14.06.34-.57.25-.69l-.45-.54-2.17-2.65c-.18-.22-.93-.35-1.15-.22l-1,.58c.66-.93,1.44-1.4,2.16-1.85-1.1-1.66-1.53-3.22-2.25-5.49l-.97,3.51c-.16-2.18.14-4.1,1.18-5.73.34,2.12,2.03,2.98,4.27,3.28l-2.7-4.68c-.41-.7-.6-1.64-.27-2.46.23-.58,1-1.12,1.78-1.61l-1.35-2.28-3.18,3.51Z"/>
      <path d="M39.08,6.69l-2.27-2.52c-.05,4.13-.52,2.13-1.86,5.49l-.64-1.31-1.65,1.96-.93-.61-2.51,3.32c-.45.59-.63,1.95-.86,3.02-.29-.81-.6-1.65-1.05-2.37l-2.46-3.92c-.44-.05-1.55.44-1.8.09l-1.09-1.48-.54,1.12-1.41-2.61c-.29-.55-.24-1.64-.33-2.58l-1.08,1.27c-.31.37-.71.66-1.28.97l2.52,4.44,1.9,1.78-2.44-.88-.56,2.25c-.1.38-.26.6-.14.74l.6.7c-1.19-.31-3.02.78-2.88,2.02.2,1.67,1.97.95,3.01,1.13,2.05.37,4.1,3.6,5.01,3.16l1.45-.71c.27-.13,1.14.16,1.25-.11l.45-1.12.74.65c.13.12.55-.39.76-.58l.73,1.04,2.67.85,4.41-3.42c.87.24,2.19.46,2.72.04.43-.35.86-1.43.91-1.89-3.14-.38-1.44-2.25-3.33-2.33.24-.9.34-1.81.16-2.73l-2.06,1.03c.66-.92,1.58-1.77,2.01-2.55l1.86-3.35Z"/>
      <path d="M53.27,14.24l-1.71,1.04c-.95-.22-2.28-1.29-2.51-2.12-.28-1.02.1-2.43.39-3.41-3.87-.94-2.52-2.03-2.74-2.07l.88.17c.47-2.1.53-4.58-.39-6.73-.67,2.34-1.33,4.04-2.57,6.18l2.14,2.52c.5.11.82.15.8.37-.02.21-.74,1.03-.88.87-.43-.5-1.16-1.68-1.49-2.28-.25.11-.81.47-.88.26l-.26-.88c-.14-.46-.4-1.19-.57-1.5l-2.67-1.49c-.15.49-.46,1.4-.77,2.07l-1.88,4.02c-.08.17.31,1.13.37,1.31.17.53.67-.99.71-.73l.14,2.81.86-.99c.14,1.55.62,2.65,1.59,4.04l3.13-2.64c-.84,1.45-1.79,2.55-2.6,3.58l.89,3.09c.07.25.4,1.09.54.92l.55-.67c1.03-1.27,2.24-2.85,4.05-2.62l2.71.34.17-2.15c.84,1.95,1.23,3.52,3.38,4.16l-.89-3.06c.05-1.51-.14-2.96-.49-4.41Z"/>
      <path d="M.31,20.87c1.84-1.83,3.65-.99,5.69-1.22,2.98-.34,4.98-.15,6.66,3.01.51-1.13.59-1.96.6-2.89.1-.23.28-.81.33-.97.31.09.91.33.85.12-.06-.2-.23-.82-.34-.94l-1.85-2.08,3.11,1.63c.19-.7.69-1.62.45-1.96l-.91-1.34,1.98.65c.42-1.2,1.02-2.53,1.69-3.81l-2.99-5.59c-1.63,1.12-3.3,1.83-4.98,2.01.28,1.15-.14,2.5-.81,3.63l1,1.64c-1.33-.91-2.32-1.18-3.79-.59l-1.83-.49-.62,1.8c-.23.67-.26,1.44-.13,2.34-1.2-.13-2.04.87-2.75,2.03l-.57.93c-.12.19.49.59.55.63-.68.34-1.16.55-1.33,1.48Z"/>
      <path d="M38.06,20.13c-1.16,1.73-2.24,2.98-4.42,3.1,1.56,1,2.83-.35,3.81-.94-.49,1.49-3.11,1.98-4.33,1.78l-2.05-1.43c-1.36-.94-3.38-1.91-4.84-.35-1.49,1.59-1.62-.91-3.31,3.24l.22-1.65c-1.35-.09-2.57-.2-3.53-.56h2.98c-1.29-.61-2.59-.75-3.21-1.7-.55-.86-1.61-2.48-2.74-1.55l-2.11,1.73c.44.75,1.12,1.9,1.68,2.6l1.93,2.43.32-.66,1.71.45c-.13,1.22-.07,2.86.19,3.83l1.55-1.64,1.71,1.18,2.6-.33c1.57-.2,4.97-.52,6.64.37.39-.14,1.25-.71,1.77-1.09l1.43,1.32.24-3.56.77-.6c.31.46.69.52,1.25.51.37,0,3.8-3.27,3.31-4.84-.46-1.44-2.8-2.75-3.56-1.63ZM28.58,28.07c-.58.2-1.74-.62-2.18-1.1l-.7-.75c-.12-.13-.29.08-.79.37l-.59-1.16c-.17-.33.59-1.31.94-1.18.95.36,2.25,1.68,2.94,2.59.73-1,1.99-2.39,3.35-2.25,1.47.88-2.46,3.31-2.97,3.48Z"/>
      <path d="M54.5,23.34c-.26-.75-1.87-1.37-2.41-1.92-.31-.32-.54-.78-.75-.69l-.84.35c-1.16-.64-3.41-.79-4.19.72,2.16,2.02,1.46,2.74,3.54,5.24l.42.49c.09.1.47,0,.47-.13l.02-.82c-.2-.52-.17-.47.12.32l2.94.04,2.5,1.6-1.83-5.19Z"/>
      <path d="M4.66,27.09c.27.1.91-.18.76-.33-.87-.85-1.28-.39-1.18-.72.04-.13.14-.51.16-.56h0s0,0,0,0l1.29.41.39,1.66c2.65-2.48,1.76-3.91,4.19-5.87-3.05-2.55-2.25.02-6.94-.94L.24,28.41c1.81-.89,3.16-1.8,4.42-1.32Z"/>
      <path d="M12.49,36.5c1.36-.25,2.55-.78,3.58-1.79l.98-1.85,1.08,3.62,1.31-6.9c.06-.3-.52-1.38-.8-1.35-.23.03-.37.14-.84.41l-2.57-3.36-1.64,2.06,2.15,1.9c.45.4-.23,1.88-.56,2.46l-2.7,4.79Z"/>
      <path d="M3.4,0c-.45,3.85,1.13,7.68,3.28,10.72.34.48,3.12.08,3.51-1.33.16-.57-.37-1.68-.84-2.04C6.77,5.34,5.08,3.02,3.4,0Z"/>
      <path d="M55.78,2.97c-1.31,2.79-2.58,5.16-4.98,6.81-1.13.78-1.32,2.59-.56,3.71.35.51,1.78.46,2.14.08,2.79-2.93,3.6-6.84,3.4-10.6Z"/>
      <path d="M21.71,50.63c-.18-.2-.85-.46-1.09-.38-2.04.65-1.2,7.09,1.02,8.63-.47-3.78,1.82-6.26.07-8.25Z"/>
      <path d="M36.13,50.25c-1.74-.15-2.42,2.11-1.82,3.64.56,1.45.46,3.1.67,4.94,2.1-2.38,2.85-6.04,1.15-8.58Z"/>
      <path d="M42.71,46.24c-.32-.25-1.36.12-1.47.5-.47,1.64,1.51,2.88,2.43,5.46.82-1.92.42-4.71-.96-5.96Z"/>
      <path d="M14.33,46c-1.77,1.3-2.33,4.07-1.55,6.06,1.61-3.44,2.84-2.89,2.82-4.79,0-.43-.76-1.16-1.26-1.27Z"/>
      <polygon points="7.54 27.46 10.48 29.38 11.61 26.98 8.86 25.29 7.54 27.46"/>
      <path d="M33.54,30.49c-.2.27-.5,1-.49,1.37l.09,4.2c1.46-1.36,2.32-3.91,1.66-5.55-.13-.33-1.07-.27-1.26-.02Z"/>
      <path d="M23.39,32.1c.02-.49-.11-1.28-.39-1.56-.23-.24-1.13-.37-1.34-.2-.54,1.95.17,4.24,1.58,5.97l.15-4.2Z"/>
      <polygon points="48.82 27.62 47.36 25.43 45.05 27.05 46.18 29.4 48.82 27.62"/>
      <path d="M21.42,44.43c.25.4,1.33.6,1.61.37.83-.67-1.59-3.43-1.48-5.84-.82,1.76-1.01,4.09-.14,5.47Z"/>
      <path d="M33.62,44.95c.3.18,1.29-.28,1.45-.61.76-1.66.53-3.42-.19-4.8-.52,2.77-2.53,4.66-1.25,5.41Z"/>
      <path d="M3.25,14.71l.95-2.07L0,10.6c.91,1.8,1.93,3,3.25,4.1Z"/>
      <path d="M42,28.82c-.53.73-.59,1.57-.34,2.53l3.42,1.01c-1.01-1.56-1.78-2.38-3.08-3.55Z"/>
      <path d="M14.59,28.97c-1.32.72-2.31,1.81-3.11,3.27,1.18-.3,2.06-.55,3.15-1.02.51-.22.44-1.84-.04-2.26Z"/>
      <path d="M54.55,18.22c.03.59.34,1.64.61,2.12l2.66-1.43c-1.28-.64-2.12-.85-3.27-.69Z"/>
      <path d="M11.66,6.4l1.76-.77-1.84-3.07c-.3,1.5-.26,2.47.08,3.85Z"/>
      <path d="M24.04,43.97c.05.61,1.39,1.2,1.78.65-.31-1.16-.55-1.71-1.09-2.67-.4.49-.74,1.43-.69,2.03Z"/>
      <path d="M31.07,45.06c1.59-.26,1.46-1.91.62-2.85-.48.67-.91,2.1-.62,2.85Z"/>
      <path d="M29.56,30.33c-.99-.15-.97,1.55-.31,2.15.56-.29.97-2.05.31-2.15Z"/>
      <path d="M29.17,45c.29.12.97-.69.82-.98l-.6-1.12c-.7.4-1.01,1.78-.22,2.1Z"/>
      <path d="M31.31,30.33c-.62.3-.68,2.01-.28,2.51,1.02-.77,1.35-2.27.28-2.51Z"/>
      <path d="M25.54,33.02c.73-1.49-.05-3.11-.45-2.7-.1.11-.49.46-.53.61-.15.54.47,1.69.98,2.09Z"/>
      <path d="M26.65,31.56l.78,1c.4-.99.54-1.97.13-2.35-.64.04-1.17,1.02-.91,1.35Z"/>
      <path d="M27.22,45.04c.32.05.75-1.01.58-1.29l-.49-.8c-.65.59-.92,1.98-.09,2.09Z"/>
    </g>
  </g>
</svg>