<?xml version="1.0" encoding="UTF-8"?>
<svg id="Warstwa_2" data-name="Warstwa 2" xmlns="http://www.w3.org/2000/svg" viewBox="0 0 20.63 54.28">
  <g id="icon-v9-equipment-pixarts-store">
    <g id="icon-v9-equipment-pixarts-store_394">
      <path d="M7.72,24.69c.33.18,1.13,1.21.88,1.54l-.97,1.27,1.13,1.25c-.52.46-1.01.87-.98,1.22.02.29.89.88.89,1.28l.04,7.79,3.22-.04.15-7.95c0-.36,1.12-1.23.84-1.45l-1.09-.85,1.16-1.3c-.59-.69-1.08-1.32-.93-1.74,1.08-3.06,3.78,3.01,8.58-6.12-1.69-2.47-1.9-4.81-5.09-5.38-1.68-.3-3.54.22-4.53,1.67-.28.4.02,1.54.34,1.88.3.33,1.31.28,1.57-.14.4-.64.68-1.13.95-1.43.22-.25,1.27-.09,1.6.03,1.41.52,2.22,2,2.14,3.4-.08,1.4-.87,2.77-2.44,3.23-.42.12-1.62.05-1.77-.34l-.54-1.38c-.12-.29-1.09-.36-1.28-.11-.2.26-.56.85-.72,1.18l-.38.82c-.07.16-.58.13-.61-.05l-.18-.86c-.1-.49-.91-1.29-1.45-1.23-.5.05-.8.86-1.11,1.58-.29.67-2.04.43-2.72-.08-1.6-1.19-2.03-3.95-.18-5.61.6-.54,2.23-1,2.74-.34.44.56.75,1.31,1.15,1.48.34.15,1.1-.12,1.36-.39.25-.27.33-1.27.11-1.64-.84-1.42-2.79-1.91-4.49-1.66-1.37.2-2.78,1.24-3.56,2.64l-1.54,2.75,2.19,3.32c1.24,1.88,3.56,2.36,5.53,1.73Z"/>
      <path d="M8.74,53.34c0,.69,1.66,1.09,2.24.88.62-.22.95-1.09.95-1.89v-9.99s-3.21-.08-3.21-.08l.03,11.07Z"/>
      <path d="M15.19,51.75l2.96.08v-2.65s-1.92.24-1.92.24c-.09-.54-.1-1.24-.32-1.27l-.98-.15c-.2-.03-.41-.42-.38-.61.11-.89,1.46-.25,1.53-.9l.11-1.06,1.99.14.02-2.49c-1.09-.12-2.46-.11-3.15.25l-.11,1.36c-.02.23-.86.27-.93.05l-.36-1.21c-.06-.2-1.11-.02-1.12.22l-.06,7.14c0,.32.63,1,.81.79,1.03-1.22.27-1.58.82-1.58h.73s.36,1.64.36,1.64Z"/>
      <path d="M11.68,8.58c2.34-.52,3.47-2.77,3.05-5C14.34,1.5,12.43,0,10.32,0c-2.14,0-4.05,1.52-4.41,3.58-.37,2.14.63,4.34,2.87,5.13,1.06-1.55-3.04-3.81-.24-6.29,1.18-1.05,2.97-.8,3.9.34,2.09,2.56-1.43,4.09-.76,5.82Z"/>
      <path d="M10.03,6.6c-.15.13-.5.58-.5.82l-.02,4.27c0,.26.55.84.8.77.25-.07.72-.74.72-1.01l-.05-4.14c0-.3-.75-.88-.95-.7Z"/>
      <path d="M12.91,40.67c.08-1.47-3.76-.87-4.95-.78-.37.03-.18,1.53.23,1.55l3.68.12c.36.01,1.02-.56,1.04-.89Z"/>
      <path d="M15.14,13.2c-.82-1.4-1.8-2.41-3.33-3.22-.45,1.17-.14,1.92.59,2.8.69.83,1.68,1.1,2.74.42Z"/>
      <path d="M5.66,13.27c1.24.6,2.09.29,2.69-.65.53-.82.72-1.66.28-2.58-1.42.89-2.45,2.03-2.97,3.23Z"/>
    </g>
  </g>
</svg>