<?xml version="1.0" encoding="UTF-8"?>
<svg id="Warstwa_2" data-name="Warstwa 2" xmlns="http://www.w3.org/2000/svg" viewBox="0 0 58.48 59.05">
  <g id="icon-v9-equipment-pixarts-store">
    <g id="icon-v9-equipment-pixarts-store_106">
      <path d="M31.62,32.12c.2-.2.43-1.05.24-1.15l-.74-.39c.07-.42.24-1.42.2-1.91-.39-3.94.33-7.42.84-11.19.17-1.23,0-2.37.51-3.98-9.11,3.14-7.19,5.91-8.05,7.15-1.38,2.01-3.47,3.76-4.73,6.08-.12.23-.67.81-.82.62-.11-.14-.47-.65-.54-.87l-1.5-4.87.03,7.28c.61-.3,1.61-.74,2.37-.92-1.52,1.06-3.07,1.69-3.8,3.4,1.54.09,1.73-2.09,3.41-.99-2.49,1-4.78,2.35-5.66,5.14l1.98-.53-4.01,2.52c-.99.77-1.15,2.3-3.07,1.67l-1.46,2.62,3.14-.15c-1.25.6-1.95.8-3.61,1.11l.4-2.65-4.69,2.56c-.54.3-1.41,1.94-.78,2.42,3.38,2.57,12.17,3.95,13.17,1.34-.6,1.57,5.57-.88,6.43-2.1-1.96-2.48-5.69-3.18-8.53-1.84-.62.29-1.27,1.65-1.1,2.21.15.49.9.87,1.51,1.23-.47.12-1.58-.09-1.79-.46-.21-.38-.3-1.3-.15-1.73,1.19-3.42,6.94-2.66,10.78-.16.57.37,1.85-.77,2.5-1.1l2.66-1.35c.05-2.51.41-4.65,1.53-6.7l-1.04,6.54c2.84-.08.45-5.05,4.36-8.87ZM19.29,38.15c-1.48-2.13.58-3.38,1.19-5.8l.49.55c.14.16-.16.74-.29.96-1.16,1.04-1.36,2.34-1.39,4.29ZM22.12,36.29l.55-.68c.11-.13-.15-.43-.26-.61-.12-.19-.59.44-.64.71l-.35,2.02c-.73-.86-.54-2.17-.07-2.73.21-.25,1.13-.74,1.3-.49.18.26.46.73.59,1,.25.52-.55,1.11-1.13.79ZM27.63,19.06c.03.35-.16,1.65-.5,2.04-.55.65-1.66,1.65-2.4,2.11l2.91-4.15ZM26.01,28.39c-.94-.93-1.08-2.51-.24-3.69l1,2.59c.85.09,1.38-.39,2.27-1.6.37.5.37,1.71-.05,2.24-.7.86-2.21,1.2-2.97.45Z"/>
      <path d="M19.2,26.27l3.97-4.78c.66-.79.85-1.09,1.03-2.05,1.05-5.46,8.1-5.7,9.41-7.38.46-.59.63-2.34.1-2.8-1.03-.9-2.97-1.56-4.23-.53l3.1,1.07c-3.64,4.04-7.33,1.72-10.43,9.26-.53,1.3-1.56,2.54-2.53,4.05l-2.88-7.07c-1.05-2.57,1.42-2.6.59-4.01-.13-.22-.82.21-1.05.42-1.58,1.49-1.41,2.81-.67,4.45,1.39,3.06,2.6,6.03,3.58,9.39Z"/>
      <path d="M.21,47.77c5.3,3.65,14.39,4.53,19.93.2,2.2-1.72,4.1-3.12,6.37-4.62l.67,1.2c1.38-1.05,2.51-2.12,3.36-3.7-3.74.99-6.81,2.73-9.96,4.78-6.2,4.02-13.83,4.04-20.04-.07-.44.36-.78,1.89-.33,2.2Z"/>
      <path d="M19.39.52c-3.61,7.1-3.31,8.34,1.22,15.51l2.69-7.18c.08-.22.14-.7.04-.75l-.58-.26c-.14-.06-.55-.42-.53-.58.08-.66,3.39,1.29-2.84-6.74Z"/>
      <path d="M33.08,35.21l-.83-.18c.15-.97.12-1.85-.26-2.27-2.24,2.01-2.45,4.75-2.35,7.33,2.32-.93,3.34-2.71,3.44-4.88Z"/>
      <path d="M14.07,23.67c.53-2.69-1.15-4.73-3.38-5.56-.58,2.76.64,5.11,3.38,5.56Z"/>
      <path d="M12.47,12.43c1.07-1.89-.02-4.2-1.62-5.05-1.17,2.16-.05,4.24,1.62,5.05Z"/>
      <path d="M27.7,9.52c1.98-.66,2.3-3.41,1.16-4.91-1.37.81-2.33,3.56-1.16,4.91Z"/>
      <path d="M34.68,27.79c.35-1.81.07-3.07-.88-4.26-1.08,1.42-1.03,3.54.88,4.26Z"/>
      <path d="M24.07,9.78l2.67-1.03c-1.41-1.01-2.41-.26-2.67,1.03Z"/>
      <path d="M20.8,52.52c3.37,1.76,7.34,2.94,11.26,3.1,1.27.05,6.67-.48,6.58-1.7l-.11-1.57,1.15,1.83,3.45-1.83c-1.84-2.06-6.29-2.18-8.08-.28,0-1.72,1.7-1.55,2.97-1.65,5.41-.43,4.74,3.09,6.61.43-2.19-1.89-7.68-2.81-9.99-.54-.39.39-.62,2.12-.11,2.29l2.45.84c-.62.06-1.66-.01-2.63-.13-.53-.36-.93-1.86-.67-2.46,1.46-3.48,9.09-2.51,11.73-.33l2.6-2.03c-.08-4.05.73-8.17,3.73-11.01.61-.58,1.31-1.62,1.12-2.62-.1-.55-.55-1.1-1.05-1.48.51-.6,1.17-1.47,1.15-1.98-.03-.44-.46-1.28-.8-1.77-.27-.39-1.54-.77-1.88-.44-.35.34-.81,1.33-.77,1.49.8-.3,1.19-.47,1.54-.44.35.03.3,1.15.05,1.44-.87,1.01-2.59,1.48-3.65.68-1.04-.79-1.39-2.28-.64-3.52.89-1.46,2.29-2.31,3.75-3.34,1.1-.77-.16-2.49.42-3.72.56.94.5,2.91.18,4.01-1.8,1.06-3.43,1.94-4.17,4.02-.49,1.37,2.47,2.66,2.78,2.3l.97-1.11c-.84.08-1.48.23-1.7-.07-.49-.68.56-2.42,1.28-2.46l2.34-.13c.28-3.99,1.34-7.62,2.79-11.49-2.15,2.18-5.1,2.58-7.17,4.23-3.55,2.81-6.65,9.86-8.56,11.3-.95.72-3.23-9.88-4.13-10.52.38,3.66,1.68,7.13,1.16,10.72l-.42,2.88,3.47-1.96c1.48,2.12,2.7,3.29,3.38,5.6l-3.59-5.09c-1.73,1.04-3.27,2.04-4.2,3.78l3.64-1.9c1.16,1.48,2.07,2.87,2.78,4.36-.65.61-1.86,1.56-1.78,2.15l.48,3.26c-3.93-6.39,3.92-2.99-1.7-9.09-1.52.89-3.18,1.61-4.04,2.83l-2.92,4.15c-2.37,1.33-4.34,3.21-4.17,6.23l6.34-1.2c.17-.03.74-.29.86-.36.12-.06.04.17-.04.67l-7.63,1.39.44-3.71c-1.87,1.04-8.09,3.37-6.85,5.94ZM47.92,23.15c.1-.2,1.76.25,1.87.74.25,1.08-1.35,2.38-2.39,2.41.7-1.03.78-1.56.52-3.14ZM45.3,28.59l-.21,2.21c.17,1.85,1.94,2.94,4,3.29.28.05-.05,1.15-.32,1.06-.03,0-3.38-1.6-3.8-2.71-.51-1.34-.45-2.6.33-3.86ZM41.41,42.76c.25-.81,1.23-1.67,1.92-1.97-.28.67-.68,1.61-.9,2.31-.12.36,1.31.71,1.65.49.4-.26.66-.78,1.34-1.98.21.41.26,1.42.06,2.01-.28.79-1.39,1.23-2.26,1.1-.53-.08-1.16-.23-1.4-.42-.29-.24-.52-1.17-.4-1.54ZM29.62,48.27c1.52-1.88,3.54-1.52,5.73-1.36-1.84.48-3.65,1.05-5.73,1.36Z"/>
      <path d="M19.3,54.55c-.15,1.31,16.32,10.02,26.26-1.01,1.09-1.21,2.12-2.05,3.66-3.22l.4,2.55c1.6-.67,3.52-1.43,4.88-2.66,1.27-1.15.97-3.72.7-5.11-4.65,4.17-4.61,2.03-10.66,7.09-7.21,6.03-17.35,5-24.82.57-.15.58-.36,1.39-.4,1.79Z"/>
      <path d="M39.7,31.54l6.73-10.12c1.44-2.17,4.38-1.86,8.83-5.27.88-.68,1.81-2.74,1.1-3.6-.98-1.19-2.87-2.1-4.26-.79l3.22,1.34c-1.65,1.86-3.74,2.98-6.08,3.77-.93.35-2.48.95-3.26,1.45l-6.06,9.58-4.76-12.45c.74-1.07,4.03-2.14,3.39-2.9l-.44-.51c-1.53.85-3.57,1.34-4.28,3.25-.36.99.46,2.68.91,3.52,1.22,2.25,2.13,4.41,2.93,6.79l2.02,5.96Z"/>
      <path d="M38.74,8.24l1.11,8.49c.18,1.37.82,2.54,1.75,3.29,3.16-4.28,4.24-8.7,4.15-13.87-.03-1.8-1.84-3.68-2.82-5.71l.1,5.62c-.51-2-.61-3.83-.79-6.05-1.6,2.46-3.87,5.48-3.5,8.24ZM40.57,9.34l-1.15-1.81c1.64.7,1.83-.34,3.02-1.49-.46,1.13-1.01,2.04-1.88,3.3Z"/>
      <path d="M53.36,1.49c-3.37,3.3-4.55,6.35-3.43,11.18,1.65-1.89,2.97-3.79,4.14-5.7l-1.68-.47,1.73-.46c-.09-1.56-.28-2.99-.76-4.55Z"/>
      <path d="M54.53,43.53c.6-1.67-.17-3.41-1.03-4.67-2.09,2.24-3.42,4.95-2.6,8.03,1.41-.78,3.08-1.83,3.63-3.36Z"/>
      <path d="M53.05,36.64c-2.5,2.76-5.3,7.22-4.3,11.24,2.77-.04-.52-4.69,4.06-9.01.55-.52.81-1.49.24-2.23Z"/>
      <path d="M54.76,26.76l2.58-1.78c-.79-.5-1.46-1.14-1.13-1.91l.41-.93c-.06,1.4-.01,1.99.37,2.03.38.05,1.32-.38,1.34-.77l.15-3.88c-2.75,1.39-4.27,3.93-3.72,7.24Z"/>
      <path d="M47.25,10.52c-.33.14-.6.51-.92,1.09,1.02.13,1.79.09,2.51-.38-.17-.42-1.24-.87-1.59-.71Z"/>
    </g>
  </g>
</svg>