<?xml version="1.0" encoding="UTF-8"?>
<svg id="Warstwa_2" data-name="Warstwa 2" xmlns="http://www.w3.org/2000/svg" viewBox="0 0 44.79 54.6">
  <g id="icon-v9-equipment-pixarts-store">
    <g id="icon-v9-equipment-pixarts-store_385">
      <path d="M5.68,20.53c1.26,1.72,1.81,4.06.66,6.07-.42.73-1.36,1.52-2.03,2.32,2.84-1.44,6.14-1.05,7.94,1.6,1.33,1.95.82,3.74-.03,5.94l1.99-2.47c2.22-1.72,6.25-1.05,7.33,1.85.63,1.7.78,4.73.05,6.26-.69,1.44-2.17,2.31-1.31,4.12-1.42-1.35-1.39-2.69-1.41-4.7-1.16,1.88-.4,4.21,1.74,5.44-2.11.36-3.49-1.05-4.2-3.18-.31,1.1.41,2.56,1.51,3.09l2.22,1.08c-2.11.59-3.99,1.57-3.38,3.7.25-1.84,1.72-2.88,3.73-2.97-2.09,1.92-2.52,3.59-.9,5.93-.4-2.35-.84-4.36,1.49-5.35l.38,1.29c.44-.44.74-.87.85-.72l.58.79.48-1.22c1.98.56,2.12,2.57,1.75,4.86,1.02-1.39,1.28-3.91-1.34-5.57,1.59-.22,3.13.78,3.89,2.28.29-1.98-1.53-2.45-3.26-3.1,1.89-.62,3.78-1.51,3.56-3.75-.65,1.96-2.36,3.15-4.26,3.01,1.2-.79,2.17-1.7,2.31-2.81.16-1.23-.24-2.53-.88-3.45.54,2.38.66,4.03-1.1,5.33.68-1.61.17-2.97-1.35-3.86-.06-1.75-.1-3.79.02-5.64.15-2.41,2.83-3.56,4.81-3.64,2.49-.09,3.52,1.72,4.97,3.69-1.16-2.4-1.67-4.65.13-6.69,2.19-2.48,5.43-2.4,8.34-.67-.95-1.05-2.34-1.74-2.84-2.88-1.01-2.29-.39-4.55,1.02-6.22,1.41-1.68,3.34-2.11,5.65-2.34-2.41-.51-4.15-.85-5.12-2.94-1.89-4.09-.63-8.24,2.51-11.36-2.21,1.21-3.86,2.52-5.76,3.87-4.26,3.02-9.46,1.04-9.72-1.18-.24-2.02.22-3.95-1.61-5.34-1.31-1-3.2-1.39-4.95-.44-1.38.75-2.55,2.55-2.3,4.41.17,1.32.06,2.28-1.28,3.05C10.08,11.67,7.04,5.42,1.69,3.22c3.95,3.03,5.18,7.98,2.81,12.3-1.65,3-4.25,1.26-4.5,2.57,2.5-.14,4.41.72,5.68,2.45ZM7.54,26.28c.63-3.15-.1-5.68-2.77-7.85,1.69-.45,3.56-.13,4.6,1.07,1.22,1.42,1.73,3.51.41,5.25-.47.62-1.53,1.2-2.24,1.53ZM33.31,23.94c-.93-.25-2.16-.98-2.47-1.75-.43-1.04-.07-2.56.59-3.18.77-.72,2.61-.87,3.61-.52-1.44,1.64-1.97,3.2-1.73,5.44ZM26.1,20.64l-1.2,1.12-1.12-2.37,2.31,1.24ZM24.25,18.41l2.72-.19-.44,1.74-2.28-1.55ZM25.94,25.3l-3.14.98v-2.36c-.01-.45,1.48-1.01,1.73-.65l1.41,2.02ZM24,22.05c.15.28-1.17.74-1.28.6l.12-2.83,1.16,2.24ZM23.29,27.15c.54-.6,2.2-1.11,2.99-.49.68.54,1.19,1.53,1.59,2.39-2.14-.27-3.48.05-5.08,1.23-.12-1.06-.12-2.44.51-3.13ZM27.5,25.75c0-.83.94-2.04,1.97-2.24,1.24-.24,2.43.63,3.26,1.39-2.25.51-3.17,1.82-4.15,3.68-.6-.9-1.09-1.93-1.08-2.83ZM28.83,18.25l2.05.07c-.53,1.13-.72,1.82-1.08,3.52-.45-.18-1.72-.89-2.22-1.49-.68-.8.47-2.13,1.26-2.1ZM27.79,14.79l2.36-1.74c.09,1.55.2,2.34.84,4.29-.5.09-1.87.08-2.8-.13-.62-.14-.93-2.04-.4-2.43ZM29.33,22.49c-1.03.86-1.69,1.48-2.67,2.6l-1.23-2.43c.12-.34,1.09-1.47,1.56-1.27.59.25,1.78.83,2.34,1.11ZM24.48,17.17l2.09-1.63.61,1.85-2.7-.22ZM23.37,16.47l.71-2.87,1.95,1.38-2.66,1.49ZM23.57,12.21c-.26.54-2.05.73-2.43.27-.43-.52-.85-1.84-.96-2.28l4.12.06c-.13.42-.51,1.46-.73,1.95ZM18.15,26.69c.56-.56,2.02-.28,2.61.05.95.54,1.37,1.56.86,3.34-1.49-.95-2.95-1.42-4.93-1.08.3-.7.75-1.59,1.47-2.32ZM15.86,28.58c-.81-2.07-1.95-3.28-4.45-3.76l1.85-1.02c.8-.44,1.99-.41,2.8.15.68.47,1.27,1.93.81,2.79l-1,1.85ZM18.66,25.36c.3-.65.95-1.83,1.5-2.28.5.03,1.63.48,1.64.94l.06,2.2-3.19-.85ZM20.71,19.4l-1.11,2.36-1.15-1.01,2.26-1.35ZM18.13,19.85l-.58-1.57,2.78.03-2.2,1.54ZM20.31,22.14l1.31-2.04.21,2.62-1.51-.58ZM20.29,13.81l.7,2.58-2.56-1.49,1.86-1.09ZM20.23,17.23l-2.84.24.51-1.88,2.33,1.64ZM17.66,21.32c.37-.16,1.44.87,1.28,1.22l-1.13,2.5c-.88-1-1.39-1.51-2.46-2.49.41-.27,1.66-.95,2.32-1.23ZM16.98,20.44l-2.12,1.44c-.33-1.47-.52-2.17-1.07-3.6l2.61.08c.54.02,1.06,1.76.59,2.08ZM16.32,17.23c-1,.19-2.13.25-3,.26.83-1.46,1-2.4.99-4.37l2.39,1.61c.53.36.3,2.36-.39,2.5ZM13.61,22.28c-.34.64-1.63,1.29-2.42,1.66.26-2.31.05-3.77-1.64-5.56,1.03-.23,2.47-.17,3.23.38,1.01.73,1.61,2.07.83,3.53ZM13.92,32.12c-.94-3-3.11-4.36-6.23-4.95l2.78-1.44c1.76,0,3.23.51,4.11,1.93.83,1.34.54,3.05-.67,4.46ZM21.69,34.37c-1.81-1.75-4.14-2.53-6.82-1.66.45-2.4,2.22-3.46,4.2-2.98,2.03.49,3.23,2.18,2.62,4.64ZM22.27,15.82l-1.12-2.25,2.12-.18-1,2.43ZM22.82,34.53c-.62-2.35.48-4.18,2.52-4.71,1.92-.5,3.88.54,4.24,2.9-2.73-.99-4.99-.03-6.76,1.8ZM30.56,32.23c-.91-1.08-1.44-2.52-.93-3.98.46-1.28,1.78-2.29,3.45-2.51,1.14-.15,2.39.57,3.47,1.5-2.97.59-5.15,1.99-6,4.99ZM36.91,26.07c-.89-.02-2.2-1.07-2.65-1.9-.64-1.18-.26-2.56.32-3.66,1.01-1.92,2.97-2.78,5.11-1.96-2.19,1.87-3.15,4.03-2.78,7.52ZM34.98,11.36c.26-1.87,1.72-3.51,3.81-4.35-1.28,3.58-1.11,7.01,1.47,10.2-.88.24-2.6.42-3.38-.08-2.01-1.28-2.21-3.54-1.9-5.78ZM35.54,17.23c-.98.28-2.44.41-3.34-.18-1.27-.82-1.45-2.86-.91-4.25.39-.99,1.76-2.04,2.97-2.44-.39,2.76-.42,4.58,1.28,6.86ZM26.17,7.37c1.7,1.86,3.66,2.4,6.79,2.46-.7.87-2.06,1.8-3.08,1.85-1.56.07-3.31-.44-4.05-1.83-.27-.51.05-1.77.34-2.48ZM29.41,12.59l-1.9,1.24c-.54.36-1.88.04-2.36-.38-.67-.58-.49-1.87-.01-2.76,1.33.91,2.25,1.34,4.27,1.89ZM19.37,5.35c.11-1.3.13-2.51,1.08-3.22,1.01-.76,2.4-.74,3.33-.14,1.68,1.07,1.51,5.08,1.23,6.08-.21.75-1.4,1.55-2.46,1.58-1.35.04-2.51-.42-2.97-1.37-.41-.84-.31-1.87-.22-2.92ZM19.3,10.69c.22.56.54,1.6.51,2.09-.03.55-1.34,1.35-1.97,1.25-1.08-.18-2.03-.97-2.64-1.53,1.77-.46,2.74-.8,4.1-1.81ZM18.34,7.3c.26.74.61,1.99.34,2.46-1.6,2.84-5.66,2-7.08.05,2.98.11,5.13-.51,6.74-2.52ZM12.8,12.13c1.18,1.4,1.02,3.91-.77,5.04-.66.42-2.04.31-3.04.16,1.64-2.19,1.76-4.28,1.19-7.15,1.01.58,1.96,1.18,2.61,1.95ZM5.82,7.04c1.89.77,3.34,2.33,3.67,3.92.48,2.32.34,4.45-1.64,6.1-.88.73-2.66.46-3.61.14,2.47-2.87,2.95-6.31,1.58-10.17Z"/>
    </g>
  </g>
</svg>