<?xml version="1.0" encoding="UTF-8"?>
<svg id="Warstwa_2" data-name="Warstwa 2" xmlns="http://www.w3.org/2000/svg" viewBox="0 0 51.62 56.95">
  <g id="icon-v9-equipment-pixarts-store">
    <g id="icon-v9-equipment-pixarts-store_139">
      <path d="M6.24,51.44c5.45,7.16,14.77,6.2,22.37,3.51,8.68-3.07,17.08-9,21.56-17.13,1.73-3.14,1.83-6.43.73-9.85-1.94-5.98-5.28-12.75-10.93-16.39,1.45,4.5,2.52,8.41,2.77,12.74,2.5.58,5.01,1.16,6.49,3.39-2.27-1.21-4.19-2.11-6.56-2.13l-.25,3.94c2.1.24,3.82.88,4.84,2.31,3.69,5.14-3.98,12.82-8.19,15.43,1.86-2.06,3.67-4.2,4.99-6.55-.79-.25-1.17-.44-1.39-.8l-1.42-2.25c-3.11,2.58-2.65,3.72-4.69,6.32l-5.02-.49c-4.17,2.62-8.59,4.27-13.5,4.61-1.7.12-3.46-.26-5.29-.36,2.14,2.03,4.79,1.2,7.1,1.66l-1.36.92c.95,2.06,2.91,3.26,5.18,3l4.25-.49c-4.27,1.45-9.61,2.93-13.79.46-2.36-1.4-3.02-4.09-2.03-6.58,1.36-3.39,3.86-5.57,7.02-7.86l-3.58-2.33-3.7,4.02c-2.37,2.57-3.37,5.79-4.03,9.1-.23-5.33,2.81-9.87,6.83-13.64-4.11-3.97-7.47-8.38-10.51-13.7C1.29,26.9,0,32.11,0,37.48c.41,5.37,2.69,10.05,6.24,13.96Z"/>
      <path d="M35.75,41.92c8.99-15.87,5.02-27.39-3.47-41.92-5.92,2.1-11.45,2.09-17.29.43C12.22,6.29,7.67,9.61,1.8,12.6c6.71,16.19,15.01,27.76,33.95,29.32ZM18.37,34.13c-.7.15-1.81-.52-1.66-1.21.11-.52,1.14-.58,1.55-.29.35.25.58,1.4.11,1.5ZM35.21,40.16l-1.21-.33c-.26-.07-.37-.92-.13-1.05s.76-.3,1.14-.38c.51-.12.71,1.9.19,1.76ZM39.08,22.18c.31-.12.9.5,1.01.83.1.31-.37,1.11-.72,1.07-.94-.12-.83-1.69-.29-1.9ZM30.55,2.17l.67-.67c.14-.14.85-.2.91-.02l.37,1.05c.09.24-.76.45-1,.35-.44-.19-1.1-.56-.95-.71ZM16.34,1.72c.48,0,.87.39.87.87s-.39.87-.87.87-.87-.39-.87-.87.39-.87.87-.87ZM15.92,5.33c.67-.95,1.73-1.43,2.9-1.26,3.84.55,7.35.38,11.16-.38.85-.17,1.74.32,2.14,1.07,2.73,5.06,4.75,10.37,5.69,16.06.91,5.52-.8,12.16-3.92,16.81-4.41-.53-8.13-1.86-11.96-3.65-2.26-1.68-4.68-3.13-6.52-5.28-3.88-4.54-6.69-9.67-9.17-15.09,4.13-1.93,7.17-4.73,9.67-8.28ZM5.27,13.22c.26.29-.33,1.1-1.05,1.5-.4.23-.76-.87-.56-1.3.25-.52,1.11-.76,1.61-.2Z"/>
      <path d="M42.29,31.77c-.79,1.79-1.36,3.29-1.9,4.98,1.43-1.44,2-3.2,1.9-4.98Z"/>
      <path d="M17.27,28.06l.39-1.03c.98.68,1.09,1.26,1.27,2.47.15,1.07,1.78,1.66,2.54,2.16l3.65,2.44.16-.88,1.81,1.49-.11-1.83,2.27,2.25c.56.56,2.11.75,2.96.83-.78-2.36-2.15-4.06-2.47-6.76l3.74,6.84c1.72-2.49,4.8-10.31,2.37-12.41l.82.11c.91.12-1.09-8.34-1.63-9.07l-2.45-.1c.81-.48,1.27-.55,2.38-.65-1.1-3.07-2.48-5.97-4.22-8.97l-1.37,1.93.19-1.98c-3.86,1.03-7.39.84-11.47.18l1.77,4.52c-1.04-1.11-1.64-2.07-2.69-3.56-2.42,3.05-5.07,5.83-8.46,7.78l2.15,1-2.46.53,4.94,8.68c1.23-.96,1.92-1.43,2.97-1.9l-2.1,2.63,3.02,3.32ZM14.4,15.86c2.39-.85,4.17-1.84,5.66-3.67,2.03-2.49,3.56.3,8.28-2.57,3.36,8.22,6.6,10.76,1.37,19.02-10.66-.94-10.26-4.42-15.31-12.78Z"/>
      <path d="M29.17,27.62c4.18-7.24,1.47-9.57-1.26-16.55-1.99.91-4.22.9-6.28,1.13-1.8,1.57-3.47,3.29-5.87,4.24,4.52,7.27,4.19,10.09,13.41,11.18ZM22.12,13.4c1.37-.99,3.76-.72,5.64-.76-1.67.84-3.32.87-5.2,1.04l6.03,12.46c-6.81.11-8.32-4.3-11.2-9.32l4.74-3.42Z"/>
    </g>
  </g>
</svg>