<?xml version="1.0" encoding="UTF-8"?>
<svg id="Warstwa_2" data-name="Warstwa 2" xmlns="http://www.w3.org/2000/svg" viewBox="0 0 58.44 60.39">
  <g id="icon-v9-equipment-pixarts-store">
    <g id="icon-v9-equipment-pixarts-store_57">
      <path d="M22.83,6.99l-3.27-1.59c.09,1.13.33,2.34,1,3.19.67.29,1.98-.81,2.27-1.6Z"/>
      <path d="M16.08,18.22l.41-2.73-2.91.56c1,1,1.25,1.21,2.5,2.17Z"/>
      <path d="M3.9,24.25l-2.57-3.14c-.65,1.65.69,3.76,2.57,3.14Z"/>
      <polygon points="47.89 36.35 50.4 37.57 49.55 34.93 47.89 36.35"/>
      <path d="M25.26,15.04c8.75,5.36,15.61,12.6,20.21,21.63l4.17-3.09-2.32-3.74c-.87.04-1.79,1.26-1.52,1.86l3.54,1.55c-1.6.63-3.19.25-4.16-.88-.37-.43-.17-1.7.13-2.16.3-.45,1.47-1.31,1.96-1.02,1.23.74,1.93,2.4,2.61,3.92.54-.46,1.2-1.32,1.57-2.21-5.11-10.76-10.55-16.92-21.38-22.15-1.84,2.02-3.3,3.88-4.8,6.29ZM43.22,23.05c1.63.83,2.55,1.42,4.09,3.06-1.61.92-2.97,1.48-4.82,1.5-.84,0-1.54-1.62-1.39-2.31.23-1.11.93-1.89,2.12-2.26ZM37.25,17.46c1.19-.25,2.52-.25,3.94-.2-.88,1.62-2.45.17-4.39,1.1-.43.2-.17,2.02.31,1.86l1.39-.48c.27-.09.65.12.9.24l1.34-1.82c.25,1.51-.55,2.97-1.87,3.58-1.12.51-2.38-.43-2.72-1.3-.4-1.02-.25-2.68,1.09-2.97ZM33.15,16.18c-.68.59-2.45,1.1-3.02.17-.88-1.45-1.14-3.22-1.24-5.01,1.68.14,3.23.69,4.57,1.88.94.84.3,2.43-.32,2.96Z"/>
      <path d="M4.26,47.45l2.13,3.06c1.25-.84,2.56-1.32,3.59-.75,1.53.83.75,2.27.42,3.59-.22.89,1.63,2.34,2.52,2.35.89-.65,2.1-1.95,3.24-1.5,1.61.63,1.77,2.26,1.23,3.91l4.76,1.47,1.83-3.13c-7.14-1.72-5.92-4.35-6.66-4.64-.63-.25-3.79,1.02-7.13-4.76-.16-.44.08-1.4-.26-1.55l-1.59-.74c-2.62-1.22-3.39-4.53-3.66-7.43-1.3.12-3.36,1.13-3.45,2.37-.08,1.14.68,2.62,1.2,3.54,1.44-.69,3.03-.51,3.52.93.41,1.22-.35,2.34-1.69,3.28Z"/>
      <path d="M20.66,16.58c.37-.55.45-1.66,0-1.68l-3.21-.27-.74,8.82c.2.74,1.18,2.21,1.88,2.48l4.59,1.02c-1.97-5.82.56-4.22-.77-7.93l-4.71,2.1c1.49-1.65,3.12-2.22,4.81-3.28,1.14-.71,2.39-2.65,1.48-4-.88-1.3-4.91-1.43-5.1-.87l-.36,1.12,3.3.61c-.59,1.77-1.28,3.57-3.06,2.45.82-.14,1.61-.14,1.9-.57Z"/>
      <path d="M35.2,31.47c2.22-.24,4.09.12,6.3,1.13-.87-1.39-1.82-2.71-2.9-3.98l-2.41-2.85-1.19,1.55.44-2.34-2.56-2.41-1.04,1.74-.15-2.72-3.13-2.34c.19,5.69.99,4.11,1.28,8.7.05.82,1.47,1.88,2.27,2.21l3.1,1.3Z"/>
      <path d="M24.88,46.74c-2.53-.14-6.52-2.73-6.56-5.59-2.99-.06-5.59-3.98-5.5-6.72l-2.31-1.36-.9,2.6c1.27,1.57,2.43,3.21,3.32,4.87l.07,2.13c2.43.38,6.48,3.47,6.16,6.19,4.14-1.52,6.65,2.44,8.23,1.15,1.33-1.08-1.42-.93-2.53-3.28Z"/>
      <path d="M52.63,7.02l.49-2.34c.15-.7-1.31-1.73-2-1.91-.69-.19-2.2.28-2.8.9l-5.74,5.91.54.67c.1.13.13.24.01.23-.13,0-.99-.11-1.09-.03l-2.82,2.32,5.14,4.84,1.93-1.98c.45-.47.58-1.31.46-1.97l.83.27c.13.04.29-.57.2-.67l-.41-.43-2.14-2.24,1.67.89c.4.21.81.78,1.39,1.51l2.87-3.75-1.18-2.17c.63.64,2.46.93,2.66-.03Z"/>
      <path d="M26.25,34.63l-3.35-1.73c-1.45.21-2.76.25-4.37.11,1.48,1.54,2.57,3.45,2.96,5.27,2.28.38,5.62,2.7,5.83,4.75l2.8.02c-.39-1.66-.62-3.44-.73-4.8-1.5-.67-2.84-1.7-3.14-3.62Z"/>
      <path d="M56.7,14.65c.21-.92.38-2.1.12-2.78-.24-.62-1.65-1.57-2.22-1.24-1.6.94-2.44,2.3-3.72,3.45l-1.26,1.13c-.36.32,2.81,2.91,3.22,4.86l3.87-5.42Z"/>
      <path d="M40.5.24c-2.06,1.06-3.8,2.48-5.31,4.24,2.55.72,3.8,1.03,5.16,3.22.38-.3.91-1.12,1.44-1.95.77-1.2,2.57-2.48,2.41-3.95-.18-1.55-2.47-2.19-3.7-1.56Z"/>
      <path d="M57.57,19.41c-.44-.25-1.54,0-1.93.39l-3.27,3.33c.9,1.48,1.41,2.49,2.22,4.23,1.18-1.52,5.75-6.4,2.99-7.96Z"/>
      <path d="M24.76,12.88l-.75-3.75,3.33.32c.1-.92.1-2.25-.32-2.98-.21-.37-1.27-.78-1.69-.71-.42.07-.96.66-1.25,1.14-2.24,3.7-4.46,2.13-4.95,4.47l5.64,1.5Z"/>
      <path d="M31.78,8.22l5.89,3.53,1.48-2.92c-1.53-1.5-3.39-2.72-5.45-2.65-.74.02-1.7,1.45-1.93,2.04Z"/>
      <path d="M48.98,23.69c.64-.74,1.83-1.77,1.79-2.41-.1-1.69-1.17-3.45-2.29-4.66l-3,2.17,3.5,4.89Z"/>
      <path d="M7.11,51.07c-.7,1.29-1.23,2.48-1.96,4.14l3.04-1.19c1.13-.44,2.4-1.79,1.94-3.1-.42-1.18-2.47-.85-3.01.14Z"/>
      <path d="M49.57,25.02l2.56,4.51,1.47-1.62c-.37-1.52-1.01-2.98-1.87-4.17l-2.17,1.28Z"/>
      <path d="M5.46,44.51c-.19-.55-1.54-1.36-2.09-1.06-1.45.8-2.35,1.7-3.38,2.85l4.07.17c.83.03,1.62-1.29,1.39-1.95Z"/>
      <path d="M10.51,27.06c1.65,1.77,3.76,1.47,5.61,2.23l1.82.75c.34.14,1.14-.97.82-1.18l-4.13-1.4c-1.27-.43-2.68-.65-4.12-.39Z"/>
      <path d="M30.17,33.48c-1.52,1.44-.03,2.63.51,3.8.66,1.42.77,3.29,2.88,3.56-.84-2.53-1.99-4.96-3.39-7.36Z"/>
      <path d="M13.88,56.18l.15,4.21c1.36-1.33,1.92-1.94,3.1-3.78l-1.44.64.3-2.26c-.46-.28-2.13.44-2.11,1.2Z"/>
      <path d="M13.69,46.74c1.58-.04-3.71-5.21-4.24-5.55-1.09,1.1,2.83,5.58,4.24,5.55Z"/>
      <path d="M17.08,37.31c.87,2.37,2.56,4.33,5.18,4.86,1.71.17-5.49-6.24-5.18-4.86Z"/>
      <path d="M36.03,37.78c-1.4-.23-1.33-2.04-2.87-2.27-1.84-.27,3.45,3.69,3.73,4.78l3.04-1.86-3.9-.65Z"/>
      <path d="M21.73,52.17c2.02.38-7.23-5.11-6.24-4.04,1.03,2.65,3.69,4.03,6.24,4.04Z"/>
      <path d="M26.27,28.75c-1.18-2.55-1.71-4.34-2.18-6.97-2.12.86.87,8.11,2.18,6.97Z"/>
      <path d="M28.53,32.14c1.37-1.29-1.32-8.14-2.14-5.26.64,1.77,1.23,3.89,2.14,5.26Z"/>
      <path d="M29.08,46.18c-1.68-1.87-3.67-2.59-5.73-3.1,1.14,2.1,3.44,3.5,5.73,3.1Z"/>
      <path d="M16.41,35.85c1,.59-3.24-7.75-3.08-5.84.04,2.44.82,4.73,3.08,5.84Z"/>
      <path d="M8.97,26.26l-.61-.39-3.72-2.37c-.12.22-.13,1.55.18,1.86,2.18,2.15,5.03,1.46,4.15.9Z"/>
      <path d="M15.93,32.42c1.18,2.19,2.41,4.4,4.31,5.68-.48-2.91-2.23-4.63-4.31-5.68Z"/>
      <path d="M6.71,34.23c-1.05-1.44-1.03,5.1,1.91,5.25l-1.43-4.42c-.06-.19-.37-.68-.49-.83Z"/>
      <path d="M25.14,21.86l.14-3.8c.33-.6.61-1.05.35-1.11-.23-.05-1.12-.09-1.24.06-.87,1.08-1.19,4.25.75,4.85Z"/>
      <path d="M8.65,36.64c.51,2.15,1.69,3.96,3.1,5.57,1.54-.39-2.13-5.98-3.1-5.57Z"/>
      <path d="M20.2,49.78c2.02,1.08,4,2.14,6.09,2.1-1.63-1.99-3.86-2.66-6.09-2.1Z"/>
      <path d="M15.94,50.65c-1.46-1.99-3-3.23-4.81-4.3.56,2.38,2.74,4.04,4.81,4.3Z"/>
      <path d="M29.25,36.9c-.52-2.21-1.43-4.24-2.74-6.08-.38,2.39.81,4.59,2.74,6.08Z"/>
      <path d="M13.19,43.89c1.42,1.84,3.07,3.61,4.93,4.38-.75-2.62-2.68-4-4.93-4.38Z"/>
      <path d="M36.23,48c-1,1.13,0,4.08.36,4.91,1.66-.21.71-6.12-.36-4.91Z"/>
      <path d="M36.58,59.71l.6-4.4c.04-.29-.88-.9-1-.7-.87,1.5-1.44,4.54.39,5.1Z"/>
      <path d="M35.85,47.02c1.16-.6-.92-5.8-2.24-4.83l1.51,4.61c.06.17.58.29.73.22Z"/>
      <path d="M38.23,50.49l-.39,5.88c1.81-1.23,2.3-4.15.39-5.88Z"/>
      <path d="M9.15,43.86c-.76-2.07-1.78-3.93-3.24-5.7-.05,2.4.83,4.7,3.24,5.7Z"/>
      <path d="M41.26,36.43l-5.02-.62-.8-.09c-.14-.02-.11.23-.06.36.49,1.42,5.55,1.7,5.88.35Z"/>
      <path d="M21.54,39.55c1.37,1.42,2.91,2.71,4.45,3.83,2.29-.26-4.58-5.48-4.45-3.83Z"/>
      <path d="M28.19,53.64c-1.72-.68-3.17-1.02-4.67-1.05.82,1.98,3.59,2.82,4.67,1.05Z"/>
      <path d="M17.13,27.35c1.82.92,3.69,1.49,5.84,1.35-1.49-1.69-3.73-2.22-5.84-1.35Z"/>
      <path d="M30.42,39.33c-.04,2.27,1.04,4.77,2.96,5.14-.75-2.26-1.71-3.71-2.96-5.14Z"/>
      <path d="M20.36,29.71c.97,1.61,3.16,1.98,4.94,1.25-1.52-1.3-3.21-1.61-4.94-1.25Z"/>
      <path d="M12.62,29.16c-1.85-.67-3.48-1.17-5.55-1.67-.5,1.13,5,3.27,5.55,1.67Z"/>
      <path d="M33.3,33.26c-.3,0-.38.9-.15,1.02l.86.42c1.3.14,2.44.26,3.51.05-1.02-1.45-3.12-1.5-4.22-1.48Z"/>
      <path d="M38.64,34.89c1.72.59,3.39.81,4.8.24-1.31-2.09-3.4-1.24-4.8-.24Z"/>
      <path d="M24.92,54.94c-1.91-1.18-3.83-1.87-6.11-2.31,1.57,1.95,3.7,2.71,6.11,2.31Z"/>
      <path d="M33.41,37.74c.4,1.84,1.23,3.53,2.59,5.21.67-2.17-1.04-3.83-2.59-5.21Z"/>
      <path d="M17.51,40.04c-.91-2.07-2.04-3.77-3.73-5.05.28,2.29,1.8,4.12,3.73,5.05Z"/>
      <path d="M4.08,19.74c.71,1.64,1.51,3.11,2.61,4.44.83-2.22-.77-4.02-2.61-4.44Z"/>
      <path d="M29.33,29.71c.62,1.96,1.52,3.61,2.69,5.35.35-2.19-.71-4.4-2.69-5.35Z"/>
      <path d="M7.52,24.66c1.89.79,3.68,1.36,5.46,1.6-1.51-1.76-3.43-2.57-5.46-1.6Z"/>
      <path d="M40.74,33.34c-1.64-.92-3.61-1.62-5.71-.88,1.78,1.13,3.71,1.15,5.71.88Z"/>
      <path d="M24.03,45.5c-1.24-1.99-2.9-2.84-4.78-3.49,1.17,1.8,2.97,3.21,4.78,3.49Z"/>
      <path d="M35.04,51.43c-.87,1.48-1.42,3.17-.47,4.83.92-1.58,1.17-3.1.47-4.83Z"/>
      <path d="M27.15,24.32c.94-1.61,1.11-3.36.1-4.87-.83,1.52-1.01,3.31-.1,4.87Z"/>
      <path d="M27.65,44.01c1.45.96,2.89,1.73,4.6,2.27-.74-2.27-2.67-2.69-4.6-2.27Z"/>
      <polygon points="29.06 54.33 26.78 55.82 30.19 56.96 29.06 54.33"/>
      <path d="M36.54,44.77c.49,1.47,1.1,2.8,1.84,4.27,1.05-1.67.01-3.56-1.84-4.27Z"/>
      <path d="M33.7,45.96c-.45,1.66-.22,3.38.86,4.31.69-1.96.22-3.23-.86-4.31Z"/>
      <path d="M7.93,32.19l.12,3.57c1.4-1.06,1.85-2.81-.12-3.57Z"/>
      <path d="M21.92,31.86c-1.61-.69-2.98-1.06-4.61-1.31,1.05,1.52,2.78,2.16,4.61,1.31Z"/>
      <path d="M26.16,46.81c.87,1.42,2.3,2.14,4.06,1.8-1.05-.96-2.46-1.53-4.06-1.8Z"/>
      <path d="M32.49,48.01c-.24-.81-1.92-1.66-2.58-1.2-.16,1.1,1.87,1.97,2.58,1.2Z"/>
      <polygon points="27.26 10.23 24.8 9.8 25.82 12.2 27.26 10.23"/>
      <path d="M15.42,26.49l1.74-.21c-.94-.79-1.59-1.21-2.16-1.3-.12.42.05,1.56.43,1.51Z"/>
      <polygon points="28.17 50.54 26.85 52.06 28.62 52.94 28.17 50.54"/>
      <path d="M41.35,37.81c.26.58,1.99.01,1.71-1.23-.28-.93-1.59.4-1.71,1.23Z"/>
      <path d="M11.79,30.79c-.31.2-.46,1.31-.18,1.52l1.3.98c.03-1.17-.31-2.34-1.12-2.5Z"/>
      <path d="M29.12,26.83c-.36-1.36-.5-1.78-.84-2.58-.45.45-.58,1.27-.31,1.74.16.27.47.48,1.15.84Z"/>
      <path d="M26.42,25.24l-.78-2.43c-.79.86-.75,2.43.78,2.43Z"/>
      <path d="M30.74,15.47c.19.53,1.66.51,2.13.12.42-.35.56-1.7.06-1.97-1.17-.63-2.1-1.01-3.37-1.48l1.18,3.33Z"/>
      <path d="M42.42,25.98c1.06.26,2.94,1.08,3.52-.64-.79-.4-2.24-1.12-2.91-1.42-.27-.12-.97.76-1.04,1.06-.08.29.11.92.43,1Z"/>
    </g>
  </g>
</svg>