<?xml version="1.0" encoding="UTF-8"?>
<svg id="Warstwa_2" data-name="Warstwa 2" xmlns="http://www.w3.org/2000/svg" viewBox="0 0 22.5 55.72">
  <g id="icon-v9-equipment-pixarts-store">
    <g id="icon-v9-equipment-pixarts-store_396">
      <path d="M14.11,55.37c3.11-.74,6.22-3.2,7.47-6.57-1.36-.42-2.15-1.37-2.82-2.4-.58-.29-1.97-.56-2.54-.57l-.7,2.9,1.48,1.55.07,3.05c-.52-1.97-.49-3.7-2.51-3.86l-2.73,1.87c-.04-1.92,4.92-2.24,2.79-7.16-.9-2.08-2.04-3.79-4.01-4.99l-3.79,4.58-1.74.5c-.17,2.54,1.21,4.24,2.4,6.39l-1.81-1.32-1.99,3.35c2.87,2.7,6.52,3.6,10.43,2.67Z"/>
      <path d="M14.97,27.54c.15-.62.21-1.62-.12-2.08l-3.12-4.49-.41,6.04,1.73,3.72-1.78,4.31c-.24.58-.42,2.18.04,2.65l2.46,2.53,3.69-1.26c-.56-2.62.35-3.69,2.18-5.02l-3.74-6.93-.93.53Z"/>
      <path d="M3.73,43.16l2.78.1c.91-1.86,2.39-3.43,3.04-5.15.65-1.73-1.62-3.66-2.67-4.44l.45-1.81-2.45-1.72C2.76,33.78-.57,40.71.08,45.11l3.65-1.95Z"/>
      <path d="M4.07,14.9c5.88-2.01.08-8,4.88-10.5,1.69-.88,3.91-.84,5.58.74,1.75,1.65,1.37,4.88-.34,6.72-3.33,3.55-8.21,5.93-5.27,10.02,1.8-.86.39-3.81,2.66-3.55,1.56.18.69,2.46,1.85,3.75,1.64-1.63,1.14-3.4-.34-5.01l3.53-3.13c5.23-4.65,1-12.85.09-10.53l-.44,1.11c-.1.25-.32.9-.51.8l-.52-.28c.45-1.13.8-1.91,1.59-2.84C14.15-.49,9.46-.77,6.45,1.68c-2.72,2.21-3.47,5.58-2.09,8.73.64,1.47.5,3.03-.28,4.5Z"/>
      <path d="M18.22,39.27c-.95.6-2.1,1.17-3.33,1.78.1.94.71,2.74,1.27,3.52l3.21.92c.71,1.4,1.3,2.11,2.56,2.46,1.5-4.5-.25-9.05-1.91-13.24-1.9,1.03-2.32,2.49-1.8,4.56Z"/>
      <path d="M8.03,33.33l1.74,2.15,2.16-4.67-1.81-3.67c.56-2.13.8-3.84.54-5.85-1.88,2.5-3.51,4.8-4.81,7.43-.54,1.08,1.39,1.85,2.11,2.21.74.36-.29,1.97.07,2.41Z"/>
      <path d="M.07,45.88c.42,2.05,1.24,4.33,2.79,5.95l1.95-3.04-.55-4.88L.07,45.88Z"/>
    </g>
  </g>
</svg>