<?xml version="1.0" encoding="UTF-8"?>
<svg id="Warstwa_2" data-name="Warstwa 2" xmlns="http://www.w3.org/2000/svg" viewBox="0 0 52.69 57.06">
  <g id="icon-v9-equipment-pixarts-store">
    <g id="icon-v9-equipment-pixarts-store_160">
      <path d="M37.88,10.63c-.13,3.97-1.88,7.09-4.19,10.02.81,1.13,1.39,2.27,1.82,3.72,4.1-.23,10.55-1.25,14.12,2.27-4.58-1.54-9.7-2.47-14.64-.24,3.4-.02,5.09,1.02,7.29,2.43,1.77,1.14,4.67.33,5.99,2.87,2.93,5.66-3.48,11.84-7.59,14.5,1.49-2.04,3.02-3.76,3.99-5.76-1.43-.53-2.05-1.42-2.85-3.01l-4.19,3.66c1.94-2.77,4.73-5.14,4.97-9.09-2.37,4.81-6.15,8.45-10.87,11.25-6.39,3.79-11.97,5.33-19.06,4.36,2.51,1.87,5.06,1.09,7.88,1.47l-2.13,1.03c2.52,4.31,4.89,3.11,9.61,2.85-3.74,1.69-13.71,3.5-16.2-1.89-2.61-5.64,5.79-12.33,10.25-15.06.45-4.59,2.74-3.78,3.56-6.38-7.48,3.83-15.07,9.43-17.69,16.85.69-8.3,11.18-14.81,17.43-18.24-1-1.29-1.7-2.6-2.29-4.04-5-.51-9.64-2.57-12.5-6.87C5.42,21.44,1.94,27.17.46,33.52c-1.3,5.6.29,10.49,3.24,15.11,4.01,6.28,10.34,9.4,17.9,8.16,11.45-1.88,23.68-8.76,29.5-19.11,1.41-2.51,1.98-5.26,1.31-8.11-1.76-7.56-6.59-16.52-14.53-18.94ZM39.7,20.64c.46.46,1.81.02,2.63-.28-.2,1.2-1.47,1.88-2.63,1.95-1.12.07-2.56-.46-2.89-1.84l2.38-3.41c2.4-.52,4.27.61,5.92,2.01-1.54-.33-2.76-.64-4.14-.69-.99-.03-2.23,1.31-1.28,2.25ZM39.17,15.52l.27-2.38c2.89,1.42,5.77,2.61,7.31,5.74-2.33-1.54-4.37-3.44-7.59-3.37ZM14.51,25.1l5.55,1.06.27,2.56c-3.02,3.96-7.93,2.11-5.3,1.48l1.61-.39c.38-.09.76-1.31.42-1.64-1.08-1.05-3.8-.77-5.14.45l-3.3,3c.44-2.05,3.82-6.93,5.9-6.53ZM5.58,36.53c-.58-5.62,1.57-11.09,4.84-15.35l2.55,2.56c-5.02,3.15-6.29,7.25-7.39,12.79Z"/>
      <path d="M33.94,5.94c1.1-1.03,1.52-2.49,1.13-3.7-2.01-6.3-27.06,2.09-26.08,8.24.13.79.83,2.09,1.72,2.3,7.51,1.82,17.78-1.73,23.23-6.84ZM11.18,9.68c-.18-1.12.96-2.23,1.87-2.86C17.76,3.52,23.3,1.7,29.11,1.26c1.33-.1,3.43.28,3.85,1.54-1.07,4.44-19.14,10.34-21.78,6.88Z"/>
      <path d="M35.88,9.23c-1.73.35-1.24,4.73-1.93,5.62l-.36-2.08c-.08-.44-.7-1.23-1.13-1.23-2.39.02-2.47,5.31-2.81,6.56-.43-1.74-.87-4.2-2.9-4.01-1.5.14-1.72,2.37-1.31,3.46l.79,2.07-3.11-2.73c-.89-.78-2.81-1.26-3.62-.51-1.1,1.01-.19,2.16.16,3.55-1.83-.97-2.8-3.23-5-3.14-3.36.13,5.37,7.49,13.12,5.09,5.27-1.63,8.49-7.27,8.09-12.66Z"/>
      <path d="M31.87,26.41l-3.33,1.12c.22,2.12.15,4.22-.95,5.87l.1-2.44-2.68,3.09c4.77,1.01,8.63-.88,12.74-3.06-2.51,2.78-8.9,5.51-13.06,3.49-.29.23-.54,1.36-.23,1.6,3.6,2.94,16.55-2.45,15.76-5.91-.12-.51-.97-1.44-1.52-1.48l-3.39-.21,1.1,1.02c-1.94.25-3.28-1.55-4.53-3.1Z"/>
      <path d="M15.42,15.78l2.38,1.15c.75-1.3,1.89-2.72,3.83-1.81l2.3,1.08c.54-1.22.95-2.84,2.13-3.3,1.03-.4,2.3.67,3.26,1.31l.89-2.26c.58-1.46,2.1-1.85,3.35-1.22,1.44-3.33,2.77-2.1,1.86-4.84-5.03,5.4-16.65,9.51-24.33,8.15.63,1.12,1.34,2.13,2.07,2.96.42-1.11,1.34-1.67,2.25-1.23Z"/>
      <path d="M31.95,24.35c.24-.36.31-1.33.12-1.66-.16-.27-.84-.68-1.14-.58l-4.05,1.34c-.34.11-.85.73-.99,1.06-.11.27.27,1.11.54,1.24,1.97.94,4.39.28,5.51-1.41Z"/>
    </g>
  </g>
</svg>