<?xml version="1.0" encoding="UTF-8"?>
<svg id="Warstwa_2" data-name="Warstwa 2" xmlns="http://www.w3.org/2000/svg" viewBox="0 0 56.83 58.63">
  <g id="icon-v9-equipment-pixarts-store">
    <g id="icon-v9-equipment-pixarts-store_333">
      <path d="M7.2,17.09l-1.35-1.99c-.51,1.04-.82,2.16-.96,3.42l-.54.23c-.17.07-.16.79.03.93l1.35.96c-.61.18-1.31.18-2.19-.04-.57-.14-1.24,1.68-.43,1.66,4.17-.09,5.56-4.93,10.51-2.2-.93-4.53-5.73-1.96-6.41-2.97Z"/>
      <path d="M11.9,9.02c.27,2.08,2.22,1.93,2.2,4.8l-4.18-.48,1.86-1.17c.02-.2-1.14-1.14-1.72-1.29-.91-.24-2.68,2.37-1.72,3.84.26.39,1.1.84,1.63.96,3.79.81,2.92,2.41,4.99,5.03l-.18-4.51c.73-.43,1.87-1.04,2.15-1.65.78-1.65-1.71-4.23-2.26-7.41-.94.58-1.97,1.25-2.77,1.89Z"/>
      <path d="M47.15,15.65c1.11-.15,1.76-1.84,1.53-2.77-.18-.74-1.37-2.29-2.02-1.89l-1.74,1.07,1.79,1.28c-1.72.03-2.43.15-3.96.64-.12-2.67,1.74-2.88,2.32-4.98-1.09-.79-2.09-1.41-3.03-1.91-.31,1.83-.64,3.31-1.66,4.64-1,1.31-.49,3.48.46,4.02.18.1.9-.03,1.1-.05.5-.04-.62,3.52-.04,4.55,2.26-1.95.92-4.02,5.24-4.61Z"/>
      <path d="M51.18,20.62l1.5-1.38c.22-.2-.54-.82-.73-1.01-.14-.96-.56-2.26-1.07-3.14-.76,1.17-1.26,2.27-1.92,2.35-2.5-.49-5.36-.37-5.93,2.68,5.35-2.57,6.24,1.64,11.06,2.29l-.58-1.95c-1.09.29-1.76.36-2.34.16Z"/>
      <path d="M54.71,18.26c.61-1.27,2.02-2.51,1.08-3.96l-.83,1.64c-.17.35-1.42.35-1.62-.02-.76-1.41.27-4.23,1.82-5.03l.9.03c1.25.04-.78-7.79-2.92-9.05.45,3,2.19,6.36-1.17,8.53l-.47-1.78c-.2.7-1.15,2.17-1.77,1.88-.73-.35-1.56-.83-2.22-1.2,1.01-.91,1.88-1.59,2.01-2.42.51-3.41-2.54-5.22-5.19-6.89,1.38,2.48,4.23,3.34,2.56,6.49l-4.1-.28-3.57-1.76c.39,1.36,1.2,2.17,1.01,3.3-.34,1.99-1.38,4.54-3.19,5.56-3.23,1.82-6.2,3.85-7.25,7.64-.27.99-.01,2.3.98,2.73l-1.14,1.85-.36-1.11-.84,2.7-.98-2.52c-.58.88-1.17-.22-1.27-.73-.06-.33.42-.61.91-.79.35-1.39-.12-3.15-1-4.44-4.04-5.91-6.48-3.28-8.93-9.01-.75-1.76-.6-3.2.52-4.93-2.84.31-1.77,1.75-6.09,1.89-.79.03-1.83-.55-2.04-1.17-.81-2.38,2.08-3.12,2.85-5.24-2.62,1.79-5.31,3-5.19,6.12.05,1.19.87,1.91,2.03,3.06-.54.45-1.61,1.22-2.33,1.22-.73,0-1.4-1.38-1.61-1.95l-.47,1.81c-3.23-2.37-1.73-5.93-.85-8.85C1.55,4.08.35,7.48.5,10.93l1.48-.07c.89,1.25,2.57,3.67,1.48,5.12-.75,1-2.45-.55-2.38-1.72-1.2,1.61.53,2.88,1.17,4.23.76,1.6-.85,3.73-2.25,4.68,4.95,3.41,9.35-4.55,12.56-1.3,1.78,1.81.13,3.9-1.3,5.53-.08,2.03,1.31,3.69,3.09,4.9.9-2.45,3.04-2.97,5.26-3.48-4.61-.71-4.68,1.59-6,.4-1.56-1.41.47-2.63,1.14-5.89,3.9,3.2,4.11,1.32,8.76,4.55-1.94-3.78-7.02-3.24-7.15-8.27-.03-1.36,1.08-4.13,2.82-4.2,2.05-.08,3.9,1.8,5.08,3.25.55.68.51,2.76-.24,2.99-1.68.51-4.19-2.23-3.06-2.66l1.04-.39c-.34-.25-1.31-.52-1.71-.3-.4.22-.87,1.2-.88,1.68-.1,3.3,4.55,2.13,6.53,7.99l2.55,7.52c1.35-3.68,2.58-10.59,6.33-12.26,1.86-.82,3.3-2.32,2.27-4.44-.36-.75-2.1-.66-2.38,0l1.27.36c.53.15-.3,2.36-3.41,2.69-1.72-3.3,2.31-5.53,4.94-6.93.78.77,1.61,1.43,2.15,2.18,1.74,2.39.42,5.74-1.98,7.08-1.48.83-2.66,1.68-3.77,2.98,4.32-2.36,4.7-.9,8.36-4.06.03,3.08,2.42,4.49,1.26,6-1.17,1.51-2.42-1.17-5.16-.03,1.81.45,3.14,1.37,4.2,3.11,1.64-.96,2.81-2.56,3.17-4.53l-1.7-2.25c-.86-1.13-.48-2.78.46-3.66,3.07-2.87,7.51,4.56,12.36,1.52-1.26-1.19-3.04-3.05-2.12-4.96ZM3.11,22.26c-.81.02-.14-1.81.43-1.66.88.22,1.59.23,2.19.04l-1.35-.96c-.19-.13-.2-.86-.03-.93l.54-.23c.14-1.26.44-2.38.96-3.42l1.35,1.99c.69,1.01,5.48-1.56,6.41,2.97-4.95-2.73-6.34,2.11-10.51,2.2ZM16.93,14.54c-.29.61-1.42,1.22-2.15,1.65l.18,4.51c-2.07-2.62-1.2-4.23-4.99-5.03-.53-.11-1.37-.57-1.63-.96-.97-1.47.81-4.08,1.72-3.84.58.16,1.73,1.09,1.72,1.29l-1.86,1.17,4.18.48c.02-2.86-1.92-2.72-2.2-4.8.8-.64,1.83-1.31,2.77-1.89.55,3.17,3.05,5.76,2.26,7.41ZM41.92,20.26c-.58-1.04.54-4.59.04-4.55-.2.01-.93.15-1.1.05-.95-.54-1.46-2.7-.46-4.02,1.02-1.33,1.35-2.81,1.66-4.64.94.5,1.94,1.12,3.03,1.91-.58,2.1-2.44,2.31-2.32,4.98,1.53-.49,2.24-.6,3.96-.64l-1.79-1.28,1.74-1.07c.65-.4,1.83,1.15,2.02,1.89.23.92-.42,2.62-1.53,2.77-4.31.59-2.97,2.66-5.24,4.61ZM43.04,20.11c.56-3.04,3.42-3.17,5.93-2.68.66-.08,1.17-1.18,1.92-2.35.51.88.92,2.18,1.07,3.14.19.2.95.81.73,1.01l-1.5,1.38c.58.2,1.24.13,2.34-.16l.58,1.95c-4.82-.65-5.71-4.86-11.06-2.29Z"/>
      <path d="M16.65,41.86l5.05,3.87-1.18-5.3c-.36-1.63-1.03-3.2-2.48-4.1l.77,3.49.75,2.75-1.99-1.75c-.31-.28-1.49-.24-1.73.1-.24.35-.61,1.12-.79,1.57-1.74,4.27,2.61,4.42,4.21,8.57-3.25-.45-4.59-1.75-5.24-4.84l-1.04,3.41,4.02,2.47c3.14,1.93,2.77,3.87,6.05,6.53-1.4-2.33-2.02-4.37-2.57-6.99-.65-3.09-5.92-5.99-3.84-9.78Z"/>
      <path d="M25.47,14.33c.73,1.39,1.84,2.58,2.94,3.88,2.91-2.62,2.94-5.57,5.4-6.66,1.94-.86,3.45-2.85,3.3-5-.05-.77-1.41-2-2.1-2.11-.24-.04-1.17.9-.89.73.62.52,1.14.96,1.46,1.34,1.36,1.63-4.31,4.57-4.75,5.1-.74.97-.83,3.59-2.69,3.41-1.35-.21-1.51-2.67-2.34-3.51-1.37-1.37-3.78-2.01-4.42-3.97-.15-.45.05-1.65.43-1.8.38-.15,1.04-.15,1.64-.13l-1.57-1.25c-.68.21-2.11,1.39-2.16,2.22-.14,2.36,1.52,4.17,3.49,5.02,1.3.56,1.66,1.55,2.28,2.74Z"/>
      <path d="M37.66,50.97c1.15-2.21,2.85-3.81,4.44-5.43.16-1.09-.28-3.86-.92-4.41-.31-.27-1.47-.7-1.79-.45-.63.49-1.61,1.49-2.26,2.12.72-2.22,1.29-4.08,1.47-6.37-1.12.92-1.84,2.15-2.13,3.49l-1.25,5.61,4.82-3.71c1.08,1.69.57,3.32-.48,4.8-6.2,8.63-1.26,2.45-5.35,11.48,1-.9,2-1.97,2.81-3.2,2.27-3.46,3.7-2.71,6.87-5.43l-1.06-3.01c-.57,2.73-2.21,4.52-5.15,4.52Z"/>
      <path d="M21.97,34.72c-.62-.85-1.43-1.58-2.01-1.28l2.84,8.73,2.84,4.27c.02-4.46-2.49-2.56-2.13-8.6,1.83.68,3.1,1.94,4.11,3.53-.15-2.55-2.14-4.22-3.93-5.94-.17-.9.51-2.13.94-3.45-1.26.36-1.94,1.67-2.65,2.75Z"/>
      <path d="M29.34,40.68c1.44-1.17,2.4-2.03,4.11-2.87.37,5.78-2.61,4.87-2.16,8.54.58-1.44,2.29-2.81,2.74-4.16l2.94-8.94c-.89.17-1.53.71-2.33,1.44-.44-1.11-1.06-2.56-2.47-2.54.47,1.16,1.49,2.58.77,3.43-1.45,1.7-3.08,2.88-3.6,5.1Z"/>
      <path d="M15.15,34.35l-2.6-1.43,2.48,5.66c1.83-4.19,4.47-7.9,9.24-8.84-3.11-2.42-7.29,2.07-9.13,4.61Z"/>
      <path d="M32.8,29.63c3.97,1.08,6.98,4.37,8.42,7.87.11.26.57.98.65.8l.33-.73,1.94-4.49-2.61,1.35c-1.19-2.36-6.01-7.11-8.73-4.81Z"/>
      <path d="M33,52.31c-.24,2.28-1.82,1.21-4.65,3.06-.77-.54-1.91-1.3-3-1.47-2.98-.47.12-4.07-5.13-6.21,1.22,1.76,2.12,3.04,2.72,4.84.89,2.67,2.73.87,5.48,4.35,3.16-4.14,4.25-1.05,5.24-3.93.6-1.75,1.44-3.16,2.5-4.81-2.1.51-2.96,2.17-3.17,4.16Z"/>
      <path d="M24.19,48.5c-.33,1.71,4.12,4.93,4.34,4.79,1.06-.64,4.26-3.05,3.94-4.46l-4,3.45-4.27-3.78Z"/>
      <path d="M23,12.95c-1.97-1.78-3.15-3.25-4.33-5.26-.28,2.85,1.98,5.05,4.33,5.26Z"/>
      <path d="M38.13,7.49c-.7,2.38-2.41,3.73-4.53,5.56,2.64-.42,5.06-2.57,4.53-5.56Z"/>
    </g>
  </g>
</svg>