<?xml version="1.0" encoding="UTF-8"?>
<svg id="Warstwa_2" data-name="Warstwa 2" xmlns="http://www.w3.org/2000/svg" viewBox="0 0 50.84 46.73">
  <g id="icon-v9-equipment-pixarts-store">
    <g id="icon-v9-equipment-pixarts-store_201">
      <path d="M25.79,28.54c1.32.56,1.22,2.57,3.18,3.82.56-2.25.56-4.43,1.71-6.37.58-.97,1.4-2.13,1.05-3.15-.27-.79-1.35-2.43-2.15-2.19l-3.35,1.71,1.62,1.13c-2.45.42-2.74-1.73-4.41-2.47-1.04.94-1.91,1.88-2.72,3.03.34.95,1.51,2.04,1.65,2.87l.77,4.42c1.05-.58,1.66-3.23,2.65-2.81Z"/>
      <path d="M39.1,22.93l.93,2.32c-1.2-1.11-1.79-1.91-2.83-3.15-.95,1.21-1.67,2.36-2.25,3.91l2.83,2.66c.21.2.72.8.56,1.03-.76,1.14-1.39,1-1.16,2.12.56,2.69.31,5.18,0,8.02,2.69-2.19,3.76-5.39,4.2-8.61l.82-5.96c.2-1.48-1.97-2.45-3.1-2.34Z"/>
      <path d="M28.56,33.38c-1.47-.84-2.95-4.17-3.2-3.55-.78,1.91.39,4.36-.07,6.74l-1.28-4.52c-.31.23-.8,1.09-.73,1.45.94,4.59,2.64,10.73,6.84,13.23-1.22-4.63-1.66-8.92-1.56-13.35Z"/>
      <path d="M3.73,24.83l1.02-2.24,2.51-.79c.64-1.64-.62-1.85-1.25-2.74-2.35-3.35-2.54-7.43-2.55-11.65-2.87,4.39-2.89,9.32-1.45,14.08.38,1.27.32,2.63,1.73,3.34Z"/>
      <path d="M12.52,27.26l1.22,1.55c.59-.83,1.22-1.73,2.03-2.14,1.48-.75,2.46-2.3,1.57-3.87-.24-.42-.96-1.05-1.4-1.09-1.53-.16-1.92,2.25-4.68.51l2.36-.4-2.11-1.74c-1.85.39-3.12,2-2.64,3.95l1.06,4.31c.84-.96,1.92-1.92,2.59-1.08Z"/>
      <path d="M47.2,7.75c0,4.01-.12,8.14-2.46,11.39-.47.65-2.06,1.46-1.28,2.56.36.51,1.63.5,2.56.46l1.16,2.28c1.26-.57,1.12-1.93,1.48-2.97,1.63-4.69,1.36-9.72-1.46-13.72Z"/>
      <path d="M14.71,31.97c-1.05-1.16-1.85-2.32-3.06-4.04l-.18,4.99c-.58-1.34-.1-2.71-1.38-3.76-.88,3.53,2.12,11.62,5.65,13.17-1.05-3.67-1.27-6.91-1.03-10.35Z"/>
      <path d="M35.58,10.75c-.63-1.41.39-2.54,1.51-3.41-.79-2.24-.94-4.78.06-7.32-2.27,1.02-3.37,3.45-3.84,5.59l1.16.97c-.62.14-1.26.3-1.59.59-.39.34-.52,1.3-.4,1.74.43,1.53,1.39,2.05,3.1,1.85Z"/>
      <path d="M13.7,7.42c1.12.75,2.27,1.66,1.43,3.41.64.03,1.8-.09,2.28-.43.99-.71.94-3.45.11-3.58l-1.09-.16,1-1.13c-.7-2.16-1.61-4.46-3.91-5.54,1.14,2.56.76,5.12.17,7.42Z"/>
      <path d="M36.4,9.4c-.19.49.23,1.57.57,1.93.36.37,1.3.53,2.05.67l1.53,1.49.58-3.06-.66-1.9c-.13-.38-.6-.84-1.16-1.28l.12,1.65c-.9-.74-2.65-.51-3.03.5Z"/>
      <path d="M13.77,11.31c.26-.32.68-1.31.63-1.73-.12-.98-1.79-1.56-2.55-.71l-.57-1.49c-.85.58-1.44,1.65-1.42,2.77l.07,3.82c2.71-3.93,2.68-1.2,3.84-2.66Z"/>
      <path d="M4.59,27.69c-.73-.99-1.29-2.04-2.34-2.83.12,3.41,1.19,6.55,3.58,8.73l-.07-4.11c-.01-.78-.74-1.2-1.18-1.79Z"/>
      <path d="M47.42,25.89c-.01.93-2.12,2.17-2.28,3.17-.22,1.43-.21,3.07-.24,4.43,2.48-2.25,3.5-5.47,3.61-8.73-.26.06-1.08.73-1.09,1.13Z"/>
      <path d="M17.53,27.8c-.91-.59-3.37,1.2-2.9,2.19l2.23,2.87c.13-.19.43-.93.63-.78l.92.71c.23.18.55.33.51.2l-.18-.56c-.46-1.46-.87-3.12-1.22-4.63Z"/>
      <path d="M44.21,10.85c3.47.17-.27-5.98-1.29-7.18v5.88c0,.5.81,1.28,1.29,1.3Z"/>
      <path d="M34.27,27.18c-.72,2.1-1.19,3.69-1.55,5.72l1.98-1.74-.14,1.18s.27.39.83-.41l1.74-2.51-2.86-2.24Z"/>
      <path d="M7.72,10.54l.03-6.9c-1.69,2.14-2.49,4.3-2.71,6.89.94.14,1.77.18,2.69.01Z"/>
      <path d="M43.57,17.83l.2-4.19,1.92-1.67c-1.93-.08-2.86-.28-3.72-1.79-.37.8-.65,1.92-.41,2.52l2.02,5.14Z"/>
      <path d="M7.26,17.73l1.8-5c.3-.83.25-1.64-.43-2.43-.91,1.61-1.92,1.57-3.69,1.44,3.27,2.74,1.74,2.6,2.32,5.99Z"/>
      <path d="M44.05,25.75l1.25,1.35c1.04-.66,1.22-1.53.79-2.58-.24-.6-.8-1.44-1.3-1.48-.48-.04-1.58.24-1.7.41.21.55.53,1.23.48,1.55l-.59,3.6c1.33-.42,1.05-1.64,1.07-2.84Z"/>
      <path d="M19.53,30.32c-.59,1.7.97,3.73,2.68,3.4l-1.04-5.88c-.76.84-1.35,1.64-1.64,2.47Z"/>
      <path d="M25.8,6.82c2.46.43,1.06-.52,4.09.02l-1.06,1.35c1.5-.28,2.21-.56,3.24-1.21-3.31-3.43-7.38-.35-6.27-.16Z"/>
      <path d="M7.65,23.79c-.16-.58-1.43-1.07-1.79-.68-.95,1.04-1.43,2.45-.73,3.89l.75-1.02.34,1.55c.98-2.62,1.94-1.91,1.44-3.74Z"/>
      <path d="M30.81,28.25l-.76,5.45c2.05-.46,2.47-1.69,2.43-2.9-.03-.92-.63-2.05-1.67-2.55Z"/>
      <path d="M33.73,11.81c.44,1.65,1.22,3.09,2.61,4.16l-.06-3.62c-.01-.72-1.96-.99-2.55-.54Z"/>
      <path d="M14.4,12.55v3.54c1.52-1.25,2.17-2.76,2.6-4.39-.72-.42-2.61,0-2.6.85Z"/>
      <path d="M27.62,8.07c-1.93-.96-4.22-.84-5.9.25,1.88.74,4.1,1.15,5.9-.25Z"/>
      <path d="M26.16,9.38c-.43,2.11,4.33,1.16,5.57.59-.08-.43-.17-1-.41-.97-3.53.43-.73.64-5.16.38Z"/>
      <path d="M49.87,25.32c1.06-1.85,1.43-3.85.16-5.3-1.07,1.69-1.02,3.57-.16,5.3Z"/>
      <path d="M.84,25.2c.94-2,.93-3.8-.32-5.19-.91,1.85-.5,3.79.32,5.19Z"/>
      <path d="M8.81,30.17l-.78-4.49c-1.52,1.6-.8,3.66.78,4.49Z"/>
      <path d="M23.17,7.03c-1.43-1.42-3.23-1.59-4.56-.35,1.6.41,3.03.45,4.56.35Z"/>
      <path d="M5.01,13.21c.08,1.2.36,2.29.87,3.36.86-1.43.68-2.98-.87-3.36Z"/>
      <path d="M18.81,9.9c1.37.83,2.97.55,3.88-.54-1.37-.3-2.84-.49-3.88.54Z"/>
      <path d="M44.85,16.52c.52-1.12.78-2.16.79-3.23-1.44.63-1.58,2.08-.79,3.23Z"/>
      <path d="M19.87,28.02c-.52-.1-1.37,0-1.41.28-.09.64-.02,1.8.1,2.34l1.31-2.62Z"/>
    </g>
  </g>
</svg>