<?xml version="1.0" encoding="UTF-8"?>
<svg id="Warstwa_2" data-name="Warstwa 2" xmlns="http://www.w3.org/2000/svg" viewBox="0 0 57.16 58.64">
  <g id="icon-v9-equipment-pixarts-store">
    <g id="icon-v9-equipment-pixarts-store_312">
      <path d="M19.83,12.68c-1.23-.18-2.21.23-2.63,1.16-.36.8-.28,1.96.28,2.74.4.55,1.75.92,2.47.51,1.16-.66,1.71-1.51,1.66-2.44-.04-.81-.87-1.83-1.78-1.96ZM19.88,16.53c-.99.35-1.99.04-2.33-1.06-.21-.68.13-1.85,1.14-2.28,1.19-.5,2.08.42,2.37,1.31.2.64-.55,1.81-1.17,2.03Z"/>
      <path d="M27.63,30.85c.1.32,1.07.75,1.3.49.19-.21.5-.94.61-1.33.06-.2-.37-1.05-.55-.95l-.68.35-.77-.91c-.07.79-.08,1.82.09,2.36Z"/>
      <path d="M4.57,15.09c.48.1.99.19,1.28.13.29-.06.6-.73.65-.92-.34-.06-.82-.14-.8-.13-.27-.14.37-.52.48-.94-1.46.36-2.83,1.12-2.54,3.08l.93-1.21Z"/>
      <path d="M10.78,10.63c.26.05.76-.92.67-.82l-1.54-.1c-.23-.02-.28-.54-.13-.71l.75-.83c-.12-.11-1,.5-1.35.92-.24.29-.1,1.08.12,1.24l1.48.31Z"/>
      <path d="M15.02,44.02c-.62.01-1.05,1.56-.92,2.32.09.55,1.04,1.06,1.93,1.14.67.06,1.11-1.48.97-2.16-.15-.74-.77-1.33-1.98-1.3ZM16.11,46.81c-.2.38-1.16-.29-1.37-.72-.2-.4,0-1.32.56-1.58.31-.15,1.03.37,1.21.65.18.28-.08,1.05-.4,1.65Z"/>
      <path d="M31.59,49.02c.27-.28.38-1.31.13-1.69-.26-.39-1.44.37-1.7.73-.22.31-.24,1.22.08,1.45.32.22,1.22-.21,1.49-.49Z"/>
      <path d="M41.2,47.63c1.11-.14,1.91-1.42,1.79-2.02-.87.87-1.23,1.25-1.64,1.36-.37.1-.98-.63-.98-.98,0-.42.65-1.48,1.02-1.29l1.33.69c-.15-.42-.44-.99-.74-1.15-.24-.13-1.08-.09-1.34.03-.57.27-.95,1.46-.84,2.03.09.48.9,1.38,1.39,1.32Z"/>
      <path d="M8.36,21.64l.39,1.34.36-2.69c-.95-.09-.82-.08-.83-.27l-.04-1.25c-.45.58-.71,1.68-.72,2.46.72.27.77.19.83.4Z"/>
      <path d="M46.99,8.62l-.45.5,2.48.45-1.17-.9c-.08-.41-.15-.98-.45-.95l-1.24.13c.4.34.96.62.83.76Z"/>
      <path d="M48.84,20.6l-1.34-1.19,1.25,2.53c.76-1.48.85-2.56-.04-3.63l.13,2.28Z"/>
      <path d="M51.87,20.62c-.08-.81-.3-1.87-.55-2.68l-.03,2.04-1.58-1.37c.12,1.31.83,2.27,2.16,2Z"/>
      <path d="M39.64,13.74c-.57-1.03-2.09-1.42-3.2-.85-1.12.58-1.35,2.39-.79,3.15.84,1.15,2.19,1.57,3.13.98,1.17-.74,1.38-2.36.87-3.27ZM37.68,16.7c-1,0-1.82-.81-1.82-1.82s.81-1.82,1.82-1.82,1.82.81,1.82,1.82-.81,1.82-1.82,1.82Z"/>
      <path d="M1.47,15.55l-.64,1.6,1.26-.49c-.86,1.23-1.38,2.02-1.85,3.42l1.61-.26c-.9,2.19-1.63,3.93-1.51,6.41l1.03-1.54c-.08,1.58-.13,2.74.09,4.33l1.38-3.06.46,1.17,1.4-2.72-.48,2.42c.49.18.81.74,1.17,1.58.03-1.61.67-3.13,1.92-4.29l.31,1.2,2.01-1.59c.1,1.51.43,2.87,1.14,4.17l.09-2.11.64,1.76,1.04-4.51.6.63.77-3.31.77,1.57.64-1.82.59.67.8-1.3c.58.35,1.2.63,1.55.55.34-.09.73-1.01.39-1.14-1.86-.71-3.34-2.64-2.93-4.45.47-2.11,2.18-3.32,4.22-3.07,2.07.25,3.08,2.18,3.33,4.23l2.15,1.68c.11-.17.23-.51.39-.53l.75-.11-1.21-2.22,1.12-.14-2.39-2.38,1.34-.13-2.13-1.86c.07-.25.29-.59.1-.73l-.99-.78c-.13.05.2-.08.3-.11l.56-.16-2.06-2.31,1.29.04-.32-1.28,1.68,1.6-.73-2.03c.86.56,1.53,1.25,2.16,2.08-.06.06.3-.29.41-.4.08-.08.13.14.18.23l.45.92c-.25.65-.09.26.23-.52.38.42.62.75.93.83.27.07.84-.48,1.14-.82l.26,1.49,1.56-1.54.47,1.05,1-1.95c.7.5,1.16-.42,1.47-.91l-.34,1.84,1.93-1.66-.61,1.8c.54-.38,1.41-.74,1.65-.66l-2.32,2.27c.5.07,1,.08.91.2l-.51.68c-.73.97-1.36,1.66-2.35,2.6l1.13.2-2.37,2.78,1.08-.12c.59-.06-.87,1.29-.68,1.49l.79.84s2.17-.56,2.37-2.27c.25-2.14,2.08-3.3,3.86-3.21,2,.11,3.21,1.78,3.44,3.6.22,1.73-1.76,3.34-3.04,3.8-.21.1-.09,1.01.14,1.05l1,.15c.15.02.58.54.62.39l.23-.87,1.98,2.35.64-1.43.83,3.24.74-.59.85,3.9.74-1.27.31,2.25,1.43-4.35,1.8,2.06.11-1.34c1.21,1.19,1.93,2.49,2.02,3.83.15-.47.35-2.05.93-1.2l.04-1.84c3.1,4.78.44-2.22,2.93,4.2l.34-3.75.64.46c0-2.49-.58-4.58-2.05-6.59l2.59.95-2.92-4.46,2.02,1.24-.34-1.47.94-.13-2.57-2.94,1.6-.56-3.36-1.85,1.34-1.13-2.96-.63,1.99-.86-3.13-1.34.88-1.14c-1.72.13-3.28-.09-4.81-.63l1.86-.88-2.3-.12.39-.94-2.58.45.45-1.2-2.79.5c0-.18.04-.67-.18-.66l-1.08.04,1.04-1.03-3.86.62.05-1.27-3.18,1.98.04-1.01-1.51,1.1c-.41-.26-.82-.6-1.01-.41l-.87.91-.55-.66c-.14-.16-.8.45-1.01.39-.66-.2-2.04-.24-2.75-.01l-.77-.81c-.15-.16-.61.4-.72.46l-1.24-1.21-.1,1L19.79.08l.11,1.36-3.74-.86,1.02,1.42-2.65-.71.68,1.36c-.26.02-1.23-.01-1.57.06l-1.87.4c-.52-.45-.27-.18.26.35l-3.52.28,2.16,1.18-5.28.85,1.47,1.24-2.22.52.7.83-2.95.09,1.69,1.46-2.83,2.56,1.24.35-2.48,2.81,1.47-.09ZM51.29,19.99l.03-2.04c.25.81.47,1.87.55,2.68-1.33.26-2.03-.7-2.16-2l1.58,1.37ZM48.76,21.94l-1.25-2.53,1.34,1.19-.13-2.28c.89,1.06.8,2.15.04,3.63ZM47.4,7.73c.3-.03.37.54.45.95l1.17.9-2.48-.45.45-.5c.13-.14-.43-.42-.83-.76l1.24-.13ZM9.18,9.09c.35-.42,1.23-1.03,1.35-.92l-.75.83c-.15.17-.1.7.13.71l1.54.1c.09-.11-.41.87-.67.82l-1.48-.31c-.21-.16-.36-.95-.12-1.24ZM8.24,18.77l.04,1.25c0,.19-.12.18.83.27l-.36,2.69-.39-1.34c-.06-.21-.12-.13-.83-.4,0-.79.26-1.89.72-2.46ZM6.17,13.23c-.11.42-.75.8-.48.94-.02-.01.46.07.8.13-.05.19-.35.86-.65.92-.29.06-.81-.04-1.28-.13l-.93,1.21c-.29-1.96,1.08-2.72,2.54-3.08Z"/>
      <path d="M11.83,50.07c.31.57.5.94,1.09,1.35l.24,1.79,1.23-1.38c.3,1.1.31,1.05.6.34l.57,1.72.83-1.66c1.37.89,1.79,1.81,2.13,3.54l.65-1.77.91,1.04.55.63c.07.08.23-.33.29-.42l.32-.54.42,1.36.97-2.01,1.17,1.92.6-.51c.26-.22.74,1.67,2.5,1.62l1.67,1.55,1.36-1.58c.37.07.62.21.79.08l.77-.59,2.06-1.57c.14.03.53.25.63.11l.59-.82.58,1.42,2.53-1.41.38,1.48.6-2.18,1.52-.86,1.26.69c.32-.54.9-1.24,1.43-1.73l.76,1.13c.4-1.25.83-2.11,1.5-3.17-.08-.29-.78-1.22-1.23-1.26-.6-.05-3.33.99-3.29,1.87-.64-.57-1.41.11-2.41.48l-5.66,2.11c-3.25,1.21-1.57,3.33-4.39,3.28-2.62-.04-1.18-2.2-4.59-3.48l-7.13-2.68-3.73-1.57c-.47-.2-1.41,1.14-1.11,1.7Z"/>
      <path d="M18.94,38.7c.21-.02.74.51.85.33l.49-.87,1.05.54c.21.11.43-.91.65-1,.51-.2,1.72-.18,2.26-.34l3.03-.88c1.49-.43,4.24.78,7.49,1.21.35.05.86,1.09,1.17.94l1.14-.53c.04.13.11.58.28.59h.71s2.35.04,2.35.04c-1.46-1.56-2.89-2.7-4.41-3.8-1.87,1.61-1.72-.04-4.1-.58,1.64.29,2.4.43,3.87.42-1.62-1.68-3.19-2.84-4.92-4.05-.36.93-.86,2.15-1.43,2.42-1.79.85-2.83-.96-3.51-2.37-1.82,1.22-3.43,2.42-5.04,4.28l4.52-.81-2.72,1.21c-.43.19-1.62-.1-2.22-.16-1.1.8-2.55,2-3.75,3.11.47.61,1.66.41,2.24.3Z"/>
      <path d="M14.92,42.26l2.49.18c2,.15,4.34.17,5.77-1.6.86-.02,1.94-.14,2.76-.43,3.82-1.37,4.2.23,7.63.49,2.33,1.97,7.37,2.16,9.91.77l.86-.47c.14-.07-.02-.66-.14-.76l-1.35-1.11-1,.63c-.16.1-.62-.28-.78-.21-.35.2-.76.6-1.03.57-.28-.03-.91-.17-1.21-.18l-1.74-.04c-1.27-.03-2.13-.95-3.04-1.28-6.69-2.45-6.98-.76-10.06-.45-.96.1-1.61.62-2.2,1.2l-2.08.4c-.7.13-1.3.29-2.14.54l-3.78-1.14-1.24,1.57c.8.75,1.5,1.23,2.37,1.3Z"/>
      <path d="M25.92,50.36l1,3.96.8-1.36.64,1.95.91-1.87.32,1.88c1.84-3.22.02-3.31,2.09-5.33.41-.4.89-1.29.86-1.77-.03-.41-.74-1.17-.84-1.61-.13-1.85-1.48-3.45-3.65-3.27-1.93.16-3.38,2.35-2.35,3.96.24.37,1.08.77,1.34,1.06.22.24-.04,1.13-.3,1.36-.33.3-1.62.07-1.59-.38l.13-2.17c-1.59.82-.49,2.58.65,3.59ZM30.02,48.06c.26-.36,1.44-1.13,1.7-.73.25.38.14,1.41-.13,1.69-.27.28-1.18.72-1.49.49-.32-.23-.3-1.14-.08-1.45Z"/>
      <path d="M27.55,25.12c.38.87-1.47-.87-1.25-.34l-.47-1.16c-.11.54,0,1.4.3,2.11,1.61,3.87-.06,3.28,1.58,6.63.4-.28.62-.52.73-.45l.72.45c1.7-2.99.34-3.46,1.91-8.24l-1.14,1.07c-.67-.77,2.43-3.02-.03-4.84-1.28-.95-2.49-.45-3.29.46-1.42,1.62.42,3.11.95,4.32ZM28.99,29.06c.18-.09.61.75.55.95-.11.39-.43,1.12-.61,1.33-.22.26-1.19-.18-1.3-.49-.17-.54-.17-1.57-.09-2.36l.77.91.68-.35Z"/>
      <path d="M17.03,31.82l-3.01,3.4.87,3.1c3.78-2.61,1.22-1.47,5.2-4.64l2.85-2.27c.36-.28,1.25-1.15,1.09-1.57-.15-.43-.76-1.1-1.24-1.61l-2.25.99c.72-.79,1.21-1.24,1.79-2.13-2.29,1.22-3.73,2.95-5.31,4.74Z"/>
      <path d="M43.02,34.76c-.2-1.47-2.29-2.29-3.4-3.04-2.73-1.87-2.67-3.24-4.51-3.3-.74-.02-1.84.47-2.46.91l2.45,2.65c.67.72,1.8,1.48,2.58,2.28l2.58,2.63c.33.34,1.12.79,1.76,1.19.51-1.09,1.12-2.42,1-3.32Z"/>
      <path d="M17.81,22.13l-.44-.74-1.45.92c-.49.31-1.11,1.45-1.55,2.17,1.55,3.31,6.61,3.08,7.12,1.88.43-1.01.81-4.28-1.66-5.32-.55-.23-1.51.51-2.03,1.1Z"/>
      <path d="M38.83,22.13c-.16-.18-.61-.86-.83-.98-1-.55-2.87.92-2.79,2.45l.16,2.79c2.57,1.58,6.12.67,7.28-2.06l-2.67-2.72c-.31.24-.95.74-1.15.51Z"/>
      <path d="M43.12,47.32c.52-1.01.09-2.98-.64-3.75-2.57.15-4.9.09-7.61-.56-.33.67-.49,1.95-.19,2.5,1.31-.49,2.43-1.03,3.22-.43.65.49,1.04,2.05.59,2.65-.61.8-1.62.95-2.75.83-.37.31-.73,1.32-.82,2.17,3.06-1.11,5.45-2.04,8.18-3.4ZM40.65,44.27c.26-.12,1.1-.16,1.34-.03.3.16.59.73.74,1.15l-1.33-.69c-.37-.19-1.01.86-1.02,1.29,0,.35.61,1.09.98.98.41-.11.77-.49,1.64-1.36.12.6-.68,1.88-1.79,2.02-.49.06-1.29-.84-1.39-1.32-.11-.57.27-1.76.84-2.03Z"/>
      <path d="M22.07,43.05c-2.97.68-4.9.7-7.76.47-.47,1.1-.63,2.43-.48,3.73l8.22,3.47c.06-3.68-3.43-.92-3.88-3.66-.13-.78.28-2.11,1.1-2.27.79-.16,1.54.17,2.97.68l-.16-2.41ZM16.03,47.48c-.89-.08-1.84-.59-1.93-1.14-.13-.76.3-2.3.92-2.32,1.21-.03,1.83.56,1.98,1.3.14.68-.3,2.22-.97,2.16Z"/>
      <path d="M42.86,26.09c-1.51,1.76-3.2,2.04-5.39,2.01.58.68,2.4,2.56,3.1,1.62-.06.08-.24.87-.16.95l2.29,2.24c1.54-2.24,1.57-4.61.16-6.82Z"/>
      <path d="M13.07,29.86l1.11,3.27,2.22-2.16.13-1.12c1.16.09,2.09-.63,2.64-1.75-2.08,0-3.5-.39-5.16-2.07-.46,1.04-1.27,2.84-.94,3.83Z"/>
      <path d="M25.74,19.46l-2.87-2.9-2.81,2.4,1.76,2.06c.29.33,1.33-.43,1.5-.84.49-1.2-1.37-1.88.05-2.09.09-.01.08.11.1.27l.07.47c.58.18.88.19.93.4l.23.94c.07.29.6.87.86.99.26.12.8-.59.71-.86-.08-.22-.34-.65-.53-.84Z"/>
      <path d="M24.87,21.48c.05-.23-.86-.83-1.01-.65-.38.47-.85,1.59-1.02,2.32-.62,2.77.5,5.52,3.38,6.3l-.94-3.03-.46,1.06-1.21-1.81.84-.05c.09,0,.07-.19.03-.26l-.29-.51-.71-1.35c-.16-.3.99-.26,1.4-2.02Z"/>
      <path d="M33.96,16.53l-2.72,3.09-.52.63c-.11.14.64.76.78.65.53-.4,1.24-1.46,1.71-2.35l1.53.93c.14.09-.55.56-.49.38.04-.12-.32-.22-1.02-.38l1.38,2.05,2.4-2.69c-1.38-.63-2.25-1.31-3.04-2.31Z"/>
      <path d="M30.51,29.06c2.12.28,2.87-1.54,3.42-2.57,1.23-2.31-.65-6.73-1.67-5.53-.19.23-.29.9-.12,1.16l1.1,1.66-.29,2.14-2.45,3.13Z"/>
      <path d="M24.63,42.07c-.23.19-.22,1.04.02,1.05,1.15.08,3.82-2.11,6.57-.08.23.17.93.16,1.16.05,2.34-1.11-4.87-3.4-7.74-1.03Z"/>
      <path d="M34.86,46.92c-.02-.3-.35-.91-.58-1.07-.23-.16-.92.06-.99.33-.49,1.75.83,2.31-1.06,4.39-.25.27-.55.9-.71,1.35,2.55-.11,3.46-2.78,3.34-5Z"/>
      <path d="M40.2,13.71c-.97-1.53-2.12-2.13-3.55-1.55-1.09.44-1.82,1.63-1.78,3.05.06,1.96,1.91,2.8,3.73,2.4,1.45-.31,2.58-2.35,1.6-3.91ZM35.65,16.04c-.56-.76-.33-2.57.79-3.15,1.11-.57,2.63-.18,3.2.85.51.91.3,2.53-.87,3.27-.94.6-2.28.17-3.13-.98Z"/>
      <path d="M24.44,51.69l.82.39c.11.05.27-.42.19-.52l-.49-.6c-2.93-3.58.68-3.88-2.33-5.51-1.04,2.18-.35,5.22,1.81,6.24Z"/>
      <path d="M19.28,12.04c-1.57.19-2.89,1.07-2.75,2.79.06.8.37,1.87.76,2.36.37.46,1.82.64,2.61.41,1.55-.45,2.52-2.12,2.22-3.15-.42-1.41-1.68-2.55-2.84-2.41ZM19.95,17.09c-.72.41-2.08.04-2.47-.51-.56-.78-.64-1.94-.28-2.74.42-.93,1.4-1.34,2.63-1.16.91.14,1.74,1.15,1.78,1.96.05.93-.5,1.78-1.66,2.44Z"/>
      <path d="M37.77,47.8c.71-.65.29-2.53-.51-2.6-1.17-.11-1.81,1.05-1.66,1.81.17.86,1.3,1.59,2.17.79Z"/>
      <path d="M27.34,19.35l3.24.15-.18-1.04-3.79-.1c-.19,0-.17,1.11.02,1.08l.71-.09Z"/>
      <path d="M23.47,41.78c-1.21.98-.17,3.21.82,3.6.32.12.87-.79.66-1.02l-.91-.99c-.24-.26-.48-1.25-.57-1.59Z"/>
      <path d="M20.47,47.33l-1.46.11c.16.79,1.6.68,2.15-.02.46-.59.32-1.65-.53-2.11-.28-.15-1.08-.28-1.25-.06-.17.23-.32.77-.34,1.09-.02.28.75.49,1.03.44.2-.03-.28-.55-.61-.94l1.2.26c.32.07.12,1.19-.2,1.22Z"/>
      <path d="M32.1,45.35c.06.18.95.13,1.08-.08.52-.83.87-2.61.63-3.26l-1.72,2.33c-.14.19-.07.78.01,1.01Z"/>
      <path d="M15.3,44.5c-.55.26-.75,1.18-.56,1.58.21.43,1.17,1.1,1.37.72.32-.6.57-1.38.4-1.65-.18-.28-.9-.79-1.21-.65Z"/>
      <path d="M39.5,14.88c0-1-.81-1.82-1.82-1.82s-1.82.81-1.82,1.82.81,1.82,1.82,1.82,1.82-.81,1.82-1.82Z"/>
      <path d="M18.68,13.18c-1.01.43-1.35,1.6-1.14,2.28.34,1.1,1.35,1.41,2.33,1.06.63-.22,1.37-1.39,1.17-2.03-.28-.89-1.18-1.82-2.37-1.31Z"/>
    </g>
  </g>
</svg>