<?xml version="1.0" encoding="UTF-8"?>
<svg id="Warstwa_2" data-name="Warstwa 2" xmlns="http://www.w3.org/2000/svg" viewBox="0 0 36.28 54.13">
  <g id="icon-v9-equipment-pixarts-store">
    <g id="icon-v9-equipment-pixarts-store_375">
      <path d="M27.08,36.43c.39-.72.19-1.93.07-2.84,3.05-.97,6.02-3.01,6.02-6.53-1.07,1.33-2.15,2.26-3.85,2.78-1.62.5-3.88,1.75-4,3.52-.17,2.46-1.38,2.95-3.28,3.81-1.8.82-.88,3.7-1.57,5.22l-.17-5.1c-.43-.31-1.55-1.08-1.58-1.59-.12-1.82.75-4.24,2.37-4.92-2.55,3-1.9,5.82-.88,5.44,1.31-.49,1.09-1.39,3.59-3.47,1.22-1.01,2.1-2.14,2.65-3.58l-2.44,1.04c.5-1.06.83-1.97.99-2.84l.61,1.29,2.24-1.17-.94,3.15c5.97-3.82,1.73-5.79,6.15-9.91-4.1.63-3.76,5.48-6.38,6.47-.46-1.19-.92-1.86-1.99-2.41-.65-.33-1.67.14-2.63.64,1.28-2.07,1.2-4.15.13-6.02-.33,2.07-.69,3.64-1.47,5.29l-2.52-3.67-2.43,3.57c-.96-1.54-1.35-3.11-1.53-5.17-1.39,1.87-1,4,.11,6.1-1.06-.64-2.1-1.16-3.01-.65-.81.45-1.26,1.28-1.77,2.4-2.46-1.75-2.38-5.94-6.23-6.57,4.06,3.93.69,5.7,5.1,9.41-2.24-.27-4.16-1.19-5.26-3.32-.23,3.86,3.13,5.6,5.95,6.88-.34,2.28.66,3.92,2.9,4.78,2.18.84,2.07,4.35.99,6.09-.22.36-.03,1.77.34,1.97.37.19.85.4,1.4.63.57,1.82,3.57,3.15,3.45,3.23l.76-.51c1.06-.72,1.92-1.61,2.85-2.62.33-.35,1.36-.57,1.53-1.01.15-.38.17-1.48-.05-1.86-1.15-1.95-1-5.06,1.3-6.11.99-.45,2.01-.97,2.49-1.86ZM16.79,46.99l-1.81-1.77-.51-.5c-.11-.11.49-.59.64-.53.77.31,1.87,1.78,1.69,2.79ZM16.17,37.29l-.3,4.92c-.23-1.85-.35-3.57-1.17-5.01-.77-.03-1.75-.12-.9-.53-1.53-.14-2.63-1.11-2.65-2.91-.03-2.17-2.14-1.88-2.6-5.99l2.43.91.41-1.39.67,2.74-2.25-.8c1.18,2.79,2.58,2.77,5.32,6.34.17.23.75.54,1.02.58,1.48.17,1.08-3.38-1.27-5.7,1.74.6,2.21,2.43,2.76,4.06.48,1.4-.53,1.84-1.48,2.79ZM19.55,47.01c.05-1.13.57-1.98,1.67-2.95l.72.71-2.4,2.23Z"/>
      <path d="M27.15,25.41c2.18-5.02,2.7-11.2-.98-15.26,1.16,5.07.33,9.64-2.56,13.58,1.53.38,2.17.73,3.54,1.69Z"/>
      <path d="M9.29,25.5c1.21-1.13,1.95-1.42,3.49-1.64-2.97-4.16-3.96-8.86-2.5-13.84-3.91,4.27-3.09,10.87-.99,15.48Z"/>
      <path d="M3.08.13C2.35-.18.63.07.32,1.06-.28,3-.18,5.61,1.82,6.79l-.66-3.88c-.12-.72.23-1.59.92-1.81.54-.17,1.38.45,1.47,1.07l.6,4.14c1.29-.48,1.03-5.3-1.08-6.19Z"/>
      <path d="M36.27,1.97c-.09-1.52-1.66-2.14-2.77-1.94-2.54.45-2.64,5.9-1.42,6.31l.64-4.11c.07-.44.62-1.08,1.03-1.2.4-.12,1.56.56,1.5,1.01l-.67,4.44c1.55.35,1.76-3.42,1.69-4.51Z"/>
      <path d="M3.44,5.17c-.04-.2-.64-.55-.82-.62-.17-.07-.45.68-.41.87l.97,4.12c.05.2.63.6.81.7.18.1.41-.68.37-.89l-.92-4.17Z"/>
      <path d="M8.17,33.77l-3.8.04c1.1,1.29,2.31,2.16,3.9,2.55l-.1-2.59Z"/>
      <path d="M3.93,12.11c.67,1.84,1.48,3.53,2.41,5.11,1.47-.04-1.48-7.09-2.41-5.11Z"/>
      <path d="M32.39,10.17c.12-.07.67-.26.7-.4l.99-4.02c.06-.23-.19-.86-.27-1.06-.06-.14-.75.12-.79.26l-1.04,4.38c-.05.22.23.94.41.84Z"/>
      <path d="M14.12,48.27c.01,1.95.3,3.91,1.19,5.47.5-2.37.68-4.17-1.19-5.47Z"/>
      <path d="M3.91,13.97l-1.44-4.62c-.88-2.84-1.65,4.21,1.44,4.62Z"/>
      <path d="M31.75,11.77c-.15.09-.61.39-.69.56l-1.01,2.33c-.34.78-.73,1.47.14,2.31l1.98-4.13c.12-.26-.21-1.21-.42-1.09Z"/>
      <path d="M28.26,36.17c1.45-.33,2.78-1.14,3.63-2.28h-3.34c-.53-.01-.6,1.72-.29,2.28Z"/>
      <path d="M34.05,8.59l-1.57,5.31c1.62.4,3.03-4.8,1.57-5.31Z"/>
      <path d="M6.86,20.08c-.56-1.63-1.34-3.06-2.24-4.53-.8,1.97.25,3.98,2.24,4.53Z"/>
      <path d="M22.27,48.24c-1.28.73-1.45,1.84-1.42,2.98l.07,2.91c1.01-1.8,1.35-3.8,1.36-5.88Z"/>
      <path d="M4.56,8.03c.49,1.8,1.03,3.48,1.7,5.01.96-2.06.02-4.14-1.7-5.01Z"/>
      <path d="M30.14,13.05c.73-1.62,1.24-3.22,1.45-4.98-1.89,1.06-2.21,3.22-1.45,4.98Z"/>
      <path d="M11.16,38.58c-.09,1.41.73,2.64,1.85,3.9.32-1.51-.03-3.31-1.85-3.9Z"/>
      <path d="M23.4,42.57l1.93-3.05-.14-.7c-.15-.75-2.68,1.6-1.79,3.75Z"/>
      <path d="M31.5,15.57c-.7,1.44-1.3,2.81-1.78,4.28,2.01-.82,2.71-2.62,1.78-4.28Z"/>
      <polygon points="27.54 37.12 26.45 39.07 29.54 38.36 27.54 37.12"/>
      <path d="M8.84,37.33c-.59.11-1.37.55-1.87.88l2.96.94c-.2-.82-.69-1.89-1.1-1.82Z"/>
      <path d="M22,35.79c1.19.21,2.26-.32,1.98-2.12-.73.43-1.42,1.18-1.98,2.12Z"/>
      <path d="M12.19,33.66c-.13,1.23.47,2.29,2.09,2.03-.44-.88-1.2-1.65-2.09-2.03Z"/>
    </g>
  </g>
</svg>