<?xml version="1.0" encoding="UTF-8"?>
<svg id="Warstwa_2" data-name="Warstwa 2" xmlns="http://www.w3.org/2000/svg" viewBox="0 0 49 47.4">
  <g id="icon-v9-equipment-pixarts-store">
    <g id="icon-v9-equipment-pixarts-store_192">
      <path d="M44.87,19.39l1.2-.12-1.93-2.79-1.88,1.2c2.09,3.3,2.59,6.95,1.09,10.45-1.31,3.07-4.47,5.06-7.64,4.99,3.13-1.48,5.71-3.55,6.55-6.82.7-2.75.11-5.31-1.37-7.91l-2.37,1.1c1.22,2.58.8,5.35-1.06,7.13-1.92,1.84-4.5,1.97-6.94,1.15l2.94,2.53c-2.34.01-3.74-1.74-5.59-3.22-1.01,2.48,1,3.95,2.57,5.34h-2.06s-3.87,7.79-3.87,7.79l-3.92-7.8-1.96-.07c4.54-3.91,2.41-5.59,1.7-4.86-1.01,1.03-3.02,2.84-4.9,2.82l2.95-2.51c-2.69.89-5.22.58-6.98-1.24-1.79-1.85-2.16-4.39-1.01-6.93-.53-.45-1.37-.93-2.17-1.19-2,2.69-2.34,6.21-1.02,9.24,1.16,2.67,3.49,4.25,6,5.51-3.62.02-6.6-2.34-7.79-5.63-1.2-3.32-.66-6.72,1.27-9.78-.46-.5-1.19-.95-1.88-1.18l-2.1,3.13,1.38-.39c-1.65,2.6-2.81,5.19-3.15,8.45l2-1.29c-.88,3.33-1.34,6.4-.89,9.41,1.01-1.43,1.91-2.6,2.93-3.48.39,1.91.66,3.08,1.27,4.63l2.08-1.98,5.66,6.36.36-2.2,4.76,3.71-.7-4.22c2.38,2.78,4.2,5.59,6.11,8.66,1.98-3.28,3.97-6.1,6.29-8.9l-1.05,4.58,4.81-3.77.32,2.17,5.74-6.36,2.2,2.19,1.24-4.95c1,.92,1.96,2.02,2.99,3.27.36-3.07-.14-6.06-.98-9.19l1.92,1.34c-.27-3.22-1.45-5.91-3.1-8.39Z"/>
      <path d="M1.65,10.81c1.31,2.29,3.11,4.02,5.34,4.98l3.84,1.66-3-4.14c1.53.88,2.81,1.73,3.94,2.94,3.47,3.7,7.08,7.09,10.92,10.26l1.82-1.96,1.81,1.91,7.88-7.19c2.28-2.08,3.9-4.52,6.82-5.96l-3.04,4.28c5.19-2.23,6.52-2.45,9.38-6.82l-3.44,1.53c2.26-4.06,4.76-7.45,5.07-12.3-2.53,3.34-5.56,6.14-9.2,8.22l.47-2.86c-2.82,3.26-5.06,6.59-7.48,10.22.42-2.56,1.44-4.45,2.69-6.72-.3-.39-2.01-1.21-2.55-.76l-4.03,3.34c.52-1.55,1.43-2.92,2.48-4.36-4.56-1.42-9.42-1.35-13.79.09,1.11,1.58,1.91,2.81,2.42,4.29l-4.07-3.29c-.58-.47-2.17.31-2.63.63,1.44,2.28,2.53,4.58,2.97,7.11-2.52-3.8-4.54-7.25-7.7-10.44l.42,2.82C4.6,5.09,3.58,4.39,0,.12c.33,4.95,2.84,8.28,5.28,12.26l-3.63-1.57ZM28.48,17.45c.59-.99,1.12-1.82,2.04-2.56-.98,2.97-1.95,5.45-3.63,7.92l1.59-5.35ZM21.93,22.78c-1.71-2.52-2.68-5.13-3.79-8.42,2.13,1.93,3.09,4.73,3.79,8.42Z"/>
      <path d="M24.31,26.89c-2.9,3.88-1.26,5.5.15,9.64l1.81-5.35c-.11-1.63-.6-3.21-1.96-4.29Z"/>
      <path d="M34.25,24.76c-.77.4-1.8.06-2.96-.65l-1.11,1.13c1.69,1.85,4.05,1.96,5.86.59,1.56-1.18,2.03-3.54.99-5.44-.65.13-1.64.72-1.74,1.21.41,1.25.23,2.51-1.04,3.16Z"/>
      <path d="M11.96,20.37c-1.09,2.01-.65,4,.76,5.28,1.32,1.2,3.43,1.67,5.01.44.33-.26,1.03-.81.81-1.05l-.81-.88c-.18-.2-.81.26-1.3.57-.83.52-2.13.12-2.58-.59-.47-.74-.41-1.71-.22-2.75-.31-.25-1.23-.79-1.67-1Z"/>
    </g>
  </g>
</svg>