<?xml version="1.0" encoding="UTF-8"?>
<svg id="Warstwa_2" data-name="Warstwa 2" xmlns="http://www.w3.org/2000/svg" viewBox="0 0 52.85 56.86">
  <g id="icon-v9-equipment-pixarts-store">
    <g id="icon-v9-equipment-pixarts-store_22">
      <path d="M28.68,14.57l-.45-3.16,1.96,3.97,7.48,2.52c1.27-8.57-7.22-15.38-13.99-17.89l.06,6c-2.39,2.87,2.04,7.83,4.95,8.57Z"/>
      <path d="M14.05,7.97l1.06,7.17c.37,2.5,3.18,4.17,5.5,4.48v-2.11c.28.63.87,2.32,1.62,2.53l3.81,1.05c-.47-6.45.04-6.38-3.68-10.87l-8.31-2.23Z"/>
      <path d="M38.8,19.54l-6.22-1.95c-1.73-.54-3.25-1.17-5.17-1.91,1.41,3.44,3.68,7.41,7.54,8.67l.06-1.58c.4.88.92,2.1,1.53,2.41l5.91,3.01c.91-4.68-.11-9.5-3.45-13.3l-.19,4.64Z"/>
      <path d="M43.12,30.05l-8.92-4.31c2.38,6.22,1.36,7.36,6.27,10.33l4.72,2.84c1.33-4.35.89-8.83-1.28-12.54l-.78,3.68Z"/>
      <path d="M26.85,22.58l-6.8-1.53c.46,1.92,1.51,3.62,3,5.08.99.98,2.65,1.22,4.03,1.75l5,1.95c.52-6.72-.74-6.39-5.04-11.74l-.19,4.48Z"/>
      <path d="M10.92,23.01c1.75,2.17,4.74,2.42,7.37,3.12.04-2.15-.01-4.25-.7-6.46-3.64-3.15-3-3.26-8.25-3.66.31,2.34.12,5.17,1.59,6.99Z"/>
      <path d="M45.66,40.74l-7.25-4.24.91,5.93c.13.81,1.57,1.82,2.25,2.37l4.72,3.84c1.15-4.3,2.08-6.78.41-11.13l-1.04,3.23Z"/>
      <path d="M33.35,26.73l-.48,4.64-7.21-2.37c.63,2.18,1.16,4.89,3.31,5.99l6.73,3.44c.89-5.86-.03-7.16-2.34-11.7Z"/>
      <path d="M23.56,28.13l-4.14-4.75-.36,4.14-4.08-.84c-.19,5.04,5.16,5.84,8.71,7.04.09-1.77.29-4.08-.14-5.58Z"/>
      <path d="M37.05,46.65c.92-2.66,2.04-8.1.08-10.21l-1.02,3.64c-2.38-1.27-4.37-2.36-6.95-3.27.92,6.38,2.91,6,7.88,9.83Z"/>
      <path d="M39.82,45.74l.51,4.82c.06.58.72,1.67,1.18,2.04l5.23,4.26.99-3.53c.55-1.97.59-3.97.17-5.81l-1.33,2.73-6.74-4.5Z"/>
      <path d="M38.01,54.91c1.94-4.14,2.34-5.41.57-9.34l-1.04,2.65-5.48-3.25c-.31,5.88,2.13,6,5.95,9.95Z"/>
      <path d="M34.93,3.43l.07,3.12,3.48,5.58c.94,1.5,3.05,2.71,4.34,3.69.22-3.85-1.71-6.3-3.52-8.82l-4.37-3.57Z"/>
      <path d="M23.56,39.51l3.31,1.63c1.19-6.89,1.54-3.75-1.75-9.39l-.83,3.22-3.94-.73c0,2.32,1.15,4.26,3.21,5.27Z"/>
      <path d="M2.56,33.63l6.72-2.38c-2.26-2.31-2.86-5.58-3.08-8.32l2.81-.4-.52-1.82c-4.16,3.02-3.83,3.67-5.07,8.61l3.16-1.68-3.32,3.65c-.55.6-.88,1.56-.7,2.34Z"/>
      <path d="M47.2,25.93c1.24-4.07-.69-7.54-3.14-10.15l-.43,2.11-2.01-.93c2.53,6.45.72,4.29,5.58,8.98Z"/>
      <path d="M14.46,30.29c-1.41-5.02.72-2.97-4.23-6.19-.56-.36-1.95-.31-2.8-.24.53,1.64.97,3.12,1.72,4.58.93,1.81,3.7,2.23,5.31,1.85Z"/>
      <path d="M23.68,41.22c0,2.08,1.5,3.57,3.22,4.74l1.93,1.31c2.54-4.51,1.37-3.76-.31-8.23l-1.07,3.51-3.78-1.32Z"/>
      <path d="M44.76,25.54l2.35,7.28c.26.82,1.39,1.97,2.08,2.81,1.66-2.97.81-6.54-.74-9.35l-.82,1.5-2.86-2.24Z"/>
      <path d="M18.87,33.66l-3.4-2.29-2.08.43c.76,3.71,1.97,5.19,6.18,5.58l-.7-3.72Z"/>
      <path d="M30.8,46.3l-1.6,2.46-3.52-1.94c-.08,1.34.27,2.63,1.11,3.41l2.61,2.41c1.62-1.74,2.63-3.94,1.39-6.34Z"/>
      <path d="M50.33,44.28c1.16-2.65,1.02-5.39.29-7.82l-1.32,1.32-2.01-2.28,1.47,6.49,1.57,2.29Z"/>
      <path d="M5.97,36.91l6.32-3.41c.02-1.08-.96-2-1.8-2.11-2.14-.27-4.31,2.81-4.51,5.52Z"/>
      <path d="M21.61,44.04c.49-1.39,1.42-4.45-.79-5.1l-2.58-.76c-.42,2.51,1.06,4.57,3.37,5.86Z"/>
      <path d="M51.49,44.97l-.96,1.01-1.83-1.46.52,4.69c.08.76,1.18,1.79,1.88,2.32.81-2.34.87-4.44.39-6.55Z"/>
      <path d="M47.1,17.79c.3-2.07-.4-3.3-1.17-4.73l-3.09-3.11c.33,1.43.56,3.36,1.39,4.37l2.87,3.48Z"/>
      <path d="M48.62,24.16c.48,1.12,1.39,2.3,2.44,3.25.49-3.28-1.02-5.83-3.06-7.94l.63,4.69Z"/>
      <path d="M3.73,25.2c-1.5,1.24-2.53,2.36-3.73,3.85.66,1.29.95,1.88,1.96,3.21l1.78-7.06Z"/>
      <path d="M52.66,36.09c.59-2.39-.23-4.82-1.75-6.84l.17,4.76c.02.59.96,1.58,1.58,2.07Z"/>
      <path d="M6.43,33.18l-3.38,1.48c.38,1.53.72,2.56,1.31,3.74l2.07-5.22Z"/>
    </g>
  </g>
</svg>