<?xml version="1.0" encoding="UTF-8"?>
<svg id="Warstwa_2" data-name="Warstwa 2" xmlns="http://www.w3.org/2000/svg" viewBox="0 0 41.02 59.55">
  <g id="icon-v9-equipment-pixarts-store">
    <g id="icon-v9-equipment-pixarts-store_339">
      <path d="M28.9,54.49l1.23-.77c.2-.13.6-1.08.37-1.1l-.54-.05-2.04,1.33c.03.09.7.76.98.59Z"/>
      <path d="M28.31,53.13l.84-.97c-1.4-.52-1.18-.46-.68-.34l.99-.67c.1-.07-.34-.54-.45-.5-.51.18-1.47.92-1.86,1.45-.35.48.72,1.53,1.15,1.04Z"/>
      <rect x="20.21" y="15.75" width=".37" height="11.49"/>
      <path d="M9.76,13s-.34-.53-.38-.65l-.95-3.16c-1.83,2.04-3.06,4.19-3.6,6.94,3.23,2.56,6.2,4.45,9.66,6.5,1.99,3.16,2.93,7.09,5.9,9.54,2.73-2.44,3.54-5.45,4.86-8.7l1.89-4.64c-.65-.89-.99-2.21.06-2.76,1.4-.73,2.55-2.58,1.47-3.94-.44-.55-.78-1.27-.51-1.93.2-.49.64-1.1.87-.92l.98.75c.23-.99.46-2.3.53-3.4l-5.2-4.57c-1.27-1.11-3.12-1.72-4.69-2.06l-.25,7.28-.24-7.23c-3.21.2-8.41,5.1-10.49,7.46-.56.64.02,2.51.36,3.32l.84-.66,1.21,4.91c-.8-.92-1.26-1.75-1.7-2.61-.21.18-.59.51-.62.52ZM20.21,15.75h.37v11.49h-.37v-11.49Z"/>
      <path d="M.53,13.57c-1.9,2.38,7.76,8.06,9.44,9.05,2.1,1.23,3.91,2.86,4.52,5.21-1.34-2.06-2.87-3.76-5.13-4.9-3.28-1.65-6.02-3.8-8.64-6.31.11,2.65,1.68,4.18,2.51,6.6l-2.05-2.29-.52,4.23c-.08.64.61,1.94,1.22,2.24,3.28,1.62,6.33,2.78,9.68,4.14l8.97,3.65,8.79-3.63c3.22-1.33,6.31-2.38,9.39-4,1.02-.54,1.53-1.79,1.44-2.82l-.34-3.8-1.96,2.42c.93-2.39,1.77-4.15,2.33-6.71-2.67,2.65-5.69,4.94-9.34,6.76-1.19.6-1.5,2.12-2.26,2.83l-2.88,2.72c.64-1.7,1.74-4.02,3.36-5.05,2.73-1.73,12.35-6.96,11.28-10.14-.76-1.62-3.03-2.01-4.63-1.77l3.49,1.94c-.45,2.84-7.59,6.96-9.96,8.19-4.09,2.14-2.75,5.13-7.25,10.21-.34.38-1.16.86-1.59.87-.43,0-1.32-.46-1.63-.83-4.22-4.94-2.86-8-7.82-10.67-2.04-1.1-9.15-5.43-8.96-7.63.09-1.05,2.66-1.08,3.09-2.11-1.65-.22-3.51.28-4.56,1.59Z"/>
      <path d="M31.4,41.27c.69-3.14,1.02-6.08.39-9.33l-9,3.84c-1.54,1.02-3.22.83-4.78.04-2.94-1.48-5.72-2.68-8.92-3.86-.45,3.28-.3,6.13.41,9.23,7.24-1.86,14.61-2.05,21.91.08Z"/>
      <path d="M1.49,46.53l6.17,5.84c.48-2.25.84-4.43.18-6.45-1.63-4.95-2.46-9.67-1.92-14.97l-3.15-1.56c-.48,4.42-1.14,8.16-2.31,12.32l1.56,2.88-1.99-1.89c-.23,1.37.39,2.84,1.44,3.84Z"/>
      <path d="M35.15,30.64c.45,7.01-.45,7.71-1.46,14l2.93-3.49,1.38,3.36,2.52-2.83c-1.28-4.15-1.94-7.8-2.55-12.3l-2.81,1.26Z"/>
      <path d="M35.82,16.07c.24-2.4-1.41-4.61-2.92-6.39-.46,1.07-.5,1.97-.28,2.97.73,3.36-1.64,1.9-2.06,4.87l-.4,2.77c1.97-1.19,4.24-2.54,5.67-4.22Z"/>
      <path d="M9.1,53.92c3.05-9.05-2.28-10.15-1.39-21.82.02-.24-.44-1.02-.63-.88l-.57.41c-.36,4.53.06,8.71,1.62,12.89,2.37,6.36-.92,8.05.97,9.41Z"/>
      <path d="M27.15,55.72c-.41-.97-1.07-2.05-1.7-2.4-3,1.88-5.64,3.35-8.55,4.61,6.33,1.1,5.16,1.18,10.25-2.21Z"/>
      <path d="M32.11,51.61c1.74-2.27,7.26-6.6,4.06-8.35l-5.82,6.18,1.76,2.17Z"/>
      <path d="M33.76,31.26c-.89.81.42,5.78-1.95,12.26-.54,1.48-.96,2.83-.9,4.36,3.38-2.68,4.72-18.32,2.84-16.61Z"/>
      <path d="M33.52,59.55c.52-.91,1.08-2.32.77-2.93l-1.78-3.41-1.77,2.2c.56,1.74,1.36,2.99,2.79,4.14Z"/>
      <path d="M40.81,42.65c-1.08.98-2.08,1.93-2.87,3.03l-3.94,5.47c1.88-.89,8.27-6.25,6.81-8.5Z"/>
      <path d="M31.74,53.09l-2.54-3.53-3.3,2.52,2.47,3.62,3.37-2.61ZM27.16,52.09c.39-.53,1.35-1.27,1.86-1.45.11-.04.54.43.45.5l-.99.67c-.5-.12-.72-.18.68.34l-.84.97c-.42.49-1.5-.55-1.15-1.04ZM27.92,53.89l2.04-1.33.54.05c.23.02-.17.98-.37,1.1l-1.23.77c-.28.17-.96-.5-.98-.59Z"/>
      <path d="M28.91,10.48c-.2.04-.23.68-.07.83l3.08,2.77c.8-1.71-2.01-3.78-3.01-3.6Z"/>
      <path d="M30.11,12.99l-1.01,4.36c2.04-.82,2.1-3.1,1.01-4.36Z"/>
      <path d="M31.78,7.59c-.49,1.14-.76,2.39-.55,3.47,1.37-1.15,1.35-2.46.55-3.47Z"/>
      <path d="M28.09,19.21l-1.17,2.66c1.55-.47,2.28-1.4,1.17-2.66Z"/>
      <path d="M29.83,18.2l-.83-.45c-.67-.36-1.2-.56-1.89-.57l2.23,2.04c.2-.13.68-.91.49-1.01Z"/>
    </g>
  </g>
</svg>