<?xml version="1.0" encoding="UTF-8"?>
<svg id="Warstwa_2" data-name="Warstwa 2" xmlns="http://www.w3.org/2000/svg" viewBox="0 0 53.76 58.95">
  <g id="icon-v9-equipment-pixarts-store">
    <g id="icon-v9-equipment-pixarts-store_01">
      <path d="M43.79,23.78c.48-1.99,2.01-2.83,3.49-3.97.9-.7.66-2.34-.07-3.22-.61-.73-2.13-.83-3.19-.29l-3.74,1.89c-.72-4.23,3.42-3.25,1.38-8.41-6.56-.21-4.39,4.64-8.23,3.23-.07-4.96.15-2.01-1.56-6.61-4.78-.65-3.28,4.45-5.44,6.3-1.06.91-1.59,1.55-2.34,2.56-3.91,5.26-2.11,3.68-2.03,9.48,1.58-.93,3.54-.9,5.18-.34.47.16,1.34-1.06,1.29-1.57-.05-.48-.48-1.26-.76-1.52-.04,1.09-.06,1.93-.75,2.3-1.19-.79.11-3.94-1.18-3.01l.26,1.09c.06.24-.75.58-.96.45-1.51-.94-1.19-5.14.39-5.73,7.65-.36,6.09-1.42,12.4,2.41,3.47,2.1,4.85,6.48,4.12,10.33-.6,3.13-2.67,5.04-4.7,7.38,2.47-1.41,4.03-3.73,5.93-5.75l1.99-2.12c.64-.68,1.77-1.39,2.75-1.81,1.04-.45,2.15-2,1.2-2.82-1.61-1.37-3.51-1.23-5.42-.24Z"/>
      <path d="M28.67,43.26c-5.31,2.2-15.16-.42-17.37-7.59-.96-3.11,1.64-3.79,2.41-6.16-2.11-1.23-4.6-.46-6.15,1.18.23.48.53.8.41,1l-.62,1.11-.25-1.57c-2.22,3.11-1.36,7.17.94,10.28,3.73,5.04,9.84,7.94,16.19,8.18,3.58.13,7.19-1.31,8.93-4.41-.98-.59-1.73.06-2.14.91-.04.07-.07.14-.1.2-.01.06-.04.11-.09.16-1.17,2-1.66-1.04-4.25,1.71-.23-2.11,3.59-1.06,4.25-1.71.03-.05.06-.1.09-.16.04-.21-.11-.54-.57-1.05l1.06-1.13.42.57c.12.17.65.01.69-.19l.22-1.3.57,1.27c.8-1,.84-2.64.24-3.83-1.84.96-3.28,1.87-4.87,2.53ZM15.06,45.7c-.66-.02-1.31-1.34-1.6-2.11-2.1-.46-4.18-1.98-4.06-4.29l-2.01-1.12-.16-2.53,1.8,1.49s.47-.56.54-.65l.55,2.83c.09.45-.12,1.7.27,1.96l2.43,1.66c.18-.15.58-.41.5-.5l-.66-.83c.04-.11,1.02.12,1.07.41l.2,1.25c.06.36.33,1.11.5,1.44.2.39,1.19.49,1.92.29l-1.11-1.24,1.15.05,1.23,1.97-2.58-.08ZM22.88,46.84c-.21-.09-1.21.34-1.31.06l-.49-1.39,3.67,1.8c-.49.92-1.38.04-1.88-.47Z"/>
      <path d="M30.91,46.38c-.03.06-.06.11-.09.16.05-.04.08-.1.09-.16Z"/>
      <path d="M25.93,7.33c-2.94-1.09-5.62.04-8.32,1.06-2.86,1.08-3.09,4.5-2.3,5.21.99.9,3.38-1.3,5.07-1.18l-3.02,1.89c-.29.18-.95.76-1.25.64l-1.46-.61-.7,7.83c5.62-2.15,3.63-5.4,5.43-6.54-1.85,4.22.7,3.02-.98,4.52l-3.41,3.04c-.32,5.74.82,5.4-2.52,10.21-1.15,1.66.62,4.16,1.84,5.26,1.34-2.08,3.09-3.22,5.21-3.9-6.48-12.32,2.37-11.8,1.56-17.6l-.72-5.13c1.11-2.32,3.22-3.4,5.56-4.69Z"/>
      <path d="M38.17,29.67c.37-.22.64-1.53.24-1.68-.34-.12-1.47-.23-1.71.03-.4.42-.4,1.56.03,1.62.54.08,1.15.21,1.45.03Z"/>
      <path d="M20.12,39.82l-2.04,1.42c.17.18.71.73.95.55l1.09-.77,1.94-1.35c-.48-.24-1.54-.21-1.94.15Z"/>
      <path d="M15.28,39.11c-.23.96,1.7,2.16,2.8,2.13-.01-.03-.49-.54-.33-.62.19-.09.69-.33.85-.42l2.84-1.56c.8-.44,1.79-.89,2.44-1.08-.96.92-2.21.78-1.82,2.11,1.21.19,1.66-.66,2.27-1.5-.01-.03-.03-.06-.04-.08l.12-.02c.05-.07.11-.14.16-.21l1.39-1.69c.13.31.36,1.05.64,1l1.56-.31c1.09-.22,1.97-.42,2.82-.86.16.1.72.49.82.29.13-.25.33-.92.35-1.07l2.29-.58c.48.06.75.15-.09-.46l1.57-.71c.23-.1.88-.7.68-.85l-1.01-.76c.32.09.91.36,1.2.24.29-.12.69-.53,1.29-1.05-.85,2.37-2.66,5-5.74,5.53l-3.1.54-4.83.96s-.05.07-.08.11c.21.47.6,1.01.78.9l1.27-.73.35.56c6.45-.53,13.38-3.52,14.46-10.9.5-3.45-1.32-7.1-4.33-8.81-6.15-3.49-4.35-2.12-9.99-2.15h-1.21c-.31,0-.72.95-.49,1.2,1.85,2.05,6.94,4.1,10.05,4.26l-2.04,1.02c-.97.95-4.33,4.83-5.6,3.76l-1.46-1.24c.05.56.3,1.36.65,1.67,1.61,1.42,4.3-1.2,7.34-2.4,1.55-.61,2.16-1.1,3.61-2.35l-1.52,2.78,1.57-.16-1.37,1.36,1.44.47c.3.1.92-.55.79-.84-.19-.43-.8-.91-.72-1.2l.32-1.24c1.34,2.18.88,4.69.13,6.85-.72-.48-1.63-.95-2.26-1.04l-2.59,2.85-3.23,1.02c-2.21.7-6.43.84-6.55,1.23l-.32,1c-.31-.68-.73-1.12-1.51-1.04-.74.07-.89.74-1.06,1.8l-.57-1.19c-.13-.26-4.43,1.27-4.98,3.52ZM31.74,20.18c-.56-.13-1.17-.75-1.77-1.52,1.45-.37,2.53-.47,3.89.19-.02.92-1.37,1.5-2.12,1.33Z"/>
      <path d="M24.3,38.09s.03.06.04.08c.03-.04.05-.07.08-.11l-.12.02Z"/>
      <path d="M20.19,27.59c-.47,1.31-.09,2.71.66,3.78,2.41.44-.58-1.01-.23-2.88.42.22.99.82,1.24.62l1.35-1.05,1.74,5.16-1.25-.53c-.25-.11-.74.52-1.03.81l-1.53-1.45.51,2.32,8.3-1.39c2.74-.46,4.85-2.28,5.7-4.9.17-.51-.24-2.17-.78-2.08-3.35.77-5.4,3.99-8.26,2.47-.81-.43-1.22-1.68-1.44-2.8-1.23-.05-2.52.87-3.72,1.87.22-1.3,1.37-1.91,2.25-2.21,1.6-.55,2.5-.08,3.9.67.93-.31,2.15-.88,3.04-1.78l-3.14,1.24c-2.36-2.09-6.5-.04-7.27,2.14Z"/>
      <path d="M19.99,27.23c.3-1.04-.25-2.58-.74-3.74-2.33,3.04-1.01,7.94,1.29,11.12,1.72-1.22-2.09-2.08-.55-7.37Z"/>
      <path d="M19.15,55.76c-7.13.31-8.98-5.66-11.81-1.28.33.27,3.98,3.69,4.45,2.05.24.86,1.89,2.09,2.94,1.6.6-.28.86-.5.99-.37s.37.72.55.79c1.23.47,3.88.59,5.09.03l-1.01-1c-.32-.32,1.77-1.59,2.35-1.46.32.07.75.42,1.33.78,1.87-1.13,2.91-3.77,1.59-5.75-1.25,3.03-3.43,4.48-6.46,4.62Z"/>
      <path d="M7.71,49.37l5.65-1.59c-3.69-2.59-6.17-4.91-8.03-8.55-2.63,3.46,0,8.11,2.38,10.14Z"/>
      <path d="M11.45,52.49c4.27,2.56,11.43,4.12,13.56-1.68-2.63-.08-4.98-.42-7.48-1.16-1.27,2.2-3.38,2.89-6.08,2.83Z"/>
      <path d="M51.1,9.18c-.6-.67-1.68-1.45-2.31-1.88l-.42,4.83c.76-.12,2.01.15,2.09.7-2.07-.54-5.49.37-5.65,2.35,1.68.08,2.85.33,3.37,1.03.38.51.52,1.53.66,2.65,1.25-.66,2.19-2.2,1.7-3.87,1.71-1.41,2.18-3.99.57-5.8Z"/>
      <path d="M5.74,50.87l1.05-.89c-2.86-2.97-4.81-7.11-1.93-11.22-1.36-.35-2.82.37-3.57,1.32l.79,1.75c-5.11,1.1.51,9.52,2.66,10.58l.06-2.33c.26.21.72.98.94.79Z"/>
      <path d="M20.24,42.15c3.69,1.6,7.28.93,10.56-1.08,1.81-1.11,3.61-1.79,5.01-3.4-3.14,1.18-6.16,1.93-9.58,2.21-2.22.18-4.26.91-5.99,2.27Z"/>
      <path d="M42.24,9.41c.79.78.64,2.6.84,3.62,2.55-1.94,2.7-4.25,1.12-7.68,1.1.53,1.43,1.31,1.65,2.78.79-.85,1.76-1.92,2.27-3.04.48-1.04,0-2.56-.84-3.09-.66-.42-2.35-.3-2.9.39l-1.89,2.34,1.49.35c-3.65.17-4.66,1.16-6.14,4.27,1.48-.1,3.3-1.02,4.4.06Z"/>
      <path d="M50.52,19.82l1.18,1.14-1-.66-3.13,2.22c1.19.4,2.51.61,2.62,1.25.13.78.04,1.64-.02,2.76,2.17-1.07.82-.89,3.03-4.27,1.33-2.04.1-4.98-1.46-6.45-.28,1.48-.62,2.58-1.22,4.01Z"/>
      <path d="M16.14,50.14c.15-.16.32-.8.2-.96-.8-1.1-.66,1.06-1.73,1.31-1.57.36-4.1.69-5.58.33l5.38-.65c.43-.05.72-1.2.5-1.55-.22-.35-1.33-.56-1.55-.15-.17.31-.18.79-.22,1.3l-.69-.73c-.14-.15-3.67.35-5.42,1.75-2.59,2.07-2.81,5.65-.59,7.73-.25-2.13-.65-3.91.5-5.28,2.55-3.05,6.83-.52,9.2-3.1Z"/>
      <path d="M32.52,6.08l1.42,2.92,1.67-3.57-1.15-3.07c-1.7-1.1-3.16,0-4.32,1.19-.94.97-2.21,1.69-2.01,3.21,1.48-.98,3.04-1.9,4.38-.68Z"/>
      <path d="M41.02,2.12c-1.94-1.67-5.43-3.19-7.39-1.1,2.42.8,1.42,3.73,2.07,3.37,3.93-2.16.63-1.22,5.32-2.27Z"/>
      <path d="M20.36,25.59c1.39-1.13,1.19-2.94.29-4.03-.84,1.36-.94,2.79-.29,4.03Z"/>
    </g>
  </g>
</svg>