<?xml version="1.0" encoding="UTF-8"?>
<svg id="Warstwa_2" data-name="Warstwa 2" xmlns="http://www.w3.org/2000/svg" viewBox="0 0 56.99 59.23">
  <g id="icon-v9-equipment-pixarts-store">
    <g id="icon-v9-equipment-pixarts-store_278">
      <path d="M11.76,42.91c.98-1.27.64-3.57.4-5-.85.91-1.38,6.27-.4,5Z"/>
      <path d="M49.15,41.98l.81,5.28c-.08.69.14,1.4.66,1.99,1.29-1.68,1.17-3.55.21-4.9l-1.68-2.37Z"/>
      <path d="M7.17,50.48l-1.09-3.29c-.96,1.33-.74,3.21,1.09,3.29Z"/>
      <path d="M36.57,38.68c-.46,2.29.33,5.02,2.97,5.72-.06-1.03-.39-2.02-.92-2.79l-2.05-2.93Z"/>
      <path d="M37.48,25.62l-1.89-.76-.54-5.68c-.04-.38-1.31-.89-1.43-.58l1.18,3.68c.14.44-.72,1.37-1.17,1.31l-1.85-.25c-.28-1.45-.38-3.73.43-4.67l.69-.8c.08-.1-.41-.16-.49-.06l-.45.54c-.13-1.03-.7-2.07-1.8-2.16l.74,3.8c.12.62-1.48,1.13-2.09.98-2.74-.66,1.42-6.64-1.42-7.23l.23,3.84c-.54.15-1.38.26-1.82.22-.36-.03-.94-.97-.86-1.36l.61-3.16c.3-1.54-.33-3.99-2-4.1-3.58,2.81.64,8.21-1.75,8.65-.75.14-1.87-.27-1.85-.84l.14-3.14c-.55.32-.91,1.02-.82,1.62l.74,5.02c-.32.42-1.66.69-2.1.52-.37-.14-1.03-.82-.98-1.26l.46-3.51c-2.67,1.81-.33,3.06-1.08,6.69-.1.46-1.36.68-1.78.57-.35-.09-.98-.73-.91-1.12l.61-3.7c-.22-.23-1.22.44-1.22.78l.02,3.75c0,.51.08,1.44-.28,1.57-.29.11-.93.29-1.55.47-1.49,7.54-3.24,15.08-1.41,23.01,1.03-.63,1.97-.81,3.06-.62-.07-1.66-.17-3.25.41-4.54,1.46,2.48,1.94,4.69,2.24,7.11l.64-1.86c.84,2.06,1.3,3.59,2.66,4.63l-.29-5.19,1.26,1.81c1.91-3.56-1.18-3.25-.58-6.72l.81-4.62.95,3.09c2.18,7.06-.44,6.74,4.31,11l.79-.91,1.9,1.67c.25-2.98-1.34-3.18-1.28-6.6,2.26.85,1.61,2.89,1.96,4.27l2.16,3.8.28-1c.05-.18.55.42.78.62l1.12-3.02.25-1.76,1.51.77c.23.11.79-.49.75-.62-.64-1.71-1.17-4.16-1.12-6.05l3.34,4.3,2.14,1.21,2.55,3.1c.23-1.34.56-2.83.35-3.86l-.85-4.05c8.16,10.2,3.38-2.63,1.13-6.83-2.09-3.91-3.89-7.84-5.57-11.76ZM11.76,42.91c-.98,1.27-.45-4.08.4-5,.23,1.42.58,3.73-.4,5ZM36.57,38.68l2.05,2.93c.54.77.86,1.76.92,2.79-2.64-.7-3.44-3.43-2.97-5.72Z"/>
      <path d="M22.04,9.52l-2.5,2.27,2.17-3.39-1.54.59,1.15-1.37-4.83-1.32,4.98.17-3.49-1.86,3.12.83c.24.06.67-.19.82-.32.62-.53-4.89-1.9-4.33-4.14,1.63,2.01,3.76,3.29,6.14,3.28,2.58-.01,4.54-1.14,6.5-3.19l.51.71c-1.92,1.41-3.46,2.35-5.36,3.45,1.45.07,2.16.04,2.9-.06l-2.32.98,2.77.05-2.05.85,5.07.33c-1.72.48-3.25.46-5.14.28l.65,1.04-1.51-.67.62,1.55-1.46-.81c3.87,6.34,10.36,10.86,17.82,11.26-.83-1.07-2.12-.81-3.27-1.24l2.69.2c-.16-1.16-1.25-1.73-2.32-1.95.75-.34,1.52-.64,1.61-1.08.08-.37-.34-1.37-.7-1.49l-3.55-1.15,2.43.15-1.3-5.8c-.39-1.76-1.69-3.21-3.13-3.62.43-.56.55-1.31.26-1.49-2.13-1.32-2.4.38-3.51-1.59-1.53-2.72-6.08,4.2-14.65-.97l-1.94,2.27c-.56-.03-1.76,0-2.15.35-.38.33-.25,1.39.02,1.72-1.24.04-2.79,1.29-3.14,2.8l-1.56,6.74,2.84-.22-3.54,1.2c-.35.12-.79,1.42-.42,1.5l1.68.35c-1.18.33-2.56.73-2.62,2.29l4.87-.94-5.28,1.82c6.93-.33,12.88-4.68,16.03-10.35Z"/>
      <path d="M43.33,25.03c-.57.48-1.2.98-1.69,1.33-.37.26-1.45-.33-1.56-.82l-1.18-5.03c-.07-.28-1.07-.68-1.24-.48-.17.2-.15.88.05,1.12.92,1.13.6,2.97.95,4.12,1.21,3.89,2.93,7.41,5.05,11.12,6.03,10.55,3.72,19.11,4.39,22.52.16.8,1.25-2.85,2.41-3.58l.75,1.57c1.83-4.94-.09-4.45,1.01-7.9l1.37,1.03c.31.89.61,1.68.81,2.09l.08-5.28c.01-.9.04-1.56.18-2.56l2.29,1.84c-.33-3.69-2.1-6.76-4.41-9.47-3.24-3.82-6.42-7.67-9.25-11.64ZM50.62,49.25c-.52-.58-.74-1.3-.66-1.99l-.81-5.28,1.68,2.37c.96,1.36,1.08,3.22-.21,4.9Z"/>
      <path d="M.04,47.1c.06.78,1.09,1.93,1.07,3.08l1.41-4.05c.9,2.89.35,6.64,1.68,8.91.32-1.66.62-2.3,1.6-2.99l2.37,5.02c.08.16.45.58.52.64.08.07.16.02.19-.06l.3-.74c.69.77,1.45,1.59,2.46,2.31-1.69-5.79-3.41-10.93-3.61-16.82-.17-5.16,1.47-10.02,1.85-15.11l.25-3.28c.11-1.5.46-2.62.63-4.19l-1.43.68v4.42c0,.81-1.21,1.49-1.93,1.25-.49-.16-.82-1.01-1.05-1.89C4.68,30.91-.48,40.16.04,47.1ZM6.08,47.19l1.09,3.29c-1.83-.09-2.05-1.96-1.09-3.29Z"/>
      <path d="M24.34,8.44c.72-.5,1.1-1.57,1.03-2.11-.07-.51-.89-1.37-1.41-1.47-1.56-.28-2.27,1.29-1.95,2.38.2.69,1.38,1.86,2.34,1.2Z"/>
      <path d="M40.73,22.65c-.93.51-.61,2.75.23,2.75,1.1,0,1.69-.75,1.55-1.34-.26-1.06-.81-1.94-1.78-1.4Z"/>
      <path d="M5.3,21.88l-2.18,2.54c.67.16.77.08.86.27l.54,1.15,1.78-5.06c-.8-.23-.7.76-1,1.1Z"/>
      <path d="M36.41,20.8c-.38,1.45-.37,2.49-.15,4.08l1.15-1.2.54,1c.17-1.62-.2-2.82-1.54-3.88Z"/>
      <path d="M8.46,25.85c.34-1.7.42-2.59-.08-4.19l-1.61,3.32,1.69.87Z"/>
      <path d="M45.24,22.75c-.55-.48-1.4-.73-2.36-.56,1.06,1.51,1.67,2.26,2.75,3.35.36-1.21.29-2.21-.39-2.8Z"/>
      <path d="M32.18,22.91l.56-1.82.6,1.73c.8-1.33.67-2.92-1.07-3.4l-.09,3.5Z"/>
      <path d="M30.02,20.12c-.13-1.18-.3-2.2-.59-3.51-1.64,1.31-.88,2.78.59,3.51Z"/>
      <path d="M15.15,21.33l.48,1.48c.29-1.37.19-2.31-.67-3.26-.57,1.14-.82,2.15-.37,3.31l.57-1.53Z"/>
      <path d="M18.32,20.26c.65-.74.82-2.29.25-3.05-1.24.66-1.18,2.28-.25,3.05Z"/>
      <path d="M26.17,16.26l1.05.65-.74-3.36c-.73,1.33-.98,2.23-1.13,3.24.57-.43.68-.62.81-.53Z"/>
      <path d="M21.33,16.18l.79.69-.83-3.42-.7,3.19c.48.67.62.81.74-.45Z"/>
      <rect x="10.63" y="22.31" width="2.29" height=".77" transform="translate(-11.93 32.28) rotate(-84.6)"/>
    </g>
  </g>
</svg>