<?xml version="1.0" encoding="UTF-8"?>
<svg id="Warstwa_2" data-name="Warstwa 2" xmlns="http://www.w3.org/2000/svg" viewBox="0 0 50.84 48.85">
  <g id="icon-v9-equipment-pixarts-store">
    <g id="icon-v9-equipment-pixarts-store_392">
      <path d="M33.01,23.98c.43,1.2.53,2.15.29,3.2-.61-1.76-1.7-2.7-3.3-3.24-.32-1.3-.78-2.81-1.28-4l1.77.96,4.13-3.64c-4.69-3.09-10.25-.61-12.47,4.34l-1.81-2.51c-2.34-3.24-6.67-4.02-10.16-2.33-3.32,1.6-5.08,5.09-4.54,9.03.56,4.11,2.79,7.6,5.87,10.4l3.16-2.61-.77-3.04c1.47,1.65,2.91,2.52,4.89,2.9,0,1.51.15,2.65.48,4.51l-1.63-1.7-3.12,2.74c3.21,3,5.67,6.11,7.64,9.85,1.51-3.24,3.43-5.71,5.8-8.03l6.41-6.27c3.36-3.89,5.76-9.67,3.15-14.54l-4.51,3.97Z"/>
      <path d="M17.7,34.89c-.22-.82-1.58-1.28-2.14-.8l-8.32,7.11-.81-4.3L0,48.8l12.93-4.57-4.47-1.46,9.24-7.87Z"/>
      <rect x="28.63" y="15.43" width="20.16" height="2.03" transform="translate(-1.44 28.97) rotate(-40.34)"/>
      <polygon points="37.68 15.08 44.94 9.09 45.21 5.3 38.17 11.13 37.68 15.08"/>
      <path d="M40.23,17.44c.91.3,3,.74,3.72.13l6.89-5.83-3.99-.13-6.63,5.83Z"/>
      <path d="M10.84,1.93c-.38-1.55-1.85-2.27-3.28-1.72-1.4.54-1.48,2.06-1.01,3.55.38,1.21.6,2.72,2.19,2.6l-1.38-3.62c-.19-.5.47-1.61.99-1.66.61-.06,1.31.47,1.5,1.14l.96,3.4c1.06-1.11.35-2.42.03-3.69Z"/>
      <path d="M35.63,6.41c1.52-.29,1.7-1.68,2.06-2.89.45-1.51.06-3-1.33-3.4-1.54-.45-2.77.51-3.07,2.09-.24,1.24-.94,2.4.2,3.63l.8-3.35c.17-.7.76-1.38,1.44-1.41.45-.02,1.34.89,1.19,1.33l-1.29,4.01Z"/>
      <path d="M33.42,9.63c.18-.07.84-.46.91-.68l1.16-3.8c.06-.21-.21-1.08-.39-.96-.14.09-.66.43-.72.61l-1.28,3.92c-.08.26.1,1,.34.91Z"/>
      <path d="M11.07,8.49l-1.17-3.8c-.07-.22-.83-.63-.88-.44-.05.19-.23.83-.17,1.01l1.15,3.84c.07.23.84.56.92.35.06-.16.22-.74.15-.96Z"/>
      <path d="M10.83,13.34l-1.79-5.27c-1.14,1.92-.22,4.9,1.79,5.27Z"/>
      <path d="M13.15,12.59c.98-2.14.07-4.37-1.82-5.14.52,1.8,1.09,3.48,1.82,5.14Z"/>
      <path d="M32.94,7.39c-1.88.97-3.03,3.4-1.68,5.32l1.68-5.32Z"/>
      <path d="M35.11,8l-1.65,5.44c2.13-1.12,2.98-3.58,1.65-5.44Z"/>
      <path d="M11.18,11.33c-.36,1.08.71,3.01,1.55,3.83,1.3-.72-1.18-4.96-1.55-3.83Z"/>
      <path d="M32.51,11.3c-.54.93-1.97,2.55-.85,3.88.54.38,2.98-7.52.85-3.88Z"/>
      <path d="M30.52,13.99c.12-.09.4-.4.49-.5.09-.1-.49-.43-.62-.42-.82.09-2.49,1.1-1.91,2.41l2.04-1.49Z"/>
      <path d="M15.9,15.42c-.19-1.5-1.26-2.74-2.82-2.09.8.84,1.76,1.59,2.82,2.09Z"/>
    </g>
  </g>
</svg>