<?xml version="1.0" encoding="UTF-8"?>
<svg id="Warstwa_2" data-name="Warstwa 2" xmlns="http://www.w3.org/2000/svg" viewBox="0 0 49.74 55.19">
  <g id="icon-v9-equipment-pixarts-store">
    <g id="icon-v9-equipment-pixarts-store_294">
      <path d="M14.74,19.74c-.76,0-1.37.61-1.37,1.37s.61,1.37,1.37,1.37,1.37-.61,1.37-1.37-.61-1.37-1.37-1.37Z"/>
      <path d="M30.92,32.76c.49-.24,1.25-1.2,1.12-1.73-.12-.47-1.21-1.14-1.68-1.04-.7.15-1.47,1.21-1.25,1.76.25.61,1.25,1.28,1.81,1.01Z"/>
      <path d="M19.95,8.46c-.63.38-.76,1.72-.3,2.19.32.34,1.26.39,1.61.08.35-.31.65-1.32.52-1.77-.13-.45-1.39-.77-1.83-.5Z"/>
      <path d="M40.75,22.99c.8,0,1.45-.65,1.45-1.45s-.65-1.45-1.45-1.45-1.45.65-1.45,1.45.65,1.45,1.45,1.45Z"/>
      <path d="M21.15,41.71c.77,0,1.39-.62,1.39-1.39s-.62-1.39-1.39-1.39-1.39.62-1.39,1.39.62,1.39,1.39,1.39Z"/>
      <path d="M37.13,27.98c.15-3.18-.61-5.92-1.89-8.62l1.89,8.62Z"/>
      <circle cx="9.31" cy="33.05" r="1.34"/>
      <path d="M37.71,6.14c-3.21-3.53-14.72-1.03-18.78,1.36-1.62,2.27-3.23,4.43-4.1,7.55,4.12-1.67,7.84-2.98,12.08-3.1-4.07-.78-7.58.94-11.29,2.25,1.21-2.22,2.11-4.76,3.88-6.15,2.96-2.32,13.64-4.1,16.61-2.1,3.52,2.36,9.23,12.05,7.55,15.95-1.13,2.62-3.78,4.23-5.44,6.44,1.71-.85,6.73-5.54,6.45-7.67-.71-5.61-3.28-10.49-6.96-14.54Z"/>
      <path d="M41.11,1.63c-.82-.93-2.1-1.5-3.29-1.57-5.42-.31-10.59.53-15.53,2.68-1.03.45-1.98,1.28-2.45,2.18,2.8-.97,5.33-1.99,8.12-2.02-11.48,3.21-9.71,3.89-15.06,12.35-.31.48.03,2.46.53,2.21,4.47-2.17,8.54-3.68,13.39-3.37,1.7.11,2.99.86,4.03,2.26,6.06,8.21,2.72,15.37,5.88,14.95,2.36-.31,8.11-6.7,9.19-9.25,1.33-3.13-1.08-6.38-1.13-9.6,1.83,3.55,2.81,7.53,2.01,12.11,2.54-1.47,3.35-3.86,2.73-6.55-1.39-6.09-4.29-11.69-8.44-16.38ZM37.13,27.98l-1.89-8.62c1.28,2.7,2.04,5.44,1.89,8.62ZM38.21,28.36c1.66-2.21,4.31-3.82,5.44-6.44,1.68-3.9-4.03-13.59-7.55-15.95-2.98-2-13.65-.23-16.61,2.1-1.77,1.39-2.66,3.93-3.88,6.15,3.71-1.32,7.22-3.03,11.29-2.25-4.24.12-7.96,1.44-12.08,3.1.88-3.12,2.48-5.28,4.1-7.55,4.06-2.39,15.58-4.89,18.78-1.36,3.68,4.05,6.25,8.94,6.96,14.54.27,2.13-4.74,6.82-6.45,7.67ZM39.3,21.54c0-.8.65-1.45,1.45-1.45s1.45.65,1.45,1.45-.65,1.45-1.45,1.45-1.45-.65-1.45-1.45ZM21.26,10.74c-.35.31-1.29.26-1.61-.08-.45-.48-.33-1.81.3-2.19.44-.27,1.69.05,1.83.5.14.45-.17,1.46-.52,1.77Z"/>
      <path d="M12.7,18.16c-1.38,1.07-7.81,11.99-4.05,10.94,3.39-.95,8-3.57,11.47-1.55,3.81,2.21,4.43,7.9,4.97,11.9.11.81,1.05,1.33,1.58,1.29,2.29-.19,8.42-7.55,8.52-8.67.24-2.74-7.88,9.67-8.57,4.46-.42-3.19-1.44-5.88-2.71-8.89,2.41,2.65,2.6,6.2,3.48,9.66,1.13.9,5.53-4.65,6.52-5.64.36-5.08-1.33-12.56-5.6-15.82-5.08-.89-10.56.27-14.69,3.44-1.62,2-2.58,4.5-3.78,7l4.61-1.33c1.44-.41,3.12-.6,4.65-.51-3.15.63-6.02,1.35-9.28,2.41-1.47-1.02,4.17-8.19,2.87-8.68ZM30.36,29.99c.47-.1,1.56.57,1.68,1.04.13.53-.63,1.49-1.12,1.73-.56.27-1.55-.4-1.81-1.01-.23-.55.54-1.6,1.25-1.76ZM14.74,22.49c-.76,0-1.37-.61-1.37-1.37s.61-1.37,1.37-1.37,1.37.61,1.37,1.37-.61,1.37-1.37,1.37Z"/>
      <path d="M15.74,42.15l3.83,3.56c5.12.45,7.72-5.46,5.55-4.28-1.85,1-3.07,3.38-5.27,3.36,1.58-1.13,3.1-2.35,4.33-3.66l-.31-2.69c-.43-3.69-1.55-7.14-4.17-9.92-4-.52-8.2.3-11.51,2.63l-.6-1c-1.42,2.21-2.31,4.23-2.56,6.75,4.28.68,7.68,2.44,10.71,5.26ZM21.15,38.94c.77,0,1.39.62,1.39,1.39s-.62,1.39-1.39,1.39-1.39-.62-1.39-1.39.62-1.39,1.39-1.39ZM9.31,31.71c.74,0,1.34.6,1.34,1.34s-.6,1.34-1.34,1.34-1.34-.6-1.34-1.34.6-1.34,1.34-1.34Z"/>
      <path d="M5.4,48.38c.06-1.98-5.1-3.58-3.69-6.28.33-.64,2.13-.59,2.92-.34,4.33,1.34,8.09,3.74,11.04,7.15.86,1,1.93,2.65,1.8,3.92-.25,2.5-4.61-.94-5.09.74,1.8,1.04,5.77,2.35,6.48,1.13,1.55-2.65-3.78-8.16-5.19-9.58,3.68,2.63,5.15,4.64,6.51,8.57,1.1-1.08,2.41-2.19,3.22-3.63.5-.88-.7-3.09-1.36-3.64l-3.2.08c-4.94-4.85-7.25-7.12-14.26-8.82-.63-.69-.32-2.21-.09-3.54-.12-.05-1.09.65-1.3,1.02l-2.62,4.84c1.36-.09,2.54-.11,3.73.06-1.57.34-3.34.23-4.32,1.16-.05,3.34,2.47,5.83,5.4,7.17Z"/>
      <path d="M29.03,47.6c-.07-2.11-.25-4.27-1.07-6.08l-4.45,4.67c.83,1.87,1.34,3.86,1.01,5.95,2.32-1.04,3.42-2.72,4.5-4.55Z"/>
      <path d="M40.1,31.21l-.49-.03-2.99,1.43-7.45,8.21c.02.76.29,1.85.93,2.45l9.9-11c.12-.13.25-1.05.11-1.06Z"/>
      <path d="M39.85,33.93c1.96,1.13,5.74-3.6,6.32-4.64.7-1.25.09-3.34-.35-4.82l-4.05,4.54c.38,1.45.75,3.08.12,4.27-.33-1.43.36-2.9-.79-3.51l.02,2.73c0,.47-.83.91-1.27,1.43Z"/>
      <path d="M4.57,33.89c1.01-1.62,1.73-3.05,2.32-4.85-1.54,1.28-2.88,2.83-2.32,4.85Z"/>
    </g>
  </g>
</svg>