<?xml version="1.0" encoding="UTF-8"?>
<svg id="Warstwa_2" data-name="Warstwa 2" xmlns="http://www.w3.org/2000/svg" viewBox="0 0 58.66 57.71">
  <g id="icon-v9-equipment-pixarts-store">
    <g id="icon-v9-equipment-pixarts-store_330">
      <path d="M24.98,21.32c-.22,1.99,1.04,3.54,3.01,4.25.83-1.83-1.43-1.31-3.01-4.25Z"/>
      <path d="M30.59,25.69c1.02-.53,2.96-1.89,2.69-3.44l-3.42,2.39c-.18.02.42,1.21.73,1.04Z"/>
      <path d="M49.03,15.6c.29-5.01,2.5-6.42,6.35-9.62-6.04.43-10.1,3.45-15.23,6.7l1.25-3.78c1.16-3.5,3.78-6.09,7.59-6.74-3.85,2.91-5.98,2.37-6.92,8.04l9.07-4.07c-.69-.4-1.44-.8-1.64-1.22-.17-.36.07-1.33.25-1.74.98-2.13,3.26-2.45,5.25-3.14-3.54-.33-9.35,2.31-11.97,4.27-1.83,1.37-2.18,4.2-3.29,6.08-.98,1.67-1.75,3.14-2.04,4.98,2.94,1.13,3.75,3.61,4.07,6.56.54-2.45,0-5.03-2.27-6.67,2.55-1.57,7.4-.16,9.3,1.38-2.59-.93-4.85-1.71-7.44-1.13,1.12,2.33,1.39,4.45.64,6.99l2.29-2.91c1.33-1.69,3.16-2.23,5.36-2.42-.81-2.69-6.75-3.36-9.7-3.24,2.96-2.51,6.04-4.82,9.76-5.91l-7.6,5.01c2.67.56,4.54,1.15,6.91,2.58Z"/>
      <path d="M37.37,5.61c-.12-.77-1.24-1.71-2.09-1.87-3.42,3.35-8.87,3.25-12.28-.02-1.6.26-2.45,2.15-2.02,3.81,1.01,3.85,5.16,3.6,7.04,6.91l-3.94-2.78c0,5.73,1.65,3.08,3.04,7.26-2.46-1.22-3.27-2.99-3.82-5.33-1.72,3.84,2.68,6.49.89,7.66l-2.82-1.58c.94,1.56,1.68,2.12,2.89,3.37l-1.57.43,2.03,1.5-.59.58c-.07.07.14.34.23.31l.63-.23c.57-.21,1.72.98,1.57,1.65-.39,1.79.18,3.13,1.85,3.87.24.1.81.66,1.02.52l.93-.63c1.36-.92,1.86-2.26,1.58-3.88-.2-1.13,1.12-1.35,1.55-1.8.42-.44,1.01-1.1,1.68-1.43l.65-.32c.11-.05.07-.48-.05-.45l-.7.16c-2.96.68,2.38-2.65,1.72-3.68l-2.56,1.7c-.2.13-1.22-.22-1.09-.42l.56-.8c1.53-2.18,2.34-4.47,1.36-6.86-.29,2.18-1.14,3.64-2.61,5.01l-.6.56c-.13.12-.61-.22-.57-.39l.26-.97-1.21,1.06-1.22-1.66-1.16,1.46c-.85-.4-2.03-1.46-1.62-2.96.5.47.81.88,1.52,1.84l.86-.95c.35-.39-1.42-1.67-.84-1.77l.71-.11c-1.29-4.27-9.3-4.29-5.84-9.76,3.95,3.02,8.97,2.98,12.79,0,.98.76,1.14,2.34.69,3.39-1.33,3.1-9.11,3.74-5.88,9.43l1.38-2.08,1.08,1.4c1.17-1.76,1.55-3.14,1.78-5.11l-3.06,1.56c1.7-1.99,6.51-2.97,5.82-7.6ZM29.86,24.65l3.42-2.39c.27,1.55-1.67,2.91-2.69,3.44-.31.16-.92-1.03-.73-1.04ZM27.99,25.57c-1.97-.71-3.23-2.27-3.01-4.25,1.58,2.94,3.84,2.42,3.01,4.25Z"/>
      <path d="M8.39,17.29c3.47-.18,5.7,1.58,7.39,4.65-.05-2.38.28-4.1,1.15-6.46-1.89-.16-3.68.02-5.67.24,2.24-1.04,4.82-1.64,7.28-.66-1.89,1.85-2.88,4.13-2.08,6.77.16-2.24,1.08-4.58,2.78-6.13l1.33.35c-.03-5.21-2.1-3.32-3.18-8.33-.48-2.22-1.57-3.42-3.45-4.43C10.61,1.49,7.25,0,3.52.08c1.76.69,3.54,1,4.48,2.42.34.52.77,1.62.62,2.09-.15.47-.83,1.01-1.52,1.62,3.97.97,5.44,2.25,9.31,4.21-.32-1.76-.76-4.18-2.49-5.27l-4.7-2.96c6.28,1.31,7.17,4.85,9.19,10.51-5.75-3.83-8.46-5.67-15.57-6.75,3.82,2.81,6.2,4.5,6.42,9.86,2.12-1.46,4.33-2.24,7.19-2.69-2.52-1.94-5.19-3.48-7.85-4.97,3.87,1.07,6.99,3.08,9.89,5.68-3.27.26-8.06.3-10.11,3.47Z"/>
      <path d="M37.77,17.32c-.78.37-1.61,1.17-1.98,1.84l2.48-1.09-1.59,4.09c.22.62.27,1.43-.46,2.07-.46.41-.69,1.37-.98,1.76l-1.57,2.11,3.66,1.88c3.13,1.61,3.66,3.15,4.02,2.92l.94-.59c.09-.06.68.27.58.23l-1.06.93,2.06,2.11,1.59-5.01-2.71-4.54c-1.89,1.23-2.82,3.73-5.32,3.79.95-1.06,6.9-5.34,6.22-7.21l-2.57,1.72c.18-2.93-.48-5.91-3.32-7.01Z"/>
      <path d="M35.77,32.39c-.15-.88-.33-1.84-.75-2.27-.34-.35-1.73-.74-1.96-.29l-1.41,2.81-2.34,2.24c-2.03-1.25-3.08-3.15-4.03-5.23-.49-.17-1.98.13-2.16.63l-.76,2.09-.28-1.14c-.04-.16-.01-.11-.75.13,0,4.99,4.09,2.51,7.91,8.55,3.02-4.97,6.22-4.24,7.22-6.1.52-.96.85-1.96-.12-2.92l-.59,1.5Z"/>
      <path d="M36.66,34.97l-1.66,2.32-.03-1.32c-2.69.99-4.23,3-5.73,5.3-1.45-2.32-3.23-4.08-5.67-5.42l-.45,1-1.46-1.66-.72,1.45,2.03,3.75c2.88.79,4.73,2.57,6.24,5.06,1.45-2.42,3.15-4.05,5.76-5,.82-.85,3.34-4.08,1.68-5.47Z"/>
      <path d="M15.82,25.04l4.93,4.69c-1.08.05-1.94-.53-2.68-1.25l-2.4-2.36-2.03,3.26.59,1.22-1.41-.74,1.68,5.83c4.69-5.17,4.89-4.8,10.32-7.78l-2.04-2.17c.67-1.26-2.09-2.43-1.42-2.93l.68-.51c-.87-1.27-1.5-2.58-1.85-4.13l2.52,1.04c-.17-.78-1.66-2.06-2.37-1.77-2.85,1.2-3.25,3.95-2.99,6.91l-2.65-1.98c-.14,1.04.37,1.95,1.13,2.67Z"/>
      <path d="M36.75,40.03l-2.1,2.43-.42-.88c-2.03,1.19-3.54,2.96-4.96,5.1-.59-1.32-4.83-5.7-5.25-4.8l-.27.56-2.13-2.31c.67,8.05,3.98,3.82,7.48,10.09,3.82-5.65,7.1-3,7.65-10.2Z"/>
      <path d="M36.17,46.08l-.89,2.15c-.07.17-.05.83.1.87l.53.16-2.07,1.77-4.64,4.12c-1.36-1.39-2.99-2.78-4.6-3.99-.37-.28-1.07-1.09-1.57-1.52-.28-.24-1.36.57-1.32.94.03.38.31,1.22.63,1.49l6.78,5.63,6.9-5.61c1.45-1.18,1.04-4.32.16-6.02Z"/>
      <path d="M29.31,51.46c-1.21-1.5-2.53-2.98-3.88-4.21-.95.27-1.34.03-2.01-.66.41,4.3,2.9,4.26,5.75,7.5l4.35-3.81c.88-.77,1.32-2.69,1.41-3.5l-1.97.8c-1.52.61-2.71,2.51-3.63,3.88Z"/>
      <path d="M18.64,48.07l-3.29-3.04-2.44,4.35c1.5.62,3.17,1.1,4.29,2.04l3.01,2.52c.25-.91.69-2.39.58-3.12l-.68-2c-.25-.04-1.14-.44-1.47-.74Z"/>
      <path d="M38.16,48.68c-.49,1.65-.57,3.63-.09,5.31,2.51-2.24,4.44-3.67,7.12-4.63l-2.27-4.3-3,2.95c-.56.55-.82.77-1.75.68Z"/>
      <path d="M45.59,19.77c.95.65,2.24,1.45,3.11,1.65,3.48-.14,5.47.46,8.44,1.8l-3.18-5.36c-2.98.48-5.32.93-8.38,1.91Z"/>
      <path d="M8.39,16.14c.15-1.66-.33-3.05-1.07-4.32l-.46-.78c-.11-.19-.8.31-.99.5L0,17.57c1.09-.09,2.01-.26,3.1-.51,2.47-.58,5.12.93,5.29-.92Z"/>
      <path d="M50.29,17.04c1.1.1,2.56-.23,3.61-.05l4.76.79-6.81-6.8c-1.72,1.32-2.49,3.8-1.57,6.07Z"/>
      <path d="M1.23,23.09c1.52-.36,2.94-1.29,4.4-1.44,2.67-.28,5.09-.26,7.08-1.87l-3.84-1.14-4.38-.76-3.26,5.21Z"/>
      <path d="M21.1,43.37l-1.02.97c-1.17-1.29-2.22-2.27-3.73-3.11l-1.29,2.82c1.93.99,3.12,2.14,4.58,3.95,1.37-1,2.42-2.84,1.46-4.63Z"/>
      <path d="M38.95,47.64c1.5-1.41,2.83-2.64,4.35-3.52l-1.36-3.05c-1.5.71-3.23,3.47-3.62,3.19l-1.02-.7c-.92,1.18.04,4.23,1.65,4.08Z"/>
      <path d="M53.55,22.94c-.65-.56-2.59-.52-3.45-.49l-3.19.12c.51,2.09,2.49,2.65,4.71,2.65l4.03,1.67c-.53-1.44-1.09-3.09-2.1-3.96Z"/>
      <path d="M4.82,23.01c-1.2.58-1.6,2.98-2.09,3.89,4.58-2.84,7.68-.81,9.32-5.26l-2.81,1.95,1.01-1.26c-1.7.18-3.64-.2-5.44.68Z"/>
      <path d="M15.46,40.01c.84.04,1.56.19,1.93.55l2.64,2.63c.84-1.75.96-3.21.43-4.63-.3.5-.68,1.09-.82.94l-.45-.49c-1.17-1.27-1.89-2.06-3.37-3.45l-.35,4.44Z"/>
      <path d="M38.49,43.16l2.92-2.96c.21-.22,1.37-.18,1.47-.14l-.26-4.43c-1.64,1.37-2.46,2.27-4.04,3.91l-.75-1.2c-.4,1.59-.49,3.75.67,4.83Z"/>
      <path d="M22.43,17.94l-.52-2.97,1.62-3.59-2.13-1.4-1.47-3.23-1.84.43,1.19,2.03c2.91,4.97,1.26,6.67,3.15,8.74Z"/>
      <path d="M40.03,7.34l-1.74-.74c-.37,2.31-1.76,3.56-3.41,4.81,1.32,1.58,1.53,3.71,1.61,5.89l1.47-5.93-1.59.81c1.78-2.04,2.41-.26,3.65-4.85Z"/>
      <path d="M20.75,34.38c.21-.62-.66-2.29-1.18-1.98-1.19.69-2.01,1.59-2.93,2.53l2.8,3.36,1.31-3.91Z"/>
      <path d="M38.86,38.17l2.94-3.46-3.36-2.49c-.73.79-.86,1.85-.59,2.72l1.02,3.23Z"/>
      <path d="M54.48,30.19c-.09-1.05-.57-2.68-1.33-3.25-1.12-.85-2.76-1.01-3.83-.86l1.04,1.53-3-2.65c.19,3.45,3.39,2.2,7.11,5.23Z"/>
      <path d="M5.07,26.99c-.8.58-1.14,2.24-1.16,3.29,3.76-3.14,6.53-1.59,7.01-5.41l-2.22,1.88c-.27-1.63-2.64-.4-3.64.24Z"/>
      <path d="M23.14,48.74l-1.02-2.65c-.72,1.17-.86,2.21-.7,3.62l1.71-.96Z"/>
      <path d="M12.38,29.31c1.89-.81,2.92-2.71,2.02-4.53l-2.02,4.53Z"/>
      <path d="M45.95,29.17l-2.14-4.29c-.74,1.8.43,3.7,2.14,4.29Z"/>
      <path d="M31.32,31.12c-.93.61-1.88,1.45-2.34,1.14l-1.84-1.23c.14.8,1.24,1.94,2.14,1.94.92,0,2.14-1.25,2.04-1.85Z"/>
    </g>
  </g>
</svg>