<?xml version="1.0" encoding="UTF-8"?>
<svg id="Warstwa_2" data-name="Warstwa 2" xmlns="http://www.w3.org/2000/svg" viewBox="0 0 49.31 61.38">
  <g id="icon-v9-equipment-pixarts-store">
    <g id="icon-v9-equipment-pixarts-store_304">
      <path d="M42.87,30.76c-1.52,4.75-4.35,8.6-7.83,12.51,4.19-2.88,7.08-7.21,7.83-12.51Z"/>
      <path d="M17.1,24.04c-.31-.49-2.37-.66-2.52-.17l-1.29,4.22c.55,1.17,3.08,2.69,4.37,2.42,1.66-.35,2.96-1.2,4.11-2.25l-1.94.12-2.73-4.34Z"/>
      <path d="M28.51,36.27c2.6.59,4.24-3.12,3.82-4.02-1.36-2.93-5.89-1.95-8.54-1.71l-1.39-1.96c-.33,3.41,2.27,6.82,6.11,7.69Z"/>
      <path d="M17.1,35.79c.81-.42,1.62-.99,1.74-.63.09.29.66,1.4.95,1.57.73.43,1.67-1.45,1.53-2.18l-.63-3.29c-2.83.24-3.88,2.38-3.59,4.53Z"/>
      <path d="M25.72,14l-5.79,2.29c-1.67.66-3.05,2.69-3.76,4.09l1.41-.56c.23-.09.26.44.17.65-.46,1.07-4.08.78-4.39,2.49-1.23,6.78-2.54,2.18-3.09,5.96-.11.73.5,2.5,1.32,2.57,1.29.1,2.3.3,2.75,1.08,1.45,2.52-2.68,2.26-2.08,5.78l1.19-2.05c.59.7.77.82.64,1l-.62.87c-.18.25-.36.93-.42,1.23-.04.2.86.41.94.23l.5-1.22c.56-.58,1.22-.75.83.14-.82.85-1.55,1.78-.34,2.79l1.27-1.93c.22-.33.37-.72.55-.62.18.1.68.3.58.46l-.53.82c-.28.43-.63,1.03-.81,1.36-.14.25,1.08,1.37,1.21,1.13l1.2-2.15c.12-.22.59-.78.79-.58.14.14.64.49.53.62l-.57.72-.8.99c-.16.2.54,1.18.7.99l1.84-2.13c.23-.26,1.25.02,1.08.2l-.59.6c-.2.2-.52.73-.65.97-.13.24.76.84.97.66.21-.18.7-.7.78-.97l.37-1.15c.06-.2.77.1.68.29l-.49,1.12c-.05.12.11.39.2.3.09-.08.41-.46.46-.58l1.64-4.2h-1.25c-.19,0,.24-.35.39-.46.1-.07.79-.09.89-.01l4.31,3.2c1.64.41,3.7-.97,4.79-2.1-4.52-3.71,2.03-4.41-.66-8.42.15-.8,1.12-2.24,1.71-2.84-2.15,5.26,1.55,3.9-.71,6.83-.6.77-.75,2.07.09,2.67,5.17-1.55,7.11-7.2,5.85-11.97-1.93-.32-3.43-.91-4.03-2.46-.43-1.12-.3-2.17.49-3.56l-2.29-1.84c-.91,2.29-2.01,2.59-3.96,2.84-2.08.27-3.91-.21-4.55-2.27,0,.04,0,.07,0,.11-.81-.96-.82-2.21-.72-3.96ZM23.79,30.54c2.65-.24,7.18-1.22,8.54,1.71.42.9-1.22,4.61-3.82,4.02-3.83-.87-6.44-4.28-6.11-7.69l1.39,1.96ZM20.69,31.26l.63,3.29c.14.73-.8,2.61-1.53,2.18-.29-.17-.86-1.28-.95-1.57-.11-.36-.93.2-1.74.63-.29-2.16.76-4.3,3.59-4.53ZM21.76,28.25c-1.15,1.05-2.45,1.9-4.11,2.25-1.29.27-3.82-1.25-4.37-2.42l1.29-4.22c.15-.49,2.21-.32,2.52.17l2.73,4.34,1.94-.12Z"/>
      <path d="M31.87,10.97l-2.98,8.15c2.71.73,4.85-.62,5.37-2.8L38.16,0c-3.1,3.42-11.87,13.58-11.72,17.82l1.75.1,3.67-6.96Z"/>
      <path d="M26.43,17.82s0,.02.01.03c0,0,0-.02,0-.03h0Z"/>
      <path d="M32.38,43.84l1.13.59c.54.28,1.21.87,1.58.78.28-.07.75-.38,1.19-.66,6.84-4.43,10.01-12.89,6.83-20.75-2.87.95.44,1.11-1.17,6.93-.79,2.86-2.08,5.07-4.64,6.84-2.14,1.48-.19,4.39-8.58,4.72-4.33-4.89-1.29,2.42-7.07,1.92-3.97-.35-8.37-1.77-10.1-5.72-.62-1.43.69-3.59,1.4-5l-2.2-1.13c-1.03-.53-1.66-2.66-1.53-3.79.39-3.46,2.74-.72,3.24-6.46,1.9-1.57,3.85-3.62,5.36-5.63l.85-1.13c.2-.26-.91-1.14-1.22-1-2.49,1.08-.53,2.96-2.57,4.22-.65.4-2.14.28-3.33.18-3.02,2.93-5.54,7.57-5.37,11.98,1.06.78,2.32,1.36,2.46,2.11.64,3.33-3.19,2.82-1.11,6.23-2.74.84-6.16,5.1-7.53,7.97l8.04-4.31c.4-.21.63-1.73.23-1.77l-1.49-.14c.43-.57,1.07-1.16,1.93-1.54,1.27,2.77-1,4.15,1.04,6.08,1.2,1.14,4.01-2.72,6.04.51.56.9.87,2.64,1.23,3.94,5.84,1.84,4.44-1.4,7.08-2.27,1.58-.52,3.83,1.89,4.96,1.13,1.6-1.07-.4-2.9,2.29-3.86-1.83,1.85.56,3.36,2.75,5.87.32-1.92.46-6.18-2.17-5.85-.25.03.21-1.09.45-.97ZM42.87,30.76c-.75,5.3-3.64,9.62-7.83,12.51,3.48-3.9,6.3-7.76,7.83-12.51Z"/>
      <path d="M14.54,46.05l-4,7.11,3.06-7.39c-3.64-1.53-6.27,12.81-6.62,15.62l9.02-10.75c-.03-1.44-.61-3.3-1.45-4.58Z"/>
      <path d="M37.29,21.97l1.1,1.6,1.34.73c.71.38,8.31-6.26,9.58-7.63-2.3.5-13.61,2.99-12.02,5.3Z"/>
      <path d="M19.28,2.6c-.38,1.71-1.37,12.01.29,12.65,1.33-.26,2.81-.75,3.79-1.41-1.14-4.04-2.16-7.48-4.08-11.25Z"/>
      <path d="M22.6,50.32l1.83,8.85c1.28-2.99,1.99-6.3,2.38-9.34.06-.49-1.31-1.82-1.63-1.48-.26.28-.43.69-1.05,2.26-.09-1.22-.07-.96-.15-1.28-.09-.35-1.45.64-1.38,1Z"/>
      <path d="M11.66,16.67c.26.82,1.92,1.67,2.68,1.35.6-.25,1.21-1.91.58-2.44l-4.94-4.21,1.67,5.3Z"/>
      <path d="M8.07,33.65c-.04-.47-1.2-1.66-1.75-1.51-1.65.45-4,1.5-5.46,2.43l6.33.83c.62.08.92-1.27.88-1.75Z"/>
      <path d="M35.44,14.97c.3,2.32,2.14,4.42,4.47,3.5-1.08-1.58-2.63-3.03-4.47-3.5Z"/>
      <path d="M23.95,12.51c.64,1.04,3.01.94,3.36-.43-.7-.69-3.23-.39-3.36.43Z"/>
    </g>
  </g>
</svg>