<?xml version="1.0" encoding="UTF-8"?>
<svg id="Warstwa_2" data-name="Warstwa 2" xmlns="http://www.w3.org/2000/svg" viewBox="0 0 31.02 51.61">
  <g id="icon-v9-equipment-pixarts-store">
    <g id="icon-v9-equipment-pixarts-store_191">
      <path d="M3.16,38.41l-2.77,4.85c.17,2.39.97,4.67,1.78,6.8,1.37-3.02,3.83-3.65,3.55-6.36l-.41-4.06c.82,1.56,1.15,2.75,1.68,4.33,1.51-2.27.1-4.61.51-6.3l.9,3.29c1.28-2.39.05-4.43.11-6.93l1.29,3.38c1.72-2.87.64-5.52.39-8.67l1.65,3.42c1.19-2.5.66-4.84.56-7.65l1.16,2.79c.92-2.89.48-5.66-.82-8.17-3.58,5.68-5.69,11.64-7.85,17.63,1.02-6.28,3.72-12.21,6.83-17.59,1.61-2.77-6.36,1.21-6.8,3.05l2.86-.2c-2.02,1.53-4.24,2.17-5.01,4.88l3.06-1.02c-4.09,3.3-4.58,3.93-5.32,9.37,1.12-.69,1.72-1.13,2.71-1.39l-2.84,3.05c-.45,1.41-.41,3.25-.31,4.67l3.09-3.18Z"/>
      <path d="M24.95,24.25c-2.15-2.08-1.84-5.61-4.87-7,1.56,3.06,3.48,5.59,4.44,8.62l.78,2.47,1.78,4.81-.53-3.89c1.55,2.24,4.79,3.21,3.35,7.18l-.75-2.1c-.05,2.15.04,3.68-.53,5.4l-.33-2.36c-.43,1.53-.77,2.63-1.38,3.97-1.01-1.48-1.22-2.56-1.58-4.35l-.42,1.31c-3.54-3.29.74-7.29.34-8.74-1.16-4.2-3.21-7.7-5.76-11.36-1.32,2.24-1.28,4.78-.35,6.99l1.21-2.21c-.06,2.25-.28,3.71.19,5.89l1.29-1.65c-.18,1.72-.49,3.14-.35,5.24l2.27-3.95c.03.89-.22,1.97-.6,2.9-2.34,5.75,2.15,7.56,3.58,11.83l1.96-2.65c1.85-2.5,2.9-5.99,1.95-9.06-.47-1.52-2.1-2.2-2.85-3.69l2.8,1.26c-1.74-5.25-.78-4.53-5.39-7.67l2.74.44c-1.65-2.31-3.59-4.24-6.64-4.8,1.27,2.36,2.65,4.65,3.62,7.17Z"/>
      <path d="M14.76,6.78c.12.49.26,1.5.42,1.91l.6,1.5c.07.16.06.79.21.72l.67-.3c.35-.15.28,1.14-.06,1.31-.34.17-1.45.34-1.46-.04l-.04-1.96c-2.18.65.08,2.02-1.37,4.37.16.03.77-.03.96-.19l1.14-.98.08,13.39c0,.31.11.78.17.95.06.17.73-.04.73-.22l-.02-.84-.1-13.2c.61.68,1.16,1.24,1.45.95-1.16-4.02.66-2.05-1.41-4.69.53-4.38-2.47-2.53-2.93-5.89-.15-1.1.56-2.27,1.43-2.52,3.33-.94,2.65,4.22,6.55,3.66-3.41-1.61-2.72-4.1-5.1-4.64-1.05-.24-2.37.05-3.09.84-1.53,1.66-1.04,4.45,1.18,5.86Z"/>
      <path d="M17.66,42.22l-.98,1.35-.19-1.85c-.03-.33-.75-.55-1.23-.66-.64,2.2.26,4.23.98,6.39-1.81-1.67-1.95-3.93-2.44-6.15-2,3.9,3.9,11.75,9.12,10.09-3.52-1.78-5.07-4.96-5.26-9.16Z"/>
      <path d="M17.98,41.03c.03.18.08.82.2.96.19.24,1.2-.28,1.22-.59.16-1.95-1.78-1.89-2.63-2.49l2.08.63c.19-.2.5-1.42.28-1.87-.22-.45-1.21-1.13-1.54-1.26l-.67,1.48c-.11.25-1.11.28-1.22.03l-.8-1.88c-.05-.12-.96.04-1.18.26-.21.22-.23.85-.38,1.17l-.31.68c-.04.08.2.21.29.2l.54-.05c-.89.68-1.6,1.65-1.26,2.88.64-.4,1.52-1.3,2.02-1.28.8.04,3.37,1.37,3.34,1.14Z"/>
      <path d="M16.32,34.48c.84,0,1.52-.68,1.52-1.52s-.68-1.52-1.52-1.52-1.52.68-1.52,1.52.68,1.52,1.52,1.52Z"/>
      <circle cx="16.32" cy="29.52" r="1.51"/>
      <path d="M13.39,16.71c.57,0,1.02-.46,1.02-1.02s-.46-1.02-1.02-1.02-1.02.46-1.02,1.02.46,1.02,1.02,1.02Z"/>
      <path d="M19.56,15.59c.32-.14.28-1.06-.06-1.25-.29-.17-1.05.03-1.28.35-.2.27-.23,1.03-.04,1.27.15.19.69-.08,1.38-.37Z"/>
    </g>
  </g>
</svg>