<?xml version="1.0" encoding="UTF-8"?>
<svg id="Warstwa_2" data-name="Warstwa 2" xmlns="http://www.w3.org/2000/svg" viewBox="0 0 44.02 56.58">
  <g id="icon-v9-equipment-pixarts-store">
    <g id="icon-v9-equipment-pixarts-store_212">
      <path d="M21.21,56.54c4.63.38,8.56-2.03,11.1-5.75,4.48-6.57,4.36-15.64-.23-22.11-2.43-3.43-6.12-5.42-10.01-5.39-3.92.03-7.5,1.89-9.91,5.2-4.71,6.48-4.91,15.4-.47,22.11,2.15,3.24,5.47,5.61,9.51,5.94ZM13.72,30.36c1.72-2.53,4.29-4.36,7.3-4.69,3.63-.4,7.11,1.41,9.25,4.46,4.09,5.84,4.09,14.05-.22,19.86-1.95,2.63-4.65,4.04-7.37,4.19-3.08.17-6-1.06-8.05-3.55-4.71-5.73-5.08-14.13-.9-20.27Z"/>
      <path d="M22.31,21.75c1.59-.43,2.04-5.81,2.07-7.35-1.57-.64-3.12-.59-4.72.04.14,1.54.46,7.9,2.65,7.31Z"/>
      <path d="M11.72,12.17c0-.24-.03-.88-.24-1.11l-4.77-5.04c-.26-.27-.83-.41-1.09-.29-1.87.84,6.06,8.88,6.11,6.44Z"/>
      <path d="M3.33,8.41c.62.8,2,1.11,2.62.56C3.9,6.33,2.29,3.99.69,1.25c-2.25,1.16,1.62,5.85,2.64,7.17Z"/>
      <path d="M8.38,11.55c-.51.36-.59,1.9,0,2.42l3.94,3.43c.88.76,2.61.77,3.15-.18-1.55-.94-2.77-1.72-3.88-2.74l-3.22-2.94Z"/>
      <path d="M35.5,14.11c.7-.65.79-2.13.05-2.49-2.25,2.23-4.3,4.15-7.04,5.64,1.67,2.4,5.26-1.54,6.99-3.15Z"/>
      <path d="M38.45,5.73c-.26-.12-.84,0-1.09.28l-4.71,5.14c-.3.33.2,1.24.5,1.31,1.15.27,4.65-4.27,5.55-5.38.22-.27,0-1.22-.25-1.34Z"/>
      <path d="M43.44,1.16c-1.71,2.86-3.29,5.32-5.36,7.95,1.03.4,2.24-.06,2.86-.95l2.65-3.88c.57-.84.59-2.18-.15-3.12Z"/>
      <path d="M16.15,11.78l-3.16-2.43c-.6-.46-1.51-.57-2.36-.11,2.08,2.19,4.11,3.85,6.58,5.19.19-1.22-.3-2.06-1.06-2.65Z"/>
      <path d="M32.86,10.15l.32-1.07c.59-1.95-8.55,3.97-5.87,5.3l5.55-4.24Z"/>
      <path d="M8.39,4.2L6.19.85C5.69.08,4.54-.18,3.82.41l4.58,6.71c.76-1.11.55-2.06-.01-2.92Z"/>
      <path d="M37.74,1.08l-2.3,3.43c-.45.66-.52,1.72.36,2.54L40.22.4c-1.06-.71-1.92-.16-2.48.67Z"/>
      <path d="M18.26,15.52l-3.04-1.28c-.27-.11-1.11.17-1.09.45.02.21.16,1.05.35,1.14l4.29,2.04c.22-.79.01-2.13-.52-2.35Z"/>
      <path d="M29.79,14.42c-.23-.17-.91-.33-1.19-.18l-3.03,1.59c-.41.21-.47,1.57-.23,2.11l4.13-2.03c.36-.18.61-1.28.32-1.49Z"/>
      <path d="M37.98,41.86l-.06-3.85c0-.51-1.28-1.39-1.55-.99v5.86c.56.33,1.62-.39,1.61-1.02Z"/>
      <path d="M1.14.27l1.19,2.49c.17.36,1.19.45,1.47.17.27-.26.27-1.04.09-1.52C3.38.05,2.41-.32,1.14.27Z"/>
      <path d="M41.6,2.75l1.33-2.35c-.25-.29-1.68-.48-2.03-.13-.52.51-1.2,1.83-.66,2.75.15.27,1.19.05,1.37-.28Z"/>
      <path d="M25.68,23.31c.71-.66-.14-3.01-1.19-3-.79.82-.37,3.3,1.19,3Z"/>
      <path d="M18.64,23.09c1.61.22,1.54-2.61.7-2.69-1.06-.11-1.68,2.56-.7,2.69Z"/>
      <polygon points="13.96 36.39 18.06 40.21 16.36 46.51 22 43.12 27.89 46.66 26.09 40.18 30.32 36.34 24.59 35.78 22.09 29.94 19.51 35.84 13.96 36.39"/>
      <path d="M21.48,28.12c.09-.22.17-1.12-.07-1.12-3.78.08-7.71,4.08-8.61,8.16l5.95-.45,2.72-6.59Z"/>
      <path d="M29.7,47.98c2.29-3.57,2.73-7.3,2.01-11.22l-4.35,3.97,2.34,7.25Z"/>
      <path d="M14.95,48.91c1.76,2.3,3.87,4.07,6.73,3.9-1.24-2.5-2.48-4.13-4.02-5.87l-2.71,1.97Z"/>
      <path d="M22.54,52.91c3.01-.29,5.09-1.74,6.65-4.05l-2.71-1.71c-1.66,2.01-2.9,3.53-3.94,5.76Z"/>
      <path d="M12.26,42.01c.34,2.5,1.05,4.16,2.18,6.17l1.04-3.65-3.22-2.52Z"/>
      <path d="M27.23,28.96c-1.27-1.23-2.72-1.86-4.75-1.84l1.26,3.29,3.5-1.45Z"/>
      <path d="M14.3,38.27l-1.99-1.59c-.22,1.85-.25,2.65-.03,4.62l2.02-3.03Z"/>
      <path d="M31.25,35.07c-.46-1.96-1.38-3.56-2.63-4.95l1.2,4.38c.1.38,1,.73,1.43.57Z"/>
    </g>
  </g>
</svg>