<?xml version="1.0" encoding="UTF-8"?>
<svg id="Warstwa_2" data-name="Warstwa 2" xmlns="http://www.w3.org/2000/svg" viewBox="0 0 40.44 55.96">
  <g id="icon-v9-equipment-pixarts-store">
    <g id="icon-v9-equipment-pixarts-store_215">
      <path d="M31.15,38.25c-2.69-5.23-7.53-7.38-5.95-10.45.23-.45,1.27-.88,1.75-.81.41.05,1.03.97.9,1.23h-1.43c-.27,0-.38.95-.32,1.27.08.44.84,1.16,1.28,1.18s1.33-.28,1.73-.63c.93-.81.96-2.34.4-3.45-.36-.7-1.37-1.5-2.47-1.65-1.13-.15-2.49.51-3.07,1.2-2.09,2.51-.39,5.84,1.56,8.2,1.43,1.74,2.72,3.6,3.12,5.82.46,2.53-.48,4.96-2.13,6.48-1.88,1.73-4.38,2.28-6.81,1.5-2.02-.64-3.16-2.18-3.66-4.49-1.4,3.47.65,6.87,4.14,7.97,4.56,1.44,8.74-.81,10.21-5.26-.07,1.95-.88,3.39-1.32,5.06,4.06-3.38,4.32-8.82,2.08-13.17Z"/>
      <path d="M18.32,43.49c.69,1.58,1.74,2.44,2.96,2.72,1.19.27,2.61-.04,3.61-.82,2.1-1.65,2.51-4.62,1.1-6.93l-3.21-5.27c-1.52-2.49-1.56-5.6-.08-8.01l-2.65-5.26c-1.72,3.58-3.32,6.36-5.57,9.13-1.73,2.12-3.33,4.2-4.73,6.62,2.02-1.01,3.62-2.09,5.74-2.04,2.36.06,4.49,1.3,5.44,3.32,1.24,2.65.17,5.14-2.6,6.55ZM22.31,43.19c.79-.95,1.52-2.42,1.75-3.95.75,1.27,1.41,2.99.35,4.6-.26.4-1.03.84-1.38.79-.41-.06-1.01-1.1-.73-1.44ZM18.67,32.55c-.5.59-1.69.92-2.26.66-.79-.37-1.32-1.63-.92-2.39.62-1.17,1.35-2.07,2.17-2.88l-.87,2.78c-.09.29.3,1.08.57,1.11.35.04.7-.5,1.17-1.35.41.31.57,1.55.13,2.07Z"/>
      <path d="M12.66,53.5c4.78,3.52,11.17,3.3,15.53-.87-3.91,1.41-7.71,1.65-11.02-.52-3.24-2.12-4.78-5.49-4.01-9.56-2.92,1.84-1.22,6.61.03,8.74-3.75-2.99-4.28-8.43-1.39-11.91,2.51-3.02,5.11-1.84,5.29-1.04.06.25-.1.93-.15,1.08-.66-.54-1.13-.94-1.56-.89-.47.06-1.09,1.02-1.03,1.55.09.83.84,1.7,1.47,1.82.58.11,1.67,0,2.19-.29,1.49-.8,1.76-2.36,1.28-3.9-.3-.99-1.5-2.05-2.89-2.31-3.88-.74-7.52,1.93-8.44,5.8-1.13,4.72.85,9.44,4.71,12.29Z"/>
      <path d="M21.36,16.88l1.09-4.79c-1.68-.35-3.13-.36-4.59.3l.92,4.37c-.69.47-1.58,1.19-1.64,1.84-.09,1.01.03,1.96,1.01,2.5l.71-3.2,2.63.13.46,3.18c1.04-.69,1.11-2.01.96-2.88-.1-.59-.92-1.17-1.55-1.46Z"/>
      <path d="M35.65,6.16c.19-.21-.03-1.03-.23-1.18-.2-.14-.86-.11-1.08.12l-4.24,4.37s-1.83,4.8,5.55-3.31Z"/>
      <path d="M.41,3.87l2.64,3.61c.49.67,1.93.85,2.49.39C3.49,5.57,1.98,3.53.64.94-.11,1.58-.22,3.02.41,3.87Z"/>
      <path d="M10.41,10.54c.19-.2.07-.95-.14-1.16l-3.97-4.06c-.21-.21-.85-.42-1.13-.45-.22-.02-.62.74-.48.95.65,1.03,4.59,5.89,5.73,4.71Z"/>
      <path d="M40.19,3.47c.45-.7.25-2-.44-2.6-1.26,2.76-2.8,4.65-4.82,6.99,1.63,1.69,4.44-3.11,5.26-4.39Z"/>
      <path d="M32.74,10.1c-2.21,1.96-4.14,3.44-6.46,4.79.47.63,1.87.84,2.64.25l3.56-2.74c.66-.51.9-2.05.26-2.31Z"/>
      <path d="M8.05,12.51l3.45,2.59c.78.59,2.18.56,2.7-.22-.93-.54-1.79-.88-2.19-1.2l-4.48-3.65c-.35.91-.11,2.01.52,2.48Z"/>
      <path d="M24.99,10.6c-.45.36-.43,1.28-.03,1.81l5.31-3.75c.59-.41,1.08-3.2-5.28,1.94Z"/>
      <path d="M15.2,10.4l-3.49-2.57c-.53-.39-1.34-.48-2.17-.04,1.98,1.89,3.67,3.18,5.94,4.62.44-.76.27-1.6-.29-2.01Z"/>
      <path d="M34.58.93c-.73,1.06-3.28,4.09-1.88,4.77.2.09.72-.32.91-.59l3.3-4.7c-.7-.68-1.77-.28-2.32.52Z"/>
      <path d="M3.48.21l3.99,5.71c.8-.93.44-1.9-.15-2.76l-1.72-2.51C5.18.06,4.3-.21,3.48.21Z"/>
      <path d="M13.27,13.8l4.38,1.86c-.08-1-.23-1.56-.49-2.1l-3.15-1.25c-.33-.13-1.08.04-1.19.34-.09.24.19,1.04.45,1.16Z"/>
      <path d="M27.53,12.67c.06-.2-.67-.63-.86-.55l-3.4,1.43c-.32.74-.48,1.23-.58,2.08l4.52-1.83.32-1.14Z"/>
      <path d="M39.31.21c-.77-.31-1.6-.3-2,.21-.43.53-.74,1.75.32,1.91.68.1,1.33-1.15,1.68-2.12Z"/>
      <path d="M1.18.06c.19.94.7,2.42,1.72,2.36.89-.05.62-1.67.18-2.04C2.7.06,1.79-.02,1.18.06Z"/>
    </g>
  </g>
</svg>