<?xml version="1.0" encoding="UTF-8"?>
<svg id="Warstwa_2" data-name="Warstwa 2" xmlns="http://www.w3.org/2000/svg" viewBox="0 0 57.05 57.57">
  <g id="icon-v9-equipment-pixarts-store">
    <g id="icon-v9-equipment-pixarts-store_101">
      <path d="M4.42,13c-1.25,2.33-2.44,4.3-2.05,7.01.37,2.54.13,5.32.84,7.72.75,2.53,3.59,3.74,4.17,6.49l-3.88-4c-2.03,3.85,1.38,3.99,2.1,7.19-1.19-1.37-1.66-1.98-2.84-2.95-1.05,2.73-2.74,8.42.82,9.86l3.63,1.46c2.65-7.52,8.78-14.6,17.65-14.96.32-7.78,1.02-15.28,2.36-22.85.3-1.71-.77-2.43-2.22-2.85-7.76-2.23-15.8-2.65-23.55-.26C.66,5.09-.11,5.88.01,6.66l1.42,8.74,2.99-2.39ZM9.83,29.48c.15.18.52.85.35.97l-.74.53-3.69-4.42,3.8-3.81c.38.23.59.34.7.54.11.2-.25.95-.43,1.11l-2.48,2.12,2.48,2.96ZM10.6,16.62l-2.69,2.32c-.38.9-.53,1.38-1.26,2.45l-.73-6.15c-.05-.38.78-1.15,1.06-1.12l.54,3.3,2.56-2.13c.19-.16.86.06.87.29,0,.23-.17.87-.35,1.03ZM16.24,31.18c-1.12-1.81-.59-11.15-.49-13.72l.33,8.2c.07,1.78.3,3.31.16,5.52ZM15.72,13.7l-.46-3.57c.96.84,1.56,1.93.46,3.57ZM23.24,28.54c-1.61.31-.21-2.88-.91-3.82-.3-.4-1.16-.74-1.89-1.02l-.71,6.04c-.81-2.85-.6-5.07-.43-7.81,1.45.46,3.27,1,3.96,2.41.52,1.05.21,3.02-.02,4.2ZM23.55,19.33l-2.66-1.74c-.18.8-.11,1.64-1.06,2.63-.36-3.05-.16-5.51.21-8.61,1.66.92,2.75,1.72,4.14,2.98l-2.81,1.8c.93,1,2.08,1.24,2.19,2.93ZM25.36,7.98c-.36,2.09-4.7.6-8.54,2.14-.27,1.05-.37.75-.58-.36l5.67-1.09,3.44-.69ZM22.5,5.4c.27.06.97.53.91.78-.48,2.03-11.57,1.74-13.28,1.21-2.05,1.61-2.62,3.2-1.98,6.04-.64-.41-1-1.32-1.16-2.21l-.79-4.54c-.96-.24-1.79-.49-2.52-1.3,6.32-1.5,12.57-1.37,18.82.01Z"/>
      <path d="M27.3,29.17c-.04.89.74,2.27,1.28,3.09,2.93-3.95,7.09-6.38,12.15-6.81l1.6-12.7c.17-1.36.92-2.8.74-4.14-.18-1.31-1.2-1.94-2.36-1.79l-1.08-2.8-4.07.04c-.46,0-1.56-.09-1.7.28l-.49,1.37c-.59,1.64-.24,2.9.39,4.74l-1.79-2.32c.55-1.69-.53-4.08-2.35-4.58l-6.09-1.65c6.07-1.71,11.3-1.01,17.15.08l-.79,1.29,1.54,2.91,2.03,1.04.71-4.76C38.89-.68,27.18-.49,21.93,1.22c-.44.14-1.26.76-1.07.92.19.16.71.49.96.55l5.28,1.39c3.74.99,1.18,6.76,1.5,11.15.14,1.89.05,2.94-.4,4.63-.8,2.99-.76,6.12-.91,9.3ZM37.33,7.66l3.46,3.32-4.25,4.23c0-2.85.25-4.83.79-7.55ZM36.17,17.34l2.62,3.13.66-3.39c.78.91.62,2.05.47,3.23l-.37,2.99c-1.1-.94-1.88-1.48-2.52-1.35-.35,1.03-.32,1.38-1.12,2.12-.06-2.64.05-4.39.26-6.72ZM32.87,21.92l.35,4.7c-1-1.52-.63-3.07-.35-4.7Z"/>
      <path d="M38.3,52.53c0-1.67.06-2.44.4-3.6l.4,2.36c2.49-.29.93-5.08-.06-5.61-3.93-2.14-6.16-3.59-9.75-1.53.62-1,1.65-1.4,3.08-1.87l-3.75-2.73c-5.71.17-10.98,4.73-12.98,9.77,2.46,1.19,4.76,2.55,7.35,2.92,2,.28,3.2-2.1,3.65-3.62.66-2.22-.99-3.09-2.18-4.76,5.77,2.41.76,4.63,4.84,9.06,1.72.52,3.53-.59,5.31.69-1.96.64-3.99.69-6.05.34-1.02-.18-2.87-1.98-3.79-.27-.56,1.03,1.07,3.06,2.4,3.47,2.71.83,10.63.65,11.88-2.54.29-.14,1.2.17,1.86.38.6-.93.64-2.79.47-3.86l-3.08,1.41Z"/>
      <path d="M53.95,45.07c1.45-.78,2.27-1.81,2.07-3.43-.26-2.05-1.38-3.21-3.26-3.88-6.38-2.28-2.3.12-7.17-.79l1.87-1.31c-2.5-2.15-3.24-3.36-7.25-1.33-2.79,1.41-4.82,3.34-6.97,5.85l7.44,4.24.93-3.52c1.35-.64,1.57-1.59,2.1-3.11l.55,3.84-.85-.64c-1.14-.86-2.26,2.55-1.64,3.23.62.68,2.23.88,3,.87-.34-1.36-1.27-2.12-.07-3.1l.84,3.37,3.45.33c.25.02.65.25,1.07.59-3.06.32-6.09-.16-9.15-1.01l1.26,3.03c1.81.99,4.57,1.48,6.48,1.17,3.09-2.69,1.16,2.76,8.39-2.76l-.35-3.23c-.97,1.08-1.68,1.76-2.75,1.57Z"/>
      <path d="M25.23,32.34c-4.34-.35-8.15,1.44-11.05,4.49-1.64,1.72-5.97,6.7-5.92,9.15l6.35,2.78c2.11-5.62,9.19-11.46,15.11-10l-2.31-4.26c-.41-.75-1.27-2.08-2.17-2.15ZM14.02,43.79l-.08,1.6-1.22-1.64c-.86.08-1.69-.9-1.59-1.63l2.3.77-.05-2.2c.79.75,1.65,1.69,2.54,2.76-.54.39-1.31.47-1.89.33ZM17.34,41.31c-.39-.49-.26-1.67,0-2.15-.49-.02-1.32-.12-1.83-.34-.4-.17.07-1.16.47-1.71.32-.44,1.77-1.01,1.8-.5.04.71-.25,1.76.06,2.01.36.29.72.54,1.59,1.15l-2.1,1.54ZM20.99,36.81l-.63-1.47c-.09-.22-.19-.79-.2-1.02-.01-.23.65-.51.85-.4.2.12.66.53.78.73l.82,1.42.38,1.9-2-1.17ZM25,36.2l-1.52-2.69c1.09-.13,1.91.04,2.84.7l-1.55.26,2.01,1.74c-.23.17-1.57.34-1.78-.02Z"/>
      <path d="M45.22,32.39l-3.26-5.3c-4.69-1.43-10.31,2.57-12.84,6.11l3.52,6.58c2.89-4.34,7.33-7.85,12.58-7.39ZM40.45,27.98l.05,1,1.78.83-1.08,1.59-1.67-3.28c-.1-.16.91-.35.92-.13ZM36.68,28.83c1.34-.79,2,1.13,2.33,2.14l.28.86c.53,1.66-4.15-2.6-2.6-3ZM34.13,30.46c.96.94.74,2.15.38,3.69l.72-.62c.13-.12.37.06.78.33l-1.97,1.11-.2-1.77c-.04-.39-.78-.62-1.41-.87l1.68-1.86Z"/>
      <path d="M23.3,53.6l-3.48-1.07c1.7.52-18.4-7.84-19.16-9.1l-.06,5.19c0,.46.89,1.4,1.34,1.66.39.23,1.04-.15,1.5-.48.24.5.89,1.57,1.43,1.76l3.09,1.06.44-3.45c8.65,3.3,3.77,4.31,11.62,6.98.95.32,1.91.21,2.61-.29.49-.34,1.19-1.96.68-2.27Z"/>
      <path d="M.67,43.44v-.12s-.03.07,0,.12Z"/>
      <polygon points="37.97 9.81 37.67 12.52 39.62 11.04 37.97 9.81"/>
    </g>
  </g>
</svg>