<?xml version="1.0" encoding="UTF-8"?>
<svg id="Warstwa_2" data-name="Warstwa 2" xmlns="http://www.w3.org/2000/svg" viewBox="0 0 44.84 56.84">
  <g id="icon-v9-equipment-pixarts-store">
    <g id="icon-v9-equipment-pixarts-store_171">
      <path d="M38.16,27.68c1.25.59,2.46,1.2,3.61,1.95-1.95-.38-3.3-.72-5.17-.97-1.03-.14-1.93,1.67-2.52,2.4-.11-.57.12-2.02.56-2.37,1.27-.87,2.89-1.9,3.89-3.07,1.08-1.28.69-3.37.15-4.53l-3.03,2.33c-.27,1.22-.32,3.17-1.59,3.87-3.36,1.85-2.7,4.92-3.5,9.36-.03.19-.53.86-.36.86h.7c.52.02.84-4.49,4.6-5.1,2.2-.36,4.8.23,5.89,2.4,2.27,4.5-3.81,10.99-7.37,13.07,1.73-1.92,3.46-3.73,4.03-5.98-1.19-.13-1.86-1.29-2.32-2.31l-1.91,1.55c1.27-2.37,2.98-4.04,2.61-6.75-1.32,3.55-3.26,6.37-6.17,8.62-5.5,4.26-12.06,6.9-19.29,5.93,1.99,1.52,4.43,1.13,6.69,1.06l-2.04.96c2.21,4.23,5.21,2.09,7.62,2.55-3.65,1.68-11.25,2.1-13.06-1.59-2.23-4.56,3.94-10.75,7.77-12.85l1.9,1.97c1.33.31,2.58.45,3.81.44-2.22-.67-3.55-1.12-4.01-3.42-1.05-5.27-4.2-4.15-8.54-5.31-.71-.32-1.95-1.21-2.71-1.75-1.01-2.69.19-6.23-1.43-6.95-1.86-.83-2.66,5.28-1.49,8.88.56,1.75,2.41,2.6,3.84,3.35-1.61.04-3.81-.67-4.53-2.32-.73-1.67-.78-3.72-.86-5.85-4.83,8.34-5.98,15.74,1.09,24.03,2.86,3.35,6.67,5.15,11.35,4.67,9.73-1.01,19-5.95,25.05-13.64,5.44-6.92,3.83-12.75-.83-19.6-.5,1.53-1.29,2.83-2.43,4.17ZM14.03,35.95l4.28,2.58c-1.67.2-3.26-.56-4.23-2.26l-1.59.48-2.16-.92c.83-.11,2.93-.34,3.71.13ZM12.62,38.07c.15.55-.18,1.21-.59,1.64-3.42,3.52-5.49,6.49-5.7,11.21-1.19-3.84,2.96-10.8,6.29-12.85Z"/>
      <path d="M21.54.07l-.58,7.81-.73-7.88-6.91,12.23,2.61,2.49-2.29-.88,2.67,10.21,3.18,1.2-2.46-9.69,4-6.14,5.58,5.64c2.65-1.22-.07-4.24.45-6.3l1.64,3.73,1.88-2.07-4-5.42c-1.33-1.81-3.47-3.13-5.04-4.92Z"/>
      <path d="M26.29,16.12l-5.16-4.96-2.88,5.31,1.74,8.76,1.87,1.21-1.28.62.54,3.71c.08.57,1.18,1.4,1.59,1.45l1.85-2.65.76-.13c.14-.03.22-.54.23-.72l.37-4.06-1.64-.61,1.73-1.34.3-6.57Z"/>
      <path d="M18.99,26.13c-4.63-2.74-4.92-.86-7.14-1.49-.46-.13-.61-1.36-.97-1.74-1.46-1.54-3.27-2.63-5.01-4.02-.73-.58-.23-2.84.47-3.44.75-.66,2.06-.9,3.33-1.29l-3.63-.02c-1.15,1.05-1.8,1.8-3.13,2.68-.08,1.08-.06,2.75.01,4.15,2.95.72,5.34,1.91,6.59,4.48,4.22,1.51,4-.37,9.48.68Z"/>
      <path d="M37.2,20.95c.43-1.42.51-2.26,1.91-2.89.97-.44,2.33-1.28,2.52-2.11.23-1.05.16-2.45-.1-3.28l-.45,1.83-2.1-2.71c-.54-.7-1.48-.93-2.36-.78l-3.07.5c.93.25,1.69.42,2.82.63,1.16.22,2.55,2.26,1.56,3.38-.72.82-1.72,1.77-2.44,2.5-.1,1.6-.74,2.55-2.19,3.12l-5.64,2.22c1.95.28,9.07-.84,9.55-2.41Z"/>
      <path d="M26.69,22.67l3.11-1.34.82-9.13c-4.07,3.16-3.22,5.75-3.93,10.47Z"/>
      <path d="M29.32,24.51l-2.95.12-.43,4.71,1.55,2.15-2.28-1.37-2.3,2.48c.31,1.74.62,3.21,1.3,5.11,3.86-6.4,4.57-5.76,5.11-13.2Z"/>
      <path d="M32.17,3.57l1.3,4.58c1.06-1.47,2.06-2.58,2.46-3.91.4-1.3-.85-2.93-1.47-4.03l-2.3,3.36Z"/>
      <path d="M7.68,8.05c.4,1.46,1.74,2.61,2.76,3.47,1.36-4.3,1.26-4.12-1.65-7.08-.4.91-1.4,2.59-1.11,3.61Z"/>
      <polygon points="20.64 30.73 19.96 27.04 17.16 27.01 18.18 30.63 20.64 30.73"/>
      <path d="M18.74,31.35c1.22,1.85,2.54,3.38,4.33,5.14.3-2.52-1.26-5.4-4.33-5.14Z"/>
      <path d="M9.02,30.42l3.04-3.32-3.46-.68c-.08,1.32-.01,2.73.42,3.99Z"/>
      <path d="M9.72,20.82c.14.13.78.1.95-.05l1.88-1.68c.14-.13.4-.48.5-.63.1-.15-.54-.73-.69-.63l-2.9,1.92c-.21.14.06.9.25,1.07Z"/>
      <path d="M32.05,19.88c.82,0,1.7-.87,1.58-1.34-.1-.4-1.17-1.11-1.44-.79-.32.4-.39,1.75-.15,2.13Z"/>
      <path d="M34.69,17.51c-.59-.76-1.56-1.23-2.31-1.29.04,1.1,1.43,2.13,2.31,1.29Z"/>
    </g>
  </g>
</svg>