<?xml version="1.0" encoding="UTF-8"?>
<svg id="Warstwa_2" data-name="Warstwa 2" xmlns="http://www.w3.org/2000/svg" viewBox="0 0 47.59 57.72">
  <g id="icon-v9-equipment-pixarts-store">
    <g id="icon-v9-equipment-pixarts-store_144">
      <path d="M47.59,12.51c-4.81,0-1.5,4.91-4.9,5.77-.76-1.37-1.57-3.12-1.35-4.83.26-1.97,6.33-2.95,3.92-8.35-.8-1.8-.69-3.58,1.1-5.1-2.47-.18-4.06,2.1-3.99,4.42.08,2.51-1.67,4.16-4.16,4.16-1.49,0-2.59.86-3.51,2.08-.75-.59-.4-1.89.4-2.43,3.74-2.54-.69-4.59,1.14-6.78-2.29.39-.97,3.31-2.26,4.48-1.63,1.49-6.03-.51-7.84,4.23-.16.41-1.12.98-1.52.79-.34-.16-.91-.94-.92-1.33-.03-2.93,4.09-2.75,1.04-7.73-.7,5.37-4.63,4.23-9.17,6.18-2.83,1.21-4.65,3.84-4.6,6.86.05,2.79-2.96,3.14-3.22,2.82-.96-1.17,2.76-4.18-1.53-6.5,1.05,1.91.21,3.95-1.32,5.37-2.77,2.56-3.45,6.07-1.34,9.27.77,1.16.53,2.9-.53,3.65-.66-1.64-.76-3.55-2.8-4.01,2.05,4.18-2.96,5.34,2.21,10.39.89-2.04,1.65-3.67,3.04-5.4l-2,6.13c-1.98,6.05.05,11.92,4.11,16.48,2.98,3.34,6.66,4.96,11.25,4.48,4.99-.52,9.49-2.32,13.87-4.82,5.38-3.07,9.85-7.22,12.63-12.76,1.18-2.36,1.14-4.74.59-7.19-.19-.84-.32-1.96-.57-2.75-1.4-4.56,2.66-3.53,1.49-8.25-.93,1.19-1.83,2.51-3.17,2.67-1.65-3.67,4.29-3.33,2.77-8.49-.4-1.36.04-2.61,1.16-3.54ZM45.23,31.93c-4.42-2.64-3.32.94-11.2-1.41l1.51,4.11-3.43-1.05.06,4.52c2.49-.68,3.04-3.47,6.76-4.12,1.46-.25,2.97.17,3.88,1.2,3,3.41-2.04,10.04-5.23,12.12l2.48-4.21c-1.26-.63-1.52-1.05-2.41-2.28l-2.06,1.76c1.28-2.07,2.61-4.01,2.97-6.51-4.34,9.21-15.16,15.28-24.85,14.12,1.89,1.38,3.95.8,6.2.96l-1.7.73c2.04,3.86,4.15,2.45,7.59,2.39-3.05,1.28-6.52,1.79-9.8,1.04-2.38-.55-3.93-2.52-3.46-4.96.37-1.95,1.45-3.75,2.96-5.07,5.83-5.12,7.25-3.32,14.15-5.31-2.1-2.31-1.67-4.26-3.25-4.48l-2.32,4.17-1.34-3.23-2.6,2.74c-1.2,1.27-2.24,2.5-3.57,3.55l.03-2.68c-3.58,2.64-7.5,7.4-7.36,12.42-1.24-4.58,3.29-10.89,7.19-13.47l1.16-3.86-4.58,1.46,1.32-3.03h-3.61c-1.38,0-2.8.86-4.24,1.57-.03-1.65.74-3.96,2.48-4.71l3.22-1.39-4.37-1.5c1.08-1.08,2.07-1.38,3.31-1.61-2.99-1.78-2.2-2.73-6.31-3.86,3.44-2.57,4.63-1.01,8.23-.78l-1.72-3.73,3.85,1c-.88-4.77,1.02-2.87-1.45-7.34,7.4.57,3.53,4.82,7.09,4.75.56-1.29,1.04-2.34,1.85-3.54l1.77,3.23c2.15-3.6,2.67-1.76,5.2-5.94,1.62,3.51-.22,4.48-.08,7.08l4.29-1.44-1.02,2.91c4.03-.47,3.58,1.02,7.71-1.28.2,3.91-2.86,4.52-5.57,5.8l4.41,1.82-3.19,1.51,2.38,2.08c2.53,2.21,5.13.69,6.68,3.73Z"/>
      <path d="M33.16,26.33l3.54-1.81-3.44-.69c1.5-4.14,4.01-1.79,5.85-4.96-5.19,1.18-2.81-.87-7.99,1.67l.86-3.57-2.97,1.77c-.53-1.11-.6-2.53-.36-3.79l.53-2.72-2.73,2.39-1.76,3.24-2.16-3.37-.76,3.12c-6.04-1.28-2.16-3.52-5.66-4.91.36,4.81-1.25,2.52,1.29,7.03-1.53-.09-2.63-.3-4.31-.61l1.93,2.61c-3.43,1.33-5.03-.75-7.72.14,3.64,1.82,1.55,1.92,6.38,3.58l-3.32,1.86,3.46.67c-.58,3.96-4.48,1.59-5.7,4.92,4.78-1.43,2.66.78,8.04-1.54l-1.04,3.42,3.19-1.84c1.01,3.86-.66,3.91-.47,6.81l3.18-3.15,1.4-2.82,1.88,3.44,1.07-3.09c5.23.06,2,4.43,6.53,5.32-2.6-4.45,1.01-3.2-2.48-7.68l4.49.99-2-2.74c4.03-1.23,4.45.46,8.47.5-4.81-2.24-1.77-2.27-7.2-4.19ZM30.1,30.24c-3.1,3.07-7.85,3.58-11.53,1.63-1.88-1-3.27-2.82-3.57-4.38-.46-2.38.11-4.43,1.63-6.09,3.17-3.46,8.48-4.09,12.43-1.53,3.58,2.32,4.21,7.24,1.04,10.37Z"/>
      <path d="M28.58,21.11c-3.12-2.24-7.23-2.06-10.18.32-1.49,1.2-2.31,2.89-2.17,4.74.13,1.63,1.02,3.3,2.63,4.32,3.39,2.15,8.14,1.57,10.79-1.75,1.99-2.5,1.31-5.93-1.07-7.63Z"/>
    </g>
  </g>
</svg>