<?xml version="1.0" encoding="UTF-8"?>
<svg id="Warstwa_2" data-name="Warstwa 2" xmlns="http://www.w3.org/2000/svg" viewBox="0 0 55.99 46.01">
  <g id="icon-v9-equipment-pixarts-store">
    <g id="icon-v9-equipment-pixarts-store_263">
      <path d="M51.45,2.7c-3.95-1.21-8.03-1.74-12.31-2.12C28.14-.38,17.31-.24,6.47,1.7c-2.1.38-3.93,1.06-5.79,2.06l-.19,3.46,1.61,1.81,4.57.86c.22.04,1.04-.46.89-.59-1.32-1.13-4.52-1.22-6.43-2.77,2.56-.01,4.14,2.53,6.93,1.39l-4.98-1.86c-.47-.18-1.44-1.27-1.08-1.67.7-.78,1.93-1.23,2.61-1.19-.77.49-1.57,1-1.82,1.68,7.08,4.17,6.02-.93,11.67,3.09l6.26.44c2.9-4.01,4.49-.28,10.98-1.21.39.28,1.05,1.16,1.43,1.18.57.03,3.3-2.03,5.79-1.13,4.47,1.62,1.25-1.79,8.18-.84,1.22.17,3.01-.77,4.17-1.57-.11-.64-1.12-1.27-1.81-1.54.73-.44,3.1.49,2.51,1.64-.93,1.83-3.37,1.25-4.79,2.98l3.66-.51-3.42,1.65c1.95,1,4.42-1.05,4.55-.85l.44.72c.92-.83,1.2-1.81,1.15-3.08-.06-1.53-.35-2.62-2.09-3.16Z"/>
      <path d="M24.43,10.67c-.53.61-.79,1.66-.86,2.52l2.56-.03c.49,0,1.23.63,1.27,1.05.03.36-.58,1.2-.96,1.23l-2.74.25c.1.44.42,1.39.65,1.73l5.7.29-5.43.45c5.25.34,9.72.75,13.87,3.71l3.8-3.26c-.42-2.01-.95-4.28-2.61-5.38-3.73-2.47-8.09-2.82-12.49-3.14-.91-.06-2.23-.02-2.75.57ZM30.92,15.5c-.46,0-.84-.38-.84-.84s.38-.84.84-.84.84.38.84.84-.38.84-.84.84ZM35.29,14.94c.43,0,.77.35.77.77s-.35.77-.77.77-.77-.35-.77-.77.35-.77.77-.77ZM25.08,10.64c3.15-.27,6.44.25,9.44,1.24l-9.44-1.24Z"/>
      <path d="M43.54,36.69c-1.45-.02-2.35-.87-2.95-2.1-.14-.28.38-.93.52-1.19l-1.41-3.29c-.8,1.53-1.23,2.94-1.33,4.8l.91-1.02c1.95,6.39,4.84,3.02,6.93,6.98l1.07-1.83c-1.08-1.18-1.93-2.2-1.16-3.41.31,1.36,1.04,2.98,2.68,2.84,2.48-.21,3.94-2.5,4.19-4.68l.79.94c.01-1.73-.36-3.24-1.15-4.72l-1.39,3.37c.18.3.7.93.53,1.2l-.65,1.09c-.38.64-1.82,1.13-2.5.85-.56-.24-1.41-1.31-1.43-1.96l-.2-7.21c-.01-.48-.51-1.07-.93-.94-1.59.5.41,10.33-2.54,10.29Z"/>
      <path d="M19.9,10.56l-7.41-.67.07,4.31,4.43,4.07,3.26.17c-1.24-3.15-1.26-5.22-.35-7.87ZM16.84,14.59c-.44,0-.8-.36-.8-.8s.36-.8.8-.8.8.36.8.8-.36.8-.8.8Z"/>
      <path d="M22.67,7.78c-2.92,3.14-3.05,7.75-1.07,11.43,1.96,3.65,4.35.71,9.89.6-2.31-.62-4.69-.57-7.33-.59-.59-.86-1.18-2.71-1.65-3.52-.21-.36-1.46-.73-1.41-1.15.24-1.9,1.62-.63,1.82-2.62.51-5.1,6.3-.83,9.01-3.57-2.61-.09-4.59.08-6.84-.61-.56-.17-2-.39-2.41.02Z"/>
      <path d="M55.28,21.53c-.95,1.34-1.1,1.57-1.56,1.4l-3.21-1.21-.19,4.72c-.35-2.79-.21-5.23-1-7.88-.25,3.05-1.77,4.61-.99,7.09.7,2.25,5.39.33,6.95-1.1.6-.55.21-2.58,0-3.02Z"/>
      <path d="M53.99,15.49c-.41-.04-1.2.25-1.69.37l-3.29.82c3.81,1.5.69,5.11,3.73,5.23.58.02.93-.76,1.47-1.55l-.22,1.56,2.01-1.65-.65-3.43c-.09-.47-.89-1.32-1.36-1.36Z"/>
      <path d="M46.27,16.6l.76.57c.05-3.25.15-6.45-.48-9.75-.75-.75-3.07-.42-3.29.19.49,1.63.73,3.19.74,4.64l.04,5.58,1.53-.89c.23-.13.56-.45.71-.34ZM44.8,17.22h-.35v-7.39h.35v7.39Z"/>
      <path d="M8.4,9.47c.75.12,2.08.21,2.36.61.55.8.54,2.5.85,3.55l.05-3.56.73-2.55c-.68-.13-2.16-.38-3.1-.38-.67,0-1.14,1.98-.89,2.32Z"/>
      <path d="M9.26,12.14c-.18.02-1.02-.02-1.14.11-1.1,1.23-2.38,4.27-1.12,6.3l3.12.77c-.79-2.95-.48-4.63.71-6.92.33-.64.06-1.94-.49-2.22-.71-.37-2.21-.17-2.29.5-.04.36-.05.86.07.77l.84-.61c-.11-.22.2.38.3.57.08.16.18.7,0,.72Z"/>
      <path d="M40.06,26.53l-.04-4.24c-1.46.89-2.27.54-3.52-.32-.05,1.75-.08,3.22-.3,4.84l-.37-5.5c-.31,1.4-.33,2.59-.46,3.87-.16,1.58.12,2.69,1.69,3.3.95.37,3.01-.56,3-1.94Z"/>
      <path d="M.47,9.79c-.27,1.47-.34,3.07.28,4.24.76,1.44,2.61,2.16,4.03,1.55l-1.57-.79,2.19.13c1.36-1.32,2.3-2.95,1.78-4.79-2.02-.14-2.31,2.72-4.15,2.92-1.2.13-.88-2.85-2.56-3.27Z"/>
      <path d="M53.39,9.87l-2.07,3.59c-1.56-1.09-2.56-2.12-3.58-3.59l.09,6.2c1.63-.42,3.83-.63,5.12-1.96.95-.99.99-3.11.44-4.24Z"/>
      <path d="M40.95,12.89l2.28,4.24-.03-7.48c-.95.05-2.03.2-2.7.42,0,1.06.14,2.24.45,2.83Z"/>
      <path d="M38.82,7.85l-3.09.34.96,2.56,3.13,1.29c.17-1.76-.1-3.03-.99-4.19Z"/>
      <path d="M46.27,17.44c-.19,1.48-.22,2.54.06,3.71l.52-2.28c.8.46,1.18,1.23.91,1.88-.19.47-1.13.96-1.63.89-.49-.07-1.44-1.05-1.27-1.52l.86-2.45c-1.56.91-2.32,2.92-.9,4.07.32.25,1.07.61.95.9l-.59,1.38c.19.18,1.36.13,2.13-.01l-.52-1.41c.57-.5,1.19-1.04,1.49-1.52.26-.41.06-1.82-.32-2.15l-1.69-1.49Z"/>
      <path d="M11.97,33.98l-1.42,2.06c1.09.18,1.85-.12,2.71-.87l-1.23-.52,1.5-.49c.3-.1.09-.9.21-1.18,1.35-1.39,1.1-8.1.7-9.67l-.48-1.85c-.57-2.23-1.44-3.76-3.86-5.58-.02.85.17,1.65.52,2.26.18-.1.32-.18.43-.25h0c.34-.19.37-.21,0,0l.46,1.41c.06.17.37.16.64.22l.96,3.16c.67,2.21.2,8.9-.22,8.36l.42.55-.71.79c-.12.14-.14.59.06.63l.88.15c-.6.26-1.37.54-1.57.83Z"/>
      <path d="M11.05,17.89h0c.37-.21.34-.19,0,0Z"/>
      <path d="M16.42,44.82l-1.51-1.83c-.17.83.28,2.19,1.24,2.78.76.47,2.08.24,2.87-.52.72-.7.91-2.01.63-3-.23-.79-.77-1.64-1.99-1.88-.36,1.25,1.77,2.24.6,3.95-.28.41-1.51.89-1.83.5Z"/>
      <path d="M16.58,25.46l-.36-2c-.61-3.37-2.08-7.73-5.61-9.07-.28.48-.01,1.16.44,1.57.22.21.87.26,1.14.07,2.3,3.91,2.09,3.18,3.37,8.14.12.73.08,2.12.05,2.97l-.08,3.01-.49,2.84c-.1.95-1.5,1.73-.77,2.69l-2.09,2.16,1.27.29-2.87,1.01c2.26,1.96,4.69-3.09,4.89-3.72l1.09-3.37-1.34.63c.89-1.03,1.5-1.96,1.67-3.4l-.98.53c.86-1.33.94-2.77.66-4.35Z"/>
      <path d="M2.41,28.13c.02,2.54.03,3.1,1.05,5.72.07.19.25.82.08.83l-.84.03c-.79,2.58,1.5,3.5,4.07,4.49l-.33-1.05c.44.34.93.71,1.28.9.29.15,1.12-.23,1.42-.37l1.57-.83c-1.59-.59-2.04-.31-2.98-.2l-1.65.19-1.61-1.67v1.93s-1-3.22-1-3.22l1.08.03c.16,0,.35-.48.36-.47.19.83.31,1.45.51,1.82.16.29,1.13.24,1.39-.01-4.43-4.28-3.97-8.23-2.9-13.52l1.1-2.25c-1.99.16-1.33,1.76-1.78,2.65-.83,1.63-.83,3.48-.82,5Z"/>
      <path d="M12.22,9.03c2.76.97,5.51,1.26,7.94.8-2.87-.89-5.27-1.07-7.94-.8Z"/>
      <path d="M51.81,8.93l-2.72,1.04,2.18,2.43c.68-.95.95-2.51.54-3.47Z"/>
      <rect x="21.82" y="13.83" width="4.67" height="1.05"/>
      <path d="M3.86,11.65c.36-.3.86-1.12,1.1-1.65l-2.2-.33c-.38-.06-.38,1.07-.21,1.43.14.31,1.04.76,1.3.55Z"/>
      <path d="M15.95,37.05l2.03.46-2.11.6c.82.75,2.54.36,2.74-.49-.8-.74-1.79-1.88-2.67-.57Z"/>
      <path d="M5.3,15.91l-.53.65-1.61,1.29,2.62-.83c.18-.06.16-.68.13-.86-.04-.19-.49-.39-.61-.24Z"/>
      <path d="M2.13,35.81c.25-1.02.32-2.09.09-3.72-.98.93-1.45,2.1-.09,3.72Z"/>
      <path d="M2.1,19.5c1.06-.08,1.95-.53,2.94-1.21l.49-.33c.08-.05.07-.27-.02-.25l-.63.17c-1.19.33-2.25.4-2.78,1.61Z"/>
      <path d="M.88,28.06c-1.03,1.15-.59,2.09-.39,3.09l.46,2.24c.71-1.57.93-2.46.71-3.37-.33.19-.56.33-.69.4h0c-.16.09-.15.09,0,0,1.13-2.84,0-2.19.68-5.4.3-1.42,1.44-3.79.66-3.72.65-.5,1.3-1.19,1.31-1.54-2.09-.19-2.35,1.45-2.51,2.36-.05.27-.61.93-.51,1.15l.28.59c-.52.66-.61,1.6-.43,2.23L0,27.57c-.08.27.42.34.87.48Z"/>
      <path d="M.97,30.42h0c-.15.09-.16.09,0,0Z"/>
      <path d="M17.98,32.82c.16-.7.52-1.86.48-2.48l-.23-3.4c-1.11,1.12-.59,2.51-.47,3.65.08.7-1.15,1.57.23,2.22Z"/>
      <path d="M6.03,33.83c-.38-1.49-.62-2.16-1-3.09-.53,1.28.02,2.62,1,3.09Z"/>
      <path d="M11.71,39.77h-3.28c.95,1.59,2.09.93,3.28,0Z"/>
      <path d="M17.59,39.91c.54-.32.83-.61,1.12-1.2l-2.69.45c.63.78,1.14,1.01,1.57.75Z"/>
      <rect x="45.33" y="24.67" width="1.88" height="1.12" transform="translate(-2.49 5.22) rotate(-6.29)"/>
      <path d="M4.37,28.5l.54-3.38c-1.25.93-1.3,2.43-.54,3.38Z"/>
      <path d="M40.01,9.41l3.26-.48c-1.24-.95-2.35-.57-3.26.48Z"/>
    </g>
  </g>
</svg>