<?xml version="1.0" encoding="UTF-8"?>
<svg id="Warstwa_2" data-name="Warstwa 2" xmlns="http://www.w3.org/2000/svg" viewBox="0 0 28.77 52.93">
  <g id="icon-v9-equipment-pixarts-store">
    <g id="icon-v9-equipment-pixarts-store_386">
      <path d="M21.31,36.22l-1.71-3.3c-.07-.14-.82-.41-.88-.27-.06.14-.23.58-.25.75-.71,6.49-3.86,12.81-9.71,16.01,2.52-2.42,4.9-4.77,5.99-7.95l-1.35.18c.68-.74,1.94-1.46,2.23-2.2.84-2.16,1.84-7.89-.35-8.07-1.26-.1-3.45,1.83-3.68,4.51-.21,2.48-.88,4.7-1.87,7.13l1.79.72c-1.17.58-2.32.95-2.84,1.73-2.13,3.21-5.09,5.62-8.67,6.89,5.15,1.57,11.47-.29,15.38-3.28.21-.16-.21-.77-.47-1.08l2.63-.74c2.19-1.37,7.76-9.06,5.2-11.55l-1.44.5Z"/>
      <path d="M22.36,12.06c-.26-.53-1.08-1.67-1.72-1.7l-3.72,2.34-.19-4.37c-.02-.53-1.76-.46-1.75.05l.08,5.55-6.27,3.07c-.64,1.18-.41,3.1.28,4.44,3.15-.71,5.58-2.22,8.25-3.87,3.05-1.88,3.12,1.27,4.61.47,1.3-.7.61-2.49.12-3.17.46-.46,1.12-1.14.95-1.49l-.64-1.31ZM9.59,17.36c3.44-1.56,6.49-2.82,9.44-4.72-2.45,2.7-5.82,4.3-9.44,4.72Z"/>
      <path d="M17.65,10.13c2.75-.81,3.9-3.6,3.32-5.98C20.34,1.59,18.19-.09,15.68,0c-2.5.1-4.65,1.95-5.05,4.36-.42,2.47.86,5.1,3.46,5.78.42-.87.02-1.81-.61-2.35-1.59-1.36-1.39-3.67,0-4.96,1.34-1.26,3.58-1.24,4.91.18,3.01,3.22-2.16,5.72-.73,7.12Z"/>
      <path d="M23.52,33.01c-.46.05-1.19-.91-1.56-1.41-.22-.29-1.14.12-1.18.47-.04.29.1.96.24,1.24l.64,1.3c.15.31,1.4.05,1.69.23.66.45,1.06,1.96,1.39,3.04,1.4-1.53,1.81-3.92.68-5.62-.62.3-1.43.69-1.9.74Z"/>
      <path d="M21.18,23.18c-.43.89-.93,2.12-.81,3.12.12.98,1.58,2.45,2.6,2.3,1.06-.15,1.68-2.9.89-3.48l-2.68-1.95Z"/>
      <path d="M15,29.35c.06-.25-.36-1.28-.64-1.12l-1.24.71c-.55.31-1.33-.72-1.79-1.68-1.16,1.51-1.89,3.77-.41,5.45l4.08-3.36Z"/>
      <path d="M28.42,20.39c-1.09-2.25-3.06-3.53-4.96-4.78l-.48,3.37,1.75.46,3.68.96Z"/>
      <path d="M24.23,29.24l4.07,2.45c-.38-2.45-1.41-4.18-3.05-5.97l-1.02,3.52Z"/>
      <path d="M21.29,19.12l-2.32-1.45c-.27,1.01-.52,1.88-.72,2.97-.19,1.02,1.31,1.91,2.4,1.91.5-1.2.78-2.47.65-3.43Z"/>
      <path d="M20.1,23.66l-2.65-2.09-.91,3.09c.8.79,1.28,1.18,2.47,1.94.59-1.4.92-2.23,1.09-2.94Z"/>
      <path d="M25.29,21.19l-.77,3.54,4.25,1.19c-.7-2.16-1.9-3.39-3.48-4.73Z"/>
      <path d="M15.45,24.59c.73-.55,1.07-2,1.31-2.95l-2.77-1.11c-.46.45-.82,1.99-.59,2.65.21.59,1.45,1.64,2.05,1.42Z"/>
      <path d="M19.92,31.45c.78-.03,2.08-1.64,1.64-2.19-.72-.91-1.35-1.6-2.11-2.42-.6,1.13-1.05,2.01-1.15,2.85-.07.59,1.05,1.78,1.62,1.76Z"/>
      <path d="M24.38,20.54c-.51-.65-1.25-1.16-2.1-1.65l-.45,3.41c-.08.63,1.69,1.72,2.04,1.2.53-.8.93-2.44.52-2.96Z"/>
      <path d="M12.84,28.27c1.06-.6,1.76-1.56,2.02-2.47l-2.13-2.23-1.15,2.23c.13.62.73,1.62,1.26,2.47Z"/>
      <path d="M17.04,29.3c.58-.29,1.24-1.59,1.24-2.12l-2.34-1.77c-.6.74-.95,1.9-.67,2.58.22.54,1.24,1.58,1.77,1.31Z"/>
      <path d="M10.24,26.16c1.52-1.86,1.97-3.06,2.55-4.95l-2.78.87.23,4.09Z"/>
      <path d="M22.4,29.67c-.5.45.17,2.1.89,2.48.7.37,2.02-.54,2.04-1.15-1.06-1.13-2.06-1.92-2.93-1.33Z"/>
      <path d="M17.48,18.27l-2.51,1.66c.62.4,1.5.74,1.95.64.7-.16,1.49-2.92.56-2.3Z"/>
    </g>
  </g>
</svg>