<?xml version="1.0" encoding="UTF-8"?>
<svg id="Warstwa_2" data-name="Warstwa 2" xmlns="http://www.w3.org/2000/svg" viewBox="0 0 55.87 56.53">
  <g id="icon-v9-equipment-pixarts-store">
    <g id="icon-v9-equipment-pixarts-store_37">
      <path d="M29.51,36.69c-.8-1.78-.98-3.82-2.88-4.22,1.85,3.03,1.13,7.06-2.35,8.33-.83.3-2.34,0-3.19-.12,1.16,2.16,3.38,2.07,5.65,1.27-1.76,2.18-4.93,1.53-6.43-.7.23,1.14.41,2.38.49,3.53-.93-1.98-1.26-4.06-3.6-4.47,1.19,1.74,1.94,3.61,1.25,5.47-.72,1.98-2.34,2.76-4.49,2.32,1.11,1.67,2.88,1.17,4.53.7-1.31,1.56-4.3,1.45-5.39-.54-.44-.8-1.01-1.35-1.88-1.64l-.86,3.24c3.27,2.78,6.5,5.15,11,5.64.05-4.5,2.84-7.65,6.84-8.72l-.74-.61,2.78-.18c.41-.03,1.12-.42,1.23-.78.09-.29-.07-1.15-.24-1.41l-1.75-2.78,1.12.34c.21.07.51-.22.72-.43,1.58-1.62,1.32-3.26-.04-5.16.95.56,1.71,1.44,1.97,2.22.42,1.27-.18,2.56-.96,3.48-1.13,1.35,1.41,3.35.37,4.63-.31.39-1.04.71-1.75,1.18-.45.3.65,1.37,1.12,1.68l2.6,1.68c1.58-.33,3.87-3.48,5.98-.83l-1.57-.26-.22,1.24c-.06.31.61.95.9.82.39-.18.93-.74,1.21-.58l1.14.66,2.19-.36.98-.2-.48,1.52c-.09.3.71.86,1.22.92l-.24-2.07c-.07-.66,1.47-1.52,2.28-.96,2.57-2.29-2.99-3.72,2.1-4.59.83-.14.98-2.4.32-2.96-3.15-2.71.37-4.24-2.42-5.71-2.65-1.4-1.19-7.05-9.02-8.69l2.99,3.37c.58,1.95.46,4.34,0,6.26-1.96-2.28-3.85-3.71-6.62-3.68.02-1.21.11-2.59-.48-3.48-1.14-1.71-4.3.05-5.22-2.25l-6.04.53c.88,3.71,5.93.15,5.85,7.38ZM45.27,41.73l1.53-2.32c.15-.23.7-.56.94-.57.3-.01.73.69.74.99l.06,3.15c.01.62-1.8,1.52-2.33,1.16-1.06-.72-2.07-1.77-2.75-2.42.67.12,1.62.26,1.8,0ZM44.72,43.83c1.09,1.43,1.51,2.5,1.99,4.24l-1.63-.41c-.04.07-.37.67-.51.91-.14.25-1.03.2-1.08-.1-.22-1.4.14-3.46,1.22-4.64ZM37.69,41.64l3.06,1.23c.54.22,1.57-.22,2.1-.62-.16,2.66-5.56,5.76-7.59,3.78l-1.49-2.95c.86-1.6,2.35-2.06,3.91-1.43Z"/>
      <path d="M16.74,34.13c5.02,6.52,6.35,5.58,5.46,4.46l-5.18-6.53c-2.61-3.29-5.16-3.61-4.52-4.89l3.2,2.32c3.1,2.24,5.53,6.86,9.39,9.68,1.47-1.4,2.06-4.43.56-5.91-3.55-3.49-7.03-6.66-9.21-11.44l.03,2.88-1.13-4.74c-1.56-6.58-1.16-12.88.79-19.59-3.87,5.16-5.99,11.48-6.08,17.97-.05,3.42.52,6.79.9,10.17,2.28,1.67,4.05,3.36,5.79,5.62Z"/>
      <path d="M42.31,16.63l-1.59-3.17.46,5.22c.25,2.89-.05,5.7-1.12,8.52l4.28,2.39.68-5.3c.29-2.25.41-4.32,1.04-6.37l-.42,8.37c-.09,1.73-.3,3.39.37,5.17.43-2.23.7-4.45.57-6.8-.47-8.11,3.06-3.68-2.83-14.16-2.51-4.47-6.33-8.05-10.87-10.51,2.66,3.2,4.82,6.28,6.77,9.79,1.21,2.18,2.85,4.11,2.67,6.84Z"/>
      <path d="M13.25,46.34c.83.57,1.71,1.26,2.89.34l-6.89-4.46c-.77-.5-2.15-.18-2.39-1.51,1.27.53,2.66,1.05,3.98,1.7l6.43,3.19c.86-1.69.37-3.8-1.13-4.55l-6.35-3.19c-1.06-.2-1.61-.83-2.31-1.6-3.66-4.02-5.91-8.43-6.79-14.18-2.04,7.07.89,14.4,5.14,20,2.76,1.19,5,2.58,7.44,4.26Z"/>
      <path d="M50.83,35.64l3.2-5.88c-.28,3-2.48,4.77-1.94,7.44l3.62-7.66c.33-5.54-1.28-11.28-4.85-15.78,2.01,8.02,2.19,12.21-2.63,19.27l2.59,2.61Z"/>
      <path d="M33.6,29.31c2.04.17,3.03,1.9,2.72,4.28,2.03.13,3.53,1.04,5.21,2.66.06-1.08.08-2.72-.04-3.72-.92-1.01-5.56-6-6.3-5.59l-.66.37c-1.78-.92-3.22-1.62-5.25-2.3l1.63,4.07,2.69.22Z"/>
      <path d="M48.64,36.28c3.57,2.65-.96,4.85,3.82,6.04l-.57.98c-.46.8,2.17,1.09,3.98,2.38-1.61-4.78-4.94-8.55-8.55-12.05,0,1,.57,2.1,1.32,2.65Z"/>
      <path d="M29.78,48.73c-.04-.43-.27-1.31-.46-1.57-1.49.32-3.52.82-4.54,1.8-1.82,1.77-3.26,4.38-2.63,6.92,1.45-3.97,3.55-6.86,7.63-7.15Z"/>
      <path d="M16.3,35.35l-2.09,3.54c2.23,1.55,1.74-.43,5.57,1.72-.74-2.1-1.89-3.57-3.47-5.26Z"/>
      <path d="M40.53,51.66c-.96,2.08.41,3.38,1.92,4.87.58-3.32-1.64-5.48-1.92-4.87Z"/>
      <path d="M49.42,49.89c-.29.48-.66,1.37-.56,1.76l.67,2.62c.54-1.39.77-2.86-.11-4.38Z"/>
      <path d="M29.34,27.9c.23-.12.16-.85-.07-.98-.17-.1-.89-.24-1.03-.13l-1.48,1.14c.8.22,2.03.27,2.58-.03Z"/>
      <path d="M44.06,53.61c.6-.23.02-1.99-.68-1.78-.31.11-.47,1.05-.31,1.35.12.24.74.53.99.43Z"/>
    </g>
  </g>
</svg>