<?xml version="1.0" encoding="UTF-8"?>
<svg id="Warstwa_2" data-name="Warstwa 2" xmlns="http://www.w3.org/2000/svg" viewBox="0 0 57.99 50.55">
  <g id="icon-v9-equipment-pixarts-store">
    <g id="icon-v9-equipment-pixarts-store_246">
      <path d="M19,27l-1.05,5.45,4.43,3.39.5-2.19c1.46,2.11-1.27,1.93,2.85,4.8l-.04-2.19c1.06,1.51,1.25,4.04,3.28,4.39,1.36.23,2.82-1.94,3.1-3.31l.53,1.1c2.59-1.75,1.43-5.58,4.46-5.52-1.16,1.18-2.05,2.07-2.12,3.54l5.07-3.92c-.26-1.88-.63-3.74-1.23-5.49l.06,4.4c0,.35-.89.96-1.03.85.71-1.47.69-2.68.14-4.27l-2.07,2.09-.73-.92-2.76,2.98-.89-.43-2.52,3-2.6-2.99-.85.46-2.44-2.73-1.04.67-2-2.28-.67,4.19c-1.01-1.87.8-3.36-.4-5.08Z"/>
      <path d="M39.42,40.74c-.33-2.17-.61-3.77-1.38-5.4l.18,5.15-1.11-4.4-8.03,6.14-8.4-6.23-.61,4.83c-.87-1.82.97-5.57-.45-5.36l-.95,5.37,4.63,3.68.21-1.14c1.82,3.46,2.22,2.56,5.55,5.28,2.26-1.18,3.01-3.16,4.18-5.41l-.46,2.75,6.65-5.25Z"/>
      <path d="M35.33,16.47c1.69-2.36-1.82-7.7-3.94-7.65-.67.02-1.7.74-2.37,1.22-.65-.47-1.83-1.4-2.54-1.33-2.34.21-4.38,4.94-4.23,6.99.04.62,1.24,1.71,1.51,2.03l.67-.89c.54-.72.38,1.84.52,2-.08.28-.36.75-.16.84l1.17.53-1.2.46c.78.67,1.63,1.11,2.38.91.52-.14,1.24-.68,1.97-1.28l-2.93-2.53h5.27s-2.26,2.31-2.26,2.31c.03.68,1.48,1.63,2.23,1.6.95-.03,2-.74,2.01-1.91l-1.9-.26,1.95-.22-.63-2.42c.93.41,1.93.35,2.46-.4ZM26.54,16.66c-.25-.68-.22-1.31-.01-2.16-1.11.4-2.77-.15-3.07-1.92,1.53-.19,2.95.42,3.86,1.51l-.77,2.57ZM32.31,14.74c-.53.24-.57,1.04-.85,2l-.77-2.76c.85-.91,2.24-1.89,3.98-.94-.58.7-1.55,1.33-2.36,1.7Z"/>
      <path d="M16.56,8.96c-1.68.41-3.45.2-5.2-.12-.79,2.48-2.18,4.73-3.81,6.66,1.49,2.04,2.93,4.03,3.41,6.57.14.77,2.07,1.16,2.41.54.13-.27-.07-.97.13-1.01.78-.14,1.66-.09,2.47.49.27.19-.18,1.16-.27,1.47l3.67,2.07-.85-2.46c-.4.4-.65.78-.73.64-.07-.14-.42-.7-.56-.8-2.49-1.85.3-2.98-1.94-4.75l.57-4.77c.05-.43.58-1.28.35-1.56-.66-.81-3.11-1.02-3.47-.49l-.83,1.24c-.04-.57.13-1.53.44-1.84.84-.82,3.11.44,4.12-.49.48-4.35,7.14-6.99,10.83-8.15,1.28-.4,1.99-.4,3.17.02l4.37,1.53c1.76.62,3.36,1.78,4.86,2.95,1.02.8,1.42,2.75,2.06,3.99l2.97-.08c.51-.01,1.25,1.04,1.15,1.62-.83-1.23-3.1-1.44-3.99-.33l.99,6.81-.99.12v3.1s3.09-.64,3.09-.64c.3-.4.81-.67,1.22-.5.27.11.24,1,.07.9l-1.55-.17c-.32-.04-.29,1.19,0,1.33.67.34,2.36-.46,2.5-1.14.52-2.6,1.69-4.5,3.65-6.07-2.17-1.81-3.18-4.12-4.1-6.49l-4.91.03-1.3-2.62c-2.22-2.22-5.02-3.5-7.81-4.83l-3.51-1.67c-4.04,1.46-8.01,3.47-11.52,6.12l-1.15,2.84ZM12.89,15.09c.21.52.07,1.79-.39,2.09-1.06.69-1.87-.05-2.28-.68-.51-.79.17-1.96,1.16-2.38.5-.21,1.32.51,1.5.97ZM46.77,14.19c.59.32,1.31.75,1.41,1.14.09.39-.47,1.33-.81,1.83-.3.43-1.45.27-1.79-.04-.44-.39-.7-1.4-.47-1.98.19-.48,1.2-1.21,1.66-.96Z"/>
      <path d="M49.88,40.62l-.61-2.25c-2.12,2.17-3.69,3.74-6.03,5.51l-3.5-7.32.59,4.2-.49,1.34,2.29,8.45c3.64-2.23,6.56-5.07,9.24-8.31-.99-.56-1.5-1.01-1.5-1.62Z"/>
      <path d="M16,50.52l2.14-8.11c-.43-1.93-.08-3.74.26-5.9l-3.52,7.33c-2.3-1.54-4.07-3.28-6.06-5.4l-.82,2.68c-.1.32-.78.91-1.12,1.3,2.7,3.23,5.59,5.96,9.14,8.1Z"/>
      <path d="M48.74,34.23l-.99-2.8-4.13,3.89-3.12-6.96c-.55,2.74,1.74,3.43-.56,5.89.79,2.73,2.09,5.51,3.61,8.2,2.68-2.25,4.86-4.51,6.89-7.13-.77-.42-1.59-.76-1.71-1.09Z"/>
      <path d="M7.49,35.28c2.39,2.93,4.35,4.9,6.97,7.27l3.86-8.25c-2.63-1.55-.24-3.36-.76-5.75l-3.02,6.6c-.66-.4-1.49-1-2.08-1.59l-2.29-2.28-1.18,3.63c-.65,0-.99.01-1.52.37Z"/>
      <path d="M4.52,8.75c7.21,3.24,5.36.46,5.66.55l-1.02-.33c-1.47-.47-3.27-.48-4.04-1.99.28-.87,1.79-1.45,2.39-1.35l-1.53,1.33c4.3,2,3.8.94,8.13,1.34.57.05,2.01-.03,2.07-.55l.2-1.93,4.29-2.96c-2.87.19-17.06,1.08-17.02,4.34,0,.42.49,1.37.88,1.55Z"/>
      <path d="M41.79,7.55c0,.31.91.74,1.23.73l2.97-.06c2.17-.05,3.97-.07,5.97-1.37l-1.65-1.22c.57.09,1.48.4,2.21.78.36.19-.07,1.57-.47,1.68l-4.2,1.15c-1.91,2.11,7.14.46,6.39-2.35-.79-2.98-13.95-3.86-17.02-4.04l4.51,3.06.05,1.64Z"/>
      <path d="M17.15,11.22l2.34-1.14-.02-2.13c2.5-2.43,3.63,1.18,7.11.33l-.91-1.37,1.77,1.24.14-.96,1.55,2.17,1.47-2.69.86.64c.15.11-.06.74.1.83,3.08,1.71,4.23-3.23,6.93-.1l-.07,2.43,2.44,1.04c-.7-2.55-1.82-4.31-3.76-5.52l-3.07.29,1.59-1.06-2.32.34,1.84-1-3.56.24.93-1.14c-.92-.09-1.78.4-2.61,1.11v-1.46c-.29-.21-1.15-.52-1.4-.25-.29.31-.71.92-.93,1.28-.59-.37-1.47-.69-2.42-.64l1.49,1.5c-1.27-.56-2.65-.84-3.89-.31l2.55,1.71c-1.02-.14-2.29-1.13-3.08-.92-1.42.37-2.6,1.26-3.49,2.05,1.62,1.45-.56-.67-1.57,3.5Z"/>
      <path d="M52.59,21.56c-.7.3-1.69.91-2.32,1.34-.3.1-1.38-.1-1.4.24l-.11,1.45-.87-1.43c-.33,1.14.12,3.32,1.01,3.66l3.93,1.46.42-1.59c.49,1.84,1.97,2.68,4.08,2.97l-3.32-8.82-1.42.71Z"/>
      <path d="M5.58,26.45l-.77,1.82,4.72-1.47c.36-1.2.65-2.29.85-3.53-1.34-.22-1.1,2.86-1.5,2.78l-.82-.17c.76-.44,1.68-1.84,1.14-2.74l-2.13-.73c-.3-.1-1.01-.89-1.3-.77l-.81.35-.59-1.1c-.08-.15-.64.43-.72.64L.69,29.65c2.4,0,3.27-1.54,4.9-3.2Z"/>
      <path d="M9.17,29.67l-1.09,1.98.31-3.34c-1.71.49-3.12,1.02-4.37,1.53-.57.23-1.85.45-2.04,1.05-.69,2.13-1.26,4.1-1.85,6.32l8.38-3.82c.43-1.15.72-2.43.66-3.73Z"/>
      <path d="M57.91,37.16l-1.89-6.37c-.06-.21-5.2-2.27-6.22-2.52l.02,3.06-.85-1.54c-.25.99-.01,2.43.42,3.51l5.33,2.25-.66-1.58c2.41,1.68.46,2.42,3.85,3.18Z"/>
      <path d="M40.61,26.03l3.25,7.78c2.05-1.88,3.53-3.6,4.93-5.66l-1.12-.9-1.13-3.31c-2.08-.07-1.13,2.1-3.26,3.8l-1.19-2.58-1.48.86Z"/>
      <path d="M11.78,24.02c-1.2.87-.39,2.51-2.45,4.37,1.49,1.91,3.06,3.69,4.74,5.35l2.96-6.63c.2-.46.16-1.41-.21-1.58-.4-.18-1.09-.13-1.23.18l-.85,1.88c-1.67-.69-1.76-4.45-2.97-3.58Z"/>
      <path d="M24.61,27.21l-.21-5.55c-1.88,2.82-1.34,6.45.86,8.65l.06-1.42,3.61,4.14,3.48-3.9.03,1.31c2.52-2.03,2.96-5.29,1.3-7.99l-.14,4.67-.43-1.75c-2.36,5.82-1.06-.03-3.86,4.49-.18-.25-.49-.78-.64-.74l-.59.15-.57-.98c-.08-.13-.38.26-.7.56l-1.78-3.08-.41,1.44Z"/>
      <path d="M7.49,36.46l-1.53,3.67c.42-1.73.81-2.92.95-4.69-1.7.24-2.74,1.12-3.95,1.83-.36.21-1.28.59-1.38,1.05l-1.59,7.2,7.17-5.15c.38-1.1.63-2.46.32-3.91Z"/>
      <path d="M55.17,37.27c-1.34-.84-2.44-1.45-3.91-2.04l.53,4.47-1.26-2.83c-.2.84-.08,3.06.65,3.6l6.81,4.97-1.32-6.46c-.27-.79-.8-1.4-1.5-1.7Z"/>
      <path d="M3.82,15.91c-1.85,1.63,4.21,4.22,5.52,3.96l-2.66-4.63c1.12-1.44,2.15-2.82,2.92-4.05l-5.98-2.09v2.08c1.52,1.1,1.67,3.46.21,4.74Z"/>
      <path d="M48.36,11.21l2.68,3.55c1.04,1.38-1.57,2.76-2.45,5.26l4.56-1.42c-1.38,1.72-4.1.76-5.12,3.18,2.43.35,8.95-3.74,5.72-3.33l-.63.08c3.69-2.92-2.25-3.24.91-7.14.41-.51.3-1.95.19-2.26l-5.87,2.08Z"/>
      <path d="M17.69,21.83c.41-.76.84-1.62,1.2-2.13l2.85-3.97-1.64.51,1.73-2.37-1.67.36,2.05-1.62h-1.87s.08-.73.08-.73c0,0-.31.03-.51.04l-1.39.12c.14-.01-2.61,3.85-2.16,5.2l2.52-2.26c-.95,2.55-2.37,4.43-1.19,6.86Z"/>
      <path d="M37.16,11.26c.39-1,.73-2.13.1-2.95-.35-.45-1.73-.57-2.21-.27-.41.25-1,.96-1.23,1.31l3.04-.66-.24,2.28,1.58,1.64-2.13-.25,2.06,1.91-1.98-.52,1.77,2.42-1.52-.48.69,1.65-1.03-.52.63,2.35-1.26-1.29.14,1.89-.83-.51c0,.77-.02,1.27.03,1.62l.37,2.84c.16,1.21.42,2.38.74,3.86,1.28-1.81,1-3.47,1.12-5.89l1.11,2.63c1.11-1.76.66-3.62-.09-5.9.92.81,1.54,1.9,2.3,3.28,1.17-2.38-.07-4.06-.96-6.32.88.51,1.42,1.13,2.24,1.99.04-1.77-.79-3.14-1.87-4.59l1.3.49c-.66-1.49-2.13-2.34-3.89-1.99Z"/>
      <path d="M21.24,21.4c-.28,2.34-.48,4.6,1.01,6.22l1.03-5.04c.06-.31.24-.8.08-.92l-.54-.37.51-1.84-1.14.8.64-1.9-.97.08c-.14.01-.04-.39-.02-.57l.09-.91c-2.47,1.5-3.31,4.58-2.21,7l1.52-2.54Z"/>
      <path d="M30.26,23.74h1.02c.12.01-.32-.55-.44-.49l-1.51.66-2.35.89c-.44.11-1.18.06-1.13.36.38,2.46.74.45,2.95,2.73.41.33,1.18-.73,1.78-1.11.4-.26,1.14-.36,1.35-.64.2-.27.22-1.27.05-1.34-.62-.03-1.08,0-1.35-.11-.27-.11-.5-1.06-.38-.95Z"/>
      <path d="M3.59,18.27c-.07.3.46,1.56.96,1.75l5.16,2.03c-.05-1.41-.4-1.32-1-1.58l-5.11-2.2Z"/>
      <path d="M14.77,26.25l.28-3.66c.02-.22-1.15-.58-1.19-.37l-.17,1.01c-.18,1.1-.09,2.36,1.08,3.02Z"/>
      <path d="M23.29,8.31c-.82-.54-2.12-.56-2.56,0-.65.82-.77,2,.27,2.71l.11-2.4c1.38.21,1.88.52,2.96,1.16.21-.25-.23-1.1-.78-1.46Z"/>
      <path d="M41.72,22.15l-1.38,1.66-.47-1.36-1.01,2.79,2.45-1.15c.46-.22,1.26-.5,1.07-.82l-.67-1.12Z"/>
      <path d="M43.11,21.98l.03,4.41c1.71-1.23,1.73-3.38-.03-4.41Z"/>
      <path d="M3.77,12.02l-2.14,1.3,2.18,1.72c.25-1.43.26-1.91-.04-3.03Z"/>
      <path d="M54.3,15.08l2.09-1.82-2.24-1.28c-.34,1.21-.28,1.91.14,3.1Z"/>
      <path d="M46.69,16.81c.36-.33.93-1.15.78-1.46-.15-.31-1.14-.73-1.38-.48-.25.25-.45,1.06-.44,1.41.01.28.82.73,1.04.53Z"/>
      <path d="M10.63,15.77c0,.53.43.96.96.96s.96-.43.96-.96-.43-.96-.96-.96-.96.43-.96.96Z"/>
    </g>
  </g>
</svg>