<?xml version="1.0" encoding="UTF-8"?>
<svg id="Warstwa_2" data-name="Warstwa 2" xmlns="http://www.w3.org/2000/svg" viewBox="0 0 49.02 56.24">
  <g id="icon-v9-equipment-pixarts-store">
    <g id="icon-v9-equipment-pixarts-store_15">
      <ellipse cx="16.18" cy="33.71" rx="1.61" ry="1.81" transform="translate(-20.68 39.98) rotate(-74.03)"/>
      <path d="M20.92,25.43c1.66-1.57.68-2.69.58-4.48,2.76.22,5.49-1.08,4.82-4.19l-2.77,2.78-4.16.2,1.53,5.68Z"/>
      <path d="M10.16,30.89c.4-.08,1.32-.73,1.79-1.17.26-.25-.34-1.22-.58-1.54-.24-.32-1.55-.55-1.76-.25-.4.57-.88,1.53-.67,1.97.17.35.82,1.08,1.22,1Z"/>
      <path d="M13.84,19.67c.17.07.35.16.47.07l.74-.55,1.92-1.37.7,4.72c1.65-1.57,1.27-2.61,1.25-4.17l4.31-.18-1.57-4.86c-.2-.63-2.46-1.25-2.91-.72l-4.9,5.8c-.18.22-.24,1.15,0,1.26ZM19.83,13.51l1.7,3.43-4.06-.16,2.36-3.27Z"/>
      <path d="M29.97,41.85c.8.23,1.61-.16,1.81-.87s-.28-1.47-1.08-1.7-1.61.16-1.81.87.28,1.47,1.08,1.7Z"/>
      <path d="M22.13,39.75c.93.27,1.87-.19,2.11-1.02s-.32-1.71-1.25-1.98-1.87.19-2.11,1.02.32,1.71,1.25,1.98Z"/>
      <path d="M16.31,52.81c.38.41,1.33,1.09,1.72.78.53-.42,1.13-1.13,1.22-1.61.09-.48-1.37-1.62-1.84-1.39-.69.34-1.53,1.77-1.1,2.23Z"/>
      <path d="M12,50.14c.44-.8.64-2.06.31-2.38-.25-.24-1.25-.66-1.59-.56-.67.21-1.36,1.66-1.16,2.24.2.59,2.1,1.3,2.44.7Z"/>
      <path d="M5.32,46.21c.81.32,2.12-.72,2.06-1.24-.05-.41-.55-1.39-.97-1.71-.41-.32-1.66.57-1.97.93-.31.37.05,1.69.89,2.02Z"/>
      <path d="M39.01,10.66c.65-.4,1.29-1.47,1.02-1.88-.3-.45-1.53-1.12-1.91-.76-.5.48-1.04,1.49-.97,1.99.06.4,1.49.88,1.87.65Z"/>
      <path d="M30.7,10.61l-3.2-1.97c-.96-.42-3.03.59-3.96,1.4l3.81-.25c-.37.36-.41,1.68.11,2.12.66.55,1.7,1.04,2.17.73.52-.34,1.56-1.73,1.07-2.04Z"/>
      <path d="M34.99,24.26c.93,1.64,3.5.11,3.17-.84-.38-1.11-3.92-.49-3.17.84Z"/>
      <path d="M43.46,32.8c-1.33-.96-3.45,1.01-3.09,2.58l3.58-.49c-.16.4-.77,1.49-1.22,1.52l-1.83.11c.87,2.29,2.88.49,3.54-.09.66-.59-.07-2.97-.98-3.62Z"/>
      <path d="M31.96,12.3c-.65.16-1.43,1.34-1.14,1.79.3.44,1.58,1.03,2.13.8l2.75-1.14c-1.46-1.07-2.67-1.7-3.74-1.44Z"/>
      <path d="M44.33,29.03l-3.8,1.77,2.96-3.01c-2.67.63-4.05,1.42-6.61,2.37l5.25-3.42-1.66-11.44c-4.36-3.12-8.62-6.16-13.76-8.21-2.29-.42-5.43.94-7.42,1.66l10.66,7.14c1.11.75,2.38,1.29,3.67,1.55-2.8,1.58-8.72,9.75-9.8,13.06l-13.62-9.85c-.68,1-.45,2.65.66,3.51,5.46,4.22,10.5,7.98,16.45,11.86,1.19.78,4.35-.11,5.72-.38-.49-1.57-1.06-3.41-.69-5.18.28-1.35,2.49-2.51,3.68-2.44-1.19,1-2.35,1.88-3,2.53-.54.54.07,2.4.21,3.17l.31,1.75c.06.34,1.37-.1,1.73-.18,1.17-.27-1.29-2.83-.11-3.93.4-.37,1.54-1.06,1.7-1.09-.72,1.67-1.21,2.83-.7,3.99l2.47,5.63-.02-2.49,2.45,3.73,6.45-4.46-3.16-7.64ZM29.64,12.65c-.47.31-1.51-.18-2.17-.73-.52-.44-.48-1.76-.11-2.12l-3.81.25c.93-.81,3-1.82,3.96-1.4l3.2,1.97c.5.31-.54,1.7-1.07,2.04ZM32.95,14.88c-.55.23-1.83-.36-2.13-.8-.3-.44.49-1.63,1.14-1.79,1.07-.26,2.28.37,3.74,1.44l-2.75,1.14ZM34.99,24.26c-.75-1.33,2.79-1.95,3.17-.84.33.94-2.24,2.48-3.17.84ZM40.9,36.51l1.83-.11c.45-.03,1.07-1.12,1.22-1.52l-3.58.49c-.36-1.57,1.76-3.54,3.09-2.58.91.65,1.64,3.03.98,3.62-.66.59-2.68,2.39-3.54.09Z"/>
      <path d="M23.24,28.99l8.3-11.06-12.98-8.85c-3.3,3.46-5.94,6.43-8.55,10.22l13.24,9.69ZM26.32,16.77c.66,3.11-2.06,4.41-4.82,4.19.11,1.79,1.09,2.91-.58,4.48l-1.53-5.68,4.16-.2,2.77-2.78ZM18.75,12.61c.45-.53,2.7.09,2.91.72l1.57,4.86-4.31.18c.02,1.56.4,2.6-1.25,4.17l-.7-4.72-1.92,1.37-.74.55c-.12.09-.3,0-.47-.07-.23-.1-.17-1.04,0-1.26l4.9-5.8Z"/>
      <path d="M4.94,27.19c-.46,3.13,16.8,14.4,21.52,16.68l11.36-2.63-1.96-5-8.54,1.48c-6.34-4.38-12.24-8.36-18.01-13.2-.49-.41-1.26-1.11-1.68-1-.43.12-1.11,1.2-.69,1.29,1.03.23,1.22,1.83.51,2.26-.46.28-1.28.25-2.5.11ZM30.7,39.28c.8.23,1.28.99,1.08,1.7s-1.01,1.1-1.81.87-1.28-.99-1.08-1.7,1.01-1.1,1.81-.87ZM22.99,36.76c.93.27,1.49,1.15,1.25,1.98s-1.18,1.28-2.11,1.02-1.49-1.15-1.25-1.98,1.18-1.28,2.11-1.02ZM16.62,32.16c.96.28,1.54,1.19,1.3,2.05s-1.22,1.33-2.18,1.05-1.54-1.19-1.3-2.05c.24-.86,1.22-1.33,2.18-1.05ZM9.61,27.92c.21-.3,1.52-.06,1.76.25.24.32.85,1.29.58,1.54-.47.44-1.39,1.09-1.79,1.17-.4.08-1.05-.65-1.22-1-.21-.44.26-1.4.67-1.97Z"/>
      <path d="M26.17,5.35c5.68,2.51,10.79,5.34,15.39,9.53l1.61,11.14,2.81,3.93c.62-2.81.82-6.1.51-9.49l-.87-9.23c-5.34-4.04-10.65-7.42-17.05-10.06-1.19,1.05-2,2.58-2.39,4.19ZM38.12,8.02c.38-.37,1.61.31,1.91.76.27.4-.36,1.48-1.02,1.88-.38.23-1.81-.25-1.87-.65-.07-.49.47-1.5.97-1.99Z"/>
      <path d="M20.65,56.24l2.65-5.15c-8.12-3.2-14.71-7.17-20.74-12.91-1.21,1.84-1.96,3.35-2.57,5.36,5.65,5.94,12.25,11.03,20.65,12.7ZM17.41,50.58c.47-.23,1.93.91,1.84,1.39-.09.48-.68,1.19-1.22,1.61-.39.31-1.34-.36-1.72-.78-.44-.47.4-1.9,1.1-2.23ZM10.72,47.2c.34-.1,1.34.32,1.59.56.34.32.13,1.58-.31,2.38-.33.61-2.24-.11-2.44-.7-.2-.59.48-2.04,1.16-2.24ZM4.44,44.19c.31-.36,1.56-1.25,1.97-.93.42.32.92,1.3.97,1.71.06.52-1.25,1.56-2.06,1.24-.84-.33-1.2-1.66-.89-2.02Z"/>
      <path d="M7.07,33.42l-3.07,4.66c4.84,4.85,10.48,8.08,16.99,10.86,1.06-1.25,1.95-2.46,2.65-3.81-4.87-3.12-9.83-6.5-14.44-9.8-.55-.4-2.23,1.1-1.96,1.7l.96,2.13c-3.51-1.08,1.34-5.15-1.12-5.74Z"/>
      <path d="M28.67.47c5.94,3.17,12.84,5.56,17.41,10.57,1.37,6.42.8,13.17,1.06,19.5,3.16-.1,1.44-18.26,1.07-20.63C45.75,7.47,32.2-2.24,28.67.47Z"/>
      <path d="M22.39,55.98c3.48-3.57,6.18-7.04,9.03-10.69l-6.8.32c-.92.6-2.47,2.78-2.59,3.56.92.93,1.65,1.7,2.04,2.19-.8,1.72-2.05,2.96-1.69,4.62Z"/>
      <polygon points="19.83 13.51 17.47 16.78 21.54 16.94 19.83 13.51"/>
    </g>
  </g>
</svg>