<?xml version="1.0" encoding="UTF-8"?>
<svg id="Warstwa_2" data-name="Warstwa 2" xmlns="http://www.w3.org/2000/svg" viewBox="0 0 54.96 59.88">
  <g id="icon-v9-equipment-pixarts-store">
    <g id="icon-v9-equipment-pixarts-store_119">
      <path d="M39.28,11.2c.57.42,1.37,1.65,1.52,2.46.71,3.97-1.17,7.77-3.63,10.64-.36.43-.12,2.11.3,2.25l1.31.42-.39,1.59c4.29-2.85,6.88-7.02,8.01-11.77l1.78-7.48c.91-3.84,3.04-6.98,6.26-9.26-4.46-.32-9,1.71-11.11,5.47.92.85,1.53,2.02,1.1,3.04-.3.7-1.82,1.23-2.52.64-.39-.33-.58-1.51-.65-2.18-2.33-.39-4.65,1.52-4.97,3.85.98-.11,2.35-.14,2.99.32Z"/>
      <path d="M7.05,8.9l2.07,8.56c1.5,4.47,3.68,8.64,7.83,10.99l-.47-1.53,1.5-.59c.37-.14.36-1.64.03-2.03-4.63-5.44-4.54-12.44-1.65-13.37.78-.25,1.95-.14,2.72,0-.33-2.45-2.74-4.46-5.13-3.86.04.83-.18,2.17-1.07,2.36-1.13.25-2.09-.62-2.23-1.57-.1-.69.62-1.65,1.31-2.39C9.82,1.74,5.24-.28.67.03c3.2,2.06,5.46,5.11,6.37,8.87Z"/>
      <path d="M23.56,59.47c2.47,1.52,3.63-1.73,4.26-1.16l.68.62c.95.87,2.28,1.36,3.52.47,4.84-3.47,6.35-7.36,7.94-12.84-2.35.97-2.36,3.1-3.53,5.33.75-3.61-.98-5.17-4-8.04l.44,2.2c.2,1.01-1.91,1.41-3.39,2.68-1.32,1.13-2.76.98-3.94-.18-.93-.91-3.27-1.23-3.12-2.42l.28-2.26-3.82,4.39-.15,3.66c-.88-2.1-.97-4.35-3.44-5.45,1.07,4.89,3.66,10.17,8.29,13.01ZM34.87,48.78c1.51,1.77,1.81,4.87-.62,6.4,1.05-1.93,1.12-3.92.62-6.4ZM24.03,56.34c1.46-2.13,4.85-2.44,6.77-.48-2.44-.61-4.47-.61-6.77.48ZM22.78,49.94c1.4-.19,3.42,1.12,4.96.83l4.54-.86c.67-.13,1.47,1.1,1.61,1.65.15.61-.12,2-.85,2.53-.4.29-1.72-.44-2.17-.49-2.06-.22-4.76-.24-6.81.09-.57.09-1.62.57-1.97.27-1.17-1.04-.96-3.79.69-4.01ZM19.33,52.68c-.19-1.19.31-2.76,1-3.75-.49,2.83-.59,4.7,1.51,6.64-1.36-.35-2.3-1.61-2.5-2.89Z"/>
      <path d="M14.55,35.88c8.17,3.47,17.72,3.68,25.96.14.71-2.22-1.91-4.2-4.34-3.92-5.97.66-7.12,1.97-12.26.69-2.36-.59-4.92-1.12-7.28-.2-1.02.39-1.82,2.07-2.07,3.29ZM38.85,35.14c.78-.52.83-.34.29.46-4.8,1.72-9.68,2.24-14.35,1.6,4.87-.2,9.52-.35,14.06-2.06Z"/>
      <path d="M17.83,46.55c2.05.6,2.78-3.59,6.26-3.35.91.06,1.73,1.15,1.49,1.88l-1.61-1.04c-.53.52-1.1,1.96-.56,2.22,2.77.58,3.61,3.79,5.62,1.63.77-.83,1.78-1.19,2.98-1.62.38-.47-.49-2.02-1.05-2.22l-1.46.82c.08-1.15,1.11-1.93,2.24-1.74,3.11.53,3.85,4.41,6.18,3.34,1.21-.55,2.89-2.4,2.76-3.74-.16-1.63-.65-3.13-1.19-4.66-1.02,1.69-1.62,3.19-2.7,3.74-3.69,1.89-5.24-1.04-7.48.21l.13-1.31c.02-.24-.54-.64-.89-.87-.81-.54-2.7.21-2.88,1.03l.6,2.08-1.13-1.19c-.55-.58-3.88,1.72-6.83-.13-.94-.59-1.51-1.99-2.39-3.61-.75,1.63-1.56,3.53-1.26,5.2.24,1.34,1.85,2.95,3.16,3.33Z"/>
      <path d="M43.57,39.22c2.42-4.02,6.16-6.09,10.68-6.89-.87-1.94-1.78-3.6-2.99-5.16-4.42.8-7.74,2.86-9.92,6.61.54,1.98,1.28,3.74,2.23,5.45ZM49.87,28.77c.95,0,1.73.77,1.73,1.73s-.77,1.73-1.73,1.73-1.73-.77-1.73-1.73.77-1.73,1.73-1.73Z"/>
      <path d="M1.1,32.34c4.76.84,8.17,3.15,10.72,6.87l2.27-5.41c-2.28-3.78-5.91-5.96-10.23-6.66-1.09,1.77-1.98,3.44-2.76,5.2ZM5.44,28.73c.98,0,1.78.8,1.78,1.78s-.8,1.78-1.78,1.78-1.78-.8-1.78-1.78.8-1.78,1.78-1.78Z"/>
      <path d="M25.9,16.98c-1.99,2.73-3.22,6.14-2.87,9.46,1.71-1.69,2.97-2.69,4.92-2.61,1.62.06,2.81,1.25,4.29,2.43.04-3.58-1.04-6.77-2.81-9.4-.89-.37-2.76-.36-3.53.12Z"/>
      <path d="M52.55,48.22c-.94,1.71-1.65,2.82-2.9,3.99l1.1,5.39c4.19-2.74,3.6-6.21,1.79-9.38Z"/>
      <path d="M4.49,57.53l1.19-5.51c-1.37-1.26-1.99-2.18-3-3.89-1.65,3.4-2.21,6.82,1.81,9.39Z"/>
      <path d="M30.25,16.41c1.69,3.36,2.52,6.13,3.01,9.57l2.98-2.13c-.97-3.5-2.8-6.13-5.99-7.44Z"/>
      <path d="M36.03,25.31l-3.67,2.07c-.13,1.58-.36,2.72-1.07,4.3,1.31-.02,7.6-2.24,5.84-4.21-.64-.71-.94-1.45-1.1-2.16Z"/>
      <path d="M19.03,23.98c.98.73,1.94,1.33,2.71,1.62.94-3.7,1.75-6.03,3.32-9.12-3.38,1.09-5.07,4.24-6.03,7.5Z"/>
      <path d="M18.3,29.07c1.66,1.23,3.69,2.2,5.54,2.54-.5-1.74-.73-2.77-.76-4.18l-3.93-2.09c.19,1.85-2.02,2.86-.84,3.73Z"/>
      <path d="M7.75,46.37c.05-.15-.09-.7-.23-.73-.14-.03-.62-.01-.67.12l-1.35,3.51c-.4-1.37.46-2.49,1.12-3.92l-1.38-2.83c-.77,1.42-1.5,2.82-1.89,4.06.25,1.85,1.16,3.28,2.72,4.34l1.69-4.56Z"/>
      <path d="M27.64,24.68c-2.07,0-3.75,1.68-3.75,3.75s1.68,3.75,3.75,3.75,3.75-1.68,3.75-3.75-1.68-3.75-3.75-3.75ZM28.43,31.16c-1.25.38-2.87-.23-3.43-1.54-.61-1.44-.03-3.24,1.69-3.91,1.6-.62,3.35.58,3.64,1.86.4,1.76-.09,3.03-1.91,3.59Z"/>
      <path d="M51.68,46.17l-1.57-3.51c-2.96,3.43.96,4.7-.29,6.64l-1.11-3.39c-.05-.15-.56-.46-.69-.39-1.07.62.69,3.93,1.16,5.29,1.75-.78,3.21-3.05,2.49-4.64Z"/>
      <path d="M8.11,44.75c.79-1.09,1.63-2.41,1.5-3.66-.1-.93-1.3-2.05-1.99-2.69-.62.74-1.49,1.76-1.56,2.4-.15,1.45.73,3.23,2.05,3.94Z"/>
      <path d="M45.96,40.22c-.91,1.7.2,3.36,1.12,4.61,1.44-.81,2.29-2.63,2.45-4.17l-1.53-2.11c-.26-.36-1.39.65-1.51,1.08-.3,1.09,2.02,2.26,1.01,3.79l-1.54-3.2Z"/>
      <path d="M44.35,40.66c2.66-3.82,5.94-6.34,10.49-6.6l.11-.67c.26-1.55-11.32,2.46-10.6,7.27Z"/>
      <path d="M10.96,41.1c1.44-3.74-8.77-9.45-10.96-7.55,4.96,1.24,8.9,3.31,10.96,7.55Z"/>
      <path d="M4.18,26.19c4.44,1.43,8.26,3.18,10.13,7.12,1.31-3.41-8.08-8.65-10.13-7.12Z"/>
      <path d="M41.02,32.95c2.23-3.87,6-5.27,10.17-6.76-2.53-1.62-11.34,4.1-10.17,6.76Z"/>
      <path d="M17.3,20.67c-.55.74.34,2.36,1.14,2.19,1.21-2.53,2.58-4.57,4.47-6.15-2.23.69-4.16,1.98-5.61,3.95Z"/>
      <path d="M38.12,20.79c-1.55-1.96-3.09-3.08-5.1-3.75,1.64,1.94,2.77,3.61,3.94,5.92.43-.06,1.56-1.66,1.16-2.16Z"/>
      <path d="M30.99,15.23c-2.31-.7-4.53-.75-6.83.03,2.18,1.15,4.75,1.06,6.83-.03Z"/>
      <path d="M39.66,50.75l8.75,2.22c1.75-.54-9.08-3.41-8.75-2.22Z"/>
      <path d="M6.58,52.94l8.55-1.96c-3.19-.45-6.01.24-8.55,1.96Z"/>
      <path d="M13.16,27.56c.4,1.77.98,2.49,1.89,3.51.53-1.17.62-1.91.02-2.51-.41-.41-.95-.71-1.91-1Z"/>
      <path d="M41.4,27.51l-.49.48c-.8.78-1.14,1.82-.7,3.18,2.74-2.7,1.43-3.9,1.19-3.66Z"/>
      <path d="M25.78,14l3.62-.02c-1.12-1.29-2.65-1.27-3.62.02Z"/>
      <polygon points="39.22 29.67 36.96 31.02 39.38 31.64 39.22 29.67"/>
      <polygon points="15.9 31.42 18.09 31.01 16.29 29.43 15.9 31.42"/>
      <path d="M49.93,31.43c.55,0,.99-.44.99-.99s-.44-.99-.99-.99-.99.44-.99.99.44.99.99.99Z"/>
      <circle cx="5.4" cy="30.43" r="1.04"/>
      <circle cx="27.67" cy="28.44" r="2.3" transform="translate(-1.95 2.03) rotate(-4.07)"/>
    </g>
  </g>
</svg>