<?xml version="1.0" encoding="UTF-8"?>
<svg id="Warstwa_2" data-name="Warstwa 2" xmlns="http://www.w3.org/2000/svg" viewBox="0 0 39.41 56.34">
  <g id="icon-v9-equipment-pixarts-store">
    <g id="icon-v9-equipment-pixarts-store_209">
      <path d="M28.78,44.76l-.02-12.01c0-4.92,2.1-2.95,1.76-5.75H9.16c-.4,2.49,1.66,1.09,1.65,4.76v13.01c-.01.66-.46,2.01-.97,2.31-.52.31-1.08,2.12-.4,2.12l21.14.05c.46-2.51-1.81-1.63-1.82-4.5ZM26.86,44.89c0,.22-.97.57-.93.79l.23,1.24-3.03.11.3-2.67-7.42-.03.67,2.58-3.19.05.24-1.29c.04-.23-.96-.54-.96-.86l.02-13.44c0-.34,1-.68.96-.91l-.22-1.27h12.66s-.13,1.36-.13,1.36c-.02.21.54.42.82.68l-.02,13.64Z"/>
      <path d="M16.35,18.51c.17.89.99,1.66,2,2.7-2.56,2.51-5.5,1.65-6.54,4.69l15.92.03c-.43-2.96-5-2.65-6.51-4.84,1.33-1.12,2-1.87,2.13-2.88.15-1.19-.28-2.31-1.2-3.19-1.38.97,1.2,3.26-1.13,4.15-.31-.14-1.08-.44-1.38-.55-.25-.1-.66.43-.97.65-2.21-1.21-.09-2.58-1.13-4.27-1.17.98-1.45,2.14-1.18,3.51Z"/>
      <path d="M27.9,50.34H11.73c1.36,3.55,5.32,2.08,7.93,6,3.18-3.73,7.12-2.75,8.23-6Z"/>
      <path d="M20.8,16.08c.6-2.29.99-4.2,1.25-6.69-1.69-.38-2.75-.39-4.53-.05l1.21,6.76,2.07-.02Z"/>
      <path d="M9.29,8.07c.28-.1.82-.4,1.01-.58.19-.19-.17-.84-.4-1.09l-4-4.38c-.27-.29-1.07-.31-1.36-.02-.22.22-.06,1.03.16,1.26l4.59,4.81Z"/>
      <path d="M7.42,9.23c1.44,1.26,4.94,4.76,6.47,2.88-2.48-1.53-4.38-3.12-6.72-5.13-.29.61-.22,1.84.25,2.25Z"/>
      <path d="M32.36,7.03c-2.14,1.95-4.09,3.61-6.53,5.12,1.58,1.92,5.13-1.8,6.55-3.13.4-.37.32-1.71-.02-1.99Z"/>
      <path d="M29.47,7.75c.19.16,1.09.09,1.3-.14l4.21-4.61c.19-.21.15-.97-.09-1.1-.24-.12-1.07-.05-1.3.19l-4.18,4.6c-.17.19-.13.89.05,1.05Z"/>
      <path d="M14.42,7.26l-3.33-2.49c-.37-.28-1.39-.09-1.8.3,1.9,1.73,3.64,3.1,5.93,4.57.63-1.18-.12-1.87-.81-2.38Z"/>
      <path d="M28.49,4.78l-3.55,2.57c-.61.44-1.03,1.35-.59,2.31,2.39-1.57,4.08-2.87,6.01-4.7-.71-.32-1.56-.4-1.87-.17Z"/>
      <path d="M5.16,4.67L2.41,1.26C2.03.35,1.32-.32,0,.32c1.16,1.51,3.09,5.79,5.16,4.34Z"/>
      <path d="M39.41.28c-1.15-.59-1.55.04-2.13.77l-2.88,3.62c2.03,1.7,4.08-2.99,5.01-4.39Z"/>
      <path d="M26.61,11.03c.37-.15.63-1.14.38-1.41-.2-.23-.86-.32-1.15-.19l-2.84,1.32c-.41.19-.55,1.57-.19,1.82l3.8-1.54Z"/>
      <path d="M16.86,12.58c.25-.84-.05-1.87-.61-2.11l-2.43-1.01c-.28-.12-.89-.08-1.14.02-2.17.86,3.79,2.88,4.17,3.1Z"/>
      <path d="M34.19.1c-.85-.22-1.82-.1-2.13.48-.34.65-.34,1.48-.02,2.21,1.08-.84,1.66-1.6,2.15-2.69Z"/>
      <path d="M5.41.08c.59,1.09.97,1.66,1.93,2.56.59-.52.52-1.6.03-2.14C7,.1,6.23-.02,5.41.08Z"/>
      <path d="M22.88,36.7c-.38.58-.77,1.08-1.12,1.32.09-4.22.43-3.96-3.37-6.71,1.66,5.03-3.63,5.27-2.7,9.42.27,1.19,1.33,2.43,2.69,2.67-.24-.64-.8-1.73-.76-2.28.1-1.12,1.12-2.44,1.75-2.88.52,1.26,1.25,2.06,2.01,2.83.37.38-.04,1.8-.16,2.36,1.36-.38,2.52-1.61,2.79-2.91.27-1.35-.2-3.04-1.14-3.82Z"/>
    </g>
  </g>
</svg>