<?xml version="1.0" encoding="UTF-8"?>
<svg id="Warstwa_2" data-name="Warstwa 2" xmlns="http://www.w3.org/2000/svg" viewBox="0 0 57.51 56.83">
  <g id="icon-v9-equipment-pixarts-store">
    <g id="icon-v9-equipment-pixarts-store_203">
      <path d="M45.24,11.78c.05.13.19.65.29.84,3.53,6.56,3.95,14.91.19,21.39-2.73,4.7-6.83,7.76-11.73,8.33-5.56.64-10.41-1.41-14.03-5.64-7.91-9.23-6.18-25.35,5.2-31.35.75-1.44.12-4.08-1.31-5-2.53-1.63-1.1,2.86-2.24,3.47-2.13,1.15-3.03-.71-7.67,4.66,1.89,1.79,1.49,4.02.15,5.79-1.18,1.55-2.9,1.7-4.52.95-1.14,2.43-1.73,5.48-1.85,8.09,1.33-.11,2.58-.13,3.21.53,1.62,1.69,1.85,4.02.98,6.03-.55,1.27-1.62,1.72-3.35,1.73.6,2.38,1.69,4.63,3.18,6.9,2.04-1.98,4.33-1.27,5.93.56,1.35,1.56,1.93,3.46.09,5.16,2.33,1.34,4.28,2.18,6.68,2.96,2.55-3.08,6.37-2.38,9.25-.48,4.23-.53,7.51-3.36,10.53-6.43,7.33-7.45,7.42-20.61,2.12-28.7-.32-.48-1.17-.02-1.09.21Z"/>
      <path d="M30.86,41.01c6.71.61,12.56-3.56,14.99-9.77,1.53-3.92,1.85-8.11.15-11.86l-.34,3.85c-.85-3.81-.72-7.19-3.38-10.21l2.4-1.13c.36-.17.64-1.17.48-1.52-.16-.35-1.12-.7-1.48-.56-1.06.41-1.77,1.69-1.72,2.74,5.14,10.46,1.47,25.19-11.1,28.45Z"/>
      <path d="M13.22,38.92c-1.85,2.77-2.97,5.76-4.16,9.15,3.39-1.82,6.39-3.44,8.74-5.84-2.47.18-3.15,2.28-5.28,2.56l4.33-4.71c-.21-1.1-2.81-2.39-3.63-1.17Z"/>
      <path d="M10.6,29.56l-6.71-1.17,7.09-.99c.37-.99-.68-3.58-2.07-3.08-3.11,1.12-5.72,2.42-8.9,4l8.85,1.92c.43.09,1.35-.29,1.74-.69Z"/>
      <path d="M30.8,47.27l-1.46,5.13-.29-5.93c-.92-.21-3.04.31-3.18,1.25.86,3.26,1.81,6.02,3.03,9.12l2.92-8.79c.08-.25-.23-.96-.38-1.13-.1-.11-.59.16-.65.35Z"/>
      <path d="M11.51,14.42l-3.23-4.2,4.85,2.93c1.12-.63,1.34-3.03.16-3.42-2.79-.92-5.19-1.58-8.16-2.29.41.73,5.68,8.56,6.37,6.98Z"/>
      <path d="M44.65,42.42l1.18,2.4-2.45-1.71-1.42,1.21,6.61,3.58-2.79-7.02c-.54.33-1.34,1.13-1.13,1.54Z"/>
      <path d="M35.41,2.65c-.32.38-.91.72-1.63,1.22.33.25,1.34.74,1.79.6.38-.12.96-.7,1.29-1.06l.59-.65c.12-.14.87.73,1.06.7l3.26-.64-5.12-2.37c-.62-.29-1.56-.54-1.85-.4.47.86,1.01,2.14.62,2.61Z"/>
      <polygon points="49.07 13.45 52.61 7.48 46.5 9.79 48.12 11.61 49.07 13.45"/>
      <path d="M51.28,27.18l2.73.87-2.84.43c-.32.05-.34,1.17-.27,1.48l6.62-1.66-6.09-3.23c-.1.71-.17,1.64-.15,2.11Z"/>
      <path d="M34.78,1.94c-.92-2.18-6.74-1.16-8.78-.58l.57,1.61c1.83-.83,8.57-.19,8.21-1.03Z"/>
    </g>
  </g>
</svg>