<?xml version="1.0" encoding="UTF-8"?>
<svg id="Warstwa_2" data-name="Warstwa 2" xmlns="http://www.w3.org/2000/svg" viewBox="0 0 57.61 59.01">
  <g id="icon-v9-equipment-pixarts-store">
    <g id="icon-v9-equipment-pixarts-store_328">
      <path d="M9.37,19.31l-.18-1.87,1.41.02c-1.01-.67-1.68-.98-2.66-1.27l.77,2.91-1.91,1.1c.96.08,2.1-.43,2.58-.89Z"/>
      <path d="M12.19,15.05c1.03.69,1.78,2.41,3.2,1.13-.79-.13-1.92-.47-1.89-.97.03-.54.2-1.36.41-2.1l1.81,1.87c.09-.87-.32-1.59-.91-2.2l-1.52-1.58-.45,3.47-4.95-2.15c1.04,1.47,2.91,1.62,4.3,2.54Z"/>
      <path d="M42.54,13.45c-.38.35-.78,1.18-.88,1.77-.07.44.59,1.08,1.09,1.23l-.64-1.26c-.17-.33,1.26-2.45,1.94-2.4l.14,2.81-1.19.94c.77,0,1.7-.47,1.94-.97-.22-1.36-.25-2.25-.34-4.01l-2.07,1.88Z"/>
      <path d="M49.11,18.35l.67-1.87c-.43-.34-1.68.41-1.89.99l.74.47c.32.2-.32,2.21.29,2.05l1.13-.31c-.41-.48-1.07-.97-.93-1.33Z"/>
      <path d="M23.13,19.81l-.93.14,2.64,1.43c-.49-1.32-.82-1.66-1.43-2.36-.04.23-.07.76-.28.79Z"/>
      <path d="M34.62,19.01c.32-.11,1.41.4,1.52.09.13-.36.42-1.14.48-1.5l.75-4.24c2.14-.86,3.51-2.86,2.97-5.43-.19-.92-.47-1.79-1.12-2.64-.56,5.69-2.99,5.25-4.69,11.02l1.4-.46c-.71,1.07-1.42,1.13-2.48,1.58-2.61,1.12-5.28,5.43-3.67,5.42h.84s1.15,4.42,1.15,4.42c-1.56,2.31-2.37,4.82-2.85,7.52l-1.48-4.75c-.33-1.07-.92-2.08-1.52-3.15l.87-2.53c.27-.8.79-1.52,1.6-2.2-.76-2.66-3.44-4.52-5.85-5.53.73-4.97-3.88-5.47-4.04-11.28-2.52,3.01-.07,7.86.44,7.38l.43-.41,1.7,1.64-.74.26,1.09,4.6c.68,2.87-2.1-.02-3.45.72-.49.27-1.06,1.23-1.04,1.75.05,1.34,1.08,2.22,2.03,2.5l-.33-2.48,1.34,3.04c1.95,1.87,3.86,3.56,5.18,6.27-3.78-2.82-4.77-.38-7.44-4.31-.11.06-.53.77-.67.61l-.76-.9c-.42-.49-.99-1.15-1.45-1.13-.46.03-1.18,1.27-.94,1.67,3.01,5.04,1.57,3.72,7.34,5.4,1.5.44,2.25,1.54,2.55,1.14l.6-.79,2.95,3.1c.47.49.99,1.33,1.5,2.02l4.28-5.22c1.48,1.03,3.13,1.53,4.6,2.38,1.7.98-.46,4.35.15,5.04,1.87-1.14,3.32-2.14,4.81-3.37l.92,2.11c.65-.87,1.3-2.24,1.11-2.9-.83-.77-1.16-1.27-1.59-2.29l-3.2,3.48c-.15-.62.04-1.47.41-1.89l3.4-3.82,1.27,3.18,1.24-2.74-2.57-2.53c-1.81,3.9-5.16,3.66-8.67,4.11,2.37-2.22,3.9-1.11,5.9-2.28.66-.39,3.08-3.51,2.79-4.78-.08-.37-.76-.98-1.1-.98-5.16,4.53-5.09,3.03-10.03,5.72,1.39-2.8,3.65-4.54,5.43-6.65l.95-2.6-.02,2.48c1.08-.61,1.86-1.48,1.7-2.53-.12-.76-.99-2.16-1.7-1.91-1.34.49-1.91.63-3.04.25l-2.92,1.61c.26-.88.96-2.08,1.64-2.31ZM22.2,19.95l.93-.14c.21-.03.24-.56.28-.79.61.7.94,1.04,1.43,2.36l-2.64-1.43Z"/>
      <path d="M53.65,16.8l.5-.57c.09-.1.19-.12.2,0l.13,1.2c1.74-1.69,3.24-3.88,3.09-6.94-2.85,4.2-5.1,3.02-6.06,5.69.42-1.52-.01-2.43-.88-3.36-.29-.31-.77-1.28-1.16-1.35l-2.97-.52c1.18-.51,1.65-1.74,2.57-3.34l-.5,2.18c.42,3.07,1.84-2.39,1.96-2.92.53-2.51-.43-5.07-1.86-6.89.42,3.14-.63,6.24-3.37,7.92l.59,2.61-2.67-4.86c-.32,1.73-.56,3.03-1.29,4.19l-2.99,4.79c-.7,1.13-1.26,2.48-1.51,3.74,1.44-.42,2.42-.35,3.66-.02l.82.22c.11.03.1.08,0,.18l-.48.5c.74,1.11,1.05,2.42.92,3.81,1.15-.88,2.52-1.75,3.74-1.39.82.24,1.93,1.29,2.71,2.04,2.97-2.47,5.18.37,8.8.45-1.09-1.69-2.37-2.82-2.95-4.48l-1.01-2.9ZM43.01,16.54l1.19-.94-.14-2.81c-.68-.05-2.11,2.06-1.94,2.4l.64,1.26c-.5-.15-1.16-.79-1.09-1.23.09-.59.49-1.42.88-1.77l2.07-1.88c.09,1.76.12,2.65.34,4.01-.24.49-1.17.96-1.94.97ZM48.92,19.99c-.61.16.03-1.85-.29-2.05l-.74-.47c.21-.58,1.46-1.33,1.89-.99l-.67,1.87c-.13.37.53.85.93,1.33l-1.13.31Z"/>
      <path d="M9.1,23.75c.74-.93,1.9-2.16,2.89-2.1,1.12.07,2.01.63,3.3,1.35l.33-2.6c.11-.88.81-1.91,1.61-2.3.72-.36,1.71-.02,2.96.38-.17-4.46-5.43-7.05-5.69-13.05l-2.17,4.35c.97-3.8-3.43-1.25-3.33-9.69-2.14,2.79-2.41,6.14-1.1,9.34l.35.85c.08.2.85.09.97.04l-.53-2.78,1.57,2.89,2.08-.69c-.82,1.57-2.92,1.95-4.45,1.49-.3,1.05-.77,1.63-1.5,2.32l-.5,3.01-.16-1.83C3.37,14.07,1.55,12.56.11,10.42c-.63,2.97,1.7,5.19,3.09,7.54.53,2.45-1.82,4.11-2.86,6.24,4.11-.56,5.22-2.86,8.76-.45ZM12.84,14.65l.45-3.47,1.52,1.58c.59.61,1,1.33.91,2.2l-1.81-1.87c-.21.74-.38,1.56-.41,2.1-.02.51,1.1.85,1.89.97-1.42,1.29-2.17-.44-3.2-1.13-1.39-.93-3.26-1.07-4.3-2.54l4.95,2.15ZM8.71,19.1l-.77-2.91c.98.29,1.66.6,2.66,1.27l-1.41-.02.18,1.87c-.48.46-1.62.97-2.58.89l1.91-1.1Z"/>
      <path d="M31.7,17.33c3.65-2.38,1.38-2.66,4.84-7.27,1.66-2.22-.54-4.92-1.5-7.04l-1.88,3.5c.86-.31,1.28-.89,1.71-1.75,1.51,2.07.86,4.46-.97,6.29-.66.66-.8,1.01-2,.9l-2.01,3.24c-.18.29-.69.76-.99.87-.3.11-.87-.56-1.06-.87l-1.83-3.06c-2.09.3-5.11-4.71-3.36-7.07l2.18,1.63-2.18-3.79-1.97,4.49c-.56,1.28.68,2.68,1.22,3.78l2.09,4.27c1.75,1.52,3.4,3,4.8,4.84.77-1.13,1.77-2.22,2.92-2.97Z"/>
      <path d="M33.51,34.82c-2.43.47-3.38,2.72-4.61,4.46-1.15-2.08-2.46-3.99-4.9-4.5-.79-.16-2.35.86-2.79,1.56.73,1.39,1.57,2.35,2.76,3.25l.14-1.82c.62,3.35,2.33,2.87,4.76,6.43,2.5-3.69,2.73-2.45,4.68-5.44l.63,1.05,2.63-3.41c-.96-.82-2.22-1.78-3.3-1.57Z"/>
      <path d="M36.28,40.31c-2.24-.89-6.13,3.13-7.39,5.62-.74-1.78-5.76-7.76-8.12-4.69-.02,1.45,1.56,2.83,2.77,3.63,1.32.87,4.23,3.8,5.34,5.15,2.41-3.42,2.97-2.2,4.34-4.84.2.04,1.2-.11,1.4-.36l2.32-2.85c.29-.36-.27-1.5-.66-1.65Z"/>
      <path d="M28.88,51.51c-1.05-1.9-3.04-3.64-4.98-5.06l-2.19.94c1.57,4.88,3.21,1.37,7.19,7.33l2.2-2.47,1.94-2.23.11.89c1.1-.43,2.86-2.03,2.54-3.38-.77-3.27-6.09,2.51-6.82,3.98Z"/>
      <path d="M34.63,54.27c.56-.43.27-2.18-.08-2.84-2.54.46-4.1,2.25-5.61,4.36-1.42-1.92-3.01-4.02-5.49-4.07-.59,0-1.03,1.81-.56,2.21l6.06,5.09c1.69-1.84,3.64-3.25,5.69-4.74Z"/>
      <path d="M46,44.19c-1.55.66-1.74,2.2-2.64,3.46-.89,1.24-2.14,2.42-3.31,3.63l-.67-1.47c-.66,1.14-1.06,2.04-1.39,3.2l-1.07,3.81c1.53-1.2,2.72-2.59,4.34-3.57l5.27-3.18c-1.53-1.99-1.37-3.78-.53-5.88Z"/>
      <path d="M9.47,28.51l2.89-5.21c-1.48.21-2.37.94-3.5,1.8-1.28-1.26-4.14-1.66-5.2.05-1.07,1.72-1.77,3.6-2.26,5.43,2.67-1.74,5.25-3.65,8.07-2.06Z"/>
      <path d="M16.71,53.44c1.52.92,2.75,2.3,4.18,3.33l-1.92-5.81c-.09-.27-.71-.82-.89-.66l-.82.77c-.97-1.12-2.09-2.35-3.01-3.55-.84-1.1-1.03-2.67-2.37-3.3.44,2.12.89,4.16-.75,5.84l5.57,3.39Z"/>
      <path d="M50.61,24.07l-1.98,1.04c-.99-1.01-2-1.7-3.25-1.72l2.92,5.11c3.6-1.5,5.21.54,8.2,2.07-.82-2.21-1.72-4.1-2.72-6.02l-3.18-.49Z"/>
      <path d="M14,28.62l-2.01,2.48c-.49.6.2,2.37.6,2.84l1.6-2.8,2.74,3.07c.58.65.98,1.52.99,2.52l-3.39-3.43c-.47.91-.8,1.4-1.46,2.27-.49.65.41,2.38.99,2.71l1.11-1.84,4.92,3.27c-.17-1.99-1.32-3.1-.49-4.73.36-.71,1.93-1.15,2.94-1.69l-6.1-1.52c-1.05-.26-1.77-2.26-2.43-3.16Z"/>
      <path d="M28.8,7.19c.8.09,2.14-1.21,2.51-1.52l1.32.83-1.08-2.45-2.47,2.67-2.98-2.71c-.46.69-.83,1.55-.93,2.66l1.26-1.03c.45.42,1.54,1.44,2.38,1.54Z"/>
      <path d="M28.89,29.73c.7-1.19,1.03-1.91,1.37-3.07l-1.6,1.01-.87-2.21c-.54,1.67.19,2.65,1.09,4.27Z"/>
      <path d="M17.35,40.76l.74,1.06c.14.2.58-.2.62-.19.86,1.5,1.63,2.59,2.56,3.55-.63-1.83-1.12-2.75-1.81-3.99l-2.09-.43Z"/>
      <path d="M40.31,40.49c-1.69.11-3.53,1.54-2.93,3.58.98-1.55,1.54-2.33,2.93-3.58Z"/>
      <path d="M5.38,12.54c.14.15,1.03-.09,1.05-.3.1-1.04-.9-1.71-1.92-2.49-.05.95.4,2.29.87,2.79Z"/>
      <path d="M21.93,27.98c-.7-1.51-1.74-2.21-3.18-2.3.44,1.7,1.81,2.05,3.18,2.3Z"/>
      <path d="M51.83,12.63c1.07-.34,1.3-1.43,1.43-2.83-.74.47-1.76,1.44-2.1,2.06-.13.23.43.85.68.77Z"/>
      <path d="M38.09,25.46c-.19.06-.88.31-.98.49l-.98,1.75c.88.31,1.75-.18,2.21-1.21.11-.24,0-1.1-.25-1.02Z"/>
    </g>
  </g>
</svg>