<?xml version="1.0" encoding="UTF-8"?>
<svg id="Warstwa_2" data-name="Warstwa 2" xmlns="http://www.w3.org/2000/svg" viewBox="0 0 51.18 56.99">
  <g id="icon-v9-equipment-pixarts-store">
    <g id="icon-v9-equipment-pixarts-store_165">
      <path d="M47.32,21.07c-.06,4.16-.05,1.32-1.12,3.7-.74,1.65,2.05,1.98,2.29,3.11-1.56-.47-3.04-1.28-4.08-.32l-.86,2.62c1.5.69,3.11,1.67,3.69,3,2.27,5.14-4.3,11.48-8.35,14.06,1.89-1.99,3.62-3.99,4.48-6.35-1.21-.58-1.82-1.3-2.54-2.46l-3.14,2.09c1.05-2.14,3.13-3.62,3.06-6.43-1.3,1.94-2.43,3.92-4.23,5.52-5.17,4.6-11.44,7.66-18.36,8.42-1.64.18-3.35-.17-5.14-.14,2.42,1.75,5.14.83,7.78,1.16l-2.91,1.24c3.63,5.09,5.09,2.77,10.27,2.53-3.81,1.82-8.18,2.47-12.24,1.38-3.63-.97-5.69-4.12-4.52-7.77,1.49-4.66,6-7.91,9.64-10.47-.68-.34-1.81-.84-2.39-.77-.5.06-1.07.66-1.78,1.27-.34.29-1.04-.08-1.63-.76-4.06,3.36-7.59,8.11-7.87,13.93-.87-5.41,2.71-10.63,6.46-14.42l-3.18.03c-.12-.39-.25-1.3-.49-1.24l-1.45.36-.72-2.93-2.25.86-1.07-5.75c-.06-.31-.71-.99-1.02-1.31-3.99,7.69-5.49,15.49-.32,23.06,1.98,2.9,4.28,5.62,7.53,7.12,7.8,3.61,17.26.46,24.43-3.41,5.5-2.97,10.23-6.91,13.57-12.23,1.36-2.15,2.47-4.65,2.34-7.19-.22-4.17-1.82-8.01-3.85-11.51Z"/>
      <path d="M42.95,21.66c1.53-3.62.82-7.83-1.92-10.66l-1.22,1.13c2.14,2.92,1.92,8.02-1.93,9.45-.93.34-2.33-.45-3.44-.72l1.32,2.32c.53,2.9.41,6.22-1.77,8.78-1.82-2.68-3.66-4.92-6.36-6.03.5-1.08.91-2.17,1.11-3.37l-1.87-.93c-.68,1.37-1.01,2.03-1.87,2.46-2.24,1.11-4.51,1.82-6.75.49-1.8-1.07-3.24-3.03-3.01-5.55l-.89-.18,1.06-1.6c-1.3-.2-2.56-.28-3.85-.16-2.18,3.65-.84,7.75,2.26,10.33,2.84,2.36,6.14,2.99,9.79,1.73-3.33,2.7-7.83,2.08-11.14-.51-3-2.36-4.19-6.45-2.97-10.22l-.96-.07.94-1.79-2.78-.66-2.17,4.27,1.35.02-1.12,3.63,1.25-.2.98,6.25c.76-.21,1.42-.53,1.58-.26l.61,1.02c.24.41.58,1.29.96,1.25l1.55-.19.49,1.77h3.37s1.28,1.3,1.28,1.3c1.77-1.64,3.26-1.22,4.91-.45l2.99,1.4.32-1.12,4.34,1.67-.03-1.59,5.26,2.53,2.37-3.89.52,1.13c2.69-5.15,2.41-1.88,3.35-4.33.21-.54.38-1.19.65-1.35.27-.16,1.06-.18,1.23-.49l1.37-2.46c1.88-3.38,2.29-4.69.87-7.81-.26,3.35-1.74,7.45-5.75,7.17,1.54-.67,3-1.76,3.72-3.49Z"/>
      <path d="M2.85,6.01c-.32,2.99,3.28,5.4,4.65,6.76l-3.3-.46c2.11,3.1,6.28,3.04,9.31,2.83-1.53-.87-2.66-1.47-3.91-2.53,8.25.8,12.07,5.57,19.84,8.06l1.56-2.95,2.08,1.45c3.38-3.17,3.68-7.61,6.6-10.48l.09,1.45c1.39-.91,2.38-2.21,2.4-3.8l-1.61.9c.69-2.73,1.07-4.98-.36-7.23-1.69,6.25-4.47,4.72-6.89,10.69l.68-4.19c-2.86-1.09-6.06-1.46-9.05-.92l1.17,1.46c-5.01-2.11-7.04-.9-11.64,1.75,2.89.6,5.63,1.31,7.37,3.9-3.24-1.4-6.36-2.65-9.89-2.86-3.37-.2-6.35-1.78-9.1-3.81Z"/>
      <path d="M17.33,17.89c-.94,2.57.42,4.65,2.45,5.55,2.06.92,4.82-.48,5.36-2.23.1-.33-.51-.9-.75-.84-1.3.35-2.01,2.58-4.14,1.14-.77-.52-.93-1.58-.36-2.87l-2.55-.75Z"/>
      <path d="M34.03,29.52c.82-2.47.88-4.91-.09-7.3-.29-.73-1.52-1.96-2.29-1.38-.68.5-1.03,1.98-1.06,2.63.46-.31.93-.73,1.03-.51l.4.86c2.15,4.61-.57,1.55,2.01,5.7Z"/>
      <path d="M36.12,18.73l-.96.13c-.13.02.14.65.3.76,1.1.73,3.1.53,3.86-.87.79-1.46,1.05-3.75-.69-4.85-.45-.29-.96,1.24-.64,1.78.39.67.42,1.62.14,2.09-.43.71-1.18.85-2.01.97Z"/>
    </g>
  </g>
</svg>