<?xml version="1.0" encoding="UTF-8"?>
<svg id="Warstwa_2" data-name="Warstwa 2" xmlns="http://www.w3.org/2000/svg" viewBox="0 0 54.01 53.9">
  <g id="icon-v9-equipment-pixarts-store">
    <g id="icon-v9-equipment-pixarts-store_388">
      <path d="M8.18,20.3c.28.78-.04,2.07-.63,2.6-1.75,1.59-1.83,4.01-.17,5.64.78.77,1.09,2.04.73,3.08-.8,2.28.28,4.46,2.62,5.07.79.2,1.54,1.25,1.59,2.07.15,2.62,2.08,4.3,4.73,3.99.87-.1,1.97.34,2.35,1.13,1.2,2.45,4.04,3.13,6.24,1.52,2.32-1.69,3.14,1.66,6.51.69,2.5-.72,2.48-3.9,4.35-3.39,2.62.71,4.8-1,5.15-3.56.2-1.46.97-2.24,2.43-2.73,1.23-.42,2.43-2.44,2.12-3.71-.42-1.71-.6-3.04.64-4.31,1.44-1.47,1.39-3.88-.22-5.32-.65-.58-1.04-1.8-.74-2.67.69-2.05,0-4.45-2.11-5.23-3.4-1.26-1.16-3.22-3.77-5.05l-3.81-2.66c-1.07-2.79,2.09-7.3-1.15-6.67l-2.86,10.45c5.36,2.21,8.85,7.09,9.06,12.63.22,5.74-2.9,10.99-8.11,13.53-7.48,3.65-16.1.11-19.25-7.4-3.05-7.29.37-15.64,7.92-18.8l-2.93-10.14c-.12-.41-1.28-.31-1.34,0-.38,2.05.78,3.39.3,6.39l-3.49,2.36c-3.09,2.09-.93,4.46-3.54,5.17-2.44.66-3.47,2.92-2.61,5.33ZM17.05,11.36c-4.01,3.91-6.82,8.27-6.87,13.96-.08,8.76,6.53,16.32,15.28,17.14,7.57.71,14.38-3.9,17.1-10.5,3.02-7.34.58-14.96-5.3-20.23,5.6,3.24,8.21,9.83,7.37,16.27-1.26,9.69-10.3,16.59-19.95,15.37-4.29-.54-7.82-2.54-10.68-5.6-7.33-7.84-6.17-20.67,3.05-26.41Z"/>
      <path d="M33.14,3.79c.34-.77.52-1.65.3-2.06-4.09-2.16-9.22-2.41-13.33-.12l.49,2.01c4.16-2.07,8.3-2.1,12.53.18Z"/>
      <path d="M34.44,45.42c.04.11.09.52.22.64l4.75,4.62-.95-7-2.44.08,1.46,3.98-2.26-2.27c-.11-.11-.83-.22-.77-.06Z"/>
      <path d="M29.2,46.79l-2.25-.85-.27,4.75-1.01-3.57c-.05-.19-.65-.61-.71-.45-.06.17-.18.73-.12.9l2.19,6.32,2.17-7.11Z"/>
      <path d="M11.66,40.08c.03-1.2-2.71,1.08-3.73.94l2.94-2.89c-.39-.55-1.68-1.26-2.13-.91l-3.59,5.63,5.86-2c.25-.08.64-.55.65-.78Z"/>
      <path d="M44.7,14.96l3.96-6-6.52,2.22.68,2.34,3.07-2.14c-.13,1.67-2.04,1.78-1.19,3.59Z"/>
      <path d="M43.19,38.17l2.81,2.9c-1.67-.19-2.66-1.75-3.53-1.21-.19.12.13.88.46.99l5.92,1.99-3.63-5.59c-.51-.24-1.69.38-2.03.92Z"/>
      <path d="M15.49,43.67l-1,7.11,4.56-4.58c.15-.15.32-.61.27-.74-.05-.13-.34-.34-.44-.26-.11.09-.35.3-.45.41l-2.32,2.52,1.73-4.34-2.35-.13Z"/>
      <path d="M9.42,14.67c.04-.18.09-.66,0-.81l-1.65-2.66,3.37,2.34c.23-.64.45-1.65.46-2.4l-6.21-2.2,3.24,5.27c.13.22.75.64.79.46Z"/>
      <path d="M46.87,21.44l4.29-.79c-1,1.28-2.82.73-3.25,2.73,2.14-1.11,3.92-2.29,6.1-3.8l-6.96-.48-.17,2.35Z"/>
      <path d="M3.15,31.49l4.09-1.37-1.36-1.92L.02,31.92l7.15.69c-1.17-1.89-2.61-.24-4.03-1.12Z"/>
      <path d="M46.87,30.08l3.82,1.36c-1.45.79-2.86-.55-3.91,1.2l7.2-.69-5.88-3.73-1.23,1.87Z"/>
      <path d="M2.9,20.71l3.98.72c.57-.19.34-2.29-.28-2.25l-6.6.39c2.19,1.4,3.91,2.85,6.23,3.73-.87-1.57-2.32-1.76-3.33-2.58Z"/>
      <path d="M42.52,4.11l-4.03-.33c-.39-.03-1.35-.21-1.37.14l-.06,1.35c1.8.11,3.82.7,5.46-1.16Z"/>
      <path d="M16.53,5.38c.51-.47.32-1.8-.08-2.26-.28-.32-1.36.23-1.5.62-.12.34-.07,1.02.08,1.35.15.33,1.23.54,1.51.28Z"/>
    </g>
  </g>
</svg>