<?xml version="1.0" encoding="UTF-8"?>
<svg id="Warstwa_2" data-name="Warstwa 2" xmlns="http://www.w3.org/2000/svg" viewBox="0 0 40.71 57.23">
  <g id="icon-v9-equipment-pixarts-store">
    <g id="icon-v9-equipment-pixarts-store_211">
      <path d="M34.68,25.32c-.98-.96-2.38-.64-3.38-1.12l-6.34-3.07c-.28-1.4-.32-3.36-2.19-3.66l.3,3.4-5.36-.02.03-3.38c-2,.39-1.49,2.62-2.05,3.7l-6.26,3.08c-1.08.53-2.57-.1-3.46,1.24-.48.72-.34,2.24-.48,3.1l-2.68,6.82c-.42,1.08-2.07,1.19-1.86,2.9.13,1.04,1.46,1.8,1.82,2.7l2.73,6.82c.41,1.02-.35,2.29.79,3.29.78.69,2.23.56,3.07.97,2.76,1.36,5.35,2.51,8.25,3.62.84.32,1.76,1.45,2.69,1.52,1.22.09,1.91-1.22,2.82-1.55,2.86-1.07,5.46-2.2,8.18-3.59.83-.42,2.4-.24,3.13-.93,1.11-1.07.36-2.23.87-3.5l2.71-6.73c.41-1.01,1.73-1.58,1.63-3.07-.07-1.01-1.33-1.65-1.67-2.52l-2.66-6.75c-.41-1.04.24-2.43-.62-3.27ZM35.72,38.17c0,8.48-6.87,15.35-15.35,15.35s-15.35-6.87-15.35-15.35,6.87-15.35,15.35-15.35,15.35,6.87,15.35,15.35Z"/>
      <path d="M17.95,12.01c-.03,2.33.55,4.84,1.14,7.13.38.4,2.27.5,2.43-.07.57-2.23,1.01-4.68,1.22-6.94-1.28-.93-3.31-.86-4.79-.13Z"/>
      <path d="M4.8,5.22c-.15.22-.04.83.17,1.05l4.39,4.41c.27.27,1.41-.13,1.37-.42-.03-.24-.2-.81-.39-1l-4.28-4.2c-.23-.23-1.12-.06-1.27.16Z"/>
      <path d="M35.73,4.98c-.26-.14-1.08-.09-1.3.14l-4.14,4.36c-.18.19-.17,1-.07,1.22.11.22.85.3,1.08.07l4.37-4.4c.3-.3.38-1.22.07-1.39Z"/>
      <path d="M39.93,1.01c-1.4,2.67-2.81,4.55-4.72,6.81.51.4,1.77.3,2.18-.24l2.97-3.89c.59-.78.43-2.29-.42-2.68Z"/>
      <path d="M8.47,12.82l3.4,2.57c.7.53,2.17.09,2.42-.44-2.43-1.34-4.39-2.99-6.55-4.94-.61.87-.16,2.14.73,2.81Z"/>
      <path d="M.22,3.32l2.66,3.78c.57.81,1.89,1.19,2.8.8C3.66,5.66,2.14,3.7.69,1.15.1,1.35-.25,2.66.22,3.32Z"/>
      <path d="M32.75,12.36c.45-.39.46-1.82.22-2.28-2.14,1.93-3.95,3.51-6.57,4.89,1.18,2.18,5.03-1.46,6.35-2.61Z"/>
      <path d="M28.33,8.25l-2.53,1.9c-.7.53-1.26,1.54-.62,2.41l5.89-4.51c-.99-.83-1.93-.41-2.75.2Z"/>
      <path d="M14.81,10.04l-2.9-2.06c-.56-.4-1.37-.52-2.29-.1,1.97,1.78,3.74,3.12,6,4.59.39-.86-.05-1.9-.8-2.43Z"/>
      <path d="M8.02,3.87L5.44.42c-.27-.37-1.33-.48-1.95-.25l4.18,5.91c.56-.68.72-1.72.35-2.21Z"/>
      <path d="M35.02.64l-2.14,2.92c-.48.65-.59,1.92.27,2.31l3.96-5.55c-.73-.44-1.68-.25-2.09.32Z"/>
      <path d="M26.42,12.39l-2.68,1.35c-.38.19-.49,1.44-.29,1.82l3.77-1.69c.33-.15.6-1.16.35-1.39-.21-.19-.88-.24-1.15-.11Z"/>
      <path d="M13.51,12.29c-.25.14-.47.71-.64,1.18l4.21,2.08c1.14-2.08-3.23-3.46-3.58-3.26Z"/>
      <path d="M2.36.01l-1.39.25,1.18,1.99c.19.33.99.54,1.29.34.25-.16.39-1.04.23-1.32C3.29.64,2.75-.06,2.36.01Z"/>
      <path d="M37.28.78c-.26.54-.41,1.85.61,1.83.64-.26,1.4-1.63,1.64-2.33-.89-.5-1.86-.34-2.26.5Z"/>
      <path d="M20.36,24.08c-7.79,0-14.11,6.32-14.11,14.11s6.32,14.11,14.11,14.11,14.11-6.32,14.11-14.11-6.32-14.11-14.11-14.11ZM27.45,36.3l1.2-.73-.27,1.32c-.04.21.36.25.77.3-.25,1.65,1.57,3.57-.08,4.97-1.28,1.09-3.4,0-3.4.03l-.24.8c-.07.23-.29,1.06-.05,1.12l1.54.38.53,1.85-1.99,2.79c-.3.42-1.18,1.12-1.64,1.57l-.59-.88c-.12-.19-.71.12-1.15.23l.06-1.64c-.15-.06-.02-.51.13-.5l.87.02c.46.01,1.12-.07,1.37-.31.26-.24.17-1.26-.15-1.44-.53-.31-1.59-.26-1.99-.02l-1.44-2.87c-.21-.23-1.64.05-1.66.49-.02.62.34,1.42.76,2.19-.73.58-1.84,1.04-3.01,1.32l-1.14,1.12c-.21-.19-.63-.71-.82-.63l-1.11.44-.05-1.11c-.01-.22-.47-.2-.96-.43.26-.21.78-.5,1.46-.86.45.22-1.12-.6-.48-.59,2.04.04.97.94,2.3.77.4-.05,1.23-.85,1.11-1.23-.25-.79-1.52-1.44-2.56-2.06l1.25-.12c.71-1.11,1.77-1.79,3.17-1.82,1.14-.03,1.82.66,2.2,1.62.51-2.24-2.27-2.17-3.91-4.11-.43.46-1.03.89-1.49,1.03l-1.83.53-.69,1.03c-.3-.19-.82-.57-1.01-.41l-.99.81-.16-.92c-.04-.24-.54-.31-1.06-.57.05-.23.68-.84,1.18-1.24l-.85-.54c.6-.34,1.14-.21,1.95.17.87.41,1.89-1.08,2.67-1.35l4-1.39c-1.16.09-2.06.26-3.31.51-1.53.3-2.52-2.16-3.15-2.57-.28-.18-.83,0-1.63.05l.89-1.41-1.47-.62c.65-.88.85-1.27.98-1.92l1.12.14c.21.03.35-.33.67-.7.36.67.44,1.33.46,2.47l2.4,2.27c1.84-2.04,3.51-.24,3.66-2l-1.52.28-.31-.86c-.09-.24-.67-.19-1.11-.3l-.9-.23c-.2-.05-.08-.86-.01-.58l2.29.42c.19.03.68.35.84.44.22.13.51-.61.5-.88-.04-.6-.38-.04-2.09-.37-.33-.06-.4-1.13-.11-1.29,3.02-1.66,1.55-1.17,4.97-1.86.28.25.92.6,1.35.78l.89,2.3c.6,1.56-.45,4.44.08,4.78l-.86-.56c-.16.81-.21,1.88-.15,2.82l-1.31-.15c.45,1.48,5.14,7.2,6.23,4.87.17-.36.22-1.16.09-1.55-.34-1.04-2.84-.43-2.77-1.24l.14-1.45c.18-1.87.51-3.22,2.46-3.97.91-.35,1.63-1.5,1.15-2.41-.14-.27-1.05-.66-1.21-.42s-.15.59-.18,1.33c-.4.35-1.56.93-2.27,1.24l.33-2.94,1.99-.55c.57-.16,1.67.3,2,.77,2.11,3.08-3.91,4.28-2.84,6.23Z"/>
    </g>
  </g>
</svg>