<?xml version="1.0" encoding="UTF-8"?>
<svg id="Warstwa_2" data-name="Warstwa 2" xmlns="http://www.w3.org/2000/svg" viewBox="0 0 40.61 56.11">
  <g id="icon-v9-equipment-pixarts-store">
    <g id="icon-v9-equipment-pixarts-store_236">
      <path d="M29.67,21.42c-5.44-2.24-11.22-1.61-15.63,1.57-4.26,3.08-6.14,8.44-4.39,13.19,1.54,4.15,5.8,6.72,9.82,5.07-2.34-.14-4.27-.76-5.44-2.74-2.02-3.39-1.57-7.87,1.48-10.66v2.02c2.17-3.53,5.84-4.26,9.98-4.2-1.87-.45-3.68-.49-5.87-.6,4-2.11,8.45-1.57,12.46.36,3.13,1.51,5.03,4.2,6.96,7.06-1.18-5.28-5.18-9.34-9.37-11.07Z"/>
      <path d="M29.36,49.12c3.39-4.5,2.83-10.88-1.6-14.32-1.85-1.43-4.19-2.23-6.42-1.15,2.35.2,4.38,1.16,5.46,3.37,1.7,3.5,1.03,7.7-2.14,10.41l.28-1.98c-3.02,3.75-5.5,3.61-10.23,3.79,2.15.92,4.44.9,6.66.73-4.49,2.52-9.46,1.86-13.51-.63-2.68-1.64-4.45-3.99-6.35-6.54,2.13,7.99,9.79,13.13,17.92,12,4.05-.56,7.54-2.5,9.94-5.69Z"/>
      <path d="M35.26,49.35c4.2-6.16,3.29-14.56-2.05-19.63-4.81-4.56-12.24-4.2-16.19,1-1.39,1.83-1.82,4.2-.65,6.19.07-3.19,1.82-5.29,4.7-6.18,4.46-1.38,9.13,2.23,8.85,2.5l-.49.48c2.3,2.23,3.18,5.29,3.18,8.43.52-1.45.66-2.73.9-4.43,3.12,7.49-1.08,14.69-7.83,18.41,3.97-.98,7.31-3.42,9.59-6.76Z"/>
      <path d="M3.34,39.27c1.23,3.81,3.91,7.14,7.72,8.55,4.34,1.61,9.19.15,12.19-3.16,1.81-2,2.18-4.64.88-6.94.04,3.59-2.27,6.21-5.78,6.67-3.39.44-6.95-1.1-9.15-3.59.05-.21.2-.78.21-.88l-1.4-3.8-.05,3.03c-2.27-3.47-2.56-7.85-.92-11.81,1.45-3.7,4.39-6.11,7.77-8.18C5.91,21.32.47,30.44,3.34,39.27Z"/>
      <path d="M21.43,18.59c.62-1.89,1.17-4.33.96-6.29-1.09-.83-3.4-.84-4.31.15-.08,2,.39,4.19.96,6.1.18.59,2.18.61,2.39.03Z"/>
      <path d="M35.9,5.17c-.07-.24-1.01-.37-1.21-.16l-4.44,4.53c-.25.25-.22,1.29.07,1.39.23.08.92,0,1.1-.18l4.29-4.39c.23-.24.26-.94.19-1.18Z"/>
      <path d="M9.15,10.8c.24.25,1.12.19,1.3-.09.14-.23.09-.92-.13-1.15l-4.25-4.37c-.22-.23-1.01-.27-1.2-.02-.15.2-.15,1.03.03,1.22l4.25,4.41Z"/>
      <path d="M39.96.89c-1.28,2.72-2.74,4.74-4.74,6.95.63.54,1.8.39,2.32-.28l2.27-2.94c.79-1.02,1.25-2.51.15-3.74Z"/>
      <path d="M3.07,7.58c.47.65,1.85.85,2.41.3l-2.75-3.36c-.77-.95-1.33-2.13-2.04-3.46C-.14,1.6-.2,3.03.39,3.86l2.68,3.73Z"/>
      <path d="M7.58,10.22c-.37.78-.1,1.96.58,2.47l3.5,2.66c.75.57,2.14.35,2.61-.33-.71-.39-1.61-.74-2-1.05l-4.69-3.75Z"/>
      <path d="M29.04,15.28l3.33-2.51c.68-.51.94-1.84.54-2.53-2.2,1.93-4.11,3.46-6.62,4.98.71.56,2.03.61,2.75.07Z"/>
      <path d="M28.85,7.93l-3.34,2.44c-.47.34-.69,1.28-.48,2.09,2.29-1.41,4.05-2.67,6.03-4.4-.6-.61-1.62-.57-2.21-.14Z"/>
      <path d="M14.75,10.11l-3.14-2.21c-.44-.31-1.25-.3-2.07.07,1.89,1.76,3.64,3.03,5.91,4.5.6-.95.09-1.8-.7-2.36Z"/>
      <path d="M35.29.35l-2.6,3.63c-.3.42-.24,1.23.31,2.06L37.04.42c-.19-.55-1.44-.5-1.75-.07Z"/>
      <path d="M4.95.15c-.18-.17-1.25-.22-1.2,0,.04.16.11.81.21.96l3.46,4.75c2.49-.36-1.97-5.23-2.47-5.71Z"/>
      <path d="M23.32,15.71l3.77-1.72c.25-.11.54-.74.59-.96s-.41-.8-.63-.74c-1.6.45-4.59,1.33-3.73,3.42Z"/>
      <path d="M15.96,13.21l-2.21-.91c-.18-.07-.62.25-.71.43-.09.18.05.96.23,1.05l3.56,1.76c.74-1.06.06-1.95-.88-2.34Z"/>
      <path d="M1.18.34c.21.98,1.03,2.48,2.08,2.08.47-.18.14-1.55-.17-1.95C2.73.02,1.44.01,1.18.34Z"/>
      <path d="M37.6,2.58c1.12,0,1.66-1.5,1.9-2.36-.52-.31-1.69-.11-2.1.41-.34.43-.35,1.95.2,1.94Z"/>
    </g>
  </g>
</svg>