<?xml version="1.0" encoding="UTF-8"?>
<svg id="Warstwa_2" data-name="Warstwa 2" xmlns="http://www.w3.org/2000/svg" viewBox="0 0 52.18 56.64">
  <g id="icon-v9-equipment-pixarts-store">
    <g id="icon-v9-equipment-pixarts-store_208">
      <path d="M20.83,15.44c-.31.26-.57,1.04-.57,1.45v1.37s-1.28-1.93-1.28-1.93c-.55.02-2.01.79-2.02,1.43-.03,2.76,1.15,5.37,1.71,4.52l.62-.93c1.28,1.94,1.96,4.66-.02,6.28-.41-.83-.89-1.42-1.73-1.55-.32,7.36,2.94,4.68,3.5,8.62-.9-.78-1.34-1.3-2.29-1.45.23,4.33.92,7.78,1.95,12,1.17-.66,1.82-1.33,2.99-2.31l-2.38,4.99,4.79,8.7c.92-1.39,1.44-2.8,1.85-4.13-.15-.33-.57-1.09-.63-1.38l-.68-3.69c.92,1.25,1.34,2.37,1.99,3.89,2.36-4.05,2.68-4.72,3.01-9.81l-3.18,3.15c.59-1.5,1.23-2.71,2.06-3.96l2.33-1.61c.49-1.33.51-2.78.43-4.12l-2.24,1.27c.5-1.58,1.59-2.2,2.63-3.12.47-2.32.75-4.73.94-7.02-1.15.1-1.47.65-1.84,1.6-2.32-2.67-1.16-3.76.01-6.62l.7,1.21c.12.2,1.03-.41,1.07-.64.87-4.35,1.17-5.09-2.11-7.3l-6.27,2.67,3.11,1.8c-4.49.83-6.76-4.78-8.47-3.37ZM27.57,41.24c-.04.21-.8.34-.97.15l-3.62-3.95,3.29-3.57c.15-.16.79-.3.93-.16.14.14.15.74.02.9l-2.49,2.86,2.64,2.85c.15.16.25.72.2.93ZM27.71,38.24c-.47,0-.85-.38-.85-.85s.38-.85.85-.85.85.38.85.85-.38.85-.85.85ZM29.31,25.18l-3.29,2.31,2.83,2.36c.24.2-.27,1.13-.52,1.03l-3.33-2.43c-.53,1.5.57,2.75-1.31,3.74v-10.79c2.26,1.31,3.71,2.32,5.62,3.79Z"/>
      <path d="M32.52,24.55c-.13.2.56.96.77.86,8.78-4.17,5.64-5.27,4.82-4.76l-4.92,3.06c-.23.14-.55.65-.67.85Z"/>
      <path d="M13.03,20.68c-1.27,1.18,5.09,4.38,5.99,4.75.8-.58.4-1.62-.44-2.05-2.9-1.48-4.8-3.39-5.55-2.7Z"/>
      <path d="M47.29,4.39l-2.23,4.86c-.12.26.23,1.2.49,1.14.19-.05.82-.26.93-.48l2.29-4.84c.14-.29-.2-1.21-.47-1.14-.2.06-.92.27-1.01.46Z"/>
      <path d="M6.55,10.46c1.21-1.08-2.22-7.86-2.88-6.34-.11.25-.28.97-.14,1.28l2.02,4.54c.13.29.77.71.99.52Z"/>
      <path d="M44.47,12.76c-.19-2.68-4.28,5.27-4.22,5.14-.12.24.55.98.74.84.14-.1.65-.4.78-.6l2.77-4.37-.07-1.01Z"/>
      <path d="M10.41,18.3c.16.25,1.05.51,1.17.27.12-.23.22-.96.05-1.23l-2.59-4.22c-.21-.34-1.05-.61-1.27-.36-.18.2-.28.98-.12,1.25l2.76,4.29Z"/>
      <path d="M43.11,17.51c-1.46,2.14-2.75,3.83-4.53,5.61.3.38,1.83.43,2.24-.11l2.64-3.39c.39-.5.14-1.74-.36-2.11Z"/>
      <path d="M9.11,17.54c-2.2.97,3.13,7.62,4.56,5.58-1.85-1.72-3.11-3.37-4.56-5.58Z"/>
      <path d="M47.74,8.98l-3.36,6.45c.85.27,1.94-.35,2.38-1.25l1.68-3.5c.19-.4-.32-1.46-.69-1.7Z"/>
      <path d="M50.8,5.63l1.35-3.87c.1-.27-.07-1.14-.2-1.38-.09-.18-.58-.18-.76-.16l-2.43,6.47c.67.18,1.77-.29,2.04-1.06Z"/>
      <path d="M.04,1.66l1.38,3.89c.26.73,1.35,1.34,1.95,1.06L.91,0C.31.16-.13,1.18.04,1.66Z"/>
      <path d="M7.66,15.2l-3.29-6.23c-.34.14-.88,1.53-.61,2.01l2.28,4.05c.2.35,1.64.46,1.62.17Z"/>
      <path d="M41.86,13.74c.15-.12.57-.48.67-.69l2.53-5.12c-1.8-2.03-5.04,7.19-3.2,5.8Z"/>
      <path d="M8.6,8.25c-.26-.42-1.37-.64-1.69-.43l2.78,5.35c.5.96,2.6.95-1.09-4.93Z"/>
      <path d="M11.46,15.97c1.19,2.01,2.43,3.76,4.34,5.04.76-.88-3-6.45-4.34-5.04Z"/>
      <path d="M5.25.17l-1.19.1,1.93,5.46c1.82-.82-.37-5.6-.74-5.56Z"/>
      <path d="M40.42,15.62c-2.25,1-4.05,3.09-3.86,5.21,1.89-1.37,3.66-3.08,3.86-5.21Z"/>
      <path d="M46.24,5.55l1.93-5.2c-1.77-1.82-3.72,4.98-1.93,5.2Z"/>
      <polygon points="24.96 23.75 24.94 26.44 27.03 25.26 24.96 23.75"/>
    </g>
  </g>
</svg>