<?xml version="1.0" encoding="UTF-8"?>
<svg id="Warstwa_2" data-name="Warstwa 2" xmlns="http://www.w3.org/2000/svg" viewBox="0 0 50.69 58.92">
  <g id="icon-v9-equipment-pixarts-store">
    <g id="icon-v9-equipment-pixarts-store_296">
      <path d="M37.42,38.09l-.82-2.53c-1.06.97-.65,2.35-1,3.43-.69,2.09-1.68,4.04.08,6.21,2.48-4.19,3.11-2.89,1.74-7.12Z"/>
      <path d="M35.26,3.55c-2.78,2.55-5.55,4.15-9.02,5.11,1.4.02,2.58-.26,3.95-.61l-.84,1.56c2.49-1.73,4.39-3.58,5.91-6.06Z"/>
      <path d="M13.35,45.06c1.44-.83.99-3,.3-4.18-1.18.94-1.89,3.54-.3,4.18Z"/>
      <path d="M33.68,1.72c-2.48,2.03-4.69,4-7.75,3.99-3.43,0-5.93-1.98-8.75-4.09,1.6,3.26,5.19,4.56,8.81,4.86,1.44.12,7.8-2.82,7.69-4.75Z"/>
      <path d="M44.16,35.61c-.2-1.79-.7-3.33-1.67-4.78-.95,1.83-.57,4.22,1.67,4.78Z"/>
      <path d="M7.17,37.52c2.17-3.81,2.36-3.5,1.84-7.99l-2.57,4.62c-.66,1.18-.87,2.86.74,3.37Z"/>
      <path d="M6.01,42.66l.4,1.45c1.51-.23,1.37-1.14,1.87-2.32.62-1.48,1.47-2.85,2.35-4.27l-.09,8.3c-.03,2.65-.16,5.04.18,7.77,3.16-1.45,3.05-8.5,5.54-4.23l1.53-.67c.37-2.34.7-4.34,1.43-6.61l1.35,9.99c.42-.11.97-.3,1.26-.18.23.1.71.71.84.99l2.64,6.04,3.35-9.16,1.53,3.41c.11-.32,1.07-1.48,1.16-2.04l1.01-6.54,1.36,5.13,1.62-.67c1.25-.52,2.55,4.19,2.55,5.62l2.45-4.68-.87-2.89c-.53-1.76.7-2.93,2.4-3.37-.98-5.95-2.35-11.82-2.48-17.99l3.53,18.92c.43-.76.56-1.77.7-2.8,1.52-.26,2.62,1.64,2.77,3.17l4.32,2.24c-1.91-5.3-3.73-10.48-5-16.08-.51-2.27-1.38-4.39-2.22-6.41l.82-.91-3.48-17.92c-2.47,2.57-2.02,5.89-2.79,9.13-.34-1.14-.66-2.05-1.52-2.9l-1.79,5.15-1.06-2.13c-.77.65-1.51,1.87-1.35,2.84.12.73,1,1.81,1.6,2.4l1.65-.99c.22,1.04.52,2.66-.06,3.15-.7.6-1.3,1.08-1.53,1.61-.26.58.39,1.62.75,2.2.83,1.32-1.52,3.06-2.71,3.09-.33,0-1.2,1.1-.93,1.31l1.21.93-3.41,5.21-.04-7.07c3.45-2.27,4.05-6.89,1.44-9.61l-3.04,3.21-.13,8.21c-.06,3.83-.21,7.39-1.7,11.21-.62-2.18-1.51-4.51-1.53-6.81l-.13-12.47-3.34-3.27c-2.35,3.17-1.64,7.31,1.56,9.54.16,2.31.17,4.56.02,6.89l-3.19-5.07c.73-.46,1.31-.87,1.18-1.17-1-2.24-3.33,0-3.94-4.14.64-.43,1.17-1.32.89-2.17-.18-.53-.95-1.15-1.65-1.7-.62-.49-.21-2.46.11-3,.72.36,1.4.79,1.74.66.27-.1.58-.62.83-.96,1.02-1.41.65-3.26-.71-4.01l-.92,2.09c-1.19-2.61-1.14-4.36-3.02-6.33-.61,1.84-.69,3.19-.9,4.79-.58-3.32.06-6.56-2.39-9.63l-3.44,17.41,1.34-1.45-3.5,11.6c-1.44,4.78-2.69,9.1-4.38,13.52l3.64-1.71c.74-1.21,1.28-2.25,2.37-2.9ZM42.5,30.84c.97,1.44,1.47,2.99,1.67,4.78-2.24-.55-2.62-2.95-1.67-4.78ZM35.6,39c.35-1.08-.06-2.46,1-3.43l.82,2.53c1.37,4.23.74,2.93-1.74,7.12-1.77-2.17-.77-4.12-.08-6.21ZM13.65,40.88c.7,1.19,1.14,3.36-.3,4.18-1.59-.64-.89-3.24.3-4.18ZM6.44,34.15l2.57-4.62c.52,4.5.34,4.18-1.84,7.99-1.6-.51-1.39-2.19-.74-3.37Z"/>
      <path d="M33.79,13.57l.81,1.42,1.12-3.33c.08-.24,1.07-.27,1.23-.07l.6.73.59-3.57c.31-1.86,1.32-3.09,2.8-4.39-.67-.44-1.54-.94-2.16-1.23-1.62,3.04-3.25,5.39-5.93,7.01,2.09-2.59,3.87-4.62,5.33-7.33.2-.37-.53-1.69-.86-1.45l-1.17.87c.22-.64-.73-2.37-1.72-2.21-1.5.23-2.59,2.11-3.36,3.17-3.05,1.1-6.58.8-9.73-.18-1.82-.57-3.24-1.93-4.85-2.86-.78-.44-2.09,1.44-1.48,2.06l-1.52-.49c-.38-.12-1.19.7-1.32,1.08,3.58,3.72,7.73,6.25,12.17,8.11-2.02-.21-3.25-.87-5.17-1.41,1.41,2.03,3.27,3.23,5.13,4.43-3.22-.1-9.94-8.28-11.99-10.54-.66-.42-2.49.8-2.32,1.47,3.03,2.01,2.06,5.09,2.79,5.31l1.46.45,1.92,3.7.95-2.2c1.03,1.06,1.76,1.85,2.55,2.88,2.31,3.04,3.38,1.39,6.02,3.77-1.02.52-1.97.33-2.9-.15l-.68-.35c-.09-.05-.12.14-.11.24,0,.09.24.72.37.85l3.09,3.27c1.58-1.81,2.9-3.63,4.4-5.56-.64.83,3.74-3.87,3.95-3.5ZM25.98,6.47c-3.62-.29-7.21-1.6-8.81-4.86,2.82,2.11,5.32,4.08,8.75,4.09,3.06,0,5.27-1.96,7.75-3.99.11,1.94-6.25,4.87-7.69,4.75ZM29.34,9.61l.84-1.56c-1.37.35-2.55.63-3.95.61,3.47-.96,6.25-2.56,9.02-5.11-1.52,2.48-3.42,4.33-5.91,6.06Z"/>
    </g>
  </g>
</svg>