<?xml version="1.0" encoding="UTF-8"?>
<svg id="Warstwa_2" data-name="Warstwa 2" xmlns="http://www.w3.org/2000/svg" viewBox="0 0 57.56 53.21">
  <g id="icon-v9-equipment-pixarts-store">
    <g id="icon-v9-equipment-pixarts-store_252">
      <path d="M43.96,1.04C32.99-.49,21.99-.33,11.08,1.52c-1.98.34-7.9,1.64-7.98,3.74-.15,3.52,16.06,5.3,18.66,4.89l-13.34-2.46c-1.18-.22-2.67-1.01-3.59-1.73-.3-.24.13-1.57.49-1.68l1.32-.39c-.58.6-1,1.03-1.19,1.33-.16.25.79.8,1.09.91,5.82,2.05,12.25,2.49,18.41,2.67.84.02,2.16.44,2.6-.03,2.55-2.76,2.31.69,8.38-1.65,1.52-.59,2.71-.07,3.48,1.38l5.41-.26c2.19-4.78,4.91.83,7.3-3.1-.18-.38-1.04-.98-1.58-1.33.72-.16,2.69.6,2.21,1.94-.24.66-1.51,1.25-2.27,1.86.66.32,1.36.21,2.49.07l-1.52.83c1.72,2.82,2.07,5.81,1.36,9.32,1.23-.33,1.64-1.38,1.59-2.49-.11-2.85.19-7.52-.45-8.43,2.9-3.89-7.53-5.51-9.99-5.86Z"/>
      <path d="M25.77,41.54c-.78.05-1.32-1.71-1.26-2.43.07-.72,1.08-2.28,1.81-2l3.47,1.34c.01-1.61-.33-3.33-1.06-4.05-1.41-.09-2.47-.06-3.12-1.15-.4-.67-.48-1.81-.41-2.8-2.23-1.58-5.72-2.05-8.37-.93l-.95,1.93c-.07-.46-.08-1.43-.37-1.63l-3.52-2.38,1.25,4.85,1.96-.46c-.38,1.26-1.75,1.04-2.76.95-1.35,1.46-2.19,3.8-2.04,5.75l4.12-1.83c1.21.58,1.82,2.26,1.4,3.44-.42,1.19-1.61,1.49-2.62,1.09l-2.88-1.16c.66,6.37,7.27,10.38,13.08,8.34-.35-1.38.06-2.22.95-2.95.96-.79,1.89-.66,3.13-.08.94-1.46,1.67-3.09,2.23-4.76-1.57.38-2.56.82-4.03.91ZM22.32,43.43c-.23,1.67-1.19,2.9-2.42,4.43-1.19-1.49-2.03-2.93-2.04-4.68,0-.8,1.48-1.53,2.16-1.51.75.02,2.42.78,2.29,1.75ZM20.05,37.3c-.76-.06-2.32-.93-2.12-1.9.32-1.5,1.27-2.8,2.23-4.06,1.1,1.19,2.13,2.52,2.36,4.25.15,1.12-1.71,1.76-2.48,1.7Z"/>
      <path d="M21.09,10.86l-11.38-1.62c-2.32-.33-4.39-1.23-6.54-2.26l.07,8.03c0,.58.38,1.97.73,2.48,4.63,3.07,11.61,3.46,17.36,4.14-.21-1.84-1.1-3.86-.9-5.48l.67-5.29ZM8.3,16.25c-1.82.31-3.35-1.08-4.91-2.04,1.21-1.22,2.33-2.24,3.92-3.17.91-.08,1.8,1.36,1.96,2.12.16.78.16,2.89-.97,3.08ZM15.94,18.05c-1.67.44-3.32-1.06-4.65-1.94,1.19-1.5,2.18-2.66,3.73-3.49.91.06,1.9,1.29,2.16,2.04.33.98.3,2.98-1.24,3.38Z"/>
      <path d="M25.01,20.53l2.68.19c-1.07.9-2.11-.6-2.81.87,3.9.52,7.66.78,11.35-.29-2.98-.49-5.71.44-8.41-.3,2.43-.74,9.85,1.05,8.7-2.74l-2.67-.27c-.52-.05-1.26-.93-1.22-1.44.04-.55.88-1.44,1.47-1.43l2.61.02c.11-.91.04-2.17-.34-2.91l-7.04.12,7.12-.78c-1.82-.99-3.55-.3-5.38-.29-2.2.01-4.12-.22-6.43.11l4,.86-3.95-.14c-.42,2.84-.52,5.79.32,8.41ZM26.41,15.62c.54,0,.98.44.98.98s-.44.98-.98.98-.98-.44-.98-.98.44-.98.98-.98Z"/>
      <path d="M36.88,24.59c2.3.43,4.25-6.88,4.32-8.22.14-3-1.63-5.92-3.35-8.16-.95-1.23-3.02,1.42-8.55.42-.59-.11-.93,1.76-.33,1.74,2.54-.11,5.06-.28,7.62-.19,1,1.31,1.1,3.39,1.28,4.84.71.27,1.82.79,1.81,1.44,0,.9-.62,1.3-1.8,1.6l-.72,3.32c-.09.42-.83,1.24-1.3,1.26l-7.21.28c-.05.28.26,1.33.64,1.36.32.02.89-.16,1.35-.31,2.1-.69,4.01.19,6.24.61Z"/>
      <path d="M47.3,9.07c-1.64-.22-3.2-.06-4.65.63,1.83.32,3.24-.14,4.65-.63Z"/>
      <path d="M40.76,10.99l2.53,1.17-2.12-.25c1.26,2.73,1.22,5.04.22,8.05l2.74-1.64c-.86,1.02-1.88,1.8-3.21,2.86,2.75.74,6.84-5.61,5.79-7.31,2.11,1.75-1.48,5.53-2.49,6.75.64-.07,1.79-.24,2.33-.37.52-1.47,1.62-2.48,2.93-3.16-.61-.88-1.36-1.93-1.71-3.01-.21-.64.71-1.97,1.24-2.4-.03,1.6-.82,2.71.43,3.89,1.11-1.65-.61-6.48-2.81-5.88l-2.81.76c1.16,1.31,1.91,2.08,2.86,3.42l-3.05-2.69c-.81-.72-2.14-.94-2.87-.2Z"/>
      <path d="M22.19,21.75c.29.57,2.17.69,2.36.44l-.7-4.81c-.37-2.55.06-4.98.7-7.48-4.37-2.54-3.36,9.93-2.36,11.84Z"/>
      <path d="M50.74,9.14c-1.1-1.62-3.05-2.7-4.68-1.32,5.41,1.21,5.34,8.04,3.5,11.75-.15.29.05,1.19.29,1.06,2.46-1.27,3.46-7.7.88-11.49Z"/>
      <path d="M52.41,33.27c-.25.04-.74.42-.85.72l-2.04,5.66c-.08.22.59,1.15.76,1,.13-.12.69-.53.78-.76l1.93-5.43c.11-.3-.33-1.22-.58-1.18Z"/>
      <path d="M51.88,24.23c-.08-.28-.7-.68-.95-.72-.24-.05-.61.76-.55,1.05l1.15,5.46c.08.38,2.66,2.84.35-5.79Z"/>
      <path d="M27.82,33.82c.89-1.6,1.46-2.82,2.14-4.45-1.59.55-2.91,1.14-4.27,1.98-.12,1.04.96,2.54,2.13,2.46Z"/>
      <path d="M15.46,38.89c-.21-.49-.76-1.3-1.07-1.52l-3.87,1.91,4.03,1.72c.61-.64,1.1-1.65.91-2.12Z"/>
      <path d="M48.09,42.58c.1-.17-.79-.63-.98-.57l-5.27,1.5c-.12.03-2.71,2.81,5.58-.14.25-.09.56-.61.66-.79Z"/>
      <path d="M25.08,39.4c-.03.48.5,1.71.99,1.59,1.27-.31,2.62-.88,3.79-1.46-1.36-.83-2.23-1.32-3.45-1.78-.54-.2-1.29,1.11-1.32,1.66Z"/>
      <path d="M52.26,39.15c-1.58,2.41-3.29,4.08-5.8,5.43,1.38,2.27,7.69-3.86,5.8-5.43Z"/>
      <path d="M23.7,47.27l4.17,2.89-1.43-4.98c-1.3.45-1.93.97-2.74,2.08Z"/>
      <path d="M38.42,43.81c.41-.2.5-1.3.21-1.5l-4.53-3.18c-.16-.11-.9-.22-.87-.03.26,2.01,3.24,3.51,5.19,4.71Z"/>
      <path d="M47.51,20.87l.77,4.03c.11.6,1.32,1.32,1.71,1l-1.04-4.21c-.25-1.01-.2-2.09-.07-3.24-.68.28-1.54,1.51-1.37,2.42Z"/>
      <path d="M43.61,45.39c-2.95.42-5.19-.71-7.57-2.08-1.23,2.01,7.48,4.9,7.57,2.08Z"/>
      <path d="M53.53,28.24l-.04,7.67c2.1-.41,1.85-7.61.04-7.67Z"/>
      <path d="M30.82,36.2v1.04c0,.83,2.99-.85,5,2.39.88-1.01.32-2.52-.91-2.93-1.12-.37-2.85-.49-4.1-.51Z"/>
      <path d="M50.25,28.2c-1.04,2.27-1.27,5.01-.03,7.01,1.07-2.49.9-4.89.03-7.01Z"/>
      <path d="M45.07,41.94c2.02-.49,3.08-2.12,4.56-3.85l-.46-.72c-1.82,1.41-3.35,2.31-4.1,4.57Z"/>
      <path d="M33.59,16.47c-.84,1.69,7.83.77,5.39-.15-.15-.06-.72-.34-.88-.35l-3.48-.1c-.3,0-.91.36-1.02.59Z"/>
      <path d="M37.62,40.81c1.69,1.36,3.64,2.28,5.82,1.57-1.84-1.03-3.78-2.1-5.82-1.57Z"/>
      <path d="M52.22,19.38c-1.64.45.18,5.12.71,5.48.59-2.31.02-3.75-.71-5.48Z"/>
      <polygon points="18.57 28.1 21.78 28.05 20.12 24.5 18.57 28.1"/>
      <polygon points="20.12 53.21 21.7 49.79 18.55 49.75 20.12 53.21"/>
      <polygon points="9.56 37.19 6.16 38.77 9.34 40.38 9.56 37.19"/>
      <polygon points="2.38 9.4 0 11.24 2.46 13.13 2.38 9.4"/>
      <polygon points="55.06 13.07 57.56 11.13 55.15 9.32 55.06 13.07"/>
      <path d="M31.04,41.4l2.69.1c-.63-1.01-1.55-1.56-2.61-1.44-.37.04-.44,1.33-.08,1.34Z"/>
      <polygon points="12.06 49.33 14.73 48.36 12.92 46.86 12.06 49.33"/>
      <polygon points="11.64 31.99 9.15 31.61 10.41 33.81 11.64 31.99"/>
      <polygon points="10.32 43.67 9.18 45.75 11.37 45.5 10.32 43.67"/>
      <path d="M28.8,45.74l1.62.11-.92-1.62c-.32.59-.98,1.49-.69,1.51Z"/>
      <path d="M18.55,43.2c-.02,1.13.56,2.4,1.33,3.6l2.1-3.61-1.95-.93c-.38-.18-1.47.51-1.48.94Z"/>
      <path d="M20.08,32.42c-.69,1.03-1.34,2.11-1.62,3.01-.16.49,1.25,1.2,1.63,1.16l.25-3.34.31,3.23.94-.16c1.26-.21-.99-3.57-1.51-3.9Z"/>
      <path d="M15.04,13.62c-1.22.54-1.99,1.39-2.74,2.38,1.04.51,2.23.97,3.48.99.6.01,1.01-1.58.85-2.1-.16-.52-1.08-1.5-1.59-1.27Z"/>
      <path d="M7.5,12.13c-.96-.03-2.27,1.2-2.97,1.98,1.31.7,2.52,1.23,3.58,1.47.77-1.11.74-3.4-.61-3.45Z"/>
    </g>
  </g>
</svg>