<?xml version="1.0" encoding="UTF-8"?>
<svg id="Warstwa_2" data-name="Warstwa 2" xmlns="http://www.w3.org/2000/svg" viewBox="0 0 34.15 52.58">
  <g id="icon-v9-equipment-pixarts-store">
    <g id="icon-v9-equipment-pixarts-store_382">
      <path d="M6.88,30.68c1.26,2.22.2,2.37,1.03,2.98,2.2,1.6,5.63,2.93,8.39,3.08.14-.76.38-1.98.89-2.11.42-.11,1.2.12,1.25.44l.27,1.62c3.09,0,6.19-.93,8.86-2.58l-.16-2.41c-8.88,2.65-17.58-3.43-18.53-12.17-.97-8.86,6.32-16.39,15.28-15.78l.57-1.51c.09-.24,1.05-.32,1.14-.08l.74,1.78,5.17,2.37C25.56-1.2,15.29-1.76,7.41,3.32-2.49,9.69-1.59,24.67,4.95,31.22c.57.57,1.55-1.21,1.93-.54Z"/>
      <polygon points="27.12 16.74 25.38 11.21 23.56 16.72 18.07 16.94 22.27 20.17 20.82 25.5 25.35 22.5 29.92 25.59 28.4 20.23 32.78 16.88 27.12 16.74"/>
      <path d="M29.2,34.11l-.53-2.41c-.42,1.27-.45,1.99-.48,3.18.43.08,1.17-.08,1.15.19l-.14,1.52c-.02.27-.59.03-1.12-.02l-.24-1.8c-1.57,1.04.8,3.03-.02,3.34l-.81.3c-.55.54-.68,1.42-.51,2.52.08.49-1,.87-1.54.98l-1.05.92,2.3-.59c.09.49-.37,1.39-.8,1.71-.3.23-1.02-.49-1.39-.46l-2.31.13.07,1.28c-.92-.49-1.67-1.02-2.27-1.73l2.87-.04c-.86-.97-3.61-1.01-3.39-2.4.16-.99.27-1.62-.27-2.55l-.35,1.7-1.5.06-.4-1.88c-.68,1.03-.76,2-.3,2.7-.33,2.46-3.26,1.25-3.38,2.47l2.74-.33c-.04.76-1.14,1.69-1.62,1.44-1.7-.89-3.23-1.19-3.3-.93l-.24.83c-.58-.35-1.29-1.02-1.76-1.6-.08-1.09,3.95,1.13,2.52-.07-1.86-1.57-1.15-.2-3.43-2.62.11.59.46,1.52.87,2.34l-.42.73c2.1,3.01,3.35.17,4.87,1.78.65.69,1.7.05,2.5-.57.7-.55.97-1.06.65-1.99l1.57-1.75,1.34,1.91c-.21.25-.58.57-.48.69l.51.67c.53.7,2.1,1.62,2.86,1.22,3.21-1.66,2.6.4,4.23-.94,1.12-.92-.23-1.04,1.3-3.07-.27-.57-.47-1.11-.43-1.5.03-.33,1.24-1,1.25-.67.02.52-.17,1.45-.34,2.25,2.67-1.43-.74-2.37,1.54-4.15.97-.76.4-2.15-.31-2.78Z"/>
      <polygon points="18.65 47.4 17.52 44.68 16.43 47.43 13.4 47.63 15.72 49.52 15.1 52.4 17.56 50.86 20.11 52.58 19.33 49.54 21.58 47.66 18.65 47.4"/>
      <path d="M29.99,32.46c1.57-1.56,3.06-3.22,4.17-5.1-1.78,1.57-3.51,2.98-5.42,3.85l1.26,1.25Z"/>
      <path d="M7.51,37.63l-1.11-1.98c.04,1.2.15,2.06.31,2.95l.91.11,1.18,1.49c.13-1.26-.54-1.85-1.29-2.57Z"/>
      <path d="M24.48,4.6c-.48.64-.86,1.95-.47,2.54,1.54,2.31.89,3.25,1.3,2.81l.58-.62.5,2.43c.86-.93.75-2.32-.41-2.53l-.42-2.43-1.05,1.06-.03-3.26Z"/>
      <path d="M25.11,2.55c-.18,1.2-.17,2.35,0,3.47,1.12-1.18,1.09-2.68,0-3.47Z"/>
      <path d="M17.93,38.99c.09-1.44-.01-2.73-.22-3.99-.86,1.25-1.18,2.75.22,3.99Z"/>
      <path d="M6.38,31.35l-.56,2.32c-.12.49-.93,1.35-.81,1.86.13.55.49,1.17.89,1.61l-.12-2.83c1.61.49,1.21-2.92.6-2.96Z"/>
      <rect x="23.92" y="9.05" width=".68" height="2.71"/>
    </g>
  </g>
</svg>