<?xml version="1.0" encoding="UTF-8"?>
<svg id="Warstwa_2" data-name="Warstwa 2" xmlns="http://www.w3.org/2000/svg" viewBox="0 0 58.85 59.21">
  <g id="icon-v9-equipment-pixarts-store">
    <g id="icon-v9-equipment-pixarts-store_81">
      <path d="M30.1,30.59c-.58.59-.43,2.77.11,3.43l2.61,3.18c2.58-2.39,5.77-4.35,9.47-5.22.2-.93-.4-2.23-.99-2.69l.89-.81c.2-.18-.28-1.09-.23-1.43l1.83-13.12-.82,2.28c-.2.54-1.5,1.17-2.09,1.16l-6.47-.14-3.87,2.74c-.51,5.23,3.26,8.05-.44,10.62ZM35.92,31.91c-1.43.25-3.15.24-4.63-1.24,1.57.19,2.76.56,4.63,1.24Z"/>
      <path d="M44.64,37.04c-1.68-.52-12.7,5.36-9.79,6.86,1.81.94,3.57,1.72,5.23,2.95,4.51,3.33,12.13,2.03,17.18.1,1.85-5.93-7.43-2.01-12.62-9.91Z"/>
      <path d="M47.97,13.7c-.67-2.42-1.46-5.09-1.83-7.5-.08-.53.29-1.91-.11-2.34-2.11-1.05-13.65-1.73-14.99-.59,4.63.07,8.8-.26,13.24,1.09-4.16,1.29-8.11.26-12.35-.02,1.26,5.51,3.94,5.32,4.25,6.36.5,1.66-.35,3.32-1.32,5.01l7.29.3,1.86-6.36,1.4,5.24c.62.39,2.57-.42,2.56-1.2Z"/>
      <path d="M44.87,35.92l-1.66-2.55c-1.12-1.73-9.2,3.14-10.3,4.86l1.36,3.05c3.26-2.58,6.53-4.68,10.59-5.37Z"/>
      <path d="M58.46,47.96c.03-.17-.48-.56-.74-.44-3.3,1.43-9.24,2.41-13.34,1.79-5.65-.85-5.87-4.54-12.43-4.88,3.93,3.18,1.35-.55,8.25,4.57,4.74,3.51,17.87,1.13,18.26-1.04Z"/>
      <path d="M43.82,29.04c-1,1.65.36,3.6,1.5,5l4.81-5.48-2.97-2.94c-1.25,1.23-2.52,2.25-3.34,3.42Z"/>
      <path d="M56.83,19.14c.74,1.93,1.26,3.74.26,5.59-.69,1.27-2.14,2.77-4.04,2.6-5.13-.47-5.91-6.47-7.38-5.08-1.55,1.45.2,1.16,3.15,4.03,1.14,1.11,2.5,2.36,4.04,2.59,2.6.39,4.7-1.45,5.53-3.5.89-2.2.6-4.91-1.54-6.23Z"/>
      <path d="M34.17,43.87l-1.99-5.7c-.49-1.4-1.22-2.53-2.55-3.6-.32.89-.89,2.52-.56,3.3l2.26,5.27c.74.31,1.67.53,2.84.72Z"/>
      <path d="M58.37,17.62c.23-.64-.27-1.55-1.14-2.01-.6-.32-1.8.34-2.08.97-.2.47.28,1.13,1.13,1.95.54.53,1.81-.14,2.08-.91Z"/>
      <path d="M51.3,21.68c.02.23.16.77.28.97l.63,1.1c.09.15.6-.17.64-.34l.34-1.16c.06-.21.47-.11,1.3-.25l-.27-2.58c.34.5.85,1.37,1.09,1.13.28-.29.89-1.26.61-1.44l-1.17-.78c.26.17-2.05,1.42-2,1.85l.21,1.83-.9-.93c-.16-.17-.8.36-.77.6Z"/>
      <rect x="50.39" y="22.7" width="1.27" height="2.15" transform="translate(-3.14 39.11) rotate(-40.8)"/>
      <path d="M13.65,49.87c8.32,2.26,6.17,7.1,16.06,7.04,3.75-.02,8.27-.06,11.24-2.41,1.69-5.54-7.07-2.85-11.8-10.89-8.56-.12-2.3,3.19-12.23,4.31-1.4.16-2.69.72-3.67-.42-.9-1.04-.87-2.28-.09-3.74l-2.13-2.57c-.49,2.35-.75,4.46-.77,6.83.93.79,2.3,1.55,3.41,1.85Z"/>
      <path d="M27.67,3.3c-.64.66-1.33,1.55-1.89,1.77-2.61,1.03-5.14-.17-6.91-2.23C10.76,7.72,12.9,14.58,1.67,15.57c7.81,9.1,10.97-.6,24.77.15,1.47.08,2.73.78,4.1,1.54,1.03-.48,4.93-3.62,3.43-4.96-.09-.08-.05-.04.04-.09l.99-.53c-6.2-4.08-2.98-9.06-8.78-11.68-.05.82-.13,2.26-.58,2.82-.8,1.01-2.51.87-3.5.3-.92-.52-1.39-1.78-1.67-3.12-6.47,1.92-7.91,6.38-11.77,10.68-1.83,2.03-4.69,3.57-7.42,2.61,7.92-4.14,4.29-5.24,11.45-9.76-6.59,1.05-5.01,6.24-11.62,8.88-.64.26-1.17,1.35-.85,1.81.42.62,1.24.76,1.89.72,10.28-.61,9.2-9.54,17.12-12.81,1.26,1.67,3.12,3.39,5.48,2.72,1.26-.35,2.03-1.37,2.64-2.77,1.06,1.18,2.01,2.74,2.79,4.48l2.02,4.47c-2.21-1.84-2.29-5.58-4.55-7.73ZM28.08,14.25c-1.17-.24-2.3-.93-2.33-1.6l-2.38.53c-1.32.29-2.6.55-3.18-1.2l2.72.9c-.41-.47-.85-.95-1.18-1.25-.3-.28-1.66.12-1.75.52-.08.38.76,1.09,1.26,1.47l-1.22,1.09c2.94-1.26,5.35-1.8,8.01,0-2.15,1.11-2.86-1.95-6.63.31-.28.17-.94.4-1.23.44-.8.12-1.63-2.83-.92-3.46.4-.35,1.22-.93,1.75-1.32-.24-.98-.66-2.25-.39-2.93.32-.81,1.23-1.6,2.12-1.86,1.36-.4,2.82-.1,3.65.8.81.88.77,2.54.58,3.81.49.44,1.14.94,1.42,1.4.37.6.14,2.21-.32,2.36Z"/>
      <path d="M28.32,17.13c-.36-.11-.89.48-1.34.79-6.25,1.86-9.29-1.43-14.45,2.25l.26,6.76.6-6.63c.67,3.23.21,5.8.44,8.84,5.38,1.41,11.13,1.19,16.2-1.2-.87-3.1-1.32-6.27-1.02-9.16.05-.46-.33-1.53-.68-1.65ZM15.24,27.38c-.61,0-1.11-.5-1.11-1.11s.49-1.11,1.11-1.11,1.11.49,1.11,1.11-.5,1.11-1.11,1.11ZM15.34,23.21c-.62,0-1.13-.51-1.13-1.13s.51-1.13,1.13-1.13,1.13.51,1.13,1.13-.51,1.13-1.13,1.13Z"/>
      <path d="M11.07,29.32c-.25.05-.36,1.02-.31,1.28l.73,3.92c-.74,1.42-.75,2.39.28,3.48l-.56,2.1,2.55,3.12c2.81-1.43-.46-2.76,6.46-4.71l1.56.45,4.76-1.34c.8-.23.09-2.19-.47-2.65l.71-3.88c-4.13.93-7.87.53-11.92-.15-1.22-.21-2.35-.38-2.65-1.87l-1.16.26ZM17.04,36.15c.11-.02.37.39.27.43l-.62.24c-1.24.49-2.57,1.49-3.47-.11l3.82-.56Z"/>
      <path d="M15.01,55.23l.17-3.05c5.4,3.09,5.22,5.96,11.82,6.74,4.94.58,9.83.48,14.46-1.94.64-.33.92-1.39.39-1.61-3.62,1.77-7.46,2.5-11.41,2.32-11.35-.51-9.09-4.19-14.84-6.32l-5.22-1.92c-.04,1.09-.19,3.19.53,3.96.91.97,2.64,1.31,4.1,1.82Z"/>
      <path d="M9.03,51.09l-.34-5.13c-3.12,1.29-5.66,2.09-8.69,2.73,2.85,1.64,5.88,2.65,9.03,2.4Z"/>
      <path d="M11.57,27.69c-.58-.3-1.28-.93-1.26-1.45.02-.46,1-1.14,1.53-1.49-1.65-2.53.25-1.29.15-4.41l-3.18.76-1.4,6.2,3.32,1.14c.25.09,1.11-.82.85-.76Z"/>
      <path d="M29.24,42.53l-1.51-3.29c-2.13-.5-4.14-.12-5.9.82l1.66,3.58c2.33-.72,3.79-1,5.75-1.12Z"/>
      <path d="M22.95,44.99l-2.16-5.59c-2.1.43-3.92.92-4.95,2.64l2.18,5.02,4.93-2.06ZM20.05,40.23l2.01,4.07-3.57,1.95-1.73-4.22c.98-.81,1.97-1.29,3.29-1.8Z"/>
      <path d="M13.57,45.7c-.04.61.65,1.47,1.13,1.61.48.14,2.02-.33,1.91-.87-.22-1.11-.79-2.37-1.25-3.15-.94.6-1.73,1.4-1.8,2.41Z"/>
      <path d="M21.38,7.83c-.58,1.64.79,4.52,2.95,4.47,1.16-.02,2.1-1.62,2.25-2.46.17-.92-.11-2.39-.86-3.08-1.25-1.16-3.74-.62-4.34,1.06ZM23.1,10.45c-.48,0-.87-.39-.87-.87s.39-.87.87-.87.87.39.87.87-.39.87-.87.87ZM26.43,9.53c0,.46-.37.83-.83.83s-.83-.37-.83-.83.37-.83.83-.83.83.37.83.83Z"/>
      <path d="M19.07,45.02c.4-.05,1.26-.44,1.55-.72.36-.34-.76-3.41-1.4-3.01l-1.26.79c-.44.28.63,2.98,1.1,2.93Z"/>
    </g>
  </g>
</svg>