<?xml version="1.0" encoding="UTF-8"?>
<svg id="Warstwa_2" data-name="Warstwa 2" xmlns="http://www.w3.org/2000/svg" viewBox="0 0 57.03 59.98">
  <g id="icon-v9-equipment-pixarts-store">
    <g id="icon-v9-equipment-pixarts-store_60">
      <path d="M21.72,43.24c1.1-.24,2.56-.94,3.54-1.52,3.86-2.27,7.77-3.38,12.24-3.25l5.18-5.61-4.26-2.1,3.69-2.32c-4.01-8.27-3.29-8-11.87-11.35l-1.89,3.54-2.19-3.59c-1.82,2.3-4.26,4.11-7.25,4.93.44,8.61.18,8.4-2.32,16.1.47,2.36,2.97,4.24,5.13,5.17ZM24.01,27.1l-.56-3.73,3.75-.43c.3,1.25,1.03,2.75,2.31,3.43,1.3-.27,2.13-2.29,1.94-3.77l4.2-.46.38,4.31c-1.36.1-3.25.87-3.54,2.35.57,1.04,2.15,1.77,3.53,2l.42,3.67-3.83.27c.04-1.35-1.07-3.29-2.76-3.38l-4.31,5.36-.39,2.13-4.35.64-.02-4.29c2.77-.92,4.64-3.83,6.73-6.11-.67-1.27-1.93-1.82-3.49-2Z"/>
      <path d="M3.92,58.72c3.71.71,21.39,3.61,20.77-2.9-5.51,1.52-7.34,1.84-13.13,1.22,2.02-4.57,4.1-8.07,6.47-11.77l-3.42-3.03-5.45,4.81c-1.69,1.49-3.46,2.73-5.37,3.79-1.39-4.29-1.76-8.17-1-12.36-6.18-.2-.32,17.49,1.15,20.24Z"/>
      <path d="M6.31,27.5c1.07.6,1.99,1.66,1.1,3.14-.58.96-1.73,2-2.6,2.87,2.51-.61,5.21-2.63,5.7-5.46.12-4.03-1.76-5.35.91-9.17.4-1.28.16-3.27.37-4.82.32-2.33,2.22-4.73,4.33-5.57,3.51-1.39,1.49-2.51,3.85-6.32-2.47,1.74-.88,2.02-4.7,5.06-2.14,1.7-2.95-3.39-4.39-4.49.28,5.79,1.82,3.53-.26,8.32-1.01,2.34-.24,6.71-2.19,6.59l-5.3-3.66,3.7,6.06c1.17,1.92,1.45,4.2.49,6.14l-4.03-.41,3.04,1.72Z"/>
      <path d="M50.52,35.83l5.01-1.51c-2.19-.85-5.78-1.08-7.39.87-1.34,2.32-2.46,5.85-5.68,6.19-1.88.2-2.65.87-4,1.99-2.17,1.79-7.1.71-8.75,8.56,1.61-1.81,2.53-3.49,4.5-4.67l1.84,3.51.27-3.5c2.5-1.65,5.14,2.11,8.44,2.69l-3.25-3.58c-.25-.28-.59-1.03-.43-1.33.69-1.28,2.79-.01,4.54-2.29,2.06-2.68,6.02.67,8.85.14l-5.56-3.23c-.4-1.02.46-3.51,1.61-3.85Z"/>
      <path d="M3.35,44.49l1.03,5.14.83-1.9.56,1.22.96-2.31.3.99,6.94-5.94c-.2-.96-.91-2.36-1.42-2.78l-3.13.73,2.61-1.92c-.44-.83-1.58-.72-2.4-.55.51-.4,1.13-.8,1.31-1.24.18-.44-.41-1.73-.71-1.98-5.48,3.56-7.01,2.07-6.84,8.91l.87-.39c.12-.05.29,0,.45,0,.55-.73,1.12-1.44,2.13-1.65-.77,1.57-1.94,2.4-3.5,3.68Z"/>
      <path d="M40.96,37.76l4.82-4.55c-3.34-14.46-5.7-16.83-19.53-19.51l-7.81,7.6c3.52-.84,5.62-3.23,7.8-5.76l1.93,3.67,1.67-3.17c9.24,3.01,9.32,3.96,13.34,12.79l-3.22,1.75,2.64,1.07c.3.12.8.71.81,1.02,0,.25-.2,1.02-.44,1.25l-4.61,4.63c.7.36,1.93-.19,2.59-.82Z"/>
      <path d="M15.85,37.05c1.97-3.91,3-8.26,2.32-12.63-.18-1.16-.14-1.93.03-3.28l-3.64,2.01-.71,4.85c-.36,2.48-.53,4.59.86,6.89l.98-1.58c-.31,1.62-.94,2.65.17,3.75Z"/>
      <path d="M18.44,56c1.22-2.07,2.11-3.57,3.43-5.1l.52-3.6c-.05-.12-.74-.14-.85.07l-.38.7c-.28-.71-.54-1.37-.8-1.73-.24-.33-1.41-.45-1.66-.06l-3.59,5.59c-.19.29-.16,1.16-.07,1.35l-1.39,1.46,1.69-.21-2.19,1.72c1.72.28,4.01.38,5.3-.19Z"/>
      <path d="M40.21,10.6l-3.64,4.56c2.16,1.1,3.83,1.74,5.13,3.47l3.52-4.06c.27-2.62-2.72-4.68-5-3.97Z"/>
      <path d="M38.66,39.12l-5.48.57c-3.56.37-6.71,2.21-9.78,3.93,1.08.96,3.78-1.28,6.05-1.39l-4.1,2.06c2.05.45,3.26.64,4.69.78,2.91-2.93,7.16-3.45,8.61-5.95Z"/>
      <path d="M28.55,12.65l6.58,1.83,1.76-4.45c-1.24-1.61-3.36-2.92-5.46-2.17-.99,1.21-1.99,3.11-2.87,4.8Z"/>
      <path d="M13.52,22.16l5.1-2.64.19-4.57c-1.09-.98-2.51-1.88-4.02-2.61-.8,3.51-1.09,6.44-1.27,9.82Z"/>
      <path d="M29.4,46.24c-6.99-.52-13.25-3.68-15.68-10.63l-1.48-4.22c-.37.04-1.13,1.24-.93,1.83,1.43,4.18,3.49,8.14,7.07,10.78,2.08,1.53,11.46,5.53,11.02,2.24Z"/>
      <path d="M44.89,25.06c1.66-1.15,3.4-2.28,4.46-3.62.17-1.72-1.07-4-2.88-4.15-1.27.68-2.82,2.04-3.96,3.04l2.39,4.73Z"/>
      <path d="M27.63,48.49l-2.63-.37-.92,2.09.21-2.2c.03-.28-.69-.45-1.17-.55-.82,1.67-.63,3.56-.26,5.48l-1.01-1.47-2.03,4.32c1.93-.29,3.83-.61,5.44-1.11l2.36-6.19Z"/>
      <path d="M21.52,12.58c1.63-1.76,2.06-4.51,2.1-6.64-.36-.29-1.36-.69-1.7-.53s-.62.71-.96,1.22l-3.61,5.41c.6,1.26,3.02,1.78,4.17.54Z"/>
      <path d="M44.13,6.77c-1,.78-1.79,1.68-2.63,2.6,2.78.51,4.22,1.82,4.82,4.19,1-1.14,1.55-1.76,2.35-2.79.58-.75-.39-2.66-1.03-3.31-.69-.69-2.61-1.39-3.5-.69Z"/>
      <path d="M51.09,29.01c-.25-1.87-.36-3.61-2.05-4.36-1.13.51-2.73,1.49-3.66,2.12l1.33,4.89,4.38-2.66Z"/>
      <path d="M35.96,2.75c2.47.59,3.47,1.52,4.55,3.53,1.81-1.76,3.67-4.08,2.16-5.65-1.79-1.86-4.97.88-6.7,2.12Z"/>
      <path d="M49.84,9.3l2.17-3.17c.2-1.25.07-2.42-.92-3.15-.81-.6-2.19-.45-3.08.24l-2.81,2.21c2.58.45,3.79,1.35,4.62,3.87Z"/>
      <path d="M49.23,14.17c-.6.48-1.55,1.55-2.11,2.18,2.22.99,2.66,2.2,3.38,4.35.82-.98,1.86-2.21,2.43-3.13.35-1.92-1.73-4.04-3.7-3.4Z"/>
      <path d="M36.31,3.96c-1.59-.23-2.85.89-3.81,2.51,2.27,0,3.98.94,5.09,3.01l1.94-2.52c-.28-1.69-1.77-2.79-3.21-3Z"/>
      <path d="M53.18,9.93c-1.12.55-2.25,1.88-2.82,2.97,2.05.63,3.1,1.64,3.35,3.74,1.01-1.81,2.98-4.25,1.38-6.25-.28-.35-1.45-.69-1.91-.46Z"/>
      <path d="M27.36,1.12l-1.09,2.65c-.08.2-.77.58-.66.76l.45.75c.32.53.75,1.09,1.13,1.31,1.85,1.1,5.05-4.15,5.14-5.62-1.68,1.48-2.56,2.58-4.26,3.53l-.71-3.37Z"/>
      <path d="M56.48,19.07c-1.36-.93-3.14.96-3.74,2.08,1.43,1.17,1.91,1.91,2.53,3.64l1.69-3.71c.23-.5-.08-1.74-.47-2.01Z"/>
      <path d="M54.16,25.01c-.05-1.09-1-2.68-2.09-2.77-.58-.02-1.74,1.21-1.72,1.59.73,1.31,1.21,2.38,1.72,3.87.83-.35,2.14-1.64,2.09-2.69Z"/>
      <path d="M22.75,14.33c-.43-.61-2.46-.69-2.68-.08l-.23,2.04c-.09.76-.1,1.18,0,2.1l2.82-2.24-.35-.85c-.07-.17.56-.82.46-.97Z"/>
      <path d="M23.52,11.91l-.76.07c-.25.02-.58,1.05-.34,1.13l1.11.38c1.84-2.02,1.98-5.05.54-7.28.19,3.43-1.14,4.37-.54,5.7Z"/>
      <path d="M52.65,31.46c.35.1,1.29.03,1.52-.2l2.25-2.29c-1.84.17-2.83,1.09-3.77,2.5Z"/>
      <path d="M45.27,45.68c1.22-.31,2.14-1.04,2.85-2.1-1.34.1-2.59.69-2.85,2.1Z"/>
      <path d="M5.15,20.07c-.3,1.2-.17,2.48.99,3.1.16-1.22-.24-2.31-.99-3.1Z"/>
      <path d="M21.66,38.09c.29.43,1.59.33,2.16.16.43-.13.5-1.27.79-1.67,1.64-2.24,3.29-4.17,5.29-6.42,3.01,1.25,3.21,4.58,5.31,3.54.36-.18.39-1.27.23-1.66-.23-.59-2.9-1.56-4.29-3.22,1.15-1.66,2.21-2.64,4-3.26l-.13-2.5-2.66.41c-.04.37-.12,1.36-.35,1.62l-2.31,2.58c-3.15-2.35-2.5-4.14-3.83-3.82-1.01.24-1.58.6-1.43,1.16.62,2.39,1.22.42,4.17,3.89-1.84,2.19-3.36,4.38-5.58,6.08-.92.71-1.82,1.88-1.35,3.09Z"/>
    </g>
  </g>
</svg>