<?xml version="1.0" encoding="UTF-8"?>
<svg id="Warstwa_2" data-name="Warstwa 2" xmlns="http://www.w3.org/2000/svg" viewBox="0 0 39.64 56.69">
  <g id="icon-v9-equipment-pixarts-store">
    <g id="icon-v9-equipment-pixarts-store_228">
      <path d="M9.03,39.54c1.48,5.94,5.26,10.59,10.81,13.36,9.88-5.24,12.14-13.85,12.04-24.29-4.49-.79-8.29-2.36-12.05-4.71-3.81,2.39-7.67,3.92-12,4.83,0,3.78.26,7.29,1.2,10.82ZM25.49,45.13l-5.52,3.68c-1.13-.76-7.59-3.86-6.29-5.36l6.07,3.65,6.19-3.65c.13.21-.09,1.43-.45,1.67ZM25.97,42.23l-6.13,3.87-6.23-3.88-.59-5.77,6.82-1.6,6.72,1.56-.58,5.81ZM13.3,31.09c-.09.79.03,1.62.5,1.8.64.25,1.6-.24,1.64-.75l.13-1.72,1.43,1.65c.31.36,1.42-.07,1.66-.46.32-.53-.16-1.19-.72-1.68l1.9-3.22,1.81,3.12c-.37.53-.85,1.23-.63,1.67.28.59,1.58.86,1.88.44l1.12-1.55.36,2.1c.07.39,1.17.66,1.51.47.45-.26.59-.94.38-1.86l2.52-1.07-2.19,5.41c-2.44-.13-4.63-1.88-6.85-1.43l-6.74,1.39-2.15-5.41,2.45,1.08Z"/>
      <path d="M19.8,56.69c13.03-6.21,15.85-17.35,15.37-30.9-3.49-.48-6.37-1.29-9.49-2.49-1.57-.61-3.42-.67-5.21-.47,3.81,2.86,8.03,3.9,12.53,4.81.27,11.41-2.24,21.02-13.16,26.5-11.07-5.34-13.28-15.19-13.17-26.51,4.52-.83,8.63-2.08,12.51-4.77-1.82-.3-3.78-.07-5.63.65-2.95,1.15-5.77,1.81-9.08,2.29-.59,13.53,2.43,24.66,15.33,30.9Z"/>
      <path d="M17.24,16.61c-1.03,1.94-3.6.89-3.68.65l-.62-1.72c-.24-.67-2.26-1.3-3.5-1.91l2.72,6.91c5.18-1.7,10.39-1.39,15.43-.15l2.58-6.72-3.6,1.82c-.14.51-.36,1.33-.48,1.7-.16.48-2.71,1.08-3.64-.5-.28-.48.06-1.58.3-2.19l-2.94-3.88-3.01,3.96c.41.73.69,1.58.45,2.04Z"/>
      <path d="M27.34,21.43c-3.6-1.94-14.46-1.49-15.14.48-.05.16.44.62.62.56,4.28-1.44,10.12-1.09,14.05-.07.3.08.64-.87.47-.96Z"/>
      <path d="M21.78,11.09l.27-3.45c-1.74-.34-2.97-.4-4.52.15-.04,1.08.2,2.36.54,3.06l1.67-1.59,2.03,1.84Z"/>
      <path d="M34.87,1.02c-.29,0-.88.16-1.1.36l-4.17,3.94c-.22.21-.39.85-.27,1.13.12.28,1.08.36,1.3.15l4.34-4.1c.23-.22.18-1.48-.11-1.47Z"/>
      <path d="M8.93,6.53c.21.2,1.11.18,1.19-.07.08-.25.06-1.05-.15-1.24L5.2,1.05c-.18-.11-.87.18-.89.4-.02.22.09.91.32,1.12l4.31,3.97Z"/>
      <path d="M31.63,8.59c.73-.55.94-1.8.62-2.51-2.28,1.94-4.27,3.35-6.64,4.6,1.63,1.69,4.17-.69,6.02-2.09Z"/>
      <path d="M8.03,8.56l3.33,2.36c.69.49,2.09.19,2.57-.39-2.52-1.34-4.49-2.71-6.64-4.47-.34.98.05,2.02.74,2.51Z"/>
      <path d="M14.87,6.18l-3.83-2.6c-.36-.24-1.41-.02-1.64.37,1.99,1.66,3.65,2.84,5.71,3.99.29-.67.12-1.52-.24-1.77Z"/>
      <path d="M24.3,7.85c.14-.04.78-.11.91-.2l4.74-3.3c.12-.08-.1-.75-.24-.74-3.29.2-6.88,4.65-5.41,4.23Z"/>
      <path d="M5.05,4L2.37.93C1.79.26,1.26-.21,0,.28c1.34,1.69,2.93,4.84,5.05,3.73Z"/>
      <path d="M36.9,1.26l-2.42,2.79c.8.29,2,.15,2.44-.4l2.72-3.35c-1.58-.81-2.04.15-2.74.95Z"/>
      <path d="M22.81,11.12l4.54-2.11c-.97-1.72-2.01-.77-3.05-.38-1.11.41-2.12,1.07-1.49,2.49Z"/>
      <path d="M13.06,7.91c-.3-.05-.7,1.08-.43,1.22l4.14,2.02c.81-2.38-2.87-3.09-3.71-3.23Z"/>
      <path d="M32.15.59c0,.44.07.91.2,1.55l1.81-1.85c-1.01-.27-2-.18-2.01.31Z"/>
    </g>
  </g>
</svg>