<?xml version="1.0" encoding="UTF-8"?>
<svg id="Warstwa_2" data-name="Warstwa 2" xmlns="http://www.w3.org/2000/svg" viewBox="0 0 39.87 55.4">
  <g id="icon-v9-equipment-pixarts-store">
    <g id="icon-v9-equipment-pixarts-store_235">
      <path d="M15.75,47.27c1.29,2.38,2.24,4.57,3.46,7.15.24-4.53.2-8.87-.08-13.3l1.65.14-.13,6.82-.19,7.31,4.25-7.6-.75-5.36,1.71,2.98c.5-2.74.99-4.89,1.73-7.44l-2.13-2.3c.25-.26.92-.24,1.42-.03l1.56.65-.03-3.92c-.02-2.08.85-3.93,1.01-6.02l-4.35,3.22-.69-1.03,5.03-3.75-3.34-3.28-1.37,1.54.12-2.95-4.17-4.53.3,8.86c-.14.24-1.46.22-1.62,0l.35-8.72-4.8,5.37,1.39,3.91-2.67-2.47-2.8,3.29,4.19,2.46c.22.13.57.66.62.89.04.23-.7.49-.94.37l-3.93-2.08c.44,1.93,1.15,3.35,1.96,5.11h-1c.52,1.59.86,2.89.94,4.38l.29,5.55,3.15-3.54-1.68,5.84c-.21.74,1.18,1.84,1.53,2.48Z"/>
      <path d="M17.54,8.31c.2,2.2.49,4.16.89,6.16.77-.68,1.22-1.08,1.53-1.31.25-.19.79.54,1.55,1l.77-5.84c-1.65-.51-3.01-.48-4.74,0Z"/>
      <path d="M35.02,1.62c-.21-.09-.85-.04-1.05.16l-4.37,4.42c-.21.22.15,1.09.44,1.14.23.04.92-.11,1.12-.32l3.97-4.13c.23-.24.15-1.15-.11-1.27Z"/>
      <path d="M10.21,6.96c.22-.27-.04-.95-.37-1.27L5.73,1.81c-.25-.23-.95-.28-1.16-.07-.17.17-.12,1,.07,1.19l4.06,4.04c.45.45,1.17.4,1.51,0Z"/>
      <path d="M32.34,6.69c-2.23,1.98-4.13,3.44-6.56,4.7.8.84,2.18.77,3.14.01l3.13-2.45c.61-.48.77-1.92.28-2.27Z"/>
      <path d="M8.01,9.13l3.96,2.84c.45.32,1.98-.35,2.14-.56-2.47-1.42-4.43-2.91-6.72-4.8-.36.78-.14,1.99.62,2.53Z"/>
      <path d="M15.11,8.76c2-.72-3.76-5.32-5.53-4.54-.92.41,4.8,4.16,5.53,4.54Z"/>
      <path d="M28.58,4.28l-3.84,2.82c-.3.22-.39,1.32-.07,1.62,2.34-1.36,4.08-2.55,5.91-4.2-.66-.34-1.63-.51-2-.24Z"/>
      <path d="M5.07,4.32L2.04.78C1.75.07.57-.25,0,.37c.93,1.42,3.71,5.77,5.07,3.96Z"/>
      <path d="M37.14,4.03l2.73-3.65c-.74-.76-1.53-.23-2.07.39l-3.21,3.74c.53.37,2.03.22,2.55-.49Z"/>
      <path d="M13.11,10.15l3.74,1.6c.27-.74-.02-1.9-.59-2.12l-2.47-.95c-.3-.11-1.07.21-1.13.49-.04.21.22.88.44.97Z"/>
      <path d="M26.06,8.69l-1.87.77c-.99.41-1.7,1.04-1.24,2.44l3.78-1.76c.32-.15.63-1.05.37-1.21-.19-.12-.81-.33-1.03-.24Z"/>
      <path d="M7.27.42C6.77,0,6-.04,5.21.13l2.19,2.53c.38-1.15.31-1.87-.13-2.24Z"/>
      <path d="M32.28.7c-.26.57-.22,1.32.15,1.81l2.13-2.3c-1.41-.36-1.99-.15-2.27.48Z"/>
    </g>
  </g>
</svg>