<?xml version="1.0" encoding="UTF-8"?>
<svg id="Warstwa_2" data-name="Warstwa 2" xmlns="http://www.w3.org/2000/svg" viewBox="0 0 59.8 51.43">
  <g id="icon-v9-equipment-pixarts-store">
    <g id="icon-v9-equipment-pixarts-store_299">
      <path d="M14.22,43.07c.95-.3-6.89-3.89-5.99-2.6l5.99,2.6Z"/>
      <path d="M8.24,19.5c-2.34.28-3.92.1-5.96-.51,1.65,1.58,4.22,1.46,5.96.51Z"/>
      <path d="M40.98,43.48c1.77-8.69-6.55-5.58-11.77-11.66-.97.15-2.31.54-3,.9.5,2.69-1.03,4.98-2.67,6.46l-5.76-1.91c-1.97-.65-4.21.59-4.93,2.64,2.2,1.42,4.1,2.77,6.2,3.87,6.16,3.25,15.56,2.43,21.93-.3Z"/>
      <path d="M28.79,27.06c.64,1,1.04,1.86,1.92,2.75.88.89,1.68,3.19,2.83,3.58l3.6,1.19c1.19.4,2.18.85,3.58,1.49,1.17-1.26,2.21-3.15,2.12-5.42l-1.67,1.29c-.64.37-1.98-.05-1.91-.9.15-2.04,2.32-1.6,1.81-3.12-.65-.43-1.9.07-2.38,1.03-.3.59-1.75.28-1.91-.32-.19-.71.22-1.75.82-2.05.42-.22,1.25-.76,1.04-.99l-.93-1c-.33-.35-1.17,2.06-2.41,1.34-.37-.21-.87-1.17-.71-1.59.59-1.56,3.01-1.48,2.05-2.94-1.05.63-2.55,1.09-2.99.24-.25-.48-.03-2.05.45-2.24l2.04-.81c-.77-.73-1.72.02-2.55.09l-7.22.63c-.64,2.95.94,5.4,2.43,7.75Z"/>
      <path d="M58.36,40.29c1.46-2.31-.67-5.67-2.96-6.33-2.79-.81-5.24-1.78-7.76-3.23-.51-.29-1.21-1.51-1.7-1.33l-2.3.86c.23,2.29-.88,4.78-2.74,5.99l-6.77-2.25c3.56,2.79,7.19.74,8.2,7.65,5.3,1.03,11.33,1.19,16.02-1.36Z"/>
      <path d="M10.38,39.12c.42.01,1.17-.44,1.46-.69l.16,1.26c3.56-5.23,6.88-2.43,11.42-1.06,1.2-1.45,2.45-3.48,2.02-5.37-.32-.54-1.16,1.36-1.04.82.03-.12-.32-1.27-.21-1.31l6.31-2.34c-2.58-.37-5.15.78-7.08,1.82l.83,2.19c-.16.37-1.2.83-1.57.6-.37-.23-.91-1.38-.74-1.86.32-.87,1.41-1.69,2.37-2.5-1.95-1.5-2.67,1.6-4,1.32-.5-.11-1.19-.98-1.17-1.47.04-1.96,2.77-2.05,2.28-2.57l-.89-.93c-.37-.39-1.42,2.21-2.93,1.27-.38-.23-.86-1.1-.77-1.56.32-1.72,2.73-1.53,2.46-2.04l-.5-.97c-.44-.85-1.5.69-2.83.4-.44-.09-.74-1.32-.65-1.79.36-1.94,3.29-.73,3.09-2.34l-4.17.66c-.43,2.45-.13,5.15-1.34,7.09-1.39,2.23-4.17,1.83-6.46,1.48,1.63,2.63,2.56,5.27,2.95,8.39.06.48.59,1.48,1.01,1.49Z"/>
      <path d="M2.61,43.87c.13-.23.62-1.04.69-.85l.39.93c.18.42,1.02,1.4,1.43,1.28.35-.1.75-.45,1.19-.77.58,1.01,1.55,1.78,2.59,1.82l.19-3.48c2.43.72,5.03,1.98,6.7,4.08.36.45.9,1.74,1.44,1.98.41.18,1.14-.32,1.76-.69.37.79.87,1.87,1.4,2.01.52.14,1.64-.56,2.17-.79.49.69.99,1.64,1.5,1.74.52.1,1.42-.31,1.78-.6l.75-.61c.15-.12.45.59.56.84.21.49,1.44.85,2.04.61.47-.19.76-.79,1.6-2.02.85,2.07,1.92,1.92,3.3,1.55,2.65-.71,5.16-1.22,7.67-2.66.67-.39.74-2.52.44-3.16-6.26,3.58-21,4.33-26.06-.77,4.43,2.24,8.74,3.48,13.64,3.16,2.24-.15,11.42-1.01,12.5-3.73-3.13,1.3-5.93,2.41-9.12,2.65l-3.76.29c-4.78.36-9.34-.86-13.31-3.67-5.76-4.08-9.26-3.52-14.8-7.02.82,2.56,3.23,2.25,4.7,3.59-1.75-.61-3.04-1.2-4.88-2.09l-.04,5.26c0,.55,1.27,1.58,1.53,1.13ZM14.22,43.07l-5.99-2.6c-.91-1.29,6.94,2.3,5.99,2.6Z"/>
      <path d="M12.44,26.59c1.05-3.42.82-7.03.89-10.44l-1.73.09c-.32.02-.48,1.06-.5,1.45l-.43,9.98-.39-7.45c-1.45.9-2.6,1.25-4.32,1.55l-.34,2.72c-.37.28-1.58.3-2.06.06s-.54-1.84-.32-2.44c.13-.37,1.11-.26,1.58-.28l-3.81-1.69c-.07,1.57-.77,4.5.32,5.79,1.7,2,10.16,3.78,11.11.66Z"/>
      <path d="M9.15,19.82c2.48-1.7.24-5.05,3.61-6.26-2.59-.76-9.57-1.64-11.61-1.22-1.02,1.62-1.64,4.17-.66,5.77,1.84,2.99,5.9,3.6,8.66,1.71ZM8.24,19.5c-1.74.94-4.31,1.07-5.96-.51,2.04.61,3.61.79,5.96.51Z"/>
      <path d="M14.33,2.79c1.79.55,3.04,1.43,3.33,3.35l.53,3.48c1.66.57,3.5.56,5.02-.17l.88-7.31c.44-3.67-9.47-1.53-9.76.65Z"/>
      <path d="M11.66,10.53l-.37-6.3-7.13-.29c-.52-.02-1.65.58-1.72,1.18-.18,1.68.04,3.58.76,4.9,2.82.71,5.45.68,8.46.51Z"/>
      <path d="M29.53,10.62l-3.86-.23c-.06,1.19.5,3.65,1.89,3.82,2.64.33,5.56-.66,7.92-1.36l.24-2.16-2.39,1.13c-.57.27-1.35-1.25-1.08-1.89.24-.57,1.22-.76,1.82-.62l1.94.45c-.85-2.15-5.13-2-4.26-3.99.18-.42,1.35-1.13,1.66-.82l1.71,1.68c.12-.66-.1-2.54-.73-2.95-1.12-.75-2.77-.61-4.03-.41l.55,5.43c.08.76-.68,1.97-1.4,1.93Z"/>
      <path d="M36.09,6.72c.17,1.67,3.74,2.43,4.54.76.92-1.91.76-4.7.89-7.02-3.04-.88-5.95-.55-8.57,1.48,2.46.58,2.9,2.38,3.14,4.78Z"/>
      <path d="M45.59,46.38c.66.5,1.62,1.4,2.14,1.29.45-.1,1.13-.81,1.54-1.32.23-.27.94.44,1.28.92,2.79-.06,6.06-.83,8.77-2.31.63-.34.55-2.54.3-2.88-6.07,2.72-10.27,2.3-16.69,1.99l.57,3.39,2.09-1.08Z"/>
      <path d="M2.31,28.28c-.37,3.38-1.38,6.17,1.05,8.14l5.49,1.94c-.45-3.75-1.36-6.28-3-8.99-.83-.45-2.29-.81-3.54-1.09Z"/>
      <path d="M14.03,14.49l4.07-.1c-.48-.88-1.28-1.83-1.76-1.65-.79.3-1.62.62-2.05.33-.36-.25-.59-1.69-.33-2.05.35-.49,1.26-1.06,1.48-.77.22.29.49.96.79,1.79l.63-1.09c.46-.79,3.45,1.26,3.66-.18-1.91-.19-3.74-.73-4.84-2.33-.61.06-1.61.09-2.03-.13-.36-.2-.52-1.3-.33-1.72.21-.45,1.73-.81,2.05-.44l1.4,1.64c.22-.62.12-1.97-.29-2.64-.33-.53-1.59-1.27-2.22-1.22l-2.43.18.47,5.29c.36,4.05-7.8.57-8.93,1.87l8.45,1.11c1.04.14,1.65.9,2.2,2.09Z"/>
      <path d="M35.39,13.78c-2.61.65-5.36,1.13-7.95,1.42l.06,3.28c2.79-.15,5.63-.56,7.94-1.11l-.04-3.59Z"/>
      <polygon points="25.84 9.72 30.27 9.84 29.89 3.15 26.45 3.28 25.84 9.72"/>
      <polygon points="17.86 19.14 17.25 15.34 13.97 15.99 14.29 19.73 17.86 19.14"/>
      <path d="M59.49,40.81c-5.72,2.31-11.51,3.03-17.5,1.51.57,2.69,16.67,1.56,17.5-1.51Z"/>
      <path d="M36.21,16.86c.11.18.96.51,1.16.54.13.02.17-.47.07-.58l-.67-.73c-.47-3.35,1.71-4.07,2.22-6.1.03-.14-.37-.3-.47-.22l-.57.43c-.21.16-1.02.02-1.05.3-.03.28.06,1.17-.05,1.45-.45,1.15-1.27,3.82-.64,4.89Z"/>
      <path d="M17.47,26.58c-.06.39.42,1.38.69,1.39l2.4-1.77,4.12-.51-1.5,2.36,2.73-2.08c-1.63-1.55-8.29-.5-8.45.61Z"/>
      <path d="M39.63,30.99l3.16-1.25,5.23-1.56c-.48-1.31-8.86,1.78-8.39,2.81Z"/>
      <path d="M19.82,18.91c-.64-1.54-1.12-2.55-.61-3.6l2.15-3.75c-1.41.8-2.39,2.28-2.91,3.86-.44,1.34-.3,3.53,1.37,3.48Z"/>
      <path d="M21.64,12.9c-1.21,1.72-1.02,7.38-2.13,8.35l.42.49c.7.8,1.97-8.14,1.71-8.84Z"/>
      <path d="M38.36,19.78c.45-3.09.88-5.74,1.01-8.45-1,2.03-.91,4.09-1.16,6.17-.1.86-1.23,1.88.16,2.28Z"/>
      <path d="M28.06,28.38l-3.01-.97,1.71.9c-2.69.71-4.34-.24-6.23,1.45l2.61-.13c1.49-.07,2.66-.45,3.83-1.23l-1.7,2.31c1.38-.33,2.11-1.06,2.79-2.33Z"/>
      <path d="M38.89,23.83c1.36.08,2.45-.15,3.2-1.33-1.53,1.36-4.85-.37-6.46,1.42l3.26-.08Z"/>
      <path d="M23.56,11.57c1.15,1.89,2.28,3.42,2.53,5.26-.1.46-.27.89-.09.88l.61-.04c1.08-.07-1.08-5.95-3.05-6.1Z"/>
      <path d="M43.83,16.01l.64-.27c.95-.41-1.11-6.03-3.56-6.06,1.58,2.14,3.4,3.27,2.92,6.34Z"/>
      <path d="M24.96,3.33c-.68,2.34-.83,4.64-.86,7.06,1.25-2.28,1.37-4.63.86-7.06Z"/>
      <path d="M41.01,11.55c.55,2.85,1.43,5.29,2.75,7.86-.33-2.79-1.27-5.41-2.75-7.86Z"/>
      <path d="M42.07,2.86c-.1,2.33-.86,3.78-.19,5.95.69-.69,1.58-7.47.19-5.95Z"/>
      <path d="M25.54,20.86c-.41-2.94-.96-5.29-1.93-7.58.11,2.85.71,5.46,1.93,7.58Z"/>
      <path d="M42.32,17.92c.03-.19-.67-.78-.84-.71-.17.07-.51.28-.4.43l.53.73-2.96,2.19c1.7.49,3.46-1.44,3.67-2.64Z"/>
      <path d="M40.99,27.03c1.09-.13,2.01,0,2.53-.8-2.23-.22-4.46-.07-6.06,1.23l3.53-.43Z"/>
      <path d="M41.17,21.55c.9.1,1.67.36,2.4,1.09l-4.07,2.73c1.94.52,3.64-1.56,4.25-2.8l-1.48-3.01-.03,1.14c0,.2-.7.17-1.11.21-.8.23-.97.6.03.63Z"/>
      <path d="M16.13,21.91c-.3.04.05,1.45.34,1.36l3.17-.99c-.35-.54-.71-.94-.99-.86-.22.06-.73.22-1,.26l-1.53.23Z"/>
      <path d="M21.18,20.88c.89.37,2.13.43,2.69.1.19-.11.5-1.02.29-1.06-.72-.13-2.51.06-2.98.96Z"/>
      <path d="M23.94,23.07l.47-1.22c-1.48.93-2.5,1.47-3.8,2.64,1.37.03,2.02-.78,3.33-1.43Z"/>
      <path d="M45.94,25.82l-.55-.43c-.85,1.19-1.7,1.68-3.19,2.94.25.26,4.39-2.01,3.74-2.51Z"/>
      <path d="M33.85,7l3.55,2.78c2.01-.24-3.45-3.17-3.55-2.78Z"/>
      <path d="M23.08,11.59c.04-.27,0-1.02-.24-1.03h-.67c-.16,0-.35.76-.29.92l.89,2.22.3-2.11Z"/>
      <path d="M21.74,19.09c.15.35,1.3.12,1.63-.07.26-.14.04-1.11-.26-1.34-.37-.3-1.57.92-1.37,1.41Z"/>
      <path d="M19.43,12.4c.1-.01.05-.23.03-.53l-1.96-.3c-.25-.04-.12,1.1.13,1.07l.99-.13.82-.11Z"/>
      <path d="M3.75,23.29c0,.47.35.85.79.85s.79-.38.79-.85-.35-.85-.79-.85-.79.38-.79.85Z"/>
      <path d="M23.11,21.71l-3.15,1.02c1.32.44,2.3-.15,3.15-1.02Z"/>
      <path d="M41.19,15l-1.93,2.34c1.37-.1,2.4-.83,1.93-2.34Z"/>
    </g>
  </g>
</svg>