<?xml version="1.0" encoding="UTF-8"?>
<svg id="Warstwa_2" data-name="Warstwa 2" xmlns="http://www.w3.org/2000/svg" viewBox="0 0 55.51 53.49">
  <g id="icon-v9-equipment-pixarts-store">
    <g id="icon-v9-equipment-pixarts-store_08">
      <path d="M21.27,12.31c-1.61-1.09-2.95-2.19-4.51-3.57.05,4.27,4.04,4.74,2.27,9.12-.58,1.44-2.35,2.26-3.95,2.82-.35,2.51-1.44,4.79-3.21,6.55l2.77,11.57c3.46,2.91,8.27,6.53,13.2,6.51,4.92-.03,9.49-3.46,13.08-6.29l2.82-11.98c-2.25-1.6-2.7-4.04-3.18-6.3-1.55-.55-3.37-1.43-3.96-2.79-1.93-4.44,2.09-4.82,2.1-9.09-3.19,3.3-6.96,4.67-10.93,7.87l-6.52-4.42ZM30.31,18.54c0,.43.17.89.5,1.46,1.67,2.92.02,3.47.74,5.12l-.76.27c-.28.1-.14,1.06-.12,1.37l.03.6c0,.1-.21.24-.3.19l-.8-.49c-.17,1.11,3.03,6.62,4.69,5.99.39-.15.92-1.15.74-1.53-.82-1.76-2.28-1.92-2.57-3.48-.42-2.27,1.88-3.3,3.36-4.14.82-.46,1.09-1.88.54-2.36-.23-.2-.98-.26-1.2-.15-.28.13-.08.8.02,1.34l-2.43,1.37c0-1.4.13-2.54.4-3.33l1.81-.08c.6-.03,1.54,0,1.93.32.36.31.65,1.32.55,1.89-.43,2.54-3.63,2.06-3.97,4.32l2.83-.77-1.96,2.03,1.77-.21c-1.28,1.72.87,3.75-.92,5.4-.5.46-1.72.32-2.62.28-.52.06-.64,2-.07,2.08l1.14.16c.24.04.14.49.25.97.37,1.59-.73,1.11-1.42,3.67l-1.61,1.53-.65-.6c-.15-.14-.51.32-.76.54l-.75-1.42c-.2-.37.7-1.11,1.12-1.08.68.06,1.38-.25,1.66-.97.27-.7-.41-1.11-1.23-1.35-.29-.08-.62-.22-.73-.1l-.65.69-.5-2.63-.26-1.06c-.06-.23-1.05.26-1.17.47-.3.52.15,1.63.64,2.45l-2.81,1.03c-.39.14-.99.92-1.2,1.26-.13-.12-.57-.64-.79-.55l-1.06.44c-.15.06-.01-.92-.17-.97l-1.06-.36,1.32-1.17c-.07-.05-.22-.16-.26-.2-.1-.08-.07-.46.05-.41,2.07.86.77.92,1.98.95.45.01,1.51-1,1.26-1.36l-1.25-1.85c.78-2.11,3.31-2.4,5.19-1.12-.15-1.36-2.1-1.43-3.69-3.17l-2.39.74c-.21.07-.77-.06-.88.12l-.74,1.23-.74-.59c-.21-.17-.79.42-1.05.62l-.25-.93c-.06-.24-.65-.44-.85-.59.36-.4.85-.76.83-.96l-.11-1.07,2.03.9,3.74-2.55c-4.42.77-2.2-2.96-5.42-2.16l.72-1.55-1.67-.61.89-.68c.21-.16-.18-.98-.02-1.2.12-.16.93.34,1.09.21l.75-.58c.24.23.36.94.34,1.61-.02.79,1.11,2.11,2.06,2.37.94.25,2.43-.5,3.08-.96l-1.62-.67,1.97-1.06c-.38-.31-.79-.55-.96-.39l-.97.97.15-.99c-.17-.15-.9-.76-.69-.92l.96-.71c1.48-1.09,3.37-1.65,4.98-.86Z"/>
      <path d="M21.82,37s.01.01,0,0h0Z"/>
      <path d="M22.91,53.27l.5-1.04c.9-1.87,2.37-3.25,4.37-3.27,3.54-.03,4.33,3.9,5.03,4.43,1.28.97,11.29-5.55,11.57-7.88-3.6,1.73-6.9,5.76-11.1,6.66-.83-2.49-2.26-3.8-4.81-4.51,3.44-1.42,4.97,4.97,6.73,1.29.23-.49-.03-1.36-.45-1.76l-1.21,1.09c-.09-1.39.67-2.04,1.33-2.29,2.95-1.11,3.7,1.86,4.7-.18.18-.37.17-1.3-.24-1.38-.28-.05-1,0-.9-.17.06-.11.28-.55.36-.66.74-.93,3.45-.45,3.64.71.04.25-.32,1.02-.41.85l-.37-.65c-.12-.21-.54-.5-.76-.6-.75-.33.17,1.6-1.2,3.25-.33.4-1.51.71-1.99.45l-1.69-.94c.21,1.61.09,2.27-.39,3.79l7.01-4.85c.26-.18.81-.75.79-1.06-.01-.3-.28-.82-.47-1.21l-1.55-3.15c-3.49,2.73-7.09,4.9-11.33,6.16-5.32,1.59-11.78-3.37-16.01-6.21l-2.09,4.62c2.64,2.07,5.12,3.81,8.07,5.7-.48-1.46-.59-2.22-.46-3.85l-1.81.93c-.59.3-2.13-.34-2.35-.97-.26-.73-.31-1.64-.41-2.76l-1.76,1.12c-.09-1.24.79-1.74,1.59-1.88.61-.1,1.75.21,2.17.56.12.1.21.83.05.82l-.84-.07c-.39-.03-.29,1.11-.17,1.49.53,1.74,2.12-.49,4.26-.1.65.12,1.59.99,1.83,1.61.05.13-.14.74-.2.86-.04.08-.18-.06-.24-.13l-.78-.89c-.57.43-.7,1.51-.34,2.05,1.82,2.74,2.98-2.75,6.38-1.63-2.31.61-3.78,1.94-4.69,4.41-.91-.21-2.07-.47-2.92-1.05l-8.26-5.57c.12,2.35,11.11,9.28,11.8,7.84Z"/>
      <path d="M3.94,35.52l3.92,1.3c-.14-4.34,2.72-6.1,2.89-9.01.05-.93-.64-2.27-.39-3.19.28-1.07-.02-3.13-1.25-3.09l-5.77,1.26-2.38,7.02c1.3,1.85,1.72,5.29,2.98,5.71Z"/>
      <path d="M46.21,31.43c1.02,1.75,1.37,3.29,1.63,5.39,1.11-.6,3.83-.76,4.43-2.08l2.32-5.08-2.3-6.82-5.85-1.2c-1.23-.25-1.33,2-1.23,2.81.33,2.92-1.68,2.38,1,6.98Z"/>
      <path d="M10.49,15.02c.62-2.41,2.13-3.38,4.01-3.74-.96-2.7-1.52-5.33-1.66-8.29-4.27.15-7.88,2.6-9.68,6.5-.17.36-.78.95-.7,1.28.46,1.88,5.95,4.05,8.02,4.24Z"/>
      <path d="M45.07,15.15c1.78-.07,8.88-3.2,7.99-4.58l-.74-1.14c-2.79-4.31-3.18-5.34-9.54-6.48-.18,3.09-.66,5.56-1.65,8.29,2.17.38,3.51,1.81,3.94,3.91Z"/>
      <path d="M1.09,49.96l.09-.76c.05-.45.66-1.26,1.08-1.33.39-.07.96.38,1.27.87l-1.41.38c-.09.58.43,1.26,1.08,1.28.53.02,1.13-.51,1.28-1.01l1.74-5.82c-2.09.26-2.58-.67-2.65-1.84-.04-.72,1.1-1.6,1.77-1.31.17.07.52.49.61.63.28.43-1.71.41-1.35.95.11.17.46.57.67.65.54.22,1.47-.26,1.67-.7.2-.42.34-1.62-.06-1.89-2.95-2.01-4.2-.25-6.82-4.48L0,49.88c0,.29,1.06.29,1.09.08Z"/>
      <path d="M16.85,5.32c-.34,2,2.35,4.29,4.01,5.43l6.97,4.81,6.82-4.71c1.54-1.07,5.29-4.42,3.9-5.69-.18-.17-.73-.35-.98-.38-2.19,3.25-3.9,2.54-4.3,4.86l1.16-.25c-.21.43-.41.82-.58,1.07-.17.25-1.18.14-1.19-.16l-.06-1.57c-.94.1-2.38.78-2.76,1.88l.37,1.78-2.46,2.02-2.48-1.99.44-2.08c-.64-1.07-1.98-1.67-2.98-1.63.08.74.16,1.73-.16,1.85-.55.21-1.51-.52-1.43-.93.19-.08,1.04.08,1.02-.13l-.08-1.15c-1.36-.75-3.05-2.33-3.89-3.51-.23-.32-1.28.12-1.33.46Z"/>
      <path d="M53.51,47.85c1.5.62.39,2.78,1.98,2.27l-.03-13.9c-2.79,3.77-7.94,2.42-7,5.41.2.64,1.37,1.26,2.02,1.02.24-.09.73-.92.5-.98l-1.19-.3c-.25-.06.12-.91.37-.97.25-.06.7-.04,1.08.09.82.28,1.01,1.66.6,2.37-.37.63-1.67.75-2.51.68l1.95,6.3c.25.31,1.31.52,1.66.38.28-.11.54-.61.71-1.01l-1.72-.63c.64-.65,1.21-.89,1.58-.74Z"/>
      <path d="M26.29,12.07l1.45,1.29c2.9-1.37-.49-3.94,3.63-5.3,1.99-.66,4.46-1.66,5.26-3.89.66-1.81-1.88-4.06-3.63-3.45-3.52,1.22-6.71,1.3-10.22.01-1.78-.66-4.47,1.48-3.87,3.34,1.5,4.69,8.83,2.82,7.38,8ZM20.35,2.71c.32-.65,1.41-1.21,2.13-.95,8.72,3.11,11.21-2.13,12.75,1.01,1.27,2.58-5.77,4.89-7.61,5.26-1.99-.56-8.58-2.69-7.28-5.32Z"/>
      <path d="M11.38,15.85c0,1.96,1.59,3.54,3.54,3.54s3.54-1.59,3.54-3.54-1.59-3.54-3.54-3.54-3.54,1.59-3.54,3.54ZM17.41,15.85c0,1.39-1.13,2.52-2.52,2.52s-2.52-1.13-2.52-2.52,1.13-2.52,2.52-2.52,2.52,1.13,2.52,2.52Z"/>
      <path d="M40.67,12.31c-1.96,0-3.54,1.59-3.54,3.54s1.59,3.54,3.54,3.54,3.54-1.59,3.54-3.54-1.59-3.54-3.54-3.54ZM40.66,18.38c-1.4,0-2.53-1.13-2.53-2.53s1.13-2.53,2.53-2.53,2.53,1.13,2.53,2.53-1.13,2.53-2.53,2.53Z"/>
      <path d="M15.98,11.55c-.14-3.65-1.7-6.56-.33-9.95l1.82,1.93c.28-1.2-.22-2.18-.97-3.03-.32-.36-1.45-.62-1.8-.33-2.15,1.75-.32,10.2,1.28,11.39Z"/>
      <path d="M39.88,1.51c1.58,3.46-.4,6.47-.33,10.12,2.25-2.87,2.13-6.37,2.27-9.52-.21-.82-.77-2.21-1.57-2.1-1.65.22-2.61,1.97-2.11,3.49l1.74-1.99Z"/>
      <path d="M10.47,16.11c-2.09-1.23-6.68-1.29-8.94-5.2-.16-.16-1.3.47-1.2.84,1.12,4.35,12.87,5.97,10.14,4.36Z"/>
      <path d="M49.34,14.59c-1.53.59-3.08.76-4.54,1.84,2.57.75,10.03-1.82,10.62-4.92l-1.18-.56c-.36-.17-.99,2.14-4.9,3.64Z"/>
      <path d="M51.52,36.64l-3.77,1.49c-.26.1-.27,1.42-.05,1.32l.98-.41c1.43-.6,3.02-1.08,4.39-1.84,2.14-1.19,2.86-3.99,2.2-6.42-1.99,2.51-.7,4.65-3.75,5.86Z"/>
      <path d="M3.04,37.48c.68.34,4.86,1.88,4.82,1.94l.22-.42c.51-.97-3.05-1.97-3.67-2.18-3.36-1.16-2.08-3.11-4.13-5.97-.68,2.46.4,5.46,2.75,6.63Z"/>
      <path d="M52.74,16.02l-5.87,1.91c2.32,1.14,4.6,1.7,6.93.7l-1.07-2.61Z"/>
      <path d="M8.74,17.9l-5.93-1.85-1.01,2.63c2.55.79,4.79.48,6.94-.78Z"/>
      <path d="M54.45,19.45c-.22-.19-.88.12-1.38.27-2.96.89-5.43-.77-8.36-1.42,2.66,3.89,12.35,3.41,9.74,1.15Z"/>
      <path d="M.9,20.21c-.42,1.72,8.09,1.29,10.03-1.94-3.08.84-5.58,2.43-8.46,1.44l-1.08-.37c-.24-.08-.42.62-.49.86Z"/>
      <path d="M14.11,20.65c.05-.24-.84-.44-.95-.13l-1.93,5.44c2.21-.63,2.48-3.39,2.88-5.3Z"/>
      <path d="M42.26,20.29l-.78.21c.18,1.8.79,3.9,2.35,5.44.25-.22.27-.88.12-1.27l-1.47-3.75c-.06-.15-.08-.67-.22-.64Z"/>
      <path d="M13.11,15.85c0,.98.79,1.77,1.77,1.77s1.77-.79,1.77-1.77-.79-1.77-1.77-1.77-1.77.79-1.77,1.77Z"/>
      <path d="M40.61,14.09c-.97,0-1.75.78-1.75,1.75s.78,1.75,1.75,1.75,1.75-.78,1.75-1.75-.78-1.75-1.75-1.75Z"/>
    </g>
  </g>
</svg>