<?xml version="1.0" encoding="UTF-8"?>
<svg id="Warstwa_2" data-name="Warstwa 2" xmlns="http://www.w3.org/2000/svg" viewBox="0 0 57.86 59.52">
  <g id="icon-v9-equipment-pixarts-store">
    <g id="icon-v9-equipment-pixarts-store_64">
      <path d="M12.39,32.06c-.19-.57-.61-1.2-.96-1.01-2.09,1.14,2.01,6.65,1.8,7.35-1.52-1.65-2.2-3.66-3.1-5.82l-2.5,2.44c1.53.96,1.67,2.24,1.27,3.87-.24.99-1.09,2.19-1.93,2.6-1.05.52-2.1.19-3.37-.23l2.3,6.48c-1.9-2.15-2.69-4.7-3.55-7.45-3.95.92,2,9.73,3.98,11.67l2.85-5.6c.98-1.93,4.33-1.68,5.61-.33,1.35,1.41,1.85,4.12.01,5.37l-5.07,3.42c2.57,2.66,11.29,6.87,12.96,3.09-3.16-.39-5.9-1.07-8.17-2.74l6.65,1.71c-.64-1.02-1.24-1.82-1.09-2.62.38-2.06,2.24-3.96,4.47-3.55.78.14,1.54,1.3,2.12,2.31l2.68-3.54c-2.41-.73-4.86-1.22-6.74-2.82l6.29,2.05c.37.12,1.3-.2,1.38-.5l.27-.99c-7.7-.83-15.64-7.77-18.17-15.18Z"/>
      <path d="M25.46,44.26c.81,0,1.13.23,1.88,1.02,2.22-3.52,5.54-5.84,9.7-7.02-4.01-6.09-8.89-11.17-15.41-14.91-.73,4.54-2.95,8.36-6.47,10.93.11.22.42.88.58.78l.86-.51c.22-.13.74-.21,1.02-.15l-1.62,1.39c2.47,3.48,5.57,6.37,9.45,8.46Z"/>
      <path d="M40.76,34.91c-.58-.95-.35-2.31.19-3.26.72-1.27,2.1-1.81,3.46-1.25l3.36,1.39c-.07-1.97-1.18-3.06-2.75-3.86l-.07-3.13-4.21,5.25c-.74.55-3.29-.07-3.77-.82-.53-.83-.49-2.59-.26-3.71.54-2.63,5.24-1.07,8.34-1.8-1.69-1.47-3.42-2.08-5.15-2.88-.42-1.54-.78-3.31-1.78-4.66-.69,2.45-.97,4.74-1.85,7.12-.52,1.39-3.69,1.51-4.65.59-.91-.87-1.55-3.48-.65-4.37,1.91-1.87,4.26-2.46,6.56-3.63l-4.94-.7c-.8-1.8-1.5-3.7-3.7-3.83.24,2.21,1.24,4.49,1.03,6.66-.17,1.74-3.19,2.47-4.67,1.7-.85-.44-1.56-2.35-1.79-3.34l3.7-5.46c-2.25-.76-6.14,7-7.14,8.6l1.03.54-1.7.81c2.54,1.48,4.71,2.38,6.97,3.94,5.76,3.98,9.78,9.52,13.21,15.31l.61-1.01c.07-.11.13-.21.18-.11l.47.87c2.21-1.03,4.17-2.61,5.92-4.68l-2.92.87c-1.06.32-2.5-.28-3.03-1.15ZM27.34,24.02c1.57.57,2.78,1.47,3.66,3.02-1.31-.86-2.5-1.82-3.66-3.02Z"/>
      <path d="M43.34,16.37c3.57-4.51,6.22-8.87,8.54-14.04-5.11,2.68-9.34,5.87-13.64,9.37,2.91.75,4,2.36,5.1,4.67Z"/>
      <path d="M56.34,10.31l-11.66,8.18c2.23.98,3.3,2.47,3.89,4.86,3.45-3.85,6.47-7.89,7.78-13.04Z"/>
      <path d="M42.46,0c-4.66.93-8.85,4.56-12.04,7.53,2.69.38,3.88,1.11,4.9,3.35L42.46,0Z"/>
      <path d="M14.6,48.06l-2.13,1.26,1.65-2.39c-1.04-1.09-3.45-1.18-4.26.26-1.75,3.11-3.2,6.01-4.64,9.32,1.56-.84,2.59-1.7,3.89-2.59l5.02-3.43c.77-.52.89-1.8.47-2.42Z"/>
      <path d="M19.69,22.41c-1.38-.76-4.07,3.09-4.86,4.25-1.26,1.86-1.46,4.77-.44,6.66,3.56-2.25,4.8-5.54,5.93-9.11.06-.59-.19-1.57-.63-1.81Z"/>
      <path d="M48.96,25.95c1.35,1.37,1.67,2.2,2.35,4.03,2.97-2.19,5.33-6.93,6.54-10.54l-6.8,4.87c-.72.51-1.61,1.23-2.1,1.64Z"/>
      <path d="M5.4,40.58c.18.02.56-.22.51-.39l-.24-.86,1.3.54c.8-.54,1.65-2.88.7-3.42-2.52-1.42-4.89-2.5-7.67-3.6.93,1.82,3.86,7.6,5.4,7.73Z"/>
      <path d="M28.77,59.52l-3.22-6.53c-.27-.54-.85-1.28-1.32-1.3-1.82-.08-2.63,1.27-2.36,1.68l.61.89-1.22.15c-2.35.28,7.15,5.22,7.51,5.12Z"/>
      <path d="M13.94,21.18c-.37,1.26.12,3.41.29,4.57l3.95-4.29,1.35-3.99c-2.04.1-4.87,1.21-5.59,3.71Z"/>
      <path d="M28.84,45.6c1.81.53,10.53-3.82,9.11-5.63-1.27-1.6-8.51,2.88-9.11,5.63Z"/>
      <path d="M21.09,14.58c-.63-1.01-3.79-3.15-5.53-1.98.61,2.22-.03,4.07-1.03,5.72,1.24-1.93,7.83-1.72,6.57-3.73Z"/>
      <path d="M35.58,22.82l1.29-5.57c-1.97.75-3.78,1.61-5.04,2.59-.53.48-.14,2.36.17,2.73l1.6-1.49-.72,2.22c.6.15,2.44.11,2.69-.49Z"/>
      <path d="M24.78,16.26c-.34.5.16,1.78.6,2.14l.81-1.79.03,2.26c.87.11,2.25-.22,2.95-.98-.27-2.09-.64-3.99-1.22-6.34l-3.16,4.7Z"/>
      <path d="M40.14,29.27c.45.02,1.12-.73,1.39-1.13l2.16-3.22c-1.78-.08-3.75-.09-5.6.07-.56.8-.63,2.27-.48,3l2.1-.68-1.47,1.56c.56.17,1.39.38,1.89.4Z"/>
      <path d="M26.38,8.08c-3.05.62-5.54,1.73-8.09,3.13l3.59,2.29,4.5-5.42Z"/>
      <path d="M42.04,31.69c-.3.4-.67,1.77-.2,1.82l2.26.28-2.15.76c.22.29,1.13.78,1.44.68l5.65-1.8-4.88-2.19c-.6-.27-1.77-.02-2.12.45Z"/>
      <path d="M40.78,19.61c.38-.37,1.22-1.42,1.25-1.98.23-3.68-4.54-5.45-5.55-4.54-.37.33-.88.98-1.25,1.48,1.22.17,2.72.1,3.47.75,1.26,1.07,1.48,2.67,2.07,4.31Z"/>
      <path d="M14.55,14.23c-1.26-.62-2.99-1.37-4.73-1.85,1.15,2.6,1.97,3.91,3.53,6.25.62-.5,1.94-4.04,1.2-4.4Z"/>
      <path d="M28.65,8.76c-.22.15-.41.81-.51,1.2,2.54.32,3.88,1.64,5.31,3.99.38-.48,1.06-1.79.85-2.41-.91-2.58-5.01-3.22-5.64-2.78Z"/>
      <path d="M45.06,20.02c-.4-.27-1.65-.67-2.05-.42-.34.22-.76.71-1.15,1.21,3.11.79,4.43,2.57,4.3,5.38,2.13-2.11.92-4.77-1.09-6.16Z"/>
      <path d="M48.06,26.8c-.35-.19-1.37.36-1.55.64,1.47,1.27,2.11,2.62,2.55,4.68,1.56-1.68.65-4.42-1-5.32Z"/>
    </g>
  </g>
</svg>