<?xml version="1.0" encoding="UTF-8"?>
<svg id="Warstwa_2" data-name="Warstwa 2" xmlns="http://www.w3.org/2000/svg" viewBox="0 0 55.09 61.04">
  <g id="icon-v9-equipment-pixarts-store">
    <g id="icon-v9-equipment-pixarts-store_363">
      <path d="M39.48,23.03c-3.54-3.5-7.5-4.07-11.85-6.98-4.39,3.29-8.31,3.5-11.72,7.03,3.59.91,10.63,3.66,11.64,7.45,1.1-2.46,3.27-3.95,6.11-5.21l-.43-2.55,1.27,1.89,4.97-1.62Z"/>
      <path d="M11.97,24.26c4.47-1.45,2.79-2.78,7.54-5.05,2.83-1.36,5.26-2.71,8.12-4.44l4.16,2.37c.18.1.56.27.68.18.06-.05.22-.17.32-.26.03-.03.05-.04.07-.05.03-.02.03-.03,0,0-.02.01-.04.03-.07.05,3.13,2.93,4.5,1.68,7.99,5.92.5.46,1.88.91,2.6,1.15-.96-6.06-5.19-10.92-11.12-12.33-4.38,2.58-4.87,2.56-9.08-.07-5.96,1.58-10.4,6.18-11.21,12.53Z"/>
      <path d="M32.79,17.06s.05-.04.07-.05c-.02.01-.04.03-.07.05Z"/>
      <path d="M32.85,17.01s.03-.02,0,0h0Z"/>
      <path d="M16.03,45.3l2.87,13.26c.12.57,1.34,1.33,1.97,1.59l-1.27-13.12c-.17-1.81-.39-4.06-.91-5.61-2.24-1.65-5.01-2.55-5.6-5.58,1.71,2.25,3.85,3.91,6.53,5.19l1.98,19.84c.03.29,1.08-.46,1.06-.74l-1.48-19.93c-2.91-.88-5.67-1.93-7.23-4.69-.5-.88-.18-3.13-.24-4.24-.03-.56-1.38-1.12-1.79-1.08-.11,2.3-.24,4.41-.52,6.66-.69,5.55,4.04,5.68,4.64,8.44Z"/>
      <path d="M43.34,30.01l-1.63.95.07,4.75c-2.17,2.21-4.45,3.69-7.54,4.49l-1.55,19.6c-.04.51.33,1.06.99,1.23l1.93-19.93c2.37-1.04,4.65-2.73,6.66-4.8-.99,2.78-3.74,3.78-5.87,5.33l-1.93,18.42c.72-.09,1.86-.96,2.03-1.74l2.92-13.3c.5-2.3,5.85-2.87,4.42-8.88-.45-1.91-.35-3.87-.5-6.13Z"/>
      <path d="M14.82,34.22c-.71,2.62,4.61,4.94,7.08,5.09l.75,7.51c3.35,1.4,6.88,1.47,10.12.03l.72-7.51c3.17-.81,6.5-1.56,7.22-5.04-2.9,2.41-6.01,5.05-10.11,2.76l1.01,6.9-3.94,2.65-4.02-2.66,1.11-6.74c-3.46,1.88-7.52-.15-9.92-2.97Z"/>
      <path d="M12.57,29.25c4.51,1.26,8.81,2.17,13.57,3.18.81-.87.75-2.02,0-2.75-2.99-2.95-11.25-7.85-14.08-3.69-.47.69-.58,2.96.5,3.26Z"/>
      <path d="M34.67,25.99l.24,1.65-.8-1.4c-1.87.81-6.05,3.18-5.58,5.39.07.31.96.71,1.27.64l5.86-1.16.64-2.83.34,2.61,6.06-1.59c.96-.25,1.11-2.39.68-3.17-1.71-3.1-6.47-1.43-8.71-.14Z"/>
      <path d="M26.27,33.62l-.96,8.13c-.12,1.04,1.53,2.48,2.53,2.42.74-.05,2.26-1.41,2.18-2.17l-.87-8.18c-.06-.55-.88-1.37-1.36-1.38-.48-.01-1.46.64-1.52,1.18Z"/>
      <path d="M30.72,10.3L27.67,0l-3.33,11.28c1.22.77,2.23,1.22,3.5,1.46l.09-9.39c.82,2.87,1.38,5.22,1.92,8.39.19-.03.53-.09.69-.11.28-.04.25-1.05.17-1.33Z"/>
      <path d="M29.86,11.74c-.14.02-.19.03,0,0h0Z"/>
      <path d="M8.74,29.1l-8.74,3.13c3.23,1.23,5.79,2.11,8.72,2.53l-6.03-2.31,6.38.59-.33-3.95Z"/>
      <path d="M55.09,32.23l-8.48-3.1-.32,3.69,6.11-.3c-2.11,1-3.93,1.04-5.8,2.33,3.07-.63,5.57-1.4,8.5-2.63Z"/>
      <path d="M43.24,43.56l2.76,3.17c-2.18,1.92-4.02,2.32-6.51,3.64,1.17.45,8.15-2.2,7.79-3.73-.31-1.3-2.17-2.57-3.12-5.01-.45.09-1.33,1.46-.93,1.92Z"/>
      <path d="M15.58,50.35c-2.69-1.32-4.45-1.83-6.37-3.61l3.25-3.58-1.22-1.66c-.79,1.48-1.57,2.73-2.81,4.11-2.48,2.77,7,5.17,7.15,4.74Z"/>
      <path d="M45.55,27.23c-1.08-3.98-1.48,9.34-.61,9.49.49.25.83-.52.78-1.19-.39-4.45.3-6.59-.17-8.3Z"/>
      <path d="M9.95,36.81c1.38-1.79.68-6.91.6-9.62-.73-.06-1,.57-.94,1.29.2,2.33.14,5.34-.03,7.45-.02.23.26,1.03.38.88Z"/>
    </g>
  </g>
</svg>