<?xml version="1.0" encoding="UTF-8"?>
<svg id="Warstwa_2" data-name="Warstwa 2" xmlns="http://www.w3.org/2000/svg" viewBox="0 0 40.92 56.75">
  <g id="icon-v9-equipment-pixarts-store">
    <g id="icon-v9-equipment-pixarts-store_218">
      <path d="M17.13,27.92c-5.19.16-5.76.87-9.43-2.35l-4.35,5.62,4.35,5.55c3.23-3,5.17-2.37,9.35-2.21-.1,4.91.92,13.67-3.11,17.18l6.54,5.04,6.5-5.05c-3.99-3.76-3.22-12.09-3.11-17.19,3.72-.22,6.76-.5,9.34,2.27l4.31-5.59-4.34-5.68c-3.61,3.42-4.52,2.41-9.36,2.46-.09-4.69-.47-5.24,2.37-8.85l-5.78-4.38-5.72,4.47c3.04,3.05,2.31,4.62,2.44,8.71ZM19.11,20.88c-.02-.3-.72-1.07-.54-1.3l.94-1.19c.15-.18.65-.56.88-.61.29-.07.81.43,1.04.68l.87.96c.22.24-.46,1.02-.5,1.36-.23,1.83-.36,3.97.04,5.82,3.16,4.47,3.04,3.27,7.66,3.52,1.19.06,2.1-.24,3.19-.91l2.16,2.03-2,1.81c-1.15-.5-2.15-.79-3.35-.75-4.93.13-4.52-.89-7.8,3.59v13.19c0,.81.35,1.58.88,2.72l-2.18,2.03-2.09-2.15c.24-.37.89-1.26.89-1.74v-14.12s-2.84-3.38-2.84-3.38c-2.19-.1-5.11-.12-6.9.01-.41.03-1.17.81-1.4.62l-1.06-.87c-.22-.18-.64-.71-.72-.99-.07-.27.47-.82.69-1.01l1.1-.88c.25-.2,1.08.57,1.42.61,1.89.24,4.55.29,6.58-.04,3.61-2.62,3.44-4.23,3.04-9.01Z"/>
      <path d="M20.37,13.51l1.72.66.66-5.43c-1.71-.38-2.99-.43-4.45.12-.05,1.94.23,3.7.64,5.46.6-.39,1.1-.94,1.43-.81Z"/>
      <path d="M5.1,2.55c-.1.25,0,.98.21,1.18l4.54,4.21c.19.18,1-.08,1.13-.27.14-.19.13-.85-.11-1.07L6.3,2.45c-.24-.22-1.1-.16-1.2.09Z"/>
      <path d="M30.48,7.89c.23.09.92,0,1.09-.17l4.19-4.06c.23-.22.26-1.09,0-1.26-.22-.15-.93-.08-1.16.14l-4.25,4.06c-.24.23-.14,1.17.14,1.29Z"/>
      <path d="M14.87,11.89l-3.83-2.24-2.94-2.42c-1.34,1.87,2.41,3.87,4.02,4.96.76.52,2.36.29,2.75-.31Z"/>
      <path d="M32.94,7.48c-2.34,1.73-4.27,3.03-6.63,4.4,1.12,2.37,8.31-3,6.63-4.4Z"/>
      <path d="M5.66,5.06L1.65.18c-.35-.12-1.09-.06-1.65.18,1.19,1.52,3.96,6.38,5.66,4.7Z"/>
      <path d="M38.64.97c-1.07,1.5-2.14,2.68-3.5,4.24,1.85,1.54,4.56-3.26,5.79-4.71-1.01-1.03-1.77-.25-2.29.47Z"/>
      <path d="M25.25,7.67c-.16.13-.37.78-.47.96-.1.18.74.65,1.01.46l5.36-3.85c-1.04-1.91-5.25,1.89-5.9,2.43Z"/>
      <path d="M9.96,5.03c1.94,1.78,3.91,3.16,6.17,4.26,1.28-1.56-5.79-5.96-6.17-4.26Z"/>
      <path d="M23.52,12.33l3.66-1.58c.29-.13.61-.86.56-1.15-.05-.29-.85-.55-1.14-.41l-2.98,1.39c-.39.18-.4,1.56-.1,1.75Z"/>
      <path d="M16.82,10.14l-2.36-.95c-.31-.13-1.12.17-1.15.46-.02.23.21.88.46.99l3.64,1.6c.33-.95.05-1.84-.59-2.09Z"/>
      <path d="M26.14,36.68c-.74.81-2.1,1.37-1.16,2.74,1.7-1.05,3.01-2.27,3.71-3.97-1.36-.4-1.86.48-2.55,1.23Z"/>
      <path d="M14.3,26.34l1.28-1.29c.42-.42.59-1.13.42-1.97-1.7.9-2.95,2.1-3.87,3.95.95.23,1.6-.11,2.18-.7Z"/>
      <path d="M24.97,23.09c-.62,1.39.28,1.99,1.13,2.72.77.66,1.13,1.8,2.68,1.21-.94-1.7-2.21-3.03-3.81-3.94Z"/>
      <path d="M12.31,35.57c.85,1.55,2.14,2.86,3.59,3.71,1.62-.96-3.16-5.16-3.59-3.71Z"/>
      <path d="M33.31.74c-.5.79-.74,1.54-.16,2.6l2.6-3.12c-1.11-.34-1.99-.2-2.44.52Z"/>
      <path d="M7.53.54C7.16.06,6.24,0,5.32.19l2.61,3.1c.72-1.24.22-1.97-.39-2.76Z"/>
      <path d="M20.39,35.59l2.93-3.39c.39-.45,1.42-.75,2.2-1.02l-1.51-.31-3.5-4.06-3.92,4.2,3.81,4.58Z"/>
    </g>
  </g>
</svg>