<?xml version="1.0" encoding="UTF-8"?>
<svg id="Warstwa_2" data-name="Warstwa 2" xmlns="http://www.w3.org/2000/svg" viewBox="0 0 57.84 60.98">
  <g id="icon-v9-equipment-pixarts-store">
    <g id="icon-v9-equipment-pixarts-store_52">
      <path d="M1.94,45.49c-.09,0,2.2,2.16.27,4.18.41,1.03,1.62,2.47,2.57,3.44l2.06-.87,3.31,2.65-.45,2.51,4.14,2.2c.9-1.7,1.83-1.51,3.02-.99.47.2,1.12.39,1.21.72l.34,1.29c.13.5,1.9.45,2.25.02.99-1.22,2.08-3,2.78-4.42l-2.27-.77c1.08.05,1.71.13,2.62.02-7.87-3.1-15.14-7.64-18.62-16.33-1.62,1.19-6.66,4.29-4.76,6.37l1.52-.03ZM20.6,56.34c.57,0,1.02.46,1.02,1.02s-.46,1.02-1.02,1.02-1.02-.46-1.02-1.02.46-1.02,1.02-1.02ZM12.8,53.62c.23-.4,1.6-.19,1.98.17.21.2-.1,1.12-.36,1.25-.32.15-1.01.2-1.33.02-.31-.18-.48-1.13-.3-1.44ZM6.96,47.43c.56,0,1.01.45,1.01,1.01s-.45,1.01-1.01,1.01-1.01-.45-1.01-1.01.45-1.01,1.01-1.01ZM3.65,42.27c.6,0,1.08.48,1.08,1.08s-.48,1.08-1.08,1.08-1.08-.48-1.08-1.08.48-1.08,1.08-1.08Z"/>
      <path d="M25.55,23.18c3.33-1.87,6.66-1.29,9.4.95,2.8,2.29,3.74,5.71,2.77,9.24.71.31,1.52.18,1.71-.31l.6-1.55-.27,2.13,2.04,1.51c.64.47,1.53.57,2.05-.03,1.51-1.72-1.98-1.92-1.55-4.22.27-1.44-.13-2.29-1.34-2.86-3.53-1.66-.38-4.69-4.57-5.45-2.72-.5-2.22-5.04-4.58-4.25-4.77,1.59-4.13-5.35-6.06-2.9l-2.44,3.11c.23,1.85,1.03,3.4,2.25,4.63Z"/>
      <path d="M24.01,27.97c-.67.05-1.29.13-1.24.45.22,1.4,1.49,1.56,1.09,2.17l-.58.89c-.15.22-.38.73-.46.96-.06.17.48.31.7.43l1.15.64c.51.28-.44,2.32.23,2.29l.95-.04,1.38-.05c.5-.02.23.83,1.22,1.72.58.53,1.15-1.17,1.87-1.18,1.23-.02,1.73,1.35,2.08.81.68-1.06.61-2.17,1.18-2.23l2-.23-.23-2.94c.68-.3,1.7-1.3,1.29-1.67l-1.22-1.07c-.37-.33.09-.89.11-2.54,0-.57-1.52.17-2.41-.58-.43-.36.06-1.8-.76-1.89-.91-.1-.19-.06-1.99.85-.5.26-1.34-1.56-1.77-1.21-1.2.97-.91,1.74-1.37,1.69l-1.43-.16c-.25-.03-1.07-.01-1.05.24l.1.94c.07.63-.29,1.64-.82,1.68ZM27.5,33.73c.59-1.54,3.78-1.77,4.6-.11-.58,1.35-3.75,1.63-4.6.11ZM28.56,30.51c0-.59.47-1.06,1.06-1.06s1.06.47,1.06,1.06-.47,1.06-1.06,1.06-1.06-.47-1.06-1.06ZM32.51,28.9l.74-.45c.7-.42,1.05,2.95.12,4.25-.65-.37-1.34-1.03-1.66-1.57-.31-.52.29-1.93.8-2.24ZM32.03,27.1c-.34.83-1.28,1.43-1.93,1.38-.99-.07-2.4-.5-2.69-1.3,1.12-1.19,3.22-1.26,4.62-.08ZM26.19,28.35c.64.22,1.53,1.32,1.62,1.98.1.79-.69,2.08-1.38,2.45-1.45-1.04-1.41-3.17-.23-4.43Z"/>
      <path d="M29.46,17.28c.69.17,1.6.11,2.35.03,1.85-.19,3.05,1.65,3.28,3.34.65.35,2.2.29,2.68-.2.54-.54-.12-2.09-.74-1.96-.43.09-.94.26-1.68.51.14-.63,1.22-1.28,1.9-1.01.63.25,1.33,1.07,1.41,1.63.1.66-.65,1.49-1.6,1.97,1.46.1,2.52,1.54,2.88,2.86.81-.58,1.97-.9,2.61-.35.55.47.56,1.88.03,2.37-.47.44-2.01.39-2.08-.04.75-.14,1.57-.25,1.94-.54.31-.24-.03-1.19-.3-1.47-.28-.28-1.28-.21-1.58.05-.48.42-.93.92-.91,1.29.02.29.51.98.77,1.1l2.58,1.17c-.09,1.55,1.3,1.87,2.12,1.94.53.05,1.01,1.29.76,1.69-.24.4-.99.91-1.46,1.21l1,2.19c.26.14,1.44-.18,1.55-.57.1-.39-.04-1.14-.01-1.75.04-.98.69-3.09-.3-3.59-1.67-.83-2.75-1.68-2.26-3.73.3-1.27-.56-2.61-1.85-2.93-4.74-1.2-.1-5.77-6.15-6.04-.78-.04-2.41-.98-2.7-1.69-.37-.9-.63-2.07-1.25-2.29-3.37-1.2-1.53.78-4.71-.6-.6-.26-1.69,1.56-1.25,1.88,2.89.84,1.52,3.16,3,3.52ZM30.57,13.52c.9,0,1.63.73,1.63,1.63s-.73,1.63-1.63,1.63-1.63-.73-1.63-1.63.73-1.63,1.63-1.63Z"/>
      <path d="M15.15,29.18c1.69,2.41,3.45,4.54,6.2,3.03.15-.08.06-.82-.11-.82l-.87-.03.76-.96-.57-.71c-.06-.08.13-.13.26-.17l.48-.15c.46-2.15,1.27-3.95,3.23-5.47l-2.2-4.19c-2.82,3.23-4.84,6.11-7.18,9.46Z"/>
      <path d="M25.27,37.88c-1.27-1.14-2.16-2.19-3.41-3.8-.49.56-1.31,1.71-1.82,2.16l-5.26,4.58c1.39,2.07,3.24,3.67,5.36,5,2.5-6.25,4.38-3.17,6.51-7.24l-.94-.21c-.15-.03-.27-.3-.43-.49Z"/>
      <path d="M17.16,51.11l2.83-4.51c-2.52-1.77-4.31-3.47-6.17-5.67l-4,4.21c2.47,2.54,4.59,4.48,7.34,5.97Z"/>
      <path d="M44.65,13.05v-1.69c-.01-1.15-2.55-1.85-3.39-.9l-4.3,4.84c1.31.17,2.44.41,2.93,1.11.73,1.06.88,1.85,1.24,3.23l4.65-6.41c-.22-1.2-.41-1.27-1.14-.19Z"/>
      <path d="M45.51,25.76l4.88-5.58c.58-.67.06-2.25-.48-2.84-.61-.67-2.18-1.01-2.84-.45l-4.9,4.21,2.56-.4-1.1.72c1.2,1.41,1.65,2.63,1.88,4.33Z"/>
      <path d="M40.15,35.94c-.37-.25-1.31-.49-1.75-.43l-2.1.27c-.08-.06,0,1.02-.29,1.07l-1.16.19c-.02.76-.42,1.89-.35,2.5l.24,2.13c.21.12,1.07.42,1.06.69l-.03.95c.56-.19,1.18-.61,1.4-.39l.8.76c.8-.42,1.57-.54,2.45-.38l.41-1.04c.11-.27,1.13-.4,1.34-.53l-.17-1.43c-.03-.27.53-.79.72-1.13l-.9-.86c-.17-.16.1-.97.11-1.18l-1.79-1.19ZM38.4,41.92c-1.34,0-2.42-1.08-2.42-2.42s1.08-2.42,2.42-2.42,2.42,1.08,2.42,2.42-1.08,2.42-2.42,2.42Z"/>
      <path d="M14.61,21.51c.12,1.91.41,3.96.82,5.61,2.58-3.39,4.57-5.91,7.15-8.96-1.92-.9-4.34-.17-4.86,1.97-.33,1.35-1.68,1.48-3.11,1.38Z"/>
      <path d="M48.23,31.29l4.6-3.72c.25-.95-.02-2.17-.71-2.69-.75-.57-2.01-.51-2.73-.06l-3.54,2.22c1.48,1.21,2.09,2.46,2.38,4.25Z"/>
      <path d="M48.68,7.39l-.23,2.33,2.49-3.77c.5-.76-.1-2.34-.75-2.82-.84-.61-2.36-.6-3.11.14l-2.77,2.75,3.65,2.47.71-1.1Z"/>
      <path d="M29.47,39.14c-.6,1.13-1.28,3-.41,4.15.67.89,1.78,1.45,2.87,2.08l2.2-2.57-1.13-2.35c-.3-.64-.16-1.44.25-2.1l-3.77.79Z"/>
      <path d="M20.38,11.66c.37.18,4.19-2.76,4.04-5.56-.03-.45-.86-1-1.24-.96-2.09.21-1.25,1.71-4.86,3.93-.93.57-1.48,1.3-1.5,2.63l1.79-1.04c.5.3,1.32.78,1.77,1Z"/>
      <path d="M13.24,31.27c-.25.42.08,1.4.48,1.86l3.47,4.08c1.82-.87,3.15-1.92,4-3.8l-2.55,1.45c.72-.64-2.03-2.62-3.66-4.24-.38-.37-1.45.17-1.73.64Z"/>
      <path d="M34.63,14.53l2.29-3.7c.13-.94-.06-1.66-.75-2.4-.91-.98-2.61-2.16-3.86-.86-.85.89-1.74,2.35-2.35,3.37,1.67.25,3.21.61,4.22,1.26l.46,2.32Z"/>
      <path d="M41.25,9.46c1.26-.29,2.48-.26,3.55.48.86.6,1.23,1.74,1.8,3.35.31-.1,1.49-1.15,1.47-1.75-.05-1.94-1.68-3.74-3.47-4.12-1.76-.38-3.09.56-3.36,2.04Z"/>
      <path d="M13.96,20.42c1.29.65,3.26-1.05,3.57-2.38.34-1.42-.34-3.63-2-3.93-1.52-.28-2.41,1.32-2.73,2.54-.29,1.12-.31,3.03,1.16,3.77ZM13.81,17.05c.24-.74,1.34-1.77,2.06-1.57.13.04.21.91.09.88l-.64-.14c-.8.38-1.46,1.39-.28,2.66l1.07-2.47c.12.49.32,1.35.21,1.72-.11.37-.73.8-1.36,1.1-.65.31-1.4-1.37-1.14-2.18Z"/>
      <path d="M36.23,7.06c.65.48,1.05,1.67,1.71,3.06.84-.34,1.78-1.84,1.26-2.83-.91-1.72-2.65-3.03-4.68-2.96-.86.03-1.96,1.42-1.95,2.06,1.22-.13,2.63-.09,3.66.67Z"/>
      <path d="M52.95,14.19l.57,1.85,1.54-2.56c.69-1.15.43-2.6-.56-3.22-1.02-.64-2.79-.17-2.97.96l-.3,1.9c.01.49,1.31,1,1.72,1.08Z"/>
      <path d="M12.98,33.37c-.18-.18-.4-.34-.76-.58l-5.08,5.15c-.28.28-.71.9-.84,1.22-.13.33.47,1.08.85,1.25l5.47-5.54c.23-.23.58-1.27.35-1.5Z"/>
      <path d="M30.36,46.87c.23-.15.47-.95.25-1.11l-5.59-4.07-1.91,1.25,5.83,3.76c.36.23,1.13.36,1.42.17Z"/>
      <path d="M41.04,4.95c1.23-1.31,1.48-2.61.93-3.68-.37-.71-2.03-1.6-2.86-1.14-.97.53-1.73,1.26-2.42,1.98,2.27.09,3.34,1.14,4.34,2.84Z"/>
      <path d="M52.27,15.24c-.56-.72-1.75-1.29-2.63-1.3-1.03-.01-1.98.79-2.38,1.88,1.17-.1,2.35-.09,3.01.58.83.85,1.1,1.98,1.43,3.23,1.65-.96,1.71-2.92.57-4.39Z"/>
      <path d="M52.83,21.59l1.25-.67,2.04,2.95,1.72-2.98c-.15-.74-.6-1.68-1.17-2-1.6-.88-3.35,1.1-3.85,2.7Z"/>
      <rect x="21.43" y="49.84" width="8.65" height="1.54" transform="translate(-30.29 41.48) rotate(-53.78)"/>
      <path d="M53.12,22.21c-1.06-.32-2.4.38-2.5,1.25.81.14,1.83.31,2.23.76,1.39,1.58.09,4.67,1.91,2.57,1.07-1.24.41-3.97-1.64-4.59Z"/>
      <path d="M20.04,12.79c-.03-.51-1.39-.78-1.89-.76-.48.02-1.3.75-1.28,1.32,1.12.9,1.92,2.08,1.89,3.43.09.53,1.41.2,1.93-.34l1.32.79c.51-1.39.6-3.08.08-4.35-.79.21-1.72.55-1.52.58l-.28,2.9-.24-3.58Z"/>
      <path d="M13.08,38.8c.05-.41-.63-1.44-.95-1.14l-4.4,4.1.89,1.5,4.46-4.47Z"/>
      <path d="M23.85,48.47c.02-.41-1.2-1.01-1.46-.64l-3.22,4.55,1.66.77,3.02-4.67Z"/>
      <path d="M27.77,56.32c4.08-.82,7.73-8.18,5.14-8.33-1.23-.07-.73,2.06-1.94,3.8l.99,1.26-1.36-.61-2.69,1.95c-.44.32-.42,1.69-.14,1.94Z"/>
      <path d="M23.06,13.08c1.32-1.91,2.67-3.65,2.14-6.02-1.09,1.81-2.01,3.07-3.41,4.69l1.27,1.33Z"/>
      <path d="M12.79,30.05l1.02-.63c.95-.59-2.29-.23-.36-7.07l.16-.55c.03-.09-.35-.05-.48-.03-2.29,2.17-.92,8.65-.33,8.28Z"/>
      <path d="M9.44,30.73l-.62-1.57c-1.33.98-2.38,1.86-3.54,3.05.44.45,1.15,1.08,1.28,1.12l2.88-2.6Z"/>
      <path d="M39.14,3.79c-1.1-.73-2.38-.94-3.34-.4,1.61.79,2.87,1.72,4.26,3,.57-.96.08-1.95-.92-2.61Z"/>
      <path d="M5.76,36.07l.28-1.67c.06-.39,0-.91-.14-1.19-.13-.28-1.23.03-1.32.35-.16.59-.49,1.94-.6,2.56.09.36,1.71.39,1.78-.05Z"/>
      <path d="M32.1,47.18c-.12.47,1.78.85,1.81.33l.19-3.19c-.96.83-1.71,1.76-2.01,2.86Z"/>
      <path d="M28.42,39.72c.04-.21-.05-.74-.1-.92-.05-.19-.58.19-.72.41l-1.48,2.29,1.69,1.23.6-3Z"/>
      <path d="M45.35,30.6c-.26-.11-.83-.25-1.21-.28-.44-.04-1.34.74-1.15,1.11.23.44.45.83.66,1.08.21.25,1.24-.2,1.61-.52.21-.19.36-1.27.1-1.38Z"/>
      <rect x="9.49" y="28.71" width="2.21" height="1.82" transform="translate(-8.02 4.26) rotate(-16.6)"/>
      <path d="M25.17,54.54l-1.8,3.52c1.67-.39,2.57-1.98,1.8-3.52Z"/>
      <path d="M2.16,40.45l3.26-2.3c-1.74-.36-2.82.94-3.26,2.3Z"/>
      <rect x="25.58" y="55.19" width="2.05" height="1.02" transform="translate(-29.6 81.21) rotate(-88.88)"/>
      <rect x="24.08" y="44.78" width="1.37" height="1.96" transform="translate(-27.22 43.45) rotate(-59.04)"/>
      <path d="M30.54,16.41c.65,0,1.18-.53,1.18-1.18s-.53-1.18-1.18-1.18-1.18.53-1.18,1.18.53,1.18,1.18,1.18Z"/>
      <path d="M38.5,37.82c-.91,0-1.66.74-1.66,1.66s.74,1.66,1.66,1.66,1.66-.74,1.66-1.66-.74-1.66-1.66-1.66Z"/>
    </g>
  </g>
</svg>