<?xml version="1.0" encoding="UTF-8"?>
<svg id="Warstwa_2" data-name="Warstwa 2" xmlns="http://www.w3.org/2000/svg" viewBox="0 0 53.23 57.73">
  <g id="icon-v9-equipment-pixarts-store">
    <g id="icon-v9-equipment-pixarts-store_308">
      <path d="M46.13,14.47c-.82.14-1.52,1.16-1.23,1.8.2.45,1.1,1.01,1.59.91.48-.09,1.04-1.04,1.06-1.55.01-.49-.91-1.26-1.41-1.17Z"/>
      <path d="M34.09,3.89c-1.45-2.06-5.29,2.49-12.51-.53-.55-.23-1.78.21-2.06.63-1.16,1.73,2.37,4.17,4.41,4.72l.96,3.13,3.86-.02.97-3.11c2.08-.49,5.63-3.02,4.37-4.81Z"/>
      <path d="M6.74,17.15c.76.33,1.92-.42,2-1.17.06-.55-.72-1.74-1.23-1.54-.79.31-1.4.76-1.48,1.2-.07.37.37,1.36.71,1.51Z"/>
      <path d="M26.77,20.07c-2.46,0-4.45,1.99-4.45,4.45s1.99,4.45,4.45,4.45,4.45-1.99,4.45-4.45-1.99-4.45-4.45-4.45ZM24.93,27.6c-.92-.71-1.23-1.2-1.49-2.26.61.12,1.2.3,1.41.57.21.27.2.99.08,1.68ZM25.48,22.99c-.11.37-1.09,1.08-1.45.85-.89-.57.28-1.93.98-1.87.3.05.56.71.47,1.02ZM27.26,27.76c-.11.22-.3.5-.41.64-.11.14-.62-.08-.7-.24-.44-.94,1.28-2.59,2.3-2.68l-1.2,2.28ZM29.76,23.88l-.13,1.06c-.02.15-1.29.42-1.95-2.43-.09-.38,1.35-.34,1.66-.1.3.24.49.94.42,1.48Z"/>
      <path d="M40.18,24c1.12-.71,2.04-2.64.6-4.05-.89-.87-2.35-1.34-3.96-.15-.49.36-.69,1.53-.56,2.52.23,1.83,2.41,2.64,3.93,1.68ZM38.88,20.4c.69,0,1.26.56,1.26,1.26s-.56,1.26-1.26,1.26-1.26-.56-1.26-1.26.56-1.26,1.26-1.26Z"/>
      <path d="M13.07,23.17c-.49-.34-.57-1.63-.72-2.42-.36.58-.54,2.55.2,2.88,1.15.51,2.93.45,3.44-.19-1.19,0-2.34.14-2.92-.27Z"/>
      <path d="M31.45,17.52c-.24-.18-.6-1.04-.63-.85-.02.14-.65.36-.83.28-3.56-1.71-8.76-.37-10.63,4.01-1.21,2.83-1.26,5.95.89,8.75,3.03,3.96,9.13,4.25,12.79.46,3.76-3.91,2-10.04-1.59-12.64ZM33.89,25.39c-.56.22-1.43.72-1.68,1.17-.25.45.04,1.35.36,2.11.08.45-1.1,1.47-1.65,1.34l-1.63-.39c-1.12-.27-1.12,2.35-2.51,2.21-1.77-.18-1.18-2.04-2.54-2.23-.52-.07-1.29.21-1.93.52l-1.59-1.34c2.54-3.63-2.12-2.14-1.44-5.42,1.37.46,2.54-.98,2.18-2.08-.18-.55-.45-1.16-.3-1.52.16-.37,1.1-.86,1.5-.69,2.67,1.16,2.41-1.66,4.15-1.84,1.62-.16.09,1.11,3.21,2.32.82-.75,1.38-1.05,2.13-.36.7.65.69,1.09-.11,1.92.1.53.48,1.69.8,2.1.43.19,1.2.21,1.31.53.15.44.14,1.49-.24,1.64Z"/>
      <path d="M28.04,48.65c-1.62-.41-3.37-.04-4.42,1.32-.91,1.17-.96,2.85-.26,4.41.73,1.65,2.7,2.21,4.39,1.84,1.49-.32,2.86-1.61,2.88-3.59.02-2.08-.98-3.58-2.58-3.99ZM26.77,54.39c-1.12,0-2.03-.91-2.03-2.03s.91-2.03,2.03-2.03,2.03.91,2.03,2.03-.91,2.03-2.03,2.03Z"/>
      <path d="M38.92,33.94l-1.64,3.1c-1.1-.62-2.37-1.32-3.3-2.51,1.21.43,1.83.95,3.13,1.88l1.24-2.85c-1.77-.61-2.73-1.49-2.77-2.96-.04-1.27.8-2.57,1.69-2.94,1.42-.59,3.06-.47,3.68.91.51,1.14,1.22,2.42,2.47,2.64,2.71-3.48-1.11-3.3-.93-6.66l1.89,3.43c1.3-.94.16-1.58-.21-2.35-1.25-2.58-1.51-5.39-1.73-8.4l-2.52-1.53c-.69,1.2-1.13,2-1.79,2.32-.86.41-2.07.21-2.8-.22-1.44-.84-1.99-2.01-1.67-3.48.74-3.44,3.86.41,5.36-8.7.18-1.07-1.06-2.06-1.74-1.6-.4,6.25-4.05,9.13-9.95,9.86-.07.94.04,1.52-1,2.2l.21-2.18c-5.65-.42-10.36-3.77-10.17-10.26-.71.38-1.36.82-2.05,1.37,1.75,9.53,5.11,6.42,5.61,8.97.22,1.13-.05,2.26-.86,3.1-.83.86-1.99,1.44-3.12,1.12-.97-.27-1.68-1.18-2.21-2.43l-2.39,1.39c-.27,3.03-.59,6.04-2.15,8.62l-.65,1.08c-.14.24.5.88.52,1.19.08,1,.42,2.55,1.13,3.54,1.25-1.09,1.8-2,2.5-3.31.64-1.19,2.48-1.32,3.42-.81,1.26.69,2.02,1.85,1.82,3.28-.18,1.28-1.05,2.08-2.63,2.85l1.2,2.35,2.09-.67c-.81.82-1.34,1.21-1.84,1.53l-2.22-2.93-3.43,2.42c.17.82.64,2.04,1.11,2.72,3.01.06,5.48-1.31,7.67-3.24,4.2-3.71,4.07.82,11-1.83l5.48,3.8c1.18.82,3.11,1.11,4.75,1.37.58-.73,1.12-1.96,1.36-2.81l-3.58-2.4ZM36.81,19.79c1.62-1.19,3.07-.72,3.96.15,1.44,1.41.52,3.35-.6,4.05-1.52.96-3.7.15-3.93-1.68-.12-1,.07-2.16.56-2.52ZM12.55,23.63c-.73-.33-.56-2.3-.2-2.88.15.79.23,2.07.72,2.42.58.41,1.73.27,2.92.27-.51.65-2.29.7-3.44.19ZM20.25,29.7c-2.15-2.81-2.1-5.92-.89-8.75,1.87-4.38,7.07-5.72,10.63-4.01.18.08.81-.14.83-.28.03-.19.39.68.63.85,3.59,2.61,5.35,8.74,1.59,12.64-3.65,3.8-9.76,3.51-12.79-.46Z"/>
      <path d="M31.12,11.99c2.84-1.08,4.61-3.56,5.12-6.38-.39-.15-.76-.15-.71-.32.04-.13.29-.9.26-1.09-.23-1.18-2.52-2.39-4.13-1.68-7,3.04-10.57-2.24-13.44.81-2.26,2.4.82,8.25,4.71,8.81.51-1.04-.08-2.19-.83-2.98,1.75,0,.7,1.89,1.35,2.81.77,1.09,3.02,1.15,4.63.9l-1.47-.52,1.71.15c.4.04,1.23-.04,1.58-.22.33-.17.49-.95.49-1.51,0-1.31.89-2.03,1.9-1.89l-1.5,1.29c-.34.29-.01,1.81.33,1.82ZM29.72,8.7l-.97,3.11-3.86.02-.96-3.13c-2.04-.55-5.57-2.99-4.41-4.72.28-.42,1.51-.86,2.06-.63,7.22,3.02,11.06-1.53,12.51.53,1.26,1.79-2.29,4.32-4.37,4.81Z"/>
      <path d="M2.37,10.31c-1,.69-1.59,1.19-2.37,2.09,1.99,2.88,3.93,4.93,6.5,7.05,1.47-.99,2.53-1.77,3.84-2.87l-2.81-5.09c-.41-.74-.71-2.42-1.01-3.24l-2.64.23c-.3.03-1.05.52-1.12.82-.07.29.39.92.69.97l1.46.23-1.37.71c.03.62,0,1.64-.11,2.16l-1.07-3.06ZM6.04,15.64c.08-.44.69-.89,1.48-1.2.51-.2,1.29.99,1.23,1.54-.09.75-1.24,1.49-2,1.17-.34-.15-.77-1.14-.71-1.51Z"/>
      <path d="M50.51,9.01c-.21-.43-1.18-.63-1.74-.6l-1.43-.42c-.98,4.32-3.61,6.03-3.76,9.01l3.46,2.5c1.46-1.37,7.23-6.13,6.03-7.73-.25-.34-1.16-.92-1.72-1.02-.45-.08-.78,1.21-1.02,1.74-.31-.36-.81-1.35-.8-1.66.66-.48,1.25-1.29.99-1.82ZM46.48,17.19c-.49.1-1.39-.47-1.59-.91-.28-.65.42-1.66,1.23-1.8.5-.09,1.43.68,1.41,1.17-.01.51-.58,1.45-1.06,1.55Z"/>
      <path d="M24.07,43.28c1.9-.27,3.28-.89,5.21.1,2.5.18,4.15-2.52,4.82-5.17-1.45.72-3.18,1.81-4.52,2.06-6.05-2.81-3.03,2.57-9.91-2.18.13,1.96,1.89,5.54,4.4,5.18Z"/>
      <path d="M34.59,50.22c-.35-.76-.58-2.14-2.84-2.62-.25-.05-.58.52-.51.77l.25.89c-1.35-.84-2.89-2.14-4.61-2.22-1.51-.07-3.13,1.24-4.27,1.87l-.86-1.14-2.19.94c-.34,1.02-.59,1.54-1.21,2.28-.52.62-.04,2.4.56,3.14.52.63,1.66.98,2.68,1.23-.8-1.81-.98-3.27-.71-5.16l1.52-1.27c-1.02,2.18-1.32,4.52.15,6.81,1.52,2.37,5.19,2.54,7.8,1,.64-.38.63-1.07.82-1.52.81-1.9,1.18-3.5.28-5.88,2.07,1.2,1.61,3.71.49,5.82,1.23.57,2.26-.44,2.94-1.4,1.02-1.43.29-2.25-.3-3.52ZM27.74,56.23c-1.68.36-3.65-.19-4.39-1.84-.7-1.57-.64-3.24.26-4.41,1.05-1.36,2.8-1.73,4.42-1.32,1.6.41,2.59,1.91,2.58,3.99-.02,1.98-1.38,3.26-2.88,3.59Z"/>
      <path d="M29.5,39.47c1.3-.41,2.73-1.28,3.86-2.26-2.42-3.33-3.61-.09-9.5-1.45-1.13-.26-2.86-.05-3.24,1.29,4.13,5.11,4.18-.73,8.88,2.42Z"/>
      <path d="M41.38,10.03l-.62-.8c.38-.09,1.01-.17,1.17-.39.15-.22.14-.83.26-1.09.57-1.28.71-2.56.61-4.04,0-.47.29-1.21-.05-1.43-.42-.27-1.38-.54-1.74-.4l-1,.37c-.21.08.11.84.33.85l.8.04c.5.02,1.05.1,1.57.21l-2.2.28-.97,5.16-1.63,2.61c-.21.34.38,1.33.61,1.46l-1.09-.18c-.1-.02-1.79,1.23-1.67,2.61.03.35.63.82.96.94.12.04-.09-.77-.13-.89.9,2.22,5.21-4.76,4.8-5.29Z"/>
      <path d="M23.3,46.82c2.12-.65,4.43-1.13,6.35.04.6.36,2.02-.18,2.28-.74.29-.62.35-2.01.28-2.91-4.06,2.51-4.24-.41-6.48.63-1.39.65-2.98.28-4.43-.62-.64,1.15.48,4.05,1.99,3.59Z"/>
      <path d="M7.91,7.6c.95,3.05,2.11,5.45,3.63,8.4,1.04-.49,1.58-.8,2.12-1.18-1.88-2.83-2.79-5.31-3.7-8.65-.46-.08-2.12.78-2.05,1.43Z"/>
      <path d="M45.76,7.34c-.67-.49-1.59-1-2.14-1.23-.89,3.43-1.85,5.79-3.52,8.72.51.39,1.24.78,1.91,1.01,1.86-3.04,2.99-5.32,3.75-8.5Z"/>
      <path d="M41.17,47.54c.57-.38.19-2.29-.34-2.5-.44.59-.96,1.3-1.45,1.5l-4.64,1.89c-.4,2.2,2.73,1.43.7,5.74,1.86.14,2.3-1.4,1.99-2.79-.52-2.26.47-1.67,3.75-3.84Z"/>
      <path d="M12.55,45.11c-.34.2-.78,1.99-.3,2.33.99.7,2.5,1.39,3.73,1.95l.16,3.75c.02.52,1.53,1.14,1.77,1.02-1.34-4.95.33-2.34,1.03-5.76l-4.62-1.65c-.53-.19-1.29-1.12-1.76-1.64Z"/>
      <path d="M8.82,19.9c-.9-.28-2.1,1.18-2.36,1.92-.06.16-1.19.31-.95.21l.43-.18c.11-.05.72-.62.64-.7l-3.87-3.89c-1.03.39-1.41.53-1.79.71-.33.15.05,1.63.4,1.86l5.38,3.57,2.12-3.5Z"/>
      <path d="M52.79,17.83l-2.19-.52-3.58,3.55,1.07.51c.18.09-.12.55-.23.71-.61.96-1.05-2.08-3.02-2.14l2.04,3.27c1.49-.79,6.71-3.32,5.9-5.38Z"/>
      <path d="M14.36,2.45c-.23-.3-.82-.69-1.19-.75-1.28-.19-2.35.28-2.43,1.35,1.11.02,1.89.04,2.68.19l-2.3.41c-.38.07-.42,1.18-.34,1.69.59,3.65,2.46,7.33,4.87,10.12.31.36,1.22.84,1.5.6.28-.24.76-.89.97-1.26-1.56-1.84-2.73-3.74-3.77-6l-1.38.26,1.08-.8-.93-4.61c.75-.26,1.6-.77,1.26-1.21Z"/>
      <path d="M41.58,50.96c.39-.56.15-2.31.02-3.05l-3.66,2.1-.09,3.34c1.28-.46,2.78-1.02,3.73-2.39Z"/>
      <path d="M12.06,51.14c.82.96,2.3,1.57,3.44,2.1l.21-3.22-3.67-2.17c-.22.88-.5,2.69.02,3.29Z"/>
      <path d="M45.06,35.79l.36-2.46.65,2.02c1.55-2.14.79-3.98-.63-5.58l-.72,1.96,1.91,1.12c-1.29-.04-2.31.19-2.54,1.2-.29-.81-.62-1.41-1.13-1.74l-2.39-1.58c-.39-.05-1.45,1.19-1.19,1.62.83,1.43,3.84,3.8,5.68,3.43Z"/>
      <path d="M8.21,2.28l-.41,3.53c.74-.3,1.29-.54,1.66-.8.42-.3.26-3.85,1.69-3.87.59,0,1.45.09,2.31.17-.61-1.06-1.98-1.45-3.08-1.18-.77.19-2.07,1.28-2.17,2.15Z"/>
      <path d="M35.35,38.7c-1.69,2.16-2.38,5.3-2.22,7.95.01.21.56.87.69.7.1-.13.35-.55.37-.77.44-4.79,2.77-8.09,1.16-7.87Z"/>
      <path d="M17.58,38.96c.26,1.92,1.58,2.93,1.74,7.57.01.31.51.82.8.82.84,0,.4-5.57-1.65-8.42-.14-.19-.92-.16-.89.03Z"/>
      <path d="M42.91.02c-.89-.16-2.21.54-2.85,1.22,1.28-.04,2.16-.1,2.78.24,1.03.56,1.08,4.27,2.44,2.58.47-.59.22-3.56-2.36-4.04Z"/>
      <path d="M14.27,32.31c.1-.39-.86-1.4-1.31-1.34-.73.1-3.52,1.91-3.44,3.08-.24-.46-.65-1.08-.86-1.16-.45.92-.54,2.27,0,2.77.5.46,5.15-2.04,5.61-3.34Z"/>
      <path d="M37.99,45.77c.68-.18,1.4-.56,1.43-.86l.42-3.88c.03-.24-.21-.67-.38-.82-1.02-.9-1.52,4.9-1.46,5.56Z"/>
      <path d="M15.32,45.57c0-1.93.53-4.14-1.53-5.63l.22,4.69c.02.42.9.91,1.31.94Z"/>
      <path d="M8.06,31.01c.14-.37.27-.83.25-1.1-1.91,1.26-2.23,3.89-.56,5.57l.39-2.79-1.3.37,2.05-1.27-.83-.78Z"/>
      <path d="M34.24,15.1c.02,1.19,1.1,2.24,1.88,2.41,1.06.23,2.49.05,2.44-1.35-.35.28-1.33,1.11-1.84,1.04-.73-.09-1.72-1.17-1.76-1.79-.04-.66.23-1.37.69-2.6-.76.34-1.43,1.5-1.41,2.28Z"/>
      <path d="M15.42,17.04c1.2.96,2.66.59,3.52-.62.62-.87.7-2.37-.34-3.12.14,1.11.28,2.3-.32,2.88-.72.7-1.87.85-2.86.86Z"/>
      <path d="M36.65,29.1c-.66.9-.5,2.71.89,3.2l-.74-1.86c-.15-.37.53-1.08.98-1.35.81-.49,1.67-.29,2.7-.05-.94-1.55-2.86-1.28-3.83.07Z"/>
      <path d="M16.62,28.82c-.75-.83-2.04-1.16-3.17-.44-.17.67-.24,1.11.25.29,1.11-.33,2.2-.07,2.7.75.48.77.27,1.85.05,2.89,1.5-.95,1.12-2.44.17-3.49Z"/>
      <path d="M37.86,30.12c-.12.44.25,1.23.66,1.74l1.69-1.81c-1.25-.7-2.15-.69-2.35.07Z"/>
      <path d="M16.72,41.02c-.87-2.84-.78,4.03,1.39,3.29l-1.15-2.54c-.07-.16-.2-.59-.25-.75Z"/>
      <rect x="36.25" y="40.27" width="2.1" height="1.07" transform="translate(-14.7 59.6) rotate(-67.44)"/>
      <path d="M13.37,30.35l1.46,1.43c.15-1.23.07-1.67-.31-1.89-.24-.14-.99.23-1.14.46Z"/>
      <path d="M8.54,11.9c-.4-1.72-.77-2.93-1.37-4.43,0,1.72.45,3.28,1.37,4.43Z"/>
      <path d="M35.82,44.09c.09.31,1.15-.21,1.24-.57.13-.54-.06-.97-.77-1.31l-.47,1.88Z"/>
      <path d="M45.05,11.59c1.27-1.04,1.41-2.28,1.33-3.72l-1.33,3.72Z"/>
      <path d="M45.16,4.46l-1.3.19c.12.51,1.26,1.32,1.63.96.21-.21-.03-1.19-.33-1.15Z"/>
      <path d="M34.13,23.76c-.11-.33-.87-.34-1.31-.53-.32-.4-.7-1.56-.8-2.1.8-.83.81-1.27.11-1.92-.75-.69-1.3-.4-2.13.36-3.12-1.21-1.59-2.49-3.21-2.32-1.74.17-1.48,3-4.15,1.84-.4-.17-1.34.32-1.5.69-.15.35.12.96.3,1.52.36,1.1-.81,2.54-2.18,2.08-.68,3.28,3.98,1.79,1.44,5.42l1.59,1.34c.64-.31,1.41-.59,1.93-.52,1.37.18.77,2.04,2.54,2.23,1.39.14,1.39-2.48,2.51-2.21l1.63.39c.55.13,1.73-.89,1.65-1.34-.31-.76-.6-1.66-.36-2.11.24-.45,1.12-.95,1.68-1.17.38-.15.39-1.19.24-1.64ZM26.77,28.98c-2.46,0-4.45-1.99-4.45-4.45s1.99-4.45,4.45-4.45,4.45,1.99,4.45,4.45-1.99,4.45-4.45,4.45Z"/>
      <path d="M38.88,22.92c.69,0,1.26-.56,1.26-1.26s-.56-1.26-1.26-1.26-1.26.56-1.26,1.26.56,1.26,1.26,1.26Z"/>
      <circle cx="26.77" cy="52.35" r="2.03"/>
      <path d="M27.69,22.5c.66,2.85,1.93,2.59,1.95,2.43l.13-1.06c.07-.54-.12-1.24-.42-1.48-.3-.24-1.74-.27-1.66.1Z"/>
      <path d="M26.15,28.16c.07.16.59.37.7.24.11-.14.3-.42.41-.64l1.2-2.28c-1.02.1-2.74,1.75-2.3,2.68Z"/>
      <path d="M25.02,21.97c-.7-.06-1.87,1.3-.98,1.87.35.23,1.33-.48,1.45-.85.09-.31-.17-.97-.47-1.02Z"/>
      <path d="M23.45,25.34c.26,1.06.57,1.55,1.49,2.26.11-.69.13-1.41-.08-1.68-.21-.27-.8-.45-1.41-.57Z"/>
    </g>
  </g>
</svg>