<?xml version="1.0" encoding="UTF-8"?>
<svg id="Warstwa_2" data-name="Warstwa 2" xmlns="http://www.w3.org/2000/svg" viewBox="0 0 51.25 60.58">
  <g id="icon-v9-equipment-pixarts-store">
    <g id="icon-v9-equipment-pixarts-store_357">
      <path d="M13.5,29.23l2.24,1.36c-1.79.3-2.91-.25-3.26,1.32l1.23-.37c1.31-.39.13,4.22,5.83,4.29l-2.05,1.09c3.39-.05,2.81-1.66,6.28-.13-.22-.9-.56-1.45-.33-1.58.23-.13.77-.23,1.39-.36l-.06-1.45c.25-1.47-.04-3.1-1.28-3.79.53,1.65,1.05,2.92.13,3.93-.79.87-2.32.98-3.35.02l-3.29-3.05c-.97-.9-2.42-1.49-3.48-1.26Z"/>
      <path d="M15.62,23.63c-.99,1.75-2.44,2.86-4.27,3.75,2.52.51,4.23-1.62,4.27-3.75Z"/>
      <path d="M31.7,56.8c-3.47.11-4.59-3.5-9.74-.45l-2.56.68c2.91,1.88,4.53-2.93,9.51.09.81.49,1.88.43,2.71.21.08-.13.11-.62.09-.54Z"/>
      <path d="M40.29,27.44c-2.3-.94-3.78-1.84-4.49-3.87-.2,2.5,2.24,4.15,4.49,3.87Z"/>
      <path d="M30.72,28.96l.28,3.58.68-.54c-.72-3.74.47-3.15,1.01-7.24l-3.46,4.94c.61-.2.97-.41,1.5-.73Z"/>
      <path d="M26.43,34.89h1.35s-.49,2.29-.49,2.29c.9-.72,2.04-1.16,3.14-.94l3.42.68-1.86-1.08c5.89-.64,3.7-4.02,5.4-4.21l1.37-.16c-.72-.66-1.56-.72-3.17-1.03l1.86-.97c-.67-.25-2.21,0-2.92.68l-3.45,3.26c-1.02.96-2.24,1.13-3.23.33-1.01-.82-.68-2.07-.36-3.77-1.57.1-1,4.91-1.09,4.91Z"/>
      <path d="M24.56,26.83c-.16-1.57-.82-2.68-1.85-3.56l-1.45-2.6c.04.94.31,2.12.74,2.83,1.09,1.23,1.78,2.19,2.56,3.33Z"/>
      <path d="M30.08,20.67c-1.15,3.19-3.16,2.99-3.25,6.27,1.35-3.39,3.63-3.24,3.25-6.27Z"/>
      <path d="M20.81,40.26c-.48-.11-.07-1.71.42-1.71h1.9c-.22-.41-1.11-1.12-1.69-1.12-.53,0-1.43.81-1.68,1.44-.18.47.02,1.83.38,2.22.33.37,1.05.4,1.82.53l2.16,2.14c.92.91,2.45.61,3.27-.27l1.75-1.87c1.13.15,2.16-.57,2.4-1.3.39-1.19-.2-2.21-1.11-2.75-.94-.56-2.14-.03-2.56,1.1.9-.12,1.87-.2,2.46.03.44.18.53,1.61.04,1.64-3.61.21-1.85,2.22-4.98,3.13-2.98-1.7-.76-2.37-4.57-3.2Z"/>
      <path d="M21.65,29.49l-2.99-4.77c.21,2.04,1.29,3.89,2.99,4.77Z"/>
      <path d="M8.86,25.76c1.38,1.92,2.66,4.31,3.04,6.7.04.79-1.1,2.28-1.45,3.03-.54,1.15.81,2.42,1.96,2.51,1.8.15,2.99,1.32,3.13,3,1.34-.96,2.3-1.66,3.5-1.93l-3.05,3.15c-.12.12-.27.92-.28,1.1,0,.12.12.05.24-.02.66-.58,1.32-1.13,1.82-1.25.48-.12,1.34.68,1.82,1.2,3.8,4.1,9.74,3.2,13-.96.31-.4,1.79-.08,2.04.36l.98,1.71-.13-2.11-3.17-3.26c1.17.26,2.24.95,3.42,1.77,1.12-3.81,4.35-2.01,5.15-4.12,1.13-2.99-4.85-1.76,1.6-10.9-1.66-.15-3.35-1.14-4.33-2.73-1.21-1.96-1.13-4.02-.78-6.39-.59.12-1.33.74-1.58,1.33l-1.18,2.81-.05-1.91-2.45,1.57c-2.2-1.62-2.51-4.3-.73-6.46-3.71-1.48-7.91-1.63-11.27.12,1.9,3.1,1.15,3.12-.24,6.24-1.38-.19-2.27-.8-3.34-1.68l.1,2.15c-1.39-1.62-.69-3.82-2.61-4.08.7,4.2-.78,8.49-5.13,9.04ZM35.81,23.57c.7,2.03,2.19,2.93,4.49,3.87-2.25.29-4.69-1.36-4.49-3.87ZM32.69,24.76c-.55,4.09-1.74,3.49-1.01,7.24l-.68.54-.28-3.58c-.52.32-.88.54-1.5.73l3.46-4.94ZM30.08,20.67c.38,3.03-1.9,2.88-3.25,6.27.09-3.28,2.1-3.08,3.25-6.27ZM27.52,29.98c-.32,1.7-.66,2.95.36,3.77.98.8,2.21.63,3.23-.33l3.45-3.26c.71-.67,2.25-.94,2.92-.68l-1.86.97c1.6.31,2.45.37,3.17,1.03l-1.37.16c-1.7.19.48,3.57-5.4,4.21l1.86,1.08-3.42-.68c-1.1-.22-2.25.22-3.14.94l.49-2.29h-1.35c.09,0-.47-4.81,1.09-4.91ZM30.36,40.34c.49-.03.4-1.46-.04-1.64-.59-.23-1.55-.15-2.46-.03.41-1.12,1.62-1.66,2.56-1.1.91.54,1.49,1.56,1.11,2.75-.24.73-1.27,1.45-2.4,1.3l-1.75,1.87c-.82.88-2.35,1.18-3.27.27l-2.16-2.14c-.78-.12-1.5-.16-1.82-.53-.35-.4-.56-1.75-.38-2.22.24-.63,1.15-1.44,1.68-1.44.58,0,1.47.71,1.69,1.13h-1.9c-.49-.01-.9,1.6-.42,1.7,3.81.84,1.59,1.5,4.57,3.2,3.13-.91,1.37-2.91,4.98-3.13ZM22.71,23.27c1.03.87,1.69,1.99,1.85,3.56-.78-1.14-1.47-2.1-2.56-3.33-.43-.71-.69-1.88-.74-2.83l1.45,2.6ZM21.65,29.49c-1.7-.88-2.78-2.73-2.99-4.77l2.99,4.77ZM16.98,30.5l3.29,3.05c1.03.96,2.57.85,3.35-.02.91-1.01.4-2.28-.13-3.93,1.24.69,1.53,2.32,1.28,3.79l.06,1.45c-.62.13-1.16.24-1.39.36-.23.13.11.68.33,1.58-3.46-1.53-2.89.08-6.28.13l2.05-1.09c-5.7-.07-4.52-4.69-5.83-4.29l-1.23.37c.36-1.57,1.47-1.02,3.26-1.32l-2.24-1.36c1.06-.23,2.51.36,3.48,1.26ZM15.62,23.63c-.04,2.13-1.76,4.26-4.27,3.75,1.84-.88,3.28-2,4.27-3.75Z"/>
      <path d="M46.7,0c-1.64.19-3.4,1.64-3.58,3.66-.14,1.62.42,3.33,1.03,4.64l.54-.82c.07-.1.21.05.2.18l-.05.76c-.01.21.03,1.03.23,1.03l.99-.02-1.51,2.5,1.46.3c-1.12.52-1.67.89-2.53,1.44l-4.67,3.01c-1.47,1.97-.56,4.87.82,6.53,3.09-6.38,9.25-4.98,10-12.56,1.08,6.54-5.31,7.42-8.21,12.06-.23.36-.15,1.54.22,1.72.3.15,1.16.12,1.45-.13l3.43-2.86c2.32-1.93,4.38-4.36,4.7-7.48C51.99,6.2,41.98,5.74,46.7,0Z"/>
      <path d="M4.28,20.96l4.05,3.36c.3.25,1.54.12,1.62-.25.88-3.92-10.12-6.51-8.14-13.46.55,7.72,6.64,6.31,9.77,12.42,1.35-1.69,2.38-4.41.92-6.28l-4.17-2.8c-.97-.65-1.76-1.11-2.98-1.73l1.43-.33-1.51-2.44c.55-.02,1.13.08,1.16-.21l.18-1.61c-.21-.13-.2-.13,0,0h0c.13.08.33.2.62.38.51-1.04.97-2.58.97-4.01,0-2.15-1.68-3.87-3.68-4,1.52,1.71,1.8,3.51.37,5.06l-3.02,3.27c-3.7,4.01-1.42,9.45,2.41,12.63Z"/>
      <path d="M6.62,7.63h0c-.2-.13-.21-.13,0,0Z"/>
      <path d="M7.86,38.17c.15,1.08.86,2.48,1.94,2.81.46.14,1.55-.09,1.54-.47,0-.31-.28-1.07-.52-1.33-3.48-3.62-.41-3.06-2.4-6.43l-.73,3.15-.56-4.36c-1.58-.91-2.85-1.82-3.55-3.16l3.91,2.05c1.14.6,1.76,2.12,2.48,3.59.74-1.25.75-3.33-.47-4.69-.93-1.03-5.37-1.62-7.83-4.02,1.38,7.59,5.24,5.73,6.2,12.86Z"/>
      <path d="M28.9,57.12c-4.97-3.02-6.6,1.79-9.51-.09l2.95,3.55h6.37c.88-.67,2.32-2.34,2.89-3.25-.83.22-1.9.28-2.71-.21Z"/>
      <path d="M19.4,57.03l2.56-.68c5.15-3.05,6.27.56,9.74.45.02-.09,0,.4-.09.54,2.89-.75.56-2.05,3.38-5.21l-2-.99-.35,2.16c-.08.5-.67,1.33-1.1,1.54-2.17,1.08-3.2-3.22-10.83-.02-1.62.68-2.73-2.35-2.3-3.73l-2.18,1.01c2.59,2.94.8,4.49,3.17,4.95Z"/>
      <path d="M42.57,51.73c-4.2-1.36-7.3-4.52-8.77-8.34-.43-.17-1.34.03-1.56.33-.21.31-.3,1.27-.12,1.61l1.72,3.15-2.25-1.87c.73,3.73,7.87,6.67,10.97,5.12Z"/>
      <path d="M19.57,46.47c-1.02,1.1-2.06,2.15-3.3,3.12,1.08-1.41,2.63-3.68,2.92-5.15.08-.42-.78-1.42-1.12-1.32-1.86.54-1.72,6.36-9.61,8.51,3.59,1.93,11.13-1.82,11.1-5.16Z"/>
      <path d="M49.51,25.46c-3.05,2.7-7.76,2.81-8.44,4.85-.4,1.22-.38,2.7.15,3.56.85-1.53,1.68-2.98,3.15-3.73l3.47-1.78c-1.23,2.75-3.47,2.03-3.8,4.12l-.59,3.66-.46-3.36c-1.83,2.72.36,3.69-2.43,6.12-.5.44-1.07,1.8-.5,2.03,1.81.75,3.19-.99,3.33-2.52.7-7.45,5.06-5.63,6.11-12.95Z"/>
      <path d="M17.31,18.15c.28.13.82-.33.99-.11l.94,1.16c3.72-3.75-1.82-4.18-1.84-10.44-1.99,2.75-2.39,6.52-.09,9.39Z"/>
      <path d="M32.01,19.41l2.4-3.83v1.61c2.01-2.41,1.29-5.87-.63-8.42.06,6.49-5.58,6.75-1.77,10.63Z"/>
      <path d="M14.93,43.14c-.37-1.41-.52-2.77-2.01-3.32.36,2.78.48,5.09-.06,7.93,1.99-.62,2.63-2.46,2.08-4.61Z"/>
      <path d="M36.27,43.15c-.45,1.92-.02,3.94,1.94,4.51-.42-2.96-.33-5.21.15-7.69-1.43.49-1.79,1.86-2.1,3.19Z"/>
      <path d="M30.34,54.02c1.92-.62,1.56-3.35,1.01-4.72l-1.76,3.93c-.12.26.51.87.75.79Z"/>
      <path d="M20.14,53.58c.18.35,1.49.35,1.59-.01.08-.3-.1-.85-.35-1.33l-1.55-3.06c-.42,1.43-.26,3.29.31,4.4Z"/>
      <path d="M30.33,45.89c-.05-.44-1.42-.09-1.49.26-.15.72.08,2.02.51,2.79.63-.7,1.08-2.22.99-3.05Z"/>
      <path d="M22.52,46.37c-.01-.44-1.4-.75-1.74-.64.06,1.36.37,2.32,1.22,3.29.29-.9.55-1.96.53-2.65Z"/>
      <path d="M23.42,46.67c-.31.31.42,1.12.8,1.35.32.19,1.31-.7,1.03-.97-.4-.38-1.58-.62-1.83-.38Z"/>
      <path d="M27.56,46.44l-1.43.61c-.23.1.47.95.71.99.29.04.9-.59,1.09-.86.13-.19-.15-.83-.36-.74Z"/>
    </g>
  </g>
</svg>