<?xml version="1.0" encoding="UTF-8"?>
<svg id="Warstwa_2" data-name="Warstwa 2" xmlns="http://www.w3.org/2000/svg" viewBox="0 0 48.27 53.93">
  <g id="icon-v9-equipment-pixarts-store">
    <g id="icon-v9-equipment-pixarts-store_177">
      <path d="M6.97,42.74l-1.57,4.21,3.7-2.01,3.23,2.22-.2,2.5,1.9-1.63c.67.12,2.1.55,2.34,1.09l1.59,4.82,1.81-5.06c4.74-.25,9.16-2.21,11.76-6.1-2.51,1.14-4.78,2.16-7.22,1.77l-.97-2.57-.97,2.66c-5.21-1.27-9.29-5.76-9.74-11.15-.52-6.22,3.74-11.52,9.78-13.01l1.06,2.96,1.07-3.2,4.31.34c-2.68-2.45-6.13-3.33-9.58-3.63.48-.68.84-2.01.56-2.7-.2-.5-.85-.84-1.58-1.13l.69-1.73-.96-3.53c-1.32-.85-2.38-1.82-2.7-3.25-.34-1.52.64-2.91,1.83-3.25,3.81-1.07,2.89,4.79,7.6,4.22-1.51-.84-2.7-1.74-3.44-3.16-.89-1.74-2.68-2.82-4.58-2.25-1.77.53-2.74,2.11-2.83,3.81-.08,1.63.99,3.14,2.43,4.04,1.32.84-.07,2.48.17,3.3l.98,3.32.56-.72c.1-.13.46-.09.51.06l.24.78c.14.47-.28,1.45-.73,1.51-.56.08-1.45-.55-1.42-1.03l.12-2.1c-.76.43-1.44,1.24-1.33,1.81.14.72.4,1.33.78,2.18-.16.18-1.41.85-1.9.67-.49-.18-1.04-.92-1.73-1.61l-.1,2.47-4.23,3-3.65-1.84,1.78,4.25c-1.44,2.39-2.34,5.03-2.79,7.74l-3.56,1.55,3.74,1.71c.62,2.82,1.71,5.25,3.23,7.65ZM14.72,43.33l4.04,3.15c-1.24-.02-2.9-.49-4.22-1l.18-2.15ZM18.25,19.25l-3.98,2.57-.68-1.18c1.52-.72,2.97-1.33,4.65-1.4ZM13.11,40.48l-1.44.53c-.36.13-.53.79-1.04,1.77.22.77.1.61-.2-.06-.21-1.17-.9-1.86-2.22-2.27,1.35-.48,2.05-1.37,2.41-2.8.31,1.57.64,2.55,2.5,2.83ZM9.61,24.61c.42-.18.6-1.32.87-1.9.3,1.41.56,2.52,1.99,3.16-1.21.27-1.75.73-2.35,2.07l-.5-1.64c-.13-.43-1.05-.63-1.75-.96l1.73-.73ZM5.7,31.8c.43-1.34,1.56-2.49,3.5-1.99-1.45.46-2.43,1.55-2.07,3.12.34,1.46,1.71,2.15,3.45,2.08-1.02,1.08-2.56,1.15-3.71.27-1.02-.78-1.56-2.25-1.16-3.48Z"/>
      <polygon points="25.04 30.43 23.52 26.08 21.98 30.44 17.39 30.66 20.94 33.43 19.74 37.68 23.53 35.23 27.27 37.71 26.02 33.37 29.76 30.63 25.04 30.43"/>
      <path d="M35.28,29.41l-1.45,4.13,3.11-1.44,2.45,18.49,2.61-18.42,3.1,1.55-1.52-4.35,4.68-2.33-4.65-2.2,1.44-4.13-3.45,1.53-1.55-4.75c.9-.77,1.61-1.62,1.6-2.51-.01-.81-.75-1.59-1.61-1.91l.33,1.84c.06.35-.25,1.1-.56,1.25-.31.14-1.28-.13-1.35-.49-.11-.59.02-1.83.18-2.24l.64,1.13c1.78-5.18,1.48-1.11.35-6.61-1.22-1.01-2.62-1.86-2.79-3.47-.17-1.58.67-2.8,1.97-3.14,3.66-.95,3.03,4.91,7.52,4.23-3.95-1.68-3.31-5.19-6.57-5.54-1.22-.13-2.65.49-3.36,1.49-1.74,2.44-.77,5.19,1.75,6.65.56.66.22,2.32-.29,3.16l.95,1.62c-.94.56-1.67,1.22-1.65,2.05.02.89.68,1.69,1.47,2.49l-1.46,4.82-3.31-1.63,1.37,4.17-4.68,2.16,4.74,2.42ZM36.09,23.4l1.93.75,1.4-3.87,1.39,3.89,1.75-.82-.52,2.14,2.85,1.55-2.85,1.43.52,2.29-1.78-.52-1.37,9.55-1.51-9.63-1.67.6.48-2.26-2.98-1.51,3-1.36-.65-2.24Z"/>
      <path d="M39.42,31.41c.04-1.57,1.47-3.79,2.81-4.34l-1.78-1.72c-.41-.39-.75-1.21-1.01-1.92-.54,1.61-1.69,2.84-3.15,3.66,2.23.64,2.46,2.71,3.13,4.31Z"/>
    </g>
  </g>
</svg>