<?xml version="1.0" encoding="UTF-8"?>
<svg id="Warstwa_2" data-name="Warstwa 2" xmlns="http://www.w3.org/2000/svg" viewBox="0 0 39.14 56.6">
  <g id="icon-v9-equipment-pixarts-store">
    <g id="icon-v9-equipment-pixarts-store_231">
      <path d="M13.24,37c1.16-.69,1.89-1.15,3.17-1.72l-3.33,3.15c-.56,2.57-.96,5.27-1.22,7.99,1.73-1.56,3.22-2.87,5.21-3.45-1.75,2.03-5.95,5.05-4.36,7.71l1.49-1.25c-.19,1.1-.8,2.21-.61,2.95.41,1.61,1.66,3.27,3.1,4.22,2.01-.7,4.22-1.76,5.26-3.26,1.25-1.81-.1-3.98.27-6.03l1.68,3.94c2.97-4.74.73-5.8-.91-10.63,1.41,1.22,2.44,2.54,3.65,4.16.67-3.04,1.06-5.97.93-8.87l-2.31-3.02,2.2,1.4c.69-3.37-1.95-3.64-3.72-6.31,1.23.5,2.11,1.04,3.46,1.82-.87-4.31-2.18-7.95-6.5-9.71,1.18,9.63,1.39,19.21-1.79,28.46,1.42-9.55,2.41-19.15.07-28.88-1.77,2.31-3.32,3.79-5.36,5.25l3.96-.67c-3.65,4.06-3.88,1.8-4.07,8.24,1.36-.79,2.24-1.37,3.75-1.98-1.62,2.49-4.39,3.31-4,6.49Z"/>
      <path d="M30.47,16.24c-.65-.2-2.12.59-2.34,1.17-.62,1.57-.69,3.54-.45,5l.94-1.34c-.29,3.01.37,5.61,2.3,7.64l1-2.16.36,3.6,3.08,3.03c1.69-4.76,1.96-12.15-3.58-14.54l2,.12c-.79-1.03-2.15-2.17-3.31-2.52Z"/>
      <path d="M3.71,32.97l4.01-4.45c.25-.96-.05-2.92-.04-4.01l1.35,2.73c1.42-2.54,2.44-5.28,2.15-8.37-.11-1.25-.87-2.87-2.47-2.66-1.66.22-3.29,1.79-4.27,3.37l2.32-.12c-5.38,2.04-4.61,9.35-3.06,13.51Z"/>
      <path d="M37.21.29c-2.03,3.83-5.07,7.17-8.85,9.24-.03.45.49,1.61.83,1.43,4.69-2.56,7.75-6.14,9.96-10.81-.37-.21-1.65-.24-1.94.14Z"/>
      <path d="M9.4,8.76C6.1,6.71,3.6,3.6,1.9.27,1.4.03.5,0,0,.15c2.02,4.78,5.53,8.45,9.97,10.87.34-.59.76-1.33.52-1.52-.2-.16-.65-.46-1.1-.74Z"/>
      <path d="M25.3,12.46c.23-.3-.12-1.59-.47-1.57l-3.23.76c-.39.09-.3,1.2-.02,1.74l3.72-.92Z"/>
      <path d="M17.37,11.68l-3.44-.74c-.25.37-.54,1.32-.37,1.61l3.95.82c.07-.81.09-1.64-.14-1.69Z"/>
      <polygon points="20.21 10.75 18.64 10.84 18.67 14.56 20.36 14.59 20.21 10.75"/>
      <path d="M27.06,9.41c-.11-.22-.96-.06-1.07.16-.08.17-.16.7-.09.88l.76,1.88c.08.19.5.56.65.7.15.14.96-.49.88-.76-.2-.67-.81-2.25-1.13-2.87Z"/>
      <rect x="10.06" y="10.38" width="3.82" height="1.49" transform="translate(-2.77 18.17) rotate(-68.42)"/>
      <path d="M17.9,17.42c.02,1.31,1.44,1.51,2.4,1.6l1.01.09c.19.02.21-.63.19-.99-1.18-.64-2.64-1.03-3.6-.7Z"/>
      <path d="M17.57,16.16c1.26.58,2.62.93,3.84.82-.51-2.14-2.83-2.29-3.84-.82Z"/>
      <path d="M27.25,14.75c0,.65.53,1.18,1.18,1.18s1.18-.53,1.18-1.18-.53-1.18-1.18-1.18-1.18.53-1.18,1.18Z"/>
      <path d="M9.29,14.7c0,.66.54,1.2,1.2,1.2s1.2-.54,1.2-1.2-.54-1.2-1.2-1.2-1.2.54-1.2,1.2Z"/>
    </g>
  </g>
</svg>