<?xml version="1.0" encoding="UTF-8"?>
<svg id="Warstwa_2" data-name="Warstwa 2" xmlns="http://www.w3.org/2000/svg" viewBox="0 0 28.01 54.02">
  <g id="icon-v9-equipment-pixarts-store">
    <g id="icon-v9-equipment-pixarts-store_393">
      <path d="M9.03,22.26l-4.2,15.23,8.28-2.23-4.77,18.77,15.32-27.45-8.8,2.34,1.3-3.72-1.55-.44c-.73-1.45-.08-2.8,1.24-3.49,1.38-.72,1.65-1.89,2.19-3.2.57-1.38,1.49-2.49,2.22-4.01l-9.48,2.39-1.75,5.83Z"/>
      <path d="M3.69.24C2.76-.18,1.53-.05.78.6-.74,1.94.12,7.16,2.06,7.06,1.91,5.66-.17.79,2.77,1.14c.48.06,1.04.78,1.13,1.52l.52,4.03c1.49-.34,1.11-5.61-.74-6.44Z"/>
      <path d="M27.96,1.9c-.23-1.55-1.88-2.07-3.2-1.74-2.34.58-2.52,6.2-1.14,6.51l.58-4.17c.1-.74.8-1.34,1.54-1.32.63.02,1.37.94,1.19,1.78l-.83,3.84c1.54.75,2.09-3.33,1.86-4.9Z"/>
      <path d="M4.12,10.77c.17.09.53-.66.49-.86l-.98-4.53c-.04-.2-.69-.56-.88-.63-.19-.07-.5.65-.45.88l1.01,4.51c.04.19.63.54.8.63Z"/>
      <path d="M24.34,10.83c.59-1.51,1.19-4.04,1.36-5.4.03-.23-.81-.7-.92-.52-.08.12-.34.48-.38.65l-.97,4.09c-.1.43.4,1.27.91,1.17Z"/>
      <path d="M20.29,19.08c-1.51.39-4.3,2.56-5.33,4.28.06,1.33,7.69-4.89,5.33-4.28Z"/>
      <path d="M5.45,12.87c-.09-.2-.75-.51-.85-.31-.07.15-.27.72-.22.88,1.75,6.07,3.22,4.45,2.54,2.88l-1.47-3.45Z"/>
      <path d="M21.93,17.68c3.17-5.82.82-5.74.47-4.69l-1.24,3.69c-.05.15-.07.74-.08.89s.78.24.85.11Z"/>
      <path d="M3.99,14.13l-1.67-5.22C-.01,11.5,4.89,16.95,3.99,14.13Z"/>
      <path d="M8.16,21.57l-3.4-5.01c-.7,2.41,1.02,5.05,3.4,5.01Z"/>
      <path d="M22.9,19.7c.61-1.03,1.14-2.34.12-3.06-.71,2.12-1.68,3.5-3.23,4.65,1.46.72,2.39-.38,3.11-1.6Z"/>
      <path d="M4.8,8.34l1.75,5.59c1.03-2.21.31-4.65-1.75-5.59Z"/>
      <path d="M25.71,9.12l-1.73,5.41c1.48.76,3.33-4.71,1.73-5.41Z"/>
      <path d="M21.53,13.91l1.6-5.42c-1.97,1.16-2.74,3.59-1.6,5.42Z"/>
      <path d="M18.61,19.43l2.63-3.49-.59-.5c-1.09,1.26-2.41,1.87-2.03,3.98Z"/>
      <path d="M7.07,15.98l1.95,2.96c.79-1.65-.4-3.13-1.95-2.96Z"/>
    </g>
  </g>
</svg>