<?xml version="1.0" encoding="UTF-8"?>
<svg id="Warstwa_2" data-name="Warstwa 2" xmlns="http://www.w3.org/2000/svg" viewBox="0 0 56.49 57.81">
  <g id="icon-v9-equipment-pixarts-store">
    <g id="icon-v9-equipment-pixarts-store_240">
      <path d="M3.16,8.33c.47,2.74,11.52,4.39,14.4,4.89.31.05.96-.27,1.03-.54.07-.27-.36-.73-.65-.77-2.36-.29-12.98-1.66-13.55-3.99.58-1.1,1.75-1.26,2.61-1.33-6.56,1.83,12.08,5.2,13.6,3.98.21-.17.22-.95.1-1.24l-2.25-5.53-9.07,1.08c-1.55.18-6.59,1.26-6.22,3.45Z"/>
      <path d="M36.76,10.98c4.42-.39,8.91-1.1,13.05-2.6.22-.08.78-.52.72-.72l-.28-.86c.3-.07,1.28.47,1.45.91.86,2.26-11.91,4.02-13.44,4.2.19-.02-4.81,3.02,10.41-.82,1.36-.34,3.14-1.11,3.96-1.99,1.09-1.17-.33-2.77-1.52-3.16-4.36-1.42-8.66-1.76-13.44-2.09-.36,1.44-3.84,7.38-.91,7.12Z"/>
      <path d="M36.26,11.86c-.36-.12-1.03-.14-1.77-.16l.72.74c-4.26-.98-9.1-.99-13.16-.25-.39-.02-1.41-.71-1.65-.42-.27.32-.64.86-.97,1.38.42,8.19,1.78,12.96,8.74,17.75,7.08-5.05,8.04-9.24,8.68-17.46.03-.4-.21-1.47-.58-1.58ZM24.6,22.72l-1.33-6.98c.62.11.87.25,1.11.53l1.92,2.24c.32-.32.58-1.42.48-1.84l-.8.87c.07-1.26.98-2.1,1.91-2.61l.16-1.11c.9,1.44,1.75,2.87,3.14,3.17.52-.79,1.08-1.79,1.92-1.18l-1.55,6.98c-2.37.31-4.52.26-6.95-.07ZM30.95,26.15c1.92-2.75,3.17-5.41,3.4-8.72l.23-3.36c-4.44-1.73-8.58-1.85-12.64.12-.52,5.15,1.17,9.84,4.92,13.37-4-1.34-5.72-9.49-5.79-13.55,5.86-2.71,7.68-2.29,13.82-.44.27,3.53-.49,10.47-3.95,12.57Z"/>
      <path d="M24.56,20.27c.16.28.92.94,1.28.94h5.5s1.02-4.93,1.02-4.93c-.48.52-1.87,4.03-2.74,2.73-1.24-1.84-.26-3.48-1.75-4.09-1.31,2.55-.17.59-1.04,3.97-.32,1.25-2.67-1.48-2.46-2.63-.63,1.01.09,2.63.19,4.01Z"/>
      <path d="M19.57,3.55l2.61,6.53c4.04-1.15,7.97-.99,11.96-.09l2.44-6.53-2,1.59c.44.98-.33,2.36-1.35,2.19-.51-.09-1.13-1.18-1.07-1.69.05-.45.54-1.46.8-1.55l1.18.24c.17.03.38-.6.42-.75-1.47-.09-2.86-.25-4.2.49l1.93-.16c-.29,1.29-.85,2.42-1.83,2.94-.52-.32-1.2-1.12-1.16-1.59.25-2.68,1.8-1.13-1.22-5.16l-1.96,3.2c.46.76.86,1.37.91,1.85.06.48-.81,1.81-1.27,1.64-.65-.24-1.31-1.44-1.62-2.01-.16.76-.35,1.81-.59,2.37-.17.41-1.62.05-1.74-.38l-.43-1.58c-.14-.52-1.3-1.23-1.82-1.55ZM27.67,2.39c.05-.15.65-.11.78-.09.2.02-.03.36-.44.83l.87.32-.79.52c-.2.13-.87-.3-.79-.52l.37-1.05ZM28.12,6.76c.46,0,.83.37.83.83s-.37.83-.83.83-.83-.37-.83-.83.37-.83.83-.83Z"/>
      <path d="M34.97,37.49c.39-.04.85-1.54.63-1.93-.28-.49-.78-.52-1.46-.53.83-1.05,1.45-2.25,1.48-3.15-.67.61-1.02.93-1.43,1.25-.27.65-.68,1.3-1,1.8l1.77,2.56Z"/>
      <path d="M34.39,26.49c-.13,1.07-.06,7.26-1.28,6.7l.14.71.96-.76,1.04-2.46c.63-1.48.38-3.39-.85-4.18Z"/>
      <path d="M32.2,37.42c.37-.27,1.24-.85,1.04-1.17-.34-.54-.83-1.34-.87-1.79-.03-.38.45-1.02.73-1.28.29-1.56.89-3.43-1.16-4.12l.5,3.14-.8-.85-1.22.85,1.33-2.02-3.74,2.38-2.66-1.98c-.16-.12-.9-.22-.85-.04.04.12.05.49.17.52.11.04.56.19.66.23.09.04-.03.4-.12.38l-.78-.17.33,1.03c.06.18.41.17.82.26,1.02.82.84,2.53-.62,3.31l-.33-2.57c-2.01-3.02.41-2.82-.6-4.31-.8-1.17-1.49,2.55-1.2,4-.69-1.22-1.2-2.63-.84-4.33l.43,1.83.77-1.92c.2-.51-1.18-1.31-1.52-1.04l.2-1.04c.12-.65-2.72.5.65,7.46l-1.71-2c0,1.62.76,2.3,1.52,3.19-.68-.13-1.36-.46-1.44-.12-.1.46-.61,1.48-.28,1.59l1.42.46c-.48.9-1.66.82-1.29,2.2l2.24-2.12c1.16.51,1.85,1.51,2.2,2.75l.27.97c.05.18-.3.38-.51.36-.19-1.16-.92-3.39-2.17-3.02-2.29.73-2.97,4.29-1.83,6.16l2.07,2.47-1.74-.62c-.89-.32-1.86-.83-2.3-1.79-.27-.58.05-1.64.25-2.39-1.19.26-1.33,2.97-.53,3.65,2.92,2.48,6.12,4.32,9.47,6.39,3.35-2.05,6.43-3.91,9.36-6.32,1.04-.85.65-3.26-.41-3.67-.06.9.16,2.86-.5,3.34-2.87,2.06-5.4,3.68-8.42,5.56l-4.66-2.83-.58-1.29c1.23.3,2.16.63,3.24,1.11.2.2.44-1.31.07-1.39l-1.6-.34c.74-.6,1.56-1.07,2.5-1.38-.1,1.37-.23,3.24,1.01,3.52,1.17,0,.94-1.85,1.49-2.89l.39,2.14c1.07-1.33,2.62-1.45,3.99-2.26.86-.51,1.44-.78,2.61-.99l.09-2.62-.94-.23c-.2-.05-.12-.99-.24-1.15l-1.65-2.16h-1.63c-.23-.01-.25-.92-.07-1.05ZM25.71,32.15c1.95.23,2.38,2.46,1.4,3.94-.02-1.98-.06-2.87-1.4-3.94ZM25.49,39.24c1.15.77,1.41,3.07-.29,3.88.58-1.2.65-2.24.29-3.88ZM34.7,41.29c.81,1.71,0,4.33-2.35,4.73-3.97-.4-3.96-2.49-5.85-1.43-1.04.58-2.75,1.42-3.85.95-1.47-.64-1.63-2.3-1.51-3.69.09-1.03.92-2.57,2.08-3.11-.83,1.69-2.41,2.98-1.52,5.06.45,1.06,2.69,1.3,3.65.62,2.72-1.91,1.94-6.59.17-7.73l1.6.99-.29-.84c-.05-.14.13-.4.21-.53.84-1.33-.09,3.52.82,4.63l-.91,3.09,1.07-1.92.52.64c-.51-6.02,3.41-4.65,2.97-7.42l.89.86-2.51,2.6c-1.07,1.1-1.24,2.73-.58,4.05.53,1.05,1.9,2.11,3.64,1.91,1.12-.13,1.61-2.23,1.73-3.43ZM31.84,39.66c-.55-.03-.71,1.97-.07,2.12.12.03.79-.12.91-.14.12-.03.13.36.04.44l-.45.41c-.18.17-.35.32-.36.33-.01,0,.25.26.52.53l-1.28-.05c-.54-.02-.47-3.72.67-4.57l1.39,1.53-1.38-.59Z"/>
      <polygon points="33.37 46.78 30.04 47.91 30.2 48.77 33.37 46.78"/>
      <path d="M30.04,47.91v-.02s-.02.02-.03.03h.03Z"/>
      <path d="M33.9,38.47l1.36,1.04c.5.03.24-1.27-.28-2.02-.33.03-.9.43-1.07.98Z"/>
      <path d="M37.71,29.27c0-.55-.43-1.23-.98-1.42l.02,12.71c1.45,1.27,2.99,2.46,4.83,3.36,1.47-1.3,2.94-2.74,4.16-4.09.06-2.55-.07-5.03-.62-7.67-2.3,3.08,2.4,6.05-3.65,10.44-.44-.38-.7-.51-.54-.61l.83-.54c1.44-.94,2.5-2.12,2.5-4.03,0-1.91.02-3.81-.57-5.35l-.85,1.8.25-1.87c.03-.22-.48-.48-.69-.62l-.29,1.87-.28-1.94-3.47-2.36c-.5,3.58.44,6.27-.04,10.57l2.55,2.51-3.06-1.86-.11-10.9ZM39.47,36.79l.67-.97c-.89-.81-1.51-1.85-1.33-2.94.61,1.26,1.22,2.11,2.41,3.4l-1.75.51Z"/>
      <path d="M16.15,48.09l-.44.55-.17-.78c-.03-.14-.49-.16-.63-.16l-.17,2.44-.62-2.52-.92,3.52.08-3.49c-1.56,2.91-2.13,5.87-1.82,9.24.36-1.25.54-2.38.77-3.68l.41,4.44.68-3.04.3,3.07c.46.12,1.66.11,1.8-.15l.25-3.96.48,4.01c.97-.59.75-1.58.87-2.86l.73,1.9c.44-.75-.89-9.45-1.62-8.53Z"/>
      <path d="M1.7,26.65c2.16,1.01,8.61-1.42,11.31-2.9l-7.8-2.43c-.88-.27-1.65-.81-2.7-1.35-.43.98-.56,2.3-.65,3.33-.08.88-1.8,2.58-.16,3.35Z"/>
      <path d="M55.18,26.15c.37-1.06-.44-.9-.77-3.19-.16-1.1-.42-2.12-.78-2.97-3.39,1.77-6.38,2.79-10.23,3.69,2.01,1.53,10.98,4.78,11.79,2.47Z"/>
      <path d="M38.55,56.88l.81-3.65c.07,1.62.01,2.82.44,4.35l.64-2.26.32,2.32c.17.17,1.7.33,1.81-.06.22-.74.28-2.11.29-2.87l.71,2.9c.32-1.6.25-2.94.27-4.75.32,1.33.52,2.58,1.08,4.1.43-3.23-.65-6.12-1.78-9.11l-.29,2.64-.43-2.57-.66.55c-.1.09-.29-.27-.72-.74l-.73,1.97-.23-1.82c-1.43,2.76-1.8,5.64-1.53,9Z"/>
      <path d="M53.39,40.24l-.36,1.03c-.03.09-.13-.38-.22-.43l-.32-.17c-.29-.16-.61-.46-.7-.29l-.47.87-.47-1.08c-1.34,2.86-1.7,5.68-1.44,8.52l.46-1.03.92,1.9.52-1.98.33,1.83c.06.36,1.05.18,1.69.2l.36-3.39.52,3.24.57-2.57.46,2.23c.42-3.29-.55-6.31-1.85-8.87Z"/>
      <path d="M1.01,48.79l.7-2.59.13,3.17.69-.83c.15.4.52,1.18.88,1.14l1.2-.13.11-1.94c.38,1.06.44,1.39.97,2.16l.47-2.88.64,1.93c.28-3.14-.02-6.21-1.52-8.74l-.15,1.84c-.29-1.17-.34-1.4-.66-.14.11.38,0-.03-.15-.52l-.14-.75c-.03-.13-.5.16-.55.28l-.19.42-.67-.91c-1.27,2.8-1.96,5.5-1.75,8.5Z"/>
      <path d="M19.5,27.77c-.67.32-1.02.96-1.02,1.5v9.26c0,.92-.64,2.07-1.3,2.34.45-1.1.86-2.2.89-3.42l.16-8.68-4.66,2.81-.27,3.05-.51-2.9c-1.1,2.43-1.14,5.64-.16,7.79-.07-.26,2,3.11,2.34,2.53l.48-.83c.67-.8,1.28-1.54,1.47-2.52.12-.66-.33-2.07-.94-2.24-1.04.35-1.9.78-2.21.33-.39-.58-.53-2.1.15-1.83l.05,1.07c.01.26.87.52,1.03.31l.55-.71.53-.68c.07-.09.13.38.11.49l-.15.57c.85.47,1.57,1.34,1.34,2.46-.35,1.69-1.26,3.05-2.64,4.15l-3.17-3.02c0-2.7.23-4.78-.19-7.43-.99,2.68-.7,5.02-.8,7.65l3.95,4.11c1.8-.97,3.46-2.03,4.94-3.29l.04-12.88ZM15.67,33.72l.47-1.63-.27-.83c-.05-.15.54-.35.58-.2l.24.97.93-1.36c-.19,1.45-.81,2.06-1.95,3.05Z"/>
      <path d="M12.63,39.52s.04.1.11.24c-.04-.08-.07-.16-.11-.24Z"/>
      <path d="M19.18,20.92c-.13-.51-.43-1.32-.49-1.69l-.44-2.88.32-.64c.59-1.19-3.51-1.94-4.86-1.74-.06-.29.04-.82-.2-.83l-1.17-.04c-.2,0-.78.26-.71.44.07.18.22.57.39.47l.74-.45c.28-.02.26.74.01.77l-1.72.64.26-1.99-2.68-.57c-.07.43-.17,1.16.03,1.09l.71-.24c.24-.08,1.18-.27,1.2-.02l.06.91c.04.62-1.7.47-1.69.67l.07.72c.02.24.21.79.07.89l-.73.53c-.09,0-.71-1.09-.57-1.46.14-.37.45-.79.83-1.4l-2.03-.44c-.85-.68-1.94-1.02-2.81-.51-.9.53-1.25,1.78-.5,2.64.18-.72,1.06-2.35,1.96-2.02,1.49.55,1.73,2.39,2.26,3.57.85,1.89,3.18,1.63,4.76,1.41.64,1.24,2.92,2.05,2.84,2.22l.26-.63,2.53-.39-.98.87,2.27.09ZM8.91,17.38l1.31-.31c1.5-2,3.95-3.44,6.43-2.29-5.46-.28-5.35,5-7.75,2.6ZM17.25,18.74l-.94-2.43-.7,2.39-.56-1.58c-.23-.15-.81-.52-1.03-.4l-1,.55c.38-1.08,1.36-1.47,2.38-1.5.77-.02,2.01.87,2.23,1.62.11.36-.31,1.42-.38,1.35Z"/>
      <path d="M6.9,29.56c-.58-2.26-.63-.28-5.87-.42-.63-.02-.98,1.54-.79,2.15.78,2.49,8.43-.21,10.37-1.28.08-.89.09-1.38.54-.3l3.3-1.63c.24-.12.68-.46.64-.69l-.17-.93,1.11.55c.62-.18.9-2.19.32-2.47-.91.17-1.9.63-2.27,1.07-.35.42-.14,1.71.03,2.27l-3.36-.29c-1.65-.14-3.04.28-3.85,1.99Z"/>
      <path d="M51.42,12.82c-.8.11-1.74.81-2.39,1.38h.1c-.2.76-.68,2.19-1.08,2.87-1.46,2.51-3.78-.5-5.98-1.96-1.19-.79-2.53.45-3.34.99-1.59,1.05-.62,2.4-1.04,3.19-.3.58-1.05,1.89-.83,2.5.06.15.95.03,1.12.03.11,0-.13-.3-.19-.39l-.28-.49,2.31.58-.84-.82c1.08-.33,1.87-.6,2.18-1.11.36-.58.44-1.74.21-2.21l-1.52-.47c-.19-.06-.58,1.12-.36.73.48-.05,1.46-.12,1.38.17l-.28.99c-.1.36-.98.85-1.3.68-.26-.13-.67-.8-.68-1.09-.06-1.21.86-2.21,1.81-2.49,2.34-.68,3.33,2.5,4.88,2.9,2.18.57,3.99-1.17,4.24-3.28.11-.95.86-1.91,1.7-1.83.79.08,1.27.61,1.91,1.47l-.23-1.55c-.06-.4-1.1-.87-1.53-.81Z"/>
      <path d="M47.91,12.07l-3.31.78c-.17.33-.44,1.13-.6.96l-.59-.61c-2.05,1.35-4.41-.04-5.08,1.97,2.11-.78,4.29-1.6,6.18.07.21-.46,1.25-1.49,1.77-1.78.26-.15.79.36.8.65.04,1.47-2.62.53-2.07,1.82.15.35.6.85,1.01,1.19.27.22.69-.63.91-1.09.14-.37.33-1.11.61-1.13l1.14-.07-.53-.39c-.09-.07-.2-.29-.09-.28l.96.03.09-1.33c.02-.29-.91-.86-1.2-.8Z"/>
      <path d="M49.01,14.21s.01,0,.01-.01h-.01s0,.01,0,.01Z"/>
      <path d="M49.76,28.3c-.22-.01-.78.04-1.01.12l-1.65.53c-.4.13-.11,1.37.31,1.68.3.23,1.02.22,1.4-.04-.25,1.42,5.07,1.85,5.82,1.51l1.09-1.54c.25-.35.26-1.38.32-1.8-1.91.37-3.77.31-5.55-.13l.06.71c.01.14-.61.3-.43.19-.11-.6-.13-1.22-.36-1.23Z"/>
      <path d="M20.38,23.65c-.41-1.07-1.44-1.13-2.4-1.26-5.5-.77-10.64-2.11-15.31-4.74-.75,3.12,16,6.47,17.71,6Z"/>
      <path d="M56.17,32.41c-4.23,1.22-10.82-1.67-14.52-3.91-1.97-1.19-3.65-2.68-6.11-3.57,1.23,2.96,18.15,11.89,20.63,7.47Z"/>
      <path d="M53.46,17.55c-4.02,3.04-11.56,4.28-16.59,5.03-.28.04-.78.45-.92.55-2.41,1.85,18.67-1.98,17.51-5.58Z"/>
      <path d="M20.88,24.74c-7.11,3.85-11.88,8.53-20.45,7.88,2.94,3.73,18.5-4.38,20.45-7.88Z"/>
      <path d="M56.41,27.05l-.54-1.33c-.57,1.42-1.02,1.93-2.29,1.89-4.35-.12-8.1-1.76-11.89-3.73-.07.67-.05,1.02-.2,1.21-.1.13-.34.45-.43.58h0c-.06.07-.04.06,0,0l-.47-1.14c-.07-.18-.73.1-.63.16l-.08,2.01.83-.06c.16-.01.21.72.28.86l1.65,1.12c.23.16.9.47,1.11.33l.81-.56-.09,1.02c-.02.22.93.2,1.19.16.23-.04.17-.01.24-.79l2.01-.76-3.77-1.67c.02.68.17,1.07-.03,1.15l-.96.36c-.44.5-.5.46-.19-.24.23-.22.9-.71.75-.92l-.69-.98,5.48,2.03c3.11,1.15,8.7,1.26,7.9-.69Z"/>
      <path d="M41.06,25.68h0c-.04.06-.06.07,0,0Z"/>
      <path d="M.27,25.85c-2.43,6.18,12.53.5,14.74-1.41-.42-.25-1.1-.25-1.49-.04-2.53,1.36-12.07,5.68-13.25,1.45Z"/>
      <path d="M34.43,11.13c-4.16-1.64-8.6-1.72-12.64.11,4.24-.28,8.19-.23,12.64-.11Z"/>
      <path d="M4.26,17.89l1.84.44c.57.14.96.3,2.05.71l-1.38-1.53-1.46.62c-.04-.43.77-1.04,1.29-1.26-.42-.41-.78-1.23-.94-2.02-.32-.16-1.01-.4-.35.1-.32,1.36-1.1,1.59-2.29,1.57.18.38.64.91.96.79l1.4-.54c-.09.47-.51.75-1.13,1.13Z"/>
      <path d="M54.48,34.74c-2,.36-3.44.01-5.43-.53.49,1.3,2.21,2.4,3.43,2.3.72-.06,1.77-1.28,2-1.77Z"/>
      <path d="M7.11,34.22l-3.21.97-2.1-.7c.29.99,1.46,2.2,2.45,2.03,1.27-.21,2.37-.98,2.86-2.31Z"/>
      <path d="M51,37.69c-.37.3-.11,1.59.32,1.84.41.24,1.27.2,1.69-.02.52-.27.78-1.53.16-1.95-.49-.33-1.74-.22-2.17.12Z"/>
      <path d="M15.72,46.84c.37-.23.38-1.9-.05-1.97-.68-.11-1.73-.23-2.23-.27-.12.99-.05,2.02.48,2.31.44.25,1.37.2,1.8-.07Z"/>
      <path d="M2.72,38.46c0,.73.59,1.31,1.31,1.31s1.31-.59,1.31-1.31-.59-1.31-1.31-1.31-1.31.59-1.31,1.31Z"/>
      <path d="M40.67,46.94c.48.19,1.43.18,1.81-.16.38-.34.29-1.64.08-2.32l-2.29.5c-.38.3-.1,1.79.4,1.98Z"/>
      <path d="M41.68,21.02c1.4-.34,1.89-1.93,1.52-2.9l-.58,1.27c-.08.17-.51-.54-.58-.57.03.64.13,1.2.04,1.39l-.4.81Z"/>
      <path d="M51.97,17.01c.34-.03.78-.31,1.23-.72l-2.37-.28c.22.61.69,1.03,1.14.99Z"/>
      <polygon points="23.08 4.94 24.25 3.4 21.48 3.34 23.08 4.94"/>
      <path d="M31.37,22.06l-6.7-.3c.3.74,6.02,1.17,6.7.3Z"/>
    </g>
  </g>
</svg>