<?xml version="1.0" encoding="UTF-8"?>
<svg id="Warstwa_2" data-name="Warstwa 2" xmlns="http://www.w3.org/2000/svg" viewBox="0 0 51.27 56.99">
  <g id="icon-v9-equipment-pixarts-store">
    <g id="icon-v9-equipment-pixarts-store_142">
      <path d="M47.85,22.84c-.11.02-.06.68,0,.78l1.53,2.48c.86,2.65-.93,4.94-1.4,7.28-.51,2.5-.54,4.87-2.12,7.03-2.12,2.9-4.51,5.44-7.8,7.19l2.07-1.96-3.22.14c-1.27.05-3.8-1.59-4.59-3.17-6.34,3.88-12.05,6.15-19.86,5.24.55.42,1.83,1.13,2.62,1.15l5.69.12-2.95,1.13c2.98,5.09,6.16,2.53,10.94,2.29-4.3,1.62-8.91,3.12-13.58,1.59-1.72-.56-3.15-1.88-3.71-3.13-2.26-5,3.72-10.52,7.56-13.51l-3.11.19-.75-1.15c-4.64,3.55-7.55,7.18-7.87,13.17-1.11-5.5,3.81-10.8,7.31-14.84-1.15.07-1.92.26-3.13.56-.09-1.33.35-3.06.96-4.54l-5.75-1.28,4.36-5.71-2.73-.6,3.39-3.42-2.65-1.09c.7-.33,1.62-.67,2.02-.45l2.23,1.26-2.67,2.77,2.89.22-4.18,5.9,6.37.63c-1.05,1.24-1.79,2.32-2.5,3.99l5.28-.88-1.69,3.5,5.77-.64-.56,2.89c2.29-1.61,4.12-1.83,6.72-2.06l-2.63-2.38c3.04-.24,7.41,6.56,8.83,8.77.97.79,3.43,1.38,4.7,1.15,1.77-.32,3.02-1.4,2.75-3.03-1.78,1.46-4.93,1.76-6.46-.37-1.69-2.36-3.1-4.73-4.67-7.22l-1.65-1.54,2.38-2.68c.49-.55,1.98-1.01,2.72-.87,2.62.5,3.8,6.14,9.71,3.18l-1.03-2.39-.94,1.2c-.72-.67-1.4-1.62-1.58-2.6,1.59-1.24,3.43-1.66,5.56-1.92-1.27-1.23-2.6-3.17-4.1-4.01-2.51-1.4-3.82-3.6-2.62-6.42.25,1.81.29,2.92,1.11,4.33l2.48-3.95.17,3.48-.85,1.39,3.01,2.46.87-1.88c-.14-.26-.57-.81-.39-.95l.95-.73-3.02-2.33c-.07-.7.21-2.37-.3-2.93l-4.29-4.74,1.6.43c-.2-3.44-1.21-6.91-3.43-9.35-1.15,2.05-2.43,3.65-3.93,5.27l.73.79-6.35-1.78.59,1.41-6.81-.86.39,1.06-1.9.44c1.67.87,3.47,1.4,4.08,3.39l-6.61-3.42c-2.25-1.16-4.2-2.2-6.45-3.54l-.09,5.21c-.03,1.91,1.05,3.64,1.54,5.36.31,1.08.54,1.61,1.73,2.77-2.18,1.58-3.55-2.55-4.23-4.08l-4.19,1.86,2.38,1.5-6.22,3.31,3.52,1.65-4.08,4.64,2.63.08C1.88,29.17-.21,33.52.02,38.55c.33,7.11,4.64,13.96,11.1,17.12,3.65,1.78,7.94,1.47,11.86.71,10.29-2,21.59-8.9,26.7-18.4,3.08-5.73,1.2-9.85-1.36-15.21l-.47.07ZM35.29,24.06c1.69-.31,3.52-.3,4.95.87l-4.95-.87ZM39.52,22.82c-1.8-.28-3.2-.18-5.12.32,1.22-1.63,3.56-1.59,5.12-.32ZM22.06,19.06l4.96-.16-.7-1.33,5.36,1.06c1.56.66,2.58,2.58,4.36,1.98.34-.12.61-1.26.45-1.63l-1.35-3.26c.96.73,2.16,2.06,2.39,3.45.2,1.25-1.19,2.13-2.19,2.38-3.82.95-3.79,2.53-6.73,1.49l2.9-1c-1.57-.21-2.5-1.06-3.58-2.25-.93-.55-3.16-.6-4.06,0l-1.93,1.28-2.73,1.77c1.67.54,2.88,1.28,4.09,2.52l-.67,1.16,2.85,1.21c.03.27.07.74-.07.7-.14-.04-.61-.16-.74-.21l-3.86-1.41.84-1-1.01-.36c-.19-.07.06-.86-.12-.95l-3.21-1.56c1.9-.72,3.21-1.45,4.6-2.6l.64-.53c.15-.13-.25-.4-.51-.73ZM13.48,9.86c-.6-1.05-.68-2.93-.75-4.25,3.19,3.04,5.39,4.08,8.41,7.43l-3.23.76.68,1.41c-1.64.18-2.89-.09-4.03-1.04l1.26-.21-2.35-4.09Z"/>
      <path d="M46.21,31.8l-3.28.71c-4.34.93-4.82-1.43-8.25-3.45-.4.31,2.96,3.34,2.98,3.34l1.29-.1.1,3.52c.79-.64,1.34-1.49,1.85-2.51l.58.78c1.25-.48,2.31-.69,3.47-.85l-.32,1.6c1.03-.94,1.31-1.56,1.58-3.02Z"/>
      <path d="M35.12,34.07c-.27-.91-1.7-1.59-2.11-1.09-.23.28.34,1.11.54,1.35l1.55,1.93c.31.39.81,1.59,1.1,1.85,1.13-.55.86-1.92.5-2.73-.25-.54-.9-.85-1.58-1.31Z"/>
      <path d="M42.68,38.73c.17-.5.03-1.58-.12-1.94-.59.96-1.04,1.76-1.56,2.13-.56.4-1.83.38-2.43.22l-.42-1.39c-.62.5-1.13,1.16-1.44,2.1,2.08.77,5.37.62,5.97-1.11Z"/>
      <path d="M47.53,28.5l.07-.73c.01-.14-.43-.15-.5-.03l-.24.46-1.44,2.7c1.67.2,1.98-1.24,2.1-2.4Z"/>
      <path d="M30.7,20.86c.47.17,1.08.13,1.68-.01-1.08-.96-1.42-1.21-2.38-1.52-.07.58.3,1.39.69,1.53Z"/>
    </g>
  </g>
</svg>