<?xml version="1.0" encoding="UTF-8"?>
<svg id="Warstwa_2" data-name="Warstwa 2" xmlns="http://www.w3.org/2000/svg" viewBox="0 0 58.37 59.84">
  <g id="icon-v9-equipment-pixarts-store">
    <g id="icon-v9-equipment-pixarts-store_48">
      <path d="M31.18,53.47c-.08.56.46,1.62,1.03,2.01,1.4.97,3.68,0,4.34-1.05.15-.24.11-1.13-.04-1.32-.15-.19-.69-.2-.82-.04-.3.59-.95,1.43-1.35,1.4-.41-.03-1.41-.36-1.52-.76-.1-.4.12-.94.3-1.64-.78-.12-1.82.55-1.94,1.39Z"/>
      <path d="M50.29,39.94l-.82.07c-.43.41-.98,1.12-1.16,1.77-.1.34,1.45.26,1.62-.09.14-.29.02-.62-.02-1.01.33-.47.51-.74.38-.73Z"/>
      <path d="M2.14,42.88c.21-1.88,1.93-3.42,3.66-2.75-1.19.71-2.32,1.51-2.06,2.67,2.07-.89,4.03-1.49,5.95-.42,1.08.6,1.89,1.83,1.83,2.87-.07,1.2-.67,2.45-1.96,2.56.21-1.28.54-2.41.29-3.08-.2-.55-1.48-1.12-2.1-1.11-1.96.05-3.37,1.17-4,2.59-.68,1.53-.55,3.29.2,4.81,1.59,3.21,4.94,4.82,8.41,4.8,3.33-.02,6.43-1.99,8.15-5.05,4.27-7.59-2.15-12.01,1.66-18.36,1.41-2.35,4.4-2.97,6.97-2.32-.83-2.43-3.55-2.79-5.81-1.86-4.14,1.69-6.79,6.33-6.27,10.85.46,4.01,1.64,8.96-2.16,11.53-1.86,1.26-3.99,1.36-6,.68-2.21-.74-3.61-2.89-2.69-5.19.21-.52,1.38-1.18,1.96-1.06.45.09.99.72,1.25,1.24l-1.16-.26c-.29-.06-.6.97-.58,1.31.06,1.6,1.66,2.65,3.34,2.44.97-.12,2.56-.51,2.98-1.21.53-.89.67-1.92.99-3.34-.34-.76-.06-.43.5.4,1.31-3.73-.93-8.07.93-13.98,1.23-3.93,4.88-6.48,8.68-6.96,2.63-.33,4.7.82,6.38,2.55-.4-3.46-3.58-4.3-6.4-5.42,3.88-.39,8.16,1.35,9.51,5.54.74,2.28.53,4.6-1.21,6.54,3.08-1.2,4.14-4.48,3.66-8.17,1.88,2.62,1.5,6.15-.41,8.72-1.77,2.37-4.84,3.09-8.23,2.55,1.77,1.63,4.08,1.69,6.42.98,1.7-.52,3.09-2.3,4.46-4.07-.62,4.72-5.63,7.15-10.04,6.41-2.63-.45-4.24-2.12-4.99-4.41-.66,3.28.99,5.23,3.91,6.29-2.51.36-4.34-1.01-5.59-3.06l.83,5.03c.63,3.81-1.19,9.12-5.03,11.69,8.3,2.96-.03-11.72,14.59-12.82,2.65-.2,5.26-2.68,7.03-4.55,10.05-10.65,15.01-6.81,18.37-17.98-.4-.6-1.32-1.22-1.82-1.1-.43.1-1.33.6-1.59.98-2.09,3.02-4.89,5.47-8.59,6.12.05-.95.75-1.79,1.55-2.34,3.4-2.33,6.17-5.04,7.95-8.79.68-1.42,1.37-3.54.12-4.75-1.08-1.04-3.06.02-3.69,1.19-1.82,3.34-4.34,5.69-7.58,7.64-.79.48-1.32,1.28-2.45.43,5.19-6.88,5.88-6.15,10.38-13.56.65-1.07.11-2.68-.78-3.24-3.74-2.36-9,7.65-14.41,11.8-.3.23-1.47-.07-1.36-.35l.37-1.02c3.05-8.4,9.26-9.59,7.21-12.65-1.6-2.38-5.37.87-7.25,2.08-1.3.84-2.44,1.68-3.23,3.1-1.51,2.69-8.11,13.52-11.43,12.52,1.01-.63,1.79-1.18,1.75-2.18-.05-1.08-.52-1.64-1.32-2.58l1.36.51c1.77-1.63,3.11-4.24,2.42-6.79-.34-1.23-2.06-2.45-3.01-1.33-1.05,1.23-1.98,2.83-3.24,3.75-1.48,1.09-2.78,2.15-3.05,4.02-1.23,8.32-3.43,6.54-2.28,12.58.36,1.9-.1,3.38-.9,4.97-4.28,8.54-11.29,4.62-13.1,9.79-.68,1.93-.5,4.06.77,5.55.64-1.38.82-2.6.97-3.96ZM46.86,12.44l-1.54-2.52c1.07.36,2.6.8,1.54,2.52ZM45.72,30.96c-1.49,1.14-2.57,1.65-3.78,2.08.68-1.77,2.37-2.72,3.78-2.08ZM41.94,25.03c.34-.53,1.09-.96,1.71-.97l-1.78,2.96c-.37-.53-.29-1.44.07-1.99ZM38.24,20.3c.35-.88.65-1.55,1.22-2.35l-.16,3.48c-.54.89-1.37,1.72-2.41,2.21l1.35-3.33ZM28.93,17.56c.09-.49.71-1.05,1.35-1.48,2.39-1.61.76-3.07,3.2-4.44l-1.28,4.56c-.37,1.3-.99,2.7-2.52,3.44-.46-.29-.84-1.52-.74-2.09ZM22.91,23.35l-5.84,3.41c.3-2.52,3.31-3.2,5.84-3.41ZM16.38,22.25l1-1.35.24,1.93c.03.21-.63.47-.85.45-.29-.03-.56-.8-.39-1.03ZM13.52,36.33l.73-3.54c.37,1.54.74,7.13-2.1,7.3.77-1.22,1.26-2.33,1.37-3.76Z"/>
      <path d="M50.34,35.81c-3.73-.63-6.83,1.59-7.72,5.26-.4,1.67-1.44,3.58-3.14,4.21-3.54,1.31-6.51-3.72-12.1,1.05-3.88,3.32-1.55,8.61-4.52,10.74-3.4,2.44-5.97-.68-7.02.75,2.25,2.07,5.14,2.44,7.93,1.61,6.03-1.78,2.52-8.14,6.08-10.54,3.91-2.64,7.18,3.3,13.06-1.3,4.28-3.35.24-8.73,4.8-10,2.65-.74,7.55-.45,6.98-4.86-.74,1.94-2.16,3.44-4.35,3.07Z"/>
      <path d="M8.34,30.68c1.37.92,2.81,0,3.21-1.42.52-1.88-.75-3.8-2.81-4.06-1.97-.24-4.15.47-5.45,2.15-2.56,3.31-1.61,5.93-.02,9.38,2.21-.11,4.27-.63,5.82-1.7-1.99-.88-3.33-1.81-3.68-3.38-.36-1.61.14-3.37,1.69-4.27.95-.55,2.24-.12,2.65.65.62,1.19-.08,1.95-1.41,2.65Z"/>
      <path d="M13.29,12.13c-1.63,2.84-7.51,2.88-6.17,7.35.46,1.55,2.12,1.9,3.65,1.47,1.08-.3,2.01-2.13,1.51-3.15-.12-.25-1.15-.91-1.2-.65l-.26,1.38c-.09.47-.91,1.26-1.38,1.24s-1.23-.86-1.25-1.39c-.09-3.14,4.76-2.67,5.08-6.25Z"/>
    </g>
  </g>
</svg>