<?xml version="1.0" encoding="UTF-8"?>
<svg id="Warstwa_2" data-name="Warstwa 2" xmlns="http://www.w3.org/2000/svg" viewBox="0 0 37.92 60.22">
  <g id="icon-v9-equipment-pixarts-store">
    <g id="icon-v9-equipment-pixarts-store_134">
      <path d="M0,29.29l8.78,8.87,2.11-1.02c-1.21,1.59-1.37,2.07-1.06,3.65l3.02,15.22c2.01,1.55,4.11,3.02,6.33,4.21l5.89-4.05,3.4-17.1-2.32-2.56,3.04,1.72,4.41-4.26c1.53-1.48,2.96-3.21,4.32-4.74-2.2-4-5.01-7.06-4.72-11.74,1.16,2.55,1.5,5.28,3.54,7.34.51-6.37-.46-12.16-3.55-17.58l-1.89,6.32c-.51,1.69-.62,3.5-.66,5.29l-7.93,6.04c-1.11.85-1.57,2.57-.71,3.82l8.68-4.07c1.19-.56,2.96,1.25,2.93,2.41l-3.71,4.73c.32,1.19.57,2.36.59,3.19-2.23-4.48-3.46-2.11-8.14-3.75l-1.55-2.86c-.87-1.6,1.02-3.61,2.22-4.52l6.58-5.02c-1.14-1.89-1.87-3.1-2.71-4.89l2.79,2.79,2.61-9.85c-3.09-3.27-8.93-5.45-13.25-6.87-4.82,1.76-9.68,3.37-13.34,6.84l2.54,9.87,2.58-2.42-2.32,4.66,7.01,5.14c1.09.8,2.38,3.01,1.71,4.23l-1.6,2.92-5.99,1.11c-.85.16-1.38,1.99-2.14,2.63.1-1.04.35-2.22.59-3.29l-3.71-4.63c-.05-.9,1.74-2.94,2.64-2.52l9.06,4.22c.75-1.21.44-3.03-.69-3.87l-7.87-5.89c-.07-3.61-1.45-8.23-2.74-11.7C1.77,13.03.56,18.78,1.26,25.1c1.78-2.28,2.49-4.79,3.55-7.64.25,2.6-.74,5.13-2.12,7.41l-2.69,4.42ZM14.04,20.9c.97.11,2.33.43,2.73-.02l1.93-2.18-1.65.71.12-3.34c.08-2.08.3-4.03-1.05-5.76l2.9-3.32,2.51,2.92c1.15,1.34-3.66,2.62-4.1,4.39l3.27-2.09.22,8.39c.65.46,1.93.38,3.11.2-.23,3.32-2.86.46-5.04,3.05-2.2-2.39-5.12.02-4.97-2.95ZM18.6,32.73l.06,12.6.72-.44.02-11.79,3.28,3.43-1.23,11.63c-.35,3.3-1.16,6.36-2.39,9.33-1.32-3.16-2.22-6.22-2.55-9.61l-1.11-11.48c1.31-1.34,2.18-2.37,3.19-3.67Z"/>
      <path d="M2.46,34.16l.84,10.97,7.95,9.3c-.53-3.9-1.18-7.05-1.93-10.54-.56-2.57-1.85-4.67-3.98-6.27.34,3.7,1.46,6.72,3.24,10.18-4.61-4.31-2.84-9.86-6.12-13.64Z"/>
      <path d="M32.74,37.12l-3.15,3.71c-1.2,4.5-2.19,8.66-2.81,13.6,3.07-3.01,5.44-6.07,8.02-9.28-.28-3.75.11-7.08.89-11.03-1.36,1.04-1.75,2.67-2.11,4.32-.55,3.72-1.94,6.99-4.42,9.73l2.07-4.32c.95-1.98,1.2-4.29,1.51-6.73Z"/>
      <path d="M19.18,11.92c.22.12.91-.49.77-.68l-.98-1.32c-.26.38-.55.84-.67,1.13-.12.29.61.72.88.87Z"/>
    </g>
  </g>
</svg>