<?xml version="1.0" encoding="UTF-8"?>
<svg id="Warstwa_2" data-name="Warstwa 2" xmlns="http://www.w3.org/2000/svg" viewBox="0 0 50.97 59.78">
  <g id="icon-v9-equipment-pixarts-store">
    <g id="icon-v9-equipment-pixarts-store_289">
      <path d="M40.4,19.9l-6.19-1.9c1.73,1.35,4,2.48,6.19,1.9Z"/>
      <path d="M16.64,18.01l-5.66,1.71c-.26,1.19,5.68-1.02,5.66-1.71Z"/>
      <path d="M1.84,48.79c3.22-3.9,4.06-7.31,6.11-10.38-1.11,4.59-3.6,8.01-6.01,11.63-.75,1.12-.84,2.71.6,3.41.95.46,1.99.79,3.25,1.17,2.79-4.98,5.11-9.73,7.39-14.86-.32,4.33-6.31,13.55-6.5,16.26-.24,3.28,6.05,1.85,8.69,3.66l3.32-10.69c3.24-10.42,4.47-21.12,5.25-31.8l-.6,1.53c-.16-1.3-.24-2.07-.46-3.18l-2.67,12.8c-.61,2.94-1.54,5.79-2.53,8.42,1.32-6.69,2.97-12.56,3.7-19.26-6.03,4.29-3.24,4.54-6.37,9.74l1.49-5.82c-1.5.37-3.06.98-3.5,2.82l-.27-1.39-2.39.5c-2.33,8.56-3.4,13.98-9.38,20.87-.61.71-1.13,1.83-.9,2.51.3.92.98,1.88,1.79,2.06Z"/>
      <path d="M37.86,23.62c-.59-1.07-1.77-1.89-3.31-2.17l1.94,7.64c-1.42-2.89-1.97-5.6-3.13-8.42-1.04-1.04-2.49-2.13-3.74-3.04.74,6.03,2.07,11.48,3.19,17.42-2.58-6.33-3.01-13.02-4.77-19.56-.48,1.77.31,3.29-.14,4.71-.24-.93-.34-1.73-.75-2.32,1.09,15,3.67,28.02,8.59,41.9,2.8-1.66,7.09-.52,8.52-3.08.52-.92-.38-2.49-.83-3.42-2.06-4.25-4.45-8.07-5.42-12.78.78,1.26,1.2,2.78,1.88,4.1l5.27,10.1c1.31-.38,2.58-.83,3.68-1.48,1.12-.66.95-2.09.24-3.17-2.59-3.96-5.2-7.6-6.23-12.14,1.87,3.89,3.75,7.52,6.43,11.09.84-.68,2.27-2.61,1.42-3.74-2.87-3.81-5.86-7.34-7.23-11.97l-2.84-9.57c-.24-.8-2.59-1.23-2.77-.1Z"/>
      <path d="M23.08,54.26c1.8,1.11,3.66.79,4.66-1.28l4.58-.29c-3.37-11.14-5.18-22.59-6.05-34.37-.04-.5-.63-1.21-.95-1.05-.24.12-.54.66-.57,1.04-.85,11.69-2.63,23.01-5.96,34.15,1.75.36,3.01,1.01,4.28,1.79Z"/>
      <path d="M9.94,22.07c2.53,1.34,11.13-4.55,12.48-7.29l-2.15-.35c-1.1.76-9.05,3.84-8.63,1.7-.23,1.2,7.74-1.46,8.36-2.36-.1-.64-.35-1.41-.67-1.5l-1.73-.47,2.4-.15c-.02-1,.62-1.38,1.38-1.34.43.02,1.2.33,1.79.56-1.03-2.01-1.76-3.89-2.29-6.19l-3.37-1.41,1.71,4.57,1.63,1.86c-.89-.67-1.49-1.19-2.42-2.02l-4.89,2.2c-1.15.52-1.59,2.45-1.66,3.71-.05,1.06-.91,2.13-1.11,2.91l-1.05,4.21c-.1.41-.1,1.2.21,1.36ZM10.98,19.72l5.66-1.71c.02.69-5.93,2.9-5.66,1.71Z"/>
      <path d="M23.69,10.27c1.4-.87,1.98-1.23,3.54-.04l2.13-6.22c1.28-.53,2.9-1.17,4.35-2.07-5.31-2.49-11.07-2.69-16.31,0,1.29.89,2.83,1.5,4.08,2.04.71,2.12,1.45,4.35,2.21,6.29Z"/>
      <path d="M29.83,10.37c.49.15,1.12.19,1.15.41l.15,1.12,2.45-.14c-1.17.43-2.46.62-2.73,1.77,2.55,2.11,5.72,2.64,8.79,2.91-4.58,1.8-10.03-4.2-11-1.34,1.69,2.83,11.04,8.72,12.53,6.91.23-.28.16-1.24-.02-1.61-1.47-2.96-.21-4.05-.96-4.27l-.77-.22-.49-3.36c-.17-1.19-1-2.49-2.11-2.95l-4.41-1.84-2.57,2.61ZM40.4,19.9c-2.18.58-4.46-.55-6.19-1.9l6.19,1.9Z"/>
      <path d="M33.52,3.23l-3.4,1.43-2.28,6.37c3.72-2.24,3.96-3.38,5.68-7.8Z"/>
      <path d="M26.26,10.74c-.68-.03-2.04.38-2.39.85-1.09,1.44-.43,4.52,1.56,4.74,1.57.18,2.4-2.5,1.87-3.65-.27.84-.39,2.32-1.02,2.76-.39.27-1.67.2-1.74-.15l-.19-.96,1.19.83c.72.51,1.76-2.05.72-4.43Z"/>
      <path d="M21.61,11.26c-.29-.06-.89.59-.97.89-.09.33.19,1.16.38,1.46.18.29,1.19.17,1.37-.15.37-.65.66-1.72.32-1.86-.28-.11-.81-.28-1.09-.34Z"/>
      <path d="M29.32,13.62c.66,0,1.19-.53,1.19-1.19s-.53-1.19-1.19-1.19-1.19.53-1.19,1.19.53,1.19,1.19,1.19Z"/>
    </g>
  </g>
</svg>