<?xml version="1.0" encoding="UTF-8"?>
<svg id="Warstwa_2" data-name="Warstwa 2" xmlns="http://www.w3.org/2000/svg" viewBox="0 0 56.27 59.08">
  <g id="icon-v9-equipment-pixarts-store">
    <g id="icon-v9-equipment-pixarts-store_342">
      <path d="M22.86,23.81l2.13,4.86c.3-1.98-.61-3.59-2.13-4.86Z"/>
      <path d="M34.74,21.32c-1.43.11-4.27,6.41-3.56,7.73,1.69-5.09,3.51-4.03,3.56-7.73Z"/>
      <path d="M32.39,34.32c-1.22-1.66-1.5-3.38-3.6-3.29,4.78,3.77,1.22,5.29,2.88,8.8l.3-3.34c.04-.47.81-1.3,1.46-1.56l.81,2.97c.16-.51.54-1.48.92-1.59,1.64.09,4.12-.62,4.56-2.41-1.85.93-3.44,2.63-5.51,1.36,1.96-.57,3.6-1.02,4.5-2.16,2.63-3.33-.08-4.79,2.26-6.88.04-.22-.84-.8-1.16-.63-4.49,2.41-3.93,4.49-7.43,8.74Z"/>
      <path d="M26.98,31.29c-1.77.08-2.01,1.38-3.12,3.01l-4.02-5.98c-.6-.89-2.3-1.99-3.19-2.67-.35-.26-1.55.53-1.22.75,2.71,1.46-.62,3.92,2.55,7.03.84.83,2.48,1.3,4.17,1.86-1.41,1.68-4.3-.94-5.39-1,.97,1.92,3.07,2.26,4.92,1.82l.33,1.5,1.13-2.94c1.89,1.8.97,3,1.52,4.83,1.2-4.02-1.26-4.53,2.33-8.2Z"/>
      <path d="M28.15,44.46l-2.08-3.53c-2.07,3.76-1.96,4.44.83,8.38l1.1-2.53,1.7,2.52c2.49-4.13,2.48-4.72.63-8.36l-2.18,3.52Z"/>
      <path d="M41.18,22.17l2.05-2.14c-.36-3.32-1.96-5.92-5.19-7.16l-2.61,1.44-.84,1.76-.13-2.59-6.13-2.26c-1.89.55-4.16,1.39-6.13,2.25-.84.48.2,2.53,1.13,2.6.36.03,1.09.34,1.07.61l-.08,1.24c.73.93,1.55,2.41,1.83,3.55-.97-1.01-1.6-1.82-2.94-1.86-.05-.25.04-.77-.23-.87l-1.24-.46c-.25-.09.1-.64.35-.7l1.29-.33c-1.38-.62-2.13-1.33-2.24-2.97l-2.75-1.48c-3.82,1.2-5.76,6.48-4.88,7.59.36.45,1,1.06,1.72,1.72.95-1.02,1.53-1.89,2.27-3.1.53,3.87-3.16,4.47-3.8,5.88-.62,1.34,2.35,2.83.75,6.51l-1.6.02c.27,2.18.94,4.19,2.14,5.95,3.21-.65,5.88,1.41,5.7,4.23l-2.29-2.69-.05,4.69,1.45,2.88,1.45-3.3c.11,2.26-.47,3.74-.99,6.02l1.52-.52c.35-.12,1.23.65,1.38,1l1.04,2.32c.79-.46,1.16-.76,1.32-.58.12.14.4.92.57.97,3.97,1.12,4.73-1.16,5.09-.96l1,.57,1.26-2.8c.13-.28.98-.81,1.27-.7l1.38.53c-.43-2.22-1.06-3.97-.76-6l1.21,3.45,1.48-2.94-.02-4.62-2.36,2.75c.13-3.15,2.73-4.93,5.92-4.41.99-1.79,1.58-3.54,2.05-5.71l-1.68-.16c-1.74-3.97,2.69-6-.32-7.61-1.79-.96-3.26-2.7-2.66-4.83.6,1.31,1.26,2.38,2.26,3.22ZM34.74,21.32c-.05,3.7-1.87,2.64-3.56,7.73-.71-1.32,2.12-7.62,3.56-7.73ZM24.99,28.67l-2.13-4.86c1.52,1.27,2.43,2.88,2.13,4.86ZM23.13,34.66l-1.13,2.94-.33-1.5c-1.86.44-3.95.1-4.92-1.82,1.09.06,3.98,2.68,5.39,1-1.69-.56-3.32-1.03-4.17-1.86-3.17-3.11.16-5.57-2.55-7.03-.33-.22.87-1.02,1.22-.75.89.68,2.6,1.78,3.19,2.67l4.02,5.98c1.11-1.63,1.35-2.93,3.12-3.01-3.59,3.67-1.13,4.18-2.33,8.2-.56-1.83.37-3.02-1.52-4.83ZM29.7,49.3l-1.7-2.52-1.1,2.53c-2.79-3.94-2.9-4.62-.83-8.38l2.08,3.53,2.18-3.52c1.85,3.64,1.86,4.23-.63,8.36ZM39.82,25.59c.32-.17,1.2.41,1.16.63-2.34,2.09.37,3.55-2.26,6.88-.9,1.14-2.55,1.6-4.5,2.16,2.07,1.27,3.66-.43,5.51-1.36-.44,1.79-2.92,2.5-4.56,2.41-.37.12-.75,1.09-.92,1.59l-.81-2.97c-.66.26-1.42,1.09-1.46,1.56l-.3,3.34c-1.67-3.51,1.89-5.03-2.88-8.8,2.1-.09,2.38,1.63,3.6,3.29,3.49-4.25,2.94-6.32,7.43-8.74Z"/>
      <path d="M52.87,24.36c-.08-1.12-1.34-2.45-2.02-2.06l-1.53,2.03.26-2.76c-2.29-1.56-5.48-1.7-7.16.99,1.18,1.34,1.54,2.65,1.77,4.3.73-1,1.46-1.81,2.04-1.81-.05,1.26-.08,1.93.76,2.21l2.05-2.54c-.59,1.77.16,2.14,1.08,3.13,1.33,1.43,2.97,3.61,3.3,5.57.21,1.24-.37,3.08-.63,4.47l-.05-4.64c0-.65-3.41-4.51-3.82-4.49.48,2,1.7,2.99,2.34,4.46,1.47,3.4.16,6.53-.34,10.09,5.47-5.28,7.2-11.36,3.08-17.46-.26-.39-1.08-.93-1.12-1.49Z"/>
      <path d="M5.66,43.28c-1.75-5.91-2.19-8.92,1.92-13.65.36-.27.97-.76.78-.99-.19-.24-.7-.87-.57-.7-.4.84-.51,1.22-.72,1.28l-.76.23c-.62,1.16-1.47,2.16-2.6,3.03l-.18,5.07c-1.69-5.33.67-7.58,4.36-11.43l-2.65-4.1c-1.23.74-1.77,1.84-2.14,3.2l-.18.67c-.03.09-.17.02-.25-.07l-.4-.44c-.68,1.72-1.94,3.69-2.18,5.53-.61,4.68,1.72,9.48,5.56,12.37Z"/>
      <path d="M49.16,11.39c.84-5.23-2.26-9.7-6.98-11.19,2.81,3.38,2.83,7.57-.15,10.4l1.18.81c-1.38.08-2.54.35-3.48.85,1.75,1.54,2.84,2.8,4.01,4.51.44-.74.87-1.42,1.76-1.96l-1.64,3.78c4.51-.97.02-4.6,3.38-6.1-.36,1.14-.52,1.85,0,2.67,2.66-2.96.32-2.76.45-5.36l1.47,1.59Z"/>
      <path d="M16.59,12.19c-1.06-.49-2.13-.65-3.58-.75l1.32-.9c-2.3-1.92-3.08-5.03-1.66-7.71l1.5-2.83c-4.41,1.66-8.77,6.77-6.92,11.34l1.58-1.89-.94,3.28c-.2.7.7,2.07,1.2,2.52.66-1.09.33-2.03-.08-3.2.44.35.82,1.26,1.46.89l.4,1.9c-.32.44-.87,1.28-.75,1.72.27.94,1.86,2.5,2.02,1.94.05-.17.19-.76.11-.92l-1.31-2.71,1.83,1.62c1.2-1.82,2.19-2.87,3.82-4.31Z"/>
      <path d="M10.74,28.46c.43-.76.43-1.72.03-2.13l-.49,1.04c-.08.17-.74-.15-.65-.34l1.03-2.21,1.59,1.73c.16-1.62.4-2.62,1.6-3.93-.26-.64-1.46-1.9-2.41-2.11-1.86-.42-3.75.24-5.04,1.58.43,1.21,3.04,6.6,4.35,6.37Z"/>
      <path d="M21.77,49.52c-2.23,2.18-.11,7.62,1.43,9.56-.57-3.57.95-7.86-1.43-9.56Z"/>
      <path d="M33.25,52.71l-.11,6.21c2.02-3.01,3.36-6.3,1.81-9.5-1.15.63-1.67,2.01-1.7,3.28Z"/>
      <path d="M30.98,52.22c-.67.61-.67,2.22-.29,3.25,1.06-.67,1.78-2.5.29-3.25Z"/>
      <path d="M24.87,52.58c-.81.34-.01,2.52.66,2.71.81-1.23.49-3.16-.66-2.71Z"/>
      <path d="M27.51,53.04c-1.34.64-1.33,1.97.02,2.64.04-.99.04-1.78-.02-2.64Z"/>
      <path d="M29.08,53.18c-.53.49-.48,1.95-.03,2.56.85-.93.9-2.12.03-2.56Z"/>
    </g>
  </g>
</svg>