<?xml version="1.0" encoding="UTF-8"?>
<svg id="Warstwa_2" data-name="Warstwa 2" xmlns="http://www.w3.org/2000/svg" viewBox="0 0 51.59 56.42">
  <g id="icon-v9-equipment-pixarts-store">
    <g id="icon-v9-equipment-pixarts-store_31">
      <path d="M40.63,43.64l-.7,3.44c4.52.05,8.92-2.79,10.78-7.03,2.04-4.66.68-12.36-5.09-13.56-3.46,2.54-6.91,4.86-10.62,6.95-6.19,3.48-2.06,7.36-6.84,12.28,1.11-.21,1.95-.6,2.92-1.06-.91,2.29-4.2,2.91-6.3,1.68-2.17-1.26-2.78-4.27-1.41-6.55,4.13-6.9,21.39-9.74,25.69-21.35,2.8-7.56-1.36-15.26-8.9-17.59-4.85-1.5-9.76-1-14.32,1.38-2.28,1.18-4.54,2-7.01,2.67l1.4,1.11-4.25-1c-2.12-.5-3.68,1.19-5.84,1.72.49-.57,1.2-1.14,2.12-1.82-2.62-.96-4.91-.11-6.7,2.03-.69.83-2.45.84-3.6,1.04-1.32.23-2.17,3.05-1.09,3.57,1.19.28,2.65.39,3.53,1.05,1.93,1.42,3.78.89,5.99.96l7.71.24c1.88.06,3.44-.97,4.31-2.46.66,2.84-2.33,1.24-4.48,6.16l-2.76,6.35c-1.03,2.37-4.1,3.06-6.05,1.52.72,2.17,3.46,2.42,5.22,1.19,3.29-2.29,2.06-4.7,8.1-8.81,1.26-.86,2.22-2.5,2.36-3.78.18-1.72-.51-3.06-1.59-4.35.9.16,1.71.81,2.46,1.76,2.63-2.24,5.72-3.89,9.33-4.06,3.5-.17,6.99,1.44,8.37,4.76,1.39,3.32.07,7.03-2.37,9.44-5.75,5.69-9.77,6.17-15.91,10.56-2.54,1.81-4.76,4.32-6.07,7.2-1.19,2.63-1.74,6.81-.42,9.55,1.79,3.71,5.79,6.45,9.95,6.23,4.42-.24,7.91-3.69,9.34-7.67,2.27-6.36.72-11.26,3.66-14.35.95-1,2.54-1.49,3.8-1.42,1.22.07,2.77.76,3.04,2.26-1.35-1.28-3.1-2.12-4.56-.91,1.61.85,2.51,2.31,2.46,4.06-.1,3.35-2.44,5.9-5.68,6.62ZM14.67,11.2c-.35.05-6.46-1.26-6.48-1.88,1.67.23,3.03.19,4.21-.88,2.87-2.62,4.29-.17,7.11-.03-4.19.97-3.13,2.54-4.84,2.79Z"/>
      <path d="M2.77,30.97c.54-9.96,7.66-5.32,9.91-9.47l.02,3.47c1.85-.03,3.9-6.77,2.38-7.58l-1.69,2.68c-.85.69-2.52,1.83-3.52,2.2-2.36.54-4.5.68-6.54,1.67-2.51,1.21-4.08,3.92-2.98,6.4.06-1.87.82-3.58,2.37-4.21-.48,1.77-.47,3.41.05,4.83Z"/>
      <path d="M10.63,42.68c1.37,1.55,4.13,1.45,6,1.01.61-1.08.93-2.94.69-3.85-2.49-.43-3.98-.97-5.86-2.2-.77,1.36-2.01,3.71-.83,5.05Z"/>
      <path d="M11.19,48.53c1.51,1.48,4.38,1.58,6.11.17.03-1.21-.46-3.01-.85-3.81-2.46-.07-4.17-.37-6.35-1.01-.25,1.34-.06,3.54,1.08,4.65Z"/>
      <path d="M11.96,36.59c1.31,1.9,3.56,1.92,5.93,2.4l1.8-3.4-4.79-2.86c-1.33.33-2.67,2.55-2.93,3.86Z"/>
      <path d="M15.47,31.39c1.46,1.81,3.11,3.35,5.55,3.16l2.41-2.83-3.97-3.17c-1.47.74-2.71,1.61-3.99,2.84Z"/>
      <path d="M20.07,28.07l3.98,2.89c1.44-.12,3.28-1.26,4.19-2.21-.96-1.15-2.26-2.89-3.73-2.83-1.48.06-3.17,1.43-4.44,2.15Z"/>
      <path d="M30.68,27.63l3.62-2c-1.59-1.01-2.48-1.67-3.78-2.95l-5.04,2.48c2.4,1.17,3.01,3.68,5.19,2.47Z"/>
      <path d="M17.4,54.45c1-.15,2.23-.74,2.51-1.9l-2.26-2.79c-2.01.93-3.41.91-5.76.64,1.1,1.88,3.19,4.39,5.51,4.05Z"/>
      <path d="M31.19,22.35c1.2.9,2.28,2.54,4,2.32,1.75-.22,3.19-1.94,3.97-2.85l-3.84-2.1-4.13,2.63Z"/>
      <path d="M42.82,15.99c-1.91.16-3.11.19-4.97.04l-1.86,2.73c1.01,1.16,2.75,2.52,4.39,1.6,1.46-.81,2.08-2.91,2.44-4.37Z"/>
      <path d="M40.73,10.28l-3.07,2.2.46,2.39c1.32.5,3.67,1.11,4.62-.43.82-1.33-1.05-3.43-2.01-4.16Z"/>
      <path d="M35.65,8.35l-1.45,2.22,2.64.86c.81.26,2.76-.84,2.72-1.72-.76-1.22-2.7-1.38-3.91-1.36Z"/>
      <path d="M23.75,55.18l-2.98-1.64-3.37,2.02c1.81.42,6.14,1.89,6.35-.39Z"/>
      <path d="M30.24,11.31c2.07-.35,3.82-.75,4.05-2.9-1.38.1-2.94.38-3.62.94-.35.31-.46,1.61-.43,1.96Z"/>
      <path d="M4.89,14.09c.07,2.02.55,3.68,1.8,5.08l.06-4.55-1.86-.54Z"/>
      <path d="M29.33,10.03c-1.75.41-3.3,1.67-3.05,3.81l2.88-2.25c.24-.19.23-1.31.17-1.56Z"/>
      <path d="M2.71,13.35l-1.67-.54c-.06,1.92.4,3.41,1.39,4.8l.28-4.25Z"/>
      <polygon points="15.81 14.7 16.7 18.43 18.12 14.95 15.81 14.7"/>
      <path d="M10.01,14.98l1.63,3.75c.43-1.37.01-3.42-1.63-3.75Z"/>
      <path d="M12.95,17.67c-.95.87-1.46,1.85-1.41,3.27,1-.86,1.51-2.05,1.41-3.27Z"/>
      <path d="M11.67,23.88c-.42.11-1.03.6-1.44,1.06.82.38,1.44.47,1.66.16.18-.25.1-1.3-.22-1.22Z"/>
      <path d="M13.89,9.9l-.44-.82c-.09-.16-.39-.05-.54.05-.1.06-.11.8-.04.9.33.45,1.56.54,2.13.17.6-.39.78-1.84-.04-1.91-.42-.03-.82,1.03-1.07,1.61Z"/>
    </g>
  </g>
</svg>