<?xml version="1.0" encoding="UTF-8"?>
<svg id="Warstwa_2" data-name="Warstwa 2" xmlns="http://www.w3.org/2000/svg" viewBox="0 0 55.43 56.71">
  <g id="icon-v9-equipment-pixarts-store">
    <g id="icon-v9-equipment-pixarts-store_36">
      <path d="M1.3,38.19l-.09,5.35-.75-2.03c-.77,1.63-.68,4.33,1.03,5.47l1.79,1.19,1.42-1.09,1.43,1.83,1.76-3.24,1.33,2.06,2.47-4.93,2.16,3.66c.67-1.12,1.05-2.01,1.78-3.69l1.48,1.28,1.27-2.98,1.59,1.01c.58-.85,1.04-1.55,1.51-1.8.4-.22,1.53.44,1.99.43.66-.02,1.42-1.28,1.66-2.12l-3.36.4c3.96-3.59,7.07-.4,10.21-.98,1.99-1.66,2.71-5.69,5.27-5.35,1.12.15,2.11,2.24,2.79,1.77l.91-.64c-1.19-1.16-1.93-2.39-1.63-3.94.33-1.68,1.5-2.78,2.63-4.07-2.17-.04-3.47.76-5.44,1.52l1.1-2.04c-.35-1.47-.34-2.88.39-3.9-.08,1.3-.29,2.37.13,3.21.3.6,2.28.15,2.22-.46-.18-1.8-.4-4.11-1.66-5.51-.9-1-3.47-1.12-4.65-.75-1.68,1.49-3.57,3.57-6.26,2.63l2.6-.83c-.59-1.09-.95-2.26-1.23-3.55-.72.71-6.62,4.7-6.65,3.06v-.86c.66.26,1.91.09,1.91-.42l-1.31-2.77c-1.33.23-5.92.82-4.6,2.93l-2.71,3.64-1.46-4.7-1.06,6c-.83.71-2.1,1.68-2.85,2.58-1.05,1.26-.53,3.67.33,4.66.29.2,1.35-.33,1.53-.7l1.89-4.02c-.3,1.65-.7,3.2-1.14,4.72l-1.96.98c-1.87,2.74-4.32,4.31-7.27,6.41l.75-3.92c-1.28,1.16-3.2,2.7-3.23,4.53ZM23.62,24.41c-.73,1.31-2.07,2.59-4.08,2.4l4.08-2.4ZM16.36,31.14c.18-1.61.89-2.72,2.27-2.69-.58.82-1.08,1.58-1.27,2.2-.17.57.63,1.91,1.26,2.02,4.03.68,5.33-4.15,7.52-4.66,2.65-.3,7.31-.75,7.71-3.75-1.89.61-3.71.98-5.32-.08,2.59.11,4.26-.27,6.68-1.42-.12,2.07-1.94,4.39-1.26,5.56.25.44.89.9,1.57,1.4-.22.12-1.02.4-1.43.43-.4.03-.97-.85-1.12-1.24l-.46-1.17c-.09-.24-.9-.07-1,.17l-.45,1.09c-.15.67-.26.9-.26.28l-.72-.63c-.16-.14-.49.51-.49.81,0,2.64-2.16,4.82-5.33,4.51,1.93,1.23,3.92.39,5.76-.55-1.38,3.05-5.36,1.25-9.16.76-4.1-.53-3.7-2.55-5.66-1.9l-1.21-2.7c.76.87,1.5,1.72,2.37,1.55ZM20.96,35.39l-3.73,1.32c-1.67.59-2.71,1.57-3.26,3.08-.23-3.36,4.82-5.61,6.99-4.4ZM5.79,43.78c-.15-1.8,3.3-5.71,4.27-4.11,1.27,2.09-1.65,1.91-4.27,4.11ZM11.6,36.28c-3.31,2.43-5.49,1-7.03,6.16-1.46-2.92,4.79-6.25,7.03-6.16Z"/>
      <path d="M3.6,53.52c.75,2.11,2.09,2.52,4.2,2.17,1.92-.32,4.18.5,6.27,1.03.87-2.49,2.42-4.87,5.09-5.8,2.19-.76,4.47-1.92,6.79-1.97l7.89-.17-.2-3.3,3.46-1.02c-.69-.48-1.51-.97-1.67-1.47-.65-2.13.96-4.35,3.34-4.39l-.26-3.2c-1.4-.9-3.09-.27-3.81,1.17l-1.67,3.38-.44-.84c-2.57,2.39-3.67-1.08-5.25,1.3l-2.65,4.02-1.15-1.85c-.75,1.96-1,2.9-2.01,4.26l.09-1.93c.02-.35-.94-.9-1.12-.96-.23,1.16-.41,2.36-.84,3.19-.3.58-1.85-.48-2.16-.86-.26.88-.62,2.39-1.22,2.76-.4.25-1.42-.41-2.1-.75l-1.16,6.3c-1.99-1.33-2.48-3.47-3.52-5.48l-1.02,2.82c-.12.33-1.36.33-1.54.04l-.71-1.15c-.29.46-.86,1.24-1.11,1.08l-1.99-1.25c-.13,1.18.15,2,.45,2.86ZM29.3,47.22l-3.49.82c.8-1.26,1.94-1.31,3.49-.82ZM27.86,40.61c.28,1.58-.82,2.88-2.12,3.47l2.12-3.47Z"/>
      <path d="M40.66,19.93l1.2-1.68-.67,4.09c3.79-2.39,1.15-5.47,3.73-6.86-.55,2.68,2.06-1.92,5.12-1.1-1.07.52-2.17,1.35-2.76,2.52,6.11-.61,9.23-10.26,7.81-15.28-1.07,3.39-2.29,6.7-5.13,8.78l1.34,1.13-2.59-.32-4.6,1.01.66.55c-5.07-.79-4.79.48-8.84,3.89,2.61.09,4.28,1,4.73,3.27Z"/>
      <path d="M24.04,14.77c.53.74,1.08,1.91,1.62,2.25,1.03-.73.3-1.78-.06-2.97l1.02.77c.83-1.78.55-3.84-1.16-4.72,1.71-.09,1.97,1.18,2.39,2.7,1.55-2,0-2.39,1.71-3.46l-.46,2.11c4.1-2.52,5.26-7.26,3.86-11.45-.56,4.16-2.82,6.85-6.15,8.45-1.95.94-3.69-.2-6.94,6.19,1.58-.04,3.48-.82,4.16.12Z"/>
      <path d="M54.04,22.9c-3.51,3.01-6.99,4.37-11.37,4-1.59.34-2.6,3.05-2.13,4.4l5.36-1.23-4.29,2.4c5.32-.27,10.72-4.46,12.42-9.58Z"/>
      <path d="M36.26,41.72l1.9.49-1.83.48c2.01,2.13,7.75-.87,8.81-3.03-6.06,1.61-6.78-2.89-8.88,2.05Z"/>
      <path d="M13.19,47.3l-1.45-3.47c-.83,1.66-1.15,2.63-1.57,4.18.51,1.97,1.02,3.57,2.32,5.26l.69-5.97Z"/>
      <path d="M18.68,42.09c-.93,1.59-1.14,3.45.53,4.6.83-1.7.71-3.58-.53-4.6Z"/>
      <path d="M7.88,51.59c.66-1.44,1.4-3.13.05-4.82l-1.02,3.56c-.1.35.6,1.17.97,1.25Z"/>
      <path d="M15.84,43.62l-.84,3.77,1.06,1.11c.88-1.94.91-3.27-.22-4.88Z"/>
      <path d="M47.49,16.04c0-1.2-4.3,1.67-3.13,3.42,1.06-.96,1.99-1.92,3.13-3.42Z"/>
      <path d="M22.05,44.11c.72-1.6.88-2.54-.17-3.58-.4.3-1.08,1.4-1,1.96.08.52.75,1.27,1.17,1.62Z"/>
      <path d="M4.45,48.04c-.21.51-.42,1.29-.44,1.83-.01.45.84,1.27,1.4,1.39.54-1.36-.06-2.29-.96-3.23Z"/>
      <path d="M1.29,51.9c1.44,4.56-.4-5.91-1.02-5.02-.03,1.55.37,2.96.81,4.37l.21.66Z"/>
    </g>
  </g>
</svg>