<?xml version="1.0" encoding="UTF-8"?>
<svg id="Warstwa_2" data-name="Warstwa 2" xmlns="http://www.w3.org/2000/svg" viewBox="0 0 38.26 53.44">
  <g id="icon-v9-equipment-pixarts-store">
    <g id="icon-v9-equipment-pixarts-store_370">
      <path d="M15.2,43.86c1.03-.06,1.2-1.18,1.03-1.91-.1-.43-.7-1.03-1.2-1.24-.42-.18-1.31.32-1.65.73l-4.53-2.5,4.48-2.4c.71.69,1.63.91,2.4.35.73-.53.79-2.48.04-2.55-2.72-.27-4.78-1.13-6.26-2.96-1.47-1.83-1.77-4.06-1.39-6.64-3.21,1.75-5.4,4.55-6.82,7.82l1.12,1.59-1.83.42c-.96,3.85-.79,7.83.97,11.34l1.55.08-.77,1.59c1.39,2.37,3.32,4.27,5.81,5.74-1.05-4.89,1.94-9.16,7.06-9.44ZM6.76,47.81c-5.07-4.93-4.55-13.79.82-18.6-4.04,5.85-4.53,12.13-.82,18.6Z"/>
      <path d="M35.16,31.61c1.74-2.35-3.24-5.74-4.83-6.85l-.05,3.84c6,5.21,6.55,14.96.4,20.18,4.77-6.19,4.47-14.17-.44-19.97-1.17,3.49-4.05,5.38-7.62,5.44-.73.55-.79,2,0,2.59.81.62,1.77.65,2.29-.37l4.6,2.47-4.61,2.5s-.45-.59-.57-.75c-.5-.35-1.79.28-2.06.84-.33.69-.24,2.19.85,2.28,5.23.41,8.06,4.62,7.17,9.45,1.97-.85,6.82-6.03,6.01-7.02l-.8-.97,1.68-.31c1.68-4.25,1.33-8.94-.5-13.17l-1.52-.18Z"/>
      <path d="M25.18,40.32l2.31-1.43-2.36-1.18c-1.23.83-2.47.17-3.26-.59-.36.58-.49.81-1.01,1.07l.78-5.4c-1.51-.37-3.61-.47-5.04-.1.4,2.18.61,3.4.76,5.55-.47-.33-.66-.56-1.03-1.08-.69.88-2.2,1.48-3.32.56l-2.23,1.21,2.28,1.31c1.19-.91,2.52-.31,3.25.68l1.01-1.14-.64,5.38c1.6.25,3.73.25,5-.13l-.74-5.24,1.03.92c.83-.89,2.16-1.39,3.2-.4Z"/>
      <path d="M22.69,1.65c-1.81-2.19-5.23-2.22-7.07.02-1.65,2.01-1.42,5.31,1.38,6.74,1.24-1.56-2.12-3.79.54-5.8.98-.74,2.45-.63,3.36.17,2.1,1.84-.55,3.81.45,5.75,2.79-1.37,3.09-4.77,1.34-6.89Z"/>
      <polygon points="17.69 29.66 20.72 29.69 20.66 20.16 17.71 22.07 17.69 29.66"/>
      <path d="M19.17,53.44l1.99-4.61-1.18-.09,1.04-2.69-3.66.12c.65,1.19.28,1.82-.14,2.61l1.95,4.64Z"/>
      <path d="M20.22,6.65c-.13-.58-2.1-.42-2.16.17l-.28,2.49c.91.31,1.9.57,2.82.69-.1-1.61-.13-2.25-.37-3.35Z"/>
      <path d="M20.93,17.02l-3.24,2.03c-.51.32-.49,1.86-.26,2.33l3.52-2.2-.03-2.16Z"/>
      <path d="M17.54,11.54l3.36,1.89.19-2.78c-3.01.03-2.01-.94-3.8-.47-.27.07,0,1.21.25,1.35Z"/>
      <path d="M20.02,13.68l-2.65-1.46v2.05s3.36,2.05,3.36,2.05c.91-1.44.11-2.11-.71-2.63Z"/>
      <path d="M17.13,31.59l4.04.22-.19-1.44-3.53.03c-.28,0-.45,1.24-.33,1.19Z"/>
      <polygon points="17.44 15.24 17.53 18.31 20.42 16.83 17.44 15.24"/>
    </g>
  </g>
</svg>