<?xml version="1.0" encoding="UTF-8"?>
<svg id="Warstwa_2" data-name="Warstwa 2" xmlns="http://www.w3.org/2000/svg" viewBox="0 0 56.68 47.08">
  <g id="icon-v9-equipment-pixarts-store">
    <g id="icon-v9-equipment-pixarts-store_245">
      <path d="M38.05,25.79c-.39,0-1.27.48-1.68.6-6.03,1.82-12.23,1.52-18.18-.8l-1.93,2.9c-2.18,3.29-1.67,7.62,1.01,10.52,2.28,2.46,5.38,3.77,8.56,4.18.22-1.66.92-3.41,2.53-3.3,1.48.1,2.18,1.74,2.45,3.29,3.01-.26,5.65-1.57,7.83-3.61,6.34-5.95.59-13.77-.6-13.78Z"/>
      <path d="M53.07,5.24c-.49-2.49-6.86-3.63-9.32-4.02-10.52-1.66-21.11-1.63-31.6.11-2.23.37-8.38,1.59-8.66,3.91-.27,2.25,4.53,4.14,6.13,3.57l-3.72-1.79c-.59-.28-1.14-1.64-.65-2.2.36-.41,1.1-.79,1.74-.99-.74.53-1.59,1.52-1.2,1.88,3.29,3.09,5.65.86,8.64,2.97.44.11,1.43-.53,1.9-.62,3.42-.7,4.76,1.15,5.68,1.39.43.11,1.27-.59,1.73-.64,3.08-.37,6.15-.44,9.33.11.52.09,1.37.8,1.74.67,1.33-.45-.61-1.57,5.39-1.65l1.3.95c3.29-.56,6.58-.95,9.42-2.96.48-.34-.58-1.75-1.17-2.11.6.07,1.48.46,1.77.96,1.72,2.98-7.22,4.64-9.38,4.87l-.57.3c-2.88,1.51,12.3-.66,11.51-4.71Z"/>
      <path d="M21.74,19.35c1.75-.18.63-1.29.96-2.56l.96,2.17,8.91-.03.92-2-.12,2.29.83-1.11.4,1.4.25-5.41c.05-1.09-.33-2.43-.96-3.45l-10.81-.04c-2.43,0-1.2,7.25-1.34,8.73ZM23.92,11.69l8.67-.02c.29,0,1.07.45,1.16.73l.28.89c.05.14-.43.14-.57.18-.15.04-.14-.48-.19-.92-3.24-.76-6.67-.58-10.16-.21-.05-.05.61-.64.81-.64Z"/>
      <path d="M47.8,19.92l.52,2.61c-.49-.66-1.09-1.6-1.59-1.92-.18-.11-.78.43-.73.63l.24.96-.87-1.63-.95,2.5.03-2c.04-3.39-4.51,3.86-1.94,6.8,1.57,1.79,4.97,1.24,6.85.24,3.19-1.7.1-7.42-1.54-8.2Z"/>
      <path d="M18.17,25.13c6.47,2.31,13.36,2.35,19.84.14.96-.33,1.58-1.64,1.42-2.43-.13-.64-1-1.52-1.86-1.76-6.2-1.76-12.83-1.82-18.93.17-.82.27-1.65,1.24-1.66,1.86-.01.55.62,1.82,1.19,2.02ZM37.08,21.82c.39.12.94.73,1.04.99.9,2.32-17.05,3.51-19.64.24-1.27-1.6,9.91-3.99,18.61-1.24Z"/>
      <path d="M39.87,26.01c.02.17.84-.04.87-.23.38-3.02,1.35-14.53-.55-16.81-1.03-.2-2.25-.03-3.39.27.15,1,.55,2.05.57,2.83l.26,8.11.56-4.42c.15-1.17-.2-2.41.37-3.41l-.33,8.12c1.17.53,1.9,1.07,2.17,1.97.64,2.16-.75,1.95-.53,3.57Z"/>
      <path d="M53.97,17.22l-.21,2.04c-.37-1.16-1.21-1.92-2.1-1.71l-.56,1.91c-.01-.99.03-1.94-.39-2.55-3.47,2.44.08,3.77,1,8.39,1.42.25,3.92-.37,4.59-1.79,1.11-2.35-.32-5.18-2.32-6.29Z"/>
      <path d="M17.84,20.65l.02-8.17c1,2.67-.47,5.28.86,7.98.42-2.86-.83-8.57,1.23-11.28-.97-.19-2.52-.55-3.41-.15-.91.41-1.28,2.35-1.28,3.32l.02,8.51c0,1.83-.01,3.85,1.3,5.07l-.58-3.1c-.13-.7,1.08-1.64,1.85-2.17Z"/>
      <path d="M6.6,29.65c-.28-1.03-.03-2.46.38-3.11,4.29,2.61,5.55-2.96,8.41,1.21-.3-2.13-1.61-3.77-2.96-5.04-.94.14-2.49.14-3.33.47-1.44.57-5.33,5.05-2.65,8,1.86,2.05,5.55,2.75,7.38.69-2.88.78-6.56.22-7.23-2.22Z"/>
      <path d="M7.05,27.23c-.24,1.12-.23,2.47.51,3.23.5.52,1.62,1.15,2.62,1.33,2.46.45,4.09-.78,4.44-2.95.08-.5,0-1.47-.26-1.8-1.32-1.63-3.06,1.58-7.31.19Z"/>
      <path d="M1.29,25.12c-.58-.69-.63-2.38.01-2.65.85.13,1.85.43,2.37.38l4.3-.41c-.14-.38-.52-1.53-.77-1.93l-1.26-1.99-2.4-.13c-.55-.14-.41.07.12.51-.93.27-1.83.67-2.5,1.45-1.29,1.49-1.57,3.58-.53,5.14.9,1.36,2.8,2.56,4.59,1.54-1.49-.38-2.93-.73-3.93-1.91Z"/>
      <path d="M53.26,10.33l-.06-3.01c-3.75,2.66-7.07,2.88-11.29,3.9l.34,2.92c2.1-2.26,5.69-.96,7.55.2-.3-.56-1.11-2.17-.81-2.84.76-1.43,2.73-1.47,4.28-1.17Z"/>
      <path d="M13.56,17.53l.32,4c1.38.79.15-9.35.61-10.71l-2.43-.22-.2,5.08,1.42.68c.27.13.25.78.28,1.17Z"/>
      <path d="M5.32,8.75l-.03,3.35c2.85.73,1.15,3.38,2.26,6.33,1.77-.39.29-6.07,1.11-8.78l-3.34-.9Z"/>
      <path d="M28.23,40.51c-.39.07-1.14.72-1.26,1.1-.87,2.67.82,6.43,1.73,5.25,2.15-2.78,1.06-6.61-.47-6.34Z"/>
      <path d="M10.09,8.85c-1.18,2.09-1.29,4.8-.81,6.86.54.03,1.6.16,1.62-.18l.1-1.56c.14-2.15.45-3.79,1.37-5.4-.43-.2-2.01-.2-2.28.29Z"/>
      <path d="M1.41,23.08c-.49.84,0,2.27,1.23,2.85.56.27,2.13.77,2.54.26l2.33-2.96c-2.4-.63-2.81.63-6.09-.15Z"/>
      <path d="M47.92,14.58l-.71-.56c-.16-.13-.47.49-.69.81l-.63-1.09c-.13-.22-.99-.28-1.22-.15l-.94.53c1.15.61,2.41,1.25,3.31,1.26.28,0,1.06-.63.86-.79Z"/>
      <path d="M43.72,14.13l-.89.5c2.25,1.25,1.37,3.77,3.02,4.04.38.06,1.29-.36,1.47-.71l1.35-2.54c-1.81.89-4.38,1.15-4.95-1.29Z"/>
      <path d="M43.7,14.09s0,.03.01.04l.03-.02s-.03-.01-.04-.02Z"/>
      <path d="M52.35,13.3c-.44.06-1.4.1-1.57-.26l-.84-1.73c-.54,1.12.63,2.7,1.42,3.72.34.44,1.78.69,2.14.28l2.08-2.41-3.23.41Z"/>
      <path d="M19.67,19.04c0,.24.55.82.77.73.16-.06.28-.44.29-.86l.08-6.68c0-.34-.82-.61-.91-.38-.07.16-.3.76-.3.94l.08,6.26Z"/>
      <path d="M36.58,19.31l.22-6.44c0-.24-.43-.84-.57-1-.1-.12-.57.27-.57.42l-.09,6.38c0,.26.13.74.18.91.06.17.83-.11.84-.28Z"/>
      <path d="M3.17,12.19h.88c.12,0,.18-.35.23-.55l.83-3.23-1.78-1.26-.16,5.04Z"/>
      <path d="M16.78,44.37c1.38.37,2.66-.72,3.19-2.02l-2.43-1.61c-.06,1.51-.24,2.4-.76,3.63Z"/>
      <path d="M36.64,42.35c.39,1.32,1.97,2.68,3.2,1.89-.71-1.13-.81-2.07-.82-3.54l-2.38,1.64Z"/>
      <path d="M23.72,9.82h9.3c-3.17-.88-6.36-.97-9.3,0Z"/>
      <path d="M3.29,14.85c-.44.95.52,1.67,1.33,1.61.56-.04,1.38-.84,1.39-1.49-.72-.33-2.26-.52-2.72-.13Z"/>
      <path d="M11.63,22.28c1.02-.43,1.36-3.69,1-4.42l-1.05,2.21.07-1.32c.02-.38-2.5-.42-2.29.12l.55,1.42-1.04.62c1.44.19,2.26.23,3.32.25-1.06.16-2.09.19-3.35.23.47,1.33,1.65,1.37,2.79.88Z"/>
      <path d="M52.36,10.88c-.3-.03-.38,1.33-.08,1.34l1.16.02c.05.07.17.44.31.41l.82-.19,1.38-.31c-.76-.54-2.64-1.14-3.59-1.27Z"/>
      <path d="M10.41,16.39c-.24-.07-.87.2-1.04.38s-.21.65-.09.86c.12.22.89.49,1.14.41l1.19-.38c.24-.08.16-.89-.08-.96l-1.12-.32Z"/>
      <path d="M6.36,17.68l.14-1.14-3.64.66c.71,1.32,3.44.88,3.5.48Z"/>
      <path d="M52.49,16.94c.69.02,1.87-.31,1.78-.88-1.58,0-2.43-.16-3.79-.56.2,1.06,1.11,1.41,2,1.44Z"/>
      <path d="M43.55,18.6c.88,1.55,3.32,2.02,4.34.47-1.61.05-2.72-.08-4.34-.47Z"/>
      <path d="M3.21,13.12c.22,1.23,2.37,1.56,2.7.24-.77-.49-2.08-.59-2.7-.24Z"/>
      <path d="M41.99,21.05c1.1-1.63,1.03-3.36.21-4.83l-.21,4.83Z"/>
      <path d="M12.34,10.13l2.72.1c-.84-1.02-2.03-1.4-2.72-.1Z"/>
      <path d="M50.83,12.02c.27.37.53.48,1.46.75l-.93-2.16c-.8.51-.87.94-.53,1.41Z"/>
      <path d="M35.87,23.36c-5.09-1.24-10.17-1.47-15.34.08,4.97,1.17,10.06,1.3,15.34-.08Z"/>
    </g>
  </g>
</svg>