<?xml version="1.0" encoding="UTF-8"?>
<svg id="Warstwa_2" data-name="Warstwa 2" xmlns="http://www.w3.org/2000/svg" viewBox="0 0 39.54 56.32">
  <g id="icon-v9-equipment-pixarts-store">
    <g id="icon-v9-equipment-pixarts-store_210">
      <path d="M34.18.14c-.64-.27-1.93-.15-2.2.36-.29.55-.22,1.66.19,2.1.92-.88,1.38-1.45,2.01-2.46Z"/>
      <path d="M9.06,53.33h21.43s0-14.64,0-14.64H9.07s0,14.64,0,14.64ZM24.3,41.44c1.51.48,3.21,1.52,4.07,2.21.13.11-.09,1.05-.25.98l-.87-.36c-.78-.33-1.14-.95-2.17-.47,1.44,1.85,2.68,1.61,3.23,2.77.1.21-.7.57-.91.46l-1.87-1.02-.11,3.38c0,.2-.03.73-.19.73h-1.01s.07-8.69.07-8.69ZM22.69,44.24l-2.48,2.01,2.35,2.31-.74.83-2.52-2.17-.16,2.22c-.01.16.05.73-.09.73l-1.01.04-.02-9.14,4.66,3.17ZM15.77,43.01c.17.16.35.8.2,1.01-2.39,3.33.01,4.25-1.06,5.93l-2.74-2.64,1.68-.37c.3-.45.69-5.13,1.93-3.93ZM12.18,40.48l1.27,1.2-1.1,1.17-1.27-1.2,1.1-1.17Z"/>
      <path d="M5.31,37.42l.03,16.99c0,.65,2.6.6,2.6-.07l.04-16.95c-.67-.56-2.08-.57-2.67.03Z"/>
      <path d="M31.62,37.39l-.05,17.02c.82.61,1.97.65,2.66-.12v-16.95c-.62-.51-2.12-.56-2.61.05Z"/>
      <path d="M35.33,38.36l.03,15.17c1.02-.24,2.79-1.02,2.77-2.17l-.16-11.28c-.34-.7-1.49-1.37-2.64-1.71Z"/>
      <path d="M1.52,40.08l-.15,11.39c.23.9,1.76,1.78,2.78,2.11v-15.23c-1.03.42-2.01,1.04-2.64,1.74Z"/>
      <path d="M23.71,20.1c.4-.66.53-2.07.21-2.51-.32-.43-1.24-1.15-1.79-1.16-2.47-.04-5.67-.46-6.66,1.37-.25.47-.03,1.82.37,2.26l7.86.03Z"/>
      <path d="M17.14,9.19l1.04,5.93c1.02.13,2.17.12,3.11-.06l.97-5.96c-1.69-.72-3.45-.64-5.12.09Z"/>
      <path d="M24.17,37.71c.1-.96-.41-2.33-1.05-2.33l-6.77-.02c-.71,0-1.17,1.65-.85,2.3l8.68.05Z"/>
      <path d="M17.15,32.37l5.27-3.17v-3.23s-5.3,3.28-5.3,3.28c-.05.93-.03,2.15.02,3.13Z"/>
      <path d="M16.44,21.67c2.22,1.49,3.52,2.14,5.83,3.36l.38-3.76c-2.3-.03-3.82-.32-6.22.4Z"/>
      <path d="M4.29,1.71c-.01.25.02.94.2,1.14l3.97,4.51c.25.28,1,.46,1.28.39.28-.08.61-.86.39-1.1L5.65,1.68c-.21-.23-1.34-.27-1.35.04Z"/>
      <path d="M13.8,11.95c-2.56-1.53-4.46-3.11-6.69-5.04-.3.37-.34,1.71.05,2.06,1.57,1.44,5.06,4.89,6.64,2.97Z"/>
      <path d="M35,1.7c-.26-.08-1.05-.03-1.23.17l-4.52,4.9c-.02.29.19.91.42.93.23.02,1.02-.11,1.24-.34l4.17-4.46c.22-.24.17-1.12-.09-1.19Z"/>
      <path d="M28.52,12.12l3.5-2.77c.71-.56.86-1.85.44-2.61-2.21,2.14-4.2,3.79-6.7,5.28.65.52,2.06.66,2.77.1Z"/>
      <path d="M19.9,56.32c1.28-.03,2.83-.57,3.2-2.13h-6.81c.74,1.66,2.15,2.16,3.61,2.13Z"/>
      <path d="M22.6,34.25l-.2-3.77c-2.14,1.18-3.6,1.98-5.55,3.64l5.75.13Z"/>
      <path d="M9.15,4.88c1.84,1.78,3.64,3.24,5.91,4.44.3-.44.19-1.44-.15-1.7l-3.75-2.97c-.46-.36-1.52-.24-2.02.23Z"/>
      <path d="M24.25,9.15c.21,0,.93-.05,1.1-.19l4.98-4c-.18-2.58-8.23,4.13-6.09,4.19Z"/>
      <path d="M37.77.23l-3.25,4.32c.55.51,1.99.24,2.5-.54l2.52-3.81c-.66-.24-1.52-.3-1.77.03Z"/>
      <polygon points="17.21 28.01 20.96 25.62 17.04 23.5 17.21 28.01"/>
      <path d="M0,.09c.92,1.5,3.04,5.9,4.96,4.37L1.85.41C1.55.02.58-.04,0,.09Z"/>
      <path d="M27.26,9.71c-.53-1.28-3.05.28-4.37.93-.4.2-.41,1.48-.23,1.91l4.04-1.74c.31-.13.67-.84.56-1.1Z"/>
      <path d="M16.5,10.51l-3.07-1.32c-.31-.13-1.11.19-1.17.48-.04.23.2.84.46.96l4.14,1.99c.21-.72.08-1.92-.36-2.11Z"/>
      <path d="M7.22.2C6.82-.02,6.14,0,5.35.07c.73,1.06,1.28,1.77,1.95,2.44.82-.9.54-1.98-.07-2.31Z"/>
      <polygon points="20.98 44.38 19.11 43.35 19.24 45.41 20.98 44.38"/>
    </g>
  </g>
</svg>