<?xml version="1.0" encoding="UTF-8"?>
<svg id="Warstwa_2" data-name="Warstwa 2" xmlns="http://www.w3.org/2000/svg" viewBox="0 0 55.92 54.27">
  <g id="icon-v9-equipment-pixarts-store">
    <g id="icon-v9-equipment-pixarts-store_334">
      <path d="M27.79,51.79c.71-2.09.42-3.81.38-5.87-.93-1.02-.79,6.1-.38,5.87Z"/>
      <path d="M37.95,10.78c1.5,1.56,2.88,2.64,4.73,3.9,1.6-.74,2.93-1.47,4.21-2.41-1.84.21-2.67,1.06-3.96,1.96-1.54-1.01-2.96-2.1-4.32-3.49l2.68-8.19c-1.56,2.64-2.37,5.19-3.34,8.23Z"/>
      <path d="M39,46.72l-1.03-2.82-1.7,1.32-8.51-4.2-8.27,4.19-1.83-1.3-.89,2.81c3.19,1.88,6.73,3.62,10.19,5,2.26.9,9.69-3.77,12.05-5ZM28.17,45.91c.04,2.06.33,3.78-.38,5.87-.41.23-.55-6.89.38-5.87Z"/>
      <path d="M36.98,10.73c1.36,2.01,3.26,3.72,5.49,4.88,3.63-.98,7.31-3.52,9.76-6.05.27-.28.34-1.31.08-1.25l-.93.19c-1.56-3.16-7.72-6.07-10.68-7.87-1.59,3.52-2.88,6.59-3.72,10.1ZM42.93,14.23c1.3-.9,2.12-1.75,3.96-1.96-1.28.94-2.62,1.67-4.21,2.41-1.85-1.27-3.23-2.34-4.73-3.9.97-3.04,1.78-5.59,3.34-8.23l-2.68,8.19c1.35,1.39,2.78,2.48,4.32,3.49Z"/>
      <path d="M36.1,9.2c-9.2,5.11-7.6,4.19-16.64.14-1.86,1.16,7.99,4.13,8.47,5.17l-9.26-3.73c.65,2.13,1.72,3.74,3.12,4.92,4.12,3.48,1.59,3.41,5.65,6.63l.42-4.46.44,3.65c3.36-2.68,6.06-5.41,8.74-8.6l-1.27-1.89c-2.61,1.4-4.71,2.58-7.59,3.09l7.28-3.35c.5-.23.85-1.14.66-1.6Z"/>
      <path d="M11.09,17.59l3.12-3.08c.14-.13.15-.88-.04-.89-2.18-.12-1.62,5.49-11.59,1.92,3.87-.05,6.11,2.3,9.85-1.21.37-.35,1.32-1.26,1.09-1.7l-3.64-6.8c-3.24,1.13-5.27,3.91-6.91,6.82l-2.05,3.65c3.14,1.21,6.72,1.69,10.18,1.3Z"/>
      <path d="M39.86,17.14l-9.01,8.54c2.1,2.09,4.8,2.93,7.83,4.26l3.04-5.09c-1.55-2.43-1.62-4.91-1.87-7.71Z"/>
      <path d="M18.15,43.1c0,.66,1.92.86,2.5.55l7.01-3.69-.12-6.36c-3.39,1.5-6.27,3.05-9.35,4.82l-.04,4.68Z"/>
      <path d="M35.66,43.77c.32.15,1.35-.04,1.58-.29.23-.25.44-.96.42-1.32l-.2-3.71c-3.01-1.86-5.95-3.49-9.28-4.74l-.1,3.46c-.03.91-.03,2.17.21,3.04l7.36,3.56Z"/>
      <path d="M16.95,29.77l6.37-4.46c-2.78-3.77-4.13-2.21-5.63-6.64l-1.97-2.54c.38,3.4-.43,6.19-1.73,8.91l2.95,4.72Z"/>
      <path d="M10.84,4.82c1.89,4.97,4.59,9.08,7.72,13.3l2.27-1.73-4.02-6.23c-1.34-2.07-2.15-4-3.19-6.41-.83.24-1.76.6-2.78,1.08Z"/>
      <path d="M37.23,36.59l-10.42-7.63-8.54,5.68c-.6.4-.2,1.94.52,2.14l9.08-4.32c3.57,1.29,6.01,3.33,9.36,4.13Z"/>
      <path d="M55.45,17.84c-.52-.92-.94-1.56-1.33-2.33l-2.05-4.09c-2.28,1.72-4.26,3.09-6.45,4.48-.78.5.69,2.12,5.15,1.48.25-.04.83-.46,1.01-.31.2.16.76.63.64.52-2.42.26-4.49.61-6.47.04l-1.95-1.47c.11,4.41,8.75,2.62,11.45,1.68Z"/>
      <path d="M20.53,8.54c1.18.83,2.74,1.72,4.01,2.43l.31-1.35c.33,1.03.39,1.77,1.69,1.79l-1.43-4.92c-1.33-.76-6.72-3.28-5.08-5.23,1.61-1.91,4.89,3.13,13.82-.42.53-.21,1.79.2,1.94.67.73,2.43-3.74,3.89-4.84,4.94-1.09,1.04-1.27,3.53-1.49,4.97,2.36-1.49.38-3.62,3.32-5.01,1.82-.87,3.95-2.33,4.19-4.5.18-1.58-2.18-2.21-3.45-1.78-9.57,3.17-12.01-2.19-14.66.88-1.78,2.07,3.76,5.28,4.72,6.12-2.16-.73-3.62-2.14-5.36-3.9-.61,1.17,2.06,5.13,2.31,5.3Z"/>
      <path d="M35.55,15.95l-7.65,7.1c.51.59,1.25,1.31,1.98,1.93l10.18-9.36c-.89-.85-1.65-1.43-2.47-1.97-.27,1.67-1.3,1.61-2.04,2.29Z"/>
      <path d="M29.26,54.05c4.78-2.35,9.26-4.7,13.79-7.48-1.52-1.33-1.92.22-2.93.38-3.78,2.24-7.69,4.69-12.03,5.86-3.89-.74-7.5-3.08-10.99-4.88-1.42-.73-2.58-2.41-4.49-1.45,4.59,2.93,9.2,5.19,13.95,7.5.68.33,2.04.39,2.71.06Z"/>
      <path d="M25.9,28.06c-.65-.77-1.39-1.55-2.04-2.01-.41-.26-1.26,1.03-1.75,1.34l-9.09,5.73.95,2.47c4.2-2.28,8.01-4.58,11.93-7.53Z"/>
      <path d="M32.45,28.32c-1.54-1.2-3.26-1.34-4.58.28,4.21,3.23,8.37,6.13,13.04,8.71.66-.66,1.03-1.72,1.01-2.64-3.56-2.04-6.46-4-9.47-6.35Z"/>
      <path d="M10.18,18.68c-1.5-.43-1.79,1.94-3.19,2.49l1.21-2.31-6.07-.91-2.13,5.32c4.33.43,8.6-.03,10.18-4.6Z"/>
      <path d="M55.92,23.84l-1.96-4.39-5.46.66,1.04,1.98-2.71-2.28c-.28,3.65,6.85,4.69,9.1,4.04Z"/>
      <path d="M27.34,27.55c.51.39,2.2-1.39,1.76-1.85l-4.9-5.11-2.13,1.63c1.7,1.93,3.19,3.72,5.27,5.33Z"/>
      <path d="M42.13,25.85l-2.43,4.1c-.34.58-.23,2.21.3,2.52.52.29,1.54.7,1.99.77l1.9-5.5-1.77-1.89Z"/>
      <path d="M31.76,7.58l-.75,3.24c3.89-1.23,5.87-3.57,6.37-7.38-1.76,1.76-3.35,2.95-5.62,4.14Z"/>
      <polygon points="16.05 30.14 13.34 25.8 11.73 27.79 13.44 31.9 16.05 30.14"/>
      <path d="M14.94,15.89c-.44.56-.86,1.64-.82,2.17.25,3.45-1.8,5.49-2.93,8.71,3.55-2.47,4.21-6.96,3.75-10.88Z"/>
      <path d="M44.24,26.49l.18-.56c.04-.12-.14-.48-.26-.61-2.47-2.55-2.24-5.61-3.16-8.89-1.97,3.31,2.82,11.32,3.23,10.06Z"/>
      <path d="M22.73,19.34c-.77.21-1.15.45-1.34.36l-1-.48c.09.67.93,1.84,1.5,1.87.56.03,1.56-1.03,1.79-1.58-.42-.98-1.24-2.08-2.06-2.79-1.14.74-2.04,1.49-2.82,2.43.27.76,1.1,1.89,1.53,2.09l-.8-1.88c-.18-.41,1.93-2.24,2.83-1.34.29.29.66,1.34.38,1.31Z"/>
      <path d="M17.42,38.94l-.31-3.68c-1.07.49-1.91.97-2.49,1.55.03,1.48,1,2.53,2.8,2.13Z"/>
      <path d="M18.48,10.5c.68-.93.44-1.42.12-2.07l-2.38-4.84c-.6,2.82,1.1,4.88,2.26,6.91Z"/>
      <polygon points="17.38 40.05 14.95 39.5 14.57 42.15 17.13 42.82 17.38 40.05"/>
      <path d="M40.9,41.8c.06-.38-.04-1.54-.21-1.91-.26-.59-2.03-.22-2.25.39-.21.59-.08,2.26.51,2.19.69-.09,1.87-.21,1.94-.66Z"/>
      <path d="M39.72,45.93c.1.18.71-.14,1.15-.32.78-.33,1.29-1.03.87-1.7-.25-.39-1.05-.73-1.5-.59-.59.18-1.25.38-1.18.66l.28,1.08c.06.22.29.7.39.88Z"/>
      <path d="M15.91,45.81c.45-.12,1.02-1.72.63-1.96-.39-.25-1.3-.54-1.8-.61-.39-.06-1.04,1-.95,1.39.14.59,1.53,1.34,2.12,1.19Z"/>
      <path d="M38.32,39.02l2.68-.57c-1.39-.95-1.64-1.04-2.7-1.41l.02,1.98Z"/>
      <path d="M41.8,39.2c-.07-.09-.51.42-.48.54l.65,2.93c.51-1.02.48-2.59-.16-3.47Z"/>
      <path d="M13.65,42.4c.25-1.05.42-2.19.48-3.53-.68.99-1.24,1.97-.48,3.53Z"/>
    </g>
  </g>
</svg>