<?xml version="1.0" encoding="UTF-8"?>
<svg id="Warstwa_2" data-name="Warstwa 2" xmlns="http://www.w3.org/2000/svg" viewBox="0 0 58 56.23">
  <g id="icon-v9-equipment-pixarts-store">
    <g id="icon-v9-equipment-pixarts-store_329">
      <path d="M28.82,24.85c-.72-.35-.74-1.73-.54-2.49-.13,0-1.14.23-1.06.52l.35,1.29.09,2.86c.5-.76.79-1.22,1.04-1.54.21-.27,1.05.63,1.21.93l.29.53c.05.1.38,0,.34-.11l-.24-.6c-.85-2.16.94-2.53.11-3.19l-1.08-.85.53,1.56c.12.36-.65,1.14-1.02,1.1Z"/>
      <path d="M35.3,47.51c.67-.32.83-.47,1.05-.43.19.03.87.16.8.15-.81-1.62.55-2.62-1.06-2.93-.35-.07-1.19.41-1.22.76-.03.35.17.77.41,1.33l.03,1.13Z"/>
      <path d="M21.06,15.75c-.22-.5-1.26-1.52-1.4-1.2.02.84.06,1.42.21,1.7.15.28,1.32-.21,1.19-.5Z"/>
      <path d="M17.25,15.47c-.18.17-.08.43.36.82l.38,2.39.72-2.41-.58-1.67-.88.87Z"/>
      <path d="M40.76,45.36c.07-.12.77.96.98.38.14-.39-.17-1.35-.49-1.55-.43-.28-1.08-.42-1.5-.27l.49,2.37.52-.92Z"/>
      <path d="M28.93,45.91c.48.39,1.12.77,1.18.56l.28-.89c.06-.2-.57-.2-.79-.26l-1.58-.84c-.07,1.54-.05,2.64.27,4.28l.63-2.85Z"/>
      <path d="M52.04,18.74l-4.38.99c1.36.35,2.99-.03,4.38-.99Z"/>
      <path d="M17.29,45.4c.09-.08.11-.18.15-.08l.4.95c.25-.34.64-1.24.63-1.73,0-.5-1.49-1.33-1.77-1.01-.2.82-.22,1.78-.14,2.59l.74-.71Z"/>
      <path d="M21.35,47.15l1.21.3.23-2.27c.04-.39-1.35-1.05-1.44-.67-.25,1.09-.14,2.61,0,2.64Z"/>
      <path d="M5.54,14.53l-.81.53c-.13.08-.41-.27-.66-.49l-2.59,3.81c3.66,1.76,11.02,4.87,11.97-.31-2.1,1.68-4.07,2.33-6.11,1.04,1.16.22,3.02.56,3.65-.16.31-.35-.12-1.65-.32-1.91l-.89,1.01-1.54-2.48c-.27-.43.48-1.29,1.04-1.56l.66,1.57.66-1.19,1.21,3.07.39-1.52,2.85,2.03c-.39-1.79-.2-3.57,1.14-4.67,1.2-.99,2.92-1.45,4.65-1.17-.91-2.44-1.59-4.6-1.96-7.19l-.52.66.15-1.2c.02-.15.54.08.67.08.8-1.07,1.6-1.68,2.93-2.31,0-.04-.43-.52-.65-.54-.22-.02-.75.02-.98-.01l-1.83-.31L15.97.05l.41,1.25-5.24-.64,1.52,1.38c-1.94.02-3.31.13-5.01.61l1.57,1.04-3.59.76.81.78-3.32,1.62,1.52.55-2.94,2.33,1.74-.11c-.85,1.11-1.54,2.01-1.92,3.17l1.46-.99-.58,1.93,2.22-1.72-.48,1.47,1.98-1.22.78,2.37,1.65-1.5-1.68,3.55c-.62-.78-.96-1.39-1.33-2.17Z"/>
      <path d="M41.26,1.28l.67-1.28-2.72,1.07c-.46.18-1.4.38-1.82.48l-1.04-.06c-.25-.01-.52.99-.26,1.05,4.9,1.04,1.96,6.93,1.15,9.76,1.72-.33,3.62-.32,4.73.83,1.07,1.1,1.22,2.63,1.38,4.37l1.25-1.14.8.33c.12.05.33-.41.41-.5.4-.09.88-.07.89-.3l.09-1.49,1.07,1.24.22-1.49,1.02.65c.12.08.34-.29.34-.44v-.89s1.27.98,1.27.98c.08-.38.08-.81.24-.82l.61-.04-.21-1.41,2.2,1.29.07-.92,1.68,1.27-.06-1.19c-.01-.2.59-.03,1.23-.09l-2.51-3.14,1.96.32-2.86-2.29,1.44-.57-3.2-1.68,1.11-.74-3.7-.65,1.85-1.21c-2.22-.52-3.55-.55-5.47-.52l1.51-1.48-5.34.73Z"/>
      <path d="M28.14,20.04c-2.69.56-4.1,2.73-3.82,4.98.31,2.53,2.26,4.02,4.87,3.97,1.97-.04,3.94-1.01,4.45-3.15.35-1.48-.36-3.24-1.4-4.36-.93-1-2.68-1.73-4.11-1.44ZM29.84,23.75l-.53-1.56,1.08.85c.84.66-.95,1.03-.11,3.19l.24.6c.04.11-.28.22-.34.11l-.29-.53c-.16-.3-.99-1.2-1.21-.93-.25.31-.54.78-1.04,1.54l-.09-2.86-.35-1.29c-.08-.28.93-.52,1.06-.52-.2.76-.18,2.13.54,2.49.38.04,1.14-.75,1.02-1.1Z"/>
      <path d="M43.69,46.11l-.48-4.66c-3.33,1.39-6.84,2.19-10.51,2.63l.05,5.29c3.78-.56,7.72-1.51,10.93-3.26ZM41.26,44.18c.32.2.62,1.17.49,1.55-.2.59-.91-.5-.98-.38l-.52.92-.49-2.37c.42-.15,1.07,0,1.5.27ZM36.08,44.29c1.61.31.25,1.31,1.06,2.93.07.01-.61-.11-.8-.15-.21-.04-.37.11-1.05.43l-.03-1.13c-.24-.56-.44-.98-.41-1.33.03-.35.87-.82,1.22-.76Z"/>
      <path d="M14.27,46.11c3.72,1.71,7.06,2.59,10.94,3.17l.07-5.17c-3.79-.5-7.05-1.15-10.51-2.66l-.49,4.67ZM21.34,44.5c.09-.38,1.48.28,1.44.67l-.23,2.27-1.21-.3c-.15-.04-.25-1.56,0-2.64ZM16.7,43.52c.28-.32,1.76.52,1.77,1.01,0,.5-.38,1.39-.63,1.73l-.4-.95c-.04-.1-.06,0-.15.08l-.74.71c-.08-.81-.05-1.77.14-2.59Z"/>
      <path d="M37.24,4.47c-.41-.76-1.78-1.39-2.73-1.2-8.07,1.55-11.99-1.25-13.69.92-.51.65-.49,2.06-.07,2.81,2.66,4.71,4.93,1.86,5.75,6.71l.17.97c.04.21.9.32.95.11.43-1.84-.34-4.63-3.04-5.65-2.77-1.05-3.44-4.1-2.44-4.7,1.24-.75,5.48,1.18,12.35-.2.5-.1,1.55.27,1.67.69.78,2.85-3.21,4.26-4.55,5.31-1.29,1.01-2.08,3.65-.9,5.24l1.2-4.27c2.54-.96,6.79-4.04,5.34-6.75Z"/>
      <path d="M34.25,26.49c-.59.94-1,1.53-1.11,2.53l-1.24.12,10.56,8.52.68-3.8-4.13-3.86c-1.51-1.41-3.03-2.49-4.76-3.5Z"/>
      <path d="M44.35,50.43c-8.89,5.91-22.52,5.76-30.85-.28l-.41.73c-.08.15.32.61.52.74,9.2,6.07,21.3,6.17,30.62.15.43-.4.56-1.21.12-1.34Z"/>
      <path d="M20.51,28.5c-3.63,2.33-3.75,4.88-5.71,5.31l.57,3.86c1.55-1.14,2.68-2.1,4.17-3.41l2.52-2.22c.74-.65,1.29-1.18,1.87-2.14l2.14-.72-2.51-2.64-3.05,1.96Z"/>
      <path d="M40.79,13.21c-1.45-.8-3.39-.8-4.54.63-1.44,1.77-.79,4.44,1.1,5.55h3.37c.48-.45,1.45-1.38,1.68-1.93.71-1.69-.24-3.49-1.6-4.25Z"/>
      <path d="M52.96,15.4l-.94-1.06-1,2.9-.96-1.67-.62,1.11c-.1.18-.72.04-.8.23l-.35.91c-.06.15-.43-.3-.7-.46-.34-.2-.95.8-.8,1.16l.62,1.51-2.96-1.64c1.77,4.96,8.94,1.69,12.12-.27l-2.5-3.19c-.19.03-.93.67-1.11.46ZM47.66,19.72l4.38-.99c-1.39.95-3.02,1.34-4.38.99Z"/>
      <path d="M32.24,30.9l-6.03,6.25,2.8,2.62,6-6.3c-.75-1.13-1.88-2.24-2.77-2.56Z"/>
      <path d="M16.95,13.57c-1.17.86-2.1,2.92-.83,4.08l1.54,1.42c1.47,1.35,3.65.31,4.43-.9,1-1.57.84-3.34-.43-4.48-1.39-1.26-3.09-1.31-4.71-.12ZM17.98,18.68l-.38-2.39c-.43-.4-.53-.65-.36-.82l.88-.87.58,1.67-.72,2.41ZM21.06,15.75c.13.3-1.04.78-1.19.5-.15-.28-.18-.85-.21-1.7.13-.33,1.17.69,1.4,1.2Z"/>
      <path d="M31.87,49.48c.06-2.21.04-3.5-.14-5.44-1.92-.41-3.7-.7-5.46-.02-.39,1.72-.3,3.64-.06,5.47,2.09.23,3.46.23,5.65-.01ZM28.03,44.48l1.58.84c.21.06.85.06.79.26l-.28.89c-.07.21-.7-.17-1.18-.56l-.63,2.85c-.32-1.63-.34-2.74-.27-4.28Z"/>
      <polygon points="6.52 25.72 8.59 21.75 2.73 20.1 .9 24.68 6.52 25.72"/>
      <polygon points="41.38 39.66 35.87 33.87 33.13 36.63 37.84 41.01 41.38 39.66"/>
      <path d="M51.5,25.55c2.13-.12,3.56-.34,5.5-.82-.65-1.8-1.26-3.24-1.97-4.61l-5.48,1.81,1.94,3.62Z"/>
      <path d="M32.5,11.56c-.48,1.19-1.3,3.8.26,4.14l-1.44,3.48c1.34-.75,2.67-1.61,3.14-2.38.92-3.5.97-2.65,2.11-6l.94-2.76c-1.46,1.43-2.98,2.52-5.01,3.52Z"/>
      <path d="M20.68,40.74l4.59-4.28-2.34-2.57-5.45,5.2c-.24.23-.6.62-.39.7.26.11.75.39.87.22l.53-.77c-.35.47,1.64,2.01,2.19,1.5Z"/>
      <path d="M25.66,15.08c.49-.72.45-2.92-.28-3.4l-4.73-3.12c1.46,4.62,1.67,3.92,3.02,8.03.4,1.21,1.79,2.13,3.06,2.81l-1.49-3.33c-.07-.16-.38-.61-.47-.74-.09-.13.8-.11.89-.24Z"/>
      <polygon points="36.47 26.41 39.34 29.2 42.27 25.64 40.88 21.91 36.47 26.41"/>
      <path d="M25.56,41.74l5.3.08-1.53-.78-3.99-3.77-2.19,2.48c.38.53,1.61,1.97,2.41,1.98Z"/>
      <polygon points="22.91 32.79 26.07 36.06 28.77 33.81 25.81 30.42 22.91 32.79"/>
      <path d="M37.18,52.73c-2.32-3.37-3.36-2.71-7.19-1.72.64.76,1.85,2.47,2.77,2.5,1.79.05,3.06-.36,4.42-.78Z"/>
      <polygon points="16.26 26.51 18.51 29.2 21.59 25.9 18.77 23.37 16.26 26.51"/>
      <path d="M35.18,39.62l-2.88-2.43-2.3,2.93c.81.72,1.65,1.57,2.42,1.67,1.48.2,2.51-1.22,2.77-2.17Z"/>
      <path d="M57.66,25.27c-1.46-.27-3.63,1.09-6.51.81l-1.85-3.31c-.27-.49-.89-.85-1.56-.51.84,1.65,1.71,3.25,2.78,4.72,3.36,1.41,8.92-1.39,7.15-1.71Z"/>
      <path d="M7.5,27.03l2.91-4.95c-.59-.16-1.54.35-1.86.92l-1.75,3.15c-1.89-.12-3.7-.44-5.66-.91-3.21-.77.79,3.03,6.36,1.79Z"/>
      <path d="M14.86,32.62l3.35-2.99-2.2-2.35c-1.72,1.5-2.69,3.05-1.15,5.34Z"/>
      <path d="M42.06,27.18l-2.27,2.55,3.39,3.04c.38-1.09.75-2.15.84-2.74l-1.96-2.84Z"/>
      <path d="M34.32,23.83l1.33,1.76-1.31-.46.96,1.26,3.55-3.32-1.83-1.85c-1.07.88-1.94,1.71-2.68,2.6Z"/>
      <path d="M31.65,19.92l2.32,2.66,2.61-2.29-1.82-2.09c-1.07.32-2.43,1.13-3.11,1.72Z"/>
      <path d="M23.05,17.92l-1.73,2.32c-.28.38.98,1.18,1.37,1.13l1.14.91,2.31-2.34-3.1-2.03Z"/>
      <path d="M28.44,50.93c-2.34-.53-3.39-.69-5.56-.68l2.94,3.58,2.62-2.9Z"/>
      <path d="M20.45,21.43l-1.44,1.13,3.11,2.95c.56-.63,1.27-1.54,1.05-1.95-.48-.88-2.2-2.54-2.72-2.14Z"/>
      <path d="M13.3,27.24c1.79-2.21,2.55-4,3.38-6.44-.19-.49-.66-1.22-.82-1.12l-2.52,5.74c-.27.54-.31,1.25-.03,1.83Z"/>
      <path d="M43.14,40.3c-4.82,1.23-9.2,2.65-13.98,2.45,2.19,1.48,12.01-.51,13.98-2.45Z"/>
      <path d="M14.57,40.21c4.21,2.41,9.13,3.44,13.81,2.62-4.75-.12-8.98-1.41-13.81-2.62Z"/>
      <path d="M44.3,24.98l-2.52-5.54c-.95,3.15,1.11,5.64,2.78,7.81.24-.89.04-1.61-.26-2.27Z"/>
      <polygon points="29.17 33.09 31.8 30.06 26.54 30.05 29.17 33.09"/>
      <polygon points="40.46 48.79 35.96 49.97 38.75 52.89 40.46 48.79"/>
      <path d="M22.45,49.94l-4.78-1.07c.84,1.68,1.3,2.43,2.21,3.75l2.58-2.68Z"/>
      <path d="M31.52,53.74l-2.45-2.25-2.21,2.29c1.71.17,2.86.17,4.66-.03Z"/>
      <path d="M27.48,17.31l.94-.54c.24-.14.78-.7.94-.48l.68.92c.21.29,1.14.53,1.15.19l.07-1.52-4.69.13c-.05.69.52,1.54.91,1.31Z"/>
      <path d="M15.36,50.19c.45-.23.97-.9,1.55-1.64l-2.54-1.03c-.18.58-.35,1.42-.3,1.81.05.39.95,1.04,1.3.86Z"/>
      <path d="M43.96,49.17l-.38-1.62-2.45,1.13,1.68,1.81c.65-.6,1.23-.98,1.15-1.32Z"/>
      <path d="M46.01,26.93l2.11-1.67-.62-1.44c-.61.23-1.33.63-1.62,1.05-.27.39-.08,1.49.13,2.06Z"/>
      <polygon points="22.54 50.99 20.88 52.84 24.66 53.51 22.54 50.99"/>
      <path d="M9.98,25.43l2.09,1.31c.19-.48.29-1.59.08-1.98-.21-.4-1.14-.85-1.58-.75-.36.08-.83,1.23-.59,1.42Z"/>
      <polygon points="15.63 25.93 18.39 23.16 17.14 21.97 15.63 25.93"/>
      <polygon points="17.17 49.46 16.04 50.88 18.6 52.04 17.17 49.46"/>
      <polygon points="40.54 20.8 37.55 20.79 39.13 22.57 40.54 20.8"/>
      <rect x="15.26" y="37.61" width="3.45" height=".82" transform="translate(-20.93 20.81) rotate(-41.51)"/>
      <rect x="18.74" y="34.73" width="3.12" height=".77" transform="translate(-18.84 24.49) rotate(-44.78)"/>
      <polygon points="40.8 49.72 40.03 51.84 42.23 50.79 40.8 49.72"/>
      <rect x="13.15" y="27.07" width="2.68" height=".69" transform="translate(-16.37 24.33) rotate(-56.43)"/>
      <rect x="43.16" y="26.24" width=".75" height="2.67" transform="translate(-7.85 31.46) rotate(-36.67)"/>
    </g>
  </g>
</svg>