<?xml version="1.0" encoding="UTF-8"?>
<svg id="Warstwa_2" data-name="Warstwa 2" xmlns="http://www.w3.org/2000/svg" viewBox="0 0 51.89 57.23">
  <g id="icon-v9-equipment-pixarts-store">
    <g id="icon-v9-equipment-pixarts-store_153">
      <path d="M12.5,55.38c-3.78-3.88-2.3-10.71,1.18-14.35-1.28,3.05-2.82,5.5-2.66,8.76.18,3.52,2.37,6.45,5.87,7.15,8.42,1.66,18.86-4.17,23.68-11.05-.29-.18-1.32-.28-1.61.1-1.61,2.1-4.13,4.59-6.73,5.78,1.59-1.5,3.14-3.02,4.69-4.84-1.44-.33-1.77-.92-1.91-2.22l-1.73.8c.88-1.56,2.08-2.87,2.51-4.76-3.99,5.62-9.48,9.61-16.41,10.3-1.6.16-3.16-.28-4.73-.39l2.22,1.19c3.61,3.32,2.76,3.37,7.9,2.95-3,1.35-6.81,1.49-9.59-.65-2.38-1.84-2.57-5.04-1.55-7.81,1.74-4.73,5.46-8.21,9.78-10.65-1.29-.14-2.33-.41-3.26-.94l-3.12,2.5c1.19-1.68,2.15-2.71,3.43-4.22l-4.29-.44,1.6-2.56c-.56-1.36-1.93-2.27-3.41-2.17l-3.87.26,2.48-3.32c.22-.3.36-1.36.07-1.59-.24-.2-.73-.5-1.03-.66l-4.06,3.35h1.96c-1.34,1.96-2.44,4.02-3.49,6.31-3.98,8.63-2.46,18.32,6.09,23.21ZM14.1,29.38c.45,1.73,1.2,3.69,1.01,5.24-2.95,5.4-2.35,5.71-7.92,6.75-.37-1.85-1.11-3.68-.81-5.48.24-1.45,1.31-3.52,2.3-4.68,1.17-1.37,3.7-1.43,5.42-1.83Z"/>
      <path d="M33.72,8.36c-.05.8-.09,1.45-.09,1.4-1.92-.75-3.24-.97-4.98-1.56l-4.24-1.45.8,3.23c.37,1.49,2.72,1.33,3.57.81,1.18.53,2.33,1.16,2.97,2.41l-2.57-1.52c-.34-.2-1.39.62-1.74.46l-5.32-2.4,2.07,3.64-2.88,1.44c1.03.47,2.66,1.52,3.67,1.14l3.22-1.21c3.07.29,4.26,3.35,6.49,2.55.5-.18,1.27-1.26,1.05-1.79-.31-.74-1.06-1.52-1.62-2.25,2.02.44,2.37,2.63,2.11,4.31,1.28.41,2.52.96,3.25,1.65l-2.77-.23c-.86-.07-1.63-.11-2.41.3l-1.74.92,1.1-1.2c-2.52.07-4.45,2.44-7.08-1.64l-.79.44c.47-.26-4.96-1.59-6.09-3.31l2.65-1.32c-.1-.86-.77-2.56-1.63-2.91-1.54.1-2.91,1.47-3.4,2.45-.53,1.06-.68,3.61.14,4.29l3.93,3.25-2.14,2.72c7.27-1.24,4.45,1.19,7.2,1.75,2.44.49,4.83-3.08,8.73-.93,1.22.68,2.56.46,4.05.1.79-.19,2.15.54,3.03.64,4.85.6,3.14-.88,8.45,2.27,1.03-3.34,1.87-3.99.39-7.17-1.49,2.22.22-2.76-2.24-3.29-.22.76-.58,1.71-1.09,1.79-1.45.22-2.36-1.58-3.25-1.97l-5.3-2.28,1.8-.15c.23-1.25-.39-2.56-1.45-3.39l-2.54-1.99.43,1.94c-1.21-.75-2.5-1.44-3.73-1.97ZM27.49,20.62l3.51.04c-1.09.88-2.37.92-3.51-.04ZM46.52,22.05l-2.67-.74c-.45-.13-1.19-1.25-.78-1.39,1.45-.5,3.05.7,3.45,2.13ZM41.42,18.27c.81-.77,2.34-.56,3.18.09-.88.09-1.79.16-2.42.29-.58.12-.64,1.49-.86,2.33-1.11-.58-.68-1.97.1-2.71Z"/>
      <path d="M13.56,21.29c1.64,1.29,1.51,3.37-.02,5.07,2.38-.02,4.53.27,5.69,2.49,1.02-.85,1.67-1.84,1.44-3.14h.88c.25.01.41.93.33,1.18-.58,1.67-1.8,3.02-3.14,4.55l4.71-.26-.51-2.17c.94.54,2.3,1.9,1.69,3.34-.24.56-1.12,1.44-1.55,1.99,1.39-.02,3.08-.43,4.17-.2l4.22.89c1.58.33,2.69,1.68,2.46,3.24,3.09-.26,6.29,1.95,6.86,5.47l3.15-3.01,1.19,2.8c1.23-3.6,3.79-4.8,3.18-6.86-1.66,2.03-3.41,2.16-5.63,2.07-.6-.02-1.51.02-1.96-.19-.45-.21-.87-1.49-1.28-1.75-.52-.33-1.91-.39-2.48-.69-.54-.28-.82-1.69-1.29-2.07-3.11-2.49-4.89-2.24-6.02-5.19-.29-.75-1.16-2.12-1.84-2.38-3.42.14-3.81-3.66-6.69-1.76-.38.25-1.18.38-1.98.45l1.01-.99-2.72-.62,1.14-1.79-2.61-.7,4.23-.18-1.58-2.51c-3.4.73-6.23.69-9.53.26,1.52.83,3.16,1.62,4.49,2.67Z"/>
      <path d="M4.7,12.44c3.54,3.2,6.7.56,11.78,3.83-.81-2.82-.04-5.2,2.63-6.37-1.43-1.42-3.08-1.57-4.25-.76-1.57,1.09-1.71,2.53-1.65,4.54-1.49-1.89-.31-3.87,1.45-5.3-1.47-.35-3.05-.14-4.09.85-.89.84-.78,2.42-.92,3.78-1-1.04-.42-2.51-.08-3.89-.81.04-2.1.09-2.5.49-.4.4-.73,1.44-1.08,2.33-.43-.86-.11-1.99.63-3.03-2.66-.68-4.42-2.71-6.6-4.83.34,3.43,2.3,6.17,4.7,8.34Z"/>
      <path d="M36.18,29.79l3.22-.39c-1.2,1.56,1.57,3.36,1.18,3.67l-.67.54c-.38-1.73-1.15-3.57-3.58-3.6.09,3.01,4.02,5.26,4.44,4.62l.62-.94c.26-.39.6-.97.94-1.04.69-.13,1.69,1.59,1.68,1.65l-.13,1.05,1.96-.88c.94-.42,1.53-1.65.83-2.45l-1.61,2.2c-.07.1-.92-.12-.82-.2l.51-.41c.53-.43,1.23-1.64,1.06-2.23-.15-.53-.96-1.65-1.26-1.64l-1.66.87-.67-2.55-3.12,1.08,2.69-2c-1.63.14-5.35.43-5.6,2.62Z"/>
      <path d="M23.66,7.74c-.89-1.53-1.22-2.59.11-3.94-1.57-.32-2.48.5-3.34,1.8.03-.58.37-1.4.72-1.96-1.93-.76-3.5-2.04-5.15-3.64.58,4.09,3.63,7.2,7.65,7.74Z"/>
      <path d="M26.2,5.96c.03.53,1.54,1.22,1.91.94.94-.69,1.82-1.19,3.07-1.86-.47-.54-1.96-1.47-2.79-1.32-.88.16-2.23,1.31-2.19,2.24Z"/>
      <path d="M29.14,7.25l3.05.95c.24-.32.51-.78.75-.76l1.33.13c-.49-.65-1.59-1.79-2.41-1.8-.99-.02-2.39.8-2.74,1.48Z"/>
      <path d="M46.12,13.19l-.53,3.33c.64.5,1.47.84,2.67.94-.39-2.12-1.05-3.11-2.14-4.27Z"/>
      <path d="M25.47,5.96c.69-1.43,1.15-1.91,1.94-2.57-1.78-.61-3.45.35-4.09,2.36l2.15.21Z"/>
      <path d="M41.13,37.72c.24.24,1.39.19,1.47-.16.23-1,.21-2.87-.02-3.86l-1.67,2.51c-.23.34-.07,1.22.21,1.51Z"/>
      <polygon points="31.53 24.48 29.1 25.82 30.83 29.26 31.53 24.48"/>
      <path d="M43.61,29.36c.76-1.33,1.12-2.38,1.39-3.77l-2.32.04.93,3.72Z"/>
      <path d="M31.22,18.13c.02-1.32-1.81-2.04-2.45-1.18-.3.4.34,1.42.83,1.7.38.22,1.61-.02,1.62-.52Z"/>
      <path d="M34.18,30.37c-.62-.23-2.08.26-2.14.63l2.98,1.3c.02-.46-.28-1.72-.84-1.93Z"/>
      <path d="M14.92,17.69c-.8-1.21-2.28-1.72-3.39-.69,1.1.68,2.18.97,3.39.69Z"/>
      <path d="M48.29,32.75l-1.11,2.5c-.1.22.19.74.31.93.41.67,1.5-2,.8-3.42Z"/>
      <path d="M46.89,31.75c.05-1.42-.71-2.6-1.91-2.98.4,1.22.99,2.14,1.91,2.98Z"/>
      <path d="M39.92,25.5c0-.41-.33-.73-.73-.73s-.73.33-.73.73.33.73.73.73.73-.33.73-.73Z"/>
      <path d="M11.35,32.3c-1.64-.68-2.54.49-3.03,1.46-.76,1.5-1.08,2.58-.03,4.25,2.57.17,4.47-5.13,3.06-5.71Z"/>
      <path d="M12.22,34.87c-.64.73-1.33,2.03-1.7,2.95-.15.36.62,1.16.93,1.21l2.44-3.95c-.32-.21-1.4-.51-1.66-.2Z"/>
      <path d="M12.68,34.3c.08.21,1.41-.25,1.35-.49l-.75-3.19c-1.68.9-.97,2.77-.6,3.68Z"/>
      <path d="M8.11,40.08l2.54-.59c-.33-.62-.67-1.27-1-1.17l-1.35.39c-.19.05-.52.29-.67.42-.15.12.28,1,.47.95Z"/>
      <path d="M12.43,30.44l-3.27,1.21c1.54.66,2.74-.03,3.27-1.21Z"/>
    </g>
  </g>
</svg>