<?xml version="1.0" encoding="UTF-8"?>
<svg id="Warstwa_2" data-name="Warstwa 2" xmlns="http://www.w3.org/2000/svg" viewBox="0 0 50.21 56.12">
  <defs>
    <style>
      .cls-1 {
        fill: #fff;
      }
    </style>
  </defs>
  <g id="icon-v9-equipment-pixarts-store">
    <g id="icon-v9-equipment-pixarts-store_229">
      <path class="cls-1" d="M17.69,35.14c-1.32-2.48-3.39-3.61-6.11-3.84l-5.21-.45c.66,3.12,2.46,6.01,5.51,7.11,1.46.53,3.41.1,4.83.24.58.35,1.38.74,2.16.9,2.78.59,4.46,3.72,3.67,6.2-.32-.89-.58-2.01-.99-2.5-.35-.41-1.47-.59-2.11-.8l-1.91-2.28c-1.03,2.24.11,4.2,1.18,6.06l1.5,2.61.41-.3c.08-.06.14,0,.14.09l-.04.62c-.1,1.7-.62,4.92,1.74,5.24.46.06,1.47-.42,1.6-.91.08-.32-.64-.91-.85-1.17l-.76-.91c-1.4-1.67,4.79-1,4.96-.98.4.03.43,1.3.14,1.57l-1.14,1.09c-.34.32.59,1.25,1.05,1.25.46,0,1.56-.36,1.76-.81.65-1.43.47-2.95.41-4.78-.18-.53,0-.46.52-.03l1.75-3.17c.94-1.7,1.78-3.66.76-5.65-3.1,5.31-3.6.23-4.92,5.66-.6-2.39.66-5.53,3.45-6.04.96-.18,1.65-.64,2.52-1.01.94-.4,2.93.25,4.07-.06,3.4-.93,5.47-4.02,6.04-7.27l-5.26.48c-2.52.23-4.68,1.34-5.96,3.74-1.38-3.19-1.97.55-4.84-3.87l-5.13.03c-3.25,4.33-3.32.7-4.91,3.91ZM8.82,32.91c3.24.21,5.74,1.68,7.73,4.38-3.16-.05-5.78-1.77-7.73-4.38ZM41.22,32.96c-1.82,2.81-4.63,4.19-7.69,4.41,2.04-2.57,4.5-4.25,7.69-4.41Z"/>
      <path class="cls-1" d="M18.04,32.5c.91.8,3.27-.67,3.18-1.93-3.04-3.1-3.23-7.41-.88-11.22-3.29.75-3.91,4.53-4.26,7.26-1.95-.85-4.45-1.93-5.46-4.02-1.87-3.86-.15-7.77,2.86-10.85-3.41.26-4.86,3.4-5.9,6.36-2.05-6.24.44-8.16,3.05-12.91-3.99,1.65-5.49,5.36-6.32,9.48-1.96-2.12-2.59-5.31-1.71-8.05l1.64-5.15C.43,4.45-1,9.59.72,13.89c1.14,2.87,3.06,5.25,4.86,7.65l2.46,3.29c-3.27.34-5.68-1.13-6.82-3.89-.23-.55-.69-1.17-1.16-1.6-.24,2.15.34,4.21,1.7,5.81,4.11,4.85,10.37-.03,16.28,7.34Z"/>
      <path class="cls-1" d="M45.7,1.29c1.74,4.53,3.84,9.23.17,13.52-.88-4.16-2.35-8.07-6.19-9.54.27.74.67,1.52,1.11,2.09,2.48,3.24,3.18,7.22,1.87,11-.9-3.12-2.34-5.78-5.58-6.61l.34,1.02c2.7,2.48,3.8,6.73,2.02,10.04-1.06,1.96-3.28,2.9-5.34,3.85-.41-2.95-.86-6.17-4.19-7.34,2.35,3.87,2.2,8.25-.98,11.21.17,1.33,2.07,2.45,3.25,2.05,5.4-7.12,11.51-2.97,15.74-6.93,1.69-1.59,2.49-3.94,2.11-6.28-.36.31-.86.95-1.02,1.38-1.06,2.94-3.61,4.62-6.81,3.96l3.74-5.05c1.4-1.89,2.89-3.93,3.71-6.2,1.58-4.4-.31-9.47-3.95-12.19Z"/>
      <path class="cls-1" d="M29.38,13.57c1.46-.87,4.7-3.13,3.27-4.69-1.31,1.43-2.6,2.74-4.19,3.68l-1.91.29c.24,1.08,1.7,1.4,2.83.72Z"/>
      <path class="cls-1" d="M23.73,12.83c-2.76-.11-4.53-1.89-6.21-3.98-.51.5-.4,1.77.19,2.31,1.29,1.19,4.56,4.37,6.01,1.66Z"/>
      <path class="cls-1" d="M19.86,9.76c.2-.09.26-.85.13-1.04l-3.05-4.37c-.13-.18-.8-.28-.99-.18-.2.09-.24.81-.1,1.01l3,4.38c.14.2.82.29,1.01.2Z"/>
      <path class="cls-1" d="M35.97,6.01l1.63-3.74c.25-.58-.16-1.87-.64-2.26-.83,2.41-1.66,4.26-2.92,6.52.21.26,1.71-.03,1.92-.51Z"/>
      <path class="cls-1" d="M33.51,4.07l-1.1.64,1.69-4.43c-1.68-1.53-2.67,3.64-2.79,4.8l1.44-.28-2.49,3.86c-.13.21-.04,1.05.18,1.12.22.06.88-.16,1.01-.36l2.85-4.45c.16-.26-.54-1.04-.79-.89Z"/>
      <path class="cls-1" d="M15.94,6.62L13.12.13c-1.97.01,1,7.65,2.82,6.49Z"/>
      <path class="cls-1" d="M22.71,12.05l5.23.02.05-1.01c0-.18-.62-.4-.8-.4l-4.45.05c-.23,0-.67.55-.77.74-.08.14.54.6.73.6Z"/>
      <path class="cls-1" d="M24.41,9.72c-1.47-1.31-2.78-2.25-4.49-2.95-1.51.99,4.13,4.77,4.49,2.95Z"/>
      <path class="cls-1" d="M17,.09l-1.07.2,2.15,5.1c1.6-.28-.53-5.39-1.08-5.29Z"/>
      <path class="cls-1" d="M25.77,10.24c2.11.03,3.79-1.35,4.93-3.11-2.06-.1-3.95,1.37-4.93,3.11Z"/>
      <path class="cls-1" d="M27.46,55.01c-1.6-.57-3.15-.5-4.71,0,1.31,1.45,3.31,1.52,4.71,0Z"/>
    </g>
  </g>
</svg>