<?xml version="1.0" encoding="UTF-8"?>
<svg id="Warstwa_2" data-name="Warstwa 2" xmlns="http://www.w3.org/2000/svg" viewBox="0 0 50.06 54.2">
  <defs>
    <style>
      .cls-1 {
        fill: #fff;
      }
    </style>
  </defs>
  <g id="icon-v9-equipment-pixarts-store">
    <g id="icon-v9-equipment-pixarts-store_282">
      <path class="cls-1" d="M28.59,12.23l-.13.84c-.03.21-.32.82-.48.69l-.58-.49c-.12-.1-.48-.26-.62-.32-.14-.06-.35.55-.21.61l.79.36c.28.12,1.19.79,1.26.54l.36-1.27.21-.74c.04-.16-.58-.37-.61-.21Z"/>
      <circle class="cls-1" cx="47.81" cy="17.79" r="1.41"/>
      <circle class="cls-1" cx="14.58" cy="38.36" r="1.32"/>
      <path class="cls-1" d="M19.44,43.75c.71,0,1.28-.57,1.28-1.28s-.57-1.28-1.28-1.28-1.28.57-1.28,1.28.57,1.28,1.28,1.28Z"/>
      <path class="cls-1" d="M23.03,48.56c.7,0,1.27-.57,1.27-1.27s-.57-1.27-1.27-1.27-1.27.57-1.27,1.27.57,1.27,1.27,1.27Z"/>
      <circle class="cls-1" cx="44.05" cy="12.05" r="1.42"/>
      <path class="cls-1" d="M8.4,36.57c.42.23,1.57.28,1.91-.04.34-.32.3-1.26.09-1.68-.22-.44-1.37-.6-1.95-.27-.5.29-.54,1.73-.06,1.99Z"/>
      <path class="cls-1" d="M2.96,34.91c.14.39,1.3.8,1.72.59.74-.37.97-1.36.55-1.7-.35-.28-1.16-.5-1.51-.29-.35.21-.9,1.01-.76,1.4Z"/>
      <path class="cls-1" d="M25.27,1.13c-.71,0-1.29.58-1.29,1.29s.58,1.29,1.29,1.29,1.29-.58,1.29-1.29-.58-1.29-1.29-1.29Z"/>
      <path class="cls-1" d="M37.7,5.71c-.47.31-.88,1.31-.64,1.75.3.57,1.31,1.17,1.87,1.06.52-.1,1.25-1.25.96-1.9-.37-.83-1.69-1.23-2.19-.91ZM38.48,7.82c-.46,0-.82-.37-.82-.82s.37-.82.82-.82.82.37.82.82-.37.82-.82.82Z"/>
      <circle class="cls-1" cx="31.78" cy="3.56" r="1.41"/>
      <path class="cls-1" d="M5.06,31.41c3.91.37,7.04,1.61,10.27,3.5l.94-1.47-3.58-1.99c.38-2.64,1.84-4.6,3.91-6.37l4.51,1.82,1.23-1c.24-.19-.1-.9-.42-1.27l.95-.46c.1-.05-1.01-3.47.05-2.96l1.8.86,1.54-2.04-2.32-.26c.21-1.54,1.57-1.33,2.5-1.06l-.63-1.18c-.12-.23.45-.85.76-1.02.17-.1.75.51.61.64l-.65.58,1.38-.24c.36-.06.05-1.45-.29-1.63l-3.11-1.64c.39-1.89,2.77-5.21,3.89-5.7,1.61-.71,3.05,2.18,4.76.4l.4,1.62c.11.42,1.19-.4,1.22-.79.05-.83-7.64-5.23-13.14-3.5-1.6.5-2.28,2.95-3.09,4.04-.94,1.25-1.8,2.33-2.55,3.54l-9.24,14.83c-.04.37.01.75-.18.84l-.78.38,2.71.3c-1.62.49-2.82-.03-3.44,1.22Z"/>
      <path class="cls-1" d="M27.05,32.09c3.32-1.19,5.18,4.25,6.34,6.96l5.41-6.49c.56-.68,1.17-2.27.61-3.01l-3.88-5.2c-.31-.41-.29-1.63-.27-2.26-1.55-1.92-3.7-3.89-6.05-5.17-.43.33-.8,1.32-.69,1.72.09.32.53.66,1.24,1.04l-.33-1.36.9.39c.21.09.22.84.01.94-.47.21-1.3.32-1.37.68l-.3,1.43c-.05.26-.92.59-1.02.33l-.62-1.64-1.71,2.08,2.28,1.45-2.29.87c.06.38.12,1.74-.22,2.16-.18.21-1.09-.12-1.21-.37l-.62-1.31-1.2,2.37,4.98,4.4Z"/>
      <path class="cls-1" d="M48.75,13.81c-3.49-6.11-9.17-10.8-15.9-12.96-2.93-.94-6.02-1.34-8.78.05-1.53.77-2.43,2.73-3.08,4.21,10.31-2.18,23.2,7.5,26.19,17.64l2.87-3.2c-.04-2.05-.26-3.92-1.3-5.74ZM25.27,3.72c-.71,0-1.29-.58-1.29-1.29s.58-1.29,1.29-1.29,1.29.58,1.29,1.29-.58,1.29-1.29,1.29ZM31.78,4.96c-.78,0-1.41-.63-1.41-1.41s.63-1.41,1.41-1.41,1.41.63,1.41,1.41-.63,1.41-1.41,1.41ZM38.93,8.52c-.56.11-1.56-.49-1.87-1.06-.24-.44.17-1.44.64-1.75.49-.33,1.82.08,2.19.91.29.65-.44,1.8-.96,1.9ZM44.05,13.47c-.79,0-1.42-.64-1.42-1.42s.64-1.42,1.42-1.42,1.42.64,1.42,1.42-.64,1.42-1.42,1.42ZM47.81,19.2c-.78,0-1.41-.63-1.41-1.41s.63-1.41,1.41-1.41,1.41.63,1.41,1.41-.63,1.41-1.41,1.41Z"/>
      <path class="cls-1" d="M1.03,36.46c8.33-.86,19.69,7.91,21.72,15.75l2.32-2.69c.02-1.57-.25-3.24-1.13-4.73-3.28-5.59-8.63-9.86-14.91-11.68-1.74-.5-3.95-.95-5.54-.16-1.21.6-1.99,2.42-2.48,3.51ZM23.03,46.01c.7,0,1.27.57,1.27,1.27s-.57,1.27-1.27,1.27-1.27-.57-1.27-1.27.57-1.27,1.27-1.27ZM19.44,41.18c.71,0,1.28.57,1.28,1.28s-.57,1.28-1.28,1.28-1.28-.57-1.28-1.28.57-1.28,1.28-1.28ZM14.58,37.04c.73,0,1.32.59,1.32,1.32s-.59,1.32-1.32,1.32-1.32-.59-1.32-1.32.59-1.32,1.32-1.32ZM8.45,34.58c.57-.33,1.72-.16,1.95.27.21.42.25,1.35-.09,1.68-.34.32-1.5.27-1.91.04-.48-.26-.45-1.7.06-1.99ZM3.72,33.51c.35-.21,1.16.01,1.51.29.42.33.19,1.33-.55,1.7-.42.21-1.58-.2-1.72-.59-.14-.39.41-1.18.76-1.4Z"/>
      <path class="cls-1" d="M25.55,13.66c3.07,1.41,5.16,3.13,7.77,4.83l3.15,2.05,2.94-3.37c-2.79-3.68-6.1-6.42-10.41-8.03-1.5,1.36-2.74,2.83-3.45,4.51ZM29.19,12.44l-.21.74-.36,1.27c-.07.26-.98-.41-1.26-.54l-.79-.36c-.14-.06.07-.68.21-.61.14.06.5.22.62.32l.58.49c.16.14.45-.48.48-.69l.13-.84c.02-.16.65.06.61.21Z"/>
      <path class="cls-1" d="M13.51,30.76c3.61,1.72,6.36,3.47,9.21,6.3l3.63-4.31c-2.26-2.54-6.64-6.07-9.79-6.74-1.24,1.52-2.23,3.07-3.04,4.74Z"/>
      <path class="cls-1" d="M.29,38.05c-1.4,2.21,2.59,7.92,4.96,9.38,1.54-2.78-4.59-2.73-3.53-8.56,6.02-2.97,20.75,9.61,18.19,13.54-1.47,2.26-7.96-1.63-9.28-.98,2.08,1.89,9.08,3.9,10.67,2.03,1.58-1.85-1.21-5.68-2.64-7.31-2.62-2.99-5.57-5.41-9.12-7.25-2.24-1.16-7.87-3.03-9.25-.85Z"/>
      <path class="cls-1" d="M31.33,39.43c-.33-1.69-1.86-3.34-3.17-4.25-1.3.19,1.13,2.71-.1,3.17-1.24.46-2.18-.92-2.49-.24-.09.19,0,.9.16,1.11l2.93,3.99c1.07-.79,2.94-2.36,2.67-3.77Z"/>
      <path class="cls-1" d="M43.92,24.86c.15-2.15-1.12-4.33-2.83-5.03.39,1.13.55,2.97-.35,3.24-.47.14-1.5-.46-1.91-.64-.32-.14-.31,1.08-.11,1.35l2.78,3.88c.84-.61,2.35-1.83,2.42-2.8Z"/>
      <path class="cls-1" d="M35.9,9.87c-.5.54-1.07,1.37-1.11,1.66,2.09,1.56,3.58,2.95,5.26,4.72l2.32.48,2.79,4.4c-1.46-4.9-5.24-8.27-9.27-11.27Z"/>
      <path class="cls-1" d="M28.6,34.2c1.18,1.06,2.13,2.26,3.45,3.75-.63-1.71-1.56-3.2-2.84-4.69-1.53-1.79-5.4,3.6-6.12,4.93.47,2.25,2.08,4.14,4.15,5.37l-2.87-4.8c2.21-3.77.15-2.44,4.23-4.55Z"/>
      <path class="cls-1" d="M42.11,19.34c1.28.89,1.82,2.9,2.99,4.04-.72-2.15-1.69-4.36-3.49-5.86-1.2-.32-2.38,1.26-3.13,2.2-.68.85-2.41,2.06-2.25,3.15.29,2,1.63,3.65,3.44,4.46-.61-1.25-1.42-2.56-2.15-3.77-.33-.54.85-1.71,1.05-2.29.43-1.27,2.02-2.98,3.55-1.93Z"/>
      <path class="cls-1" d="M26.15,47.47c1.09-1.5.06-2.96-1.04-4.06-5.36-5.39.2-4.75-8.32-9.53l-.74,1.32c-.14.25.85.85,1.04.65l.97-1.03-.24,1.74c3.58,2.89,6.81,6.45,8.31,10.91Z"/>
      <path class="cls-1" d="M31.69,48.13c1.83-1.53,1.77-3.65,1.17-5.4l-3.03,3.26c-.34.37-.23,1.4.08,1.89.25.39,1.35.6,1.77.25Z"/>
      <path class="cls-1" d="M43.7,33.16c2.15-1.53,2.58-3.79,1.88-5.8l-3.25,3.34c-.43.82.24,2.25,1.37,2.47Z"/>
      <path class="cls-1" d="M32.57,39.8l-2.55,3.41c-.47.63-1.68.93-2.7,1.1l.35,1.07c.56,1.7,6.77-4.37,4.9-5.59Z"/>
      <path class="cls-1" d="M45.28,24.31c-1.01,1.45-2.71,5.05-5.2,3.96l.73,1.5c.69,1.42,6.22-4.5,4.46-5.46Z"/>
      <path class="cls-1" d="M23.06,21.63c.33,1.75.85,3.33,1.74,4.98-.04-1.84-.29-3.53-1.74-4.98Z"/>
      <path class="cls-1" d="M27.1,18.5l.96,2.75c.93-1.22.25-2.52-.96-2.75Z"/>
      <circle class="cls-1" cx="38.48" cy="7" r=".82"/>
    </g>
  </g>
</svg>