<?xml version="1.0" encoding="UTF-8"?>
<svg id="Warstwa_2" data-name="Warstwa 2" xmlns="http://www.w3.org/2000/svg" viewBox="0 0 58.1 60.14">
  <defs>
    <style>
      .cls-1 {
        fill: #fff;
      }
    </style>
  </defs>
  <g id="icon-v9-equipment-pixarts-store">
    <g id="icon-v9-equipment-pixarts-store_65">
      <path class="cls-1" d="M45.56,27.06l6.52-5.72c2.12-1.86,3.07-4.93,4.47-7.45l.21-4.61c-3.84,1.51-5.47,5.48-8.52,7.8l-5.26,4c.32-1.96,1.82-3.24,3.04-4.71l4.06-4.88c.82-.98,2.21-2.74,2.56-3.91L54.89.12c-2.52,1.52-4.45,2.63-6.79,3.59-2.46,1.01-3.73,3.35-5.39,5.23-1.94,2.2-4.01,3.97-6.29,5.94.72-3.2,1.91-5.6,3.16-8.09l.43,1.05c.06.15.6-.42.69-.59l3.73-7.25c-7.55,1.63-3.75.83-9.18,3.71-.85.45-1.75,1.4-2.26,2.24-1.98,3.26-6.85,10.5-9.91,11.94l.24-2.94c.21-2.61,4.18-2.89,1.24-10.28-.66.34-1.48.82-1.82,1.28l-2.64,3.48c-.81,1.06-2.41,1.7-3.69,2.12-.11,1.52-.33,3.82-.66,5.17-2.77.67-2.02,4.86-1.81,6.39l2.33-3.59.72.56c.45.35,3.37-1.92,1.2-5.81-.41-.74-.61-1.55-.51-2.26l.91,1.35,3.85-1.85-.88,1.37c-5.08.49,1.74,5.71-4.78,8.39l-1.69,2.88c-1.88,3.2-.79,7.3,0,10.83.31,1.37.79,2.44.33,3.84l-1.71-3.27c.06-1.96.03-3.48-1.13-4.83-1.39,3.17-4.28,2.17-5.16,3.24-.5.61.72,5.07.19,7.4l1.72-.02-3.99,7.31c.05.65.18,1.7-.22,2.3-2,3.04-3.61,5.85-4.93,9.23l7.56-5.02,5.77-4.38-1.07,3.42,5.78-4.52c.32-.25,1.26-.6,1.45-.25l.74,1.33,1.3-1.15c.73-.65,1.47,1.54,3.8-.54.49,1.01.75,2.97-.72,3.48l.16-2.48c-2.94,1.06-3.08,5.18-3.68,8.47l3.14-3.4c1.22-1.33,3.15-2.87,3.74-4.56l2.16-6.17c-1.21.28-2.73.76-3.76.78l-4.76.11.33-1.44-3.28.49c1.45-1.23,2.63-1.67,4.44-2.37l.1,1.99c2.95-.12,5.95-.47,9.11-1.17l.69,2.12,1.6-3.36,1.93,8.47c.96-2.49.33-7.44,1.76-9.48l1.13,4.93c1.65-6.17.84-6.95,6.19-11.9l.64,3.04,1.43-3.19,1.21,6.44,1.97-6.89c.7-2.44,2.21-3.76,4.19-5.23l2.88-7.67c-5.57,1.14-4.51,5.45-12.54,7.02ZM50.11,17.8c.66-.45.99-1.63,1.78-2.71l-.47,3.06,1.22-.6c-.28,1.37-.57,2.43-1.87,3.99l-.13-2.88c-1.72.48-3.16,1.58-5.05,2.62,1.08-1.7,2.8-2.3,4.51-3.47ZM45.83,8.41c.23-1.22.54-2.26,1.31-3.17l-.73,5.15,4.01-1.5-.97,2.12c-1.1-.5-1.96-.26-3.01.15l-3.15,2.76c1.25-1.73,2.3-3.33,2.54-5.51ZM45.4,25.03l-2.42,4.9-7.95,2.69c1.9-2.99,3.81-5.35,5.92-7.68l4.45.08ZM34.77,4.72c1.35.81,2.57.7,3.95-.13l-1.3,4.55-.42-2.26c-.19-.11-.77-.32-1.03-.32-1.21-.02-1.14,2.79-2.08,2.98l.88-4.83ZM34.86,19.58l4.87-1.18c-2.22,3.1-4.76,1.22-5.61,2.92l-4.01,8.1c2.84-1.36,5.36-3.15,7.78-4.81,1.17-.8,1.2-4.4,2.55-5.98l-.49,3.46c-.21,1.5-.84,2.79-2.04,3.62-3.32,2.3-6.34,4.5-10.04,6.25l4.74-9.71c.53-1.1.97-2.36,2.24-2.67ZM35.24,25.29l-2.37,1.48,1.17-2.43,1.2.95ZM27.06,19.62c.19-1.54.18-3.17.27-4.64l.71.87c.45.55,3.57-3.44,4.94-4.12.33,2.3.57,4.75.13,6.9l-6.79,7.09.74-6.1ZM17.03,26.96c2.42-1.96,3.48.64,4.41-1.63.91-2.21-2.97-2.09-.44-4.62l2.38-2.37c.08,1.19-1.43,2.35-2.18,3.22.72,1.39,1.1,2.65,1.38,4.04.39,1.92,1.39,3.72.87,5.77l-2-4.67c-1.02.34-1.04,1.34-.99,2.26l-1.4-1.88c-1.68.44-2.28,2-2.78,3.49l-.51-2.6,1.26-1.02ZM11.87,35.76c.12-.13.46.5.43.67l-.26,1.33c-.06.29.63.45,1.45.89-.14.22-1.07.37-1.37.1s-.54-1.27-.57-1.68l-.05-.7c-.01-.17.24-.45.37-.6ZM16.21,48.3c-2.68-.51-5.07,1.56-6.98,3.14l-1.39,1.15c.96-2.18,1.69-4.39,2.26-6.7l-.94-.32,1.29-3.66c1.13,2.65.78,4.67-.31,7.33l5.24-2.7c.32-.16,1.17-.31,1.48-.27.37.05.21,1.08.26,1.49l.11.85c.03.22-.72-.24-1.02-.3ZM25.28,40.85l-1.46-1.44-.46,1.95c-.86-.72-.79-1.45-.72-2.34l.05-.73c0-.12-.3-.19-.45-.22-.18-.04-.26.43-.36.73l-.64,1.91-.78-.88c-.14-.16-.55-.09-1.36-.16.44-.56,1.16-1.21,2.14-2.06.17.02-.63-.46-.85-.33l-.95.57-1.85-1.24c.58-.43,1.58-.62,2.34-.5l.95.16c.19.03-.3-.75-.45-.88l-1.9-1.7,1.12.1c.26.02.45-.28,1.11-.91l.97,2.08c.11.22.3.85.47.76l.7-.35c.42-.21-.65-1.8-.34-2.18l.9-1.08.7,1.31c.12.23.72-.06,1.18-.13l-1.4,2.63,2.28-.45.48,1.73-2.93-.23c-.99.82,2.33,1.73,1.53,3.87ZM43.8,34.5c-2.19,3.08-4.23.52-8.54,2.87-1.18-.34-2.02-.47-3.81-.27.87,1.29,1.29,1.64,2.4,2.69-5.7-.77-.53-3.26-6-5.08,1-.81,1.89-.28,2.93.6,1.31,1.1,4.57,1.7,6.14.55,1.88-1.38,4.03-3.04,5.84-4.24l2.71.51-1.68,2.36ZM50.2,30.19l.55-1.89-3.24.3c3.1-1.79,2.59.09,4.81-2.36,0,.17-.39,1.03-.15,1.11l1.2.4-3.18,2.43Z"/>
      <path class="cls-1" d="M22.55,51.34c.07-.2-.14-1.05-.32-.94-.13.08-.59.36-.71.49l-2.15,2.37c-.05-1.38-.06-1.96-.28-3.19-3.81,2.2-5.38,5.36-6.68,9.28l5.05-3.74c1.65-1.22,4.25-1.96,5.08-4.27Z"/>
      <path class="cls-1" d="M5.93,45.79c.85-.48,1.45-2.3,1.96-3.38l-1.98.61,1.09-4.5c-2.75,3.45-4.87,6.31-7,10.25,2.29-.96,3.85-1.8,5.93-2.98Z"/>
      <path class="cls-1" d="M6.61,34.53l-5.05,5.89c1.75-.04,3.85-.53,4.51-1.94.54-1.15.59-2.61.54-3.95Z"/>
      <path class="cls-1" d="M27.58,23.1l4.51-4.94c.48-1.27.58-3.39.47-5.09-4.73,4.07-4.98,3.88-4.97,10.03Z"/>
      <path class="cls-1" d="M39.43,35.14c2.18.84,3.92-.23,4.68-2.36-.31-.43-1.82-.36-2.27.06l-2.41,2.3Z"/>
      <path class="cls-1" d="M42.72,29.18l1.37-3.32c-3.8-.32-4.28,1.54-6.42,4.67,1.68-.23,3.66-.31,5.05-1.35Z"/>
    </g>
  </g>
</svg>