<?xml version="1.0" encoding="UTF-8"?>
<svg id="Warstwa_2" data-name="Warstwa 2" xmlns="http://www.w3.org/2000/svg" viewBox="0 0 48.55 52.23">
  <defs>
    <style>
      .cls-1 {
        fill: #fff;
      }
    </style>
  </defs>
  <g id="icon-v9-equipment-pixarts-store">
    <g id="icon-v9-equipment-pixarts-store_274">
      <path class="cls-1" d="M16.12,18.3l.88-.92c.16-.16-.2-.9-.24-.88l-.6.84c-.1.14-.35-.04-.47-.17-.11-.13-.13-.85.04-.91l2.28-.9c-.88-.68-2.68.07-3.04.95-.22.55.83,2.03,1.15,2Z"/>
      <path class="cls-1" d="M27.59,12.38c-1.37.12-3.4.37-4.44,1.44-5.61,5.74-6.38,7.4-3.75,14.39l7.98-.34c5.88-7.36,7.03-6.34,4.18-15.82l-3.98.34ZM23.87,14.24l.71,1.67c1.13-.41,2.69-.54,4.46-.49,1.46,4.72,0,3.9-2.92,8.32l-4.24.43-.59-4.14-2.3.57c1.65-2.57,2.82-4.03,4.88-6.36ZM18.82,21.73c-.06-.63,1.89-1.23,2.12-.89l.43,3.51c.08.66-1,1.9-1.54,2.51-.43-1.52-.85-3.35-1.01-5.12ZM20.48,27.4l1.25-2.45c1.3-.52,2.85-.61,4.29-.5l.62,2.71-6.15.24ZM27.32,26.61c-.41-.65-.97-2.26-.52-2.85l3.41-4.46,1.99,1c-1.61,2.39-2.96,4.12-4.88,6.31ZM29.73,17.23c-.31-1.38.02-2.52.61-3.67-1,.95-2.24,1.63-3.67,1.62l-1.65-.02c-.31,0-.44-.74-.57-1.37l3.18-.74c.81-.19,2.97-.23,3.37.53.93,1.76,1.14,3.79,1.38,5.85-1.33.12-2.31-.67-2.66-2.2Z"/>
      <path class="cls-1" d="M35.7,28.75c-.22.85-.4,1.53-.36,1.93s.92,1.03,1.41,1.17l-1.05-3.1Z"/>
      <path class="cls-1" d="M11.9,48.69c.33.17,1.38.09,1.76-.02-5.04-2.73-9.5-6.71-11.74-12.19-.26-.65-.09-2.09.25-2.58,2.91-4.12,19.53,6.35,20.15,14.28.12,1.54-1.18,2.58-2.4,2.43-1.46-.18-2.89-.56-4.4-.91,1.71,2.29,5.27,3.35,7.91,1.79.63-.53.81-2.57.54-3.36l-1.23-3.67c1.48,2.22,2.08,4.09,1.89,6.44,3.37-2.38.63-7.86-1.46-10.54-2.96-3.78-6.72-6.78-10.99-9.01-2.58-1.35-9.91-3.72-11.2-.06l3.07-.16c-1.29.53-2.93.42-3.63,1.43-.78,1.12-.3,2.89.21,4.18,2.05,5.24,6.28,9.38,11.28,11.95Z"/>
      <path class="cls-1" d="M48.18,16.81C45.13,8.47,35.31.51,26.23,0c-2.31-.13-4.62,1.17-5.07,3.55,1.63-.65,3.28-1.08,5.06-.64,7.37,1.8,13.91,6.35,18.07,12.63,1.46,2.2,2.15,4.42,2.2,6.94,2.34-1.38,2.32-3.57,1.68-5.68Z"/>
      <path class="cls-1" d="M11.11,23.22c.24-.21.56-.81.56-1.13,0-.26-.75-.59-1.05-.55-1.91.23-3.91,2.82-2.61,4.8.65.99,2.85,1.21,3.98.72,1.04-.45,1.82-1.25,2.78-2.37l.96,5.15,3.89,2.61c2.28-.66,4.59-.73,7.06-.37-2.45,1.56-1.8,5.43-.18,7.24.73.81,2.3.96,3.2.55.91-.42,1.53-1.4,1.91-2.48.38-1.1-.45-2.56-1.25-2.49-.19.02-.79.55-.82.73-.03.19.24.41.43.41h.73c.08.67-.4,1.8-1.09,2.15-.63.32-1.99-.06-2.45-.77-1-1.53-.61-3.21.35-4.28,1.72-1.92,5.64-1.16,6.77.4.48.66.36,1.85.39,2.98,1.58-.63.44-2.84,3.18-5.6-1.73-2.41-2.94-4.92-3.35-7.93l-4.53,5.71,2.42.12c.03-1.3.6-2.81,1.64-3.19.33-.12,1.04.82.88,1.13l-.52.99-.35-1.66c-.53.65-.86,1.08-1.08,1.44-.2.33.18,1.48.56,1.4.32-.07,1.07-.5,1.06-.28l-.02.59c-.03,1.08-4.71-1.12-5.73.44l3.45.49c1.61.23,3.57,1.28,3.61,3.36-1.03-1.78-2.94-2.86-5.18-2.89l-12.91-.15c-1.29-3.21-2-6.11-2.61-9.57-.67-3.82-3.22-4.04-2.73-3.09l.35.67c.76,1.46,1.38,3.11.95,4.73-.47,1.79-2.15,3-4.01,2.33-.52-.18-.97-1.35-.8-1.95.16-.57,1.11-1.06,1.69-.75l-1.12,1.18c-.23.24.85,1.17,1.18,1.11.65-.12,1.83-.73,2.1-1.31.78-1.67.67-3.51-.9-5.26l-1.45,1.94c1.13.55,1.7.92,1.81,1.74.08.58-.68,1.7-1.24,1.81-.13.03-.62-.25-.52-.34l.6-.52ZM35.34,30.67c-.04-.39.13-1.08.36-1.93l1.05,3.1c-.48-.14-1.37-.78-1.41-1.17Z"/>
      <path class="cls-1" d="M14.59,14.6c7.88-1.91,10.22-5.22,18.54-4.43,1.19,2.87,2.43,6.09,2.25,9.35-.2,3.63.07,7.16,2.21,10.22.22.31,1.03.95,1.35.76.32-.19.95-.85,1.09-1.08l-1.96-.64c-1.26-2.51-2.12-5.97-.91-8.55.69-1.45,2.35-1.89,3.53-1.29,1.15.57,1.48,2.42.68,3.43-.24.3-1.18.65-1.34.36l-.66-1.17c-.34.4-.61,1.56-.48,2.15.1.47,1.22,1.06,1.72.85,1.28-.52,2.23-1.98,2.39-3.02.22-1.41-.22-2.93-1.21-3.75-1.61-1.34-3.63-.79-5.16.57-.21-2.67-.56-5.14-1.62-7.65-.55-1.3-2.85-2.26-4.25-2.03l-5.99,1c.52-1.19.71-3.11-.5-3.58-2.47-.96-5.27,1.23-5.35,3.75.6.57,2.04.47,2.8.14.62-.26,1.6-1.47,1.13-2.18-.28-.29-1.53.18-1.79.38l1.27.57c-.64.36-.96.55-1.24.53-.23-.02-.71-.53-.6-.74l.55-1.02c.29-.53,1.76-.69,2.25-.36.49.33.48,1.82,0,2.34-3.54,3.78-8.18,2.86-8.66,5.09Z"/>
      <path class="cls-1" d="M16.51,20.96c.23,3.19.85,5.71,1.92,8.67l9.31-.24c2.86-2.71,5-5.4,6.87-8.71-.1-3.48-.81-6.48-2.06-9.83-9.77.36-11.39,1.68-16.03,10.11ZM27.38,27.87l-7.98.34c-2.63-6.99-1.86-8.65,3.75-14.39,1.04-1.06,3.07-1.32,4.44-1.44l3.98-.34c2.84,9.48,1.7,8.46-4.18,15.82Z"/>
      <path class="cls-1" d="M43.93,16.64c-4.01-6.31-10.3-10.98-17.54-12.77-1.97-.49-4.12-.41-5.46,1.33,8.85-1.95,23.84,9.06,23.73,18.31,2.17-.71.28-5.3-.72-6.87Z"/>
      <path class="cls-1" d="M4.63,28.26c2.96.62,5.7.97,8.31,2.39,6.53,3.55,12.21,8.73,14.1,15.61,1.12-2.38-.38-3.77-.93-5.56-3.97-5.95-9.63-10.48-16.52-12.67-1.6-.51-3.47-.79-4.97.22Z"/>
      <path class="cls-1" d="M40.41,25.24c-1.29.21-2.26-1.06-2.28-1.88-.03-1.12.46-2.12,1.33-2.61l1.22,1.45c.76-.98.43-2.18-.4-2.7-.61-.38-2.07,0-2.47.89-1.22,2.74-.62,6.08,1.42,8.4,2.33-1.57,4.5-3.77,4.6-6.66-.97,1.16-1.73,2.84-3.42,3.11Z"/>
      <path class="cls-1" d="M33.91,34.31c-.27-.62-2.8-2.76-5.31-1.11-1.14.75-1.52,2.7-.95,3.77.19.37,1.27.79,1.59.61.27-.15.51-.57.55-.78-1.55-.18-.92-1.73-.19-2.34.57-.48,1.84-.25,2.27.51.88,1.56.53,3.26-.73,4.7-.84.96-2.29,1.36-3.97,1.26l1.13,3.18c1.49-1.97,6.57-7.61,5.61-9.79Z"/>
      <path class="cls-1" d="M15.82,20.07l4.21-6.11c-2.51.3-4.54.64-6.39,2.36l2.18,3.75ZM18.01,15.35l-2.28.9c-.17.07-.15.78-.04.91.11.13.36.32.47.17l.6-.84s.4.72.24.88l-.88.92c-.33.03-1.38-1.45-1.15-2,.36-.88,2.16-1.63,3.04-.95Z"/>
      <path class="cls-1" d="M41.12,16.26c-1.58-1.92-3.24-3.62-5.09-5.07l1.26,5.47,3.83-.4Z"/>
      <path class="cls-1" d="M20.61,32.91l3.65,4,.71-4.23c-1.42-.15-3.06-.17-4.36.23Z"/>
      <path class="cls-1" d="M38.53,31.27c-1.39,1.3-2.03,2.79-2.26,4.44,1.94-.68,2.95-2.52,2.26-4.44Z"/>
      <polygon class="cls-1" points="30.85 7.9 25.73 6.01 25.96 8.74 27.28 6.95 27.11 8.51 30.85 7.9"/>
      <polygon class="cls-1" points="11.86 28.06 15.25 29.48 14.26 26.28 11.86 28.06"/>
      <polygon class="cls-1" points="16.25 12.47 19.88 11.34 18.08 9.91 16.25 12.47"/>
      <path class="cls-1" d="M11.52,17.74l2.49-3.34c-1.82.02-3.01,1.46-2.49,3.34Z"/>
      <path class="cls-1" d="M21.88,24.18l4.24-.43c2.91-4.42,4.38-3.6,2.92-8.32-1.78-.05-3.33.08-4.46.49l-.71-1.67c-2.06,2.33-3.22,3.79-4.88,6.36l2.3-.57.59,4.14Z"/>
      <path class="cls-1" d="M27.64,13.05l-3.18.74c.13.64.26,1.37.57,1.37l1.65.02c1.42.02,2.66-.67,3.67-1.62-.59,1.15-.92,2.29-.61,3.67.34,1.53,1.33,2.32,2.66,2.2-.24-2.06-.45-4.09-1.38-5.85-.4-.76-2.56-.71-3.37-.53Z"/>
      <path class="cls-1" d="M26.8,23.76c-.45.59.11,2.2.52,2.85,1.93-2.19,3.27-3.92,4.88-6.31l-1.99-1-3.41,4.46Z"/>
      <path class="cls-1" d="M21.73,24.96l-1.25,2.45,6.15-.24-.62-2.71c-1.44-.11-2.99-.02-4.29.5Z"/>
      <path class="cls-1" d="M21.37,24.34l-.43-3.51c-.24-.34-2.18.26-2.12.89.16,1.77.58,3.6,1.01,5.12.54-.61,1.62-1.84,1.54-2.51Z"/>
    </g>
  </g>
</svg>