<?xml version="1.0" encoding="UTF-8"?>
<svg id="Warstwa_2" data-name="Warstwa 2" xmlns="http://www.w3.org/2000/svg" viewBox="0 0 38.61 57.37">
  <defs>
    <style>
      .cls-1 {
        fill: #fff;
      }
    </style>
  </defs>
  <g id="icon-v9-equipment-pixarts-store">
    <g id="icon-v9-equipment-pixarts-store_344">
      <path class="cls-1" d="M27.63,33.9c-1.03.94-1.22,2.23-.03,3.27l.03-3.27Z"/>
      <rect class="cls-1" x="27.58" y="42.25" width="1.09" height="2.67" transform="translate(-1.02 .68) rotate(-1.35)"/>
      <path class="cls-1" d="M29.39,40.52c.66-.74.62-2.44-.04-3.15-.85.81-.98,2.54.04,3.15Z"/>
      <rect class="cls-1" x="9.95" y="42.26" width="1.15" height="2.85"/>
      <path class="cls-1" d="M33.16,36.4c-.3.73-.29,2.09-.03,2.93,1.31-.98,1.16-2.47.03-2.93Z"/>
      <path class="cls-1" d="M11.11,33.96c-.65,1.08-.7,2.48.17,3.33.66-1.22.66-2.5-.17-3.33Z"/>
      <rect class="cls-1" x="30.94" y="40.51" width="1.1" height="2.78" transform="translate(-.33 .25) rotate(-.45)"/>
      <rect class="cls-1" x="7.81" y="38.45" width="2.86" height="1.07" transform="translate(-29.78 48.07) rotate(-89.78)"/>
      <path class="cls-1" d="M6.96,40.4c-.56,1.13-.54,2.41.22,3.2.77-1.21.77-2.43-.22-3.2Z"/>
      <rect class="cls-1" x="3.89" y="37.27" width="2.73" height="1.05" transform="translate(-32.66 42.16) rotate(-88.65)"/>
      <path class="cls-1" d="M7.18,32.87c-.76.99-.73,2.38.18,3.23.61-1.07.6-2.32-.18-3.23Z"/>
      <rect class="cls-1" x="29.91" y="34.03" width="2.83" height="1.13" transform="translate(-3.76 65.38) rotate(-89.1)"/>
      <path class="cls-1" d="M3.92,29.09l9.82,2.99.92,14.5c.07,1.17-.95,1.77-2.29,1.95,1.23,2.31,2.73,4.37,5.15,6.23l-1.44-24.8c-4.2-.74-7.47-1.52-11.2-2.78l.23-3.18c16.13,2.88,12.03,2.96,28.34.09.3.78.39,2.37-.1,3.45-3.69.99-7.16,1.77-10.81,2.52l-1.44,24.71c2.38-1.83,3.93-3.89,5.16-6.21-.93-.25-1.62-.34-1.92-.68-.24-.28-.47-1.31-.44-1.72l1.05-14.04,9.81-2.96c.45.45.97,1.13,1.61,1.94,1.45-1.94.42-9.38.06-12.52-2.72,1.52.65,4.8-.84,3.87l-.3-.18c-.1-.06-.38-.81-.5-.79l-4.89,1.07c-.7.15-1.39,1.12-1.69,1.71.62-2.58-2.48-.39-5.8-.94-.28-2.38-.33-4.78-.12-6.95.06-.59,1.41-.99,2.24-1.15-1.18-2.59-2.47-1.33-5.22-5.32l-2,2.44c-1.4.79-2.56,1.59-3.24,2.88.6.1,2.26.47,2.31,1.05.15,1.76.9,7.44-1.31,7.19-3.67-.42-7.71-1.16-11.21-2.12l-1.45-2.83c-.77,2.63-1.49,10.66-.23,12.55l1.74-1.99Z"/>
      <path class="cls-1" d="M15.54,22.65l-.02-6.3h-2.5c-.25-2.32,1.72-3.29,3.38-4.45l2.95-3.34c1.21,1.42,2,2.63,3.17,3.51,1.55,1.17,3.4,2.34,3.06,4.32-1.12.02-2.13.14-2.49.47l.06,5.69c2.09-.1,3.87-.31,5.53-.78l1.92-4.18-.65,4.01c1.07-.17,3.18-.47,4.22-1.14.81-.53,1.47-2.84,1.25-3.84l-2.33-10.23c-9.42,2.46-18.41,2.31-27.63.01l-2.29,10.58c-.19.88.89,2.71,1.18,3.59,3.84,1,7.08,1.6,11.18,2.09Z"/>
      <path class="cls-1" d="M34.82,30.23l-9.08,2.77-.98,13.18c-.03.45.41,1.45.77,1.35l1.78-.5c-.25,1.83-1.26,3.44-2.18,5.54,5.17-1.81,9.35-4.78,12.06-9.04l-.92-10.1c-.08-.87-1.49-2.16-1.46-3.21ZM27.63,33.9l-.03,3.27c-1.18-1.05-.99-2.33.03-3.27ZM27.61,44.93l-.06-2.67,1.09-.03.06,2.67-1.09.03ZM29.39,40.52c-1.02-.61-.89-2.34-.04-3.15.66.72.69,2.41.04,3.15ZM30.78,33.18l1.13.02-.04,2.83-1.13-.02.04-2.83ZM30.96,43.29l-.02-2.78h1.1s.02,2.77.02,2.77h-1.1ZM33.13,39.33c-.26-.84-.27-2.2.03-2.93,1.13.45,1.28,1.95-.03,2.93Z"/>
      <path class="cls-1" d="M13.65,52.6c-1-2-2.25-3.64-2.21-5.42l1.85.29c.26.04.52-1.06.5-1.41l-.9-13.14-8.53-2.62c-1.46.26-.4,2.13-2.13,2.48l-.78,10.97c3.06,4.17,7.17,6.99,12.19,8.85ZM11.11,33.96c.83.83.84,2.11.17,3.33-.87-.85-.82-2.24-.17-3.33ZM9.95,42.26h1.15v2.85h-1.15v-2.85ZM8.71,37.55h1.07s-.01,2.86-.01,2.86h-1.07s.01-2.86.01-2.86ZM7.18,32.87c.78.91.8,2.16.18,3.23-.92-.85-.94-2.24-.18-3.23ZM6.96,40.4c.99.77.98,1.99.22,3.2-.75-.79-.78-2.07-.22-3.2ZM4.76,36.42l1.05.02-.06,2.73-1.05-.02.06-2.73Z"/>
      <path class="cls-1" d="M32.68,2.16c-4.41-2.88-22.2-2.89-26.63,0,8.74,2.24,17.9,2.3,26.63,0Z"/>
      <path class="cls-1" d="M6.81,5.61c8.68,2.01,17.66,1.99,26.22-.36.39-.68.27-2.06-.16-2.44-9.48,2.35-18.18,2.2-27.06.03-.34.16-.74,1.41-.52,1.85.18.37.98.79,1.53.92Z"/>
      <path class="cls-1" d="M3.84,50.39c4.16,3.33,8.86,5.83,14.21,6.91-1-2.08-2.83-2.75-4.57-3.62-5.15-2-9.6-5.13-12.89-9.61-2.16,1.41,2.19,5.46,3.25,6.31Z"/>
      <path class="cls-1" d="M29,51.93l-5.99,2.92c-1.01.49-1.91,1.36-2.3,2.52,3.92-1.12,7.96-2.31,11.12-5.05.81-.7.99-.85,1.81-1.23,1.68-.76,6.78-5.4,4.28-7.02-2.29,3.31-5.2,6.03-8.93,7.85Z"/>
    </g>
  </g>
</svg>