<?xml version="1.0" encoding="UTF-8"?>
<svg id="Warstwa_2" data-name="Warstwa 2" xmlns="http://www.w3.org/2000/svg" viewBox="0 0 38.63 56.02">
  <defs>
    <style>
      .cls-1 {
        fill: #fff;
      }
    </style>
  </defs>
  <g id="icon-v9-equipment-pixarts-store">
    <g id="icon-v9-equipment-pixarts-store_227">
      <path class="cls-1" d="M32.19,17.98c-5.33-3.27-20.89-3.28-25.64.03-.53.37-.27,2.08.08,2.59,6.68-2.96,19.13-2.91,25.41.06.3-.77.42-1.97.15-2.68Z"/>
      <path class="cls-1" d="M32.28,53.12c.17-.5-.09-1.84-.3-2.28-6.33,3.1-19.36,3.05-25.34-.03-.3.51-.58,2.02-.2,2.55.32.44,1.18.99,1.93,1.2,7.23,2.01,14.97,1.91,22.16-.16.7-.2,1.58-.78,1.75-1.28Z"/>
      <path class="cls-1" d="M25.6,48.98c.83-3.11-4.25-4.73-6.24-7.22-2.03,2.45-7.66,3.98-6.17,7.23,4.03.94,8.24.79,12.41-.01Z"/>
      <path class="cls-1" d="M7.87,50.28l.95.12c.09.01.98-7.52,1.39-9.42.28-1.3-.16-2.57-.78-3.62.33-.47.99-1.24.82-1.62-.16-.34-.55-.98-.86-1.49.7-1.1,1.07-2.42.78-3.88-.55-2.81-.85-5.74-1.05-8.56-.02-.22-.37-.76-.57-.71l-.84.23c.82-.22-.37,8.4-.51,9.26-.23,1.39.2,2.61.83,3.68-.33.44-1.04,1.27-.86,1.64.15.32.56.97.84,1.43-2.03,2.72.39,7.68-.06,11.91-.1.44-.35,1.01-.08,1.05Z"/>
      <path class="cls-1" d="M30.74,37.44l.7-1.53c.17-.36-.49-1.23-.76-1.65,1.88-3.19-.46-7.55,0-12.03.18-.49.4-.97.15-1.03-.35-.08-.85-.25-.96-.07-.1.17-.31.67-.33.95-.27,2.76-.62,5.84-1.07,8.73-.19,1.24.31,2.45.85,3.42-.27.43-.97,1.31-.82,1.69.15.38.59,1.07.86,1.53-.65.89-1.11,2.07-.9,3.29.51,2.95.82,5.93,1.08,8.87.02.28.41.93.65.84l.74-.27c-.77.28.42-8.47.56-9.37.18-1.14-.25-2.43-.73-3.39Z"/>
      <path class="cls-1" d="M16.77,32.08c2.72,2.13,1.28,3.83,2.45,5.21.92,1.07-.2-2.84,2.7-5.27,1.37-1.16,2.5-2.49,3.13-4.4-6.4,2.45-7.42-2.22-11.68-.48.53,2.07,1.77,3.67,3.4,4.95Z"/>
      <path class="cls-1" d="M23.03,33.76c6.92-4.4,4.77-13.84,3.88-11.28-.48,1.38.69,7.2-4.81,10.73-.72.46-1.44,1.72-1.42,2.42.1,3.3,6.87,4.62,6.06,12.99-.04.38.84.44.93.23.09-.22.23-.8.24-1.25.22-8.14-5.72-9.32-5.89-11.66-.04-.56.48-1.85,1.01-2.19Z"/>
      <path class="cls-1" d="M17.94,35.46c-.13-.94-1.13-2.08-1.89-2.64-5.81-4.24-3.41-10.87-4.71-10.39-1.44.53-.89,8.01,4.24,11.41.56.37,1.1,1.54,1.06,2.09-.16,2.3-6.75,4.22-5.93,12.32.03.34.69.89.85.7.11-.14.35-.69.33-.94-.6-8.2,6.49-9.27,6.05-12.56Z"/>
      <path class="cls-1" d="M27.76,51.18l.86-.74c.13-.11-.65-.74-.9-.68-4.86,1.21-11.88,1.24-16.79.07-.35-.08-.87.55-.78.74.92,1.96,14.66,1.92,17.6.61Z"/>
      <path class="cls-1" d="M28.78,20.92c-.15-.12-.53-.5-.79-.55-5.47-1.22-11.74-1.36-17.28-.02-.38.09-.81.9-.58,1.08.18.14.67.32,1.05.23,5.23-1.18,11.61-.92,16.73,0,.34.06,1.02-.62.88-.74Z"/>
      <path class="cls-1" d="M17.08,8.8c.18,2.05.45,3.83.92,5.61.75.24,2.38.26,2.75-.27.51-1.73.81-3.71.78-5.32-1.49-.56-2.98-.48-4.45-.02Z"/>
      <path class="cls-1" d="M34.27,1.38c-.2-.1-.95-.06-1.13.13l-4.29,4.59c.49-.53-2,5.01,5.52-3.54.21-.24.15-1.05-.1-1.18Z"/>
      <path class="cls-1" d="M8.84,7.36c.2.19,1.12-.26,1.09-.49-.03-.17-.1-.72-.23-.86L5.55,1.66c-.24-.25-.85-.39-1.08-.25-1.36.83,3.3,4.91,4.38,5.95Z"/>
      <path class="cls-1" d="M6.96,6.54c-.49.72-.22,1.94.49,2.5l3.22,2.56c.75.59,2.31.41,2.67-.14l-3.72-2.57-2.65-2.35Z"/>
      <path class="cls-1" d="M27.6,11.75l3.92-3.11c.6-.47.56-1.9,0-2.15-2.03,1.99-3.77,3.51-6.24,4.87.23.54,1.67.92,2.32.4Z"/>
      <path class="cls-1" d="M8.9,4.44c1.94,1.86,3.87,3.52,6.06,4.4,1.52-1.27-6.17-6.3-6.06-4.4Z"/>
      <path class="cls-1" d="M23.95,8.91c2.13-1.43,3.85-2.69,5.78-4.34-.57-2.06-7.81,3.49-5.78,4.34Z"/>
      <path class="cls-1" d="M36.12,3.88l2.51-3.63c-.53-.16-1.5-.17-1.75.14l-3.05,3.81c.55.52,1.84.33,2.29-.32Z"/>
      <path class="cls-1" d="M4.85,4.17L2.22,1.02C1.86.23,1.03-.14,0,.29l2.58,3.73c.44.64,1.87.8,2.26.15Z"/>
      <path class="cls-1" d="M25.75,8.6l-2.54,1.11c-.94.41-1.36,1.43-.97,2.37l4.1-1.99c.43-.21-.19-1.66-.59-1.48Z"/>
      <path class="cls-1" d="M15.25,9.65l-2.12-.93c-.29-.13-.94.08-1.06.35-.12.27.22,1.08.53,1.22l3.67,1.63c.26-1.43-.23-1.92-1.02-2.27Z"/>
      <path class="cls-1" d="M31.31.61c-.23.51-.15,1.22.26,1.76.89-.95,1.37-1.55,1.84-2.29-1.26-.19-1.85-.06-2.1.52Z"/>
      <path class="cls-1" d="M5.36.3l1.67,2.1c.62-.51.64-1.84.13-2.15-.39-.23-1.3-.15-1.8.05Z"/>
    </g>
  </g>
</svg>