<?xml version="1.0" encoding="UTF-8"?>
<svg id="Warstwa_2" data-name="Warstwa 2" xmlns="http://www.w3.org/2000/svg" viewBox="0 0 56.2 58.07">
  <defs>
    <style>
      .cls-1 {
        fill: #fff;
      }
    </style>
  </defs>
  <g id="icon-v9-equipment-pixarts-store">
    <g id="icon-v9-equipment-pixarts-store_84">
      <path class="cls-1" d="M10,7.54c.41,3.62,1.06,7.16,1.63,10.81l1.77,11.3c.55,3.51,7.24,1.51,7.45.06l-1.65-.12c.43-.2,1.16-.43,1.25-.82.07-.33-.14-1.31-.1-1.65l2.47-22.96-9.42,1.45c-2.73.42-1.51,5.9-1.14,8.14l2.63,16.07,3.23.5c-.99.31-2.5.36-3.5-.07l-2.49-14.91c-.59-3.53-2.26-9.56,1.41-10.17l9.26-1.53-.02-1.16-10.22,1.75c-1.65.28-2.74,1.6-2.55,3.32ZM19.47,6.14c.85,0,1.54.69,1.54,1.54s-.69,1.54-1.54,1.54-1.54-.69-1.54-1.54.69-1.54,1.54-1.54ZM19.07,12.84c.85,0,1.55.69,1.55,1.55s-.69,1.55-1.55,1.55-1.55-.69-1.55-1.55.69-1.55,1.55-1.55ZM18.67,19.39c.81,0,1.46.66,1.46,1.46s-.66,1.46-1.46,1.46-1.46-.66-1.46-1.46.66-1.46,1.46-1.46ZM14.25,10.44c-.83,0-1.5-.67-1.5-1.5s.67-1.5,1.5-1.5,1.5.67,1.5,1.5-.67,1.5-1.5,1.5ZM16.95,26.98c-.09-.7.95-1.83,1.71-1.58.42.14,1.09,1.16.97,1.59-.13.48-.44.96-1.03,1.87-1.02-.67-1.56-1.15-1.65-1.89Z"/>
      <path class="cls-1" d="M28.05,2.26c-2.47.5.03,11.42.44,14.07l1.56,10.29c1.6,1.19,4.45.68,5.61-.52.2-6.35,1.11-12.53,1.83-18.72l.64-5.53c-3.13.46-5.96.85-8.73,1.52-2.58.62-.23,6.9-.66,8.6-.71-2.48-.88-5.46-.67-8.01.17-2.09,9.35-1.62,10.47-3.04-3.62-.42-7.24.67-10.48,1.33ZM33.84,4.64c.36-.59,1.55-1.42,2.04-1.03.52.42.81,1.33.73,1.75-.09.5-1.01,1.45-1.59,1.28-.78-.23-1.49-1.51-1.19-2.01ZM34.92,9.67c.83,0,1.5.67,1.5,1.5s-.67,1.5-1.5,1.5-1.5-.67-1.5-1.5.67-1.5,1.5-1.5ZM34.5,15.77c.8,0,1.45.65,1.45,1.45s-.65,1.45-1.45,1.45-1.45-.65-1.45-1.45.65-1.45,1.45-1.45ZM33.59,21.64c.45-.37,1.87.05,1.93.51.08.58-.14,1.68-.58,2.07-.34.31-1.45-.02-1.81-.49-.33-.43-.28-1.5.45-2.1ZM30.8,25.65l-1.19-8.23c-.18-1.23-.47-2.34-.26-3.65.57,2.81,1.83,8.95,1.44,11.88ZM30.64,4.86c.81,0,1.47.66,1.47,1.47s-.66,1.47-1.47,1.47-1.47-.66-1.47-1.47.66-1.47,1.47-1.47Z"/>
      <path class="cls-1" d="M1.25,49.34c2,1.41,4.14,2.02,6.46,2.79l.39-1.42c7.82,2.17,8.9,6.34,18.12,7.24,3.92.38,17.13.13,16.08-5.16-4.99,4.12-17.18,3.98-22.6,1.55l-11.97-5.35c-2.42-1.08-4.71-1.92-7.01-3.05-.09.7-.18,2.89.53,3.39Z"/>
      <path class="cls-1" d="M40.38,50.74c.36-.24.45-1.68.06-1.9-1.64-.94-3.91-2.13-5.64-2.93-4.4.76-7.9,3.22-10,7.37,5.09,1.2,11.67.02,15.57-2.54Z"/>
      <path class="cls-1" d="M29.12,27.73l-5.93-.5-.19,6.28,3.18,1.93c.69.42,1.35,2.01,2.03,3,1.47-2.76,2.81-5.1,5.18-7.26l-1.64-2.49c-.48-.38-1.92-.91-2.61-.96Z"/>
      <path class="cls-1" d="M14.04,32.24c-4.62-2.37-3.3,2.14-9.48-1.31-.34.57-.29,2.13.26,2.66l4.76,4.65,2.76,2.71,4.78-4.49-1.55-3.43-1.52-.78Z"/>
      <path class="cls-1" d="M26.7,38.62l-2.6-1.51c-.35-.6-.57-1.03-.81-1.34s-1.58-.22-1.95-.09c-5.8,2.08-9.78,7.18-10.98,13.2l3.6,1.72c1.78-6.23,6.29-10.97,12.75-11.98ZM21.31,36.41c.75,0,1.36.61,1.36,1.36s-.61,1.36-1.36,1.36-1.36-.61-1.36-1.36.61-1.36,1.36-1.36ZM17.08,39.41c.73,0,1.32.59,1.32,1.32s-.59,1.32-1.32,1.32-1.32-.59-1.32-1.32.59-1.32,1.32-1.32ZM12.52,44.8c0-.77.63-1.4,1.4-1.4s1.4.63,1.4,1.4-.63,1.4-1.4,1.4-1.4-.63-1.4-1.4Z"/>
      <path class="cls-1" d="M49.39,38.5c-3.1.42-4.71,3.15-5.44,5.94l4.88.87c2.84.5,5.49-2.69,5.57-3.51.14-1.59-3.77-3.46-5.01-3.3Z"/>
      <path class="cls-1" d="M34.99,45.08c-.77-1.94-2.19.45-3.89-2.2-4.87-1.14-11.29,5.32-11.78,10.35l3.99,1.16c1.57-5.39,6.21-9,11.68-9.3ZM28.89,43.11c.75,0,1.36.61,1.36,1.36s-.61,1.36-1.36,1.36-1.36-.61-1.36-1.36.61-1.36,1.36-1.36ZM24.99,45.83c.77,0,1.39.62,1.39,1.39s-.62,1.39-1.39,1.39-1.39-.62-1.39-1.39.62-1.39,1.39-1.39ZM23.05,52.02c-.59.3-1.26.37-1.65.14-.55-.33-.67-1.81.03-2.3.45-.32,1.61.01,1.9.39.32.42.18,1.53-.29,1.77Z"/>
      <path class="cls-1" d="M28.89,40.06c1.09,1.06,2.86,1.58,4.12,1.14,1.47-4.11,4.3-7.48,8.43-8.73-1.42-.79-2-1.13-3.05-2.14-3.89-.33-8.7,5.94-9.5,9.74ZM33.92,35.97c-.62,0-1.13-.51-1.13-1.13s.51-1.13,1.13-1.13,1.13.51,1.13,1.13-.51,1.13-1.13,1.13ZM37.89,33.23c-.47.18-1.7-.21-1.87-.72-.1-.29.1-.94.29-1.17.24-.28,1.41-.14,1.87.09.49.24.18,1.62-.29,1.8Z"/>
      <path class="cls-1" d="M9.57,47.32l1.31-3.45-1.27-4.27-6.35-6.42c-.26.71-.66,2.09-.85,3.13,2.96,2.84,5.16,5.92,5.86,9.92.09.49.91,1.27,1.3,1.09ZM6.98,41.24c-.14-.36-.03-1.38.26-1.64.3-.28,1.21.27,1.44.6.27.39-.14,1.59-.67,1.68-.3.05-.91-.35-1.03-.64Z"/>
      <path class="cls-1" d="M45.76,35.56c-4.32.84-6.85,4.62-7.41,8.96l3.92,1.13c1.64-4.86,2.84-6.9,7.32-8.51-1.75-.23-2.93-.23-3.83-1.58ZM42.02,41.65c-.67,0-1.22-.54-1.22-1.22s.54-1.22,1.22-1.22,1.22.54,1.22,1.22-.54,1.22-1.22,1.22ZM44.62,38.7c-.67,0-1.22-.55-1.22-1.22s.55-1.22,1.22-1.22,1.22.55,1.22,1.22-.55,1.22-1.22,1.22Z"/>
      <path class="cls-1" d="M.12,3.55c-.29.19-.01,1.34.32,1.45,2.1.71,2.69-.96,7.24,1.16,1.69.79,1.51-2.37,3.34-2.78l5.96-1.34C12.78,1.83,3.3,1.44.12,3.55Z"/>
      <path class="cls-1" d="M23.78,43.98l-2.48-1.87c-2.87,1.79-4.66,4.38-5.9,7.61l3.13,1.48c1.27-3.07,3.04-4.96,5.26-7.22Z"/>
      <path class="cls-1" d="M2.33,15.86c5.16-1,4.52.8,7.88.55l-.73-4.47c-2.97-.65-4.89,1.87-8.34-1.6l1.19,5.52Z"/>
      <path class="cls-1" d="M4.06,25.56c3.03-.89,7.87,1.96,7.75.54-.15-1.77-.29-2.72-.53-4.18l-3.67.39c-1.36.14-2.77-.24-4.28-.44l.73,3.69Z"/>
      <path class="cls-1" d="M37.71,45.77c3.67,2.89,18.24,5.75,18.49-.74-5.44,4.34-12.16,1.43-18.49.74Z"/>
      <path class="cls-1" d="M40.16,37.35l-2.27-1.59c-1.92,1.54-3.16,3.54-3.76,5.93l3.08,1.58,2.96-5.91Z"/>
      <path class="cls-1" d="M7.35,46.34c-.45-3.28-2.24-5.76-4.48-8.2-.65,1.85-1.35,4-.26,5.69.93,1.45,3.03,2.11,4.74,2.51Z"/>
      <polygon class="cls-1" points="28.48 22.83 27.94 18.61 23.67 18.55 23.26 22.52 28.48 22.83"/>
      <polygon class="cls-1" points="23.05 26.24 29.06 26.72 28.69 23.85 22.87 23.43 23.05 26.24"/>
      <path class="cls-1" d="M18.99,1.21c1.48.06,3.59-.19,4.69.52.4.26.69,1.46.9,1.83.17.31,1.22.21,1.38-.11,1.45-3.07,1.91-2.29,6.56-3.2-4.42-.42-9.05-.44-13.53.96Z"/>
      <path class="cls-1" d="M23.42,17.5l4.33.23c-.12-1.1-.32-2.41-.58-3.2l-3.38-.17-.37,3.13Z"/>
      <polygon class="cls-1" points="21.65 34.51 20.23 31.91 16.72 32.95 18.17 35.92 21.65 34.51"/>
      <path class="cls-1" d="M22.32,41.28c.81.95,1.74,1.63,2.62,1.94l3.55-1.43-1.95-1.9c-1.58.24-2.59.54-4.23,1.38Z"/>
      <path class="cls-1" d="M41.94,51.34c-6.98,3.37-6.63,2.83-14.28,3.82,1.15.68,15.31-.66,14.28-3.82Z"/>
      <path class="cls-1" d="M9.21,26.75l-3.85-.5c.12,2.07.22,3.17.49,4.81l3.8.39-.44-4.7ZM6.15,30.54l.03-3.07c0-.64,2.41-.55,2.47.1l.28,3.01-2.78-.05Z"/>
      <polygon class="cls-1" points="24.13 13.29 27.06 13.52 26.35 9.22 24.86 9.17 24.13 13.29"/>
      <path class="cls-1" d="M7.63,16.85l-3.82-.47.2,4.82,3.96.46-.34-4.81ZM7,20.8c-.35.21-1.67.19-2.04,0-.35-.75-.53-2.14-.67-3.45.38-.14,1.47-.2,1.97-.1,1.07.22,1.16,3.29.73,3.55Z"/>
      <path class="cls-1" d="M6.16,6.29l-4.17-.35.61,5.1,3.64.23-.07-4.99ZM5.68,10.25c-.25,1.28-2.64.4-2.73-.47l-.33-3.15,2.74.29c.23,1.04.53,2.23.32,3.33Z"/>
      <path class="cls-1" d="M38.51,34.91l2.61,1.83,2.68-1.7-2.51-1.46c-.77.11-1.83.7-2.78,1.33Z"/>
      <rect class="cls-1" x="7.04" y="7.21" width="2.11" height="3.71" transform="translate(-.8 .78) rotate(-5.25)"/>
      <polygon class="cls-1" points="37.02 29.37 35.7 27.47 32.73 28.29 34.31 30.68 37.02 29.37"/>
      <path class="cls-1" d="M10.9,20.66c.11-.81-.19-2.46-.65-3.08-.24-.33-1.79-.25-1.77.16l.06,1.6c.02.56.16,1.3.46,1.57.3.27,1.74.09,1.9-.25Z"/>
      <path class="cls-1" d="M11.66,27.53c-.35-.03-1.14.08-1.46.22-.12.05.02,2.88.37,2.88l1.49.02c.78,0,.24-3.05-.4-3.11Z"/>
      <path class="cls-1" d="M50.38,46.29c1.11.34,5.59-.57,5.31-2.87-.16-1.34-2.85,2.63-5.31,2.87Z"/>
      <path class="cls-1" d="M9.6,48.61l-5.97-2.62-2.63-1.61c-2.57.82,8.75,4.72,8.6,4.23Z"/>
      <path class="cls-1" d="M3.19,26.62l-.11.92c-.14,1.21.57,2.41,1.87,2.18-.11-.88-.3-2.39-.43-3.1-.04-.25-1.3-.25-1.33,0Z"/>
      <rect class="cls-1" x="24.98" y="4.8" width="1.06" height="3.24" transform="translate(-.38 1.74) rotate(-3.87)"/>
      <path class="cls-1" d="M43.39,45.43c1.42,1.34,2.95,1.14,4.28.76l-4.28-.76Z"/>
      <circle class="cls-1" cx="19.52" cy="7.64" r=".88"/>
      <circle class="cls-1" cx="19.16" cy="14.33" r=".87"/>
      <circle class="cls-1" cx="14.27" cy="8.89" r=".85"/>
      <path class="cls-1" d="M18.75,21.55c.43,0,.78-.35.78-.78s-.35-.78-.78-.78-.78.35-.78.78.35.78.78.78Z"/>
      <circle class="cls-1" cx="18.43" cy="26.96" r=".84"/>
      <path class="cls-1" d="M35.73,4.25c-.16-.29-1.25.24-1.26.59,0,.27.15.52.7,1.32.51-.3.84-1.4.56-1.91Z"/>
      <rect class="cls-1" x="6.79" y="27.88" width="1.23" height="2" transform="translate(-2.35 .71) rotate(-4.73)"/>
      <rect class="cls-1" x="5.17" y="17.95" width="1.35" height="2.28" transform="translate(-1.55 .54) rotate(-4.71)"/>
      <rect class="cls-1" x="3.58" y="7.57" width="1.43" height="2.31" transform="translate(-.32 .17) rotate(-2.14)"/>
    </g>
  </g>
</svg>