<?xml version="1.0" encoding="UTF-8"?>
<svg id="Warstwa_2" data-name="Warstwa 2" xmlns="http://www.w3.org/2000/svg" viewBox="0 0 50.9 60.36">
  <defs>
    <style>
      .cls-1 {
        fill: #fff;
      }
    </style>
  </defs>
  <g id="icon-v9-equipment-pixarts-store">
    <g id="icon-v9-equipment-pixarts-store_128">
      <path class="cls-1" d="M43.76,36.47c-1.32-.64-2.1-2.05-1.8-3.61.25-1.3-.42-1.49-1.27-2.13-2.97-2.27-4.37-6.36-3.98-10.08.13-1.23-.5-2.58-1.78-2.61-2.08,2.86-3.46,6.13-4.81,9.16.31-3.63,2.14-6.14,3.84-9.28-1.41-1.24-3.08-1.88-5.2-2.53l-1.22,6.03c-.06-2.2.29-4.11.51-6.25l-2.57-2.79-2.74,2.88c.3,2.54.79,5.04.79,7.55l-1.56-7.41c-1.88.44-3.26,1.06-5.16,2.3.85,2.8,3.59,5.79,3.61,8.11-.5-.82-.98-1.83-1.56-2.45-3.65-3.87-.37-.6-2.91-5.27-1.8.05-1.75,1.67-1.61,2.96.4,3.62-1.38,7.38-4.04,9.74-.26.23-.98.43-1.2.64-.71.71,1.16,3.61-1.94,5.03,4.1,2.28,7.78,7.33,7.44,11.59-1.07-2.86-1.77-5.32-4.08-6.94-.28,1.61-.57,3.25-1.15,4.65l-1.81,1.61c3.17,5.06,6.73,9.4,11.91,13-.13-6.02-.57-11.65-1.18-17.48-.13-1.21-1.03-1.83-2.06-2.22-2.23-.84-4.58-2.73-3.86-5.29.91,1.83,1.83,4.52,4.27,4.29,1.1-.11,2.41-.87,3.6-1.21l-1.27,1.51c-1.25,1.49.87,3.32,2.17,3.98,3.11,1.58,5.42,1.58,8.68-.05,1.53-.77,2.89-1.78,2.19-3.96l-1.76-1.55,3.89,1.36c2.45-.16,3.88-2.24,4.12-4.75,1.19,1.01.02,4.34-2.04,5.11l-3.07,1.15c-1.5,4.94-1.54,12.82-1.79,19.01,5.14-3.46,8.86-8.01,11.95-13.07-3.09-2.13-2.07-2.82-2.95-6.07-2.48,1.72-3.24,4.44-4.23,7.38-.35-4.45,3.44-9.88,7.61-12.03ZM17.49,55.75c-.69.27-1.49-.08-1.73-1.07l1.26.76c.76-2.62.41-10.84-.83-13.35l-1.35-.98c3.66-1.36,3.2,13.09,2.65,14.65ZM33.8,26.53c-.51,1.72-1.79,3.29-3.76,4.01l3.76-4.01ZM16.09,36.25c-.72-.75-.86-2.04-1.31-3.51-.37.18-1.01.68-1.46,1.07l-.69-2.95c-.29-1.22,1.27-3.11,2.28-3.46-.91,1.6-2.62,3.23-1.13,4.51,1.36-.26,3.11-.23,4.25.69l2.73,2.19c.57.46,1.88.73,2.33.18.5-.61.58-1.63.47-2.48.89,1.06,1.02,2.9-.49,3.87l.93,2.32c-2.72-3.58-5.58.03-7.92-2.43ZM25.55,43.54c-.93.13-5.04-2.98-3.58-3.9l3.55,2.97,3.15-3.14.59,1.02c.25.42-2.68,2.9-3.71,3.05ZM37.47,33.62l-.96-.8c-.81-.68-.55,2.7-1.99,3.65-2.74,1.81-4.88-1.08-7.39,1.85l.84-2.08c-.44-.33-1.43-1.15-1.32-1.68.13-.61.39-1.59.51-1.97.1.98.22,1.73.4,2.21.16.44,1.53.73,1.94.43l3.34-2.45c1.37-1.01,2.58-1.27,4.43-.63.62-.79.31-1.85-.12-3.29,1.63,1.04,1.25,3.32.31,4.78ZM33.57,55.85c-.74-2.24-.91-10.17.11-12.21.2,2.12-1.33,11.4.76,11.59l.46.04c.26.02-1.28.72-1.33.58ZM38.4,51.39l.37.37-3.15,3.15-.37-.37,3.15-3.15Z"/>
      <path class="cls-1" d="M49.05,11.99l-2.9-3.37c-2.15-2.5-2-5.26-.4-8.43-2.53,1.5-4.27,3.83-4.47,6.79-.06.81,1.03,5.34,2.54,4.59l-.42,1.39c-.1.32.52,1.28.85,1.17l2.21-.72c-.59.57-1.53,1.11-2.48,1.66-.56.38-.34,2.07-.31,2.71-.52.12-1.21.23-1.35.57-.16.37-.26,1.27-.21,1.65l.1.71c.01.1-.17.13-.22.03l-.31-.66c-.12-.25-.69-.76-.94-.64-2.7,1.3.19,7.71,2.73,8.85,1.03-.29,2.07-.9,2.75-1.61l-3.07-1.49.52-.86c.12-.19,2.41,1.71,3.58,1.24,1.19-.48,2.26-2.14,2.63-3.23-1.95.27-4.03.3-4.49-1.62,1.61,1.27,4,2,5.14-.02.47-.83.39-2.64.33-3.83l-1.15,1.19c.92-2.21.9-4.26-.66-6.07Z"/>
      <path class="cls-1" d="M4.6,21.98l-3.2.62c.28,1.18,1.54,3.46,3.5,2.87l2.62-1.55c.08.82.87,1.22,1.85,2.04-2.05-.33-3.6-.41-4.75.88,1.34.81,2.39,1.52,3.04,1.14,2.65-1.55,3.69-4.89,3.48-7.58-.03-.42-1.34-1.16-1.55-.81l-.82,1.37c.73-2.86-.59-2.12-1.8-5.83l-2.13-1.37c.82.12,2.02.38,2.46.04.44-.34.32-1.7.04-2.13,1.9-.78,2.86-4.57,1.74-7.1-.9-2.03-2.44-3.53-4.22-4.56C9.57,7.58,2.09,9.22.54,14.67c-.7,2.45-.84,4.52.28,6.75l3.78.56Z"/>
      <path class="cls-1" d="M20.64,56.66c1.23,1.18,3.25,2.65,4.94,2.6,1.52-.05,3.47-1.51,4.54-2.64.64-.67.48-2.85.49-3.5l-1.63,1.25c-2.18-.78-4.83-.6-7.03-.04-.55-.1-1.33-1.04-1.78-1.73.07.98.1,2.98.47,4.06Z"/>
      <path class="cls-1" d="M7.98,29.12c1.96,4.4,7.74-6.82,5.21-9.15-.19-.18-1.05.14-1.06.46-.03,2.74-1.29,7.07-4.15,8.69Z"/>
      <path class="cls-1" d="M37.74,19.87c-2.25,3.78,3.35,13.24,5.35,9.43-3.09-1.72-4.35-5.92-4.29-8.87,0-.37-.91-.8-1.06-.56Z"/>
      <path class="cls-1" d="M20.31,44.63c.18,1.26.58,2.36,1.15,3.34.68-1.43.72-3.19-1.15-3.34Z"/>
      <path class="cls-1" d="M29.95,44.37c-.69,1.04-.92,2.3-.73,3.41,1.31-1.07,1.72-2.19.73-3.41Z"/>
      <path class="cls-1" d="M28.52,53.57c1.49-.65,1.42-1.99.79-3.04-.7.95-1.08,2.05-.79,3.04Z"/>
      <path class="cls-1" d="M22.54,53.66c-.06-1.16-.42-2.18-.97-3.09-.64,1.09-.84,2.64.97,3.09Z"/>
    </g>
  </g>
</svg>