<?xml version="1.0" encoding="UTF-8"?>
<svg id="Warstwa_2" data-name="Warstwa 2" xmlns="http://www.w3.org/2000/svg" viewBox="0 0 40.43 55.94">
  <defs>
    <style>
      .cls-1 {
        fill: #fff;
      }
    </style>
  </defs>
  <g id="icon-v9-equipment-pixarts-store">
    <g id="icon-v9-equipment-pixarts-store_237">
      <path class="cls-1" d="M34.2,25.39c.03-2.15-.89-3.83-2.38-4.8-1.6-1.04-3.34-.91-5.14-.16-1.27-2.95-3.79-4.57-6.66-4.64-2.77-.07-5.6,1.58-6.82,4.06.78.78,1.32,1.4,1.77,2.23-1.51-.58-2.47-1.19-3.7-1.35-2.48-.32-4.38,1.46-4.6,3.78-2.15.18-4.17,1.15-4.79,3.25-.56,1.9.4,3.61,1.6,4.63,1.47,1.25,3.33,1.04,5.15.61,1.86,2.1,5.23,2.97,7.13.63-.81-.74-1.57-1.43-1.81-2.28,4.7,3.14,9.79,2.6,13.42-1.12-.44,1.61-1.51,2.61-2.7,3.63,2.11,2.07,5.49,1.32,7.2-.98l2.05.37c2.35.42,4.41-1.56,4.5-3.68.1-2.34-1.67-4.19-4.23-4.17Z"/>
      <path class="cls-1" d="M17.06,34.54l-3.68,10.04,5.96-.62-3.77,11.98,11.67-16.71-6.54.54,2.29-5.02c-2.2.04-3.86,0-5.93-.2Z"/>
      <path class="cls-1" d="M22.47,9.75c-1.41-.47-3.15-.48-4.46.09-.15,1.59.19,3.3.62,4.64l3.23.08.61-4.8Z"/>
      <path class="cls-1" d="M10.84,7.49L5.86,2.96c-.23-.21-1.18.05-1.15.33.02.22.15.91.36,1.12,7.86,7.98,4.92,2.29,5.79,3.08Z"/>
      <path class="cls-1" d="M35.25,3c-.23-.09-.83,0-1.02.17l-4.41,4.28c-.24.23.09,1.16.37,1.23.27.07.93-.13,1.26-.46l3.88-3.85c.25-.24.21-1.27-.08-1.38Z"/>
      <path class="cls-1" d="M7.78,7.86c-2.15,1.45,6.06,7.54,6.57,4.57-1.51-.79-2.59-1.35-3.61-2.17l-2.96-2.39Z"/>
      <path class="cls-1" d="M5.41,5.73C3.96,4.01,2.45,2.15,1.25.45,1.06.19.37-.08.16.11c-1.11.97,3.96,7.54,5.25,5.62Z"/>
      <path class="cls-1" d="M32.61,8.03c-2.28,1.8-4.21,3.18-6.6,4.53.99,2.36,8.4-2.9,6.6-4.53Z"/>
      <path class="cls-1" d="M39.96.02c-.26.03-.85.29-1,.53-1.15,1.77-2.59,3.56-4.12,5.28,1.42,1.81,4.66-3.24,5.53-4.41.22-.29-.07-1.44-.4-1.39Z"/>
      <path class="cls-1" d="M9.8,5.76c1.8,1.72,3.72,3.14,5.95,4.15,1.47-1.43-6.18-6.27-5.95-4.15Z"/>
      <path class="cls-1" d="M25.12,9.99l5.71-4.09c-1.08-.9-2-.51-2.78.07l-2.88,2.12c-.54.4-.88,1.37-.05,1.91Z"/>
      <path class="cls-1" d="M16.24,10.69l-2.1-.83c-.3-.12-1.09.18-1.14.46-.03.23.17.9.42,1.01l3.67,1.63c.42-.96,0-1.93-.85-2.27Z"/>
      <path class="cls-1" d="M23.16,13.14l3.64-1.68c.3-.14.56-.83.58-1.1.02-.22-.66-.67-.85-.58l-2.97,1.38c-.47.22-.64,1.48-.39,1.98Z"/>
      <path class="cls-1" d="M33.14,1.01c-.6.95-1.36,1.97-.27,2.93l2.85-3.67c-.94-.61-2.02-.16-2.58.74Z"/>
      <path class="cls-1" d="M7.88,3.77C8.43,1.44,6.57-.37,4.63.11c.93,1.37,1.88,2.75,3.26,3.66Z"/>
    </g>
  </g>
</svg>