<?xml version="1.0" encoding="UTF-8"?>
<svg id="Warstwa_2" data-name="Warstwa 2" xmlns="http://www.w3.org/2000/svg" viewBox="0 0 54.45 52.4">
  <defs>
    <style>
      .cls-1 {
        fill: #fff;
      }
    </style>
  </defs>
  <g id="icon-v9-equipment-pixarts-store">
    <g id="icon-v9-equipment-pixarts-store_12">
      <path class="cls-1" d="M.74,50.18l4.26-1.38c-.29-6.68,4.41-10.04,3.47-14.84-5.99.61-5.26-1.29-8.41-5.25L0,47.56c0,.9.29,1.84.74,2.62Z"/>
      <path class="cls-1" d="M40.18,16.02l-5.44,2.67c1.38,4.44-1.15,6.76-1.39,7.49l-1.34,4.03-1.25,5.94c-.31,1.49-2.47,1.88-3.81,1.87-1.13,0-3.15-.66-3.41-1.97l-1.16-5.85-1.46-4.27c-.25-.74-2.68-2.9-1.34-7.31l-5.42-2.64-2.19,6.26c-1.11,3.16,2.46,11.01,2.59,15.11,11.97,5.53,9.2-.08,16.56,2.92,3.06-.78,6.03-1.59,8.8-2.95.34-3.76,1.15-6.78,2.32-10.24,1.55-4.59-1.16-6.8-2.04-11.08ZM18.88,34.85c-1.65-1.79-.73-4.06-1.19-6.13l-2.46,1.04.71-3.08-1.64-.3c-.07-.11-.11-.88.07-.95l1.06-.43c.72-.29.7-1.32.46-1.31l-1.02.06-.71.04c-.12,0-.19-.36-.12-.46.86-1.28,1.33.44,3.24-2.92.18,1.1.04,2.41-.12,3.71l-.39,3.25,2.26-.82-.15,8.29ZM38.61,23.66c-1.36,1.83,1.6.8,1.53,2.54-.01.33-.48.41-1.47.43l.28,3.03-2.41-1.04c-.21,2.12.36,4.22-1.06,6.07l-.14-8.16,2.2.86-.38-3.7c-.12-1.13-.15-2.26-.06-3.39.9,1.64,1.61,2.23,3.26,3.01.11.63-1.12.57-1.74.36Z"/>
      <path class="cls-1" d="M11.42,8.08c1.22-1.71,2.1-3.58,4.28-3.91-.8,2.56-.95,5.05,1.28,6.45,1.44.9,4.03,1.81,5.68,1.64,3.05-1.29,5.78-1.6,8.76.09,2.39-.32,6.78-.89,7.49-3.69.38-1.52.05-2.99-.15-4.67,2.13,1.03,3.95,3.02,4.31,5.46.29,1.98-.63,3.65-1.83,5.28-.37.5.6,2.08,1.29,1.86,1.73-.56,3.15-1.21,4.84-1.99l-1.7-2.39,3,1.65c.73-.45,1.69-1.31,2.32-2.04l-3.18-1.69,3.7.22c.49-.54,1.13-1.65,1.5-2.38l-3.04-.57,3.46-1.12c.57-.18.87-1.73.83-2.18l-3.81.56,3.64-1.82c.46-.23.36-1.78.12-1.98l-8.43,3.24-1.46,3.73c-.15.38-1.01.78-1.33.69l1.49-4.51-6.62-2.17-1.81,6.03c-.31.08-.97-.47-.9-.77l.96-4.11-3.02-2.98c-3.59,1.3-7.01,1.61-10.51.34-1.11-.4-2.14.11-2.82,1l-1.56,2.03,1.03,3.59c.07.25-.26.99-.49.99s-.6-.42-.66-.65l-1.55-5.5-6.6,2.19c.34,1.58.8,2.78,1.51,4.09ZM21.79,1.64c3.61.63,6.81.94,10.44-.03.7-.19,1.39,1.28.97,1.92-1.75,2.62-3.54,2.02-6.04,5.4-2.81-3.56-2.74-1.93-5.9-5.06-.45-.44-.14-2.34.53-2.22Z"/>
      <path class="cls-1" d="M21.32,18.74c-2.27,3.22.54,5.75.89,6.82l1.2,3.63c1.39,4.22-.11,7.02,3.37,7.58l-.08-2.33-.89.31c-.87-1.61-.99-3.92-.13-5.42l1.49,2.77,1.49-2.67c.61,2.03.49,3.61.05,5.34l-1.05-.37-.29,2.29c3.41.47,2.79-6.24,3.31-7.94,1.99-1.53-.37-1.81,2.15-4.53.8-.86,1.22-2.88.96-4.09l-1.36-2.39.68-.65c.1-.1-.14-.53-.16-.68l-.48-2.51c-2.73-.44-4.62-2.23-7.78-1.01l-2.8,1.08-.75,3.26c.22.17.76.38.66.6-.1.21-.38.74-.5.92ZM31.15,19.76c.09-.15.53-.41.69-.44.16-.03.6.34.68.52.62,1.47-.04,3.39-1.91,4.78l-1.3-1.73,1.84-3.13ZM27.28,28.13c-.8-1.99-.79-4.07-.12-6.25.39,2.22.33,4.11.12,6.25ZM27.63,14.03l-.13,1.98c-.03.4.65.76,1.4,1.48l-2.35,1.75.51-1.54c.15-.44-.49-1.05-1.19-1.71l1.76-1.97ZM22.74,19.44c.88.94,1.64,2.29,2.29,3.44l-1.23,1.33c-1.28-.5-1.9-1.5-2.22-2.89-.17-.72.32-2.12,1.16-1.88Z"/>
      <path class="cls-1" d="M54.31,29.14c-3.51,3.74-1.94,5.47-8.36,4.89-.69,5.45,3.57,8.01,3.52,14.9l4.37,1.33c.37-1.44.63-2.61.61-4.03l-.14-17.09Z"/>
      <path class="cls-1" d="M11.46,18.36l-6.47-2.98c-.68,5.8-2.16,6.62-3.4,11.95l2.18,3.29,4.09,1.23,2.45-4.91c.32-.64.14-2.08.05-2.76-.5-3.61,1.4-3.28,1.1-5.82Z"/>
      <path class="cls-1" d="M44.52,27.75l2.14,4.13c4.52-1.79,4.43-.52,6.16-4.77l-2.61-7.61c-.43-1.27-.45-2.71-.77-4.17l-5.58,2.53c-.29.13-.88.62-.9.93-.02.31.16,1.01.31,1.34,1.9,4.15-.39,4.46,1.24,7.61Z"/>
      <path class="cls-1" d="M13.16,14.85c-1.36-1.7-2.16-3.66-1.93-5.84-1.29-1.28-1.89-3.04-2.37-4.81L.28.85c-.33.42-.37,1.71.07,1.93l3.14,1.58-3.26-.27c-.03.46.16,1.96.65,2.12l3.66,1.18-3.06.56c.15.48.85,2.23,1.57,2.3,1.12.1,2.52-.03,3.61-.12l-3.23,1.7c.78.93,1.69,1.79,2.33,1.95l3.05-1.57-1.67,2.38,4.84,2.23c.59-.48,1.2-1.35,1.19-1.97Z"/>
      <path class="cls-1" d="M30.59,51.21c1.89-1.5,2.7-3.68,2.25-5.93-.36-1.8-1.64-3.71-3.62-4.42-2.48-.89-4.94-.13-6.48,1.83-1.41,1.79-1.64,4.21-.55,6.42,1.55,3.16,5.49,4.42,8.41,2.11ZM24.4,46.16l.96-.88c.55-.51-2.03-2.32-.45-3.22l2.16,2.8,2.41-2.69c.49,1.19-.3,2.13-.81,3.08.7.33,1.64.85,1.63,1.42-.02.86-.75,1.57-1.49,1.66l-1.02.12c-.21.02-.16.96.05,1.01l1.63.36c-1.5,1.21-3.11,1.3-4.6-.04l1.92-.61c-.65-.68-1.39-1.21-2.25-1.74l-.67-.4c-.2-.12.36-.71.53-.86Z"/>
      <path class="cls-1" d="M12.83,38.26l-1.12,8.76c3.22,1.54,6.28,2.74,9.78,3.8-1.79-3.21-1.77-6.61.42-9.38l-9.07-3.19ZM18.52,43.89c-.67-.42-1.08-.8-1.4-.74-.32.06-.53,1-.43,1.31l.99,3.16-1.29-.81c-1.01-.63-.75.52-1.72-.46-.56-.57,1.6-.58,1.19-1.52-.11-.25-.6-.37-.81-.25-.59.4-.8.57-1.4.73l1.83-2.18-1.28-1.74c.47-.67,1.83.28,2.14,1.12.57-.21,1.27-.42,1.67-.26.65.26,1.08,1.52.51,1.64Z"/>
      <path class="cls-1" d="M41.46,38.38l-8.93,3.1c2.09,2.8,2.22,6.29.41,9.28,3.6-1.01,6.44-2.19,9.65-3.65l-1.12-8.73ZM40.45,45.93l-.85-.73c-.13-.11-.55-.26-.72-.3-.17-.05-.04.57.03.74l.34.77c.09.19-1.99,1.24-2.44.91l.94-1.66c.32-.57-.47-1.72-.97-1.67l-1.21.13c-.21.02-.44-.64-.41-.71l1.93-1.36c.72-.5,2.47-.51,3.32-.94l-1.07,3.02,1.57,1.21c.11.1-.34.72-.47.61Z"/>
      <path class="cls-1" d="M34.5,16.86c2.09-.36,3.93-1.42,5.34-2.66,2.27-2,2.56-5.42.55-7.57-.41,5.71-2.9,5.43-7.01,7.01-.36.83.13,2.99,1.12,3.22Z"/>
      <path class="cls-1" d="M17.45,12.41c-2.45-.8-3.47-3.09-3.58-5.8-2.02,2.43-1.49,5.99,1.03,7.97,1.47,1.15,3.3,1.9,5.22,2.4.7-.96.98-2.45.89-3.41l-3.57-1.16Z"/>
    </g>
  </g>
</svg>