<?xml version="1.0" encoding="UTF-8"?>
<svg id="Warstwa_2" data-name="Warstwa 2" xmlns="http://www.w3.org/2000/svg" viewBox="0 0 42.24 59.39">
  <defs>
    <style>
      .cls-1 {
        fill: #fff;
      }
    </style>
  </defs>
  <g id="icon-v9-equipment-pixarts-store">
    <g id="icon-v9-equipment-pixarts-store_117">
      <path class="cls-1" d="M25.02,52.79c-.32.2-1.52-.25-1.48-.63.04-.3.26-1.03.48-1.25,3.44-3.45,5.08-8.63,3.07-13.18.18,3.67-.41,7.04-3.51,9.05,1.53-3.35,1.52-6.73-.04-9.93-2.13-4.38-1.85-9.14,1.15-13.06,2.59-3.39,5-8.55,1.38-12.09-1.13-1.1-3.02-1.05-4.36-.69,1.71.62,2.83,1.45,2.93,3.24.17,2.9-2.25,5.97-5.34,5.64-3.69-.4-6.51-3.38-7.71-6.28-1.5-3.61-1.08-7.29,1.2-10.2-.55,3.01-1.24,5.56-.39,8.3.22-4.61,1.39-8.33,4.61-11.72C11.38,1.01,6.98,4.39,3.8,8.87c-.47.66-.17,2.59-.16,3.43.02,3.9,1.75,7.29,5.03,9.12-.89-1.62-1.78-2.57-2.11-4.4,3.46,2.85,9.97,7.79,11.56,11.51,2.06,4.85.67,10.25-2.08,14.08.16-2.29.08-4.14-.59-5.83C13.18,31.09,6.98,39.45.02,27.53c.12,1.76-.27,4.2.58,5.9,2.24,4.48,7.84,3.95,10.39,7.77-.6-4.14-6.38-4.14-8.4-7.28l4.39,1.65c7.04,2.65,6.45,9.71,7.03,16.03l.46,5.03c-1.4-.99-1.73-2.39-2.4-4.19-1.5,4.62,5.27,6.9,8.87,6.94-4.31-3.39-4.61-9-1.2-13.12,1.04-1.26,1.71-2.86,2.33-4.26.59,3.2-4.4,7.25-1.03,11.05.97,1.09,2.45,1.34,3.85.83.93-.34,1.93-1.35,2.33-2.44l-2.19,1.35ZM6.78,8.96c1.66-2.48,1.44,4.83,2.51,6.75-2.83-.78-4.04-4.45-2.51-6.75ZM19,26.6l-3.55-4.11c.89-.06,2.17.19,2.82.62,1.05.71,1.28,2.21.73,3.48Z"/>
      <path class="cls-1" d="M27.64,6.04c6.63,2.34,7.11,9.49,4.97,15.63,1.51-.92,2.97-1.87,4.27-3.12,3.39-3.28,3.62-8.88-.49-12.38.08,1.43,1.05,3.36-.12,4.45-3.22.57-3.05-5.72-8.63-4.57ZM37.23,16.11c-.15.49-1.33,1.2-1.69.79-.62-.7.26-2.23,1.11-2.34.44-.06.73,1.07.58,1.55Z"/>
      <path class="cls-1" d="M35.36,37.5c-4.38,3.15-2.34,9.97-.86,14.48,1.46-2.03,2.61-4.03,3.46-5.85l-1.68-2.23-.62,2.56c-1.38-2.31-.7-5.45,1.27-7.42l4.45-4.47c.5-1.79.82-3.65.71-5.7-1.76,3.51-3.6,6.39-6.73,8.63Z"/>
      <path class="cls-1" d="M31.5,2.52c-1.39-.96-3.37-1.73-5.28-2.28-5.64,2.23-10.97,6.53-8.7,12.94.13-4.15,2.48-7.37,6.54-8.24,2.76-.83,5.19-.4,7.73.86.29-.76.46-2.76-.28-3.28Z"/>
      <path class="cls-1" d="M5.95,41.84l-3.93-1.45c1.62,3.82,4.05,9.9,6.61,12.22,1.21-4.79,2.13-9-2.67-10.77ZM7.12,48.24c-.82-1.47-1.24-2.58-1.57-4.11,1.31.02,1.9.46,2.16,1.33.25.83.18,1.69-.59,2.79Z"/>
      <path class="cls-1" d="M37.4,24.15c-2.42,1.26-4.28,2.22-6.64,3.11-2.52.94-4.88,2.86-5,5.7,4.72-4,7.8,1.22,11.64-8.81Z"/>
      <path class="cls-1" d="M4.77,24.12c3.61,9.87,7.27,4.98,11.57,8.67-.42-5.67-7.85-5.64-11.57-8.67Z"/>
      <path class="cls-1" d="M37.8,29.2c3.91-2.64,5.27-6.37,3.94-11-3.04,2.68.4,4.64-3.94,11Z"/>
      <path class="cls-1" d="M27.07,57.83c1.96-.64,3.68-1.85,4.48-3.48.84-1.72.45-4.24-.36-5.81-.21,3.82-1.61,7.03-4.12,9.29Z"/>
      <path class="cls-1" d="M24.7,27.76c2.53-2.73,4.88-5.81,5.1-9.91-1.57,4.32-4.1,6.07-5.1,9.91Z"/>
      <path class="cls-1" d="M36,33.82c0-.24.02-.47.02-.59l-6.09,1.25c.63.66,1.96,1.43,3.06,1.16.86-.21,1.9-1.02,3.01-1.83Z"/>
      <path class="cls-1" d="M36.02,33.24h0c0-.13,0-.11,0,0Z"/>
      <path class="cls-1" d="M3.27,27.48c-1.26-2.53-2-4.62-2.83-7.44-1.49,2.56,1.08,5.81,2.83,7.44Z"/>
    </g>
  </g>
</svg>