<?xml version="1.0" encoding="UTF-8"?>
<svg id="Warstwa_2" data-name="Warstwa 2" xmlns="http://www.w3.org/2000/svg" viewBox="0 0 57.77 59.02">
  <defs>
    <style>
      .cls-1 {
        fill: #fff;
      }
    </style>
  </defs>
  <g id="icon-v9-equipment-pixarts-store">
    <g id="icon-v9-equipment-pixarts-store_104">
      <path class="cls-1" d="M55.25,26.64c2.63-2.42,3.3-6.22,1.55-9.13.48,3.21-.09,5.93-3.15,7.08-.32-1.48.94-2.89,1.09-4.22.39-3.39.7-6.48,2.01-9.6,1.69-4.04-.86-5.03-1.8-7.75-1.56,1.58.9,2.4.52,3.71l-8.88-1.46c1.95-1.75,4.02-2.42,6.15-3.32-6.51-.54-9.05,5.39-12.92,3.27l.35-1.96c-3.02,1-6.23,2.55-7.8,5.29-1.18,2.05.37,4.8.86,6.82.79,3.23,1.41,5.94,1.94,9.24l-1.5-1.65c.19,2.1.95,3.62,1.61,5.59.74,2.2.69,5.4-.25,7.61-1.31,3.1-3.55,5.47-5.83,7.82-4.4,4.53-7.39,1.32-9.66,8.67-.28.92-1.06,2.14-.88,3.21,3.84.79,6.51-1.24,8.25,3.16l9.09-2.08-.42,1.9c2.28.05,5.29-4.16,5.59-3.34l.41,1.13c3.59-1.54,3.26-5.83,7.74-5.55l.85,1.64,3.12-4.55.65,2.13c1.8-1.46,1.74-3.51,1.91-5.52l.48-5.43-1.26,1.33c-1.7-1.75.28-6.07.52-8.43l-2.21,3.12c-1.1-1.47-.37-2.8-.17-4.28.24-1.81.68-3.2,2.04-4.45ZM38.86,4.5l.24,1.92c.05.4,1.29.38,1.71.35,4.84-.41,9.5-1.09,13.88,1.14l-3.62,1.54-2.56,3.49c-1.66-6.4-7.77-.98-14.26-4.51,1.16-1.74,2.91-2.97,4.61-3.92ZM43.92,11.66c.26-.18,1.79.14,2.14.63,1.1,1.56.07,3.77-1.31,4.72.16-1.99.09-3.44-.83-5.36ZM34.56,14.87c-.57-1.67-1.03-3.17-1.4-4.76l2.55.84-1.15,3.91ZM42.39,50.55c-.34,1.7-2.05,2.88-3.77,3.18,1.62-2.5,1.44-4.99.33-7.6,2.22.16,3.84,2.37,3.44,4.42ZM53.18,44.58c-.51,2.14-2.59,3.07-4.43,3.59l1.68-3.56c-2.59.12-2.98,5.07-7.29,7.33.49-3.7-1.04-5.56-3.76-6.73-2.35-1.01-4.45-1.11-6.75.37-1.58,1.02-2.24,2.9-1.27,4.53l-.45.68c-.15.23,1.96,1.16,3.88-.14.55-.37.92-1.57.78-2.28-.75.65-1.2,1.1-1.65,1.28-.5.19-1.55-.94-1.36-1.62.46-1.65,2.56-2.34,3.79-1.65,1.49.84,1.74,3.03.88,4.56-1.54,2.76-5.46,4.85-8.47,3.39-1.75-.84-2.91-1.98-4.88-2.24.44-.69,1.12-1.54,1.76-1.67.83-.17,2.04.12,3.24.31-1.81-1.48-4.18-1.21-6.17.51-.76-1.48.41-2.68,1.79-3.04,5.85-1.5,4.76-5.68,12.68-5.72-.9-.93-1.79-1.08-3.39-1.48,2.01-4.12,3.22-1.16,3.1-8.1,1.91,1.08.58,3.29,1.05,4.93.8,2.8,2.9,5.19,5.69,6.59l-1.74-2.82c-1.76-2.86-1.12-6.45,1.72-8.41,3.23-2.24,5.18-1.92,8.67-4.69-.27,6.65-8.5,5.33-7.85,11.48.23,2.24,1.92,3.08,3.65,2.79,1.85-.31,2.73-2.64,1.87-3.97-.18-.27-.9-.64-1.1-.5l-.81.6c-.24.17.46.88.55,1.26.1.41-.89.95-1.29.88-.45-.07-.94-.73-1.05-1.49-.28-1.92,2.77-4.86,4.62-3.66,2.58,1.68,2.94,6.02,2.3,8.69ZM39.76,35.14c-1.83-6.57-3.52-5.88-4.34-14.53l2.13,1.75c-.84-2.5-1.81-4.09-1.59-6.42.19-2.03,2.08-3.56,3.84-3.19,1.88.4,3.19,2.16,2.76,4.3-1.02,5-5.2,6.69-2.55,11.52-.89-4.17,1.93-7.22,4.99-9.55,3.49-2.66,6.4-5.53,9.51-8.77.11,2.13-.37,4.64-2.11,5.8l-3.57,2.38c1.95.67,2.86-.2,4.66-1.08-.6,17.07-9.3,9.2-13.73,17.8Z"/>
      <path class="cls-1" d="M19.62,48.79c1.52-1.05,2.32-2.79,4.42-3.32,2.1-.53,4.05-1.84,5.11-3.91-2.13.36-5.04,3.99-7.04,2.81-.92,1.8-2.79,3.33-4.97,3.76.96-1.54,1.99-3.02.81-4.5-1.41-1.77-3.69.24-5.08-.21-.23-.07-.44-.86-.32-1.07,1.76-3.2,6.41-1.42,8.96-1.05-2.5-2.79-7.13-2.26-9.75-.35-1.15.84-1.36,2.51-.66,3.42,1.57,2.03,5.41-.88,4.82.81-1.24,3.5-5.59,4.85-8.62,3.31-1.5-.76-2.74-2.6-1.8-4.13.67-1.09,3.22-1.77,2.84-2.16l-.46-.47c3.73-2.65,4.29-3.73,9.38-4.27-.88-.5-1.7-.78-2.74-1.05,1.69-2.08,2.92-4.35,3.67-7.16.57.86.96,2.01.94,3-.09,3.66,2.14,6.9,5.58,7.97,1.89.59,3.83.16,4.89-1.22.99-1.29,1.39-3.46.46-4.74-.27-.37-1.49-.76-1.87-.57-.38.19-.74.78-.92,1.25h1.22c.19,0,.09,1.04-.03,1.26-.44.78-2.03.47-2.33-.28-.74-1.84.31-3.63,1.99-4.18,1.5-.49,3.48.27,4.01,2.22.33,1.22.11,2.74.03,4.17,3.28-4.47-.23-10.45.17-19.21.07-1.47-.57-3.16-1.28-4.06l-2.72,1.5,1.84.81-.5,4.19c.84-1.12,1.17-2.43,1.41-3.87,1.22,3.95-4.58,8.1-6.96,10.76,3.49-1.76,7.32-3.94,7.73-7.83l.26,4.14c.16,2.55-2.05,4.5-4.21,5.45-2.23.98-3.74,2.73-3.44,5.24.18,1.48,1.45,2.53,3.06,2.23.43-.08,1.46-.59,1.46-1.03,0-.45-.08-1.25-.13-1.84,1.11.35,1.59,2.14.85,3.23-1.41,2.08-4.4,2.36-6.18.73-3.27-2.99-2.55-7.12.1-10.25.87-1.03,1.56-2.7,2.27-3.94.87-1.51,1.49-3.79.23-5.22-.71-.81-2.38.42-2.66,1.14l2.02-.16c1.11,6.25-3.95,5.61-5.51,10.7l-2.09-4.52c-.9-1.95-.51-4.72-1.84-6.33l-2.25-2.73-.89-4.24c-.94,5.59-1.06,3.78,1.67,8.9,1.61,3.03,2.52,6.67,1.06,10.08-2.42,5.64-5.84,7.39-11.07,10.28l.38-1.92c-3.14,1.55-4.74,4.73-4.92,8.22,5.91,3.82,13.67,4.34,19.62.25Z"/>
      <path class="cls-1" d="M29.9,10.3c1.1-1.88,1.15-3.86,3.62-4.8.74-.28,1.65-1.23,2.26-2.07l-4.88-1.23L35.05.06c-5.98-.58-6.78,3.52-11.46,2.3l.27-1.89c-2.34,1.32-3.95,2.33-5.87,3.77,5.71-.91,10.88-1.65,16.37-.35-1.12,1.68-2.83,1.22-4.31,1.65-4.74,1.36-9.46,1.89-14.39.72-.33-.08-.93-.62-1-.95-.06-.26.13-1.05.31-1.27l2.62-3.1c-3.18,1.79-6.13,3.87-4.8,7.53,1.22,3.37,2.18,6.57,3.07,9.99l1.44,1.43c.22-3.52-2.05-4.93-.39-8.66.92-2.07,4.67-3.17,5.93-1.07,2.51,4.16-7.93,7.56-2.55,14.94-2.04-9.06,7.43-11.06,9.61-14.78ZM15.21,10.77l-.93-2.49,1.96.21-1.03,2.28ZM30.22,6.6c-1.17,2.25-2.55,3.62-4.44,5.33l-.38-3.68,4.82-1.65Z"/>
      <path class="cls-1" d="M50.81,21.41c-.06.88-.11,1.85-.33,2.46-.18.51-1.45.96-1.78.87.46-1.43.86-2.75.4-3.69-2.07-.62-4.14.94-5.22,2.37,1.11-.23,2.1-.39,3.11-.39.19,2.02-.56,2.99-1.38,4.96l3.95-2.25c1.54-.88,2.44-3.09,1.25-4.34Z"/>
    </g>
  </g>
</svg>