<?xml version="1.0" encoding="UTF-8"?>
<svg id="Warstwa_2" data-name="Warstwa 2" xmlns="http://www.w3.org/2000/svg" viewBox="0 0 56.22 54.35">
  <defs>
    <style>
      .cls-1 {
        fill: #fff;
      }
    </style>
  </defs>
  <g id="icon-v9-equipment-pixarts-store">
    <g id="icon-v9-equipment-pixarts-store_30">
      <path class="cls-1" d="M6.97,43.75l6.33-2.84c.82-.37,2.44-.59,2.85-1.32,1.92-3.37,2.11-4.44,6.55-5.65l-3.46,2.05c-1,1.13-1.53,2.89-1.82,4.44,2.61.57,4.35,2.67,6.11,3.97,4.17.79,8.51-.07,12.52-.66l1.74-3.7-.03,3.33c3.1-.66,5.73-1.65,8.47-3.01.31-1.41.35-3.04.2-4.29-2.11-.03-3.57-.47-4.73-1.73-1.1-1.2-1.47-3-1.3-4.73.19-1.93,1.34-3.46,3.14-3.75l-.52-1.23,1.53,1.17,4.17-.77c-1.76-3.54-3.73-6.43-6.84-8.8l-.92,5.21.96,1.78c-.73-.21-1.74-.54-2.28-.59-1.67.79-3.99,1.15-6.01.46l-1.5,1.99.03-2.77c-1.69-1.16-3.4-3.59-2.55-5.69.71-1.78,2.22-3.16,3.32-5.04-1.84-.47-3.29-.7-5.35-.87l1.02,2.88c-2.26,2.53-6.06,3.12-8.66.77l.14-2.44c-4.13,1.64-7.42,4.24-9.51,7.77.58.23,1.59.56,1.88.95.81,1.05.88,3.28.1,4.53-.79,1.26-2.13,2.39-3.79,2.37l-1.32-.75-.77,5.16c-.19,1.27-1.48,2.54-2.1,4.01l5.06,4.49c-.35.17-1.59.31-1.92.02l-4.76-4.24c.53-1.73,2.19-2.97,2.41-4.58l.91-6.61-2.29-2.42c-.86,3.48-.98,6.43-1.21,9.82l-2.76,4.19,5.16,5.65c.39.43,1.22,1.04,1.81,1.49ZM29.34,31.25l5.73-3.55,1.37,6.66c.35,1.7-.3,3.43-1.47,4.38-1.14.92-2.81,1.61-4.35.96-1.77-.75-2.99-2.2-3.25-3.74-.32-1.86.34-3.71,1.96-4.71ZM24.3,22.22l3.07-.85-2.02,1.66c1.41,3.13.5,6.51-2.81,7.78-1.37.53-4.72.06-5.29-1.59-1.2-4.41-1.89-8.57-2.46-13.36l9.5,6.36ZM11.68,33.52c.22-.62,1.42-1.12,2.24-1.37-.19,1.5-.43,2.58-1.02,4.05-.92-.63-1.59-1.65-1.22-2.68ZM7.62,35.09c.38-1.55,1.4-3.34,3.05-3.19-.61.72-1.6,2.39-1.14,3.04.88,1.03,2.3,1.59.93,2.64l-2.84-2.49Z"/>
      <path class="cls-1" d="M21.11,44.57c1.63,2.9,2.9,5.73,4.02,8.94,5.27,1.12,10.64,1.18,15.76-.18.51-.13.61-.11,1.14-.13,1.99-.1,4.17-1.21,5.96-2.06l.16-1.9.72,1.21c1.66-1.1,3.32-2.54,3.82-4.75.23-1.01-.87-2.38-1.52-2.94-1.05,8.2-17.88,9.53-24.04,8.23l-2.2-4.21c-1.52-.39-2.57-1.09-3.82-2.22Z"/>
      <path class="cls-1" d="M39.36,21.54c1.94-7.36,2.76-14.37,4.04-21.54-4.59,5.63-8.53,10.89-12.62,16.55-.45.62.03,2.09.42,2.49l1.51-1.93-1,2.98c1,.96,2.26,1.63,3.66,1.65l5.88-15.12c-.12,5.14-2.53,9.7-1.9,14.91Z"/>
      <path class="cls-1" d="M28.94,46.42l-2.73.19,1.54,3.36c6.65.82,17.71.2,21.94-5.76.65-.92.44-2.63.14-3.6-6.54,4.1-10.92,4.58-18.22,5.76.32.96.39,2.16-.15,2.59-.71.56-1.8.37-2.33-.53l1.76.17c.41-1.18-.56-2.28-1.94-2.18Z"/>
      <path class="cls-1" d="M20.48,10.46l.57-3.53c-3.94.62-6.98,2.06-10.04,4.27l1.03,1.92-2.32-.69c-1.6,1.7-2.87,3.31-4.13,5.55l3.66,1.14c2.98-4.15,6.49-7.02,11.23-8.66Z"/>
      <path class="cls-1" d="M42.51,33.07l9.23-5.24c-1.77,2.9-4.95,3.84-6.41,6.97l10.89-9.79-13.63,2.39c-1.42,1.28-1.38,4.13-.08,5.68Z"/>
      <path class="cls-1" d="M27.14,13.25L23.1.96l-2.03,12.9c1.94,1.21,4.38,1.06,6.07-.62Z"/>
      <path class="cls-1" d="M9.23,26.4c-.59-2.69-3.22-3.17-4.17-5.61l6.27,4.11c.68-.79,1.2-3.12.07-3.62-3.4-1.49-6.65-2.7-10.21-3.7,2.77,3.32,5.14,6.09,8.04,8.83Z"/>
      <polygon class="cls-1" points="53.39 12.96 44.93 17.1 48.28 21.32 53.39 12.96"/>
      <path class="cls-1" d="M51.45,36.03c.44-1.42-.07-3.18-.43-4.39-1.77,1.3-3.13,2.84-3.86,4.44l.16,3.73c1.21-.88,3.56-1.96,4.13-3.79Z"/>
      <path class="cls-1" d="M31.75,9.83c-1.23-2.37-3.3-2.49-5.49-2.79l.83,2.34,4.66.44Z"/>
      <path class="cls-1" d="M18.87,28.98l-1.38-7.92,4.77,8.36c2.31-.55,3.71-4.12,1.99-5.57-2.69-2.28-5.29-4.13-8.2-6.15l1.68,8.75c.18.96.42,1.86,1.15,2.52Z"/>
      <path class="cls-1" d="M29.61,37.76c1.35-2.34,2.35-4.12,4.01-6.25.6,2.37.77,3.82,1.04,5.97.3-.4.9-1.64.81-2.2l-1.03-6.23c-2.18,1.4-3.97,2.5-5.64,4.13-1.25,1.22-.35,3.76.81,4.57Z"/>
    </g>
  </g>
</svg>