<?xml version="1.0" encoding="UTF-8"?>
<svg id="Warstwa_2" data-name="Warstwa 2" xmlns="http://www.w3.org/2000/svg" viewBox="0 0 53.99 56.95">
  <defs>
    <style>
      .cls-1 {
        fill: #fff;
      }
    </style>
  </defs>
  <g id="icon-v9-equipment-pixarts-store">
    <g id="icon-v9-equipment-pixarts-store_157">
      <path class="cls-1" d="M49.34,25.16c-.1.25-.99.21-1.26.13l-2.96-.94.31,1.78c2.19.37,4.1,1.33,5.49,2.92-1.8-.97-3.3-1.63-5.4-2.11l-.81,2.85-1.21.15c-.24.03-.43.6-.57.89,2.46-.23,5.01.39,6.3,2.64,2.62,4.58-3.77,11.32-7.07,13.06,1.25-1.82,2.43-3.46,3.26-5.04l-2.78-2.8-3.54,3.02c2.08-2.49,4.39-5.16,4.74-8.79-1.26,2-2.2,4.02-3.77,5.73-5.53,6.06-15.52,11.11-24.14,9.29,2.25,1.79,4.87,1.24,7.84,1.43l-2.64,1.27c3.36,4.44,5.17,2.38,9.21,2.27-3.85,2.06-12.59,3.06-15.11-1.34-2.4-4.2,1.87-9.2,5.29-11.99,2.68-2.19,5.77-3.76,8.92-5.25,2.45-1.16,5.19-1.23,7.89-.31.74-1.14-.08-3.18-1.3-3.4-.49.42-1.87,1.52-2.37,1.12-.86-.72-1.46-2.26-2.05-3.21-.82.26-2.04.62-2.86.44-.4-1.44-.61-3.18-.79-4.52-1.3-.28-2.7-.73-3.57-1.73l.94,2.73c-2.69-2-3.32-5.15-2.38-8.13.69-2.19,0-4.7-2-5.99-3.48-2.25-5.72-1.45-9.76-4.79,1.78,8.07,9.82,5.6,8.7,11.84-.39,2.2.52,4.18,1.39,6.3-4.34-3.17.5-8.64-5.05-10.66l-5.94-2.16c1.68,4.74,4.29,4.5,7.91,6.45l-7.06-.84c1.61,3.05,4.56,3.27,7.36,3.89l-5.69.62c1.56,2.38,3.66,2.05,6.1,2.44l-3.73,1.18c1.65,1.35,3.24,1.17,5.42,1.15l-1.9,1.42,2.9.63c1.2.26,2.89-.22,3.99.84.34.32.73,1.35.62,1.77-.11.41-.84.69-1.42.98-5.72,2.88-11.75,8.67-13.62,14.87.31-6.72,7.94-13.35,13.6-15.99-1.69-3.37-4.48,3.62-10.93.73l-.62-1.31c-1.83-.14-4.06-.43-4.73-2.17l.24-1.12c.05-.24-.99-.11-1.15.18-4.92,8.79-4.71,17.77,2.94,25.13,6.4,6.17,15.01,4.6,22.61,1.55,7-2.81,13.13-7.25,17.38-13.51,4.4-6.48,2.52-10.91-.57-17.16l-.61,1.55Z"/>
      <path class="cls-1" d="M28.01,18.89l-1.6,3.51,3.13.61c-.16,1.51-.21,2.99.16,4.62l2.91-1.36c.27,1.53.64,2.88,1.72,4.33l2.07-2.75c1.04,1.45,2.06,3.02,3.06,4.82,1.66-1.09,2.63-3.05,3.04-5.26l1.34.96c.16-1.77.05-3.06-.68-4.86l-1.75,1.47-.09-2.68-2.35-.18,2.24-1.22-2.68-2.32c1.56-2.43,5.22-1.59,6.45-4.57-1.09-.49-3.12,1.6-4.75.26-.5-.41-.79-1.37-1.11-2.46l-2.59-.94c4.83-1.42,9.05,4.82,10.33.14.36.39,2.23.51,2.17-.11-.18-1.86-1.87-3.14-3.42-3.66-5.76-1.92-8.65-.84-13.8-4.04.07,1.5.8,2.65,1.9,3.88l-5.24.94c1,.93,1.85,1.41,2.81,1.81-1.66.94-3.27,2.13-4.77,3.46l1.86.5-3.46,4.69c1.16.47,2.02.54,3.11.4ZM31.86,15.43l-.06,1.08c-.01.19.57.18,1.23.27l-.82,2.34,1.75-.02c.31,0,.06,1.08.08,1.39l.07.79c.02.19.44.1,1.24.13l-1.88,1.59-.11-3-2.32.38.77-2.48-1.53-.56,1.59-1.9Z"/>
      <path class="cls-1" d="M48.02,12.32c-.55.17-1.25,1-1.62,1.59-2.52,4.04-3.73,2.4-6.48,4.53l3.44,2.82c1.47,1.2,3.1,1.96,4.95,2.94.03-2.16-.19-3.67-.81-5.1-.8,1.62.11,2.4.18,3.87l-6.64-4.54c3.25-.41,11.47-1.65,11.71,3.07,1.15-1.39,1.53-3.2,1.03-5.13-.62-2.4-4.09-4.55-5.76-4.04Z"/>
      <path class="cls-1" d="M9.05,12.11l-.3-2.19,3.84,1.75-2.37-4.43C6.54,5.43,3.34,3.24.79,0c-.14,5.71,3.61,9.79,8.27,12.11Z"/>
      <path class="cls-1" d="M9.71,17.51l-.23-1.59,2.67.44C7.96,11.31,5.39,12.58,0,8.05c.63,5.31,5.02,7.73,9.71,9.45Z"/>
      <path class="cls-1" d="M11.25,21.07l1.65-.38-3.32-2.3-8.12-2.27c1.33,3.77,6.22,5.79,10,6.05-.04-.3-.46-1.04-.21-1.1Z"/>
      <path class="cls-1" d="M14.27,24.49l-2.31-1.51-6.65.47c2.2,2.18,5.58,3.18,8.58,2.29l-.41-.82c-.06-.12.49-.28.79-.43Z"/>
      <path class="cls-1" d="M10.39,28.29c2.66,1.41,5.29,1.19,7.37-.39l-3.48-1.23-3.89,1.62Z"/>
      <path class="cls-1" d="M20.4,29.69c-2.02-.83-3.61-.25-4.78,1.19,1.9.57,3.73.14,4.78-1.19Z"/>
      <path class="cls-1" d="M44.28,19.39l1.82,1.66c.38-1.9-.85-1.74-1.82-1.66Z"/>
      <path class="cls-1" d="M41.27,13.67c.36.03.93-.04,1.33-.12l-1.86-1.48c-.12.45.17,1.58.53,1.61Z"/>
    </g>
  </g>
</svg>