<?xml version="1.0" encoding="UTF-8"?>
<svg id="Warstwa_2" data-name="Warstwa 2" xmlns="http://www.w3.org/2000/svg" viewBox="0 0 54.36 55.28">
  <defs>
    <style>
      .cls-1 {
        fill: #fff;
      }
    </style>
  </defs>
  <g id="icon-v9-equipment-pixarts-store">
    <g id="icon-v9-equipment-pixarts-store_162">
      <path class="cls-1" d="M54.05,26.9l-1.97,1.39c.86,2.93.88,5.76.65,8.96,1.95-3.16,1.8-6.79,1.32-10.35Z"/>
      <g>
        <path class="cls-1" d="M3.75,47.53c6.27,9.4,15.7,9.01,25.61,5.31-3.44-2.64-6.04,1.46-13.27-.12-5.96-1.3-4.45-5.38-7.46-10.28-1.22,1.98-1.19,3.83-1.37,6.02-.63-2.34.33-4.64.73-7.09.28-1.68.54-3.2,1.04-4.84,1.66-5.36.55-7.33,4.77-9.02l-4.94.06c-1.83-.95-2.91-2.61-4.39-4.3-5.32,8.31-6.32,15.88-.73,24.26Z"/>
        <path class="cls-1" d="M32.7,30.44l1.06,1.01c1.6-2.83,3.35-5.18,1.29-8.9-1.21-2.18-3.39-2.57-5.45-3.6l1.84-.2c1.26-2.29,1.27-5.21-.61-7.4-1.75-2.04-4.78-3.55-7.56-2.94-3.74.82-5.81,4.63-5.31,8.33.4,2.94,2.95,5.57,5.85,5.53,1.06-1.09,1.97-2.49,3.47-2.58-3.23,1.89-4.42,6.33-2.08,9.08.23.27,1.08.73,1.25,1.02.56.98,1.93,1.33,3.08,1.18.55.23,1.94,1.2,2.22.67.43-.82.72-1.39.93-1.19ZM20.5,19.14c-1.19-1.05-1.47-2.58-1.42-4.1.86,2.59,2.51,4.02,5.41,5.13-1.28,1.15-2.95-.12-3.99-1.03ZM29.69,25.44c.46,0,.83.37.83.83s-.37.83-.83.83-.83-.37-.83-.83.37-.83.83-.83ZM26.47,28.1c-.28-.25-.49-1.12-.43-1.59.04-.29.9-.22,1.12-.04.22.18.58.74.58,1.02,0,.37-.99.86-1.27.61ZM29.84,29.98c-.69-.02-1.71-.58-1.52-1.23.32-1.07,1.58-.95,2.51-.15.47.4-.39,1.39-.99,1.37ZM34.08,28.66c-.63.22-1.39-.48-1.13-1.17.22-.6.48-1.07.74-1.3.26-.23,1.42.31,1.36.75-.1.67-.58,1.58-.96,1.72ZM33.58,23.48l1.53.61c.17.07.11.97-.07,1.03l-.67.22c-.23.08-.37-.5-.74-1.26l-.58,1.32c-.22-.14-.68-.78-.76-1.16-.08-.38.93-.91,1.29-.77Z"/>
        <path class="cls-1" d="M33.37,51.21c3.17-1.86,6.06-3.56,8.72-6.06.73-.69.91-2.49.95-3.43-1.3,1.16-2.27,2.06-3.58,2.92l3.5-5.19c-1.4-.91-2.08-1.76-2.83-2.87l-2.77,2.2c1.2-2.57,3.43-4.14,3.36-7.32-2.75,6.04-7.91,9.69-14.59,12.88,1.47,1.89,3.19,3.53,5.02,5.04l2.24,1.83Z"/>
        <path class="cls-1" d="M9.72,25.26l9.79.07c.98,0,2.01-.54,2.77-1.06-1.37-.43-2.35-.72-3.38-.86l-7.4-.97c-.65-.09-1.55.32-1.99.82-.35.4-.31,1.68.2,2.01Z"/>
        <path class="cls-1" d="M12.84,30.1l2.73,1.53,5.98-3.5c.99-.58,1.57-1.51,1.02-2.63l-7.78,3.15c-.61.25-1.65,1.12-1.95,1.45Z"/>
        <path class="cls-1" d="M12.34,31.6l-2.34,7.99c.28.74,2.37,1.18,2.59.4l2.12-7.57c.13-.66-2.16-1.52-2.36-.82Z"/>
        <path class="cls-1" d="M35.33,20.56c.71-.48,2.04-1.59,2.77-2.28,1.6-1.51,3.32-2.76,5.07-4.11.42-.32-.5-1.62-1.01-1.69-.44-.07-1.49-.03-1.81.34l-5.48,6.24c-.17.19-.38.81-.45,1.01-.07.2.74.6.91.49Z"/>
        <path class="cls-1" d="M25.91,51.2c-2.23-1.59-4-3.01-6.01-4.95l-4.01.34c1.73,1.86,3.02.03,4.94.84l-2.91,1.29c2.09,3.52,4.29,3.34,7.98,2.47Z"/>
        <path class="cls-1" d="M18.57,37.05l3,8.17c.32.05,1.2-.18,1.54-.43,1.14-.86-1.09-5.96-1.76-7.58-.27-.65-2.09-.5-2.77-.16Z"/>
        <path class="cls-1" d="M47.86,36.05l-1.91-8.12c-.81-.12-2.25.83-2.08,1.65.45,2.13,1.22,7.74,2.93,7.59.39-.03,1.17-.65,1.06-1.12Z"/>
        <path class="cls-1" d="M43.88,22.1c.99-.1,1.63-.34,1.8-.92.17-.59.03-2.07-.51-1.96l-8.21,1.74c-.34.07-.94.54-.89.82.06.28.73,1.04,1.11,1l6.69-.68Z"/>
        <path class="cls-1" d="M52.83,26.99c.35-.12.89-1.21.59-1.49l-5.96-5.47c-.6.11-1.23,1.49-1.11,2.06l4.75,4.64c.32.31,1.31.4,1.72.26Z"/>
        <path class="cls-1" d="M23.31,28.21c-1.9,2.55-3.44,4.78-5.14,7.77l3.42-.1,2.4-5.23c.25-.54-.38-1.89-.68-2.44Z"/>
        <path class="cls-1" d="M34.33,10.21l-1.24,9.11c1.73-.71,3.76-8.1,4.05-9.78-.66-.97-2.66-.4-2.81.68Z"/>
        <path class="cls-1" d="M9.16,21.87l-3.01-3.89c-.35-.45-1.13-.92-1.63-.89-.49.02-1.27.69-1.54,1.21l5.04,6.08,1.15-2.51Z"/>
        <path class="cls-1" d="M37.07,24.12c.03.84.42,2.26,1.07,2.55l4.9,2.16,2.45-2.2-8.41-2.52Z"/>
        <path class="cls-1" d="M12.44,19.19l7.86,3.65-2.47-2.77c-.93-1.04-1.9-1.95-2.91-2.76-1.16-.92-2.88-.61-3.53.62.05.28.67,1.09,1.05,1.26Z"/>
        <path class="cls-1" d="M42.68,5.4c-.45-.25-1.35-.39-1.84-.21-.43.16-.61,1.1-.51,1.6l.93,4.65,2.78,1.14-1.36-7.18Z"/>
        <path class="cls-1" d="M49.66,28.39l-1.91-1.87c-1.1-1.08-3.2-3.58-5.05-2.35,1.26.66,3.52.77,4.28,2.07,1.62,2.8,1.73,6.05,2.66,9.35,1.18-2.06,1.62-5.21.03-7.2Z"/>
        <path class="cls-1" d="M22.04.57l7.4,3.26,1.49-.87-.84,1.6,3.89,4.27,2.71-.65C31.6,2.28,29.56.86,22.04.57Z"/>
        <path class="cls-1" d="M9.76,10.53l1.09,6.11,2.22-1.09-.83-4.5c-.08-.45-.86-1.01-1.21-1.17-.3-.13-1.33.31-1.27.66Z"/>
        <path class="cls-1" d="M15.77,49.43c-1.44-2.67-2.55-5.14-3.24-8.17l-2.12-.1c1.03,3.2,2.28,6.33,5.36,8.27Z"/>
        <path class="cls-1" d="M43.94,46.78c2.18-2.64,3.25-5.64,3.7-8.82l-2.01.27-1.7,8.55Z"/>
        <path class="cls-1" d="M24.58,45.48c-.55-.16-1.67.28-2.01.76,2.42,2.39,4.96,4.2,8.15,4.99-2.26-1.72-4.3-3.57-6.14-5.75Z"/>
        <path class="cls-1" d="M45.03,14.91l-4,3.42,3.54-.53c.98-.15,1.98.36,3.36.71-.85-1.41-1.72-2.43-2.9-3.6Z"/>
        <path class="cls-1" d="M3.76,9.14c-1.41,2.57-1.47,5.18-1.01,7.92l1.83-.94c-.51-2.74-.71-4.71-.83-6.98Z"/>
        <path class="cls-1" d="M14.13,2.9c-2.07,1.46-3.32,3.68-4.11,6.19l1.92.19,2.18-6.38Z"/>
        <path class="cls-1" d="M35.95,0l3.88,4.63,1.93-.45c-1.73-1.91-3.35-3.5-5.81-4.18Z"/>
        <path class="cls-1" d="M28.34,32.37c.36,1.86,1.56,3.08,3.62,3.25l-.91-2.19c-.43-1.04-1.67-1.51-2.71-1.05Z"/>
        <path class="cls-1" d="M36.36,29.2c-1.37,1.42-1.22,3.07-.62,4.82,1.37-1.15,1.8-3.2.62-4.82Z"/>
        <path class="cls-1" d="M17.72,32.67c-2.01,1.08-2.25,3-2.48,4.91.75-.72,1.26-1.63,1.67-2.74l.81-2.16Z"/>
      </g>
    </g>
  </g>
</svg>