<?xml version="1.0" encoding="UTF-8"?>
<svg id="Warstwa_2" data-name="Warstwa 2" xmlns="http://www.w3.org/2000/svg" viewBox="0 0 56.73 56.85">
  <defs>
    <style>
      .cls-1 {
        fill: #fff;
      }
    </style>
  </defs>
  <g id="icon-v9-equipment-pixarts-store">
    <g id="icon-v9-equipment-pixarts-store_17">
      <path class="cls-1" d="M28.33,56.76c1.16.39,2.81-.61,3.01-1.5l1.92-8.64c-.73-.72-1.69-1.36-2.69-1.82-8.8-4.04-17.74-6.95-27.63-8.2-1.19,2.83-2.08,5.61-2.84,8.44-.41,1.55.5,2.57,1.84,3l11.47,3.69,14.91,5.03ZM5.44,44.05c-.3-.23-1.15-.07-1.4.09.34.53.94,1.3.96,1.77.03.8-1.43,1.31-2.05,1.14-3.19-.84-.28-6.11.52-9.07,6.93.83,13.22,2.81,19.64,5.17,3,1.1,5.68,2.21,8.51,3.8-.8,3.35-.55,8.29-4.06,8.1-.75-.04-2.01-.64-2.34-1.34-.16-.33.09-1.69.44-1.75l1.75-.29c-.51-1.02-1.67-1.23-2.44-.85-.89.44-1.25,1.27-1.53,2.78l-17.64-5.96.29-2.3c.04-.31-.4-1.1-.64-1.29Z"/>
      <path class="cls-1" d="M45.37,22.35l6.16-5.13c-3.09-7.58-12.88-14.89-21.01-14.8-5.17.06-10.06,1.65-14.37,4.44l1.35,6.02c.47.4,2,.43,2.36-.04.27-1.25,1.08-2.19,2.77-1.88-.2-.87-1.05-2.26-1.85-2.65-.22-.11-1.15.22-1.05.43l.5,1.12c.17.38-.75.94-1.17.93-.41,0-1.36-.45-1.5-.86-.45-1.25-.07-2.79,1-3.57.92-.67,2.4-.42,3.61.04.43-1.3,1.27-3.17,3.2-2.98.39.04,1.13.46,1.35.76.22.3.24,1.33-.13,1.41l-1.8.4c-.5,1.86-.06,3.52.96,5.61,0-1.49,0-3.42.79-4.96,1.33-2.6,4.64-3.72,7.38-3.16,2.64.54,4.24,2.71,4.82,4.88.72,2.67-.23,4.92-2.25,6.86,2.64-.49,4.64-2.52,4.86-4.98l-1.9-1.32c.65-.98,1.65-1.47,2.48-1.37.63.08,1.68.77,1.99,1.49.41.98.25,2.26.1,3.27,2.56-.02,4.93,1.65,4.86,4.4-.02.9-.62,2.06-1.27,2.42-.77.42-2,.34-2.63-.3-.26-.27-.7-1.38-.38-1.56l1.19-.66c.41-.23-.68-1.33-1.2-1.34-1.24-.03-2.68.48-3.53,1.08.81.69,1.53,1.21,1.74,1.71.18.44-.08,1.5-.21,2.19l2.82,2.1Z"/>
      <path class="cls-1" d="M41.6,30.01l1.79-4.88-2.48-1.89c.04.88.1,1.4-.15,1.72-.2.26-1.18.13-1.52-.05-.37-.2-.7-1.19-.62-1.62.1-.5,1.03-.4,2.13-.03-5.69-3.93-14.1-6.86-21.63-7.1-.69-.02-2.34-.17-2.62.45-.68,1.49-1.05,2.67-1.23,4.07l1.51-1.88c.33-.41,2.05-.03,2.19.29l.03,2.14,3.06.37c.48-.98.98-1.98,1.55-1.89.64.1,1.55.5,1.99.77l-.55,2.07,4.23,1.29c.48-.85.9-1.92,1.45-1.92.64,0,1.83.32,2.15.77.28.4-.06,1.46-.37,2.41l4.05,1.99c.63-.9,1.04-1.99,1.56-1.85.62.17,1.45.47,1.81.78.36.31.09,1.58-.14,2.32-.18.57.78,1.25,1.81,1.67ZM18.18,18.21c-.4-.01-1.09-.62-1.15-.99-.06-.39.57-.93,1.44-.96.52-.02,1.25.65,1.23,1.01-.03.47-.82.96-1.52.94ZM25.08,19.2c-.57-.08-1.61-.81-1.35-1.3.43-.8,2.14-1.14,2.66.21.21.53-.76,1.16-1.32,1.09ZM32.43,21.46c-.85-.33-1.72-1.07-1.06-1.83.54-.62,2.64.04,2.57.84-.1,1.12-1.01,1.18-1.51.98Z"/>
      <path class="cls-1" d="M31.96,44.29l1.28.55,1.51-5.22-1.72-1.04c-.02.82-.03,1.19-.07,1.55-.03.23-1.78.73-2.77-.74-.19-.28.3-1.24.63-1.21l1.69.17c-6.84-3.26-14.16-5.75-22.07-7.06-.77-.13-1.82-.05-2.53.05l-1.41,3.92c-.07.19.44.93.51.74l.26-.68c.21-.55.76-1.43,1.24-1.4.53.03,1.65.23,1.86.67.18.37-.04,1.23-.18,2.03l3.69.96c.35-.7.75-1.59,1.07-1.97.39-.47,2.17.03,2.43.58.21.45-.11,1.58-.23,2.27l3.99,1.3.95-1.61c.58-.8,2.59.09,2.71.89l-.57,1.89,4.4,1.77c.45-1.16.67-1.95,1.07-1.96.87-.04,2.45.52,2.49.9.15,1.44-.84,2.41-.25,2.67ZM9.98,33.6c-.82.02-1.85-.9-1.17-1.81.41-.55,1.96-.19,2.67.25-.29,1.14-.72,1.53-1.49,1.55ZM17.03,35.12c-.48-.08-1.56-.61-1.56-1.09,0-.51.77-1.24,1.17-1.23.41.01,1.19.46,1.56,1.14.23.43-.76,1.25-1.17,1.18ZM25.19,37.24c-.35.18-1.03.09-1.62-.14-.31-.12-.83-.82-.8-1.14.03-.32.65-.95.95-.83l1.67.65c.35.14.1,1.31-.2,1.46Z"/>
      <path class="cls-1" d="M36.09,36.65l1.3.56,1.43-5.01c-.69-.66-1.92-1.23-2.56-1.38.48.49.86.86.99,1.17.11.25-.36.84-.63.86-.77.06-1.7-.18-2.2-.9-.17-.25-.01-1.05.29-1.1l1.5-.27c-6.89-3.76-14.51-6.1-22.22-6.85l1.44.59c.22.09.2.97-.03,1.03l-1.12.3c-.43.11-1.71-.59-1.49-.97.18-.33.63-.74,1.14-1.21l-1.33.15c-.33.04-.64.82-.74,1.16l-.99,3.49c.29-.05.77-.48.82-.76.23-1.11,1.11-1.65,2.4-1.08.59.26.62,1.16.36,2.38l3.42.82c.42-.78.79-1.49,1.06-1.89.27-.4,1.68,0,2.19.29.52.3.21,1.57-.07,2.49l4.25,1.32c.4-1,.69-1.99,1.24-2.03.68-.06,1.89.2,2.17.67.29.47-.09,1.73-.35,2.58l4.32,1.94.96-1.83c.23-.43,2.39.35,2.52.73.43,1.34-.55,2.58-.08,2.78ZM21.16,27.1c-.84.04-2.04-.62-1.44-1.62.3-.49,1.77-.26,2.48.33.4.33-.53,1.27-1.04,1.29ZM29.56,28.64c-.12.58-1.12.88-1.53.74-.57-.2-1.29-1.03-.93-1.69.17-.31,1.03-.55,1.36-.43.4.15,1.19.97,1.11,1.38Z"/>
      <path class="cls-1" d="M13.8,6.06l2.05,6.7c.06.19.23.71.38.64.11-.06.27-.15.37-.21.09-.06.1-.47.08-.58l-1.39-6.1c2.33-1.85,4.9-2.86,7.61-3.78,6.58-2.24,13.27-1.37,19.19,2.61,4.58,3.08,8.47,6.86,10.37,12.09.02-.04-8.92,6.82-5.87,6.33.15-.02.59-.14.74-.28,2.03-1.82,4.73-3.75,7.42-5.3-3.08-7.73-9.25-14.07-17.11-17-7.69-2.87-17.51-.2-23.83,4.88Z"/>
      <path class="cls-1" d="M10.92,22.32l-1.86,4.95c-.11.29.07.95.32.91.2-.04.67-.38.77-.64l1.83-4.85c8.37,0,21.04,4.09,27.75,9.12l-1.51,6.27-.34,3.19c-.02.16-.15.84-.06.74.09-.1.7-.38.77-.62l2.87-10.02c-8.63-5.98-18.25-9.09-28.5-9.86-.5-.04-1.83.31-2.02.83Z"/>
      <path class="cls-1" d="M37.26,38.58c-7.82-4.52-21.65-9.78-30.48-9.39l-2.22,6.6c.59.06.99-.17,1.11-.49l1.91-4.94c8.41-.05,20.91,4.7,28.11,8.65l-1.59,6.62c-.22.92.02,2.44.22,3.55l2.94-10.6Z"/>
      <path class="cls-1" d="M13.31,20.11c-.06.17.63.52.72.37.09-.15.35-.58.42-.75l1.84-4.38c8.52-1.03,20.02,3.12,26.85,8.07.79.58,1.22,1.62.91,2.45-1.14,3-2.14,5.64-1.84,9.07l3.46-9.14c.34-.89.06-1.76-.7-2.43-7.03-5.76-20.33-10.55-29.44-8.95l-2.22,5.69Z"/>
      <path class="cls-1" d="M45.69,14.96c.5.23,1.21,1.41,1.02,1.87-.17.4-.64.7-1.33,1.3.6.33,1.61.48,1.96.17.31-.28.7-1.08.72-1.6.05-1.35-.84-2.46-1.82-2.95-1.09-.55-2.4-.46-3.73-.21.68-1.5,1.74-4.02-.11-5.01-.4-.22-1.34-.13-1.88.05,1.46.84,1.75,1.99,1.13,3.47-1.1,2.64-3.73,3.66-6.67,4.44,3.72,1.68,6.91-3.31,10.71-1.52Z"/>
      <path class="cls-1" d="M49.4,41.38c-1.01,1.44,2.3,4.9,3.58,5.11l-.88-2.22,3.08,1.78c-.16-2-1.19-2.01-1.97-3.29,1,.37,1.87.78,2.86,1.27-.94-2.95-5.84-3.83-6.67-2.65Z"/>
      <path class="cls-1" d="M26.59,14.01c-1.77-2.22-2.98-4.4-2.67-7.1.15-1.29.89-1.85,2.3-1.96-.21-.24-.66-.67-.95-.79-1.12-.47-2.5,1.56-2.43,3.62-1.09-.77-2.45-1.57-3.8-.78-.44.26-.98,1.08-1.07,1.51-.11.56.18,1.6,1.24,1.51-.05-.82-.24-1.65.17-1.99,3.06-2.48,4.44,6.26,7.2,5.98Z"/>
      <path class="cls-1" d="M35.94,13.27l-2.99-2.57c-.64,1.2,1.74,1.59,1.28,2.23-.07.1-.29.35-.37.26l-.42-.46-1.49-1.65,2.15-2.18c-.72.34-1.74.92-2.17,1.32-.48,1.11-.74,2.77-.77,3.96,1.5,1.38,3.94,1.08,4.79-.91Z"/>
      <path class="cls-1" d="M30.88,5.45c.04.97.44,2.14.8,2.87l1.43-2.07c-.08,1.11-.21,1.32-.56,2.29.49.08,1.58-.11,2.22-.38.51-.21,1.05-1.32.83-1.91-.73-1.95-3.29-1.97-4.72-.81Z"/>
      <path class="cls-1" d="M29.97,14.14c.38-.07.95-.9,1-1.32l.2-2.58-2.33.59c.42-1.14,1.37-.95,2.42-1.23l-2.34-.98,2.13-.16-1-2.55c-1.82-.3-3.06,2.02-2.59,3.28.23.29,1.13.21,2.01.25l-2.03,1.06c.11,1.49.72,3.97,2.53,3.63Z"/>
      <path class="cls-1" d="M34.93,11.5c.13.46,1.63,1.05,2.04.66,1.25-1.23,1.11-3.33-.19-4.26-.52-.38-2.03.61-2.04,1.07.74.07,1.76,1.01,1.41,1.5-.25.34-.81.73-1.22,1.03Z"/>
      <path class="cls-1" d="M48.97,40.88c.55-.51.55-1.72.08-2.05-.52-.36-1.43-.33-1.88.04-.82.69-1.05,1.47-.4,2.22.44.51,1.37.54,2.2-.22Z"/>
      <path class="cls-1" d="M55.01,34.07l-.8,2.33c1.38.13,2.31.08,2.44-.37.12-.42.1-1.24,0-1.66-.1-.42-1.5-.72-1.64-.3Z"/>
      <path class="cls-1" d="M40.36,17.85l1.46,2.06c.26-.43.41-1.34.17-1.64-1.08-1.35-3.16-1.68-4.35-.63l1.53.77c.26.13.88-.46,1.19-.55Z"/>
      <path class="cls-1" d="M20.92,12c-.1.08.05.77.08.9.03.12.19-.15.28-.26l.43-.54c.41.58.67.97.89,1.23s1.26.06,1.55,0c-.34-1.39-2.46-1.95-3.23-1.33Z"/>
      <path class="cls-1" d="M54.13,34.89c-.08-.28-1.09-.87-1.49-.78-.4.08-.98.69-1.17,1.04.75.76,2.06.81,2.66-.26Z"/>
      <path class="cls-1" d="M47.78,33.12c.32.21,1.24-.16,1.33-.53.18-.86-1.71-1.67-2.31-.92-.11.36.56,1.19.98,1.45Z"/>
      <path class="cls-1" d="M51.76,34.01l-1.48-.96c-.29-.19-.97.36-1.35.74.04.25.81.88,1.2.89.39.02.96-.29,1.63-.68Z"/>
      <path class="cls-1" d="M45.74,28.8c-.4,1.21-.43,2.05.1,2.18.37.09,1.14-.14,1.52-.38l-1.62-1.8Z"/>
      <path class="cls-1" d="M45.93,38.47c.84-.4.35-1.48-.11-1.63-.35-.12-1.32-.01-1.36.34-.04.49,1.02,1.5,1.47,1.29Z"/>
      <path class="cls-1" d="M43.32,35.43c0,.48.39.87.87.87s.87-.39.87-.87-.39-.87-.87-.87-.87.39-.87.87Z"/>
      <path class="cls-1" d="M6.77,47.09l15.92,5.47c.46-1.25,1.25-2.28,2.27-2.54,1.11-.28,2.53.1,2.98,1.3.15.39-.09,1.25-.43,1.27-.28.02-1.2.18-1.33.44-.3.58,1.34,1.44,1.94,1.24.79-.27,1.34-.87,1.54-1.76l.9-4.08c.07-.3-.2-1.17-.46-1.21l-.84-.16c.07.9.21,1.69-.18,1.84-.33.13-1.3.19-1.71.11-.56-.11-1.36-.98-1.35-1.48.02-.61.8-1.12,1.73-1.49-7.54-3.18-15.21-5.96-23.66-7.04-.41.64-3.04,8.08-.78,7.29.3-.11.81-.33,1.04-.45-.72-.82-1.15-1.47-.84-2.05.28-.53,1.35-.8,1.83-.57,1.62.77,1.66,2.43,1.42,3.88ZM4.25,41.09c-.28-.18.09-1.24.37-1.41.41-.24,1.66-.13,2.25.14.36.17.52,1.21.28,1.5-1.01,1.18-2.3.17-2.9-.23Z"/>
      <path class="cls-1" d="M26.79,47.09c.12.46.34.95.59,1.15.25.2,1.1.1,1.46-.11-.61-.75-1.29-1.09-2.05-1.03Z"/>
    </g>
  </g>
</svg>