<?xml version="1.0" encoding="UTF-8"?>
<svg id="Warstwa_2" data-name="Warstwa 2" xmlns="http://www.w3.org/2000/svg" viewBox="0 0 57.97 60.47">
  <defs>
    <style>
      .cls-1 {
        fill: #fff;
      }
    </style>
  </defs>
  <g id="icon-v9-equipment-pixarts-store">
    <g id="icon-v9-equipment-pixarts-store_62">
      <path class="cls-1" d="M55.49,7.08l-2.84,1.26c-.48,1.39-.85,3.02-1.56,4.07l-2.7,4c-1.1,1.62-3.09,2.72-5.08,3.5,2.49-4.18,9.24-9.8,8.94-14.88-.05-.82-1.57-1.77-2.43-1.61l-3.44.65.55.7c.19.24-1.33.75-1.92,1.55-1.11,1.51-2.81,2.49-4.2,3.58-1.86,1.46-2.36,4.42-4.96,5.49.9-2.27,1.82-4.91,3.4-6.63,1.62-1.75,5.76-4.84,3.57-7.32-2.37-2.67-10.17,4.14-12.1,5.95l-.75-4.24c1.59-.7,2.42-1.26,2.76-2.46-.89.64-1.52,1.11-2.43,1.65-2.4,1.43,1.07,4.07-.44,5.02-.75.47-1.79,1.12-2.2,1.85l2.56-.65c-.14,2.19-1.61,2.8-2.57,4.08-1.45,1.94-2.3,4.27-4.98,5.28l.63-2.93c2.64-2.55,1.97-8.4-.47-8.37-.35,0-1.07.42-1.28.74-1.48,2.15-3.36,4.1-5.51,5.54l-1.38,4.13c-1.17-3.97-3.8-3.7-2.75-4.85l2.7-2.95,2.98-.57-2.99-.74-1.48-4.23c-.37,3.48,2.5,4.14-1.63,7.43l-1.57-2.97-2.74.72-2.65-3.86c.41,1.62,1.24,2.99,2.07,4.22l3.21-.24.69,4.25,1.82,2.1,1.24,3.07c-1.52,5.32.62,6.02-2.46,7.18-1.47.56-2.61-2.36-4.43-1.56-1.42.62-.86,4.59-2.44,4.52-1.44-.06-2.58-1.04-3.81-.34l3.94,1.14c1.64.47,2.33-3,2.29-4.34,2.15-1.51,1.98,2.83,5.8,1.13,1.99,3.61-1.93,9.53-3.47,8.92-.52-.21-1.04-.98-.88-1.45l.84-2.52-3.33-2.03c.26,1.18,1.18,1.69,2.01,2.37.5.41-.31,1.71-.74,2.48-.29.51.59,1.5,1.32,2.16-2.39,2.81-5.17,3.54-8.18,6.37,1.05,1.53.54,2.47.09,4.25l3.02-.46c-.83,1.38-1.56,2.59-2.18,3.92,1.59-1.62,3.15-2.39,5.49-1.92-2.08,6.72-3.35,5.71-6.24,11.39l6.56-3.26c.6.64,1.22,1.18,1.73,1.27,1.16.21,1.77-1.87,2.77-2.21.7.65,1.17,1.25,1.6,1.25,1.21.01,2.54-1.98,3.94-1.35l-2.82,5.18,2.44-1.26,1.65.58c2.36-1.91,3.47,2.02,4.47.03l4.32-8.5c.12-.24.58-.79.77-.74l.85.22c-.58-2.01,1.85-5.27,2.9-5.74,2.31-1.03,4.39-2.08,6.52-3.32.7-.23,2.3.23,2.96.55-3.76,3.39-.9,4.44-3.52,5.62-1.32.6-2.44.81-3.91,1.05-1.66.27-2.02,2.8-1.75,4.29l1.13-3.27c.57-.92,3.4-.9,3.73.1l.39,4.69c.86-2.83-.45-6.02.79-6.21,1.63-.25.52,1.77,3.41,1.76l2.84-.02-.13,2.6c.76.78,1.92,1.53,2.91,1.79-3.53-2.58-1.52-5.22-2.61-5.3l-1.12-.07c-1.23-.08-2.53-.29-3.54-.89.83-4.06-.14-3.19,2.71-5.71.52-1.21-.87-2.39-2.41-2.8,1.77-2.19,3.89-3.88,6.15-5.11l2.93.42c.09,1.68-.25,3.38-1.01,4.99-.47,1-.3,3.02,1.15,2.82,1.17-.15,2.52-2.01,3.96-1.36.88.4,1.81,1.28,2.94,1.99-.46-.94-1.53-2.37-2.6-2.76-1.51-.54-2.81.71-4.43,1.11-.12-.9.38-2.69,1.13-3.51,3.08-.44,1.16,1.39,5.57-1.11-2.1.4-3.73.92-5.33.32l-.25-1.93c-.15-1.14-.65-1.56-2.13-2.39l5.88-3.19c1.06-2.65,4.15-5.06,3.65-8.49-.14-.97-2.52-.96-3.19-.33-3.38,3.16-2.69,4.35-6.51,4.56,4.14-3.59,4.58-2.56,7.11-7.58.63-1.24,2.38-6.08.51-7.25-.56-.35-1.53-.21-2.44.07-.14-4.04,4.54-2.44,2.6-5.94-1.75-3.13,2.22-3.38,2.51-5.25l-3.79,2.18c.12,1.42.67,3.13,1.31,4.9ZM10.65,36.03c.95-.82,1.86-1.83,2.81-2.8l2.82,2.12-1.77-2.45,1.38.27c-1.22-.9-1.65-1.6-1.64-3.16l.03-7.89c0-.31.54-.91.78-.89.32.02,1.22.32,1.33.61l2.06,5.44,5-1.72c.36,1.26,1.08,2.87.87,3.78l-1.56,6.56-5.7,1.61c-.27.08-.74.87-.97.8l-1.11-.37c-1.31-.44-2.91,1.11-3.72,2.17l-4.43-.79,3.83-3.29ZM3.91,47.45l2.22-3.44-4.89,1.73.37-3.56,3.75-2.25,1.31.77c1.64-.9,3.1-.25,4.3,1.03l1.36-1.83c.61-.83,1.87-1.25,2.85-1.01l-.32,5.28-4.35,2.74-6.61.52ZM21.6,59.12l-1.22-1.47-2.59,1.14c-1.15-5.52,4.14-5.55,2.73-7.68l-1.65-2.5,1.82-1.41-.87-2.54.1,2.02-2.42,2.05c.93.94,1.59,1.83,2.15,2.91-.9.71-1.61,1.37-2.34,1.76l-4.44,2.37-1.16-1.9-3.27,3.24c-.5-.49-.7-1.41-.75-2.32l-3.09.99c.8-1.33,1.72-2.46,2.32-3.7.65-1.35.8-2.82,2.39-3.29,4.57-1.36,3.32-2.05,7.65-3.56-.19-1.89-.41-4.04.17-5.91l4.94-1.64.11,2.28,2.52,1.75-.08,2.55c-.01.41.78,1.4.57,1.75l-.92,1.49c.63.22,1.84.96,2.1,1.61-2.33,4-2.56,6.52-4.77,10.01ZM28.2,46.3c-.12.47-.76,1.42-1.15,1.81-.23.07-1.02-.53-1.21-.79-.22-.31.44-1.19.33-1.59-.29-1.1-.57-2.62-.44-4.11.07-.77-1.46-1.42-2.28-1.89-.59-.34-.11-2.23.44-2.54l6.21-.94,1.44,3.54c.57,1.39.85,2.03,2.66,2.6-4,2.52-5.06.26-6.01,3.9ZM34.99,41.8c-1.99.32-2.91-1.54-2.83-3.11l3.8-.77,1.78,1.84c-.59.66-1.86,1.89-2.75,2.04ZM44.23,28.12c7.81-1.43,5.89-1.69,10.08-5.82.54-.54,1.79-.83,2.27-.2-.61,2.42-1.81,5.09-3.33,6.88-4.58,3.02-6.14,2.63-10.65,6.46-.63.53-1.7,1.08-2.27,1.44-.32.76-1.47,2.02-2.14,1.37-.72-.7-1.42-1.34-2.08-1.27l-4.32.47-.89-2.46c-2.25.55-3.88.81-6.03.81l1.26-3.99c.35-1.11,2.51-1.7,3.68-1.69,4.01.03,6.36-.95,7.34.34,1.37,1.8,2.94,1.56,4.82,1.51,5.55-.14,4.66-4.06,10.1-2.92.77-1.51,1.59-2.9,1.39-4.63l-1.56,3.9-3.36-.09c-1.86,2.48-4.42,2.76-7.04,2.85-1.16.04-2.05.34-3.1-.61l-2.01-1.82,2.27-1.61c1.53-3.51,4.45.19,5.58-3.1.17-.5,1.11-.95,1.62-.95l3.53.04c-1.49,2.02-4.23,2.33-5.15,5.07ZM53.19,12.3c.26-.26,1.07-.45,1.4-.36.41.12.86,1.26.74,1.68l-1.19,4.34c-2.42.99.13,1.72-4.3,4.51-.15-1.92.42-3.37,2.36-3.81l.26-4.23-1.03,3.47c-1.05.75-1.85,1.52-2.05,2.77-.59,3.72-4.82-.36-6.46,4.01l-3.29.21c-1.61,2.01-4.16,4.43-6.99,3.91l1.11-5.02c.51-2.31,4.97,1.21,5.96-6.43l1.95-1.85c.6-.56,1.89-1.15,2.63-1.48,1.33-1.63,2.36-3.77,3.26-5.59-2.25,1.4-1.87,3.92-4.09,4.97l-.91-2.19c.61,4.42-3.49,2.43-4.08,7.36-.22,1.82-1.29,2.83-2.98,3.04-3.95.49-3.25,3.01-4.18,6.3l-5.82,1.11-.84-4.69-5.01.94c-.93-1.75-1.9-3.49-2.69-5.32-.62-1.44,1.47-3.07,2.51-3.51-.43-.83-.81-1.95-.79-2.9l2.78-.91c.21-.82.44-2.04.56-2.98-.87,1.87-.98,2.91-3.15,2.93-.56,0-1.12,1.35-.89,1.95,1.23,3.18-2.67,2.33-1.39,6.3l-1.75-.62,2.09-6.45c1.42-1.57,3.99-3.24,4.78-5.37.13-.34.85-.85,1.12-.77,2.15.68.79,5.48-.54,7.15-.57,1.61-.72,3.52-1.12,5.63l2.9-1.63.47.96c.06.12.3.15.32.02.42-3.85,5.32-6.74,6.98-10.13,1.26,4.7-1.71,2.02-.72,5.98l-1.89,1.2.59,2.55c-.24,1.24-.54,2.79-.5,3.88l1.25-3.97-.48-1.46c-.13-.39.74-.91,1.15-1.15l.77-.45c.2-.12-.08-.69-.23-1.08-.37-.94.1-1.73,1.14-2.4l-.94-3.91c0-1.24,1.55-2.88,2.61-3.5l5.45-3.23c.43-.26,1.44-.33,1.81-.06,1.82,1.28-1.4,4.75-2.94,4.76-.64.07-.43-1.39-.23-2.21-.36.46-.81,1.17-1.33,2.07l-2.17,1.46c1.22.13,2.07-.17,3.22-.52-.63,1.07-5.17,7.91-3.48,9.06,1.74,1.18,5.33-4.64,6.69-5.89l5.03-4.62c.79-.73,2.26-2.1,3.28-1.76,3.89,1.28-3.12,9.42-4.27,10.8-1.76,2.1-3.49,3.82-4.65,6.8,3.18-.96,8.9-3.61,9.43-6.91l2.74-2.74Z"/>
    </g>
  </g>
</svg>