<?xml version="1.0" encoding="UTF-8"?>
<svg id="Warstwa_2" data-name="Warstwa 2" xmlns="http://www.w3.org/2000/svg" viewBox="0 0 44.12 60.84">
  <defs>
    <style>
      .cls-1 {
        fill: #fff;
      }
    </style>
  </defs>
  <g id="icon-v9-equipment-pixarts-store">
    <g id="icon-v9-equipment-pixarts-store_360">
      <path class="cls-1" d="M37.91,26.86l-5.07.04c1.67,1.04,3.72,1.03,5.07-.04Z"/>
      <path class="cls-1" d="M21.61,30.83c.2,1.15,1.03,2.19,1.7,2.12,1.43-.14,2.38-1.46,3.08-2.74l-2.86,1.95-1.92-1.34Z"/>
      <path class="cls-1" d="M27.8,25.76c1.03,1.04,2.05,2.28,2.57,3.55l1.34,3.28,5.02-2.33-1.4,4.18c-.25.75-1.49,1.81-2.09,2.24l1.66,4.97c1.61-1.68,3.44-3.34,5.33-4.84-.53-2.49-1.07-5.37-.51-8.14.21-1.04.05-2.16-.28-3l-1.07.52c-.2.1-.76-.47-.98-.52l-3.98-.87-1.9.9c.58-1.1.99-1.74.91-2.35l-.75-5.57c-1.72,1.37-1.16,3.15-1.13,5.21-.57-1.31-1.03-3.46-.08-4.97.59-.94,1.63-1.42,2.79-2.38l-5.7-2.5c-1.32,3.81-2.11,7.07-2.87,10.96-.08.43-.45,1.09-.86,1.6l.99-6.96-1.49-1.79,1.7.55c1.64-4.37-1.46-2.22-.92-5.07l1.81,1.78c.04-1.15-.12-2.22-.57-3.08l-1.9-3.67-2.78,5.47c-2.96.67-5.6,1.72-8,3.57l2.32,1.78c.41,2.07.04,4.41-.95,6.28-3.07.66-4.09,1.11-5.8-1.02-.47.98-1.14,2.79-.94,3.72,1.58,3.21,1.4,6.24-.9,9.33,3.8,2.2,6.19,5.39,7.88,9.22l2.15-.73-1.67,2.13c1.03,3.39,1.54,6.53,1.82,9.97l3.58,3.69c-.08-1.67-.02-3.46-.5-4.76l-1.19-3.22,1.11.47-1.29-14.65-3.11-1.48c-.88,1.77-1.23,3.16-1.77,5.18-.02-1.83.23-3.55.65-5.62l-1.61-1.34c-.77-1.58-1.44-3.25-1.94-4.92l4.81,2.22,1.69-3.55c.35-.74-1.19-2.14-1.68-2.76l2.24,1.5,2.04-3.48-1.41,4.75c-.38,1.28-1.83,3-.81,4.29,1.12.58,3.3,1.46,4.03,2.46l-.17,5.23,2.32,3.06c.73-.97,2.35-2.37,2.32-3.32l-.15-5.3,4.45-2.13c-.7-4.17-1.38-4.41-2.37-7.71ZM37.91,26.86c-1.35,1.07-3.39,1.08-5.07.04l5.07-.04ZM23.31,32.95c-.67.06-1.5-.97-1.7-2.12l1.92,1.34,2.86-1.95c-.7,1.28-1.65,2.6-3.08,2.74Z"/>
      <path class="cls-1" d="M38.95,0c.05,2.95.26,5.75-.28,8.49-.25,1.27-.23,2.11.22,3.38l-1.13-.07c-.24-.02-.51.64-.69.91-3.19,4.76-5.65,3.55-3.5,10.13,1.97-.46,2.65-2.06,2.7-3.7.57-.12,1.62-.1,1.67-.48l.23-1.53,2.1-2.07c.5-1.51.46-3.21.68-4.89l.37,3.77c.12,1.27-.97,2.52-1.72,3.4-.54,4-2.29,1.08-2.14,4.64-.71.34-1.88,1-2.1,1.74.71.46,2.76.95,3.45.45,1.08-.78,2.14-2.01,2.93-2.96,0-.68-.25-2.19.25-2.53l2-1.38c.66-6.03-1.26-12.42-5.04-17.3Z"/>
      <path class="cls-1" d="M31.19,51.65c.52-3.29,1.69-6.29,3.22-9.17l-2.41-5.21c-1.11.39-2.12.83-3.17,1.42l-1.05,11.31c.47.38.75.73.75,1.08,0,.34-.84,1.16-.9,1.55-.31,2.14-.5,5.36-.57,7.88,1.29-1.02,2.34-1.94,3.17-2.78l.96-6.08Z"/>
      <path class="cls-1" d="M13.44,46.94c-1.24-2.84-2.64-5.55-5.37-7.73.31,3.35-.37,6.11-2.11,8.6,2.78,3.21,5.79,6.42,9.45,8.34.1-3.63-.59-6.58-1.97-9.21Z"/>
      <path class="cls-1" d="M41.06,47.66c.03-.39-.48-1.08-.8-1.53-1.39-2.01-1.04-4.24-1.22-6.94-1.31,1.17-2.44,2.48-3.34,4.08l.08,3.13-1.07-2.09c-2.22,3.83-2.91,7.73-3.28,12.26,3-1.75,5.32-3.93,7.49-6.42l-1.13-2.61,1.98,1.44c.34-.11,1.25-.86,1.28-1.32Z"/>
      <path class="cls-1" d="M10.56,24.11c.53,0,1.33-.22,1.93-.45l-2.33-2.2c-1.12-1.06-1.49-2.99-2-4.68l3.15,4.33c.51.71,1.5,1.43,2.29,2.07.55-1.56.81-2.9.54-4.19-3.61-1.94-6.04-4.81-8.14-8.27-.75,4.56.32,8.8,3.19,12.05.39.45.91,1.36,1.37,1.35Z"/>
      <path class="cls-1" d="M6.55,34.32c.25-.88.42-1.66.36-1.9l-1.91-.97c-.81-.41-1.42-1.08-1.49-1.78l4.03,2.16-.93-3.83c-3.08.22-4.58-1.78-6.6-3.83.48,3.85,2.86,8.68,6.55,10.16Z"/>
      <path class="cls-1" d="M40.45,29.65c-.18,2-.13,3.25.15,5.07l2.25-2.84-2.39-2.23Z"/>
    </g>
  </g>
</svg>