<?xml version="1.0" encoding="UTF-8"?>
<svg id="Warstwa_2" data-name="Warstwa 2" xmlns="http://www.w3.org/2000/svg" viewBox="0 0 48.14 54.92">
  <defs>
    <style>
      .cls-1 {
        fill: #fff;
      }
    </style>
  </defs>
  <g id="icon-v9-equipment-pixarts-store">
    <g id="icon-v9-equipment-pixarts-store_336">
      <path class="cls-1" d="M24.08,32.2c4.29,0,7.77-3.48,7.77-7.77s-3.48-7.77-7.77-7.77-7.77,3.48-7.77,7.77,3.48,7.77,7.77,7.77ZM25.33,17.96c2.53.26,4.57,2.18,5.19,4.8-2.69,1.49-2.09-1.34-5.25-3-.29-.3-.17-1.46.07-1.8ZM24.08,21.63c1.53,0,2.77,1.24,2.77,2.77s-1.24,2.77-2.77,2.77-2.77-1.24-2.77-2.77,1.24-2.77,2.77-2.77ZM18.81,24.99c.92-.17-.29,3.64,4.83,4.31,5.1.66,4.74-4.8,6.67-3.45-.03,2.58-2.32,4.37-4.24,4.94-2.4.71-4.84.24-6.5-1.57.54-.71.79-1.03.02-.37-1.37-.81-1.99-2.09-2.2-3.61l1.4-.25Z"/>
      <path class="cls-1" d="M12.95,29.31c.31.64-.01,1.56-.39,2.6,1.02,1.48,2.4,2.89,3.84,4.06l1.83-1.17c.6-.07,2.14.59,2.59,1.07l1.29,3.76c.2.57,1.29,1.25,1.85,1.29,2.18.16,2.72-3.19,3.22-4.87.18-.6,1.64-1.27,2.32-1.23.57.03,1.31.58,2.18,1.15,1.3-1.04,2.93-2.65,3.96-4.01-.69-1.21-.84-1.98-.24-3.25.38-.81,1.2-1.18,2.28-1.52.15-1.39.21-3.68.13-5.15-1.92-1.28-2.44-3.12-2.39-5.22-.69-1.21-2.53-3.18-3.76-3.6-2.82.37-4.6-1.79-5.19-2.16-1.08-.68-3.96-.64-5.02.1-6.1,4.26-4.41-.47-8.69,5.68.32,2.07-.29,3.85-2.1,5.16-.29,1.31-.28,3.74.05,4.98,1.04.71,1.66,1.2,2.22,2.33ZM12.36,22.97c.42-.15,1.52-.23,1.85-.43.39-.24.53-.97.81-1.67l.67-1.72c.18-.46-.93-1.28-1.07-1.84-.18-.75,1.31-2.02,1.92-2.32l1.71,1.19,3.84-1.56.6-2.02c.37-.63,2.69-.72,2.91.02l.6,2.07,3.74,1.54,1.82-1.34,2.03,2.2-1.37,1.85,1.54,3.64,2.23.41c.25.73.36,2.48-.15,3.01l-1.93.47c-.48.12-.64,1.35-.88,1.82-.7,1.39-.96,2.31.76,3.46l-2.27,2.25-1.88-1.28-3.72,1.63-.61,2.45-2.92-.11-.39-2.34-4-1.63-1.59,1.27c-.78-.6-1.79-1.54-2.3-2.2.55-.7,1.05-1.24,1.24-1.65.19-.41-.38-1.39-.58-1.86l-.77-1.81c-.17-.4-1.41-.24-1.88-.5-.71-.39-.7-2.74.06-3Z"/>
      <path class="cls-1" d="M12.61,46.21c.96-1.84,0-4.72-2.29-4.95-.84.54-.63,2.3-.15,3.34.34.73,1.41,1.68,2.44,1.61ZM10.83,42.45c.87.41,1.31,1.07.95,2.5-.73-.39-1.08-1.54-.95-2.5Z"/>
      <path class="cls-1" d="M35.73,46.2c1.98.42,3.58-3.74,2.27-4.99-.11-.1-.6.04-.79.13-1.65.74-2.85,3.57-1.48,4.86ZM36.17,44.82c-.04-.78.35-1.9.89-2.45.8.74.32,2.05-.89,2.45Z"/>
      <path class="cls-1" d="M.25,20.54c-.33,2.73-.37,5.16.07,7.7l3.75.78c1.07,1.21,2.05,1.09,3.26.21.81-.59.52-2.57-.48-2.9-.86-.29-1.67-.51-1.98-.94-.31-.43-.18-2.01.33-2.16l2.02-.58c.52-3.16,1.78-6.43,3.73-9.01-.58-.76-1.2-1.68-1.25-2.22-.04-.53.89-1.43,1.37-1.58l2.54,1.21c2.55-2.13,5.64-3,8.68-3.76.12-1.51.45-2.42,1.67-2.47,1.36-.06,1.6,1.01,1.89,2.38,3.06.82,6.12,1.8,8.67,3.66l2.07-1c.63-.31,2.1,1.1,1.79,1.7l-1.12,2.09c1.85,2.48,2.97,4.98,3.44,8.12.1.67.84,1.16,1.74,1.22.84.06,1.14,1.28.96,2.08-.11.51-.87.89-1.76,1.11-.77.19-1.23,1.02-1.29,1.91-.04.61.79,1.44,1.53,1.67l1.19.35c.2.06.53-.88.73-.92l3.85-.78c.66-2.35.58-5.2.19-7.92l-4.2-.89-2.3-5.87,2.49-3.63c-1.68-2.18-3.34-3.92-5.44-5.43l-3.64,2.4-5.82-2.57-.72-3.94c-2.6-.79-5.57-.72-8.26-.09l-.73,4.14-5.8,2.47-3.71-2.49c-2.1,1.76-3.66,3.39-5.36,5.48l2.62,3.81-2.45,5.83-4.27.81Z"/>
      <path class="cls-1" d="M42.91,31.67l-3.94-1.74c-.44.23-1.08,1.3-.95,1.73.11.37.68,1.06,1.04,1.25,1.27.69,3.11.68,3.85-1.25Z"/>
      <path class="cls-1" d="M5.9,24.45l2.98,1.09c-.07,4.82,3.53,5.04.33,8.1,3.05,1.58,5.07,3.29,7.07,5.88l2.51-2.39c.19-.04.93.89.77,1.25-.5,1.12-1.7,1.15-2.29,2.37-.17.35.3,1.32.54,1.68l2.34-1.6c.15.05.64.91.47,1.18-.65,1.04-2.44,1.4-2.42,2.11.01.62.14,1.46.26,2.26l2.32-1.79c.14.52.35,1.4.14,1.73-.17.28-.74.65-1.14.87-1.43.78-1.45,2.38-.9,3.96l2.08-2.66c.92,2.13-.28,3.31-2.29,4.6,5.48,2.5,5.43,2.41,10.99.03-2.14-1.28-3.43-2.49-2.39-4.63l2.03,2.88c.44-1.22.53-3.14-.54-3.87-.66-.45-1.22-.81-1.52-1.13-.3-.32.02-1.51.16-1.9l2.25,1.76c.16-.6.34-1.57.32-2.17-.02-.76-2.78-1.53-2.39-2.27l.55-1.03,2.22,1.68c.32-.44.99-1.41.71-1.68l-1.19-1.15-1.29-1.23c-.25-.24.57-1.31.72-1.3l2.64,2.34c1.93-2.58,4.14-4.23,6.89-5.72-2.76-2.77.12-2.93.51-8.14l2.92-1.07-2.87-.93c-.26-3.38-1.45-6.77-3.9-9.45l1.6-3.02-2.84,1.61c-2.69-2.12-5.9-3.43-9.19-3.85l-1.03-2.75-.91,2.96c-3.53.27-6.6,1.64-9.17,3.77l-2.89-1.49,1.66,2.75c-2.38,2.67-3.49,6.04-3.88,9.44l-2.92.94ZM10.69,22c1.81-1.31,2.41-3.09,2.1-5.16,4.28-6.16,2.6-1.43,8.69-5.68,1.05-.74,3.94-.77,5.02-.1.59.37,2.37,2.53,5.19,2.16,1.23.42,3.07,2.39,3.76,3.6-.05,2.1.47,3.94,2.39,5.22.08,1.47.02,3.76-.13,5.15-1.08.34-1.9.71-2.28,1.52-.6,1.28-.45,2.04.24,3.25-1.03,1.36-2.66,2.97-3.96,4.01-.88-.57-1.62-1.12-2.18-1.15-.68-.03-2.14.63-2.32,1.23-.5,1.67-1.04,5.03-3.22,4.87-.57-.04-1.66-.72-1.85-1.29l-1.29-3.76c-.46-.48-2-1.14-2.59-1.07l-1.83,1.17c-1.43-1.17-2.82-2.59-3.84-4.06.38-1.03.7-1.96.39-2.6-.56-1.13-1.17-1.62-2.22-2.33-.33-1.24-.33-3.67-.05-4.98Z"/>
      <path class="cls-1" d="M42.12,34c-9.2,2.51-12,9.49-11.11,18.73,1.23-.73,1.98-1.25,2.95-2.05-2.5-5.48.18-11.02,5.19-13.47,1.42-.69,2.49-1.37,2.96-3.22Z"/>
      <path class="cls-1" d="M7.81,36.66c5.81,2.3,8.81,7.88,6.55,13.91.8.77,1.65,1.37,2.79,1.98.77-9.04-1.71-15.86-11.03-18.56.28.75.96,2.37,1.68,2.66Z"/>
      <path class="cls-1" d="M34.87,49.72c6.46-5.28,4.03-3.32,5.95-11.81-5.09,1.28-8.27,6.77-5.95,11.81ZM38,41.21c1.31,1.24-.29,5.41-2.27,4.99-1.37-1.29-.17-4.13,1.48-4.86.19-.09.68-.23.79-.13Z"/>
      <path class="cls-1" d="M13.38,49.53c2.14-5.21-.98-10.27-5.9-11.55,1.57,7.51-.22,7.33,5.9,11.55ZM10.32,41.25c2.3.23,3.25,3.11,2.29,4.95-1.03.07-2.1-.88-2.44-1.61-.48-1.05-.69-2.8.15-3.34Z"/>
      <path class="cls-1" d="M8.06,33.33c.75,0,1.75-.8,2.03-1.98.09-.37-.82-1.46-1.18-1.34-.93.33-2.67,1.17-3.48,1.82.38,1.13,1.64,1.51,2.63,1.5Z"/>
      <path class="cls-1" d="M12.3,25.97c.47.26,1.71.1,1.88.5l.77,1.81c.2.47.77,1.45.58,1.86-.19.41-.69.96-1.24,1.65.51.66,1.51,1.6,2.3,2.2l1.59-1.27,4,1.63.39,2.34,2.92.11.61-2.45,3.72-1.63,1.88,1.28,2.27-2.25c-1.71-1.14-1.46-2.07-.76-3.46.23-.46.39-1.7.88-1.82l1.93-.47c.51-.53.4-2.28.15-3.01l-2.23-.41-1.54-3.64,1.37-1.85-2.03-2.2-1.82,1.34-3.74-1.54-.6-2.07c-.22-.74-2.54-.64-2.91-.02l-.6,2.02-3.84,1.56-1.71-1.19c-.61.3-2.1,1.57-1.92,2.32.13.56,1.25,1.38,1.07,1.84l-.67,1.72c-.27.7-.41,1.43-.81,1.67-.33.2-1.43.29-1.85.43-.75.26-.76,2.61-.06,3ZM24.08,16.65c4.29,0,7.77,3.48,7.77,7.77s-3.48,7.77-7.77,7.77-7.77-3.48-7.77-7.77,3.48-7.77,7.77-7.77Z"/>
      <path class="cls-1" d="M37.06,42.37c-.54.55-.93,1.67-.89,2.45,1.21-.4,1.69-1.71.89-2.45Z"/>
      <path class="cls-1" d="M11.78,44.95c.36-1.43-.08-2.08-.95-2.5-.13.96.22,2.1.95,2.5Z"/>
      <circle class="cls-1" cx="24.08" cy="24.41" r="2.77"/>
      <path class="cls-1" d="M19.6,28.85c.77-.65.52-.34-.02.37,1.66,1.8,4.1,2.28,6.5,1.57,1.92-.57,4.21-2.36,4.24-4.94-1.94-1.36-1.57,4.11-6.67,3.45-5.12-.67-3.91-4.47-4.83-4.31l-1.4.25c.2,1.52.83,2.8,2.2,3.61Z"/>
      <path class="cls-1" d="M30.52,22.75c-.61-2.61-2.65-4.54-5.19-4.8-.24.34-.36,1.5-.07,1.8,3.16,1.66,2.56,4.5,5.25,3Z"/>
    </g>
  </g>
</svg>