<?xml version="1.0" encoding="UTF-8"?>
<svg id="Warstwa_2" data-name="Warstwa 2" xmlns="http://www.w3.org/2000/svg" viewBox="0 0 51.13 45.88">
  <defs>
    <style>
      .cls-1 {
        fill: #fff;
      }
    </style>
  </defs>
  <g id="icon-v9-equipment-pixarts-store">
    <g id="icon-v9-equipment-pixarts-store_184">
      <path class="cls-1" d="M48.8,18.61l-1.47,4.79c-.03-1.8.36-3.23.78-4.99l-2.41-3.68c-.85,1.87-1.74,3.8-1.52,5.57l.43,3.4c.22,1.76,2.07,2.96,1.5,4.96l-.34-1.06c-.91,2.8-3.43,4.45-3.32,5.25.18,1.28.81,2.38,1.54,3.32l1.79-7.22-.3,3.71.95-.52c.16-.09.54.25,1.05.49l3.58-15.55c-.79.26-2.05.87-2.25,1.53Z"/>
      <path class="cls-1" d="M42.85,23.21l-.57-.18.77-.87c.13-.15-.14-.77-.23-.95l-2.45-5.41.08,5.91c0,.6.6,1.73.86,2.42l.98-.78-.91,3.12-.91-2.33c-.26-.2-1.28.02-1.51.32-.2.25-.36.86-.45,1.3l-1.94,9.71c-.26,1.32-.29,2.93.57,3.64.48-.22,1.08-.78,1.36-.69l1.24.37,3.21-14.7c.05-.24.03-.82-.1-.87Z"/>
      <path class="cls-1" d="M38.27,23.94c.66-.03,1.55-.67,1.56-1.5l.11-7.3-4.28,4.3,1.82,3.31-2.1-2.53-1.23,6.01,2.24,3.37c.81,1.22-3.88,3.18-3.01,7.59l2.33-.78,2.56-12.47Z"/>
      <path class="cls-1" d="M35.21,16.67l.34-2.54.59,2.7c.57-.46,1.31-1.27,1.35-1.84l.5-5.87c-1.03.41-1.45.76-2.21,1.43l-.57-1.06c.96.29,2.22-.35,2.31-1.3l-1.72-2.47c-3.25,3.31-2.49,4.59-1.84,9.26.06.44.68,1.09,1.24,1.69Z"/>
      <path class="cls-1" d="M43.65,6.44l.55-6.44-3.3,3.2,1.78,2.83s-.01-.02-.02-.03l.99.44Z"/>
      <path class="cls-1" d="M41.74,15.27l1.46-6.83c.16-.74-.12-1.66-.5-2.38l-2.02-2.12-2.49,10.65,2.19-1.46,1.36,2.14Z"/>
      <path class="cls-1" d="M42.68,6.03s0,.02.01.03h0s-.02-.03-.02-.03Z"/>
      <polygon class="cls-1" points="48.37 17.98 51.13 16 48.63 9.28 46.26 14.04 48.37 17.98"/>
      <path class="cls-1" d="M46.82,5.42l-2.82,1.88-1.94,8.36.58.48c.31-7.02,4.38-3.7,4.18-10.71Z"/>
      <path class="cls-1" d="M43.39,19.53l1.51-4.53c.61-1.84,1.78-3.12,2.48-4.65-3.24,1.73-4.65,5.84-4,9.18Z"/>
      <polygon class="cls-1" points="44.67 .22 44.25 6.25 47.13 4.6 44.67 .22"/>
      <path class="cls-1" d="M32.53,33.06l2.7-3.17c-.76-1.06-1.46-1.91-2.31-2.85-.36.44-.72,1.63-.35,1.88l1.62,1.06-1.83.49.17,2.6Z"/>
      <path class="cls-1" d="M33.39,37.98l1.92,4.06c.89-1.52,1.2-3.03.28-4.46l-2.2.39Z"/>
      <path class="cls-1" d="M23.41,40.29l-.55-4.45c-.18-1.42-.29-2.7-.04-4.01l1.09,7.73c.8-.03,1.64-.62,2.19-1.37l1.36-1.84.62-11.46c-1.14-1.55-2.6-2.9-4.22-4.07-.59.53-1.41,1.51-1.44,2.15l-.2,5.03c-.71-3.21-.76-6.18-2.91-8.61l1.9,20.96,2.21-.07Z"/>
      <path class="cls-1" d="M28.73,22.85l3.09-4.41-5.85-9.97c-1.12,8.77-.56,5.79,1.15,11.31.38,1.23.66,2.38,1.61,3.08Z"/>
      <path class="cls-1" d="M28.35,36.08c.61.98,1.32,1.99,1.99,2.8l1.47-18.88c-1.18,1.57-2.6,3.11-2.87,4.73-.62,3.78-.5,7.39-.58,11.36Z"/>
      <path class="cls-1" d="M23.96,17.33l-1.4.25c2.65-2.35,2.2-4.65,2.43-8.56l-5.49,9.31,2.24,3.36c1.02-1.4,1.63-2.6,2.22-4.36Z"/>
      <path class="cls-1" d="M26.07,45.88l4.12-6.09-2.29-2.52c-3.92,3.63-2.88,3.91-1.83,8.61Z"/>
      <path class="cls-1" d="M24.07,20.18c1.24,1.04,2.11,1.78,3.46,2.6-.42-2.84-1.34-4.5-2.52-6.61-.72,1.38-.98,2.59-.93,4.01Z"/>
      <polygon class="cls-1" points="21.65 41.29 24.95 45.74 24.02 41.38 21.65 41.29"/>
      <path class="cls-1" d="M36.6,42.07l2.47-2.58c-2.06-.48-2.65,1.22-2.47,2.58Z"/>
      <path class="cls-1" d="M45.62,33.23c-.59.64-.77,1.5-.79,2.45l2.22-2.48c-.5-.27-1.14-.29-1.43.03Z"/>
      <path class="cls-1" d="M5.08,28.19c-.24-1.54,1.14-3.08,1.38-4.54l.56-3.36c.29-1.73-.7-3.72-1.52-5.55l-2.36,3.4c.31,2.4.99,4.4,1.04,6.91l-1.83-6.45c-.17-.61-1.55-1.29-2.34-1.49l3.67,15.33,2.05-.06-.65-4.2Z"/>
      <path class="cls-1" d="M12.39,24.65l-1.48-.94c-.44,1.06-.67,1.94-.93,3.29l-.89-3.33.72.55.99-2.29-.03-5.87-2.9,6.44,3.56,16.24c.35.03,1.14-.23,1.36-.37l1.49.81c.5-1,.78-2.21.54-3.34l-2.44-11.19Z"/>
      <path class="cls-1" d="M14.71,29.95l2.5-3.87-1.37-5.72c-1.1,1.42-2.04,2.82-2.73,4.29l2.51,11.86,2.32.7c0-1.46,0-2.87-.77-3.92l-2.46-3.35Z"/>
      <polygon class="cls-1" points="9.39 15.43 10.82 13.22 13.17 14.92 10.32 3.92 7.76 7.22 9.39 15.43"/>
      <path class="cls-1" d="M12.81,24.11l2.9-4.59-4.47-4.31v6.56c0,.97.63,1.83,1.57,2.34Z"/>
      <path class="cls-1" d="M4.95,13.98l-2.42-4.7c-1.06,2.38-1.75,4.4-2.52,6.81l2.74,1.81,2.2-3.91Z"/>
      <path class="cls-1" d="M14.93,16.64c.23-2.35-.02-4.21.64-6.17l.51,6.03c1.65-1.28,1.73-5.76,1.6-7.24-.11-1.29-1.37-2.41-2.16-3.52-3.06,2.83-2.43,5.38-1.66,9.64.07.4.82,1.08,1.07,1.25Z"/>
      <path class="cls-1" d="M4.28,5.53c.78,7.45,2.86,3.52,4.24,8.89l-1.21-7.15-3.02-1.73Z"/>
      <path class="cls-1" d="M5.46,28.55l1.66,7.52c.85-.95,2.02-2.91,1.39-3.78l-3.05-3.73Z"/>
      <path class="cls-1" d="M10.26,3.16L6.93.04c.11,2.36.28,4.02.82,6.21l2.52-3.09Z"/>
      <path class="cls-1" d="M6.36.46l-2.28,4.16,2.86,1.67c-.11-2.47-.27-3.85-.58-5.84Z"/>
      <path class="cls-1" d="M6.41,12.68c-.78-.99-1.9-1.82-2.82-2.72,2.33,5.24,2.55,3.01,4.18,9.37.31-2.34-.04-4.98-1.36-6.65Z"/>
      <path class="cls-1" d="M15.8,42.25l2.08-4.21-2.28-.48c-.75,1.62-.65,3.05.2,4.69Z"/>
      <path class="cls-1" d="M18.78,32.96c.2-.77.33-2.03.06-2.4l-1.9-.66c.84-.33,1.59-.65,1.89-1.03.28-.34-.07-1.4-.48-1.7-.99.74-1.77,1.97-2.1,3.14l2.53,2.65Z"/>
      <path class="cls-1" d="M12.12,39.51l2.45,2.63c-.02-.8-.15-1.43-.43-2.01-.29-.6-1.1-.81-2.02-.62Z"/>
      <path class="cls-1" d="M4.07,33.11l2.06,2.38c.09-.61-.02-1.52-.31-2.06-.2-.38-1.04-.46-1.75-.32Z"/>
      <path class="cls-1" d="M6.34,27.31c.09.33.47.47,1.33.8l-.68-2.72c-.53.67-.81,1.37-.65,1.92Z"/>
      <path class="cls-1" d="M44.92,26.91l-.86-1.67-.5,2.89c.83-.27,1.54-.87,1.36-1.22Z"/>
    </g>
  </g>
</svg>