<?xml version="1.0" encoding="UTF-8"?>
<svg id="Warstwa_2" data-name="Warstwa 2" xmlns="http://www.w3.org/2000/svg" viewBox="0 0 55.74 52.88">
  <defs>
    <style>
      .cls-1 {
        fill: #fff;
      }
    </style>
  </defs>
  <g id="icon-v9-equipment-pixarts-store">
    <g id="icon-v9-equipment-pixarts-store_250">
      <path class="cls-1" d="M12.08,27.94l-3.02,2.92.84,4.45.86-1.95,1.33,6.7,1.04-2.76,1.69,4.77.63-2.16,1.57,5.59.96-2.95c.81,2.07,1.5,3.81,2.75,5.43l.49-2.3c1.16,2.54,1.72,4.49,3.93,5.64l-.02-1.14c1.14.91,1.9,1.61,2.99,2.69l2.72-2.43.73.6c1.25-1.42,2.25-2.87,3.05-4.47l.38,1.89c1.58-1.75,2.25-3.47,3.21-5.78l1,2.82c1.05-1.99,1.51-3.87,1.7-6.02l.68,1.86,1.22-2.92.55-1.8.72,3.3c.81-2.15,1.24-4.08,1.53-6.29l.7,1.7.81-4.1-2.98-3.17-1.3,2.11-2.01-4.17c-6,2.1-3.87-2.14-8.17-.98l-1.07,2.55c.02,5.42-.25,10.71.22,16.09.14,1.59,1.99,3.81-.22,5.44-1.79,1.32-5.2,1.35-6.97,0-2.21-1.7-.3-3.86-.11-5.42.68-5.42.16-10.62.34-16.06l-1.29-2.52c-2.69-1.28-3.73,1.74-5.01,1.59l-4.73-.56-1.16,3.47-.57-1.65ZM41.57,33.09l-.41-3.82c1.48,1.06,1.05,2.73.41,3.82ZM36.03,37.12c.79.47.93.53.75.24.43-1.56.36-2.04,1.16-2.91l-.75,4.86-.84-.76c-.33.71-.69,1.36-1.27,2.1l.95-3.52ZM17.95,33.46l.97,2.84.61-1.1,1.09,3.83-1.22-2.02-.35,1.46c-.78-1.5-1.23-3.1-1.1-5.01ZM15.71,30.61l-.04,3.59c-.49-1.11-1.37-2.45.04-3.59ZM14.75,26.79c.88,1.66-1.71,3.06.55,3.07l-1.26,2.75c-.44-2.5-1.36-4.72.71-5.82Z"/>
      <path class="cls-1" d="M9.82,4.85c.33-2.22.95.61,2.68.39.59-.07,1.31.95,1.77,1.73,1.96-.35,4.51-1.14,6.47-.24.84.39,2.12,2.03,3.17.7.41-.53.94-1.77,1.81-1.98,1.95-.48,4.51-.6,5.9.85.51.53.55,1.88,1.57,1.58,2.53-.75,1.68-2.57,8.24-.9l2.42-2.56c.66.24.89.43,1.1.26l1.07-.82.53,1.5c-1.17.22-1.52.65-2.16,1.76l-.4-1.04-1.88,1.7,1.81,2.44c.46-.11,1.02-.26,1.29-.3,1.74.22,3.63-.78,4.85-2.3l-.52,1.72,2.58-1.48-.12.74c1.23-.41,1.94-.56,3.14-.67l-.91-1.04,1.48-.89-2.03-.86.97-1.45-3.8.51,1-1.64c-1.89-.04-3.49.81-4.85,2.41.24-.81.61-1.7,1.01-2.56l-3.56.51.3-1.01-3.5.63.88-1.6-5.67,1.63,1.04-1.58c-1.67.33-2.73.84-4.01,1.6-.31-.96-.28-1.49,0-2.57-1.21.61-2.48,1.56-3.54,2.5-.32-.24-.93-.76-1.15-.57l-.98.88-2.02-1.44-.09,1.26L20.82.35l.46,1.15c.07.18-.77.49-.96.4l-3.89-1.9.44,1.94-2.23-.54.54,1.3-4.25-1.2.51,1.39-2.79-.02,1.18,1.99Z"/>
      <path class="cls-1" d="M36.16,23.52l.04-11.85-7.43-.18c-2.58-.06-5.11.07-7.6.18l-.21,1.81c-.35-.91-.47-1.28-.81-1.94l-.06,12.13c.43.06,1.7.05,1.79-.3l.31-1.23c.67,1.03,1.04,1.57,1.94,1.57l8.36-.05,1.36-1.12-.07,1.12,2.4-.13ZM31.7,17.82l-.93-.6c-.19-.13-.6.09-.74.27-.18.22-.17,1.05.05,1.24l1.17.99c.25.21.47,1.14.32,1.41-.15.28-.72.71-1,.56-1.32-.69-.95-1.17-2.37-1.86-.81-.4-1.91,2.43-2.96,1.88-.54-.28-.83-1.26-.49-1.62l1.8-1.91-.75-.87c-.16-.19-.52.12-1.12.35-.65.23-1.94-.93-2.11-1.64l2.49-2.53c.37-.37,1.39-.48,1.88-.15.41.28.43,1.38.25,1.91-.12.34.43,1.35.75,1.24.32-.12.9-.44,1.31-.69.29-.18-.2-.94-.34-1.42-.12-.39.49-1.17.88-1.29.39-.12,1.4.17,1.73.55l2.12,2.4c-.16.67-1.29,1.8-1.92,1.78Z"/>
      <path class="cls-1" d="M17.99,10.41l-4.35.27-.05,5.58c-.02,2.79.14,5.42.56,8.25,1.59.44,2.86.68,3.94.76l.29-9.41.38,9.08,1.09-.56c.24-.12-.49-.95-.5-1.29l-.13-10.65c-.02-1.8.3-2.51,1.74-4.17-1.85-1.17-5.76-1.24-6.7,1.62,1.71.18,3.07.19,4.54-.47l-.41,4.77-.41-3.78Z"/>
      <path class="cls-1" d="M.5,26.48l1.42-1.13-.07,4.56,2.07-2.25c-.08,1.85-.02,3.05.47,4.59l2.06-3.79.44,2.14,2.79-3.73.29,1.39,2.14-2.83.45.78c.4.68.75-2.37-.28-2.68-.55-.17-3.35.16-4.21,1.06l.61-1.63-2.31.45.45-.87c.08-.14-.27-.43-.42-.35l-1,.53c-.01-.27.18-.91-.08-.92l-1.54-.06c-.21-.42-.38-1.12-.77-1.17-1.24-.16-2.04,1.01-2,1.03l.75.42c-.81,1.36-1.4,2.98-1.25,4.47Z"/>
      <path class="cls-1" d="M44.36,26.32l2.06,2.6.34-1.47,2.72,3.23.27-2.2,2.73,3.5c.76-1.94.55-3.65.33-5.9l1.82,1.89-.42-3.57,1.41.18-1.39-2.87,1.38-.35c-.65-.34-1.7-.79-2.33-.79-.23,0-1.01.57-.87.75l.62.77c-.88-.33-1.72-.43-2.67-.27l.41,1c-.46-.19-.92-.5-1.02-.34l-.39.58-2.6.07.21,1.18-1.14-.62c-.16-.09-.47.33-.67.53l-1.06-1.04c-.27.42-.67,1.29-.64,1.7.03.41.56,1.02.89,1.44Z"/>
      <path class="cls-1" d="M42.07,24.55c.19-.97.38-2.31.4-3.32l.22-10.44-4.45-.18c-.05,1.4-.21,2.68-.19,3.91l.1,4.58c.04,2,.05,3.84-.03,6.02l3.95-.58Z"/>
      <path class="cls-1" d="M2.14,6.56l-1.25,1.54c2.14-.27,3.46.22,5.1,1.04l-.94-1.66,2.32,1.89c.2.16,1.1.35,1.11.1l.05-.95c1.11.94,2.5,2.05,3.99,1.37.73-.34,1.33-1.87.94-2.41-.11-.15-.61-.76-.67-.61l-.38.95-1.39-2.05-.54.68L6.01,2.33l.03,2.04c-1.09-.81-2.56-1.4-3.95-1.36l1.15,1.9-3.24.68,2.14.97Z"/>
      <path class="cls-1" d="M46.95,10.68c-.53-.02-1.68.41-1.62.94l.61,4.67c.27,2.06-.49,3.99-.41,6.09l.77-1.84.13,1.73c.39-.01,1.61-.61,1.71-1.09.44-2.28,1.12-10.44-1.2-10.51Z"/>
      <path class="cls-1" d="M8.36,11.32c-1.23,3.17-1.08,7.21-.13,10.22.12.37,1.25,1.04,1.32.72l.3-1.43.69,1.5c-.49-4-.53-7.55.44-11.23-.74-.47-2.27-.69-2.63.23ZM9.76,20.31h-.35v-6.16h.35v6.16Z"/>
      <path class="cls-1" d="M19.97,10.84l16.02.1c-2.29-5.31-4.08,1.46-12.41-1.92-1.4-.57-3.22.22-3.61,1.82Z"/>
      <path class="cls-1" d="M2.83,12.44c.02.27.83.34,1.13.52,1.17.68,1.33,3.19.04,3.75-.38.17-1.37.6-1.11.86,1.11,1.13,2.71,1.74,3.8,1.82l.28-7.09-3.9-1.21c-.11.22-.28,1.01-.25,1.34Z"/>
      <path class="cls-1" d="M51.34,14.68c.07-1.09.56-1.79,1.95-2.08l-.13-1.69-3.88,1.58.17,6.89c1.3-.23,2.86-.84,4.02-1.98-1.67-.77-2.23-1.3-2.14-2.71Z"/>
      <path class="cls-1" d="M25.18,47.99c1.53,1.22,3.91,1.24,5.61.15.69-.44.7-2.25.35-2.5l-2.05.39.77.5-4.83-1.25c-.21.63-.37,2.29.16,2.71Z"/>
      <path class="cls-1" d="M35.1,8.35c.5.78,1.69,1.9,1.7,2.62.11,4.26.11,8.39-.07,12.52-.11.4-.25.81-.23,1.04.02.23,1.07.39,1.07.13l-.02-13.36c0-1.41-.77-3.54-2.46-2.95Z"/>
      <path class="cls-1" d="M30.27,35l-4.15-1.66c-.19.38-.19,2.1.32,2.45,1.11.76,2.54,1.23,3.9,1.45l-.07-2.23Z"/>
      <path class="cls-1" d="M26.14,30.67l.06,1.84c1.4-.28,3.09-.88,3.89-1.61.37-.34.27-1.82.19-2.03l-4.14,1.8Z"/>
      <path class="cls-1" d="M30.68,24.88l-5.59-.04c-.66,1.93,4.79,2.2,6.07.77.12-.13-.3-.73-.48-.73Z"/>
      <polygon class="cls-1" points="30.13 38.5 26.04 40.12 26.08 42.3 30.47 40.45 30.13 38.5"/>
      <path class="cls-1" d="M44.16,12.93c-.29,2.54-.35,5.01-.32,7.33,2.19,1.38,1.75-7.41.32-7.33Z"/>
      <polygon class="cls-1" points="36.42 7.67 38.27 9.93 42.11 10.04 40.3 7.81 36.42 7.67"/>
      <path class="cls-1" d="M11.77,20.55c1.28.51.37-6.46.24-7.61-1.25-.14-1.47,7.12-.24,7.61Z"/>
      <path class="cls-1" d="M26.09,44.73c.79.7,3.18.88,4.16.05.19-.16.1-1.03-.15-1.05l-4.08-.33c-.1.12-.12,1.16.06,1.32Z"/>
      <path class="cls-1" d="M25.18,8.27c1.66,2,6.3.79,5.74-.24l-4.99-.13c-.22,0-.89.22-.76.38Z"/>
      <polygon class="cls-1" points="26.17 39.4 29.89 38.04 25.99 36.51 26.17 39.4"/>
      <path class="cls-1" d="M3.94,16.09c.13-1.07.15-2.16-.21-2.51-.99-.13-1.86.41-2.8,1.1.85.8,1.57,1.14,3.01,1.41Z"/>
      <path class="cls-1" d="M49.41,10.43c-.26.08-.65.45-.79.64-.94,1.34,5.06-.04,4.77-1.81l-3.98,1.17Z"/>
      <path class="cls-1" d="M31.04,7.02c-2.06-1.22-4.12-.87-5.86-.09,1.99.92,3.89,1,5.86.09Z"/>
      <path class="cls-1" d="M7.66,10.83l-.74-.27-3.46-1.26c-.16-.06-.67.27-.61.43.06.16.33.71.49.77,6.03,2.17,3.67.09,4.33.33Z"/>
      <path class="cls-1" d="M52.65,13.67c-.89.43-.63,1.79.04,2.51l2.47-1.44c-.64-.56-1.89-1.36-2.5-1.07Z"/>
      <path class="cls-1" d="M28.16,28.88c.67-.09,1.7-.75,1.94-1.26l-4.14-.24c-.1,1.13,1.21,1.63,2.2,1.5Z"/>
      <polygon class="cls-1" points="26.95 33.07 30.23 34.34 30.37 31.7 26.95 33.07"/>
      <path class="cls-1" d="M49.08,21.22l2.17-.67c.92-.28,1.8-1.04,1.98-1.84l-3.12,1.11c-.36.13-.84.79-1.04,1.4Z"/>
      <path class="cls-1" d="M6.08,19.84l-3.15-1.12c.85,1.85,2.56,2.06,4.26,2.37-.16-.47-.67-1.09-1.11-1.25Z"/>
      <polygon class="cls-1" points="30.22 41.19 26.56 42.91 30.26 43.16 30.22 41.19"/>
      <path class="cls-1" d="M26.2,13.71c-.14.04-.71.2-.81.3l-2.03,2.02c.09.4,1.12,1.05,1.41.71l1.91-2.25c.15-.17-.26-.85-.47-.78Z"/>
      <path class="cls-1" d="M32.22,16.88l.55-.76c.18-.25-2.26-2.58-2.94-2.63-.89.58,1.96,3.99,2.39,3.39Z"/>
      <rect class="cls-1" x="29.44" y="18.5" width=".93" height="2.77" transform="translate(-4.69 29.52) rotate(-49.19)"/>
      <rect class="cls-1" x="24.91" y="19.5" width="2.81" height=".77" transform="translate(-6.39 24.13) rotate(-44.47)"/>
    </g>
  </g>
</svg>