<?xml version="1.0" encoding="UTF-8"?>
<svg id="Warstwa_2" data-name="Warstwa 2" xmlns="http://www.w3.org/2000/svg" viewBox="0 0 53.87 53.69">
  <defs>
    <style>
      .cls-1 {
        fill: #fff;
      }
    </style>
  </defs>
  <g id="icon-v9-equipment-pixarts-store">
    <g id="icon-v9-equipment-pixarts-store_11">
      <path class="cls-1" d="M42.7,8.66c.41-3.26.19-6.23-2.19-8.62.38,3.03.01,5.91-1.66,8.49l-2.28,3.52c.44-1.73,1.26-3.22,1.86-4.66.17-.42-1.08-1.26-1.39-1.05-1.54,2.88-3.23,3.76-6.47,4.82,2.11-1.91,5.75-2.59,5.04-6.72-4.24-4.36-4.92,2.57-14.79-1.72l-2.78,1.42c-.37,1.62.27,3.57,1.67,4.55l3.42,2.4c-2.93-.94-5.11-1.88-6.54-4.97-.24.1-1.13.78-1.39,1.16l2.09,4.9c-3.02-4.33-4.6-6.8-3.96-12.18-2.36,2.4-2.76,5.37-2.27,8.66-2.25-1.94-2.94-4.7-3.03-7.69-1.89,3.19-1.28,6.79-.05,10.17-2.03-1.21-3.25-2.78-4.49-4.73-.9,3.53,1.18,6.24,3.27,8.97l-2.4-1.45c-.41-.24-1.44.41-1.58.86-.36,1.18,1.16,2.36.67,2.59l-.87.41c-1.07.51-1.73,1.89-2,3.28,3.59-1.22,6.54-.49,9.87.85l-2.91-4.5,3.6.69-2.62-5.48,3.63,2.49c-.35-2.07-.55-3.58-.23-5.44l2.33,4.31-1.49-.36,2.18,4.61c-1.45-.83-2.42-1.43-3.86-2.04,1.06,1.98,2.08,2.99,3.28,4.72l-4.18-1.58c1.52,2.55,3.58,4.28,6.16,5.84l-3.64-.25c.56.94,1.37,2.06,2.3,2.52l3.37,1.7c-1.94,1.41-3.99,2.85-5.42,4.51.59,1.66.9,2.85,1.26,4.68,1.02-1.58.52-4.48,3.03-5.46-.45,1.49-.81,2.51-.92,3.75l2.92-2.83c.24-.23,1.12-.53,1.38-.36.79.51,2.68,4.21-.77,6.83l-1.72,1.31,1.15.35c-.88,1.08-1.26,1.62-.65,2.62l5.13-5.25c.79,3.84-1.49,12.94,3.15,6.43.72.92,1.57,1.96,2.17,2.35,1.28-.47.6-1.6.62-2.35l.18-6.44,2.95,3.03,2.14,2.22c.49-.84.14-1.79-.69-2.64l1.12-.58c-1.39-.87-2.63-1.7-3.09-2.64-1.11-2.28.13-5.5,1.11-5.25.23.06.8.33,1,.5l2.98,2.7c-.23-1.67-.67-2.51-1.24-3.79,3.12.9,1.99,3.58,3.46,5.51.28-1.86.57-3.01,1.24-4.55-1.59-1.77-3.53-3.31-5.28-4.76l2.73-1.39c1.15-.59,2.09-1.6,2.82-2.7l-3.64.17c2.57-1.74,4.56-3.22,6.01-5.83l-4.12,1.59c1.22-1.85,2.14-2.73,3.03-4.69l-3.77,2.04,2.28-4.58-1.62.41,2.54-4.31c.34,1.86.11,3.39-.31,5.36l3.25-1.89-2.19,4.77,3.64-.38-3.09,4.36c3.56-1.6,6.53-1.99,9.97-.89-.26-1.87-1.31-3.36-3.09-3.79.43-.6,1.02-1.43,1.05-1.97.03-.49-.92-1.41-1.36-1.44l-2.63,1.49c2.18-2.81,4.01-5.55,3.09-9.17-.95,2.15-2.45,3.78-4.41,4.89,1.48-3.42,1.75-6.78,0-9.79-.14,2.94-.77,5.56-3.06,7.4ZM19.37,5.1c-.21-.57,1.45-1.34,2.01-1.06,3.37,1.72,7.15,1.96,10.52.1.61-.34,2.42.01,2.33.79-.45,3.9-5.44,3.07-7.37,7.5-2-4.62-6.01-3.35-7.48-7.33ZM34.58,20.19c-.61.35-1.61.38-2.37.34l-1.1-.05c-.24-.01.11,1.1.3,1.24l2.93,2.01c.27.19.68.99.65,1.3-.15,1.56-2.84.47-4.81,3.89l-3.2,5.56c-2.95-3.2-2.45-7.17-7.28-8.44-.36-.1-.97-.74-1.04-1.08s.32-1.09.63-1.31l2.8-1.92c.17-.11.41-.82.47-1.02.31-1.03-1.64.39-3.37-.51-.5-.26-.98-1.25-1.09-2-.34-2.45-2.71-.93-1.13-3.07,2.69,1.32,3.51,2.68,6.22,4.15,1.13-.73,2.1-1.52,3.3-1.77,1.46-.3,2.57,1.11,3.92,1.76,2.54-1.07,3.55-2.94,6.29-4.13.16.36.44,1.15.47,1.32-2.72.76-1.02,2.81-2.6,3.72Z"/>
      <path class="cls-1" d="M25.99,53.51c.55.27,1.53.21,2.12-.09l14.06-7.02c-.16-.8-.66-1.72-1.21-2.13-4,2.18-7.9,3.78-12.18,5.2l-1.92-1.78-1.59,1.82c-4.48-1.41-8.59-3.16-12.77-5.32l-.97,2.15,14.46,7.17Z"/>
      <path class="cls-1" d="M3.95,22.1l-2.46,7.33c1.01,3.74,2.57,3.98,6.19,4.89,1.52-3.24,3.75-6.49,2.3-9.57-1.1-2.35-3.96-3-6.03-2.65Z"/>
      <path class="cls-1" d="M50.11,33.07c1-.4,1.93-2.36,2.22-3.36l-2.48-7.61c-1.93-.42-4.9.37-5.97,2.54-1.44,2.95,1.06,7.33,2.62,9.86l3.61-1.44Z"/>
      <path class="cls-1" d="M0,52.16l3.63-.83c.51-.12,1.1-1.71.58-1.84l-3.08-.74c.19-1.69.38-3.32.83-4.84l2.01-6.76.93,1.62,2.96.87.37-3.56c-6.14.41-4.94-.75-8.23-4.92v21Z"/>
      <path class="cls-1" d="M50.9,35.38c-1.02,1.48-3.36.54-5.24.8-.06.92.07,2.3.37,3.23,1.04.07,2.67-.31,2.96-1.02l.37-.9c.07-.16.59-.23.64-.07l.29,1.01c1.01,3.55,1.85,6.75,2.43,10.36l-3.23.76c-.86,1.95,3.12,2.59,4.38,2.53v-21.01s-2.97,4.3-2.97,4.3Z"/>
      <path class="cls-1" d="M40.25,43.49l-.55-3.92c-2.46-.98-3.94-2.69-5.68-4.52-1.16,1.03-1.21,2.8,0,3.85l2.25,1.94c.65,1.54.18,3.02-.12,4.56l4.1-1.9Z"/>
      <path class="cls-1" d="M17.81,40.48c.85-.73,1.98-1.45,2.52-2.37.64-1.09.26-2.42-.78-2.89-1.66,1.95-3.39,3.46-5.6,4.61l-.35,3.62,3.9,1.92c-.41-1.88-1.05-3.73.31-4.89Z"/>
      <path class="cls-1" d="M41.69,26.59c-1.47,1.12-2.68,1.93-4.23,2.85l3.74,2.82c1-2.01.85-3.95.49-5.67Z"/>
      <path class="cls-1" d="M16.22,29.43l-4.21-2.79c-.15,1.83-.43,3.82.63,5.65l3.57-2.87Z"/>
      <path class="cls-1" d="M22.71,42.52l-2.2,1.62c-.39.29-.76,1.37-.91,2.05l2.9,1.06c.49-1.84.74-3.04.21-4.74Z"/>
      <polygon class="cls-1" points="2.69 45.54 5.18 46.19 6.43 42.89 3.59 42.1 2.69 45.54"/>
      <path class="cls-1" d="M33.8,46.04c.43-.54-.43-1.81-.89-2.14l-1.93-1.37c-.34,1.62-.23,2.91.16,4.61.85-.09,2.01-.27,2.66-1.1Z"/>
      <path class="cls-1" d="M47.33,42.83l1.31,3.01c.69,0,1.99-.16,2.46-.28l-.91-3.37-2.86.64Z"/>
      <path class="cls-1" d="M49.34,39.67l-3.15,1.05c.3,1.68,3.75.5,3.62.14l-.47-1.19Z"/>
      <path class="cls-1" d="M7.53,40.71l-2.9-.8c-.27-.07-.83.9-.58,1.04.57.31,3.02,1.49,3.48-.24Z"/>
      <path class="cls-1" d="M2.42,47.83c.19.13.68.41.91.44l1.3.17c.26.03.62-.87.41-1.04-.44-.36-1.83-.75-2.36-.61-.22.06-.44.91-.25,1.04Z"/>
      <rect class="cls-1" x="48.65" y="46.9" width="2.71" height="1.41" transform="translate(-7.68 9.67) rotate(-10.27)"/>
      <path class="cls-1" d="M26.45,19.05c-1.79.17-2.78,2.02-3.26,3.53l-3.14,2.02c4.88.22,4.71,3.8,6.89,7.2,2.21-3.78,2.17-7.08,6.71-7.19l-3.06-1.9c-.5-1.94-1.96-3.86-4.14-3.65Z"/>
    </g>
  </g>
</svg>