<?xml version="1.0" encoding="UTF-8"?>
<svg id="Warstwa_2" data-name="Warstwa 2" xmlns="http://www.w3.org/2000/svg" viewBox="0 0 56.15 58.73">
  <defs>
    <style>
      .cls-1 {
        fill: #fff;
      }
    </style>
  </defs>
  <g id="icon-v9-equipment-pixarts-store">
    <g id="icon-v9-equipment-pixarts-store_107">
      <path class="cls-1" d="M19.8,17.02l-.35,2.38c-.07.45.8,1.1,1.19,1.32l.7-1.85.94,2.51,1.09-2.2.68,1.89,1.04-2.14.44,1.13c.05.14.45-.19.46-.34l.07-.84c.08-.97.22-2.46.86-2.9,2.35-1.64,1.1-.24,1.57-5.72.15-1.72-.58-4.11-1.49-5.68-1.36-2.33-4.25-3.42-6.72-3.42-2.42,0-5,1.21-6.36,3.48-1.43,2.4-1.22,5.89.79,7.88,1.61-1.66.75-3.41.79-5.28,1.03.9.96,2.28.86,3.53-.13,1.53-1,2.24-2.7,2.78,3.28,5.18,3.52,1.82,6.16,3.47ZM24.69,12.43c.54-1.22,1.52-2.04,2.76-2.31.47,1.35.58,3.35-1.18,4.19-.62.3-1.84-1.28-1.58-1.88ZM24.07,13.88c.67.75.97,2.03.8,2.95l-2.37.35c.25-1.39.68-2.25,1.58-3.3ZM18.36,10.68c1.58-.76,3.59.05,4.06,1.71.36,1.28-1.1,2.39-2.36,2.45-1.21.06-2.27-.43-2.59-1.36-.33-.99-.07-2.35.89-2.81Z"/>
      <path class="cls-1" d="M16.15,48.01c2.83,1.77,1.28-1.94,6.62-3.97l1.52-2.15,3.89.94c-1.23-1.89-2.62-3.79-3.83-5.16l-3.26-1.08-5.27,4.91-3.44.96c-.13,1.16-.15,2.98.05,3.93,1.42.49,2.55.88,3.73,1.62Z"/>
      <path class="cls-1" d="M16.92,23.77c2.39,1.63.58,3.79.62,5.21.04,1.47.83,3.02-.34,4.29l1.36,3.57c1.45-1.87,3.26-1.64,4.74-1.09,1.38-1.21-.65-1.86-.94-2.57-1.36-3.36-.3-7.27.46-10.95l-2.33-.4c-1.24-.21-2.28-1.68-2.36-2.78-.02-.26-.88-.29-.84-.07.27,1.82,1.23,1.32,1.17,3.02-.02.52-.68,1.07-1.54,1.76Z"/>
      <path class="cls-1" d="M26.85,43.65c-.51-.45-1.8-.73-2.2-.35-.35.33-.85,1.27-1.17,1.71-1.42.61-3.38,1.82-4.31,3.38,2.07.03,2.52,1.14,3.7,1.79l2.83,1.57c.29-.99,1.11-2.61,1.86-2.46l1.5.29c.38.07.34-.8,1.54-1.9.17-.15.88.49,1.1.44l2.44-.54c-1.58-1.44-3.39-3.02-5.1-3.6-.51-.17-1.71.13-2.19-.31Z"/>
      <path class="cls-1" d="M1.46,16.06c3.08,2.57,2.64,5.02,5.57,4.73-.31-2.03-1.49-1.59-1.31-3.08.23-1.98,1.15,1.69,3.79,2.87,2.6,1.17,5.06,1.77,7.85,1.6.83-4.3-4.98-1.46-8.08-4.84-.32-.35-.6-1.81-1.03-1.72-2.52.5-5.12-.24-6.48-2.43l-.35-2.54c-2.06,1.28-1.68,3.97.06,5.42Z"/>
      <path class="cls-1" d="M5.15,51.96c1.77.49,3.55,1.23,5.28.92l-1.99-5.75c-.56-1.63-2.67-1.85-2.4-4.31.08-.77-1.36-2.12-2.09-1.94-.16,4.98-2.88,6.38-.84,9.87.46.79,1.19.98,2.05,1.21Z"/>
      <path class="cls-1" d="M12.05,10.79c-.05-.4-.27-1.44-.4-1.83-3.18-.31-6.41.07-9.04-2.49,2.3-1.48,10.21-.82,10.08-1.91-2.56-.11-13.97-.69-11.39,4.16.69,1.29,1.07,2.38,1.55,3.74.6,1.71,3.25,2.56,4.59,1.79-.16-.83-.38-1.8-.24-2.3.46-1.66,3.48-1.45,4.86-1.17Z"/>
      <path class="cls-1" d="M7.03,21.99c-2.42.08-4.08-1.23-4.65-3.88-1.67,1.58-1.11,3.43.31,4.91l3.29,3.43c.22.23,1.43-.03,1.29-.29l-.52-.96-.68-1.25c-.12-.21.38-.65.67-.87.82,4.43,12.5,5.87,10.55,2.48-.22-.38-1.05-.78-1.61-.76-8.28.22-5.51-2.93-8.63-2.83Z"/>
      <path class="cls-1" d="M17.56,55.88c.45-.55.58-.77.78-.68l3.76,1.67c.05-2.14.7-3.64,1.93-4.96-2.13-.14-3.04-3.18-5.93-2.28-1.4.44-2.42,2.25-2.27,3.77.08.81,1.26,2.09,1.73,2.48Z"/>
      <path class="cls-1" d="M7.7,32.17l-1-2.97c3.67,4.31,11.69,4.25,10.48,1.4-.19-.44-1.37-.79-1.93-.61-2.47.78-4.63-.32-6.62-1.41-1.65-.91-3.87-.78-5.26-2.84-2.01,1.76,2.45,5.9,4.33,6.44Z"/>
      <path class="cls-1" d="M4.79,32.31c-.29.36-.66,1.39-.49,1.84.4,1.06,2.46,2.16,2.76,1.69l.62-.97c.13.65.26,1.51.61,1.62.69.2,1.98.59,2.49.92,2.95,1.9,6.51-.68,6.63-1.93.04-.46-.81-1.41-1.26-1.2-2.07.98-4.43,1.73-6.46.78l1.05-.46c1.36-.6-4.02-.25-5.95-2.28Z"/>
      <path class="cls-1" d="M24.18,57.04l3.07.59c1.83.36,3.23,1.15,5,1.09-.68-2.62-5.22-5.65-7.19-5.48-.58.05-1.32,1.1-1.49,1.63-.17.53.04,2.05.61,2.16Z"/>
      <path class="cls-1" d="M11.09,46.32l-.93-3.66c-1.63-.92-2.19-1.87-2.47-3.68l-2.37-2.62c-4.05,4.16,2.6,1.58,2.3,8.29l3.47,1.66Z"/>
      <path class="cls-1" d="M14.56,53.08c.35-1.22.83-2.35.97-3.59.12-1.05-2.06-1.43-2.83-1.63l-2.36-.62c-.05,1.48.16,3.22.92,4.48l3.3,1.36Z"/>
      <path class="cls-1" d="M13.68,15.94c-1.09-1.87-1.53-2.43-.63-4.15l-3.67-.55c-.47-.07-1.26.84-1.21,1.26.28,2.26,3.92,3.39,5.51,3.45Z"/>
      <path class="cls-1" d="M26.85,51.74c.11.3.54.87.86,1.05l3.23,1.85,1.55-2.03-4.19-1.8c-.39-.17-1.58.55-1.45.92Z"/>
      <path class="cls-1" d="M35.45,51.68c-1.08-.92-2.96-1.95-4.12-2.3-.33-.1-1.26.63-1.19.94.07.32.46.76.86.98l3.38,1.91c.4.21,1.42-1.24,1.08-1.53Z"/>
      <path class="cls-1" d="M35.78,57.93c.29-1.44-1.64-4.67-3.42-4-.37.14-.81,1.11-.55,1.49.69,1,2.37,2.13,3.97,2.51Z"/>
      <path class="cls-1" d="M38.86,56.61c-.11-1.37-2.12-4.68-3.19-3.39-.22.27-.33,1.12-.13,1.47.63,1.12,1.88,1.87,3.32,1.92Z"/>
      <path class="cls-1" d="M38.42,51.19l-3.75-2.24c-.23-.14-.81-.1-1.02-.01-.16.06.04.63.19.73l3.01,2.1c.35.24,1.58-.34,1.57-.57Z"/>
      <path class="cls-1" d="M40.91,55.41l-1.02-2.88-1.07-.34c-.21-.07-.64.37-.78.58.44,1.11,1.19,2.37,2.87,2.64Z"/>
      <path class="cls-1" d="M2.32,44.54l.43-3.32c.03-.26-.49-1.1-.69-.99-.2.12-.73.51-.85.78-.46,1-.12,2.76,1.12,3.52Z"/>
      <path class="cls-1" d="M24.01,22.75c-.62,1.08-.93,2.21-.99,3.42,1.49-.8,1.85-2.26.99-3.42Z"/>
      <path class="cls-1" d="M22.68,31.18c.7-.88,1.55-1.99.2-3.11-.26.96-.33,2.01-.2,3.11Z"/>
      <path class="cls-1" d="M45.02,3.28C43.2.05,39.19-.8,36.01.75c-3.48,1.69-4.86,5.96-2.18,9.25.92-1.22,1-2.53,1.28-4.07.42,2.55.57,4.05-1.92,5.24.59,2.15,2.81,2.7,4.76,2.6l.18,3.43c.65-.13,1.03-.74,1.27-1.35l.75,2.04,1.09-1.6.5,1.15c.08.19.61-.24.68-.43l.35-.93c-.1-.12.2.25.36.45l.52.67.36-3.34,1.93-1.6c-.28-3.27,1.13-5.32-.92-8.97ZM39.15,12.04c-.8.13-2.07-.17-2.49-.73-.46-.61-.33-2.36.38-2.8,1.35-.83,3.21.12,3.61,1.71.16.63-.88,1.71-1.49,1.81ZM40.79,14.28c-.01-1.1.27-2.17,1.54-2.66l.46,2.61-2,.05ZM43.92,11.82c-.47.16-1.36-.82-1.32-1.25.12-1.28,1.36-2.13,2.56-2.3.53,1.2.15,3.06-1.24,3.55Z"/>
      <path class="cls-1" d="M42.24,36.54c.64-.12,1.62.06,2.81.24-.4-1.32-4.15-5.15-5.91-4.72-2.13.53-3.31,2.75-4.98,3.81-.87.55-1.72,1.06-2.08,1.63-.36.58-.33,2.52.29,2.83.86.44,2.47,1.11,3.28,1.38,2.18.72,2.69-.92,3.83-2.06,1.05-1.05,2.02-1.81,2.76-3.1ZM36.45,40.45c-.95-.07-1.75-.84-1.76-1.79.38.03,1.1.18,1.45.31.33.12.47,1.11.31,1.48Z"/>
      <path class="cls-1" d="M35.29,18.55l.13-2.42c.37.46.88,1.31,1.04,1.89.13.47-.42,1.32-1.01,1.83,1.47,1.48.36,3.18.19,4.83-.13,1.23,1.04,3.2-.47,4.37l.79,3.28c1.6-1.57,2.66-1.75,4.63-1.2-1.64-2.61-1.59-5.07-1.07-7.82l.86-4.55c-1.03-.31-3.17-.55-3.4-1.88-.11-.62-.25-1.11-.41-1.4-.13-.23-1.07.69-1.33.71-1.31.1-3.58-.35-5.34-.9l-1.44,1.75c2.38.93,4.35,1.45,6.82,1.5Z"/>
      <path class="cls-1" d="M50.13,40.06l-3.51-2.07c-1.9.55-3.54-1.18-3.96-.46l-.83,1.42c-.51.88-2.24,1.9-2.88,2.56,1.9.46,2.85.77,4.07,1.88l2.05.8,2.33-2.19c1.06-.99,1.72-1.26,3.26-.48.08-.23-.19-1.25-.53-1.45Z"/>
      <path class="cls-1" d="M37.87,43.24c-.77.69-1.54,3.23-.32,3.82,1.76.84,3.84,1.47,5.72,1.93-.52-2.11-.01-3.32,1.09-4.42-2.13-.47-4.26-3.34-6.49-1.33Z"/>
      <path class="cls-1" d="M46.38,45.76c-1.05-.33-2.16,1.01-2.15,1.9.01.98.75,1.79,1.81,1.94l2.72.4,3.56.48c-1.24-2.56-3.43-3.93-5.95-4.72Z"/>
      <path class="cls-1" d="M25.81,31.28c3.99,1.53,4.67,2.73,8.48.87.48-.24.79-1.39.47-1.72-.26-.27-1.04-.33-1.47-.19-4.07,1.25-3.44-.36-7.33-1.26l-.15,2.3Z"/>
      <path class="cls-1" d="M28.96,40.01c.2.4.88.84,1.22.8,2.37-.28-.59-2.04.4-5.13-1.09-1.25-2.74-2.15-4.88-2.29l3.26,6.62Z"/>
      <path class="cls-1" d="M26.77,21.3c1.62,1.47,9.52,3.21,8.72.53-.68-2.27-3.65.2-7.56-2.55l-1.17,2.02Z"/>
      <path class="cls-1" d="M35.15,26.22c-.97-1.45-4.03.76-8.27-2.32-.11.48-.22,1.42-.22,2.13,2.58,2.31,10.09,2.59,8.49.19Z"/>
      <path class="cls-1" d="M33.19,13.05c-.99-1.12-1.37-2.24-.81-3.34l-1.05-2.88-1.58.1.35,5.13c.06.86,2.42,1.26,3.1.98Z"/>
      <path class="cls-1" d="M31.77,42.7l3.67,3.01.99-3.13-3.81-1.06c-.31-.09-.89.01-1.12.16-.15.1.12.9.27,1.02Z"/>
      <path class="cls-1" d="M49.84,42.45c-.23-.13-1.33.59-1.13.76.4.35,1.42.93,1.84,1.23l1.62.9.95-.17c1.51-.27-3.59-2.89-3.28-2.72Z"/>
      <path class="cls-1" d="M49.49,44.25c-1.09-.36-2.48-1.3-3.29.42l3.84,2.06c.32.17,1.52-.62,1.31-.92l-.81-1.21c-.07-.02-.15-.04-.26-.08l-.81-.27Z"/>
      <path class="cls-1" d="M50.55,44.6c.27.07.22,0,0-.15l-.17-.09.16.25Z"/>
      <path class="cls-1" d="M53.05,46.17c-.93.27-1.4.46-1.77.89,1.05,1.53,1.88,2.3,3.79,2.2-.79-1.49-1.15-1.99-2.01-3.09Z"/>
      <path class="cls-1" d="M51.49,42.6c1.13.93,2.2,1.6,3.37,2-.64-1.8-1.99-2.34-3.37-2Z"/>
      <path class="cls-1" d="M27.34,3.11c1.67,1.04,3.72,1.03,5.07-.04l-5.07.04Z"/>
      <path class="cls-1" d="M53.55,45.67c.6,1,1.45,1.84,2.6,2.58-.1-1.45-.73-2.79-2.6-2.58Z"/>
    </g>
  </g>
</svg>