<?xml version="1.0" encoding="UTF-8"?>
<svg id="Warstwa_2" data-name="Warstwa 2" xmlns="http://www.w3.org/2000/svg" viewBox="0 0 57.04 58.74">
  <defs>
    <style>
      .cls-1 {
        fill: #fff;
      }
    </style>
  </defs>
  <g id="icon-v9-equipment-pixarts-store">
    <g id="icon-v9-equipment-pixarts-store_292">
      <path class="cls-1" d="M45.93,19.91c.17-1.06.17-1.6-.03-1.92-.15-.26-.99-.58-1.24-.44-.35.8.33,2.01,1.26,2.36Z"/>
      <path class="cls-1" d="M45.29,23.73l-.9-1.11c-.7,1.04-.02,3.08,1.24,3.33,2.74.55,3.1,2.66,3.24,1.43.02-.21-.09-.97-.26-1.18l-2.02-2.41c-.33-.03-1.11.17-1.3-.06Z"/>
      <path class="cls-1" d="M11.35,32.09c.03-.37-1.22-.12-1.33.23-.13.41-.28,1.29-.26,1.56.91-.14,1.5-.71,1.59-1.79Z"/>
      <path class="cls-1" d="M37.23,43.12c1.48-1.19.53-2.67.07-3.96-.13-.36-.21-1.27-.61-1.53l-.72,2.08c-.66,1.93-1.45,3.97-.7,5.77.73-1.14,1.27-1.82,1.96-2.36Z"/>
      <path class="cls-1" d="M45.7,39.36c.34-.09.66-1.1.58-1.44s-.69-1-1.08-1.02c-.45-.02-.81,1.22-.81,1.68,0,.37.71.94,1.3.78Z"/>
      <path class="cls-1" d="M26.01,44.6c-.25.32.27,1.67.66,1.55,1.53-.5,1.8-1.97.67-3.1-.48.53-.98,1.11-1.32,1.55Z"/>
      <path class="cls-1" d="M10.67,37.2c-.15-.09-.77-.14-1.01-.07-2.07.68-3.64,3.42-2.28,5.44,1.77-.97,4.59-4.57,3.29-5.37Z"/>
      <path class="cls-1" d="M14.64,43.7c-.45.91-.85,1.85-.96,2.97,2.62-.96,4.58-3.15,4.31-5.99-.06-.65-1.89-1.03-2.48-.75-1.55.75-2.43,2.91-2.17,3.05l1.3.72Z"/>
      <path class="cls-1" d="M11.14,44.13c-.41-.17-1.23.43-1.5.9-.71,1.19-1.17,2.79-.24,3.54l1.16-.41c.17-.06.48.24,1.11.59.42-1.21.95-4.03-.53-4.62Z"/>
      <path class="cls-1" d="M21.25,37.07c.68.08,1.51.07,1.8-.22.24-.25.52-.96.64-1.36l.77-2.46c-1.73.94-2.73,2.25-3.22,4.05Z"/>
      <path class="cls-1" d="M25.53,22.2c-1.01.41-1.97,1.19-2.32,2.03,1.89.48,2.14-.97,2.32-2.03Z"/>
      <path class="cls-1" d="M18.5,32.85c.29-.07.92-.7,1.09-.91l-3.23-.28.08,1.67,2.06-.48Z"/>
      <path class="cls-1" d="M19.77,28.12l1.27,2.17c1.5-1.15,2.28-2.27,2.8-3.68-.59-.26-1.28-.36-1.37-.69l-.4-1.42c-2.25-.14-4.46,1.73-4.11,3.82.69-.15,1.57-.3,1.8-.19Z"/>
      <path class="cls-1" d="M19.37,19.1l.96-.77c.24-.19.36-1.15.06-1.18-.24-.02-.9-.01-1.15.07-.34.11-.81.98-.82,1.34,0,.29.74.72.96.54Z"/>
      <path class="cls-1" d="M12.29,23.01c-2.06,1.54-.87,2.29-3.07,3.21l-3.07,10.48C3.97,44.14-.49,45.53.04,50.94l1.82-2.07c.91-1.03,1.69-2.81,3.34-1.93l.38,2.46c4.86-.54,2.77,7.17,5.05,9.34.34-2.22.6-4.14,1.42-5.49.16-.27.92-.94,1.03-.72l.55,1.07c1.86-1.87,1.32-3.61,3.11-5.06l.21,2.1,3-.99-.05,2.5,1.05-2.97c-1.87-2.29-.44-7.72,2.57-8.55,1.96-3.67.54-4.05,4.32-6.43,1.36-.21,2.53,1.84,2.27,3.55,2.79-5.22-.18-3.37,1.9-8.42.6-1.45.92-3.33,1.36-5.02l1.56,2.56c.2-1.18.19-2.24.42-3.2l1-4.11c.73-3.02,1.57-5.72,2.11-8.74-1.2-.03-1.74.59-2.19,1.53-2.02,4.29-3.94,8.45-7.02,12.07,2.12-4.47,4.86-8.2,6.37-13.05-2.46,2.26-4.12,4.9-7.33,6.31,2.1-2.52,5.27-4.18,6.56-7.8-3.66,1.49-6.94,3.13-10.33,3.27l-3.08-2.07c1.3.22,2.6,1.13,3.75,1.05,3.21-.21,6.13-1.29,8.55-3.05l-5.59.45c1.93-.99,3.96-.25,5.97-2.19l-6.93-.92c-1.29-.17-2.99-.74-3.85-1.56l-2.87-2.72c-.2-.26,1.05-1.37,1.56-1.17.5.2,1.23.63,1.75.97l-1.87.3c1.24.72,2.23,1.59,2.94,2.4,3.3,1.17,7.37-.05,10.08-1.98l.43-1.34c.09-.27,1.33-.14,1.31.14-.06.8-1.17,2.37-1.97,2.67l-5.04,1.95,4.38.14c1.12-1.01,1.87-1.51,3.41-1.49l2.17-2.22c-.72-1.16-2.12-3-3.72-2.35-1.51.61-3.19.91-4.55,1.31-1.44.42-2.98,2.04-4.68.33-.04-.41-6.04-2.51-6.67-1.52l-1,1.59-2.48.55c.97,2.06,2.47,3.23,4.13,4.18l-.55-1.65,3.62,3.9-3.35-1.46c-1.67-.73-2.86-1.97-4.01-3.5l-3.66,2.58c1.34.62,2.28,1.02,2.95,1.82l3.29,3.93c-1.84-.09-5.34-6.97-6.21-3.01-2.21,10.08-1.78,9.53-6.73,19.18,3.41-3.09,4.11-3.61,6.33-7.67l.74-3.45c.92,3.06.65,6.08-.27,9.35l-.48-3.59ZM10.02,32.32c.11-.35,1.36-.6,1.33-.23-.09,1.08-.68,1.64-1.59,1.79-.02-.27.13-1.15.26-1.56ZM7.38,42.58c-1.36-2.02.21-4.75,2.28-5.44.24-.08.86-.03,1.01.07,1.3.8-1.53,4.41-3.29,5.37ZM11.67,48.75c-.64-.36-.95-.65-1.11-.59l-1.16.41c-.93-.75-.46-2.35.24-3.54.28-.47,1.09-1.06,1.5-.9,1.49.6.95,3.41.53,4.62ZM23.7,35.48c-.13.4-.4,1.12-.64,1.36-.29.29-1.13.3-1.8.22.49-1.8,1.48-3.11,3.22-4.05l-.77,2.46ZM25.53,22.2c-.17,1.06-.42,2.51-2.32,2.03.35-.84,1.31-1.62,2.32-2.03ZM19.23,17.22c.25-.08.91-.09,1.15-.07.3.03.18.98-.06,1.18l-.96.77c-.23.18-.97-.25-.96-.54,0-.36.48-1.23.82-1.34ZM22.07,24.49l.4,1.42c.09.33.78.44,1.37.69-.52,1.41-1.3,2.54-2.8,3.68l-1.27-2.17c-.23-.11-1.11.04-1.8.19-.36-2.09,1.85-3.96,4.11-3.82ZM19.59,31.94c-.17.21-.8.84-1.09.91l-2.06.48-.08-1.67,3.23.28ZM15.52,39.93c.59-.29,2.42.1,2.48.75.27,2.84-1.69,5.03-4.31,5.99.11-1.12.51-2.06.96-2.97l-1.3-.72c-.26-.14.62-2.3,2.17-3.05Z"/>
      <path class="cls-1" d="M29.83,39.55c-.44-2.08-.65-3.26-1.54-4.65-3.07,1.94-3.89,7.01-4.4,7.04l-1.1.06c-1.73,1.75-2,4.59-1.42,6.83l1.8-.95.28,3.57.24,2.43,4.8-4.7.95,1.81,2.16-5.67c1.18,1.12.78,3.08,1.24,4.36,1.54,2.7,1.86,5.1.82,8.69l2.7-2.88c-.53-2.01.95-2.97,2.12-3.83.08-1.68-.02-3.61.54-5.13l.62,1.92c2.43-3.92-.45-14.55-.26-19.35,1.56,5.09,1.57,12.89,3.24,17.19l.9-4.5c2.64.72,3.06,3.3,1.93,5.42-.49.91-.51,1.86-.44,2.92.12,1.94-.02,3.62-.07,5.83l2.96-4.25c-1.04-2.12-.3-3.87,1.22-5.28-.23-1.9-.53-3.98-.49-5.81l.97,3.01c.27-.22.94-.74,1.18-.66,1.07.33,1.97,2.27,1.76,3.62,1.33-1.46.49-3.14.05-4.81l-2.38-9.01c-.1-.39-.78-.92-1.1-.94-.32-.03-.94.63-.99,1l-.39,3.15c-2.37-3.04-1.66-4.85-3.79-7.14l-1.12,2.24-2.5-7.53-.55,1.19c-1.3-2.72-.3-4.68-1.81-7.19l-1.23,4.69c-1.08,4.14-.1,3.25-1.52,7.38l-1.25-2.82-1.71,4.52c.01,2.93-.05,6.13-2.39,8.25ZM26.67,46.15c-.39.13-.9-1.23-.66-1.55.34-.44.84-1.02,1.32-1.55,1.13,1.12.86,2.6-.67,3.1ZM45.21,36.9c.38.01,1,.68,1.08,1.02s-.24,1.35-.58,1.44c-.6.16-1.3-.41-1.3-.78,0-.45.36-1.69.81-1.68ZM35.98,39.72l.72-2.08c.4.26.48,1.17.61,1.53.46,1.29,1.41,2.77-.07,3.96-.68.55-1.23,1.23-1.96,2.36-.75-1.8.04-3.84.7-5.77Z"/>
      <path class="cls-1" d="M43.94,8.11c-1.15-.76-3.38-.03-4.27,1.1.74,1.56,1.4,2.8,1.95,4.37l-2.16-2.94c-.28,1.95-.88,3.81-.73,5.41.44,1.78.96,3.74,1.18,5.48.05.42.94,1.16,1.11,1.58.62,1.55,1.21,3.77,1.77,5.69l.76-1.58c1.87,1.5,2.75,3.73,3.37,6.08.42-1.06,1.04-3.3,2.54-2.53l2.32,1.18,1.44,3.69c2.06.15,3.15,1.58,3.74,3.56.36-1.57-.27-3.15-1.29-4.56-2.43-3.33-4.77-6.7-6.49-10.43-.68-1.47-1.21-2.33-2.52-3.7l1.49-.09-4.18-12.31ZM44.67,17.55c.25-.14,1.08.19,1.24.44.2.33.2.86.03,1.92-.93-.36-1.62-1.56-1.26-2.36ZM48.6,26.2c.17.21.29.97.26,1.18-.14,1.23-.5-.88-3.24-1.43-1.26-.25-1.94-2.29-1.24-3.33l.9,1.11c.19.23.97.04,1.3.06l2.02,2.41Z"/>
      <path class="cls-1" d="M40.2,6.41c-.06.16-.42,1.11-.42,1.11l4.42-.81c-.5-1.26-1.74-2.35-2.88-2.65l-.19-1.37c-.04-.26-1.19-.21-1.36-.02l-1.66,1.9c.46.6,1.46,1.44,2.09,1.83Z"/>
      <path class="cls-1" d="M34.52,7.29c-.21.71.12,2.41,1.03,2.59.89.17,2.53-.11,3.07-.6.97-.87.43-3.07-.52-3.37l.39,1.78-1.5-2.37c-1.21,0-2.14.85-2.47,1.97Z"/>
    </g>
  </g>
</svg>