<?xml version="1.0" encoding="UTF-8"?>
<svg id="Warstwa_2" data-name="Warstwa 2" xmlns="http://www.w3.org/2000/svg" viewBox="0 0 29.89 55.59">
  <defs>
    <style>
      .cls-1 {
        fill: #fff;
      }
    </style>
  </defs>
  <g id="icon-v9-equipment-pixarts-store">
    <g id="icon-v9-equipment-pixarts-store_376">
      <path class="cls-1" d="M26.13,42.47c.23.28.6.96.88,1.49l2.37-3.27-2.42-3.21-.46,1.27c-.07.18-.75.15-.93.04-1.25-.78-2.04-2.71-1.45-4.29.16-.42.83-1.31,1.26-1.26.46.06,1.14.24,1.85.42-.48-2.19-2.13-4.28-4.53-4.85.14.61.21,1.88-.23,2.33-1.09,1.12-4.05.3-4.08-1.16,0-1.4,1.02-3.23-1.09-4.16-.12.16-.33,1.15-.25,1.57.28,1.51-.78,2.73-2.2,2.67-2.98-.13-1.44-3.99-2.36-4.15-1.69,1.03-1.45,2.65-.7,4.02-.3,1.07-2.07,1.85-3.34,1.67-.51-.07-1.44-.63-1.42-1.07l.11-1.7c-2.24.65-3.98,2.55-4.36,4.79.95-.28,2.32-.36,2.76.37.95,1.58.21,3.58-.9,4.57-.22.2-1.06.46-1.16.22l-.51-1.26-2.45,3.31,2.43,3.07c.18-.48.65-1.41.96-1.34,1.66.53,2.93,3.37,1.46,5.06-.52.6-1.87.37-2.73.09.65,2.36,2.26,4.26,4.62,5.11-.36-1.39-.41-2.74,1.02-3.08,2.73-.66,5.47,2.08,4.65,2.73l-1.02.8c.92.77,2.15,1.74,3.16,2.32l3-2.32c-.52-.44-1.04-.9-1.31-1.22.9-2.01,3.91-3.15,5.68-1.78.51.39.33,1.89.25,2.6,2.31-.86,4.11-2.79,4.54-5.11-.87.3-2.17.47-2.64-.11-1.43-1.8-.41-4.47,1.52-5.18ZM7.7,47.04l-.09-5.7-2.15-.38,2.13-1.77.15-4.9c.49.36,1.44,1.32,1.45,1.86l.05,8.86c0,.74-.9,1.72-1.52,2.03ZM19.07,45.44l-1.01,1.34-4.43-4.17-.1,4.44c-.02.77-.74,1.63-1.6,1.3l.06-15.74,7.08,5.38-4.12,3.47,4.12,3.99ZM22.29,41.19l-.06,5.82c-.82-.31-1.54-1.37-1.54-2.33v-8.26c0-.66.98-1.7,1.56-2.08l.11,4.88,2.08,1.84-2.15.13Z"/>
      <path class="cls-1" d="M16.07,27.32c.45-2.09.82-4.31,1.06-6.42-1.29-.9-3.14-.78-4.47.04l1.25,6.44c.22.46,2.05.47,2.16-.06Z"/>
      <path class="cls-1" d="M25,6.57l1.24-4.79c.12-.48,1.59-.65,1.98-.39.39.26.65,1.23.47,1.81l-1.24,4.05c1.97.14,2.54-3.86,2.43-5.17-.12-1.54-1.63-2.15-2.83-2.04-2.7.24-3.52,5.99-2.06,6.54Z"/>
      <path class="cls-1" d="M2.44,7.32L1.19,2.91c-.21-.74.51-1.64,1.25-1.78.48-.09,1.33.55,1.48,1.19l.98,4.29c1.44-1.36.49-2.65.36-3.96C5.08.81,3.58-.26,1.99.05.28.38-.32,2.01.16,3.7c.4,1.41.29,3.19,2.28,3.62Z"/>
      <path class="cls-1" d="M3.94,5.45c-.06-.19-.72-.56-.9-.63-.14-.06-.49.51-.44.68l1.37,4.82c.08.28,1,.68,1.1.43.08-.19.32-.86.26-1.05l-1.39-4.25Z"/>
      <path class="cls-1" d="M26.72,4.84c-.15.08-.63.37-.68.53l-1.55,4.67c-.08.25.61.94.79.77.13-.12.66-.53.72-.74l1.28-4.22c.07-.22-.35-1.12-.55-1.01Z"/>
      <path class="cls-1" d="M5.31,13.59l2.01,4.07c.08.17.94.4.98.22.32-1.34-2.27-6.46-2.79-5.27-.07.17-.29.82-.21.98Z"/>
      <path class="cls-1" d="M21.91,18.04c.2-.06.86-.41.96-.64l1.71-3.82c.11-.25-.29-1.14-.51-1.02-.17.09-.66.38-.75.57l-1.74,3.82c-.12.25.06,1.17.33,1.08Z"/>
      <path class="cls-1" d="M9.31,21.8c-1.49-1.62-2.27-3.13-3.15-5.1-1.9.85,1.79,6.81,3.15,5.1Z"/>
      <path class="cls-1" d="M24.77,14.91c2.03.34,3.74-5.43,2.13-5.67l-2.13,5.67Z"/>
      <path class="cls-1" d="M5.26,15.07l-2.32-5.86c-1.73.73.75,6.52,2.32,5.86Z"/>
      <path class="cls-1" d="M22.25,13.98c.92-1.98,1.64-3.83,2.04-5.63-2.33,1.19-3.05,3.83-2.04,5.63Z"/>
      <path class="cls-1" d="M23.84,16.79c-.95,2.01-1.91,3.5-3.33,5.13,1.87,1.03,4.8-3.89,3.33-5.13Z"/>
      <path class="cls-1" d="M7.8,14.03c.62-2.35-.17-4.95-2.3-5.71.63,2.15,1.31,4.03,2.3,5.71Z"/>
      <path class="cls-1" d="M21.23,20.11c-.51-1.99-4.5,2.27-3.46,3.46l3.46-3.46Z"/>
      <path class="cls-1" d="M8.35,15.57c.85,1.73,1.74,3.28,2.96,4.82.58-2.16-1.02-4.28-2.96-4.82Z"/>
      <path class="cls-1" d="M18.77,20.35l2.83-4.39-.8-.44c-1.09,1.44-2.99,2.56-2.03,4.82Z"/>
      <path class="cls-1" d="M12.14,23.48c.45-2.21-1.22-2.3-1.89-3.58l-1.06-.3c-1.62-.46,2.51,4.07,2.95,3.88Z"/>
      <polygon class="cls-1" points="13.55 35.93 13.62 40.27 16.56 38.02 13.55 35.93"/>
    </g>
  </g>
</svg>