<?xml version="1.0" encoding="UTF-8"?>
<svg id="Warstwa_2" data-name="Warstwa 2" xmlns="http://www.w3.org/2000/svg" viewBox="0 0 26.62 50.47">
  <defs>
    <style>
      .cls-1 {
        fill: #fff;
      }
    </style>
  </defs>
  <g id="icon-v9-equipment-pixarts-store">
    <g id="icon-v9-equipment-pixarts-store_202">
      <path class="cls-1" d="M16.19,14.94c1.22-2.33,2.17-4.32,3.71-6.55-.69,2.92-1.84,5.55-2.94,8.49l1.52,4.12,4.08-.29-3.78,1.8c-2.24,10.27-1.47,8.73.28,18.77,2.25-6.25.76-4.8.03-8.06-.33-1.49,2.08-2.06,1.32-6.01l1.27,1.29c.42-.58,1.02-1.42,1.16-2.07l1.35-6.12-4.42-4.87c.92-2.8,2.48-5.67.45-8.33L14.8,0l-1.08,10.73c.6,1.32,1.67,2.96,2.48,4.21Z"/>
      <path class="cls-1" d="M13.01,35.9l3.21-5.29,1.43-8.45c-.91-3.38-2.09-6.39-4.39-9.39l-4.24,9.15,1.4,10.08,2.59,3.9Z"/>
      <path class="cls-1" d="M6.3,38.14c5-7.03,2.6-7.5,1.48-15.52l-5.21-3.3,3.19,11.55,1.06-3.02c.57.52.8,1.54.47,2.34-1.11,2.71-1.44,5.38-.98,7.95Z"/>
      <path class="cls-1" d="M16.39,32.57c-.86,1.33-2.17,2.73-2.24,4.06-.25,4.68.01,9.01.36,13.84,1.47-2.59,2.85-4.99,3.99-7.85.01-1.86-1.04-4.04-1.33-5.68l-.78-4.37Z"/>
      <path class="cls-1" d="M10.12,33.8c-.37.63-1.04,1.97-.87,2.62l.81,3.08c-.84-.5-1.74-1.09-2.58-1.28-.92-.2-1.63,1.58-.84,1.84,1.37.62,2.24,1.31,2.91,2.36l4.18,7.47c-.4-4.62-1.05-8.51-1.82-12.86-.19-1.07-1.16-2.33-1.78-3.24Z"/>
      <path class="cls-1" d="M12.39,12.14c.64-1.3-.23-2.3-1.39-2.73l-4.78.15,2.49,10.11,3.68-7.53Z"/>
      <polygon class="cls-1" points="5.67 10.59 2.48 18.41 7.73 21.08 5.67 10.59"/>
      <path class="cls-1" d="M13.98.2l-7.33,8.07,4.31.85c2.43-3.98,2.45-4.45,3.02-8.92Z"/>
      <path class="cls-1" d="M24.7,17.98l1.92-5.01-2.82-4.68-1.92,5.17c1.16-.35,1.48-.51,2.67-.58l-3.09,2.6c1.03,1.13,2.03,1.97,3.25,2.5Z"/>
      <path class="cls-1" d="M21.07,32.22c.9.88,1.38,1.44,1.6,2.24l-1.8-.9,1.7,4.64,2.66-5-1.85-4.08-2.3,3.1Z"/>
      <path class="cls-1" d="M1.29,24.51l-1.29,3.22,2.06,3.33c1.07-3.34,1.04-3.87-.77-6.55Z"/>
    </g>
  </g>
</svg>