<?xml version="1.0" encoding="UTF-8"?>
<svg id="Warstwa_2" data-name="Warstwa 2" xmlns="http://www.w3.org/2000/svg" viewBox="0 0 32.29 53.69">
  <defs>
    <style>
      .cls-1 {
        fill: #fff;
      }
    </style>
  </defs>
  <g id="icon-v9-equipment-pixarts-store">
    <g id="icon-v9-equipment-pixarts-store_395">
      <rect class="cls-1" x="9.59" y="37.89" width="13.19" height="13.11"/>
      <polygon class="cls-1" points="26.14 53.57 29.53 53.54 29.46 35.18 26.13 35.2 26.14 53.57"/>
      <polygon class="cls-1" points="6.17 35.12 2.8 35.14 2.89 47.02 2.87 53.66 6.22 53.55 6.17 35.12"/>
      <path class="cls-1" d="M20.55,3.55C20.21,1.53,18.29-.05,16.24,0c-2.13.05-4.08,1.43-4.41,3.59-.31,2.01.52,4.25,2.83,4.89,1.05-1.6-2.7-3.26-.53-5.73,1.03-1.17,2.67-1.16,3.66-.41,1.2.92,1.54,2.58.32,3.85-.63.65-.78,1.68-.52,2.41,2.37-.81,3.32-2.94,2.96-5.05Z"/>
      <path class="cls-1" d="M8.8,38.02c-.02-.64-1.25-1.58-1.86-1.88l-.05,16.6c.53-.25,1.89-1.29,1.92-1.94.15-4.61.15-8.44,0-12.79Z"/>
      <polygon class="cls-1" points="25.42 36.08 23.52 37.6 23.51 51.21 25.41 52.75 25.42 36.08"/>
      <path class="cls-1" d="M32.29,50.16v-11.73c-.09-.63-1.41-1.64-1.95-1.93v15.93c.69-.41,1.95-1.39,1.95-2.27Z"/>
      <path class="cls-1" d="M2.07,45.86c.01-3.25.11-6.26-.04-9.49l-1.99,1.99-.04,12.22,2.04,1.98.03-6.69Z"/>
      <path class="cls-1" d="M19.84,37.25l-1.39-2.2c-.26-.41-.95-.9-1.43-1.18-.03-.52-.09-1.74-.25-2.32-.11-.39-1.52.05-1.53.46l-.03,1.75c0,.23-.98.35-1.02.57l-.17.88c-.52.53-1.03,1.19-1.35,1.93l7.16.12Z"/>
      <path class="cls-1" d="M14.05,53.69l4.37-.06,1.24-1.9c-2.48-.15-4.44-.15-6.9.02l1.3,1.94Z"/>
      <path class="cls-1" d="M16.81,6.72c-.01-.25-1.02-.54-1.13-.31-.09.17-.28.66-.28.85v4.37c0,.28.38.83.55,1.01,1.44,1.58.87-5.8.86-5.91Z"/>
      <path class="cls-1" d="M16.2,29.08c.21.02.7-.62.7-.86v-4.51c-.01-.27-.45-.84-.68-.94-.24-.1-.81.5-.81.8l-.03,4.59c0,.33.54.88.82.91Z"/>
      <path class="cls-1" d="M15.91,14.72c-.14.13-.51.56-.51.76v4.57c-.01.32.53.97.79.86.19-.08.7-.7.7-.98l-.04-4.57c0-.27-.76-.82-.94-.64Z"/>
      <path class="cls-1" d="M17.51,26.93l.07,5.3c.05,3.99,3.16-4.34-.07-5.3Z"/>
      <path class="cls-1" d="M17.45,10.46l.13,6.51c1.88-.75,1.88-6.24-.13-6.51Z"/>
      <path class="cls-1" d="M14.73,16.86l.05-6.45c-2,.22-1.83,6.39-.05,6.45Z"/>
      <path class="cls-1" d="M17.46,18.58v6.54c2-.46,1.93-6.12,0-6.54Z"/>
      <path class="cls-1" d="M14.77,25.04v-6.42c-1.82.15-1.94,6.33,0,6.42Z"/>
      <path class="cls-1" d="M14.52,33.06l.29-6.23c-2.07-.04-1.81,6.47-.29,6.23Z"/>
    </g>
  </g>
</svg>