<?xml version="1.0" encoding="UTF-8"?>
<svg id="Warstwa_2" data-name="Warstwa 2" xmlns="http://www.w3.org/2000/svg" viewBox="0 0 46.74 58.65">
  <defs>
    <style>
      .cls-1 {
        fill: #fff;
      }
    </style>
  </defs>
  <g id="icon-v9-equipment-pixarts-store">
    <g id="icon-v9-equipment-pixarts-store_350">
      <path class="cls-1" d="M22.41,9.03l7.08,2.86c-1.97-2.15-4.57-2.87-7.08-2.86Z"/>
      <path class="cls-1" d="M20.68,18.88c0-1.15-.93-2.08-2.08-2.08s-2.08.93-2.08,2.08.93,2.08,2.08,2.08,2.08-.93,2.08-2.08ZM17.35,18.52c0-.68.55-1.23,1.23-1.23s1.23.55,1.23,1.23-.55,1.23-1.23,1.23-1.23-.55-1.23-1.23Z"/>
      <path class="cls-1" d="M9.89,17.76c-1.02,0-1.84.82-1.84,1.84s.82,1.84,1.84,1.84,1.84-.82,1.84-1.84-.82-1.84-1.84-1.84ZM9.83,20.32c-.55,0-1-.45-1-1s.45-1,1-1,1,.45,1,1-.45,1-1,1Z"/>
      <path class="cls-1" d="M3.27,19.48c-.93,0-1.68.75-1.68,1.68s.75,1.68,1.68,1.68,1.68-.75,1.68-1.68-.75-1.68-1.68-1.68ZM3.2,21.81c-.48,0-.86-.39-.86-.86s.39-.86.86-.86.86.39.86.86-.39.86-.86.86Z"/>
      <path class="cls-1" d="M27.31,21.47c1.01,0,1.82-.82,1.82-1.82s-.82-1.82-1.82-1.82-1.82.82-1.82,1.82.82,1.82,1.82,1.82ZM27.36,18.38c.55,0,.99.44.99.99s-.44.99-.99.99-.99-.44-.99-.99.44-.99.99-.99Z"/>
      <path class="cls-1" d="M33.94,22.88c.92,0,1.66-.74,1.66-1.66s-.74-1.66-1.66-1.66-1.66.74-1.66,1.66.74,1.66,1.66,1.66ZM34.01,20.1c.48,0,.86.39.86.86s-.39.86-.86.86-.86-.39-.86-.86.39-.86.86-.86Z"/>
      <path class="cls-1" d="M22.08,53.81c-.52-.13-1.6-.26-1.65-.02-.04.24-.1.7-.09,1.07.02.59,1.25.88,1.7.53.36-.28.48-1.46.04-1.58Z"/>
      <path class="cls-1" d="M16.03,53.58c-.31.04-1.08.32-1.27.58-.21.29.31,1.16.62,1.35.3.19,1.35-.11,1.49-.5.24-.64-.42-1.48-.84-1.42Z"/>
      <path class="cls-1" d="M14.49,52.1c2.87-1.01,5.24-1.04,8.11.02,1.74.64,3.52-1.57,3.36-2.96-3.78,5.41-3.01-1.11-11.9,2.2-1.3.48-2.55-1.86-2.94-2.76-.34,1.67,1.57,4.13,3.36,3.49Z"/>
      <path class="cls-1" d="M35.63,29.96c-.57,0-1.03.46-1.03,1.03s.46,1.03,1.03,1.03,1.03-.46,1.03-1.03-.46-1.03-1.03-1.03Z"/>
      <path class="cls-1" d="M32.04,32.14c-.61,0-1.11.5-1.11,1.11s.5,1.11,1.11,1.11,1.11-.5,1.11-1.11-.5-1.11-1.11-1.11Z"/>
      <path class="cls-1" d="M23.16,33.09c-2.32.02-2.93,2.68-4.57,2.91-1.04.14-2.13-2.67-4.45-2.95-.28-.03-.67.99-.49,1.22l.45.58c.35-.34.61-.71.73-.6l.66.61c.84.77,1.91,2.3,3.27,2.22,1.72-.11,4.45-4.38,4.08-2.45l-.14.75.89-.87c.22-.21-.11-1.42-.44-1.42Z"/>
      <path class="cls-1" d="M5.35,32.12c-.64,0-1.16.52-1.16,1.16s.52,1.16,1.16,1.16,1.16-.52,1.16-1.16-.52-1.16-1.16-1.16Z"/>
      <circle class="cls-1" cx="1.53" cy="30.97" r="1.01"/>
      <path class="cls-1" d="M.42,16.4c2.64-2.19,5.19-3.94,8.4-3.66-2.64,1.28-5.29,1.94-6.96,4.23,11.44-3.98,22.72-3.71,33.9.17l-2.19-3.48,2.86,1.79c-1.45-3-3.86-4.83-5.43-7.84.81.37,1.51.92,1.95,1.51l3.18,4.26c-.35-2.29-1.27-4.15-2.45-6.04-3.9-6.23-1.46-4.45-7.06-5.81C24,.88,21.46-.03,18.77,0,13.53.07,4.46,3.22,2.81,8.86l4.03-1.78L.81,12.48l-.39,3.92ZM29.48,11.89l-7.08-2.86c2.51,0,5.11.71,7.08,2.86Z"/>
      <path class="cls-1" d="M29.87,31.53c-5.31,1.79-4.72-2.74-9.32.56.3-.91.98-1.54,1.9-2.29-4.14-1.97-3.66-2.18-7.86.11.99.66,1.71,1.19,1.95,2.27-3.98-3.72-4.52,1.67-10.03-.95-2.25-1.07-3.9-2.49-5.63-4.49-.61,1.61-1.03,4.03-.53,5.66l6.2,5.25,1.62-1.88c-.5,1.94-1.66,3.4-.31,5l1.53-5.33c.11-.38,1-.91,1.15-.8l-.96,2.22,1.2-.67c.67-.37,7.31,5.8,14.46.27.48-.37,1.59-.03,2.26.32l-1.19-2.17c.3-.18,1.4.4,1.54.96l1.35,5.32c1.23-1.56.46-3.04.11-4.78l1.21,1.61c2.01-1.83,4.27-3.36,6.1-5.42,1.04-1.33.09-4.14-.24-5.6-2.04,2.14-3.89,3.96-6.54,4.85ZM1.53,31.97c-.56,0-1.01-.45-1.01-1.01s.45-1.01,1.01-1.01,1.01.45,1.01,1.01-.45,1.01-1.01,1.01ZM5.35,34.44c-.64,0-1.16-.52-1.16-1.16s.52-1.16,1.16-1.16,1.16.52,1.16,1.16-.52,1.16-1.16,1.16ZM23.59,34.51l-.89.87.14-.75c.37-1.93-2.37,2.34-4.08,2.45-1.36.09-2.44-1.45-3.27-2.22l-.66-.61c-.12-.11-.38.25-.73.6l-.45-.58c-.17-.22.21-1.25.49-1.22,2.32.28,3.41,3.09,4.45,2.95,1.65-.23,2.25-2.89,4.57-2.91.33,0,.66,1.21.44,1.42ZM32.04,34.36c-.61,0-1.11-.5-1.11-1.11s.5-1.11,1.11-1.11,1.11.5,1.11,1.11-.5,1.11-1.11,1.11ZM35.63,32.03c-.57,0-1.03-.46-1.03-1.03s.46-1.03,1.03-1.03,1.03.46,1.03,1.03-.46,1.03-1.03,1.03Z"/>
      <path class="cls-1" d="M36.65,25.19c.3-2.23.4-4.14.19-6.26-11.81-5.04-25.31-5.01-36.84.18l.38,6.17c11.81-3.72,24.35-3.6,36.27-.09ZM33.94,19.56c.92,0,1.66.74,1.66,1.66s-.74,1.66-1.66,1.66-1.66-.74-1.66-1.66.74-1.66,1.66-1.66ZM27.31,17.82c1.01,0,1.82.82,1.82,1.82s-.82,1.82-1.82,1.82-1.82-.82-1.82-1.82.82-1.82,1.82-1.82ZM3.27,22.85c-.93,0-1.68-.75-1.68-1.68s.75-1.68,1.68-1.68,1.68.75,1.68,1.68-.75,1.68-1.68,1.68ZM9.89,21.44c-1.02,0-1.84-.82-1.84-1.84s.82-1.84,1.84-1.84,1.84.82,1.84,1.84-.82,1.84-1.84,1.84ZM16.51,18.88c0-1.15.93-2.08,2.08-2.08s2.08.93,2.08,2.08-.93,2.08-2.08,2.08-2.08-.93-2.08-2.08Z"/>
      <path class="cls-1" d="M3.45,43.32c.63,2.43,3.24,4.19,4.7,6.17,2.86,3.91,6.27,6.77,10.61,9.15,3.15-2.12,6.24-4.16,8.57-7.09,5.94-7.48,6.48-4.67,7.15-14.68-2.13,1.98-1.55,6.28-4.41,8.96,1.02-3.11,2.45-5.44,2.39-8.6l-1.93,5-2.39,5.54-.03-4.18c-1.15,1.67-3.01,7.56-5.84,6.22-2.57-1.22-5.76-.73-8.35.24-2.8-.97-3.18-4.08-4.95-6.51l.05,4.3-2.91-6.98-1.27-3.06c.03,2.79,1.09,4.88,1.97,7.47-2.53-2.47-2.14-6.59-4.16-8.54.27,2.27.23,4.49.78,6.58ZM16.87,55c-.14.39-1.19.69-1.49.5-.31-.19-.83-1.06-.62-1.35.19-.25.96-.54,1.27-.58.42-.05,1.08.78.84,1.42ZM22.04,55.38c-.44.35-1.68.06-1.7-.53,0-.37.05-.82.09-1.07.04-.24,1.13-.11,1.65.02.44.11.32,1.3-.04,1.58ZM11.13,48.61c.39.89,1.64,3.24,2.94,2.76,8.88-3.31,8.12,3.21,11.9-2.2.16,1.39-1.62,3.61-3.36,2.96-2.87-1.06-5.25-1.04-8.11-.02-1.8.64-3.7-1.83-3.36-3.49Z"/>
      <path class="cls-1" d="M38.97,28.25c.4,2.51.93,4.63.73,7.05l-1.13-4.57-.88,3.12c-1.01,3.58,1.91,6.35,4.21,8.71l-.09-9.58-2.83-4.73Z"/>
      <path class="cls-1" d="M46.72,34.67c.27-2.93-2.37-10.77-5.91-9.71l2.41,3.76-2.87-2.12c-.49,4.64,3.69,4.31,6.37,8.08Z"/>
      <path class="cls-1" d="M26.59,37.44c-.19-.37-1.32-.17-1.57.15-.24.32-.63,1.2-.55,1.63l.83,4.44c1.54-1.82,2.26-4.34,1.29-6.22Z"/>
      <path class="cls-1" d="M10.64,37.38c-1.18,2.21.02,4.45,1.14,6.45l.98-5.26c.13-.68-1.8-1.79-2.12-1.19Z"/>
      <path class="cls-1" d="M38.74,20.81c1.17,3.79-1.74,4.4-.77,5.44.18.19.98-.2,1.16-.43,1.26-1.69,1.65-3.92-.39-5Z"/>
      <path class="cls-1" d="M13.8,49c.24.15,1.05-.27,1.04-.53l-1.52-4c-.88,1.9-1.16,3.5.47,4.52Z"/>
      <path class="cls-1" d="M22.39,48.44c-.08.23.78.8.99.68,1.54-.9,1.29-3.4.5-4.67l-1.49,3.99Z"/>
      <path class="cls-1" d="M21.76,39.6c-.1.53.19,1.51.53,2.3.96-1.12,1.26-1.93,1.27-3.28-.72.21-1.71.49-1.8.98Z"/>
      <path class="cls-1" d="M15.14,39.17c-.27-.29-1.02-.38-1.66-.34.26,1.36.75,2.41,1.45,2.94.5-1.46.61-2.18.22-2.61Z"/>
      <path class="cls-1" d="M20.63,39.73c-.78-.11-1.74.06-1.67.37.07.31.43,1.14.72,1.37.45.36,1.52-1.65.95-1.73Z"/>
      <path class="cls-1" d="M17.91,39.65l-1.39-.11c-.03.83.35,1.74.89,2.14.57-1.14.85-2,.5-2.03Z"/>
      <path class="cls-1" d="M19.81,18.52c0-.68-.55-1.23-1.23-1.23s-1.23.55-1.23,1.23.55,1.23,1.23,1.23,1.23-.55,1.23-1.23Z"/>
      <path class="cls-1" d="M27.36,20.36c.55,0,.99-.44.99-.99s-.44-.99-.99-.99-.99.44-.99.99.44.99.99.99Z"/>
      <path class="cls-1" d="M9.83,18.32c-.55,0-1,.45-1,1s.45,1,1,1,1-.45,1-1-.45-1-1-1Z"/>
      <circle class="cls-1" cx="34.01" cy="20.96" r=".86"/>
      <path class="cls-1" d="M3.2,20.08c-.48,0-.86.39-.86.86s.39.86.86.86.86-.39.86-.86-.39-.86-.86-.86Z"/>
    </g>
  </g>
</svg>