<?xml version="1.0" encoding="UTF-8"?>
<svg id="Warstwa_2" data-name="Warstwa 2" xmlns="http://www.w3.org/2000/svg" viewBox="0 0 57.88 56.87">
  <defs>
    <style>
      .cls-1 {
        fill: #fff;
      }
    </style>
  </defs>
  <g id="icon-v9-equipment-pixarts-store">
    <g id="icon-v9-equipment-pixarts-store_316">
      <path class="cls-1" d="M44.04,47.45c.06.31-.47.67-.8.84-.04-.83,0-1.22-.19-1.57-.16-.29-1.05-.58-1.24-.31-.19.27-.35,1.45-.15,1.74.53.76,2.18,1.06,2.67.57.9-.91.45-2.83-.63-3.05l.34,1.78Z"/>
      <path class="cls-1" d="M41.12,16.12c-1.37.68-1.54,2.02-.82,3.2.54.9,2.12,1.38,2.9.78,1.15-.87,1.56-2.13,1.03-3.02-.7-1.15-2.04-1.5-3.11-.97ZM41.64,19.84c-.42-.09-1.01-.83-1.09-1.26-.09-.54.17-1.7.71-1.94,1-.46,2.27.06,2.36,1.11.09,1.1-.56,2.41-1.99,2.09Z"/>
      <path class="cls-1" d="M16.21,51.05c.23.16.94-.57.82-.83-.22-.46-.77-1.29-.98-1.11-.39.32-1.13,1.03-.85,1.23l1.01.71Z"/>
      <path class="cls-1" d="M17.55,19.4c.65-1.92-.1-3.34-1.76-3.6-1.1-.18-2.18.83-2.31,1.82-.14,1.1.5,2.26,1.48,2.71.7.32,2.32-.14,2.59-.93ZM16.27,19.87c-.74.23-1.77-.45-2.01-1.01-.34-.79-.18-2,.77-2.4.73-.3,1.84.36,2.17.96.39.7,0,2.16-.94,2.45Z"/>
      <path class="cls-1" d="M34.54,25.63c-.52.93-.62,2.35.28,2.81l.1-2c.02-.38,1.05-1.19,1.29-.88l1.03,1.3c.06.06.6-.55.5-.77-.09-.23-.46-.76-.67-.91-.79-.55-2.18-.17-2.53.46Z"/>
      <path class="cls-1" d="M28.78,18.68c.42.08,1.07-.75,1.04-1.11-.03-.35-.42-1.14-.79-1.2-.78-.12-1.24,2.11-.24,2.3Z"/>
      <path class="cls-1" d="M17.12,25.69c.6-.14,1.45-.44,1.7-.77-.19-1.1-2.37-1.82-2.64-.98-.57,1.78.83,3.74,2.29,4.58,1.21.7,3.05.1,3.43-.77.06-.13-.38-.65-.46-.53l-.49.78c-1.82.53-3.56-.75-3.84-2.31Z"/>
      <path class="cls-1" d="M20.95,26.89l.38-1.16c.08-.26,1.26.07,1.33.34l.57,2.28c.3-.56.44-1.64.19-2.39-.19-.57-1.28-1.15-2.07-.98-.35.08-.96.75-1.05,1.09-.08.29.54.89.66.81Z"/>
      <path class="cls-1" d="M28.7,36.47c.99-3.53.83-7.1,0-10.64v10.64Z"/>
      <path class="cls-1" d="M35.41,18.25c.1.39-.48,1.27-.86,1.31-.94.11-2.18.49-3.32.86-.05-1.83,4.97-1.15,3.01-3.05-.18-.18-.87-.15-1.09.04l-2.94,2.56c-.78.67-1.04,1.49-1.45,2.73l-.15-1.73-3.67-3.37c-.2-.18-.89-.52-1.05-.32l-.64.75c-1.34,1.56,2.25-.37,3.62,3.03,1.01,2.51,1.19,5.01-.7,7.14.72.54,1.18,1.3,1.05,1.96-.51,2.64-3.17-1.17-3.86.15.35.91.69,1.52.7,2.38l-1.58-1.62c-.33-.34-3.08,0-3.08,1.28,0,.41.66,1.22,1.14,1.3,3.5.62,6.49,2.61,8.43,5.89,3.42-6.52,9.37-4.71,9.51-7.24.02-.45-.77-1.09-1.49-1.24-1.54-.32-1.9.52-3,1.55-.14-.04-.08-.95.1-1.21l.56-.82c.11-.17-.42-.65-.6-.56l-.81.42c-.54.28-1.15.59-1.55.69s-1.21-.87-1.03-1.24l.84-1.66c-.89-1.77-1.9-3.99-.86-6.02.47-.92,1.26-1.65,2.06-1.63,1.05.03,2.16.54,2.06,1.75-.03.46-.42,1.16-.73,1.34-.31.19-1.31.07-1.35-.29-.04-.39-.1-1.21-.11-1.39l.67.95c.12.17.61.06.68-.13.04-.13.13-.75.08-.88-.15-.37-1.12-.72-1.51-.61-.32.09-.88.55-1.05.9-1.35,2.78.33,5.52,2.96,6.79,2.2,1.07,4.32,1.39,6.34-.1,1.79-1.31,2.39-3.79,1.47-5.94-.26,1.71-.5,3.22-1.36,4.43-1.07,1.52-3.48,1.68-4.45.9-.18-.15-.4-.76-.21-.81.14-.04.48-.18.55-.07l.38.58c1.37.69,2.97-.47,3.5-1.88-.39-.19-1.56-.84-1.5-1.29.1-.74,1.41-1.1,2.18-.91l.79-1.6c-1.37-.57-2.52-1.29-3.09-2.47-.55-1.14-.39-2.56.37-3.74.39-.61.1-2.49-.73-2.18-1.56.57-3.05,1.68-4.18,2.57.46.67.85,1.29.98,1.76ZM28.7,36.47v-10.64c.83,3.54.99,7.12,0,10.64ZM37.07,25.16c.21.15.58.68.67.91.09.23-.44.84-.5.77l-1.03-1.3c-.24-.3-1.27.5-1.29.88l-.1,2c-.9-.45-.8-1.88-.28-2.81.35-.63,1.73-1.02,2.53-.46Z"/>
      <path class="cls-1" d="M2.77,18.82c1.03.69,2.8,1.07,3.68.87.26-.06.49-1.14.28-1.3s-.73-.25-.89-.05l-.72.86c-.86-.13-.71-1.27-.45-2.47l-1.29.56c.04-.21.31-.7.54-.87s1.26-.19,1.28.09l.11,1.12c.5-.09,1.53-.29,1.68.08l.75,1.78,3.24-.83c.72-.19,1.37-1.55.91-1.84-1.21.04-2.21-.1-2.4-1.27-.1-.61.39-1.58,1.34-1.84.61-.17,1.56.73,1.61,1.47l-1.33-.81c-.25-.15-.89.55-.83.84.07.29.58.92.88.99.76.17,1.73-.77,2.45-1.06,1.28-.53,2.34-1.79,1.79-2.97-.19-.4-1.31-1.02-1.6-.75l-1.04.94c-.13-.08-.46-.76-.26-.92l1.06-.89-.94-2.53c.69.41,1.18,1.4,1.48,2.45.34.47,1.4,1.31,1.95,1.56-.38-2.85-2.39-5.1-4.14-6.74-.26-.25-1.31.33-1.16.6l.77,1.34c-.31-.11-.99-.62-1.46-1.03-1.71.27-3.28,1.73-4.41,3.28l-2.65-.49c.59,2.11,2.26,2.31,4.23,3.41l-3.2-.43c-.67,2.07-1.16,4.6-1.27,6.87Z"/>
      <path class="cls-1" d="M19.06,19.57c-.31,1.06-1.61,1.8-2.7,2.67-1.78,1.43-.99,4.75.17,6.04,1.92,2.13,4.3,2.02,6.61.89,2.25-1.1,4.06-2.72,3.81-5.4-.15-1.52-1.61-2.71-2.79-2.15-.26.13-.59,1.02-.37,1.16.17.1.52.32.69.21l.79-.54-.15,1.13c-.03.2-.8.17-1.07.1-.79-.22-1.26-1.49-.86-2.11.48-.74,1.39-.68,2.72-.82-.66-1.46-3.42-.6-3.48-2.14-.02-.65.35-1.29.95-2.13l-4.07-2.75-1.08,1.78c.97,1.28,1.31,2.5.85,4.08ZM21.35,24.99c.79-.17,1.87.41,2.07.98.26.76.12,1.83-.19,2.39l-.57-2.28c-.07-.27-1.24-.6-1.33-.34l-.38,1.16c-.12.08-.74-.52-.66-.81.09-.34.7-1.02,1.05-1.09ZM20.95,28l.49-.78c.08-.12.52.4.46.53-.38.87-2.22,1.47-3.43.77-1.46-.85-2.86-2.8-2.29-4.58.27-.84,2.44-.11,2.64.98-.26.33-1.1.63-1.7.77.28,1.56,2.02,2.83,3.84,2.31Z"/>
      <path class="cls-1" d="M43.09,8.59c-.87,1.3-1.2,2.63-.88,4.16.41,1.99,4.9,4.7,5.49,2.62.12-.42-.94-1.05-1.2-.83l-1.22,1.05c-.11-.6.79-1.78,1.49-1.84,1.05-.09,1.83.83,1.59,2.02-.15.75-1.1,1.15-2.31,1.12-1.26,1.6,3.59,2.46,4.27,2.57.21-.94.33-1.8.72-1.94.74-.26,2.32.8,2.23,1.1l-.32,1.07c.53,0,1.5-.32,2-.84.6-.63-.7-5.7-1.09-6.97l-3.52.55c.38-1.05.36-1.02.36-.92-.04,1.65,4.29-1.3,4.17-2.55-4.51,1.21-1.81-1.24-7.09-2.86l-2.85,2.8c-.24.23-.71,1.02-.55,1.25l.7.95.52.7c.08.11-.32.41-.41.48-.37-.39-1.03-1.06-1.37-.84l-1.45.94,2.16-3.82,2.82-2.85c-1.63-1.52-3.52,1.73-4.27,2.85Z"/>
      <path class="cls-1" d="M14.29,43.38c5.05,2.38,11.47,6.18,14.59,10.74,2.9-3.63,6.34-6.39,10.31-8.45,1.38-.72,2.85-1.5,4.2-2.47.43-.31-.54-2.06-.98-2.06l-5.72,2.99c-2.88,1.51-5.3,3.48-7.73,5.86-4.12-3.95-8.74-6.81-13.83-9.01l-.84,2.38Z"/>
      <path class="cls-1" d="M28.92,19.91c1.25-1.08,2.2-2.21,3.36-3.03l6.03-4.26-.19-3.34c-4.32,3.19-7.31,2.56-9.35,6.1l-1.42-1.93c-1.14-.4-1.91-.84-2.87-1.4l-4.69-2.7c-.02,1.49-.06,2.28-.23,3.27l6.2,4.5c1.12.82,2.03,1.87,3.15,2.78ZM29.02,16.37c.37.06.77.85.79,1.2.03.35-.61,1.19-1.04,1.11-1-.19-.54-2.42.24-2.3Z"/>
      <path class="cls-1" d="M28.95,40.94c-2-3.07-4.69-5.57-8.41-6.26l.74,4.25c3.22,1.06,5.73,2.84,7.67,5.82,1.83-2.98,4.47-4.75,7.59-5.75l.82-4.34c-3.69.77-6.59,3.01-8.41,6.28Z"/>
      <path class="cls-1" d="M39.59,47.05c.99.57,1.59,1.14,1.65,1.86-.58-.44-1.6-1.17-2.22-.8-.58.35-1.02,1.37-1.02,1.87,0,.5.65,1.47,1.14,1.7.2.1.92-.5.85-.7l-.34-.94c-.21.43-.25.91-.42.81-.13-.07-.57-.34-.53-.48l.18-.72c.45-.02,1.37.2,1.45.63.09.49.06,1.22-.06,1.59-.12.36-1.28.56-1.62.33-1.54-1.08-1.52-3.11-.71-4.63l-1.2,1.36c-.15-.05-1.07-.34-1-.08.37,1.39,2.09,4.94,2.86,7.82,1.03-1.68,2.02-3.48,3.27-4.8,1.57-1.66,3.48-1.37,5.31-.33-.79-2.65-1.74-4.83-3.28-7.06-1.83.66-3.21,1.54-4.3,2.57ZM44.34,48.73c-.49.49-2.14.19-2.67-.57-.2-.29-.04-1.47.15-1.74.19-.27,1.08.02,1.24.31.19.35.15.74.19,1.57.33-.17.86-.53.8-.84l-.34-1.78c1.09.22,1.54,2.14.63,3.05Z"/>
      <path class="cls-1" d="M16.47,52.15c1.07,1.42,2.02,3.17,2.88,4.73.73-2.9,1.6-5.34,3-7.84l-2.1-1.14c.76,1.38.11,3.55-1.12,4.38-.29.19-1.44-.11-1.46-.44-.02-.28-.39-1.89.62-2.3.25-.1.93.34.85.6s-.37.78-.45.86l-.18-.65c-.03-.11-.31-.3-.33-.19l-.15.9c-.03.18.37.8.54.73.11-.05.37-.18.55-.29,1.07-.64,1.22-3.04-.28-3.53l-4.91,1.14c-.5-.12-.87-1.54-.66-2.06.18-.44.63-.95,1.23-1.36l-.59,1.53c-.11.3.34,1.03.65,1.19.36-.79.75-1.79,1.29-1.98.17-.06.54.59.38.68l-.67.39c.45.82,2,.37,2.61-.57-1.18-1.07-2.54-1.88-4.13-2.37-1.55,2.36-2.59,4.51-3.26,7.11,2.11-1.43,4.25-1.46,5.7.47ZM16.05,49.11c.21-.17.76.65.98,1.11.12.26-.59.99-.82.83l-1.01-.71c-.28-.2.46-.9.85-1.23Z"/>
      <path class="cls-1" d="M28.93,48.72c2.06-2.04,4.08-3.61,6.64-5.19l-.05-2.89c-3.1,1-4.88,2.95-6.59,5.5-1.67-2.61-3.61-4.52-6.65-5.58-.07,1.18,0,2.42.29,3.3,2.44,1.35,4.53,2.95,6.37,4.87Z"/>
      <path class="cls-1" d="M15.72,14.47c.06.1,1.17.11,1.35-.13,2.31-3.16-1.79-11.07-3.89-13.5,3.65,2.62,4.19,6.84,5.33,10.94C19.55,7.77,16.05.89,12.92.02l-.72,4.5c1.69,1.82,3.41,3.85,4.22,6.46.31,1.01-.39,2.48-.7,3.5Z"/>
      <path class="cls-1" d="M41.98,14.63c-1.19-3.68.87-7.82,3.81-9.97l-.68-3.59c-2.2,1.45-7.77,12.33-3.13,13.56Z"/>
      <path class="cls-1" d="M38.88,30.7c1.27,1.51,2.64,2.62,4.48,2.95l1.78-4.96-2.05-1.79c-.8,1.98-2.18,3.36-4.21,3.79Z"/>
      <path class="cls-1" d="M14.77,26.92l-1.92,2.05,1.73,4.81c2.05-.77,3.23-1.49,4.45-3.01-2.23-.65-3.31-1.8-4.26-3.85Z"/>
      <path class="cls-1" d="M12.49,20.06c.17-.11-.49-.94-.69-.87-3.07,1.06-7.2,2.4-9.67-.21l-2.12,1.61c3.55,2.16,9.66,1.24,12.49-.52Z"/>
      <path class="cls-1" d="M56.65,25.25l-1.77-2.35c-2.16.14-4.1.1-6.55-.06l2.46,1.23c-1.87-.19-3.17-1.4-4.9-1.99,2.56,3.38,6.92,3.87,10.77,3.17Z"/>
      <path class="cls-1" d="M3.06,23.04l-1.68,2.18c2.78,1.01,9.19-.16,10.59-3.16-1.68.78-2.93,1.56-4.79,2.07l2.15-1.33c-2.36.17-3.89.24-6.27.25Z"/>
      <path class="cls-1" d="M46.37,19.2c-.32-.12-.94.88-.66,1.02,3.3,1.61,8.6,2.61,12.16.31l-2.09-1.4c-2.76,2.32-6.88,1.04-9.41.07Z"/>
      <path class="cls-1" d="M36.55,43.03l5.15-2.57c.28-.14.32-1.23.06-1.36l-3.66-1.89-.74,2.27c-.79,1.11-1.09,2.27-.81,3.55Z"/>
      <path class="cls-1" d="M19.86,37.19l-3.81,1.89c-.37.19,0,1.26.35,1.43l4.8,2.47c.39-1.26.11-2.57-.84-3.54l-.5-2.25Z"/>
      <path class="cls-1" d="M56.11,29.23l-1.28-2.53-5.41-.8.47.98-2.09-1.92c.08,3.56,5.09,4.11,8.32,4.27Z"/>
      <path class="cls-1" d="M2.92,26.67l-1.17,2.59c2.56-.06,8.37-.84,8.16-4.07l-2.95,2.17,1.09-1.31-5.13.63Z"/>
      <path class="cls-1" d="M42.23,38.21l.47-3.58-3.29-1.8c-.52.89-1.12,2.09-1.56,3.28l4.38,2.09Z"/>
      <polygon class="cls-1" points="15.07 34.67 15.63 38.28 20 36.06 18.36 32.95 15.07 34.67"/>
      <path class="cls-1" d="M35.3,5.75l-2.97,1.64c-.89,1.16-1.19,2.86-1.34,4.35l.62-.38c.11-.07.64.37.76.33,1.45-.5,3.89-2.05,5.07-3.28l-.21-2.34-2.51,1.56c-.78.48-1.38.93-2.21,1.53-.22-.88,2.31-2.12,4.17-3.47.57-.42.88-2.16.38-2.63-1.43-1.37-3.29-1.75-4.93-1.37,1.55.44,2.99.71,4.12,1.84.43.44-.4,1.92-.96,2.23Z"/>
      <path class="cls-1" d="M23.7,7.91l-3-1.79-.22,2.13c1.63,1.56,3.26,2.74,5.24,3.54.42-2.11-.62-3.25-2.02-3.87Z"/>
      <path class="cls-1" d="M21.89,6.19l3.41,2.16c.51,1.41.79,2.61,1.46,3.9l-.41-3.42c-.33-2.73-4.58-2.02-4.87-5.06.8-1.32,2.8-1.69,4.34-2.06-1.52-.39-3.66-.02-4.86,1.29-.9.98-.04,2.57.94,3.19Z"/>
      <path class="cls-1" d="M45.01,17.02c-.65-1.46-2.39-2.38-3.95-1.53-1.71.93-2,2.7-1.48,3.79.85,1.8,2.53,1.99,3.91,1.46,1.65-.64,2.17-2.31,1.53-3.73ZM43.2,20.11c-.79.59-2.36.11-2.9-.78-.71-1.19-.55-2.53.82-3.2,1.07-.53,2.41-.18,3.11.97.54.89.13,2.15-1.03,3.02Z"/>
      <path class="cls-1" d="M17.24,20.62c1.84-1.19,1.54-3.7.1-4.78-1.34-1.01-3.68-.89-4.36.95-.43,1.15-.1,2.76.63,3.46.85.83,2.47,1.11,3.62.37ZM14.96,20.33c-.97-.45-1.62-1.61-1.48-2.71.13-.99,1.21-2,2.31-1.82,1.66.27,2.41,1.68,1.76,3.6-.27.79-1.89,1.25-2.59.93Z"/>
      <path class="cls-1" d="M45.3,0c-2.17.54-3.2,2.4-4.29,4.12-1.09,2.46-2.17,4.91-1.62,7.65.95-4.6,2.45-8.57,5.91-11.77Z"/>
      <path class="cls-1" d="M14.78,22.28l-2.26,5.78c2.13-1.34,2.53-3.82,2.26-5.78Z"/>
      <path class="cls-1" d="M45.14,27.83l-1.96-5.55c-.39,2.2.62,4.25,1.96,5.55Z"/>
      <path class="cls-1" d="M52.67,19.37c.62-.55-.95-1.47-1.39-1.08-.25.22-.05,1.12.19,1.35.2.18.85.05,1.2-.27Z"/>
      <path class="cls-1" d="M41.27,16.64c-.54.25-.81,1.4-.71,1.94.07.42.67,1.16,1.09,1.26,1.43.32,2.08-.99,1.99-2.09-.09-1.05-1.36-1.57-2.36-1.11Z"/>
      <path class="cls-1" d="M17.21,17.42c-.33-.6-1.45-1.27-2.17-.96-.96.4-1.11,1.62-.77,2.4.24.56,1.27,1.24,2.01,1.01.94-.29,1.33-1.74.94-2.45Z"/>
    </g>
  </g>
</svg>