<?xml version="1.0" encoding="UTF-8"?>
<svg id="Warstwa_2" data-name="Warstwa 2" xmlns="http://www.w3.org/2000/svg" viewBox="0 0 56.57 56.16">
  <defs>
    <style>
      .cls-1 {
        fill: #fff;
      }
    </style>
  </defs>
  <g id="icon-v9-equipment-pixarts-store">
    <g id="icon-v9-equipment-pixarts-store_318">
      <path class="cls-1" d="M19.75,23.5c-.02.79-1.74,1.63-1.37,2.24.09.14.53.43.64.31l.57-.63c.22-.25.91-1.02,1.15-.8l.99.88c.25.23.66.58.75.42.08-.14.18-.28.26-.38.08-.1-.2-.49-.29-.6l-1.14-1.49,1.82-2-2.46-2.6-2.71,2.66,1.79,2ZM20.57,20.45c.57,0,1.03.46,1.03,1.03s-.46,1.03-1.03,1.03-1.03-.46-1.03-1.03.46-1.03,1.03-1.03Z"/>
      <path class="cls-1" d="M34.18,26.33c1.13-.77.88-1.61,1.07-2.51l2.56,2.09c-.34-1.65-.86-1.8-1.75-2.86l2.03-1.67-3.83-2.66-.08,7.62Z"/>
      <circle class="cls-1" cx="40.19" cy="16.43" r=".88"/>
      <path class="cls-1" d="M48.54,13.45c.39-.61.07-1.4-.45-1.89l-2.13-2.01,2.2.23,2.9.11c.08-.05-5.09-5.55-4.66-3.91.03.11.1.55.17.63l1.72,1.86-4.65.36,4.89,4.61Z"/>
      <path class="cls-1" d="M7.56,10.69l.07-1.51,2.32-.47.2-3.02c-1.99-.44-2.21,1.1-3.09,1.92-.73.67-1.82,1.48-2.16,2.39l1.69-.45c.32-.08.57.72.97,1.15Z"/>
      <path class="cls-1" d="M9.49,12.44c.39.51,1.09,1.42.86,1.13l.78-2.81,1.37,2.27c.2-1.98.11-2.68-.19-4.34l-5.12,4.68c1.18.65,1.76-.53,2.3-.93Z"/>
      <path class="cls-1" d="M37.81,51.89c-.26.26-.26,1.07.04,1.28.35.25,1.24.55,1.29.18.05-.41.11-1.15.12-1.5,0-.29-1.22-.19-1.44.04Z"/>
      <path class="cls-1" d="M42.72,40.19l-.64.39-.31-.58c-.05-.09-.57.01-.66.08l.9,4.13.38-1.67,1.49.6-1.3-1.51c.39-.26.98-.63.88-.84-.1-.21-.53-.72-.73-.59Z"/>
      <path class="cls-1" d="M31.29,51.67c-.03-.55-.27-1.4-.67-1.34-1.04.14-1.14,1.61-.67,2.24.3.39,1.36-.39,1.33-.89Z"/>
      <path class="cls-1" d="M14.29,41.42c.13.36.25.68.32.58l.62-.94-2.11-1.56-.37,4.14,1.42-2.56.12.35Z"/>
      <path class="cls-1" d="M19.34,13.02c.19-.49.68-1.35,1-1.2s.86.64,1.09.94c.21.28-.62,1.11-.93.96l-1.04-.5c-.15.01.28,1.04.66,1.22l5.73,2.68.08,3.3.2,6.67,4.23.11.24-10.01,6.13-3.16,2.08-7.46c.06-.22-.04-.63-.12-.79-.05-.1-.55-.11-.57,0l-.11.65c-.14.8-.25,2.39-.81,3.03-2.01,2.28-4.72,4.11-7.8,4.48-3.92.47-7.91-1.69-10.23-4.67-.87-1.12.11-2.74-1.69-3.46l1.88,7.2Z"/>
      <path class="cls-1" d="M31.45,17.91l-.21,9.6,8.34,3.13,3.95-5.01-1.11-4.38-1.04.63-4.75-3.8c.42-1.35.6-1.84.83-3.15-2.6.89-4.18,1.77-6.01,2.98ZM38.09,21.38l-2.03,1.67c.89,1.06,1.41,1.22,1.75,2.86l-2.56-2.09c-.19.89.06,1.73-1.07,2.51l.08-7.62,3.83,2.66Z"/>
      <path class="cls-1" d="M15.27,21.78l-1.17-.45-1.29,4.02,4.07,5.37,8.35-3.3-.13-9.68-5.15-2.48c-.3-.14-1.13-.07-1.13.15.04,1.23,1.3,2.32.53,2.97l-4.07,3.4ZM20.67,18.84l2.46,2.6-1.82,2,1.14,1.49c.09.11.36.5.29.6-.08.1-.18.24-.26.38-.1.16-.5-.19-.75-.42l-.99-.88c-.25-.22-.93.56-1.15.8l-.57.63c-.11.12-.56-.17-.64-.31-.37-.6,1.35-1.44,1.37-2.24l-1.79-2,2.71-2.66Z"/>
      <path class="cls-1" d="M45.04,16.11c.12.2.33.5.28.63l-.3.74c1.99.93,6.94-4.96,8.62-6.47-1.52-4.37-5.02-7.23-9.25-8.46l-3.02,10.43,3.67,3.13ZM46.59,6.61c-.08-.09-.14-.52-.17-.63-.43-1.64,4.74,3.86,4.66,3.91l-2.9-.11-2.2-.23,2.13,2.01c.52.49.84,1.28.45,1.89l-4.89-4.61,4.65-.36-1.72-1.86Z"/>
      <path class="cls-1" d="M24.74,43.9c-.8,3.04-1.26,5.86-1.65,8.88l1.98,1.83.86-.72c.48.84,1.33,2.21,2.47,2.28.78.05,1.71-1.36,2.24-2.16l.59.78,2.11-1.88-1.05-6.09c-.2-1.16-.5-1.99-1.1-3.31l-.67,1.52-.91-1.6-.38,2.45-.23-2.49h-1.89s-.33,3.55-.33,3.55l-.27-3.32-1.02,1.36c-.13-.61-.26-1.04-.74-1.07ZM30.63,50.32c.4-.05.64.79.67,1.34.03.51-1.03,1.29-1.33.89-.48-.63-.37-2.1.67-2.24Z"/>
      <path class="cls-1" d="M10.24,17.83c1.34-1.97,2.14-2.79,3.57-3.92.39-.17,1.26-1.1,1.14-1.57l-2.98-9.84c-4.59,1.64-7.27,3.61-9.17,8.48,2.24,2.56,4.7,4.89,7.44,6.84ZM12.3,8.69c.3,1.66.39,2.36.19,4.34l-1.37-2.27-.78,2.81c.22.29-.47-.62-.86-1.13-.54.4-1.12,1.58-2.3.93l5.12-4.68ZM7.06,7.61c.88-.81,1.1-2.36,3.09-1.92l-.2,3.02-2.32.47-.07,1.51c-.39-.44-.65-1.24-.97-1.15l-1.69.45c.34-.91,1.44-1.71,2.16-2.39Z"/>
      <path class="cls-1" d="M19.55,54.84c.31-.72.81-2.13.5-2.62-3.83-4.25-2.47-4.48-8-6.05l-2,4.87c3.33,1.87,6.13,3.11,9.49,3.8Z"/>
      <path class="cls-1" d="M44.27,46.1c-4.81,1.58-4.3,1.84-7.79,6.16-.38.47.17,2.15.85,2.53,1.83-.47,8.73-2.79,8.82-3.97.03-.31-.18-1.03-.32-1.34l-1.57-3.38ZM39.14,53.35c-.05.37-.94.07-1.29-.18-.29-.21-.3-1.02-.04-1.28.23-.23,1.45-.32,1.44-.04,0,.36-.07,1.09-.12,1.5Z"/>
      <path class="cls-1" d="M32.07,9.06l-1.35,2.58-5.05.05-1.25-2.67c-1.9-.94-3.26-1.78-4.93-3.02,0,1.26.29,2.89,1.2,3.78,4.44,4.39,11.01,4.47,15.35-.33.69-.76.93-2.39,1.15-3.38l-.75-.26c.22-.67.46-1.74.26-2.2-.96-2.17-6.26-2.23-8.35-2.24-2.15,0-8.14.08-8.64,2.5-.54,2.6,2.77,3.68,4.83,4.56.63,1.09,1.09,2.1,1.98,3.08-.24-1.42-.57-2.71-.93-3.74-1.38-.68-5.32-1.71-4.83-3.67.1-.42.86-1.04,1.36-1.18,4.11-1.13,8.28-1.16,12.36.06.55.16,1.37.93,1.34,1.4-.03.47-.59,1.43-1.05,1.65l-3.79,1.81c-.48,1.19-.81,2.37-.99,3.79.94-1.08,1.39-2.06,1.95-3.1l4.54-2.37c-1.13,1.48-2.81,2.01-4.42,2.9Z"/>
      <path class="cls-1" d="M39.28,8.82l-1.25,4.58c-.06.23.23.92.45.92,2.37-.03,4.86-10.2,4.98-12.99.05-1.09-2.46-1.75-3.09-1.03-1.06,1.2-1.76,2.57-1.67,4.03l1.84-3.11c.22,2.73-.55,5.03-1.25,7.6Z"/>
      <path class="cls-1" d="M25.38,36.78c-1.11.36-2.47,1.42-3.27,2.36l-2.26,2.66c3.72,1.58,6.23-6.56,13.05-.88,1.13.95,2.45,1.09,3.72.75l-1.31-1.8c.52.21,1.35.88,1.5.55l.73-1.53-2.29.77-4.07-2.99-2.9,1.33c-.7-.23-2-.82-2.89-1.22Z"/>
      <path class="cls-1" d="M18.13,14.01c.67-1.28-3.14-10.21-2.39-12.8.86,1.08,1.21,1.88,1.83,2.95.08-1.39-.51-3.06-1.83-3.97-.65-.45-2.51.11-2.93.85-.55,1.33,3.8,15.85,5.32,12.96Z"/>
      <path class="cls-1" d="M12.46,19.39l-1.06-1.19c-.24-.26-1.44.36-1.89.06-2.36-1.61-5.57-4.65-7.76-7.31-.76.76-1.24,1.49-1.71,2.49,3.2,3.05,6.21,5.41,9.94,7.76l2.48-1.82Z"/>
      <path class="cls-1" d="M46.29,18.29c-.59.3-2.42-.31-2.15,1.07.15.78,1.88,1.92,2.86,1.33,3.52-2.1,6.34-4.34,9.12-7.05.2-.88-.75-2.46-1.6-2.37-2.55,2.55-5.05,5.4-8.23,7.02Z"/>
      <path class="cls-1" d="M15.81,46.13l1.42-7.88-4.88-1.45c-.53,2.86-.73,5.16-.86,7.85l4.32,1.49ZM13.12,39.5l2.11,1.56-.62.94c-.07.1-.19-.22-.32-.58l-.12-.35-1.42,2.56.37-4.14Z"/>
      <path class="cls-1" d="M28.85,31.44l9.23,3.1c.48-.96.79-1.82.94-2.79-3.57-1.49-6.64-2.65-10.26-3.61-.26,1.26-.26,2.4.09,3.29Z"/>
      <path class="cls-1" d="M26.14,28.41l-8.62,3.41c.04,1.03.4,2.16.8,2.71l9.59-3.27.1-2.93c-.46-.02-1.5-.06-1.86.08Z"/>
      <path class="cls-1" d="M54.41,17l-4.17,3.14c-1.22.92-2.26,1.54-3.76,2.43l1.42,2.04c3.07-1.13,5.41-2.32,8.22-4.18l-1.71-3.43Z"/>
      <path class="cls-1" d="M2.01,17.03c-.72,1.15-1.27,2.24-1.75,3.52,2.64,1.63,5.22,2.91,8.1,4,.69-.55,1.31-1.73,1.12-2.11l-7.47-5.42Z"/>
      <path class="cls-1" d="M32.03,42.04l1.9,10.6,3.19-2.98-2.03-6.46c-.24-.76-2.15-1.24-3.06-1.15Z"/>
      <path class="cls-1" d="M28.57,36.95l2.37-1.25,4.15,2.14c.6.31,1.94.05,2.23-.4.28-.45.55-1.87.02-2.06l-8.75-3.11c-.15,1.79-.16,2.93-.02,4.67Z"/>
      <path class="cls-1" d="M28,36.98l-.14-4.68c-3.1.91-6.16,1.98-9.08,3.2-.36.6.11,1.96.66,2.22,2.26,1.05,3.55-1.34,6.01-2.01l2.55,1.27Z"/>
      <path class="cls-1" d="M24.21,41.87c-3.92-.04-3.94,4.93-4.72,8.1l2.96,2.67,1.76-10.77Z"/>
      <path class="cls-1" d="M38.88,38.96l3.19-.46-2.72,1.05,1.25,6.7,4.31-1.77-.44-6.35-1.2-.14.63-1.03c-2,.31-3.5.66-5.02,1.99ZM43.45,40.78c.1.21-.48.58-.88.84l1.3,1.51-1.49-.6-.38,1.67-.9-4.13c.09-.06.61-.17.66-.08l.31.58.64-.39c.2-.12.63.38.73.59Z"/>
      <path class="cls-1" d="M8.46,25.67c-2.65-.98-4.67-1.92-7.26-3.18-.57.76-1.13,1.9-1.21,2.84,2.38,1.4,4.58,2.29,7.16,2.9l1.31-2.56Z"/>
      <polygon class="cls-1" points="11.85 16.9 14.99 20.53 18.68 17.42 15.68 13.45 11.85 16.9"/>
      <path class="cls-1" d="M55.25,22.37c-2.72,1.51-4.47,2.34-7.25,3.41.35.77.88,1.73,1.42,2.46,2.72-.65,4.67-1.55,7.15-3.1l-1.31-2.78Z"/>
      <path class="cls-1" d="M44.46,16.63l-3.94-3.16-2.86,3.95,3.92,3.02,2.87-3.82ZM40.19,17.32c-.49,0-.88-.4-.88-.88s.4-.88.88-.88.88.4.88.88-.4.88-.88.88Z"/>
      <path class="cls-1" d="M35.71,42.79l1.9,6.15c.84-.67,1.71-1.62,1.96-2.35l-1.53-7.27c-.65,1.66-.15,3.14-2.32,3.47Z"/>
      <path class="cls-1" d="M18.88,48.82l1.9-5.89c-2.09-.31-1.52-1.55-2.39-3.08-.88,3.46-2.85,6.96.49,8.97Z"/>
      <path class="cls-1" d="M42.68,34.57l-2.62-1.66-1.51,4.64,4.01-1.3c.23-.08.68-.65.62-.84-.05-.19-.34-.73-.51-.84Z"/>
      <path class="cls-1" d="M14.13,36.37l3.51.87c-.4-1.93-.76-2.95-1.52-4.41l-2.79,2.07c-.26.19.44,1.38.79,1.47Z"/>
      <path class="cls-1" d="M14.51,29.94l-2.32,1.84c-.39.31.38,1.7.6,2.08l3.16-1.78c-.34-.81-.97-1.82-1.44-2.15Z"/>
      <path class="cls-1" d="M43.76,26.97l-3.35,5.05,3.23,1.93.78-1.97c-1.15-.85-1.58-1.19-2.21-2.05l2.26,1.01.7-2.24c.15-.49-.8-1.22-1.41-1.74Z"/>
      <path class="cls-1" d="M11.24,28.53c-.03.61.41,1.67.71,2.43l2.39-1.69-1.71-2.34c-.45.35-1.36,1.05-1.39,1.6Z"/>
      <path class="cls-1" d="M26.01,42.36h4.59c.2,0,.79-.85.6-.9-.12-.03-.64-.24-.79-.24l-4.44.05c-.18,0-.82.37-.7.49.12.13.56.6.73.6Z"/>
      <path class="cls-1" d="M19.55,39.38c-.13.37.57,1.48.81,1.23l1.09-1.12c-.4-.32-1.72-.61-1.9-.11Z"/>
      <path class="cls-1" d="M20.57,22.51c.57,0,1.03-.46,1.03-1.03s-.46-1.03-1.03-1.03-1.03.46-1.03,1.03.46,1.03,1.03,1.03Z"/>
    </g>
  </g>
</svg>