<?xml version="1.0" encoding="UTF-8"?>
<svg id="Warstwa_2" data-name="Warstwa 2" xmlns="http://www.w3.org/2000/svg" viewBox="0 0 56.78 40.82">
  <defs>
    <style>
      .cls-1 {
        fill: #fff;
      }
    </style>
  </defs>
  <g id="icon-v9-equipment-pixarts-store">
    <g id="icon-v9-equipment-pixarts-store_249">
      <path class="cls-1" d="M55.5,16.95c-.7-2.51-3.6-2.72-5.59-1.98l-5.18,1.94,4.67.68c-4.19.42-6.19-1.1-11.02-.11l1.44.89c-1.25-.19-3.05-.73-3.52.52-.95,2.55-.07,5.2-.17,7.78l-.41,10.97,2.7,1.6c1.46.86,2.65,1.75,4.42,1.24,4.57-1.32,8.94-2.69,13.26-4.76.67-1.19.13-2.72-.04-3.93l-.6-4.22-3.1,1.43c.96.82-.46,5.61-.68,6.3-.15.48-1.41.92-1.91.7-2.08-.95-2.63-3.27-2.44-5.72l-4.07.61c-.66.1-1.55-.56-2.39-1.16l.88,7.3c.11.89.01,1.81-.25,2.55l-.56-4.3c-.23-1.74-.42-3.45-.49-5.23l-.32-7.59-3.11-.74c.29,1.3.44,2.26.23,3.06l-.84-5.02c.27-.6,1.76-.9,2.41-.6,3.57,1.63,1.53,10.45,3.9,10.68,1.77.17,3.49-.23,4.97-.66-.1-1.57-.27-2.77-.11-4.06.14-1.1,2.45-1.78,3.33-1.18.81.55,1.03,1.94,1.09,2.91l1.44-.24c-.7.27-1.31.62-1.56,1.3,1.79-.31,3.56-1.27,4.89-2.46-.21-2.92-.53-5.79-1.28-8.49ZM36.79,37.21h.02c.14-.13.55-.61.55-.74l.14-7.1.48,2.97c.23,1.43.11,3.27.01,4.6l1.22,1.34-2.41-1.06c-.05.05-.07.06-.02,0ZM41.34,20.12c1.51.63.72,4.87,1.55,8.49-1.77-3.49-.15-4.07-1.55-8.49Z"/>
      <path class="cls-1" d="M54.06,6c1.21-3.13-7.86-4.65-9.9-4.93C32.97-.43,21.74-.39,10.6,1.4c-2.4.38-8.96,1.57-8.47,4.5.19,1.13,1.81,2.17,2.94,2.23.19,0,.29-.65.17-.73-.6-.3-2.02-1.23-1.92-1.91.18-1.26,1.89-1.92,2.67-1.74-.67.46-1.49,1.02-1.62,1.5s1,1.3,1.49,1.31c4.94.07,5.82,1.69,5.99,1.63.22-.09.86-.45,1.12-.47,5.56-.53,5.1,1.8,6.3,1.67,1.83-.2,1.67-3.06,6-1.41,4.31,1.65,6.11-1.29,7.03.11l.98,1.5c.2.06,1.03-.79,1.39-.97,1.04-.54,3.34-.83,4.4-.35,2.71,1.22,3.95.65,5.83-.96.76-.65,2.92-1.11,3.94-.91,1.34.27,2.74.35,3.32-1.34l-1.98-1.3c1.54.08,3.13.71,2.64,2.27l-2.39,1.86c1.67.83,3.11-.62,3.6-1.89Z"/>
      <path class="cls-1" d="M9.46,39.31c4.75-.22,9.36-3.39,8.56-8.48-1.31,4.4-3.42,6.98-7.68,7.49-4.74.58-9.81-2.83-9.5-8.19l2.1-.12c.44-.02,1.06,1.1,1.21,1.42.34-.88.64-1.78.98-2.22.3-.39,1.72-.2,2.18.06,3.37,1.94,7.36,2.41,11.22,1.15-1.31-5.77-2.4-5.02-6.41-8.51-1.86.42-3.5.6-5.29.12l-2.86,2.01c-1.29.91-2.28,1.86-2.87,3.63l2.83-1.72c1.3,2.47,8.9,3.08,11.36.97-3.53-1.68-6.96-1.09-10.37-.78,3.25-1.73,6.95-1.16,10.24-.2,1.38.4,2.09,2.08,2.49,3.36-4.06.96-7.93.2-11.7-1.3l-2.4-.95-1.24,1.27c-.27.28-1.08-.53-1.38-.76l-.69,1.29c-.13.25.82.56.89.64-.35.2-1.1.62-1.11.93-.1,4.92,3.97,9.13,9.46,8.87Z"/>
      <path class="cls-1" d="M34.75,21.05c-3.86.29-7.61.2-11.52-.03.92.53,2.24.89,3.31.89l7.74.03c.23,0,.64-.91.46-.89Z"/>
      <path class="cls-1" d="M23.3,12.44c-.31.78-.57,1.75-.79,2.74l2.32.07c.46.01,1.21.56,1.36.96.15.4-.29,1.52-.71,1.56l-2.85.23c-.14.58.2,2.27.85,2.41.85.19,2.11.5,2.71.48l8.64-.15.74-3.14c.38-1.64.03-3.88-.1-5.47l-12.17.32ZM30.65,17.55c-.45,0-.82-.37-.82-.82s.37-.82.82-.82.82.37.82.82-.37.82-.82.82Z"/>
      <path class="cls-1" d="M6.04,29.26c-1.01.69-1.29,1.91-1.53,3.31l-1.09-1.43c-.22-.29-.89-.62-1.23-.53-.34.1-.68,1.04-.54,1.56,1.27,4.58,6.05,6.53,10.27,5.13,2.73-.91,4.91-2.93,4.89-5.82-3.98.7-7.5-.27-10.76-2.23Z"/>
      <path class="cls-1" d="M31.68,8.85c-1.35-.47-2.11,1.64-6.7.07-.73-.25-2.54-.68-3.12-.08-3.81,3.9-4.1,9.81-.97,14.09.87,1.2,2.39,1.48,3.71,1.01,4.32-1.53,7.27.85,7.35-.22l.06-.86-8.85-.66c-.87-1.05-1.34-3.08-1.81-4.09-.22-.47-1.58-.95-1.41-1.62.14-.54.84-.99,1.68-1.37.26-1.3.5-3.27,1.59-4.16,1.25-1.02,4.94.56,8.61-.74.27-.1.14-1.27-.14-1.37Z"/>
      <path class="cls-1" d="M12.51,9.24c-.01.37.04,1.06.08,1.57l.19,2.61c1.45,1.11,1.01,2.9.01,4.24.64.41,1.67,1.21,1.59,1.77-.09.59-.44,1.26-.95,2.29l2.53,1.33.06-8.13c.02-2.1.21-4.04.93-6.04l-2.76-.35c-.5-.06-1.67.3-1.68.74ZM15.22,11.74h.4v10.56h-.4v-10.56Z"/>
      <path class="cls-1" d="M36.87,17.45l.33-4.38.39,3.81,2.8-.8c-.09-2.5-.22-4.79-1.11-6.9-1.16-.36-2.78-.22-4.04-.06.44,1.01.86,1.82.95,2.57l.68,5.75Z"/>
      <polygon class="cls-1" points="46.66 15.36 46.2 10.35 40.84 11.31 41.31 16.24 46.66 15.36"/>
      <path class="cls-1" d="M47.33,14.95l.46-.85c.36-.66.06.6.75.32l2.02-.82c-.02-2.1.04-4.04-.76-5.92-.93-.72-2.98-.23-3.91.12.66.89,1.14,1.86,1.2,2.91l.24,4.24Z"/>
      <path class="cls-1" d="M4.39,15.94l.34-7.15-2.72-1.44c-.1,3.46,0,6.42.29,9.81l1.97,1.3c-.17-.65-.33-.99-.6-1.48l.46-.14c.13-.04.26-.72.27-.9Z"/>
      <polygon class="cls-1" points="54.25 13.94 54.17 7.26 51.12 9.02 51.49 13.51 54.25 13.94"/>
      <path class="cls-1" d="M6.52,20.85c3.25,2.35,8.03-.65,6.85-1.73-.14-.12-.57-.4-.66-.23l-.34.66c-1.85.43-4.14.57-6.07-.4-.32.19-.19,1.41.22,1.71Z"/>
      <path class="cls-1" d="M6.14,7.87c-.76,1.93-.86,3.92-.67,6.02.48-.39.65-1.04.59-1.77-.25-3.39,2.45-.77,3.8-3.96-.78-.55-2.65-.79-3.72-.29Z"/>
      <polygon class="cls-1" points="11.65 12.13 6.98 12.13 7.71 14.8 11.36 14.59 11.65 12.13"/>
      <path class="cls-1" d="M6.2,14.53c-.23.56-.08,1.77.35,1.95,1.72.73,3.57.97,5.48.18.61-.25.91-1.51.67-2.2-2.08,1.49-4.43,1.6-6.5.08Z"/>
      <path class="cls-1" d="M16.9,11.86c-.07,1.04-.57,8.19.49,8.02l.77-.12c-1.11-3.13-.44-5.35.58-8.14-.06-.26-1.81-.22-1.84.24Z"/>
      <path class="cls-1" d="M50.5,27.05l-1.45.03.09,3.37,2.38-.82-.64-4.74-.98.49-.78.39c-.14.07,0,.53.15.57.24.06.79.24.86.05.05-.15.2-.38.49-.7.28-.3.23,1.36-.12,1.36Z"/>
      <path class="cls-1" d="M4.21,38.85c-.46,2.31,9.03,2.8,10.1.32-3.47.84-6.65,1.43-10.1-.32Z"/>
      <path class="cls-1" d="M24.23,11.49l-.58.64,5.51-.18,6.35-.4c-.33-1.32-1.39-.82-2.31-.68l-4.57.67c-1.47.22-2.83.25-4.4-.04Z"/>
      <path class="cls-1" d="M11.83,17.86c-2.12-.11-3.47-.12-5.06-.03,1.27,2.26,4.51,2.03,5.06.03Z"/>
      <path class="cls-1" d="M50.13,32.6c-.35.03-1.09.51-1.12.86-.03.34.23,1.03.5,1.44.2.31,1.13.69,1.42.48,1.08-.79.5-2.88.3-2.87l-1.1.09Z"/>
      <path class="cls-1" d="M52.03,31.05c.07-.11-.04-1.32-.03-.76l-4.09,1.07c.92,1.65,3.54.61,4.12-.31Z"/>
      <path class="cls-1" d="M45.92,9.48c-.6-.84-5.89.48-5.42.92.58.65,5.29-.54,5.49-.64.1-.05,0-.18-.07-.28Z"/>
      <path class="cls-1" d="M20.99,17.07h3.74c.17.01.55-.86.41-.89-.14-.03-.65-.18-.8-.18h-2.72c-.14,0-.57.14-.7.18-.13.04-.06.88.08.88Z"/>
      <path class="cls-1" d="M7.16,11.32c1.53.41,3.02.42,4.52.08-1.45-1.17-3.25-1.24-4.52-.08Z"/>
      <path class="cls-1" d="M4.96,16.83l.14,4.1.58-2.59.27-1.18c.05-.22-.75-.42-.98-.33Z"/>
      <polygon class="cls-1" points="48 25.72 48.54 30.02 48.7 25.04 48 25.72"/>
      <path class="cls-1" d="M17.07,10.77c.37.3,1.74.21,2.23-.07-.68-.84-2-.95-2.23.07Z"/>
      <path class="cls-1" d="M16.74,28.84c.27-.46-.55-1.59-1.04-1.45l-4.74,1.4c1.73.45,3.84.79,5.78.05Z"/>
    </g>
  </g>
</svg>