<?xml version="1.0" encoding="UTF-8"?>
<svg id="Warstwa_2" data-name="Warstwa 2" xmlns="http://www.w3.org/2000/svg" viewBox="0 0 53.82 57.21">
  <defs>
    <style>
      .cls-1 {
        fill: #fff;
      }
    </style>
  </defs>
  <g id="icon-v9-equipment-pixarts-store">
    <g id="icon-v9-equipment-pixarts-store_19">
      <path class="cls-1" d="M43.9,29.58l2.27-5.08c.48-1.08,1.21-2.06,2.04-2.87l-3.57,8.78c-2.28,5.6-7.05,9.97-13.04,11.18-3.54.71-4.34,1.61-8.54,1.75,1.43-1.55,2.81-2.88,3.16-4.89.32-1.85-.57-3.5-2.31-3.91-1.4-.33-3.34.24-3.54,1.87.98-.71,2.3-1.04,3.27-.53.88.46,1.24,1.89.9,3.03-.64,2.2-2.6,3.89-4.84,4.62-4.05,1.31-7.49,3.11-10.71,6.18,1.4-8.81,5.72-16.76,14.02-20.05,2.44-.97,5-1.26,7.44-.47,2.93.95,4.5,3.72,3.8,6.77-.53,2.32-2.18,3.93-3.91,5.68,4.38-1.03,6.79-5.93,4.92-9.96-.68-1.47-2.31-2.4-3.52-3.38,2.87-.72,5.63-1.28,7.49-3.29,2.43-2.62,2.4-6,2.56-9.62l2.18,8.61c1.71-3.93-1.08-11.51-2.9-14.95-1.74-3.28-4.01-6.18-6.44-9.05-2.87,5.74-8.34,9.73-14.19,12.27,1.11-1.83,1.36-4.15-.17-6.03-1.55,5.61-4.04,7.91-7.84,12.05-4.89,5.33-7.86,12.38-6.91,19.72.83,6.45,1.12,12.44.17,19.2l6-6.21c9.58-9.92,16.97-1.35,29.41-11.45,8.89-7.22,5.6-15.49,12.73-22.51-7.72,1.17-9.89,5.11-9.92,12.54ZM35.3,4.48l3.02,4.52c1.9,2.84,2.61,6.12,2.13,9.31-.99-2.43-3.13-3.79-5.53-3.38-2.23.39-4.33,1.81-4.53,4.45-.1,1.29.74,2.5,1.85,2.92,1.07.41,2.61.1,3.24-1.02-1.06.12-2.14.31-2.79-.09-.54-.33-.88-1.66-.71-2.38.4-1.64,1.82-2.46,3.21-2.61,1.42-.15,3.02.65,3.78,2.16,1.48,2.91-.23,5.78-2.94,7.09-2.15.75-4.37,1.05-6.7,1.24-5.53.45-10.39,2.43-14.37,6.33,1.99-4.68,5.12-8.47,8.7-11.95l6.26-6.08c2.93-2.85,4.47-6.5,5.39-10.51ZM7.21,40.15c-.17-2.91-.04-5.8,2.1-8.24l.97,1.52.31-1.47c.09-.43-.75-1.34-1.23-1.15-2.16.83-1.85,3.59-2.54,5.54-.88-6.09,1.77-11.93,5.91-16.36,2.47-2.65,4.73-5.19,6.52-8.23l.31,1.17-1.7,2.26,7.68-4.19c3.24-1.77,6-3.91,8.44-6.82-.98,6.93-6.64,11.74-11.45,16.13-3.01,2.75-5.49,5.75-7.81,9.29,1.02-5.24-.6-10.18,5.13-14.17.74-.51,2.2-1.11,3.03-.36.56.51-.02,2.1-.57,2.68-.62.66-1.56.94-2.69.72-.03.09-.11.29-.15.36-.42.96,4.01.49,4.86-2.7.14-.52.05-1.52-.22-1.87-1.4-1.78-4.72.97-6.01,1.97-2.44,1.89-3.8,4.47-3.86,7.84-.85-.41-1.63-.88-2.26-.85-.52.02-1.03.84-1.58,1.93.57-.38,1.33-.79,1.91-.78,3.4.05.44,8.17-.3,10.08-1.74,4.51-3.12,8.89-4.36,13.5l-.45-7.81Z"/>
      <path class="cls-1" d="M42.4,20.79c-1.8,6.29-3.21,5.8-7.99,8.39,2.71,2.44,2.94,5.85,1.62,9.44,7.52-4.56,7.64-10,6.37-17.83ZM36.16,29.93c1.35.73,2.93,1.25,4.46.23-1.24-1.16-2.88-1.31-4.58-1.01,1.57-1.27,4.7-.74,5.42,1.18-1.17,1.48-4.52,1.79-5.3-.39Z"/>
      <path class="cls-1" d="M24.8,55.57c2.82.34,5.6-1.56,6.08-4.37.43-2.55-1.56-4.42-3.94-4.78-2.25-.35-4.39-.43-6.54.24-2.57.8-5.09,1.64-6.92,3.69,3.68-1.51,7.03-2.81,10.93-2.37,1.59.18,3.22,1.06,3.49,2.73.26,1.64-.87,2.74-2.39,3-1.22.2-2.39-.67-3.25-1.98-.66,1.91.65,3.62,2.55,3.85Z"/>
      <path class="cls-1" d="M32.27,47.78c7.05-.63,10.22-5.01,17.52-5.34-2-1.18-4.2-2.1-6.77-2.44-.91.44-2.24,1.42-3.01,2.02l3.78-.07c-3.27.99-6.35,2.08-9.62,3.32l-3.47,1.31c.15.29,1.04,1.26,1.57,1.21Z"/>
      <path class="cls-1" d="M3.15,41.04c.72.1,1.36,1.32,1.94,1.95.08-1.45-.38-4.26-1.73-4.59-1.79-.44-4.33,3.33-2.98,6.43.34.77,1.52,1.32,2.11,1.04-.71-.94-1.24-1.76-1.21-2.7.03-.78.56-2.32,1.87-2.13Z"/>
      <path class="cls-1" d="M5.22,22.03c.98,5.02-2.85,10.01-1,14.95.33-4.41.63-8.43,2.69-12.41-.11-1.04-.78-1.97-1.69-2.54Z"/>
      <path class="cls-1" d="M12.43,25.31c-.36-.24-1.21-.05-1.56.32-.26.27-.51,1.04-.52,1.26l1.63-.67-1.77,2.11-.88-1.66-1.22,3.69c.97-.19,1.7-.35,2.2-.24,1.23.27,1.3,3.19-.23,4.91l-.85-2.12c-.65,1.35-1.4,2.97-1.3,4.35l.38,5.38,2.36-6.8c.88-2.54,3.78-9.2,1.77-10.55Z"/>
      <path class="cls-1" d="M19.79,17.44c.83.23,1.45.36,1.87.07.65-.44,1-1.92.39-2.01-1.43-.19-2.42.84-3.3,1.73-2.29,2.31-2.92,5.7-2.57,8.82l5.3-5.92c-.87,0-2.06-.07-2.55-.52-.78-.72.18-2.35.86-2.17Z"/>
      <path class="cls-1" d="M31.94,8.03l-6.37,4.27c.22.74.12,1.54-.07,2.33l-.6,2.53c2.53-2.64,5.57-5.15,7.03-9.13Z"/>
      <path class="cls-1" d="M22.33,33.63c2.55-.44,5,1.27,4.89,4.06-.05,1.29-.58,2.56-1.08,3.93,3.53-.43,6.58-2.73,7.25-6.15.35-1.78-.18-3.76-1.67-4.4-.18,1.07-.54,2.3-1.17,2.73-.78.53-2.2.6-2.7.11l1-3.32c.48.72.13,1.88-.2,2.83,1.24.44,2.11-.75,2.12-1.93,0-.94-.75-1.7-1.91-1.78-9.3-.57-15.95,8.61-17.95,16.77,2.93-1.99,5.73-2.98,8.9-3.97,2.36-.74,4.59-2.88,3.8-5.44-.18-.59-2.1-.72-2.54-.24-.42.46-.9,1.21-1.52,2.13-1.16-2.36.44-4.94,2.78-5.34Z"/>
      <path class="cls-1" d="M18.64,28.92c7.01-3.45,9.18-2.63,15.86-3.69,2.38-.38,4.06-2.44,4.09-4.79.02-1.46-.96-2.76-2.1-3.1-1.34-.4-2.84.07-3.61,1.36-.38.63.14,2.05.81,2.08.56.02,1.25-.46,2.26-1.04.45.34.29,1.78-.18,2.4-.42.54-1.4,1.13-2.19,1.18-1.41.1-2.78-.65-3.38-1.53-.71-1.05-.8-2.53-.39-3.7,1.14-3.23,4.55-4.28,7.84-4.06l2.16,2.06c-.13-1.58-.52-3.53-1.44-5.05l-2.78-4.59c-1.05,3.42-2.5,6.54-5.12,9.15l-7.21,7.19c-1.83,1.82-3.39,3.76-4.63,6.14Z"/>
    </g>
  </g>
</svg>