<?xml version="1.0" encoding="UTF-8"?>
<svg id="Warstwa_2" data-name="Warstwa 2" xmlns="http://www.w3.org/2000/svg" viewBox="0 0 57.03 56.97">
  <defs>
    <style>
      .cls-1 {
        fill: #fff;
      }
    </style>
  </defs>
  <g id="icon-v9-equipment-pixarts-store">
    <g id="icon-v9-equipment-pixarts-store_323">
      <path class="cls-1" d="M26.41,41.73c.67.42,1.78-.1,2.3-.73l-1.8-1.47c1.49-.26,2.46-.33,3.71-.18.25.91.17,2.19-.06,3.27l-5.11-.45c1.58,1.75,4.02,1.37,5.81.64.32-1.11.23-2.96-.07-4.07-1.55-.31-3.35-.51-4.77.02-.93.34-.81,2.46,0,2.97Z"/>
      <path class="cls-1" d="M28.19,33.54c.77,0,1.4-.62,1.4-1.4s-.63-1.4-1.4-1.4-1.4.63-1.4,1.4.63,1.4,1.4,1.4Z"/>
      <path class="cls-1" d="M27.32,13.84c-.56.9-.5,1.83.04,2.14.52.3,1.58.38,1.89-.01.41-.5.47-1.41.16-1.82-.33-.42-1.78-.81-2.08-.31Z"/>
      <path class="cls-1" d="M39.68,4.33l-2.2,6.02,7.43,3.75,1.24-2.77c-.89,3.43-2.29,6.4-1.94,9.9,1.01-4.61,2.65-8.81,4.45-13.38-1.18.03-1.18,1-1.59,1.71l.14-2.2-7.52-3.02Z"/>
      <path class="cls-1" d="M8.39,8.23c1.91,4.17,3.65,8.54,4.22,12.97.47-2.78-.3-5.47-1.39-8.25,2.1.22,4.11-.35,5.98-1.32l2.45-1.27-2.44-6.06-7.44,3.1.09,1.85-.64-1.31c-.09-.18-.54.06-.82.3Z"/>
      <path class="cls-1" d="M26.21,9.16l1.18,3.72c.76-2.33.01-4.41-1.19-6.25-1.07-1.64-4.78-2.41-4.79-4.98,4.65-1.18,9.49-1.31,14.09,0-.08,4.39-5.33,1.14-6.17,9.97l-.07.74c-.01.16.57.34.61.19l.25-.79c.48-1.51.6-3.69,1.85-4.81,2.15-1.93,5.31-3.02,4.87-4.92C36.35-.05,30.45,0,28.61,0c-1.92,0-7.93-.11-8.36,2.06-.08.38.18,1.42.49,1.67l3.36,2.73c-1.56-.6-2.75-1.54-4.18-2.59.05,1.78,1.1,3.5,2.57,4.45l3.29,2.12c.04-1.96-.87-2.72-1.78-4.18,1.15.5,1.83,1.7,2.21,2.89Z"/>
      <path class="cls-1" d="M24.23,38.68c-3.56-.46-6.59-1.07-10.11-1.91l.02,3.87c3.28,1.07,6.39,1.72,9.91,2.16l.18-4.13Z"/>
      <path class="cls-1" d="M26.2,56.88c.35-1.51,2.77-12.33,1.25-11.71-.98.4-1.39,8.09-2.31,10.4-4.98-.1-9.4-1.2-13.85-3.22-1.46,2.86,13.5,5,14.91,4.53Z"/>
      <path class="cls-1" d="M45.49,52.47c-4.6,2.05-8.67,3.1-13.48,3.07-.76-3.27-1.28-6.44-1.77-9.66-.04-.24-.5-.67-.73-.75-1.29-.46,1.1,10.6,1.45,11.74,1.62.65,16.74-1.98,14.52-4.4Z"/>
      <path class="cls-1" d="M25.29,37.96c-.34,1.92-.45,3.8-.08,5.67,2.13.6,4.37.6,6.72.09.5-1.91.38-3.87.02-5.76-2.41-.2-4.25-.19-6.66,0ZM31.18,38.74c.31,1.12.4,2.97.07,4.07-1.79.72-4.23,1.1-5.81-.64l5.11.45c.24-1.08.31-2.36.06-3.27-1.25-.15-2.22-.08-3.71.18l1.8,1.47c-.52.63-1.63,1.15-2.3.73-.81-.51-.93-2.63,0-2.97,1.42-.52,3.22-.32,4.77-.02Z"/>
      <path class="cls-1" d="M34.22,25.29l2.98,3.2,3.22-3.64-3.04-3.77c-1.46,1.38-2.09,2.43-3.15,4.21Z"/>
      <path class="cls-1" d="M19.89,28.47l2.94-3.2c-.92-1.69-1.7-2.94-2.96-4.38l-3.16,3.98,3.17,3.59Z"/>
      <path class="cls-1" d="M12.08,51.62c1.73,2.35,4.1-3.27,6.57-4.33l-1.92,2.62,2.92,3.9,3.27-3.51-2.84-3.63-3.25-4.23-2.56,3.03,1.75,4.12-2.61-3.5c-.79.81-1.99,4.65-1.33,5.55Z"/>
      <path class="cls-1" d="M16.52,16.56l3.21,3.73,3.2-3.28c-1-1.46-1.8-2.57-3.03-3.89l-3.38,3.45Z"/>
      <path class="cls-1" d="M31.05,30.16l3.7.78c.66-.15,1.7-1.59,1.91-2.18l-2.92-3.22-2.8.25c-.17.01-.02.78-.04.95,0,.11.26-.19.36-.24l.48-.24c-.73.93-1.66,3.08-.7,3.9Z"/>
      <path class="cls-1" d="M42.44,45.57c-.14-1.1-1.27-2.1-2.23-2.97l-2.66,3.5c1.13,1.21,1.69,1.79,2.45,3.06l-2.86-2.64-2.91,3.79,3.3,3.52c.71-.81,3.59-4.52,2.46-4.85l.77.23c.67-.78,1.83-2.41,1.69-3.63Z"/>
      <path class="cls-1" d="M36.85,12.86c-.92-1.12-1.95-2.17-3.25-3.11-1.73.56-4.08,3.13-2.64,3.32l1.05.14c1.49.19,2.65.68,3.56,1.83l-1.4,1.86,3.23,3.38,3.15-3.49c-.74-.78-1.27-1.38-1.74-2.31l2.14,1.86,1.85-1.58-1.39,2.07.69,1.17,1.35,1.49c.33-1.43.69-3.38.77-4.64l-1.32-.16c-.21-.03-.39-.84-.58-.94l-3.18-1.6c-.3-.15-1.27.23-1.23.53l.11.94c-.78.02-1.45.35-2.21.95l1.05-1.7Z"/>
      <path class="cls-1" d="M37.7,20.72l3.16,3.78c.87-1.1,1.77-2.07,2.33-3.12.57-1.05-.98-2.14-1.15-3.29l-1.29-.87-3.06,3.51Z"/>
      <path class="cls-1" d="M42.05,18.08l.17.11-.13-.21-.06-.06c0,.06,0,.11.02.16Z"/>
      <path class="cls-1" d="M13.6,19.31l.91-.59c-.35.83-.97,2.26-.52,2.89.73,1.04,1.47,1.82,2.38,2.77l3.08-3.68-3.05-3.55-2.06,1.66,1.55-2.06c-.66-.85-1.44-1.81-2.96-2.45.04,1.91.3,3.31.68,5.01Z"/>
      <path class="cls-1" d="M25.48,26.61l-2-1.2-3.11,3.36,1.59,2.26,4.17-.89c.63-.67.18-3.04-.65-3.54Z"/>
      <polygon class="cls-1" points="22.56 33.74 21.79 31.07 21.89 31.05 19.88 29.34 16.94 32.93 20.13 36.5 22.56 33.74"/>
      <polygon class="cls-1" points="21.95 31.03 21.89 31.05 22.07 31.19 21.95 31.03"/>
      <path class="cls-1" d="M24.43,54.85c1.27-1.79.14-2.78-.8-4.04l1.72,1.09.39-3.98c.05-.51.59-1.69.42-2.15-.23-.62-2.55-2.66-3.52-1.72l-2.28,2.19,2.88,3.66c.91-.7,1.4-1.22,2.39-1.55l-5.66,5.86c1.73.59,3.28.86,4.46.66Z"/>
      <path class="cls-1" d="M37.16,43.22c.64.05,1.78-.87,1.76-1.44-.07-2.81-3.63-2.96-5.86-2.93l.06,4.03,4.04.33Z"/>
      <path class="cls-1" d="M34.64,33.51l2.55,2.96,2.96-3.55-2.93-3.54c-1.46,1.02-2.26,2.33-2.58,4.13Z"/>
      <path class="cls-1" d="M30.88,18.59l.87-.08c-.72.42-1.39,2.77-.56,3.03l3.9,1.16c.51-.45,1.35-1.43,1.83-2.12l-2.95-2.97c-.65-.66-2.49-.96-3.04-.38-.18.18-.29,1.38-.03,1.36Z"/>
      <path class="cls-1" d="M13.86,29l2.68,3.49,3.05-3.72-3.28-3.48c-.96,1.32-1.65,2.3-2.45,3.71Z"/>
      <path class="cls-1" d="M37.53,28.87l2.98,3.64,2.49-3.26c-.51-1.52-1.27-2.72-2.25-3.98l-3.22,3.6Z"/>
      <path class="cls-1" d="M32.17,52.18c.21.63-.04,2.51.67,2.61,1.62.23,2.75,0,4.35-.52l-3.29-3.45-1.38,1.02.76-1.39c.13-.23-.32-.68-.56-1.11l1.36.28,2.58-3.27c-.56-.99-1.79-2.07-3.12-2.44l-2.53,1.51c-.45,1.94.73,2.63,1.94,3.96l-1.56-.62c.06.91.45,2.47.77,3.43Z"/>
      <path class="cls-1" d="M25.16,18.37l-1.8-1.15-3.14,3.41,1.94,2.18c1.09-1.11,2.64-.69,3.86-1.31,1.04-.53-.11-2.66-.85-3.13Z"/>
      <path class="cls-1" d="M52.79,21.55l-3.73-2.07-1.37,4.55c1.41.73,2.44,1.21,3.94,1.76l1.16-4.24Z"/>
      <polygon class="cls-1" points="5.56 26 9.31 23.85 8.02 19.63 4.37 21.53 5.56 26"/>
      <path class="cls-1" d="M39.75,41.73l3.07-1.29.12-3.74-7.01,1.54c1.93.38,3.38,1.15,3.82,3.49Z"/>
      <path class="cls-1" d="M19.15,11.69c-.15.2.55.82.76.67l.77-.57c-.17.58-.4,1.19-.19,1.54.26.41,1.22,1.22,1.42,1,1.43-1.56,4.37-.54,4.46-1.52.14-1.58-2.78-3.46-4.01-2.62l.35-.78c.06-.14-.35-.48-.5-.55-1.86-.89-2.38-2.74-3.59-4.69-.4,1.96,1.08,4.01,1.48,5.82.04.43-.65,1.3-.95,1.7Z"/>
      <path class="cls-1" d="M26.15,36.76l-.28-1.8c.72,1.09.47.39.43-.6l-3.12-.41c-1.01.99-1.82,1.91-2.61,2.96,2,.88,4.06,1.14,5.57-.15Z"/>
      <path class="cls-1" d="M30.9,36.79c1.92,1.02,3.82.98,5.78,0l-2.76-3.02-2.89.66-.12,2.36Z"/>
      <path class="cls-1" d="M4.23,20.93l3.72-1.87-.95-4.12-2.14.99c.68.81-1.94-.37-.63,4.99Z"/>
      <path class="cls-1" d="M6.6,11.51c-1.17,1.48-1.77,2.61-2.24,3.95.24.21.4.36.49.47l2.12-1.72c-.04-.71-.19-1.78-.37-2.7Z"/>
      <path class="cls-1" d="M49.2,19.01l3.58,1.88c.26-1.23.69-2.76.19-3.61-.62-1.05-1.93-1.78-2.91-2.34l-.86,4.07Z"/>
      <path class="cls-1" d="M41.11,49.81c.68.72,1.71,1.81,2.33,2.33.34.28,1.55-.27,1.66-.69.3-1.18-.23-3.8-1.56-5.47l-2.42,3.84Z"/>
      <path class="cls-1" d="M56.69,23.69c-2.79,2.72-5.81,4.66-9.58,5.86l.1.67c.2,1.32,11.96-4.56,9.48-6.52Z"/>
      <path class="cls-1" d="M9.33,30.55c.37-.47.64-.96.45-1.03-3.14-1.11-6.84-3.19-9.35-5.8-2.58,1.58,7.22,6.54,8.9,6.83Z"/>
      <path class="cls-1" d="M31.36,10.39l3.76-2.48c1.02-1.07,1.75-2.39,2-3.99l-4.05,2.74c-1.18.8-1.94,2.25-1.71,3.73Z"/>
      <path class="cls-1" d="M8.49,19.54l1.33,4.07,2.16-.92-.91-4.33c-1.15.37-2,.75-2.58,1.18Z"/>
      <polygon class="cls-1" points="45.07 22.62 47.28 23.78 48.49 19.44 46.12 18.27 45.07 22.62"/>
      <path class="cls-1" d="M7.56,14.88l.81,3.92,2.57-1.13-1.26-3.66c-.47-.26-1.98.3-2.12.86Z"/>
      <path class="cls-1" d="M18.01,12.04l-3.88,2.01,1.99,2.22,3.09-3.12c.22-.28-.81-1.31-1.2-1.11Z"/>
      <path class="cls-1" d="M49.5,14.53c-.68-.27-1.59-.5-2.2-.54l-1.03,3.63,2.48,1.26.75-4.35Z"/>
      <path class="cls-1" d="M9.28,24.54l-3.71,2.09c1.8,1.13,2.77,1.62,4.82,2.07l-1.11-4.16Z"/>
      <path class="cls-1" d="M47.6,24.63l-.88,4.09c2.12-.48,3.38-1.08,4.7-2.27l-3.82-1.83Z"/>
      <path class="cls-1" d="M38.48,4.62l-.46-.24s-1.26,2.07-.46,2.14l-3.34,2.96,3.16,3.11c1.14-.9-.15-1.23-.31-1.82-.68-1.11,1.89-5.88,1.41-6.14Z"/>
      <path class="cls-1" d="M14.04,52.71c1.83.75,3.19,1.16,5.08,1.4l-2.82-3.97-2.26,2.58Z"/>
      <path class="cls-1" d="M43.04,52.67l-2.25-2.42-2.83,3.9c2.04-.25,3.29-.65,5.09-1.47Z"/>
      <path class="cls-1" d="M13.74,27.99l2.24-3.26-2.29-2.3c-.54,1.98-.57,3.58.05,5.56Z"/>
      <path class="cls-1" d="M41.23,24.87l1.98,3.03c.69-1.94.83-3.38.16-5.47l-2.14,2.45Z"/>
      <path class="cls-1" d="M52.13,26.25c1.66-.9,2.44-1.54,3.65-2.88l-2.65-1.68-1.01,4.57Z"/>
      <path class="cls-1" d="M16.65,33.31l-1.74,2.49c1.76.63,2.95,1,4.63,1.03l-2.89-3.52Z"/>
      <path class="cls-1" d="M26.66,33.7l3.7.06c.26-1.24.42-2.53-.31-2.97-.91-.55-2.55-.51-3.43.01-.2.72-.1,1.93.05,2.89ZM28.19,30.75c.77,0,1.4.63,1.4,1.4s-.63,1.4-1.4,1.4-1.4-.62-1.4-1.4.63-1.4,1.4-1.4Z"/>
      <path class="cls-1" d="M26.88,24.88l1.32.17c-.52-.48-1.1-1.05-1.19-1.56-.11-.68.78-1.41,1.4-1.33.52.06,1.25.79,1.4,1.36.11.42-.51.98-1.15,1.52l1.46-.03c.54-.01.65-2.41.12-2.84-.67-.55-2.38-.53-3.33-.07-.57.28-.46,2.72-.03,2.77Z"/>
      <path class="cls-1" d="M26.57,14.1c-.21.45-.11,1.7.22,2.01.89.83,3.19.61,3.67-.27.2-.36.18-1.56-.1-1.9-.81-1.02-3.25-1-3.8.16ZM29.24,15.96c-.31.39-1.37.31-1.89.01-.53-.31-.59-1.23-.04-2.14.31-.5,1.76-.12,2.08.31.31.4.25,1.31-.16,1.82Z"/>
      <polygon class="cls-1" points="37.59 36.93 42.17 35.83 40.53 33.3 37.59 36.93"/>
      <path class="cls-1" d="M34.5,31.87c-.76-.61-2.23-.9-3.38-.77l.12,2.16c1.2.3,3.1.35,3.26-1.39Z"/>
      <path class="cls-1" d="M34.31,14.54c-.74-.54-2.15-.69-2.98-.64l-.23,2.37,2.72-.05c.3-.3.81-1.44.49-1.68Z"/>
      <path class="cls-1" d="M46.2,27.89l.99-3.52-2.01-.81c-.57,1.64-.44,3.03,1.02,4.33Z"/>
      <path class="cls-1" d="M9.87,24.34l.85,3.52c1.18-1.09,1.94-2.51,1.26-4.27-.58.15-1.57.5-2.11.75Z"/>
      <path class="cls-1" d="M22.52,15.34c.43.74,2.08.94,3.45.89l-.43-2.23c-1.33-.27-3.16-.24-3.02,1.34Z"/>
      <path class="cls-1" d="M33.96,22.83c-.56-.48-2.47-.7-2.68-.02-.14.45-.31,1.86.08,1.87l1.51.06c.4.02,1.16-.36,1.41-.63.2-.22-.1-1.09-.32-1.28Z"/>
      <path class="cls-1" d="M22.67,31.67c-.21.18.03,1.2.29,1.26l2.85.6-.06-2.21c0-.24-1.72-.77-3.07.35Z"/>
      <path class="cls-1" d="M25.87,24.56c.32-.09.06-1.46-.21-1.81-.4-.53-2.2-.3-2.67.19-.22.23-.32,1.15-.05,1.32.95.58,1.87.59,2.92.3Z"/>
      <path class="cls-1" d="M14.59,35.1l1.68-2.13-2.26-2.65c-.02,1.71.16,2.79.59,4.78Z"/>
      <path class="cls-1" d="M53.77,18.04l-.39,3.26,2.48,1.25c-.54-2.09-1.04-3.1-2.09-4.52Z"/>
      <path class="cls-1" d="M50.28,11.4l-.15,2.97,2.58,1.55c-.6-2.19-1.29-3.18-2.43-4.52Z"/>
      <path class="cls-1" d="M40.98,33.04l1.51,1.97c.45-1.88.6-2.85.55-4.71l-2.06,2.73Z"/>
      <path class="cls-1" d="M47.58,13.28l2.08.48c.09-2.09.31-2.58-.7-3.69l-1.37,3.21Z"/>
      <path class="cls-1" d="M30.22,19.23l-.04-1.46c0-.27-.68-.32-1.06-.25l.03,3.71c1.21.05,1.1-1.03,1.07-2Z"/>
      <polygon class="cls-1" points="21.95 43.79 18.16 43 20.09 45.75 21.95 43.79"/>
      <path class="cls-1" d="M14.04,41.76c-.27,1.33-.36,1.89-.43,3.28l2.59-2.54-2.16-.75Z"/>
      <path class="cls-1" d="M29.73,30.12c.72-1.52.63-2.98-.09-4.36-.83,1.39-1.17,3.08.09,4.36Z"/>
      <path class="cls-1" d="M7.71,10.16c-.39,1.48-.38,2.15-.28,3.76.81-.37,1.44-.7,1.89-1.07-.28-1.09-.79-2.06-1.6-2.69Z"/>
      <path class="cls-1" d="M42.71,41.66l-1.93.83,2.51,2.4c.09-1.72-.1-2.21-.58-3.22Z"/>
      <rect class="cls-1" x="25.62" y="27.32" width="3.78" height="1.07" transform="translate(-.67 55.03) rotate(-89.32)"/>
      <path class="cls-1" d="M27.23,17.25c-.52,1.35-.55,3.04.18,4.14,1.15-1.61.81-3.06-.18-4.14Z"/>
      <path class="cls-1" d="M37.14,45.44c.27-.3.67-.82,1.07-1.33l-2.6.24c.38.46,1.26,1.4,1.53,1.09Z"/>
      <rect class="cls-1" x="26.88" y="34.65" width="1.05" height="2.15" transform="translate(-1.25 .99) rotate(-2.03)"/>
      <path class="cls-1" d="M29.72,36.67c.69-.21.54-2.06.04-2.01-1.03.1-.99,2.3-.04,2.01Z"/>
      <path class="cls-1" d="M24.3,17.15l1.81,1.74c.19-.54.3-1.48,0-1.76-.31-.28-1.47-.18-1.8.02Z"/>
    </g>
  </g>
</svg>