<?xml version="1.0" encoding="UTF-8"?>
<svg id="Warstwa_2" data-name="Warstwa 2" xmlns="http://www.w3.org/2000/svg" viewBox="0 0 40.31 54.42">
  <defs>
    <style>
      .cls-1 {
        fill: #fff;
      }
    </style>
  </defs>
  <g id="icon-v9-equipment-pixarts-store">
    <g id="icon-v9-equipment-pixarts-store_186">
      <path class="cls-1" d="M39.23,21.57l-1.08.09.82-1.03c.16-.2-.34-.77-.31-1.02l.13-.94c.02-.13-.19-.03-.31.02l-.71.28c.59-.57,1.37-1.5,1.58-2.22.27-.95-.21-2.22-.82-2.8-.28,1.25-.52,2.47-1.5,2.83-.93.34-2.09-.09-3.02-.8-1.6,2.02,3.41,5.09,1.49,4.73l-.73-.14,1.01,1.48c-.82-.18-2.06-.75-2.56-.52-.75.35-1.62,1.56-2.08,2.3,3.11-.51,5.89,1.11,6.55,4.28.96,4.67-1.53,10.04-4.81,13.47,1.11-2.79,2.66-4.86,3.08-8.04l-1.36,1.82c.22-1.66.53-3,.37-4.87l-2.31,4.89c.24-2.05,1.88-8.35-.03-10.18,1.49,12.33-11.22,24.68-22.26,23.92,1.95.84,3.34.98,5.28,1.14l-1.88.94c2.36.68,4.7.14,7.49-.39-2.22,1.43-5.02,2.22-7.83,1.85-4.25-.56-6.67-4.74-5.76-8.91.19-.89.19-2.15-.42-2.87-.41-.48-1.26-.86-1.92-1.12-.5-1.26-1.08-2.62-1.69-3.73l-.99,1.49c-.22-.95.03-2.17.81-3.28,2.13,3.66,1.75,3.65,4.74,7.05,2.04-5.15,5.56-9.16,10.17-12.07,1.55-.98,2.91-2.41,2.87-4.18-1.18.61-2.34.87-3.11.25-.68-.55-.9-1.73-1.02-2.61-.9.15-1.96,1.66-1.64,2.8.22.8,1.25,1.64,2.06,2.23-1.23,0-2.24-.8-2.96-1.78-1.06,1.31-.25,2.36.74,3.4-.55-.19-1.27-.66-2.02-1.2-.25-.08-.8,1.03-.6,1.4l.75,1.39-1.8-1.2c-.23.12-1,1.07-.83,1.39l.7,1.38-1.75-.95-1.86,1.26,2.27-3.84,2.1-6.82c1.07-1.47,2.85-2.74,1.69-4.76-.72.92-1.74,1.55-2.79,1.49-.81-.04-1.56-.85-2.17-1.71-.45.31-1.59,1.7-1.29,2.45.48,1.19,1.64,1.8,2.6,2.57l-2.7-.62c-.12.39-.03,1.71.38,1.97l1.67,1.06-2.33-.27c-.1.32-.38,1.68-.06,1.95l1.26,1.07-1.74-.23c-.22.01-.79,1.32-.52,1.62l1.11,1.21c-.6-.02-1.57-.27-1.86.05l-1.16,1.25c1.05-3.78,1.79-7.01,1.79-10.8,0-4.57,3.87-3.72,2.34-7.23-.63.96-1.39,1.8-2.22,2.02-1.06.27-1.9-.37-2.73-1.23-.41.32-1.16,2.22-.58,2.67.69.54,1.36.92,2.16,1.45l-2.29-.06c.05,1.2.73,1.76,1.98,2.33l-1.41.15c-.24.02-.43,1.11-.17,1.32l1.3,1.05-1.63.28c-.08,1.21.49,1.86,1.43,2.59-.71.09-1.76.03-1.73.48.05.61.36,1.3.7,1.88l-1.11-.19C-.03,32.27.52,32.07.34,36.59l1.21-.27c.58-.13,1.69,2.84,1.38,4.24l-1.62-3.22c-1.47,1.14-1.39,2.47-1.25,4.04.52,5.76,4.15,11.1,9.94,12.62,3.4.89,7.02.24,10.32-1.09,9.04-3.67,15.97-11.14,19.06-20.37,1-3,1.27-6.18.4-9.09l-.56-1.89Z"/>
      <path class="cls-1" d="M15.49,10.11c1.27.1,2.03.18,3.32.44l-1.51,1.85c2.2.24,4.47.38,6.69.12,1.09-.73,2.5-2.06,3.2-3.32.41-.74-1-2.55-1.47-2.85l-1.72.21.18-1.83-8.68-.77-1.99,4.07,1.98,2.08Z"/>
      <path class="cls-1" d="M32.12,20.66c.59-.74.8-1.84.45-2.66l-5.69,6.6-4.11-.08-.38,2.73,4.42-.03,5.31-6.57Z"/>
      <path class="cls-1" d="M24.21,13.56c-.8.3-1.48,1.63-2.09,2.55l4.15,2.57c.2.12.77.59.61.74l-.95.94c.58.19,1.67.15,2.02-.18l-.11-6.17c-1.18-.31-2.57-.84-3.64-.44Z"/>
      <path class="cls-1" d="M17.72,19.87l3.17-3.83c-1.2-1.09-2.07-1.99-3.38-2.61-.77-.37-1.87.66-2.07,1.24-.24.7-.33,1.92.06,2.42l2.21,2.79Z"/>
      <path class="cls-1" d="M31.11,7.36l2.61,2.13c.94.77,1.55,1.23,2.9,1.74l-.13-2.85c-.42.04-.72.11-.67,0,.04-.1.13-.32.2-.46.8-1.9-.5-3.93-2.26-4.44.37,1.05.55,2.3.09,2.9-.64.84-1.73,1.02-2.73.97Z"/>
      <path class="cls-1" d="M16.52,11.24c-2.98.19-6.16,2.81-6.25,5.96,2.83,2.58,3.48-3.63,6.25-5.96Z"/>
      <path class="cls-1" d="M6.63,13.89c2.01-1.43.15-3.35,3.77-6.42-3.35.05-6.03,3.23-5.78,6.32.51.39,1.6.39,2.01.1Z"/>
      <path class="cls-1" d="M19.46,24.5l.64-.71c.11-.13.65.4.75.21.97-1.88,2.39-3.54,4.01-4.76-2.15-.79-7.53,2.33-6.36,4.92.11.25.77.55.97.34Z"/>
      <path class="cls-1" d="M31.41,6.21c.46.33,1.78-.37,1.78-.85s-.36-1.49-.82-1.77c-2.29-1.38-5.2-.46-6.7,1.55,2.23-.56,4.08-.11,5.74,1.07Z"/>
      <path class="cls-1" d="M30.7,11.89c1.97.91,3.92,1.13,4.95,2.85l-1.74-.85c.4.73,1.05,1.7,1.7,2,.89.42,1.84-.62,1.91-1.31.31-2.9-4.73-3.66-6.82-2.69Z"/>
      <polygon class="cls-1" points="28.67 19.84 32.46 14.96 28.5 14.02 28.67 19.84"/>
      <path class="cls-1" d="M12.38,8.66c-1.04.8-2.16,1.7-2.94,2.55-.29.51.39,1.9.78,2.38l2.19-2.16c.52-.51.27-2.1-.03-2.78Z"/>
      <path class="cls-1" d="M25.18,2.52c.06-.73-.03-1.69-.32-2-1.23-1.32-4.49.04-5.09,2,1.91-.99,3.28-.77,5.41,0Z"/>
      <path class="cls-1" d="M12.38,6.87l-2.15,2.49c2.46-1.24,4.1-3.37,4.36-6.14-.89-.22-3.34,2.98-3.16,3.08l.95.57Z"/>
      <path class="cls-1" d="M23.1,23.2c2.84.4,3.5.63,4.67-1.43-2.09-.52-3.88-.56-4.67,1.43Z"/>
      <path class="cls-1" d="M28.17,9.02l.26,3.11,2.14-1.65c-.51-.6-1.41-1.15-2.4-1.46Z"/>
      <polygon class="cls-1" points="32.19 14.03 28.43 12.18 28.53 13.41 32.19 14.03"/>
      <polygon class="cls-1" points="28.39 12.16 28.43 12.18 28.43 12.13 28.39 12.16"/>
      <polygon class="cls-1" points="18.49 20.01 23.56 17.91 21.33 16.62 18.49 20.01"/>
      <path class="cls-1" d="M26.78,6.41c.87,1.53,2.52,2.24,4.24,2.43-1.14-1.26-2.36-2.82-4.24-2.43Z"/>
      <polygon class="cls-1" points="21.37 15.51 22.98 13.4 19.15 13.33 21.37 15.51"/>
      <polygon class="cls-1" points="27.84 13.18 27.49 10.3 25.1 12.6 27.84 13.18"/>
    </g>
  </g>
</svg>