<?xml version="1.0" encoding="UTF-8"?>
<svg id="Warstwa_2" data-name="Warstwa 2" xmlns="http://www.w3.org/2000/svg" viewBox="0 0 55.9 62.15">
  <defs>
    <style>
      .cls-1 {
        fill: #fff;
      }
    </style>
  </defs>
  <g id="icon-v9-equipment-pixarts-store">
    <g id="icon-v9-equipment-pixarts-store_02">
      <path class="cls-1" d="M33.16,55.84l-1.15,2.29c2.37-.78,4.81-5.82,3.68-5.75l-1.15.07,1.67-1.86c-1.57-.63-3.45-1.41-4.86.12l2.55.49-2.67,2.06,1.92,2.58Z"/>
      <path class="cls-1" d="M48.75,35.84c1.53.18,3.68-.49,3.93-2.31.14-.98-1.77-2.23-2.92-2.29-.25.47-.57,1.67-.59,2.21-.02.44.75.9,1.27,1.17-.56.09-1.3.58-1.69,1.22Z"/>
      <path class="cls-1" d="M14.26,60.37c2.22.94,10.22,3.76,9.78-.53-3.71.75-8.82-.89-11.52-3.32,2.36,1.11,10.73,4.43,12.03,1.63l5.79-12.43-3.41-1.4c2.27-.37,3.65,1.38,5.37-.25l-4.65-2.05,4.33.49c.82.09,2.48-.87,3.09-1.4l7.09-6.18-1.48-5.19,2.2,4.57c3.88-.48-1.48-7.74-2.58-9.03-3.76-4.41-8.43-7.66-13.81-9.86-.39-.16-1.4-.19-1.75-.02-.35.17-.64.94-.68,1.39,4.75,1.86,9.46,3.91,12.26,8.38l-3.61-3.12c-1.72-1.48-3.49-2.46-5.66-3.28-1.07-.41-2.78-1.34-3.7-.8-1.25.73-1.53,2.15-3.36,1.42,2.45-.97,1.69-2.53,2.23-3.73,1.24-2.77,3.1-8.51-.58-9.43-.34-.09-1.28.37-1.36.77-.52,2.55-2.84,5.02-4.08,7.37-1.1,2.62-1.94,6.03-1.5,8.78l.57,3.5c.41,2.56.21,4.64,1.11,6.97l-2.13-2.3c-1.04,2.51,1.11,3.7,1.82,5.89l-3.02-3.29-10.62,9.65c.25,2.1,1.48,3.89,2.42,6.06-1.71-1.58-2.5-3.64-3.35-5.92-1.11.2-1.82,1.54-1.33,2.76,2.56,6.46,7.73,11.2,14.11,13.89ZM23.27,54.5c-.49-.09-.64-1.68-.37-2.47.32-.95,1.65-1.69,2.35-1.51-1.09,1.54-1.37,2.16-1.98,3.98ZM22.05,51.49c-.5,1.4.99,2.82,1.08,4.63-1.31-.89-2.43-2.7-2.36-4.57.04-1.11,1.29-2.22,2.1-2.5,1.25-.44,2.88-.25,3.79.54-1.6.49-3.87-.15-4.61,1.91ZM31.56,32.61c-.15.75-1.26,1.89-2.17,2.03l-5.18.8c.17-1.08,6.33-2.39,5.94-3.18l-.59-1.2c-.14-.29-.35-.79-.44-1.03-.1-.24,1.08-.27,1.33-.16.72.34,1.3,1.8,1.11,2.76ZM34.12,36.54c-.19-1.19-.38-2.19.26-2.96.76-.92,3.22-.64,4.19.28.27.26-.38,1.46-.66,1.21l-1.27-1.12c-.29-.25-1.14.28-1.32.62s.26,1.13.35,1.72c.17,1.02-1.75,2.06-2.94,2.24l-.81-1.22c1.06,0,2.3-.19,2.2-.76ZM32.57,26.09c.22.85-.45,2.06-1.28,2.29l-3.53.95c.26,1.3.37,1.62.53,3.5-1.33-.88-2.16-2.21-3.07-3.76,2.52-2.5,3.64-.79,7.35-2.98ZM20.89,24.42c.58-1.28,2.82.7,3.82-.1.52-.41,1.22-1.6.85-2.02l-1.42-1.59c.92-.12,1.75.49,2.09,1.13.76,1.43-1.44,4.02-1.88,3.9l-2.08-.57c.36,1.38.67,2.55,0,3.85l-1.43-3.12c-.15-.32-.08-1.19.05-1.49ZM11.48,50.67l2.27.78,2.82.92c-1.91.54-4.11.27-5.09-1.7ZM15.2,43.33c1.33,1.47,1.14,3.51.64,5.19l-2.63.44c1.63,1.31,3.23.13,4.56-.32l.46-2.89c.8.4,1.1,3.6.07,3.94l-4.3,1.41c-1.02-.83-1.66-1.25-2.97-1.88.94-.69,2.36-1.33,3.87-1.71l.31-4.19ZM7.9,41.08c.61-.74,1.73-.28,2.95.02l-.43-1.57c-.08-.31.67-.83.98-.9.36,1.46.32,2.29,2.12,2.65-.28.42-1.07,1.27-1.49,1.56-1.12-.73-2.61-1.08-3.34-.66l.35,2.4c.08.54-1,1.38-1.29,1.42.78-3.15-1.62-2.74.16-4.9Z"/>
      <path class="cls-1" d="M43.7,25.29c1.51-2.38,3.69-3.65,5.35-5.56,1.31-1.51,7.54-10.05,4.16-11.39-2.56-1.01-4.53,4.46-6.74,6.88-.79.87-5.22,4.85-6.04,4.68-.25-.05-.33-1.03-.15-1.27l3.39-4.61c2.17-2.95,4.09-5.72,5.95-8.86.59-.99.25-2.6-.57-3.06-.79-.43-2.27-.44-2.98.33-3.55,3.84-6.75,7.89-9.94,12.06-.2.27-.91.65-1.2.76-2.32.93,1.58-7.14,3.24-8.98,1.24-1.38,5.05-4.39,2.73-5.81-.45-.28-1.78-.67-2.24-.35-2.39,1.65-5.51,3.23-6.94,5.74l-4.8,8.44,5.81,3.13c5.52,2.97,9.55,7.66,12.21,13.37,6.76-4.04,8.51-5.01,10.96-12.48-3.58-4.31-4.2,6.34-12.2,6.97Z"/>
      <path class="cls-1" d="M39.87,47.25c.51.22,1.78.27,2.1-.2.31-.47.24-1.84.3-2.23,1.67-.58,3.16-1.15,4.51-1.73l.67-.29c.08-.04-.15-.2-.25-.22l-.53-.1.06-2.2c0-.2-.38-.71-.56-.75-.12-.03-.41.21-.4.33l.07.66c.07.6-.06,1.77-.52,2.11-.39.29-1.54.53-2.1.55-.34.02-1.29-.97-1.01-1.16l1.02-.68c.33-.22.94-.62.98-.94.04-.32-.23-.98-.38-1.2l-2.31,2.46c-.58,2.12.41,1.94-.22,4.61-.05.21-1.08.1-1.07-.11l.14-4.11c0-.25-.87-.87-.87-.63v1.1c0,3.26-1.29,4.01.37,4.71Z"/>
      <path class="cls-1" d="M7.66,31.18c1.14-.92,2.09-2.06,2.83-3.47,1.04-1.96-1.57-4.67-2.87-4.35l.46-2.73c-3.95,3.87-1.07,8.21-.88,6.93l.13-.86.26-1.68c.94.16,1.92,1.84,1.56,2.68l-1.49,3.48Z"/>
      <path class="cls-1" d="M3.45,38.63c.15-.04.42.23.78.45l.45-3.04c.18-1.22-2.41-2.26-3.37-1.73l.99,1.15c-.18.32-.78,1.15-.5,1.34l1.03.68-.97,1.58,1.58-.43Z"/>
      <path class="cls-1" d="M12.41,16.23c.42-.31.53-1.5.39-2.03-.06-.21-.98-.37-1-.16l-.06.56c0,.34.06.97-.18.91l-.94-.27c-.16-.04,0-.75.07-.92l1.5-3.65c.05-.12-.64-.79-.63-.66,0,.13,0,.81-.06.93l-1.61,2.95c-.33.6-.32,1.99.16,2.33.51.36,1.87.37,2.35,0Z"/>
      <path class="cls-1" d="M48.35,41.77l-1.07,3.01c1.5-.44,2.22-2.1,1.07-3.01Z"/>
    </g>
  </g>
</svg>