<?xml version="1.0" encoding="UTF-8"?>
<svg id="Warstwa_2" data-name="Warstwa 2" xmlns="http://www.w3.org/2000/svg" viewBox="0 0 54.13 58.73">
  <defs>
    <style>
      .cls-1 {
        fill: #fff;
      }
    </style>
  </defs>
  <g id="icon-v9-equipment-pixarts-store">
    <g id="icon-v9-equipment-pixarts-store_92">
      <path class="cls-1" d="M8.32,46.19c-.06-.25-.86-.11-1.1-.02-.22.08-.88.64-.66.74l.76.34c.3.13,1.34.34,1.27.03l-.27-1.08Z"/>
      <path class="cls-1" d="M25.81,50.61c6.46.78,13.14.35,19.53-1.49-.54-1.85-1.27-2.34-2.34-2.89l-8-4.16c-1.36-.71-2.45-2.17-3.08-3.55l-5.28-11.57c-.34-.74-.22-2.28-.25-3.05-.67-1.2-2.73-.8-3.9-.07-.91.56-1.58,1.62-2.14,2.78-.1-3.22,3.39-4.55,5.93-4.13.07-2.61.23-4.9.69-7.24l1.97-10.05c-6.47-2.2-12.78-2.37-19.39-1.48-.8.11-1.68,1.07-1.51,1.77l.99,4.08c.56,2.3.81,4.55.78,6.86l2.96,3.24-2.57-1.54c-3.03,3.05,3.91,4.39,3.87,14.52l-.02,4.51c6.79,5.11,4.75,12.6,11.78,13.45ZM32.5,40.97l-4.08,1.79c1.03-1.37,2.44-2.05,4.08-1.79ZM9.31,4.76c3.81-1.29,14.56-.97,18.29.9-2.34,2.27-16,1.35-18.29-.9Z"/>
      <path class="cls-1" d="M44.2,43.18c3.41-.38,6.45-.36,9.46-1.71.56-.25-.21-1.86-.74-2.12l-9.06-4.47-2.86,1.45,2.27-1.67c-2.16-1.81-5.9-11.11-7.04-14.27-.14-.4.36-1.47.06-1.75-1.71-1.59-3.71,1.33-4.91,2.16.42-2.1,2.7-3.11,4.63-3.41.36-5.27,1.55-10.25,3.05-15.56-2.83-1.37-18.18-3.28-18.96-.15.02.5,1.59.67,1.92.43-3.39-2.36,14.73-1.28,15.55.13-3.51,2.03-6.91.72-10.66.84,1.13.48,3.07,1.16,3.56,2.29-.39,6.72-2.93,13.69-1.47,20.42.81,3.74,2.54,6.99,4.09,10.33,1.27,2.73,3,4.54,5.71,5.89,1.64.82,3.22,1.39,5.38,1.15Z"/>
      <path class="cls-1" d="M7.76,33.19l5.45,3.3c.65-5.67-.64-10.97-4.2-15.2-1.52,2.56-6.16,10-1.26,11.9Z"/>
      <path class="cls-1" d="M25.94,51.53c-3.51-.44-5.75-2.36-6.84-5.5-2.33-6.68-7.19-9.48-13.09-12.73.16,2.65,4.81,3.08,8.88,7.66,3.46,3.88,3.72,9.11,6.29,10.39,2.71,1.35,5.62,1.82,8.6,1.9,1.54.04,16.85-.36,15.63-3.1-6.42,1.39-12.97,2.19-19.48,1.37Z"/>
      <polygon class="cls-1" points="7.11 36.36 11.44 54.25 10.77 38.47 7.11 36.36"/>
      <path class="cls-1" d="M11.75,39.6l.57,12.44,1.72-10.29c-.65-.77-1.49-1.57-2.29-2.15Z"/>
      <path class="cls-1" d="M43.01,44.06c-.1,1.82,12.2.44,11.04-1.67-3.78,1.01-7.16,1.37-11.04,1.67Z"/>
      <path class="cls-1" d="M7.53,21.56l-4.25-3.58,2.6,6.37c.66-1.01,1.18-1.88,1.64-2.79Z"/>
      <path class="cls-1" d="M5.02,26.37l-5.02-1.1c1.49,1.65,2.66,2.7,4.36,4.1l.66-2.99Z"/>
      <polygon class="cls-1" points="36.92 58.55 38.2 53.86 34.76 54.36 36.92 58.55"/>
      <polygon class="cls-1" points="30 58.73 31.82 54.33 28.32 54.32 30 58.73"/>
      <polygon class="cls-1" points="23.73 57.68 25.48 53.91 22.29 53.18 23.73 57.68"/>
      <polygon class="cls-1" points="5.46 35.23 2.15 36.38 6.22 38.05 5.46 35.23"/>
      <polygon class="cls-1" points="42.79 56.64 43.76 52.86 41.15 53.49 42.79 56.64"/>
      <polygon class="cls-1" points="51.54 48.24 52.57 44.92 50.12 45.54 51.54 48.24"/>
      <polygon class="cls-1" points="6.96 40.72 4.1 41.82 7.56 43.06 6.96 40.72"/>
      <polygon class="cls-1" points="47.06 48.47 47.6 45.83 45.7 46.03 47.06 48.47"/>
    </g>
  </g>
</svg>