<?xml version="1.0" encoding="UTF-8"?>
<svg id="Warstwa_2" data-name="Warstwa 2" xmlns="http://www.w3.org/2000/svg" viewBox="0 0 57.83 60.06">
  <defs>
    <style>
      .cls-1 {
        fill: #fff;
      }
    </style>
  </defs>
  <g id="icon-v9-equipment-pixarts-store">
    <g id="icon-v9-equipment-pixarts-store_74">
      <path class="cls-1" d="M28.98,48.7l-3.68-.15-.27-2.29-.48-2.7c-1.2.55-2.38.69-3.37.52.21-.69.44-1.37.19-1.29-.17.05-.81.22-.92.35l-2.21,2.68.17-1.88c-.14-.14-1.35.09-1.49.44l-.42,1.01c.24-.53-.45-1.66-.39-2.19l.61-5.47c.03-.31-.36-1.23-.64-1.16l-1,.26-3.37.85c-.36-1.05-.86-2.05-1.37-2.93.33-.25,1.83-1.21,1.49-1.66l-.62-.82c-.3-.39,1.32-.22,1.6-1.27.07-.26-.79-.95-1.05-.75l-4.47,3.36c.42.38,1.13.97.87,1.22-.94.95-3.26.92-2.67,1.52l.88.89c.13.13.42.49.53.63.1.13-.26.36-.43.35l-.72-.05c-.46-.03-1.57-.57-1.52-1.04.05-.46.48-1.05.98-1.91-2.07.79-4.18,1.8-5.23,3.89l2.8-.6c1.05,5.64-3.26,5.83-2.53,9.57l2.6-2.41,2.16.5c.1.75-.05,1.86-.41,2.8-.32.84-.19,1.89-.31,2.85-.23,1.8-1.13,3.58-1.64,5.45l4.73-2.39c1.78-.12,2.77-.39,4.63-1.34.19.99.07,2.27-.35,3.15l-1.33,2.8c1.83-.42,2.95-.99,4.17-2.22l2.98-.65,1.84-1.9c.43-.44,2.44.04,2.13.77l-1.95,4.59c2.64-.71,4.5-2.12,6.24-3.93l.93,1.91,2.21-5.15,3.01-6.69c-1.21.19-2.19.54-3.02,1l.09,1.48ZM8.36,43.47c.32-.21,1.1-.42,1.43-.43.39-.02.6,1.14.38,1.45-.26.38-.62.83-.87,1.01s-.91-.1-1.09-.35c-.23-.31-.18-1.47.15-1.68ZM6.06,44.32l-1.02-.58-1.6,1.01-.2-1.61c1.12.26,1.98-.56,2.55-1.51l.35-.41c.09-.1.63-.06.58.06l-.31.7c-.8,1.79.27,2.7-.35,2.35ZM11.5,51.41l-3,1.77-.86-1.29-.85.46c-.18.1-.45-.79-.28-.92l2.23-1.71-.21-1.38c-.05-.33,1.07-.62,1.16-.4-.06.76-.09,1.96.1,2.54l3.16.55c-.43.19-1.19.22-1.47.38ZM19.26,52.49l-4.2,3.43c-.77-.06-1.32-1.41-1.25-2.03.12-1.04.86-1.55,1.95-1.95l1.25-2c.09-.15.69-.32.87-.29s.61.27.52.43l-.52.98c-.08.14-.21.6-.26.76-.06.21.61.06.82,0l.81-.23c.16-.04.19.77.01.91ZM25.63,54.62c-1.2,1.09-1.48,2.43-3.35,2.53.42-.92.98-1.49,1.61-2.28l1.84-2.29-.31-.98c-.08-.26.86-.49,1.14-.52s.28.66.32,1.08l.15,1.64c.03.36-1.11.57-1.39.82Z"/>
      <path class="cls-1" d="M41.58,33.55l.26-1.64c.13-.81-1.81.69-1.6-3.76l-1.89-.31c.39-2.58-1.45-4.42-2.57-4.06l-2.74.89-.61-3.94-.8,1.08c-.13.17-.54-.39-.49-.59l.23-.87-3.83.84-.65-5.29-1.77.56c-.32.6-.58,1.86-.92,3.2l-.74-3.41-.72-3.89c-.05-.27-.37-.86-.44-1.1-.07-.24.46-.65.85-.94,1.51,2.53-.77,2.77,1.31,4.95,2.42-2.97-2.07-2.68,3.18-10.16-3.19-.01-5.79,1.68-7.76,3.55.52.89,1.15,1.97,1.12,2.65l-.33,5.99-.79-1.14c-.8-1.16-.21,2.67-3.44,2.15-.59.05-.5,5.62.21,5.55.76.02,1.71-.17,1.94.22.27.45.55,1.16.66,1.58l-1.88-.61c1.08,2.44,3.41.55,5.7.89.31.05.23,1.02.28,1.44.03.23.73.6.9.46l.75-.64c.22-.19.97-.91,1.07-.65l.55,1.46,3.89-.5c1.58-.2-.54,4.88.95,6.35l.97-2.64,1.17,1.31c.25.28-.56.9-.94,1.26l1.28,1.06c-.56,1.29-.93,2.93-.49,4.26.74,2.23,4.53.61,4.54.79l-.1-1.51c.51,0,1.47-.32,2.08-.8l3.17-2.5-.26-3.15-1.27,1.62ZM35.47,39.74c-.57.05-1.49-.72-1.29-1.04.21-.35.71-1.09,1.05-1.55.23-.31.98.58,1.06.96.1.45-.35,1.6-.82,1.64ZM38.83,36.7l-1.51,1.19c.29-.97.69-1.88,1.08-2.26.09-.09.84.02.84.15,0,.2-.18.75-.41.92Z"/>
      <path class="cls-1" d="M32.17,35.6c-.86-.46-2.4-1.37-2.36-2.42l.19-4.43c-1.05.15-2.36.44-3.28.44h-4.6s-.39-1.99-.39-1.99c-1.41.51-2.5,1.11-3.39.68-1.44-.71-2.11-1.83-3.23-3.16l-1.76,2.56c.66,1.8.74,3.37.27,5.05l-.99,3.55c1.94-1.04,3.63-1.91,4.89-.49.46.62,1.03,2.17,1.21,2.83l-1.03,3.85,5.69-1.55c1.04.76,2.47,1.76,3.31,2.7.53.59.05,2.31-.05,3.6,1.61-.27,3.08-1.22,4.61-2.27l2.52.51,2.33-2.01-3.68-2.15c-.89-1.54-.39-3.68-.26-5.3ZM21.09,36.32c-.53,0-.97-.43-.97-.97s.43-.97.97-.97.97.43.97.97-.43.97-.97.97ZM29.89,43.22c-.46,0-.82-.37-.82-.82s.37-.82.82-.82.82.37.82.82-.37.82-.82.82Z"/>
      <path class="cls-1" d="M48.16,20.12l-3.42-.1c-1.25-.04-2.17.73-2.35,2.09-.49-.8-.21-1.87.3-2.69-.18-.7-.46-1.97-.42-2.76l.18-3.6c-2.8.21-4.5.53-7.26,1.25-.24-1.92-.28-3.84-.25-6.16-1.75-.08-3.87.98-4.23,2.95l-1.33-1.96c-1.14,1.66-2.1,3.18-2.93,4.71,1.15.73,1.77,1.49,1.84,2.66l.21,3.33,2.8-1.21c.68-.29,2.77-.31,2.76.46l-.08,4.13,3.91-1.56c1.64,1.11.81,3.7,1.37,4.8.2.4,3.19.45,3.25,1.48.03.49-.13,1.49-.22,2.17,3.13,1.04,1.22,2.77,2.45,4.58.21.32,1.5-.03,1.76-.34l2.87-3.27c-.02-.42-.46-1.26-.18-1.44l1.33-.84c.47-.3.92-1.36,1.09-2.11l-5.37-.14c1.45-3.86-.77-.99,1.93-6.42ZM41.16,16.71l-.71.75c-.26.27-1.14.85-1.33.53-.19-.32-.26-1.24-.2-1.77l.68.56c.13.11.62-.3.92-.51.18-.12.78.29.64.43Z"/>
      <path class="cls-1" d="M43.76,17.06l3.96-4.08c-.33-1.85-.4-3.1-.42-5.1,0-.07-.96.35-1.54.64-1.07-.25-3.51-.8-4.53.29-1.07,1.15-1.94,2.32-2.84,3.55l5.09-.25.26,4.95Z"/>
      <path class="cls-1" d="M43.71,7.2c1.65-.04,3.08-.25,4.71-.49l.44,4.42,1.52-2.41c1.49-2.35,2.42-4.93,2.4-7.63-3.77,1.3-6.7,3.11-9.07,6.1Z"/>
      <path class="cls-1" d="M17.7,16.34l1.99-2.03c.68-.69.26-2.97-.19-3.86l-1.67-3.27c-.66.79-1.6,2.55-1.47,3.74.4,3.66-1.66,1.61-2.48,7.62,1.29-1.26,2.24-1.89,3.81-2.2Z"/>
      <path class="cls-1" d="M51.61,20.2l.32-3.46c.04-.42.04-.55,0-.76-.02-.14-.56-.19-.63-.07l-.34.62-.39.71c-.05.1-.17-.35-.13-.46l.33-.86c-.42-.26-2.01-.75-2.74-.66l-3.67,3.48,4.89.43-.89,4.43c1.35-.83,3.11-2.08,3.23-3.38Z"/>
      <path class="cls-1" d="M36.72,10.9l2.6-2.99-1.1-3.12c.99-3.17-4.9-.23-5.49.21l-1.61,3.03,4.48-1.39,1.11,4.26Z"/>
      <path class="cls-1" d="M54.79,15.82c1.55-2.03,1.52-4.73,1.02-7.32l-6.54,5.73,3.72,1.23-.22,3.02,2.02-2.66Z"/>
      <path class="cls-1" d="M38.83,3.18l1.25,3.21c.56-1.32.75-2.66.9-4.09.25-.18,1.08-.49,1.09-.28l.02,1.14,2.72-2.89c-3.65-.9-6.55.62-9.09,2.36.99.13,2.85-.11,3.11.56Z"/>
      <path class="cls-1" d="M51.65,22.69l-2.79,2.51,3.84.81-.57,2.75c2.95-.65,2.14-3.22,2.33-5.74-.72-.3-2.34-.76-2.81-.34Z"/>
      <path class="cls-1" d="M53.58,21.55l1.81.67.46,2.85c2.33-2.04,2.13-4.91,1.75-7.63l-4.02,4.1Z"/>
    </g>
  </g>
</svg>