<?xml version="1.0" encoding="UTF-8"?>
<svg id="Warstwa_2" data-name="Warstwa 2" xmlns="http://www.w3.org/2000/svg" viewBox="0 0 48.62 61.01">
  <defs>
    <style>
      .cls-1 {
        fill: #fff;
      }
    </style>
  </defs>
  <g id="icon-v9-equipment-pixarts-store">
    <g id="icon-v9-equipment-pixarts-store_135">
      <path class="cls-1" d="M48.27,45.77l-4.06-2.27c-.69-.39-1.58.09-2.11.75l.51-3.27c.09-.57-1.41-1.44-1.86-1.08-1.02.81-2.24,1.68-3.18,2.19,2.57-4.01,4.65-4.01,3.04-8.75l-2.07,2.19c1.74-3.23,4.59-9.7,3.72-13.03-.73-2.82-1.38-5.35-1.9-8.19-.32-1.73-.79-3.49-1.46-5.22-.52.19-1.11.6-1.02.89l.44,1.52-.92-.67c-.15-.06-.91.89-.82,1.27s.5.87.82,1.36l-1.18-.15c-.2-.03-.81,1.69-.41,2.07l.97.94c-.72.23-1.6.49-1.75,1-.12.4.02,1.42.35,1.59,1.43.29,3.47,1.06,4.08,2.11,2.09,3.6-.02,10.93-4.36,13.61-.41.26-1.46.57-1.34.96l.39,1.24c.79-.23,1.5-.37,1.39-.09-.73.42-1.56.73-1.86,1.1-.3.37-.08,1.69.19,1.86,1.28.11,1.05.27.16.39-.56.39-1.16.99-1.4,1.6-.18.45.63,1.12,1.05,1.41-.48-.06-1.35-.12-1.6.25l-1.21,1.84.65-2.61-.72-.65c-.09-.08.56-.23.64-.32l.71-.85c.16-.2-.67-.51-.92-.61l-.86-.36c-.11-.05.26-.35.38-.36l.58-.05,1.18-.13c.27-.03.3-.89.33-1.19l.29-2.97-5.7-1.52-.03,15.53,6.4-2.83c-2.46,2.83-6.15,5.06-10.08,4.58-3.82-.47-7.37-2.71-9.9-5.59,2.56,1.31,4.78,2.72,7.62,3.54l-.11-15.38c-2.29.77-4,1.25-6.18,1.65l.22,3.83,1.73.4-1.55.62.9,3.54c-.84-1.07-1.31-2.25-1.74-3.27l-1.74-.18,1.34-.81c.11-1.13.11-3,.03-4.29-4.41-2.04-6.59-8.15-5.6-12.66.49-2.25,2.78-3,5-3.44l-.25-2.76c-.75-.02-1.27-.04-1.34-.04h0s-.01,0,0,0c.73-.85,1.05-1.18.94-1.89-.13-.82-1.01-.71-1.73-.7l.66-1.65c.16-.41-.9-.8-1.41-.58l.41-1.16c.12-.33-.7-1.1-1.03-1.29-.87,1.7-1.37,3.29-1.63,5.06-1.91,13.11-4.16,7.14,1.62,21.38l-1.9-2.23c-.95,2.29-.73,4.4.78,6.22l3.51,4.26c-2.14-.25-3.88-3.93-5.36-3.67-.44.08-1.23,1.18-1.09,1.6l1.23,3.83-1.84-1.96-5.3,2.65c.69,2.76,2.09,4.76,4.13,6.67l2.15-1.49-.87,2.68c1.71,1.36,3.88,2.81,5.84,3.53.76-.68,1.57-1.39,2.35-1.01l1.63-2.01-.45,4.22c5.06,2.93,11.19,3.35,16.64,1.04v-3.88s2.39,3.23,2.39,3.23l6.02-2.41-2.11-2.23,3.19,1.42c1.43-.67,9.48-8.69,7.35-9.88ZM3.84,48.38c-.78,0-1.41-.63-1.41-1.41s.63-1.41,1.41-1.41,1.41.63,1.41,1.41-.63,1.41-1.41,1.41ZM9.36,53.98c-.53.05-1.41-.5-1.61-.96-.24-.55.28-1.74,1.11-1.82.62-.06,1.64.71,1.66,1.21.02.51-.65,1.52-1.16,1.57ZM8.46,41.56l3.01,4.42c-1.39-.98-3.24-2.18-3.01-4.42ZM11.4,48.25c4.12,2.04,7.88,3.35,12.57,4.55-4.33.61-9.36-1.1-12.57-4.55ZM24.42,59.67c-.79,0-1.43-.64-1.43-1.43s.64-1.43,1.43-1.43,1.43.64,1.43,1.43-.64,1.43-1.43,1.43ZM27.11,54.29l4.56-2.69,2.7-1.63c-1.66,2.13-4.07,3.87-7.26,4.33ZM36.19,46.42l4.06-4.81c-.36,2.31-1.97,3.76-4.06,4.81ZM39.54,53.98c-.73,0-1.32-.59-1.32-1.32s.59-1.32,1.32-1.32,1.32.59,1.32,1.32-.59,1.32-1.32,1.32ZM45.36,48.31c-.54.11-1.54-.29-1.94-.87-.37-.54.29-1.59,1.22-1.86.51-.15,1.57.46,1.68.98.11.57-.44,1.65-.95,1.76Z"/>
      <path class="cls-1" d="M12.13,16.04h0s-.02,0,0,0Z"/>
      <path class="cls-1" d="M26.69.7c-1.19-.89-3.35-.97-4.55,0l.02,15.89-.02,20.01.15,12.42c1.52.64,2.77.6,4.32.14l-.02-20.22c-.12-.17-.42-.55-.52-.68-.1-.13.6-.7.59-.93l-.1-12.89c-.01-1.53.11-2.76-.19-4.06-.2-.87-.08-1.17.04-2.06.33-2.43.32-5.11.26-7.63ZM23.44,1.28c.23-.35,1.43-.33,1.77-.12.35.21.57,1.32.19,1.45-.45.16-1.15.35-1.62.45-.45.1-.67-1.3-.35-1.78ZM23.46,30.9c.17-.34,1.4-.25,1.76-.1.44.18.54,1.47.16,1.74-.32.23-1.06.37-1.5.37-.48,0-.74-1.38-.42-2.01ZM23.03,22.64c0-.69.56-1.25,1.25-1.25s1.25.56,1.25,1.25-.56,1.25-1.25,1.25-1.25-.56-1.25-1.25ZM24.06,15.97c.47-.03,1.42.51,1.5.92.1.48-.53,1.57-1.02,1.55-.44-.02-1.2-.43-1.48-.74-.36-.4.29-1.68,1-1.73ZM23.81,10.74c.36-.23,1.58.05,1.72.46.15.47-.14,1.49-.59,1.91-.36.34-1.26-.17-1.75-.65-.36-.35-.02-1.3.62-1.72ZM23.81,35.93c.35-.23,1.42.21,1.71.57.31.37-.25,1.35-.77,1.73-.38.28-1.19-.06-1.66-.58-.33-.36.21-1.39.72-1.72ZM24.41,48.58c-.66,0-1.19-.53-1.19-1.19s.53-1.19,1.19-1.19,1.19.53,1.19,1.19-.53,1.19-1.19,1.19ZM24.63,43.69c-.47.14-1.23-.56-1.57-1.09-.27-.42.46-1.29,1.1-1.39.42-.06,1.34.43,1.45.83.14.48-.44,1.49-.98,1.66ZM24.32,8.03c-.72,0-1.3-.58-1.3-1.3s.58-1.3,1.3-1.3,1.3.58,1.3,1.3-.58,1.3-1.3,1.3Z"/>
      <path class="cls-1" d="M21.3,9.97c-.06-.79-.2-1.28-.08-2.01.37-2.26.26-4.36.02-6.68-2.61.66-11.79,4.9-10.4,7.4.25.45,1.06.73,1.51.79-.02.44.05,1.58.32,1.88.24.26.93.21,1.21.22-.27.72-.41,1.49-.26,2.17.1.46.85.8,1.4.86l-.86,1.24.46,3.01,6.73,1.64c.11-3.46.22-7.03-.06-10.53Z"/>
      <path class="cls-1" d="M38.02,7.71c-2.21-3.19-6.61-5.03-10.55-6.29l-.17,18.96,6.79-1.43c1.41-3.22-1.41-4.33-.25-4.18l.85.11c.27.04.44-2.17.29-3.13.36-.08,1.23-.47,1.41-.91.16-.38.03-1.41-.02-1.75l1.33-.12c.27-.02.5-1.01.32-1.26Z"/>
      <path class="cls-1" d="M21.28,24.63l.09-3.29c-2.49-.75-4.54-1.3-7.16-1.63-1.51-.19-4.06.78-4.58,2.25-1.21,3.41-.04,6.7,1.75,9.45,2.62,4.03,5.59,2.7,9.88,1.19l-.03-3.08c-1.59.47-3.13,1.32-4.66,1.3-4.36-.06-5.56-6.22-4.41-7.34,1.54-1.51,6.75.46,9.12,1.15ZM17.19,21.45c.23-.41,1.22-.53,1.4-.26.23.33.41,1.26.24,1.62-.12.25-1.2.16-1.36-.06-.2-.28-.45-.99-.28-1.3ZM13.87,20.3c.55,0,1,.45,1,1s-.45,1-1,1-1-.45-1-1,.45-1,1-1ZM17.48,31.27c.56,0,1.02.46,1.02,1.02s-.46,1.02-1.02,1.02-1.02-.46-1.02-1.02.46-1.02,1.02-1.02ZM10.55,24.35c-.52,0-.94-.42-.94-.94s.42-.94.94-.94.94.42.94.94-.42.94-.94.94Z"/>
      <path class="cls-1" d="M32.53,30.88c-1.66.24-3.08-.7-5.01-1.32l-.03,3.07c2.16.56,5.2,2.44,7.52,1.06,3.38-2.01,4.84-6.9,4.51-10.66-.44-5.04-9-2.68-12.06-1.86v3.45s5.51-1.45,5.51-1.45c1.01-.27,2.68-.26,3.67.24,1.08,2.99-.75,6.99-4.1,7.48ZM31.29,33.28c-.53,0-.95-.43-.95-.95s.43-.95.95-.95.95.43.95.95-.43.95-.95.95ZM30.6,23.03c-.55,0-1-.45-1-1s.45-1,1-1,1,.45,1,1-.45,1-1,1ZM35.66,22.08c-.49.12-1.53.22-1.66-.14-.12-.35.15-1.32.55-1.63.24-.18.99.24,1.11.52.19.46.35,1.16,0,1.25ZM38.06,22.37c.53,0,.96.43.96.96s-.43.96-.96.96-.96-.43-.96-.96.43-.96.96-.96ZM37.63,26.93c.54,0,.98.44.98.98s-.44.98-.98.98-.98-.44-.98-.98.44-.98.98-.98ZM36.37,31.58c0,.52-.42.95-.95.95s-.95-.42-.95-.95.42-.95.95-.95.95.42.95.95Z"/>
    </g>
  </g>
</svg>