<?xml version="1.0" encoding="UTF-8"?>
<svg id="Warstwa_2" data-name="Warstwa 2" xmlns="http://www.w3.org/2000/svg" viewBox="0 0 50.21 59.94">
  <defs>
    <style>
      .cls-1 {
        fill: #fff;
      }
    </style>
  </defs>
  <g id="icon-v9-equipment-pixarts-store">
    <g id="icon-v9-equipment-pixarts-store_291">
      <path class="cls-1" d="M44.23,15.36l-5.25-.83c.48.55,5.44,1.91,5.25.83Z"/>
      <path class="cls-1" d="M17.38,51.67c2.74-1.06.97-3.06,2.22-6.55l1.45,4.74c1.82-.28,1.61,1.25,2.35,2.4.77,1.19,3.83,1.16,4.98.5l2.52-1.45.59-5.03.6,4.96c1.5.27,2.56.52,3.97,1.1,1.04-4.77-.75-4.61-.23-8.19.25-1.76.24-3.37-.28-5.03-.68-2.16-.73-4.27-.83-6.54-.21-4.52-.8-8.75-1.58-13.37-.61,1.96-1.16,2.34-2.6,3.23-.71.44-1.67,1.88-2.47,2.02-1.01.17-2.2-.2-3.02-.52-2.11,1.41-3.83.09-5.29-1.4-.93-.95-2.24-1.57-2.75-2.92l-1.99,20.96c-.6.53-1.6,1.33-1.43,1.81l.74,2.06.12,7.36,1.31-2.88,1.61,2.73Z"/>
      <path class="cls-1" d="M47.38,47.26l1.27,1.93,1.47-1.37c.3-.28-.25-1.4-.41-1.81-2.76-6.65-4.08-13.63-5.18-20.8-2.41.13-6.46-2.94-7.72-4.88.59,3.78,1.28,7.13,1.45,10.83-1.56-5.48-.94-9.44-3.85-14-.25,6.41,1.1,9.12,1.25,15.43.18,7.47,1.96,7.49,1.11,11.52-.3,1.45.15,2.66.39,4.14.18,1.11-.17,2.76-.12,3.97.11,3.27-.96,4.16-1.14,7.73,1.54-.63,3.56-1.45,4.04-2.55l1.21-2.77,1.5,2c.98-.46,2.86-1.58,3.05-2.77-1.07-6.41-2.55-12.21-2.83-18.35l3.37,15.65c.8-1.61.66-2.48,1.14-3.87Z"/>
      <path class="cls-1" d="M6.38,55.62l2.3-4.01.23,4.49c.05.99,4.11,3.9,5.68,3.6-1.25-4.91-1.19-9.95-1.18-14.76,0-.74-.96-2.18-.79-2.84.16-.64,1.08-1.54,1.55-2.17.37-6.21.82-12.37,1.78-18.51.21-1.34.23-2.48.11-3.94-.93.97-1.46,2.01-1.73,3.26l-1.82,8.58c.06-3.23.65-6.1,1.12-9.2-1.26,2.12-5.62,5.3-7.7,4.9-1.26,7.83-2.89,15.32-5.92,22.56l1.74,1.46,1.34-2.05.67,4.05c.65-.9.9-1.49,1.06-2.28l2.67-13.13c-.2,6.42-1.74,12.09-2.87,18.05.34.69,1.22,1.57,1.76,1.94Z"/>
      <path class="cls-1" d="M31.74,8.1c1.23-2.13,2.95-4.72,2.49-7.36-.65-3.69-6.12,7.89-14.22,1.33-3.03,2.69,1.23,4.83,1.06,6.58-.06.66-.83,1.9-1.02,2.56-.49,1.68,1.92,2.2,2.93,2.61,1.56.64,2.24.7,3.83.19,1.3-.42,3.66-.76,3.84-2.56-.27-.99-2.11-2.41-1.15-3.78.81-1.16,1.53-2.22,2.1-3.31l1.56-2.94c.41,4.75-5.44,6.79-1.4,9.23.58-.4.29-1.75-.02-2.56Z"/>
      <path class="cls-1" d="M37.66,15.15c5.27,3.05,8.58,1.37,7.82.64-2.12-2.06-1-4.9-3.25-8.55-1.35-2.2-5.27-4.21-5.75-3.77l-.55.51-.81-1.54-1.91,3.96c-.4.82-.7,1.75-.65,2.5,1.5-.47,2.51-.64,3.49.18,2.2,1.85-1.02,4.56,1.6,6.08ZM44.23,15.36c.19,1.08-4.77-.28-5.25-.83l5.25.83Z"/>
      <path class="cls-1" d="M17.7,7.55l-2.37-5.01-.95,1.3c-.07-.22-1.17-.44-1.61-.22-5.49,2.75-5.52,4.97-6.74,10.65l1.61.37-1.85.22c-.38.04-1.06.88-.92,1.22.8,2.05,8.68-.07,9.18-3.02-1.88,1-3.38,1.9-5.34,2.11l4.75-2.16.08-2.41c.02-.67.93-1.7,1.56-1.91.98-.32,1.77-.2,2.8.42.06-.02,0-1.14-.19-1.55Z"/>
      <path class="cls-1" d="M31.18,16.18c.09-1.51-3.08,3.09-5.84,1.03-4.21,1.92-4.42-1.45-6.34-1.45l2.32,4.05,3.46,1.21,4-1.18c1.49-3.49,2.27-1.65,2.39-3.66Z"/>
      <path class="cls-1" d="M18.68,10.88c4.01-2.72-1.84-4.45-1.42-9.53l.9,2.35,1.16-2.04c-.8-.79-1.86-1.52-2.97-1.59-.8,3.04.68,5.45,2.24,7.81l.08,3Z"/>
      <path class="cls-1" d="M43.7,18.06l-5.26-1.02c1.31,1.51,3.89,3.77,5.86,4.28l-.6-3.26Z"/>
      <path class="cls-1" d="M6.21,21.02c.82-.27,1.98-.63,2.49-1.09l1.93-1.75c.47-.43,1.01-1,1.26-1.32l-5.21,1.21-.46,2.95Z"/>
      <path class="cls-1" d="M17.73,10.98c0-.98-.79-1.77-1.77-1.77s-1.77.79-1.77,1.77.79,1.77,1.77,1.77,1.77-.79,1.77-1.77Z"/>
      <path class="cls-1" d="M36.07,10.65c-.29-1.14-1.66-1.99-2.61-1.16-.42.37-.87,1.57-.73,2.07.13.5,1.04,1.17,1.62,1.21,1.12.08,1.92-1.36,1.73-2.12Z"/>
      <path class="cls-1" d="M20.38,20.16c-.34-.64.07-1.92-1.23-2.1l1.13,3.5,3.79,1.55c.97-.01,2.52,0,3.27-.69-2.72.39-5.61.25-6.95-2.25Z"/>
      <path class="cls-1" d="M37.05,16.59l.09,1.15c.02.21.46.34.93.48-.33-1.1-.97-2.22-1.91-3-.7.64.41,1,.9,1.37Z"/>
      <path class="cls-1" d="M46.54,23.39l-.7-1.12c-.45.72-.63.94-.94.86l-1.67-.45c.72.71,1.69.85,3.31.72Z"/>
      <path class="cls-1" d="M40.67,22.39l-3.02-2.74c.56,1.46,1.21,2.65,3.02,2.74Z"/>
      <path class="cls-1" d="M14.75,16.89c-.89.85-1.34,1.6-1.73,2.54,1.19-.44,2-1.42,1.73-2.54Z"/>
      <path class="cls-1" d="M21.06,15.65l-.29-.55c-.93-.64-1.54-1.19-2.42-2.07.07,1.06,1.26,1.88,2.71,2.62Z"/>
      <path class="cls-1" d="M12.68,17.37c1.05-1.09,1.53-2.12,1.93-3.35-.94,1.03-1.76,2.15-1.93,3.35Z"/>
      <path class="cls-1" d="M28.67,14.57c.85-1.22-1.66.09-2.65.3.64.99,1.69.42,2.65-.3Z"/>
      <path class="cls-1" d="M28.59,15.42c1.23.79,2.19-.09,2.99-1.16l-2.99,1.16Z"/>
      <path class="cls-1" d="M33.78,13.34c-.42,1.51-.99,2.58-1.76,3.94,1.65-.84,2.18-2.62,1.76-3.94Z"/>
    </g>
  </g>
</svg>