<?xml version="1.0" encoding="UTF-8"?>
<svg id="Warstwa_2" data-name="Warstwa 2" xmlns="http://www.w3.org/2000/svg" viewBox="0 0 49.16 46.33">
  <defs>
    <style>
      .cls-1 {
        fill: #fff;
      }
    </style>
  </defs>
  <g id="icon-v9-equipment-pixarts-store">
    <g id="icon-v9-equipment-pixarts-store_132">
      <path class="cls-1" d="M46.12,34.04c-1.1.7-1.95,1.28-2.85,1.28l-1.99-6.39c-.77.7-1.39,1.48-1.92,2.22-1.1-.3-2.23.06-2.94,1.09-2.37-1.46-4.07-3.72-5.26-6.46l-3.16,2.96.66,2.98-4.06-6.98-4.25,7.22,1.08-2.93-3.16-3.77c-.75-.89.69-2.95,1.25-4.06-.04-.5-3.96-2.86-2.71-4.03l3.25-3.01-2.23-.71-.24-3.57c-1.34-.22-2.47-.33-3.55-1.07l2.92-4.93c.61-1.03.73-2.71.48-3.86-.63,2.4-.99,3.94-2.55,5.53-.78.79-1.54,2.63-1.26,3.86.18.78,2.3,1.07,2.96,1.22.03,1.46.51,2.39,1.46,3.84-.59.96-2.15,2.2-3.3,2.86,2.39,1.46.25,1.27,3.92,3.71-3.68,5.64,2.75,3.71-5.51,11.3-1.37-1.37-2.27-1.45-4.06-1.05l.59-.84-1.74-1.6-2.21,6.64-2.88-1.58,1.14,4.27,1.3-.6-.96,1.72c-.73,1.31,4.34,3.22,5.53,3.04l-3.08-1.51c-.37-.18-.98-.82-1.08-1.22-.08-.33.51-1.16.86-1.33l3.7-1.73-1.52-2.98c.97.85,2.45,2.69,3.97,2.5l7.18-.9-.29-2.21,4.9,6.92c1.56-2.27,2.89-4.54,5.02-6.81l-.64,1.96,8.78,1.41,1.62-1.36-.23,1.53c-.11.71,3.99.95,4.57,3.14-1.53,1.49-3.49,2.02-5.31,2.97,2.05-.1,4-.98,5.77-2.02.47-.27.86-1.88.38-2.2l-3.09-2.06c1.29.41,2.28.89,3.67,1.58l1.06-3.95ZM24.57,35.97l-1.94-3,1.97-3.73,1.81,3.48-1.85,3.25Z"/>
      <path class="cls-1" d="M24.48.9l-3.89,12.6,3.53,7.37,2.31-7.06.26-.74c.04-.12.3.26.34.38.27.73-2.16,4.41-1.54,6.34,4.32-6.26,3.4-4.47,1.22-11.9-.63,1.7-.6,3.33-.23,5.33l-1.78-3.23c1.94-3.87,1.9-4.4-.21-9.09Z"/>
      <path class="cls-1" d="M5.75,18.32c-.39.39-.05,1.77.14,2.04.01-1.43.8-2.09,1.71-2.8l.98-.77c.22-.17,1.24.29,1.2.57l-.55,4.34c-.09.69.21,1.66.57,2l.62.59c.11.1-.52.6-.44.73.67,1.07,2.33,2.64,3.63,3.61,1.75-7.23.12-9.23-2.91-15.68l-.94,3.44c-3.53-.95.59-2.06-5.1-5.56l1.71-2.51-.86-2.63c.26,4.26-2.15,4.21-1.73,4.97.96,1.73,3.61,2.01,3.88,5.17.07.82-1.25,1.85-1.91,2.5ZM13.3,19.85c0,1.24-.18,2.52-.31,3.77l-.35,3.54-1.19-1.53c1.39-1.67.92-3.53,1.84-5.79Z"/>
      <path class="cls-1" d="M2.32,31.09l2.54,2.52c.41-1.62,1.13-3.57.77-4.68l-1.33-4.02c-1.2-3.64-2.66-6.99-4.3-10.73l.7,10.44c.05.77.28,1.75.4,2.31-.53.81-1.02,2.38.61,3.29l-.23-3.11c.93.97.98,2.42.84,3.99Z"/>
      <path class="cls-1" d="M49.16,14.11c-2.22,4.84-3.85,9.08-5.72,13.98,3.25-1.01,1.69-4.74,3.75-5.3l-1.21,3.91-2.51,2.49.95,4.16,2.81-2.71c-1.18-3.44,1.13-2.57,1.37-6.91.18-3.25.63-6.07.56-9.61Z"/>
      <path class="cls-1" d="M38.64,12.96l-3.83,7.83c.66.59,1.13,1.39,1.42,2.22l.88,2.5c-.56.95-1.09,1.99-1.41,2.97,1.8-1.46,2.78-2.79,3.78-4.51l-2.28,1.28,2.76-2.52c-.22-3.35-.49-6.56-1.32-9.78Z"/>
      <path class="cls-1" d="M39.76,4.86c1.47-.17,2.69-1.04,3.49-2.12l-5.12,2.11c-.63.26-.79,1.61-.86,2.73l-2.79,1.94-2.16-2.66-3.84,2.76c-.1.07,0,.86.1.81.11-.05.45-.21.56-.28l2.99-1.91,2.04,2.24c4.53-2.52,3.27-2.3,8.76-1.09-1.06,2.48-1.68,4.03-2.19,6.25l2.33.78c.17,1.49.3,2.53.64,3.8l.36-4.19-2.35-1.32,1.22-3.02c.35-.88.69-2,.66-2.86-1.85-.59-3.54-.85-5.02-1.56-.94-.45.31-2.31,1.17-2.41Z"/>
      <path class="cls-1" d="M12.83,38.31l-2.28,1.31c.7.9,1.92,2.47,2.73,3.32.3.32,1.54.54,1.77.89.43.65,1.03,1.29,1.64,1.54l-1.32-2.61c-1.61-.32-3.18-1.5-3.21-3.3,1.02-.75,2.86-.88,4.38-.96-1.07-.65-2.59-.85-3.71-.2Z"/>
      <path class="cls-1" d="M33.84,39.62l2.64-1.5c-1.28-.42-3.3.6-3.96,1.65-.2.31-.08,1.48-.37,1.69l-1.24.87,2.41-.24c1.23,1.33-2.7,3.32-2.39,4.25,1.19-.7,4.15-3.33,3.74-4.11-.46-.85-.86-.15-1.53-1.5-.13-.26.42-.94.7-1.09Z"/>
      <path class="cls-1" d="M35.34,27.7c1.39-2.34.74-4.85-.86-6.49-.03,2.34.27,4.38.86,6.49Z"/>
      <path class="cls-1" d="M30.42,21.52l-.81-2.52c-.48.66-.54,1.64.11,2.43l-.46,1.79c.77-.41,1.3-1.25,1.15-1.7Z"/>
    </g>
  </g>
</svg>