<?xml version="1.0" encoding="UTF-8"?>
<svg id="Warstwa_2" data-name="Warstwa 2" xmlns="http://www.w3.org/2000/svg" viewBox="0 0 57.27 60.83">
  <defs>
    <style>
      .cls-1 {
        fill: #fff;
      }
    </style>
  </defs>
  <g id="icon-v9-equipment-pixarts-store">
    <g id="icon-v9-equipment-pixarts-store_114">
      <path class="cls-1" d="M47.09,47.8c-2.75,4.69-6.61,8.43-12,10.13,0-1.84.12-3.36.27-5l.38-4.12.44-4.79c.14-1.49-.31-3.51,1.3-4.34,2.5-1.28,4.9-3.02,5.27-6.09.06-.49.34-1.14.76-1.45.19,3.96-2.62,6.96-6.42,8.37l-1.41,16.44c4.91-1.72,8.83-5.49,11.07-10.01-.73-3.09-1.14-6.3-1.15-9.52l-2,3.31c.16-3.62,3.5-6.21,2.74-9.01-1.73-1.27-2.57-3.41-3.15-5.39-8.67-1.78-13.19-9.66-11.3-18.17-1.06-.9-2.19-1.72-3.26-2.31l-3.04,2.51c2.02,8.44-3.05,16.53-11.43,17.93-.33,2.16-1.43,3.72-2.8,5.13-1.17,3.25,2.38,5.49,2.72,8.55l-2.23-2.85c.12,3.39-.49,6.75-1.04,9.86,2.06,4.68,6.36,7.92,10.87,10.16l-.19-2.38-.35-4.42-.38-4.81c-.14-1.82-.32-3.54-.64-5.3-3.92-1.21-5.77-4.24-6.42-8.09,2.32,3.56,1.42,5.74,7.14,7.72l.99,10.87c.22,2.46.37,4.79.22,7.13-5.44-2.11-9.03-5.49-11.7-10.15-2.82,1.29,2.73,6.05,3.45,7.05l.36-1.05c-.24,3.2,7.93,6.3,10.62,7.15l-.97-8.28c-.17-1.49-.32-2.89-.42-4.38l-.71-10.45c-4.3.59-5.94-2.43-7.52-6.08,2.79-1.16,6.51-1.36,9.24.88,2.41,1.97,2.61,5.39,1.19,8.2l3.1,3.74,3.12-3.78c-.95-2.55-1.3-5.51.61-7.57,2.66-2.88,7.57-3.07,10.53-.79l-.93.1c-.62.07-.9,5.7-7.15,5.45l-2.17,22.91c3.47-.89,7.05-2.46,9.68-5.03.59-.58,1-.94,1.61-1.41,1.24-.95,5.77-5.92,3.12-6.54ZM14.98,43.36c1.01-.65,2.33-.46,3.4.06-.91.08-2.13.31-2.73,1-.57.66-.66,2.08-.28,2.86.44.9,1.53,1.16,2.92,1.46-.76.64-2.04.92-2.96.39-.97-.56-1.68-1.65-1.68-2.89,0-1.14.6-2.43,1.32-2.88ZM44.42,46.24c-1.61.63-2.7,1.68-3.06,3.4l-.68-1.92-.71.14c-.13.03-.3.12-.27.01l.25-.94-1.72-.65,1.45-.53c.32-.11.09-.75,0-1.28.3.06.92.35,1.02.11l.58-1.41c-.03-.66.04-.54.22.15l.53,1.27c.1.24.72-.01.93-.05-.05.37-.25.97-.02,1.07l1.47.63ZM32.29,23.9l-1.15,1.49-1.05-1.53,1.09-1.55,1.1,1.59ZM18.4,29.7c-1.89-.71-3.32,1-5.41.78,2.5-1.95,9.85-2.6,12.14.53-6.65-2.88-4.02-.3-6.73-1.32ZM27.1,28.52c-1.44-.6-2.72-2.23-2.84-4.13-.12-1.82.78-3.45,2.17-4.38,1.44-.95,3.35-1.01,4.74-.03-1.63.13-3.16.84-3.78,1.81-1.06,1.66-.65,3.47.33,4.6,1.08,1.26,2.61,1.59,4.33,1.1-1.12,1.61-3.16,1.78-4.96,1.03ZM42.05,30.08c-3.85-1.31-7.71-.85-10.66,2.16.23-2.73,5.85-2.6,5.79-4.9l.42,1.28c.65.26,8.32.54,6.28,3.06-.33-.87-.83-1.27-1.83-1.6Z"/>
      <path class="cls-1" d="M9.5,23.48c.22-.04.51.23.78.47-.93.68-1.51,1.38-1.46,2.46.04.8.62,1.92,1.49,2.49.53-.56.56-1.95.21-2.44,2.53-1.3-.86-6.98-1.97-9.6,1.91,2.25,4.13,5.33,3.34,8.46l-1.27,5.03c1.24-.63,1.94-1.77,2.24-2.98.95-3.82-.18-7.18-2.35-10.26C6.93,12.01,5.2,6.34,5.23,0c-3.25,4.76-1.97,10.77.22,15.96C3.22,13.35,1.99,10.37.81,7.32-.04,12.49,1.99,16.97,5.39,21c-2.15-1.09-3.7-2.63-5.39-4.38.47,4.06,2.97,6.69,6.67,8.72-1.73.04-3.21-.42-5.02-.99,1.07,2.61,3.37,3.31,6.22,4.08-1.17.57-2.31,1-3.55,1.41,1.56.86,3.42,1.3,5.32.75-1.64-2.28-2.37-6.77-.14-7.13Z"/>
      <path class="cls-1" d="M57.27,16.99c-1.68,1.54-3.03,2.96-4.81,3.7,2.97-4.09,5-8.16,4.09-13.12-1.22,3.22-2.65,6.05-4.75,8.75,2.05-4.99,3.85-11.25.33-16.16-.02,6.44-1.7,11.97-5.22,17.08-2.7,3.92-4.24,9.66-.48,13.26l1.68-2.66c.74-1.17.42-3.55-.24-3.4l-.9.2.69-1.16c.36-.62,3.61,2.06.19,7.13,1.98.5,3.78.15,4.91-.65l-3.25-1.55c2.83-.58,4.98-1.55,6.26-3.9-1.72.48-3.21.82-5.14.93,3.47-1.79,6.26-4.46,6.64-8.44ZM46.37,25.35c.25,1.03.36,1.92.08,2.75-2.76-4.16,1.06-9.84,2.72-11.64-1.07,3.39-3.63,5.42-2.8,8.89Z"/>
      <path class="cls-1" d="M13.96,24.82c7.09,1.06,13.14-9.43,10.86-15.79-3.23,1.06-5.99,2.32-8.42,4.49-5.31,4.73-2.81,5.55-2,10.61,5.1-1.63,8.51-5.76,9.43-10.79.11,6.05-4.53,9.31-9.87,11.48ZM18.25,19.03l-1.87-2.22,1.77-1.92,1.84,1.86c-.5.57-1.24,1.55-1.74,2.27Z"/>
      <path class="cls-1" d="M43.1,24.1c.37-1.84,1.08-3.51,1.3-5.12.3-2.13-2.19-4.37-3.69-5.69-2.46-2.16-5.3-3.29-8.29-4.37-1.64,6.72,3.71,16.84,11.15,15.98-5.92-2.11-10.65-6.6-10.18-13.11.54,5.52,3.91,10.6,9.71,12.3ZM40.07,14.81c1.38.8,2.06,3.09.73,4.41-.37.36-1.35.44-2.34.24,1.32-.52,2.2-1.17,1.87-2.68-.27-1.21-1.45-1.65-3.04-1.88.75-.43,1.96-.58,2.78-.1Z"/>
    </g>
  </g>
</svg>