<?xml version="1.0" encoding="UTF-8"?>
<svg id="Warstwa_2" data-name="Warstwa 2" xmlns="http://www.w3.org/2000/svg" viewBox="0 0 47.48 50.95">
  <defs>
    <style>
      .cls-1 {
        fill: #fff;
      }
    </style>
  </defs>
  <g id="icon-v9-equipment-pixarts-store">
    <g id="icon-v9-equipment-pixarts-store_276">
      <path class="cls-1" d="M34,28.09c.86,0,1.57-.7,1.57-1.57s-.7-1.57-1.57-1.57-1.57.7-1.57,1.57.7,1.57,1.57,1.57ZM34.03,25.65c.47,0,.85.38.85.85s-.38.85-.85.85-.85-.38-.85-.85.38-.85.85-.85Z"/>
      <path class="cls-1" d="M.52,33.11c-1.85,2.07,1.57,7.89,4.43,10.01,1.13.83,2.24,1.55,3.3,2.17l-1.78-2.75-1.78-.68c-1.25-1.45-4.29-6.29-2.3-7.67,5.14-3.55,21.93,9.97,18.25,14.79-.33.43-1.53.7-2.15.52l-5.53-1.56,2.93,2.06c1.36.96,6.57,1.78,6.94-.75.32-2.23-.61-4.11-1.47-6.35,1.76,1.49,2.07,3.48,2.54,5.69,2.82-3.35,1.51-7.11,1.27-10.89.98,1.89,1.2,3.9,1.32,6.18l6.66-8.62c-.73-3.59-3.03-6.23-5.35-8.65-3.28,3.88-6.49,8.06-11.43,9.34-.89-5.52,1.84-10.09,4.68-14.58-2.94-1.44-6.46-2.85-9.71-2.64l-5.75,8.08,3.58-.78c-2.85,1.87-5.36,1.66-7.49,5.34,3.31-.33,6.52.5,9.29,2.28-2.93-.92-8.19-3.08-10.45-.56Z"/>
      <path class="cls-1" d="M24.09.17c-1.4.21-2.75,1-3.14,2.21l3.74-.82c-4.4,2-3.88,1.15-6.14,6.19l1.31-.19c-1.53.82-2.81,2.27-3.68,3.8,3.32.72,6.16,1.64,9.21,2.7.02-.98.37-2.35,1.05-2.48.85-.16,1.71.12,2.79.57,2.03-1.66,3.74-4.37,5.1-7.08.51-1.01,2.26-1.12,3.26-.65.96.45,1.67,1.75,1.67,2.92v1.09c0,.17-.84.37-.97.55l-4.4,5.99c-.09.82,2.25,2.77,1.21,3.69l-1.51,1.33c2.26,2.51,4.06,5.22,5.38,8.23l5.98-6.85c1.56-1.79.05-4.48-.11-6.55,1.04,1.33,1.24,3.11,1.52,5.27,2.41-1.19.31-6.52-.83-8.12l-2.29.68c.3-1.35.59-2.54.57-3.56C38.91,3.76,31.47-.96,24.09.17Z"/>
      <path class="cls-1" d="M17.52,12.71c-.97-.28-3.23-.38-3.96.23-1.71,1.44-3.11,3.56-4.02,5.55,4.73-1.97,7.97.76,10.95,1.15,4.36.57,6.89,2.61,8.69,6.37,1.34,2.81,4.24,5.12,4.66,8.49-.01.76-.06,1.55.1,2.32,1.97-1.81,3.7-3.4,4.49-5.41.2-4.72-4.24-8.7-6.99-12.91-1.6-2.45-4.39-3.09-6.98-3.83l-6.92-1.97ZM34,24.95c.86,0,1.57.7,1.57,1.57s-.7,1.57-1.57,1.57-1.57-.7-1.57-1.57.7-1.57,1.57-1.57Z"/>
      <path class="cls-1" d="M22.94,21.15c-1.79.42-6.91,10.65-5.54,13.57,3.19-1.47,9.51-6.99,9.38-10.36-.05-1.15-1.73-2.17-2.73-2.17l-4.13,6.63c.57-2.3,2.55-5.05,3.7-6.79.21-.31-.38-.94-.67-.88Z"/>
      <path class="cls-1" d="M26.41,13.24c2.74.45,5.29,2.52,6.97,4.9.12.17.87.22.84.05-.49-3.4-8.45-7.51-7.81-4.95Z"/>
      <path class="cls-1" d="M37.48,5.26c-.85-.56-2.33-.28-2.56.83l2.86,1.92c.8-.62.48-2.23-.3-2.74Z"/>
      <path class="cls-1" d="M31.88,10.86l1.97,2.38c.95-.55.31-2.8-.67-3.13-.4-.13-1.45.66-1.31.75Z"/>
      <path class="cls-1" d="M33.01,8.92l2.14,2.55c.6-.89.56-1.58.07-2.18-.57-.7-1.09-.97-2.21-.37Z"/>
      <path class="cls-1" d="M30.34,12.34l2.64,2.18c.22-.94.02-1.67-.43-2.15-.54-.58-1.06-.68-2.21-.03Z"/>
      <path class="cls-1" d="M36.24,9.48c.12-.11.65-.93.57-1.17-.19-.59-1.63-1.56-2.65-.75l2.07,1.92Z"/>
      <path class="cls-1" d="M34.03,27.35c.47,0,.85-.38.85-.85s-.38-.85-.85-.85-.85.38-.85.85.38.85.85.85Z"/>
    </g>
  </g>
</svg>