<?xml version="1.0" encoding="UTF-8"?>
<svg id="Warstwa_2" data-name="Warstwa 2" xmlns="http://www.w3.org/2000/svg" viewBox="0 0 50.19 58.25">
  <defs>
    <style>
      .cls-1 {
        fill: #fff;
      }
    </style>
  </defs>
  <g id="icon-v9-equipment-pixarts-store">
    <g id="icon-v9-equipment-pixarts-store_120">
      <path class="cls-1" d="M36.24,24.68c.06-5.64,1.78-10.53,5.15-14.9l-1.5-1.93-2.47,3.57c-1.77-1.1-2.85-1.81-4.26-2.99l2.02-4.59c-2.04-1.01-4.08-1.79-6.28-2.26l-.02,9.09c2.44,1.45,3.35,3.83,3.27,6.37-.07,2.27-1.28,4.34-3.43,5.75l.08,3.94,7.43-2.05Z"/>
      <path class="cls-1" d="M9.67,11.15c2.78,3.99,3.66,8.57,4.03,13.64,2.83-.88,5.27.07,7.56,2.02v-4.01c-2.19-1.5-3.41-3.67-3.4-6.15.01-2.41,1.03-4.6,3.27-6.13V1.42c-2.38.68-4.34,1.46-6.3,2.44l1.91,4.49c-1.18,1.4-2.56,2.23-4.25,3.13l-2.41-3.43c-.2.19-.88.99-1.22,1.45-.26.35.53,1.26.81,1.66Z"/>
      <path class="cls-1" d="M23.87,40.19c-1.28.98-2.89,2.47-3.91,3.73l1.53,13.48c2.34,1.19,4.85,1.05,7.02.02l1.45-13.56c-.93-1.29-4.22-5.1-6.09-3.66ZM23.81,42.48c.38-.97,2.86.19,2.62.95-.07.23-.67.74-.84.91-.21.21.25.75.45,1.14l.34.65c.54,1.04-1.54-.95-1.76-.64l-.85,1.2c-.27-1.38-.39-2.92.04-4.21ZM26.45,53.85l-.87.99c-.11-.87-.33-2.32-.62-1.94l-.78,1c-.13.17-.61.12-.79.03l-.03-3.26,1.34.79c.31.18,1.08-.35,1.77-.57l-.56,1.54c.17.23.77,1.16.53,1.43ZM26.93,49.09h-3.71v-.74h3.71v.74Z"/>
      <path class="cls-1" d="M22.37,27.1c1.92.11,3.69.08,5.31-.18l.12-4.73c2.42-1.13,3.56-3.38,3.52-5.85-.04-2.26-1.37-4.16-3.55-5.45V.39c-1.67-.5-3.62-.5-5.47-.09l-.1,10.61c-2.17,1.38-3.59,3.29-3.5,5.76.08,2.19,1.11,4.29,3.37,5.49l.31,4.94ZM24.92,25.77c-.86-.53-1.55-1.47-1.06-2.35l2.39.34c.11.78-.81,2.32-1.33,2ZM25.38,9.13c-.98-.63-1.28-.84-.69-.26-.8.52-1.07.67-1.04.45.04-.22.24-.91.21-1.13l-.15-1.52c-.04-.4.68-1.06,1.1-1.21.95.37,2.28,1.94.84,3.05l-.05-1.42c-.01-.37-.93-1.13-1.05-1.03l-.46.92c.6.68,1.07,1.41,1.28,2.14ZM25.28,2.24c.21-.09,1.08,1.11.91,1.46-.49,1.03-2.26.18-2.73-.52l1.81-.94ZM20.3,17.32c-.29-2.18.63-4.24,2.66-5.21,1.93-.93,4.12-.32,5.53,1.12,1.45,1.49,1.83,3.74.78,5.72-.88,1.66-3.05,3.14-5.26,2.52-2.24-.62-3.48-2.4-3.71-4.15Z"/>
      <path class="cls-1" d="M30.19,56.09c.27-2.96.54-8.2,1.73-11.6.78-2.25,3.09-2.83,4.25-4.75l-3,1.76-5.33-4.4c-1.83-1.51-4.02-1.35-5.8.12l-4.79,3.97,1.41,2.04c-1.29-1.12-2.51-2.1-3.88-2.79.72,1.62,2.84,2.1,3.31,3.84.99,3.69,1.4,7.91,1.65,11.76.02.28.59.73.95.83l-1.47-13.3c1.42-1.42,2.84-2.75,4.47-4.14,2.12-1.8,5.96,3.03,7.14,4.17l-.95,7.39c-.27,2.13-.47,4.01-.17,5.9.02.12.49-.55.51-.81Z"/>
      <path class="cls-1" d="M21.95,36.31c4.22-3.46,6.95,1.36,11.37,4,.81.48,1.63-1.64,1.43-2.39-.28-1.01-.51-2.28-1.06-2.44l-2.3-.71,3.19.25-6.29-2.34-.56,1.04c-.12.22-1.04-2.13-4.5-.63-.03,1.18-.28.65-.72-.09-1.88,3.75-5.76,5.75-9.66,3.48l-.72,1.36,4.77,2.62,5.05-4.14Z"/>
      <path class="cls-1" d="M40.33,24.26l-11.01,3.21c-2.55.74-4.83.98-7.48.54l.7,2.97c6.54.56,3.71-.71,8.13-1.95l7.5-2.11c.78-.22,1.85.29,2.59.74.46.27,1.71-.89,1.52-1.4-.28-.77-1.32-1.75-1.96-1.99Z"/>
      <path class="cls-1" d="M32.99,49.07c-.02-2.67,1.15-5.01,3.45-6.38,1.16-.69,2.22-.29,3.29.88l1.15-4.39c.18-.69.24-1.39.39-2.55-8.79,8.48-9.3,3.43-10.3,19.23,1.66-1.15,2.98-2.3,4.22-3.5-1.82-1.17-2.18-1.92-2.19-3.29Z"/>
      <path class="cls-1" d="M17.61,45c-.2-.95-1.4-2.32-2.18-2.87l-4.25-3.02c-.46-.33-1.77.9-1.65,1.46l.69,3.11c1.31-1.25,2.32-1.63,3.67-.74,1.93,1.27,2.88,3.43,3.1,5.78.17,1.77-.59,3.01-2.24,3.65l4.16,3.45c-.15-3.8-.49-7.06-1.3-10.82Z"/>
      <path class="cls-1" d="M35.43,36.13c-.27.48,0,1.81.29,2.74l6.67-4.09.14-7.09c-.09,0-1.02.45-1.34.64-.26.16.05,1.1-.06,1.4l-1.03,2.7.31-3.09c-2.64,4.55-1.58,2.37-5.51,5.46l2.02.02c-.53.39-1.23.85-1.49,1.31Z"/>
      <path class="cls-1" d="M16.1,36.4c2.98,0,5.39-2.41,5.39-5.39s-2.41-5.39-5.39-5.39-5.39,2.41-5.39,5.39,2.41,5.39,5.39,5.39ZM16.06,26.86c2.3,0,4.16,1.86,4.16,4.16s-1.86,4.16-4.16,4.16-4.16-1.86-4.16-4.16,1.86-4.16,4.16-4.16Z"/>
      <path class="cls-1" d="M38.97,23.51c1.02-.26,2-.36,2.38.1l1.44,1.74.58-5.45c.05-.5,2.07-.4-.33-6.28-3,2.79-3.49,6.45-4.07,9.89Z"/>
      <path class="cls-1" d="M3.77,32.73l1.76,1.11c1.5-2.11.59-4.3.52-6.64l-.18-6.72-2.48,1.01.38,11.24Z"/>
      <path class="cls-1" d="M5.97,18.53l1.23,4.23,3.65,1.19c-.28-3.65-.8-7.78-3.9-10.36-.55,1.51-1.36,3.63-.98,4.93Z"/>
      <path class="cls-1" d="M44.27,20.78c-.5,4.34-.78,8.46-.31,12.82.75.16,2.14-.56,2.17-1.25l.43-10.41c.02-.66-1.68-1.39-2.29-1.16Z"/>
      <path class="cls-1" d="M41.71,10.44c-2.11,2.46-3.14,5.29-3.89,8.17,1.48,1.74-1.37-.84-.8,5.64,1.28-.26,1.25-.93,1.38-1.8.57-3.83,1.68-7.24,4.41-9.95l-1.11-2.07Z"/>
      <path class="cls-1" d="M7.35,12.3c.11,1.73,2.83.72,4.25,11.1.03.24.19.66.25.86.05.14,1.02-.21,1.01-.45-.09-3.65-1.38-9.76-4.18-13-.48-.15-1.36.98-1.33,1.48Z"/>
      <path class="cls-1" d="M16.02,8.21l-2.42-4.88c-1.5.87-2.51,1.6-3.57,2.74l2.7,4.46,3.29-2.32ZM13.46,8.17c.22.08.43-.61.67-1.16,0,0,0,0,0,0,0,0,0,0,0,0,.03.03.26.2.37.28.18.13-.08.86-.29,1.25-.14.27-1.18.69-1.27.39l-.33-1.08.84.31Z"/>
      <path class="cls-1" d="M34.07,8.29l3.37,2.17,2.38-4.69-3.27-2.52c-1.14,1.89-1.75,3.08-2.47,5.04ZM37.1,7.87c.15-.07.38-.1.39.06,0,.16-.08.76-.16.9-.22.38-1.47-.02-1.71-.45-.24-.44-.05-1.39.21-1.65.2.71.41,1.37.76,1.45.11.03.42-.28.51-.32Z"/>
      <path class="cls-1" d="M7.12,28.01l2.57,1.87c.63-2.03,1.48-3.26,2.81-4.38l-4.3-1.39c-1.37-.44-2.14,3.14-1.09,3.9ZM8.36,25.42c.61,0,1.11.5,1.11,1.11s-.5,1.11-1.11,1.11-1.11-.5-1.11-1.11.5-1.11,1.11-1.11Z"/>
      <path class="cls-1" d="M46.52,51.69c1.04-1.55.27-3.54-1.05-4.28l-2.01.42c.58,1.81.42,2.76-.14,4.74,1.38-.23,2.29-.48,3.21-.87Z"/>
      <path class="cls-1" d="M8.13,52.21c.69.21,2.38-.56,2.74-.85l-1.32-2.8c-.2-.42-.3-1.21-.63-1.24-.33-.03-1.27.26-1.52.51-1.02,1-.8,3.76.74,4.38Z"/>
      <path class="cls-1" d="M49.89,46.49c-.11-.85-1.49-1.47-2.35-1.4-.83.06-1.68.79-1.95,1.63,1.58.96,2.14,2.12,2.37,4,1.1-1.05,2.17-2.44,1.93-4.23Z"/>
      <path class="cls-1" d="M42.02,52.21c.93-.27,1.27-1.97,1.22-2.9-.04-.8-.78-1.63-1.96-2.06l-2.18,4.16c.82.47,2.03,1.07,2.92.81Z"/>
      <path class="cls-1" d="M6.67,52.46c-.56-1.86-.65-3.18-.23-4.69l-1.73-.41c-1.17.67-2.28,2.41-1.36,3.84.58.91,2.45,1.32,3.32,1.26Z"/>
      <path class="cls-1" d="M46.19,41.84c-.42.57-.2,2.26.3,2.59,1.36.12,2.46.35,3.7.75-.15-1.35-.39-2.86-1.05-3.89-.48-.75-2.46-.1-2.95.56Z"/>
      <path class="cls-1" d="M3.73,41.73c-.46-.42-2.12-1-2.59-.56-.99.93-1.23,3.01-1.12,4.01,1.42-.42,2.37-.6,3.78-.76.31-1.06.42-2.24-.07-2.69Z"/>
      <path class="cls-1" d="M38.85,44.23c-.16-1-1.18-1.23-2.05-.86-2.64,1.11-3.41,5.08-2.51,6.95.09.19.77.47.89.56.09.06-.85-5.26,3.66-6.64Z"/>
      <path class="cls-1" d="M1.97,50.29c.79-1.85,1.37-2.68,2.35-3.86-.24-.58-1.4-1.38-2.03-1.37-.62,0-2,.76-2.07,1.42-.15,1.51.86,3.27,1.75,3.81Z"/>
      <path class="cls-1" d="M13.25,43.46c-.7-.46-1.69-.18-2,.81,2.91,1.05,3.98,3.77,3.28,6.64,2.72-.53,1.56-5.61-1.27-7.45Z"/>
      <path class="cls-1" d="M9.73,34.97c.84-1.23-.09-4.91-2.25-4.96-.02,1.84-.02,3.56.15,5.37.41.49,1.76.08,2.1-.41Z"/>
      <path class="cls-1" d="M2.82,31.83c.09-3.37.15-6.28-.52-9.41-1.5.2-1.06,10.44.52,9.41Z"/>
      <path class="cls-1" d="M47.51,22.69c-.35,3.18-.58,6.18-.2,9.32,1.65-.06,1.7-10.18.2-9.32Z"/>
      <path class="cls-1" d="M3.31,37.76c-.74.11-1.76,1.72-1.87,2.17l3.32,1.46,1.51-1.86c-1.12-.6-1.81-1.94-2.96-1.77Z"/>
      <path class="cls-1" d="M5.66,35.79c-.27-.44-1.74.72-1.72,1.03,1.09.67,2.13,1.32,2.34,2.7l.71-.87c-.28-.77-.89-2.13-1.33-2.86Z"/>
      <path class="cls-1" d="M6.28,39.54s0-.01,0-.02h0s0,.01.01.02Z"/>
      <path class="cls-1" d="M37.07,29.58c-2.29.18-4.3.74-6.49,1.81,1.07.48,2.28.92,3.49.83,1.39-.1,2.46-1.27,3-2.64Z"/>
      <path class="cls-1" d="M44.56,38.82c-.5.56.1,2.57.77,2.34l3.28-1.14c-.36-.65-.94-1.61-1.61-2.13-.66-.51-1.98.41-2.44.93Z"/>
      <path class="cls-1" d="M12.76,50.99c1.92-1.34.9-3.39-.38-4.8-.47-.52-1.85-.52-2.24.02-.69.96.96,5.06,1.78,3.71l-1.49-3.18c1.63.64,2.28,2.42,2.32,4.26Z"/>
      <path class="cls-1" d="M9.12,38.87l2.84-2.86-1.05-1.05c-.76.49-1.64,1.57-2.04,2.27-.28.11-1.03.25-.95.54.06.23.88,1.02,1.21,1.1Z"/>
      <path class="cls-1" d="M38.34,50.94c1.07-.42,1.32-1.98.91-3.01l1.11-1.03-1.72-1.46c-1.79.8-3.24,3.06-2.27,5.25,1.25-1.36.8-3.6,3.08-4.14l-1.75,2.3c-.34.45.04,2.02.64,2.08Z"/>
      <path class="cls-1" d="M46.13,36.83l-1.65-1.25c-1.06,1.18-1.95,2.65-.97,3.91.69-1.32,1.35-2.05,2.62-2.67Z"/>
      <path class="cls-1" d="M26.32,14.2c.01-.42-1.17-1.21-1.14-.91l-.3,1.97c-.05.33-.57.33-1.38.42-.1,1.21-.05,2.57.24,3.83l.39-2.27c.79.29,2.18-2.61,2.2-3.04Z"/>
      <path class="cls-1" d="M24.48,19.82c1.76-.44,2.73-2.56,2.12-2.42-1.21.27-1.93,1.48-2.12,2.42Z"/>
      <path class="cls-1" d="M16.11,34.03c1.64,0,2.97-1.33,2.97-2.97s-1.33-2.97-2.97-2.97-2.97,1.33-2.97,2.97,1.33,2.97,2.97,2.97Z"/>
    </g>
  </g>
</svg>