<?xml version="1.0" encoding="UTF-8"?>
<svg id="Warstwa_2" data-name="Warstwa 2" xmlns="http://www.w3.org/2000/svg" viewBox="0 0 57.29 58.49">
  <defs>
    <style>
      .cls-1 {
        fill: #fff;
      }
    </style>
  </defs>
  <g id="icon-v9-equipment-pixarts-store">
    <g id="icon-v9-equipment-pixarts-store_89">
      <path class="cls-1" d="M39.44,51.27c1.52-.54,2-1.64,1.78-3.45-.62-5.11-4.31-5.03-8.13-5.72-4.73,1.38-7.91,5.69-7.6,10.54,4.79.84,9.53.2,13.95-1.37Z"/>
      <path class="cls-1" d="M14.86,49.03c2.57-4.03,3.94-3.91,8.52-3.23.63-.61,1.66-1.95,1.87-2.94.15-.75-1.23-2.05-1.84-2.45-2.29,2.05-4.64,3.42-7.33,4.87-1.55.84-3.37,2.37-5.28.8-1.68-1.38-1.27-4.27.65-5.48,1.05-.66,1.3-1.98,1.99-2.91,1.25-1.7,3.41-2.75,5.16-3.88l-.92-2.75c-.59.39-.99.82-.94,1.16l.25,1.73-.85-2.76-2.71,1c-1.82.67-4.71.28-6.52-.49-.57-.24-1.51-.9-2.05-1.07-.83.17-1.72,2.34-1.09,2.97,3.5,3.57,5.3,7.81,5.34,12.8l5.77,2.63Z"/>
      <path class="cls-1" d="M2.88,51.24l.72-.5c.27.49.57,1.15.88,1.32.31.16,1.18-.1,1.53-.13l2.14,1.56.59-3.16c2.07.66,4.83,1.97,6.34,3.34.36.33.69,1.88,1.11,1.75l1.53-.49,1.59,2.13,1.19-1.03c.42-.36.9,1.59,1.63,1.82.93.28.71-.72,2.19-1.01.53-.1.53,1.64,1.88,1.59,1.05-.04,1.68-2.05,2.16-1.33l.51.78c.24.36,1.22.72,1.71.59.41-.11.79-.68,1.28-1.26.29-.35,1.2.37,1.8.68.72.38,6.54-1.33,8.31-2.79.65-.54.59-2.55.49-3.21-.98.59-1.8,1.17-2.62,1.47-7.75,2.84-17.25,2.69-24.57-1.6-2.78-1.63-5.62-2.81-8.65-3.88-1.78-.63-3.78-1.09-4.83-2.76,5.81,2.93,7.18,2.53,13.01,5.71,1.84,1,3.76,2.03,5.8,2.61,6.39,1.79,13.01,1.38,19.24-.72.89-.3,1.78-1.01,2.16-1.68-8.56,4.2-19.13,4.03-27.63-1-4.79-2.84-7.55-2.66-12.33-5.33-1.08.8-.49,7.47.86,6.54Z"/>
      <path class="cls-1" d="M51.84,36.34l-3.18-.45c-4.02,1-6.29,4.69-5.87,8.77,4.38.95,8.84.67,12.97-1.41,1.06-3.25-.63-6.43-3.92-6.9Z"/>
      <path class="cls-1" d="M.82,4.62c.3,1.76.42,3.94,1.02,5.45.69,1.74,3.38.64,4.58.51,2.11-.23,4.57.02,6.55.53.56.14,1.59,1.33,2.33,1.03.65-.27.41-2.13.03-2.83-.88-1.64-10.06-1-12.61-2.96l10.95,1.57c3.86-.18,1.55,4.26,3.5,4.49.62-1.61.68-3.51-.35-4.92-1.18-1.6-11.12-.91-14.82-3.46,1.75-1.53,4.1-1.57,6.21-1.57h10.84c-1.05-.71-2.12-.69-3.41-.75-4.55-.22-8.91-.25-13.31.84-.98.24-1.66,1.05-1.49,2.07Z"/>
      <path class="cls-1" d="M15.11,5.53c4.66,1.14,2.97,3.46,3.67,6.76l5.85-1.11,1.71-7.82c.05-.24-.16-1.06-.35-1.04l-.66.09-6.4.76c-1.67.2-3.2.59-3.81,2.35Z"/>
      <path class="cls-1" d="M32.29,41.53c-1.77-.82-3.14-1.64-4.63-3.07-1.09.12-2.56.65-3.51,1.17l2.11,2.39c.59.67-.34,2.23-.78,2.93-2.73,4.33-7.16-1.6-9.35,4.78,2.35,1.7,5.5,2.55,8.41,2.91.09-5.18,2.8-9.47,7.74-11.12Z"/>
      <path class="cls-1" d="M14.18,13.17l.02,4.75c1.73.14,11.59,0,12.22-2.07.32-1.03.58-2.85.79-4.35-4.28,1.31-8.5,1.91-13.03,1.67Z"/>
      <path class="cls-1" d="M42.61,8.81c-4.48,1.54-9.01,1.32-13.48.64l-.15,4.37c1.53.3,3.1.51,4.68.57.08-.24.18-.21.29,0,2.55.07,5.16-.26,7.75-1.2.48-1.41.77-2.97.91-4.39Z"/>
      <path class="cls-1" d="M3.91,23.76c.65.96,2.37-.01,3.18-.07,1.75-.11,3.76-.13,5.58-.13l2.89,1.35.02-6.05-3.04.85c-1.74.49-4.43,0-6.1-.67-1.25-.51-1.95-1.46-3.55-1.45l1.02,6.15Z"/>
      <path class="cls-1" d="M42.01,0c-.24-.01-.85.01-1.13.06l-4.99.89c-1.19.21-2.39.93-2.71,1.97,1.28.76,2.33,1.6,2.4,2.85l.2,3.51,4.72-.77,1.76-7.16c.08-.31.08-1.34-.24-1.36Z"/>
      <path class="cls-1" d="M40.34,24.18l.34-4.1c-4.49,1.55-8.49,1.48-13.23.9l-.2,4.03c4.81.79,8.66.57,13.09-.82Z"/>
      <path class="cls-1" d="M30.24,36.15c.89,1.2,1.71,2.14,2.63,3.03,2.66-3.7,5.69-6.04,9.74-7.5l-2.42-3.02c-4.35,1.34-7.5,3.76-9.94,7.49Z"/>
      <path class="cls-1" d="M14.73,30.26c3.56-.06,6.79-.28,10.03-1.71.21-1.65.33-3.25.34-4.46-3.7,1.11-6.85,1.56-10.46,1.59l.09,4.58Z"/>
      <path class="cls-1" d="M2.7,43.4c.86,1.79,3.61,2.2,5.55,2.85-.22-4.46-1.45-8.62-4.88-11.67-.72,2.95-1.78,6.05-.67,8.83Z"/>
      <polygon class="cls-1" points="29.71 35 34.55 30.03 32.95 26.63 27.79 26.27 27.08 30.72 29.71 35"/>
      <path class="cls-1" d="M47.67,35.34c-4.76-1.33-4.65-3.75-6.92-1.47l2.13,2.49c-.41,1.15-1.38,3.14-2.67,3.21-2.08.11-3.63-.83-5.47.54l5.31,2.12c.74.54,1.3,1.29,1.91,2.22-.17-4.27,1.98-7.51,5.72-9.1Z"/>
      <path class="cls-1" d="M43.07,47.12l.35,1.7c.06.3,1.04-.04,1.24.07.46.51,1.02,1.23,1.45,1.18.36-.04,1.05-.98,1.4-.87.5.17,1.57.97,1.99.83.43-.14,1.01-.59,1.52-.98,1.21.58,2.49-.11,3.81-.6,1.74-.65,2.7-1.68,2.39-3.87-3.86,2.73-9.31,2.79-14.16,2.53Z"/>
      <polygon class="cls-1" points="18.45 18.99 18.26 24.47 22.71 23.73 23.45 18.43 18.45 18.99"/>
      <path class="cls-1" d="M32.86,15.44l-3.99-.5c-.63,1.84-1.04,3.23-1.34,5.12l5.32.34.02-4.96Z"/>
      <path class="cls-1" d="M20.67,35.03l2.46,3.71c2-.92,3.69-1.39,5.86-1.82l-2.79-3.21c-2.03.08-3.64.56-5.53,1.32Z"/>
      <path class="cls-1" d="M.36,14.95c.29.58,1.22,1.37,1.96,1.52l2.7.56-.08-4.66c-1.2-.32-3.06-.87-4.21-.29-1.04.53-.79,2.03-.37,2.86Z"/>
      <path class="cls-1" d="M38.93,38.73c1.51.46,3.09-.98,2.74-2.42-.17-.7-1.25-1.63-1.97-2.22-2.32,1.52-4.22,3.07-5.6,5.45,1.71-.72,3-1.37,4.84-.81Z"/>
      <path class="cls-1" d="M13.15,18.78c.1-2.77.07-4.45-.15-6.87-2.64-.38-4.47-.53-7.11-.53l.21,6.79c2.47.55,4.26.75,7.05.61ZM7,17.41c-.41-1.68-.3-3.34-.15-5.21,1.66-.07,3.36-.01,4.99.39.72,1.4,1.02,3.73,0,5.45-1.22.42-3.61-.02-4.84-.62Z"/>
      <path class="cls-1" d="M13.55,31.09c.45-2.12.39-4.68-.34-6.42-2.25-.38-4.09-.33-6.51-.18l.16,6.4c2.29.43,4.49.82,6.69.19ZM7.57,25.16l4.89.06.66,2.61-1.6.46,1.72.27c.07.4-.47,1.95-1.06,2.02-1.2.16-3.06.01-4.4-.25-.32-1.78-.31-3.21-.21-5.17Z"/>
      <path class="cls-1" d="M35.38,15.47l-.13,4.86c1.21-.16,2.52-.39,3.37-.69l.72-4.65-3.95.48Z"/>
      <path class="cls-1" d="M22.49,39.47c-.99-1.86-2.12-3.52-3.4-4.63-2.19.95-3.83,2.06-5.31,3.69.74,1.89,1.93,3.37,3.41,4.96,1.97-1.1,3.83-2.18,5.3-4.01ZM14.8,38.71c.74-1.45,2.49-2.47,4.18-2.95.82.73,2.15,2.22,2.12,3.68-.03,1.36-2.45,2.47-3.61,2.78-1.07-.74-2.18-2.25-2.69-3.51Z"/>
      <path class="cls-1" d="M11.19,44.85c1.2,1.47,4.69-.38,4.45-1.49l-2.22-3.17c-1.84.9-3.42,3.21-2.23,4.66Z"/>
      <path class="cls-1" d="M1.82,25.75c-.64.91-.02,2.56.82,3.25.65.53,2.26.72,3.23.71l-.25-4.3c-.98-.49-3.02-.75-3.79.34Z"/>
      <polygon class="cls-1" points="23.68 32.88 22.85 30.4 18.95 31.22 19.95 34.22 23.68 32.88"/>
      <path class="cls-1" d="M32.81,6.15c-.75-.38-2.17-.58-3.01-.66l-.71,3.15,4.03.4c.11-1.01.24-2.61-.31-2.9Z"/>
      <path class="cls-1" d="M33.84,4.6c-1.01-.77-3.09-.72-4.31-.57-.28,1.83,2.64.74,3.99,1.87.13,1.33.04,2.38.71,3.49,1.11-1.51.93-3.8-.38-4.79Z"/>
      <path class="cls-1" d="M46.73,46.12c-1.37.09-2.88-.56-4.14-.05,2.43,1.28,14,.48,14.2-2.81l-1.53,1.18c-3.52,1.29-4.68,1.44-8.54,1.69Z"/>
      <path class="cls-1" d="M17.37,24.16l.02-4.89c0-.22-.88-.47-.99-.28-.11.19-.3.59-.3.81l-.07,4.72c.16.21,1.35-.05,1.35-.36Z"/>
      <path class="cls-1" d="M36.65,28.76c.14.27,2.68-.57,2.57-.95l-.49-1.75c-.11-.39-1.37-.13-1.77,0l-1.22.39c-.25.08.2.99.32,1.22l.58,1.1Z"/>
      <path class="cls-1" d="M27.21,4.35l-1.4,6.52c.74.11,3.63-7.48,1.4-6.52Z"/>
      <path class="cls-1" d="M33.51,15.56c-.08,1.64-.62,3.57.58,5.06.84-1.02.32-5.31-.14-6.22-.1,0-.19,0-.29,0-.07.19-.12.57-.15,1.17Z"/>
      <path class="cls-1" d="M33.66,14.39c.1,0,.19,0,.29,0-.11-.21-.21-.24-.29,0Z"/>
      <path class="cls-1" d="M42.93,2.31l-1.34,5.83c.6-.06,3.07-6.08,1.34-5.83Z"/>
      <path class="cls-1" d="M33.88,26.42c-.1,1.23.37,2.88,1.79,3.28.68-.1-1.3-4.46-1.79-3.28Z"/>
      <path class="cls-1" d="M24.17,23.59c.47-2.09.75-3.76.94-5.8-1.2,1.84-1.57,3.76-.94,5.8Z"/>
      <path class="cls-1" d="M39.53,19.68c1.16-1.86,1.34-3.65,1.03-5.48-.71,1.9-1,3.68-1.03,5.48Z"/>
      <path class="cls-1" d="M40.92,28.11c.98,1.62,1.91,3.04,3.66,3.72l-2.13-2.73c-.47-.61-.9-1.01-1.54-1Z"/>
      <path class="cls-1" d="M10.32,16.05c-.18-.13.18-.69.41-.65l.94.15-1.28-.66,1.52-1.44-4.5-.58.09,4.11c1.31.3,2.57.45,4.21.39-.34-.5-.99-1.04-1.39-1.32Z"/>
      <path class="cls-1" d="M10.67,27.93l1.27-.84c.19-.13-.06-1.02-.3-1.03l-3.45-.1.18,3.85,3.86.04-1.57-1.92Z"/>
      <path class="cls-1" d="M20.43,39.6l-2.26-1.45.74-1.39c-1.14.16-2.62.88-3.17,2.03.29.89,1.26,2.14,2.04,2.77l2.65-1.96Z"/>
    </g>
  </g>
</svg>