<?xml version="1.0" encoding="UTF-8"?>
<svg id="Warstwa_2" data-name="Warstwa 2" xmlns="http://www.w3.org/2000/svg" viewBox="0 0 57.39 59.71">
  <defs>
    <style>
      .cls-1 {
        fill: #fff;
      }
    </style>
  </defs>
  <g id="icon-v9-equipment-pixarts-store">
    <g id="icon-v9-equipment-pixarts-store_67">
      <path class="cls-1" d="M56.85,19.52c-1.76-1.07-3.64,1.4-4.55,2.56-.87,1.11-2.35,1.93-3.71,2.59-1.26.61-2.15,1.37-3.58,1.53l6.17-5.63c.97-.89,2.02-2.2,2.66-3.13l-2.42.22c-1.03.09-1.92.63-3.53,1.05l2.85-3.08c.17.24.37.64.31.86l-.26.94,1.73-1.23-.68.93,2.14-.1c.98-1.18,3.75-5.53,1.29-6.35-.86-.28-1.99,0-2.62.67-3.33,3.56-6.54,6.74-10.94,9.33.07-.95.77-1.51,1.32-2.23,1.77-2.28,3.42-4.34,5.53-6.37.61-.59.7-1.85,1.1-2.35l2.59-3.25c.64-.8.39-2.33-.21-3.02-1.98-2.28-5.05.97-6.25,2.53l1.03-.46c.25-.11.72.78.63,1.01l-1.01,2.68,2.13-.37c.34.1-.02,1.38-.39,1.93-.23.34-.84.33-1.48.17l-2.23.74c.28-.54.68-.9.56-1.15l-.43-.88c1.25-.48,1.98-3.2,1.21-3.54-.44-.19-1.35,0-1.74.29-3.27,2.52-1.48,3.02-7.04,8.1-.22.2-1.41.27-1.4-.02.07-1.48,3.28-6.26,4.41-7.92.36-.54,4.51-3.16,2.92-5.53-.56-.83-2.29-1.36-3.18-.72l-2.95,2.12c.68.77,1.27,1.19,1.09,1.51l-.86,1.48-2.36,5.01c-1.06-2.61,1.03-4.59,2.27-6.35.31-.44-1.11-1.44-1.56-1.09-1.63,1.24-3.1,2.73-4.17,4.51-2.45,4.07-5.68,9.93-11.14,10.7.26-.64.43-.91.4-1.12l-.1-.65-.02-1.89.46-2.02c2.1-1.8,2.87-4.28,2.24-7.05-.82.41-1.54.93-1.8,1.47-1.11,2.25-2.5,3.88-3.87,5.95-1.01,1.52-.55,4.41-1.75,5.92-.89,1.12-1.43,2.15-.82,3.49l2.7-2.14c-.25,2.31-4.05,2.79-1.82,7.49l.86-2.92c.25.25.61.76.66.6l.28-.98c.1-.35.6-1.11.88-1.39.26-.26,1.02.55,1.26.74.56-.49,1.38-1.21,2.06-1.66l2.57-1.72c.4,1.73.41,3.47.19,5.13l1.68.23-1.33,2.69.23,1.1c.05.24-.79.68-.9.95-.47,1.16-1.44,1.93-3.32,2.52.84.64,1.85.8,3.32,1.13l-2.24.46,1.83,1.67.68-1.22.87,2.69.38-1.57,1.01,4.23-2.23-1.91-.34,1.93c-.6-.78-.81-2.01-.61-3.07-3.21-2.93-6.2-6.08-8.98-9.58-.85.58-1.64,1.54-2.09,2.54,1.96,3.65,4.53,6.67,7.87,9,1.18-1.78.95,2.29,5.66,2.19-1.69,1.65-4.45-1.58-5.63-1.2,1.83,1.73,3.63,2.8,5.84,3.95,1.21.25,2.68-1.49,3.87-2.48.4,1.71-1.27,2.3-2.5,3.17.92.83,2.61,1.26,3.77.56.83-.5,1.88-1.82,1.94-2.64-1.81-.8-5.84-2.46-5.47-4.1.22-.95,3.1,3.35,5.12,2.47.79-2.12-1.85-.78-2.75-4.81-.08-.34-.57-1.24-.29-1.35l1.36-.5c-.94-1.22-1.55-2.6-1.66-4.12l1.86-.07c-.76-1.81-1.08-3.42-.65-4.9l.95.43c.13.06.22,0,.21-.13l-.05-.79c-.02-.34,0-1.25,0-1.71,0-.27.56-.22,1.04-.29l1.55-3.76,3.07,5.24c.15.26.52,1.11.66.93l.84-1.06c2.31,1.87.04,5.31,1.3,4.7l.95-.46-1.04,5.43c-.04.19-.7.71-.86.84-.11.08-.43-.47-.38-.62l1.46-4.17-2.08.46c.73-1.62,1.25-3.2.97-4.97l-1.7,2.06-.61-2.88c-1.2-1.42-1.79-2.57-2.5-4.11l-.92,3.25-1.04.8.44,2.78-1.87-.55c.4,1.64,1,2.84,1.82,4.41l-2.75.12c.7,1.25,1.63,2.3,2.64,3.34,0,.21-.53,1-.83.97l-1.24-.11.96,2.58,1.99,1.13c.03.82.13,1.74.62,1.94.71.29,1.85-.2,1.99-.91.38-1.96-.48-3.83-.38-5.31.09-1.33.22-2.68-.41-4.22l.64-.16.21-2.37c.24.74.45,1.73.38,2.45-.12,1.33.11,2.3.21,3.42l.32,3.51.79-.84-.67,2.89c1.04-.54,2.48-1.57,2.69-2.42l.77-3.1-.09,2.75c1.25-1.08,1.32-2.4,1.37-3.79l.17-4.49.38,1.14,1.17-2.3c-.28,2.56-1.16,4.72-.42,6.8,2.51-2.29,6.73-3.98,7.37-5.11l-2.95.05-3.38,2.69c.51-1.38,1.83-3.1,3.27-3.37l3-.57c.47-.09,1.36-.09,1.75-.29l2.11-1.13-1.12-2.96-.25-.67c-.06-.15.51-.15.96-.2l.8,2.47,2.18-3.4c.32-.5.07-2.01-.39-2.29ZM32.23,13.26l-.95,3.8c-.06.26-.92.59-.89.85l.19,1.88-1.59-.6c-.65-.25-2.3-.76-2.2-1.68.1-.91.25-1.76.4-2.61l.53,2.18,1.82,1.08.07-.74c.01-.12.11-.65.17-.55l.49.75,1.26-4.91c.34-1.31.28-3.01-.37-4.26.05-.21.87-.6.94-.38l.33,1.02c.5,1.54.2,2.66-.18,4.17ZM37.76,16.74c-.33-.23,2.22-1.94,3.04-1.37.5.35.8,1.06.83,1.59l-3.87-.22Z"/>
      <path class="cls-1" d="M21.64,42.45l-1.57-1.18c-.93-1.27-1.83-2.29-3.01-3.18l-.58,2.6c-.53.57-.79,1.01-.85,1.77-.25,3.2-.77-.14-1.99,4.65l-2.43-2.3c-.44-.42-.46-1.94-.51-2.44l-1.54-.23.26-2.25-1.88,1.02c-.92-.57-1.68-.59-2.54-.4l-.5-1.24c.14.34-4.14-1.21-4.47,1.06-.16,1.11,1.02,2.99,1.69,3.92l2.5-.48-.76,2,3.28-.82c-.72,2.11-2.68,4.23-1.17,6.22.97,1.28,2.77,2.16,3.28,4.54l4.09-1.47c.36-.13,1.18-.2,1.49-.19l-1.29,3.65,3.08-.78,2.42-1.92.11,3.89c1.56,1.24,4.95,1.06,6.03-.9.53-.96.79-2.2,1.15-3.66l-1.73.21c-.5,1.37-.79,1.73-1.67,2.81l-1.14-3.51c-.15.02-1.1-.12-1.12-.36l-.16-2.42c-.57.1-1.09.28-1.12,0l-.15-1.36c-.15-1.36-.6-3.66.37-4.69l2.44-2.59ZM11.51,51.65l-1.33-3.35c-.08-.19-.82-.48-1.01-.58-.19-.09.29-.62.44-.77,1.17-1.23,1.29,2.21,2.96,2.19l-1.06,2.5Z"/>
      <path class="cls-1" d="M25.33,52.47l.75-3.42,1.09.22c.18.04.1-.67.07-.85l-.18-1.32c-.04-.28.49-.45,1.13-.93l-2.14-.99c-1.06-.49-1.93-1-3.02-1.61l1.2,5.6c.15.72.05,1.79-.15,2.69-.72-1.47-.59-2.79-.56-4.39-.3-.79-.42-.86-.74.39-.1-1.79-.21-3.01-.8-4.8-1.22,1.28-1.94,2.19-2.63,3.32l1.13.02-1.12,3.39,1.74-.34-.24,2.89,1.4-.32.2,3.68,1.6-1.19c-.71-.81,1.14-1.47,1.26-2.04Z"/>
      <path class="cls-1" d="M24.07,54.51s.04.05.06.07h.07c.03-.08.05-.15.08-.23l-.21.16Z"/>
      <path class="cls-1" d="M21.27,23.3c-.53.39-1.2,1.43-1.53,1.88l-1.18-1.48-1.03,3.11-.46-1.02c-.99,1.28-.59,3.37,1.15,4.41.26-.43.45-1.29.43-1.83l-.09-2.32.77,2.87,2.67-3.78c-.62,2.14-1.66,3.71-2.81,5.23l2,.31-1.99.44.71,1.24c.17.3,1.28-.14,1.56-.4l2.51-2.37-1.37-.74,2.53-2.44-1.8-.17c.44-1.76.65-3.16.68-4.91l-2.73,1.99Z"/>
      <path class="cls-1" d="M8.29,31.24l.26,1.46-2.72.66.58,1.15-3.14.91c.38.41.84.76.7.86l-.75.55c-.27.2-.75.89-.73,1.22,1.08.29,2.33.09,3.39-.21l-.19,1.45,1.66-.42c.2-.05.22.55.35,1.04l1.49-1.17c.36-.28.06-1.26.12-1.96.1-1.25,1.77-1.72,3.03-2.64h-3.12c1.56-.5,2.41-.7,3.96-1.56l-4.87-1.35Z"/>
      <path class="cls-1" d="M10.35,36.85l.68-.26c-.06.6-.15,1.79-.33,2.36l-.74,2.21,1.51-.38c-.33,2.27.42,3.81,2.22,5.1l.27-2.89c2.38-1.12-.31-3.93,1.38-3.19l.64.28c0-1.67-.25-3.23-1.26-4.68-1.24,1.93-1.44,3.67-1.59,5.93-.57-2.31.15-4.12,1-6.9-1.63-.01-5.46,3.06-3.77,2.41Z"/>
      <path class="cls-1" d="M28,48.07l-.02,3.46-1.27-1.25c-.34.76-.86,2.09-.58,2.66l1.68,2.75,1.13-3.06c.45.01.97.17.95-.08l-.06-1.22-.07-1.44c-.01-.27.69-.29.87-.35l-.73-2.99c-.62-.69-1.9.67-1.91,1.53Z"/>
      <path class="cls-1" d="M24.11,5.63c-.31,3.26-.86,6.02-3,8.35l.67,2.84,2.24-1.45c-.55-3.88,3.22-4.54.09-9.74Z"/>
    </g>
  </g>
</svg>