<?xml version="1.0" encoding="UTF-8"?>
<svg id="Warstwa_2" data-name="Warstwa 2" xmlns="http://www.w3.org/2000/svg" viewBox="0 0 41.26 51.6">
  <defs>
    <style>
      .cls-1 {
        fill: #fff;
      }
    </style>
  </defs>
  <g id="icon-v9-equipment-pixarts-store">
    <g id="icon-v9-equipment-pixarts-store_198">
      <path class="cls-1" d="M26.04,18.91c-.3,1.16-1.14,1.4-2.39,1.58-.58.08-.28,1.47.24,1.8l3.42,2.14c.27.17.88.52,1.03.3.85-1.29-.82-2.11-.22-2.66l1.14-1.04c1.26,2.98,4.23,3.95,6.88,2.46.99-.56,2.17-1.13,3.14-1.59-.72-3.5.71-5.06-2.94-7.46l.88-2.2c-3.75.6.05.71-4.95,1.68-.45.09-.6,1.41-.26,1.71.81.71,4.06-.68,4.76,2.23.36,1.5-.01,2.88-1.19,3.69-.92.63-2.39.87-3.48.15-.68-.45-1.11-1.59-.82-1.95.93.3,1.72.5,2.04.17.29-.31.45-1.37.25-1.72-1.32-2.23-3.83.55-4.68-.38-.78-.86.48-3.37-1.62-4.11-.76-.27-1.82.39-1.83,1.12,0,.48.59,1.05,1.23,1.69-.8.54-2.05.24-2.66-.42-.62-.67-.99-1.73-.89-2.64.18-1.61,1.38-2.75,2.78-2.91,3.73-.43,2.91,3.71,4.05,3.58,3.43-.39-.54-2.8,1.92-4.79,2.11-1.71,3.41,1.59,4.81.06-.53-1.49-2.16-2.37-3.65-2.24-1.43.13-2.78,1.05-3.56,2.56-2.05-2.04-4.69-1.57-6.91-.02-.93.65-1.34.88-1.43,2.24-.11,1.7-.31,3.45.8,4.91.89,1.17,2.39,1.81,4.13,2.07ZM28.16,19.81l-.76,2.17c-.15.03-1.07-.52-1.13-.83-.14-.66,1.47-1.77,1.89-1.33Z"/>
      <path class="cls-1" d="M4.24,43.64c.41-.34,1.86.89,1.61,1.35-.28.5-.54,1.15-.52,1.5.02.29,1.06.62,1.24.39l4.91-7.16c-.04-.4-1.01-1.25-1.26-.95l-1.12,1.33-1.78-1.16,1-1.7-3.01-2.05-1.78,2.65,1.85.91.23,2.35c-.95-.07-1.49.12-2.19.69l-1.64-1.41-1.77,2.64,2.66,1.94,1.58-1.3Z"/>
      <path class="cls-1" d="M13.81,38.25l2.55,1.53c.37.22,1.28.14,1.52-.19.19-.27.3-1.23.05-1.43l-1.77-1.43,1.05.1c.22.02.34-.74.47-.92l5.33-8.1,1.52.85c.29.16,1.08-.95.75-1.25-.95-.86-2.67-2.01-4.27-2.78l-.43,2.13c-1.73,2.8-4.05,6.16-5.9,8.54-.35.45-1.64.67-1.61,1.14.05.65.31,1.54.76,1.8Z"/>
      <path class="cls-1" d="M6.57,51.29c.45.31,1.82.52,2.15,0,2.43-3.75,5.21-6.96,6.94-11.09-1.63.65-7.81,13.37-8.77,9.94.25-.12,1.13-.25,1.31-.53l6.5-9.61c-.42-.7-1.05-1.18-1.78-1.44l-7.25,10.73c-.33.49.43,1.68.89,1.99Z"/>
      <path class="cls-1" d="M30.78,7.21c.78-1.1-.25-3.65,2.39-5.17,1.3-.75,2.91-1.04,4.36-.28,2.3,1.22,2.93,4.07,1.84,6.17-1.11,2.13-3.76,2.96-6.01,1.99-.25-.11-1.11.01-1.05.27.05.21.35.87.6,1.02,2.16,1.28,5.64.36,7.19-1.84,1.54-2.19,1.61-5.14-.18-7.34-1.82-2.23-4.55-2.48-7.03-1.49-4.02,1.6-3.46,8.55-2.12,6.66Z"/>
      <path class="cls-1" d="M26.17,24.56c-1.89-1.38-2.49-2.25-4.05-1.65-1.66.64,2.37,3.08,4.11,3.64.28.09.97-1.1.78-1.28-.19-.17-.48-.44-.84-.71Z"/>
      <path class="cls-1" d="M23.52,28.77c-2.54,2.64-4.5,5.55-5.74,8.6,2.39-2.78,4.33-5.53,5.74-8.6Z"/>
    </g>
  </g>
</svg>