<?xml version="1.0" encoding="UTF-8"?>
<svg id="Warstwa_2" data-name="Warstwa 2" xmlns="http://www.w3.org/2000/svg" viewBox="0 0 44.72 56.83">
  <defs>
    <style>
      .cls-1 {
        fill: #fff;
      }
    </style>
  </defs>
  <g id="icon-v9-equipment-pixarts-store">
    <g id="icon-v9-equipment-pixarts-store_238">
      <path class="cls-1" d="M35.4,5.96c1.63-2.08,3.02-3.98,4.23-5.96h-2l-2.38,3.35c-.56.79-.82,2,.15,2.62Z"/>
      <path class="cls-1" d="M9.15,3.55L6.69,0h-2l4.04,5.81c.86-.32.9-1.56.42-2.26Z"/>
      <path class="cls-1" d="M39.98,2.27c1.43.31,1.95-1.32,2.31-2.27h-2c-.41.56-.82,1.88-.31,2.27Z"/>
      <path class="cls-1" d="M4.42,2.15c.2-.17.35-.78.22-1.02l-.61-1.14h-2c.16.72,1.38,3.01,2.38,2.15Z"/>
      <path class="cls-1" d="M23.37,20.15c.61-2.5,1.06-4.8,1.18-7.18-1.81-.54-2.98-.54-4.75,0,.17,2.53.6,4.92,1.18,7.19,1.03-.32,1.43-.31,2.39-.01Z"/>
      <path class="cls-1" d="M10.57,11.26c.2.21,1.34.11,1.4-.17.06-.28,0-1.01-.19-1.22l-4.53-4.78c-.2-.21-.88-.3-1.14-.18-.26.12-.4,1.08-.19,1.3l4.65,5.04Z"/>
      <path class="cls-1" d="M32.59,11.24c.23.14,1.14.11,1.35-.13l4.51-4.94c.24-.27-.05-1.37-.4-1.37-.29,0-.99.18-1.22.44l-4.26,4.71c-.24.27-.26,1.12.02,1.3Z"/>
      <path class="cls-1" d="M15.89,15.91c-3.4-1.77-4.2-3.03-7.07-5.45-1.7,1.63,2.86,4.71,4.28,5.75.84.61,2.09.47,2.79-.3Z"/>
      <path class="cls-1" d="M6.55,7.98C4.65,5.54,3.21,3.48,1.62.97c-2.4.79,1.53,5.36,2.52,6.63.54.7,1.86.86,2.42.38Z"/>
      <path class="cls-1" d="M35.42,10.59c-2.24,2.14-4.27,3.8-6.85,5.4,1.47,2.52,9.02-3.99,6.85-5.4Z"/>
      <path class="cls-1" d="M42.75.9c-1.63,2.67-3.06,4.72-4.95,7.18,1.3,2.16,7.66-6.29,4.95-7.18Z"/>
      <path class="cls-1" d="M33.39,8.32c-.98-.48-2.05-.32-2.81.27l-3,2.34c-.64.5-.95,1.58-.3,2.34,2.29-1.66,4.07-3.04,6.11-4.95Z"/>
      <path class="cls-1" d="M17.32,13.25c1.78-1.46-5.36-6.58-6.31-5.1,1.7,2,3.94,3.69,6.31,5.1Z"/>
      <path class="cls-1" d="M29.55,14.68c.27-.13.55-.94.4-1.14-.81-1.12-3.33.46-4.31,1.14-.36.25-.39,1.43-.21,1.98l4.12-1.98Z"/>
      <path class="cls-1" d="M14.22,13.8c.1.24.47.84.75.96l3.99,1.78c1.03-2.19-2.24-3.09-3.64-3.51-.31-.09-1.22.48-1.1.77Z"/>
      <path class="cls-1" d="M22.85,27.96c0,.3-.43.89-.68.94-.26.06-.58-.56-.59-.85l-.09-6.38-3.72,3.87-4.29,4.22,3.15,2.46c.16.12.29.61.26.78-.03.17-.67.23-.83.14l-2.81-1.73,1.46,17.17,3.75-3.49c1.1,1.5,2.4,3.02,3.79,4.3,1.29-1.41,2.42-2.58,3.6-4.24l3.51,3.21c.6-1.65.02-2.12-.6-3.83-.13-.35,1.01.82,1.1.21.52-3.69,1.01-9.31,1.26-13.38l-3.56,2.38-.38-.63c-.1-.16.35-.66.51-.78l3.2-2.51c-2.71-2.9-4.96-5.33-7.91-8.12l-.13,6.27Z"/>
      <path class="cls-1" d="M18.29,47.09l-3.1,2.87,6.33,6.87c.05-2.09.05-4.22-.02-6.34l-3.21-3.4Z"/>
      <path class="cls-1" d="M22.9,56.72l6.25-6.81-3.07-2.72c-3.96,3.92-3.45,3.25-3.18,9.53Z"/>
      <path class="cls-1" d="M11.17,39.25c-5.61-2.67-4.96-1.79-11.17-.05,2.11.76,4.29,1.54,6.58,1.8,1.5-.38,3.2-1.14,4.59-1.75Z"/>
      <path class="cls-1" d="M33.14,39.26l4.99,1.87,6.6-1.97c-2.37-.64-4.53-1.29-6.87-1.68-1.47.25-3.15,1.06-4.71,1.78Z"/>
      <path class="cls-1" d="M4.82,26.59c2.03,2.88,2.49,4.12,6.01,4.37-1.54-3.22-2.83-3.35-6.01-4.37Z"/>
      <path class="cls-1" d="M33.49,31.11c3.56-.5,4.12-1.75,6.01-4.44-3.76,1.03-4.47,1.28-6.01,4.44Z"/>
      <path class="cls-1" d="M6.55,51.48c3.75-1.32,4.31-1.08,5.61-4.5-3.53.64-3.98,1.97-5.61,4.5Z"/>
      <path class="cls-1" d="M37.85,51.34c-1.7-2.89-2.57-3.9-5.64-4.43,1.33,3.39,2.34,3.36,5.64,4.43Z"/>
      <path class="cls-1" d="M33.81,34.98c1.7.57,3.95.12,4.8-1.64-1.71-.85-3.58.12-4.8,1.64Z"/>
      <path class="cls-1" d="M10.68,35.01c-1.28-1.31-2.9-2.51-5-1.67,1.1,1.71,2.87,2.35,5,1.67Z"/>
      <path class="cls-1" d="M33.46,43.36c1.13,1.45,2.79,2.49,4.98,1.78-1.11-1.69-2.8-2.27-4.98-1.78Z"/>
      <path class="cls-1" d="M6.09,45.16c1.96.65,3.59-.13,4.86-1.8-1.86-.55-3.86,0-4.86,1.8Z"/>
    </g>
  </g>
</svg>