<?xml version="1.0" encoding="UTF-8"?>
<svg id="Warstwa_2" data-name="Warstwa 2" xmlns="http://www.w3.org/2000/svg" viewBox="0 0 57.47 51.02">
  <defs>
    <style>
      .cls-1 {
        fill: #fff;
      }
    </style>
  </defs>
  <g id="icon-v9-equipment-pixarts-store">
    <g id="icon-v9-equipment-pixarts-store_297">
      <path class="cls-1" d="M6.61,20.43c.41,2.33,1.48,3.34,3.62,3.17l.78-3.12c.13-.54,1.14-1.26,1.65-1.41.51-.14,1.78.27,1.97.83l1.42,4.21c2.83-.45,4.65-.35,5.56-2.41.32-.73.26.77.87.46,4.05-2.03,3.93-5.87,3.86-9.54-1.13,2.01-4.92,4.68-6.55,4.95-3.9.67-7.61,1.07-11.51-.28l-.21,1.97c-1.14-4-2.65-2.25-5.8-6.34-.13,5-.02,7.09,4.2,9.53l.12-2.04Z"/>
      <path class="cls-1" d="M2.3,9.12c-.16,1.74.54,3.46,1.72,4.73,4.27,4.6,14.27,4.78,19.34,1.03,1.78-1.31,2.88-3.14,2.91-5.1.07-4.41-4.29-6.45-8.17-7.47-.25-.27-.1-1.35-.02-1.92.05-.4-1.52-.34-1.65.03-.25.67-.59,2.02-.7,2.67,3.77.72,8.48,2.14,8.55,6.37.09,5.68-10.23,8.37-17.2,4.69-1.8-.95-2.79-2.66-2.88-4.35-.22-4.59,5.79-6.57,9.98-6.56l.92-2.93c-.45-.18-1.68-.39-1.89-.03-.21.36-.53,1.12-.79,1.7-3.75.74-9.69,2.62-10.12,7.16Z"/>
      <path class="cls-1" d="M6.14,7.02l-.09,4.67c2.49-1.98,5-2.4,8.29-2.67.07-1.75,0-3.55-.25-5.16-2.87.17-5.38.79-7.44,2.28.32,1.6.44,2.81-.06,3.94l-.45-3.05Z"/>
      <path class="cls-1" d="M21.82,6.03c-1.87-1.25-3.78-1.95-6.06-2l.2,5.05c2.54.56,4.51,1.44,6.69,2.4,1.42-1.84.53-4.11-.83-5.45Z"/>
      <path class="cls-1" d="M16.83,41.34c.02.31.39,1,.66,1.19l5.72,3.85c1.05.7,4.21-.24-5.15-5.41-.3-.16-1.25.06-1.23.37Z"/>
      <path class="cls-1" d="M12.89,19.81c-2.17,1.33-2.32,6.94-.05,7.86,2.01.81-1.05-3.56,1-6.88.18-.28-.68-1.15-.95-.98Z"/>
      <path class="cls-1" d="M12.47,36.6c-.59.52-.83,2.24-.26,3.04l2.82,3.95c.73,1.02,2.43,1.23,2.96.34-2.22-1.33-4.69-4.92-5.52-7.33Z"/>
      <path class="cls-1" d="M12.45,30.69c-.13.18-.28,1.06-.22,1.29l1.52,5.65c.09.32.92.74,1.2.76.23.01.62-.69.55-.96l-1.91-6.81c-.48-.07-.97-.16-1.14.08Z"/>
      <path class="cls-1" d="M27.7,48.66c-1.92-1.06-2.63-.01-6.29-2.31-1.05,2.48,3.93,3.63,5.53,3.59.25,0,.97-1.17.76-1.28Z"/>
      <path class="cls-1" d="M14.26,24.58l.46,3.92.29,4.55c2.23.17,1.45-9.34-.75-8.47Z"/>
      <path class="cls-1" d="M11.46,33.43l-.24-4.6c-.06-1.17-.46-2.52-.99-3.76-1.07,1.19-1.04,8.52,1.23,8.36Z"/>
      <path class="cls-1" d="M15.61,35.48l2.41,3.96c.52.86,1.3,1.57,2.36,1.72-.05-1.07-3.54-7.78-4.77-5.68Z"/>
      <path class="cls-1" d="M23,43.2c-.09.64,6.46,2.98,6.32,1.21-1.79-1.29-4.06-2.18-6.32-1.21Z"/>
      <path class="cls-1" d="M30.68,43.07c-.11.53,1.15,1.19,1.77,1.02.53-.15,1.18-.54,1.83-1.01-1.4-.78-2.75-1.2-3.59-.01Z"/>
      <path class="cls-1" d="M55.15,9.61c-.09-4.99-6.57-6.81-10.24-7.68l-.82-1.78c-.15-.33-1.26-.02-1.84.09l.83,2.92c4.05.09,10.46,2.07,10.16,6.65-.09,1.46-1.07,3.17-2.63,4.1-6.94,4.15-17.41,1.07-17.61-4.11-.17-4.51,4.63-5.9,8.6-6.73-.07-.74-.47-2.24-.92-2.85-.21-.28-1.56-.08-1.52.06l.08,2.06c-2.18.62-4.01,1.31-5.74,2.55-2.93,2.11-3.35,6.14-.78,8.78,1.32,1.36,3.14,2.34,4.9,3.28.17.65.2,1.08-.26.36-2.69-.97-4.46-2.24-6.33-4.46-.27,3.53.07,6.12,2.79,8.54,2.09,1.85,4.88,2.58,7.46,2.71,1.91-3.32.52-4.26,1.92-4.87.56-.24,1.96-.2,2.38.36.95,1.23,1.1,2.44,1.42,4.13,2.05-.62,4.4-.63,4.71-3.37l.55,1.23c2.78-2.07,2.99-5.44,2.74-8.52-2.82,3.56-3.77,2.12-4.77,5.48l-.42-1.48c-3.63.97-7.45,1.9-10.96.47,4.89-.27,9.02.34,12.77-2.26,1.91-1.33,3.54-3.23,3.5-5.67Z"/>
      <path class="cls-1" d="M51.62,6.8c-2.53-2.08-5.25-2.94-8.42-2.77l-.26,4.91c3.3.31,5.51,1.09,8.21,2.53l.47-4.67Z"/>
      <path class="cls-1" d="M38,5.06c-1.45.19-2.9,1.06-3.5,2.18-.83,1.54-.76,3.15.34,4.54,1.94-1.57,4.01-2.3,6.62-2.72l.21-5.03c-1.66-.07-2.69.91-3.67,1.04Z"/>
      <path class="cls-1" d="M33.05,46.49c.26,0,.95-.1,1.24-.3l5.86-3.95c1.73-4.42-6.79,2.59-7.19,2.93-.22.19-.18,1.31.09,1.31Z"/>
      <path class="cls-1" d="M45.4,39.39c.59-.88.09-2.59-.54-2.97-.43,1.98-3.67,7.07-5.93,7.42,2.02,2.74,5.2-2.56,6.47-4.45Z"/>
      <path class="cls-1" d="M44,19.83c-1.63-.27,1.26,2.79-.17,7.07-.07.22.69.82.88.69,2.04-1.46,1.76-7.35-.7-7.76Z"/>
      <path class="cls-1" d="M42.43,38.42c.22.15,1-.45,1.08-.74l1.77-6.2c.11-.38-.63-1.39-.94-1.19-.25.16-.61.65-.71,1l-1.62,5.87c-.1.37.14,1.08.41,1.27Z"/>
      <path class="cls-1" d="M41.21,32c.06.24.77.77.97.91.81.54-.09-5.94,1.1-8.11-2.9-.77-2.41,5.8-2.07,7.2Z"/>
      <path class="cls-1" d="M46.09,29.61l-.27,3.82c2.52-.06,2.2-6.95,1.32-8.08-.74,1.28-.94,2.74-1.05,4.26Z"/>
      <path class="cls-1" d="M35.97,46.19c-2.85,2.11-6.77,1.69-5.6,4.83l2.24-1.66c-.19,1.55,4.64-2.03,3.36-3.17Z"/>
      <path class="cls-1" d="M37.23,41.16c2.45-1.54,3.64-3.56,4.55-6.08-1.59-.87-4.98,4.98-4.55,6.08Z"/>
      <path class="cls-1" d="M57.47,12.36c0-.41-.46-.87-1.25-1.39-.06,1.2-.06,1.71.07,3.06.86-.56,1.17-1.02,1.18-1.67Z"/>
      <path class="cls-1" d="M0,12.47c-.1.5.7,1.37,1.24,1.27.1-.86.03-1.72-.17-2.51-.54.35-.99.83-1.07,1.23Z"/>
    </g>
  </g>
</svg>