<?xml version="1.0" encoding="UTF-8"?>
<svg id="Warstwa_2" data-name="Warstwa 2" xmlns="http://www.w3.org/2000/svg" viewBox="0 0 44.12 54.32">
  <defs>
    <style>
      .cls-1 {
        fill: #fff;
      }
    </style>
  </defs>
  <g id="icon-v9-equipment-pixarts-store">
    <g id="icon-v9-equipment-pixarts-store_180">
      <path class="cls-1" d="M11.41,36.05c3.93.09,8.34-2.47,9.66-6.19.26-.72.28-1.3.67-1.95,2.7-4.61-2.26-12.1-2.95-10.02.78-2.36-4.55-4.13-6.16-4.09l.06,2.95c0,.51-1.27,1.07-1.72.87-.4-.18-1.21-.87-1.2-1.31l.03-2.36c-2.76.32-5.44,1.46-7.14,3.78C1.4,19.39.21,21.47.03,23.68c-.49,6.16,4.31,12.2,11.37,12.37ZM18.98,29.58c2.21-3.13-.11-3.97.04-4.55.06-.24.49-.9.74-.86.3.04.61.18,1.34.44l-.98.86c1.94,3.67-3.4,8.56-7.59,8.87-.24.02-.75-.86-.62-.9.13-.03.49-.27.56-.16l.46.71c2.27-.96,4.55-2.3,6.04-4.41ZM9.96,19.41l1.73-.51c2.43.65,3.33-.92,4.09-.29,1.1.93-.68,1.86-.26,4.92.74,5.35-1.05,2.18,1.28,7.35-1.35.15-3.54.21-4.81.14-.23-.01-.73-.77-.96-.73-5.3.89.54-.33-4.42.33-.58.07-.58-1.63-.16-2.04,1.18-1.14.36-2.36.52-3.61l.62-4.84c.1-.76,1.66-.91,2.36-.73ZM4.42,18.08c1.28-1.36,2.99-2.36,4.69-2.26-.99.66-1.67,1.17-2.22,1.78l-.41-.33c-.09-.07-2.07.92-1.57,2.97l-1.95-1.61,1.47-.56ZM2.92,21.29c-.16,1.77-.13,2.74.41,4.18-1.89-.76-1.21-2.93-.41-4.18ZM3.88,30.18l.61-.5c.09-.07.2-.07.22.04.43,2.43,2.64,3.48,5.21,4.05l.97-.68c.15-.11.39.28.47.44.76,1.55-4.65.78-6.92-1.99-1.4-1.71-2.6-3.77-2.56-6.1l2,4.73Z"/>
      <path class="cls-1" d="M22.45,31.64c-1.47,1.87-2.9,3.25-4.88,4.57l.28,1.76c-1.01,1.82-2.46-.26-3.42-.29l-6.26-.2,1.99,2.27c-2.34.36-2.21-3.22-4.93-3.47,1.27,4.37,5.46,6.84,9.75,6.53l.63-.63c.13-.13.86.53,1.1.48,5.53-1.19,9.82-7.98,7.06-13.8-1.49,2.16.19,4.92-1.85,8.12l-.78-1.22c1.3-1.02,1.74-2.66,1.33-4.13ZM21.43,38.13c-1.48,1.46-3.13,3.08-5.5,2.94l4.13-2.31.21-.95c.05-.2,1.02.18,1.16.31Z"/>
      <path class="cls-1" d="M10.48,52.05c-.06.08-.19.19-.52.52l.09-1.44,1.63.99c1.6-.36,3.7-1.13,4.87-2.86-5.32,1.46-10.33.06-13.82-4.39l.77,3.73c-2.19-1.92-1.06-5.54-2.79-7.67-1.21,2.59-.54,5.48.82,8,1.3,2.41,4.84,4.84,7.55,5.22,5.93.85,5.63-1.91,6.05-1.73l.73.31c1.77-.96,3.71-3.1,4.13-5.21-3.37,1.63-4.16,5.16-8.88,5.18-.14-.16-.55-.77-.64-.66ZM8.48,52.74c-.05.2-.04.14,0,0l-1.35-.53c-1.04-.79-1.97-1.4-3.01-1.93l.49-.45c.14-.13.57.26.77.39l3.23,1.99c-.04.14-.1.39-.14.54h0Z"/>
      <path class="cls-1" d="M17.8,44.09c-5.49,1.44-10.09-.45-13.16-4.93l.02,2.69c-.92-1.98-.57-4.66-1.97-6.82-1.47,4.02.18,7.92,2.88,10.44,2.98,2.78,6.9,3.45,10.69,2.07,2.55-.93,4.73-2.58,5.59-5.46-2.78,1.42-4.85,4.44-7.88,4.68,1.46-1.29,2.9-1.45,3.84-2.66ZM11.88,46.66c-1.95.15-5.66-1.19-6.26-3.78,1.21,1.52,3.92,3.1,5.61,3.41.15.03.71-.42.82-.43l.33-.04c.11-.01-.39.83-.5.84Z"/>
      <path class="cls-1" d="M10.62,6.22c.33,3.76-1.24,4.31-.76,5.54l.97-1.49c.18-.28,1.17,0,1.26.32l.42,1.51c.22-.15.64-1.04.49-1.39-.15-.35-.72-.78-1.24-1.17,1.38-4.32-1.83-3.61-2.29-5.78-.14-.65.22-1.88.68-2.27,2.64-2.27,3.6,3.87,6.69,2.75-3.25-1.04-3.36-5.66-6.83-3.79-.9.49-1.63,1.72-1.59,2.99.03,1.08.91,2.02,2.17,2.78Z"/>
      <path class="cls-1" d="M10.89,11.53c-.12,1.6-.98,3.34.53,4.96.5-.49,1.15-6.24-.53-4.96Z"/>
      <path class="cls-1" d="M7.74,24.72c.38.65.69,1.85.34,2.53l-1.16,2.31c.88-.4,1.74-.28,2.41.09,2.29-1.21,1.73,1.18,5.73.09-.63-1.11-.77-1.49-.92-2.48-.12-.81-1.86-1.64-2.33-2.36-.22-.34.28-1.47.46-1.48.75,1.23,1.18,2.02,2.58,2.38-.71-2.49-.95-4.14.34-6.32-1.13-.11-1.67.72-2.01,1.35-.45-.44-1.02-1-1.39-1.15-.31-.12-.89.77-1.02,1l-2.4-.43c.93,1.29,1.41,1.85,1.68,2.65l-1.79-1.28-.53,3.09Z"/>
      <path class="cls-1" d="M41.62,33.07c-.03-.13-.09-.35-.07-.36.02-.01.48-.26.66-.36-.87-3.2-5.44-5.53-8.65-5.9-.07.62-.04,1.46.24,1.66,1.35.34,3.23,1.06,4.21,1.74l-1.12,1.37c-.12-1.16-.68-1.9-1.7-2.09l-1.17-.21c-.19-.03-.59,1.97-2.19,1.86-.5-.04-1.07-1.04-1.48-1.52-.81-.95-2.7.62-2.68,1.52l-1.55-.11c.54,6.3-1.57,6.08-2.48,11.92,1.08,2.09,2.78,3.44,4.47,4.83,1,.29,2.26.59,2.95.59l.84-.96c.15-.17.53.45.61.66.7,1.79-3.94.58-4.34.46l-.26,1.08c-.19.78,7.87,3.14,12.69-2.55.26-.31.25-1.44.52-1.46l1.05-.1c2.02-3.61,2.98-8.95.37-12.07-.09-.11-.89.15-.92.01ZM29.72,44.82c-2.19-1.62-4.6-.25-3.58-2.5,1.96-4.31-.33-5.99,1.08-7.99.12-.17.09-.77.3-.76l1.39.07c-.06-1.12,1.19-1.44,2.23-1.53.67-.06,1.44.44,1.9,1.12.09-.32.46-.97.76-1.15s.94.19,1.48.45l1.65-.54c2.87,1.66-1.04,5.26.81,9.93.22.55.7,1.07.7,1.44,0,.48-.89,1.11-1.34,1.14-5.2.34-5.04,2.04-7.37.32ZM40.79,44.37c-1.91,2.4-4.48,3.82-7.36,4.04-.13-.21-.3-.49-.26-.6l.3-.71c-.47,1.11,3.14,1.37,6.57-3.63.51-.75,1.31-1.58,1.32-2.54v-.9c.01-.21.62-.15.87-.1-.32,1.41-.59,3.37-1.44,4.44ZM40.49,37.8l1.46-.21-.84-2.48c-1.07-3.15-3.35-3.19-2.19-4.9,2.41,3.43,2.79,3.82,3.54,8.02-.53.18-1.36,0-1.97-.43Z"/>
      <path class="cls-1" d="M23.23,43.47c-2.22,1.68,2.23,4.76,3.35,5.42.24-.51.38-1.08.56-1.02l1.03.31-.06-.76c-2.18.57-3.86-2.81-4.87-3.94Z"/>
      <path class="cls-1" d="M26.96,42.72c3.66-.03,3.11,2.8,4.86,1.62-.3-.58-1.18-.97-1.88-1.26.71-.92,1.43.31,2.17.37,1.64.14,3.52-.07,5.13-.28l-3.13-3.75c-.59-.71-2.7.06-3-1.67l1.73.46.74.2c.22.06.11-.84-.07-.97-.54-.37-1.48-1.19-1.85-1.94,1.36.06,2.5.4,3.27.88-.32.57-.66,1.43-.47,1.76.23.39.85,1.01,1.17,1.29l1.55-6.16c-.43-.04-.92.32-1.29.74-.08,0-.52-.34-.71-.25l-1.09.51-1.04-1.02c-.25.56-1.08,1.02-1.51,1.01s-1-.72-1.31-1.1l-1.3.5,1.42,1.04-.62,1.69c-.12-.34-.19-1.31-.54-1.49-.43-.22-1.3-.42-1.95-.55-.44,3.94,2.01,2.97-.26,8.39ZM33.01,40.72c.94.34,1.73.85,2.4,1.74-2.18-.22-4.33-1-5.62-2.9l3.22,1.16Z"/>
      <path class="cls-1" d="M30.34,7.03c2.26,1.52-.17,2.53,1.09,4.79-.8.74-1.72,1.87-1.4,2.86.35,1.09,1.4,1.81,2.44,1.71,1.06-.1,1.97-.99,2-2.2.02-.86-.59-2.17-1.67-2.11l.52,1.98c.09.34-.51,1.17-.87,1.2-.36.03-1-.32-1.25-.68-.21-.29.05-.92.36-1.41,1.81-2.88,2.44-.97,1.09-5.9-1.33-.75-2.46-1.6-2.64-2.99-.16-1.22.62-2.55,1.59-2.87,3.28-1.08,3.22,4.7,7.34,3.86-3.63-1.77-2.9-3.58-5.1-4.77-1.88-1.02-3.91.04-4.78,1.71-.82,1.57-.43,3.67,1.27,4.81Z"/>
      <path class="cls-1" d="M33.05,16.71l-.25,3.9c-.05.77.44,4.05.66,3.89,1.57-1.1.71-2.7-.04-3.67.35-.67.87-1.63.96-2.2.12-.79-.56-1.75-1.33-1.93Z"/>
      <path class="cls-1" d="M31.23,24.46l.2,3.83c.01.26.53.95.7.79.12-.11.53-.55.53-.72l-.05-4.42c0-.29-.99.08-1.34.34-.99-1.61,2.1-3.14.11-5.27-.31-.34.03-1.42.17-1.98-.62-.07-1.42.44-1.48,1.03-.04.4.06,1.27.27,1.6l.66,1.07c.14.23-.32.74-.53,1.04-.59.89-.71,2.57.76,2.69Z"/>
      <path class="cls-1" d="M26.37,29.65l3.32-1.48c.31-.14.69-.4.87-.59.18-.18-.21-.98-.42-1.04-1.33.3-3.23.94-4.52,1.81-.4.27.3,1.51.75,1.31Z"/>
    </g>
  </g>
</svg>