<?xml version="1.0" encoding="UTF-8"?>
<svg id="Warstwa_2" data-name="Warstwa 2" xmlns="http://www.w3.org/2000/svg" viewBox="0 0 29.56 52.01">
  <defs>
    <style>
      .cls-1 {
        fill: #fff;
      }
    </style>
  </defs>
  <g id="icon-v9-equipment-pixarts-store">
    <g id="icon-v9-equipment-pixarts-store_179">
      <path class="cls-1" d="M23.69,21.33c-1.45,2.82-2.95,2.66-5.61,2.22.26-.51.69-1.25,1.05-1.33.31-.07.99.5,1.3.65.05-1.2.14-2.02.41-3.25-.95.46-1.71.62-3.04.62l.56,1.07c.14.36-.75.94-1.4,1.2-.23-3-.55-4.1,2.06-5.57-1.49-1.34-3.22-3.07-3.23-4.97.38-.43,1.13-1.42.89-1.79l-1.02-1.59c-.34-.7-.01-2.55-.8-3.01-1.56-.91-2.38-2.58-1.42-4.06.3-.46,1.44-.78,1.88-.59,1.91.82,1.65,3.6,4.34,3.16-2.71-.78-2.57-5.18-5.89-3.86-1.04.41-1.73,1.63-1.74,2.69,0,1.13.71,2.01,1.73,2.84l.77,3.37c.03.14.03.67.04.8.01.13.29.17.38.08l.64-.68c.23.26.22,1.23-.02,1.67-.2.36-1.54.3-1.58-.12l-.17-2.02c-.39.2-1.01,1.09-.93,1.57.07.44.64,1.14,1.03,1.63-.28,1.78-1.67,3.59-3.33,4.74,2.7,1.65,2.31,2.91,2.04,5.87l-1.59-1.28.72-1.03-3.07-.71c.57,1.06.69,1.89.46,3.12.35-.11,1.25-.78,1.51-.51.23.24.59.71.98,1.27-3.11.34-4.28.45-5.76-2.31l-1.82,2.02c-1.51.82-2.63,1.45-4.03,2.41l4.21,2.37,1.57,2.01c1.45-2.87,2.68-2.54,5.85-2.37-.44.69-1.02,1.47-1.25,1.62-.63-.46-1.11-.82-1.07-.79-.07,1.39-.21,2.1-.56,3.26,1.28-.88,3.93-.35,3.06-1.08l-.76-.64c.09-.51.95-1.15,1.72-1.06.11,4.25.12,8.27,0,12.45-.04,1.45-1.11,2.39-2.33,3.05.39.67,1.43,1.65,1.75,2.29l2.6,5.22,2.65-5.37,1.73-2.13c-1.36-.58-2.31-1.55-2.36-3.07-.13-4.17-.12-8.19-.01-12.42.59.04,1.68.59,1.55.92l-.48,1.21c1.19,0,2.03.21,3.02.6-.99-1.63-.13-4.18-.96-3.17l-.7.85-1.32-1.68c3.29-.35,4.57-.52,5.85,2.22.62-.67,1.37-1.81,2-2.17l3.8-2.2-4.12-2.46c-.54-.32-1.31-1.49-1.75-1.81ZM23.93,27.38c-.88-.66-1.75-1.11-2.66-1.11l-4.08-.03c-.8,0-1.76.72-1.76,1.64v13.16c.02,1.34.83,2.91,1.4,3.95l-2.01,3.89-1.98-3.83c.42-1.03,1.32-2.61,1.32-3.9v-12.82c0-.53-.65-1.92-1.17-1.97-1.77-.16-6.14-.55-7.4,1.07l-2.89-1.84,2.84-1.77c2.02,1.75,5.05,1.19,7.97,1.06,1.05-1.92.89-6.62-.46-8.29l1.75-2.64,1.76,2.64c-1.43,1.7-1.59,6.44-.48,8.34l5.77.08c.58,0,1.55-.78,2.1-1.24l2.86,1.81-2.87,1.79Z"/>
      <path class="cls-1" d="M14.03,44.93c-.13.33.73,1.13,1.04,1.06.79-.68.32-2.19-.34-2.8l-.7,1.74Z"/>
    </g>
  </g>
</svg>