<?xml version="1.0" encoding="UTF-8"?>
<svg id="Warstwa_2" data-name="Warstwa 2" xmlns="http://www.w3.org/2000/svg" viewBox="0 0 57.31 60.36">
  <defs>
    <style>
      .cls-1 {
        fill: #fff;
      }
    </style>
  </defs>
  <g id="icon-v9-equipment-pixarts-store">
    <g id="icon-v9-equipment-pixarts-store_46">
      <path class="cls-1" d="M45.31,25.82c.05-1.32.6-3.25.11-4.53-.52-1.34-2.79-1.21-3.88-1.72-.4-1.32,0-3.94-.93-4.85-1.44-1.4-3.55-.85-5.33-.76-.42-1.08-.76-2.97-1.52-3.65-.78-.7-3.48-.62-4.2.13l-4.5,4.63c-1.85,1.9-3.11,3.89-4.27,6.31l6.7,1.22c1.2.22,2.66.94,3.79,1.47-5.38-.32-8.8,2.01-13.17,1.98,3.02-1.45,5.84-1.62,8.63-2.47-4.88-.43-6.51-1.69-11.03-1.82-.87.83-2.25,2.64-2.54,3.81.63,1.91,1.49,3.41,2.51,5.42l3.35-3.52,11.63-2.78c.35-.08.97-.61,1.3-.54.26.06.85.49,1.07.78,5.45,7.36,3.14,15.14,6.04,13.06l7.11-5.1c2.57-1.84,2.01-5.22,1.48-5.74-.45-.45-1.56-.93-2.33-1.33ZM31.63,17.26c-.89.52-2.35,1.23-3.2.74-.33-1.38-.45-3.15-.05-4.4.59-1.81,3.34-2.67,4.65-2.11,1.19,2.25.57,4.61-1.41,5.77ZM33.99,21.93c-.94-1.18-.11-4.9,1.45-5.95,1.13-.76,2.78-1.19,3.95-.44.34,1.01.48,3.11.35,4.23-1.24,1.74-3.72,2.63-5.75,2.16ZM37.72,26.67c-.04-2.32,1.32-4.67,3.48-5.36.82-.26,2.85,0,3.09.96.33,1.33-.51,3.47-1.64,4.27-1.43,1.01-3.52.83-4.92.13ZM45.38,32.01c-1.09.86-3.48,1.34-4.52-.06-.82-1.11.67-3.01,1.55-3.75,1.02-.86,3.28-1.22,4.26.13.92,1.26-.46,3.02-1.29,3.68Z"/>
      <path class="cls-1" d="M21.48,49.77c-.68.67-2.66,1.15-3.71,1.4l-9.96,2.45c.33-.74.35-1.49.35-2.46.03-3.97.23-7.83.73-11.85l5.7-7.16-2.19-4.16c-1.98,1.67-3.75,2.83-5.05,4.63-2.35,3.24,2.65,9.81-.17,13.58l-3.12,4.15-1.67,2.7c-.52,1.16.03,5.82.27,6.68.03.12.35-.2.45-.29l.41-.37-.46,1.3c1.87-.59,4.96-.02,6.45-1.46l5.88-5.69c2.55-2.47,3.91-.87,7.34-2.59l-.37,1c1.9.01,4-.04,5.84-.3l4-6.42c-1.7-.53-3.14-.9-4.56-1.16l-6.14,6.03Z"/>
      <path class="cls-1" d="M20.46,49.22l4.65-4.73c1.65-1.85,3.44-3.53,5.28-5.11,1.26-4.56,1.97-9.16,2.25-14.15-3.05.1-5.4.9-8.12,1.6l-5.27,1.36-9.36,11.44c-.48,4.32-.94,8.3-.89,12.72l11.46-3.14ZM11.17,40.22l8.66-10.46,11.06-2.81c-.28,4.03-.75,7.55-1.5,11.27l-9.62,9.99-9.38,2.49c-.01-3.65.29-7,.78-10.47Z"/>
      <path class="cls-1" d="M5.72,32.43c-4.79,1.89-6.47,6.39-5.42,10.96.58,2.54.45,5,1.38,7.7l3.99-4.77c3.28-3.93-1.05-8.08.05-13.88ZM5.2,44.12c-.64-2.51-1.29-5.24-1.51-8.2.77,2.55,1.91,5.03,1.51,8.2Z"/>
      <path class="cls-1" d="M11.47,59.32l8.08-.16c1.56-.03,3.34-.42,4.91-.96.64-.22,5.32-4.7,4.37-6.1-10.31,2.47-8.97-3.47-17.37,7.22ZM18.57,54.84l-3.13,2.65c.78-1.49,1.96-2.68,3.07-3.76l6.59,1.08-6.53.04Z"/>
      <path class="cls-1" d="M33.06,39.71l.72-7.75c.6-1.81.5-3.72-.39-5.38l-1.83,12.78-3.25,2.97c1.9.57,3.76,1.46,5.82,1.41,1.24-.03,3.13-2.29,3.67-3.21-2.26-4.27-1.41-5.86-3.2-9.86-.41,3.32-.49,6.15-1.54,9.04Z"/>
      <path class="cls-1" d="M42.15,8.31l-4.08,4.39,3.7,1,.91,4.2,4.44-4.5c.05-2.8-2.06-4.91-4.98-5.08Z"/>
      <path class="cls-1" d="M46.6,20.76l.32,3.31,4.97-3.73c-.22-2.5-1.6-4.63-4.03-5.13l-4,3.76c.87.46,2.66,1.01,2.73,1.8Z"/>
      <path class="cls-1" d="M30.62,8.83c1.34.1,2.72-.12,3.69.32,1.05.48,1.31,2.22,1.9,3.46l3.37-4.93c-.65-2-3.39-4.07-5.62-2.85-1.35.74-2.43,2.73-3.34,4.01Z"/>
      <path class="cls-1" d="M27.56,6.28c-.09-1.45-1.16-2.8-2.33-3.05-1.35,1.83-2.64,3.05-4.43,4.38.1.66.43,1.98.64,2.53l3.93.9c1.59-.99,2.31-2.85,2.19-4.75Z"/>
      <path class="cls-1" d="M20.64,11.66l-1.6-4.63c-3.95,5.09-2.38,2.58-3.16,8.56-.06.44.68,1.8,1.09,1.52,2.21-1.5,4.45-3.17,3.67-5.45Z"/>
      <path class="cls-1" d="M19.3,20.75c1.47-2.32,2.7-4.4,4.57-6.04.51-.45,1.66-1.67,1.16-2.27-.65-.76-2.06-1.11-3.19-1.37-.14,1.02-.09,2.59-.58,3.16-3.17,3.69-4.75,3.55-4.32,5.9.14.75,1.91,1.33,2.36.62Z"/>
      <path class="cls-1" d="M45.25,5.15l-2.45,2.43c2.72.43,4.36,1.91,5.02,4.81l1.96-2.96c.18-2.54-1.97-4.53-4.53-4.28Z"/>
      <path class="cls-1" d="M50.82,22.99l-3.85,2.37c2.19.9,2.37,2.15,2.28,4.72l3.52-2.44c.81-1.74-.24-4.05-1.95-4.65Z"/>
      <path class="cls-1" d="M54.05,16.46c.43-.69-.28-2.47-.81-3.11-.47-.56-1.92-1.21-2.69-.82-.77.39-1.43,1.41-1.92,2.13,2.35.59,3.14,2.09,3.9,4.22l1.52-2.41Z"/>
      <path class="cls-1" d="M37.29,1.73l-2.35,1.7c2.31.41,4.14,1.01,5.27,3.36.55-.5,1.21-1.28,1.34-1.84.52-2.16-3.32-3.9-4.26-3.22Z"/>
      <path class="cls-1" d="M48.78,2.49c-.82.09-1.82.91-2.38,1.74,2.49.58,3.32,1.75,4.25,3.75.54-1.23,1.05-2.55.97-3.62-.09-1.28-1.64-2.01-2.84-1.88Z"/>
      <path class="cls-1" d="M54.02,20.71c-.98-.23-2.09.98-2.49,1.74,2.08.87,2.12,2.45,2.23,4.62l1.99-3.25c.09-1.05-.37-2.8-1.73-3.11Z"/>
      <path class="cls-1" d="M55.72,11.31c0-.97-1.29-2.17-2.27-1.87-.99.3-1.84,1.15-2.49,1.97,2.21.31,2.82,1.23,3.88,3.24.5-1.04.89-2.18.88-3.34Z"/>
      <path class="cls-1" d="M38.56,1.05c2.32.37,3.22,1.4,3.76,3.48.67-.89,1.32-2.52.72-3.48-1.09-1.73-3.35-1.02-4.47,0Z"/>
      <path class="cls-1" d="M55.38,18.09c-.63.05-1.5,1.12-1.64,1.63,1.56.42,1.97.99,2.81,2.55l.76-2.37c-.19-.89-1.06-1.88-1.93-1.81Z"/>
      <path class="cls-1" d="M34.67,18.57c-.17.59-.23,1.8-.05,2.43,1.21.42,3-.29,3.78-1.26.7-.88.77-2.58.46-3.77-2.5-.41-3.64.7-4.19,2.59Z"/>
      <path class="cls-1" d="M43.37,22.16c-1.68-1.95-4.66,2.09-4.98,3.73,1.17,1.03,3.02.46,3.89-.31.73-.64,1.92-2.46,1.09-3.42Z"/>
      <path class="cls-1" d="M29.39,13.03c-.81,1.08-.76,4.51-.02,4.23l1.24-.48c2.18-.84,2.8-3.15,1.74-4.86-1.04.16-2.51.51-2.96,1.11Z"/>
      <path class="cls-1" d="M41.83,30.11c-.17.34-.58,1.34-.24,1.48.27.11.99.29,1.31.32,1.98.19,3.48-1.05,3.37-3.18-1.78-1.28-3.58-.3-4.43,1.38Z"/>
      <path class="cls-1" d="M25.32,37.87c-1.4,1.5-2.69,2.87-4.18,4.11,2.55-4.72,4.03-1.7,4.04-9.25l1.86-1.59c-1.18,1.82-1.85,3.84-1.42,6.02.47.56,1.88.74,2.73.54l1.12-7.8c.06-.39-.33-1.2-.65-1.23-.32-.03-1,.09-1.4.2l-7.15,1.91.59,2.58c1.57-.25,2.52-.35,3.61-.32l-4.46,1.44c.5-.96.55-2.38-.3-3.1l-7.42,9,.46.57c.09.11-.69.62-.71.8l-.5,6.63,1.38-.97-.73,1.67,7.28-2.03,8.44-8.54c-.9-.32-1.91-.6-2.6-.64ZM13.7,46.23c.55-1.13.8-2.75.47-4.12l.57-.66.06,3.55,3.7-.09c-1.66.37-3.2.75-4.79,1.31Z"/>
    </g>
  </g>
</svg>