<?xml version="1.0" encoding="UTF-8"?>
<svg id="Warstwa_2" data-name="Warstwa 2" xmlns="http://www.w3.org/2000/svg" viewBox="0 0 55.87 48.78">
  <defs>
    <style>
      .cls-1 {
        fill: #fff;
      }
    </style>
  </defs>
  <g id="icon-v9-equipment-pixarts-store">
    <g id="icon-v9-equipment-pixarts-store_239">
      <path class="cls-1" d="M45.78,1.55C33.51-.62,21.05-.52,8.82,1.9c-2.32.46-7.3,1.7-7.27,4.25.02,2.26,4.07,3.74,5.76,4.03.21.02.34-.92.14-1.01l-.71-.32c-1.25-.56-3.3-1.03-3.65-2.6-.25-1.1,1.54-2.18,2.3-2.2-.63.63-1.34,1.38-1.6,2.18,6.98,4.64,2.6-.32,10.92,3.42,2.43,1.09,5.77.54,8.26,1.01l1.21-1.1c2.61.09,5.15-.07,7.67.28.28.04,2.59,1.95,6.58-.54.83-.52,2.9-.69,3.8-.36,1.64.59,2.33.25,3.52-.78,1.14-.99,3.19-.71,4.77-.84.55-.05,1.72-1,1.54-1.48-.18-.48-.91-1.08-1.56-1.7,1.01-.09,2.36.66,2.48,1.96.11,1.31-1.83,1.48-2.5,2.47-.12.18.41.79.62.75.91-.18,2.58-1.12,3.06-2.09,1.79-3.58-6.1-5.28-8.35-5.68Z"/>
      <path class="cls-1" d="M54.94,25.23c-1.22,1.17-1.88,3.15-3.49,3.48-2.23.46-4.73-.77-6.68-1.83-1.08-.59-1.66-1.86-1.88-3.01-.46-2.36-1.83-1.13-3-2.8-.26-.37-.12-1.71.34-1.78,3.54.19,2.67,4.77,4.29,6.46,1.68,1.25,4.51,2.51,6.61,2.06,2.19-.88,4.03-3.76,4.57-6.02.37-1.55-.22-3.35-.73-4.74-.33-.92-1.55-.9-2.13-.93-3.72-.19-2.68.73-7.25,1.69l2.21.43-5.08-.18c-.98-.03-2.1.43-3.36.83l.09,6.11-.2,8.8c1.07.95,2.33,1.66,3.83,2.3.99-5.45-1.23-9.35-1.21-13.61,1.24,4.28,2.41,9.45,1.88,13.74,3.22.26,6.95-.63,10.1-2.59,3.22-2.01,1.73-4.99,1.07-8.41ZM50.63,23.38c.45-.14,1.34.67,1.43,1.12.12.61-.58,1.56-1.24,1.56-.46,0-1.23-.51-1.52-.99-.27-.45.45-1.41,1.33-1.69ZM53,25.31c-.4,2.94-4.79,1.54-6.38.87,2.93-.48,3.27,2.13,6.38-.87Z"/>
      <path class="cls-1" d="M31.87,10.49h-7.86c-.01,4.9.87,9.68,1.95,14.5.97.61,2.83.55,3.95.03,1.27-3.35,2.22-11.27,1.95-14.53ZM28.35,23.61c-.81-.12-1.29-.6-1.29-.92,0-.39.29-1.41.64-1.54.49-.19,1.41.42,1.47.85.06.46-.36,1.68-.82,1.61Z"/>
      <path class="cls-1" d="M24.5,21.31l-1.37-8.23-10.77-.87c-.2,2.53-.27,5.03-.17,7.73,4.25.77,8.16,1.12,12.3,1.36ZM20.6,15.94c.52,0,.95.43.95.95s-.43.95-.95.95-.95-.43-.95-.95.43-.95.95-.95ZM15.21,15.41c.53,0,.96.43.96.96s-.43.96-.96.96-.96-.43-.96-.96.43-.96.96-.96Z"/>
      <path class="cls-1" d="M37.25,39.55c0-5.1-4.13-9.23-9.23-9.23s-9.23,4.13-9.23,9.23,4.13,9.23,9.23,9.23,9.23-4.13,9.23-9.23ZM28.02,47.67c-4.48,0-8.12-3.63-8.12-8.12s3.63-8.12,8.12-8.12,8.12,3.63,8.12,8.12-3.63,8.12-8.12,8.12Z"/>
      <path class="cls-1" d="M5.03,39.85c3.13,1.31,6.52.24,8.62-2.2,3.11.47,3.73-8.05,1.25-10.2l-2.5-1.64c-2.64-1.73-5.88-2.27-8.66-.5C1.09,26.99-.27,30.02.04,32.99c.31,2.96,2.04,5.63,4.98,6.87ZM15.5,34.19l-.42-5.02c.77,1.58.79,3.34.42,5.02ZM3,27.26c1.35-1.39,3.7-2.33,5.86-1.75,3.08.82,5.01,3.48,5.14,6.38.14,2.96-1.37,6.01-4.6,7.04-4.06,1.3-7.79-1.89-8.22-5.79-.25-2.33.25-4.27,1.82-5.89Z"/>
      <path class="cls-1" d="M39.14,12.6l-6.3.47-1.1,8.04c2.02,0,4.54-.11,6.46-.56l.98-2.76c.54-1.52.22-3.57-.05-5.19Z"/>
      <path class="cls-1" d="M9.15,9.23c-.85.66-1.28,2.37-1.27,3.38l.07,8.86,2.78.67c1.27-5.14-.25-8.09,1.51-12.71-.68-.25-2.46-.68-3.09-.19ZM9.97,19.82c-.27.23-1.09.28-1.43.15-.4-.16-.43-1.5.09-1.88.49-.37,1.54-.17,1.67.19.15.41,0,1.26-.32,1.54Z"/>
      <path class="cls-1" d="M1.82,14.98c.6,2.11,3.51,2.98,5.23,3.36v-7.35s-5.5-2.71-5.5-2.71c.09,2.23-.28,4.77.27,6.69ZM4.47,12.61c.29-.16,1.08.56,1.05.88-.03.32-.4,1-.72,1.15-.27.12-.83-.64-.92-.92-.09-.28.27-.93.59-1.11Z"/>
      <path class="cls-1" d="M40.9,14.36l.36,2.94,1.85-.26c.6-2.56.44-5.19-1.04-7.48l-3.15.32c1.41,2.67.97,4.86,1.57,7.9l.41-3.42Z"/>
      <path class="cls-1" d="M50.39,15.16c.32-2.21.41-4.84-.98-6.71-.4-.54-1.95-.14-2.68.21,1.3,2.32,1.32,4.61,1.14,7.5.6-.09,1.89-.53,2.51-1Z"/>
      <polygon class="cls-1" points="51.35 14.86 54.42 15.43 54.47 8.15 51.07 10.15 51.35 14.86"/>
      <polygon class="cls-1" points="47.17 16.5 46.95 11.27 43.91 11.82 44.09 16.93 47.17 16.5"/>
      <path class="cls-1" d="M23.81,21.67l-10.88-1.09c-.23-.02-.47.61-.33.71,1.24.93,10.09,1.38,12.05,1.48.34-.47-.16-1.03-.84-1.1Z"/>
      <path class="cls-1" d="M22.3,12.53c.31.03,1.17-.64.93-.75-.16-.07-.64-.27-.84-.28l-8.99-.83c-.25-.02-.7.28-.84.39-.14.12.55.59.81.62l8.93.85Z"/>
      <path class="cls-1" d="M38.67,21.57c.1-.11-.46-.46-.61-.45l-6.34.54v1.04s5.99-.43,5.99-.43c.26-.02.81-.54.96-.7Z"/>
      <rect class="cls-1" x="32.78" y="11.18" width="6.21" height="1.08" transform="translate(-.91 3.29) rotate(-5.19)"/>
      <path class="cls-1" d="M6.8,19.95c.19.04.38-.8.2-.86l-.68-.24c-1.71-.6-3.05-1.41-4.55-2.59-.42,1.93,3.53,3.38,5.03,3.69Z"/>
      <path class="cls-1" d="M27.22,27.53l-.14,1.69c-.04.55,2.16.39,2.11-.13l-.31-1.89c-.07-.43-1.63-.1-1.66.33Z"/>
      <path class="cls-1" d="M24.84,27.2c.23.57,1.24,1.34,1.59,1.29l-1.2-3.85c-.47.66-.7,1.77-.38,2.56Z"/>
      <path class="cls-1" d="M30.82,24.4l-.95,4.22c1.64-.86,1.84-2.77.95-4.22Z"/>
      <path class="cls-1" d="M46.75,10.26c-1.33-.72-2.77-.7-3.4.73,1.16.18,2.35-.14,3.4-.73Z"/>
      <path class="cls-1" d="M11.61,21.1c-.41.88-.64,1.79-.54,2.95,1.57-.59,1.19-1.86.54-2.95Z"/>
      <path class="cls-1" d="M17.82,38.35c-.6.51-1.07,1.15-.84,1.39.29.3,1.22.8,1.23.56-.01-1-.17-2.06-.39-1.96Z"/>
      <path class="cls-1" d="M39.17,39.39c-.2-.24-.53-.52-1.18-1.08l-.08,2.31c.74-.42,1.47-.98,1.26-1.23Z"/>
      <path class="cls-1" d="M7.81,23.22l-.41-2.19c-.95.75-.9,2.08.41,2.19Z"/>
      <path class="cls-1" d="M50.73,25.44c.44,0,.8-.36.8-.8s-.36-.8-.8-.8-.8.36-.8.8.36.8.8.8Z"/>
      <path class="cls-1" d="M35.2,37.72c-.91-4.07-5.6-6.85-9.61-5.33-3.02,1.14-5.45,4.13-4.77,7.24.73-.5.83-1.32,1.11-2.32l-.22,2.07,4.7-.53-.49-1.57,1.45.59.8-4.16.49,3.52,3.56-2.5-2-1.28c.77.33,2.05.95,2.53,1.25l-2.6,4.17,4.07.51-.03-2.05.7,2.51c-.75,1.86-.96,3.93-2.81,4.84,1.17-1.56,2.34-2.85,2.17-5.06l-4.82.6,1.71,2.67-2.34-2.02-.64,5.87-.8-4.78c-1.44,1.18-2.73,2.13-4.33,2.65l2.93-4.39-3.43-.47c-.19-.03-.8.62-.97.53l-.85-.44c-.11,4.45,4.3,7.81,8.25,7.17,4.53-.74,7.29-4.72,6.27-9.28Z"/>
      <path class="cls-1" d="M28.94,40.18c.28-.28.55-1.09.28-1.38-.23-.24-1.14-.51-1.43-.35-.41.22-.46,1.18-.24,1.6.25.49.93.58,1.39.14Z"/>
      <path class="cls-1" d="M6.58,37.75l.54-1.21c.39.84.73,1.37.77,2.04,3.28.43,5.97-4.42,5.06-4.96l-1.03-.61,1.27-.61c.2-2.88-1.41-5.28-4.07-6.16l-.8,1.42c-.4-1.23-.53-1.59-1.5-1.58-1.15.01-3.35,1.55-3.67,3.61-.04.25-.44.87-.25,1l.96.65-1.08.7c-.45.29.63,5.07,3.79,5.72ZM11.52,28.73c-2.54,4.38-1.9,4.63-7.05,6.76,1.95-4.03,2.46-5.17,7.05-6.76Z"/>
      <path class="cls-1" d="M1.78,31.27c-.24,1.76.12,3.44,1.2,4.71l-1.2-4.71Z"/>
      <polygon class="cls-1" points="6.11 33.93 8.6 32.28 7.69 31.5 6.11 33.93"/>
    </g>
  </g>
</svg>