<?xml version="1.0" encoding="UTF-8"?>
<svg id="Warstwa_2" data-name="Warstwa 2" xmlns="http://www.w3.org/2000/svg" viewBox="0 0 53.44 59.93">
  <defs>
    <style>
      .cls-1 {
        fill: #fff;
      }
    </style>
  </defs>
  <g id="icon-v9-equipment-pixarts-store">
    <g id="icon-v9-equipment-pixarts-store_122">
      <path class="cls-1" d="M9.19,26.28c1.53,2.32,2.09,5.77-.06,7.66-.62.55-.57,1.41.09,2.34,3.69,5.16.51,5.08,6.64,8.87l2.35,11.7c.22,1.1,1.03,1.98,2.13,2.13l-2.33-16.97c-1.62-.57-8.55-4.83-5.52-6.24,2.23,2.43,4.96,3.78,8.37,4.37l.81,6.9c3.01,1.4,6.7,1.33,9.95.25l.79-7.22c3.64-.58,6.15-2.05,8.58-4.22,2.39,1.76-4.18,5.51-5.73,6.15-.47,1.33-.68,3.2-.87,4.67l-1.63,12.31c1.37-.24,1.96-1.24,2.22-2.49l2.34-11.4c3.07-1.28,4.35-3.66,5.34-6.61.42-1.24,1.74-2.41,2.05-3.91-2.69-2.11-2.49-5.75-.65-8.28-.07-6.02-4.24-3.02-3.87-7.75.14-1.83-1.89-3.34-3.78-3.13-1.01.11-2.03-.45-2.27-1.48-.33-1.39-2.27-3.08-3.43-2.23-1.22.9-2.7,2.18-4.26,2.1-1.52-.07-2.79-1.27-3.92-2.11-1.08-.81-3.06.89-3.39,2.2-.7,2.84-3.4.37-5.44,2.64-.8.89-.94,1.99-.84,3.23.23,2.93-3.6.84-3.69,6.49ZM13.42,23.83c1.79-1.86,3.5-3.8,5.93-4.74-.02-1.08,0-2,.39-3.18l.69,2.81c2.2-1.04,4.14-2.17,6.17-3.57,2.37,1.63,5.03,3.28,7.85,4.39,2.43.96,3.72,2.75,5.47,4.47,1.26,1.23,2.67,1.74,2.69,3.77.01,1.6-.82,2.92-2.25,3.95.3,3.9-1.68,5.3-5.36,6.55-2.27.77-4.01-.07-5.89-1.43l1.47,7.36-3.87,2.59-4.02-2.54,1.33-7.43c-3.81,3.17-7.55,1.43-10.72-1.62l-.62-3.83c-1.83-.73-2.19-2.14-2-3.83.23-2.02,1.64-2.56,2.76-3.73Z"/>
      <path class="cls-1" d="M26.62,4.86c.45,2.78.59,4.89.82,7.51.58,0,1.85-.48,2.08-1.12L26.64,0l-2.96,11.62,2.17.99.77-7.75Z"/>
      <path class="cls-1" d="M20.92,58.66c.04.27.34.77.48.93.14.16.77-.43.75-.66l-1.38-13.88-.54-4.08-1.18.53c-.29.13-.33,1.14-.28,1.5l2.16,15.67Z"/>
      <path class="cls-1" d="M31.4,59.93c2.25-5.58,1.87-12.38,3.05-17.4.1-.45-.41-1.3-.69-1.4-.22-.07-.64.08-.9.28-.4,5.87-1.68,12.34-1.46,18.51Z"/>
      <path class="cls-1" d="M44.23,27.69l-.66,2.49,5.53.47-5.22,1.17c.71,1.43,1.23.91,1.93.72l7.63-2.06-9.21-2.79Z"/>
      <path class="cls-1" d="M9.11,31.83c-.11-.1-.49-.34-.71-.38l-4.27-.78,5.31-.53c-.02-.76-.32-1.81-.73-2.43L0,30.48l8.39,2.31c.28.08.9-.81.72-.96Z"/>
      <path class="cls-1" d="M15.55,11.38l1.93,2.99c.43-.12,1.26-1.04,1.19-1.46s-.59-1.05-.98-1.42l-3.82-3.7c.39,2.64.83,4.53,1.87,6.89l-.19-3.3Z"/>
      <path class="cls-1" d="M35.65,14.31l2.07-3-.26,3.33c1.08-2.33,1.58-4.32,1.81-6.73l-4.71,4.47c-.39.4.63,1.98,1.1,1.93Z"/>
      <path class="cls-1" d="M10.88,21.15l.08-.33-1.63-1.83,2.65,1.04-.16-1.93-6.2-1.52,4.16,4.4c.17.18,1.06.35,1.11.16Z"/>
      <path class="cls-1" d="M44.38,18.75l-2,2.05c-.12.16.82.44.97.28l4.24-4.48c-2.29.43-4.3.99-6.54,1.59l.33,1.87,3.01-1.31Z"/>
      <polygon class="cls-1" points="42.04 42.5 40.26 44.85 44.63 46.69 42.04 42.5"/>
      <polygon class="cls-1" points="11.17 42.57 8.77 46.62 13.22 44.72 11.17 42.57"/>
      <path class="cls-1" d="M40.3,37.74l-6.8,3.11c2.89,1.07,5.16-1.47,6.8-3.11Z"/>
      <path class="cls-1" d="M19.35,40.69l-5.89-2.72c.38,1.26,5.36,4.53,5.89,2.72Z"/>
      <path class="cls-1" d="M25.38,29.59c1.52,1.67.59,2.87.18,4.46-.71,2.79-.98,5.7-1.46,8.7.67.77,1.73,1.71,2.53,2.15.88-.56,1.94-1.45,2.49-2.24-.53-3.15-.87-5.93-1.52-8.6-.35-1.46-1.45-2.47-.09-4.15,1.1-1.37,2.72-2.59,4.45-3.62l-.32-2.54,1.39,1.9,5.36-1.77c-3.06-3.89-7.67-4.09-11.8-7.35l-5.83,3.48-.45,1.26-.43-.93c-.13-.29-4.32,1.84-5.03,3.67,4.12.78,7.83,2.6,10.53,5.56Z"/>
      <path class="cls-1" d="M12.97,30.67c1.57.5,3.14.77,4.98,1.1l.06-1.17c.61.7,1.54,1.64,2.49,1.85l3.38.76c.46.1,1.52-.35,1.62-.78.86-3.55-12.35-10.6-13.77-5.6-.39,1.36-.44,3.31,1.24,3.83Z"/>
      <path class="cls-1" d="M34.24,29.87l-1.5-2.95c-1.89,1.13-3.35,2.16-4.72,3.69-.59.66-.45,2.55.58,2.53,1.49-.02,3.77-.34,4.72-1.17l2.1-2.83-.29,2.69,5.02-.96c1.19-.23,1.76-2.1,1.66-3-.13-1.16-.83-2.64-2.31-2.74-2.04-.15-4.31.65-6.01,1.45.54,1.35.8,2.22.73,3.29Z"/>
    </g>
  </g>
</svg>