<?xml version="1.0" encoding="UTF-8"?>
<svg id="Warstwa_2" data-name="Warstwa 2" xmlns="http://www.w3.org/2000/svg" viewBox="0 0 55.33 52.43">
  <defs>
    <style>
      .cls-1 {
        fill: #fff;
      }
    </style>
  </defs>
  <g id="icon-v9-equipment-pixarts-store">
    <g id="icon-v9-equipment-pixarts-store_260">
      <path class="cls-1" d="M18.63,9.48c-.15,1.01-.05,2.07.25,2.8l1.67-1.6-1.02,3.21,2.59,1.66c-1.06.34-1.48-.36-2.58-1.06.3,3.31,2.68,3.29,4.99,6.54.21.29,1.17.79,1.37.5l.91-1.34.43.86c.14.28-1.33,1.06-1.29,1.51l.11,1.27c-.96-1.31-2.35-.94-4.2-1.05l1.96-.4c-3.69-1.27-4.4-6.51-5.48-8.6-.76-1.47-2.93-2.49-3.58-4.23-.62,1.36,1.89,7.54,3.39,6.81,0,.29-.16,1.34.17,1.53l1.16.66c-.49.08-1.62.24-1.53.62l.39,1.58c.47.32.21.33-.41.19-.05-1.64-1.11-2.76-2.82-2.71.74,1.78,1.73,3.05,3.41,4.06.93-.09.52.15-.43.6,1.33,2.31,5.05.13,5.34,5.58l2.81,2.44c1.46,1.27,3.65.03,4.39-1.43l1.29-1.19c.9-5.46,3.66-2.8,5.5-5.56l-1.2-.49c2.35-.62,3.63-2.44,4.01-4.48-1.38.83-2.61,1.58-3.75,2.51.21-.47.18-1.54.3-2.12.52-2.5,4.24-3.2,3.76-8.33l-3.54,4.09c-.51.59-1.83,7.83-5.63,8.53l2.83.02c-2.24,1.27-3.25-.61-4.41,1.4.41-2.66-2.74-2.1-.99-3.37,1.65,2.6,1,.68,4.88-2.38,1.09-.86,1.74-1.55,2.15-3.2l-2.48.84c.75-.93,1.61-1.4,2.84-2l-1.3-3.1,1.58,1.6c.32-.75.46-1.7.42-2.45l.6-.14c.16-.04.32-.59.38-.81.82-3.13-.1-6.33-2.03-8.86.42,2.94.43,5.54-1.12,7.9l-3.9,5.94c.37-1.79,1.71-3.07.76-4.6-.43.46-1.88,1.53-2.27,1.09-.52-.58-1.24-1.66-1.63-2.23-.58.82-1.24,1.91-1.99,2.37-.46.27-1.54-.82-1.87-1.21l-.58,2.38-2.65-3.99c-.54-.81-.68-1.53-1.95-1.62,1.66-1.61-.03-3.97.77-5.98-2.32,2.76-2.67,6.35-1.57,9.73l.79-.32ZM24.12,26.4c.83-.21,1.57,0,1.79.47.32.68.46,1.35.47,1.97l-2.26-2.44ZM29.99,26.16l1.22.36-2.19,2.32c-.03-1.16.28-1.64.98-2.68Z"/>
      <path class="cls-1" d="M41.82,11.24c5.87-1.45,2.39,2.32,10.61-1.54.04-.86-1.08-1.42-1.93-1.77.83.02,2.91.25,2.78,1.81-.07.79-1.66,1.49-2.33,1.7l-4.43,1.44c1.45,1.17,8.55-.9,8.46-3.16-.15-3.56-12.81-4.49-15.68-4.92l-.36,5.41c.67-1.14,1.13-1.87,2.07-3.1.76,1.61.77,2.63.81,4.12Z"/>
      <path class="cls-1" d="M8.79,12.87l-5.29-1.8c-.7-.24-1.9-1.25-1.39-1.96.64-.9,2.03-1.13,2.89-1.23-.94.51-1.57.86-2.21,1.78,8.45,3.77,4.72.13,10.86,1.63-.06-1.28-.1-2.63.52-4.09.98.49,1.48,1.42,2.09,2.39l-.22-4.73c-2.71.37-15.5,1.35-15.66,4.85-.1,2.29,7.06,4.28,8.42,3.15Z"/>
      <path class="cls-1" d="M45,11.86c-.72-.11-2.19.18-3,.41,1.66,2.91,1.37,12.21.28,15.89,1.26.08,2.82-.09,3.86-.78.74-2.07.97-15.21-1.13-15.52ZM46.15,20.29c-.17.66-1.41,1.42-2.12.77-.3-.28-.38-1.34-.17-1.64.21-.29.95-.84,1.3-.75.59.15,1.12,1.14.99,1.62Z"/>
      <path class="cls-1" d="M8.94,26.06c.08.68.79,1.62,1.41,1.91.51.24,1.37.06,2-.21.74.71.85.46.37-.34-.61-2.86-1.45-13.97,1.15-15.1-1.07-.22-2.46-.47-3.5-.51-2.42,1.77-1.78,11.24-1.43,14.24ZM11.43,19.25c.1.51.05,1.51-.3,1.82-.34.31-1.44.13-1.73-.23-.29-.36-.23-1.66.16-1.92.64-.41,1.77-.13,1.86.33Z"/>
      <path class="cls-1" d="M27.82,39.41c-1.1.06-3.13-.43-3.32-2.17-.31-2.86-1.08-5.36-2.86-7.76l-.84-3.96-.93,1.18c-.18.23-.85.18-1.37.24l1.48,1.9-.04,1.34c3.75,1.35,3.75,9.8,4.26,9.84l1.16.07,2.36,2.48,2.26-2.7c.59-.02,1.27,0,1.51-.21.18-.16-.03-1.01.03-1.25l1.3-5.34c.34-1.4,1.81-2.41,2.89-2.96l-.57-.93c-.09-.14.39-.52.49-.65l1.31-1.56c-.82-.21-1.38-.31-1.46-.59l-.34-1.26c-.98.94-1.13,5.07-1.85,5.02l-.65-.05c.74,2.37-1.37,1.71-1.55,6.16-.08,1.94-1.35,3.08-3.25,3.18Z"/>
      <path class="cls-1" d="M23.86,7.45l1.59,1.84,2.26-3.03,2.24,3.15,1.63-1.97,1.27,1.37c.79-1.34,1.41-2.57,2.03-4.19-4.95-.27-9.25-.27-14.46-.06.63,1.61,1.25,2.76,2.08,4.13l1.37-1.25Z"/>
      <path class="cls-1" d="M51.97,18.94l-1.63,4.15c2.05-.38,3.53-1.08,4.74-2.3l-.02-9.2c-2.15,1.18-3.96,1.88-5.99,2.44,1.03,1.58,2.12,3.38,2.9,4.91Z"/>
      <path class="cls-1" d="M.53,22.66c1.43,1.57,3.89,2.54,6.1,2.93l-1.64-1.87c-1.7-.57-2.98-1.16-4.22-2l4.3,1.65-1.78-4.12c.68-1.81,1.93-3.75,3.05-5.25-2.13-.56-3.96-1.25-6.01-2.38-.03,2.79-.09,5.59.06,8.36l.14,2.68ZM1.83,15.91l.13,1.95-1.02.07-.13-1.95,1.02-.07Z"/>
      <path class="cls-1" d="M27.76,52.43c1.55-1.18,3.18-3.35,3.24-5.3l-3.35-3.48-3.27,3.38c-.03,2.02,1.65,4.38,3.38,5.4Z"/>
      <path class="cls-1" d="M20.11,41.25c.91-.94,3.03-2.77,2.29-4.02l-2.27-3.22-2.29,2.33c-.25,1.93.48,3.73,2.28,4.91Z"/>
      <path class="cls-1" d="M35.5,40.99c1.62-.84,2.33-3.08,2.13-4.52l-2.35-2.34-2.22,3.09c-.78,1.08,1.24,4.07,2.45,3.77Z"/>
      <path class="cls-1" d="M15.67,28.97c-.66,2.53-.41,5.01,1.58,6.67,1.34-.97,2.71-2.39,2.93-3.67-1.49-.79-1.8-1.07-1.6-2.42-.75-.24-1.87-.46-2.91-.58Z"/>
      <path class="cls-1" d="M36.97,30.58l-1.87,1.52c.44,1.29,1.51,2.48,2.94,3.58,2.29-1.71,2.59-4.62,1.22-6.69l-1.71.12c-.35.03-.29,1.23-.57,1.46Z"/>
      <path class="cls-1" d="M14.27,40c1.14-1.4,1.97-2.48,2.67-3.52-1.27-1.42-1.76-2.49-2.36-4.18l-2.46,2.55c.11,2.03.32,3.86,2.15,5.14Z"/>
      <path class="cls-1" d="M39.06,16.93l2.58-.8c.07,2.66-1.23,4.4-2.74,6.13l1.93.58-2.04,3.23,3.45-.52c.2-3.57.16-6.72-.17-10.21-1.34.2-2.47.33-3,1.59Z"/>
      <path class="cls-1" d="M43.19,34.75l-2.32-2.33c-.53,1.69-1.09,2.84-2.39,3.92.59,1.37,1.5,2.64,2.94,3.65,1.47-1.65,2.11-3.39,1.77-5.24Z"/>
      <path class="cls-1" d="M16.19,17.09c-.25-1.36-1.45-2.08-2.96-1.89-.18,3.58-.24,6.88-.17,10.43l3.65.47c-.9-1.31-1.52-2.21-2.23-3.39l1.92-.48c-1.86-2.05-2.79-3.85-2.58-6.34l2.37,1.2Z"/>
      <path class="cls-1" d="M8.61,38.06c1.17-1.01,2.28-2.27,2.49-3.26-.84-1.24-1.41-2.29-2.01-3.65l-2.07,1.89c-.65,1.76.06,3.8,1.59,5.02Z"/>
      <path class="cls-1" d="M48.57,33.19l-2.27-1.99c-.74,1.47-1.27,2.41-2.13,3.72.63,1.16,1.55,2.29,2.87,3.25,1.25-1.71,1.66-3.12,1.54-4.98Z"/>
      <path class="cls-1" d="M36.22,44.41c.02-.68-1.08-1.9-1.63-2.51-.89,1.93-1.61,3.25-3.02,4.95l2.14,2.51c1.36-1.51,2.46-3.11,2.5-4.94Z"/>
      <path class="cls-1" d="M23.77,46.71c-1.5-1.67-2.14-2.83-2.99-4.69-.47.46-1.71,1.69-1.7,2.39.02,1.84,1.26,3.54,2.6,4.91.81-.86,1.57-1.8,2.09-2.61Z"/>
      <path class="cls-1" d="M38.48,45.01c1.21-1.83,1.71-2.8,2.05-4.41l-2.11-2.71c-.82,2.01-1.4,3-2.7,4.36.82.97,1.64,1.79,2.76,2.76Z"/>
      <path class="cls-1" d="M19.54,42.13c-1.33-1.58-1.88-2.62-2.65-4.39l-1.94,2.79c.26,1.75.85,3.01,2.1,4.46,1.19-1.18,1.91-2,2.5-2.86Z"/>
      <path class="cls-1" d="M10.03,29.12c-.5,1.3.15,4.05,1.62,4.72,1.83-.86,3.19-3.13,3.56-4.74-2.35.2-3.66.15-5.17.02Z"/>
      <path class="cls-1" d="M44.03,33.78c1.19-1.41,1.67-3.32,1.53-4.76l-4.94.38c.14,1.84,1.51,4.05,3.41,4.38Z"/>
      <path class="cls-1" d="M46.38,29.09c-.15,1.36,1.35,2.62,2.81,3.19,1.29-1.92,1.35-3.85.78-5.56-1.72.26-3.41.65-3.6,2.37Z"/>
      <path class="cls-1" d="M5.57,26.69c-.71,1.64-.59,4.2.88,5.46,1.04-.27,2.75-1.81,2.66-2.95-.14-1.79-2.33-2.6-3.54-2.51Z"/>
      <path class="cls-1" d="M26.6,43.22l-1.76-1.8c-.44.02-1.26.21-1.41-.1l-.77-1.53c-2.18.99-.09,5.3,1.68,5.99.97-.62,1.87-1.71,2.27-2.57Z"/>
      <path class="cls-1" d="M32.86,39.87l-.84,1.33c-.17.27-.98.04-1.3.14-.6.17-1.74,1.33-1.72,1.96.04,1.05,1.15,2,2.19,2.69,1.77-2.08,3.38-4.63,1.66-6.12Z"/>
      <path class="cls-1" d="M47.72,25.66c.86-.63,2.96-4.83,3.01-6.26.07-1.97-1.52-4.23-3.29-5.25.05.62.62,1.29,1.18,2.31l-1.25-.88c.11,2.94.13,5.78.04,8.45.19.15.38.31.48.39h0c.1.08.08.07,0,0l-.64,1.14c-.06.1.37.17.47.1Z"/>
      <path class="cls-1" d="M47.89,24.41h0c.08.07.1.09,0,0Z"/>
      <path class="cls-1" d="M45.77,38.8c-.05-.69-1.27-1.93-1.6-2.29-.67,1.53-1.17,2.53-2.07,4l2.14,2.36c.89-1.48,1.63-2.77,1.53-4.07Z"/>
      <path class="cls-1" d="M52.79,31.11l-1.64-1.68-1.59,3.78c.37.78,1.34,1.85,2.17,2.46,1.07-1.73,1.35-2.97,1.06-4.56Z"/>
      <path class="cls-1" d="M2.49,32.23c.02,1.31.42,2.61,1.33,3.35.82-.65,1.82-1.75,2.13-2.4-.76-1.48-1.15-2.44-1.57-3.84-.77.63-1.9,1.9-1.89,2.9Z"/>
      <path class="cls-1" d="M13.32,40.48c-.88-1.44-1.42-2.52-2.13-4.2l-1.63,2.48c.23,1.56.8,2.85,1.71,4.05l2.05-2.33Z"/>
      <path class="cls-1" d="M2.17,30.26c1.34-.92,2.51-2.19,2.48-3.82l-2.98-1.49c-.69,1.71-.85,3.78.5,5.31Z"/>
      <path class="cls-1" d="M7.92,13.89c-1.7,1.37-3.65,3.6-3.4,5.65.28,2.31,1.83,4.45,3.21,6.08.19-.9-.19-1.52-.74-2.52l.78.41.16-9.63Z"/>
      <path class="cls-1" d="M53.66,25.11l-2.92,1.38c-.1,1.44,1.24,3.26,2.57,3.48,1.4-1.28,1.09-3.51.35-4.87Z"/>
      <path class="cls-1" d="M50.99,36.49c-.11-.53-1.1-1.47-1.47-1.78l-1.42,3.66,1.71,1.6c.67-1.3,1.36-2.59,1.17-3.47Z"/>
      <path class="cls-1" d="M4.35,36.69c.07.98.55,2.07,1.21,3.36l1.63-1.87-1.34-3.3c-.53.4-1.54,1.3-1.5,1.81Z"/>
      <path class="cls-1" d="M55.05,21.77c-2.49,1.63-6.12,1.89-5.97,3.86,2.02-.49,6.27-1.94,5.97-3.86Z"/>
      <path class="cls-1" d="M1.76,30.98l-1.26-2.14-.5,6.01c1.92-.52,1.99-2.19,1.76-3.87Z"/>
      <path class="cls-1" d="M53.73,31.16c-.69,1.35.06,3.19,1.6,3.68-.08-2.3-.23-3.94-.43-5.96l-1.17,2.28Z"/>
      <path class="cls-1" d="M13.5,26.35c-.92.1,1.44,2.2,4.08,1.37-.72-1.39-3.35-1.46-4.08-1.37Z"/>
      <path class="cls-1" d="M41.78,26.23l-.63.03c-1.3.07-2.57.22-3.29,1.53,1.28,0,2.53-.22,3.87-.64.08-.45.21-.94.05-.93Z"/>
      <path class="cls-1" d="M16.26,23.68c.74,1.2,1.95,2.08,3.24,2.2-.61-1.64-1.76-2.34-3.24-2.2Z"/>
      <path class="cls-1" d="M36.02,25.37c1.49.27,2.61-.78,3.02-2.01-1.29.51-2.22,1.13-3.02,2.01Z"/>
      <path class="cls-1" d="M30.46,33.23c.61-1.18.94-2.16.96-3.18-1.22.75-1.37,2.06-.96,3.18Z"/>
    </g>
  </g>
</svg>