<?xml version="1.0" encoding="UTF-8"?>
<svg id="Warstwa_2" data-name="Warstwa 2" xmlns="http://www.w3.org/2000/svg" viewBox="0 0 53.06 59.87">
  <defs>
    <style>
      .cls-1 {
        fill: #fff;
      }
    </style>
  </defs>
  <g id="icon-v9-equipment-pixarts-store">
    <g id="icon-v9-equipment-pixarts-store_364">
      <path class="cls-1" d="M23.5,19.05c.83-2.28,1.69-4.19,3.12-6.36,1.29,2.18,2.14,4,2.99,6.32.84-2.04-1.83-5.83-3-7.68-1.55,2.06-3.89,5.28-3.1,7.71Z"/>
      <path class="cls-1" d="M31.35,45.2c-1.63.68-2.55,1.9-2.49,4.19l2.68-3c.14-.16-.02-1.26-.19-1.19Z"/>
      <path class="cls-1" d="M21.75,45.16c-.05.32,0,1.23.07,1.66l2.55,2.73c.07-2.03-.79-3.64-2.62-4.39Z"/>
      <path class="cls-1" d="M23.78,24.48l2.82-4.76,2.75,4.89c-.18-2.28-1.28-4.05-2.76-6.08-1.31,1.78-2.69,3.43-2.81,5.95Z"/>
      <path class="cls-1" d="M32.06,43.62c.35.69.57,1.64.81,2.47.49-.82.58-2.51-.25-3.4-.36-.39-1.94-.47-2.22-.03l-.89,1.39c.75-.3,2.28-.95,2.54-.43Z"/>
      <path class="cls-1" d="M22.57,42.53c-.33-.34-1.76-.09-2.07.31-.58.74-.66,2.49-.27,3.25.33-.96.33-2.69,1.45-2.72.39,0,1.28.46,2.05.76-.22-.42-.78-1.22-1.16-1.61Z"/>
      <path class="cls-1" d="M38.59,28.04l.63-2.04c.17.62.24,1.34.23,2.04,3.65-.63,5.82-3.74,5.91-7.52l-4.18,2.96-.38-4.04c-3.17,3.17-4.56,3.7-7.59,6.67.39-2.37,4.28-3.83,1.55-6.63l-2.53,2.51c.43-1.48,1.73-2.55,2.45-3.72l4.11-6.77c.9-1.49-.5-4.29-1.07-5.48l-2.97,5c.19,1.56.59,3.65.53,5.43-1.67-.57.38-3.82-3.59-8l-2.72,4.32c.1-.98.41-2.05.72-3.07-.78-1.93-1.89-3.82-3.09-5.74-1.22,1.92-2.33,3.82-3.21,5.67.49,1.37.89,2.56,1.12,3.87l-3.13-5.22c-4.09,5.2-1.62,7.04-3.48,8.48-.14-1.86.23-3.97.72-5.8-1.1-1.52-2.22-3.26-3.27-5.26-.31,1.51-1.83,4.21-.86,5.89l3.83,6.55c.81,1.38,2.5,2.43,2.79,4.18l-2.76-2.96c-2.45,3.43,1.04,4.06,1.74,6.76l-4.85-4.13-2.95-2.64c-.19,1.73-.23,3.13-.14,4.37l-4.25-3.2c.07,3.24,2.07,7.03,5.73,7.43.16-1.12.35-2.05.64-2.69.09,1.16-.03,2.61.71,3.15l2.65,1.89.79-2.01c-.74,2.4,2.25,6.05,4.18,5.27.45-.18.99-1.36.89-1.94-.61-3.72-3.62-2.7-1.77-7.01.44-.18,1.31.46,1.73,1.03l-1.52-.26-.34,1.97c1.31,1.51,2.21,2.97,2.89,4.72l1.43-.05-2.12,1.91c-.52.47-.93.72-1.9,1.35l1.48,1.19c.45.36,1.05.85,1.11.93-.7-.09-1.68-.48-1.7-.17l-.1,1.51,2.1,1.64c-.95-.18-1.85-.56-1.88-.17l-.13,1.81-1.29-4.76c-.1-.37-.74-1.26-1.1-1.13l-1.15.41,1,2.29c-1.47-1.84-2.86-2.58-5.14-3.05l5.04-.62c-2.68-1.05-5.58.06-6.62-4.09-.24-.96-.99-1.9-1.81-2.42l-.06,3.07c-2.06-4.11.43-3.55-4.52-6.43l-2.67-1.56,4.78,8.46-2.36.49c1.01,1.72,2.42,2.57,4.24,3.36l-1.64.71c1.6,2.97,6.52-.1,8.29,6.85.44,1.72.52,7,1.35,6.5l1.08-.65,1.89,3.96.98-1.21c.96,1.05,2.23,2.25,3.56,3.15,1.48-1.21,2.49-2.24,3.26-3.21l1.21,1.3,1.87-3.93c.4.21,1,.68,1.21.47.82-.84.65-3.44,1.01-5.81.39-2.52,2.1-5.14,4.57-5.58,1.6-.29,2.88-.32,4.01-1.81l-1.79-.74c1.79-.77,3.35-1.83,4.32-3.39l-2.49-.45c1.73-2.16,3.66-5.78,4.78-8.48l-3.12,1.89c-.99.6-2.51,1.75-2.87,2.76l-1.07,2.97-.34-2.66c-.74.68-1.33,1.49-1.51,2.22-1.06,4.41-3.91,3.14-6.59,4.17,2.01.49,3.52.52,5.39.62l-2.93.88c-.77.23-1.67,1.3-2.47,1.99l.86-2.18-1.36-.21c-.34-.05-.82.76-.91,1.13l-1.13,4.72-.46-2.05-1.75.55c.65-1.2,2.27-1.37,2.18-2.06-.05-.35-.17-1.29-.16-1.26l-1.9.21,2.82-2.02c-1.33-.93-2.68-1.9-2.79-2.92,1.05-4.13,5.35-5.75,1.6-7.39l.92-.56c.47-.29,2.04,2.34-.16,4.54-1.05,1.05-1.72,2.92-.77,4.08.98,1.21,2.42.34,3.21-.54,1.19-1.33,1.79-2.66,1.38-4.28l1.02,1.95,2.93-2.24ZM20.23,46.1c-.39-.76-.31-2.51.27-3.25.31-.4,1.74-.65,2.07-.31.38.39.94,1.18,1.16,1.61-.77-.3-1.67-.77-2.05-.76-1.12.03-1.12,1.76-1.45,2.72ZM24.37,49.54l-2.55-2.73c-.07-.43-.12-1.34-.07-1.66,1.83.75,2.69,2.36,2.62,4.39ZM30.4,42.67c.28-.44,1.87-.36,2.22.03.82.89.74,2.58.25,3.4-.24-.83-.46-1.78-.81-2.47-.26-.52-1.79.13-2.54.43l.89-1.39ZM31.35,45.2c.17-.07.33,1.03.19,1.19l-2.68,3c-.06-2.3.86-3.51,2.49-4.19ZM26.6,19.73l-2.82,4.76c.12-2.52,1.5-4.17,2.81-5.95,1.48,2.04,2.58,3.8,2.76,6.08l-2.75-4.89ZM29.6,19.02c-.84-2.32-1.7-4.14-2.99-6.32-1.42,2.16-2.29,4.07-3.12,6.36-.79-2.43,1.55-5.65,3.1-7.71,1.17,1.84,3.84,5.64,3,7.68Z"/>
      <path class="cls-1" d="M12.53,39.96c-1.55-.5-2.78-1.03-4.39-1.94.51,2.7,3.86,6.62,2.16,8.17,2.69,1.92,5.5,1.86,6.73,5.93.07.22.36.81.57.83l.73.06,1.69,4.73,1.17-1.3,5.41,3.45,4.51-2.77c.37-.23.89-.73,1.08-.5l.9,1.06,1.78-4.69.64.48c.72-1.57,1.27-3.81,2.76-4.66l4.4-2.53c-.18-.59-.45-1.6-.3-1.97l2.34-5.79-4.09,1.44c-.29,1.6-.68,3.65-1.42,5.11-.64.03-1.16-.1-1.33.16l-.68,1.01c-2.15,3.19-2.18,5.35-2.81,5.29l-1.15-.11-1.65,3.18c-2.83-1.17-3.27,1.69-5,1.74-1.65.05-2.25-2.72-4.88-1.9l-1.68-3.02-1.41.07c-.25.01-.44-.83-.52-1.09-.46-1.58-1.33-2.82-2.12-4.19l-.71-1.25c-.15-.26-.94,0-1.36-.09-.73-1.33-1.09-3.49-1.35-4.89Z"/>
      <path class="cls-1" d="M6.94,17.27l1.11-3.88,1.13.58c-.93,1.22-1.71,3.11-1.15,4.55.47,1.2,2.11,2.32,3.05,2.87l1.01-3.63,4.57,4.86,1.03-3.69c-.95-2.56-2.56-4.85-4.94-6.44l-1.49,2.9.2-1.58c.79-.78.44-1.92-.27-2.6C7.98,8.11,6.33,4.33,5.41,0c-2.36,5.98-1.57,12.14,1.53,17.26Z"/>
      <path class="cls-1" d="M44.26,13.77c.1-.05.85-.41.88-.3l1.04,4.06c3.05-5.17,3.96-11.76,1.43-17.53-.75,4.56-2.42,8.13-5.46,11.14-.91.9-1.39,2.16-.21,3.16l.2.71c1.77,6.16-2.65-5.63-1.72-2.59-2.41,1.7-3.9,3.93-4.81,6.53l.93,3.54,4.56-4.62.91,3.65c1.27-.96,2.52-2.04,3.48-3.18l-.86-3.75c-.04-.17-1-.49-.85-.57l.46-.24Z"/>
      <path class="cls-1" d="M3.93,24.96l.17-2.25,3.73,2.24-1.18-5.52c-2.81-1.15-4.96-3.3-6.58-6.11-.39,4.46,1.03,8.59,3.87,11.65Z"/>
      <path class="cls-1" d="M52.99,13.34c-1.53,2.84-3.64,5.09-6.56,6.09l-.99,5.4,3.59-2.17.29,2.27c2.72-3.34,4.08-7.26,3.67-11.6Z"/>
      <path class="cls-1" d="M7.35,35.23l-1.69-3.42,1.55-.77c-.48-.91-1.13-2.19-1.77-2.43L.28,26.6c1.22,3.67,3.99,6.59,7.07,8.63Z"/>
      <path class="cls-1" d="M47.55,28.52l-1.6,2.57c.63.25,1.53.66,1.38,1.01l-1.53,3.45,3.36-3.01c1.73-1.55,2.9-3.72,3.62-5.91-1.85.84-3.33,1.43-5.22,1.88Z"/>
      <path class="cls-1" d="M3.11,36.71c1.4,1.78,3,2.84,5.15,3.31l-1.04-3.83-4.11.53Z"/>
      <path class="cls-1" d="M50.11,36.72l-4.16-.53-1.01,3.82c2.25-.53,3.85-1.72,5.16-3.29Z"/>
      <polygon class="cls-1" points="8.38 41.42 6.18 43.29 9.72 44.29 8.38 41.42"/>
      <polygon class="cls-1" points="44.71 41.37 43.43 44.3 46.86 43.31 44.71 41.37"/>
      <path class="cls-1" d="M38.43,43.9c.68-1.17.88-2.12.9-3.9-.95.62-1.58,1.09-1.8,1.6-.3.68.18,1.72.91,2.3Z"/>
      <path class="cls-1" d="M15.56,41.65c-.23-.42-.8-.89-1.62-1.51-.14,1.38.08,2.54.71,3.73.67-.54,1.22-1.66.91-2.22Z"/>
      <path class="cls-1" d="M36.79,42.28c-.85,1.23-1.12,2.72-.94,4.17,1.44-1.14,1.39-2.65.94-4.17Z"/>
      <path class="cls-1" d="M16.21,42.24c-.42,1.51-.07,3.02.73,4.21.59-1.82.25-3.06-.73-4.21Z"/>
    </g>
  </g>
</svg>