<?xml version="1.0" encoding="UTF-8"?>
<svg id="Warstwa_2" data-name="Warstwa 2" xmlns="http://www.w3.org/2000/svg" viewBox="0 0 57.52 60.73">
  <defs>
    <style>
      .cls-1 {
        fill: #fff;
      }
    </style>
  </defs>
  <g id="icon-v9-equipment-pixarts-store">
    <g id="icon-v9-equipment-pixarts-store_77">
      <path class="cls-1" d="M45.89,24.92c4.03-2.99,7.39-6.38,9.93-10.73.51-.86.53-2.29-.17-2.78-.52-.37-2.17-.55-2.66-.07l-5.77,5.67-6.22,5.35-.87-1.15,1.39-2.28c-1.57-1.13-2.95-2.33-4.39-3.87-1.47.31-.33,2.71-1.17,4.25l-.36-2.79-.63,1.26c-.8-1.19-1.78-2.12-3.4-1.81,1.27,2.01,2.29,4.37,3.97,6.07,3.78,3.8,7.91,6.98,12.61,9.86.07-2.19-.64-3.67-1.63-5.23l-2.2,1.11c-.13-1.29.56-2.13,1.56-2.87Z"/>
      <path class="cls-1" d="M24.41,16.73c3.82,7.53,10.74,15.73,16.94,21.14,1.02-.88,1.91-1.54,2.51-2.24,2.59-3.03.64-.08,3.43-3.25-3.83-2.41-6.88-4.73-10.1-7.53,1.35,3.23,4.05,5.18,5.97,8.42-5.21-3.62-11.38-14.78-14.66-20.99-1.28,1.66-2.45,3-4.08,4.45Z"/>
      <path class="cls-1" d="M36.1,42.43c-3.47-5.36-5.28-10.84-7.38-16.62-1.07-2.95-3.45-5.28-4.73-8.14-.4.36-1.22,1.18-1.15,1.56l.6,3.29c-.86-1,.07-2.72-1.73-3.46.43,5.48,4.41,14.87,6.9,20.04,1.26,2.61-.05,1.88,2.22,6.12,2.01-.83,3.64-1.61,5.27-2.79Z"/>
      <path class="cls-1" d="M7.23,54.04l4.68,3.21c-2.51-.38-4.44-1.79-6.18-3.44.59,2.84,10.81,8.01,11.7,6.73l3.11-4.46-6.87-2.68,1.61,2.15c-2.77-.68-3.88-2.69-5.56-4.39-2.61-2.64-5.31-5.3-6.78-8.58l-2.94,2.35c.76,2.98,4.74,7.4,7.23,9.11Z"/>
      <path class="cls-1" d="M51.21,3.93c-3.19-2.63-10.98,8.11-13.28,10.42,1.13,1.72,2.34,2.85,4.26,3.83,3.52-3.72,6.46-7.1,9.33-11.02.75-1.02.58-2.5-.3-3.23Z"/>
      <path class="cls-1" d="M27.21,38.73l-1.13-2.43c-4.69-1.69-9.16-3.59-13.36-5.99l-.92,3.71c5.6,4.12,9.82,6.58,16.88,8.8-.23-1.39-.87-2.54-1.84-3.79-.95.08-.78.06-.45-.04l.82-.25Z"/>
      <path class="cls-1" d="M9.33,27.05c-.75-3.21-1.82-8.31,1.51-10.46l-.53,3.68c4.62-6.17-2.38-10.3,7.51-17.16-2.66.57-4.68,2.41-6.31,4.52-1.04,1.35-1.34,3.21-1.4,4.94-.13,3.43-1.37,2.88-3.14,6.77-1.2-2.54-.47-5.26.79-8.08-3.86,2.82-3.36,8.75-1.36,12.9,1.69,3.5,1.94,7.06.79,10.99,2.01-2.26,2.83-5.05,2.12-8.1Z"/>
      <path class="cls-1" d="M24.88,49.96l1.54-1.65c-6.42-3.77-10.03-8.11-14.72-13.66-.45.31-1.12,1.09-.94,1.43l1.13,2.15-1.84-1.76c-.51.5-1.17,1.18-1.61,1.73,3.99,5.83,10.5,8.8,16.44,11.77Z"/>
      <path class="cls-1" d="M17.54,53.67l-7.63-12.65c-.47-.77-1.45-2.03-2.4-2.08-.62-.03-1.66,1.14-2.04,1.71,1.33,3.78,3.04,7.24,5.23,10.56l6.84,2.46Z"/>
      <path class="cls-1" d="M12.79,23.33c-.39,1.86-.16,4.28.31,6.22,3.96,2.38,7.79,4.04,12.29,5.38-.6-2.16-1.05-3.35-1.65-4.76-3.88-2.03-7.12-4.24-10.95-6.84Z"/>
      <path class="cls-1" d="M39.68.93c-3.44,2.04-6.46,4.48-8.53,7.9l5.03,2.73c1.91-2.64,3.69-4.68,5.73-6.85.75-.8,1.07-2.25.49-3.08-.44-.63-1.93-1.16-2.72-.7Z"/>
      <path class="cls-1" d="M49.25,40.7c-2.02,6.38-8.71,8.04-14.47,8.07-4.29.02-8.38,2.11-10.15,6.01,6.69-6.39,10.92-1.82,19.08-5.58,3.48-1.6,6.03-4.71,5.54-8.5Z"/>
      <path class="cls-1" d="M52.67,22.08c-1.51,1.71-3.27,2.93-5.2,4.06l1.69,4.35c2.6-1.14,9.94-7.76,8.06-9.93-1.07-1.24-3.44.25-4.55,1.51Z"/>
      <path class="cls-1" d="M20.88,55.64l3.49-5.03-11.02-5.87c1.78,3.46,4.3,9.3,7.52,10.89Z"/>
      <path class="cls-1" d="M20.26,24.04l.05-3.11-1.18,1.11,1.62-3.22c-3.09,1.02-5.31,1.98-8.21,3.47l5.39,3.66c1.68,1.14,3.26,2.06,5.27,3.07l-2.1-8.06-.85,3.08Z"/>
      <path class="cls-1" d="M50.25,35.95c-7.11,1.5-5.4,6.37-12.69,9.53,9.6-1.06,6.36-6.36,13.5-7.99,3.62-.83,6.24-3.94,5.64-7.51-1.05,3.57-2.84,5.21-6.46,5.97Z"/>
      <path class="cls-1" d="M30.18,45.52c-.67-1.59-1.36-1.85-2.63-2.19-4.1-1.1-7.73-2.97-11.4-4.96,3.23,3.81,6.62,6.86,10.74,9.41l3.29-2.26Z"/>
      <path class="cls-1" d="M15.93,13.85l-2.69,6.9,7.01-2.5c.43-.15.99-.66,1.08-1,.27-1.08-3.83-.09-3.72-1.24,1.48-.02,2.76.21,3.8.46,2.3-1.53-4.16-3.59-5.47-2.62Z"/>
      <path class="cls-1" d="M22.24,7.19c-2.2-1.81-2.29,2.53-5.11,5.36,1.81.36,3.38.95,5.03,1.91,2.1-2.02,2.31-5.43.08-7.27Z"/>
      <path class="cls-1" d="M35.41,33.28c-1.13-1.06-2.05-2.12-3.81-2.13.82,1.77,1.22,4.2,2.61,5.55,1.53,1.47,4.21,1.75,6.69,1.74l-5.49-5.16Z"/>
      <path class="cls-1" d="M34.13,15.44l1.75-2.99-5.22-2.8c-.84.7-1.41,1.93-1.14,2.67.83,2.22,2.15,3.05,4.61,3.12Z"/>
      <path class="cls-1" d="M2.08,39.09c3.4-1.85,4.36-5.63,2.91-8.86-.99-2.21-1.27-4.44-1.29-6.96-2.84,7.3,1.94,7.21-.36,12.78l-1.25,3.03Z"/>
      <path class="cls-1" d="M26.18,56.64c6-4.21,9.24,1.63,14.49-3.68-6.95,3.28-9.74-3.02-14.49,3.68Z"/>
      <path class="cls-1" d="M26.83,8.87l.54-1.2c.09-.19.47-.29.87-.51,1-3.19,2.72-5.21,5.26-7.15-4.93.7-6.47,5.23-6.67,8.87Z"/>
      <path class="cls-1" d="M39.78,39.22l-5.13-1.07,1.86,3.89c1.43-.97,2.26-1.63,3.27-2.82Z"/>
      <path class="cls-1" d="M7.4,47.54l-2.35-6.56-1.63,1.28c1.11,2.11,2.3,3.88,3.98,5.28Z"/>
      <path class="cls-1" d="M33.11,30.78l-2.38-2.57c.25,1.84.95,2.83,2.38,2.57Z"/>
    </g>
  </g>
</svg>