<?xml version="1.0" encoding="UTF-8"?>
<svg id="Warstwa_2" data-name="Warstwa 2" xmlns="http://www.w3.org/2000/svg" viewBox="0 0 19.73 55.92">
  <defs>
    <style>
      .cls-1 {
        fill: #fff;
      }
    </style>
  </defs>
  <g id="icon-v9-equipment-pixarts-store">
    <g id="icon-v9-equipment-pixarts-store_384">
      <path class="cls-1" d="M2.14,19.69c.27,1.41-.11,2.85-.58,4.45l-.98,3.37c-.23.8,1.09,2.61,1.87,2.7,1.34.11,2.7-1.33,3.9.36l-1.19-.2.63,3.76c.09.11.74-.14.7-.37l-.16-1.08c2.37.43,4.85.4,7.32-.1-.08.9-.13,1.69.28,1.8l.58-3.96-1.1.15c1.91-2.41,3.66,1.46,5.17-1.55l.7-1.39c.15-.3-.65-.95-.72-1.29-.15-.7-.25-1.97-.45-2.57-.58-1.73-.84-3.19-.16-4.8.1,1.85.21,3.39,1.17,4.71,1.2-3.43.63-7.3-2.05-9.75-4.1-3.74-10.63-3.59-14.61.26C-.17,16.73-.56,20.62.66,23.8l1.48-4.12ZM13.11,22.74c1.28-.31,3.3-.01,3.99,1.29.35.66.04,2.47-.49,3.14-1.03,1.31-5.06.41-5.3-1.89-.12-1.16.52-2.24,1.8-2.54ZM9.87,26.61c1.16.49,1.79,2.27,1.35,3.65-.11.34-.85-.07-1.43-.56.03-.04-.26.37-.36.5-.12.17-.81.21-.9,0-.41-.92.21-3.29,1.34-3.6ZM4.09,22.91c1.53-.48,3.62-.39,4.22,1.25.6,1.67-.66,3.12-2.45,3.45-.79.15-1.93.17-2.4-.14-.45-.3-.88-1.35-1-1.97-.27-1.44.39-2.2,1.63-2.6Z"/>
      <path class="cls-1" d="M11.89,9.31c2.4-1.17,3.32-3.5,2.65-5.82C13.94,1.39,11.94-.17,9.52.01c-2.13.16-4.12,1.74-4.45,4.11-.29,2.05.7,4.19,3.02,5.18,1.19-1.49-3.26-3.95-.28-6.77,1.11-1.05,2.98-1.13,4.2.06,2.9,2.82-1.46,5.15-.12,6.71Z"/>
      <path class="cls-1" d="M5.54,52.98c.17.21.55.33,1.2.48.42.1.8.68,1.07,1.31.63,1.47,3.48,1.58,4.1-.05.92-2.41,1.22-.41,2.19-1.73.18-.24-.12-1.06-.43-1.1l-1.92-.29c-1.14.93-2.87.96-3.91-.24-.37,1.08-3.5.11-2.3,1.61Z"/>
      <path class="cls-1" d="M5.83,49.13l.82.2c1.73.43.89,2.23,3.5,2.21,2.16-.02.46-1.48,3.64-2.37.15-.04.06-.69-.08-.75l-2.19-.87c-1.25.64-2.4.46-3.55.1-.31.1-.92.3-1.23.38l-.85.23c-.21.06-.28.82-.07.87Z"/>
      <path class="cls-1" d="M12.71,44.28c-.22-.06-.6-.4-.9-.69-1.06.59-2.74.55-3.84.14l-1.78.67c-.12.09-.23.81.01.87s1.14.22,1.28.43c.44.66,1.44,1.86,2.61,1.65.9-.16,1.75-1.04,2.33-1.76.12-.15,1.19-.15,1.17-.34l-.1-.82c-.02-.18-.31-.11-.77-.15Z"/>
      <path class="cls-1" d="M13.42,40.56l-1.89-.72c-1.27.59-2.33.41-3.54.05l-2.01.82c-.12.75,1,.89,1.39,1.23.88.77,1.56,1.55,2.78,1.45,1.41-.11.37-.49,3.37-2.01.17-.08.09-.74-.08-.81Z"/>
      <path class="cls-1" d="M8.33,38.89c1.43,1.32,3.09.43,4.15-.96l1.05-.31c.17-.05.05-.71-.11-.78l-1.65-.64c-1.16.22-2.59.18-3.69.04l-1.24.51-.94.39c-.87.36,1.13.52,2.44,1.74Z"/>
      <path class="cls-1" d="M9.03,7.29c-.19.75-.18,2.48-.01,3.12.63-.02,1.49.08,1.67-.23.2-.34.65-2.88-.35-3.13-.3-.07-1.23-.06-1.31.24Z"/>
      <path class="cls-1" d="M11.57,34.21l-.55-.87c-.78.41-1.38,1.47-.06,2.22.32-.42.77-1.09.61-1.34Z"/>
      <path class="cls-1" d="M9.18,33.27c-.24.18-.72.81-.76,1.14-.05.33.45.87.84,1.19.69-.9.59-1.7-.08-2.33Z"/>
      <path class="cls-1" d="M7.4,34.99c.46.57.69-1.78.33-1.7l-.7.15c-.13.03-.28.75-.2.85l.56.7Z"/>
    </g>
  </g>
</svg>