<?xml version="1.0" encoding="UTF-8"?>
<svg id="Warstwa_2" data-name="Warstwa 2" xmlns="http://www.w3.org/2000/svg" viewBox="0 0 51.74 58.48">
  <defs>
    <style>
      .cls-1 {
        fill: #fff;
      }
    </style>
  </defs>
  <g id="icon-v9-equipment-pixarts-store">
    <g id="icon-v9-equipment-pixarts-store_356">
      <path class="cls-1" d="M34.62,7.19l3.42,3.77c-.61-2.27-1.74-3.39-3.42-3.77Z"/>
      <path class="cls-1" d="M24.37,36.24c1.27-.15,1.28-2.2,1.59-1.62l.44.84c.17.32.79.93,1.11.84,2.2-.62-.57-6.91-1.7-6.55-1.28.41-3.51,6.73-1.45,6.48Z"/>
      <path class="cls-1" d="M21.48,30.89l-.24.79c2.03-.75,1.51-1.68,3.94-5.08.7-.99-.55-3.14-1.75-3.26l1.28,1.95c.19.29-.17,1.36-.51,1.35-1.3-.02-2.47-1.3-5.82-2.48-.81-.28-2.86.06-3.23.91-.66,1.51-.49,4.32.63,5.54,1.56,1.71,5.89-.39,5.69.28Z"/>
      <path class="cls-1" d="M28.53,29.62c.47,1.1,1.15,2.05,2.32,2.02l-.94-1.13c2.2.44,4.12,1.3,6.32.17.76-1.66,1.66-5.2-.12-6.15-.46-.25-1.85-.62-2.36-.39l-5.86,2.63c-.65-.14-1.06-1.79-.63-2.19l1.65-1.53c-1.47-.3-3.03,2.18-2.26,3.39.67,1.05,1.39,2.02,1.88,3.17Z"/>
      <path class="cls-1" d="M51.74,39.72c-.03-3.99-3.28-7.05-4.35-10.54l-.55,2-4.61-17.79c-.99-3.83-3.42-6.85-6.67-8.93-3.55-2.28-8.52-5.81-12.35-3.91-5.22,2.58-12.08,6.12-13.28,12.34l1.7-.97c-1.69,2.54-2.84,4.82-3.57,7.66l-3,11.62-.06-3.03L.6,37.27c-1.02,2.12-.58,3.7.15,5.72,1.81,4.96,5.21,8.13,10.16,9.98,2.31.86,4.35,2.43,6.91,2.86-5.26-4.05-11.18-4.75-13.82-12.38-1.39-4.03,1.57-5.76,3.04-10.77,1.28-4.37,2.89-12.27,6.28-14.73-1.82,3.19-3.42,6.16-4.13,9.77-2.26,11.48-7.23,12.61-2.59,18.11.05-1.31-.52-3.11-.16-4.22l4.2-12.92c3.06-9.43,4.85-10.53,13.65-16.14,1.08-.69,3-.29,3.89.31,3.75,2.51,8.63,5.5,10.43,9.37,3.33,7.15,3.5,10.71,6.34,17.38.83,1.96.75,3.89.39,6.24,4.2-5.35.58-6.96-.55-10.88l-2.84-9.85c-.75-2.61-1.99-4.79-3.29-7.19,5.34,5.56,4.37,12.72,8.65,20.11,3.14,5.41-2.43,11.72-7.49,14.28-2.02,1.02-3.91,2.06-5.52,3.53,4.04-1.58,7.65-2.96,11.19-5.34,3.18-2.14,6.29-6.85,6.26-10.79ZM34.62,7.19c1.69.38,2.81,1.5,3.42,3.77l-3.42-3.77Z"/>
      <path class="cls-1" d="M12.14,31.32c.02.43.46,1.29.74,1.71,2.25,3.41,4.15.29,6.64.96.64.17,1.33,1.14,1.25,1.84-.66-.63-1.46-1.23-2.06-1.27.97,1.38,1.26,2.69,1.27,4.24l1.67.7,1.96.17.68.05c.91.07-.54-.19-.35,2.49.02.36,1.07.52,1.36.32.24-.16.46-.61.58-.93l-.98-2.04,1.68.89-.35,1.62c-.07.31.67.62.98.65,1.69.13.16-2.44.96-2.81l1.54-.71-1.08,1.75c-.16.25.39,1.26.68,1.15.64-.24.54-1.52.56-2.26.01-.56,1.61-.9,1.96-.86l.87-4.22-1.58,1.47c.84-5.04,4.74.1,7.14-2.22.78-.75,1.82-2.28,1.09-3.26-2.75-3.67,1.69-2.47-3.2-8.74-.55-.71-1.22-1.73-1.89-2.18l-7.39-4.93c-.69-.46-2.48.12-3.12.58l-5.68,4.12c-.38.28-1.24.73-1.21,1.14l.13,2.01-1.42-.78c-3.69,3.9-1.47,6.39-2.43,7.77-.36.51-1.05,1.14-1.02,1.58ZM28.9,23.06l-1.65,1.53c-.43.4-.02,2.05.63,2.19l5.86-2.63c.51-.23,1.9.14,2.36.39,1.78.96.88,4.49.12,6.15-2.2,1.13-4.11.27-6.32-.17l.94,1.13c-1.16.03-1.85-.92-2.32-2.02-.49-1.14-1.21-2.11-1.88-3.17-.77-1.21.79-3.68,2.26-3.39ZM25.82,29.76c1.13-.36,3.9,5.92,1.7,6.55-.32.09-.95-.53-1.11-.84l-.44-.84c-.31-.58-.32,1.46-1.59,1.62-2.06.25.17-6.07,1.45-6.48ZM15.16,25.07c.37-.85,2.42-1.19,3.23-.91,3.36,1.18,4.52,2.46,5.82,2.48.34,0,.7-1.06.51-1.35l-1.28-1.95c1.2.13,2.45,2.28,1.75,3.26-2.43,3.41-1.9,4.33-3.94,5.08l.24-.79c.2-.67-4.12,1.43-5.69-.28-1.12-1.22-1.29-4.04-.63-5.54Z"/>
      <path class="cls-1" d="M17.05,36.18l-.5,1.94-.9-1.89.74,8.12c6.55,5.57,3.24,6.07,9.9,6.42,5.27.28,4.44-2.76,9.28-6.33l.72-8.23-.97,1.99-.35-1.99c-1.79,2.18.45,6.74-4.99,8.65l-1.53.54c-2.62.92-4.57.41-6.91-.79-4.85-2.48-3.1-4.33-4.48-8.42Z"/>
      <path class="cls-1" d="M7.53,44.05c-.29,3.12,1.81,5.6,4.47,6.97,3.45,1.78,6.32,3.8,9.51,6.13,2.4,1.75,6.83,1.79,9.16-.07,2.98-2.38,5.72-4.23,9.05-5.89,2.8-1.4,4.79-4.09,4.41-7.27-4.89,9.04-8.43,5.87-13.88,11.41-2.41,2.45-6.19,2.51-8.54.02-4.88-5.18-9.08-2.44-14.19-11.31Z"/>
      <path class="cls-1" d="M25.66,43.8c-.28-.23-.83-.38-1.57-.55-.01.92.28,1.85.85,2.02.42.12,1.06-1.19.72-1.47Z"/>
      <path class="cls-1" d="M27.78,44.53c.09-.26-.04-1.19-.31-1.17-.37.04-1.02.27-1.09.56-.08.29.1,1.25.39,1.33.33.09.91-.4,1.01-.73Z"/>
      <path class="cls-1" d="M22.7,40.03c-.96.67-1.25,1.79.28,2.28.35-.77.25-1.7-.28-2.28Z"/>
    </g>
  </g>
</svg>