<?xml version="1.0" encoding="UTF-8"?>
<svg id="Warstwa_2" data-name="Warstwa 2" xmlns="http://www.w3.org/2000/svg" viewBox="0 0 56.31 58.83">
  <defs>
    <style>
      .cls-1 {
        fill: #fff;
      }
    </style>
  </defs>
  <g id="icon-v9-equipment-pixarts-store">
    <g id="icon-v9-equipment-pixarts-store_87">
      <path class="cls-1" d="M28.82,38.63l2.65-2.15c4.64-3.76,1.56-7.17,1.25-11.95-3.39,1.44-6.91,2.34-10.52,2.86-1.76.26-3.33.93-4.52,2.23,5.34.84,9.35,4.19,11.14,9.01Z"/>
      <path class="cls-1" d="M13.91,45.52c-.94-3.75-3.32-5.83-6.71-6.69-1.8.22-4.77,1.43-5.07,3.13-.08.47.27,1.55.6,1.91,2.98,3.22,7.39,3.53,11.18,1.66Z"/>
      <path class="cls-1" d="M33.38,15.55c-6.18-1.18-11.47-3.98-15.66-8.61-.55,2.68.82,4.73,2.93,6.16,3.85,2.62,7.67,4.85,12.66,5.29l.07-2.84Z"/>
      <path class="cls-1" d="M17.45,5.6c1.55,2.08,13.21,1.8,15.66.75l.43-2.7c-6.26.91-11.33,1.04-16.59-.97.03.93.11,2.39.51,2.92Z"/>
      <path class="cls-1" d="M17.36,1.58c4.19,2.53,14.46,1.95,19.08.13-2.52-2.4-16.48-2.14-19.08-.13Z"/>
      <path class="cls-1" d="M21.44,43.76c.41-3.81-.66-11.48-4.97-13.37l-2.24,1.39c3.92,3.15,4.72,8.55,4.91,13.66.69-.18,2.21-1.02,2.29-1.68Z"/>
      <path class="cls-1" d="M25.7,25.92c2.73-.6,5.12-1.51,7.45-2.75v-3.37c-4.16,2.39-8.21,3.57-12.92,4.62l-1.16,2.97,6.63-1.47Z"/>
      <path class="cls-1" d="M18.15,46.08c-.77-2.36-1.38-4.63-2.85-6.54-1.44-1.87-3.9-3.78-6.29-3.12-.78.22-1.99.93-2.94,1.41,5.88.82,7.92,3.43,9.1,9.52l2.98-1.28Z"/>
      <path class="cls-1" d="M2.59,49.81c5.95,2.85,13.3,1.33,17.6-3.49-7.2,2.94-14.78,5.06-20.19-.02-.05,1.71,1.17,2.83,2.59,3.51Z"/>
      <path class="cls-1" d="M25.5,40.87c1.11-.56,1.78-.94,2.55-1.49-1.21-4.62-4.92-7.84-9.66-8.65,3.22,5.86,5.85,4.6,7.11,10.15Z"/>
      <path class="cls-1" d="M20.74,23.43c4.33-1,8.1-2.29,11.73-4.18l-5.2-1.35c-2.12,1.3-4.22,2.45-6.45,3.33-.31.45-.34,1.72-.08,2.2Z"/>
      <path class="cls-1" d="M26.51,12.42c2.6-1.71,4.62-3.01,7-4.96-2.57.19-4.66.36-6.83.85l-5.07,1.13c1.35,1.06,3.14,2.23,4.9,2.98Z"/>
      <path class="cls-1" d="M14.66,33.45c-1.49.46-2.62,1.04-3.82,2.04,3.85,1.14,5.8,3.99,7.37,7.78-.03-3.57-1.12-6.95-3.54-9.83Z"/>
      <path class="cls-1" d="M.03,44.82c1.34,4.51,12.48,4.46,14.17,2.26-11.02,2.58-12.11-3.44-13.44-3.48-.29,0-.82.91-.73,1.23Z"/>
      <path class="cls-1" d="M15.04,18.63c-.13,1.29.65,2.63,1.8,3.11.48.2,1.95-.09,2.19-.51.23-.41.09-.97.04-1.7-.06-1.42.12-3.14-1.15-3.78-.78,2.67-2.42,2.72-.09,5.5-1.27-.11-1.84-1.39-1.71-2.36.1-.79.67-1.82,1.23-2.92-1.52-.23-2.19,1.54-2.3,2.67Z"/>
      <path class="cls-1" d="M33.8,11.25l-.74-.86c.24-.4.42-1,.41-1.57l-6.03,3.87c1.92,1.49,3.55,1.45,5.44-.04.33-.26,1.17-1.11.92-1.4Z"/>
      <path class="cls-1" d="M20.66,17.32c-.43.24-.9,1.1-.96,1.55-.06.45.72,1.54,1.22,1.38,1.7-.52,3.78-1.61,5.22-2.87l-2.86-1.56-2.63,1.49Z"/>
      <path class="cls-1" d="M24.48,40.54c-.33-1.8-1.58-3.34-2.92-4.51l1.03,5.81c.32.08,2-.69,1.89-1.29Z"/>
      <polygon class="cls-1" points="19.89 16.83 22.59 15.37 19.28 13.05 19.89 16.83"/>
      <path class="cls-1" d="M22.16,8.56l2.57-.45-5.36-.55c.73.91,1.8,1.18,2.79,1Z"/>
      <path class="cls-1" d="M17,14.98c.75-1.32.72-2.55.44-4.35-.61,1.29-.73,2.74-.44,4.35Z"/>
      <path class="cls-1" d="M46.2,32.3c-1.35-2.31-.57-5,1.25-6.7l-4.61-1.49c-1.34.1-3.25.54-4.92.84-.17.55-.22,1.75-.11,2.48,4.25,3.68,6.77,8.66,8.08,14.06l3.56,3.2c.59-4.17,1.52-7.28,3.16-10.81-2.51,1.05-5.16.58-6.42-1.58Z"/>
      <path class="cls-1" d="M18.54,51.75l1.89.54c5.14,1.47,10.4,2.71,15.55.54-2.83-4.31-7.36-6.43-12.09-6.51-2.01.96-4.32,2.2-5.78,3.55-.28.36-.01,1.76.42,1.89Z"/>
      <path class="cls-1" d="M55.76,45.18c-.93.57-1.78,1.13-2.74,1.6-3.97,1.96-7.6,3.98-11.38,6.31-6.97,4.29-18.36,5.32-25.21,1.05-.08,1.4.91,2.54,2.31,3.02,5.65,1.92,11.55,2.21,17.24.71,5.57-1.47,9.45-6.32,13.89-7.66,2.16-.65,6.97-2.13,5.88-5.04Z"/>
      <path class="cls-1" d="M49.79,47.38c-2-6.14-14.98-12.09-19.73-7.74l-2.17,1.99c5.81-1.59,16.39,1.08,18.47,7.54l3.43-1.79Z"/>
      <path class="cls-1" d="M55.98,4.41c-.37-2.91-20.74-2.28-20.94.14,6.77,2.45,14.16,2.62,20.94-.14Z"/>
      <path class="cls-1" d="M37.28,54.21l3.17-1.53c-.36-4.18-7.44-9.95-10.15-8.78-.75-.66-1.85-.96-3.08-.97l-4.18,2.33c5.85-.18,12.76,3.09,14.24,8.95Z"/>
      <path class="cls-1" d="M42.35,7.17c-.5-.06-1.51.39-1.6.59-.35-.45-.96-.9-1.68-.89,2.03,3.95,5.52,7.49,10.04,7.65-2.65-1.05-4.89-1.87-6.7-3.91,4.67.43,8.88.17,13.3-1.67l.59-3.61c-4.68,1.87-9.05,2.4-13.96,1.84Z"/>
      <path class="cls-1" d="M41.37,38.85l3.29,1.61c-1.04-4.98-3.69-8.79-7.37-12.26-.39,1.21-.67,2.34-.83,3.37,2.21,2.19,3.53,4.43,4.91,7.28Z"/>
      <path class="cls-1" d="M35.72,13.55c.04,1.32-.08,3.73.8,4.7,2.36,2.62,5.28,4.47,8.45,5.75,1.28.52,2.98,1.18,3.97.19-3.31-1.58-5.74-3.18-8.18-5.29l-5.03-5.35Z"/>
      <path class="cls-1" d="M41.32,45.07c-3.34-2.41-7.43-3.46-11.57-2.87,5.13,1.58,9.35,3.89,11.38,9.52.41-1.97.8-4.59.18-6.65Z"/>
      <path class="cls-1" d="M35.62,10.36c.46,2.18,1.58,4.57,3.62,5.15,1.94.55,4.29-.53,6.05-1.07-1.38-.84-2.8-2.34-3.97-2.64l-5.7-1.45Z"/>
      <path class="cls-1" d="M50.74,20.92c-1.42.05-2.54-.74-3.01-2.43l-4.26,1.4c1.62,1.43,3.29,2.76,5.27,3.02,2.15.28,4.32-1.02,4.7-3.11l.78-4.29-1.44.7c-.28.14.23,1.13.26,1.47.17,1.5-.74,3.19-2.3,3.25Z"/>
      <path class="cls-1" d="M54.27,42.53c-.04-2.51-.29-4.44-1.5-6.6-1.51,3.15-2.11,6.04-2.48,9.45,1.68-.48,2.9-1.33,3.97-2.84Z"/>
      <path class="cls-1" d="M46.34,15.11l-6.48,1.71,2.65,2.37c2.76-1.11,5.5-.79,6.38-3.71-.76-.26-1.91-.53-2.55-.36Z"/>
      <path class="cls-1" d="M16.59,53.21l1.01.86c5.93,2.3,12.71,2.66,18.48.33-5.52.97-10.34,1.35-15.19-.81-1.53-.09-2.74-.74-3.95-1.64-.21.2-.6,1.04-.35,1.25Z"/>
      <path class="cls-1" d="M49.87,23.31c-.3.98-.04,2.25-.63,2.53-1.48.7-2.65,2.24-2.65,3.81,0,1.41.86,3.14,2.53,3.67,2.46.78,4.57-1.18,4.76-3.26.2-2.23-1.23-3.9-3.43-4.31l-.58-2.44ZM52.6,27.62c.7,1.14.73,2.67-.18,3.82-.96,1.22-2.08,1.63-3.34,1.19-1.06-.37-1.95-1.71-1.76-3.1.16-1.18.95-2.55,1.8-2.87,1.2-.45,2.87-.03,3.49.97Z"/>
      <path class="cls-1" d="M39.97,38.14c-.84-1.87-2.11-3.9-3.57-5.14l-2.85,4.1,6.42,1.04Z"/>
      <polygon class="cls-1" points="34.82 5.56 35.09 9.29 40.37 10.6 38.06 6.68 34.82 5.56"/>
      <path class="cls-1" d="M42.19,45.14l-.4,6.66c.67-.36,1.82-1.04,2.02-1.54l.12-1.5c.46.83.58,1.18.74,1.07l.71-.5c-.37-1.62-1.73-3.48-3.18-4.18Z"/>
      <path class="cls-1" d="M49.5,19.73c.59.4,1.9.33,2.41-.2.43-.44.63-1.67.29-2.3-.15-.28-.82-.82-1.06-.71l-1.19.52,1.02-1.54-.52-2.33c-.08.05-.63.36-.56.53l.39,1-1.37,2.84c-.27.55.08,1.84.59,2.18Z"/>
      <path class="cls-1" d="M52.81,11.01l-7.81.82c1.94,2.4,5.71,1.12,7.81-.82Z"/>
      <path class="cls-1" d="M36.83,20.18c.01,1.54.18,2.59.52,3.93l3.89-.88-4.42-3.05Z"/>
      <path class="cls-1" d="M51.87,15.4c.99-.25,2.83-.85,3.18-1.91.31-.96.32-2.17.28-2.72l-3.46,4.63Z"/>
      <path class="cls-1" d="M55.34,42.88c-1.33,1.68-2.98,2.76-5.1,3.99.57.36,6.67-2.34,5.1-3.99Z"/>
      <path class="cls-1" d="M53.39,21.78c-.97.86-1.72,1.77-2.18,2.77,2.22.07,2.6-1.6,2.18-2.77Z"/>
      <path class="cls-1" d="M51.56,14.49c.82-.79,1.53-1.69,2.18-2.87-1.13.62-2.08,1.49-2.18,2.87Z"/>
      <path class="cls-1" d="M49.46,27.29c-.98.12-.99,1.79-.41,2.64.35.5.97.77,1.86,1.05-.72.62-1.74-.22-2.56-.68.06,1.15,1.23,1.63,2.04,1.61.61-.01,1.85-.59,1.96-1.14-.27-1.39-1.13-3.67-2.89-3.47Z"/>
    </g>
  </g>
</svg>