<?xml version="1.0" encoding="UTF-8"?>
<svg id="Warstwa_2" data-name="Warstwa 2" xmlns="http://www.w3.org/2000/svg" viewBox="0 0 54.99 60.41">
  <defs>
    <style>
      .cls-1 {
        fill: #fff;
      }
    </style>
  </defs>
  <g id="icon-v9-equipment-pixarts-store">
    <g id="icon-v9-equipment-pixarts-store_353">
      <path class="cls-1" d="M16.17,32.58c1.15.62,2.99.6,3.73-.05-1.57-.1-2.77-.15-3.8-.73-.78-.44-1.26-1.96-1.56-2.88-.5,1.52.43,3.02,1.62,3.66Z"/>
      <path class="cls-1" d="M41.26,21.62c-1.96-.69-3.23-1.23-4.65-2.18.62,1.8,2.92,3.48,4.65,2.18Z"/>
      <path class="cls-1" d="M44.46,19.16c-1.52.24-3.16,0-4.11-1.35-1.07-1.5-1.4-3.17-1.6-5.08-1.09.37-1.87,1.36-2.39,2.44l.08-2.06c-2.26-.26-3.72,2.09-3.4,4.06l-3.77,2.19c.42-1.06,1.48-1.97,1.99-2.79l2.54-4.04c-5.49-1.38-4.89-3.63-8.16-1.77l-2.79,1.59c-.28.16-1.55-.26-1.45.04.45,1.35.74.87,2.4,4.29.5,1.03,2.21,1.8,2.06,3.24-.9-1.21-2.33-2.08-3.85-2.74.49-2.08-1.21-4.19-3.43-4.2l.22,2.23c-.77-1.22-1.55-2.37-2.7-2.42.12,2.13-.24,4-1.66,5.4-.98.97-2.23,1.07-3.8,1.18.19.36.77,1.15,1.16,1.29.39.14,1.29-.11,1.68-.28l.76-.33c.64-.28-.57,1.01,0,1.09,1.13.17,3.08-.79,4.17-1.75-.44,1.89-2.62,3.11-4.4,2.58l-.02-.81c0-.17-.83.09-.99.21-.85.6-1.25,1.97-.83,2.88.45.97,1.41,1.67,2.43,1.83l4.54.7-.18-.99c-.03-.14.39.03.49.15l.48.63c.1.14.44-.19.52-.35l.49-1.03.38,2.85c.22,1.6,2.15,2.09,3.09,1.71,1.46-.59,2.15-2.19,1.32-3.76-1.04-1.95-2.75-3.46-4.24-5.33,2.95,2.07,6.33,4.51,5.68,8.36l-2.02,1.71.93,1.37c-1.25-.4-2.03-.66-3.03-.11l2.01,1.62c-3.63-1.5-6.04,3.04-6.01,3.33.05.51.58,1.36,1.01,2.12l-1.36-.46c-.16,2.06,1.53,4.54,3.94,4.6,1.4.04,2.87-.52,4.32-1.09l-2.1-2.41c-1.12-.3-2.05-.64-2.4-1.23-.41-.7-.42-1.91.09-2.52,1.51-1.77,3.36,1.86,6.84.15.82-.4,2.21-.78,3.05-.29.76.45.55,2.16.03,2.92-1.29,1.93-1.93-.7-4.35,3.43,1.33.55,2.83,1.08,3.95,1.11,2.48.06,3.88-2.44,4.5-4.92l-1.87,1.12c.52-.85,1.25-1.9,1.19-2.61-.08-1.01-2.71-4.46-5.78-3.34l1.84-1.29c-.73-1.05-1.78-.76-3.03-.06l.65-1.59-1.67-1.55c-.4-3.65.94-4.74,3.41-6.65l-2.09,3.6c-.77,1.33-.08,2.88,1,3.58.82.52,3.22.55,3.18-1.12-.08-3.42-3.33-7.28-.9-7.29.07,2.4,1.23,4.44,2.47,6.34.23-1.42.56-2.37,1.53-3.08l-.47,2.2,3.86-.39c1.7-.17,3.18-1.33,3.19-3.22,0-1.19-1.32-2.01-2.36-2.49,1.52.32,3.33.45,3.72-1.34ZM41.26,21.62c-1.74,1.3-4.03-.38-4.65-2.18,1.42.95,2.69,1.48,4.65,2.18Z"/>
      <path class="cls-1" d="M35.4,54.77c.22-2.95.44-5.74,1.45-8.47l.16,3.67c1.46-2.76,2.3-4.72,4.06-6.88-.36-1.33-.68-2.35-1.63-3.88l-1.33,4.38-.48-2.95c-1.21,1.47-1.29,3.14-1.74,4.97-.64,2.59-1.23,4.98-1.65,7.63-.11.7-.49,1.56-.96,1.79-.4.2-1.68.26-2.18,0-5.56-2.84-9.47,2.98-10.2-1.79-.42-2.72-2.07-10.4-3.39-12.67l-.66,3.19-.96-4.38c-1.51,1.29-1.86,2.92-1.57,4.07,1.78,2.09,2.66,4.13,3.66,6.67l.27-3.53c.82,2.41,1.41,4.7,1.21,7.35-.08,1.08.75,1.97,1.71,2.53,2.44,1.41,4.49-2.27,9.83.03,1.44.62,4.27.24,4.42-1.75Z"/>
      <path class="cls-1" d="M9.64,51.02c.31-1.64.58-2.98,1.39-3.81.92-.94,2.25-.98,3.77-.96l-2.26-3.05c.38-.93.92-2.03.7-2.46s-.75-.88-1.54-1.6l-2.09,4.6c-.03-1.05.21-2.39.69-3.28,2.66-4.97-4.24-4.99-.52-10-.74-.49-2.29-.61-2.94.13-.81.93-1.38,1.98-1.89,3.06l1.61-.07c-1.44,2.54-2.58,4.85-2.04,7.58,1.46-1.65,2.74-2.97,4.51-3.74-2.15,4.62-1.97,9.62.61,13.61Z"/>
      <path class="cls-1" d="M50.67,41.5c.26-3.01-.63-5.19-2.21-7.96l1.7.02c-1.4-2.23-1.78-4-4.75-3.3l1.29,3.13c-1.04,2.56-3.6,3.66-2.24,6.29.69,1.33,1.07,2.77,1.02,4.09l-2.33-4.63-1.62,1.73c.41.94.95,2.44.54,3.02l-1.68,2.33c1.55,0,2.81.16,3.84,1.22.71.73.98,2.18,1.28,3.57,2.53-4.32,2.59-9.27.4-13.92,2.02,1.23,3.47,2.62,4.75,4.41Z"/>
      <path class="cls-1" d="M8.97,16.56c.86,1.04,2.13,2.03,3.28,1.03-2.98-2.66-5.24-5.89-4.75-9.81.74,4.57,2.46,6.16,6.26,9.53,1.5-1.31,2.1-3.71.73-4.8l-2.88-2.31c-.15-.12-.59-.38-.73-.48-.14-.1.05-.67.05-.87C9.57,5.92,10.05,2.73,12.24,0c-3.46,1.11-5.44,4.33-6.08,7.27-.76,3.49.66,6.67,2.82,9.29Z"/>
      <path class="cls-1" d="M46.43,16.04c2.03-2.71,3.29-5.92,2.23-9.6-.71-2.45-2.48-5.49-5.78-6.43,2.6,2.91,2.47,6.18,1.22,9.82l-3.99,3.05c-.74,1.31.13,3.29,1.26,4.29,4.33-3.54,4.79-4.96,6.12-8.88.25,4.19-2.1,6.82-4.71,9.42,1.73.71,2.77-.49,3.65-1.67Z"/>
      <path class="cls-1" d="M14.59,34.63l3.65,1.1c1.08-.92,2.17-1.75,3.39-2.44l.47-1.76c-2.51.43-4.79.16-5.88-1.89-.32-.61-.54-2.05-1.11-2.26-.7-.26-1.79-.45-2.48-.42l-2.92,6.28,3.82,5.68c.94-1.2,2.26-1.65,3.61-1.16,1.83-3.28-2.45-.45-4.33-3.32-.59-.9-1.02-2.27-.66-3.3.71,1.15,1.27,3.14,2.45,3.5ZM14.54,28.92c.3.92.78,2.44,1.56,2.88,1.03.58,2.23.63,3.8.73-.73.65-2.58.66-3.73.05-1.2-.65-2.13-2.14-1.62-3.66Z"/>
      <path class="cls-1" d="M9.06,28.7l-1.87-1.68,2.32.21-1.9-1.78c1.03-1.74-4.8-1.89-6.15-5.31,1.43.85,2.85,1.75,4.45,2.05,4.35.81,4.99,6.2,5.28,4.53.02-.15.13-.65.1-.83l-.66-4.02c-.54-3.32-6.44-.06-10.64-4.58-.04,3.78,2.06,6.92,5.08,8.76l-1.01.8c1.47,1.55,3.24,2.3,5,1.84Z"/>
      <path class="cls-1" d="M54.99,17.35c-2.06,1.82-4.07,2.95-6.92,2.63-1.29-.14-3.45.59-3.66,1.94-.21,1.34-1.2,5.53-.38,4.93,1.2-2.41,2.5-3.77,4.89-4.59l4.07-1.39c-.88,2.1-5.72,3.21-5.38,3.72l.37.55-2.21,1.8,2.11.2-1.8,1.57c2.17.27,3.83-.57,5.11-2.04l-1.43-.6c3.12-1.75,5.17-4.93,5.24-8.73Z"/>
      <path class="cls-1" d="M38.03,37.62c1.31-.44,2.59.22,3.53,1.26l3.86-5.63-3.21-6.53c-2.92.49-3.19,1.52-3.49,4.57.7-.34,1.06-.67,1.62-1.18-.17.64-.66,1.67-.57,2.18s.87,1.19,1.43,1.72l1.86-2.92c.1.69,0,1.77-.33,2.34l-1.47,2.62c-1.29-.23-2.52-.25-3.22-.03-.29.09-.85,1.01-.63,1.16l.62.44Z"/>
      <path class="cls-1" d="M25.48,57.04l-3.39,1.06,1.63,1.42c.28-.44.49-.9.68-.77l.82.55c.69.46,2.17,1.36,2.86,1.04.81-.38,1.75-.98,2.51-1.47.32.08,1.02.45,1.26.21l1.04-1.01-3.06-.91c-1.47-.44-2.9-.56-4.35-.11Z"/>
      <path class="cls-1" d="M31.56,38.43c.46.17.62-1.26.41-1.7-.75-1.57-3.06,2.15-7.5-.17-.38-.2-1.46-.01-1.52.36-.05.37.28,1.27.61,1.44.28.14.69-.19,1.37-.5l2.34,3.25c2.15-.34,1.5-4.31,4.29-2.67Z"/>
      <path class="cls-1" d="M32.88,31.64c.99,2.07,2.54,3.1,4.05,4.12,1.15-.6,1.99-.85,3.57-1.22-.24-.36-1.23-1.38-1.73-1.65-1.22.25-2.49.36-3.27.09l1.25-.98-3.88-.35Z"/>
      <path class="cls-1" d="M22.78,44.33l-2.31-.53c.34,1.9.74,3.36,1.98,4.74l.33-4.21Z"/>
      <path class="cls-1" d="M32.32,44.45l.32,3.85c1.39-1.21,1.84-2.61,1.82-4.65l-2.14.79Z"/>
      <path class="cls-1" d="M32.97,50.2l-2.12,3.46,1.13.71c.61.38,1.98-1.91.99-4.17Z"/>
      <path class="cls-1" d="M23.64,54.22c.33-.23.23-1.23-.02-1.62l-1.61-2.47c-.21,1.04-.29,2.55.08,3.61.15.41,1.22.72,1.55.48Z"/>
      <path class="cls-1" d="M29.35,43.92c.12-.27-1.12-.69-1.3-.45-.34.46.13,1.67.6,2.05l.7-1.6Z"/>
      <path class="cls-1" d="M30.26,43.95c-.43,0-.24,1.26.21,2.1l.86-1.38c.15-.25-.68-.73-1.07-.72Z"/>
      <path class="cls-1" d="M25.78,44.19l.71,1.47.73-2.44c-1.15.4-1.57.69-1.43.97Z"/>
    </g>
  </g>
</svg>