<?xml version="1.0" encoding="UTF-8"?>
<svg id="Warstwa_2" data-name="Warstwa 2" xmlns="http://www.w3.org/2000/svg" viewBox="0 0 53.81 54.19">
  <defs>
    <style>
      .cls-1 {
        fill: #fff;
      }
    </style>
  </defs>
  <g id="icon-v9-equipment-pixarts-store">
    <g id="icon-v9-equipment-pixarts-store_14">
      <path class="cls-1" d="M36.02,7.92c-.32-1.65-1.87-3.1-3.39-3.58-3.59,2.48-8.03,2.22-11.69.01-1.72.54-3.33,2.29-3.28,4.15.12,4.18,4.5,6.27,2.17,11.46-.94-.69-2.3-1.56-3.45-.99-1.68.83.64,3.7-.28,4.53l-3.65-1.45c-1.23,1.42-.6,2.96.35,4.33,3.64,5.2,6.6.36,12.12-.88.88-1.21,1.52-3.65,1.09-5.16-.58-2.01-2.37-2.81-4.05-4.05,2.75-.54,4.13,2.99,4.87,2.83.75-.16,2.48-3.22,4.48-2.69-1.42,1.28-3.05,2.11-3.61,3.81-.54,1.62.14,4.01,1.05,5.34,6.75,1.33,7.48,5.55,11.5,1.62,1.41-1.38,2.32-3.37,1.11-5.12l-3.92,1.3c.19-1.7.72-3.28.3-4.22-1.3-.98-2.71.11-3.86.93-2.44-5.62,2.9-8.28,2.14-12.19ZM32.54,10.44l-3.2,1.91c-1.03.61-1.69,2.19-2.44,3.19-.91-1.08-1.64-2.73-2.78-3.39-1.63-.94-4.18-1.74-4.26-4.1-.03-.84.49-1.87,1.28-2.36,3.42,2.45,7.91,2.13,11.47.12,1.7.88,1.52,3.66-.08,4.62Z"/>
      <path class="cls-1" d="M19.22,41.4c1.35,1.85,2.06,3.81,2.88,6.03.62,1.66,3.17,2.64,4.74,2.58,5.41-.19,4.66-4.4,6.93-7.45,1.13-1.52,2.13-2.93,1.81-5l-2.6,2.46c-.07-2.5,2.91-2.32,2.34-5.31l-.84-4.43c-.32-1.68-2.9-2.62-4.4-2.92-3.03-.62-2.91-3.53-3.38-2.76l-.4.66c-.46.75-.91,1.62-1.81,1.87-1.72.49-4.6.97-5.03,3l-.96,4.58c-.54,2.58,1.91,2.58,2.24,4.99l-2.59-2.07c-.21,1.4.26,2.65,1.07,3.77ZM26.74,47.34l-2.03.17.64-.73,3.9.18c-.85,1.09-1.66.3-2.5.38ZM29.71,46.2c-1.55-1.67-3.4-1.62-5.42-.4-1.22-2.13-.89-5.28.91-6.96.67-.63,2.97-.64,3.62,0,1.86,1.85,1.84,4.82.89,7.35ZM28.27,31.32c.24-.43,1.2-.62,1.82-.57,1.86.67,3.15,2.02,3.23,4.4-2.02.29-6.12-1.97-5.06-3.84ZM26.59,35.2c1.09-.16,1.9.34,1.86,1.51-.09.29-.88-.06-1.45-.36l-1.68.57c-.05-.94.68-1.64,1.27-1.72ZM20.49,35.17c-.24-2.58,2.06-4.71,4.64-4.24.6.11.64,1.8.15,2.32-1.22,1.31-2.96,1.85-4.79,1.91Z"/>
      <path class="cls-1" d="M1.35,23.44c4.59,2.03,5.97-3.61,9.18-3.96l4.55,2.52c-.03-2.65-3.06-4.1-3.18-5.94-.05-.83,1.47-1.52,1.7-2.13l1.01-2.7,2.8,5.24-2.91-2.24c-.67.23-1.49,1.5-1.34,2.15.13.55.78,1.53,1.08,1.81.64-.66,1.03-1.08,1.37-1.26.83-.44,2.15,1.34,3.46,1.41.9-5.27-4.07-5.88-2.82-13.74.22-1.38.33-3.11,2.12-3.62.58.7,1.25,1.81,1.78,2.69.25-1.49-.69-3.02-1.92-3.49-2.06-.8-2.95,1.39-4.38,1.87-1.69.57-3.76-.41-5.5.83l-4.08,2.92c-.28.2-.5,1.24-.21,1.27l1.2.09c-.77,2.81-4.35,1.21-3.41,4.62l-.51,1.97,1.5.41c2.24,1.43,2.9,4.29,1.52,6.63-.34-.23-3.93-3.66-3.44-1.96l.29,1.01c.54,1.87-1.05,3.09.12,3.61ZM5.99,10.52l.8-2.95c1.2,1.16,2.58,2.06,2.44,4.18-.04.6-1.35.53-1.79.36-.5-.19-1.59-1.07-1.44-1.59ZM2.81,12.08c-.31-.14-.37-1.13-.17-1.34.81.16,1.3.76,1.39,1.9l-1.22-.56Z"/>
      <path class="cls-1" d="M46.54,21.54c1.48,1.85,3.83,3.17,6.04,1.66.63-.43-.33-1.94-.22-2.57.11-.7.24-1.42.3-2.22-1.52.76-2.1,1.32-3.3,2.33-1.52-2.26-.6-5.61,1.86-6.75.29-.14,1.07-.28.99-.54-.27-.93-.34-2.14-.25-3.27-.8-1.07-3.78-1.71-3.4-3.14.58.07,1.28.27,1.29-.01.01-.21-.07-.97-.23-1.1l-2.69-2.02c-4.85-3.64-5.65-.29-8.09-2.59-.99-.93-2.48-1.72-3.77-.98-1.06.62-1.59,2-1.71,3.3l1.33-1.9c.18-.26.68-.64.97-.68,1.42-.19,1.79,3,1.91,3.84,1.04,7.24-3.72,8.28-2.97,13.5l2.88-1.5c.47-.24,1.25.36,1.94,1.05.35-.06,1.11-1.23,1.2-1.88.09-.64-.84-1.65-1.53-1.88-1.15.61-1.46,1.79-2.67,2.07l2.78-5,.95,2.61c.74.7,1.45,1.48,1.91,2.29l-2.44,3.3c-.43.57-.68,1.46-.85,2.36l3.86-2.06c1.49-.79,3.17.83,3.93,1.78ZM50.71,10.79c.11-.04.64.11.62.21-.03.16-.13.65-.26.74l-1.23.91c-.19-.69.4-1.68.86-1.86ZM46.76,7.63c.36.91.8,2.02.8,2.99,0,1.55-2.36,2.04-3.08,1.37-.41-1.72,1.13-3.28,2.28-4.36Z"/>
      <path class="cls-1" d="M41.57,44.03c-1.91,1.5-3.48,2.65-5.61,3.62.21-.57.59-1.11,1.05-1.53l3.71-3.38c-.58-1.97-1.23-4.05-.64-5.88l1.94-5.98c.22-.69-.28-2.25-.46-2.94l-2.12,1.93c-.66.6-2.41.56-3.11.47l.8,6.37c.8-.66,1.28-1.13,2.43-1.63-1.69,3.56-1.95,2.43-3.44,6.55-5.22,5.8-.83,6.6-7.12,9.45-1.59.72-2.87.62-4.44-.08-1.36-.6-2.92-1.24-3.44-2.74-2.84-8.13-2.02-3.08-4.61-9.07-.63-1.47-1.79-2.67-2.26-4.36l2.4,2.05.93-6.68c-2.32.84-4.03-.49-5.32-2.31-2.13,5.86,3.94,7.51.74,14.9l5.12,4.64c-2.68-.17-3.81-2.17-5.88-3.35-.2.13-.66.99-.68,1.39-.03.39.53,1.01.94,1.34,4.22,3.41,8.99,5.65,14.3,7.38,5.36-1.43,10.26-3.86,14.49-7.4.41-.35.97-.98.96-1.38,0-.4-.47-1.25-.67-1.38Z"/>
      <path class="cls-1" d="M4.79,33.35L.11,28.72l-.11,5.3c2.01,5.17-.09,2.61,1,6.86.21.82-.13,1.71-.52,2.6-.29.65.43,2.13.39,2.84-.14,2.28-.27,4.63,1.06,6.46l5.3-2.53c-.36-3.47.39-6.74,2.05-9.82.18-4.55,1.5-2.63,1.15-6.2-1.99.06-4.24.5-5.65-.89ZM5.41,38.77c-.55,2.92-1.33,5.97-2.08,8.63-.1.36-.71,1.01-.58,1.28.15.33.92.44,1.64.56.11.19-.11.93-.41,1.11-.35.21-1.45.4-1.77.14-.66-.55.33-2,.45-2.74.42-2.52.1-5.51,1.4-7.93.19-.35.63-1.3.49-1.64-.17-.39-.68-.93-.97-1.21l-1.37,4.4c-.21-2-.17-3.75.65-5.65,1.1.12,2.8,1.68,2.55,3.04Z"/>
      <path class="cls-1" d="M53.54,28.67c-4.35,4.22-3.75,6.09-10.22,5.72-.02,1.24.29,2.12.73,3.2.31.75.24,2.3.6,3.04,1.49,3.09,2.15,6.28,1.94,9.65l5.3,2.44c1.52-2.04.6-4.6,1.01-6.72.33-1.7.16-2.7-.17-4.3-.27-1.31.68-3.15.01-4.61,1.33-3.9,1.18-3.9.8-8.43ZM50.7,35.72c1.03,1.66,1.17,3.45.58,5.41l-1.07-4.17c-.15.13-.69.64-.95.93-.26.29.14,1.35.33,1.77,1.14,2.51,1.6,5.56,1,8.61-.86-3.1-1.6-6.03-2.31-9.28-.28-1.32,1.28-2.78,2.41-3.27ZM51.12,50.61c-.69.22-2.03-.66-1.96-1.32l1.06-.07c.2-.01.37-.27.81-.7l.65.84c.18.24-.25,1.16-.56,1.25Z"/>
      <path class="cls-1" d="M49.13,30.93l2.06-1.71-1.41-4.04c-3.99-.73-3.3-2.95-6.31-3.32l-.7,4.56c-.34,2.22,1.23,4.27,2.04,6.42,1.67-.19,3.02-.82,4.33-1.9Z"/>
      <path class="cls-1" d="M10.28,21.89c-3.16.71-2.07,2.19-6.22,3.36-.61.99-1.12,2.96-1.41,4.25l2.99,1.97c1.01.66,1.99,1.01,3.35,1.25.71-1.94,2.31-3.92,2-6l-.71-4.84Z"/>
    </g>
  </g>
</svg>