<?xml version="1.0" encoding="UTF-8"?>
<svg id="Warstwa_2" data-name="Warstwa 2" xmlns="http://www.w3.org/2000/svg" viewBox="0 0 49.39 56.39">
  <defs>
    <style>
      .cls-1 {
        fill: #fff;
      }
    </style>
  </defs>
  <g id="icon-v9-equipment-pixarts-store">
    <g id="icon-v9-equipment-pixarts-store_232">
      <path class="cls-1" d="M42.55,29.78c-.06.21-.84-.07-1.12-.11-2.75-.31-3.89,1.16-6.73-.77.48,1.86-4.88,1.07-6.35,1.06l6.91-6.47c.9,1.15,1.51,2.11,2.38,3.51.53-.4,1.47-1.41,2.07-1.78l2.39-1.51-3.02-.06-1.73-2.3,1.49-1.44.91.89,2.44-6.85-6.86,2.66,1,.97-1.47,1.13-2.8-1.83-.1-3.2c-.72.78-1.2,1.29-1.77,1.92-.34.38-1.62.21-1.82-.26l-1.05-2.46-.81,2.12-3.54-.02-.93-1.91-.85,2.17c-.2.51-1.63.86-2.01.51l-2.29-2.1.07,3.4-2.49,1.69-1.1-1c-.18-.16.21-.54.63-1.02l-6.72-2.79,2.41,6.72c.73-.44,1.32-.58,1.62-.24.42.48.54,1.25.28,1.62l-1.39,2.02-3.35.05,2.32,2.42-.57,2.88c-.07.33-1.19.48-1.57.44-.32-.04-.33-.4-.47-1.31l-6.56,2.98,6.38,2.97c.22-.79.29-1.37.62-1.34l1.53.16.74,3.14-2.36,2.37,3.3-.03,1.87,2.91-1.14,1.28c-.19.21-.68-.21-1.19-.5l-2.55,6.65,7.01-2.68-1.19-.94,1.71-1.13,2.73,1.66.17,3.11,1.44-1.6c.44-.49.99-.7,1.8-.58l.51-2.22c-1.96-.73-3.18-1.44-4.85-2.65l2.47-2.45,4.26-4.48c.1,1.63.03,3.85-.2,5.38-.05.31-.95.75-.84.99.11.25.72.94.72,1.28l.12,7.05-1.25.08,2.95,6.43,2.93-6.45-1.05-.08c-.16-.01-.17-.47-.24-.93-.07-.47.41-1.33.86-1.41.64-.12,1.51-.12,1.6-.51l.43-1.91c.83,1.62,1.85,2.89,3.3,3.94l-.02-3.32,2.36-1.46,1.43,1.19-.96,1.07,6.94,2.66-2.55-6.86c-.52.36-1.03.85-1.32.66-.29-.18-1-.98-.99-1.27l1.41-2.27,3.39-.23-2.48-2.43c-.48-.48-1.43-1.82-2.06-1.18l-2.36,4.16c-1.25-1.29-1.78-2.12-2.85-3.73l-.38.73-3.8-3.76c2.1-.19,4.54-.36,6.37.7,1.48-.49,3.01-.62,4.49-.46l.97,2.05.88-2.09,1.51-.02c.27,0,.27.65.4,1.27l6.44-3.02-6.48-2.91-.37,1.24ZM14.25,23.39c1.15.61,2.89,3.04,2.11,3.28,1.68-.52,3.28,1.96,4.69,3.39l-4.96-.11c-.33,0-1.23-.61-1.33-.66-1.07.29-1.96.44-3.35.51.58-2.67,1.19-4.41,2.84-6.41ZM17.68,36.67l-1.08-.48c-.26,1.46-1.23,2.62-2.51,3.52-1.43-2.07-2.15-3.93-2.63-6.27l3.32-.16c2.17-.11,4.06-.33,6.29-.21l-3.39,3.61ZM23.28,28c-.81-.36-4.2-4.51-3.23-4.57-.2.01-.33,0-.9-.04l-2.59-2.32c.89-1.2,2.01-1.55,3.2-.77.58-1.99.87-1.68,3.16-2.05-.24,4.95.67,5.73.36,9.74ZM32.97,42.05c-2.03,1.48-3.7,2.32-6.48,2.69.07-1.18.23-2.27.47-3.33l-.61-1.35-.18-5.06,6.8,7.04ZM26.12,28.17l.4-6.76v-3.24s4.12,1.17,4.12,1.17c.36.1,1.28-.37,1.52-.16.24.21.71.95.73,1.29.06,1.24-1.56,2.21-3.46,2.14l.69,1.29-4,4.28Z"/>
      <path class="cls-1" d="M22.5,7.78c.15,2.23.52,4.14,1.14,6.08.42.19,1.8.32,2.03-.04.76-1.8,1.22-4.08,1.08-5.99-1.33-.53-2.83-.5-4.25-.06Z"/>
      <path class="cls-1" d="M16.24,6.39l.3-.71c-.08-.05-4.55-5.87-4.72-4.26-.02.19-.01.92.11,1.06l3.26,3.8c.15.18.96.31,1.04.11Z"/>
      <path class="cls-1" d="M37.58,1.24c-.19-.02-.93,0-1.07.17l-3.43,3.92c-.19.22.04,1.07.3,1.06.21,0,.88-.22,1.04-.4l3.18-3.69c.18-.2.24-1.03-.02-1.06Z"/>
      <path class="cls-1" d="M19.55,10.18c-2.34-.94-5.8-5.33-6.21-4.09.39,1.58,4.99,6.12,6.21,4.09Z"/>
      <path class="cls-1" d="M35.55,5.58c-1.84,1.78-3.36,3.12-5.43,4.65.92,2.03,7.14-3.56,5.43-4.65Z"/>
      <path class="cls-1" d="M29.01,6.34c-.27.22-.23,1.62.08,1.43,2.11-1.26,3.25-2.33,4.82-3.98-.4-.17-1.36-.29-1.66-.05l-3.24,2.6Z"/>
      <path class="cls-1" d="M16.84,3.6c-.17-.1-.83.05-1.01.09-.19.04.19.77.36.91l3.69,2.96c1.19.95,2.18-1.05-3.04-3.95Z"/>
      <path class="cls-1" d="M12.34,3.8l-2.07-2.84c-.52-.72-1.2-1.12-2.24-.9l2.07,3.24c.67.4,1.22.6,2.24.5Z"/>
      <path class="cls-1" d="M30.78,9.2c.29-.13.59-.73.47-.96-.09-.18-.57-.66-.76-.57l-2.79,1.32c-.26.13-.26,1.09-.16,1.62l3.23-1.42Z"/>
      <path class="cls-1" d="M21.67,8.81l-2.87-1.25c-.24.08-.73,1.23-.37,1.39l3.5,1.56c0-.81-.09-1.25-.26-1.71Z"/>
      <path class="cls-1" d="M41.3.14c-.58-.19-1.37-.13-1.61.2l-2.32,3.2c1.42,1.21,3.24-2.24,3.93-3.4Z"/>
      <path class="cls-1" d="M35.08,1.87c.77-.29,1.39-.98,1.56-1.75-.29-.22-1.28-.08-1.59.21-.26.25-.19,1.21.03,1.54Z"/>
    </g>
  </g>
</svg>