<?xml version="1.0" encoding="UTF-8"?>
<svg id="Warstwa_2" data-name="Warstwa 2" xmlns="http://www.w3.org/2000/svg" viewBox="0 0 50.97 57">
  <defs>
    <style>
      .cls-1 {
        fill: #fff;
      }
    </style>
  </defs>
  <g id="icon-v9-equipment-pixarts-store">
    <g id="icon-v9-equipment-pixarts-store_149">
      <path class="cls-1" d="M19,56.94c5.71-.53,10.92-2.62,15.88-5.55,5.95-3.51,10.95-8.16,14.21-14.25,1.41-2.64,2.28-5.5,1.69-8.51-1.12-5.71-3.94-11.09-8.13-15.13-.95.31-1.9,1.6-1.76,2.43l4.92,4.25-5.93,1.15c1.78,2.12,3.15,4.49,5.07,6.25,1.62,1.49,3.24,2.48,2.9,5.25-.64,5.29-4.88,10.43-8.97,13.51,1.77-2.03,3.37-4.04,4.15-6.5-.61-.2-1.74-.39-1.82-.78l-.55-2.5-2.45,2.41c1.3-3.13,3.41-5.53,3.63-8.79-1.34,2.34-1.96,4.66-3.5,6.6-5.58,7.04-15.55,13.05-24.65,11.21,2.13,1.91,4.53.94,7.13,1.48l-1.7.75c.54,1.31,1.75,3.19,3.48,3.15,1.89-.04,3.76-.5,5.8-.78-3.62,2.05-12.66,3.75-15.28-.74-3.27-5.6,3.72-12.42,8.46-15.24-.59-1.88-1.09-3.37-2.02-4.94l-5.6,6.05-.95-7.09c-2.96-.96-5.72.09-8.54,1.38.7-3.06,1.49-5.51,2.67-8.39l-3.12-1.3c-3.69,7.14-5.87,15.32-1.94,22.79,3.53,6.7,8.65,12.6,16.91,11.83ZM11.62,39.39c-1.75,3.76-3.03,7.02-3.62,10.72-.5-4.02.9-8.01,3.62-10.72Z"/>
      <path class="cls-1" d="M10.33,17.81c-.58,1.95-.94,4.04-1.65,5.92l-2.09,5.5c3.09-1.12,5.97-.98,9.08-.2,10.05,2.52,21.39-1.15,23.17-12.33.31-1.92,1.26-3.67,2.73-4.99l-6.45-2.7c-2.51-1.05-5.02-2.07-7.72-2.4-7.92-.96-14.81,3.64-17.06,11.21ZM39.52,11.99c-1.39.51-2.17,1.78-2.51,3.32-2.25,10.33-11.92,13.74-21.32,11.32-2.22-.57-4.18-.53-6.35.47,1.39-2.22,2.26-4.08,2.84-6.44.83-3.41,2.46-6.78,5.33-8.88,4.81-3.53,10.99-3.59,16.38-1.28,1.84.79,3.6,1.22,5.64,1.49Z"/>
      <path class="cls-1" d="M20.34,5.69c-2.85-2.15-5.2-3.9-8.29-5.69l2.09,9.03c2.2-1.62,3.94-2.49,6.2-3.34Z"/>
      <polygon class="cls-1" points="34.41 27.35 28.44 30.52 36.28 36.58 34.41 27.35"/>
      <polygon class="cls-1" points="11.61 11.7 4.32 10.8 9.41 15.82 11.61 11.7"/>
      <polygon class="cls-1" points="23.67 38.07 25.72 31.29 21.13 31.39 23.67 38.07"/>
      <path class="cls-1" d="M38.57,22.14l-2.11,3.65,6.2,1.14c-1.53-2.07-2.57-3.2-4.1-4.79Z"/>
      <polygon class="cls-1" points="26.06 .25 24.05 5.19 28.67 5.58 26.06 .25"/>
      <polygon class="cls-1" points="8.28 18.95 2.89 20.32 7.68 22.08 8.28 18.95"/>
      <polygon class="cls-1" points="14.82 34.97 17.97 31.11 14.48 30.44 14.82 34.97"/>
      <path class="cls-1" d="M40.25,17.15l-.54,2.64,4.08-.14c-1.47-1.16-2.08-1.58-3.55-2.5Z"/>
      <polygon class="cls-1" points="34.49 4.13 31.89 6.57 34.87 7.77 34.49 4.13"/>
      <polygon class="cls-1" points="35.81 26.99 36.21 29.56 39.59 27.88 35.81 26.99"/>
      <polygon class="cls-1" points="26.35 34.27 29.07 33.22 27.13 31.62 26.35 34.27"/>
      <polygon class="cls-1" points="6.37 18.35 8.98 17.75 7.65 16.29 6.37 18.35"/>
      <path class="cls-1" d="M21.28,11.72c4.74,2.16,7.01,6.65,6.49,11.61-4.7-2.91-6.84-5.72-6.93-11.38-2.45,1-4.53,2.93-4.88,5.54-.45,3.39,1.97,6.44,5.29,7.46,3.87,1.18,8.48-.42,10.76-3.84,1.42-2.13,1.07-4.99-.25-7.13-2.21-3.58-6.79-4.27-10.49-2.25Z"/>
      <path class="cls-1" d="M14.26,20.09l-1.14,4.6,5.24,1.15c-2.1-1.75-3.26-3.29-4.1-5.75Z"/>
      <path class="cls-1" d="M34.63,17.74l1.38-4.49-4.47-1.79c1.95,1.76,2.64,3.67,3.09,6.28Z"/>
    </g>
  </g>
</svg>