<?xml version="1.0" encoding="UTF-8"?>
<svg id="Warstwa_2" data-name="Warstwa 2" xmlns="http://www.w3.org/2000/svg" viewBox="0 0 56.66 44.56">
  <defs>
    <style>
      .cls-1 {
        fill: #fff;
      }
    </style>
  </defs>
  <g id="icon-v9-equipment-pixarts-store">
    <g id="icon-v9-equipment-pixarts-store_241">
      <path class="cls-1" d="M47.13,2.03C34.93-.7,22.39-.6,10.12,1.88c-1.93.39-10.38,2.6-8.1,5.66,2.45,3.28,11.49,2.74,14.6,1.55-3.47-.3-10.55,1.3-13.11-1.64-.28-.32-.2-1.58.06-1.93.75-1.04,2.6-1.89,3.65-1.42-1.1.49-2.93,1.06-2.97,2.36-.08,2.4,9.07,2.16,12.84.93,12.24-3.97,9.65-4.24,22.13-.17,3.7,1.21,7.47,1.34,11.36.69.69-.11,2.09-1.05,1.86-1.71-.36-1.02-1.6-1.5-2.58-2.12,1.07-.16,2.93.47,3.43,1.67.6,1.42-.89,2.45-2.09,2.86-3.54,1.22-7.06.33-11,.4,1.37.77,3.05.73,4.69.86,3.14.26,6.21.06,8.93-1.58.49-.3,1.17-1.2,1.19-1.7.07-2.52-5.69-4.07-7.89-4.56Z"/>
      <path class="cls-1" d="M28.71,44.56c4.03-2.5,7.46-5.06,10.56-8.65.17-1.27.14-3.02.07-4.31-1.94,0-3.08-1.01-3.43-2.8-.33-1.65.12-3.32.56-5.23-2.32.19-.79,2.31-2.42,4.31-3,3.66-.63,4.09-3.23,7.83-.47.68-1.34,1.36-1.96,1.47-.58.1-1.87-.32-2.25-.77-3.44-4.04-1-5.18-3.61-8.06-2.23-2.46-.15-4.49-2.63-4.83.32,1.86.69,3.46.59,5.03-.14,2.01-1.67,3.17-3.54,3.18l-.17,3.73c1.79,2.62,8.36,8.35,11.47,9.09ZM37.4,33.9c.59,0,1.07.48,1.07,1.07s-.48,1.07-1.07,1.07-1.07-.48-1.07-1.07.48-1.07,1.07-1.07ZM32.71,37.83c.36-.21,1.41.22,1.57.59.16.37-.25,1.17-.6,1.41-.4.27-1.26.08-1.63-.34-.31-.35.1-1.33.66-1.66ZM28.36,40.87c.65,0,1.18.53,1.18,1.18s-.53,1.18-1.18,1.18-1.18-.53-1.18-1.18.53-1.18,1.18-1.18ZM23.12,37.9c.31-.28,1.49.16,1.63.54.14.38-.2,1.12-.53,1.41-.3.26-1.19.02-1.58-.33-.3-.27.01-1.2.48-1.62ZM18.36,34.96c0-.61.49-1.1,1.1-1.1s1.1.49,1.1,1.1-.49,1.1-1.1,1.1-1.1-.49-1.1-1.1Z"/>
      <path class="cls-1" d="M33.93,21.08c-2.28.35-4.08-1.98-4.61-3.96-.42-.13-1.41-.06-1.8.14-.75,1.88-2.75,4.17-4.99,3.76-1.19-.22-2.58-1.87-3.87-.75.34,1.11,1.36,2.87,3.02,2.38l-2.42-2.14c1.4.3,2.47.98,3.37,1.87l3.53,3.48c-.81.22-1.68.46-2,.1l-1.36-1.53c-.08,1.47.54,2.63,1.64,3.93,1.61,1.92.31,7.16,3.79,6.21l-1.88-3.01c.71.35,1,.59,1.87,1.2l2.09-1.2-1.96,3c3.63,1.15,2.41-4.41,3.63-5.84,1.37-1.6,1.99-2.76,1.76-4.89-.62,1.8-1.29,2.68-2.74,2.12l-1.01,3.82c-.7-3.19,1.35-4.95,3.41-6.7,1.54-1.31,2.92-2.46,4.86-3.14-1.59-.39-2.97.95-4.34,1.16Z"/>
      <path class="cls-1" d="M3.55,27.28l-1.75-.38c1.07,3.71,11.05,7.27,14.46,8.67v-4.29c-4.64-3.46-4.22-9.44-2.35-7.61l1.64,1.61c-1.52-3.88-3.07-8.23-.24-12.17.71-.99,1.14-2,.88-3.13-5.26.43-10.32,1.6-14.5-1.83-.91,2.43,2.46,2.73,3.1,4.3l-.03,13.97c0,.44-.89.93-1.21.87ZM13.69,31.47c.33-.19,1.29.17,1.31.55.03.53-.09,1.45-.51,1.59-.47.15-1.53-.13-1.68-.55-.15-.41.4-1.32.87-1.59ZM13.77,10.8l1.63,1.7c-.73.38-1.26.65-1.62.72-.36.07-1.04-.64-1.02-1,.02-.44.59-1.13,1.01-1.42ZM5.75,13.03c.05-.93,5.95.29,6.07,1.21l-.02,14.94c0,3.17-5.26-.15-6.26-1.04-.54-5.09-.69-10.07.21-15.11Z"/>
      <path class="cls-1" d="M54.41,10.19c.44-.35.73-1.31.59-2.11-2.42,1.75-5.23,2.74-8.33,2.44l-6.07-.58c-.24,1.2.15,2.17.87,3.18,1.78,2.46,2.01,5.9.97,8.75l-1.3,3.55c.65-1.02,1.55-2.05,2.98-1.99.5,3.18-1.12,5.63-3.56,7.81v4.32c3.74-1.43,13.78-5.21,14.46-8.92l-2.14.61c-.38.11-.9-1.12-.9-1.62v-13.49s2.43-1.96,2.43-1.96ZM43.66,13.02c-.25.36-1.37.07-1.72-.26-.32-.3-.06-1.15.32-1.68.21-.3,1.31-.09,1.47.24.19.39.18,1.34-.07,1.7ZM42.92,33.75c-.43-.03-1.17-.68-1.28-1.09-.1-.41.8-1.11,1.33-1.11.35,0,.89.61.96.96.09.41-.59,1.27-1.01,1.24ZM51.28,27.93c-.38.8-3.23,2.48-4.98,2.5-.14.53-.25.47-.33-.02-.63-.08-1.05-.44-1.04-1.24l.04-15.47c2.19-.71,3.81-.98,6.04-.88.68,5.15.89,9.95.27,15.13Z"/>
      <path class="cls-1" d="M31.72,5.81c-2.27-.69-4.13-.68-6.41-.02l-7.64,2.22-.52,3.04c7.39-2.2,9.3,4.85,11.39,4.85,1.33,0,4.52-7.44,11.12-4.69-.09-1-.28-2.17-.56-3.18l-7.38-2.23ZM24.31,10.27c-.06.32-1.1.25-1.4.14-.38-.14-.66-1.04-.52-1.65.41-.15,1.33-.19,2.25-.25l-.32,1.76ZM28.88,9.37c-.32.19-1.17-.14-1.44-.4-.32-.31-.08-1.57.42-1.68.84-.19,1.63.04,1.64.42,0,.54-.24,1.44-.62,1.67ZM27.47,6.54c-1.67.13-3.15.82-4.98.85.72-.45,6.79-2.22,8.04-1.08l-3.06.24ZM33.13,10.46c-.35.11-1.01-.69-1-1.06,0-.45.57-1.11,1.03-1.4l1.62,1.65c-.79.42-1.29.69-1.65.81Z"/>
      <path class="cls-1" d="M39.88,26.05l1.53-4.79c.62-1.93.64-4.09-.02-5.96-.73-2.08-2.52-3.5-4.48-3.53.64,1.1,1.11,1.97,1.51,2.9-.61-.79-1.27-1.75-2.1-2.48-.64-.56-3.33.15-2.25,1.38l-1.01-.41c-.78.7-2.05,1.95-2.8,2.91-1.14,1.47,1.53,3.91,2.97,4.62,1.19-1.92,4.33-6.16,6.59-4.93,1.46.79,2.23,2.93,1.4,4.09-.21-1.07-.35-3.13-1.55-3.02l-1.6.15c-.54.05-1.45.91-1.87,1.29l3.3.92-1.42,3.38,1.65.04c-1.24.8-2.05,1.47-2.12,2.33l1.29-.11c-.99.52-1.6.99-1.85,1.77,1.01.52.93.57.03.59-.55,1.18.22,2.82,1.38,3.17,1.24.38,2.25-.62,2.92-1.58.87-1.23,1.79-2.31,1.89-4.12-1.33,1.33-2.52,2.8-3.54,4.2l-1.44-.44c.83-.71,1.31-1.47,1.6-2.37Z"/>
      <path class="cls-1" d="M15.06,18.15l1.58-2.81,1.73.43c2.33.58,3.51,2.68,4.93,4.65,1.17-.28,3.7-1.71,3.24-3.57-.66-2.67-3.43-4.45-5.8-4.91l-2.24,2.08,1.37-2.3c-3.12.26-5.24,3.13-4.81,6.42Z"/>
      <path class="cls-1" d="M3.95,26.3l.08-13.68-3.38-2.54c.03.97.41,1.24.91,1.52l-1.35-.38c-.25,4.56-.39,8.54.32,13.01.61,1.1,2.33,1.96,3.42,2.07ZM3.03,13.49h.35v12.32h-.35v-12.32Z"/>
      <path class="cls-1" d="M52.66,12.6l.2,13.47c1.77.17,3.47-1.35,3.56-3.4.13-2.77.71-10.69-.57-12.57l-3.18,2.5ZM53.72,25.46h-.35v-12.32h.35v12.32Z"/>
      <path class="cls-1" d="M13.55,24.64c.18,2.13,1.23,3.88,2.75,5.16.82.69,2.22.81,2.87.06.64-.75.82-1.9.31-2.8.1-.33.41-.71.21-.88l-1.01-.87.54-.76c.11-.16-.28-.65-.39-.82l-.42-.66c-.07-.1.27-.54.22-.65l-1.51-3.41,1.46-.12c.12-.02.13-.67.34-.65l1.31.1c-.28-.65-1.56-1.88-2.39-1.94-1.62-.12-2.2,1.65-2.15,3.02l-.45-.45c-.11-.11-.19-.16-.21-.03-.02.13-.12.96-.08,1.08l1.88,5.59c.42,1.23.93,2.01,1.67,3.04-2.29-.6-3.29-2.38-4.94-4.02Z"/>
      <path class="cls-1" d="M37.77,20.67c-1.19.6-2.25,1.25-2.75,2.02,1.83.19,2.43-1.02,2.75-2.02Z"/>
      <path class="cls-1" d="M28.54,36.31c.37,0,.91-.51,1.23-.91h-2.81c.39.43,1.12.92,1.58.91Z"/>
      <path class="cls-1" d="M9.71,26.9l.04-8.86c0-.72.37-1.9.6-2.73-.29,5.27-.37,8.57-.21,14.04.47.12.82.2.85.03.02-.13.12-.65.12-.79l.03-14.39-4.82-.72-.18,14.07c1.3.81,2.48,1.39,3.87,1.92-.13-1.12-.31-1.82-.3-2.57ZM7.4,15.01c.21-.26,1.35-.15,1.47.17.15.38,0,1.13-.21,1.67-.14.37-1,.11-1.51-.28-.32-.25-.09-1.12.25-1.55ZM8.09,28.11l-1.36-1.32c.28-.32.78-.83,1.08-.98.36-.18,1.15.54,1.19.93.03.4-.52,1-.9,1.36Z"/>
      <path class="cls-1" d="M46.57,28.84l.24-11.86c.31,3.11.3,6.08.14,9.34l-.15,3.04c1.47-.54,2.52-1.01,3.8-1.79l-.11-13.96c-1.88,0-3.05.04-4.88.34,0-2.2-.15,13.72.34,16.46.11.01.22.02.33.02.05-.21.11-.5.17-.89l.11-.7ZM49.39,27.71c-.24.25-1.07.2-1.21-.12-.14-.32-.05-1.48.25-1.65.3-.17,1.45.13,1.44.48-.01.36-.23,1.04-.48,1.29ZM48.11,15.32c.42-.03,1.34.28,1.66.55.2.17-.24,1.29-.49,1.2l-1.29-.48c-.3-.11-.21-1.24.12-1.27Z"/>
      <path class="cls-1" d="M45.96,30.41c.09.49.2.56.33.02-.12,0-.23,0-.33-.02Z"/>
    </g>
  </g>
</svg>