<?xml version="1.0" encoding="UTF-8"?>
<svg id="Warstwa_2" data-name="Warstwa 2" xmlns="http://www.w3.org/2000/svg" viewBox="0 0 48.09 55.03">
  <defs>
    <style>
      .cls-1 {
        fill: #fff;
      }
    </style>
  </defs>
  <g id="icon-v9-equipment-pixarts-store">
    <g id="icon-v9-equipment-pixarts-store_196">
      <path class="cls-1" d="M43.77,20.27c-2.57-.79-5.14-.51-7.71.41l.4,2.1c1.78-.28,3.16-.55,4.66-.36,2.91.37,4.73,2.77,4.48,5.68-.38,4.53-2.49,8.86-5.89,11.69,1.59-3.5,3.52-6.26,3.57-9.9l-2.67,4.15c.31-2.44.92-4.35.91-6.8-.9,1.88-1.5,3.38-2.87,4.91l1.5-7.1c.1-.48-.56-1.46-.97-1.26-1.02,9.69-8.64,17.72-17.31,21.22-2.37.96-4.79,1.12-7.54,1.52,2.35,1.7,4.74.34,7.12.68l-3.09,1.79,5.92-.13-3.94,1.68c3.98.19,7.19-1.56,10.84-2.8-3.46,2.99-7.94,4.89-12.59,4.9-3.31,0-5.75-2.4-5.62-5.73.22-5.62,3.31-9.24,6.53-13.41,0-.43-1.47-1.26-1.82-.89-4.13,4.34-8.44,11.46-7.1,17.52,1.22,5.54,7.65,5.62,12.23,4,9.41-3.34,17.4-9.97,22.39-18.61,1.58-2.73,2.64-5.52,2.88-8.52.24-3.14-1.33-5.79-4.3-6.71Z"/>
      <path class="cls-1" d="M29.5,13.3l1.98-1.14c.37,3.06-.4,6.04-3.13,7.76-.94,0-2.09-.89-3.07-1.63-.6-.45-1.79-.02-2.37.56-2.08,2.11.69,3.18-.48,4.99-1.47,2.28-6.81,1.77-9.51.44l1.98-1.31c-2.87-.33-4.92-1.17-7.36-2.33.4,3.41,1.87,5.71,3.86,8.03l.59-2.57c8.13,5.37,10.97.85,18.17,2.06.98-7.09,5.98-8.23,3.18-16.3l2.34.46c-1.37-2.99-3.75-4.97-6.37-6.03.27,2.67.27,4.62.19,7.01ZM29.23,26.66c-5.24-.36-6.3,1.42-12.45.5,2.27-.2,4.37-.34,6.57-.92l4.25-1.13-1.28-2.89,2.2,1.52,4.24-5.6c-.78,3.05-3.52,5.24-3.52,8.52Z"/>
      <path class="cls-1" d="M12.3,30.67c-1.22-.18-1.98.29-3.25,1.07.43-1.84.24-3.42-1.59-4.69l.02,4.72c0,1.91-.08,3.66-1.06,5.27l-.26-7.74c-2.58,3.26-3.45,13.49-.64,17.48,1.25-2.42.55-4.42-.39-6.92l1.43,1.48c1.14-4.18,3.23-7.28,5.75-10.67Z"/>
      <path class="cls-1" d="M6.65,12.66c-.48,1.11,1.07,2.87,1.89,2.71.64-.12,1.3-1.31.54-2.79l1.18,1.33c.08.08,1.02-.2,1.11-.47l.35-.98c1.08-.38,1.96-.8,2.73-1.46h0s.01-.01.02-.01c.04-.04.09-.07.13-.11l-1.58-.09c1.25-.75,2.41-1.43,3.6-2l2.98-1.42-.31,1.29,2.11-2.23c.49-.18,1.74-.36,2.03-.78.25-.36-.01-1.47-.39-1.7-1.18-.73-2.92-.06-2.96.06l-.32.95c-3.78,1.74-7.9,4.51-11.27,6.81-.49.33-1.61.34-1.84.88Z"/>
      <path class="cls-1" d="M18.91,16.86l3.17-2.22-4.7-5.36c-.31-.35-1.63.3-1.47.69l.61,1.48c-.77-.26-.93-.38-2.07-.46,0,0,0,0-.01.01l4.46,5.85Z"/>
      <path class="cls-1" d="M14.45,11s0,0,.01-.01c0,0-.01,0-.02,0h0Z"/>
      <path class="cls-1" d="M10.67,7.81c.92-2.14-2.65-1.33-2.13-4.34.11-.64,1.18-1.59,1.96-1.63l3.46-.21C12.9.07,11.24-.26,9.71.17c-1.58.45-2.94,1.6-3.13,3.47-.12,1.14.29,2.49,1.07,3.26.61.6,2.09,1.22,3.02.91Z"/>
      <path class="cls-1" d="M37.82,13.79l-1.68.35c-.21.04-.15.62-.1.8l7.34.3c-1.99-1.74-4.05-3.04-6.53-3.6l.97,2.15Z"/>
      <path class="cls-1" d="M14.63,6.51c.15-.52-.69-1.55-1.22-1.65-.53-.1-1.84.27-2.06.77-.26.61.35,2.16.94,2.23.72.08,2.14-.68,2.33-1.35Z"/>
      <path class="cls-1" d="M8.55,39.28c1.61-.25,3.13-.86,4.32-1.87,1.22-2.45-4.58-.37-4.32,1.87Z"/>
      <path class="cls-1" d="M11.31,17.22c-1.97-.45-4.21-.33-5.16,1.75l3.59-.34c.56-.05,1.42-1.11,1.57-1.41Z"/>
      <path class="cls-1" d="M14.99,33.41h-.73c-1.61.03-3.11.39-3.89,2.3,3.48.43,5.35-2.31,4.62-2.3Z"/>
      <path class="cls-1" d="M5.8,25.22c-1.46-.1-4.28.44-4.21,2.93,3.26-.46,4.86-2.89,4.21-2.93Z"/>
      <path class="cls-1" d="M32.15,29.86l-2.82-.23c-1.17-.1-2.14-.09-3.12.15,1.86,1.89,4.48,1.72,5.94.08Z"/>
      <path class="cls-1" d="M7.55,42.61c1.78-.53,3.31-1.2,3.88-3.28l-2.08.67c-1.13.36-1.89,1.49-1.8,2.61Z"/>
      <path class="cls-1" d="M28.33,31.78l-2.82-1.53c-.34-.18-1.08-.06-1.81.16.49.87,1.32,1.67,2.26,1.92.64.17,1.93-.28,2.37-.55Z"/>
      <path class="cls-1" d="M6.06,24.24c.42-.1.6-1.07.37-1.31-.23-.24-1.11-.46-1.43-.35-1.15.36-2.15,1.26-2.08,2.38l3.14-.72Z"/>
      <path class="cls-1" d="M4.28,27.96l-.79.29c-1.27.47-2.67.78-2.67,2.64,4.11-.74,3.9-3.1,3.46-2.93Z"/>
      <path class="cls-1" d="M3.46,30.79l-.79.23c-1.43.42-2.8,1.18-2.47,2.95,2.52-.62,4.17-3.45,3.26-3.18Z"/>
      <path class="cls-1" d="M12.53,32.64c1.83.14,3.63.14,5.06-1.19-1.92-.73-3.95-.83-5.06,1.19Z"/>
      <path class="cls-1" d="M10.66,4.63l2.26-1.22,2.47.96-.78-1.78c-1.42-.43-3.95-.17-3.95,2.04Z"/>
      <path class="cls-1" d="M2.73,33.57l-.68.24c-1.36.47-2.51,1.42-1.85,3.02,2.76-1.09,2.97-3.41,2.53-3.26Z"/>
      <path class="cls-1" d="M35.89,16.73c.86,1.3,2.27,2.42,4.18,2.02-.81-1.47-2.29-2.6-4.18-2.02Z"/>
      <path class="cls-1" d="M7.1,45.85c1.39-.58,2.63-1.43,2.88-3.1-1.68.15-3.31,1.09-2.88,3.1Z"/>
      <path class="cls-1" d="M2.44,36.28c-.02-.22-3.54,1.58-1.97,3.35,1.92-1.31,2.14-1.71,1.97-3.35Z"/>
      <path class="cls-1" d="M42.57,18.9c-.46-2.11-2.08-3-4.05-2.65l2.12,2.07c.45.17,1.2.39,1.93.57Z"/>
      <path class="cls-1" d="M27.91,8.27l-.87-.54c-.79-.49-1.68-.88-2.8-.21.74.69,2.31,1.62,3.11,1.89.22.07.76-1.01.56-1.13Z"/>
      <path class="cls-1" d="M21.37,30.39c-.12.52.34,1.5.77,1.8.49.33,1.63.44,2.4.37l-1.3-1.81c-.28-.39-1.76-.83-1.87-.36Z"/>
      <path class="cls-1" d="M21.72,8.84l1.76.79c.55.25,1.47.23,2.22.04-1-1.61-2.65-1.93-3.98-.83Z"/>
      <path class="cls-1" d="M34.84,23.74c-1.36.06-2.49,1.35-2.57,2.77,1.36-.19,2.6-1.02,2.57-2.77Z"/>
      <path class="cls-1" d="M9.19,45.67c-1.29.5-2.73,1.51-1.84,3.32,1.17-.77,1.86-1.84,1.84-3.32Z"/>
      <path class="cls-1" d="M44.68,19.57c.38-1.97-1.16-3.16-2.66-3.11.71,1.26,1.41,2.29,2.66,3.11Z"/>
      <path class="cls-1" d="M18.04,22.64l2.88-2.41c-.95-.61-2.05-.17-2.47.47-.27.41-.38,1.07-.4,1.94Z"/>
      <path class="cls-1" d="M.96,40.12c-.35.27-.04,1.57.33,2.06,1-.69,1.58-1.58,1.23-3.28l-1.55,1.22Z"/>
      <path class="cls-1" d="M20.17,17.39l3.95.03c-1.12-1.93-3.19-1.46-3.95-.03Z"/>
      <path class="cls-1" d="M37.16,10.5c-.28-1.55-1.33-2.83-3-3.19.66,1.42,1.59,2.53,3,3.19Z"/>
      <path class="cls-1" d="M36.83,8.24c.71,1.16,1.46,2.21,2.36,3.21.83-1.86-.95-2.81-2.36-3.21Z"/>
      <path class="cls-1" d="M18.46,19.77c1.44-.26,2.8-.72,3.98-1.47-1.73-.9-3.37-.35-3.98,1.47Z"/>
      <path class="cls-1" d="M46.6,20.51c.43-1.3-.23-2.45-1.58-3.14.02,1.18.47,2.48,1.58,3.14Z"/>
      <path class="cls-1" d="M25.22,15.14l-2.37.43c.84.6,2.21,1.24,2.97,1.38.15.03.3-.71.3-.84h-.01s.01-.02.01,0l1.4,1.15c.33-.53.09-1.56-.43-1.99-.39-.32-1.3-.24-1.87-.13Z"/>
      <path class="cls-1" d="M26.11,16.1h.01s0-.02-.01,0Z"/>
      <path class="cls-1" d="M10.28,16.31c.9.36,2.43.01,2.83-.99-1.15-.58-2.25.09-2.83.99Z"/>
      <path class="cls-1" d="M34.04,26.71c-.42,0-1.3.18-1.79.41-.41.2-.57,1.31-.45,1.76,1.06-.12,1.58-.7,2.24-2.17Z"/>
      <path class="cls-1" d="M18.42,24.19c.74-.19,1.41-.4,1.7-.68.25-.23.16-1.12.06-1.59-1.04.33-1.65.89-1.76,2.27Z"/>
      <path class="cls-1" d="M29.51,15.93c-.54-.29-1.17-.51-1.87-.72l1.15,2.58c.66-.63,1.1-1.65.72-1.85Z"/>
      <path class="cls-1" d="M18.88,30.37c.17.94.76,1.53,2.22,2.14l-.38-1.73c-.09-.39-1.29-.57-1.83-.4Z"/>
      <path class="cls-1" d="M7.86,49.48c-.35.39.38,1.73.8,1.27.5-.56.6-1.34.5-2.27-.3.13-1.01.69-1.3,1.01Z"/>
    </g>
  </g>
</svg>