<?xml version="1.0" encoding="UTF-8"?>
<svg id="Warstwa_2" data-name="Warstwa 2" xmlns="http://www.w3.org/2000/svg" viewBox="0 0 37.06 51.17">
  <defs>
    <style>
      .cls-1 {
        fill: #fff;
      }
    </style>
  </defs>
  <g id="icon-v9-equipment-pixarts-store">
    <g id="icon-v9-equipment-pixarts-store_190">
      <path class="cls-1" d="M3.01,51.17l14.7-26.22-8.42,1.96,5.66-14.41-4.3,1.09c.21-.71.46-1.65.39-2.16-.06-.45-.79-1-1.17-1.21.12.94.24,1.85.06,2.48-.11.38-1.46.29-1.5-.09l-.15-1.32,1.03.5c-.05-.86.2-1.65.75-2.65-.07-.75-.42-2.25-.67-3.02-1.11-.56-1.98-1.25-2.13-2.14-.18-1.09.27-2.31,1.29-2.73,2.96-1.21,2.81,3.83,6.29,3.18C11.73,3.22,12.05.63,10.1.08c-.76-.21-1.84.02-2.56.48-1.14.74-1.61,2.34-1.35,3.67.17.89,1.39,1.78,2.15,2.7.06.78.05,2.49-.04,3.27-.07.59-1.52,1.3-1,2.26.26.47.8,1.03,1.46,1.64l-4.12,1.23L0,34.68l7.43-1.72-4.42,18.2Z"/>
      <path class="cls-1" d="M23.93,48.18l13.13-25.67-7.43,2.12,4.58-11.86-3.54.94c.49-1.38.79-2.89-.96-3.43l.21,1.08c.1.5.2,1.25-.11,1.49-.31.25-1.31.15-1.48-.19-.18-.37.02-1.17.25-1.49l1.59-2.21-.68-2.77c-1.23-.53-2.22-1.37-2.26-2.72-.03-1.02.7-2.06,1.49-2.27,2.94-.8,2.65,3.68,6.19,3.33-1.31-.78-2.33-1.54-2.97-2.77-.79-1.53-2.35-2.15-3.95-1.36-1.19.58-1.89,1.92-1.81,3.24.07,1.22.93,2.23,2.24,3.03l-.1,3.53c-.17.58-1.42,1.54-1.06,2.22.3.58.77,1.18,1.33,1.91l-3.32,1.23-3.78,16.6,6.83-2.32-4.4,18.35Z"/>
    </g>
  </g>
</svg>