<?xml version="1.0" encoding="UTF-8"?>
<svg id="Warstwa_2" data-name="Warstwa 2" xmlns="http://www.w3.org/2000/svg" viewBox="0 0 57.22 56.97">
  <defs>
    <style>
      .cls-1 {
        fill: #fff;
      }
    </style>
  </defs>
  <g id="icon-v9-equipment-pixarts-store">
    <g id="icon-v9-equipment-pixarts-store_313">
      <path class="cls-1" d="M36.29,1.06c-5.18,1.68-10.31,1.89-15.46-.07-1.95,3.57,2.42,6.4,5.13,7.89,1.07,1.11.72,4.03,2.38,4.21.42.04,1.25-.66,1.37-1.06l.97-3.13c2.78-1.15,6.82-4.18,5.61-7.84Z"/>
      <path class="cls-1" d="M41.07,24.43l-.66-.1c-.15,1.22-.37,2.33-1.26,3.3l-1.11-1.71c-.03,1.74.04,3.1-1.43,4.1l-1.28-3.09c-.33,2.18.69,3.89-1.15,5.31l-1.19-2c-.27,2.02-.3,3.6-1.6,5.44l-.97-2.32c-.1,1.93-.54,3.56-2.1,5.49-.93-1.61-1.51-3.11-2.11-4.78l-.45,1.38c-1.09-1.02-1.42-2.06-1.61-3.47l-.23-1.68-1.33,2c-1.06-1.6-1.07-3.24-.95-4.93l-1.2,3.02c-1.02-1.35-1.48-2.7-1.58-3.99l-1.33,1.29-.9-3.52-.84.36c-.96.42-.27-3.66-1.65-5.44-.82,2.63-1.51,4.49-2.6,6.98.18,1.56.68,3.99,1.09,5.52,1.43.87,2.43,1.92,2.75,3.52.54-.79,1.16-1.68,1.71-2.01.72.7,1.18,1.56,1.47,2.23.38-.49,1.03-1.28,1.45-1.6.94.47,2.19,1.63,2.35,2.42l1.06,5,10.38-.04.73-5.22c.49-.55,1.36-1.43,2.05-2.05.41-.36,1.47,1.05,1.55,1.58l1.69-2.54,1.47,2c.49-1.33,1.69-2.45,3.08-3.38l1.1-5.39c-1.25-2.59-1.84-4.73-2.68-7.67-1.2,2.12-.44,6.15-1.73,5.95Z"/>
      <path class="cls-1" d="M14.04,11.57c.6,1.96.91,4.35,2.12,5.99l2.56,3.44c3.01,4.04,3.39,2.09,6.58,5.7l-.73.81,2.74,2.18c.33.26,1.31.65,1.61.41l1.03-.81-1.66.13c1.24-1.02,2.53-2.11,3.8-3.38,1.1-1.1,2.24-1.75,3.49-2.6,3.58-2.42,5.55-6.68,6.83-10.68l3.11-9.69-2.69-.82c-.43,2.29-.82,3.73-1.87,5.52-1.41,2.39,1.23,2.35.47,5.37-.9-.54-1.66-1.25-2.51-2.03.81,2.23,1.95,4.48.59,6.51-1.17-1.56-1.89-2.64-3.18-3.51.36,3.04,1.85,7.54-1.62,9.32-.31-2.54-.28-4.67-1.8-6.47l-1.92,1.23c-.99,2.61-.93,5.19-.71,8.07-3.26-.03-4.32-5.45-4.41-7.96l-1.87-1.31c-1.55,1.83-1.7,3.88-1.74,6.37-3.79-1.46-2.48-6.17-1.59-9.07-1.5.39-2.1,1.84-2.85,3.22-.21.38-1.37-.65-1.28-1.07l.91-4.6-2.39,2.07c.09-1.59.66-3.51,1.29-4.92-.98-2.05-1.72-4.06-2.4-6.48-.76.05-1.84.37-2.48.83l2.53,8.21Z"/>
      <path class="cls-1" d="M31.88,12.87c.3-.44,1.57-.6,2.37-.69-.34-1.15.89-1.92,1.24-2.63.48-.98.6-1.47,1.59-2.21,1.39-1.03,2.94-4.98,1.26-6.2-.26,3.41-1.83,6.72-5.26,7.94,2.88-1.65,5.94-6.9,4.03-8.74-.29-.28-1.23-.36-1.67-.19-9.4,3.73-14.82-1.61-15.74.24-1.61,3.22.58,4.82,2.17,7.31-2.56-1.22-3.42-4.1-3.16-6.86-1.63,1.7-.95,4.94.37,6.27.34.34,1.6.59,1.69,1l.31,1.4c.79.73,1.34,1.7,1.78,2.67.49.08,1.95.08,2.12.55l.75,2.17c.82-.67,1.86-1.4,2.63-1.38,1.13.03,1.94.65,2.7,1.39.23-.67.53-1.61.83-2.05ZM29.71,12.02c-.13.41-.95,1.11-1.37,1.06-1.66-.17-1.31-3.1-2.38-4.21-2.71-1.5-7.09-4.32-5.13-7.89,5.15,1.96,10.28,1.76,15.46.07,1.22,3.66-2.83,6.69-5.61,7.84l-.97,3.13Z"/>
      <path class="cls-1" d="M33.84,51.84c.01-1.25-.09-2.77-.2-3.67-3.89.33-6.88.35-10.54.14l-.17,3.37,5.68,1.88,5.22-1.73Z"/>
      <path class="cls-1" d="M9.27,3.75l-1.53.23c.93,2.87,1.71,5.75,2.91,8.6,1.67,4,1.75,7.77.24,12.13,4.5-6.08,1.13-13.14-.85-19.65-.15-.48-.39-1.37-.76-1.31Z"/>
      <path class="cls-1" d="M47.36,3.82l-2.8,8.91c-1.27,4.05-1.07,8.55,1.52,11.97-.82-3.26-1.7-6.28-.77-9.41l3.85-11.27-1.79-.2Z"/>
      <path class="cls-1" d="M30.14,42.8c4.88-.33,9.98-.8,14.15-3.78-8.38,2.97-10.87,3.48-19.65,3.12-4.23-.17-7.79-2.11-11.96-2.99,5.42,3.02,11.4,4.06,17.46,3.65Z"/>
      <path class="cls-1" d="M19.96,47.75l-2-.66c-.65,1.88-1.07,3.59-1.03,5.37.54.66.62.72.87.07-.26,1.45-.14,2.8.68,4.43l1.25-3.91c.55-1.74.68-3.57.22-5.31Z"/>
      <path class="cls-1" d="M21.79,53.12h1.11c.56.96,1.55,1.12,2.42,1.44l3.29,1.2,4.27-1.59c.4-.15.79-.66,1.07-1.07.39.05,1.07.07,1.38-.04.31-.11.46-.98.4-1.3-.75.43-1.03.61-1.24.68l-5.91,1.83-7.47-2.45c-.16.14.34,1.32.67,1.31Z"/>
      <path class="cls-1" d="M44.4,42.96c-6.51,4.03-14.25,4-21.83,3.73,3.3,1.45,6.91.69,10.71.44,3.96-.26,7.44-1.49,10.78-3.09.22-.11.48-.95.33-1.08Z"/>
      <path class="cls-1" d="M7.97,8l-1.05-.38c-.1-.04-.13-.16-.05-.23l.68-.48c.09-.06,0-.2-.1-.23-1.3-.46-6.04,2.19-7.44,3.55,2.89.9,5.96-.25,7.97-2.22Z"/>
      <path class="cls-1" d="M49.21,6.48c.43,1.24,1.59,1.31,2.55,1.77l-2.8-.39c2.31,2.67,5.35,2.98,8.26,2.43-2.53-1.97-4.94-3.28-8.01-3.81Z"/>
      <path class="cls-1" d="M29.29,25.38l.47-6.94-2.88.12c-.16,2.67.46,4.95,2.42,6.83Z"/>
      <path class="cls-1" d="M22.11,14.14c-1.83,2.37-2.26,5.57-.62,8.16.17-2.76.78-4.74,2.56-7.11-.21-.58-1.62-1.46-1.94-1.05Z"/>
      <path class="cls-1" d="M36.86,51.4l1.52,5.43c1.15-1.39,1.04-2.64.73-4.39l.69.69c.57-.82-.4-7.46-1.71-5.6l.62,3.51-1.29-3.81c-.97,1.42-.93,2.83-.55,4.17Z"/>
      <path class="cls-1" d="M35.47,22.04c1.43-2.57,1.23-6.12-.93-8.03-.39-.34-1.73.88-1.45,1.32,1.3,2.11,2.15,4.32,2.38,6.7Z"/>
      <path class="cls-1" d="M53.53,13.87c-1.29-2.39-2.69-3.47-4.93-4.17l.49,1.23-1.18.67c1.71,1.51,3.53,2.36,5.62,2.27Z"/>
      <path class="cls-1" d="M8.57,9.76c-2.56.49-3.96,2.07-5.22,4.29,1.72-.27,5.62-1.01,5.62-3.17l-2.6.89c.82-.41,1.69-1.02,2.2-2.01Z"/>
      <path class="cls-1" d="M29.56,32.06l-2.65.48c.18,1.82.62,3.48,1.43,4.78,1.39-1.9,1.63-3.53,1.22-5.26Z"/>
      <path class="cls-1" d="M19.79,40.21c.2.21,1.08-.17,1.15-.15l1.52.81-.84-4.37-.79,1.07c-.13.17-.51.31-.66.15l-.82-.86c-.46.77-.15,2.7.44,3.35Z"/>
      <path class="cls-1" d="M30.09,15.3c-.26-.62-1.13-.98-1.97-.98-.59,0-1.78,1.05-1.5,1.53l1.21,2.11c.49-.83.59-1.12.75-1.07s.66.27.83.27c.57-.02.91-1.33.68-1.86Z"/>
      <path class="cls-1" d="M14.32,45.63c-2.19,2.34-2.32,5.48-1.63,8.44,1.04-2.82,1.64-5.45,1.63-8.44Z"/>
      <path class="cls-1" d="M36.08,37.74l-.52-1.18c-.8,1.33-1.14,2.88-.61,4.41l.81-1.05c.31.22.97.53,1.29.47.78-.15,1-2.39.24-3.86l-.22-1.78c-.41.11-1.38.9-1.22,1.28l.69,1.63c.03.11-.4.2-.46.07Z"/>
      <path class="cls-1" d="M17.23,36.97l-.48-.26-.76-.43c-.17-.1-.12.79-.12,1.19,0,1.45,1.08,2.21,2.31,2.38l-.12-3.72c-.02-.55-.6-1.71-1.11-1.86-.28-.08-.87.79-.68,1.01l.87,1c.09.11.29.56.36.71.04.1-.18.01-.27-.04Z"/>
      <path class="cls-1" d="M44.17,54.23c.82-3.21.48-6.22-1.44-8.74-.09,1.49-.05,2.87.26,4.08l1.19,4.66Z"/>
      <path class="cls-1" d="M9.59,12.97c-1.87.87-3.33,1.94-4,4.11,1.59-.25,3.51-1.26,4.59-2.43l-.6-1.68Z"/>
      <path class="cls-1" d="M17.37,16.64c.91-2.07,3.62-3.46,3.57-5.09-.05-1.7-3.75.51-3.57,5.09Z"/>
      <path class="cls-1" d="M39.65,34.34c-.13.16-.49.67-.52.89l-.51,4.71c.74-.18,1.91-.65,2.17-1.22.31-.68.26-2.12.02-2.54l-1.37,1.05,1.09-2.05c.13-.24-.71-1.06-.88-.84Z"/>
      <path class="cls-1" d="M.2,6.5c2.5,1.09,4.86.38,6.96-.85l-2.94.16,2.55-.8c-2.49-.66-4.5.49-6.57,1.49Z"/>
      <path class="cls-1" d="M56.78,6.41c-2.09-.99-4.12-1.72-6.66-1.73l2.39,1.15-2.47-.19c2,1.08,4.2,2.07,6.73.77Z"/>
      <path class="cls-1" d="M39.44,16.1c.37-2.43-2.09-6.12-3.12-5-1.3,1.41,1.62,2.59,3.12,5Z"/>
      <path class="cls-1" d="M47.28,13.07c.07.51.27,1.01.1,1.07l-.78.26c1.22,1.24,2.9,2.85,4.63,2.17-1-2.1-2.44-3.05-3.95-3.5Z"/>
      <path class="cls-1" d="M13.3,13.34l.98,3.15,1.3,4.55c.82-1.92-.06-3.02-.63-4.33-1.53-4.51-2.58-8.96-4.5-13.56.38,3.6,1.8,6.78,2.86,10.19Z"/>
      <path class="cls-1" d="M11.14,50.56l2.35-5.12c-.23-.2-1.02-.63-1.19-.42l-.65.77c-.98,1.16-1.28,3.33-.5,4.78Z"/>
      <path class="cls-1" d="M44.76,45.12c-.17-.17-.73.13-1.07.32l2.15,5.1c.91-1.67.26-4.13-1.08-5.42Z"/>
      <path class="cls-1" d="M20,9.31c.17-.26-.49-1.38-.92-1.21-1.72.66-2.86,2.34-3.15,3.99,1.24-1.16,2.25-1.83,4.07-2.78Z"/>
      <path class="cls-1" d="M37.79,8.01c-.35-.11-1.32.28-1.25.55.36,1.3,2.4,1.43,4.36,3.24-.36-1.53-1.93-3.41-3.12-3.79Z"/>
      <path class="cls-1" d="M44.03,11.07c1.39-2.63,2.18-5.14,2.6-7.87-1.49,2.54-2.1,5.08-2.6,7.87Z"/>
      <path class="cls-1" d="M24.53,43.81l1.39,2.17c1.09-.21,1.32-.2,2.51-.03-1.01-1.03-1.91-2.67-3.9-2.13Z"/>
      <path class="cls-1" d="M13.52,37.01c.04.83,1.04,1.82,1.79,1.54-.6-2.1-.97-3.44-1.96-5.11l.17,3.57Z"/>
      <path class="cls-1" d="M14.7,2.03c.45,2.13,1.17,4.22,2.04,6.09.39-.1.68-.15.6-.28l-.5-.82c.08-.55.33-1.12.45-.47l.56.94c.04.08.18-.05.3-.16-.62-1.61-1.21-3.19-1.21-4.73v-1c0-.21-1.17.04-1.12.25l1.14,4.51c-1.66-1.08-.29-3.27-2.26-4.32Z"/>
      <path class="cls-1" d="M20.29,46.15l-6.59-2.24c-.62.84,6.81,3.4,6.59,2.24Z"/>
      <path class="cls-1" d="M17.89,26.51l1.74-3.31-1.28.47.19-1.85c-1.38,1.34-1.11,3.15-.65,4.68Z"/>
      <path class="cls-1" d="M38,22.36v.76s1.32,3.5,1.32,3.5c1.06-3.2-1.3-5.45-1.32-4.26Z"/>
      <path class="cls-1" d="M41.81,48.76c.14-.52,0-1.64-.19-2.43-.49.09-1.07.26-1.33.53-.22.22-.12,1.18-.01,1.49l.35,1.08c.07.22,1.12-.45,1.18-.67Z"/>
      <path class="cls-1" d="M29.41,45.92c.9.42,2.48-1.11,2.86-2.15.35-.98-3.95.86-2.86,2.15Z"/>
      <path class="cls-1" d="M14.73,50.53c-.05.35.85,1.13.93.78.27-2.2,1.74-4.11,1.05-4.44l-1.33-.65c-.46.98-.32,2.52.28,3.24-.36.24-.89.72-.93,1.07Z"/>
      <path class="cls-1" d="M43.29,36.7l.1-3.09-1.93,5.08c1.15-.07,1.8-1.05,1.83-1.99Z"/>
      <path class="cls-1" d="M36.77,25.2c-.12-.25-1.14.26-1.04.53l1.17,3.18c.63-1.16.27-2.87-.13-3.71Z"/>
      <path class="cls-1" d="M40.96,41.75v1.25s-.96-.82-.96-.82c-.15-.12-.72.43-.59.58l.73.79c.18.19,1.21.15,1.31-.09l.89-2.09c-.33-.06-1.38.09-1.38.38Z"/>
      <path class="cls-1" d="M33.14,43.46c-.12.02.04.49.13.58l.41.37c.8.73,1.69,1.67,2.74.39l-2.29-1.38c-.17-.1-.81.01-.99.04Z"/>
      <path class="cls-1" d="M21.44,24.95l-.5.66c-.09.12-.55.13-.83.18-.35,1.03-.29,2.37.04,3.37l.95-1.96c.28-.59.4-1.67.35-2.25Z"/>
      <path class="cls-1" d="M33.41,27.08c-.41,1.39.03,2.9.8,3.87.74-1.79.5-3.09-.8-3.87Z"/>
      <path class="cls-1" d="M23.57,43.78c-.23-.13-1.22-.1-1.5.08l-1.87,1.21c1.32.81,2.9.14,3.37-1.29Z"/>
      <path class="cls-1" d="M35.77,47.9c-.06-.2-1.11.04-1.14.24-.09.65-.02,1.84.11,2.77,1.22-.22,1.26-2.27,1.03-3.02Z"/>
      <path class="cls-1" d="M22.02,50.94l.24-1.33c.06-.31-.03-1.18-.09-1.47-.05-.22-.69-.13-1.16-.12-.02.64-.07,1.78-.04,2.34.02.28.99.85,1.04.59Z"/>
      <path class="cls-1" d="M41.61,20.41l1.14-3.36c-.99-.26-1.24.69-1.46,1.49l-.3,1.1c-.06.21.43.62.62.77Z"/>
      <path class="cls-1" d="M45.18,33.43c-.15-.02-.93.35-.91.63l.08.93-1.08,2.82c1.82-1.04,2.01-2.66,1.9-4.38Z"/>
      <path class="cls-1" d="M48.77,18.97l-2.45-2.85c-.07.83.07,1.87.42,2.4.27.41,1.35.56,2.03.45Z"/>
      <path class="cls-1" d="M23.76,27.94c-.69.32-1.38.66-1.41,1.15-.04.81.1,1.6.41,2.28l1-3.43Z"/>
      <path class="cls-1" d="M26.08,30.81c-1.3.7-1.53,2.28-.41,3.18.35-1.25.46-2.23.41-3.18Z"/>
      <path class="cls-1" d="M12.06,34.8c-.12,1.13.26,2.31,1.38,2.78l-1.26-4.54c-.76.79-.19,1.08-.12,1.76Z"/>
      <path class="cls-1" d="M30.57,30.74c.03,1.33.38,2.58.93,3.59.32-1.99.31-2.86-.93-3.59Z"/>
      <path class="cls-1" d="M40.8,3.77l-1.12.73-1.25,2.89c1.47-.95,1.78-2.18,2.36-3.62Z"/>
      <path class="cls-1" d="M9.16,17.62c-.32.3-.62.9-.92,1.62l2.71-.95c-.55-.75-1.35-1.09-1.79-.67Z"/>
      <path class="cls-1" d="M15.92,23.73l1.79-2.41-1.15-.55c-.23.84-.49,1.84-.64,2.96Z"/>
      <rect class="cls-1" x="40.82" y="49.67" width="1.43" height="1.85" transform="translate(-11.57 12.32) rotate(-14.83)"/>
      <path class="cls-1" d="M37.36,45.02c.66-.87,1.05-1.79,1.24-2.75-1.09.66-1.79,1.61-1.24,2.75Z"/>
      <path class="cls-1" d="M20.52,36.8c.46-.29.63-1.16.32-1.45-.23-.21-1.06-.5-1.21-.24-.32.55.44,1.96.88,1.68Z"/>
      <path class="cls-1" d="M43.53,40.54c-.46.55-.88,1.68-1.02,2.52.99-.46,2.09-1.02,1.02-2.52Z"/>
      <path class="cls-1" d="M39.26,8.03c1.92-.23,1.46-1.78,1.81-3.12l-1.81,3.12Z"/>
      <rect class="cls-1" x="18.35" y="42.56" width=".84" height="2.24" transform="translate(-12.85 8.18) rotate(-18.44)"/>
      <path class="cls-1" d="M15.88,43.68c0-1.06-.4-1.96-1.12-2.62-.05,1.06.29,2.02,1.12,2.62Z"/>
      <path class="cls-1" d="M13.14,42.22c.19.26.59.45,1.4.78l-1.2-2.59c-.45.66-.51,1.38-.2,1.81Z"/>
      <path class="cls-1" d="M42.95,14.42c.84-1.13,1.13-2.22,1.25-3.45-.89,1.06-1.4,2.24-1.25,3.45Z"/>
    </g>
  </g>
</svg>