<?xml version="1.0" encoding="UTF-8"?>
<svg id="Warstwa_2" data-name="Warstwa 2" xmlns="http://www.w3.org/2000/svg" viewBox="0 0 56.75 59.74">
  <defs>
    <style>
      .cls-1 {
        fill: #fff;
      }
    </style>
  </defs>
  <g id="icon-v9-equipment-pixarts-store">
    <g id="icon-v9-equipment-pixarts-store_351">
      <path class="cls-1" d="M39.97,36.35c-3.43-1.87-10.03-2.07-11.6-4.85-.55.81-1.59,1.75-2.83,2.09-2.85.78-5.98,1.67-8.73,2.74-.54.21-.51,2.09-.25,2.24,2.6-.36,7.98-1.58,9.62,1.04,2.16,3.46-2.49,3.34,2.22,7.97,2.27-2.57,2.68-2.45,1.88-4.91-.67-2.04.5-4.25,2.84-4.54,2.42-.3,4.75.01,7.21.46.17-.32.16-2.02-.35-2.24Z"/>
      <path class="cls-1" d="M25.57,32.67c-.32-3.15-1.04-6.06-2.39-8.61-4.3,2.29-6.8,6.73-6.7,11.47l9.09-2.86Z"/>
      <path class="cls-1" d="M40.27,35.52c.22-4.52-2.26-9.06-6.62-11.47-1.53,2.68-2.04,5.73-2.34,8.64l8.97,2.83Z"/>
      <path class="cls-1" d="M40.23,39.47c-1.14,3-2.18,5.41-5.4,6.36l-.45,4.85c-.17,1.86-.36,3.58-.23,5.42,9.25-5.21,5.97-7.23,6.09-16.64Z"/>
      <path class="cls-1" d="M22.73,56.12c-.05-3.8-.32-7.15-.95-10.44-3.18-1-4.36-3.36-4.87-6.4-1.03.31-.15,7.61-.92,10.26,1.38,2.98,3.69,5.26,6.74,6.57Z"/>
      <path class="cls-1" d="M14.25,23.35c-3.92,5.21-3.44,12.13,1.1,16.93.23-1.18.58-3.06-.06-4.23-2.18-3.97-2.27-8.37.82-11.55,1.53-1.58,2.13-3.8,1.15-5.95l-2.6-5.69c-.22,3.91,2.73,6.31-.41,10.49Z"/>
      <path class="cls-1" d="M33.28,57.08l.95-11.74c3.43-.71,6.25-6.06,4.6-6.33-1.69-.28-.37,4-6.06,4.66l-1.12,16.05c3.33-.4,12.69-7.34,9.66-9.69-1.89,3.56-4.47,5.75-8.02,7.05Z"/>
      <path class="cls-1" d="M41.26,36.09v4.36c4.65-4.78,5.19-11.78,1.27-17.11-3.08-4.18-.16-6.4-.48-10.42l-2.26,4.88c-1.21,2.39-.93,4.8.87,6.68,3.07,3.22,3.27,7.94.6,11.61Z"/>
      <path class="cls-1" d="M25.18,59.74l-1.25-16.12c-5.23-.45-4.85-4.9-5.57-4.61l-.86.35c.18,2.77,2.27,5.13,5.08,6.06l.95,11.67c-3.71-1.38-6.26-3.77-8.01-7.01-3.21,2.35,7.14,9.62,9.65,9.66Z"/>
      <path class="cls-1" d="M8.54,14.34l1.82,2.79c.29-.73.33-1.48.09-2.01-1.76-4.02-3.1-7.73-4.4-11.93-3,4.38.82,14.14,4.21,17.41-.11-2.23-.98-3.97-1.73-6.25Z"/>
      <path class="cls-1" d="M46.48,17l2.06-3.32c-.7,2.58-2.22,4.35-1.87,6.83,3.44-3.96,6.83-12.53,4-17.32-1.22,4.16-2.51,7.76-4.24,11.58-.29.65-.31,1.3.05,2.23Z"/>
      <path class="cls-1" d="M11.58,10.76c.62,1.52,1.02,2.76,2.21,3.97.17-.75.19-1.54-.03-2.14-1.52-4.11-2.12-8.04-2.47-12.49-3.86,4.26-1.76,12.43.83,16.69,1.1-2.32-.64-3.92-.54-6.03Z"/>
      <path class="cls-1" d="M45.51,9.93l-.5,2.17c-.37,1.62-.85,2.93-.44,4.57,2.83-4.11,4.7-12.67.9-16.67-.27,4.35-.76,8.21-2.38,12.19-.27.67-.29,1.6-.14,2.35,1.26-1.28,1.82-2.78,2.57-4.61Z"/>
      <path class="cls-1" d="M48.71,20.93l.93-.52c-.5,1.31-1.4,2.23-1.25,3.74,3.71-3.19,7.76-10.3,6.17-14.59l-6.16,10.16c-.17.28.12,1.33.31,1.22Z"/>
      <path class="cls-1" d="M8.71,24.2c-.28-1.07-.71-2.15-1.16-3.24l.75-.24c.22-.07.21-.92.07-1.13-2.03-3.1-4.2-6.7-6.19-10.1-1.75,3.82,2.86,12.45,6.53,14.7Z"/>
      <path class="cls-1" d="M28.37,30.9l.96.52.51-6.54c.14-1.8.52-3.25-1.57-4.57l-1.69,2.1.73,8.9c.47-.22.87-.53,1.06-.42Z"/>
      <path class="cls-1" d="M49.85,24.38c.11.1.25.09.39.04l.75-.27c-.74,1.01-1.42,1.92-2.07,3.26,4.3-1.92,7.41-5.89,7.6-10.53l-6.47,6.5c-.11.11-.29.91-.2,1.01Z"/>
      <path class="cls-1" d="M7.77,27.47c-.56-1.51-1.43-2.64-2.32-3.6.78.33,1.26.54,1.91.14L.17,16.84c.3,4.81,3.41,8.52,7.6,10.62Z"/>
      <path class="cls-1" d="M7.88,30.99c-1.03-1.07-1.28-2.33-1.49-3.24L0,23.54c.79,4.05,4.36,6.82,7.88,7.45Z"/>
      <path class="cls-1" d="M50.29,27.66c-.25.16-.05,1.13.19,1.08l1.06-.22c-1.06.84-1.95,1.41-2.67,2.58,3.96-.86,7.09-3.63,7.88-7.54l-6.46,4.1Z"/>
      <path class="cls-1" d="M56.07,29.5l-5.98,2.07.23,1.13-2.16,1.64c3.46-.22,6.58-1.45,7.91-4.84Z"/>
      <path class="cls-1" d="M.61,29.48c1.43,3.17,4.25,4.68,7.5,4.69l-2.45-1.53,1.4-.94-6.45-2.23Z"/>
      <path class="cls-1" d="M32.82,23.72l-2.08-.67-.42,3.56c-.23,1.93-.4,3.8.04,5.8.57-3.24,1.1-5.81,2.46-8.69Z"/>
      <path class="cls-1" d="M54.66,34.48l-6.43.77,1.77.8-2.17,1.06c3.06.73,5.3-.46,6.83-2.63Z"/>
      <path class="cls-1" d="M9,37.16l-1.85-1.12,1.51-.91-6.58-.6c1.87,2.4,4.37,3.11,6.92,2.63Z"/>
      <path class="cls-1" d="M45.36,26.02c1.64-1.61,2.97-3.29,2.28-5.41l-3,2.59c.78-2.47,1.71-4.09,1.06-6.38-2.01,3.03-3.47,4.39-1.79,6.98l1.45,2.23Z"/>
      <path class="cls-1" d="M11.56,25.92c.72-2.2,2.88-3.46,2.04-4.97l-2.27-4.09c-1.27,2.37.11,4.48,1.35,6.83l-3.54-2.94c-.56,2.35.87,3.95,2.41,5.16Z"/>
      <path class="cls-1" d="M25.95,23.06l-1.79.63,2.46,8.44c.1-3.35-.27-5.76-.66-9.07Z"/>
      <path class="cls-1" d="M52.5,38.73l-5.69-.75c.34.79.8,1.22.54,1.31l-1.42.51c2.12.82,4.72,1.03,6.57-1.06Z"/>
      <path class="cls-1" d="M11.48,38.2c-.51.08-.72.52-1,1.64l-1.93-.79c.8-.38,1.06-.42,1.62-1.14l-5.89.87c1.87,2.02,4.18,1.64,6.38,1.11l2.77-.67c-.46-.84-1.02-1.17-1.95-1.02Z"/>
      <path class="cls-1" d="M49.71,42.6l-3.95-2.15-.41,1.01c-.06.14-.65.26-1.24.46,1.35,1.28,3.74,1.95,5.6.69Z"/>
      <path class="cls-1" d="M10.89,28.91l.48-2.44-3.61-2c.32,2.42,1.6,3.46,3.13,4.44Z"/>
      <path class="cls-1" d="M13.33,14.93c-.69,2.34-.02,4.53,1.09,6.51,1.14-2.34.42-4.59-1.09-6.51Z"/>
      <path class="cls-1" d="M42.33,21.37c1.13-1.93,1.66-4.1,1.09-6.42-1.57,1.9-2.17,4.26-1.09,6.42Z"/>
      <path class="cls-1" d="M7.01,42.6c2.02,1.13,4.1.73,5.71-.72l-1.35-.19c-.16-.02-.05-.38-.01-1.13l-4.35,2.04Z"/>
      <path class="cls-1" d="M46.12,29.38l-.07,2.54c1.65-.69,2.59-1.55,3.8-3.39-1.52-.26-2.5.2-3.73.85Z"/>
      <path class="cls-1" d="M7.12,28.61c1.01,1.57,1.88,2.44,3.55,3.36l.05-2.32c-.99-.75-2.25-1.32-3.6-1.04Z"/>
      <path class="cls-1" d="M46.22,45.31l-2.53-2.71c-.5.21-.87.5-1.08.36l-1.02-.65c-.75,1.83,2.47,3.15,4.63,2.99Z"/>
      <path class="cls-1" d="M45.65,26.68c-.28.39.1,1.76.44,2.13,1.53-1.1,2.48-2.3,2.97-4.09-1.36.24-2.69.99-3.41,1.97Z"/>
      <path class="cls-1" d="M10.64,45.27c2.03-.1,3.78-.4,4.78-2.46l-2.48-.1-2.3,2.56Z"/>
      <path class="cls-1" d="M11.18,34.49c-.19-1.31-.6-2.23-1.14-2.25-.74-.03-1.77,0-2.66.05.79,1.53,2.27,2.25,3.8,2.2Z"/>
      <path class="cls-1" d="M46.24,32.48c-.46.17-.66,1.79-.41,2.07,1.64-.31,2.82-1.04,3.58-2.37-1.13-.04-2.41.02-3.17.29Z"/>
      <path class="cls-1" d="M10.94,35.38c-.7.03-1.63.25-2.3.49,1.05,1.23,2.05,1.69,3.56,1.45-.18-.78-.67-1.96-1.26-1.94Z"/>
      <path class="cls-1" d="M48.2,35.93c-.78-.36-1.98-.64-2.63-.42-.48.16-.72,1.07-.95,1.86,1.42.08,2.56-.33,3.59-1.44Z"/>
      <path class="cls-1" d="M43.57,39.19c.29,1.04,2.85.13,2.46-.78-.65-.68-2.72-.19-2.46.78Z"/>
      <path class="cls-1" d="M42.05,41.04c-.04.33.78.94,1.06.77l1.21-.75c-.46-1.13-2.18-.75-2.27-.01Z"/>
      <path class="cls-1" d="M12.66,40.76c.06.81,1.72,1.37,1.95-.11-.4-.49-1.98-.39-1.95.11Z"/>
    </g>
  </g>
</svg>