<?xml version="1.0" encoding="UTF-8"?>
<svg id="Warstwa_2" data-name="Warstwa 2" xmlns="http://www.w3.org/2000/svg" viewBox="0 0 47.77 57.11">
  <defs>
    <style>
      .cls-1 {
        fill: #fff;
      }
    </style>
  </defs>
  <g id="icon-v9-equipment-pixarts-store">
    <g id="icon-v9-equipment-pixarts-store_170">
      <path class="cls-1" d="M7.31,51.85c7.67,7.8,17.59,6.02,25.95.56,5.81-3.79,10.49-8.9,13.1-15.38,1.86-4.61,2.32-10.62-1.46-14.19-.19-.18-.33-1.06-.56-1.07l-.71-.05-.37-2.64-1.23,1.8v-3.02c0-.52-1.16-1.32-1.67-1.33.31,1.29.27,2.36-.49,3.07-1.03.96-2.2.85-3.68.55.21,2.51,2.22,2.72,4.37,2.82-1.41,1.43-2.33-.12-3.66.96-.14.12.47.69.73.69,3.23,0,6.54,2.51,6.83,6.2.4,5.14-1.48,10.23-5.36,13.71,1.03-1.99,1.96-3.71,2.75-5.77-.85-.9-1.78-1.64-2.53-2.09l-1.88,2.23,1.62-4.39c.85-2.31,1.24-4.78.42-7.05-.1,11.9-11.11,22.38-22.68,22.24-1.47-.02-3.03-.88-4.33-1.09,1.12.91,2.8,1.78,4.28,1.81l4.99.1-1.51.77c.63,1.4,2.2,2.22,3.85,2.05l3.5-.38c-5.02,2.97-14.27,2.55-16.2-4.03-1.17-3.98.09-8.02,2.52-11.09-.27-.3-.52-.47-.41-.56.09-.07.41-.33.49-.39l3.47-3.26-1.52-.27c2.19-.72,3.82-1.95,3.39-4.21-1.64,1.56-4.18,2.09-5.08.68-.37-.58-.49-1.64-.7-2.76-.77.59-1.44,1.82-1.15,2.87.24.87.87,1.73,1.49,2.7-.94-.34-1.59-.99-2.4-1.86-.17,1.04-.16,1.97-.05,3.34l-.84-.72-.64,1.87c-1.57,2.25-2.52,4.46-3.11,7.22-1.02-6.32,2.66-5.52,2.13-11.86l-.22-2.59,1.46-1.97-1.11-.5c1.77-.81,2.68-2.5,1.91-4.11-.87.91-2.03,1.46-3.1,1.23-1.32-.28-1.74-1.32-2.16-2.65-.48.58-1.09,1.83-.87,2.43.25.68.94,1.18,1.83,2.06l-2.27-.77c-.3,1.13.38,2.3,1.59,3.01l-1.6-.02c-.17.99.41,2,1.35,2.61-.58,0-1.37-.16-1.44.14l-.29,1.25-1.1,5.47c-.18-1.95-.09-3.91.15-6.03.63-5.72-1.09-9,3.01-12.22l.07-1.4c.57-.97.64-2.06.32-2.91-1.13.8-1.98,1.23-3.06.92-.76-.22-1.23-1.18-1.67-2.08-.49.37-1.13,1.77-.75,2.31l1.34,1.93-1.55-.6c0,1.24.64,2.37,1.7,2.9h-1.34s.41,4.31.41,4.31c.12,1.28.09,2.41-.27,3.39-3.11,8.62-.45,18.51,6.01,25.09Z"/>
      <path class="cls-1" d="M13.3,10.18c-.3.59-.67,1.44-.52,1.92.16.49.77,1.21,1.24,1.32l3.36.8-2.46,1.64,2.32,3.58c.45.7,2.32.91,3.14.86l3.76-.24-.81,1.55,3.8.84c.79-1.71,1.19-3.05,1.29-4.7.99-.94,1.32-2.6.42-3.71l-2.05-2.54-1.86.63.55-2.2-2.02-2.75-8.11-1.05-2.05,4.07Z"/>
      <path class="cls-1" d="M20.52,28.06c.24.16.81.34,1.14.36l7.99.67-2.97-5.65c-1.34-.53-3.12-1.1-4.56-.74-.84,1-2.74,4.61-1.59,5.36Z"/>
      <path class="cls-1" d="M34.86,20.77l-3.47-1.95c-2.28-1.28-2.88,2.53-3.47,4.01l2.7,6.15,4.24-8.21Z"/>
      <path class="cls-1" d="M33.46,11.28c.28,1.48,2.18,1.66,3.48,1.75,1.19,3.38,5.11.1,7.5,6.52.67-2.4-3.91-8.74-4.16-8.49l-.42.44-.77-2.51-.71,1.45c-.24-2.1-.47-3.75-2.43-3.78.54,1.09.78,2.29.28,3.29-.39.8-1.69,1.14-2.77,1.33Z"/>
      <path class="cls-1" d="M22.27,20.96c-3.68-.07-9.54,6.57-6.89,8.45.32.23,1.42.07,1.58-.33l1.21-3.08-.23,2.61c1.74-3.21,1.14-4.72,4.33-7.66Z"/>
      <path class="cls-1" d="M14.33,25.21l2.43-5.01-2.5-3.91c-2.63,3.26-2.2,2.62-1.68,5.38.24,1.28.52,2.63,1.74,3.55Z"/>
      <path class="cls-1" d="M12.54,8.72c-2.28.8-4.04,1.23-4.69,3.73,1.23-.35,2.85-.86,3.86-1.34l2.94-5.39-2.04-2.72-2.75,3.96c1.28.57,1.96.93,2.68,1.75Z"/>
      <path class="cls-1" d="M7.95,21.62c.74.18,1.76-.14,2.05-.75.63-1.34,1.31-2.29,1.52-3.68l3.3-2.65c-3.39-.22-6.42,1.89-7.7,5.12-.27.69.28,1.82.84,1.96Z"/>
      <path class="cls-1" d="M37.63,19.16c.48.26,1.55-.14,1.75-.64.19-.45-.19-1.64-.6-1.9-2.84-1.83-6.53-1.56-8.78.74l4.88-.26-1.49.48,2.82.99c.45.16,1,.36,1.41.58Z"/>
      <polygon class="cls-1" points="30.02 30.57 21.01 29.74 20.7 31.49 30.32 32.84 30.02 30.57"/>
      <path class="cls-1" d="M26.51,10.28l3.38-1.18,4.74.95c.53.11,1.19-1.41.94-1.82-1.55-2.59-7.73-1.26-9.06,2.04Z"/>
      <path class="cls-1" d="M27.96,2.31c.05.78-.71,1.61-1.46,2.18,1.77,1.22,3.71,1.57,6.04,1.16l-1.3-2.4-.76-1.47-.6,1.38c-.3-.9-.54-1.83-.89-2.38-.39-.62-1.84-.89-2.48-.74.73.69,1.38,1.35,1.45,2.27Z"/>
      <path class="cls-1" d="M3.75,13.69c.41.06,1.47-.26,1.71-.63l2.01-3.14c.47-.73,2.14-1.11,2.97-1.59-2.98-1.12-6.45.49-7.44,3.67-.18.57.27,1.63.75,1.7Z"/>
      <path class="cls-1" d="M26.14,3.46l.85-1.16c.17-.23-.35-1.1-.62-1.21-1.13-.49-3.06-.31-4.22.55-.9.67-1.64,1.92-1.74,3.17,1.78-1.44,3.6-2.17,5.73-1.34Z"/>
      <path class="cls-1" d="M30.89,10.86c-.59-.62-2.51-.08-3.51.33.81,1,1.75,2.06,2.42,2.66,1.53-.07,2.61-.05,3.96.05l-2.87-3.04Z"/>
      <path class="cls-1" d="M19.17,5.85l.38-2.18-5.86-.56c1.47,2.92,2.36,2.23,5.48,2.74Z"/>
      <polygon class="cls-1" points="11.54 12.14 7.96 13.25 8.56 15.66 12.5 13.56 11.54 12.14"/>
      <path class="cls-1" d="M25.8,9.31l2.2-2.17c-.55-.44-1.58-1.18-2.23-1.52-.49-.25-1.79,1.1-1.48,1.54l1.51,2.15Z"/>
      <path class="cls-1" d="M34.42,26.35c.56-.98.93-2.2,1.09-3.39l-3.91,6.59c-.48.81-.76,1.73-.63,2.82l3.45-6.02Z"/>
      <path class="cls-1" d="M20.9,6.11l2.6.2c.37.03,1.19-1.13,1.11-1.29-1.28-.75-2.8-.37-3.71,1.09Z"/>
      <path class="cls-1" d="M30.15,15.25c.16.13.7.26.9.18l2.28-.93-2.68-.04c-.19,0-.65.66-.49.8Z"/>
    </g>
  </g>
</svg>