<?xml version="1.0" encoding="UTF-8"?>
<svg id="Warstwa_2" data-name="Warstwa 2" xmlns="http://www.w3.org/2000/svg" viewBox="0 0 57.76 60.7">
  <defs>
    <style>
      .cls-1 {
        fill: #fff;
      }
    </style>
  </defs>
  <g id="icon-v9-equipment-pixarts-store">
    <g id="icon-v9-equipment-pixarts-store_76">
      <path class="cls-1" d="M28.44,11.14l-2.7,4.17c-.2.31-.27,1.46.02,1.61.29.15.58.21,1.29.37l4.29,2.51c.14.08.72-.63.73-.47s.17,1,.29,1.11l4.26,4.03c1.55,1.47,2.56,2.97,3.36,4.88l2.67,6.39c1.24-.28,2.33-.71,3.29-1.32l-2.76-.46c1.72-1.4,2.78-3.2,3.42-5.12l-3.43,1.06c1.07-1.86,1.61-2.23,2.66-3.38l-4.49.72c1.22-2.31,1.99-3.96,2.12-6.29l-3.84,2.66c.44-1.53,1.18-2.88,2.21-4.63-2.07.34-3.88,1.22-5.71,2.28.42-2.13.76-3.82.93-6.25l-3.33,2.75.53-3.88-5.57,2.92-.23-5.68Z"/>
      <path class="cls-1" d="M15.67,13.46l.65,2.16c.81-1.55,1.16-2.57,2.15-3.38l-2.33,7.1c-3.85,2.9-4.02,4.51-3.18,9.32.06.32,1.2.36,1.52.22,4.43-1.83,4.84-4.41,6.25-8.59l-2.01.7,2.06-1.98c.4-.38-.07-1.7-.37-2.37l1.56-1.9c1.31-1.59,1.8-3.58.46-5.63-1.4,1.92-3.05,2.82-5.39,2.9-.54.02-1.53.95-1.38,1.46Z"/>
      <path class="cls-1" d="M32.13,44.27c-1.35-10.65-3.82-17.85-7.66-27.77l-2.42,2.72,3.37,9.51c2,5.64,3.04,11.09,3.99,17.09l2.72-1.55Z"/>
      <path class="cls-1" d="M28.22,45.02l-1.82-9.06-3.75-.77c-3.06-.63-5.83-1.17-9.02-1.31.63,1.5,1.64,2.3,2.73,2.71-1.07,3.08,5.95.71,7.74,1.77l-2.65.37,1.19.49-3.73.38c2.29,1.95,4.12,3.94,6.97,3.5l-.97.73,3.29,1.19Z"/>
      <path class="cls-1" d="M17.24,49.18l4.52-1.67c-.32,1.45-.17,3.17.6,4.24l2.17.17c1.15.09,2.42-1.57,2.57-2.6l-3.32,2.11c.67-1.52-1.7-5.56-2.86-5.39l-2.1.3c-.16-1.44-1.26-3.32-2.99-3.44-1.23-.09-2.55.41-3.98.78l.8-4.33-5.31.26c.21.85.39,1.76.85,1.8l2.26.21c0,1-.27,3.97,1.4,3.87,1.72-.11,3.83-.82,5.45-1.24-.26,1.69-.28,3.07-.06,4.92Z"/>
      <path class="cls-1" d="M39.97,16.49l4.98-.79c1.6-1.74,3.28-3.75,4.07-5.94-2.22,1.24-3.29,2.51-5.66,2.41-.04-2.13.69-3.76,1.38-5.76-6.24,5.14-4.23,3.27-4.77,10.08Z"/>
      <path class="cls-1" d="M12.16,32.43l13.75,2.39c-.19-.91-.57-1.26-1.84-1.86,1.8.57,1.38-.28,1.3-.65-.06-.26-.56-.92-.95-1-1.66-.36-11.7-2.52-12.19-1.09-.07.19.03.65.22.74l.88.44-1.25.19c-.18.03-.01.49.09.84Z"/>
      <path class="cls-1" d="M4.61,57.62l3.95-2.24c1.64-.93,3.68-1.33,4.19-3.73l-1.43.43c.09-.36.34-1.19.16-1.34l-2.38-1.96-1.2,1.21.51-2.12c-2.11-.63-3.56,8.18-3.78,9.75Z"/>
      <path class="cls-1" d="M48.49,15.5l-1.88,2.97c-.07,2.14-.32,3.82-.82,5.58l4.11-.94c1.52-.35,2.83-2.53,3.27-3.88-1.03.49-2.3.98-3.25.58-.33-2.02.23-3.86,1.2-5.77-.97-.04-2.08.59-2.63,1.45Z"/>
      <path class="cls-1" d="M30.89,7.65l.41,4.36c1.67-.7,3.46-1.18,5.15-1.49,1.45-.98,4.07-4.01,3.08-5.66-1.27,2.32-3.21,2.93-5.99,2.98l.74-3.91c-1.32.85-2.74,2.11-3.39,3.72Z"/>
      <path class="cls-1" d="M31.98,36.52l8.64,2.22c.8-.53,1.74-1.55,2.15-2.26l-11.55-3.49.76,3.53Z"/>
      <path class="cls-1" d="M9.29,47.11c1.01-.53,1.25-.47.54.58l3.32,2.86c1,.87,2.55.7,3.49.08-4.54-3.21-9.68-6.98-10.94-13-2.92.83,1.77,8.19,3.59,9.48Z"/>
      <path class="cls-1" d="M21.55,44.9c4.22,3.45,3.08,1.12,5.69,2.74.47.29,1.21.6,1.54.38.34-.23.86-1.16.71-1.29l-3.87-1.47.17,1.53c-.37-1.67-4.1-3.98-4.75-3.78-.66-.62-1.71-1.55-2.68-2.4l-3.11-2.75-.27,1.49c-.13-.49-.09-1.81-.36-2.16l-3.35-4.34c-4.07,1.24,8.79,12.76,10.28,12.05Z"/>
      <path class="cls-1" d="M44.43,9.35c-.13.4.18,1.6.58,1.65,2.41.28,6.5-6.28,6.84-9.08-3.44,1.41-6.32,3.95-7.42,7.43Z"/>
      <path class="cls-1" d="M53.88,23.74c-4.77,1.11-4.17,4.54-5.74,7.94,1.78.78,4.15-.08,5.28-1.9l-1.47-.51c.27-1.91,1.02-3.75,1.92-5.53Z"/>
      <path class="cls-1" d="M55.42,8.83c-1.21,5.03-6.17,6.36-4.24,10.56,3.72-1.99,5.62-6.7,4.24-10.56Z"/>
      <path class="cls-1" d="M34.63,5.96c.2.81.36.98.94.06.16-.68.18-.36.15.75,3.08.02,3.25-4.38,8.84-6.69-4.28-.61-8.53,1.89-9.92,5.87Z"/>
      <path class="cls-1" d="M10.19,59.67c3.27-.49,6.5-1.98,8.29-4.96-1.19.27-2.07,1.23-2.85,1.9l1.37-2.38c.2-.34-1.29-1.05-1.6-.81l-1.18.95.11-1.68c-2.05,1.54-.92,3.35-4.15,6.98Z"/>
      <path class="cls-1" d="M16.99,10.89c5.36.62,3.83-4.46,9.39-6.74-2.71-.37-4.88.94-6.8,2.53l-2.59,4.21Z"/>
      <path class="cls-1" d="M1.23,52.11l3.35-3.69c.54.21.82.03,1.55-.42.51-.32.86-1.67.5-2.24-.26-.42-.74-.58-1.27-.55l-.09-1.33c-.14-2.09-4.72,5.69-4.03,8.24Z"/>
      <path class="cls-1" d="M57.31,19.66c-.96,3.96-5.62,6.45-3.87,9.38,3.25-2.08,5.27-5.74,3.87-9.38Z"/>
      <path class="cls-1" d="M26.39,18.32c6.41,3.69,11.67,8.61,13.79,15.34.12.38.68.88,1.14,1.17-.29-1.65-.87-3.1-1.73-4.7-2.91-5.13-7.13-10.24-13.19-11.81Z"/>
      <path class="cls-1" d="M19.48,55.28l-.21.68c-.54,1.73-1.21,3.2-2.28,4.74,3.03-.48,5.29-2.75,7.2-4.99l-2.88-.23-1.08.98v-1.04c0-.19-.69-.33-.75-.14Z"/>
      <path class="cls-1" d="M19.42,53.74c.88.39,2.41.27,3.26.42.61.11,1.51.34,2.08.22.47-.1.88-1.23.71-1.54l-1.12.56s-5.71-1.88-6.89-2.31c-.62-.23-1.96.18-2.76.58l4.73,2.08Z"/>
      <path class="cls-1" d="M39.14,11.57l-.44,4.07-.4-2.7-.83,6.53c2.95-1.32,5.84-.54,6.69-2.81-2.24-.21-4.03.46-5.7,1.6.65-2.11,1.86-4.22.69-6.7Z"/>
      <path class="cls-1" d="M4.36,42.19l-.42-1.05-.53-1.31c-1.99,1.63-3.25,3.8-3.42,6.1,1.52-1.71,4.7-2.89,4.36-3.74Z"/>
      <path class="cls-1" d="M47.19,25.55l-1.32-.62c.6-.1,1.23-.11,1.98,0,.61.09,1.38-.39,1.49-1.4l-5.19,1.54c.82-1.26,1.34-2.23,1.45-3.27-.6-1.05-.57-1.22.32-.2l-.12-2.88c-2.21,1.47-1.04,4.05-2.7,7.29l4.07-.46Z"/>
      <path class="cls-1" d="M21.49,21.16c-1.33,3.03-2.37,5.98-5.27,7.7,2.18.69,3.37-.87,4.12-2.48l1.54-3.28c.22-.46-.08-1.5-.39-1.94Z"/>
      <path class="cls-1" d="M30.2,27.28c3.98,3.5,3.68,5.54,5.53,5.73-1.5-3.37-3.51-6.09-6.76-7.92.11.77.6,1.64,1.23,2.19Z"/>
      <path class="cls-1" d="M12.31,21.48l3.24-2.79-1.35-3.49c-1.1,1.83-2.12,4.12-1.89,6.28Z"/>
      <path class="cls-1" d="M36.67,41.78l-1.48-.02,1.51-2.4c.11-.18-.53-1.04-.65-.87l-.51.76c-2.33,3.48-3.1,1.85-2.32,4.49,1.19-.59,2.32-1.22,3.44-1.97Z"/>
      <polygon class="cls-1" points="23.43 26.63 20.61 29.5 24.6 30.25 23.43 26.63"/>
      <path class="cls-1" d="M7.28,38.61c.11.26,1.43.51,1.57.17l.57-1.41c.38-.92.46-1.9-.01-2.53-1.17.92-1.81,2.41-2.14,3.77Z"/>
      <path class="cls-1" d="M33.37,32.25c-.9-1.48-1.67-2.55-3.2-3.58.1,1.41.26,4.02,3.2,3.58Z"/>
      <path class="cls-1" d="M34.67,38.65l-2.45-.68.52,3.14c.99-.49,2.18-1.74,1.93-2.46Z"/>
      <path class="cls-1" d="M49.21,27.37c-.88.42-.78.95-1.32.74l-2.08,4.27c2.69-.72,2.7-3.05,3.4-5.01Z"/>
      <path class="cls-1" d="M14.89,47.95c0,.53.64.95,1.5,1.21-.04-1.41-.15-2.73-.3-3.63-1.92.2-1.2,1.65-1.2,2.42Z"/>
      <path class="cls-1" d="M22.44,24.29c-.12.12-.63.48-.71.64l-1.85,3.94c3.72-2.69,3.19-5.18,2.56-4.58Z"/>
      <path class="cls-1" d="M29.94,8.32l-.06,2.87-.58-1.9c-.09,2.09-.04,3.39.17,5.04,1.15-2.11,1.34-4.08.47-6.01Z"/>
      <path class="cls-1" d="M31.94,23.05l-.4,3.15,1.42.99c.29-1.73.37-2.98-1.02-4.13Z"/>
      <path class="cls-1" d="M31.12,24.04l-1.26-2.44c-.2.75-.44,1.98-.45,2.62,0,.29.99.61,1.24.73.19.1.58-.69.47-.91Z"/>
      <path class="cls-1" d="M36.35,29.64l-1.27.56c.28.78,1.95,1.36,2.63.31l-1.21-2.27c-.14.45.13,1.27-.15,1.39Z"/>
      <path class="cls-1" d="M19.09,50.71c.22-.15.8-.55.77-.53l1.05,1.26-.11-2.46-2.68.8c-.02.2.69,1.12.97.93Z"/>
      <path class="cls-1" d="M35.53,12.45c-2.27.33-4.86,1.09-6.43,3.08l6.43-3.08Z"/>
      <path class="cls-1" d="M50.03,32.82c-1.79-.54-3.46-.32-5,.56,1.83.59,3.43.38,5-.56Z"/>
      <polygon class="cls-1" points="24.12 47.75 24.7 49.9 26.71 48.65 24.12 47.75"/>
      <path class="cls-1" d="M37.41,39.51l-.7,1.69c1.05-.48,1.61-.9,2.37-1.72-.53-.37-1.52-.35-1.68.04Z"/>
      <path class="cls-1" d="M15.89,17.1c-.15-1.52-.29-2.36-.52-3.33-.95,1.19-1.02,2.98.52,3.33Z"/>
      <path class="cls-1" d="M36.24,32.37l.56.78c.26.36,1.56-1.6,1.07-1.57l-.88.04c-.25.01-.89.56-.75.76Z"/>
      <path class="cls-1" d="M34.22,25.8c-.34-.01-.8.89-.71,1.22.12.44,1.77.36,1.81-.1.03-.34-.76-1.11-1.1-1.12Z"/>
      <path class="cls-1" d="M35.57,27.82l-1.6.24.64,1.22c.13.24.91-.26,1.09-.47.18-.21.15-1.03-.13-.99Z"/>
      <polygon class="cls-1" points="11.8 38.42 10.48 36.77 9.71 38.58 11.8 38.42"/>
      <path class="cls-1" d="M13.13,42.49l1.42-.48c.49-.17-1.05-1.55-1.22-1.05-.17.5-.48,1.62-.2,1.53Z"/>
    </g>
  </g>
</svg>