<?xml version="1.0" encoding="UTF-8"?>
<svg id="Warstwa_2" data-name="Warstwa 2" xmlns="http://www.w3.org/2000/svg" viewBox="0 0 58.1 57.11">
  <defs>
    <style>
      .cls-1 {
        fill: #fff;
      }
    </style>
  </defs>
  <g id="icon-v9-equipment-pixarts-store">
    <g id="icon-v9-equipment-pixarts-store_310">
      <path class="cls-1" d="M28.99,22.24c-3.42,0-6.19,2.77-6.19,6.19s2.77,6.19,6.19,6.19,6.19-2.77,6.19-6.19-2.77-6.19-6.19-6.19ZM32.37,31.98l.43-1.94c.22-1-3.36-.85-2.42-1.48,1.1.16,2.71.63,2.98-.26.5-1.62-.97-2.81-2.16-3.5l-.71,1.64c-.13-1.49.18-2.09-1.03-2.42-.79-.22-1.53.14-1.98.95l-.76-.24c-.33-.11-2.86,1.73-2.28,3.73l2.08.49c-.58-.01-1.69.87-1.44,1.6.61,1.79,2.05,2.16,3.41,1.93l.24-3.02-.78.54c-.13.09-.77-.28-.64-.37l.73-.49.04-.39c.01-.1.08-.46.14-.39l.68.75c.13.15.67-.34.53-.49l-.82-.88,1.8-1.75c.02,4.19-2.41,3.28-.88,6.66l2.75-.66c-1.72,1.91-4.58,1.86-6.5.3-1.8-1.46-2.38-4.12-1.3-6.24,1.13-2.22,3.93-3.18,6.42-2.25,1.52.57,2.83,2.19,3.07,3.43.37,1.93-.31,3.67-1.61,4.75Z"/>
      <path class="cls-1" d="M38.54,30.86c-.26.05-.26-1-.1-1.22.16-.22.73-.41.93-.23l.79.71.05-4.11-1.81.31c-.25.04-.14-.91-.09-1.18.05-.3.59-.67.8-.46l.95.92c.14-1.53.07-3.03-.22-4.33-6.8.56-8.26-.73-14.46-.05-2.45.27-4.71.1-7.33,0l-.09,4.23,1.33-1.39.48,2.15h-1.88c-.05,1.28-.06,2.9,0,3.82,0,.11.86.17.98.14.11-.02.21-.1.16-.2l-.34-.61c-.11-.21.61-.05.7.18.1.26.37,1.1.11,1.11l-1.68.05c-.16,1.02-.16,2.28-.05,3.91l1.38-1.22c.45,1.26.96,1.61,2.11,1.68l4.8.3c2.57.16,5.08.18,7.4-.05l4.66-.48c.27-.6.6-1.21.85-1.05l1.26.84c.37-1.18.29-2.71.09-4.14l-1.78.37ZM28.99,34.61c-3.42,0-6.19-2.77-6.19-6.19s2.77-6.19,6.19-6.19,6.19,2.77,6.19,6.19-2.77,6.19-6.19,6.19Z"/>
      <path class="cls-1" d="M18.38,38.09c-.54.76-.39,2.56.27,3.1,6.91,1.57,13.56,1.2,20.66.23.36-1.22.56-2.08.71-3.3-7.34,1.13-14.26,1.28-21.64-.03Z"/>
      <path class="cls-1" d="M37.02,17.47c-.53.08-1.53-.53-1.93-1.15l.99-2.06c-4.49,2.49-9.55,2.48-14.02.04.47.77.89,1.88.41,2.58-.39.56-2.04.6-2.36.05l-1.18-1.96c-.21,1.14-.34,2.52-.24,3.58h20.66c-.04-1.53-.26-2.46-.7-3.11-.46,1.01-.85,1.89-1.63,2.01Z"/>
      <path class="cls-1" d="M32.99,35.98c-5.18.41-9.51.14-15.14-.86l.06,2.34c4.31.84,12.66,1.13,16.69.7l4.36-.46c.31-.03,1.14-.28,1.15-.55l.05-1.19c.01-.33-.05-.85-.23-.77l-.74.32c-.15.06.33.55.21.67l-.63.61c-.11.11-.42-.27-.41-.43l.06-.8-5.42.43Z"/>
      <path class="cls-1" d="M49.93,27.85c.12,1.75.43,3.44,1.1,5.13,2.98-.67,5.29-1.73,7.07-3.7l-1.41-4.95-6.75,3.53Z"/>
      <path class="cls-1" d="M1.44,25.54c.04.29.91.19,1.34.1.25-.05.18.76.07,1.07-.06.18-.6-.14-.77-.27l-1.03-.77-1.05,3.96c2.35,1.77,4.39,2.72,6.99,3.28.6-1.86.93-3.66.89-5.36l-6.17-2.89c-.22-.2-.31.54-.26.88Z"/>
      <path class="cls-1" d="M36.71,3.58c-.6-1.35-.83-2.74-2.67-3.11-2.76-.56-11.02-1.09-12.1,1.4-.37.85-.43,2.06-.4,2.8l-.7-.07c-.18-.02-.26.79-.21.98l1.21,4.32c.14.51-.26,1.8.14,2.14.46.39,1.41.93,1.99,1.02l3.31.52-.11-1.08c.36.41.59.65,1.21.57l-5.39-8.17c-.37-.56-.45-2.02-.23-2.55.9-2.14,11.76-2.25,12.53.03.85,2.49-5.3,9.2-7.25,11.71.81.25,1.63-.33,2.2-1.02l-.08.8c-.03.27,4.74-.13,5.65-3.2l1.43-4.79c.27-.89-.18-1.48-.55-2.29Z"/>
      <path class="cls-1" d="M40.87,43c1.37-.34,2.49-.87,3.05-1.94-9.58,2.85-20.09,2.26-29.97.19,3.28,2.34,7.58,3.1,11.52,3.1.91,0,2.3-.42,3.27-.52,3.99-.42,0,2.22,12.13-.83Z"/>
      <path class="cls-1" d="M48.24,16.82l.97-1.78c.48.43,1,.87,1.08.62.08-.23.22-.69.21-.9l-.05-.79c0-.14.35-.18.45-.08l.64.57c.37.33.79-1.19.57-1.64l-1.54-3.16c-2.16,1.87-4.13,3.35-6.53,4.91.3,1.82.7,3.35,1.35,5.13l1.25-3.6,1.59.71Z"/>
      <path class="cls-1" d="M6.21,14.1l1.22.08.3,1.19c.06.23.81-.05,1.02-.14.38.5,1.25,1.35,1.81,1.35.23-.12.86-.6.9-.4.04.2.17.81.28,1.01l1.03,1.83c.59-1.48.96-2.84,1.15-4.25-.55-.47-1.15-1.01-1.59-1.33l-5.1-3.76-1.29,2.95c-.13.29-.05,1.45.26,1.47Z"/>
      <path class="cls-1" d="M3.9,17.88c-.06.22.24.9.46.87l.89-.15,1.1,1.57c1.16-1.55,1.06,1.27,1.74.84l.95-.59c.37-.23.65,1.15.75,1.58l.52-.65.25,2.58c.76-1.76,1.19-3.74,1.24-5.46l-6.88-4.08-1,3.49Z"/>
      <path class="cls-1" d="M50.53,25.66c.64.31,1.61.57,1.71.23l.36-1.18c.45.21,1.16.52,1.35.28.16-.2.19-.78.26-1.2.03-.2.48-.31.62-.2l.83.7c.05-1.7-.23-3.16-.76-4.91l-6.73,3.76c.18,1.94.44,3.65,1.22,5.36l.08-3.06.62,1.62.44-1.4Z"/>
      <path class="cls-1" d="M48.58,20.9c.06-.18.41-.3.57-.19l.84.61c.34.25.65-1.34.72-1.52l1.45.43c.29.09.43-.85.44-1.16l.02-.67c.02-.63.82,1.17,1.09.65.07-.14.44-.82.39-.98l-1.07-3.54-6.86,4.16c.19,1.71.67,3.58,1.47,5.22l-.17-3.29.7,1.62.41-1.34Z"/>
      <path class="cls-1" d="M2.2,23.29c.59.03,1.18-.24,1.32.02l.7,1.25c.16.29.28.44.4.35.1-.07.62-.35.66-.27l.75,1.32c.16.28.99-.35,1.23-.71.02-.16.59.34.49.5l-.54.88c.25.01.81-.03.93-.2l.36-.48.3,2.53c.55-1.77.97-3.64,1.19-5.45l-6.88-3.7-.91,3.96Z"/>
      <path class="cls-1" d="M43.23,15.05l1.44-2.71c.45.21,1.1.52,1.17.28l.23-.91c.07-.28.24-.8.48-.77l.97.13c.38.05.57-.98.73-1.52l.78.52c.08.06,1.63-1.45-1.64-4.18l-5.59,5.05c-.11-2.44,6.28-4.96,5.78-7.41-1.68,1.27-2.98,2.72-4.38,4.2.87-2.34,3.57-2.89,4.28-5.51-2.44,1.52-4.25,3.68-5.75,6.28l1.71-.87-2.18,2.68,1.99,4.74Z"/>
      <path class="cls-1" d="M14.41,15.21l2.15-3.89-5.93-5.49-2.3,2.77c-.17.21.34,1.43.57,1.3l.98-.57.56,1.94.92-.53c.12-.07.41.19.4.33l-.1.77,1.68,1.39c.3-.59.59-1.13.69-.97,1.11,1.74-.19.56.37,2.96Z"/>
      <path class="cls-1" d="M17.64,20.69l22.95-.02c.12,3.38,1.29,6.73,4.69,7.44l-2.44-2.18c-3.19-4.44-1.48-11.39-4.31-12.7.99,2.4,1.56,4.56,1.49,7.11l-10.87-.13c-4.17-.05-6.91.26-11.27.08l.34-4.52c.36-.97.94-1.99,1.21-3.21-2.64,2.55-1.38,4.88-3.07,10.94-.59,2.11-2.01,2.98-3.73,4.83,3.71-1.39,4.23-3.61,4.99-7.61Z"/>
      <path class="cls-1" d="M10.71,2.28c.38,1.23.9,1.74,1.56,2.63-.78-.81-1.18-1.66-2.11-.71l6.69,6.84c1.24-1.99-4.96-8.42-6.14-8.75Z"/>
      <path class="cls-1" d="M34.57,49.91c-.34.07.49,1.15.85,1.09,1.33-.22,10.83-1.55,9.23-3.59-3.41,1.1-6.54,1.85-10.08,2.5Z"/>
      <path class="cls-1" d="M23.75,50.07c-2.5-.82-6.94-1.2-10.42-2.8-1.03,2.3,8.31,3.6,9.51,3.77.33.04,1.15-.89.9-.97Z"/>
      <path class="cls-1" d="M21.32,12.42c.69,1.56,2.18,1.96,3.65,2.53,3.83,1.2,8.69,1.26,11.43-2.17-4.87,3.08-10.33,2.9-15.09-.36Z"/>
      <path class="cls-1" d="M40.93,29.98c1.48-.31,2.61-.62,3.68-1-1.79-1.46-2.86-2.53-3.86-4.42l.18,5.42Z"/>
      <path class="cls-1" d="M13.58,28.94l3.63,1.03.14-5.4c-1.67,3.27-1.79,2-3.78,4.37Z"/>
      <path class="cls-1" d="M16.84,39.02l-2.74-.71c-.1.3-.01,1.63.34,1.76.75.28,2.15.71,3.17,1.04l-.24-3.18-3.58-.81c.88,1.79,2.5.11,3.04,1.9Z"/>
      <path class="cls-1" d="M17.09,34.14l-.21-2.29-3.65-.69c-.28,1.32.42,2.86,1.56,2.9l2.3.08Z"/>
      <path class="cls-1" d="M43.57,40.1c.41-.19.45-1.8.2-1.74l-2.03.62c-.19.06-.37-.71-.19-.77,2.29-.86,2.25.58,2.67-.82-.93.06-2.2.27-3.24.62-.57.54-.77,2.23-.78,3.07,1.16-.24,2.56-.59,3.37-.98Z"/>
      <polygon class="cls-1" points="41.1 34.23 44.63 33.38 44.92 31.03 41.12 31.8 41.1 34.23"/>
      <path class="cls-1" d="M23.7,19.67l10.55.02c2-.33,3.87.87,5.65-.34h-21.45c1.79.57,3.48.38,5.25.33Z"/>
      <path class="cls-1" d="M34.57,53.56c-.28-.15-1.37.16-1.47.46-.2.69-.1,2.07.12,3.09l.64-1.56.44,1.57.58-1.56.59,1.16c1.21-.98-.34-2.85-.9-3.15Z"/>
      <path class="cls-1" d="M23.13,53.89c-.2.28-1.81,2.7-.96,2.37.2-.08.37-.09.42-.19l.42-.86-.26,1.51c-.04.13.47.09.53-.05l.32-.78.43,1.08c.08.19.4-.35.44-.55l.16-.86.51,1.46-.02-3.09c-.44-.16-1.74-.39-2-.04Z"/>
      <path class="cls-1" d="M19.34,9.25c.92-.66-2.22-7.69-1.97-4.27.09,1.16.17,3.74,1.97,4.27Z"/>
      <path class="cls-1" d="M38.84,9.19c.19-.09.69-.46.76-.66l1.3-3.43c-.37-.2-1.29-.31-1.39-.03l-1.17,3.25c-.07.2.31.97.5.88Z"/>
      <path class="cls-1" d="M41.05,5.62l-1.38,4.34c1.09-1.14,1.33-2.39,2.17-4.01-.11-.79-.53-1.11-.79-.33Z"/>
      <path class="cls-1" d="M30.64,50.14h-3.03c-.46-.01-1,.62-1.21,1.23l5.24.05c-.25-.79-.6-1.28-1.01-1.28Z"/>
      <path class="cls-1" d="M17.14,35.61c-.19-.07-.83-.12-1.08-.06l-2.36.54c1.46.79,2.5.98,3.7,1.05-.11-1.08-.06-1.45-.26-1.53Z"/>
      <path class="cls-1" d="M40.16,47.82c.35-.06.7-1.04.4-1.23-1.16-.73-.51.11-3.1.46-.31.04-.89.03-.85.2l.2.78c-.54-.37-1.17-.71-1.82-.85-.48-.11-1.56.99-.96,1.41,1.03.73,2.31-.15,3.22-.25l1.46-.15c.29-.03-.15-.98-.09-1.03.69.43,1.19.71,1.54.66Z"/>
      <path class="cls-1" d="M37.3,9c.68-.45,1.92-4.74,1.9-4.63.59-3.96-2.94,6.03-1.9,4.63Z"/>
      <path class="cls-1" d="M45.34,29.82c-1.74.03-3.26.34-4.9,1.12,1.72.16,3.31-.13,4.9-1.12Z"/>
      <path class="cls-1" d="M18.91,4.05c.24,1.75.79,3.51,1.5,4.98.12-1.99-.47-3.49-1.5-4.98Z"/>
      <path class="cls-1" d="M17.25,30.9c-1.64-.79-2.98-1.04-4.59-1.24,1.51,1,3.07,1.7,4.59,1.24Z"/>
      <path class="cls-1" d="M21.35,47.9c.71.57,1.55,1.04,2.3,1.07-.03-.65-.77-1.59-1.28-1.64-.4-.04-.98.15-1.38.24-.73-.48-1.53-.73-2.28-.74l-1.68-.58c.25,1.25,1.06,1.81,1.96,1.91l-.1-.97c.77.69,1.39,1.13,2.42,1.61l.05-.91Z"/>
      <path class="cls-1" d="M26.83,44.92l.84,1.75c.07.62.23,2.17.94,2.24.31.03.73-1.17.46-1.31l-1.05-.55.66-.82s-.97-1.94-1.85-1.32Z"/>
      <path class="cls-1" d="M36.52,44.86c.03.28.52,1.11.89,1.14.32.02.97-.24,1.32-.43-.33-.9-1.36-1.12-2.22-.71Z"/>
      <path class="cls-1" d="M32.92,46.53c.29.07.86-.03,1.41-.11-.31-1.1-.98-1.32-2.24-.97.1.28.49,1,.83,1.08Z"/>
      <path class="cls-1" d="M41.98,47.42c.32-.23,1.16-.74.95-.91l-1.07-.87c-.99.81-.92.71-.76.97.24.4.67.97.89.81Z"/>
      <path class="cls-1" d="M25.04,51.29c.74-.64,1.94-2.4,1.24-3.7l-1.16,1.76c1.21.58.99.72-.23.44l-.62,1.02c-.12.21.59.63.77.47Z"/>
      <path class="cls-1" d="M44.36,43l-.73-.02c-.28,0-1.3.26-1.16.5l.54.95c.23.39,1.97-1.41,1.35-1.43Z"/>
      <path class="cls-1" d="M22.78,45.12l-1.3.06-1.62-.63c.19,1.31.98,1.81,1.95,1.86l-.11-1.03c.66.66,1.33,1.2,2.08,1.16-.09-.57-.63-1.43-1.01-1.42Z"/>
      <path class="cls-1" d="M36.42,46.01c-.02-.33-.55-1.09-.88-1.02l-1.16.25.67,1.06c.15.24,1.39,0,1.37-.29Z"/>
      <path class="cls-1" d="M41.26,35.07l-.44,2.19c1.76-.5,1.29-1.5.44-2.19Z"/>
      <path class="cls-1" d="M13.69,45.42c.19.44.44,1.05.64,1.3.16.2.61.15.98.25l1.77.5-1.28-2.07-.61,1.35-.87-1.57c-.17-.31-1.3-.32-1.18-.16.11,1.16.21,1.16.54.41Z"/>
      <path class="cls-1" d="M29.44,45.32c0,.42.34.75.75.75s.75-.34.75-.75-.34-.75-.75-.75-.75.34-.75.75Z"/>
      <path class="cls-1" d="M23.65,52.35c.09.72,2.07,1.03,1.79.13-.24-.78-1.88-.86-1.79-.13Z"/>
      <path class="cls-1" d="M43.73,46.5c.26.11.87-.68.8-.95l-.22-.75-1.31.77c-.22.13.47.82.73.93Z"/>
      <path class="cls-1" d="M25.44,46.7c.57-.55-.61-1.77-1.39-1.32-.22.33,1.02,1.68,1.39,1.32Z"/>
      <path class="cls-1" d="M33.86,50.73c0-.39-.32-.71-.71-.71s-.71.32-.71.71.32.71.71.71.71-.32.71-.71Z"/>
      <path class="cls-1" d="M41.89,44.95c.22,0,.59-.59.44-.76-.18-.19-.59-.66-.77-.53l-.86.67-1.87.04c-.04.2.32,1.21.66,1.07l1.33-.53,1.08.03Z"/>
      <rect class="cls-1" x="18.47" y="44.04" width=".84" height="2.07" transform="translate(-22.1 18.45) rotate(-34.25)"/>
      <path class="cls-1" d="M34.71,52.21c-.58-.52-2.24-.24-2.01.48.23.73,2.08.13,2.01-.48Z"/>
      <path class="cls-1" d="M30.91,23.8c-2.49-.93-5.29.03-6.42,2.25-1.08,2.12-.51,4.78,1.3,6.24,1.93,1.56,4.78,1.61,6.5-.3l-2.75.66c-1.52-3.38.9-2.47.88-6.66l-1.8,1.75.82.88c.14.15-.4.64-.53.49l-.68-.75c-.07-.07-.13.29-.14.39l-.04.39-.73.49c-.13.09.51.46.64.37l.78-.54-.24,3.02c-1.36.23-2.8-.14-3.41-1.93-.25-.73.86-1.62,1.44-1.6l-2.08-.49c-.58-2,1.94-3.84,2.28-3.73l.76.24c.45-.81,1.19-1.17,1.98-.95,1.2.33.89.93,1.03,2.42l.71-1.64c1.18.69,2.65,1.88,2.16,3.5-.27.89-1.89.42-2.98.26-.94.63,2.64.47,2.42,1.48l-.43,1.94c1.3-1.08,1.98-2.81,1.61-4.75-.24-1.24-1.55-2.86-3.07-3.43Z"/>
    </g>
  </g>
</svg>