<?xml version="1.0" encoding="UTF-8"?>
<svg id="Warstwa_2" data-name="Warstwa 2" xmlns="http://www.w3.org/2000/svg" viewBox="0 0 55.92 60.53">
  <defs>
    <style>
      .cls-1 {
        fill: #fff;
      }
    </style>
  </defs>
  <g id="icon-v9-equipment-pixarts-store">
    <g id="icon-v9-equipment-pixarts-store_131">
      <path class="cls-1" d="M3.65,40.14c-3.13,5.77-.84,11.23,4.17,14.85,8.15,5.89,7.41.95,16.19,5.15-5.32-6.5-9.66.32-14.72-7.4-1.78-2.71-2.06-5.53-.21-8.37,2.84-4.35,4.98-8.99,6.7-13.94.64-1.85,1.58-3.57,2.65-5.23.48,3.15.7,6.13,3.89,7.02-2.35-3.05-2.33-6.11.01-8.7,2.53-2.79,5.61-4.97,8.65-7.21,2.07-1.52,2.65-4.43.65-6.05-.59,1.59-1.72,2.85-2.9,2.91-1.99.09-2.61-1.26-3.13-3.09-.57.71-.89,1.93-.8,3.05.28,3.46-1.63,6.55-4.82,7.81-.49.19-1.99.03-2.23-.44-.21-.4-.4-1.06-.71-2.04-7.28,5.78-1.42,9.51-5.29,16.84-3.68,6.95-7.24,8.09-5.82,14.99-3.05-6.09,1.53-8.88,4.89-15.15,3.75-7-1.37-11.42,4.85-16.78,1.12-.96,1.76-2.23,2.21-3.59.95,2.13-.59,3.87.38,5.15.9,1.18,6.38-1.57,5.86-6.77-.23-2.25.78-4.55,2.57-5.51-.07,1.86-.82,3.48.86,4.56.72.46,2.15.05,2.65-.55,1.89-2.29-.04-3.44,1.63-5.34.77,1.11,1.55,2.06,2.64,2.72,2.72,1.64,3.41,4.65,1.77,7.33-.87,1.43-1.24,3.07-.42,4.54.54.96,1.9,2.82,3.47,2.1,2.3-1.06,1.84-4.26,1.24-6.57,7.08,6.89-.27,10.04,4.06,17.37l5.23,8.86c1.8,3.05,1.92,6.96-.62,9.52.09-2.13,1.9-4,1.21-6.04-1.2-3.53-3.35-6.64-5.41-9.71-6.78-10.09.43-10.19-3.03-16.63-.47,1.36-.86,3.02-1.77,3.78-1.55,1.29-3.34.17-4.37-.96-5.43-5.99,6.16-8.81-3.66-14,4.31,6.76-1.47,7.18-1.16,11.75.24,3.43,6.08,4.37,3.57,10.21,1.58-.94,2.16-2.08,3.03-3.62,1.1.8,2.11,2.09,2.58,3.49,1.62,4.84,3.68,9.3,6.48,13.54,2.09,3.16,2,6.58-.38,9.52-5.19,6.42-9.53.33-14.59,7.03,7.22-4.8,9.91.33,16.39-5.62,1.23-1.13,2.56-2.17,3.67-3.35,2.5-2.63,2.68-6.56.76-9.32l-1.1.34c-.9.28-2.17-3.63-1.67-4.64.47,1.52.74,2.43,1.78,3.87l.6-1.58c2.03,1.59,2.53,4.11,2.56,7.49,2.34-4.43,1.28-7.52-2.22-12.56-1.44-2.07-1.46-4.28-.52-6.7-2.38,1.37-2.73,3.91-2.33,6.53-5.21-4.2-2.88-10.1-4.74-17.03-1.99-7.41-6.84-8.06-9.74-11.38-1.77-2.03-1.46-4.28.2-6.58-6.89,1.27-15.7,5.99-14.99,13.9-2.28-1.54-1.83-3.77-.78-6.26-5.34,3.63-8.91,9.63-9.38,16.26-.24,3.43,1.58,8.1-1.64,11.15-.28.27-1.25.49-1.61.37-1.05-.34-.98-3.51-.65-4.46l.92,3.59c3.07-.44,2.55-6.67,1.04-8.04l-.59,3.03c-2.63-1.51-3.42-4.34-1.88-6.93.37-.63.65-1.56.79-2.34l-3.18,4.03c-3.47,4.4,3.48,6.32-1.53,13.95-2.07,3.14-2.64,7.12-.35,10.2-.16-3.3-.72-6.58,2.17-8.32ZM37.66,18.73c.89.2,1.38.24,1.5.64.18.58-.74,1.84-1.16,1.39-.49-.52-.57-1.6-.34-2.03Z"/>
      <path class="cls-1" d="M11.75,47.24c.03,3.26,2.73,5.83,5.85,6.48,2.86.6,4.91,1.45,7.41,3.53-1.06-3.15-2.3-2.04-1.39-6.1.59-2.64-1.29-5.19-3.52-6.52-2.4-1.43-4.1-3.06-5.17-5.59-.52,3.37,1.57,2.37.34,6.69-.59,2.08.22,4.27,2.28,4.99.99.34,2.01-.19,2.19-1.12.12-.66-.73-1.84-1.41-1.59l.08,1.19c.01.19-.81.28-.98.17-.7-.43-.85-1.83-.48-2.47.42-.73,1.7-1.03,2.59-.61,1.2.57,1.95,1.93,2.07,2.99.13,1.22-.24,2.73-1.29,3.31-2.01,1.11-4.28.03-5.69-1.64-2.08-2.48-1.74-5.17-1.75-8.3-.56,1.37-1.14,3-1.13,4.57Z"/>
      <path class="cls-1" d="M41.24,40.06c-.58,7.29-7.07,5.06-6.67,10.47.24-.5.89-1.61,1.31-1.44.5.2,1.08,1.22.92,1.62-.94,2.33-4.95,2.2-5.59,6.93,2.06-2.1,3.91-3.24,6.66-3.74,2.68-.48,6.43-2.78,5.92-5.91l-.66-4.05-1.48,2.57c.53,1.44.74,2.73,0,3.91-.66,1.04-1.94,2.05-3.13,1.91.83-1.35,2.35-2.49,1.67-3.73-.67-1.23-.94-2.06-.05-3.13,1.29-1.55,2.08-3.5,1.12-5.39Z"/>
      <path class="cls-1" d="M51.43,17.02l-.19,2.21c-2.33-1.3-2.12-3.54-2.11-5.75-4.29,6.01,2.07,6.51.9,12.2,3.09-1.96,3.48-5.74,1.4-8.66Z"/>
      <path class="cls-1" d="M38.66,31.7c-2,6.61-6.45,3.15-7.49,9.88,1.94-1.91,8.35-2.17,7.91-6.13l-.42-3.75Z"/>
      <path class="cls-1" d="M17.04,32.08c-1.04,2.56-.07,6.36,2.91,7.35,1.81.6,3.28,1.17,4.88,2.44-1.6-7.44-5.84-3.88-7.79-9.79Z"/>
      <path class="cls-1" d="M31.78,52.42c.64-1.44-.92-4.24,3.75-7.14,1.72-1.07,3.4-2.77,2.76-4.81-1.11,1.43-2.37,2.75-3.89,3.34-5.91,2.28-3.1,9.71-2.61,8.61Z"/>
      <path class="cls-1" d="M28.04,36c1.74-4.18,2.23-5.62-.08-10.04-2.49,4.64-1.81,5.11.08,10.04Z"/>
      <path class="cls-1" d="M7.62,12.53c-.17,1.14.64,2.65,1.06,3.51,1.64-4.05,1.52-2.22,1.07-6.52-.73.68-1.95,1.85-2.13,3.01Z"/>
      <path class="cls-1" d="M27.31,37.96c.35-1.7-.59-3.34-.96-5.09-.36-1.65-.13-3.4-2.31-3.7.88,3.07,1.94,5.78,3.27,8.78Z"/>
      <path class="cls-1" d="M24.28,28.27l1.57,1.06c1.1-2.1,2.03-3.79,1.74-6.17l-3.32,5.12Z"/>
      <path class="cls-1" d="M29.82,28.95c.48.01,1.38-.61,1.54-.99l-3.13-4.56c-.3,2.11.63,3.84,1.58,5.56Z"/>
      <path class="cls-1" d="M39.69,6.02l1.41,2.23c1.41-3-.88-2.09-1.28-5.43-.94.88-.83,2.1-.13,3.2Z"/>
      <path class="cls-1" d="M30.15,32.79c1.27-1.37,1.39-2.77,1.23-3.95-1.61.73-1.78,2.59-1.23,3.95Z"/>
      <path class="cls-1" d="M28.28,38.48c.96-1.8,1.54-3.19,2.36-5.28-1.51-.34-2.28,3.91-2.36,5.28Z"/>
    </g>
  </g>
</svg>