<?xml version="1.0" encoding="UTF-8"?>
<svg id="Warstwa_2" data-name="Warstwa 2" xmlns="http://www.w3.org/2000/svg" viewBox="0 0 57.52 54.25">
  <defs>
    <style>
      .cls-1 {
        fill: #fff;
      }
    </style>
  </defs>
  <g id="icon-v9-equipment-pixarts-store">
    <g id="icon-v9-equipment-pixarts-store_256">
      <path class="cls-1" d="M2.5,5.37c.85,3.08,14.32,4.4,17.68,4.34l-.94-1.45c-3.12-.46-13.2-1.06-15.11-3.35-.23-.28.61-1.29.98-1.29l1.12.02-1.15.76c-1.51.99,13.69,3.02,14.46,2.88l1.31-1.29c.29-.28,1.08-.79,1.46-.69.32.08.8.46,1.29.85,2.98-1.71,6.64-1.8,9.6.12.62-.57,1.14-1.07,1.47-1.02,1.34.21,1.7,1.97,2.76,1.91,4.49-.24,9.78-.98,14.21-2.28l-.34-1.39c6.06,3.01-12.36,4.68-13.6,4.72l-1.05,1.57c2.79-.03,17.17-1.25,17.4-4.72.18-2.69-7.12-3.74-9.4-4.04C33.44-.42,22.25-.32,11.07,1.19c-2.01.27-9.32,1.46-8.57,4.17Z"/>
      <path class="cls-1" d="M25.18,43.82l-.42,6.27,3.59,1.73,3.4-1.71-.3-6.55-.34-7.82-.24-12.53c-1.36.09-2.12,1.04-2.55,2.14-.37-.82-.65-1.53-1.03-1.8-.33-.23-1.52-.26-1.69-.06.06,3.03-.03,5.84-.11,8.7l-.32,11.62ZM28.26,47.94c-.34-.15-.79.47-1.37.85l.53-1.56-.75-.99c-.17-.23.24-.94.47-1.16.65-.61,1.4-.73,1.82-.4,1.04.81.91,1.56-.13,2.3l.97,1.64-1.54-.69ZM29.84,33.9l-.34.83-.41-.56c-.11-.16-.63-.31-.63-.27l-.11,3.45c-1.09-.27-.19-3.63-.87-3.27l-.88.48c-.08-1.12,1.18-1.59,2.31-1.25.24.07,1.02.38.93.6ZM28.69,26.44c-.2.75-.39.98-.9,1.89l1.83.36c-.65,1-1.23,1.78-2.17,2.73l.95-2.08-1.88-.48c.7-.93,1.23-1.59,2.17-2.41ZM26.53,38.41c1.34.04,2.06,1.54,2.42,1.3l.93-.64.04,3.56c-.96-.36-1.04-.93-.53-2.28-.66.14-1.31-.3-2.1-1.03-.07.02-.3.76-.12.93l.92.81-1.46,1.41c-.13-1.17-.15-2.43-.09-4.06Z"/>
      <path class="cls-1" d="M22.99,51.01l5.32,3.24,5.43-3.26-.98-11.19-.3-4.58c-.28-4.27.18-8.37-.42-12.71-1.3,2.69-.53,5.45-.47,8.18l.23,11.45.52,8.2-4.09,2.17-3.82-2.2.41-8.6c.29-6.22.23-12.35.05-19.02-1.47,4.16.05,8.41-.8,12.55-.57-4.42.51-8.59-.73-13-.9,2.47-.21,4.78-.6,7.03-1.15-2.25.94-4.7-1.05-6.67-.19,8.63-.85,16.45-2.85,24.5l3.24,2.08c.19-.24.55-.87.37-1.04-1.4-1.29-1.92-1.15-2.06-1.97l1.76-10.92c.33,1.96-1.54,10.59-.87,11.11.34.26.88.54,1.43.8l.59-5.99.52-5.62c.18,2.15.19,4.19.01,6.28l-.8,9.2Z"/>
      <path class="cls-1" d="M50.95,15.02c.89-.52,3.09-1.27,3.1-2.34l.03-5.92c-3.07,1.85-9.31,2.88-12.99,3.34l-4.29.53c.81,2.47.67,4.4.25,7.03,5.02-.51,9.4-1.3,13.91-2.64ZM51.85,10.84l.05-1.65c.77.77.54,1.87.25,2.63-.54-.2-1-.37-.98-.36l-.22,2.1c-.41-1.4-.56-2.2-.81-3.97l1.71,1.25ZM45.87,12.31l1.64-2.27-.78,2.58c.58.46,1.19.97,1.37,1.97l-1.85-1.05-.97,1.81-.36-4.83.95,1.79ZM41.8,11.09l-1.4,2.51c1.18.87,1.96.95,1.96,2.04l-3.14-1.93c.98-1.12,1.55-1.79,2.58-2.62Z"/>
      <path class="cls-1" d="M2.7,12.88c.38,1.26,2.44,1.72,3.52,2.31,4.43,1.24,8.71,2.04,13.48,2.45-.76-2.82-.69-4.91.23-7.23-5.74-.5-11.75-.77-17.3-3.57-.13,1.78-.5,4.1.08,6.05ZM14.21,11.09l2.07,2.99c.1-.91,0-1.61.79-2.56l-.24,4.31c-1.09-.93-1.65-1.85-2.25-3.13.14.92.1,1.94-.48,2.91-.17-1.65-.12-2.65.11-4.52ZM9.07,10.04c1.5,1.38,2.8,2.91,2.36,4.41-.08.27-1.02.43-1.02.16.04-.65.47-1.52.23-1.81l-.89-1.08c-.18,1.35-.25,2.02-.92,2.87-.07-1.81,0-2.87.24-4.54ZM4.56,8.76l.57,1.84.42-.96c.07-.16.58.01.58.04-.21.49-.45,1.03-.42.96,1.21-.4,1.11-.22.69.31-.41.21-1.22.39-1.36.69l-.7,1.5c-.36-1.41-.34-2.65.23-4.39Z"/>
      <path class="cls-1" d="M34.62,47.72c-.3.23-.39,1.06-.09,1.43l3.28-2.21c-1.95-7.92-2.59-15.38-2.69-23.37,0-.19-.29-.76-.41-.64l-.47.45-.16,3.41c-1.06-1.61.72-3.21-1.03-4.68-.4,4.31-.58,8.46-.24,12.72l.26,3.19,1.04,9.06,1.69-.81-.96-8.28,1.59,8.33-1.81,1.39Z"/>
      <path class="cls-1" d="M10.98,23.63l.65,8.83c.2.92,2.54,1.24,3.21.87l1.39-7.63c-1.72.29-3.84.41-4.9-.99.18-.81,1.09-1.73,1.64-1.76,1.35-.06,2.93.46,3.79,1.38.74.79-1.89,7.54-1,8.72.83-2.87,1.73-5.72,2.07-8.41-.8-2.21-5.44-2.91-6.87-1.01Z"/>
      <path class="cls-1" d="M6.17,42.27c.84.02,2.73-.35,2.98-1.23.63-2.24-.03-4.65-.54-6.57-1.52.38-2.58.34-4.03.03l-.94,6.12c.17.84,1.73,1.62,2.53,1.64Z"/>
      <path class="cls-1" d="M40.18,35.43l5.91-3.97-6.24,2.87c-1.31.28-2.08-1.62-2.32-2.45-.25-.86.07-2.95,1.13-3,2.27-.12,2.93,2.41,2.3,4.46l5.81-3.48c.35-1.08-.74-2.98-1.78-3.35l-7.59,2.36c-1.23,2.61.02,5.6,2.79,6.57Z"/>
      <path class="cls-1" d="M9.46,44.65c-.01,1.85,4.3,2.69,4.96,1.24l.07-7.36-3.56-.7c-.36,2.2-1.46,4.63-1.47,6.83Z"/>
      <path class="cls-1" d="M7.87,29.67l-.02-7.94c-1.68.4-3.09.43-4.82.11l1.47,7.74c.99.39,2.47.39,3.37.1Z"/>
      <path class="cls-1" d="M28.72,11.69l1.4,1.53c.17.1.88-1.1.6-1.45l-2.53-3.14-.84,1.56-3.56,4.13,1.02,2.55.34-1.97,3.3,4.79,1.94-1.66c.82-.7,1.38-1.76,1.59-2.84-1.04.6-1.96,1.57-2.7,1.51-1.21-.09-2.52-1.49-2.55-2.67-.02-.91,1.22-1.94,1.98-2.36Z"/>
      <path class="cls-1" d="M48.35,37.34c1.17-.87-.44-4.1-1.72-4.01-2.13,1.05-4.4,2.15-6.55,2.83-1.56.5-1.91,1.82-1.36,3.21.32.82.95,1.86,1.54,2.22.82.49,1.93.3,2.47-.54-1.66.18-2.96,0-3.61-1.99-.22-.68.09-1.93.54-2.32.38-.32,1.48-.54,1.99-.27,1.71.88,2,2.9,1.47,4.76l5.23-3.89Z"/>
      <path class="cls-1" d="M55.46,22.6c-.39-.65-1.79-1.73-2.52-1.28-1.51.92-2.9,2.13-4.06,3.07,1,1.29,1.51,2.23,2.07,3.56l4.53-2.06c.78-.36.4-2.58-.03-3.29Z"/>
      <path class="cls-1" d="M56.54,29.08c-.98-.86-2.21-.91-3.03-.38-1.28.83-.86,1.76-1.03,3.01-.16,1.12-.33,2.24.18,3.35l4.61-1.77c.41-1.37.38-3.24-.73-4.22Z"/>
      <path class="cls-1" d="M54.51,13.45c-3.93,3.39-12.32,3.95-17.61,4.82-.01.27.1.79.24,1.05.44.81,19.21-2.1,17.38-5.87Z"/>
      <path class="cls-1" d="M12.12,18.52l6.89,1.16c.29.05.91-.6.93-.9.01-.3-.65-.61-1.05-.65-4.23-.51-13.97-1.75-16.8-4.71-1.25,2.94,8.3,4.82,10.03,5.11Z"/>
      <path class="cls-1" d="M16.44,33.3c-1.94,1.38-4.17.74-5.8-.64l-.04,3.66c1.03,1.6,4.15,1.79,5.57.66l.27-3.68Z"/>
      <path class="cls-1" d="M3.97,33.13c.94,1.1,4.01,1.76,5.19-.15l.14-3.53c-2.02,1.21-3.45.94-5.54.62l1.07.79-.98.37c-.15.06.52.43.45.58-.11.24-.52,1.09-.33,1.31Z"/>
      <path class="cls-1" d="M23.88,7.83c-.07.32.76,1.07,1.06.9,2.03-1.19,5.46-1.36,7.37.41l.3,1.8c1.72-.71,2.73-1.37,4.07-2.59l-2.05-2.2-2.34,2.69c-.1-.68.15-.87.58-1.54-2.12-2.13-8.48-1.77-8.98.52ZM25.27,7.62c1.68-.86,3.61-.98,5.39-.37l-5.39.37Z"/>
      <path class="cls-1" d="M46.97,24.72l-1.84,1.06c2.19,1.21,2.66,3.03,2.25,5.36.63-.74.67-1.68.8-2.57l.58,1.35.94-1.76c.78-1.47-1.03-3.61-2.72-3.43Z"/>
      <path class="cls-1" d="M51.01,36.59c.37-.26.87-1.14.97-1.58.1-.43-.36-1.38-.71-1.38-.62.19-1.39.6-1.7.39-.26-.18-.66-.75-.87-1.09l-.45-.71c-.08-.13-.49.13-.86.38,1.66,1.54,2.2,3.38,1.58,5.42l2.03-1.43Z"/>
      <path class="cls-1" d="M22.13,6.14l-2.1,2.18c1.33,1.3,2.26,2.01,4.13,2.55.27-2.32-.59-3.38-2.03-4.73Z"/>
      <path class="cls-1" d="M22.27,21.72c1.23-1.13,2.31-2.35,2.01-4.31l-4.14,2.14c.3,1.03,1.25,2.1,2.13,2.17Z"/>
      <path class="cls-1" d="M34.68,21.98l1.95-2.14c-1.53-1.11-2.72-1.81-4.25-2.15-.04,2.09.82,3.4,2.3,4.29Z"/>
      <path class="cls-1" d="M31.63,19.64c-3.21,2.16-5.93-.14-6.11.53l-.14.52c-.62-.15-1.14-.21-1.59.24,2.91,2.3,6.44,1.86,9,.01l-1.18-1.31Z"/>
      <path class="cls-1" d="M45.57,20.1l-1.1-.82c-.76,1.78-.67,4.46,1.3,5.49-.52-1.65-1.78-2.82-.69-4.22l.66,1.74,1.01-2.54c.24,2.92-1.24,2.46-.18,4.6l.67-2.91c.17-.72-.09-2.05-.58-2.51-.36.27-.86,1.35-1.1,1.18Z"/>
      <path class="cls-1" d="M21.17,18.3c.43-.26,1.18-.9,1.43-1.26-.83-2.15-.56-3.97-.04-6.11-.81.58-.65.5-1.1.92l.3-1.11c.57-2.14-3.9,1.8-.58,7.57Z"/>
      <path class="cls-1" d="M35.39,10.25c-.27.23-.54.54-.49.7l.28,1.06-.43-.73c-.09-.16-.61-.2-.68-.12.72,2.25.84,4.06.03,6.2l1.5.77c1.45-2.59,1.44-5.68-.21-7.88Z"/>
      <path class="cls-1" d="M8.47,21.82l-.34,3.98c-.07.81.29,2.28.46,3.1l.7-7.25c.03-.33.17-1.26-.05-1.49-.26-.28-.83-.45-1.41-.67l.16.5c.68.28.55.99.48,1.83Z"/>
      <path class="cls-1" d="M7.33,21.47c.36-.08.77-1.04.66-1.48-.94-.42-2.29-.34-3.48.17,1.06,1.63,1.87-.59,2.89.45-1.27.65-2.41.68-3.71.05.86-1.53,2.47-1.3,4.13-1.16-.73-1.9-4.9-.15-4.94,1.1,1,1.31,3.01,1.21,4.44.88Z"/>
      <path class="cls-1" d="M11.83,24.93c1.7.61,3.28.82,4.54-.26-.56-.74-1.69-1.38-2.55-1.46-.81-.07-1.78.82-1.99,1.72Z"/>
      <path class="cls-1" d="M52.06,31.26c-.15-.36-.63-1.17-.94-1.42l-1.05-.83c-.18-.14-.76.38-.87.58l1.83,3.17c.49-.34,1.2-1.09,1.02-1.5Z"/>
      <path class="cls-1" d="M39.83,37.51c-.43.49-.07,1.9.3,2.41.33.45,1.63,1.01,2.15.64,1.04-.73.6-2.14.08-2.87-.41-.57-1.85-.95-2.53-.18ZM41.57,40.29c-.43.13-1.34-.72-1.55-1.12-.22-.41.2-1.36.89-1.63.44-.17,1.38.54,1.45,1s-.32,1.61-.79,1.75Z"/>
      <path class="cls-1" d="M38.63,29.43c-1.21,1.3-.57,3.79,1.19,4.38.59-.6.79-2.06.66-2.86-.11-.68-1.09-1.69-1.85-1.53ZM39.31,32.67c-.33.08-.82-.66-.97-.97-.18-.36.3-1.32.71-1.36.34-.04.97.61,1.11.92.17.37-.39,1.31-.85,1.42Z"/>
      <path class="cls-1" d="M51.52,37.97c-.17-.26-1.25.03-1.36.32-.26.69-.01,2.26.4,2.92.15-1,.18-1.79.19-2.77l2.21,3.85c-.23-1.52-.46-2.15-.78-3.28l-.67-1.04Z"/>
      <path class="cls-1" d="M15.65,45.1l.45-.78-.88-6.3-.25,6.2c0,.22.58,1.04.68.88Z"/>
      <path class="cls-1" d="M3.12,31.45l-2.22-2.7.2,1.26c.03.2-.47.32-.79.34-.33-.93-.34.27-.27.59l3.08.51Z"/>
    </g>
  </g>
</svg>