<?xml version="1.0" encoding="UTF-8"?>
<svg id="Warstwa_2" data-name="Warstwa 2" xmlns="http://www.w3.org/2000/svg" viewBox="0 0 25.45 52.02">
  <defs>
    <style>
      .cls-1 {
        fill: #fff;
      }
    </style>
  </defs>
  <g id="icon-v9-equipment-pixarts-store">
    <g id="icon-v9-equipment-pixarts-store_367">
      <path class="cls-1" d="M5.21,47.96l15.18-.04c1.49-11.13-5.95-11.03-5.65-14.66.25-3.03,7.69-4.77,5.41-14.13H5.19c-1.53,6.82,1.24,8.61,4.84,12.82,3.38,3.94-7.64,4.95-4.82,16ZM9.09,29.56c-2.64-2.49-3.93-5.85-2.88-9.41l12.88-.02c1.79,8.49-5.01,9.41-5.24,13.09-.28,4.32,6.9,4.22,5.38,13.68H6.21c-2.54-10.91,10.52-10.13,2.88-17.34Z"/>
      <path class="cls-1" d="M24.36,48.76l-23.37-.03c-.69.96-1.07,1.8-.97,3.28l25.23.02c.36-1.22-.17-2.77-.89-3.26Z"/>
      <path class="cls-1" d="M25.19,15.04H.19c-.53,1.21.11,2.78,1.02,3.31h23.13c.87-1.04,1.48-2.26.85-3.31Z"/>
      <path class="cls-1" d="M14.7,10.22c-.39.34-.3,1.91-.11,2.33,3.46-1.08,5.17-4.21,4.4-7.57C18.34,2.12,15.57-.18,12.27.01c-3,.18-5.7,2.56-6,5.81-.27,2.94,1.43,5.95,4.61,6.78.15-.55.21-2.1-.29-2.44-2.16-1.51-2.72-4.35-.98-6.35,1.6-1.84,4.52-1.85,6.11,0,1.75,2.05,1.2,4.78-1.02,6.42Z"/>
      <path class="cls-1" d="M.84,37.7l1,7.59c.1.72-.17,1.65-.37,2.66l2.14-.14c-.22-1.06-.43-2.12-.29-3.09l.95-6.65c.13-.89-.36-2.16-.7-3.04.11-.44.73-1.34.55-1.72l-.65-1.4c.29-.61.87-1.83.78-2.52l-.91-7.01c-.13-1.01.11-2.17.29-3.21l-2.09-.04c.22,1.17.43,2.12.3,3.05l-.94,6.88c-.12.87.44,2.09.81,2.89-.14.39-.82,1.2-.69,1.58.12.38.52,1.09.73,1.51-.35.69-.99,1.94-.9,2.63Z"/>
      <path class="cls-1" d="M21.08,37.72l.95,6.95c.14,1-.06,2.08-.21,3.22l1.98-.09c-.25-1.39-.41-2.1-.3-2.84l1.02-6.91c.14-.97-.43-2.21-.82-3.09.25-.41.93-1.29.72-1.65l-.78-1.34c.32-.6.93-1.84.84-2.55l-.89-6.95c-.14-1.11.05-2.18.31-3.29l-2.11-.03c.18,1.09.41,2.11.29,2.97l-.89,6.26c-.18,1.26.15,2.57.74,3.65-.16.39-.73,1.16-.63,1.53s.53,1.13.66,1.49c-.3.69-.98,1.99-.89,2.67Z"/>
      <path class="cls-1" d="M11.83,9.86l-.2,4.09,2.14.06-.16-4.3c-.36-.18-1.73-.27-1.78.15Z"/>
      <path class="cls-1" d="M18.28,46.07c.23-1.31-.11-2.47-.99-3.07l-3.04-2.08c-.84-.57-1.24-1.47-1.49-2.6-.51,1.11-1.05,2.06-1.88,2.66l-3.02,2.19c-.74.54-1.06,2.06-.56,2.84,3.66.29,7.28.31,10.99.06Z"/>
      <path class="cls-1" d="M17.82,25.93c-6.32,1.63-5.74-2.11-10.41-.65,1.06,3.93,3.6,3.65,5.22,7.81,1.68-4.15,3.38-3.43,5.19-7.16Z"/>
    </g>
  </g>
</svg>