<?xml version="1.0" encoding="UTF-8"?>
<svg id="Warstwa_2" data-name="Warstwa 2" xmlns="http://www.w3.org/2000/svg" viewBox="0 0 31.3 59.81">
  <defs>
    <style>
      .cls-1 {
        fill: #fff;
      }
    </style>
  </defs>
  <g id="icon-v9-equipment-pixarts-store">
    <g id="icon-v9-equipment-pixarts-store_349">
      <path class="cls-1" d="M3.3,42.44l-1.14-1.65c.17,2.58.13,4.36-1.49,6.02,2.05,4.24,6.96,10.75,10.89,13l-1.52-21.36-2.79-1.28-1.36,2.28.67-2.77-2.27-1.59-.72-3.99,4.67,1.65c.82-1.54,1.44-2.62,2.49-3.81l-1.66,4.09,4.26,2.05c.2,2.24,0,4.35-.64,6.54l2.88,3.16,2.89-3.16c-.63-2.19-.88-4.32-.59-6.54l4.67-2.19c-1.71-2.73-2.37-4.2-2.48-6.44l3.38,6.25,4.27-1.69-.82,4.08-2.6,1.83c.78,1.29,1.56,5.46,1.53,7.03l-1.71-5.08c-.19-.56-.79-1.36-1.26-1.35-.4,0-1.53.61-1.63,1.01l-1.51,21.28c4.37-3,4.07-3.12,4.71-6.86l.63,2.19c2.27-2.78,4.06-5.29,5.47-8.3-1.44-1.94-1.73-3.86-1.27-6.37l-1.1,1.1c-.22-1.84,3.47-3.65,3.16-4.49l-.51-1.41c-.9-2.48-.26-5.4.08-8.27-2.38-.38-4.59-1.01-6.83-2.02l-.54,1.09c-.21-.6-.47-1.54-.77-1.75l-7.14-4.68c-4.83,3.42-9.06,6.45-15.22,7.3.33,2.76.87,5.79.09,8.46L0,37.3c-.19.64,3.58,2.48,3.29,5.14Z"/>
      <path class="cls-1" d="M17.16,15.62l3.09-12.71-1.19-.1c-.32,1.26-.59,2.21-1.3,3.37l.26-4.55c-.36-.57-1.91-1.87-2.66-1.59-.83.31-2.14,1.04-2.75,1.42l.57,4.9c-1.08-1.51-.46-3.08-2.34-3.8l3.07,13.19,3.25-.12Z"/>
      <path class="cls-1" d="M13.11,20.29l-2-2.67-.57-3.83c-5.35,1.9-9.09,6.42-9.26,12.32,4.32-.73,8.46-2.99,11.84-5.82Z"/>
      <path class="cls-1" d="M23.15,22.77c.07,1.74,4.97,3.12,6.71,3.38-.1-3.19-1.13-5.85-3.22-8.33l-1.24,1.72c.23-.8.72-2.37.22-2.81-1.4-1.24-3.34-2.34-5.07-3.01-.22,2.95-.46,4.68-2.52,6.6.53.4,5.18,4.15,5.11,2.44Z"/>
      <path class="cls-1" d="M13.8,19.66c.63-.39,1.47-1.2,1.87-.99.41.21,1.09.68,1.78,1.13,1.79-1.57,2.51-6.51,1.99-8.28l-1.53,5.13-4.73.03c-.48-2.02-.78-3.46-1.64-5.22-.37,2.69.52,6.95,2.26,8.2Z"/>
    </g>
  </g>
</svg>