<?xml version="1.0" encoding="UTF-8"?>
<svg id="Warstwa_2" data-name="Warstwa 2" xmlns="http://www.w3.org/2000/svg" viewBox="0 0 56.23 38.74">
  <defs>
    <style>
      .cls-1 {
        fill: #fff;
      }
    </style>
  </defs>
  <g id="icon-v9-equipment-pixarts-store">
    <g id="icon-v9-equipment-pixarts-store_257">
      <path class="cls-1" d="M48.56,2.3c-11.43-2.97-28.44-3.07-39.9-.23C6.14,2.69-.24,4.44.23,7.58c.49,3.26,8.1,4.99,10.88,5.58.24.05,1.04-.74.82-.83-1.49-.62-9.49-1.98-9.89-4.99-.24-1.8,2.59-3.37,4.4-3.27l-2.35,1.24c-.47.25-1.24,1.12-1.15,1.63.49,2.62,7.59,4.07,9.83,4.35,3.52-3.63,8.77-3.81,12.86-1.12.6.4,1.45.78,2.28.91,4.71-4.52,11.61-4.37,16.12.12,1.93-.27,9.82-1.95,9.39-4.39-.18-1.01-1.51-1.72-2.32-2.4,1.24.06,2.67.9,3.12,2.16,1.16,3.32-7.19,4.92-9.03,5.5-.16.15.05,1.02.31.96l1.07-.24c2.78-.63,9.37-2.12,9.67-5.49.24-2.65-5.43-4.42-7.67-5.01Z"/>
      <path class="cls-1" d="M28.6,15.46c.6.27,1.17-.24,1.59-1.45.15-.43-1.06-.34-1.41-.05-.47.38-.63,1.3-.18,1.5Z"/>
      <path class="cls-1" d="M43.03,14.49c-.11-.24-.24-.81-.43-1-.33,0-1.1-.03-1.3.23-.23.31.29,1.18.65,1.6.42.12,1.32-.3,1.07-.83Z"/>
      <path class="cls-1" d="M23.5,22.34c.25.06.73-.34,1.02-.54l.96.54c.37-.19.82-.83,1.29-1.39l-.31,1.8c1.62-1.19,2.89-2.86,4.17-4.72.94-1.36,2.38-2.1,3.07-3.6.7.2,1.74-.02,2.4-.61l.92-.84c.18-.16-.28-.78-.5-.88-.28-.13-.68-.02-1.34.19l-.93-.66c2.72-.66,1.62-1.33,3.36-1.62l-1.2,1.06c-.37.33,1.51,1.06,1.51,1.19v.77c0,.24.74.6.91.42l.76-.78c.13-.14.69.14.88.09.24-.06.44-.58.55-.86l1.57,1.6.44-.56c.1-.12.29.22.37.35l.32.56-.81,2.6-.96-1.13c-.13-.04-.48-.17-.58-.07l-.77.74c.12-.56.26-1.95-.02-2.51-.55-.61-1.94.6-1.73,1.41.51,1.89,2.84-.04,2.74,5.4l-.84-.91c-.24.44-.7,1.32-.66,1.77l.21,2.1c.48.05,1.6-.33,1.62-.79.03-.53-.53-1.23-.92-1.51.44-.31,1.44-.65,1.93-.71-.41.6-.84.97-.76,1.22l.47,1.43-.54,1.61c-.37-1.12-.69-1.25-1.48-.83-.56.29-.87,1.45-.35,1.64l2.18-.54-1.2,1.6-.19-.79c-.2-.84-.33.61-2.09.13-.8-.22-2.3-.62-2.98-.82-.26-.08-.93.66-.71.8l.9.61c.22.15.7-.44,1.02-.77-.03-.12.33.45.23.54l-.79.77c.04.11.93.64,1.31.71.44.08.99-.67,1.38-1.13l.28.09c.14.05.67.15.57.19l-1.01.43c1.33,1.4,6.48-4.71,6.13-6.22l-.57-2.45.87,1.12c.56-1.8-.11-3.14-.69-4.55-.53-1.26-.93-2.14-2.07-3.13-2.42-2.09-3.7-2.68-7.66-2.87l.76,1.08-2.41-.67-3.47,1.31c-.41,1.9-3.36,1.32-3.42,5.3l-.47-.99c-.19.15-1.18,1.17-1.17,1.66l.09,3.25c.79.22,1.61-.96,1.47-1.79-.15-.92-.45-1.65.2-2.09l-.04,1.88c.24.1,1.33-.13,1.44-.52.1-.38-.22-1.27-.35-1.63l.35-1.78c.06-.3.05-.69.2-.7,2.92-.26.9-.82,3.03-.14l-.9.68c-.22.16-.06.86.03,1.13l.22.6c.21.57-.87-.33-1.8.2-.24.14-.42.81-.4,1.09.02.35.68.61,1.02.71l-.95.58c-.36-.12-1.47.1-1.63.48-.17.41,0,.92.21,1.79-.46-.16-1.17-.63-1.39-.37l-.92,1.08-.66-.64c-.14-.14.38-.61.4-.81v-2.77s-3.46,3.22-3.46,3.22l-.73,1.44,1.87.35c.31.06.89.3,1.2.38Z"/>
      <path class="cls-1" d="M15.53,24.11c.77.63,1.71.45,2.55.56,1.79.24,3.59,1.17,5.32-.3h-1.89c.92-.33,1.87-.58,2.14-1.42-.26-.53-1.62-.07-2.02.39l.09-1.18c-1.01.22-1.55.37-2.21.66l-.72-1.07,1.64-.13-1.07-1.41c-.68-.89-2.21-1.24-3.32-.46l-1-1.53,1.21-.04c.75-.02-1.07-1.71,3.12-3.89.7.12,1.79.32,2.59-.21l1.59-1.06.75.99-2.15.48,1.14,1.28c.21.24,2.38-1.7,1.78-2.88-.42-.84-1.14-.87-2.01-.71-.27.05-.65.12-.67-.04-.02-.17-.07-.63-.05-.5l2.09-.18c-.78-1.21-1.95-1.51-2.97-1.31l-.54.49c-.16.14-.67-.57-.89-.64-1.98-.66-5.4.44-6.6,2.59l-.66,2.48c-.12.45-.97,1.3-.81,1.72l.74,1.91-1.02-1.1c-.2,3.13,1.76,4.81,3.81,6.49ZM15.12,22.24c.57,1.2,2.27-.64,2.69.95l-2.45-.11-1.46-1.33s.64-.45.58-.72l-.31-1.48s.52.34.71.47c.53.35-.41.85.24,2.22ZM16.6,11.19c-.16.4-.52.88-.45,1.05.07.17.31.69.3.65l-2.56-.2,2.71-1.5ZM13.49,16.02c.35.31.66.75.79.63l.66-.58c.16-.14.61-.58.74-.45l.51.53c-1.09.45-1.48.72-2.17,1.67-.44-.33-.69-1.32-.53-1.8Z"/>
      <path class="cls-1" d="M23.4,24.36c.65-.55,2.39-.27,2.65-1.65-.09-.06-.38-.26-.56-.36-.71.37-1.92,1.26-2.08,2.02Z"/>
      <path class="cls-1" d="M13.08,24.12c-1.18,2.29-1.51,5.34.54,7.11l.2-2.87,2.81,1.51c-.44.36-.77.69-.87.54l-.54-.77c-.17-.25-.93-.68-1.18-.5-.73.53.38,1.84.22,2.08l-.48.7c.83.82,2.04,1.79,3.1,2.43l1.95-.21c.29.79,1.83.88,2.53.67.55-.16,1.08-.78,1.86-1.47.37-.64.39-.54.21.57.34,0,1.39-.25,1.83-.52.34-.21.44-.95.66-1.34l.86-1.47c-1.85-1.04-2.24,2.64-2.98,2.2l-.91-.54c-.69.29-1.51.65-1.99-.32,2.29-1.22,3.01,1.33,3.76-1.24-.71-.04-1.49.3-1.86.59-1.35-1.5-1.59.39-4.83-.97l1.07-.56-1.59-1.61c.43-.41.7-1.61.24-1.77l-2.55-.94c-.31-.12-.95.11-1.26.32l.1-1c.02-.24-.65-.56-.91-.62Z"/>
      <path class="cls-1" d="M27.35,30.51l-.83,2,1.78-1.04c.27-.16.49-1.01.18-1.13-.23-.09-1.04-.04-1.13.17Z"/>
      <path class="cls-1" d="M46.3,25.64c-1.71.39-3.2,1-4.59,2.25,3.11-.43,14.3-2.96,14.47-7.49-2.73,2.66-6.06,4.38-9.88,5.25Z"/>
      <path class="cls-1" d="M36.28,36.37l-.23,1.15c-1.26.21-2.15.52-2.94,1.22,2.1-.1,3.82-1.27,4.8-2.77.95-1.45,1.64-3.68.46-5.21-2.59-3.35-.82-2.93-5.42-3.89-1.92-.4-5.43.02-6.45,1.26l3.17.25-1.69.78c-.43-.3-1.5-.9-2.03-.87-.53.02-1.27.69-1.99,1.27-.06.24.94.69,1.17.44l.87-.95c-.03.44-.2.92.09,1.04.41.16,1.2-.18,1.65-.54.15.05.79.77,1.03.54l1.27-1.27.8,1.07c-.63-.06-1.23-.15-1.47.03-.25.18-.37,1-.27,1.1,1.56-.43,3.02-1,3.23-2.58l2.3-.7.63.82h-.98c-.18,0-.45.44-.37.41.72.72.95,1.65,1.39,2.49.56,1.07,1.07,1.87.8,3.17l-.19.9c.08-.38-1.93-.63-3.16.78l1.59-.28c.85-.14,2.63-.1,3.01-1.05l-.34-4c.78.21,1.46.87,1.5,1.42.12,1.5-.81,2.96-2.22,3.97Z"/>
      <path class="cls-1" d="M10.42,27.04c.21.06.69-.24.66-.41-.04-.17-.4-.69-.62-.77l-4.52-1.64c-2.28-.83-4.04-2.3-5.9-3.94-.07,3.69,7.68,5.93,10.39,6.76Z"/>
      <path class="cls-1" d="M7.51,19.89c.27,1.03.71,1.63,1.46,2.63.92-.53,1.73-1.03,2.06-1.48l-1.39-2.66-2.13,1.51Z"/>
      <polygon class="cls-1" points="5.78 16.53 7.16 19.27 9.66 17.8 7.94 15.33 5.78 16.53"/>
      <path class="cls-1" d="M48.73,15.51c-.9.24-1.74,1.64-1.33,2.7.29.75,1.78.85,2.25.43.42-.37.87-1.37.86-2.04-.01-.56-1.22-1.24-1.78-1.09Z"/>
      <polygon class="cls-1" points="6.9 19.9 5.32 17.06 3.4 18.38 4.55 21.09 6.9 19.9"/>
      <path class="cls-1" d="M52.13,20.62c.61-.77,1-2.07.63-2.44-.32-.33-1.06-.72-1.59-.97l-1.59,2.62c.67.64,2.04,1.43,2.55.78Z"/>
      <path class="cls-1" d="M3.86,14.01c-.49-.15-1.63.66-1.6,1.18.02.52.44,1.64.85,2.13.34.4,1.88-.43,2.01-.98.16-.65-.66-2.14-1.26-2.33Z"/>
      <path class="cls-1" d="M51.69,15.14c-.37.79-.31,1.69.43,2.1.66.36,1.53-.03,1.89-.98.37-.97.06-1.85-.77-2.24-.62-.29-1.15.29-1.55,1.12Z"/>
      <path class="cls-1" d="M50.11,23.75c.78-.28,1.43-1.07,1.3-1.55-.12-.44-.79-1.11-1.27-1.31-.77-.31-2.39,1.85-1.72,2.53.32.32,1.15.53,1.7.33Z"/>
      <path class="cls-1" d="M6.43,23.76c.56.13,1.85-.38,1.9-.86l-1.4-2.33c-.45.26-1.18.69-1.64,1.11-.46.42.52,1.93,1.14,2.08Z"/>
      <path class="cls-1" d="M28.76,23.21l-2.91,1.61-2.22,1.1c1.51.9,3.03.59,4.69.17l4.11-1.02,2.43.91c-.7-1.3-.8-1.57-1.33-1.82-.93-.44-1.63-.54-2.14-.1l-1.72.27.24-.76c.06-.19-.99-.46-1.17-.36Z"/>
      <path class="cls-1" d="M51.15,12.56c-.33-.07-1.11.11-1.36.34-.41.37-.98,1.34-.79,1.74.19.4,1.08.83,1.55.88.44.05.99-.81,1.22-1.63.09-.32-.3-1.26-.62-1.33Z"/>
      <path class="cls-1" d="M6.04,12.56c-.33-.21-1.49.59-1.34.93l1.03,2.3,2.1-1.26c-.46-.72-1.21-1.6-1.8-1.97Z"/>
      <path class="cls-1" d="M29.43,21.89c1.16.43,2.11.57,3.08.61l2.79.12-1.26-1.18c.42,0,1.09-.08,1.19.1l.5.81c1.22.27,3.27-1.24,3.07-2.61l-.46-3.02-2.85,1.39c-.6-.11-1.7-.34-2.45-.27-.48.05-2.25,2.58-2.29,2.52l.65.88-1.36-.21c-.23-.04-.4.45-.61.86ZM33.35,19.45c.1-.36,1.25-.53,1.5-.42l1.18,1.13c-.93-.19-1.65-.6-1.92-.37l-1.12.97.35-1.32Z"/>
      <path class="cls-1" d="M47.12,18.84c-.35.52-.88,2.43-.42,3.06.77,1.06,2-.52,2.16-1.28.19-.9-.62-1.58-1.74-1.79Z"/>
      <path class="cls-1" d="M.9,19.47l1.91-1.19-1.22-2.88c-1.79,1.03-1.5,2.6-.68,4.06Z"/>
      <path class="cls-1" d="M9.86,22.77c-.73.85.36,2.15,1.22,2.55l.86-1.34c.28-.43.07-1.52-.34-1.84-.33-.26-1.34.18-1.74.63Z"/>
      <path class="cls-1" d="M38.54,23.15c.36.07,1.24.35,1.26,0l.07-1.38-3.51,2.34c.72.33,2.02.87,2.66,1.05.25.07.8-.7.81-.96.05-.95-2.47.07-1.29-1.05Z"/>
      <path class="cls-1" d="M55.2,18.97c.52-.22,1.03-1.5.92-2.06-.09-.47-.61-1-1.25-1.52l-1.16,2.6c.11.38,1.12,1.14,1.49.98Z"/>
      <path class="cls-1" d="M52.48,12.81l1.7,1.15c.83-1.18,1.1-2.08.43-3.38-.95.56-1.66,1.22-2.13,2.23Z"/>
      <path class="cls-1" d="M8.79,14.94c.1.89.73,1.78,1.41,2.49l.78-3.56c-.82-.04-2.25.5-2.2,1.07Z"/>
      <path class="cls-1" d="M54.72,19.62c-.35-.3-1.28-.57-1.44-.23l-1.47,3.14c.27.32,4.04-1.95,2.91-2.91Z"/>
      <path class="cls-1" d="M1.67,19.73c-.27.33.08,1.08.49,1.58.42.49,1.32.74,1.89.34-.24-.75-.64-1.77-1.05-2.46-.2-.31-1.09.25-1.33.55Z"/>
      <path class="cls-1" d="M1.76,10.93c-.57.74-.09,2.16.5,2.96.42.02,1.4-.58,1.36-.99-.09-.85-1.16-2.41-1.86-1.97Z"/>
      <path class="cls-1" d="M.3,11.77c-.39,1.44-.34,2.46-.19,3.93.45-.26,1.22-.81,1.3-1.19.16-.77-.4-2.23-1.11-2.73Z"/>
      <path class="cls-1" d="M18.4,17.65c.99.68,2.58.34,3.56-.46-1.3-.77-2.85-1.03-3.56.46Z"/>
      <polygon class="cls-1" points="46.79 16.82 48.04 14.78 45.82 14.01 46.79 16.82"/>
      <path class="cls-1" d="M46.84,23.96c.25-.26-.23-1.13-.71-1.38l-1.58,2.8c.91-.22,1.62-.71,2.3-1.42Z"/>
      <path class="cls-1" d="M56.07,11.98c-1.14,1.02-1.75,2.85,0,3.31.16-1.37.15-2.17,0-3.31Z"/>
      <path class="cls-1" d="M29.02,37.51l1.68.66,1.47-1.63c-1.31-.34-2.07.07-3.15.97Z"/>
      <path class="cls-1" d="M37.71,16.39c-1.44-.29-2.45-.12-3.38.42,1.27,1.11,2.58.44,3.38-.42Z"/>
    </g>
  </g>
</svg>