<?xml version="1.0" encoding="UTF-8"?>
<svg id="Warstwa_2" data-name="Warstwa 2" xmlns="http://www.w3.org/2000/svg" viewBox="0 0 24.45 55.6">
  <defs>
    <style>
      .cls-1 {
        fill: #fff;
      }
    </style>
  </defs>
  <g id="icon-v9-equipment-pixarts-store">
    <g id="icon-v9-equipment-pixarts-store_379">
      <path class="cls-1" d="M10.24,42.38c-2.15,3.87-4.94,4.99-2.8,9.28l1.16-1.63c-.53,3.32-.62,2.81,1.73,5.57,1.73-1.64,3.81-3.23,4.52-5.52.66-2.11-1.11-3.99-1.22-6.13l2.53,3.38c.41-1.35-.05-2.47-.57-3.98l1.19,1.2c1.73-3.96-1.26-5.72-2.66-8.75,1.43,1.04,2.39,2.09,3.48,3.28.48-2.21-.77-3.79-2.08-5.37l2.33,1.57c.26-2.18-.91-3.73-2.19-5.63l2.36,1.68c.07-2.46-1.21-4.35-2.84-6.37l2.59,1.46c-.42-1.59-1.55-2.89-2.96-3.75l1.66-.03-3.71-2.75c.14,5.07.51,10.08.2,15.07l-.24,3.86c-.13,2.15-.46,4.2-.84,6.43-.22-1.3,0-2.64.1-4.09l.33-5.42c.32-5.22-.25-10.3-.78-15.51l-3.12,1.97,1.2.26c-.97.88-1.89,1.77-2.69,3.02l2.14-.67c-1.35,1.96-2.45,3.64-2.46,5.83l3.06-1.63c-1.34,1.63-2.53,2.47-3.24,4.3l3.42-1.69-2.39,3.29c-.85,1.17-.92,2.87-.61,4.13l1.53-.91c-2.42,3.24-1.79,3.14-2,7.39l3.88-3.16Z"/>
      <path class="cls-1" d="M.01,38.52l1.48-1.15-1.28,2.89c.29,2.11.8,3.53,1.54,5.11,3.41-3.08,3.01-2.13,2.64-5.81l1.09,1.29c.19-2.7.25-4.24.99-6.37l-1.24,1.01.63-7.43-2.19,7.38c.3-3.61,1.26-7.02,2.52-10.37l1.06-2.33-3.33,1.14c-.08.1-.22.39-.11.42l.62.16-2.3,2.31,1.52-.08c-1.82,1.29-2.97,3.16-3.02,5.48l1.92-1.12C-.04,33.46-.04,34.65.01,38.52Z"/>
      <path class="cls-1" d="M18.14,22.76c-1.17.25-.14,1.43.09,2.07,1.28,3.58,2.26,7.16,2.65,10.95l-2.39-7.97c.22,1.77.53,3.23.44,4.69-.18,2.98-.19,5.53-.12,8.78l1.34-1.76-.52,2.89c.92,1.02,1.79,1.85,3.05,3,1.34-3.55,2.12-4.37.63-7.45l1.15.49c-.26-3.8.37-3.86-2.06-7l1.41.56c.05-2.1-1.16-3.83-2.89-5.19l1.64.22-2.48-2.49.42-.44-2.36-1.34Z"/>
      <path class="cls-1" d="M12.22,0c-2.19-.04-4.01,1.54-4.37,3.64-.34,1.98.56,4.14,2.65,4.9,1.56-1.2-3.1-3.26-.18-6.13,1.07-1.05,2.9-1,3.95.2,2.42,2.8-1.76,4.72-.51,5.83,2.26-.76,3.29-3.06,2.78-5.01C16.01,1.4,14.21.03,12.22,0Z"/>
      <path class="cls-1" d="M10.85,11.82c-.27,1.04-.69,2.25-.27,2.87.48.72,1.64.99,2.52.69.64-.22,1.14-1.51.99-2.3-.11-.6-1.29-1.34-1.85-1.14-.58.21-.85.39-.96.29l-.44-.41Z"/>
      <path class="cls-1" d="M12.28,11.46c.26,0,.63-.7.64-1.02l.08-3.15c0-.33-.41-.99-.75-1.02-.27-.02-.86.55-.86.82v3.56c0,.26.63.81.89.81Z"/>
      <path class="cls-1" d="M5.81,18.01c0,.78.63,1.41,1.41,1.41s1.41-.63,1.41-1.41-.63-1.41-1.41-1.41-1.41.63-1.41,1.41Z"/>
      <path class="cls-1" d="M17.14,16.6c-.76,0-1.38.62-1.38,1.38s.62,1.38,1.38,1.38,1.38-.62,1.38-1.38-.62-1.38-1.38-1.38Z"/>
      <path class="cls-1" d="M9.07,13c.63-1.23,1.19-2.31,1.59-3.52-2.22,1.51-2.84,4.15-3.31,6.78,1.39-.58,1.12-2.09,1.72-3.26Z"/>
      <path class="cls-1" d="M13.51,9.51l3.22,6.88c.15-2.79-1.24-5.36-3.22-6.88Z"/>
      <circle class="cls-1" cx="6.93" cy="21.02" r="1.13"/>
      <path class="cls-1" d="M17.48,19.92c-.61,0-1.1.49-1.1,1.1s.49,1.1,1.1,1.1,1.1-.49,1.1-1.1-.49-1.1-1.1-1.1Z"/>
      <path class="cls-1" d="M13.67,16.33c-.99-.12-1.96-.15-2.79-.08.76,1.38,2.24,1.17,2.79.08Z"/>
      <path class="cls-1" d="M10.82,17.6c.92,1.13,2.14.95,2.98-.08l-2.98.08Z"/>
      <path class="cls-1" d="M10.92,18.73c.78,1.3,2.08.83,2.85.2-1.27-.21-1.94-.27-2.85-.2Z"/>
    </g>
  </g>
</svg>