<?xml version="1.0" encoding="UTF-8"?>
<svg id="Warstwa_2" data-name="Warstwa 2" xmlns="http://www.w3.org/2000/svg" viewBox="0 0 57.5 60.32">
  <defs>
    <style>
      .cls-1 {
        fill: #fff;
      }
    </style>
  </defs>
  <g id="icon-v9-equipment-pixarts-store">
    <g id="icon-v9-equipment-pixarts-store_72">
      <path class="cls-1" d="M40.79,57.79c0-.46-.37-.83-.83-.83s-.83.37-.83.83.37.83.83.83.83-.37.83-.83Z"/>
      <path class="cls-1" d="M53.33,58.56c.19.14.66-.26,1.05-.54-.76-.86-1.01-1.25-1.33-1.13-.25.09-.89.8-.67.96l.95.71Z"/>
      <path class="cls-1" d="M46.88,60.1c.3-.14.96-1.22.65-1.37-.42-.21-1.64-.16-1.9.05.37.91.9,1.5,1.25,1.32Z"/>
      <path class="cls-1" d="M24.43,19.36c1.72-2.14,4.03-2.39,6.4-.98,4.62,2.74,12.33,9.44,12.15,15.43,2.08-1.55,4.36-2.98,6.78-4.39.1-1.46-.9-2.93-1.88-4.27l-2.34,1.35c-.11-.52.21-1.57.71-1.97,5.13-4.06,6.43-4.55,9.76-10.74.5-.93-.03-2.49-.75-2.96-.64-.42-2.37-.3-2.98.42-2.62,3.12-5.21,5.84-8.68,8.09l.57.87c-.57.05-1.63-.21-1.76-.62-.14-.41.28-1.27.63-1.65,3.21-3.57,6.21-6.91,8.73-10.95.65-1.05.63-2.46-.1-3.29-.59-.66-2.14-1.14-2.99-.62-1.09.66-2.09,1.47-2.91,2.34l-7.98,8.51c-.39.42-1.36.79-1.69.61-1.56-.84-.38-3.31-.19-3.88-.19,1.3-.42,2.09-.28,2.92,1.21-2.5,2.24-4.49,4.05-6.42,1.38-1.47,5.01-4.96,2.75-6.76-1.8-1.43-5.11,1.51-6.73,2.8-1.65,1.32-3.05,2.84-4.1,4.71-2.24,3.98-4.94,7.55-8.45,10.52-.73-.05-1.32-.2-.67-.6-.34-1.39-.37-2.47.06-3.48.13,1.4.08,2.39.87,2.87.08-4.8,3.15-5.5,2.1-9.63-.25-.97-2.11-2.11-2.8-1.2l-4.65,6.1c-2.05,2.69-1.66,7.24-1.99,10.65,2.81,3.06,6.66-1.66,8.37-3.77Z"/>
      <path class="cls-1" d="M8.21,40.12c1.28-.97,2.73-2.57,4.13-2.66,4.66-.29,1.65-.96,5.02-3.17.07-.84.26-1.78.78-2.61.42-.67,1.52-.96,2.36-1.13.19-.27.88-1.26,1.29-1.33,1.42-.15,3.84,1.39,3.79,3.28l-.92,1.65c.2.89.26,1.87-.13,2.49-1.09,1.71-2.08.18-3.57,2.87l1.91,2-2.27-1.12.35,3.14c.07.63,1.48,1.57,2.07,1.65.56-.55.64-1.73.63-2.63,1.48-2.82,3.72-3.35,4.33-4.39,1.31-2.25,3.05-3.71,5.51-4.25,2.19-.48,4.2-.05,5.96,1.62,1.37-1.73,1.26-3.65.51-5.55,2.27,2.49.11,4.24.02,6.3,2.65-1.63,2.2-4.85.84-7.1-2.77-4.6-6.85-8.13-11.66-10.62-1.08-.56-2.69-.01-3.49.82l-3.85,3.99c-1.71,1.78-4.39,2.14-6.53,1.01-.19.01-.46,1.01-.18,1.11l1.34.47c-.01.06-.26.28-.4.24l-.87-.24-.8,2.12-1.25.55c-.25.11-.15.97-.09,1.26l.58,2.83-2.33,1.94c.29,1.42.41,2.32-.31,3.24l-2.67-3.13c-.59.04-2,1.61-1.62,2.6.38,1.01.98,1.97,1.53,2.75ZM38.82,31.19c.56,0,1.02.45,1.02,1.02s-.45,1.02-1.02,1.02-1.02-.45-1.02-1.02.45-1.02,1.02-1.02ZM27.8,20.9c.62,0,1.11.5,1.11,1.11s-.5,1.11-1.11,1.11-1.11-.5-1.11-1.11.5-1.11,1.11-1.11Z"/>
      <path class="cls-1" d="M55.61,51.75c.2-1.92-.75-3.88-2.02-5.08.71-.5,1.39-1.37,1.24-2.13-.1-.52-.83-1.22-1.49-1.73.51-3.29-2.04-6.97-5.84-6.95-.29,0-.48.01-.6.04l-.06.21c.8.58,6.11,2.3,5.22,6.07-.11.46-.5,1.17-.13,1.26,5,1.28-3.51,5.12-11.27,2.27-.51-.19-1.28-1.41-.87-1.61.89-.43,2.46-1.21,3.27-1.26l6.16-.41-1.42,2.53-.6-1.17c-.08-.16-.58-.08-.6-.03.1.46.32,1.16.1,1.18l-.78.04-2.62.15.7-1.44c-.93.14-1.9.46-2.68,1.31,2.68.9,8.63,1.36,10.77-.13l-2.16-.33c.51-.85.91-1.64,1.11-2.54-2.68-1.36-12.5-.44-12.8,2.56-.06.61.47,1.63.96,2.32-1.09,1.38-2.04,3.13-1.73,5.02.88,5.45,9.25,7.42,14.75,4.51,1.92-1.02,3.19-2.75,3.39-4.66ZM40.94,47.77l5.16.28c2.39.13,4.6-.33,7.07-.75-2.3,2.16-10.4,1.76-12.24.47Z"/>
      <path class="cls-1" d="M20.51,60.24c1.27.23,2.6-.02,3.28-1.04-3.04-.36-5.83-.9-8.36-2.5,2.61.32,5.36,2.7,8.74,1.38l1.95-4.43c.12-.28-1.06-.73-1.21-.46l-1.27,2.41c-.69,1.32-2.18,1.75-3.49,1.12-.99-.48-1.67-1.89-1.21-3.21l.92-2.63c.12-.36-.76-1.1-1.13-1.02-.91.19-5.23,3.34-9.39-.06-5.11-4.18-.09-9.62-2.8-9.8-3.18-.21-4.77-1.12-5.1-.48-.17.31-.12,1.18-.02,1.54l.22.74c.04.12-.33.23-.35.11-.03-.12-.12-.62-.16-.74l-.37-.97c-.44-1.15-2.83,2.55,4.18,10.75,4.09,4.78,9.33,8.13,15.57,9.28Z"/>
      <path class="cls-1" d="M17.16,49.39c3.59-2.14,3.13-7.54,1.7-7.23-.17.04-.54.23-.45.38,1.78,3.15-.64,6.01-2.7,6.73-2.4.83-5.41-.12-6.53-2.59-.97-2.14-.31-4.97,1.6-6.35-.55,1.2-1.01,2.04-.99,2.63.02.53,1.42,1.23,1.98,1.22l5.1-.11c.32,0,1.24-.4,1.2-.7-.04-.31-.37-.93-.64-1.15l-3.04-2.55-1.68-.34,2.03-.69c-2.83-.88-5.01,1.17-6.06,2.97-1.24,2.14-.97,5.02.66,6.82,1.99,2.19,5.29,2.45,7.82.95Z"/>
      <path class="cls-1" d="M27.91,47.63c3.36,1.86.07-2.22,7.15-7.31l2.44-1.75c.13-.94-1.18-1.99-2.19-1.98-3.11.04-5.15,2.47-4.96,5.56.09,1.52-.19,2.21-.59,2.68.33.29.3.44-.36.35-.56.5-1.22.92-1.49,2.45Z"/>
      <path class="cls-1" d="M31.37,55.07c-1.64,1-3.26.52-4.22-1.22-.27.41-.64,1.02-.62,1.33.01.25.34.7.47.88.85-.52,1.05-.64.89-.54-.1.06.31.95.41,1.01,1.71.97,5.12-.04,5.81-2.81,1.25-5-1.19-6.89,2.63-12.71-6.32,2.6-1.09,11.47-5.37,14.06Z"/>
      <path class="cls-1" d="M50.94,29.25c1.63-.19,3.95-1.77,3.79-3.6-.09-1-1.69-2.84-2.67-2.85-1.54-.01-2.99,1.33-3.89,2.17,1.48,1.31,2.12,2.44,2.77,4.28Z"/>
      <path class="cls-1" d="M36.09,35.94c3.85.99,3.17,5.94,3.9,5.81.27-.05.97-.12.93-.34l-.2-1.05c-.48-2.46-1.55-4.82-4.14-5.51-3.34-.89-7.13,1.06-7.99,4.47,1.61,1.22,2.46-4.67,7.5-3.38Z"/>
      <path class="cls-1" d="M57.06,33.55c.2-1.16-.16-2.55-1.04-3.24-.86-.67-2.44-.67-2.67.41-.24,1.14.75,1.97,1.93,2.67-.74,1.85-4.65,2.34-3.22,3.86l2.93-1.19c.95-.39,1.91-1.65,2.06-2.52Z"/>
      <path class="cls-1" d="M26.43,48.79c-3.17-.91-3.27-2.83-4.76-1.3l.54-1.58-1.22-.86-1.25,3.29c-.08.22-.17.84.05.88l.83.16c.78,1.26,2.48,2.23,4.26,2.31l1.55-2.9Z"/>
      <path class="cls-1" d="M56.97,19.48c-1.73-1.1-3.84,1.35-4.48,2.57,1.57.97,2.27,1.77,2.88,3.27.88-1.49,3.15-4.85,1.6-5.84Z"/>
      <path class="cls-1" d="M14.59,18.36l1.04.09c.2.02-.07-1.01-.26-1.13-.99-.62-3.35-.78-4.64.24-1.05.84-1.63,2.32-1.54,3.9l.19,1.01c.05.25,1.3-.07,1.38-.23-.12-.95-.1-2.44.44-3.1.67-.83,2.22-.97,3.39-.79Z"/>
      <path class="cls-1" d="M6.05,38.91c-1.16-.62-2.7-1.08-3.44-2-1.65-2.04-.57-4.56,1.17-5.76,1.83-1.27,3.73-.38,5.82,1.1-.39-2.23-2.59-2.5-4.4-2.34-1.49.13-3.19,1.35-3.75,2.99-.55,1.6-.36,3.29.71,4.66.75.97,2.45,1.76,3.9,1.34Z"/>
      <path class="cls-1" d="M8.56,33.23c-.05-1.25-1.66-2.09-2.67-2.15-1.1-.06-2.67.91-2.69,1.73l2.65,1.67c.75.47,2.75-.22,2.72-1.26Z"/>
      <path class="cls-1" d="M22.57,34.34c.56-.03,1.32-.73,2-1.7.35-.5-.4-1.73-.93-2.07-.64-.41-1.74-.48-2.17.14-.57.82-1.04,1.89-.75,2.46.27.54,1.3,1.2,1.85,1.17Z"/>
      <path class="cls-1" d="M19.43,31.68c-1.17.65-1.33,2.14-.54,3.26.72,1.02,2.12,1.79,3.47,1.94.98.1,1.86-1.07,1.53-1.74-1.26.04-2.27,0-3.07-.63-.77-.6-1.07-1.68-1.39-2.82Z"/>
      <path class="cls-1" d="M15.38,38.8c.12,1.39,2.32,3.24,3.83,2.34l.46-1.64c-1.4-.96-2.12-1.53-3.35-2.58-.18.18-.99,1.36-.94,1.87Z"/>
      <path class="cls-1" d="M28.44,51.89l1.67-2.97-2.7-.21-1.73,3.35c.79.35,2.42.43,2.76-.17Z"/>
      <path class="cls-1" d="M20.46,38.49c.27-.18.81-1,.67-.88l-2.99-2.24c-.23.09-.97,1.13-.76,1.53.61,1.16,2.61,1.9,3.07,1.58Z"/>
      <path class="cls-1" d="M21.47,51.29c-1.6.42-2.43,4.34-.69,4.76,1.72.42,3.29-2.85,3.26-3.66l-2.28,2.9-1.17-.06c-.21-.01-.53-.82-.44-1.01l1.32-2.93Z"/>
      <path class="cls-1" d="M29.75,44.83c-.83-.73-3.93-2.28-4.55-2.65-.2.17-.43,1.15-.15,1.34.65.45,2.05,1.12,3,1.37.6.16,1.04.25,1.35.3.12-.11.24-.22.36-.35Z"/>
      <path class="cls-1" d="M25.2,42.17s.04-.03.06-.03c-.22-.08-.22-.06-.06.03Z"/>
      <path class="cls-1" d="M29.75,44.83c-.11.13-.23.24-.36.35.66.09.68-.07.36-.35Z"/>
      <path class="cls-1" d="M45.61,36.05c-1.65-1.15-4.13-.05-4.67,2.05l4.67-2.05Z"/>
      <path class="cls-1" d="M10.14,24.34c-.46.1-1.02.76-.97,1.15.05.41.88,1.14,1.33,1.1.92-.08,1.35-.63,1.32-1.39-.04-.85-.77-1.06-1.68-.85Z"/>
      <path class="cls-1" d="M28.35,43.08c.29.04.88-.19.96-.43.06-.18-.25-.57-.43-.66l-2.44-1.17c-.48,1.3.88,2.1,1.92,2.25Z"/>
      <path class="cls-1" d="M11.5,33.39c.36-.04.99-.56,1.16-.87.14-.25-.33-.99-.6-1.04-.82.41-1.9,1.25-2.77,2.16l2.21-.25Z"/>
      <path class="cls-1" d="M26.22,45.39l-1.62-1.07c-.49.86-.79,1.5-.85,2.43l1.46-1.39-.21,1.7,1.2-1.67Z"/>
      <path class="cls-1" d="M11.91,23.37l-.27-.66-3.34.45c-.21,1.43,3.77.6,3.61.2Z"/>
      <path class="cls-1" d="M10.66,30.15c.31-.19.83-.7,1.05-1.01-.78-.51-2.34-.79-2.65.44-.11.44,1.21.8,1.6.57Z"/>
      <path class="cls-1" d="M12.08,26.92l-3.31.23c.84,1.28,2.78,1.74,3.31-.23Z"/>
      <path class="cls-1" d="M46.91,35.89l.2-.75c.07-.27-1.06-.34-1.08-.08-.04.58.13,1.65.44,2.41l.37-1.37c-.14-.1-.14-.17.06-.21Z"/>
      <path class="cls-1" d="M46.85,36.1l.06-.21c-.2.04-.2.1-.06.21Z"/>
    </g>
  </g>
</svg>