<?xml version="1.0" encoding="UTF-8"?>
<svg id="Warstwa_2" data-name="Warstwa 2" xmlns="http://www.w3.org/2000/svg" viewBox="0 0 49.68 57.35">
  <defs>
    <style>
      .cls-1 {
        fill: #fff;
      }
    </style>
  </defs>
  <g id="icon-v9-equipment-pixarts-store">
    <g id="icon-v9-equipment-pixarts-store_143">
      <path class="cls-1" d="M3.67,12c-1.32,3.32-1.1,7.34.91,10.47,1.98,3.08,5.36,4.52,8.56,5.43-3.97.77-7.11-1.24-10.01-3.54,1.86,6.07,7.81,8.88,14.03,7.16-2.04,1.68-4.36,2.22-7.11,2.51,9.03,4.92,10.71-4.08,16.36.51.11-2.39-1.34-3.65-2.52-5.32,2.3.95,4.1,3.14,4.28,5.78.19,2.75-1.44,4.5-3.15,6.6,2.17-.7,3.73-2.1,5.35-3.61l-.36,1.89c2.62-1.74,4.59-4.25,5.95-7.1,1.31-2.74.6-5.57.23-8.65,1.52,1.82,1.44,4.1,1.57,6.44,1.06-1.53,1.93-2.74,3.1-3.84l.48,1.39c2.66-1.72,4.45-4.17,4.95-7.22-1.42,1.06-2.48,2.1-4.27,2.3,3.76-2.89,5.23-7.27,3.28-11.57-.57,2.35-.6,4.45-2.56,5.98,1.61-4.83.91-9.94-2.98-13.11,1,3.28,1.8,6.13.64,9.07.37-8.21-5.53-12.92-12.94-13.56,4.91,1.94,10.23,7.32,9.34,12.77l-.72-1.56-.62,5.04c-.21,1.67.91,3.93-1.14,5.19-1.73-.82-4.28-2.53-4.85-4.62-.61-2.22,1.7-3.9,3.62-3.96-.73-1.48-2.26-1.06-3.52-1.2-6.1-.7-3.84,2.32-10.24,2.77.91.67,1.95.96,3.4,1.23l-1.89,3,2.66-1.1.6,3.94c.12.79-.91,2.21-1.6,2.45-3.04,1.04-4.42-3.58-4.72-3.88-1.42-1.41-2.86-2.41-4.18-4.1l.14,2.34c-4.52-4.23-4.74-11.07-1.06-16.2-2.98,1.87-5.3,4.92-6.21,8.41-1.15,4.47.93,8.23,4.07,11.61-4.12-1.89-6.47-5.68-6.86-10.12Z"/>
      <path class="cls-1" d="M45.01,27.09l2.38,1.9-3.16-1.09-3.1,2.21c-.55-.1-1.14-.27-1.37-.08-.23.19-.39,1.16-.22,1.2,2.68-.1,5.33.63,6.42,3.07,2.23,4.98-4.94,11.65-8.71,13.95,1.92-1.98,3.79-4,4.84-6.25-1.27-.77-1.81-1.54-2.67-2.86l-3.06,2.4c1.6-2.77,3.93-5.01,3.95-8.39-3.71,8.77-12.53,13.75-21.55,15.41-2.19.4-4.15.04-6.5-.2,2.49,1.87,5.06.97,8.01,1.37l-2.74,1.08c2.96,4.95,5.76,2.49,10.04,2.45-4.23,2.23-13.56,3.27-16.14-1.39-3.57-6.46,6.93-13.87,12.2-16.77-3.62-.01-4.04,1.94-9.24,2.47-4.07,2.53-6.21,6.99-7.34,11.34-.04-4.53,2.52-8.45,5.61-11.82-2.1-.74-3.81-1.69-5.44-3.17l.8-1.11c-2.02-.97-3.47-2.46-4.93-4.55-4.84,8.93-4.05,16.58,2.6,23.92,6.75,7.44,17.02,5.71,25.26,1.97,6.34-2.88,11.93-6.87,15.86-12.67,4.31-6.35,3.28-10.65-.05-17.26l-1.77,2.87Z"/>
    </g>
  </g>
</svg>