<?xml version="1.0" encoding="UTF-8"?>
<svg id="Warstwa_2" data-name="Warstwa 2" xmlns="http://www.w3.org/2000/svg" viewBox="0 0 58.11 56.38">
  <defs>
    <style>
      .cls-1 {
        fill: #fff;
      }
    </style>
  </defs>
  <g id="icon-v9-equipment-pixarts-store">
    <g id="icon-v9-equipment-pixarts-store_331">
      <path class="cls-1" d="M33.41,47.09c-.98.37-2.21,1.01-2.89,1.62l-.24,4.82-2.17-.21c-.29-1.63-.44-3.08-.51-4.87-.63-.35-2.04-1.02-2.72-1.28-.17-.06-.56,1.1-.41.9l2.54,1.02.42,4.06c.03.32.97.99,1.05,1.1-.09.56-.09,1.37.29,1.44.4.08,1.57-.22,1.37-.39l-1.27-.8c.54-.4,1.12-.44,2-.41l.2-4.89,1.52-.4c.23-.06.83-.4,1.01-.56.18-.16.02-.55-.2-1.15Z"/>
      <path class="cls-1" d="M30.33,47.68l2.38-1.48c-.61-1.28-2.42.63-2.38,1.48Z"/>
      <path class="cls-1" d="M37.16,40.78c1.98-.68,3.64-1.29,5.56-2.57-.97-.98-1.67-.94-2.63-1.17-.4-.1-1.11-.71-1.49-.69-.38.02-1.06.5-1.63.81-1.29-1.81-2.62-3.49-4.45-4.66-.55,2.73-1.24,5.31-3.42,7.01-2.16-1.97-2.95-4.34-3.5-7.16-2.3.96-4.13,5.04-4.57,4.82l-1.39-.73c.43.23-4.61,1-4.05,2.01,1.83,1.03,3.72,1.81,5.46,2.32l.81-2.13c2.44.3,4.14,1.61,5.39,3.52h3.78c1.17-2.33,3.22-3.12,5.4-3.58l.73,2.2Z"/>
      <path class="cls-1" d="M33.22,49.83c1.66-1.01,1.72-2.57.79-4.2-1.04-1.82-3.35-2.82-5.56-2.58-3.46.37-5.74,3.66-4.81,5.79.53,1.21,2.77.3,2.74,4.05-.01,1.58,1.08,3.75,2.99,3.47,2.05-.3,2.81-2.45,2.64-4.19-.09-.95.5-1.91,1.2-2.34ZM32.72,46.2l-2.38,1.48c-.03-.85,1.78-2.76,2.38-1.48ZM31.08,49.2l-.2,4.89c-.89-.02-1.46.02-2,.41l1.27.8c.2.17-.97.47-1.37.39-.38-.07-.38-.89-.29-1.44-.08-.11-1.02-.77-1.05-1.1l-.42-4.06-2.54-1.02c-.15.2.25-.96.41-.9.67.26,2.09.93,2.72,1.28.07,1.79.22,3.24.51,4.87l2.17.21.24-4.82c.69-.61,1.92-1.25,2.89-1.62.22.6.38,1,.2,1.15-.18.16-.77.5-1.01.56l-1.52.4Z"/>
      <path class="cls-1" d="M30.58,22.91c.43-.16,1.05-.31.94-.57l-.53-1.15c-.14-.31-.8-.83-1.13-.79-.26.03-.52.83-.52,1.1l-.23,12.39-.31-13.74c-1.66.28-1.97,1.85-2.05,2.96,2.13.11-1.09.6-.1,4.31.25.95-1.28,3.17.57,2.95l-.43,1.49c0,2.07.78,4.21,2.21,6.05,1.49-1.14,2-2.8,1.99-4.63-.4-.63-.55-.9.56-.31l-.07-3.68c-.05-2.93,1.01-4.44-.89-6.39Z"/>
      <path class="cls-1" d="M33.62,17.84c-.51,1.28-1.1,4.94-.27,5.68l.55,5.03.83-.83-.34,2.54c.48,2.11,1.46,3.9,2.68,5.73,1.39-1.59.78-3.51,1.15-5.02.48-1.96-.24-6.96-1.41-8.47l.54-.28c.12-.06-.2-.55-.27-.66-.79-1.11-.9-2.36-2.3-3.11.54,3.66,1.42,6.79,1.48,10.15l-1.08-5.23c-.4-1.92-.89-3.48-1.55-5.53Z"/>
      <path class="cls-1" d="M56.3,21.54c-1.97-6.03-7.8-10.02-13.76-11.88,1.71,2.48,4.75,2.9,5.98,5.11l-5.61-3.69c-.22-.14-.93.38-.85.57.08.2.33.65.55.85l6.48,5.89.02-1.42c.15,1.61,5.75,5.16,7.19,4.57Z"/>
      <path class="cls-1" d="M21.62,30.24c.08-4.82,1.56-8.81,2.25-13.29l-2.7,4.6.13.65c-.36.79-1.03,2.6-1.22,3.47-.05.2.83.25,1.06.25-2.18,1.38-1.58,8.15-.18,10.07l1.92-3.2c1.03-1.71.89-3.32.44-5.29l.91,1.02c.65-2.48.72-5.03.65-7.7-.02-.73.89-1.7-.4-2.56l-2.85,11.99Z"/>
      <path class="cls-1" d="M1.89,21.49c2.14.05,4.17-.79,4.66-2.8l.35,1.34c.8-.62,1.35-1.33,1.83-2.31-.02-.01.37.66.52.5.12-.12.5-.54.69-.71l5.75-4.97c.26-.23.49-.94.39-1.19-.47-1.26-6.65,3.82-7.38,4.36l-2.56,1.93c2.63-3.11,6.31-4.91,9.74-7.87-4.78.65-12.98,7.14-13.99,11.72Z"/>
      <path class="cls-1" d="M14.28,31.15c2.33-1.03,2.49-3.37,3.43-4.56,3.1-3.95.5-1.66,2.53-5.16l.39-1.21c.08-.26.78-.37.71-.37l-.06-3.96-3.59,6.21,2.93-6.62c-3.74,1.21-7.83,12.61-6.35,15.68Z"/>
      <path class="cls-1" d="M12.09,23.34c.73-.67,1.6-1.76,2.31-2.58.64.08,4.68-6.99,3.54-7.36l-4.39,4.93,3.71-5.59c-4.99,2.97-8.35,8.18-9.73,13.79,2.44-.34,3.36-2.1,4.55-3.19Z"/>
      <path class="cls-1" d="M43.43,24.62c-.34-1.86-1.38-3.28-2.15-4.82-.79-1.58-1.69-3.34-3.66-4.06,1.13,2.55,2.69,4.29,3.18,7.11l-2.79-5.45c-.28-.55-.89-1-1.58-1.07l1.44,5.56.46-.84c.05-.09.28.07.26.16l-.09.55c-.33,1.96.98,3.56,1.89,5.17.85,1.5,1.78,3.1,3.3,4.41,1.23-2.43.14-4.41-.27-6.71Z"/>
      <path class="cls-1" d="M50.54,26.66c-.15-4.53-5.35-12.01-9.47-13.75.4,1.45,1.67,2.29,2.54,3.42l1.39,1.83c.67.88,1.26,1.78,1.63,2.72-2.47-2.75-3.94-5.4-6.76-7.5.1,1.2.41,2.43.93,3.23l2.33,3.64c.17.26.3.52.36.44l.42-.52c-.02,1.55,4.9,6.45,6.63,6.49Z"/>
      <path class="cls-1" d="M43.2,6.44l7.86,3.73-7.76-2.66c-.03,1.31.82,1.77,1.78,2.18l3.8,1.64c.87.38,1.89,1.14,2.7,1.61l.51-.89c1.56,1.52,3.65,2.56,6.02,1.51-2.83-4.16-9.97-7.3-14.91-7.12Z"/>
      <path class="cls-1" d="M4.4,13.63l1.8-1.64.21,1.14,3.31-1.89,2.18-1.06c1.26-.61,3.05-.59,3.02-2.66l-7.8,2.78c2.26-1.94,5.32-1.72,7.62-3.95-5.37.57-11.89,3.1-14.75,7.31,1.57.25,3.04.28,4.4-.03Z"/>
      <path class="cls-1" d="M40.42,7.61c.03-.37-.54-.93-.99-1.14-.3-.14-1.37-.06-1.42.28l-.16,1.12c-.41.35-1.19,1.5-1.74,1.68l-2.75.89c2.72-2.59,6.58-5.59,4.21-9.6-1.61-2.73-5.52,2.7-14.42-.68-.47-.18-1.54-.23-1.92-.02-1.48.83-2.44,5.26,1.53,8.54.76.63,1.44,1.31,1.97,2.08l-2.01-1.16c.4,1,1.22,1.97,2,2.58l1.26-.31c.38-1.32-.74-2.64-1.92-3.45-2.52-1.73-3.98-4.79-2.56-7.22.15-.26,1.11-.26,1.47-.13,4.18,1.58,8.95,1.43,13.25-.22,1.27,1.64,1.21,3.59.11,5.19-2.29,3.34-4.55,2.81-4.34,6.05l1.51-1.58-.36,1.67,1.65-1.24c0,1.34.04,2.11.55,2.92,1.65-1.05,2.35-1.9,3.25-3.15l.77-1.07c.17-.24-.25-.87-.34-1,.52-.12,1.34-.57,1.38-1.03Z"/>
      <path class="cls-1" d="M43.5,4.82c2.18.88,4.18,1.58,6.37,1.86l2.04.26c1.73.22,3.4-.21,5-1.35-2.75-1.59-10.95-3.97-13.45-1.82,3.25.39,5.74.67,8.39,1.36-3.01.04-5.49-1.04-8.36-.31Z"/>
      <path class="cls-1" d="M9.56,3.13c-2.92.46-5.54,1.35-8.36,2.38,1.93,2.03,4.12,1.4,6.24,1.21,1.41-.12,2.71-.3,4.03-.75l3.21-1.09c-3.25-.85-5.49.61-8.08.06l8.1-1c.7-1.35-5.71-.72-5.15-.81Z"/>
      <path class="cls-1" d="M44.81,46.4c-3.48,2.05-6.82,3.34-10.63,4.4-.79.22-1.41.86-1.3,1.7.9.16,14.86-4.27,11.94-6.09Z"/>
      <path class="cls-1" d="M14.91,32.26c-.23.89.12,2.48.44,3.12l3.38-1.84.2-6.45c-.88,2.01-2.32,3.61-4.02,5.17Z"/>
      <path class="cls-1" d="M25.82,52.21c-.98-1.21-1.86-1.56-3.14-1.89-3.05-.78-6.55-2.29-9.09-3.89l-.68.62c-1.06.97,11.42,5.94,12.91,5.16Z"/>
      <path class="cls-1" d="M42.97,35.19c.32-1.15.48-2.23.3-2.93-1.77-1.52-3.19-3.09-4-5.11.14,2.2.14,4.05-.05,6.28l3.75,1.77Z"/>
      <path class="cls-1" d="M27.03,14.32c.26.11-.16,1.08-.07,1.01,1.41-.09,2.63-.09,3.78,0,.57-.11,1.54-.95,1.97-1.57l-2.33-.38,2.66-.14c-.56-.67-1.12-.86-1.68-.73-2.02.48-3.52.27-5.79.2l3.38.99-3.48-.06,1.56.68Z"/>
      <path class="cls-1" d="M21.93,43.51c.91-2.67-4.26-1.67-7.52-4.69-2.54,2.07,6.08,4.49,7.52,4.69Z"/>
      <path class="cls-1" d="M43.87,38.86c-3.48,2.94-8.07,1.93-7.5,4.75,1.69-.46,9.36-2.29,7.5-4.75Z"/>
      <path class="cls-1" d="M28.64,19.72c.85.33,1.85-.44,2.11-1.19.25-.72.07-1.75-.37-2.19-.64-.64-1.96-.73-2.52-.13-.96,1.01-.57,2.99.79,3.52Z"/>
      <path class="cls-1" d="M23.55,12.04c-2.29-2.28-.28-.98-2.94-4.19-.3-.37-.58-1.43-1.06-1.49-.48-.06-1.6.55-1.66,1.03-.06.42.27,1.15.52,1.68l1.3-.52-.81,1.19c-.13.19.29.85.51.8l1.02-.2-.66.99c.91.8,1.92,1.56,3.13,2.4l.99,1.12c.24-.26.77-1.12.74-1.56-.02-.38-.72-.87-1.1-1.24Z"/>
      <path class="cls-1" d="M35.95,39.8c-1.71.2-3.64,1.57-4.12,2.76-.14.34.93.82,1.11.55l.73-1.1-.04,1.8,1.77-2.76c-.41,1.6-1.43,2.29-.78,3.65,1.17-1.37,1.43-3.06,1.33-4.9Z"/>
      <path class="cls-1" d="M23.21,41.01l1.76,2.62-.61-1.88,2.01,1.45c-.02-2.25-2.39-3.01-4.07-3.22.15,1.87.3,3.34,1.6,4.71-.09-1.45-.44-2.23-.69-3.69Z"/>
      <path class="cls-1" d="M38.88,46.96c.45.81.63,1.03.84.74.15-.66.18-1.15.01-1.37-.48-.61-2.7,1.93-2.92,2.49,1.66.27,1.95-.93,2.07-1.86Z"/>
      <path class="cls-1" d="M17.68,6.38c.4-.15,1.37-.57,1.81-.79.19-.1.17-1.11-.07-1.12-.24,0-.91-.05-1.11.07l-1.07.61c-.25.14.16,1.33.44,1.23Z"/>
      <path class="cls-1" d="M40.84,5.71c-.03-1.55-2.03-1.48-2.25-.82-.14.42.61,1.1.98,1.27.37.17,1.27,0,1.26-.45Z"/>
      <path class="cls-1" d="M38.79,46.05c-.19-.4-.59-1.05-.86-1.33-.27-.29-1.35-.22-1.75,0,.13.37.57,1.11.84,1.4s1.15.19,1.77-.06Z"/>
      <path class="cls-1" d="M16.22,46.85l2.29,1.03c-.05-1.46.4-2.37,1.17-3.66-.05-.46-1.48-.54-1.75-.07-.38.66-.3,1.14.39,2.05l-1.72-.16c-.19-.02-.81.08-.73.24.05.11.25.52.36.57Z"/>
      <path class="cls-1" d="M31.56,16.27c0,.58.47,1.04,1.04,1.04s1.04-.47,1.04-1.04-.47-1.04-1.04-1.04-1.04.47-1.04,1.04Z"/>
      <path class="cls-1" d="M20.26,48.59l2.14.51-1.33-1.77c-.58.4-.67.54-.79.39l-.69-.86c-.2-.25-.62.9-.4,1.14.22.23.75.52,1.07.6Z"/>
      <polygon class="cls-1" points="43.91 22.93 45.05 27.49 45.79 25.42 43.91 22.93"/>
      <path class="cls-1" d="M40.19,45.85c.98-.48.36-1.64-.07-1.88-.35-.2-1.41-.03-1.4.37.01.62,1,1.69,1.47,1.51Z"/>
      <path class="cls-1" d="M24.78,16.68c.12.33,1.07.68,1.34.47.36-.28.43-1.37.13-1.54-.24-.13-.83-.28-1.24-.32-.34-.03-.35,1.05-.23,1.38Z"/>
      <polygon class="cls-1" points="40.36 43.22 41.98 45.72 43.24 44.15 40.36 43.22"/>
      <path class="cls-1" d="M20.34,44.61c-.26.17-.52,1-.47,1.3.05.31.77.71.99.49l.79-.8c.22-.22.41-1.27.09-1.27-.32,0-1.14.11-1.41.28Z"/>
      <path class="cls-1" d="M16.64,45.21c.39-.18.81-1.4.54-1.81-.39-.58-1.34,0-1.57.59-.24.59.46,1.48,1.03,1.22Z"/>
      <path class="cls-1" d="M13.86,23.75c-1.5.79-1.85,2.45-.9,3.78l.9-3.78Z"/>
      <path class="cls-1" d="M33.24,13.66c-.15.35.59,1.25.93,1.04.79-.47.59-1.53-.3-2.47l-.63,1.43Z"/>
      <path class="cls-1" d="M42.37,46.6c-.15-.66-1.19-.82-1.57-.36-.36.44-.57,1.02-.54,1.63l2.11-1.27Z"/>
      <path class="cls-1" d="M15.37,43.42c.31-.36.76-.77.58-.89l-.73-.46c-.26-.17-.96.12-1.12.38-.16.26.07,1.02.31,1.29.16.19.49-.07.96-.32Z"/>
      <path class="cls-1" d="M19.35,3.18c-.32-.18-1.16-.35-1.54-.31-.35.03-.48.68-.56,1.41.92-.07,1.67-.32,2.09-1.1Z"/>
      <path class="cls-1" d="M38.96,3.31c-.15.6,1.72,1.15,1.87.57.3-1.19-1.64-1.47-1.87-.57Z"/>
      <path class="cls-1" d="M43.61,42.01c-.4.03-1,.4-1.6.81l2.03,1.02c.15-.51-.03-1.86-.43-1.84Z"/>
      <path class="cls-1" d="M22.33,47.85l.6-2.58c-1.05.38-2.14,1.36-.6,2.58Z"/>
      <path class="cls-1" d="M18.86,2.33c.33-.13.82-1.15.54-1.28-.72-.21-1.96.4-1.83.89.1.37.92.52,1.28.38Z"/>
      <path class="cls-1" d="M16.57,9.53c.43,0,.79-.35.79-.79s-.35-.79-.79-.79-.79.35-.79.79.35.79.79.79Z"/>
      <path class="cls-1" d="M18.61,12.94c.4,0,.73-.33.73-.73s-.33-.73-.73-.73-.73.33-.73.73.33.73.73.73Z"/>
      <circle class="cls-1" cx="41.67" cy="8.77" r=".72"/>
    </g>
  </g>
</svg>