<?xml version="1.0" encoding="UTF-8"?>
<svg id="Warstwa_2" data-name="Warstwa 2" xmlns="http://www.w3.org/2000/svg" viewBox="0 0 20.89 51.55">
  <defs>
    <style>
      .cls-1 {
        fill: #fff;
      }
    </style>
  </defs>
  <g id="icon-v9-equipment-pixarts-store">
    <g id="icon-v9-equipment-pixarts-store_178">
      <path class="cls-1" d="M12.9,18.28c.23-.81-.26-2.1-.71-2.8l-.72-1.66-.98,1.8c-.17-.26-.54-.87-.71-1.2-.17-.32.83-.96,1.12-1.23,1.02-1,.32-3-.93-3.75-1.31-.79-2.27-2.03-2.47-3.38-.37-2.5,1.27-4.93,3.21-4.78,3.4.27,2.41,6.73,6.74,6.2C13.56,5.21,15.03,1.09,11.22.11c-1.52-.39-3.15.32-4.1,1.61-2.09,2.84-1.28,6.57,1.49,8.65,2.05,1.54-.83,3.18-.02,5.05.38.88,1.02,1.61,2.03,1.95l.05-1.63c.28.24.86.86,1.06,1.27.2.41-.25,1.57-.63,1.83-.27.19-1.25.23-1.49,0s-.51-.71-.68-1.13l-.64-1.53c-1.25,1.63-.21,3.31,1.31,4.18C5.25,25.55-.15,34.26,0,41.22c.13,5.98,5.09,10.51,10.74,10.32,5.79-.2,10.28-4.96,10.14-11-.16-6.82-5.38-14.78-9.6-20.09.67-.68,1.42-1.48,1.62-2.18ZM18.33,45.25c-1.95,4-6.39,5.64-10.4,4.48-3.94-1.14-6.44-4.81-6.5-9.21.54-6.76,4.63-13.51,9.03-18.72,4.63,5.72,11.43,16.15,7.87,23.45Z"/>
      <polygon class="cls-1" points="7.26 42.89 10.37 44.45 13.71 42.8 14.69 38.62 10.46 29.69 6.17 38.61 7.26 42.89"/>
      <path class="cls-1" d="M10.05,23.93c-2.08,2.64-3.82,5.07-4.92,8.14l5.07-3.42-.15-4.72Z"/>
      <path class="cls-1" d="M15.52,31.64c-1.29-3.29-2.73-5.25-4.56-7.59-.19,1.58-.23,3.25-.06,4.62,1.61,1.22,3.01,2.33,4.62,2.97Z"/>
      <polygon class="cls-1" points="14.87 37.26 15.72 32.74 11.48 30.19 14.87 37.26"/>
      <path class="cls-1" d="M4.49,33.29l-2.04,6.09c.38.56.96,1.1,1.6,1.57,2.2-2.73.95-4.43.45-7.66Z"/>
      <path class="cls-1" d="M5.22,32.76c.19,1.5.46,2.97.84,4.59l3.48-7.44-4.31,2.85Z"/>
      <path class="cls-1" d="M16.84,40.87c2.92-.63-.06-5.93-.53-7.54-.44,3.64-1.74,4.89.53,7.54Z"/>
      <polygon class="cls-1" points="10.29 45.21 7.92 46.48 10.53 48.97 12.88 46.45 10.29 45.21"/>
      <path class="cls-1" d="M4.44,42.27c-.28.67-.65,1.87-.71,2.7,1.11.57,2.2.89,3.07,1,.36-2.39-.38-3.23-2.36-3.7Z"/>
      <path class="cls-1" d="M13.94,45.96c.92-.11,2.38-.29,3.04-1.11.28-.58-.38-2.19-.6-2.54-2.08.4-2.66,1.9-2.43,3.65Z"/>
      <path class="cls-1" d="M6.35,42.26l-.68-2.6c-.34.5-.66,1.03-.88,1.55-.16.37.83.86,1.55,1.05Z"/>
      <polygon class="cls-1" points="15.23 39.46 14.54 42.41 16.29 41.5 15.23 39.46"/>
      <path class="cls-1" d="M11.71,48.75c1.01-.14,1.66-.38,2.31-.82l-.75-.9-1.56,1.72Z"/>
      <polygon class="cls-1" points="7.41 43.81 7.8 45.77 9.55 44.78 7.41 43.81"/>
    </g>
  </g>
</svg>