<?xml version="1.0" encoding="UTF-8"?>
<svg id="Warstwa_2" data-name="Warstwa 2" xmlns="http://www.w3.org/2000/svg" viewBox="0 0 57.28 56.52">
  <defs>
    <style>
      .cls-1 {
        fill: #fff;
      }
    </style>
  </defs>
  <g id="icon-v9-equipment-pixarts-store">
    <g id="icon-v9-equipment-pixarts-store_94">
      <path class="cls-1" d="M6.75,14.9l-.06-6.52c0-.69.19-1.77.32-2.45-1.6-.35-3.24-.58-4.73-1.53,7.33-1.81,14.8-1.3,22.01.47-4.07,1.67-7.96,1.92-12.1,1.6l-4.38-.34c-1.21,1.3-.57,3.07-.48,4.55l.25,4.32c9.23,1.4,9.17,1.14,18.35-.73l.31-9.69C17.55,1.9,8.8,1.87,0,4l.02,9.41,6.72,1.49ZM11.63,13.61c-1.33,0-2.4-1.08-2.4-2.4s1.08-2.4,2.4-2.4,2.4,1.08,2.4,2.4-1.08,2.4-2.4,2.4ZM21.41,13.29c-1.37,0-2.48-1.11-2.48-2.48s1.11-2.48,2.48-2.48,2.48,1.11,2.48,2.48-1.11,2.48-2.48,2.48ZM3.64,7.6c.7.11,1.5,1.25,1.64,1.88.17.76-.36,2.39-1.19,2.69-1.72.62-2.89-.85-2.98-2.06-.08-1.17,1.17-2.72,2.53-2.5Z"/>
      <path class="cls-1" d="M1.66,15.39l.97,16.38c1.67,1.86,3.51,3.86,4.81,5.7,1.99-2.41,4.36-4.41,6.82-6.06l-.28-14.1c-4.49-.48-8.27-1.06-12.32-1.92ZM6.8,17.6l3.59,2.53c.14.1.18.75.19.92,0,.23-.7.14-.91.02l-2.76-1.61c-.25-.15-1-.09-1.25.03-.32.15-.39,1.04-.46,1.48-.6,3.77,2.59,3.11,3.08,5.17.11.46-.68,1.43-1.12,1.35-.68-1.58-1.39-2.52-2.96-3.42l-.44-5.34,3.04-1.13ZM7.21,31.54l-3-2.85c-.41-.39.36-1.87,1.15-1.91.44-.02.55,1.07.6,1.59.11,1.19,1.57,1.32,2.45.93,1.17-.51,1.1-1.34,1.12-2.67.1-5.21-3.97-2.72-2.83-5.79l4.04,2.5.16,6.11-3.69,2.09Z"/>
      <path class="cls-1" d="M38.27,46.95c-.42-2.29-.72-4.34-1.52-5.89l-5.67-2.78c-7.49,2.79-10.42,1.35-11.52,10.43,9,2.09,10.42,1.52,18.71-1.75ZM27.26,47.72l-.33-3.03c-1.67-.84-2.96-1.52-4.46-2.73,1.57.46,3.23,1.22,4.58,2.18.67.64.47,2.8.21,3.58Z"/>
      <path class="cls-1" d="M.12,48.41l6.73,2.72.39-3.67,6.36,3,.86,3.4c11.91,2.89,13.55,4.52,25.07-.92-1.23-.15-2.45.81-3.19-.11-.62-.76-.58-2.14.48-2.87.74-.51,1.68-.02,2.65.93.02-.91-.05-2.09-.2-3.23-3.96,1.72-7.78,3.5-12.17,3.43-6.08-.11-11.63-2.26-17.17-4.34-3.53-1.33-6.51-2.59-9.86-4.42l.06,6.1ZM31.4,51.67c.98,0,1.77.79,1.77,1.77s-.79,1.77-1.77,1.77-1.77-.79-1.77-1.77.79-1.77,1.77-1.77ZM24.57,51.97c.99,0,1.78.8,1.78,1.78s-.8,1.78-1.78,1.78-1.78-.8-1.78-1.78.8-1.78,1.78-1.78ZM17.88,50.62c.92,0,1.67.75,1.67,1.67s-.75,1.67-1.67,1.67-1.67-.75-1.67-1.67.75-1.67,1.67-1.67ZM2.24,45c.89,0,1.61.72,1.61,1.61s-.72,1.61-1.61,1.61-1.61-.72-1.61-1.61.72-1.61,1.61-1.61Z"/>
      <path class="cls-1" d="M24.19,16.17l-9.36,1.47.03,13.28c2.7-1.11,5.41-1.88,8.6-2.22l.73-12.53ZM21.03,23.86c.37,1.09,1.87,1.39,1.67,1.81l-.4.83c-.46.95-1.98-1.83-2.38-1.38l-1.01,1.13c-.26.29-.64.67-.85.84-.2.17-.83-.43-.84-.69,0-.27.25-.77.44-.96l1.41-1.42-2.24-2.27,3.23-3.8,2.53,2.89c.74.85-1.76,2.5-1.57,3.04Z"/>
      <path class="cls-1" d="M24.93,36.33c-5.59.89-10.19,4.31-13.09,8.84-1.5-2.17-1.47,0-4.06-3.35.03.97.16,2.06.4,2.94l10.13,3.66c1.94-9.01,2.91-7.84,10.7-10.58-.91-1.11-2.51-1.77-4.09-1.51Z"/>
      <path class="cls-1" d="M7.54,39.22c.32,2.14,2.48,3.72,4.29,3.85,4.14-5.39,9.23-8.24,16.02-8.22-2.21-1.35-3.33-2.41-3.26-4.7-6.5-.97-13.62,4.08-17.06,9.06ZM21.58,30.9c.98,0,1.78.8,1.78,1.78s-.8,1.78-1.78,1.78-1.78-.8-1.78-1.78.8-1.78,1.78-1.78ZM15.98,33.23c1.02,0,1.85.83,1.85,1.85s-.83,1.85-1.85,1.85-1.85-.83-1.85-1.85.83-1.85,1.85-1.85ZM12.9,39.09c0,.99-.8,1.79-1.79,1.79s-1.79-.8-1.79-1.79.8-1.79,1.79-1.79,1.79.8,1.79,1.79Z"/>
      <path class="cls-1" d="M6.71,44.17l-.12-5.67c-1.34-2.03-2.7-3.69-4.66-5.4l-.6,8.67,5.38,2.41Z"/>
      <path class="cls-1" d="M36.73,51.39c0,.49.39.88.88.88s.88-.39.88-.88-.39-.88-.88-.88-.88.39-.88.88Z"/>
      <path class="cls-1" d="M21.28,9.13c-.57-.04-1.4.84-1.38,1.35.02.7.48,1.45,1.01,1.71v-1.53s.95,1.58.95,1.58c.84-.42,1.4-1.41,1.04-2.05-.27-.48-1.11-1.03-1.62-1.07Z"/>
      <path class="cls-1" d="M10.88,9.86c-.46.19-.96,1.19-.83,1.67.16.59,1.04,1.05,1.71,1.06l-.16-1.92.95,1.62c.64-.67.65-1.7.15-2.16-.37-.35-1.31-.48-1.82-.27Z"/>
      <path class="cls-1" d="M2.64,11.08l.43-.97c.05-.11.18-.04.25.07l.55.85c.33-.06.58-1.29.43-1.83-.11-.41-.93-.8-1.33-.66-.47.17-1.2.79-1.17,1.22.02.43.64,1.32.84,1.32Z"/>
      <circle class="cls-1" cx="24.51" cy="53.66" r=".93"/>
      <path class="cls-1" d="M31.38,54.24c.51,0,.93-.41.93-.93s-.41-.93-.93-.93-.93.41-.93.93.41.93.93.93Z"/>
      <circle class="cls-1" cx="17.83" cy="52.14" r=".8"/>
      <path class="cls-1" d="M19.89,20.07c-.59.31-1.11,1.29-.97,1.73.12.38.94,1.12,1.26.89.5-.36,1.2-1.36,1.01-1.71-.2-.36-.94-1.1-1.3-.91Z"/>
      <path class="cls-1" d="M15.12,35.22c.23.15,1.02.32,1.48.38.33.04.55-1.13.24-1.23-.31-.1-.96-.25-1.29-.31-.32-.05-.71.97-.43,1.15Z"/>
      <path class="cls-1" d="M11.56,39.61c.35-.1.4-1.42.09-1.39l-1.09.11c-.31.03-.31.73-.28,1.16.02.25.76.27,1.28.12Z"/>
      <circle class="cls-1" cx="21.63" cy="32.58" r="1"/>
      <path class="cls-1" d="M28.92,11.62c6.81,1.27,8.84.84,15.8-.79l.41-8.87c-3.62-1.02-6.89-1.48-10.48-1.9-2.29-.26-11.21.26-13.49,1.6l6.83,2.39c-.04,4.63,2.18,3.48.93,7.56ZM32.18,10.17c-1.2,0-2.18-.97-2.18-2.18s.97-2.18,2.18-2.18,2.18.97,2.18,2.18-.97,2.18-2.18,2.18ZM36.13,11.45c-.15-1.2-.03-2.43.09-3.78l.32-3.72c.32,2.45.4,4.88-.41,7.5ZM41.07,9.98c-1.23,0-2.23-1-2.23-2.23s1-2.23,2.23-2.23,2.23,1,2.23,2.23-1,2.23-2.23,2.23ZM43.14,2.3c-3.97,2.22-15.84,1.43-19.62-.53,7.43-1.64,12.19-1.37,19.62.53Z"/>
      <path class="cls-1" d="M42.04,41.93c7.47,1.35,7.06,1.49,13.93-1.4.11-1.71-.06-3.69-.9-5.27l-4.7-2.34c-2.02.8-4.73.93-6.22,2.59-1.49,1.65-1.65,4.3-2.11,6.41ZM48.84,37.47c.28,1.57.47,3.05.37,5.03-.83-1.21-.68-2.72-.57-4.52l-3.89-2.02c1.56.07,2.82.82,4.08,1.51Z"/>
      <path class="cls-1" d="M26.44,29.08l2.64,2.49c6.18-5.28,4.84-5.58,12.97-7.2l.94-11.67-7.45,1.18-.44,12.17c-1.35-4.16-.18-7.85-.4-12.2l-6.17-.87-1.46,3.84,2.49-1.76,2.83,3.25-3.17,2.67,2.39,2.73c.17.2-.06,1.09-.31,1.02-1.77-.48-1.16-1.46-3.16-2.53-.5-.27-1.4,1.19-1.43,1.78l-.26,5.11ZM37.31,15.37c1.47.61,2.3,1.34,2.93,2.68l-2.37-.54c.44,1.5,1.42,2.11,2.53,2.72.43-1.98-.48-3.67,1.07-5.53.25,2.62.06,4.49-.24,7.38-.97-.39-1.63-.91-2.83-1.8l-.19,2.18c-.01.17-.4.54-.52.65-.12.11-.51-.59-.51-.81l.14-6.92Z"/>
      <path class="cls-1" d="M40.21,42.75l-.66-.1c-.12-.02-.29.39-.19.45l.54.35c.53.34,1.65,1.21,1.63,1.82-.02.55-.34,1.46-.56,2.27,8.85,1.89,8.32,1.85,16.29-1.55-1.05-.16-1.97-.1-2.45-.66-.51-.58-.28-1.58.38-2.28.53-.56,1.24-.46,2.06.32l-.05-2.48c-8.33,4.15-8.68,3.16-17,1.86ZM45.69,47.75c-.85,0-1.54-.69-1.54-1.54s.69-1.54,1.54-1.54,1.54.69,1.54,1.54-.69,1.54-1.54,1.54ZM51.5,44.46c.83,0,1.5.67,1.5,1.5s-.67,1.5-1.5,1.5-1.5-.67-1.5-1.5.67-1.5,1.5-1.5Z"/>
      <path class="cls-1" d="M34.27,37.74c1.47.7,3.37,1.06,4.13,2.24,3.4,5.31,2.52-2.78,5-5.18,1.04-1.01,2.94-1.48,4.4-2.1-3.71-4.29-11.12,1.04-13.52,5.04Z"/>
      <path class="cls-1" d="M43.09,26.05c-3.63-1.87-11.45,3.81-13.57,7.2l1.48,2.5c.19.32.84.8,1.19.91.35.1,1.21-.27,1.52-.59,3.62-3.74,6.47-6.08,12.09-6.41-1.37-1.12-2.21-2.16-2.72-3.61ZM32.54,34.93c-.89,0-1.61-.72-1.61-1.61s.72-1.61,1.61-1.61,1.61.72,1.61,1.61-.72,1.61-1.61,1.61ZM37.2,31.34c-.9.16-1.87-.25-2.02-.83-.26-1.04.21-2.2,1.35-2.37.75-.11,1.77.67,1.82,1.27.07.79-.54,1.82-1.15,1.93ZM41.43,29.46c-.86,0-1.55-.7-1.55-1.55s.7-1.55,1.55-1.55,1.55.7,1.55,1.55-.7,1.55-1.55,1.55Z"/>
      <path class="cls-1" d="M30.44,18.1c.24-.25-.38-1.29-.71-1.2-.92.26-2.01.91-2.42,1.88-.14.34.26,1.11.54,1.55.78-.61,2.06-1.68,2.59-2.23Z"/>
      <path class="cls-1" d="M41.4,6.36c-.59-.09-1.45.36-1.43.87.01.58.31,1.51.55,1.7l.53-1.64.28,1.77c.48-.2,1.22-.81,1.28-1.3.06-.53-.72-1.33-1.2-1.4Z"/>
      <path class="cls-1" d="M32.15,6.62c-.74,0-1.35.6-1.35,1.35s.6,1.35,1.35,1.35,1.35-.6,1.35-1.35-.6-1.35-1.35-1.35Z"/>
      <path class="cls-1" d="M45.64,45.35c-.44,0-.8.36-.8.8s.36.8.8.8.8-.36.8-.8-.36-.8-.8-.8Z"/>
      <circle class="cls-1" cx="51.66" cy="46" r=".79"/>
      <circle class="cls-1" cx="32.52" cy="33.26" r=".78"/>
    </g>
  </g>
</svg>