<?xml version="1.0" encoding="UTF-8"?>
<svg id="Warstwa_2" data-name="Warstwa 2" xmlns="http://www.w3.org/2000/svg" viewBox="0 0 49.9 58.33">
  <defs>
    <style>
      .cls-1 {
        fill: #fff;
      }
    </style>
  </defs>
  <g id="icon-v9-equipment-pixarts-store">
    <g id="icon-v9-equipment-pixarts-store_341">
      <path class="cls-1" d="M12.71,30.14c-4.43,3.65-10.31,12.74-10.72,18.56,1.55-4.51,3.34-8.73,6.25-12.63l4.47-5.93Z"/>
      <path class="cls-1" d="M18.91,31.39c.09-.32-.75-1.12-1.08-.97-1.27.56-2.77,2.32-3.39,3.69l3.54-1.38c.4-.16.85-1.01.94-1.34Z"/>
      <path class="cls-1" d="M42.2,18.7c-.5-.02-1.58.45-1.66.69.98-.03,1.96-.03,2.33.14l-1.31,2.18c.64.02,1.53-.59,1.66-1.17.14-.66-.36-1.82-1.02-1.84Z"/>
      <path class="cls-1" d="M26.49,20.92c-2.75,0-4.98,2.23-4.98,4.98s2.23,4.98,4.98,4.98,4.98-2.23,4.98-4.98-2.23-4.98-4.98-4.98Z"/>
      <path class="cls-1" d="M43,34.71l.77.47-.7,2.38c1.25-.6,1.42-2.55.81-3.45-.31.11-1,.52-.88.59Z"/>
      <path class="cls-1" d="M9.32,18.21c4.01.62,4.03,3.78,4.53,6.98,1.83-.42,3.64-.05,5.44,1.23-.05-3.46,1.94-6.58,5.01-7.51,3.39-1.03,6.88.45,8.56,3.47l1.65-1.25-1.05,1.3c-.54.67,2.87,8.36-5.65,10.93,2.29,1.39,3.89,3.3,3.52,5.85-.49,3.38-2.92,5.82-6.11,7.37,5.16.98,8.87-2.91,11.67-6.57-2.5-1.36-1.27-3.89-.93-5.33l2.4-.87.8-8.27c-.55.05-2.26.02-2.53-.49-.65-1.22-1.27-3.39-1.21-4.9.03-.73,1.44-1.68,2.18-2.35-3.66-4.62-5.98-7.22-11.69-9.08-2.33,4.21-4.08,3.65-7.16,4.8-.1.04-1.65-3.01-1.56-5.16-5.64,2.5-7.85,3.62-7.88,9.84Z"/>
      <path class="cls-1" d="M.61,58.33c2.06-3.07,3.77-5.73,6.05-8.24,11.01-12.14,23.08-8.97,23.6-11.06.66-2.64-2.26-5.11-5-5.8-2.66-.67-4.38-2.1-5.55-4.63-.74-1.59-3.58-3.31-5.38-2.26-1.97,1.15-3.36,3.22-4.97,4.88C2.61,38.16-1.65,48.77.61,58.33ZM17.83,30.42c.33-.15,1.17.65,1.08.97-.09.32-.54,1.18-.94,1.34l-3.54,1.38c.62-1.37,2.12-3.13,3.39-3.69ZM12.71,30.14l-4.47,5.93c-2.91,3.9-4.7,8.12-6.25,12.63.41-5.82,6.29-14.91,10.72-18.56Z"/>
      <path class="cls-1" d="M23.64,46.12c2.9-.8,5-2.54,6.08-5.17-9.29.65-17.16,3.68-23.22,10.96l7.28-4.28c2.93-1.72,6.27-1.98,9.86-1.51Z"/>
      <path class="cls-1" d="M26.53,19.52c-3.51,0-6.36,2.85-6.36,6.36s2.85,6.36,6.36,6.36,6.36-2.85,6.36-6.36-2.85-6.36-6.36-6.36ZM26.49,30.88c-2.75,0-4.98-2.23-4.98-4.98s2.23-4.98,4.98-4.98,4.98,2.23,4.98,4.98-2.23,4.98-4.98,4.98Z"/>
      <path class="cls-1" d="M19.95,6.59l5.52.47c1.97-3.98,5.08-5.73,8.76-6.42-7.07-1.89-10.37.52-14.27,5.95Z"/>
      <path class="cls-1" d="M48.61,13.02c-2.53,2.97-6.08,4.09-8.91,5.45l1.55,4.85,3.07-1.48c.14-1.9-.39-3.33-1.12-4.78,1.87.57,1.55,2.22,1.94,4.21,1.38-.7,3.32-1.79,4.32-3.19,1.08-1.51-.04-3.82-.84-5.05ZM43.22,20.55c-.12.58-1.01,1.19-1.66,1.17l1.31-2.18c-.37-.17-1.34-.17-2.33-.14.08-.24,1.16-.7,1.66-.69.66.02,1.16,1.18,1.02,1.84Z"/>
      <path class="cls-1" d="M47.91,32.16l-7.71,2.49,2.56.51-2.34.77c-.24.08-.2,1.17.05,1.12,2-.38,1.58-.69,1.62-.05.04.61-2.82.11-2.34,1.83,5.41-1.66,7.28-.73,8.16-6.68ZM43.07,37.56l.7-2.38-.77-.47c-.12-.07.57-.48.88-.59.61.9.44,2.84-.81,3.45Z"/>
      <path class="cls-1" d="M19.19,12.23c2.57.1,4.98-1.46,5.95-4.01-2.42-.4-4.47-.58-6.76-.6-.55,1.58-.36,3.56.82,4.61Z"/>
      <path class="cls-1" d="M7.83,20.44c-2.74,4.7-.06,10.76.95,10.14l.75-.47c-3.8-2.08-1.73-10.63.24-9.79,2.34,1,1.95,4.86,1.96,7.19,2.36-2.04.45-8.74-2.07-8.31-.51.09-1.55.75-1.84,1.24Z"/>
      <path class="cls-1" d="M32.72,2.04c7.07.89,11.6,5.08,14.32,11.51,1.47-4.82-9.99-14.27-14.32-11.51Z"/>
      <path class="cls-1" d="M40.14,23.78c-.31-2.2-.73-3.58-1.38-5.48-.8.35-1.66.87-2.1,1.38-.92,1.04-.01,4.5,1.09,4.9.58.21,2.48-.16,2.39-.8Z"/>
      <path class="cls-1" d="M36.74,35.19c-.67.87-.62,2.1-.59,3.2l2.68,1.01.93-4.99c-.88.02-2.51.11-3.03.78Z"/>
      <path class="cls-1" d="M47.99,21.31c-.45,3.59-1.19,6.96-1.83,10.4,2.55-3.54,2.53-7.54,2.67-11.47-.31.13-.79.71-.84,1.08Z"/>
      <path class="cls-1" d="M43.42,39.03c-1.44.65-2.19,1.91-3.3,3.04-1.83,1.86-4.42,2.78-6.46,3.94,4.6-.54,7.78-3.44,9.76-6.98Z"/>
      <path class="cls-1" d="M13.41,8.9l8.15-6.15c-3.28.69-6.29,3.13-8.15,6.15Z"/>
    </g>
  </g>
</svg>