<?xml version="1.0" encoding="UTF-8"?>
<svg id="Warstwa_2" data-name="Warstwa 2" xmlns="http://www.w3.org/2000/svg" viewBox="0 0 57.89 58.38">
  <defs>
    <style>
      .cls-1 {
        fill: #fff;
      }
    </style>
  </defs>
  <g id="icon-v9-equipment-pixarts-store">
    <g id="icon-v9-equipment-pixarts-store_86">
      <path class="cls-1" d="M51.04,6.58l.67-4.01-4.47,1.78c-1.39.55-2.41,1.38-3.56,2.46l.22-1.34-2.2-.12c2.5-1.17,5.38-1.27,8.15-3.52l-6.57-.05,1.32-1.45c-2.28-.11-4.22.84-6.36,2.19l.15-1.75-3.85,2.97-.32,2.45-.82-1.1c-1.05,1.59-1.85,2.63-3.25,4.16.65.97,1.51,2.02,2.59,3.13l.79-2.45c.23.56.31,1.93-.1,2.36l-3.03,3.09c-.21.21.08,1.4.1,1.33l3.33-.33,1.19-.12c.2-.02.47.86.46,1.06l-3.33,2.32c.93.97,2.17,1.6,3.42,1.54,2.55-.12,3.6-4.19,6.06-2.98.78.38,1.41,1.52,1.42,2.63l-1.18-.89c.03,3.1-.9,6.35-2.76,9.2-1.74.14-3.56-.21-5.28-.49.9,1.56,3.96,2.59,5.72,1.8,1.83-.82,2.49-6.45,4.77-7.99.99-.16,1.91-.4,2.46-1.17l1.8.67.02-3.34,1.53.68-.6-3.28.86-.09-1.26-1.98,1.66.14-2.84-3.35c1.42-.91,2.81-2.44,3.1-4.2ZM38.16,14.18c-1.23-.26-2.16-.67-3.27-1.6l1.03-2.41c-.1.7-.24,1.48-.22,1.96.02.54,1.62.77,2,.41,2.57-2.51,3.03-1.19,5.99-2.48-3.11,3.1-2.09,4.84-5.53,4.12ZM43.26,17.43l-1.12-.34c1.46-.82,2.06-2.14,2.55-3.69,1.61,1.26-1.23,4.09-1.43,4.03ZM47.94,9.54c-.27.1-1.35-.04-1.28-.25l.35-1.01-1.48-.41,5.26-4.2-.98,2.08c.03,1.47-.57,3.3-1.86,3.79Z"/>
      <path class="cls-1" d="M13.23,9.29l-.31,4.62,1.09-.9c.28,1.95.63,3.78,1.13,5.4l1.7-2.05c1.01,1.43,1.6,2.23,2.32,2.83l1.53-2.05c.08-.11.23-.66.28-.79.05-.12.24-.2.27-.08l.29,1.12,1.58-2.06,1.75,2.32,1.06-1.96,1.43.64c-.9-2.4.38-3.24.72-4.87l.91-4.37c.16-.75-.1-2.31-.1-3.32l-3.88.93c-.34-.31-.92-.94-1.29-.8l-1.47.55-.65.24c-.08.03-.04-.07-.03-.15.18-1.92-3.37-.15-4.35-.09.72-.72,2.12-1.42,3.32-1.36,1.26.07,2.16-.47,3.24-.73,1.38-.33,3.78.53,5.04,0l1.31-2.38-2.99.8c-.68.18-2.11-.44-2.89-.73-2.26,2.23-5.1-.13-4.99.72l.12.94-4.01-.07.77.87-3.02,2.22c.66.3,1.24.44,1.09.63-2.31,2.85-.88,2.86-.95,3.91Z"/>
      <path class="cls-1" d="M33.9,50.17c.42-2.37,3.4-4.33,3.88-3.31.42.91-1.68.23-2.41,2.36.89,0,1.83.06,2.17.56.91,1.34.86,2.35.75,3.93,1.2-.39,1.8-1.27,2.28-2.44l.77,1.05,1.45-2.13c.51-.24,1.71-.94,1.74-1.56.07-1.51-.49-3.27-1.29-4.16-1.68.39-1.99-1.55-2.71-1.12l-1.11.67-2.14-3.06-2.44.94.17-2.28-3.88,1.25-5.77,2.88c-1.1.55-2.71.76-3.07,1.7.75.4,1.46.95,1.99,1.64.63-1.94,2.56-3.47,4.51-2.66-1.46.6-2.51,1.06-3.41,2.25,1.97.08,2.39,1.25,3.03,2.99.49-2.46,2.04-4.48,4.43-4.15-1.28.9-2.45,1.74-2.87,2.58,1.03-.01,2.25.27,2.41.92l.82,3.31c.29-.61.56-1.32.71-2.16Z"/>
      <path class="cls-1" d="M29.6,40l3.02-1.48c.03.36.08.84.21.8l2.85-.99.39,1.98,1.71-.47,1.82,2.69.89-1.36c.23-.36,1.34,1.77,1.71,1.48l.81-.65c1.88,2.13,2.9,5.1,2.26,8.01l-3.51,2.86c-1.53,1.25-3.73,1.91-5.43,3.15,6.38.83,8.99-6.02,12.91-7.12,1.62-.46,2.95-.56,4.15-1.83,1.06-1.12,1.64-2.58,1.15-3.9-.46.7-1.06,1.69-1.57,2.04l-4.43,3.04.86-5.55-1.25.26,1.99-2.57-1.35-2.11-.98,1.51c-.43.66-1.76-1.96-2.14-1.43l-.9,1.24-1.8-2.68-.67.58c-.14.12-2.35-3.6-5.23-2.98-2.9.63-6.32,2.15-7.48,5.48Z"/>
      <path class="cls-1" d="M14.64,41.46c-1.27.34-2.33.96-2.62,1.81.63.17,1.68.29,1.76.5l1.24,3.18,1.87-1.11c4.46-.55,2.69-1.74,6.79-3.8l-.18-2-1.45.75c-.81-1.66-1.54-3.92-3.3-4.11l-2.13-.23c-.16-.02-.59.13-.74.18-.15.05-.17-.83-.31-.89-1.05-.44-3.21-.1-4.4.67-4.02,2.63-5.5.75-7.91,2.99l.95,1.64c1.03-1.57,2.51-2.4,4.23-2.05l-2.89,1.5c.67.66,1.03,1.22,1.55,2.28.89-1.8,2.6-3.36,4.82-2.66l-3.11,1.56c.9.94,1.27,1.53,1.84,2.71.53-1.92,2.11-3.62,3.99-2.91Z"/>
      <path class="cls-1" d="M54.6,4.35c.22-.59-.14-1.04-.57-1-2.53.21-.33,4.02-4.64,8.1,2.72,1.49,3.22,4.39,1.84,6.64l-.21,3.2-1.27-.53-.76,2.86-1.19-.48c-.19-.08-.58.38-.78.46l-2.71,1.07c.49.5,1.15.85,1.53.73.31-.1.89-.89,1.22-.88l4.82.02,2.17-1.23.37-2.48,1.5,2.69c.77-2.84.3-5.32-.51-8.11l2.34,1.81c.29-3.26-.7-5.83-2.22-8.44l2.37.19-3.29-4.6Z"/>
      <path class="cls-1" d="M35.75,31.65c-.71-.22-1.66-.37-1.97,0-.32.38-.83,1.88-.36,1.77l1-.25c.11-.03.09.4.05.51l-.3.76c3.03-.75,1.69-1.44,5.32-.62.98.22,1.57.5,2.41,1.39l.13-1.22c1.02,1.19,1.8,2.28,2.7,3.67l.87-1.64,1.74,2.16.86-1.9,2.3,2.51.83-1.8.81.79c.12.11.25-.24.27-.4l.17-.95,2.76,1.91-.83-2.3c.11-.12.65-.4.58-.57l-.37-.86c-.08-.19-.25-.69-.08-.74l.68-.21c-.05-.77-1.16-2.43-2.08-2.4-5.55,2.68-6.3.3-9.65-.75-3.91-1.22-1.41,3.1-7.82,1.15Z"/>
      <path class="cls-1" d="M11.43,34.97c1.73-.7,2.9-.96,4.54-.97l1.97,1.49c.44-.19,1.12-.51,1.4-.25.33.3.94,1.06,1.26,1.3.96.69,1.58,1.29,1.95,2.95l1.05-1.19,1.23,3.48c.85.14,2.14-1.16,2.6-2.07l1.63-3.22-1.32-2.51c-.05.95-.25,1.83-.49.96l-1.03-.85c-.35-.29-1.05,1.42-1.29,1.11-.9-1.15-1.46-3.76-3.18-4.01-3.24-.47-1.65-2.06-7.57.97-1.38.7-2.44,1.41-2.75,2.82Z"/>
      <path class="cls-1" d="M14.98,30.28l2.42-1.42c.23.43.46,1.03.68.93l.87-.41c.26-.12,1.07-.43,1.25-.21l.75.88c.74-.3,2.14-.02,2.61.78l1.5,2.52.78-1.23c.69.43,1.39.76,1.82,1.08l2.4,1.79,1.58-4.01c.62-1.59-1.3-1.84-2.31-2.17l-7.36-2.39c-.37-.12-7.09-.18-6.99,3.87Z"/>
      <path class="cls-1" d="M18.16,23.75l-.29,2.32c4.22-.73,7.2-1.58,10.59-3.1l-1.03-2.25c-3.22,1.45-5.89,2.31-9.27,3.03Z"/>
      <path class="cls-1" d="M53.53,38.49c-2.4.88-3.06,2.98-3.27,5.3l-.21,2.36c3.87-2.25,4.95-4.18,3.48-7.66Z"/>
      <path class="cls-1" d="M26.07,18.01c-.31.51-1.07,1.54-1.34,1.23l-1.73-1.95c-.6,2.11-4.06,2.08-3.34,3.62,1.14,2.46,5.21.18,7.07-1.16.39-.28-.4-2.15-.65-1.74Z"/>
      <path class="cls-1" d="M30.75,49.03c-2.38,2.13-3.2,5.28-2.36,8.28.91-1.65,1.88-2.9,3.23-4.4.99-1.11.37-3.39-.87-3.88Z"/>
      <path class="cls-1" d="M23.95,56.16c1.68-4.7,4.91-4.18,2.42-8.44-2.94,1.69-3.47,5.62-2.42,8.44Z"/>
      <path class="cls-1" d="M9.33,46.37c.88-.74.47-3.34-.66-3.33-2.73,1.14-3.49,4.63-3.07,7.16,1.21-1.51,2.31-2.64,3.72-3.83Z"/>
      <path class="cls-1" d="M37.37,51.76c-.14-.66-.76-1.55-1.44-1.55-2.13,2.11-2.38,5.26-1.96,8.17,1.41-3.36,3.87-4.5,3.41-6.62Z"/>
      <path class="cls-1" d="M51.5,31.26c.5-2.14.69-3.53.77-5.63l-5.05-.35-.63,5.91c1.8.21,3.31.26,4.91.07ZM48.03,25.99l3.54.5-.59,4.17c-1.04.05-2.07.01-3.54-.06l.58-4.6Z"/>
      <path class="cls-1" d="M22.77,46.46c-2.74,1.48-3.5,4.76-2.68,7.46,1.55-3.2,4.3-3.62,2.68-7.46Z"/>
      <path class="cls-1" d="M5.69,41.7c-2.86.89-3.79,3.97-3.46,6.52l3.32-3.39c.68-.69.67-2.28.14-3.13Z"/>
      <path class="cls-1" d="M13.66,47.01c.68-.68-.18-3.13-1.05-2.67-2.38,1.25-2.47,4.46-2.19,6.69,1.11-1.59,1.96-2.74,3.24-4.01Z"/>
      <path class="cls-1" d="M23.22,25.74c2.22,1.16,4.62,1.87,7.45,2.33.87-2.45-5.78-3.92-7.45-2.33Z"/>
      <path class="cls-1" d="M43.7,26.13l-1.11,3.18,3.18.83.4-3.41c-.28-.45-1.87-.71-2.48-.6Z"/>
      <path class="cls-1" d="M3.16,42.5c.25-.32.14-1.55-.13-1.88-2.23.92-3.31,3.49-2.97,5.81l3.1-3.93Z"/>
      <path class="cls-1" d="M20.05,46.26c-1.64.32-3.13,1.23-4.65,1.71-1.03.32-2.27.25-2.38,1.52,2.67-.27,5.57-.66,7.03-3.23Z"/>
      <path class="cls-1" d="M30.96,1.8c-.38,1.71-.35,3.4.42,4.76l2.34-2.68-2.76-2.09Z"/>
      <path class="cls-1" d="M54.96,27.87c.03-.41-.45-1.17-.83-1.2-.3-.03-1.15.3-1.2.61-.1.67-.19,2.16-.24,2.92,1.53.13,2.19-.97,2.27-2.33Z"/>
      <path class="cls-1" d="M30.09,20.43c.28.17,1.55.25,1.54-.06-.01-.31-.21-.96-.43-1.21l-2-2.23c-.33,1.14.04,2.98.9,3.5Z"/>
      <path class="cls-1" d="M35.87,22.1c.35,1.19.73,2.04,1.65,2.9l-.04-3.57-1.62.67Z"/>
      <path class="cls-1" d="M31.18,13.3c0-.37-.42-1-.91-1.75-.88.98-1.26,2.38-.78,3.49,1-.78,1.68-1.3,1.69-1.73Z"/>
      <path class="cls-1" d="M18.48,23.03c.47-.12,1.13-.33,1.87-.58l-2.78-1.24c.05.67.46,1.93.91,1.82Z"/>
      <polygon class="cls-1" points="31.71 24.55 31.96 21.48 30.25 21.77 31.71 24.55"/>
      <path class="cls-1" d="M28.73,23.79c-.42-.04-1.17.31-1.92.66l2.84.96c-.12-.55-.5-1.58-.92-1.62Z"/>
      <path class="cls-1" d="M31.12,55.72c.8.14,1.5.29,1.5.04l.04-1.38c-.06.02-.84.2-1.15.27-.28.07-.63,1.01-.39,1.06Z"/>
      <path class="cls-1" d="M38.59,28.28c1.09-.54-.01-2.34-.71-1.89-.5.32.22,2.13.71,1.89Z"/>
      <path class="cls-1" d="M34.67,22.86c.19.08.27-.88.06-.94-.52-.14-1.59-.27-2.32-.36.49.57.81.7,1.38.94l.88.36Z"/>
      <path class="cls-1" d="M32.37,18.27l1.05-.85-2.53-.04c.48.59,1.2,1.12,1.48.89Z"/>
      <path class="cls-1" d="M40,11.89l-.72.34c-.2.1-.53.55-.63.74-.07.14.31.45.47.41l1-.24c.23-.06.68-.8.5-.94-.15-.12-.47-.38-.61-.32Z"/>
      <rect class="cls-1" x="48" y="27.48" width="3.01" height="2.06" transform="translate(14.41 73.58) rotate(-82.03)"/>
    </g>
  </g>
</svg>