<?xml version="1.0" encoding="UTF-8"?>
<svg id="Warstwa_2" data-name="Warstwa 2" xmlns="http://www.w3.org/2000/svg" viewBox="0 0 46.9 54.57">
  <defs>
    <style>
      .cls-1 {
        fill: #fff;
      }
    </style>
  </defs>
  <g id="icon-v9-equipment-pixarts-store">
    <g id="icon-v9-equipment-pixarts-store_205">
      <path class="cls-1" d="M18.07,41.31l-2.89,2.82,4.97,4.11c4.6-4.13,14.4-10.75,11.68-17.83-4.5,3.34-2.01,2.1-3.74,5.48-.4-2.71-1.08-4.62-3.58-5.87l1.91-.28,2.56-2.25c-3.47-2.21-7.17,1.85-8.86,4.62-2.23-3.12-4.92-6.67-9.19-4.72-1.92.88-3.21,3.08-3.07,5.53.18,3.31,2.05,6.25,4.47,8.31l3.28-2.97-.74-1.86c2.84.8,5.08,3.09,4.51,6.2l-1.29-1.29Z"/>
      <path class="cls-1" d="M9.49,43.7c.77-.63,1.3-1.14,1.8-1.75-4.28-3.8-6.78-11.44-2-14.9,4.07-2.95,7.9-.81,10.75,3.08,2.7-3.21,5.68-5.83,9.87-3.58l2.94-2.66c-5.04-2.97-9.67-.99-12.82,2.92-1.81-2.44-4.36-4.12-7.01-4.3-2.99-.21-5.82.79-7.69,3.1-4.59,5.66-.63,13.74,4.17,18.1Z"/>
      <path class="cls-1" d="M32.75,29.45c3.45,8.39-7.02,15.41-12.6,20.27l-5.81-4.81c-.68.6-1.26,1.18-1.75,1.79,2.76,2.47,4.82,4.15,7.64,5.95,6.83-5.37,21.01-15.57,15.34-25.72l-2.81,2.51Z"/>
      <path class="cls-1" d="M17.54,40.43c.34-.32-.92-1.62-1.3-1.28l-10.21,9.21-1.28-3.29-3.98,9.49,9.45-3.14-3-1.48,10.32-9.52Z"/>
      <path class="cls-1" d="M21.34,21.73c.74-3.01,1.31-6.01,1.39-9.08-1.94-.66-3.44-.69-5.34-.11.06,3.25.66,6.26,1.48,9.32.67.36,1.91.32,2.47-.13Z"/>
      <rect class="cls-1" x="25.07" y="23.6" width="20.05" height="1.91" transform="translate(-7.35 30.36) rotate(-42.77)"/>
      <polygon class="cls-1" points="35.24 21.94 41.13 16.67 40.96 13.14 35.23 18.36 35.24 21.94"/>
      <path class="cls-1" d="M43.11,19.38l-5.27,5.07c2.99.32,3.19.79,4.73-.95l-2.1-1.16,3.57-.28,2.86-2.59c-1.01-.26-2.97-.55-3.8-.08Z"/>
      <path class="cls-1" d="M35.3,5.04c-.12-.26-.96-.34-1.18-.1l-3.27,3.6-.95-.81c-1.06-.9-7.46,5.17-5.27,4.7.18-.04.8-.15,1.01-.3l4.47-3.2-.55,1.49c-.1.27.76.98,1.01.77,1.15-.97,5.27-4.98,4.73-6.15Z"/>
      <path class="cls-1" d="M9.44,11.05c.24.2,1.32-.16,1.23-.4-.07-.18-.21-.82-.36-.98l-4.06-4.39c-.32-.35-.94-.58-1.2-.39-1.41.98,3.41,5.34,4.39,6.16Z"/>
      <path class="cls-1" d="M39.3.81c-1.38,2.73-2.72,4.77-4.7,6.93,1.85,2.38,7.49-6.52,4.7-6.93Z"/>
      <path class="cls-1" d="M7.94,12.83l3.4,2.8c.79.65,2.32.41,2.79-.29-2.46-1.4-4.42-3.03-6.63-5.06-.47.67-.24,1.98.44,2.55Z"/>
      <path class="cls-1" d="M5.39,7.77C3.53,5.57,2.09,3.46.86.88c-3.03-.14,2.73,9.18,4.53,6.88Z"/>
      <path class="cls-1" d="M32.64,10.06c-2.08,2.19-3.99,3.81-6.54,5.24.79,2.8,8.68-3.57,6.54-5.24Z"/>
      <path class="cls-1" d="M36.39.27c-1.01-.47-1.96-.13-2.45.68l-1.68,2.76c-.42.69-.53,1.9.29,2.31l3.84-5.75Z"/>
      <path class="cls-1" d="M14.82,10.55l-3.2-2.45c-.41-.31-1.41-.28-2.06.04,1.87,1.94,3.69,3.26,6.02,4.68.34-.89-.07-1.75-.76-2.28Z"/>
      <path class="cls-1" d="M8.18,4.27L5.7.44c-.32-.49-1.6-.53-1.8.13l3.71,5.42c.43-.12.84-1.29.57-1.71Z"/>
      <path class="cls-1" d="M14.39,12.78c-.38-.11-1.17-.2-1.49-.16-.26.04-.37.78-.25,1.02.12.23.46.5.75.64l3.04,1.42c.5-1.92-.74-2.53-2.05-2.91Z"/>
      <path class="cls-1" d="M27.4,12.81c-.18-.19-.92-.37-1.19-.25l-2.3,1.08c-.4.19-.25,1.52-.12,1.94l3.23-1.49c.33-.15.6-1.04.38-1.28Z"/>
      <path class="cls-1" d="M3.15,2.44c1.04-.28.62-1.8.17-2.15C2.88-.04,1.51-.01,1.31.36c.34.92,1.16,2.27,1.84,2.08Z"/>
      <path class="cls-1" d="M37.2,2.41c.65-.06,1.49-1.48,1.56-2.12-.67-.54-1.81-.28-2.2.43-.26.48-.34,1.78.64,1.69Z"/>
      <path class="cls-1" d="M17.26,19.96l-1.71,2.11,2.2.89c-.08-1.64-.1-1.74-.49-3Z"/>
      <path class="cls-1" d="M22.81,19.98c-.3,1.31-.33,1.63-.38,3.09l2.29-.95-1.9-2.14Z"/>
    </g>
  </g>
</svg>