<?xml version="1.0" encoding="UTF-8"?>
<svg id="Warstwa_2" data-name="Warstwa 2" xmlns="http://www.w3.org/2000/svg" viewBox="0 0 59.28 40.98">
  <defs>
    <style>
      .cls-1 {
        fill: #fff;
      }
    </style>
  </defs>
  <g id="icon-v9-equipment-pixarts-store">
    <g id="icon-v9-equipment-pixarts-store_138">
      <path class="cls-1" d="M6.53,21.52c-1.27,2.59-.09,6.17,2.68,6.58.98.14,1.86.18,2.54.6l-1.6.07-3.46,6.75,6.27-5.17,4.57.92.65,3.43,1.66-3.65c4.27-.64,8.2-1.91,11.99-3.95l5.51-2.96,2.35,1.83-.81-2.6c2.38-1.05,5.15-2.03,7.79-2.39,1.21-.16,2.82-.33,2.5-2.04-5.97-1.07-4.45,2.83-7.82,1.25l2.75-.31-.59-7.6-2.19,7.62-3.95,1.7c-.97.42-2.01.29-3.31.07l.93,1.31c-3.42,1.79-6.69,3.55-10.44,4.69-5.6,1.71-11.97,1.11-16.38-2.76-.29-1.24-.77-2.65-1.66-3.38Z"/>
      <path class="cls-1" d="M44.02,9.84l.66-7.54-3.88,7.43c-1.15-.45-2.28-.33-3.32-.42l-2.11-1.84.58,2.31-6.4,2.17c-3.22,1.09-6.86,1.89-10.19,2.23-.32.03-.91.44-1.08.64-.17.2.13,1.02.39,1.02l3.75-.03,1.57,2.07.05-2.3,11.01-3.41c1.7-.53,3.5-.52,5.15-.64l2.75-.2.72-1.19.94,2.03c2.88.82,4.42,2.94,5.38,5.73.67-1.47.2-2.62-.04-4.43,4.53,3.83-2.03,8.01-1.29,8.92l.96,1.16c2.05-2.32,5.48-5.84,3.54-8.94l3.9-6.29c-1.08.48-5.94,4.5-5.86,4.86l.19.88c-.48-1.08-5.48-3.56-7.38-4.21Z"/>
      <path class="cls-1" d="M52.66,21.54l-1.71,3.58c-4.51,3.47-10.44,4.34-15.87,2.56-1.41-.46-2.81-.09-3.62,1.14,2.73,1.02,5.2,1.68,7.89,2.31l1.63,3.54.73-3.58,4.56-.74,6.07,4.74-3.6-7.21,1.33.61c2.61-1.13,4.27-4.23,2.6-6.96Z"/>
      <path class="cls-1" d="M10.22,20.38c.16.21.85.61,1.11.62,3.1.09,6.37,1.04,9.07,2.34l-.36,1.97c3.43-3.2,4.15,3.14,8.46-.34l-10.47-5.19-2.4-7.21c-.3,2.83-.33,5.15-.34,7.72-.7-1.87-3.5-1.6-4.77-1.17-.33.11-.5,1.01-.3,1.27Z"/>
      <path class="cls-1" d="M8.23,13.01L1.94,8.05l3.99,6.41c-1.74,3.78,1.82,6.96,4.22,9.57.67.73,1.53,1.56,2.34,1.8.55-1.68-1.16-2.14-1.76-3.09l-2.17-3.47c-.6-.96-1.24-2.26-.88-3.4.23-.73,1.16-1.76,1.79-2.24-.41,2.1-1.35,3.68.28,5.14.47-7.12,4.85-4.66,4.78-7.7-3.18-.31-5.26,1.91-7.75,3.87.07-.67.6-1.15,1.44-1.93Z"/>
      <path class="cls-1" d="M27.89,33.75c.46,2.33,1.02,4.82,1.71,7.24l1.96-7.8,4.84-1.42c-4.18-2.41-3.35-.03-8.72-.83-1.64-.24-3.08-.18-4.47.77,1.47.59,2.88,1.05,4.05,1.17l1.86-.88c-.35.24-1.35,1.18-1.24,1.75Z"/>
      <path class="cls-1" d="M23.42,6.49l-1.38,2.63c-2.1.59-3.82,1.76-5.28,3.28l.43,1.83,2.33-1.85c2.46-1.95,5.18-1.93,7.99-.87,1.03-.19,2.61-.81,3.52-1.23l-7.15-1.57-.44-2.22Z"/>
      <path class="cls-1" d="M28.87,9.09l.97-.16c.57.27,1.22.45,1.66.39L29.49,0l-1.66,8.09c-.07.36.76,1.04,1.04,1Z"/>
      <path class="cls-1" d="M18.54,9.76l-4.03-7.56.75,7.95c1.28-.01,2.13-.09,3.28-.39Z"/>
      <path class="cls-1" d="M41.11,15.87l.27-1.21-5.39-1.4c-.68-.18-2.06.38-2.71.72l2.86,1.12c-.41.9-.56,1.66-.57,2.81l1.43-1.68-.81-1.07,3.44.85c.33.08,1.41.17,1.48-.13Z"/>
      <path class="cls-1" d="M20.92,27.43l-2.66-2.66c-.85-.85-1.76-1.57-2.95-1.82,1.4,2.84,2.58,5.51,5.62,4.48Z"/>
      <path class="cls-1" d="M29.48,18.89l-1.16,4.71,1.1.85c2.02,1.55.6-4.97.05-5.55Z"/>
      <polygon class="cls-1" points="4.97 23.61 5.36 21.03 0 22.26 4.97 23.61"/>
      <polygon class="cls-1" points="54.15 23.49 59.28 22.29 54.04 21.06 54.15 23.49"/>
      <path class="cls-1" d="M43.73,23.28l-4.88,4.18c2.32,1.22,4.01-1.9,4.88-4.18Z"/>
      <path class="cls-1" d="M47.99,15.82c-.83-.97-2.03-1.55-2.84-1.43-.24.15-.21,1.48.12,1.5.73.04,2.08-.01,2.72-.07Z"/>
      <polygon class="cls-1" points="46.21 26.19 49.23 24.1 47.48 23.16 46.21 26.19"/>
      <path class="cls-1" d="M14,14.2l-2.32,1.18,1.49.84c.26.15-.04.83-.04,1.14.85-1.05,1.3-1.99.87-3.16Z"/>
    </g>
  </g>
</svg>