<?xml version="1.0" encoding="UTF-8"?>
<svg id="Warstwa_2" data-name="Warstwa 2" xmlns="http://www.w3.org/2000/svg" viewBox="0 0 38.23 56.26">
  <defs>
    <style>
      .cls-1 {
        fill: #fff;
      }
    </style>
  </defs>
  <g id="icon-v9-equipment-pixarts-store">
    <g id="icon-v9-equipment-pixarts-store_213">
      <path class="cls-1" d="M38.23,33.94c-.73-1.17-1.59-2.22-2.59-3.16l-2.45.86c-1.37-7.28-4.39-12.94-12.06-15.05l1.52-2.75-2.46-1.84c-.28-.21-.95-.76-1.21-.58l-.91.65c-.82.59-1.78,1.21-2.63,1.72l1.69,2.9c-7.66,1.72-10.69,7.82-12.01,14.85l-2.75-.72-2.37,2.93,2.28,3.02,2.92-.77c.76,6.8,4.91,13.64,11.98,14.85l-1.58,2.83,3.12,2.45c.28.77,3.97-2.39,3.91-2.52-.69-1.03-1.17-1.88-1.49-2.76,7.26-1.62,11.08-7.83,11.96-14.94.85.36,2.23,1.01,2.79.59.83-.62,1.64-1.64,2.35-2.58ZM3.34,35.18c-.53-.02-1.55-.53-1.65-1.25-.08-.54.87-1.37,1.4-1.44.69-.09,2.04.36,2.03,1.35-.02.96-1.15,1.36-1.78,1.34ZM17.7,14.62c.05-.58.72-1.62,1.42-1.63.76,0,1.59,1.02,1.57,1.62-.02.73-.64,1.98-1.74,1.89-.85-.07-1.3-1.25-1.25-1.88ZM18.89,54.56c-.6-.08-1.21-1.17-1.17-1.69.06-.66.61-1.77,1.39-1.83.97-.08,1.53,1.1,1.56,1.85.03.67-.87,1.79-1.78,1.67ZM26.76,45.69c-4.43,4.91-11.35,4.57-15.5-.23-4.98-5.77-5.61-14.38-1.72-20.93,2.01-3.39,5.12-5.68,9.02-6,3.25-.27,6.26,1.15,8.44,3.71,5.61,6.58,5.68,16.88-.24,23.45ZM35.1,35.19c-.75.1-2.04-.46-2-1.52.02-.56,1.03-1.18,1.54-1.25.49-.06,1.49.52,1.9,1.24.3.53-.85,1.45-1.43,1.53Z"/>
      <path class="cls-1" d="M6.65,46.33l-.19,1.09c-.08.45.13,1.63.52,1.86,1.49.91,1.99-1.17,3.71,1.94.47.85,1.53,1.68,2.32,1.79.9.12,2.57-.12,2.52-1.49-.04-.55-1.53-.25-2.21.07-1.66.81-1.39-4.1-5.52-3.7,1.34-4.67-2.74-1.82-2.72-5.55,0-1.56.43-4.56-1.03-5.11-.32-.12-1.05.09-1.41.25-.27.12-.13,1,.13,1.07l1.1.26-.3,3.19c-.34,3.69,3.17,3.71,3.07,4.32Z"/>
      <path class="cls-1" d="M13.35,15.99c.75.25,1.88.59,2.32.05-.29-1.23-1.78-1.67-2.89-1.48-.81.14-1.96,1.24-2.28,2.03-.73,1.78-1.66,1.58-3.25,1.72-1.11.1-1.01,2.18-.42,3.09-2.52.7-3.63,2.41-3.18,4.96.14.78.14,2.07.07,2.63l-1.13.04c-.24,0-.07,1.11.16,1.17.4.09,1.26.11,1.61-.05.35-.16.76-1.05.76-1.46l-.04-4.08c-.02-1.82,2.76-1.48,2.99-2.88.09-.57-.05-1.29-.2-2.09,3.76.68,3.78-4.21,5.5-3.65Z"/>
      <path class="cls-1" d="M35.61,37.39c-.39-.17-1.26-.16-1.62.04s-.85,1.13-.85,1.56l.06,3.75c.04,2.41-3.18,1.81-3.03,3.2l.21,2.03c-3.83-.53-3.54,3.46-5.18,3.68-.84.11-2.15-1.07-2.57-.09-.1.23.42.79.75,1.03,1.59,1.14,3.63-.02,4.32-1.61.6-1.4,1.67-1.63,3-1.49.5.05,1.24-.89,1.15-1.35l-.43-1.98c2.05-.48,3.46-1.95,3.25-4.16l-.3-3.17,1.29-.38c.2-.06.13-1-.06-1.08Z"/>
      <path class="cls-1" d="M31.6,21.52l.14-2.44c.1-1.73-2.95.14-3.9-2.31-.8-2.07-3.3-2.63-4.82-1.57-.23.16-.55.85-.33.95,1.48.72,1.57-.46,2.79,0,1.46.55,1.2,3.75,4.96,3.55-.59,1.4-.3,2.88,1.19,3.25.98.25,1.54,1.04,1.55,2.08l.03,3.99c0,.63,1.07,1.41,1.64,1.24.44-.14.77-.26.98-.34.21-.09-.08-.94-.3-.94h-1.11s.23-3.29.23-3.29c.15-2.09-.84-3.7-3.03-4.15Z"/>
      <path class="cls-1" d="M19.23,9.93l1.45.78.41-4.81c-1.5-.25-2.72-.26-3.99.14l.62,4.48c.62-.25,1.24-.74,1.51-.6Z"/>
      <path class="cls-1" d="M10.35,5.02c.15.15,1.03-.24.92-.43-.07-.12-.3-.71-.4-.82L7.69.36s-4.05-1.75,2.66,4.66Z"/>
      <path class="cls-1" d="M31.57.17c-.19-.05-.85.01-.99.17l-3.2,3.47c-.18.19-.19,1.08.04,1.11.23.04.89-.1,1.06-.29l3.12-3.53c.14-.15.16-.89-.03-.94Z"/>
      <path class="cls-1" d="M15.93,7.01l-2.86-1.02.2,1.87c-1.42-.84-2.77-1.94-4.06-3.19-2.91-.23,2.93,4.53,3.78,4.32.45-.01,1.29-.96,1.69-.82l1.87.65c.25-.3-.12-1.62-.61-1.8Z"/>
      <path class="cls-1" d="M21.66,8.83l3.07-1.19c-.08.59-.29,1.08-.04,1.15,1.8.51,6.03-3.08,4.89-4.47l-4.72,3.79.32-1.91c-1.84.05-3.65.74-3.53,2.63Z"/>
      <path class="cls-1" d="M11.59,2.23c-.16-.09-.87.03-1.05.03-.18,0,.2.79.35.9l3.62,2.79c1.2.93,2-1.07-2.92-3.73Z"/>
      <path class="cls-1" d="M26.52,2.29l-3.15,2.37c-.46.35-.59,1.23-.17,1.58l4.13-2.99.32-.83c.08-.19-.95-.26-1.12-.13Z"/>
      <path class="cls-1" d="M31.42,2.55c-.08.24,1.15.23,1.33,0l1.87-2.27c-1.57-1.14-3.01,1.62-3.21,2.27Z"/>
      <path class="cls-1" d="M3.87.27c.72,1.3,1.45,2.75,3.17,2.2L5.5.45c-.3-.39-1.52-.54-1.64-.19Z"/>
      <path class="cls-1" d="M23.69,20.93l-15.54,12.82c.16,3.12.77,6.04,2.32,8.57l18.2-15.25c-1.28-2.81-2.65-4.64-4.98-6.14Z"/>
      <path class="cls-1" d="M14.06,45.87l15.85-13.11c.05-.93-.12-1.82-.5-2.76l-17.2,14.39c.07.69,1.27,1.96,1.85,1.48Z"/>
    </g>
  </g>
</svg>