<?xml version="1.0" encoding="UTF-8"?>
<svg id="Warstwa_2" data-name="Warstwa 2" xmlns="http://www.w3.org/2000/svg" viewBox="0 0 55.16 51.66">
  <defs>
    <style>
      .cls-1 {
        fill: #fff;
      }
    </style>
  </defs>
  <g id="icon-v9-equipment-pixarts-store">
    <g id="icon-v9-equipment-pixarts-store_269">
      <path class="cls-1" d="M6.44,1.91c-1.95.36-3.81,1.13-5.34,2.08C-.16,4.76.07,6.2.41,7.18-.24,8.3,0,13.78.31,15.68l1.44-4.01c.4-1.1.05-2.75-.53-3.59l.93-.7c.16-.12-.29-.64-.52-.93-.37-.45-.22-1.82.37-2.04l2.12-.78c-.8.56-1.46,1.03-2.17,1.77.84,1.81,4.23-1.31,6.02,2.85l5.61.89,1.56-2.23c.74-1.06,1.13-2.11,2.61-1.92,2.97.37,1.43,3.31,3.31,3.93,2.85-3.85,8.39-3.83,11.53-.76.27.26,1.16.55,1.22.28l.24-.99c.26-1.1.83-2.11,1.73-2.38.92-.27,2.33-.03,2.69.8.31.72,1.01,2.08,1.7,2.05,1.54-.08,3.29-.62,4.73-.47,1.14.12,2.22.54,3.3.17,1.59-.55,2.61-1.01,3.92-2.11-.89-.84-1.58-1.3-2.39-1.75,1.2-.22,3.63.89,2.93,2.25-1.35,2.61-6.79,2.16-5.98,3.52.66,1.12,7.75-1.6,7.43-3.89-.34-2.51-6.32-3.74-8.73-4.14C32.45-.67,19.34-.44,6.44,1.91Z"/>
      <path class="cls-1" d="M29.98,45.88c.35.32,1.4.2,1.72-.02l.74,1.79c4.94,3.31,11.02,4.72,16.98,3.67-4.44-2.97-8.3-5.96-10.54-10.55-7.8-3.65-12.49-8.16-18.4-14.26-.78.8-1.62,1.2-2.53,1.36l-.75.23c-.14.04-.58-.41-.68-.56l-2.89-4.35c-.17-.26-.81-.65-1.02-.51-.21.15-.67.54-.53.75l.5.75c5.53,8.34,9.82,14.85,17.4,21.71ZM25.86,38.15l3.87,3.87-.35.35-3.87-3.87.35-.35Z"/>
      <path class="cls-1" d="M31.8,8.83c-1.74-1.58-4.01-2.17-6.45-1.57-1.68.41-3.63,1.89-4.48,3.92-.76,1.81.09,3.61.27,5.32.08.77-1.04,1.81.09,2.74.5.41,1.35.4,2.48.04.16.66.62,2.13,1.27,2.56.52.34,1.51.53,2.14.43l.89.08,1.65-.64.95-2.4c1.13.44,1.83.41,2.32-.2.57-.7.26-1.42.1-2.25l-.64-3.39.82,1.82c.76-2.06.4-4.81-1.41-6.45ZM24.78,17.81c-.74.24-1.98.18-2.53-.53-.58-.76-.21-2.4.7-2.65.91-.24,2.5.26,3.12,1.23.43.68-.69,1.76-1.29,1.95ZM26.23,19.45c-.28-.86.17-1.57,1.06-2.41l1.05,2.8c-.81.21-1.94.11-2.11-.39ZM31.87,17.34c-.53,1.23-3.55.54-4.03-.94-.38-1.19,2.68-2.45,3.77-1.59.51.4.58,1.81.26,2.53Z"/>
      <path class="cls-1" d="M41.13,11.46l-3.82.34c-1.78.16-3.02,1.24-3,3.09l.03,3.18.04,1.64c.03,1.24,5.25,1.98,6.91.96.22-3.22.28-6.11-.16-9.2Z"/>
      <path class="cls-1" d="M54.08,7.57c-2.46,1.45-4.39,2.14-6.93,2.75l.53,5.26c1.46.07,2.38.23,3.61.62l.85.27c.13.04.02.68.13.77.48.37,1.7-.85,1.7-1.56l.1-8.1Z"/>
      <path class="cls-1" d="M13.47,17.46l2.91-1.02c.68-.24,2.12.44,2.4,1.06.37.83.15,1.84-.27,2.98.2-.09.98-.51,1.34-.73.35-.22-.27-1.47-.21-1.91.13-.87.27-2.1.23-2.94-.08-1.68-1.02-2.86-2.72-2.97-2.68-.17-5.13-.48-8.17-.92l4.48,6.44Z"/>
      <path class="cls-1" d="M3.39,22.03c1.87,2.09,4.77,2.37,7.07.77l5.09-3.54c.36-.25,1.35.35,1.78.44.48.1.74-1.29.56-1.74-.89-2.24-5.77,2.01-6.99,2.96-1.49,1.15-3.24,1.65-4.96.64-3.54-2.08-3.94-6.04-2.36-10.04-3.36,2.6-2.68,7.71-.18,10.52Z"/>
      <path class="cls-1" d="M43.41,16.24l3.28-.8-.5-5.17c-.08-.86-1-1.96-1.67-1.99-.96-.05-2.22.15-2.45,1.27l-.21-.48c-.06-.13-.54-.16-.63-.13,1.5,3.02,1.12,9.83.86,13.31-.04.52-.13,1.15.13,1.36s1.25.24,1.31-.09c1.25-7.59-1.71-.77-.41-10.72l.29,3.45Z"/>
      <path class="cls-1" d="M13.28,41.72c-4.34-7.55.47-14.23-3.7-17.58,2.86,6.15-1.38,9.36.51,16.21l3.19,1.37Z"/>
      <path class="cls-1" d="M28.8,24.1l-.46-.67c-.18.35-.55,1.04-.81,1.02l-.88-.06c-.6-.04-1.76-.31-2.48-.65-.57-.27-.65-1.89-.95-2.77-.86,2.01-.12,3.71,1.3,4.86,1.56,1.26,3.53,1.21,5.03.12,1.64-1.19,2.16-3.05,1.51-5.09-.44,1.31-.76,2.28-1.33,2.91-.32-.5-.5-.79-.54-.86.03.05.14.22.33.52-.09.24-.6.82-.71.65Z"/>
      <path class="cls-1" d="M29.18,22.93s-.01-.02,0,0h0Z"/>
      <path class="cls-1" d="M15.76,22.45c-.11.4-.22,1.11-.23,1.44,0,.33.92.56,1.38.69.29.08.02.91-.06,1.37-.1.55,1.41.99,1.91.72.46-.25.72-1.29.84-2.1l2.39-2.47c.33-.34-.04-1.5-.5-1.66-1.06-.37-2.24,1.98-4.11,1.87-.79-.05-1.52-.2-1.62.16Z"/>
      <path class="cls-1" d="M32.75,20.63c-.29.14-.8.76-.67,1.05.83,1.85,2.57,1.31,2.87,4.07.09.87,1.4,1.19,1.98.73.41-.32.38-1.15.5-1.64.64-.57,1.46-1.3,1.18-1.84-.35-.68-.99-.85-1.88-.79-1.9.13-2.69-2.2-3.98-1.58Z"/>
      <path class="cls-1" d="M38.48,10.5c.5.04,1.12-1.3.8-1.58l-1.22-1.08c-.33-.75-.42-1.71-.99-1.79-2.65-.38-1.1,2.05-3.1,3.76l.4,2c1.45-1.27,2.39-1.43,4.12-1.3Z"/>
      <path class="cls-1" d="M19.62,11.86c1.44-3.24-.1-1.48-.69-4.28-.16-.74-.45-1.36-.86-1.51-.37-.13-1.4.02-1.44.37-.38,3.24-1.84,1.23-1.75,2.95.11,2.07,2.6.29,4.74,2.47Z"/>
      <path class="cls-1" d="M8.79,24.8c2.4,6.25-3.37,6.12-3.09,12.28l1.96.56c-.34-6.14,4.94-8.17,1.12-12.84Z"/>
      <path class="cls-1" d="M3.95,17.25c1.69.64,2.99,1.1,4.81,1.58l-4.19-6.31c-1.09,1.53-1.14,3.05-.62,4.73Z"/>
      <path class="cls-1" d="M5.78,7.14c-.49-.34-1.97-.23-2.27.27-.62,1.04-.44,2.87.05,3.56l3.43-2.13c.03-.29-.66-1.33-1.2-1.7Z"/>
      <path class="cls-1" d="M13.39,10.06l-4.29-.63c-.23-.03-.94.17-.82.33.99,1.34,4.16,1.1,6.07,1.36-.28-.61-.67-1.02-.96-1.06Z"/>
      <path class="cls-1" d="M9.89,19.95c-1.89-.88-3.65-1.39-5.62-1.89,1.3,1.71,3.46,2.33,5.62,1.89Z"/>
      <path class="cls-1" d="M7.33,13.25c-.35.21-.24,1.26.16,1.62.25.22.74-.18,1.12-.39-.22.43-.68,1.04-.5,1.28l.82,1.1c.44.59.27,1.96,1.64.86-.66.78-.39,1.56.51,2.09l1.63-1.6-2.08-2.87-1.45,1.27c.49-.72,1.13-1.41,1.05-1.82-.07-.36-.45-.98-.72-1.31l-.94-1.18c-.19-.24-.9.74-1.24.94Z"/>
      <path class="cls-1" d="M7.56,10.91l-.95.47c-.29.14-.95.81-.77,1.07l.75,1.09,1.46-1.56c.2-.21-.23-1.2-.49-1.08Z"/>
      <path class="cls-1" d="M50.06,24.49c.73.84,1.81,2.34,1.98,3.3.06.33-1.3.74-1.45.44l-.48-.96c-.05,1.23-.09,2.71-.16,3.39-.03.31-.95.76-1.17.55-1.37-1.36.14-4.1-1.25-6.62l-.93.82c-.08.07-.07-.36-.13-.45l-.52-.77-1.54,3.75c-.44-1.38,1.42-3.99.55-4.31-1.49-.56-4.34,5.93-4.69,8.18-.36,2.32.65,3.26,2.33,4.27,4.13,2.5,9.42,2.02,12.17-2.38,1.86-2.98-3.48-10.53-4.71-9.21Z"/>
      <path class="cls-1" d="M46.51,18.98l.59,3.24c1.83-.16,3.15-1.18,3.9-2.51-.08-1.52-2.11-.66-2.96-.88-1.17-.31-2.77-.93-4.15-.91l2.09,4.18.53-3.11Z"/>
      <path class="cls-1" d="M46.46,17.28l1.64.88c.39.21,1.24-.81,1.48-1.07.37.61,1.13,1.45,1.84,1.65l1.94.55-1.6-1.58c-1.03-1.02-2.25-1.22-3.63-1.12l-3.67.25c.61.9,1.58.23,2,.45Z"/>
      <path class="cls-1" d="M50.15,23.19c-1.31.18-2.45.22-3.51-.27l-2.42-1.12c-.92,1.26,5.59,3.42,5.93,1.39Z"/>
      <path class="cls-1" d="M51.2,20.45c-.46.21-1,.99-1.47,1.82l3.81-1.49c-.67-.3-1.78-.59-2.35-.33Z"/>
      <path class="cls-1" d="M13.64,21.8c-.23.36.36,1.21.78,1.77l.79-2.49c.06-.45-1.27.26-1.57.72Z"/>
    </g>
  </g>
</svg>