<?xml version="1.0" encoding="UTF-8"?>
<svg id="Warstwa_2" data-name="Warstwa 2" xmlns="http://www.w3.org/2000/svg" viewBox="0 0 58.28 57.61">
  <defs>
    <style>
      .cls-1 {
        fill: #fff;
      }
    </style>
  </defs>
  <g id="icon-v9-equipment-pixarts-store">
    <g id="icon-v9-equipment-pixarts-store_88">
      <path class="cls-1" d="M11.71,34.92l1.9-2.88c-1.96.5-2.79,2.18-3.37,4.13.65.04.99-.54,1.46-1.25Z"/>
      <path class="cls-1" d="M12.11,8.52l.47-1.41c.12-.37-.96-.46-1.46-.27-.37.15-.32,1.16-.11,1.58.15.3,1,.41,1.1.1Z"/>
      <path class="cls-1" d="M29.08,18.91l-.46,8.56c-.07,1.22.28,2.8.1,3.97-.08.58-1.5.91-1.98.65-.42-.23-1.06-1.16-1.06-1.68l-.11-11.36c-3.23.41-6.15.26-9.46-.29l1.21,7.35c-.51.56-1.17,1.23-1.02,1.54l.7,1.39-1.53,2.54c5.28,1.18,9.48,4.69,11.51,9.68.2-4.28,1.91-7.62,5.25-9.95-.92-.94-1.79-1.97-1.83-3.06l-.35-8.11c.38-.58,1.19-1.56,1.11-2.41-.69-.08-2.01.6-2.09,1.17ZM18.09,28.74c1.62-.17,3.17.71,4.2,2.13-1.49-.59-2.76-1.23-4.2-2.13Z"/>
      <path class="cls-1" d="M.94,45.36c6.97,3.58,15.38,3.18,21.73-1.55-1.87-3.44-4.28-5.67-7.51-7.04-5.12-1.71-2.9,2.01-9.95,2.88-2.76.34-5.13,3.08-4.26,5.71Z"/>
      <path class="cls-1" d="M13.06,3.28c.41,2.32.57,4.79.58,7.15,2,2.8,13.53,2.05,16.38,1l-.72-5.44c-.11-.84,1.25-2.2,1.94-2.52l3.94-1.77C31.66-.4,28.37.13,24.84.03c-3.66-.1-7.19.02-10.64,1.16-.93.31-1.3,1.2-1.14,2.08ZM33.65,1.75c-5.87,2.47-12.96,2.72-19.66.66C20.11.2,26.81.24,33.65,1.75Z"/>
      <path class="cls-1" d="M23.62,43.69l2.81-1.35c-.95-4.52-7.77-10.62-12.11-9.62l-2.02,2.67c4.99,0,9.42,4,11.31,8.29Z"/>
      <path class="cls-1" d="M15.54,17.57c3.46.84,6.78,1.32,10.31.61.08-1.27-.12-3.61,1.86-3.41.94.09,1.3,1.83,1.63,2.77.73-1.15,1.05-2.69.42-3.73-5.23,1.13-9.93,1.26-15.01.11l.8,3.65Z"/>
      <path class="cls-1" d="M.93,48.86l1.36-.23c.26-.04.26,1.21.51,1.3,1.11.42,3.49,1,4.65,1.13l1.08-.83c.77.58,1.67,1.12,2.37,1.19.59.06,1.51-1,2.1-1.02.55-.02,1.88.65,2.29.38.41-.27.96-.77,1.51-1.26l1.49.61.82-3.01c-6.53,2.52-13.11,2.18-18.86-1-.4.92-.39,2.91.69,2.74Z"/>
      <path class="cls-1" d="M14,25.18c.39.15,1.7-.31,1.63-.79l-.79-5.32-2.98.22.82,4.47c.1.55.86,1.24,1.32,1.42Z"/>
      <path class="cls-1" d="M27.06,29.19c1.38-3.57,1.01-7.17,1.13-10.49-.53-.08-1.41-.17-1.47.12-.2,1.08-.56,9.1.34,10.37Z"/>
      <path class="cls-1" d="M32.28,32.33c-2.84,1.75-4.29,4.76-4.44,7.7,2.34-4.07,4.37-3.28,4.44-7.7Z"/>
      <path class="cls-1" d="M11.12,15.12c.69.29,2.44.33,2.59-.27.38-1.57.14-2.62-.61-3.38l-.74-.74c-1.73-1.74.19,2.46-1.24,4.39Z"/>
      <path class="cls-1" d="M29.62,12.73l-5.1.42c-6.53.54-4.21-.63-9.23-.19,1.65,1.3,13.91,1.01,14.33-.24Z"/>
      <path class="cls-1" d="M13.62,16.01l-2.56-.04c.01.89.18,2.18.76,2.44.52.23,1.94.15,2.43-.1.38-.35-.04-2.28-.63-2.29Z"/>
      <path class="cls-1" d="M27.14,18.17l.99-.48c.25-.12-.03-1.15-.31-1.1-.37.07-1.01.33-1.13.59-.12.25.2,1.11.45.99Z"/>
      <path class="cls-1" d="M26.49,30.22c.02.3.48,1.07.8,1.1.77.06,1.05-2,.12-2.06-.34-.02-.95.66-.93.96Z"/>
      <path class="cls-1" d="M11.01,10.3l1.16-.23c.18-.04.71-.89.51-.93-.2-.04-.71-.05-.93.02l-1.12.36c-.24.08.15.82.39.77Z"/>
      <path class="cls-1" d="M54.17,3.3c-6.25-1.44-14.88-1.41-21.04.54-3.21,1.01-.58,5.69-1,10.23,1.63,2.12,12.44,2.6,14.36,1.31.45-.96,1.02-1.98,1.54-2.83.29-.78.34-4.99.14-5.61-.1-.32-.98-.48-1.39-.45-4.31.41-8.81.43-13.13-.54-.2-.04-.85-.77-.67-.85,4.52-2.13,15.78-2.54,20.76-.59-.79.58-2.03,1.1-2.8,1.43,1.02,3.13-1.4,7.97,1.42,8.65,1.7-1.58,4.88-10.59,1.81-11.29Z"/>
      <path class="cls-1" d="M20.66,51.35c6.51,3.33,18.41,3.82,23.77-2.2-2.18-2.55-5.12-3.62-7.48-5.67-.84-.73-1.32-1.63-2.41-1.92-2.62-.71-4.14-.33-6,1.59-2.4,2.48-9.58,1.73-7.88,8.21Z"/>
      <path class="cls-1" d="M48.31,33.7c-1.32.04-4.24-.81-4.42-2.62-.39-4.09-.05-8.29-.17-12.35-3.17-.09-5.9-.21-8.98-.73-1.88-.32-1.94,2.13,6.46,2,.67-.01,1.61.58,1.66,1.31.18,2.87.29,5.46-.09,8.35-.17,1.27-2.66,2.05-3.74,1.96l-4.22-.34.1,2.39-1.31,2.53c5.97,1.64,6.64.05,10.25,2.75-.1-1.97.77-4.19,2.87-4.32.27-.02,1.06.51,1.24.36l.69-.59c2.06,5.57-3.62,5.82-2.44,7.98l2.09,3.83c.58-5.97.49-6.98,4.28-11.74v-3.24c-.64,1.82-2.51,2.43-4.25,2.48ZM35.56,33.18c1.68-.4,3.49-.32,4.9.94l-4.9-.94Z"/>
      <path class="cls-1" d="M19.69,54.85c.53.56,1.7.67,2.65,1,1.85.64,4.62,1.92,6.57,1.42.29-.07.78-.93,1.01-.82.23.1.73.38.94.55,1.39,1.12,3.1.6,4.15-.66.9.43,1.97.82,2.61.5.55-.28,1.32-.91,1.84-1.31l1.42.26c.3.06.65-.88.88-1.17.17-.23.92-.28,1.3-.33,1.55-1.8,3.67-3.74,5.67-5.06l.7,2.53,3.05-1.55,2.25-1.08.1-5.26c-.86.86-1.68,1.58-2.62,2.06-3.17,1.63-6.1,3.35-8.92,5.53-2.35,1.82-5.02,2.87-8.04,3.18-4.76.48-11.51.13-15.7-2.73-.48.54-.44,2.35.15,2.96Z"/>
      <path class="cls-1" d="M40.93,21.79l-1.2,3.14c-4.17,2.1-4.17,2.24-7.43,0l.08,4.09c2.08.77,4.35,1.27,6.53,1.52.92.11,3.16-.66,3.18-1.63l.15-5.94c.01-.55-.24-1.13-.63-1.49l-.43,7.13c-.39-2.41-.23-4.43-.25-6.81Z"/>
      <path class="cls-1" d="M49.25,46.21c1.47-.68,4-1.29,4.66-3.08.98-2.67-.22-5.42-1.08-7.7-2.81,3.07-3.73,6.68-3.58,10.78Z"/>
      <path class="cls-1" d="M32.12,23.47c.88.99,1.98,1.79,3.12,2.61l4.01-1.62c.53-1.53,1-2.66,1.59-3.53l-8.33-1.02c-.6.55-1,2.88-.39,3.56ZM35.36,22.34c.44-.02,1.14.81,1.16,1.25.02.44-.53,1.43-.99,1.55-.65.17-1.51-.73-1.56-1.25-.04-.53.76-1.52,1.38-1.55Z"/>
      <path class="cls-1" d="M53.03,20.59l.13,2.66c1.29.31,3.42.9,4.33-.16.61-.71.69-2.25.48-3.38-1.44,1.77-3.07.91-4.94.88Z"/>
      <path class="cls-1" d="M56.81,15.59c-.24-.37-1.93-.62-2.24-.1l-1.69,2.83,5.03,1.05c-.06-.25-.14-.46-.23-.63-.58-1.1-.8-1.95-.86-3.15Z"/>
      <path class="cls-1" d="M57.9,19.38c.03.1.05.21.07.33.07-.09.14-.17.21-.27l-.28-.06Z"/>
      <path class="cls-1" d="M50.54,30.47l.3-4.31-4.98-.32c.02,1.59.07,3.42.3,4.79,1,.82,3.54.83,4.38-.16Z"/>
      <path class="cls-1" d="M36.51,41.32l1.79-3.16c-2.09-.59-4.06-1.36-6.11-.67-.97.44-1.91,2.24-2.49,3.25,2.39-.7,4.28-.52,6.81.59Z"/>
      <path class="cls-1" d="M51.01,21.01c2.63,0-1.1,3.67-6.01.46-.3.85-.41,1.76-.31,2.53,1.94,1.18,5.05,2.11,6.93.58,1.49-1.22.33-3.85-.85-4.85-.4-.44-.49-1.59-.96-1.54l-1.89.22-1.84,2.6h4.93Z"/>
      <path class="cls-1" d="M54.73,24.19l-1.77.02-.17,4.1c.63.3,2.25.86,2.55.38l.95-1.51c.07.79-.35,2.05-.91,2.03l-2.46-.08c.49,1.1,2.59,1.01,3.63.17.45-1.57.71-3.25,1-5.39-1.73-.47-3.19,2.91-2.89.84l.08-.56Z"/>
      <path class="cls-1" d="M45.13,41.78c-1.22-1.94-2.94-3.59-5.42-3.81-1.22,1.23-2.22,3.07-2.59,4.85l5.21,3.13,2.8-4.17ZM37.81,42.15l2.26-3.62,3.99,2.31c-.75,1.63-1.27,2.56-2.33,4.2l-3.93-2.89Z"/>
      <path class="cls-1" d="M44.89,24.55c-.6,2.15-.56,4.4-.18,6.35,1.58,1.75,4.9,1.99,6.61.57.5-1.87.61-3.91.56-5.88-1.56.38-.08,3.39-1.04,5.58-1.77.7-4.12.67-5.52-.38-.15-2.14.06-4.1-.43-6.24Z"/>
      <path class="cls-1" d="M33.65,16.44c1.68,1.38,11.74,2.39,13.03.18l-5.53.14c-2.51.06-4.85-.18-7.5-.32Z"/>
      <path class="cls-1" d="M46.47,39.3c1.09-.21,2.24-2.53,1.24-3.38-.42-.35-1.55-.44-1.98-.04-.36.34-.38,1.3-.27,1.74l-1.16.39c.55,1.08,1.46,1.42,2.17,1.28Z"/>
      <path class="cls-1" d="M50.24,12.2l.26-5.01c.01-.25-.48-.85-.68-1-.2-.15-.84.28-.84.56l-.05,5.36c0,.17.4.63.52.75.12.12.78-.48.79-.66Z"/>
      <path class="cls-1" d="M47.65,47.18l-1.04-2.71c-.64,1.48-1.16,2.34-2.05,3.29l.81,1.05,2.28-1.63Z"/>
      <path class="cls-1" d="M44.89,46.45c.72-.84,1.09-2.57.53-3.48l-1.76,2.51c-.21.3-.18.89-.04,1.14.1.2,1.1.02,1.26-.17Z"/>
      <path class="cls-1" d="M47.67,17.45c1.16.38,3.2.01,3.05-.78l-2.97-.49c-.15,0-.41,1.16-.08,1.27Z"/>
      <path class="cls-1" d="M48.75,15.85c.81.15,1.81-.23,1.75-.88l-2.6-.77c-.07.59.26,1.54.85,1.65Z"/>
      <path class="cls-1" d="M58.28,14.35l-4.54-.82c.96,1.52,3.09,1.61,4.54.82Z"/>
      <path class="cls-1" d="M55.81,13.42c.52.16,1.45-.25,1.7-.82l-2.5-.68c.13.8.4,1.38.8,1.5Z"/>
      <path class="cls-1" d="M56.77,20.05c-.07-.16-.78-.84-1.03-.82l-3.51.23c1.47.47,2.76.62,4.54.59Z"/>
      <path class="cls-1" d="M45.59,18.2l-.95.57c-.48.29,1.84,1.27,1.94.63l.17-1.05c.04-.23-.98-.26-1.17-.15Z"/>
      <path class="cls-1" d="M40,39.44l.67,2.15-1.18-.28c-.19-.04-.52.44-.66.67l2.67,1.97,1.67-2.86-3.17-1.66Z"/>
    </g>
  </g>
</svg>