<?xml version="1.0" encoding="UTF-8"?>
<svg id="Warstwa_2" data-name="Warstwa 2" xmlns="http://www.w3.org/2000/svg" viewBox="0 0 16.9 55.69">
  <defs>
    <style>
      .cls-1 {
        fill: #fff;
      }
    </style>
  </defs>
  <g id="icon-v9-equipment-pixarts-store">
    <g id="icon-v9-equipment-pixarts-store_372">
      <path class="cls-1" d="M15.89,28.29c-.01-.53-.02-1.25-.08-1.76-.43-3.7-5.02-5.63-7.82-5.04-.21.04-.7.62-.62.71.02.02.03.02,0,.01,0,0,0-.01,0-.01-.11-.09-.73-.49-.86-.48-2.18.2-6.13,2.71-5.43,5.87,1.2-.33,2.62-.75,3.2.55-1.64-.63-2.54-.84-3.68.51-1.83,2.16,1.23,3.53.41,5.41-.66,1.51.68,2.47,1.55,3.52,2.61,3.15,3.86,13.39,5.86,18.1,2.3-5.38,3-14.43,6.09-18.29.87-1.09,2.07-1.72,1.33-3.45-.87-2.03,2.76-3.36.06-5.65ZM2.47,36c-1.49-1.47.41-1.9-1.44-5.16-.24-.42-.07-1.47.29-1.78.35-.31,1.42-.25,1.82.1,1.33,1.19,2.07,3.29,1.82,4.96-.18.42-.81,1.53-1.13,2.07-.19.33-1.1.06-1.36-.2ZM4.58,39.5l-1.5-2.2c.86,0,1.45-.02,1.75.22.39.31.22,1.57-.25,1.98ZM6.99,44.19c-1.09-1.12-2.44-4.91-.92-5.53,1.24-.51,1.75,4.46.92,5.53ZM7.03,35.5l1.38-2,2.75,2.99-2.75-1.72-1.38.73ZM9.63,44.36c-.33-1.5-.61-5.98,1.29-5.53.91,1.91.04,3.98-1.29,5.53ZM11.96,39.42l-.1-2.03,1.75.33-1.65,1.7ZM15.83,30.86c-1.91,2.7-.1,3.37-1.1,4.8-.23.33-1.24.7-1.55.45-2.5-2.04-1.22-5.55.74-7.09.33-.25,1.39-.22,1.72.02.39.28.48,1.39.18,1.81Z"/>
      <path class="cls-1" d="M7.36,22.21s0,.01,0,.01c.02,0,.01,0,0-.01Z"/>
      <path class="cls-1" d="M2.87,3.02C1.9,7.49-.4,7.27.24,9.83c.22.89,1.02,1.62,1.94,2.08l3.85,1.93c1.5.75,3.41,2.6,3.55,4.34.03.44-.66,1.69-.38,1.88,1.61.18,2.32-1.79,1.72-3.13-2.15-4.84-8.57-6.01-6.68-10.57.27-.66,1.31-1.4,2.01-2.05-.18-.66-.8-2.09-1.3-2.58-.84-.82-1.91.48-2.08,1.3Z"/>
      <path class="cls-1" d="M6.23,2.34l1.1,2.45c.19,0,1.52-.39,2.09-.49,1.5-.26,2.79,2.02,2.88,3.42.06.91.75,1.69,1.5,1.64,1.64-.12.95-1.17,2.64-3.27.35-.43.25-1.65-.17-2.09-1.27-1.31-1.63,1.16-8.25-3.81-.44-.33-1.6-.22-1.94.21-.31.39-.08,1.42.15,1.94Z"/>
      <path class="cls-1" d="M7.83,20.66c1.06-.26,1.1-2.35.7-2.99-1.25.32-1.81,2.61-.7,2.99Z"/>
      <path class="cls-1" d="M6.69,19.69l.11-2.52c.26-.75.15-1.55-.42-1.99v1.56c-.51.99-.5,2.46.31,2.95Z"/>
    </g>
  </g>
</svg>