<?xml version="1.0" encoding="UTF-8"?>
<svg id="Warstwa_2" data-name="Warstwa 2" xmlns="http://www.w3.org/2000/svg" viewBox="0 0 30.67 49.4">
  <defs>
    <style>
      .cls-1 {
        fill: #fff;
      }
    </style>
  </defs>
  <g id="icon-v9-equipment-pixarts-store">
    <g id="icon-v9-equipment-pixarts-store_387">
      <path class="cls-1" d="M13.06,16.07c-1.31.54-3.57,1.93-4.99,1.17-.35-.19-.73-1.02-1.08-.91-.35.11-.81.66-.99.99l-.84,1.58c-.22-.19-.75-.57-1.04-.66-.23-.07-.62.66-.52.88l.49,1.05-1.53.56c.3-.72.56-1.54.34-2.09-.33-.14-1.27.3-1.17.65.1.36.33,1.02.47,1.34l1.33,3.01c-.11.36-.47,1.24-.22,1.4l1.36.82c-.39.34-1.37.23-1.67-.18-.27-.37-.59-.68-.81-.64-.16.03-.35.14-.38.31-.03.16.07.84.17.98l.47.64c.09.13-.66.26-.91.35.18.69,1.3,2.3,2.24,1.68.63-.42-.51-1.58-1.31-1.72l1.04-.69c.54.58.88.98,1.09.85l.72-.47,1.49.91c.17.1.33.49.59,1l2.59-1.42-.02.89c0,.23.94.27,1.08.1s.34-.54.39-.78l.15-.75c.03-.16.52-.06.58.09l.25.59,1.72-.87-.87-.2c-.15-.03-.19-.37-.2-.52-.05-.92,1.15.59,1.78.06.25-.21.72-.95.78-1.18l-1.54-.04,1.54-1.14c.21-2.21.49-.34,2.33-2.94l-.1.73c-.01.1.3.26.38.2.08-.05.32-.31.34-.39l.38-1.48c1.42,1.81-1.89,3.43-.75,4.02,1.11.58,2.19-4.03,6.6-3.99,2.58.02,4.68,2.03,5.68,4.18-.28-3.04-2.58-5.45-4.93-6.45-5.67-2.4-9.58,1.61-13.24,5.48-.96,1.01-2.18,1.96-3.52,2.21-1.52.29-2.86-.69-3.2-1.83-.41-1.34.14-2.91,1.61-3.44,1.18-.43,2.57-.7,3.86-.9,3.29-.51,5.77-2.82,6.31-6.16.62-3.88,4.55-3.2,1.13-9.05l-.13,3.12-1.23-3.24c.47-.21,1.07-.32,1.03-.54l-.21-1.04C17.67.51,16.62-.04,15,0c-1.32.04-2.04.68-2.47,1.98l-.38,1.15c-.07.21.83.51.86.73.1.8-.57,2.35-1.12,2.89l.28-2.75c-1.96,1.7-2.2,4.65-.44,6.09.87.72,1.24,1.23,1.45,2.47l.34-.74c.07-.14.59-.04.93-.05.45,0,.69-1.23.47-1.65-.21-.41-1.24-.63-1.63-.71l.28-2.08,1.36-.85c.28-.18-.02-1.12-.15-1.53l1.39-.53c-.41.63-.78,1.18-.86,1.56-.08.38.78.94,1.15,1.08l.62.25c.13.05-.08.63-.2.56l-.56-.33c-.5-.29-.96-.54-1.32-.59-.3-.05-1.05.68-1.09,1-.09.67.97,1.62,1.51,2.04l.53,2.27c-2.52,3.46.27,2.54-2.88,3.82Z"/>
      <path class="cls-1" d="M11.69,34.69c-2.29-1.01-4.28,1.17-4.51,3.18-.25,2.16,1.43,4,3.77,4.29,2.92.35,5.42-2.6,8.19-2.35.71.06,1.54,1.05,1.43,1.62-.49,2.58-7.08.81-7.07,5.38,0,1.06.81,2.35,1.72,2.59-.28-.95-.56-1.96-.47-2.7.07-.6,1.11-1.43,1.82-1.56l3.93-.74c1.74-.33,2.79-2.06,2.76-3.58-.03-1.44-1-2.87-2.59-3.38-3.29-1.05-5.26.81-8.41,1.66-1.49.4-2.68-.71-2.73-2.02-.05-1.19.98-1.97,2.17-2.39Z"/>
      <path class="cls-1" d="M29.45,26.78l.86.2-.47,2.01c-.36-.05-1.24.06-1.21.38.04.49.29,1.29,0,1.44-.29.15-.92.41-1.3.56l-.93.35c-.18.07.28.54.49.86-2.48,1.46-5.94,1.42-8.23-.55-2.29-1.96-4.78-2.18-7.86-1.59-6.91,1.34-5.57,9.72-4.76,7.89.06-.13.33-.46.23-.54l-.6-.49c-.11-1.73,1.21-3.09,2.36-3.99,1.45-1.13,3.45-1.03,4.82-.28.03.5.12.99.33,1.19.17.16.76-.38,1.1-.69l3.45,1.69c2.84,1.39,6.52.9,9.27-1.22,2.67-2.06,5.02-6.03,2.76-9.43l-.32,2.21Z"/>
      <path class="cls-1" d="M28.3,26.14c.07-.16-.43-.54-.59-.46l-.85.42c.15-.63.49-1.23.25-1.32l-.8-.31c-.16-.06-.15-1,0-.94l.78.3c.22.08.67-.09.82-.28.55-.7-2.28-1.34-2.64-1.31l.1.97c.01.1-.37.16-.38.14l-.61-.99c-.1-.15-.59.28-.87.5,1.67.99,2.3,2.5,2.06,4.41-.2,1.58-1.21,2.57-3.03,3.59.19.24,1.06.83,1.3.89.49-2.78,1.2-1.1,2.87-3.71,1.58-2.48.77-.13,1.58-1.89Z"/>
      <path class="cls-1" d="M.04,22.85c-.16,1.25.12,2.53,1.06,3.63.57-1.53-.12-2.53-1.06-3.63Z"/>
      <path class="cls-1" d="M4.1,17.6c.17.01.93-.02,1.22-.05.27-.03.09-.68-.03-1.29l1.1-.92c-1.31-.01-2.12,1.14-2.3,2.26Z"/>
      <path class="cls-1" d="M10.53,29.21c-.29-.21-.81-.55-1.15-.65-.33-.1-1,.39-1.41.73.67.71,1.68.68,2.55-.08Z"/>
      <path class="cls-1" d="M25.64,21.69c.19-.25-.14-1.14-.44-1.17-.25-.02-.86.04-1.07.16-.23.13.18.77.35.97.17.2,1,.25,1.17.04Z"/>
      <path class="cls-1" d="M4.48,28.17c.15.38.6,1.04.94.97l1.25-.23c-.51-.96-1.49-1.28-2.18-.74Z"/>
      <rect class="cls-1" x=".39" y="21.94" width="1.86" height="1.06" transform="translate(-20.91 18.92) rotate(-77.57)"/>
      <rect class="cls-1" x="15.83" y="24.47" width="1.91" height="1.05" transform="translate(-12.78 19.31) rotate(-45.24)"/>
      <path class="cls-1" d="M28.15,21.95c-.63-.63-1.26-1.01-1.87-1.09.18.6.4,1.13.61,1.34.21.21.9,0,1.26-.24Z"/>
      <path class="cls-1" d="M25.15,30.1c-.19.06-.38.67-.39.87-.01.19.37.69.52.57l.72-.6c.1-.09.31-.34.43-.52-.07.07.35-.8-1.27-.32Z"/>
      <path class="cls-1" d="M26.5,30.31s-.05.07-.08.11c.01-.01.03-.04.08-.11Z"/>
      <path class="cls-1" d="M8.27,30.49c-.67-.84-1.61-1.51-2.57-.41.67.31,1.62.45,2.57.41Z"/>
      <path class="cls-1" d="M11.28,29.07c1.03.12,1.74-.01,2.49-.98-.96-.42-2.03.14-2.49.98Z"/>
      <path class="cls-1" d="M28.97,24.21c0-.19-.64-.27-.79-.16-.22.16-.17,1,.05,1.17l.68.52.06-1.52Z"/>
      <path class="cls-1" d="M.91,19.19L.02,21.71c1.42-.32,1.74-1.35.89-2.52Z"/>
    </g>
  </g>
</svg>