<?xml version="1.0" encoding="UTF-8"?>
<svg id="Warstwa_2" data-name="Warstwa 2" xmlns="http://www.w3.org/2000/svg" viewBox="0 0 51.58 56.77">
  <defs>
    <style>
      .cls-1 {
        fill: #fff;
      }
    </style>
  </defs>
  <g id="icon-v9-equipment-pixarts-store">
    <g id="icon-v9-equipment-pixarts-store_27">
      <path class="cls-1" d="M0,37.6c.39,7.45,5.09,13.56,10.05,19.17,8.01-.48,15.82-.97,23.04-4.19,1.03-.46,10.44-4.88,8.88-6.24-5.36,3.48-11.02,6.08-17.32,7.31-.7.14-15.89,2.73-14.8.77l8.2-.39c8.84-.43,17.03-3.52,24.31-9-2.35-3.76-1.17-8.5,2.73-10.71l-.27-1.59c-.08-.49-1.46.55-2.34,1.04-2.47,2.86-3.83,6.22-3.01,10.34-2.44,1.72-5.06,3.37-7.82,3.96-1.47-1-3.43-2.02-5.33-.91l-.35,2.81c-4.62,1.28-9.89,2.29-14.83,1.42-2.18-1.28-7.56-8.61-7.24-10.73l.57.42c.13.09.48-.42.45-.57l-.28-1.09c-.07-.26-.67.39-1.13.77-.92-2.16-1.12-4.6-1.07-6.97-1.4.34-1.89,1.38-1.78,2.72.5,6.04,3.55,10.84,7.02,15.8-4.27-3.6-5.87-8.81-7.67-14.1Z"/>
      <path class="cls-1" d="M39.13,43.72c-.81-3.48.41-7.31,2.47-9.58.19-.21.72-.29.88-.38,1.36-1.58,2.06-.86,2.46-1.93.11-.28-.17-1.1-.34-1.29-7.83,4.94-6.06,9.32-7.02,12.32-.43,1.33-3.42,2.3-4.59,1.68-.77-.41-1.25-2.05-1.13-2.77.15-.92,1.03-1.7,2.13-1.64-.7.96-1.36,2.46-.49,3.39.51.55,1.92.19,2.57-.19,2.53-1.49-1.91-7.37,8.62-14.12-.55-10.55-4.88-18.46-15.57-20.99l1.15,4.73c-2.15-.02-2.91,1.67-2.76,3.39l5.37-2.19-2.98,4.5,8.54-.81-7.58,4.85c1.8.85,3.03,1.2,4.4,1.53l1.3-.94,4.45,6.06-7.07,1.18c-.5-2.44-4.16-2.98-4.4-2.48-.63,1.31,2.15,4.31,2.48,6.67l-5.86-4.05.22,9.74-4.84-9.05c-1.46,3.24-2.21,6.22-3,9.52-.26,1.1.33,1.79,1.59,2.56l-7.7,7.16c4.17.32,8.18-.13,12.12-1.19.56-.84-.2-2.19-.1-2.87.32-2.09,3.54-2.94,5.21-2.37-2.32.43-4.35,1.01-4.88,3.36l1.52-.39,3.05-2c2.72,2.92,6.75.57,9.77-1.43Z"/>
      <path class="cls-1" d="M33.41,3.01c-3.21-1.22-6.58-.74-9.92.15-5.89,1.57-10.8,5.05-14.06,10.29-.86,1.38-3.49,6.34-2.99,7.61.05.14.81.1.88-.03l1.36-2.78c-.29-.58-.57-1.87-.15-1.89l1.48-.1,3.84-4.17c-.71-.11-1.69-.26-1.67-.61.02-.35.22-1.03.4-1.35.16-.31,1.14-.2,1.21.14l.36,1.62c3.98-3.15,9.15-5.49,14.62-4.8,7.55.95,13.52,6.69,15.58,13.87,1.28,4.45,1.62,8.75,1.56,13.22l3.85.08c.32-13.09-2.73-26.07-16.34-31.23ZM20.59,7.56c-.35.3-1.05-.12-1.49-.65-.33-.4-.1-1.35.58-1.62.37-.15,1.35.25,1.57.58.26.38-.16,1.26-.66,1.7ZM30.11,6.31c-.78,0-1.41-.63-1.41-1.41s.63-1.41,1.41-1.41,1.41.63,1.41,1.41-.63,1.41-1.41,1.41ZM48.81,28.34c0,.68-.55,1.24-1.24,1.24s-1.24-.55-1.24-1.24.55-1.24,1.24-1.24,1.24.55,1.24,1.24ZM44.9,17.77c.59-.38,1.77-.11,1.85.35.09.49.07,1.55-.32,1.81-.38.26-1.44.15-1.73-.2-.29-.36-.2-1.69.19-1.95ZM40.41,11.77c-.74,0-1.35-.6-1.35-1.35s.6-1.35,1.35-1.35,1.35.6,1.35,1.35-.6,1.35-1.35,1.35Z"/>
      <path class="cls-1" d="M10.42,21.64c1.54-.23,2.91-.17,4.16.32-.42,3.13.4,5.56,3.08,7.36-.88,1.81-4.16,12.69-6.57,12.02.17,2.69.43,5.25.97,8.1l6.4-5.72c-2.86-1.3,1.5-10.69,2.14-13.18,3.84.18,6.63-1.34,8.78-4.39,2.41,1.07,4.42,1.29,5.33,3.34l4.95-.79-3.16-4.33c-.73.38-1.7.66-2.28.48l-4.02-1.3c.1-3.29-1.27-5.91-4.21-7.44l1.81-3.63,1.61-.36-.75-3.19-4.05,2.1c.36.43.56.95.41,1.21l-1.68,3.07c-2.57.59-5.3,1.12-6.95,3.3-2.08,2.76-3.28-1.37-6.63,1.13.08.51.47,1.59.66,1.9ZM12.51,47.69l-.32-3.82.63,1.74,1.8-4.18-1.08,4.44,1.33-.32-2.36,2.14ZM15.95,21.64c.81-2.9,3.42-4.88,6.47-5.04,1.8-.1,3.6.77,4.58,1.91,1.18,1.38,1.7,3.23,1.33,5.08-.75,3.83-4.73,6.12-8.57,4.93-3.05-.95-4.63-3.95-3.81-6.88Z"/>
      <path class="cls-1" d="M3.38,33.01c-.28.39-.19,1.47.22,1.56.34.07,1.36-.25,1.45-.59.17-.66.41-2.08.59-3.04.95,1.88-.05,4.02-1.02,5.66l-1.32-1.01.48,2.89,2.9.75-.18-2.89c.95,1.39,1.28,3.37.28,4.9l-.98-1.32-.86,1.92c1.6,2.96,3.3,5.77,6.08,8.23l-.8-9.72,1.92-.37c1.72-3.31,3.36-6.48,4.22-10.26l-7.84,4.07c1.69-2.9,3.64-4.79,5.7-7.48l-5.24.15,4.85-3.27c-.24-.59-1.26-1.2-1.71-1l-1.71.78-1.5-2.82c-2.93,4.95-2.53,8.59-5.54,12.84Z"/>
      <path class="cls-1" d="M9.93,18.62l3.14-.79c.44.63,1.1,1.15,1.77,1.12.59-.02,1.28-1.01,1.18-1.55l-.66-3.82,3.73,2.46,1.18-4.59,2.03,3.46c1.2-.74,2.16-2.6,1.37-4.04l5-2.52c-7.88-1.09-14.79,3.75-18.73,10.28Z"/>
      <path class="cls-1" d="M29.94,1.56c4.9.71,8.76,3.22,12.81,6.45l-.37-2.27c-3.18-2.5-6.34-4.42-10.16-5.74-5.57.07-11.12,1.39-15.55,4.89,4.47-1.72,8.59-3.3,13.28-3.33Z"/>
      <path class="cls-1" d="M43.41,9.12c3.38,3.76,5.11,8.14,6.23,12.97.95,4.09.32,8.15,1.38,12.44,1.88-8.31-1.01-21.1-6.57-26.74l-1.03,1.33Z"/>
      <polygon class="cls-1" points="25.5 37.43 25.37 31.17 22.84 31.86 25.5 37.43"/>
      <path class="cls-1" d="M10.92,31.63c1.9-.89,3.02-1.55,4.74-2.59l-1.42-1.8-3.33,4.39Z"/>
      <polygon class="cls-1" points="35.79 18.78 30.38 19.36 31.07 21.29 35.79 18.78"/>
      <polygon class="cls-1" points="30.17 32.42 28.75 28.89 27.02 30.3 30.17 32.42"/>
      <path class="cls-1" d="M11.44,25.58l1.48.15c.25.03,1.04-.34.96-.58l-.32-.97-2.11,1.39Z"/>
      <path class="cls-1" d="M18.11,16.24l-1.87-1.15.49,1.9c.08.23.73-.25,1.38-.75Z"/>
      <path class="cls-1" d="M29.58,17.64l.7-.9c.08-.11.32-.68.37-.81s-.42-.01-.54.04l-.57.24c-.28.12-.82.48-.82.75,0,.27.71.9.88.68Z"/>
      <path class="cls-1" d="M20.87,27.83c1.8.21,3.46-.26,4.84-1.46,2.07-1.81,2.38-4.7,1.04-6.67-1.39-2.03-3.99-2.65-6.31-1.69-2.78,1.15-4.54,4.12-3.31,6.98.7,1.64,2.37,2.68,3.75,2.84Z"/>
    </g>
  </g>
</svg>