<?xml version="1.0" encoding="UTF-8"?>
<svg id="Warstwa_2" data-name="Warstwa 2" xmlns="http://www.w3.org/2000/svg" viewBox="0 0 42.68 56">
  <defs>
    <style>
      .cls-1 {
        fill: #fff;
      }
    </style>
  </defs>
  <g id="icon-v9-equipment-pixarts-store">
    <g id="icon-v9-equipment-pixarts-store_309">
      <path class="cls-1" d="M22.13,45.91c-1,.21-2.21.39-2.72.88-.6.58-.91,4.49.46,5.21,1.23-1.37.62-2.5-.24-3.95.8-.82,2.69,3.77,2.59,4.58,1.29-.08,2.88-.93,3.41-2.24l-3.18,1.87c1.97-1.57.99-2.81,1.21-5.24l1.11-.84c.25-.19-.21-1.17-.43-1.39-1.86-1.87-5.21-1.74-6.85.65l1.3,1.49c.94-1.54,2.13-1.37,3.32-1.02Z"/>
      <path class="cls-1" d="M18.08,10.59c-2.09-.91-3.79-2.17-5.55-3.5,1.46,3.12,6.95,4.02,7.71,6.11,0-1.46-1.03-2.12-2.16-2.61Z"/>
      <path class="cls-1" d="M28.76,8.38l-5.76,3.04c2.29-.25,4.18-1.27,5.76-3.04Z"/>
      <path class="cls-1" d="M12.59,1.05c-2.01,5.25,4.7,8.63,8.52,8.94,3.34.27,11.11-3.73,8.74-8.89-5.67,2.88-11.59,2.7-17.26-.05Z"/>
      <path class="cls-1" d="M33.21,13.95c1.59-.55,1.87-1.8,1.49-2.88-.34-.97-1.82-1.31-2.92-.62-.56.35-.68,1.78-.38,2.47.22.51,1.25,1.23,1.82,1.04ZM32.47,10.55c.42-.23,1.59.19,1.81.63.25.48-.1,1.58-.57,1.97-.55.46-1.58.04-1.89-.59-.33-.67-.22-1.52.65-2Z"/>
      <path class="cls-1" d="M7.68,11.71c.06,1.13.82,1.85,2.15,1.65.75-.11,1.4-.9,1.43-1.65.03-.69-.71-1.41-1.54-1.56-1.07-.19-2.08.71-2.04,1.55ZM8.47,11.1c.18-.32,1.44-.34,1.79-.21.42.16.26,1.34.04,1.74-.18.33-.97.36-1.42.33-.45-.02-.7-1.35-.42-1.86Z"/>
      <path class="cls-1" d="M31.63,15.45c-4.94,2.18-9.81,4.41-14.33,7.12-1.24.74-2.08,3.47-4.45,2.6-.6-.22-1.7.83-1.91,1.52,3.1-.45,9.68-.57,9.56-4.96.86,1.7-.24,3.98-2.16,4.68-2.63.96-5.37,1.54-8.2,1.74-.35.02-1.34.06-1.4.35l-.25,1.09-.87.2c-1.37.31,1.23,3.96,3.05,4.25,2.61-2.65,5.64-4.44,9.33-4.6.38-.02,1.1-.03,1.19-.28l.37-1.02c.07,2.37.97.38,4.74,2.06.95.42,2.27.85,2.84,1.34l3.13,2.68c6-4.21,1.65-5.23,4.94-6.35-.97,3.79-.93,4.98-4.83,7.31l-1.52-.84-.95,2.49c.4,1.86.3,3.15-.22,5.12.5.04,1.74-.04,2.38-.27.49-.18.73-1.17,1.2-1.99l.03,1.56c.67,0,2.82-.67,2.98-1.59l.89-5.18-1.76.53,1.26-2.99.93.77c1.25-1.78,1.87-3.93,2.01-5.92l-1.8-2.19c-1.66,2.3-3.96,3.68-6.75,3.29-2.46-.35-5.04-.86-7.29-1.85-2.11-.93-2.22-3.57-1.8-5.32.64,1.99.82,3.79,2.58,4.46,2.12.81,4.35,1.22,6.72,1.38,2.76.19,5.68-2.19,5.39-5.04l-.8-7.85c-.82,2.08-2.91,1.1-4.23,1.68Z"/>
      <path class="cls-1" d="M12.79,51.14c5.09,3.45,11.24,3.65,16.47.39,2.55-1.59,5.37-2.94,7.96-4.04.24-.1.59-.38.72-.49.09-.07-.48-.45-.62-.48-3.42,1.23-8.11,3.52-11.42,2.55,4.22-.87,7.86-1.78,11.54-3.74l-.24-2.88c-13.09,5.54-10.71-1.83-20.08,1.46-3.98,1.39-7.93.28-11.7-1.58l-.25,3.04c3.79,1.89,7.45,2.84,11.71,3.73-1.96.38-4.04.14-6.01-.57l-5.14-1.85c-.31-.11-.76-.27-.81-.06-.04.16-.11.53-.14.67.03-.21,6.32,2.71,8.01,3.86ZM24.36,44.79c.22.22.68,1.2.43,1.39l-1.11.84c-.23,2.44.76,3.67-1.21,5.24l3.18-1.87c-.53,1.31-2.12,2.16-3.41,2.24.1-.81-1.79-5.39-2.59-4.58.85,1.45,1.47,2.58.24,3.95-1.37-.73-1.06-4.64-.46-5.21.51-.49,1.72-.67,2.72-.88-1.18-.35-2.38-.52-3.32,1.02l-1.3-1.49c1.64-2.39,4.99-2.52,6.85-.65Z"/>
      <path class="cls-1" d="M29.15.31c-4.97,2.66-10.64,2.64-15.6.02l-2.45.97.54,4.03c.08.61-.08,1.82.06,2.45.29,1.31.63,2.53.78,3.73.16,1.36.51,5.35,2.22,5.9.54.18,1.61-.02,2.12-.26l13.14-6.32c.75-1.81,1.16-3.44,1.4-5.32l-.76.69,1.03-4.68-2.47-1.22ZM12.53,7.09c1.76,1.33,3.46,2.59,5.55,3.5,1.13.49,2.16,1.15,2.16,2.61-.76-2.08-6.25-2.99-7.71-6.11ZM23.01,11.42l5.76-3.04c-1.57,1.77-3.47,2.79-5.76,3.04ZM21.11,9.98c-3.82-.31-10.53-3.69-8.52-8.94,5.67,2.75,11.59,2.93,17.26.05,2.38,5.16-5.4,9.15-8.74,8.89Z"/>
      <path class="cls-1" d="M40.29,2.93l-5.29-2.44-1.83,8.22c1.2.16,2.21.82,2.79,2.03,1.36-.74,6.77-6.68,4.33-7.81Z"/>
      <path class="cls-1" d="M30.68,14.7l-1.33-2.59-12.96,6.25c-.2.1-.2,1.01-.1,1.09.03,0,.05,0,.03,0,0,0-.02,0-.03,0-.09.01-.33.07-.36.07-.15-.28-.44-.9-.65-.81l-.67.29c-.38.16.66,2.85,1.18,2.93l14.89-7.22Z"/>
      <path class="cls-1" d="M16.29,19.44s.02,0,.03,0c.03-.01,0-.01-.03,0Z"/>
      <path class="cls-1" d="M11.95,34.3l-1.55.81c-1.67-.72-3.07-2.03-3.82-3.77-.12-.2-.59.62-.49.92l1.16,3.18-1.65-1.64.76,6.12c.68.67,2.15,1.27,2.97,1.45l-.22-1.94c.63,1.16.86,2.03,1.36,2.25.6.26,1.79.38,2.42.37-.5-1.91-.6-3.33-.03-5.26l-.93-2.5Z"/>
      <path class="cls-1" d="M6.45,10.49l3.03-2.07c-.81-2.71-1.36-5.13-1.79-7.94L1.54,3.5c.74,3.02,2.66,5.27,4.9,7Z"/>
      <path class="cls-1" d="M30.68,52.87c2.32-1.44,5.01-2.88,7.54-4.14.18-.09.3-.73.16-.73-1.73.03-7.44,3.29-9.19,4.37-5.07,3.12-10.88,2.97-15.85.01-2.96-1.76-5.78-4.01-9.52-4.23l8.98,5.14c6.6,3.78,11.44,3.57,17.88-.42Z"/>
      <path class="cls-1" d="M13.49,32.88c-1.11.84-.49,2.58.65,3.2,1.08.59,7.05,1.28,7.04-2.76,0-.72-.33-2.01-.82-2.48-1.54-1.45-5.41.94-6.87,2.04Z"/>
      <path class="cls-1" d="M22.06,31.12c-.86,1.46-.52,2.97.19,4.33,1.96,1.01,4,1.67,6.33.63.56-.25,1.21-1.29,1.2-1.8-.05-2.03-6.48-5.27-7.72-3.16Z"/>
      <path class="cls-1" d="M8.53,27.2l3.4-3.39c.03-.7-.56-1.72-1.24-2.47-2.88,2.55-5.22,5.14-7.64,8.08l1.3,3.15c3.08-4.97.95-2.14,4.18-5.37Z"/>
      <path class="cls-1" d="M14.65,41.82l5.03-1.48c.58-.17,1.17-.21,1.2-.49l.15-1.23c.05-.41-.31-1.35-.6-1.64-.88-.91-3.64.77-6.79.41-1.03.82-.45,3.85,1,4.44Z"/>
      <path class="cls-1" d="M21.92,39.83c1.59.73,3.91,1.51,5.89,1.97,1.6-.69,1.85-3.34,1.34-4.46-2.27-.02-4.12-.23-6.3-.58-.96-.15-1.62,2.26-.92,3.06Z"/>
      <path class="cls-1" d="M13.67,42.92c-3.09.38-5.49-1.26-8.47-2,2.25,2.66,8.93,3.63,12.01,2.1,3.44-1.71,6.23-.54,9.61.48,3.42,1.02,7.87-.29,10.61-2.45-4.49.83-7.12,3.29-12.25.94-4.83-2.21-7.47.45-11.51.94Z"/>
      <path class="cls-1" d="M6.22,24.05c1.27-1.02,2.52-2.06,3.4-3.12.51-2.6-.66-5.25-2.79-7.01.21,3.68-1.57,8-.61,10.13Z"/>
      <polygon class="cls-1" points="13.5 18.6 11.79 14.03 9.21 15.14 11.12 20.04 13.5 18.6"/>
      <path class="cls-1" d="M4.87,12.81c.81,4.85-.64,8.55-2.71,13.12,2.99-.38,5.65-12.76,2.71-13.12Z"/>
      <path class="cls-1" d="M37.22,13.07c-1.81,2.28.35,10.66,2.61,12.77.64-.06.55-1.01.11-1.58-3.6-4.63-1.44-12.79-2.72-11.18Z"/>
      <path class="cls-1" d="M42.32,4.26c-.05-.13-.64,0-.69.13-.73,1.9-2.49,4.72-4.43,5.96-.54.67-.85,1.16-1.01,1.83,3.31-1.41,4.94-4.07,6.5-6.95l-.37-.98Z"/>
      <path class="cls-1" d="M0,4.45c.08,2.39,3.8,6.65,6.01,7.62.54-2.03-2.77-1.95-5.01-7.71C.91,4.15,0,4.25,0,4.45Z"/>
      <path class="cls-1" d="M33.7.14l-.79.05-1.25,9.01c1.32-.66,3.19-9.14,2.03-9.06Z"/>
      <path class="cls-1" d="M10.71,8.71l-.87-8.71-.99.25c-.92.23.76,8.13,1.86,8.46Z"/>
      <path class="cls-1" d="M34.24,14.05c.9-.75,1.3-1.98,1.04-2.77-.29-.89-1.18-2-2.11-1.83-1.18.21-2.4.95-2.59,1.71-.23.89.17,2.2.71,2.71.66.62,2.08.9,2.95.18ZM31.78,10.45c1.11-.69,2.58-.35,2.92.62.38,1.08.11,2.34-1.49,2.88-.57.19-1.6-.53-1.82-1.04-.3-.68-.18-2.12.38-2.47Z"/>
      <path class="cls-1" d="M8.71,9.59c-1.29.51-1.83,2.09-1.47,2.88.59,1.3,1.73,1.97,2.98,1.45.91-.37,1.87-1.81,1.52-2.7-.43-1.11-1.69-2.17-3.04-1.63ZM9.71,10.16c.84.15,1.57.87,1.54,1.56-.03.75-.68,1.53-1.43,1.65-1.33.2-2.09-.52-2.15-1.65-.05-.85.97-1.74,2.04-1.55Z"/>
      <path class="cls-1" d="M12.68,22.65c.31.36,1.84-.21,1.84-.69,0-.76-.49-1.86-.96-2.05-.49-.2-1.87.52-1.77,1.04.1.5.58,1.34.89,1.7Z"/>
      <rect class="cls-1" x="2.67" y="25.75" width="3.05" height=".87" transform="translate(-19.01 13.34) rotate(-51.92)"/>
      <path class="cls-1" d="M15.58,22.9c-.94.06-2.05.67-2.72,1.42,1.11.05,1.99-.26,2.72-1.42Z"/>
      <path class="cls-1" d="M33.72,13.15c.47-.39.82-1.49.57-1.97-.23-.43-1.39-.86-1.81-.63-.87.48-.98,1.34-.65,2,.31.64,1.34,1.05,1.89.59Z"/>
      <path class="cls-1" d="M8.89,12.96c.45.02,1.24,0,1.42-.33.21-.4.38-1.58-.04-1.74-.35-.13-1.62-.12-1.79.21-.28.51-.04,1.84.42,1.86Z"/>
    </g>
  </g>
</svg>