<?xml version="1.0" encoding="UTF-8"?>
<svg id="Warstwa_2" data-name="Warstwa 2" xmlns="http://www.w3.org/2000/svg" viewBox="0 0 51.69 44.93">
  <defs>
    <style>
      .cls-1 {
        fill: #fff;
      }
    </style>
  </defs>
  <g id="icon-v9-equipment-pixarts-store">
    <g id="icon-v9-equipment-pixarts-store_199">
      <path class="cls-1" d="M35.79,29.8c2.04-.9,3.79-1.75,5.76-2.91l-2.74-.56c.48-1.9,1.8-3.38,3.22-3.69l.44,1.18,3.27-4.04-2.06.81-.05-2c-.02-.81,3.81-1.5,6.55-4.86,1.75-2.14,1.95-4.96.25-7.2C47.78,3.03,42.53.94,38.31.04c-1.67-.36-2.79,1.5-2.78,2.84l.08,12.8c2.17-.28,4.06-.97,5.72-2.04l-1.16-.87c-.12-.09.38-.39.52-.54l-1.44-1.75,4.09.7c-1.11-1.63-2.4-2.54-3.88-3.78l2.33.2.95-1.18c1.01.84,1.66,1.35,2.34,1.73-1.07-3.11-4-3.63-6.36-5.5,2.95.49,6.01,1.64,8.2,3.75,1.86,1.8,1.79,4.45-.03,6.17-1.87,1.76-4.1,2.92-6.66,3.72-9.65,3.02-20.01,2.9-29.61-.33-3.04-1.03-7.33-3.34-7.07-6.79.27-3.53,5.99-6.04,9.4-6.28-2.16,1.37-4.31,2.19-5.9,4.32l4.02-1.68c-.54,1.57-2.79,1.89-1.87,3.87l4.93-.5-4.89,3.57,3.64.15-1.61,1.5c1.69.74,3.07,1.22,4.73,1.52V2.54c0-.66-.76-1.77-1.27-2.12-.6-.43-1.76-.29-2.58-.03-3.62,1.11-7.07,2.36-9.79,4.81-2.93,2.64-3.15,6.56-.27,9.27,1.68,1.58,3.72,2.72,5.93,3.79l.1,2.23-2.07-.56,3.14,4.05.43-1.4c1.76.79,2.92,2.32,3.09,3.89l-2.73.5,5.71,2.89c-.31,3.65,1.31,7.48,5.02,8.64-1.79-2.33-4.12-5.01-3.12-8.1,1.51-4.66-1.34-.41,2.01-5.83-1.26.35-2.15,1.68-3.22,2.65-.98.89-2.45-.83-2.57-1.88-.39-3.45-3.49-3.34-3.43-4.96.01-.33.68-1,1.02-.9,3.63,1.05,7.7,1.68,11.55,1.99,1.21,1.12,2.16,2.92,2.7,4.42-2.89.78-5.33,2.19-5.65,5.6l3.03-1.95c1.74-1.12,3.73-1.23,5.84-1.26l-2.55-6.68c4.35-.28,8.78-.65,13.03-1.88.78-.22,1.5-.27,1.76.35.18.45-.16,1.3-.56,1.49-5.04,2.46-.62,6.96-6.19,6-1.65,2.42-.75.71-5.26,3.71l-2.92,1.94c1.03.67,2.36.29,3.5-.3l4.33-2.24c.61,3.45-1.73,5.11-3.33,7.81,3.84-1.18,5.65-5,5.16-8.67Z"/>
      <path class="cls-1" d="M40.47,40.78l-.06-2.52c-.02-.85.86-2.01,1.68-2.36.79-.34,1.71-.17,2.76.07-.41-.91-1.38-2.08-2.3-2.18-2.77-.29-4.56,4.33-5.23,6.42-.47,1.47-1.81,2.22-3.19,1.58l1.47-3.35c-1.64.03-3.81,4.63-4.59,6.49,6.61-.06,21.23-3.88,20.29-11.72-2.5,3.95-6.3,6.35-10.82,7.57Z"/>
      <path class="cls-1" d="M16.04,38.42l1.26,3.33c-1.3.62-2.58-.28-3.03-1.6-.66-1.97-2.82-7.33-5.54-6.27-.83.33-1.64,1.23-2.05,2.12,1.57-.65,3.42-.53,4.09,1.31.33.91.35,2.09.33,3.44-5.31-1.88-7.29-2.78-10.72-7.46-.92,8.05,13.96,11.4,20.15,11.63-1.12-2.61-2.02-4.88-4.49-6.49Z"/>
      <path class="cls-1" d="M44.61,28.49l-5.26,3.04c2.46.28,6.26-1.42,7.34.13.44.63.69,1.55.87,2.5l1.35-1.61c1.88-.96,3.05-2.71,2.52-4.61-.65,1.26-1.52,2.32-2.56,2.33-1.23.01-2.08-1.14-2.15-2.46-.31-6.33,6.17-7.74,4.77-12.77-3.09,5.01-6.52,6.78-6.88,13.45Z"/>
      <path class="cls-1" d="M4.05,33.93c.09-1.59.89-3.02,2.29-2.91l5.8.47-5.1-3.07c-.44-3.24-1.41-5.96-3.3-8.47L.17,15.25c-1.1,4.78,4.03,5.21,4.71,12.03.12,1.21-.46,2.85-1.79,3-1.08.12-2.09-1.01-2.88-1.92-.38,3.34,2.21,3.25,3.83,5.57Z"/>
      <path class="cls-1" d="M25.53,33.53l-3.48-1.25,1.98,4.6c1.1,2.56.97,5.31,1.58,8.02l1.9-10.03c-1.16-.29-2.69-.42-1.97-1.34Z"/>
      <path class="cls-1" d="M2.07,26.82c1.24-1.74-.26-4.05-1.85-4.58-.64,1.66.11,4.33,1.85,4.58Z"/>
      <path class="cls-1" d="M49.59,26.86c.65.57,2.67-2.06,1.89-4.76-1.35.72-3.33,3.5-1.89,4.76Z"/>
    </g>
  </g>
</svg>