<?xml version="1.0" encoding="UTF-8"?>
<svg id="Warstwa_2" data-name="Warstwa 2" xmlns="http://www.w3.org/2000/svg" viewBox="0 0 49.71 53.94">
  <defs>
    <style>
      .cls-1 {
        fill: #fff;
      }
    </style>
  </defs>
  <g id="icon-v9-equipment-pixarts-store">
    <g id="icon-v9-equipment-pixarts-store_284">
      <path class="cls-1" d="M31.01,31.09l-1.92,2.16c-1.36,1.52-3.23.85-5.06-.15-.14-.7-.25-.4-.42.45l2.74,1.17c2.22.22,4.18-1.47,4.67-3.62Z"/>
      <path class="cls-1" d="M24.89,8.26c-2.22,3.43-3.99,5.35-1.23,8.44l-1.06-2.91c.73-2.71,2.41-4.78,4.08-6.83-.57.14-1.43.74-1.79,1.3Z"/>
      <path class="cls-1" d="M27.62,15.95c1.57-.16,3.24,2.34,2.35,3.28l-1.56,1.64,2.68-1.6c-.26-2.61-2.07-4.3-4.54-3.78-.44.75-.72,2.05-.61,2.64.42-.79,1.04-2.12,1.69-2.19Z"/>
      <path class="cls-1" d="M8.05,31.83c.85,0,1.55-.69,1.55-1.55s-.69-1.55-1.55-1.55-1.55.69-1.55,1.55.69,1.55,1.55,1.55Z"/>
      <path class="cls-1" d="M26.09,44.74c.82,0,1.49-.67,1.49-1.49s-.67-1.49-1.49-1.49-1.49.67-1.49,1.49.67,1.49,1.49,1.49ZM26.08,42.35c.45,0,.81.36.81.81s-.36.81-.81.81-.81-.36-.81-.81.36-.81.81-.81Z"/>
      <path class="cls-1" d="M15.56,31.12c2.81,2.19,5.83,4.12,9.02,5.66,2.32,1.12,4.6.6,6.32-1.51-.03.04,12.7-15.88,9.46-14.28-1.81.89-4.29,4.41-5.15,4.84-2.51-.66-4.74-1.13-7.08-2.1-.14.89-.64,2.3-1.48,2.63-1.17.47-2.73.77-3.91.41-1.27-.38-1.71-2.35-1.69-3.57.02-1.19,1.03-2.43,2.17-3.11-1.5-1.53-2.53-2.95-3.37-5.02l-6.08,9.11c2.42.47-1.31-.26,2.43,4.23-1.74-.34-2.32-2.05-2.23-4.06-1.26,2.24-.52,5.11,1.59,6.76ZM24.03,33.1c1.83,1,3.7,1.68,5.06.15l1.92-2.16c-.49,2.16-2.45,3.84-4.67,3.62l-2.74-1.17c.18-.85.28-1.15.42-.45Z"/>
      <path class="cls-1" d="M25.32,48.24l12.87-15.88c.78-.96-.36-2.84-1.12-3.35l-5.85,7.48c-1.66,2.13-4.43,2.54-6.89,1.36-3.47-1.67-6.71-3.75-9.79-6.17-2.32-1.82-3.07-5.4-1.63-7.94,1.55-2.75,3.14-5.11,4.93-7.88-.34-.4-1.51-.82-2.08-.72-.51.09-1.25.72-1.62,1.32l-10.03,16.11c8.37.46,18.51,7.69,21.23,15.67ZM26.09,41.76c.82,0,1.49.67,1.49,1.49s-.67,1.49-1.49,1.49-1.49-.67-1.49-1.49.67-1.49,1.49-1.49ZM8.05,28.74c.85,0,1.55.69,1.55,1.55s-.69,1.55-1.55,1.55-1.55-.69-1.55-1.55.69-1.55,1.55-1.55Z"/>
      <path class="cls-1" d="M4.81,45.73c-.53-2.07-3.67-4.28-2.83-6.5.21-.56,1.7-.98,2.41-.8,10.89,2.75,18.26,12.98,14.76,13.98-2.49.71-4.26-.82-6.83-1.51.03,1.96,7.9,4.25,9.1,2.29,1.12-1.83-1.96-6.16-2.87-7.79,2.18,1.65,3.45,4.01,3.85,6.8,4.13-2.45.11-8.21-2.48-10.71-3.85-3.72-8.43-6.63-13.65-7.75-2.51-.54-4.74.53-5.38,2.77,1.78-.04,3.21.07,4.65.37-1.74.19-3.45.12-4.96.66-2.14.76,2.24,8.18,4.23,8.19Z"/>
      <path class="cls-1" d="M23.66,16.7c1.39.6.19-1.31,1.73-2.51.38-.3,1.38-.27,2-.23l3.17.18,1.88,3.06c.31.51.65,1.88.32,2.41-.32.5-.87,1.01-1.62,1.73,1.1.64,2.4.84,3.96.8-2.37,1.16-4.29-1.13-6.4.25,1.86,1.07,4.1,2.19,6.3,1.55,3.25-.94,4.36-5.96,7.31-6.31l.05,2.34c.19-.32,1.07-2.65-.24-3.41-.3-.17-1.21-.05-1.49.2l-2.91,2.56c.82-1.7,2.12-2.63,3.8-3.77-5.4-3.65-6.8-3.19-12.11-7.9-.69-.61-1.94-.86-2.74-.67-1.67,2.05-3.35,4.13-4.08,6.83l1.06,2.91Z"/>
      <path class="cls-1" d="M24.75,6.86c-1.09,1.29-2.96,3.63-3.56,5.38-.97,2.78.73,5.38,2.9,6.88.06-1.05-.13-1.72-.42-2.42-2.77-3.09-1-5.01,1.23-8.44.36-.56,1.22-1.16,1.79-1.3.75-.66-1.3-.85-1.94-.1Z"/>
      <path class="cls-1" d="M47.05,21.21c-.29-3.65-1.93-6.69-4.16-9.34-4.19-5-10.05-8.06-16.65-8.53-3.82-.27-4.52.67-6.07,3.48,3.64,1.86,3.32-1.29,5.28-1.49,2.36-.24,4.18.9,5.7,2.37,4.8,4.6,7.59,3.94,11.41,7.45,1.58,1.45,1.72,3.46.57,5.33l1.97,3.56c.67-.68,2-2.03,1.94-2.84Z"/>
      <path class="cls-1" d="M48.01,13.11c-2.84-5.19-7.38-8.96-12.82-11.26-3.18-1.34-12.45-3.83-13.08,1.02,11.25-2.12,24.08,6.62,25.98,18.15,3.16-.68.9-6.13-.08-7.91Z"/>
      <path class="cls-1" d="M39.35,33.6c1.04-.32,4.62-4.92,5.19-6.36.77-1.95-1.08-4.21-2.21-5.66l-4.59,6.5c1.86,3.04,1.95,3.16,1.07,5.05-.08.17.36.52.54.47Z"/>
      <path class="cls-1" d="M27.04,21.98c2.28-.92,6.02-1.96,4.78-4.21l-1.61-2.9-4.52-.19-.96,4.4c-.12.56.16,1.9.55,2.3.34.35,1.3.79,1.76.61ZM26.55,15.5c2.47-.52,4.29,1.17,4.54,3.78l-2.68,1.6,1.56-1.64c.9-.94-.78-3.44-2.35-3.28-.65.06-1.27,1.39-1.69,2.19-.11-.6.17-1.89.61-2.64Z"/>
      <path class="cls-1" d="M17.31,8.46l-3.82,5.59c-.1.15-.03.94-.02,1.12,0,.12.35-.12.44-.21,2.01-1.94,3.45-.15,5.21-.44-.88-1.2-2.33-.97-3.54-1.48,1.46.14,2.76.41,3.77.65.85-1.95,1.73-3.62,2.75-5.4-1.36-.2-3.53-.46-4.79.16Z"/>
      <path class="cls-1" d="M23.82,24.91c.59.11,1.63-.26,2.62-.58-.59,1.14-2.69,1.63-3.77.25-.5-.63.1-2.21.44-3.17-1.39.53-1.73,3.06-.48,4.13,1.23,1.05,3.99.51,4.46-1.24l-3.82-2.21c-.73,1.35-.38,2.64.55,2.82Z"/>
      <path class="cls-1" d="M26.08,43.98c.45,0,.81-.36.81-.81s-.36-.81-.81-.81-.81.36-.81.81.36.81.81.81Z"/>
    </g>
  </g>
</svg>