<?xml version="1.0" encoding="UTF-8"?>
<svg id="Warstwa_2" data-name="Warstwa 2" xmlns="http://www.w3.org/2000/svg" viewBox="0 0 58.18 55.56">
  <defs>
    <style>
      .cls-1 {
        fill: #fff;
      }
    </style>
  </defs>
  <g id="icon-v9-equipment-pixarts-store">
    <g id="icon-v9-equipment-pixarts-store_98">
      <path class="cls-1" d="M5.3,42.67c.27-.04,1.14.6,1.24.34l.42-1.12.54,1.01c.13.24.89-.13,1.16-.15,1.81-.19,2.35-1.79,3.15-2.42,2.73-2.12.7-2.87,2.17-4.74l.04,1.88c.35-.42.71-.97.8-1.41.08-.38-.49-1.12-.76-1.3.65-.51,2.36-6.05,2.62-7.62l.39,1.53c-1.06,2.49-1.79,5.75-.63,8.34,4,8.98-4.36,10.12-2.68,15.94.4,1.39,1.69,2.32,2.66,2.52,1.4.29,2.9.12,3.41-1.49-.92.38-1.99.74-2.62.34-.55-.36-1.38-1.53-1.35-2.19.11-2.19,1.81-3.75,3.15-5.21,2.7-2.94,3.41-6.58,1.84-10.11-1.02-2.31-1.07-5.32.69-7.16-2.59,7.93,5.9,9.07-2.24,18.9,3.35,2.76,7.37,3.85,11.51,4.33,3.25.37,6.01-.24,8.97-1.59l5.18-2.37c.24-3.95-3.78-1.97-7.07-3.94-2.09-1.25-3.65-.7-6.27-.1.98-.72,2.25-1.08,3.67-1.28-1.57-2.09-3.82-.84-6.39-.63,1.07-.57,2.3-.98,3.76-1.38l-5.02-6.08c-1.01-1.22-2.59-1.33-4.23-1.05,1.06-1.11,2.22-1.09,3.82-.51l-.95-1.88c-.09-.18.26-.73.34-.94-1.26-4.48,1.82-8.3-1.83-9,.08,2.52,0,4.59-.61,6.66-1.59-2.29-.6-4.17-.88-6.6-1,.27-1.47,1.03-2.04,2.29l-.76-1.29c-.17-.29.34-1.11.59-1.35l2.51-1.18c-1.76-.67-3.12-.95-4.02-1.73-1.05-.91-1.31-2.65-1.13-4.08.92,2.08,2.37,4.47,4.99,4.05.36-.46-.44-1.14-1.06-1.44-1.62-.8-1.74-2.91-.53-4.23.83-.9,2.43-1.68,3.87-.51.66.54.99,2.41.58,3.29-.31.66-1.17,1.42-2.02,2.37,3.86,1.21,3.8-6.91,4.15-9.2-4.31,1.6-7.99,1.95-12.52,1.47-.56,1.34-.48,2.63-.47,4.53-1.9-3.01-.17-1.66-.25-5.38,4.16.39,8.35.32,12.39-1.16.77-.28,1.27-1.27,1.19-2.09-.05-.52-.86-1.2-1.57-1.41-6.85-2.03-13.97-2.24-20.86-.35-.64.18-1.42.9-1.44,1.39-.06,1.89,3.55,2.41,5.43,2.88,1.35.34,1.96,1.21,2.47,2.44,2.84,6.81-5.29,8.11-2.36,10.73.11.1.73.34.78.21.06-.16.12-.34.07-.46l-.38-.94c.85-.48,1.56.68,1.58,1.48.02,1-.77,2.04-1.94,1.5-1.02-.47-1.8-2.01-1.89-3.08-.26-2.96,2.85-3.92,2.99-5.62.15-1.78-.71-3.11-1.58-4.44l1.79.34c-.97-2.04-3.36-1.05-6.7-2.72.69,5.41,1.7,10.48,3.01,15.68.35,1.41.92,2.32,1.77,3.69l-1.22-.64-.38,4.33c.04.73.57,2.16.78,3.01-.94.94-1.36,2.02-1.28,3.44,2.89-2.11.89-4.77,3.38-8.66l2.05-3.19c-.33,4.24-2,2.84-2.54,8.61-.21,2.18-1.38,4.43-3.55,4.96-1.36.33-2.96-.06-3.97-.99-.84-.77-1.32-2.09-.94-3.55.13-.49.97-1.39,1.44-1.35.47.04,1.07.56,1.61.98.19-1-.52-1.94-1.42-2.12-.67-.14-2.06.21-2.54.72-2.23,2.41-1.47,5.33.32,7.65.94,1.21,2.4,1.75,3.61,1.58ZM6.45,6.11c-.2-.17.64-.71.91-.77,5.99-1.36,12.35-1.27,18.35.23.67.17,1.28.59,1.84,1.12-3.41,2.56-18.66,1.53-21.1-.57ZM8.35,14.94c-.74-.07-1.17-1.89-.62-2.54.41-.48,1.83-.1,1.94.43.16.76.11,2.23-1.32,2.1Z"/>
      <path class="cls-1" d="M14.93,37.4c-1.28,3.41-3.04,5.33-6.32,6.68l5.65,2.37c2.43-2.6,3-6.32.67-9.05Z"/>
      <path class="cls-1" d="M7.83,48.29c1.05,1.37,2.91,1.71,4.62,2.27l1.14-3.45-6.53-2.44c.1,1.34.11,2.77.77,3.63Z"/>
      <circle class="cls-1" cx="23.94" cy="14.94" r="1.79"/>
      <polygon class="cls-1" points="26.97 21.64 27.21 18.82 24.57 20.48 26.97 21.64"/>
      <path class="cls-1" d="M57.54,39.12c-7.44.57-4.55-1.51-11.89-.7l3.43-1.12c-1.82-1.02-3.6-2.37-4.97-4.06l-3.4-4.18c-.77-.95-2.69-.29-3.72.14.88-1.6,2.33-1.39,4.26-1.01l-1.03-2.03.87-8.16-1.23.66c-.33.17-.37,1.27-.38,1.68l1.03-.45c-.31,1.23-.72,2.19-1.4,3.4l-1.96-2.95,1.28.44c1.6-3.34-4.55-1.06-3.55-6.19,1.18,1.4,1.86,2.54,3.53,3.04.33-1.11.71-3.2,0-3.8-.79-.68-1.77-1.31-1.93-2.07-.2-.92.05-2.02.74-2.34.15,1.25.26,2.71,1.15,3.12,1.14-.78.79-2.56.07-3.52l1.14-1.85c2.15,1.81-.83,2.64.89,5.35.85-1.29.67-2.28.74-3.79,1.49,1.7.59,3.98-1.21,4.98-.12,1.1-.11,2.32.01,3.59,1.12-.56,1.75-1.49,1.9-2.53l1.34-9.58c-4.28,1.39-8.17,1.67-12.44,1.21-.05.89-.37,2.33-.32,3.21l.14,2.52c.49.41,1.46,1.23,1.56,1.8.12.68-.57,1.96-1.4,1.52l.27-1.44c.05-.24-.51-.51-.96-.73-.95,7.79-2.96,13.88.13,21.51.28-1.04.55-2.42.59-3.4-2.84-3.82-1.78-6.82.75-10.31-.88,4.04-2.97,7.76.99,10.71,3.47,2.6,3.27,6.19,1.97,6.57-.42.12-1.07.11-1.94.12.32.45,1.02,1.14,1.61,1.24.73.12,2-.38,2.46-.89,1.38-1.54,1.61-3.69.66-5.56-2.13-4.19-4.88-4.95-2.79-9.08-.35,5.19,1.89,4.36,3.94,9.03,1.34,3.05-.02,6.32-3.06,7.58,2.68,2.74,6.26,3.66,9.84,4.27,4.13.69,7.47-.49,10.96-2.71.54-.34,1.66-.69,1.9-1.21.22-.49-.02-1.99-.56-2.02Z"/>
      <path class="cls-1" d="M46.14,31.22c-4.27-1.36-1.81-5.11-3.92-8.96-.44,1-.85,2.58-.54,3.62l1.02,3.34c.24.77,3.38,5.54,5.11,5.28.58-.09,1.12-.71,1.55-1.17,1.71.69,2.57-1.64,2.79-3.17.36-2.47-.44-5.04-3.38-5.68-.51-.11-1.94.29-2.08.74l-.43,1.4c.97-.8,2-1.17,2.97-.4,1.17.92,1.24,2.65.47,3.9-.66,1.06-2.2,1.55-3.57,1.11Z"/>
      <path class="cls-1" d="M30.45,5.47c4.04.58,7.93.35,11.74-.78.88-.26,1.39-1,1.36-1.86-.02-.53-.77-1.25-1.46-1.44-6.11-1.69-12.27-1.83-18.48-.49-.74.16-1.51,1-1.77,1.64l5.02,1.23c1.22.3,2.4.85,3.59,1.7ZM42.5,2.97c-6.32,1.77-13.06,1.88-18.91-1.01,2.32-1.71,18.41-1.64,18.91,1.01Z"/>
      <path class="cls-1" d="M36.13,53.45c-6.02,1.05-11.86-.61-16.93-3.81-.29-.18-1.03.09-1.14.49,7.63,5.95,19.4,7.32,27.45.44-1.23-1.41-5.34,2.18-9.39,2.89Z"/>
      <path class="cls-1" d="M57.47,42.43c-3.94,2.44-7.28,4.2-11.85,3.45.47,3.18,11.68.35,11.85-3.45Z"/>
      <path class="cls-1" d="M32,32.94l-.81,3.08c-.12.46.8,1.72.98,1.61l.66-1.26.81,1.17c.39.56,1.8-2.41-1.64-4.59Z"/>
    </g>
  </g>
</svg>