<?xml version="1.0" encoding="UTF-8"?>
<svg id="Warstwa_2" data-name="Warstwa 2" xmlns="http://www.w3.org/2000/svg" viewBox="0 0 57.73 57.12">
  <defs>
    <style>
      .cls-1 {
        fill: #fff;
      }
    </style>
  </defs>
  <g id="icon-v9-equipment-pixarts-store">
    <g id="icon-v9-equipment-pixarts-store_16">
      <circle class="cls-1" cx="23.51" cy="50.47" r=".92"/>
      <path class="cls-1" d="M34.88,49.74c-.25-.13-1.14-.19-1.37-.03-.41.29-.33,1.44.08,1.43.44,0,.7-.01.98-.06.35-.05.63-1.18.31-1.34Z"/>
      <path class="cls-1" d="M26.34,19.18c.49,0,.89-.4.89-.89s-.4-.89-.89-.89-.89.4-.89.89.4.89.89.89Z"/>
      <circle class="cls-1" cx="38.68" cy="29.72" r=".89"/>
      <path class="cls-1" d="M36.05,3.53c-.26-.09-1.08-.1-1.41.04-7.86,3.21-12.43-1.45-13.46.33-1.19,2.05,1.59,4.47,3.93,5.45,2.83,1.18,1.56,2.85,3.67,5.38,2.25-1.91.68-4.43,3.66-5.39,4.32-1.39,4.76-5.43,3.62-5.81Z"/>
      <path class="cls-1" d="M35.09,40.49c-.3.61-.51,1.04-.33,1.33.19.31,1.24.52,1.4.22.16-.31.27-1.06.08-1.34-.15-.23-.92-.28-1.15-.21Z"/>
      <path class="cls-1" d="M21.85,40.29c-.36.3-.78,1.03-.67,1.37.11.34.87.61,1.23.57.28-.03.72-.83.5-1.02l-1.05-.91Z"/>
      <path class="cls-1" d="M36.02,35.2c-.29.18-.46,1.1-.26,1.38.2.28,1.18.57,1.27.23l.33-1.26c.07-.26-1.09-.49-1.33-.35Z"/>
      <path class="cls-1" d="M39.23,4.33c-1.1-1.67-.44,4.59-5.39,6.07-.85.25-1.65.94-2.43,1.43.28-2.26,4.96-1.13,6.32-6.73.27-1.11-.98-3.27-2.29-2.69-4.25,1.9-9.01,1.86-13.18-.05-.65-.3-1.87.45-2.1.98-1.27,2.85,1.34,5.57,4.26,6.79.79.33,1.58.99,1.82,1.69-2.75-1.87-6.31-2.63-6.86-6.62-.04-.3-.14-.71-.19-.91-.06-.2-.64-.06-.82.03-1.11.61,2.02,6.44,2.74,7.37,1.92,2.48,7.2,3.46,7.19,5.15l-.07,11.55-9.51,4.41c-1.79-1.44-3.23-3.14-4.69-4.94l-2.83,2.86c.09.76.61,2.45,1.03,3.13l3.06.14c.85,1.13,1.13,2.78.74,3.97l-3.11.81.82,3.93,6.26,1.85-1.23-8.39c-.13-.91.51-2.08,1.39-2.46,2.78-1.21,5.46-3.14,8.57-3.25,3.04-.11,5.78,1.97,8.46,3.11,1.27.54,1.86,1.67,1.63,3.14l-1.19,7.8c2.45-.51,4.28-1.1,6.42-1.99l.63-3.86c-1.1-.24-2.53-.42-3.01-.97-.45-1.18.08-2.81.81-3.8l3.12.13.9-3.25-2.75-2.98-4.36,5.07-9.21-4.06c-.42-.19-.85-1.3-.85-1.71v-9.22c0-1.23.57-2.03,1.66-2.6,6.3-3.29,5.78-2.8,8.45-9.8.11-.28-.06-.91-.2-1.12ZM28.77,14.73c-2.11-2.53-.84-4.2-3.67-5.38-2.33-.97-5.11-3.39-3.93-5.45,1.04-1.79,5.6,2.88,13.46-.33.33-.13,1.15-.12,1.41-.04,1.14.38.71,4.42-3.62,5.81-2.98.96-1.41,3.48-3.66,5.39Z"/>
      <path class="cls-1" d="M19.46,35.17l1.39,8.31c5.48-.78,10.45-.73,15.84-.05.62-2.98,1.04-5.41,1.3-8.38-8.75-5.17-9.97-4.94-18.52.11ZM22.4,42.23c-.35.04-1.12-.23-1.23-.57-.11-.34.31-1.07.67-1.37l1.05.91c.22.19-.22.99-.5,1.02ZM36.16,42.04c-.16.31-1.2.1-1.4-.22-.18-.29.03-.73.33-1.33.23-.07.99-.02,1.15.21.19.29.08,1.04-.08,1.34ZM35.75,36.58c-.2-.28-.03-1.2.26-1.38.23-.14,1.4.09,1.33.35l-.33,1.26c-.09.34-1.07.05-1.27-.23Z"/>
      <path class="cls-1" d="M15.65,20.13c-.01,2.03-.51,4.43-1.08,6.71,1.11,1.68,2.76,3.49,4.12,4.72l8.94-3.93-.04-7.98c0-.9.57-2.6-.32-3.13l-6.27-3.74c.73,1.18.22,2.1-.86,2.95l1.71,2.66c.17,1.34-1.3,2.98-2.75,2.88-1.2-.09-1.84-2.05-2.83-2.09-.22,0-.63.73-.63.95ZM26.34,17.4c.49,0,.89.4.89.89s-.4.89-.89.89-.89-.4-.89-.89.4-.89.89-.89Z"/>
      <path class="cls-1" d="M36.33,13.08l-5.93,3.5c-.87.51-.4,2.15-.4,3.06l-.02,8.04,9.16,3.92,4.11-4.76c-.81-2.62-1.13-4.57-1.27-7.28-.37-.2-.85-.47-.99-.31l-.74.84c-.41.47-1.16,1.17-1.66,1.28-1.03.23-2.91-1.67-2.82-2.59.04-.45.55-1.21.86-1.67l.76-1.11c.31-.45-1.63-.9-1.06-2.91ZM38.68,28.83c.49,0,.89.4.89.89s-.4.89-.89.89-.89-.4-.89-.89.4-.89.89-.89Z"/>
      <path class="cls-1" d="M21.08,44.45c.21,2.68.42,5.07,1.03,7.36,5.82,2.1,7.89,1.93,13.62-.06l.81-7.45c-5.49-.93-10.35-1.11-15.47.15ZM23.51,51.39c-.51,0-.92-.41-.92-.92s.41-.92.92-.92.92.41.92.92-.41.92-.92.92ZM34.57,51.08c-.28.04-.54.05-.98.06-.41,0-.49-1.14-.08-1.43.23-.16,1.11-.1,1.37.03.32.16.04,1.29-.31,1.34Z"/>
      <path class="cls-1" d="M45.34,3.35c-.54,2.59-4.92,8.69-4.32,9.64.18.28.66.72,1.01.99l3.66,2.82c3.53-.99,6.46-2.09,9.05-4.05-1.52-4.65-5.01-7.96-9.4-9.39Z"/>
      <path class="cls-1" d="M2.93,12.79c2.87,1.92,5.53,2.98,8.83,4.06l3.89-2.96c.42-.44,1.08-1.04.99-1.43-.36-1.55-3.58-5.95-4.4-9.08-4.49,1.38-7.82,4.98-9.31,9.41Z"/>
      <path class="cls-1" d="M45.2,17.25c-1.71-1.67-5.84-3.49-4.61-5.76l3.87-7.09c.22-.4.29-1.24.15-1.57-.11-.28-.8-.66-.84-.96l-.16-1.29c-.03-.24-.56-.43-.93-.57-.48,3.63-3.09,8.45-4.88,11.86-.24.46-.59,1.73-.32,2.15.38.59,6.46,5.44,7.72,5.91,4.03-.96,9.34-2.67,12.52-5.55l-2.23-1.45c-3.1,2.49-6.41,3.66-10.31,4.31Z"/>
      <path class="cls-1" d="M20.46,13.77c-1.96-5.33-4.64-8.08-5.35-13.2-.04-.26-.53-.69-.63-.55-.11.15-.38.55-.46.73l-1.06,2.35c.55,3.49,3.3,6.02,4.57,9.84-1.77,1.64-3.49,3.13-5.42,4.34-3.89-.72-7.04-2.16-10.34-4.34-.81.58-1.35,1.08-1.77,1.69,3.97,2.74,8.04,4.56,12.72,5.16,2.79-1.75,5.24-3.83,7.74-6.03Z"/>
      <path class="cls-1" d="M21.65,52.83l.09,2.96c4.5,1.75,9.11,1.65,13.78.34.31-1.04.46-2.28.45-3.28-7.21,2-7.63,1.73-14.33-.02Z"/>
      <path class="cls-1" d="M37.05,50.5c3.64-.95,5.9-1.73,8.8-2.98l-.48-4.3-7.91,2.47-.41,4.82Z"/>
      <polygon class="cls-1" points="11.95 47.68 20.58 50.53 20.07 45.58 12.16 43.3 11.95 47.68"/>
      <path class="cls-1" d="M11.87,51.86c3.06,1.53,6.02,2.74,9.22,3.84.14-1.76.15-2.7.03-3.72l-8.73-2.84c-.55.58-.84,1.95-.52,2.71Z"/>
      <path class="cls-1" d="M45.03,49.22l-8.48,2.73c-.22,1.18-.23,2.6.08,3.88l9.41-4.02c-.08-1.09-.44-2.3-1.01-2.59Z"/>
      <path class="cls-1" d="M54.04,22.19l2.23-.66-1.5-3.44-5.84,2.27c1.13,1.79,3.14,2.42,5.12,1.83Z"/>
      <path class="cls-1" d="M8.65,20.42l-5.86-2.41-1.29,3.71c2.73.55,5.57,1.25,7.16-1.31Z"/>
      <path class="cls-1" d="M50.33,22.6l-2.73-1.88c.39,2.08,2.33,3.47,4.35,3.77,1.55.24,6.67,0,5.52-1.75-.96-1.46-3.85,1.1-7.14-.15Z"/>
      <path class="cls-1" d="M7.02,24.15c1.54-.59,2.79-1.96,3.1-3.52l-2.86,1.99c-1.58,1.1-5.44-.91-6.93.25-1.7,1.33,4.13,2.25,6.69,1.28Z"/>
      <path class="cls-1" d="M43.07,34.52c-.84,0-1.19,2.48-.56,2.85l3.35.61.62-3.05c-1.19-.21-2.45-.42-3.4-.41Z"/>
      <path class="cls-1" d="M15.45,36.81c.05-.57-.13-1.88-.58-2.17-.59-.37-3.4-.02-3.51.41-.25,1.02.33,2.72.66,2.71l1.49-.04c.68-.02,1.89-.37,1.94-.91Z"/>
      <path class="cls-1" d="M20.87,18.2c-.21-.58-1.02-1.35-1.64-1.9l-2.17,1.75,1.86,2.75c1.53-.42,2.45-1.22,1.95-2.6Z"/>
      <path class="cls-1" d="M38.84,20.73l1.79-2.47-2.21-1.89c-.78.65-1.83,1.61-1.83,2.5,0,1.14,1.26,1.71,2.25,1.86Z"/>
      <path class="cls-1" d="M10.56,28.62c.74,3.61,5.64-6.04,4.03-8.28-1.87,2.16-.12,5.03-4.03,8.28Z"/>
      <path class="cls-1" d="M42.98,20.42c-.53,3.56.94,7.09,3.7,9.14,1.03-2.04-1.87-.85-2.76-7.2-.1-.72-.37-1.43-.93-1.94Z"/>
      <path class="cls-1" d="M15.52.82c.29,1.5.73,2.61,1.28,3.55.16-2.05,0-2.93-1.28-3.55Z"/>
      <path class="cls-1" d="M40.75,4.54c.63-1.21,1.12-2.43,1.32-3.87-1.36.83-1.48,2.33-1.32,3.87Z"/>
    </g>
  </g>
</svg>