<?xml version="1.0" encoding="UTF-8"?>
<svg id="Warstwa_2" data-name="Warstwa 2" xmlns="http://www.w3.org/2000/svg" viewBox="0 0 57.86 57.97">
  <defs>
    <style>
      .cls-1 {
        fill: #fff;
      }
    </style>
  </defs>
  <g id="icon-v9-equipment-pixarts-store">
    <g id="icon-v9-equipment-pixarts-store_100">
      <path class="cls-1" d="M3.19,39.04c4.35,1.48,10.22,2.5,14.66.1,2-1.08,3.03-2.8,5.54-3.31,3.47-.71,7.9-3.94,9-7.38.86-2.7,1.24-5.4.77-8.08l-2.37-13.53c-.17-.99.59-2.08,1.35-3.17-5.22.47-10.71,1.55-16.03-.79C22.17.23,28.64.83,34.78,1.74l-.82.96,2.47-.8c-.56-.49-1.34-1.01-2.11-1.16-6.12-1.18-12.29-.97-18.18.85-1.46.45-1.71,1.72-1.34,3.04,1.46,5.03,2.4,10.02,2.91,15.22,1.71-.11,3.18-.07,4.5.77l-2.76-.22c-.56-.04-1.64.24-2.04.6-.4.36-.61,1.72-.45,2.22,2.51-.58,6.55.74,7.82,2.66-11.8-6.3-6.05,3.45-18.97,5.88-2.51.47-4.09,2.09-4.29,4.67-.09,1.19.2,2.11,1.67,2.61Z"/>
      <path class="cls-1" d="M16.39,49.03c.13-.18-.36-.79-.61-.72-4.2,1.08-10.16.6-14.02-2.09-.47-2.15-.58-3.68-.29-5.66,7.32,4.12,19.34.66,16.44.23-1.63-.24-8.95,2.35-15.95-1.31-.47-.25-1-.48-1.32-.57-.25-.07-.65.87-.64,1.15l.16,5.59c.13,4.35,14.48,5.87,16.23,3.39Z"/>
      <path class="cls-1" d="M10.79,43.86c-.41.23-1.28.99-1.1,1.37.29.53.7,1.09.56,1.38l-.57,1.14,1.52-.49,1.6.54-.85-1.75,1.1-1.72c-.74-.47-1.73-.77-2.26-.47Z"/>
      <path class="cls-1" d="M2.95,42.84l.86,2.04.51,2.37.92-2.32,1.13-1.05c.19-.18-.48-.62-.74-.58l-2.68-.46Z"/>
      <path class="cls-1" d="M15.29,47.13l.54-.19c.53-1.39.9-2.05,1.93-3.98-.64,0-1.87.2-2.35.38,1.33,1.71-1.42,4.25-.12,3.79Z"/>
      <path class="cls-1" d="M28.04,47.3c6.34.73,12.32-.85,17.39-4.48,4.31-3.08,9.49-3.05,10.48-5.97,1.09-3.23-.64-6.17-1.28-9.19l-.26-3.97c-.48-7.44,4.98-19.49.99-20.3-6.7-1.36-13.57-1.36-20.1.68-.83.26-1.83.97-2.15,1.55-.32.58-.06,1.82.12,2.56,1.41,5.56,2.04,11.06,2.78,16.95,2.35-.66,4.85-.65,6.61,1.03l-4.62-.86c-.67-.13-2.04.33-2.53.8-.41.38-.45,1.52-.3,2.25,3.26-.58,6.88.17,8.58,3.05-2.5-1.5-6.04-4.14-8.3-1.86l-5.75,5.81c-2.8,2.83-12.44,1.99-9.74,9.52,1.81,1.85,5.48,2.15,8.07,2.44ZM47.85,28.02l4.62-3.12c-.61,1.7-2.28,3.19-4.62,3.12ZM34.73,5.9c3.43-2.63,16.37-2.92,20.43-1.14-2.55,3.03-17.3,3.55-20.43,1.14Z"/>
      <path class="cls-1" d="M19.68,55.34c9.71,4.3,17.56,3.08,26.62-1.87l1.54-4.97,2.23,2.58c2.27-.81,7.55-2.3,7.61-5.19l.17-7.06c0-.35-.36-1.21-.67-1.21-1.54.01-.05,1.28-4.42,2.97-1.88.73-4.07,1.24-5.69,2.43-8.38,6.16-19.64,7.55-29.04,2.27-.21,3.55-1.37,8.72,1.64,10.06ZM44.56,46.03c2.49-1.49,4.49-3.02,7.3-3.89,1.51-.47,2.87-1.19,4.48-1.91-.13,2.05.52,4.9-.63,6.52-1.08,1.53-3.71,2.16-5.22,2.64-.12-1.91-.17-3.33-.67-4.83-5.91,3.57-1.66,6.67-6.93,9.11-7.6,3.51-16.1,3.87-23.59-.09l-.12-6.25c8.31,3.37,17.71,3.31,25.39-1.3Z"/>
      <path class="cls-1" d="M22.15,53.47l.06-.84,1.99,1.98.41-3.5c.06-.49-1.41-.83-1.75-.61l-1.66-1.17.02,4.6c.62-.16.92-.26.93-.47Z"/>
      <path class="cls-1" d="M53.64,46.71l.84.38c.14.06.38-.45.4-.61l.24-2.18c.07-.63-.62-1.54-1.22-1.62-.53-.08-1.69.77-1.65,1.33l.28,3.99,1.13-1.28Z"/>
      <path class="cls-1" d="M41.98,51.53l1.64,1.14c.38-1.73.51-3.02-.24-4.44-.66.64-.55,1.21-.53,2.27l-1.84-1.68c-.46,1.75-.46,2.81.09,4.64l.89-1.93Z"/>
      <path class="cls-1" d="M29.39,55.33c.1.15.72.06.71-.12l-.09-1.12c-.04-.47.48-1.06,1.05-1.72.45-.51-1.38-2.04-1.67-1.42l-.34,1.43c-.05.23-.65-.25-1.24-.44-.12.82.46,1.65.99,2.48l.59.91Z"/>
      <path class="cls-1" d="M37.98,54.25l-1.88-1.67c.97-1.07,1.52-1.61,1.68-2.48-1.48.36-2.75,1.76-2.99,2.87.85,1.04,2.21,2.15,3.18,1.28Z"/>
    </g>
  </g>
</svg>