<?xml version="1.0" encoding="UTF-8"?>
<svg id="Warstwa_2" data-name="Warstwa 2" xmlns="http://www.w3.org/2000/svg" viewBox="0 0 49.47 60.1">
  <defs>
    <style>
      .cls-1 {
        fill: #fff;
      }
    </style>
  </defs>
  <g id="icon-v9-equipment-pixarts-store">
    <g id="icon-v9-equipment-pixarts-store_123">
      <path class="cls-1" d="M3.95,42.67c-1.09-.03-2.88.89-3.95,1.61.03.68.6,2.04,1.19,2.23.56.17,1.59-.02,2.78-.11l-1.51,2.07,5.23,5.16,2.65-2.24-1.14-.46c.65-.17,1.48-.2,2.18,0,.5.14.92,1.38.78,1.98l-.56,2.4,4.66,2.24,2.55-1.83.42,2.45,4.5,1.48c.62-.82,1.09-2.96.46-3.62-.29-.31-1.78-.47-1.78-.9v-1.76s2.31.2,2.31.2l-.51-3.8-1.9-.41-.06-2.14,2.07.04c.69-4.2-2.67-1.33-2.45-5.2l2.04.22c.23-.3.02-1.96-.54-2.13-.67-.21-1.58-.64-1.69-1.09-.1-.4.08-1.42.46-1.49.42-.08,1.58.38,1.65.04l.32-1.52c.06-.28-.6-.4-1.23-.47-.7-.08-1.24-1.03-1.01-1.74.15-.44.94-.52,2.03-.58l.21-3.28c.14-2.2.09-4.63-.11-6.6-.91-.05-1.91-.19-1.96-.59-.04-.34-.04-1.08.2-1.32.24-.24,1.01-.25,1.57-.39.48-1.01.14-3.31-.94-3.67-.83-.28-1.25-.34-1.42-.71-.16-.37-.03-1.77.37-1.76l1.83.08.19-2.17-2.29.17.34-1.71c.08-.42,1.21-.52,1.82-.78.5-.22.34-1.51.31-2.25l-2.03.15c-.16-.06-.26-1.42.08-1.67,1.43-1.06,2.1-.6,2.28-1.74.05-.34-.14-1.21-.48-1.2l-1.52.06c-.61.02-.06-1.71.47-2l1.13-.61c.26-.14-.21-1.39-.5-1.31-5.74,1.62-12.31,5.74-14.58,11.75-1.3,3.45-.94,7.17-1.09,10.54l2.11-6.36c-.58,6.45-2.7,12.21-4.7,18.22-.87,2.6,1,4.92,2.51,6.7l6.29,7.43c-3.46-1.72-6.15-6.27-8.25-7.5-.23-.14-1.08.62-.94.83l2.72,4.28c-1.37-.85-2.38-2.1-3.57-3.23ZM14.46,45.52l6.13,3.96c-2.57-.45-4.5-1.94-6.13-3.96ZM12.55,24.42c.44-1.23,2.3-.83,3.35-.34,1.95.9,4.16,1.5,5.76,2.82.25.77-.94,2.3-1.7,2.32-2.16.07-4.17-.25-6.01-1.37-.8-.49-1.72-2.53-1.4-3.42ZM12.23,38.81c0-.82-.16-1.94-.55-2.94l-1.67-4.27c.78.86,1.53,1.86,2.18,2.92l2.27,3.68-1.47-.86c.17,1.21.75,2.28,1.81,3.26l.06,1.1c-.86-.86-1.89-1.96-2.64-2.91Z"/>
      <path class="cls-1" d="M45.35,42.67c-1.36,1.41-2.43,2.53-3.85,3.69l3.25-5.04c-1.9-2.34-5.55,5.46-8.48,6.25l6.88-8.41c1.53-1.87,1.35-4.06.65-6.17-1.7-5.16-3.63-10.01-4.18-15.6l1.96,5.14c-.25-3.59.1-7.47-1.3-11.01C36.47,1.91,23.14-1.6,25.19,1.03c.99,1.28,2.06.22,2.25,1.73.05.35-.35,1.12-.62,1.16-.83-.2-1.86-.17-1.75.76.25,2.22,2.47.95,2.26,2.24l-.24,1.46-1.94-.23c-.08.89-.14,2.24.4,2.4.71.21,1.75.5,1.82.95.07.51-.1,1.58-.56,1.53l-1.68-.19c-.27-.03-.36.99-.41,1.31-.48,3.02,2.52,1.04,2.13,3.78-.09.61-.75.6-1.93.46l.26,2.13c1.05-.1,1.9-.08,1.95.39.07.64-.33,1.55-.77,1.7-.54.18-1.34.38-1.34.7l.02,1.19c.06,2.83.02,5.32-.12,8.21l2.16-.73c1.73,3.76-2.79,1.46-2.08,5.94l2.26-.2c-.09.9-.15,1.48-.24,1.93-.07.38-1.48.47-1.92.59-.49.13-.3,1.58-.08,2.06.22.46,1.3.61,1.97.73.44.08.55,1.66.12,1.79l-1.6.48c-.44.13-.23,1.55-.06,1.75l1.83-.05c.32,0,.3,1.12.27,1.43-.03.32-.52.6-1.01.77-1.18.41-1.44,1.45-1.13,2.73l.34,1.42c.07.28.88-.1,1.28-.13.3.26.78,1.58.44,1.96-.3.33-1.16.66-1.8.98.12,1.16.46,2.64.83,3.94l6.04-2.23.08-2.72,1.2,1.89,3.57-1.72-1.31-4.27,4.41,3.14c1.82-1.19,3.55-2.62,4.9-4.16l-1.33-2.32-.32-.56c-.06-.11.14-.48.25-.43l.55.28c.29.15.86.48,1.06.34l.79-.53.55,1.31c.94-1.07,1.91-2.22,2.52-3.72-.93-.91-2.99-1.82-4.12-1.75ZM35.14,10.6l1.11-.08s-.5.72-.47.9l.47,3.1-1.15-2.33-.76.55c.26-1.34-.37-2.18-1.13-3.63.8-.33,1.66,1.5,1.92,1.48ZM27.74,49.95l6.52-3.52c-1.63,2.06-3.92,3.76-6.52,3.52ZM33.83,28.88c.54,1.58.69,3.78.17,5.92l-1.11-3.89c-.09-.3-.06-1.09-.09-1.39-.09-.87-4.72,1.24-5.33-2.7l4.15-2.25-.62-1.85c-.4-1.2-.67-2.45-.96-4.08l2.26,3.68c.23.38.39,1.73.57,1.84,1.18-.42,3.1-1.16,3.69,0,.96,1.9-1.17,3.95-2.74,4.7ZM38,34.48l-.2,1.35c-.27,1.78-.57,3.26-1.64,4.53,0-2.19.44-4.02,1.84-5.89Z"/>
      <path class="cls-1" d="M22.4,15.86c.96,1.2,2.12,1.87,3.77,1.88-.86-1.24-2.24-2.03-3.77-1.88Z"/>
      <path class="cls-1" d="M22.67,7.58l4.1-.27c-1.35-1.36-3.17-1.03-4.1.27Z"/>
      <path class="cls-1" d="M26.83,33.64l-.67-.51-3.48,1.51c1.72.6,2.33-.02,4.15-1Z"/>
      <path class="cls-1" d="M26.81,12c-1.41-1.5-3.07-1.16-4.35.08l4.35-.08Z"/>
      <path class="cls-1" d="M26.73,54.32l-3.69-.06c1.19,1.44,3,1.32,3.69.06Z"/>
      <path class="cls-1" d="M26.89,47.67l-3.9.65c1.44,1.01,3.09.96,3.9-.65Z"/>
      <path class="cls-1" d="M26.65,43.98c-1.27-.45-2.4-.73-3.82-.94.86,1.33,2.41,1.82,3.82.94Z"/>
      <path class="cls-1" d="M22.89,22.85c1.31-.15,2.5-.57,3.63-1.27-1.64-.41-3.01-.02-3.63,1.27Z"/>
      <rect class="cls-1" x="22.76" y="38.59" width="3.52" height=".74"/>
      <path class="cls-1" d="M22.88,2.98l3.83-.06c-1.43-1.17-2.97-1-3.83.06Z"/>
    </g>
  </g>
</svg>