<?xml version="1.0" encoding="UTF-8"?>
<svg id="Warstwa_2" data-name="Warstwa 2" xmlns="http://www.w3.org/2000/svg" viewBox="0 0 56.23 57.12">
  <defs>
    <style>
      .cls-1 {
        fill: #fff;
      }
    </style>
  </defs>
  <g id="icon-v9-equipment-pixarts-store">
    <g id="icon-v9-equipment-pixarts-store_32">
      <path class="cls-1" d="M39.48,37.35l1.08-5.69c.83-4.35,1.46-8.51,1.49-13.04-.61.64-1.09,1.39-1.42,2.26-2.1,5.43-6.4,14.13-11.21,16.93,4.22-5,7.4-9.95,9.13-15.89l-5.25,3.86c-.16,1.11-.53,2.21-1.62,2.75l-6.79,3.34c-.42.2-1.56-.05-2.09-.15-2.59,3.62-.89,6.11-3.65,7.32-1.31.57-6.71-2.11-5.39-5.81-.31-.13-1.41.08-1.56.4l3.7,7.44c-2.24-2.45-3.53-5.21-5.58-8.07,1.19,6.14,2.15,11.75,2.27,18.07,2.91-5.85,2.93-3.29,3.99-4.26l.75-.69c.14-.12.61.48.67.7l1.87,6.28c.53-1.63,1.14-2.93,2.4-3.59l.35-4,1.23,3.61c3.1,2.86,2.25,4.55,3.87,8,1.76-7.79,3.29-5.51,5.77-11.23.51.1,1.11,1.05,1.44,1.88,1.55-3.83,3.05-4.51,2.56-9.11-.07-.68.7-2.05.9-2.45l1.06,1.14ZM25.12,46.09c-.56.79-2.34-.23-2.25-1.12.17-1.63.32-2.65.65-4.48l1.25,1.93c.61.94,1.21,2.44.34,3.66ZM33.46,43.08l-1.89,1.53c.3-2.44.96-4.83,2.84-6.45.74,1.65.45,3.78-.95,4.92Z"/>
      <path class="cls-1" d="M2.28,20.61l5.21,4.6c.79.48,2.73.07,3.62-.2l-2.47-1.6,4.49.95c1.49.32,3.96-.78,5.48-1.24l.87-1.75,8.57-4.02,1.79.1,4.23-3.37c-4.97.86-9.6,1.43-14.49,1.11,5.18-1.57,11.02-.45,15.95-3,2.23-1.15,5.82-5.47,4.75-8.19-2.65,3.1-6.7,7.44-10.4,8.09l5.56-4.24c1.66-1.26,3.08-2.74,4.34-4.53.46-.65.3-2.3.2-3.32-2.58-.16-4.75.46-7.2.97l-9.65,1.99c.15,2.24-3.9,2.94-6.4,3.75-1.83.59-3.47.93-5.07.46l.9-1.55C10.18,6.71.89,9.79.07,11.5c-.54,1.13,2.24,3.78,2.67,5.68l-.46,3.44ZM4.11,19.37h8.24c-3.36-1.45-6.82-1.63-9.61-4.31,5.26,1.96,10.45,3.42,16.33,4.37-4.96,1.15-10.06,1.22-14.97-.07ZM2.07,11.52c2.47-1.85,4.95-3.16,8.1-4.02l-1.26,1.85c1.5-1.04,3.22-.9,4.81-1.35l8.85-2.48c.25-.07.83-.29,1.01-.41.23-.15.03-.71,0-1.38,3.48-1.34,10.22-2.12,14.02-2.29-1.28,2.91-4.12,3.4-6.13,5.11-.76.65-1.24,1.11-2.26,1.46l-7.53,2.63,3.74.39c-3.38,1.16-6.65,1.85-10.08,2.6l.04-.69c0-.14-.54-.36-.78-.33-4.45.54-8.26.32-12.54-1.09Z"/>
      <path class="cls-1" d="M47.14,26.01l1.4-8.56c.14-.85-.34-1.69-.96-2.03l-2.47-1.35c-.38,1.16-.64,2.45-.88,3.73l-1.5,7.99c-.36,1.93-.73,3.88.91,5.43,1.32-.22,2.3.51,2.94,1.59l2.68,4.49-.09-3.71c.87.85,1.85,1.84,2.95,2.25l4.1,1.54c-2.84-5.43-5.28-10.42-7.37-15.96l-1.71,4.6Z"/>
      <path class="cls-1" d="M30.19,18.76l2.64,5.8c4.49-2.79,8.34-6.28,11.35-10.86,1.08-1.64.9-2.96-.17-4.38l-1.5-1.98c-.09-.67-.25-1.72-.67-2.5-1.28,6.08-6.72,10.13-11.66,13.92ZM34.3,20.67c-.51,0-.93-.42-.93-.93s.42-.93.93-.93.93.42.93.93-.42.93-.93.93ZM38.83,16.74c-.5,0-.91-.41-.91-.91s.41-.91.91-.91.91.41.91.91-.41.91-.91.91ZM42.43,10.2c.42,0,.77.34.77.77s-.34.77-.77.77-.77-.34-.77-.77.34-.77.77-.77ZM41.07,9.72c-.41,1.66-1.71,3.09-3.54,4.05l3.54-4.05Z"/>
      <path class="cls-1" d="M41.39,41.19l.98-1.2,2.86,6.26.79-6.59c.42-3.46,1.49-5.02-2.43-7.3l-.25,1.94-1.51-2.56-1.94,6.65c-.39,1.33.2,2.48,1.49,2.79Z"/>
      <path class="cls-1" d="M19.53,24.88c-2.45,2.59-4.16,5.99-4.84,9.95.08,1.17,2.8,3.14,3.97,3.07,1.33-.08.84-4.37,3.62-7.43l-2.07-4.43c-.04-.09-.79.32-.77.22l.09-.42c.02-.09.02-.36.01-.96ZM20.28,30.05c0,.49-.4.89-.89.89s-.89-.4-.89-.89.4-.89.89-.89.89.4.89.89Z"/>
      <path class="cls-1" d="M17.41,24.87c-4.14.91-6.11,1.69-10.83,2.01l2.51,4.91c1.11.39,3.88.29,5.05-.36l2.5-4.99c-2.77.58-5.12,1.43-7.78,1.33l7.82-1.99c.21-.05.64-.42.71-.52.07-.09.12-.42,0-.4Z"/>
      <path class="cls-1" d="M28.29,18.53l-8.35,4.04,3.97,8.47c3-1.29,5.34-2.47,8.19-4.06-.28-1.36-.61-2.44-1.07-3.42-1.37.67-.5,1.85-.39,2.8-1.63,1.49-3.79,2.44-6,3.03l-3.11-6.3,5.68-2.86c.97-.49.78,1.18,1.97,1.75.16.08.84-.6.75-.75l-1.64-2.7Z"/>
      <path class="cls-1" d="M27.88,22.21c.14-.14-.49-.76-.68-.68l-4.24,1.98,2,4.5c4.26-.65,5.09-3.25,4.24-2.96l-.81.27c-.5.17-1.49-.03-1.74-.54-.26-.54.07-1.46.47-1.85l.76-.73Z"/>
      <path class="cls-1" d="M27.59,24.53l2.67-1.15c.23-.1.38-1.11.15-1.03l-.74.27c-.99.36-2.13.45-2.08,1.9Z"/>
    </g>
  </g>
</svg>