<?xml version="1.0" encoding="UTF-8"?>
<svg id="Warstwa_2" data-name="Warstwa 2" xmlns="http://www.w3.org/2000/svg" viewBox="0 0 52.91 56.09">
  <defs>
    <style>
      .cls-1 {
        fill: #fff;
      }
    </style>
  </defs>
  <g id="icon-v9-equipment-pixarts-store">
    <g id="icon-v9-equipment-pixarts-store_234">
      <path class="cls-1" d="M21.78,37.1c.56,6.7,3.35,16.03,10.41,18.99-2.59-6.19-2.88-13.53-1.75-19.55.09-.47-.85-1.48-1.02-1.24l-.66.91c-.2-.73-.62-1.87-1.26-2.05-.82-.23-1.87-.26-2.73-.11-.4,3.5.04,6.64.47,10.46-1.25-2.81-1.82-5.8-2.19-9.14-.71.05-1.33.93-1.26,1.73Z"/>
      <path class="cls-1" d="M14.3,45.83c.11-4.55,1.04-8.49,3.13-12.48.22-.42-.01-1.23-.49-1.58l-2.32,3.47c.15-1.69,1.05-3.18,1.44-4.81.35-1.46-3.21-2.7-3.94-1.55-2.43,4.24-1.81,13.81,2.19,16.95Z"/>
      <path class="cls-1" d="M40.76,28.78c-1.09-.75-4.13.37-4.01,1.64.66,2.07,1.5,3.92,1.84,5.78l-2.68-4.35c-.5.49-.64,1.27-.31,1.9,2.06,3.95,2.89,7.68,3.05,12.17,4.11-3.81,4.51-12.65,2.12-17.14Z"/>
      <path class="cls-1" d="M23.1,27.19c-.62.64-1.07,2-1.11,2.93,1.28-.59,2.16-.96,3.34-.45-1.7.95-5.64,2.37-4.36,5.52,2.65-3.04,6.62-3.25,9.54-.43.26.25,1.01.66,1.16.37,1.24-2.37-1.83-3.8-3.41-5.03.84.1,1.72.3,2.76.55.21-.42.01-2.47-.7-2.72l-4-1.38c-1.05-.37-2.41-.2-3.22.64Z"/>
      <path class="cls-1" d="M9.35,24.83l-.85-.04-2.76,1.51c.84-1.11,2-2.13,3.16-3.22.03-1.03-1.68-2.69-2.88-2.52C2.52,23.91.18,28.69,1.2,33.79c1.84-3.14,5.01-6.39,7.89-7.8.25-.12.45-1.15.27-1.16Z"/>
      <path class="cls-1" d="M46.68,20.44c-1.32.46-2.62,1.58-2.78,2.68l3.46,3.26-3.43-1.62c-.16-.08-.57.22-.68.36-.11.14.29.81.48.9,3.52,1.74,5.87,4.54,8,7.81.83-5.27-1.43-9.99-5.05-13.39Z"/>
      <path class="cls-1" d="M37.59,25.89c-2.62.75-6.4,4.82-3.39,6.55,1.11-3.63,3.73-5.42,7.34-4.91-.62-1.97-2.43-2.07-3.95-1.64Z"/>
      <path class="cls-1" d="M18.68,32.41c1.64-1.09,1.18-2.75.31-3.88-1.23-1.61-2.9-2.84-5-2.87-1.12-.02-2.2.38-2.38,1.87,3.36-.68,5.89,1.47,7.06,4.89Z"/>
      <path class="cls-1" d="M46.81,19.31c-.36-1.07-1.44-1.16-2.36-.85-1.97.67-3,2.45-3.61,4.4-.35,1.1.15,2.55,1.44,2.43.26-3.16,1.78-5.17,4.53-5.98Z"/>
      <path class="cls-1" d="M10.63,25.46c.77-.16,1.67-1.02,1.47-2.05-.34-1.73-1.16-3.27-2.29-4.23-1.09-.92-2.63-1.44-3.86-.07,3.08.99,4.28,3.41,4.68,6.35Z"/>
      <path class="cls-1" d="M32.82,25.12c-1.15.71-1.08,2.64.03,3.31,1.59-2.1,3.42-3.21,5.9-3.89-.88-1.54-2.41-1.58-3.68-.8l-2.25,1.38Z"/>
      <path class="cls-1" d="M14.29,24.44c2.58.87,4.26,1.95,5.93,3.95.76-1.06.81-1.94.48-2.68-.41-.89-2.94-2.07-4.2-2.59-.61-.25-1.96.84-2.2,1.31Z"/>
      <path class="cls-1" d="M43.73,17.6c-1.09-.94-2.47-.61-3.27.45l-1.68,2.12c-.49,1.01-.12,2.53,1.1,2.73.85-2.46,1.96-4.03,3.85-5.31Z"/>
      <path class="cls-1" d="M13.15,22.94c.67-.17,1.55-1.73,1.02-2.46l-1.85-2.55c-.66-.91-1.96-1.17-3.08-.57,1.78,1.56,2.92,3.23,3.91,5.59Z"/>
      <path class="cls-1" d="M48.67,6.69l-1.24,4.67c-.09.33.21.98.42,1.19.16.17.94-.21,1-.46l1.32-5.15c.08-.32-.46-1.19-.75-1.07-.23.1-.69.54-.76.82Z"/>
      <path class="cls-1" d="M2.79,7.18l1.21,4.79c.08.32.79.83,1.07.68.22-.12.52-.74.45-1.03l-1.25-4.84c-.08-.32-.75-.82-.98-.67-.22.15-.56.79-.49,1.07Z"/>
      <path class="cls-1" d="M2.31,8.33L1.02,1.43c-2.17-.15-.44,8.37,1.29,6.9Z"/>
      <path class="cls-1" d="M51.94,1.4l-1.38,6.98c1.78,1.48,3.46-7.44,1.38-6.98Z"/>
      <path class="cls-1" d="M3.09,10.86c-.28-.03-1.07,1.1-.95,1.61,1.63,6.91,2.95,4.94,2.97,4.98l-.23-.7-1.79-5.89Z"/>
      <path class="cls-1" d="M49.86,10.79l-1.77,5.94c-.29.97.8,2.67,2.66-4.11.15-.54-.43-1.57-.89-1.82Z"/>
      <path class="cls-1" d="M48.8,1.07c-1.72.91-2.56,5.72-1.21,6.77.37-.21,2.04-7.21,1.21-6.77Z"/>
      <path class="cls-1" d="M3.59,1.06l1.65,6.8c1.73-.29.11-7.86-1.65-6.8Z"/>
      <path class="cls-1" d="M7.51,15.31c.07.19.77.55.81.37.04-.14.22-.67.2-.82-.89-5.19-3.41-5.75-2.7-3.91l1.69,4.36Z"/>
      <path class="cls-1" d="M47.1,9.83c-1.31-.44-3.59,5.96-2.2,6.12,1.23-2.08,2.01-3.88,2.2-6.12Z"/>
      <path class="cls-1" d="M50.41,3.42c.17-.11.54-.51.58-.72l.48-2.56c-.34-.09-1.55-.24-1.61.12,0,.04-.84,4.01.54,3.16Z"/>
      <path class="cls-1" d="M2.74,3.34c.89,0,.66-3.28.09-3.31-.41-.02-1.16-.13-1.16.15v1.17c-.02.64.25,1.99,1.07,1.99Z"/>
      <path class="cls-1" d="M5.67,16.74c.18.53,1.23.71,1.54-.05.25-.62-.56-1.82-1.19-1.75-.68.07-.55,1.18-.35,1.8Z"/>
      <path class="cls-1" d="M47.39,16.56c.25-.66.18-1.58-.66-1.72l-1.22,2.08c.85.58,1.58.42,1.88-.36Z"/>
    </g>
  </g>
</svg>