<?xml version="1.0" encoding="UTF-8"?>
<svg id="Warstwa_2" data-name="Warstwa 2" xmlns="http://www.w3.org/2000/svg" viewBox="0 0 54.46 57.23">
  <defs>
    <style>
      .cls-1 {
        fill: #fff;
      }
    </style>
  </defs>
  <g id="icon-v9-equipment-pixarts-store">
    <g id="icon-v9-equipment-pixarts-store_314">
      <path class="cls-1" d="M43.45,2.63l-4.19.02.94-1.06-3.05.22.15-.89-2.89.84.87-1.36-2.99.9.33-1.11-2.87,1.14c-.06-.46-.08-1.24-.23-1.15l-.71.45c-.23.14-.51.41-.64.35l-.63-.28c-1.89.91-2.5-1.41-2.57-.46l-.06.88-1.72-1.05.11,1.26-3.87-1.09.83,1.22-2.79-.76.61,1.07-4.35-.38,1.45,1.34-4.14-.13,1.25,1.12c-1.82.3-2.95.47-4.08.92l1.51.67-5.56,1.91,2.01.64-3.73,2.48,1.61.28-2.75,2.27,1.81-.16c-.7,1.14-1.37,2.36-2.04,3.84l1.24-.45-.05,2.8c1.73-2.06,1.3-4.49,2.62-5.46l-.5,2.64,3.71-3.19-.64,1.9,1.62-.69.73.21c.16.05-.04.66-.12,1.13l.92-.42,2.82,1.34c.76.36,1.06,2.07,2.29,1.39l-3.34-6.47,1.13-.62c.18-.1.12.76.14.83.88-.24,1.72.07,2.4.63.34-.02,1.52-.05,1.74.28l2.74,4.12c.7-1.14.15-2.21-.4-3.23.03-.4.17-.83-.01-1.07-.15-.2-.8-.71-.9-.93-.3-.69-1.08-1.87-1.82-2.45l.87-.07-1.57-2.37,1.75.73-.33-1.76.79.63c.12.1.26-.61.41-.66.22-.07.95,0,.9-.23l-.31-1.38,1.09.86c.32-.27.53-.52.64-.46l.58.28c3.56-.61,7.4-.56,10.92.51l1.03-1.29-.1,1.29c-.02.25.61.29.83.46.28.28.67.75.86.62l.95-.64-.34,1.4,1.7-.64-1.99,2.33c.64.03,1.12.05,1.26.05,0,0,0,0,0,0,.05,0,.05,0,0,0-1.44.84-2.7,3.5-2.88,3.3l.39.44-1.59,1.27c.57.35.8.4.71.56-.1.17-.38.61-.4.76l-.18,2.09c-.07.03.52-.24,1.11-.53l.04,1.72c.18-.09.82-.67.86-.46l.22,1.1.18.89c.02.09.21-.22.27-.3l.48-.57.61,2.05,1.2-1.65.55,1.88,1.2-1.4c.71-.44,1.15-1.05,1.6-2,.16.12.91.96,1.07.72l.62-.99c.14-.22.99.67,1.07.43l.42-1.26.82.31c.19.07.35-1.03.52-.94l1.31.72c.27.15.47-.91.58-1.33l1.69,1.06-.05-1.55,1.42,2.5c.08.15.42.55.53.67.07.08.28-.09.29-.2l.03-.65.03-.71c0-.08.26.25.34.26l.62.07c-.36-1.24-1.1-2.68-1.77-3.74l1.33-.05-2.46-2.2,1.46-.36-2.78-1.91,1.4-.5-2.84-.99.7-.92-3.48-.8,1.35-.95-4.33-.79,1.84-.93Z"/>
      <path class="cls-1" d="M37.34,8.51s0,0,0,0c.05,0,.05,0,0,0Z"/>
      <path class="cls-1" d="M15.83,27.64l-1.49-2.56-1.53,4.41c.1,1.21.52,2.85.87,4.36l3.58-2.46-.79-2.72c-.04-.15.23-.66.36-.75.13-.09.58.03.52.17l-.29.76c-.21.54.44,1.53.87,2.11l5.11-3.96c-2.89-1.81-4.59-3.84-5.76-6.8-.41-1.04-2.46-1.32-3.21-.58-.25,2.18.19,4.53,1.26,6.21.38-.35.55-.63.65-.52.09.1.28.33.28.34,0,0-.25.44-.29.53l-.14,1.47Z"/>
      <path class="cls-1" d="M35.31,21.19c-1.66,1.28-3.26,2.71-4.74,4.3-.43.46-.65,1.02-1.52,1.58,2.04,2.12,4.49,4.33,6.9,6.19,1.05-.69.83-1.85-.02-2.69l1.06-1.3,1.25-3.18c.06-.14-.07-.89.08-.88,2,.05,1.85-2.47,1.81-3.83l-1.55,1.1c-.4-.48-.62-.91-.78-.77l-.82.71c.21-.46-1.19-1.61-1.68-1.23Z"/>
      <path class="cls-1" d="M24.78,39.52l1.93-.05-.29-3.84c-1.01.29-1.7.71-1.91.36-.26-.42-.33-1.35-.19-1.73.14-.38,1.38,0,1.72-.24.97-.66.87-3.82-.9-4.08l-6.45,4.67.56,5.45,4.47.97,1.34-.94-.61-.44c-.09-.06.13-.13.33-.13Z"/>
      <path class="cls-1" d="M40.6,40.08l-.85-1.06c.69.1,1.13.21,1.06.04l-.27-.62c-.06-.13.11-.32.35-.72l-4.58-3.06c-4.4-2.94-7.82-6.91-11.4-10.69l-2,1.68c4.31,4.58,11.66,12.19,17.68,14.43Z"/>
      <path class="cls-1" d="M10.63,54.2c3.7,1.58,8.31,2.67,12.58,2.97l3.39-10.35c-2.16.02-1.16,1.73-2.15,2.61l.35-2.9c-.62-.52-2.26-.81-2.89-.45l-1.1,4.26c-.32,1.22-2.87.82-3.16,1.64l-.37,1.03-.07-1.17c-.01-.18-.64-.27-.84-.32l-5.02-1.4-.73,2.4,5.31,1.78c.14-.65.07-.83.28-.83h1.04c.17,0-.06.75-.13,1.1l4.75.94,1.08-2.22c-.14.9-.39,1.59-.79,2.49-3.86-.26-7.46-1.13-11-2.61-.25-.11-.8-.04-1.02.06-.22.1.2.88.48,1Z"/>
      <path class="cls-1" d="M43.88,53.02c-.07-.09-9.62,3.42-11.77,2.66-1.53-3.14-1.92-6.27-3.95-9.15.1,3.91,1.89,7.03,3,10.69,1.72-.02,14.2-2.21,12.72-4.21Z"/>
      <path class="cls-1" d="M29.4,47.13l2.86,8.22c1.83.11,3.53-.34,5.13-.99.21-.46.27-.82.46-.75,2.36.82,3.04-.08,6-1.3l-2.85-7.72-3.78.78c-.31.06-1.09.25-1.08.53l.03,1.35c0,.29-.09.88-.16,1.22l.56.04c.15.01.13.53,0,.57l-.69.18-.74-1.72-1.07.41c-.8.3-1.08-1.4-3.05-1.73-.45-.08-1.62.45-1.59.92Z"/>
      <path class="cls-1" d="M53.41,28.7c-.41-.05-1.25.23-1.61.47l-.79.54c-.14.1.07-.33.17-.47,1.39-1.91-5.22.87-7.9-5.58-.88,1.55-.47,2.8-.08,4.07l1.34,4.3,3.12-.4-2.76,1.34c-.38,3.54,7.48-1.41,8.87-2.52.4-.32.13-1.71-.35-1.76Z"/>
      <path class="cls-1" d="M9.15,33.92c.17-.23.12-1.03-.12-1.15l-2.25-1.15,2.86.36c.32-.39.83-1.45.5-1.57l-1.52-.56c.76.08,1.72.14,2.05-.38.47-.74.33-1.61-.05-2.67-.55-.36-.31-.39.62-.24.49-.76.51-2.06-.06-2.9-1.29,2.34-2.66,4.16-5.24,4.47l-4.3.52c-5.72.7,6.45,6.67,7.52,5.28Z"/>
      <path class="cls-1" d="M49.56,45.78c-2.58-4.12-4.85-7.65-7.62-11.36l5.54,10.24-5.39-7.99c0,1.11.05,1.8.21,2.69.77,4.3-1.51,3.37,1.26,8.54,2.09-1.19,3.31-2,5.18-2.81l-4.22,3.04c-.2.14-.88.5-.77.71l.53.99c1.84-1.26,3.58-2.51,5.26-4.07Z"/>
      <path class="cls-1" d="M50.94,21.71c-4.35-.39-3.86.63-8.31-1.32l2.3,4.31c1.54,2.89,6.36,2.85,9.52,2.87-1.41-2.08-2.37-3.68-3.51-5.86Z"/>
      <path class="cls-1" d="M5.66,27.17c2.98-.21,4.67-3.71,5.76-6.12-2.91.76-5.45.84-8.13.63l-3.29,5.89,5.66-.39Z"/>
      <path class="cls-1" d="M10.36,16.54c-.13-.03-.6.33-.7.24-1.51-1.38-4.08-1.02-4.78.03l-2.41,3.6c3.98,1.04,8.19.51,11.39-2.18l-2.71-1.31c-.44-.21-.61-.34-.79-.38Z"/>
      <path class="cls-1" d="M39.05,27.31c-.96,2.16-1.68,4.15-2.32,6.59l3.7,2.71,1.29-7.21-1.71-4.25-.95,2.15Z"/>
      <path class="cls-1" d="M34.75,40.28l.32-2.11-5.22-4.09c-.04.71.17,1.71-.23,1.76l-1.73.21c-.37.95-.3,2.92.17,3.81,3.37-.89-.46,1.78,6.7.42Z"/>
      <path class="cls-1" d="M11.89,43.27c.09.88,1.19,1.85,2,1.92.24-.71.4-1.38.74-1.46.34-.08,1.28.25,1.28.6l-.03,1.36c.43,0,1.55-.21,2.15-.48,1.22-.53.1-2.16,2.59-3.96l-7.25-.91c-.83-.1-1.56,2.1-1.47,2.94Z"/>
      <path class="cls-1" d="M21.77,13.37c.34.62,1.65,1.2,2.65,1.66l-.25-2.61c.4,1.25.51,2.35,1.52,3.15.47-6.25-5.2-5.05-5.49-7.89-.28-2.7,12.64-3.02,13.81-.37-.09,3.78-5.7,1.02-5.53,8.57l1.52-3.14-.32,2.29c3.07-.39,4.91-5.66,5.25-7.66.07-.44-.77-1.27-1.2-1.44-2.71-1.07-6.03-1.38-8.98-.98-1.79.24-3.88.22-5.01,1.72-.88,1.15.15,2.3,1.22,3.28l-1.14-.1,1.96,3.53Z"/>
      <path class="cls-1" d="M18.28,50.18l.49-4.52-2.93,1.12c-.31.12-.81,1.12-1.06.92-2.3-1.78-.05-1.01-2.87-2.55-.39,1.21-.59,2.48-.28,3.66,2.19.86,4.4,1.26,6.65,1.36Z"/>
      <path class="cls-1" d="M13.91,36.51c3.95-2.44,7.22-4.67,10.73-7.38-.3-.51-.8-1.07-1.22-1.38-3.37,2.67-6.58,4.98-10.21,7.23.09.47.41,1.19.7,1.53Z"/>
      <path class="cls-1" d="M28.01,16.72l-.35,2.94,2.28.88-2.17.13c-1.02,2.83,4.43-.92,4.53-1.96l-.07-4.02-4.21,2.02Z"/>
      <path class="cls-1" d="M16.48,12.98l-.67.51-1.49-1.44c.12,1.05.44,2.4,1.04,3.32l3.01,4.61c.95-.45,1.77-1.01,2.36-1.6l-3.24-4.94c-.12-.19-.83-.59-1-.46Z"/>
      <path class="cls-1" d="M9.64,51.53c.9-.96.73-2.64.87-3.71.25-1.98.71-3.56.37-5.59-2.06,2.84-4.29,5.08-3.47,7.77.2.66,1.49,1.71,2.23,1.54Z"/>
      <path class="cls-1" d="M52.03,20.53c-.92-1.6-1.83-2.75-3.02-3.44l-.58.83c-.35.49-.38-.92-2.75.35-.83.45-1.84.87-2.46,1.44,3.2,1.69,5.69,1.29,8.81.82Z"/>
      <path class="cls-1" d="M33.63,18.88l-5.75,5.21c-.35.31-.64.96-.53,1.3.09.28,1,.73,1.27.5,1.94-1.62,4.18-3.64,5.91-5.47.29-.3-.51-1.57-.9-1.54Z"/>
      <path class="cls-1" d="M22.04,17.72c.06.86,1.67,2.15,2.35,2.67.2.16.82-.49.72-.72l-.35-.83,1.7-.14.07-2.05-4.73-2.03.23,3.09Z"/>
      <path class="cls-1" d="M36.55,44.3c1.38-.18,2.88-.49,4.39-.9l-.39-2.74-5.81.51c1.32,1.08,1.73,1.35,1.81,3.13Z"/>
      <path class="cls-1" d="M32.08,45.04c.2-1.33.16-2.45-.3-3.21l-5.3.24,1.79,1.14-2.34-.07,3.09.84-3.13.17c2.29.59,4.03.72,6.18.87Z"/>
      <path class="cls-1" d="M18.32,36.26l-.52-1.02-3,1.83c-.66.4-1.13,1.55-.86,2.25l4.18.69-.37-3.38c.4-.14.66-.21.58-.38Z"/>
      <path class="cls-1" d="M32.8,45.45c-.01.41.92,1.23,1.32,1.22,1.26-.03,2.12-3.16,1.23-4.02-.49-.47-1.53-.84-2.44-1.03l-.11,3.83Z"/>
      <path class="cls-1" d="M21.04,42.24c-.54.47-1.34,1.38-1.43,1.93l-.88,5.89c2.06,1.23,2.34-6.65,2.3-7.82Z"/>
      <path class="cls-1" d="M29.59,45.42l-4.02-.3c-.1-1.05-.11-2.62,0-3.61l4.19-.39c-1.17-.71-3.49-.81-4.43.03-.89.8-.96,3.73,0,4.35,1.08.7,3.01.69,4.27-.07Z"/>
      <path class="cls-1" d="M21.41,24.58c1.29.75,3.64-1.27,2.81-2.68-.35.95-1.43,2.42-2.56,2.48l-2.53-3.13c.82-.67,1.93-1.32,2.61-1.52l2.17,2.27c-.31-1.3-1.21-2.17-2.43-3.15l-2.73,2.12c.71,1.36,1.41,2.89,2.66,3.61Z"/>
      <rect class="cls-1" x="21.42" y="42.27" width="3.14" height="2.04" transform="translate(-20.66 65.59) rotate(-89.1)"/>
      <path class="cls-1" d="M9.45,42.92c.42-.6,1.49-1.18,1.71-1.81-2.04-.41-2.5,1.13-2.98,2.38-.47,1.23-2.04,1.86-1.64,3.54l2.9-4.11Z"/>
      <path class="cls-1" d="M13.12,19.84c-.55,1.86-.41,6.81-.65,8.75,1.21-1.55,1.34-7.6.65-8.75Z"/>
      <path class="cls-1" d="M41.77,26.51l-.19-6.05c-1.54,2.5-.82,5.26.26,7.81l-.07-1.76Z"/>
      <path class="cls-1" d="M29.07,34.37l-.87.05c-1.28.08-2.43.05-3.68.61,4.86,1.01,5.37-.72,4.55-.67Z"/>
      <path class="cls-1" d="M12.26,39.47l-.91-.04c-1.42-.06-2.66.62-2.69,2.02.95-.93,1.52-1.18,2.66-1.01.29.04.75-.1.88-.26.12-.16.26-.7.06-.71Z"/>
      <path class="cls-1" d="M27.82,33.8c.24.28,1.32.1,1.58-.13l-1.58-1.57c-.13.77-.23,1.42,0,1.7Z"/>
      <path class="cls-1" d="M25.14,20.9c-.02.28.58.75.85.82.27.07.89-.55.76-.88-.14-.36-1.59-.32-1.61.06Z"/>
      <path class="cls-1" d="M20.69,21.7c-.15.21.49,1.83,1.65,1.86.31,0,.85-.97.63-1.22l-1.53-1.73-.75,1.08Z"/>
    </g>
  </g>
</svg>