<?xml version="1.0" encoding="UTF-8"?>
<svg id="Warstwa_2" data-name="Warstwa 2" xmlns="http://www.w3.org/2000/svg" viewBox="0 0 56.93 31.86">
  <defs>
    <style>
      .cls-1 {
        fill: #fff;
      }
    </style>
  </defs>
  <g id="icon-v9-equipment-pixarts-store">
    <g id="icon-v9-equipment-pixarts-store_366">
      <path class="cls-1" d="M46.48,10.82l-8.38-1.48c-1.36-.24-2.74-.56-3.47.66.73.06,1.85.26,2.15.74.28.45.39,1.51.32,2.11-.32,2.71-1.67,4.66-4.48,4.93.22.33.9,1.03,1.35,1.18,1.92-.78,3.33-2.82,4.16-4.85,1.15,2.9,1.36,5.8,1.07,8.55-.31-2.1-.65-4.09-1.16-6.08l-4.01,3.6-.13,3.85c1.33-.45,2.37-.66,3.43.09.61.43,1.15,1.59,1.61,2.64.87-1.45,1.72-3.36,3.31-4.15,2.38-1.19,4.89.34,6.07,2.42.01-1.63,0-3.07.46-4.38.59-1.65,2.32-2.63,4.07-2.11,1.36.41,2.6,1.13,4.08,1.83-2.37-4.01-5.73-8.73-10.45-9.57ZM40.37,14.21l-.13,6.78-1.24-8.66c2.64,1.54,4.95,3.76,6.44,6.62-1.7-1.72-3.18-3.23-5.07-4.74ZM42.01,12.19c1.06,1.37,2.02,2.55,2.79,4.07l-5.24-5.23c3.66-.02,8.58.85,11.23,3.82-2.91-1.16-5.42-2.88-8.78-2.66Z"/>
      <path class="cls-1" d="M8.18,20.68c.39,1.23.4,2.69.47,4.06,1.2-1.31,2.4-2.39,3.78-2.51,1.55-.14,3.16.6,4,1.97l1.53,2.5c.58-1.34,1.1-2.42,2.07-2.87.9-.42,2.01-.05,2.98.31l-.02-3.97c-1.76-1.2-2.73-2.15-4.3-3.72l-.88,6.57c-.27-2.93-.35-6.01.91-8.98.9,1.85,1.83,3.49,3.29,4.56.28.21,1.26.53,1.44.27l.72-1.05c-2.84-.27-4.02-2.31-4.28-4.95-.06-.64.04-1.71.41-2.23.31-.43,1.27-.6,1.99-.66-.77-1.21-2.31-.76-3.62-.54l-8.31,1.4c-4.66.79-8,5.34-10.34,9.56,1.4-.63,2.7-1.37,4.13-1.82,1.69-.54,3.52.44,4.05,2.11ZM16.87,21.67l-.56-2.65.29-4.74c-1.95,1.39-3.34,2.93-5.07,4.68,1.4-2.89,3.69-5.01,6.42-6.81-.78,3.36-1.03,6.3-1.08,9.51ZM17.33,11.12c-2.3,1.96-3.96,3.89-5.72,6.03.82-1.95,2.06-3.31,3.23-4.97-3.24-.13-5.81,1.34-8.73,2.75,2.86-3.1,7.08-3.87,11.23-3.81Z"/>
      <path class="cls-1" d="M33.51,3.95C33.05,1.65,30.84-.07,28.34,0c-2.4.07-4.53,1.83-4.9,4.26-.38,2.46.86,4.95,3.44,5.7.23-.74.03-1.82-.58-2.39-1.52-1.41-1.35-3.57,0-4.86,1.39-1.33,3.47-1.04,4.66.35,2.82,3.31-2.37,5.05-.86,6.8,2.72-.83,3.92-3.4,3.41-5.93Z"/>
      <path class="cls-1" d="M28.74,14.73s-.03.06-.04.09c-1.44-.86-1.34-1.85-1.56-3.1-.54.33-.84,1.24-.72,1.97.08.49.77.77,1.77,1.02l-4.07,4.68-.31,7.63,4.63,4.84,4.51-4.73-.2-7.77-4.01-4.63ZM28.43,30.81l-3.7-3.82-.07-7.14,3.77-4.21,3.71,4.16.04,7.15-3.74,3.86Z"/>
      <path class="cls-1" d="M30.48,13.68c.04-.7-.22-1.61-.58-2-.38,1.17-.71,2.15-1.15,3.03.95-.28,1.71-.56,1.74-1.03Z"/>
      <path class="cls-1" d="M28.73,14.71h.01s0,0,0,0c0,0-.01,0-.02,0Z"/>
      <path class="cls-1" d="M28.62,12.95c.14-.14.54-.71.55-.96l.14-3.87c.01-.36-1.01-.91-1.24-.68-.19.18-.44.7-.42.98l.18,3.73c.01.26.62.99.81.8Z"/>
      <path class="cls-1" d="M28.46,19.08c-1.76.89-1.76,2.49-1.79,4.25-.02,1.74.24,3.16,1.82,4.13,2.42-1.04,2.27-7.4-.04-8.37Z"/>
      <path class="cls-1" d="M25.52,26.21c1.1-.63.63-4.9.41-5.51-.79-2.19-1.08,5.07-.41,5.51Z"/>
      <path class="cls-1" d="M28.03,16.93l-2.43,2.58.41.72c.33.58,2.69-2.47,2.02-3.3Z"/>
      <path class="cls-1" d="M30.66,20.39c.18.09.63-.45.53-.62l-.38-.6-1.96-2.3c-.68,1.36,1.1,3.17,1.82,3.53Z"/>
      <path class="cls-1" d="M30.83,21.4c-.01,1.17,0,3.48.3,4.82.63-2.01.39-3.65.35-5.63-.1.06-.63.63-.65.82Z"/>
      <rect class="cls-1" x="28.31" y="27.49" width="2.91" height=".66" transform="translate(-10.8 31.61) rotate(-48.4)"/>
    </g>
  </g>
</svg>