<?xml version="1.0" encoding="UTF-8"?>
<svg id="Warstwa_2" data-name="Warstwa 2" xmlns="http://www.w3.org/2000/svg" viewBox="0 0 50.81 52.03">
  <defs>
    <style>
      .cls-1 {
        fill: #fff;
      }
    </style>
  </defs>
  <g id="icon-v9-equipment-pixarts-store">
    <g id="icon-v9-equipment-pixarts-store_193">
      <path class="cls-1" d="M13.75,37.78l7.77-4.86,3.76,19.11,3.95-19.08,7.67,4.79-4.79-7.89,18.7-3.74-18.73-3.8,4.91-7.91c-3.02,1.55-5.22,3.28-7.81,5.02L25.26,0l-3.66,19.29-8.01-4.95,5,8.03L0,26.17l18.63,3.79c-1.9,2.91-3.53,5.08-4.88,7.82ZM21.05,31.93c-.98.71-2.7,1.82-3.97,2.52.35-.6,3.24-6.01,4.02-3.71.09.28.2,1.01-.05,1.2ZM33.28,34.2c-1.12-.58-4.29-2.25-3.74-3.63.14-.35,1.34-.43,1.56-.08.67,1.05,1.43,2.29,2.18,3.71ZM29.79,20.58l3.46-2.46c-.64,1.21-1.55,2.75-2.18,3.75-.19.3-1.5.19-1.53-.11-.03-.3-.01-.99.25-1.18ZM25.51,7.22l3.15,15.24-3.04,3.51s.06.08.09.12l18.49.18-15.2,3.1c-1.19-.93-2.37-2.08-3.28-3.28h-.2s.11-.12.11-.12c-.07-.1-.15-.19-.21-.29l.1-18.46ZM25.37,26.23l-.17,18.58-3.15-15.16,3.32-3.41ZM17.17,17.86c1.26.7,5.38,2.56,3.91,4.08-.26.27-1.28.08-1.52-.3l-2.38-3.77ZM5.97,25.93l15.52-3.04c1.26.93,2.3,1.85,3.5,3.16l-19.01-.12Z"/>
      <path class="cls-1" d="M12.24,14.09c-.06-.45-.29-1.13-.06-1.13,2.25-.01,5.32-4.07,9.96-4.48l.74-3.57C13.08,6.18,5.29,14.04,4.56,23.44c1.32-.08,2.49-.28,3.44-.7.57-3.4,2.07-6.07,4.24-8.65Z"/>
      <path class="cls-1" d="M37.37,12.85c.25.19,1.34-.01,1.3.21l-.2,1.06c2.26,2.76,3.67,5.43,4.28,8.88l3.36.58c-.94-9.8-8.53-17.34-18.26-18.65l.73,3.66c3.24.25,6.47,2.53,8.79,4.26Z"/>
      <path class="cls-1" d="M13.38,39.48c-.78-.52-1.01-.95-1.48-1.66-1.82-2.76-3.44-5.31-4.1-8.62l-3.33-.57c1.21,9.76,8.68,17.2,18.33,18.55l-.63-3.56c-3.43-.58-5.89-2.22-8.8-4.15Z"/>
      <path class="cls-1" d="M38.83,37.84c-.52.88-.76,1.09-1.6,1.64-2.76,1.8-5.16,3.68-8.75,4.11l-.59,3.58c9.5-1.19,17.04-8.84,18.25-18.37-1.28.1-2.37.29-3.52.6-.5,3.37-2.16,5.71-3.79,8.45Z"/>
      <path class="cls-1" d="M20.71,39.27l-3.35-1.76c-.2-.11-.68-.17-.85-.18-.18-.01-.36.73-.16.86,1.06.7,3.25,1.81,4.78,2.37.17-.67-.05-1.1-.41-1.29Z"/>
      <path class="cls-1" d="M33.5,37.45l-3.48,1.79c-.49.15-.67.47-.57,1.41l5.18-2.51c-.31-.4-.86-.83-1.14-.69Z"/>
      <path class="cls-1" d="M13.96,34.13l-1.74-3.57c-.2-.41-.52-.62-1.37-.6.82,2.06,1.5,3.43,2.64,5.37.49-.52.61-.9.47-1.2Z"/>
      <path class="cls-1" d="M36.75,16.91c.39,2.09,1.24,3.95,2.68,5.7.24-2.12-.81-4.53-2.68-5.7Z"/>
      <path class="cls-1" d="M39.7,30.05c-.73-.21-1.09.16-1.38.79l-1.56,3.39c-.06.13.02.65.05.79.24,1.34,3.1-4.41,2.89-4.97Z"/>
      <path class="cls-1" d="M12.16,21.55l1.63-3.42c.1-.21.18-.88.01-.95l-.47-.19c-1.05,1.65-1.88,3.32-2.44,5.19.62.15,1.02-.12,1.27-.63Z"/>
      <path class="cls-1" d="M16.36,14.53c.04.14.71.03.86-.06l4.57-2.56c-2.27-.82-3.71,1.2-5.63,1.94l.19.67Z"/>
      <path class="cls-1" d="M29.39,12.33l.55.27c1.06.52,2.58,1.37,3.52,1.97,1.46.92,1.67-1.5-3.65-2.98-.23-.06-.58.67-.42.75Z"/>
    </g>
  </g>
</svg>