<?xml version="1.0" encoding="UTF-8"?>
<svg id="Warstwa_2" data-name="Warstwa 2" xmlns="http://www.w3.org/2000/svg" viewBox="0 0 54.05 57.91">
  <defs>
    <style>
      .cls-1 {
        fill: #fff;
      }
    </style>
  </defs>
  <g id="icon-v9-equipment-pixarts-store">
    <g id="icon-v9-equipment-pixarts-store_126">
      <path class="cls-1" d="M6.34,43.43c.23-2.01.46-3.72,1.7-4.98l-.21,2.61c1.3-1.06,2.18-1.74,3.4-2.41-.54,2.02-.85,3.25-.69,5.06.86-.89,1.62-1.65,2.48-1.84.83-.18,2.38.31,2.79.96l1.64,2.58c.14-1.66.1-3.28.05-5.14,2.35,4.74-.55,9.64,2.3,13.49l.86-1.32,2.11,3.9.63-2.27c1.29,1.54,2.29,2.58,3.79,3.84l3.7-3.9.48,2.4c.69-.88,1.18-1.65,1.65-2.52l.9-1.67.84,1.62c2.49-4.49-.34-8.73,1.94-13.51-.07,1.88-.1,3.5.01,5.07,1.15-2.07,2.92-4.38,4.97-3.41.61.29,1.2.97,1.87,1.74.35-1.84,0-3.14-.49-5.06,1.34.53,2.28,1.29,3.35,2.17l.28-2.43c.69,1.66.97,3.1,1.29,4.92,1.34-3.19,1.35-6.63-.18-9.94,2.23.45,3.25,2.28,4.51,4.15.83-2.66.09-4.55-.59-7.26.83.6,1.46,1.21,2.16,1.95-.12-2.8-1.43-4.76-3.23-7.12,1.13.29,1.98.66,3.38,1.27-.4-2.59-1.77-4.3-3.81-6.13l3.37.04-5.5-3.41,3.19-2.29-1.96-.04,2.79-2.91-1.82.3c1.69-3.45,3.15-6.61,2.39-10.1-1.23,2.84-2.79,5.05-4.85,6.84l2.15.09-2.03,4.22c-.13.27-.92.79-.76,1.02l.71,1.01c-1.34,0-2.21-.48-3.31-1.27l1.81-2.99c-1.02-.06-1.8.09-2.79.45,1.73-4.18,3.86-2.07,7.96-8.84.45-.74.71-1.58.66-2.35-5.27,5.88-8.13,3.34-13.1,7.21l1.53-3-5.01.08,1.05-1.56c-1.88.12-3.84.53-5.74,1.12l.61-1.9-4.49,1.51-4.62-1.49.9,2.03c-2.05-.7-3.97-1.2-5.94-1.29l1.07,1.67-4.92-.02,1.44,2.5C9,3.39,7.6,5.68,2.15,0c-.21,1.05.12,1.82.61,2.62,3.55,5.83,4.87,3.89,8,8.32l-3.18-.23,1.54,1.83c.33.39.06,1.67-.42,1.85-.63.24-1.58.51-2.14.61l.63-1.08c.13-.22-.72-.72-.84-.96l-2.18-4.34,2.2.04c-2.11-1.99-3.94-3.81-4.6-6.51-.91,3.56.62,6.53,2.26,9.59l-1.86-.17,2.78,2.74-2.03.16,3.25,2.39-5.33,3.39,3.21.15c-2.14,1.77-3.67,3.69-4.07,6.19,1.36-.72,2.32-1.21,3.65-1.51-1.76,2.34-3.15,4.23-3.11,7.18l1.96-1.83c-.46,2.44-1.62,4.56-.59,7.2,1.32-1.93,2.31-3.8,4.68-4.33-1.63,3.34-1.68,6.95-.24,10.13ZM43.98,23.57l2.42.07c-.79-1.28-1.81-2.16-2.39-3.96l3.16,4.02-1.73.63c.92,1.57,1.55,2.67,2.17,4.32l-3.29-1,.71,3.45-1.93-1.37-.21,4.44-2.73-2.81c-.56,2.59-.36,5.06-2.59,6.42,1.43-2.73,2.18-4.45,1.86-7.47l2.97,1.71-.1-3.05,1.65.73-.72-3.03,3.11.56-2.36-3.63ZM32.32,9.88c.68-.32.44-.11-.17.31-1.54.66-2.68,1.66-3.71,3.12.05-1.75,1.55-3.57,3.87-3.43ZM25.74,13.19c-1.12-1.38-2.53-2.33-4.43-3.45,1.95-.09,4.16,1.07,4.43,3.45ZM11.04,15.52c1.39,1.96.98,2.78,4.31,2.61l.98-.05c.13,0,.09-.2-.03-.27l-1.09-.59c1.23.16,2.13.33,2.95,1.12l3.35,3.22c.45.44,1.96-.16,2.19-.69.3-.69.6-1.73.88-2.74l.54,2.33,1.03-.35-.87,1.35c-.17.26.63.8.83,1.27-1.07-.43-2.08-.52-2.95.01,1.55.56,2.76,1.05,3.02,2.46-1.25-1.03-2.4-1.85-4.15-1.47l1.44,1.27c-1.33-.38-2.41-.52-3.31.19l.98,1.39c-.74-.2-1.48-.42-1.97-.38-.49.04-1.54,1.06-1.39,1.55.21.69,1.11,1.72,1.64,2.22l-2.37-1.04c-.25,1.81,1,2.76,2.34,3.81l-1.79-.25c1.49,3.79,8.76,2.66,8.7,1.13-.77-1.07-1.4-2.02-1.88-3.01l-.75.35c-.4.18-2.25-1.59-1.35-3.17,1.23-2.16,3.64.75,6.9-.58,1.43-.59,2.76-.05,2.94,1.46.11.88-.74,2.66-1.87,2.22-.27-.11-.79-.38-.76-.24l.16.81-2.02,2.53c2.77,1.49,7.66,1.72,9.04-1.54h-1.19c1.23-1.04,1.95-1.97,1.61-3.56l-2.01.7c.48-.49,1.24-1.46,1.45-2.15.14-.47-1.4-1.5-1.86-1.3-.46.2-.92.5-1.61.95l.95-2.07c-.84-.8-2.19-.39-3.41.16.52-.68.97-1.14.98-1.95l-3.13,1.28c.47-1.09,1.38-1.43,2.49-1.8-1.02-.5-1.88-.36-2.97-.07l.96-.85c.23-.2-.15-.85-.26-1.09.36-.63.69-1.51,1.03-2.53.24.93.57,2.31,1.21,2.96,2.27,2.33,4.29-2.68,6.48-3.72.99,1.03,4.13.87,4.63.13.39-.59.68-1.44,1.01-2.35.65,1.3.01,2.85-1.19,3.92l-.39,2.23-1.08-.48c-1.03-.45-1.71,3.25-4.25,3,1.32.49,2.47.93,3.8,1.6l-4.24-.57c2.59,1.86,3.27,4.55,2.32,7.37l-2.79,8.3c-.92,2.75-.03,10.65-3.93,10.37-2.61-.19-5.11-.26-7.78.08-4.48.56-3.55-7.42-4.75-11.12l-2.17-6.7c-1.11-3.43-.86-6.44,2.53-8.56l-4.35.82c1-.75,2-1.05,3.26-1.49-2.53-.78-3.45-3.66-3.97-3.31l-1.22.81-.31-2.27c-1.06-.94-1.86-2.17-1.52-3.63ZM7.43,23.93c-.27-.04.22-.93.51-1.32.26-.48.29-.21.25.65l2.1.32-2.19,3.64,3.03-.58-.79,2.82,1.7-.5v2.89c1.1-.56,1.82-.88,2.83-1.12.14,1.38-.16,2.7.35,3.77l1.59,3.39c-.96-.63-1.8-2-2-3.1l-.64-3.5-2.69,2.77-.25-4.61-2.05,1.54.69-3.2-3.06.78,2.23-4.42-1.6-.23Z"/>
      <path class="cls-1" d="M22.71,36.29l-2.59-.16c.18,2.53.77,4.22,2.17,5.91l.42-5.75Z"/>
      <path class="cls-1" d="M34.15,36.15c-.78-.19-2.1-.05-2.45.43l.43,5.38c1.47-1.86,2-3.73,2.02-5.81Z"/>
      <path class="cls-1" d="M37.27,22.1c.51-.44.83-1.29,1.12-2.39-1.93-.11-3.13.84-3.68,2.44.88.29,2.04.41,2.56-.05Z"/>
      <path class="cls-1" d="M21.8,44.42c-.71,1.45-.35,3.51.6,4.41.23.22.92.32,1.19.29.27-.03.33-1.09.18-1.35l-1.97-3.34Z"/>
      <path class="cls-1" d="M30.61,47.71c-.16.25.11,1.22.19,1.5.18.6,3-1.1,1.81-4.73l-2,3.22Z"/>
      <path class="cls-1" d="M17.22,22.13c.67.34,1.9.22,2.54-.06-1.02-1.7-1.89-2.26-3.68-2.48.15,1,.56,2.23,1.14,2.54Z"/>
      <path class="cls-1" d="M30.67,27.87c-6.98,1.04-1.69.28-7.1-.04,2.44,1.2,5.08,1.66,7.1.04Z"/>
      <path class="cls-1" d="M24.96,36.1c-.46-.05-1.41-.06-1.43.25-.03.63.39,1.58.95,2.24.31-.92.41-1.54.48-2.49Z"/>
      <polygon class="cls-1" points="31 36.15 29.03 36.34 29.97 38.86 31 36.15"/>
      <path class="cls-1" d="M28.11,47.9h-1.36c-.22-.01-.63.23-.79.37-.16.15.11.88.31.81l.94-.34c.13.06.55.69.68.53l.52-.6c.09-.1-.17-.77-.31-.77Z"/>
      <path class="cls-1" d="M27.39,35.99c-.15.55.37,1.81.77,1.86.72-.81,1.02-1.47.68-1.72-.32-.23-1.35-.49-1.44-.14Z"/>
      <path class="cls-1" d="M26.04,37.79c.33.49,1.34-1.92.64-1.86l-1,.09c-.24.02-.28.82-.15,1.01l.52.77Z"/>
    </g>
  </g>
</svg>