<?xml version="1.0" encoding="UTF-8"?>
<svg id="Warstwa_2" data-name="Warstwa 2" xmlns="http://www.w3.org/2000/svg" viewBox="0 0 57.6 51.5">
  <defs>
    <style>
      .cls-1 {
        fill: #fff;
      }
    </style>
  </defs>
  <g id="icon-v9-equipment-pixarts-store">
    <g id="icon-v9-equipment-pixarts-store_324">
      <circle class="cls-1" cx="41.19" cy="32.53" r=".74"/>
      <path class="cls-1" d="M45.2,16.42c.93.32,1.52-.93,1.15-1.49-.18-.29-.99-.02-1.27.22-.25.21-.19,1.17.12,1.28Z"/>
      <circle class="cls-1" cx="52.8" cy="18.21" r=".77"/>
      <path class="cls-1" d="M7.01,20.31c.38,0,.69-.31.69-.69s-.31-.69-.69-.69-.69.31-.69.69.31.69.69.69Z"/>
      <path class="cls-1" d="M24.02,28.31c.43,0,.79-.35.79-.79s-.35-.79-.79-.79-.79.35-.79.79.35.79.79.79Z"/>
      <rect class="cls-1" x="15.42" y="31.68" width="1.49" height="1.55" transform="translate(-16.67 47.85) rotate(-88.65)"/>
      <rect class="cls-1" x="28.14" y="20.81" width="1.51" height="1.56" transform="translate(-.5 .69) rotate(-1.35)"/>
      <path class="cls-1" d="M28.87,38.42c-.44,0-.79.36-.79.79s.36.79.79.79.79-.36.79-.79-.36-.79-.79-.79Z"/>
      <path class="cls-1" d="M37.67,38.15c-.39,0-.7.31-.7.7s.31.7.7.7.7-.31.7-.7-.31-.7-.7-.7Z"/>
      <path class="cls-1" d="M19.7,33.84c.39,0,.71-.32.71-.71s-.32-.71-.71-.71-.71.32-.71.71.32.71.71.71Z"/>
      <path class="cls-1" d="M24.02,34.13c.43,0,.79-.35.79-.79s-.35-.79-.79-.79-.79.35-.79.79.35.79.79.79Z"/>
      <path class="cls-1" d="M28.69,34.24c.41-.18.69-.31.9-.55.17-.19-.08-1.07-.34-1.1-.31-.04-1.07.36-1.17.66-.09.3.31,1.12.6.99Z"/>
      <path class="cls-1" d="M18.47,30.93l1.02-1.66.37,1.51.36-1.52.3,1.54c.06.34,2.49.47,2.64.07l.47-1.27.49,1.49.3-1.46c.32.75.35,1.33.65,1.53.37.25,2.92.42,2.97.04l.2-1.56c.16.15.43.37.44.54l.06,1,.56-1.55.45,1.78,2.84-.09.65-1.67.38,1.85.35-1.96.6,1.36c.23.52,2.43.35,2.57-.1l.37-1.18.34,1.17.39-1.53.95,1.69.11-4.98-20.72-.03-.1,5ZM24.02,26.74c.43,0,.79.35.79.79s-.35.79-.79.79-.79-.35-.79-.79.35-.79.79-.79Z"/>
      <path class="cls-1" d="M21.96,25.33c1.01-.09,1.19-.47,1.79-1.57l.36,1.75.36-1.95.47,1.66,2.96.09.61-1.54.4,1.18.39-1.32.54,1.66c.02.07,2.62.25,2.78-.14l.56-1.38.41,1.74.39-1.92.5,1.72,2.5-.16.49-1.49c.09-.27.89.26,1,.53l.43,1.01-.04-5.04-20.15.02.06,5.05.58-1.34c.71-1.65.95,1.59,2.62,1.44ZM29.63,20.8l.04,1.56-1.51.04-.04-1.56,1.51-.04Z"/>
      <path class="cls-1" d="M39.08,37.4c-7.12.58-13.39.56-20.48,0-.04,1.39.09,2.83.4,4.16l5.3,1.44c.7.19,2.17-.5,2.83-.55l2.78-.19c1.01.55,2.31.95,3.35.7l5.37-1.3c.28-1.37.44-2.83.45-4.26ZM28.87,40c-.44,0-.79-.36-.79-.79s.36-.79.79-.79.79.36.79.79-.36.79-.79.79ZM37.67,39.55c-.39,0-.7-.31-.7-.7s.31-.7.7-.7.7.31.7.7-.31.7-.7.7Z"/>
      <path class="cls-1" d="M18.56,36.71l.69-1.57c.1-.22.8-.03.92.21l.59,1.13c.29.55,2.05.52,2.4.24l.54-1.34.4,1.71.36-1.82.54,1.61c.11.32,2.76.47,2.95-.02l.49-1.25.6,1.49.19-1.47.65,1.4c.09.19,2.55.26,2.75-.23l.53-1.34.47,1.67.34-1.86.58,1.55c.1.26,2.3.2,2.44-.18l.52-1.44.37,1.56.27-1.81.8,1.76.38-5.11c-7.35.56-13.87.51-20.96-.05l.21,5.16ZM28.09,33.25c.09-.3.85-.7,1.17-.66.25.03.51.92.34,1.1-.21.24-.49.37-.9.55-.29.13-.7-.69-.6-.99ZM24.02,32.56c.43,0,.79.35.79.79s-.35.79-.79.79-.79-.35-.79-.79.35-.79.79-.79ZM19.7,32.41c.39,0,.71.32.71.71s-.32.71-.71.71-.71-.32-.71-.71.32-.71.71-.71Z"/>
      <path class="cls-1" d="M26.76,13.18l-.88-1.92c.71.73,1.34,1.37,2.21,1.91l-5.02-8.34c-.31-.52-.35-2.03-.07-2.53,1.11-2.03,10.33-2.23,11.62,0,1.27,2.21-5.07,9.3-5.63,11.08,1.15-.82,1.77-1.44,2.54-2.21l-.98,2.11c5.82-1,4.68-3.05,6.79-8.23l-1.31-1.57C35.79-.86,27.73-.06,24.97.31c-2.32.31-2.89,1.76-3.7,3.52-.42.9-1.03,1.58-.61,2.67,1.71,4.36,1.04,5.75,6.1,6.68Z"/>
      <path class="cls-1" d="M41.09,22.08c-1.02-3.65-.63-7.35-2.3-8.34l1.04,4.98,1.15,5.85-1.54-4.07.56,8.58,2.74-.09c.31-.01.88-.58,1.27-.83l-1.47-1.59,1.72.65c-1.33-1.69-2.61-3.11-3.18-5.14Z"/>
      <path class="cls-1" d="M18.1,18.49l5.45-.3c3.19-.17,6.36-.2,9.42-.05l6.24.31c-.07-1.38-.28-2.51-.63-3.49-.49,1.54-.63,2.25-1.24,2.38-.83.18-2.33-.11-2.52-.71-.35-1.13.44-1.91.97-3.2-4.67,2.59-9.25,2.61-13.97.29.37.84.97,1.85.84,2.42-.23.99-1.59,1.4-2.41,1.08-.71-.27-1.05-1.25-1.52-2.62l-.63,3.91Z"/>
      <path class="cls-1" d="M9.16,25.97l-7.55-3.84-1.61,5.67c2.58,1.69,4.7,3.26,7.8,3.89l1.36-5.71Z"/>
      <path class="cls-1" d="M50.1,31.77c3.07-1.16,5.29-2.3,7.5-4.14l-1.73-5.48-7.35,3.96c.4,2.12.8,3.78,1.58,5.66Z"/>
      <path class="cls-1" d="M5.38,15.89l.35-.49.38-.53c.07-.1.45.21.42.34l-.11.64c-.06.31.17,1.08.47,1.11.73.08,1.78-1.03,1.77-.4v.78c0,.36.47,1.1.84,1.14.31.04.68-.46,1.29-1,.66,1.28,1.05,2.89,1.06,4.45l1.81-6.43-6.95-4.99c-.79,1.54-1.71,3.66-2.07,4.87-.05.17.64.65.74.51Z"/>
      <path class="cls-1" d="M4.09,22.46c0,.28.92.51,1.13.32l.9-.78c-.11.92.54,2.17,1.3,2.05.27-.17,1.21-.91,1.48-.77.64.86.65,2.72.84,3.97l1.47-6.92-7.44-4.16c-.64,1.97-1.06,3.7-1.18,5.64l1.56-.95c-.04.96-.06,1.31-.06,1.6ZM7.01,18.92c.38,0,.69.31.69.69s-.31.69-.69.69-.69-.31-.69-.69.31-.69.69-.69Z"/>
      <path class="cls-1" d="M48,27.28c.15-1.63.32-3.05,1-4.18l1.24,1.1c.96.86.5-2.91,1.51-2.22.72.85,1.08,1.11,1.24.88.8-1.15-.11-1.69.36-1.86.18-.07.7-.27.66-.26.29.47.54.78,1.07,1.08-.23-2.04-.68-3.7-1.3-5.52l-7.41,3.98,1.62,7.01ZM52.8,17.44c.43,0,.77.34.77.77s-.34.77-.77.77-.77-.34-.77-.77.34-.77.77-.77Z"/>
      <path class="cls-1" d="M45.55,21.51l.92-2.73c.07-.2.12-.89.15-1.12.11-.99,1.07,1.35,1.49.87,1.08-1.23.61-2.29,1.09-2.12l.85.3c.22.08.96.36,1,.14l.18-1.02.13-.71c.03-.16.62-.08.64.08l.1.94s.64-.22,1.05-.36c-.58-1.7-1.26-3.29-2.15-5.08l-6.95,4.46,1.51,6.37ZM46.36,14.92c.36.56-.23,1.82-1.15,1.49-.31-.11-.37-1.07-.12-1.28.28-.23,1.09-.5,1.27-.22Z"/>
      <path class="cls-1" d="M8.08,10.37c.17,0,.52-.03.67-.11l.6-.32c1.04-.55-.75.99.5,1.91.21.15.63-.24.99-.58l.62.02c.12,0,.03.58,0,.78-.06.33.19,1.08.5,1.19.26.09.87-.17,1.24-.32.34-.14.73.74.79,1.1l.35,1.89c1.02-1.74,1.46-3.24,1.81-5.11l-5.63-4.92-2.7,3.36c-.18.22.03,1.1.27,1.1Z"/>
      <path class="cls-1" d="M40.99,10.53c.31,1.78,1.47,3.59,2.12,5.11l.88-3c.96.47,1.32.75,1.63.66.26-.07.61-.62.53-.88-.15-.44-.32-.89-.09-.99.87-.38,1.79.94,1.89.14l.13-1.03c.03-.22.29-.65.43-.83.1-.13.49.24.59.38l.34.5c1.02,1.49.15-3.21-2.51-4.45l-4.58,4.01c-.14.12-.29.75-.18.85.1.09.19.13.31.05l.54-.35c.25-.16.24,1.11-.06,1.07-.24-.03-.5-.1-1.02-.25-1.88-.56.25-3.81,1.46-4.61l-.57,1.83c-.05.14,6.28-4.82,4.15-4.75l-.74.03.94-.67c.12-.08-.06-.51-.22-.98-2.02,1.19-6.4,5.69-5.97,8.15Z"/>
      <path class="cls-1" d="M17.61,19.5h21.86c-.47-.33-1.43-.77-1.81-.77l-17.2.06c-.88,0-2.16.62-2.84-.03l.57-4.66c-.64.67-1.04,1.86-.98,2.83.27,4.12-1.32,7.4-4.01,10.41,3.19-1.51,4.12-4.65,4.41-7.86Z"/>
      <path class="cls-1" d="M14.11,27.52c-.34.23-.51,1.29-.19,1.29l1.11-.02c.24,0,.8.59.98.44l.85-.66.21.57c.04.11.36.31.39.2.04-.11.21-.63.22-.79l.33-5.77.13-2.27c-.5,2.68-1.75,5.46-4.06,7.02Z"/>
      <path class="cls-1" d="M13.6,33.98l.9.81.69.94c.14.19.67.1.77-.12l.52-1.18,1.18,2.05-.06-5.16-4.44-.46.99,1.52c-.3.36-.83,1.35-.56,1.59ZM15.4,31.7l1.55.04-.03,1.49-1.55-.04.03-1.49Z"/>
      <polygon class="cls-1" points="13.82 36.37 14.46 40.1 17.98 41.44 17.88 37.24 13.82 36.37"/>
      <path class="cls-1" d="M40.02,31.32l-.09,4.92.81-1.56c.12-.23.8.21.89.45.07.18.3.67.42.85.19.29.7-.81.96-1.4-.08-.09.16.2.57.7.86-3.02-.74-2.61-.24-3.21l.84-.99-4.16.24ZM41.19,33.28c-.41,0-.74-.33-.74-.74s.33-.74.74-.74.74.33.74.74-.33.74-.74.74Z"/>
      <path class="cls-1" d="M39.6,41.37c1.03-.39,2.41-.69,2.99-1.25.89-.86.8-2.6.99-3.63l-3.68.79-.3,4.09Z"/>
      <path class="cls-1" d="M43.03,47.5l-6.41,1.53c.04.44.49,1.46.91,1.69,1.99-.35,4.48-1.02,6.19-1.96.34-.19-.3-1.37-.7-1.26Z"/>
      <path class="cls-1" d="M20.26,50.61c.36-.42.73-1.57.56-1.69l-5.83-1.38c-.29-.07-.87.05-1.09.16-2.17,1.11,5.91,3.01,6.35,2.91Z"/>
      <path class="cls-1" d="M35.96,12.32c-4.83,2.47-9.39,2.36-14.22.4,3.36,3.09,11.3,2.83,14.22-.4Z"/>
      <path class="cls-1" d="M10.73,5.18l4.3,4.08-.1-1.51c.8,1.26,1.29,2.38,1.87,3.98.97-2.79-3.65-7.68-5.72-9.08-.23-.16-.68.58-.54.67l.6.38-.91.73c-.14.12.34.6.5.75Z"/>
      <path class="cls-1" d="M31.09,51.5c0-.39-.13-1.53-.57-1.64-.37-.09-3.34.03-3.53.2-.25.23-.37,1.05-.29,1.33l4.38.11Z"/>
      <path class="cls-1" d="M18.84,9.41c.19.11.93-.39.86-.6l-1.31-3.97c-.31.04-1.13.39-1.4.59l1.06,3.24c.08.23.6.63.79.75Z"/>
      <path class="cls-1" d="M39.27,8.9l1.34-3.57c-.26-.24-1.39-.48-1.48-.18l-1.23,3.81c.27.22,1.25.27,1.37-.06Z"/>
      <path class="cls-1" d="M30.51,44.9c-.11.02-.62.08-.7.14-.55.48-.54,2.29.61,2.76.65-1.1.77-3.26.28-4.29-.11-.23-1.08-.59-1.17-.37-.07.17-.31.54-.17.65l.69.52.54.4c.08.06.02.16-.07.18Z"/>
      <path class="cls-1" d="M36.43,46.34l-1.83.66c-.39-.28-1.7-.47-2.1.03-.25.32.56,1.41.96,1.33.4-.08,1.22-.32,1.67-.38l3.57-.47-.71-1.08c-.18-.27-1.24-.19-1.56-.08Z"/>
      <path class="cls-1" d="M38.54,10.51c.85.03,1.13-.04.35-.23l-1.89-.78c.67-1.96,1.55-3.48,1.57-5.27-.88,1.71-1.49,3.61-1.98,5.39.04.54,1.43.94,1.95.88Z"/>
      <path class="cls-1" d="M22.88,51.15c.41-.22.77-1.08,1.05-1.89l-1.55-.2c-.34-.04-.5.88-.59,1.22-.09.34.78,1.03,1.09.87Z"/>
      <path class="cls-1" d="M35.35,51.09c.43-.16.43-1.29.26-1.67-.17-.38-1.44-.4-1.69-.05-.38.52.33,2.12,1.43,1.72Z"/>
      <path class="cls-1" d="M25.09,46.38l-2.29.29c.08.34.61,1.44.99,1.5.77.12,1.59-1.28,1.3-1.79Z"/>
      <path class="cls-1" d="M17.93,30.15l-5.15-.78c-2.01.81,7.43,1.88,5.15.78Z"/>
      <path class="cls-1" d="M19.22,11.15l2,3.29c-.07-1.16-.5-2.11-.78-2.88l.73-1.21-1.96.8Z"/>
      <path class="cls-1" d="M31.85,50.21c.1.11.87-.41.82-.54l-1.01-2.24c-.36.12-1.01.94-.75,1.13l1.02.72-.4.5c-.09.11.23.33.32.44Z"/>
      <path class="cls-1" d="M32.2,43.86c.92,1.14,2.18,1.75,3.28,1.67-1.15-1.28-1.85-1.99-3.28-1.67Z"/>
      <path class="cls-1" d="M25.73,43.74c.02,1.24,2.02,1.43,2.63.4-.18-.76-2.29-1.04-2.63-.4Z"/>
      <path class="cls-1" d="M24.86,45.78l-1.72-2.12c-.08-.1-.68-.29-.74-.17l-.23.44c.06-.12,2.35,2.35,2.69,1.86Z"/>
      <path class="cls-1" d="M38.49,42.82c-.75.21-1.45.39-2.06.48l-2.16.33c.14.54,1.33,1.35,2.13,1.46l-.07-.83c0-.09.29-.08.37-.03l.62.32c.16.08.85.1,1.03.12.17.01-.21-.53-.3-.67l-.34-.5c.92.31,1.44.47,2.45.7-.43-.77-1.18-1.51-1.68-1.37Z"/>
      <path class="cls-1" d="M13.81,45.16c-.2.12.2.96.43.99l.72.11c.43.21,1.02.5,1.01.5.04-1.53-1.6-1.93-2.17-1.6Z"/>
      <path class="cls-1" d="M17.04,43.07l-1.93-1.91c0,.62.22,1.41.56,1.87.35.48,1.18.57,1.7.21l1.43,1.06c0-.88-.46-1.78-1.05-2.36l-.71,1.13Z"/>
      <path class="cls-1" d="M19.08,4.24c-.06,1.82.58,3.41,1.63,4.98-.27-1.7-.85-3.33-1.63-4.98Z"/>
      <path class="cls-1" d="M36.87,11.44l-.61,3.52c.82-1.28,1.09-2.04,1.61-3.95-.69.18-.92.29-1,.43Z"/>
      <path class="cls-1" d="M39.95,30.62c1.67-.16,2.96-.33,4.42-.67-1.6-.51-3.21-.43-4.42.67Z"/>
      <path class="cls-1" d="M20.63,16.28l-.91-1c-.02.34,0,1.14.29,1.19l1.15.22c.34.07,1.25-.64,1.06-.93l-.61-.93c-.16-.24-1.08.42-.91.53l.75.09c.1.01.41.35.33.41-.3.21-.96.62-1.15.42Z"/>
      <path class="cls-1" d="M43.89,45.07c-.18-.04-.65-.12-.83-.1-.37.04-1.31.37-1.14.63l.61.95c.24.37,1.87-1.36,1.36-1.48Z"/>
      <path class="cls-1" d="M43.38,42.36c-.74-.43-1.42-.69-2.19-.79.26,1.31,1.08,1.69,2.19.79Z"/>
      <path class="cls-1" d="M27.72,48.04c0,.44.35.79.79.79s.79-.35.79-.79-.35-.79-.79-.79-.79.35-.79.79Z"/>
      <path class="cls-1" d="M20.72,44.5l-1.56-2.16c-.44,1.24.4,2.45,1.56,2.16Z"/>
      <path class="cls-1" d="M41.43,5.53c-1.18,1.21-1.5,2.59-1.55,4.12.64-1.36,1.14-2.6,1.55-4.12Z"/>
      <path class="cls-1" d="M27.06,45.33c-.06.59,1.22,1.46,1.64,1.17l-.2-1.38c-.04-.24-1.41-.02-1.43.22Z"/>
      <path class="cls-1" d="M20.77,47.82c.69-.55-.35-1.92-1.11-1.39-.05.36.76,1.4,1.11,1.39Z"/>
      <rect class="cls-1" x="38.74" y="45.96" width="1.42" height="1.32" transform="translate(-14.23 17.49) rotate(-21.27)"/>
    </g>
  </g>
</svg>