<?xml version="1.0" encoding="UTF-8"?>
<svg id="Warstwa_2" data-name="Warstwa 2" xmlns="http://www.w3.org/2000/svg" viewBox="0 0 51.07 56.93">
  <defs>
    <style>
      .cls-1 {
        fill: #fff;
      }
    </style>
  </defs>
  <g id="icon-v9-equipment-pixarts-store">
    <g id="icon-v9-equipment-pixarts-store_43">
      <path class="cls-1" d="M4.48,51.41c.64-.31,1.1-1.17.94-2.03l-.73.94c-.18.23-.89.69-1.12.54-1.23-.85.15-2.05-1.11-2.91-.15.96-.16,1.82.18,2.57.26.57,1.37,1.12,1.85.89Z"/>
      <path class="cls-1" d="M4.46,20.44c-1.02,3.05,1.07,6.14,3.9,7.46,4.47,2.08,9.48,2.16,14.14.99-.18-.35-.49-1.01-.74-.91l-1.26.49c-.07-.23.74-1.4,1.2-1.16l2.48,1.29c2.24-.79,4.34-1.7,6.6-2.9-2.86-6.67-6.69-10.22-13.73-12.63l-.45,2.27-.78-2.2c-.22-.61-5.87-1.65-7.33,1.14l-.24,2.09-.68-1.29c-1.23,1.82-2.48,3.43-3.13,5.36Z"/>
      <path class="cls-1" d="M37.05,23.12l4.83-2.33.76-3.03.45,2.32.96-.69c.51-.37-.07-3.81-2.49-4.91l.76-.6c-1.12-1.57-2.23-3.29-3.7-4.61-3.59-3.22-11.6-6.88-16.44-5.44-1.96.58-3.8,1.78-5.55,2.94,10.57,2.05,16.1,6.96,20.44,16.35Z"/>
      <path class="cls-1" d="M13.53,7.97c-2.06.17-4.34,2.54-5.34,4.22,3.02-1.93,7.28-1.59,10.74-.11,8.68,3.71,9.12,5.99,13.36,13.03.3.49-.02,1.85,0,2.45.03,1.14,1.2,2.18,2.51,1.97l-.93-1.84c-.24-.47-.16-1.51.12-1.99.25-.43,1.49-.74,1.89-.37.72.67.98,1.73,1.29,2.71,1.94-1.74-.25-2-1.62-5.53-3.5-9.02-12.07-15.35-22.01-14.54Z"/>
      <path class="cls-1" d="M47.76,22.09c-.43-1.46-1.86-2.98-.09-4.07.49-.3,1.76.44,1.84.94l.43,2.46c.37-.36.92-1.27.89-1.72s-.75-1.22-.92-1.69c-1.88-5.28-4.41-10.11-9.05-13.46-5.46-3.95-14.18-6.96-20.46-1.76,4.2-1.25,8.08-.54,11.97,1.07,6.2,2.57,11.07,7.09,13.16,13.63.82,2.56-.79,3.06.55,4.51.29.31,1.38.37,1.68.11Z"/>
      <path class="cls-1" d="M14.64,32.47l3.55,1.37c4.19.07,9.96-2.25,13.51-3.9-.59-1.02-.79-1.64-.97-2.74-6.73,3.08-12.17,4.4-19.61,2.88-4.65-.95-9.53-4.97-7.66-10.03-2.65,2.15-2.92,5.59-1.1,8.27,3.07,4.52,8.61,5.76,14.13,5.69l-1.86-1.54Z"/>
      <path class="cls-1" d="M44.08,20.79l-6.22,3.35,1.56,2.6,6.32-3.33c-.87-1.02-1.33-1.67-1.66-2.62Z"/>
      <path class="cls-1" d="M49.24,48.65c2.08-.58,1.74-4.83.75-5.25l-.33,3.39c-.04.37-.74,1.01-1.04.89-.3-.12-.75-.74-.78-1.08l-.28-3.28c-.85,1.36-.84,2.81-.44,4.26.19.7,1.47,1.24,2.12,1.06Z"/>
      <path class="cls-1" d="M37.34,55.29c.42-1.29.47-2.63-.25-4.01l-.41,3.05c-.05.34-.47.9-.76,1.03-.28.13-1.11-.52-1.13-.84l-.21-3.44c-1.05,1.09-1.03,3.03-.29,4.42.56,1.04,2.67.95,3.05-.21Z"/>
      <path class="cls-1" d="M13.97,35.21c-.29.88-1.03,1.91-1.66,1.73-.81-.23-1.29-1.27-1.56-2.15-.75.68-.36,2.07.71,2.64.69.37,1.79.38,2.38-.16.47-.42.53-1.74.12-2.08Z"/>
      <path class="cls-1" d="M26.69,35.14c-.21.38-1.34.44-1.57.07l-.56-.91c-.07-.12-.37.12-.44.24-.07.12.02.76.12.92.68,1.08,2.13,1.16,3.07.35.73-.63.87-1.96.23-2.66-.3.76-.6,1.53-.85,1.99Z"/>
      <rect class="cls-1" x="33.5" y="35.98" width="4.81" height="1.11" transform="translate(-2.48 70.45) rotate(-86.96)"/>
      <path class="cls-1" d="M15.82,40.15c.58.31,1.56.35,2.21-.12.58-.42.81-1.38.54-2.29l-1.67,2.21-1.89-2.15c-.34.86.15,1.98.81,2.34Z"/>
      <path class="cls-1" d="M36.03,45.94c.5-1.63.62-4.34-.06-5.19-.79-1-.97,5.44.06,5.19Z"/>
      <path class="cls-1" d="M31.84,34.6l-.8,1.72c-.13.29-.94.38-1.14.12l-.93-1.21c-.22-.28-.54.98-.35,1.3.56.91,1.99,1.06,2.73.56.82-.56,1.43-2.04.5-2.48Z"/>
      <path class="cls-1" d="M17.13,36.74c-.54.11-1.28-.69-1.87-1.39-.08-.08-.3.86-.27,1.21.05.61,2.44,1.61,3.36.53.44-.51.56-1.54.25-1.99-.46.69-.95,1.53-1.47,1.64Z"/>
      <path class="cls-1" d="M9.23,48.25c-.25,1.48-1.04,1.96-1.54,1.74-.46-.2-.9-.92-.97-1.35l-.13-.77c-.03-.15-.57.29-.59.44-.07.57.41,1.7.95,2.1.87.62,1.95.47,2.47-.31.34-.5.36-2.01-.2-1.85Z"/>
      <path class="cls-1" d="M48.91,26.26c-.74,1.79-.67,3.66-.02,5.26.8-1.74.93-3.49.02-5.26Z"/>
      <path class="cls-1" d="M6.65,53.17c.59.6,1.8.77,2.34.32.62-.52.94-1.81.52-2.13-.62.9-.96,1.48-1.28,1.68-.32.2-1.23-.37-1.34-.73l-.41-1.41c-.26-.04-.67.79-.53,1.11.12.28.5.95.7,1.16Z"/>
      <path class="cls-1" d="M8.83,36.73c.72-.47,1.18-1.65.75-2.05-.84,1.02-1.43,1.7-2.24,1.13-.42-.29-.53-1.03-.71-2.16-.17-.18-.77.79-.71,1.2.24,1.63,2.14,2.4,2.92,1.88Z"/>
      <path class="cls-1" d="M48.86,32.95c-.66,1.76-.65,3.52-.09,5.32.96-1.66,1-3.48.09-5.32Z"/>
      <path class="cls-1" d="M35.78,53.02c.75-1.75,1.04-3.63.09-5.65-.96,1.8-.73,3.83-.09,5.65Z"/>
      <path class="cls-1" d="M13.29,40.52c.75-.49,1.08-1.25.76-2.1l-1.88,1.87-1.42-2.21c-.4.48-.19,1.73.48,2.24.6.46,1.46.58,2.06.2Z"/>
      <path class="cls-1" d="M9.17,56.52c.56-.5.89-1.67.52-2.2-.56,1.02-1.19,2.44-2.14,1.73-.48-.36-.82-1.58-1.14-2.38-.45.69-.37,1.94.29,2.68.56.62,1.72.83,2.46.16Z"/>
      <path class="cls-1" d="M11.27,53.65c.48.38,1.74.43,2.29-.13.42-.43.61-1.61.43-2.25l-1.02,1.68c-.19.31-1.22.14-1.52-.02l-.72-1.88c-.66,1.18-.15,2.03.55,2.59Z"/>
      <path class="cls-1" d="M16.17,50.91c.52.34,1.64.13,2.07-.44.45-.6.7-1.89.32-2.06-.77,1.2-1.14,1.88-1.65,1.91-.63.03-1.28-.91-1.42-1.49-.21-.72-.43-1.13-.49-.28-.01,1.09.41,1.87,1.17,2.36Z"/>
      <path class="cls-1" d="M26.53,44.29c-.99.35-1.6-1.02-2.06-1.89-.61.78,0,1.91.71,2.35.74.46,1.95.32,2.39-.2.61-.71.63-1.82.13-2.4-.29.68-.62,1.94-1.18,2.14Z"/>
      <path class="cls-1" d="M35.98,27.52c-.81,1.57-.87,3.45.03,4.91.8-1.74.67-3.33-.03-4.91Z"/>
      <path class="cls-1" d="M39.79,30.05c-.37-.09-.82-.6-1.35-1.05-.14.33-.12,1.3.17,1.55,1.05.93,2.81-.42,2.99-1.23.13-.58-.14-1.48-.47-2.15-.43.03.02,3.23-1.34,2.88Z"/>
      <path class="cls-1" d="M30.03,39.35l-1.28-1.44c-.4,1.18.19,1.95.81,2.16.76.25,1.87.08,2.23-.4.44-.58.54-1.51.21-2l-.73,1.47c-.13.26-1,.37-1.23.21Z"/>
      <path class="cls-1" d="M23.12,42.83c-.32.83-.54,1.47-.79,1.88-.21.34-1.31.39-1.51.04l-1.05-1.82c-.27.9.04,1.95.8,2.51.65.48,1.77.4,2.33-.2.63-.67.88-1.92.22-2.41Z"/>
      <path class="cls-1" d="M21.48,47.97c-.65.07-1.06-.83-1.52-1.84-.48.51-.11,1.78.45,2.14.77.5,2.02.43,2.44-.03.59-.66.91-2.12.29-2.26-.59,1.22-.87,1.9-1.65,1.99Z"/>
      <path class="cls-1" d="M21.49,40.1c.6,0,1.75-1.13,2.02-1.69.08-.16-.43-.98-.49-.83l-.24.61c-.19.49-1.38,1.24-1.84.95-.39-.25-.74-1.01-1.16-1.74-.88.96.51,2.72,1.71,2.7Z"/>
      <path class="cls-1" d="M26.07,38.72c-.81-.49-1.2-1.13-1.78-2.05-.35.61-.06,1.8.62,2.25.67.44,1.76.37,2.4-.18.44-.38.72-1.37.62-1.94l-1.86,1.92Z"/>
      <path class="cls-1" d="M14.17,41.43l-2,1.67c-.83-1.17-1.08-1.61-1.64-2.65,0,1.73.06,2.22.92,2.81.51.35,1.44.4,2.06-.04.49-.35.8-1.35.66-1.78Z"/>
      <path class="cls-1" d="M9.38,37.52c-.46.78-1,1.62-1.37,1.55-.76-.15-1.19-1.23-1.69-2.17-.16.21-.39.95-.33,1.29.08.53,1.98,2.33,3.09,1.33.68-.61,1.02-1.9.3-1.99Z"/>
      <path class="cls-1" d="M25.91,41.31c-.5-.07-1.09-1.14-1.55-1.73-.36.7.03,1.74.79,2.34.59.48,1.58.31,2.25-.31.56-.52.91-1.75.38-2.21-.41.79-.99,2.04-1.87,1.91Z"/>
      <path class="cls-1" d="M31.82,31.38c-.4.92-.74,1.82-1.23,2.09-.39.22-1.22-.33-1.67-.75l-.49.35c-.15.11.2.8.35.91.64.47,2.13.48,2.73-.16.63-.68,1.38-2.02.31-2.44Z"/>
      <path class="cls-1" d="M13.28,50.85c.49-.32.93-1.3.71-1.81l-1.45,1.33c-.22.2-1.06-.29-1.18-.58l-.68-1.62c-.21.89-.12,1.74.4,2.46.37.51,1.47.69,2.2.22Z"/>
      <path class="cls-1" d="M16.15,47.79c.53.25,1.64.19,2.04-.23.54-.55.76-1.58.42-2.11-.41.47-1.08,1.74-1.58,1.69-.79-.08-1.49-1.07-1.97-1.53-.38.93.23,1.78,1.08,2.18Z"/>
      <path class="cls-1" d="M48.81,44.84c.92-2.01.84-3.58,0-5.16-.56,1.86-.69,3.75,0,5.16Z"/>
      <path class="cls-1" d="M20.31,42.51c.72.54,1.79.23,2.51-.38.63-.53.9-1.49.36-1.91-.44.72-1.37,1.97-2.14,1.76-.44-.12-.98-1.1-1.39-1.68-.26.54.05,1.76.65,2.21Z"/>
      <path class="cls-1" d="M36.96,37.8c-.03,1.59,0,3.08.15,4.47,1.15-1.59,1.16-3.39-.15-4.47Z"/>
      <path class="cls-1" d="M49.93,36.44l-.04,4.95c1.48-1.43,1.3-3.55.04-4.95Z"/>
      <path class="cls-1" d="M12.24,46.14c.83-.06,2.26-.85,1.71-2.08l-1.77,1.56-1.5-1.77c-.46,1.15.5,2.37,1.56,2.3Z"/>
      <path class="cls-1" d="M22.37,36.92c.81-.54,1.59-1.51.78-2.53l-1.14,1.83c-.21.35-1.45.14-1.63-.23l-.44-.87c-.07-.13-.43.57-.37.78.28,1.1,1.85,1.63,2.8,1.01Z"/>
      <path class="cls-1" d="M16.9,42.03c-.48,0-1.19-.86-1.8-1.42-.53,1.48.77,2.26,2.13,2.18.86-.05,2-1.35,1.47-2.39-.59.63-1.26,1.64-1.8,1.64Z"/>
      <path class="cls-1" d="M9.54,45.56l-1.57,1.69c-1.04-.53-1.26-1.58-1.63-2.81-.39.63-.47,1.52-.05,2.19.3.48,1.31,1.29,1.9,1.2.96-.15,1.86-1.64,1.35-2.27Z"/>
      <path class="cls-1" d="M47.85,41.55l-.02-5.17c-1.42,1.46-1.55,3.81.02,5.17Z"/>
      <path class="cls-1" d="M2.44,45.13c-.16.51-.1,1.7.25,2.22.26.39,1.09.87,1.56.82.36-.04,1.15-.48,1.11-.79l-.14-1.15-1.5,1.51-1.27-2.62Z"/>
      <path class="cls-1" d="M42.57,28.41c.42.27,1.35.03,1.73-.32.85-.8,1.23-1.93.71-2.76-.52,1.03-.93,1.82-1.55,2.51l-1.52-.96c-.15.31.24,1.29.62,1.54Z"/>
      <path class="cls-1" d="M39.47,35.71l-.55-1.26c-.41.55-.34,1.72.24,2.01.67.34,1.79.08,2.17-.35.5-.58.66-1.62.24-2.22l-.94,1.71c-.13.24-1.05.37-1.16.1Z"/>
      <path class="cls-1" d="M17.24,45.29c.82-.07,2.18-1.67,1.36-2.39-.53.76-1.32,1.82-1.99,1.63-.5-.14-1.15-.95-1.6-1.47-.73,1.48,1.04,2.33,2.23,2.23Z"/>
      <path class="cls-1" d="M50.03,29.88l-.03,4.91c1.47-1.63,1.18-3.46.03-4.91Z"/>
      <path class="cls-1" d="M40.8,32.29c-.12.32-.96.82-1.18.59l-.84-.93c-.29.53.01,1.35.59,1.69.53.31,1.39-.02,1.83-.59.55-.71.67-1.57.2-2.34l-.61,1.58Z"/>
      <path class="cls-1" d="M39.58,39.49c.83.27,1.84-.46,2.15-1.26l.36-.92c.07-.18-.55-.54-.54-.53l-.69,1.68c-.13.31-1.05.36-1.32.28l-.89-1.77c-.66,1.05.08,2.25.93,2.52Z"/>
      <path class="cls-1" d="M5.3,41.02l-1.61,1.22-1.29-2.46c-.69,1.35.44,2.9,1.65,3.08.92.14,1.88-1.43,1.25-1.84Z"/>
      <path class="cls-1" d="M7.65,44.07l-1.44-1.55c-.15.15-.18,1.09.08,1.4.22.27.97.75,1.35.91.4.17,1.6-.07,1.71-.48.12-.46.3-1.38.32-1.56-.84.82-1.67,1.63-2.01,1.27Z"/>
      <path class="cls-1" d="M2.06,31.97c.09-.86.07-1.78-.06-2.13-.58.42-.9.72-.94.59-.04-.13-.19-.53-.23-.67l-.12-2.43c-1.37,1.82-.3,3.48,1.35,4.64Z"/>
      <path class="cls-1" d="M3.42,37.12c.32.4,1.34.81,1.6.45.33-.45.42-1.6.17-1.51-.71.45-1.12.85-1.26.72-.14-.13-.5-.59-.57-.78l-.69-1.97c-.74,1.23-.01,2.13.75,3.09Z"/>
      <path class="cls-1" d="M7.86,41.54c-.49-.32-1.22-1.23-1.57-1.67-.69,1.44.45,2.34,1.82,2.38.8.03,1.94-1.01,1.38-2.02-.36.32-1.26,1.5-1.63,1.3Z"/>
      <path class="cls-1" d="M14.03,46.56l-1.77,1.21-1.63-1.25c-.3.91.87,1.98,1.71,1.97.99-.01,2.12-.99,1.69-1.93Z"/>
      <path class="cls-1" d="M47.82,23.54c-1.32,1.59-1.17,3.36.06,4.58l-.06-4.58Z"/>
      <path class="cls-1" d="M48.74,20.71c-.38,1.45-.32,2.84.23,4.13,1.01-1.47.9-2.98-.23-4.13Z"/>
      <path class="cls-1" d="M3.09,39.56c.3.37,1.32.77,1.67.49.3-.24.7-1.05.74-1.34l-1.71.72-1.37-2.32c-.32.89.04,1.66.68,2.45Z"/>
      <path class="cls-1" d="M34.59,42.37c.18-1.62.2-3.04.08-4.77-1.46,1.51-1.11,3.31-.08,4.77Z"/>
      <path class="cls-1" d="M34.57,49.04l.16-4.89c-1.42,1.55-1.2,3.65-.16,4.89Z"/>
      <path class="cls-1" d="M5.39,34.71c-1.97-2.02-1.45-2.92-2.39-3.06-.3,1.58.75,3.38,2.39,3.06Z"/>
      <path class="cls-1" d="M42.8,31.41c.88.3,1.95-.29,2.29-.98.24-.49.16-1.74-.09-2.16-.43,1.43-.56,2.09-1.46,2.86l-1.18-1.49c-.27.27-.04,1.61.44,1.77Z"/>
      <path class="cls-1" d="M5.35,43.8l-1.66.95-1.29-2.03c-.33.45-.09,1.61.57,2.15.45.36,1.37.61,1.74.38.42-.26.9-1.28.64-1.45Z"/>
      <path class="cls-1" d="M43.37,34.41c.8.1,1.65-.48,1.94-1.31.21-.61.26-1.1.01-1.21-1.49-.65-.09.71-1.01,1.66-.19.2-.86.3-1.03.06l-.87-1.21c-.36.9.24,1.92.95,2.02Z"/>
      <path class="cls-1" d="M36.94,44.3l.12,4.71c1.14-1.5,1.1-3.48-.12-4.71Z"/>
      <path class="cls-1" d="M47.59,34.71c.2-1.75.3-3.28.17-4.84-1.26,1.56-1.06,3.36-.17,4.84Z"/>
      <path class="cls-1" d="M50.31,23.24c-.14,1.65-.22,3.25-.19,4.79,1.35-1.59,1.12-3.32.19-4.79Z"/>
      <path class="cls-1" d="M34.79,31.23c-.03-.12-.47-.07-.54.03-.51.75-.5,4.03.11,4.7l.61-4.04-.19-.68Z"/>
      <path class="cls-1" d="M37.26,30.71c-.21,1.76-.3,3.26-.15,5.03,1.32-1.75.94-3.5.15-5.03Z"/>
      <path class="cls-1" d="M2.12,33c-.23,0-.95.19-1.06-.01l-.86-1.68c-.45,1.04.06,1.77.87,2.53.22.21.85.37,1.01.14.13-.19.26-.97.03-.97Z"/>
      <path class="cls-1" d="M1.78,36.52l-.02-.65c0-.15-.37-.1-.69-.15l-.96-1.86c-.36.82.22,2.06.7,2.58.18.2.97.29.97.08Z"/>
      <path class="cls-1" d="M.97,38.31l-.85-1.49c-.4.78.36,2.39,1.03,2.75.17.09.57-.69.41-.79-.11-.07-.53-.34-.6-.46Z"/>
    </g>
  </g>
</svg>