<?xml version="1.0" encoding="UTF-8"?>
<svg id="Warstwa_2" data-name="Warstwa 2" xmlns="http://www.w3.org/2000/svg" viewBox="0 0 54.27 53.18">
  <defs>
    <style>
      .cls-1 {
        fill: #fff;
      }
    </style>
  </defs>
  <g id="icon-v9-equipment-pixarts-store">
    <g id="icon-v9-equipment-pixarts-store_06">
      <path class="cls-1" d="M43.08,7.95c.24-2.1.37-3.46.38-5.31l-2.19,4.27c.32.54,1.22,1.05,1.81,1.04Z"/>
      <path class="cls-1" d="M12.62,22.45l-.13,4.39c1.52,1.43,3.29,2.74,5.09,3.65l6.17-2.9c.65-.31.95-1.68,1.32-2.69.47,2.21.94,4.22,1.96,6.42,1.21-2.34,1.58-4.19,1.95-6.45l.82,2.43,6.93,3.24c1.88-1.18,3.41-2.3,4.92-3.67l-.29-4.6c-2.72.28-3.87,1.93-5.28,3.91l.45-2.45-3.67-6.43c2.29-2.91,4.21-5.55,4.4-9.12-1.04,2.41-2.09,4.45-4.35,5.83l-4.74,2.9-1.13,4.13-1.09-4.24-5.56-3.37c-1.73-1.45-2.47-3.14-3.5-5.4.13,3.63,2.04,6.44,4.36,9.28l-3.81,6.72.48,1.91c-1.62-2.01-2.74-3.57-5.29-3.49Z"/>
      <path class="cls-1" d="M9.91,13.44c-1.34,1-3.02,1.27-4.3-.2l-1.5,2.74c1.91.53,2.03,1.68,1.6,3-.39,1.21-1.43,1.75-2.94,1.13l-.86,3.64c2.52-.88,4.23-1.02,6.71-.35,1.03-1.23,2.28-2.58,3.82-2.45,1.49.12,2.76.88,4.3,1.55l3.2-5.12c-2.65-3.17-4.07-6.41-4.76-10.43-1.38.08-1.98,1.52-4.62,2.54,1.04,1.26.5,3.08-.67,3.95ZM17.1,17.15c.57.62-.04,2.18-.55,2.58-.59.46-2.25.42-2.59-.54-.52-1.45-.62-2.83-.61-4.59,1.39.72,2.64,1.35,3.75,2.55Z"/>
      <path class="cls-1" d="M43.38,9.39l-4.42-2.44c-.7,3.82-2.15,7.35-4.76,10.39l3.17,5.22c1.49-.82,2.69-1.49,4.15-1.67,1.72-.2,2.89,1.51,3.95,2.45,2.29-.4,4.18-.64,6.64.36-.24-1.4-.53-2.49-.91-3.59-1.7.73-2.67-.24-3-1.62-.32-1.32.25-2.04,1.88-2.6l-1.61-2.54c-1.29,1.15-2.37,1.07-3.79.42-.84-.38-1.67-1.71-1.92-2.87l.63-1.52ZM39.96,19.49c-.23.52-1.77.7-2.24.41-.84-.53-1.27-2.46-.43-3.06,1.14-.82,2.08-1.39,3.4-2.19.1,1.69-.07,3.35-.73,4.84Z"/>
      <path class="cls-1" d="M19.85,49.79c2.3,1.33,4.64,2.76,7.15,3.39,2.52-.48,5-2.16,7.28-3.35l2.42,3.08-.06-5.52c.21-.13,1.06.81,1.38.7l4.08-1.36c-.56-.9-1.39-2.08-1.95-2.77l-6.69,2.97-.99,2.51-1.48-1.6-3.9,2.31-3.6-2c-.43-.24-1.29.66-1.75,1.17l-.96-2.28-6.88-3.1-1.92,2.81,4.11,1.35,1.46-.85-.15,5.61,2.47-3.06Z"/>
      <path class="cls-1" d="M18.35,34.06l2.09,2.73,4.53-2.24,2.1,4.11,2.1-4.13,4.51,2.26,2.27-2.87c.54-.68.27-1.92-.29-2.28l-1.54,1.9.44-2.47-5.19-2.59c-.8,2.02-1.28,3.38-2.38,5.12l-2.2-5.16-5.1,2.54c.23,1.05.33,1.55.43,2.59l-1.52-2.21c-.76.77-.9,1.83-.25,2.69Z"/>
      <path class="cls-1" d="M18.88,6.59c-.7.99-.97,1.93-.28,3.16,2.06,3.69,5.34,4.46,8.4,6.85l4.3-2.72c2.31-1.46,4.54-3.5,4.71-6.14-1.69-1.68-1.52-4.18-3.5-3.3-3.93,1.76-7.94,1.5-11.84-.41l-1.79,2.55ZM21.39,5.65c3.67,1.47,7.6,1.43,11.35,0,1.03.34,1.11,2.16.38,3.07-1.01,1.25-2.28,1.92-3.95,2.84l-2.08,3.43-2.2-3.41c-1.24-.78-2.51-1.45-3.43-2.4-.96-.99-1.09-2.59-.08-3.53Z"/>
      <path class="cls-1" d="M50.68,38.09l3.51-2.54v-6.44c-2.14,4.29-1.87,7.52-7.95,7.47-1.04,3.44,2.95,2.55,2.47,7.61-.28,2.93,3.97,2.93,1.62,6.95,1.43.77,2.55,1.26,3.88,1.55l-.03-11.5-1.8.98c-.37.2-1.31-.36-1.63-.75-.56-.7-.83-2.79-.08-3.34Z"/>
      <path class="cls-1" d="M3.95,39.97c0,.85-.84,1.91-1.64,2.09-.57.13-1.44-.33-2.27-.77v11.45s2.36-.71,2.36-.71c2.48-.75-.49-3.33,1.31-4.74,3.8-2.99-.09-4.21,3.13-7.42.94-.94,1.45-2.08,1.22-3.26-5.99,0-5.84-2.83-7.98-6.87l-.06,5.89,3.2,2.24c.45.31.75,1.37.75,2.09Z"/>
      <path class="cls-1" d="M50.82,32.65c.84-.58,1.85-2.63,1.56-3.57-.42-1.37-1.2-3.05-1.85-4.27-1.78-.76-3.57-.37-5.29.1l-1.84-1.77c-.66,1.73-.28,3.11.26,4.81.21.67.27,2.09.6,2.7l2.07,3.78c1.66-.52,3.02-.77,4.49-1.79Z"/>
      <path class="cls-1" d="M3.37,32.74c1.47.86,2.73,1.23,4.3,1.74l2.42-4.4c.29-.53.28-1.93.47-2.48.54-1.53.61-3.01.19-4.34l-2.11,1.69c-1.75-.48-3.8-1.17-5.23.16-.63,1.1-1.31,2.81-1.67,4.12-.25.94.77,3.02,1.63,3.52Z"/>
      <path class="cls-1" d="M34.4,38.21c-2.01-.06-2.36-1.68-4.81-2.01l-2.59,4.45-2.55-4.57-4.67,2.3c.42,1.55,1.04,3.05,1.9,4.26l3.48-1.22,1.86,3.48,1.85-3.45,3.88,1.23,1.65-4.47Z"/>
      <path class="cls-1" d="M24.71,42.67c-.9.29-2.29.69-2.83,1.37-.43.54-.06,2.32.14,2.86.62-.04,1.7-.06,2.15.22l2.89,1.77,3.02-1.94c.5-.32,1.68-.06,2.19.07l.14-3.09c-.91-.58-2.27-1.05-3.16-1.12l-2.19,3.73-2.36-3.87Z"/>
      <path class="cls-1" d="M47.19,12.92c2.31-4.32,4.24-8.34,6.16-12.92-3.46,3.48-6.44,6.95-9.36,10.61-.73,1.35,2.45,3.48,3.2,2.31Z"/>
      <path class="cls-1" d="M6.93,13.14c1.25.59,4.06-1.39,3.02-2.69C6.93,6.67,3.94,3.35.79.15c1.88,4.73,3.96,8.83,6.15,12.99Z"/>
      <path class="cls-1" d="M37.38,33.76l-2.2,2.99c.43,1.5.02,2.36-.5,4.36l4.06-2.47,2.64.29c-1.12-1.24-1.79-2.18-1.48-3.74l-2.52-1.42Z"/>
      <path class="cls-1" d="M15.62,38.68l3.69,2.33c-.43-1.8-.57-2.76-.37-4.31l-2.19-3.05-2.58,1.56.2,1.66-1.71,2.07,2.96-.26Z"/>
      <path class="cls-1" d="M42.36,27.94l-5.37,3.82c1.41,1.69,3.8,2.68,5.91,2.84l-1.23-2.71c.63-1.27.98-2.6.68-3.94Z"/>
      <path class="cls-1" d="M17.15,31.67l-5.38-3.68c-.3,1.61.19,2.8.74,4.12l-1.17,2.48c2.58-.46,4.55-1.29,5.81-2.92Z"/>
      <polygon class="cls-1" points="14.33 42.78 20.45 45.63 20.45 42.64 15.21 39.9 14.33 42.78"/>
      <path class="cls-1" d="M38.83,40.07l-5.08,2.56-.16,2.88c2.29-.87,4.09-1.69,6.16-2.85l-.92-2.6Z"/>
      <path class="cls-1" d="M3.68,19.36c.38.24,1.31-.43,1.32-.82.05-2.08-2.6-2.05-4.89-2.6,1.01,1.39,2.24,2.59,3.58,3.43Z"/>
      <path class="cls-1" d="M49.3,17.32c-.36.18-.26,1.33-.05,1.66,1.03,1.6,3.95-2.15,4.71-3.03-1.56.22-3.43.75-4.66,1.38Z"/>
      <path class="cls-1" d="M51.53,38.64c-.63.45-.34,2.32.63,2.34,2.52-.67,2.1-2.25,2.06-4.26l-2.68,1.92Z"/>
      <path class="cls-1" d="M2.36,40.86c.41-.17.8-1.56.42-1.91-.7-.67-1.56-1.29-2.56-2.02-.28,1.07-.36,2.56.38,3.38.44.48,1.35.72,1.76.55Z"/>
      <path class="cls-1" d="M11.01,8.06c.84-.37,1.44-.77,1.75-1.25l-2.18-4.16.44,5.41Z"/>
      <path class="cls-1" d="M44.19,43.31l3.74.05-.75-2.33c-1.37.84-1.85,1.17-2.99,2.28Z"/>
      <path class="cls-1" d="M4.13,49.82l3.55-.16-3.1-2.11c-.52.89-.62,1.41-.45,2.28Z"/>
      <path class="cls-1" d="M9.88,43.16c-1.04-.85-1.79-1.4-2.92-2.1-.55.65-.84,1.73-.46,2.19,1.13.09,2.22.04,3.38-.08Z"/>
      <path class="cls-1" d="M46.32,49.7l3.69.06c.13-.71-.08-1.61-.55-2.04l-3.14,1.98Z"/>
      <path class="cls-1" d="M16.06,18.92l.52-1.46-2.44-1.43c.16.98.38,2.01.63,2.53.15.32,1.19.66,1.3.35Z"/>
      <path class="cls-1" d="M38.81,16.56l-1.06,1.14c-.23.25.21,1.25.59,1.31.83.13,1.41-1.33,1.53-2.56.09-.27-.86-.11-1.06.12Z"/>
    </g>
  </g>
</svg>