<?xml version="1.0" encoding="UTF-8"?>
<svg id="Warstwa_2" data-name="Warstwa 2" xmlns="http://www.w3.org/2000/svg" viewBox="0 0 56.97 43.54">
  <defs>
    <style>
      .cls-1 {
        fill: #fff;
      }
    </style>
  </defs>
  <g id="icon-set-v2-combat-action-pixarts-store">
    <g id="icon-set-v2-combat-action-pixarts-store_03">
      <path class="cls-1" d="M43.58,31.23l5.92-10.29-7.49,3.01,5.81-10.93-11.41,9.42-.25-12.48-3.11,5.06L31.04,0l-4.54,17.42-3.94-8.06.04,10.56-8.07-10.03,3.02,14.93-9.11-5.36,3.53,6.65-6.61-2.97,7.67,10.24-10.57-2.05,9.15,6.79-4.25,1,4.68,1.76-6.57,2.6,44.41.06-5.44-2.43,9.23-7.11-8.28.17,10.1-6.69-11.9,3.75ZM21.1,25.54c.58,0,1.05.49,1.05,1.09s-.47,1.09-1.05,1.09-1.05-.49-1.05-1.09.47-1.09,1.05-1.09ZM15.44,27.78c1.23-.03,2.15,1.42,2.02,2.68-.5.04-1.65-.25-2.04-.57-.39-.32-.34-1.68.02-2.11ZM16.15,40.09c-.76-1.02-1.22-2.37-1.69-3.85l2.69-.65c2.64.41,4.2,2.32,5.53,4.44l.54.87c.24.39-4.78,2.28-7.08-.81ZM21.42,33.86c-.25-.36-.13-1.84.28-1.96,2.12-.6,3.6,2.95,3.76,4.85-1.76-.64-3.08-1.53-4.04-2.89ZM32.7,26.45c-.47,1.29-2.17,2.1-3.62,3.15-.9-1.69-1.66-3.33-2-5.24,2.04-2.92,1.99-3.7,5.46-3.76.35,1.81.82,4.07.16,5.85ZM39.38,28.08c.44-.5,2.14-1.03,2.17.2.02.94-1.05,2.18-1.85,2.18-.75,0-.79-1.83-.31-2.37ZM33.07,36.79c-.05-1.43.45-2.75,1.46-3.47l.79-.57c.17-.12.58.74.61.99.17,1.5-1.27,3.22-2.86,3.05ZM35.67,41.72c.12-1.42.36-2.94,1.17-3.96.72-.9,2.23-1.14,3.76-1.52l1.65,2.5c-1.5,2.19-3.86,3.19-6.58,2.98Z"/>
      <path class="cls-1" d="M45.33,10.23c.59-.63,1.62-1.45,2.49-2.08,1.53-1.12,2.78-4.55.82-5.55-3.33-.94-5.18,2.97-6.33,5.65l-2.22,5.17,3.33-4.26c-.66,2.48-1.75,3.91-2.5,5.77l4.4-4.69Z"/>
      <path class="cls-1" d="M5.62,7.95c-1.2,2.37.71,4.12,2.32,5.81l4.82,5.04-2.23-4.11c-.08-.16.43-.97.54-.83l.54.67,2.04,2.51-1.32-3.55c-.82-2.21-.02-5.51-5.3-6.62-.41-.09-1.22.69-1.42,1.08Z"/>
      <path class="cls-1" d="M51.81,22.02c-.69,1.12-1.25,2.2-1.6,3.2,5-.59,4.53.4,6.75-4.06-1.61-1.75-4.07-.92-5.16.86Z"/>
      <path class="cls-1" d="M4.45,27.88c.7-2.02-3.48-3.99-4.32-3.19-.21.2-.14,1.23.02,1.48.71,1.08,3.14,2.46,4.3,1.72Z"/>
      <path class="cls-1" d="M24.71,3.09c-.24-.15-1.05-.04-1.22.24-.63,1.04-.27,3.54,1.6,4.02l.35-3.04c.04-.31-.5-1.06-.73-1.21Z"/>
    </g>
  </g>
</svg>