<?xml version="1.0" encoding="UTF-8"?>
<svg id="Warstwa_2" data-name="Warstwa 2" xmlns="http://www.w3.org/2000/svg" viewBox="0 0 51.48 45.66">
  <defs>
    <style>
      .cls-1 {
        fill: #fff;
      }
    </style>
  </defs>
  <g id="icon-set-v2-combat-action-pixarts-store">
    <g id="icon-set-v2-combat-action-pixarts-store_89">
      <path class="cls-1" d="M41.5,22.61c4.31-2.86,1.98-8.35,3.37-7.86l1.28.45c.33.12,1.11.75,1.33.48l1-1.18c1.09-1.28,1.63-2.2,2.02-3.83.74-3.1-.78-6.43-4.37-6.95-1.77-.26-3.89-.15-5.64-.02l2.09,1.14-2.48,1.1,1.36.45c.25.08-.18.9-.21,1.18l-.45,4.05c-1.84-2.1-4.09-2.77-6.32-3.29l-1.26.9-7.81-.73c-3.18,3.47-7.88,8.73-9.7,12.86,1.09,2.2,3.91,2.99,5.74,1.13.67-.68.13-2.62-.13-3.71l5.82-4.23c.23-.17.78-1.23.83-1,.04.18.46,1.1.63,1.15l5.88,1.88c-1.38.31-2.66.45-4.23.61l-3.39,4.69c-1.02,1.41-2.68,2.64-3.59,4.24-1.72,3.04-.58,6.22,2.27,7.73,3.48,1.84,7.2,2.99,11.01,3.97-2.2.39-3.89.92-5.57,1.99-3.48,2.21-6.91,3.95-10.36,5.86l9-2.1-2.53,1.33c3.09-.44,16.7-2.89,17.21-6.73.18-1.36-.29-2.6-1.23-3.55-2.96-2.97-6.27-5.34-9.9-7.12.9-.35,2.01-.71,2.58-1.09l5.74-3.81Z"/>
      <path class="cls-1" d="M34.15,4.12L30.04,0l-.13,3.36c-4.26-.67-8.23-1.28-12.35-.82l7.25,2.56c-4.19,1-7.43,1.67-10.93,3.37l6.38-.27c-5.14,2.4-10.18,3.8-14.89,6.88l11.84-3.37-2.48,2.79c6.75-1.61,7.09-6.34,10.21-7.18,2.08-.56,4.73.31,6.93.41l1.22-1.02,4.91.98c-1.91-1.68-2.17-2.5-1.44-5.24l-2.41,1.68Z"/>
      <path class="cls-1" d="M27.52,36.43c-2.64-1.43-4.33-2.56-5.85-5.3-2.38,1.8-5.13,7-6.82,8.04-3.68,2.27-7.35,3.7-11.1,5.68l6.56-1.51-2.83,1.96c9.38-1.12,13.37-2.21,20.04-8.87Z"/>
      <path class="cls-1" d="M49.9,18.06c-.71-.12-2.01.18-2.41.59-.4.42-.4,1.66-.67,2.48-.27.8-2.47.77-3.24,1.18-1.58.86-3.3,2.34-4.25,4.01-.09.67,1.32,1.92,1.94,1.85.54-.07,1.82-.23,2.31-.6l5.88-4.34c1.07-.79,2.02-1.42,2.03-2.67,0-.89-.57-2.36-1.58-2.52Z"/>
      <path class="cls-1" d="M13.94,25.86c-4.11,1.46-7.98,3.42-11.81,5.61l11.92-3.78,4.06,1.25-6.9,3.64c3.46-.83,6.13-1.84,9.07-2.94l.84-3.5c-2.47.33-4.95-.08-7.16-.28Z"/>
      <path class="cls-1" d="M14.03,20.33l3.37-5.12c-3.95.96-7.08,2.2-10.39,3.82,2.34.25,3.85-1.55,6.11-.71-4.62,2.42-8.97,4.12-13.11,6.93l14.03-4.93Z"/>
      <path class="cls-1" d="M14.81,36.72c-2.44.9-5.18,2.01-7.35,3.18,1.82.88,12.11-4.93,7.35-3.18Z"/>
      <path class="cls-1" d="M10.03,9.35l1.32-.56c.33-.14.77-1.23.44-1.37-.33-.14-1.16-.3-1.49-.19-.44.14-1.04.74-1,1.09.03.35.42,1.17.73,1.03Z"/>
    </g>
  </g>
</svg>