<?xml version="1.0" encoding="UTF-8"?>
<svg id="Warstwa_2" data-name="Warstwa 2" xmlns="http://www.w3.org/2000/svg" viewBox="0 0 48.99 53.24">
  <defs>
    <style>
      .cls-1 {
        fill: #fff;
      }
    </style>
  </defs>
  <g id="icon-set-v2-combat-action-pixarts-store">
    <g id="icon-set-v2-combat-action-pixarts-store_101">
      <path class="cls-1" d="M48.99,25.78c-4.81-2.42-10.44-1.41-14.45,1.98,1.67,1.28,3.18,2.41,3.73,4.37-3.22-2.37-6.08-4.56-9.84-5.26-9.29-1.74-9.64,6.1-15.42,7.96,7.24-6.9.34-11.14,6.1-21.16-1.78-1.51-3.81,4.98-4.49,4.46l2.8-5.89,4.97,1.08c1.7.37,3.43-.97,4.94-1.27,1.51-.29,3.21.08,4.4-1.3.31-.36.18-2.05-.3-1.91-1.51.45-3.07,1.16-4.54,1.9-5.66-1.02-3.71-2.33-3.84-2.41l.69.43c2.86,1.79,7.14-.64,8.36-2.16.65-.81-.94-2.5-1.62-3.07l-4.24-3.53c-3.79,2.63-9.09,3.89-11.76,7.66-3.04,4.29-4.77,9.25-8.12,13.27C1.1,27.21,1.13,32.57,0,40.25c1.31,1.51,3.32,2.74,5.4,3l4.87.6-1.86.65,4.14,1.09c2.96.78,5.88,1.4,8.85,1.92-.4,1.42-.83,2.73-.93,4.17l6.21-11.86h-6.2s4.61-11.03,4.61-11.03c2.38.06,4.07.21,6.39.61l-3.5,6.55,6.44-.16-9.13,11.64c5.27.29,9.54-1.12,14.08-2.62l3.93,8.42h5.65s-.06-4.38-.06-4.38c-2.47-2.18-4.39-4.3-5.6-7.2l5.63,5.26.08-21.14Z"/>
      <path class="cls-1" d="M33.94,16.53l2.67.44c-1.24,2.14-2.3,3.78-3.22,6.1l7.82-7.99-3.17-.63,4.31-5.86-3.99.12-4.42,7.82Z"/>
      <path class="cls-1" d="M46.21,15.99l-4.6,2.45,1.01,1.19-2.45,1.91,5.15-1.29-1.22-1.46,2.88-1.3c.32-.14.78-1.15.49-1.35-.23-.16-.97-.32-1.27-.16Z"/>
      <path class="cls-1" d="M31.35,18.45l-1.69.29.37-3.79c-.42.07-1.71.63-1.75,1.08l-.41,4.5h1.67s-.16,3.42-.16,3.42l1.98-5.5Z"/>
    </g>
  </g>
</svg>