<?xml version="1.0" encoding="UTF-8"?>
<svg id="Warstwa_2" data-name="Warstwa 2" xmlns="http://www.w3.org/2000/svg" viewBox="0 0 50.5 44.92">
  <defs>
    <style>
      .cls-1 {
        fill: #fff;
      }
    </style>
  </defs>
  <g id="icon-set-v2-combat-action-pixarts-store">
    <g id="icon-set-v2-combat-action-pixarts-store_30">
      <path class="cls-1" d="M35.49,30.88c-4.08.44-7.89.59-11.63-.45,2.28-.75,4.35-1.12,6.26-2.45-6.17,1.37-11.86,1.9-17.19-1.23-1.24-.72-2.55-2.1-1.75-3.49,1.08-1.87,3.22-1.75,5.13-1.55,6.97.7,13.75.46,20.3-1.78,3.18-1.08,6.2-2.27,8.53-4.69-9.82,4.45-22.49,5.37-32.82,3.51-2.3-.41-8.41-2.34-7.69-4.95.14-.5.65-1.22,1.04-1.75-1.27.46-2.8,1.35-3.39,2.74-1.54,3.69,6.96,5.76,9.48,6.45-1.11.78-2.37,1.55-3.18,2.47-1,1.14-.11,2.89.91,3.72,5.92,4.77,19.26,6.4,25.98,3.44Z"/>
      <path class="cls-1" d="M43.16,1.92C33.77-.36,24.04-.64,14.57,1.24c-2.72.54-5.24,1.23-7.25,2.92,10.38-2.93,21-3.1,31.39-.49,2.07.52,4.02,1.3,5.65,2.51,1.36,1.01,1.08,3.07-.21,4.06-6.18,4.72-20.1,5.1-27.56,5.55,8.48,1.87,25.93-.42,32.56-5.58,1.64-1.28,1.84-3.42.29-4.89-1.64-1.56-3.89-2.8-6.28-3.38Z"/>
      <path class="cls-1" d="M31.06,12.05c1.85-.32,8.91-2.09,7.89-4.39-.21-.47-1.1-1.27-1.7-1.46-7.28-2.39-15.02-2.33-22.46-.41-.73.19-1.51.88-1.92,1.49,3.23,2.19,8.2,1.73,12.11,1.53-2.05-1.27-4.51-.13-7.6-1.49,1.88-2.49,17.83-1.45,17.14.96-.11.39-.87,1.14-1.3,1.27-7.95,2.35-20.86,2.35-28.51-1.13-.56-.25-1.61-1.19-1.5-1.75l.52-2.56c-1.28.6-2.88,1.7-3.58,2.96-1.06,1.91,3.59,4.15,5.64,4.58,8.38,1.75,16.84,1.84,25.26.39Z"/>
      <path class="cls-1" d="M45,18.32c.06,3.07-4.44,4.32-6.91,4.96-6.46,1.69-12.73,1.36-19.57.85,5.94,2.54,12.39,2.35,18.71,1.45,2.62-.36,9.61-2.45,9.19-5.52-.08-.59-.95-1.48-1.41-1.74Z"/>
      <path class="cls-1" d="M33.57,39.74c-5.36.92-12.5.8-16.27-3.38-.33-.36-.57-1.65-.24-2.01l1.17-1.23c-1.38-.02-2.7.71-3.2,2.02-.35.93.19,2.51,1.08,3.21l2.23,1.75c.02,4.87,6.11,5.3,9.36,4.49-3.03-.44-6.42-.67-7.64-3.9,4.84,1.23,9.57,1.65,13.52-.95Z"/>
      <path class="cls-1" d="M38.7,27.83c3.24,6.19-14.64,8.63-18.13,7.79,5.45,2.16,15.37,1.4,20.14-3.17.71-.68.86-2.48.24-3.31-.44-.59-1.43-1.1-2.25-1.32Z"/>
    </g>
  </g>
</svg>