<?xml version="1.0" encoding="UTF-8"?>
<svg id="Warstwa_2" data-name="Warstwa 2" xmlns="http://www.w3.org/2000/svg" viewBox="0 0 53.58 52.29">
  <defs>
    <style>
      .cls-1 {
        fill: #fff;
      }
    </style>
  </defs>
  <g id="icon-set-v2-combat-action-pixarts-store">
    <g id="icon-set-v2-combat-action-pixarts-store_61">
      <path class="cls-1" d="M4.61,3.15c1.88,4.09,3.81,7.37,6.29,10.68l24.32,24.7c.82-.37,1.56-1.04,1.88-1.84L16.4,15.25c7.72,6.34,14.07,13.57,21.46,20.38.5.46,2.13-1.25,1.85-1.86L14.19,8.99c-2.7-2.62-6.39-3.97-9.59-5.84Z"/>
      <path class="cls-1" d="M40.1,8.31l-12.25,11.82c.15.71,1.32,1.84,1.88,1.6,2.73-2.43,5.14-5.22,8-7.14l-7.47,8.08c.42.61,1.29,1.36,1.9,1.54l10.99-11.23c2.56-2.62,4.09-5.96,5.62-9.63-3.18,1.61-6.34,2.73-8.67,4.98Z"/>
      <path class="cls-1" d="M22.53,15.27l4.25,4.08c3.11-3.18,6.4-5.69,8.42-9.84l-4.14,3.26,1.62-7.35-3.98,6.66-1.95-12.09-1.98,11.82-3.76-4.77,1.41,6.03-3.43-2.88c.82,1.88,2.01,3.61,3.53,5.08Z"/>
      <polygon class="cls-1" points="50.96 46.92 42.11 37.92 39.18 40.81 48.23 49.6 50.96 46.92"/>
      <path class="cls-1" d="M11.36,37.98l-8.65,8.95c.74.85,1.77,1.81,2.69,2.57l8.97-8.69-3.01-2.82Z"/>
      <path class="cls-1" d="M43.26,31.99c-1.48,1.74-2.43,2.9-3.83,4.23l-5.97,5.67c.43.68,1.09,1.31,1.78,1.63l9.87-9.88-1.86-1.64Z"/>
      <path class="cls-1" d="M20.05,41.97l-9.83-10.01c-.53.42-1.25,1.23-1.63,1.89l9.71,9.78c.85-.41,1.61-1.14,1.74-1.66Z"/>
      <polygon class="cls-1" points="23.3 28.04 21.46 26.39 13.53 33.98 15.45 35.91 23.3 28.04"/>
      <rect class="cls-1" x="15.52" y="32.4" width="11.1" height="2.7" transform="translate(-17.68 24.73) rotate(-44.91)"/>
      <path class="cls-1" d="M36.28,21.97l-3.26,3.24,7.02,2.24-4.08-3.47,6.7-1.28c-2.3-.54-4.28-.75-6.39-.73Z"/>
      <path class="cls-1" d="M20.36,25.3l-3.12-3.18c-2.02.02-3.98.23-5.79.57l6.58,1.38-4.38,3.39,6.71-2.16Z"/>
      <path class="cls-1" d="M4.22,52.27c.38-.04,1.03-1.28.73-1.61-1.03-1.16-2.53-2.72-3.58-3.67-.94-.18-1.74,1.72-1.18,2.43,1.32,1.68,2.28,3.04,4.03,2.85Z"/>
      <path class="cls-1" d="M52.28,46.93l-3.92,3.85c0,.47.7,1.4,1.13,1.44,1.47.16,3-1.51,3.92-2.83.51-.73-.17-2.3-1.13-2.46Z"/>
    </g>
  </g>
</svg>