<?xml version="1.0" encoding="UTF-8"?>
<svg id="Warstwa_2" data-name="Warstwa 2" xmlns="http://www.w3.org/2000/svg" viewBox="0 0 51.49 51.59">
  <defs>
    <style>
      .cls-1 {
        fill: #fff;
      }
    </style>
  </defs>
  <g id="icon-set-v2-combat-action-pixarts-store">
    <g id="icon-set-v2-combat-action-pixarts-store_151">
      <path class="cls-1" d="M18.49,32.48l.92.88c.21-.18.66-.67.8-.95.14-.29-.31-1-.56-1.23l-1.87-1.74c-.14-.13.38-.73.51-.59.1.1.56.47.7.52.67.23,1.83-1.19,1.54-2.01-.22-.64-.53-1.47-.4-1.94.11-.41.71-1.16,1.17-1.32,1.44-.5,1.74-2.25,2.47-3.29.76-1.08,2.94-1.38,2.77-3.41l1.79-.93c.9,2.09,2.85,2.07,4.95,2.03-.85.5-2.01.6-3.02.46-.91-.13-1.54-.95-2.5-1.72l-1.35,2.59,1.61,2.57c.7,1.11-.99,3.55-.79,4.59-1.37,2.92-2.42,5.91-2.95,9.1-1.91,2.9-2.37,1.74-2.9,4.18-.28,1.33-.46,2.94-1.02,4.2l-1.23,2.78c-.6,1.36-1.1,3.2.44,4.19.94.61,1.85-.6,1.97-1.56.79-6.38,3.51-6.7,4.6-8.38l1.58-2.45c2.06-3.19,2.32-3.25,4.05-7.15l1.75-.96,5.28,1.95-1.7-.08c-.36-.02-.71.56-1.07.96-1.31,1.44-2.48.38-3.22,1.22-.54.61.24,1.14-.05,3.06-.19,1.23-.18,2.53.85,3.34,1.47-.66.59-2.01,2.28-4.26,2.88-1.35,2.73-.79,6.06-1.83,1.13-.35,3.25-2.16,2.24-3.53l-2.14-2.9c-1.34-1.81-3.7-2.1-5.36-3.35-2.14-1.61-.05-5.73-1.02-6.31.39-.23,1.12-.57,1.17-.95l.2-1.6c1.08,2.12-2.09,4.21.25,6.57,1.9,1.92,4.25-.06,5.69-1,1.11-.72,2.02-1.62,2-3.21,0-.51-.85-1.13-1.38-1.31-.46-.15-1.44.28-1.7.68l-.08,1.75-2.84-.03c.02-.72-.4-1.74-.43-2.3-.07-1.14.15-2.51-.7-3.43-.53-.58-1.73-1.27-2.53-1.32-.36.38-1,.93-1.35.98-.19.03-2.94-1.66-2.13-2.79.69,1.21,1.52,2.08,2.73,2.16.66-1.7,1.36-3.2,1.7-4.92.22-1.12-1.26-2.12-2.08-2.28-1.05-.2-2.43-.07-2.97,1.05-.42.87-.52,2.07-.65,3.09l-.99.59c.31.77.54,1.48.56,2.21-.66-1.26-1.31-2.26-2.39-3.32l-.77,1.07c-.77-.37-1.31-.97-2.09-1.85l.19,2.21c-1.25.28-2.01,1.94-2.43,3.05-.09.23-.82.67-.66.82l.75.72c-.46.54-1.19,1.43-1.29,2.04-.2,1.13-1.21,1.08-1.7,1.66-1.52,1.84-1.77,4.44-2.48,6.55-.35,1.03-.33,1.31.09,2.81l-2.26-1.3c-.73-.42-1.57-.13-1.9.7l1.31.81L1.25,43.21c-.62,2.35-.97,4.64-1.25,7.03,2.39-.82,4.57-1.64,6.66-2.74l11.83-15.03Z"/>
      <path class="cls-1" d="M2.33,25.14c.29,4.32.92,8.07,2.98,11.62l2.75-2.82c-1.47-4.52-1.69-9.41.32-13.81-.17,3.82-.24,7.48,1.7,10.72-1.56-8.8,1.34-17.21,7.7-23.29C21.42,3.98,25.93,1.9,30.7.17,16.56,2.1,5.79,12.54,4.75,26.79c-1.4-7.71,1.58-14.98,6.68-20.76-2.65,1.65-4.38,4.14-6.32,6.52C-.06,20.56-.61,28.9,2.93,37.62c-.79-4.31-1.57-8.45-.6-12.48Z"/>
      <path class="cls-1" d="M24.8,44.95c-.63.92-1.05,1.78-1.41,2.82,3.09.88,5.91.77,8.91.75-3.02.95-5.87.99-9.02,1.1,9.5,2.26,21.1-1.04,26.09-10.1-2.6,2.3-4.71,4.62-7.84,5.62,1.34-1.32,2.56-2.28,3.52-3.72-4.62,3.13-8.29,5.35-13.91,4.96,13.18-2.49,22.39-13.5,19.96-26.74-.58,15.02-11.47,25.3-26.31,25.3Z"/>
      <path class="cls-1" d="M41.55,4.88c-1.36,1.72-1.6,4.14-.34,6.2,1.01,1.65,3.14,2.89,5.34,2.49,1.33-.24,2.68-.88,3.25-2.05-2.8,1.04-5.64-.27-6.3-2.9-.65-2.62.97-5.03,4-5.56-2.19-.78-4.51,0-5.95,1.82Z"/>
      <path class="cls-1" d="M15.48,15.39C22.07,5.85,32.69.74,44.26.3c-10.92-1.74-24.48,4.26-28.78,15.09Z"/>
      <path class="cls-1" d="M18.15,46.69l1.04-2.62-5.69-2.82c-.23,0-.76.81-.59,1.07l4.11,2.96-1.72-.16c1.05.66,1.79,1.07,2.86,1.57Z"/>
      <path class="cls-1" d="M9.95,45.57l.41.6c1.34.79,2.54,1.48,4,2l-3.91-3.31c-.23.26-.58.59-.49.72Z"/>
    </g>
  </g>
</svg>