<?xml version="1.0" encoding="UTF-8"?>
<svg id="Warstwa_2" data-name="Warstwa 2" xmlns="http://www.w3.org/2000/svg" viewBox="0 0 49.67 49.21">
  <defs>
    <style>
      .cls-1 {
        fill: #fff;
      }
    </style>
  </defs>
  <g id="icon-set-v2-combat-action-pixarts-store">
    <g id="icon-set-v2-combat-action-pixarts-store_66">
      <path class="cls-1" d="M40.07,25.85l-4.02,4.72,3.37.82c1.49-.97,2.65-2.01,4.49-2.66-1.23,1.56-2.03,2.46-3.21,4.5l5.75.3-1.25.83,1.52,5.06c-.89-1.22-1.72-2.78-2.49-4.35-5.48-.72-6.15,4.22-9.15,3.58,1.52-.73,2.57-1.47,3.96-2.97l-3.17-1.14c-1.58,1.38-2.62,2.95-3.05,4.92l2.34,2.97,3.73-.59,3.06,4.76c-1.28-.95-2.3-2.52-3.6-3.24-.69-.38-2.53.32-3.35.52l-3.18-2.36c-9.91,1.6-4.71,2.68-9.06,4.6l-6.08,2.68c1.91-2.17,3.93-3.08,5.94-4.74-.83-1.6-1.61-3.74-3.11-4.59-1.73-.97-3.88.63-5.19,1.42v2.13s-1.06-1.59-1.06-1.59l-4.63-.18-1.77,3.32-4.42,1.33,3.59-2.18,1.69-3.77c1.91-.28,3-.5,4.82-1.32-1.12-1.26-2.23-2.19-3.49-2.89-2.65,1.06-5.07.45-7.27-.85,2.95.68,5.05.74,7.55-.62l4.04,2.56c.51.32,1.81.35,2.17-.04.37-.39.13-1.73-.32-2.16-4.48-4.26-.58-5.17-7.72-9.7l-2.61,1.41L.02,24.92l-.02,24.26,49.62.04.04-24.25-5.03,1.06-4.57-.17Z"/>
      <path class="cls-1" d="M37,12.9l-2.8-5.83c-2.36,1.25-4.38,3.11-5.83,5.31-.6.9-.9,3.28-.56,4.31.51,1.58,1.38,2.95,2.25,4.47,4.84-2.21,5.09-3.13,6.95-8.26ZM30.87,19.83l.78-3.53c.14-.62,1.11-1.6,1.67-2.12l.35-4.27.67,3.31c.08.4,1.39.66,1.84.69-4.49,1.52-3.31,2.66-5.31,5.92Z"/>
      <path class="cls-1" d="M25.9,27.35l.48-3.79-3.74-6.54c-3.81,3-5.75,3.81-4.15,7.84.86,2.16,1.86,4.04,3.78,5.48.48-1.9-.24-3.43-1.74-5.08,4.08,2.01,1.48,5.42,4.4,6.35.57-1.43.79-2.76.98-4.27Z"/>
      <path class="cls-1" d="M5.97,20.06c.48.43,2.13.5,2.82.38.46-.95,1-2.72.75-3.59-.88-3.07-3.29-4.57-6.06-5.66l-.56,6.52c2-.55,3.16-.76,4.57.29l-3.95-.14,2.42,2.19Z"/>
      <path class="cls-1" d="M30.54,30.48c-2.56.32-3.16,3.2-3.42,5.23l-.66,5.12c2.88-.4,6.47-5.8,6.12-7.81-.14-.83-1.19-2.65-2.04-2.54Z"/>
      <path class="cls-1" d="M19.88,35.01c.16-2.39-.81-4.64-2.09-5.43-.55-.34-2.14-.35-2.53.24-1.41,2.09,2.21,5.06,4.62,5.18Z"/>
      <path class="cls-1" d="M46.49,20.33c.11-.92-.23-2.56-.79-3.09-1.2.34-2.68.99-3.31,1.96-.49.76-.16,2.71.41,3.66.46.77,3.54-1.37,3.68-2.54Z"/>
      <path class="cls-1" d="M17.59,3.48c-.59-1.5-1.66-2.49-2.57-3.48-1.35,1-1.52,2.79-1.1,4.26.26.94,1.32,1.78,2.76,2.64.32-.78,1.27-2.52.92-3.42Z"/>
      <path class="cls-1" d="M37.7,22.19c-1.17-.33-3.05.16-3.51,1.13-.73,1.55-.75,3.21-.14,4.77,2.17-1.91,4.43-3.25,3.65-5.9Z"/>
      <path class="cls-1" d="M15.34,26.08c-1.4-3.85-2.56-7.36-4.4-10.65l-3.94-7.07c.68,2.49,1.9,4.6,2.98,6.9,1.74,3.74,3.14,7.51,5.36,10.82Z"/>
      <path class="cls-1" d="M37.39,19.11c2.23-4.7,4-9.43,5.61-14.78-2.42,4.51-4.67,9.3-5.61,14.78Z"/>
      <path class="cls-1" d="M14.59,13.39c-.94.23-1.02,2.33-.35,2.93.52.47,1.9,1.13,2.37.75.17-1.2.22-2.33-.05-2.78-.27-.46-1.44-1.03-1.98-.9Z"/>
      <path class="cls-1" d="M20.04,6.09c-.43,1.86.25,8.19.81,10.67.45-3.51,0-6.93-.81-10.67Z"/>
      <path class="cls-1" d="M44.81,11.84c.54-.8.43-1.61-.36-2.47-1.12.81-1.81,1.82-1.93,3.32.74.15,1.89-.26,2.29-.85Z"/>
      <path class="cls-1" d="M23.08,35.58c-.78.29-1.12,1.73-.64,2.62.15.28.96.53,1.28.54.35-.65.65-1.92.54-2.52-.05-.29-.91-.73-1.19-.63Z"/>
    </g>
  </g>
</svg>