<?xml version="1.0" encoding="UTF-8"?>
<svg id="Warstwa_2" data-name="Warstwa 2" xmlns="http://www.w3.org/2000/svg" viewBox="0 0 48.1 47.19">
  <defs>
    <style>
      .cls-1 {
        fill: #fff;
      }
    </style>
  </defs>
  <g id="icon-set-v2-combat-action-pixarts-store">
    <g id="icon-set-v2-combat-action-pixarts-store_63">
      <path class="cls-1" d="M12.6,30.91c.41.71.96,1.37,1.55,1.88,7.87-7.62,15.35-15.23,23.85-22.07l-23.16,22.8c.49.68.96,1.2,1.54,1.7l11.63-11.53c7.26-7.26,15.06-13.19,19.68-22.46-3.51,1.78-6.87,3.31-9.62,5.88L12.6,30.91Z"/>
      <path class="cls-1" d="M.44,1.2c2.02,3.32,3.65,6.69,6.32,9.33l12.37,12.24c.71-.4,1.18-.78,1.75-1.39l-9.82-9.96,10.22,9.22c.76-.17,1.41-.72,1.74-1.45L9.95,7C7.23,4.47,3.81,2.98.44,1.2Z"/>
      <path class="cls-1" d="M24.14,18.44c4.25-4.4,6.83-4.9,7.87-10.52l-3.48,3.65.6-5.66-2.95,6.29L24.03,0l-1.95,12.86-2.55-3.92.4,3.18-3.19-2.83c.47,3.76,4.61,6.53,7.4,9.16Z"/>
      <polygon class="cls-1" points="22.57 34.72 24.15 44.29 25.64 34.66 27.37 38.54 27.37 33.95 28.59 33.96 24.13 29.38 19.65 33.9 20.86 33.83 20.59 38.86 22.57 34.72"/>
      <polygon class="cls-1" points="12.92 37.22 10.49 34.46 2.35 42.38 4.65 44.75 12.92 37.22"/>
      <path class="cls-1" d="M45.72,42.29l-7.99-7.79c-.94.86-1.74,1.74-2.41,2.73l8.11,7.49,2.29-2.42Z"/>
      <path class="cls-1" d="M29.84,23.79l4.37,3.87-.49-1.57,7.15.99-6.72-3.55,7.51-3.95-7.59,1.28,1.58-2.27c-2.13,1.5-3.85,3.12-5.82,5.2Z"/>
      <path class="cls-1" d="M18.35,23.61c-1.89-1.77-3.42-3.13-5.55-4.74l1.28,2-7.46-1.32,7.53,4.03-6.67,3.48,6.95-.96-1.13,1.93c1.86-1.34,3.33-2.71,5.05-4.41Z"/>
      <path class="cls-1" d="M18.06,38.44l-7.31-7.77c-.29-.31-.59-1.03-1.04-1.82-.59.54-1.16,1.14-1.66,1.83l8.52,9.17c.57-.46,1.15-1.02,1.49-1.41Z"/>
      <path class="cls-1" d="M31.72,39.58l8.47-9.11-1.54-1.52c-2.7,3.37-5.37,6.19-8.59,9.32.32.5,1.07,1.15,1.66,1.31Z"/>
      <path class="cls-1" d="M33.34,33.4l-6.76-6.5c-.55.52-1.19,1.21-1.49,1.64l6.74,6.7,1.51-1.84Z"/>
      <rect class="cls-1" x="30.29" y="23.93" width="2.38" height="9.53" transform="translate(-11.05 31.21) rotate(-45.74)"/>
      <path class="cls-1" d="M2.46,47.06c.82.46,2.01-.43,2.18-1.18l-2.69-2.83c-.28-.3-.95-.68-1.3-.57-1.25.39-.72,3.14,1.81,4.57Z"/>
      <path class="cls-1" d="M44.63,47.11c1.15.24,4.07-1.76,3.36-4.16-.08-.28-1.03-.6-1.24-.4l-3.03,3.03c-.33.33.46,1.43.91,1.53Z"/>
    </g>
  </g>
</svg>