<?xml version="1.0" encoding="UTF-8"?>
<svg id="Warstwa_2" data-name="Warstwa 2" xmlns="http://www.w3.org/2000/svg" viewBox="0 0 42.86 44.41">
  <defs>
    <style>
      .cls-1 {
        fill: #fff;
      }
    </style>
  </defs>
  <g id="icon-set-v2-combat-action-pixarts-store">
    <g id="icon-set-v2-combat-action-pixarts-store_138">
      <path class="cls-1" d="M21.27,29.21l6.26.1c-.73-4.2.66-8.38-.45-12.42-.84-3.04-5.07-4.54-7.89-5.57-2.08-.75-4.43-1.27-5.16-3.3-.87-2.41-1.68-5.01-4.26-6.28C6.98.38,3.7,1.23,1.68,3.4-.1,5.33-.63,8.31.89,10.85c2.13,3.56,4.63,4.79,8.23,6.76,2.7-.79,3.35-2.88,4.43-4.96.47,2.47-.71,5.38-3.28,6.18-1.62.51-3.26-.95-4.68-1.75-5.14,3.96-1.36,10.82-2.08,15.78-.35,2.4-1.05,4.61-.83,7.04l.42,4.52,4.11-.05.99-5.48c.26-1.41.38-2.87.54-4.36.83-7.48-.73-3.17-1.42-9.75l2.22,3.05c4.61,6.33,2.94,9.48,1.16,16.58h8.95c.16-3.73.8-7.06.69-10.6-.13-3.94-1.28-7.57-1.12-11.63l2.04,7.04Z"/>
      <path class="cls-1" d="M37.36,31.17V0s-8.3.02-8.3.02c.21,5.68-1.2,6.8,3.07,11,.76-.38,1.55-.67,1.93-.31.51.48,1.03,1.15.93,1.23-1.19-.16-2.02-.12-2.59-.26l-3.23-.82c-.36,2.3.53,3.63,1.28,5.43l1.93,4.62-3.17-3.52-.1,13.79-5.09-.22,9.29,13.46,9.53-13.53-5.5.3Z"/>
      <path class="cls-1" d="M27.07,38.65l-5.34-7.71c.3,4.81.02,8.8-.65,13.41l4.65.05,1.34-5.75Z"/>
    </g>
  </g>
</svg>