<?xml version="1.0" encoding="UTF-8"?>
<svg id="Warstwa_2" data-name="Warstwa 2" xmlns="http://www.w3.org/2000/svg" viewBox="0 0 44.44 45.9">
  <defs>
    <style>
      .cls-1 {
        fill: #fff;
      }
    </style>
  </defs>
  <g id="icon-set-v2-combat-action-pixarts-store">
    <g id="icon-set-v2-combat-action-pixarts-store_73">
      <path class="cls-1" d="M26.66,29.78c1.55.03,2.74-.07,3.8,1.54.61-6.13-1.13-5.76-2.33-10.81L30.73,0H14.18c1.19,7.36,2.17,14.28,2.61,21.71l-5.69,6.19c.35,2.47-.34,7.37,2.29,7.65l4.96.54c.41.04,1.17,0,1.32-.27,1-1.82-2.63-3.73-3.92-3.89.41-.79.45-1.8.25-2.53.29.4,1.12,1.09,1.58,1.01,2.56-.44,4.37-2.44,5.03-4.84.87,1.96-.63,3.18-1.22,4.78,1.99-.58,3.54-.61,5.26-.58ZM22.75,21.87l-1.02-.47c-.21-.1.08-.62.16-.97l.48-7.4.75,7.58c.04.37-.15,1.35-.37,1.26ZM24.85,20.89c-.1-.15-.49-.73-.49-.92l.03-4.12c.45.35.59.79.62,1.39l.16,3.04c0,.16-.25.7-.32.6Z"/>
      <path class="cls-1" d="M7.07,40.79l-5.78.72,7.99,2.01-6.93,2.38h39.7s-6.89-2.36-6.89-2.36l7.96-2.05-5.79-.7,6.8-6.52-5.81,1.82,6.11-11.52-7.55,7.13,1.43-5.21-5.23,5.56c-2.32,2.47.42,3.51-1.34,6.56-.4.69-1.99.86-2.69,1.38-5.05,3.71-3.05.57-6.76,2.86-1.61.99-3.45-.18-5.01-.17-1.63.01-3.03.25-4.39-.74-1.14-.84-1.53-2.14-1.36-3.87.09-.96-.42-1.59-.96-2.41-1.36-2.06.69-4.09-4.4-8.7l1.24,4.64L.02,24.76l5.95,11.17-5.97-1.86,7.07,6.71ZM37,34.36c-.43,1.15-1.36,2.35-2.95,2.87-.51-2.4,1.89-1.48,2.95-2.87ZM34.34,38.12l2.46.26-1.82,1.81-3.39,1.1,2.75-3.17Z"/>
      <path class="cls-1" d="M27.19,39.44l-1.63-7.19c-.11-.49-.94-1.16-1.42-1.26-.47-.11-1.84.4-1.81.89.19,2.66.58,5.63.98,8.31,1.16.67,2.89.3,3.87-.75Z"/>
      <path class="cls-1" d="M17.98,37.25l.18,3.9c1.39.78,3.15.77,4.1-.15l-.78-7.76c-.04-.44-.34-1.23-.68-1.35-.34-.12-1.28.01-1.63.14,1.33,1.72,2.13,3.24,1.22,5l-2.42.22Z"/>
      <path class="cls-1" d="M30.84,36.61c-.29-1.86-1.08-5.52-2.78-5.79-.44-.07-1.65.45-1.56.9.39,2.01.89,4.4,1.57,6.28.56.77,2.94-.33,2.77-1.4Z"/>
      <path class="cls-1" d="M8.81,25.78c1.43-1.95,1.83-4.04,1.59-6.37l-1.13-10.62-.46,16.99Z"/>
      <path class="cls-1" d="M35.62,25.74l-.48-16.6-1.12,10.48c-.24,2.27.1,4.45,1.6,6.12Z"/>
      <path class="cls-1" d="M13.3,39.97c.61,1.48,2.39,1.48,3.6,1l.08-3.97-3.82-.35c-.07,1.25-.2,2.51.14,3.32Z"/>
      <path class="cls-1" d="M12.56,7.06c-.05-1.16-.3-2.47-.54-3.59l-.1,18.13c1.24-1.3,1.14-2.93,1.06-4.83l-.42-9.72Z"/>
      <path class="cls-1" d="M32.44,21.52l-.29-16.91c-.73,4.36-.31,8.38-.7,12.68-.14,1.55-.13,3.25.99,4.23Z"/>
    </g>
  </g>
</svg>