<?xml version="1.0" encoding="UTF-8"?>
<svg id="Warstwa_2" data-name="Warstwa 2" xmlns="http://www.w3.org/2000/svg" viewBox="0 0 51.38 43.66">
  <defs>
    <style>
      .cls-1 {
        fill: #fff;
      }
    </style>
  </defs>
  <g id="icon-set-v2-combat-action-pixarts-store">
    <g id="icon-set-v2-combat-action-pixarts-store_99">
      <path class="cls-1" d="M11.48,33.96c-.35.51-1.22,1.26-2.11,1.7l-6.36-5.14c1.92,3.39,4.53,4.53,7.14,7.34l-1.91-.71c-.33-.12-1.13.36-1.44.6l-2.71,2.13c.41,1.74,1.5,3.18,3.14,3.78l3.28-2.53c1.88-1.45,3.58-2.82,5.46-4.45,6.95,3.32,14.39,4.92,22.22,4.83-6.72,2.41-8.79,1.01-15.33.77,6.68,1.62,13.02,2.46,19.02-1.75,1.39-.97,2.94-2.05,3.19-3.35.38-2.03-.01-3.68-.97-5.19.36,2.55-.3,4.62-2.65,5.74-7.05,3.37-17.32,1.09-24.4-1.76l-.07-.67c-.12-1.2,7.89,2.25,9.43,1.79-8.01-3.34-16.57-6.34-22.04-13.8-.79-1.08-1.19-2.85-.76-4.08,1.53-4.4,10.74-3.72,14.96-3.68-3.67-1.34-16.11-2.32-18.24,3.27-2.13,5.58,6.71,12.63,11.15,15.15Z"/>
      <path class="cls-1" d="M36.25,27.17c6.46-1.1,10.98-5.77,11.76-11.99-6.41-.95-11.95-5.21-14.1-11.49-3.82.83-6.56,4.03-7.52,7.81,3.22.11,4.93,2.03,6.86,3.9,3.26,3.16,4.78,7.08,3,11.76Z"/>
      <path class="cls-1" d="M33.7,17.92c-.83-.98-1.63-1.84-2.56-2.72-5.14,5.68-9.88,10.71-15.78,15.72,1.32.82,2.63,1.48,4.12,2.01l14.22-15.01Z"/>
      <path class="cls-1" d="M51.23,14.92c-.59-.01-1.61.04-2.35.12-.72,6.92-5.95,12.18-12.92,12.89l-1.64,3c4.88-.27,8.7-2.13,12.01-5.01-.16-.67-.26-1.1-.22-.96.6,2.3,6.25-6.67,5.13-10.04Z"/>
      <path class="cls-1" d="M22.89,12.04l2.59-.56c1.08-3.54,3.21-6.53,6.57-8.18.48-.23,1.68-.36,1.75-.81l.36-2.49c-5.71,1.3-10.11,6.06-11.27,12.04Z"/>
      <path class="cls-1" d="M6.16,19.83c-.32.6-.15,1.84.12,2.38.26-2.02,2.2-3.56,4.48-3.67l5.95-.3c-2.69-.86-8.94-1.47-10.56,1.59Z"/>
      <path class="cls-1" d="M38.72,7.28c-.36.09-.82,1.17-.56,1.44l1.14,1.17c.27.28.98.62,1.34.74.28.09.81-1.1.68-1.43-.37-.93-1.72-2.13-2.59-1.91Z"/>
    </g>
  </g>
</svg>