<?xml version="1.0" encoding="UTF-8"?>
<svg id="Warstwa_2" data-name="Warstwa 2" xmlns="http://www.w3.org/2000/svg" viewBox="0 0 45.58 44.76">
  <defs>
    <style>
      .cls-1 {
        fill: #fff;
      }
    </style>
  </defs>
  <g id="icon-set-v2-combat-action-pixarts-store">
    <g id="icon-set-v2-combat-action-pixarts-store_120">
      <path class="cls-1" d="M12.11,31.68l-.44,6.08-3.89,1.45c-1.03.38-1.95,2.55-2.38,3.71l2.79-2.85c.74-.76,2.89-.79,4.11-1.11l.89-7.24c.09-.77,1.09-1.67,1.71-2.02l2.87-1.6c-1.91-1.9-2.59-3.21-3.26-5.28-.58-.41-2.21-1.09-2.93-.92l-3.48,2.47-3.56-1.96c1.21-.04,2.22.44,3.35.93l3.71-2.81,2.61.75,1.32-4.2c-.07-.67-1.29-2.46-2.17-2.67l-4.35-1.07c-3.45,2.27-6.46,4.85-9.01,8.27,3.29,4.37,7.19,7.69,12.11,10.06Z"/>
      <path class="cls-1" d="M45.58,8.6l-4.24,1.19-1.6,2.76-3.44.61-.99,4.99-4.48,1.08-.13,4.64c.19.52,1.91,1.89,2.62,1.56l3.2-1.48c.98,1.2,2.74,3.17,4.46,2.17,1.62-.93,2.88-2.83,4.2-4.43-2.25-3.16-4.72-5.35-7.69-7.58l2.9-.54c2.26-5.23,2.48-2.27,5.19-4.97Z"/>
      <path class="cls-1" d="M31.22,32.63c3.16-1.61,6.17-3.1,8.93-5.43-1.72-.17-2.79-.79-4-1.99l-3.25,1.96-2.83-1.9-2.45,2.93,2.4,2.69-.05,4.31,4.5,2.01-.57,3.91,2.84,2.59-1.68-2.8.72-4.37c-1.2-.65-2.4-1.21-3.66-1.74-.69-.29-1.76-1.73-.88-2.18Z"/>
      <path class="cls-1" d="M18.77,19.19c-1.02,1.87-.54,4.04.75,5.33,1.6,1.6,3.97,1.75,5.79.42,1.39-1.02,2.35-3.5,1.26-5.05-1.09.84-2.35,1.26-3.1.2-.58-.84-.34-1.83.51-2.91-2.08-.85-4.31.35-5.22,2.02Z"/>
      <path class="cls-1" d="M14.09,0l.12,2.28,3.29,2.56-.72,3.7,2.73,3.02.86,1.8c2.1-.3,3.68-.22,5.9.61,1.47-2.08-.15-1.65,2.2-4.24-3.21-.59-6.29-.71-9.65-.66-.8-.15-.89-2.28-.67-3.09.96-3.44-2.75-1.51-4.07-5.96Z"/>
      <path class="cls-1" d="M35.76,13.04l-4.18-1.95c-.51-.24-1.72-.29-2.14-.02-.42.27-.81,1.17-.98,1.78l-.65,2.35,2.61,2.69,4-.53,1.35-4.32Z"/>
      <path class="cls-1" d="M21.83,31.04c-.51-.98-.94-1.56-2.02-2.03-1.01-.44-4.88,2.29-5.3,3.61l6.01,1.6c.41,2.37,2.18,4.17,2.28,5.12.12,1.05-3.49,2.26-2.76,5.42.42-.89.85-1.97,1.36-2.5l2.84-2.97c-4.57-7.42-.45-4.45-2.41-8.25Z"/>
      <path class="cls-1" d="M10.7,10.96c-.55-1.06-.93-2.22-1.35-3.61l-2.67-.55-3.68-.81c2.34,2.74,5.46.07,5.97,3.75.62,4.52,4.14.64,7.77,5.4.56.24,2.32-1.1,2.01-1.75-.7-1.49-1.66-2.46-2.59-3.3-1.84.65-3.52,1.07-5.47.87Z"/>
      <path class="cls-1" d="M25.67,29.1l-2.99.73c.45,1.63.6,2.44.46,4.3l5.53-.76c-.03-2.15-1.22-3.86-3-4.28Z"/>
      <path class="cls-1" d="M28.71,10.28c2.08-.52,3.54-1.84,4.97-3.1-.3-1.03-.94-2.92-.49-3.68l1.66-2.84-2.95,2.67.31,3.63c-1.28,1.09-2.6,1.79-3.5,3.33Z"/>
    </g>
  </g>
</svg>