<?xml version="1.0" encoding="UTF-8"?>
<svg id="Warstwa_2" data-name="Warstwa 2" xmlns="http://www.w3.org/2000/svg" viewBox="0 0 49.31 50.07">
  <defs>
    <style>
      .cls-1 {
        fill: #fff;
      }
    </style>
  </defs>
  <g id="icon-set-v2-combat-action-pixarts-store">
    <g id="icon-set-v2-combat-action-pixarts-store_161">
      <path class="cls-1" d="M43.71,32.83c-4.12-1.1-8.26,1.52-9.25,5.85-.21.9-.68,2.01-1.08,2.64-1.51-.56-2.93-.89-4.08-.22-.8.47-1.33,1.7-1.9,3.01l-4.42,1.07c-.45.11-.76,1.44-.39,1.64,1.78.97,4.05-.91,5.62-.2,1.77.8,2.62,1.29,4.3.78,1.05-.32,1.45-1.92,2.21-2.92,1.13-1.49,2.07-2.72,2.4-4.7.32-1.97,1.66-3.54,3.3-3.95,1.79-.45,3.63.18,4.81,1.65,1.44,1.79,1.57,4.08.61,6.29-.7,1.63-2.41,2.82-4.4,3.3,3.21.59,6.38-1.42,7.42-4.4,1.53-4.37-.96-8.74-5.15-9.85ZM30.68,45.7l.51-1.43c.12-.35-.66-.6-1.48-.95.07-.4.99-1.02,1.49-.88.71.2,1.52,1.1,1.52,1.69,0,.93-.76,1.9-2.04,1.57Z"/>
      <path class="cls-1" d="M27.3,23.48c-1.85-.88-9.08-2.71-6.71-5.72.37-.46,1.76-.74,2.32-.48l6.17,2.8c.97-2.66-5.13-4.61-6.48-4.89-2.08-.42-3.76,1.2-4.14,2.89-.38,1.66.18,3.73,1.93,4.5l4.22,1.86c.89.39,2.63-.16,2.68-.96Z"/>
      <path class="cls-1" d="M46.95,15.57c-.41-2.75-2.14-8.22-5.78-6.88,2.71,2.43,5.24,7.64,2.63,10.83,2.21.11,3.46-1.84,3.15-3.95Z"/>
      <path class="cls-1" d="M35.41,4.71c-.33-.27-1.54.08-1.5.45.03.3.18,1.18.46,1.44l7.05,6.42c4.2-.51-5.1-7.57-6.01-8.31Z"/>
      <path class="cls-1" d="M17.16,4.62c-.27-.13-1.25-.17-1.55.06l-6.79,5.27c-.33.25-.42,1.33-.24,1.65.19.31,1.19.36,1.6.03l6.93-5.48c.34-.27.39-1.37.05-1.53Z"/>
      <path class="cls-1" d="M7.77,38.19c.3-.18.67-1.06.52-1.42l-3.25-8.09c-.2-.5-4.55-3.5,1.18,8.86.21.45,1.18.87,1.54.65Z"/>
      <path class="cls-1" d="M21.1,2.76c-.45.02-.92.84-.9,1.16.02.25.46.83.78.84l8.87.23c.24,0,6.34-2.88-8.75-2.22Z"/>
      <path class="cls-1" d="M6.46,14.15c-.28.11-.95.56-1.05.88-4.53,13.93-.27,9.05-.31,9.17l2.42-8.76c.1-.36-.71-1.41-1.07-1.28Z"/>
      <path class="cls-1" d="M35.1,23.83c-.16-.24-.59-.83-.92-.95l-8.09-3.06c-.34-.13-1.29.26-1.36.61-.07.35.27,1.28.67,1.43l8.36,3.12c.46.17,1.55-.85,1.35-1.16Z"/>
      <path class="cls-1" d="M18.86,44.52l-7.74-4.13c-.36-.19-1.56.24-1.56.63,0,.31.32,1.07.65,1.27,12.73,7.7,8.58,2.19,8.65,2.23Z"/>
      <path class="cls-1" d="M43.49,15.72c-.38-.03-1.18.3-1.39.62l-4.55,6.65c-.87,1.27,1.22,4.27,6.49-5.76.19-.37-.17-1.48-.54-1.51Z"/>
      <path class="cls-1" d="M39.29,27.16c1.74-.54,2.92-2.33,2.13-4.07-2.55,3.49-7.07,2.96-10.56,1.9.33,3.87,6.35,2.82,8.44,2.17Z"/>
      <path class="cls-1" d="M15.22,1.54c-1.39.52-2.32,2.11-1.97,3.71,3.43-2.35,5.83-3.24,10.42-3.45-1.52-3.27-5.66-1.3-8.45-.26Z"/>
      <path class="cls-1" d="M7.29,43.54c1.14,1.39,3.14,1.56,4.65.66-3.64-1.73-5.56-4.5-7.39-8.29-1.05.86-1.13,2.91-.14,4.12l2.88,3.51Z"/>
      <path class="cls-1" d="M27.8,1.8c4.37.34,7.14,1.37,10.25,3.86.59-2.17-.8-3.06-2.05-3.99L31.58.21c-1.46-.48-3.35.39-3.78,1.59Z"/>
      <path class="cls-1" d="M3.84,16.72c1.51-3.66,3.22-6.61,6.17-8.9-1.24-.58-2.9-.3-3.83.81-1.75,2.09-4.95,5.9-2.34,8.09Z"/>
      <path class="cls-1" d="M.26,29.15c.22,1.4,1.44,2.66,2.66,2.53-1.04-3.73-1.21-7.1.07-10.75-3.66-.1-3.07,6.09-2.73,8.21Z"/>
      <path class="cls-1" d="M23.04,50.07c1.42.09,2.96-1.13,3.06-2.36-4.15.55-7.28.26-10.55-1.46-.55,3.53,4.96,3.67,7.49,3.82Z"/>
      <path class="cls-1" d="M6.58,21.85c-.93,2.99-.78,6.04.2,9,1.89-.39,1.79-8.75-.2-9Z"/>
      <path class="cls-1" d="M25.5,43.61c-.1-1.87-8.23-2.62-8.66-1.21,2.43,1.7,5.8,2.15,8.66,1.21Z"/>
      <path class="cls-1" d="M35.69,8.52c-2.67-1.7-5.39-2.93-8.23-2.74-.2,1.81,8.54,5.22,8.23,2.74Z"/>
      <path class="cls-1" d="M23.94,5.67c-2.97-.27-5.97,1.08-8.51,2.74.9,1.8,8.57-.79,8.51-2.74Z"/>
      <path class="cls-1" d="M13.66,40.92c1.21-1.52-4.04-7.97-5.7-6.55,1.51,2.66,3.07,5.22,5.7,6.55Z"/>
      <path class="cls-1" d="M12.4,10.81c-2.12,2.12-4.29,4.49-4.63,7.34,1.84.57,6.58-6.51,4.63-7.34Z"/>
      <path class="cls-1" d="M40.7,14.84c-.59-1.6-.9-3.26-2.83-3.35.22,2.31.92,4.32,1.81,6.45,1.26-.46,1.52-1.74,1.02-3.1Z"/>
      <path class="cls-1" d="M38.52,19.69c-2.23.04-4.52.02-6.47,1.2,1.06,1.41,6.39,1.75,6.47-1.2Z"/>
    </g>
  </g>
</svg>