<?xml version="1.0" encoding="UTF-8"?>
<svg id="Warstwa_2" data-name="Warstwa 2" xmlns="http://www.w3.org/2000/svg" viewBox="0 0 49.03 49.73">
  <defs>
    <style>
      .cls-1 {
        fill: #fff;
      }
    </style>
  </defs>
  <g id="icon-set-v2-combat-action-pixarts-store">
    <g id="icon-set-v2-combat-action-pixarts-store_162">
      <path class="cls-1" d="M42.37,9.61c-.5-2.22-1.77-4.28-3.46-5.21-2.2-1.21-4.39-.82-6.56-.06C30.44,1.37,27.5,0,24.22,0c-3.11,0-5.64,1.78-7.65,4.33-2.18-.83-4.54-1.15-6.7.09-1.68.96-2.77,2.99-3.34,5.15C2.54,9.72-.49,13.07.07,16.83c.58,3.89,4.27,6.39,8.26,5.17,2.3,3.02,5.93,3.87,9.06,1.71l-1.19-3.4c-2.42-.21-4.75-.52-5.56-2.63,3.33,1.58,6.41,1.3,8.41-1.49,3.38,2.69,7.55,2.66,10.91-.06,2.28,3.07,5.46,2.98,8.49,1.6-1.33,2.11-3.36,2.47-5.86,2.57l-1.01,3.54c3.4,1.98,6.91,1.21,9.17-1.87,4.12,1.23,7.93-1.31,8.27-5.44.3-3.67-2.75-6.87-6.63-6.91Z"/>
      <path class="cls-1" d="M38.37,45.94c-1.05-.69-1.81-2.33-2.98-2.56-1.24-.25-2.78-.03-3.93.5-.39.18-.51,1.43-.36,1.66l-4.48-1.25c1.04-.42,2.34-.64,3.58-.75l-1.59-6.49c-.07-.3-.74-.62-1.01-.59-.2.03-.58.54-.57.78l.18,4.42-1.53-4.77c-.29-.49-1.94-.51-2.19-.05l-1.19,5.2c-.71-1.71.5-5.75-1.1-5.64-.41.03-.96.56-1.03.95-.58,3.17-1.23,5.78-2.73,8.49l-.13-2.41c-1.03-.61-2.86-.72-4.05-.16-.88.42-1.65,1.84-2.57,2.61-.62.52-2.59.08-3.31.84-.69.73-1.19,1.77-1.19,3l36.65-.02c-.08-1.35-.54-2.28-1.12-2.9-.85-.9-2.65-.41-3.35-.87Z"/>
      <path class="cls-1" d="M23.38,31.45l2.27.1c.34-2.57.58-4.25,1.15-6.39l.11,6.1,1.02.41c.23.09.48-.59.52-.91.54-3.78,1.33-7.33,2.36-10.94-1.26-2.7-4.04,2.52-10.8-.74-.5-.24-1.72.08-2,.61,1.26,3.62,2.13,7.8,2.52,11.52.26.38,1.6.4,1.52.08l.24-6.19,1.08,6.35Z"/>
      <path class="cls-1" d="M9.92,31.66c.11.37.74,1.04,1.15,1.2l3.85,1.54c1.68.67,3.78.56,5.74.58l4.22.05c1.69.02,3.63.16,5.21-.09l4.69-.76c.64-.1,4.54-1.29,4.27-2.76-.41-2.2-9.26-3.79-8.65-2.69.67,1.21,3.18.53,6.06,1.9-1.09,2.08-3.02,1.04-4.45,1.45-2.21.63-4.16,1.01-6.5.96-4.38-.09-8.64.03-12.9-2.04,1.67-2.05,7.34-1.02,5.68-2.79-1.55,0-8.98,1.41-8.38,3.44Z"/>
    </g>
  </g>
</svg>