<?xml version="1.0" encoding="UTF-8"?>
<svg id="Warstwa_2" data-name="Warstwa 2" xmlns="http://www.w3.org/2000/svg" viewBox="0 0 52.83 46.17">
  <defs>
    <style>
      .cls-1 {
        fill: #fff;
      }
    </style>
  </defs>
  <g id="icon-set-v2-combat-action-pixarts-store">
    <g id="icon-set-v2-combat-action-pixarts-store_50">
      <path class="cls-1" d="M2.11,37.36l10.18-3.96L.06,43.23l15.11-6.76-8.08,7.41,5.62-1.85-2.42,4.14,12.28-9.77c2.08.21,4.63.11,6.7-1.17l3.4-2.11c-1.49.05-2.46.29-3.38-.36-.73-.52-.89-1.9-1.36-2.68-.67-1.14-1.51-2.09-1.94-3.4-.12-.38-.96-1.07-1.07-.87-.63,2.13-1.26,4.27-3.83,4.47,2.21-1.66,2.79-4.28,2.33-7.07-.25-1.54-.94-2.36-2.43-2.92l1.76-.25c.33-.05.45-.88.66-1.31.91,1.62,2.27,2.78,3.89,3.32.66.22,2.56-.83,2.15-1.44l-3.28-4.87c-1.68-2.5-6.1.65-8.61,1.65-1.18,3.18-1.65,6.49-1.94,9.65-1.06-.25-1.79.41-2.72.86L0,34.3l6.24-.85-4.13,3.91Z"/>
      <path class="cls-1" d="M19.55,9.66l5.01,2.13,1.91-5.99,3.9,6.13,5.4-5.66.1,7.35,9.91-3.14-6.26,9.8,6.78,2.93-6.6,2.8,4.32,5.91-5.69.04.26,4.53-2.88-.94,4.21,3.19-.1-5.31,8.89,1.14-5.31-7.65,9.41-3.78-8.16-3.5,4.49-2.08-5.04.15,7.96-11.87-11.64,3.72.88-2.57-3.02,3-.15-10.01-7.34,8.09L25.71.5l-2.32,9.14-5.83-2.13c.73,2.21,1.24,3.68,2.05,5.7l-.05-3.55Z"/>
      <path class="cls-1" d="M29.01,28.46c2.29-.77,4.37-1.47,6.21-2.54,1.04-.61.11-3.1-.97-3.35-1.92,1.15-7.35,2.81-6.52,4.85.15.36.86,1.18,1.28,1.04Z"/>
      <path class="cls-1" d="M29.01,23.03c-.94.29-2.18.11-3.43-.02-.47.55.83,2.28,1.75,1.81,2.31-1.15,4.5-2.26,6.59-3.68.98-.67-.1-3.39-1.32-3.35-.99.03-2.04.76-2.61,1.35.23.43.66,1.14.68,1.48.05.85-.91,2.19-1.67,2.42Z"/>
      <path class="cls-1" d="M30.78,32.01l3.55-.65c.7-.13,1.45-.96,1.62-1.57.16-.57-.3-2.19-.95-2.09-1.93.31-3.59,1.02-5.18,1.98-.8.48.08,2.5.96,2.34Z"/>
      <path class="cls-1" d="M31.37,16.38c.35-1.05-.74-2.12-1.55-2.42-.73-.27-2.15.34-2.75,1.06l2.17,3.09c.96-.56,1.92-1.07,2.13-1.73Z"/>
      <path class="cls-1" d="M24.44,44.15c3.26-1.67,6.25-3.49,9.45-5.39l.35-1.14c.7-2.29-9.82,6.23-9.8,6.53Z"/>
      <path class="cls-1" d="M26.99,39.11l-1.06-.27c-2.8,2.12-5.35,4.03-7.97,6.37,3.21-1.48,5.9-3.23,8.84-5.07.12-.26.42-.98.18-1.03Z"/>
      <path class="cls-1" d="M13.43,22.05c-.02-.24-1.04-.38-1.28-.21l-8.26,6.04c1.93-.86,9.67-4.45,9.54-5.83Z"/>
      <path class="cls-1" d="M14.84,16.59c-1.6.33-6.98,4.61-8.15,5.88,2.74-1.2,5.66-3,8.04-4.55.23-.15.36-1.38.1-1.33Z"/>
    </g>
  </g>
</svg>