<?xml version="1.0" encoding="UTF-8"?>
<svg id="Warstwa_2" data-name="Warstwa 2" xmlns="http://www.w3.org/2000/svg" viewBox="0 0 39.92 52.87">
  <defs>
    <style>
      .cls-1 {
        fill: #fff;
      }
    </style>
  </defs>
  <g id="icon-set-v2-combat-action-pixarts-store">
    <g id="icon-set-v2-combat-action-pixarts-store_40">
      <path class="cls-1" d="M39.91,32.6c-1.43,1.37-2.53,2.44-4.07,3.37,4.7-9.5-.04-10.2-1.62-17.61-2.89,2.45.7,7.74-1.77,8.38-.75.2-1.99-.48-2.33-1.25-2.21-4.97,4.81-8.26-1.56-14.31l-3.9-3.71,1.4,5.52c.14.57-.34,1.97-.87,2.2s-1.89.04-2.37-.34c-4.62-3.72-4.77-9.75-1.55-14.84-2.9,1.29-5.3,3.49-7.04,6.1-3.57,5.39.47,8.83-.4,14.23-.36,2.23-1.81,4.27-3.94,4.54.65-2.71,1.39-5.4-.26-7.7-1.13,1.98-2.2,4.11-3.78,5.68-4.49,4.43-4.7,10.79-.46,15.78-2.77.07-3.68-1.94-5.41-4.06.18,9.24,7.71,16.59,16.85,18.04,12.39,1.96,23.32-7.38,23.06-20.01ZM19.63,50.4c-5.42-.14-9.8-3.6-10.38-9.13,1.35.89,2.47,1.56,3.87,1.79-3.47-6.26-3.12-8.2.87-14.01.04,2.07-.47,3.73,1.03,5.39,1.85-6.39,5.46-6.03,4.41-12.78,5.69,5.13,3.37,7.2,2.52,11.78-.16.84.77,2.27,1.46,2.49,1,.33,2.26-.67,2.41-1.8l.39-2.94c3.08,2.79,3.1,6.54,1.73,10.25,1.57-.46,2.61-1.64,3.45-3.08.48,6.94-4.73,12.21-11.76,12.03Z"/>
      <path class="cls-1" d="M6.98,12.92c-2,1.14-1.72,4.41-.36,6.01,1.98-1.41,1.48-4,.36-6.01Z"/>
    </g>
  </g>
</svg>