<?xml version="1.0" encoding="UTF-8"?>
<svg id="Warstwa_2" data-name="Warstwa 2" xmlns="http://www.w3.org/2000/svg" viewBox="0 0 47.39 46.44">
  <defs>
    <style>
      .cls-1 {
        fill: #fff;
      }
    </style>
  </defs>
  <g id="icon-set-v2-combat-action-pixarts-store">
    <g id="icon-set-v2-combat-action-pixarts-store_56">
      <polygon class="cls-1" points="9.38 17.37 14.87 21.44 7.58 23.18 15.58 24.5 10.29 29.14 19.73 26.74 18.31 36.58 22.62 30.55 24.95 38.67 26.02 30.77 28.66 33.78 27.17 26.16 37.11 27.82 32.04 24.06 40.17 22.12 31.58 20.58 35.24 17.47 28.36 18.72 31.5 7.93 24.67 16.12 21.53 6.55 20.54 14.48 16.12 9.76 18.98 19.01 9.38 17.37"/>
      <path class="cls-1" d="M10.72,16.38l5.35.92c-3.29-3.69-6.71-6.93-9.66-10.69,3.79,3.16,6.96,6.46,10.58,9.84l-1.7-5.42c-.22-.69-.56-1.31-1.04-1.87L7.99,2.73.03,0c.75,2.79,1.54,5.38,2.43,8.08l8.26,8.31Z"/>
      <path class="cls-1" d="M41.02,6.61l-9.34,10.31,5.42-.93,7.81-7.91L47.39.02l-8,2.73-7.33,7.54-1.82,6.29c3.62-3.33,6.96-6.82,10.78-9.97Z"/>
      <path class="cls-1" d="M4.03,46.44c.62-.35,1.07-.85,1.18-1.39l-.36-1.08,5.97-5.67-2.65-2.64-5.53,5.89-1.26-.24c-.51-.1-1.29.66-1.38,1.2.81,1.72,2.23,3.1,4.03,3.94Z"/>
      <path class="cls-1" d="M15.04,40.44c.97-.59,1.65-1.11,2.12-1.84-3.72-2.48-6.87-5.46-9.28-9.24-.7.6-1.36,1.31-1.71,2.23,2.49,3.5,5.4,6.32,8.87,8.85Z"/>
      <path class="cls-1" d="M15.26,35.94c3.21-2.92,2.22-2.24,2.93-6.83l-4.92,5.09,1.99,1.74Z"/>
      <polygon class="cls-1" points="10.55 31.39 12.35 33.26 17.01 28.65 11.94 29.91 10.55 31.39"/>
      <path class="cls-1" d="M28.03.83c-1.66,3.25-2.46,6.73-2.27,10.44,1.74-3.27,2.38-6.72,2.27-10.44Z"/>
      <path class="cls-1" d="M39.3,17.81l-2.95,1.44c2.99.3,5.7-.6,8.08-2.08-1.89-.06-3.46.24-5.13.64Z"/>
      <path class="cls-1" d="M9.67,20.21c-2.2-1.34-4.49-1.89-7.06-1.6,2.14,1.34,4.6,1.99,7.06,1.6Z"/>
      <path class="cls-1" d="M46,41.28c-.5.1-.94.21-1.32.18l-5.49-5.83-2.67,2.68,6.04,5.72c-.29.55-.5,1.11-.19,1.59.21.33.79.91,1.23.69,1.68-.86,3.02-2.2,3.79-3.94-.22-.52-.93-1.18-1.4-1.09Z"/>
      <path class="cls-1" d="M39.49,29.34c-2.46,3.79-5.58,6.82-9.31,9.29.66.8,1.32,1.35,2.22,1.83,2.18-1.75,4.27-3.34,6.06-5.49l2.39-2.87c.84-1.01-.68-2.03-1.36-2.76Z"/>
      <polygon class="cls-1" points="29.42 27.68 35.03 33.25 36.82 31.3 34.04 28.45 29.42 27.68"/>
      <path class="cls-1" d="M29.89,33.66l2.29,2.26,1.88-1.8-5.11-5.22c.23,1.75.52,3.17.94,4.76Z"/>
      <path class="cls-1" d="M29.01,41.86c.1-2.36-.44-4.74-1.88-6.69-.16,2.42.57,4.61,1.88,6.69Z"/>
    </g>
  </g>
</svg>