<?xml version="1.0" encoding="UTF-8"?>
<svg id="Warstwa_2" data-name="Warstwa 2" xmlns="http://www.w3.org/2000/svg" viewBox="0 0 41.62 41.19">
  <defs>
    <style>
      .cls-1 {
        fill: #fff;
      }
    </style>
  </defs>
  <g id="icon-set-v2-combat-action-pixarts-store">
    <g id="icon-set-v2-combat-action-pixarts-store_111">
      <path class="cls-1" d="M16.13,34.46c-1.45-.68-2.58-1.26-3.6-2.05,4.62.47,9.07-.6,12.05-4.27-1.89.73-3.31,1.32-5.19,1.45l2.15-3.93c2.4-.53,3.8-2.47,4.16-4.74,6.8.36,10.93,6.23,10.6,13.31,3.54-5.4,2.95-12.3-1.02-17.1l.06,3.6c-2.43-4.34-6.2-7.24-10.9-7.52,1.93.9,3.54,1.93,4.61,3.58-1.56.08-2.8.2-4.41.6-1.36-1.68-3.65-2.35-6.02-1.7-2.63-6.19,1.2-12.9,7.68-14.98-6.51-1.29-12.58,2.39-14.93,8.16l2.79-1.52c-2.8,4.33-3.9,8.95-1.87,13.37.04-2.36.15-4.18,1.08-5.87l2.37,3.58c-.72,2.37-.23,4.66,1.94,6.34-4.81,5.14-12.1,5-17.69.69,1.7,6.28,10.34,9.87,16.13,9ZM20.54,18.04c1.39,0,2.51,1.12,2.51,2.51s-1.12,2.51-2.51,2.51-2.51-1.12-2.51-2.51,1.12-2.51,2.51-2.51Z"/>
      <path class="cls-1" d="M2.62,31.69c5.35,8.7,16.5,11.91,25.26,7.57-7.72,2.6-15.8.91-21.65-4.64-1.12-1.06-2.48-2.11-3.61-2.93Z"/>
      <path class="cls-1" d="M13.66,35.8c-1.31-.36-2.89-.39-4.31-.46,6.79,4.36,16.15,3.3,21.69-2.93-.72-.19-1.37.89-1.96,1.3-4.62,3.26-9.98,3.58-15.42,2.08Z"/>
      <path class="cls-1" d="M26.45,6.02c5.17,1.79,9.28,5.39,10.54,10.86l2.16,4.57c.22-7.36-5.06-14.4-12.7-15.42Z"/>
      <path class="cls-1" d="M13.45,3.47C5.88,6,1.48,14.12,3.56,21.48c-.42-5.71,1.27-11.05,5.92-14.39,1.48-1.06,2.91-2.21,3.97-3.63Z"/>
      <path class="cls-1" d="M40.28,24.15c-.29,1.59-.62,3.04-.58,4.96,3.39-7.02,2.33-16.22-3.48-21.8,3.41,5.09,5.23,10.77,4.06,16.84Z"/>
      <path class="cls-1" d="M19.17,0C11.43-.1,3.88,4.92,1.25,12.38,6.51,4.25,9.89,2.87,19.17,0Z"/>
      <path class="cls-1" d="M8.59,26.39c-2.61-5.04-2.36-10.13.16-15.12-3.66,2.73-3.94,13.13-.16,15.12Z"/>
      <path class="cls-1" d="M20.55,8.22c.84.68,1.97.34,2.93.45,3.37.38,5.97,2.23,8.66,3.97-2.74-3.58-7.26-5.2-11.59-4.43Z"/>
      <path class="cls-1" d="M22.32,33.75c4.56-.33,8.42-3.67,9.39-7.77-2.51,3.82-5.42,6.56-9.39,7.77Z"/>
    </g>
  </g>
</svg>