<?xml version="1.0" encoding="UTF-8"?>
<svg id="Warstwa_2" data-name="Warstwa 2" xmlns="http://www.w3.org/2000/svg" viewBox="0 0 51.45 52.52">
  <defs>
    <style>
      .cls-1 {
        fill: #fff;
      }
    </style>
  </defs>
  <g id="icon-set-v2-combat-action-pixarts-store">
    <g id="icon-set-v2-combat-action-pixarts-store_159">
      <path class="cls-1" d="M38.79,4.92l-17.76,15.19,3.2-7.7-14.06,10.27c-2.55,1.86-5.14,3.52-7.12,6.16-3.74,4.99-4.01,11.1-.97,16.28,2.45,4.18,6.53,6.78,10.99,7.29,4.86.56,9.5-1.28,12.74-4.94,1.8-2.04,3.1-4.32,4.62-6.58l11.7-17.46-9.82,5.57L51.45,0l-19.76,16.66,7.1-11.74ZM26.02,40.1l-2.87,5.24c-1,1.81-4.45,3.77-6.46,3.6l-5.44-.45c-1.74-.14-4.72-1.59-5.52-3.29-1.1-2.31-1.76-4.47-2.47-6.98-.35-1.23,2.23-7.37,2.98-8.31,1.39-1.73,3.95-1.76,5.71-2.78,2.17-1.26,4.17-2.57,6.75-1.62l-1.81,1.55c.91.34,2.44,1.2,3.2,1.06l3.27-.64,2.14,4.45c-.52,1.91-1.28,3.84-.66,5.95l2.68-2.49c-.29,1.64-.71,3.27-1.49,4.69Z"/>
      <path class="cls-1" d="M41.53,18.83c-.21.33-.29,1.58.04,1.62,2.36.26,4.98-4.64,5.77-6.39-2.42,1.07-4.59,2.83-5.82,4.77Z"/>
      <path class="cls-1" d="M31.45,6.27l-.66.37c-1.63.9-3.3,2.09-3.6,4,2.86.73,5.28-4.93,4.26-4.36Z"/>
      <path class="cls-1" d="M8.13,40.34c-1.03.62-1.13,1.72-.67,3.07.32.94,1.37,1.98,2.17,2.1,1.13.17,2.26-.64,2.48-1.61.21-.92-.29-1.96-.9-2.72-.98-1.22-1.86-1.59-3.09-.84Z"/>
      <path class="cls-1" d="M8.85,30.99c-.5.44-.73,2.03-.3,2.54,1.83.64,3.79-1.34,3.7-3.29-1.66.04-2.81.23-3.4.75Z"/>
      <path class="cls-1" d="M18.69,34.98c-.81,0-1.47.66-1.47,1.47s.66,1.47,1.47,1.47,1.47-.66,1.47-1.47-.66-1.47-1.47-1.47Z"/>
      <path class="cls-1" d="M18.91,43.71c-.84-.17-2.43,1.02-1.99,1.86.38.72,1.76.49,2.07.07.34-.46.43-1.82-.08-1.93Z"/>
    </g>
  </g>
</svg>