<?xml version="1.0" encoding="UTF-8"?>
<svg id="Warstwa_2" data-name="Warstwa 2" xmlns="http://www.w3.org/2000/svg" viewBox="0 0 43.84 42.71">
  <defs>
    <style>
      .cls-1 {
        fill: #fff;
      }
    </style>
  </defs>
  <g id="icon-set-v2-combat-action-pixarts-store">
    <g id="icon-set-v2-combat-action-pixarts-store_158">
      <path class="cls-1" d="M13.32,28.11c6.72-6.34,12.92-12.79,20.07-18.84-3.54,4.63-7.59,8.39-11.6,12.62l-7.07,7.46c.87.73,1.38,1.11,2.34,1.71l21.52-21.68c2.39-2.4,2.76-6.26,4.06-9.39-3.17,1.22-6.8,1.65-9.15,3.99L11.54,25.76c.53.97,1.03,1.63,1.78,2.35Z"/>
      <path class="cls-1" d="M40.17,10.66l-7.45,7.48c3.42,5.75,3.25,12.16-.02,17.95,4.4-4.1,5.57-9.82,4.96-16.1,1.63,2.89,2.09,6.34,1.8,9.73-.46,4.34-2.42,7.89-4.87,11.51,9.9-7.04,12.02-20.5,5.58-30.57Z"/>
      <path class="cls-1" d="M23.5,6.6c-6.09-.47-11.84.88-15.96,5.22,5.2-2.88,10.93-3.41,16.31-1.08l7.57-7.42C21.34-2.13,8.16,1.08,2.27,10.62c6.45-5.15,13.97-7.26,21.22-4.03Z"/>
      <path class="cls-1" d="M3.56,42.67c.68.17,1.82-.27,2.1-.74.23-.39.18-1.27.09-2.01l6.21-5.92-3.28-3.17-5.67,6.14c-.73-.03-1.72-.08-2.16.18-.47.28-.95,1.38-.82,1.96.39,1.76,1.66,3.1,3.54,3.57Z"/>
      <path class="cls-1" d="M8.59,23.12c-1.19.68-1.99,1.33-2.75,2.28,4.15,5.33,6.39,7.48,11.68,11.45,1.03-1.21,1.54-1.81,2.05-2.74-5.12-2.46-8.86-5.84-10.98-10.99Z"/>
    </g>
  </g>
</svg>