<?xml version="1.0" encoding="UTF-8"?>
<svg id="Warstwa_2" data-name="Warstwa 2" xmlns="http://www.w3.org/2000/svg" viewBox="0 0 46.3 46.21">
  <defs>
    <style>
      .cls-1 {
        fill: #fff;
      }
    </style>
  </defs>
  <g id="icon-set-v2-combat-action-pixarts-store">
    <g id="icon-set-v2-combat-action-pixarts-store_39">
      <path class="cls-1" d="M14.77,3.17c.8-1.01-.36-2.71-1.44-2.31-.43.16-.43,1.33-.21,1.73.23.44,1.34.97,1.65.58Z"/>
      <path class="cls-1" d="M40.98,29.51l-5.07-1.29c-.69-.17-1.49-1.44-1.39-2.06.09-.55,1.15-1.43,1.72-1.36l2.46.3c.47.06,1.43-.25,1.59-.68.17-.49.13-1.45-.15-1.82-1.16-1.55-4.32,1.75-6.73-1.82-1.04-1.53-1.3-2.91-.28-4.73,2.8-4.97,7.81-5.65,10.49-8.86.88-1.05.83-2.73.11-3.54-.76-.86-2.58-1.15-3.63-.31-3.37,2.72-4.89,8.42-9.67,10.04-.87.29-2.25-.02-2.82-.58-.57-.57-.58-1.91-.18-2.67l1.59-2.99c.67-1.25-.44-2.8-1.51-3.03-1.14-.24-2.58.64-2.59,2l-.03,3.62c0,.54-.78,1.56-1.28,1.56-1.51-.01-2.58-1.86-3.34-.93-1.12,1.38-.37,2.65-1.6,3.19-.44.19-1.52,0-1.92-.3-2.96-2.34-4.61-5.34-6.01-8.72-.67-1.61-2.36-2.88-4.09-1.86-.89.53-1.06,2.42-.39,3.31,2.54,3.39,5.47,3.76,7.72,8.14.64,1.26.25,3.32-1.38,3.56-2.02.3-4.07-2.67-5.68-1.13-.52.5-.73,1.67-.42,2.28,1.04,2.03,4.45.18,5.31,2.25.37.89-.94,2.08-1.89,2.4-4.78,1.66-9.18-.95-9.9,2.36-.19.88.26,2.38,1.4,2.64,3.18.73,6.48-4.52,10.54-1.95.57,1.64-1.29,1.62-2.15,2.91-.11.17.44.72.61.6l.85-.56c.49-.33,1.62-.66,2.09-.34.44.3.39,1.59,0,2.1-5.22,7.08-12.94,8.44-11.01,12.23.89,1.76,3.62,1.57,4.88.06,3.18-3.84,4.65-8.24,8.82-10.59,1.47-.83,3.66-.96,4.6.47,2.39,3.65-1.86,7.3.46,8.94.48.34,1.52.43,2.16.17,2.37-1-1.65-8.52,2.26-8.78,2.63-.18,2.85,6.02,2.93,8,.07,1.65,1.61,2.55,2.81,2.19,1.08-.32,2.06-1.49,1.64-2.91-.75-2.56-3.57-3.53-3.85-7.37-.12-1.55.73-2.97,1.9-3.69,1.07-.67,2.65-.68,3.91,0,3.41,1.84,3.68,4.32,6.32,3.61.65-.17,1.28-1.45,1.17-2.18-.09-.59-.82-1.73-1.4-1.88Z"/>
      <path class="cls-1" d="M35.92,35.76c.38,2.24,2.69,8.25,5.44,6.72.94-.52,1.33-2.11.46-3.17-1.5-1.83-3.44-3.02-5.91-3.55Z"/>
      <path class="cls-1" d="M6.19,13.93c-2.04-1.82-3.72-3.77-5.72-3.07-.37.13-.57,1.4-.24,1.67,1.49,1.21,4.04,1.87,5.96,1.4Z"/>
      <path class="cls-1" d="M40.59,16.07c1.84.39,3.53.06,5.17-.83.41-.22.71-1.48.44-1.81-1.45-1.79-4.53,1.01-5.61,2.64Z"/>
      <path class="cls-1" d="M36.21,1.54c.1-.4-.33-1.33-.69-1.49s-1.27.04-1.55.33c-1.14,1.16-1.8,3.24-.9,4.53,1.45-.18,2.78-1.94,3.14-3.37Z"/>
      <path class="cls-1" d="M14.95,45.77c.16.34,1.33.59,1.58.32.85-.92,1.33-2.69.71-3.98-1.93.05-2.83,2.47-2.29,3.65Z"/>
      <path class="cls-1" d="M5.58,31.7c.12-.16.33-1,.14-1.03l-.83-.14c-.62.11-1.96.96-1.81,1.53.28,1,1.85.54,2.5-.36Z"/>
      <path class="cls-1" d="M16.12,6.89c-1.11.29-.39,2.84.85,2.55.93-.21.21-2.83-.85-2.55Z"/>
      <path class="cls-1" d="M35.4,18.43c1.17.6,3.97-1.09,3.05-1.5-1.23-.55-2.39.29-3.05,1.5Z"/>
    </g>
  </g>
</svg>