<?xml version="1.0" encoding="UTF-8"?>
<svg id="Warstwa_2" data-name="Warstwa 2" xmlns="http://www.w3.org/2000/svg" viewBox="0 0 49.69 45.42">
  <defs>
    <style>
      .cls-1 {
        fill: #fff;
      }
    </style>
  </defs>
  <g id="icon-set-v2-combat-action-pixarts-store">
    <g id="icon-set-v2-combat-action-pixarts-store_85">
      <path class="cls-1" d="M6.77,38.43C1.3,30.14.69,20.29,5.94,11.9c-8.39,6.65-7.69,19.93.84,26.53Z"/>
      <path class="cls-1" d="M9.55,34.37c-3.37-6.32-3.49-12.46-.65-18.71-5.59,5.32-4.95,13.89.65,18.71Z"/>
      <path class="cls-1" d="M11.87,30.41c-1.33-3.87-1.39-7.15-.31-10.91-3.05,3.11-2.77,8.01.31,10.91Z"/>
      <path class="cls-1" d="M34.87,4.07c.41-1.69,1.64-2.8,3.11-3.86-2.45-1.18-7.96,2.95-10.01,5.12v-2.53c-6.78,5.43-1.16,5.92-5.32,8.37-.79.46-1.34,1.97-1.65,2.83-1.65,1.02-5.84,2.2-6.3,3.99-.06.22.79.52,1.05.45l2.88-.76c-.47.68-1.07,1.25-1.84,1.9-.34.47-.69,1.55-1.2,1.33-.2.4.2,1.86.79,2.03,5.92,1.71,7.65-2.94,10.06-.45,1.83,1.89,3.93,3.86,4.05,6.59.07,1.57-1.13,3.71-2.43,4.74-1.15.91-2.92.61-4.49.8-.22,3.32,4.16,4.89,6.31,5.01l-.5-1.29,3.12,1.1c-.5-1.38-1.03-2.31-.53-3.44.31-.7,1.84-1.64,2.61-1.27,3.25,1.56-.36,5.24,1.3,8.34l1.4-2.24,1.83,4.54,10.39.04V5.15s-5.03-.75-5.03-.75l5.21-1.99c-5.21-1.2-10.18-.58-14.82,1.66ZM27.91,14.76c-1.06.92-3.34.02-4.28-.21,2.84-.55,2.5-2.21,6.35-2.29-.61.84-1.19,1.74-2.06,2.49Z"/>
      <path class="cls-1" d="M23.22,33.02c.45.38,3.98,1.16,4.85-.48l-3.55-1.64.27,2.01-2.1-1.65c.04.59.19,1.48.53,1.76Z"/>
      <path class="cls-1" d="M22.31,27.6l-.65-3.73-2.05.55c.63,1.34,1.38,2.31,2.7,3.18Z"/>
    </g>
  </g>
</svg>