<?xml version="1.0" encoding="UTF-8"?>
<svg id="Warstwa_2" data-name="Warstwa 2" xmlns="http://www.w3.org/2000/svg" viewBox="0 0 50.59 48.81">
  <defs>
    <style>
      .cls-1 {
        fill: #fff;
      }
    </style>
  </defs>
  <g id="icon-set-v2-combat-action-pixarts-store">
    <g id="icon-set-v2-combat-action-pixarts-store_20">
      <path class="cls-1" d="M5.42,48.55l-.23-2.95,6.08-4.7c1.08-.83,4.94-5.46,7.37-7.22-.17,1.1-.45,1.98-.82,3.18l.43,2.58,3.43-2.52-.23,3.19,4.24-3.92.77-3.39,6.35,2.13.12,3.23c1.36,3.3,1.72,6.05,1.44,9.92l7.37.27c.33.01,1.32-.51,1.21-.8-.57-1.59-2.84-1.24-4.67-3.16-.58-5.21.62-7.61-.78-12.42l-3.13-2.36c-2.28-1.72-4.44-3.2-7.17-4.34l-.44-2.19-12.22,4.74-4.66,7.38c1.65-2.61-8.8,7.91-9.36,13.36,1.66.34,3.3.34,4.89-.01Z"/>
      <path class="cls-1" d="M7.47,27.86l2.09,2.33-.08-2.28c10.87-2.5,23.36-7.71,31.28-16.16-.55.1-1.35.39-1.86.82-8.52,7.21-18.5,11.97-29.44,14.27-.33-1.74-1.31-2.94-2.52-3.8-.43-.39,0-1.94.56-2.18,1.61-.68,2.92-2.1,4.43-2.71l4.31-1.72c1.33,2.24,1.53,4.83.51,7.51,3.83-1.25,7.11-2.66,10.42-4.35l1.66-4.86,5.77-1.48c1.19-.3,3.13-.39,3.7-1.35l-.21-3.03-4.07.72c-1.98.35-4.28-.24-6.37-.59.27-1.95.43-3.9-.49-5.92-.41-.89-1.96-1.43-2.83-1.43-.89,0-2.16.51-2.65,1.34-1.01,1.7-.37,3.31,0,5.16-.15.68-1.71.55-2.48.43-2.78-.41-4.9,1.8-6.58,3.45l2.5,2.46c1.37-.48,2.63-1.2,4.32-1.17-1.47,1.24-2.8,1.78-4.47,2.5l-2.63-2.71-4.02,2.86c-1.83,1.3-3.41,3.22-5,4.88-.96,1-1.15,2.76.06,3.56.38.25,1.6.46,1.9.12.3-.34.55-1.09.88-1.91l1.73,2.96c.18.31.48,1.01.43,1.33-.04.26-.38.49-.9.96Z"/>
      <path class="cls-1" d="M47.67,7.78c.96-1.85,1.05-3.55.07-5.14-1.96-3.19-4.83-1.51-6.47-2.64l-2.7,2.26,3.44.73-.06-1.02c-.02-.29,3.01-.91,4.32,1.44.54.96.68,3.12-.58,3.66l-5.21,2.23c2.37,2.99,3.96-1.18,7.1.4.74.37,1.57,1.86,1.36,2.87-.32,1.53-1.35,2.59-2.53,3.42l-.61-1.34-2.47,3.22,4.16-.22-.62-.65c1.09-.63,2.29-1.52,2.99-2.63,1.57-2.5.46-5.37-2.2-6.61Z"/>
      <path class="cls-1" d="M4.7,28.64c1.39-.46,3.01-1.68,2.11-3.26-.79.85-1.61,1.96-2.4,2.28-1.48.6-2.64-.06-3.13-1.04-1.05-2.1,1.82-3.41.75-3.69l-.67-.17c-1.44,1.04-1.7,2.95-.97,4.42.74,1.48,2.56,2.03,4.3,1.46Z"/>
      <path class="cls-1" d="M38.74,9.81c-.08.45.36,1.55.8,1.55.37,0,1.22-.58,1.03-.75-.51-.88-.47-1.63-.18-2.48-.76-.13-1.46.65-1.65,1.69Z"/>
    </g>
  </g>
</svg>