<?xml version="1.0" encoding="UTF-8"?>
<svg id="Warstwa_2" data-name="Warstwa 2" xmlns="http://www.w3.org/2000/svg" viewBox="0 0 48.4 48.29">
  <defs>
    <style>
      .cls-1 {
        fill: #fff;
      }
    </style>
  </defs>
  <g id="icon-set-v2-combat-action-pixarts-store">
    <g id="icon-set-v2-combat-action-pixarts-store_23">
      <path class="cls-1" d="M13.51,33.71l24.21-23.61-23.39,24.65c.12.66,1.3,1.75,1.85,1.51L44.45,7.68c1.98-2,2.29-5.22,3.28-7.68-2.82,1.07-5.91,1.64-7.95,3.69L11.73,31.82c.14.97.86,1.76,1.78,1.88Z"/>
      <path class="cls-1" d="M18.81,22.74l1.86-1.84-8.47-9.15,9.23,8.53,1.75-1.89L8.4,3.59C6.36,1.55,3.15.95.57,0c.98,2.4,1.26,5.45,3.07,7.3l15.17,15.44Z"/>
      <path class="cls-1" d="M19.4,39.68c-5.09-2.27-8.98-5.96-10.97-11.11l-2.05,1.45c2.3,5.19,6.29,8.94,11.42,11.59l1.6-1.92Z"/>
      <path class="cls-1" d="M28.98,39.63c.58.75,1.11,1.33,1.79,1.92,5.31-2.73,8.93-6.49,11.3-11.59l-2.16-1.34c-2.08,5.36-5.85,8.87-10.93,11.01Z"/>
      <path class="cls-1" d="M27.81,26.57l7.2,7.3c.7-.22,1.65-1.18,1.61-1.95l-7.06-7.19c-.72.58-1.34,1.23-1.74,1.84Z"/>
      <rect class="cls-1" x="28.4" y="26.58" width="2.57" height="10.67" transform="translate(-13.83 29.38) rotate(-43.74)"/>
      <path class="cls-1" d="M3.38,48.27c.59.12,1.62-.5,1.75-.98.12-.41-.07-1.48-.42-1.81l-2.1-1.97c-.36-.34-1.46-.49-1.85-.26-.39.23-.85,1.26-.75,1.75.33,1.53,1.47,2.87,3.37,3.27Z"/>
      <path class="cls-1" d="M46.33,43.17l-2.51,2.14c-.5.43-.68,1.69-.37,2.22.25.43,1.37.92,1.98.71,1.75-.58,3.94-2.82,2.5-4.75-.22-.3-1.33-.56-1.6-.33Z"/>
      <path class="cls-1" d="M39.44,36.23c-.78.8-1.88,1.89-2.41,2.48-.27.3.42,1.27.79,1.31,1.02.11,2.64-2.93,1.62-3.79Z"/>
      <path class="cls-1" d="M6.91,39.31l.84,1.42c.18.3.77,1,1.08.88.31-.11.95-.64.96-.98,0-.27-.37-.74-.66-1.12l-1.44-1.89c-.55.74-1,1.33-.79,1.68Z"/>
      <path class="cls-1" d="M6.01,42.43c.25.44.89,1.14,1.25.97.31-.14.79-1.05.6-1.33l-1.74-2.6c-1.42.88-.73,1.88-.11,2.96Z"/>
      <path class="cls-1" d="M39.6,41.65c.88-.23,1.69-1.88,1.92-2.83.08-.33-.75-.94-1.03-1.07l-1.6,2.83c-.16.28.39,1.15.71,1.07Z"/>
      <path class="cls-1" d="M11.76,38.78l-2.43-2.4c-.16-.15-.86.37-.82.6.03.18.14.64.24.79l1.55,2.22,1.46-1.21Z"/>
      <path class="cls-1" d="M42.16,39.53l-1.57,2.75c-.16.28.69,1.42.93,1.21.75-.69,1.74-2.2,1.59-3.07-.06-.32-.56-.67-.94-.89Z"/>
      <path class="cls-1" d="M43.31,44.63l.93-.78c.3-.26.99-1.23.73-1.5l-1.12-1.18-1.61,2.94c-.07.26.85.71,1.07.52Z"/>
      <path class="cls-1" d="M3.43,42.56c-.02.4.63,1.15.95,1.39l1.09.83c.17.13.9-.58.78-.77l-1.8-2.78c-.4.31-1.01.93-1.03,1.33Z"/>
    </g>
  </g>
</svg>