<?xml version="1.0" encoding="UTF-8"?>
<svg id="Warstwa_2" data-name="Warstwa 2" xmlns="http://www.w3.org/2000/svg" viewBox="0 0 52.54 52.41">
  <defs>
    <style>
      .cls-1 {
        fill: #fff;
      }
    </style>
  </defs>
  <g id="icon-set-v2-combat-action-pixarts-store">
    <g id="icon-set-v2-combat-action-pixarts-store_92">
      <path class="cls-1" d="M21.77,6.22l-8.39,11.23c-1.53,2.05-2.29,4.05-2.16,6.9l5.36-3.88c-.87,1.49-1.87,2.28-3.55,3.29.7,1.82,1.63,3.62,2.73,5.09-.51-2.18-1.07-3.94-1.02-6.13,1.89,3.05,3.04,6.23,6.37,7.72-2.25-2.92-3.54-5.7-3.81-9.18-.02-.21-.14-.71-.3-.75l-.65-.15,8.53-12.37-9.23,10.35,8.02-10.68c.33-.49-1.37-1.78-1.88-1.44Z"/>
      <path class="cls-1" d="M39.89,33.95c1.21-1.77,1.64-3.93,1.92-6.05l-3.13,1.52.84-1.28c.49-.75-1.71-3.99-2.5-4.82.47,2.17,1.32,3.81,1.01,6.13-1.67-2.91-2.75-5.97-5.84-7.29,2.13,2.87,3.13,5.88,3.73,9.3,1.04-.91,1.84-1.68,2.98-2.43l-3.21,4.01-7.41,10.97,8.48-9.6-7.51,10.17c-.16.22-.13.9-.21,1.13l1.74.57c3.12-4.03,6.17-8.06,9.09-12.33Z"/>
      <path class="cls-1" d="M31.64,48.11l-.04-.35-2.57-1.99s-.04.03-.07.01l-.83-.62c-.32-.24-.77-.61-1.01-.53s-.67.46-.53.67c.11.16.48.57.63.7l.87.71s.02.08-.03.13l2.73,1.54c.15.08.87-.1.86-.27Z"/>
      <path class="cls-1" d="M27.23,47.44l-2.04,2.96c-.32.47-.68,1-.85,1.32-.17.32,1.11.89,1.37.63.26-.25.36-.61.57-1.19l2.49-3.14-.74-1.16c-.19.18-.71.44-.81.58Z"/>
      <path class="cls-1" d="M7.09,26.52c-4.78,7.09-1.42,4.48-1.74,5.17l.33-.71.33-.68c.06-.13.55-.23.54-.08,0,.15.1,1.03.32,1.18l9.61,6.88c2.56,1.84,4.75,3.22,8.17,2.93-1.13-1.66-2.43-3.89-4.23-5.09l-12.36-8.26c3.53,4.36,8.6,6.02,12.25,10.28l-12.64-9.05-1.48,1.08,1.75-2.89c.14-.23-.7-.98-.85-.76Z"/>
      <path class="cls-1" d="M35.96,13.74c-2.25-1.61-4.72-2.55-7.78-2.71,1.49,3.13,3.96,5.05,6.83,6.94l9.12,6.02c-1.81-3.04-9.11-6.86-11.08-9.27,4.49,2.65,7.89,5.38,11.76,8.29.55-.59,1.03-1.31,1.28-2.02l-10.12-7.24Z"/>
      <path class="cls-1" d="M12.46,41.89l-1.14-1.68c2.32.25,4.34.42,6.86.36-4.17-3.71-4.27-2.09-6.86-3.74-3.42,1.26-7.69-1.8-10.42-3.72,2.11,4.95,6.58,7.88,11.57,8.77Z"/>
      <path class="cls-1" d="M41.53,12.1l-6.75-.35c1.18,1.66,5.5,3.45,6.52,3.47l3.06.05c2.77.04,4.87,2.2,7.24,3.59-2.08-4.87-6.45-7.36-11.21-8.43l1.14,1.69Z"/>
      <path class="cls-1" d="M33.28,51.71c4.79-2.32,8.13-6.99,9.01-12.22l-1.81,1.69c.3-2.51.49-4.65.46-7.17-1.25,1.55-2.31,2.95-2.89,4.55l-.94,2.58c1.93,1.93-2.06,8.91-3.83,10.57Z"/>
      <path class="cls-1" d="M26.17,47.61l-.76-.35c-.11-.05-.06-.29.05-.34l.73-.29c-.28-.71-.45-1.31-.45-2.44-3.49,1.84-7.38,2.07-11.81,2.02,2,.61,3.9.96,6.14,1.32-4.19.88-8.02-.89-12.08-2.64,3.16,3.74,15.57,7.06,18.19,2.73Z"/>
      <path class="cls-1" d="M26.23,5.72l1.44-.13c-.38.66-.72,1.02-.6,1.31l.53,1.2c3.6-1.8,7.09-1.67,11.27-1.72l-5.34-1.33c3.79-.85,6.89,1,10.58,1.83-3.29-3.11-16.11-6.63-17.89-1.15Z"/>
      <path class="cls-1" d="M5.87,26.72l.94-1.47,2.07,1.33c-2.52-3.99-2.46-7.81-2.61-12.56l-1.32,6.13c-.4-3.53.53-6.63,1.49-10.1-3.21,3.11-5.96,14.99-.56,16.67Z"/>
      <path class="cls-1" d="M49.19,27.14l-2.79-1.81c-.31.61-.54,1.33-.8,1.29l-1.37-.22c2.01,3.67,2.09,6.86,2.3,11.03l1.25-4.96c.56,3.8-.68,7.19-2.17,10.94,3.88-4.49,5.07-10.69,3.58-16.26Z"/>
      <path class="cls-1" d="M12.32,11.38c-.1,2.14-.14,4.05.02,6.18,6.26-7.25-.43-6.72,6.76-16.63-4.41,2.43-7.49,6.5-8.37,11.83.53-.23,1.18-.87,1.59-1.38Z"/>
      <path class="cls-1" d="M22.86,37.72c2.84-1.48,5.6-2.62,7.28-5.67-3.26,1.77-5.9,2.96-9.4,3.48l2.12,2.2Z"/>
      <path class="cls-1" d="M30.09,15.04c-3.17,1.11-6.03,2.77-7.68,5.82,3.14-2.09,5.88-3.27,9.66-4.04l-1.97-1.78Z"/>
      <path class="cls-1" d="M4.73,28.93l.89-1.42c-1.57-.98-3.14-2.01-4.46-2.96-.33-.24-1.26.55-1.16.95.19.78,2.54,1.42,4.73,3.43Z"/>
      <path class="cls-1" d="M47.57,23.24l-.82.41,1.53-2.7c.12-.22-.76-.87-.89-.65l-.6,1.03c-.79,1.35-1.8,2.3-1.7,3.91l1.55-1.26c1.15,1.26,2.7,1.9,3.81,2.78l1.2.95c.26.2.86-.66.89-.99.02-.26-.41-.51-.85-.82l-3.23-2.28c-.34-.24-.66-.49-.88-.38Z"/>
      <path class="cls-1" d="M25.89,8.01c.16.12.56-.27.81-.56l-2.7-2.42,1.57.03c.42,0,.84-1.77,2.75-3.77.32-.33-.47-1.46-.86-1.27-.31.15-.75.62-1,.99l-2.69,3.98c-.96-.6-1.62-1.33-2.85-.7l4.21,3.15.76.57Z"/>
      <path class="cls-1" d="M29.62,14.34c-.8-2.71-4.76.8-6.04,1.63l6.04-1.63Z"/>
      <path class="cls-1" d="M25.25,39.13l3.19-2.13-5.22,1.11.72,1.08c.13.19,1.11.08,1.31-.06Z"/>
    </g>
  </g>
</svg>