<?xml version="1.0" encoding="UTF-8"?>
<svg id="Warstwa_2" data-name="Warstwa 2" xmlns="http://www.w3.org/2000/svg" viewBox="0 0 41.04 47.57">
  <defs>
    <style>
      .cls-1 {
        fill: #fff;
      }
    </style>
  </defs>
  <g id="icon-set-v2-combat-action-pixarts-store">
    <g id="icon-set-v2-combat-action-pixarts-store_43">
      <path class="cls-1" d="M35.98,1.47c-3.88-2.15-8.43-1.97-11.95.92-2.27,1.87.82,3.43-2.14,6.25-.36.34-.97,1.3-.84,1.75.47,1.57,2.86,2.24,3.62,4.12.77,1.93-5.21,2.57-3.02,6.89.72,1.43,1.4,3.19,1.58,4.77.16,1.44-.96,2.46-2.11,2.46-1.02,0-2.14-1.04-1.96-2.37.08-.6.45-1.67.71-2.14,2.31-4.12-2.95-2.7.67-7.74.3-.41.62-.98.57-1.29-.05-.31-.57-.85-.86-1.05l-2.6-1.73c-3.12-2.07,1.86-4.62,1.67-6.98C16.98.75,11.55-1.04,6.89.6,2.22,2.24-.65,7.04.13,12.18c1.41,9.32,8.58,10.84,7.31,16.22l-1.12,4.75c-.42,1.78,1.22,3.14,2.62,3.07,1.49-.07,2.56-1.48,2.29-3.14-.26-1.53-.55-2.88-.51-4.81l9.85,7.92,3.42-2.43c3.67,3.36-3.64,9.75.12,13.07,1.08.95,2.98.99,4.04-.03,1.44-1.37,1.32-3.46.58-5.21-2.24-5.29-2.5-12.11,3.41-14.95,1.37,3.3-2.65,7.67-.17,9.25.65.41,2.08.38,2.53-.09,2.19-2.33-2.35-6.18-.26-11.21.9-2.17,5.83-5.73,6.7-12.46.58-4.5-1.3-8.65-4.95-10.67ZM3.98,14.59c-2.14-3.39-1.22-7.96,2-10.4,1.64-1.24,3.68-1.93,5.63-.46-5.22,1.46-7.91,5.16-7.63,10.86Z"/>
      <path class="cls-1" d="M14.64,42.24c.44.2,1.39.16,1.74-.17,1.32-1.28-.36-4.34-1.05-5.92-.75,1.75-2.54,5.27-.69,6.09Z"/>
    </g>
  </g>
</svg>