<?xml version="1.0" encoding="UTF-8"?>
<svg id="Warstwa_2" data-name="Warstwa 2" xmlns="http://www.w3.org/2000/svg" viewBox="0 0 51.84 50.47">
  <defs>
    <style>
      .cls-1 {
        fill: #fff;
      }
    </style>
  </defs>
  <g id="icon-set-v2-combat-action-pixarts-store">
    <g id="icon-set-v2-combat-action-pixarts-store_153">
      <path class="cls-1" d="M40.61,33.08c-2.4-3.25-5.27-6.07-8.99-7.99,2.48-3.09,4.86-3.41,7.83-5.85.79,1.73,2.15,2.88,3.62,4.06.7.56,1.68,1.64,2.69.92,1.9-1.34,2.98-3.43,4.16-5.42.45-.75,1.4-1.52,1.74-2.27.66-1.43-.67-2.76-1.84-3.12l-2.04,1.5.61,2.44-3.55,3.01-1.93-2.95c-.65-1-.81-2.44-2.07-3.18.02-.19.33-.69.53-.86.21-.16.86,0,1.1.13l1.42.76,1.56-2.62c.34-.58.32-2.08.38-2.82.2-2.3-1.58-3.97-3.8-3.97-1.06,0-2.08.48-2.64,1.19-1.41,1.83.18,3.59-.85,4.26-.32.21-1.3.36-1.61.06-1.13-1.1-2.85-.94-4.25-1.04l-6.6-.44c-1.98,1.98-3.58,3.8-5.27,5.95-.75.96-2.14,1.65-2.34,3.01-.12.8.93,1.85,1.46,2.36l2.12-.6c1.49-3.15-1.92-2.23,3.1-5.35.87-.54,1.74-1.28,2.49-1.91l3.58,1.04c.31.09.89.54.85.63-2.84.31-2.61,4.61-5.85,6.96-1.88,1.36-3.3,3.06-3.38,5.4-2.01,1.87-3.48,4.04-4.66,6.5-1.14,2.39-4.15,1.65-5.53,3.42l-3.37,4.33c-1.58,2.03-3.95,1.07-4.42,2.07-.57,1.21.27,1.54-.17,4.25-.17,1.06-.31,2.66.79,3.33.61.37,2.07.22,2.88.02.18-1.38-1-1.06-1.39-1.84-.29-.58,2.12-4.14,2.91-4.78,2.51-2.02,5.15-3.91,8.02-5.28,1.33-.64,2.11-1.09,3.19-2.04l5.54-4.85c-.84-1.06-1.09-1.36-1.55-2.3,4.2,2.06,5.06,3.08,9.64,3.98-1.82.31-3.2,1.08-4.47,2.24-4.64,4.26-7.67,1.28-7.32,3.88.51,3.78-.43,4.26.47,6.88.1.29.81.66,1.07.58.61-.17,1.11-5.6,3.65-6.52l11.13-4.01c.95-.34,1.34-2.11,1.35-3.13Z"/>
      <path class="cls-1" d="M12.85,9l-4.38,6.5c-.51.76.55,1.77,1.24,2.22.65.42,1.47.11,2.11-.36,1.53-1.15-.44-2.21,1.3-3.69,1.03-.88,1.89-1.68,2.81-2.6l2.17.31c-.34.96-.87,1.92-1.56,2.46l.35.48c-.26-.35-.28,2.31-3.02,2.73l.55.41c.45.33-1.92,1.4-1.92,4.31-1.94,1.93-.72,1.83-2.77,2.89.03.04.46.44.34.55l-.5.46c.13.55-.05,1.34-.34,1.76-.45.67-1.26.59-1.92.82l-3.6,1.22c.23.09.95.33.8.54-.13.18-.54.59-.72.67l-.76.35c-.15.07-.05.52-.08.74l-2.49,2.17c.55.07,1.3-.1,1.68-.45l4.75-4.33c.83-.11,2.13-.28,2.82-.69.9-2.19,1.84-3.97,3.11-5.72.91,1.48,2,2.11,3.33,2.79-1.37,1.22-2.65,2.37-3.84,3.62-3.13,3.29-1.37.8-4.81,2.82-2.24,1.31-4.5,2.49-6.38,4.3,2.97-1.4,5.6-3.13,8.6-4.21,1.23-.45,1.81-.73,2.74-1.74,1.21-1.3,3.14-3.02,4.37-4.14.25-.17,1.13-.07,1.47-.09-1.05-1.08-2.66-1.59-3.84-2.54-1.44-1.16-.89-3.49,0-4.75,2.32-3.32,1.91-.69,3.61-4.9.46-1.15,1.1-2.33,1.7-3.41l-4.11-.44c-.98,1.06-2.05,2.19-3.25,3.13-1.71,1.33-.13,3.03-1.36,3.64-.28.14-.83-.03-1.21-.21-.3-.14-.54-.85-.34-1.1,1.16-1.52,2.06-2.85,3.1-4.32l1.91-2.69,5.08-.99c1.2-.24,2.24-.53,3.51-.09.48.17,1.52-.03,1.87-.34,1.33-1.16-.67-3.67,1.72-4.78,1.23-.57,3.27.06,3.59,1.63.24,1.18-.12,2.5-.39,3.65.27.06.8.12,1.01.02.25-.11.44-3.05.37-3.63-.2-1.69-2.32-2.93-3.87-2.78l-3.08.3,1.25.87c-.9.17-1.51.24-2.27.3l1.52.85-.89.58c.58.44.91,1.14.73,1.87-.15.63-1.1.74-1.82.54-1.32-.37-2.46.01-3.72.18-2.03.27-5,.49-6.24,2.34Z"/>
      <path class="cls-1" d="M4.32,18.42l-2.48,4.63-1.84,1.24,2.36-.69,2.42-4.14c.61.75,1.31,1.42,2.38,1.52-1.69-.95-2.66-2.99-1.35-4.62l2.78-3.45c1.04-1.3,1.04-3.14,1.86-4.75l-3.39.03c-1.54,2.2-3.13,2.31-2.86,4.69.04.37-.36,1.03-.68,1.03-.31,0-1.12-.37-1.02-.67.08-.25.34-.7.51-1l2.93-5.33c1.14-.48,2.8-.77,4.02-1.13.85-.25,1.53-.51,2.42-.35.85.16,2.27-.07,2.37-1.07.1-.97-.11-2.1.38-2.95.38-.66,1.75-.7,2.35-.47.51.2,1.35,1.03,1.31,1.58l-.26,2.97c.15.02.8-.03.83-.26l.12-1.1c.14-1.25.21-2.41-.58-3.15-.79-.74-1.86-1.17-2.93-.91l-2.53.62c.37.2.93.39.83.56l-.34.57-1.34.25,1.19.42c-.17-.06.56,1.61.27,1.84-1.11.86-1.19-.3-4.27.62-1.44.43-3.08.86-4.45,1.42l-3.78,6.79c.16.93,1.51,1.88,2.18,1.56,1.11-.53,1.46-1.18,1.27-2.53-.11-.74,1.08-1.53,1.56-2.11.72-.86,1.27-1.45,2.65-.93-1.24,4.45-.91,3.15-3.89,6.49-.6.67-.57,2.03-.97,2.77Z"/>
      <path class="cls-1" d="M8.13,21.59c-.16-.08-1.06.06-1.25.29l-2.9,3.6c-.46.57-1.34.9-2,1.25.84-.02,1.87-.31,2.62-.72l3.52-4.42Z"/>
    </g>
  </g>
</svg>