<?xml version="1.0" encoding="UTF-8"?>
<svg id="Warstwa_2" data-name="Warstwa 2" xmlns="http://www.w3.org/2000/svg" viewBox="0 0 42.03 42.11">
  <defs>
    <style>
      .cls-1 {
        fill: #fff;
      }
    </style>
  </defs>
  <g id="icon-set-v2-combat-action-pixarts-store">
    <g id="icon-set-v2-combat-action-pixarts-store_06">
      <path class="cls-1" d="M8.05,19.92l11.83-11.81-6.02-6.1C11.87-.01,8.84-.54,6.25.61,3.54,1.82,1.37,4,.4,6.79c-.9,2.58-.23,5.18,1.63,7.06l6.02,6.07Z"/>
      <path class="cls-1" d="M34.03,22.17l-11.88,11.78,5.43,5.58c1.91,1.97,4.62,3.23,7.57,2.22,3.36-1.15,5.81-3.95,6.63-7.28.55-2.21-.11-4.64-1.69-6.23l-6.06-6.08Z"/>
      <path class="cls-1" d="M33.05.01c-2.45-.16-4.41,1.44-5.97,3.07l-4.84,5.06,11.75,11.84,5.76-5.84c1.81-1.83,2.77-4.04,2.06-6.74C40.73,3.45,37.28.29,33.05.01Z"/>
      <path class="cls-1" d="M8.08,22.12l-5.62,5.55c-2.17,2.15-3.16,5.08-1.87,8.07,1.06,2.46,2.98,4.56,5.64,5.75,2.55,1.14,5.41.64,7.27-1.18l6.44-6.32-11.86-11.87Z"/>
      <path class="cls-1" d="M20.96,33.16l12.14-12.14-12.02-12.02-12.14,12.14,12.02,12.02ZM29.51,21.09l-8.57,8.47-8.45-8.55,8.57-8.47,8.45,8.55Z"/>
    </g>
  </g>
</svg>