<?xml version="1.0" encoding="UTF-8"?>
<svg id="Warstwa_2" data-name="Warstwa 2" xmlns="http://www.w3.org/2000/svg" viewBox="0 0 50.82 49.38">
  <defs>
    <style>
      .cls-1 {
        fill: #fff;
      }
    </style>
  </defs>
  <g id="icon-set-v2-combat-action-pixarts-store">
    <g id="icon-set-v2-combat-action-pixarts-store_21">
      <path class="cls-1" d="M31.76,8.64c-6.02,5.88-11.51,11.76-17.17,18.06.76.96,1.39,1.62,2.37,2.43l15.55-16.42-14.14,17.75c.96.89,1.85,1.62,2.66,2.16l12.43-15.6c4.14-5.19,7.9-10.53,10.12-17.03-4.52,2.37-8.3,5.2-11.82,8.64Z"/>
      <path class="cls-1" d="M23.18,14.85c.49.31,1.84-1.29,1.4-1.64-1.41-1.13-3.05-2.39-4.38-3.69l4.93,2.93c.58.35,1.83-.82,1.85-1.37C21.27,7.21,15.69,3.45,8.96,1.77c2.99,5.08,9.7,9.93,14.22,13.08Z"/>
      <path class="cls-1" d="M11.31,22.75c-1.01.33-1.98.71-2.94,1.15,1,6.29,9.01,13.94,15.69,14.35l1.18-3.14c-5.46.05-13-6.83-13.94-12.37Z"/>
      <path class="cls-1" d="M48.18,26.67l-7.48-5.61c-.45-.33-1.47.08-1.8.31l1.86-5.37c-.59-.45-1.51-.82-2.34-1.01-.82,4.39-3.03,7.67-6.73,10.06.38.66,1.27,1.58,1.87,1.58l3.65-3.02c1.51,1.37,7.75,5.71,9.06,5.61-.02.41.28,2.26.91,2.32,1.32.14,2.61-.46,3.03-1.11.52-.8.85-2.17.39-3.13-.33-.69-1.86-.61-2.43-.63Z"/>
      <path class="cls-1" d="M4.83,49.31c1.03-.19,2.59-1.42,2.23-2.54-2.28-1.23-3.75-2.5-5.07-4.42-.94.57-1.95,1.72-1.99,2.57-.05,1.04.36,2.28,1.03,3.05.98,1.13,2.43,1.6,3.79,1.35Z"/>
      <path class="cls-1" d="M14.45,37.71l-6.51-.86-2.15,2.55c4.04-.08,6.92,1.6,8.66-1.7Z"/>
      <path class="cls-1" d="M11.59,40.72l-6.03-.52c-.76-.07-2.01,1.57-2.06,2.31,2.92.37,7.11,1.19,8.08-1.79Z"/>
      <path class="cls-1" d="M11.45,32.54l-2.8,3.39c2.77.51,4.73.97,7.1.41l-4.3-3.8Z"/>
      <path class="cls-1" d="M32.72,20.25c-.32.36-.61,1.02-.4,1.33.21.3,1.45.44,1.71.09l2.38-3.3c.22-.3-.18-1.44-.52-1.4-.98.1-1.12.96-3.16,3.28Z"/>
      <path class="cls-1" d="M8.93,43.72l-4.34-.17c1.03.89,1.71,1.33,2.82,1.91l1.52-1.74Z"/>
    </g>
  </g>
</svg>