<?xml version="1.0" encoding="UTF-8"?>
<svg id="Warstwa_2" data-name="Warstwa 2" xmlns="http://www.w3.org/2000/svg" viewBox="0 0 44.52 43.08">
  <defs>
    <style>
      .cls-1 {
        fill: #fff;
      }
    </style>
  </defs>
  <g id="icon-set-v2-combat-action-pixarts-store">
    <g id="icon-set-v2-combat-action-pixarts-store_110">
      <path class="cls-1" d="M10.36,25.97l2.48-.42-4.14,9.19,8.48-7.53c1.84,4.02,3.51,7.21,6.97,9.78l3.68-28.98c-1.87.68-3.08,1.4-4.83,2.49L20.81.37l-2.26,9.92-1.97-2.05-.15,2.87L1.84.14l9.45,14.23-8.92-.3,8.84,5.11L0,23.92h11.82s-1.46,2.05-1.46,2.05ZM10.69,21.68l4.68-2.03-4.48-3.12,4.43.17-4.07-6.81,7.74,5.7,1.69-5.04,1.17,5.09,2.55-2.15-1.65,6.07,1.12,3.49-2.55-1.22-1.35,5.33-1.41-3.89-4.08,3.28,1.68-4.53-5.45-.35Z"/>
      <path class="cls-1" d="M23.25,4.71l.57,3.02,4.57-1.95c3.86,3,7.9,4.96,12.78,6.39-1.46,11.84-5.73,21.9-17.18,27.27-3.49-2.93-5.51-5.87-7.62-9.54-.79.49-1.69,1.34-2.21,2.18,2.43,4.38,5.44,7.96,9.58,11.01,14.03-5.74,19.79-19.09,20.76-33.51-6.04-1.22-11.29-3.49-15.7-7.57l-5.57,2.7Z"/>
      <path class="cls-1" d="M6.59,28.33c.19-.37.16-1.27,0-1.9-1.81,1.04-2.77,1.93-3.96,3.49l2.51-.59c.43-.1,1.26-.63,1.45-1Z"/>
      <path class="cls-1" d="M5.48,10.83c-1.15-1.83-2.99-2.01-4.45-1.59,1.29,1.14,2.73,2.51,4.45,1.59Z"/>
      <path class="cls-1" d="M16.97,3.87l-1.79-3.87c-.35,1.44-.39,2.63-.09,3.73.12.46,1.65.63,1.88.13Z"/>
    </g>
  </g>
</svg>