<?xml version="1.0" encoding="UTF-8"?>
<svg id="Warstwa_2" data-name="Warstwa 2" xmlns="http://www.w3.org/2000/svg" viewBox="0 0 50.3 50.9">
  <defs>
    <style>
      .cls-1 {
        fill: #fff;
      }
    </style>
  </defs>
  <g id="icon-set-v2-combat-action-pixarts-store">
    <g id="icon-set-v2-combat-action-pixarts-store_52">
      <path class="cls-1" d="M11.67,26.41l1.24,7.65c3.25-.93,6.13-2.13,8.46-4.51,1.5-1.53,1.28-4.15,1.7-6.09.7,1.82.64,4.26,1.84,5.62,2.33,2.64,5.41,3.81,8.8,5.01l1.23-7.6-3.43-2.88c-.34-.29-1.16,1.13-.99,1.52l.71,1.67c-1.83-.59-3.55-.7-5.24-.42l.39-5.82,1.44,1.06c2.11-1.5,3.87-3.92,3.6-6.83-2.62,1.85-4.62,4.31-7.77,4.58-3.87.33-6.8-4.2-8.47-4.25-.68-.02,3.14,7.69-3.51,11.28Z"/>
      <path class="cls-1" d="M24.5,10.49l.14,7.22c2.38-.99,3.88-1.99,5.46-3.65l.3-5.07c.15-2.48-.31-5.49-1.4-7.58-3.7-2.03-8-1.76-11.46.06-1.52,4.33-1.51,8.46-.74,12.8,1.33,1.4,2.95,2.44,5.14,3.46l.15-7.41-2.52-.92c-.4-.15-1.17-.53-1.26-.9s0-1.24.07-1.55c5.89,1.18,3.71,1.63,9.84-.09,1.41,3.12-2.6,2.31-3.72,3.62Z"/>
      <path class="cls-1" d="M26.13,47.92l1.64,2.98c2.95-.68,5.55-1.39,8.51-2.44l-2.53-6.53c-6.79,2.42-13.67,2.71-20.73-.06l-2.54,6.51c2.88,1.15,5.34,1.78,8.41,2.48l1.6-2.93c.48-.88,2-1.76,2.96-1.71.78.04,2.26.94,2.68,1.7Z"/>
      <path class="cls-1" d="M32.7,35.28c-3.11-1.04-6.95-2.83-9.38-5.49-2.43,2.68-6.34,4.49-9.42,5.51-.45.15-.64,1.1-.45,1.4.19.3.84.84,1.25.99,5.59,1.92,11.53,1.92,17.18.03.43-.14,1.07-.63,1.28-.93.21-.3-.04-1.37-.47-1.51Z"/>
      <path class="cls-1" d="M13.27,15.03c-3.83.77-7.63,1.16-8.98,5.08l-1.93,5.63c3.18.09,6.7.47,9.29-1.09,3.22-1.94,3.02-6.48,1.62-9.62Z"/>
      <path class="cls-1" d="M28,24.57c.22.01.91-.07,1.1-.26l13.22-13.02c1.07-.07,3,.13,3.62-.49l4.36-4.41-2.84-.3.44-1.82-1.64.94-.54-3.18-4.58,4.71-.23,3.47-12.84,13.04c-.24.25-.36,1.31-.07,1.33Z"/>
      <path class="cls-1" d="M44.34,25.61l-1.99-5.61c-.66-1.54-1.95-3.19-3.81-3.42l-5.63,5.57c.9,3.91,8.66,4.09,11.42,3.47Z"/>
      <path class="cls-1" d="M6.68,46.98l1.05-9.58c-2.27-.24-4.77-.26-6.73.97-.1,3.16.11,5.92.59,9.04,1.91.15,3.43-.01,5.09-.43Z"/>
      <path class="cls-1" d="M40.11,47c1.82.52,3.52.82,5.21.12l.5-8.72c-2.45-1.18-4.52-1.34-6.95-1.01l1.23,9.6Z"/>
      <path class="cls-1" d="M2.86,30.99c1.98,1.26,3.71,2,5.92,2.66l1.7-3.83c.29-.65-.12-2.48-.3-2.93l-6.05.46c-.56.93-1.08,2.43-1.26,3.64Z"/>
      <path class="cls-1" d="M43.85,30.61l-1.18-3.17-6.26-.61c-.64,2.51.29,4.71,1.75,6.78,2.13-.67,4.02-1.48,5.69-3Z"/>
      <path class="cls-1" d="M32.14,39.18c-11.44,3.65-18.41-1.33-18.75.68-.05.28.32.87.64.98,5.98,2.13,12.56,2.14,18.51-.03.3-.11.71-.78.7-1.07-.01-.29-.77-.66-1.1-.56Z"/>
      <path class="cls-1" d="M.51,37.1c1.62-1.74,9.6-.82,7.56-2.14-2.18-1.41-3.5-.51-6.66-3.73-1.52,1.48-1.79,4.08-.9,5.87Z"/>
      <path class="cls-1" d="M45.29,31.28c-2.58,2.89-6.34,2.74-6.63,4.1-.26,1.2,4.41-.35,7.48,1.77.9-1.93.62-4.36-.85-5.87Z"/>
    </g>
  </g>
</svg>