<?xml version="1.0" encoding="UTF-8"?>
<svg id="Warstwa_2" data-name="Warstwa 2" xmlns="http://www.w3.org/2000/svg" viewBox="0 0 60.59 53.21">
  <defs>
    <style>
      .cls-1 {
        fill: #fff;
      }
    </style>
  </defs>
  <g id="icon-set-v2-combat-action-pixarts-store">
    <g id="icon-set-v2-combat-action-pixarts-store_19">
      <path class="cls-1" d="M27.15,38.87l2.64,2.42,3.2-2.72,5.2,1v-11.78s-4.86-.11-4.86-.11l-.96-15.92c-.11-1.75-.65-3.48-1.08-5.49l-.68,4.48-1.9-1.06c-.15,1.17-.29,2.72-.36,4.08l-.74,13.99h-4.18s.03,11.44.03,11.44l3.68-.33Z"/>
      <path class="cls-1" d="M8.06,41.66c2.64-2.76,9-1.77,10.79.75l-4.91,1.57.83,2c-5.9.05-5.15.43-9.87,3.75,6.91-2.54,3.91-2.85,12.28-2.2l-.22-2.51,9.04-2.08,1.85,4.41-3.82,2.21.5,3.65,1.01-3.1,4.29-1.78-.41-3.05,3.9-2.44,6.13,2.84-1.78,2.66,6.78,1.35,2.36,2.25c-1.99-4.75-2.24-3.01-6.01-4.51l1.64-2.19-4.93-3.36,10.45.45.76,1.9c3.09.43,6.4.87,9.84.75l-7.54-1.8-.9-1.53-5.9-1.46c1.29-1.01,2.39-1.96,3.88-2.55,1.17-.46,5.88,1.2,6.42.1l.86-1.77,5.24-.85-5.89-.3c-2.76,3.2-4.86.45-8.32.94l-6.14,4.25c-4.24,2.94-5.98-.37-7.25.72l-3.4,2.94-3.2-3.07-4.42.61c-1.93-1.52-3.68-2.5-5.79-3.48,1.02-.47,1.94-.97,1.85-1.55-.49-3.1-1.86-1.35-5.83-5.04-1.41-.49-3.9-.38-5.57-.23,1.14.4,3.1.6,4.09,1.19l4.6,2.77-3.13,1.38,3.71,1.51c-1.6.72-3.09.89-4.61.66-1.96-.29-2.69.79-4.13,1.72-1.82,1.18-4.64-.19-7.17.53,2.39.44,5.6,1.15,8.06.94Z"/>
      <path class="cls-1" d="M22.53,39.37c.15-4.39.17-8.02-.15-12.34l-2.98,1.96.1,8.46,3.03,1.92Z"/>
      <polygon class="cls-1" points="38.82 38.72 41.87 37.03 41.71 28.83 38.83 27.1 38.82 38.72"/>
      <path class="cls-1" d="M4.1,20.65c1.91,2.55,3.89,4.61,6.02,6.63.82-.66,2.59-1.47,3.01-.95l3.62,4.42c-.52-2.39-1.52-4.76-2.6-6.48l-3.16,1.1-6.89-4.71Z"/>
      <path class="cls-1" d="M58.03,22.92l-4.93,2.47c-1.95.98-3.88.76-6.22-.04-1.08,1.46-2.11,3.29-2.67,4.84,1.65-.71,2.32-3.23,4.32-3.1,1.21.08,2.83.66,4.05.88l5.43-5.05Z"/>
      <path class="cls-1" d="M25.89.05c-.5,5.8-.25,11.57-.3,17.62l.8,1.73c-.16-6.8.65-12.67-.5-19.35Z"/>
      <polygon class="cls-1" points="35.29 3.02 34.51 0 34.52 19.07 35.31 15.86 35.29 3.02"/>
      <path class="cls-1" d="M22.78,6.76c-.16,5.59-.38,10.76.22,16.42,1.08-3.4.43-13.33-.22-16.42Z"/>
      <path class="cls-1" d="M37.47,10.5l.02,13.21c1.15-.4,1.06-13.38-.02-13.21Z"/>
      <path class="cls-1" d="M49.88,18.01l-4.75,3.99c.11,5.07,4.39-3.19,4.75-3.99Z"/>
      <path class="cls-1" d="M43.69,34.98c3.15-.63,4.24-2.69,7.64-3.65-2.95-.56-6.01.75-7.64,3.65Z"/>
      <path class="cls-1" d="M16.58,20.71c-1.05-1.38-2.24-2.74-3.64-3.81l2.77,5.83c.45-.18,1.3-1.45.87-2.01Z"/>
      <rect class="cls-1" x="19.28" y="16.49" width=".84" height="8.43"/>
      <path class="cls-1" d="M40.85,16.82l-.03,8.59c1.13-2.02.88-4.18.45-6.43l-.42-2.16Z"/>
    </g>
  </g>
</svg>