<?xml version="1.0" encoding="UTF-8"?>
<svg id="Warstwa_2" data-name="Warstwa 2" xmlns="http://www.w3.org/2000/svg" viewBox="0 0 51.84 51.55">
  <defs>
    <style>
      .cls-1 {
        fill: #fff;
      }
    </style>
  </defs>
  <g id="icon-set-v2-combat-action-pixarts-store">
    <g id="icon-set-v2-combat-action-pixarts-store_05">
      <path class="cls-1" d="M22.79,39.9l3.79,8.58,3.14-8.29,7.29,5.57-.65-9.1,13.55,3.58-7.62-10.63,9.56-4.44-8.89-3.63,7.07-9.75-12.36,2.95.58-12.02-9.81,10.5-4.27-8.86-2.92,8.88-7.02-5.02.7,8.71L.83,13.43l9.1,10.83L0,28.5l9.85,3.66-5.82,7.99,10.34-2.3-1.42,11.24,9.83-9.19ZM34.01,17.04c4.38,0,7.93,3.55,7.93,7.93s-3.55,7.93-7.93,7.93-7.93-3.55-7.93-7.93,3.55-7.93,7.93-7.93ZM13.66,35.76l-2.36-14.6,4.13-.68,1.09,5.55,4.09-6.47,4.69-.67-4.47,7.3,7.21,7.03c-1.64.47-3.5.86-4.87.89l-4.61-4.34c-.28.23-1.2,1.3-1.13,1.8l.5,3.63-4.27.56Z"/>
      <path class="cls-1" d="M48.11,0c-2.32,3.57-4.08,6.21-6.05,9.88l8.69-7.57-2.64-2.31Z"/>
      <path class="cls-1" d="M4.24,51.55c2.22-3.31,3.76-5.54,5.65-9-3.24,2.24-5.43,4.19-8.33,6.7l2.68,2.29Z"/>
      <path class="cls-1" d="M48.78,47.57c-3.16-2.42-5.12-4.06-7.95-5.89l5.63,8.17,2.32-2.28Z"/>
      <path class="cls-1" d="M1.8,6.29l7.88,5.38c-1.78-2.83-3.62-4.97-5.77-7.68l-2.11,2.3Z"/>
      <path class="cls-1" d="M34.32,29c1.89-.24,3.55-1.81,3.39-4.21-.17-2.68-2.18-4.26-4.32-3.89-2.23.39-3.44,2.38-3.01,4.64.4,2.1,1.86,3.72,3.93,3.46Z"/>
    </g>
  </g>
</svg>