<?xml version="1.0" encoding="UTF-8"?>
<svg id="Warstwa_2" data-name="Warstwa 2" xmlns="http://www.w3.org/2000/svg" viewBox="0 0 53.59 42.62">
  <defs>
    <style>
      .cls-1 {
        fill: #fff;
      }
    </style>
  </defs>
  <g id="icon-set-v2-combat-action-pixarts-store">
    <g id="icon-set-v2-combat-action-pixarts-store_172">
      <rect class="cls-1" x="25.75" y="18.86" width="15.16" height="14.05" transform="translate(-6.52 39.75) rotate(-57.01)"/>
      <path class="cls-1" d="M37.85,37.81l2.64-.78-.45.87,1.91.15c-.65.58-.96,1.05-.98,1.99h-19.13c-.09-.79-.3-1.3-.66-1.57l-1.95-1.45,3.47.14c-1.49-1.82-3.2-3.28-5.45-4.54l1.12,2.88-4.98,1.77c1.77,1.17,3.66.75,5.24,2.73l-17.03.05.11,2.56h50.45c.14-.88.18-1.62.18-2.54l-7.44-.07c.07-.52.27-1.24.52-1.47l2.14-2.02-4.81-.15,2.61-3.87c-2.68,1.6-5.12,3.27-7.49,5.31Z"/>
      <path class="cls-1" d="M2.07,8.16l21.27,13.37c-.45.9.95,2.56,1.61,1.84,1.26-1.39,2.21-3.11,2.98-4.58-.38-.9-1.71-1.08-2.47-.51L4.69,4.3c-.51-.34-1.34-1.43-1.9-1.37C.79,3.14-.33,5.24.08,7.02l1.99,1.14Z"/>
      <path class="cls-1" d="M30.85,38.94c1.21.67,2.95-.62,3.58-1.48l-11.95-7.76c-.64.93-1.25,2.92-.27,3.63,2.76,2.02,5.54,3.87,8.64,5.6Z"/>
      <path class="cls-1" d="M44.35,18.4c-2.86-2.06-5.65-3.87-8.59-5.65-1.17-.71-2.83.62-3.45,1.6l11.94,7.78c.63-.96,1.18-2.95.1-3.73Z"/>
      <path class="cls-1" d="M51.25,34.41c.74-.68,1.63-1.65,2.34-2.48l-2.43-2.36c-1.45,1.42-2.55,2.62-3.7,4.12l3.79.72Z"/>
      <path class="cls-1" d="M13.43,31.26c-2.56-1.68-2.32-2.12-5.14-1.07l1.56,2.97,3.79.85-.21-2.75Z"/>
      <path class="cls-1" d="M39.31,12.33l-.73-12.33-.81,11.35c.27.45,1.17,1.05,1.54.98Z"/>
      <path class="cls-1" d="M41.43,32.2l1.16-1.78c.43-.66.03-1.89-.92-2.15l-2.75,4.31c.87.74,1.98.42,2.51-.39Z"/>
      <path class="cls-1" d="M44.13,15.39l-.76-9.1c-.48,2.59-.54,4.76-.79,7.23-.1,1.01.53,1.93,1.55,1.87Z"/>
      <path class="cls-1" d="M34.33,10.08l-.66-6.43c-.56,2.57-.59,4.77-.71,7.3.36.02,1.41-.49,1.37-.88Z"/>
      <path class="cls-1" d="M17.23,27c-.29-.38-1.04-.88-1.42-.75-.33.11-.91.58-1.27.98l2.53,2.03c.86-1.08.73-1.51.16-2.26Z"/>
      <path class="cls-1" d="M49.11,26.45c-.1-.27-.42-.8-.61-1.1-.83.18-1.67,1.37-1.51,2.18.15.74,2.35-.48,2.13-1.08Z"/>
    </g>
  </g>
</svg>