<?xml version="1.0" encoding="UTF-8"?>
<svg id="Warstwa_2" data-name="Warstwa 2" xmlns="http://www.w3.org/2000/svg" viewBox="0 0 54.12 41.53">
  <defs>
    <style>
      .cls-1 {
        fill: #fff;
      }
    </style>
  </defs>
  <g id="game-icon-v4-rogue-pixarts-store">
    <g id="game-icon-v4-rogue-pixarts-store_03">
      <path class="cls-1" d="M4.97,37.41l-.64-3.81c-1.37.97-2.75,2.17-3.09,3.5-.44,1.78,1.29,2.53,2.48,2.94l4.25,1.48,11.42-3.52,1.91-3.34.61,2.97c1.07.48,2.45.28,2.74-1.05.73,1.33,1.47,1.66,2.74,2.03l8.29,2.39,1.08-3.09.86,3.35,5.21.04.71-2.1c.59.85,1.6,1.77,2.47,1.45l4.61-1.71c.99-.37,2.51-2.01,2.41-3.03-.17-1.72-1.78-3.05-3.05-3.5l-.75,4.1c-3.32,1.49-5.07.25-7.76-1.97-.66-1.15-.25-3.34,0-4.7l1.06-5.68c.1-.51-.56-1.61-.89-1.99-1.14.27-1.51,1.23-1.78,2.64l-.74-1.61c-.22-.48-.5-1.5-.94-1.57l-1.46-.23c.32,1.53-.81,1.8-2.09,2.14l1.19.58-1.64,2.55c.32,1.28-1.51,6.17-3.38,5.25-1.4-3.32-.33-3.71-1.37-7.11l-2.71-.12c-1.54-1.83-.93-3.96.42-5.48l-.07-1.44c-.01-.24.78-.43.95-.67.24-.35-.53-.99-1.17-1.42l1.13-1.01.73,1.33c.1.19.9-.17.87-.38l-.16-1.1c-.1-.7.97-1.57,1.57-1.91,2.34-1.3,1.44,1.58,7.29-.22l4.46-1.37-.51-4.6-6.11.47-1.16,2.74-1.39-3.14-10.36-2.83c-1.19-.33-3.59.5-4.66,1.01-.31.3-.73,1.34-.97,1.81l-1.24-1.47-3.57,1.17c-.25,2.07-.33,4.32-.22,6.27,1.76-.26,2.4-.32,3.52.2l-1.48,1.49,1.97,1.2.7-1.6c1.63-.27,2.94,1.11,3.01,2.53-.48-.07-1.17-.31-1.14-.13l.16.92c-1.54.7-3.06,2.32-2.76,4.23-.46-.56-.68-1.4-1.02-1.34l-1.32.24c-.28.05-.14,1.27.06,1.27.96-.04,1.8,1.2,2.2,2.07,3.64-.62,2.82.76,6.62,2.74-.4,4.19-5.13,5.7-5.17,9.27-.55-.24-1.08-1.1-1-1.63l.66-4.79-1.01-1.96c-.45-.88-.3-1.82.17-2.93-.51-.38-1.36-1.02-1.91-1.31l-2.5-1.33,1.39,13.62c.14,1.41-5.66,4.53-8.73,2.13ZM21.61,14.15c-.48-.71-1.08-2.02-1.46-3.14l-2.03-.79c2.13-1.82,5-3.39,8.13-1.22l-1.51,2.95c-1.2.68-1.67,1.01-3.12,2.2Z"/>
      <path class="cls-1" d="M9.48.99l-1.01,2.07L6.89.03C3.9.55,1.52,2.1,0,4.55l1.69,15.19,1.33-.37-1.43,2.74-1.27,13.11c1.05-1.13,2.31-2.45,3.43-3.31.56-.43,2.38-.34,2.66-.94l1.01-2.23,1.16,2.4,3.54,1.88-1.24-12.43c-.6-6.02.06-11.82.7-17.82l-2.09-1.77Z"/>
      <path class="cls-1" d="M45.79,30.33l.76-1.89c.89,2.94,3.7,1.26,5.31,3.06l1.99,2.23-1.06-10.22c-.41-3.98.16-7.95-1.21-9.09l.55.04c.15.01.47-.51.49-.66l1.49-9.63c-.8-1.41-2.03-2.63-3.27-3.68l-1.2,1.77c-.18-.6-.43-1.43-.65-1.86-.57-1.11-5.2.37-5.95,1.5l1.14,7.3c.04.27.93.72.76.84-.17.11-.7.79-.68,1.17.43,6.01-.11,13.95-1.71,20.71,1.1-.29,2.3-.99,3.23-1.58Z"/>
      <path class="cls-1" d="M10.16,36.38l1.88-1.07c-1.54-2.11-3.72-3.12-5.97-2.23-.18.77-.31,2.48.11,3.08.83,1.17,2.88.85,3.98.22Z"/>
      <path class="cls-1" d="M43.24,33.98c.94,1.22,3.04,1.96,5.1,1.53l.27-3.51-2.6-.1c-.69,1.03-3.16,1.57-2.77,2.08Z"/>
      <path class="cls-1" d="M30.92,18.19s-.44.29-.58.38c-.19-.27-1.03-.96-1.27-.69l-1.04,1.15c1.36-.1,1.69-.01,2.45.89l3.03.24c.18-1.62-2.72-.69-2.59-1.98Z"/>
    </g>
  </g>
</svg>