<?xml version="1.0" encoding="UTF-8"?>
<svg id="Warstwa_2" data-name="Warstwa 2" xmlns="http://www.w3.org/2000/svg" viewBox="0 0 47.78 48.1">
  <defs>
    <style>
      .cls-1 {
        fill: #fff;
      }
    </style>
  </defs>
  <g id="game-icon-v4-rogue-pixarts-store">
    <g id="game-icon-v4-rogue-pixarts-store_29">
      <path class="cls-1" d="M39.34,47.72c2.73,1.11,5.21-.4,6.43-2.75,1.41-2.73,1.41-5.83-.86-7.76l-8.71-7.41-1.15-2.45c-4.06-2.16-2.29-2.7-4.9-5.57l-1.08,1.8,4.21,5.46c-2.46-1.56-3.98-3.22-6.13-5.19l-3.08,3.57c2.82,2.45,5.27,4.77,7.75,7.53.14,1.85,2.89,4.54,3.51,6.42-2.6-1.44-3.36-4.02-5.08-5.98-2.1-2.39-4.29-4.68-6.56-6.95-1.24-.03-2.14,2.21-1.34,3.11,3.61.64,5.12,1.92,7.34,5.68l-2.32-.3,7.93,9.14,4.04,1.64Z"/>
      <path class="cls-1" d="M3.69,17.84c2.36,2.31,4.96,4.58,8.33,4.93,5.03-4.72,6.24-2.02,7.95-4.38.25-.35.64-1.09.44-1.36l-.76-1.02c.87-2.66,1.43-5.63,1.05-8.59l-3.81-3.81c-.38-.38-1.92-.82-2.36-.41l-4.09,3.77c-.2.18-.42.84-.33,1.07.68,1.67,4.01.69,5.57-1.44l-.1,1.84,1.02.2c-3.75,1.57-3.37,5.01-3.21,8.54l-1.86-4.51c-1.11,1.04-2.24,1.9-3.19,2.69-.89.74-.94,2.33-2.77,1.94-1.34-.28-2.78-.91-3.49-2.25l3.06,1.09c.39.14,1.22-.18,1.5-.35,1.75-1.08-3.14-3.85-4.35-4.65-.49-.32-1.64-.12-1.96.29-1.41,1.83,1.86,4.95,3.35,6.4Z"/>
      <path class="cls-1" d="M28.04,15.45l-5.89,5.82c-2.08,2.06-3.98-1.23-5.87.26l-3.05,2.41,4.58,5.36c.78.91,1.55,1.95,2.48,2.48l.18-2.89c1.84-1.83,3.06-3.27,4.61-5.16C32.02,15.29,39.63,7.66,47.36,0c-8.19,3.7-24.31,12.95-27.37,21.26,4.41-2.29,7.04-6.02,10.83-8.9-.77,1.26-1.8,2.11-2.78,3.08ZM19.67,26.37l-.92-.6.13.76c.03.15.02.3-.1.35-.21.08-.93.01-1.09-.14-.42-.38-.94-1.52-.68-1.99.33-.61,1.3-1.51,1.96-1.55,1.18-.07,2.08.43,2.29,1.33.16.69-.98,2.23-1.57,1.84Z"/>
      <path class="cls-1" d="M2.41,38.18c1,2.76,2.82,5.03,5.07,6.43,2.28-6.54,4.65-10.79,9.95-14.65l-3.72-4.17c-4.92,3.16-8.31,7.48-11.31,12.39ZM6.26,40.51c-.75,0-1.36-.61-1.36-1.36s.61-1.36,1.36-1.36,1.36.61,1.36,1.36-.61,1.36-1.36,1.36ZM9.23,31.78c3.74-1.68,3.57-5.25,5.76-3.66l-3.7,4.17c-1.29,1.45-2.36,2.89-4.09,4.14.24-1.75.97-3.73,2.03-4.64Z"/>
      <path class="cls-1" d="M42.21,17l-1.06,13.02-4.25-8.58,1.43,7.57c2.41,2.39,4.65,4.37,7.46,6.61l1.98-13.16-3.74,9.25-1.82-14.71Z"/>
      <polygon class="cls-1" points="32.89 46.07 28.25 40.96 14.64 42.82 29.77 44.14 20.05 47.29 32.89 46.07"/>
      <path class="cls-1" d="M2.36,6.74c-.55.33-1.1,2.06-.56,2.52,1.4,1.2,5.93,5.27,7.17,3.93.25-.27.57-1.4.25-1.71l-4.34-4.3c-.71-.71-1.88-.82-2.52-.44Z"/>
      <path class="cls-1" d="M4.74,3.32c-.3.31-.62,1.38-.27,1.75l4.89,5.17c.3.32,1.28.68,1.59.53.26-.12.81-.64.71-.6-1.25-.42-2.16-.82-2.42-1.4-.35-.8.27-1.93.69-2.78-.7-1.39-3.43-4.55-5.2-2.68Z"/>
      <path class="cls-1" d="M13.35,2.86c-.42-1.54-1.58-2.61-3.14-2.76-.46-.05-1.28.34-1.52.69-.2.29-.32,1.36-.09,1.65l2.27,2.89,2.48-2.47Z"/>
      <path class="cls-1" d="M20.67,32.85c1.48,2.02,3.38,4.2,5.73,5.27-.7-3.12-3.19-4.18-5.73-5.27Z"/>
    </g>
  </g>
</svg>