<?xml version="1.0" encoding="UTF-8"?>
<svg id="Warstwa_2" data-name="Warstwa 2" xmlns="http://www.w3.org/2000/svg" viewBox="0 0 42.54 46.33">
  <defs>
    <style>
      .cls-1 {
        fill: #fff;
      }
    </style>
  </defs>
  <g id="game-icon-v4-rogue-pixarts-store">
    <g id="game-icon-v4-rogue-pixarts-store_95">
      <path class="cls-1" d="M5.34,44.03c4.83,3.38,11.09,2.93,15.48-.68,4.14-3.41,5.78-9.35,3.73-14.53-1.86-4.69-5.98-7.63-11.02-8-.54-1.59-1.07-3.23-1.22-4.6.27-.55.59-1.23.65-1.64.05-.35-.86-1.09-1.21-.99l-9.19,2.62c-.42.12-.71,1.31-.48,1.67,1.1,1.72,2.13-.56,2.83,5.68C1.6,26.23-.07,29.94,0,33.96c.07,3.87,1.83,7.61,5.34,10.06ZM6.79,24.17l-1.18-5.1c2.13.71,4.43.32,5.23-1.56l1.63,4.9c3.73-.08,6.87,1.49,8.87,4.02,2.3,2.92,3.12,6.43,2.09,10.12-1.38,4.93-5.72,8.05-10.3,8.24-5.04.2-9.61-3.1-10.99-7.52-1.58-5.03.22-10.23,4.66-13.1Z"/>
      <path class="cls-1" d="M31.05,21.28c-1.9-.7-5.25-.63-6.19,1.48-.17,2.76,2.74,5.14,4.77,5.8,2.91.95,5.63.29,7.8-1.65,2.94-2.62,3.78-7.39,1.12-10.42-1.39-1.58-3.85-.68-5.04.62-1.01,1.1-1.88,1.91-2.95,2.83,1.71.79,3.91,1.04,5.32.4.43-.2.95-1.61.54-1.68l-1.65-.31c.18-.51,1.41-1,2.13-.49.65.46.78,1.89.45,2.55-1,2.03-4.26,1.62-6.3.87Z"/>
      <path class="cls-1" d="M21.22,8.88l1.26.56c.85,1.37,1.52,2.91,2.06,4.47-2.49,2.54-4.25,8.6-.8,10.34-1.18-3.96-.41-7.53,2.47-10.18l-2.26-4.93c1.92-.34,3.21-.86,4.44-1.89l2.33,4.66c3.3-.37,5.8.54,7.72,2.38,2.05,1.97,2.93,4.61,2.67,7.53-.43,4.8-4.61,8.46-9.46,8.32-2.18-.06-3.93-1.15-5.71-2.43-.02,1.15.7,2.26,1.88,2.8,4.87,2.2,10.46.37,13.2-4.24,2.03-3.42,2.01-7.58-.09-10.96-1.99-3.2-5.46-5.12-9.58-4.82l-2.03-4.44c.26-.62.45-1.53.2-1.87-.25-.35-1.23-.37-1.71-.14l-6.71,3.24c-.33.19-.23,1.44.11,1.59Z"/>
      <path class="cls-1" d="M29.96,45.33c1.6.31,3.49-.44,3.82-2.21-.62.51-1.32,1.04-1.89,1.26-.5.19-1.61-.19-2.03-.68-.28-.32-.46-1.16-.32-1.49.54-1.25,5.39.26,6.41-4.06.43-1.83-.89-3.57-2.47-4.09-1.65-.54-3.64-.14-4.36,1.66,1.04-.41,2.16-.71,2.96-.31.98.49,1.3,1.64.94,2.57-1.04,2.67-5.16,0-5.91,3.37-.43,1.96.96,3.62,2.84,3.98Z"/>
      <path class="cls-1" d="M9.95,13.05c-.14-1.72-.3-2.85-.64-4.33-2.93.28-4.98.86-7.34,2.33l1.87,3.78,6.11-1.78Z"/>
      <path class="cls-1" d="M16.32,6.05c.69,2.09-2.13,3.36-1.35,5.14.85,1.94,3.2,1.58,3.35,2.55.07.48.12,1.21.18,2.02.6-.58,1.22-1.68,1.21-2.8-.02-2-2.76-1.57-2.65-2.77.13-1.42,2.11-2.47.88-4.4-.74-1.16-2.18-1.83-3.55-1.56.77.45,1.7,1.14,1.92,1.81Z"/>
      <path class="cls-1" d="M27.01,3.51l-1.06-3.51c-2.48.7-3.96,1.45-5.81,2.92.69,1.08,1.26,1.88,2,2.81l4.87-2.22Z"/>
      <path class="cls-1" d="M12.83,7.48l.44,1.53c.58-.6,1.09-1.56,1-2.3-.2-1.66-3.4-1.59-4.21-2.72-.82-1.16.58-2.27,1.42-3.01-1.92-.07-3.64,1.65-3.33,3.54.43,2.63,4.38,1.95,4.68,2.97Z"/>
      <path class="cls-1" d="M39.57,37.05c.21-1.65-1.04-3.15-2.83-2.89,1.86,1.65,1.46,3.85.08,5.76,1.46-.2,2.56-1.35,2.76-2.88Z"/>
      <path class="cls-1" d="M27.29,38.52l3.35-.73c-1.24-1.25-2.79-.51-3.35.73Z"/>
      <path class="cls-1" d="M14.85,43.24c5.67-1.3,9.01-7.01,7.24-12.68-.72-2.31-3.55-3.37-5.65-2.16-1.28.74-2.1,2.12-2.76,3.36h-1.54c1.19,1.69,5.97,3.73,6.5,1.22.08-.36-.28-1.14-.64-1.24-1.39-.41-2.06,1.15-3.58.36.95-1.48,2.94-2.64,4.68-1.6,1.27.76,1.26,2.38.71,3.38-.47.84-1.56,1.63-2.73,1.74-1.96.18-3.81-.87-5.21-2.22-2.12-2.05-5.06-2.8-7.7-1.33-1.14.63-1.5,1.8-1.29,3.1.91,5.71,6.59,9.31,11.97,8.07ZM11.39,37.91c.34-.46,1.29-.78,1.79-.74.71.05,1.48.99,1.08,1.79-.26.52-1.49.11-2.28,0-.56.34.24,1.24.96,1.66-.3.29-1.29-.03-1.6-.43-.5-.63-.47-1.57.05-2.29ZM7.75,33.91c1.03,0,1.86.83,1.86,1.86s-.83,1.86-1.86,1.86-1.86-.83-1.86-1.86.83-1.86,1.86-1.86Z"/>
      <circle class="cls-1" cx="8.19" cy="28.24" r="1.53"/>
      <path class="cls-1" d="M9.44,23.79c.51,0,.93-.42.93-.93s-.42-.93-.93-.93-.93.42-.93.93.42.93.93.93Z"/>
      <path class="cls-1" d="M13.5,27.67c.51,0,.91-.41.91-.91s-.41-.91-.91-.91-.91.41-.91.91.41.91.91.91Z"/>
    </g>
  </g>
</svg>