<?xml version="1.0" encoding="UTF-8"?>
<svg id="Warstwa_2" data-name="Warstwa 2" xmlns="http://www.w3.org/2000/svg" viewBox="0 0 49.46 49.59">
  <defs>
    <style>
      .cls-1 {
        fill: #fff;
      }
    </style>
  </defs>
  <g id="game-icon-v4-rogue-pixarts-store">
    <g id="game-icon-v4-rogue-pixarts-store_94">
      <path class="cls-1" d="M23.05,15.73L1.44,37.52c-4.04,3.87,1.37,8.53,4.72,11.1,2.18,1.67,4.48.98,6.11-.67l21.45-21.6-10.67-10.63Z"/>
      <path class="cls-1" d="M34.83,27.75c-.53.47-2.46,1.89-2.45,2.81l.12,7.71c.04,2.48-1.16,4.76-2.68,6.03-6.03,5.02-11.34-2.75-14.66,3.18,6.56.12,10.44,3.35,16-1.16,2.77-2.25,4.24-5.73,4.07-9.7l-.38-8.86Z"/>
      <rect class="cls-1" x="28.8" y="10.82" width="4.12" height="15.35" transform="translate(-4.04 27.24) rotate(-45)"/>
      <path class="cls-1" d="M34.46,15.74c4.14-4.25,3.31-4.49,7.95-5.19l4.45-4.82-3.43-.46-.36-3.62-4.9,5.22-.18,2.94-4.7,4.84c-.28.29-.43,1.18-.11,1.38.26.17,1.03-.03,1.29-.29Z"/>
      <path class="cls-1" d="M45.48,8.87c-1.58,1.96-2.65,3.17-4.86,3.35-.14.76-.04,2.8-.59,3.42l-3.26,3.68,1.04,1.03,3.66-3.62,3.28-.44,4.71-4.86-3.34-.52-.64-2.03Z"/>
      <path class="cls-1" d="M39.28,3.95l-1.64-.69-.38-3.26-4.24,4.46c-.64.68-.39,2.79-.62,3.62l-2.77,3.19c-.19.21-.16,1.19.12,1.19,2.42.04,1.45-3.25,6.94-3.53.03-2.16.6-3.53,2.59-4.97Z"/>
    </g>
  </g>
</svg>