<?xml version="1.0" encoding="UTF-8"?>
<svg id="Warstwa_2" data-name="Warstwa 2" xmlns="http://www.w3.org/2000/svg" viewBox="0 0 40.4 43.51">
  <defs>
    <style>
      .cls-1 {
        fill: #fff;
      }
    </style>
  </defs>
  <g id="game-icon-v4-rogue-pixarts-store">
    <g id="game-icon-v4-rogue-pixarts-store_99">
      <path class="cls-1" d="M2.45,19.25c5.66,5.18,4.39,8.27,8.99,14.96,1.55,2.25,4.09,3.81,6.81,3.47,1.11-.14,2.3-.67,2.11-2.09-.96.43-2.18,1.01-3.23.62-2.4-.89-4.06-2.79-4.95-5.29-1.14-3.21-2.01-6.31-2.93-9.49-.88-3.02-2.42-5.38-4.66-7.81,6.51,1.69,7.14-1.05,13.64-1.3,6.4.11,9.7-3.18,16.01-5.76,1.35-.55,2.76-.15,3.94.5.5-1.67.17-4.67-1.78-5.43-4.83-1.88-7.71.44-11.38-1.21-1.74-.78-3.89-.46-5.34.75-4.49,3.74-9.63,1.79-13.38,4.52-1.7,1.24-3.35,2.58-4.77,4.09-2.54,2.7-1.67,7.08.93,9.46ZM28.43,3.99l-2.08.63c-.41,1.1-.99,2.28-2.43,2.35.13-1.56.51-3.01-.78-4.09-.76,1.32-.07,2.73.36,4.15-1.34.32-2.51-.49-3.21-1.69l-3.76.77c7.57-4.73,3.62-4.81,11.91-2.13Z"/>
      <path class="cls-1" d="M29.84,29.56l-3.52,1.92c-2.83,1.55-6.1.71-8.32-1.59-.56,1.12.02,2.11.89,2.7,2.47,1.67,5.28,1.87,8.11.88,2.05-.72,4.48-.27,5.55,1.77,1.48,2.83-3.22,5.22-1.08,7.73.65.77,2,.66,2.76.04,1.77-1.45.04-2.93.02-5.72-.03-3.34-2.49-5.46-6.03-5.29,2.33-2.28,6.38-3.72,8.7-1.29,1.69,1.77.11,5.09,2.37,4.95.68-.04,1.22-.98,1.08-1.76-.41-2.32-2.24-4.05-4.02-4.85-2.24-1.01-4.48-.61-6.51.51Z"/>
      <path class="cls-1" d="M15.69,30.9c-.65-1.46-1.12-2.92-1.35-4.43l-.59-3.36c1.63,1.91,1.23,5.12,2.82,7.04.96-.31.72-1.13.46-1.78-1.91-4.7-.59-8.86-4.33-10.14-1.53,6.81-1.5,7.38,1.28,13.78.62-.03,1.58-.63,1.7-1.1Z"/>
      <path class="cls-1" d="M18.26,13.71c-2.04.14-3.9,1.34-4.69,3.13,1.74,1.23,2.81,2.82,3.04,4.82l.57,4.94c.08.73.75,1.71,1.21,2.05-.66-9.26-1.82-7.29,3.27-15.17l-3.39.23Z"/>
      <path class="cls-1" d="M36.95,7.91c-1.26-1.8-6.92,1.89-8.91,2.88l-4.33,2.14c1.21.15,2.41-.15,3.37-.37.33.28,1.11.99,1.48.87l2.91-1.35.57-2.38c.37.4.63.78.88.66l1.1-.54c-.19.55-.06,1.6.44,1.69l2.5-1.53c.43-.26.29-1.65,0-2.07Z"/>
      <path class="cls-1" d="M10.72,22.19c.58-3.16,1.17-5.65,3.04-7.95-2.2.66-4.04,1.02-6.21,1.05,1.55,2.09,2.38,4.53,3.18,6.9Z"/>
      <path class="cls-1" d="M31.29,12.92c-1,.37-1.85.97-2.37,1.64.47,2.73.07,5.19-.52,8.01,2.11-2.77,3.77-6.06,2.89-9.65Z"/>
      <path class="cls-1" d="M37.03,11.01c-.74-.02-2.07.85-2.02,1.6.14,2.2.07,3.98-.15,6.33,1.72-2.26,2.59-4.94,2.17-7.93Z"/>
      <path class="cls-1" d="M26.37,25.83c-.29.62-.4,1.96.22,2.6.41.42,1.61.18,1.79-.21.16-.34.3-1.21.2-1.59l-.92-3.64-1.3,2.84Z"/>
      <path class="cls-1" d="M33.53,21.92c-.57.91-.95,2.16-.24,3.31.25.41,1.43.42,1.67.08.24-.34.48-1.3.36-1.7l-1.2-3.93-.59,2.24Z"/>
      <path class="cls-1" d="M20,34.56l-2.38-1.43c-.32.57-.7,1.33-.88,1.78,1.25.61,2.33.59,3.26-.35Z"/>
      <path class="cls-1" d="M15.87,34.23c.79-.96,1.29-1.85.94-2.94l-2.33,1.76c.4.47.99.99,1.38,1.18Z"/>
    </g>
  </g>
</svg>