<?xml version="1.0" encoding="UTF-8"?>
<svg id="Warstwa_2" data-name="Warstwa 2" xmlns="http://www.w3.org/2000/svg" viewBox="0 0 42.18 43.28">
  <defs>
    <style>
      .cls-1 {
        fill: #fff;
      }
    </style>
  </defs>
  <g id="game-icon-v4-rogue-pixarts-store">
    <g id="game-icon-v4-rogue-pixarts-store_115">
      <path class="cls-1" d="M36.03,12.34c1.03-1.08,2.44-.76,3.91-.35,1.6-3.93.07-8.21-3.38-10.49-4.05-2.68-9.32-1.72-12.02,2.53-1.82-1.74-4.12-1.92-6.16-.55-1.41.95-2.86,3.06-1.91,4.74,1.29.37,3.15,1.18,4.24,1.97,1.79-.63,3.66-1.29,5.62-.39,1.38.63,2.86,2.02,3.16,4.1-1.18-1.56-2.8-2.83-4.64-2.86-2.08-.04-4.09.85-5.07,2.6-1.1,1.97-.55,3.84.89,5.51-2.15-.64-3.89-.9-5.81.17-1.24.69-2.17,2.25-2.75,3.86-.54-1.78.32-3.31,1.46-4.41,1.22-1.18,2.75-1.57,4.67-1.54-.79-2.14.15-4.24,1.23-5.91-2-1.54-4.93-1.36-6.92-.07-2.21,1.43-2.68,3.81-1.65,6.24-3.26-1.61-6.49-.03-7.94,2.82-1.5,2.94.02,5.86,2.51,7.85,1.25,1,.03,3.18-1.08,3.83-2.71,1.58-4.82,3.1-4.33,6.06,3.08-5.51,5.57-1.39,8.83-4.77.12,3.56-8.06,1.36-8.59,9.25,1.47-3.22,7.25-5.35,10.4-3.74,2.64,1.36,7.32.4,7.37-3.08.02-1.44-2.1-3.27-.5-4.85.31,1.69,1.36,3.07,2.39,3.66,1.64.93,3.2.69,4.95.27-.96,1.86-3.23,1.75-4.87,1.32l-1.39,2.93c1.89,2.91,5.54,4.83,9.18,4.08,3.93-.81,6.49-4.64,6.17-8.52-.18-2.21-1.3-3.55-2.77-5.24l2.96,1.17c2.14.84,4.2-.66,5.37-2.22,1.33-1.77.94-3.97.06-5.87,1.28-1.04,2.46-2.57,2.54-4.06.2-3.48-2.67-5.89-6.14-6.03Z"/>
      <path class="cls-1" d="M8.02,14.94c.09-.66.64-1.78.97-2.49,1.07-2.32,2.27-3.6,4.93-4.2-2.67-1.18-7.21-.64-8.25,2.43-.54,1.59.22,3.52,1.27,4.84.18.22,1.04-.28,1.08-.58Z"/>
      <path class="cls-1" d="M39.58,33.55c0-.96-.78-1.74-1.74-1.74s-1.74.78-1.74,1.74.78,1.74,1.74,1.74,1.74-.78,1.74-1.74Z"/>
      <circle class="cls-1" cx="13.26" cy="5.07" r="1.29"/>
    </g>
  </g>
</svg>