<?xml version="1.0" encoding="UTF-8"?>
<svg id="Warstwa_2" data-name="Warstwa 2" xmlns="http://www.w3.org/2000/svg" viewBox="0 0 42.95 42.63">
  <defs>
    <style>
      .cls-1 {
        fill: #fff;
      }
    </style>
  </defs>
  <g id="game-icon-v4-rogue-pixarts-store">
    <g id="game-icon-v4-rogue-pixarts-store_60">
      <path class="cls-1" d="M30.08,15.57c4.09,5.52-5.98,6.05-2.91,13.07,1.48-.28,3.73-.19,5.02-.87,2.78-1.46,5.13-2.98,7.8-4.6.5-.31,1.07-1.64.74-2.07-2.3-2.99-8.48,2.33-8.77.44-.29-1.88,3.54-5.75,5.03-7.08,1.92-1.71,7.19-5.63,5.68-7.33-2.16-2.44-8.95,5.14-11.19,5.62,2.21-3.2,4.96-5.4,7.92-7.83.78-.64,1.19-1.95.69-2.81-1.93-3.25-10,6.35-12.3,7.62.78-3.42,8.22-7.33,7.41-8.93-1.75-3.46-9.97,5.3-11.6,7.48.6-2.72,2.88-4.56,4.85-6.43-.86-2.41-5.3.92-6.45,2.56l-3.17,4.55c4.64.64,8.54,2.96,11.24,6.6Z"/>
      <path class="cls-1" d="M13.33,17.99c4.69,2.48,8.54,6.55,10.86,11.34l1.25-.28c1.07-.24-2.11-4.25,3.05-8.69,1.3-1.12,1.79-2.49.69-4-2.64-3.63-6.7-5.98-11.33-5.96-.67.46-1.44,1.54-1.81,2.26l-2.72,5.33Z"/>
      <path class="cls-1" d="M12.35,38.87c1.22.6.63-2.71,1.32-3.19.3-.2.91.23,1.92.68l.4-3.38,1.51-.27c.3-.05.59-1.23.38-1.55-2.08-3.22-6.08-6.77-9.75-8.42l-5.57,3.79c1.06,5.46,4.74,9.85,9.79,12.34Z"/>
      <path class="cls-1" d="M13.03,19.21c-.81-.46-2.04-.71-2.81-.32-.89.45-1.38,1.48-1.34,2.64,5.19,3.03,9.25,6.87,12.09,12.27l2.7-2.73c-2.24-5.45-5.84-9.14-10.64-11.86ZM12.61,22.69c-.78-.05-1.63-.47-1.94-1.09-.23-.48.29-1.7.84-1.79,1.08-.17,2.13.6,2.42,1.45l-1.83-.16.5,1.59Z"/>
      <path class="cls-1" d="M5.31,34.92c-1.95-2.32-3.14-4.8-3.9-7.76-.61.18-1.49.94-1.4,1.39.82,4.12,2.98,7.29,6.14,9.86,1.28,1.05,9.13,6.72,9.04,2.94-4.11-1.48-7.17-3.5-9.87-6.43Z"/>
      <path class="cls-1" d="M18.25,33.03c-.12.49-.19,1.51-.49,1.57l-1.31.25.58,2.48c-1.52-.2-2.77.64-2.89,1.92-.06.66,1.7,1.22,2.04.69l3.48-5.46-.6-1.51c-.09-.22-.69-.08-.81.07Z"/>
    </g>
  </g>
</svg>