<?xml version="1.0" encoding="UTF-8"?>
<svg id="Warstwa_2" data-name="Warstwa 2" xmlns="http://www.w3.org/2000/svg" viewBox="0 0 53.52 53.39">
  <defs>
    <style>
      .cls-1 {
        fill: #fff;
      }
    </style>
  </defs>
  <g id="game-icon-v4-rogue-pixarts-store">
    <g id="game-icon-v4-rogue-pixarts-store_93">
      <path class="cls-1" d="M7.64,47.44c2.45-6.85,9.31-3.4,14.07-7.74,0,2.07-1.29,3.48-2.85,4.49l-2.93,1.9c3.36,1.04,7.34.3,9.42-2.85,1.3-1.97,1.58-4.58,2.21-7.11.34-1.37,1.87-3,3.03-1.76,2.01,2.16-4.39,6.26-1.89,10.31.25-2.31,1.72-4.26,3.81-5.54,7.72-4.73,3.73-11,4.85-17.9-1.52,1.51-2.62,3.81-2.88,6.37l-.51,4.91c-.95-2.67-1.26-4.69-1.42-7.37l-5.07,5.47c-.22.23-.65.77-.86.67l-.7-.33-7.51,4.46,5.54-9.27c1.05-1.77,3.24-3.22,4.54-4.87-2.28-.06-4.22-.21-6.05-1.21,4.18-.35,7.33-1.13,10.32-3.64-2.36.18-4.76.22-7.34.07-5-.3-9.19,2.27-11.69,6.48-.93,1.56-2.61,2.31-4.65,2.84,5.2,3.16,7.34-3.93,9.95-1.82,1.1.9-.09,2.98-1.28,3.35-5.8,1.81-11.32,1.52-11.71,9.52,1.48-1.8,2.79-3.16,5-3.46.88-.12,2.26.66,2.17,1.4-.34,2.87-9.03,1.84-9.61,11.22-.18,2.9-1.24,5.3-3.61,7.39,3.86.02,6.46-2.64,7.64-5.96Z"/>
      <path class="cls-1" d="M28.36,23.59c-1.93,2.01-3.35,4.19-4.77,6.8,3.26-2.11,5.94-4.26,8.68-6.99l13.5-13.44,2.44,4.34L53.52,0l-14.29,5.51,4.4,2.2-15.27,15.88Z"/>
      <path class="cls-1" d="M3.93,35.16c-2.59.93-3.83,3.54-3.57,6.01,2.83-1.26,3.01-3.75,3.57-6.01Z"/>
    </g>
  </g>
</svg>