<?xml version="1.0" encoding="UTF-8"?>
<svg id="Warstwa_2" data-name="Warstwa 2" xmlns="http://www.w3.org/2000/svg" viewBox="0 0 59.69 35.14">
  <defs>
    <style>
      .cls-1 {
        fill: #fff;
      }
    </style>
  </defs>
  <g id="game-icon-v4-rogue-pixarts-store">
    <g id="game-icon-v4-rogue-pixarts-store_74">
      <path class="cls-1" d="M56.2,11.17c-1.26-5.01-5.41-7.45-9.63-5.15C45.4,2.45,42.96-.05,40.07,0c-2.9.05-5.44,2.03-6.63,5.73-2.58-2.62-5.83-3.13-8.71-1.06-2.57,1.84-3.79,5.25-3.62,9.35-2.85-1.56-5.42-.92-7.21,1.23-1.73,2.08-1.86,5.22-1.03,7.97-1.75.17-3.38.85-4.23,2.4-.86,1.56-.55,3.49.34,5.53l-8.99,3.67,20.04.25c1.18.01,2.57-.99,3.33-1.72,1.82,2.58,6.34,2.07,7.64.13.6-.9.84-2.48,1.14-4.03,1.04.68,1.21,2.73,1,4.33,3.26-1.75,4.37,2.53,8.3.18,1.56-.93,2.91-2.8,3.17-5.1.33-2.91-.94-4.59-2.97-5.72,1.62-4.97-1.12-9.3-4.67-9.9-3.65-.63-6.85,2.58-6.89,7.72-1.35-2.65-3.6-3.38-5.63-2.31-2.13,1.12-2.79,4.06-2.22,7.05-1.25-.74-2.9-1.51-4.09-1.08-.9.32-1.62,1.95-2.44,3.27-.53-1.67-.19-3.65.83-4.54.86-.75,2.37-.99,3.67-1.11.07-2.74,1.14-5.02,3.06-6.29,1.67-1.11,3.65-.93,5.68-.12,1.84-5.11,6.13-7.22,10.12-5.58,3.92,1.61,5.85,6.48,4.87,11.53,2.01,1.5,3.61,3.58,3.58,6.33-.03,2.73-1.15,4.62-3.02,6.88l3.23.13c2.95.12,5.48-1.7,6.59-4.66,1.16-3.11.79-6.52-1.28-9.19,2.94-2.26,4.16-6.07,3.14-10.11Z"/>
      <path class="cls-1" d="M17.1,9.62c.92,0,1.66-.91,1.66-2.02s-.74-2.02-1.66-2.02-1.66.91-1.66,2.02.74,2.02,1.66,2.02Z"/>
      <path class="cls-1" d="M58.13,20.36c-.86,0-1.56.85-1.56,1.9s.7,1.9,1.56,1.9,1.56-.85,1.56-1.9-.7-1.9-1.56-1.9Z"/>
    </g>
  </g>
</svg>