<?xml version="1.0" encoding="UTF-8"?>
<svg id="Warstwa_2" data-name="Warstwa 2" xmlns="http://www.w3.org/2000/svg" viewBox="0 0 35.57 52.42">
  <defs>
    <style>
      .cls-1 {
        fill: #fff;
      }
    </style>
  </defs>
  <g id="game-icon-v4-rogue-pixarts-store">
    <g id="game-icon-v4-rogue-pixarts-store_02">
      <path class="cls-1" d="M4.41,46.3c.71.98,1.52,1.79,2.46,2.51,3.32,2.52,6.62,3.31,10.8,3.58,8.22.53,14.64-6.04,12.81-6.09,2.6.07,5.38-7.19,5.05-11.64-.48-6.56-4.05-11.94-9.85-14.72-1.65-.79-1.89-2.39-1.82-4.35-.38.08-1.17.3-1.54.44-.24,1.3.09,2.87.56,4.19-.47.68-1.77,1.28-2.77.83l1.89-1.18-.76-3.61c-2.5.29-4.82.2-6.99-.07l-.59,1.93-.5-2.21c-.09-.38-1.06-.41-1.34-.35-.08,1.34.13,3.47-1.34,4.09C1.58,23.43-2.51,33.65,1.6,42.53c.7,1.51,1.96,2.59,2.81,3.76ZM26.12,24.64c.67,0,1.2.54,1.2,1.21,0,.67-.54,1.2-1.21,1.2-.67,0-1.2-.54-1.2-1.21,0-.67.54-1.2,1.21-1.2ZM7.27,24.14c-1.01,1.7-1.99,3.15-3.45,4.79.31-1.94,1.7-3.64,3.45-4.79ZM2.5,30.89c.74-.5,1.69-.85,2.63-1-1.78,3.46-1.83,7.21-.07,10.35-.31-2.77-.25-5.07.22-7.45l1.28-.26c-.36-.41-.86-1.11-.84-1.56.07-1.94,4.13-2.2,5.78-2.07.6-2.36,2.33-3.97,4.64-4.51,3.67-.86,7.05,1.22,8.12,4.78,3.32.21,8.53-.11,9.2,3.42.89,4.67-.52,9.07-3.54,12.82-1.65,2.05-4.58,3.52-6.91,4.52-.22.1-.64.52-.79.61-.16.09-.47-.19-.75-.37-5.29,1.1-10.76,0-14.84-3.89-4.3-4.09-5.86-9.87-4.13-15.39Z"/>
      <path class="cls-1" d="M18.48,3c-2.25.22-4.16-.02-6.56-.57l1.44,6.7c2.91,1.02,6.04.92,9.04.12l1.55-6.86c-.62.07-1.3.05-1.45.36l-.78,1.61c-.28.2-1.28-1.9-1.23-1.93,1.72-1.04,1.33.04,3.57-1.09-1.14-.87-2.27-1.07-3.33-.93l-1.74,1.26c-.12-.6.21-.86.78-1.56-.71-.3-8.46-.09-7.88,1.51l6.58,1.37Z"/>
      <path class="cls-1" d="M12.1,14.22c3.82,1.05,7.82.99,11.67.04,1.7-.42,2.1-1.49,2-3.26-.03-.64-.06-1.78-.51-2.28-.32-.36-1.09-.57-1.91-.7l.7,1.64c-3.97,1.75-8.62,1.68-12.43-.04l.73-1.52c-.76-.08-1.69.18-1.97.65-.1.18-1.61,4.55,1.72,5.47ZM23.63,11.5c-3.83,1.55-8.11,1.53-11.78-.11,4.15.66,7.75.74,11.78.11Z"/>
      <path class="cls-1" d="M12.98,34.77c.43.29,1.24.47,2.05.64l.39,1.98.6-.27c.11-.05.52.33.64.32l2.36-.13c.32-.02.95-.12,1.21-.15l.25-1.45c.06-.36,2.11-.39,2.31-1.42.06-.33-.17-1.21-.13-1.54.15-1.4.76-2.97.28-4.28-.79-2.13-2.8-3.17-4.77-3.32-2.13-.16-4.19.79-5.3,2.7-.88,1.5-.18,3.33.07,4.83.08.5-.36,1.83.05,2.1ZM20.22,30.85c.83,0,1.5.68,1.5,1.51,0,.83-.68,1.5-1.51,1.5s-1.5-.68-1.5-1.51c0-.83.68-1.5,1.51-1.5ZM17.81,33.21l1.13,2.17-2.05.05c.06-.74.27-1.31.92-2.22ZM15.38,30.81c.83,0,1.5.68,1.5,1.51,0,.83-.68,1.5-1.51,1.5-.83,0-1.5-.68-1.5-1.51,0-.83.68-1.5,1.51-1.5Z"/>
      <path class="cls-1" d="M10.92,39.57c1.66.08.66-.94,4.91,1.25-3.29,2.5-5.35.25-5.54,1.76-.05.4,1.03,2.47,1.26,2.77.61.79,1.67-1.57,2.24-1.85l3.94-1.89,4.49,2.35c.29.85.88,1.81,1.79,1.37l.83-1.67c1.54-3.09-2.29-.05-5.39-2.89,1.27-.54,2.5-1.16,3.7-1.28.61-.06,2.26.27,2.07-.61-.12-.55-.85-2.97-1.56-2.69-1.06.42-.77,1.56-2.07,2.16l-3.95,1.85-4.65-2.45c-.07-.72-1.17-2.21-1.61-1.39l-1.21,2.29c.04.28.48.9.75.91Z"/>
      <path class="cls-1" d="M31.73,31.41c-2.17,1.17-4.23,1.57-6.77,2.13.63.42,7.99-.29,6.77-2.13Z"/>
      <path class="cls-1" d="M30.24,35.85c-.54,0-.97.43-.98.97,0,.54.43.97.97.98s.97-.43.98-.97c0-.54-.43-.97-.97-.98Z"/>
      <path class="cls-1" d="M15.01,45.87c-.5,0-.91.4-.91.9,0,.5.4.91.9.91.5,0,.91-.4.91-.9,0-.5-.4-.91-.9-.91Z"/>
    </g>
  </g>
</svg>