<?xml version="1.0" encoding="UTF-8"?>
<svg id="Warstwa_2" data-name="Warstwa 2" xmlns="http://www.w3.org/2000/svg" viewBox="0 0 50.68 33.54">
  <defs>
    <style>
      .cls-1 {
        fill: #fff;
      }
    </style>
  </defs>
  <g id="game-icon-v4-rogue-pixarts-store">
    <g id="game-icon-v4-rogue-pixarts-store_91">
      <path class="cls-1" d="M47.36,4.73c-2.79-1.76-6.24-1.45-8.58.81-1.67,1.61-2.46,4.15-.8,6.17l.93-2.66c.58-1.66,2.42-2.49,4-2.45,1.55.04,3.1,1,3.72,2.59.49,1.25.26,2.78-.57,3.76-.69.8-1.97,1.51-3.27,1.5-10.42-.01-20.53.25-30.9.85-4.13.24-7.95.25-11.89,1.03,5.19.65,9.92.87,15.06.98l28.37.64c3.39.08,6.21-2.44,6.98-5.16.91-3.24-.55-6.48-3.05-8.06Z"/>
      <path class="cls-1" d="M36.71,33.29c3.42-.96,5.34-4.38,4.6-7.82-.65-3.03-3.4-5.45-6.92-5.42-8.75.08-17.41.44-26.11,1.42,8.77,1.72,17.18,1.54,25.82,1.89,2.4.1,4.09,1.78,3.88,4.04-.17,1.92-1.99,3.45-4.17,3.18-2.4-.3-3.35-2.16-3.88-4.69-1.98,1.54-.46,5.17,1.41,6.51,1.58,1.13,3.5,1.41,5.37.89Z"/>
      <path class="cls-1" d="M28,9.17c-6.94.4-13.49.45-20.09,1.96,7.05.9,13.55,1.19,20.26,1.26,3.8.04,6.66-2.9,6.54-6.42C34.59,2.65,31.91-.11,28.4,0c-3.17.1-5.44,3.3-4.81,5.92.78,3.24.65-2.99,4.11-3.06,1.54-.03,3.05.5,3.57,2.27.25.83.05,2.2-.51,2.91-.44.56-1.62,1.06-2.76,1.13Z"/>
    </g>
  </g>
</svg>