<?xml version="1.0" encoding="UTF-8"?>
<svg id="Warstwa_2" data-name="Warstwa 2" xmlns="http://www.w3.org/2000/svg" viewBox="0 0 35.73 42.68">
  <defs>
    <style>
      .cls-1 {
        fill: #fff;
      }
    </style>
  </defs>
  <g id="game-icon-v4-rogue-pixarts-store">
    <g id="game-icon-v4-rogue-pixarts-store_42">
      <path class="cls-1" d="M32.19,24.22c1.8,2.33,2.29,5.15,3.53,7.67-1.12-7.59-1.69-8.48-7.09-13.07-2.63-.21-4.74-.35-7.37-1.1l7.22-3.44c2.9-5,3.8-5.59,3.03-11.77-.22,3.31-1.15,6.52-2.94,8.96-.33.45-.83,1.61-1.32,1.87-1.7.9-3.76,1.9-5.84,2.75l4.38-5.88c-.52-4.8.26-6.3-3.45-10.03l1.67,4.51c.57,1.53.3,3.55.25,5.29l-2.85,3.86c-.14.19-.71.47-.9.33-.9-.67,1-2.85-1.42-3.81l.33,2.05c-1.37-.2-1.86-.13-3.31.14l.32-2.21c-2.12.69-.64,4.27-1.42,3.91-.14-.07-.71-.32-.81-.45l-2.97-3.86c.06-1.88-.19-3.96.4-5.52l1.68-4.41c-3.53,3.59-3.27,5.52-3.53,10.2l4.5,5.87c-5.44-2.17-6.71-2.3-8.99-7.68-.78-1.84-.97-3.74-1.5-5.53-.46,6.38.38,6.41,3.24,11.43l7.23,3.44c-2.47.78-4.69.71-7.21,1.16C1.9,22.68.6,25.14,0,31.86c2.11-5.99,2.54-7.66,7.8-11.64l6.43-.99c-2.29,1.88-4.77,3.38-6.61,5.42l-1.33,8.37c.48,2.62,2.61,7.78,4.8,9.65-1.19-3.22-3.5-6.31-3.1-9.75l.86-7.41,4.16-3.64c-1.24,2.73-1.53,5.27.19,7.62,2.02,2.75-.11,4.89.94,5.82.18.16.74.13.8-.1.05-.17.1-.69.09-.89l-.08-2.25c5.17-.2.94,7.37,2.33,8.65.24.22.91.22,1.16.02.2-.17.51-.92.46-1.25l-.62-3.9c-.2-1.24.27-2.52,1.22-3.26l1.06,2.72c.16-2.43.2-3.58,1.43-5.01,2.06-2.39,1.94-5.27.78-7.89l3.96,3.25c1.48,10.49,1.34,7.46-1.92,16.93,5.59-7.78,4.64-9.02,3.19-17.4-1.51-2.51-4.61-3.76-6.72-5.75,5.47,1.13,6.95-.11,10.91,5.02ZM14.05,23.93c.65.37,1.32.94,1.64,1.37-.79,1.79-.39,2.64.02,4.72-.89-.59-3.49-4.76-1.66-6.08Z"/>
    </g>
  </g>
</svg>