<?xml version="1.0" encoding="UTF-8"?>
<svg id="Warstwa_2" data-name="Warstwa 2" xmlns="http://www.w3.org/2000/svg" viewBox="0 0 39.95 39.92">
  <defs>
    <style>
      .cls-1 {
        fill: #fff;
      }
    </style>
  </defs>
  <g id="game-icon-v4-rogue-pixarts-store">
    <g id="game-icon-v4-rogue-pixarts-store_100">
      <path class="cls-1" d="M18.19,2.69l-3.21,3.04c-.2.19-.61.94-.39,1.11l.9.69.67.51c.31.24-1.17,1.23,0,2.58l-.64.78c1.08,2.19-.94,2.53-.18,4.01.96,1.86,5.7-.09,6.15,4.34l3.23-.7.44-1.28,1.89.29,1.41-2.09.03,1.97,4.87-1.29c.05-1.63.62-2.8,1.68-3.87,3.34-3.37,4.85-8.2,2.98-12.77h-19.42c-.48.81-.46,1.71-.43,2.69ZM24.85,15.24c1.11-.16,1.97-1.7,2.92-2.26-.42,1.17-1.09,2.87-2.32,3.42-1.64.74-3.56.21-5.38-.47l4.79-.7Z"/>
      <path class="cls-1" d="M34.76,20.16l-4.47,2.22c.47,1.68,2.44,2.51,1.72,2.89-.09.05-.39.16-.42.07-.03-.1-.16-.6-.25-.66l-2.39-1.56c-.46.01-1.08.94-1.35,1.36-1.58,2.49.19,1.89-.99,3.5-.16.21-.75.15-1.08-.04l1.4-3.59c-1.01-.64-1.91.12-2.55.96l-.3.39c-.05.06-.11.08-.13,0-.02-.07-.23-.7-.3-.73-.65-.33-1.69.65-2.24,1.49l-3.17,4.86c-1.68,2.59-2.76,5.3-3.35,8.56l25.04.03v-11.59c0-1.2-.79-2.48-1.42-3.45l-3.76-4.72Z"/>
      <path class="cls-1" d="M14.21,28.8c.43-.16,1.6.2,1.87-.2.25-.38.55-1.46.25-1.87l-3.04-4.1c.79-.24,1.66-.65,1.6-1.15-.2-1.79-3.97-1.17-5.67-.59-.85.29-2.19.43-2.91.84l-6.31,3.63.02,10.73,6.65-7.58c2.01,2.68,5.35,1.11,7.53.29Z"/>
      <path class="cls-1" d="M18.45,21.74c0,1.08.29,2,.78,3,5.16-1.09,15.19-4.52,18.76-8.06-6.91,1.33-13.02,3.21-19.54,5.06ZM31.59,19.31c-2.76,1.23-5.71,2.31-9.16,2.77,2.81-1.12,5.75-2.03,9.16-2.77Z"/>
      <path class="cls-1" d="M16.41,20.06c-.84,1.96.32,4.93,1.25,6.69.12.24.73.49.96.52.24.03.75-.58.62-.84-.95-1.8-1.73-4.45-1.84-6.33-.15-.16-.89-.25-.99-.03Z"/>
    </g>
  </g>
</svg>