<?xml version="1.0" encoding="UTF-8"?>
<svg id="Warstwa_2" data-name="Warstwa 2" xmlns="http://www.w3.org/2000/svg" viewBox="0 0 55.87 29.28">
  <defs>
    <style>
      .cls-1 {
        fill: #fff;
      }
    </style>
  </defs>
  <g id="game-icon-v4-rogue-pixarts-store">
    <g id="game-icon-v4-rogue-pixarts-store_71">
      <path class="cls-1" d="M5.4,13.12c2.6.62,2.86,2.38,3.13,4.51,1.86,1.35,4.54,2.56,7.01,3.16,10.09,2.43,25.35,2.74,34.34-2.88,3.74-2.34,2.78-6.8,1.97-10.46l-2.86,7.79-2.08-3.34-2.24,5.65-2.59-4.13-2.54,5.64-3.01-4.64-3.02,5.63-3.24-4.91-2.9,4.74-2.83-5.25-3.21,4.47-2.54-5.69-2.99,4.65-2-5.72-2.68,3.61-1.46-4.14-1.79,1.11-1.63-6.16c-.59,2.43-.75,4.18-.85,6.38Z"/>
      <path class="cls-1" d="M40,5.17l-1.98-4.36-2.38,3.7-2.25-4.09-2.39,3.73-2.27-4.15-2.17,4.16L24.23.24l-2.23,4.18-2.34-3.81-2.14,4.5-2.36-3.28-1.59,4.14-2.1-2.85-1.31,4.19-2.5-2.38c-.35,2.07.21,3.86.91,5.7,9.01-4.73,19.37-5.34,29.53-3.56,3.18.56.64-2.14,5.73-1.11l-1.24-4.28-2.61,3.5Z"/>
      <path class="cls-1" d="M.07,19.35c-.67,4.45,3.8,7.06,7.86,8.15,16.61,4.47,29.64-3.84,40.17-1.24.65.16,1.77,1.4,2.24,1.91,1.2,1.29,3.57,1.66,4.4-.03-1.52-.01-3.35-.27-3.61-1.4-.4-1.76,1.01-2.28,2.31-2.31,1.13-.02,1.64,1.1,2.31,2.64.28-.84.06-2.52-.7-3.42-.59-.69-2.38-.51-3.48-.44l-1.85.12c-.42.03-.37,1.1-.33,1.64-5.42-1.44-11.41-.33-17.34.81-6.76,1.3-13.44,1.95-20.23.96-3.77-.55-10.79-2.51-10.29-6.99.18-1.59,4.09-2.46,2.72-3.03C1.9,15.75.2,18.46.07,19.35Z"/>
      <path class="cls-1" d="M33.91,10.28c-.17-.4-.61-1.04-1.01-1.59-2.52-1.33-11.03-.61-10.35,1.59,1.09,3.53,12.44,2.51,11.36,0Z"/>
      <path class="cls-1" d="M49.51,4.87l-1.71,2.35-1.45-3.48c-1.34,1.15-2.11,3.58-.88,5l3.49,2.08c1.43-1.51,2.02-4.1.55-5.94Z"/>
      <path class="cls-1" d="M41.01,7.46l-5,1.51c-.35.1-.92.58-1.1.8-.18.23.54,1.11.9,1.02l8.31-2.21c-.54-2.11-1.91-1.48-3.12-1.12Z"/>
      <path class="cls-1" d="M3.1,15.28c.96.4,1.99.55,2.09,1.01l.4,1.82c.93.42,1.5-1.49,1.34-2.32-.12-.65-.98-1.31-2.03-1.53-.63-.14-1.71.41-1.81,1.02Z"/>
      <path class="cls-1" d="M34.68,14.64c-1.05-1.25-2.66-1.58-3.75-.69l2.53,3.28,1.22-2.59Z"/>
    </g>
  </g>
</svg>