<?xml version="1.0" encoding="UTF-8"?>
<svg id="Warstwa_2" data-name="Warstwa 2" xmlns="http://www.w3.org/2000/svg" viewBox="0 0 43.05 42.9">
  <defs>
    <style>
      .cls-1 {
        fill: #fff;
      }
    </style>
  </defs>
  <g id="game-icon-v4-rogue-pixarts-store">
    <g id="game-icon-v4-rogue-pixarts-store_43">
      <path class="cls-1" d="M34.23,17.24c-2.86-1.3-5.72-2.36-8.71-3.41-1.79-.63-3.55-1.58-4.78-3-1.31-1.51-1.24-3.97.47-5.09,2.24-1.46,5.57-.91,7.11,1.34.3.43.55,1.73.97,2.08,1.75,1.47,2.85,2.71,4.1,4.31.81,1.04,2.51,1.58,3.29.04l-2.21-.15-2.76-5.26,4.16-.03c.36,0,1.44.01,1.43.37l-.05,1.87,2.09-2.37.19,1.88c.73-.76,1.64-1.85,2-2.94.16-.48-.91-1.25-1.36-1.45-3.9-1.7-2.03-2.28-8.81-2.87-3.82-2.83-8.45-3.48-12.6-1.17-3.54,1.97-5.24,5.97-4.01,9.92,3.24,10.41,21.02,7.9,19.57,16.78-.15.95-1.13,1.93-2.14,2.54,1.04,1.63,1.69,3.32,1.96,5.31,5.66-1.68,8.11-8.12,5.44-13.35-1.21-2.37-2.9-4.25-5.36-5.37ZM36.41,5.93c-.59.13-1.25.23-1.67.17-.43-.06-.95-.94-1.01-1.51,1.14-.01,1.88.48,2.68,1.34Z"/>
      <path class="cls-1" d="M23.9,28.26c-7.01-.2-10.41,4.52-15.34,2.65-1.9-.72-3.28-2.25-3.49-4.01-.22-1.88.43-3.75,2.09-4.79,4.56-2.86,7.99,3.25,10.22,5.97l5.62-1.16c-1.97-2.67-3.92-5.67-6.43-7.94-3.23-2.92-7.55-3.69-11.17-1.87C1.77,18.93-.3,22.61.03,26.84c.37,4.72,3.91,8.16,8.65,8.81,7.47,1.03,11.01-5.25,17.18-3.9,2.86.62,4.87,3.49,3.68,6.28-1.08,2.54-4.05,3.58-6.7,2.95-2.03-.49-3.74-1.57-5.84-2.45,2.44,3.7,7.08,5.22,11.16,3.91,2.06-.66,3.62-2.42,4.23-3.98.86-2.22.49-4.45-.83-6.41-1.74-2.58-4.66-3.71-7.66-3.8Z"/>
      <path class="cls-1" d="M27.71,33.87c-2.09-1.19-4.31-1.4-6.35-.39,2.33,1.66,4.42,2.84,7.32,3.14-.07-1.39-.37-2.03-.96-2.75Z"/>
      <path class="cls-1" d="M39.15,12.99c-1.41-2.39-2.21-.03-4.69-3.23-.53.97.41,2.25,1.62,2.37,3.2.31,2.36,3.63,4.5,3.76.68.04,1.69-.11,2.23-.22l-2.03-.55c.9-.42,1.72-.87,2.26-1.5-.84.29-1.55.56-2.2.7-.52.11-1.38-.8-1.7-1.33Z"/>
    </g>
  </g>
</svg>