<?xml version="1.0" encoding="UTF-8"?>
<svg id="Warstwa_2" data-name="Warstwa 2" xmlns="http://www.w3.org/2000/svg" viewBox="0 0 49.19 49.54">
  <defs>
    <style>
      .cls-1 {
        fill: #fff;
      }
    </style>
  </defs>
  <g id="game-icon-v4-rogue-pixarts-store">
    <g id="game-icon-v4-rogue-pixarts-store_20">
      <path class="cls-1" d="M35.86,7.33l-1.41-3.52c3.44,2.42,5.68,5.5,7.76,9.06l1.79-.83-1.3-2.27c2.77-.17,4.43,2.18,4.13,4.4-.32,2.41-2.73,3.84-5.06,3.06-2.15-.72-3.21-3.24-1.94-5.58.23-.43-.17-1.64-.67-1.77-1.73,1.46-2.08,3.98-1.32,5.98.77,2,2.49,3.18,4.66,3.85,2.4.74,4.46,3.64,2.76,5.96.21-2.63-1.26-5.07-3.76-5.43.42,1.32.46,3.1-.3,4.11-.53.7-1.71,1.3-2.68,1.82.89,1.67,1.26,3.29.44,4.76-.56,1.01-1.76,1.98-2.63,2.08-2.98.35-2.65-1.44-4.57-1.41-.26,0-.76.85-.61,1.07,1.68,2.4,1.77,6.29.24,9.26,3.41-.62,5.91.31,7.94,2.41.37.35,1.69-.65,1.57-1.16-1.21-5,3-7.32,5.16-10.3,3.75-5.17,3.38-11.34,2.6-17.29-.3-2.28.32-4.18-1.56-6-1.36-1.32-3.38-1.86-5.56-1.62-3.85-3.82-8.41-7.19-13.97-7.96,3.2,2.11,5.87,4.39,8.27,7.33ZM38.29,40.72l-3.93-1.18.47-4.02,4.98.31-1.52,4.89ZM42.73,32.92c-.05-1.18-.04-2.61-.64-3.45l-1.94-2.71c1.4.51,2.57,1.63,3.2,3.11.41.97.12,2.36-.61,3.04Z"/>
      <path class="cls-1" d="M20.28,49.12c.29-.71.56-1.51.9-1.52.35,0,1.08.29,1.38.5l1.98,1.43c.34-1.18.32-1.51.62-1.82,1-1.01,2.91,1.82,3.69.95.12-.81.1-1.39.38-1.68.24-.24,1.28-.19,1.6-.06l1.9.77c-.28-5.2,3.26.61,5.28-2.96-1.26-2.38-6.19-2.2-8.26-1.43-6.25,2.32-13.35,2.24-18.72-1.36,6.36,2.27,12.93,2.99,18.53-.45,2.37-1.45,2.38-5.42.97-7.59-8.5,8.89-22.85,6.45-30.52-2.95,1.91,9.86,11.02,16.85,20.28,18.16Z"/>
    </g>
  </g>
</svg>