<?xml version="1.0" encoding="UTF-8"?>
<svg id="Warstwa_2" data-name="Warstwa 2" xmlns="http://www.w3.org/2000/svg" viewBox="0 0 55.78 35.63">
  <defs>
    <style>
      .cls-1 {
        fill: #fff;
      }
    </style>
  </defs>
  <g id="game-icon-v4-rogue-pixarts-store">
    <g id="game-icon-v4-rogue-pixarts-store_57">
      <path class="cls-1" d="M35.88,35.63c-3.04-3.53-2.74-8.86,1.25-11.36,1.14-.71,2.16-1.21,3.46-1.92-2.08-1.31-4-1.84-6.51-2.31.16-.96,1.13-2.07,2.18-2.46,7.05-2.62,6.36-1.4,8.06-6.04.68-1.86,1.68-2.68,3.83-2.76-1.36-3.67-5.73-5.34-9.13-6.61C33.73.21,28.22-.58,22.78.46l3.14,1.25c-4.47.63-8.83,1.52-12.82,3.84l3.3.74C11.02,9.82,6.47,12.47,0,14.08c3.62,1.84,7.4,1.35,11.15.66-3.2,3.16-6.1,6.66-7.46,10.9,3.08-2.39,5.72-4.69,9.5-5.21-2.06,3.06-3.74,6.23-3.72,10.09,2.56-1.92,5.07-3.3,8.06-3.88.37,2.65-.61,4.67-2.2,7.03,4.46.27,8.54-1.14,11.81-3.95,1.42,3.54,4.82,5.72,8.74,5.89ZM43.2,10.71c-.36.86-2.02.91-2.6,1.4-2.02,1.69-3.68,3.3-6.19,2.62-2.31-.62-4.05-2.31-4.25-5.22-2.39-.07-4.33.24-6.68.71,12.19-7.32,9.48-.79,19.72.49Z"/>
      <path class="cls-1" d="M55.06,16.46c-1.22-2.52-3.75-4.58-6.14-5.88-3.42-1.86-3.8,4.29-5.33,5.47-2.15,1.66-4.8,1.35-7.21,2.97,4.72-.46,18.18-1.06,16.88,7.19,2.07-2.82,3.42-6.41,1.8-9.75Z"/>
      <path class="cls-1" d="M51.26,22.4c-3.66-2.47-7.76-2.91-11.98-2.38,2.5,1.99,8.55,2.72,11.98,2.38Z"/>
      <path class="cls-1" d="M34.24,13.36c1.24.56,3.16.12,3.84-1.08.1-.18.14-1.02-.01-.94l-.98.55c-.41.23-1.55.43-1.97.22s-.73-1.13-.85-1.68l-.22-1.04c-.05-.22-1.19-.21-1.31-.04-.71,1.01-.05,3.31,1.5,4.01Z"/>
    </g>
  </g>
</svg>