<?xml version="1.0" encoding="UTF-8"?>
<svg id="Warstwa_2" data-name="Warstwa 2" xmlns="http://www.w3.org/2000/svg" viewBox="0 0 43.76 38.5">
  <defs>
    <style>
      .cls-1 {
        fill: #fff;
      }
    </style>
  </defs>
  <g id="game-icon-v4-rogue-pixarts-store">
    <g id="game-icon-v4-rogue-pixarts-store_112">
      <path class="cls-1" d="M10.73,26.16c.42,3.71,3.64,5.95,7.31,5.11,7.17-1.64,6.45,5.03,11.08,6.35,3.07.88,6.56,1.28,9.68.34,1.92-.58,3.45-2.59,4.48-4.12.8-1.18.46-2.42-.17-3.45l-2-3.26c-1.06-1.72-.92-3.13.57-4.65.39-.53-1.03-2.12-1.59-1.57-.8.77-1.67,1.63-2.35,2.16l-2.74-.76-3.57,1.87c-.27-2.01,5.7-3.53,7.14-5.25.6-3.9,1.53-7.26,3.1-10.86C36.24.66,33.72-1.7,24.29,1.21l1.37,3.09c-1.41,2.3-1.17,6.25-4.71,5.35-3.41-.86-4.58-4.16-7.17-2.71,2.12.45,3.7,1.82,4.34,3.98-1.22-.28-2.13-.66-3.03-1.15-6.68-3.6-8.37,4.15-12.95-1.68-.18,2.11,1.92,3.94,4.12,3.68,4.57-.53,8.97,1.85,10.29,6.55l-3.93-2.44c-1.33-.83-3.05-.83-4.53-.24,5.31.51,4.11,3.74,8.43,6.57.81.53,2.21.55,3.2.54,3.3-.04,6.23,2.38,6.09,5.67-1.75-3.02-4.75-4.65-7.79-3.65.84.31,1.91.79,1.9,1.45-2.56,2.01-5.41-1.75-6.62-4.02-2.89-5.43-8.84-4.46-13.28-2.16,2.31-.06,4.24-.27,6.21.38,2.64.87,4.21,3.02,4.52,5.71ZM39.66,8.61l-1.58,6.17c-2.83,1.89-2.62,5.95-4.83,4.47l-2.3-1.54-.33,3.71-1.55-3.83c2.48-3.27,6-9.04,10.6-8.98Z"/>
      <path class="cls-1" d="M23.23,34.56c-1.07-1.85-3.42-2.22-5.29-1.18-1.66.93-3.34,1.11-5.34.99,4.74,4.36,6.74-.34,10.63.19Z"/>
      <path class="cls-1" d="M3.13,2.11c4.3,1.28,1.8,5.58,7.67,4.39-3.94-1.97-2.43-5.21-7.67-4.39Z"/>
      <path class="cls-1" d="M7.43,24.92c-.77-.37-1.8-.3-2.38-.13l1.78,1.59c.49.44,1.28.85,2.02.6-.12-.78-.82-1.77-1.42-2.06Z"/>
    </g>
  </g>
</svg>