<?xml version="1.0" encoding="UTF-8"?>
<svg id="Warstwa_2" data-name="Warstwa 2" xmlns="http://www.w3.org/2000/svg" viewBox="0 0 46.44 47.7">
  <defs>
    <style>
      .cls-1 {
        fill: #fff;
      }
    </style>
  </defs>
  <g id="game-icon-v4-rogue-pixarts-store">
    <g id="game-icon-v4-rogue-pixarts-store_116">
      <path class="cls-1" d="M19.19,24.3c7.23-7.49,14.49-14.69,18.34-24.3-9.17,4.4-16.41,11.71-23.51,19.56,2.78.44,4.84-.88,6.57-2.6,3-2.99,5.81-5.95,9.06-8.54-2.75,3.57-5.63,6.52-8.54,9.77-1.49,1.66-2.68,3.84-1.92,6.11Z"/>
      <path class="cls-1" d="M22.57,28.03c2,.32,3.65-.47,5.27-1.35l10.66-10.05c-1.86,3.79-13.07,11.8-10.8,16.34,6.95-7.37,14.82-14.96,18.73-24.47-9.44,4.56-16.66,11.92-23.87,19.52Z"/>
      <path class="cls-1" d="M10.87,19.07c-4.07,1.91,5.77,11.2,6.97,8.51.16-.36-.27-.98-.65-1.29l-1.53-1.28,1.99-.11.72-4.85-5.39,1.09c.5,1.23,1.24,2.14,2.14,3.34-2.44-.88-3.14-3.27-4.25-5.4Z"/>
      <path class="cls-1" d="M28.48,36.11c-4.44-1.4-7.56-4.61-8.84-8.84-.99.72-1.34,1.96-.89,3.03,1.48,3.48,7.23,9.18,9.72,5.81Z"/>
      <path class="cls-1" d="M2.45,38.94c1.69.23,3.42-.71,4.15-2.08-2.81-.52-3.73-2.05-4.57-4.57-1.08.83-1.86,2.08-2.01,3.43-.17,1.51.93,3.02,2.44,3.22Z"/>
      <path class="cls-1" d="M8.53,45.39c.28,1.55,1.79,2.58,3.4,2.25,1.18-.24,2.32-1.02,2.99-1.93-2.74-.62-3.76-2.35-4.48-4.81-1.34,1.05-2.22,2.77-1.91,4.49Z"/>
      <path class="cls-1" d="M26.28,33.2l.74-4.73-5.36,1.19c.52,1.69,4.3,5.52,4.61,3.54Z"/>
      <path class="cls-1" d="M17.59,41.26l-3.99-.71c-.51.04-1.39.29-1.58.69-.57,1.21,1.14,3.24,2.1,3.02,1.32-.74,2.52-1.97,3.47-3.01Z"/>
      <path class="cls-1" d="M4.02,34.55c.35.44,1.49,1.31,2.05.94,1.24-.8,2.49-2.02,3.4-3.21-2.27-.17-3.76-.22-5.56-.13-.42.81-.31,1.86.11,2.4Z"/>
      <path class="cls-1" d="M5.08,31.22c2.8.2,5.84,1.1,6.95-1.65-3.22-.14-5.91-1.34-6.95,1.65Z"/>
      <path class="cls-1" d="M20.37,38.4c-1.92-.16-6.49-1.38-6.73,1.34,2.83.37,5.08,1.41,6.73-1.34Z"/>
      <path class="cls-1" d="M7.45,28.51c.5.25,7.8.29,6.55-.74-1.28-1.06-3.03-1.4-4.83-1.07-.62.11-1.47,1.25-1.72,1.81Z"/>
      <path class="cls-1" d="M22.4,36.12c-1.59-.64-3.41-.89-5.06-.8l-1.72,1.85c1.81.13,7.07,1.06,6.77-1.04Z"/>
    </g>
  </g>
</svg>