<?xml version="1.0" encoding="UTF-8"?>
<svg id="Warstwa_2" data-name="Warstwa 2" xmlns="http://www.w3.org/2000/svg" viewBox="0 0 52.6 50.77">
  <defs>
    <style>
      .cls-1 {
        fill: #fff;
      }
    </style>
  </defs>
  <g id="game-icon-v4-rogue-pixarts-store">
    <g id="game-icon-v4-rogue-pixarts-store_24">
      <path class="cls-1" d="M49.87,20.26c-1.86-1.38-3.95-1.27-6.25-1.14.99-.53,2.21-.9,3.31-1.22.47-1.81-.81-3.82-2.21-4.73-1.61-1.04-3.45-1.29-5.4-.39-.63-1.77-1.85-3.23-4.24-2.75l2.69,7.29c.46,1.26.26,2.92-.17,4.18l5.04,2.96c1.12.66,2.97.48,3.75,1.68-2.68-.5-5.36-.29-7.33,1.53-1.57,1.46-1.83,3.29-1.1,5.41-1.74-1.53-3.43-2.47-5.54-2.34-1.81.11-3.66,1.03-4.74,2.72-.9,1.41-1.35,3.32-.28,4.51,1.49-1.18,3.09-2.16,4.56-.83-2.77.51-3.91,2.02-4.14,4.77l-1.23-2.44c-.89-1.34-2.95-1.28-4.41-.65-1.19.51-1.92,2.18-2.35,3.66-.68.16-2.35.27-2.67.86-.33.6-.63,1.58-.92,2.53-4.69-2.21-5.34,2.43-6.91,2.9l-6.1,1.79c2.53.18,5.41.42,8.24-.25,1.06-.25,2.37-1.68,3.28-.97,4.95,3.84,6.59-1.37,9.31-1.42,1.87-.04,4.41,4.73,9.86,2.06,2.2-1.08,3.13-3.17,3.49-5.89.63,1.32.56,2.53.31,3.95,3.26,2.03,7.85.56,9.35-3.13.8-1.97.32-5-1.82-5.54-1.21.3-2.64,1.95-3.94.79,2.82-.79,3.77-2.84,3.75-5.6l1.05,3.11c.18.52.98,1.35,1.52,1.75,1.66-.41,2.91-1.58,3.4-3.08.51-1.57-.35-3.23-1.09-4.57,1.17-1.6,2.55-3.45,2.68-5.47.17-2.51-.95-4.7-2.71-6.01Z"/>
      <path class="cls-1" d="M36.26,17.61l-3.69-10.98C31.52,3.51,28.65-.19,25.02,0c-3.87.22-6.43,3.94-7.52,7.21l-3.57,10.72c-.22.67-.24,1.99.24,2.48l5.33,5.44c-1.98-.81-3.52-2.03-5.33-3.31-1.89.82-4.6,2.07-5.95,3.72-1.8,4.92-2.65,9.75-3.44,14.94l4.93-.92c3.04-.57,6.05-1.04,9.24-.45,1.27-2.05,3.3-3.44,6.2-2.98-.04-3.22,1.41-5.2,3.38-6.57,2.25-1.56,4.92-1.46,7.41-.67.89-2.12,2.12-3.83,4.5-4.83-1.6-.94-2.91-1.6-4.35-2.22-1.87,1.67-3.45,2.82-5.55,3.48,2.24-2.67,6.89-4.96,5.71-8.47ZM24.49,29.27c-2.8-4.5-5.64-5.11-7.91-9.51.54-3.92,4.82-12.53,9.14-12.24,3.78.26,6.8,7.99,7.93,11.26.34.98-.66,2.82-1.47,3.55l-7.69,6.93Z"/>
      <path class="cls-1" d="M5.19,30.19c1.81-6.95,2.31-5.61,7.53-8.84-.55-1.25-.74-2.65-.32-3.86l2.98-8.56c-2.25-.89-4.09-.82-6.02.3-1.38.8-2.56,2.74-2.81,4.63,1.62.1,2.77.23,4.08.72-3.78.94-8.29,1.04-8.99,5.69-.23,1.55.47,3.01,1.31,4.43-2.03.84-3.67,3.23-2.64,5.09,1.46-.18,3.53-.19,4.88.39Z"/>
    </g>
  </g>
</svg>