<?xml version="1.0" encoding="UTF-8"?>
<svg id="Warstwa_2" data-name="Warstwa 2" xmlns="http://www.w3.org/2000/svg" viewBox="0 0 53.16 53.06">
  <defs>
    <style>
      .cls-1 {
        fill: #fff;
      }
    </style>
  </defs>
  <g id="game-icon-v4-rogue-pixarts-store">
    <g id="game-icon-v4-rogue-pixarts-store_34">
      <path class="cls-1" d="M8.79,40.65c3.84,3.12,4.78,7.61,4.78,12.41,2.31-3.03,3.59-3.02,2.43-5.93l2,1.64c1.72-1.47,2.6-2.92,3.47-4.85,2.27-4.99,7.7-7.75,5.37-10.05-2.94,3.15-6.29,5.45-6.78,9.12l-.46-2.29-.77.64c-.15.12-.38-.15-.75-.52l8.16-8.79.42-5.65c-1.59.24-3.97.31-5.77.25l-8.09,7.54c.88,1.01,1.73,1.92,2.37,3.21l-3.93-3.74,8.09-7.56c-.64-.4-1.8-.81-2.28-.45l-7.65,5.55.2,1.23c-1.2-1.06-2.63-.78-3.82.39l-1.17,1.14c-.21.21.36.98.64,1.43-1.72.05-3.35,1.09-5.23,2.52,2.79.6,6.43.83,8.79,2.75ZM8.31,34.03l7.32,8.59c-.42,1.25-10.04-9.43-7.32-8.59Z"/>
      <path class="cls-1" d="M24.82,22.22l12.92-11.37c.59-.52,8.09-8.75,7.23-10.5-.2-.4-1.54-.46-1.88-.17-5.1,4.33-5.76,6.55-10.2,10.68l-2.85,2.66c-.87-1.33-.75-2.98.54-4.15,2.55-2.32,1.18-5.74.42-5.26-.17.11-.53.4-.68.55l-3.95,3.67c-1.25,1.16-2.78,4.1-2.99,5.68l-.86,6.48c.41.68,1.51,1.58,2.31,1.73Z"/>
      <path class="cls-1" d="M51,8.13l-6.57,4.72-13.73,15.22c.16.87.72,1.91,1.23,2.27,6.45-1.03,7.46-4.97,12.52-8.2l7.52-4.8c.42-.27.41-1.84,0-1.89-2.22-.27-5.31,2.47-8.7,3.26.11-.51.45-1.23.76-1.46,3.05-2.29,5.83-4.5,8.66-7.03.39-.35.57-1.51.36-1.94-.21-.43-1.68-.43-2.06-.15Z"/>
      <path class="cls-1" d="M28.21,23.86l10.83-10.08,2.53-2.55c-.2.93-.77,1.38-1.39,1.78l-11.47,11.86c-.64,1.37-1.03,2.84-1.02,4.58l15.76-17.3c3.55-3.9,6.83-7.72,9.61-12.06-2.98,1.86-5.41,3.68-7.89,5.89l-21.47,19.15c1.78.47,3.38-.21,4.51-1.26Z"/>
      <path class="cls-1" d="M21.29,25.26c.8-.06,1.82-1.04,2.51-1.93l-2.68-2.17-3.1,3.13c.97.62,2.16,1.06,3.27.97Z"/>
      <path class="cls-1" d="M28.35,35.46l3.05-2.62c-.48-1.34-.89-2.28-1.62-3.57-1.16,1.26-1.88,2.25-2.35,3.59l.91,2.6Z"/>
    </g>
  </g>
</svg>