<?xml version="1.0" encoding="UTF-8"?>
<svg id="Warstwa_2" data-name="Warstwa 2" xmlns="http://www.w3.org/2000/svg" viewBox="0 0 50.94 50.56">
  <defs>
    <style>
      .cls-1 {
        fill: #fff;
      }
    </style>
  </defs>
  <g id="game-icon-v4-rogue-pixarts-store">
    <g id="game-icon-v4-rogue-pixarts-store_46">
      <path class="cls-1" d="M41.32,16.74c-.93.57-1.87,1.25-2.68,1.9.9,2.54,1.39,4.34,1.71,7.02l-3.4-.07-1.24-4.89-2.78,2.1.48,2.88-4.14-.09c-2.28-.05-4.4,5.14-7.31,2.58-.82-.72-1.25-2.49-.31-3.36,1.34-1.24,2.78-2.68,3.5-4.23-.8-1.26-1.11-2.82-.48-4.2l2.99.87,2.41-2.78c-2.17-.91-3.32-1.24-5.64-1.77l.07-3.35c2.92.28,5.13,1.06,7.65,2.48l2.44-2.63c-3.16-2.26-6.67-3.1-10.28-3.5-.11-1.37-.2-2.39-.7-3.73l-.74,3.83C12.03,6.27,3.82,14.97,3.48,25.65c-1.41.13-2.1.23-3.48.65l3.55.87c.36,10.62,8.83,18.97,19.42,19.64l.63,3.75c.64-1.34.67-2.32.76-3.73,10.66-.61,19.09-9.04,19.49-19.73,1.27-.23,2.11-.41,3.39-.82l-3.36-.78c-.35-3.22-.84-5.86-2.57-8.76ZM17.42,25.66l-3.39-.06c.22-4.9,3.93-8.87,8.87-9.17l.1,3.59c-3.36.38-4.97,2.7-5.57,5.64ZM22.8,9.39l.11,3.44c-6.84.55-12.02,5.65-12.43,12.74-1.06.09-2.15.05-3.46-.09.46-8.7,6.85-15.59,15.79-16.09ZM7.01,27.05h3.49c.55,6.85,5.41,11.94,12.42,12.68l.02,3.51c-8.72-.59-15.48-7.47-15.94-16.19ZM22.86,36.21c-5.2-.64-8.39-4.38-8.83-9.23l3.49.07c.63,2.97,2.05,4.88,5.4,5.39.11,1.25.1,2.56-.06,3.77ZM29.84,26.96l3.55.05c-.46,4.76-3.58,8.42-8.79,9.23l-.23-3.7c3.1-.6,5.08-2.31,5.47-5.58ZM24.67,43.23c-.29-1.19-.29-2.4-.11-3.53,6.82-.72,11.81-5.75,12.3-12.61,1.17-.07,2.24-.05,3.47.04-.5,8.5-6.77,15.35-15.66,16.1Z"/>
      <path class="cls-1" d="M40.47,14.79c-1.21-.73-2.96-.87-3.98.03-2.57,2.29-4.74,4.23-7.18,6.16,2.32-2.81,4.44-4.91,6.8-7.45.61-.65.14-2.59-.49-3.29-4.48,5.31-9.02,10.18-12.46,16.49,6.68-2.96,11.91-7.41,17.3-11.94Z"/>
      <path class="cls-1" d="M45.87,2.34l-6.41,5.7c.87,1.31,1.75,2.26,2.91,3.2l6.26-6.31c-.81-1.13-1.68-1.93-2.76-2.59Z"/>
      <path class="cls-1" d="M42.46,14.76c.38.32,1.12,1.05,1.48.85.46-.24,1.08-.7,1.5-1.07-4.05-2.32-6.83-5.18-8.62-9.6l-1.78,1.04c2.1,3.38,4.37,6.21,7.42,8.77Z"/>
      <path class="cls-1" d="M46.06,1.06l3.81,4.08c1.01-1.01,1.55-3.21.51-4.34-1.11-1.21-3.55-.99-4.32.26Z"/>
      <polygon class="cls-1" points="39.7 13.49 36.91 10.35 37.01 13.39 39.7 13.49"/>
    </g>
  </g>
</svg>