<?xml version="1.0" encoding="UTF-8"?>
<svg id="Warstwa_2" data-name="Warstwa 2" xmlns="http://www.w3.org/2000/svg" viewBox="0 0 56.64 30.43">
  <defs>
    <style>
      .cls-1 {
        fill: #fff;
      }
    </style>
  </defs>
  <g id="game-icon-v4-rogue-pixarts-store">
    <g id="game-icon-v4-rogue-pixarts-store_69">
      <path class="cls-1" d="M56.33,3.29c.08-2.3-1.71-3.13-3.38-3.28-1.41-.12-3.5.7-3.81,2.44-.08.41,0,1.19-.04,1.57-.03.3-.86.76-1.18.87-10.87,3.62-19.22-1.59-38.05,5.17l-6.32,2.27c-.45.16-1.1.79-1.17,1.2-.29,1.73,5.26,1.12,5.47,5.33.01.26.58.95.75,1.09.17.14.82-.15.8-.38l-.08-.93c-.21-2.58-1.28-3.96-3.99-5.07l5.96-2.31c1.07-.42,2.87.41,3.61,1.11.73.68,1.45,2.59.94,3.41l-6.13,3.86c-1.21,4.13,5.42-.33,9.76,5.13,2.07,2.61,3.82-3.37-7.29-4.72,1.84-1.15,3.74-2.53,5.76-3.2,3.14-1.05,6.82,1.11,7.68,3.91l-4.19,4.52c1.91,3.52,6.9-1.26,12.75,3.17,6.19.05,8.6-2.29,15.15-1.08.83.15,2.39-.17,3-.36-.72.68-.75,2.77-.08,2.57l4.07-1.22c-.49-.86-1.33-1.04-2.22-.87-.02-.02.22-.75-.02-.75l-1.41-.03c-.71-1.22-2.1-3.11-2.64-4.57-1.05-2.88,1.01-5.77,3.17-7.51,3.3-2.66,4.73-7.34,1.95-10.84-1.22-1.53-3.59-.45-5.59-.43,1.7-2.22,4.81-1.95,6.76-.07ZM48.54,9.82c.12-.06.82.53.96.5.04-.05.06-.06.02-.01,0,0-.01,0-.02.01-.11.12-.39.45-.59.69-1.15,1.03-2.22,1.95-3.53.45l3.16-1.63ZM48.47,18.3l-.43,3.17c-2.95-.6-5.35-.79-8.06-.56,1.62-3.34,5.32-4.37,8.49-2.62ZM37.56,21.51c-2.29-1.33-4.45-1.95-7.23-2.23,3.33-2.44,5.82-4.63,10.21-1.83l-2.97,4.06ZM38.31,14.53l4.43-1.8c.65-.27,2.17.32,2.79.66l-3.52,2.99-3.7-1.85ZM45.93,9.42l-3.25,1.6c-.74.36-2.33-.27-2.81-.92,2.11-.74,3.72-1.76,6.06-.68ZM39.76,12.1l-5.58,2.66-4.2-2.85c2.94-.71,7.32-2.35,9.78.19ZM31.16,7.85c.63-.04,1.73.83,2.28,1.53l-7.04,1.86-1.91-2.97,6.68-.41ZM17.96,14.75c-.93-2.1-1.85-3.28-3.45-4.45l5.52-1.35c2-.49,4.01.58,4.56,2.81l-6.64,2.99ZM21.12,15.1c3.77-1.92,8.14-3.6,11.36.5l-5.25,3.87c-1.81-2.23-3.41-3.48-6.11-4.37ZM35.19,27.38c-3.27-2.56-6.91-2.64-11.24-2.13,1.08-1.36,2.66-3.33,4.29-4,2.93-1.19,6-.11,8.46,1.58l-1.52,4.55ZM37.04,27.32l1.76-4.64c3.42-.42,10.17-1.34,10.96,3.3-4.75-.77-8.35-.27-12.72,1.33ZM54.14,10.62c-.03.61-.99,2.16-1.59,2.08l-2.62-.36c1.33-1.7,2.68-2.78,4.21-1.72ZM51.13,14.07l-1.95,2.67-4.59-.71,2.66-1.69c1.01-.64,2.65-.62,3.88-.27Z"/>
      <path class="cls-1" d="M9,21.08c-.15-.31-1.06-.72-1.46-.83-.35-.09-.33,1.06-.39,1.42l-2.21.87c-.53.21-.94,1.8-.42,2.05,1.52.29,3.07-1.3,2.81-2.71l1.14,1.34c.22.26,1.31-.5,1.17-.8l-.64-1.33Z"/>
      <path class="cls-1" d="M.56,15.51l1.42-.06c.36-.01.21-1.31.18-2.04-.02-.45-1-1.24-1.35-1.06C.46,12.53,0,13.33,0,13.74c0,.51.19,1.78.56,1.77Z"/>
      <path class="cls-1" d="M22.45,27.87c0-.61-.65-1.71-1.14-1.82-.49-.11-1.64.2-2.13.5.37,1.14,2.3,2.11,3.27,1.32Z"/>
      <path class="cls-1" d="M18.12,30.26c.57.39,1.72.05,1.93-.33.17-.31.36-1.29.19-1.6-.23-.42-1.44-.28-1.76.03-.32.31-.74,1.65-.37,1.9Z"/>
    </g>
  </g>
</svg>