<?xml version="1.0" encoding="UTF-8"?>
<svg id="Warstwa_2" data-name="Warstwa 2" xmlns="http://www.w3.org/2000/svg" viewBox="0 0 53.43 52.93">
  <defs>
    <style>
      .cls-1 {
        fill: #fff;
      }
    </style>
  </defs>
  <g id="game-icon-v4-rogue-pixarts-store">
    <g id="game-icon-v4-rogue-pixarts-store_19">
      <path class="cls-1" d="M33.2,34.12c-1.54-1.3-2.01-2.71-1.37-4.01.58-1.18,1.91-1.57,3.62-1.99-.83-1.28-2.34-1.66-4.13-2.06.92-.3,2.33-.39,3.28-.09.78.25,1.46,1.85,2.17,2.34,1.51,1.02,3.82.4,5.41-.47-2.2-.22-3.16-1.91-4.65-2.9-2.82-1.87-4.86-3.89-6.95-6.62-.74-.96-2.46-1.72-3.07-2.97-1.94,4.73,1.54,4.19,2.31,6.34l-1.03-.4c-.76-.29-1.29,4.2-6.33,2.08l.58,4.5-1.87-.54.48,3.88-2.02-.74.02,3.48c-.47,0-1.27-.26-1.87-.52l-.2,3.6-1.7-.69-.41,3.41-1.93-.94c-3.46,5.62-8.16,9.85-13.56,14.12,13.36-1.59,24.88-8.89,33.2-18.81ZM12.79,46.06c4.8-4.12,9.51-8.15,12.84-13.55.26-1.92-.11-4.3,1.72-5.74-.42,2.1-.54,4.18.04,6.44-3.98,4.98-8.72,9.83-14.6,12.85Z"/>
      <path class="cls-1" d="M45.97,12.57c.79-1.1,1.76-2.3,2.64-2.5,1.14-.25,2.63.42,3.27,1.28l1.42,1.9c.92-6.07-3-11.82-8.91-13.26.76,2.32-.25,4.34-.41,6.08l1.99,6.49ZM47.97,4.22c.72,0,1.3.58,1.3,1.3s-.58,1.3-1.3,1.3-1.3-.58-1.3-1.3.58-1.3,1.3-1.3Z"/>
      <path class="cls-1" d="M37.43,23.31c.34-3.36.21-6.24-.7-9.35l-4.28,4.68c1.35,2.09,2.65,3.8,4.97,4.66Z"/>
      <path class="cls-1" d="M39.93,10.67c-.86.85-1.72,1.79-2.26,2.54.56,2.95.82,5.36,1,8.23,4-2.37,2.72-7.43,1.26-10.77Z"/>
      <path class="cls-1" d="M42.83,7.24l-2.07,2.5c1.02,2.75,1.31,5.01,1.55,8.08,3.59-3.36,2.85-6.19.52-10.58Z"/>
    </g>
  </g>
</svg>