<?xml version="1.0" encoding="UTF-8"?>
<svg id="Warstwa_2" data-name="Warstwa 2" xmlns="http://www.w3.org/2000/svg" viewBox="0 0 56.25 55">
  <defs>
    <style>
      .cls-1 {
        fill: #fff;
      }
    </style>
  </defs>
  <g id="game-icon-v4-rogue-pixarts-store">
    <g id="game-icon-v4-rogue-pixarts-store_125">
      <path class="cls-1" d="M28.87,52.67c9.23-4.93,12.67-16.05,8.32-25.72,2.36-2.95,4.42-5.38,6.81-7.59,1.79.67,3.18.41,4.17-.94.62-.83,1.33-3.18-.14-3.68-1.57-.53-3.26-.9-4.67-2.07-2.39-1.98-5.09-3.83-6.47-6.61-.38-.77-.43-1.94-1.22-2.21-.58-.19-1.72-.02-2.29.43-3.18,2.55-.42,4.4-1.27,5.5-1.83,2.38-4.18,5-6.32,7.18-8.57-2.66-17.69.33-22.61,7.72-5.04,7.57-3.88,17.45,2.03,23.9,6.03,6.58,15.61,8.37,23.66,4.08ZM34.12,10.11l8.37,7.51c0,.6-1.69,1.13-2.35.57l-5.13-4.4c-.99-.85-1.35-2.44-.9-3.68ZM5.84,43.88c-4.03-6.6-2.97-16.63,3.97-20.75l6.99,1.7c10.55,2.56,10.47-2.53,19.04-.57-1.89,2.08-1.95,3.45-1.23,5.48,3.5,9.86-2.56,20.35-12.96,21.8-6.43.9-12.64-2.45-15.82-7.66Z"/>
      <path class="cls-1" d="M46.51,12.4c1.97-.78,3.51-1.77,5.03-3.47-2.52-4.27-5.72-7.28-10.25-8.93-1.27,1.68-2.32,3.85-2.4,5.7,2.29,2.8,4.65,4.76,7.62,6.7Z"/>
      <path class="cls-1" d="M51.76,46.52c.89.61,2.67.48,3.56-.38,2.54-2.43-.8-7.33-2.18-9.93-1.32,3.32-4.72,8.04-1.38,10.31Z"/>
      <path class="cls-1" d="M50.3,29.85l-2.98-6.62-2.71,6.73c-.47,1.15.21,2.96,1.11,3.63.99.74,2.53.7,3.58-.03.87-.6,1.56-2.48,1-3.71Z"/>
      <path class="cls-1" d="M22.76,44.93l1.13-1.8c1.09-1.73,4.25-3.51,4.52-5.8.34-2.85-.6-5.22-2.55-7.19-2.06-2.08-4.88-3.09-7.78-2.45-2.69.6-4.32,2.9-5.71,5.51-.48.89-2.3,1.6-1.32,2.98.32.45,1.13,1.59.83,2.03l-1.08,1.58c-.21.3-.52,1.5-.17,1.45l1.91-.27-.7,2.65,2.37-.91-.36,2.71,2.42-1.22-.13,1.36c-.03.28.55.78.8.64.25-.14.87-.55,1.09-.73l1.34-1.19c.41-.37,2.82,1.57,3.4.64ZM17.21,41.57l-2.11-2c.58-.69,1.62-1.11,2.81-1.23-.06,1.19-.26,2.01-.7,3.23ZM16.18,36.88c-1.24,0-2.25-1.01-2.25-2.25s1.01-2.25,2.25-2.25,2.25,1.01,2.25,2.25-1.01,2.25-2.25,2.25ZM19.61,39.59c0-1.26,1.02-2.29,2.29-2.29s2.29,1.02,2.29,2.29-1.02,2.29-2.29,2.29-2.29-1.02-2.29-2.29Z"/>
    </g>
  </g>
</svg>