<?xml version="1.0" encoding="UTF-8"?>
<svg id="Warstwa_2" data-name="Warstwa 2" xmlns="http://www.w3.org/2000/svg" viewBox="0 0 51.07 53.52">
  <defs>
    <style>
      .cls-1 {
        fill: #fff;
      }
    </style>
  </defs>
  <g id="game-icon-v4-rogue-pixarts-store">
    <g id="game-icon-v4-rogue-pixarts-store_45">
      <path class="cls-1" d="M22.5,50.2c5.1-6.86,11.07-10.75,16.45-17.15,2.11-2.51,3.48-5.37,3.67-8.86l-3.64,1.77-.4-3.04c-.04-.31-.64-1-.93-1.11-.29-.1-.61.37-1,.79l-3.87,4.2-.44,6.71c-1.91-1.01-.71-2.34-1.26-3.47-.17-.33-.96-.98-1.27-.8-2.94,1.74,1.06,8.99-1.11,10-.37.17-1.29.18-1.58-.11-1.77-1.76,3.16-8.67-2.03-11.73l.16,3.35c.02.39-.81,1.17-1.14.96-1.5-1,.08-2.34-.21-6.05-.19-2.46-1.96-3.2-4.18-3.53,1.13-.46,2.58-.71,3.96-.86l6.63-6.8-1.75-2.25c-2.53.99-4.38,2.55-6.14,5.02-2.18-2.77-5.01-5.06-8.65-5.41-3.65-.35-7.08,1.05-9.26,3.6-5.48,6.39-1.1,16.36,5.03,21.09.87-1.2.35-2.19-.1-3.54,1.07.89,2.15,1.75,3.18,2.7l2.95,2.73c1.28,1.18,2.25,3.36,3.44,4.82l-2.76-.06,6.24,7.03ZM6.33,26.22c-1.23-2.14-1.35-5.12-.06-7.61,1.36-2.62,4.35-4.15,7.22-2.81-4.74,1.49-7.21,4.98-7.16,10.42Z"/>
      <path class="cls-1" d="M14.16,39.58l-6.77,6.13c1.44-2.39,3.4-4.38,5.31-6.62.2-.53-.51-1.56-1.23-2.22-4.73,4.82-8.66,10.18-11.47,16.65,5.71-3.44,10.84-6.96,15.5-11.62.52-.54-.55-2.42-1.34-2.32Z"/>
      <path class="cls-1" d="M30.13,27.14l4.67-4.37c.72-.67,1.44-2.06,1.27-2.82l-4.71-4.41-6.29,7c-.16.72.89,2.04,1.58,2.23l5.24-4.55-4.3,5.72c.54.7,2.07,1.6,2.56,1.22Z"/>
      <path class="cls-1" d="M29.48,10.53c2.28,4.27,5.65,7.39,9.49,10.12.67.47,1.07,2.07,1.41,2.92,1-.29,2.46-2.04,1.94-3.02-3.56-2.89-11.13-7.98-10.7-12.87-.81.25-2.42,1.83-2.15,2.85Z"/>
      <path class="cls-1" d="M47.6,0c-1.27-.08-3.55,1.26-3.11,3.11.3,1.29,1.83,3.04,2.71,3.91,2.66-.5,4.05-1.67,3.85-3.86-.15-1.6-1.56-3.03-3.45-3.16Z"/>
      <path class="cls-1" d="M41.73,5.89c-.99.59-2.29,1.78-2.11,2.54l1.32,5.63,2.2-2.24-1.41-5.94Z"/>
      <path class="cls-1" d="M36.97,12.95c.38,1.42.89,2.61,1.96,3.34.52-.81,1.08-1.63,1.01-2.01l-.97-5.35c-1.94.59-2.5,2.15-2,4.02Z"/>
      <path class="cls-1" d="M45.74,7.92c-.53-1.62-1.29-2.79-2.18-4.16-.45.48-1.13,1.63-.97,2.24l1.31,4.97c.76-.68,2.1-2.23,1.83-3.04Z"/>
    </g>
  </g>
</svg>