<?xml version="1.0" encoding="UTF-8"?>
<svg id="Warstwa_2" data-name="Warstwa 2" xmlns="http://www.w3.org/2000/svg" viewBox="0 0 49.05 48.03">
  <defs>
    <style>
      .cls-1 {
        fill: #fff;
      }
    </style>
  </defs>
  <g id="game-icon-v4-rogue-pixarts-store">
    <g id="game-icon-v4-rogue-pixarts-store_41">
      <path class="cls-1" d="M27.43,14.15c2.19.72,3.31-1.24,5.23-.81l-4.01,2.28c-1.04,1.61-2.37,2.38-4.13,2.43-1.86.06-2.5-1.26-3.86-2.39-1.16-.96-2.73-1.82-3.89-2.67,2.25-.08,3.3,2.04,5.63,1.26l-14.07-7.67,6.69,14.24c.81-2.46-1.12-3.7-.78-5.92l2.16,4.69c1.52,1.1,2.52,2.08,2.49,3.94-.04,1.88-1,2.8-2.39,4.13-1.17,1.11-1.96,2.99-2.92,4.26.33-2.11,1.57-3.55,1.39-5.79l-8.28,14.47,14.85-7.24c-2.35-.58-3.74,1.12-5.87,1.03l4.58-2.55c1.2-1.58,2.19-2.73,4.21-2.58,1.74.12,2.67,1.28,3.54,2.84l3.89,2.29c-1.93.24-2.83-1.59-5.07-1.01,4.3,2.67,8.6,5.05,13.66,7.64l-6.79-14.38c-.75,2.3,1.08,3.47.69,5.54l-2.15-4.56c-1.76-.77-2.3-2.11-2.28-3.91.02-1.98,1.15-2.84,2.66-3.72l2.88-4.7c.13,2.26-1.87,3.5-1.32,5.82l8.23-14.27-15.01,7.3ZM24.45,26.56c-1.59,0-2.89-1.29-2.89-2.89s1.29-2.89,2.89-2.89,2.89,1.29,2.89,2.89-1.29,2.89-2.89,2.89Z"/>
      <path class="cls-1" d="M37.84,30.69c.17.92.56,1.84,1.16,2.58,6.17-6.36,9.81-14.03,10.05-22.55l-.54-3.06c.13,9.12-4.04,16.62-10.67,23.02Z"/>
      <path class="cls-1" d="M11.35,17.27c-.32-1-.69-1.68-1.36-2.48C3.88,20.12-1.63,31.77.44,39.45l.22-3.21c.54-7.72,4.92-14.19,10.69-18.98Z"/>
      <path class="cls-1" d="M9.08,48.03c4.26-.17,7.8-1.61,11.48-2.89,4.1-1.97,7.73-4.05,11.43-6.71-1.01-.63-1.87-1.11-2.77-1.53-3.49,2.67-6.85,4.28-10.74,5.74,1.91-.22,3.28-.69,5.37-1.26-1.12,2.72-11.98,5.78-14.76,6.66Z"/>
      <path class="cls-1" d="M19.84,10.66l5.04-2.76,4.73-2.7-6.02,1.97c4.13-4.04,9.67-5.34,14.99-7.17-7.95.87-15.13,4.56-21.38,9.14.76.68,1.84,1.38,2.65,1.52Z"/>
      <path class="cls-1" d="M35.37,40.39c-.68-1.22-1.94-1.17-2.75-.36-4.25,3.05-8.69,5.35-13.42,7.39,5.75-1.38,10.81-4.17,16.17-7.03Z"/>
      <path class="cls-1" d="M16.32,7.84c3.97-3,8.07-5.07,12.41-7.1-5.45,1.33-10.21,4.1-15,6.65.68,1.09,1.76,1.25,2.59.45Z"/>
      <path class="cls-1" d="M12.99,21.4c-.03-.79-.41-1.72-.9-2.45l-3.54,4.61,2.47-1.55c-1.36,2.01-2.83,3.68-3.05,6.32,1.36-2.4,3.01-4.66,5.03-6.93Z"/>
      <path class="cls-1" d="M36,26.78c.02.58.32,1.29.84,2.22l3.27-4.03-1.99.92c1.09-2.23,2.1-4.19,2.65-6.55l-4.76,7.44Z"/>
      <path class="cls-1" d="M27.63,35.97c-.85-.43-1.76-.81-2.46-.94l-6.18,3.68,5.24-1.68-.85,1.65c1.79-.93,2.76-1.57,4.25-2.71Z"/>
      <path class="cls-1" d="M9.25,12.93c.04-.31-.35-1.04-.66-1.36-2.19,2.49-4.19,4.82-5.47,7.78l6.14-6.43Z"/>
      <path class="cls-1" d="M21.44,11.53c.57.62,1.58,1.07,2.29.81l6.46-3.6c-2.47.57-4.4,1.34-6.86,2.29l.29-1.05-2.18,1.56Z"/>
      <path class="cls-1" d="M40.38,36.15c2.18-2.72,4.17-4.69,5.47-7.72l-6.17,6.7.7,1.02Z"/>
      <path class="cls-1" d="M45.4,14.59l-2.78,7.29c1.75-2.21,2.68-4.81,2.78-7.29Z"/>
      <path class="cls-1" d="M6.47,25.84c-1.79,1.78-2.7,4.13-2.9,6.55l2.9-6.55Z"/>
    </g>
  </g>
</svg>