<?xml version="1.0" encoding="UTF-8"?>
<svg id="Warstwa_2" data-name="Warstwa 2" xmlns="http://www.w3.org/2000/svg" viewBox="0 0 53.16 50.82">
  <defs>
    <style>
      .cls-1 {
        fill: #fff;
      }
    </style>
  </defs>
  <g id="game-icon-v4-rogue-pixarts-store">
    <g id="game-icon-v4-rogue-pixarts-store_64">
      <path class="cls-1" d="M31.57,10.66c1.18.5,1.7,1.34,2.28,2.85.47-.2,1.53-.92,1.84-1.48.29-.52-.38-1.56-1.07-2.44,4.86-2.11,9.71-4.11,14.84-6l-6.52,14.94c-.62-.95-1.34-1.77-2.3-1.61-.66.11-1.53,1.05-1.99,1.89.64.33,1.91.71,2.18,1.25l2.09,4.18,3.22-7.98,1.27.78.61-5.36,1.39.48,3.73-12.17-12.3,3.33.62,1.3-4.83.53c-.3.03-.35,1.11-.27,1.36l-7.84,2.85,3.03,1.29Z"/>
      <path class="cls-1" d="M8.58,44.66l8.27-7.66,13.5-12.42-2.89-2.93L6.23,41.89c.61,1.35,1.14,1.96,2.35,2.77Z"/>
      <path class="cls-1" d="M36.49,13.07l-2.46,1.75-4.15,2.63c1.05,2.02,2.79,3.87,4.82,5.11,3.19-5.64,7.25-8.1,9.57-13.94-3.14.88-5.3,2.7-7.78,4.45Z"/>
      <path class="cls-1" d="M17.05,30.07l-5.43.18c-.72.02-1.89.94-2.46,1.29l1.49,1.56-3.25.25c-.81.06-1.99,1.04-2.61,1.6l1.41,1.47-3.72.65c-.83.14-1.88,1.35-2.47,1.99,2.33.56,4.21.94,6.36,1.28l10.68-10.25Z"/>
      <path class="cls-1" d="M11.15,50.82c.78-.6,2.21-1.73,2.39-2.55l.73-3.33,1.48,1.32c1.66-1.81,1.98-3.21,2.33-5.49l1.2,1.28c.81-.58,1.56-1.94,1.64-3.17l.28-4.27-10.83,9.76.76,6.46Z"/>
      <path class="cls-1" d="M31.49,23.73c.33.3,1.59-.75,1.27-1.1-1.05-1.15-2.21-2.34-3.1-3.19-.36-.34-1.68.68-1.38,1.02.98,1.11,2.23,2.39,3.22,3.27Z"/>
    </g>
  </g>
</svg>