<?xml version="1.0" encoding="UTF-8"?>
<svg id="Warstwa_2" data-name="Warstwa 2" xmlns="http://www.w3.org/2000/svg" viewBox="0 0 52.24 48.81">
  <defs>
    <style>
      .cls-1 {
        fill: #fff;
      }
    </style>
  </defs>
  <g id="game-icon-v4-rogue-pixarts-store">
    <g id="game-icon-v4-rogue-pixarts-store_11">
      <path class="cls-1" d="M26.14,14.58l3.8-6.29c1.46-2.41,4.14-3.94,6.69-5.09,3.48-1.57,8.16-.44,9.75,3.15.71,1.6.86,3.62,1.04,4.97-2.08,4.53-4.37,7.22-8.94,9.43l-4.78,2.32c-.32.16.14,1.51.49,1.46.28-.04.99-.18,1.27-.34l3.24-1.81c.54-.3,1.87-.48,2.43-.85,2.11-1.38,3.97-2.6,5.6-4.43,3.36-3.77,4-9.37,1.01-13.49-1.47-2.03-4.04-3.58-6.47-3.13-.23.04-1,.29-1.26.37-.16.05-.17-.34-.26-.72-3.69-.93-9.62,3.73-11.38,6.66l-3.87,6.45c-.28.47,1.2,1.71,1.64,1.35Z"/>
      <path class="cls-1" d="M.14,31.35c-.64,2.94.88,6.65,3.77,7.9,1,.43,2.31.95,3.37,1.23,6.8,1.75,12.92-5.47,16.61-10.3-.28-.69-.84-1.4-1.36-1.86l-4.41,5.33c-.8.97-1.84,1.85-2.75,2.66l1.76.31c-4.22.62-9.56,4-13.49-.9-.71-.88-.8-2.49-.88-3.73l-.96.42,2.73-4.69-1.55-.2c4.98-.94,2.76-2.33,9.88-4.49l3.79-1.15c-.4-.62-.73-1.11-1.07-1.36-.29-.21-1.27-.05-1.63.05l-4.94,1.4,1.28.6C5.83,21.94,1.08,26.99.14,31.35Z"/>
      <path class="cls-1" d="M5.4,43.53c10.66,5.09,20.37-10.95,20.38-11.42,0-.32-.71-.93-1.06-1.15l-4.76,5.59c-2.49,2.92-5.66,4.95-9.3,5.38l1.54.92c-4.12-.28-7.8-1.52-10.91-4,.51,2.42,2.22,3.78,4.12,4.68Z"/>
      <path class="cls-1" d="M31.49,21.2l1.13,1.29c5.76-2.9,8.04-3.38,12.12-8.48,1.5-1.87,1.61-3.97.97-6.31-.49-1.8-2.35-3.24-3.75-3.63-2-.56-4.54-.41-5.68.9l-.62.72c.93-1.07-2.65,0-5.51,4.66l-3.38,5.51,1.41,1.39c2.48-3.77,6.59-11.55,11.9-11.3.85.04,2.41,1.24,2.91,1.96.91,1.32.37,3.39-.1,5.04l-.89,3.13-.24-1.75c-2.72,2.56-5.92,4.33-9.11,5.83-.44.21-1.39.77-1.15,1.05Z"/>
      <path class="cls-1" d="M35.47,25.39c-.1.37.19,1.18.54,1.36.35.18,1.35-.01,1.76-.19,4.23-1.86,11.12-3.9,13.08-8.95l.92-2.37c.85-2.19.59-4.88-.99-6.81.35,10.89-6.95,13.49-15.31,16.97Z"/>
      <path class="cls-1" d="M28.35,33.37c.35.44,1.56.41,1.9-.01.27-.34.1-1.28-.26-1.73-3.81-4.78-7.72-9.22-11.94-13.7-.31-.33-1.59.06-1.62.49-.03.36.14,1.24.38,1.51l5.02,5.65c.59-.69.68-.66.56.29l5.96,7.5Z"/>
      <path class="cls-1" d="M18.86,16.39c.03.33.29,1.19.53,1.42,2.73,2.71,5.29,5.65,7.71,8.65l4.57,5.66,1.06-.53c.19-.1.2-1.11.1-1.3l-1.34-2.29c-.62.68-.73.69-.45-.14l-5.12-6.41c-1.5-1.88-3.61-3.86-5.45-5.45-.3-.26-1.63-.01-1.6.39Z"/>
      <path class="cls-1" d="M21.33,14.55c-.06.21.18.83.42,1.06,4.14,4.05,8.24,8.84,11.76,13.59.37.51,1.16.76,1.52.54.3-.19.57-1.48.32-1.79l-5.5-6.88c-1.41-1.77-5.74-6.82-7.57-7.36-.27,0-.87.57-.95.86Z"/>
      <path class="cls-1" d="M18.89,24.24c-.21-.39-.7-1.13-1.09-1.29-.29-.12-11.35,2.3-13.57,9.3-.42,1.32.25,2.83,1.29,3.35.15-3.77,3.56-7.25,6.51-8.49l6.85-2.88Z"/>
      <path class="cls-1" d="M5.2,45.01c1.38,1.63,3.2,2.4,5.21,2.83,5.05,0,8.86-1.54,11.67-5.71l4.78-7.11c.24-.35.46-.81.45-1.08,0-.27-.86-.74-1.04-.52l-3.74,5.33,1.17.58c-3.06.32-2.86,2.32-8.06,5.55-3.02,1.87-6.9.74-10.45.14Z"/>
      <path class="cls-1" d="M24.83,48.81c3.94-4.88,4.2-7.12,3.35-13.25-3.77,2.87.92,5.22-4.47,10.77l1.12,2.48Z"/>
      <path class="cls-1" d="M19.41,25.73c-2.68.65-5.3,1.72-7.92,3.11-2.81,1.5-5.55,4.84-3.93,8.26,2.79-6.56,6.07-7.95,11.85-11.36Z"/>
      <path class="cls-1" d="M41.87,8.84c-2.39-4.45-9.75,3.15-10.35,5.76l3.39-2.68c2.1-1.66,4.47-2.6,6.95-3.08Z"/>
    </g>
  </g>
</svg>