<?xml version="1.0" encoding="UTF-8"?>
<svg id="Warstwa_2" data-name="Warstwa 2" xmlns="http://www.w3.org/2000/svg" viewBox="0 0 46.67 42.62">
  <defs>
    <style>
      .cls-1 {
        fill: #fff;
      }
    </style>
  </defs>
  <g id="game-icon-v4-rogue-pixarts-store">
    <g id="game-icon-v4-rogue-pixarts-store_103">
      <path class="cls-1" d="M44.19,20.91l-2.01-4.58-1.67,7.44-2.12-6.12-2.34,8.4-2.77-7.3-2.08,7.2c-.1.33-.96.7-1.1.5-.09-.14-.33-.5-.39-.65l-1.89-5.25-2.14,5.24c-.09.23-.44.6-.62.73-.18.13-.83-.34-.93-.58l-1.74-4.16-2.05,4c-.51.19-1.8-.12-2.23-.46-.02-2.82-1.66-4.96-4.36-5.66-1.56-.4-2.99.2-4.06,1.4l-1.65-5.49-1.99,4.53-1.73-6.92-1.75,4.12-1.72-7.77c-.43,2.82-.99,6.08.09,8.87,1.33,3.42,5.3,5.43,8.6,6.78.39-1.76.58-3.06,2.05-3.74.98-.46,2.58-.05,3.51.87,1.37,1.36,1.34,3.24.86,5.33,8.08,2.65,19.6,2.91,26.81-2.29,4.65-3.35,3.56-6.88,3.05-12.25l-1.63,7.79Z"/>
      <path class="cls-1" d="M42.42,12.5l-1.42-6.27-2.12,4.38-1.79-6.13-1.39,3.37c-1.72-2-4.44-3.45-6.74-1.95-.62.41-1.47.82-2.21.8l-1.91-4.48-1.24,3.31c-.12.32-.66.94-.98.85-.26-.07-.71-.53-.82-.8l-1.78-4.61-1.63,4.73c-.08.24-.55.67-.81.69-.19.01-.55-.38-.63-.59L14.81,0l-1.54,6.25c-.05.19-.34.63-.44.77-.11.14-.7-.19-.8-.45L9.91.56l-2.03,7.98-2.41-6.12-1.36,7.26c-.95-1.82-1.3-2.95-1.98-4.77-.29,1.07-.42,2.5-.19,3.69l.97,4.98,1.47-2.94.95,2.19c7.39-3.97,14.76-4.05,22.91-3.28.19-1.2.63-2.38,1.49-2.78.91-.41,2.15-.23,3.09.28,1.53.82,1.53,2.8,1.67,4.4l6.81,3.62.84-1.46,1.84,3.5c.72-2.94,1.23-5.91.19-8.98l-1.75,4.37Z"/>
      <path class="cls-1" d="M44.62,39.25c.13.09.19.8.19.96,0,.16.67.12.73-.03l1.03-2.54c.56-1.38-1.17-4.01-2.68-3.73-.85.15-1.55.35-1.88.27-.33-.09-.49-.82-.78-1.33-.74-1.34-3.32-1.76-4.57-.78-.3.24-.91,1.27-1.23,1.06l-1.23-.78c-1.22-.78-3.65-.29-4.44.91-.23.35-.58,1.24-.88,1.16-.52-.13-3.96-1.55-5.1.74-.34.69-.73,1.43-1.23,1.8-1.71-1.11-4.28-.77-5.05,1.24-.13.35-.63,1.12-.89.95l-1.02-.65c-.92-.59-3.09-.06-3.72.79-.37.49-.73,1-1.05.98-.68-.06-2.43-2.88-4.63-1.98l-1.04.43c-1,.41.44-3.1-2.84-4.96l.13-1.1c.08-.68.46.55.96.45,1.11-.24,2.38-2.23,2.89-3.48,1.39.53,2.56.92,3.73.3,1.05-.55,1.28-1.52,1.86-2.71l.94-1.92c.09-.18.54-.68.64-.51.09.16.21.43.15.57l-.43.93c.15.08.99,0,1.29-.17.3-.18.61-1.16.53-1.54-.2-.96-1.2-1.71-2.04-1.79-.97-.09-2.02.79-1.96,1.68l.36,1.17c.24.78-3.16-.41-4.71,1.77-.24.34-.37,1.44-.76,1.36-.46-.09-1.01-.25-1.6-.44-1.54-.49-3.77,1.66-3.28,3.22.52,1.64.21,2.25-.72,3.48-.91,1.21.6,4.22,2.16,4.31.69.04,1.67-.28,1.93.16.37.63.56,1.06.86,1.71.61,1.36,3.18,1.82,4.32.92.39-.31.97-1,1.26-.83.32.19.86.55,1.3.86,1.23.86,3.6.46,4.41-.89.2-.32.46-1.32.75-1.2l1.37.58c1.07.45,3.41-.35,3.89-1.49.23-.53.45-1.5.82-1.5.31,0,.79.27,1.3.44,1.16.39,3.12-.42,3.63-1.44.27-.53.54-1.13.83-1.25.29-.12.86.26,1.29.5,3.06,1.69,4.85-2.2,5.3-1.74l.93.93c.66.67,2.73,1.04,3.61.57.58-.31,1.22-.71,1.56-.43,1.23.99-1.23,1.32,2.8,3.98ZM9.3,27.05l1.48,1c-.55.47-1.42.96-2.51,1.38l.23-.91c.04-.17-.29-.22-.84-.48-.27-.41,1.17-1.3,1.64-.98ZM4.19,29.08l-.27,1.05c-.05.18.16.35.56.9l-1.38,1.06-.2-.81c-.05-.2-.61-.11-1.05-.11.12-.96,1.27-1.9,2.34-2.09ZM2.61,37.29v1.02c-1.06-.41-1.63-1.62-1.66-2.85l.74.37c.19.1.43-.14,1.08-.52.1.19.58,1.3.75,1.75.05.13-.91.1-.91.24ZM8.77,41.44c-.47.24-2.11.11-2.25-.44l-.13-1.95,2.45.6-.55.93c-.1.18.24.47.48.85ZM12.7,41.62l.52-1.14c.09-.19-.33-.36-.88-.87l2.96-.25-.67.88c-.1.13.22.25,1,.76-.85.32-1.96.57-2.93.62ZM19.25,39.85l.05-.8c.01-.21-.33-.37-.93-.86.8-.46,1.94-.84,2.98-.96l-.48.67c-.08.11-.28.23-.19.29l1.07.75-2.5.9ZM25.07,37.35c-.08-.75-.11-.91-.42-1.79.38-.34,1.65-.76,2.56-.86l-.47.77c-.11.18.03.21,1,.88l-2.68,1ZM31.13,35.19l.42-.84c.1-.2-.51-.39-1.07-.75.94-.38,2.03-.63,3.07-.67l-.74.94c-.1.13.29.31.94.77-.59.45-1.79.72-2.61.56ZM39.4,33.79c-.18.08.23.5.53,1.11l-2.96-.3c.48-.39,1.19-.71,1.06-.88l-.81-1.03c1.16-.09,2.34.15,3.4.59l-1.22.51ZM43.96,35.78l.02-1c.89.31,1.78,1.71,1.74,2.5l-1.54.55-1.25-1.67c.58-.17,1.02-.21,1.03-.38Z"/>
      <path class="cls-1" d="M18.91,21.89l3.43-3.11c2.53.67,5.24-.65,6.59-2.57.31-.44-.11-1.6-.39-2.11l3.2-2.29c.42-.3,1.08-.46,1.27-.78s.19-1.31.07-1.74c-.23-.83-1.17-1.36-1.94-1.42-.87-.08-1,1.37-1.52,1.81-1.39,1.18-2.86,2.19-4.37,3.22-2.48-.65-4.78-.07-6.59,1.6-.88.81-.59,2.1.25,3l-2.36,1.99,2.36,2.42Z"/>
    </g>
  </g>
</svg>