<?xml version="1.0" encoding="UTF-8"?>
<svg id="Warstwa_2" data-name="Warstwa 2" xmlns="http://www.w3.org/2000/svg" viewBox="0 0 45.14 44.19">
  <defs>
    <style>
      .cls-1 {
        fill: #fff;
      }
    </style>
  </defs>
  <g id="game-icon-v4-rogue-pixarts-store">
    <g id="game-icon-v4-rogue-pixarts-store_77">
      <path class="cls-1" d="M10.09,38.08l1.11,6.11c2.44-1.35,4.12-3.06,5.42-5.06.85.71,1.61,1.28,2.23,1.66l.38-4.06,1.01.43c.28.12,3.57-9.82,2.05-12.76-2.12,3.78-.63,4.97-5.35,7.83l-2.39,5.27c.15-1.73.47-3.2.79-4.74l-3.39.66.03-3.89c-2.24,1.92-3.85,4.18-5.11,6.9.08-2.97,1.81-4.85,3.55-7.36l-4.77.36-2.7,3.51,1.28.45-1.83,8.43c3.01-.01,5.81-1.39,7.67-3.74Z"/>
      <path class="cls-1" d="M43.62,33.34l1.09-.46-2.72-3.51-4.85-.38c1.92,2.29,3.59,4.51,3.79,7.44-1.42-2.59-2.82-4.79-5.17-6.82l-.02,3.79-3.57-.65c.47,1.57.89,3.12,1,4.71l-2.48-5.03c-4.84-3.08-3.14-4.17-5.41-8.29-1.45,3.24,1.02,10.97,2.23,13.12.08.13.44-.21.89-.47.18,1.24.22,2.29.19,4.03.78-.45,1.82-1.22,2.48-1.91,1.16,2.32,3.02,3.98,5.4,5.25.56-2.14.83-3.86,1.1-6.07,1.86,2.4,4.52,3.72,7.57,3.66l-1.5-7.33c-.07-.34-.25-.98-.02-1.08Z"/>
      <path class="cls-1" d="M31.18,15.46c.64,1.6-1.35,2.63-2.24,3.72,1.55-.26,3.67-1.17,4.48-2.93.63-1.35-.35-3.1-.98-4.36-3.12-6.19-.23-7.73-7.06-11.51-1.18-.65-2.12-.37-3.2.07-3.21,1.3-4.77,3.67-5.38,7-.69,3.82-3.93,7.48-2.34,9.35,1.11,1.3,2.67,2.13,4.08,2.34-.75-1.05-2.56-2.2-2.12-3.53,1.81-5.43,3.54-6.49,8.54-8.97,2.44,1.03,5.42,6.85,6.21,8.82Z"/>
      <path class="cls-1" d="M22.54,23.54c.05-1.85-1.46-2.33-2.9-2.71-2.01-.53-3.77-1.57-5.7-2.36-1.91-.78-4.04,1.36-4.94,2.77l3.81,1.09-.3-2.42c2.05.02,1.85,1.66,2.47,2.83,1,1.86,4.25,1.73,5.71.26l1.86.55Z"/>
      <path class="cls-1" d="M38.48,21.28c-.65-1.48-2.85-3.53-4.57-2.82-2.16.88-4.08,1.84-6.28,2.51-1.17.36-2.12,1.07-2.5,2.2l1.89-.1c.69.41,1.7.87,2.52.98,4.81.59,2.3-4.33,5.63-4.08l-.38,2.42,3.68-1.11Z"/>
      <path class="cls-1" d="M8.6,19.04l3.99-2.35c-.56-2.86,2.23-5.7,1.1-5.68-1.79.04-6.26,3.11-7.87,4.27l2.78,3.75Z"/>
      <path class="cls-1" d="M14.04,24.34c-2.28.09-3.76.4-5.82.76l2.96-1.71c-2.85-1.8-6.04,1.58-7.31,4.28,4.66.93,7.64.79,10.16-3.32Z"/>
      <path class="cls-1" d="M36.54,23.32l2.38,1.48-5.31-.52c1.97,3.99,5.93,4.34,10.25,3.36-1.56-2.99-3.96-5.69-7.31-4.33Z"/>
      <path class="cls-1" d="M34.47,31.8c-.1-2.46-.57-6.53-4.25-6.6l1.42,3.09c-1.37-1.36-2.51-2.46-4.19-3.37,0,4.1,3.01,6.56,7.03,6.88Z"/>
      <path class="cls-1" d="M13.21,31.83c3.81-.28,6.85-2.86,6.96-6.82-1.61.76-2.82,1.83-4.27,3.27l1.42-3.06c-3.48-.16-4.11,4.17-4.11,6.61Z"/>
      <path class="cls-1" d="M7.68,12.98c-1.54-2.3-2.99-4.22-4.67-6.28-.5-.61-2.22-.58-3.01-.39,3.1,4.71,2.21,4.32,7.68,6.67Z"/>
      <path class="cls-1" d="M6.9,7.1l-2.62-3.52c-1.8,2.93,1.21,4.6,3.28,7.38.36-1.35.13-2.79-.66-3.86Z"/>
      <path class="cls-1" d="M7.72,2.23l1.07,4.62c.77.97,1.45,1.71,2.58,2.59-.74-2.87-.52-6.99-3.64-7.2Z"/>
      <path class="cls-1" d="M13.15,5.04L12.03.34l-1.48,2.67,1.81,5.64c.84-1.23,1.05-2.52.79-3.61Z"/>
      <path class="cls-1" d="M19.47,11.22c.22.88.56,1.5.99,1.67.61.24,1.49.13,2.21-.22-1.24-.79-1.96-1.13-3.2-1.46Z"/>
      <path class="cls-1" d="M28.02,11.37c-.93.03-2.1.57-3.1,1.35,1.16.59,2.62.63,3.1-1.35Z"/>
    </g>
  </g>
</svg>