<?xml version="1.0" encoding="UTF-8"?>
<svg id="Warstwa_2" data-name="Warstwa 2" xmlns="http://www.w3.org/2000/svg" viewBox="0 0 39.25 49.52">
  <defs>
    <style>
      .cls-1 {
        fill: #fff;
      }
    </style>
  </defs>
  <g id="game-icon-v4-rogue-pixarts-store">
    <g id="game-icon-v4-rogue-pixarts-store_55">
      <path class="cls-1" d="M21.8,10.18l-.31-2.89c-.07-.68-1.77-1.2-2.44-1.05-.59.13-1.51,1.1-1.6,1.76l-.37,2.43C5.22,12.05-2.35,23.58.66,34.95c2.95,11.16,15.11,17.43,25.96,13.29,10.93-4.17,15.91-16.97,10.31-27.52-3.09-5.82-8.66-9.5-15.13-10.54ZM19.63,45.95c-8.9,0-16.11-7.21-16.11-16.11S10.73,13.73,19.63,13.73s16.11,7.21,16.11,16.11-7.21,16.11-16.11,16.11Z"/>
      <path class="cls-1" d="M22.99,8.15c2.47-2.17,1.66-5.28-.29-6.99-2.07-1.81-5.1-1.44-6.87.63-1.59,1.87-1.66,5.05.71,6.66,1.58-1.03-1.66-3.52.9-5.88.97-.89,2.63-1.01,3.77-.36,3.13,1.79.22,5.15,1.78,5.92Z"/>
      <path class="cls-1" d="M28.63,20.4c-12.94,7.98-10.48,4.46-17.98,18.49,13.66-7.96,10.28-4.86,17.98-18.49ZM19.61,31.42c-.92,0-1.66-.74-1.66-1.66s.74-1.66,1.66-1.66,1.66.74,1.66,1.66-.74,1.66-1.66,1.66Z"/>
      <path class="cls-1" d="M17.84,36.18c.49,2.71,1.02,5.15,1.84,7.76l2.28-9.11,5.19,2.52-2.48-5.25,9.2-2.37-7.68-1.76c-3.7,6.07-1.71,4.83-8.35,8.22Z"/>
      <path class="cls-1" d="M16.49,26.23l4.93-3.34-1.77-7.19-2.25,8.97-5.2-2.53,2.27,5.26-9.29,2.36,7.8,1.81c1.21-1.87,1.87-4.24,3.51-5.35Z"/>
    </g>
  </g>
</svg>