<?xml version="1.0" encoding="UTF-8"?>
<svg id="Warstwa_2" data-name="Warstwa 2" xmlns="http://www.w3.org/2000/svg" viewBox="0 0 46.38 44.29">
  <g id="game-icon-v3-dark-magic-pixarts-store">
    <g id="game-icon-v3-dark-magic-pixarts-store_109">
      <path d="M10.61,33.37c.04-3,1.29-3.8,3.06-5.29,3.39-2.84,6.42-1.02,5.57-2.04-1.33-1.6-3.2-1.4-3.25-5.14-2.7.54-4.95-2.46-6.77-4.63-.49-.58-.4-2.38-.47-3.01-1.28-.47-2.52-1.1-3.27-2.14l-2.48-3.4c-7.46,9.11.47,19.12,7.61,25.65Z"/>
      <path d="M41.17,10.97c-.72,1.1-2.03,1.73-3.45,1.94.25,1.41.08,2.89-.86,3.95l-2.39,2.67c-1.06,1.19-2.48,1.52-4.13,1.36.6,3.95-1.99,3.88-2.47,5.76,2.34-.62,3.5.34,5.04,1.47,1.78,1.3,3.21,2.53,3.3,5.18,7.04-6.64,14.5-16.73,7.17-25.68l-2.19,3.35Z"/>
      <path d="M21.36,29.42c-.25.75-.32,2.38-.87,2.84l-3.87,3.24c-1.14.36-2.18.51-3.53.57l10.13,8.22,9.89-7.97c-.59-.15-1.87-.19-2.28-.45-2.21-1.41-5.14-3.22-5.64-5.82-.46.34-1.47,1.85-1.24,2.47l1.93,2.79-2.04,4.87c.18-1.71.52-3.04.9-4.73-.68-.89-1.73-1.93-2.81-3l1.75-4.07c-.74-.14-2.06.31-2.31,1.05Z"/>
      <path d="M9.67,3.65l2.77,4.37c.39.62.14,2.14.03,2.78,2.51-.24,7.22,5.06,6.45,7.54l2.55-.13,2.15-4.34-3.29-2.35,1.33-3.72c-3.04-3.62-7.48-5.16-12-4.15Z"/>
      <path d="M27.7,18.32c-.85-2.51,3.99-7.73,6.51-7.63-.17-.9-.27-2.52.22-3.29l2.38-3.71c-4.33-.99-8.69.46-11.57,3.72-.49.55-1.34,2.33-.85,2.88.87.97,1.83,1.84,2.78,2.76l-3.06,5.02,3.6.23Z"/>
      <path d="M17.23,30.47c.22,0,.82-.17,1.08-.39l5.58-4.69c.18-.15.28-.82.2-1.02-.07-.21-.89-.29-1.11-.1l-5.65,4.93c-.24.21-.4,1.28-.11,1.27Z"/>
      <path d="M4.38,0c-.26-.02-.67.84-.56,1.12l1.9,5.1c.11.3,1.17.63,1.34.36.14-.21.15-.64-.03-1.15L5.38.64C5.29.38,4.63.02,4.38,0Z"/>
      <path d="M20.32,21.99c.05-.23-.05-.86-.22-1.02l-4.3-4c-.19-.17-.98-.15-1.14.03-.16.18.06.85.24,1.03l4.33,4.03c.18.17,1.04.17,1.09-.07Z"/>
      <path d="M33.1,32.1c-.16-.11-.86.04-1.05.07-.19.03.01.89.19,1.03l4.64,3.64c-.5-.39,4.97,1.57-3.78-4.74Z"/>
      <path d="M42.12.03c-.18.04-.86.28-.93.46l-1.92,4.92c-.13.34-.22.81-.13,1,.09.19.52.32.73.29.14-.02.66-.49.73-.66l2.04-5.01c.11-.26-.28-1.07-.51-1.01Z"/>
      <path d="M8.41,36.62c-.11.14.87.63,1.06.48l5.22-4.12c.23-.18.31-1.15.06-1.11-.16.03-.82.06-.96.16l-4.72,3.51c-.2.15-.52.87-.67,1.07Z"/>
      <path d="M29.3,21.57l-6.05,5.37c.5.25,1.7.31,2.05,0l3.56-3.18c.44-.39.68-1.73.44-2.2Z"/>
      <path d="M21.34,24.76l5.61-4.86c.17-.15-.28-.85-.47-.78-.13.05-.76.15-.86.24l-3.73,3.15c-.66.72-1.13,1.57-.56,2.24Z"/>
      <path d="M31.46,16.81c-.15.06-.77.23-.88.34l-3.99,3.91c-.24.23-.37,1.2-.09,1.25.21.03.91-.1,1.1-.29l4.28-4.21c.17-.17-.21-1.1-.43-1.01Z"/>
      <path d="M38.11,8.87c-.1-.18-.95-.01-1.08.17l-3.45,4.81c-.15.21.01,1.01.15,1.18.14.17.74-.19.97-.5l3.43-4.65c.15-.21.08-.82-.03-1.01Z"/>
      <path d="M12.99,14.9c.11-.15.13-.99.01-1.13l-3.57-4.64c-.18-.23-1.15-.28-1.2-.03-.06.26.08.87.27,1.11l3.53,4.55c.3.17.81.34.96.14Z"/>
      <path d="M28.41,27.8l6.46,4.76c1.36-1.15-5.52-6.62-6.46-4.76Z"/>
      <path d="M42.03,4.98l-4.15,6.79c1.33,1.29,6.02-5.81,4.15-6.79Z"/>
      <path d="M13.1,19.09c.54.59,1.88.87,2.41.64l-5.36-6.08c-.41.53-.29,1.85.22,2.41l2.73,3.02Z"/>
      <path d="M33.12,19.48l3.21-3.5c.56-.62.57-1.98.07-2.54-1.53,2.38-3.04,4.01-5.16,6.16.23.3,1.55.24,1.88-.11Z"/>
      <path d="M8.67,11.89l-4.42-7c-1.61,1.26,3.07,8.08,4.42,7Z"/>
      <path d="M27.44,32.14l3.5,2.72c.51.39,1.7.42,2.19,0l-6.55-4.98c-.11.97.28,1.81.87,2.26Z"/>
      <path d="M15.48,34.95l3.87-2.9c.54-.41.92-1.47.83-2.3l-6.4,4.9c0,.33,1.33.57,1.7.29Z"/>
      <path d="M7.09,3.93l3.57,5.69c.14.23.79.63.84.45.05-.18.33-.84.26-1.01-.06-.15-3.15-6.39-4.66-5.13Z"/>
      <path d="M11.94,32.55l6.16-4.96c-1.17-1.45-7.42,3.54-6.16,4.96Z"/>
      <path d="M12.41,12.04l5.41,5.77c1.26-.97-4.31-7.28-5.41-5.77Z"/>
      <path d="M35.49,10.13l3.41-5.42c.46-3.71-5.8,5.44-3.41,5.42Z"/>
      <path d="M29.07,17.78l5.1-5.93c-1.37-1-6.96,5.23-5.1,5.93Z"/>
      <path d="M7.83,37.69c-.06,1.33,1.26,2.79,2.33,2.32,1.27-.55,1.88-2.37,1.6-3.63l-2.18,2.21-1.75-.91Z"/>
      <path d="M35.06,36.51c-.23,1.09.23,3.09,1.57,3.28,1.08.15,2.25-1.5,2.2-2.52l-1.99.92-1.77-1.67Z"/>
      <path d="M25.81,27.93c.06.45,4.33,4.12,3.85,2.32-.05-.18-.13-.69-.27-.81l-2.25-1.99c-.28-.25-1.37.11-1.33.48Z"/>
      <path d="M19.79,25.1c.29-.54-.03-1.66-.61-2.15l-2.04-1.72c-.23,1.95,1.08,2.91,2.66,3.87Z"/>
      <path d="M4.45,34.86c1.12.65,3.84,1.81,4.15.03-1.24-.75-2.78-.96-4.15-.03Z"/>
      <path d="M39.87,35.68l2.05-1c-1.24-1.04-2.86-.53-4.05.18.1.72,1.31,1.16,2,.82Z"/>
      <path d="M39.6,2.34l-.12-.86-3.41.12c.78,1.06,3.68,1.89,3.53.74Z"/>
      <path d="M6.58,1.84c1.1,1.87,2.64.81,3.7-.29-1.18-.11-2.39,0-3.7.29Z"/>
      <path d="M6.93,33.44c.73.3,1.8.34,2.66.27l-2.69-2.33c-.22.24-.42,1.87.03,2.06Z"/>
      <path d="M22.67,20.64c.04-.91-2.08-1.85-2.73-1.15.14.87,2.04,2.51,2.73,1.15Z"/>
      <path d="M42.98,4.54c.6.14,1.7.26,2.41.3l-2.25-2.03c-.25.16-.6,1.62-.16,1.73Z"/>
    </g>
  </g>
</svg>