<?xml version="1.0" encoding="UTF-8"?>
<svg id="Warstwa_2" data-name="Warstwa 2" xmlns="http://www.w3.org/2000/svg" viewBox="0 0 37.66 53.92">
  <g id="game-icon-v3-dark-magic-pixarts-store">
    <g id="game-icon-v3-dark-magic-pixarts-store_120">
      <path d="M36.27,25.75c1.95-5.67,2.25-13.11-1.69-18.29C28.41-.65,17.07-1.97,8.52,2.64,3.89,5.13,1.11,8.83.34,14.06c-.58,3.94-.54,8,1.1,11.52,1.05-7.14,2.22-6.54,2.58-12.69.96,2.32.99,4.78-.11,7.16-2.52,5.44.45,7.36-3.71,9.56.59,1.61,1.47,3.14,2.76,4.48,2,2.07,4.25-1.16,7.05,1.46.72.67.87,2.69,1.08,3.71,1.2.25,2.5.63,3.28,1.02l1-.32c-3.25,1.04,5.63-.69,3.22.34,1.23.17,7.33-.46,8.16-1.15.1-1.76.19-3.03,1.23-3.89,2.24-1.87,4.95.35,6.14-.67,1.22-1.04,2.61-3.08,3.08-4.45-1.27-1.24-2.1-2.24-2.16-3.83-.31-7.38-2.79-5.76-1.32-12.13l.75,4.68,1.14-2.23c-.32,4.64-.32,4.34.66,9.12ZM8.06,29.85c-2.2.11-2.94-1.42-3.16-3.14l-.46-3.64c1.29-2.41,3.96-2.11,5.97-2.99,3.47-1.52,4.26,4.01,7.31,2.59-3.02,2.24-.27,6.72-9.66,7.18ZM20.4,36.18l-1.54-2.2-1.39,2.05c-3.5-.73-.58-6.75.28-8.81l2.24.16,2.01,5.5c.43,1.16-.06,2.69-1.6,3.3ZM31.09,29.37c-2.71.97-7.08.13-8.51-2.37-.92-1.6-1-3.23-2.95-4.38,3.69,1.41,3.97-3.64,7.28-2.6,2.05.65,4.37.72,5.91,2.38.64.7.69,6.1-1.73,6.96Z"/>
      <path d="M30.79,39.01l-.38-2.48c-1.85,3.24.26,4.5-3.3,9.15l-.53-1.05c-3.69,3.16-8.68,3.33-13.05,1.35-.99-.45-1.89-.58-2.52-1.5l-.36,1.15c-3.42-4.29-1.47-5.6-3.33-8.93l-.39,3.16c-.4-1.44-.27-2.81-1.61-3.5.45,3.47.67,6.28.45,9.73.76,1.04,2.1,2.21,3.22,3.09,2.13,1.68,4.1,3.98,6.92,4.48,1.97.35,4.48.36,6.45.02,2.41-.41,4.01-2.53,5.85-4.03,6.54-5.36,2.2-1.58,4.23-13.31-.95.66-1.26,1.61-1.63,2.68Z"/>
      <path d="M20.74,43.57c.39-.33.41-2.45-.22-2.88-.2-.13-1-.08-1.03.15l-.18,1.26c-.05.37.11,1.18.24,1.51.1.26.98.14,1.19-.04Z"/>
      <path d="M18.24,43.6c.29.02.37-.98.4-1.65.02-.35-.63-1.28-.97-1.25-.35.03-.71.72-.85,1.22-.11.41-.07,1.59.29,1.61l1.12.06Z"/>
      <path d="M22.34,40.69c-.72.15-.9,2.47-.18,2.77,1.36-.31,1.2-2.72.18-2.77Z"/>
    </g>
  </g>
</svg>