<?xml version="1.0" encoding="UTF-8"?>
<svg id="Warstwa_2" data-name="Warstwa 2" xmlns="http://www.w3.org/2000/svg" viewBox="0 0 56.61 49.01">
  <g id="game-icon-v3-dark-magic-pixarts-store">
    <g id="game-icon-v3-dark-magic-pixarts-store_11">
      <path d="M36.19,35.75c-.24,1-1.13,1.75-2.06,1.98l-4.56,1.11c7.97,2.17,6.42,3.38,10.1,10.17,2.82-3.13,2.55-1.78,2.24-6.19l2.08,3.08c.95-.73,2.21-1.79,2.56-2.68-.13-5.14-2.55-9.21-5.35-13.03,4.06,2.96,5.8,7.04,7.91,11.47l2.23-4.35.79,1.69c.85-1.88,2.32-4.1,2.06-6.16-.34-2.73-2.76-4.67-4.49-6.51l2.11.47c-2.68-4.5-4.15-2.9-7.52-6.31,1.98.76,3.09,1.13,4.77,1.11l2.7,3.14,3.49,4.01c.52-2.2.74-4.84.85-7.29.02-.44.58-1.3.52-1.71-.36-2.43-5.58-1.82-6.52-3.81l-4.71-2.19c-1.58-.74-3.32-1.12-4.75-1.09l-1,7.82-.63-2.26-2.81,2.38c2.81-3.48,3.76-7.36,1.81-11.46-1.75-3.67-.39-4.71-1.09-9.13-3.91,4.49-7.31,8.5-8.71,13.93-.36-1.2-.24-2.21.08-3.53-5.57.68-10.56,3.69-15.48,6.73-.98.6-1.44,2.19-1.13,3.02.4,0,1.1-.12,1.11.08l.02.82c0,.2-.65.28-.89.37l-7.75,3.28c1.12.58,2,1.35,1.93,2.34-.17,2.57-3,1.69-3.18,3.74-.06.67.8,1.49,1.66,1.57,6.93.64,9.79-6.78,16.14-1.02,1.32,1.2,2.79,2.34,2.46,4.49l-.81-1.58c-.34,1.89-.85,3.27-2.14,4.31l-3.93,3.16c-1.53,1.23-3.59,1.55-5.53,1.63l-.75.03c-2.14.09,4.38,5.28,7.97,1.52.56-.59,1.25-2.02,1.94-2.46l5.9-3.77c2.48-1.58,5.64-1.8,8.53-2.7l3.3-5.51c1.01-1.69-1.11-3.98-.81-5.82,4.51,8.5.26,7.29-.65,11.12ZM13.69,21.7c-1.22-1.8,1.16-4.17,2.91-4.28-1.08.85-2.6,1.96-1.91,3.49.35.78,2.09.32,2.67-.3,1.9-2.02,4.35-2.5,6.75-1.69-3,.96-2.21,4.01-3.4,4.14l-2.58.28c1.36,1,3.03,1.13,4.66.34-1.16,1.85-3.54,1.41-5.25.36l-3.85-2.35ZM20.02,28.9c1.73.33,3.68.85,4.33,3l-4.33-3ZM31.88,25.52c-.66.95-1.7,1.68-2.83,2.15,1.13-3.39,3.05-1.71,2.09-6,1.06.78,1.59,2.63.73,3.85ZM34.75,17.79c-.14.11-.84.42-.9.29l-.41-.99c-.25-.6-1.04-1.16-1.74-1.63-2.2-1.48,2.51-10.36,4.17-11.88-.4,2.93-2.82,6.58-2.03,9.08l1.35,2.25,1.21-2.23c.27,1.83-.26,4-1.65,5.11Z"/>
      <path d="M20.04,11.77l5.03-2.07c-1.87-1.97-2.72-4.23-3.55-6.94-1.38,2.73-1.67,6.14-1.47,9.01Z"/>
      <path d="M13.02,41.97c.42.29,1.55-.54,1.98-.88l4.02-3.15c-.54-1.09-.42-1.09.33-.46,1.11-.53,1.86-1.9,1.62-3.06-2.54-.47-4.43,1.64-4.91,4.09l-1.84,2.29-2.32-1.87c-.04.85.4,2.54,1.12,3.03Z"/>
      <path d="M5.26,26.7c-.19-1.51-4.25-1.68-5.14,0-.64,1.2,1.42,3.7,1.57,3.62l.8-.43c.2-.11-.26-.82-.42-1.16-.14-.3.46-1.07.75-.96l1.2.47c.53.21,1.33-.89,1.24-1.53Z"/>
      <path d="M8.12,33.59c.16,1.15,1.08,2.43,1.95,2.91l-.4-3.76c-.31-.19-1.61.42-1.55.85Z"/>
      <path d="M12.95,30.92c-.27.14-.11.97.16,1.06.22.08.98.05,1.03-.17l.23-.98,1.84,1.04-.09-.93,1.02.06c.9.05-.54-1.96-4.19-.08Z"/>
      <path d="M6.87,33.42l-2.84-.07c.2,1.07.76,2.08,1.71,2.7l-.39-2.11,1.53.56c.24.09.26-1.07,0-1.08Z"/>
      <path d="M9.07,41.45c-.02.61,2.71,1.01,2.62.6l-.22-.98c-.05-.23-.8.16-1.1.37l-1.23-1.79-.07,1.8Z"/>
      <path d="M20.32,21.58c.22-.38.19-.93.03-1.74l-2.58,1.96c1.19.49,2.22.35,2.55-.21Z"/>
    </g>
  </g>
</svg>