<?xml version="1.0" encoding="UTF-8"?>
<svg id="Warstwa_2" data-name="Warstwa 2" xmlns="http://www.w3.org/2000/svg" viewBox="0 0 54.1 54.68">
  <g id="game-icon-v3-dark-magic-pixarts-store">
    <g id="game-icon-v3-dark-magic-pixarts-store_29">
      <path d="M46.43,14.84l-6.92-8.03-.41,1.9-7.82-5.34c-.16.51-.62,1.9-1.14,2.18-2.24,1.24-5.67.03-6.79-2.26-1.66.32-3.25.02-4.8-1.15l-.86,1.22c-1.44-2.58-8.12-1.54-11.16-.22l5.9,1.32c2.01.45,1.95,2.39,2.73,1.77l.88-.71c.42,1.97-.55,4.12-1.5,5.99l3.98,1.91c1.5-1.91,1.37-4.48,4.8-4.9,1.65-.2,3.07.29,4.44,1.81l3.65-.48,2.75,2.02c5.15-.11,11.67,5.3,14.16,9.31-3.7-3.24-7.19-6.87-12.2-7.9-1.87-.39-3.43-.49-4.68-2.27-6.66,1.13-3.93-1.18-7.43-1.34-.82-.04-2.12.69-2.58,1.2,1.28.39,2.43.88,2.55,1.8.08.62-.33,1.65-.67,2.5l4.19-.3c.78-.06,3.43-2.24,3.47-.84l.04,1.34c2.7,1.83,8.06-.56,7.77.95l-.29,1.51,5.97,3.65c.33.2.88.57,1.11.43l.96-.6.73,2.29c2.56,2.93,4.7,5.9,6.83,9.06-.1-7.5-2.7-14.19-6.81-19.79l-.86,1.95Z"/>
      <path d="M15.5,12.96c-.4-.06-1.33.66-1.35,1.06l-.09,1.73c-.74.68-1.51,1.55-1,2.78l-2.68,3.1,1.85,1.03c-.1,2.29.02,5.01-.89,7.09l-2.06,4.68,2.39,2.26c1.25-2.85,2.3-5.65,3.19-8.43.52.66,1,1.15,1.55,1.47.41-2.2-.22-3.74-.64-5.87-.58-2.92.88-6.15,1.75-9.04-.16-.64-1.34-1.75-2.01-1.86Z"/>
      <path d="M5.65,54.01l-.44-4.72,1.27,1.69.44-3.63-2.99-2.7-2.03,4.38c-.66,1.42-3.19,3.66-1.09,5.36,1.04.65,3.87.06,4.83-.38Z"/>
      <path d="M7.2,46.35l.95-1.65c.14-.25-.81-.72-1.24-1.07l2.16-.62-2.55-3.22-2.15,3.92c.75.98,1.9,2.03,2.83,2.64Z"/>
      <path d="M9.5,41.97l.88-3.07c.2-.19.78-.58.72-.73-.06-.15-.28-.58-.39-.72l-2.03-2.44-1.62,4.08,2.45,2.87Z"/>
      <path d="M7.87,9.42l6.11.47.9-1.78c-2.5-1.51-5.34-.6-7.01,1.31Z"/>
      <path d="M20.84,2.01c.93.26,1.94.18,2.36-1.05-1.31-.45-2.64-.79-3.84-.96-.31,1.21.61,1.76,1.47,2.01Z"/>
    </g>
  </g>
</svg>