<?xml version="1.0" encoding="UTF-8"?>
<svg id="Warstwa_2" data-name="Warstwa 2" xmlns="http://www.w3.org/2000/svg" viewBox="0 0 46.89 55.57">
  <g id="game-icon-v3-dark-magic-pixarts-store">
    <g id="game-icon-v3-dark-magic-pixarts-store_19">
      <path d="M5.78,24.87c-2.08,2.66-2.91,5.87-2.35,9.45.65-1.13.97-2.34,1.08-3.75.1-1.3.98-1.97,2.29-1.8,2.65.36,1.49,8.23-3.32,9.84,2.15,7.41,10.03,12.04,16.75,12.51-.09-1.74.1-2.96.9-4.05.53-.71,2.05-1.25,3.08-.92,2.11.67,2.51,2.85,2.39,4.97,6.92-.45,14.81-5.4,16.73-12.53-3.42-1.45-4.76-4.5-4.61-8,.05-1.13.94-2.15,2.09-2.01,2.55.31.89,4.52,2.39,5.53.87-3.32.09-6.35-2.08-9.21l-4.66,1.81c-.91,4.19-4.59,5.91-3.78,8.93.1.36.95,1.16,1.26.97.25-.16.67-.5.99-.78l1.01-.91c.24-.22,1.04.66,1.13,1.01.53,2.02-.96,4.38-3.35,4.53-3.14.2-5.64-1.83-6.24-4.98-.42-2.24.33-4.69,1.63-6.64.64-.96,1.27-4.07-.4-4.13-4.04-.15-19.12.23-21.26-3.56-1.09-1.93,5.05-2.18,3.85-4.13-2.15.25-6.57,1.53-6.74,4.04-.37,5.51,18.65,6.48,22.33,6.43-5.71,1.62-16.13.5-21.12-2.62Z"/>
      <path d="M25.29,23.38c1.49-.25,3.11-.59,3.98-.09.67.39,1.48,1.59,1.65,2.54.62,3.44-3.63,5.79-2.25,9.81,1.08,3.15,4.19,4.5,6.25,3.27.78-.46,1.27-1.69,1.32-2.51l-1.99,1.3c-.43.28-1.63-.45-2.03-.86-1.46-1.48-.98-3.84.35-5.42,1.23-1.46,2.27-3.17,2.57-5.04.48-2.91-1.16-5.37-3.9-6.08-2.24-.58-5.09.58-5.95,3.07Z"/>
      <path d="M29.1,13.8c-1.41,1.37-1.86,3.83-1.28,5.19l4.2.12c-1.82-4.93,6.61-7.01,2.85-12.48-1.27-1.85-3.9-2.34-5.32-.52,1.65.08,2.9.26,3.5,1.42.48.92.2,2.26-.61,3.05l-3.33,3.22Z"/>
      <path d="M14.13,11.42c-1.14-.93-2.88-1.26-4.29-.7-1.5.6-2.38,2.32-1.4,3.59.55-1.48,2.21-3.04,3.45-1.93l1.31,1.16c-.35,2.3-2.76,8.02.65,8.68.25-.41.6-.96.6-.96.66.69,1.25,1.33,1.77,1.42.56.1,1.53-.15,1.85-.42-5.02-4.29-.39-7.95-3.94-10.84Z"/>
      <path d="M36.17,23l.7,2.6c2.9-1.25,5.88-2.57,5.4-4.91-.57-2.75-6.75-4-9.17-4.4-.12.47-.27,1.2-.05,1.29l1.1.43c1.67.65,4.38.66,5.16,2.55.36,1.28-1.71,2.1-3.14,2.44Z"/>
      <path d="M43.88,35.38c-3.51-.97-1.86-6.96-3.5-5.77-1.32.96-.59,5.05,1.77,7.14.59.53,2.18.85,2.87.59.6-.22,1.52-1.25,1.68-1.92.63-2.73-.23-5.61-2.81-6.87l1.46,4.6c.12.37-.03,1.4-.15,1.78-.1.3-.99.54-1.31.45Z"/>
      <path d="M24,55.48c.98-.71,1.5-4.81,1.45-6.52-.03-1.13-1.57-2.09-2.45-1.89-2.92.67-1.39,5.81-.76,7.88.14.47,1.4.8,1.75.54Z"/>
      <path d="M2.86,28.61c-2.67,1.4-3.29,4.34-2.6,7.05.18.71,1.42,1.68,2.11,1.74,3.22.28,5.19-4.04,4.54-7.09-.08-.35-1.2-.71-1.24-.41l-.2,1.36c-.27,1.82-.84,4.15-3.08,4.06-2.58-.1.61-5.74.48-6.71Z"/>
      <path d="M22.11,6.44c1.58,1.85,1.98,3.79.67,6.38,1.29-.6,2.39-1.94,2.65-3.09,1.1-4.8-4.15-4.11-2.65-9.73-2.4,1.48-2.37,4.46-.67,6.44Z"/>
      <path d="M16.29,17.01c.11.28.64.4,1.19.38l8.3-.22c.28,0,.87-.72.81-.96-.04-.16-.5-.63-.71-.63l-8.73.24c-.37.01-.98.91-.87,1.19Z"/>
      <path d="M5.02,50.98c1.74,1.61,3.84-.48,4.89-2.01l-3.1-2.66c-.2,1.97-.71,3.06-1.79,4.67Z"/>
      <path d="M39.97,46.39l-2.98,2.42c.85,1.85,2.94,3.41,4.86,2.26-.94-1.47-1.64-2.94-1.88-4.68Z"/>
      <path d="M18.28,13.66c3.21-4.06-1.37-4.09-.41-7.95-2.83,4.29.55,2.98.41,7.95Z"/>
    </g>
  </g>
</svg>