<?xml version="1.0" encoding="UTF-8"?>
<svg id="Warstwa_2" data-name="Warstwa 2" xmlns="http://www.w3.org/2000/svg" viewBox="0 0 49.83 49.71">
  <g id="game-icon-v3-dark-magic-pixarts-store">
    <g id="game-icon-v3-dark-magic-pixarts-store_101">
      <path d="M47.7,28.07l-1.36.48-.97,3.96-16.49-11.45c2.38-1.64,4.92-3.68,4.46-6.87-1.18,1.42-3.98,6.92-6.26,5.8-.5-.24-1.46-1.18-1.27-1.2,2.78-1.7,5.05-3.03,7.43-4.97,1.53-1.24.47-5.67-1.28-6.58.22,1.45,1.51,3.99.08,5.49-2.42,2.53-6.65,4.41-6.58,5.15l.08.79-7.74-5.36c-1.91-1.33-.82-4.29-.37-6.27-1.55,1.36-1.75,3.58-1.64,5.62l.12,2.17c.15,2.87,2.69,4.82,5,6.15l-7.91,5.36-8.7,6.07-1.14-4.4-1.53-.09c.47,1.92.89,3.49,1.6,5.37l14.81-.02v-.97c0-.22-.68-.31-.95-.31l-9.78-.1,12.87-8.93c1.88,2.76,3.04,5.66,4.58,9,1.3-2.39,1.69-4.6,2.99-6.41.78-1.08,1.62-2.29.78-3.22l-.09-.06c-1.74,3.73-1.42.59-3.6,6.52l-2.73-5.23c-.15-.29-1.11-.87-.91-1.11.22-.25.73-.73,1.01-.94l.66-.49c.73-.55-5.8-1.86-5.52-6.21,3.36,2.14,6.21,4.01,9.03,6.01l1.3.93.75.53s0-.02.01-.02c.03.03.05.06.08.09l13.49,9.48-9.41.16c-.32,0-1.14.06-1.2.33l-.2.96,15.1.04c.63-1.82,1.09-3.55,1.39-5.23Z"/>
      <path d="M28.45,22.26l.09.06s-.05-.06-.08-.09c0,0,0,.02-.01.02Z"/>
      <path d="M16.48,26.7l6.28,16.23c.28.73,1,1.65,1.56,1.8.16.04.68-.61.81-.5l.75.63,7.05-17.91c.1-.25-.09-.96-.26-1.14-.13-.14-.72.03-.82.31l-4.78,12.27c-.75,1.93-1.44,3.46-2.54,5.21l-6.97-17.59c-.11-.28-1.18.44-1.08.7Z"/>
      <path d="M28.15,3.08c1.03.69,7.47,1.83,10.7,5.41l-3.63,2.62c-.48.35-.83,1.36-.91,2.03l3.2-1.68-4.18,11.05c-.12.32.39,1.46.6,1.27.16-.15.51-.57.59-.78l5.81-15.15c-2.76-2.71-7.73-5.01-11.47-5.63-.33-.05-.9.73-.7.86Z"/>
      <path d="M44.83,33.82c-.14.16-.48.58-.6.81-3.11,6.1-8.75,10.54-15.69,11.81.23.79,1.02,1.17,2.02.93,6.91-1.61,12.67-6.95,15.35-13.13-.06-.32-.91-.64-1.09-.43Z"/>
      <path d="M5.16,34.62c-.14-.26-.37-.58-.5-.74-.13-.16-.84.13-1.02.29,2.62,7.04,9.45,11.94,16.4,13.52.38.09,1.02-.14,1.21-.25.19-.11-.07-.9-.29-.94-7.09-1.39-12.47-5.77-15.79-11.88Z"/>
      <path d="M1.96,20.51c-.08.36.13,1.09.44,1.11,1.71.11.57-4.55,5.64-10.63.6-.72.86-1.59,1.28-2.58l5.99,15.29c.73.09,1.09-.75.88-1.28l-4.32-11.17,3.16,1.62c.04-1.08-.47-1.62-1.24-2.1l-4.53-2.82c-4.08,3.19-6.19,7.62-7.3,12.56Z"/>
      <path d="M47.08,21.71c.22-.12.34-.86.28-1.14-.98-4.68-3.03-8.85-6.54-12.18-.49.43-.43,1.3-.06,1.73,2.8,3.3,4.58,6.7,5.31,11.24.2.23.79.48,1.01.36Z"/>
      <path d="M21.73,9.66c.15.46,1.44.36,1.98.46.36.07.54,1.17.28,1.42-1.08,1.05-2.31.19-2.34.81-.01.37-.04,1.36-.03,1.35,1.24-1.08,1.72-.88,2.91-.89,1.3-.01,1.96-.27,3.3.68l.22-.83c.34-1.29-1.6-.13-2.43-.97-.25-.25-.37-1.25-.26-1.47l2.15-.3c.16-1.03.27-2.27.27-3.24l-.67,2.25c-.11.37-1.45.61-1.56.24l-.58-1.86c.09-.97-.25-.66-.51.09-.12.72-.23,1.56-.61,1.79-.32.19-1.3.17-1.47-.16l-.79-1.6c-.09.37-.05,1.69.13,2.24Z"/>
      <path d="M21.57,2.48c-2.22-.95-9.94,2.8-11.88,4.9.45,2.82,4.08-2.91,11.32-3.91.25-.04.79-.89.56-.99Z"/>
      <path d="M34.91,37.63c.21-.08.5-.11.91-.15.31-.03,1.05-.52,1.01-.82-.03-.24-.27-.39-.59-.65l-1.11-1.63-2.8,1.66c.28.98,1.36,2.24,2.09,2.58.25.12-.12,1.14-.36,1.02l-1.19-.59c-.64.7,2.81,1.7,3.87,1.58.48-.05,1.32-1.08,1.07-1.19l-2.25.31.75-1.38-1.41.15c-.23.02-.2-.82.01-.9Z"/>
      <path d="M12.97,40.31l-.88-.64c-.14-.1-.34.38-.42.54-.08.16.59.8.78.79.93-.06,2.16-1.49,2.83-2.37l2.72-3.59-1.33-.15c-1.88-.21-3.15.25-4.4,1.6,2.31.13,1.59,3.16.71,3.8Z"/>
      <path d="M23.01,46.41c-.14,1.64,1.7,2.49,3.25,3.3.47-.39.32-1.61.15-2.51.55.47,1.41.78,2.18.69l-2.28-2.28c-.68-.68-3.21-.14-3.29.8Z"/>
      <path d="M42.88,19.31l-.61.4-.91.6c-.2.13-.68-.63-.88-.75-1.28-.76-3.37.54-3.08,2.1.68-.69,1.73-1.95,2.5-.99.41.51-.5,1.56-1.17,2.21l1.17-.03c.07.02.11,1.18-.12,1.43s-.6.4-1.02.62c.21.64.73,1.69,1.09,1.52.3-.14.95-.52,1.24-.72.27-.19-.27-.99-.41-1.34-.96-2.33,1.97-3.63,2.77-4.88.07-.11-.44-.24-.55-.16Z"/>
      <path d="M28.27,33.27c.33,0,.68-1.21.39-1.22l-7.06-.1c-.23,0-.68.11-.85.14-.16.03.05,1.13.22,1.13l7.3.04Z"/>
      <path d="M8.53,25.48c-.06.33.92.51,1.19.31.92-.68-1.33-3.52.84-5.97l1.18.72c-.15-.62-.82-1.54-1.24-1.45l-1.8.35c-.37.07-1.44-.58-1.56-.22l-.4,1.28,1.12-.27c1.43-.34,1.04,4.14.66,5.24Z"/>
      <path d="M3.71,26.11l-1.26-.08c-.81-.05-1.62-.05-2.31.02,1.13,1.29,2.91,1.4,3.84.56.94-.84,1.25-2.89-.04-3.39-.04.14.25,1.19-.03,1.17l-1.18-.07c-.4-.03-1.48.1-1.53-.27l-.22-1.57c-.99.55-1.31,2.15-.57,3.16l3.01-.85c.26-.07.58,1.33.29,1.31Z"/>
      <path d="M49.03,24.26l-.79.99c-.32.4-1.47.93-1.93.72-.39-.18-.96-.94-1.01-1.31,1.01-.87,2.15-1.02,3.58-.61-.24-.73-1.46-1.61-2.32-1.44-.81.16-1.64,1.32-1.69,2.33-.05,1.23,1.45,2.23,2.67,2.55.08-.59-.06-1.02.19-1.15l1.31-.69c.24-.13.65-.59.77-.84.12-.25-.62-.76-.79-.54Z"/>
      <path d="M24.07,4.46c-.35-1.63-.89-2.57-2.05-4.28l.43,3.11c.07.48.98,1.13,1.61,1.17Z"/>
      <path d="M27.37,0c-1.49,2.93-1.23,1.02-1.93,4.58l1.68-1.16.25-3.42Z"/>
    </g>
  </g>
</svg>