<?xml version="1.0" encoding="UTF-8"?>
<svg id="Warstwa_2" data-name="Warstwa 2" xmlns="http://www.w3.org/2000/svg" viewBox="0 0 36.93 54.62">
  <g id="game-icon-v3-dark-magic-pixarts-store">
    <g id="game-icon-v3-dark-magic-pixarts-store_20">
      <path d="M15.93,38.81c.3,1.1,1.49,2.58,2.06,3.51l1.93,3.13h8.11c-.53-3.44,2.94-5.47,3.43-7.82,1.44-6.89-1.36-8.51-.63-14.53l-1.74,3.1c-.54-1.24-1.14-3.6-2.2-4.31-4.62-.82-6.23-.85-8.55,2.69l-1.93-1.46c1.77,3.05.07,4.05-.56,5.96-.95,2.88-.73,6.78.07,9.73ZM18.16,32.03c.24-2.62,1.29-5.17,3.65-6.45,1.4-.76,3.13-.82,4.39-.18,1.49.75,2.24,2.38,2.21,4.24-.02,1.38-.77,2.63-1.85,3.45-2.68,2.03,1.92,3.77.48,6.79-.68,1.43-1.98,2.46-3.11,3.22,2.7-8.09-6.44-3.58-5.76-11.08Z"/>
      <path d="M10.34,18.04c.21.83.55,1.72,1.03,2.5h24.81s.76-2.52.76-2.52l-9.42-.14-17.17.16Z"/>
      <path d="M33.25,16.92c-3.03-1.38-5.61-2.65-7.83-4.7l-.21-3.25c-.45-.58-2.86-.74-2.98.07l-.51,3.33c-.38.35-1.29,1.42-1.75,1.65l-5.83,2.91h19.11Z"/>
      <polygon points="11.26 46.54 10.45 49.12 36.9 49.13 36.06 46.51 11.26 46.54"/>
      <path d="M6.96,30.39c1.51-.24,2.89,1.91,2.99,3.14-5.04-2.02-4.02,2.67-9.82.34.57,1.94,2.69,3.72,5.03,2.73,3.38-1.43,2.82,1.04,6.22.89l-.05-8.62c-3.26-2.5-5.56.97-8-2.28-.78-1.03-2.05-1.68-3.32-1.39,3.35,1.71,1.34,6.09,6.96,5.19Z"/>
      <path d="M14.5,45.06v-23.1c-.38-.4-1.57-.4-1.96.03l.03,23.07c0,.54,1.93.48,1.93,0Z"/>
      <path d="M14.32,50.3l9.39,4.32,9.33-4.38c-6.44-.49-12.15-.53-18.72.06Z"/>
      <rect x="21.71" y="32.58" width="23.88" height="1.9" transform="translate(.07 67.12) rotate(-89.9)"/>
      <path d="M28.01,2.07c-2.45-2.92-6.39-2.58-8.81-.07-2.44,2.54-.99,7.16,1.05,8.34.3.17,1.07-.21.97-.38-.76-1.27-3.57-4.32-.77-7.13,1.64-1.65,4.4-1.85,6.19-.15,3.22,3.07-.19,5.9-.27,7.83,3.46-1.53,3.79-5.89,1.65-8.44Z"/>
    </g>
  </g>
</svg>