<?xml version="1.0" encoding="UTF-8"?>
<svg id="Warstwa_2" data-name="Warstwa 2" xmlns="http://www.w3.org/2000/svg" viewBox="0 0 35.29 57.26">
  <g id="game-icon-v3-dark-magic-pixarts-store">
    <g id="game-icon-v3-dark-magic-pixarts-store_03">
      <path d="M3.35,30.27c2.48,5.65-1.11,5.33-.59,9.23.22,1.66-.89,2.74-1.24,4.17-.42,1.68,1.45,3.98,2.67,5.03l3.93-.74c.55-.1,2.05.34,2.21.86l.6,1.98-1.55-1.69.5,5.91,1.11-1.62c.19,1.35.37,2,.87,2.65l1.01-2.33c.25,1.47-.02,2.32.99,3.06l1.06-2.7.23,1.69c.06.45.19,1.45.58,1.42l1.39-.12.51-3.42.62,3.56c.51.07,1.56-.02,1.68-.4.12-.38.25-1.37.17-1.77l-.15-.79c-.03-.16.58-.3.6-.14l.13.93c.09.65.37,1.37,1.12,1.86l.65-3.28.98,2.45c.46-.99.6-1.7.76-2.74l.53,1.05c.09.19.77-.08.79-.37l.39-4.71-1.21.61c.97-3.72,4.4-.96,6.73-1.3,1.17-1.23,2.97-3.72,2.37-5.12-.69-1.63-1.49-2.65-1.45-4.43.08-3.77-2.56-3.58-.41-8.41-.44,6.49.79,2.74,1.92,8.85,2.67-7.16,1.86-15.1-3.93-20.41-8.05,1.69-16.12,1.83-24.23-.02C-.67,23.93-1.07,32.82,1.42,39.56c1.18-6.95,2.57-1.86,1.93-9.29ZM19.84,49.45c-1.2.64-1.91-1.96-2.2-1.59l-.51.65c-.28.36-.78.84-1.09,1.04-.37.24-1.41-.88-1.37-1.33.15-1.66,1.2-5.5,2.63-6.22,1.44-.72,4.52,6.39,2.53,7.44ZM12.94,31.83c3.56,1,6.55,1.01,10.15-.85-2.36,2.85-6.95,3.4-10.15.85ZM30.18,37.56c.85,1.32.54,6.92-2.49,6.86-3.41-.07-7.92-1.75-7.16-5.46.46-2.23,2.5-3.68,4.25-4.2.94,1.74,4.15.86,5.4,2.81ZM23.09,24.93c-3.43-1.77-6.66-2.42-10.46-.43,2.63-2.93,7.68-2.91,10.46.43ZM19.08,24.41c2.03.8,3.67,1.75,5.81,3.39-1.82,2.34-4.51,3.51-7.25,3.65-2.85.15-5.45-1.49-7.37-3.48,2.42-2.53,5.34-3.8,8.81-3.56ZM7.6,36.14c.97-.22,1.93-.62,2.93-1.18,1.08.28,2.42,1.08,3.25,2.07,1.65,1.96,1.26,5.15-1.24,6.22-1.25.53-3.09,1.01-4.55,1.13-2.4.2-2.97-2.05-3.24-3.57-.44-2.45.36-4.11,2.85-4.67Z"/>
      <path d="M30.26,14.85l2.91-10.08-3.16,3.09c.42,2.05-.24,4.21-2.55,4.59-.86.14-1.78-1.21-1.82-2.05-.03-.64.52-1.52,1.1-2.35-.03-1.48-.22-3.19-.46-4.71l-2.54,3.75c.66,1.57.1,3.98-1.85,3.95-1.65-.03-2.92-2.74-2.5-4.06l.95-1.59-2.7-5.39-2.84,5.65c1.31,1.21,1.4,2.36.59,3.81-.39.7-1.54,1.84-2.25,1.65-1.96-.54-2.12-2.48-1.45-4.01l-2.68-3.79c-1.31,7.39.62,3.8.64,7.08,0,.7-.78,2.04-1.48,2.03-2.37-.04-3.29-2.38-2.88-4.58-.9-.97-1.99-1.97-3.09-2.76l2.89,9.74c8.19,2.05,16.61,2.04,25.19.04ZM17.63,9.85c.49.67,1.18,1.7,1.4,2.76.14.65-1.1,2.1-1.51,2.29-.59-.72-1.41-1.75-1.37-2.35.05-.68.78-1.71,1.47-2.71Z"/>
      <path d="M29.51,16.18c-7.53,1.62-16.52,1.86-24.01-.16-.16.56-.04,1.57.31,1.83,7.59,1.77,15.39,1.8,23.01.18.4-.08.96-.43,1.19-.63.23-.2-.03-1.32-.49-1.22Z"/>
      <path d="M16.06,30.08c1.38.77,2.93.44,3.88-.81.72-.93.89-3.03-.89-3.72-1.08-.42-3.15.03-3.72.78-1.13,1.48-.42,3.12.72,3.75ZM17.31,25.83c.62,1.31.88,1.66,1.94,2.16-.07.32-1.06,1.09-1.58,1.07-.52-.02-1.44-.9-1.46-1.47-.03-.6.75-1.66,1.09-1.76Z"/>
    </g>
  </g>
</svg>