<?xml version="1.0" encoding="UTF-8"?>
<svg id="Warstwa_2" data-name="Warstwa 2" xmlns="http://www.w3.org/2000/svg" viewBox="0 0 55.29 56.18">
  <g id="game-icon-v3-dark-magic-pixarts-store">
    <g id="game-icon-v3-dark-magic-pixarts-store_74">
      <path d="M50.23,52.61c-2.16-.57-1.94-4.67-5.84-4.06-4.09.64-2.63-3.82-6.89-3.89-1.63-.03-3.67.62-3.91,2.55l3.39,1.56c-2.96.97-5.45.06-7.67-1.99-1.21-1.12-3.51-.74-5.07-1.18-1.72-.49-2.97-2.61-5.1-1.67-2.4,1.07-4.33,3.09-6.11,5.34-6.65-2.59-7.02,3.08-9.11,3.9-1.38.54-3.06,1.25-3.91,2.99l55.29.02c-.87-2.07-2.99-3.02-5.05-3.57ZM35.23,51.1c1.47-1.14,3.6-.05,3.91,2.01-1.24-.49-2.55-1.15-3.91-2.01Z"/>
      <path d="M28.36,44.61c0-4.55,3.11-6.91.55-7.78-1.91-.65-2.92-1.12-4.91-2.06-1.1,2.98,1.09,4.2.81,9.53l3.55.31Z"/>
      <path d="M25.24,16.86c-2.73,0,.77,4.11-.4,9.81-.1.51-.38,1.86.08,1.89l2.05.11c.29.02-.36-6.85-.06-10.19.08-.92-.67-1.61-1.67-1.61Z"/>
      <path d="M28.34,28.72l1.62.06c.55.02-.02-4.88,1.55-9.42.31-.89.03-1.99-.71-2.29-3.32-1.36-.45,3.42-2.86,10.17-.14.38.01,1.48.4,1.49Z"/>
      <path d="M31.18,46.04c.01.42.85,1.14,1.18,1.16.29.01.82-6.93,1.33-9.87.11-.61-1.5-.9-2-.55-.76.52-.77,1.25-.73,2.39l.22,6.89Z"/>
      <path d="M31.11,29.08c.13.3,1.54-.13,1.65-.54.67-2.4,1.6-5.38,2.49-7.64.28-.71.34-1.47,0-1.79-.36-.35-1.89-.26-1.94.19-.32,2.69-1.07,5.83-2.12,8.39-.2.48-.22,1.08-.08,1.39Z"/>
      <path d="M17.83,26.07l3.84,4.79c.76-.05,2.2-1.57,1.93-2.24-2.05-.99-3.08-2.49-3.73-4.46-.85-.27-2.64,1.17-2.04,1.92Z"/>
      <path d="M35.18,30.43c.81-4.94,4.41-7.44,3.26-9.01-.23-.32-1.23-.41-1.5-.15-.73,2.58-2.08,5.7-3.79,7.85.21.76,1.6,1.73,2.03,1.31Z"/>
      <path d="M32.24,10.02c-.03-.34-1.84-.52-1.94-.19l-1.05,6.45,2.66.18c-.07-2.72.04-4.28.33-6.44Z"/>
      <path d="M23.87,16.62l2.74-.62-1.23-5.62c-3.8-.72-.87,1.7-1.51,6.24Z"/>
      <path d="M37.62,13.2c.19-.44-.94-1.13-1.37-.96-1.13.44-.76,2.95-2.58,5.69l2.38.7c.39-2,.91-3.93,1.57-5.43Z"/>
      <path d="M19.19,23.25l-1.9-3.65c-.27-.38-1.69-.39-2-.22l1.62,5.44,2.29-1.57Z"/>
      <path d="M26.89,30.21c-.12-.43-1.41-.86-1.84-.69-.8.32-1.94,1.28-2.38,1.9-.24.34.68,1.51,1.08,1.39.71-.22,3.48-1.39,3.14-2.61Z"/>
      <path d="M29.24,33.43c.57-.12,1.09-1.36,1-2.09-.1-.81-.51-1.67-1-1.74-.42-.06-1.53.18-1.61.59-.07.4-.12,1.16-.1,1.77.03.58,1.14,1.59,1.7,1.47Z"/>
      <path d="M30.61,4.28l-.43,4.5,2.15.11-.23-4.28c-.02-.37-1.39-.43-1.5-.32Z"/>
      <polygon points="39.31 21.37 41.29 17.16 39.97 16.5 37.72 20.08 39.31 21.37"/>
      <path d="M38.06,11.32l-.13-3.35c-.02-.4-1.66-.44-1.67-.05l-.03,1.54c-.01.6,0,1.51.05,2.03.04.45,1.81.32,1.79-.16Z"/>
      <path d="M24.75,33.74c.21.41.87.96,1.48,1.41.5.37,2.32.31,2.06-.43-.31-.9-1.34-1.95-2.01-2.32-.47-.26-1.78.87-1.53,1.34Z"/>
      <path d="M25.42,9.15l-1.07-3.04c-.09-.25-.9-.23-1.07-.03-.17.19-.36.8-.33,1.07l.26,2.7,2.22-.7Z"/>
      <path d="M17.05,14.3l-1.63,4.15h2.12c.15-1.43.22-2.44-.48-4.15Z"/>
      <path d="M31.85,34.97c0-.73-.59-1.33-1.33-1.33s-1.33.59-1.33,1.33.59,1.33,1.33,1.33,1.33-.59,1.33-1.33Z"/>
      <path d="M34.71,32.93c-.25-.33-1.14-.71-1.4-.9-.05-.81-.22-1.8-.69-1.91-.44-.1-1.59-.22-1.65.19-.07.55-.03,1.64.21,2.07.2.36,1.46-.22,1.79-.31-.32.82-.62,1.48-.68,1.98-.06.49,1.4,1.03,1.77.69s.95-1.41.65-1.81Z"/>
      <path d="M41.62,16.11c.1-.3.23-1.1.17-1.6l-.19-1.52c-.03-.25-.99-.08-1.03.17l-.16.99c-.12.73-.19,1.28-.23,1.68-.03.32,1.34.58,1.44.28Z"/>
      <polygon points="31.14 0 30.1 3.61 32.42 3.46 31.14 0"/>
    </g>
  </g>
</svg>