<?xml version="1.0" encoding="UTF-8"?>
<svg id="Warstwa_2" data-name="Warstwa 2" xmlns="http://www.w3.org/2000/svg" viewBox="0 0 43.87 48.4">
  <g id="game-icon-v3-dark-magic-pixarts-store">
    <g id="game-icon-v3-dark-magic-pixarts-store_92">
      <path d="M31.11,9.4l-5.72,2.11c.3.46.82,1.27.49,1.48l-1.1.68c-.48.3,1.48,1.98-3.79,3.18.13.66.3,1.43.3,1.89,0,.39-.93,1.06-1.31,1.18l-2.93.92c.76,2.65-.67,4.78-3.24,5.91,1.25,1.83,3.33,1.24,4.68-.04l12.92-12.21c.52-.55,1.04-1.14,1.63-1.41l-13.01,16.21c-.98,1.22-.69,3.35.62,4,1.05-2.41,2.93-3.99,5.43-3.31l.62-2.94c.08-.39.76-1.35,1.13-1.28l1.57.3c.32-1.29.8-2.89,1.42-4.11l1.79.55,1.39-3.43c.13-.32.69-1.18.97-1.01l1.16.71,4.78-9.13c1.52-2.9,2.22-6.25,2.97-9.63l-9.15,6.75c-1.23.9-1.99,2.05-3.61,2.64Z"/>
      <path d="M21.52,39.11l4.03-3.13c-3.38-.14-6.06-.64-7.11-3.6l-.17-3.29-3.5-.11c-2.92-1.06-3.39-3.54-3.71-6.76-1.03,1.21-2.07,2.95-2.59,4.47,3.32,4.45,2.79,5.6,6.42,9.54.8.05,2.18.19,2.84.59l3.78,2.28Z"/>
      <path d="M7.53,47.51l-1.31-2.45c-1.23-.92-2.11-1.87-3.04-3.25l-2.16-.07c-.39-.01-1.1.92-1.01,1.3l.4,1.65c.2.84.26,2.28.79,2.83.84.86,5.32,1.46,6.33,0Z"/>
      <path d="M14.36,37.02l-3.25-3.69c-.43.4-.93.87-1.02,1.26-.08.33.28,1.12.43,1.44l1.56,3.31,2.29-2.32Z"/>
      <polygon points="9.11 42.55 11.33 40.32 7.26 38.75 9.11 42.55"/>
      <polygon points="8.07 42.3 6.29 38.57 4.17 41.05 8.07 42.3"/>
      <path d="M7.16,37.73l3.65,1.38c-.58-1.76-.81-2.25-1.59-3.72l-2.05,2.34Z"/>
      <path d="M7.26,44.83l1.16-1.4-3.84-1.12c.82,1.17,1.6,1.82,2.68,2.52Z"/>
    </g>
  </g>
</svg>