<?xml version="1.0" encoding="UTF-8"?>
<svg id="Warstwa_2" data-name="Warstwa 2" xmlns="http://www.w3.org/2000/svg" viewBox="0 0 35.75 52.34">
  <g id="game-icon-v3-dark-magic-pixarts-store">
    <g id="game-icon-v3-dark-magic-pixarts-store_94">
      <path d="M28.92,37.89c-8.35-2.19-3.72-2.38-12.81-.75-.55-5.59-1.32-6.22-6.12-8.82,1.24,3.86,1.68,7.54.81,11.62,4.94,1.53,9.9,1.14,15.01.42,1.6-.23,2.79-.8,3.1-2.47Z"/>
      <path d="M31.51,25.55c-7.3-1.07-13.66-2.76-20.48-5.33l-.26,3.96c6.69,3.16,13.22,4.15,20.5,5.27l.25-3.9Z"/>
      <path d="M30.13,33.93c-7.23-2.59-12.48-6.75-19.34-8.55-.28.57-.67,1.47-.39,1.67l1.05.74c5.21,3.68,11.61,7.87,17.87,9.22l.81-3.08Z"/>
      <path d="M28.35,20.71c-4.18-1.33-11.33-3.38-15.5-1.01,6.27,2.41,12.19,4.1,18.68,4.67-1.21-1.69-2.02-2.51-3.17-3.66Z"/>
      <path d="M25.45,51.64l.52-2.68-5.61-.11c-2.97-.06-5.53-1.02-8.75-1.77l-.2,3.63c4.74,1.71,9.38,2.18,14.04.94Z"/>
      <path d="M26.73,42.88c.35-.16.75-1.01.51-1.2-.19-.14-.8-.29-1.12-.25-4.84.55-9.74.7-14.56.01l.18,4.38c5.23.38,10.48-.89,14.98-2.94Z"/>
      <path d="M8.64,27.95l-2.97,6.87,4.19,3.83c.81-4.15.41-7.35-1.22-10.7Z"/>
      <path d="M27.2,43.91c-4.25,1.78-7.79,2.53-12.23,3.07,4.06,1.02,7.72,1.25,12.38.79.09-1.55.03-2.77-.15-3.87Z"/>
      <path d="M2.49,16.5l-1.95,6.49c.94.29,3.34.61,4.03-.27,1.7-2.15.81-5.41-2.09-6.22Z"/>
      <path d="M5.87,26.5l-3.65,3c.6,2.06,1.29,3.46,2.72,4.54l2.65-5.85c-.13-.56-1.26-2.06-1.72-1.69Z"/>
      <polygon points="17.38 17.43 22.03 17.76 22.42 12.99 17.97 13.95 17.38 17.43"/>
      <path d="M13.19,7.9c-.73-2.15-4.48-5.64-5.27-3.79-.13.31-.26,1.29-.1,1.64l1.71,3.57,3.66-1.42Z"/>
      <polygon points="13.44 8.77 9.62 10.4 9.95 14.48 14.26 12.64 13.44 8.77"/>
      <polygon points="15.28 17.73 14.37 13.62 10.28 15.31 10.97 18.93 15.28 17.73"/>
      <polygon points="22.51 8.63 18.24 8.35 18.1 12.85 22.53 12.08 22.51 8.63"/>
      <path d="M1.72,28.53l3.19-2.52c.27-.21.61-.74.6-1.05,0-.31-.82-.84-1.17-.85l-4.35-.12c.1,1.55.79,3.23,1.72,4.54Z"/>
      <path d="M16.5.5c-.46,1.18-.06,3.31,1.16,3.83.96.41,2.85-.58,3.24-1.47l-1.82-2.44c-.41-.55-2.33-.59-2.59.08Z"/>
      <polygon points="27.95 19.52 28.71 16.37 24.94 15.08 23.73 18.15 27.95 19.52"/>
      <polygon points="35.12 19.45 35.75 14.87 32.57 14.56 31.88 17.54 35.12 19.45"/>
      <path d="M30.62,30.37l-8.22-1.2c2.7,1.53,5.15,2.68,8,3.68.42-1.02.63-2.05.22-2.49Z"/>
      <path d="M29.63,20.43l2.62,2.85,2.22-3.06c-1.09-.69-2.44-1.52-3.31-1.69-.56-.1-1.46,1.42-1.52,1.91Z"/>
      <path d="M25.32,2.75c-1.76.63-.87,2.75-.21,3.62.78,1.03,2.7.69,3.74-.22-.79-1.13-2.35-2.72-3.53-3.4Z"/>
      <polygon points="25.3 14.06 29.21 15.5 29.69 13.16 26.15 10.9 25.3 14.06"/>
      <path d="M29.43,7.14l-3.45,1.11c-.13.56.76,1.97,1.4,2.3l2.5,1.29-.45-4.71Z"/>
      <path d="M18.29,5.59c-.43.22-.15,1.5.32,1.55l3.72.46-.84-3.65-3.19,1.64Z"/>
      <path d="M35.42,13.66c-.42-1.54-1.1-3.33-2.34-4.06-1.25.36-1.05,2.1-.75,2.97.43,1.22,1.79,1.43,3.08,1.1Z"/>
      <polygon points="21.32 35.17 16.43 32.58 17.07 35.88 21.32 35.17"/>
    </g>
  </g>
</svg>