<?xml version="1.0" encoding="UTF-8"?>
<svg id="Warstwa_2" data-name="Warstwa 2" xmlns="http://www.w3.org/2000/svg" viewBox="0 0 51.14 47.51">
  <g id="game-icon-v3-dark-magic-pixarts-store">
    <g id="game-icon-v3-dark-magic-pixarts-store_59">
      <path d="M48.82,10.03l-8.47.08c-1.02,3.15-2.57,5.61-6,6.23,3.94-2.95,5.22-7.08,5.89-11.65l.68-4.68c-5.37,4.56-11.42,6.36-14.3,11.06l.77-2.71c-2.87.43-6.43.82-8.91,2.51l-6.58,4.5c-1.32.9-1.78,3.04-.4,4.13l1.22-1.96c.83,7.08,4.03-1.82,9.43-.85-3.9,3.09-.07,3.51-6.2,5.28l4.36,1.04c-.54.36-2.38.75-3.12.34l-5.4-2.98c-.58-.32-2.34.16-3,.34l.96.67c-2.22.35-4.01.8-5.56,1.48.76.91,1.13,1.33,1.41,1.74.28.4-.61,1.7-.87,1.94l-.39-2.02c-1-.49-3.7-.72-4.2.27-.62,1.22.94,3.6,1.73,3.05.25-.77.45-2.02.8-1.92l1.86.58-2.47,2.27c.88,5.49,9.58-.4,12.25-1.08,3.43-.87,7.1,2.81,7.98,5.97-2.2,4.49-4.63,8.52-9.54,9.27,3.85,4.87,6.29,1.13,8.38,1.68-.25-2.8,1.69-4.97,3.87-6.67,2.85-2.22,6.57-3.61,9.64-1.21-2.75-.36-5.09-1.02-7,1.07,4.83.52,7.06,3.68,7.83,8.2l1.74-3.52,1.85,5.04,4.81-5.53c4.99-5.73,3.28-9.43.64-16.27,1.72,1.33,3.07,2.87,4.57,4.77,1.83-3.27.5-6.87-.16-10.69.38-2.04,1.43-4.53,2.22-6.7l-5.09-1.16,2.76-1.91ZM32.14,12.65l-2.11,2.51c.05-3.75,2.3-6.45,5.06-8.7l3.13-2.54c-.77,1.63-2.63,3.66-3.75,4.99l-.38,2.76c-.06.43.22,1.68.25,2.14.03.44-.8,1.08-.98,1.19l-1.23-2.36ZM37.77,28.96c-.38,2.45-1.55,4.4-3.35,5.7,3.88-5.11-.3-7.76,1.35-7.64l2.26.16-3.83-4.43,3.05-.17-3.83-3.15c2.59.73,4.56,2.22,6.53,3.88l-2.48.69c1.43,2.05,2.39,3.8,2.95,6.27l-2.65-1.31Z"/>
      <path d="M21.6,7.98c2.85-.27,4.52-.56,7.13-1.29l-1.71-6.43-5.42,7.72Z"/>
      <path d="M20.74,32.96c-.49-.44-2.17-.29-2.4.24l-1.8,4.04c-.16.36,1.65,1.41,1.34,1l2.44-3c.57-.7.93-1.82.42-2.28Z"/>
    </g>
  </g>
</svg>