<?xml version="1.0" encoding="UTF-8"?>
<svg id="Warstwa_2" data-name="Warstwa 2" xmlns="http://www.w3.org/2000/svg" viewBox="0 0 39.15 52.19">
  <g id="game-icon-v3-dark-magic-pixarts-store">
    <g id="game-icon-v3-dark-magic-pixarts-store_114">
      <path d="M32.35,28.36l.61,2.02c1.52-1.88,2.55-4.16,2.81-6.28-.77.76-1.38,1.28-2.08,1.3,2.19-2.14,3.19-4.01,2.71-6.79-.44-2.54-.95-4.76-2.06-7.32l-1.58,1.62c-.34-.44-.98-1.87-.89-2.62.09-.68.95-1.59,1.59-2.29l-1.56-1.21-3.18,1.95-.19-3.23c-10.43-4.83-7.97-4.11-18.04.27l.16,2.82c-1.72-.33-2.4-1.06-3.35-1.98l-1.57,1.4c.72.68,1.54,1.65,1.57,2.55.03.68-.6,1.8-1.06,2.04-.42-1.19-2.7-2.18-3.3-1.35-4.12,6.29-2.36,15.19,1.74,20.79.27.36,1.24-.12,1.23-.45,0-.32-.25-.9-.54-1.3-3.73-5.32-4.32-12.25-1.53-17.78.75,1.69-.02,2.16-.4,3.21-1.81,4.91-.29,10.42,2.64,14.77l.24-2.44c.69.73,1.32,2.12.88,3.28-.91,2.36-4.1,2.27-4.2,5.72-.03.94.96,2.33,1.81,2.9-2.4-7.07,5-3.39,4.06-9.55,1.37.71,1.34,1.95.94,3.25l9.89,6.78,9.79-6.85c-.57-.99-.43-2.32.66-3.22-.64,5.91,6.18,2.46,4.3,9.36,1.15-.58,1.82-2.03,1.62-3.37-.55-3.66-6.02-2.79-3.73-7.98ZM19.64,34.26c-7.72,0-13.99-6.26-13.99-13.99s6.26-13.99,13.99-13.99,13.99,6.26,13.99,13.99-6.26,13.99-13.99,13.99Z"/>
      <path d="M19.59,42.74l5.32-3.41,6.5-4.18c-.94-.93-1.83-.7-2.62-.17l-9.13,6.23-8.77-5.89c-.94-.63-1.77-1.37-2.99-.18,2,1.4,3.9,2.76,5.92,4.02l5.76,3.58Z"/>
      <path d="M35.95,10.85c-.16-.15-.9.24-1.05.41,2.75,6.03,3.02,13.3-1.07,18.81-.37.5-.92,1.1-.67,1.41.2.26.97,1.05,1.15.78,4.12-5.99,5.82-13.4,2.44-20.41-.16-.33-.58-.8-.8-1Z"/>
      <path d="M28.69,4.9c.34-.68.03-1.71-.63-1.98-9.07-3.73-7.39-4.14-17.08.29-.29.13-.51,1.29-.39,1.61,3.2-1.41,5.85-2.5,9.13-3.53,3.27.97,5.79,2.01,8.97,3.62Z"/>
      <path d="M29.87,44.08c-.42-.96-.74-1.97-.63-2.48.09-.43.56-.73,1.14-1.13.63-1,1.48-2.86.13-3.95l-.57,2.95c-2.55,3.52-1.17,2.5-1.2,4.64,0,.56-3.07,1.05-4.9,3.64.29.28.83.68.62.81-2.62,1.69-2.86-.68-6.51.33-3.7,1.02-2.26-1.51-4.69-.28l-2.12-2.04c1.07-.09,1.77-.04,3.09.07-.32-.43-1.28-1.28-1.83-1.41l-1.19-.13c-1.39-.15.64-2.95-1.53-5.41l-.96-3.34c-.4,1.35-.42,3.03-.02,4.18.8.32,1.27.8,1.4,1.46.15.73-.35,1.53-1.09,1.65-.64-1.3-1-2.85-1.5-4.5-.9.38.47,7.28,1.94,5.06l2.09,2.07-1.6.17c1.04,1.7,2.61,2.82,4.13,3.56.24-.38.36-.57.35-.56,0,0,.41.14.64.22,4.32,1.47,3.5-2.12,6.59.66.29.34,4.2-1.12,3.75-1.6l-.84-.88,2.03-1.55c.22-.17,1.16.33,1.31.1l.78-1.19c.36-.55,1.31-.83,2.01-1.03,1.36-.85,1.63-3.36,1.08-4.79-.54,1.88-.86,3.5-1.89,4.71Z"/>
      <path d="M2.49,9.93l3.76.86c.49-.99-1.77-3.12-2.13-3.49.08.08-.44.79-.55.82-1.1.33-3.39-1-2.91-3.21-.51.77-.88,2.16-.54,3.19.24.73,1.55,1.64,2.36,1.83Z"/>
      <path d="M36.3,8.24l-1.46-1.16-2.26,3.82,4.03-1.02c.82-.21,2.07-1,2.36-1.76.34-.88.16-2.22-.12-2.98-.54,1.57-1.23,2.73-2.55,3.09Z"/>
      <path d="M34.25.53c-2.18-.86-4.57.82-4.59,2.91l-.04,4.09,2.17-1.94c-.72-2.49.36-4.39,2.45-5.06Z"/>
      <path d="M9.44,7.23l.2-4.12C9.36,1.23,7.22-.15,5.24.44c4.18,2.32.47,4.9,4.2,6.8Z"/>
      <path d="M16.65,50.59c.82,2.09,4.56,2.03,5.7.45-2.48.26-3.75.16-5.7-.45Z"/>
      <path d="M19.65,7.4c-7.09,0-12.84,5.75-12.84,12.84s5.75,12.84,12.84,12.84,12.84-5.75,12.84-12.84-5.75-12.84-12.84-12.84ZM19.66,31.65c-6.31,0-11.43-5.12-11.43-11.43s5.12-11.43,11.43-11.43,11.43,5.12,11.43,11.43-5.12,11.43-11.43,11.43Z"/>
      <path d="M19,10.54c-5.43-.18-9.99,4.84-9.54,10.16.18,2.15,1.35,4.29,2.58,5.71-1.58-3.81-2.56-7.09-.53-10.65,1.5-2.62,4.06-4.42,7.49-5.22Z"/>
      <path d="M18.94,12.4c-3.31-.3-6.48,3.09-4.98,4.37.3.26,1.41.26,1.79-.02l3.17-2.32c.5-.36.67-1.97.01-2.03Z"/>
      <path d="M28.99,17.93c.53,3.52-.47,6.4-2.51,8.69-2.24,2.52-5.29,3.13-8.83,3.14,4.79,1.3,9.45-.98,11.44-5.81.87-2.1,1.07-4.18-.11-6.02Z"/>
    </g>
  </g>
</svg>