<?xml version="1.0" encoding="UTF-8"?>
<svg id="Warstwa_2" data-name="Warstwa 2" xmlns="http://www.w3.org/2000/svg" viewBox="0 0 50.61 51.7">
  <g id="game-icon-v3-dark-magic-pixarts-store">
    <g id="game-icon-v3-dark-magic-pixarts-store_50">
      <path d="M21.43,31.42c-.11,1.02.03,1.9.56,2.82.83,1.46.53,5.44,3.38,5.23,1.15-.08,2.14-1.24,2.35-2.41.26-1.46.75-2.75,1.14-4.09.33-1.16.26-1.58,1.31-2.39,1.67-1.29,1.13-4.04.19-5.56l.69-2.09c-2.27.02-3.65-1.21-3.93-3.28-1.03.79-2.41.73-3.51.3-.7,1.79-1.89,2.9-3.93,3.14l.58,1.88c-1.6,2.09-1.09,5.24,1.18,6.44ZM27.08,29.22l.55.54c.84-1.11,1.52-1.96,2.7-3.06.17,1,.06,1.78-.28,2.64-.23.57-1.39.85-2.42,1.08l-.96,2.66.42-3.86ZM25.15,22.39l-.31,2.42,1.52.38c-.2.76-.63,1.8-1.11,2.55-.13-3.02-2.6-4.01-.1-5.36ZM22.62,29.14c.68.69,1.01,1.49,1.28,2.66l.19.84c.03.14-.49.29-.51.15l-.13-.71c-.08-.47-.14-1.31-.44-1.51-.3-.2-.98-.35-1.5-.54-1.19-.45-1.73-2.04-1.35-3.4l2.46,2.52Z"/>
      <path d="M28.47,17.78c-.64,1.15-.86,2.33-.22,3.26.51.76,2.1,1.48,2.78.95.79-1.99,1.63-3.93,3.07-5.38l.18-1.3c.45.62.89,1.37,1.06,1.15.18-.24.54-.86.59-1.02l-.43-1.69c.52.76.63,1.36.81,2.32,3.96-.7,7.21-4.09,6.02-8.32-1.85,8.55-9.64,2.41-13.87,10.02Z"/>
      <path d="M8.3,7.79c-.73,2.96.64,6.44,3.74,7.58,1.16.43,2.66.84,3.67,1.12.51-1.06.91-1.64,1.41-1.79l-.86,1.55c-.18.33.64,1.15.94.89.51-.45,1.14-.98,1.53-1.25l-1.07,1.75c-.25.4.85,1.37,1.04,1.85.31.77.51,2.51,1.22,2.67,1.24.27,2.95-1,2.85-2.22-.23-2.92-2.64-5.27-5.34-6.13-1.95-.62-3.89-.85-5.9-1.26l-1.95-1.68c-.58-.5-.81-2.15-1.28-3.1Z"/>
      <path d="M19.81,33.04c.21,0,.6-.28.67-.44.07-.15-.55-.57-.85-.57l-15.83-.14c3.47-2.97,7.09-5.34,10.81-7.98.59-.42.98-.97.56-1.71L0,32.99l19.81.05Z"/>
      <path d="M35.36,22.2c-.29.91.18,1.43.75,1.85l10.77,7.84-15.85.14c-.3,0-1.02.44-.88.57.14.13.62.45.83.44l19.42-.04-15.05-10.8Z"/>
      <path d="M29.89,34.39l-4.6,13.87-4.4-13.31c-.22-.74-.6-1.37-1.54-1.29l5.92,18.05,5.97-17.98c-.45-.1-1.22.25-1.36.67Z"/>
      <path d="M47.39,35.06c-3.39,7.98-11.44,13.42-19.82,14.27-.33.03-.75.3-.9.39-2.52,1.61,16.86.57,22.21-15.83-.94.13-1.21.52-1.49,1.17Z"/>
      <path d="M22.67,17.79l15.54-10.89-1.05,3.81c-.06.22.15.95.38.99.23.04.68-.44.75-.66l2.22-7.34-12.97,9.62c-1.76,1.3-4.32,1.98-4.87,4.48Z"/>
      <path d="M11.97,3.9c.17.42.92.66,1.29.45C20.72.01,29.54.03,37.22,4.24c.53.29,1.14.17,1.35-.38-8.26-5.15-18.37-5.15-26.6.03Z"/>
      <path d="M23.75,50.35c0-.43-.43-1.03-.79-1.07-9.3-.94-16.9-6.93-20.42-15.6-.63.39-.87.63-.8.78,3.79,9.08,12.13,15.33,22.01,15.88Z"/>
      <path d="M.58,30.63c.04.19.39.77.53.66,1.23-.96-2.92-11.52,5.54-21.4.55-.64.8-1.54.72-2.43C1.27,13.57-1.24,22.15.58,30.63Z"/>
      <path d="M43.32,7.65c-.11.88.29,1.76.95,2.57,4.62,5.76,6.17,13.06,4.76,20.54-.03.17.87.53.9.37,1.93-8.5-.37-17.33-6.62-23.48Z"/>
      <path d="M12.94,11.9c1.42-2.11-.9-3.12-.5-5.17l11.4,8.34c.5-.34.91-.58.82-.67-.1-.09-.37-.33-.51-.43L10.29,3.87c.66,2.77,1.54,5.21,2.66,8.03Z"/>
      <path d="M42.99,34.22c.25-.42-1.2-.33-1.42.12-2.5,5.15-7.5,7.95-13.4,9.92,6.43.33,11.52-4.63,14.82-10.04Z"/>
      <path d="M9.24,34.7c-.16-.31-.57-.75-.7-.91-.14-.17-.94.33-.73.69,2.59,4.52,8.27,10.23,14.51,9.82-5.28-2.14-10.34-4.27-13.09-9.6Z"/>
      <path d="M32.31,8.13c.36.16,1.23-.1,1.51-.41-5.35-2.94-11.59-2.99-16.97-.17.31.44,1.14.64,1.63.43,4.55-1.97,9.16-1.96,13.83.15Z"/>
      <path d="M15.06,25.5l-3.81,2.17c3.17.87,4.79,1.95,7.4-.61l-4.92-.08,4.08-.91c1.06-.24,1.91-1.13,1.46-2.4-1.53.55-2.97,1.13-4.2,1.83Z"/>
      <path d="M32.92,26.12l4.35,1.08-5.35-.19c1.52,2.68,5.72,1.25,7.6.71l-3.21-1.75c-1.62-.88-3.15-1.65-4.99-2.33-.58,1.63.48,2.21,1.6,2.48Z"/>
      <path d="M41.09,14.23c2.16,4.65,2.95,8.69,3.4,13.9,1.28-4.77.24-10.44-3.4-13.9Z"/>
      <path d="M5.87,27.79c.29-.09.81-.78.76-1.22-.78-6.05,3.68-12.23,2.72-11.97-2.53.69-4.65,10.56-3.47,13.19Z"/>
      <path d="M15.59,17.64c-.04-.13-.49-.46-.59-.55s-.63.43-.58.56l2.02,6.19c1.13-.4.81-1.23.48-2.23l-1.32-3.96Z"/>
      <path d="M33.95,23.79c.58-.8,2.06-5.32,2.08-6.81-1.43-.58-3.56,8.84-2.08,6.81Z"/>
      <path d="M34.54,39.22l.31-2.13.53,2.09c.83.18,1.26-1.55.6-2.18-.65-.62-1.03-1.15-1.67-2.03-.42-.04-1.59,1.28-1.49,1.68.98.53,1.41.88,1.18,1.86.18.23.55.72.54.71Z"/>
      <path d="M16.12,34.48l-2.14,3.59,1.83,1.15c.14.09.7-.9.54-.9l-.73-.03-.6-.03c-.13,0-.1-.6.02-.59l.55.02c1.16.04,2.28.16,3.02-1.13l-3.08.4c.52-1.05.96-1.69.6-2.49Z"/>
      <path d="M23.57,9.67c.2-.17.62-.94.74-.73.08.16.39.69.43.88l.63,3.01c-.12-.47,1.1-6.17,1.44-3.75l.1.69c.27-.26.59-.51.53-.77-.06-.29-.43-.95-.69-.9-1.75.34-.93,1.65-1.97.4-.25-.3-1.21-.33-1.47-.03-.26.3-.04,1.45.25,1.2Z"/>
      <path d="M38.6,20.62c-.21-.02-1.21.4-1.16.61.19.93,2.51,1.5,3.08.42-.8-.73-.89-1.17-.06-.73l.97.6c.13.08.55-.33.57-.37-.42-.42-.86-.68-.77-.91l.42-1.16-2.85.5c.39.54.89,1.33.63,1.5l-.75.5c-.01-.47.14-.94-.07-.96Z"/>
      <path d="M10.21,19.33l-1.88,1.8,4.25,1.3-2.19-1.85,3.04-.18c-1.16-.71-2.51-1.12-3.22-1.08Z"/>
      <path d="M47.11,20.39l-1.67.69,2.65-.22-.43-2.47-3.06.9c.71.31,1.41.25,2.05.17.29-.04.73.82.46.93Z"/>
    </g>
  </g>
</svg>