<?xml version="1.0" encoding="UTF-8"?>
<svg id="Warstwa_2" data-name="Warstwa 2" xmlns="http://www.w3.org/2000/svg" viewBox="0 0 64.53 43.37">
  <g id="game-icon-v3-dark-magic-pixarts-store">
    <g id="game-icon-v3-dark-magic-pixarts-store_58">
      <path d="M22.17,19.15c.8,1.66-.23,5.72,2.67,5.87,1.86.09,3.24,1.28,3.22,3.02l-1.73-2.11.03,5.4c0,.79.73,2.05,1.12,2.73l.55-1.76c.11,1.21.02,2.36.18,3.27l1.03,5.72c.16.86,1.51,1.68,2.33,1.95l.67-4.34.71,4.47c.98-.55,2.04-1.39,2.22-2.34l1.08-5.51c.16-.8,0-2.06.04-3.04l.74,1.51c.53-.78,1.27-2.13,1.2-3.15l-.31-4.55-1.47,1.71c.33-5.2,5.53-.09,5.39-6.85l.76-3.48-3.32-2.69,2.22.48.45-1.13c-3.2-.88-5.27-2.7-6.17-5.99-.27.26-.59.69-.92,1.15-.29-.87-1.29-1.33-2.44-1.33-1.24,0-2.47.34-2.94,1.34l-.93-1.15c-.98,5.71-6.44,5.54-5.91,6.29l.48.68c.09.13.5-.14.68-.19l1.37-.4c-1.04,2.19-4.3,1.75-3,4.43ZM38.17,21.58c1.27-1.07,1.38-3.39,3.53-3.52l-.93,4.48c-.25,1.19-1.08,2.07-2.44,1.68l.43-1.88-2.74.79c.3-.58,1.55-1.04,2.14-1.55ZM29.33,34.09l.27-4.12c.62,2.2,1.04,3.89,2.07,5.79l.57-4.79.53,4.86c1.17-1.96,1.52-3.65,1.74-5.78l.42.29c.13.09-.06.51-.14.9.49,3.51.58,6.85-1.35,9.95l-.6-3.27c-.04-.22-.39-.55-.59-.59-.2-.04-.5.31-.55.56l-.66,3.33c-1.38-2.24-1.87-4.7-1.71-7.15ZM26.01,21.52c.72.35,1.65.81,2.27,1.3l-2.49-.35.31,1.58c-1.11.41-2.26-.33-2.35-1.55-.2-2.71-1.86-4.83-.62-4.44,1.6.5,2.26,2.16,2.88,3.46Z"/>
      <path d="M40.86,2.35l1.41,1.42c-1.34-.59-2.03-1.03-2.9-.31-.75.61-.55,1.33-.06,2.36l-.91-.49c-.2-.11-.75.11-.94.28-1.1.95-1.17,2.22-.55,3.42.97,1.88,2.3,3.25,4.49,3.88l1.3-2.22-1.65-1.48,2.08.47c.31.07.9-.24,1.06-.49.13-.2.11-.98-.07-1.13l-1.79-1.5c1.12.09,1.83.56,2.78,1.27l1.8-1.75-.82-2.1,1.24,1.3c.36.38,1.5.1,2.06-.15.41-.19.57-1.01.68-1.52l.69.98c.11.16.9-.36,1.07-.27.81.43,2.18,1.6,2.83,2.36l-1.02,1.49c.04-.89.1-1.49.04-1.84-.06-.35-.93-.77-1.28-.7-.29.06-.53.67-.69.93l-.41-.99c-.18-.43-3.3.98-2.69.63-2.57,1.46-5.35,4.28-6.17,7.42,2.11-1.77,3.32-4.03,5.78-4.72,2.37-.67,4.4.69,4.8,3.12.44,2.67-.21,5.28-.63,8.32,2.99-1.87,3.88-9.57,3.12-13.43-1-5.05-5.91-7.93-10.88-6.51l.86.77c-1.75-.64-3.42-.13-4.66,1.17Z"/>
      <path d="M18.95,1.61l.97-1.1c-4.77-1.79-9.83,1.31-11.02,6.37-.8,3.43.03,6.85,1.09,10.22.39,1.24.84,2.4,1.97,3.15-.23-3.2-1.75-9.45,1.32-11.15,3.23-1.78,6.52,2.31,8.56,4.47-.04-1.1-.7-1.84-1.27-2.68-1.01-1.47-2.13-2.74-3.55-3.72-1.36-.94-2.7-2-4.54-1.34-.44.16-1.23.04-1.62.52-.33.4-.31,1.21-.1,1.75l-1.01-1c-.15-.15.36-.83.54-.97l2.14-1.69c.36.13.95.44,1.12.25l.87-1.02.03,1.04c0,.08,2.18,1.19,2.53.82l1.05-1.13c-.55,1.38-.41,1.93.51,2.76,1.05.96,1.7-.51,3.03-.56.1,0,.12.12.04.19l-.53.41c-.47.37-.95,1.25-.73,1.72.3.63,1.15.76,1.72.59l2.12-.64-2.4,1.63,1.23,2.3c2.86-.43,4.98-2.98,4.95-5.76-.18-.47-.91-1.46-1.35-1.67-.46-.22-1.4.75-1.69,1.07.89-1.46,1.09-2.05.28-2.79-.88-.79-1.52-.57-2.76-.11l.98-1.12c-.99-1.37-2.75-1.85-4.49-.8Z"/>
      <path d="M64.53,22.97c-.08-3.23-3.06-4.92-6.12-4.41-1.76.29-4.7,1.25-4.69,3.53l-.35-1.05c-1.23.53-1.88,1.63-1.92,3.04l-.39-1.24-2.21,1.97c0-.88.03-1.04-.46-.5-1.09-.84-1.16-2.17-.59-3.26l.86,1.91c2.18-.63,3.25-2.4,3.47-4.7.14-1.47.3-3.94.15-5.24-.05-.41-.68-1.32-.76-1.7l-1.3-.1.65-.59c.09-.08-.06-.46-.18-.43l-.61.13-1.84-.29c3.33,6.36-2.73,8.83-1.74,16.25l.67-.85c-.22,1.33.16,2.95,1.25,3.66,1.02.68,2.58.49,3.59-.25l-1.73-.62,2.78-.53-1.49-.91,1.6-.07c.16,0,.75-.37.66-.5l-.48-.66c1.79-.06,1.2-1.83,3.65-3.27l2.55-1.49,1.71.28c1.13.19,2.27,1.1,3.27,1.9Z"/>
      <path d="M0,23.08c2.88-2.65,2.41-1.45,4.85-2.4.56.63,1.98,1.36,2.99,1.29-.03.32.15,1.12.49,1.29.34.17,1.14-.2,1.76-.57l-.65,1.04c-.35.56,1.03,1.61,1.56,1.87l.03,1.1,2.18-.17-1.63,1c.95.35,1.44.44,2.67.69l-1.46.6c1.04.76,2.55.89,3.4.26,1.21-.9,1.14-2.23,1.06-3.73l.64,1.09c1.09-7-4.87-10.65-1.81-16.22h-2.43c0,.29.14.81-.04.87l-.91.31.27.82c.05.16-.78.56-.81.81-.25,2.19-.26,9.85,3.66,9.57.44-.33.45-1.67.54-2.48.32.68.85,2.41.4,3.12l-1.06,1.66-2.71-2.23c-2.07-1.71-4.12-3.93-7.36-4.18C2.77,18.27-.11,19.99,0,23.08Z"/>
    </g>
  </g>
</svg>