<?xml version="1.0" encoding="UTF-8"?>
<svg id="Warstwa_2" data-name="Warstwa 2" xmlns="http://www.w3.org/2000/svg" viewBox="0 0 45.07 53.77">
  <g id="game-icon-v3-dark-magic-pixarts-store">
    <g id="game-icon-v3-dark-magic-pixarts-store_81">
      <path d="M5.84,53.56c.62-1.27,1.76-3.36,2.17-4.54l2.1-6.05,1.72-.05c.88-5.32,10.08-12.56,14.62-15.33.31-.2.69-1.11,1.04-1.03l1.45.32c.34.07,1.51.27,1.49-.08l-.08-1.52c-.02-.44.98-.4,1.69-.5l-.74-2.19c1.21-.6,1.84-.95,2.67-1.68-1.16-1.11-2.49-2.03-3.87-1.97-1.05.98-1.86,2.75-2.83,3.53l-7.76,6.18-.56-2.02c-.11-.41-.99-1.01-1.4-.89s-.96.97-1.01,1.42l-.5,4.25c-3.34,2.77-6.09,5.44-8.76,8.72l1.35.55c-2.33,1.32-4.03,2.57-5.49,4.57l3.21.29-3.66,1.83c-1.18.59-2.61,1.94-2.69,3.31,1.27,1.7,3.6,3.73,5.84,2.85Z"/>
      <path d="M1.38,5.06c4.66-.26,8.81-.19,13.05.42l2.09-1.28.73,2.39c2.3,1.08,4.28,2.14,6.46,3.56l2.33-.7-.03,2.26,4.41,3.87,4-5.85c-1.09-.86-1.83-1.38-2.21-1.95-.51-.77-.04-2.05.53-2.94l-5.64-2.29c-1.52,1.35-2.36,1.59-4.01.68-.4-.22-1.17-.68-1.13-1.05l.17-1.53c-7.12-1.77-14.87.04-20.74,4.39ZM25,6.77l1.09-.53c.25-.12,1.48-.26,1.6-.01l.53,1.12c.68.66,1.34,1.53,1.39,2.44l-3.23-2.22c-.16-.11-.85.05-1.04,0-.19-.05-.52-.72-.34-.81Z"/>
      <path d="M40.1,14.4l.89-1.65-4.33-3.72-5.63,8.17,4.05,2.65,4.37-4.96c.79,2.16-1.37,3.11-2.43,4.37l2.89,5.93c.22-1.76.27-3.49.25-5.6,2.04.33,3.62,1.7,4.91,3.47.06-2.01-2.34-9.74-4.96-8.67Z"/>
      <path d="M41.21,10.55c.4-.12.95-.94,1.04-1.34l-3.02-2.11c-.32.12-1.1,1.11-.89,1.4l.97,1.33c.29.4,1.43.85,1.9.71Z"/>
    </g>
  </g>
</svg>