<?xml version="1.0" encoding="UTF-8"?>
<svg id="Warstwa_2" data-name="Warstwa 2" xmlns="http://www.w3.org/2000/svg" viewBox="0 0 53.45 53.45">
  <g id="game-icon-v3-dark-magic-pixarts-store">
    <g id="game-icon-v3-dark-magic-pixarts-store_01">
      <path d="M26.73,0C11.97,0,0,11.97,0,26.73s11.97,26.73,26.73,26.73,26.73-11.97,26.73-26.73S41.49,0,26.73,0ZM26.74,52.28c-14.11,0-25.55-11.44-25.55-25.55S12.63,1.17,26.74,1.17s25.55,11.44,25.55,25.55-11.44,25.55-25.55,25.55Z"/>
      <path d="M26.73,5.87C15.2,5.87,5.86,15.21,5.86,26.73s9.34,20.87,20.87,20.87,20.87-9.34,20.87-20.87S38.25,5.87,26.73,5.87ZM23.1,34.42c2.18.41,1.51,2.43,2.1,3.92.31.79,2.53,1.03,3,.21.45-.79.78-1.91.9-2.65-.62.83-1.31,2.87-2.79,2.29-1.24-.5-1.61-2.53-1.59-3.86l3.19.27-.25,2.46.83-2.36c.16-.44,1.08-.34,2.04-.32l-3.78,9.82-3.64-9.77ZM20.44,29.67l-5.6,1.28c-2.09.06,8.33-3.69,5.6-1.28ZM19.92,25.76c-1-2.53-1.69-4.32-2.37-7.04.84.17,5.62,5.78,2.37,7.04ZM16.26,31.15l4.79-.47c-1.56,1.75-3.61.83-5.61,2.1l5.56-.8.72,1.5h-7.43c.51-.87,1.32-1.9,1.98-2.32ZM20.44,26.87l2.17-2.19c-1.62-5.4-6.35-6.49-6.63-10.51l9.74,7.17c-.76.74-1.51,1.24-1.8.93-.45-.48-.97-1.08-1.2-1.45l-.41-.67c-.11-.19-.58.01-.82.08-1.09.32,2.78,1.41,1.68,4.08l4.16-2.82c.87,1.3,1.75,2.32,2.78,2.85-.09-1.2-.02-1.91.54-2.68l1.83-2.49c-2.11-.78-2.77,4.16-3.74,3.12-1.48-1.57-1.14-.69,3.76-4.57,1.6-1.27,3.02-2.27,4.91-3.53-.06,4.54-4.66,4.46-6.41,10.29.34.75,1.17,1.54,2.01,2.28l-2.18,6.18c-.12.35-1.24.88-1.53.68l-1.22-.83c0,.18-.88.91-1.34.89l-3.9-.14-2.42-6.67ZM32.51,30.64l4.46.7c-2.04-1.6-1.7-.46-3.81-1.95-.18-.13.7-.45.91-.38,5.31,1.77,3.57.62,8.16,4.44h-10.37s.31-1.35.31-1.35c.22-.93,3.92,1.65,5.13.44-1.65-.81-3.87,0-4.81-1.89ZM33.58,25.78l-1.6-1.57c1.16-2.37,2.09-4.02,4.01-5.81l-2.41,7.38ZM26.82,46.69l4.51-12.37,13.39.15c-2.95,7.62-10.08,12.04-17.9,12.21ZM44.82,34.21l-10.47-7.73,5.09-14.81-12.78,9.04-12.63-8.87,5.11,14.41-10.55,8.01,13.53.15,4.46,12.15c-6.81.18-12.86-3.7-16.11-8.66-5.5-8.39-4.37-19.84,4.17-26.79,6.86-5.58,16.87-5.61,23.85-.34,7.05,5.32,9.95,14.97,6.34,23.44Z"/>
      <path d="M24.9,2.65l.82,2.42.84-1.28c.19.43.33,1.12.49.96l.81-.81c.51-.51.89-1.95.32-1.94l-2.13.02c0,.06.1.83.16,1.36l-.74-.61c-.16-.13-.88-.2-.57-.12Z"/>
      <path d="M26.05,2.02h0s0,0,0,0Z"/>
      <path d="M6.21,35.39c-.27-.07-1.25.15-1.47.23-.15.06.23.47.37.54l.8.37.24,2.78c.02.23.65.61.86.72.14.07.25-.6.13-.71l-.48-.43c.93-.82.64-3.2-.45-3.5Z"/>
      <path d="M7.76,16.36c.14.02.28-.51.14-.56l-.88-.35c-.35-.14-.81-1.02-.54-1.17l1.17-.67-1.39.1c-.33.02-.3.92-.41,1.31l-.54,1.86,1.71-.6.73.08Z"/>
      <path d="M23.5,9.52l.26,1.89,2.26-.46c.35-.07.54,1.23.35,1.52-.78,1.19-1.83.59-2.3,2.19l2.04-1.02c.35.28.52,2.56-.12,2.54l-2.12-.07c.45,1.05,2.07.99,3.14.65l.27-3.07c.68.06,1.74.81,1.57,1.2l-.61,1.4c-.04.1-.53.4-.52.4-.02,0,.58.59,1.02.17.79-.75,1.08-3.23-.72-3.82-.4-.13-.98-.85-1-1.27-.02-.42,1.09-.8,1.52-.7.68.16,1.31.46,1.33.14l.06-1.41c-1.41.49-4.54,1.04-6.43-.27Z"/>
      <path d="M39.38,19.52l2.01.34v2.67c-1.17-.34-1.68-.58-2.06-.53-.48.06-2.81,2.4-1.6,4.26,1.34,2.06,3.19.45,4.57.84l-.06-6.54.73-1.62c-1.46.17-2.17.26-3.58.58ZM39.89,26.66c-1.02,0-1.85-.83-1.85-1.85s.83-1.85,1.85-1.85,1.85.83,1.85,1.85-.83,1.85-1.85,1.85Z"/>
      <path d="M10.25,19.09c-.26.04.64.84.69,1.09.3,1.56-.04,4.72-.32,6.34-.05.28.71.91.74.64l.13-1.15c.08-.7.34-1.88.69-2.4.27-.41,1.2-.63,1.97-.6.66.02,1.18,1.8.87,2.44-.24.52-.88.97-1.65,1.58.6.14,1.69.08,1.98-.32,1.04-1.43.62-4.05-.74-4.43-.65-.18-1.48.06-2.78.43l.27-3.23,2.04.64c-.31-1.73-3.34-1.14-3.89-1.05Z"/>
      <path d="M35.39,41.1l2.15-3.08c.19-.28-.58-1.05-.77-.86l-.72.66-.68.63c-.14.13.69.49.94.63.3.16-1.13.72-1.19.38l-.18-.97-.88-1.69-2.27,2.1c1.68-.01,2.98.68,3.6,2.2Z"/>
      <path d="M15.78,40.89l.95-.88,1.38,1.05,1.53-2.22c1.11.2,2.21-.03,2.29-.58-.96-.22-1.44-.2-1.6-.43l-.67-.99-1.74,2.71-1.06-.72c-.17-.12.36-.52.57-.5l.85.09-.95-1.25c-.23-.3-1.43-.04-1.41.34.06,1.01-.29,1.98-.9,2.78.11.23.59.75.75.59Z"/>
    </g>
  </g>
</svg>