<?xml version="1.0" encoding="UTF-8"?>
<svg id="Warstwa_2" data-name="Warstwa 2" xmlns="http://www.w3.org/2000/svg" viewBox="0 0 45.96 50.86">
  <g id="game-icon-v3-dark-magic-pixarts-store">
    <g id="game-icon-v3-dark-magic-pixarts-store_24">
      <path d="M36.98,46.09v-30.03c0-2.99-1.85-5.35-3.58-7.52-3.92-4.92-10.44-5.82-16.12-3.75-2.56.93-3.63,2.65-5.09,4.27-2.27,2.54-3.32,5.13-3.31,8.65l.07,28.93,2.04-.12.08-5.15c.07-.44,1.39-.94,1.94-.97l-.08,4.44c0,.35.47,1.1.7,1.27l.33-5.95,2.38-.89.43,6.13c1.64-.97-.44-5.93,1.07-6.69.38-.19,1.53-.3,1.61-.18.82,2.18-.99,4.36.99,6.06l.16-30.59c0-1.7.19-3.04-.57-4.48-1.63,3.58.33,4.56-.67,7.79-.12.38-1.59,1.07-1.75.7-1.16-2.63.98-3.12-.8-6.06-1.59,1.92.6,6.02-.81,6.8-.48.26-1.83.52-2.06.44.08-2.18.19-3.48-.34-5.25-2.02,2.78,1.3,6.17-2.4,6.6-1.17-6.13,2.47-12.54,8.93-14.08,4.27-1.02,8.34.46,11.11,3.17,2.84,2.77,4.37,6.59,3.48,10.81-4.15-.68-.08-4.29-2.62-6.87-.38,1.66-.32,3.26-.23,5.53-.36.08-1.6-.11-2.01-.48-1.24-1.14.74-4.58-.77-6.85-.55,1.1-.67,2.19-.63,3.5l.08,2.61c-4.83.37-.57-5.55-2.83-8.44-.59,1.38-.53,2.6-.52,4.2l.14,30.79c2.09-1.96.02-3.88,1.13-6.15.5.07,1.8.55,2.09.96l.47,6.38c.96-2.33.31-4,.55-6.34l2.19.74.49,6.4c.88-1.8.45-3.92.68-5.7.28-.54,1.91.18,1.92.77l.14,4.91c.01.5,1.96.2,1.96-.31ZM17.29,19.7c0-.62,1.88-1.26,2.26-.95l.05,8.71c-1.22.87-1.5,1.15-2.32,1.97l.02-9.73ZM19.59,31.51l-.08,5.07c-.01.69-1.46,1.15-2.16,1.16l-.11-7.15,2.35.91ZM16.37,19.68l.04,18.23c-.55.54-1.48.9-2.52,1.07l-.06-18.31,2.53-.99ZM12.95,21.04l.02,17.86c0,.54-1.29,1.13-1.93,1.04l-.03-18.07c.37-.44,1.36-.81,1.93-.83ZM26.29,37.16l-.04-5.64,2.36-1.1.04,7.34-2.37-.6ZM28.49,28.5l-2.27-1.02.06-8.97,2.3.67c.19,3.2.19,6.01-.09,9.31ZM29.55,37.95l.02-18.23c.75.09,1.73.43,2.37.92l.04,18.03c-.7.29-2.06-.13-2.43-.72ZM32.8,39.14l.05-18.02c.44-.27,1.67.13,2.05.61v18.17c-.79-.08-1.43-.34-2.1-.77Z"/>
      <path d="M38.4,46.76l5.63.07-.05-13c-2.16.53-1.92,1.66-2.41,2.95-.88-1.86,1.15-3.21,2.35-4.37l.08-12.4-1.35-.04c.58-.29,1.38-.97,1.38-1.57l-.03-6.15-5.86-.02.12,13.09,2.23-1.23-2.3,2.62.04,14.06,1.08.69c.62.39-2.1,2.46-.9,5.29Z"/>
      <path d="M1.86,46.86l5.85-.12-.08-14.1c-1.17.24-1.75.26-1.82-.07.52-.36,1.83-1.03,1.83-1.62l.04-9.16-2.54-3.43c1,.31,1.5.62,2.4,1.19l.17-7.31H1.56c.32,1.35.58,2.19.93,3.18-.11.36-.62,1.66-.63,2.28l-.03,9.68,1.67,1.03c-.42.12-1.48.44-1.66.7l.05,7.49,1.89,1.94-1.97-.33.04,8.65Z"/>
      <rect x="10.62" y="47.88" width="24.64" height="2.94"/>
      <path d="M38.66,5.51l-.51-1.16c-.62,1.01-.8,2.73-.06,3.6h6.46s-.54-2.69-.54-2.69c-.03-.98-.22-2.07-.59-2.59l-.74,1.56c-.14.3-1.2,0-1.22-.34-.18-2.87.49-2.45-.63-3.89l-1.08,3.11.03,2.43c-.11.22-1.02.22-1.13-.04Z"/>
      <rect x="0" y="47.9" width="9.46" height="2.95" transform="translate(-.12 .01) rotate(-.14)"/>
      <path d="M3.37,5.95l-.93-1.48c-.78.52-1.37,2.65-.56,3.49l6.09-.03c.07-2.1-.14-3.76-.79-5.33l-.95,2.3c-1.79-1.2-.94-2.86-.74-4.65-2.05.51-2.07,3.26-1.35,4.49.19.33-.58,1.52-.77,1.21Z"/>
      <rect x="36.39" y="47.92" width="9.57" height="2.91"/>
      <path d="M8.83,8.95l-8.27.02c.16.83.36,1.65.6,2.27l7.6-.04.06-2.25Z"/>
      <path d="M45.02,9.03l-7.99-.07c.04.63.15,1.57.29,2.27,2.3.02,5.24.01,7.23-.08.59-.03.86-2.25.47-2.13Z"/>
    </g>
  </g>
</svg>