<?xml version="1.0" encoding="UTF-8"?>
<svg id="Warstwa_2" data-name="Warstwa 2" xmlns="http://www.w3.org/2000/svg" viewBox="0 0 45.77 55.41">
  <g id="game-icon-v3-dark-magic-pixarts-store">
    <g id="game-icon-v3-dark-magic-pixarts-store_57">
      <path d="M29.05,28.65c1.72-1.58,3.5-2.96,4.98-4.67l3.07-3.57c.91-1.06-.04-2.6-1.15-3.26l-.47-2.78c-1.74,1.48-2.37,4.08-.68,5.76l-2.06-.68c-1.3.81-2.98.93-4.29.32l1.36-.46c-1.58-1.18-.41-7.94-.16-9.46l1.04-6.39c.09-.57-.91-1.58-1.44-1.6-.49-.01-1.18.56-1.32,1.3-.51,2.76-1.44,6.53-2.13,9.15-.13.48-1.36.42-1.74.05-.48-3.58-.8-7.4-.98-11.06-.03-.61-.98-1.36-1.47-1.29-.43.06-1.41.81-1.4,1.31.06,3.5.32,7.41.74,11.09.04.38-.78,1.28-1.04.97-2.47-2.91-2.31-6.26-3.08-6.23l-1.35.04c.52-.41,1.6-.65,1.65-1.17l.19-2.37-3.35,1.3c.18,1.68.36,4,1.06,5.61l1.75,4.05c.15.35-.05,1.14-.26,1.36-1.03,1.11-1.05-1.79-3.51-1,.18-.37.55-1.12.22-1.25l-1.47-.55c1.03-.51,1.94-1.04,2.85-1.8-1.25-1.02-3.29-1.15-4.07-.06-.63.89-.09,3.38.7,4.18,1.8,1.84,3.11,3.85,3.69,6.31l1.36,5.76c.24,1.01,1.83,2.38,2.76,2.5,1.08.14,2.49-.58,3.86-1.06-.91,1.81-3.07,1.91-5.07,1.56.23,4.52.04,8.72-.53,13.22-.09.75.41,1.84,1.06,1.58.46-.19,1.02-.71,1.53-1.21.51.71,1.61,2.51,2.72,2.54.98.03,2.57-.61,3.42-.95l.08-6.31,1.06,6.11.2-1.65.81,1.11c.12.17.8-.44.75-.78-.6-4.09-1.26-10.03-.78-14.16-1.66-.04-3.02-.26-4.16-.86,1.79-.16,3.79.62,5.07-.56ZM23.57,27.74c-1.79-1.24-.7-5.74,1.31-6.87-1.16,2.28-2.16,3.78-1.31,6.87Z"/>
      <path d="M36.43,41.06l1.23-1.42-4.67-2.52,4.4-1.8-.21-1.72,4-1.79-5.53,1.12c.08.47.64,1.47.32,1.61l-1.27.54c-1.85.79-3.34,1-5.47.75l.43,3.97.83-2.12c2.48-.6.7,3.78,1.41,5.76l1.01-4.49,2.65,1.22-.74,1.35c.22,1.15.28,2.24.18,3.4-2.75-.54-4.38.43-6.6,1.19l-5.6,1.93-2.86-1.59c-.52-.29-1.95.23-2.48.26-1.39-1.02-2.86-1.66-4.72-2.24l-1.89-4.1c-.11-.23.26-.69.48-.81.22-.12,1.09.12,1.17.34l1.25,3.53c.08-1.77-.39-3.13-.79-4.98l2.05-.44.71,3.04c.11-4.74,1.18-2.08,1.02-4.97l-3.59.61c-2.23.38-3.52-.34-4.81-2.21-1.45-.3-3.56-.39-5.27-.26l3.78.86.03.71c1.61.42,3.27.73,4.25,2.59l-5.19.58c1.7.72,3.13,1.49,4.97,2.83-1.9,1.67-3.67,2.02-5.9,2.56l-5.04,1.2c1.99.49,3.83-.08,5.88-.47,1.13-.22,2.57-.01,3.55-.7.37-.26,1.72-.31,1.83.08l.35,1.28c1.69.29,3.37.68,4.79,1.46-.65.95-1.43,2.13-2.04,2.22l-3.8.58-.13,2.51-3.93,2.88,4.96-2.21.4-2.25,4-.55c.99-1.22,2.25-3.14,3.53-2.66l4.05,1.51c1.23.46,2.94-.97,3.97-1.92l4.66,2.82-.05,2.55,5.11,1.47c-.67-1.35-2.38-1.67-4.1-1.92l.28-2.74c-1.45-.89-2.39-1.55-3.42-2.55,3.17-1.8,5.95-.85,8.88-.24l-3.07-1.98c.06-1.02,1.03-2.32,2.03-2.63,2.44-.76,2.33,1.87,8.03.64l-4.67-.82c-1.41-1.37-2.55-1.29-4.68-.87Z"/>
      <path d="M36.08,12.33c-.14,1.69-.08,3.26.48,4.6,1.23-1.84.51-3.33-.48-4.6Z"/>
    </g>
  </g>
</svg>