<?xml version="1.0" encoding="UTF-8"?>
<svg id="Warstwa_2" data-name="Warstwa 2" xmlns="http://www.w3.org/2000/svg" viewBox="0 0 40.58 61.47">
  <g id="game-icon-v3-dark-magic-pixarts-store">
    <g id="game-icon-v3-dark-magic-pixarts-store_37">
      <path d="M37.07,27.81c-1.59-.89-2.4-2.26-2.3-3.85.08-1.34.78-2.89,2-3.69,5.1-3.35-1.39-6.8,3.15-9.56-4.32,1.06-2.54,4.09-4.18,5.9-.34.37-1.56.58-1.93.21-1.46-1.45-.58-3.94,1.14-4.99,5.62-3.42-.4-8.17,3.43-10.49l2.2-1.34c-9.55.13-2.33,8.37-10.74,8.35-.5,0-1.73-.53-1.64-.98s.66-1.11,1.26-1.72c-1.99-.3-3.47,1.64-3.49,3.8-.04,4.42-5.29,2.36-6.73,3.72.09-.48.99-1.55,1.64-1.79,4.43-1.65,1.29-4.43,3.01-7.36-3.74.77.11,5.04-5.07,5.63-2.32.26-4.58,1.49-5.09,3.81-.94,4.24-3.7,1.7-5.28,5.14-1.62-4.63,4.91-2.54,3.8-8.38-.27,3.7-6.84,3.92-6.92,6.85l-.11,4.02-2.99,5.9c-1.87-2.66,2.33-4.73.38-7.47-.17,1.33-.44,2.74-1.14,3.73-2.05,2.91-2.02,6.21.44,8.82,2.57,2.73,2.06,5.44,1.44,5.02-.2-.13-.68-.47-.85-.65l-1.8-1.86.78,2.93,1.3,1.23c.79.75-2.28,5.55,2.48,6.94,1.81.53,2.81,1.82,4.08,3.42-.22-6.21-1.45-2.52-3.86-7.19-.83-1.61-1-2.82.48-4.31l-1.15-5.29c-1.31-6.01,1.68-11.82,7.1-14.48,4.35-2.13,9.05-2.23,13.59-.54,1.1-2.09,2.5-4.12,4.83-4.15-3.46,1.47-4.57,5.22-3.57,8.15l-.38,2.52c-1.97-4.07-.06-2.38-1.01-5.27-1.32-1.14-5.61,2.45-4.76,4.76l2.62,1.02c.24.09.76.44.62.61-.14.19-.39.52-.45.56-.54-.13-1.72-.17-2.07.24l-2.95,3.4c.06-2.1,2.49-2.76.82-4.99-.53-.7-1.58-.67-2.8-.56l2.53-2.24c.11-2.06,1.56-2.72,3.31-3.69-4.53-1.21-9.55-.11-12.67,3.17l-1.55,1.63c-2.99,3.15-2.95,7.95-1.64,12.13,1.2-1.9,1.55-4.07,1.46-6.62,1.49,2.49.14,4.86-.37,7.48-.3,1.53-.7,3.03-1.3,4.37-.41.91.69,3.19,1.65,3.57,2.1.84,4.81-1.63,5.8.3l-1.68.06c1.31,1.12,1.75,2.03,1.42,3.43l3.04.96-.78,1.7c-.11.24.59.77.93.95-.72,5.43.6-3.41,1.14-5.86-.7-.3-1.2-1.3-.91-2.01l1.53-3.79,1.82.28,1.45,3.62c.21.51-.39,1.95-1.26,1.85-.57-.07-1-1.47-1.1-2.1l-1.09,2.24c-.08,0-.16,0-.24-.03-.03.6-.12,1.65-.29,3.27l-.08.81-.19,1.55c-.04.33.97.62,1.26.45.47-.28.13-1.67-.18-2.28-.14-.27.95-.72.98-.41.05.48.07.92.09,1.4l.05,1.42c.01.32,1.39-.17,1.35-.48-.06-.57-.39-1.42-.77-2.31l4.73-.97c-.39-1.65.3-2.75,1.41-3.71-1.32-.26-1.75.87-2.04,2.42-.31-.56.03-2.18.64-2.83,1.67-1.76,4.61,2.32,6.72-1.17.84-1.39.76-2.7-.34-3.94l-.35-3.42c-1.11-2.3-1.63-4.62-.35-6.85,0,2.36-.05,4.34,1.23,6.39,1.94-4.59,1.03-9.91-2.44-13.6l-2.3.41c2.47-2.85-.42-3.81,1.9-5.93-.84,5.53,1.51,3.88,3.61,8.56,1.73,3.87,1.39,8.12.01,12.07-.46,1.31.23,2.09.59,3.19.84,2.56-1.48,4.98-3.56,6.14-.54,1.1-.7,2.9-.49,4.24,2.48-4.96,4.28-2.09,6.71-5.25-1.17.24-1.95.35-2.85-.05,7.77-4.52.5-8.31,6.28-10.85-4.19-.44-3.05,3.45-4.36,4.65-1.33-2.54-.06-5.04,2.14-6.2,2.49-1.32,3.39-4.07,2.3-6.63-.65-1.54.02-3.1,1.25-3.87-5.37,1.27-1.15,4.72-3.51,6.58ZM16.79,38.52l-.93,1.33c-.25.36-1.46-.19-1.89-.13-1.7.23-4.05.44-5.04-1.09l-.43-2.93c-.09-.59,1.05-1.49,1.48-1.96,2.43-2.67-1.75-6.35-.2-7.19,1.15,4.05,2.6,1.69,1.31,7.68l.64,2.78c.1.44.59,1.06.96,1.2.37.14,1.35-.42,1.45-.8-1.79-1.54-2.39-3.54-1.41-5.62.32,3.71,4.52,4.35,4.54,4.34l1.24-.71c-.4,1.03-.98,2.08-1.7,3.1ZM28.22,26.52l-.31,3.23-.46,4.18c.79.31,1.69.61,2.03.9.59.5.26,4.74-1.02,5.42l-5.7-.71c-1.27-.16-2.39-2.93-2.68-4.07l1.19.68c-.08-.05,3.95-.64,3.81-3.8,0-.19.3-.67.41-.73.11-.06.5-.06.48.07-.44,2.23,1,3.65-1.86,5.42.23.58.35.9.58,1.11.28.25,1.53-.31,1.63-.67l.83-3.23c-.51-1.07-.34-1.81-.25-2.89.14-1.75-.18-3.3,1.32-4.89Z"/>
      <path d="M27.28,47.79l-.32-2.02-.96,6.65-1.06-.83c-.14.67-.12,1.52-.12,2.34,0,1.89-2.55,2.86-3.66,3.55l-1.01-2.2c-.63.68-.77,1.52-.66,2.19,1.08-.5,1.26-.46.55.37-1.95-.05-4.46-.68-5.79-2.08-.99-1.04-.76-2.47-1.08-3.38-.27-.75-1.34-1.73-1.39-2.65-.09-1.69-.28-2.94-.68-4.35l-.43,4.43-.29-3.89c-.77-.58-.79-.34-.29.45l.05,6.98,4.09,5.64c1.44,1.99,2.52,2.42,4.79,2.49,2.48.08,3.61-.4,5.14-2.52l4.12-5.67-.43-6.27-.58.79Z"/>
    </g>
  </g>
</svg>