<?xml version="1.0" encoding="UTF-8"?>
<svg id="Warstwa_2" data-name="Warstwa 2" xmlns="http://www.w3.org/2000/svg" viewBox="0 0 42.72 52.62">
  <g id="game-icon-v3-dark-magic-pixarts-store">
    <g id="game-icon-v3-dark-magic-pixarts-store_118">
      <path d="M38.08,15.27l-3.55-.4.83-3.36-3.87-1.29-.7,2.09-.36-2.43-6.5-3.14-2.6,3.11-2.58-3.1-7.64,3.59-.41,6.05-.84-5.7-2.85,1.08,1.09,3.1-3.77.48.58,5.25,1.81,1.95-1.54-.29c.67,3.52,1.73,6.93,3.2,10.26l3.81.63-.99,4.51c2.28,3.18,4.69,5.72,7.72,8.28l2.48-3.21,2.23,3.21c1.52-1.09,2.1-2.14,2.43-3.66l.84-3.9.08,4.58c1.8-1.76,3.17-3.34,4.43-5.32l-.88-4.51,3.59-.54c2.61-5.5,3.84-11.4,3.97-17.31ZM30.18,30.44c-.67.97-1.69,1.57-3.33,1.94l-.75,2.53c-2.17,2.3-5.27,2.3-7.99,1.21-1.38-.55-1.87-2.15-2.15-3.52-2.09-.62-4.42-2.23-3.89-4.79.18-.86.24-2.02,0-2.87-1.47-5.21,1.35-9.86,6.39-11.19,4.64-1.22,9.58.5,11.75,4.93,1.21,2.47.43,5.11.27,7.71-.09,1.35.61,2.75-.29,4.06Z"/>
      <path d="M42.32,8.77c-7.42-1.24-14.29-3.94-20.36-8.65l-.58,4.31-.71-4.43C14.5,4.87,7.84,7.52.4,8.73l2.87,2.75L.02,10.01c-.07,3.07,0,6.45.78,9.48.21.82.41,1.52.42,2.02.11,5.56,2.57,11.02,5.18,16.14l1.88-1.65-1.11,2.6c3.34,5.59,7.91,10.17,13.52,14.01l.68-3.69.71,3.65c5.62-3.7,10.01-8.31,13.31-13.76l-1.2-2.68,2.04,1.61c2.67-4.86,4.35-9.63,5.23-14.95-.97.38-2.62,1.16-2.99,1.93-.97,3.17-1.9,6.03-3.28,8.95l-3.06.71.85,3.24c-2.49,4.07-5.66,7.37-9.55,10.33l-2.17-2.84-2.19,2.72c-3.89-2.95-6.92-6.15-9.34-10.15l.78-3.43-3.01-.57c-3.07-6.14-4.35-12.91-4.43-19.67l3.09-.19-.93-3.25c4.99-1.22,9.36-3.15,13.7-5.79l2.36,2.75,2.31-2.63c4.54,2.54,8.62,4.24,13.53,5.63l-.68,3.23,3.28.23-.83,9.2c.61-.07,2.76-.92,2.89-1.74.64-3.9.82-7.65.94-11.45l-3.71,1.94c.87-1.45,1.83-2.07,3.3-3.17Z"/>
      <path d="M25.82,15.85c-2.59-1.45-5.36-1.59-8.15-.42-3.42,1.43-5.72,5.03-4.17,9.01l.99-2.54c.04.81-.11,1.8-.35,2.78l-.59,2.45c-.31,1.29-.33,3.23,1.44,3.4.75.07,2.36.34,2.45,1.09l.38,3.28.75-1.55.39,1.92.83-1.61.8,1.97.68-1.91.86,1.93.67-1.99,1.01,1.41.5-1.89.54,1.12c.08.16.52-.52.43-1.03l-.3-1.77c-.06-.39.94-.97,1.36-.86,1.07.25,3.32-.51,2.96-2.18l-1.3-6.06,1.27,2.04c1.14-3.31-.36-6.82-3.48-8.57ZM18.77,28.15c-.81.34-2.54.53-3.13.05-1-.81-.97-2.59-.11-3.28,1.2-.98,3.48-.92,4.48.88.36.66-.56,2.06-1.24,2.35ZM22.6,31.38c-.59-.18-1.07-.41-1.28-.35l-.95.29c-.59-1.15-.26-2.78,1.08-3.74,1.08,1.02,1.45,2.55,1.14,3.79ZM27.43,27.79c-.53.75-1.93,1.02-3.06.54-1.06-.45-2.17-1.56-1.68-2.73.55-1.31,2.56-1.64,3.89-1.08,1.39.58,1.64,2.16.85,3.26Z"/>
    </g>
  </g>
</svg>