<?xml version="1.0" encoding="UTF-8"?>
<svg id="Warstwa_2" data-name="Warstwa 2" xmlns="http://www.w3.org/2000/svg" viewBox="0 0 49.15 46.63">
  <g id="game-icon-v3-dark-magic-pixarts-store">
    <g id="game-icon-v3-dark-magic-pixarts-store_95">
      <path d="M10.73,33.87c-2.9.58-6.54-.37-7.58-3.36-.37-1.05-.5-2.04-1.32-2.92-.86,1.14-.89,2.8-.26,4.07,2.08,4.19,6.56,5.61,11.26,4.13-.19,2.05-2.24,2.76-3.92,3.12-4.89,1.06-4.92-3.62-6.92-5.2-.77,2.5.45,4.67,2.02,6.04,1.86,1.64,3.84,1.57,6.48,1.18-.43.93-1.27,1.81-2.01,2.15-1.03.46-2.4.27-3.02-.49l-2.17-2.64c-.78,2.46.91,4.21,2.52,5,1.8.88,3.98.24,5.39-1.21,4.72-4.82,4.3-7.35,10.01-13.05.31-.31.74-1.01.8-1.38.05-.31-.41-.92-.71-1.25l-3.43,2.5c-.2.15-.81.17-.99.04-.97-.71,3-3.3,3.53-3.67.27-.19.45-.84.33-1.14-.61-1.54-3.34,1.99-7.82,2.88-3.56.71-8-.91-9.59-4.18-.38-.79-.05-2.14-.84-2.86-1.76,1.47-1.49,4.17.09,5.74,3.01,3,7.18,4.34,11.62,3.72,0,2.12-1.86,2.44-3.49,2.76Z"/>
      <path d="M27.31,29.28c.09.32.48,1.01.72,1.25,5.76,5.81,6.15,9.69,10.39,13.39,1.59,1.39,3.78,1.98,5.63.78,1.35-.87,2.8-2.82,2.11-4.87l-2.8,3.26c-1.83.8-3.69-.33-4.36-2.08,2.3.28,4.47.28,6.2-1.18,1.64-1.39,2.73-3.42,2.1-5.96-1.85.92-1.78,5.97-6.81,5.1-1.76-.31-3.69-1-4.16-3.14,4.79,1.42,9.31.13,11.38-4.23.51-1.08.52-2.79-.22-3.73-1.22.25-.86,1.85-1.23,2.59-1.63,3.35-5.54,4.26-8.85,3.21-1.23-.39-2.51-.96-2.14-2.53,4.48.58,8.94-.88,11.73-4.21,1.32-1.58,1.36-4.21-.26-5.2-.97.37-.27,1.93-.6,2.58-1.8,3.45-6.42,5.24-10.36,4.34-2.13-.49-4.79-2.21-6.61-3.12-.24-.12-.89.62-.76.85.13.23.47.71.7.88l3.26,2.46c.18.14.27,1.11.04,1.1-.18,0-.82-.03-.97-.14l-3.33-2.49c-.29.14-.9.78-.81,1.1Z"/>
      <path d="M19.33,8.36c.16.72.92,2.24,1.59,2.75,1.73,1.31.58,2.72.58,4.11l-.02,4.79-.15,4.13c-.06,1.7,1.01,3.57,1.66,5.18.61,1.51.13,2.99,2.01,4.21l1.58-4.57c.79-2.28,2.52-5.39.8-7.62-2.07-2.69-2.35-5.18-.34-7.96.65-.91,1.22-2.3,2.14-3.27.33-.35.87-1.27.73-1.67-.12-.34-.7-.75-1.02-1.1l-1.58-1.72c-1.75,1.3-3.71,1.05-5.38.17-.8,1.08-1.47,1.74-2.59,2.57Z"/>
      <path d="M2.12,19.01c.09,3.49,6.83,6.36,10.49,6.5,1.33.05,10.2-1.55,7.7-4.16-5.05,2.27-10.2,2.11-14.45-.92-2.78-1.98-.43-4.59-1.99-4.14-1.02.3-1.78,1.74-1.75,2.72Z"/>
      <path d="M6.36,10.66c-.27-.18-.94.02-1.25.31-1.19,1.09-1.95,3.38-.58,4.62,6.14,5.56,15.62,4.56,16.38,2.35,1.1-3.19-6.41,2.64-14.19-3.49-1.86-1.46.99-2.86-.37-3.78Z"/>
      <path d="M10.57,5.88c-1.61-.87-3.18.51-3.74,1.89-2.07,5.15,12.51,8.53,14.2,6.02,1.82-2.71-3.92,0-10.55-3.45-.68-.35-1.72-1.55-1.42-2.13.33-.66.9-1.45,1.51-2.33Z"/>
      <path d="M10.28,4.61c2.96.96,5.77,1.7,9.03,2.45.69.16,1.76-1.53,1.48-2.04-.25-.45-1.17-.81-1.91-.82C9.51,4.03,7.84.1,0,2.7c1.85,2.91,1.91-.79,10.28,1.92Z"/>
      <path d="M30.85,7.02l8.85-2.63c7.83-2.33,7.83,1.08,9.44-1.62-3.08-1.3-6.31-1.16-9.49-.11-3.44,1.13-7.07,1.6-10.66,1.78-.51.31-.43,1.64-.04,1.99.36.32,1.43.74,1.9.6Z"/>
      <path d="M44.73,19.31c-4.37,4.61-7.61,1.91-10.51,5.91,3.68,1.48,13.49-2.25,12.93-6.88-.11-.88-.83-1.72-1.99-2.35l-.43,3.32Z"/>
      <path d="M28.29,12.63c-.06.09-.05.27.07.28l.77.06c1.49.12,2.62.67,3.81,2.06,4.05-4.48,3.24.5,8.37-3.74,1.3-1.08,1.62-2.65.94-3.96-.64-1.22-2-2.31-3.33-1.47.54.84,1.08,1.7,1.41,2.3.25.46-.5,1.54-1.01,1.85-5.42,3.37-10.46,1.72-11.04,2.61Z"/>
      <path d="M20.02,44.46c.69.23,1.49,1.15,1.96,1.8,1.41.52,3.81.41,5.26.13.13-2.03,4.29-1.89,1.77-2.81-2.65-.97-.12-1.73-6.98-1.1-.39.85-3.91,1.35-2.02,1.98Z"/>
      <path d="M29.64,39.74c-1-.68-2.02-1.52-2.8-1.9-1.13-.55-3.74-.57-4.7.08l-2.61,1.75,2.34,1.48c3.69.91,4.68.67,7.76-1.41Z"/>
      <path d="M24.28,34.29c-.54-.22-1.15-1.09-1.75-1.86-1.54,3.12-2.72,1.7-2.65,3.16.66.26,1.58.8,2.08.9,1.36.26,3.84.23,5.21.04-.87.11,3.56-1.02,1.92-1.68l-.91-.37-1.37-1.82c-.66.96-1.79,1.93-2.53,1.63Z"/>
      <path d="M27.17,36.52s.11-.01.19-.03c-.06.01-.13.02-.19.03Z"/>
      <path d="M43.49,10.58c-.28-.11-.98.55-.88.8l.53,1.23c.91,2.12-3.02,2.85-3,3.6l.06,2.37c2.02-.82,3.78-1.7,4.98-3.39,1.1-1.55-.43-4.12-1.7-4.61Z"/>
      <path d="M29.02,2.2c.21-.01.72-.05.95-.11,5.37-1.48,2.92,2.18,6.73.25-3.36-2.64-4.15-2.99-7.73-1.31-.26.12-.24,1.19.05,1.18Z"/>
      <path d="M18.7,9.65c-.07-.89-.77-1.75-1.46-1.96l-5.18-1.59c-.35,2.28,5.17,4,6.63,3.54Z"/>
      <path d="M16.28,1.84c1.4-.85,4.27,1,4.28-.06,0-.18-.16-.82-.32-.9-3.41-1.64-4.71-.81-7.53,1.49,1.38.9,2.26.26,3.57-.53Z"/>
      <path d="M37.49,6.14l-5.28,1.55c-.83.24-1.89,1.39-1.24,2.07,2.85-.23,5.44-.89,6.51-3.62Z"/>
    </g>
  </g>
</svg>