<?xml version="1.0" encoding="UTF-8"?>
<svg id="Warstwa_2" data-name="Warstwa 2" xmlns="http://www.w3.org/2000/svg" viewBox="0 0 35.46 55.19">
  <g id="game-icon-v3-dark-magic-pixarts-store">
    <g id="game-icon-v3-dark-magic-pixarts-store_25">
      <path d="M12.99,11.18l-.44-.65-1.06,1.45c-.56-.66-1.38-1.25-1.89-.98-.36.19-.87.77-1.16,1.19,2.01.37,3.16,1.65,2.97,3.63-.14,1.42-.46,2.81-.83,4.49l-.53-2.03c3.03-7.66-7.38-1.93-8.69-13.64-2.07,3.22-1.71,7.25.71,10.14,1.79,2.14,4.46,3.23,7.06,4.37.6,1.43,1.09,3.67,2.6,4.46l4.24,2.2,1.88-2.01,1.41,1.84c.84,1.1,4.27-5.01,8.43-.33.15,1.23-.27,3.38-.61,4.65l-4.36-.65,1.94,1.82c-5.66.39-3.97-5.71-6.74-5.42-3.86.41-1.19,5.65-7.58,5.42l2.22-1.7-4.25.54-.62-4.09c-.13-.84,1.49-1.73,2.44-1.93.15-.1-.1-1.07-.32-1.36-.23-.28-1.22-.15-1.57.07-2.46,1.61-.88,2.72-3,7.09-.7,1.44,1.4,4.16,3,3.87,1.47-.27,2.48-.83,3.32-.15,1.09.89,1.25,1.85,1.41,3.45l5.05.66c-.08-.01,7.1-.31,5.58-2.56l-1.01,1.5c-.23-1.32.14-2.34.99-2.83,2.88-1.66,3.28,1.64,5.56-.78.58-.62,1.27-1.65,1.38-2.36.09-.57-.89-1.58-1.02-2.2-.43-1.95-.84-3.87-1.98-5.63l.92-3.74c-.28,5.46.32,2.13,1.73,7.36.96-3.3,1.29-6.52.02-9.77-1.34-3.43-4.7-7.45-8.86-7.07-2.01.18-5.06,1.6-7,1.25-.29-.05-1.15.64-1.29.43ZM19.47,34.4c-.67.14-1.49-.79-1.87-1.51-.2.72-1.11,1.89-1.73,1.51-.64-1.98.31-4.43,1.65-6.03,1.92,1.27,2.49,3.86,1.96,6.03Z"/>
      <path d="M33.47,46.04c.95-2.16.08-5.66-1.73-7.18-1.51-1.26-4.91-2.46-6.54-.84l-2.24,2.23c-1.02,1.02-2.54.76-5.49,2.11-.22.1-.9-.54-1.12-.42l-4.48,2.43c0,.37.28,1.38.49,1.23.17-.13.7-.46.82-.62l.73-.99c.15-.2.78.02,1.1.03.64-.7,1.22-1.47,2.32-1.59-1.9,2.92-4.86,4.52-8.21,4.71-2.39.13-4.56-1.01-5.42-3.25-1.28-3.37.13-6.92,3.25-8.79l-2.24-1.81c-2.27,1.82-3.7,4.29-3.85,7.19-.26,4.97,3.29,8.9,8.24,9.07,9.04.31,10.25-6.85,18.17-8.41,1.37-.27,3.06.46,3.62,1.38.73,1.21.64,2.87.07,3.71l-1.1-1.58c-2.67,5.97-7.3,1.66-11.05,5.49-1.53,1.56-1.5,4.03.34,5.04-1.5-9.22,10.79-1.1,14.32-9.15Z"/>
      <path d="M33.12,2.97c-4.26-4.62-11.22-3.1-16.3-.46-1.1.75-2.38,2.81-3.45,3.8-.39.36.22,1.95.74,1.95,4.15.05,3.71-1.59,6.66-1.59l-3.74,2.84c3.24-.82,7.26-1.98,7.17-5.25l.86.4c.18.08.65-.31.9-.43,2.58-1.13,5.34.6,6.1,3.29.66,2.35-.09,4.6-1.4,6.75l1.19,2.87c3.98-4.34,5.06-10.08,1.27-14.18Z"/>
      <path d="M9.16,36.95c.06-.34-.02-1.89-.36-1.75l-1.51.62c-.33.14-1.26.92-1.05,1.21l.72,1.02-1.46-.69-.93,2.32c-.56,1.4-.91,2.85.32,4.11,1.12-.54.81-.16.1.56,1.04,1.92,3.28,2.43,4.95,1.49.44-.02,1.02-.08,1.41-.14.32-.04.1-1.43-.23-1.38-1.2.17-3.35-.23-3.94-1.32-1.33-2.44.19-4.91,1.99-6.05Z"/>
      <path d="M6.97,21.97c.26-.58.04-2.26-.38-2.65-.42-.39-1.37-.64-2.15-.77-.22,2.66.08,4.84.73,7.4l1.81-3.98Z"/>
      <path d="M28.86,10.46c-.08.55.27,1.49.71,1.41.6-.11,1.72-.53,1.68-.98-.04-.37-.2-1-.3-1.42.21-.4.46-1.41.26-1.91-.85-2.07-2.53-3.37-4.8-2.66,1.85.59,3.17,1.9,2.77,3.77l1.04.43c-.66.44-1.28.91-1.35,1.36Z"/>
    </g>
  </g>
</svg>