<?xml version="1.0" encoding="UTF-8"?>
<svg id="Warstwa_2" data-name="Warstwa 2" xmlns="http://www.w3.org/2000/svg" viewBox="0 0 53.01 55">
  <g id="game-icon-v3-dark-magic-pixarts-store">
    <g id="game-icon-v3-dark-magic-pixarts-store_122">
      <path d="M45.42,51.33c-.97-.49-1.74-2.04-3.13-1.37-2.26,1.09-3.38-1.46-4.99-1.83-1.41-.32-2.82-.22-3.51-1.87-.26-.64-1.99-.84-2.61-.51-2.78,1.48.22,1.61-4.19,2.83-1.36.37-3.28.11-3.73-1.21-.26-.76-.55-1.5-.9-1.79-1.45-1.22-3.41,1.2-4.03,1.9-.39.44-1.79.1-2.69-.15-1.31,2.38-3.84,2.82-6.16,2.83-2.23,2.71-3.85,1.42-8.2,4.74l9.13.09c.97,0,2.61-.4,3.48-.73.87-2.14,2.82-4.14,5.32-3.1-1.87.9-3.74,1.54-4.09,3.75l4.68-.13,1.83-2.01-.69-1.23c.8-.02,1.98.19,2.95.53l-3.17,2.83,17.77-.02c-.6-1.61-1.78-2.76-3.53-3.43,3.39-2.03,2.99,3.46,6.99,3.47l9.8.02c-1.05-.85-1.77-1.32-2.78-1.83l-3.54-1.78Z"/>
      <path d="M26.32,46.85l.43-6.52.73,6.89c1.73-.67,1.43-1.55,1.37-2.66-.43-7.87-.45-15.53-.45-23.5,0-1.3-.43-3.41-2.13-3.04-1.16.25-1.57,2.28-1.59,3.61l-.37,24.12c0,.36.4,1.13.57,1.42.17.29,1.43.04,1.46-.31Z"/>
      <path d="M13.84,47.61c.31-.22.03-1.32-.08-1.7l-5.1-17.38-3.22.83,4.88,18.7c.07.27.42.71.62.8.13.06.52-.08.51-.23-.01-.15-.06-.65-.08-.8l-.57-3.98,1.7,4.7,1.33-.95Z"/>
      <path d="M42.4,49.44l5.34-20.19-3.34-.46-5.18,17.89c-.26.89.57,2.06,1.36,2.25l2.02-6.58c.66,2.83-2.14,4.57-.19,7.09Z"/>
      <path d="M52.36,8.09c-2.27,3.4-4.34,6.58-5.66,9.95,1.49,1.84-2.39,4.74.97,5.55.74.18,2.29-.24,2.31-.89.03-.92-.15-2.06.26-2.28l1.6-.85.52-11.49Z"/>
      <path d="M1.42,19.77c.71.24,1.65.51,1.64.9l-.05,1.98c-.02.75,1.69,1.22,2.42,1.07.78-.16,1.95-1.47,1.58-2.04l-1.16-1.75c-.21-.31.41-1.11.86-1.71L.72,7.88l.7,11.89Z"/>
      <path d="M23.65,13.65c.62.31,1.65.74,2.1,1.09.44.35.43,1.61.55,2.5.44-.26.89-.54.95-.88.04-.28-.19-1.4.04-1.56l2.09-1.43c-1.04-1.35-1.82-2.95-.13-3.94L26.6,0l-2.73,9.56c.66.46,1.26,1.5,1,1.96l-1.23,2.14Z"/>
      <path d="M29.68,44.94c1.27-.53,1.92-.95,2.68-1.53l2.83-16.8c.11-.62.01-1.54-.32-1.87-.27-.28-1.49-.23-1.58.2l-1.35,6.73-2.27,13.27Z"/>
      <path d="M23.03,44.41c-.45-2.37-.92-3.83-1.17-5.61l-1.99-14.25c-.7-.15-2.32.34-2.21.93,1.1,5.81,1.95,11.77,2.58,17.77.09.9,2,1.41,2.78,1.16Z"/>
      <path d="M9.16,48.18c-2.48-3.22-4.28-5.62-7.64-7.92l5.51,10.65,2.13-2.73Z"/>
      <path d="M46.25,50.77c2.01-3.72,3.51-6.65,4.96-10.21-2.88,2.15-4.86,4.19-6.78,6.95-.26.9.82,2.67,1.82,3.26Z"/>
      <path d="M19.37,44.16l-4.44-6.91c.49,3.42,1.17,6.27,2.21,9.68l2.23-2.77Z"/>
      <polygon points="36.27 46.78 38.16 37.27 34.06 43.96 36.27 46.78"/>
      <path d="M16.37,19.57c1.07-.64,1.81-1.18,2.38-1.78l-2.88-6.79.51,8.57Z"/>
      <path d="M37.21,10.97l-2.73,6.79c.78.77,1.49,1.29,2.48,1.77l.26-8.56Z"/>
      <path d="M5,50.73c-1.89-1.34-3.16-2.22-5-3.25,1.12,2.03,1.91,3.19,3.13,4.9l1.87-1.65Z"/>
      <path d="M25.31,17.02c.19-.96.06-1.87-.83-2.32l-.69,2.64c-1.22.76-2.73,1.85-3.46,3.05,1.61-.03,2.37-1.06,3.4-1.73.73-.47,1.46-1.02,1.58-1.64Z"/>
      <path d="M28.15,14.93l-.44,2.87c1.55,1.08,3.01,1.93,4.88,2.68-.65-1.85-2.11-2.88-3.74-2.92.39-.88.59-1.96-.7-2.63Z"/>
      <path d="M51.04,25.47l-4.04-1.3c-1.08-.35-1.81-1.16-2.96-.04,2.15,1.21,4.35,2.63,7,1.34Z"/>
      <path d="M50.19,52.3l2.82-4.69c-2.11,1.21-3.18,1.98-4.91,3.24.89.77,1.48,1.2,2.1,1.45Z"/>
      <path d="M8.67,23.76c-2.36-.37-.28.12-5.35,1.31-.33.08-.79.31-1,.44-.21.13.87.66,1.16.59l4.41-1.04c.32-.08,1.11-1.25.78-1.3Z"/>
      <path d="M48.98,27.4l-3.38-1.74-1.89,1.57c1.55.02,3.15,1.89,5.27.17Z"/>
      <path d="M4.41,27.44c1.16,1.52,2.8.5,4.06-.25l-.77-1.47c-1.08.27-2.79.98-3.29,1.72Z"/>
      <path d="M13.39,27.61l-.27,2.05c.68.85.76,1.52,1.07,3.19,1.28-1.75,1.52-4.25-.8-5.23Z"/>
      <path d="M38.29,23.8c-1.19-1.64-2.52-2.32-4.02-2.25,1.07,1.39,2.53,2.39,4.02,2.25Z"/>
      <path d="M18.72,21.67c-1.59,0-2.3.51-3.97,2.04.72,1.25,4.4-2.04,3.97-2.04Z"/>
    </g>
  </g>
</svg>