<?xml version="1.0" encoding="UTF-8"?>
<svg id="Warstwa_2" data-name="Warstwa 2" xmlns="http://www.w3.org/2000/svg" viewBox="0 0 59.33 51.52">
  <g id="game-icon-v3-dark-magic-pixarts-store">
    <g id="game-icon-v3-dark-magic-pixarts-store_52">
      <path d="M4.66,43.79l-4.66,6.23c2.39-1.31,5.8-6.55,8.18-5.86l-.29,1.25,4.61-3.39.63-2.27c1.2-.97,2.97-1.82,4.34-1l-1.08,1.71c1.36-.41,2.04-1.3,3.33-.2l-2.03,2.55c-1.69-.49-3.82.75-4.22,2.18-.11.38.18,1.47.22,1.77l-1.28,2.06c3.59-1.94,1.5-2.9,3.24-4.19,1.58-1.18,2.1.8,5.11-1.93,2.01-1.83,2.16-.65,7.77-.06.57.06,1.46.2,1.69.56.23.36.39,1.3.46,1.79l.15,1.02c.03.21.73-.02.76-.23l.14-.83c.1-.58.4-1.46.66-1.89.24-.42,1.65-.59,1.96-.22,2.45,2.97-.77,7.94,1.41,8.61,3.38,1.05-2.53-9.87,4.54-11.41l.05,4.21c0,.24.63.85.73.64,1.11-2.38-.39-4.75,1.65-7.07,6.39-7.26,4.86-10.02,11.96-13.73-2.22-1.18-3.99-2.24-5.7-3.72,2.94-5.06,5.32-1.05,5.63-5.21.17-2.25,2.2-2.23,3.55-4l-4.3,1.91c-.07,2.24-1.36,2.87-3.02,3.49-1.25.47-2.16,1.68-3.75,1.24l2.33-2.18c.38-1.31.78-2.06,1.47-3.15-2,.45-3.4,5.39-5.44,4-.57-.39-1.13-1.9-.6-2.2l2.62-1.5c-.19-2.56,1.85-4.13,4.29-3.89.31.03.81.11.93-.07l.5-.75-1.17.24c.61-1.44,1.2-3.1,1.87-4.03l5.41-4.27c-2.4,1.12-5.23,2.06-7.02,3.88-1.11,1.12-1.1,3.16-3.52,3.16-2.96,0-2.11,3.27-7.24,4.34l1.16-3.05c-.96.94-2.26,2.21-3.41,2.59-.47.15-1.74-.62-1.94-.87,1.54-1.25,2.07-2.37,2.15-4.07l3.86-.88c.51-1.76,1.16-2.8,2.52-4-1.4.24-2.35,1.15-3.36,2.55-.98,1.37-3.6-.04-4.66,1.4-.27.36-.26,1.27-.34,1.8-2.1,2.29-5.56,2.69-8.45,1.51-7.91,1.46-13.24,4.36-17.17,11.87-1.66,3.18-3.58,5.79-6.97,7.59,2.77,2.24,6.02-2.48,7.37-4.7,1.85-3.04,3.99-5.66,6.86-7.76,7.02-5.11,16.32-4.61,22.84,1.13,3.83,3.37,4.61,5.45,8.79,8.03-5.45,4.2-4.74,7.39-10.56,11.8-6.36,4.82-14.6,5.06-21.22.58-5.96-4.04-8.12-9.43-12.43-6.3l3.52,1.19-4.78,3.31c-.15,1.37-.59,2.13-1.44,3.15,1.57-.62,2.61-1.79,3.32-3.44l2.9-1.26-1.65,3.3,3.3-3.15.19,1.67,1.07-.6c.22-.12.59.27.71.48.6,1.07-2.74,1.81-3.31,3.21.07,1.21.25,2.25-.43,2.92-2.38,2.37-3.6.05-5.36,2.4Z"/>
      <path d="M17.33,19.53c-3.79,5.36-1.69,13.14,3.6,16.46,1.5-.1,2.32-2.08,1.72-3.53.66-.6,1.75-1.09,2.48-1.22l-1.19,1.31c-.27.3.16,1.22.31,1.94.14.65-.89,1.62-1.68,2.52,6.02,3.19,13.98,1.79,18.18-3.65,4.86-6.29,1.96-15.47-2.06-17.18-.57-.24-1.71.66-2.07,1.17-.41.59-.14,1.72.18,2.75l-3.27,2.35,1.74-2.56-.31-2.23,1.76-2.65c-6.61-3.34-15.06-1.61-19.4,4.53ZM29.37,37.23c-3.55-7.17-3.6-15.41-.12-22.68,3.21,7.08,3.59,15.49.12,22.68Z"/>
      <path d="M13.56,13.72l-.77,2.7c2.46-3.94,5.95-6.45,10.03-8.58,2.98-1.55,6.01-1.91,9.3-2.02-7.11-1.02-12.95,1.07-18.02,5.83-2.52,2.37-4.75,4.96-5.66,8.4,1.65-2.36,3.12-4.57,5.11-6.33Z"/>
      <path d="M48.05,24.72l-1.29-1.29-.46,2.36c-.77-4.01.22-2.43-2.6-5.7,1.01,3.53,1.2,6.85.25,10.27l4.11-5.64Z"/>
      <path d="M12.17,25.95c-.38.57-.8,1.43-.67,2.12.09.49.99.88,1.34,1.25l2.64,2.84c-.98-3.11-1.41-5.62-1.35-9.1l-1.95,2.89Z"/>
      <path d="M50.68,31.03c-1.93,2.39-3.64,4.72-4.99,7.58,2.55-1.92,4.11-4.56,4.99-7.58Z"/>
    </g>
  </g>
</svg>