<?xml version="1.0" encoding="UTF-8"?>
<svg id="Warstwa_2" data-name="Warstwa 2" xmlns="http://www.w3.org/2000/svg" viewBox="0 0 43.64 48.01">
  <g id="game-icon-v3-dark-magic-pixarts-store">
    <g id="game-icon-v3-dark-magic-pixarts-store_32">
      <path d="M22.98,36.29c-.56.31-1.82.34-2.15-.11-1.46-2.01,3.13-3.55.79-7.13l-14.85,18.84c3.35.08,6.52.22,9.67-.07,5.07-.46,7.3.79,10.72-.18,3.1-.89,3.98-4.28,3.22-6.87-.6-2.05-.2-3.81,1.3-5.33-4.34.42-2.75,5.44-4.91,6.68-.48.28-1.94-.05-2.11-.59-.41-1.32.41-2.57,1.21-3.43,5.2-5.58-1.95-8.19,2.13-12.05-6.03,1.63-.87,7.94-5.02,10.26Z"/>
      <path d="M16.04,27.99c-.12-1.59.19-3.11,1.06-4.3,1.7-2.31,1.29-5.15-.7-7.03-1.39-1.31-1.68-3.06-1.36-5.06-1.93,1.12-2.18,3.48-1.5,5.49,2.08,6.05-1.24,9.34-2.85,8.52-2.62-1.33,2.16-5.03-.45-7.87-.12,1.57-.66,2.98-1.74,3.97-4.81,4.38,1.35,8.07-.82,11.66-.29.48-1.53.84-1.97.61-1.89-1.01,2.11-4.76-2.34-8.06,2.6,7.19-7.88,9.57-.95,19.11l13.63-17.02Z"/>
      <path d="M36.57,18.16c-.47.92-1.54,1.99-2.34,2.2-1.76.45-4.17-.95-4.53-2.27-.12-.44.26-1.44.57-1.84l7.49-9.84,1.2,1.28,2.5-7.28-6.47,4.1,1.36.9-9.2,10.58c-2.26-.38-3.89-2.91-3.18-5.06,1.14-3.45,7.38-3.91,9.34-10.92-1.98,1.2-3.67,1.94-5.88,2.84l2.21.96c-2.03,1.39-3.52,2.36-5.43,3.53-2.06,1.25-3.69,3.62-2.82,6.11.7,2,2.09,3.3,3.64,5.02l-2.15,2.29c.64.71,1.74,1.66,2.73,2.37l1.9-2.7,3.21,1.8c1.47.83,3.25,1.07,4.93.28,1.04-.49,2.08-1.88,2.64-3.27l2.52-6.29,1.12,2.28,1.72-7.02c-4.98,3.99-4.48,4.84-7.07,9.96Z"/>
      <path d="M5.13,47.74l19.37-24.1c-.47-.69-1.2-1.33-1.92-1.66L1.77,47.74c1.26.29,2.2.28,3.36,0Z"/>
      <path d="M31.47,30.09v-2.53c-2.05,1-2.18,3.25-1.61,5.26,1.36-.18,1.61-1.38,1.61-2.73Z"/>
    </g>
  </g>
</svg>