<?xml version="1.0" encoding="UTF-8"?>
<svg id="Warstwa_2" data-name="Warstwa 2" xmlns="http://www.w3.org/2000/svg" viewBox="0 0 31.72 46.34">
  <g id="game-icon-v3-dark-magic-pixarts-store">
    <g id="game-icon-v3-dark-magic-pixarts-store_70">
      <path d="M20.95,40.65l.23,1.31c-1.27-1.38-2.74-3.51-3.51-5.3-.21-.49.7-1.82.82-2.31v-3.55s-2.07.16-2.07.16l3.68-2.06c.53-.3,1.11-1.84,1.02-2.28l-3.17.12c8.79-3.13,10.82-9.63,12.97-18.16-3.61.93-6.89,1.64-10.36,1.37,3.33-1.21,11.26-.96,10.98-5.68-.06-1.03-1.24-2.14-2.57-2.51C20.35-.62,11.14-.59,2.55,1.86,1.29,2.21.12,3.31.06,4.19c-.3,4.32,6.38,4.6,9.96,5.38-3.13.5-6.08-.08-9.33-1.16,2.56,8.73,4.2,15.45,13.15,18.33l-3.38-.19c0,.59.53,2.07,1.1,2.38l3.74,1.99-2.07-.04v3.59c.57.86,1.21,1.89,1.46,2.48-2.01.71-1.69,3.18-4.4,5.23l.37-1.77c-1.19.5-5.53,1.71-5.12,3.31.1.38.81,1.06,1.36,1.24,11.3,3.7,27.87-.91,14.04-4.32ZM2.15,4.06c4.06-3.29,23.46-3.41,27.48.06-2.46,3.51-25.4,3.66-27.48-.06ZM13.17,23.46c-.17-.64-.31-1.5-.62-1.69l-1.65-1.02c-.38-.23.06-1.47,0-1.94-.2-1.56-.64-3.35.33-4.66,2.14-2.89,6.64-3.05,9.04-.36,1.29,1.45.75,3.2.55,5.01-.05.48.21,1.54,0,1.93-.21.39-1.14.7-1.69.88-.35.11-.44,1.49-.75,1.69-1.31.85-3.93.65-5.22.15Z"/>
      <path d="M3.91,21.18c-1.47-3.2-2.33-5.91-3.39-9.35-1.07,3.66-.72,7.57,3.39,9.35Z"/>
      <path d="M27.84,21.14c4.25-1.5,4.36-6.23,3.35-9.6-.83,3.5-1.63,6.4-3.35,9.6Z"/>
      <path d="M19.7,18.68c-.02-.53-.92-1.27-1.56-1.21-.59.06-1.52.69-1.49,1.13.02.38.69,1.06,1.24,1.24.91.31,1.84-.5,1.82-1.17Z"/>
      <path d="M13.93,17.56c-.4-.16-1.33.07-1.58.38-.25.31-.38,1.22-.1,1.51.24.24,1.18.45,1.53.34.52-.16,1.34-.78,1.29-1.13-.05-.36-.73-.94-1.13-1.1Z"/>
    </g>
  </g>
</svg>