<?xml version="1.0" encoding="UTF-8"?>
<svg id="Warstwa_2" data-name="Warstwa 2" xmlns="http://www.w3.org/2000/svg" viewBox="0 0 51.53 57.11">
  <g id="game-icon-v3-dark-magic-pixarts-store">
    <g id="game-icon-v3-dark-magic-pixarts-store_104">
      <path d="M12.15,32.65c-4.76,4.49-8.95,9.01-11.55,15.08L0,49.11c-.11.26.9.78,1,1.07,1.12,3.19-.93,5.01.08,6.69.17.29,1.2.32,1.34.02,1-2.13-1.58-4.97.12-7.89l10.07-5.35c.31-.17.87-.38,1.11-.25,2.8,1.49-.39,8.3,1.03,9.52.31.26,1.18.22,1.34-.15,1.07-2.47-1.63-6.08.4-10.59.58-1.3,1.53-2.66,2.96-2.62,1.45,1.79-1.03,7.46.43,7.01l.92-.28c1.22-.38-1.73-5.13,1.26-10,2.1-3.43,5.2-6.16,8.81-7.67.34-.43.14-2.12-.4-2.26-5.41-1.4-14.07,9.03-18.12,11.56,3.44-4.64,12.93-11.78,13.04-16.96.34.06.8,1.74.5,2.22l-2.72,4.43c1.84-.72,5.71-3.62,7.48-1.51.55-1.26,1.25-1.75,3.05-2.37l-4.06-2.3c-.6-1.43-1.29-2.76-2.09-3.63-.5,1.09-.95,2.11-1.57,2.31-.67.21-1.79.08-2.77-.12-1.85,3.31-4.31,6.37-7.64,8.49-.33.21-.94.65-.9.93l.16,1.22c-1.41.08-1.86,1.2-2.69,1.98ZM10.18,35.81c.07.13-.05,1.43-.28,1.69l-5.71,6.24c1.11-3.15,3.17-5.88,6-7.93ZM12.48,40.13l4.02-1.71c.19,2.55-11.62,9.17-14.28,9.46,2.99-3.29,6.34-4.39,8.74-7.53l.58-.76c.14-.18.66.35.94.53Z"/>
      <path d="M21.2,13.61c5.19.28,6.99,3.45,9.35,7.06,3.74,1.81,6.9,5.69,6.8,9.84,1.25-1.21,1.82-2.31,2.29-3.81-4.65-6.59-8.63-9.96-14.57-15.23-1.43.17-2.89,1.03-3.88,2.13Z"/>
      <path d="M46.2,0c-.41-.02-1.32.36-1.46.7-.14.33.33,1.24.72,1.38,4.28,1.56,4.78,6.97,5.78,4.66C52.55,3.68,49.15.14,46.2,0Z"/>
      <path d="M31.4,16l3.85,4c.14-.66.11-.99.29-1.03l.73-.18c.33-.08,1.27-.82,1.02-1.06l-1.01-.99,1.64.27-2.54-5.18-2.14,2.1,1.2,1.27.47,2.87-1.95-3.64-1.57,1.58Z"/>
      <path d="M36.27,11.7c.82,1.12,2.5,1.77,3.68,2.67l-3.07-.97c.61,1.4,1.16,2.48,1.71,3.35,2.91-.57.3-4.94,2.5-2.85.49.46,2.17-1.31,1.7-1.81-1.12-1.18-2.75-1.95-4.22-2.29-.97-.22-3.02.92-2.3,1.9Z"/>
      <path d="M38.34,9.01l4.15,1.8c.11.05.5-.66.56-.55l.39.64c.19.31.4.6.54.79.11.15,1.03-.96.97-1.13l-1.19-3.32,1.87,2.62c.34-.09,1.31-1.13,1.16-1.58-.43-1.29-2.09-3.22-3.51-3.61l-4.95,4.34Z"/>
      <path d="M47.44,7.52c.12.1.93-.31,1.07-.59.66-1.44-2.66-4.74-4.09-3.71-1.41,1.02,1.4,1.53,3.03,4.3Z"/>
    </g>
  </g>
</svg>