<?xml version="1.0" encoding="UTF-8"?>
<svg id="Warstwa_2" data-name="Warstwa 2" xmlns="http://www.w3.org/2000/svg" viewBox="0 0 44.37 56.89">
  <g id="game-icon-v3-dark-magic-pixarts-store">
    <g id="game-icon-v3-dark-magic-pixarts-store_35">
      <path d="M27.23,22.34c.08-1.83.3-4.33-.48-5.74-4.95.73-.62,6.65-3.27,9.97l-.74-2.99c-1.04,3.68-5.2,4.66-6.63,7.2-2.26,4.01-3.51,8.22-6.79,11.71-2.15,2.29-11.03,11.63-9.02,14.42l4.95-4.94c2.48-3.21,3.86-7.8,6.62-9.08,5.58-1.05,2.45-9.44,11.72-14.23,2.86-1.48,3.5-3.23,3.64-6.31Z"/>
      <path d="M44.37,8.81c-1.63,2.48-3.09,4.06-5.63,5.19-1.38.61-2.52,2.78-4.37.51l3.18-.89-.34-3.68-3-.03c-.66,0-2.2.79-2.24,1.42-.18,3.41,2.07,1.97.97,7.85,2-.38,3.61-1.93,5.38-3.07,1.07-.69,4.02-.19,4.72-2.06.63-1.66,1.02-3.52,1.34-5.24Z"/>
      <path d="M31.29,8.34l2.91-3.6,2.76-1.22-3.14-1.45c3.85-1.71,6.06,1.44,9.72,1.44-1.49-2.24-6-4.44-8.74-3.11-1.97.96-3.81,2.25-5.71,3.35l-.61,3.05c1.3-1.21,2.76-1.77,3.88-1.22-9.74,6.93-1.22,6.77-4.25,17.54,7.72-4.13-.45-10.3,3.18-14.78Z"/>
    </g>
  </g>
</svg>