<?xml version="1.0" encoding="UTF-8"?>
<svg id="Warstwa_2" data-name="Warstwa 2" xmlns="http://www.w3.org/2000/svg" viewBox="0 0 41.49 53.05">
  <g id="game-icon-v3-dark-magic-pixarts-store">
    <g id="game-icon-v3-dark-magic-pixarts-store_30">
      <path d="M40.76,23.74c-.09-1.13-.08-2.43-.08-3.34l-.96,1.36-1.97-7.74-.5-1.96-.53-2.08-2.25-.87C32.19,5.29,33.47-.07,29.42,0c-3.59.06-2.73,5.67-4.77,9.31l-2.76.95c-.03.5.03,1.93.06,2.59-.47,1.32-1.15,3.28-1.55,4.83l-1.2,4.78-.81-2.37c-.05,4.05-.14,7.57-.51,11.4-.19,1.94.55,3.78,2.28,4.71-.49-1.67-.67-3.15-.18-4.89l1.27,2.42c.2-6.46-2.71-1.46.09-10.76l.4,1.66,1.44-5.23.57,4,.64-1.39c.89,4.99-2.07,6.88-.76,12.31l1.37,5.73.69-2.92c1.59,2.98,1.43,5.67-.1,8.25-2.1,3.54-8.7,4.22-10.23,2.08h1.45s-4.07-3.93-4.07-3.93c-3.64-3.51-8.47,1.04-9.74-1.4-.86-1.67,3.18-4.32.62-5.73-.91-.5-2.42-.74-3.62-.82l2.74,1.43c2.12,1.1-3.57,4.03-1.28,6.88,2.74,3.4,8.03-1.76,10.01,2.94l-3.75-.33c5.56,2.22,4.57,5.19,11.51,6.33,4.43.73,8.14-.56,11.58-3.57l-.66,2.2c4.32-2.83,5.48-8.04,3.64-12.94l.86-5.34c.82,1.35,1.07,2.93,1.33,4.84,1.43-6.16-1.72-10.75-1.8-15.87l.91,1.54c-.02-1.68.22-3.51.75-5.27l1.29,4.1c.61,1.95,2.25,4.26,1.68,6.38-.4,1.52-.79,2.71-.88,4.39l1.4-1.98.06,2.25c.01.49.36,1.15.14,1.49l-.88,1.35c1.52-.4,2.97-2.33,2.83-4.07l-.72-8.6ZM30.7,8.58c-.18.32-1.17.62-1.51.48-1.28-.52-1.61-2.76-1.41-4.28.56-.84,2.97-.96,3.52,0,.47.81-.13,2.98-.6,3.8Z"/>
    </g>
  </g>
</svg>