<?xml version="1.0" encoding="UTF-8"?>
<svg id="Warstwa_2" data-name="Warstwa 2" xmlns="http://www.w3.org/2000/svg" viewBox="0 0 44.35 50.62">
  <g id="game-icon-v3-dark-magic-pixarts-store">
    <g id="game-icon-v3-dark-magic-pixarts-store_119">
      <path d="M28.93,42.65l3.03.21c.6.04,1.63.36,2.45.47l-.04-8.25-2.05,1.19c.35-1.05,1.22-2,2.06-2.79l.02-17.01c0-3.5-1.1-6.68-3.84-8.99l-.63,1.26-.38-2.17c-1.88-1.26-4.27-2.32-6.3-2.3-.62,1.3-1.41,2.18-2.65,3.19l1.68,4.31c-.75-.87-1.41-1.81-2.12-2.82-1.38-.19-2.33,1.39-3.04,2.87.02-1.48.78-2.64,2.03-3.66l1.57-2c.52-.66.95-1.13,1.14-1.92-6.2.52-6.36,2.69-8.14,4.02-2.56,1.91-3.37,5.41-3.36,8.58l.07,18.1,2.26,1.57-2.21-.48v7.1c3.45,1.28,2.59-3.03,5.7-2.55-.18,1.61-.36,2.54-.73,3.85.68-.28,2.05-.89,2.82-.93l7.42-.37c1.04-.05,2.46-.1,3.1-1.38.6-1.18.9-3.24,1.16-4.33.78-.21,1.58-.53,2.86-1.06l-2.25,3.04c-.51.78-.93,1.78-1.62,3.24ZM29.14,16.33l3.22.37-2.04.88c-.19.13-.34,1.06-.07,1.2l1.52.84-1.38.56c-.34.14-.3,1.23-.14,1.37l2.09.84c-1.45.38-2.02.39-3.26.34l.07-6.41ZM24.83,16.26c2.06.91.85,2.97,1.66,4.55.58-1.44.11-2.89,1.48-4.59.22,1.93-.23,3.7-.6,5.67l-.22.72c-.96,3.18-2.56-6.12-2.31-6.35ZM22.1,16.53l1.37.04,1.08,6.51-1.8-1.69-1.78,1.59,1.14-6.45ZM17.02,16.5c.82-.29,2.47-.12,3.01.54.44.54.1,1.82-.23,2.72l.32,3.32c-1.04-1.09-1.18-1.81-1.81-3.15-.23,1.04-.31,1.85-.85,3.17-.62-2.32-.5-4.31-.44-6.59ZM12.98,22.03c-.3-1.77-.97-5.66,1.46-5.76.81-.03,1.83.9,1.64,1.56-.06.18-.62.51-.75.39l-1.01-.99c-.74,1.17-.73,3.16-.18,4.69,1.22.02,1-1.3.47-2.23-.02,0,.69-.28.97-.38.48-.18,1.16,2.16-.1,3.29-.49.44-2.37.18-2.49-.56ZM18.02,33.78l-.16-1c3.55-.02,6.01-.33,9.49.42-3.26.62-6,.57-9.33.58ZM14.39,29.9c5.25-.87,10.56-.86,15.98-.02-5.38.94-10.52.95-15.98.02ZM22.72,26.83c-2.72.11-5.68,1.05-8.47-.53,5.48-.58,10.68-.53,16.16-.03-2.54,1.87-5.24.46-7.69.56Z"/>
      <path d="M41.18,46.6c-1.62-1.08-3.1-1.55-4.98-1.76l-3.52-.39c-1.72-.19-3.16-.25-4.93-.19l-6.15.19c-2.13.06-4.25.41-5.86,1.23l3.18,2.17c1.03.71,1.96,1.38,3.01,2.22,1.72.95,4.53.47,6.6.18l2.7-2.28-.97,2.52,13.91-.02c-.36-2.06-1.59-2.91-3-3.86Z"/>
      <path d="M29.85,2.02C24.09-1.32,17.17-.42,12.16,3.99l1.87,2.38c4.06-4.12,10.82-3.95,15.06-1.41.4.24,1.08-.15,1.27-.39.45,3.13,4.99,4.49,5.05,11.07l.15,17.05c.81.37,2.53-.16,2.53-.96l-.1-17.97c-.03-5.17-3.87-9.26-8.12-11.72Z"/>
      <path d="M7.97,18.64l-1.37.31.04,13.48,2.65,1.51.07-18.16c.01-3.52,1.67-6.24,3.9-9-.66-.66-1.61-1.33-2.3-1.49-3.13,2.08-6.37,11.35-2.99,13.35Z"/>
      <path d="M13.67,46.48c.01-.56-.08-1.52-.5-1.65-4.35-1.3-5.63.11-7.82,1.1-2.15.97-4.38,1.8-4.94,4.62l8.8-.07-1.66-2.64,3.68,2.58,8.15.04-2.02-2.25c-.97-1.08-2.4-1.59-3.69-1.73Z"/>
      <path d="M35.5,33.96c-.26,3.11-.35,6.5-.06,9.45.45.5,2.4.45,2.67-.17l-.06-9.24c-.82-.33-2.01-.39-2.56-.04Z"/>
      <path d="M6.82,33.76l-.16,9.72c.93-.09,1.96-.28,2.69-.52l-.08-7.44c-.01-1.05-1.27-2.29-2.45-1.76Z"/>
      <path d="M0,41.34l3.29,4.27,2.19-.64c.28-3.51-1-7.31-4.63-8.69,1.87,2.51,3.17,5.15,3.49,8.14-1.38-1.44-2.74-2.65-4.34-3.08Z"/>
      <path d="M40.15,44.41c.86-2.22,2-4.77,3.06-6.96-2.24,1.17-3.68,4.03-3.99,6.55-.04.32.83.69.93.41Z"/>
      <path d="M41.59,45.71l2.76-3.5c-1.18.42-2.04.88-3.23,1.61-.11.87-.01,1.59.47,1.89Z"/>
    </g>
  </g>
</svg>