<?xml version="1.0" encoding="UTF-8"?>
<svg id="Warstwa_2" data-name="Warstwa 2" xmlns="http://www.w3.org/2000/svg" viewBox="0 0 58.73 58.48">
  <g id="game-icon-v6-elemental-pixarts-store">
    <g id="game-icon-v6-elemental-pixarts-store_46">
      <path d="M56.68,1.97c-1,.59-1.73,1.58-2.29,2.55-1.8,3.16-4.71,4.96-8.24,5.5l-6.46,1.16c-4.63.83-8.27,3.05-10.99,7.22C24.81,5.44,10.28,15.32,6.38,0c-3.95,7.83-1.65,16.75,4.52,22.21,5.5,4.87,9.18,5.24,11.25,11.75l2.92-5.53c.06,3.31-1.55,5.82-2.84,8.76-2.27,5.2-3.71,11.38-1.06,16.64,1.21,2.4,5.02,1.6,6.8.69l3.92-2.02c.69,1.64,1.13,1.97,2.56,2.1,1.23.11,2.23-.16,3.17-1.13-3.35-3.03-6.09-6.25-7.15-10.84-1.31-5.67,1.29-10.73,6.24-13.16l8.28-4.06c8.57-4.2,13.28-13.81,11.7-23.44Z"/>
      <path d="M11.75,52.62c-.84,1.37-1.67,1.97-2.95,2.95,6.37.76,7.69-2.89,8.66-2.53l1.43.53c-.55-2.89-.89-5.43-.68-8.48.03-.48-.15-1.77-.59-1.82l-1.65-.2-2.52-3.3c-.23-.31-1.31-.59-1.65-.44-.33.15-.71.79-.6,1.13.71,2.24,4.63,1.88,3.61,6.3l-4.7-3.45c-.34-.25-1.6-.16-1.89.07-2.39,1.85,5.41,3.32,3.14,5.99-2.83,3.32-7.33,4.28-11.35,4.55,4.3,1.83,7.93-.49,11.75-1.29Z"/>
      <path d="M45.06,50.03c-.19-2.16,2.55-2.76,1.91-3.73-.22-.33-1.49-.51-1.83-.27l-2.83,2.01c-1.89-2.94,1.76-4.26.99-5.96-.17-.38-1.49-.3-1.81-.02-2.55,2.16-3.09,5.82-4.09,4.82l-1.09-1.09c-.34-.33-1.25.63-1.37,1.09-.12.46.21,1.47.53,1.82l3.49,3.9,1.77-.19c1.34,2.98,4.09,2.56,6.47,2.9,4.08.57,8.06,1.06,11.54-1.55l-6.87.44c-2.31.15-6.68-2.7-6.81-4.18Z"/>
      <path d="M27.83,56.24c-2.91,1.83-7.21.64-9.99-1.45-6.5,4.4-9.32.32-11.56,2.53,1.13,0,2.53-.14,3.34.3,2.82,1.53,5.22.21,7.74.47,4.46.46,8.81.84,12.85-1.3,2.53.82,5.06,1.42,7.6,1.68,3.85-.15,7.25-.09,10.88-.71-3.62-.79-6.48-1.17-8.91-3.53-8.66,5.04-6.05-1.73-11.96,1.99Z"/>
      <path d="M46.14,41.56l4.78-2.05c.3-.13.63-1.55.35-1.65-2.51-.81-4.73,1.83-5.12,3.7Z"/>
      <path d="M12.47,36.53l-1.79-3.47-1.53.11c-.25.02-.55.85-.39,1.14.5.88,2.03,2.13,3.71,2.22Z"/>
      <path d="M1.15,35.39c-.03,1.2,2.6,1.94,3.46,1.26-.65-1.72-2.9-2.73-3.46-1.26Z"/>
    </g>
  </g>
</svg>