<?xml version="1.0" encoding="UTF-8"?>
<svg id="Warstwa_2" data-name="Warstwa 2" xmlns="http://www.w3.org/2000/svg" viewBox="0 0 58.31 50.39">
  <g id="game-icon-v6-elemental-pixarts-store">
    <g id="game-icon-v6-elemental-pixarts-store_394">
      <path d="M24.95,47.33c-.52.66-2.92.67-3.35-.06-.7-1.2-.52-3.15-.86-4.61-.61-2.59-1.87-5.3-2.85-7.65,1.98-3.56,1.21-7.51,3.04-12.13,1.98,2.76,1.79,5.11,2.57,8.73,2.3-5.72-3.66-9.35-.67-16.96,1.42.84,1.82,1.84,2.28,3.03.86-1.54-.89-3.13-1.49-4.41l1.12-11.84,2.71-1.45c1.12,5.8,1.89,10.98,2.28,16.83l-1.69,4.94,2.63-3.42c1.7,3.44,1.04,6.67.51,10.09l.61-.35c.14-.08.52,0,.61.18l2.24,4.43,3.06,11.62c.25.95,1.91,1.99,1.42,3.22l-4.27,1.52c-2.79,2.09-6.4,1.79-8.13-1.39l.02-2.67-1.82,2.34ZM30.01,34.42l1.63.31c-.31-.73-1.31-1.59-2.02-1.65-2.9-.24-2.24,8.4-1.79,8.66,1.11-1.15-.04-7.75,2.18-7.33Z"/>
      <path d="M38.89,43.48l-3.15-11.67c-.56-2.06-1.26-2.96-.65-5.24.7-2.59,1.27-6.46,1.72-9.05.04-.26.8-.84.99-.7,1.01.81,1.21,5.85,1.93,9.17.39,1.83,1.42,3.83.92,5.67-.88,3.24-1.75,6.14-1.12,9.33l2-7.56c1,.67,2.38,1.7,2.59,2.57l.97,3.99c.22-7.29-.78-4.66-2.92-8.16l2.04-11.46,1.24,1.1-.96-2.84.98-9.51c1.6.47,2.42,1.35,2.59,2.58l1.13,7.93c.71,4.98-2.66,4.03-2.07,7.59.83-1.44,1.42-2.59,3.33-3.32.91,3.99,1.42,7.94,1.47,11.79-1.21,1.07-2.86,2.43-1.99,4.34.43-.8,1.09-2.22,1.72-2.71,1.06-.82,2.46.91,2.5,1.84.13,3.12,1.68,4.63,4.15,6.93l-8.31.56c-.65-1.15-1.05-1.77-2.01-2.76l.2,3.94c-1.29.34-3.03.18-4.48-.33l-3-1.06-1.81-2.96Z"/>
      <path d="M17.05,34.58c-.49.73-1.91,1.76-2.08,2.43-.82,3.12-1.99,7.02-3.77,9.82-3.82.43-7.07-.03-11.19-.67,1.07-1.15,1.96-1.95,3.12-2.96l2.38-8.69,2.73,2.13c-2.19-6.53-.91-8.21.23-12.29.93-3.33,1.41-11.82,2.23-11.81l1.45.02,1.52,8.91c1.06,6.2-4.51,4.89-2.3,8.58.23-.53.64-1.62,1.02-2.04l2.35-2.59,1.16,6.53c.11.61,1.5,2.13,1.16,2.65Z"/>
      <path d="M20.85,47.86c-2.87,1.64-5.63,1.66-8.13.18,1.2-3.26,2.33-6.87,3.1-10.08,1.39-5.81,5.05,8.96,5.03,9.9Z"/>
    </g>
  </g>
</svg>