<?xml version="1.0" encoding="UTF-8"?>
<svg id="Warstwa_2" data-name="Warstwa 2" xmlns="http://www.w3.org/2000/svg" viewBox="0 0 47.14 55.73">
  <g id="game-icon-v6-elemental-pixarts-store">
    <g id="game-icon-v6-elemental-pixarts-store_507">
      <path d="M4.08,35.38c3.78,8.97,10.23,16.29,19.58,20.36,9.62-4.66,16.37-12.13,19.94-21.65,2.96-8.04,4.08-16.21,3.29-24.94-8.8-.59-16.49-3.72-23.39-9.15C16.78,5.55,8.97,8.21.27,9.2c-.89,9.09.45,17.84,3.81,26.18ZM3.73,12.3c7.39-1.21,13.82-3.45,19.82-7.93,6.05,4.22,12.41,6.98,19.88,7.88.71,15.9-4.86,31.62-19.79,39.6C8.73,44.17,3,27.98,3.73,12.3Z"/>
      <path d="M6.64,24.11c1.66,10.33,7.35,19.81,16.64,25.04,3.35-1.41,5.83-3.64,7.91-6.4l-1.87-3.81c3.47-3.1-.74-3.51.45-6,1.12,1.36,1.76,2.1,2.82,2.96-.91,1.56-1.7,4.13.06,5.72,5.63-6.83,8.46-15.47,8.51-24.35-2.52,1.63-4.35,2.35-6.6,1.88,2.81-1.23,5.18-2.44,7.01-4.59l-10.53-3.28-6.42,11.95,7.46-.1-12.67,17.61c.5-4.66,2.12-7.93,3.5-12.04l-6.78.2,4.21-11.87c1.11-3.13,2.04-6.12,2.81-9.38l-7.34,4.19c-1,1.67.21,4.81,1.16,6.4-1.18-.11-2.62-1.82-2.68-2.92l-.1-1.93c-.02-.41-1.39-.84-1.81-.74l-6.61,1.56.54,7.94,3.57.56c.72,1.93,1.3,4.29,1.29,6.07-1.24-2.34-.81-5.18-4.53-4.68Z"/>
    </g>
  </g>
</svg>