<?xml version="1.0" encoding="UTF-8"?>
<svg id="Warstwa_2" data-name="Warstwa 2" xmlns="http://www.w3.org/2000/svg" viewBox="0 0 59.65 57.19">
  <g id="game-icon-v6-elemental-pixarts-store">
    <g id="game-icon-v6-elemental-pixarts-store_278">
      <path d="M49.96,40.74c-.42,1.3-2.24,1.87-3.3,1.48-3.63-1.35,1.2-6.83,3.82-8.57.29,2.43.3,4.55-.52,7.08Z"/>
      <path d="M24.94,42.47c.54,1.83.07,10.26-3.65,8.91-.96-.35-1.76-2.17-1.18-3.28,1.18-2.23,2.78-3.83,4.83-5.63Z"/>
      <path d="M19.72,41.42c-.45.89-2.6,1.3-3.29.87-2.94-1.86,1.89-6.47,4.23-8.11.39,2.48.32,4.73-.94,7.24Z"/>
      <path d="M30.75,55.42c-.34,1.4-2.32,2.03-3.37,1.67-.96-.33-1.7-2.59-.82-3.66,1.47-1.8,2.81-3.14,4.73-5.03.17,2.39.09,4.46-.53,7.02Z"/>
      <path d="M40.66,37.91c.14,2.28.03,10-3.51,8.74-.97-.34-1.9-2.01-1.3-3.07,1.3-2.3,2.79-3.93,4.81-5.67Z"/>
      <path d="M8.8,41.18c-.33.72-2.64.77-3.11.19-2.26-2.78,2.21-6.14,4.6-8.01-.08,2.79-.23,5.12-1.49,7.82Z"/>
      <path d="M33.61,36.19c.18,2.81.06,6.6-2.77,6.78-.58.04-1.24-1.46-1.07-2.06.56-2.09,1.99-3.48,3.85-4.72Z"/>
      <path d="M42.42,53.33c-.24.53-1.9.93-2.3.62-2.12-1.63.53-4.59,2.79-6.03.35,1.69.25,3.76-.49,5.41Z"/>
      <path d="M13.93,55.57c-.11.59-1.69,1.1-2.24.88s-.92-1.77-.58-2.31c.79-1.24,1.94-2.26,3.28-3.18-.06,1.59-.21,3.21-.46,4.6Z"/>
      <path d="M10.94,48.25c-.11.64-1.72,1.31-2.21,1.06s-.95-1.58-.66-2.09c.74-1.32,1.91-2.38,3.26-3.27-.04,1.45-.15,2.89-.39,4.3Z"/>
      <path d="M36.66,30.4c-5.35,4.06-12.6,4.23-17.33-1.31-2.36,2.6-5.4.53-7.73.71-3.16.25-6.03,1.67-8.82-.87-2.07-1.88-3.37-4.95-2.51-7.89.95-3.25,3.99-4.8,7.3-5.26.63-2.17,1.72-4.6,3.18-5.69,2.23-1.67,4.62-1.9,7.41-1.21C19.33,3.96,23.23.5,27.92.06c5.29-.5,9.8,2.41,11.6,7.5,2.9-1.54,5.49-1.35,8.26.07,2.06,1.06,3.26,3.95,4.06,6.33,3.19.85,6.14,2.43,7.16,5.05,1.43,3.67.24,6.73-1.53,9-2.72,3.49-6.53,1.38-9.63,2.22-3.57.97-7.39,3.14-11.2.18ZM28.98,3.63c-4.45-1.13-7.72,2.81-7.87,6.41,1.71-3.64,4.41-5.8,7.87-6.41ZM17.54,11.81c-1.54-.71-3.44-.6-4.99.51-.94.67-1.89,2.23-1.88,3.87,1.79-2.49,3.56-4.01,6.87-4.37ZM49.29,26.81c1.55,1.83,4.28,1.06,5.79-.16,1.39-1.14,2-3.47,1.68-5.53l-1.48,3.51c-1.03,2.45-3.59,2.34-5.99,2.18ZM39.1,28.37c1.03.76,3.04,1.18,4.51.65.98-.35,2.1-1.58,2.55-2.71-2.25,1.86-4.2,2.15-7.06,2.07ZM34.9,27.42c-4.68,3-9.02,2.66-13-.09,3.25,4.7,10.32,4.24,13,.09Z"/>
    </g>
  </g>
</svg>