<?xml version="1.0" encoding="UTF-8"?>
<svg id="Warstwa_2" data-name="Warstwa 2" xmlns="http://www.w3.org/2000/svg" viewBox="0 0 53.84 55.76">
  <g id="game-icon-v6-elemental-pixarts-store">
    <g id="game-icon-v6-elemental-pixarts-store_470">
      <path d="M1.03,28.31c.22,4.09-.71,8.12-.72,12.2-.01,3.97.43,7.76.67,11.75.08,1.27,1.34,1.74,2.48,1.75,13.49.15,5.25,2.39,17.12,1.54l12.88-.92-6.05-1.42c1.99-.7,3.83-.13,5.83.04l16.76,1.43c1.06.09,2.98-1.27,3.32-2.15l-.04-6.53c-.02-3.18.09-5.67-.26-8.91l-1.7,2.6c.53-3.16,1.87-5.8,1.87-8.85,0-5.69-.27-11.19.28-16.81.3-3.05.69-5.78-.12-8.95-6.32,2.97-5.75,4.52-6.9,9.47-.65,2.81,3.16,2.62,3.02,4.83l-.34,5.63c-.2-3.54-.69-6.48-3.84-8.35-2.41,1.07-5.14,2.27-7.74,3.15-2.29.77-3.37,1.56-4.39,3.87l-1.58,3.54c1.23,1.47,1.32,2.9.99,4.42-.5,2.38-1.98,2.76-3.83,3.42l-4.25,1.52,2.77-.22-.39,1.33c1.2-1.27,2.72-2.36,4.69-2.61-.05,1.25-2.96,8.32-4.07,7.28l.62.59-.59,2.29,3.04-4.96,1.51,3.16-.8-4.63,1.53-4.95c1.83,1.54,2.08,3.38,1.86,5.31.4-.3.57-.49.67-.42.07.06.26.21.36.29-.06-1.52,0-2.3.34-3.21-2-1.25-3.44-3.82-1.83-5.99,1.03,1.84,3.14,2.07,4.77,2.08,2.99,2.07.26,6.16.44,7.64,1.73.79,2.77,1.51,4.22,2.46.82.5,2.78.5,4.03.77l-3.64.72c.33,1.21.75,3.16,1.57,3.94l4.22,4.01c-1.9-.93-3.72-2.17-5.11-3.4-1.96-3.08-.88-7.05-6.08-7.6-1.91,3.52-3.74,10.21-8.72,8.55-2.7-.9-4.89-2.2-7.37-3.76l-.83,2.36c.12-1.3.47-2.85-.19-3.52l-3.74-3.79-3.71,4.18c-.64,1.51,1.64,5.09-.31,4.61l-1.19-4.93c-2.45-.53-3.42.83-5.18,2.14,3.34-6.76,4.68.48,9.56-7.02-.99-1.79-1.71-3.21-2.29-4.99l-1.88-5.73c-.86-.79-2.54-1.98-3.55-2.6-1.59,2.32-2.39,3.98-4.51,5.26l2.9-4.65c-1.4-.3-2.98-3.13-3.3-4.68l2.39,2.93c.57.23,1.97.01,2.88-.13l3.36,2.24c-.02-3.44,2.27-5.05,5.53-6.67-.87,0-1.63.22-2.68.48.55-2.4,1.22-4.79,3.79-6.19l.42,3.67.98,4.03c.38,1.56.91,3.35-.4,4.7-3.98,4.11-3.99,1.82-5.75,6.72,2.14-1.91,1.02.63,2.8,2.22-.16-1.52-.78-2.9-.64-4.21.09-.87,1.99-1.95,2.76-2.38l1.18,2.85.32-1.78.71.69c2.65,2.56-1.09-1.61-.92-2.52.43-2.26,6.64-2.29,6.72-6.16.02-1.17-1.34-2.12-.02-3.3.66-.6,2.07-.43,2.95-.33l10.09-3.85c.05,1.2.02,1.59.16,1.92.14.34,1.33-.04,1.66-.27l2.94-2.09,1-5.37,4.21-4.09c-3.31-2.02-6.06-.04-9.49-.82,3.47-.88,6.88-1,10.42-.97-1.24-.99-2.84-2.59-4.42-2.62L24.53.1,8.63,0C6.15-.02,3.79,1.62,1.67,3.26c3.51.18,6.51-.78,9.93-1.24l-4.19,1.89,1.99,3.15c1.15-1.11,1.95-2.07,2.85-2.23l11.12-1.98,4.91,1.05c.96.21,1.75.19,2.18.78-3.33-.09-6.47-.77-9.62-.18l-8.52,1.61c-4.11.78-.07,9.93-.55,12.64l-2.63-7.87c-.6-1.8-1.17-4.68-3.05-5.6-1.57-.77-3.58-.93-5.59-1.3C-.23,6.85,0,9.47.17,12.36l.87,15.95ZM41.82,21.86c.26.38,1.04,1.84.62,2.07-.63.35-1.54-.24-2.6-.77-.62,2.74,1.48,6.65-.38,7.82-.65.4-2.66.39-3.23-.18l-3.73-3.79,2.82-5.54,6.91-2.32c.28.34.73,1.07.82,1.44.11.43-.98,1.04-1.24,1.28ZM25.58,7.97c.46-.25,2-.1,2.02.41l-.2,5.31c1.6-3.26,2.82-6.14,7.3-5.03-1.81,1.55-3.36,2.75-4.48,4.32,2.27.9,3.45,1.17,5.19,2.95-5.28,3.75-5.5-.31-8.26,2.66-1.06,1.14-.6,2.64-.55,4.29.06,1.95-2.99,2.95-4.36,3.17-.1-5.58-2.6-5.67,2.53-11.39l.8-6.69ZM16.01,10.1c.1-.39,1.07-.63,1.47-.48l2.27.87-.33-1.73c-.07-.37.75-.75,1.46-.92l2.94,6.54-3,4.65v-4.12c0-3.13-5.32-2.86-4.8-4.83Z"/>
      <path d="M35.71,39.05h0c.1.08.07.06,0,0Z"/>
    </g>
  </g>
</svg>