<?xml version="1.0" encoding="UTF-8"?>
<svg id="Warstwa_2" data-name="Warstwa 2" xmlns="http://www.w3.org/2000/svg" viewBox="0 0 47.82 58.23">
  <g id="game-icon-v6-elemental-pixarts-store">
    <g id="game-icon-v6-elemental-pixarts-store_273">
      <circle cx="2.12" cy="13.06" r="1.68"/>
      <g>
        <path d="M25.48,45.91l-1.38-14.12-1.25,18.51c-.56-3.35-1.02-6.4-1.97-9.63l.11,11.1c-1.38-4.21-2.8-17.11-7.26-19.47l.95,3.29c-1.46.48-2.8.93-4.12,1.13-3.4.5-6.34-2.51-6.1-5.88l1.86-1.3C2.34,28.94.17,26.37,0,23.07c-.18-3.69,2.72-5.9,6.09-6.74-.25-2.98.11-6.3,2.45-8.19s5.2-2.33,8.72-1.49l-1.02-1.77C17.67,1.43,21.04-.17,24.64.01c3.3.17,6.28,2.61,7.23,6.21l-2.87,1.49c4.75-1.31,8.53.57,10.6,4.33,2.93-.03,6.49.63,7.76,4.15,1.07,2.95.23,6.01-2.47,8.33l1.82.02c.69,0,1.98,3.16-.11,6.05-.63.88-2.97,1.08-3.95,1.61-.92,1.18-1.99,3.18-3.22,3.64-1.93.73-4.26.23-5.98-1.03.07-.88.84-2.65,1.47-3.24,1.68-.17,3.66-.23,4.35-1.37l-4.95-.2c-4.16,5.2-5.33,13.57-6.96,19.83l-.23-10.12-1.66,6.22ZM17.41,12.85c-1.38-.9-3.14-.73-4.4.19-1.15.84-1.74,2.47-1.12,4.18.68-2.72,2.62-3.78,5.52-4.37ZM38.79,23.19c1.11-1.54,1.07-3.94-.04-5.53-1.23-1.77-3.19-1.72-5.27-2.2-1.24-.28-2.6-2.29-4.13-1.33l3.55,2.55c.97.69,3.36.31,4.19,1.37,1.1,1.39,1.3,2.82,1.69,5.15ZM19.62,34.04c.21-3.41-.99-6.03-2.33-8.74-1.43,1.77-3.43,2.41-5.62,1.6-1.61-.6-2.45-2.46-3.1-4.59-.46,1.07-.46,3.14.37,4.17,1.93,2.42,4.71,2.88,7.76,1.34,1.21,2.05,2.1,4.15,2.93,6.23ZM27.92,34.69l2.74-9.58c-2.42,2.69-2.8,6.25-2.74,9.58Z"/>
        <path d="M28.69,53.3c2.21-.91,4.56,2.75,6.14,4.88l-21.52.05,2.6-3.79c.72-1.05,2.18-1.65,3.47-1.63l-1.71,2.43c4.02,1.81,8.26,1.76,12.63.12l-1.61-2.06Z"/>
        <circle cx="36.83" cy="4.54" r="1.79"/>
        <path d="M32.62,41.18c-.76-1.19.76-3.03,2.16-2.5.61.23.63,1.83.22,2.37-.38.5-2.02.67-2.38.12Z"/>
      </g>
    </g>
  </g>
</svg>