<?xml version="1.0" encoding="UTF-8"?>
<svg id="Warstwa_2" data-name="Warstwa 2" xmlns="http://www.w3.org/2000/svg" viewBox="0 0 50.61 43.56">
  <g id="game-icon-v6-elemental-pixarts-store">
    <g id="game-icon-v6-elemental-pixarts-store_406">
      <path d="M37.39,31.81c-1.76-.99-3.9-.99-6.07-.21-4.93,1.77-3.65-.46-7.41.84l5.06,1.06c-.49,2.44-2.43,3.44-4.76,3.87-6.31,1.14-1.6,1.4-7.95-1.43-1.87,1.41-3.56,1.96-5.92,1.57l-3.63,3.78c-4.75-1.46-3.08-1.09-4.86-5.37,3.82-2.21,3.71-3.55,6.62-4.53l-2.05-.19.09-2.63c-1.32,2.41-2.54,5.15-5.68,5.52-.75-2.1-1.16-4.81-.51-7,2.57-1.83,5.3-3.21,8.15-4.64.46.69,1.25,2.34.87,3.01-.54.96-1.8,1.94-2.75,3.03l3.16-1.61c.5-.25,1.04-.54,1.25-.85.73-1.06-2.12-5.84,2.52-7.19,1.09-.32,2.15-.56,3.51-.85l2.37-5.3,4.49-2.51,6.38-3.44.75,4.78c1.58.2,3.09.48,4.53,1.04.51,4.98-3.65,7.01-7.91,7.69-.45-1.75-.07-3.01.3-4.87l-1.75,2.64c.57,3.24-.74,6.13-3.28,8.05l-3.42,2.57c2.02-.79,3.84-1.55,5.65-2.54l2.97-4.52c2.86-.91,4.91-1.84,7.42-3.56l3.64,1.73c.52.82.29,3.46-.55,4.04l-3.6,2.12c1.25.07,2.83-.41,4.05-.68.73-.16,2.5.57,2.69,1.29.32,1.22-.12,2.69-.46,3.95l1.67.54c.66,1.56-.44,2.89-2.01,3.32l-7.74,2.1c-1.47.4-3.1.66-4.44.66.97-1.52,1.49-2.44,2.06-3.86l1.96-1.06c1.22-.65,2.41-.51,4.59-.37Z"/>
      <path d="M32.91,10.07c-1.09-.43-1.68-3.26-.95-4.24,1.74-2.35,4.45-2.74,7.04-4.12l-3.37.05c.86-1.94,5.76-2.49,7.48-.57.7.78,2.09,2.59,1.26,3.85l-7.15,6.8c-1.47-.68-2.71-1.14-4.3-1.78Z"/>
      <path d="M41.26,20.13c-.73-2.35-2.35-1.97-4.09-3.75-.21-.8.41-2.57,1.03-3.15l6.99-6.64c1.51-1.43,4.1.71,4.35,2.3.22,1.38.28,2.72-.62,3.61l-7.65,7.62Z"/>
      <path d="M20.27,10.71c-3.25,1.81-2.13,4.24-4.15,6.34-1.16.52-2.47.96-3.97,1.45.44-2.77.26-11.03,3.69-10.83l4.57.28c-1.19-1.69-2.88-1.19-4.46-1.48l6.29-5.25c2.63-2.2,5.75.5,10.36,1.07-1.56,1.87-3.78,3.28-5.95,4.07-.11-1.43-.2-2.31-.69-3.09-.2,3.14-1.8,5.6-4.86,5.59l.1,1.19c.02.25-.56.46-.9.64Z"/>
      <path d="M43.54,26.9c-.74-3.36-2.85-2.08-2.93-3.24-.02-.31.18-1.26.45-1.51l7.84-7.06c1.12-1.01,2.97,3.53.5,5.99l-5.85,5.82Z"/>
      <path d="M16.24,41.51c-4.02,2.02-3.44,3.19-8.25.41,3.36-5.18,3.68-2.13,8.06-4.38.95-.16,2.37,1.34,2.89,2.42-1.04.66-1.75,1.08-2.69,1.56Z"/>
      <path d="M44.36,31.84l-1.29-2.23c.93-1.55,2.24-2.98,3.71-4.18l2.94-2.41c1.79,4.35-2.49,5.98-5.35,8.82Z"/>
    </g>
  </g>
</svg>