<?xml version="1.0" encoding="UTF-8"?>
<svg id="Warstwa_2" data-name="Warstwa 2" xmlns="http://www.w3.org/2000/svg" viewBox="0 0 58.3 58.44">
  <g id="game-icon-v6-elemental-pixarts-store">
    <g id="game-icon-v6-elemental-pixarts-store_29">
      <path d="M51.32,9.14l.58,3.05L58.04.12c-4.37,1.96-7.86,4.12-11.65,6.68l2.65.31c-3.68,4.32-7.75,8.04-12.35,11.37-1.56,1.13-3.37.43-4.28-.82-.93-1.28-.39-3.26,1.04-4.14l3.96-2.42c3.91-2.39,6.31-6.31,5.63-11.11-1.83,2.65-3.75,4.31-6.41,6.12l3.52-.41c-3.02,5.45-10.74,3.81-12.71,9.43-.79,2.25-.1,4.77,2.17,5.69,1.26.51,1.87,1.66,1.38,3.13-.25.77-1.14,1.06-2.33,1.3-1.89.39-1.47,2.88-1.99,4.18-1.87,2.31-4.14,4.29-6.25,6.45-3.75,3.85-6.83,8.16-8.93,13.04,4.61-.18,6.62-9.62,11.34-12.82l-3.03,5.14c2.45-1.24,8.26-9.09,10.49-9.33,4.92-.52,2.52-4.36,4.88-4.16,2.65.23,2.42,4.05,6.06,4.3,7.02.49,6.22-10.99,11.04-13.68l.02,3.86c1.73-3,3.38-5.16,5.99-6.94-7.14-.78-10.19,4.2-12.9,9.64-.89,1.77-2.82,2.53-4.3,1.59-1.62-1.02-2.05-3.01-.93-4.69,3.18-4.75,7.14-8.78,11.16-12.72ZM28.77,16.94c-.11-1.07.54-2.64,1.77-3.02-1.33,2.23-.65,3.8.64,5.55-1.23-.01-2.26-1.14-2.4-2.53ZM29.4,29.84c-1.19-.62-1.53-2.16-.67-3.2l.79,1.88c.19.44,1.23.59,2.55.96-.45.5-1.99.71-2.67.36ZM36.61,24.39l-2.93,1.11.9-3.32,4.56-2.85c-.92,1.64-1.62,2.92-2.53,5.05ZM45.24,27.91c-.48,2.05-3.15,2.73-4.98,1.84-.49-.24-1.11-1.39-1.19-1.82,2.05,1.68,4.01,1.6,6.17-.02Z"/>
      <path d="M8.1,51.81l-1.19,3.51c3.78-2.14,4.31-8.23,6.7-12.59-2.25.71-3.24,2.75-4.49,4.52l-4.59,6.48,1.3-3.52c-2.32,1.11-1.8,2-4.27,5.18-.74.96-1.21,1.82-1.55,3.04l3.15-.94,4.95-5.68Z"/>
      <path d="M12.05,33.47c-5.14,1.68-9.57,5.45-9.83,11.03,4.14-10.7,11.29-7.19,18.4-12.51.81-.61.95-1.88,1.23-2.54.85-2,1.84-4.03,2-6.28l.42-5.72c-.96,1.71-1.15,3.26-1.5,5.37-1.85-5.9,1.36-11.96,7.59-13.96-6.18-.16-10.51,5.36-9.7,11.57.35,2.71.25,5.86-1.07,8.23-1.57,2.82-4.63,3.86-7.54,4.81Z"/>
      <path d="M36.66,36.8c-4.82-1.15-9.74.39-12.18,4.9-3.49,6.44-3.84,11.16-11.3,14.19,4.34.01,7.53-3.11,9.45-6.75,4.69-8.88,7.33-11.42,17.55-10.46-1.44.32-2.51.35-3.97.43,3.82,1.22,7.99-.03,10.59-3.32,1.02-1.72,1.94-3.43,2.19-5.53-2.34,5.11-6.72,7.88-12.33,6.55Z"/>
      <path d="M10.83,30.66c1.95.53,3.39-.03,4.07-1.57,2.43-.71,3.93-2.97,3.72-5.6-1.11,2.97-3.33,5.05-6.64,5.24-5.47.45-10.34,4.23-11.09,9.84,1.86-4.08,5.06-7.45,9.93-7.89Z"/>
      <path d="M47.68,39.3c-6.52,5.63-11.08.79-16.16,2.77l2.65.46c-2.05.72-3.95,1.39-4.83,2.98,5.52-3.09,5.96-1.32,12.01-1.97,2.72-.29,5.43-1.66,6.34-4.23Z"/>
      <path d="M11.98,25.64c6.65-1.03,4.2-9.09,7.96-14.85-5.89,3.67-1.35,10.03-7.96,14.85Z"/>
      <path d="M18.94,57.64c4.61-.8,8.3-5.03,8.88-9.3l.47-3.46c-3.79,5.54-1.77,8.23-9.35,12.76Z"/>
      <path d="M30.65,49.56c4.55-3.72,5.64-1.02,9.94-3.24l-4.75-.03c-2.16-.01-4.51,1.23-5.19,3.27Z"/>
      <path d="M41.04,34.87l-3.79-.47c-1.14-.14-2.17-.03-3.21.44l3.35.49c1.32.19,2.49.11,3.65-.46Z"/>
    </g>
  </g>
</svg>