<?xml version="1.0" encoding="UTF-8"?>
<svg id="Warstwa_2" data-name="Warstwa 2" xmlns="http://www.w3.org/2000/svg" viewBox="0 0 52.68 53.16">
  <g id="game-icon-v6-elemental-pixarts-store">
    <g id="game-icon-v6-elemental-pixarts-store_105">
      <path d="M12.21,30.93c-1.07.18-3.01,1.04-3.97,1.36-.26.08-.27,1.04,0,1.07l1.29.14c-3.92,4.33-6.98.97-7.11,10.58,4.16-1.63-.15-4.74,5.42-6.29l.83,4.35,2.26-1.39c-.65-2.84-.12-5.55,2.53-6.87l-1.25,2.39c3.22-1.18,3.37-.75,4.12-3.86l1.01,2.61,4.43-9.92-.7,3.96c3.41-1.86,4.76-4.66,6.47-7.67l-1.01,3.93,1.8-.79c-3.65,4.43-8.06,4.75-9.04,10.94l-3.97,1.99,2.09.76c-2.54,2.44-3.69,5.16-2.96,8.53l2.32-.18c-1.4-6.4,3.46-2.87,2.42-7.87,2.05,4.98,3.56,4.45,3,10.47l3.05-2.35-.85-2.96,2.16.78c-2.02-4.09-1.12-.44-3.89-6.21-.53-1.11-.55-2.63-.26-3.76l.76,2.93c.87-2.4,1.66-4.42,2.73-6.77-.04,1.99-.14,3.47-.03,5.17l.27,4.21,1.1-1.37c1.13.85,1.71,2.23,1.9,3.87l2.45-1.58c-.61-1.45-1.36-2.66-2.36-4.08l1.22-.38c-2.73-1.54-1.84-1.82-1.91-5.33l-1.33,1.83c.08-.57.29-1.57.56-1.91,2.06-2.59,4.15-4.98,6.02-7.61.77-1.08,1.25-2.02,2.26-2.85l5.72-4.76-4.54,1.35c-1.42.42-2.05.81-3.22,2.17.3-2.29,4.95-7.27,1.9-8.11-1.55-.43,3.55-6.11,3.69-8.37l-4.52,4.01-1.42-4.43-1.04,2.5c-.3-1.97-.03-3.23.41-5.08l-6.93.02,2.65,5.88,2.48,4.09c1.22-4.49-1.66-5.82-1.24-9.34,2.9,5.73,4.4,7.97-.15,14.48.55-2.31.62-4.31-.43-6.39-1.45-2.85-2.59-5.58-3.81-8.66-1.01-.06-2.21-.05-3.22.03l1.78,4.78C21.87,2.83,22.74.76,21.48.02c-.21-.13-1,.38-.92.61l1.31,3.51-2.84-.11c5.7,3.58,6.24,4.77,7.3,11.95.59-1.43,1.02-2.94,1.41-4.46,1.26,8.35-5.66,8.57-8.79,13.33l-4.95-4.84c1.08,2.78,2.28,5.14,3.62,7.61l-1.11-.1c-.96-.09.43,2.61-4.31,3.41ZM32.94,15.66c-.46,2.9-1.09,5.23-2.34,7.71-.02-2.95,1.07-5.44,2.34-7.71Z"/>
      <path d="M52.68,46.72l-2.83-1.45c-.9-.46-1.94-.61-3.08-.51.05.78.16,2,.58,2.34l2,1.59c-.95.05-2.59-.63-2.76-1.41-.44-1.97-1.6-2.12-3.16-2.73-.72-.29-1.44-2.02-2.41-1.75-.88.25-2.03.87-2.27,1.42l2.03,3.37c1.67.44,3.45,1.43,2.83,3.36-.81-1.5-2.57-2.74-3.6-1.66-.64.67-1.24,1.3-1.82,1.79l1.14-2.35c-.28-.92-.85-2.6-1.47-3.07l-3.76-2.86c-1.54-1.17-3.35.36-4.39,1.36l-2.36,2.27c3.38,2.35,2.88.8,4.72,4.46-.89-.49-1.59-1.07-2.44-1.88-.75-.72-3.24-1.28-3.96-.52-1.85,1.97-3.97,2.79-6.64,2.25l-3.51,1.92c.94-2.04,2.53-3.05,4.54-3.62-.05-.7-.29-1.73-.65-2.03-1.02-.85-2.21,1.41-4,1.25-7.43-.67-2.93.94-7.3,2.32,2.86-2.86.84-3,4.32-4.03l.42-4.1c-.61-.28-1.69-.28-2.12.01l-2.46,1.72c-1.12-1.22-2.69-1.08-3.82.21-1.69,1.93-2.68.41-4.47,2.05v6.72s52.65,0,52.65,0v-6.44Z"/>
      <path d="M39.67,30.94c-3.11-.25-4.75-3.21-4.68-6.07-1.55,1.19-2.41,2.85-2.26,5.22l-.78-1.9c-1.62,1.43-1.53,4.11.04,5.68,1.2,1.19,1.38,1.9.74,4l1.61-1.33c1.78,1.07,2.04,3.4,1.31,5.52l1.66,1.45,1.25-3.33,1.84.49c-3.4-3.53-1.17-4.05-4.3-6.98-.68-.63-1.21-1.44-1.61-2.27l2.96,2.51c1.12.95,2.13,1.65,3.51,2.35l-.4-1.88c4.49,3.65.24,8.37,4.97,9.49l.14-3.28c4.31,1.99,1.73,2.47,4.68,3.55.5-5.05-3.74-4.33-4.97-6.55.37-.14.89-.15.81-.33l-.33-.78c-.79-1.91-2.05-3.34-4.05-4.16l1.39-2.93c-1.04.5-2.36,1.61-3.52,1.52Z"/>
      <path d="M24.98,16.8c.69-2.61-.58-5.36-1.66-7.36l-.42,5.6-5.29-3.82c1.25,2.27,2.31,4.2,4.14,6.19l-.83,3.5c1.45-.95,3.58-2.3,4.06-4.12Z"/>
      <path d="M39.74,26.01l-2.24,2.41c.59.58,1.15,1.07,1.55,1.18.33.08.97-.84,1.11-1.2l1.17-3.09,1.25-2.39c-1.54.67-2.26,1.68-2.85,3.1Z"/>
      <path d="M46.36,34.42c1.49-2.08,3.07-3.67,4.99-4.83-1.94.02-3.41,1.08-4.93,2.1-.51.34-1.4.81-1.38,1.31.01.56.99,1.8,1.32,1.42Z"/>
      <path d="M9.58,30.61l1.18-.64c.27-.15-.25-1.06-.47-1.33l-1.79-2.14c-.56-.93-1.16-1.73-2.17-1.36,1.05,1.08,2.78,5.73,3.25,5.47Z"/>
      <path d="M5.23,34.96c-1.54-.93-2.65-1.56-4.18-1.9l2.62,2.47c.38.36,1.58-.06,1.56-.58Z"/>
    </g>
  </g>
</svg>