<?xml version="1.0" encoding="UTF-8"?>
<svg id="Warstwa_2" data-name="Warstwa 2" xmlns="http://www.w3.org/2000/svg" viewBox="0 0 53.22 61.23">
  <g id="game-icon-v6-elemental-pixarts-store">
    <path id="game-icon-v6-elemental-pixarts-store_441" d="M39.7,46.97c-6.07,5.09-4.8,4.5-4.76,12.43-5.21,2.4-11.14,2.46-16.35.05-1.32-6.26,1.22-4.96-1.93-11.29-1.2-2.42-2.7-3.85-5.82-4.07l-2.14-5.72c-1.61-.9-3.77,1.03-6.11-.62-2.67-1.88,1.49-5.01-2.59-8.34.58.12,2.72.97,2.78,1.7l.39,5.43,6.53-.09c2.16,2.16.67,6.9,5.34,6.43-.83-19.79-8.31-10.53-8.74-16.6-.17-2.44-4.42-3.93-4.73-5.12-.42-1.63,3.03-1.96,2.35-8.41l1.35,4.03c-.9,1.61-1.72,3.17-2.12,4.25,5.75,2.68,3.78,6.66,7.51,6.84l-1.11-7.03c-.1-.65.86-2.16,1.49-2.05,2.94.47,2.95,10.44,7.84,11.94-.18-2.86-6.44-20.81-1.68-19.83,3.59.74,3.01,12.36,6.94,17.19.93-3.8.84-6.85,1.01-10.62-.41.09-1.07.23-1.07.23-.29-1.09-1.73-2.69-2.16-3.76l-2.65-6.62,2.74-2.49c-.05-1.85.36-3.47,1.13-4.86l.42,5.13-2.25,2.53,1.54,4.8c.27.84,1.22,1.71,2.23,2.2l.23-5.26c.03-.74,1.12-1.87,1.77-1.89s2.01,1.09,2.09,1.83c.63,5.44.74,11.12.71,16.45,0,.46.66,1.71.93,1.49,3.59-2.98,2.81-16.35,6.2-16.65.83-.07,2.25,1.54,2.13,2.51l-1.3,10.36,4.05-1.85,1.32-4.66c.16-.57-.38-2.08.12-2.37l2.44-1.39c.91-.52.75-2.94,1.1-4.42l.96,4.61-3.09,1.8c-.91,11.42-5.17,7.4-6.93,10.57-2.09,3.75-1.76,7.98-.18,12.25,6.08-3.56,2.32-9.99,8.93-9.96l.15,3.75c2.05-.56,4.53-2.52,4.77-4.49-.61-.95-1.54-2.34-1.93-3.13-.42-.85.52-2.73,1.4-3.38-1.89,7.67,5.64,3.79.35,9.72-1.38,1.55-2.55,2.59-4.83,2.5-.72,4.53-2.75,8.63-5.76,12.54-.58.75,1.4,2.86,2.13,2.54.71-1.74,1.29-2.99,3.07-3.26,1.81-.27,3.27-.1,4.63.49l-5.55,1.29-1.12,3.12c-1.74-.1-2.85-1.04-4.18-2.81Z"/>
  </g>
</svg>