<?xml version="1.0" encoding="UTF-8"?>
<svg id="Warstwa_2" data-name="Warstwa 2" xmlns="http://www.w3.org/2000/svg" viewBox="0 0 68.99 47.95">
  <g id="game-icon-v6-elemental-pixarts-store">
    <g id="game-icon-v6-elemental-pixarts-store_571">
      <path d="M15.81,42.47c6.03,2.33,6.5-3.51,9.68-5.7l-.42,6.37c7.62.53,9.67-7.56,12.5-13.04l1.21,6.37,2.27-4.52c1.88-3.74,3.99-2.67,6.19-7.62,2.68,5.93-5.28,7.95.1,15.42,1.53-2.61,3.02-4.56,5.16-6.19-.4,9.69,9.17,15.57,16.49,14.19-3.56-1.43-6.21-3.26-7.07-5.85-1.19-3.55.21-6.14,1.79-9.57l-3.46,2.05c-5.42-5.43,9.36-9.16-1.01-20.49,1.1,5.52.05,10.48-4.81,13.05,2.48-4.68,3.58-9.93.28-14.27-3.68-4.85-10.35-5.08-6.83-12.68-2.38.84-3.99,2.92-4.31,4.76-1.02,5.92,4.69,7.85,3.17,12.89-.45,1.49-2.41,3.01-4.09,3.74.56-2.21,1.17-4.04.25-5.75-.71-1.33-2.43-2.56-4.21-3.3,2.69,11.54-9.62,7.36-7.5,19.54-1.91-1.37-3.26-3.75-3.44-5.69-.26-2.67,1.26-4.54,2.92-6.77-5.35.48-8.7,4.88-8.97,10.07-.1,1.89-.51,3.87-1.64,5.47-.53.75-2.76,1.47-3.59,1.12-.73-.3-1.45-1.21-2.41-2.33-6.27,5.55-3.32,10.19-14.06,13.69,9.31,2.48,13.37-5.9,15.81-4.96Z"/>
      <path d="M50.37,40.53c-1.14,1.29-1.07,2.75-.91,5.19-2.47-.79-5.13-2.14-6.72-4.43l-1.29-3.82-2.52,4.36c-.3.53-1.46,1.66-1.77,1.23l-1.29-1.82c-2.61,3.02-5.97,4.57-9.81,6.47l29.41-.03c-2.9-2.17-4.39-3.74-5.09-7.15Z"/>
      <path d="M33,16.64c2.27-2.68,4.55-5.31,3.42-9.15l-2.68,3.25c-1.32,1.6-2.04,3.51-.74,5.9Z"/>
      <path d="M17.11,32.74c.97-.64,1.71-2.29,1.54-3.24l-.75-4.11c-2.51,1.85-2.53,5-.8,7.35Z"/>
      <path d="M53.35,6.91l2.05,2.28c.81-2.95-.9-4.16-2.6-5.96-.66,1-.34,2.7.55,3.68Z"/>
      <path d="M15.5,45.82l-1.65,1.64c2.47.56,4.91.58,6.36-1.39l-4.71-.25Z"/>
      <path d="M65.55,26.02c-1.61.6-3.77,2.63-2.14,4.58,1.34-1.02,2.07-2.95,2.14-4.58Z"/>
    </g>
  </g>
</svg>