<?xml version="1.0" encoding="UTF-8"?>
<svg id="Warstwa_2" data-name="Warstwa 2" xmlns="http://www.w3.org/2000/svg" viewBox="0 0 67.32 50">
  <g id="game-icon-v6-elemental-pixarts-store">
    <g id="game-icon-v6-elemental-pixarts-store_178">
      <path d="M19.59,18.94l-5.8,1.93c.98-4.28,6.08-4.22,4.55-8.76-.98,1.35-2.03,2.79-3.25,3.5-8.39,4.92-6.08,11.6-11.32,17.73-1.55,1.81-2.92,2.98-3.77,5.49,3.43-1.01,5.85-2.62,8.21-4.38l.95,1.56.96-4.12,8.92-6.91c-1.6,3.7-.97,5.51-.37,8.51,1.02,5.08,4.78,8.71,9.92,9.02,4.98.31,9.65-3.4,10.71-8.26.15-.66,1.38-1.87,1.11-2.46l-1.01-2.26.82-2.17-3.86-5.42c5.36,1.44,9.89,3.63,14.65,6.4-3.01,11.3-13.59,17.78-24.64,16.6-13.52-1.44-15.23-7.01-21.81-3.92,9.79,1.55,9.83,6.22,17.36,8.58l-2.98-3.04,12.86,3.02c3.84.9,7.96.27,11.43-.98l-6.72-1.38c7.71-5.43,9.58.07,14.45-5.69,2.04-2.42,4.44-4.54,7.24-5.96-3.57-1.82-9.19,5.2-8.06,2.93l.38-.76,4.05-8.49c5.07-.23,9.91-3.5,10.68-9.23-2.44,3.29-6.33,5.01-9.99,1.93,1.11-1.77,2.27-3.16,3.67-4.69l-9.04,1.45c-.51.08-.68-1.38-.35-1.6l1.46-.97-3.14-.22c1.61-1.5,3.54-2.09,5.65-2.43,10.11-1.64,1.79-12.19,13.81-12.79-11.99-3.46-8.96,7.55-16.85,7.45l-5.73-.08c-5.28-.07-4.04,8.95-14.25,5.85,1.84-3.31,7.73-3.66,4.4-10.47-1.17,9.48-10.5,2.62-15.29,15.52ZM28.97,21.85c3.5,5.94,3.12,12.6.07,18.9-3.21-6.04-3.77-13.14-.07-18.9Z"/>
      <path d="M43.39,4.92c1.14-.69,2.05-1.93,2.56-3.47-3.91,1.22-6.92,1.79-6.58,5.89l4.03-2.42Z"/>
      <path d="M62.46,11.72c-.62,1.66-.74,3.5-.73,5.42,3.8-2.03.29-4.4,4.73-6.73-1.02-.24-3.62.32-4,1.3Z"/>
    </g>
  </g>
</svg>