<?xml version="1.0" encoding="UTF-8"?>
<svg id="Warstwa_2" data-name="Warstwa 2" xmlns="http://www.w3.org/2000/svg" viewBox="0 0 62.32 61.59">
  <g id="game-icon-v6-elemental-pixarts-store">
    <g id="game-icon-v6-elemental-pixarts-store_374">
      <path d="M61.21,14.31c.3-.28.76-.87,1.11-1.41-.7-.39-1.38-.68-1.87-.77-.53.4-1.06,1.2-1.07,1.81.19.41,1.49.67,1.83.36Z"/>
      <path d="M8.7,26.23c.11-.27-.14-.73-.49-.99l-.92-.68c-.21.14-.62.78-.61,1.11.01.28.43.66.77.91.4.29,1.06.1,1.24-.35Z"/>
      <path d="M7.6,18.14c5.52,4.18,16.82,4.04,23.61,3.45-5.85,1.42-11.82,1.92-18.09,1.37,2.07,1.76,4.6,2.43,7.24,2.98,6.48,1.34,12.83.77,19.42-.4-7.69,3.28-19.83,4.12-27.43-.4-.45,2.63,2.96,4.94,5.16,5.74,6.78,2.47,14.18,1.94,21.3.84-6.48,2.71-14.96,3.56-21.59.49,1.43,3.41,5.8,3.97,8.54,4.64-3.29.24-6.35-.43-9.26-1.78,1.14,1.24,2.56,2.1,4.25,2.6,6.97,2.05,15.48,0,21.76-3.33-3.99,4.07-10.15,5.88-16.18,5.71,1.42.9,2.99,1.16,4.63,1.32,4.35.45,8.34-.52,12.61-2.09-3.55,3.34-8.57,4.02-13.11,3.4.93,3.24,6.51,3.48,9.06,3.58-3.22,1.03-6.74.88-9.76-.74-.97-.52-1.58-1.33-1.54-2.4-1.16,2.21,1.43,3.24,2.85,4.11-.45.74-.79,1.74-.62,2.58.12.59.79,1.38,1.51,1.78,3.45,1.91,9.23.65,10.72-2.77-3.02,1.43-6.21,2.25-9.2.53,2.5.09,4.84-.1,7.23-.93,2.15-.75,6.34-2.68,5.62-5.53-2.82,1.56-6.06,2.23-9.36,1.33,3.83-.18,7.24-1.23,10.11-3.69.97-.83,1.01-2.14,1.14-3.19.95-.84,2.41-1.49,2.84-2.84.3-.95.23-1.93-.6-2.49.69,3.15-4.98,5.31-7.48,5.64,2.73-1.51,5.2-3.76,5.21-6.97-3.11,1.32-5.86,2.48-9.11,3.18,3.33-1.43,10.89-4.66,11.67-9.27-5.63,4.46-14.62,6.42-21.27,5.83,6.29-.81,12.09-2.31,17.51-5.41,2.93-1.68,7.37-5.24,7.08-8.95-5.43,6.16-16.48,8.35-24.33,8.26,7.78-1.45,16.23-3.09,22.37-8.74-2.47.76-4.47,1.9-6.95,2.15,4.14-1.77,10.93-5.02,13.18-9.08,1.12-2.02.62-4.33-1.29-5.67C52.46-.22,43.52-.32,38.26.3c5.09.45,12.53.9,16.36,4.37,1.63,1.48,1.74,3.66.27,5.29-.07-1.75-.85-2.99-2.29-3.77-6.24-3.37-17.42-2.7-24.08-.86,1.82-.03,3.47-.25,5.27-.41,4.35-.38,12.93-.25,16.22,2.66.99.88,1.16,2.24.36,3.27-.63.81-1.43,1.51-2.25,2.13,0-1.25-.19-2.2-1.2-2.95.69,5.12-10.5,8.19-14.09,7.86,2.02-.85,3.77-1.32,5.48-2.57-.52-.64-1.21-.96-2.03-1.12-3.8-.74-7.8-.2-11.23,1.6-.31.16-.72.78-.72,1.08,0,1.3,4.64,1.47,5.69,1.69-2.06.33-9.27.78-10.31-1.63-1.17-2.7,7.84-5.05,9.38-5.59-2.77-.3-13.95,2.56-12.5,6.61-.83-.29-1.88-1-2.22-1.89-1.27-3.34,7.12-6.45,9.49-7.3-3.54.34-12.84,2.62-13.49,7.25-1.24-.95-1.05-2.74-.07-4.08,3.58-4.92,12.94-7.28,18.56-8.66-6.89.43-17.74,3.44-22.09,8.9-1.6,2.01-1.17,4.43.84,5.95Z"/>
      <path d="M36.25,53.84c-2.93.65-5.23-.54-6.83-2.94-.92.77-1.04,1.83-1.13,3.17l-.48-.89c-1.24,1.42-1.44,3.17-.84,5.09.41,1.33,1.49,2.86,3.2,3.33-.92-2.49.56-3.64,2.05-5.61l-1.84.2c.77-1.44,3.13.97,5.87-2.35Z"/>
      <path d="M58.57,24.73l.25-2.35-1.73-.75-3.04,1.91-1.29,3.82,3.24-.39c.92-1.05,1.55-1.61,2.58-2.24Z"/>
      <path d="M11.01,21.96c-2.85-.9-5.54-1.57-7.64-3.68-2.28-2.07-1.24-4.24.23-6.24-1.22.71-2.38,1.72-3.1,2.99-2.86,5.04,7.4,7.02,10.51,6.93Z"/>
      <path d="M14.04,34.15l-1.68-1.67-2.29,1.43.68,2.59,4.68,1.6c.28-1.73-.43-3-1.4-3.96Z"/>
      <path d="M44.28,10.03c-1.21-2.52-9.02-2.33-11.49-1.46,2.04-.01,11.55.04,10.12,4.26.85-.5,1.95-1.59,1.37-2.8Z"/>
      <path d="M14.35,4.3c.08-.41-.48-1.2-.94-1.24-1.71-.15-2.54,1.19-2.68,2.61l2.34-.13c.68-.04,1.14-.55,1.29-1.24Z"/>
      <path d="M49.7,42.11l1.48,1.9,1.84-2.39c-.35-.34-1.01-.87-1.43-1.1-.71.44-1.29.95-1.89,1.59Z"/>
      <path d="M23.58,42.73c.36-.17.58-1.34.29-1.55-.43-.31-1.35-.27-1.73.07-.37.33-.86,1.1-.69,1.5.65.21,1.56.26,2.14-.02Z"/>
      <path d="M27.65,49.03c.21.05.42-.78.29-.95-.26-.33-.84-.85-1.2-1.04-.39-.2-1.09.38-1.08.75.01.47.5.9,1.01,1.02l.98.22Z"/>
      <path d="M43.52,53.88c.31-.13.78-.7.94-1.07-.29-.25-1.07-.57-1.44-.54-.36.04-.93.84-.8,1.18.12.32.98.56,1.29.43Z"/>
    </g>
  </g>
</svg>