<?xml version="1.0" encoding="UTF-8"?>
<svg id="Warstwa_2" data-name="Warstwa 2" xmlns="http://www.w3.org/2000/svg" viewBox="0 0 57.63 48.97">
  <g id="game-icon-v6-elemental-pixarts-store">
    <g id="game-icon-v6-elemental-pixarts-store_326">
      <path d="M12.32,8.03C5.33,10.69,1.44,17.75.31,25.78-1.74,14.2,6.54,3.15,18.4,1.94c2.56-.26,4.92.19,6.95.92l-3.73.41c2.96.69,5.47,1.4,8.64,2.49-1.74-2.85-4.79-4.39-8.12-5.76,11.55.98,18.43,10.47,17.32,21.88-4.02-8.06-12.03-11.69-20.75-10.13,2.9-1.59,6.06-1.76,9.13-1.69-7.92-3.58-16.37-1-22.21,5.43.81-3.34,3.96-4.76,6.69-7.47ZM30.8,8.89c-2.7-2.37-6.32-3.42-9.62-3.21,3.46.79,6.31,1.87,9.62,3.21Z"/>
      <path d="M35.03,38.02c-9.41-1.24-15.77-9.65-15.25-19.23,4.3,7.61,12.74,10.88,20.91,8.69-2.91,1.84-5.85,2.15-9.09,2.17,7.3,2.76,15.57.55,20.78-5.97-.44,3.38-3.65,4.73-5.87,7.16,6.71-2.71,9.85-9.55,10.62-16.82,2.32,9.65-3.7,19.52-13.28,22.37-3.26.97-6.38.96-9.47-.16l3.01-.82-8.13-1.83c1.66,2.02,3.65,3.17,5.76,4.44ZM36.26,33.11l-8.99-3.25c2.44,2.06,5.42,3.44,8.99,3.25Z"/>
      <path d="M13.2,48.61c9.4.09,18.19-2.74,25.33-9.09.77-.69,2.64-.85,3.67-.71-5.62,6-13.06,9.09-20.95,10.15l-8.05-.36Z"/>
      <path d="M35.16,47.49c4.21-2.91,8.62-5.56,11.66-10.07l4.39-2.71c-3.81,5.81-9.22,10.4-16.05,12.77Z"/>
      <path d="M34.22,39.64c-4.29,3.32-9.32,5.89-14.96,5.8,4.5-1.02,8.58-2.77,12.31-5.8.7-.57,1.62-.7,2.66,0Z"/>
    </g>
  </g>
</svg>