<?xml version="1.0" encoding="UTF-8"?>
<svg id="Warstwa_2" data-name="Warstwa 2" xmlns="http://www.w3.org/2000/svg" viewBox="0 0 49.18 59.22">
  <g id="game-icon-v6-elemental-pixarts-store">
    <g id="game-icon-v6-elemental-pixarts-store_458">
      <path d="M38.95,54.54l1.32-8.51,1.17,3.78c.67-2.25.47-5.03,1.43-7.24l1.53-3.53c2.91-6.75,3.67-13.87,4.14-20.87l.63-9.32c-3.41-.62-6.48-.62-9.35-1.87-2.93-1.28-5.85-2.18-8.95-2.44-1.65-2.26-3.59-2.23-6.29-4.54C16.79,4.53,9.56,7.9,0,8.81c.56,9.11,1.03,18.01,3.57,27.16.66-1.5,1.32-3.2,1.79-4.68-1.28-6.74-1.87-13.29-1.63-20.01,4.36-.69,8.06-1.72,12.1-3.17.63,2.38,1.24,4.49,1.31,6.87l-2.07-5.45-10.28,2.74c-1.25,2.45.86,3.96,2.03,5.35l3.02,3.59c-.47-.03-1.53-.59-1.63-.3l-.53,1.56c.02-2.32-.61-4.43-3.04-5.38.95,13.32,1.4,20.17,11.03,29.82l1.6-2.28-.56,3.25c2.18,2.2,4.75,4.31,7.38,6.15l.46-5.57.68,5.54c6.3-4.5,15-12.11,16.7-19.47-1.11-.97-1.9-2.25-.99-3.24.35.99.51,1.54,1.32,2.44,1.03-4.3,1.96-8.19,2.22-12.5l.55-9.01-5.97-.9c-.76.67-1.26,1.9-1.75,3.1-.65.6-1.82,1.43-2.8,2.07.48-.84,1.08-1.6,1.76-2.38.74-.85.49-3.62-.66-4.08-3.73-1.48-6.9-2.91-10.52-5l-.53,6.14-.46-6.22c-1.99,1.08-3.47,1.79-5.13,3.32-.29-.24.36-1.9.98-2.24l4.65-2.55c4.17,2.41,7.97,4.07,12.23,5.62l.75,2.58c.84-.65,1.69-1.38,2.34-1.28l5.99.98c-.37,8.01-.74,16.31-3.16,24.04-2.4,7.66-11.87,15.93-18.19,20.25-8.29-6.16-15.85-12.94-18.95-22.89-1.01,1.87-1.8,4.51-.91,6.32,2.2,4.44,5.35,7.97,8.98,11.48l.89-2.94c0,1.73,0,3.63,1.24,4.81,2.75,2.62,5.58,4.66,8.84,6.79,5.09-3.56,8.7-6.56,13-10.68l1.29,6ZM19.1,25.26l.16-2.89c1.9,1.38.69,4.46,4.3,5.14,1.36-3.36-2.32-3.89-2.24-6.08l2.38,1.55c1.1-2.04-2.82-2.91-2.77-5.43l2.78,2.13c.1-1.77.16-3.12.78-4.75l.87,4.58,2.55-2.03c.59,2.16-3.38,3.09-2.75,5.26l2.33-1.45c.22,1.97-3.22,2.53-2.13,6.23,3.93-.77,2.43-4.18,4.55-5.31l-.22,3.21c2.35-1.05,1.4-4.8,3.23-5.22l-.45,3.42c1.46-.71,2.79-1.44,4.51-1.8-1.14,1.63-2.4,2.16-3.81,3.1l3.23,1.16c-1.38,1.56-3.9-1.08-6.18.34l2.64,1.55c-2.93.9-3.06-1.75-6.82,1.23,3.48,2.6,3.37.21,6.88.89l-3.13,1.49c2.85,1.69,5.35-1.02,6.62.51l-3.35,1.35c1.66,1.04,3.03,1.42,3.72,3.16l-4.34-1.89.42,3.4c-1.96-1.17-.89-3.89-3.13-5.09l-.26,2.92c-2.28-2.38.34-3.44-4.19-5.41-.64,4.56,1.19,2.78,2.42,6.42l-2.72-1.52c.64,2.18,1.89,2.91,3.24,4.99-.86.15-1.74-.67-2.88-1.67-.21,1.67-.27,3.07-.81,4.91-.56-1.83-.68-3.23-.83-4.7l-2.55,2c-.71-1.94,3.41-3.35,2.77-5.66l-2.53,1.82c-.18-2.44,3.43-2.71,2.24-6.49-4.01,1.26-2.16,3.58-4.26,5.26l.03-3.01c-2.26.99-1.5,4.34-3.11,4.97l.28-3.21c-1.46.71-2.69,1.32-4.46,1.84.9-1.57,2.14-2.11,3.75-3.1l-3.16-1.23c.72-1.6,4.4,1.06,6.28-.45l-2.77-1.34c2.24-1.29,3.29,1.73,6.65-1.23-3.53-2.94-3.68-.12-7.02-1.24l3.15-1.47c-2.15-1.46-5.01,1.15-6.35-.19l3.35-1.47c-1.47-.75-3.06-1.33-3.85-3.04,1.54.54,2.86,1.15,4.36,1.88l-.31-3.28c1.84,1.45.81,3.25,2.9,4.93Z"/>
    </g>
  </g>
</svg>