<?xml version="1.0" encoding="UTF-8"?>
<svg id="Warstwa_2" data-name="Warstwa 2" xmlns="http://www.w3.org/2000/svg" viewBox="0 0 54.95 54.74">
  <g id="game-icon-v6-elemental-pixarts-store">
    <g id="game-icon-v6-elemental-pixarts-store_189">
      <path d="M54.09,9.8l-6.8,3.61c.04-6.43,4.98-3.07,5.37-12.23-1.56,1.22-2.88,3.24-4.48,4.33l-5.43,3.7c-3.44-3.47,3.23-5.85,3.56-9.21-2.39,1.1-3.8,2.71-5.49,2.93-5.12.66-8.93,4.49-10.73,9.07l3.49.62c.51,1.13.76,2.13,1.4,2.18l2.75.25c.84.08.56,2.28.45,3.44l3.66.85-.56,3.93,2.5,1.04c.99.41-2.24,2.87.04,4.83,2.55,2.19,5.74-3.64,6.46-4.7l3.03-4.42-4.46,1.45c.73-5.58,2.78-1.77,6.09-12.22-.28-1.59-.53-.76-.86.55Z"/>
      <path d="M26.4,47.28c1.74-4.03,3.36-6.83,5.9-10.62-2.03-1.48-3.74-1.57-5.92-2.06-2.21-.49-5.58-4.17-5.65-6.41l-.16-4.69-11.46,5.43c.16,12.07,5.91,16.8,17.29,18.35Z"/>
      <path d="M21.57,23.31c.78,4.36,3.41,10.67,8.57,10.51l3.47,2.59,9.98-5.9-3.73-1.15,2.17-3.66-4.21-.49,2.42-4.4-5.13-.35,1.54-3.71-5.72-.04.75-2.82c-5.41-1.77-5.16,5.26-10.12,9.43Z"/>
      <path d="M10.77,49.07c-.99,3.08-1.7,3.59-3.04,5.67,8.55-.12,5.67-4.97,10.51-4.08l-.79,3.85c1.73-1.09,2.72-1.79,4.07-2.85l3.44-2.69c-13.05-3.2-15.09-4.4-18.03-18.08-2.71.43-5.17,2.3-5.63,5.33l3.19-1.3C5.06,39.43-.07,39.8,0,45.55l4.41-1.94c2.79,1.16-3.52,3.42-3.83,9.92l10.19-4.45Z"/>
      <path d="M21.01,11.55l6.33-.46,3.62-7.9c-4.34.81-8.47,3.19-9.95,8.36Z"/>
      <path d="M26.18,13.25c-2.32-.17-3.99-.04-6.21.4l-.76,8.69c4.45-2.05,5.48-5.39,6.97-9.09Z"/>
    </g>
  </g>
</svg>