<?xml version="1.0" encoding="UTF-8"?>
<svg id="Warstwa_2" data-name="Warstwa 2" xmlns="http://www.w3.org/2000/svg" viewBox="0 0 55.68 54.56">
  <g id="game-icon-v6-elemental-pixarts-store">
    <g id="game-icon-v6-elemental-pixarts-store_535">
      <polygon points="40.27 23.03 28.77 22.83 39.87 0 27.29 .02 16.44 30.72 26.88 30.92 20.12 54.56 40.27 23.03"/>
      <path d="M47.26,27.44c-.1-6.39-3.63-13.37-9.94-15.58,5.15,5.63,8.3,10.74,7.15,17.9-.89,5.48-3.42,10.24-8.46,13l-5.54,3.04c9.46-1.01,16.94-8.72,16.79-18.37Z"/>
      <path d="M5.85,35.25c-4.84-8.83-2.89-5.09-4.45-15.94-1.64,4.64-2.32,10.45.62,14.79l4.72,6.99-2.52-.11c2.52,3.87,5.32,6.97,8.78,9.76l-3.6-5.14,3.67.6c-3.54-3.26-5.1-7.08-7.23-10.95Z"/>
      <path d="M49.43,14.55l2.47.45c-2.22-3.52-4.55-6.78-7.45-9.47l3.11,5.4-3.76-1.19c3.8,2.84,4.36,7.3,6.48,10.87,2.99,5.02,4.21,9.91,3.47,16.55,1.59-4.54,3.22-10.45.43-14.96l-4.74-7.65Z"/>
      <path d="M15.86,15.18c1.39-1.43,2.51-2.69,3.46-4.05-6.63,3.22-11.11,9.44-10.81,16.9.22,5.65,3.22,10.89,7.87,13.84l-2.78-4.84c-4.09-7.11-3.26-16.16,2.26-21.85Z"/>
      <path d="M39.81,48.46c-2.26,2.21-4.02,4.51-7.72,5.35,5.68,1,15.37-10.18,18.06-14.23l-1.6,6.9c2.86-4.97,5.34-10.38,3.23-16.47-1.82,7.96-6.49,13.12-11.96,18.45Z"/>
      <path d="M3.7,26.98c1.29-8.16,5.64-14.37,11.86-19l1.38-4.26-5.09,4.48c-2.46,2.17-4.24,4.43-6.23,7.16l1.15-5.86c-3.63,5.19-4.33,11.41-3.06,17.49Z"/>
    </g>
  </g>
</svg>