<?xml version="1.0" encoding="UTF-8"?>
<svg id="Warstwa_2" data-name="Warstwa 2" xmlns="http://www.w3.org/2000/svg" viewBox="0 0 54.42 53.29">
  <g id="game-icon-v6-elemental-pixarts-store">
    <g id="game-icon-v6-elemental-pixarts-store_391">
      <path d="M24.21,18.39l-1.66,6.85c-9.43,1.79-7.3,3.25-14.93,5.51L0,23.16c1.58-4.37,8.83-3.5,12.04-4.04-2.74-.59-5.12-.2-8.37-.12,1.85-2.94,3.98-5.4,6.17-8.12l4.55-5.66,6.72-1.27,15.93-3.94c-1.63,3.79-2.87,7.7-5.04,10.6-1.63,2.18-5.25.66-6.85-.66l.08,1.37c.03.59-5.01,3.94-9.11,3.12l2.61.93-.84,1.59,7.43-4.54,6.16.45c1.08,2.95-4.63,4.13-7.26,5.52Z"/>
      <path d="M30.06,31.99l1.27,2.44,4.19,1c.16.04.74.75.77.59l.27-1.38-3.97-.9c-1.46-2.61-2.46-5.34-3.29-8.77l6.03-1.59c1.32-.35,2.8,1.98,3.75,3.22l5.84-1.23-5.65-.48c-.96-1.21-2.11-2.19-3.45-3.07l8.3-5.59,10.3,6.46-7.07,8.88c-3.02,3.8-5.49,7.97-8.75,11.55-1.62,1.78-5.04.8-6.93,1.5-5.19,1.91-3.58,3.63-14.03,3.47.75-2.9,2.3-4.98,4.68-7.13,1.77-1.6-2.57-2.86-1.59-5.23l9.33-3.73Z"/>
      <path d="M34.26,49.72c-.48-.72-.63-3.27.2-3.7,1.18-.62,4.09-.67,4.88-1.59l8.9-12.05c1.23,2.36.33,4.18-1.11,5.93-2.77,3.35-5.17,6.51-7.7,10.23l-5.16,1.18Z"/>
      <path d="M32.2,49.91c-6.09,3.49-6.73,3.48-13.99,3.33l-.87-3.7c11.11-.13,5.42.2,14.68-3.22.75.48.99,3.15.19,3.6Z"/>
      <path d="M8.84,35.75l-.41-3.86,7.6-3.38c.44.87.72,3.06.34,4.28l-7.52,2.96Z"/>
      <path d="M18.55,31.33l-.91-3.64,5.67-.81,1.65-6.11c1.88,3.42.05,6.66-.86,9.55l-5.54,1.01Z"/>
      <path d="M49.75,7.07c-2.72,1.26-5.25,2.18-8.16,2.97-.21-2.93,1.56-4.56,3.71-5.92l4.45,2.95Z"/>
      <path d="M7.01,35.03L.89,29.22c-.72-.68-.7-3.12-.59-4.15l5.71,5.43c.9,1.32,1.4,2.76,1,4.53Z"/>
      <path d="M9,44.75l-3.21-3.07,4.22-1.66c1.16-.46,3.79.47,4.88,1.02l-5.9,3.72Z"/>
      <path d="M32.78,17.76c-1.22-5.05,1.56-8.54,3.85-13.91.73,1.82.55,3.74-.2,5.46l-3.66,8.45Z"/>
      <path d="M50.03,34.45c-2.13-3.6,1.53-6.39,4.1-9.37l-.1,4.18-4,5.19Z"/>
      <polygon points="31.86 19.66 26.9 21.84 25.92 18.91 31.26 16.53 31.86 19.66"/>
      <path d="M48.08,12.17l-6.28.51c-.32-.16.25-1.54.69-1.68l6.95-2.31-1.35,3.47Z"/>
      <path d="M9.83,48.5c-2.46-2.57,3.52-5.93,4.98-5.89-1.15,2.77-2.71,3.98-4.98,5.89Z"/>
      <path d="M8.57,48.1c-2.37-.41-3.4-2.8-2.99-5.01,1.68,1.37,2.99,2.57,2.99,5.01Z"/>
    </g>
  </g>
</svg>