<?xml version="1.0" encoding="UTF-8"?>
<svg id="Warstwa_2" data-name="Warstwa 2" xmlns="http://www.w3.org/2000/svg" viewBox="0 0 56.38 56.04">
  <g id="game-icon-v6-elemental-pixarts-store">
    <g id="game-icon-v6-elemental-pixarts-store_562">
      <path d="M53.82,20.91c-1.72,1.57-2.78,3.98-1.64,6.03,2.39-1.77,1.5-3.24,1.64-6.03Z"/>
      <path d="M56.05,30.04c-5.3.98-4.42,6.61-6.89,9.2-.51.53-2.58.35-2.98-.24-1.49-2.17,5.03-5.87,1.4-13-2.68-5.27-4.46-4.98-5.07-10.96-3.89,5.01,1.47,9.63-1.19,14.27-.86,1.49-2.61,2.86-4.74,2.69,8.24-14.94-9.13-16.05-3.44-32.01-4.79,2.75-6.24,8.29-4.94,13.51l1.21,4.9c.29,1.18-.96,2.76-2.01,2.77-.83,0-2.55-.94-2.67-1.98-.2-1.71.23-3.32.55-5.26-8.81,5.55.74,15.49-4.61,16.35-.57.09-1.61-.52-1.95-1.03l-3.66-5.52c-1.53-2.31-.49-4.93-.12-8.14-4.46,3.34-5.37,9.76-2.46,14.6.85,1.42.23,3.49-1.1,4.02l-3.65-5.92c-1-1.62,1.06-4.9-.97-7.19-.51,1.98-.88,3.58-1.6,5.2-2.62,5.87,2.94,7.04,3.1,13.03.05,1.92-.67,3.92-2.76,3.99.29-3.89-.66-7.46-3.97-9.43.62,2.11,1.02,4.39.4,6.56l-1.78,6.29c-1.12,3.95,4.22,10.6,10.65,9.08-1.99-2.28-2.54-5.22-.49-7.57.66,2.79,3.53,4.81,4.2,3.75.91-1.42-1.41-6.08,1.66-11.16.41,1.64.71,2.9,1.25,4.49.46,1.33,2.6,2.38,3.74,1.69.93-3.63-1.76-8.32,2.88-11.85-.11,2.19-1.19,4.9.64,6.3,1.2.91,2.48-1.26,2.5-2.47.07-4.48,1.46-8.7,5.5-11.04-4.37,11.31,6.48,10.44,2,20.66,3.56-1.39,4.79-4.84,4.32-8.85,4.41,3.67,1.33,10.97,4.34,11.53.63.12,2.19-.58,2.37-1.26l1.1-4.12c2.38,2.94,2.59,6.79-.15,10.01,3.96-.08,6.78-2.56,8.3-5.05,4.65-7.62-4.23-12.66,1.08-20.83Z"/>
      <path d="M47.4,18.49c.91-1.3,1.06-3.26.54-5.06l-1.19-4.12c-2.09,2.81-1.48,6.3.65,9.18Z"/>
      <path d="M19.33,10.22l.48,3.69c.98-.73,1.97-2.04,1.91-2.99l-.34-5.36c-1.61,1.23-2.26,2.98-2.04,4.65Z"/>
    </g>
  </g>
</svg>