<?xml version="1.0" encoding="UTF-8"?>
<svg id="Warstwa_2" data-name="Warstwa 2" xmlns="http://www.w3.org/2000/svg" viewBox="0 0 52.85 42.82">
  <g id="game-icon-v6-elemental-pixarts-store">
    <g id="game-icon-v6-elemental-pixarts-store_398">
      <path d="M39.72,38.29c-.42.46-1.74.91-2.25,1.24-1.07,1.24-2.64,2.49-4.34,1.84l.18-3.53c-1.01.93-1.27,2.29-1.6,3.71l-5.7,1.28-10.24-3.86c-.44-2.58,1.1-2.82.46-5.44.63-1.63,2.85-2.7,4.78-3.03,1.22,2.26-2.19,5.13,2.9,7.59,1.87.9,3.02,1,4.91-.25.72-.47,1.72-1.04,2.18-1.55,1.38-1.53-.66-4.2.39-5.58,2.61-.39,4.61,1.62,5.68,3.77.76.29,1.92.63,2.31,1.09.44.51.8,2.22.35,2.72Z"/>
      <path d="M12.71,32.48l-4.85,2.03,1.1,3.66L.02,34.33c.44-1.48,1.08-2.86,1.9-3.79.82,1.22,1.44,1.63,2.73,1.58,4.74-.2,2.76.49,7.18-3.77l-1.87-2.55c.87-1.81,4.59,2.24,7.23.58l2.53-1.59-.39-1.36c-.11-.38-.17-1.15,0-1.46.2-.37,1.29-.45,1.63-.15l2.42,2.16-.94,4.1-1.71-.06c-6.23,3.37-5.06-1.63-8.28.25,1.35.7,2.7,1.41,3.69,2.42.44.45-.73,1.87-1.34,2.31l.31,2.37-1.52,2.81c-.6.24-2.34.33-3.27.19l-1.01-3.1,3.4-2.78Z"/>
      <path d="M52.82,34.29l-5.54,2.64c-1.68.8-3.97,1.55-5.65,1.04-.32-.84-.41-2.52.06-2.97.55-.52,1.63-.5,2.95-.5l-1.58-.88c-.47-.26-1.59.54-2.2.76-1.75.64-3.95-1.64-3.44-3.44l2.96-2.65c-.96-.14-1.62.48-2.53.79-1.97.67-4.5-.61-6.28-1.45l-1.39.5-1.06-4.04,2.74-2.19c.4-.32,1.68-.13,1.8.32l-.44,2.24c2.07,1.92,3.79,3.23,7.01,1.59.27-.14.72-.79.99-.84.33-.06.85.16,1.63.45l-1.65,2.79c3.31,4.26,3.28,3.36,8.55,3.58l1.23-1.72,1.86,3.98Z"/>
      <path d="M26.2,12.15c-.16,3.16-1.12,7.35-2.27,10.2-.21.2-1.07.17-1.26-.05-.25-.27-.57-1.15-.49-1.56L26.3,0l4.12,20.27c.1.48-.13,1.58-.42,1.85s-.99.46-1.58.53l-2.21-10.49Z"/>
      <polygon points="26.23 28.16 25.63 37.45 22.07 35.39 26.26 18.67 30.34 35.35 26.69 37.59 26.23 28.16"/>
      <polygon points="3.91 21.85 6.59 31.07 3.2 30.69 0 11.62 10.25 28.1 7.88 30.48 3.91 21.85"/>
      <path d="M48.47,22.64l-3.63,7.77-2.2-1.97,10.21-16.98-3.3,19.13c-1.11.3-2.18.37-3.4.27.92-3.07,1.74-5.1,2.32-8.22Z"/>
      <path d="M14.41,19.05l.71,6.61c-.86,0-1.88-.31-2.59-.88l-.11-14.81c1.08,2.24,6.44,13.52,5.59,14.46-.35.39-1.15.87-1.73,1.15l-1.87-6.53Z"/>
      <path d="M38.36,19.16l-1.98,6.26c-.63-.05-2.09-1.18-1.83-1.84,1.9-4.84,3.81-9.07,6.01-13.82l-.31,14.79c-.02.92-1.8,1.21-2.62.82l.71-6.22Z"/>
    </g>
  </g>
</svg>