<?xml version="1.0" encoding="UTF-8"?>
<svg id="Warstwa_2" data-name="Warstwa 2" xmlns="http://www.w3.org/2000/svg" viewBox="0 0 42.65 57.98">
  <g id="game-icon-v6-elemental-pixarts-store">
    <g id="game-icon-v6-elemental-pixarts-store_484">
      <path d="M37.2,20.29l-2.19,4.81-9,.71-2.58-4.31.88-3.48.39,3.37c1.43-.45,2.48-.79,3.68-1.37l6.93-3.33,1.54,2.11,2.85-1.53c.18-9.18,2.01-9.44-5.17-13.87l-3.43,3.63c-.78.82.32,3.09.7,4.26-.53,1.39-1.45,3.05-2.27,4.11.15-1.49,1.5-3.11,1.19-4.06l-1.37-4.27c-.99.18-2.28.77-3.8,1.47,1.93-3.6,6.35-.77,6.72-6.73l-3.15-1.61c-6.17-.5-12.25.03-18.4,1.43.9,2.17,1.24,4.04.78,5.9,3.53,3.24,1.57,3.03,4.46,4.92-3.17.13-2.12-2.66-5-3.8l-.57,1.05c-.08.14-.41.09-.42-.07-.07-1.48,2.37-5.52-1.97-7.3-1.6,1.56-3.76,3.77-5.17,5.52-.13,2.94-.12,5.97.01,8.96.04.9,2.43,1.89,3.07,1.76l1.46-1.79,10.51,4.75.56-3.55.67,3.74c-.92,1.53-1.42,2.44-2.1,4.16l-9.36-.91-2.21-4.56c-.33-.67-1.85-1.21-2.82-1.59l-2.63,7.66,7.12,5.15,2.71-.96-1.9,2.34,1.19,5.87,2.79-2.25,2.12,2.84c.96-2.48,1.46-4.37,1.95-6.62l1.36,2.6,9.17-.13,1.51,4.23,2.14-3.47,3.47,3.13c.53-2.11,1.09-4.09.85-6.13-.2-1.61-2.57-2.44-3.51-3.75,1.67.15,2.92,1.17,4.41,2.39,2.51-1.54,4.93-3.23,7.27-5.34l-2.49-7.56c-1,.28-2.63.77-2.96,1.49Z"/>
      <path d="M40.13,40.48l-.72-7.99c-2.77.35-3.4,9.76-3.52,11.99l-6.1-2.93c-.82,1.93-1.28,3.7-1.63,5.65-.2,1.13-2.27,2.73-3.48,2.67-1.77-.07-2.87.46-4.67,1.93.58-2.31,2.73-2.77,4.71-2.68,1.15.05,2.8-2.34,2.44-3.38l-1.79-5.17-10.03.65-1.58,5.71-2-5.12-4.85,2.19-1.18-8.35c-.2-1.42-1.18-2.68-2.35-3.3-1.75,11.68-1.19,5.85.87,14.97l-2.58-4.24c-.51,1.39-1.72,4.3-.76,5.6l4.98,6.71c1.49,1.57,13.61,2.62,15.76,2.58,3.81-.07,7.73-1.02,11.4-1.61-.12-2.31-.16-3.95.05-6.17,1.03.77.96,6.93,2.89,5.87.31-.17.88-.67,1.12-.99l4.81-6.56c0-3.17-.45-6.72-.85-9.68l-.95,1.65Z"/>
      <path d="M27.36,21.89c1.44,1.92,3.49,1.68,5.34.32.6-.45.46-2.26-.16-2.74l-5.19,2.42Z"/>
      <path d="M15.28,21.81l-5.34-2.26c-.25.61-.42,1.86-.14,2.28.86,1.33,4.49,2.15,5.48-.03Z"/>
    </g>
  </g>
</svg>