<?xml version="1.0" encoding="UTF-8"?>
<svg id="Warstwa_2" data-name="Warstwa 2" xmlns="http://www.w3.org/2000/svg" viewBox="0 0 49.49 51.61">
  <g id="game-icon-v6-elemental-pixarts-store">
    <g id="game-icon-v6-elemental-pixarts-store_313">
      <path d="M3.31,5.93l-.64,1.64-.45-1.92c-.09-.39-.81-.4-1.32-.56.23-.44.69-1.05.44-1.15l-1.36-.53,2.02-1.7c.39-.13.89-.22,1.02-.47l.64-1.24.45,1.8c.09.36.76.13,1.48.06l-.57.82c-.14.21.43.27,1.72.55l-1.8,1.06c.2.52.5,1.21.2,1.27l-1.85.36Z"/>
      <path d="M46.68,24.06l-.71-.95c-.2-.26-.93.38-1.58.66l.37-1.68c.09-.43-1.04-.97-1.27-1.13.27-.09,1.52-.3,1.47-.65l-.25-1.87.48.48c.15.16.7.57.79.35l.53-1.3.55,1.2c.13.29.77.37,1.05.48l1.39,1.43-2.81,2.99Z"/>
      <path d="M5.38,33.19l-.79-2.65c-.19-.63-1.6-.94-2.48-1.41.57-.19,2.27-.32,2.47-.96l.86-2.78c.2,2.2.74,3.55,2.86,3.92-.81.42-2.11.66-2.26,1.26l-.66,2.62Z"/>
      <path d="M28.26,24.08c-.38.51-14.6-6.61-12.12-7.09l12.12,7.09Z"/>
      <path d="M31.47,28.35c.71-.32,5.8,13.74,4.73,13.65-2.01-4.66-3.42-8.87-4.73-13.65Z"/>
      <path d="M14.19,17.99l-2.14-.29-.98-2.1c.6-.32,1.49-1.11,2.04-1.92l.69,1.2c.21.36,1.26.42,1.79.57-.73.58-1.06.96-1.4,2.54Z"/>
      <path d="M41.59,6.81l-2.73.08c.19-.53-.19-1.89-.6-2.26.75-.38,1.51-1.02,2.2-1.86l.49,1.17c.16.38,1.18.4,1.9.58l-1.16.81c-.25.18-.11,1.02-.1,1.48Z"/>
      <path d="M38.57,46.24l-.92-.51c-.24-.13-.87.34-1.2.54l-.76-2.24,1.8-1.66c.35.56,1.21,1.23,2.15,1.7l-.93.65c-.24.17-.12.77-.12,1.51Z"/>
      <path d="M45.13,16.69c.43-.01-.03.22-.76.53-1.06-3.1-2.62-5.81-3.15-9.19,1.85,2.94,2.39,5.16,3.91,8.67Z"/>
      <path d="M42.8,22.57c-2.84,1.24-6.06,1.98-9.22,2.34,2.91-1.38,5.7-2.66,9.22-2.34Z"/>
      <path d="M10.97,13.2c-2.47-1.49-4.23-3.92-5.11-6.55,2.14,2,3.76,4.03,5.11,6.55Z"/>
      <path d="M37.5,5.92c-2.97.9-5.99,1.54-9.45,1.77,3.01-1.45,5.93-2,9.45-1.77Z"/>
      <path d="M31.54,27.04l-1.78.03.07-1.01c.02-.27-.68-.62-.92-.77l1.94-1.3,1.53,1.23-.84,1.81Z"/>
      <path d="M23.84,49.91l1.69-1.12c.57.39,1.45.99,1.29,1.41-.25.65-.62,1.39-1.13,1.41-.79.04-1.23-.46-1.85-1.7Z"/>
      <path d="M34.67,46.25c-2.43,1.23-4.01,2.07-6.43,2.76,2.04-1.58,3.8-2.47,6.24-3.7l.19.94Z"/>
      <path d="M27.28,7.42c-.55.91-.96,1.59-1.66,1.72-.68.13-.91-.4-1.34-1.17-.25-.44.56-1.12,1.28-1.57l1.72,1.03Z"/>
      <polygon points="21.78 40.69 20.19 39.19 21.76 37.85 23.78 39.2 21.78 40.69"/>
    </g>
  </g>
</svg>