<?xml version="1.0" encoding="UTF-8"?>
<svg id="Warstwa_2" data-name="Warstwa 2" xmlns="http://www.w3.org/2000/svg" viewBox="0 0 50.23 51.88">
  <g id="game-icon-v6-elemental-pixarts-store">
    <g id="game-icon-v6-elemental-pixarts-store_31">
      <path d="M32.58,15.73c-3.19-4.99-5.54-10.03-7.58-15.73-1.87,6.04-4.32,10.81-7.45,15.74-4.07,6.43-6.58,14.33-.51,20.11,2.81,2.67,7.04,4.16,11.24,2.9,6.46-1.94,9.42-8.22,8.26-14.52-.92-3.02-2.24-5.79-3.97-8.5ZM21.13,35.27c-4.18-2.09-6.2-6.61-4.82-11.09.66-2.15,1.52-4.12,2.85-5.94-1.82,7.56-2.12,13.89,6.54,17.29-1.4.78-3.14.45-4.56-.26Z"/>
      <path d="M39.64,38.31c1.89.82,7.78,2.51,7.05,5.62-.94,3.96-14.73,6.3-18.26,6.66,3.97.43,7.51-.44,11.73-.64l-4.52,1.92c5.08-.58,9.16-2.92,13.41-5.45.65-.39,1.27-1.99,1.18-2.7-.4-3.18-7.7-5.39-10.58-5.41Z"/>
      <path d="M14,49.41c-3.34-.9-6.19-1.79-9-3.62-.65-.66-1.42-1.69-1.39-2.41.14-3.42,6.6-4.54,8.87-5.4-3.25-.54-13.63,2.52-12.38,6.63.65,2.14,2.67,3.34,4.5,4.01l-1.6-2.15c3.66,1.89,7.08,3.19,11,2.94Z"/>
      <path d="M37.71,46.44c-8.52,1.22-16.62,1.44-24.97-.47-1.9-.29-3.36-1.12-5.16-2.06,3.65,5.65,24.63,5.81,30.13,2.53Z"/>
      <path d="M16.16,41.38c-.29.11-.39,1.26,0,1.39,5.53,1.88,12.79,2.41,18.33-.4-.52-.91-1.55-1.42-2.36-1.61l.91.97c1.36,1.45-16.58,2.45-15.71-.79l-1.18.45Z"/>
      <path d="M41.01,43.31l.76-1.17c.61-.93-4.61-3.12-6.11-2.55l3.1,1.16c.35.13.93.95.8,1.28-.87,2.21-8.06,3.12-9.8,3.28,4.18.67,7.82-.3,11.24-1.99Z"/>
      <path d="M14.45,44.16c-1.32-.59-3.58-.79-3.07-2.66,1.72-1.32,4-1.83,5.87-2.28-2.88-.39-5.75.64-8.19,2.35.99,2.15,3.44,2.84,5.39,2.58Z"/>
    </g>
  </g>
</svg>