<?xml version="1.0" encoding="UTF-8"?>
<svg id="Warstwa_2" data-name="Warstwa 2" xmlns="http://www.w3.org/2000/svg" viewBox="0 0 38.84 57.26">
  <g id="game-icon-v6-elemental-pixarts-store">
    <g id="game-icon-v6-elemental-pixarts-store_20">
      <path d="M27.01,29.31c-.47-.36-1.17-1.1-1.56-1.56l1.79.2c.39.04,1.15-.91.89-1.21-.25-.3-1.02-.88-1.38-1.04l-1-.42c-.18-.08.14-.71.28-.64l2.41,1.15c.07-2.52-2.18-3.07-3.75-3.46-.12.61-.27,1.42-.26,1.37-5.62-2.28,1.37,6.88,3.78,8.22-1.48-.14-2.14-.28-3.35.14-1.16-.71-2.74-2.08-3.8-3.28l2.46.81-5.21-8.33c-1.61,2.02-.73,3.88.59,5.79,1.53,2.21,2.74,4.57,4.17,6.98l-2.34.28c-1.46.69-3.25,3.4-2.89,4.91l4.22,5.34c1.46,1.84,4.15,3.9,2.01,6.86-1.53-4.11-3.85-6.98-7.1-8.44.8,2.24,1.05,4.57,1.69,6.93.64,2.36,2.35,4.72.1,7.34-.85-5.17-2.74-9.17-4.81-13.92-1.92-4.41-1.77-10.14-4.69-9.3l1.17-4.24-1.52,1.2c-.28.22-.95-.23-1.49-.62.83-.86,2.03-1.5,3.1-1.14,1.25-1.25,2.21-3.81,1.6-6.05-.79,1.65-1.44,3.21-2.72,4.33l-4.18,3.68-2.31.59c-.49-2.25,3.71-2.16,5.41-5.67l-2.33,1.06c-.91-2.7.05-5.11,3.11-6.54-3.52-.4-6.04-2.53-6.68-6.05C1.75,10.87.98,7.41.08,3.66-.09,2.97,0,1.69.41,1.27,2.75-1.12,11.38,7.48,11.31,11.65l-4.7-5.07c-.37-.4-1.63-.5-2.09-.35-.55.18-1.17,1.7-.9,2.23l1.53,2.99-.9.13c-.31.04-.15,1.42.13,1.64l3.99,3.24-1.52-.6c-.34-.14-1.22-.01-1.55.27,1.12,1.8,2.91,2.55,4.91,3.32.59,1.74-2.41,3.12-2.08,3.51l.72.84c-.68.63-1.32,1.32-.78,2.69,5.14-5.15.47-7.79,6.41-10.71-1.6-.95-2.48-1.86-2.52-3.43-.04-1.43-.03-3.19,1.09-4.01.78-.57,2.33-.85,3.47-1.33.82-.34,1.82-1.29,2.52-1.1.88.24,1.56,1.58,1.45,2.62-.46,4.56-4.86,5.33-4.34,6.92.11.34.81.95,1.2,1.06,3.91,1.07,2.23,5.48,4.61,4.72.23-.07-.17-.66-.35-1.24,3.52-.71,7.23-.07,10.14-3.53-1.07-.59-2.39-.54-4.17-.53,2.13-.46,4.67-1.29,5.76-3.74.21-.47-1.24-.72-1.88-.66.86-.97,2.49-2.79,2.01-4.21-.63-1.91-3.08-1.23-4.42-.51-4.34,2.35-6.97,6.12-10.14,9.84,2-4.06,4.48-7.72,7.78-10.73,2.49-2.29,9.04-6.37,11.5-4.64.39.27.76,1.46.61,1.92l-1.87,5.68-1.86,6.78c-1.03,3.73-4.2,5.09-8.4,5.39,3.52,1.43,5.39,4.13,4.13,7.57-.19.52-.66,1.86-.38,2.31l1.2,1.94-4.61-3.56Z"/>
      <path d="M25.56,41.47c-.47-1.26-1.52-2.07-2.78-2.25,1.84-.5,2.65-1.81,2.8-3.38.08,1.58.87,2.91,2.76,3.38-1.27.06-2.39,1.01-2.78,2.25Z"/>
      <path d="M23.4,5.61c-.55-1.51-1-2.43-2.5-3.04l1.68-.61c.42-.15.53-1.35.8-1.95.33,1.21.83,2.35,1.78,2.79l-1.22.76c-.38.24-.44,1.66-.55,2.05Z"/>
    </g>
  </g>
</svg>