<?xml version="1.0" encoding="UTF-8"?>
<svg id="Warstwa_2" data-name="Warstwa 2" xmlns="http://www.w3.org/2000/svg" viewBox="0 0 40.82 54.98">
  <g id="game-icon-v6-elemental-pixarts-store">
    <g id="game-icon-v6-elemental-pixarts-store_89">
      <path d="M33.97,51.67c3.22-1.09-.72-1.81,1.12-3.85.75.03,1.57-.09,1.92-.46,1.69-1.77-1.11-2.86-1.05-7.67.01-1.13-.9-2.3-1.49-3.32-1.09-1.87-1.83-4.21-3.63-5.5-2.21-1.58-4.91-2.5-7.68-2.79.22,1.89,1.64,3.71,3.3,4.16l3.13.85-2.65.7.9,2.9c-1.93-1.42-1.73-3.55-3.28-3.49-.41.02-1.17.71-1.3,1.1l-.77,2.31c-.18-1.62.05-2.89.57-4.39l-1.92-2.05c3.51-5.56-2.37-10.6,1.6-14.78,2.26-2.38,7.7.93,12.09-4.25,3.18-3.75,3.08-6.79,5.99-11.13-3.73-.06-7.32-.05-10.78.72-4.76,1.05-8.3,5.04-8.26,9.85.01,1.21,0,2.55-.34,3.55l-1.72,5.02c-.67-1.51-1.33-3.25-1.65-4.95C16.48,5.71,6.71,5.22,0,6.41l2.76,4.82c7.49,13.07,13.95,2.79,16.88,10.52,1.55,4.08-.19,9.2-3.4,10.7-1,.46-2.59,1.77-2.47,2.77l.42,3.47c-1.13.32-2.7,1.06-3.15,1.9l-1.68,3.17c-.92-.3,1.66-3.07.5-3.54l-1.52-.62-.21-4.88c-4.59,4.47-2.21,11.64.72,16.14,1.52,2.34,6.64,4.64,8.43,1.72-2.07-.08-6.46-.6-6.4-2.61,0-.28.53-.91.81-1.03l3.95-1.76-.03-3.4c.96-1.61.99-2.69-.35-4.67.76.25,1.51.62,1.87,1.1,1.39,1.86-.87,2.77.09,5.4.47,1.29-.01,2.78-1.29,3.07l-4.4,1.01c.08.67.68,1.76,1.08,1.66l2.06-.54,5.62,1.36,3.81-1.61c-.33.87-.06,2.68.66,2.74l3.24.24c.21.02.67-.85.87-.8l.62.15,3.06-.96.49,3.06c.6-.05,1.52-.71,1.31-1.04l-.78-1.22c-.14-.22-.77-.67-.54-.75l.92-.31ZM24.46,9.68l1.81-3.94-.17,2.84c2.46-1.43,3.93-3.09,4.92-5.51l-.22,2.22,4.46-2.05-1.2,1.35,1.45.3c-2.2.1-3.76.73-5.2,1.99l3.63.71-4.53.36c-1.03.08-2.5,1.37-3.29,2.19l5.06.76-5.88.42-2.94,2.85,2.09-4.49ZM10.23,15.71c1.29-.54,2.5-.7,4.12-.98-.51-.53-1.93-1.54-2.79-1.57l-4.05-.16,3.07-.96-3.85-1.69-.63-1.28c.73.14,1.91.21,2.36.49l3.08,1.89-.51-2.7c1.25,2.08,1.95,3.79,3.93,5.09l-.4-3.21,1.83,4.13,1.54,3.04c-2.15-2.23-4.34-2.37-7.68-2.08ZM27.02,43.67c-.27,2.63-3.5,4.58-5.99,3.65-1.48-.55-2.29-2.83-1.71-4.27.82-2.02,3.81-3.25,5.55-3.2.32,0,.84,1.01,1.13.97l1.33-.16-.31,3ZM30.99,48.45l-.63,1.12c-.14.25-1.24-.09-1.28-.38-.24-1.58.14-4.3,1.28-5.86,1.41,1.73,2.03,3.45,2.42,5.59l-1.78-.48ZM31.65,43.68l-2.37-3.1c.63-.28,1.02-.65,1.46-1.33.74-1.14,3.5-1.12,4.07.44.35.95.57,2.96.39,4.18-.21,1.36-2.95.6-3.55-.19Z"/>
      <path d="M18.03,28.54c-3.72.31-6.62,2.17-8.94,4.72-.25,1.38-.38,3.85.32,5.05.81,1.41,3.74.12,3.51-1.25-.23-1.37-.62-3.35.21-4.09l4.91-4.43Z"/>
    </g>
  </g>
</svg>