<?xml version="1.0" encoding="UTF-8"?>
<svg id="Warstwa_2" data-name="Warstwa 2" xmlns="http://www.w3.org/2000/svg" viewBox="0 0 49.27 50.45">
  <g id="game-icon-v6-elemental-pixarts-store">
    <g id="game-icon-v6-elemental-pixarts-store_543">
      <polygon points="22.05 0 13.16 28.01 23.71 26.08 15.8 50.45 29.19 30.1 37.29 17.88 24.79 19.07 33.86 .06 22.05 0"/>
      <path d="M35.84,2.81c-.47.99-.86,1.95-1.29,3.2,9.05,5.17,13.14,15.31,10.11,24.98-3,9.6-12.22,15.81-22.56,14.77l-1.95,3.09c8,1.59,14.92-.62,20.58-5.54,6.39-5.55,9.41-13.42,8.32-21.91-.99-7.73-5.54-14.63-13.22-18.59Z"/>
      <path d="M13.63,46.66c.6-1.22.96-2.47.97-3.66-7.39-3.9-11.29-11.39-10.85-19.61.39-7.39,5.03-14.57,12.44-17.82,1.98-.87,2.7-2.82,2.43-4.63C8.24,3.42,1.3,12.12.17,21.89c-1.19,10.3,4.06,20.03,13.46,24.77Z"/>
    </g>
  </g>
</svg>