<?xml version="1.0" encoding="UTF-8"?>
<svg id="Warstwa_2" data-name="Warstwa 2" xmlns="http://www.w3.org/2000/svg" viewBox="0 0 48.99 48.39">
  <g id="game-icon-v6-elemental-pixarts-store">
    <g id="game-icon-v6-elemental-pixarts-store_103">
      <path d="M7,43.38c3.07-2.2,5.68-4.84,7.62-8.09,3.01-5.03,5.86-4.28,9.9-7.46.3,2.86-.94,4.89-1.88,7.58,3.17-2.32,4.69-5.48,5.99-8.98l1.87-2.19.48,4.19c.99-3.48,2.06-6.62,4.91-8.98l-.23,2.65c1.49-2.08,2.5-4.32,5.18-5.26l2.54,6.1L48.99,0l-22.27,7.22,6.92,1.76-2.65,3.64.5.75c-3.67,2.91-7.27,4.2-10.08,7.11l4.54-1.19c-1.38,5.24-7.27,4.61-11.36,8.19l5.65-1.03c-6.05,4.19-5.62,5.06-10.22,9.95l1.27-6.31c2.09-10.39,5.42-11.97,12.38-18.54-10.24,3.9-13.93,12.06-16.76,21.26l1.6-.84c-1.69,7-4.8,10.64-8.52,16.41l7-5.01ZM37.26,11.98l-3.17-.02,4.81-1.85,7.36-7.07-3.23,9.6-.3-3.86-3.31,5.6.08-2.41c-2.57,2.34-4.62,4.63-7.59,6.27l5.35-6.26Z"/>
      <path d="M36.52,35.8c-.37,4.54-8.35,9.92-12.72,11.42,5.07-.24,9.76-3.03,13.05-6.91,2.1.49,3.35-6.25,3.69-7.83l-4.02,3.31Z"/>
      <path d="M7.95,47.63c7.77-4.36,11.89-.8,17.69-8.6-6.91,4.21-12.85,2.53-17.69,8.6Z"/>
      <path d="M11.11,12.26c1.17-1.07,2.04-2.51,2.96-4.24-2.34.86-4.25,1.74-6.12,2.74-.1.44-.34,1.12-.56,1.36-2.8,3.05-5.14,6.52-5.54,10.79,1.78-3.45,3.69-6.3,6.44-9.26l2.83-1.39Z"/>
      <path d="M29.22,38.9c5.1-3.23,9.92-8.48,9.4-14.42-1.57,1.63-2.79,3.49-3.72,5.66-1.45,3.39-3.49,6.25-5.68,8.76Z"/>
      <path d="M22.04,8.23c.44-.79,1.02-2.03,1.43-2.99-4.44.75-6.86,4.42-9.15,7.81,2.6-1.94,4.71-3.35,7.72-4.82Z"/>
      <path d="M13.35,40.28c3.58-3.86,4.18-5.31,8.68-9.3-4.69.65-7.1,5.15-8.68,9.3Z"/>
      <path d="M4.52,32l-.22-5.99c-.82,2.27-1.29,4.36-1.68,6.75l-1.44,5.96c1.49-2.09,2.34-4.31,3.34-6.73Z"/>
    </g>
  </g>
</svg>