<?xml version="1.0" encoding="UTF-8"?>
<svg id="Warstwa_2" data-name="Warstwa 2" xmlns="http://www.w3.org/2000/svg" viewBox="0 0 59.86 45.39">
  <g id="game-icon-v6-elemental-pixarts-store">
    <g id="game-icon-v6-elemental-pixarts-store_475">
      <path d="M47.35,15.75l-.37-6.6c-2.08,2.32-3.29,5.07-5.14,7.49l-4.27,5.57-4.26-11.83c-1.26-3.51-2.07-6.6-3.63-10.37l-3.14,8.68c-.75,2.08,3.05,4.35,2.61,5.86l-3.46-3.12-3.77,10.67-2.09-2.9c-1.48,5.69.84,7.71-1.98,11.87l-1.22-1.81,1.42.17c.22.03.34-.87.35-1.12l.18-10.27c-1.5-2.97-3.92-5.86-6.07-8.76l-1.27,15.16L0,10.53c1.24,5.29,2.85,10.01,4.57,14.88,1.34,1.25,2.86,2.71,3.93,3.97-1.23,2.96-1.77,5.49-1.15,8.32,2.38-1.02,4.95-1.91,7.5-2.58l1.63-2.24.21,1.93c3.43-.18,6.6-.26,9.87-.05-3.23.7-18.92,2.15-19.04,5.46-.02.59.79,1.74,1.38,1.99,13.9,6,45.48,2.49,43.07-2.25-1.81-3.54-15.37-4.34-19.64-4.62.47-.54,1.31-.72,2.24-.69l7.69.18c-.39-1.45-.66-2.58-.77-3.7l-.27-2.75,1.25,2.26c.1,1.21.27,3.88,1.57,4.25,2.89.84,5.03,1.41,8.02,2.79,1.22-4.1-.58-4.96-.81-8.84,1.07-1.4,3.39-2.63,3.88-4.18l4.72-14.8c-4.33,4.88-6.72,9.08-11.6,14.46-.4-2.96-.74-5.65-.9-8.57ZM49.03,40.47c-.67.67-1.51,1.2-2.54,1.41-10.47,2.1-20.79,2.12-31.12.37-1.81-.3-3.14-.79-4.86-1.69,8.32-3.62,30.48-3.35,38.53-.09ZM29.74,31.62l-3.95-5.77,3.93-6.36,3.82,6.41-3.79,5.72Z"/>
      <path d="M52.46,29.41c.12.94.62,2.27.95,3.05,1.9-1.28,1.7-3.25,1.15-5.47-.66.43-2.2,1.58-2.1,2.42Z"/>
      <path d="M4.64,27.08c-.42,2.09-.14,4.24,1.38,5.65,1.39-2.58.82-4.4-1.38-5.65Z"/>
      <path d="M26.8,25.64l2.53,3.69c.99-2.82.79-5.2.06-7.65l-2.58,3.96Z"/>
    </g>
  </g>
</svg>