<?xml version="1.0" encoding="UTF-8"?>
<svg id="Warstwa_2" data-name="Warstwa 2" xmlns="http://www.w3.org/2000/svg" viewBox="0 0 38.05 64.05">
  <g id="game-icon-v6-elemental-pixarts-store">
    <g id="game-icon-v6-elemental-pixarts-store_564">
      <g>
        <path d="M16.15,16.94c-.93.07-2.85-1.17-2.78-2.19l.42-5.76c-8.32,8.15,2.25,12.54-1.98,17.59-.43.51-2.11.46-2.54,0-2.26-2.45,1.93-6.64-2.44-9.94.99,6.58-5.22,8.59-.8,14.56,4.18,5.65-1.07,10.91-1.16,9.17l-.08-1.47c-.14-2.59-.09-5.34-2.96-6.34.77,2.81.65,5.26-.69,7.46-3.78,6.2,3.11,7.98,3.34,11.96.02.29-1.01,1.02-1.23.84-.22-.18-.8-.67-.97-.92L.11,48.64c-.51,4.36,2.3,7.78,5.79,9.83l-3.68,2.09c.98,1.06,2.26,1.88,3.61,2.16,8.56,1.74,17.18,1.75,25.75.14,1.79-.34,3.21-.97,4.61-2.45l-4.01-2.01c3.45-1.83,6.36-4.68,5.76-8.86-.82,1.03-1.89,2.89-3.09,3.03-1.28.15-.52-2.23.14-2.72,5.59-4.14.61-6.78,3.06-11.89-3.45,1.48-2.24,5.5-3.96,6.24-4.14-4.41,4.68-6.45,1.25-12.5l-2.32-4.09-.51,5.31c-.05.53-.93,1.55-1.44,1.47-.41-.07-1.37-.65-1.57-1.04-2.24-4.41,5.67-7.69.09-14.51-.78-.95-1.19-2.64-1.74-4.23-2.12,2.67,2.56,8.06-.87,10.27-.73.47-2.62.05-3-.63-2-3.63,4.29-9.55-2.9-16.39-2.11-2-2.78-4.79-1.86-7.87-5.88,5.05-1.18,8.74-.72,14.17.12,1.42-1.25,2.69-2.36,2.77ZM20.31,40.1c1.6-1.19,1.8-2.84,2.3-5.28,5.07,5.09-2.88,9.66,2.74,12.87.21-2.45.66-4.58,1.94-6.08.06,5.99,4.52,7.82,1.86,13.53-.89,1.91-2.87,4.02-5.54,4.53,2.14-2.64,2.58-5.61.6-7.84l-1.75,2.99c-2.52-6.14-4.22-3.78-4.21-10.23-3.09,2.67-3.22,6.5-1.82,10.31-1.86.69-2.67-1.09-3.62-2.79-1.47,2.23-.41,4.73.9,7.36-3.45-.8-5.86-4.48-5.83-8.16.02-2.83,1.28-5.55,2.56-7.95.49,1.82.74,2.95,1.47,4.28-.48-10.92,7.78-6.93,5.12-19.87,3.59,3.11,4.01,7.59,3.29,12.33Z"/>
        <path d="M2.53,30.21c.04-2.83-.39-4.59-1-6.87-1.91,1.95-2.24,5.66,1,6.87Z"/>
      </g>
      <path d="M26.28,11.98c2.42-1.94,1.75-4.55-.26-6.21l.26,6.21Z"/>
    </g>
  </g>
</svg>