<?xml version="1.0" encoding="UTF-8"?>
<svg id="Warstwa_2" data-name="Warstwa 2" xmlns="http://www.w3.org/2000/svg" viewBox="0 0 53.12 55.06">
  <g id="game-icon-v6-elemental-pixarts-store">
    <g id="game-icon-v6-elemental-pixarts-store_530">
      <path d="M14.68,46.7l6.19,2.64c1.21-1.06,1.31-3.78.12-4.84.4-.08,1.36-.05,1.34-.35l-.14-1.83,1.02,2.89c1.21-2.55,2.75-4.96,4.4-7.16-.07-.8-.78-2.14-1.35-3.25l2.89.79c2.3-.28,5.57-2.98,7.62-4.69-1.92-7.36-3.21-9.89-10.04-13.18l-5,6.57c-.55.73-2.57,1.38-3.37,1.81.5.79,1.55,1.59,1.44,2.15l-.36,1.88c-.82-1.4-1.62-2.66-2.48-3.56l-4.83,3.96,1.89,4.59,2.81-.52c.57-.1,1.71,1.37,1.69,1.55-2.79-.37-4.46,1.7-4.87.95l-.72-1.36c-.73-1.37-1.54-2.81-2.34-4.06l-4.47,2.92,2.78,7.18c1.05,2.72,3.41,3.88,5.79,4.89Z"/>
      <path d="M38.4.13c-.27-.44-1.78.33-2.07.78l-9.6,14.71c7.91,4.59,8.87,5.13,11.53,14.04l7.7-3.06c2.26-.9,4.33-1.65,5.92-3.73-4.31-.9-7.92,1.73-11.33.85-1.58-.41,11.12-7.44,11.23-10.22-5.64.24-8.56,4.37-13.93,5.15l9.19-11.27c.68-.83,1.1-2.04.2-3.02-5.17,2.31-10.28,9.65-13.85,10.6l5.18-12.55c.2-.48.1-1.81-.17-2.25Z"/>
      <path d="M18.38,55.06l2.45-3.89-12.06-5.55-4.49-10.19-4.28,3.35c3.6,9.94,8.48,13.17,18.38,16.27Z"/>
      <path d="M21.41,6.14l-2.95,9.06c-.79,2.43-.58,5.9-.04,8.37.44.25,2.17-.37,2.5-.82l4.45-6.16c-4.56-1.64,1.26-7.79-3.97-10.46Z"/>
      <path d="M47.17,34.12l5.94-.69c-2.59-1.06-6.06-1.13-8.55.26l-.94,3.36c-3.25-1.28-5.19.91-7.44,2.7-1.55-.39-3.26-.87-5.18-.56l6.8,3.9c-.48-1.4-.69-2.57-.01-3.1,3.11-2.46,5.36-1.69,7.35.63.64.75,1.49,1.56,2.59,2.45-.5-1.67-2.2-3.32-3.12-4.88-.6-1.02,1.35-3.94,2.56-4.08Z"/>
      <path d="M10.05,11.58l-.62,1.73-3.35-1.19c1.36,1.31,2.76,2.22,4.26,3.22-.03,2.29,1.01,3.87,3.14,5.06l-.65,4.43c1.45-1.24,2.36-3.48,1.99-5.23l-2.64-2.1c-.31-2.12-.58-2.76-1.83-5.23l4.52-.33,1.58-5.52c-3.49-1.04-2.17-3.42-3.01-6.28l-.24,5.2c1.44,1.21,2.29,2.04,1.6,3.59-1.48,3.33-4.24,1.27-4.73,2.64Z"/>
    </g>
  </g>
</svg>