<?xml version="1.0" encoding="UTF-8"?>
<svg id="Warstwa_2" data-name="Warstwa 2" xmlns="http://www.w3.org/2000/svg" viewBox="0 0 70.01 57.04">
  <g id="game-icon-v6-elemental-pixarts-store">
    <g id="game-icon-v6-elemental-pixarts-store_568">
      <path d="M57.31,45.24c-2.05-.34-4.65-1.17-6.63-2.06.02-.86,1.11-1.82,1.85-1.92,10.59-1.35,5.22-2.5,12.59-3.25,2.29-1.58,1.17-5.92-.86-7.71-1.9-1.68-2.36-3.69-2.66-6.47-3.32.83-.96,9.04-5.16,5.79-.38-.3-.45-1.69-.09-2.22,4.61-6.79-4.77-9.32-3.88-15.91-2.18.64-3.1,3.14-2.61,5.47l1.25,5.99c.14.67-.58,2.25-1.21,2.41-.68.17-1.87-.03-2.33-.51-2.25-2.34,3.6-7.12-3.52-11.86.25,1.91.72,4.09-.42,5.22-.87.87-2.97.36-3.45-.51-1.94-3.46,3.24-6.44.94-12.42-.76-1.97-2.84-4.39-5.39-5.29,5.19,13.24-8.19,10.74-3.68,19.66,1.19,2.35,1.63,5.33-1.21,6.8-.23-2.05-.57-4.19-1.8-5.23l-4.29-3.61c-.02,1.94.14,3.49.39,5.31.25,1.86-2,2.88-3.65,2.6-1.15-.19-2.83-1.69-2.78-3.23.11-3.62,3.67-8.52-2.13-11.81,2.94,8.22-6.45,6.6-2.82,13.87.98,1.96,1.33,4.83-.6,6.11-.54.36-1.82.52-2.33.34-1.61-.57,1.9-5.1-2.44-7.67-.02,2.09-.49,4.03-1.91,5.61-1.7,1.9-2.39,4.1-3.45,6.31-.72,1.51-4.15,2.45-2.68,5.07.94,1.69,3.76,2.69,5.92,3.05l8.11,1.36c.55.09,1.8,1.6,1.39,1.87l-1.49.99c-1.31.87-3.12,1.81-2.91,3.51,2.33,1.41,4.98,1.6,7.66,1.45,5.24-.29,2.3,4.79,18.4,4.66,16.5-.13,13.45-4.12,19.97-4.98.58-.08,1.86-.55,1.88-1.06l.07-1.79c.19-4.62,4.98,2.74,10.65-2.12-2.74-4.23-8.31-4.43-12.7-1.84ZM12.86,40.99c-1.83-.19-7.31-.85-7.22-3.17.07-1.76,11.42-6.74,13.14-1.39l-5.27,1.49c1.7,1.87,9.03-2.43,11.23.23,1.41,1.72,2.23,2.39,4.93,3.82-2.87,1.73-7.82,2.66-11.26,1.08-1.85-.85-3.43-1.85-5.55-2.06ZM25.8,50.71l-6.51-1.07c-.38-.06-1.07-1.17-.81-1.44,2.42-2.57,10.73-2.24,13.81.16-1.38,2.44-3.98,2.75-6.49,2.34ZM54.58,49.31c-4.09,3.44-19.46,6.48-22.34,3.62-.31-.31.72-1.75,1.18-1.82l5.95-.99c-1.9-2.24-7.08-1.63-9.54-5.17l5.32-3.33-6.02-2.05c-1.01-.35-1.54-2.28-1.68-3.56-2.58-.69-5.97-.86-7.93-3,3.72-1.98,7.57-1.44,11.36-1.7,4.06-.28,7.46-1.3,11.88.32l-3.34,2.52c.59.58,2.28,1.83,3.16,2.21,2.05-1.94,3.98-3.8,6.79-3.82,3.16-.02,9.56,1,11.82,3.12.2.18-1.04.79-1.33.72-1.3-.32-3.33,1.75-4.52,2.07l-6.96,1.87c-2.54.08-5.39-.67-8.48-1.27l.95-2.16c-1.33.64-2.41,1.37-3.54,2.66,1.98,1.51,3.45,2.13,5.62,2.69,6.6,1.71,1.32,2.87,9.94,4.83.66.15,2.13,1.65,1.7,2.25Z"/>
      <path d="M30.77,10.57c2.35-2.25,1.98-5,.51-6.87-2.07,2.24-2.14,5.12-.51,6.87Z"/>
    </g>
  </g>
</svg>