<?xml version="1.0" encoding="UTF-8"?>
<svg id="Warstwa_2" data-name="Warstwa 2" xmlns="http://www.w3.org/2000/svg" viewBox="0 0 50.82 51.13">
  <g id="game-icon-v6-elemental-pixarts-store">
    <g id="game-icon-v6-elemental-pixarts-store_378">
      <path d="M7.46,43.96c1.5.69,2.38,1.92,3.51,3.43l-.83-3.57c3.13,2.07,6.56,3.03,9.91,2.13-2.72-.41-5.49-.66-7.09-3.17,6.49,1.92,12.85,1.21,17.97-2.17-3.93-.16-7.21-.73-10.18-2.53,10.27,1.91,15.68.99,21.96-7.83-3.22,1.12-6.22,2.23-9.3,1.49,10.59-2.41,14.63-6.45,15.06-17.76-1.13,1.89-2.27,3.84-4.29,4.84,1.55-2.64,3.49-5.08,3.71-8.19.27-3.78-2.44-10.94-6.25-10.64-1.58.12-3.16,2.15-3.86,3.54-1.32,2.6-.57,5.16-.41,8.08-.77-1.71-1.06-3.42-1.42-5.49-3.59,4.99.14,8.26-2.28,13.64-.16-2.6-.23-4.51-1.23-7.23-.74,3.61-3.96,5.03-5.61,7.65-1.66,2.64-1.49,6.42-4.33,8.42l1.86-7.4c-7.23,3.08-10.05,4.29-12.28,12.39-.28-2.2.05-4.29.86-6.79-3.22,2.05-4.79,5.43-5.33,9.64l-1.76-4.15c-.12,2.13.14,4.3.51,6.45-.92-.86-1.91-1.6-2.83-1.96.88,1.37,1.4,2.42,1.86,4.31,3.88-2.68,8.1-4.93,12.69-6.64,11.42-4.24,19.67-10.99,23.44-22.41-1.21,7.57-5.62,13.4-11.37,17.77-9.1,6.9-17.68,6.77-26.4,14.73-1.94,1.77-3.69,3.78-3.76,6.57,2.27-2.7,4.52-5.04,7.46-7.17Z"/>
      <path d="M2.73,28.13c6.41-9.05,13.97-5.7,21.18-12.29,2.46-2.25,4.56-4.95,4.55-8.4-2.4,6.62-7.91,8.89-14.41,10.77-4.41,1.27-11.26,4.71-11.32,9.92Z"/>
      <path d="M33.54,44.03c9.63-1.19,16.7-8.86,17.28-17.92-3.62,8.32-9.61,14.26-17.28,17.92Z"/>
      <path d="M44.87,42.39c-8.23,5.35-10.74,5.36-20.02,7.27,6.57.62,16.41.22,20.02-7.27Z"/>
      <path d="M22.04,11.25l-7.09,2.22c-2.13.67-4.16,1.5-5.51,3.18l6.35-1.85c2.5-.73,4.75-1.61,6.25-3.55Z"/>
    </g>
  </g>
</svg>