<?xml version="1.0" encoding="UTF-8"?>
<svg id="Warstwa_2" data-name="Warstwa 2" xmlns="http://www.w3.org/2000/svg" viewBox="0 0 50.35 44.61">
  <g id="game-icon-v6-elemental-pixarts-store">
    <g id="game-icon-v6-elemental-pixarts-store_185">
      <path d="M35.06,29.89l1.62-6.6c-3.81,1.94-3.96,8.09-10.1,4.95l1.77-2.57c-1.6-.44-3.01.11-4.37,1.4-1.63,1.54-3.92,1.4-6.3,1.72-2.58.35-5.7,3.86-5.59,6.58.07,1.65.88,4.23,1.43,5.65l6.01,3.61c8.36-2.14,5.25-1.01,10.04-6.67l-2.55-.61c2.21-5.57,6.83-2.55,8.03-7.44Z"/>
      <path d="M4.42,23.96l4.15.86,4.7-4.39-1.69-2.54,5.94-8.95-6.79,2.56c-.71.27-2.09.77-2.76.84-.55.06-1.13-.98-1.77-1.64C3.89,11.72.59,13.75.05,16.76c-.43,2.4,2.22,6.75,4.38,7.19Z"/>
      <path d="M25.58,20.24c.72-.07,1.72-.93,2.64-1.78,4.75-4.37.36-1.45,4.96-7.09l-4.61,2.3c-1.38.69-3.31.83-4.74,1.87-.68.5-1.15,2.68-.71,3.41.37.63,1.74,1.35,2.47,1.28Z"/>
      <path d="M37.78,38.4c1.18,2.27,4.7,1.29,5-.42l.83-4.77-4.06,2.28c-.87.49-2.29,1.9-1.77,2.91Z"/>
      <path d="M28.61,4.68c.43.58,2.58.74,3.14.05l3.86-4.73c-2.4.24-4.31.61-6.28,1.47-.77.33-1.22,2.54-.72,3.21Z"/>
      <path d="M40.03,13.76c-.35.33-.39,1.81-.13,2.21.26.4,1.82.63,2.22.34,1.49-1.08,2.46-3,2.55-4.6-1.65.38-3.78,1.24-4.64,2.05Z"/>
      <path d="M50.18,20.2l-1.59.42c-1.66.44-3.3,2.43-2.49,3.7.41.65,2.48.64,2.8.04l1.25-2.36c.19-.36.33-1.87.03-1.8Z"/>
      <path d="M13.09,2.28c0,.47,1.72.82,2.09.54.8-.59,1.89-1.69,2.83-2.76l-4.95.11.02,2.11Z"/>
    </g>
  </g>
</svg>