<?xml version="1.0" encoding="UTF-8"?>
<svg id="Warstwa_2" data-name="Warstwa 2" xmlns="http://www.w3.org/2000/svg" viewBox="0 0 50.32 50.07">
  <g id="game-icon-v6-elemental-pixarts-store">
    <g id="game-icon-v6-elemental-pixarts-store_107">
      <path d="M2.95,17.97l-2.95-1.3c1.41,1.81,3.15,2.35,3.44,4.1-1.18.32-2.07.62-3.01,1.33l5.75-.52c1.01.97,2.27,2.69,2.76,3.84-.95,3.02-3.17-.3-4.49,6.02,3.13-5.3,2.46-1.93,5.11-4.41,1.03,1.9,1.71,4.34.99,6.83-.75,2.62-3.28.75-5.96,4.4-1.72,2.35-3.25.8-4.1,2.28l3.37-.3c1.21,3.77-3.13,3.48-3.68,6.88l3.24-2.75c.85-.72,1.79-1.57,1.75-2.72-.1-2.64,1.63-4.06,4.39-4.42.31,1.65.29,3.32-.5,5.02,3.09-1.23.65-5.25,2.68-5.86,2.05-.62,4.69-.27,6.15,1.14.47.45.79,1.79,1.03,2.35l.53-1.49c1.61,1.32,2.62,2.93,2.47,4.96l-2.2,2.37c-3.16-.21-7.34.86-8.29,4.34l2.28-2.4c1.39-.43,3.13-.67,4.75-.8l-1.15,3.06c1.18.35,1.16-.84,1.76-1.37,5.24-4.61,6.01-6.12,14.42-6.45-.95,3.79-.23,3.59,2.5,5.72-3.57-3.66-1.22-5.83-1.65-5.99l.66.25c2.07.06,3.96.19,5.96.82,2.5.79.85,4.73,2.88,6.01-.39-1.41-.72-2.65-.48-3.31,3.26-.29,5.21,1.61,6.41,4.46.01-5.83-3.53-4.86-5.16-6.27-1.7-1.47-1.83-3.77-2.29-5.83-.75-3.38-.21-7.18,2.36-9.77,3.81,1.71-1.05,4.31.85,7.52.12-1.07.21-2.07.53-2.77l1.31-2.92c1.23,2.68.1,5.71,2.14,7.49l-.54-2.87-.37-5.09,1.72-.33c-4.6-1.12-5.94-3.45-6.61-7.65l2.04.95c-2.05-2.26-3.22-5.51-1.2-7.9.81-.96,2.97-1.2,3.27-2.56.81-3.72-.72-.3,1.99-4.54l-2.67,1.93c.47,2.1-.79,3.04-2.82,3.32.23-1.96.08-4.37,1.33-6.14l2.01-2.84c.91-1.29,1.13-2.56,2.13-3.78-3.7.19-1.99,6.2-10.15,4.45,2.61-3.45,1.65-3.03,5.71-4.29-7.8-.79-2.51,5.96-14.73,3.17L32.57.06c-1.63.47-2.11,2.01-3.16,2.97-3.18,2.95-11.57,4.43-13.35.1C14.84.15,13.18,1.53,9.9.2c.61.98,1.63,1.28,2.73,1.46,1.19.19,2.71,1.86,1.74,2.98-1.03,1.19-3.23.95-4.67.68-2.24-.42-3.86-1.61-5.7-2.69C2.6,1.83,1.46,1.16.24.01c.9,4.59,2.48.76,5.12,7.1.94,2.26.86,4.2.11,6.75-.07.51.15.36.82-.23.26,2.25.44,4.48-1.13,6.65l-2.22-2.32ZM7.61,12.83c.19-.22,1.81-.43,2.15,0,1.08,1.37,1.72,3.23,2.11,5.06l-4.61,1.88c.58-2.6.72-4.35.36-6.93ZM16.9,24.49c1.38-.7,2.75-1.61,4.17-1.97,1.93-.48,4.18,1.57,4.48,3.52.11.76-1.17,1.39-1.87,1.77l-3.47,1.84c.21-2.2-1.15-4.02-3.31-5.16ZM16.14,23.58c-.3-1.7-1.1-3.28-2.34-4.74.71-.45,2.01-1.24,2.89-1.31,1.96-.16,3.87,1.93,3.78,3.66l-4.33,2.38ZM22.89,21.32c1.42-1.14,2.91-3,4.67-3.23,1.58-.21,3.4,1.91,3.86,3.18l-4.55,4.08c-.74-1.65-1.98-3.08-3.98-4.03ZM28.09,28.75l-2.69-.73c2.28-1.29,6.72,2.14,6.96,5.21l-2.77,1.86c-.75.51-1.39,1.14-2.39,2.02-.98-3.97-2.26-4.77-5.88-6.6,1.96-1.27,4.17-1.3,6.77-1.76ZM28.02,26.49c1.14-1.46,2.56-3.06,4.33-3.88,1.48-.68,4.5,1.27,4.5,2.79-1.33,1.98-2.51,3.72-3.63,6.15-.64-2.53-2.5-3.91-5.2-5.07ZM33.78,20.86c.11-2.76,4.71-7.89,7.77-5.81-2.39,2.16-3.09,4.51-3.63,8.31l-4.14-2.5ZM32.76,19.92l-4.09-3.21c1.13-1.42,2.88-3.26,4.86-4.03.99-.38,2.75.58,3.85,1.1-2.1,1.53-3.79,3.36-4.62,6.13ZM27.64,15.93l-3.3-2.28c3.52-2.39,4.33-4.69,8.77-2.33-2.14,1.33-3.9,2.79-5.47,4.6ZM26.55,16.88l-4.63,3.62c-.63-1.51-1.53-2.88-3.06-3.74.99-.74,2.43-1.78,3.77-1.95,1.44-.19,3.09,1.26,3.91,2.07ZM18.08,16.1c-.67-1.65-1.36-2.9-2.49-4.74l3.2-.78,3.26,2.89c-1.82.76-2.94,1.41-3.97,2.63ZM16.79,16.02l-3.66,1.46-1.78-5.02c.42-.27,2.42-.9,3.01-.42,1.13.93,1.7,2.36,2.43,3.97ZM11.31,26.37c-.98-1.91-2.19-3.62-3.65-5.37l4.59-1.84c1.32,1.36,2.56,2.91,2.91,4.8-1.49.74-2.83,1.51-3.85,2.42ZM12.16,33.91c.33-2.08.25-3.89.02-5.97-.18-1.64,2.58-2.81,3.8-2.27,2.15.94,3.46,2.81,2.92,4.86l-6.74,3.39ZM14.09,34.6l3.58-1.82c.91-.46,1.91-1.36,3.07-.83l3.59,1.62c2.09,3.8,2,5.23-.79,8.39-1.68-4.09-4.82-6.97-9.45-7.36ZM25.42,41.87c.26-.51.98-1.79,1.56-2.07,1.63-.76,4.21-.62,5.43.59l-6.99,1.47ZM34.4,40.23c-2.09-.67-3.16-2.86-6.1-2.01,1.33-1.69,2.61-2.31,4.24-3.02l.21-.86c.07-.28,1.06-.34,1.37-.19,2.81,1.34,5.27,4.28,6.56,7.29-1.9-.94-4.24-.55-6.27-1.21ZM39.61,33.5l1.22-.61.42,6.72-1.81-2.58-2.62-3.73-.07,1.09-2.26-1.77c.45-2.78,2.29-5.75,5.34-6.57.89-.24,2.5.97,3.16,1.55l-3.38,5.9ZM43.62,26.18l-2.47-1.28c-3.48-1.79-1.27-6.93,1.02-8.61-.11,3.58.26,6.55,1.45,9.89ZM42.91,13.43c-.77.33-2.3.12-3.57-.25.65-2.66,2.31-5.06,4.87-6.32l-1.3,6.57ZM43.63,5.96c-2.44,1.91-4.6,3.32-5.52,6.6l-3.19-1.15c.95-2.56,3.15-3.6,5.55-4.4l3.15-1.05ZM37,5.33l3.51.45c-2.64.66-4.6,1.74-6.45,4.48l-3.53-1.42c2.05-1.88,3.99-3.02,6.46-3.51ZM33.49,5.13l-4,2.99-3.43-1.35c4.46-2.45,2.27-2.36,7.44-1.64ZM28.52,9.12l-2.98,2.05-2.3,1.67-2.82-2.4,4.44-2.4c.96.06,2.63.65,3.66,1.07ZM24.03,7.21c-1.25,1.05-2.74,1.75-4.55,2.03l-2.2-2.62,6.75.59ZM15.27,6.21l2.97,3.21-3.2.9-2.45-3.51,2.68-.59ZM13.68,10.45l-2.68.74-1.99-4.77c1.93.56,3.68,1.54,4.66,4.04ZM6.23,5.65c1.71,1.31,3.09,2.77,3.53,5.59l-2.08.07c-.38-1.96-.78-3.47-1.44-5.67Z"/>
    </g>
  </g>
</svg>