<?xml version="1.0" encoding="UTF-8"?>
<svg id="Warstwa_2" data-name="Warstwa 2" xmlns="http://www.w3.org/2000/svg" viewBox="0 0 58.96 49.01">
  <g id="game-icon-v6-elemental-pixarts-store">
    <g id="game-icon-v6-elemental-pixarts-store_366">
      <path d="M42.93,9.58c-3.96,2.3-5.36,7.12-3.2,10.92,1.67,2.94,4.85,4.07,7.96,2.89,2.29-.86,3.64-3.3,2.19-5.64.05,1.93-1.06,3.45-2.9,3.81-1.64.32-3.43-.39-4.34-2.07-.79-1.47-.64-3.38.25-4.89.66-1.11,2.34-2.21,3.96-2.37,3.45-.35,6.4,1.88,7.3,4.65,1.07,3.27-.16,6.69-3.25,8.67-2.37,1.51-5.2,1.33-7.95,1.41l-37.19,1.03c6.01,1.65,11.78,2.27,17.83,2.44l22.24.61c4.1.11,7.73-1.34,10.19-4.25,2.46-2.92,3.61-6.75,2.49-10.75-1.86-6.61-9.71-9.88-15.6-6.45Z"/>
      <path d="M36.51,13.32c1.5-3.97.43-8.5-2.97-11.15-3.98-3.11-9.59-2.99-12.67,1.02-1.44,1.88-1.87,4.34-1.14,6.57.56,1.73,2.09,3.63,4.28,4.08,1.47.3,3.18-.06,4.31-.92.88-.67,1.3-2.22,1.07-3.53-.9,1.52-2.22,2.82-3.73,2.64-2.03-.24-3.39-1.66-3.27-3.83.08-1.51,1.04-3.18,2.18-3.83,1.27-.73,3.23-.95,4.75-.32,3.28,1.37,4.3,4.59,3.52,7.6-.71,2.77-3.23,4.63-6.52,4.73-7.08.22-14,1.11-20.58,3.54l21.41-.02c4.43,0,7.93-2.81,9.36-6.6Z"/>
      <path d="M33.86,39.82l1.69,1.47c.15-1.82-1.52-3.38-3.73-2.99-3.37.6-4.61,4.03-3.37,6.94,1.49,3.48,5.55,4.67,9.01,3.07,3.51-1.62,5.18-5.33,4.28-9-.82-3.34-3.99-6.1-7.84-6.12l-20.56-.06c6.65,2.39,13.53,2.88,20.57,3.26,2.39.13,4.32,2.23,4.6,4.1.34,2.28-.81,4.55-3.19,5.28-1.63.5-3.31-.07-4.37-1.43-.68-.89-.78-3.01.2-4.06.42-.45,2.24-.87,2.71-.46Z"/>
      <path d="M0,23.63c7.82,1.64,27.49,3.27,34.06-1.37-11.84,1.54-21.68-.49-34.06,1.37Z"/>
    </g>
  </g>
</svg>