<?xml version="1.0" encoding="UTF-8"?>
<svg id="Warstwa_2" data-name="Warstwa 2" xmlns="http://www.w3.org/2000/svg" viewBox="0 0 73.67 40.61">
  <g id="game-icon-v6-elemental-pixarts-store">
    <g id="game-icon-v6-elemental-pixarts-store_417">
      <g>
        <path d="M34.98,9.59c-1.24-.23-2.23-1.74-3.55-1.74-.41,0-1.25.37-1.64.4l-4.45.45c-1.21.12-2.47-.03-3.84-.48C25.03,3,30.73.02,36.72,0c6.07-.02,11.9,2.88,15.52,8.32-1.34,0-2.28-.49-3.44-.93-1.84,1.4-3.82,2.25-6.15,2.28-2.5.04-5.09.4-7.68-.09Z"/>
        <path d="M58.01,7.46c.92-.99-4.78-2.27-5.41-2.38-.78-.14-1.41-.44-1.89-1.11,1.91.22,8.32.92,8.39,3.27.07,2.17-5.31,3.19-7.09,3.46-10.16,1.55-20.39,1.63-30.52-.07-1.75-.29-6.99-1.33-6.99-3.39,0-2.27,6.83-3.13,8.4-3.17-.95,1.59-5.59,1.01-7.53,3.34,1.81,1.08,3.59,1.6,5.55,1.92,8.03,1.29,16.1,1.51,24.17.85l3.7-1.98,1.62.64c-1.31.25-2.66-.13-3.37,1.23,2.52-.17,9.5-1.06,10.95-2.61Z"/>
        <path d="M48.07,13.26c-2.62.28-3.15.98-5.44-.58l6.82-.6-1.38,1.18Z"/>
        <path d="M28.47,9.54c-.41-.02-1.03-.28-1.13-.4l3.69-.65c.83-.15,2,.55,2.71,1.27l-5.27-.22Z"/>
        <g>
          <path d="M54.14,11.41c1.97,4.02,2.53,8.31,1.57,12.71-4.67,1-4.36.72-8.72-.15-1.7,1.25-3.48,1.84-5.56,1.89-4.94.11-9.75.18-14.64-.62-1.7-.28-3.21-1.76-4.76-2.36-1.32.12-4.33,1.36-4.47-1.09-.21-3.73.38-7.27,2.05-10.55,5.28,1.11,4.61.25,9.31,2.93l2.33-1.23,7.14-.19c2.22-.06,4.2.38,5.99,1.86l3.66-.71,2.61-1.89c.93-.67,2.18-.41,3.5-.62Z"/>
          <path d="M30.36,12.58c-1.35,1.39-1.7.67-3.5-.28l3.5.28Z"/>
        </g>
      </g>
      <g>
        <path d="M71.74,16.52c-.13,1.63.12,2.78,1,3.79,1.44,1.67,1.16,3.87-.54,5.27-.78.64-1.36,1.36-1.86,2.32l-1.8,1.03-.48,2.42-4.1,1.98c-1.6-1.27-3.56-1.35-5.3-.38-.65-.61-1.45-1.28-2.13-1.62-4.97.81-9.63,1.18-14.52,1.55,2.73,1.72,2.13,1.31,4.82.95l-2.31,1.07-4.82-2.07c-6.69.23-13.13-.23-19.75-1.1l-5.61,1.83c-2.21-1.04-2.78-2.1-5.25-.82l-1.76-2.36c-.86-.3-1.85-.32-2.2-1.27l2.7.86,1.44,1.94c1.74-.67,3.44-.57,4.9.9l3.77-1.31c-4.33-.96-8.54-1.77-12.69-3.49l-.54-.22c-.11-.04-.22.39-.28.53C3.02,26.42-.05,25.52,0,22.6c.03-1.49,1.11-2.26,2-3.26,1.04-1.16,1.57-3.05,2.01-4.59,1.26-.2,2.41-.43,3.69-.86l2.05.82c1.33-.07,2.44-.76,3.54-1.56l2.57.82c-.92-.07-1.7-.2-2.61-.37-.88.74-2.21,1.63-3.45,1.64-.47,0-1.47-.7-1.94-.57l-3.31.91-.64,2.68c4.16-1.81,8.07-2.71,12.35-3.36.06.81-.36,1.25-1.09,1.4-4.12.87-8.02,1.96-11.69,4.04-.78.44-2.13,1.64-1.71,2.67,1.07,2.61,4.24,3.59,6.56,2.42l2.82.66,1.67,2.25c1.58.43,3.05.81,4.73,1.04,12.92,1.8,25.9,1.93,38.81-.05,3.59-.55,14.03-2.63,15.57-6.12.48-1.1-.78-2.54-1.74-2.45l-2.61.24-1.16-2.39c-2.73-1.09-5.46-1.81-8.42-2.41-.43-.09-.68-.73-.67-1.41l7.92,1.64-1.36-1.83-3.05-.21-2.55.11c.68-.25,1.64-.59,2.35-.6l3.51-.05c.52.58,1.27,1.83,1.91,2.04,1.35.43,2.43.11,3.58-.6l2.1,1.22ZM71.21,18.98c.25-1.41-.4-3.01-1.8-2.7l-2.61.58,4.41,2.12ZM69.85,20.21c-1.08-.62-1.64-.9-2.46-1.24.14.72.45,1.53.85,1.53.45,0,1.09-.13,1.61-.28ZM10.89,26.67c-1.48-.35-2.66-.61-4.12-.09,1.74.74,3.13,1.19,5,1.62l-.88-1.53ZM64.14,32.34l3.16-1.73c.19-.72.37-1.49.86-2.4-3.3,1.14-6.81,2.07-10.59,2.94,2.46,2.36,1.7-.98,6.57,1.19Z"/>
        <path d="M43.22,35.44c2.46,1.48,3.3-1.5,7.65-1.25-7.72,8.71-20.85,8.55-28.37-.43,5.88.51,11.38.6,17.15.58,1.16,0,2.44.67,3.57,1.1Z"/>
        <path d="M62.57,21.63c.33-1.76-6.19-2.18-4.67-3.91,1.92.47,5.91,1.69,5.86,3.92-.1,4.59-16.12,6-19.48,6.38-1.23.14-2.48,1.1-3.68,1.39-1.87.46-3.65-.87-5.46-1.03l-11.11-.98c-2.55-.22-14.34-2.23-14.1-6.03.13-2.05,4.15-3.21,5.88-3.65,1.2,1.91-4.32,1.88-4.71,3.7-.29,1.3,4.37,3,6.26,3.06,4.35.14,4.06-1.54,6.13.47-1.55-.17-2.82-.56-3.9.32,12.2,2.05,24.36,1.92,36.3-.43,1.56-.31,6.39-1.64,6.68-3.22ZM41.94,28.22l-4.37-.02c1.47.64,3,.78,4.37.02Z"/>
      </g>
    </g>
  </g>
</svg>