<?xml version="1.0" encoding="UTF-8"?>
<svg id="Warstwa_2" data-name="Warstwa 2" xmlns="http://www.w3.org/2000/svg" viewBox="0 0 58.65 59.7">
  <g id="game-icon-v6-elemental-pixarts-store">
    <g id="game-icon-v6-elemental-pixarts-store_436">
      <polygon points="17.5 59.7 26.52 34.46 14.25 34.21 40.17 0 30.67 25.62 43.33 25.69 17.5 59.7"/>
      <polygon points="47.42 51.22 41.5 45.59 39.97 47.72 36.96 40.93 39.95 43.8 41.54 41.95 47.42 51.22"/>
      <polygon points="50.56 34.3 43.45 31.88 48.08 31.76 47.7 29.34 58.65 31.46 50.59 31.68 50.56 34.3"/>
      <path d="M47.12,19.75l-6.87,2.1,3.52-2.79-2.02-1.73,8.71-3.95c-1.85,1.86-3.25,2.96-5.02,4.37l1.68,1.99Z"/>
      <path d="M15.19,42.87l-8.91,4.11,5.64-4.77-1.89-1.72c2.44-1,4.11-1.65,6.8-2.34l-3.45,2.76,1.81,1.96Z"/>
      <polygon points="9.07 30.78 0 29.14 6.62 28.32 6.27 25.88 13.59 28.12 9 28.52 9.07 30.78"/>
      <path d="M19.54,18.44l-2.83-2.44-1.51,2.1c-2.02-2.69-3.84-5.17-5.59-8.36l5.44,4.85,1.81-2.11,2.67,5.96Z"/>
    </g>
  </g>
</svg>