<?xml version="1.0" encoding="UTF-8"?>
<svg id="Warstwa_2" data-name="Warstwa 2" xmlns="http://www.w3.org/2000/svg" viewBox="0 0 63.78 66.8">
  <g id="game-icon-v6-elemental-pixarts-store">
    <g id="game-icon-v6-elemental-pixarts-store_14">
      <path d="M34.77,53.6c.4-1.06-2.2,11.25-3.09,13.2-3.04-6.29.96-4.68-2.7-11.68-.5-.95-.82-2.84-1.27-4.08-1.08-.74-3.55.59-3.32,1.91.26,1.5.31,2.49-.24,3.57l-.82-4.87,3.09-2.43-1.47-5.44c-1.88,1.43-3.62,3.54-4.99,5.81l-6.11.63-.69,8.05-6.5,1.34-5.02,5.01,3.45-6.35,6.12-1.54.46-8.26c1.07-1.4,3.83-1.43,6.11-.92l5.4-7.57c-.18-1.02-1.33-2.74-1.9-2.93-3.77,3.5-2.97-.31-5.58,4.34-.29-6.02,4.37-1.04,4.83-6.85l-4.48,1.66-4.83-4.56-5.04,4.26c-1.93-.23-4.24-.86-6.18-1.62,1.93-.21,3.52-.04,5.5.17l5.77-5.25,4.98,4.12c1.26-.28,3.43-1.59,4.02-2.72.42-.8-.34-3.07-.81-3.6-1.16-.53-2.26-1.01-3.02-1.74l4.12,1.18,1.12,3.29c1.11-.7,2.18-2.02,2.31-3.21.45-4.29-3.61-4.13-5.31-8.29-1.42-.53-4-.76-6.06-1.02l.26-6.53c-2.27-1.02-4.2-2.42-5.13-4.65,2.06,1.65,3.67,2.72,6.26,3.7l.36,5.97,5.83.43c-1.13-2.39-1.18-3.46-.95-5.43l-.09-3.31,1.2,2.68c.22.5-.39,1.79-.64,2.4l2.15,6.11c.36.84,2.39,1.54,3.29,1.83l1.06-5.86,1.65,2.01c1.77-6.07-.28-4.93,3.22-12.18l.81-4.35c1.02,3.89,1.37,7.47,1.81,11.72l2.7,4.69c3.6-2.87,2.05-2.49,2.2-6.15.79.88,1.36,2.98,1.03,4.34-.28,1.16-2.24,2.51-2.92,3.78-.6,1.75,1.45,3.99,2.48,5.54,1.47-1.76,2.35-3.06,3.65-5.09l6.25-.28.62-8.7,7.02-1.44,5.95-6.34c-1.45,2.9-3.15,5.62-4.92,8.13l-6.13,1.31c-.24,2.97-.13,4.88.52,8.29,1.26-.94,2.7-2.21,3.7-3.11.64-.58,2.53.06,3.24.46-6.22.49-1.81,4.33-14.28,3.91l-4.49,7.1,1.74,3.27,4.52-2.4,2.4-3.74,4.01.21c-1.37.47-3.42.74-4.17,1.42-2.76,6-5.05,2.45-6.16,6.34l5.12-2.12,5.04,4.81,5.46-4.08,5.45,1.57-5,.13c-1.95,1.44-3.73,3.02-5.74,4.83l-5.41-4.31-5.19,2.74.88,3.6c1.62.34,3.18.78,3.43,2.28-3.78-2.87-2.88.57-4.87-2.95-.13,0-1.57.94-1.78,1.46-.72,1.76.81,4.95,3.26,5.31l1.32,3.25,5.73.6.13,6.87c2.14.65,3.83,1.57,4.45,3.39l-5.82-2.85-.38-5.9-5.93-.49.24,2.09-1.62-4.5c-.28-.79-2.14-1.35-3.13-1.42l-1.19,6.03-.91-3.93-1.47,3.91ZM32.33,59.38l1.6-6.4c.76-3.03,1.65-5.27,3.26-7.95.13-2.26-.52-5.46.71-7.48l3.58-3.12c-2.01-1.8-2.56-2.78-3.34-4.86l-2.69-3.19c.61-1.66,1.1-3.14,0-4.28-3.39-3.51.41-3.79-2.77-8.69l-1.27-5.63c-2.1,2.94-.98,14.03-4.04,10.88-.78,2.06-.61,4.67-.29,7.04-3.51,3.1.03,3.28-3.26,5.88-.43.34-1.01.9-.94,1.26.34,1.64,4.89,4.9,4.85,8.94-.02,1.47-1.22,3.31.05,4.48,4.65,4.32.1,2.36,3.03,9.44l1.52,3.67Z"/>
    </g>
  </g>
</svg>