<?xml version="1.0" encoding="UTF-8"?>
<svg id="Warstwa_2" data-name="Warstwa 2" xmlns="http://www.w3.org/2000/svg" viewBox="0 0 57.94 57.61">
  <g id="game-icon-v6-elemental-pixarts-store">
    <g id="game-icon-v6-elemental-pixarts-store_229">
      <path d="M23.62,18.37c-.28,6.5-.28,13.21-.23,19.5,0,.38.96,1.02,1.26.89.3-.13,1.13-.77,1.13-1.21l.18-15.15,7.16,3.53-5.73,5,7.13,7.05,1.87-1.53-5.52-5.59,6.45-5.27-13.7-7.22Z"/>
      <path d="M45.92,11.68c.32,4.32-.31,17.92-3.22,20.81l-11.45,11.38c.81.31,2.25.22,2.74-.27l10.71-10.61c2.85-7.46,3.37-14.98,2.89-22.9l-6.58.11c1.1,2.12,2.7,1.37,4.9,1.48Z"/>
      <path d="M12.05,14.38l.25-2.81c6.56.97,13.86-.04,19.74,3.13,4.73,2.82,7.43,8.14,11.87,11.29.24-.19.34-1.78-.1-2.24l-8.29-8.63c-1.16-1.21-2.83-2.47-4.39-2.87-6.94-1.75-13.46-2.15-20.67-2.2l.03,7.05c1.17-.59,1.47-1.46,1.58-2.74Z"/>
      <path d="M27.25,43.84c-1.85-.65-3.52-2.76-4.89-4.15l-8.24-8.33c-.3.67-.3,1.98.17,2.47l8.25,8.5c1.95,2.01,4.16,3.35,6.98,3.93,6.08,1.26,11.99,1.48,18.13,1.25l-.1-7.12c-2.25,1.5-1.51,3.07-1.64,5.33-6.29.23-12.59.27-18.68-1.88Z"/>
      <path d="M12.02,45.43v-1.61c.01-6.32.62-12.24,2.54-18.17l11.8-11.7c-.77-.25-2.3-.12-2.77.35l-10.55,10.55c-2.52,7.52-2.9,14.78-2.56,22.7h7.08c-.5-2.68-5.54-.95-5.54-2.12Z"/>
      <path d="M55.31,28.87l-16.18,15.95c.79.44,2.09.3,2.74-.33l16.07-15.63-9.22-9.02c-.39,1.43.25,2.54,1.16,3.47l5.43,5.56Z"/>
      <path d="M29.15,2.41l15.58,15.9c.51-.95.25-2.3-.52-3.06L29.01,0l-9.09,8.89c1.34,3.13,7.14-5.71,9.23-6.49Z"/>
      <path d="M13.54,40.05c-.16,1.09.24,2.22.95,2.94l14.44,14.63,8.25-8.08c.25-.25.83-.85.58-.98l-.72-.39c-.16-.09-1.02.28-1.16.41l-6.93,6.63-8.14-8.22c-2.41-2.44-4.68-4.68-7.27-6.93Z"/>
      <path d="M8.88,35.19l-6.34-6.43,15.97-15.73c-.58-.34-2.19-.22-2.78.37L0,28.82l9.3,8.94c.44-.92.21-1.94-.42-2.58Z"/>
      <path d="M27.83,7.16l-.93-.15.67,2.19c1.15-.51,1.49-.75,1.76-.57l1.19.8-.11-3.46c-.06-.87-2.93-.71-2.86.2.02.2.67.94.83,1.05.11.08-.43-.04-.56-.06Z"/>
      <path d="M29.23,53.03l1.6-1.69-.53-1.83c-.14-.48-.83-1.35-1.01-1.64l-1.68,1.75.54.92c.11.19-.25.52-.55.93l1.64,1.56Z"/>
      <path d="M16.13,18.99c-.45.1-.54-.14-2.26-.63l1.9,2.29c1.78-3.32,5.71-3.8,3.91-6.04-.27.74-.25,1.3-.59,1.32l-1.45.09c-.23.01-1.14.28-.97.43l.82.7c.42.36-.72,1.69-1.35,1.83Z"/>
      <path d="M49.31,28.79l-.68,1.28,1.69-.27c.31-.05.61.47,1.04.95.13.14.88-.63.73-.94l-.65-1.36c-.08-.18.57-.57.63-.75.06-.18-.1-.76-.29-.7l-.97.3-2.5.19c.47.56,1.13,1.04.99,1.3Z"/>
      <path d="M11.25,20.51c-.66,2.42-.54,4.74-.18,6.92,1.15-2.13,1.81-4.68.18-6.92Z"/>
      <path d="M39.6,14.74l-1.33,2.21h1.68c.39-.01.46,1.49.75,1.75.23.2,1.3.45,1.32.76l.1,1.25c.75-.72,1.48-1.36,1.17-1.48l-1.5-.55-2.18-3.94Z"/>
      <path d="M5.69,27.54c.72.88,1.33,1.38,1.41,1.76.06.3.05.59.12,1.52l1.32-1.39.91.35c.2.08.43-1.23.26-1.36-.85-.62-2.99-1.12-4.01-.88Z"/>
    </g>
  </g>
</svg>