<?xml version="1.0" encoding="UTF-8"?>
<svg id="Warstwa_2" data-name="Warstwa 2" xmlns="http://www.w3.org/2000/svg" viewBox="0 0 56.86 56.14">
  <g id="game-icon-v6-elemental-pixarts-store">
    <g id="game-icon-v6-elemental-pixarts-store_288">
      <path d="M0,55.87c3.88-2.39-.75-4.49,2.4-6,1.71-.82,6.03-2.54,5.8-4.56-.23-2.07-3.57-3.17-2.13-7.4.56-1.64,2.53-2.58,4.69-3.08-1.58-3.17-.6-6.91,2.93-8.27,1.69-.65,3.73-.35,5.75-.08-3.9-4.18-3.68-10.02.06-14.04,3.78-4.05,10.11-4.18,13.89-.27,1.15-1.11,2.42-1.74,3.73-2.35.18-.72.41-2.54.76-3.33.61-1.37,4.24-2.56,5.91-.61,1.61,1.88.07,4.34.75,4.35h1.24c.59.02-.94-2.88.36-4.73,1.82-2.59,4.32.35,5.78-3.63.56-1.52,3.18-2.38,4.91-1.56l-2.81,1.7c1.3,4.82-3.09,4.24-3.75,6.24-.67,2.03,3.98,2.6,2.54,7.44-.48,1.59-2.63,2.89-4.41,3.76,1.21,1.81,2.2,3.97,1.22,6.11-.74,1.6-2.54,2.64-5.18,3.06,3.25,3.8,3.25,9.05-.23,12.72-1.9,2-4.41,3.24-7.01,3.15-2.86-.1-5.02-1.56-7.34-3.92l-2.37,4.61c-1.02,1.98-3.77,3.06-5.69,3.02-2.52-.05-4.51-1.4-5.72-3.98l-2.96,1.26c.68,2.33.4,4.77-2.07,5.46l-3.01-.27c-1.7,4.62-4.38.55-5.13,3.65-.37,1.53-1.72,2.24-2.94,1.53ZM23.95,20.21c.67-.95,1.49-1.74,2.03-2.07-.62-.34-1.6-1.4-1.91-2.11-.36.6-1.46,1.67-2.24,2.19.71.23,1.88,1.38,2.11,2ZM32.84,29.23c.43-1.51.63-2.93,1.2-3.46s2.28-.73,3.27-.9l-3.45-1.17-1.01-3.68-1.01,3.63-3.38,1.23c.98.24,3,.41,3.34,1.16.37.82.74,2.19,1.05,3.19Z"/>
    </g>
  </g>
</svg>