<?xml version="1.0" encoding="UTF-8"?>
<svg id="Warstwa_2" data-name="Warstwa 2" xmlns="http://www.w3.org/2000/svg" viewBox="0 0 51.88 52.02">
  <g id="game-icon-v6-elemental-pixarts-store">
    <g id="game-icon-v6-elemental-pixarts-store_434">
      <polygon points="21.71 45.14 25.52 29.03 14.94 29.37 29.49 7.46 25.85 23.32 36.52 22.92 21.71 45.14"/>
      <path d="M44.83,12.21l-1.78,2.84-8.3-.58-.25,5.12-5.54,1.22c.54-2.03,1.9-1.98,3.44-2.72l.92-4.07c2-1.89,3.74-3.88,5.39-6.02l-1.61-3.95c2.15-1.3,3.97-2.34,6.4-3.03l-4.26,3.15c-.36.82.54,2.66,1.1,3.76l-3.66,4.89,5.53.92,1.98-2.63,3.64.65,4.06-3.4-3.56,4.67-3.5-.82Z"/>
      <path d="M11.94,44.62l3.04-4.96-6.8-.75-2.94,4.48c-1.99-1.12-3.13-.68-5.24.36.86-1.75,2.74-2.42,4.74-1.5l2.64-4.54,9.2.29.28-5.13,5.72-1.59c-.39,1.84-1.59,2.2-3.17,2.96l-1.42,4.34c-1.91,1.8-3.38,3.41-4.86,5.52l1.91,3.21c-.41,1.14-1.66,2.79-2.82,3.8l1.42-3.69-1.71-2.79Z"/>
      <path d="M12.62,14.4l-.72-6.63-5.81.24L2.93,1.52c1.69,1.35,2.92,2.92,4.03,5.18l5.01-.16.28-2c.09-.67,3.4-1.02,3.61-1.67.18-.55.14-1.53.23-2.87.6.37,1.22,2.7.44,3.21l-3.03,1.96.12,7.78,5.08.93c.66.99.82,3.28.4,4.35-.54-.87-1.12-2.78-1.9-2.93l-4.59-.89Z"/>
      <path d="M43.78,45.32c-2.58-.66-3.18,1.48-5.93-.69-.24.17-2.12,1.69-2.02,2.43l.67,4.95c-.92-1.5-1.76-3.9-1.81-5.8,2.32-2.1,3.5-4.47,1.7-7.23l-5.21-1.28c-.08-.89.22-2.32.56-3.07.9,1.47,1.75,2.33,3.23,2.54,4.94.72,2.7,3.89,4.8,7.19l5.02-.49c1,2.93,2.3,4.85,4.11,7.72-2.05-1.62-3.71-3.74-5.12-6.28Z"/>
      <path d="M50.74,37.39c-3.05-2.46-6.09.53-6.61-1.28l-1.5-5.19c-1.42-.03-3.1.38-4.78.91l-2.98-1.91.47-1.1c.53-1.25,2.18,1.8,3.7-.06l4.26-5.2,2.98,1.47c.47.23,1.56-.35,2.21-.55-.08.31-.71,1.25-1.07,1.44-.36.19-1.05-.09-1.65-.28l-2.22-.71-2.85,4.13c1.26.46,2.61.95,3.33,1.42.35,1.66.82,3.94,1.17,4.92,1.49-.12,2.82-.24,3.71-.23.75,0,1.48,1.44,1.82,2.2Z"/>
      <path d="M6.86,29.13c-2.54-1.84-4.02-.53-6.32.95.41-.83,1.2-2.04,2.07-2.62.82-.55,2.94.18,4.05.38l2.48-3.83c-4.64-.59-2.25-1.81-4.63-4.7-1.87.56-3.42.51-4.12-.98,1.77.39,2.87.36,4.93-.21l2.07,4.37c1.23.35,3.08-.32,4.55-1.19l3.38,2.16c.33.21-.41,1.67-.78,1.58-1.82-.44-1.82-1.55-2.89-1.37-.38.06-1.38.67-1.65,1.04l-3.16,4.43Z"/>
      <path d="M26.64,51.16c-1.16-1.92-.38-4.23,1.48-5.11.26-.13.98-.65.87-.85l-.71-1.21c-.27-.46-1.11-1.46-.96-1.94.17-.56.64-1.48.94-2.02l1.99,5.92c-2.56.93-3.87,2.12-3.61,5.2Z"/>
      <path d="M23.71,12.18l-1.82-6.34c.79-.56,2.21-1.37,3.42-1.99l1.31-3c.14.62-.11,2.73-.82,3.28l-2.87,2.24c1.81,2.01,1.88,3.96.78,5.81Z"/>
    </g>
  </g>
</svg>