<?xml version="1.0" encoding="UTF-8"?>
<svg id="Warstwa_2" data-name="Warstwa 2" xmlns="http://www.w3.org/2000/svg" viewBox="0 0 43.23 58.52">
  <g id="game-icon-v6-elemental-pixarts-store">
    <g id="game-icon-v6-elemental-pixarts-store_160">
      <path d="M32.73,29.06c-1.86-3.27-4.6-5.49-8.12-6.72-.71.73-1.54,2.08-1.81,3.08,2.98,4.03,7.23,4.18,8.11,8.42l-2.26-2.27c-.47.35-.99.94-1.12.69-.13-.25-.62-1.31-.83-1.49l-4.31-3.85c-2.08,8.74,6.6,9.22,7.85,14.16l-2.57-2.43-.36,3.19c-.42-1.17-.82-3.4-1.63-4.18l-3.46-3.34c-1.19,9.8,2.83,7.4,3.84,13.02-1.06-1.57-1.97-2.7-3.86-4.49l-.15,6.06c-.05,1.97-.2,3.84-.42,5.78l-.53-5.87-2.03,1.79c2.3-3.19,2.52-6.24,1.69-9.59-2.61,1.65-3.58,4.12-4.27,7.01-.6-3.84,1.97-6.22,4.25-8.98.46-1.97.33-4.62.07-7.04-3.99,3.48-3.62,2.47-5.25,7.36l-.44-1.92-1.6,1.22c1.38-5.11,8.76-6.6,7.27-12.09-2.48,1.85-4.86,3.39-7.53,4.79.9-2.64,7.13-4.04,6.53-6.55-.21-.87-1.41-2.38-2.32-2.42-2.61,1.48-8.16,5.09-7.24,8.54-.99,1.94-1.75,5.22-1.46,7.72l1.69-.31c-.33,2.87-.11,5.5.92,8.29l1.44-1.05,2.43,6.49c.75-.47,1.01-.64,1-.63,0,0,.31.47.39.58l4.72,6.47c2.12-2.8,3.58-4.96,4.97-7.35,1.38,2.6,3.34-5.05,3.22-5.7l1.74,1.23c1.1-2.87,1.34-5.42,1.15-8.27l1.42-.04c.2-3.3-.42-6.15-2.38-8.46l1.23-.87Z"/>
      <path d="M21.18,24.19c3.04-1.12,3.37-5.61,2.43-5.72l-.92-.11c.35,1.06.46,2.61-.37,2.93-.55.21-1.68-.05-2.51-.4-.64-.27-.31-1.81.37-2.41.45-.4,1.18-.42,2.29-.48l.51-4.88c.08-.8-2.25-1.34-2.69-.75-1.36,1.8.92,4.32-.1,5.25l-1.61,1.47c-.34,1.89.97,3.88,2.59,5.1Z"/>
      <path d="M31.62,9.9l-5.82,3c-.62.32-1.38.84-1.71,1.22-.26.3.06,1.42.29,1.8l5.32-4.24c.11.42.17.72.12.9l-.37,1.19,6.3-3.82-1.47-.62c1.64-.47,3.15-1.37,4.54-2.68-3.24-.51-4.91,2.06-7.2,3.24Z"/>
      <path d="M1.37.16C1.21.01-.08-.08,0,.1c.09.2.36.97.48,1.17l2.47,4.25c.4.69,1.64,1.25,2.3,1.37.69,1.41,2.12,3.45,3.56,3.98C7.82,6.71,4.05,2.6,1.37.16Z"/>
      <path d="M36.33,6.34c2.34.48,5.03-1.76,5.07-3.7L43.23,0l-2.26.06c-.69.02-2.15,4.3-4.65,6.28Z"/>
      <path d="M17.9,13.5l-4-2.28-.88.86-4-3.98c-.33,3.64,2.63,5.45,5.45,6.41l-1.25-2.44c1.6,1.44,3.17,2.9,5.07,3.86.83-.46.33-2.01-.39-2.42Z"/>
    </g>
  </g>
</svg>