<?xml version="1.0" encoding="UTF-8"?>
<svg id="Warstwa_2" data-name="Warstwa 2" xmlns="http://www.w3.org/2000/svg" viewBox="0 0 51.37 61.12">
  <g id="game-icon-v6-elemental-pixarts-store">
    <g id="game-icon-v6-elemental-pixarts-store_277">
      <path d="M33.07,50.49c-5.09-5.94-3.54-.19-6.87-7.66-1.47,6.83,2.06.92,4.59,9.31-1.41,3.15-2.85,5.53-4.98,8.99l-3.53-5.96c-.16-.27-.35-1.42-.12-1.57l1.26-.79c-.19-.2-.7-.71-.9-.57l-1.2.85c-2.35-3.02,2.47-5.01,2.27-7.38l-4.84,3.91c-2.33-5.93,7.17-5.93,3.52-13.31-7.41,1.61-3.07,7.8-8.82,9.79.3-2.96.82-5.23,1.52-8.15-3.68,2.44-2.04,7.76-4.93,7.64l-10.05-.42,4.68-8.45,1.18.99c.18.15.66-.39.65-.63-.02-.32-.53-.67-1.46-1.41l7.3,1c-2.21-1.45-4.34-2.19-7.05-3.24,7.98-5.32,5.62,3.34,14.7-3.22-7.99-6.33-9.1,1.93-13.94-3.49,2.17-2.02,8.18-2.63,8.01-3.13l-.42-1.22c-2.09,1.6-5.14,2.96-7.78,2.05C3.53,21.74,1.88,18.29.23,14.82l10.79.05c1.84,0,.68,6.16,3.62,6.62l-1.61-7.43c6.22,2.05,2.29,10.51,9.32,9.93,2.92-6.25-6.25-7.69-3.47-13.56l4.26,3.6c-.66-1.89-2.83-3.57-2.6-5.2L25.64,0l5.59,8.97c-2.92,3.17-2.36,4.6-4.87,6.72-.23-1.49.11-1.79.72-2.28l-1.83-.95.41,5,3.03-2.7,4.32-4.06c.14.99.2,3.16-.27,4.05-1.52,1.56-3.69,3.6-4.38,5.57-.31.88.84,2.97,1.28,3.69,6.88-2.33,2.27-7.55,9-10.31l-1.79,7.98c2.68-1.85,1.62-4.22,2.94-6.52,3.89-.55,7.64-.59,11.59-.35l-5.48,9.54c-2.57.59-5.41-1.14-5.98-3.99-.99.85-1.87,1.82-2.73,3.12.43.87,2.16,1.52,3.21,1.74l5.22,1.13c-3.24,6.27-7.43-2.5-14.66,3.79l3.38,1.77c4.75,2.49,8.24-3.48,11.5,1.89l-3.6.61-.06.63c-.02.15-.03.56-.14.49l-.85-.51-3.45.59c-.56.1-1.2.37-1.58.95,1.19.41,3.11.9,4.07.64l5.79-1.58,5.35,9.72-11.47-.29-2.46-7.25c-.13-.12-1.23.25-1.07.52,2.22,3.81,1.29,3.06,2.06,7.94-6.7-1.61-1.32-8.51-9.18-9.74-3.31,6.89,5.38,6.68,3.86,14ZM6.49,21.39l-3.19-3.58c.56,2,1.24,3.76,2.21,5.82.76-.56,1.34-1.86.98-2.25ZM46.77,43.54l-6.36-1.95c-.02,1.12-.03,2.2.3,2.25l1.09.16c1.75.09,3.13.18,4.97-.46Z"/>
    </g>
  </g>
</svg>