<?xml version="1.0" encoding="UTF-8"?>
<svg id="Warstwa_2" data-name="Warstwa 2" xmlns="http://www.w3.org/2000/svg" viewBox="0 0 54.93 54.42">
  <g id="game-icon-v6-elemental-pixarts-store">
    <g id="game-icon-v6-elemental-pixarts-store_531">
      <path d="M14.3,39.3l-.68,6.41-3.22,6.33,16.26-3.67-.73-5.47-7.06.65,9.34-13.67,2.32,2.33,5.78-7.22c2.15-2.69,3.64-5.04,5.32-8.37l-3.26-.06c.85-.66,2.09-2.37,2.14-3.5l.18-4.48c1.59-2.16,2.59-3.65,3.64-6.32l-16.62,4.02.82,5.51,6.85-.67-3.22,5.06c-1.88,2.96-3.87,5.76-5.94,8.56l-2.44-2.21-9.14,11.92c-1.13,1.48-1.98,3.01-.68,4.59,1.57-.57,1.94-.59.33.27Z"/>
      <path d="M32.37,50.35l21.33-3.78c-11.46-3.32-10.37-8.94-10.18-8.89l-1.57-.46c-3.61-1.06-.01-3.16-1.05-5.67,1.37-2.11,3.11-4.61,4.16-7.12-7.67,6.86-3.42,8.19-5.32,10.15-3.11,3.21,2.82,5.02,3.59,9.89l-15.76-3.01.76,6.34-2.66,3.92c3.01.56,4.4-.97,6.7-1.38Z"/>
      <path d="M10.83,16.58l1.22.42c.58.2,1.89.94,2.4,1.36.48.38.09,1.57.17,2.67l1.51-3.34c-1.94-2.7-3.26-4.66-4.79-7.55l15.56,3.04-.99-6.17,3.08-4.22-6.5,1.34L1.12,8.11l5.35,1.88c4.04,1.42,5.35,6.92,4.36,6.58Z"/>
      <path d="M12.11,45.81c1.04-1.84.94-4.75-.59-6.71-4.44,4.98-7.8,9.6-11.52,15.31,3.01-.51,5.53-1.15,8.37-2l3.74-6.61Z"/>
      <path d="M43.76,6.42c-2,2.72-3.12,7.68-.78,9.28L54.93,0c-10.48,2.12-7.81,1.86-11.17,6.42Z"/>
      <path d="M9.91,30.21c2.01-2.47,3.69-4.74,5.32-7.52-2.68,1.91-4.74,4.28-5.32,7.52Z"/>
    </g>
  </g>
</svg>