<?xml version="1.0" encoding="UTF-8"?>
<svg id="Warstwa_2" data-name="Warstwa 2" xmlns="http://www.w3.org/2000/svg" viewBox="0 0 52.32 60.87">
  <g id="game-icon-v6-elemental-pixarts-store">
    <g id="game-icon-v6-elemental-pixarts-store_248">
      <path d="M31.87,59.73c-9.06,3.64-18.61-1.91-20.91-10.59-2.47-9.31,3.62-18.23,13.37-19.74l-.88-5.8c.45-1.93,4.42-2.37,5.18-.3.57,1.56-.37,3.96-.99,5.96,7.19.91,12.6,6.25,13.73,12.93,1.26,7.41-2.23,14.61-9.51,17.54ZM39.66,45.17c0-7.47-6.06-13.52-13.52-13.52s-13.52,6.06-13.52,13.52,6.06,13.52,13.52,13.52,13.52-6.06,13.52-13.52Z"/>
      <path d="M30.53,25.55c-2.22-3.58,7.71-1.8,16.3-12.31,1.48-1.81,2.62-4.15,3.3-6.37.89-2.88-.58-5.38-3.18-6.47,3.79-.51,5.82,2.96,5.29,6.56-1.29,8.74-12.99,16.34-21.71,18.58Z"/>
      <path d="M20.84,23.16c1.02.28,1.36,1,1.27,2.33C14.06,24.01.78,15.52.02,6.42-.25,3.1,1.8.08,5.03.39c-1.02.45-2.49,1.3-2.78,2.49-.61,2.45-.21,5.06,1.07,7.17,3.94,6.48,9.94,11.03,17.52,13.11Z"/>
      <path d="M47.44,2.03c-4.67-.8-8.36.86-12.9,2.95C22.08,10.72,17.18,2.28,6.04,1.53c1.04-.3,3.25-.92,4.42-1.09,2.38.64,5.09,1.73,7.38,2.73,10.61,4.64,15.66-.32,24.98-3.18l.43.99c.37.85,3.83-.51,4.2,1.05Z"/>
      <path d="M38.15,45.22c0,6.63-5.38,12.01-12.01,12.01s-12.01-5.38-12.01-12.01,5.38-12.01,12.01-12.01,12.01,5.38,12.01,12.01ZM23.04,36.98c.03-.43-.9-1.34-1.29-1.32-2.04.13-5.29,3.14-3.91,4.84,1.66,1.75,5.03-1.12,5.2-3.52ZM17.16,51.11c2.87,5.79,10.37,6.83,15.37,3.2l-1.73-1.41,2.15.55c4.34-2.88,5.48-9.06,2.37-13.54,0,8.72-5.77,14-13.76,13.65l.21-.97c.04-.2-.82-.37-.89-.17l-.37,1.08c-.05.15-.35-.26-.41-.41-.04-.1-.06-.67-.16-.71l-2.77-1.27Z"/>
    </g>
  </g>
</svg>