<?xml version="1.0" encoding="UTF-8"?>
<svg id="Warstwa_2" data-name="Warstwa 2" xmlns="http://www.w3.org/2000/svg" viewBox="0 0 55.23 55.08">
  <g id="game-icon-v6-elemental-pixarts-store">
    <g id="game-icon-v6-elemental-pixarts-store_239">
      <path d="M14.78,3.16l7.15.59c-2.32-1.97-4.87-1.46-7.15-.59Z"/>
      <path d="M55.22,29.4c-.98,4.36-3.1,7.86-7.12,10.06-4.69,2.57-10.52,2.8-15.26.31-3.79-1.99-6.08-5.1-6.38-9.52-2.09,2.33-.97,4.65-.73,7.8-3.25-3.81-2.45-8.38.4-12.92-2.22.74-3.01,2.67-4.31,4.15.13-4.2,3.94-7.55,7.86-6.27l-4,1.97,6.74.2c-1.64,1.27-2.61,2.07-3.54,3.04,2.41-.28,4.42-.67,6.35-.18,2.8.7,4.22,3.06,4.07,5.58h1.6c.19.01-.01.65-.05,1.14,1.08-.21,2.54-.76,3.23-1.57.73-.85.91-2.69.64-3.29-2.19.19-5.82-3.57-5.96-5.37-.04-.51.73-1.55,1.23-1.72,2.09-.74,4.11-.32,5.55,1.32l.8.91c.16.18.93,0,1.31-.03v2.22s4.46-2.53,4.46-2.53c1.04-.59,1.92-2.86,1.41-3.89-10.8-4.21-3.9-4.73-9.9-9.18l-3.81-2.83-1.28.32-4.96-4.54.24,2.81c-4.04-1.69-6.91-2.62-7.31-7.4-2.23,5.12,1.8,8.2,5.58,11.33-7.29-.27-4.81-8.21-16.61-4.59C8.16,8.99,1.58,14.12,0,22.05c2.94-4.79,6.36-8.37,11.49-10.25,3.66-1.34,7.49-2.53,11.14-.49l-5.68.83c-4.3.63-8.4,2.7-10.7,6.28,2.78-2.11,5.9-3.68,9.58-3.46-5.76,2.25-10.58,6.49-12.37,12.71-1.64,5.69-.14,11.61,3.23,16.02-1.06-4.2-2.72-8.01-.22-11.79.02,13.1,9.28,22.97,21.85,23.18-5.36-1.74-10.07-4.11-12.01-9.35,1.87,1.39,3.33,2.85,5.34,3.58-3.9-3.64-6.87-7.73-6.18-13.2,1.34,3.3,2.53,6.49,5.24,9.01,9.03,8.37,23.82,7.22,31.06-2.52-4.2,2.98-8.48,4.68-13.1,4.43l4.09-1.53c6.84-2.55,12.71-8.21,12.47-16.09ZM43.91,17.65c-1.74.79-3.25-.56-3.62-2.54,1.42.36,2.45,1.11,3.62,2.54ZM17.07,24.83l-2.16-2.16c2.16-1.04,1.19-.3,2.03-2.65.47,1.16,1.42,2.32,2.38,2.68-.76.52-1.89,1.6-2.24,2.13Z"/>
      <path d="M37.56,38.66c4.04,1.94,9.31,1.08,11.71-2.94-3.4,2.83-7.25,3.01-11.71,2.94Z"/>
    </g>
  </g>
</svg>