<?xml version="1.0" encoding="UTF-8"?>
<svg id="Warstwa_2" data-name="Warstwa 2" xmlns="http://www.w3.org/2000/svg" viewBox="0 0 44.9 44.81">
  <g id="game-icon-v6-elemental-pixarts-store">
    <g id="game-icon-v6-elemental-pixarts-store_135">
      <path d="M2.61,31l.46-7.8c2.51,1.17.63-4.09,2.69-6.65l-.52,6.53,2.71,3.96c2.52-2.13-.45-3.72.39-7.25.63,2.21,1.19,3.81,2.28,5.61,1.89,3.11-.55,2.62,4.47,8.29l-3.27-2.46c-.79.5-.77,1.7-.22,2.33,4.26,4.9,12.33,6.44,17.81,3.58-7.6.17-8.36-1.15-13.49-6.19-3.22-3.16-5.16-7.41-5-11.86.15-4.29,2.06-7.59,5.85-9.6-4.53.33-6.87,4.25-7.95,8.41-.33-3.3,1.31-6.22,4.13-8.1,2.7-1.8,5.95-2.54,9.03-.74.89.52.89,2.19.93,3.42,1.43-1.82,0-3.68-1.59-4.57-2.97-1.66-6.23-2.03-9.15,0l-.56-.77C6.05,11.25,2.58,14.24,1.59,21.07l-.23-4.44c-1.76,4.86-1.1,9.77,1.25,14.37Z"/>
      <path d="M18.13,39.05c5.9,3.73,15.22,3.6,19.83-1.99l-.39,2.02c4.99-4.42,8.61-10.32,5.04-17.04-.21,3.67.48,7.6-2.59,9.87,2.68-4.79,2.02-10.36-2.51-12.69.59,2.9-2.31-2.13-7.78.67-1.71.88-3.29,2.98-3.36,5.51,1.48-2.49,3.74-4.5,6.46-4.43,2.8.08,5.8,1.89,6.07,4.88-1.18-2.18-3.08-3.67-5.47-3.88-2.28-.21-4.38,1.02-5.54,3.17-1.18,2.18-.49,4.87,2.08,5.73.73.24,2.12-.15,2.63-.74.43-.51.68-1.88.37-2.47-.07-.13-.78-.45-.92-.51-.08-.03.01.16.05.26l.31.71c.23.53-1.06,1.27-1.63,1.19-.63-.09-1.38-1.11-1.35-1.86.07-1.61,1.35-2.58,2.6-2.79,1.25-.21,2.67.33,3.42,1.48,1.02,1.57,1.08,3.67.44,5.46-2.64,7.35-10.64,8.39-17.78,7.46ZM38.36,30.51c.51,3.38-1.35,6.76-4.76,8.23,2.59-2.04,4.09-4.65,4.76-8.23Z"/>
      <path d="M22.22,14.09c-.63-.06-1.27-.04-1.97,0l-.58-3.07c-1.01,1.47-.92,3.36.2,4.87,1.44,1.95,3.83,2.57,6.26,1.82,2-.61,2.82-2.64,3.84-5.04.07,1.03-.09,2.9-.26,3.82-.04.17.72.17.66,0l-.21-.66c2.14-2.64,1.76-5.46.52-8.77l2.73,1.78c.3-2.3-1.79-2.76-3.05-3.92-1.65-1.51-3.43-2.19-5.7-2.43,3.83-3.36,6.13,3.52,8.74.53-1.92-2.82-6.39-1.96-7.77-2.26-4.71-1.04-9.39-1.4-13.48,1.51l4.53-.17c-5.62.66-11.74,4.18-11.73,9.49C9.19,5.94,15.42,3.57,22.04,6.9c1.85.93,3.14,2.94,3.12,4.82-.02,1.76-1.35,2.53-2.93,2.37ZM18.6,3.21c2.41.24,5.13.41,7.26,1.52,2.78,1.45,3.6,5.74,2.21,8.26.11-2.48-.02-5.86-2.55-7.28-2.14-1.2-4.73-1.58-6.91-2.5Z"/>
      <path d="M20.7,44.12c5.05,1.5,10.06.56,13.96-2.81-10.17,3.72-16.21,0-23.57-6.71,1.5,4.88,5.39,8.27,9.61,9.52Z"/>
      <path d="M4.31,24.18c-1.58,4.75-.75,9.64,2.83,12.8-.81-3.03-2.44-4.98-1.54-7.7l.75,4.51c.65-.57,1.26-1.11,1.19-1.05l.15,1.91,2.49-2.97c1.24-1.47,1.13-4.2-.13-5.31-2.35.98-1.96,3.69-2.94,5.8.67-3.1-.11-5.99-2.8-7.99Z"/>
      <path d="M.75,37.39c1.83,3.17,3.88,6.34,7.49,5.1l-2.59-2.21c2.66.63,3.12,3.08,5.69,3.03-5.81-3.34-2.02-6.35-10.59-5.91Z"/>
      <path d="M40.56,15.42c1.17-1.49,1.11-3.36.09-4.86l-2.05-3.01c-3.79,7.21.66,5.52,2.28,11.5.32-3.7-1.53-2.17-1.43-6.71l1.1,3.08Z"/>
      <path d="M17.39,44.41c-4.01-2.76-6.7-6.14-8-10.57-4.78,3.69,4.51,10.62,8,10.57Z"/>
      <path d="M27.39,36.3c3.01.19,5.76-1.25,6.74-4.03-2.54,2.9-11.14,2.33-14.52.94,1.93,2.12,4.79,2.9,7.77,3.09Z"/>
      <path d="M1.49,9.03l1.05,3.3.56-4.7c.15-1.25.32-2.14.92-2.9l-.07,3.1c2.11-1.67,2.57-4.26,1.68-6.79l-3.06,4.06c-.91,1.21-1.62,2.21-1.07,3.93Z"/>
      <path d="M15.46,17.49l-.54-3.18c-2.58,1.74-2.6,4.35-2.21,6.96l.45,3.04.82-6.47-.02,3.59c1.12-1.24,1.74-2.52,1.5-3.94Z"/>
      <path d="M16.26,27.13c.95-2.27,1.43-4.34.81-6.73-3.02,2.05-3.3,5.63-1.18,8.26l.37-1.53Z"/>
      <path d="M44.77,13.36c-2.72.84-3.86,3.27-3.09,5.69l.7-1.8.37.96c.11.29,2.78-1.54,2.02-4.85Z"/>
      <path d="M44.35,34.87c-2.11.4-3.49,1.56-4.24,3.23l1.17-.23-2.01,2.34c2.99-1.29,5.01-2.85,5.08-5.34Z"/>
      <path d="M33.99,14.44c.85,2.4,2.8,3.2,5.07,3.3-.69-2.53-2.88-3.78-5.07-3.3Z"/>
      <path d="M34.93,43.43c2.04.97,4.14.38,5.57-1.13-2.4-1.02-4.31-.73-5.57,1.13Z"/>
      <path d="M21.23,29.33c.06,1.07.5,2.25,1.14,3.04.58.7,1.96.77,3.19.83-.94-1.68-2.14-3.05-4.33-3.86Z"/>
      <path d="M18.39,28.26c.93-1.37,2.48-2.9,1.48-4.98-1.04.83-2.1,2.42-2.42,3.63l.94,1.35Z"/>
      <path d="M2.96,34.73c-.59-1.6-1.41-2.95-2.94-3.71-.19,1.77.69,3.69,2.94,3.71Z"/>
      <path d="M7.71,3.62c1.66-.57,2.75-1.75,2.82-3.28-1.87.42-2.91,1.73-2.82,3.28Z"/>
    </g>
  </g>
</svg>