<?xml version="1.0" encoding="UTF-8"?>
<svg id="Warstwa_2" data-name="Warstwa 2" xmlns="http://www.w3.org/2000/svg" viewBox="0 0 49.85 58.3">
  <g id="game-icon-v6-elemental-pixarts-store">
    <g id="game-icon-v6-elemental-pixarts-store_71">
      <path d="M31.2,29.17c3.11.17,3.85-2.98,8.19-.65l2.67-.48c4.37-.78,3.48-3.15,6.81-4.71-.09,4.23-1.25,3.09-1.27,3.12-.07.09-.22.33-.2.33,2.08-.37-.95,3.54-2.14,4.19-.71-1.1.03-1.74.76-2.66-1.47,1.23-2.81,1.69-4.64,1.94l3.01.16c-1.58,2.21-4.19,2.45-6.98,2.06l.05-1.27c-1.76,2.95-7.53,1.52-10.96,1.32-.17-1.12-.07-2.67.47-3.35l2.88-3.64-4.12,3.27c.54-2.85,1.54-7.22,2.15-9.63.03-.12.9-.46,1.01-.53-.66.41-2.12-3.15-1.49-4.44,1.51-3.12,2.47-4.53,5.37-5.09l-.66.92c-.23.32,1.95.28.9.18l1.12-3.79c-.99,1.56-1.61,2.97-3.63,2.64,1.99-3.66,3.82-7.01,7.71-9.08-.16.83-.5,1.7-.88,2.51l-.81,1.76.64.04c.18.01.26.82.16,1.01l-3.12,5.93-1.12-.81.57,1.66-2.46,5.76c.19.08.74-.63.96-.48l1.16.8c1.06-1.51,3.11-3.33,4.75-4.58.33.03,1.13.59,1.03.9-.59,2.02-1.22,1.05-.93,2.23,1.18-.14,1.71-.19,2.36-.16l.03-2.02c-.69-.22-1.27-.88-1.93-1.71l4.55-5.45c1.08-1.3,1.93-2.45,3.82-2.94l-.94,4.68c-.08.39-1.06,1.27-1.29.96l-1.12-1.55-.18,2.27.79-.64c.21-.17,1.14.52.96.82-2.43,3.91-6.11,8.15-9.5,11.46l.95,1.38-1.61,3.49-3.83,1.86Z"/>
      <path d="M16.07,35.21l5.16-5.61c-2.04.14-3.31,4.3-6.04,4.35-1.26.03-3.24-1.86-2.95-3.1l1.58-6.65,1.3,3.58-.53-3.39c-.12-.79,1.22-1.88,1.9-2.54l-1.6.6c.48-2.6.7-5.13.86-7.95,3.14,1.26,2.97,6.26,3.64,5.89l1.31-.73.72,3.62.14-2.81c1.58-1.98,3.2-3.8,5.13-5.71,1.49,4.85-1.19,8.01-1.76,12.52-.29,2.25.16,4.5-.32,6.89l-9.39,5.2c.2-1.17.51-3.2.86-4.16Z"/>
      <path d="M16.06,48.25l-7.16,5c.88-2.55,1.34-5.3,2.57-7.87,2.46-5.15,5.84-6.44,10.44-8.86l-1.64,5.09-3.69,1.83,3.35-.66c-1.15,1.75-2.08,4.22-3.87,5.47Z"/>
      <path d="M15.34,55.61c.23-1.8.82-3.26,1.34-4.89.87-2.74,1.41-5.76,4.43-7.27-.08,1.78-.62,3.25-1.21,5.1,1.19-1.16,1.64-3.04,1.91-4.77,2.25-.53,3.81-1.71,4.85-3.79,1.22-2.46,3.92-3.87,6.55-2.48-2.05,3.29-5.23,3.6-8.35,5.56-1.47.92-1.66,3.27-2.65,4.44l-6.88,8.09Z"/>
      <path d="M32.27,36.58c-8.27-.05-4.52,6.55-11.53,6.12.63-2.23,1.16-4.39,2.25-6.49,4.13-3.2,5.59-2.91,11.01-2.82-.29,1.24-.93,2.68-1.73,3.19Z"/>
      <path d="M7.65,42.12c.94-1.21,2.03-2.41,2.64-3.39-4.45,3.78-3.37,3.85-9.82,4.72l7.05-6.14c1.54-1.34,2.78-2.9,4.2-4.54,1.06.99,1.17,2.25.45,3.55,1.05-.84,1.84-1.47,3.23-1.43-.98,3.6-1.67,7.62-4.7,10.14-1.68,1.4-4.18,1.97-6.5,3.04l3.46-5.95Z"/>
      <path d="M15.18,13.67l-.29,4.31c-.12,1.84-.3,3.4-.96,5.19-3.19-1.83-1.21-2.4-.54-8.93.13-1.24.82-1.96,1.67-2.7l4.9-4.35c.71,2.26.34,6.13-1.72,8.57l-2.09-1.79,2.06-2.61c-1.1.96-2.12,2.07-3.58,2.08-1.02-.43-.62-.27.55.23Z"/>
      <path d="M39.6,27.01c-.49.29-1.77.23-2.34.14l1-1.7-2.46,2.07c.04-.9.79-1.97,1.37-2.91.34-.55.6-2.16,1.18-2.42l5.01-2.25,3.62-4.66.38,2.88c-1.26,1.36-2.32,3.11-3.98,4.14l-3.66,2.28,2.87-1.22c.19-.08.88-.12,1.08-.07.26.06.47.69.46,1.01l-4.53,2.72Z"/>
      <path d="M8.01,58.3c1.43-5.77,3.2-6.12,7.65-8.93.22,3.99-4.67,7.32-7.65,8.93Z"/>
      <path d="M.25,57.94c.75-2.08,1.68-4.19,2.63-6.4.6-1.38.71-2.75,2.74-3.21l.48,3.61L.25,57.94Z"/>
      <path d="M45.25,23.5c-.19.24-1.2-.31-1.09-.55l.45-.95c1.12-1.4,2.14-2.65,3.7-3.79-.38-.67-1.01-1.98-.89-3.03.09-.87,1.32-1.9,2.36-2.5.14,2.12.24,4.75-1.19,6.58l-3.33,4.24Z"/>
      <path d="M3.2,55.84c1.25-1.89,2.77-3.07,4.43-4.39l-1.1.09c-.18-.88-.63-2.91,0-3.51.89-.84,2.34-1.25,3.6-1.5l-1.4,4.47c-.09,1.01-.53,1.97-1.27,2.75l-4.28,2.1Z"/>
      <path d="M0,48.73l2.8-4.19c.54-.81,1.64-1.25,2.9-1.16l-2.72,4.46-2.97.89Z"/>
      <path d="M38.8,33.39c-1.83,1.55-3.27,2.75-5.31,4.02.16-1.53.58-2.99,1.26-3.84,1.09-.34,2.43-.34,4.06-.18Z"/>
      <path d="M11.77,22.58c2.52,1.33,1.2,2.85.51,5.2l-.51-5.2Z"/>
    </g>
  </g>
</svg>