<?xml version="1.0" encoding="UTF-8"?>
<svg id="Warstwa_2" data-name="Warstwa 2" xmlns="http://www.w3.org/2000/svg" viewBox="0 0 59.76 54.45">
  <g id="game-icon-v6-elemental-pixarts-store">
    <g id="game-icon-v6-elemental-pixarts-store_577">
      <path d="M42.47,11.39c-.81.9-1.67,1.33-3.2,1.87l1.01-5.31c-6.1,3.89-4.07,9.83-8.06,12.03-2.73,1.51-4.02,3.07-6.5,5.61-.09-1.43-.02-2.8.12-4.44-3.2,1.48-4.89,5.51-5.43,9.26-1.19,8.31-7.73,3.53-9.83,10.74-1.92,6.58-8.73,4.98-10.58,13.28,3.89-4.96,11.49-5.7,13.68-8.93,1.77-2.61,3.19-4.1,6.57-4.01,2.23.06,4.5-1.36,4.88-3.7,1.18-7.22,9.21-4.42,14.07-7.37-1.47-.77-2.65-1.41-3.55-2.18,3.07-8.67,8.82-6.11,12.79-9.9-.98-.08-2.84-.63-2.6-1.28l4.18-7.98c2.18-4.16,7.86-5.42,9.73-9.1l-6.05,2.59c-4.48,1.92-8.01,5.19-11.25,8.81Z"/>
      <path d="M36.79,44.73c3.57.85,6.6-.87,7.67-4.23.92-2.86,3.21-4.49,6.36-5.44-10.36-2.02-7.06,6.46-13.6,5.1-10.48-.81-4.37,6.86-15.94,9.47,11.22,1.73,9.38-6.35,15.5-4.89Z"/>
      <path d="M16.74,13.75c-4.29-.07-7.65,3.95-6.81,8.04,1.5,7.28-7.72,3-4.9,15.22.62-3.5,2.28-5.53,5.49-7.06,3.11-1.49,5.14-4.92,3.8-8.07-1.31-3.07-.43-5.69,2.42-8.13Z"/>
      <path d="M28.07,6.79c-.69,3.21-6.13,1.78-4.19,9.07,1.48-5.83,6.96-2.63,7.1-7.8.08-3.24,1.79-5.17,4.57-7.26-3.78-.15-6.64,2.13-7.47,5.99Z"/>
      <path d="M53.3,22.71c-2.34,4.04-5.32,2.38-7.04,3.57-.22.15-.39.76-.14.87l1.35.59c7.01,3.05,7.34-4.39,10.53-8.21-1.8.36-3.74,1.52-4.7,3.17Z"/>
    </g>
  </g>
</svg>