<?xml version="1.0" encoding="UTF-8"?>
<svg id="Warstwa_2" data-name="Warstwa 2" xmlns="http://www.w3.org/2000/svg" viewBox="0 0 56.4 56.58">
  <g id="game-icon-v6-elemental-pixarts-store">
    <g id="game-icon-v6-elemental-pixarts-store_429">
      <path d="M19.35,38.53l23.77-25.32-25.19,23.81-2.77-2.19L46.13,3.68c2.48-2.49,6.66-2.59,10.27-3.68-1.03,3.06-1.07,7.49-3.55,9.95l-29.05,28.88c-.83.82-1.28,1.52-2.26,2.7l-2.18-3.01Z"/>
      <path d="M23.44,49.06c-6.36-4.3-11.55-9.19-15.75-15.56.54-1.13,1.72-2.11,3.03-2.83,3.62,6.62,8.6,11.53,15.27,15.38l-2.55,3.01Z"/>
      <path d="M31.5,16.22c-7.93,5.48-3.37,1.4-12.27,3.27-.54,1.25-.46,3.1-2.27,3.72l.84-5.36c3.35-.03,6.09.1,9.37-.27,1.4-.34,1.56-3.51,1.82-4.77l5.11-3.65c-.37-1.98-.57-3.82-.29-5.4,9.32.84,5.58-1.83,11.15-2.78l-4.92,3.81-5.36.54c.15,1.68.58,4.38-.39,5.08l-4.6,3.34c-.35.26-.51,2.28-.07,2.31l1.88.15Z"/>
      <path d="M6.37,52.86l-2.83-2.71,3.76-3.91,2.82-2.75c.51-.5,1.21-1.68,1.82-2.47l3.33,3.44c-2.2,1.63-4.82,4.17-6.15,5.56l-2.74,2.84Z"/>
      <path d="M31.24,40.04l6.34-2.6c-.64-6.47.21-6.75,2.28-13l1.04,2.72c1.68.04,3.33-1.76,3.93-3.56,1.35-4,4.3-1.07,6.44-2.07l.27-5.19,3.9-4.65c-.51,1.96-1.91,3.65-3.25,5.69l.22,5.35c-3.66.6-5.34-2.06-6.89,1.54-.98,2.28-2.8,4.07-5.35,3.79-3.23,5.32-.65,6.08-1.28,10.69-2.38.45-4.04.96-5.49,2.41l-2.18-1.13Z"/>
      <path d="M6.63,55.03c-.92,2.1-3.84,1.88-5.26.46-1.46-1.46-2.15-3.57-.02-5.76l5.28,5.3Z"/>
      <path d="M15.77,30.71l-.32-4.24c-.07-.92,2.45-1.96,3.26-2.01-1.48,2.27-2.13,3.46-2.94,6.25Z"/>
    </g>
  </g>
</svg>