<?xml version="1.0" encoding="UTF-8"?>
<svg id="Warstwa_2" data-name="Warstwa 2" xmlns="http://www.w3.org/2000/svg" viewBox="0 0 37.33 53.05">
  <g id="game-icon-v6-elemental-pixarts-store">
    <g id="game-icon-v6-elemental-pixarts-store_319">
      <path d="M36.42,49.98l.89,1.63c.19.35-.57,1.45-1.19,1.45H.38c-.63-1.49-.29-2.25.44-3.24.79-1.07,1.96-1.09,3.61-1.09l30.05-.02c.59,0,1.69.83,1.93,1.27Z"/>
      <path d="M35.26,4.29H1.98S.08,1.85.08,1.85C-.08,1.64.01.67.19.47S1,0,1.28,0l34.24.03c.41,0,1.1.16,1.28.38.25.31.11,1.29-.1,1.63l-1.43,2.25Z"/>
      <path d="M18.56,47c-1.78.3-2.33.43-3.23-.07l-.8.4c-.26.13-.76-.27-1.24-.54-.64-.43-.96-.64-.04.54-.7.35-1.65.4-2.57.25-.74-.12-1.89-1.42-1.6-2.33.48-1.5,2.34-2.49,3.55-2.88l-.31.98c-.05.15.54.31.59.17l.34-.88c.35-.91,1.52-2.18,2.27-2.83l.96,1.51c.13.2.29.02.89-.23l-1.57-1.68c.9-.67,2.37-1.54,3.35-1.64l5.04,4.31c.23.2.12,1.29.06,1.36.88-.2,1.97-.29,2.73.25.76.53,1.38,1.59,1.25,2.22-.18.84-1.33,1.73-2.25,1.75-1.55.03-2.58-.25-3.77-.96.02-.13-.05.29-.07.42-.02.17-.34.39-.48.47l-3.34-.25c.68-1.05.61-.93.23-.35Z"/>
      <path d="M34.01,45.4c-.01.4.88,1.52.84,1.91s-1,.56-1.58.59c-.39.02-1.23-.46-1.04-.79s.66-1.18.94-1.58l-1.4-13.58c-.13-1.26.47-2.48,1.01-3.51-.37-.49-1.18-1.34-1.13-1.81.06-.55.71-1.5,1.08-2.08-2.36-3.02.63-9.18.14-17.24-.03-.46-.98-1.73-.56-1.86.66-.21,1.63-.31,2.22-.17.81.2-.22,1.47-.26,2-.61,7.88,2.24,12.98.2,17.3l.94,1.76c.26.48-.68,1.57-1.07,2.06.71,1.28,1.17,2.58.93,4.27-.56,3.96-1.13,8.7-1.25,12.74Z"/>
      <path d="M4.07,45.32c-.02.59,1.21,2.18.65,2.28-.68.12-1.43.19-2.14.13-.99-.08.45-1.57.45-2.21.02-4.19-.63-9.07-1.21-13.42-.19-1.45.4-2.64,1.19-3.64-.44-.49-1.42-1.35-1.28-1.8.16-.53.72-1.49,1.06-2.12-2.16-3.08.44-9.62.19-17.21-.02-.62-1.16-1.73-.25-2.06.46-.16,1.39-.04,2.07.24.44.19-.28,1.23-.72,1.76-.51,4.8,2.62,14.66.41,17.33l1.05,1.7c.28.45-.83,1.56-1.15,2.04.65,1.24,1.17,2.7.95,4.26-.56,4.08-1.09,8.6-1.25,12.72Z"/>
      <path d="M26.65,14.89c-.08-.33-.4-1.09-.12-1.26s1.15-.4,1.49-.44c-.92,3.39-2.95,5.57-5.74,7.53l-1.79,2.02-.86-1.72.54,2.48c-1,.49-2.51.41-3.44-.3.02-.56.25-1.15.02-1.29l-1.41-.89c-.55-.03-.14-.1.54-.16.12-.04.57-.21.44-.28s-.62-.45-.76-.42c-3.33.68-5.13-4.89-5.29-4.5l.31-.77c-.5-.13-1.01-.24-1.19-.59-.19-.37-.02-1.63.17-1.84l.31,1.03c.15.49,2.22.75,2.36,1.63.07.41-.1.89-.29,2.04l1.91-2.41-1.84-.92,2.21-1c2.77,1.6,5.78,2.82,8.96,2.57l-1.26,2.39,1.73-.03c.33,0-.03-.88-.03-.99l1.56-.51c.35-.11.09-1.19.02-1.63l1.44.28Z"/>
      <path d="M27.87,34.32c5.11,5.57,2.38,13.82,1.52,13.45l-.76-.33c2.07-4.55,1.4-9.77-2.28-13.21l-4.29-4.02c-1.95-1.82-2.23-4.71-.35-6.71,6.13-6.53,9.82-7.52,7-18.66,4.38,4.74,1.73,11.97-2.49,15.73-1.38,1.23-2.58,2.39-3.72,3.69-3.12,3.58,1.88,6.25,5.37,10.05Z"/>
      <path d="M15.55,29.67c-6.18,6.19-9.9,7.34-7.27,18.43-3.76-4.01-2.08-10.31,1.17-14,3.18-3.61,8.46-6.25,5.27-9.72-1.27-1.39-2.53-2.6-4.01-3.95-4.08-3.73-6.62-11-2.22-15.53-3.07,11.69,1.59,12.72,7.2,18.94,1.46,1.62,1.45,4.24-.14,5.83Z"/>
    </g>
  </g>
</svg>