<?xml version="1.0" encoding="UTF-8"?>
<svg id="Warstwa_2" data-name="Warstwa 2" xmlns="http://www.w3.org/2000/svg" viewBox="0 0 57.2 58.31">
  <g id="game-icon-v6-elemental-pixarts-store">
    <g id="game-icon-v6-elemental-pixarts-store_28">
      <path d="M9.36,52.48c.04,2.18,1.2,4.03,2.5,4.87,1.75,1.14,3.82,1.26,5.68.4,2.31-1.07,3.96-3.26,4.46-5.79l1.62-8.26.73-4.09,4.16-8.4,2.69-5.95-5.85,8.79c.09-2.19,1.6-3.14,2.28-5.57l-5.86,8.36c-1.11,1.59-2.54,2.84-3.93,4.16l-5.25,4.97c-1.79,1.7-3.27,3.55-3.22,6.51ZM15.05,46.2l-1.75,3.49c-.68,1.36-.43,3.08,0,5.07-1.72.14-2.32-1.78-2.03-3.35.39-2.14,1.73-4.07,3.77-5.21Z"/>
      <path d="M30.81,33.86c-.46,2.27.49,4.26,2.18,5.32,1.66,1.04,3.71.99,5.5-.14,1.28-.81,2.33-2.27,2.7-3.92l2.11-9.66c.62-2.85,1.97-4.53,1.44-4.54h-.64s8.1-15.25,8.1-15.25l-10.62,15.48c-3.59,5.23-9.72,7.53-10.75,12.71ZM41.02,30.42l-.98,4.51c-.33,1.51-1.98,2.66-2.98,2.61l3.97-7.12ZM36.47,28.36l-2.55,4.47c-.32.57-.16,2.34-.85,2.89-3.14-1.66,2.17-6.63,3.4-7.35Z"/>
      <path d="M3.01,41.49c4.56,1.34,6.49-3.35,7.56-6.92,1.88-6.32,3.06-9.52,5.97-15.34l3.99-7.99-7.46,10.79c-.12.18-.39.73-.4.73,0,0-.26-.29-.54-.6-.7.85-1.49,2.23-2.36,3.05l-7.47,7.09C1.07,33.45,0,35.1,0,37.05c0,2.31,1.49,4,3.01,4.45ZM9.88,32.96c.21.69-1.7,6.54-3.13,5.6l3.13-5.6ZM5.15,31.73c-1.29,2.43-2.22,4.15-2.37,7.03-2.89-1.84.33-6.12,2.37-7.03Z"/>
      <path d="M42.65,47.87c.77-4.36,2.05-8.48,4.45-12.16.8-1.43,1.57-2.86,1.95-4.49-2.6,3.85-4.5,7.78-7.44,11.35-3.24,3.93-8.88,6.84-6.23,11.12.53.85,2.23,1.4,3.23,1.24,2.95-.45,3.58-4.48,4.03-7.06Z"/>
      <path d="M27.75,10.41c-.87.76-1.28,2.59-1.03,3.48.32,1.15,1.88,1.95,2.96,1.81.81-.1,2.29-1.22,2.55-2.33,1.13-4.91,2.65-8.81,4.86-13.37-2.86,3.98-5.67,7.21-9.34,10.41Z"/>
      <path d="M5.02,14.53c-.73.56-1.2,2.4-.95,3.18.28.84,1.62,1.68,2.57,1.64.81-.03,2.29-1.1,2.52-2.21,1.07-5.15,3.29-8.94,5.46-13.62-3.01,4.18-5.54,7.88-9.6,11.01Z"/>
      <path d="M16.39,30.36c.27.76,1.43,1.66,2.17,1.66,3.12.01,3.67-6.36,4.22-9.44l-5.37,5.21c-.57.55-1.25,1.91-1.02,2.57Z"/>
      <path d="M54.68,34.33c-2.81,5.07-4.62,4.34-6.07,7.81-.35.84.45,2.27,1.15,2.48.78.24,2.38-.33,2.63-1.2l1.1-3.81c.85-2.96,1.98-5.41,3.32-8.36-.87.89-1.5,1.93-2.14,3.09Z"/>
      <path d="M55.15,12.94l-4.92,5.03c-.88.9-1.34,3.05.38,3.74,1.18.48,2.78-.99,3.04-2.15l1.49-6.63Z"/>
      <path d="M29.01,26.59c2.62-3.5,4.71-7.21,6.54-11.45-1.21,1.49-6.75,9.3-6.54,11.45Z"/>
      <path d="M15.44,12.93c2.89-3.01,4.7-6.87,6.38-10.65-2.08,3.51-5.36,6.32-6.38,10.65Z"/>
      <path d="M39.08,17.06c1.42-.88,4.11-7.14,4.92-9.18-.46-.29-6.94,10.43-4.92,9.18Z"/>
      <path d="M57.2,22.29c-1.71,2.46-3.46,4.77-4.22,7.66,2.13-2.26,3.27-4.87,4.22-7.66Z"/>
    </g>
  </g>
</svg>