<?xml version="1.0" encoding="UTF-8"?>
<svg id="Warstwa_2" data-name="Warstwa 2" xmlns="http://www.w3.org/2000/svg" viewBox="0 0 56.96 58.17">
  <g id="game-icon-v6-elemental-pixarts-store">
    <g id="game-icon-v6-elemental-pixarts-store_38">
      <path d="M52.99,48.62c.04.32.63,1.21.83.99,1.18-1.3.75-6.05.13-7.59-1.12-2.76-4.46-3.18-7.04-2.72-4.48.81-8.23-.1-11.25-3.34-1.29-1.38-2.66-2.68-1.99-5.08l2.12,2.53c3.3-3.81,7.45-6.19,11.93-8.11,2.37-1.01,4.24-2.76,4.05-5.59-.08-1.24-1.34-2.48-2.45-2.82-3.92-1.21-9.35,6.13-12.32,8.83,1.95-4.71,5.88-7.39,9.08-11.06.85-1.28-.35-3.57-1.22-4.37-1.14-1.05-2.74-1.38-4.38-1.41-1.79-.04-3.2.65-3.8,2.36l-4.3,12.32,2.85-14.81c-1.16-2.62-4.3-4.11-6.92-4.04-2.39.06-5.72,1.71-6.51,4.3.93,5.08,2.4,9.79,2.89,14.96l-1.78-5.54c-.98-3.05-2.06-5.94-3.55-8.84-1.53-.88-3.98-.77-5.77-.12-1.64.59-3.88,3.51-2.57,5.14,2.99,3.72,7.01,6.44,8.93,11.04-3.45-2.94-9.15-11.68-13.62-7.88-1.23,1.05-1.51,2.96-.62,4.66.57,1.1,1.68,2.14,2.79,2.67l5.57,2.67c3.37,1.62,6.04,4.04,8.33,6.99,2.63-.92,2.9-2.87,3.83-5.45l.47,3,.88.04c-.21,4.32-6.73,4.4-10.09,3.01l-5.23-2.16c-.87-.36-2.42.34-2.4,1.18l4.25,1.35c-4.18.49-8.52,1.68-10.86,5.62-2.04,3.43-.38,10.64.31,8.15.91-3.25-.22-3.75,1.38-6.06l.53,7.82c.23,3.33-.94,7.25,1.18,6.9.5-.08,1.17-1.21,1.14-1.74-.17-3.61-.38-6.81-.27-10.34.11-3.92,4.06-6.79,7.46-5.95-.9.43-2.62.93-3,1.45-.02,1.09.68,2.43,1.3,2.71.58.26,1.92.08,2.57-.18,5.56-2.24,6.4-.08,12.18-1.84,3.18-.97,4.73-3.58,5.33-6.96,1.68,3.28.15,7.14-3.46,8.4-1.51.53-3.19.75-4.91,1.04,2.07,2.2,5.02,2.02,7.2.37,6.73-5.11,9.5,4.31,13.31-3.4,1.35-.99,3.63,1.23,3.8,2.82.44,4.03.1,7.67-.14,11.79-.03.55.82,1.65,1.33,1.56,2.56-.44-.73-10.43,1.82-14.07l.67,4.81ZM31.2,37.36c-2.38,5.42-10.86,4.73-15,2.9,5.02-.02,10.66,1.47,13.65-3.47,1.38-2.29,1.1-4.61.55-6.89,1.83,2.24,1.91,4.92.8,7.45ZM35.78,38.96c1.82,1.19,3.4,1.97,5.66,2.91-2.32,1.53-4.98-.54-5.66-2.91Z"/>
      <path d="M46.66,43.77c-.86.56-2.8,4.28-6.58,2.27-2.51-1.33-5.09-.85-7.28.83-2.86,2.2-6.38,2.09-9.12-.15-5.24-4.29-8.81,3.24-12.55-2.35-.19-.28-.81-.66-1.08-.63-1.37.16-1.05,6.08-1.04,7.35,0,.64,1.86,1.33,2.22,1.26-.99-1.86-1.96-3.51-1.71-5.56,2.66,4.73,6.38,10.88,12.1,9.45-1.73-2.57-3.36-4.96-2.77-8.12,1.8,4.63,4.53,10.4,10.28,9.91,5.09-.44,7.23-5.79,8.91-9.72.58,3.05-1.03,5.54-2.67,8.04,6.31,1.12,8.97-4.46,11.9-8.93l-1.59,5.12c4.54.57,2.11-9.52.97-8.78Z"/>
      <path d="M7.02,11.43c-.94,3.66-6.35,3.18-5.57,9.37.4,3.22,2.73,5.81,5.81,6.98,4.13,1.57,7.68,3.5,11.78,5.86-.33-2.88-8.81-6.26-11.8-7.67-3.18-1.5-4.92-5.98-2.42-8.72,1.01-1.11,2.63-1.98,3.88-2.98.46-4.46,3.87-7.8,8.42-7.12,2.08.31,3.61-.5,5.09-1.85,3.82-3.5,9.23-3.51,12.89.33,1.37,1.43,3.11,1.76,4.92,1.56,3.95-.43,7.4,1.91,8.01,5.87.46,3.03,5.71,2.65,5.34,7.66-.15,1.99-1.27,4.07-3.37,5.02-3.18,1.45-10.98,4.56-11.91,7.42,1.03-.27,2.21-.43,2.72-.8,6.49-4.81,11.69-3.97,14.1-9.31,1.45-3.22.72-6.72-2.38-8.62-1.29-.79-2.3-2.16-2.73-3.63-1.24-4.2-4.95-6.57-9.33-6.08-1.67.19-3.22-.39-4.36-1.52-4.36-4.35-11.05-4.25-15.32.2-.9.93-2.35,1.55-3.68,1.35-4.83-.73-8.88,2.02-10.07,6.68Z"/>
      <path d="M56.95,40.4c-.26-3.99-14.55-6.42-17.87-4.77,4.79,1.96,12.15.71,15.33,4.24.69.77.95,2.23,1.51,3.64.53-.76,1.09-2.2,1.03-3.12Z"/>
      <path d="M1.04,43.98c.31-3.01,1.4-5.14,4.24-6.94-2.04-.21-3.94.85-4.96,2.6-.69,1.18-.2,3.08.72,4.34Z"/>
      <path d="M51.64,32.3c-1.46-.14-2.66.19-3.92.95,1.64.65,3.23,1.06,4.78,1.11.33-.77-.22-2-.87-2.06Z"/>
      <path d="M4.91,34.28c.26.17,1.24.57,1.53.43l3.72-1.7c-3.11-1.31-6.3.55-5.25,1.27Z"/>
    </g>
  </g>
</svg>