<?xml version="1.0" encoding="UTF-8"?>
<svg id="Warstwa_2" data-name="Warstwa 2" xmlns="http://www.w3.org/2000/svg" viewBox="0 0 59.33 58.01">
  <g id="game-icon-v6-elemental-pixarts-store">
    <g id="game-icon-v6-elemental-pixarts-store_204">
      <path d="M23.22,8.84c-4.97-.74-10.16.9-12.91,5.37l6.08-1.67c1.43-.39,5.92.4,5.34,2.82-1.02,4.22-8.34-3.41-15.32,6.46-4.35,6.14-4.17,13.95-1,20.29-.2-3.51-.39-7.7,2.68-9.23.41-.2,1.59-.04,1.89.28s.15,1.42-.16,1.78c-4.41,5.17.21,13.48,4.5,16.23-.18-1.87-1.86-3.05-.31-4.86,3.11,6.28,8.62,9.83,14.75,11.73-8.83-.21-16.72-4.3-22.23-10.62-2.73-3.14-4.37-6.83-5.47-10.86C-1.38,27.63.44,18.27,6.21,10.96c10.25-13.01,30.3-15.1,40.62-2.65.78.94,1.17,2.27,1.06,3.19l-2.89-1.83c3.59,5.25,3.93,11.57-.05,16.36-2.5,3.01-6.34,4.2-9.87,2.14-.69-.4-1.07-1.74-.74-2.33,2.18,1.59,4.25,1.42,5.95,0,.39-.32,1.2-1.06,1.08-1.47l-.53-1.8c1.03-2.08,1.72-4.99-.49-6.43-.61-.4-.71.6-2.26,1.11-.35.11-1.05-.89-1.05-1.29.11-4.69-4.24-8.9-8.8-8.17l2.35,4.03c1.61-.48,4.03-.2,4.15,1.99-1.57-.86-2.82-1.34-3.82-.14-2.7,3.23-1.34-3.88-7.71-4.83Z"/>
      <path d="M21.68,43.43c3.68,5.39,9.28,8.3,15.74,8.51,7.38.24,13.61-3.49,18.38-8.96-3.39,7.31-10.51,12.8-18.54,14.02-4.1.62-8.54-.61-12.2-2.48-8.76-4.47-13.65-14.47-12.09-24.03.61-3.77,1.75-7.45,4.86-9.58-4.71,8.4-4.65,18.52,2.05,25.55l-2.06-8.03c-.49-1.9-.32-5.51,1.46-5.07,2.15.54.3,6.31,2.41,10.07ZM27.73,51.83c0-.76-.62-1.38-1.38-1.38s-1.38.62-1.38,1.38.62,1.38,1.38,1.38,1.38-.62,1.38-1.38Z"/>
      <path d="M44.56,46.69c1.82.73,3.51-.03,5.45-.23-5.62,4.13-14.65,5.31-20.47,1.29-.28-.2-.52-1.46-.22-1.58,1.87-.8,4.61,3.86,8.05,2.33l-3.23-1.77c-.23-.13-.44-.86-.47-1.13-.21-1.51,6.74,4.41,11.34-.71-3.55-.02-6.83.02-10.08-1.01-5.81-1.85-10.38-6.37-11.65-12.35-.97-4.57.35-9.26,3.67-12.34,2.51-2.33,6.06-3.25,9.08-1.82,2.36,1.12,3.76,3.8,1.95,5.99.03-2.77-1.41-4.83-4.09-5-3.1-.19-5.82,1.64-7.43,4.35-2.02,3.4-2.21,7.55-.37,11.3,4.15,8.43,15.44,11.12,22.89,5.6,2.73-2.03,3.91-4.8,3.03-8.03.44-.39,1.61.02,1.88.65.87,2.03-.05,3.79-.7,6.12,3.55-1.79,4.08-5.46,5.63-9.03,1.32,3.09-.13,6.51-1.74,9.35-2.62,4.63-7.23,6.7-12.52,8.04ZM48.81,41.86l-5.31,1.78c1.91.62,4.42.27,5.31-1.78Z"/>
      <path d="M4.59,34.15c-.89-4.23,2.47-14.06,7.96-13.64-4.81,3.57-6.93,8.19-7.96,13.64Z"/>
      <circle cx="24.91" cy="41.92" r="1.8"/>
      <path d="M18.12,27.7c-.38-.17-.88-1.19-.82-1.6.07-.49.78-1.51,1.28-1.6,1.18-.2,2.16.91,1.94,1.95-.17.79-1.05,1.87-2.4,1.25Z"/>
      <circle cx="10.49" cy="38.9" r="1.35"/>
      <circle cx="9.23" cy="29.1" r="1.35"/>
      <path d="M48,27.75c-1.26-.66-.24-2.86.85-2.77.53.05.88,1.31.77,1.8-.1.47-1.11,1.23-1.62.97Z"/>
      <path d="M51.17,20.02c.13.39-.37,1.19-.63,1.35-.33.2-1.18-.77-1.08-1.18l.76-3.05.95,2.88Z"/>
      <circle cx="55.23" cy="28.77" r="1.11"/>
    </g>
  </g>
</svg>