<?xml version="1.0" encoding="UTF-8"?>
<svg id="Warstwa_2" data-name="Warstwa 2" xmlns="http://www.w3.org/2000/svg" viewBox="0 0 59.38 59.27">
  <g id="game-icon-v6-elemental-pixarts-store">
    <g id="game-icon-v6-elemental-pixarts-store_373">
      <path d="M21.56,12.31c-5.49,1.68-10.37,4.7-12.77,10,5.13-5.71,12.84-8.5,20.38-6,4.72,1.56,7.64,4.56,9.13,9.05.8-4.52-1.71-7.84-4.36-11l1.99.18c-6.5-6.14-16.08-7.53-24.2-3.45-3.25,1.64-6.31,3.68-8.17,6.76,5.53-3.68,11.39-6.4,18-5.54Z"/>
      <path d="M37.69,46.21c4.88-1.45,9.6-3.83,12.01-8.78-5.7,4.87-12.59,7.19-19.58,4.92-4.46-1.46-7.54-4.68-9.1-8.89-.69,4.67,1.92,8.47,5.06,11.37l-1.67.11c9.83,8.36,25.04,5.36,31.97-5.41-5.25,4.33-11.51,7.72-18.7,6.68Z"/>
      <path d="M30.11,7.11c5.92,3.17,10.17,8.43,11.1,15.17.61,4.41-.67,8.39-3.33,11.81,3.82-1.07,5.02-4.33,6.85-7.05l.36,1.95c2.76-5.46,2.89-11.73.08-17.4-1.74-3.51-3.66-6.91-7.58-9.13,3.26,4.1,5.7,9.26,5.83,15.45-2.46-5.24-6.98-9.8-13.31-10.79Z"/>
      <path d="M21.24,24.39c-3.64,1.1-4.91,4.38-6.56,7l-.51-1.94c-4.54,9.48-1.05,20.67,7.19,26.65-3.13-4.82-5.66-9.52-5.41-15.4,2.56,5.16,6.58,9.29,12.36,10.55-9.45-6.33-13.86-17.83-7.07-26.86Z"/>
      <path d="M44.77,31.51c-3.39,5.15-8.51,7.61-14.72,7.56,4.95,2.18,10.64,1.75,15.16-1.33,4.04-2.76,6.74-7.09,7.34-12.11-1.95,3.13-3.95,5.99-7.01,8.23l1.76-6.18-2.52,3.83Z"/>
      <path d="M29.77,19.84c-6.23-3.3-14.15-1.61-18.84,3.72-2.16,2.46-3.66,5.51-4.04,9.09,1.95-3.17,4.01-6.37,7.28-8.43-.95,2.43-1.63,4.2-1.95,6.2,3.49-6.97,9.58-11.27,17.55-10.59Z"/>
      <path d="M2.98,46.33c1.36,3.08,4.25,5.16,7.33,6.01-2.26-6.04,2.57-8.47-3.64-13.2l-.61-2.62c-.57,2.88-.37,5.43-.33,8.8-.85-1.83-1.05-3.65-1.28-6.21-2.21,1.56-2.62,4.63-1.48,7.21Z"/>
      <path d="M52.8,19.58l-.11,2.79c1.69-2.82.69-5.69,1.01-9.26.7,1.85.98,3.72,1.31,6.01,2.4-1.88,2.67-5.29,1.02-7.98-1.42-2.33-4.14-3.83-6.5-4.77,1.35,5.79-2.2,9.54,3.27,13.2Z"/>
      <path d="M44.92,58.37c2.93-.99,5.08-3.54,6.28-6.23-5.95.63-8.88-2.45-13.01,2.57l-2.8-.94c2.45,2.34,5.67,1.08,8.65,2.2l-5.33.57c1.37,2.02,3.86,2.62,6.21,1.83Z"/>
      <path d="M21.83,3.9l-6.95-.95,6.29-.46C19.71.09,16.97-.52,14.48.43c-2.66,1.02-4.79,3.38-6,5.92,6.08-.75,9.03,3.16,13.35-2.45Z"/>
      <path d="M3.9,28.09c1.51-1.25,2.32-3.74,1.37-4.89-.21-.07-1.21.03-1.15-.16.04-.13.11-.49.2-.95-1.7-.15-3.53,1.14-4.09,3.2-.48,1.77-.14,3.92.26,5.62l3.41-2.82Z"/>
      <path d="M55.72,29.82c-1.45,1.31-2,3.02-1.43,4.85l1.58-.22-2.57,1.86c1.43-.35,3.02-.77,4.13-1.45,2.58-1.59,2.16-5.24,1.22-7.67l-2.93,2.64Z"/>
      <path d="M24.11,53.81l2.5,2.53-2.3-.89c.16,3.91,5.43,4.52,8.04,3.19l-3.63-4.03c-.85-.95-3.67-.86-4.62-.79Z"/>
      <path d="M34.86,5.39c-.15-.74-.41-1.65-.22-1.58l.98.37c.24-1.54-.76-3.24-2.61-3.84-1.49-.48-3.54-.31-5.18.03l2.37,2.95c1.19,1.48,2.94,2.39,4.66,2.07Z"/>
    </g>
  </g>
</svg>