<?xml version="1.0" encoding="UTF-8"?>
<svg id="Warstwa_2" data-name="Warstwa 2" xmlns="http://www.w3.org/2000/svg" viewBox="0 0 58.12 35.18">
  <g id="game-icon-v6-elemental-pixarts-store">
    <g id="game-icon-v6-elemental-pixarts-store_560">
      <path d="M50.73,3.83l-.22,2.53C47.04,1.48,42.03-.96,36.28.49c2.25,1.02,4.91,1.04,4.65,4.02-7.07-5.54-11.02,4.11-19.63-1.38.84,3.59,3.81,4.8,7.17,5.31-10.56,5.83-13.29-3.32-20.07,3.66,1.91-.11,4.19-.52,5.5.27l4.17,2.5c-6.04,4.44-10.78-4.03-18.07,3.97,10.17-2.3,8.27,5.98,18.69,3.81-1.68,2.75-4.5,2.68-7.51,2.35,6.4,7.15,11.31-2.5,15.94,3.52l-4.51.43c6.18,7.49,9.46.29,14.44,2.56l-5.18,2.59c2.38.03,4.2-.17,6.05.45,4.94,1.65,9.5-.05,12.84-4.29l.43,1.46c7.15-5.13,8.92-14.26,4.64-21.76-1.35-2.36-2.62-4.61-5.09-6.14ZM52.03,25.77c-1.76,1.92-3.73,3.85-6.75,3.58,1.32-.88,2.56-1.65,2.23-3.53-3.59,4.79-7.23,2.26-12.22,1.82,1.23-1.16,3.02-1.27,5.64-1.4-.18-2.5-3.46-2.74-5.38-1.64-3.25,1.88-6.63,1.1-9.22-1.37,3.44.87,6.12.43,7.42-2.25-8.39,2.01-5.89-3.74-15.27-2.07,6.71-6.55,11.87,1.08,14.48-3.69-1.43-2.07-4.13-1.71-6.75-1.66,8.15-6.88,10.75,3.45,14.76-2.69-3.1-.16-5.39-.68-6.32-3.37,6.92,2.76,7.45-1.81,13.73,3.37l-1.35-3.08c2.53.56,4.55,2.37,6.04,4.55,2.99,4.36,2.53,9.54-1.03,13.43Z"/>
      <path d="M27.88,2.23l4.21-.8C30.79.59,29.47-.03,28.44,0l-4.45.14c.58,1.27,2.24,2.4,3.89,2.09Z"/>
      <path d="M21.1,7.9c-1.03-1.79-2.95-2.13-4.96-1.44,1.32,1.21,3.09,1.82,4.96,1.44Z"/>
    </g>
  </g>
</svg>