<?xml version="1.0" encoding="UTF-8"?>
<svg id="Warstwa_2" data-name="Warstwa 2" xmlns="http://www.w3.org/2000/svg" viewBox="0 0 63.97 66.7">
  <g id="game-icon-v6-elemental-pixarts-store">
    <g id="game-icon-v6-elemental-pixarts-store_08">
      <path d="M38.15,47.05c-4.39,3.11-8.23,6.49-11.93,10.71-2.12,2.42-4.28,4.95-6.91,6.68-4.18,2.75-9.25,3.03-13.34.58C1.89,62.57-.56,57.99.11,52.82c.4-3.15,1.96-6.44,4.28-8.72l9.05-8.89c2.25-2.21,3.8-4.75,5.71-7.31l-1.99,7.48c5.86-4.87,8.03-12.72,15.33-15.06-3.06,2.94-6.41,5.63-6.78,10.43,6.18-4.69,9.05-9.5,14.54-14.5-1.2,3.29-3.41,5.15-4.34,8.58L63.97,0c-3.6,5.54-8.53,9.7-11.7,15.38l-2.23,4-11.3,13.48c4.53-1.05,7.94-5.54,11.68-7.47l-4.24,5.73c-4.51,6.11-8.62,5.9-12.29,11.53,3.76-1.67,6.71-3.47,10.73-4.39l-9.42,7.14c-1.07.81-2.05,2.31-2.87,3.52,2.13-.76,3.4-1.35,5.81-1.88ZM7.61,63.4c4.73,2.34,10.46.66,13.35-3.66l6.86-10.28-4.54,3.09c2.34-4.77,5.72-7.81,8.21-12.11l-6.14,4.44,12.05-16.35-13.61,11.27,3.64-6.11c-3.99,2.65-8.25,8.08-12.92,10.19l4.44-6.41c-6.33,5.69-17.06,7.8-16.84,17.03.08,3.51,1.84,7.07,5.51,8.9Z"/>
      <path d="M31.42,17.54c1.4-4,4.6-6.05,7.68-8.63-1.26,3.59-4.09,6.51-7.68,8.63Z"/>
      <path d="M49.48,31.95c1.33-2.95,3.91-4.97,6.77-6.69-1.36,2.92-3.43,5.3-6.77,6.69Z"/>
      <path d="M59.42,14.61l-7.13,6.32c1.3-3.79,4.61-6.26,8.28-7.38.16.67-.63,1.1-1.15,1.06Z"/>
      <path d="M41.6,17.73c.85-2.03,2.31-3.84,4.37-5.16-.72,2.21-1.94,3.99-4.37,5.16Z"/>
      <path d="M15.92,59.62l3.86-1.86c-2.8,4.33-8.24,6.36-12.5,2.88-2.29-1.87-3.3-4.74-2.75-7.82.43-2.4,2.27-5.16,5.03-6.26l-1.39,2.93c2.76-1.48,4.56-2.43,7.21-3.52l-2.17,3.26,6.82-4.14-3.05,5.03,4.85-2.4-4.52,6.83,2.57-.58-3.97,5.65Z"/>
    </g>
  </g>
</svg>