<?xml version="1.0" encoding="UTF-8"?>
<svg id="Warstwa_2" data-name="Warstwa 2" xmlns="http://www.w3.org/2000/svg" viewBox="0 0 28.28 58.69">
  <g id="game-icon-v6-elemental-pixarts-store">
    <g id="game-icon-v6-elemental-pixarts-store_449">
      <path d="M9.11,47.65c3.69-.22,6.67-.22,10.33,0l1.06-21.25-12.37.04.97,21.22ZM10.8,30.17l1.87-2.18c.24-.28.86-.79,1.18-.94.39-.19,1.45.37,1.71.77l2.19,3.44c.26-1.2.51-2.32,1.02-3.63l-.96,19.17c-1.61-2.18-.6-3.85-.92-6.47l-5.35-.8-.03,6.62-1.01.5-.72-18.29,1.02,1.83Z"/>
      <path d="M7.49,21.81c4.77.66,14.04.9,18.67-.91l-5.34-3.4c-.3-.19-1.57-.16-1.6-.51l-.11-1.71c-2.9-.63-6.58-.73-9.61-.16l-.38,3.56-.86-1.81-6.09,4.21,5.33.74Z"/>
      <path d="M27.13,30.34l.92-5.92c.16-1,.22-1.92.23-3.15-2.78.5-4.76,1.49-7.23,1.67-7.77.54-13.19.11-21.05-1.63l1.06,9.82c.56-2.34.86-4.72.95-7.07,6.21,2.16,12.58,1.48,18.56,1.44l-.06-2.22.95,2.05,4.81-1.12.85,6.14Z"/>
      <path d="M24.51,46.3l-4.73,2.01-10.57-.06c-1.69-.01-3.73-1.38-5.47-1.94-.48.28-1.18,1.62-1.09,2.25l.51,3.59.89-3.16c1.52.35,3.37,1.45,4.94,1.6,6.69.65,10.97.67,16.93-2.18l-1.42-2.09Z"/>
      <polygon points="6.33 27.58 7.46 31.59 7.44 26.3 2.68 25.31 4.61 45.72 8.55 47.35 7.59 42.74 6.14 45.14 4.29 26.82 5.78 29.76 6.33 27.58"/>
      <path d="M22.36,45.43l-1.48-2.34-.8,4.24,3.78-1.42,1.94-20.82-4.53,1.15-.17,2.74.49-.67c.1-.13.26-.14.28.02l.19,1.71,1.4-2.87c.39,1.85.44,3.58.22,5.74l-1.3,12.51Z"/>
      <path d="M14.42,58.69l.8-2.61.99.31c.96-1.18,2.07-3.16,2.62-4.76h-8.99c.51,1.3,1.14,2.27,1.92,3.36l2.66,3.71Z"/>
      <path d="M18.23,1.34c-3.79-2.7-7.92-.68-7.35.46l.51,1.02c1.7-1.2,3.37-1.3,5.01-.53,3.69,1.74,1.58,5.16,4.15,5.18.65-2.48-.51-4.84-2.32-6.13Z"/>
      <path d="M12.8,9.83c-.71.86-1.03,2.96-.79,4.09l4.58-.03c-.2-1.85-.35-3.13-.93-3.93-.39-.54-2.45-.65-2.87-.14Z"/>
      <path d="M9.48,2.15c-2.72,2.8-2.52,7.08.74,9.55.39.29,1.2.43,1.41.11.95-1.4-4.14-2.6-1.74-7.18.31-.59.06-1.71-.42-2.48Z"/>
      <path d="M19.64,7.54c-.2.13-.51.42-.7.67l-1.65,2.22c-.29.4-.28,1.54-.15,2,1.48-.93,2.82-2.38,3.24-3.52.12-.32-.47-1.55-.73-1.37Z"/>
      <path d="M23.01,50.56c-2.04-.05-3.67,1.13-4.25,3.11,1.58-.74,2.91-1.71,4.25-3.11Z"/>
      <path d="M5.45,50.62c1.33,1.32,2.57,2.22,4.08,2.99-.13-2.15-2.05-3.15-4.08-2.99Z"/>
      <path d="M13.33,38.42l1.05-1.68.78,2.19c1.04-.9,1.37-2.15.91-3.22l-1.98-4.68-1.77,4.75c-.37.98.11,2.26,1.01,2.64Z"/>
    </g>
  </g>
</svg>