<?xml version="1.0" encoding="UTF-8"?>
<svg id="Warstwa_2" data-name="Warstwa 2" xmlns="http://www.w3.org/2000/svg" viewBox="0 0 58.79 58.79">
  <g id="game-icon-v6-elemental-pixarts-store">
    <g id="game-icon-v6-elemental-pixarts-store_24">
      <path d="M29.39,58.79c16.23,0,29.39-13.16,29.39-29.39S45.63,0,29.39,0,0,13.16,0,29.39s13.16,29.39,29.39,29.39ZM13.66,48.23c-1.04-.81-2.02-1.32-2.2-3.02,2.97.42,5.76,2.1,6.84,5.49-2.09.93-3.25-1.38-4.65-2.47ZM37.18,53.23c-.3.47-1.51.85-2.23.66-6.38-1.67-5.3.08-13.04-1.03-1.36-.2-2.91-2.85-2.62-4.28,7.16-4.98,6.56,5.58,18.18,2.41.15.71.03,1.77-.28,2.24ZM51.04,17.74c.85,1.47,4.79,8.78,1.91,10.84-1.85-6.57,1-6.01-4.5-9.39-1.46-.89-2.45-3.6-3.38-5.24,3.27-1.06,4.7,1.58,5.97,3.79ZM7.23,37.17c-2.84-.7-3.75-5.68-2.08-8.71.26-.47.97-1.44.73-1.81l-1.04-1.6,1.27-3.5c.13-.37.31-1.06.56-1.02.25.04.99.28,1.25.25,1.28-.15,2.71-2.81,1.38-4.11l-2.47.87,1.82-2.29,1.47-2.1,1.11,1.54c1.19,1.65,13.83-5.73,10.68-9.14l5.99-.62c1.65-.17,3.5.33,5.11.54,1.67.23,2.97.64,3.53,2.45l2.53,1.59c.34.21.96,1.49.63,1.72-.4.28-1.14.61-1.98,1.02-.83,2.1,5.91.91,6.64,4.32.13.6-.89,1.98-.57,2.5.32.53,1.31,1.58,1.96,1.73,3.26.7,5.7,3.07,5.33,6.71-.34,3.26,4.13,1.33,1.18,9.12-1.46,1.51-3.37,2.87-1.77,5.16l-1.56,1.72c-.13,2.22-2.06,4.12-4.54,3.06l1.89-4.07c.23-.5-.63-1.94-1.18-1.97-2.63-.17-.57,6.73-4.96,7.33-1.23.17-1.77.31-2.88,1.2-2.91,2.33-7.55.98-10.05-1.76-1.32-1.45-2.61-1.93-4.43-2.23l-1.09-2.41c-.21-.47-1.69-.79-2.05-.41-.84.86.16,1.46.74,3.58.1.38-1.64.31-1.95,0-.74-.72-2.55-1.79-3.78-1.89-4.83-.39-3.53-5.77-5.13-7.02-.42-.33-1.74.39-2.27.26ZM7.5,39.54c1.07.45,1.76,1.58,2.03,2.95l.61,3.04c-1.91-1.55-2.99-3.4-2.64-5.99Z"/>
      <circle cx="43.88" cy="36.61" r="1.52"/>
      <path d="M32.8,11.52c.51.09,1.92-.46,1.86-1.03-.11-1.08-.88-1.72-1.44-1.73-.49,0-1.71.41-1.77.89-.1.86.77,1.77,1.34,1.87Z"/>
      <path d="M46.35,26.39c.72,0,1.3-.58,1.3-1.3s-.58-1.3-1.3-1.3-1.3.58-1.3,1.3.58,1.3,1.3,1.3Z"/>
      <path d="M10.73,33.9c0-.7-.57-1.27-1.27-1.27s-1.27.57-1.27,1.27.57,1.27,1.27,1.27,1.27-.57,1.27-1.27Z"/>
      <path d="M19.38,40.2c.72,0,1.3-.58,1.3-1.3s-.58-1.3-1.3-1.3-1.3.58-1.3,1.3.58,1.3,1.3,1.3Z"/>
    </g>
  </g>
</svg>