<?xml version="1.0" encoding="UTF-8"?>
<svg id="Warstwa_2" data-name="Warstwa 2" xmlns="http://www.w3.org/2000/svg" viewBox="0 0 23.02 66.82">
  <g id="game-icon-v6-elemental-pixarts-store">
    <g id="game-icon-v6-elemental-pixarts-store_559">
      <path d="M.78,21.95c-2.31,5.02.73,11.2,6.47,12.27-2.37-3.21-2.12-6.89.38-9.57-.14.99.48,3.32,1.5,3.07,3.01-.73-2.4-5.9,2.16-8.92-.95,5.6,3.74,2.42,3.3,11.2.79-1.01,1.4-2.13,2.16-3.79,1.37,2.18.97,4.88-.44,7.7,3.55-.93,6.09-3.65,6.62-7.17.45-3.01-.76-5.79-1.84-8.49l-1.72-4.3-.94,5.58c-.07.4-.51,1.05-.72,1.27-2.16,2.18,1.74-7.5-4.69-12.82-2.42-2.01-2.54-4.81-1.58-7.98-3.65,2.3-4.76,6.43-2.89,10.3,2.35,4.88-2.62,6.81-3.84,11.03l-1.49-4.65-2.42,5.26Z"/>
      <path d="M9.58,64.24c.16,1.57.44,2.71,2.23,2.58,1.55-.11,1.62-1.25,1.79-2.97l1.77-18.62-7.69.1,1.9,18.91Z"/>
      <path d="M3.68,36.15c.04,1.33.22,2.67.62,3.7l14.66.08.63-3.82-15.92.04Z"/>
      <path d="M17.08,41.41l-11.25-.08c-1.65,3.53,12.89,3.63,11.25.08Z"/>
      <path d="M6.18,11.64l-1.68-4.14c-.67.78-1.56,3.02-1.15,3.99l1.83,4.36c1.29-1.15,1.59-2.76,1-4.21Z"/>
      <path d="M17.09,5.9l-1.68-3.88c-1.77,1.99-.67,4.31,1.14,6.32.32-.53.77-1.91.54-2.45Z"/>
    </g>
  </g>
</svg>