<?xml version="1.0" encoding="UTF-8"?>
<svg id="Warstwa_2" data-name="Warstwa 2" xmlns="http://www.w3.org/2000/svg" viewBox="0 0 58.65 46.92">
  <g id="game-icon-v6-elemental-pixarts-store">
    <g id="game-icon-v6-elemental-pixarts-store_443">
      <path d="M24.84,33.77l3.53-7.03c.7-1.39.64-2.94.61-4.52-.13-5.64-.12-10.98.04-16.32l.58,5.21.27,13.56c.06,3.3,2.81,5.88,3.98,9.14l3.51-5.2-3.23-11.82c-1.19,2.17-1.27,3.96-1.16,6.4-.64-1.22-.66-2.52-.36-3.93l.97-4.61L29.39,0c-1.49,3.26-3.58,13.02-3.55,12.96-1.03,2.15-1.62,4.92-2.27,7.78-.03.83-.02,2.08-.26,2.38-1,1.14-1.7,3.44-1.65,5.2.05,1.8,1.94,3.6,3.18,5.45Z"/>
      <path d="M18.74,33.29l1.77-5.06-4.24-10.15-3.63-8.08c.16,1.97-.15,3.62-.25,5.25l-.93,15.01,2.25,3.44.37-1.83.25,2.45,2.38,4.11,1.59-4.44c-.94-1.01-3.01-5.75-4.09-3.38l.07-7.94c1.08,6.91-.13,4.67,4.46,10.63Z"/>
      <path d="M28.41,43.07l-3.67-6.55-2.23,2.53,1.69-4.25-3.17-4.55-4.09,9.74-5.86-8.33-2.8,8.13c6.52,2.54,13.17,3.18,20.14,3.29Z"/>
      <path d="M12.34,44.45c.41-1.24.55-.44.78.46,7.99,2.05,16.2,2.45,24.46,1.59l1.59-1.75.06,1.12c.02.34,3.81.66,6.7-2.6l-.97,1.91c3.19-1.04,8.34-1.54,8.04-5.11-13.53,5.24-33.92,5.48-47.36-.07.07,3.54,3.64,3.68,6.7,4.45Z"/>
      <path d="M48.48,40.22c.18.36,2.03-.53,1.82-1.06l-2.84-7.1c-1.21,1.15-1.67,2.4-1.89,3.84l-1.14.13-2.8,3.78-4.03-9.63-2.76,4.4.59,2.59-1.33-1.09-3.72,6.97c5.87-.1,11.5-.65,17.1-2.21.81-.89.36-3.41-.85-3.7,1.83-.42,1.64,1.38,1.87,3.08Z"/>
      <path d="M40.33,34.06c.36,1.19.94,2.68,1.48,3.94,3.08-4.07,3.2-4.06,1.92-8.71l-3.4,4.76Z"/>
      <path d="M39.95,33.19c1.16-1.6,3.05-3.28,3.36-5.17l1.02-6.24-.03,6.16c0,1.58.48,3.45.81,5.09.5-.59,2.02-2.26,1.96-3.17l-1.43-19.6-7.54,18.03c.28,1.51,1.04,3.31,1.84,4.91Z"/>
      <path d="M5.4,36.73c.3,1.56.86,2.59,2.27,2.71l2.85-9.14L.04,11.97c-.31,2.39,1.04,4.12,1.26,6.23.78,7.53,2.52,10.43,4.1,18.52Z"/>
      <path d="M49.83,34.83l2.5-5.39c-.32,4.38-3.68,4.98-1.01,9.93.66.13,1.65-.88,1.83-1.63l3.44-14.66c.86-3.66,1.51-7.08,2.07-11-4.32,6.13-6.38,12.02-10.75,18.22l1.93,4.52Z"/>
      <path d="M33.25,34.99l-3.98-7.53-3.77,7.72,3.91,6.69,3.84-6.88ZM29.33,30.21c.73,1.45,1.66,3.42,2.26,4.99l-2.08,4.67-2.36-4.39,2.18-5.28Z"/>
      <path d="M22.77,19.3l-3.52-8c-1.33,9.01-1.73,7.03,1.55,14.71l1.97-6.71Z"/>
      <polygon points="37.73 25.7 40.53 19.64 39.34 10.7 36.06 19.22 37.73 25.7"/>
      <path d="M48.06,27.74c3.58-4.21,3.26-6.66,2.87-11.73l-3.42,5.56.55,6.17Z"/>
      <path d="M10.98,21.99c-.87-2.18-2.24-4.1-3.44-6.09-.02,6.55-.5,7.01,2.97,12.03.22-1.69.69-4.17.47-5.95Z"/>
      <path d="M2.68,28.51c-1.21,2.7-.91,5.21,1.49,6.77l-1.49-6.77Z"/>
      <path d="M54.66,35.04c2.08-2.07,2.21-3.58,1.23-5.72-.55,1.98-.97,3.86-1.23,5.72Z"/>
      <path d="M29.33,32.51c-1.14.61-1.65,3.65.01,4.27,1.57-.57,1.28-3.17-.01-4.27Z"/>
    </g>
  </g>
</svg>