<?xml version="1.0" encoding="UTF-8"?>
<svg id="Warstwa_2" data-name="Warstwa 2" xmlns="http://www.w3.org/2000/svg" viewBox="0 0 51.23 58.73">
  <g id="game-icon-v6-elemental-pixarts-store">
    <g id="game-icon-v6-elemental-pixarts-store_76">
      <path d="M33.45,36.49c-2.18-1.54-3.14-3.69-2.35-5.82,3.09,2.37,5.57.48,6.21,3.73.48,2.48-.37,4.63-1.31,6.94-1.35,3.3-2.6,6.71-5.15,9.41-2.07.05-5.04-.34-6.74-1.68l-5.81-4.59c-2.15-1.7-4.31-4.73-4.83-7.45-.42-2.18,1.69-4.13,3.43-5.03l-1.21,5.73,1-1.49c.19-.28.79.62,1.09.91-.64-1.7-1.12-3.7.46-5.12l1.65,1.45c-.46-1.02-2.01-1.99-1.49-2.84,1.13-1.86,3.12-2.9,4.93-3.71l1.91.15-1.33-.78c1.53-1.15,1.43-3.03.91-4.52-.12-.52.71-1.46,1.16-1.71.51-.29,1.96.23,2.61,0l8.79-3.02c.38,1.05.48,2.54.01,3.27-2.2,1.02-4.27,1.96-6.42,3.19l-1.84,4.69c.56,1.31,1.16,2.53.86,3.94-.51,2.37-3.88,3.94-6.76,3.9l2.13.36-.48,1.23c1.19-1.13,2.56-1.91,4.44-2.61-.45,2.53-1.27,4.53-2.55,6.69-.86,1.45-2.5,2.12-4.02,3.51l2.94-1.14c.08,1.14.2,2.09.48,2.89.47-2.78.69-4.97,2.54-6.51l1.26,3.79c.15-1.95-.93-3.88-.53-5.6l.94-4.04c3.77,2.36,1.68,4.29,3.44,5.85l-.36-3.99Z"/>
      <path d="M3.71,27.99c-2.62-9.56-1.73-9.5-1.92-18.65-.02-.96.27-2.12.49-2.95,4.96,4.19,2.55,4.46,5.65,8.51l-1.43-4.73c-.46-1.53-1.62-2.75-2.84-4.18l6.52.51c1.87-2.79,5.03-1.18,7.14-3.13l-4.15.8c-4.09.79-3.19,2.44-9.35.36l7.19-3.37C12.74.36,14.14-.19,16.14.06c3.07.4,6.18.79,9.23.7,3.53-.11,6.8-.96,10.49-.28-2.58,1.24-5.06,3-7.78,3.72l-12.1,3.22c-.85.23-2.64-.63-3.59-.66,3.27,1.48,2.42,1.33,3.66,5.67-1.51-2.1-2.05-4.21-4.61-5.37l-2.17,8.75c1.4,1.57,2.58,3.24,2.83,5.86-.95-1.45-2.09-2.97-3.36-4.35-1.34,4.02-2.96,7.24-5.02,10.66Z"/>
      <path d="M43.17,39.11l-2.91-2.66c3.86-.65,6.8,6.96,7.97,9.68l-.19-2.62.22-3.13-.87,2.25-3.21-6.09c.86-3.49,1.24-6.43,1.07-10.32l-5.05,1.4,5.4-3.99,2.21,5.56,1.57,4.05c.54-3.5-2.21-4.84-2.33-9.81l4.01-5.47c.09,3.39.43,6.66-.14,9.92-1.95,11.07-.3,10.26-.64,21.18l-2.55,1.5c-1.32.78-4.13-3.43-6.2-2.91l2.73,2.17c1.03.82,2.14,1.17,3.68,1.42-1,.87-2.18,2.14-3.36,2.86l-6.34,3.88c-.31-1.7-.57-2.89-.9-3.86l3.99-5.76c-2.4-.56-4.29-1.51-5.69-3.33,2.27.91,4.03,2.7,6.45,1.55l1.08-7.45Z"/>
      <path d="M3.96,51.31c1.76-.63,4.84-5.73,6.15-4.91l1.65,1.04,5.09-.1c-.35,1.03-2.6.51-4.58,1.76,1.42,2.44,2.48,3.97,3.76,6.78-4.25-.55-8.09-1.5-11.92-2.38l-1.91-1.06L.14,35.87c-.19-1.5-.18-3.08-.07-4.55l2.8,1.16c-.69-.84-1.3-1.03-2.61-1.46.28-1.89.7-3.91,1.38-6.1l1.64,4.67c2,1.72,3.79,3.14,5.55,5.03-1.47-.67-2.57-1.55-3.86-2.51l-1.81.5c1.19,1.11,2.65,2.57,2.37,4.35l-.86,5.39,1.93-4.85,2.08,5.3c1.15,2.94-4.07,6.26-4.72,8.52Z"/>
      <path d="M23.15,25.41c-.4.91-2.41,1.67-2.98,1.98l-1.19-3.47c-.88-2.56,1.31-5.51,1.63-8l-3.47-6.05c1.27-.67,2.1-.26,2.62.68l2.8,5.09c1.27-2.6-.2-6.05,1.12-6.89.25-.16,1.06.03,1.09.33l.38,4.86c1.15-1.19,2.33-5.61,4.61-4.91.26.08.1.69-.05.97l-2.24,4.29c2.07.92,3.62,1.78,4.65,3.18-1.39,1.68-3.05,1.28-4.79.95-1.89-.36-4.06,1.88-4.13,3.69-.03.92.35,2.35-.06,3.28Z"/>
      <path d="M45.14,13.16c-1.76,1.74-1.67,3.47-3.62,5.64.45-1.93.97-4.06,2.11-5.36l2.04-2.35c-.39.14-1.2.58-1.4.36l-2.75-3.07c.93-.8,2.23-1.19,2.77-2.66l-4.36,2.85c-2.51,1.64-3.85,3.85-5.21,6.54-.49-1.16,2.1-6.5,1.72-6.27l.86-.52c-2.55-.88-4.94-2.56-6.93-4.38l6.64-3.29c3.86.41,7.59,1.16,11.82,2-.43,1.62-5.44,1.35-4.83,3.33l3.46-1.15-1.26,5.14c1.71-1.45,1.38-5.07,3.18-6.36l1.4,13.33c-1.5,1.83-2.93,3.33-5,4.73l-.64-8.49Z"/>
      <path d="M20.64,50.87l-1.09,4.42,9.05-1.37c2.3-.35,4.71.61,7.08.16.5-2.81-.85-4.89-.03-6.18.67,3.76,1.13,7,1.54,10.82l-11.65-1.6c-2.76-.38-5.18-.82-7.73-1.98l2.84-4.28Z"/>
      <path d="M18.94,26.55c.96,3.26-5.15,4.78-6.62,8.88-1.55-3.25-2.09-7.14-.15-10.32l4.24-3.2c1.06,1.43,2.03,2.93,2.53,4.65Z"/>
      <path d="M36.54,31.4c-2.26.09-5.3-.69-5.92-3.29-.45-1.86,1.45-4.54,3.31-5.08,1.03-.3,4.69,4.96,2.61,8.37Z"/>
      <path d="M16.43,21.12l-2.55,1.55c.13-3.24,1.48-6.55,4.74-8.08.85,1.9-1.08,7-1.18,6.96l-1.01-.43Z"/>
      <path d="M39.23,24.6c-1.75,1-3.09-.19-3.85-2.21.74-.42,2.39-1.08,3.25-1.22.29-.05.84.75.93,1.03.11.35-.51.88-1.16,1.11l.84,1.3Z"/>
      <path d="M12.63,41.7c-1.01,1.94-1.73,3.05-2.99,4.27-.8-2.31,1.31-3.86,2.99-4.27Z"/>
    </g>
  </g>
</svg>