<?xml version="1.0" encoding="UTF-8"?>
<svg id="Warstwa_2" data-name="Warstwa 2" xmlns="http://www.w3.org/2000/svg" viewBox="0 0 59.81 59">
  <g id="game-icon-v6-elemental-pixarts-store">
    <g id="game-icon-v6-elemental-pixarts-store_263">
      <path d="M56.82,11.14c-.1.32-1.2.16-1.42-.09-.26-.29-.53-1.08-.23-1.41.26-.28,1.05-.21,1.3,0s.5,1,.34,1.5Z"/>
      <g>
        <path d="M25.79,10.16l-1.39.58c.88.9,1.69,1.7,1.51,2.93-.07.47-.56,1.17-.89,1.4-.41.29-1.6.27-1.84-.16-.18-1.15-.8-2.09-1.98-2.33-2.99-.61-5.85.68-7.5,3.22l2.98-1.02c.89,2.6-1.66-.29-4.17,4.64-3.36-1.13-6.01.81-7.73,3.65l3.03-2.06c1.05-.71,2.51-1.06,3.68-.45,1.67.87,2.56-.9,3.63,0,.32.27.6.99.86,1.6,1.36-.02,2.83.09,3.85,1.09.92.9,1.19,2.35.39,3.12l-1.6-1.05c-.1-.07-.63.2-.64.32-.09,1.12,2.31,1.68,1.49,3.83-.39,1.02-1.26,1.94-2.69,1.58l-.12-2.29-1.64-.87c-.35-.69-.73-1.3-1.15-1.66-.05,1.27.06,1.93-.4,2.68-.32.51-1.91.89-2.12.33-.34-1.15-.37-2.22-1.19-2.75-.96-.61-2.09-.7-3.02-.08l1.36.77c.24.14.35.82.29,1.09-.39,1.72-2.66-1.21-4.96,1.12-4.24,4.28-2.4,12.43.87,16.78.32.17,1.14.6,1.33.89.75,1.84,2.01,4.09,3.26,5.86C4.58,50.95.12,40.5.09,35.37L.01,22.97c2.73-1.92,4.94-4.3,6.78-7.18C10.85,9.42,18,1.68,26.21,2.26c4.78-2.98,10.76-3.1,15.28.12,2.81-1.04,4.61.53,6.67,1.73,1.54.9,3.72,2.09,3.72,4.17,0,.3-.28.93-.49.9-1.42-.19-2.23-3.01-3.89-2.27-.69.31.2.63.33,2.14.03.4-.89,1.11-1.24.92l-1.59-.87c-.22.65.59,1.67,1.42,1.8,2.3.36,2.08-3.91,3.74-1.14,1.45,2.4,1.92-.8,4.93,2.89.5.61,4.73,4.96,2.11,5.95-1.5.57-.57-3.35-2.22-2.04l.58,2.83c.41,2,.27,4.13-2.17,4.75-.53.14-1.7-.46-1.85-.96.73-1.07,1.13-2.08.02-2.91-.39-.29-.87-.96-1.1-1.35-.17.69-.47,1.74-.86,2.13-.2.2-1.09.18-1.31,0-.81-.68.76-2.41-1.1-3.49-.33,1.25-.73,2.18-1.55,2.48-.93.34-2.32-.08-2.61-.96.56-.78,1.24-1.86.75-2.91-.37-.8-.89-1.52-1.39-2.12l.33,2.04c.04.27-.57.76-.82.89-.29.16-1.11-.12-1.33-.49.85-1.55.67-3.8-1.28-4.27-2.34-.56-.98-1.52-2.59-1.63-.7-.05.29,1.66-.64,2.85-.45.57-1.3.7-2.18.62.46-2.07-.53-2.52-1.67-3.53-.75-.67-1.96-2.6-3.23-1.52l-.86.74c-.61.52-3.14-3.09-6.77-.67,1.69,0,3.08-.55,4.44,1.08ZM36.22,6.83c1.5,0,1.77,2.75,3.7,2.39.65-.12,1.31-.87,1.46-1.6.11-.51-.4-1.49-.81-1.55-.23,5.19-2.79-.94-4.9.24-.39.22-.82,1.01-1.19,1.04-1.18.09-2.37-1.3-3.97-1.07l2.53,1.42c.35.2,1.39.57,1.71.31l1.47-1.18Z"/>
        <path d="M41.5,42.76c.26,6.56,12.65,8.41,18.25,6.14l.02,2.28c-4.92,1.33-8.8.07-13.34-1,1.35,1.32,2.97,1.63,4.56,2.23-2.98.18-5.46-1.2-7.84-2.67l-4.46-2.75c-2.06,3.22-3.33-2.53-6.02-1.96.61.78,1.15,1.45,1.39,1.97.31.7-.03,2.14-.66,2.18-.69-.64-1.29-1.32-1.78-1.57-.5-.27-1.93-.12-2.1.29l.07,1.35c.02.34-.81.8-1.02.72l-1.15-1.79c-.1-.15-.8-.22-.98-.2-.61.07-.18,1.58-.92,1.81-.93.29-1.1-.85-2.36-1.16-.42-.1-1.27.53-1.49.96-1.41,2.87,3.52,5.73,5.64,6.68,2.59,1.15,5.2,1.78,8.06,2.67-3.15.26-6.15-.47-9.23-1.52-6.33-2.16-11.65-6.04-15.41-11.61,1.15,5.02,4.99,8.25,9.05,11.18-6.75-2.45-11.4-8.08-13.45-14.84-2.25-7.39.17-10.52.37-8.13.22,2.61.51,5.61,2.05,7.98-.17-1.64-.89-7.59,1.88-8.11-.6,4.46.6,9.05,4.01,11.84,2.07,1.69,4.86,1.41,6.42-.64,1.08-1.41,2.6-2.63,4.2-3.22,1.26-.47,2.75,1.48,4.4.5,1.68-.99,3.09-.59,4.78-.17,2.12.52,4.04-1.4,4.76-3.11.79-1.87,2.31-2.06,3.69-2.85,1.66-.95,3.35-2.8,5.56-1.67.19.1.6.47.66.68s-.65.32-.9.39l-.62.17c-.08.02-.06.07-.07.2-.06.58,3.95-1.21,5.98.65.25.23.14,1.38-.18,1.48s-.87-.03-1.23-.26l-.84-.52c-.19-.12-.67.17-.71.36.02.57.06,1.64-.31,1.92-1.79,1.38-2.93-3.15-4.52-.04l-1.91-.23.06,1.8c-.68-.03-1.29-.08-1.65.05s-.76,1.16-.74,1.56Z"/>
        <path d="M32.19,39.66c-2.82-2.13-4.3-5.52-5.45-9.14-.3,3.73,1.07,7.24,3.43,10.35-1.73,1.2-5.23-4.2-6.21-5.51.25,1.81,1.01,3.14,1.79,5.01-3.23-1.78-4.26-7.54-4.43-11.01-.07-1.42.28-2.74.55-4.09.31-1.55.28-3.14,1.52-4.37-.68,4.52-.73,8.73,1.61,12.67-1.13-6.41.38-17.06,7.29-20.55.16.4.24.74.17.8-2.65,2.27-4.4,5.14-4.84,8.34,1.28-1.9,1.86-3.93,3.97-4.84-2.2,3.79-3.44,7.59-2.7,11.78.49-2.56.97-5.1,2.2-7.51,1.58-3.08,5.65-6.54,8.48-6.07,1.87.31-8.69,3.43-7.87,13.54.35,4.31,1.81,8.01,5.47,10.56-.25.4-.39.63-.55.82s-1.01.03-1.26-.14c-2.46-1.66-4.25-4.74-5.31-7.66.01,2.48,1.08,4.5,2.15,7.03Z"/>
        <path d="M59.8,58.96l-10.9-.03c-4.15-.01-8-1.27-11.62-3.06l1.34,2.08c-3.16-1.19-4.86-3.57-7.43-5.79l.48,1.8c-1.01-.66-2.22-1.85-2.51-2.88.79-.85,1.31-1.61,2.02-2.78,3.72,6.96,16.82,10.05,23.74,7.69-4.66-.05-9.48-.44-13.28-3.38l5.26,1.17c4.37.98,8.67.63,12.9-.81v5.99Z"/>
        <path d="M3.68,50.39c2.68,3.65,5.9,6.17,10.11,8.53l-13.78.04v-11.96c1.44,2.94,2.77,5.67,5.25,7.84-.58-1.51-1.4-2.6-1.57-4.44Z"/>
        <path d="M59.68,47.59c-4.13,1.41-8.25.63-12.04-1.11-1.93-.89-3.55-2.65-2.73-4.92.6,1.49,1.09,2.73,2.42,3.47l-1.21-2.79c-.38-.88.03-2.09.98-2.56.55,5.71,8.26,7.25,12.66,5.75.07.61.07,1.48-.08,2.16Z"/>
        <path d="M17.79,32.72c.51,3.69,2.43,6.4,4.26,9.63-3.7-2.13-5.46-6.03-6.11-10.09l1.86.47Z"/>
        <path d="M30.34,55.41c-2.06-.68-3.7-2.47-4.85-4.31l1.5-1.31c.5,2.05,1.72,3.72,3.35,5.62Z"/>
        <path d="M17.83,20.63c-2.61,1.12,1.06-6.51,2.67-6.35-.99,1.93-2.04,4.31-2.67,6.35Z"/>
        <path d="M21,22.06c-2.09.55.67-5.75,1.84-5.72l-1.84,5.72Z"/>
        <path d="M55.57,27.47c-.35-.03-.71-.88-.66-1.19.07-.37.53-1.14.9-1.22.54-.1,1.1.72,1.09,1.15-.02.56-.52,1.32-1.33,1.26Z"/>
        <circle cx="13.76" cy="40.24" r="1.1"/>
        <circle cx="16.42" cy="42.2" r="1.07"/>
        <path d="M43.76,44.29l2.63,2.77c-1.94-.44-3.53-2.15-3.49-4.24l.87,1.47Z"/>
        <circle cx="58.77" cy="22" r=".98"/>
        <circle cx="43.86" cy="23.15" r=".95"/>
        <circle cx="11.84" cy="32.08" r=".89"/>
        <path d="M4.96,43.64c-.56-1.21-1.56-2.54-1.07-4.27.74,1.23.92,2.35,1.07,4.27Z"/>
        <circle cx="49.66" cy="25.24" r=".87"/>
      </g>
    </g>
  </g>
</svg>