<?xml version="1.0" encoding="UTF-8"?>
<svg id="Warstwa_2" data-name="Warstwa 2" xmlns="http://www.w3.org/2000/svg" viewBox="0 0 64.1 38.4">
  <g id="game-icon-v6-elemental-pixarts-store">
    <g id="game-icon-v6-elemental-pixarts-store_336">
      <path d="M40.67,25.15c1.19-.19,2-.35,2.9-1.19l-22.15-4.34,18.23-.93c-6.15-1.48-11.49-.35-18.25-1.5l22.3-4.22-3.21-1.38c-.82-2.94.75-6.42,3.71-7.8,1.97-.92,4.04.36,5.42,1.88.91-1.52,2.25-2.81,3.69-3.06,4.86-.85,6.28,4.39,7.31,8.26l-1.87,1.08c2.47,2.08,5.5,4.5,5.37,8.03-.13,3.27-3.25,5.52-4.95,7.22,1.02,3.21-1.48,7.04-4.71,7.38-2.03.21-5.03-1.16-4.47-3.71-.76.84-2.23,2.3-3.61,2.61-2.04.45-4.17-.96-5.04-2.23-1.2-1.77-1.3-4.44-.64-6.08Z"/>
      <path d="M16.92,29.27c-10.47,4.34-4.88-1.2-16.7,5.57l-.22-10.48c8.62-3.21,5.26-6.13,10.17-13.05,1.16-1.63,1.85-4.44,2.81-6.22L20.24,0c.48,7.51-7.61,2.68-6.41,19.65.11,1.52.44,3.25,1.61,3.99,4.22,2.67,6.63-2.41,10.23,2.01l-8.75,3.63Z"/>
      <path d="M25.36,10.03c-1.67,4.14-5.49-.97-10.98,7.08.27-2.24,1.17-3.67,2.43-6.06l-1.5.9c-.13-2.53,1.08-5.49,4-6.56,1.67-.61,3.53-.91,5.58-1.12-.89,3.48-6.29,3.27-7.76,6.03,4.02-1.14,2.67-.73,8.22-.29Z"/>
      <path d="M22.57,22.13c2.44.38,17.07,1.91,16.16,3.98-.18.41-1.23.84-1.7.69l-14.45-4.67Z"/>
      <path d="M38.69,11.25c-1.22,1.72-11.73,3.06-15.34,3.24l14.42-4.4c.31-.09,1.1.92.92,1.16Z"/>
      <path d="M44.38,36.8l-2.86,1.59-1.85-3.74c2.28-.08,2.76.14,4.7,2.14Z"/>
      <circle cx="36.19" cy="6.69" r="1.53"/>
    </g>
  </g>
</svg>