<?xml version="1.0" encoding="UTF-8"?>
<svg id="Warstwa_2" data-name="Warstwa 2" xmlns="http://www.w3.org/2000/svg" viewBox="0 0 48.8 58.62">
  <g id="game-icon-v6-elemental-pixarts-store">
    <g id="game-icon-v6-elemental-pixarts-store_23">
      <path d="M24.33,0C17.36,5.42,9.2,8.31.18,8.51c-1.34,21.61,4.79,39.36,24.37,50.1,19.89-11.55,25.03-27.72,24.16-49.89l-7.89-1.09,1.93,3.55,2.66.58c.44,19.2-4.49,32.77-20.88,43.09C8.36,45.23,2.54,29.92,3.64,11.58c7.67-.64,14.53-3.11,20.79-7.43,10.35,5.95,4.02,3.28,14.01,3.89l-.82-1.07c-4.82-1.68-8.93-4-13.29-6.98Z"/>
      <path d="M33.82,10.52c2.55,1.09,4.44,2.93,4.94,4.96.66,2.67.29,5.25-1.44,7.18.33-2.73.83-5.14-.36-7.37-1.27-2.4-3.68-3.53-6.16-3.15-2.4.37-4.66,2.02-4.58,4.91,1.34-1.33,2.99-1.93,4.57-1.34,1.62.6,2.37,2.39,2.03,4.26-.53,2.92-2.68,5.15-5.18,6.69l-7.01,4.31,3.35-4.06c-2.31.66-4.57,1.24-6.87,2.18-4.9,2.01-7.17,7.64-4.76,11.95.25-3.61,1.74-6.9,4.95-8.63-3.7,5.16-4.43,11.61,1.13,15.48-2.05-9.38,4.82-12.69,11.89-15.58,4.26-1.74,7.96-4.47,10.03-8.64,1.85-3.74,1.7-8.2-.62-11.54-1.43-2.06-3.88-2.8-5.9-1.6Z"/>
      <path d="M6.74,28.28c.62-2.79.99-5.38,2.57-7.47,1.47-1.93,3.79-3.04,6.17-2.34,1.08.31,1.89,1.62,1.75,2.7-.09.72-1.16,1.51-1.95,1.87,1.29.86,3.15.63,4.41-.79,2.03-2.29,1.69-5.97-.6-7.8-2.48-1.99-5.38-1.55-8.47-.55,2.59-1.98,6.53-2.42,9.4-.42,3.66,2.55,3.71,7.14,1.54,11.1,1.56-.88,2.67-3.08,2.71-5.05l.16-8.91c.02-1.25.6-1.68,2.01-2.62l-2.34-1.43c-5.65,3.92-11.79,5.88-18.59,6.87l-.14,4.46c1.07-1.4,2.43-2.59,4.02-3.11-4.43,5.79-4.17,6.25-2.66,13.48Z"/>
      <path d="M19.73,45.45c.11,2.99,1.77,5.6,4.89,7.01,2.65-1.96,5.79-3.87,7.52-6.75.96-1.6-.85-3.64-2.09-3.78-1.6-.19-4.2.32-3.77,2.48,1.03-.37,1.86-.75,2.23-.4.32.3.6,1.56.43,2.01-.53,1.4-2.22,1.99-3.63,1.64-1.22-.3-2.44-1.51-2.81-2.98-.63-2.5.55-4.64,1.58-7.12-2.99,1.54-4.46,4.77-4.35,7.89Z"/>
      <path d="M41.77,27.7c-3.3,8.87-8.67,6.57-14.02,9.65-1.85,1.06-3.4,2.68-3.22,4.98,4.03-5.95,10.79-2.34,14.42-6.06,2.26-2.32,2.89-5.58,2.82-8.57Z"/>
      <path d="M10.85,29.83l.81,1.85c1.54-3.43,3.68-4.51,6.97-5.44-1.78-.52-3.77.11-5.58.47-1.72-.75-1.25-3.46-.97-5.27-3.43,1.49-4.36,11.54-2.85,13.47.47-2.03.88-3.36,1.61-5.07Z"/>
      <path d="M30.86,34.13c3.49-.33,7.33-1.21,8.58-4.95-2.95,1.98-5.54,3.47-8.58,4.95Z"/>
      <polygon points="37.35 39.94 32.3 40.33 34.97 42.98 37.35 39.94"/>
      <path d="M43.08,13.26l-.84-.14.85,7.92c.54-1.14.94-7.62,0-7.78Z"/>
      <path d="M25.8,12.25c1.3-.91,2.65-1.61,4.39-2.47-2.16-1.13-4.07.67-4.39,2.47Z"/>
      <path d="M29.69,19.03l-1.04-.52c.37,1.9.22,3.24-.11,5.02.81-.91,2.21-3.96,1.15-4.5Z"/>
    </g>
  </g>
</svg>