<?xml version="1.0" encoding="UTF-8"?>
<svg id="Warstwa_2" data-name="Warstwa 2" xmlns="http://www.w3.org/2000/svg" viewBox="0 0 44.24 60.81">
  <g id="game-icon-v6-elemental-pixarts-store">
    <g id="game-icon-v6-elemental-pixarts-store_274">
      <path d="M30.1,36.43c1.01,13.82-9.84,12.99-11.75,22.31-.73-3.46,1.49-6.44,4.08-8.43,10.45-8.01,3.13-15.21,9.07-23.83.5-.72,2.14-1.22,2.99-.94.86.27,1.58.83,3.21,1.72.13-.96-.78-2.62-1.59-3.14-1.85.16-4.08-1.34-5.42-1.43l-2.93-.21c-.66-.05-1.43-1.44-2.09-2.13-.86.11-2.68.53-3.42.28-.74-.25-1.48-1.71-2.09-2.43-1.71.47-3.5.52-4.46-1.08l-1.42.32c-.34.08-.91-.89-1.31-1.24-.65-.56-2.3.9-2.98,1.5-1.67-.11-3.02-2.65-2.44-4.45C10.52,3.92,19.91-1.5,29.23.36c9.54,1.91,16.1,11.01,14.86,20.9-.31,2.49-.76,5.39-3.42,6.37-1.29.48-3.56.03-5.2-.15-4.79,7.32,5.51,15.58-5.18,22.73-2.3,1.54-3.6,3.42-3.09,6.55-2.66-1.64.46-6.19,2.58-7.7,9.2-6.53-.25-13.35,4.45-22.32-2.85-1.24-4.35,6.69-4.13,9.68ZM22.02,2.63c-3.93.72-7.16,3.24-8.88,6.79,2.61-2.65,5.64-4.92,8.88-6.79ZM37.24,16.3c1.14-3.15-.14-6.63-1.75-9.35l1.75,9.35ZM40.63,20.31c1.67-3.72.42-8.54-2.19-11.79,1.53,3.95,2.55,7.57,2.19,11.79Z"/>
      <path d="M13.81,43.19c-1.78,2.73,2.3,6.67-3.35,10.41-2.25,1.49-2.39,4.44-3.16,7.21-2.07-7.27,5.92-9.93,3.61-15.53-2.28,1.14-3.65,3.4-4.81,5.97-.64-4.11,2.64-6.69,4.35-9.9.35-1.6-1.15-3.83.73-5.38l1.03,4.5,3.37-3.69c3.45-.35,1.05-2.34,4.55-4.66l-.25-7.43c-1.28,4.89-3.45,8.16-7.82,10.2-9.54,4.46-5.47,11.54-8.89,16.39,1.51-8.56-.79-12.87,8.22-18.09,9.61-5.56,2.83-8.47,8.23-13.66.62.96,1.94,2.52,2.89,3.05.52.29,1.92-.65,2.35-1.13,1.17,2.05,2.89,3.09,5.56,2.35.5.96.03,2.48-.85,3.24-1.7,1.47-1.99,3.18-2.7,5.18-.39,1.09-1.38,1.94-.78,3.36.71,1.69,1.33,4.56.31,5.93l-2.04,2.72-2.49,3.16c-1.5,1.91-6.18.21-8.02,10.81-1.05-4.85,1.98-10.35,6.29-12.72.17-4.73,4.42-2.95,3.24-6.65l.82-2.57-2.29-2.17c-.5,2.24-3.47,5.78-5.27,7.66-1.53.08-2.18.47-2.82,1.44Z"/>
      <path d="M14.07,20.08c-1.49,3.96-3.56,7.05-7.12,9.17-9.81,5.84-1.88,14.38-6.95,17.34.62-1.92,1.15-3.84.63-5.7-3.49-12.44,11.56-12.74,11.58-21.01,0-.35-1.44-1.26-1.17-1.47,2.15-1.71.12-.02,4.36.75,2.03.37,2.03,2.97,1.03,4.53l-6.01,9.41c-1.57-4.35,8.33-10.75,3.64-13.02Z"/>
    </g>
  </g>
</svg>