<?xml version="1.0" encoding="UTF-8"?>
<svg id="Warstwa_2" data-name="Warstwa 2" xmlns="http://www.w3.org/2000/svg" viewBox="0 0 58.48 51.58">
  <g id="game-icon-v6-elemental-pixarts-store">
    <g id="game-icon-v6-elemental-pixarts-store_27">
      <path d="M27.21,45.57l-4.4-1-.56-1.72c-1.67.75-3.17-.34-3.48-1.63,2.82.29,5.04.44,7.6.16-2.48-.94-10.25-1.79-11.75-4.29,3.27.6,5.89,1.4,9.25,1.4-2.13-1.92-12.55-3.53-11.39-6.92.42-1.22,8.5,1.42,10.39.96l-.97-.54c-.16-.09-.23-.29-.05-.3l1.11-.08c.25-.02,1-.13,1.25-.17.24-.04-.23-.73-.46-1.36,3.46-.04,7.25.75,10.53-.62l4.02-1.68c1.46-4.59-2.3-9.89-4.74-13.99-1.78-2.99-3.17-5.96-4.43-9.51-1.03,2.56-2.05,5.15-3.36,7.62l-5.2,9.83c-.89,1.68-1.53,4.61-.73,6.06,1.08.96,2.88.46,3.04,2.63-2.87-.89-13.61-2.84-13.76-6.58-.04-1.03.57-2.32,1.13-3.55-1.9.22-3.58,1.75-4.59,3.6-.72-.22-1.08-.39-1.49-.28-.42.11-.73,1.85-.45,2.18,1.49,1.81,4.22,3.14,6.41,4.11-.53,1.13-1.01,2.73-.54,3.71.35.73,1.78,1.53,2.37,2.25l3.61,4.47c-.96,4.89,8.69,6.59,11.64,5.22Z"/>
      <path d="M51.38,18.73c-.25-.46-1.47-.95-1.99-1.06l-5.45-1.09c-1.04-.19-3.05.39-4.5.8,2.71,1.12,10.27,1.7,10.26,5.98,0,3.35-6.22,4.7-9.02,5.2-1.62.29-2.81.96-4.21,1.72-1.65.9-3.35,1.47-5.19,2.32,4.87.02,9.1-.8,14.05-1.55-1.11,2.04-3.06,2.99-5.43,3.97,2.36.44,4.23-1.12,6.71-1.87.26,3.21-8,3.96-10.5,4.97,3.26,1.07,13.42-1.06,12.52-6.86l4.28-2.85-.52-2.81c.86-.96.94-1.9.18-2.68-2.54-2.62-.21-2.37-1.2-4.18Z"/>
      <path d="M30.74,33.87c-3.36.35-6.62-.51-9.88-.73,1.68,2.95,4.99,4.52,8.23,4.55,3.19.03,6.42-1.43,7.99-4.47l-6.33.66Z"/>
      <path d="M30.97,46.01c3.09,1.3,10.25,0,10.88-3.21.28-1.42.51-2.39.82-3.63-.83-.22-1.91,0-2.76.57-2.89,1.9-6.18,1.94-9.42,2.87,3.13.6,5.9,0,9.05-.65-.83,3.18-6.66,2.81-8.58,4.05Z"/>
      <path d="M22.94,4.9c0-2.71-2.19-4.9-4.9-4.9s-4.9,2.19-4.9,4.9,2.19,4.9,4.9,4.9,4.9-2.19,4.9-4.9ZM14.26,4.85c0-2.09,1.69-3.78,3.78-3.78s3.78,1.69,3.78,3.78-1.69,3.78-3.78,3.78-3.78-1.69-3.78-3.78Z"/>
      <path d="M34.75,49.98c.78-.48,1.5-1.64,1-2.2-4.78,3.01-10.89,2.15-13.6-1.68-.89.72-.9,1.99-.11,2.74,3.42,3.22,8.71,3.6,12.71,1.15Z"/>
      <path d="M52.36,17.22l3.21,2.26c1.25,3.79-2.46,3.65-1.58,5.09.13.22.88.5,1.18.47,2.13-.19,3.9-2.54,3.12-4.41-.93-2.26-3.61-3.14-5.94-3.41Z"/>
      <path d="M51.99,45.03c0-2.07-1.68-3.75-3.75-3.75s-3.75,1.68-3.75,3.75,1.68,3.75,3.75,3.75,3.75-1.68,3.75-3.75ZM45.35,44.98c0-1.58,1.28-2.87,2.87-2.87s2.87,1.28,2.87,2.87-1.28,2.87-2.87,2.87-2.87-1.28-2.87-2.87Z"/>
      <path d="M7.82,18.44l11.98-3.19c-4.28-1.78-9.35-.81-11.98,3.19Z"/>
      <path d="M50.68,8.76c0-1.69-1.37-3.05-3.05-3.05s-3.05,1.37-3.05,3.05,1.37,3.05,3.05,3.05,3.05-1.37,3.05-3.05ZM45.34,8.7c0-1.22.99-2.2,2.2-2.2s2.2.99,2.2,2.2-.99,2.2-2.2,2.2-2.2-.99-2.2-2.2Z"/>
      <path d="M11.65,24.32l1.5.92c1.18-2.12,3.09-2.9,5.31-4.27-2.11-1.47-8.93,2.07-6.82,3.35Z"/>
      <path d="M.73,19.73c-1.26,1.43-.88,3.73.98,4.81,2.13-4.94-.96-4.12,3.71-6.87-1.76.07-3.61.83-4.69,2.06Z"/>
      <circle cx="53.38" cy="33.55" r="1.95"/>
      <path d="M44.97,25.47l2.41-2.15c-2.26-1.86-4.1-2.91-7.01-2.6,2.5,2.27,3.09.56,4.6,4.75Z"/>
      <path d="M5.25,41.04c0,1.56,1.26,2.82,2.82,2.82s2.82-1.26,2.82-2.82-1.26-2.82-2.82-2.82-2.82,1.26-2.82,2.82ZM10.06,41.01c0,1.13-.92,2.05-2.05,2.05s-2.05-.92-2.05-2.05.92-2.05,2.05-2.05,2.05.92,2.05,2.05Z"/>
      <path d="M7.75,10.03c-.95,0-1.72.77-1.72,1.72s.77,1.72,1.72,1.72,1.72-.77,1.72-1.72-.77-1.72-1.72-1.72Z"/>
      <path d="M37.11,13.42l5.97,1.45c-1.54-2.08-3.98-2.59-5.97-1.45Z"/>
    </g>
  </g>
</svg>