<?xml version="1.0" encoding="UTF-8"?>
<svg id="Warstwa_2" data-name="Warstwa 2" xmlns="http://www.w3.org/2000/svg" viewBox="0 0 79.03 27.48">
  <g id="game-icon-v6-elemental-pixarts-store">
    <g id="game-icon-v6-elemental-pixarts-store_203">
      <path d="M46.04,19.58c-3.26-1.36-11.87,2.2-17.27,1.84,3.14-1.41,6.06-2.55,9.48-4.41L0,13.43l38.1-3.04c-2.92-2.48-6.41-2.51-9.62-4.76,3.76-.32,14.99,3.41,17.5,2.3,1.38-.61-3.82-3.94-3.14-5.9l9.04,6.36c.27.19.72.88.79,1.17.09.37-.95,1.1-1.41,1.21l-12.57,3c5.06,1.16,9.85,1.4,14.9,3.94-3.53,2.76-6.64,4.9-10.63,7.51.62-2.41,1.8-3.39,3.08-5.66Z"/>
      <path d="M56.39,18.75c-.81-2.05-2.21-3.08-3.98-3.58l-5.26-1.47,6.02-1.87c1.12-.35,2.28-1.59,2.93-2.62.54-1.86,2.3-2.1,3.89-1.64,6.45,1.87,12.44,3.52,19.03,6.1-6.95,2.53-13.09,4.33-19.96,6.3-.73.21-2.16-.56-2.68-1.22ZM65.56,11.58l-6.31-2.33c-.74.3-1.79,1.73-2,2.32,4.37-1.92,4.35.09,8.31,0ZM69.34,15.29l-9.01.59-4.46-1.09,2.96,3.27,10.5-2.76Z"/>
      <path d="M40.8,5.01c-2.81.61-8.84-3.72-6.45-4.76.47-.2,1.08-.23,2.02-.25,1.61,1.67,2.79,2.92,4.44,5.01Z"/>
      <path d="M40.8,22.4c-.88,1.35-5.42,6.88-6.66,4.48-1.33-2.56,4.62-4.61,6.66-4.48Z"/>
      <path d="M27.78,18.27c-3.61,1.15-7.01,1.05-10.36.49,3.52-1.29,7.15-2.13,10.36-.49Z"/>
      <path d="M27.81,9.03c-3.68,1.43-7.22.97-10.44-.48,3.68-.51,6.95-.49,10.44.48Z"/>
    </g>
  </g>
</svg>