<?xml version="1.0" encoding="UTF-8"?>
<svg id="Warstwa_2" data-name="Warstwa 2" xmlns="http://www.w3.org/2000/svg" viewBox="0 0 58.93 55.1">
  <g id="game-icon-v6-elemental-pixarts-store">
    <g id="game-icon-v6-elemental-pixarts-store_30">
      <path d="M54.77,42.68l4.06-3.07v-10.04c0-.65-.7-1.72-1.24-1.93-.46-.19-1.75.11-1.9.57l-1.08,3.45c.53.52,1.6,1.26,1.47,1.82-.18.78-1.01,1.86-1.48,1.52l-1.14-.83c-.21-.15-.72.46-1,.69-1.13.93-2.12.72-3.77.46-1.34-.21-3.31,2.14-3.85,3.35-.13.3.2,1.6.47,1.42l1.04-.72c.47-.33,1.29-.67,1.59-.52-1.4,2.64-4.26,4.19-7.12,3.68l2.19-1.78-5.56.8c-7.44,1.08-18.49-4.88-16.71-12.42.57-2.4,3.48-2.69,5.44-2.19.44-.43,1.16-1.12,1.59-1,1.42.39,1.08,2.96,1.92,3.18.95.11,1.29-1.59.88-2.13-.34-.46-1.04-.94-1.75-1.4l-.1-1.19c-2.18,1.64-7.71-2.57-9.68,3.69-.77,2.45.02,4.92.85,7.63-2.88-2.09-2.53-5.32-3.48-8.82l-1.36,3.35c-2.13-3.29-1.62-6.44-1.23-9.99l-3.37,3.86c.47-2.2,1.31-3.9,2.27-5.96-2.73,1-3.46,3.67-4.11,6.21l-.19.73c-.03.13-.21.12-.31.04l-.76-.56c.1,2.08-.42,4.81.16,6.83,1.6,5.55,5.84,10.33,11.57,11.24-5.61-3.3-9.72-8.85-7.89-15.26,1.09,3.92,2.25,7.18,4.55,9.79l.16-1.09,6.99,3.9c2.21,1.23,4.18,2.2,6.53,3.32l-4.61-.03c5.87,3.41,7.24,1.8,12.99,1.5l-3.37,2.26c.45.1,2.29.4,3.02.14l8.64-3.04c-3.03,3.95-8.01,5.78-12.54,5.59l2.27-1.26c-4.36.05-8.43,1.48-11.06-2.54l.98-1c-4.13-.75-.59-3.81-7.03-4.99-.08.93,4.33,2.5,3.62,3.12l-1.16,1.02c1.7.61,3.23,1.38,2.72,3.28l-3.17-.7c3.67,3.16,3.98,3.65,8.55,4.04l-.84.76c6.83.92,14.72-.71,20.78-4.82-1.72,3.85-5.61,5.35-9.3,6.84,4.57.23,8.42-2.4,11.69-5.56.8-.77,1.85-1.33,2.66-1.34-.82,3.65-4.16,4.41-6.59,6.97,4.13-.13,12.9-7.05,10.95-11.59-1.73.45-2.4.7-3.88.74ZM52.47,41.87c-1.35,1.76-2.27,3.75-4.53,4.18-.06-.2,4.9-7.2,4.53-4.18Z"/>
      <path d="M5.49,38.56l-2.19-5.01c-1.85-4.24-1-8.76,1.41-12.59l.6,1.08c2.14-4.7,4.01-9.28,9.64-8.92l-3.56,2.57c2.9-.79,6.99-3.19,9.23.84-4.26,1.83-6.27,5.98-5.51,10.3.84-3.94,2.17-7.6,6.03-8.69l2.47-.7c.6-.17,1.29.87,1.65,1.73.18,0,.8-.27.87-.54.07-.27-.02-1.13-.16-1.41l-1.53-2.88c2.01-.13,2.69,1.06,3.44,2.37l1.9.02,1.05,3.01c.2.56-.32,2.31.25,2.46.87.24,2.52-.53,2.59-1.26.09-.88.08-2.12.08-3.15,0-.76.67-2.71.13-3.33l-2.18-2.5c1.63-.52,2.81,1.41,3.38.6,1.53-2.2-5.11-4.32-8.11-3.34-.2-.4-.17-1.5.15-1.49l1.56.08c.52.03,1.08-.02,1.4-.14.32-.13-.21-1.19-.49-1.58-.96-1.36-3.74-.01-5-.36-5.97-1.65-2.95.44-9.73,2.42.03-.74.3-1.68-.01-1.71-2.51-.24-5.16,2.56-6.66,4.61-.82,1.12-1.64,1.33-3.25,1.1l-2.2,5.07-.81-.56c-2.98,6.76-2.51,16.95,3.53,21.88Z"/>
      <path d="M5.01,44.3c.13,1.23.43,2.59,1.11,2.59.93,0,1.72,0,2.2.04.89.08.38,2.36,2.4,3.02,4.07,1.35.36,4.87,8.28,5.14-1.27-1.8-4.19-.93-4.63-3.85,5.16,2.41,10.26,3.49,15.45,2.45-7.56-1.53-9.39-.9-15.17-6.46-.64-.62-2.91.11-2.44-2.08l1.97-.06c.64-.57.07-2.11-.88-2.58-.55-.27-1.54.08-2.19.14-1.34-.43-2.19-.5-3.43-.62-3.97-.37-6.15-4.5-7.64-7.77-.63,5.36,4.01,7.57,4.19,10.47.3-.17.78-.45.77-.44Z"/>
      <path d="M38.93,37.53l1.63-.68c.04,3.57.48.13,3.44-.28l1.24-.17c1.32-.18-2.96-4.38-7.48-1.33-2.31,2.44-5.28,3.87-8.9,4.03,5.33,2.69,10.86-4.53,10.32-2.44l-.23.87Z"/>
      <path d="M43.44,7.43c.86,0,1.56-.7,1.56-1.56s-.7-1.56-1.56-1.56-1.56.7-1.56,1.56.7,1.56,1.56,1.56Z"/>
      <path d="M38.06,31.24c.83,0,1.51-.67,1.51-1.51s-.67-1.51-1.51-1.51-1.51.67-1.51,1.51.67,1.51,1.51,1.51Z"/>
      <circle cx="42.13" cy="24.8" r="1.49"/>
      <path d="M17.24,4c.45-.01,1.42-.08,1.99-.15.49-.06,1.32-1.37,1.01-1.69-.88-.9-2.45-.67-3.3.5-.21.29-.06,1.35.3,1.34Z"/>
      <path d="M36.11,24.51c.65.06,1.03-1.65.74-2.17-.29-.52-1.27-1.27-1.77-1.28-.59,1.09-.48,3.32,1.03,3.45Z"/>
      <path d="M5.79,10.18c.28-.15.91-.52,1.46-.86.37-.23.36-1.49,0-1.73-.37-.24-1.6-.09-1.82.29-.33.55-.57,1.14-.58,1.53,0,.31.68.93.95.78Z"/>
      <path d="M55.83,20.71c.75,0,1.36-.61,1.36-1.36s-.61-1.36-1.36-1.36-1.36.61-1.36,1.36.61,1.36,1.36,1.36Z"/>
      <circle cx="45.42" cy="12.81" r="1.32"/>
      <path d="M26.89,2.44c.67,0,1.22-.55,1.22-1.22s-.55-1.22-1.22-1.22-1.22.55-1.22,1.22.55,1.22,1.22,1.22Z"/>
      <path d="M54.02,25.72c.67,0,1.21-.54,1.21-1.21s-.54-1.21-1.21-1.21-1.21.54-1.21,1.21.54,1.21,1.21,1.21Z"/>
      <path d="M5.01,31.43l-.03-6.91c-1.06,2.45-1.23,4.78.03,6.91Z"/>
    </g>
  </g>
</svg>