<?xml version="1.0" encoding="UTF-8"?>
<svg id="Warstwa_2" data-name="Warstwa 2" xmlns="http://www.w3.org/2000/svg" viewBox="0 0 59.32 52.44">
  <g id="game-icon-v6-elemental-pixarts-store">
    <g id="game-icon-v6-elemental-pixarts-store_450">
      <path d="M45.74,43.1l1.63-4.58-1.98.14c1.23-.47,3.95-.86,3.98-2.36l.09-6.23-9.03-4.81-1.76-3.93-1.64,3.96c-.33-.98-1.52-2.61-2.48-2.38-1.75.43-3.17,1.26-4.85,1.48-2.1.27-4.39-3.26-7.99-.16l-1.18-1.8c-1.03,2.33-1.89,3.26-3.51,4.58-1.2.98-1.97,3.21-2.92,4.48-.75,1-1.27,1.6-1.33,2.91l7.24-4.22.35,1.93,2.89-2.72,1.79-1.67c-3.19-.71-4.16,1.81-7.95.89l6.29-1.49c2.09-.49,4.53-.36,6.38-2.49,2.5,2.71,5.28,3.22,8.85,2.91l-3.49.79,1.97,3.03.88-1.78,4.24,2.55.27,2.56c.75-.79,1.18-1.8,1.61-1.56l1.72.94c.2.11.75.29.99.36.21.06.13-.58,0-.75l-.45-.57c-.75-.95-1.43-1.66-2.55-1.69l-.11-3.56c1.46,4.31,4.1,4.42,4.68,7.06-6.4,3.39-3.51,3.68-8.13,8.48l-4.69,1.7.76,4.14,8.32-4.83c.23-.13.69-1.11.76-1.28.07-.17.15-.05.72.46l7.49-4.82-3.15-2.5-4.71,6.83Z"/>
      <path d="M29.85,19.86l.17,4.2,4.6-1.91-1.21-6.37-.94.07c1.07-2.25-1.69-13.11-2.68-15.84l-1.97,6.32c-.65,2.07-1.78,5.26-1.08,7.26.16.45,1.26,1.46,1.13,1.73l-1.49-.49-1.48,7.48,4.41,1.57.14-18.75c.82,5.5.15,8.8.4,14.74Z"/>
      <path d="M29.86,27.99c-.83,1.54-1.4,2.93-1.66,4.4l1.46,3.35.89-.71-.49,5.09c-.13,1.37-.32,2.67-.55,4.2-.89-4.35,1.4-6.47-1.6-10.95-1.98,5.99-1.85,5.24-.44,10.46l-1.26-3.15-2.44,8.82,5.1,2.89,1.75-3.25.63-3.77,1.85-3.29-2.02,6.62-1.1,3.74,5.78-2.96-1.95-6.47c-1.1-3.66-2.19-10.36-3.96-15.02Z"/>
      <path d="M8.38,35.73c1.48-1.48.21-3.21.26-4.39.19-5.13.11-10.08-.23-14.76l-2.11,6.69,1.03-5.96-3.12,7.44c-1.21,2.88,1.95,1.03.95,7.8-.92-1.48-.23-4.92-1.76-5.57l-3.41,8.99,4.57,2.73,1.27-4.47-.2,3.25c.94-.53,2.2-1.22,2.74-1.76Z"/>
      <path d="M19.93,44.12c.7-2.04-5.66-4.14-7.3-6.14-.13-1.06-.59-2.2-1.34-2.38-1.25-.31-1.75.31-2.6.97l-2.92,2.28c2.53,1.7,4.26,2.66,6.71,3.65l-.59-1.68c1.2,1.53,1.82,2.65,3.08,3.43l7.84,4.84.98-3.66c-.92-1.07-2.36-1.43-3.85-1.31Z"/>
      <path d="M55.33,25.62l-3.15-7.89,1.05,7.23-2.25-8.54c-.23,5.01-.39,9.72-.29,14.73.02,1.19-1.2,3.09-.04,4.35.83.89,1.78,1.5,2.96,2.27l.18-3.37.71-6.71c.05-.51,1.01-1.65.83-2.08Z"/>
      <path d="M54.67,38.41c2.04-.5,3.49-1.41,4.65-2.55l-2.89-7.62c-1.78-4.7-2.29,10.19-1.76,10.18Z"/>
      <path d="M24.53,41.71l-5.49-3.13-3.11.72c4.72,2.59,3.13,3.42,8.24,4.95.23-1.22.39-2.17.36-2.54Z"/>
      <path d="M42.33,37.54c-1.11.21-1.93,1.27-2.79,1.69l-4.7,2.32c.02.6.45,1.86.74,2.3,3.89-.5,6.2-2.82,6.75-6.31Z"/>
      <path d="M10.24,29.79c-.3.82-.39,2.69.19,3.13.27.21,1.28.41,1.17.22-.31-.51,3.18-3,3.92-5.97-1.63.65-3.63,1.65-5.27,2.63Z"/>
    </g>
  </g>
</svg>