<?xml version="1.0" encoding="UTF-8"?>
<svg id="Warstwa_2" data-name="Warstwa 2" xmlns="http://www.w3.org/2000/svg" viewBox="0 0 38.65 57.72">
  <g id="game-icon-v6-elemental-pixarts-store">
    <g id="game-icon-v6-elemental-pixarts-store_01">
      <path d="M2.38,34.52c-.31-.75-1.43-1.75-2.38-2.17,1.04-.41,1.95-1.43,2.43-2.57l.61,1.48c.17.41,1.22.7,1.86.92-1.04.47-2.14,1.46-2.53,2.34Z"/>
      <path d="M35.18,25.68l-.95-2.45c-.25-.64-1.86-.98-2.98-1.38.61-.21,2.27-.37,2.63-.82.41-.52.79-1.6,1.11-2.36l1.08,2.29c.24.5,1.71.6,2.58.9-1,.38-2.16.59-2.66,1.04s-.64,2.01-.81,2.79Z"/>
      <path d="M18.37,48.88l-11.28-3.28,3.32-35.39,7.9,2.5.05,36.18ZM15.96,16.23l-1.8.69c-.2.08-.58-.34-.5-.52l.6-1.47c.11-.26-.85-.25-1.66-.35l.12,4.62c0,.24,1.2.99,1.41.83l.48-.36-1.07-1.76,1.82-.26c.35-.05.62-1.2.6-1.41ZM15.45,29.1c.63-2.66.73-3.99.05-6.15l-.76,3.67-2.54-4.78c-.74,2.31-.87,3.88-.31,6.15l.89-2.55,2.67,3.65ZM13.88,35.4l-.9-.9c-.32-.32,2.98-.81,2.04-2.27l-3.98,2.18,2.97,2.34c.2.16.97-.26.8-.43l-.94-.93ZM11.99,39.83c2.71,1.59,1.6,3.57,2.14,5.79,1.89-3.37.57-5.66-3.32-7.62l-.28,6.6c1-1.89,1.07-3.18,1.46-4.77Z"/>
      <path d="M30.8,45.58l-11.21,3.53-.1-36.28,7.95-2.67,3.35,35.42ZM23.99,20.05l1.49-3.01-1.88-1.99c-.24.76-.85,2.04-1.31,2.7l1.69,2.3ZM22.15,28.38l1.41-1.59,3.17,1.75c-.1-2.44-.28-4.12-.83-6.15l-1.68,3.06-2.12-2.38c-.14,2.22-.13,3.38.05,5.3ZM24.03,35.31l2.72-4.38c-1.47.78-1.92,1.24-2.68,1.94l-1-2.52c-.57,2.53-.44,4.41,0,6.94,2.09-1.24,3.32-2.3,3.72-4.08l-2.77,2.1ZM27.49,44.05l-1.4-1.91c-.24-.33.7-1.02,1.39-1.72-1.2-.73-2.52-1.33-4.34-1.96l.47,7.26c.66-1.14.91-1.84,1.19-2.71l2.7,1.05Z"/>
      <path d="M36.24,52.28l-16.62,5.44c-.14-2.03-.14-3.19-.06-4.46l14.74-4.74,1.94,3.76Z"/>
      <path d="M18.3,57.69L1.9,52.38c.42-1.29.88-2.38,1.64-3.89l14.86,4.81-.09,4.39Z"/>
      <polygon points="18.39 11.87 10.57 9.5 18.34 0 18.39 11.87"/>
      <path d="M27.23,9.28c-2.32,1.13-4.54,1.85-7.63,2.65l-.11-11.85,7.74,9.2Z"/>
      <path d="M18.28,52.19l-13.35-4.2c.31-.54,1.65-1.49,2.37-1.27l10.91,3.31.07,2.16Z"/>
      <path d="M20.26,52.01c-.38.12-1.05-1.1-.77-1.36s1.07-.82,1.49-.95l9.8-3.05c.61-.19,1.87.7,2.17,1.31l-12.68,4.06Z"/>
    </g>
  </g>
</svg>