<?xml version="1.0" encoding="UTF-8"?>
<svg id="Warstwa_2" data-name="Warstwa 2" xmlns="http://www.w3.org/2000/svg" viewBox="0 0 59.05 59.09">
  <g id="game-icon-v6-elemental-pixarts-store">
    <g id="game-icon-v6-elemental-pixarts-store_299">
      <path d="M22.68,59.09c-7.01-2.02-11.94-8.02-13.92-14.72-2.4-8.12.4-16.62,6.98-21.74,4.3-3.34,10.02-4.34,14.87-2.09,3.02,1.4,4.77,3.82,5.71,7.06,1.56-3.78-.08-7.91-3.28-10.45-3.15-2.51-7.3-3.3-11.44-2.72C10.07,16.05,1.6,25.17.11,36.9-1.38,21.93,12.01,10.46,27.09,10.94c-7.32-2.02-14.51.05-21.28,4.41,4.4-5.49,11.51-8.31,18.78-8.1,6.28.18,11.94,3.24,15.23,8.49,3.67,5.86,2.93,13.35-2.39,17.89-.96.82-2.56,1.45-3.66,2.08,7.72.24,11.37-7.19,12.43-13.99l-.53,7.33c1.18-1.99,1.96-4.31,2.15-6.8.73-9.55-4.21-17.25-12.68-22.26,10.49,2.94,17.48,13.39,15.9,24.32-1.08,7.49-5.91,13.44-13.07,15.72-6.3,2.01-14.58-1.56-15.09-8.64-1.89,4.78.51,10.19,5.31,12.54,4.82,2.36,10.24,2.13,15.19.04,8.57-3.63,14.42-11.27,15.45-20.33.91,5.23-.96,10.15-3.95,14.41-5.21,7.43-13.71,10.96-22.6,11,7.3,2.2,14.04-.55,20.59-4.04-5.32,5.93-13.29,8.93-21.06,7.47-7.7-1.44-13.75-7.4-14.5-15.14-.57-5.88,2.7-10.92,7.81-13.02-2.75-.27-5.24,1.09-7.24,2.83-3.52,3.07-4.08,7.4-4.7,12.13-.41-2.99.14-5.89.62-9.33-5.83,10.47-1.21,22.49,8.89,29.13Z"/>
    </g>
  </g>
</svg>