<?xml version="1.0" encoding="UTF-8"?>
<svg id="Warstwa_2" data-name="Warstwa 2" xmlns="http://www.w3.org/2000/svg" viewBox="0 0 55.08 55.25">
  <g id="game-icon-v6-elemental-pixarts-store">
    <g id="game-icon-v6-elemental-pixarts-store_537">
      <polygon points="9.1 35.72 0 55.25 19.63 45.87 12.37 45.22 46.08 12 47.95 17.1 55.08 0 38.1 7.21 43.25 9.45 9.21 43.67 9.1 35.72"/>
      <path d="M17.05,32.81l-.27-6.32c-.22-5.11,6.53-1.58,9.69-7.58-.03-.77-.5-2.77-.13-3.43,2.08-3.67,8.77-1.57,12.05-3.9l-6.31.36c.08-1.65.47-3.45.85-5.25-1.4.75-1.81,2.71-1.81,4.57l-6.52,3.47c.29,1.5.54,4.58-.68,5.2-2.76,1.4-5.54,1.93-8.41,2.73-2.77,11.96,1.31,4.31-1.6,12.75.91.43,3.2-1.25,3.14-2.59Z"/>
      <path d="M25.11,37.24l.52.86c.09.15.58-.04.84-.06l4.05-.29-2.96,6.66c1.56-.77,2.09-2.16,2.66-3.59l1.7-4.25c.79-.37,2.55-1.03,3.62-1.39,4.85-1.62.93-5.07,2.55-7.97,1.55-2.76,5.94-1.37,8.06-4.07l-2.01-6.63-.09,4.2c-.03,1.32-.76,2.7-2.34,2.81-2.83.18-6,2.05-5.75,5.15.12,1.45.26,3.45.29,4.58l-4.34,1.7c-2.22,1.55-4.01,2.15-6.8,2.3Z"/>
    </g>
  </g>
</svg>