<?xml version="1.0" encoding="UTF-8"?>
<svg id="Warstwa_2" data-name="Warstwa 2" xmlns="http://www.w3.org/2000/svg" viewBox="0 0 56.09 56.09">
  <g id="game-icon-v6-elemental-pixarts-store">
    <g id="game-icon-v6-elemental-pixarts-store_284">
      <path d="M56.09,28.05c0,15.49-12.56,28.05-28.05,28.05S0,43.53,0,28.05,12.56,0,28.05,0s28.05,12.56,28.05,28.05ZM54.68,28.08c0-14.71-11.92-26.64-26.64-26.64S1.41,13.37,1.41,28.08s11.92,26.64,26.64,26.64,26.64-11.92,26.64-26.64Z"/>
      <path d="M48.2,28.07c0,11.14-9.03,20.17-20.17,20.17S7.86,39.21,7.86,28.07,16.89,7.9,28.03,7.9s20.17,9.03,20.17,20.17ZM20.35,14.7l4.65-5.38c-6.55,1.21-12.49,5.39-14.23,12.07,2.68-3.39,6.01-4.7,9.58-6.69ZM34.12,14.74c-1.45-2.38-2.75-3.63-4.54-5.29-2.94-1.14-6.24,2.74-7.98,5.5,4.27-1.38,7.88-1.31,12.53-.2ZM44.94,20.27c-2.38-6.24-7.81-10.29-14.29-10.86,7.95,8.69,4.92,4.13,14.29,10.86ZM41.32,28.1c0-7.34-5.95-13.28-13.28-13.28s-13.28,5.95-13.28,13.28,5.95,13.28,13.28,13.28,13.28-5.95,13.28-13.28ZM44.63,21.56c-2.56-2.44-4.89-4.28-7.93-5.23,2.82,3.1,4.8,6.31,6.09,10.57.68-1.47,1.39-3.37,1.84-5.34ZM13.16,26.49c1.7-3.71,3.4-6.5,5.58-9.85-2.94,1.12-5.48,2.74-7.28,5.31.03,1.4.98,3.52,1.7,4.54ZM12.71,27.79l-2.63-5.64c-1.22,3.81-1.35,7.99.03,11.79l2.6-6.15ZM46.01,33.45c1.31-3.76,1.27-7.41-.21-11.04l-2.47,5.68,2.67,5.36ZM18.6,39.45c-2.57-3.44-4.25-6.48-5.38-10.01-.91,1.37-2.13,3.56-1.9,5.09,1.95,2.5,4.51,4,7.28,4.92ZM45.29,34.34l-2.42-5.16c-1.38,4.27-3.13,7.49-6.19,10.63,3.57-.94,6.02-2.89,8.62-5.47ZM10.92,35.5c2.27,6.25,7.82,10.3,14.14,11.23-7.97-9.66-6.76-4.21-14.14-11.23ZM30.54,46.9c6.58-.85,12.08-4.92,14.47-10.79-10.53,7.56-5.01.82-14.47,10.79ZM29.89,46.45l4.5-5.05c-4.86,1.37-8.46,1.13-12.96-.27,2.07,2.83,5.37,7.31,8.46,5.32Z"/>
      <path d="M51.22,37.99l-.41,1.18c-.05.15-.44.51-.51.37l-.58-1.06-1.68-.25c-.43-.06-.45-1.64-.26-2.24.25-.77,2.03.19,2.42.94l1.06-.08c.22-.02.07.87-.03,1.15Z"/>
      <path d="M26.88,3.79l2.09,3.01-2.28-.02.64-.9c-.52-.69-1.25-1.8-.97-2.32.28-.52,1.65-1.08,2.24-.95.66.14,1.42,1.65.93,2.1-.22.2-.64.59-.75.68-.17.13-.76-.48-.62-.63l.82-.88c.29-.31-1.38-.26-2.1-.09Z"/>
      <path d="M51.3,18.6c-.11,1.15-2.19,2.36-3.49,1.79l.77-1.01c.19-.25-.26-.61-.92-1.29l3.45-1.52-1.34,1.62c-.09.11-.12.5.02.5l1.52-.08Z"/>
      <path d="M7.33,19.34l.18.99c.04.23-.51.66-.63.46l-.83-1.34c-.14-.23-.75-.15-.87-.16l-.09-2.66c1.25.85,1.94,1.21,3.39,1.69.07.05.33.53.13.55-.25.02-1.31.26-1.27.48Z"/>
      <path d="M38.68,51.16c-.46-.25-1.12-1.15-1.5-1.77-.26.22-.77.7-1.04.48l-1.39-1.1,3.59-1.19-.14,2.31.95-.28c.19-.05.4.28.53.43s-.82,1.23-.99,1.14Z"/>
      <path d="M10.7,10.66l-1.44,1.68c-.07-1.31.82-2.4,2.21-3.05l.42,5.23c-1.04-1.09-.9-2.05-1.2-3.87Z"/>
      <path d="M45.79,12c-1.06-.47-1.81,1.45-2.12,1.07l-.91-1.11,2.62-2.24c.77.29,1.88,2.1,1.69,2.85l-1.28-.56Z"/>
      <path d="M18.92,7.62l-.97,1.15-.11-2.74-.92.06c-.17.01-.22-.18-.33-.37-.1-.16.81-.79.95-.67l3.22,2.69c-.26.22-.91.14-1.83-.12Z"/>
      <path d="M12.39,44.03c-.59.01.64,2.08-.09,1.67l-.79-.44c-.44.15-1.32.73-1.51.37l-.92-1.77,1.17.51c.65.28,1.49-1.75,2.14-1.26l1.18.9-1.17.03Z"/>
      <path d="M4.93,37.81l2.12,1-1.17.62c-.37.2-1.04-1.07-.99-1.48.09-.68.62-1.57,1.08-1.88.69-.45,2.07-.55,2.76.09l-3.81,1.64Z"/>
      <path d="M19.86,48.52c-.09-.35-1.04.1-1.19.44l-.99,2.29.26-4.25,3.23,1.61c-.25.67-.96.89-1.16.99-.14.07-.08-.84-.15-1.08Z"/>
      <path d="M38.59,28.02c0,5.8-4.71,10.51-10.51,10.51s-10.51-4.71-10.51-10.51,4.71-10.51,10.51-10.51,10.51,4.71,10.51,10.51ZM26.52,24.58l-2.15-.22,2.38-2.13c.63-.56.33-2.67.06-3.33-5.21.65-8.61,5.13-8.08,10.01.47,4.36,3.91,8.4,8.91,8.49.21-1.05.21-2.73-.02-3.77l-3.35-1.43,3.45-.35-1.19-7.27ZM33.02,30.46c-2.86,4.11-3.57.93-4.38,6.91,5.25-.2,8.75-4.64,8.72-9.39-.03-5.08-3.89-9.31-9.28-9.13l.56,3.58,3.31,1.47-4.26.33,1.53,7.75,3.81-1.53Z"/>
    </g>
  </g>
</svg>