<?xml version="1.0" encoding="UTF-8"?>
<svg id="Warstwa_2" data-name="Warstwa 2" xmlns="http://www.w3.org/2000/svg" viewBox="0 0 44.33 52.34">
  <g id="game-icon-v6-elemental-pixarts-store">
    <g id="game-icon-v6-elemental-pixarts-store_342">
      <g>
        <path d="M16.77,35.72l5.65-5.84c-12.69-1.04-9.4,1.66-18.25,7.6-1.06.71-2.44.87-3.32.23-1.07-.78-1.16-2.77-.15-3.67l10.35-9.18,11.37-1.03,5.11-6.53-4.72,1.29-9.82-2.84c-.9-.26-1.71-1.7-1.44-2.46,1.12-3.25,6.65.87,11.6.77,2.92-.06,5.35-2.6,8.47-2.32,2.65.24,6.95,1.97,8.54,4.31,2.07,3.06,2.8,6.75,4.15,10.25l-5.46,9.22c-.38.64-2.05.94-2.56.58s-1.14-1.8-.79-2.43l3.99-7.1c.18-1.47-1.01-4.02-1.71-5.42-2.89,3.54-5.06,7.26-8.38,10.23l-7.55,6.74-1.44,11.94c-.15,1.23-1.44,2.23-2.51,2.27-.92.04-2.58-1.14-2.52-2.25.27-4.92.66-9.29,1.39-14.36Z"/>
        <circle cx="39.54" cy="8.09" r="4.75"/>
        <path d="M28.85,38.02c-1.56,1.7-2.77,4.06-4,6.37.06-2.44,1.23-4.89,2.95-6.5l3.81-3.57c-2.5,5.04-2.8,9.31-2.56,14.45-1.98-3.45-.35-6.5-.21-10.75Z"/>
        <path d="M27.61,6.66c-7.85.76-4.14-2.3-14.35-2.44,1.9-1.08,8.19-3.14,8.68.77,1.56.85,3.18,1.21,5.67,1.67Z"/>
        <path d="M19.64,8.64c-5.58-.99-10.61-1.17-16.63-.51,5.16-2.57,11.24-1.92,16.63.51Z"/>
      </g>
      <path d="M29.98.85c-3.27.69-6.7.9-10.58.07,3.27-1.39,6.63-1.04,10.58-.07Z"/>
    </g>
  </g>
</svg>