<?xml version="1.0" encoding="UTF-8"?>
<svg id="Warstwa_2" data-name="Warstwa 2" xmlns="http://www.w3.org/2000/svg" viewBox="0 0 51.96 52.31">
  <g id="game-icon-v6-elemental-pixarts-store">
    <g id="game-icon-v6-elemental-pixarts-store_245">
      <path d="M29.93,23.22l4.03-4.52-4.83-3.67-11.7,8.07,6.37,3.99-6.24,6.62c1.31,1.37,2.59,2.45,4.31,3.5l14.39-9.97-6.32-4.03Z"/>
      <path d="M5.7,39.88c-.84-2.49-1.56-4.06-1.05-6.13,6.7-7.51,9.99,6.35,22.09,8.53,4.55.82,9.44-.66,11.99-4.54,3.07-4.66,1.62-10.68-2.22-14.27,1.88,4.34,2.47,8.88-.33,12.58-3.3,4.37-9.3,4.95-14.03,2.45-5.66-2.74-8.25-9.81-14.72-9.61-3.36.1-5.38,2.81-4.86,6.11.65,1.94,1.73,3.65,3.14,4.89Z"/>
      <path d="M11.83,21c.06,3.48,1.54,6.91,4.34,9.02-1.83-3.93-2.9-7.85-.92-11.71,2.55-4.99,8.75-6.78,13.81-4.21,2.57,1.31,4.65,3.25,6.82,5.19,3.25,2.9,8.62,6.27,12.02,2.19,2.31-2.77.5-7.19-2.44-9.03.85,2.33,2.16,4.28.86,6.49-2.96,5-10.36-2.21-12.68-4.12-4.08-3.38-9.14-5.08-14.22-3.53-4.42,1.36-7.68,5.03-7.6,9.72Z"/>
      <path d="M36.75,16.14L51.96,0c-7.02,4.11-12.9,8.31-19.24,12.64l4.03,3.5Z"/>
      <path d="M14.49,36.66c-5.1,5.33-9.85,10.03-14.49,15.65l18.16-12.56-3.67-3.09Z"/>
      <path d="M34.15,43.75c4.3.21,7.37-2.82,8.83-5.76,1.74-3.5,1.59-7.74-.76-10.63,1.82,7.56-1.73,13.52-8.07,16.39Z"/>
      <path d="M17.98,9.52c-4.3-.34-7.49,2.57-8.88,5.56-1.61,3.48-1.12,7.34.87,10.36-1.89-7.45,1.73-13.21,8.01-15.92Z"/>
      <path d="M12.76,47.64c1.71,2.16,5.44,3.47,7.82,1.12,2.23-2.19,1.28-5.93-1.02-7.71.3,2.03.96,4.15-.05,5.61-1.55,2.25-4.19,1.99-6.76.98Z"/>
      <path d="M31.32,11.3c-.11-1.89-.88-3.72.36-5.06,1.38-1.48,3.38-.91,5.55-1-1.93-1.2-4.63-1.99-6.8-.4-2.14,1.57-1.16,5.09.89,6.47Z"/>
      <path d="M34.93,33.36c-2.34,2.88-5.34,3.32-8.98,4.05,3.15.91,8.35-.41,8.98-4.05Z"/>
      <path d="M17.6,18.26c2.45-1.83,4.96-2.75,8.09-2.8-2.79-1.43-6.65-.19-8.09,2.8Z"/>
      <polygon points="24.64 6.25 22.93 4.2 21.24 6.21 22.87 7.79 24.64 6.25"/>
      <path d="M28.82,46.57l-1.73-1.88-1.68,1.91c.47.45,1.42,1.55,1.83,2.1.27-.76,1.12-1.93,1.59-2.12Z"/>
    </g>
  </g>
</svg>