<?xml version="1.0" encoding="UTF-8"?>
<svg id="Warstwa_2" data-name="Warstwa 2" xmlns="http://www.w3.org/2000/svg" viewBox="0 0 52.36 51.92">
  <g id="game-icon-v6-elemental-pixarts-store">
    <g id="game-icon-v6-elemental-pixarts-store_513">
      <path d="M43.94,5.61l-13.98,10.71,4.93,4.97-26.93,11.57,5.98,7.16L0,51.62c3.58.36,6.38.33,9.86.26l11.8-11.54-5.16-5.85,5.98-2.68.08,4.09c2.61.19,4.25,1.56,5.28,3.92-3.15.2-3.35,2.52-4.75,4.35l-5.15,2.14c.3.97,6.12-1.13,6.43-1.4.43-.39.69-1.87.87-2.76l3.99-2.45-2.76-3.44-2.85-.79c-.62-2.87,1.02-4.6,3.49-5.72,5.38-2.44,10.47-4.88,15.72-7.6l-6.91-5.7,10.62-8.78,2.15,3.17,3.69-10.81-11.56,3.23,3.14,2.38Z"/>
      <path d="M6.86,32.18c.31-.77.62-2.1.93-2.68.31-.58,1.93-.62,2.67-.59,5.07.17,1.32-4.21,5.95-4.68-2.73-2.14-3.01,2.26-4.29,2.65l-7.07,2.13c.72,1.95.82,3.19-.43,4.72-1.83,2.24,3.18,2.13,2.19,7.31,3.75-2.37-1.42-5.28-.93-6.48l.97-2.39Z"/>
      <path d="M44.87,23.34l-3,3.52c-2.91-1-5.05-.12-5.92,2.71-1.33.38-1.79.57.14.85,3.67-7.01,4.11,2.25,9.89-7.4l-1.5-4.55c-.51,1.45-.34,3.12.4,4.87Z"/>
      <path d="M35.74,9.54l3.02-2.85c-1.48.05-2.37,1.14-3.19,2.07-2.34-.88-4.71-.2-5.84,2.14l-1.37,2.85c3.2-.25,1-5.77,7.38-4.21Z"/>
    </g>
  </g>
</svg>