<?xml version="1.0" encoding="UTF-8"?>
<svg id="Warstwa_2" data-name="Warstwa 2" xmlns="http://www.w3.org/2000/svg" viewBox="0 0 47.77 47.73">
  <g id="game-icon-v6-elemental-pixarts-store">
    <g id="game-icon-v6-elemental-pixarts-store_120">
      <path d="M13.33,36.84c2.1-5.09,6.83-5.52,8-6.48l3.03-2.47c1.14-.93,2.83-.34,3.23-2.12l-2.62.24c.04-2.9.52-5.85,3.72-6.7.87-.23,2.71.32,3.09,1.12-.3,4.43,1.73,5.64,5.6,6.92.55-2.45.05-5.5-2.29-6.59l-4.43-2.08c1.35-.64,2.87-.95,4.12-.79,2.03,2.43,4.94,3.57,7.96,2.21,1.75-.78,3.35-1.93,5.02-3.12l-2.49-1.54c-7.2-4.46-9.06-.06-10.68.8-1.85.99-4.17,1.23-6.27,1.31,1.78-1.51,3.05-2.7,4.43-4.52l4.3-.6c4.82-.67,5.7-7.03,7.01-10.91-4.93,0-12.8,1.98-12.05,8.37.27,2.28-.58,3.63-2.33,4.81l-4.28,2.9c1.93-5.55,7.26-8.56,4.07-13.51-.93-1.45-2.16-2.74-3.67-4.1-2.12,4.02-3.37,9.19,1.59,11.86-.53,1.3-1.13,2.38-2.13,3.7l-1.3-4.62c-1.11-2.15-3.95-2.21-6.08-2.34.22,3.89,2.6,5.83,6.13,6.27.94.11.44,2.49-.19,3.06-1.42,1.27-1.53,2.69-1.62,4.59-.08,1.65-1.28,4.23-2.79,5.07-2.47,1.38-5.8,1.99-7.2,4.62-1.62,3.04-2.4,6.14-6.2,7.85l1.41.52c-3.18-.1-5.69,4.17-7.43,7.16l2.68-.09c4.22-6.49,8.27-5.03,10.65-10.8ZM37.54,15.51l-.41,1.12c.96-.09,2.15-.35,3.04-.65l.21.85c.05.22.94-.08,1.14-.19l.76-.41c.11-.06.08.44.07.57l-.04,1.02-2.22-.74c-1.54,1.47-3.5-.65-3.22.43l.28,1.1-2-1.58,2.4-1.51ZM32.98,8.2l.59,2.89c1.19-1.78,1.15-3.55,1.63-5.82l.27,3.65c1.18-1.38,1.64-2.6,2.24-4.43l.21,1.66,2.57-1.84-.89,1.36c-.15.23.7.48,1.16.74-1.43.09-2.63.36-3.61,1.51l2.5.54c-1.99.37-3.46.08-4.6,1.72l2.49.35c-2.03.41-2.98.62-4.77,1.38l.21-3.71ZM26.49,9.4c.3-.18,1.05-.69.96-.9l-1.53-1.98,1.05.24.23-2.72c.15,4.78,2.3,5.09.59,7.1l-1.31-1.73Z"/>
    </g>
  </g>
</svg>