<?xml version="1.0" encoding="UTF-8"?>
<svg id="Warstwa_2" data-name="Warstwa 2" xmlns="http://www.w3.org/2000/svg" viewBox="0 0 42.04 48.32">
  <g id="game-icon-v6-elemental-pixarts-store">
    <g id="game-icon-v6-elemental-pixarts-store_116">
      <path d="M31.21,6.64c-.65.4-1.02,1.13-1.13,1.73-.67.2-2.35.66-2.67,1.01.35.92.56,1.38.62,1.75.05.31-.59.95-.97,1.19l-.7-2.37-10.44,6.56,7.15.21c-.86,1.92-1.8,2.89-3.12,4.4-.84.96.36,2.8,1.3,3.2l5.49-6.48c3.57-4.22,6.96-8.32,10.89-12.46-.62,2.07-1.92,4.23-3.04,5.75-.3.41-1.09.99-1.34,1.55l-2.78,6.25.14-3.48c-2.23,1.89-.99,5.14-3.28,4.18l-5.16,5.34c.9.69,1.6.57,2.16.09l4.02-3.49,1.35,7.36,3.26-7.51c.63-1.46-.26-3.38-.02-5.42l1.5,2.3L42.04,0l-10.82,6.64Z"/>
      <path d="M8.2,40.76l-4.88,3.95c1.19-1.87,2.27-3.23,3.57-4.84l-2.31-.45c-1.98,2.69-3.54,5.44-4.58,8.9.96-.26,11.04-6.19,8.2-7.56Z"/>
      <path d="M15.21,26.31c-3.08,1.3-2.02,11.31-1.4,11.08l1.34-.49.06-10.59Z"/>
      <path d="M11.97,30.06c-1.94,1.63-1.66,3.75-1.8,5.74l-.39,5.8c1.41-.95,2.69-2.4,2.61-3.92l-.42-7.62Z"/>
      <path d="M22.65,28.25c.32-.19.72-.88.85-1.25-2.49-1.05-4.02-2.47-5.33-4.73-.74.58-1.14,1.86-.61,2.75.98,1.64,3.71,4.06,5.1,3.23Z"/>
      <path d="M16.23,30.9c1.83-.23,3.1-.4,4.85-1.33l-2.8-1.72-1.76-2.52c-.45,2.32-.42,3.58-.29,5.57Z"/>
      <path d="M7.62,36.53c-1.44.07-2.5.87-2.73,2.05l3.11.36c.71.08,1.3-.77,1.24-1.56-.05-.64-.77-.89-1.62-.85Z"/>
    </g>
  </g>
</svg>