<?xml version="1.0" encoding="UTF-8"?>
<svg id="Warstwa_2" data-name="Warstwa 2" xmlns="http://www.w3.org/2000/svg" viewBox="0 0 51.95 52.49">
  <g id="game-icon-v6-elemental-pixarts-store">
    <g id="game-icon-v6-elemental-pixarts-store_84">
      <path d="M37.07,24.61c-1.23-2.71-1.73-5.16-1.94-8.51-3.16.88-5.41,2.9-7.83,4.85-1.97,1.58-.81,1.54-1.21,4.14-.11.73-1.62-1.79-3.75-.86-.79.34-1.01,1.39-1.12,2.36-.51,4.24-1.3,8.04-.61,12.24l4.92-1.25.88-4.2,1,3.76c1.75-.39,3.7-1.02,4.93-2.31.31-6.31-2.04-8.92-.18-16.11l1.6,6.53,2.42,5.32c.88,1.93.75,3.68,1.32,5.8l.53-1.51.85,1.39.16-1.9,1.09,1.87c-.1-1.51-.27-2.37-.54-3.88l1.48.32-2.58-3.17c-.91-1.12-.76-3.47-1.39-4.85Z"/>
      <path d="M19.25,12.57c-1.58.95-1.86,6.16-.99,6.65l1.66.94.68-1.67,1.1,1.04c1.87-1.27,3.84-2.82,5.46-4.27l-.09-2.93,2.51,1.44,3.32-1.82-3.09-1.05c-1.14-.39-1.83-1.78-1.16-2.88,1.06-1.77,1.2-3.55.57-5.68-.35-1.17-1.79-1.75-3.05-1.71-.97.03-2.26.75-2.56,1.75-.66,2.21-.52,3.91.69,5.69,1.64,2.42-2.87,3.23-5.04,4.54Z"/>
      <path d="M40.95,5.56l.84,2.28.95-2.44c1.45-.56,3.51.07,4.65,1.3.92.99,1.45,2.92.97,4.18l-1.95.53,1.6,1.34c-1.16,1.61-2.4,2.76-3.79,3.43l-1.05-1.86-.92,2.74-5.29,2.23c.15.86.4,1.8.6,2.39l4.18-1.69c.56-.23,1.91.58,2.4.76l-.03-1.57,4.78-3.13,3.05.15-1.9-2.06c2.43-4.34.71-9.46-3.77-11.17l.14-2.98-2.26,2.59c-5.76-.2-5.12,2.76-8.36.83l.38,2-3.18,2.76-1.1,1.49,1.99.75c.95.36,4.15-4.36,7.05-4.86Z"/>
      <path d="M6.12,17.8l-.33,3.01,2.33-2.01,7.53,2.54c.17-.38.46-1.4.36-1.82-.1-.42-.88-.8-1.35-1.16l-.33-2.32-1.53,1.66c-2.38-.58-4.42-1.36-6.4-2.88l1.16-1.44-2.13-.13c-.9-1.74-.46-4.09,1.43-5.1l1.29,1.44.36-1.92c2.56-.44,4.93.89,6.62,2.55l-.23,1.67,1.34-.98c.63-.46.77,1.67,4.06-.54l-2.04-1.46c.02-.27.22-1.09.03-1.02-2.22.83-4.41-1.75-4.53-2.01l-1.61-3.55-.49,3.03c-3.05-.71-5.81-.5-7.86,1.84L.03,6.54l2.54,2.41c-1.21,3.67.5,6.83,3.54,8.85Z"/>
      <path d="M14.01,43.08c.62.28,1.88-1.08,2.1-1.89l-4.61-1.96-.96-2.51-.89,1.96c-2.54-1.15-4.3-2.77-4.71-4.96-.46-2.45-.16-4.78,2.06-6.37l1.82,1.5-.16-2.49,3.56-1.17c-.13-.65-.45-1.7-.67-2.07-3.66.56-6.83,1.92-8.62,4.91l-2.84.28,2.16,1.4c-.84,6.25,2.29,10.05,8.22,11.92l-.63,2.12c1.43-1.3,2.46-1.46,4.18-.68Z"/>
      <path d="M22.9,42.26l1.74,1.55.04-2.1c2.56-.7,5-1.3,7.39-2.45.66-.32,1.48-.46,1.99-.45l1.02-2.82c.49-1.35-.44-3.23-1.32-4.24-.21,1.15-.09,2.61-.58,3.51-.64,1.18-2.4,2.26-3.68,2.6l-8.9,2.3-1.73-1.47.05,2.48c-2.85,1.47-4.78,4.09-5.17,7.29l-2.21.65c1.52.55,2.61,1.36,2.92,2.9.53.43,1.93.45,2.76.18-1.39-2.73-1.19-4.99.64-6.99,1.28-1.39,3.24-2.34,5.03-2.95Z"/>
      <path d="M37.13,15.42l.03,2.22c2.44-.85.97-2.08,3.06-3.21l-2.45-1.44-.43-2.58-.91,2.04c-4.94.19-6.35,3.66-8.19,1.67-.14,1.39-.69,2.33-1.65,3.17-5.17,4.52-6.2,3.54-12.13,6.37l-1.47-.99c1.67,3.51-.78,3.54.89,4.85.74-1.32,1.46-2.01,3.04-2.57l6.45-2.27c.4-.11,1.43.51,1.81.73-.42-1.36.06-2.2,1.08-3.06,2.73-2.32,5.31-4.51,8.88-5.47.49-.13,1.99.04,2,.54Z"/>
      <path d="M46.49,49.62c.93,1.57.66,2.11,1.41,2.68.31.24,1.38.08,2.13-.04-.72-5.15-5.81-11.46-10.16-14.21l-3.94-.63c1.29,1.26,2.55,2.33,3.95,3.52l-1.12,1.79c.8-.08,2.28-.49,2.81-.16,1.6,1.21,3.19,3.43,4.12,5.21l-.96,1.83c1.17-.03,1.64-.19,1.77.02Z"/>
      <path d="M49.51,38.96c.46-3.78-1.75-7.01-5.2-8.35l-.1-2.62c-.56.69-.91,1.66-1.39,1.72-.47.06-1.4-.08-2.48-.16.63.94,1.65,2.4,2.41,3.07,1.62.57,2.74,1.27,3.35,2.59l-1.69,1.77,2.41.08c.37,1.49-.21,3.03-1.16,4.55l1.54,1.89,2.08-2.73,2.39-.33-2.17-1.47Z"/>
      <path d="M28.64,52.41l3.74.03c.76-4.21-.55-7.18-.06-11.91-1.51.64-2.78,1.12-4.5,1.7l.64,5.25c.2,1.64-.38,3.09.18,4.93Z"/>
      <path d="M9.29,52.23l-.96-1.81c-.32-.61-.32-1.72-.18-2.49l-1.64-.13c-1-1.34-1.81-3.03-2.22-4.67l1.35-.92c-2.96-1.21.14-2.66-3.34-4.07-.46,2.04-.49,3.87-.2,6.02l-2.1,2.37,2.9.05c1.54,2.19,3.52,7.09,6.39,5.66Z"/>
      <path d="M48.61,23.85c-2.43-1.62-4.98-.93-7.65-.69-.88.08-1.34.08-1.91.53-.49.38-.52,1.72-.04,1.7,1.54-.08,2.02-.34,3.19.73l.43-1.38c.96-.05,3.03-.04,3.98.16.48.1.8,1.59.8,1.87.24-.17.97-.79,1.05-.55l.39,1.16c.46,1.38-.21,2.56-1.07,3.47l2.78-1c1.36-2.55-.75-2.89,1.18-5.72-.98.32-2.26.32-3.14-.26Z"/>
      <path d="M22.89,43.95c-.5-.16-1.51.12-1.78.47-.74,1-.86,6.19-.6,8.03h3.92s-.03-5.01-.03-5.01c0-1.23-.13-3.04-1.52-3.49Z"/>
      <path d="M13.42,32.24c-.32,1.36-.58,2.63-.67,3.88l.9-1.81.17,1.91.97-1.88.12,1.27c.02.16.09.05.64-.57-.31-.61-.12-.24.35.7l.92-5.15c.3-1.71,1.65-3.23,2.13-5.01l-3.32,1.2c-.44.98-.84,2.48-1.35,3.08l-2.47,2.86,1.6-.47Z"/>
      <path d="M42.19,44.68l-3.6,2.38-1.78-1.12c.19,1.08.51,2.27.19,2.94l-1.55,3.24c.86.38,2.51.43,2.89-.15.51-1.51,1.69-2.46,2.97-2.89l2.23-2.54-1.35-1.87Z"/>
      <path d="M6.23,34.28l.94,1.16c.75-.66,2.06-1.39,2.49-1.99l2.74-3.81c-1.72-.31-7.25,3.27-6.16,4.63Z"/>
    </g>
  </g>
</svg>