<?xml version="1.0" encoding="UTF-8"?>
<svg id="Warstwa_2" data-name="Warstwa 2" xmlns="http://www.w3.org/2000/svg" viewBox="0 0 56.48 59.62">
  <g id="game-icon-v6-elemental-pixarts-store">
    <g id="game-icon-v6-elemental-pixarts-store_217">
      <path d="M45.7,28.9c-.37-.76-1.56-1.54-2.7-2.14,1.77-3.09-1.34-4.36-2.33-6.09-1.37-2.39-3.47-3.44-5.33-4.79-1.33-.97-2.2-4.81-5.34-3.28-8.25,4.02-4.78,8.99-12.28,11.78-2.35,4.65,9.98,15.36,14.47,16.87,3.69-1.48,15.83-7.65,13.51-12.35ZM41.78,29.21c1.12,0,2.02.9,2.02,2.02s-.9,2.02-2.02,2.02-2.02-.9-2.02-2.02.9-2.02,2.02-2.02ZM30.24,14.97c1.11,0,2.01.9,2.01,2.01s-.9,2.01-2.01,2.01-2.01-.9-2.01-2.01.9-2.01,2.01-2.01ZM26.14,21.57l11.77-1.47-.62,12.32-11.76,1.09.6-11.93Z"/>
      <path d="M6.61,53.62l11.14,1.75c.94-5.19,1.95-9.99,3.19-14.84.14-.55-.13-1.73-.56-1.98-.43-.25-1.7-.49-2.28-.3l-13.84,4.56,2.35,10.81ZM7.94,43.05c4.15-.88,7.35-1.72,11.12-3.04l-2.74,11.54-9.22.66.84-9.15Z"/>
      <path d="M3.22,36.51c-.3.27-.57,1.31-.41,1.76l1.2,3.31,14.57-4.69-4.81-7c-.95.53-2.61,1.68-3.27,2.42.52,2.05.39,3.72-.92,4.74-2.92,2.26-4.97-1.79-6.35-.53Z"/>
      <path d="M29.44,45.01l-7.27-4.64-3.21,15.36,4.35,1.36c2.67-2.72-3.55-3.67-.88-7.32.9-1.23,2.66-1.93,4.7-.88l2.31-3.88Z"/>
      <path d="M.74,37.56c-.26-.11-.85,1.01-.72,1.5,1.18,4.56,2.85,11.86,3.8,17.3,5.51.69,11.48,1.85,16.79,3.2.47.12,1.51.04,1.86-.04,5.97-1.3-17.09-5.17-16.93-4.87-.76-3.08-2.71-16.21-4.8-17.09Z"/>
      <path d="M31.92,42.96c-.15-.21-.58-.7-.94-.87-6.27-2.98-11.7-8.19-14.8-14.63-.84.23-1.41,1.32-1.04,1.99,7.29,13.22,18.37,15.86,16.78,13.52Z"/>
      <path d="M17.71,23.07c4.18-1.66,5.04-4.82,6.21-8.24-1.34-1-4.25-2.14-5.6-.62-.97,2.79-1.12,6.23-.61,8.86Z"/>
      <path d="M41.12,18.92c1.02-1.04,2.91-2.78,3.35-4.07.73-2.14-1.79-3.78-3.61-3.73l-3.87,4.08c2.1,1.28,2.95,2.09,4.13,3.72Z"/>
      <path d="M25.77,5.97c-.3-.01-1.1.31-1.32.56l-4.78,5.32,5.23,1.88c2.01-2.3,2.44-7.68.87-7.76Z"/>
      <path d="M45.8,17.61c-1.28.48-2.83,1.85-3.8,2.76,1.9,1.37,2.3,2.42,3.04,4.78,1.22-1.26,2.48-2.54,3.55-3.87.96-1.19-1.31-4.24-2.79-3.67Z"/>
      <path d="M33.68,7.63c-.94.37-2.09,2.37-2.48,3.27,1.79.79,2.88,1.64,4.42,3.13l2.29-3.28c-.02-1.87-2.3-3.9-4.24-3.13Z"/>
      <path d="M48.74,9.87l2.78-4.55c.31-.51.02-2.13-.47-2.39-1.97-1.05-4.62,1.92-5.77,3.3,1.86,1,2.56,1.69,3.46,3.64Z"/>
      <path d="M47.66,9.55c-.22-1.34-2.28-2.44-3.39-1.89-.78.39-1.86,1.53-2.39,2.28,2.23.79,3.23,1.76,3.74,3.86.98-.92,2.32-2.59,2.05-4.25Z"/>
      <path d="M50.29,28.68c.7-1.35.69-3.68-1.19-4.14-1.08-.26-3.12,1.41-3.07,2.1l1.24,4.05,3.02-2.01Z"/>
      <path d="M43.29,1.98c.19-.4-.17-1.66-.55-1.83-1.93-.85-4.28,2-5.42,2.8,1.86.74,2.67,1.32,4.23,2.78l1.74-3.76Z"/>
      <path d="M50.21,19.78c.38-.26,1.69-1.96,1.74-2.92.06-1.13-1.49-2.79-2.5-2.7-.79.08-2.02,1.25-2.59,2.02,1.33,1.07,2.01,1.66,3.36,3.6Z"/>
      <path d="M34.57,6.15c2.33.91,3.14,1.64,4.46,3.3,1.1-1.43,1.64-2.82,1.14-3.73-.53-.96-2.21-2-3.14-1.67-.76.27-2.04,1.54-2.46,2.09Z"/>
      <path d="M55.16,11.59c-1.64-2.02-4.74-.33-4.8,1.12l2.78,3.74,2.02-4.86Z"/>
      <path d="M53.79,23.92c.01-.68-.86-2.17-1.53-2.24-.67-.07-2.2,1.29-2.15,1.51l2.2,3.7c.67-.76,1.47-2.15,1.49-2.96Z"/>
      <path d="M56.32,18.99c-.66-1.15-3.17.28-3.52,1.32l2.01,3.2c.88-1.19,2.11-3.46,1.5-4.52Z"/>
      <path d="M24.39,49.82l-1.79,1.67,2.45,2.4,1.76-3.79c-.91-.34-2.04-.64-2.42-.29Z"/>
      <path d="M8.15,36.3c.94-.29,1.94-1.67,1.02-3.09-.81-.35-2.51.84-3.53,2.01.31.66,1.73,1.32,2.5,1.08Z"/>
      <path d="M27.15,22.79l-.36,9.38,9.24-.79c.65-3.7.74-6.71.49-10.09l-9.38,1.5ZM35.49,30.45l-7.79.73.46-8.01,7.96-.74-.63,8.01Z"/>
      <path d="M9.25,44.13c-.94,2.48-.91,4.94-.67,7.19l7.14-1.09-6.7-.05c.44-2.14.59-4.1.22-6.06Z"/>
      <path d="M14.13,48.59l.29-3.74-3.11.66-.65,3.46,2.02-1.13c.36-.2,1.32.7,1.45.76Z"/>
      <path d="M15.63,49.24l1.92-7.57-5.98,1.88c2.14-.13,3.6-.38,4.96-.62-.68,2.85-1.08,4.49-.89,6.31Z"/>
      <path d="M30.31,27.03l-1.01,2.44c1.06-.48,1.96-1.25,2.51-1.08l2.33.7c-2.3-3.34,1.44-5.48.14-4.92l-.88.38c-1.18.51-2.53.37-4.15.05.31.64,1.29,1.87,1.05,2.44Z"/>
    </g>
  </g>
</svg>