<?xml version="1.0" encoding="UTF-8"?>
<svg id="Warstwa_2" data-name="Warstwa 2" xmlns="http://www.w3.org/2000/svg" viewBox="0 0 53.88 55.66">
  <g id="game-icon-v6-elemental-pixarts-store">
    <g id="game-icon-v6-elemental-pixarts-store_188">
      <path d="M40.36,5.7l-5.27,4.1-.13-4.03c-2.3,1.85-3.64,4.08-4.68,6.31.6.47,1.11.67,1.08.97l-.18,1.57c-.2,1.74-.13,3.46-.45,5.41-1.13-2.37-1.43-4.14-2.11-6.91-.69,1.86-2.15,5.16-.72,7.31,1.61,2.41,3.92,4.66,6.13,6,3.06,1.86,7.59.72,9.71-1.6-2.18-.45-4.86.6-6.14-1.75,5.52.42,10.66-.8,12.11-5.68l-3.9.4c4.48-6.59,3.71-10.26,8.07-17.81-9.94,2.03-7.56,8.4-13.52,5.7ZM34.94,22.95c2.08-2.25,3.72-3.89,4.04-7.23l-6.23,3.71c.8-3.5,3.81-5.82,6.68-6.71l4.84-1.49c-.84,2.75-5.33,13.03-9.33,11.72Z"/>
      <path d="M0,54.69c.55.51,2.38,1.22,2.83.89l20.57-20.39-2.75-3.16L0,54.69Z"/>
      <path d="M21.93,31.08c.56,1.02,2.16,2.63,3.06,2.89l3.65-3.4-4.25-4.01-2.45,4.52Z"/>
      <path d="M27.6,23.07c-.43-.37-1.87.75-1.79,1.29.07.44.38,1.68.71,2.01l3.8,3.76,2.39-2.08c-1.53-1.6-3.69-3.77-5.11-4.98Z"/>
    </g>
  </g>
</svg>