<?xml version="1.0" encoding="UTF-8"?>
<svg id="Warstwa_2" data-name="Warstwa 2" xmlns="http://www.w3.org/2000/svg" viewBox="0 0 39.98 58.68">
  <g id="game-icon-v6-elemental-pixarts-store">
    <g id="game-icon-v6-elemental-pixarts-store_461">
      <path d="M39.98,3.58c-1.6-1.19-3.5-1.9-5.47-2.28C25.08-.49,15.55-.35,6.06,1.22c-1.84.3-3.71,1.03-5.35,1.99-1.45.85-.25,7.63,0,8.51,2.31,8.16,5.53,11.38,7.16,21.29l1.07-6.39,2.29,2.27c1.32.5,3.99,2.28,4.81,3.04.74.7-1.38,2.18.24,4.99.35.6,1.46,2.05,1.34,2.88l-1.01,7.17c1.41-.54,2.12-1.91,3.44-3.26l-1.89,4.19-.79-.61c-.15-.12-.79.52-.89.74l-2.47,5.66c-.48,1.09-1.7,2.36-2.54,2-.86-.37-1.93-.61-2.88-.87,4.4-.36,4.63-1.36,6.36-5.57l-9.35,4.77c.46,1.44,1.47,2.28,2.64,2.69,12.96,4.58,27.71.05,26.06-2.41-1.53-2.27-6.21-3.05-9.51-5.49-1.05,1.08-.33,2.64.46,3.83,1.49,2.24,3.22,2.75,6.15,2.5-1.08.94-3.86,1.42-4.63.45l-3.14-3.97c-.5-.63.47-2.35.7-3.18l-1.87-7.67c-.57-2.34,4.31-5.06,1.36-8.13-.78.74-.99,1.95-2.14,1.39l10.39-7.82,1.08,6.22c.73-3.76.72-7.49,2.24-10.8.68-1.47,2.3-2.73,2.72-4.42,1.13-4.52,1.93-8.94,1.89-13.63ZM2.2,6.44l5.76,1.35c.23.05.98.21.9.38l-.35.82c.05-.12-5.96-1.54-6.32-2.54ZM16.1,29.89c-1.48-2.21-2.55-5.04-4.94-6.34-2.22-1.21-5.06-2.1-4.97-5.38.71,2.26,2.66,3.46,4.97,3.95l-.06-5.21c-2.02-1.82-2.81-4.08-1.79-6.45-.04,2.76,1.04,4.74,2.92,6.55l2.16-3.11c-.26,1.43-.84,2.74-1.68,4.02-3.18,4.85,4.24,7.95,3.41,11.98ZM2.75,4.12c4.53-3.66,29.81-3.53,34.73-.1-4.96,3.89-30.03,3.51-34.73.1ZM29.89,20.72l3.88-3.47-1.83,3.29c.02.5.77,1.47,1.25,1.93l-.87,1.44c-.34-1.04-1.12-2.37-2.08-2.55-3.88-.73-3.11,4.98-5.85,6.03.7-1.3,1.05-2.5,1.21-4.14l-1.83.2,4.6-2.9-.15-4.63c-.07-2.11.12-5.06-1.66-6.48-3.18.01-6.22.08-9.19-.44l10.04-.68,1.98,4.22,2.72-4.65,6.35-1.46c-1.42,1.42-3.48,1.56-5.18,2.39-3.03,4.82-4.54,5.36-3.39,11.88Z"/>
    </g>
  </g>
</svg>