<?xml version="1.0" encoding="UTF-8"?>
<svg id="Warstwa_2" data-name="Warstwa 2" xmlns="http://www.w3.org/2000/svg" viewBox="0 0 47.22 46.37">
  <g id="game-icon-v6-elemental-pixarts-store">
    <g id="game-icon-v6-elemental-pixarts-store_154">
      <path d="M40.08,34.1c-.51.28-1.49,1.59-1.14,2.01l1.8,2.13-2.06-.9-5.1-2.23-1.15,2.66-4.96-1.67c-.39,1.54-.17,2.94.49,4.48-1.06-.11-2.4.13-3.09.86l-2.49,2.65.43-2.28c-.81-1.29-2.53-2.07-4.06-2.1,1.34-1,2.01-2.48.95-4.11l-2.38,1.81-1.67-.19-3.01,1.99,1.34-2.27c.18-.3.22-1.14.17-1.48-.04-.26-1.06-.59-1.34-.47l-5.49,2.5c.58-.85,1.31-1.59,1.39-2.17.07-.51-1.07-1.66-1.5-1.59-2.15,2.31-4.33,3.89-7.22,5.81,2.33.26,4.64.38,6.71.36-1.3.63-2.49,1.43-3.32,2.52,5.74,1.98,6.82-2.31,7.45-2.21l2.14.37-1.76.31c-1.35.24.72,1.74-3.09,2.96-.15.25,1.08.66,1.52.47,3.57-1.52,2.83.82,7.74-.15,1.74,3.23,8.02,2.18,9.97.7,6.62-5.03,4.88,1.2,10.48-.82l-4.06-4c-.74-.11-1.38-.25-1.82-.52,2.64-.22,4.46,1.45,6.06,3.49l5.36-.73c-1.65-.82-2.78-1.21-4.05-2.2,1.68.1,2.68.23,4.07.05l3.82-.52-2.93-2.17-4.2-3.36Z"/>
      <path d="M25.92,13.52l-1.78,3.52c-.83-1.64-1.64-3.35-.99-5.35l1.24,3.13.81-3.47.99,1.35c-.5-3.77-1.64-9.13-2.67-12.7l-2.23,12.1c-.12.65,1.34,1.85,1.42,2.47.35,2.71.46,6.5.05,9.23l-.34-6.19c-.06-1.08-.54-2.53-1.21-3.31l-.07,24.31c0,.3.85.98.81.72l.37-2.26c.28,1.65.35,2.59.99,3.99.36-2.02.26-3.42.18-5.38,0-1.01.55-.76.7.02-.14,1.86-.2,3.35.13,4.85l.99-2.15c.16.61.5,1.32.87,1.1l-.08-19.16c-2.09.23-.36,11.36-1.24,13.49-.26-3.45-.31-6.8-.25-10.49.06-4.26,2.79-5.47,1.3-9.85Z"/>
      <path d="M31.4,36.16l.71-.6,6.17-18.13c-1.19,1.04-1.59,1.95-2.35,3.06.14-1.89.65-3.52,1.42-4.93,1.22,5.82,3.51-11.51,3.07-11.41l-5.82,10.98.51.79c.08.13-.75.6-.86.92l-5.89,17.67,2.06,1.67.78-1.76c-.01.89,0,1.92.2,1.75Z"/>
      <path d="M15.72,32.54l.95,3.36c1.13-.7,1.29-.79,2.07-1.04l-4.44-16.93c-.46-1.75-.22-3.42-1.66-4.75l.16,5.28-.78-2.95c-.1.06-.55.61-.69.44l-.56-.68-.66-.81c-.12-.15-.48.05-.81.23l6.04,21.29c1.64-1.79-.78-2.39.37-3.43Z"/>
      <path d="M2.7,19.73l.62-1.17,1.19,2.01.86-2.12c.39,1.06.61,1.97.3,2.2l-1.12.81c-.57-.67-.85-2.11-1.8-1.42l6.92,14.54c.16.33,1.18.26,1.18.02,0-.23,0-.92-.1-1.14l-1.76-4.08,2.94,4.9c.47-.21,1.37-1.1,1.13-1.48l-.91-1.44C8.86,26.2,6.25,16,.09,10.03l2.6,9.7Z"/>
      <path d="M30.49,23.28c1.13-4.85,1.81-9.63,1.29-14.71-1.48,3.46-2.73,7.22-3.33,11.1l-1.23,8.02,2.13.52,1.14-4.93Z"/>
      <path d="M46.26,15.97c-2.17,2.09-4.19,4.73-5.67,7.55l-5.63,10.81,1.48,1.23,1.75-3.07c.15,1.37-1.15,2.15-.57,3.25l6.08-10.8c.12-.22-.39-.63-.5-.73.44.41,2.97-5.78,3.06-8.25Z"/>
      <path d="M19.97,27.94c-.07-5.32-.56-10.24-2.87-15.28-.4,4.96-.52,9.82,1.12,14.55l.38-1.64c.4,1.28.63,1.98,1.36,2.37Z"/>
      <path d="M9.01,13.59l1.26-.28,1.43,1.74.05-2.43c0-.27.43-.26,1-.49-1.59-3.4-2.94-6.4-4.72-9.67l.98,11.13Z"/>
      <path d="M30.7,43.83c-.64-.04-1.9.89-1.92,1.6,1.01,1.17,3.33,1.38,4.67-.11-.86-.94-1.78-1.42-2.75-1.48Z"/>
      <path d="M19.96,29.33c-.08-.36-1.41-.36-1.62-.19l1.38,5.27c.64-1.57.49-3.99.24-5.08Z"/>
      <polygon points="29.1 29.4 27.24 28.98 27.61 33.59 29.1 29.4"/>
    </g>
  </g>
</svg>