<?xml version="1.0" encoding="UTF-8"?>
<svg id="Warstwa_2" data-name="Warstwa 2" xmlns="http://www.w3.org/2000/svg" viewBox="0 0 53.87 55.41">
  <g id="game-icon-v6-elemental-pixarts-store">
    <g id="game-icon-v6-elemental-pixarts-store_191">
      <path d="M46.49,27.97l-1.16,4.97c-.66,2.8,2.58,5.6,1.05,6.31-3.28,1.51-4.56-4.89-5.42-6.25-.81,1.38-1.11,3.29-1.04,5-3.33-.38-6.65-.96-10.06-.05,3.87,1.66,16.85,2.48,16.81,7.55-1,1.65-4.24,3.04-5.81,2.67-.84-.2-1.38-1.94-2-3.32-.88,1.08-1.47,2.5-1.99,4.18-.64,1.07-3.73,1.42-4.99,1.26,1.06-9.36-3.85-3.22-4.42-16.07-1.37,3.11-2.61,6.33-2.59,9.67.01,1.96,1.48,5.51-1.04,6.49-1.69.66-5.61-.22-6.92-1.21l-2.29-5.42-1.77,4.57c-1.4-.06-4.84-1.35-5.29-2.78-1.49-4.79,13.27-6.37,16.62-7.35-3.19-1.43-6.63-.61-10.29-.1.16-2.08.13-3.55-1.12-6.04l-1.45,4.8c-.57,1.87-2.54,3.19-4.81,2.48l2.18-4.72-1.89-5.9c-.85,3.97-1.93,6.04-3.28,9.13l-3.5,8.06c2.89,2.42,6.63,4.77,10.73,5.6,5.47,1.11,10.99,3.9,16.56,3.92,4.71.01,9.45-2.66,14.16-3.4,4.61-.72,8.81-3.4,12.43-5.93-3.21-5.73-1.14-5.55-5.56-11.83l-1.83-6.29Z"/>
      <path d="M21.87,32.02c-.88-2.88-1.23-5.68.04-7.57l1.99,3.04c.84-3.1,1.79-5.28,3.43-8.01l2.89,8.3,2.48-2.45c.37,2.98.21,4.37-.17,6.59,4.26-2.25,5.49-6.91,4.29-11.17l-1.06-3.78-2.43,2.61c-.95-2.99,3.78-7.69-1.36-11.29l-.4,4.63-4.43-5.95c-1.29-1.73-1.02-4.72-.7-6.96-8.23,6.81,2.19,12.36-4.36,17.96-.28-2.94-.34-5.48-2.74-6.77.21,2.27.04,4.35-1.14,6.24-3.17,5.05-1.78,11.9,3.66,14.6Z"/>
    </g>
  </g>
</svg>