<?xml version="1.0" encoding="UTF-8"?>
<svg id="Warstwa_2" data-name="Warstwa 2" xmlns="http://www.w3.org/2000/svg" viewBox="0 0 64.24 52.16">
  <g id="game-icon-v6-elemental-pixarts-store">
    <g id="game-icon-v6-elemental-pixarts-store_563">
      <path d="M51.6,14.67c.33,1.62.54,2.7.64,4.28-6.9-9.16-11.43-3.08-20.4-11.39.14,3.64,2.48,5.54,4.74,7.69-8.47.89-6.51-11.83-18.2-10.66,3.39,1.74,5.9,4.59,5.7,8.66C14.84,1.25,8.45,12.04,0,0c.2,6.15,4.33,10.57,9.9,12.12,3.59,1,6.42,3.73,6.53,7.56-3.2.23-4.7-5.54-9.65-4.33,1.58,1.48,3.07,2.95,3.68,4.66,2.58,7.27,8.3,4.14,12.68,8.05-3.6.13-6.92-.63-9.85,1.88,8.92.66,9.44,4.49,14.91,9.62l-3.95.24c2.51,1.64,4.42,3.25,6.37,5.47,5.63,6.38,14.05,8.59,21.94,5.51,10.86-4.24,14.85-17.09,8.98-27.15-2.34-4.01-6.02-6.87-9.94-8.97ZM50.23,47.22c-5.7,1.58-11.34-1-15-5.06l5.12,1.08c-1.08-5.97-7.08-2.52-9.32-8.94l-1.67-4.78c2.53.85,3.58,5.21,5.96,4.3-.64-11.2-10.68-3.58-13.39-17.39,6.93,9.06,11.29,2.84,16.18,8.76,1.49,2.4,4.47,2.75,6.48.96-3.55-1.09-5.85-3.42-6.52-6.84,2.09,1.47,4.17,2.55,6.69,2.73,5.42.39,4.49,3.5,8.18,5.04l-1.67-4.28c5.65,1.78,8.92,6.82,8.74,12.56-.17,5.33-4,10.24-9.8,11.85Z"/>
    </g>
  </g>
</svg>