<?xml version="1.0" encoding="UTF-8"?>
<svg id="Warstwa_2" data-name="Warstwa 2" xmlns="http://www.w3.org/2000/svg" viewBox="0 0 55.31 44.08">
  <g id="game-icon-v6-elemental-pixarts-store">
    <g id="game-icon-v6-elemental-pixarts-store_07">
      <path d="M27.03,39.4c-5.83-4.63-12.26-6.42-20.07-5.56l3.36-20.46,7.83,1.01c3.33,1.12,6.2,2.57,8.99,4.96l-.11,20.06ZM15.12,21.23l-.61-2.06c-.1-.32,1.11-.64,1.35-.72l-3.2-2.83c-.39,1.85-.67,3.58-.7,5.59l1.36-1.65,1.8,1.67ZM21.27,22.96c1.12-.87-.39-3.37-1.55-3.19l-.61,4.5c.73-.43,1.72-.97,2.16-1.31ZM18.74,25.83c.16-.65-7.64-2.25-7.9-.92l7.9.92ZM20.32,28.94c-2.84-1.63-6.27-1.95-9.79-1.77.14.27.87.77,1.18.74,2.84-.33,5.43.62,8.62,1.03ZM25.09,34.57c-2.19-2.37-5.31-3.7-8.32-3.88,3.04,1.2,5.5,2.39,8.32,3.88Z"/>
      <path d="M48.34,33.64c-8.15.1-12.89-.07-20.22,5.79l-.11-19.83c3.63-4.37,11.31-6,16.88-6.05l3.45,20.1ZM39.48,17.41c1.33-.25,2.48-.33,3.63-.71-3.19-.35-6.18.16-8.83,1.7l5.2-1ZM37.9,20.18c.46-.1.71-.33.66-.81-3.31.73-6.47,1.51-8.62,4.28,2.75-1.54,4.82-2.78,7.96-3.47ZM43.84,21.86c-2.46-.37-4.89-.56-7.19.86l7.19-.86ZM44.4,24.36c-3.33-.77-6.81.12-9.43,1.7l9.43-1.7ZM42.66,31.52c.3-.74.39-1.41.69-1.47l1.67-.36-1.65-.44,2.04-.5c-1.25-.21-1.98-.29-2.57-.75l-1.56-1.23.34,1.81-2.2.28,2.18.59-1.8.77,2.55-.22.31,1.54ZM38.66,27.92c.28-.07-.66-.51-.87-.44-2.29.87-6.06,1.7-7.76,4.23,2.76-1.56,5.17-2.97,8.63-3.79ZM37.21,30.73c-2.86.22-5.46,1.73-7.05,3.8l7.05-3.8Z"/>
      <path d="M49.38,21.02c-.09-.46-.16-.9-.18-1.07s.42-.34.59-.32c.25.03.72.56.77.8l4.75,22.46-22.96-.54c-2.75,2.16-6.54,2.43-9.35.01l-23,.41,4.69-22.39c.06-.27.5-.62.62-.71.18-.13.7.6.65.86L1.91,41.27l21.68-.47c2.11,2.4,5.89,2.46,8.07,0l21.77.51-4.05-20.29Z"/>
      <path d="M5.53,35.09l6.19-.11c3.94-.07,7.86.86,11,3.14-6.29-2.1-12.39-2.01-19.01-.25l3.64-20.13.69-.9c.15-.19.73.69.68.99l-3.2,17.27Z"/>
      <path d="M51.57,37.83c-6.84-1.97-12.89-1.5-19.26.22,5.22-3.46,11.08-3.16,17.28-2.97l-3.02-17.38c-.06-.35.42-1,.56-.89.2.15.66.61.75,1.1l3.69,19.92Z"/>
      <path d="M51.74,39.87c-1.56.41-8.88-1.17-11.85-1.18l-7.84,1.14c5.32-3.06,13.92-2.36,19.02-.92.34.1.86.92.67.97Z"/>
      <path d="M11.71,38.98c-2.91.22-5.48,1.42-8.6.64,6.15-2.76,13.52-2.57,19.62-.09-3.73-.5-7.18-.84-11.01-.55Z"/>
      <path d="M21.98,5.71l.57-1.8c.12-.39-.75-1.4-1.14-1.27-.46.16-1.31,1.15-1.17,1.61.17.54.68,1.37,1.2,2.3-2.03-.41-2.49-2.81-1.78-4.63l.5-1.29,2.32,1.73c.84.62,1.36,2.89-.5,3.34Z"/>
      <path d="M27.53,13.81l-.22-3.54c-.22-3.45-.42-6.74.25-10.27.75,3.35.58,6.74.28,10.26l-.3,3.55Z"/>
      <path d="M34.43,7.25c-1.66-.63,1.03-2.36-.46-3.67-.38-.33-1.07-.04-1.8.22-.23-.5-.28-1.75-.16-2.34.28.44.81,1.28,1.23,1.3.78.04,1.78.11,2.78.24l-1.59,4.24Z"/>
      <path d="M39.38,5.99c-1.01,2.04-2.47,3.8-4.45,5.38.96-2.01,2.34-3.82,4.45-5.38Z"/>
    </g>
  </g>
</svg>