<?xml version="1.0" encoding="UTF-8"?>
<svg id="Warstwa_2" data-name="Warstwa 2" xmlns="http://www.w3.org/2000/svg" viewBox="0 0 57.23 58.26">
  <g id="game-icon-v6-elemental-pixarts-store">
    <g id="game-icon-v6-elemental-pixarts-store_223">
      <path d="M31,5.03l-2.46-5.03-2.7,5.22C14.31,6.68,5.79,15.58,4.77,26.84l-4.77,2.28,4.78,2.5c1.27,11.43,10.03,19.94,21.3,21.48l2.51,5.15,2.45-5.12c11.31-1.38,20.11-10.02,21.38-21.53l4.82-2.48-4.92-2.35c-1.01-11.58-9.96-20.17-21.31-21.74ZM49.88,31.1c-.97,10.51-9.08,18.37-19.43,19.46l-1.88,3.96-1.93-4.08c-10.42-.92-18.33-9.26-19.41-19.5l-3.73-1.86,3.82-1.66c.87-10.61,9.11-18.64,19.51-19.72l1.68-3.98,2.15,4.09c10.5,1.1,18.39,9.17,19.18,19.6l3.71,1.85-3.68,1.82Z"/>
      <path d="M39.32,18.53c-2.74,1.28-4.76,2.65-6.81,4.68l3.17-1.43-2.26,4.88,10.42,2.23-10.16.26c-.68,1.33-2.21,3.23-2.47,4.48l-2.32,11.11-.42-10.54c-.75-.09-2.84.58-3.01,1.39.81,5.1,1.71,9.88,3.16,14.6l3.14-15.25,7.49,4.93-4.75-7.39,14.82-3.22-14.76-3.28,4.76-7.45Z"/>
      <path d="M17.94,39.83c2.56-1.46,4.04-2.46,6.44-4.25l-2.96.65,1.68-4.56-10.02-2.32,9.74-.24c.81-.37,1.7-2.39,1.23-3.08-.85-1.2-1.73-2.44-2.34-4.1l4.13,3.15,2.27-11.58.76,10.61,3.08-.67-3.43-15.74-3.31,15.77c-2.67-2.14-4.47-3.51-7.26-4.91,1.57,2.82,3.24,4.97,5.12,7.39l-14.77,3.14c4.91,2.13,10.2,1.58,14.17,3.51l-4.53,7.22Z"/>
      <path d="M24.84,28.66l-2.04,6.02c8.45-2.57,8.8-1.79,10.61-10.07l-4.63.75c-1.83.3-3.34,1.54-3.94,3.3ZM30.22,29.27c0,1-.81,1.82-1.82,1.82s-1.82-.81-1.82-1.82.81-1.82,1.82-1.82,1.82.81,1.82,1.82Z"/>
      <path d="M25.98,11.04c-6.31-2.12-17.89,10.35-15.54,16.02,2.05-8.62,7.09-13.93,15.54-16.02Z"/>
      <path d="M10.13,31.25c.05,8.56,7.83,16.01,15.88,16.37-8.88-2.8-13.63-8.04-15.88-16.37Z"/>
      <path d="M46.94,26.8c-.23-8.06-7.3-15.7-15.49-15.95,8.11,2.35,12.93,7.62,15.49,15.95Z"/>
      <path d="M31.22,47.63c8.34-.44,15.9-8.06,15.71-16.33-2.31,8.63-7.28,13.66-15.71,16.33Z"/>
    </g>
  </g>
</svg>