<?xml version="1.0" encoding="UTF-8"?>
<svg id="Warstwa_2" data-name="Warstwa 2" xmlns="http://www.w3.org/2000/svg" viewBox="0 0 44.1 47.64">
  <g id="game-icon-v6-elemental-pixarts-store">
    <g id="game-icon-v6-elemental-pixarts-store_143">
      <path d="M44.1,10.81c-1.65.44-3.68,1.23-4.69,2.39-2.23,2.56-2.12,6.49-.8,9.22.17.35.11,1.41.02,1.61l-3.38-2.08c-1.17-.72-2.58-1.91-3.04-3.39-1-3.2-.2-7.6,2.86-9.24l4.64-2.48c2.41-1.29,3.56-4.13,2.46-6.66-2.16,6.44-6.28,4.04-11.05,4.71-3.51.49-5.54,3.3-5.52,6.79l-2.2-.61c-.52,4.92,2.34,10.57,7.11,12.87-3.35.56-6.09-1.57-8.16-3.96-2.11-2.45-2.73-5.51-3.56-8.87-1.86,8.82,4.24,15.24,11.92,18.45,2.03.85,3.46,2.44,3.84,4.35.4,2.01-.05,4.33-1.86,5.7-1.13.86-2.84,1.07-4.49,1.43.04.32.32,1.43.45,1.7,3.66.67,8.5-3.02,10.34-5.67,1.19-1.72,2.84-3.38,3.36-5.51.66-2.7.67-6.29-.82-8.68-1.32-2.13-3.08-4.54-1.76-7.34.86-1.81,2.96-3.08,4.32-4.73ZM37.06,35.53c.28-5.1-2-8.82-6.27-11.41,5.8-.99,8.09,7.65,6.27,11.41Z"/>
      <path d="M25.34,36.85l1.38,1.01c.46-1.42.76-2.23.89-3.95l-2.53,2.54c-1.28-6.57-3.32-3.88-7.04-11.68-1.71-3.6-3.38-7.03-4.78-10.79-.92-2.47-.27-5.35,1.38-7.58,2.86-3.87,7.21-2.22,10.02-3.58-2.12-1.06-3.4-.25-5.99.1l.7-2.92-4.27,3.98c-1.72,1.61-2.6,3.38-3.36,5.57-.19-1.78.35-3.31.94-5.02l-1.78-1.08.05,3.16-1.02-3.11c-.2-.6-2.24-.11-2.46.27.46,2.33,1.2,4.58.92,7.09l-1.61-6.65c-2.47-.09.24,4.13-.35,6.16-.51-1.7-.74-3.28-1.75-4.79-.92,3.29,2.05,6.55,2.06,9.75-2.57-1.29-3.81-4.78-5.83-4.81,1.41,5.03,5.73,3.15,8.35,11.32,3.84,11.98.69-.93,4.39,9.25-3.72-.49,3.33,3.58,2.49,5.62l-1.69-.98c1.21,3.84,1.77,6.91,2.1,10.62.06.73,2.36,1.01,2.65.33.16-1.38.23-3.43,0-4.66l-1.07-5.7c1.7,1.6,1.76,3.64,2.13,5.76l.97,5.55c1.79-1.82-.05-3.14.46-5.12l1.74,5.04c.9.19,2.64.02,3.62-.27l-1.77-5.6,2.99,5.25-2.91-10.08ZM8.66,16.51c-.88-1.43-1.81-2.84-1.82-4.44l2.3,3.95c.5.98.87,1.93.86,3.56l-1.34-3.07ZM10.69,11.58l4.93,11.35c-2.53-3.55-4.22-7.25-4.93-11.35ZM14.47,27.9c-.66-1.42-1.97-1.99-2.17-3.65l-.35-3.02,3.05,6.03c1.13,2.24,2.02,4.41,2.7,7.53l-3.22-6.89Z"/>
      <path d="M2.37,16.52c.86-.13,1.5-.58,1.78-1.61l-4.15.33c.67.98,1.52,1.42,2.37,1.28Z"/>
    </g>
  </g>
</svg>