<?xml version="1.0" encoding="UTF-8"?>
<svg id="Warstwa_2" data-name="Warstwa 2" xmlns="http://www.w3.org/2000/svg" viewBox="0 0 47.98 57.07">
  <g id="game-icon-v6-elemental-pixarts-store">
    <g id="game-icon-v6-elemental-pixarts-store_164">
      <path d="M42.74,24.04c.59-1.63.79-3.45-.72-4.5.23,2.43.18,4.08-1.22,5.24-6.24-6.63-.37-6.36-5.27-10.7l-.21,2.83c-.1,1.42-3.65-.7-4.09-.39-1.44,1.01-2.45,6.04-6.86,5.96-6-.1-6.22-6.58-7.71-6.19l-2.98.8c-.72.19-1.2-1.69-1.72-3.34-3.77,4.12,1.26,4.37-4.64,11.28l-1.47-1.81-3.15,4.65c1.75,4.68-5.09,5.85-1.78,10.19.62.81,2,1.79,2.97,2.25.05-1.6.08-3.19.4-4.15.2-.58,2.18-1.27,2.52-.75l1.43,2.16c3.9-5.1-4.63-3.33,6.13-11.79l1.59,2.53c1.62,2.17,2.17,4.74.78,7.08l-3.05,5.16-1.02-2.33c-1.12,2.92,1.41,6.85-1.42,7.69l-1.26-3.15c-3.1,3.79,4.17,7.66-2.01,11.96-.5.35-.97,1.37-1.27,2.21,3.59-.02,6.54-.21,9.95-.64.23-2.01.29-3.35.63-4.9l1.3-5.98c.36-1.66,3.46-3.71,5.14-4.88.78-.55,2.81.79,3.6,1.41,2.22,1.74,2.94,4.07,3.37,7.28l.87,6.57c2.77,1.48,6.95,1.58,10.49.76-8.37-7.07-1.6-8.78-3.73-13.13l-1.82,2.27-1.01-4.98c-.62-3.07-3.35-5.16-6.05-7.34l4.18-7.55c11.07,6.67,3.07,8.84,6.69,11.33.69-.95,1.67-2,2.4-1.96.77.05,2.02,1.43,1.93,2.16l-.34,2.93c2.05-.67,3.33-2.19,3.62-3.86.35-2.11-.82-3.61-2.28-5.19-1.16-7.47-1.81-3.3-2.9-7.19Z"/>
      <path d="M19.8,9.18l-1.53-3.58c-1.78,2.99-1.86,5.72-.34,8.83,1.29,2.64,2.92,6.84,6.51,6.53,4.14-.35,8.87-10.59,7.21-12.1l-1.42,1.68c-.31-2.86-.71-4.9-2.24-7l-.74,3.03c-2.58-.97-4.39-3.6-2.94-6.56-5.23,1.66-1.38,6.4-4.5,9.18Z"/>
    </g>
  </g>
</svg>