<?xml version="1.0" encoding="UTF-8"?>
<svg id="Warstwa_2" data-name="Warstwa 2" xmlns="http://www.w3.org/2000/svg" viewBox="0 0 48.76 49.62">
  <g id="game-icon-v6-elemental-pixarts-store">
    <g id="game-icon-v6-elemental-pixarts-store_415">
      <path d="M8.42,47.59l5.1-5.36.72-7.84c.08-.85,1.21-2.25,1.7-2.8,3.1,1.68,3.55,4.08,3.54,7.26,1.08-5.72-.16-4.81-2.64-9.24-.31-6.9,1.19-9.23,1.86-14.11l1.25-9.12c.08-.57,1.91-.72,2.12-.29s.38,1.29.37,1.97l-.09,10.17c-.01,1.26,1.33,3.46,1.7,4.97.7-5.14-1.53-2.11-.87-8.94.26-2.65.06-5.69.81-8.16,1.01-1.59,3.06-2.29,3.43-4.44l-2.61,2.19c-1.19.99-2.51,1.54-4.39.32,1.58-1.83,3.63-3.2,5.96-4.15l1.65,1.97c.61,3.2,1.05,6.56,1.46,10.12.22,1.89,1.23,4.68.55,6.32-2.91,6.98-.81,1.14-1.68,10.7,1.79-2.77-.61-5.48,2.55-9.5,2.44.36,1.77,9.3,2.66,12.55l2.96,10.81,3.47,3.96c-3.27.17-5.71.12-8.97-.65l-.68,1.41c-3.03,1.17-5.86,1.89-9.55,1.93l2.18-4.99-3.39,3.11-5.46-.22c-2.04-.08-3.38.19-5.71.07Z"/>
      <path d="M3.57,41.84c.9-1.14,3.24-1.16,3.49-2.96l-2.66,1.3c-1.03-2.62,1.02-9.02,2.22-8.12l1.11.84-1.07-2.48c-.27-.63-.45-7.68,3.06-6.87l2.13,11.25c.45,2.36.54,5.54-.36,7.65l-3.87,3.66-7.63-.06c1.47-1.63,2.3-2.59,3.57-4.21Z"/>
      <path d="M42.44,41.82l1.7-2.23c1.36,2.78,2.34,4.52,4.61,6.37l-6.99.29-3.87-3.75-1.05-3.93c-.6-2.26-.1-4.04.4-6.21.68-3,.77-5.98,1.87-9.23.61,2.78-1.1,8.37,1.44,10.87-.18-1.51-.65-3.13-.6-4.36l.29-6.21c.86.56,1.37,1.16,1.48,1.85l1.94,12.43c-.56,1.25-1.03,2.44-1.23,4.11Z"/>
    </g>
  </g>
</svg>