<?xml version="1.0" encoding="UTF-8"?>
<svg id="Warstwa_2" data-name="Warstwa 2" xmlns="http://www.w3.org/2000/svg" viewBox="0 0 49.09 62.82">
  <g id="game-icon-v6-elemental-pixarts-store">
    <g id="game-icon-v6-elemental-pixarts-store_565">
      <path d="M47.33,34.86l-2.11,3.62c-.04-11.72-9.95-14.14-7.7-25-3.27,2-3.79,4.88-4.21,8.59-5.9-6.94-10.59-12.16-7.46-22.07-9.26,6.15-9.58,12.73-9.42,23.13-1.58-2.5-1.7-4.77-4.12-6.82l-.93,8.22c-.22,1.95-1.04,3.98-2.18,5.66-.56-2.79-.89-5.32-3.29-7.16.08,3.56-.69,6.59-2.59,9.61C-.09,38.05-1.27,44.87,1.67,50.73c2.29,4.54,5.94,8.24,11.06,10.5-6.52-5.88-7.75-14.95-2.74-22.6,1.78-2.72,2.91-5.36,4.15-8.57l2.03,5.21c4.49-4.19,7.27-9.47,6.03-16.71,4.46,3.71,5.78,8.8,7.58,14.3,1.46-1.36,2.02-3.59,2.18-5.53,1.7,3.57,4.1,6.41,6.33,9.45,5.77,7.85,4.84,17.69-2.2,24.44,10.67-4.01,16-16.16,11.23-26.34Z"/>
      <path d="M30.8,39.82c-2.64-2.73-4.7-5.8-6.26-9.18-1.61,4-3.65,7.08-6.41,9.87l-6.42,6.47c4.59,4.7,11.8,10.34,13.77,15.83,4.38-5.43-5.47-11.9-8.83-15.92l8.27-8.16,7.51,7.77-4.15,3.96c-.67-.2-1.98-1.35-1.86-2.01.11-.56.46-1.64.7-2.42.22-.74-1.56-2.02-2.34-2.02-1.71.09-3.81,3.33-2.46,4.76l5.64,6,9.53-8.08-6.67-6.88Z"/>
    </g>
  </g>
</svg>