<?xml version="1.0" encoding="UTF-8"?>
<svg id="Warstwa_2" data-name="Warstwa 2" xmlns="http://www.w3.org/2000/svg" viewBox="0 0 54.11 52.69">
  <g id="game-icon-v6-elemental-pixarts-store">
    <g id="game-icon-v6-elemental-pixarts-store_92">
      <path d="M16.51,12.12l-2.46-1.13,1.91,3.52-1.26,5.64-3,.97,2.66.94c-.39,4.99-.6,9.48-.43,14.53l-2.34.14c4.44,3.53,1.92,5.21,3.66,11.35-.66.05-1.55-.1-2.29-.39l1.58-.93-2.75-.52c-3.34-.63-2.69-5.16-3.22-8.18l1.47-3.07-2.01.93-1.53-5.97c-.18-.72-1.61-1.72-2.18-2.14l.04,3.75-1.45,2.18,2-.71,1,6.04-3.69,2.75,3.9-.54c.49.79,1.05,2.11,1.26,3.24l-.9-1.61c-.77.98-1.07,2.53-.81,3.9l-4.32,2.05c3.58.65,5.1-1.38,8.28.04l-2.96,1.89c3.73-.58,6.45-1.24,9.88-1.25l-1.84,1.97,4.69-1.25,6.01.35c.53.03,1.69.16,1.87.57l.69,1.52,1.39-2.09c2.56-.12,5.19-.66,7.8-.27l7.45,1.13-6.31-3.54c3.49.84,5.87,1.53,9.04.42l6,.38-4.65-2.22c.81-3.48-2.47-2.24-.68-5.3,1.27.27,2.41.48,3.8.57l-3.68-2.85,1.06-5.7,1.95.47-1.43-2.37.07-3.51c-.68.58-2.03,1.61-2.24,2.46l-1.41,5.76-1.94-1.02,1.35,2.88c-.07,2.42-.26,5.22-1.48,7.27-.79,1.34-3.34,1.21-4.62,1.33l.42-8.41,2.4-2.14-2.16-.32.03-2.3c-1.7.11-2.83,1.27-2.75,3.06.16,3.71-.31,7-1.54,10.57l-7.21.25.17-3.52,2.28-.45c-4.49-2.02-1.06-7.01-3.33-15.42-.43-1.6-.4-2.57-.13-4.21.39-2.37.49-4.81.76-7.32l2.57-3-2.67.6-.18-5.15,1.63-1.81-1.73.11-.97-7.05-1.13,9.68-2.13-.62,2.24,3.03-.2,7.78-2.06-.44c.49.84,1.66,2.16,1.66,3.02v6.2s-2.24-.24-2.24-.24l2.07,2.27c1.53,5.13.79,10.29-1.06,15.34-.19.51-.36,1.44-.75,1.38-.35-.05-1.05-.47-1.25-.79l-1.85-2.92.26,3.53-2.62-.48c-.86-3.12-.98-6.17-1.27-9.37-.33-3.6-1.02-7.19-.05-10.68l3.23-2.7-3.27.5c.34-5.2,1.36-10.06,3-15.18l3.04-2.39-2.27.11,1.68-5.56c-2.74,3.16-3.87,6.9-5.54,10.65Z"/>
      <path d="M47.93,14.91l.31,2.08-1.95,1.05.57,3.83-2.71-.97,2.76,3.49c1.28,1.62-3.02,3.88-4.35,4.45l-.21-2.53-1.89,3.2-5.27,2.3c-.53-.47-1.16-1.3-1.68-2l-.5,2.77c-2.57,1.45-3.19,4.15-2.18,3.77.16-.06.49-.19.76-.32l3.73-1.71c.26.22.82.92.86.72.38-2.14,2.42-2.36,5.9-3.93,1.53-.69,2.54-.67,3.84.4l-.32-1.83c-.19-1.13,3.76-1.27,3.91-5.23l.78,1.46,3.81-1.04c-1.77-.63-3.59-1.13-4.64-2.04-.78-6.79-1.45-4.22,1.46-9.58l-3,1.67Z"/>
      <path d="M34.63,9.46c1.61,4.99,2.47,9.68,2.79,14.87l-3.01-.49,2.78,2.6c.51.48.36,2.14.53,3.09.75-.29,1.85-.82,2.6-1.3l-.51-4.79c-.12-1.14.46-1.94,1.4-2.69l-1.74-.5-1.21-5.89,1.92-3.36-2.46,1.17c-1.58-3.55-2.83-7.15-5.32-10.39l1.52,5.25-2.11-.07c.85.7,2.26,1.75,2.83,2.5Z"/>
      <path d="M4.56,23.04l-4.56,1.86,3.77.97.85-1.38c.78,5.24,5.24,2.92,3.35,7.17,1.52-1.18,2.79-1.41,4.76-.13.38-1.82.3-3.25-.58-4.6l-.55,1.84c-2.12-.86-3.65-1.82-4.78-3.75l3.01-3.95-2.67.76.83-4.86-4.24-.84c.58,1,1.78,2.04,1.64,2.78l-.81,4.11Z"/>
      <path d="M37.97,8.16c4.97.54,3.45.37,6.36,4.98l-1.59,1.21,4.35-.55-1.18-2.42,2.3-3.7-3.52,1.85-4.17-4.1c-.55-.54-.67-2.04-1.01-3.17l-.6,2.11-2.87-1.35,4.19,3.97-2.26,1.18Z"/>
      <path d="M7.16,13.99l4.43.31c-.29-.48-.76-.64-1.9-.98.74-1.55,1.93-3.51,3.1-4.82l3.41-.2-2.36-1.26,3.42-3.56-2.19.86-.53-2.15c-.34,1.19-.64,2.57-.95,3.32l-4.21,4.09c-1.21-.75-2.09-1.3-3.5-1.92l2.3,3.78-1.02,2.52Z"/>
      <path d="M20.74,29.63l-.91,1.98-2.71-.84c0,.6.04,1.61.22,2.07.18.46,1.26.8,1.77,1.07l5.52,2.85c1.24-4.53-3.62-1.12-3.9-7.13Z"/>
      <path d="M18.89,39.1c-.24.33-1.21.56-1.17.92.35,3.55,2.37-.4,5.28,2.22l.02-1.79c1.11-.31,1.89-.5,1.87-.91l-.08-1.66-4.15,1.19.06-2.48-1.84,2.52Z"/>
      <path d="M35.81,41.41c.34.05.64-1.07.56-1.53-.26-1.55-2.28.22-3.15-3.11l-.28,1.67-3.34-1.52c-.52.96-.12,2.11.78,2.5l2.62,1.15-.54,2.03c1.22-.83,2.13-1.37,3.34-1.18Z"/>
      <path d="M31.81,19.53l.91,1.79.77-2.05,2.58-.37-1.3-3.93-.6,2.1-3.73.26c-.43.03-1.31.45-1.34.84-.03.33.15,1.14.3,1.2.67,0,2.17-.3,2.41.17Z"/>
      <path d="M24.87,17.48c-.34-.98-2.18-.22-2.38-1.08l-.51-2.14-.81,1.95-2.69.23c.16,1.52.49,2.99.96,4.2.39-.75.81-1.73,1.32-1.79l3.74-.42c.17-.02.43-.78.38-.95Z"/>
      <path d="M14.1,17.53l.31-1.59-6.04-1.06c-.56-.1-1.27.13-1.84.65l4.01,1.43-.86,1.62c1.57-.7,2.71-1.01,4.42-1.04Z"/>
      <path d="M47.06,17.27c-.53-.65-1.84-1.55-2.62-1.5l-4.64.34.5,2.12,3.65.12c-.09-.21-.33-.73-.33-.75,0-.01.74-.16.93-.17l2.52-.16Z"/>
      <path d="M42.39,39.62c-.85.26-2.25,1.24-1.88,2.73l3.12,1.07c.42-.04.69-1.48.34-1.66-.71-.37-1.35-1.21-1.58-2.13Z"/>
      <path d="M12.98,40.68l-1.28-.81c-.43.8-.79,1.24-1.39,1.75-.36.3-.31,1.36-.05,2.03l2.9-.88c.49-.15.25-1.82-.17-2.09Z"/>
    </g>
  </g>
</svg>