<?xml version="1.0" encoding="UTF-8"?>
<svg id="Warstwa_2" data-name="Warstwa 2" xmlns="http://www.w3.org/2000/svg" viewBox="0 0 59.66 34.28">
  <g id="game-icon-v6-elemental-pixarts-store">
    <g id="game-icon-v6-elemental-pixarts-store_357">
      <path d="M59.66,15.16l-13.1-6.94,2.48,5.75-44.4.04-.03,2.43h43.94s-1.95,5.47-1.95,5.47l13.05-6.75ZM50.31,15.62l4.86.24-5.72,2.63.86-2.87Z"/>
      <path d="M28.27,21.03c5.5-.48,10.56-1.18,15.62-2.92l-3.02.06-15.01.29c-3.98.08-6.73,3.94-7.15,6.95-.56,3.98,1.91,7.07,5,8.29,3.63,1.43,7.63.15,9.37-3.21,1.08-2.08.84-4.67-.59-6.21-1.34-1.44-3.76-1.94-5.63-1-1.72.86-2.35,2.85-1.32,4.21.39-1.3.84-2.79,1.63-3.07.92-.32,2.31-.04,2.89.43.62.5,1.16,2.23.86,3.13-.83,2.55-3.05,3.25-5.27,2.74-1.46-.34-3.06-1.84-3.43-3.77-.61-3.15,2.22-5.57,6.04-5.9Z"/>
      <path d="M29.05,3.36c1.07.46,1.56,1.99,2.01,3.83.94-1.15,1.2-2.92.58-4.33-.42-.96-1.77-2.14-3.07-2.57-2.37-.79-4.63.14-6.15,1.71-1.45,1.49-2.24,3.69-1.44,5.92.81,2.27,3.29,4.05,5.87,4.23,5.61.39,11.06.35,16.37-.14l-15.36-2.59c-2.5-.42-4.16-2.37-3.25-4.65.62-1.56,2.65-2.15,4.43-1.4Z"/>
      <path d="M.39,8.52l4.23,4.39,13.67-.15-2.65-2.37c-1.27-1.13-2.8-1.83-4.5-2.2l.58,2.21c-2.15-1.5-4.02-2.4-5.9-1.95l1.29,1.78c-2.73-1.25-4.06-2.59-6.72-1.72Z"/>
      <path d="M7.01,19.76l-.67,2.15c1.99-.15,3.58-1.08,5.33-2.23l-.9,2.3c3.27-.21,5.03-2.11,7.06-4.32-4.46-.23-8.88-.25-13.36-.03L0,21.69c2.71.78,4.36-.39,7.01-1.93Z"/>
    </g>
  </g>
</svg>