<?xml version="1.0" encoding="UTF-8"?>
<svg id="Warstwa_2" data-name="Warstwa 2" xmlns="http://www.w3.org/2000/svg" viewBox="0 0 52.86 52.21">
  <g id="game-icon-v6-elemental-pixarts-store">
    <g id="game-icon-v6-elemental-pixarts-store_382">
      <path d="M43.7,7.57c-6.38-4.39-14.31-4.57-20.94-.7-3.95,2.31-6.72,5.45-8.42,9.66-.12-2.91,1.25-5.04,2.59-7.59-3.8,2.8-5.33,7.28-6.35,11.78-.46-3.07.3-6.04,1.73-8.72C16.84,3.52,26.25-.31,35.75,1.68c-5.82-2.53-12.57-2.18-18.12.89-10.47,5.79-13.52,18.5-7.12,28.7-6.96-6.83-6.86-17.66-.45-25.22C3.31,11.02.73,19.94,3.93,27.98c2.59,6.5,7.97,10.9,14.57,12.74-3.13.41-5.61-1.02-8.45-1.79,4.96,4.54,11.42,5.09,17.7,3.18-5.31,3.59-12.04,3.02-17.51-.26C4.47,38.38,1.4,32.52,0,26.01c-.19,7.18,3.13,13.69,8.58,17.84,7.28,5.54,16.57,5.57,23.76,0,2.82-2.19,4.81-4.78,6.16-8.14.41,2.88-1.42,4.71-2.33,7.28,3.61-2.75,5.11-6.98,6.08-11.43.59,4.19-.95,8.38-3.65,11.77-5.16,6.48-12.86,8.65-21.17,7.25,9.61,4.13,21.05.2,26.04-9.14,3.77-7.05,2.88-14.25-1.11-20.8,6.69,6.08,6.92,15.42,2.14,23.59,7.6-6.42,7.97-18.02,1.62-25.58-2.99-3.56-6.55-5.83-10.98-7.13,3.03-.44,5.36.92,8.3,1.76-4.78-4.31-11.3-5.09-17.48-3.59,2.45-1.73,5.23-2.11,8.05-1.96,9.79.52,17.18,7.77,18.82,17.23.41-7.13-3.45-13.49-9.13-17.39Z"/>
    </g>
  </g>
</svg>