<?xml version="1.0" encoding="UTF-8"?>
<svg id="Warstwa_2" data-name="Warstwa 2" xmlns="http://www.w3.org/2000/svg" viewBox="0 0 51.11 54.38">
  <g id="game-icon-v6-elemental-pixarts-store">
    <g id="game-icon-v6-elemental-pixarts-store_234">
      <path d="M20.96,40.87c-8.67-7.77-10.09-20.5-3.43-29.76C22.07,4.82,28.78,1.93,36.72,1.97,26.77-2.08,15.2.19,7.71,8.01.55,15.48-1.91,25.96,1.54,36.11c2.92,8.61,10.43,15.86,20.28,17.78,10.5,2.05,21.57-2.45,27.49-11.58-9.12,6.21-20.2,5.86-28.34-1.44ZM7.9,13.46c.28.82,1.27,1.98,2.22,2.33l-2.07,1.86-1.97-1.83c.75-.5,1.49-1.51,1.82-2.37ZM6.02,31.83c-.36-2.2-1.16-3.54-3.74-4.09,2.31-.34,3.35-1.5,3.79-4.11.52,2.16,1.2,3.66,3.64,4.18-2.14.64-2.98,1.41-3.69,4.02ZM14.44,45.69c-1.28.59-2.98-.07-3.84-1.23-.92-1.24-.88-3.28.12-4.37,1.13-1.23,3.2-1.55,4.61-.25-1.74.26-3.21.76-3.54,2.15-.41,1.76.76,2.89,2.66,3.7ZM19.63,50.1l-1.69-2.11c.49-.42,1.42-1.72,1.67-2.42.41.92,1.28,2.04,1.79,2.35l-1.78,2.17Z"/>
      <path d="M44.26,17.01c.43-.98.72-3.3,1.59-3.86,1.27-.81,2.77-1.03,3.85-1.41l-4.08-1.52-1.37-3.85c-1.87,4.64-.07,3.41-5.01,5.29l3.53,1.37,1.48,3.97Z"/>
      <path d="M36.53,32.7c-1.42,3.94-.4,2.51-3.93,4.25,2.42.44,3.45,1.85,3.96,3.93.72-2.78,1.75-3.35,4.15-3.86-3.56-1.82-2.49.16-4.18-4.31Z"/>
      <path d="M23.65,22.37l-1.31,3.52-2.94,1.22c3.59.74,2.93,1.3,4.04,3.88l1.15-2.76c.27-.64,1.92-.74,2.92-1.1-.99-.45-2.24-.91-2.89-1.38-.65-.46-.82-2.43-.98-3.38Z"/>
      <path d="M47.58,27.6c.75.52,1.64,1.64,1.74,2.19l1.79-2.12-1.7-1.93c-.47.59-1.39,1.52-1.84,1.85Z"/>
      <path d="M29.49,16.25l1.83-1.83-1.72-1.71-1.87,1.83c.68.29,1.64,1.23,1.76,1.72Z"/>
    </g>
  </g>
</svg>