<?xml version="1.0" encoding="UTF-8"?>
<svg id="Warstwa_2" data-name="Warstwa 2" xmlns="http://www.w3.org/2000/svg" viewBox="0 0 62.99 46.49">
  <g id="game-icon-v6-elemental-pixarts-store">
    <g id="game-icon-v6-elemental-pixarts-store_75">
      <path d="M32.72,31.28l-.92,3.08c-.15.5.94,1.23.3.84-.1-.06-.79-.1-.87-.02l-4.05,3.51c.3,1.31.64,2.27,1.16,3.63l-4.16,4.18c.82-2.91,4.03-4.02,1.49-6.54-3.82,2.5-4.41.48-7.52,2.43,0-1.83,4.4-1.14,6.04-2.62,1.87-1.69,3.57-3.59,5.2-5.51-.11-1-1.36-2.39-2.27-2.43-1.65.88-2.79,2.03-4.27,3.16.26-.66.83-1.32,1.32-1.84l.08-.9c.07-.75-4.67,1.07-6.99,1.41-1.46.21-2.78.5-3.03,2.14l2.73,1.1c.27.49.74,1.59.91,2.09-1.27-1.41-3.13-2.73-5.3-2.24l-5.96,1.36-5.38,2.14c5.01-3.64,5.71-2.59,10.71-4.58l2.23-3.1-3.81-.59,7.12.03c1.86,0,3.77-1.54,5.39-2.16-.92-.12-8.97-1.94-5.44-3.38,1.45-.59,2.15-.8,3.57.32-.76-1.9-2.52-2.26-4.17-2.69-3.29-.87-3.22.62-5.88.45l2.9-1.04-2.63-.98c2.34.37,4.06.67,6.44.76-.36-1-.77-2.03-1.19-2.88l-4.14-.66c-.78-.12-1.88-.89-2.59-1.37l2.63.77,4.98.68c1,1.9,1.88,3.45,3.69,4.42l3.14-.98-3.61-2.49c1.89.14,6.47,1.54,8,2.23l2.1-1.63c-1.53-2.15-3.56-1.13-5.36-2.27,2.5.18,4.41-.02,6.55-1.2l-.7-1.32c.56.27,1.23.88,1.67.79l2.23-.49-4.78,2.51,3.68,2.59-.71,2.56,2.91-4.76c1.57-2.56,3.93-4.29,6.16-6.47l-1.93,5.65c-.56,1.65-2.07,3.23-3.08,4.52l2.47-.43c.84-.15,1.97-.74,2.83-1.21l.64-2,3.01-.65-2.85,1.33c-.27.14.46.93.78.93l4.56.04,1.07-1.6,3.82-.54c-1.93,1.32-3.46-.52-4.29,2.83l-4.62.15c-.84.03-1.73.74-1.78,1.54,7.47,2.94,10.56-.81,17.53.28l-4.94.29c-1.31.08-2.27.62-3.81,1.11l2.79,1.61c-2.92-.24-3.63-1.89-6.78-.95l-.53,2.31-.88-1.97-3.4,1.58,4.75,1.43c6.89,2.07,4.28-1.39,9.39-.37-.7,1.14-2.62-.36-4.09,1.32.94,1.77,2.76,1.78,4.39,2.2l5.65,1.48c-5.69.43-3.27-2.32-9.3,1.49l1.7,1.78c-1.21-.56-2.03-1.07-3.11-1.75l2.56-1.94-2.31-1.58c-1-.69-2.39-.46-3.69-.75l-3.43-.79c-1.22-.28-2.79.59-3.89.95.72.94,1.13,1.94,1.31,3.02-.74-1.36-1.44-2.09-2.79-2.48l-1.35-2.06.41,1.7c.09.36-.54.91-1.09,1.38.62.69,1.65,1.99,2.51,2.5l3.37,2-1.43,3.65c2.59.86,4.28,2.29,5.31,4.61-2.24-1.83-3.64-3.3-6.53-3.77l.64-3.61c-.03-.44-1.43-1.17-1.89-.93-.3.28-.86.94-1.23,1.02l-4.06.92c.39-.79,4.32-1.23,4.24-2.26-.1-1.32-5.91-4.71-5.81-4.31l-.41-1.71Z"/>
      <path d="M16.81,7.92c1.71,1.67,3.14,3.71,2.84,6.07-4.26-2.34-4.4-2.46-4.4-7.2.69.42.93,1.19,1.21,2.23l.34-1.1Z"/>
      <path d="M10.18,28.74l-1.8.79.66-.77c.14-.17-.56-.65-.76-.83-1.94-1.77-3.85.71-8.28-.31,2.19-.19,4.1-.08,6-1.05.92-.47,1.92-.3,2.74.37,3.34,2.73,7.62-1.97,7.7,1.53l-6.26.28Z"/>
      <path d="M45.88,6.6c-.37.56-.92,1.07-1.79,1.32.56-4.04.92-4.13,4.47-6.22.47.66-1.66,6.74-2.69,4.9Z"/>
      <path d="M38.13,13.5c-.34-2.14.21-4.14,1.98-5.57.78,2.2.17,4.32-1.98,5.57Z"/>
      <path d="M23.38,5.21c-1.38-1.35-2.26-3.19-1.3-5.21,1.22,1.42,1.96,3.13,1.3,5.21Z"/>
      <path d="M46.95,14.78c-.29.46-1.64.61-2.03.55.49-1.42,1.38-2.29,2.79-2.86-.12.62-.39,1.71-.76,2.31Z"/>
      <path d="M20.21,20.86c-1-.47-1.68-1.58-1.84-2.68,1.32.28,2.28,1.07,1.84,2.68Z"/>
      <path d="M24.68,15.81c-1.41.08-1.96-1.51-1.41-2.76.64.75,1.07,1.51,1.41,2.76Z"/>
    </g>
  </g>
</svg>