<?xml version="1.0" encoding="UTF-8"?>
<svg id="Warstwa_2" data-name="Warstwa 2" xmlns="http://www.w3.org/2000/svg" viewBox="0 0 49.3 56.63">
  <g id="game-icon-v6-elemental-pixarts-store">
    <g id="game-icon-v6-elemental-pixarts-store_165">
      <path d="M5.07,51.19c.31.13.84-1.05.74-1.32-4.43-2.36-4.36-7.45-2.93-7.6l1.84-.19,27.16,5.15,12.21-33.73-27.36-3.53c-1.54-.77-2.99.32-3.79,1.84L1.23,38.7c-2.26,5.18-1.66,10.25,3.84,12.49ZM41.33,15.31l-2.1,4.63-3.01-5.63,5.11,1ZM30.81,44.7l-5.92-.81,7.61-4.36-1.69,5.17ZM16.55,12.09c1.47-.07,3.22.13,4.87.53l-6.34,3.73,1.47-4.26ZM20.34,22.09l-.34,3.76,5.09-5.14c.56-.57,1.2-2.01,1.71-3.04,3.17,4.42-2.29,4.91-.33,8.23l3.43-2.63-1.19,4.07c-.1.33-.27,1.54-.3,1.94-.03.43.65.57,1.57.87-.17,4.15-4.1,6.85-8.66,6.68-2.25-.09-4.56-1.24-5.69-3-2.22-3.45,1.72-9.63,4.7-11.74ZM14.2,18.23l-4.75,12.09c-.35.89-1.41,2.06-2.3,2.73,1.73-5.24,3.36-10.24,7.05-14.83ZM5.59,36.04c.13-.28,1.15-1.25,1.28-.98l.61,1.25,2.14,4.34-5.78-1.01,1.75-3.6Z"/>
      <path d="M48.59,9.37l-2.05,2.94c-1.62-2.13-1.07-3.27-.63-5.16,1.16-4.91-.47-5.25,2.75-7.14-7.32.15-2.23,5.38-10.26,6.31l-3.61.42,2.01-3.64c-1.36.08-3.01.84-4.13,2.12-3.32,3.77-6.45,2.2-6.2,1.58l.57-1.46c-2.02.57-3.68,1.25-5.5,3.15l21.48,3.12c1.54.22,2.32,1.49,2.03,2.99-.71,3.74-.14,9.63-.29,10.06l-10.56,29.84-19.39-3.52c-.48-.09-1.85.4-1.68.85.13.33.84.98,1.25,1.06l21.22,3.76,11.73-34.21c-3.23-5.41,4.21-5.3,1.25-13.05Z"/>
      <path d="M8.93,53.2l2.21,2.47,1.4-8.58-5.03-1.04-1.51,8.55c1.49-.79,2.48-1.9,2.93-1.4Z"/>
      <path d="M31.57,52.39c1.44.27,2.22-1.09,2.56-2.26,1.83-6.22,4.31-11.79,5.61-18.22l-7.28,19.9-16.57-2.98c5.11,1.76,10.1,2.5,15.68,3.56Z"/>
      <path d="M31.96,49.74c-5.07-1.75-9.43-2.53-14.21-2.68,4.8,1.29,9.55,2.35,14.21,2.68Z"/>
      <path d="M23.49,32.95c-.87-1.89-1.24-3-1.52-4.46-2.01.47-3.66,3.45-2.54,5.49.86,1.59,4.71.38,4.06-1.04Z"/>
    </g>
  </g>
</svg>