<?xml version="1.0" encoding="UTF-8"?>
<svg id="Warstwa_2" data-name="Warstwa 2" xmlns="http://www.w3.org/2000/svg" viewBox="0 0 49.5 51.72">
  <g id="game-icon-v6-elemental-pixarts-store">
    <g id="game-icon-v6-elemental-pixarts-store_97">
      <path d="M18.23,23.39c1.21-.06,2.24-.11,2.38.42l-3.01,4.69,1.99-.28-1.13,3.16c.14.1.76.75.72,1.01l-.61,4.43,3.77-2.81,1.18.06c.57.03.88-1.96,2.53-2.5l.44,2.33,3.03-5.49c.94.72,1.2,1.51,1.4,2.48.21-.41.86-1.48.99-2l1.13-4.58,2.01,1.78c1.05-6.22-3.37-6.62-1.68-9.7l2.13,1.61c-.91-2.44-2.26-5.39-.68-7.64l1.47-2.09c1.8-2.56,2.73-5.3,3.99-8.27-2.56,3.54-5.8,7.93-7.34,11.81l-5.44,1.68,1.71,1.12c-3.18,2.41-3.25-.65-9.22,3.25l3.05.63c-1.88,1.53-3.63,3-4.8,4.89ZM22.9,27.8c1.05-.8,1.96-2.2,2.75-3.86l-2.65.25,3.24-1.56c.83-.4,1.58-2.29,2.06-3.2l-3.92.37,4.59-1.73,3.77-5.22c-.1,2.1-1.66,3.5-2.12,5.51-.47,2.07.38,4.13.32,6.38l-1.44-4.96c-3.12,4.5-1.87,3.07-1.9,8.26l-1.02-3.8c-1.32,1.87-2.08,3.56-2.26,6l-.37-1.93-1.18,1.9c.2-1,.41-1.85.13-2.4Z"/>
      <path d="M.55,38.31l5.34-3.2.91.93,2.47-3.37.82,1.37c.68-.98,1.55-2.54,1.57-3.51-.91-.38-1.88-.68-1.93-1.21-.05-.55.09-1.57.47-1.83,1.23-.84,3.06.78,2.93-.02-.24-1.39-2.4-3.12-.29-5.66.75-.91,5.72-9.26,6.55-11.13-2.38,2.75-4.43,5.45-6.4,8.39l-2.8,4.16c-.09.13-.39.6-.32.49.07-.1.74.25.68.34-.92,1.5-2.69,4.04-4.01,5.4l1.71-3.56c.3-1.01.47-1.52,1.12-3.06l-3.16.18c.8.92,1.35,1.27,1.24,1.75-.12.51-1.19,1.05-1.64,1l-3.09-.32c-.52-.05-1.31,1.09-1.42,1.53l1.63.12-.85,1.45-2.08,3.26,1.22.18c.12.02.03.56.01.7l-.69,5.62Z"/>
      <path d="M26.7,42.31l-1.05,1.33c-.23.29.45,1.08.52,1.41-.45.82-.47,1.7-.03,2.48l.02,3.34,4.8-3.4.46.95,1.98-3.26.67.87c2.09-1.51-.71-4.28.51-4.58l1.1-.27-1.54-3.52-4.13,6.57c.87-2.82,2.28-5.23,4.01-7.4.48-.59,1.37-1.34,1.68-1.98,1.11-2.28,2.04-4.22,3.02-6.54-2.34,2.85-4.16,5.72-6.1,8.92l-2.32.29c-.3.04-.69.83-.79,1.11-1.02.58-2.52,1.48-3.36,2.13.72.52,1.19.72,1.05.89l-.52.66Z"/>
      <path d="M42.23,13.81c-2.06,2.19-2.97,5-2.54,7.92l3.94-2.82c1.31-1.65,2-3.44,1.76-5.6,1.27-2.13,2.37-4.22,3.1-6.43-1.71,1.91-2.94,3.86-4.24,5.99l-2.02.95Z"/>
      <path d="M7.14,12.49l-.91,4.57c7.44-2.89,6.1-7.83,6.78-9.01,1.19-2.07,2.72-3.83,3.38-6.21l-4.79,6.36c-1.94.75-4.02,2.11-4.46,4.3Z"/>
      <path d="M46.52,35.62c-3.43,2.25-3.31,2.59-4.09,7.96,3.25-1.88,5.69-3.79,5.12-7.45l1.95-4.13c-1.27,1.04-1.71,2.79-2.98,3.62Z"/>
      <path d="M8.96,41.59c-1.03,3.31-1.64,6.54-1.99,10.14l8.19-6.09c-1.89.27-2.99.9-4.51,1.5v-1.49s-1.6,3.02-1.6,3.02c.09-2.67.8-4.65-.1-7.07Z"/>
      <path d="M47.65,22.03c-1.64,1.43-2.37,3.28-3.65,4.92-1.47,1.89-3.01,3.75-2.86,6.17,4.81-4.08,1.92-2.23,3.43-5.14l3.09-5.96Z"/>
      <path d="M28.82,3.78l-2.14,2.51c-1.09,1.27-1.85,2.65-2.11,4.36,1.65-.95,2.37-2.46,3.09-4.15l1.16-2.71Z"/>
      <path d="M14.83,38.97c-1.84,1.75-2.91,3.68-3.52,5.88,1.7-1.87,2.79-3.84,3.52-5.88Z"/>
    </g>
  </g>
</svg>