<?xml version="1.0" encoding="UTF-8"?>
<svg id="Warstwa_2" data-name="Warstwa 2" xmlns="http://www.w3.org/2000/svg" viewBox="0 0 55.33 55.09">
  <g id="game-icon-v6-elemental-pixarts-store">
    <g id="game-icon-v6-elemental-pixarts-store_523">
      <path d="M48.21,18.51L55.33,0l-18.38,6.96,6.4,2.71-26.64,26.88c-2.67,2.69-6.21-1.35-8.54,2.98l5.04,1.03c-3.43,2.17-6.42-1.23-9.01,2.6l5.15.96c-2.68,2.32-7.3-1.39-9.35,3.09l5.77.59,2.33,1.57.58,5.71c4.09-2.21.58-7.28,3.08-9.5l.81,5.57c4.04-2.75.21-6,2.87-9.26l.75,5.28c.85-.41,2.08-1.79,2.07-2.67l-.09-5.32,27.48-27.25,2.57,6.57Z"/>
      <path d="M41.09,25.57l-.13-6.29c-1.88.66-1.99,1.94-1.89,3.5l.12,1.9c.1,1.49-3.96-.14-3.92,3.96.06,6.62-4.28,3.19-5.49,6.45l.79,3.56,1.37-4.33,3.38-.73c.55-.12.66,1.98.72,2.21,1.74-3-.92-1.35,1.14-7.91.31-.99,2.71-1.65,3.9-2.31Z"/>
      <path d="M20.38,20.28l6.71.72c2.85.3-.2-4.23,3.92-6.24,1.14-.56,2.2-.06,3.66,1.2l2.9-2.59c-6.4,1.36-3.72-1.74-8.74,1.25-1.39.83-2.77,1.29-4.31,1.79l3.6.14-.66,3.37-7.06.36Z"/>
    </g>
  </g>
</svg>