<?xml version="1.0" encoding="UTF-8"?>
<svg id="Warstwa_2" data-name="Warstwa 2" xmlns="http://www.w3.org/2000/svg" viewBox="0 0 62.19 62.42">
  <g id="game-icon-v6-elemental-pixarts-store">
    <g id="game-icon-v6-elemental-pixarts-store_296">
      <path d="M31.1,62.42l-6.97-14.09-15.26,4.95,5.22-15.05L0,31.1l14.07-7.01-5.14-15.08,15.14,4.95L31.07,0l7.09,14.06,15.11-5.08-5.13,15.1,14.05,6.97-14.16,7.18,5.4,15.06-15.45-5.05-6.88,14.17ZM30.94,8.24l.99,8.07,4.81-1.96-5.67-11.49-5.71,11.55,4.89,1.67.69-7.84ZM16.58,16.69c2.07,1.32,2.78,1.99,4.61,3.47l2.34-5.03-12.57-4.21,4.3,12.63,4.86-2.29-3.53-4.58ZM45.66,16.65l-3.5,4.72,4.87,2.06,4.19-12.45-12.61,4.25,2.38,5.03,4.67-3.6ZM29.34,17.13l-4.57-1.6c-.83,1.75-1.29,2.83-1.84,4.52l6.41-2.92ZM39.32,20.14l-1.9-4.72-4.58,1.64,6.47,3.08ZM29.92,21.38c.72-.24.96-2.57.67-3.5l-7.35,3.39c2.36.47,4.45.85,6.68.12ZM38.58,21.35l-6.84-3.52c-.15,1.57-.03,3.06.65,3.87l6.18-.35ZM39.79,28.85l.17-6.73-6.56.41c3.58,1.4,5.28,3.05,6.4,6.32ZM28.7,22.58l-6.56-.33.37,5.96c1.29-2.95,3.16-4.54,6.19-5.63ZM17.21,29.43l2.72-6.55-4.33,1.88,1.61,4.67ZM46.7,24.7l-4.51-1.91,2.78,6.61,1.72-4.7ZM21.72,29.69l-.44-6.47-3.35,7.9c1.6-.29,2.72-.72,3.79-1.43ZM39,31.18c0-4.36-3.53-7.89-7.89-7.89s-7.89,3.53-7.89,7.89,3.53,7.89,7.89,7.89,7.89-3.53,7.89-7.89ZM44.27,30.66l-3.36-7.42c-.32,2.3-.39,4.51-.12,6.53.11.84,2.54,1.16,3.48.9ZM16.21,31.9c-3.23-.23-5.35-.13-8.03-.95l8.06-.51-1.74-5.09-11.66,5.8,11.69,5.88,1.67-5.13ZM45.99,31.95l1.82,5.06,11.6-5.94-11.69-5.82-1.6,5.24,7.97.44c-2.79.88-5.06.66-8.09,1.02ZM21.74,32.58c-1.12-.66-2.33-.92-3.79-.92l3.35,7.05.44-6.12ZM44.12,31.88c-.99,0-2.04,0-2.72.04-.57.03-1.01,1.57-.94,2.14l.6,4.99,3.06-7.17ZM19.88,39.29l-2.56-6.35-1.72,4.6,4.28,1.75ZM46.7,37.44l-1.71-4.65-2.62,6.73,4.32-2.09ZM28.62,39.87c-3.38-1.46-4.58-2.85-6.15-5.84l-.26,6.01,6.42-.17ZM40.14,40.34l-.59-6.04c-1.29,2.91-2.86,4.12-5.65,5.53l6.24.51ZM21.18,42.06l-5.04,4.06,3.86-5.13-4.72-2.3-4.39,12.63,12.63-4.15-2.34-5.12ZM40.92,42.12l-2.26,5.03,12.61,4.09-4.34-12.54-4.74,2.37c1.69,2.09,2.62,3.18,3.92,5.19l-5.19-4.14ZM30.54,44.37c.49-1.69-.02-2.94-1.12-3.88l-6.24.46,7.36,3.42ZM38.48,41.07l-6.39-.32c-.33,1.26-.41,2.5-.29,3.62l6.67-3.3ZM29.5,45.05l-6.62-2.76,1.82,4.64,4.81-1.88ZM37.6,46.93l1.9-4.81-6.64,2.95,4.74,1.87ZM31.93,46.15l-1.02,7.48-.64-7.44-4.91,1.71,5.71,11.74,5.76-11.69-4.89-1.81Z"/>
      <circle cx="31.07" cy="31.16" r="5.75"/>
    </g>
  </g>
</svg>