<?xml version="1.0" encoding="UTF-8"?>
<svg id="Warstwa_2" data-name="Warstwa 2" xmlns="http://www.w3.org/2000/svg" viewBox="0 0 66.69 43.83">
  <g id="game-icon-v6-elemental-pixarts-store">
    <g id="game-icon-v6-elemental-pixarts-store_452">
      <path d="M22.85,19.35c-.54,1.24-1.04,2.59-1.08,3.99-.07,2.16-1.18,3.77-1.68,5.61-.75,2.76,1.35,5.53,1.36,8.4-1.03-2.41-1.54-5.02-2.19-7.88l-1.05,1.18c-.88,2.59,1.94,3.54,1.24,8.59l-.62-3.34-2.33-7.47-.81-2.52-1.26,9.5,1.53,2.57c-.73-.71-1.26-1.34-1.84-2.03-.58,2.1-2.29.82-3.26,2.62l-1.6,2.96,4.29.93c.98.21,2.41-.28,3.46-.29l5.52-.09-2.34-1.52,8.3-.45-3.29-1.4c-.17-1.86-.4-3.3-.8-5.15l-1.3,3.17-.05-8-1.48,2.35,2.2-6.17c.42-1.17,1.1-2.16,1.33-3.67l1.1,5.8c.54-3.67.92-6.79,1.83-10.35.73,1.83.9,3.41,1.34,5.33.82-5.4,1.26-5.49,5.05-8.52l.94,2.01c.9,1.93,1.83,5.57,2.16,8.08l1.39-4.68c1.14,2.52,2.04,4.37,3.21,6.57.63,1.19,0,3.29.18,4.59.31,2.35.65,4.24.57,6.72l-1.36-2.36-1.09,3.57-3.27,1.35,7.19.84-2.8,1.58c1.86.04,4.17.67,5.98-.25,3.84-1.95,3.46-8.04,5.69-10.51-.14-2.2-1.4-4.32-2.43-6.18l-1.59-2.87c-.11,2.28-.11,4.25.04,6.82-1.28-.48.08-4.14-.57-6.25-1.47,6.45.51,8.4.09,13.92l-2.62-4.93c-.52,2.43-.67,4.34-.89,6.77-.27-2.61-.04-5.06.48-7.82,1.17,1.16,1.83,2.32,2.5,3.72.25-1.9-.46-3.82-.45-5.68.01-2.95.53-5.69.09-8.97,1.29,1.29,2.31,2.93,3.32,4.88,1.01,1.96,3.08,5.32,2.44,7.55-.05.19-.24.1-.84.14l-1.27,4.79c-.14.51-.76,1.4-1.11,1.96.01.24.48.75.82,1.07l-1.2-.12-3.39,3.43c1.28.22,2.87.76,4.08.55l4.1-.71c.26-.13.94-.56,1.2-.62l4.66-1.08c-.21-.54-.34-.89-.34-.88l2.92-.34-2.4-4.25,2.62,3.13,3.25-.15-3.49-3.6-.39-4.64-1.59.79-2.27-12.47-3.24,4.07-3.21-11.59c-1.12-1.88-2.72-3.64-4.18-5.64-1.52,2.08-2.24,4.51-2.44,7.02-.18-.36-.28-.82-.41-.8l-.67.09.77-.94c.61-.74-1.56-2.88-2.9-4.83-.74-1.09-1.82-2.05-3.13-1.88l-1.54,1.48,1.06-1.7-6.71-4.25-6.39,4.04c-1.97,7.34-1.3,4.11,1.01,10.58l-.87-.84c-1.39,4.72-1.98,2.67-3.25,5.58ZM55.14,32.24l-.89,2.55c-.24-1.58.37-2.6.82-4.01l3.98,8.34c-1.8-1.87-2.9-4.35-3.91-6.88ZM54.55,25.64c.21-.23.38-.41.43-.47h0s.02-.02,0,0c-.07,1.67.93,1.56,1.96,2.02.35-1.98.66-3.95,1.47-5.82l-1.15,6.15,1.36,1.73c.63,1.28.97,2.88.89,4.3-1.25-3.74-.98-5.51-4.96-7.01-.99-2.27-1.87-4.57-1.99-7.17l2,6.26ZM49.96,12.93l2.23-1.36c-.32.54-1.05,1.24-1.71,1.88l-.05,5.69-1.03-6.32c-.3-1.83-.75-3.43-.78-5.39l1.35,5.5ZM43.24,19.52l-.44,4.34c-.09.9.3,1.74.8,2.98-1.5.55-1.34-6.58-.37-7.33ZM35.96,7.95l1.8-1.74c-.24.96-.95,1.55-1.72,2.1.69,1.79,1.35,3.74,1.69,5.75.17,1.02,1.24,1.43.79,2.78-2.51-4.78-.17-5.45-5.16-10.82l2.6,1.94ZM28.27,7.78l-.07,1.92c.09,1.58.19,2.98.09,4.43l-.39-2.68c-.19-1.3-.2-2.58.36-3.67Z"/>
      <path d="M5.57,35.67c3.32-.53,1.72-2.72,3.38-5.86-.33-.84-.72-1.82-1.01-2.88,1.11,1.35.89,2.7,2.14,4.17.81-2.17,1.42-3.56,2.59-5.24l.18-2.97c.14-2.3.28-4.33-.02-6.61l.39.47c.6.72,2.45-5.65,2.6-5.77l-.44,3.42-1.91,3.23c-.28,1.33-.04,2.95-.18,4.3l-.4,4.06-2.11,4.11-.39,4.11c-.33-1.42-.21-2.47-1.46-3.37l-1.2,4.42-2.01,1.39-1.72,3.69,5.54-.12c2.27-7.01,2.98.9,4.8-9.55l1.31-7.55.92,3.74,1.15,4.14.49-.36c1.45-4.29,1.85-1.07,2.94-7.59.23-1.41.8-2.55,1.31-3.81.46-1.13.92-1.76,1.75-2.62.71-.73,1.08-2.25,1.89-2.86l-1.61-3.85-2.59,3.02c-.14-1.57,1.54-1.54,1.98-2.59.76-1.83,1.16-3.85,1.49-5.84-2.25,2.46-2.27,3.87-5.12,5.96l-2.32,9.93,1.59-9.68-2.63-3.11-5,6.49-2.6,12.31-2.55-2.31-.96,5.81c-.65.71-1.75,1.34-2.02,2.22l-1.09,3.65-2.67,3.15,3.89.19,1.69-3.43Z"/>
    </g>
  </g>
</svg>