<?xml version="1.0" encoding="UTF-8"?>
<svg id="Warstwa_2" data-name="Warstwa 2" xmlns="http://www.w3.org/2000/svg" viewBox="0 0 61.75 64.69">
  <g id="game-icon-v6-elemental-pixarts-store">
    <g id="game-icon-v6-elemental-pixarts-store_187">
      <path d="M21.75,51.54c3.81-.15,6.14-2.65,9.09-4.49l8.58-5.36c-1.68-1.43-2.8-2.22-3.07-3.97,1.91,1.29,4.53,3.07,6.44.97,5.67-6.24,1.28-14.63-3.39-20.13-1.97-2.32-4.97-3.45-7.79-3.3-2.71.14-5.32,1.2-6.8,4.37,7.05,5.38,6.32,2.94,13.17,1.36-1.73,2.34-4.9,2.73-7.9,3.31l2.5,1.78c-2.19.31-3.61-1.84-4.79-3.08-.84-.88-3.98-.75-4.6.26-1.03,1.7-.15,4.32.56,6.02l1.57,3.76c.26.62.35,2.35-.26,2.58l-2.35.85-2.07,3.86,4.76,4.2c-2.16-.96-3.03-1.44-5.36-.94l-2.36-2.91c-4.75,5.38-5.72.9-13.19,6.63-2.49,1.91-4.98,4.06-4.39,7.64,8.5-.61,5.46-4.97,7.61-5.17l3.43-.31c1.18.11,1.71.43.36.62-1.68.37-3.47.71-4.23,1.22-.6.41,0,2.77.12,3.17l-3.33.71,1.32,2.05c-2.06-.37-4.21-.52-5.34.66.45,4.17,4.37,6.97,8.67,6.8,3.17-.12,5.93-1.98,8-4.08l-.9-1.11c2.56-.31,3.7-1.27,4.7-3.24l2.04-2.72c-1.03-.11-2.05-.04-2.05-.44v-1.09c0-.26.93-.45,1.23-.46Z"/>
      <path d="M6.53,21.25c.71,6.17,9.65,4.62,5.3,13.5,1.74-.69,3.99-2.72,4.28-4.61.77-4.97-4.65-6.12-5.07-9.22-.12-.88.8-2.94,1.6-3.38l6.24-3.42c2.44-1.34,4.52-3.71,4.74-6.56.27-3.41-2.33-6.13-4.79-6.93-3.11-1.02-6.34-.35-8.26,2.38-.74,1.06-.84,3.07-.45,4.5.3,1.11,1.8,2.2,3.5,2.16-.94-1.19-1.82-2.23-1.78-3.18.05-1.19,1.76-2.42,2.78-2.37,2.12.09,3.61,1.54,3.9,3.27,1.12,6.67-12.96,5.56-12,13.86Z"/>
      <path d="M32.37,53.26c2.85-1.4,5.62-1.52,8.39-.31,3.69,1.61,7.96,1,10.25-2.39,1.41-2.07,1.15-4.69-.26-6.26-1.59-1.77-4.21-2.33-6.37-.96-.67.43-1.48,2.31-1.11,2.99.32.58,1.38,1.45,1.84,1.7-.27-1.24-.51-2.15-.29-2.81.19-.57,2.15-.6,2.51-.12.58.78,1.12,2.12.85,2.79-2.89,7.18-12.9-2.5-15.81,5.38Z"/>
      <path d="M41.48,4.56c-1.24-2.9-4.42-1.44-6.32-.24-2.38,1.49-5.05,6.47-1.49,8.18,4.28,2.06,9.39-4.28,7.82-7.94Z"/>
      <path d="M42.3,11.18c-.91,1.18-1.75,3.69-.22,4.56,1.49.85,3.36-.27,4.25-1.24.8-.87,1.68-3.48.89-4.3-2.02-2.07-4.03-.16-4.92.98Z"/>
      <path d="M53.07,9.46c.31.07,1.55-.37,1.71-.63.46-.75-.57-.09-1.12-1.54-1.79-4.75,7.96-3.76,8.08-7.29-3.77,3.04-8.89-.26-10.73,4.43-.77,1.94.41,4.64,2.05,5.03Z"/>
      <path d="M1.31,43.95c1.12-5.77,8.47-4.85,5.37-10.43-.96-1.73-4.13-3.35-5.47-.36,1.47-.56,2.97-.52,3.41.46,2.4,5.26-6.2,3.85-3.31,10.33Z"/>
      <path d="M60.33,10.58c-.26-.75-1.26-1.78-1.75-2.12-.04,4.5-3.34,3.16-3.81,6.12-.42,2.61,3.01,2.78,1.37,7.72,2.61-1.17,2.74-3.43,1.39-5.4-2.12-3.09,3.71-3.73,2.8-6.33Z"/>
      <path d="M31.01,59.46c2.86,1.55,6.46.14,6.79-3.34-5.15,4.52-8.34-2.7-13.8,3.49,2.83-.7,4.84-.9,7.02-.15Z"/>
      <path d="M50.38,15.69c-.88-.62-3.34.08-4.18,1.02-.86.97-1.45,3.2-.36,4.07,2,1.58,3.91-.36,5.05-2.47.25-.47-.04-2.29-.51-2.62Z"/>
      <path d="M50.88,21.76c-2.07.16-4.62,2.78-3.41,4.76.49.79,2.91.64,3.68.14.76-.49,1.72-1.93,1.96-3.34.1-.59-1.63-1.6-2.23-1.55Z"/>
      <path d="M52.5,28.76c-1.42-.3-2.84.12-3.67.87-.58.52-1.03,2.44-.46,3.1.94,1.09,3.2.3,4.42-1.14.55-.65.43-2.67-.29-2.83Z"/>
    </g>
  </g>
</svg>