<?xml version="1.0" encoding="UTF-8"?>
<svg id="Warstwa_2" data-name="Warstwa 2" xmlns="http://www.w3.org/2000/svg" viewBox="0 0 53.33 50.12">
  <g id="game-icon-v6-elemental-pixarts-store">
    <g id="game-icon-v6-elemental-pixarts-store_325">
      <path d="M26.42,25.43c.96,13.17,13.3,22.96,26.9,20.85-12.6,8.17-28.98,2.67-35.38-10.64,1.85,1.43,3.2,2.66,5.1,3.55-7.66-8.34-8.4-21.04-1.97-29.93l-.73,6.69C24.17,4.2,36.46-2.7,48.45,1.01c-9.52,2.19-15.55,8.25-16.08,17.83-.7-3.11-.13-6.1.63-9.66-6.44,7.16-5.61,17.64.25,25.28-3.73-1.88-5.24-5.59-6.82-9.02ZM36.78,2.72c-9.98,2.52-15.79,12.9-14.39,22.3.1-10.03,5.71-18.27,14.39-22.3ZM40.1,47.24c-5.41-1.79-9.94-5.07-14.03-9.22,2.95,5.1,8.04,8.54,14.03,9.22Z"/>
      <path d="M15.26,34.95C6.11,29.66-.52,17.63.03,6.81c1.48,9.88,5.86,18.68,14.18,24.67l1.05,3.48Z"/>
      <path d="M15.06,38.56c2.38,1.15,4.34,2.74,5.39,4.94C11.55,40.09,4.15,33.58.66,24.93c4.12,5.39,8.06,10.51,14.39,13.63Z"/>
      <path d="M24.22,46.74l5.19,2.96c-8.36-.96-15.78-4.73-21.61-10.47,5.3,3.2,9.98,6.67,16.42,7.51Z"/>
      <path d="M13.09,24.41c.4.33.45,1.82.29,2.29-3.52-2.87-6.58-6.37-7.85-11.06,2,3.01,4.61,6.38,7.56,8.77Z"/>
    </g>
  </g>
</svg>