<?xml version="1.0" encoding="UTF-8"?>
<svg id="Warstwa_2" data-name="Warstwa 2" xmlns="http://www.w3.org/2000/svg" viewBox="0 0 52.94 54.09">
  <g id="game-icon-v6-elemental-pixarts-store">
    <g id="game-icon-v6-elemental-pixarts-store_127">
      <path d="M52.14,21.4c-3.43-7.07-11.6-3.62-9.79-3.2l1.15.27c1.9.45,3.8,1.45,4.52,2.84,2.22,4.22-1.33,5.63-1.55,7.8,2.5-1.88,3.65-3.62,3.89-6.5,1.96,3.84-4.12,12.23-9.05,10.72l-5.42-1.65c2.13-1.04,4.18-2.51,6.24-3.91.89-.11,2.54.21,3.2-.26.74-.53,1.45-1.94,1.53-2.8-1.57,1.48-3.34,2.37-5.36,2.16l.5-2.95-2.67-.91c-2.16-.74-4.59-.5-5.64,1.98-.28.65,0,2.27.63,2.81.52.45,1.71.46,2.59.13.81-.3,1.33-1.39.99-2.34l-1.45,1.48c-.25.26-1.39-.29-1.48-.66-.33-1.41,1.05-2.79,2.5-2.62,1.15.14,2.66,1.01,2.45,2.54-.57,4.2-6.64,3.15-10.55,5.81-.18-4.2,1.75-10.25,6.01-11.14,7-1.45,5.31-5.33,9.73-8.64-.12,1.2-.4,1.63-.92,2.73l3.13-1.75-.64,2.39c1.32.1,1.95-1.27,1.95-2.18,0-.68-.7-1.85-1.52-2.07-.65-.18-1.69.15-2.49.44.1-3.03-.89-5.67-2.93-7.29-1.96-1.56-4.83-2.21-7.33-.87-.44,1.94,4.56.4,6.42,3.54,1.46,2.48,1.35,5.61-.11,8.29-.98,1.8-3.19,3.6-6,4.21,1.29-2.83,1.84-5.94-.68-8.09.91,2.78.94,5.53-1.04,7.65l-3.91,4.21c-2.27-4.01-3.49-5.32-.65-9.67,1.3-1.99,2.3-4.27,1.31-6.42-.83-1.81-2.76-3.06-4.51-2.84-1.81.22-3.44,1.77-3.77,3.78-.27,1.67.82,3.13,2.29,3.35,1.33.2,3.03-.8,3.15-2.4.04-.55-.8-1.64-1.3-1.74-.5-.1-1.53.73-1.53,1.3,0,.21.77.4.79.19.01-.14.57-.56.71-.53.67.18-.15,1.96-.92,1.93-.77-.03-1.79-.82-1.78-1.52.03-1.89,1.22-2.84,2.76-2.94,1.16-.07,2.7.88,2.97,2.45.26,1.5-.45,3.34-1.43,4.45-5.37,6.06.99,9.54-.65,14.51-7.49-6-.44-12.11-3.7-13.73l-.65,4.82-.68,5.23c-1.46-.41-3.53-1.18-4.39-2.1-1.18-1.25-1.47-3.27-.84-4.91.28-.73,1.25-1.54,1.86-1.72.53-.15,1.9.42,2.12.92.16.38-.35,2.02-.73,1.85l-1.78-.81c-.39,1.65.58,4.45,3.18,3.59l-2.69-1.89c1.86-.35,2.88-.66,3.22-2.2.23-1.04-.73-2.44-1.85-2.7-2.71-.62-4.71,1.14-5.21,3.7-.63,3.24,1.27,6.1,4.37,7.22,4.28,1.55,7.17,5.58,6.55,9.8-1.88-2.67-5-4.84-8.2-5.29-2.75-.38-4.33-1.12-7.1-2.63,1.07,1.34,2.01,2.26,3.36,3.6-.63.75-2.91,1.53-3.84,1.05-.2-.1-.74-.97-.86-1.16s.45-.35.68-.35h1.02s-.9-1.06-.9-1.06c-.25-.3-1.42-.06-1.46.33-.04.4.03,1.44.2,1.93.33.94,2.09,1.64,3.04,1.35,2.9-.9,3.09-3.41,7.94-.53-2.72.4-4.99,1.18-7.61,2.78l5.76-.92c1.76-.28,4.08.61,5.04,1.85,1.73,2.22.63,4.72.08,9.14-.46,3.71-3.68,5.19-7.16,5.35-1.98.09-4.08,1.7-5.52,2.78l5.3-1.23c3.38-.78,5.98-.63,8.42-2.93-.23,1.76-1.51,3.01-3,3.61l-4.77,1.92,5.91-.72c2.16-.26,3.67-1.68,4.68-3.36,1.76,2.49,4.54,3.75,7.7,3.56-3.15-1.57-5.44-4.18-6.13-7.41,5.54,7.53,5.37,4.11,14.47,6.28-5.23-4.25-12.84-.43-12.88-12.61l-1.07,2.89c-.6-3.33,1.35-7.28,4.8-8.81,4.59-2.03,7.37,3.88,12.81-.13l3.26-2.41c3.46-2.55,4.63-6.41,2.89-9.98Z"/>
      <path d="M6.34,36.09c2.59,1.52,5.87,1.08,8.11-.85l-4.82-.24c-3.36-.16-5.38-4.01-4.64-6.91-2.76-2.02-3.79-5.33-1.89-8.1.58,2.02-.2,4.82,2.63,5.72-1.55-2.38-1.52-4.82.12-6.6,1.7-1.86,4.07-1.65,6.74-.54,1.12-2.97-3.76-2.04-3-5.73l2.26,1.76-.8-4.3,1.33,2.53c-.02-2.11-.19-3.51.91-4.8.95-1.11,2.76-1.87,4.28-2.14.18,2.7.33,4.32.78,6.64,1.36-.69.36-1.45.4-2.26.14-2.76,2.14-5.5,4.55-6.82,2.25-1.23,4.89-.43,6.59,1.1,1.65,1.49,2.13,3.61,1.91,6.14,3.06-1.95-.95-5.27-.87-7.28l3.02,4.01C35.06,2.96,29.84-.2,25.42,0c-3.17.15-5.75,2.17-7.34,4.86-1.73-.49-3.16,0-4.63.44-1.79.54-2.32,1.39-3.5,3.01-1.46,2.01-3.48,3.78-1.65,6.8-3.98,0-6.94,2.29-7.93,5.35-1.11,3.42.36,6.64,3.23,8.77-.84,2.9.32,5.43,2.74,6.85Z"/>
      <path d="M50.09,34.79c-4.51,3.47-5.6,2.24-8.92,5.09-1.66,1.42-3.69,2.09-5.68.7-.88-.61-.99-2.19-.53-2.9.53-.81,2.71-1,2.89-.21.09.36-.45,1.25-.75,1.74.43.02,1.35-.09,1.83-.33.49-.25.17-1.96-.35-2.35-1.42-1.06-4.06-.59-4.85,1.55-.59,1.59.21,3.4,2.09,4.23,2.84,1.26,5.71.33,7.16-2.43.92-1.76,2.5-1.83,4.46-1.74,1.21.05,2.55-2.12,2.64-3.34Z"/>
      <path d="M5.26,8c6.3-2.09,2.91-5.11,8.67-6.06-1.65-.74-3.5.22-4.54,1.94-2.02,3.36-5.77,1.59-7.47,4.8-.73,1.39-.89,3.8.25,4.86.46.42,1.98.43,2.4,0,.9-.92,1.33-2.05,1.02-3.3-.04-.17-.8.09-.82.26l-.09.92-.61,1.07c-.15.26-1.19-.63-1.26-.94-.29-1.36.97-3.09,2.44-3.58Z"/>
      <path d="M9.79,20.84c3.11.92-.52,3.79,5.23,5.06l1.02.23c.18.04.29-.7.13-.8-2.29-1.37-3.24-.69-4.01-3.75-.32-1.27-2.12-2.33-3.26-2.19-1.16.14-2.38,1.29-2.63,2.23-.37,1.41.1,2.85,1.46,3.43,1.03.44,2.54-.26,2.75-1.14.15-.63-.57-1.91-1.2-2.06-.12-.03-.71.42-.79.51-.08.09.03.14.14.2l1,.53c.54.29-1.06,1.43-1.57,1.05-.4-.3-.83-1.22-.82-2,.01-1.18,1.5-1.62,2.56-1.31Z"/>
      <path d="M31.41,13.52c-.91-.2-2.18.85-2.56,1.65-.35.76-.26,2.7.48,3.14,1.78,1.03,3.19-.41,3.57-1.4.42-1.09.2-3.02-1.49-3.38Z"/>
      <path d="M37.06,8.15c2.4-.03,3,2.21,3.11,4.35.86-1.33.92-3.28.14-4.18-1.14-1.33-3.08-1.95-4.73-1.08-.67.35-1.08,2.28-.61,3,.36.55,1.18,1.24,1.66,1.49l-.74-2.15c-.14-.4.72-1.42,1.16-1.43Z"/>
      <path d="M49.35,7.71c1.68-1.74.51-3.37-.5-4.02-1.18-.76-2.96-.93-4.01-.37,2.58.94,3.81,1.98,4.51,4.39Z"/>
      <path d="M15.86,8.18c.09-.19-.69-.48-.79-.3-.48.86-2.33,6.84-.89,7.84l1.35-4.3c-.45-.96-.4-1.68-.13-2.27l.46-.98Z"/>
      <path d="M17.31,35.23c-2.01-.2-3.47,1.89-3.4,3.67.02.59,1.28,1.66,1.88,1.73.59.07,1.75-.44,1.98-.71-1.54-.57-2.42-.76-2.7-1.24-.23-.4.13-1.65.48-1.95l1.76-1.49Z"/>
      <path d="M46.44,7.06c-.4,3.57,2.29,1.32,4.61,5.62-.42-4.98-2.6-2.81-4.61-5.62Z"/>
      <path d="M51.32,17l.51-1.45c.53-1.49,1.01-2.85-.05-4.02l-1.52,4.47c-.11.31.95,1.31,1.05,1.01Z"/>
      <path d="M46.33,21.5c-1.73-1.53-4.45-1.9-6.27-.51.81.25,1.84.52,2.33.53l3.94-.03Z"/>
    </g>
  </g>
</svg>