<?xml version="1.0" encoding="UTF-8"?>
<svg id="Warstwa_2" data-name="Warstwa 2" xmlns="http://www.w3.org/2000/svg" viewBox="0 0 60.26 44.48">
  <g id="game-icon-v6-elemental-pixarts-store">
    <path id="game-icon-v6-elemental-pixarts-store_499" d="M58.88,7.82L60.26.03c-4.52.15-8.51.65-13.01,1.41l-2.23,8.74c2.28,3.21,1.65,5.89,3.55,7.01,1.7,1,2.84,2.22,3.18,4-4.42-5.22-3.87-.63-6.57-7.5-2.35,1.46-4.69,3.08-6.89,4.78l-.68,5.7c-2.25,1.04-4.15,1.92-6.35,2.63l5.42-3.55.4-5.51,6.83-6.34c-.23-2.65-.47-5.29-.55-8.04-.1-3.27-7.94-3.15-7.38-3.23l-6.33.87-11.2-1.01-4.76,1.82c.29,1.82.02,3.02-.62,4.74l1.52,3.68-2.83-3.48c.86-1.59.98-2.72.31-3.96C11.06.92,2.68.45,0,.19l1.95,13.7,4.51,3c-1.89.22-3.01-.44-4.65-1.06l-.66,11.51c-.12,2.13.91,4.67.67,6.77-.41,3.59-1.12,6.62-1.75,10.32h5.98c1.09-2.58,2.23-4.15,4.19-5.8,1.05-.89,1.87-3.12.98-4.3l-2.81-3.7,3.14,2.56c2.41-2.34,8.71-4.47,7.54-7.81-1.35-1-3.88-1.39-5.87-1.75-.57-1.38-1.01-2.55-1.48-4.14l1.98,2.99,4.2.7c1.42-1.68,3.74-3.81,3.73-6.25v-4.61s1.18,3.39,1.18,3.39l6.34-1.87.71-2.3c.26.75-.03,2.64-.65,3l-6.27,2.27c-.2,2.18-1.66,3.85-2.33,5.69-.61,1.07,3.77,10.17,4.43,11.01,1.83,2.31,2.51,5.1.75,7.52.38-7.26-1.78-5.79-3.3-8.6-.88-1.62-1.72-3.08-3.08-4.26-1.75,2.09-3.09,3.38-5.29,4.68-2.83,1.68.43,3.69-2.74,6.93-1.3,1.33-2.14,2.72-2.48,4.67l22.45.03c-.68-1.81-1.42-2.87-2.31-4.36,1.78,1.04,2.9,2.54,4.22,4.18,2.9.28,6.04.24,8.93.03-3.72-7.28,2.48-7.05-.15-13.65,1.47,2.83,3.57,4.49,6.84,3.93-1.23,1.74-2.89.25-4.51.5-.87.48-2.26,3.27-1.74,4.36.89,1.83,2.27,3.58,3.4,5.04l14.16-.05-1.13-9.07c-.17-1.38-1.14-3.29-1.19-4.64-.16-3.77.94-7.39.96-11.11l.06-9.93-3.99,1.98c.84-1.82,2.4-2.75,3.94-3.84Z"/>
  </g>
</svg>