<?xml version="1.0" encoding="UTF-8"?>
<svg id="Warstwa_2" data-name="Warstwa 2" xmlns="http://www.w3.org/2000/svg" viewBox="0 0 54.87 55.31">
  <g id="game-icon-v6-elemental-pixarts-store">
    <g id="game-icon-v6-elemental-pixarts-store_184">
      <path d="M36.96,9.47c.05-1.27.75-2.22,1.92-3.52-8.44.77-5.52,6.36-9.97,9.06l-.82-6.98c-1.49.67-2.15,2.1-2.23,4.15-.19,5.04-8.2,3.82-5.19,16.24,4.38-3.91,2.4-5.22,5.97-8.9l.74,2.21c2.53-2.13,4.54-4.79,7.17-5.7l7.36-2.56-4.19,5.8c-1.83,2.53-2.54,5.22-4.42,7.51.62.21,1.73.47,1.46.72-.2.19-.89,1.2-1.14,1.36l-6.93,4.35c3.02,1.8,6.78,1.07,9.66-1.37,4.64-3.95,5.55-.52,8.23-3.95l-6.16-.71c3.1-4.63,10.46-2.01,10.11-10.92-1.49,1.64-2.64,2.97-4.61,3.43,7.95-11.7-.64-12.96,10.97-19.52-11.75-1.56-10.07,8.35-17.91,9.3Z"/>
      <path d="M22.93,34.87c4.44-4.69,8.03-8.83,10.91-14.72-5.61,3.25-9.62,7.07-14.38,12.07l-3.59-6.06c-5.36,4.99,3.22,12.7,8.3,14.34,1.64.53,3.95-1,4.79-2.2-2.53-.78-4.66-1.42-6.03-3.43Z"/>
      <path d="M4.47,47.12l.3,2c-1.04-.49-2.75-1.49-3.47-1.12-1.5.78-1.58,3.59-.83,4.86.92,1.55,2.49,2.48,4.81,2.46.73,0,2.15-.91,2.12-1.53l-.13-2.35,4.01-4.03,7.64-7.68-4.06-3.92-10.38,11.32Z"/>
    </g>
  </g>
</svg>