<?xml version="1.0" encoding="UTF-8"?>
<svg id="Warstwa_2" data-name="Warstwa 2" xmlns="http://www.w3.org/2000/svg" viewBox="0 0 43.43 54.03">
  <g id="game-icon-v6-elemental-pixarts-store">
    <g id="game-icon-v6-elemental-pixarts-store_129">
      <path d="M30.77,41.66c1.23-3.03,1.96-5.7,2.53-8.91l2.2-1.15-2.21-1.01-.36-5.34.98-1.7-5.05-.54.25,3.68,2.27-.22c-.76.8-1.63,1.65-2.03,2.29-.36.57.15,2.25.42,2.93l-.92.2c-.41.09-1.23,3.49-.72,3.92l1.92,1.63-2.38-.38c-1.2,1.28-1.47,3.21-.28,4.7-.83-.09-1.77-.24-2.11.19l-1.44,1.84c.4-1.59.74-2.91,1.26-4.29l1.68-4.47c.15-.4.33-1.56-.02-1.77l-1.51-.89,2.17-.63c.54-.16,1.02-3.31.25-5,.59-.58,1.03-1.97.66-2.71-.3-.59-2.28-.79-2.69-.27l-3.44,4.44.18,19.39,4.82-2.12c.19.09,1.05,1.02,1.13.73l.42-1.39c.13-.42.7-1.45,1.13-1.38l1.67.27-.78-2.03Z"/>
      <path d="M16.49,23.25c-.48-.27-1.7,1.37-1.55,1.89l.59,2c-.2,1.86-.17,3.83.87,5.24l2.04-.29-1.57,1.5c-.51.49.38,4.4,1.47,5.71l.78,3.24.21.85c.03.13-.21.13-.29.03l-.51-.67c-.23-.31-.59-1.17-.92-1.15l-1.39.08c.45-.72.77-2.33.38-3.4-.27-.73-1.46-1.12-2.82-1.15,2.22-.65,1.84-2.42,1.52-3.54-.21-.72-.96-1.68-1.49-2.37.14-.65.53-2.72-.04-3.2l-2.64-2.22,3.56,1.08-.39-4-4.99.71c1.95,1.37.91,6.82.25,7.09l-1.93.77c3.95.56,2.45,5.77,5.17,10.55l-.66,1.71,1.96-.23c.85-.1.65,3.17,1.33,2.64l.7-.54c1.57.79,2.9,1.43,4.84,1.89.23-6.82.31-12.32-.05-18.85-.1-1.91-2.76-4.43-4.41-5.37Z"/>
      <path d="M12.85,21.04c1.8.54,4.03.97,5.76.98h6.18c1.76.01,3.62-.42,6.28-.73l-.17-5.13c-.01-.34.17-1.63-.14-1.52l-1.21.41-1.09-2.07c-2.73,3.06-3.61-2.3-10.63.54-.42.17-1.52.56-1.82.3l-1.2-1.01c-.18.4-.51,2.17-.98,2.04l-2.02-.58c2.54,3.86-.84,2.78,1.05,6.78ZM15.13,18.43l2.39.48.99.11c.25.03-.66.79-.92.79l-4.61.03,2.16-1.41Z"/>
      <path d="M17.91,8.36l-4.83-2.97,1.75-3.24-1.82.54.68-2.7c-1.87,1.06-2.18,3.19-1.86,4.88l-1.15.95c3.01,2.27,5.36,1.66,7.76,4.29-1.17.34-2.11.39-2.25.84-.14.45.11,1.56.34,2.04,3.45-1.44,6.82-1.74,10.12.16.29-.34.7-2.13.25-2.34l-1.97-.89c2.94-2.19,5.12-2.17,7.92-4.29.17-.13-1.17-.49-1.17-.71-.02-1.4-.19-4.38-2.27-4.88l.69,2.51-1.29-.15c-.14-.02,0,.27.2.62.37.61.68,1.76.67,2.71l-5.14,3.65c-1.56-1.32-3.59-2.29-5.47-.36l.14-3.04-1.31,2.38Z"/>
      <path d="M33.84,34.85c-.15,1.1-.27,2.09-.12,2.58.12.39.96.56,1.91.97-.76,2.91-2.16,5.73-3.85,8.62l1.36.04c-.18.47-.79,1.49-1.19,1.82l-.85.71c-.13.11,0,.2.16.23l1.15.21c-.44,1.07-1.17,2.35-2.15,4,3.01-1.06,4.34-4.1,3.95-7.13l.8.55c.12.08.22-.01.22-.14l-.06-1.26c-.03-.6.77-1.64,1.33-2-.08-2.02.02-4.31.86-6.55-1.02-1.05-2.24-2-3.52-2.65Z"/>
      <path d="M10.91,20.72c.82-2.42-.8-2.95-2.19-3.71l-.1-7.28-1.33,1.03-1.55-4.57c-1.67-1.29-1.03-3.23-.44-5.32-2.1,1.43-1.94,3.93-.97,5.95l1.63,3.36-2.53-.73,2.34,2.63c.31.35,1.01,1.31.81,1.68l-.67,1.28c1.09.84,1.69,1.67,1.42,3.57l3.59,2.1Z"/>
      <path d="M35.61,9.77l-.61-.54-.66,8.04-2.04,1.35c-.38.25-.09,1.62.08,1.89,6.74-2.78,1.09-3.49,5.43-5.64-.71-.58-1.12-.79-1.11-1.01.02-.21.29-.92.43-1.11l2.54-3.43-2.06.74,1.85-4.6c.59-1.47-.05-3.73-1.74-4.46,2.48,5.24-.43,5.74-1.59,9.2-.05.15-.4-.32-.52-.42Z"/>
      <path d="M11.82,49.24l-.9-.87c-.16-.16-.51-.71-.61-.91-.11-.2.17-.63.39-.57l.85.24c-1.62-2.8-2.88-5.57-4-8.71,1.15-.26,1.99-.3,2.1-.91.13-.73.05-2.1-.11-2.99l-3.63,2.99c1.41,1.98.68,4.49,1.41,6.31.55,1.38.89,2.45.58,4.25l1.47-.95c-.18,2.9.27,5.49,3.26,6.53l-1.9-3.62c.72-.41,1.28-.59,1.08-.78Z"/>
      <path d="M40.84,33.23c.33-.48.89-1,.67-1.19l-1.11-.96c-1.2-1.03-2.1-2.51-.88-3.72-1.27-.96-2.09-1.74-3.49-3.37-.44.32-1.25,1-2.22,1.93l2.62.86,2.06,6.83.72-1.56.76,3.02c.84.27,2.21.88,2.41,1.71.24.96.13,2.56.08,3.71,1.93-2.27.75-5.56-1.63-7.26Z"/>
      <path d="M9.85,25.94c-.76-1.01-2.28-1.97-2.77-1.44l-2.89,3.08c.18.42.29,2.13-.28,2.61l-2.47,2.08,1.22.58c.52.25-4.55,3.52-1.87,7.45-.14-2.55.42-4.8,2.48-5.04l1.23-3.23.48,1.5,1.95-6.81,2.91-.78Z"/>
      <path d="M19.01,23.54c.84,1.33,1.5,2.2,2.67,3.56l2.51-3.26c-1.76-1.7-3.31-1.59-5.18-.3Z"/>
    </g>
  </g>
</svg>