<?xml version="1.0" encoding="UTF-8"?>
<svg id="Warstwa_2" data-name="Warstwa 2" xmlns="http://www.w3.org/2000/svg" viewBox="0 0 53.02 51.93">
  <g id="game-icon-v6-elemental-pixarts-store">
    <g id="game-icon-v6-elemental-pixarts-store_69">
      <path d="M31.46,32.11l1.63,2.05-3.71.56,2.04.73c-2.88,8.19-4.64-4.16-16.76,7.43-.5-.11-1.29-.2-1.74-.15-2.17.22-3.31-1.79-3.64-3.76l2.82.63-.61-2.13,2.84,1.02c1.66-1.51,3.44-3.09,4.95-4.96.37-1.26-2.32-3.4-3.44-2.94l-5.08,2.1-.24,2.75-2.55-2.07v3.12s-4.31-3.17-4.31-3.17c-.24-.17-1-.78-.92-1.06.1-.34.24-.72.55-1.63l-1.19.72-2.09-2.75,11.12-6.94c.45-5.25.38-4.4,2.98-6.6,2.83-2.4,5.92-4.46,9.32-5.78l.72,2.05,1.63-11.31c3.94,3.27,6.7,6.39,9.3,10.52l.53,6.01.35-7.46,9.23,3.5-3.52,2.05,1.95-.11,9.32,8.28c-1,.46-2.69,1.24-3.53,1.15l-6.14-.62c-1.88-.19-3.69-1.71-5.71-1.28,9,3.75,4.05,1.81,12.32,2.25l3.14,10.3c-3.53-1.17-6.3-2.11-9.56-2.8,1.4,1.36,2.72,1.67,4.66,2.39l-1.4,10.75c-1.71-1.07-2.19-1.25-3.64-1.21-2.72-6.04-3.68-3.75-4.18-7.89l-.68-5.64c.3-.29,1.33-1.1,1.13-1.42l-2.08-3.17,1.36-.87c.28-.18.26-.95.1-1.62-1.06,1.52-2.38,1.5-4.2,1l3.77,4.49-5.61,1.6-.21,1.47c-.04.26-.46.25-1,.43ZM28.11,11.56l2.8,2.25c-.6-3.79-1.54-6.81-3.8-10.01l-.64,7.57c1.06-.04,1.38-.01,1.64.19ZM18.07,22.55l2.85-3.86-4.47,1.12c-1.01,1.89-1.89,2.31-3.62,2.94l5.24-.2ZM44.69,43.06c0-1.52.2-3.14.02-4.39l-.66-4.67-.22,7.59-1.4-.21,2.25,1.69Z"/>
      <path d="M34.92,51.93c-.42-2.31-.55-4.72-.1-6.45l4.37-6.72c1.72,1.79,2.81,3.81,3.3,6.04l-7.57,7.13Z"/>
      <path d="M24.41,48.09c-.15-3.07.94-7.1-1.74-9.74l4.83.85c4.01.7,2.96,4.46,4.59,6.65.07-1.82-.62-3.12-1.07-4.81-.67-2.55,1.31-5.35,3.16-6.41-.9-.79-1.41-3.03-.55-3.67s2.62-.87,3.74-1.02c1.91,7.2,1,9.21-3.18,15.04.09,1.7.08,3.02-.17,5.04l-1.37-2.6-4.74,3.63-.62-5.34-2.89,2.37Z"/>
      <path d="M20.68,9.55l-2.38-4.68,1.57,4.49c.17.48-.94,1.21-1.67,1.34-.41-2.99-.63-5.4-.62-8.1,2.33,1.45,4.2,2.78,6.09,4.7-.45,1.06-1.43,1.57-2.99,2.24Z"/>
    </g>
  </g>
</svg>