<?xml version="1.0" encoding="UTF-8"?>
<svg id="Warstwa_2" data-name="Warstwa 2" xmlns="http://www.w3.org/2000/svg" viewBox="0 0 51.93 50.68">
  <g id="game-icon-v6-elemental-pixarts-store">
    <g id="game-icon-v6-elemental-pixarts-store_324">
      <path d="M25.58,13.32c-2.8-.56-4.78.81-6.2,2.19-2.04,1.99-2.18,4.49-1.91,7.05-4.13,1.25-.5,3.13-3.74,5.18l-1.71-3.69c-.55-1.18-.15-3.97.08-5.26,1.14-2.05,3.24-4.21,3.75-6.37.72-3.03-2.04-4.95-3.84-6.99,2.11.36,3.96,1.69,6.08,3.2C18.67,4.23,8.34,1.3,5.47,0c11.73,0,22.46,4.38,31.47,11.78l-2.56-5.56c13.75,9.48,21.48,28.96,15.52,44.47-2.38-11.57-4.03-17.23-12.33-25.4l3.06.49c-1.75-1.35-3.72-2.17-5.78-3.23-3.16-1.62-6.17-3.34-9.7-4.68.77-.37,2.07-1.2,2.19-1.94s-.98-2.44-1.76-2.6ZM45.58,29.11c-3.3-7.48-9.42-13.01-16.26-17.15-2.2-1.17-4.46-1.49-6.62-.81,1.95.31,3.46.61,4.97,1.53,7.4,4,13.16,9.49,17.9,16.43Z"/>
      <path d="M.29,44.31l-.29-5.87c4.16-3.82,7.44-8.04,11.01-12.83,1.86,1.37,1.75,3.9.25,5.67-3.15,4.72-6.53,8.67-10.97,13.03Z"/>
      <path d="M27.6,3.97c-1.17-.28-3.36-1.49-4.29-2.14,1.02-2.06,2.52-1.41,3.91-.59l1.54.91c.4.24-.7,1.92-1.15,1.81Z"/>
    </g>
  </g>
</svg>