<?xml version="1.0" encoding="UTF-8"?>
<svg id="Warstwa_2" data-name="Warstwa 2" xmlns="http://www.w3.org/2000/svg" viewBox="0 0 56.93 46.62">
  <g id="game-icon-v6-elemental-pixarts-store">
    <g id="game-icon-v6-elemental-pixarts-store_392">
      <path d="M19.44,39.63c-1.21-.47-2.34-1.5-2.61-2.33-.41-1.26.74-2.76.99-3.74.55-2.23.04-4.01,3.04-5.17-1.27-.16-2.39.13-3.25.74-.91.65-1.21,1.98-1.41,3.23l-1.62.76.1,2.53c-2.77.93-4.68-.36-6.74-1.77l-5.81-3.97,2.42-10.03c2.58.19,2.7,5.26,6.41,4.85-3.36-2.26-2.56-3.17-5.42-6.05,4.55-2.07,3.43-6.82,6.25-10.55,2.49-2.41,6.97-1.99,9.96-1.52l1.2,2.81c.34-1.41.33-2.01.33-3.49L30.41.14c.6-.49,2.43.4,3.2.65l9.63,3.15c-1.01,1.86-3.51,1.87-3.55,4.28-.01.71.63,1.51,1.22,2.21-.45-3.57.13-3.05,3.1-5.53,1.99,3.39,3.15,6.64,4.26,10.63-.28,1.03,0,.63.55-.36,1.57.65,3.75,1.7,5.04,2.82l2.2,9.12c.32,1.33,1.06,3.31.8,4.68-7.51,7.65-5.83,5.14-13.07,5.59-1.6.1-3.02,1.35-4.44,2.19-1.81,1.07-9.53,4.12-10.78,3.63l-9.13-3.57ZM29.54,25.69c1.64.56,3.46,2.12,4.89,2.33,4.12.59,8.41-.5,11.1-3.6,1.07-1.24,1.34-3.84,1.51-5.31l-4.85-3.79-3.69,1.03-3.44-6-5.01-1.38c-2.36-.65-5.69,3.46-8.7,4.53-1.23-1.2-2.13-2.34-3.53-2.93-1.23-.52-4.02,1.05-4.6,2.35-.61,1.37-.57,3.5-.42,4.83l2.36,2.41c-.07,1.17-.44,3.54.46,4.14,2.25,1.5,4.74,2.7,7.26,3.2,2.22.45,4.38-1.34,6.65-1.81ZM51.92,33.08l-2.4-4.58c1-1.64,1.72-2.96,2.32-4.74-6.05,6.43-6.43,1.86-8.73,8.97l3.77-3.75c2.55.96,3.47,4.43,5.04,4.1ZM13.94,33.02c-.9-2.05-2.33-3.02-1.94-5.06-.22-.22-1.59.5-1.42.98.56,1.62,1.96,3.59,3.36,4.07ZM29.87,35.11l2.38-1.73c-6.66,1.74-3.77-.37-9.01-.44l4.77,2.51,1.21,5.29.66-5.62Z"/>
      <path d="M10.37,42.59c1.13.84,2.1,1.36,3.49,2.14.4.11-.17,2.08-.68,1.88l-5.25-2.09c-.31-2.43,1.25-3.2,2.76-4.27,1.61-1.14,2.72-1.16,4.54-.17,1.32.72,3.63,1.3,3.34,3.53-.16,1.2-2.35,2.27-3.61,2.63l.26-3.16c-1.83.55-2.9.05-4.85-.49Z"/>
      <path d="M47.82,43.9c-2.34,2.88-8.16.79-7.99-.5.24-1.72,3.46-5.17,7.17-3.04,1.08.62,1.87,2.25.82,3.53Z"/>
      <path d="M4.69,37.43c.19.04-.94-.21-1.4-.31-.61-.14-.82.95-.96,2.08-.27.23-1.93-.61-2.25-1.41-.37-.91.87-2.24,1.57-2.7.95-.63,2.73-.86,3.72-.05.95.78,1.77,2.18,1.96,3.43-.73.59-2.62,1.25-3.46,1.32-.27.02-.83-1.04-.61-1.2l1.46-1.16Z"/>
      <path d="M24.87,22.42c-1.99.58-3.75-.47-6.18-1.38l3.39,2.41c.47.33.5,1.91.06,2.38l-5.15-2.35c-1.23-2.48.64-4.68,2.54-5.3,5.48-1.78,5.67,5.4,7.85,5.54-.78-2.12-1.86-4.33-3.15-6.28-.9-.44-2.65-.46-3.96-.5.54-1.57,2.23-2.21,3.66-3.17l5.04-3.4c1.18.13,3.53.61,4.65,1.08,1.32,1.58,2.39,3.51,3.44,5.38l-4.87,2.18c-1.69-2.22-1.48-4.74.38-6.65-2.49,2.11-4.49,3.41-7.54,2.24,1.33,1.31,2.73,1.22,4.89,1.01l1.52,4.01c-2.42,5.27-2,4.52-8.03,6.56-.18-1.76.47-2.77,1.45-3.77Z"/>
      <path d="M43.63,20.19c-6.38,2.06-2.55,4.18-10.51,1.74,1.21,2.81,5.83.27,5.56,4.41-2.88.91-5.62.08-7.73-2,2.11-6.2,4.66-4.82,10.66-7.38l3.56,2.67c.43,3.19-1.61,5.43-4.66,6.3-.75.21-1.37-2.04-.76-2.51,1.49-1.15,2.53-1.89,3.88-3.24Z"/>
      <path d="M16.32,18.74c-2.05-.96-2.34-1.79-2.26-3.47.08-1.64,1.22-3.23,3.19-3.2.92.01,2.24,1.45,2.86,2.52-.86,1.7-2.36,3.08-3.79,4.15Z"/>
    </g>
  </g>
</svg>