<?xml version="1.0" encoding="UTF-8"?>
<svg id="Warstwa_2" data-name="Warstwa 2" xmlns="http://www.w3.org/2000/svg" viewBox="0 0 54.9 55.67">
  <g id="game-icon-v6-elemental-pixarts-store">
    <g id="game-icon-v6-elemental-pixarts-store_264">
      <path d="M0,55.67c2.29-5.04,3.91-10.32,6.93-14.99,3.54-5.49,8.3-9.84,12.17-15.09,1.03-1.02,2.17-2.03,3.43-2.65l15.81-7.74-6.49,18-14.8,13.44L0,55.67ZM20.89,33.48c1.69-1.42,2.64-2.73,3.97-4.05l3.73-3.68-8.14,3.02,3.7-.22-3.27,4.93ZM13.53,37.36c2.78-.09,3.42-3.97,4.17-6.7-2.85,2.59-1.08,3.81-4.17,6.7ZM17.86,37.32l-5.21,5.5-5.26,5.44c-.42.44-1.76.68-2.25.69l-1.82,3.53c4.01-1.86,7.7-3.9,11.65-6.02,2.08-1.11,3.24-2.42,4.82-4.22,2.7-3.07,6-5.45,9.05-8.46l-9.71,3.03-2.53,7.46c-2.32,1.5-4.82,2.71-7.61,3.71,2.79-2.94,3.71-1.83,6.58-5.96l.46,2.04,1.82-6.74Z"/>
      <path d="M30.12,55.34c.43-2.57.82-4.92,1.76-7.14,3.47-8.28,4.42-9.31,11.47-14.61-.87,3.19-1.02,6.79-2.57,9.53-2.68,4.74-6.72,8.44-10.66,12.22ZM39.13,44.35c-.22-.43-.51-.87-.49-1.08l.15-1.25-1.87,1.73-.57-3.11-1.15,5.61,1.45-1.73v2.23s2.49-2.39,2.49-2.39Z"/>
      <path d="M3.42,27.5c-.28-2.21,8.17-11.33,9.02-11.81,2.86-1.63,5.67-2.52,8.8-3.47l-4.4,7.82c-4.15,2.76-8.12,5.53-13.42,7.47ZM11.2,22.16l4.06-2.35,1.49-2.75-3.79,2.11c.31.31.79.66.63.77l-.68.46-1.71,1.76Z"/>
      <path d="M49.61,38.82l-2.67,3.88,1.32-4.36c-.59-2.34-.73-4.3-.59-6.84l-2.99-5.15c-7.2,3.01-3.16,2.37-7.69,6.4l2.48-5.39c7.76-2.95,8.29-4.95,9.09-13.71l.92,3.05,3.55-.91-3.63,2.34c-.23,2.74-1.01,5.14-3.18,6.88-.25,1.23.91,3.78,2.11,4.41l6.58-1.2c-1.75,1.77-3.89,1.62-6.06,2.25l-.07,6.24c2.28,2.21,4.2,4,5.61,6.73l-4.78-4.61Z"/>
      <path d="M29.37,10.12l-.09-2.93c-5.16-3.86-5.27.28-8.72.38s-6.13.42-9.12,1.75l-1.82-.48c2.43-.38,4.49-.99,6.55-2.01-1.4-1.63-2.55-2.63-3.22-4.7,3.62,3.36,3.65,5.72,8.88,3.83,2.66-.96,3.71-3.14,4.18-5.96l-.14,3.87,4.35,1.88,6.04-2.06c-2.11,3.53-4.71,1.47-5.62,4.48-.83,2.73,1.97,4.69,1.2,5.28l-.95.73.4-1.53c.08-.31-.89-.66-1.2-.55l-1.81.65c.66-.86,1.1-1.71,1.07-2.63Z"/>
      <path d="M43.87,14.66c.66-1.43.88-3.21.72-5.03-1.94-.35-2.53,1.56-4.59.26l6.9-2.29c1.64-2.61,3.86-4.7,6.61-6.14l-5.64,6.68c-.47.55-1.64,1.54-2.02,2.15-.75,1.21.23,3.65-1.98,4.36Z"/>
      <path d="M20.98,51.48l2.07-4.96c.29-.71,1.85-1.45,2.44-1.44-.27,2.99-2.15,4.75-4.52,6.4Z"/>
      <path d="M9.55,32.06c-1.43,2.23-3.48,3.29-5.96,4.26l2.9-3.65c.67-.84,1.96-1.13,3.06-.61Z"/>
    </g>
  </g>
</svg>