<?xml version="1.0" encoding="UTF-8"?>
<svg id="Warstwa_2" data-name="Warstwa 2" xmlns="http://www.w3.org/2000/svg" viewBox="0 0 62 42.05">
  <g id="game-icon-v6-elemental-pixarts-store">
    <g id="game-icon-v6-elemental-pixarts-store_301">
      <path d="M17.43,32.46c-1.42.55-2.6.14-3.27-.98-3.54-5.87-3.89-13.27-.39-19.75,2.83-5.24,8.51-9.59,15.27-10.14,8.31-.68,16.15,3.51,19.37,11.23-8.77,8.76-19.34,15.12-30.99,19.64ZM36.59,17.19l1.15-4.11,4.46-.94-4.49-1.33-1.05-3.84-1.11,3.95-4.01,1.18c1.01.14,3.54.33,4.11,1.36.61,1.11.71,2.7.95,3.74ZM20.69,9.39l-2.07-.19-2.68,6.73c-.28.71,1.65,1.41,2.22,1.09-1.77-2.36.15-6.45,2.53-7.63ZM22.47,19.9c-.57,0-1.46.02-1.76-.33l-1.17-1.4.56,2.32c.16.65.32,1.28.71,1.5.31.18,1.43.16,1.47-.2l.2-1.9Z"/>
      <path d="M22.94,39.28c9.94-4.66,18.98-9.88,27.57-17.24.12,6.48-3.75,12.34-8.35,15.58-5.65,3.97-12.48,4.69-19.22,1.66Z"/>
      <path d="M9.04,25.78c-2.95,2.66-9.72,9.68-7.61,13.46s12.22.93,15.83-.32c10.28-3.58,19.44-9,28.07-15.57,4.36-3.32,17.54-14.2,15.3-20.27-1.37-3.71-12.27-.86-15.34.23-1,.36-1.99,1.12-2.78.05,4.78-2.19,15.63-5.47,18.68-1.44,3.05,4.03-3.17,11.41-6.32,14.51-10.99,10.82-24.28,19.06-38.92,24.01-3.56,1.21-13.63,3.28-15.51-.75-2.3-4.92,5.29-12.9,9.39-16.1.28.76-.1,1.58-.78,2.19Z"/>
      <path d="M11.23,27.69c-.32,1.82-4.22,4.48-2.91,6.51,1.54,2.39,10.87-1.07,13.34-2.15,9.53-4.16,18.18-9.71,25.88-16.68,1.59-1.44,6.84-7.1,5.06-8.8-.37-.36-1.56-.66-2.09-.6l-4.95.53c2.05-1.89,5.36-2.12,7.77-.87,1.43.74.91,3.28.08,4.46-3.36,4.77-7.51,8.52-12.28,11.93-7.96,5.69-21.59,13.95-31.48,14.08-1.58.02-3.07-1.63-2.61-3.04.73-2.21,1.69-4.64,4.18-5.37Z"/>
    </g>
  </g>
</svg>