<?xml version="1.0" encoding="UTF-8"?>
<svg id="Warstwa_2" data-name="Warstwa 2" xmlns="http://www.w3.org/2000/svg" viewBox="0 0 55 58.65">
  <g id="game-icon-v6-elemental-pixarts-store">
    <g id="game-icon-v6-elemental-pixarts-store_375">
      <path d="M31.53,44.84c-.6-14.71,1.23-35.6,14.2-44.48-8.22-2.1-11.13,5.52-13.64,10.85.42-4.05,1.85-7.38,4.03-11.09h-14.62c4.99,8.43,5.63,18.11,5.66,27.73-1.01-5.05-1.68-10.01-3.52-14.94C21.56,7.33,16.41-.8,9.22.3c12.27,7.8,15.24,31.6,14.1,44.52l-5.84-1.37,9.96,15.2,10.11-15.43-6.02,1.62Z"/>
      <path d="M17.35,35.88l2.93-8.73-2.2.57c-1.53-6.9-4.25-13.12-10.06-17.42,3.69,5.52,6.29,11.55,6.32,18.29l-4.05-.72,7.07,8.02Z"/>
      <path d="M36.85,28.02l-2.31-1.01,2.85,9.04,7.09-8.2-3.9.63c-.05-6.96,2.71-12.53,6.07-18.06-5.73,4.42-8.46,10.88-9.81,17.6Z"/>
      <path d="M18.91,56.22C14.33,50.6,7.76,46.37.08,46.87l6.7,3.26c.51.25,1.21,1.65,1.02,2.17-.16.44-1.01.99-1.49,1.12l-6.31,1.73c5.16.32,9.6.76,14.93,2.11l-4.38-3.12c3.04-.93,5.49.71,8.36,2.07Z"/>
      <path d="M55,46.9c-7.47-.64-14,3.35-18.66,8.85,2.73-.83,4.69-2.07,7.85-1.77l-3.91,3.12c5.08-1.16,9.14-1.65,14.18-1.96-2.28-1.39-7.25-1.07-7.55-2.87-.46-2.75,6.59-4.28,8.1-5.37Z"/>
      <path d="M15.44,49.08c-2.15-3.61-4.96-6.93-9.14-8.49.64,5.78,4.64,4.3,9.14,8.49Z"/>
      <path d="M40.06,48.16c4.54-3.11,8.21-2.63,8.27-7.6-3.64,1.84-6.4,4.17-8.27,7.6Z"/>
    </g>
  </g>
</svg>