<?xml version="1.0" encoding="UTF-8"?>
<svg id="Warstwa_2" data-name="Warstwa 2" xmlns="http://www.w3.org/2000/svg" viewBox="0 0 57.13 59.72">
  <g id="game-icon-v6-elemental-pixarts-store">
    <g id="game-icon-v6-elemental-pixarts-store_356">
      <path d="M7.58,42.34c-.73-7.19,1.66-14.25,7.77-18.19,4.62-2.98,9.52-2.87,14.38-.58-4.37-5.38-13.24-4.62-19.05-.82,2.11-3.42,5.57-4.78,9.37-6.04-7.99-.08-14.89,4.94-17.86,12.56C-.32,35.68.02,42.83,3.75,48.33c-1.51-6.09-1.43-11.94,2.16-16.56-.23,3.91-.13,7.38,1.67,10.58Z"/>
      <path d="M57.13,41.96c-4.83,3.93-9.7,6.87-15.88,5.96,3.48-1.62,6.95-3.16,8.82-6.79-5.18,3.74-10.67,5.38-16.76,3.91-6.39-1.55-10.85-7.05-11.06-13.8-2.59,7.17,2.43,13.79,8.78,17.19-3.61-.21-6.27-2.17-8.98-3.94,1.65,2.75,3.91,4.84,6.8,6.12,10.12,4.5,22.6.89,28.29-8.65Z"/>
      <path d="M45.23,32.71c-4.48,5.19-11.32,6.36-17.57,3.91,4.89,5.65,13.78,3.76,19.71.06-2.28,2.94-5.49,5.16-9.33,6.44,7.37-.23,13.39-5.43,16.28-11.37,3.3-6.82,2.85-14.54-1.47-20.46,1.83,5.9,1.97,11.85-1.74,16.67.01-3.9.17-7.44-2.16-10.62.88,5.88-.04,11.1-3.72,15.37Z"/>
      <path d="M46.04,17.95C44.03,7.39,34.61-.27,23.73,0c5.97,1.43,11.59,4.52,14.36,10.62-3.14-1.87-6.16-4.06-10.18-3.95,6.19,2.75,10.65,7.9,11.45,14.63.68,5.72-2.26,10.47-6.84,13.32,7.88-1.36,11.58-9.41,10.39-16.71,2.15,3.24,1.76,7.07,1.42,11.08,1.86-3.32,2.45-7.1,1.7-11.04Z"/>
      <path d="M15.94,11.84c-3.84,1.88-7.5,3.69-9.32,7.55,6.48-6.2,16.25-6.79,23.13-1.19,3.43,2.79,4.64,6.56,4.7,10.83,3.27-7.74-2.69-14.3-8.75-17.71,3.55.31,6.17,2.2,9.05,4.15-1.96-3.78-5.56-6.26-9.73-7.33C15.6,5.7,4.94,9.32,0,18.25c4.38-3.98,9.53-7.43,15.94-6.4Z"/>
      <path d="M24.39,25.2c-3.35-.01-5.67,2.12-7.54,4.42-2.94,3.61-3.31,7.95-3.16,12.72-1.57-3.68-1.54-7.47-1.01-11.65-3.31,5.57-2.74,12.59.64,18.2,4.1,6.8,11.49,11.11,19.59,10.82-6.1-1.38-11.84-4.63-14.28-10.66,2.98,2.02,5.74,4.25,9.58,4.01-5.68-2.39-9.43-7.22-10.62-13.27-1.17-5.99,1.53-11.54,6.78-14.59Z"/>
    </g>
  </g>
</svg>