<?xml version="1.0" encoding="UTF-8"?>
<svg id="Warstwa_2" data-name="Warstwa 2" xmlns="http://www.w3.org/2000/svg" viewBox="0 0 47.73 55.8">
  <g id="game-icon-v6-elemental-pixarts-store">
    <g id="game-icon-v6-elemental-pixarts-store_142">
      <path d="M32.65,17.45l-.4-5.71,1.53,1.75c1.13-.61,2.08-2.71,1.36-3.31-3.71-1.71-7.3-3.44-10.56-5.69-3.47,2.26-7,4.05-10.99,5.6l1.42,3.64.89-2.74c.27,2.92.36,4.69,1.8,6.96l.47-1.37c1.35,2.51,3.3,4.29,5.67,6.15.63-3.53-.13-6.29-1.99-9.47l2.2,2.1.44-7.15c.31,2.36.77,4.73.78,6.94v7.58c1.71-2.17,2.96-3.73,4.74-5.17l-4.3,6.87c1.66,1.38,6.4-6.04,6.96-6.97Z"/>
      <path d="M6.84,24.59c.2,4.88,1.69,8.57,3.78,12.99l2.76-2.08-1.52-2.34,2.62,1.85,1.01-3.28c1.37,1.02,2.48.95,3.59-.33l.99-1.14c.4-.46-6.44-4.55-6.87-7.93,1.26,1.65,2.33,2.95,4.23,4.3l.42-2.36-4.67-5.09-3.37-1.79,1.46-.99-1.95-3.98c-.34-.7-2.67-.27-3.29.28l.06,6.35c1.09.74,2.9,1.58,3.61,2.28,2.49,2.45,2.53,6.42,1.31,9.12-1.38-2.28-2.3-4.13-4.19-5.86Z"/>
      <path d="M35.27,14.9l-1.75-.31c.56,1.14.83,2.41.16,3.51-3.32,5.41-7.67,9.65-12.69,13.42l-8.03,6.03c-2.91,2.18-6.56,7.35-3.68,10.48,1.86,2.02,5.69,1.8,4.62,1.11l-.69-.44c-.94-.61-2.31-1.53-2.63-2.37-1.52-3.98,6.27-9.04,9.15-11.23,4.52-3.44,8.74-6.89,12.4-11.19l2.76-.32-1.41-1.11c-.08-.06,10.25-15.52,3.89-18.93-1.24-.66-3.22-.58-4.41-.06l4.12,2.2c.34,3.27-.43,6.34-1.81,9.2Z"/>
      <path d="M36.68,23.85l-1.35.83c-1.72,1.07-3.32,2.31-4.59,3.63l1.53.05c.18,0-.21,1.04-.07,1.15l4.29,3.34,1.12-1.32c-.54,2.05.05,3.33,1.65,4.3,1.43-3.45,2.32-6.54,2.79-10.13-3.14-2.39-3.56-7.25-.61-9.76l1.05,4.42c.33-2.27.49-5.24.44-7.65-.22-.72-2.55-.91-2.87-.27l-4.68,9.97c.51.34,1.65,1.21,1.3,1.43Z"/>
      <path d="M24.56,55.8c2.83-1.67,15.97-10.25,11.98-13.35-3.59,4.26-7.3,7.4-11.89,10.37-4.56-2.77-8.35-5.9-11.93-9.93-4.23,2.67,9.97,11.9,11.84,12.9Z"/>
      <path d="M19.85,24.16l-.87,1.46c3.23-1.29,5.49,3.24,6.3,1.13.75-1.97-8.36-4.76-12.84-15.77-.72-1.77-1.13-4.28.02-5.86l4.1-1.46c-1.13-.82-3.43-1.1-4.9-.19-.95.59-1.47,2.34-2.51,3.84l1.89,5.43c1.6,4.61,5.4,8.07,8.82,11.41Z"/>
      <path d="M13.05,7.52c-1.15,3.33,11-4.08,11.49-4.58,3.6,2.36,6.94,4.29,11,5.83.46-.71.34-2.16-.18-2.43-3.9-2.04-7.34-4.07-10.95-6.34-3.29,2.27-7.32,4.51-10.31,6-.48.24-.93,1.14-1.05,1.51Z"/>
      <path d="M34.19,36.88c-4.02,4.03-10.32,7.61-8.61,13.76,3.95-2.73,7.57-5.9,10.54-9.95l-1.94-1.5c.23-.87.36-1.02,0-2.31Z"/>
      <path d="M30.55,29.91c-.87-.55-1.9-1.12-2.55.15l5.81,4.94c1.96,1.66,3.4,4.3,4.27,6.7,1.16,3.19-.07,5.92-2.75,8.02,3.85,0,5.6-3.65,4.98-7.14l2.44-1.44-2.59.49c-1.46-5.26-5.1-8.84-9.61-11.71Z"/>
      <path d="M15.86,39.59l-.03,1.34-2.12.97c2.95,3.54,6.05,6.3,9.71,8.48.56-3.19-.33-4.77-1.62-6.9l-4.28-4.06c-.24-.23-1.65-.16-1.65.17Z"/>
      <path d="M42.03,10.69l2.24.9-.25,9.56c-.03,1.12.87,2.23,2.04,2.71.57-5.11.68-9.71.4-14.55l-4.91-1.06c-.55-.12-1.18,1-.98,1.65.11.39.82.53,1.48.8Z"/>
      <path d="M2.71,22.6c.67,6.29,2.2,12.23,5.42,17.87.59-.21,1.76-1.59,1.47-2.18-2.09-4.28-3.48-8.64-4.17-13.11-.22-1.46-.89-2.5-2.73-2.58Z"/>
      <path d="M25.45,43.35l7.69-6.66-2.43-1.18.72-1.03c-.32-.3-2.05-1.27-2.63-.91-3.95,2.45-3.7,6.17-3.35,9.78Z"/>
      <path d="M4.68,18.29l.27-6.91,3.87-1-.32-2.19-5.98,1.06-.02,6.35c0,1.25,1.11,2.44,2.18,2.69Z"/>
      <path d="M40.93,17.79c-2.95,8.15,8.47,7.53,3.93,16.52,1.88-.18,2.57-1.76,2.8-3.56.83-6.41-6.56-6.27-6.74-12.97Z"/>
      <path d="M10.54,27.52c.81-8.75-9.79-5.3-9.26-13.21-1.4,1.18-1.55,3.14-.95,4.35,1.74,3.5,7.43,2.31,10.2,8.86Z"/>
      <path d="M44.93,30.38l-1.53-2.85-2.85,8.62c-.44,1.34-.91,3.25,1.17,3.61l3.21-9.39Z"/>
      <path d="M21.22,35.52l-.08,2.34-3.25.59,5.45,4.96c.41-2.48.67-6.11-2.11-7.88Z"/>
      <path d="M26.31,31.73c-.75.56-1.24,2.6-.83,3.52l2.54-2.53c-.18-.45-1.39-1.23-1.71-.99Z"/>
    </g>
  </g>
</svg>