<?xml version="1.0" encoding="UTF-8"?>
<svg id="Warstwa_2" data-name="Warstwa 2" xmlns="http://www.w3.org/2000/svg" viewBox="0 0 47.49 54.95">
  <g id="game-icon-v6-elemental-pixarts-store">
    <g id="game-icon-v6-elemental-pixarts-store_134">
      <path d="M47.49,30.98c-1.91-1.03-3.87-2.55-5.37-4.03l1.2-1.2c-3.73.89-8.51.04-11.2,1.32-4.72,2.25-4.09,4.16-7.71,7.13l-1.15-1.69c-.1,2.85-2.23,4.63-4.96,5.51-1.96.63-3.47.6-4.89-.43-1.59-1.15-1.72-2.35-1.95-4.69l-1.21,2.6c-1.38-1.46,3.51-6.83,4.32-7.62l.9,2.16c.59-2.49,1.69-3.01,3.87-3.83-1.61-.37-3.12,0-4.99.51,2.03-2.03,5.14-1.97,7.8-.94l.13,2.44c.78-2.03,2.64-3.18,4.92-3.49l.87-.12c.14-.02.07.14.05.34l-.1.91,5.39-2.77c1.34-.69,2.61-1.83,3.4-2.93l.23,2.08,3.03-6.9,1.33.38c-.54-1.55-.93-2.98-1.38-4.57l-1.03-3.63,2.5-.61c-2.59-.62-3.91-.97-5.55-2.71-.15-.17-.22-.67-.02-.78l1.12-.61-8.06-.52,1.59-2.29-3.57,1.77c-3.99-.23-7.16,2.84-7.15.56l-3.74.93.45-1.22c-3.16.63-5.86,2.17-8.42,4.64-.71.68-2.46,1.64-3.37,2.31-.52.38-.29,2.12.19,2.57.41.38,1.61.83,2.16.78l7.86-.78c.92-.09,2.23-.56,3.11-.83-5.08,4.59-8.55-1.04-18.12,6.24l2.75-.2c1.35-1.4,3.47-2.12,5.5-2.35l11.1-1.27,4.35-3.91,3.85,1.49-1.89-1.92c2.47-.57,5.98.2,6.43,3.06.15.96-.38,2.37-.93,3.3-1.43,2.44-4.4,3.3-7.02,2.21-.66,1.34-5.52,2.61-7.99.69l.22,1.72c-3.17.11-7.2,1.89-9.13,3.74-.35.33-1.65.28-1.64.59.1,3.61-2.01,2.2-2.35,6.51l2.41-2.99c-1.15,3.11-1.21,5.07-1.01,8.31-.94-1.44-1.16-3.02-1.23-4.77-2.63,3.71,1.61,5.08-.25,9.28l1.25-.93c2.47,3.58,5.42,3.24,7.87,7.25.13-.28.32-1.73-.02-2.16-.35-.44-1.03-1.02-1.54-1.45,3.47,1.24,4.09,3.13,8.43,1.93,4.1-1.14,6.82-3.78,9.9-7.1l5.42-5.86c.57-.61,2.83-.85,3.45-.39.62.46,1.2,1.32,1.93,2.27.51-1.69-.85-2.82-2.35-3.64,2.29-.04,3.79,1.68,3.93,3.93.11,1.94-1.89,4.62-4.06,3.57-1.15-.56-2.14-1.84-3.7-1.43l2.3,1.29c-2.71-.11-4.4-1.07-5.62.99,1.91.34,4.06.29,4.98,1.93-2.71-.63-4.97-1.9-6.96.06l5.42,1.35c4.94,1.23,9.95.34,12.05-5.35-.05-.04.31.26.86.7l-.36-4.49c-.03-.37-.43-1.34-.14-1.45l1.32-.51ZM11.52,8.9c1.19-2.75,4.4-3.47,7.32-3.18-5,1.67-1.58,4.32-7.32,3.18ZM33.77,16.31c1.42-1.93.3-4.33-.89-6.56,2.55,1.1,2.56,3.88,1.89,6.78,1.46-.72,2.38-2.78,2.42-4.41.04-1.85-1.47-3.52-3.24-4.37-6.02-2.86-10.4,2.3-12.95-1.89l3.18-.72-1.6,1.34c7.06,1.3,4.32-3.02,11.1-1.56l-4.88,1.01c2.9.52,6.01.34,7.88,2.45,1.67,1.9,1.55,5.54.05,7.51-1.14,1.5-3.06,2.29-4.99,2.6l2.04-2.18ZM15.49,43.05c-7.34-1.87-7.1-4.48-8.45-11.59-.87-4.6,3.88-5.63,6.4-8.3-1.67.02-2.85.22-4.71.5,1.39-1.74,6.25-.49,8.89-2.46,3.34-2.48,6.2,2.67,10.98.21l-4.49-2.19c2.87.31,5.08,1.05,7.38,1,1.11-.03,2.43-.74,3.7-.46-10.83,6.28-13,.92-14.96,1.6l-5.22,1.82c-.91.31-2.12,1.98-2.84,2.76-2.77.92-4.73,2.93-3.92,6.14.73,2.88,1.04,6.91,2.31,7.67.73.43,2.08.45,3.49.64l-1.41.76c4.24,2.5,8.9,1.69,12.43-1.92-1.49,3.78-5.88,4.78-9.59,3.83ZM16.72,39.47c3-.88,5.28-1.27,8.65-1.89-.47,1.35-7.17,2.74-8.65,1.89ZM30.18,32.64c-.41,1.39-.41,2.83-2.32,3.1,1.37-4.37,5.18-9.14,9.65-6.72-2.77.26-6.38.37-7.33,3.62ZM43.34,37.86c-.79,1.52-1.76,3.28-4.01,2.69,2.71-1.17,3.69-3.61,3.22-6.78,1.42,1.19,1.63,2.49.79,4.09Z"/>
      <path d="M35.2,47.41l2.38-2.35c.25-.25.32-1.34,0-1.37-1.8-.18-1.88,2.54-4.3,2.52l-7.67-.05c-.86,0-2.69.85-3.54,1.16-2.19.79-2.9,3.46-1.82,5.49.8,1.5,2.71,2.52,4.58,2.01l-3.63-2.15c-.73-.43-.2-2.72.22-3.27l-.08,1.11c-.02.24.48.49.56.49.96-1.33,2.43-2.38,4.03-2.32l4.92.19c4.85.19,8.38-.25,9.89-6.12-2.28.24-2.72,5.3-5.54,4.66Z"/>
    </g>
  </g>
</svg>