<?xml version="1.0" encoding="UTF-8"?>
<svg id="Warstwa_2" data-name="Warstwa 2" xmlns="http://www.w3.org/2000/svg" viewBox="0 0 45.45 53.65">
  <g id="game-icon-v6-elemental-pixarts-store">
    <g id="game-icon-v6-elemental-pixarts-store_79">
      <polygon points="32.73 17.39 25.81 18.99 25.86 14.5 30.38 12.1 32.73 17.39"/>
      <path d="M28.05,23.32l-2.03-3.97,5.15-1.22c1.06-.25,2.29.98,3.16,1.8l-3.06-7.71c3.61.44,5.96.44,9.17-.86,1.19,3.01-.7,10.44-2.45,12.45-2.53,2.9-5.77,5.18-9.43,6.3.42-2.51.57-4.69-.51-6.8Z"/>
      <path d="M34.38,32.33c-3.01,1.1-5.86,1.94-9.3,2.42l3.49-4.04c6.11-1.63,12.23-6.45,12.48-13.35.03-.71.65-2.03.91-2.55-.53-.82-1.07-3.16-.48-4.01l2.76-4.01c.43,2.95,2.83,8.18-.6,9.64-.02,0,.55.13,1.31.31-.48,7.3-4.58,11.43-10.04,15.32l-1.55-3.15,1.02,3.43Z"/>
      <path d="M15.81,32.69c-.76,1.06-3.68,1.22-4.88,1.23l4.39-7.54,4.97-7.98c.28,1.55.35,2.73.87,3.43.52-1.55-.65-3.39.12-4.33.95-1.16,2.27-1.74,3.91-2.56l-.16,4.01-3.57,1.84,3.12-.48c-1.47,2.29-2.65,3.88-4.03,5.8l-4.74,6.6Z"/>
      <path d="M.57,53.65c.63-2.37.31-4.68-.57-6.94,4.11-1.84,3.35-3.17,5.56-2.9.86.11-1.11,4.98-.3,5.55l1.11-5.9-2.36-.3,1.32-1.62,2.17-3.07c.57.65,1.51,1.81,1.15,2.02l-1.93,1.16,3.81-.78c-.16,1.78-1.29,3.29-3,2.92.64.49,1.21.92,1.06,1.14l-.69,1.08c-.77,1.2-1.3,2.57-1.95,3.96l-.86,1.85-4.5,1.83Z"/>
      <path d="M25.07,13.78c-1.01,1.14-2.48,1.73-4,2.46l-.23-4.28-2.33.32c2.09.87,2.18,1.85,2,4.01-1.23-1.51-2.84-1.7-5.17-1.71l.28-5.49c-2.24,3.4,1.14,5.19-3.84,7.21,0-2.1-.26-4.89.67-6.92l.99-2.16c1.78-3.9,5.91-6.01,9.59-7.21.96,6.43-5.91,2.93-7.26,9.27,1.41-1.8,2.78-3.25,4.78-4.03l.27,1.68,1.29-2.72,2.97,4.45-1.05,1.25,1.63-.63c-.06,1.35,0,3.29-.6,4.5Z"/>
      <path d="M8.04,37.83l4.67-.55-4.13-.3,1.49-2.41,4.99-.65c-1.37,2.48-2.44,4.71-4.39,6.5-.94.86-2.64-1.36-2.63-2.59Z"/>
      <path d="M27.6,7.49c-.06-.13.88-.62.9-.48.02.19-.06-.54-.11-.95l4.81-3.42-1.86,7c-1.37.14-3.32-1.21-3.74-2.15Z"/>
      <polygon points="30.97 10.94 26.05 13.67 26.6 8.25 30.97 10.94"/>
    </g>
  </g>
</svg>