<?xml version="1.0" encoding="UTF-8"?>
<svg id="Warstwa_2" data-name="Warstwa 2" xmlns="http://www.w3.org/2000/svg" viewBox="0 0 44.65 56.21">
  <g id="game-icon-v6-elemental-pixarts-store">
    <g id="game-icon-v6-elemental-pixarts-store_287">
      <path d="M44.42,7.84c1.31,20.45-2.5,38.31-22.06,48.36C2.89,46.22-1.08,28.17.23,7.76c8.24.17,15.6-2.71,22.01-7.76,3.35,2.2,6.44,4.02,9.85,5.79,4.09,1.23,8,1.88,12.33,2.06ZM30.18,46.41c4.52-4.37,7.5-9.45,9.08-15.38,1.53-6.51,2.1-12.96,1.79-19.95-6.92-.4-13.13-2.63-18.72-6.9-5.56,4.17-11.65,6.51-18.61,6.84-.51,8.19.34,16.13,2.98,23.88,3.09,7.61,8.76,13.45,15.77,17.41,2.95-1.86,5.24-3.63,7.71-5.9Z"/>
      <path d="M22.41,50.24c-8.47-4.94-14.06-12.83-15.88-22.26-.93-5.04-1.26-9.9-1.26-15.22,6.36-.71,11.9-2.74,17.03-6.51,5.18,3.69,10.69,5.79,17.1,6.47,0,15.88-2.3,28.3-17,37.51ZM22.24,42.95l1.93-11.98,3.55,1.82-1.9-3.59,8.71-1.72-8.79-1.84,1.88-3.3-3.49,1.6-1.86-12.41-1.85,12.63-3.35-1.87,1.78,3.41-8.58,1.82,8.75,1.75-2.12,3.46,3.53-1.93,1.82,12.14ZM11.86,20c.56-1.07,1.49-1.97,2.47-2.48-.55-.17-1.62-.36-1.79-.79l-.69-1.67c-.26,1.28-1.17,2.38-2.33,2.64,1.03.51,2.01,1.48,2.34,2.29ZM33.07,19.5l1.51-1.59-1.5-1.6-1.66,1.65,1.65,1.54Z"/>
    </g>
  </g>
</svg>