<?xml version="1.0" encoding="UTF-8"?>
<svg id="Warstwa_2" data-name="Warstwa 2" xmlns="http://www.w3.org/2000/svg" viewBox="0 0 53.28 50.71">
  <g id="game-icon-v6-elemental-pixarts-store">
    <g id="game-icon-v6-elemental-pixarts-store_42">
      <path d="M48.5,37.09l1.69,2.36c-.11-2.94-1.5-5.13-3.07-7.29-5.5-7.59-8.61-5.88-12.27-11.05-1.31-1.86-1.11-4.57.63-6.01,1.21-1,3.22-.82,4.22.2l-2.23.99,3.46.71-1.32,1.68,2.33-.48c4.22-.88,4.34,2.6,7.83,3.25,1.45.27,2.83-2.22,1.94-3.05-1.87-1.72-2.21-3.33-2.83-5.73-1.05-4.12-5.15-7.44-6.5-11.52-1.39,3.05,1.86,4.32,2.15,6.79-4.01-3.49-6.1-3.39-8.7-7.93-.28,1.16.17,2.68,1.03,3.7l3.39,3.99c-1.99-1.01-3.54-1.41-5.69-1.49l-4.71-.18,2.1,1.84c-2.88,1.6-3.26.7-6.36,2.59l2.68.61c-1.15,2.57-2.87,2.59-4.09,4.83,1.02.05,1.82.1,2.1.23l-1.97,6.5,2.12-1.28.75,6.7,1.26-2.14c.71.92,1.22,1.65,1.57,2.53l1.55,3.85.6-2.69c1.83,1.3,1.69,3.08,2.48,4.91l.58-2.2c1.92,1.36,1.02,3.11.46,5.39l1.82-1.03c.27,2.25-1.37,2.68-3.03,4,.57.06,1.64.05,2.81.02-.93,2.42-4.04,2.98-6.43,1.89-5.22-2.37-4.67-7.64-8.46-10.44.29,1.11.42,1.87.37,3.02l-3.35-2.87c-.94-.81-2.29-1.46-3.3-1.25l1.04.96c.15.14-.14.82-.28.84-1.98-.56-4.46-1.03-6.51-.66l1.64,1.21-6.49,2.04c2.51-1.33-.82-5.55,5.19-9.46,4.47-2.92,6.71-5.78,6.72-11.46.56,2.38.14,4.78-1.03,7.14,2.29-1.16,4.11-3.42,4.53-6.14l-1.27.73c.15-2.41.25-4.08-.02-6.12l-.78,1.76c-1.3-3.99-4.01-6.88-8.16-7.65,2.35,1.92,4.25,3.93,4.01,6.85l-1.85-1.29c.63,2.28,1.01,3.69.72,5.45l-1.91-1.09,1.15,6.55c1.51-1.23,2.46-2.85,3.22-4.62.46,3.7-3.88,6.49-6.76,7.71-6.13,2.6-8.91,9.44-5.91,15.46.99-.48,1.1-1.44,1.2-2.25.7-.59,2.1-1.19,3.34-1.43-1.45,1.57-2.87,3.65-3.72,5.59-.11.25-.69,1.03-.79.83l-.53-1.09-2.87,1.86c1.13.16,1.92.09,3.33-.07.51-.06.53,1.04.23,1.98l2.82.53c-1.6.33-3.25.4-5.25.51,4.39,1.45,9.42,1.39,13.01-1.97-.91.09-1.61.26-2.85.56-.03-1.18.56-3.06,1.63-3.66,3.98-2.24,6.8,1.77,9.33,3.84,1.18.96,3.18,1.19,4.62,1.69-2.66.74-4.95-.37-7.65-.82,5.8,4.18,13.74,3.58,19.26-.86,3.7,3.54,9.03,4.59,13.72,2.33l-5.42-.57c2.15-2.98,1.75-5.83,1.72-9.14Z"/>
      <path d="M29.42,50.39c3.02.85,5.88-.12,8.66-1.44,2.82,1.4,5.62,1.57,8.34.98-3.18-.51-5.97-1.23-8.37-3.13-2.56,2.05-5.46,3-8.63,3.58Z"/>
      <path d="M14.94,44.71c-2.57,2.63-6.57,3.74-10.4,3.31,2.91,1.18,7.4,1.13,10.24-.95,2.17,1.37,4.4,2.19,6.72,2.13-2.63-1.27-4.83-2.4-6.56-4.49Z"/>
      <polygon points="49.91 43.54 53.28 43.96 50.43 41.44 49.91 43.54"/>
    </g>
  </g>
</svg>