<?xml version="1.0" encoding="UTF-8"?>
<svg id="Warstwa_2" data-name="Warstwa 2" xmlns="http://www.w3.org/2000/svg" viewBox="0 0 53.35 52.71">
  <g id="game-icon-v6-elemental-pixarts-store">
    <g id="game-icon-v6-elemental-pixarts-store_152">
      <path d="M0,21.2c4.31-1.89,8.51-3.51,13.05-2.32,6.87,1.8,11.27,8.57,8.28,10.88-1.49,1.15-4.52,1.54-6.57,1.77-2.03.22-5.14-4.81-8.99-1.7,2.55-.72,4.89-.29,6.08,1.91-5.68.03-3.76,2.17-7.39,4.74,3.45.1,2.46-3.95,6.73-3.47l4.91.56c-3.33,5.58-3.26,2.2-6.51,5.06l4.3-.32-.9,3.02c1.7-2.15,1.43-4.62,5.19-7.64,1.38-1.11,3.47-1.54,5.44-2.21l-2.08,2.49c1.84-.22,4.09-2.71,3.53-4.96l-1.07-4.3c1.2,1.3,1.8,2.86,1.94,4.6.72,9.33-8.08,5.33-9.71,13.37-.75,3.69-5.53,2.25-6.73,4.95,1.53-.61,2.9-1.18,4.46-1.49l2.63-.52.4,3.79c2.01-4.23-1.89-7.9,5.85-11.03-.21,1.53-.24,2.92.15,4.14l1,3.08c2.92.64,4.75,3.67,4.19,7.1,1.78-2.56.52-5.49-1.59-7.54-2.31-2.25-2.67-5.41-.28-7.71,1.88-1.81,2.24-4.32,2.48-7.18l1.48,5.8-1.16,3.63c1.77,1.73,2.61,3.6,3.16,5.83,1.79-4.02-3.93-5.93-.53-8.73l3.76,1.9c4.44,2.25.08,8.99,8.89,8.97-2.92-.85-5.55-2.31-4.86-5.59l4.8.27c-1.22-.75-3.27-1.08-4.57-1.38-2.37-4.9-3.32-2.99-6.59-6.1l5.42-.09c1.8-.03,3.16,1.85,4.5,3.32l-1.08-2.86c2.77-1.02,5.06.2,6.4,2.82.4-2.32-2.06-3.93-4.14-4.19l-6.55-.84c-3.03-.39-4.86.01-6.35-3.3-.38-.85-1.04-2.53-1.44-3.66C23.91,17.15,7.76,11.47,0,21.2Z"/>
      <path d="M35.88,1.47l4.59-.55c-2.29,1.04-3.84,1.98-4.62,3.77-.81,1.88-.68,4.11.88,5.63.97.94,2.68,1.4,3.83,1.01,1.21-.41,2.1-1.82,1.68-3.39l-1,1.94c-1.03.13-2.43-.34-3.11-1.23-.55-.73-.54-2.52.2-3.46,1.31-1.67,3.84-1.84,5.33-1.31,1.24.44,2.6,2.08,2.87,3.72,1.1,6.57-5.05,9.57-10.36,10.18,5.64,1.05,11.01-1.55,12.72-6.99,1.15-3.67.07-7.74-3.36-9.66-3.05-1.71-6.91-1.37-9.63.34Z"/>
      <path d="M19.91,13.4c-4.77-1.63-10.01-1.64-14.04,1.17,11.26-1.98,12.83,2.06,19.2,2.22,1.84.05,3.9.44,5.42-.75,2.54-1.98,2.84-5.57,1.27-8.1-1.52-2.46-5.2-4.01-7.6-2.22-1.22.91-2.21,2.56-2.04,3.7.2,1.39,1.32,2.68,2.45,2.74-.53-1.15-1.19-2.6-.68-3.46.88-1.48,3.1-1.44,4.44-.72.97.52,1.64,2.3,1.4,3.71-.72,4.22-6.88,2.71-9.83,1.71Z"/>
      <path d="M50.03,2.76c2.02,4.09,1.82,8.07-1.16,11.3-1.6,1.74-3.26,3.87-5.33,4.94-4.35,2.25-8.36.57-13.32.18,2.56,2.02,5.61,2.49,8.68,2.85,6.1.71,12.04-2.76,13.96-8.73,1.18-3.68.24-8.08-2.82-10.53Z"/>
      <path d="M28.25,21.5c3.68,3.73,8.89,5.8,13.84,5.31,4.44-.44,8.25-2.6,9.74-6.88-8.06,7.08-14.74,5.24-23.58,1.57Z"/>
      <path d="M15.39,22.19c-2.98-1.93-6.9-1.84-9.97-.57,3.78-.38,6.56-.1,9.97.57Z"/>
    </g>
  </g>
</svg>