<?xml version="1.0" encoding="UTF-8"?>
<svg id="Warstwa_2" data-name="Warstwa 2" xmlns="http://www.w3.org/2000/svg" viewBox="0 0 48.66 67.32">
  <g id="game-icon-v6-elemental-pixarts-store">
    <g id="game-icon-v6-elemental-pixarts-store_167">
      <path d="M1.01,25.43c-.79,2.67-1.52,5.83-.54,8.58l3.26,9.11,2.51-5.73c.52-1.18.43-3.62.58-5.89,1.81,2.97,1.7,6.16-.49,9.32l-.6,6.81c-1.3,2.02-1.91,3.44-.62,5.6.66,1.1,1.8,2.7,2.79,2.98,2.9.81,7.86-3.37,8.9,1.78l-2.02-1.06-.12,4.64c-.04,1.43.72,3.02,1.78,3.83l1.65-3.32c.69,2.42.9,3.31,1.69,4.98l1.6-3.52c.2,1.71.13,3.52,2.05,3.8l1.38-4.43.99,4.04c.64.05,2.19-.25,2.23-.85l.21-2.87,1.7,3.55c1.06-1.53,1.25-2.68,1.64-4.56l1.64,3.17c.86-1.18,1.33-2.34,1.28-3.37l-.22-4.88c-1.32.52-1.97.5-1.16-1.02,3.02-2.1,6.7,1.38,8.52,0,1.44-1.1,4.39-5.01,1.74-7.82l-.57-6.99c-1.69-3.1-2.29-5.8-.62-8.76.18,8.23,2.56,4.99,2.98,11.12,1.83-3.53,3.78-6.8,3.43-10.38l-.6-6.16-1.44,5.8c-1.77-1.85-1.8-4.3-.45-6.29,3.65-5.36-5.16-7.81-.62-14.77-7.37,1.96-2.06,9.7-5.13,9.47-2.63-.2,1.59-7.72-5.57-11.55.94,1.97,2,5.59-.65,6.79-1.59.72-4.76,1.11-5.7,2.65l-1.21,6.45-1.44-4.72c-1.35-4.43,8.85-5.7,4.47-13.11-1.52-2.57-.78-4.71.8-7.81-3.37,1.72-6.92,3.06-5.89,7.65,1.39,6.19-7.57,3.88-10.37,9.07-1.54,2.85-1.7,5.71-1.09,8.8-7.59-5.68,5.6-10.71-2.3-16.95.39,3.68-.88,6.2-3.54,7.93-7.41,4.79-1.08,9.95-5.36,13.88l-1.51-4.94ZM32.59,41.27l-.54,3.17c-.15.87-.33,1.81-.08,2.36.25.55,1.76,1.04,2.34.88.58-.15,1.48-1.48,1.41-2.11l-.73-6.49-2.22,1.57,2.65-5.14.79,5.35c1.21.29,3.74,1.26,4.15,2.61.71,2.37-.46,5.38-2.26,6.82-2.02,1.61-5.11,1.01-7.52-.03-1.66-.72-3.17-3.24-3.5-5.72l5.51-3.26ZM24.64,48.53c1.51,1.26,4.82,8.36,2.27,8.82-2.31.42-1.1-3.25-2.98-1l-.98,1.18c-1.26,1.51-2.7-4.64,1.7-8.99ZM8.91,42.97c.51-.78,2.01-1.43,3.17-1.87l2.28-.86c-1.07-2.14-1.47-2.75-1.82-4.87l4.31,3.7c.03,3.1,2.39,4.07,4.67,5.22,1.23,2.52-1.56,5.92-4.67,6.57-1.93.4-4.03.52-5.54-.32-1.97-1.1-3.68-5.59-2.4-7.57Z"/>
      <path d="M39.53,2.33c-1.87,2.14-2.08,5.7.05,7.21,2.26-3.03.6-5.03-.05-7.21Z"/>
      <path d="M13.79,47.07c.4.68,2.84.56,3.25-.23.31-.61.02-1.68-.13-2.7l-.78-5.24-1.27,3.08-.22,2.33c-.79-.07-2.35.2-2.1.63l1.25,2.13Z"/>
    </g>
  </g>
</svg>