<?xml version="1.0" encoding="UTF-8"?>
<svg id="Warstwa_2" data-name="Warstwa 2" xmlns="http://www.w3.org/2000/svg" viewBox="0 0 57.08 59.78">
  <g id="game-icon-v6-elemental-pixarts-store">
    <g id="game-icon-v6-elemental-pixarts-store_574">
      <path d="M39.35,11.84l-2.06,4.79-.47-2.36c-4.41,5.26-2.92,4.44-5.65,9.53l-.21-2.41-3.59,4.84-1.21-3.56c-.42-1.23.89-3.08,1.85-3.91-7.38,1.96-2.48,8.31-5.4,11.65l-2.49,2.85-4.36,4.78c-.49.54.53,2.11,1.17,2.32.57.18,1.58-.38,2.2-.99,8.64-8.54,16.69-17.37,26.04-25.28l-26.1,28.04c.07.84,1.15,1.84,1.94,1.94l15.72-14.87c-.33-.38-.77-.74-.61-.85,2.37-1.75,5.22-2.3,9.11-6.49l-1.91-.26c1.77-1.44,4.14-2.41,5.82-4.07,4.27-4.23,6.53-9.93,7.93-15.75-7.09,1.75-13.14,4.94-17.73,10.05Z"/>
      <path d="M16.7,12.1c-1.37,3.69,4.1,4.62-.28,6.98-1.21.65-2.44,1.78-2.71,2.79-1.13,4.21,3.86,4.51,2.5,11.11,5.08-4.93-2.18-8.67,2.36-11.7l.84,3.97c.02-6.57,5.17-5.59,5.35-8.73.17-3.18-2.27-3.56-2.56-5.23,3.18-.26,4.25-1.99,4.44-4.54,1.41.27,2.93.35,3.89-.26.76-.49,1.45-2.06,1.31-3.09-.25-1.81-1.74-3.04-3.17-3.32-1.46-.28-3.02.71-4.14,1.82-1.79-1.29-3.8-2.37-6.27-1.73-4.01,1.05-6.56,5.38-4.83,9.18.48,1.06,2.16,2.09,3.27,2.72Z"/>
      <path d="M44.95,26.04c-2.07,1.17-.91,3.96-2.08,4.81-2.08,1.51-5-.48-7.24,3.19,5.27-2,7.97,2.69,11.27-3.04,1.94,2.02,4.29,1.73,6,0,1.36-1.38,2.11-3.41,1.84-5.34-.25-1.79-1.62-3.52-3.36-4.28.11,1.67.2,2.82-.42,3.75-1.83,2.76-4.27-.06-6,.92Z"/>
      <path d="M21.57,50.42c1.2-.03,2.82-1.5,3.26-2.44-2.77-.98-4.76-1.95-6.49-3.78l-5.04-5.35c-.71-.75-1-2.59-1.31-3.9-1.02-.06-3.1,1.71-2.77,3.02,3.14,5.15,7.29,9,12.36,12.46Z"/>
      <path d="M6.04,57.87c.36-1.88.76-2.26,2.81-4.02l-5.33-.68c-1.77-.22-3.37,1.35-3.51,2.97-.12,1.42.83,2.99,2.17,3.47,1.38.49,3.54-.07,3.86-1.74Z"/>
      <path d="M32.08,15.88l.69-2.27c.38-1.23,1.08-2.28,2.32-2.77,6.06-2.39-.2-7.31,3.4-10.12-2.07.03-3.46,2.42-3.1,4.47.42,2.38-.62,3.46-2.52,4.55-1.94,1.11-1.79,3.84-.79,6.15Z"/>
      <path d="M29.13,41.17c4.84-4.1,7.74,1.55,12.13-1.1,1.01-.61,1.94-2.29,2.47-3.73-4.73,6.04-10.14-3.91-14.6,4.83Z"/>
      <path d="M11.88,44.33l-2.68,2.82c2.23.6,3.65,1.08,6.25.78l-3.57-3.6Z"/>
      <path d="M13.71,49.27l-4.34-1.31c-.89.49-1.56.92-2.44,1.59l3.87,1.02c1.08-.07,1.88-.33,2.91-1.3Z"/>
      <path d="M10.76,51.48l-4.13-.87c-.58-.12-1.51.71-1.87,1.55l4.63.74c.55.09,1.59-1.12,1.37-1.43Z"/>
    </g>
  </g>
</svg>