<?xml version="1.0" encoding="UTF-8"?>
<svg id="Warstwa_2" data-name="Warstwa 2" xmlns="http://www.w3.org/2000/svg" viewBox="0 0 52.7 46.5">
  <g id="game-icon-v6-elemental-pixarts-store">
    <g id="game-icon-v6-elemental-pixarts-store_93">
      <path d="M33.38,11.78c-2.23,1.53-4.4,3.16-6.9,4.2l5.71-4.38c-.98-.97-2.27-.81-3.27-.11l-7.3,5.12-1.17,2.21.18-5.52c-.03-.11-.9.38-.98.65l-1.07,3.57.31-3.87c-.2-.13-1.07-.56-1.37-.69l-3.01,8.83,1.77-.8c-.57,1.45-2.09,2.07-3.18,2.18l.91-2.27-8.24,4.83-3.09,1.78c.7.37,2.15,1.06,2.76.77l5.76-2.71-4.95,3.48,2.37,1.96,9.89-5.49-9.09,6.76,1.81,3.15,9.03-5.08c-2.54,2.53-5.37,4.19-8.18,6.2-.24.78.1,2.09.53,2.66l6.94-4.6c-2.23,3.25-8.13,4.35-7.14,8.15,5.33-4.11,10.39-7.79,15.83-11.41l9.53-6.34c.81-.54,1.44-1.34,1.35-2.53l-12.09,7.8c3.88-3.58,8.21-5.81,12.14-8.95.83-.66.23-3.07-.82-2.81-3.89.97-6.15,3.99-9.71,5.55,3.08-2.84,6.31-4.92,9.99-7.04l-1.8-2.92-8.22,4.82,7.04-5.68c-.42-.65-1.46-1.49-2.26-1.48ZM15.24,23.65l6.81-3.96c-1.43,2.02-3.9,3.5-6.81,3.96ZM20.79,32.43c2.18-1.99,4.66-3.92,7.59-5.48-2.22,2.12-4.44,3.97-7.59,5.48Z"/>
      <path d="M48.87,11.33c-.48-2.14-1.46-4.07-2.93-5.55-1.53-1.53-3.62-1.82-5.53-.7-2.01,1.18-6.3,6.34-3.65,6.6.94-1.36,2.03-2.82,3.27-3.73,1.98-1.44,4.24-.82,5.53,1.14,5.26,8.02.08,25.84-6.65,24.45-2.66-.55-3.05-3.6-4.1-4.48-.22-.18-1.07.72-1.03,1.03.21,1.71,1.53,4.16,3,5.28,6.71,5.13,15.27-10.01,12.1-24.05Z"/>
      <path d="M8.67,42.45l-3.35-1.71c.44,1.97,2.93,3.54,4.81,2.87,1.03-.37,1.06-2.39.97-3.47-.44-5.3-6.19-11.56-6.07-9.53.06,1.07,2.38,1.98,3.16,4.35l-3.4-3.25-.89,1.07.74-3.18c-.39-.74-3.28-1.18-3.77-.89-.22.13-.55.76-.62,1.06-.63,2.82.56,5.73,2.1,8.16,3.5,5.51,2.23,1.47,2.84,2.44-1.46-2.32-4-4.7-3.79-8.74.02-.47.68-1.41,1.12-1.34.36.06,1.16.49,1.38.7l-1.29-.07c-2.08-.11,1.46,9.61,5.9,10.86.72-1.53.75-3.22.6-4.74.7,2.03,1.21,4.01-.44,5.42ZM8.04,39.52c-.09,2.36-5.3-3.83-4.16-6.28.66,2.23,1.26,5.16,4.03,6l-2.44-4.43c-.24-.43-.68-1.1-.02-1.1l2.43,4.65c.14.26.17.95.16,1.17Z"/>
      <path d="M46.73,5.07c6.51,6.97,3.85,27.15-4.83,31.82,3.56,1.22,6.77-3.95,8.05-6.47-.3-.4-.48-.65-.54-.73,0,0,0,0,0,0-.03-.04-.03-.04,0,0,.06.08.86-.43.91-.54,1.33-2.91,2.27-7.74,2.38-11.22.11-3.8-1.14-12.71-5.96-12.86Z"/>
      <path d="M36.87,27.37c-.79.64.95,3.63,3.02,3.59.9-.02,2.23-.8,2.89-1.72,4.92-6.95,3.92-18.52-.5-19.31-2.19-.39-5.05,2.76-3.92,3.96,1.01,1.08,1.72-1.64,3.63-1.13,4.15,1.12,2.5,15-1.77,15.38-1.75.16-1.59-2.19-3.35-.78Z"/>
      <path d="M46.48,37.04l2.53,9.46c1.31-.22,2.22-.52,2.88-1.06l-3.19-10.66-2.21,2.26Z"/>
      <path d="M14.94,13.39c.39-.43.93-1.81.72-2.48C10.84,6.8,5.76,3.39,0,1.78c5.78,3.3,10.56,6.78,14.94,11.61Z"/>
      <path d="M33.38,43.93c-.32.98,2.31,1.97,2.68,1.06l2.88-7.02-2.46-1.28c-1.14,2.38-2.25,4.68-3.09,7.24Z"/>
      <path d="M29.72,8.53c.6-.36,1.36-.6,1.41-1.01l.24-1.78,3.16,2.1.1-5.14-1.49,2.94-3.47-5.64.39,6.73-3.19-.62,2.85,2.42Z"/>
      <path d="M40.33,25.42c3.73-1.97,3.11-11.28.37-9.79-1.6.87.78,2.58.35,5.26l-.73,4.53Z"/>
      <path d="M23.76,11.66c.18.1.61-.87.39-1.09-3.26-3.2-8.01-7.04-12.7-8.14,3.91,2.46,7.77,5.36,11.21,8.53.23.21.86.56,1.1.7Z"/>
      <path d="M13.18,16.63c-2.87-3.27-5.71-6.49-9.89-7.96,3.35,2.81,6.06,5.54,8.67,9.24.28-.18.87-.8,1.22-1.28Z"/>
      <path d="M44.5,38.22l-2.48.18-.17,4.68c1.16.05,1.86.02,2.66-.15v-4.72Z"/>
      <path d="M8.87,20.05c2.24-.56-1.96-3.65-2.82-3.82l2.82,3.82Z"/>
    </g>
  </g>
</svg>