<?xml version="1.0" encoding="UTF-8"?>
<svg id="Warstwa_2" data-name="Warstwa 2" xmlns="http://www.w3.org/2000/svg" viewBox="0 0 51.87 58.02">
  <g id="game-icon-v6-elemental-pixarts-store">
    <g id="game-icon-v6-elemental-pixarts-store_270">
      <path d="M33.61,42.7c.34-.28,1.34-.11,1.51.3.19.47-.13,1.09-.48,1.54l2.48-.61c.74-.91,1.61-1.4,2.53-1.73-.22-.6-.52-1.4-.37-1.83.25-.67,1.39-.83,2.04-.4l1.87-.18c.66.3,1.39.58,1.81.4,1.85-.8.78-2.7,2.87-2.45.51.06,1.17.96.89,1.43-.51.86-.52,1.3-.42,2.14.2,1.79-2.34,1.94-3.34,2.41-.24,1.22-.37,3.45-2.21,3.33l-2.88-.32c.38.74,3.11,1.13,2.33,2.13-.2.25-.67.6-.95.65s-.73-.58-.94-.9l-3.67.7c-.74.14-2.24-.79-2.75-1.33-1.18-1.23-2.55-.56-3.78-.64-3.64-.22-7.08-2.53-9.1-5.43l4.04,2.53c1.02.64,2.42.83,3.5.88-4.58-2.03-8.1-5.3-9.75-9.98-1.4-3.98-1.17-8.61,1.43-11.95,1.88-2.42,5.19-3.22,7.71-2.08l-1.78-.13c-4.09-.29-6.61,4.28-6.21,8.08.67-2.23,1-4.66,3.18-5.71-3.01,4.12-2.32,9.28,1.77,12.04.53.36,1.39.52,2.06.54l-2.04-2.06c4.6,2.23,6.1,3.54,11.67,1.44-1.29,1.77-3.48,1.64-5.36,2.37,5.93.37,11.31-3.01,14.16-8.33-1.27,5.76-6.45,9.93-12.37,10.62,1.84.51,3.41-.34,5.17-.66-5.58,3.63-13.22,1.07-17.31-3.87,2.08,4.89,6.75,5.84,11.06,6.89-1.78.1-3.31-.14-5.22-.27,1.65.76,3.2,1.16,5.17,1.33.43.04,1.09-.39,1.71-.91Z"/>
      <path d="M7.87,28.84l-.96-.16c-.56-.1.8,2.13.26,2.91-.27.39-1.02.82-1.47,1.23.41.69,1.11,1.75,1.13,2.39,0,.29-.66.77-.95.75-1.45-.1-.75-.75-2.81-2.9-.35-.37.14-1.33.59-2.02l-1.38-.06c-.39-.02-.88-1.06-.93-1.46-.2-1.58,1.03-2.81,2.37-3.57-.63-.78-1.12-1.58-.98-2.51.28-1.79,3.05-2.1,2.24-3.25-.54.16-1.27.38-1.68.32-.39-.06-.41-1.09-.24-1.55.39-1.06,2.23-.92,3.09-1.65.88-.76,1.29-2.05,2.66-2.1,1.94-.08,3.77-.6,5.52-1.36l5.26-2.25c-2.53.19-4.52,1.08-6.92,1.71,6.34-4.07,11.71-3.43,18.29-.9-1.56-1.6-3.51-2-5.42-2.62,4.18-.43,7.83,2.1,9.98,5.05,2.49,3.42,3.25,7.73,1.58,11.62-1.15,2.69-4.46,4.45-7.36,3.91,2.36-.41,4.02-1.6,5.62-3.04.71-.64,1.88-1.32.86-2.94-.92,1.7-1.73,3.63-3.91,4.15,4.65-4.32,1.77-9.87,1.27-9.59l-.5.28c-.66-1.53-1.93-2.58-3.59-3.27l.48-.41c.53-.45-7.07-4.38-14.3.44-1.61,1.07-2.6,2.71-3.05,4.53-.17.28-1.45-.24-1.31-.56l.92-2.08c-1.04.43-2.25,2.25-1.81,3.39.31.83,1.2,1.73.41,2.52-.09.1-.39.32-.49.39-.15.1-.43-.27-.59-.45l-.57-.65c-.16-.18-.7.5-.68.73l.24,2.15c.76.42,1.49,1.08,1.26,1.92s-1.14,1.11-2.13.94Z"/>
      <path d="M23.89,28.7c1.28,3.32,4.9,5.17,8.33,4-2.12-.08-4.14-.26-5.48-1.96,2.6,1.37,5.16,1.39,7.83.15l-.92-.27c5.79-2.69,7.25-8.4,5.72-14.67,1.11,1.61,1.3,3.51,1.66,5.49.65-2.18-.04-5.51-1.02-7.35.11-.58-2.34-.27-1.91-.9.76-1.1,1.75-1.14,1.71-2.1-.03-.53-.61-1.17-1.07-1.6l-1.04-1.43c-.93.26-1.89.26-2.32-.48-.37-.64.07-1.65.63-2.23.37-1.22-2.29-.53-2.07-2.33.17-1.45,2.97-1.07,4.15,0l1.5-.65c.64-.28,1.72.61,1.95,1.25.27.73.01,1.65-.32,2.48,1.18-.09,2.14.54,2.54,1.48.36-.43,1.14-1.16,1.57-1.07,1.46.3,2.27,2.09,1.73,3.42l-1.27,3.08c2.78,1.44-.5,3.01,1.4,4.59l-.87.17c-.8,4.38-2.48,8.67-5.28,12.25-1.01,1.29-2.39,2.27-3.74,3.15-2.59,1.68-5.68,2.3-8.67,1.43-2.6-.75-4.9-2.88-4.73-5.9ZM45.34,19.2l.26-2.89c.17-.25.88-.93.68-1.16l-.73-.82c-.76,2.31-.98,4.33-.65,6.55l.44-1.69ZM35.77,32.56c3.44-1.24,5.81-4.76,5.97-8.43-.93,3.46-3.09,6.21-5.97,8.43Z"/>
      <path d="M36.45,50.42l2.6-.43c-3.21,3.35-6.67,5.88-10.86,8.03-9.35-4.52-18.78-14.43-20.82-24.74,1.86-2.18.34-1.87,1.51-3.33.13-.17.72.28.81.65,2.2,9.83,9.26,18.95,18.55,23.48,2.3-1.4,4.17-2.65,6.19-4.33l2.02.67ZM15.29,46.15c-1.1-2.29-2.15-3.62-3.22-5.07.65,2.19,1.82,3.76,3.22,5.07ZM28.39,56.44c1.89-1.2,4.03-1.9,5.27-4.04-1.61.73-2.89,1.52-4.31,2.29-.67.36-1.41.54-.96,1.75Z"/>
      <path d="M16.97,32.85c-.52-1.45-.6-2.98-.82-4.89-1.99,5.23.96,12.64,4.75,16.26-4.82-2.86-6.99-8-7.23-13.18l-.27,3.68c-1.52-4.73-.13-9.51,2.87-13.62-3.1,1.94-4.04,5.35-4.72,8.81-.77-5.55,2.93-10.74,8.19-12.82,2.8-1.1,5.67-1.4,8.43-.36,3.73,1.41,6.15,5.24,4.7,9,.35-3.89-1.97-7.28-5.82-7.51,2.13.89,4.28,2.17,4.49,4.76-.82-1.71-2.07-2.79-3.89-3.34-2.79-.85-5.85-.47-7.95,1.72,1.71-.51,3.11-1.68,5.04-1.26-6.75,1.49-7.84,5.91-7.77,12.76Z"/>
      <path d="M7.92,11.51l-.3,2.66-1.94,2.12c-2.31,2.51-1.01-6.15-1.19-7.52C13.03,7.51,21,4.68,28.12,0l4.7,2.81c.05,1.24.06,2.41,1.69,2.6l-.62,1.6-5.79-3.09c-6.17,3.7-12.75,6.17-20.18,7.59ZM31.83,4.15c-1.3-1.13-2.36-1.93-3.66-2.58-1.69-.23,4.78,3.93,3.66,2.58Z"/>
      <path d="M43.56,38.73c4.34-8.81,5.54-16.98,4.91-26.73-.3-.24-1.05-.63-.92-.85l.67-1.15c2.77.3,1.17,5.61,1.84,7.29l.32-6.18c.01-.29-.04-.93-.22-1.11-.22-.23-1.07-.18-1.54-.21-.51-.04-.66-1.27-.63-1.77l3.7.72c.59,9.38-.09,18.86-3.56,27.73l-1.46.4.72-3.04-1.78,3.5c-.39.78-.54,1.76-2.05,1.4Z"/>
      <path d="M38.39,17.8c-2.32-5.84-7.65-9.58-14.18-9.72,3.3-1.08,6.53.23,9.27,1.83,2.33,2.08,4.51,4.46,4.92,7.89Z"/>
      <path d="M26.45,49.49c-.97-.02-1.67-.87-2.39-1.63l-.75-.79c-.15-.16-.54.32-.92.45l.7-1.42,1.76,1.3c1.94,1.43,3.91,2.01,6.69,2.23-1.62,1.37-3.37-.09-5.09-.14Z"/>
      <circle cx="44.54" cy="4.27" r="1.23"/>
      <path d="M40.12,34.01c-.57-.25,2.36-4.26,2.96-4.45-.03,2.06-1.29,3.29-2.96,4.45Z"/>
      <path d="M21.28,14.59c-2.2,1.16-4.32,2.45-6.43,3.93,1.46-2.13,3.72-3.61,6.43-3.93Z"/>
      <path d="M45.41,44.71c.23-.47,1.43-.95,1.87-.8.33.11.58,1.08.33,1.33-.27.27-.85.56-1.19.66s-1.27-.65-1.01-1.19Z"/>
      <path d="M24,31.95c-1.57-1.26-1.83-3.67-.97-5.45.02,1.92.31,3.44.97,5.45Z"/>
      <circle cx="50.22" cy="36.86" r=".87"/>
      <path d="M6.86,39.48l-.97-.86c-.2-.17.04-.94.26-1.09.28-.18,1.1.33,1.08.66-.03.36-.19.89-.36,1.29Z"/>
      <path d="M1.59,25.43c-.16.45-.46.95-.67,1.02s-.65-.02-.79-.2-.19-.92-.01-1.06l.7-.55c.2-.16.86.56.78.8Z"/>
    </g>
  </g>
</svg>