<?xml version="1.0" encoding="UTF-8"?>
<svg id="Warstwa_2" data-name="Warstwa 2" xmlns="http://www.w3.org/2000/svg" viewBox="0 0 54.55 55.8">
  <g id="game-icon-v6-elemental-pixarts-store">
    <g id="game-icon-v6-elemental-pixarts-store_12">
      <path d="M22.53,51.41l-5.8-2.37c3.04,3.98,7.91,5.53,13.05,6.75-9.04.4-17.19-5.63-20.53-14.11-2.21-5.6-1.74-11.05.3-16.51-5.42,8.79-3.58,19.26,2.74,27.04-5.12-4.22-7.67-10.99-7.65-17.54.04-11.43,9.24-21.41,21.08-20.56-4.17-1.67-8.36-.6-12.6.86,2.04-2.1,4.72-2.62,7.25-3.59-7,.17-12.5,5.04-15.55,11.01.36-1.88,1.19-3.43,1.88-5.11C2.68,20.63.95,25.31.01,30.19c-.25-7.64,3.99-14.29,10.2-18.34,5.9-3.84,12.31-4.11,19.29-2.2-7.83-4.55-17.84-3.13-24.78,2.39-1.03.82-1.72,2.02-2.98,2.47C7.29,7.38,16.29,4.06,25.17,5.67c10.01,1.81,16.53,10.66,15.61,20.9,1.89-4.18.81-8.52-.73-13.04,1.69,1.96,2.57,4.34,3.5,6.84-.44-6.81-4.78-12.08-10.57-15.14,1.91.41,3.42,1.28,5.25,2.19C34.83,2.8,29.35.96,23.52.07c6.03-.52,12.06,1.98,16.47,6.28,6.31,6.14,8.1,14.97,5.23,23.33,3.67-4.78,3.25-13.14,1.29-18.02-.05-.12-1.05.07-1.08-.04-.02-.12-.08-.47-.06-.35s.73-.7.69-.81c-.74-2.33-3.37-5.76-5.23-8.18,9.39,7.51,12.07,21.77,4.43,31.94-3.83,5.09-9.43,7.5-15.69,7.85,4.41,1.5,8.31.06,12.34-1.61-2,2.17-4.7,2.89-7.31,3.94,7.39-.33,12.66-5.89,15.48-12.18-.48,2.25-1.33,4.04-2.27,6.44,4.09-3.13,5.6-8.17,6.72-13.49.4,9.05-5.21,17.16-13.6,20.73-5.34,2.27-10.52,2.2-16.19.06,1.22,1.03,2.62,1.72,4.09,2.16,8.16,2.47,15.95-.15,22.54-5.43-5.07,6.09-13.39,8.88-21.11,7.75-10.37-1.52-17.22-10.31-16.9-20.83-1.88,4.7-.36,9.45,1.57,13.99-1.87-2.29-2.93-4.93-3.98-7.8.24,7.21,5.15,11.88,11.57,15.61ZM31.72,38.95l-4.2-.91c4.28-.25,7.92-1.25,10.06-4.91l-3.69,1.8c4.06-3.36,5.69-8.39,3.44-12.85.17,2.44.07,4.01-.49,5.68-.22-4.05-.92-7.65-4.14-9.9l.64,2.52c-3.32-3.37-7.92-5.11-12.21-2.72,1.69-.27,3.45-.36,5.22.29-4.23.24-8.3,2.01-10.12,6,1.11-1.08,2.19-2,3.83-2.59-3.58,3.38-5.11,8.28-2.95,12.65-.07-1.93.02-3.64.43-5.5.23,3.69,1.08,7.68,4.54,10.19l-1.26-3.09c2.99,2.92,6.91,4.7,10.89,3.34Z"/>
      <path d="M31.64,29.94l.72,1.09c.26.39-.16,1.79-.63,2-1.82.84-6.47,3.38-7.64.12-.5-1.4.05-2.73,1.3-3.61,1.8-1.26,5.81-3.8,4.57-6.34-.31-.64-1.37-1.21-2.25-1.69,1.38-.55,3.49-.57,4.26,1.17.61,1.38-.16,3.58-1.42,4.57l-3.71,2.93c-.46.36-.91,1.61-.74,2.14.42,1.32,3.2,1.33,4.61.53.52-.3.64-1.33.92-2.92Z"/>
      <path d="M24.26,28.44c.28-1.45,1.78-3.71.14-5.08-.37-.31-1.92-.12-1.93.37-.02.67.02,1.56.04,2.54-.45-.23-1.29-1.15-1.42-1.79-.16-.77.63-2.08,1.38-2.4,1.11-.47,2.44-.47,3.29.03.91.53,1.3,1.96,1.21,3.1-.13,1.71-1.31,3.05-2.7,3.23Z"/>
    </g>
  </g>
</svg>