<?xml version="1.0" encoding="UTF-8"?>
<svg id="Warstwa_2" data-name="Warstwa 2" xmlns="http://www.w3.org/2000/svg" viewBox="0 0 49.55 55">
  <g id="game-icon-v6-elemental-pixarts-store">
    <g id="game-icon-v6-elemental-pixarts-store_511">
      <path d="M3.88,30.24c1.99-1.39,5.02-1.09,6.77-3.74l.55,5.01.75-4.79c-5.83-6.92,1.67-3.88-.97-10.92l2.35-3.29,3.31-.08c1.48-1.6,2.42-3.42,3.28-5.62l4.53-.38c1.68-.75,2.96-1.67,4.42-1.22-5.56,8.15-7.59,7.06-13.17,14.24l10.6.2-5.39,5.51c-.32.41.45,2.2.62,2.66l-2.34-.81-11.88,11.59,11.79.19-14.22,16.21,4.25-2.86c1.89-1.27,3.5-3.01,5.28-4.49,1.42-1.18,3.88-1.99,5.17-3.41.96-1.06,1.94-1.6,3.05-2.34l10.49-7.02-13.59-.37c1.87-2.13,3.89-3.66,6.19-5l3.11-1.81c1.41,1.14,2.5,1.53,4.2,1.97l.42,3.42.75-4.02c-2.09-1.11-3.13-1.79-5.21-3.62l3.19-.54,7.25-6.2,1.11,3.68c5.21,2.37-1.97,5.98,3.07,8.86,3.67,2.09-.5,4.08,2.92,8.21-.32-2.86-.38-4.57-.07-7.05l-2.86-2.66c-.92-.86-.5-3.9.68-4.89h4.82s-1.62-1.33-1.62-1.33c-1.71.34-3.71.11-4.9-.95-.93-.83-1.92-3.48-1.4-4.88.37-.99,2.34-2.1,3.34-2.95l-12.86-.11c4.23-4.54,10.18-6.22,11.85-12.09l.95,1.66c1.75-1.29,3.18-2.41,5.12-4.2l-15.59-.03-3.84,3.92c-2.97-.97-4.69-.21-6.75,1.61l-5.59-1.48.93,1.58c.06.1-1.39,4.97-2.73,5.23l-4.08.8c-2.95,5.07-6.15-.04-8.44,4.75,1.45-.61,4.24-1.92,5.59-1.01,2.04,1.37,1.28,4.73-.71,6.26.57,1.63,1.13,2.94,1.93,4.65l-6.44,2.9c-.97.44-1.87,2.1-2.3,3.28l-1.53,2.47c2.85-.47,2.31-3.63,3.88-4.73Z"/>
      <path d="M29.97,50.26c1.25-2.11,2.79-4.06,4.46-5.8l-2.63-7.15c-.62,1.23-.64,2.95.62,4.42,3.4,3.96-2.47,3.09-2.45,8.53Z"/>
    </g>
  </g>
</svg>