<?xml version="1.0" encoding="UTF-8"?>
<svg id="Warstwa_2" data-name="Warstwa 2" xmlns="http://www.w3.org/2000/svg" viewBox="0 0 57.92 58.65">
  <g id="game-icon-v6-elemental-pixarts-store">
    <g id="game-icon-v6-elemental-pixarts-store_364">
      <path d="M48.91,18.96c1.44-2.35.52-4.96-1.56-6.19l1.56,6.19Z"/>
      <path d="M9.18,19.14c.36-2.2.74-3.91,1.4-6.21-2.3,1.09-2.71,4.15-1.4,6.21Z"/>
      <path d="M4.83,50.04c-1.93-2.34-2.99-4.97-1.31-7.2.47,1.72.95,3.33,1.77,4.02,1.06.89,2.8,1.09,4.15.69-.88-.61-2.29-1.34-2.86-2.19-.99-1.46-.01-4.72,1.43-5.23,2.02-.71,2.37,1.71,3.17,3.5.61-.89,1.14-2.67,1.02-3.79-.13-1.31-1.6-2.09-2.43-3.08-1.39-1.66.32-4.67,1.9-5.89l6.2-4.81c2.12,2.25,4.04,3.52,6.66,5.19-1.76-.3-3.16-.72-5.19-1.3,1.73,2.78,7.94,6.57,4.56,10.78-3.17,3.94-7.25,2.92-9.56,9.26l.54-3.96c-2.15,2.15-2.94,5.05-1.68,7.97.9,2.09,3.39,4.03,6.21,4.47-1.28-2.04-2.42-4.43-.82-6.61,2.63-3.59,8.27-4.16,13.54-6.21,5.35-2.08,8.69-7.73,7.57-13.34-2.18,2.33-4.1,4.35-6.96,5.35,2.18-2.55,4.17-4.76,5.73-7.51l-5.17,1.28c2.8-1.73,4.97-3.34,6.68-5.65,1.76,1.55,3.56,2.95,5.6,4.37,1.88,1.31,4.34,4.3,2.91,6.52-.67,1.04-2.33,1.85-2.5,2.78-.22,1.24.11,3.34.66,4.07.96-1.88,1.77-4.55,3.66-3.4,1.26.77,1.87,3.93,1,5.25-.54.81-1.93,1.49-2.8,2.12,1.49.49,3.23.22,4.36-.9.79-.79,1.13-2.45,1.46-4.21,1.97,2.31.8,5.33-1.1,7.68,3.17-.1,5.6-4.46,4.36-7.43-1.21-2.9-2.54-5.1-2.1-8.85l-1.34,1.46.64-3.55c.54-2.97.1-5.98-2.53-7.83.89,3.05.74,5.68-.96,8.2.38-4.2-.59-7.37-3.18-10.59l-.39,2.83c-2.6-3,1.85-9.27-6.57-12.84,1.55,2.33,3.39,3.89,2.34,6.71-1.85-2.94-4.93-4.38-8.29-3.57.71-1.62,1.3-3.07,1.42-3.89-2.25-.62-.24-4.39-3.65-6l.19,3.4c-3.65-5.68-4.81-2.69-7.42-8.12-.44.97-.46,2.51-.03,3.66l1.17,3.13c-2.24-.48-3.36-1.58-4.79-3.39-.66,3.3,2.46,3.07,1.62,7.37l-2.58-1.82c-.32,1.86.27,3.4,1.27,5.26-3.41-.25-6.23,1.16-8.01,3.94-1.14-2.85.78-4.48,2.6-6.63-8.25,2.93-4.34,9.14-6.82,13.33l-.42-2.92c-2.62,2.82-3.85,6.11-2.79,10.4-2.2-2.45-2.28-5.76-1.14-9.08-5.31,5.25-1.71,8.41-2.21,12.03l-1.03-1.73c0,9.13-3.34,6.89-2.43,11.35.51,2.51,1.67,5.11,4.67,5.15ZM22.89,16.24c1.44,2.07,2.84,5.98,5.96,6.16,3.12.18,5.25-4.1,6.09-6.66,1,2.38-.45,5.04-2.34,6.51l-3.18,2.46c-3.9-1.12-7.08-4.4-6.53-8.48Z"/>
      <path d="M40.64,39.01c-1.92,5.39-6.58,8.54-12.22,10.4,5.12.21,13.82-3.11,12.22-10.4Z"/>
      <path d="M24.93,58.35c-2.33-.77-3.43-1.12-4.03-1.99-.74-1.09-.33-2.5-.16-3.99-1.07.9-1.67,2.72-.98,4.04,1.07,2.06,3.52,2.69,5.17,1.95Z"/>
      <path d="M22.74,38.33c.16-1.31-.69-2.8-1.64-3.49.14,2.38-.23,3.94-1.12,6.27,1.28-.38,2.61-1.6,2.76-2.78Z"/>
    </g>
  </g>
</svg>