<?xml version="1.0" encoding="UTF-8"?>
<svg id="Warstwa_2" data-name="Warstwa 2" xmlns="http://www.w3.org/2000/svg" viewBox="0 0 52.69 52.48">
  <g id="game-icon-v6-elemental-pixarts-store">
    <g id="game-icon-v6-elemental-pixarts-store_363">
      <path d="M39.6,29.97c-.57.18-1.98-.46-2.33-1.02-2.46-3.81.3-8.05,2.88-10.93l.52,3.95L52.22,0l-23.95,11.28c.78.54,1.57,1.13,1.82,1.62.22.42-.15,1.66-.48,2.02-3.3,3.57-9.04.16-12.03-2.29l4.31-.37L0,.48l11.3,23.89c.69-.83,1.4-1.63,2-1.84.53-.18,1.9.47,2.24.98,2.42,3.58-.22,8.03-2.68,10.88l-.49-3.93L.63,52.48l24.09-11.2c-1.1-.75-1.78-1.49-1.78-2.09,0-.55.41-1.76.83-2.1,3.55-2.79,8.65.41,11.51,2.92l-4.33.25,13.44,7.28c2.7,1.46,5.18,2.89,8.28,4.05l-11.04-23.6c-.68.88-1.41,1.77-2.04,1.97ZM32.63,14.07l-.25-2.41,13.6-6.37-11.64,11.24c-2.15,2.08-5.1,3.03-7.91,2.48,2.94-.7,5.39-2.14,6.21-4.96ZM11.61,20.05c-2.16-4.33-4.38-8.42-6.2-13.15,4.06,3.79,7.46,7.52,11.12,11.34,2.19,2.28,3.05,5.21,2.65,8.16-1.41-4.34-2.89-6.84-7.57-6.34ZM20.62,40.86l-14.33,6.9,12.42-11.9c1.96-1.88,4.67-3.08,7.41-2.19-2.91.75-6.89,2.84-5.51,7.19ZM26.36,30.28c-2.22,0-4.01-1.8-4.01-4.01s1.8-4.01,4.01-4.01,4.01,1.8,4.01,4.01-1.8,4.01-4.01,4.01ZM35.85,33.79c-1.93-2.07-2.38-4.91-2.04-7.43.98,3.25,3.33,7.41,7.49,5.91l6.51,13.7c-4.18-3.92-8-7.94-11.96-12.18Z"/>
    </g>
  </g>
</svg>