<?xml version="1.0" encoding="UTF-8"?>
<svg id="Warstwa_2" data-name="Warstwa 2" xmlns="http://www.w3.org/2000/svg" viewBox="0 0 57.85 53.41">
  <g id="game-icon-v6-elemental-pixarts-store">
    <g id="game-icon-v6-elemental-pixarts-store_295">
      <path d="M49.01,49.57c-4.93,3.43-11.53,4.5-17.65,3.45-8.62-1.49-15.69-7.74-17.76-16.1-1.95-7.88,2.19-15.71,9.87-17.86,4-1.12,7.98.06,10.39,3.24-.11-3.67-3.28-5.74-6.77-6.34-6.79-1.18-12.6,2.93-15.91,8.74,1.95-6.77,8.45-10.8,15.03-10.89-5.59-1.18-10.92,1.34-14.6,5.61-5.6,6.48-6.68,15.47-3.65,23.45,1.33,3.5,3.38,6.17,5.44,9.12-2.45-1.76-3.98-4.15-5.42-6.58-4.81-8.11-4.76-18.07.37-25.96,4.91-7.56,14.38-11.68,23.24-7.37,6.6,3.21,8.74,11.39,4.54,17.4,4-1.83,5.25-6.1,4.97-10.14-.4-5.61-4.39-9.5-8.92-12.08,6.19,1.43,9.59,6.75,11.39,12.18-.33-7.42-5.35-13.31-12.11-16-7.64-3.04-15.33-1.61-22.84,1.87C16.64-1.04,28.04-1.77,36.63,3.55c5.88,3.65,9.66,9.4,9.93,16.29.24,6.14-3.2,11.7-8.68,14.03-4.11,1.74-8.25,1.14-11.6-1.97.83,4.18,4.79,5.84,8.73,5.83,5.73,0,9.7-3.59,13.06-8.22-1.9,6.38-7.73,9.48-14.15,10.49,6.85.61,13.5-3.39,16.78-9.7,4.89-9.39,2.91-20.24-3.76-28.39,3.11,2.2,5.03,5.66,6.53,9.16,3.84,8.94,2.01,19.37-4.82,26.19-7.12,7.1-18.23,8.43-24.71.47-3.57-4.38-3.49-10.23.13-14.28-2.24.56-3.84,2.41-4.66,4.73-2.08,5.86.19,12.46,5.28,15.99l3.46,2.4c-6.97-1.75-10.92-7.87-11.92-14.68-.52,7.76,4.13,14.33,10.92,17.56,6.97,3.31,14.15,2.84,21.87.12Z"/>
      <path d="M19.9,5.76C10.78,7.53,4.08,13.74,0,21.84,2.78,11.5,12.6,4.79,23.4,4.89c-1.02.65-2.2.9-3.51.87Z"/>
      <path d="M35.12,48.29c10.71-.9,14.99-3.97,22.73-12.04-4.23,8.19-13.24,13.24-22.73,12.04Z"/>
    </g>
  </g>
</svg>