<?xml version="1.0" encoding="UTF-8"?>
<svg id="Warstwa_2" data-name="Warstwa 2" xmlns="http://www.w3.org/2000/svg" viewBox="0 0 61.99 58.64">
  <g id="game-icon-v6-elemental-pixarts-store">
    <g id="game-icon-v6-elemental-pixarts-store_177">
      <path d="M6.65,26.22c-1.2,1.45,3.68,4.74,6.61,3.7,1.21-.43,2.19-.66,3.4-.91l-1.03,1.16c1.71,1.42,3.99,1.7,6.13,1.02l2.78-.88-1.22-3.07c-2,1.32-4.12,1.14-5.9-.16l-1.93-1.41c-1.71.78-3.47.73-4.79-.48,1.79.21,3.48.28,4.64-1.05-1.83-.72-3.37-1.6-3.65-3.4,2.57,3.61,8.8,2.37,8.29,1.47l-.47-.84c1.37.28,2.46.37,3.67-.09l-.85-2.36c3.13,3.15,7.78,4.84,12,2.7,1.19-.6,2.1-1.5,3.13-2.12l-.86,1.83c2.73,2.02,5.84,1.09,8.24-1.21l-.79,2.04c1.57,1.48,4.06,1.33,6.13.52-.97,1.74-2.71,1.49-4.34,1.97,1.12.87,2.43,1.3,4.24,1.56-1.26.73-3.06.44-4.52-.08-1.82,1.81-4.34,2.42-6.92,1.33l-1.14,3.08c1.73,1.05,3.86,1.15,5.76.07l-1.14-1.01,2.68.87c2.58.84,5.22.24,7.19-1.57l-1.56-1.01c2.69.63,4.58-.27,5.98-2.1,1.06.62,2.33.56,3.39-.17,1.25-.87,1.97-2.15,2.19-3.61.2-1.36-.93-2.62-1.71-3.68.29-3.06-1.44-5.76-4.54-5.71-.25-4.34-4.48-6.96-8.3-6.17l-.06,1.36c-1.21-2.72-3.17-4.76-6.32-4.94-1.16-.07-2.32.39-3.46,1.06C35.89,1.32,33.17.05,30.11,0c-3.52-.06-6.67,1.44-8.41,4.47-.96-.49-1.94-.76-2.89-.67-3.74.35-5.95,3.15-6.7,6.65l-.41-2.12c-2.1-.18-4.12.21-5.82,1.31-2.37,1.54-3.36,4.28-2.5,6.9C.47,17.64-.7,20.65.42,23.42c1.72,4.23,7.19,1.65,6.23,2.81ZM55.99,17.56c.43.41.88,1.32.88,2.05,0,.66-.61,1.55-1.22,1.97.2-1.48.29-2.45.34-4.01ZM49.24,10.73c.64.5,1.13,1.69,1.05,2.64-1.03-1.67-2.26-2.61-4.26-3.17,1.04-.35,2.21-.26,3.21.53ZM39.69,8.69c1.36.53,2.69,1.89,2.35,3.72-1.29-2.61-3.9-3.51-6.79-2.72.98-1.41,2.87-1.62,4.44-1ZM25.02,7.87c.84-1.77,2.68-2.76,4.45-1.88-1.68.31-3.26.86-3.73,2.94-1.9-.73-3.35-.08-4.59,1.44-.15-2.05,1.98-2.7,3.87-2.5ZM9.6,12.51c.88-.84,2.07-1.36,3.19-.51-1.84.67-2.99,1.37-4.05,3.12-.16-.88.32-2.08.86-2.6Z"/>
      <path d="M56.66,56.39c-.78-.29-1.64-.26-2.53-.16-.53-2.6-3.25-3.62-5.8-2.6-.65-1.39-1.63-2.56-2.71-2.91-1.75-.56-3.3-.33-4.71.83.8.66,1.35,1.08,2,1.9-4.22-.74-5.93-5.33-7.1-9.15l-2.3.05,1,3.01c.28.84,1.08,1.57,1.74,2.42-.71-.21-1.18-.97-1.96-1.89-.31.66.17,1.98.85,2.32l1.27.63c.25.13-.01,1.05.18,1.25.49.52,1.35,1.47,1.73,1.99-1.65-.61-2.85-1.28-4.46-1-1.31.23-2.5,1.45-3.15,2.7-.88-.92-2.06-2.13-3.27-2.18-1.3-.06-2.38.52-3.59,1.12.88-2.58,2.49-.45,3.78-5.88l-1.81,1.36c.35-.63,2.63-5.71,1.63-5.98l-1.08-.3c-1.72,5.09-1.34,4.64-4.83,8.8-.38-1.06-.92-1.78-1.88-2.17-2.77-1.14-5.73.12-6.53,3-3.44-1.05-4.21.21-5.87,2.55-1.73-.14-3.56.56-3.48,2.52h54.21c-.04-1.05-.61-1.99-1.33-2.25ZM14.82,55.24c.2-.59.92-1.27,1.49-1.43.89-.25,1.97.04,2.49.93-1.52-.25-2.59-.17-3.98.5Z"/>
      <path d="M25.51,36.9c.1-.39.15-1.38-.17-1.63-1.02-.8-2.05.62-4.31.11-1.42-.32-2.55.58-3.13,1.71l-.54-.45c-.61-.19-1.7.43-2.35.99-.71.61-1.08,1.53-.6,2.34.38.63,1.57.65,2.19.62,1.31,2.88,2.51.44,4.9,2.14.83.59,1.91-.44,2.64-.37l3.11.28c1.89,2,3.89.98,6.08.66,1.47-.21,3.67-.57,5.01-.57,1.46,0,2.97.35,4.1-.58.71-.58,2.73.31,2.99-1.41l1.65-.23c.51-.07,1.08-1.25.88-1.73-.23-.54-1.16-.8-1.81-.94-4.11-5.13-4.39-.73-7.98-2.6-.35-.18-1.47-.1-1.59.25-.11.35-.08,1.19.12,1.42l2.57.46c.85.15,1.47.34,2.66.73-.84.54-2,1.22-2.92,1.56-.51-.03-1.67-.43-2.09-.19-3.1,1.71-3.19-1.1-6.18.82-.97-.67-1.98-.95-3.27-.34l-2.43-.7c-1.87.99-4.01.52-5.12-1.21,1.04-.68,1.9-.59,2.87-.73l2.71-.39Z"/>
      <path d="M33.86,39.05l1.33-.42c0-2.87.08-4.73.48-7.05l.13-.77c.03-.17-.59.07-.77.17.46.97.3.63-.13-.27-.57,1.24-1.47,6.62-1.06,8.34Z"/>
      <path d="M28.27,38.57c.58-1.73-.35-5.68-.79-6.83-.31,4.33-1.09.85-.24,6.54.03.23.96.48,1.03.29Z"/>
      <path d="M30.13,47.6c-.11,1.7.21,2.49,1.02,3.7.96-1.39,1.13-2.95.75-4.67l-.98,2.33c-.33-.71-.49-1.08-.8-1.36Z"/>
      <path d="M30.53,33.22c.37-1.17.28-2.45-1.17-2.87-.1.3-.3,1.19-.2,1.59l.75,3.23.62-1.95Z"/>
      <path d="M33.02,30.57c-.71.21-1.47.52-1.58.9-.25.91,0,2.46.71,3.03.46-1.69.62-2.4.86-3.93Z"/>
    </g>
  </g>
</svg>