<?xml version="1.0" encoding="UTF-8"?>
<svg id="Warstwa_2" data-name="Warstwa 2" xmlns="http://www.w3.org/2000/svg" viewBox="0 0 63.23 56.02">
  <g id="game-icon-v6-elemental-pixarts-store">
    <g id="game-icon-v6-elemental-pixarts-store_554">
      <path d="M.68,1.61c.53.35,1.11.73,1.59-.07L0,0c.07.71.31,1.37.68,1.61Z"/>
      <path d="M63.11,38.21c-.31-2.58-1.32-4.77-2.8-6.79l-4.11-5.62-.12,1.94c-.79-.66-1.61-1.53-1.99-2.49-2.07-5.24-6.63-3.34-7.64-7.4-.97,3.5,2.77,4.32,3.23,6.68-4.7.34-3.49-6.85-11.87-7.93-2.05-.27-3.6-1.39-5-2.92,0,1.99,1.19,3.35,2.39,4.59-4.56-.48-3.09-5.53-9.8-5.5-.43-.41-.37-.19-.18.33l2.95,2.45c-5.91.68-4.16-6.54-11.24-6.83-.86-.04-1.78-.29-2.82-.45,1.08,2.12,4.48,1.26,5.04,4.86-2.81-1.33-5.08-.96-7.11-3.62l-2.45-3.19c-1.5-1.95-3.8-2.8-6.17-2.42,7.95,2.8,2.59,7.61,10.19,12.18,1.59.96,5.55,3.37,4.14,5.66-2.17-.27-2.68-4.66-6.78-4.53,4.86,2.69,1.66,7.04,8.71,10.22,2.28,1.03,4.2,2.98,4.19,5.48-1.28-1.16-2.2-2.3-3.84-2.87.63,1.28,1.25,2.2,1.57,3.33,1.65,5.93,7.02,4.78,8.29,9.47-1.94-1.3-3.81-2.85-6.23-1.9,5.43.8,3.58,6.11,9.21,7.51,2.92.73,2.63,3.34,4.56,4.43,2.98,1.68,6.07,2.97,9.58,3.13,10.03.46,17.27-8.02,16.09-17.8ZM37.19,47.81c-.85-1.56-3.91-6.5-5.31-7.37,1.41.17,2.56.86,3.8,1.74.05-1.69-.91-3.2-2.53-3.9l-2.9-1.27c-1.7-.74-3.03-2.32-2.99-4.27,1.18,1.47,2.52,2.44,4.31,2.02-4.11-3.09-2.23-4.35-5.61-6.66l-2.93-2c2.39-.19,4.09,1.09,5.99,2.13-.28-1.77-1.56-3.07-3.19-3.66-3.38-1.22-5.92-4.22-5.77-8.09,1.82,3.55,4.96,5.69,8.97,5.62-.82-1.05-1.72-1.8-2.86-2.66,2.73-.14,4.96,1.03,6.39,3.2.76,1.15,3.34,3.93,4.72,2.78.91-2.4-2.54-2.26-3.25-4.39,3.36,1.4,4.99.41,6.51,4.28.67,1.7,1.87,3.22,3.91,3.06-1.39-1.81-2.07-3.79-2.36-6.06.43.5.88,1.03,1.24,1.58,2.85,4.31,5.58,3.65,9.6,5.68l-.59-2.6c1.44,1.36,2.53,2.73,3.92,3.62,1.9,1.21,1.7,3.31,2.68,4.83,1.53,2.38,3.12,4.7,1.2,7.87-.49.81-.89,2.08-1.02,3.09-.33,2.53-2.06,4.37-4.58,4.71-.66.09-1.6.53-2.04,1.04-1.7,1.96-4.27,2.41-6.62,1.22-4.65-2.36-5.52.23-8.68-5.55Z"/>
      <path d="M31.17,12.83l.76-3.05c1.12,2.73,4.02,4.7,6.68,4.7,1.45,0,2.48,1.02,4.01,1.62-.4-.95-1.12-1.54-1.91-2.21l-1.92-1.62c-.39-.33-.26-1.68-.7-2.01-.45-.34-1.27-.59-2.03-.77-.17-1.58-.93-3.06-2.35-3.58-1.62-.59-3.1-.01-4.26,1.11-.7-.29-1.66-.53-2.22-.25-1.14.57-1.65,2.51-1.03,3.5,1.04,1.64,2.97-.2,4.97,2.57Z"/>
      <path d="M11.75,24.35c-.59.51-.97,1.45-.87,2.23.11.83.98,1.67,1.51,2.26-.03,1.09-.41,2.36.18,3.49.39.74,1.62,1.38,2.48,1.78.17,1.32.48,2.59,1.64,3.19,1.08.55,2.3.37,3.54.19.66.46,1.49,1.32,2.49,1.34-.84-1.45-2.75-2.47-3.05-4.35-.69-4.34-3.1-1.85-3.82-4.7l1.31-.16c-.82-3.92-4.75-.36-5.4-5.26Z"/>
      <path d="M5.77,17.19c.16,2.72,2.53,4.37,4.89,4.14l-1.37-1.83c-1.37-.77-2.36-1.41-3.52-2.31Z"/>
      <path d="M10.58,3.54l2.73,1.27c-.32-3.14-2.03-2.48-4.43-4.08.21,1,.78,2.38,1.71,2.81Z"/>
      <path d="M21.94,5.28c-.38-1.66-1.75-2.16-3.18-1.58l1.35,1.16c.47.41,1.32.57,1.83.42Z"/>
      <path d="M4.69,10.23c.27,1.3,1.09,2.06,2.27,1.9-.38-1.1-1.3-1.81-2.27-1.9Z"/>
      <path d="M50.44,32.75c.11-1.78-1.29-2.78-2.87-3.01-1.77-.26-2.96.83-4.23,1.58-1.34.78-2.88-.05-4-.43-1.42-.49-2.44-.99-3.27-2.17,0,1.48.93,2.43,1.99,3.57-2.43.53-4.22-1.26-5.25-3.68-.66,5.33,4.08,4.75,4.13,8.04l-2.05-.37c3.7,2.89,1.02,5.85,5.46,6.99-1.95-1.47-2.1-3.39-1.47-5.48.47-1.56.7-3.13,2.05-4.11,1.22-.88,2.59-.92,4.41-.96l-1.74-1.18c2.4-1.04,4.85-.88,6.84,1.23Z"/>
      <path d="M38.88,45.1c-.55,1.53.27,2.95,1.33,3.77.98.76,2.81,1.3,3.63,0-2.63-.35-4.12-1.45-4.95-3.76Z"/>
      <path d="M56.72,47.33c.62-1.08.7-2.57-.4-3.39.18,2.43-.92,3.91-2.9,4.78,1.46.44,2.7-.34,3.3-1.39Z"/>
      <path d="M49.65,47.95l2.5-2.02c-3.12-.22-1.53,2.22-6.01,1.08.57,1.22,2.42,1.82,3.51.94Z"/>
      <path d="M47.77,34.5c1.83.32,2.93,1.08,3.3,2.68.57-1.07,0-2.06-.65-2.56-.78-.6-1.84-.65-2.65-.11Z"/>
      <path d="M58.21,42.84c1.14-1.23,1.44-3.49-.2-4.53.15,1.52.21,2.81.2,4.53Z"/>
      <path d="M46.42,51.25c1.08,1.1,2.77,1.09,4.11-.24l-4.11.24Z"/>
      <path d="M54.04,36.66c.63,1.15.84,2.19.95,3.59,1.04-1.22.67-3.22-.95-3.59Z"/>
    </g>
  </g>
</svg>