<?xml version="1.0" encoding="UTF-8"?>
<svg id="Warstwa_2" data-name="Warstwa 2" xmlns="http://www.w3.org/2000/svg" viewBox="0 0 48.04 52.46">
  <g id="game-icon-v6-elemental-pixarts-store">
    <g id="game-icon-v6-elemental-pixarts-store_215">
      <path d="M6.27,46.19C.03,40.73-2.13,32.26,2.45,25.35c-1.12,8.36,1.64,15.45,8.77,19.51,8.23,4.69,18.86,4.43,26.74-.77,6.44-4.25,8.91-11.03,7.21-18.81,3.82,4.43,3.61,10.83.68,15.87-7.67,13.19-28.43,14.79-39.57,5.03Z"/>
      <path d="M27.45,28.87c-2.41.24-4.27.13-6.93-.43l-.06-13.59-5.19,1.21L23.91,0l8.59,16.06-5.06-1.33v14.15Z"/>
      <path d="M16.47,42.46c-2.03,1.27-3.78.71-5.44-.95l4.05-2.62c7.24,3.49,12.97-.23,18.09-4.67l7.87,3.22c-3.16,6.08-5.21-1.85-9.66,1.49-4.26,3.2-9.36,4.74-14.92,3.53Z"/>
      <path d="M33.19,31.36c-3.81,2.56-8.21,4.59-12.95,2.91,7.19-1.22,7.93-2.37,13.7-7.51,2.58,2.5,5.19,4.17,9.36,4.56l-.71,3.72c-3.57-.24-6.31-1.56-9.4-3.69Z"/>
      <path d="M41.27,28.27c-5.44-.75-2.53-6.36-3.85-6.28l-2.24.14,4.35-10.07,4.69,9.96-2.75-.1-.21,6.35Z"/>
      <path d="M6.49,27.55l-.06-5.54-2.76.1,4.6-10.01,4.45,9.96-1.74-.18c-1.76-.18,1.24,5.15-4.49,5.67Z"/>
      <path d="M13.49,29.68l-7.82,4.11c-.8-.64-1.08-2.52-.63-3.24,3.12-.78,5.9-2.3,8.2-5.11,3.4,3.56,7.27,6.24,12.09,5.95-4.07,1.87-8.13.74-11.83-1.71Z"/>
      <path d="M13.66,35.98l-4.97,1.6c-.41.13-1.67.14-1.96-.17s-.59-1.27-.48-1.4l7.45-3.61c3.38,3.31,7.74,4.67,12.84,4.52-4.19,1.8-8.43,1.57-12.89-.94Z"/>
      <path d="M37.09,41.94c-5.55,3.25-12.48,5.41-19.22,2.97,5.69-.11,11.1-.61,15.46-4.79,1.13.29,1.93.67,3.77,1.82Z"/>
    </g>
  </g>
</svg>