<?xml version="1.0" encoding="UTF-8"?>
<svg id="Warstwa_2" data-name="Warstwa 2" xmlns="http://www.w3.org/2000/svg" viewBox="0 0 53.69 53.53">
  <g id="game-icon-v6-elemental-pixarts-store">
    <g id="game-icon-v6-elemental-pixarts-store_312">
      <path d="M21.66,19.56c-7.26,1.59-10.82,8-9.06,15.85-1.47-3.14-.91-6.6-.22-9.81-2.19,3.34-2.65,7.3-1.86,11.22,1.88,9.33,9.69,14.83,19.22,16.65-7.96.7-14.53-4.8-18.82-10.95-2.7-3.87-3.68-7.67-2.87-12.44,1.38-8.11,8.38-14.31,16.76-13.21,2.49.33,4.74,1.78,6.01,3.38,1.77,2.24,1.73,4.7,1.3,7.57,2.14-2.16,2.18-5.34,1.26-8.09-3.13-1.62-3.81-3.85-8.15-4.58-4.64-.78-9.53.43-13.04,3.64-2.93,2.68-1.14-.57-5.98,5.9,2.79-8.01,10.62-12.55,19.05-11.95l-6.8-.99c3.79-.54,8.02-.23,11.59,1.77s5.54,5.74,5.13,9.46c-.41,3.68-2.84,6.76-6.35,8.31,1.91.08,3.61-.82,4.9-2.26,3.45-3.86,3.92-9.86.73-14.09-4.04-5.37-10.7-6.97-17.12-5.4C6.9,12.1.45,21.46.13,31.94-1.2,20.16,7.72,9.81,19.21,8.23c4.93-.68,9.08.69,13.29,3.43-2.53-4.49-10.99-5.06-15.45-4.27l-2.16-.23c-4.63,1.24-8.2,3.98-11.84,7.16,2.43-4.38,7-6.82,11.65-8.38,6.54-2.19,13.79-1.12,18.96,3.5,3.95,3.52,7.75,9.65,5.01,14.33l-2.15,3.67c-1.51,2.57-3.64,4.71-6.23,5.14-3.09.51-5.91-.89-7.56-3.25.39,2.85,2.12,4.12,4.18,5.06,5.35,2.45,11.29-.55,13.66-5.73,1.49-3.25,2.13-6.09,1.89-9.99l1.05,2.88c1-5.14-1.09-9.98-4.41-13.91C35.2,3.01,30.45.97,24.21.03c8.28-.45,15.82,5.08,19.63,12.4,1.66,3.19,1.67,6.42,1.98,10.01,1-9.45-.53-13.76-7.85-20.73,8.9,4.99,12.64,16.56,8.65,26.12.28-2.89,1.23-5.33.57-8.23l-.4,4.01c-.89,3.38-3.05,6.11-5.3,8.71-3.91,4.52-10.05,6.05-15.43,3.31-3.72-1.9-5.37-5.85-4.47-10.04-1.74,2.06-2.53,5.38-1.05,7.87,3.31,3.91,8.63,6.08,13.71,5.14,2.81-.52,5.21-1.82,7.83-2.99,1.64-.73,2.85-2.36,4.4-3.59-3.25,6.46-10.31,10.01-17.11,9.49l.86.77c-6.66-.19-13.39-6.72-11.9-13.63.8-3.72,3.47-6.03,7.5-6.37-2.04-1.23-4.63-.48-6.43,1.04-3.07,2.59-4.39,6.63-3.93,10.36l.98-4.56c-.32,3.36.65,6.08,2.29,8.79,2.94,4.83,7.57,7.22,13.36,6.85,11.64-.74,20.88-10.38,20.81-22.1.65-.1.82-.18.79-.02-.05.32-.19,1.17-.21,1.39-.66,9.05-6.14,17.19-14.68,20.38-4.93,1.84-9.55,1.59-14.75-.2.9.8,2.13,1.41,3.34,1.74,9.26,2.46,17.55-1.2,24.05-8.31-3.47,6.47-10.13,10.31-17.14,10.93-8.16.71-15.26-3.35-18.66-10.67-2.09-4.51-1.87-9.61,1.07-13.63,2.86-3.9,7.68-4.79,11.87-2.48,1.13.62,1.92,1.53,2.88,2.8-.62-5.38-7.55-7.5-12.14-5.58l2.33.54Z"/>
      <path d="M16.14,51.75c-9.1-4.68-13.87-18.89-7.73-27.66-1.1,4.04-1.6,7.78-1.41,11.92.77,6.33,4.27,11.3,9.14,15.74Z"/>
      <path d="M28.85,33.46c8.52-.22,10.17-5.71,11.75-12.67.47,4.18-1.07,8.66-4.38,11.08-2.3,1.68-5,2.29-7.37,1.59Z"/>
      <path d="M51.03,25.09l.21-5.42c.06-1.56-.34-3.28-.08-4.97l.82,5.4-.95,4.99Z"/>
    </g>
  </g>
</svg>