<?xml version="1.0" encoding="UTF-8"?>
<svg id="Warstwa_2" data-name="Warstwa 2" xmlns="http://www.w3.org/2000/svg" viewBox="0 0 32.98 49.92">
  <g id="game-icon-v6-elemental-pixarts-store">
    <g id="game-icon-v6-elemental-pixarts-store_196">
      <path d="M32.98,33.57c-.07,8.43-6.2,14.97-14.07,16.16-8.03,1.21-15.88-3.45-18.23-11.62-1.52-5.28-.37-10.89,2.57-15.49l6.9-10.76c2.43-3.8,4.39-7.74,6.34-11.86,1.46,3.18,2.74,6.31,4.54,9.12l7.92,12.33c2.43,3.59,4.06,7.56,4.02,12.12ZM12.4,13.15c-2.69,3.68-5.96,8.85-7.86,12.37-.26.49.04,1.86.1,2.25.47,3.26,8.37-13.63,7.76-14.62ZM23.64,44.25c2.39-.34,4.2-1.6,4.95-3.53-3.11,1.44-6.21,2.1-9.18.29,3.38.47,11.88-.94,10.7-4.96-3.52,3.54-8.86,4.33-12.95,1.27-2.03-1.52-2.99-4.31-1.85-6.66.76-1.57,2.69-2.34,4.44-1.76,1.05.35,1.9,1.95,2.63,3.52,1.01-.87,1.37-3.09.88-4.39-.39-1.04-1.65-2.45-2.87-3-4.9-2.21-10.05.06-12.89,4.42-1.47,2.25-3.1,4.08-5.43,5.71.58,3.38,2.19,6.94,5.44,9-1.16-3.48-1.33-6.52.35-9.27-.57,4.72.94,9.74,5.15,12.1,2.87,1.61,6.53.85,9.31-.44-3.31-.41-6.36-.9-8.67-3.18-2.47-2.43-4.01-5.97-2.35-9.09.43,6.57,5.82,10.88,12.34,9.96Z"/>
    </g>
  </g>
</svg>