<?xml version="1.0" encoding="UTF-8"?>
<svg id="Warstwa_2" data-name="Warstwa 2" xmlns="http://www.w3.org/2000/svg" viewBox="0 0 47.61 51.98">
  <g id="game-icon-v6-elemental-pixarts-store">
    <g id="game-icon-v6-elemental-pixarts-store_214">
      <path d="M45.68,13.34c-.34,2.2-1.71,4.14-3.2,5.38-4.27,3.56-9.52-1.81-10.73,2.97-.42,1.66-1.55,3.16-3.04,3.67,1.8-9.67-4.06-17.98,5.4-21.28-3.94,5.35-2.55,5.82-1.81,12.66,7.8-1.88,6.14,3.17,13.37-3.4Z"/>
      <path d="M12.67,40.24c-2.38,2.62-5.24,3.87-8.67,3.85,1.73-1.44,3.43-2.88,5.02-4.65l13.81-15.35c.78,2.55-.16,5.12-1.9,7.04l-8.26,9.11Z"/>
      <path d="M.28,51.98c-1.03-2.7.93-6.13,3.78-6.79l4.83-1.13-2.57,3.89c-1.24,1.88-3.34,3.38-6.04,4.02Z"/>
      <path d="M23,30.58c3.65-6.08-1.04-11.36,4.35-14.19l-.03,7.31c-.01,2.81-1.26,5.76-4.32,6.89Z"/>
      <path d="M42.88,9.65c-.85-.53-.67-3.45.06-4.2l4.67-4.79-1.22,9.79c-1.07-.12-2.81-.36-3.51-.8Z"/>
      <path d="M33.92,14.44c-1.23-1.38-.85-3.46-.17-4.87l2.81-5.81c1.38,3.95.43,7.8-2.64,10.68Z"/>
      <path d="M46.72,0c-1.33,1.18-5.3,5.59-8.1,4.78-.56-.16-.96-.96-1.49-2.09,3.07-1.21,5.91-2.04,9.59-2.69Z"/>
      <path d="M39.74,14.86c-.88.54-3.07.14-3.88-.14,2.41-2.48,5.37-5.27,9.02-3l-5.14,3.14Z"/>
      <path d="M37.85,11c.05-.84.29-2.88.5-4.03.14-.73,2.47-.94,2.9-.65l-.23,3.16c-.05.72-1.39.92-3.18,1.52Z"/>
    </g>
  </g>
</svg>