<?xml version="1.0" encoding="UTF-8"?>
<svg id="Warstwa_2" data-name="Warstwa 2" xmlns="http://www.w3.org/2000/svg" viewBox="0 0 67.52 65.83">
  <g id="game-icon-v6-elemental-pixarts-store">
    <g id="game-icon-v6-elemental-pixarts-store_179">
      <path d="M9.85,34.72c.54.08.96.33,1.54.83-1.49.53-2.4.8-3.63,1.15l5.29.19c-1.24,1.61-2.77,1.79-4.35,2.46l2.53.25-5.43,3.18,5-.94c-1.54,1.99-6.04,3.68-7.55,5.09l11.01-3.78-1.09,1.59,2.49-.85c-.01.15-.26.96-.48,1.22l-3.88,4.53c1.54-.51,2.37-1.28,3.76-1.91-.25,1.14-.51,2.25-1.19,3.13l-7.16,9.33c3.98-3.1,7.37-5.95,11.28-8.59.55-.37,1.17-.61,1.77-.78l-2.06,4.34c2.08-1.46,2.96-3.1,5.24-4.19l-.11,1.78c0,.16-.08.54.03.54l.55.02-1.77,6.43,3.15-4.56c.25-.37.69-.76,1.07-1.12l.29,1.62c.66-1.17,1.31-2.4,2.34-3.05.34-.22,1.23.51,1.3.9.35,1.98.47,3.91.55,6,.46-1.18.73-2.31,1.6-3.4.91,3.41.99,6.35,1.62,9.72l1.59-9.92c.06-.39.41-.88.8-1.05l1.2,3.39.23-5.12c1.48.71,2.07,2.01,2.66,3.37l.77,1.76.24-2.63c1.7,2.23,3,4.27,4.44,6.54-.32-2.71-1.92-4.63-1.88-7.58l4.77,6.07c-1.21-3.32-2.95-6-3.75-9.43l1.48,1.08-.86-2.71,3.59,2.88,2.53,2-2.55-4.46c1.67-.29,7.62,4.15,9.06,5.23,1.24.92,2.4,1.74,3.68,2.55l-5.56-6.67c-1.41-1.7-2.65-3.25-3.65-5.34l4.97,2.27-3.57-3.64c-.49-.5-.78-.93-1.35-1.81l1.89.15.05-.86,7.05,1.56c-1.96-1.58-3.77-1.95-5.73-3.9l1.45-.47c-1.16-.46-2.08-.79-2.94-1.78.65-.37,1.31-.65,1.95-.71l4.61-.4-3.3-1.33c3.56-.83,6.59-1.09,10.1-1.6l-9.81-1.51c-.51-.08-.99-.36-1.38-.73l3.63-1.19-4.37-.18c-.17,0-.63-.41-.55-.52.78-1.06,3.3-1.63,4.43-2.2-.98-.03-1.82.01-2.81-.25l6.41-3.47-5.58.9c1.46-1.87,5.38-3.39,7.31-4.96l-7.51,2.62c-1.13.4-2.32.66-3.5.91l.89-1.21-2.31.6c1.25-2.23,2.93-3.55,4.31-5.51-1.46.86-2.5,1.62-4,2.15.32-2.09,1.28-3.44,2.41-4.93l5.66-7.47c-4.3,3-7.69,6.48-12.43,8.8.74-1.91,1.63-3.41,2.48-5.17-1.84,1.84-3.35,3.59-5.58,5.1l.06-2.16c-.17.07-.9.09-.89-.08l1.52-6.98-2.54,3.98c-.47.73-1.04,1.31-1.77,2.03l-.3-1.39c-.38.57-1.9,3.33-2.85,2.61-1.45-1.1-1.16-5.05-1.39-6.64l-1.1,3.07c-.04.12-.42.43-.49.36-.08-.08-.35-.39-.37-.5l-1.56-9.35-1.48,10.04c-.06.39-.42.91-.74,1.29l-1.09-2.77-.35,3.96c-.83-.24-1.3-.77-1.62-1.49l-1.57-3.5c.1,1.15.21,2.07.17,3.33-2.2-2.36-3.22-4.98-5.02-7.69l2.23,8.1c-1.82-1.22-2.33-3-3.97-4.44.95,2.69,2.03,5.09,2.87,7.91l-1.41-.91.71,2.51-6.42-5.1c.86,1.71,2.36,2.76,2.49,4.92-4.88-2.43-7.56-4.97-12.1-7.92l6.16,7.52c1.11,1.35,2,2.63,2.69,4.37l-4.59-1.98c1.51,1.63,2.99,2.97,4.33,4.91-3.94.55-4.21-.28-8.05-1.01,1.98,1.24,3.73,2.17,5.56,3.85l-1.37.35c.46.28,3.18,1.81,2.35,2.62-1.14,1.11-5.41,1.16-6.8,1.44,1.31.43,2.45.44,3.48,1.46-3.48.89-6.67,1.04-9.99,1.53l9.85,1.43ZM26.08,49.66c-1.21-.04-1.14-1.8-1.68-2.37-.58-.61-1.13-1.16-1.53-1.74l2.38.77c2.8,2.92,2.61,1.13,5.72,2.12-1.46.71-3.22,1.26-4.89,1.21ZM31.24,43.92c-2.08.3-3.77-.74-4.61-2.54-.28-.6-.37-1.47.08-1.92.53-.53,1.3-.58,2-.25,2.52,1.17,4.41.55,4.74,3.07l-2.22,1.64ZM37.77,48.99l3.42-1.23c-.99,1.13-1.94,2.08-3.42,1.23ZM45.12,44.42c-1.11,1.18-2.52,1.63-3.71.92l1.91-1.58,2.01-2.01c0,.85-.07,1.95-.21,2.66ZM50.41,40.15l-2.81,1.5c-.03-1.49,1.6-2.09,1.78-3.35l.4-2.76.79,1.96c.28.71.89,2.08-.16,2.64ZM47.52,22.58l2.37,1.52c.83.53,1.27.98,1.36,2.03.12,1.46.12,2.83-.91,4.14-.17-1.33-.04-2.44-1.39-3.25l-.75,2.3-1.09-4.77c-.12-.52-.8-1.48-1.12-1.84l-1.46-1.62c1.07.42,2.06.87,3,1.48ZM39.87,17.92c1.17.06,1.9,1.38,2.08,2.66l-2.36-1.25-2.6-.75c1.05-.3,2.02-.68,2.88-.66ZM24.68,18.95c.91-.64,1.21-1.1,1.47-2.1.27-1.05,1.86-1.32,2.84-1.02l3.53,1.08c-2.11-.11-3.16,1-4.76,2.04-1.29.84-2.68,1.16-3.71,2.68.18-.97.4-2.01.63-2.68ZM22.78,28.56c.38-.7,1.94-1.6,2.32-.69.38.9-.35,2.19.46,3.11.22-1.33.81-2.67,1.99-3.3,1.34-.72,2.41-.45,4,0-.59-.67-1.07-1.04-1.78-1.65.29-.5,1.1-.93,1.93-1.26-2.26-.76-1.58,1.04-4.06,1.69-.87.23-1.98-.3-1.93-1.28.14-2.7,6.28-4.86,8.51-3.79l-1.61,1.49s-.1.39-.12.46c-.07.19,3.57-2.06,6.14-.19l1.46,3.77c.26.67-.2,1.65-.68,2.07-1.57,1.38,0,1.92-.39,4.43.68-.88.65-1.86.27-2.98.03-.5.8-1.11,1.36-1.5.39-1.66-.19-2.52.29-4.64,2.7.22,5.41,5.65,4.31,8.34-1.03-1.29-2.18-2.24-3.73-1.69,1.37.67,2.13,1.12,2.55,2.1.97,2.3-.56,3.98-.13,4.09.11.03.59.02.61.14.09.62-.66,1.66-1.17,2.21-.86.93-2.05,1.06-2.9.21-.58.95-1.17,1.52-1.97,2.16l2.19-.53c2.37.59-5.64,5.43-7.39,2.89.36-.56.98-1.43,1.37-1.83,1.07-.38,1.85-.66,2.54-1.18-1.07.12-1.79.31-2.53-.02-.5-.22-1.03-1.27-.69-1.82.54-.86.84-1.49,1.15-2.38l1.35-1.49-1.77.88c-.41,1.39-1.17,2.35-2.53,2.53-4.3.57-3.82-3.14-5.44-3.47.35,1.12.58,1.96.67,2.96l-1.64.55-.38,2.39c-1.57-1.32-3.18-3.45-2.29-5.63l1.03.04c-.62-.76-.98-1.58-1.03-2.57l-.83,1.83c-1.1-2.22-.58-4.48.47-6.43ZM20.97,23.5c-1.38,1.95-.15,1.47-1.71,3.86-.18-.83-.32-1.58-.33-2.42-.02-.97,1.31-1.46,2.04-1.44ZM16.01,37.16c.08-.62.63-1.28,1.23-1.83l.31-1.99c.64,1.04.83,2.13.73,3.42-.06.83,1.23,1.34,1.46,1.94.55,1.45,1.15,2.58,2.35,3.71-3.64-.61-1.99-2.1-5.22-3.23-.64-.22-.96-1.31-.86-2.02Z"/>
    </g>
  </g>
</svg>