<?xml version="1.0" encoding="UTF-8"?>
<svg id="Warstwa_2" data-name="Warstwa 2" xmlns="http://www.w3.org/2000/svg" viewBox="0 0 52.18 51.18">
  <g id="game-icon-v6-elemental-pixarts-store">
    <g id="game-icon-v6-elemental-pixarts-store_140">
      <path d="M50.14,48.58l-3.93-1.62c-.47-.19-1.55.04-1.95.22.69-2.11.58-4.29-.22-6.66l3.2-1.47c.7-.32,1.13-1.52.86-2.48l-4.18,3.41-3.95-3.39c-1.89-1.62-1.88-3.66-.95-5.81-1.1.65-2.18,2.09-2.02,3.4.19,1.56,1.32,3.17,2.61,4.08,2.91,2.06,5.15,6.27,2.07,9.46l-.02-4.29c-.01-2.19-1.33-3.69-3.26-3.98.78-.87.13-1.58-.38-1.75-.38-.12-1.75-.34-2.07-.1l-3.94,2.94,2.32,6.58,1.92-5.3c.25,1.35.23,2.46.18,4.32l3.02-2.11-1.64,3.52c1.56-.65,2.09-1.03,3.06-1.79-.33.66-1.52,2.24-2.43,2.39-.88.15-2.48-.21-3.31-.45l-1.54,1.2-1.47-5.98c-.16-.66-1.39-1.91-2.04-1.84l-5.87.64c-.4.04-1.28.74-1.61.54l-1.75-1.1-1.77,5.98,2.36,1.32c-2.25.68-4.11-.16-5.72-.84l-1.97,1.15c-1.06-1.6-1.69-2.74-2.46-4.56l3.24,1.72c-.75-1.5-1.29-2.39-2.78-4.24,2.05.68,3.3,2.39,3.87,4.27l1.14-2.21,1.12,3.5c.98-2.25,1.56-4.4,1.72-6.33l-6.31-4.17c-1.66.91-3.96,3.01-4.17,5.17-.21,2.16,1.18,3.99,2.05,6.14-1.41-.63-2.83-2.33-3.17-3.64-.51-1.91-.01-4.26,1.23-5.55l3.39-3.52c.65-.68.93-2.71.53-3.82-.26-.73-1.24-1.28-2.15-1.73.57,1.4,1.06,2.42,1.19,3.25.25,1.63-4.79,4.5-5.71,8.58-.36,1.58.08,3.87.05,5.4-1.75.28-3.38.57-5.14,1.47,15.95,3.48,32.52,3.63,48.76.08ZM32.54,45.44c-.11,1.15-.32,2.25-.72,3.04-.21.41-1.54.28-2.01.34l-2.11.28,4.84-3.65Z"/>
      <path d="M29.21,7.5c.85-1.19,2.55-5.73,1.78-6.78-1.14-1.55-11.17-.3-13.67.91.23,1.47.98,3.17,2.15,4.17.68.57,2.56.27,3.76.51l-2.41.43c-.29.05-.85.54-.98.8-.79,1.51,6.81-.8,9.36-.02Z"/>
      <path d="M52.17,26.21c.22-2.47-2.1-3.03-3.7-3.61-.25-2.53-.26-6.2-2.26-8.34-1.86-.52-4.95,1.66-5.21,3.56l.72,4.68c.1.63.54,1.98,1.06,2.16.45.15,1.29.3,1.82.3l3.64.02c-1.31-1.21-2.01-1.77-2.83-2.77,2.15.86,3.85,1.74,5.19,3.23.7,1.07-1.01,2.93-1.82,4.09,1.95.27,3.25-1.94,3.38-3.32Z"/>
      <path d="M44.66,26.33c-.43-.76-2.83-.48-3,.39-.49,2.42-1.14,4.83-2.02,7.14.3,2.37,2.81,4,5.22,3.93,2.7-2.25,3.18-7.8,3.65-11.36-1.42-.51-2.15-.57-3.65-.05l1.96,3.94-1.63.75c.24-1.73.31-3.24-.52-4.74Z"/>
      <path d="M8.14,10.95l4.46,3.05,3.69-3.22c-.26-.33-.53-.57-.44-.71l.8-1.34.48,1.46,1.92-1.44-1-3.3-.59,1.53c-.02-1.92-.14-3.14-1.13-4.46l-3.57,1.73c-2.66,1.29-4.73,3.46-4.62,6.71Z"/>
      <path d="M11.06,33.47c0-.75-1.49-5.08-2.21-5.59-.6-.43-2.03-.69-2.8-.73l-3.88-.22c-.44,1.44,3.04,11.26,4.45,11.64,1.51-2.3,1.85-3.99,2.33-6.18l-.05,3.46c1.04-.65,2.17-1.65,2.16-2.38Z"/>
      <path d="M6.54,26.28l2.47.11v-5.71c-1.63-1.66-3.07-2.96-4.97-4.43-.89,3.05-1.44,5.73-1.76,8.89,1.17.9,2.86,1.08,4.26,1.14Z"/>
      <path d="M32.36,1.6l-1.33,3.77c-.31.88.14,3.07.98,3.65l5.24,3.63c1.14-1.25-3.17-3.26-2.78-4.34l3.49,3.17c.46-.73,1.15-1.9,1.54-2.9.28-.73-1.86-1.62-2.49-1.37-1.78-3.38-.73-4.65-4.66-5.62Z"/>
      <path d="M38.53.2l1.04,2.69.97-.63c.42-.27,2.36,3.4-1.29,8.89-1.81,2.72-2.28,6.46.59,8.18-2.9-8.19,5.24-9.94,2.08-17.17-.46-1.06-1.82-1.75-3.38-1.96Z"/>
      <path d="M4.75,15.35l3.22,2.75c1.88,1.6,2.25,3.66,2.19,6.22,6.37-7.08-13.14-10.15-2.61-15.8-1.82-1.19-3.31.75-3.9,1.97-.8,1.65-.23,3.72,1.1,4.86Z"/>
      <path d="M41.4,11.56c-.67,1.39-1.11,2.83-1.07,4.29l3.05-1.85c.63-.38,2.12-1.65,1.8-2.29-.67-1.37-1.39-2.27-2.28-3.27l-1.5,3.13Z"/>
      <path d="M6.99,14.44l3.78,2.92.93-2.64c-1.42-1.23-2.96-2.42-4.96-2.73-.7-.11-.29,2.03.24,2.44Z"/>
      <path d="M4.79,42.1l-1.85-2.35,2.31.66c.03-1.48-1.32-2.33-2.82-2.5l-1.97-.23c.25,1.12.59,2.35,1.21,3.56.51.98,2.12,1.26,3.13.88Z"/>
      <path d="M38.64,7.04c.47.18,1.21.11,1.57-.09.29-.16.23-1.72-.06-1.91-.74-.46-2.42-1.4-3.45-1.93-.48,1.68.36,3.32,1.94,3.93Z"/>
      <path d="M36.88,16.92c-.8-1.67-1.24-3.47-2.76-4.57,2.21,7.08,4.02,5.09,3.63,12.92,1.64-2.95.46-5.58-.87-8.35Z"/>
      <path d="M44.62,5.09c-.16.02-.73.33-.87.42-.14.09.06.53.23.54l1.06.06c.94.2,1.13.26.09.15l-1.3.83c-.57.36,1.82,1.75,4.12.82-.26-1.76-1.81-3.05-3.34-2.82Z"/>
      <path d="M35.53,35.93c-3.6,2.12-6.91,2.67-11.11,2.48,3.69,1.64,8.46.85,11.11-2.48Z"/>
      <path d="M6.42,3.85c-1.64.33-2.5,2.47-1.75,4.06l.89-1.35c1.49-.52,2.52-.91,3.83-1.62-1.18-.67-2.37-1.22-2.97-1.1Z"/>
      <path d="M23.12,9.52c3.96.17,7.02,1.4,10.09,4.2-1.88-3.82-6.12-5.35-10.09-4.2Z"/>
      <path d="M18.28,38.38c-1.99-3.14-3.08-5.39-4.35-8.52-.01,3.18,1.75,7.66,4.35,8.52Z"/>
      <path d="M12.32,18.73c2.23-2.7,4.61-4.64,7.71-6.34-1.73-.09-8.44,3.7-7.71,6.34Z"/>
      <path d="M49.07,41.9c-1.28.28-2.35.65-3.32,1.2l.95,1.17c.13.17-.64.72-.76,1.04,1.52-.43,2.68-1.58,3.14-3.41Z"/>
      <path d="M2.81,13.83c-1.39.05-2.96,1.17-2.8,2.84.07.81,2.58.15,2.66-.61-.11-.28-.6-.76-.49-.98l.64-1.25Z"/>
    </g>
  </g>
</svg>