<?xml version="1.0" encoding="UTF-8"?>
<svg id="Warstwa_2" data-name="Warstwa 2" xmlns="http://www.w3.org/2000/svg" viewBox="0 0 57.07 49.93">
  <g id="game-icon-v6-elemental-pixarts-store">
    <g id="game-icon-v6-elemental-pixarts-store_331">
      <path d="M39.81,36.27c-1.43,4.2-9.69,3.64-12.14,3.96,2.46,1.02,4.73,1.04,7.52,1.19-1.54,1.9-3.81,2.26-6.08,2.56l.85.95c.63.7-1.94,1.52-.71,5-2.04-.34-3.91-1.82-4.71-3.99l1.28-.74c-2.24-1.19-2.46-3.38-2.53-5.48l-1.1-2.46,5.61-1.17c-3.15-.94-6.8,0-9.04-3.22,6.34,1.18,12.54,1.14,18.19-1.5-4.65.46-8.9,1.18-13.37.51-4.51-.68-12.36-3.62-12.7-8.56,2.52.49,4.37.95,7.16,1.15-1.71-1.21-8.98-2.67-8.67-7.35,6.45,2.31,12.99,3.43,19.42,1.59-7.29-.16-17.51-.92-22.57-6.13-2.07-2.13-1.74-5.44.73-7.14C14.32.33,27.66-.8,36,.48c-7.45.51-19.73,1.21-25.42,5.85-1.24,1.02-1.17,2.81-.03,3.83,1.81,1.61,4.03,2.61,6.5,3.1,8.7,1.71,17.55,1.25,26.05-1.3,1.78-.53,5.63-2.45,4.9-4.02-1.35-2.9-9.87-3.81-12.55-4.35,3.82-.72,14.81,1.76,16.55,5.08.35.66.02,2.39-.54,2.92l-2.8,2.65c1.86,1.36-.52,3.45-1.85,4.2-7.34,4.16-14.42,3.88-22.83,4.4,7.4,1.68,15.02.87,22.47-1.61-.88,5.44-14.52,6.14-18.81,6.61,5.23,1.34,10.59.21,16.17-.39,2.82,3.67-6.77,8.85-9.24,9.74l5.24-.9Z"/>
      <path d="M57,19.08c1.04,2.97-9.42,6.67-11.96,6.28,2.05-1.42,12.99-4.64,8.58-8.47,1.02.03,2.91.84,3.38,2.19Z"/>
      <path d="M30.75,12.17l-4.91-.24,5.17-.56c2.6-.28,5.94-.17,8.01-1.54l1.35-.89c.32-.21,1.02.41,1.36.87-2.98,2.4-6.97,2.56-10.97,2.37Z"/>
      <path d="M26.18,5.68c-4.76.56-8.34,1.96-12.4,4.27.01-3.76,10.47-5.28,13.53-5.11-.19.27-.83.81-1.13.84Z"/>
      <path d="M18.63,35.79c-3.13.21-6.68-.24-8.95-2.43-1.1-1.06.7-2.91,1.79-3.01-1.59,3.71,5.12,4.34,7.16,5.44Z"/>
      <path d="M2.88,13.54c-3.43,2.57,2.71,5.31,3.87,6.9-2.35-.13-8.01-3.17-6.49-5.44.54-.81,2.11-1.59,2.62-1.45Z"/>
      <path d="M34.55,44.04l4.27-2.04c.26-.12,1.02-.75.96-1.03l-.35-1.54c.56.39,1.41,1.05,1.77,1.45,1.17,1.27-5.37,3.45-6.65,3.17Z"/>
    </g>
  </g>
</svg>