<?xml version="1.0" encoding="UTF-8"?>
<svg id="Warstwa_2" data-name="Warstwa 2" xmlns="http://www.w3.org/2000/svg" viewBox="0 0 52.62 53.76">
  <g id="game-icon-v6-elemental-pixarts-store">
    <g id="game-icon-v6-elemental-pixarts-store_258">
      <circle cx="41.97" cy="31.07" r="1.4"/>
      <path d="M11.24,11.79l-1.43.35c-.3.07-.82-.7-.66-.96l.81-1.26c.18-.28,1.21-.38,1.52-.25s.67.69.69,1.03-.6,1.01-.94,1.09Z"/>
      <g>
        <path d="M23.86,37.2c-3.18,1.73-9.22,2.44-10.52,8.64-.52,2.5-.76,4.71-1.2,7.65-.38-.22-.85-.71-1.6-1.53l-.51,1.73-9.89.06c.57-9.42-2.68-14.77,5.91-19.95,3.36-2.03,6.85-2.94,10.53-3.78,9.04-2.07,4.06-12.27,12.11-14.19,7.26-1.73,11.77-8.87,10.32-15.73l1.43-.07c1.97-.09-1.24,10.44-1.62,11.28,3.3-5.01,3.49-5.46,2.61-11.29l11.19-.02v12.99c-9.68,12.41-18.42,2.49-21.99,14.78-.99-.48.74-5.87,2.93-6.95-7.03,2.06-2.21,12.3-9.7,16.38ZM34.99,18.33l4.5.31c2.48.17,4.64-.9,6.35-2.55,1.94-1.87,3.94-3.61,4.72-6.33-2.16,2.42-3.82,4.06-6.37,5.57-.72.42-1.91,1.86-2.82,1.95-2.08.21-4.4.54-6.38,1.05ZM24.6,24.24c1.29-2.95,2.4-4.42,4.35-5.85-3.05.35-4.46,3.37-4.35,5.85ZM21.46,36.36c3.26-.98,4.86-3.9,5.04-6.63-1.19,1.67-2.42,2.76-3.88,3.31l1.05.93c.51.46-2.82,1.25-2.2,2.38ZM16.75,32.16c-2.52.04-5.13.2-6.63,2.49,2.36-.7,4.37-1.43,6.63-2.49ZM1.02,42.55l5.22-4.71c1.26-1.14,2.34-3.02,3.53-4.32-2.3-.53-7.9,7.22-8.75,9.03ZM10.45,51.72c.42-3.83,1.34-6.99,2.4-10.43,1.55-5.03,3.13-2.39,6.4-5.25-1.28-.6-6.09,2.05-6.83,3.99l-2.39,6.25-1.09,1.52,1.5,3.93Z"/>
        <path d="M29.01,43.44c4.17-1.2,5.62-6.05,4.66-9.53l-2.06,4.13c-.35.71-1.91,1.7-2.73,1.72-.42.01-.25-1.39.1-1.68s.99-.1,1.68.32c4.06-5.56.96-9.72,6.33-15.23l5.72-.54c-9.03,8.44-.68,12.11-4.59,18.67-4.74,7.95-8.33,5.19-9.2,12.36l-9.47.07c.73-5.31,4.42-8.84,9.56-10.32Z"/>
        <path d="M.2,32.11l-.08-12.68c4.97-1.7,8.84,1.4,11.19-3.66,2.09-4.51,6.52-7.01,11.56-5.86,4.45,1.02,8.71.77,12.77-1.85-1.86,4.53-6.85,6.06-11.32,5.76-11.42-.75-3.97,12.17-16.26,13-3.62-.06-5.85,1.77-7.85,5.28ZM20.17,11.29c-2.45-.56-5.18,1.31-6.06,3.31,2.21,1.55.85-1.6,6.06-3.31ZM12.48,18.48l.95.38.07-4.03c-1.85,2.85-2.8,4.91-5.82,5.96,2.72,1.69,4.28-2.52,4.8-2.31ZM1.11,27.79c5.53-4.69,10.81-.07,13.01-5.69-4.11,4.97-9.31-.38-13.01,5.69Z"/>
        <path d="M19,44.64c.31.02,1.01,2.3-.38,3.66-.42.41-1.84.55-2.26.09-1-1.1.05-3.4,1.4-3.69.29-.06.99-.07,1.24-.06Z"/>
        <circle cx="32.52" cy="4.83" r="1.39"/>
        <circle cx="24.23" cy="6.75" r="1.38"/>
        <path d="M7.3,31.03l-1.41.45c-.3.1-.67-.72-.55-1.01.44-1.04,1.37-1.3,2.19-1.23.25.02.57.37.68.61.14.31-.57,1.07-.91,1.18Z"/>
        <circle cx="23.6" cy="41.08" r="1.22"/>
      </g>
    </g>
  </g>
</svg>