<?xml version="1.0" encoding="UTF-8"?>
<svg id="Warstwa_2" data-name="Warstwa 2" xmlns="http://www.w3.org/2000/svg" viewBox="0 0 58.2 58.72">
  <g id="game-icon-v6-elemental-pixarts-store">
    <g id="game-icon-v6-elemental-pixarts-store_472">
      <path d="M24.14,58.4c3.57-1.55,7.45-2.05,7.4-5.52,1.13-1.13,2.26-2.25,3.15-3.52,2.93-4.21,5.7-8.04,8.54-12.66l-17.02,15.46-2.07,6.24Z"/>
      <path d="M40.67,13.72c-.37,1.13-.59,2.78-.66,4.17,2.25-.85,6.08-6.32,7.49-6.82l-4.94,6,.91,1.11c-.22,1-.31,1.4-.45,2.59,1.24-1.27,1.82-2.42,2.74-3.68L58.2,0l-8.44,6.45-9.1,7.27Z"/>
      <path d="M4.85,33.09c-.26.19-.83.74-.97,1.1l-2.7,6.59,7.5-3.43c.4-1.79.83-3.34,1.49-4.79l-.74,3.56,10.9-14.7c-3.34,2.22-6.25,4.14-9.18,6.5l-5.78,4.65,1.96.18c-.49.51-1.17,1.55-.85,1.78l.94.66-3.41,2.82,1.96-3.42c.19-.35-.78-1.73-1.11-1.5Z"/>
      <path d="M10.21,51.27c4.67-5.48,9.08-10.88,13.36-16.66-2.39,1.37-5.66,4.46-6.78,6.79-.06.12-.21.02-.26-.1l-.36-.93c-5.14,5.01-8.56,5.15-10.14,12.71,1.3-.31,3.3-.78,4.17-1.8Z"/>
      <path d="M39.16,14.32c-1.31,1.3-2.27,2.57-3.08,3.97l-5.96,10.34,10.73-6.37c1.39-.83,2.5-1.62,1.55-3.73-1.64.06-2.96.66-4.56,1.61,1.3-1.87,2.23-3.71,1.33-5.82Z"/>
      <path d="M37.52.01l-10.79,8.54c-.86,1.46-1.38,2.69-1.51,4.58l4.42-1.74L37.52.01Z"/>
      <path d="M9.35,52.78l-4.44,1.1c.99-2.31,1.67-3.79,2.3-5.83-1.56.96-3.02,1.91-4.04,2.84-1.29,2.74-2.19,4.97-3.17,7.83l7.99-3.89c.54-.26,1.19-1.41,1.36-2.05Z"/>
      <path d="M50.18,34.09c0-.43-2.14.06-2.71,4.26,2.03-.38,3.33-.99,4.74-2.01-1.15-1.19-.82-1.12.33-.9l5.56-8.21c-3.04,1.87-5.39,3.82-7.91,5.93v.92Z"/>
      <path d="M36.03,35.55l5.44-7.86c-2.44,1.09-3.81,2.85-5.82,4.38-1.39,1.05-3.21,1.93-3.75,4.08l-.3,1.21c-.06.23.47.34,1.08.73,1.05-.47,2.59-1.46,3.34-2.53Z"/>
      <path d="M12.3,16.41l4.98-7.59-7.78,6.11c-.81.64-1.27,1.55-1.25,2.88l2.82-2.46-2.14,3.09c1.48-.06,2.61-.86,3.37-2.02Z"/>
      <path d="M42.52,52.95l-.71,2.86c.97-.32,2.66-.88,3.39-1.43l4.75-7.54-7.43,6.11Z"/>
      <path d="M21.15,28.87c.97-.29,2.7-.86,3.21-1.64l4.38-6.77c-2.67,1.71-4.55,3.65-6.8,5.68-.5.45-.76,1.94-.79,2.74Z"/>
      <path d="M52.86,22.46l3.97-6c-1.85.89-7.23,4.6-6.48,6.88.89-.08,2.15-.34,2.51-.88Z"/>
      <path d="M37.22,10.76c.32.08,1.45-.09,1.66-.45l2.53-4.37c-1.1.3-5.81,4.43-4.19,4.82Z"/>
      <path d="M16.32,51.99c1.28-.22,2.14-1.31,2.59-3.07-1.24-.1-3.36,1.58-2.59,3.07Z"/>
      <path d="M24.67,45.81c.24.14,1.2-.13,1.35-.39l1.42-2.36c-.98.17-2.2.56-2.8,1.23-.25.28-.29,1.33.03,1.52Z"/>
    </g>
  </g>
</svg>