<?xml version="1.0" encoding="UTF-8"?>
<svg id="Warstwa_2" data-name="Warstwa 2" xmlns="http://www.w3.org/2000/svg" viewBox="0 0 43.2 54.64">
  <g id="game-icon-v6-elemental-pixarts-store">
    <g id="game-icon-v6-elemental-pixarts-store_57">
      <path d="M13.21,47.43c-9.19-5.43-11.04-17.61-3.93-25.53l3.19,1.81c-.74,2.2.14,3.97,2.07,4.27-2.68-2.39-.42-5-1.59-5.72l-2.23-1.35c4.75-5.01,12.42-5.97,18.53-2.65,3.08,1.67,5.59,4.07,7.21,7.12l-2.96,3.08,3.29-2.06c2.85,6.32,1.23,13.73-3.31,18.23-5.07,5.03-12.31,6.47-18.84,3.51l.86-2.63-2.28,1.93ZM20.28,37.45c.96-.66,3.03-1.57,3.54-2.42l7.23-12.05-11.62,8.11-7.21,11.78,8.06-5.42Z"/>
      <path d="M4.9,40.42c4.18,8.47,13.03,12.41,22.11,10.09l-.95,1.53c1.51-.64,2.51-.95,4.22-1.39l-1.82-.48c8.11-4.95,12.4-10.92,10.96-20.59,1.03.16,1.23.17,1.88.09,1.02-.13,1.88,1.29,1.9,2.42.13,9-4.62,16.55-12.68,20.49-9.61,4.7-21.45,1.13-26.97-8.22-.67-1.13.01-2.67,1.35-3.93Z"/>
      <path d="M30.09,16.8c-9.15-5.15-18.51,1.04-17.42-.58l-.62.91-.63-1.42c-.17-.38-1.02-.25-1.8-.5,5.48-3.82,12.2-5.04,18.95-2.69,5.35,1.86,10.65,6.22,12.92,12.34l-2.04,3.99c-1.74-5.71-5.06-9.63-9.36-12.06Z"/>
      <path d="M4.75,39.51l-2.37,3.06C-2.42,33.4.31,22.36,8.15,16.1c1.17.24,2.43.88,3.36,1.51-6.62,4.98-10.43,13.9-6.76,21.9Z"/>
      <path d="M24.38,8.85c-.6-1.12,2.73-3.59,0-6.24-1.2-1.16-3.29-1.49-4.88-.5-3.99,2.48.22,6.03-.65,7.02-2.82-1.34-2.93-4.04-2.08-6.16.93-2.33,3.59-3.45,6.2-2.77,1.74.46,3.07,1.83,3.68,3.36,1.2,3.04-1.87,6.02-2.26,5.29Z"/>
      <path d="M23.15,10.39c-1.05.17-2.6.11-3.57-.04-.35-.79-.14-2.73.49-3.16s2.21-.42,2.89-.07c.76.4,1.05,3.13.19,3.27Z"/>
      <circle cx="21.48" cy="33.11" r="1.72"/>
    </g>
  </g>
</svg>