<?xml version="1.0" encoding="UTF-8"?>
<svg id="Warstwa_2" data-name="Warstwa 2" xmlns="http://www.w3.org/2000/svg" viewBox="0 0 46.65 54.4">
  <g id="game-icon-v6-elemental-pixarts-store">
    <g id="game-icon-v6-elemental-pixarts-store_318">
      <polygon points="24.1 42.49 19.7 38.02 17.89 19.59 23.2 13.96 28.96 19.39 27.01 39.85 24.1 42.49"/>
      <polygon points="21.37 10.36 23.38 1.48 25.64 7.54 24.53 0 34.79 12.92 29.59 18.26 21.37 10.36"/>
      <polygon points="28.22 39.86 30.11 19.63 34.84 14.72 32.25 42.46 28.22 39.86"/>
      <path d="M18.61,38.88c-.89,1.3-2.35,2.62-3.87,3.69l-2.65-27.77c1.73,1.45,3.4,3.25,4.62,4.98l1.9,19.1Z"/>
      <path d="M17.65,18.15l-5.45-5.21L22.16.09c-1.04,6.31-2.33,11.37-4.51,18.06Z"/>
      <polygon points="22.04 54.32 15.21 44.05 18.94 40.35 22.04 54.32"/>
      <path d="M31.88,43.79l-6.9,10.61c.58-4.49,1.45-8.23,2.83-13.02l4.07,2.41Z"/>
      <path d="M25.28,45.78l-1.75,8.42-3.16-13.64c1.99,1.48,3.71,3.35,4.91,5.22Z"/>
      <path d="M5.9,25.93l-1.28,3.84c-.24-1.11-.45-3.09-1.11-3.67s-2.3-.94-3.51-1.4c.91-.18,2.75-.4,3.4-.98.71-.63.93-2.56,1.22-3.67.5,1.26.87,2.87,1.42,3.56.55.69,2.6.9,3.65,1.09l-3.78,1.24Z"/>
      <path d="M42.72,27.32l-1.13-2.58c-.27-.61-1.96-.72-2.79-.99l2.59-1c.69-.27.86-1.9,1.35-2.87.4,2.33,1.37,3.35,3.9,3.76-.98.31-2.08.61-2.69.87s-.84,1.96-1.24,2.82Z"/>
      <path d="M39.53,9.8l-.98-2.41c-.24-.58-1.78-.78-2.64-1.17.65-.29,2.53-.41,2.75-1.12l.9-2.98.83,2.95c.21.74,2,.82,2.79,1.13l-2.53.91c-.53.19-.69,1.42-1.12,2.68Z"/>
    </g>
  </g>
</svg>