<?xml version="1.0" encoding="UTF-8"?>
<svg id="Warstwa_2" data-name="Warstwa 2" xmlns="http://www.w3.org/2000/svg" viewBox="0 0 56.1 52.11">
  <defs>
    <style>
      .cls-1 {
        fill: #fff;
      }
    </style>
  </defs>
  <g id="game-icon-v3-dark-magic-pixarts-store">
    <g id="game-icon-v3-dark-magic-pixarts-store_22">
      <path class="cls-1" d="M16.54,16.5l2.34-.23c-4.26,2.46-4.38,2.63-9.17,3.74,2.79,2.05,1.09,3.19,3.78,6.46.18.22,1.36.16,1.34-.1-.09-1.37-2.51-3.94.14-6.59,2.56,3.39,2.96-.26,6.32,5.43.54.91,2.01,2.22,2.72,2.93l.99-.46c.1-.05.02.24-.07.31l-.5.42c-.87.73-1.49,1.7-1.86,2.76-.28-1.15-1-2.22-2.02-2.46-5.58-1.31-1.85-6.81-5.41-7.62-1.19,3.06.57,6.02,2.8,8.08-1.16.04-2.03-.82-2.9-1.77-1.06,5.22,5.54,2.21,6.2,7.31l-2.32-1.78c-.1,1.37-.65,3.91.03,4.88l3.18,4.5.82-2.33c.48,5-.92,7.79,3.87,12.12.89-1.85.73-3.53.34-5.15l-.95,2.21c-.69-1.71-1.14-3.32-1.1-4.98l.28-12.23c1.2,3.97.02,9.06,2.74,12.04,1.72-2.18,1.79-4.65,2.1-7.13l.61-4.91.25,12.23c.04,1.73-.3,3.15-.93,5.07l-1.18-1.85c-.2,1.39-.19,2.98.28,4.67,2.83-1.97,3.74-4.77,3.84-7.91l.13-3.96.84,1.95,3.22-4.33c.72-.96.05-3.61-.13-4.85l-2.32,1.97c.76-5.19,7.38-2.5,6.36-7.46-.99,1.02-1.92,1.77-3.02,1.8,2.3-2.13,3.88-5.08,2.85-8.12-3.58.36.17,6.6-5.62,7.68-.82.15-1.48,1.29-1.81,2.3-.3-1.01-.79-1.86-1.8-2.53.89-.98,2.25-2.34,3.08-3.49,1.07-1.49,1.69-3.09,3.65-3.48,1.1-.21,2.11-1.03,2.78-1.92,3.02,2.64-1.32,8.09.72,6.95,2.69-1.51,1.83-4.64,4.18-6.59l-3.6-1.03c-1.95-.56-3.51-1.75-5.25-2.75l2.25.17c-.78-2.86-3.42-5-6.2-5.94-.56-.19-2,.48-2,1l.03,2.02c-.65-.84-.92-1.53-1.35-1.79-.23-.14-3.61-.21-3.91-.14-.4.1-.82.91-1.09,1.21-.33-.84-.58-1.5-.81-1.92-1.07-1.91-7.6,2.78-7.76,5.58Z"/>
      <path class="cls-1" d="M8.87,14.34c1.64-.76,1.53-3.98,3.25-4.95-.89-1.45-2.75-1.65-4.34-.84.5-.61,1.45-1.37,1.98-1.78.19-1.26.43-2.74.89-3.86.05,1.57.03,2.97.62,4.54l2.52-3.88c-.47,2.32-1.93,3.73-.17,5.25.72-1.05,1.46-2.12,2.53-2.82-.85,1.82-2.62,3.35-.89,5.14.87-1.02,1.9-2.14,3.15-2.39-1.47,1.54-3.15,2.66-2.08,4.89,1.9-2.06,3.82-3.6,6.65-4.3-1.51-3.72-2.78-3.71-3.21-5.18-.45-1.54-2.18-1.8-3.11-2.79C14.18-1.28,9.76.19,8.14,3.51c-2.1,4.29-.37,7.04-3.39,9.73.99.57,2.98,1.63,4.13,1.1Z"/>
      <path class="cls-1" d="M39.69,13.78c1.12-1.97-.14-2.91-.95-4.62l2.04,1.77c.21.12,1.09-1.59.78-2.12l-1.91-3.27c1.3.96,2.04,2.14,2.86,3.31,1.52-1.36.49-2.6.32-4.44l2.08,3.13c.6-1.42.61-2.87.63-4.58.58,1.06.7,2.64.68,4.03.82.23,2.07.75,2.06,1.74-1.29-1.02-3.28-.87-3.99.53.33.55.79,1.31,1.05,1.83l1.83,3.58c1.78-.4,3.19-.88,4.44-1.41-3.63-2.54-1.1-6.65-4.37-10.89-2.08-2.7-5.86-3.24-7.83-.83-.78.96-2.71,1.14-3.21,2.89l.98.52c-2.88.45-2.73,2.08-3.91,4.35,2.76.84,4.97,2.06,6.41,4.47Z"/>
      <path class="cls-1" d="M2.55,15.71c1.74,1.57,4.22,1.36,5.66-.27C3.67,13.97,1.92,13.37.33,8.72c-.96,2.49.3,5.27,2.22,6.99Z"/>
      <path class="cls-1" d="M53.83,12.6c-1.65,1.48-3.73,2.29-5.9,2.73,1.28,1.69,3.95,2.06,5.7.38,1.81-1.74,2.98-4.37,2.27-6.84-.74,1.19-1.21,2.96-2.06,3.73Z"/>
    </g>
  </g>
</svg>