<?xml version="1.0" encoding="UTF-8"?>
<svg id="Warstwa_2" data-name="Warstwa 2" xmlns="http://www.w3.org/2000/svg" viewBox="0 0 28.83 56">
  <defs>
    <style>
      .cls-1 {
        fill: #fff;
      }
    </style>
  </defs>
  <g id="game-icon-v3-dark-magic-pixarts-store">
    <g id="game-icon-v3-dark-magic-pixarts-store_96">
      <path class="cls-1" d="M.21,22.34c.22.32.89.96,1.29,1.06l6.08,1.54-3.16.11c.85,1.61,1.65,2.81,2.44,3.93.12,2.45,3,5.22,1.9,6.49l-1.9-4.29c-.59-1.34-1.27-2.53-2.05-3.78-1.14-1.83-1.69-3.76-4.59-3.89-.27,4.48,2.69,4.71,3.81,10.89,4.9,5.12,10.9,7.9,17.43,3.27,5.74-4.07,2.45-3.84,6.03-9.51.99-1.56,1.43-3.31,1.16-5.05-3.57,2.24-7.22,2.8-10.9,1.88,3.52-.41,6.52-.83,9.87-1.64.74-.18,1.63-2.14.91-2.38-4.72-1.62-9.2-1.7-14.14-1.73-1.41,0-16.28.03-14.19,3.1ZM14.5,36.53c-.89-1.43-1.86-3.11-2.65-4.98l2.63-4.56c.93,1.6,1.83,3.21,2.53,4.86l-2.51,4.67ZM27.42,21.69c-8.75,2-17.66,2.32-25.81-.14,1.85-2.06,25.04-2.03,25.81.14Z"/>
      <path class="cls-1" d="M26.51,19.49c2.36-2.69.7-5.7-1.7-8.08-.99-.98-.99-1.98-.72-3.58-2.91,2.92,2.26,6.03-.43,7.91-.74.52-2.24.64-2.79.13-2.04-1.89,2.38-6.18-2.86-7.99.56,1.16.95,2.6.1,3.35-1.68-.34-3.42-1.65-4.08-3.42-.87-2.34,3.44-4.83.62-7.82-.07,1.62-.67,3.04-1.84,4.05-5.32,4.59,2.31,7.49-.14,10.87-.2.28-1.06.65-1.38.57-.32-.08-.66-.77-.73-1.16-.92-5.02-3.33-3.76-3.56-8.11-1.58,4.12,2.78,5.91,1.16,8.81-.69,1.24-2.23,1.74-3.27.94-.77-.59-.92-2.06-.71-3.29-3.77,2.5.4,2.8-3.11,6.95,8.45-1.6,16.9-1.67,25.44-.14Z"/>
      <path class="cls-1" d="M10.16,51l-4.84,1.69c-.27.1-.91.74-.79.98,1.65,3.12,20.48,3.28,19.85-.54l-5.46-2.19c-2.62-1.05-2.71-4.78-2.35-7.08l-4.23-.05c.61,2.44-.06,5.38-2.19,7.19ZM22.39,53.21c-4.74,1.96-10.48,2.25-15.6-.04,5.06.98,9.94.96,15.6.04Z"/>
      <path class="cls-1" d="M16.52,42.91c1.26-.29,2.14-1.69,1.77-2.66-2.68.79-4.9.65-7.7.1-.02,3.14,3.75,3.07,5.93,2.56Z"/>
      <path class="cls-1" d="M2.47,33.5l-1.53-5.55c-1.94,1.97-.58,4.3,1.53,5.55Z"/>
      <path class="cls-1" d="M27.07,31.8l-.85,1.87c2.1-1.05,3.38-3.09,2.09-5.37-.83.87-1.26,2.21-1.24,3.49Z"/>
      <path class="cls-1" d="M13.29,31.43c-.16.58.59,1.62,1.08,2.34.33.92.41.77.35-.24,1.47-1.52,1.12-2.74-.33-4.12-.27.28-.92,1.37-1.1,2.01Z"/>
    </g>
  </g>
</svg>