<?xml version="1.0" encoding="UTF-8"?>
<svg id="Warstwa_2" data-name="Warstwa 2" xmlns="http://www.w3.org/2000/svg" viewBox="0 0 48.64 50.13">
  <defs>
    <style>
      .cls-1 {
        fill: #fff;
      }
    </style>
  </defs>
  <g id="game-icon-v3-dark-magic-pixarts-store">
    <g id="game-icon-v3-dark-magic-pixarts-store_105">
      <path class="cls-1" d="M19.03,36.22l.3,2.95c.63-1.48,1.45-3.26,2.2-4.52.67-.22,1.92-.53,2.49-.9l4.77-3.15-2.81-2.5c-.43-.36-.99,1.51-1.27,1.98-.72,1.22-2.75,2.36-4.11,3.18-7.82,4.76-5.9,5.25-9.11,8.31-.21.2-1.31.15-1.26-.11.04-.26-.11-.98.15-.97l1.26.07c2.13-3.35,4.95-6.18,8.69-7.89,1.68-.77,3.16-2.26,4.17-3.55l-3.24-.63c1.31-.13,2.82-.18,3.56-.65.62-.39.91-1.63,1.06-2.37-.77.56-1.96.99-2.53.5-.42-.36-.46-1.38-.6-2.33-.58-.24-2.13-.19-2.32.47-.25.88-.44,2.1-.55,3l-.73-1.71-2.06,2.92.45,1.83c-1.61,2.74-3.67,4.97-5.86,7.23l-2.7,2.79c1.09-4.51,6.73-4.95,6.84-11.34l4.25-5.63-2.48-2.11-1.13,2.46c-.86,1.88-2.84,3.26-2.91,5.52-.03,1.05-.31,3.37-1.58,3.15-1.46-.32-.49-2.32.53-3.47-2.03.41-3.18,1.99-3.29,4.26-.03.58-1.6,1.17-2.18.77-.45-.31-.49-.97-.75-2l-2.16,4.69-1.4,2.82c-1.27,2.55-2.64,5-2.71,8,1.23-2.42,4.04-7.38,7.19-5.65.18.27.04,1.55.35,1.61l1.26.23c.23,1.33-.88,2.88-2.09,3.79l-3.68,2.8c5.42-1.02,9.61-3.78,13.93-6.32-2.08-2.39-.32-5.91,2.07-7.59ZM7.59,39.45l-.46-1.08-2.78,1.98c.53-1.51,1.07-2.85,1.67-3.69l3.46-1.56c-.13,1.57-.91,2.73-1.9,4.35ZM9.81,46.4l1.42-3.21c.36-.83,2.3-1.33,3.04-.43-1.04,1.79-2.81,2.85-4.46,3.65Z"/>
      <path class="cls-1" d="M15.41,11.03c-.74-.14-1.79-1.16-2.57-1.64-1.06,1.3-.75,2.62.75,3.89l-1.13,5.18c-.36,1.64-.11,3.3.54,4.74.59-3.36,1.71-6.14,3.89-8.59,2.05.02,4.42.03,6.45.25,1.42.16,2.24,1.9,4.13,1.35l-5.2-2.18c.64-.86,5.05,1.72,7.49,1.95-.68,1.57-1.3,2.76-1.8,4.76l4.65-3.34-.04,2.14,1.4,3.54-1.24-1.46,2.19,8.53-.02-4.8c.85,2.29.52,4.06.7,6.06l-.94-.42c-2.08,1.85-4.35,3.16-7.17,4.21,3.01.63,6.29-.19,8.76-1.93.42.7,1.1,1.83,1.71,1.93.54.08,1.6-.27,2.5-.58-2.67-2.31-3-5.58-3.82-8.86l-.81-3.24c-.38-1.53-.79-3.14-1.03-4.65-.24-1.5.02-2.6-1.27-3.57-.94-.71-1.88-.66-3.43-.6-1.69.06-3.59-.6-5.26-.91l-9.42-1.75Z"/>
      <path class="cls-1" d="M30.14,24.47l.73-4.4c-1.09.8-1.95,1.68-3.36,1.52-.11-.74-.15-1.85-.16-2.66v-1.11c-.01-.25-1,.19-1.16.4-1.72,2.23-3.02-.8-7.93-.16-.66.09-1.64,1.26-1.86,1.84,5.52-1.61,5.56,1.79,8.23.67l-.61,4.09c1.08-.74,1.93-1.72,3.09-1.46.57.13.73,1.78,1.06,2.32,1.01,1.67,2.22,3.54,1.65,5.75,3.69-1.22.03-5.68.33-6.79Z"/>
      <path class="cls-1" d="M38.36,2.26c5.12-1.38,4.73-.19,8.16,2.61l.67,4.68,1.08-2.24c.38-2.49.4-4.59.35-7.26L43.9,0c-2.13-.02-4.14.76-5.53,2.26Z"/>
      <path class="cls-1" d="M43.82,3.43l-3.25-.22.51-.38c.11-.08.16-.22.04-.23-2.28-.29.08.35-3.92,2.86l2.98,1.02-3.84-.28.76.64c-1.09.38-2.27,1.01-3.25,1.7,1.37.76,2.36,1.31,3.46,2.12l-4.36-1.28c-.42-.12-1.43,1.09-1.33,1.26l2.15,1.12-1.96-.19c-.34-.03-.58.47-.93,1.21,2.68,0,4.38,1.88,5.07,4.72,2.03-1.43.11-2.54-.12-4.55l2.37,3.22c.55-.59,1.13-1.65.95-2.14l-.82-2.22c.92.66,1.22,1.43,1.77,2.79.48-.3,1.07-1.57.82-2.19l-1.48-3.64,2.49,3.91.64-4.14,1.08,1.35.08-4.09c.51,1.5.71,2.94.86,4.56,1.77-2.07,1.66-5.49-.77-6.95Z"/>
    </g>
  </g>
</svg>