<?xml version="1.0" encoding="UTF-8"?>
<svg id="Warstwa_2" data-name="Warstwa 2" xmlns="http://www.w3.org/2000/svg" viewBox="0 0 47.94 47.43">
  <defs>
    <style>
      .cls-1 {
        fill: #fff;
      }
    </style>
  </defs>
  <g id="game-icon-v3-dark-magic-pixarts-store">
    <g id="game-icon-v3-dark-magic-pixarts-store_60">
      <path class="cls-1" d="M9.91,11.04c2.57-2.84,5.54-4.11,9.12-4.7,1.9-.31,3.77-1.62,5.83-.62-6.6.58-12.42,3.98-16.28,9.61-2.02,2.95-4.7,4.73-8.6,5.61,4.81,2.9,9.42-2.04,12.39-5.41,3.5-3.99,8.59-6.42,13.96-5.56,9.81,1.58,11.02,11.37,18.22,12.26.15.02.15-.07-.03-.2l-.73-.54,4.13-.84c-2.63-.6-5.11-1.56-6.84-3.79l-5.8-7.48c2.56.41,4.25,1.31,6.53,2.17-4.59-4.26-10.21-5.85-16.19-7.69l6.05-.8-7.26-.95-.64-2.11-1.22,2.63c-5.37.84-10.45,3.39-12.66,8.41Z"/>
      <path class="cls-1" d="M1.46,23.22l2.5,2.4-2.25,1.78c2.23-.37,4.11.12,5.32,1.95,1.98,2.99,4.34,5.48,7.15,7.92l-3.31.11c8.22,4.13,8.13,3.94,17.07,3.2-3.38,1.06-6.84,1.52-10.29,1.67l6.27,1.35.51,3.85c1.19-4.48,3.77-3.54,7.24-6.37.12-.49.22-.67.06-.73l-1.32-.57c4.75-2.65,8.52-6.67,11.55-11.51,1.37-2.18,3.03-3.63,5.45-4.18-8.47-3.26-11.01,14.51-25.3,12.6-12.33-1.65-10.45-12.84-20.66-13.45Z"/>
      <path class="cls-1" d="M24.26,11.28c-4.28,7.19-3.95,16.49-.26,24.32,3.9-7.32,3.77-16.34.26-24.32Z"/>
      <path class="cls-1" d="M38.03,37.89l.71,2.33c.32-4.43,2.32-5.03,1.07-7.24l-4.77,7.37,2.99-2.46Z"/>
    </g>
  </g>
</svg>