<?xml version="1.0" encoding="UTF-8"?>
<svg id="Warstwa_2" data-name="Warstwa 2" xmlns="http://www.w3.org/2000/svg" viewBox="0 0 44.05 52.3">
  <defs>
    <style>
      .cls-1 {
        fill: #fff;
      }
    </style>
  </defs>
  <g id="game-icon-v3-dark-magic-pixarts-store">
    <g id="game-icon-v3-dark-magic-pixarts-store_69">
      <path class="cls-1" d="M35.66,10.87c-1.17,1.16-2.17,2.11-3.1,1.89-.82-.19-1.99-.63-2.67-.89-.17,1.72-.79,3.41-1.78,5.24,5.09-1.29,10.46-.1,12.67,4.59,2.01,4.27,1.1,9.23-1.37,13.07,1.14-5.28,2.64-11.03-2.18-14.87,2.03,13-10.52,27.84-23.44,25.89,3.62,4.87,9.78,2.62,14.4,1.47-2.96,2.18-6.69,3.21-10.39,2.71-4.61-.62-7.41-4.44-7.72-9.17-.64-9.79,7.8-16.06,5.7-16.43-.28-.05-1.03-.06-1.28.09-3.65,2.16-6.17-4.53-6.73-1.13,1.1.56,1.92,1,2.07,1.57.56,2.09-1.02,4.2-2.24,4.18-.65-.01-1.47-.51-2.48-1.1l-1.06,3.47,2.79.17c1.09,1.31.91,3.6-.76,4.41l-2.31-1.18c.94-.02,1.69.06,2.14-.12.45-.19.53-1.4.48-1.88-.05-.4-1.17-.9-1.63-.81l-4.28.79,3.29,1.61c-1.97,8.39,3.58,16.67,12.36,17.74,12.22,1.49,23.95-9.94,27.16-21.41,1.55-5.56.81-12.06-3.33-16.13-1.26-1.24-3.93-1.12-4.3-3.76Z"/>
      <path class="cls-1" d="M28.19,11.98c-.27-1.51-4.67-3.26-5.58-7.21l2.96,2.81C24.71,3.41,21.08.16,16.26,0,10.15-.19,4.5,4.57,4.09,10.8c-.23,3.42,1.91,6.61,4.74,8.14-.13-1.85-.9-3.09-1.75-4.92,5.01,3.47,1.85,8.07,5.32,8.88,1.8.42,3.57-1.54,3.99-.92l.85,1.25c.73,1.07,1.64,1.75,2.89,1.9l.23-2.43,1.29,1.51c.24.28,1.46.07,1.46-.3l.04-2.31c-.26-.32.05.06.5.61.46.35.86.64,1.22.7.36.06.82-1.11.75-1.46l-.23-1.22c-.04-.19.41-.04.58.07.11.07.69.6.81.56.83-.28.69-2.22-.13-3.17-1.98-2.3,2.11-2.58,1.55-5.72ZM16.63,17.9c-1.05,1.22-2.55,1.69-3.83,1.19-.88-.35-1.76-1.79-1.67-3.09.08-1.06,1.65-2.27,3.02-2.4,1.04-.1,2.39.19,2.79.81.55.84.39,2.68-.31,3.51ZM20.02,19.57c-.71-1.42-.91-2.52-.63-4.61l3.73,2.62-3.09,1.99ZM25.25,12.35c-1.06,2.09-4.09,2.43-5.51.65-.55-.69-.1-2.32.45-3.02.61-.78,2-1.67,3.1-1.41,1.46.34,2.64,2.45,1.97,3.79Z"/>
      <path class="cls-1" d="M8.48,26.6c.16-.45.05-1.63-.29-2.09-2.47-.82-5.78-1.66-8.19-2.06l6.47,5.52c.7.01,1.83-.84,2.01-1.37Z"/>
      <path class="cls-1" d="M34.1,10.93c-.07-2.86-.67-5.47-1.34-8-.9,2.49-1.69,4.88-2.11,7.36-.23,1.33,3.48,1.84,3.45.64Z"/>
      <path class="cls-1" d="M39.63,12.93c.59-2.16.79-3.28,1.02-5.15l-3.4,3.97c-.14.78,2.18,1.94,2.39,1.18Z"/>
    </g>
  </g>
</svg>