<?xml version="1.0" encoding="UTF-8"?>
<svg id="Warstwa_2" data-name="Warstwa 2" xmlns="http://www.w3.org/2000/svg" viewBox="0 0 49.06 34.32">
  <defs>
    <style>
      .cls-1 {
        fill: #fff;
      }
    </style>
  </defs>
  <g id="game-icon-v3-dark-magic-pixarts-store">
    <g id="game-icon-v3-dark-magic-pixarts-store_68">
      <path class="cls-1" d="M38.97,10.75c-.27-1.47-2.73-2.6-1.25-4.97H11.48c.68,2.13.29,3.81-1.7,4.76v13.34c1.93,1,2.34,2.52,1.79,4.7l26.07.07c-1.35-2.48,1.09-3.47,1.35-4.9.74-4.04.74-8.88-.03-12.98ZM33.9,12.3c-.91-.48-1.03-2.19-.27-3.16l2.99,1.51c.21,1.04-1.71,2.18-2.72,1.65ZM34,7.73c-2.17,1.3-5.01,2.17-7.87.84,2.63-.55,4.96-.72,7.87-.84ZM22.89,8.46c-2.8,1.71-5.46.42-7.72-.81l7.72.81ZM12.52,10.86c.13-.29.46-.43.96-.67l2.02-.97c.57.12.73,1.65.43,2.59-.22.68-1.62.63-2.46.28-.33-.14-1.08-.95-.95-1.24ZM15.43,25.38l-1.48.04c-1.11.03.87-1.21-.7-5.62-.69-1.93-1.26-2.92-2.78-4.99l3.3-1.15-.17,3.09c.59,1.94,1.2,3.86,2.08,5.78.22.48,1.2,1.25,1.16,1.71-.03.46-.96,1.12-1.41,1.14ZM31.57,19.81c-.34,3.64.9,1.57-2.88,6.17-2.03,2.47-6.05,2.06-8.12.28-.86-3.02-3.27-1.26-3.11-6.41.08-2.58-.97-4.87.94-7.08,3.54-4.1,9.25-3.7,12.34.09,1.7,2.09,1.09,4.41.85,6.96ZM36.92,16.86c-.76,1.89-1.57,4.27-1.78,6.34-.05.48.64,1.78.28,2.05-.92.7-2.89-.2-3.12-1.03-.11-.38.79-1.06,1.19-1.33l2.01-6.24-.09-2.87c1.16.04,2.17.46,3.27,1.25l-1.76,1.84Z"/>
      <rect class="cls-1" x=".01" y="29.94" width="49.05" height="4.38"/>
      <rect class="cls-1" x="0" y="0" width="49.06" height="4.39"/>
      <path class="cls-1" d="M3.73,28.13c.31.4,1.41.56,1.98.44,2.38-.53,3.89.9,4.54-.67.93-2.26-1.84-2.35-1.84-5.17v-11.57c-.02-2.63,2.93-2.25,1.66-4.88-.28-.59-1.45-.73-2.33-.48-1.83.53-3.13-.99-4.09.65-1.14,1.94,1.61,2.5,1.61,4.84v12c0,1.89-2.84,3.13-1.52,4.84Z"/>
      <path class="cls-1" d="M43.89,28.63c.61.11,1.72-.51,1.85-1.18.37-1.87-1.82-1.86-1.83-4.69l-.03-11.86c0-1.94,2.73-2.36,1.64-4.35-.51-.93-1.52-1.04-2.54-.64-1.21.47-3.16-1.17-3.91.4-1.12,2.33,1.74,2.71,1.74,5.23v11.72c-.01,2.34-2.83,2.08-1.78,4.69.57,1.41,1.68.12,4.86.67Z"/>
      <path class="cls-1" d="M28.82,12.91c-2.29-1.93-5.81-2.1-8.23-.3-1.85,1.38-2.82,3.76-1.58,6.06l.61-1.86c1.21,1.9-1.53,4.4-.29,5.74.38.41,1.47.66,2.17.8l.29,2.6,1.1-1.07.53,1.27c.07.16.44,0,.54-.14l.45-.67.86.96c.16.18.49-.68.73-1.19l1.13.68.76-2.39c.9-.21,1.91-.64,2.1-1.19.56-1.62-1.02-3.08-.77-5.76l1,2.14c1.02-2.22.24-4.3-1.39-5.68ZM22.4,21.59c-.63.14-1.81-.17-1.96-.54-.18-.44-.12-1.31.12-1.77.22-.42,1.32-.74,1.76-.57.62.24,1.34.89,1.45,1.35.11.45-.72,1.4-1.37,1.54ZM26.84,21.58c-.7-.18-1.5-1.07-1.43-1.56.07-.55.96-1.35,1.67-1.42.91-.1,1.93.75,1.92,1.42-.01.95-.84,1.9-2.16,1.57Z"/>
    </g>
  </g>
</svg>