<?xml version="1.0" encoding="UTF-8"?>
<svg id="Warstwa_2" data-name="Warstwa 2" xmlns="http://www.w3.org/2000/svg" viewBox="0 0 35.13 54.66">
  <defs>
    <style>
      .cls-1 {
        fill: #fff;
      }
    </style>
  </defs>
  <g id="game-icon-v3-dark-magic-pixarts-store">
    <g id="game-icon-v3-dark-magic-pixarts-store_10">
      <path class="cls-1" d="M27.78,20.22c-5.8-3.49,2.1-6.73-2.91-10.76-1.25-1.01-1.69-2.44-1.85-4.03-2.79,2.57.97,5.95-1.38,7.12-.52.26-1.79.07-2.29-.28-4.35-3.02,3.43-7.77-2.41-12.27.85,8.12-7.35,5.43-6.18,16.69-2.86-1.7-2.17-4.77-1.82-7.62-7.63,6.69,1.95,7.64-4.99,15.36-.81-2.33,1.44-5-1.41-7.25.15,2.09-.24,3.76-1.08,5.75-2.96,7.05-1.05,9.34,2.33,15.14.08-6.48,1.7-2.01,2.18-9.15,2.02,5.6-1.87,4.66-.96,8.09.49,1.85-.39,2.61-1.84,3.81.52,1.44,2,3.23,3.3,4.06l3.61-1.11c.47-.14,1.61-.07,1.93.25.31.32.65,1.22.65,1.48l-1.85-.78.47,3.2,1.61.98c.9.14,1.77.41,2.46.95.36-.17,1.1-.64,1.35-.42l.92.86,1.18-.58-.78,2.2c-.19.53.51,1.75,1.21,1.45.91-.38,1.19-2,.78-2.53l-1.2-1.57c1.82.53,4.71.29,5.42-1.72.26-.75.36-1.76.61-3.07l-1.87.86c-.29-.22.85-1.93,1.47-1.78l4.99,1.2c1.05-.83,2.4-2.63,3.09-3.9-1.34-1.01-2.26-1.87-1.96-3.33.97-4.78-3.37-2.67-.53-9.31-.67,7.04,1.82,3.56,1.7,9.31,3.07-3.4,4.12-8.1,2.98-12.47-.57,1.03-1.09,1.87-2.26,2,2.64-9.53-3.91-8.66-1.63-15.35-4.71,2.79-1.15,6.95-3.02,8.5ZM14.35,40.74h-4.55c-3.04.01-2.91-4.76-2.76-5.03.39-.73,1.46-1.75,2.19-1.98l3.31,2.69c1.2.97,2.49.93,4.26.79l-2.44,3.53ZM19.61,45.54c-.2.23-1.07-.23-1.22-.5-.14-.24-.41-.73-.43-.72-.05.03-.23.22-.43.41l-.97.95c-1.06,1.03-2.04-3.77,1.11-6.24,1.31.39,3.56,4.17,1.95,6.09ZM27.74,40.47l-6.39.38-2.62-3.64c4.93.56,4.39-2.23,8.03-3.49l2.21,2.27-1.23,4.48Z"/>
      <path class="cls-1" d="M21.46,49.75c-.47.49-.88,1.62-.77,2.21l.51,2.7c1.46-1.66,1.51-3.46.26-4.91Z"/>
      <path class="cls-1" d="M14.08,49.6c-1.35,1.51-1.24,3.28.27,5.03l.47-3.75c.03-.24-.61-1.43-.74-1.28Z"/>
      <path class="cls-1" d="M17.02,53.26c.91-.87.47-3.36-.86-3.1-.44.41-.93,1.61-.93,2.15,0,.54,1.39,1.33,1.79.95Z"/>
    </g>
  </g>
</svg>