<?xml version="1.0" encoding="UTF-8"?>
<svg id="Warstwa_2" data-name="Warstwa 2" xmlns="http://www.w3.org/2000/svg" viewBox="0 0 57.02 39.76">
  <defs>
    <style>
      .cls-1 {
        fill: #fff;
      }
    </style>
  </defs>
  <g id="game-icon-v3-dark-magic-pixarts-store">
    <g id="game-icon-v3-dark-magic-pixarts-store_23">
      <path class="cls-1" d="M36.84,5.53c-4.45-4.23-12.03-4.13-16.41,0-3.29,3.1-3.56,7.83-2.06,12.07l2.05-4.37c-.52,3.22-2.01,5.82-2.06,8.52-.08,3.73,5.04,1.33,5.34,3.59l.03,3.11c.51-1.05.46-.63.85.57l.52-1.84.83,2.65.89-2.17.81,2.75,1-2.71.93,2.63,1.02-2.52.79,2,.74-2.19.81,1.47c1.33-2.33-.02-3.28.66-4.49.69-1.24,3.58.76,4.83-1.7.48-.94.42-2.14.04-3.34l-.83-2.63c-.41-1.29-.77-2.46-.83-3.83l2.02,4.51c1.66-4.13,1.22-9.06-1.96-12.09ZM24.17,21.49c-.77.18-1.9.31-2.39.2-1.09-.24-1.91-3.39-1.04-4.48.4-.5,1.52-.97,2.31-1.12,1.81-.34,3.45.38,3.69,2.06.19,1.34-.66,2.9-2.56,3.34ZM30.31,24.85l-1.41-.55c-.33-.13-1.07.49-1.57.74-1.14-1.03-.31-3.64,1.14-4.63,1.52.48,2.06,2.83,1.84,4.44ZM35.79,21.14c-1.33,1.11-3.57.33-4.72-.58-1.02-.8-1.06-2.75-.26-3.62,1.61-1.74,4.69-1.01,5.62.7.38.7-.03,2.98-.65,3.49Z"/>
      <path class="cls-1" d="M40.25,20.16l6.81-1.24.99-3.42-7.6,2.18c-.1.62-.19,1.87-.2,2.49Z"/>
      <path class="cls-1" d="M3.01,23.77c-.01.72,1.69,1.49,2.11.92l4.02-5.4-1.01-3-5.12,7.48Z"/>
      <path class="cls-1" d="M6.03,3.71c.29.22,1.24.64,1.62.55,3.72-.94,6.12-.8,6.99-4.25L6.16,2.16c-.43.11-.42,1.33-.13,1.55Z"/>
      <path class="cls-1" d="M16.65,19.98c.45-.03.64-1.81.21-2.02-.34-.17-.93-.4-1.45-.56l-6.02-1.86.59,3.42,6.68,1.02Z"/>
      <path class="cls-1" d="M50.87,2.11L42.4.03l1.65,3.08,5.23.97c.44.08,1.27-.11,1.6-.33.33-.22.41-1.54,0-1.64Z"/>
      <path class="cls-1" d="M54.13,23.9l-5-7.4c-.43,1.03-.81,2.31-.81,3.12l3.61,5.12c.35.49,2.31-.53,2.19-.84Z"/>
      <path class="cls-1" d="M10.6,11.25l5.52,3.92c.11-.82.17-2.06,0-2.69l-4.5-4.59c-.52.63-1,2.26-1.03,3.35Z"/>
      <path class="cls-1" d="M47.47,11.16l5.13,3.75c.71-.42,1.54-1.08,1.9-1.62l-7.32-5.13.3,2.99Z"/>
      <path class="cls-1" d="M4.7,14.62l4.94-3.2c.19-.9.32-1.86.37-3.12l-7.15,4.98c.4.89,1.37,1.64,1.84,1.34Z"/>
      <path class="cls-1" d="M41.25,15.12l5.1-3.88c.25-.84-.12-2.5-.54-3.33l-3.18,2.8c-1.35,1.18-2.31,2.55-1.38,4.4Z"/>
      <path class="cls-1" d="M17.96,6.13l-1.92-5.61c-.89.63-2.17,2.38-1.85,3.18l2.42,6,1.35-3.57Z"/>
      <path class="cls-1" d="M44.89,27.85l.73,4.99c.08.53,1.87.77,2.13.34l-.61-7.67c-1.28-.49-2.46.94-2.25,2.33Z"/>
      <path class="cls-1" d="M11.57,32.76l.63-5.08c.15-1.19-.61-2.54-1.98-2.28l-.95,7.98c.7.3,2.23.04,2.31-.62Z"/>
      <path class="cls-1" d="M41.16.88l-1.71,5.19c-.22.68.67,2.23,1.21,3.07,1.03-2.81,4.1-6.25.5-8.26Z"/>
      <polygon class="cls-1" points="46.61 23.98 40.29 22.15 39.24 24.56 44.16 25.99 46.61 23.98"/>
      <polygon class="cls-1" points="17.96 24.5 16.78 22.06 10.72 24.03 13.21 25.94 17.96 24.5"/>
      <path class="cls-1" d="M52.91,25.69c-.14.26-.25,1.1-.2,1.44l.79,5.75c1.17-1.96,1.44-5.13.81-7.35-.3-.26-1.22-.16-1.4.17Z"/>
      <path class="cls-1" d="M2.02,14.4C.58,16.61-.22,19.43.05,21.76l3.29-6.02c.21-.38-.83-1.38-1.33-1.33Z"/>
      <path class="cls-1" d="M2.6,25.5c-.21,2.57.04,5.17,1.05,7.51l.84-6.8c.06-.47-1.72-.98-1.89-.71Z"/>
      <path class="cls-1" d="M56.92,21.85c.39-2.96-.37-5.11-1.81-7.54-3.34.81.81,4.09,1.81,7.54Z"/>
      <path class="cls-1" d="M52.13,3.12c-.37.55-.8,1.47-.74,1.92l4.15,5.2c-.45-3.26-1.54-5.25-3.42-7.13Z"/>
      <path class="cls-1" d="M1.71,9.92l4.09-4.95-.82-1.7c-1.91,2.04-3.14,4.13-3.27,6.65Z"/>
      <path class="cls-1" d="M13.9,39.76l-2.17-5.64-2.05.4c1.29,2.36,1.99,3.72,4.22,5.23Z"/>
      <path class="cls-1" d="M45.73,34.12l-.83,1.24-1.46,4.29c1.78-.84,3.26-3.35,3.7-4.84.07-.35-1.22-.99-1.42-.69Z"/>
    </g>
  </g>
</svg>