<?xml version="1.0" encoding="UTF-8"?>
<svg id="Warstwa_2" data-name="Warstwa 2" xmlns="http://www.w3.org/2000/svg" viewBox="0 0 48.29 47.33">
  <defs>
    <style>
      .cls-1 {
        fill: #fff;
      }
    </style>
  </defs>
  <g id="game-icon-v3-dark-magic-pixarts-store">
    <g id="game-icon-v3-dark-magic-pixarts-store_76">
      <path class="cls-1" d="M24.2,41.33c9.47,0,17.14-7.68,17.14-17.14S33.67,7.04,24.2,7.04,7.06,14.72,7.06,24.19s7.68,17.14,17.14,17.14ZM32.93,22.74c1.14.62,1.67,1.45,2.47,2.68,1.01-1.87,1.28-4.1,1.57-6.56,1.75,3.86.85,8.5-2.45,11.27-2.68,2.25-6.3,2.17-8.96.16,1.81.09,3.5.22,5.05-.45,3.11-1.36,3.57-4.41,2.33-7.1ZM19.15,15.39c2.51-.33,4.57,1.03,5.67,3.31,1.31-1.86.72-4.23-1.08-5.44-1.8-1.2-3.89-1.12-6.14-.81,2.61-1.82,6.08-2.1,8.84-.43,1.59.97,2.74,2.48,2.68,4.14l-1.49-1.7c.46,3.55-.34,6.91-3.33,8.89-1.22.81-2.98.92-4.42.41-1.15-.4-2.05-1.78-2.91-3.14-2.72.98-3.68,4.22-2.72,6.74,1.23,3.22,3.86,5.11,6.88,6.59-1.35.08-2.52-.04-3.83-.24,3.73,3.29,8.59,3.2,13.83,2.21-3.55,2.6-8.24,2.61-12.34,1.08-3.65-1.36-6.64-4.67-7.83-8.73-1.77-6.01,1.97-12.05,8.2-12.88Z"/>
      <path class="cls-1" d="M42.12,39.53c5.6-4.43,7.71-11.74,4.99-18.37l-.26,3.06c-1.37-3.61-2.22-7.06-5.48-9.38,3.49,6.02,3.51,12.39.31,18.75,1.08-.81,1.69-1.5,2.85-2.66.33,1.4.37,3.39-.35,4.75l-2.05,3.85Z"/>
      <path class="cls-1" d="M28.36,2.36c2.42-.64,5.34.03,8.21.35C34.08,1.17,31.15.44,28.24.08c-3.62-.46-6.47,1.14-9.46,2.67-2.93,1.49-6.31,2.5-7.43,6.12,4.23-4.63,12.33-3.76,17.49-3.91l-1.76-1.33c-.32-.24.85-1.15,1.28-1.26Z"/>
      <path class="cls-1" d="M15.73,41.82c-2.45-1.52-5.91-2.85-7.27-5.89l-2.59-5.81-.6,2.11C1.19,29.39,1.08,24.86.57,20.39c-1.34,5.45-.41,11.53,3.64,15.76,2.16,2.25,8.21,6.38,11.52,5.67Z"/>
      <path class="cls-1" d="M37.19,38.58c-2.3,1.81-4.31,3.72-6.99,4.22-2.97.56-5.62.93-8.74,1l.62.83c-3.25,1-6.33.47-9.14-.34,4.16,3.3,9.41,3.96,13.74,1.75,1.77-3.26,7.14-.24,10.52-7.45Z"/>
      <path class="cls-1" d="M10.67,4.27c-4.13,1-6.64,4.7-6.42,8.52,2.68.83-1.95,6.17.17,10.97-.24-3.64,1.75-6.38,2.08-9.43.41-3.84.58-7.31,4.17-10.06Z"/>
      <path class="cls-1" d="M39.84,10.63c1.92.12,3.22.96,4.47,2.15-.15-3.02-2.22-4.67-4.58-5.73-1.36-.45-2.69-.74-4.04-.7,2.06,1.24,3.63,2.14,4.15,4.29Z"/>
      <path class="cls-1" d="M39.25,41.22l-4.9,4.71c1.78.44,6.65-3.25,4.9-4.71Z"/>
    </g>
  </g>
</svg>