<?xml version="1.0" encoding="UTF-8"?>
<svg id="Warstwa_2" data-name="Warstwa 2" xmlns="http://www.w3.org/2000/svg" viewBox="0 0 54.54 35.2">
  <defs>
    <style>
      .cls-1 {
        fill: #fff;
      }
    </style>
  </defs>
  <g id="game-icon-v3-dark-magic-pixarts-store">
    <g id="game-icon-v3-dark-magic-pixarts-store_12">
      <path class="cls-1" d="M16.34,14.34c-1.45,4.55.46,9.34,4.82,11.73,3.42,1.87,8.35,1.32,11.93-.83,2.44-1.47,5.43-8.23,2.75-8.35.39-.03,1.27-1.06.92-1.43-.3-.32-1.07-.66-1.78-1,.7-.18,1.35-.83,1.19-1.5-.13-.56-1.49-1.34-1.92-.96l-1.98,1.76,1.05-2.44c-1.77-.27-3.49-.33-5.42-.15,1.22,4.95,1.22,9.82-1.27,14.24-2.66-4.57-3.02-9.05-2.01-13.96l-4.01.85,1.28,2.63-2.12-1.97c-.91.05-2.91.62-3.43,1.39Z"/>
      <path class="cls-1" d="M51.2,8.74c-3.25.55-5.96.33-8.9-1.07-8.99-4.27-16.4-5.63-25.66-1.15-5.38,2.6-9.35,6.35-12.61,11.38-1.09,1.68-3.09,2.6-4.03,4.54,2.63-1.15,4.63-2.67,6.49-4.55,6.47-6.58,15.23-11.14,24.67-10,12.94,1.56,17.03,11.44,23.38,7.16-4.55-.78-4.75-1.33-8.19-4.3,1.94-.49,3.45-.62,4.86-2.02Z"/>
      <path class="cls-1" d="M12.22,28.08c4.66,1.99,9.34,3.7,14.6,3.67,9.56-.05,18.06-5.65,22.19-13.92-1.04-.42-2.05-.18-2.38.84-8.2,10.81-21.2,13.01-33.32,7.86-6.01-2.55-6.68-.48-12.92-.31,3.17,2.08,3.74-1.6,11.84,1.86Z"/>
      <path class="cls-1" d="M6.45,11.6C15.75,2.11,28.42-.89,40.59,4.15c-2.04-1.92-4.34-2.5-6.76-3.46C23.48-1.69,12.08,2.14,6.45,11.6Z"/>
      <path class="cls-1" d="M7.63,20.51c-.03.32.5,1.12.8.99l1.67-.75c.31.5.53,1.02.86,1.06.45.05.87.07,1.46.31l-2.64-.07-1.09.52c-.25.12.38,1.05.67,1.14l8.58,2.61c-3.07-3.19-4.32-6.76-3.83-11.53-1.93,1.11-6.3,3.79-6.48,5.73Z"/>
      <path class="cls-1" d="M43.91,19.6c-1.59-.36-1.99-.47-3.02-1.22l3.94-.1.99-1.4c.2-.29-.7-1.07-1.02-.93l-1.29.55-.07-.9-2.39-.53,1.97-.64c-1.47-1.03-2.9-1.79-4.92-2.36,1.71,4.87.78,8.98-2.02,13.16,3.06-1.52,5.6-3.46,7.85-5.64Z"/>
      <path class="cls-1" d="M14.29,31.33c8.82,6.07,24.07,5.43,30.82-4.97-10.22,8.09-18.18,9.16-30.82,4.97Z"/>
      <polygon class="cls-1" points=".47 24.88 7.48 23.99 6.02 20.77 .47 24.88"/>
    </g>
  </g>
</svg>