<?xml version="1.0" encoding="UTF-8"?>
<svg id="Warstwa_2" data-name="Warstwa 2" xmlns="http://www.w3.org/2000/svg" viewBox="0 0 46.77 52.6">
  <defs>
    <style>
      .cls-1 {
        fill: #fff;
      }
    </style>
  </defs>
  <g id="game-icon-v3-dark-magic-pixarts-store">
    <g id="game-icon-v3-dark-magic-pixarts-store_73">
      <path class="cls-1" d="M7.07,16.99c.44,4.24,2.07,17.11,4.78,19.7,1.4,1.34,1.79,2.52,2.71,4.02,1.68,2.74,4.88,4.48,7.4,6.34l1.16-9.25,1.09,9.59c3.06-1.89,5.75-3.9,8.18-6.43.28-.55.81-2.04,1.01-2.55,1.51-1.26,2.84-2.82,3.36-4.81,1.51-5.82,2.77-11.55,2.88-17.62.03-1.62-2.28-3.58-3.56-4.03-2.66-.93-5.12-1.89-7.47-2.87l-.31.74c-.05.11-.25.08-.3-.03-.95-2.24-1.25-1.78-3.53-3.47l-1.04,7.82-1.01-7.94c-3.43,2.43-6.82,4.4-10.9,5.43-1.82.46-4.68,2.87-4.43,5.36ZM35.7,17.4l-3.17,2.35,2.48,2.46c.21.21.43.69.46.93.03.24-.89.16-1.09-.01l-2.95-2.52c-.33,1.38.4,2.36-1.1,3.27l-.05-10.01,5.42,3.54ZM30.98,29.07l.14,1.57,3.05-1.77c1.61,1.45-3.72,2.43-3.07,4.51,1.38-.62,1.91-1.23,3.36-1.37-1.05,1.49-2.01,2.2-3.15,3.11-.28.8-.44,1.39-1.28,2.38l-.17-8.59c.63,0,1.1-.03,1.12.16ZM23.41,18.93l4.66,5.68-4.57,5.96-4.65-5.78,4.56-5.86ZM18.72,36.49l-2.96-2.84-2.78,2.69c-.23-2.66-.22-4.64-.06-7.48l2.83,2.86,2.89-2.81.08,7.58ZM11.68,14.95l1.97,1.52.27-.93c.03-.12.43-.15.49-.04l.43.83,1.3-1.29c.33-.33,1.38.56,1.59,1.01.1.21,0,.81-.05,1.04-.05.22-.77-.39-1.18-.71-3.25,1.72-.25,7.08-2.47,7.53l-.56-5.4c-.04-.4-.82-1.51-1.2-1.52-.38-.02-.79.03-1.67.07-.22-.36.43-1.43,1.08-2.09Z"/>
      <path class="cls-1" d="M5.62,7.26c-1.33.2-1.92,1.58-1.96,3.13-1.13-.23-2.6-.31-3.12.33-.73.89-.73,2.45.04,3.15,1.51,1.36,2.07,2.79,2.39,4.72l1.42,8.52,1.29,6.81c.92,4.85-2.67,5.9-.2,7.78.6.46,2.29-.25,3.1-.04,1.14.29,2.5,1.55,3.52-.09,1.73-2.79-1.9-2.4-3.38-7.8-1.55-5.67-2.44-11.23-2.98-17.14-.4-4.35,3.73-3.43,2.78-7.32-.37-1.5-1.48-2.25-2.89-2.04Z"/>
      <path class="cls-1" d="M43.98,17.82c.25-1.52.87-2.74,2.1-3.75.85-.7.91-2.47.23-3.29-.5-.6-2.07-.57-3.04-.58-.29-1.44-.9-3-2.41-3.02-1.33-.01-2.38.94-2.68,2.42-.76,3.61,3.39,2.49,2.92,7.39-.56,5.76-1.44,11.23-2.92,16.74-1.43,5.35-5.12,4.9-3.44,7.83.33.57,1.68,1,2.24.61,2.66-1.86,3.07,1.06,4.79-.85,1.35-1.5-.81-2.62-.8-6.25,0-1.32-.16-2.46-.38-3.63l1.15-.04,2.24-13.58Z"/>
      <path class="cls-1" d="M13.77,42.2l-1.9,1.68c3.42,3.54,7.06,6.29,11.61,8.73,4.34-2.31,7.84-5.21,11.52-8.58l-1.78-1.87c-3.14,2.82-6.08,5.18-9.79,7.33-3.74-2.08-6.54-4.34-9.67-7.27Z"/>
      <path class="cls-1" d="M9.51,8.3l.94,2.28c3.09-.96,5.43-1.71,7.76-3.29l5.25-3.58c3.77,3.06,7.87,5.51,12.71,6.79.49-.62.92-1.6,1.14-2.38-5.42-1.43-9.89-4.29-13.82-8.1l-5.88,4.65.65,2.22-2.41-1.24-6.33,2.67Z"/>
      <polygon class="cls-1" points="23.32 21.18 20.59 24.66 23.4 28.39 26.29 24.58 23.32 21.18"/>
    </g>
  </g>
</svg>