<?xml version="1.0" encoding="UTF-8"?>
<svg id="Warstwa_2" data-name="Warstwa 2" xmlns="http://www.w3.org/2000/svg" viewBox="0 0 44.63 52.82">
  <defs>
    <style>
      .cls-1 {
        fill: #fff;
      }
    </style>
  </defs>
  <g id="game-icon-v3-dark-magic-pixarts-store">
    <g id="game-icon-v3-dark-magic-pixarts-store_61">
      <g>
        <path class="cls-1" d="M11.27,12.93c-.37-.8-.6-1.24-1.09-2.1l-.18,4.75c1.04-.37,1.75-1.63,1.27-2.66Z"/>
        <path class="cls-1" d="M15.57,23.35c.13.13-.13,1.23-.22,1.07-1.12-1.78-1.69,3.17-5.53,4.4-.18.06-.67.56-.57.68l.42.48-1.37,1.99,3.38-2.13-.59,1.41,2.85-1.34-.39,3.31,2.86-2.25.89,3.69,1-3.46c1.01,1.84,1.8,3.17,3.38,4.64l.19-3.94,2.75,3.99.38-2.11,1.69,2.24.59-2.27c.65,1.32,1.4,2.68,3.01,2.53-1.77-2.89-2.16-6.12-.52-9.06l.86,1.02.39-3.25,2.64,4.47c2.04-5.32-2.32-6.98,1.08-14.2,2.48-5.27,5.35-10,8.31-15.23l-16.14-.03-3.32,8.22c-1.71,4.28-4.35,7.9-7.84,10.85-1.48,1.25-.98,3.45-.18,4.28ZM31.4,15.73c.85-2.26,1.67-4.33,3.03-6.24-.96,2.96-1.75,5.89-2.06,8.73-.05.47-.43,1.26-.7,1.99-.66-1.34-.74-2.92-.27-4.48Z"/>
        <path class="cls-1" d="M28.58,46.11c1.23-2.72.11-6.18-.27-9.11-.62.43-.76,1.16-.95,2.21l-1.47-2.04-.73,2.53-2.23-4.22-.54,2.8-3.99-4.11-.58,2.78c-.99-1.3-1.51-2.36-2.18-3.99l-2.98,2.45-.23-3.39-3.52.95c-3.27,3.7-6.25,8.18-7.63,13.05-.35,1.85,1.59,3.94,2.99,4.79,2.04-4.78,3.88-9.21,7.5-12.86-.17,5.16-.77,9.72-1.74,14.48,4.87,1.61,16.59-1.95,18.57-6.31Z"/>
        <path class="cls-1" d="M40.74,17.55l-3.35,1.67.33-1.58c-6.12,3,2.41,10.09-5.36,15.64-.19-1.51-.36-2.58-.67-3.73-2.64,1.85-.27,5.79.65,7.84l-2.05.41.49,7.35c4.65-2.3,5.89-.43,8.14-5.82-1.37.69-2.7,2.3-3.71.92-.86-1.16.82-2.58,1.94-2.62,6.49-.21,2.94-6.84,7.21-7.73-4.63-.39-3.7,3.95-5.67,3.81-.41-.03-1.03-.9-1.03-1.31,0-1.95,1.14-2.93,2.71-3.74,4.47-2.32,4-2.42,4.26-7.83-1.72,1.18-.9,3.57-3.44,3.99-.62.1-1.81-.61-1.93-1.3-.69-4.02,6.46-3.47,4.82-10.08-.21-.83.01-2.08.13-3.12-2.33,1.35-.43,5.7-3.47,7.23Z"/>
        <path class="cls-1" d="M2.19,39.66l3.95-5.91c.51-.76.92-1.83,1.15-2.57l-1.21.13c.55-1.95,1.75-2.98,3.32-3.8,5.7-2.96,1.67-6.62,5.78-10.06,4.71-3.94-2.61-6.88.17-11.53-4.44,2.89,1.77,8.75-3.83,11.13-3.58,1.52-1.42,5.89-3.28,5.74-.42-.03-1.24-.58-1.46-.95-1.25-2.12,0-3.87,1.07-5.98-3.71,2.27-5.07,4.88-3.27,9.22,1.61,3.87-.86,6.18-1.4,5.6-1.27-1.38.37-2.89-1.18-4.86-.04,3.98-3.81,5.18-.9,9.06.98,1.31,1.29,2.89,1.09,4.76Z"/>
      </g>
      <path class="cls-1" d="M9.44,47.95l.72-5.8c-1.51,2.39-2.54,4.31-3.84,7.13,1.38-.23,2.2-.67,3.12-1.33Z"/>
    </g>
  </g>
</svg>