<?xml version="1.0" encoding="UTF-8"?>
<svg id="Warstwa_2" data-name="Warstwa 2" xmlns="http://www.w3.org/2000/svg" viewBox="0 0 46.56 55.94">
  <defs>
    <style>
      .cls-1 {
        fill: #fff;
      }
    </style>
  </defs>
  <g id="game-icon-v3-dark-magic-pixarts-store">
    <g id="game-icon-v3-dark-magic-pixarts-store_100">
      <path class="cls-1" d="M29.82,8.24c-.62-.17-1.04.97-.82,1.14.21.17.73.61,1.05.69,2.65.65,5.39,3.37,4.72,6.61-.38,1.82-2.21,3.57-3.85,4.55,1.04-3.13.92-6.24-1.81-8.24,1.93,3.18,1.35,6.8-1.2,8.99-2.63,2.26-6.18,2.24-8.67.21-2.77-2.25-3.52-5.46-1.68-8.85-2.59,1.8-2.32,4.59-1.79,7.64-1.45-1.28-3.3-2.78-3.63-4.82-.21-1.29.85-3.67,1.8-4.59,1.53-1.49,2.12-.62,4.77-2.53.2-.14-.31-1.12-.9-1C6.8,10.23-2.64,22.9.99,34.85l2.39,7.87c-.86.12-1.67-.11-2.71-.4.43,1.11,1.72,1.84,3.01,1.97,2.22.22,3.79-1.48,3.77-3.28,0-.8-.58-2.15-1.11-2.47-.53-.32-1.69-.35-2.61-.34C.27,30.11,2.54,20.56,9.02,14.79c1.05.85,1.33,1.74.99,2.74-1.18,3.54-.21,7.01,1.06,10.28l-5.37,2.69c-.99.5-1.86,1.28-2.48,2.26,4.2.08,7,1.12,10.07,3.85-.58-3.34-3.45-3.67-5.89-5.26l4.38-2.24c2.63,3.33,4.91,6.36,7.12,10.01-.82.63-1.89,1.27-2.36,1.35-.82-1.17-1.62-2.19-2.38-1.95.35,1.02,1.25,2.03.94,2.49l-1.32,1.97,5.21-2.11c1.56,3.36,2.78,7.05,3.3,10.92-4.96-.36-9.73-2.35-13.2-5.79,1.61-2.05,2.75-4.49,1.68-6.94-.88-2.02-3-3.99-5.48-3.36,2.82.51,4.54,2.47,4.41,5.26-.1,2-1.12,3.52-2.64,4.64-2.16,1.6-4.33,1.45-7.07-.1,1.17,2.94,4.72,2.16,7.27,1.82,4.4,3.47,9.53,6.13,15.22,6.34l.8,2.29.99-2.34c5.87-.14,11.05-2.53,15.08-6.51,2.05.9,4.01,1.14,5.67.24-1.82-.06-4.07-.17-5.01-1.22-.05-.38.43-1.62.8-1.62h1.58c1.85-.03,3.76-.68,4.12-2.55-1.03.79-1.94,1.29-3.41,1.24.64-1.74,1.05-3.01,1.64-4.36,5.58-12.76-2.35-27.15-14.93-30.58ZM5.43,40.36c.63,0,1.15.51,1.15,1.15s-.51,1.15-1.15,1.15-1.15-.51-1.15-1.15.51-1.15,1.15-1.15ZM35.28,18.25c.75,4.58-.94,8.71-3.94,12.46-.83-2.48-1.78-4.24-3.8-6.15,3.41-1.4,6.07-3.21,7.74-6.31ZM11.56,18.34c2.01,2.69,4.01,4.75,7.62,6.17-1.66,1.79-3.02,3.43-3.72,6.15-2.66-3.36-4.86-7.51-3.9-12.32ZM22.35,44.7l-1.76-4.67c.2-.23,1.64-.38,1.76-.05.06,1.19.06,3.43,0,4.73ZM17.47,31.56c0-3.27,2.65-5.92,5.92-5.92s5.92,2.65,5.92,5.92-2.65,5.92-5.92,5.92-5.92-2.65-5.92-5.92ZM24.25,39.85l1.9.09-1.71,4.17-.2-4.26ZM43.18,38.89c-1.2-.26-2.19-.47-2.78-.34-1,.21-2.17,2.38-.55,5.1.3.51-.48,1.62-1.12,1.8-2.26-2.07-2.39-5.41-.35-7.88.88-1.07,2.27-1.25,3.82-1.55-2.76-1.28-5.04.87-5.99,2.71-1.36,2.63-.28,5.18,1.46,7.24-3.36,3.51-8.12,5.2-13.22,5.84.5-3.92,1.58-7.51,3.13-10.81l5.43,2.05-1.64-2.14,1-2.29c-2.04-.25-1,2.69-3.56,1.54-.74-.33-.93-1.47-.3-2.32l6.35-8.67c1.7.68,3.17,1.43,4.5,2.36-2.7,1.44-5.07,2.13-5.82,4.92,3.35-2.4,6.24-3.65,10.42-3.52-2.39-2.35-5.07-3.55-8.31-5.16,1.65-3.63,2.07-7.64,1.12-11.46.17-.3.72-1.31.44-1.21l-1.18.4-.91-2.91c8.99,6,11.45,16.57,8.08,26.32Z"/>
      <path class="cls-1" d="M27.99,8.27l-1.95-4.54-.71,1.19c-.33-1.68-.82-3.13-1.67-4.93-1.92,1.54-.4,3.27-1.15,5.64-1.12,1.58-1.8,3.47-1.97,5.47-2.58-3.08,3.67-4.87.99-7.99-2.23,4.42-3.74,7.56.32,10.93v-1.28c.81.61,2.1,1.17,3.12.95,2.13-.46,3.58-4.11,3.02-5.43ZM23.72,12.94c1.8-1.22,2.83-1.98,2.35-4.12-.12-.55-.15-1.3-.15-2.22.76.18,1.39,4.27.6,5.14-.71.78-1.81,1.27-2.81,1.21Z"/>
      <path class="cls-1" d="M23.47,16.87c-1.01,0-1.82.82-1.82,1.82s.82,1.82,1.82,1.82,1.82-.82,1.82-1.82-.82-1.82-1.82-1.82Z"/>
    </g>
  </g>
</svg>