<?xml version="1.0" encoding="UTF-8"?>
<svg id="Warstwa_2" data-name="Warstwa 2" xmlns="http://www.w3.org/2000/svg" viewBox="0 0 36.75 56.51">
  <defs>
    <style>
      .cls-1 {
        fill: #fff;
      }
    </style>
  </defs>
  <g id="game-icon-v3-dark-magic-pixarts-store">
    <g id="game-icon-v3-dark-magic-pixarts-store_05">
      <path class="cls-1" d="M3.7,27.43c2.33,5.09-1.39,4.59-.36,9.07.81,3.56-2.2,3.49-2.13,5.17.07,1.6,2.28.37,2.73,4.3,1.26,2.16,5.89-3,7.73,1.48l-2-.85,1.02,3.85c.73.31,2.01.81,2.51,1.43l.86-.61c.8-.56.89,1.31,2.4,1.09-.33.73-.78,2.57-.37,3.37.19.37,1.64.43,1.83.06.43-.82-.04-2.64-.35-3.63l1.02.37c.14-.18.7-1.08,1.03-.92l1.5.71c.27-.2.93-.87,1.3-.97.31-.09.87.29,1.13.36,2.59-2.31,2.21,1.17,2.95-2.03l.75-3.23-2.11,1.35c.23-.69.77-1.71,1.36-1.98,2.41-1.1,5.65,1.75,6.49.22.75-1.37,1.19-2.38,2.09-3.41.65-.75.65-1.75-.19-2.36-3.09-2.25.2-3.35-2.12-8.1-.66-1.34-.37-3.14.36-4.44l-.09,3.19c1.13,1.89,1.77,3.75,1.94,6.26,2.47-5.74,2.84-13.58-1.68-18.81-.5.78-.9,1.63-1.39,1.81-.42.16-1.46.12-1.9.07l1.81-1.21c1.4-3.59,1.72-7.68.34-11.27-1.93,7.87-3.93,5.73-5.25,10.26-.86-1.32-.35-2.63,1.29-3.85-1.71-1.12-3.78-1.83-5.62-2.17l.29,3.45c.1,1.23-.99,2.74-2.16,2.98.81-1.56,1.66-3.18,1.3-4.91-1-4.74-2.02-9.04-3.63-13.53-1.59,5.07-2.47,9.48-3.37,14.42-.27,1.46.71,3.03,1.47,4.28-1.66-.48-2.52-2.19-2.39-3.95l.23-3.02-5.59,2.22c1.45,1.45,2.04,2.65,1.15,4.09-.22-1.34-.49-2.22-1.3-2.98-2.1-1.97-2.86-4.57-3.8-7.39-1.49,2.79-1.44,11.27,2.14,12.41-1.25.69-2.53-.34-3.39-1.84-4.71,5.83-4.11,13.7-1.48,19.15-.1-7.68,2.62-3.01,1.67-9.97ZM20.62,47.57c-.38.26-1.28-.39-1.51-.8l-.56-.98c-.24-.42-.28.6-1.75,1.86-.33.29-1.41-1.18-1.32-1.61.3-1.4,1.34-4.95,2.56-5.75,1.35-.88,4.53,5.98,2.58,7.28ZM26.52,33.26c.07-.06.23-.11.24-.02l.03.8c1.43-.75,2.65-1.59,4.44-.88l-1.86.68c2.16.93,2.78,2.74,2.29,4.9-.19.85-.61,2.02-1.04,2.54-.54.65-2.27,1-3.19.8l-4.06-.9,2.12,1.94c-2.84.12-3.76-2.1-4.66-4.37-.49-1.22-1.18-2.37-1.21-3.56l1.02,1.32c1.13,1.46,4.67-2.14,5.43-2.83l.44-.4ZM17.81,22.12c3.28-.24,6.12,1.59,8.17,4.02-1.93,1.88-4.17,3.57-7.18,3.71-3.28.15-5.56-1.6-7.83-3.7,1.59-2.02,3.99-3.82,6.83-4.03ZM5.58,33.22c2.37-1.57,4.22,1.68,4.6.84l.27-.6,3.2,2.73c.37.31,1.8.72,2.19.42.38-.3.75-.73,1.5-1.53-.17,1.13-.64,2.27-1.29,3.44-.91,1.64-.78,3.89-3.73,4.22l1.02-1.69-3.95,1.06c-.76.2-2.29-.03-2.82-.5-1.45-1.29-2.51-5.85.74-7.73l-1.73-.66Z"/>
      <path class="cls-1" d="M20.78,55.64c.42-.87.19-2.94-1.05-3.55-.97.93-1.2,2.83-.73,3.94.25.18,1.61-.03,1.78-.38Z"/>
      <path class="cls-1" d="M14.5,52.14c-1.72.46-1.28,3.02-.18,4.37,1-.94,1.34-3.15.18-4.37Z"/>
      <path class="cls-1" d="M22.29,51.83c-1.06,1.39-.84,3.14.17,4.67,1.28-1.41,1.13-3.43-.17-4.67Z"/>
      <path class="cls-1" d="M21.41,25.93c0-1.65-1.34-2.99-2.99-2.99s-2.99,1.34-2.99,2.99,1.34,2.99,2.99,2.99,2.99-1.34,2.99-2.99ZM18.39,23.29c.88,1.54.93,3.42-.08,5.29-.67-1.79-.58-3.47.08-5.29Z"/>
    </g>
  </g>
</svg>