<?xml version="1.0" encoding="UTF-8"?>
<svg id="Warstwa_2" data-name="Warstwa 2" xmlns="http://www.w3.org/2000/svg" viewBox="0 0 43.77 54.66">
  <defs>
    <style>
      .cls-1 {
        fill: #fff;
      }
    </style>
  </defs>
  <g id="game-icon-v3-dark-magic-pixarts-store">
    <g id="game-icon-v3-dark-magic-pixarts-store_27">
      <path class="cls-1" d="M2.52,26.33c1.16,3.64,6.25,1.78,9.31,1.23l1.68-1.36c-1.48,3.96-2.6,4.77-2.93,9.28l-5.92,7.39,1.97.45c.09.56.23,1.6.57,1.55l1.2-.18c.02.33-.13,1.4.18,1.4h1.05s1.39,1.94,1.39,1.94l4.55-7.11,2.2.81c-.14.23-.75,10.27,1.17,7.59l.69-.97c.24.18,1.13,1.02,1.35.75l.91-1.14c.35.24,1.22.94,1.44.66l.66-.86,1.83.62-1.02-7.38c-.11-.76-.04-1.28.24-2.34l-2.29-1.63c-.41-.29-.74-1.36-.46-1.72.24-.3,1.13-.26,1.52-.08l2.63,1.28,1.08-6.86c.44,2.11,5.92,5.66,7.95,6.3,1.81.56,3.06-1.27,3.3-2.49.28-1.43-.46-2.98-1.5-3.73l-1.14,1.48c-.14.18-.1.78-.08,1.03-.42-.03-1.27-.23-1.36.11-.08.29.05,1.26-.21,1.36l-1.83.69.3-2.02.92-.14c.26-.04.23-1.13.45-1.28l2.58-1.74-2.83-2.3c-.9-.73-1.86,1.34-3.48.81-.35-.12-.6-1.17-.32-1.43l1.14-1.06c-1.35-1.58-3.51-2.4-5.81-2.74,3.41-.71,6.09-2.35,7.41-4.96,1.48-2.91,1.46-5.93-.38-8.79l-1.96,1.28c-.41-.28-1.25-1.26-.97-1.61l1.21-1.51c-1.77-2.67-5.67-3.3-8.88-2.37-2.86.83-5.26,3.37-5.92,6.53-.78,3.74.49,6.84,2.94,9.57-2.85-1.42-7.46-.18-9.62.34l.95,1.84c.17.34-.71,1.23-1.05,1.05-2.33-1.2-1.53-1.7-2.98-2.11-.55-.15-1.87.37-2.33.71-1.36.98-1.98,2.49-1.55,3.84ZM26.44,14l.55-.53c.18-.18.74-.53.67-.72l-.32-.88-.23-.66c-.06-.18.33-.64.48-.52.15.12.45.41.62.6l.73.8c.31.34,1.9-1.04,1.96-.42.02.2-.04.75-.17.9-.17.18-.9.5-.87.72l.23,1.54c.02.11-.43.59-.51.49l-.43-.51-.59-.7c-.15-.18-.64.18-.96.3l-.77.28c-.16.06-.52-.57-.39-.69ZM20,9.6l-.32-.77c-.08-.18.46-.65.6-.51l.62.61c.16.15.41.9.6.82l.91-.38.65-.27c.19-.08.59.29.5.47-.09.18-.38.58-.54.72l-.75.63c-.16.14,1.06,2.66.27,2.09l-.8-.59c-.56-.41-1.14-.62-1.76-.47-4.39,1.1.73-.65,0-2.36ZM18.75,16.42c-.17-.42-.04-1.12.3-1.19,2.07-.45.07,1.15,2.85.96l.93,1.16c.2.25.95-.62,1.19-.41l.87.75c.19.17.91-.58,1.11-.47l1.15.65,1.14-.52c.16-.07.73.59.9.58.24-.02-.45.69-.69.75l-2.49.67-.99-.67c-.31-.21-1.11.35-1.48.54l-.81-1.12c-.2-.27-1.07.03-1.51.13l-1.11-1.39c-.74-.08-1.23-.11-1.35-.4ZM16.4,29.76c.41-.03.23-1.44.12-1.89.57.09,1.56.23,1.97-.05.48-.33.42-1.18.23-2l1.57.54,1.92-.78.08-1.06,2.39,1.04c-.61.22-1.21,1.18-1.28,1.95-.38-.24-1.17-.7-1.63-.77-.53-.07-.94,1.3-1.01,2.04l-1.02-.64c-.24-.15-1.1.06-1.08.34l.13,1.77-.91-.36c-.27-.11-1.05.15-.97.42l.47,1.47-1.24-.1c-.28-.02-.85.7-.69.94l.74,1.13-1.6.2c-.33.04.21,1.18.34,1.5-.38.38-1.82-.21-1.91-.76l.79-1.26c.17-.27-.37-1.01-.53-1.43l1.63-.21c.38-.05-.06-1.41-.18-1.92l1.69-.11Z"/>
      <path class="cls-1" d="M24.26,50.17l-1.16-.7c-.25-.15-.62.91-.77,1.16l-1.31-.75c-.32-.18-.79,1.08-.94,1.28-.44-.51-1.73-1.26-1.82-.75-.4,2.37,1.23,3.71,2.71,4.1,1.45.38,3.44.15,4.29-1.34.68-1.2.72-2.53.55-4.19l-1.55,1.2Z"/>
      <path class="cls-1" d="M5.37,50.19c1.83,1,4.22.39,5.25-1.98-.45-.2-1.41-.44-2.02-.57-.15-.2-.53-1.04-.82-1.06-.23-.02-.74-.05-.88-.07-.14-.61-.26-1.43-.53-1.38l-1.23.23.04-1.16c0-.23-.61-.74-.76-.56-.15.18-.46.6-.61.83-1.4,2.25-.59,4.54,1.54,5.71Z"/>
      <path class="cls-1" d="M30.83,8.97c3.03-1.84,3.8-4.63,6.4-4.64,1.09,0,2.39-1.29,2.16-2.43-.29-1.48-1.54-2.17-2.85-1.8-1.34.37-1.49,2.06-1.32,3.33-1.27,2.01-4.02,3.11-4.39,5.55Z"/>
      <path class="cls-1" d="M39.46,19.56c0,1.19.96,2.15,2.15,2.15s2.15-.96,2.15-2.15-.96-2.15-2.15-2.15-2.15.96-2.15,2.15Z"/>
      <path class="cls-1" d="M3.08,19.01c1.18,0,2.13-.95,2.13-2.13s-.95-2.13-2.13-2.13-2.13.95-2.13,2.13.95,2.13,2.13,2.13Z"/>
      <path class="cls-1" d="M2.13,36.02c1.18,0,2.13-.95,2.13-2.13s-.95-2.13-2.13-2.13-2.13.95-2.13,2.13.95,2.13,2.13,2.13Z"/>
      <circle class="cls-1" cx="9.13" cy="10.5" r="2.15"/>
      <path class="cls-1" d="M34.7,42.87c.41-.94.14-2.43-.54-2.85-.89-.54-2.18-.19-2.93.35-2.52-1.58-5.19-3.59-8.45-4.59,2.03,1.88,4.29,3.07,6.6,4.46l1.53.55c-.31,1.73.3,2.75,1.24,2.99.99.26,2.23-.18,2.55-.91Z"/>
      <path class="cls-1" d="M38.51,21.11c-2.73,2.01-5.12,3.54-7.5,5.73,3.63-.99,5.57-3.19,8.7-5.28-.35-.28-.93-.49-1.2-.45Z"/>
      <path class="cls-1" d="M10.12,13.04c-.3,1.26,2.05,5.88,2.93,6.14.36-.6-2.53-7.81-2.93-6.14Z"/>
      <rect class="cls-1" x="6.7" y="17.9" width="1.02" height="5.76" transform="translate(-12.94 11.97) rotate(-47.27)"/>
      <path class="cls-1" d="M4.56,33.83c1.6.5,3.02.51,4.86-.32.69-.77-5.31-.34-4.86.32Z"/>
    </g>
  </g>
</svg>