<?xml version="1.0" encoding="UTF-8"?>
<svg id="Warstwa_2" data-name="Warstwa 2" xmlns="http://www.w3.org/2000/svg" viewBox="0 0 41.49 48.74">
  <defs>
    <style>
      .cls-1 {
        fill: #fff;
      }
    </style>
  </defs>
  <g id="game-icon-v3-dark-magic-pixarts-store">
    <g id="game-icon-v3-dark-magic-pixarts-store_71">
      <path class="cls-1" d="M39.36,43.24l1.86-4.81-2.23,1.66-.16-1.75c-.53.91-.84,1.5-1.83,2.85l-.31-13.17c-1.26.73-1.55,1.5-2.19,2.71-.88.28-2.55.61-3.49.72,1.02-.57,2.39-1.16,2.93-1.82.27-1.61,1.27-3.07,2.86-3.89l.05-10.75c.03-5.45-2.75-10.51-7.36-13.05l-2.61,3.06-4.24.22c-.75.08-1.65,1.93-1.85,2.6l2.21,3.93c-1.75-.32-2.5-1.84-3.38-3.27-.48-.2-2.55.16-2.77.82-.27.89-.37,2.04-.56,3.23l-.74-3.45-2.02-.33-1.73-2.18c-1.47,2.52-2.26,4.95-2.26,7.81l.04,18.98,4.57-.84c-1.11.73-1.62,1.08-2.33,1.47l-2.26,1.25.04,6.22,5.48-.03,1.73-4.06.09,4.09,14.6-.02v-4.35s1.63,4.39,1.63,4.39c1.53.07,3.19.41,4.33,1.31l-19.35-.19.52,3-2.56-3.02h-6.49c-1.09,0-2.25,1.02-2.25,2.16v3.97s12.5,0,12.5,0l1.17-2.4.83,2.42,19.66-.03v-3.96s-2.13-1.49-2.13-1.49ZM19.38,25.86c-1.15.13-1.72-3.38-3.43-3.93l-.42,3.73c-.12.38-1.76.22-1.76-.27v-8.74c2.42-.29,6.46-.37,6.39,2.45-.03,1.04-.54,1.88-1.6,2.73l2.36,3.85-1.54.17ZM22.35,25.9l-.02-9.38h2.03s.02,9.37.02,9.37h-2.03ZM28.41,25.75l-1.79.02-.04-9.15c1.68-.11,3.37-.17,4.94.29,1.31.39,1.6,2.18,1.41,3.3-.43,2.54-3.35,2.15-4.23,2.56-.42.2.07,2.97-.29,2.97Z"/>
      <path class="cls-1" d="M8.37,33.12l.02-17.99c0-3.07.65-5.64,1.89-8.49l-2.1-1.21c-2.56,2.86-3.48,6.34-3.49,10.07l-.03,14.5c.89,1.29,2.3,2.42,3.72,3.12Z"/>
      <path class="cls-1" d="M6.12,43.06c-.93-.02-1.25-.04-1.97-.14l4.22-1.62-.02-6.24-2.19-2.27c-.25-.26-1.46-.03-1.47.34l-.12,8.51c-1.68-1.61-2.59-2.72-4.57-3.75l2.74,5.72-2.53.91.13,4.19,5.92-.02-.14-5.63Z"/>
      <path class="cls-1" d="M12.93,5.37l1.28,2.29c2.89.95,6.05-.63,7.3-3.73l4.86-.2,1.64-2.58c-6.25-2.77-11.3-.22-15.08,4.22Z"/>
      <path class="cls-1" d="M17.3.27c-3.55.27-6.4,2.13-8.7,4.65,2.59,2.69,4.3-2.72,8.7-4.65Z"/>
      <path class="cls-1" d="M15.77,18.24l-.05,2.33c.9.3,2.48-.04,2.45-1.3-.03-.98-1.5-1.4-2.4-1.03Z"/>
      <path class="cls-1" d="M28.77,18.32c-.36.58-.19,2.03.1,2.87,1.38-.51,2.09-.87,2.1-1.33.02-.5-.14-1.14-.41-1.42-.27-.27-1.6-.44-1.8-.12Z"/>
    </g>
  </g>
</svg>