<?xml version="1.0" encoding="UTF-8"?>
<svg id="Warstwa_2" data-name="Warstwa 2" xmlns="http://www.w3.org/2000/svg" viewBox="0 0 50.47 44.47">
  <defs>
    <style>
      .cls-1 {
        fill: #fff;
      }
    </style>
  </defs>
  <g id="game-icon-v3-dark-magic-pixarts-store">
    <g id="game-icon-v3-dark-magic-pixarts-store_88">
      <path class="cls-1" d="M50.47,40.46c-.02-.21-.26-.89-.45-.97l-3.02-1.28c-.44-.19-.94,1.71-.48,1.84l2.93.86c.27.08,1.04-.18,1.01-.46Z"/>
      <g>
        <path class="cls-1" d="M12.52.1c.44,4.73.46,9.19.17,13.98-.18,2.93.4,5.56,1.28,8.27l.81,2.52,4.05-.35c.9-.41,1.36-2.77,1-3.78-2.63-7.32-1.46-12.91-1.34-20.74l-5.98.1Z"/>
        <path class="cls-1" d="M.48,39.01c1.02,2.25,3.75,3.24,5.96,2.61,3.65-4.01,7.77-1.65,8.37-3.6.03-1.8.23-3.93.45-5.58-1.43-1.6-2.73,1.66-4.5,1.2-2.19-.57-3.2-3.8-6.13-1.39l-3.14.32c-1.44,1.64-1.96,4.36-1.02,6.43Z"/>
        <path class="cls-1" d="M10.75.21l-3.3.11,1.07,16.04c.16,2.32-.27,4.42-.83,6.78-.34,1.45.6,4.9,2.49,4.94,2.94.06,3.5-3.46,2.8-5.36-.8-2.18-1.45-4.31-1.55-6.56L10.75.21Z"/>
        <path class="cls-1" d="M10.86,32.47c2.05-.22,1.68-2.91,5.65-1.15l2.23-4.48c-.88-.99-3.62-1.56-4.67-.13-.9,1.23-1.68,2.61-3.37,2.85-1.12.16-2.05-.7-3.07-1.65-.49.48-1.18,1.67-1.27,2.22,1.79.59,3.16,1.31,4.5,2.35Z"/>
        <path class="cls-1" d="M31.25,43.9c.78-.98,1.18-1.6,1.62-2.53l-10.05-4.52c-1.22,1.25-1.87,2.02-2.85,3.52,4.01,1.25,7.12-.8,11.28,3.54Z"/>
        <path class="cls-1" d="M19.38,38.81l3-3.04-1.45-2.17c-.41-.62-1.59-1.28-2.25-1.32-.69-.04-2.16.57-2.35,1.28-.42,1.59-.43,3.65.12,5.02.33.64,2.43.72,2.94.22Z"/>
        <path class="cls-1" d="M35.69,40.2c-.1-.35-.62-.98-1-1.18l-8.47-4.43c-.41-.21-1.48-.31-1.88-.12-.4.2-.84,1.03-.95,1.57l5.53,2.27c1.77.73,3.24,1.62,5.08,2.88.38.26,1.81-.56,1.69-.99Z"/>
        <path class="cls-1" d="M26.1,33.65c3.79,2.28,6.86,3.06,11.11,5.99l1.02-1.68c-3.72-1.7-7.16-3.6-10.3-5.78-.39-.27-1.38-.25-1.66-.01-.28.23-.51,1.28-.18,1.48Z"/>
        <path class="cls-1" d="M38.9,34.85c-3.83-.64-6.83-1.98-9.65-4.17-.26-.2-.96-.31-1.12-.05-.9,1.45,9.19,6.15,10.79,6.48.35-.59.48-2-.01-2.26Z"/>
        <path class="cls-1" d="M20.34,27.07c-1.06.5-2.05,2.65-2.1,3.7-.02.39,1.3.89,1.6.65.26-.2.63-.53,1.11-.97l2.41-2.22c-.8-1-1.93-1.67-3.02-1.16Z"/>
        <path class="cls-1" d="M23.81,33.8c.76-.28,1.94-1.24,1.34-2.17-.32-.5-1.39-1.25-1.88-1.43-.39-.14-1.32.27-1.62.57-.3.3-.52,1.33-.3,1.7.55.92,1.73,1.61,2.47,1.34Z"/>
        <path class="cls-1" d="M45.48,37.79l-4.94-2c-.44.27-.42,1.87.13,2.07l4.56,1.65c.39-.03.73-1.52.26-1.72Z"/>
        <path class="cls-1" d="M44,40.22l-4.14-1.69c-.43-.18-1.25.45-1.42,1.02-.11.38.65.67,1.25.87l3.78,1.23c.44.14.94-1.26.53-1.43Z"/>
        <path class="cls-1" d="M41.55,42.03l-3.84-1.51c-.26-.1-1.12-.09-1.21.17l-.38,1.07,4.62,1.54c.36.12.98-1.04.82-1.26Z"/>
        <path class="cls-1" d="M36.76,44.41c.21-.04.49-.99.32-1.09-.69-.34-2.14-.98-2.98-1.27-.44-.15-1.15,1.2-1.22,1.72l2.92.67c.23.05.75.01.96-.03Z"/>
        <path class="cls-1" d="M27.35,29.7c-.58-.65-2.26-1.54-3.06-1.44-.34.04-.66,1.25-.37,1.45l1.31.87c.34.22,1.22.44,1.62.46.33.02.73-1.08.5-1.34Z"/>
      </g>
      <path class="cls-1" d="M45.19,40.94c-.39-.04-.91,1.26-.57,1.41.77.33,2.3.69,3.25.8-.29-1.41-1.81-2.11-2.68-2.21Z"/>
    </g>
  </g>
</svg>