<?xml version="1.0" encoding="UTF-8"?>
<svg id="Warstwa_2" data-name="Warstwa 2" xmlns="http://www.w3.org/2000/svg" viewBox="0 0 48.67 48.73">
  <defs>
    <style>
      .cls-1 {
        fill: #fff;
      }
    </style>
  </defs>
  <g id="game-icon-v3-dark-magic-pixarts-store">
    <g id="game-icon-v3-dark-magic-pixarts-store_117">
      <path class="cls-1" d="M29.37,5.28h2.16c-.56-.55-1.2-1.04-1.94-1.29l-4.67-1.55c-2.16-.72-4.85.02-6.6,1.35-.24.18-.67.81-.94.96-3.15,1.69-2.57,4.66-3.74,6.27l-3.1,4.25c-.69-1.71,2.15-3.96,2.3-6.15l-2.22,1.08c.6-1.11,1.43-1.94,2.18-2.95l1.97-2.62c-5.58,2.56-5.99,5.67-8.54,8-4.24,3.88-1.54,7.31-1.55,9.87,0,2.04.34,4.15,2.35,4.9-.53-1.97-1.18-3.3-.65-4.97l2.8,7.24,1.26-3.48c.28-.78,1.05-1.67,1.8-2.09l4.44-2.5,1.8,1.42c-1-2.44-3.2-3.67-1.93-6.63,2.23-5.23.69-5.66,4.96-9.28,2.06-1.74,4.23-.62,5.62,1.18,1.07,1.38,2.03,2.46,2.29,4.29.48,3.34,3.18,5,.94,7.85-.66.84-1.2,1.68-1.58,2.65l1.81-1.47c5.69,2.97,5.62,2.31,7.58,8.47l1.29-1.92c-.03,1.61-.88,2.67-1.59,3.86-1.13,1.89-2.61,2.89-4.85,3.35l-2.52,1.99c1.37.25,2.21-.99,3.31-1.17,3.75-.63,6.85-2.78,8.39-6.37,2.02-4.71-.39-5.01-1.14-8.98-.87-1.61-6.48-.19-6.4-2.8.04-1.52,3.34-1.91,5.02-1.83-.56-1.03-1.8-1.59-3.03-1.14-2.05.75-4.15-.71-3.75-1.35.11-.18.4-.46.62-.61l2.5-1.67c-1.6-.11-2.73.08-3.87-1.16l2.63-2c-2.14-1.92-3.19-1.5-5.39-3.02Z"/>
      <path class="cls-1" d="M21.31,48.16c-1.68-2.45-3.02-.94-4.42-3.88,1.21.96,1.92,1.44,3.03,2,1.29.65,2.59,1.69,3.88,2.43.68.12,2.07-.29,2.71-.53-1.68-1-3.02-1.88-4.5-3.03l-1.54-.57-2.72-2.51c.85.14,1.44.66,2.01,1.31.59.68,1.44.82,2.26,1.25l4.62,2.43c.88.46,3.12.43,4.13.01,1.13-.47,1.88-1.54,2.71-2.22-1.33-.62-4.23.84-5.83-.08-1.61-.92-2.89-1.73-4.47-2.79,1.95-.28,3.46.59,5.42,1.01,3.34-.68,3.77-.08,5.75-3.2-2.3-.22-3.09,1.12-6.02.4-2.3-.56-9.25-4.13-7.89-5.34,3.25-2.92,3.76-.63,5.09-1.02l2.16-.63c-.76-.61-1.59-1.02-2.54-1.48l-2.07-1-4.67.91c-1.28.25-5.56,3.99-8.71,1.04l1.89.15c-3.66-2.35-5.07-2.3-7.75-6.03-2.04-2.85-1.35-7.75-1.19-10.99-1.89,3.12-3.88,9.86-1.7,12.76l3.32,4.42c-1.88.25-2.91-1.06-4.02-2.58.31,4.37,3.5,3.09,6.79,8.34l1.06,1.7c-2.1-.04-2.82-1.52-3.84-3.05-.17.99.29,1.94.93,2.64,3.06,3.31,5.49,1.2,12.91,7.41.94.79,1.91,1.38,3.19.74Z"/>
      <path class="cls-1" d="M47.31,32.57c-.52,1.04-2.05,1.75-3.12,1.87.39-1.21,1.53-1.78,2.05-2.77,2.85-5.42,3.29-8.76.57-14.07-2.23-4.36-1.88-4.88-6.32-8.51-.89-.73-3.05-.79-4.13-.84l-2.81,1.9c1.56,1.13,3.83-.98,6.02.83,1.37,1.13,2.48,2,3.89,3.01.35.25.71.74.82,1.06l-4.37-2.54c-.73-.42-2.55-.92-3.22-.44l-2.61,1.86c3.12,1.44,2.33-2.03,6.68,1.64l2.08,1.75-3.35-.04c-1.44-.02-2.74.09-4.03.83,1.77,1.3,4.34.03,6.66,1.74l.72,3.11c.29,1.25,2.73,2.08,2.47,3.68l-1-.45c-.11,3.06-1.73,5.07-3.31,7.32-.71,1.01-1.21,1.97-2.46,2.57l-2.64,1.27c1.34.22,2.17-.28,3.53-.69-.39,1.73-1.68,2.78-2.87,4.03,2.92-1.06,4.55-2.81,7.72-4.07-.19,3.98-4.69,4.03-6.48,6.88l3.15-1.59c2.86-1.44,6.06-3.57,6.56-7.01.59-4.06,1.21-2.53,1.19-5.08l-1.36,2.72Z"/>
      <path class="cls-1" d="M14.35,2.05l2.3-2.05c-3.2.45-1.95,2.1-5.24,2.61-2.48.39-4.69,1.86-5.42,4.29-1.07,3.56-2.57,2.45-3.17,5.46l3.96-2.91c2.18-7.44,4.94-5.06,7.57-7.4Z"/>
      <path class="cls-1" d="M37.48,6.65l1.47.93c1.7.29,2.65,1.23,3.89,2.52l-1.26-3.25c-4.01-1.87-3-2.67-7.48-.67.97.94,2.22.64,3.39.46Z"/>
      <path class="cls-1" d="M14.51,46.56c-2.13-1.25-3.29-.12-5.16-1.73-1.1-.95-2.22-1.49-3.62-1.52,1.54.98,2.5,1.53,3.44,2.46,1.45,1.43,3.45,1.85,5.34.79Z"/>
      <path class="cls-1" d="M26.4,1.27l7.43,2.38c-2.4-2.35-4.45-3.82-7.43-2.38Z"/>
      <path class="cls-1" d="M44.61,10.13l1.05,2.71c.49,1.26.86,2.46,1.52,3.44.63-2.76-.66-4.68-2.57-6.15Z"/>
      <path class="cls-1" d="M22.55,17.53c-1-.96-1.9-1.49-3.06-1.82.29,1.5,1.58,2.84,3.06,1.82Z"/>
      <path class="cls-1" d="M27.67,16.41c.05-.1.04-.53.02-.76-1.13.59-2.06,1.19-2.82,1.95,1.32.95,2.39-.34,2.79-1.19Z"/>
    </g>
  </g>
</svg>