<?xml version="1.0" encoding="UTF-8"?>
<svg id="Warstwa_2" data-name="Warstwa 2" xmlns="http://www.w3.org/2000/svg" viewBox="0 0 34.72 51.84">
  <defs>
    <style>
      .cls-1 {
        fill: #fff;
      }
    </style>
  </defs>
  <g id="game-icon-v3-dark-magic-pixarts-store">
    <g id="game-icon-v3-dark-magic-pixarts-store_48">
      <path class="cls-1" d="M17.43,11.51l-7.9,6.15.6,6.86.71,11.17,13.08.04.72-11.02c.15-2.28.66-5.14.4-7.33l-7.62-5.86Z"/>
      <path class="cls-1" d="M29.12,8.17c.14,1.75-.04,4.05-.89,5.35-.24.36-1.83.59-1.87.19l-.18-1.67-2.21.62c1.11-2.98,1.74-4.85.12-7.1-.1,2.27-.66,3.96-1.81,5.38l-2.27-1.31c.64-.81,1.46-1.61,1.3-2.12l-.49-1.56c-.59,1.02-1.24,1.89-1.74,2.01-.13-1.12-.14-2.33-.32-2.9l-1.53-5.04-1.11,4.98c-.19.84-.22,1.86-.39,3.15-.78-.45-1.18-1.08-1.93-2.34-.07.1-.46,1.56-.22,1.99.24.42.72.94,1.2,1.55.22.37-1.46,1.35-2.02,1.1-1.24-.56-2.03-2.91-2.02-4.65-2.63,2.05,1.41,7.81-.19,6.9l-.9-.51-.9-.5c-.16-.09,0,2.25-.94,2.23-2.54-.06-1.89-3.33-2.37-5.21-1.22,1.39-1.85,4.04-1.59,5.9l3.5,1.61-2.58.14c.94,3.84,1.67,7.84,2.13,11.94.08.71,1.48,1.4,2.58,1.78l-.34-5.95-.52-6.79c2.5-2.41,5.13-4.27,8.07-6.18.22-.19.61-1.03.79-.83,1.73,1.94,5.9,4.15,8.38,6.65.3,1.83.07,4.3-.08,6.08l-.62,7.17,2.88-1.55c.19-4.47.87-8.46,1.96-12.34l-2.13-.06c1.26-.79,1.8-.91,3.36-1.32.05-2.18-1.01-4.81-2.11-6.77Z"/>
      <path class="cls-1" d="M7.69,48.79c.05.41,1.47.3,1.54-.11l.34-1.97,1.13,2.27c.38.11,1.8-.16,2.02-.65l.74-1.66.11,2.48,7.27-.05c.3,0,.98-.93,1.13-1.22-.01-.01-.03-.02-.04-.03.08-.08.08-.05.04.03.64.58,1.46,1.15,2.01,1.37l.8-2.67c.59,1.47.84,2.31,2.27,2.77l.11-7.97-19.41.02c-.25,1.94-.28,5.57-.06,7.4Z"/>
      <path class="cls-1" d="M21.92,47.85s.03.02.04.03c.05-.09.04-.11-.04-.03Z"/>
      <path class="cls-1" d="M2.74,32.26c-1.37-.36-2.65.84-2.73,2.26-.07,1.18,1.36,2.73,2.42,2.25l.03-1.36c0-.25.8-.33,1-.18,1.75,1.25-.76,1.69-.68,4.62.13,4.5-.59,7.94-2.33,11.9l6.19.03-.24-15.42c-.03-2.21-1.53-3.55-3.65-4.11Z"/>
      <path class="cls-1" d="M33.59,32.42c-2.69-.76-5.16,1.48-5.19,4.29l-.15,15.13,6.05-.2c-2.15-4.39-2.27-9.08-2.38-13.73-.51-.32-1.7-1.27-1.35-1.62l1.38-1.41.8,2.56c.92-.76,1.7-1.66,1.92-2.49.17-.64-.46-2.35-1.1-2.53Z"/>
      <path class="cls-1" d="M10.42,36.87c-1.01.22-2.22,2.41-2.44,3.53l18.79-.04c-.41-1.48-1.56-3.44-2.59-3.5-4.85-.27-8.97-.3-13.75.02Z"/>
      <path class="cls-1" d="M26.32,31.02l1.79,2.41-2.25-1.61c-1.29,2.07-.86,5.01,1.48,6.19l.59-4.32c1.19-.9,2.98-1.75,4.52-2.17-1.56-1.25-4.46-2.28-6.12-.49Z"/>
      <path class="cls-1" d="M7.66,38.09c2.48-1.77,2.79-5.91-.03-7.76-1.26-.83-3.88.26-4.84.77,1.54.86,2.73,1.62,3.71,2.43l2.22-1.53c-1.83,1.68-2.15,3.72-1.06,6.1Z"/>
    </g>
  </g>
</svg>