<?xml version="1.0" encoding="UTF-8"?>
<svg id="Warstwa_2" data-name="Warstwa 2" xmlns="http://www.w3.org/2000/svg" viewBox="0 0 44.75 53.63">
  <defs>
    <style>
      .cls-1 {
        fill: #fff;
      }
    </style>
  </defs>
  <g id="game-icon-v3-dark-magic-pixarts-store">
    <g id="game-icon-v3-dark-magic-pixarts-store_89">
      <path class="cls-1" d="M39.65,31.85l-3.77-5.59c-2.84.55-4.68.91-7.71.78l5.52-3.28c-.49-1.71-2.3-2.26-4.56-2.73,3.5-.72,6.54-1.42,8.82-4.21,4.21-5.16,2.76-12.54-2.96-15.63-5.48-2.96-12.66-.11-14.42,6.06-1.09,3.8-.09,7.21,2.22,10.41-2.2-1.23-4.36-1.35-6.6-.75l4.65,7.66.6-.42c.11-.08.34.02.33.15l-.1.92c-.05.47-.46,1.58-.89,1.72-.56.19-1.66-.18-1.33-.89-.79-1.11-1.8-2.13-2.81-3.09-2.65,2.26-3.47,5.46-4.35,8.2-3.42,1.98-7.03,3.77-10.19,6.29,3.49,1.7,5.1,3.97,5.59,7.47,2.49-1.85,5.69-4.68,7.46-6.61.42-.46-.19-1.72-.4-2.35l3.31,1.5c-1.75,3.09-2.75,6.7-3.22,10.28,3.51-.69,6.09-.3,8.91,1.78,1.03-3.84,1.26-8.2,1.69-11.96,2.64-2.4,4.04-4.74,3.03-8.95l4.22,7.14c1.72-2.74,3.66-3.75,6.99-3.89ZM34.28,7.19c1.7,0,3.08,1.38,3.08,3.08s-1.38,3.08-3.08,3.08-3.08-1.38-3.08-3.08,1.38-3.08,3.08-3.08ZM24.01,7.25l.9-.59c.51-.33-.33-.62.12-2.39.06-.24.83.26.95.48l.58,1.06c.11.2.78-.22,1.04-.27l.96-.2c.19-.04.43.53.31.67-.12.15-.44.47-.6.57l-.93.58c-.34.22.83,2.64-.06,2.36-2.09-.64-.24-1.6-2.49-1.45-.64.04-.98.07-1.22.11-.24.04.24-.8.45-.94ZM26.61,15.05c-.14-.2-.81.13-.99.16-.57-.56-1.02-.91-1.75-1.23l-1.34-1.82,2.19-.36.51,1.31c.11.29.78-.15,1.18-.3l.28,1.09c.07.27.66-.2,1.04-.42l.69,1.02c.16.24.99-.13,1.28-.13.26,0,.5,1.03.74.94l1.07-.44,1.27,1.49-1.42.74c-.91-.23-1.66-.26-2.11-.43l-2.02-.75-.62-.9Z"/>
      <path class="cls-1" d="M9.65,8.68c.63-1.93-.52-3.35-2.19-3.51-1.49-.15-2.61,1.19-2.77,2.62-.21,1.89,1.82,1.73,2.74,2.78l11.77,13.37-9.56-15.26Z"/>
      <path class="cls-1" d="M16.17,22.07l-4.23-4.69c-1.27.12-3.06.45-4.34.71,1.82,2.52,1.96,4.73,1.25,7.57,3.15,0,5.83-.66,7.33-3.59Z"/>
      <path class="cls-1" d="M22.79,50.39c-2.25-1.5-7.06-2.92-8.1-1.35-.21.32-.18,1.45,0,1.85,1.23,2.59,4.81,3.65,7.47,1.87.57-.38,1.13-2.02.62-2.36Z"/>
      <path class="cls-1" d="M1.55,38.5c-2.23,1.13-1.8,4.12-.33,5.73,1.25,1.37,4.1,2.79,5.58.69-.68-2.6-3.04-5.45-5.25-6.42Z"/>
      <path class="cls-1" d="M39.75,33.46c-1.86-1.18-5.84,1.4-6.15,3.25.16,2.27,3.39,2.29,4.73,1.69,1.57-.71,3.3-3.75,1.42-4.94Z"/>
      <path class="cls-1" d="M43.13,20.06c-1.83-.85-2.04,1.33-3.09,1.84l-7.59,3.71c3.2-.2,5.88-1.42,8.49-1.28,1.51.08,2.98.52,3.57-.88.69-1.65-.21-2.85-1.38-3.4Z"/>
      <path class="cls-1" d="M6.52,18.6l-.75.35c-1.77.83-2.13,2.87-1.56,4.67.43,1.36,1.91,2.27,4.22,2.06.08-.61-.66-7.67-1.91-7.09Z"/>
    </g>
  </g>
</svg>