<?xml version="1.0" encoding="UTF-8"?>
<svg id="Warstwa_2" data-name="Warstwa 2" xmlns="http://www.w3.org/2000/svg" viewBox="0 0 42.31 56.01">
  <defs>
    <style>
      .cls-1 {
        fill: #fff;
      }
    </style>
  </defs>
  <g id="game-icon-v3-dark-magic-pixarts-store">
    <g id="game-icon-v3-dark-magic-pixarts-store_44">
      <path class="cls-1" d="M9.29,43.56l-1.03-1.72c-.21-.36.35-1.43.68-1.73l10.23-9.3.13,15.07-3.02-2.9,4.77,13.04,4.44-12.55-2.84,2.08.15-14.91,10.36,9.46c.34.31.9,1.41.68,1.76l-1.07,1.71,9.55.19-18.8-17.1,12.56-11.75c1.81-1.7,3.72-2.93,5.88-4.54l-9.66.03.8,1.9c.15.36-.48,1.32-.81,1.62l-9.5,8.69-.15-11.51,2.29,1.39L21,0l-3.7,12,2.05-1.13-.08,11.92-9.49-8.97c-.32-.3-.81-1.46-.62-1.86l.72-1.49L.11,10.34c1.95,1.41,3.65,2.47,5.25,3.96l13.25,12.36L0,43.79l9.29-.24Z"/>
      <path class="cls-1" d="M36.62,23.74c.8-.26.96-2.69.57-2.94-2.17,2.58-5.61,1.4-6.56,4.26-.42,1.27-.08,3.86.97,4.31l5.38,2.29c.02-2.08-1.64-2.4-2.78-3-.82-.43-1.03-2.54-.6-3.39.35-.69,1.92-1.17,3.03-1.52Z"/>
      <path class="cls-1" d="M8.64,22.53c0-.61-.76-1.74-1.21-1.88-.45-.14-1.65,1.33-1.64,1.86l.08,11.27c.9-.91,2.36-2.69,2.77-3.72v-7.54Z"/>
    </g>
  </g>
</svg>