<?xml version="1.0" encoding="UTF-8"?>
<svg id="Warstwa_2" data-name="Warstwa 2" xmlns="http://www.w3.org/2000/svg" viewBox="0 0 52.14 51.04">
  <defs>
    <style>
      .cls-1 {
        fill: #fff;
      }
    </style>
  </defs>
  <g id="game-icon-v3-dark-magic-pixarts-store">
    <g id="game-icon-v3-dark-magic-pixarts-store_84">
      <path class="cls-1" d="M12.66,40.2l4.27-.72-4.26,2.43c2.67-.4,4.73-.79,7.08-1.27,8.24-1.68,8.73-8.62,11.42-11.09,1.57-1.44,2.92-2.64,4.14-4.35.26-.37,1.25-1.25,1.68-1.14l1.47.37c-.25-.55-.76-1.27-1.16-1.39-.41-.12-1.44.03-1.83.27l-2.61,1.63c.26-2.74.25-4.42-.51-6.93-.68-2.25,4.77-1.93,3.22-5.76-.42-1.04-2.13-1.79-3.71-1.07-.91.09-.87.15.1.23.77.16,1.96.55,2.03,1.1.2,1.52-2.37,2.83-3.58,2.88-3.01-2.38-6.92-2.12-9.68.36-2.56,2.3-3.68,5.63-3.64,9.09.05,4.54-2.47,8.07-6.79,9.32-2.47.72-4.8,2.56-4.64,5.4,3.42-4.64,5.3-2.35,10.64-5.79-1.08,2.21-3.32,3.26-5.51,4.06-8.54,3.16-2.06,9.74-5.89,11.51,4.93-.45.89-7.97,7.77-9.13ZM29.01,20.03c.31-.19,1.18.1,1.42.37.84.92,1.33,3.22-.26,4.02-.91.36-2.86-3.36-1.16-4.39ZM25.89,23.83c3.01-.52.09,7.97-2.03,8.15-1.56.13-1.74-7.49,2.03-8.15ZM20.97,20.82c.78-1.31,2.35-2.61,3.66-1.78.42.26.52,1.43.23,1.87-.78,1.17-1.91,2.34-3.28,2.09-.61-.11-.92-1.66-.61-2.18Z"/>
      <path class="cls-1" d="M38.42,47.61c2.27-2.42,3.29-5.87,1.74-8.8-.91-1.71-2.79-2.58-4.62-2.2-4.05.83-1.91,6.64-5.55,7.58-1.54.4-3.1-.27-4.65-.89l.66,2.06c-2.97-1.31-6.39-2.93-8.87.17,6.88-1.78,5.18,3.43,13.62,4.56l-2.58.89c3.72.35,7.57-.5,10.26-3.37Z"/>
      <path class="cls-1" d="M14.71,14.67c3.65-1.89,7.52-3.19,7.47-7.14-.02-1.38-.75-3.06-2.22-3.74-1.79-.82-4.12-.28-5.79.76-4.68,2.92-7.59,9.39-5.56,14.25.13-2.13.15-4.01,1.45-5.62-.86,8.29,3.5,5.69,2.48,11.59,1.82-1.35,1.95-3.74.78-5.48-1.14-1.7-.4-3.71,1.39-4.63Z"/>
      <path class="cls-1" d="M48.44,19.43c-2.07-.11-3.95,1.63-4.23,3.9-.41,3.37-2.42,5.09-6.13,5.51l4.22.41c-2.26,2.98-9.13-.92-10.3,4.77,1.77-1.91,4-2.12,6.38-1.4,6.32,1.92,13.2-1.85,13.74-8.53.2-2.49-1.5-4.55-3.68-4.66Z"/>
      <path class="cls-1" d="M38.09,18.99c2.49-2.79,4.27-2.61,5.95-5.89,2.19-4.29,1.34-12.22-3.41-13.05-1.05-.18-2.72.24-3.43,1.2-1.58,2.12-.98,5,.63,6.93,1.33,1.58,1.6,3.06,1.77,5.52l.95-2.25c1.73,3.52-2.74,4.89-2.46,7.55Z"/>
      <path class="cls-1" d="M6.67,32.51l-.77-.93,2.56.65,3.26-1.98c-1.58-.3-3.06-.64-3.56-1.49-.51-.86-.62-2.45-.36-3.4.69-2.56-.67-4.96-2.86-5.48-2.36-.56-4.48,1.19-4.85,3.68-.63,4.24,2.2,8.61,6.3,9.77.31-.52.4-.68.29-.82Z"/>
    </g>
  </g>
</svg>