<?xml version="1.0" encoding="UTF-8"?>
<svg id="Warstwa_2" data-name="Warstwa 2" xmlns="http://www.w3.org/2000/svg" viewBox="0 0 48.34 54.38">
  <defs>
    <style>
      .cls-1 {
        fill: #fff;
      }
    </style>
  </defs>
  <g id="game-icon-v3-dark-magic-pixarts-store">
    <g id="game-icon-v3-dark-magic-pixarts-store_43">
      <path class="cls-1" d="M41.42,16.38c-1.6-2.14-1.59-4.53-2.16-7.81l-4.41,2.96,2.77-4.67c1.15-1.94,1.07-4.73-.12-6.48-2.62,8.97-4.54,4.07-9.99,8.8l1.36-3.35c-1.34-.11-3.47,1.29-4.62,1.47l-5.2-1.45,1.5,3.16c-4.9-4.39-7.39.29-10.12-9-1.75,4.04.1,7.07,2.4,10.8l-3.86-2.05-1.61,8.12-.48-1.52c-.46,1.33-1,2.74-1.82,4.02L0,27.27c1.17,3.4,2.89,6.17,5.05,8.71l.66-1.61c3.05,7.74,2.07,4.29,4.96,9.41,3.47,6.13-.21,10.73,2.63,10.62.19,0,.29-.83.28-1.03l-.8-8.02,2.54.97,1.53,4.81c1.57-1.46,2.43-2.3,3.8-2.31l6.32-.04c1.93-.01,2.75.91,4.3,2.96.79-1.57,1.42-3.28,2.05-5.19l3.44-1.87c-.17,3.02-1,5.01-.33,7.63.99-2.1.37-4.29,1.04-6.11l1.69-4.57,2.06-5.13c.15-.38.69-1.23.89-1.52.17-.25.65.34,1.24.81,2.18-2.6,3.92-5.35,4.99-8.76l-3.99-5.94c-1.07-1.59-1.97-3.42-2.93-4.71ZM7.6,33.87l-1.28-3.85-.53,3.87c-1.39-1.84-2.39-3.29-3.14-5.51-.47-1.38,1.06-3.81,1.93-4.5l.41,5.4,2.33-9.06c.33,4.89.53,8.7.28,13.64ZM39.24,29.47c-.91,7.23-.69,6.12-3.88,11.06-4.72,1.78-2.85,5.01-7.03,3l-1.88,1.07c-.45.26-1.72-.41-2.3-.56-1.27.69-3.06.68-4.08-.5l-2.07.55c-1.62.43-1.07-2.47-4.38-2.71-.84-.06-1.4-2.08-1.94-2.76-1.28-1.61-1.6-2.8-2.08-4.79-1.19-4.93-1.84-10.25,1.19-14.78,1.64-2.45,1.52-3.72,2.43-3.79l2.15-.15,1.85-2.17c.41-.48,1.95.41,2.44.57l1.95-1.24c.54-.35,1.93.74,2.57.66.49-.06,1.49-.83,1.98-.8.59.05,1.57.86,2.17,1.17.61.32,2.25-.84,2.69-.31.52.62,1.29,1.68,1.83,2.42l1.8-.27c.47-.07,1.25,1.11,1.49,1.53l1.67,3c1.46,2.63,1.83,6.59,1.43,9.79ZM44.81,30.25l-2.41,3.94-.8-3.36-1.34,3.85.38-7.18c.13-2.43-.03-4.28-.06-7.08l2.8,8.22.35-4.62c2.13,1.51,2.39,4.08,1.07,6.23Z"/>
      <path class="cls-1" d="M29.05,41.38c-.06.52.53,1.6,1.03,1.53.4-.05,1.44-.72,1.61-1.17.88-2.41-.55-5.05-1.94-6.53l-.69,6.17Z"/>
      <path class="cls-1" d="M31.54,15.29c-.14-.45-.93-1.2-1.35-1.32-.42-.12-1.28,1.02-1.27,1.51l.14,5.83c1.72-1.48,3.2-3.72,2.48-6.02Z"/>
      <path class="cls-1" d="M18.3,35.19c-1.54,1.65-2.42,4.68-1.71,6.58.2.54,1.43,1.24,1.88,1.06.45-.18.61-1.27.54-1.83l-.71-5.81Z"/>
      <path class="cls-1" d="M17.95,13.92c-2.35-.15-1.33,5.55,1.15,7.34l.19-5.78c.02-.51-.9-1.54-1.34-1.57Z"/>
      <path class="cls-1" d="M33.77,16.21c-.26.32-.79,1.18-.85,1.59l-.74,5.59c2-1.25,3.25-3.73,3.18-6.01-.01-.42-1.33-1.5-1.59-1.18Z"/>
      <path class="cls-1" d="M13.43,16.52c-1.16,2.53.38,5.61,2.58,6.88l-.59-5.75c.01-.57-1.7-1.77-1.99-1.13Z"/>
      <path class="cls-1" d="M12.96,39.36c.07.39,1.14.95,1.41.75.21-.15.61-.78.62-1.17l.1-5.37c-1.83,1.08-2.47,3.97-2.13,5.79Z"/>
      <path class="cls-1" d="M32.93,32.89l.24,5.9c.02.49.6,1.58,1.04,1.43,2.2-.79.55-5.71-1.28-7.33Z"/>
      <path class="cls-1" d="M22.08,13.23c-.48.12-1.33,1.05-1.35,1.6-.03,1.48.59,3.1,1.65,4.19l1.09-4.11c.14-.52-.91-1.79-1.39-1.68Z"/>
      <path class="cls-1" d="M25.8,19c1.34-1.29,1.83-2.93,1.48-4.68-.1-.5-1.07-1.28-1.52-1.07-.36.17-1.1,1.28-1,1.67l1.04,4.08Z"/>
      <path class="cls-1" d="M26.12,37.06l-1.33,4.39c-.2.67.62,1.99,1.27,2.04.54.04,1.75-1.31,1.54-1.96l-1.48-4.47Z"/>
      <path class="cls-1" d="M21.9,37.94c-.75,1.07-1.39,3.21-1.03,4.58.12.44,1.34,1.02,1.77.92s.92-1.44.75-1.85l-1.48-3.64Z"/>
      <path class="cls-1" d="M11.86,19.36c-2.13,1.98-.42,3.94,1.37,4.95-.46-2-.86-3.48-1.37-4.95Z"/>
    </g>
  </g>
</svg>