<?xml version="1.0" encoding="UTF-8"?>
<svg id="Warstwa_2" data-name="Warstwa 2" xmlns="http://www.w3.org/2000/svg" viewBox="0 0 35.26 47.35">
  <defs>
    <style>
      .cls-1 {
        fill: #fff;
      }
    </style>
  </defs>
  <g id="game-icon-v3-dark-magic-pixarts-store">
    <g id="game-icon-v3-dark-magic-pixarts-store_79">
      <path class="cls-1" d="M.01,32.77c-.01,2.87-.03,5.56.11,8.25.14,2.73,2.69,4.28,5.2,3.92.59-.08,1.08-.49,1.08-.94-.02-1.24-4.27.56-4.53-3.08-.09-1.28.88-3.25,2.72-3.26l21.87-.05c.72-4.32,4.89-1.8,4.39-4.02-.34-1.51,1.15-2.32,1.86-3.11l.06-6.88c-4.6-.95-4.26,1.45-6.88.59-.7-.23-1.41-1.22-2.17-1.9-.9-.81-1.85-1.59-1.87-2.67-.02-1.22,1.01-1.94,1.86-2.79.71-.71,1.26-1.59,1.9-1.9,2.23-1.08,3.32,1.52,7.18.38l-.03-7.03c-3.37-1.37-.62-4.03-3.42-4.14-1.56-.06-2.39-1.03-2.93-2.54h-15.38c-.11,1.85-.31,2.66-.82,4.13l1.47,2.08-.87,3.01c-.3-1.91-.15-3.14-1.55-4.12-2.14-1.5.69-4.42-1.06-4.91-.79-.22-2.26-.19-3.3-.08l-.25,19.98-.27,7.3-.39-5.23-.68-14.69c-1.53.44-2.83,1.32-3.27,2.36l-.04,19.47c1.1-.47,2.06-.81,3-.87L.01,32.77ZM15.66,14.39c-.07-1.82-2.64-2.34-1.51-4.53.35-.68,1.48-.81,2.44-.55,1.85.51,3.03-.98,4,.66,1.15,1.95-1.59,2.58-1.72,4.4-.27,3.8-.27,7.07,0,10.85.16,2.26,2.63,2.4,1.82,4.49-.29.77-1.37,1.14-2.25.98-2.74-.49-3.29.85-4.39-.83-.98-1.49,1.56-2.71,1.63-4.64.13-3.82.12-7.01-.01-10.83Z"/>
      <path class="cls-1" d="M35.11,16.75l-6.24-.23c-.71-.03-2.08-1.15-2.53-.73-.6.57-1.17,1.3-1.76,2.01-.39.47-1.81,1.16-1.61,1.94.17.66,1.38,1.31,1.84,1.8.53.57,1.13,1.64,1.71,1.65,2.2.02,1.84-1.87,8.69-.23.09-2.05.07-4.09-.1-6.2ZM27.41,20.94c-.81,0-1.47-.66-1.47-1.47s.66-1.47,1.47-1.47,1.47.66,1.47,1.47-.66,1.47-1.47,1.47Z"/>
      <path class="cls-1" d="M34.01,45.48c.35-.71.54-6.2-.82-5.43-.24.14-.54.7-.57.98l-.25,2.32-18.36.11c-.38,0-1.1.57-.99.88.09.25.68.55,1.06.55l12.53-.02c-1.95,0,4.76,1.59,7.4.61Z"/>
      <path class="cls-1" d="M33.11,0l-5.06.17c-.45.15-.52,1.79-.16,2.11.36.32,1.18.73,1.77.75,3,.12,1.38,2.31,3.01,3.99.3.31,1.77-.02,1.78-.57l.15-4.96c.01-.49-.98-1.51-1.5-1.49Z"/>
      <polygon class="cls-1" points="7.08 47.33 9.57 45.82 11.93 47.35 11.93 40.44 7.18 40.33 7.08 47.33"/>
      <path class="cls-1" d="M34.54,32.5c-.01-.5-1.61-.84-1.9-.47-1.25,1.63-.39,2.52-1.22,3.45-.62.7-2.56-.25-3.53,1.4-.22.38-.04,1.82.39,1.82l5.05.04c.59,0,1.36-1.23,1.35-1.72l-.13-4.52Z"/>
      <path class="cls-1" d="M3.36,7.77l.25-6.1C2.02,1.5.4,2.72.19,4.36,0,5.86.02,7.53.03,9.12l3.32-1.35Z"/>
      <path class="cls-1" d="M28.26,39.75c-3.85-.6-7.76-.65-11.69-.35l-5.99.46,11.67.19c2.12.03,4.02.42,6.01-.3Z"/>
      <path class="cls-1" d="M14.4,41.71l16.61.02c-2.46-1.13-4.91-.61-7.23-.34l-9.38.33Z"/>
    </g>
  </g>
</svg>