<?xml version="1.0" encoding="UTF-8"?>
<svg id="Warstwa_2" data-name="Warstwa 2" xmlns="http://www.w3.org/2000/svg" viewBox="0 0 43.26 43.57">
  <defs>
    <style>
      .cls-1 {
        fill: #fff;
      }
    </style>
  </defs>
  <g id="game-icon-v3-dark-magic-pixarts-store">
    <g id="game-icon-v3-dark-magic-pixarts-store_91">
      <path class="cls-1" d="M3.29,29.96c-2.38.4-3.44,2.85-3.02,4.91.42,2.04,2,3.36,4.36,3.46,2.38.1,1.08,3.62,4.43,4.93,1.31.51,2.81.37,3.99-.32,2.14-1.25,3.12-3.47,2.61-5.88-.31-1.49.15-3.14,1.22-4.31l7.98-8.69c-.5-.98-.94-1.79-1.47-2.14-.47-.3-2.16-.23-2.51.2-.62.76-1.15,2.18-1.53,3.12-.06-1.27.2-2.38.62-3.91l-2.75-.43c-2.31,2.48-4.35,4.62-6.7,6.83-3.24,3.05-8.27.05-5.21,4.15.21.29.12,1.26.45,1.39l1.53.62-2.63,1.43c1.55-2.47-1.46-3.05-1.39-5.37Z"/>
      <path class="cls-1" d="M18.34,19.64c1.52.25,2.3.42,3.39.76l2.43-.49.74-3.19,2.65-.36c-.67.56-1.86,1.05-1.92,1.68-.1,1.17-.23,2.46-.81,3.55l1.25,1.17,6.62-6.7c2.51-2.54,5.72-.13,8.93-2.64,1.71-1.34,1.97-3.46,1.22-5.35-.69-1.77-2.65-2.68-4.59-2.73-.68-.01-1.05-1.37-1.16-1.93-.45-2.35-2.72-3.67-4.91-3.35-2.04.29-3.98,2.03-4.07,4.4,1.45-.41,2.54-.11,3.23.75l2.45-1c-1.08.88-1.78,1.6-2.08,2.96l-1.57-1.94-2.24.44c.26,2.38-.53,4.11-2,5.71l-7.58,8.26Z"/>
      <path class="cls-1" d="M42.63,22.55c-.73-.94-2.67-1.48-3.84-.68-1.66,1.16-3.04,1.73-5.15,1.44l-5.12-.7-4.16,4.28,8.99,1.44c1.45.23,5.76,2.03,6.64,3.69.67.15,1.95-.58,2.28-1.17,1.12-2-1.17-3.2-.02-4.39,1.21-1.25,1.29-2.73.37-3.91Z"/>
      <path class="cls-1" d="M1.68,26.65c1.18.49,2.52.28,3.46-.54,2.41-2.08,5.22-.27,5.99-1.08l3.84-4.02-6.44-1.09c-1.04-.18-1.98-1.21-2.59-2.09-1.08-1.55-3.07-1.69-4.37-.61-1.3,1.08-1.05,2.75-.05,4.22L.06,23.73c-.34,1.31.76,2.57,1.61,2.92Z"/>
      <path class="cls-1" d="M11.19,16.14l4.62,3.86,2.9-3.11c-1.76-1.73-3.18-3.16-4.63-4.92-.17-.95-.34-2.23-.56-3.11-.34-1.39-2.06-2.01-3.12-1.71-1.32.37-2.08,1.47-1.87,3.08l-2.12.83c-1.07.42-1.22,2.19-.76,3.06,1.42,2.66,4.35,1.02,5.55,2.02Z"/>
      <path class="cls-1" d="M35.77,30.98c-1.73.28-2.66-.75-4.05-1.22-2.39-.81-4.97-1.03-7.68-1.4l5.31,5.42c1.41,1.44.36,5.43,3.16,5.9,1.17.19,2.59-.25,2.76-1.47.17-1.23.4-1.95,1.7-2.3,1.55-.42,1.99-1.98,1.63-3.16-.31-1.04-1.62-1.95-2.83-1.76Z"/>
    </g>
  </g>
</svg>