<?xml version="1.0" encoding="UTF-8"?>
<svg id="Warstwa_2" data-name="Warstwa 2" xmlns="http://www.w3.org/2000/svg" viewBox="0 0 50.22 49.7">
  <defs>
    <style>
      .cls-1 {
        fill: #fff;
      }
    </style>
  </defs>
  <g id="game-icon-v3-dark-magic-pixarts-store">
    <g id="game-icon-v3-dark-magic-pixarts-store_110">
      <path class="cls-1" d="M14.02,27.99l-1.36-4.37c2.54,2.14.23,2.55,2.85,6.36.86,1.25,1.62,2.49,2.16,3.7l-2.05-1.27.48,2.56-3.61-2.83c-2.22-1.74.6-3.63-3.33-4.44.73,1.31,1.56,3.33,2.47,4.5l5.47,4.36c1.02.81,2.13,1.4,3.33,2.15l.36-3.45c.07-.64.28-1.45.47-2.29-4.38-7.08-5.35-9.17-12.91-13.09l.08,6.52c1.68.83,3.48,1.23,5.58,1.58Z"/>
      <path class="cls-1" d="M19.84,25.98l2.92,4.58c.4-4.65.31-8.68-.1-13.26-1.73-.99-3.25-1.52-5.25-1.95l2.43,10.63Z"/>
      <path class="cls-1" d="M42.85,16.84l-1.99,5.98,2.83.65c-3.63,3.59-4.31,5.46-8.82,7.98l5.87-8.45c-2.47.18-4.47.49-6.55.16l6.36-.62,1.9-6.4c-3.5,2.44-6.13,4.71-8.99,7.59-.84.84-1.05,2.86-1.1,4.06l-.27,7.51,2.85-3.85c-.73,1.43-1.38,2.48-1.89,3.84,4.32-3.85,7.66-7.7,11.27-11.96l-1.46-6.48Z"/>
      <path class="cls-1" d="M23.25,1.47l-5.78,13.18,5.12,1.53c.85-.63,1.32-1.88,1.65-3.01l.97,1.21c.18-.47.67-1.35,1.13-1.87l2.61-2.95L23.96,0l-.23,7.65-.36,6.19c-.76-4.12.41-7.94-.13-12.37Z"/>
      <path class="cls-1" d="M10.12,2.6l-.44,1.14-.86-1.52-.3,5.02,5.39,6.18c-.25-6.4.16-7.18-3.79-10.82Z"/>
      <path class="cls-1" d="M37.99,34.6l1.55.53c-.77.15-1.8.06-2.01.44l-.88,1.57c0,.13,0-.31,0-.47v-.75s-3.83,3.59-3.83,3.59c-.26.24-.44,1.31-.14,1.3.22,0,.98-.09,1.13-.27l2.64-3.33-1.04,2.55,2.36-.77c-1.04,1.42-2.04,1.71-4.01,2.42.04.11.15.4.25.66l9.02-2.98,3.23-6.64-5.63,1.08c-.78.15-1.74.62-2.61,1.08Z"/>
      <path class="cls-1" d="M33.73,41.4s0,0,0,0c-.02-.05-.02-.06,0,0Z"/>
      <path class="cls-1" d="M4.47,35.8l-2.77-.87,5.62,5.87c1.65.45,4.01.73,5.81.95l-.32-.84c-.04-.11.06-.59-.02-.67-.84-.84-2.05-2.81-1.06-4.71l-10.5-1.79,3.23,2.06Z"/>
      <path class="cls-1" d="M28.44,34.98l-3.38,4.46c.9-1.93,1.92-3.42,3.1-5.1l-1.17-2.42c-1.39,1.64-3.45,3.21-4.04,5.18-.82,2.74.55,5.6,2.04,7.72l-1.67-6.36c.7.62,1.27,1.04,1.54,1.15,0,.86.14,2.1.37,2.76l.81-1.52c-.22,1.02-.46,1.95-.54,3.34l2.99-6.22c.47-.97.59-2.17-.06-2.99Z"/>
      <path class="cls-1" d="M6.75,31.33c.18-.83,0-1.76-.41-2.61l-1.5-3.04-4.84-1.63c2.1,5.47,1.74,4.78,6.75,7.28Z"/>
      <path class="cls-1" d="M26.75,47.82l5.43-2.7-1.74-5.15c-1.54,2.52-2.8,4.86-3.69,7.84Z"/>
      <path class="cls-1" d="M38.21,7.64l-1.49,8.11c1.79-.39,2.21-1.71,2.73-3.22l3.03-2.58.07-4.56-3.76,6.96c.49-2.94,2.51-4.62,3.24-7.54l-3.83,2.82Z"/>
      <path class="cls-1" d="M42.84,29.77c1.88-.23,2.69-.31,4.37-1.25-1.06-.26-1.53-.28-2.41-.31l1.39-1.4-.15.9c-.02.15.85.36,1.03.32,1.3-.25,3.29-1.67,3.14-3.39-4.48,1.69-5.24.2-7.37,5.14Z"/>
      <path class="cls-1" d="M31.17,21.57c2.33-1.41,3.51-3.83,2.13-6.24-2.48,1.65-1.9,3.15-2.13,6.24Z"/>
      <path class="cls-1" d="M37.43,43.05l-1.61,3.37c1.85-.06,2.87-.46,3.75-1.46l-1.77.02c2.02-.56,2.67-.4,3.32-1.73-1.15-.16-2.65-.27-3.69-.19Z"/>
      <path class="cls-1" d="M10.7,44.76c1.04.72,2.89,1.46,3.92.83l2.23-1.37-3.67-.67c-.64-.12-1.99.88-2.48,1.2Z"/>
      <path class="cls-1" d="M17.05,40.78l-.38-.73-.71,1.36c1.45.81,2.88,1.49,4.83,2.23.21-.87-.1-1.76-.54-2.04l-2.89-1.87.08.91c0,.11-.34.23-.39.14Z"/>
      <path class="cls-1" d="M19.11,48.14c1.68.72,2.56,1.06,4.42,1.56l-1.5-3.91c-1.43.44-2.18,1.11-2.93,2.35Z"/>
      <path class="cls-1" d="M24.15,28.26l-.44-3.37c-.36,2.57-.51,4.35-.45,6.74l4.38-9.08c-1.43,1.91-2.34,3.72-3.5,5.7Z"/>
      <path class="cls-1" d="M16.43,22.33c-.34-1.87-.69-3.05-1.88-4.63l-.19,1.91-.75-1.48c-.2.58-.16,1.74.23,2.06l2.59,2.13Z"/>
      <path class="cls-1" d="M28.45,11.02l-.37,4.54c-.17,2.13-.09,4.07.05,5.93.23-1.91.41-3.29.51-4.78l.37-5.56c.01-.17-.02-.63-.02-.76,0-.13-.52.49-.53.62Z"/>
      <path class="cls-1" d="M29.22,30.86c-.03.26.53.6.9.74.24-1.78.3-3.07.05-4.93l-1.75,2.24c-.12.15.14.86.27,1,.09.1.28.05.34-.06.07-.12.39-.63.35-.56l-.16,1.57Z"/>
      <path class="cls-1" d="M14.38,36.57c-.3,1.66.34,2.58,1.39,3.76.31-.31.97-1.17.85-1.46-.32-.73-1.46-1.86-2.23-2.31Z"/>
      <path class="cls-1" d="M4.15,15.17c.45,1.42.63,1.88,1.48,3.24.29-.58.48-1.56.35-2.14-.11-.47-.89-.83-1.83-1.1Z"/>
    </g>
  </g>
</svg>