<?xml version="1.0" encoding="UTF-8"?>
<svg id="Warstwa_2" data-name="Warstwa 2" xmlns="http://www.w3.org/2000/svg" viewBox="0 0 41.54 55.38">
  <defs>
    <style>
      .cls-1 {
        fill: #fff;
      }
    </style>
  </defs>
  <g id="game-icon-v3-dark-magic-pixarts-store">
    <g id="game-icon-v3-dark-magic-pixarts-store_13">
      <path class="cls-1" d="M15.88,5.4c.15,2.54-2.45,5.37-.95,6.58.47.38,1.85.3,2.55.27l.21,2.76c2.18-1.03-.37-.04,2.94.17.36.02.75.23.86.05l.38-.6c.57.24,1.28.46,1.67.28.93-.42-.1-1.3.64-2.62.29-.52,1.96.67,2.76-.44.22-.31.17-1.14.04-1.57l-1.43-4.89,1.54,2.06c.42-1.77.15-3.82-1.06-5.35-2.08-2.62-7.72-2.92-10.24-.19-1.46,1.58-1.72,3.77-1.37,5.61l1.46-2.13ZM20.98,12.85c-.33.03-1.25-.43-1.23-.76.04-.67.59-1.5,1.26-2.2.31.49.82,1.65.9,2.22.03.25-.67.72-.92.74ZM25.4,8.01c.36.38.32,1.84-.02,2.18-.85.83-2.62.43-3.54-.68-.3-.36-.09-1.68.31-1.96.72-.5,2.53-.32,3.26.46ZM21.15,6.31l-.21-1.09c-.08-.44,1.11.5,1.02.15l-.26-1.08c-.06-.27.19-.44.74-.91-.07.95-.15,1.99-.24,2.68-.06.45-1.21,1.12-1.67,1.06-.53-.07-1.35-1.05-1.42-1.47l2.02.65ZM17.84,7.23c.77-.14,1.84.48,2.05,1.07.38,1.02-.32,1.92-1.43,2.19-.64.15-1.62.21-2.02-.07s-.67-1.42-.57-1.9c.12-.56,1.14-1.12,1.98-1.28Z"/>
      <path class="cls-1" d="M16.4,53.12c0,1.12,1.05,2.14,1.82,2.25.68.1,1.96-.89,2.63-1.01.72-.13,2.12,1.27,2.89.93.63-.28,1.46-1.18,1.72-1.92.6-1.73-2.28-2.74-2.44-4.26-.83-7.66-.98-14.91-.76-22.58.03-1.14-.54-2.07-1.57-1.87-.97.18-1.42.85-1.39,1.89.15,6.9-.11,13.47-.31,20.36-.05,1.62,1.22,3.16-.7,4.84l.14-1.88c-.89.57-2.03,1.73-2.02,3.25Z"/>
      <path class="cls-1" d="M28.49,34.01c-.94,1.05-1.3,2.63-1.07,3.95l1.09-2.09c.9,1.18-2.37,4.77-1.07,5.32l1.71.72.26,1.78,2.3.38c.44.07,1.55.26,1.77-.13l.81-1.44,2.35-.65-.47-4.25.77,1.21c.62-1.83.44-3.34-.55-4.48-2.04-2.33-6.21-2.22-7.89-.33ZM34.34,38.24c.78,0,1.42.63,1.42,1.42s-.63,1.42-1.42,1.42-1.42-.63-1.42-1.42.63-1.42,1.42-1.42ZM31.36,38.97c.08.64-.77,1.43-1.91,1.38-.58-.03-1.38-.96-1.28-1.41.09-.45,1-1.08,1.6-1.09.61-.02,1.53.66,1.59,1.13Z"/>
      <path class="cls-1" d="M7.06,31.54c-2.02,1.76-1.64,4.07-1.65,6.26-.03,4.2,1.54,8.83,5.17,11.54-.51-2.48-.87-4.54-1.19-6.88l-.38-2.77,1.25,1.15.3-4.14c.18-2.46,1.47-2.25-.68-6.12-.5.73-.92,1.35-1.26,1.45-.27.08-.96-.42-.98-.71l-.07-1-1.32.47c-.18.06.59.56.81.75Z"/>
      <path class="cls-1" d="M34.55,22.74c1.31.26,2.35.69,3.03,1.6,1.01,1.34,2.38.99,3.35.27,1.39-1.03-.02-2.15-.04-3.36-.02-1.09,1.14-2.5.15-3.34-.95-.81-2.46-1.07-3.28.08-.72,1.02-1.85,1.49-3.16,1.81-.8.19-.87,2.78-.07,2.94Z"/>
      <path class="cls-1" d="M.76,24.94c2.6,2.09,3.07-2.1,6.18-2.2.62-.36.45-2.66-.28-2.99-.9-.4-2.22-1.04-2.84-1.63-1.07-1.02-2.17-.88-3.37.13-.67.56-.36,1.78.3,2.72l.43-2.09c1.36,2.59-2.79,4.14-.41,6.06Z"/>
      <path class="cls-1" d="M23.92,22.65l6.86.12.04-3.12-5.92.29c-.92.05-1.66,2.08-.98,2.7Z"/>
      <path class="cls-1" d="M17.34,22.77c.35-.6.17-2.62-.51-2.66l-6.2-.38.11,3.06,6.6-.03Z"/>
      <path class="cls-1" d="M9.87,24.4c.66,4.62,4.33,9.25,8.89,9.6-4.12-2.95-6.66-5.65-8.89-9.6Z"/>
      <path class="cls-1" d="M24.51,32.67l-1.11.39c-.25.09-.09,1.37.25,1.26,3.81-1.17,7.83-4.94,7.9-9.2-2,3.02-3.57,6.33-7.04,7.55Z"/>
      <path class="cls-1" d="M17.92,24.79c.21.01.67-.16.94-.42l5.1-5.05c.18-.18.18-.92-.05-.97-.23-.04-.87.04-1.05.23l-5.07,5c-.2.2-.14,1.19.14,1.21Z"/>
      <path class="cls-1" d="M32.1,23.47c.37.03,1.33.13,1.39.13-.27-2.07-.35-2.99,0-4.47-.39,0-1.45.03-1.82.39-.36.36-.29,3.88.43,3.95Z"/>
      <path class="cls-1" d="M33.49,23.6h0s0,0,0,0Z"/>
      <path class="cls-1" d="M9.66,19.6c-.04-.44-1.59-.44-1.6,0l-.12,4.08,2.04-.62-.32-3.47Z"/>
      <path class="cls-1" d="M29.92,49.58l.56-4.5-1.95-.65c-.39,2.03.09,3.79,1.39,5.14Z"/>
      <path class="cls-1" d="M8.44,25.06l-.03.68-.2,5.39h.69c.12.02.29-.61.3-.74l.16-4.57c0-.23-.18-.81-.28-.97-.1-.16-.63.02-.64.2Z"/>
      <path class="cls-1" d="M20.69,19.06c.99-.28,1.77-1.19,2.37-2.15l-4.41-.06c.28.94,1.35,2.41,2.05,2.21Z"/>
      <rect class="cls-1" x="29.06" y="27.76" width="7.24" height=".96" transform="translate(3.94 60.49) rotate(-89.13)"/>
      <path class="cls-1" d="M17.09,18.46c-.15,1.07,1.6,2.79,2.76,2.17.1-.98-1.58-2.63-2.76-2.17Z"/>
    </g>
  </g>
</svg>