<?xml version="1.0" encoding="UTF-8"?>
<svg id="Warstwa_2" data-name="Warstwa 2" xmlns="http://www.w3.org/2000/svg" viewBox="0 0 54.96 44.36">
  <defs>
    <style>
      .cls-1 {
        fill: #fff;
      }
    </style>
  </defs>
  <g id="game-icon-v3-dark-magic-pixarts-store">
    <g id="game-icon-v3-dark-magic-pixarts-store_102">
      <path class="cls-1" d="M46.25,28.65c-1.13,1.07-2.97.74-3.83-.41-2.02-2.7-1.31-6.09.76-8.29l-.43-10.8-4.97,9.74c.89,1.67,1.05,3.79-.66,5.11-1.26.97-2.77.53-4.71-.38.57.93,1.29,1.87,2.04,2.81-3.15-.99-4.15-4.53-4.24-7.78-.03-1.19,1.07-2.41,2.01-2.96L27.55,0l-4.67,15.73c3.24,1.46,2.14,5.2.95,7.79-.67,1.47-1.92,2.82-3.53,2.79,1.06-.77,1.99-1.64,2.35-2.73-1.88,1.14-3.59,1.37-4.83.28-1.54-1.36-.87-3.36-.49-4.81l-5.05-10.1-.16,10.88c1.44,2.59,2.73,5.27.55,8.35-.66.93-2.18,1.65-3.47.74-2.21-1.56-5.26-5.78-2.53-8.16L0,10.67l5.08,18.18,2.47,4.18-.88,4.78c2.64-.98,4.73-1.84,7.32-2.18,9.5-1.26,25-1.77,34.3,2.11.82-1.9-2.53-3.73.4-7.04.97-1.09,1.77-2.63,2.15-4.08l4.12-15.65-6.43,9.82c2.51,2.35-.42,6.1-2.28,7.86ZM17.29,33.11c-.61.27-1.75-1.28-1.66-1.93.1-.73.6-2.02,1.1-2.53,1.67.69,2.71,3.51.56,4.47ZM27.58,8.89l1.44,4.87-1.4,3.32-1.5-3.33c.39-1.65.82-3.02,1.47-4.86ZM27.66,32.82c-1.24-.88-2.65-2.67-2.83-4.27l2.62-4.32c1.11,1.62,2.13,2.95,2.44,4.74.18,1.02-1.32,2.72-2.22,3.85ZM37.75,33.24c-1.63-.83-1.31-3.88.72-4.62.33.71.76,1.82.95,2.5.18.66-.95,2.19-1.67,2.12Z"/>
      <path class="cls-1" d="M42.16,36.84c-9.87-1.69-19.63-1.67-29.5,0-1.57.27-5.94,1.36-5.76,3.14.22,2.22,5.89,3.17,8.04,3.48,9.01,1.29,23.61,1.59,32.08-1.81.47-.19,1.15-1.14,1.14-1.62-.04-1.97-4.08-2.86-5.99-3.18ZM8.38,40c1.55-.92,2.89-1.38,4.53-1.63,9.82-1.52,19.63-1.52,29.43.04,1.64.26,3,.75,4.48,1.79-6.73,3.89-32.05,4.05-38.45-.2Z"/>
      <path class="cls-1" d="M5.19,31.31c-.32,1.51,0,2.9,1.07,3.88.87-1.68.32-3.24-1.07-3.88Z"/>
    </g>
  </g>
</svg>