<?xml version="1.0" encoding="UTF-8"?>
<svg id="Warstwa_2" data-name="Warstwa 2" xmlns="http://www.w3.org/2000/svg" viewBox="0 0 49.25 58.08">
  <defs>
    <style>
      .cls-1 {
        fill: #fff;
      }
    </style>
  </defs>
  <g id="game-icon-v3-dark-magic-pixarts-store">
    <g id="game-icon-v3-dark-magic-pixarts-store_83">
      <path class="cls-1" d="M29.57,15.98l1.56.29-.34,1.5c-.06.27.52.81.69.96l1.27-.82c-.11,1.05-.34,1.78-.02,1.79l1.51.06c.48.02,1.11,1.35,1.51,1.08.46-.31,1.05-.74,1.45-1.06l1.26-1.03c.38-.31,1.79,1.49,3.78.84,1.63-.53,1.14-4.43,3.41-6.27l-.46,2.74c2.86-1.44,4.43-4.3,3.96-7.54C48.49,3.98,44.69.45,40.12.04c-3.9-.35-7.5,1.81-8.06,6.17l3.05-2.49c-.91,2.27-2.73,3.39-5.15,4.48-.8.36-.7,2.64-.06,3.21.51.46,1.2,1.08,1.07,1.46-.35,1.01-2.37,2.93-1.39,3.11ZM39.04,12.56c.54-.53,2.4-.39,3.01.02.6.4,1.34,1.43,1.45,2.36.09.7-1.37,2.07-2.08,2.05-1.06-.02-2.14-.79-2.58-1.53-.43-.72-.54-2.18.19-2.91ZM35.82,16.22c-.5.02-1.24-.72-1.76-1.22-.36-.35.88-1.34,1.36-1.49l1.25-.38c.58-.18-.05,3.06-.85,3.09ZM34.22,6.99c1.54-.03,3.6,2.09,2.76,3.85-.87,1.8-4,.89-4.67-.69-.57-1.35.38-3.13,1.91-3.16Z"/>
      <path class="cls-1" d="M22.85,33.92c.85-1.85,1.86-3.33,3.07-5.2l-.34-5.63c-.86.36-1.85,1.14-1.98,1.85-.48,2.59-1.9,4.03-3.15,6.03-1.71,2.75-3.04,5.47-5.52,7.67-1.69,1.5-4.25,2.98-5.42,4.84-2.58,4.07-5.17,7.53-8.95,10.72-1.01.85-.47,2.92.39,3.4,4.04,2.27,5.59-4.21,7.44-6.77,2.76-3.82,5.96-6.65,9.04-10.04l-3.88,1.54c3.64-4.16,7.02-3.42,9.32-8.41Z"/>
      <path class="cls-1" d="M27.14,27.87c1.66-.66,2.72-1.22,4.06-2.43l-3.11-.61c1.75-1.55,3.6-.11,6.09-2.56-2.43-1.19-3.65-2.08-4.95-4.36-2.55,1.47-.03,2-2.49,4.84l.4,5.13Z"/>
    </g>
  </g>
</svg>