<?xml version="1.0" encoding="UTF-8"?>
<svg id="Warstwa_2" data-name="Warstwa 2" xmlns="http://www.w3.org/2000/svg" viewBox="0 0 50.19 49.97">
  <defs>
    <style>
      .cls-1 {
        fill: #fff;
      }
    </style>
  </defs>
  <g id="game-icon-v3-dark-magic-pixarts-store">
    <g id="game-icon-v3-dark-magic-pixarts-store_21">
      <path class="cls-1" d="M16.11,44.61c-.12,2.35-1.17,3.07-2.92,3.44,1.21.87,2.63-.12,3.5-.86.39-.33.9-1.52.58-1.84-.27-.27-1-.71-1.16-.74Z"/>
      <path class="cls-1" d="M28.39,18.38c-1.97.95-3.42,2.42-4.43,4.21-1.15-3.53-5.01-5.44-8.68-4.77-4.38.8-7.14,4.87-7.16,9.31-.02,3.54,1.39,7.01,3.47,9.77.83-.2,2.02-.66,2.05-1.28l.13-2.95,2.49.89,3.61-3.94-.21-1.93c2.89,1.37,2.87-1.95,8.77-2.83l1.34-2.43.92,2.14c.19.43,1.55.55,2.06.47,4.67-.79,6.06.7,6.59-.82.14-.4-.05-1.18-.27-1.7-1.85-4.33-6.43-6.18-10.67-4.14ZM11.37,29.14c-.46-2.55,0-5.54,2.11-7.47,1.36-1.24,3.44-1.97,5.08-1.01-4.88,1.76-5.42,3.37-7.2,8.47Z"/>
      <path class="cls-1" d="M35.52,30.29c-.65,1.18-1.43,2.72-2.47,3.33.36-2.03-.17-3.16-1.51-4.36-2.12-1.89-5.8.44-5.66,1.26l.33,1.97-2.79-.19c-.91.93-2.35,2.29-2.7,3.33-.62,1.82,2.04,2.61,2.87,2.9-.83,1.14-.72,2.5-.74,3.96-.37-1.1-.8-2.42-1.2-3.3-.33-.7-2.44-1.43-3.07-.97-1.09.79-2.58,2.09-3.81,3.07l9.43,8.65,4.69-4.02c3.31-2.84-.13-2.93,4.26-7.51.31,3.64-2.34,1.41-1.55,7.68.16,1.29.12,2.31.09,3.76,2.67-3.06-1.55-4.38,2.81-9.71,2.09-2.56,5.76-6.75,3.41-9.53-.42-.5-1.83-.7-2.38-.35Z"/>
      <path class="cls-1" d="M26.43,6.73c.25-.4.09-1.45-.27-1.81l-2.88-2.92c-1.17-1.18-3.15-.93-4.67-1.31-3.41-.84-6.43-1.26-9.55.77-2.36,1.53-4.3,4-4.82,7.4-.64,4.17.81,8.66,4.29,11.23.46.34,1.7-1.2,1.3-1.62-4.38-4.57-4.15-11.95.23-13.96,2.34-1.07,5.01-.86,6.84,1.03,1.89,1.95,4.82,3.03,7.2,2.86l-2.12-1.41,2.44.52c.56.12,1.69-.27,2.02-.8Z"/>
      <path class="cls-1" d="M1.09,30.65c-.17.03-.79.12-.93.13-.13.01-.21.19-.11.28.1.09.79.47.79.61-.05,7.32,1.79,4.37,1.25,8.55l1.37-.44c1.76,1.05,3.47,1.75,5.41,2.25l.8,1.44c.93-3.33,2.82-1.03,8.19-6.3.26-.25,1.47.01,1.45-.28-.01-.23-.27-1.13-.16-1.33,2.99-5.06,5.33-4.88,5.24-4.64.1-.25.29-.99.45-1.24,1.07-1.64,3.73-2.89,6.06-2.11.97.32,1.94,1.24,2.62,1.78-.04-1.77-1.69-3.7-3.71-3.66-5.47.1-9.51,4.55-12.67,8.33-.42.51-1.9.41-2.15.31-.13.68-.32,1.94-.66,2.35-.95,1.17-6.11,3.92-6.94.99-.05-.18-.67.48-.88.5-1.25.09-3.07-2.27-2.83-3.47.04-.18.77-.56.93-.63.34-.15-.93-.56-.97-.8-.21-1.25.85-4.41,2.83-3.71l.33-2.82-1.86-1.16c-.27.94-.69,1.69-1.34,2.39l-2.52,2.69Z"/>
      <path class="cls-1" d="M47.58,16.44c-.4.07-1.67.14-2.06-.23-3.93-3.65-5.9-1.57-6.94-4.25l-1.43,1.07c-5.14.25-3.97,2.1-7.09,1.78.15.02.06,1.06.21,1.11,4.49,1.55,4.92-1.6,8.91-1.42l-4.02,2.11,3.35,1.05c2.82-2.34,7.25,1.28,7.85,4.69.67,3.75-1.12,7.1-4.31,9.22-1.26.84-2.14,2.73-2.36,3.93,1.55-.56,2.25-.38,3.36.23-1.49-2.48,3.61-2.93,5.44-9.31.13-.45,1.1-.9,1.68-1.19l-1.3-.97c-.02-5.04-2.55-5.35-1.31-7.84Z"/>
      <path class="cls-1" d="M14.1,4.98c-3.02-1.23-5.71,1.01-6.52,3.99-.72,2.67.18,5.59,1.85,7.73.83,1.07,2.53,1.15,3.22.5.12-.12,0-.84-.19-.85l-.86-.02c-.35-1.57-1.41-3.36-2.83-3.78.65-.17,1.23-1.21.9-1.45l-1.33-.97,1.26-.48c.16-.06-.29-3.9,4.51-4.67Z"/>
      <path class="cls-1" d="M40.49,25.14c-.82.37-1.1.96-1.5,1.94-1.66-1.15-3.58-2.32-5.71-.84l1.22,2.83c2.77-1.35,4.01.35,5.39,2.61l.59-6.54Z"/>
      <path class="cls-1" d="M41.84,30.51c1.83-1.06,2.56-2.42,3.28-4.08,1.46-3.38-.14-7.77-4.33-8.29.39,1.1,1.49,1.9,2.54,2.45l.98,5.43-1.14.14-1.33,4.35Z"/>
      <path class="cls-1" d="M19.83,16.61l2.59,1.66-1.01-3.77-2.89-2.74c-1.23.88-2.9.78-4.48-.05,2.3,3.67,3.48-.36,5.8,4.9Z"/>
      <path class="cls-1" d="M36.45,42.81c2.07-1.51,2.65,1.36,5.18.74l-4.56-3.56c-.76.33-1.16,1.91-.62,2.83Z"/>
      <path class="cls-1" d="M25.52,8.25c1.38,1.04,3.09,1.66,4.75,2.1l-1.65-1.13,2.19-1.06-5.29.09Z"/>
    </g>
  </g>
</svg>