<?xml version="1.0" encoding="UTF-8"?>
<svg id="Warstwa_2" data-name="Warstwa 2" xmlns="http://www.w3.org/2000/svg" viewBox="0 0 48.29 51.34">
  <defs>
    <style>
      .cls-1 {
        fill: #fff;
      }
    </style>
  </defs>
  <g id="game-icon-v3-dark-magic-pixarts-store">
    <g id="game-icon-v3-dark-magic-pixarts-store_99">
      <path class="cls-1" d="M9.64,29.59l3.09,6.17c1.06,2.11,2.51,3.3,1.52,6.29-.18.55-.42,1.3-1.19,1.66.43-1.97.92-3.42.37-4.87-1.36,2.33-2.43,4.57-4.21,6.26l-6.59,6.23h14.74c1.09-1.72,1.99-2.8,3.26-3.8l-2.53,3.65c2.56.81,1.51-1.35,4.93-3.91,1.53-1.15,1.58-2.59,2.34-4.2,2.56-5.47,4.8-6.76,6.02-9.72.25-.6.37-1.19.87-1.39.87-.33,1.51-1.33,2.09-1.61l5.47-2.64,2.55-5.36c-.81-1.24-1.16-2.13-1.55-3.65-1.05.6-1.29,2.21-1.23,3.44l-1.67,2.63c-.9,1.42-4.46.14-5.82,4.76l-3.44,2.63c.68-1.19,1.6-1.96,2.74-3.08,2.24-4.26,2.46-3.92,6.34-7.3.5-.43.46-1.86.55-2.61l.67-5.43c-1.61-.79-2.44-2.02-2.61-3.6-1.94,1.35-.33,3.38-.66,4.74l-1.1,4.55c-1.79,1.35-3.49,2.39-4.35,4.56l-.44-1.12c-.08,1.44-.17,3.11-.38,4.29-2.4,2.24-3.84,4.76-5.45,7.46.61-2.27,1.89-4.71,3.39-6.43,1.29-1.48,1.84-2.07,2.03-4.24.28-3.21,4.46-6.58,4.25-8.94l-.43-4.83-.21-1.17-.15-1.48c-.12-1.22-2.93.08-4.05-3.24-1.4,1.89.28,3.73.65,5.53.24,1.19.46,3.9-.13,4.94l-2.3,4.06c-.54.96-1.01,1.67-1.54,2.7-.11-.34-.64-1.33-.55-2.06l.68-5.43-1.76-5.76c-.75-2.45-2.79.23-4.46-2.67-1.14,1.78.14,3.46,1.12,4.98.96,4.24.88,4.21-.23,9.07-.26,1.14-1.46,2.45-1.53,3.64-.09,1.58-.49,2.68-1.79,3.56l.18-1.17-2.98.62c-.42-1.64-1.24-2.61-2.42-3.29,1.67-1.61,2.09-4.25.87-6.43l-1.38,2.25c-2.06-.24-4.31,3.95-3.34,4.92,1.79,1.8.85,4.1,1.75,5.88ZM24.92,22.46c.94,1.55.27,2.76-.51,4.29-.77,1.52-1.19,3.31-1.85,4.88-.33-3.59,2.39-5.8,2.35-9.17Z"/>
      <path class="cls-1" d="M40.97,30.69c-1.6,2.45.58,4.38-1.19,6.27-1.99,2.12-4.29-.3-7.72,1.54.27-1,1.23-1.81,2.34-2.12l2.85-.79c-1.83-.46-4.14-.09-5.2,1.39-1.3,1.83-1.94,3.94-2.37,6.28l1.38-1.87c.35,6.38-4.52,3.58-6.66,6.97,2.98-1.42,8.41-.69,8.01-5.08-.15-1.58.85-3.15,2.63-3.23,1.62-.07,3.5.14,5.11-.11,2-.31,3.33-3.01,3-4.92l-.97,1.59-.45-2.78c-.67-4.11,4.48-2.83,6.01-5.63.67-1.22.68-3.22.17-4.25l-1.33-2.67c-.38,2.12,1.61,3.84.2,6.13-1.22,1.97-4.51,1.27-5.83,3.27Z"/>
      <path class="cls-1" d="M2.59,27.29c3.53,2.85-.28,4.83.94,8.51-2-1.07-1.23-3.14-1.16-5.36-.64,1.34-1.26,3.17-.76,4.68.98,2.96,4.92,2.41,5.67,4.45.88,2.39-1.61,3-.75,6,.51-1.71,1.18-2.87,2.34-4.25,1.38-1.65-.19-4.32-1.86-5.15-1.86-.93-1.64-2.71-.8-4.26.95-1.72.59-3.94-.12-5.6l-.34,1.46-3.26-3.03c-1.93-1.79-1.18-4.86-.17-6.89C.7,18.92-.03,20.94,0,22.7c.04,1.83,1.15,3.42,2.59,4.59Z"/>
      <path class="cls-1" d="M5.77,17.54c4.1-3.58-1.11-4.21.78-8.24-3.05,2.68.92,4.88-1.66,7.26-1.68,1.55-2.22,3.65-1.43,5.63.11-2,.86-3.5,2.31-4.66Z"/>
      <path class="cls-1" d="M44.84,14.89c1.2-1.07,1.63-2.97.13-4.37-1.38-1.28.6-2.92.57-4.95l-1.49,1.86c-2.91,3.64,1.84,3.61.79,7.46Z"/>
      <path class="cls-1" d="M31.75,6.04c-.23-2.74-1.81-5.21-4.26-6.04,2.18,3.01,1.73,6.26,4.26,6.04Z"/>
      <path class="cls-1" d="M13.34,12.69c-2.22.96-3.47,3.24-3.58,5.66,2.02.64,2.07-3.22,3.58-5.66Z"/>
      <path class="cls-1" d="M38.55,12.63c.34-2.81-.61-4.78-2.21-6.52l.64,4.74c.11.78.88,1.65,1.57,1.78Z"/>
      <path class="cls-1" d="M22.29,6.51c-.6-2.28-2.51-4.11-5.09-3.96,3.21,1.64,2.16,4.3,5.09,3.96Z"/>
      <path class="cls-1" d="M41.87,16.12c-.16,1.87-.24,3.39.13,5.03,1.6-1.84.77-3.64-.13-5.03Z"/>
    </g>
  </g>
</svg>