<?xml version="1.0" encoding="UTF-8"?>
<svg id="Warstwa_2" data-name="Warstwa 2" xmlns="http://www.w3.org/2000/svg" viewBox="0 0 42.55 45.83">
  <defs>
    <style>
      .cls-1 {
        fill: #fff;
      }
    </style>
  </defs>
  <g id="game-icon-v3-dark-magic-pixarts-store">
    <g id="game-icon-v3-dark-magic-pixarts-store_66">
      <path class="cls-1" d="M2.59,37.04c1.37-1.06-.32-5.37.81-5.65l2.4-.59,2.26-2.09c2.14.66,3.42.62,6.19.44l-9.45,16.69,10.19-10.41,5.32-2.56-3.49-.07,2.87-3.64,2.56,1.89,1.52,4.81-3.01,3.03,1.38,4.33-.29-4.31,3-2.63-1.2-5.86c-.12-.58-2.07-1.01-1.98-1.61.6-4.4,7.8-10.26,11.09-14.67l-11.39,1.35,6.74-9.43,3.51,4.81c2.77-.78,4.53,1.06,5.26,3.33l-3.24,3.88,2.36,4.12-3.85,3.2c-1.63,1.35,1.44,2.92.28,7.42l1.35-1.49c.44-.49-1.7-3.88-.66-5.05.91-1.02,3.11-2.56,4.18-3.28,1.32,1.9,2.33,3.13,4.13,4.32v4.5s1.16-5.37,1.16-5.37c-2.17-1.28-3.23-2.66-4.71-4.62-.9-1.2-2.8-2.64-2.04-4.51l2.48-3.12c.32-.4.43-1.81.91-2.01l2.11-.85-4.58-.35c-1.04-1.67-2.52-1.96-4.57-2.29-.81-1.1-1.93-3.58-2.28-4.8l2.38-3.9h-10.72c-1.13,1.88-2.12,4.63-4,5.31-1.71.62-3.79,1.53-5.07,1.78l-4.51.88c-1.17.23-3.36-.85-4.54.45,1.04.13,2.6.3,3.41.51.88.66,1.02,3.6.15,4.19l-4.19,2.83,5.56-2.17c.16-2.07.29-4.17,1.84-5.17l2.95.44c1.43-.93,2.49-1.51,4.28-1.67l-7.47,14.64,8.91-1.38c-1.07,2.19-2.07,4.33-3.21,5.92-2.38,1.88-5.84,1.3-8.46.86-1.77,5.3-5.48.11-7.19,4.73l2-.91.59,5.8Z"/>
    </g>
  </g>
</svg>