<?xml version="1.0" encoding="UTF-8"?>
<svg id="Warstwa_2" data-name="Warstwa 2" xmlns="http://www.w3.org/2000/svg" viewBox="0 0 44.9 46.6">
  <defs>
    <style>
      .cls-1 {
        fill: #fff;
      }
    </style>
  </defs>
  <g id="game-icon-v3-dark-magic-pixarts-store">
    <g id="game-icon-v3-dark-magic-pixarts-store_36">
      <path class="cls-1" d="M8.19,18.08l2.26-2.55c2.34-2.63,4.85-4.54,8.33-5.45l.71-2.61c-3.31.41-5.77,2.2-8.51,3.9C6.49,9.89,3.82,4.99,4.65.06c-3.04,3.21-3.37,7.96-1.79,12.16l.43-2.48c.86,2.59,1.7,4.71,3.31,6.46l-1.45,2.04c.83.17,2.6.35,3.05-.15Z"/>
      <path class="cls-1" d="M41.96,12.68c1.71-4.09,1.45-9.17-1.77-12.68.92,5.15-1.59,9.48-6.07,11.4-2.75-2.12-5.45-3.35-8.64-3.82.26,1.01.57,1.94.92,2.52,2.22.86,4.92,1.86,6.45,3.58l3.12,3.5c.95,1.07,2.21,1.53,3.59,1.03l-.97-1.73c1.27-2.17,2.15-4.07,2.99-6.28l.38,2.49Z"/>
      <path class="cls-1" d="M13.51,30.9l-5.17,15.34c3.9-2.65,6.85-5.08,10.32-7.54l9.52-6.76c-.05-.9-.25-1.73-.61-2.33l-14.81,10.68,2.45-7.85c.2-.63-1.22-1.67-1.71-1.54Z"/>
      <path class="cls-1" d="M24.81,35.62c-.42.11-1.28,1.16-.92,1.42l12.77,9.22-7.78-23.16c-.73-.19-1.6-.24-2.28-.1l5.75,17.53c-2.8-1.1-6.14-5.29-7.54-4.91Z"/>
      <path class="cls-1" d="M16.85,27.69l5.5-17.56,2.94,8.39,2.09-.11-4.98-15.61-7.28,23.62c-.05.46,1.09,1.14,1.74,1.27Z"/>
      <path class="cls-1" d="M38.26,21.76l-6.4,4.72c-.53.39-.2,2.06.36,2.31l3.54-2.56c3.07-2.22,6-4,9.14-6.46-4.09-.21-7.9-.1-12.01-.12l-12.37-.05c-.35.53-.66,1.54-.6,2.13l18.34.02Z"/>
      <path class="cls-1" d="M10.06,25.96c1.56,2.25,2.81,2.84,5.12,4.59l4.41,3.34c.46.35,2.06-.82,1.75-1.35l-14.65-10.69,8.48-.12c.38-.29.73-1.36.76-1.94l-15.93-.09,9.17,6.75c.39-.26.77-.66.89-.49Z"/>
      <path class="cls-1" d="M36.69,40.61c2.78-3.27,5.28-6.56,5.21-10.58l-.1-6.17-2.55,1.72c.83,4.92-.69,9-3.65,12.77-.18.66.42,2.32,1.09,2.27Z"/>
      <path class="cls-1" d="M29.39,42.8c-4.54,2.28-9.36,2.36-13.76-.01l-2.27,1.75,4.87,2.06c5.59-.57,6.99,1.17,13.69-2.02-.72-.76-1.65-1.47-2.53-1.78Z"/>
      <path class="cls-1" d="M6.2,37.96l2.53,3.07.73-2.68c-2.98-3.53-4.04-7.73-3.85-12.37.04-1.03-1.59-2.09-2.58-1.87l1.02,7.28-1-1.35c.07,3.05,1.33,5.71,3.16,7.93Z"/>
    </g>
  </g>
</svg>