<?xml version="1.0" encoding="UTF-8"?>
<svg id="Warstwa_2" data-name="Warstwa 2" xmlns="http://www.w3.org/2000/svg" viewBox="0 0 54.8 55.18">
  <defs>
    <style>
      .cls-1 {
        fill: #fff;
      }
    </style>
  </defs>
  <g id="game-icon-v3-dark-magic-pixarts-store">
    <g id="game-icon-v3-dark-magic-pixarts-store_39">
      <path class="cls-1" d="M1.35,35.95c1.83,1.77,4.54,1.23,6.13-.48l1.86.84c.19-2,1.17-2.99,2.42-4.26,1.71-1.73,3.96-3.24,6.28-1.35-2.59-.29-4.28.64-5.86,2.45-1.23,1.42-1.91,2.55-1.88,4.8l-2.41-.98c-1.33.68-2.9,1.07-4.57,1.37,4.55,3.09,3.18,5.04,10.44,4.21-3.24-4.55,6.05-8.14,9.06-9.11,1.98-.64,3.33-1.98,3.76-4.08l.67-3.32,2.65,4.65c.87,1.52,1.39,3.47,1.7,5.27l-3.33-5.64c-.93,1.37-1.34,3.13-2.2,3.51l-5.04,2.2c4.26.46,9.37,4.87,7.35,9.19-.21-1.52-.62-3.11-1.71-4.09-.94,6.25-3.11,7.47-1.83,14.04,4.56-6.16,12.22-7,18.48-11.03-.78-6.8-3.95-11.87-8.66-16.94,5.52,3.02,8.74,8.49,11.25,14.37,4.85-4.06,6.9-9.2,8.9-15.15-2.89-1.88-4.91-1.3-6.79-4.31l2.22-1.22c-4.28-2.43-5.15-.5-8.36-3.67l1.77-1.34c-2.38-.93-4.79-1.38-7.09-.97-.87.97-2.18,2.3-2.9,3.3-.93,1.27-.84,3.23-2.18,3.92-1.48.76-3.03,1.09-4.51.94,5.92-3.09,3.78-1.59,5.8-5.76.85-1.75,3.61-3.52,3.23-5.63-.07-.3-.88-.86-.71-1.1l.8-1.13c1.86-2.63,2.38-6.15,1.9-9.44-1.61,2.6-3.48,4.79-6.15,6.33l-6.19,3.56c-2.2,1.26-3.43,3.42-3.88,5.97-.85-2-.01-4.12,1.61-5.58l1.91-1.72c-5.1-.97-9.42.86-13.61,3.17-4.91,2.71-3.11,3.39-7.6,7.15-.63.53-1.24,1.63-.94,2.37.24.59,1.25,1.18,2.18,1.68-2.12,1.25-3.39,3.06-4.57,5.05-.89,1.5-1.08,2.44.13,3.99l.51,3.97ZM28.65,11.03c2.9-1.93,5.38-3.9,7.84-6.31-1.23,3.32-4.03,5.42-6.96,7.72.97.45,1.95.95,2.13,1.85-1.11-.27-2.18-.57-3.06.08-.3,1.15,1.81,3.58.25,3.95-1.41.33-2.02,1.08-2.5,2.2l-.84-4.35c-.41-2.16,1.47-4.02,3.15-5.14ZM22.05,22.4l-1.79,4.63c-1.01.34-2.89.3-4.22-.07,4.89-1.33,2.83-2.14,6.01-4.56ZM6.66,19.38c-.36,1.35-.53,2.5.02,2.92.97.74,2.04.39,2.73-.43,2.9-3.47,3.8-3.38,8.31-4.25l-2.25,2.09c-.11,1.26-.42,2.66-1.23,3.35-.87.74-2.11.84-3.52,1.11.91.64,2.08.85,3.78.74-1.9,1.49-3.66.29-5.57-.55-1.12-.49-2.61-.37-3.29-1.83-.48-1.03.1-2.56,1.03-3.14Z"/>
      <path class="cls-1" d="M20.02.72c-2.65,4.27-6.08,4.95-7.67,9.11l7.76-2.86-.09-6.26Z"/>
    </g>
  </g>
</svg>