<?xml version="1.0" encoding="UTF-8"?>
<svg id="Warstwa_2" data-name="Warstwa 2" xmlns="http://www.w3.org/2000/svg" viewBox="0 0 43.22 48.46">
  <defs>
    <style>
      .cls-1 {
        fill: #fff;
      }
    </style>
  </defs>
  <g id="game-icon-v3-dark-magic-pixarts-store">
    <g id="game-icon-v3-dark-magic-pixarts-store_67">
      <path class="cls-1" d="M36.69,18.47l4.17-14.03L28.59,0l-13.16,8.32L0,35.48l11.2,5.2,25.49-22.21ZM2.57,34.51l14.47-25.38L28.79,1.89l9.7,3.38-3.5,11.9-23.99,21.11-8.42-3.78Z"/>
      <polygon class="cls-1" points="12.26 41.92 13.99 48.46 30.08 34.59 39.07 26.71 37.19 20.19 26.79 29.19 12.26 41.92"/>
      <polygon class="cls-1" points="12.79 48.46 10.91 42.16 .37 37.42 2.61 43.93 12.79 48.46"/>
      <polygon class="cls-1" points="38.15 18.82 39.91 25.04 43.22 13.41 41.55 7.2 38.15 18.82"/>
      <path class="cls-1" d="M28.78,2.95l-10.87,6.69-13.77,24.15,6.55,3,23.06-20.42,3.13-10.44-8.09-2.97ZM27.43,16.65c.11-.91-1.71-2.32-2.22-1.73l-4.67,5.44c-.38.45-.56,1.43-.63,2.43l-4.37,1.78c.1-5.34,1.2-3.44,2.07-4.43l5.48-6.22c-1-.84-1.7-.87-3.26-.5l-.55-2.58,3.11-.94c.43.69,1.57,1.93,2.26,1.72,1.35-.41,1.89-2.09,1.99-3.51l3.59-1.31.24,3.19c-1.89.42-2.85,1.21-3.5,2.85,1.21.39,2.04.51,3.33.5.35.33.73,1.73.77,2.58l-3.64.73Z"/>
    </g>
  </g>
</svg>