<?xml version="1.0" encoding="UTF-8"?>
<svg id="Warstwa_2" data-name="Warstwa 2" xmlns="http://www.w3.org/2000/svg" viewBox="0 0 42.2 46.21">
  <g id="game-icon-v4-rogue-pixarts-store">
    <g id="game-icon-v4-rogue-pixarts-store_10">
      <path d="M1.1,33.49c-.04.25-.18.88-.18,1.2.04,3.06,6.33,5.38,7.63,3.44.7.42,1.49.78,2.34.98,3.03.69,5.25,2.84,7.51,4.98l2.39-.32-.71,1.26c3.57,2.56,8.03.72,9.9-3,2.44-4.85-2.1-5.89-3.61-10.47l-.86,1.45.52-3.63c.45-3.12-2.39-5.54-5-6.82-2.63-1.29-5.58-1.27-7.85.65l-.72,2-1.39-.51c-1.41.41-3.4.74-4.93.68-3.97-.18-6.78,3.83-6.02,6.94.11.45,1.03.87.98,1.19Z"/>
      <path d="M17.8,18.95c3.21.94,6.33-4.29,6.03-7.19-.21-.14-.99-.41-.9-.59l.48-.94c.4-.8-.34-2.24-1.19-2.88-.71-.53-1.96-.44-3.15.07-3.32,1.43-4.91,5.88-3.6,9.38.39,1.03,1.49,1.91,2.33,2.15Z"/>
      <path d="M25.04,20.18c.29,1.28,1.06,2.53,2.38,2.83,2.7.62,4.48-1.09,5.64-3,1.18-1.94,2.05-4,1.05-6.33-.31-.72-1.25-1.62-1.9-1.82-.78-.24-2.26-.04-2.6.49l-.2,1.04c-.04.22-1.15-.24-1.42-.1-1.74.92-3.5,4.43-2.95,6.9Z"/>
      <path d="M34.31,24.35c-.24.86-.82.61-1.74,1.01-2.18.95-3.26,4.43-2.26,6.63.99,2.18,4.58,2.7,5.81.77.57-.9.89-1.03,1.86-1.59,1.18-.68,1.72-3.08,1.76-4.53.04-1.49-1.01-2.84-2.13-3.17-1.04-.31-3.02-.12-3.3.89Z"/>
      <path d="M4.2,19.34c-.17.83.81,2.13,1.49,2.6.85.58,2.36.64,3.38.05,2.3-1.33,3.58-4.77,2.97-6.76-.08-.26-1.07-.63-.96-.83.11-.19.45-.78.49-1,.19-.94-1.01-2.13-1.81-2.42-3.14-1.14-6.25,3.91-5.69,6.26.22.9.33,1.15.13,2.1Z"/>
      <path d="M34.59,3.94l-2.33,5.69c.91.49,1.89,1.27,2.77,2.13.98-2.6.96-5.51-.44-7.82Z"/>
      <path d="M26,0c-2.76.73-4.87,3.02-5.7,5.2,1.34.17,2.47.42,3.31.68.71-2.1,1.51-4.01,2.38-5.89Z"/>
      <path d="M40.87,23.81c1.15-2.39,1.45-5.21.27-7.53l-2.73,5.21c.89.71,1.57,1.36,2.46,2.32Z"/>
      <path d="M11.12,9.41c.55-1.81,1.27-3.57,2.21-5.5-2.61.53-4.95,2.75-5.35,5.19,1.16-.23,2.31-.06,3.14.32Z"/>
      <path d="M11.74,42.86c-.78.07-1.35,1.24-1.14,1.92.16.54,1,1.16,1.59,1.28.48.09,1.63-.52,1.63-1.06-.01-.9-1.07-2.23-2.07-2.14Z"/>
      <path d="M2.71,42.06c-.45.59-.15,1.97.4,2.17.57.21,1.61.1,2.11-.19.44-.27.65-1.61.21-1.94-.9-.66-2.18-.73-2.72-.03Z"/>
      <path d="M41.12,33.47c-.59,0-1.07.48-1.07,1.07s.48,1.07,1.07,1.07,1.07-.48,1.07-1.07-.48-1.07-1.07-1.07Z"/>
    </g>
  </g>
</svg>