<?xml version="1.0" encoding="UTF-8"?>
<svg id="Warstwa_2" data-name="Warstwa 2" xmlns="http://www.w3.org/2000/svg" viewBox="0 0 41.35 46.54">
  <g id="game-icon-v4-rogue-pixarts-store">
    <g id="game-icon-v4-rogue-pixarts-store_22">
      <path d="M16.06,20.09c-2.65-1.85-5.74-1.67-8.25.37-5.66,4.6-6.22,13.34-1.22,18.53,4.41,4.57,10.46,5.79,15.81,2.95,5.23-2.77,8.16-8.87,6.44-14.73-.31-1.07-1.39-2.11-2.17-2.33-1.08-.3-2.43-.09-3.22.84-.45.53.09,1.76.65,2.13.49.33,1.66.41,1.77.02l-.71-1.18c-.11-.18.75-.46.96-.42.9.17,1.42,1.66,1.1,2.41-.39.92-1.57,1.31-2.59.98-4.06-1.33-3.76-6.2-8.57-9.56ZM11.82,20.94c.64,0,1.16.52,1.16,1.16s-.52,1.16-1.16,1.16-1.16-.52-1.16-1.16.52-1.16,1.16-1.16ZM6.82,27.22l1.17-1.48c1.22-1.02,2.2,4.95,1.79,5.4-1.89-2.46-6.06-2.27-2.96-3.92ZM6.65,36.21c-.28.21-1.25-.07-1.24-.39l.06-1.51c.01-.28-.06-.91-.07-1.18-.02-.31.62-.74.95-.82.99.93,2.16,1.66,3.62,1.44l.81,1.55c-1.79-.05-3.11.16-4.13.9ZM19.72,40.22c-.24.47-2.34,1.7-2.78,1.83-1.03.3-.03-2.16-2.47-4.51l.91-.62c.9-.61.94,1.49,3.37,2.25.36.11,1.13.74.97,1.04ZM22.69,33.57c.29-.18,1.36.11,1.31.45-.38,2.31-.59.5-.29,2.63.26,1.89-3.09-.9-4.59-1.09.86-2.05.81-.22,3.58-1.99ZM20.87,28.59c.43,1.67-.46,2.92-1.32,4.26l-1.57,2.44-2.05-.04c-.33,0-.96.92-1.28.85-.74-.17-3.04-1.32-3.41-2.35-.1-.27.5-1.1.31-1.33l-.84-1.04c-.78-.96.74-2.13,1.09-2.97.57-1.34.96-2.76,2.11-3.27,2.99-1.34,6.29.83,6.96,3.45Z"/>
      <path d="M13.84,13.46c-3.1-4.38,3.88-1.5,6.42-5.91,1.15-2.01.59-4.64-1.27-5.96-1.55-1.1-4.03-1.23-5.56.51-.42.48-.61,1.66-.38,2.18.25.56,1.31.89,1.86.72-.52-.52-1.06-1.23-.87-1.77.15-.43,1.19-.99,1.66-.92,1.02.15,1.82,1.11,1.88,1.86.07.87-.28,2-.96,2.52-3.13,2.38-6.47-.55-10.73.91-1.81.62-3.07,2.13-2.85,4.02.05.47.65,1.57,1.1,1.5l1.53-.25c-.93-.49-1.23-.64-1.47-.84-.18-.15.04-1,.17-1.21.39-.63,1.48-1.2,2.15-1.15.54.04,1.46.86,1.49,1.48.05,1.13-.77,2.12-1.68,2.7C3.18,15.85.24,18.59,0,22.64c2.75-5.51,7.92-8.62,13.84-9.18Z"/>
      <path d="M36.78,22.22c-1.7-.94-2.51-3.02-1.21-4.45.25-.28,1.16-.54,1.51-.46.29.06.65.73.44.95-.36.37-.9.87-.89,1.19,0,.26.52.67.75.77s.73-.1,1.02-.38c.54-.51.37-1.82-.06-2.32-.41-.48-1.59-.88-2.19-.65-1.39.53-2.3,1.8-2.35,2.99-.19,3.8,3.85,2.56,3.57,7.71l1.09-1.73c-.06,1.08-.23,1.96-.67,2.25-.48.32-1.85.38-2.13-.08-.28-.47-.42-1.49-.51-2.4-1.05.39-1.51,1.68-1.32,3.02.88,6.03-1.59,11.61-6.15,15.91,11.15-5.14,5.27-15.12,10.88-13.5.42.12.29,1.75-.14,1.81l-1.47.19c.09.27.44.83.76.87,2.57.31,5.14-5.79,2.61-9.25-.81-1.1-2.36-1.78-3.54-2.43Z"/>
      <path d="M10.94,45.47c6.17,2.51,13.22.45,17.46-4.31,4.27-4.79,5.22-11.73,2.33-17.57-2.58-5.2,2.75-8.3,1.24-8.5-2.62-.36-4.59,5.36-2.84,9.02,2.52,5.27,1.91,11.26-1.82,15.6-3.59,4.19-9.54,6.4-14.96,4.42l-4.14-1.51c1.13.91,1.88,1.61,2.73,2.85Z"/>
      <path d="M36.55,12.77c.44-.89.05-2.18-.74-2.97-1.23,3.46-8.4-.5-9.74-4.14-.15-.4.54-1.66.21-1.73-.26-.05-1-.22-1.26-.17-.86.16-1.93,1.49-2.05,2.34-.12.87.44,1.93.93,2.94l-.98,1.06c-4.03,7.76-8.77,2.38-16.05,7.2C-.89,22.46-2.26,33.45,3.73,40.47c.68-.04,1.34-.16,1.91-.31-3.55-4.03-4.64-9.05-3.16-14.1,1.68-5.74,6.74-9.64,12.99-9.49,4.78.12,8.71-3.39,8.73-7.25,3.04,2.37,6.02,4.53,9.73,5.34,1.29.28,2.11-.85,2.63-1.9Z"/>
      <path d="M29.19,0c-.87,2.02-1.55,3.8-2.03,5.69,1.56,2.09,3.76,3.84,6.39,4.22,1.53-.34,3.02-2.2,3.87-3.33-3.36-.79-6.15-1.89-7.53-4.8,2.73,1.64,4.88,3.53,8.19,4.08-1.49-3.57-5.22-5.51-8.89-5.86Z"/>
      <path d="M21.89,19.75c0-.85-.69-1.54-1.54-1.54s-1.54.69-1.54,1.54.69,1.54,1.54,1.54,1.54-.69,1.54-1.54Z"/>
      <path d="M29.54,14.77l-4.86-3.25c-.55,2.3,3.69,4.16,4.86,3.25Z"/>
      <path d="M13.34,28.77c-.73,0-1.33.59-1.33,1.33s.59,1.33,1.33,1.33,1.33-.59,1.33-1.33-.59-1.33-1.33-1.33Z"/>
      <path d="M17.14,33.66c.72,0,1.3-.58,1.3-1.3s-.58-1.3-1.3-1.3-1.3.58-1.3,1.3.58,1.3,1.3,1.3Z"/>
    </g>
  </g>
</svg>