<?xml version="1.0" encoding="UTF-8"?>
<svg id="Warstwa_2" data-name="Warstwa 2" xmlns="http://www.w3.org/2000/svg" viewBox="0 0 52.84 51.77">
  <g id="game-icon-v4-rogue-pixarts-store">
    <g id="game-icon-v4-rogue-pixarts-store_21">
      <path d="M44.29,19.93c.29.25,1.24.62,1.59.53.96-.23,9.48-9.83,6.05-10.17-2.18-.21-2.64,3.99-6.53,5.61l-5.63-7.47c1.2.48,2.83.84,3.95.2,2.2-1.26,3.02-5.06,1.23-7.23-.82-.99-2.37-1.45-3.77-1.39l-14.05.6c3.56.68,6.97.48,10.57,1.83l-14.28,1.07c3.37.67,6.35,1.04,9.54,2.5-2.42.32-4.9.81-7.44.88l-11.53.33,10.25,1.21-3.35,3.82L1.67,13.38l7.01.59c2.99.25,5.78.3,8.86,1.24-1.92,1.3-3.77.62-5.41,1.94,2.8.05,5.01-.64,7.16.75l7.58-7.14,5.25.09-3.17,6.06c-2.04-2.86-4.84-2.49-7.11-.54l4.13.76-3.34,1.07,4.97,1.06c-.43.81-.95,1.13-1.63,1.15l-12.6.42c3.93,1.34,7.13.55,10.21,2.12L0,24.53c5.44,1.25,13.66.66,18.29,2.46l-6.38,1.73,11.65.64-1.44,3.47-8.17.57,2.7,1.61-10.35,1.03,10.39.69c-1.42,1.34-2.96,1.72-4.19,2.58-2.13,1.82-2.76,5.33-2.17,8.06,6.03-7.68,6.32-5.83,13.59-10.77,1.55-1.05,5.85-5.94,5.6-6.68l-.69-2.06,7.85,4.49-3.84,2.93c-2.6.05-4.98-.18-7.23,1.53l5.56.38c-1.64,2.52-2.22,1.13-3.73,4.66l-6.85,1.26,5.9.07c.59,0,1.68.44,2.49.79,4.3-4.72,6.68-5.73,12.11-9.06.68-.42,1.46-1.52,1.45-2.18,0-.57-.49-1.85-.92-2.24l-7.11-6.59c1.89-2.75,3.42-5.32,4.9-8.18l4.87,4.23Z"/>
      <path d="M40.71,22.98c3.95,3.86,9.15,9.15,7.77,15.07-.64,2.76-1.77,5-3.84,6.17-2.39,1.35-4.78,1.04-7.63.65,1.93,1.91,4.3,1.77,7.16,2.16-5.16,2.81-9.33.79-13.15-.29l4.29,3.17-9.67-1.73c5.84,3.16,12.8,4.74,19.39,2.65,4.8-1.52,7.85-5.28,7.82-10.31-.04-7.61-5.37-14.17-12.13-17.53Z"/>
    </g>
  </g>
</svg>