<?xml version="1.0" encoding="UTF-8"?>
<svg id="Warstwa_2" data-name="Warstwa 2" xmlns="http://www.w3.org/2000/svg" viewBox="0 0 44.76 40.19">
  <g id="game-icon-v4-rogue-pixarts-store">
    <g id="game-icon-v4-rogue-pixarts-store_05">
      <path d="M13.66,32.55c0,4.22,3.42,7.64,7.64,7.64s7.64-3.42,7.64-7.64-3.42-7.64-7.64-7.64-7.64,3.42-7.64,7.64ZM21.12,37.55l-3.99-.82c-.23-1.2-.65-2.38-1.31-3.71,3.44.05,1.45-.64,3.41-1.76.86-.49.07,2.22,3.78,2.74l-1.49,2.02c.07.42-.06,1.57-.4,1.52Z"/>
      <path d="M37.74,11.35l-5.79,5.69c-.43.43-.57,1.94-.47,2.19,2.46-.13,3.85-.07,6.28,1.14l3.13-2.87-.51-1.16c1.13-1.18,2.13-2.45,2.72-3.64-.24-.37-.63-1.06-.53-1.26l2.19-4.34c-2.49-.04-4.36.1-6.65.39l-.31-.95c-2.03.28-4.01,1.24-5.74,2.54l-.67-.96c-1.4,1.08-2.75,2.45-3.62,3.84,1.4,1.45,2.27,2.65,3.25,4.29,1.94-1.9,4.08-3.87,6.71-4.89Z"/>
      <path d="M16.81,2.03l-.45,1.03c-2.22-1.26-4.04-2.17-6.59-3.06l.47,4.85c-.68,1.39-.64,2.63.02,4.21l.5,1.18c.09.21-.78.67-.72.89.82,3.25,3.71,5.18,3.62,5.21l-.92.34,1.77,1.68c.58-2.75,1.49-4.45,3.39-6.15l-3.05-6.21c1.61,1.68,2.96,3.71,4.28,5.55l5.72-.84c-.41-1.92-1.3-3.61-2.39-4.84l-1.03.43c-1.34-1.8-2.81-3.16-4.62-4.26Z"/>
      <path d="M35.4,20.73c-3.38-.95-7.52,1.11-8.33,4.58,2.15,2.39,3.64,5.28,3.13,8.78,2.03,1.4,4.75,1.26,6.85.12,1.7-.92,3.11-2.96,3.48-5.23.62-3.86-1.68-7.27-5.13-8.24ZM38.82,30.58l-3.12.64c.11-1.11-.15-2.37-.67-3.62.83-.46,1.91-1.08,2.38-2.45l2.13,2.5-.72,2.93Z"/>
      <path d="M14.19,20.14c-3.12-1.55-6.49-.79-8.6,1.63-2.01,2.31-2.48,5.91-.58,8.53,1.7,2.34,4.17,4.03,7.25,3.11-.46-4.24,1.81-7.24,5.12-9.16-.57-1.57-1.7-3.37-3.18-4.11ZM8.95,23.98c-.39.71-1.43,1.58-2.73,1.79-.6.08-.95-1.66-.62-2.2.81-1.33,1.81-2.16,3.32-2.26.46.92.45,1.9.03,2.66Z"/>
      <path d="M27.94,14.12c-1.51-1.49-3.61-2.04-5.83-1.89-3.55.24-7.12,3.59-5.8,7.35.41,1.16,1.96,2.87,2.54,4.03,2.45-.38,4.58-.1,6.84.81,1.11-1.93,2.68-3.23,3.9-4.78,1.22-1.53-.55-4.43-1.66-5.53ZM24.1,18.09l-3.51.36-.95-1.65-.62-1.07c-.14-.25.52-.78.78-.93l2.39-1.36,2.94,1.74-1.05,2.91Z"/>
      <path d="M8.52,11.25c-1.45-.96-2.87.16-4.03.54l-4.49,1.48,2.88,2.75c.15.14.1.69.03,1.1.7.75,2.35,1.79,3.41,2.12,1.89-.73,3.63-1.22,5.54-1.67-1.39-2.46-3.72-2.05-5.87-3.11l4.11.17-1.57-3.38Z"/>
    </g>
  </g>
</svg>