<?xml version="1.0" encoding="UTF-8"?>
<svg id="Warstwa_2" data-name="Warstwa 2" xmlns="http://www.w3.org/2000/svg" viewBox="0 0 48.83 48.44">
  <g id="game-icon-v4-rogue-pixarts-store">
    <g id="game-icon-v4-rogue-pixarts-store_106">
      <path d="M19.31,23.31c-1.4-.2-1.85-1.3-2.09-2.65l-10.68-5.5c1.65,3.92,3.21,7.46,5.28,10.7.83.76,3.11.8,2.47,3.24-.25.97-1.09,1.82-2.6,1.95l-5.23,11.06,10.68-5.51c.14-1.53,1.01-2.51,2.24-2.64,2.02-.21,2.38,1.37,2.76,2.61l10.58,5.36c-1.74-4.08-3.46-7.57-5.25-10.91-1.28-.35-2.48-1.08-2.57-2.35-.13-1.96,1.47-2.32,2.63-2.8l5.34-10.67c-3.94,1.77-7.46,3.4-10.75,5.52-.59,1.21-.81,2.88-2.84,2.59ZM11.83,20.53l.88,3.4c-1.56-1.86-2.31-3.55-3.11-5.62,2.08.89,3.59,1.72,5.3,3.04-1.11-.18-2-.45-3.07-.81ZM9.53,38.99c.94-2.37,1.85-3.94,3.27-5.91l-.87,3.48,3.32-.8-5.72,3.23ZM19.63,30.95c-1.3,0-2.35-1.05-2.35-2.35s1.05-2.35,2.35-2.35,2.35,1.05,2.35,2.35-1.05,2.35-2.35,2.35ZM27.24,36.38l-.88-3.61c1.46,1.98,2.4,3.76,3.38,6.18-2.03-.98-3.57-1.84-5.53-3.17l3.02.6ZM29.82,18.33c-1.15,2.36-2.12,4.03-3.45,5.98l.92-3.65-3.38.96c1.79-1.38,3.66-2.55,5.91-3.29Z"/>
      <path d="M32.41,10.35l-5.39.38c-1.26.09-2.56,1.21-2.6,2.18.81.23,1.55.39,1.63.77.51,2.49-4.28,4.17-4.95,4.8,3-.19,5.21-1.74,7.71-2.78,1.14-.47,1.57-.97,1.6-2.46,4.11-1.39,7.98-.81,10.7-5.74l-2.4,1.07c2.92-5.4,4.78-6.61,10.12-8.56-2.83.09-5.51,1.22-7.81,2.9-3.63,2.65-3.22,7.07-8.61,7.45Z"/>
      <path d="M26.39,8.33l4.45-.35c1.95-.15,3.93-1.21,4.75-2.94-4.25,3.02-6.26.89-11.73,2.07-6.47,1.4-3.21,8.17-7.35,5.87-.29-1.76,1.37-3.85,3.09-4.7-2.97.06-4.49,2.51-5.11,5.1-1.89.37-3.49.52-4.88,1.87,1.15.75,2.23,1.37,3.1,1.71,3.65-1.9,7.29-.29,8.31-4.47.59-2.42,2.93-3.97,5.37-4.16Z"/>
      <path d="M36.34,17.93c-4.61.38-6.85,6.19-6.61,10.24,1.02-2.47,1.68-4.53,3.75-5.82.4.75.89,1.59,1.41,1.76,2.81.91,5.94-3.71,6.23-7.89.28-4.1,2.39-7.2,5.83-9.1-4.96,1.12-7.6,5.47-8.4,10.06-.26,1.51-1.35,3.39-2.76,3.25-.37-.04-.56-.94-.39-1.19l.92-1.32Z"/>
      <path d="M43.48,18.18l.14-3.65c-1.86,6.81-1.29,10.3-9.39,13.17-2.04.72-3.67,4.05-3.63,6.1.04,1.91,1.08,3.52,1.97,5.02l1.99-2.64c.81-1.08,1.61-1.94,1.86-3.17.2-.98-.47-2.46-1.44-2.99.1,1.8.29,3.8-1.68,3.8-.52-.86-.34-2.75.38-3.72,1.48-2,9.38-1.72,9.78-11.91Z"/>
      <path d="M16.67,48.44c4.85-.4,8.9-3.18,12.59-6.55l-5.42-2.95c-1.91,2.81-3.9,4.49-6.48,6.38,2.85-.78,4.94-2.45,7.12-4.38l1.13-.17c.19-.03.31.77.11,1.03-1.9,2.49-5.69,5.39-9.05,6.65Z"/>
      <path d="M7.45,20.37l-1.25-2.3C2.71,21.55.49,25.92,0,30.72c1.77-4.22,3.83-7.67,7.45-10.35Z"/>
      <path d="M8.66,22.79c.06-.21-.68-.58-.89-.4-1.44,1.28-3.33,3.94-3.92,6.1,1.37-1.67,2.77-3.36,4.35-4.91.19-.18.4-.59.46-.79Z"/>
    </g>
  </g>
</svg>