<?xml version="1.0" encoding="UTF-8"?>
<svg id="Warstwa_2" data-name="Warstwa 2" xmlns="http://www.w3.org/2000/svg" viewBox="0 0 41.37 43.27">
  <g id="game-icon-v4-rogue-pixarts-store">
    <g id="game-icon-v4-rogue-pixarts-store_101">
      <path d="M20.39,25.9c2.35.53,4.21-.66,5.7-2.14,2.93-2.88,5.71-5.65,8.86-8.41-1.77,3.46-12.24,11.09-10.11,14.9,6.31-6.56,12.89-12.89,16.54-21.47-8.61,4.1-14.73,10.43-20.99,17.11Z"/>
      <path d="M12.67,16.98c2.26.47,4.07-.59,5.52-2.04,2.87-2.87,5.49-5.74,8.66-8.27l-8.68,9.95c-1.18,1.35-1.57,3.32-1.26,4.96,6.11-6.53,13.07-13.3,16.32-21.59-7.85,3.49-14.48,10.61-20.56,16.98Z"/>
      <path d="M2.33,34.49c2.17.28,3.4-1.64,3.48-3.7l6.9-6.52-2.81-2.76-6.48,7.25c-1.38.4-3.33.54-3.41,2.6-.06,1.28.57,2.9,2.33,3.13ZM2.76,30.39c.73,0,1.32.59,1.32,1.32s-.59,1.32-1.32,1.32-1.32-.59-1.32-1.32.59-1.32,1.32-1.32Z"/>
      <path d="M7.91,40.64c.09,1.39,1.13,2.55,2.55,2.62,3.37.16,2.06-2.73,4.51-4.81,2.01-1.72,3.8-3.55,5.64-5.53l-2.86-2.6c-1.98,2.11-4.04,4.51-5.91,6.83-.66.82-4.14.3-3.94,3.5ZM10.67,41.87c-.76,0-1.37-.61-1.37-1.37s.61-1.37,1.37-1.37,1.37.61,1.37,1.37-.61,1.37-1.37,1.37Z"/>
      <path d="M16.41,17.58l-2.78.53c-.73.14-1.16.32-2.07.79-.37-.46-1.09-1.6-1.58-2.41-.72-.12-1.2,1.32-.76,2.16,1.42,2.73,3.75,5.02,6.52,6.33.51.24,1.77-.7,1.84-.98l-2.48-1.52c.49-.6.6-.83.7-1.4l.61-3.52Z"/>
      <path d="M24.19,26.38l-4.83,1.15c-.49-.62-1.03-1.53-1.49-2.36-3.01,2.06,2.91,6.89,4.8,8.2,1.08.74,2.57.4,2.95-.63-.97-.48-2.07-1.06-2.6-1.42.44-.77.65-1.15.69-1.44l.48-3.49Z"/>
    </g>
  </g>
</svg>