<?xml version="1.0" encoding="UTF-8"?>
<svg id="Warstwa_2" data-name="Warstwa 2" xmlns="http://www.w3.org/2000/svg" viewBox="0 0 48 47.21">
  <g id="game-icon-v4-rogue-pixarts-store">
    <g id="game-icon-v4-rogue-pixarts-store_49">
      <path d="M39.14,47.21c-.13-3.45-.7-6.85-2.14-10.16-.6-1.37-2.51-1.78-3.98-2.45.06-2.6.75-5.14,1.7-7.63l-4.52-.35c2.95-1.02,6.12-1.36,9.36.09l-3.8,3.32c.89.83,1.8,1.24,2.75,1.4l-1.22-1.16,4.06-1.43c3.19-1.12.81-3.85,3.74-4.71.53-.15,1.77-1.19,1.58-1.71-.52-1.43-1.63-3.05-2.67-4.01-3.43-3.18-.36-2.54-4.34-5.9-1.14-.96-2.4-1.4-3.73-.48l.94.39s-1.17,1.77-.41,1.68l1.15-.14v1.7s1.4-.08,1.4-.08l-.16,3.02c-4.86-2.12-3.34-2.67-7.94-4.68,2.75-3.14,3.9-7.54,1.74-11.19C31.75,1.19,29.88.1,28.5.01c-1.76-.11-3.58.44-4.57,1.97-1.23,1.91-2.76,7.76-.44,10.18-3.28-.43-7.72-1.54-9.53,2.26l-6.44-1.89c-.44-.13-1.08-.8-1.37-1.11-.24-.26-.09-1.41.26-1.6,3.89-2.09,9.31.5,13.38-2.42l-3.08-2.16,5.46-.62-5.59-.32c-.5-.03-1.54.47-2.15.8l1.84,1.79c-2.64,1.31-12.78-1.05-13.38,3.34-.39,2.86,4.45,3.79,6.47,4.91l-4.68,4.04c-2.61,2.25,4.01,5.94,5.54,6.8l.51,4.38-6.84-1.48c-.53-.11-1.98-.76-1.82-1.3.31-1.05,1.54-1.48,2.51-2.25-.92-.28-5.08,1.29-4.54,2.94.91,2.83,9.01,1.67,11.92,3.86-1.88.81-3.17,1.52-4.81,2.51-1.26.77-3.27,1.14-3.78,2.81-.93,3.05-1.47,6.1-1.61,9.39l3.05-7.9c.47-1.21,1.91-2.17,3.07-2.76,2.16,3.65,5.24,6.17,9.15,7.62-2.98-2.31-5.71-4.96-7.01-8.66.4-.56,1.98-1.38,2.55-1.03l4.42,2.78-3.52-5.04c-1.25-1.78-1.39-3.48-.89-5.53.82-3.38,3.01-12.92,8.34-11.82,3.25.67,5.5,3.51,6.29,6.29-1.03-1.03-2.02-1.84-3.07-2.45,2.02,3.54,3.8,7.12,4.44,11.27-.93,2.13-2.64,3.91-3.98,5.73,1.59-.61,2.94-1.6,4.2-2.62.17,1.11.74,1.71,2.17,2.77l-3.23,3.64,4.55-2.56c1.59-.89,3.53,1.66,4.01,2.94l2.86,7.69Z"/>
      <path d="M47.99,33.1c.19-2.26-5.25-2.74-6.49-2.59,1.56.65,2.92,1.12,3.95,2.13-.14.85-1.28,1.6-2.07,1.81l-4.54,1.22c1.64.34,8.95-.12,9.16-2.58Z"/>
      <path d="M24.83,24.83c.13-.21.31-.86.1-.84-.14.01-.7-.01-.83.06l-2.49,1.35c1.28,1.25,2.65.39,3.22-.57Z"/>
      <path d="M15.71,24.26c.36.67.87,1.39,1.32,1.58.51.22,1.58.01,2.03-.28-1.21-1.08-2.1-1.35-3.34-1.3Z"/>
    </g>
  </g>
</svg>