<?xml version="1.0" encoding="UTF-8"?>
<svg id="Warstwa_2" data-name="Warstwa 2" xmlns="http://www.w3.org/2000/svg" viewBox="0 0 52.46 50.44">
  <g id="game-icon-v4-rogue-pixarts-store">
    <g id="game-icon-v4-rogue-pixarts-store_90">
      <path d="M49.27,36.81c-1.74-7.99.54-12.02-6.5-21.02l-2.97,3.08c3.76,4.18,5.75,9.09,6.28,14.59.15,1.59.72,3.09,1.18,4.67l-30.4-3.78,1.41-2.87c.14-.29-.4-1-.69-.94-2.17.49-1.76,1.53-3.01,1.1l-1.29-26.85c1.73.73,3.35,1.28,5.13,1.51,4.84.63,9.24,2.25,13.12,5.05l3.09-2.73c-7.85-5.93-14.67-4.13-19.82-5.63C12.32,2.26,13.01-.29,11.48.03c-.36.07-.96.92-.9,1.28.18,1.01.83,1.96,1.49,2.83l1.49,31.17,10.19,1.02,23.75,2.97,3.34,1.7c.44.22,1.57-.49,1.61-.99.13-1.7-2.66-.79-3.19-3.2Z"/>
      <path d="M0,45.92c0,.35.38,1.15.64,1.41l2.93,2.89c.51.5,2.12.05,2.55-.51,5.35-7.07,4.46-9.34,12.93-12.71-2.25-.51-4.41-.53-6.51-.49l-.36-5.38c-2.53,3.11-1.64,5.33-5.25,8.58-1.95,1.76-3.88,3.19-6.04,4.77C.5,44.77,0,45.5,0,45.92Z"/>
      <path d="M42.91,14.18l-1.7-2.01-20.38,18.53c-1.03.93-1.91,1.43-2.25,2.9,1.4.23,2.6.33,3.97.25,3.15-4.66,6.56-8.86,11.39-12.01,2-1.31,3.72-2.4,5.28-3.96l3.69-3.7Z"/>
      <path d="M19.21,30.31c.17-.02.71-.14.87-.28L46.9,5.68l.95,1.77,3.45-7.03-7.45,3.1c.59.32,1.1.6,1.85,1.15l-26.69,24.52c-.48.44-.02,1.14.2,1.11Z"/>
      <path d="M36.41,8.81c-2.27,2.03-4.99,3.64-6.79,5.98-2.1,2.74-3.88,5.18-6.79,7.18l-5.78,3.97c-1.45,1-2.13,2.28-1.3,4.24,1.15-.59,1.99-1.17,2.92-2.02l19.81-18.07c-.27-.77-1.61-1.69-2.07-1.28Z"/>
      <path d="M25.86,31.21c.92.71,2.07.44,2.93-.33l7.07-6.38c.64-.57.79-2.09.59-2.91-4.24,2.48-7.65,5.75-10.59,9.62Z"/>
      <path d="M49.34,12.72c.77-.46.44-2.29-.05-2.9-1.69-2.09-.4.34-2.85-2.13-.15-.15-.75.36-.67.55.64,1.49,1.53,1.13,2.58,3.27l-4.15,2.14c.24-.12-2.33,3.59,5.15-.94Z"/>
      <path d="M17.17,39.2c-3.61,1.37-1.63,4.46-4.64,5.33-.22.06-.23.76-.02.86,1.42.65,3.11-1.34,3.76-2.94,1.4-3.45,4.93-2.68,4.57-5.29-1.42.9-2.4,1.57-3.66,2.04Z"/>
      <path d="M43.14,4.09c-.78-1.16-2.34-2.62-3.82-1.27-1.01.92-2.08,3.35-2.42,4.6-.06.2.76.76.91.61.15-.15.52-.5.63-.69l2.08-3.58,2.41,1.75c.2.15.96-.32.81-.54l-.59-.88Z"/>
    </g>
  </g>
</svg>