<?xml version="1.0" encoding="UTF-8"?>
<svg id="Warstwa_2" data-name="Warstwa 2" xmlns="http://www.w3.org/2000/svg" viewBox="0 0 39.73 51.19">
  <g id="game-icon-v4-rogue-pixarts-store">
    <g id="game-icon-v4-rogue-pixarts-store_01">
      <path d="M0,51.19c.84-.18,1.75-.41,2.36-.52.36-.07,1.41.23,1.59-.06l1.13-1.85.85,2.22,3.04-.04c1.53-.02,3.09.27,4.52-.18.71-.22,1.31-.36,2.02-.36l8.2-.08,1.02-1.88c1.24.09,1.03,1.94,2.2,2.01.32.02.85-.21,1.27-.38.28-.12.85.36,1.13.56,1.33-.14,3.09-.2,4.59-.13.34-.24.77-1.07,1.05-1.57.22.46.67,1.74,1.15,1.77l3.24.25c.06-1.53.14-2.9-.17-4.22-.21-.9-.04-1.52-.02-2.35.04-1.75-.34-3.72-.47-5.49l-1.53-.37,1.64-1.06-.28-4.76-1.68,1.91c.03-1.64,1.58-2.54,1.85-4.08.3-1.7.43-3.62.4-5.33l-.09-5.17-3.28.07,3.17-1.52c.61-1.44.19-3.32.02-4.84,1.06-1.39.58-5.62.07-7.52.19-.85.8-2.19.76-3.17l-.12-2.99-3.77.45c-.35.04-1.06.43-1.35.57-1.47-.53-3.08-.32-4.14,1.17l-1.1-1.87-7.75.59-.74,1.61c-.64-1.19-1.09-1.45-2.11-1.45-2.8.01-5.41-.26-8.27-.67l-.24,1.6c-.64-1.13-.78-1.84-1.92-1.67-.55.08-.96.58-1.7,1.39l-.71-1.41L.15,0l.2,2.57c.06.75.44,1.66.8,2.24-.4.37-.82,1.08-.76,1.74l.57,6.37c.06.62,1.45,1.15,1.99,1.35-.12.15-.35.42-.35.41,0,0,.27.13.37.18l2.29,1.11c-2.11.65-2.59-1.4-3.69-.83-1.67.86-.36,9.61-.39,9.81-.3,2.57-1.44,8.75-.29,10.94l1.94-.66-2.06,2.09c-.39,2.31-.74,5.82-.57,8.07.03.34,1.01.85.86,1.08-1.25,1.91-.88,1.78-1.07,4.72ZM5.63,42.14c2.41-.43,4.67-.49,7.06.2-2.29.26-4.67.36-7.06-.2ZM6.38,35.37l1.17-.1.65,2.54.62-1.96c.06-.18.03-.54.16-.53l.81.08.7,2.87.61-2.96.94.06-1.27,4.84-.79-.09c-.11-.01-.22-.34-.25-.45l-.46-2.08c-.22.77-.51,1.87-.68,2.4-.07.2-.94.11-1-.1l-1.21-4.51ZM20.62,35.44l-.22,5.01c-1.4-.95-1.58-1.84-2.51-3.13l.05,2.64c.05.22-.88.15-.89-.11l-.05-4.52c.25-.08,1.07.04,1.22.27l1.37,2.11c.63-1.35-.7-2.83,1.02-2.28ZM23.76,40.15l-1.24.05.06-4.06-1.08.17c-.2.03-.13-.91.07-.91l2.69-.08c.18,0,.65.27.67.42.02.15,0,.6-.16.58l-1.06-.16c-.07,1.21-.04,2.55.05,3.99ZM22.42,41.91v.72s-4.27-.06-4.27-.06v-.72s4.27.06,4.27.06ZM21.22,43.9v.79s-3.96-.03-3.96-.03v-.79s3.96.03,3.96.03ZM17.55,41.85v.74s-4.2.01-4.2.01v-.74s4.2-.01,4.2-.01ZM14.91,40.28l-.22-1.14c-.05-.24-1.01-.49-1.1-.26l-.43,1.05c-.11.27-.98.28-1.01.17l1.38-4.75,1.23.02,1.38,4.69-1.23.22ZM8.02,43.82h8.35s0,.83,0,.83h-8.35s0-.83,0-.83ZM14.19,46.68l-5.22-.03v-.8s5.23.03,5.23.03v.8ZM18.01,46.69l-3.01-.05v-.77s3.03.05,3.03.05v.77ZM24.31,46.73l-5.3-.03v-.8s5.3.03,5.3.03v.8ZM25.98,46.74v-.8s2.68,0,2.68,0v.8s-2.68,0-2.68,0ZM31.63,44.72l-6.67-.02v-.81s6.67.02,6.67.02v.81ZM33.86,42.64c-3.72-.05-7.34.27-11.24-.34-1.27-.53,14.51-.82,11.24.34ZM26.79,36.97c.13.14.38.24.71.38l.51.2c1.12.44-1.22.14-1.24,1.12,0,.24.35.88.58.8l1.17-.42c-.08-.21.3.15.27.3l-.18.87-2.99-.04.12-4.88c.91.04,2.26.12,2.94.19.13.01,0,.77-.13.75l-.76-.11c-.19-.03-.65-.02-.84,0-.19.02-.29.68-.16.82ZM35.31,1.59c.36-.1,1.38.29,1.88.7.38.31.44,1.02.52,1.7-.51,0-.86.08-.98-.09-1.17-1.57-1.74-1.6-1.41-2.31ZM34.69,5.27c1.71.99,1.83,4.02.08,5.15-.96.61-2.53.39-3.37.27.27-1.91.23-3.69,0-5.69.84-.07,2.39-.25,3.29.27ZM32.56,35.87c1.08.98,1.12,2.96-.15,4-.65.53-2.24.42-2.84.29l.05-4.69c.62-.23,2.22-.25,2.93.4ZM26.76,4.93l3.39.04c.18,0,.48.97.29,1-.18.02-.45,0-.8-.04l-1.19-.1c-.26-.02-.32.81-.28,1.06s.53.4.9.48l.5.11c.1.02-.12.52-.21.54-.32.09-.98.17-1.13.37-.19.24-.08,1.02.08,1.28s.94.2,1.27.09l.9-.29c.19-.06.06.89,0,1.25h-3.76c.3-2.08.31-3.78.04-5.78ZM21.97,4.94l3.34-.07c.19,0,.65.31.68.48.03.17-.02.76-.18.72l-1.25-.31.03,4.89-1.45.14.11-5.05-1.29.37c-.22.06-.21-1.16.01-1.17ZM30.03,12.66l-.09,20.94-20.04-.08.09-20.94,20.04.08ZM18.04,5.19l1.8,2.81c.1-1.18.07-1.84,0-3.07l1.13.04-.22,4.81-.05.89c-.01.22-.9-.06-1.02-.24l-1.91-2.98c-.09,1.34-.07,2.04,0,3.21l-1.15-.05c.21-2.03.21-3.71-.06-5.64.12-.12,1.25-.12,1.47.22ZM12.47,4.86l1.55.06,1.63,5.8-1.7-.05c.03-.57.12-1.03.01-1.33-.11-.29-1.08-.32-1.38-.24-.35.1-.34.81-.34,1.49l-1.4.03c.77-2.05,1.28-3.73,1.63-5.76ZM4.08,4.86l1.66.03c.09,1.28.24,2.18.61,3.37l.77-3.31,1.08-.03.89,3.56.6-3.58,1.15.02-1.4,5.69-1.19.03-.77-2.8-.64,2.52c-.08.32-1.07.36-1.23.11l-1.53-5.61Z"/>
      <path d="M10.71,32.71c1.42-1.05-.5-3.18,2.65-4.32,1.33-.48,2.5-1.07,3.8-1.91-1.54-4.69-2.22-2.68-1.6-6.41.23-1.37-.23-2.85,1.12-3.97,2.46-2.05,3.02-1.54,6.08-.49,1.84.94,1.31,3.14,1.63,4.63.76,3.45-.28,1.79-1.56,6.27,1.19.73,2.16,1.24,3.38,1.75,3.58,1.49,1.3,3.17,2.96,4.57l.14-8.9v-1.56c.02-1.45,0-3.23-.18-4.67l.21-2.13c.06-.63-.13-1.82-.71-2.13l-17.97-.07-.07,3.44.06,5.66c.04,3.94-.12,6.5.06,10.22Z"/>
      <path d="M34.61,7.78c.02-1.06-.44-2.3-1.75-1.83l.05,3.95c1.54.08,1.68-1.03,1.7-2.12Z"/>
      <path d="M32.19,37.28c.01-.53-.54-1-1.43-1.23l.07,3.52c1.72-.55,1.35-1.33,1.37-2.29Z"/>
    </g>
  </g>
</svg>