<?xml version="1.0" encoding="UTF-8"?>
<svg id="Warstwa_2" data-name="Warstwa 2" xmlns="http://www.w3.org/2000/svg" viewBox="0 0 53.33 50.21">
  <g id="game-icon-v4-rogue-pixarts-store">
    <g id="game-icon-v4-rogue-pixarts-store_89">
      <path d="M36.11,9.73c.15.28.3.98.25,1.31-.62,4.32-5.92,4.01-4.01,6.11l2.41,2.64c1.96,2.15,2.27-3.17,6.61-3.46.42-.03,1.38.3,1.64.6.26.3.36,1.31.13,1.74l-1.89,3.47c6.24-2.01,10.69-8.99,12.08-14.83l-5.79,4.51c-1.29,1.01-2.99,1.37-4.34.39l1.45-3.96-3.88,1.16c-2.08-2.41,4.12-7.36,5.77-9.4-6.77,1.56-13.65,4.84-16.22,11.18l4.16-1.96c.37-.17,1.46.17,1.64.51Z"/>
      <rect x=".93" y="30.08" width="36.6" height="3.27" transform="translate(-16.36 21.28) rotate(-42.44)"/>
      <path d="M15.52,31.5l-6.24-.02L0,40.16c2.03.41,3.99.65,6.06.71l9.46-9.37Z"/>
      <path d="M9.48,50.21l9.26-8.49c.3-2.11.47-3.8.4-6.12l-9.81,8.61.14,6Z"/>
    </g>
  </g>
</svg>