<?xml version="1.0" encoding="UTF-8"?>
<svg id="Warstwa_2" data-name="Warstwa 2" xmlns="http://www.w3.org/2000/svg" viewBox="0 0 51.85 55.84">
  <g id="game-icon-v4-rogue-pixarts-store">
    <g id="game-icon-v4-rogue-pixarts-store_39">
      <path d="M28.68,36.42c1.22-1.96.05-7.71,2.51-7.48,2.65,5.19-2.36,11.57.81,12.67.46.16,1.54-.47,1.69-.91,1.1-3.36-3.08-5.82.79-14.35-.46-.93-1.11-2.06-1.07-2.72.05-.73.97-1.88,1.65-2.32.82-.54,1.77-2.83,1.2-3.62-1.17-1.64-2.56-3.02-3.95-4.3-4.33,3.18-4.77.82-5.22,1.31-.93,1.01-2.52,4.48-5.4,2.74-1.27-.77-2.24-2.36-1.37-4,.11-.21.28-.69.34-.87.06-.17-.72-.12-.74.07-.13,1.05-1.3,2.84-2.07,3.74.76.96,1.69,2.39,1.49,3.28-.34,1.47-2.21,1.53-3.42,1.75-.41,1.2-.78,3.29-1.85,3.97-2.92,1.89-5.33-.44-6.33,1.33-.21.37-.2,1.57.22,1.57.5,0,1.51-.11,1.95-.21l1.87-.42c.43-.1,1.28,1.01,1.17,1.51-.34,1.63-1.9,3.64-3.35,4.42-2.63,1.41-3.04,3.42-3.94,5.92-1.24,3.42-3.94,6.04-5.68,9.45l8.25-5.35c.59-.38,2.38-.33,2.68.29,2.11,4.29-1.31,7.27-.51,10.62.19.79,1.61,1.48,2.28,1.32,2.49-.61,1.44-4.49.71-6.3-1.42-3.53-.38-6.29,2.05-8.88,1.06-1.13,2.44-3.91,4.61-2.68,2.32,1.2-2.09,9.56,1.34,8.59,3.45-.98-4.63-9.81,5.85-13.24l1.42,3.11ZM26.75,24.73c-2.36,2.85-1.76,5.33-4.11,8.47.2-1.54.32-2.52.31-4.16-1.14.76-1.62,1.32-1.98,2.16-2.54,6.05-7.64,2.93-12.41,9.68,2.23-7.26,6.45-5.29,10.54-12.06l-2.74-.32c2.91-2.28,4.68-.1,7.22-4.63l-3.25.43c1.38-1.33,3.07-1.63,4.99-2.25,2.54-.82,4.58-2.75,6.98-4.22-2.2,3.34-4.12,6.11-5.14,10.07l-.41-3.17Z"/>
      <path d="M46.22,7.4c.52-.53,1.44-1.31,1.41-1.92-.08-1.69-2.97-3.5-4.01-2.52-2.75,2.62-4.98,4.59-8.12,7.15l4.06,4.37c1.05-1.23,1.68-1.97,2.64-2.95l4.02-4.13Z"/>
      <path d="M32.64,9.18c-.42-.37-1.77-.49-2.26-.25-.48.23-.86,1.45-.68,1.86,4.24,1.19,8.63,6.1,9.78,10.48.72-.51,1.49-1.16,1.7-1.69.8-2.01-6.7-8.79-8.54-10.4Z"/>
      <path d="M46.99.02c-.77.12-1.81,1.01-2.1,1.57,1.98.81,2.97,1.44,3.23,3.49,1.16.33,2.59.55,3.65.41C52.43,2.78,48.61-.24,46.99.02Z"/>
    </g>
  </g>
</svg>