<?xml version="1.0" encoding="UTF-8"?>
<svg id="Warstwa_2" data-name="Warstwa 2" xmlns="http://www.w3.org/2000/svg" viewBox="0 0 47.78 48.56">
  <g id="game-icon-v4-rogue-pixarts-store">
    <g id="game-icon-v4-rogue-pixarts-store_32">
      <path d="M21.89,20.5c.17-1.15.22-1.92.53-2.37.87-1.27,6.54,1.2,7.89,6.24.12.45.06,1.72-.36,1.75l-2.24.2,3.51,2.85c6.81-6.68,12.85-13.68,16.56-22.58l-7.49,7.63c-.99,1.01-7.27,7.72-8.31,5.25-.48-1.14-.06-2.43.18-3.53-12.44,3.53,7.85-14.1,9.03-15.95-8.71,4.16-15.86,10.25-22.07,17.34.97,1.3,1.86,2.27,2.77,3.16ZM35.57,20.7l4.53-3.96c-1.98,3.14-4.3,5.46-7.12,8.04l-.72-2.62c1.12-.42,2.54-.79,3.31-1.47ZM30.26,8.99c-1.64,2.6-3.61,4.13-4.19,7.07l-2.57-.82c2.42-2.61,4.22-4.37,6.76-6.25Z"/>
      <path d="M15.49,28.91c1.1,1.35.48,2.73-.09,4.17,1.15-.26,3.29-1.44,3.96,0,.53,1.15-.85,3.15-1.78,4.11l-11,11.37c7.86-3.28,16.77-10.93,22.06-17.08l-2.67-2.99-.58,2.23c-.41,1.59-7.95-1.89-8.07-7.34-.01-.58,1.51-.79,2.31-.93l-2.94-2.67C9.83,26.31,3.74,33.38,0,42.22c2.95-2.51,12.16-14.08,15.49-13.31ZM21.74,32.98l2.52.63c-2.34,2.69-4.59,4.85-7.37,6.77,1.95-2.67,3.92-4.39,4.86-7.4ZM14.75,24.26l.61,2.31c.08.29-1.07.49-1.4.67-2.52,1.33-4.28,3.31-6.35,5.08,2.09-3.02,4.48-5.54,7.14-8.06Z"/>
    </g>
  </g>
</svg>