<?xml version="1.0" encoding="UTF-8"?>
<svg id="Warstwa_2" data-name="Warstwa 2" xmlns="http://www.w3.org/2000/svg" viewBox="0 0 51.37 39.1">
  <g id="game-icon-v4-rogue-pixarts-store">
    <g id="game-icon-v4-rogue-pixarts-store_76">
      <path d="M47.99,27.3l.5-3.11-2.85,1.35c.44-.99.99-2.05,1.12-2.77.12-.66-.65-1.92-.92-2.4,1.06-1.08,1.97-2.09,2.98-3.43-1.71-1.33-3.23-1-4.83-.47l-.19-3.73c-1.52-.23-2.34.88-3.46,2.26-.54-2.18-1.67-4.21-3.35-5.06-1.24.7-1.57,2.75-.69,4.2-.34.49-1.19,1.4-1.5,1.64l-.81-2.67c-1.77.1-2.2,1.88-3.26,3.35-.45-1.71.39-3.53,1.52-4.66l2.85-2.83-1.82-.85,2.78-2.29c-1.72-2.06-3.69-1.25-5.52-.03l-.46-3.27-2.35,1.04-1.86-3.59-2.26,4.07c-1.19-1.18-2.34-1.95-3.9-1.69l1.37,4.41-3.21-1.44-.58,3.67-2.58-4.01c-1.51,1.32-1.01,3.23-.72,5.24l-2.93.44c.49,2.01,1.59,2.77,3.16,3.75l-1.02,1.63-3.1-1.33c-.99,3.63.97,4.17,1.51,7.12.04.19-.49.12-.62,0-.97-.81-2.2-3.28-4.48-2.63l-.07,2.69-3.06.07.98,2.41c-1.85.62-3.09,1.24-4.37,3.12l4.21,1.43-2.51,3.68c.91,1.14,2.39,1.79,3.84,2.28l-2.65,1.99,4.7,2.19,36.37-.04c1.8,0,3.37-1.13,5.1-1.95l-1.98-1.99c1.66-.38,2.76-.77,3.93-2.23l-2.26-2.39,2.61-1.48c-1.09-1.21-2.13-1.58-3.38-1.72ZM19.52,33.26l-3.22.03c-2.11.02-3.94-1.52-5.11-3.38,1.65-.61,3.16-.43,4.47.04l-.58-4c2.93,1.05,4.66,4.13,4.45,7.3ZM22.92,23.27c-2.3.37-4.19-1.04-4.7-4l2.69.65.51-4.46c1.51,1.07,1.85,2.47,2.27,4.18l2.4-1.64c.35,2.62-1.29,4.97-3.17,5.27ZM33.49,34.05l1.15-2.17c-1.93-1.76-3.88,5.52-3.63,1.79.25-3.63-3.21-1.38-1.85-7.51.92.79,1.53,1.66,2.4,2.98.49-2.78,1.73-4.97,4.23-6.06.18,2.01-.05,4.17-.51,6.25,1.44-.16,2.76-.21,4.03.04-.89,3.09-3.29,4.73-5.83,4.68Z"/>
      <path d="M8.81,16.26c-1.61-3.74-4.83-4.23-7.66-2.74,1.76,2.7,4.92,4.55,7.66,2.74Z"/>
      <path d="M43.99,1.67c-2.97.58-5.33,3.12-5.08,6.74,2.75-.76,5.06-3.13,5.08-6.74Z"/>
      <path d="M9.04,6.97c-.48-.66-1.58-1.31-2.64-1.78-.43,3.26.6,6.44,2.88,8.07-.25-3.28.89-4.72-.24-6.29Z"/>
      <path d="M45.84,8.66c-1.92-1.29-3.75-.68-5.02,1.14,1.71,1.26,3.88.76,5.02-1.14Z"/>
    </g>
  </g>
</svg>