<?xml version="1.0" encoding="UTF-8"?>
<svg id="Warstwa_2" data-name="Warstwa 2" xmlns="http://www.w3.org/2000/svg" viewBox="0 0 42.73 49.75">
  <g id="game-icon-v4-rogue-pixarts-store">
    <g id="game-icon-v4-rogue-pixarts-store_06">
      <path d="M33.38,21.87l-.13-1.01c1.51.03,2.28-.35,3.09-1.24,4.42-4.92,7.75-12.64,5.83-19.62-3.89,4.8-8.53,8.26-13.65,11.35-2.04,1.23-3.14,3.54-4.62,5.33-2.35,2.85-3.85,3.65-6.02,6.72l7.13,6.83c.77-2.6-1.48-3.56,1.43-6.43l6.53-6.46c2.65-2.62,4.37-5.79,5.7-9.01-.36,4.13-2.75,7.09-5.29,9.82l-6.21,6.02c-1.3,1.26-1.84,2.96-1.01,4.7l6.22-5.94c.28-.27,1.03-.73.99-1.06Z"/>
      <path d="M2.55,48.59c2,1.01,4.66,1.84,6.69.35-2.54-5.47,3.95-8.73,6.57-11.58,1.31-1.43.69-4.55,4.04-4.66l-2.26-1.44c-.18-.12-.87-.44-.79-.64l.43-1.06c-.84-.97-1.98-1.78-3.35-2.53C8.94,31.84,3.32,36.9.38,43.22c-1.03,2.21.11,4.32,2.17,5.37ZM4.18,43.07c.78,0,1.42.63,1.42,1.42s-.63,1.42-1.42,1.42-1.42-.63-1.42-1.42.63-1.42,1.42-1.42Z"/>
      <path d="M15.71,22.8l-.9,3.39,3.38,3.13c-.09.86.36,1.49,1.17,1.72,4.74,1.32,3.68,3.87,5.37,4.08.23.03.85-.47.92-.74.2-.79-.47-2.38-1.15-3.04l-8.79-8.53Z"/>
    </g>
  </g>
</svg>