<?xml version="1.0" encoding="UTF-8"?>
<svg id="Warstwa_2" data-name="Warstwa 2" xmlns="http://www.w3.org/2000/svg" viewBox="0 0 53.18 50.53">
  <g id="game-icon-v4-rogue-pixarts-store">
    <g id="game-icon-v4-rogue-pixarts-store_63">
      <path d="M7.2,11.55l1.3-3.36,11.58,11.05,26.92,26.12c.38.37,1.08.57,1.41.38.32-.18.34-1.16-.06-1.55l-18.86-18.42L9.82,6.68l3.16-1.21C9.3,3.84,6.09,2.36,2.31,1l4.89,10.55Z"/>
      <path d="M3.07,46.53l1.29-.81c.15-.39-1.12-1-1.6-.8-.52.22-1.13,1-1.3,1.5l-1.45,4.1c5.46.11,10.12-4.09,10.64-9.7.62-6.72-2.79-10.38-.33-14.49l.58,4.29c1.32-8.88,5.43-5.24,5.72-8.3.21-2.26-3.83-4.15-6.77-3.01.28.55.63.99.46,1.21l-.69.85c-6.46,7.97,1.83,17.27-2.34,20.38-.55.41-1.69.54-2.46.14-.72-.37-1.09-1.71-.61-2.19.36-.37,1.28-.39,2.16-.44-.09-.35-.89-1.2-1.38-1.28-.43-.07-1.32.27-1.76.61-.89.69-1.03,2.34-.63,3.34.31.77,1.6,1.8,2.61,1.75l2.71-.14c-.49,1.66-3.03,5.04-4.64,4.1-.26-.15-.45-.96-.2-1.13ZM11.34,21.18c.93.04,1.64.29,2.31.91l-3.9,2.06c.29-1.03.79-1.95,1.59-2.97Z"/>
      <path d="M47.41,3.45c.02.24.22.94.39.83,1.24-.77.87-1.7,1.44-1.49l.73.27c1.45.53-2.37,4.21-4.38,4.38.23-1.42.53-2.65.16-3.84-.35-1.12-1.63-1.83-2.5-1.91-1.07-.09-2.21.39-2.76,1.32-.24.41-.3,1.67,0,2.02.25.3.85.6,1.18.72-.16-1.07-.2-1.87.48-2.3.43-.27,1.57,0,1.94.53.52.76.33,1.98-.15,2.67-2.83,4.09-11.31-4.39-19.65.95-.71.45-1.48.68-2.31.72-.97,1.82-.69,4.39.88,6.11.34.38,1.48.76,1.94.59,2.52-.94-.62-4.41,8.02-5.16-1.34-.49-2.71-.67-4.09-.8,1.19-.72,2.86-1.08,4.31-.74l6.79,1.58c6.54,1.52,12.78-3.24,13.37-9.89l-3.91,1.01c-1.14.29-1.95,1.24-1.86,2.44ZM24.23,12.23l-.88-2.46c1.07-.91,2.1-1.47,3.35-1.83-.99,1.57-1.46,2.39-2.47,4.29Z"/>
      <polygon points="41.52 36.34 48.38 43.11 52.58 43.13 46.01 36.63 41.52 36.34"/>
      <path d="M46.21,49.69l-.17-4.34-6.91-6.46c-.36,5.45,3.46,7.02,7.08,10.8Z"/>
      <path d="M11.77,42.79l15.03-14.29c.2-.19.35-.85.11-.96-.17-.08-.81-.02-.98.14l-13.53,13.03c-.54.52-.75,1.28-.63,2.08Z"/>
      <rect x="27.17" y="17.23" width="19.74" height="1.26" transform="translate(-2.09 30.49) rotate(-43.63)"/>
      <path d="M19.57,14.42c.26.66,1.38,1.9,2.01,2.07.31.08.99-.93.77-1.22l-1.52-2.08c-.31-.04-1.42.84-1.26,1.24Z"/>
      <path d="M18.28,19.29c.02-.23-1.68-2.32-2.21-1.77-.21.23-.95.87-.76,1.11l.9,1.07c.28.33.91.93,1.19.72.31-.24.84-.79.88-1.12Z"/>
    </g>
  </g>
</svg>