<?xml version="1.0" encoding="UTF-8"?>
<svg id="Warstwa_2" data-name="Warstwa 2" xmlns="http://www.w3.org/2000/svg" viewBox="0 0 37.09 56.89">
  <g id="game-icon-v4-rogue-pixarts-store">
    <g id="game-icon-v4-rogue-pixarts-store_09">
      <g>
        <path d="M26.62,33.23c1.82,2.58.78,5.84-1.44,8.5,3.76-.39,8.5-3.8,7.74-8.08-.37-2.12-1.83-7.22-3.11-10.21l-3.62,4.6.93-6.24c.54-3.64-2.58-6.81-5.32-8.94-2.56-1.98-3.66-4.36-2.46-7.63-3.55,1.29-5.73,5.55-3.7,8.77,1.31,2.07,2.84,3.76,2.51,6.47l-1.26-2.26c-.82,3.12-2.04,5.71-3.89,8.4-.22-2.83.07-5.26-2.48-6.85-.15,2.12-.53,4.59-2.17,6.04-3.67,3.23-3.53,9.25-.96,12.17.11.12.88-.43,1.01-.3l.71.66c1.61,1.48,3.44,2.64,5.62,2.86-2.97-2.51-3.65-6.58-1.02-9.54l1.08,3.5,2.72-3.02c1.44-1.6,1.63-3.86,1.47-6.11,3.91,2.2,5.23,6.53,3.53,11.02,1.87-.41,3.06-1.86,4.1-3.81Z"/>
        <path d="M12.33,48.03c1.98-1.02,3.44-2.3,3.41-4.73l-6.05,1.81,1.95-2.14-9.17,3.78c2.08,1.66,2.95,2.58,3.3,4.65l6.56-3.37Z"/>
        <path d="M32.16,52.92c2.09,1.13,3.45-.31,4.11-1.22.57-.79,1.21-2.61.54-3.54-.46-.64-2.66-.36-3.39-.19l.03-1.42c-4.1-.71-7.59-4.44-9.81-2.16-.55.56-.67,2.67,0,3.22,1.73,1.4,4.45,2.78,6.69,3.79l.04-1.51c.37-.04.89-.03,1.11-.24l1.01-.99c-.51,1.11-1.44,3.65-.32,4.26Z"/>
        <path d="M22.08,44.05l-.93-.43c-.56-.26.37-2.1-1.02-2.83-2.4-1.27-4.47,7.58-5.32,9.28.76-.26.94-.33,1.58-.66l5.3,1.67.38-7.04Z"/>
        <path d="M18.33,56.86c1.02-.14,2.83-1.52,2.8-2.68-.07-2.62-2.6-3.87-4.14-3.5-2,.48-3.85,2.33-2.87,4.52.52,1.17,2.91,1.85,4.21,1.66Z"/>
        <path d="M.5,47.88c-1.58,1.92.89,5.29,3.37,4.88.65-.79.27-2.8-.18-3.81-.37-.83-2.6-1.79-3.19-1.07Z"/>
      </g>
      <g>
        <path d="M25.26,3.82c-.15-1.2-1.28-2.61-2.56-3.82l-.02,3.83c0,1.61,0,3.11.09,4.79,1.75-.73,2.72-2.98,2.5-4.8Z"/>
        <path d="M30,14.16l-.85-.98c-.17-.2-.73,1.15-.67,1.4l1.4,5.81c2.72-1.91,1.73-4.4.13-6.23Z"/>
        <path d="M11.88,17.63c1.23-2.72-.04-4.84-1.05-7.08-2.12,2.22-1.52,5.29,1.05,7.08Z"/>
      </g>
    </g>
  </g>
</svg>