<?xml version="1.0" encoding="UTF-8"?>
<svg id="Warstwa_2" data-name="Warstwa 2" xmlns="http://www.w3.org/2000/svg" viewBox="0 0 53.84 50.38">
  <g id="game-icon-v4-rogue-pixarts-store">
    <g id="game-icon-v4-rogue-pixarts-store_83">
      <path d="M37.56,12.23c.77,1.43,1.65,2.47,2.91,3.23l4.67-4.63,1.99,5.51L53.84,0l-16.9,5.97,5.48,2.24-4.86,4.03Z"/>
      <path d="M20.8,20.83c2.06-.25,4.11.36,5.9,1.1l6.1,2.53c2.21.92,4.64.89,6.98.44-2.5,2.27-5.88,2.07-9.42,1.26,2.62,2.24,6.5,2.7,9.59,1.23,2.02-.96,3.42-2.88,3.84-4.7.52-2.25.03-4.53-1.46-6.12,0,1.94.15,3.82-1.46,4.87-6.2,4.04-12.84-6.3-21.69-3.06-4.06,1.49-6.13,6.03-3.75,9.97-.33-3.66,1.32-7.03,5.36-7.51Z"/>
      <path d="M5.16,43c.5.88,1.22,1.55,2.04,1.9l22.05-20.17c-.89-.66-1.84-1.09-2.94-1.34L5.16,43Z"/>
      <path d="M6.15,40.85l9.73-9.33c-5.86.29-5.95-.49-9.64,3.34l1.27.52c-4.39,1.27-4.13,1.97-7.5,4.99,2.36.29,4.04.42,6.15.47Z"/>
      <path d="M13.41,46.04l1.48-2.96.56,1.53,2.9-2.74c.42-2.21.82-3.94.9-6.56l-9.92,8.8-.03,6.27c1.63-1.39,3.26-2.65,4.11-4.34Z"/>
      <path d="M28.78,29.47c.68,1.31,1.16,2.81.84,4-.81,3.04-4.65,3.22-7.26,3.58,2.72,1.13,5.86.96,8.14-1.07,1.12-1,1.66-2.69,1.13-4.18-.37-1.03-1.65-2.14-2.85-2.34Z"/>
      <path d="M34.54,19.93l4.43-4.03-2.05-2.15-5.38,5c.95.58,2.06,1.11,3.01,1.18Z"/>
      <path d="M29.76,17.9c-1.15-2.43-3.7-3.47-6.1-3.5-2.14-.03-4.59.82-5.91,2.82,4.05-1.96,7.96-1.32,12.01.68Z"/>
      <path d="M35.7,12.29l.63-1.61c-2.33-1.57-8.4-.86-7.96,2.25,2.23-1.74,4.63-1.92,7.33-.63Z"/>
    </g>
  </g>
</svg>