<?xml version="1.0" encoding="UTF-8"?>
<svg id="Warstwa_2" data-name="Warstwa 2" xmlns="http://www.w3.org/2000/svg" viewBox="0 0 50.1 56.96">
  <g id="game-icon-v4-rogue-pixarts-store">
    <g id="game-icon-v4-rogue-pixarts-store_44">
      <path d="M50.1,12.12c-3.38,6.66-7.85,12.04-14.32,15.97-3.59-5.52-6.87-10.84-9.07-17.48,5.93-.14,11.06,3.27,14.67,7.74-2.09-5.83-7.32-9.47-13.29-10.8l-2.92-7.56-2.85,7.57c-5.71,1.28-11.1,4.56-12.91,10.24,3.67-4.2,8.55-7.27,14.12-7.18-2.04,6.71-5.36,11.97-8.94,17.44C7.83,24.05,3.05,18.27,0,11.39c1,8.18,5.56,14.93,12.27,20.05l-6.94,10.39-4.06-.26,5.47,5.02c1.71,1.57,4.07,1.61,5.95.22,1.93-1.42,3.42-3.5,4.05-5.93-1.01,1.04-5.25,5.23-6.27,3.07-.79-1.67,4.18-7.63,5.46-9.68,6.06,1.8,8.93,7.52,7.76,13.76l-1.72-.87,3.19,9.8,2.93-9.12c-.66-.05-1.33,0-1.39-.3-1.1-4.93,1.34-11.55,7.52-13.26,2.27,2.77,4.52,5.87,6.18,9.18-.8,1.22-2.94,1.07-3.82.15l-3.25-3.38c.89,3.4,3.05,7.03,6.86,7.59,2,.29,3.96-1.64,5.24-2.86l3.71-3.55-3.93.68-7.23-10.62c6.44-4.79,11.26-11.21,12.11-19.35ZM25.22,34.71c-2.08-1.62-4.38-3.05-6.59-4.21l6.58-11.67,6.44,11.7c-2.48,1.35-4.47,2.68-6.43,4.19Z"/>
    </g>
  </g>
</svg>