<?xml version="1.0" encoding="UTF-8"?>
<svg id="Warstwa_2" data-name="Warstwa 2" xmlns="http://www.w3.org/2000/svg" viewBox="0 0 48.2 47.54">
  <g id="game-icon-v4-rogue-pixarts-store">
    <g id="game-icon-v4-rogue-pixarts-store_25">
      <path d="M11.65,40.33h-1.89c1.46-.72,2.85-1.01,4.61-1.35,4.81-.94,6.66-5.39,10.26-6.21l-1.53,1.53c1.73,0,4.01-1.52,3.65-3.3-.34-1.67-2.73-1.15-3.91-2.53l3.79.73c.78-.74.4-2.31-.57-2.77-1.72-.83-3.46-1.3-5.18-1.42.54-1.31,2.06.12,2.96-.32,2.7-1.31,5.15-2.61,7.56-4l2.2-1.26-.53-.5c2.51-1.21,4.98-2.55,7.46-4.15-4.96,1.31-9.5,3.11-14.07,5.29-2.9,1.39-5.76,2.21-8.85,2.47.99-1.11,2.4-.89,3.54-1.35l5.78-2.32-1.29-.61,3.55.04-1.88-.81c1.21.09,2.27.05,3.48-.44-.4-.6-1.33-.78-2.07-.58l-9.06,2.47c-6.42,1.75-4.32,2.84-8.98,4.31,2.99-2.08,4.46-5.8,2.79-9.27-.22-.46-1.25-.99-1.59-.77-.52,2.86-1.14,5.87-3.25,7.89-3.88,3.71-1.87,5.73-4.01,9.54-1.27,2.25-2.99,4.28-4.54,6.37l-.07,10.54,6.45-.03c1.74-2.62,3.36-4.95,5.2-7.18Z"/>
      <path d="M38.26,2.06c.02-.51-.58-1.5-1.07-2.06H10.11c.14,2.68,2.4,4.27,4.07,6.09,1.24,1.66-.3,4.38.29,6.03.75,2.08,1.57,3.84,1.18,6.44l6.89-2.04,3.06-.8-2.33-1.07c-2.58-1.19-4.81-2.95-5.16-5.93,1.03,1.6,2.33,3.27,4.21,3.99,2.47.95,11.93,3.98,13.26,1.09.46-1.01.13-3.38-.33-3.59l-1.59-.7,1.62-.16c.41-.04,1.11-.42,1.21-.79.51-1.72-4.01-1.27-5.54-1.05,1.62-1.02,3.28-1.85,5.66-1.3l-.19-2.66c.53-.31,1.82-.92,1.84-1.49Z"/>
      <path d="M42.43,15.29l-6.3,3.91,2.06.93-.4,5.79c.94-1.77,1.55-3.96,1.81-6,.32-.32,1.08-.73,1.62-.9.25,8.19-4.9,14.08-9.89,19.23,2.08-.98,3.56-2.25,5.27-3.66-3.76,6.08-12.27,10.04-19.32,11.94,7.59-.57,14.49-3.82,19.92-8.97,5.98-5.67,8.95-12.99,9.51-21.42.71,2.91.29,5.78.03,9.01,1.41-4.32,1.77-8.72,1.26-13.52l-5.56,3.66Z"/>
    </g>
  </g>
</svg>