<?xml version="1.0" encoding="UTF-8"?>
<svg id="Warstwa_2" data-name="Warstwa 2" xmlns="http://www.w3.org/2000/svg" viewBox="0 0 55.99 28.47">
  <g id="game-icon-v4-rogue-pixarts-store">
    <g id="game-icon-v4-rogue-pixarts-store_78">
      <path d="M50.91,17.28c-.43-.04-1.93.49-1.84.07l2.32-10.91c-2.71,3.8-4.88,7.4-6.69,11.4-.27.59-.19,1.44-.98,1.69l-15.75,5.06-15.44-5.03c-.77-.25-.85-1.03-1.17-1.65-2.03-3.97-4.26-7.65-6.8-11.36l2.27,10.85c.1.46-1.37-.11-1.82-.12-1.3-.01-3.55.51-5.01,1.07l27.95,10.1,28.03-10.05c-1.79-.51-3.84-1.01-5.08-1.13Z"/>
      <path d="M25.03,21.46c.34,1.97,5.14,2.12,5.82.14L27.88,0l-2.84,21.46Z"/>
      <path d="M15.86,19.22c1.89.67,3.39,1.13,5.15,1.44L15.32,2.72l.54,16.51Z"/>
      <path d="M40.56,2.79c-2.22,6.02-3.94,11.63-5.58,17.99,1.9-.36,3.59-.89,5.13-1.72l.45-16.27Z"/>
      <path d="M24.05,12.25l-2.13-6.87-.88,7.81c-.07.59-.41,1.38-.63,2.56,1.74-.22,2.87-.44,4.3-1.13.56-.27-.49-1.8-.66-2.37Z"/>
      <path d="M34.82,13.57l-.87-8.15-2.2,6.93c-.19.6-1.12,2.1-.51,2.28l4.06,1.22c.53-.93.06-1.69-.49-2.29Z"/>
      <path d="M41.41,17.22c.37.32,1.42.66,1.82.36.33-.24.61-.82,1.17-1.84l-2.9-.45c-.49-.08-.46,1.61-.09,1.93Z"/>
      <path d="M11.73,16.11c.72,1.3,1.74,1.85,2.31,1.53.42-.23.76-1.61.55-2.12-.55-.46-2.42.09-2.86.59Z"/>
    </g>
  </g>
</svg>