<?xml version="1.0" encoding="UTF-8"?>
<svg id="Warstwa_2" data-name="Warstwa 2" xmlns="http://www.w3.org/2000/svg" viewBox="0 0 59.34 49.14">
  <g id="game-icon-v4-rogue-pixarts-store">
    <g id="game-icon-v4-rogue-pixarts-store_123">
      <path d="M44.32,12.06l-9.35-.77c-2.73-.22-5.36-.15-7.96.16l.06-1.26c.01-.22-.67-.73-.91-.74l-9.45-.19-5.36,8.67c-.44.71-.3,2.27.1,2.87.51.76,1.85,1.13,2.52.73,1.74-1.03.82-3.75,4.7-7.4l3.48.32-5.15,10.31c-1.09,2.19,0,5.63,1.93,6.44l8.51,3.55-3.75,10.81c-.26.74-.12,2.9.49,3.13l7.24.15c.32,0,1.21-.43,1.18-.77-.03-.34-.42-1.08-.7-1.25l-3.47-2.11,5.22-10.15c.9-1.75.16-3.96-1.41-4.8l-6.58-3.51,5.81-8.29-1.82-1.01,15.22-.65c1.13-.05,2.48,1.56,3.66.12.61-.75,1.34-2.21.86-3.25-1.25-2.69-3.34-.97-5.08-1.11Z"/>
      <path d="M1.56,39.65c-.3.36-.6,1.35-.68,2.02l-.66,6.12c-.05.51.73,1.37,1.11,1.35.37-.02,1.17-.52,1.38-.98l1.58-3.44c8.88-4.43,9.56-1.52,15.6-11.09-2.25-1.33-3.73-2.6-4.63-5.41l-3.73,6.95-8.01,4.32c-.44.24-1.68-.2-1.98.16Z"/>
      <path d="M34.75.85c-1.06-.9-2.59-1.07-3.82-.59-1.56.6-2.76,2.21-2.98,3.63-.31,1.98.1,4.05,1.6,5.14,1.35.98,3.8,1.29,4.99.44,1.92-1.37,2.22-2.75,1.86-4.86-.24-1.4-.82-3.05-1.65-3.75Z"/>
      <path d="M53.59,13.07c-2.33.6-1.78-3.27-2.93-3.05l-1.25.24c1.61,2.51,1.55,4.76.18,7.43,2.64,1.08,1.22-3.46,3.99-2.88,2.03,0,3.57.09,5.77-.73-2.07-.95-3.66-.97-5.75-1.01Z"/>
      <path d="M24.86,4.94l-12.48.62,4.72.6,7.94.48c.34.02.93-.79.81-1.03-.13-.24-.72-.68-.99-.67Z"/>
      <path d="M11.43,12.12l-11.43.66c.66.23,1.98.62,2.62.64l7.52.25c.54.02,1.39-.38,1.66-.57.2-.13-.07-1-.38-.98Z"/>
      <path d="M26.19,2.99v-.84c0-.23-.72-.23-.95-.22l-9,.5,8.84,1.11c.22.03,1.11-.31,1.11-.54Z"/>
    </g>
  </g>
</svg>