<?xml version="1.0" encoding="UTF-8"?>
<svg id="Warstwa_2" data-name="Warstwa 2" xmlns="http://www.w3.org/2000/svg" viewBox="0 0 55.49 46.89">
  <g id="game-icon-v4-rogue-pixarts-store">
    <g id="game-icon-v4-rogue-pixarts-store_07">
      <path d="M4.97.96L0,.53l1.08,10.61,1.63.23,1.13,3.59c.18.58-.81,1.58-1.4,1.88-1.75.9-1.37,2.66-.85,4.1l1.17,3.25-1.58,1.89c1.59,4.45-3.63,6.11,3.47,11.55.83.63,1.97,1.46,2.51,2.15.94,1.19,3.61,5.36,4.13,6.88,1.34.74,2.83-.47,3.05-2.02.07-.5.46-1.39.65-1.71l1.56,3.01,5.06-.13c.97-.03,3.34.56,3.59-.68.51-2.46,2.19-4.09,4.91-3.56,2.77.54,3.47-3.83,5.55-1.06l1.9,2.52c.49.65.56,1.34.35,2.39,4.09,1.32,2.6-1.16,7.1-.19.66-1.13,1.39-2.79,1.52-4.33.1-1.19-1.45-2.49-2.15-3.42-.45-.62.15-2.58.83-2.95,2.18-.88,4.59-1.99,6.04-3.86,1.43-1.84,2.96-3.58,3.66-5.65l-1.72-3.15c-.4-.73-1.76-1.76-2.23-2.43-.21-1.42,1.69-1.45,2.11-2.09l1.74-2.63.57-2.82c.31-1.53-.02-3.45-.67-4.81-.32-.25-1.05-.54-.9-.76,1.48-2.14.92-2.9,1.19-5.81L49.12.01c-3.79-.32-1.87,5.08-5.79,4.9l-1.83-.63c-2.69-2.28-2.95-.6-5.94.14l-.11-.76c-.01-.1-.13-.25-.19-.17l-.5.7-1.6-.99c-2.76-1.71-1.49-2.4-2.75-2.75-2.38-.67-2.44,1.89-6.37.94-2.63-.64-5.41-.75-8.05-.8-.16,1.87-.62,4.18-2.09,5.21-1.96,1.37-6.51-3.43-5.11-5.06-1.26.17-2.62.34-3.83.24ZM44.43,27.36c-.03.28-.64.95-.82.8-.18-.15-.42-.61-.41-.85l.16-3.11c1.61.2,1.2,1.79,1.07,3.16ZM45.76,13.31c.89-.77,2.02,4.46.3,3.9l-.73-3.4c-.03-.12.34-.42.43-.5ZM45.9,18.93c.26.09.08.85-.09,1.1l-1.31,1.87c-.11.15-.43.4-.58.49-.2.13-.6-.74-.48-.93l1.49-2.33c.12-.19.76-.27.97-.2ZM41.98,9.62c.67.28,2.11.95,2.76,1.28.18.09-.03.95-.23.95-.2,0-.6-.07-.81-.17l-1.61-.79c-.2-.1-.58-.36-.73-.46-.19-.13.4-.9.61-.81ZM41.76,30.08c.14-.11.51-.26.67-.31.2-.07.61.77.45.91-.55.5-1.66,1.41-2.48,2.07l-.72-.51c-.13-.09.2-.69.33-.8l1.76-1.37ZM35.8,11.22c.6-.8,2.57-2.33,3.87-.94l-2.79,1.44c-.24.12-1.23-.28-1.07-.5ZM34.06,31.16c.19-.08.71-.22.93-.12l2.87,1.26c-.06,1.81-5.04-.62-3.8-1.14ZM9.66,37.51l1.39-.9c.27-.18.17-.95.23-1.27,1.32-.03,1.81-.39,2.68-1.72l1.48,5.65-5.78-1.77ZM11.99,30.68l-.79,3.24c-2.59-.96,1.48-6.04.79-3.24ZM13.13,28.64c1-.79,2.65-1.53,3.9-.68-.15,1.1-5.26,1.75-3.9.68ZM19.12,28.74l-.16-1.21,3.64-.48.16,1.21-3.64.48ZM31.81,26.32l.65,1.38c.41.87,1.09,1.83-.1,2.26-.62-.84-1.31-2.42-1.5-3.4.21-.19.86-.45.96-.24ZM29.59,20.73c.87.58,2.41,3.02.95,3.88l-1.45-3.27c-.06-.12.39-.68.5-.61ZM26.79,23.94c-.02-.11.73.58.65.71-.47.77-1.6,2.87-3.17,1.98l2.52-2.69ZM25.63,17.23l-.38,1.22-3.46-1.09.38-1.22,3.46,1.09ZM9.32,12.5c-.13-.13.22-1.05.4-.98l.91.33.61-2,4.52,4.36,3.35-3.48c.25-.26,1.3-.39,1.46-.13.16.26-.03.75-.18,1.19.6-.12,1.08-.2,2.1-.26l-4.62,4.58,4.42,5.2-1.87-.1v2.12s-4.63-5.06-4.63-5.06l-4.3,5.32-.7-1.63c-.7.01-1.04.01-1.52-.21l4.38-5.39c-1.35-1.14-3.29-2.84-4.33-3.85Z"/>
      <path d="M50.6,38.12l.89.67c.14.11.31-.39.46-.66,1.99-3.37,3.15-7.05,3.04-10.97-2.3,4.06-3.02,5.7-7.37,8.01-.54.29-2.26.93-1.59,1.67,2.06,2.29,2.55,4.74.87,7.57,3.19-1.06,3.78-3.67,3.7-6.29Z"/>
      <path d="M.05,36.28l.68,4.2,1.81,2.48c1.18,1.62,2.45,3.12,4.41,3.17-1.9-1.76-2.13-3.69-1.66-5.81-2.68-.36-4.2-1.8-5.24-4.04Z"/>
    </g>
  </g>
</svg>