<?xml version="1.0" encoding="UTF-8"?>
<svg id="Warstwa_2" data-name="Warstwa 2" xmlns="http://www.w3.org/2000/svg" viewBox="0 0 47.97 48.03">
  <g id="game-icon-v4-rogue-pixarts-store">
    <g id="game-icon-v4-rogue-pixarts-store_88">
      <path d="M.83,33.27c2.39,8.15,9.54,13.8,17.56,14.64,8.6.89,16.71-3.24,20.7-10.88,3.77-7.2,2.84-15.81-2.12-22.18l-2.54,2.55c2.88,4.33,4.19,9.22,2.82,14.47-1.93,7.41-8.62,12.27-15.88,12.58-7.34.31-14.21-4.12-16.75-11.19-2.71-7.55.3-16,7.12-20.16,6.02-3.67,13.42-3.16,19.14.77.91-.82,1.66-1.56,2.52-2.54-7.09-5.6-17-5.8-24.36-.81C1.78,15.47-1.72,24.6.83,33.27Z"/>
      <path d="M28.3,16.48c-5.55-3.74-12.36-2.9-16.88,1.35-4.5,4.22-5.65,11.16-2.35,16.6,3.59,5.92,10.9,8.05,17.21,5.34,3.74-1.61,6.4-4.86,7.4-8.23,1.25-4.2.47-8.21-1.94-11.59l-2.53,2.58c1.88,2.97,1.99,6.22.39,9.53-1.09,2.25-3.63,4.43-6.81,5.11-4.27.91-8.3-1.09-10.41-4.26-2.33-3.49-2.01-7.78.28-11.07,2.88-4.13,8.92-5.39,13.12-2.7l2.52-2.65Z"/>
      <path d="M20.77,24.56l1.21-3.13c-3.98-.88-7.51,2.13-7.69,5.83-.19,3.82,2.96,6.83,6.87,6.6,3.85-.23,6.71-3.68,5.66-7.48-1.1.35-2.42.86-3.25,1.41-.38,1.76-1.62,2.78-3.2,2.51-1.38-.23-2.48-1.35-2.34-3.03.1-1.25,1.11-2.43,2.75-2.71Z"/>
      <path d="M44.24,3.92c-.17-.14-.91-.16-1.16.09l-17.65,17.56-1.41-1.54-2.51,6.83,6.76-2.42-1.73-1.52L44.39,5.31c.31-.31.09-1.2-.14-1.39Z"/>
      <path d="M44.51,6.57c-2.18,1.93-3.9,3.7-6.02,6.01,1.2.17,2.24.16,3.46.05l6.01-5.98c-.92-.28-2.84-.63-3.46-.08Z"/>
      <path d="M41.95,0l-6.01,6.05c-.21,1.2-.27,2.35-.05,3.73l6.16-6.08c.23-.92.09-2.62-.1-3.71Z"/>
    </g>
  </g>
</svg>