<?xml version="1.0" encoding="UTF-8"?>
<svg id="Warstwa_2" data-name="Warstwa 2" xmlns="http://www.w3.org/2000/svg" viewBox="0 0 46.14 48.1">
  <g id="game-icon-v4-rogue-pixarts-store">
    <g id="game-icon-v4-rogue-pixarts-store_113">
      <path d="M27.77,24.58c-2.09-.59-4.6.06-6.12,1.55l-12.74,12.48c3.29-4.31,6.89-8.15,10.53-12.21,1.89-2.11,2.96-4.71,2.33-7.66C13.35,27.57,4.93,36.59,0,48.1c10.73-4.98,19.17-14.94,27.77-23.51Z"/>
      <path d="M31.67,26.18c1.86-1.17,1.76-3,.76-4.82-1.94-3.54-4.87-6.17-8.36-7.94-1.44-.73-2.99-.33-3.86,1.07,5.52,1.9,9.91,5.98,11.46,11.7Z"/>
      <path d="M28.29,21.17c-1.17-1.29-2.35-2.43-3.69-3.41-.38-.28-1.48.53-1.5.97-.07,1.52-.28,3.69-.47,5.11l5.02-.81c.55-.09.99-1.47.64-1.86Z"/>
      <path d="M42.69.23c-1.93-.76-4.32.41-4.75,2.61l1.97.29c.57-.47,1.08-.87,1.46-1.02.38-.15,1.28.59,1.46.99l1.14,2.58c1.91-1.97.77-4.63-1.28-5.44Z"/>
      <path d="M31.15,11.16l1.3,6.13c1.29-.97,1.74-2.33,1.73-3.81l-1.07-4.8c-.91.49-2.13,1.69-1.96,2.48Z"/>
      <path d="M38.78,4.05c-.38-.05-1.27.21-1.43.5-.15.28-.17.88-.11,1.28l.82,5.19c1.18-1.46,1.92-2.64,2.71-4.07.07-1.33-.73-2.71-1.99-2.89Z"/>
      <path d="M36.17,5.71l-2.18,2.09,1.28,6.07c1.12-.6,1.98-1.9,1.76-3.17l-.86-4.98Z"/>
      <path d="M27.59,14.32l3.79,3.37c-.11-2.12-.53-3.69-1.29-5.94l-2.5,2.58Z"/>
      <path d="M41.54,3.76c-.08.17-.19.64-.15.86l.59,2.89,1.96-.12-1.41-3.2c-.13-.3-.89-.65-.99-.43Z"/>
      <path d="M17.54,15.7c-.43-.63-1.24-1.38-1.91-1.55-.81-.21-1.88.46-2.1,1.33,1.35.39,2.43.39,4,.22Z"/>
      <path d="M11.53,24.99c-.37-1.49-2.14-2.02-3.43-1.92.36,1.67,2.21,2.49,3.43,1.92Z"/>
      <path d="M7.99,22.27c.45.32,1.43.49,2.11.52l-1.31-2.12c.11-.23.52-1.3.36-1.69l-1.16-2.8c-.47.56-.98,1.93-.62,2.44l1.33,1.95-1.55-.81c0,.81.23,2.08.84,2.51Z"/>
      <path d="M10.8,13.73c-1.57.29-2.08.92-2.15,1.68-.08.87.1,1.47.74,2.36l1.42-4.04Z"/>
      <path d="M19.4,18.59c-.57-1.32-.9-1.99-1.4-2.19-.68-.26-1.78-.15-2.43.11,1.2,1.26,2.46,1.79,3.84,2.08Z"/>
      <path d="M11.67,13.57c-.51.29-.8,1.24-.73,2.16,1.47-.7,2.32-1.17,3.58-1.96-1.01-.63-1.96-.7-2.86-.19Z"/>
      <path d="M32.86,36.72c-1.24.93-1.6,2.4-1.26,3.93,1.51-.63,2.15-2.46,1.26-3.93Z"/>
      <path d="M19.66,40.75c.63.45,1.62.42,2.43.03-1.29-1.28-2-1.73-3.31-2.36.04.88.36,1.96.88,2.33Z"/>
      <path d="M37.5,33.46c1.11-1.53.96-2.83.51-3.99-1.58,1.2-1.65,3.02-.51,3.99Z"/>
      <path d="M38.87,42.57c-1.5.72-2.15,2.02-2.2,3.47,2.16-.3,2.44-2.03,2.2-3.47Z"/>
      <path d="M39.74,24.46c.65-.48,1.38-1.23,1.42-1.76.04-.59-.33-1.55-.7-2.21-1,1.16-1.08,2.42-.72,3.97Z"/>
      <path d="M30.8,38.72c-1.34.99-1.77,2.48-1.82,4.01,1.74-.72,2.52-2.34,1.82-4.01Z"/>
      <path d="M34.76,26.6c-1.4.86-2.07,2.35-1.24,3.81,1.56-1.07,1.54-2.5,1.24-3.81Z"/>
      <path d="M44.21,16.5c1.05-1.85-.18-3.03-1.44-3.68-.32,1.53.39,2.86,1.44,3.68Z"/>
      <path d="M42.48,38.34c-1.04,1.15-1.53,2.65-.84,4.28,1.61-1.1,1.62-2.76.84-4.28Z"/>
      <path d="M43.16,19.4c1.13-1.42.71-3.07-.81-3.94-.59,1.6-.06,2.87.81,3.94Z"/>
      <path d="M18.93,35.52c-.95,1.58.47,2.94,1.94,3.34-.1-1.4-.73-2.85-1.94-3.34Z"/>
      <path d="M30.57,30.61c-1.41.98-1.63,2.89-.52,4.14,1.22-1.4.93-2.63.52-4.14Z"/>
      <path d="M35.53,28.52c1.62-.93,1.84-2.37,1.4-3.91-1.46.81-1.85,2.41-1.4,3.91Z"/>
      <path d="M40.8,40.66c-1.36.92-1.69,2.48-1.44,3.97,1.81-.9,2.13-2.41,1.44-3.97Z"/>
      <path d="M25.37,43.45c.49-.4.83-1.08,1-1.81l-2.62.83v-.06s-.79,1.17-.79,1.17c.86.18,1.89.29,2.42-.14Z"/>
      <path d="M20.14,41.63c.78,1.69,2.21,1.5,3.59.78l-.1-.92-3.49.14Z"/>
      <polygon points="23.74 42.42 23.73 42.42 23.73 42.42 23.74 42.42"/>
      <path d="M29.78,45.47l2.06-.71-1.98-1.33-1.9.72c.54.73,1.34,1.49,1.82,1.32Z"/>
      <path d="M32.23,46.68c.45-.05.85-.5,1.84-1.38l-.76-.7-3.13,1.42c.71.4,1.47.72,2.05.66Z"/>
      <path d="M45.84,31.82c-.26-.53-1.3-.97-2.07-.63.5,1.33,1.19,2.13,2.11,3.09.34-.8.36-1.65-.04-2.45Z"/>
      <path d="M29.1,37.31c.3-1.85.21-2.77-.24-4.21-.57.59-1.14,1.54-1.05,2.2.1.67.75,1.56,1.29,2.01Z"/>
      <path d="M42.78,29.81l3.25,1.33c-.33-1.34-.71-2.05-1.27-2.2-.65-.18-1.73.05-1.98.88Z"/>
      <path d="M44.19,33.58c-.43,1.32-.1,2.66.78,3.76,1.21-1.54.62-3.1-.78-3.76Z"/>
      <path d="M36.12,32.06c-1.16,1.16-1.22,2.66-.41,4.17,1.01-1.22,1.48-2.91.41-4.17Z"/>
      <path d="M41.62,27.64c-.46.34-.72,1.46-.65,2.17l3.11-1.79c-.6-.51-1.84-.84-2.46-.38Z"/>
      <path d="M40.8,27.53c-.92.32-1.89.94-1.98,1.54-.09.66.03,1.62.3,2.23,1.16-1.54,1.43-2.44,1.67-3.77Z"/>
      <path d="M34.43,34.51c-.98,1.02-1.15,2.45-.6,3.9,1.38-.97,1.66-2.6.6-3.9Z"/>
      <path d="M37.85,26.47c1.68-.93,1.52-2.43,1.02-3.81-1.25.79-1.68,2.5-1.02,3.81Z"/>
      <path d="M36.39,44.14c-1.3.32-2.43,1.42-2.69,2.6,2.24.26,2.63-1.3,2.69-2.6Z"/>
      <path d="M41.7,22.16c1.35-1.22,1.21-3.13-.22-3.97-.54,1.36-.4,2.79.22,3.97Z"/>
      <path d="M42.82,10.06c-.41,1.4.48,2.8,1.87,3.4.64-1.99-.55-2.75-1.87-3.4Z"/>
      <path d="M43.38,36.07c-.6,1.48-.41,2.81.14,3.99,1.4-1.3,1.22-3.02-.14-3.99Z"/>
      <path d="M32.67,28.57c-1.41.75-2,2.42-1.03,3.78,1.19-1.06,1.31-2.35,1.03-3.78Z"/>
      <polygon points="13.04 26 9.52 25.43 11.73 27.77 13.04 26"/>
      <path d="M28.76,41.39c0-.25-.72-.65-.8-.54l-1.92,2.6c1.57.59,2.67-.9,2.72-2.05Z"/>
      <path d="M27.01,38.26c.08.48,1.21.99,1.71.81-.14-1.48-.44-2.05-1.33-2.97-.28.61-.49,1.54-.38,2.16Z"/>
      <path d="M42.42,8.54c.54.81,1.18,1.34,2.18,2.05,0-.62-.07-1.34-.21-1.99-.11-.48-1.58-.56-1.96-.06Z"/>
    </g>
  </g>
</svg>