<?xml version="1.0" encoding="UTF-8"?>
<svg id="Warstwa_2" data-name="Warstwa 2" xmlns="http://www.w3.org/2000/svg" viewBox="0 0 49.47 50.58">
  <g id="Warstwa_1-2" data-name="Warstwa 1">
    <g id="game-icon-v6-elemental-pixarts-store_247">
      <path d="M8.75,30.86c1.12,6.81-3.09,9.35-4.11,14,1.92-2.63,2.99-4.87,4.71-7.78,1.05,1.01,2.6,2.7,3.35,3.69.35.45-.11,2-.61,2.22l-2.09.88,2.44.13-.25,4.15c.41-2.14,1.57-6.61,2.92-7.88,3.09-2.89,3.52-1.91,8.43-1.5l-11.24,11.81c2.02-1.38,3.57-2.87,5.25-4.53l16.03-15.85c-6.07,2.6-7.24,10.09-14.87,6.82,6.33-6.42,12.52-11.94,18.05-18.65-6.61,5.51-12.21,11.71-17.98,18.07-1.51,1.66-3.36,2.82-5.31,4.19-1.37-1.71-4.14-3.79-2.79-5.11-1.46,1.43-.8-5.11-.78-5.39.1-.97,1.7-2.76,2.65-2.78l5.37-.11c-1.14,1.54-2.33,2.35-3.24,4.18,6.4-5.64,12.3-11.93,18.23-18.88-1.32-.33-1.63,1.43-2.58,2l-11.44,11.62c-1.79.49-4.04.57-6.04.44l8.18-9.74c-2,1.82-3.78,3.46-5.59,5.39L1.01,37.63c3.01-2,5.01-4.39,7.74-6.76Z"/>
      <polygon points="38.74 11.2 44.47 11.52 49.47 0 38.54 5.25 38.74 11.2"/>
      <path d="M35.69,10.96c-.44,1.79-2.6,2.32-1.64,4.49.28.64,1.74,1.48,2.32,1.04l2.91-2.16,1.94,4.66,2.72-6.48-6.06-.67-.41-6.05-6.21,2.98,4.44,2.17Z"/>
      <path d="M39.63,28.47l4.75.52,4.79-10.22c-3.83,1.64-6.52,2.99-9.88,4.69l.34,5.01Z"/>
      <path d="M34.68,17.91c-1.29-1.03-1.75-1.49-2.46-2.33-6.04,6.92-12.04,13.63-17.72,20.91l20.18-18.58Z"/>
      <polygon points="27.52 10.17 31.61 0 22.22 4.77 22.6 10.04 27.52 10.17"/>
      <path d="M38.34,23.89l-5.31,2.54,3.86,2.08c-1.27,1.37-1.98,2.04-1.78,3.02.14.72,1.61,1.82,2.16,1.43l2.36-1.66,1.79,4.11,2.34-5.45-5.09-.82-.34-5.25Z"/>
      <path d="M18.3,12.48c.14.77,1.24,2.06,2.02,2.42l2.65-1.99,1.78,3.7,2.28-5.35-5.26-.61-.67-5.24-5.1,2.6,4.14,2.03-1.83,2.46Z"/>
      <path d="M17.11,14.29c-2.73,3.53-5.41,6.78-7.79,10.41,3.74-2.87,6.66-5.6,9.93-8.65l-2.14-1.76Z"/>
      <path d="M25.22,42.69c3.66-2.67,6.75-5.43,10.3-8.32l-1.84-1.94c-2.89,3.45-5.64,6.5-8.46,10.26Z"/>
      <rect x="-3.18" y="20.17" width="23.45" height="1.07" transform="translate(-12.27 12.43) rotate(-45.9)"/>
      <path d="M36.99,35.93c.11-.58.03-.69-.5-.54-4.84,4.68-9.52,9.11-13.65,14.42,5.18-4.29,9.52-8.85,14.15-13.87Z"/>
    </g>
  </g>
</svg>