<?xml version="1.0" encoding="UTF-8"?>
<svg id="Warstwa_2" data-name="Warstwa 2" xmlns="http://www.w3.org/2000/svg" viewBox="0 0 49.92 50.36">
  <g id="Warstwa_1-2" data-name="Warstwa 1">
    <g id="game-icon-v4-rogue-pixarts-store_38">
      <path d="M0,.28c1.47,7.07,4.76,13.35,9.37,18.49,2.34,2.61,3.37.37,5.68,1.77.46.28.55,1.27.02,1.76l-4.12-1.46c3.12,3.25,6.3,6.05,9.71,9l4.22,3.64,2.8-.25,1.96,3.41c1.9.83,5.24-4.04,6.27-5.23-2.24-1.8-3.14-4.53-4.92-5.49-5.94-3.21-11.41-7.47-14.98-13.26-.28-1.59-1.28-1.75-2.57-2.14C7.85,8.84,3.54,4.86,0,.28ZM29.59,29.56c1.45.87,3.06,2.04,2.7,4.05-6.15-5.01-11.92-9.57-17.48-15.2l14.78,11.15Z"/>
      <path d="M26.23,9.6c-.91,0-2.73-.97-2.93.61,1.09,2.58,4.86-1.77,7.64,1.48l-6.8,7.74c.82.58,1.35.93,1.86,1.22l9.86-9.18-9.04,10.12c1.37,1.04,2.69,1.8,4.04,2.21l8.73-6.32c1.98-6.57,5.84-11.71,10.2-17.49-3.91,1.07-7.41,3.05-10.84,5.32-4.82,3.2-4.89,4.28-12.71,4.28Z"/>
      <path d="M38.7,27.63c-.17,1.03-.39,2.61-1.09,3.44-2.68,3.13-6.83,8.61-10.73,8.82.59,1.17,2.34,2.28,3.73,1.99l10.11-11.11c1.01-1.11-1.14-3.22-2.02-3.14Z"/>
      <path d="M46.76,41.5c-2.17-2.27-4.49-3.96-7.1-6.08-.3,1.13-.43,1.84-.5,2.59.94-.41,1.17-.32.59.37-.47.88-1.03,2.21-.84,3.05.15.63,1.1,1.39,1.88,1.96l1.15-3.95c1.21,1.39-1.97,5.49,1.92,6.27-.11-2.01-.31-3.73.9-5.36l-.41,4.64c1.16-.28,3.53-2.3,2.4-3.48Z"/>
      <path d="M11.23,28.06c-.26.44.08,1.16.49,1.87,2.42,4.19,5.67,7.29,10.14,9.05.36.14,1.16.12,1.42-.1.26-.23.63-1.08.39-1.33-1.09-1.17-6.08-.56-10.9-10.14-.21-.42-1.33.28-1.55.66Z"/>
      <path d="M49.89,46.88c.22-1.96-.77-3.83-2.62-4.62-.11,3.43-4.74,4.83-3.31,7,.32.49,1.39,1.1,2.01,1.1,2.27-.02,3.71-1.64,3.91-3.47Z"/>
      <path d="M5.8,49.78c1.12-.13,2.46-1.37,3.11-2.66-2.4-.27-3.77-1.44-4.74-3.24-.98.15-2.26.55-2.71,1.16-.46.64-.44,2.29-.04,2.89.99,1.51,2.49,2.06,4.37,1.85Z"/>
      <path d="M9.25,39.2l5.75.27c.89-.51,1.59-.98,2.47-1.68-1.76-1.23-3.05-1.74-4.95-2.16-1.46,1.16-2.32,1.94-3.28,3.58Z"/>
      <path d="M8.79,40.14c-.77.02-1.72,1.36-2.04,2.18,2.17.65,4.15.7,6.27,0l1.99-2.33-6.22.15Z"/>
      <path d="M20.35,34.74l1.82-1.67-2.56-1.95-2.59-2.37c-2.8,1.72,1.66,5.35,3.33,5.99Z"/>
      <path d="M11.66,43.65c-2.22-.01-4.12-.17-6.47-.43.33,1.74,2.34,3.86,4.35,2.82.79-.41,1.79-1.91,2.12-2.39Z"/>
      <path d="M38.29,37.95c.59-.89.53-2.38.31-3.51l-4.05,4.27c1.33.5,3,.34,3.74-.76Z"/>
      <circle cx="19.32" cy="7.69" r="1.29"/>
      <path d="M22.18,14.69c.72,1.59,2.63.91,3.41-.11-.53-.35-1.28-.8-1.73-1.02-.55-.27-1.99.47-1.69,1.14Z"/>
    </g>
  </g>
</svg>