<?xml version="1.0" encoding="UTF-8"?>
<svg id="Warstwa_2" data-name="Warstwa 2" xmlns="http://www.w3.org/2000/svg" viewBox="0 0 35.04 49.39">
  <g id="Warstwa_1-2" data-name="Warstwa 1">
    <g id="game-icon-v6-elemental-pixarts-store_309">
      <path d="M18.76,46.48l-1.36-1.61-1.16,2.88c-.53-1.18-.81-2.19-1.35-2.57-.7-.49-2.14-.24-3.44-.11l1.7-2.46-3.1-3.69.25,2.33c-1.43,1.45-3.15,2.65-5.09,3.26l.61-2.1c-1.76,1.24-3.26,2.27-5.7,2.21l3.01-5.71c3.22-1.76,6.47-3.32,8.84-6.15,2.57-3.07,4.14-6.8,3.51-10.79-.45-2.88-2.99-5.62-5.99-4.42,3.61.82,5.72,3.78,5,7.58-.86,4.51-4.02,8.36-8.25,10.67l2.02-3.36c-2.65,2.47-4.87,5.11-8.27,6.79.4-9.35,1.51-17.08,8.79-22.82l1.57-1.24c-1.16-2.65-1.25-5.42.29-8.25l2.43,1.57c-1.25,1.58-.73,3.16.33,4.28,1.15,1.22,3,1.15,4.49.17l2.15,4.42,2.3-4.52c1.33.97,3.22,1.23,4.38.03s1.5-2.83.21-4.34l2.45-1.67c1.74,3.41,1.59,7.32-.79,10.12.64,1.06,1.1,2.23,1.08,3.41-.09,5.98-2.63,11.5-7.2,15.31-1.29,1.08-1.83,3.24-.82,4.55.9.71,3.4.46,3.88,1.86.15.45-.03,1.46-.17,1.82l-1.54-1.63c-.13,1.22-.24,1.99-.46,2.6-.68-1.09-.93-1.76-1.4-2.09-.58-.4-2.14-.29-3.14-.27l.37-1.66-1.51-1.78,2.55-1.59c-1.6-.37-4.07.5-4.76,2.29-.21.55-.35,1.6-.3,2.11.11,1.37,2.68.9,3.57,2.05.37.48.27,1.87.02,2.54ZM25.51,23.84c.57-.96,1.36-1.52,2.1-1.67-.83-.45-1.77-1.17-2.04-1.57-.39.52-1.1,1.21-1.68,1.66.25.08,1.09.25,1.2.53l.42,1.06ZM8.95,26.7c.18-.63.36-1.74.8-1.91l1.76-.68c-.55-.21-1.81-.26-1.98-.75l-.64-1.81c-.31.66-.57,1.89-1.08,2.04l-1.86.54c.69.23,1.97.4,2.2.88l.8,1.69ZM21.33,29.13c.4-.58,1.22-1.4,1.71-1.71-.59-.15-1.53-1.14-1.83-1.8-.27.71-1.03,1.66-1.48,1.78.5.42,1.37,1.36,1.6,1.73Z"/>
      <path d="M27.58,3.31c1.19-.8,2.47-1.94,3.83-3.18-.77,7.21-7.76,7.45-11.32,13.19C16.53,7.51,9.72,7.61,8.48,0l3.9,3.46.64-1.21,1.75,1.63c3.03-1.86,7.72-.91,10.62-.22.23.05.95-1.08,1.15-.96l1.06.61Z"/>
      <path d="M35.04,41.81l-7.78.6c-.26.02-.76-.07-1-.14s-.07-1.2.23-1.31c2.36-.88,5.98-3.07,7.38-5.49-.44,2.27-2.05,3.8-4.26,5.24,1.9.4,3.56-.15,5.43,1.1Z"/>
      <path d="M10.28,49.17c-.96.46-3.11.12-4.24-.14,1.08-.62,7.88-4.92,8.6-3,.13.34-.27,1.18-.64,1.35l-3.72,1.79Z"/>
      <path d="M30.32,18.71c3.47,1.17.37,10.49-2.2,12.4,1.68-4.13,2.87-7.92,2.2-12.4Z"/>
    </g>
  </g>
</svg>