<?xml version="1.0" encoding="UTF-8"?>
<svg id="Warstwa_2" data-name="Warstwa 2" xmlns="http://www.w3.org/2000/svg" viewBox="0 0 50.17 47.66">
  <g id="Warstwa_1-2" data-name="Warstwa 1">
    <g id="game-icon-v4-rogue-pixarts-store_63">
      <path d="M6.79,10.9l1.22-3.17,10.92,10.43,25.39,24.64c.36.35,1.02.53,1.33.36.31-.17.32-1.09-.06-1.47l-17.79-17.37L9.26,6.3l2.98-1.14C8.77,3.62,5.75,2.23,2.18.95l4.62,9.95Z"/>
      <path d="M2.89,43.89l1.21-.76c.14-.36-1.05-.95-1.51-.75-.49.21-1.06.94-1.23,1.41l-1.37,3.86c5.15.11,9.55-3.86,10.04-9.15.59-6.34-2.63-9.79-.31-13.67l.55,4.05c1.25-8.37,5.13-4.95,5.39-7.83.2-2.13-3.61-3.92-6.38-2.84.27.52.6.94.43,1.14l-.65.8c-6.09,7.52,1.73,16.29-2.2,19.22-.52.39-1.6.51-2.32.14-.68-.35-1.03-1.61-.58-2.06.34-.35,1.21-.37,2.03-.41-.08-.33-.84-1.13-1.3-1.21-.41-.06-1.25.25-1.66.58-.84.65-.97,2.2-.59,3.15.29.73,1.51,1.7,2.46,1.65l2.55-.13c-.46,1.57-2.86,4.75-4.37,3.86-.25-.15-.43-.91-.18-1.06ZM10.7,19.97c.87.04,1.55.27,2.18.86l-3.68,1.95c.27-.97.75-1.84,1.5-2.81Z"/>
      <path d="M44.72,3.25c.02.22.21.88.37.78,1.17-.73.82-1.6,1.36-1.41l.69.25c1.36.5-2.24,3.97-4.13,4.13.22-1.34.5-2.5.15-3.62-.33-1.05-1.54-1.73-2.36-1.8-1.01-.09-2.08.36-2.6,1.24-.23.39-.28,1.58,0,1.9.23.28.8.57,1.11.68-.15-1.01-.19-1.77.45-2.17.4-.26,1.48,0,1.83.5.49.72.31,1.87-.14,2.52-2.67,3.86-10.66-4.14-18.54.89-.67.43-1.4.64-2.18.68-.91,1.71-.65,4.14.83,5.77.32.35,1.4.72,1.83.56,2.38-.89-.58-4.16,7.56-4.87-1.26-.46-2.55-.64-3.86-.75,1.12-.68,2.7-1.01,4.07-.7l6.41,1.49c6.17,1.44,12.06-3.06,12.61-9.32l-3.69.95c-1.07.28-1.84,1.17-1.75,2.3ZM22.86,11.54l-.83-2.32c1.01-.86,1.98-1.39,3.16-1.72-.93,1.48-1.38,2.26-2.33,4.05Z"/>
      <polygon points="39.16 34.28 45.64 40.67 49.6 40.68 43.4 34.55 39.16 34.28"/>
      <path d="M43.59,46.87l-.16-4.09-6.51-6.09c-.34,5.14,3.27,6.62,6.68,10.19Z"/>
      <path d="M11.1,40.36l14.18-13.48c.19-.18.33-.8.11-.91-.16-.08-.77-.02-.93.14l-12.76,12.29c-.51.49-.7,1.21-.6,1.96Z"/>
      <rect x="25.63" y="16.25" width="18.62" height="1.19" transform="translate(-1.97 28.76) rotate(-43.63)"/>
      <path d="M18.46,13.6c.24.62,1.3,1.79,1.89,1.95.29.08.93-.88.73-1.15l-1.43-1.96c-.3-.03-1.34.8-1.19,1.17Z"/>
      <path d="M17.25,18.19c.02-.21-1.59-2.19-2.09-1.67-.2.21-.9.82-.71,1.04l.85,1.01c.26.31.86.87,1.12.68.29-.22.8-.74.83-1.06Z"/>
    </g>
  </g>
</svg>