<?xml version="1.0" encoding="UTF-8"?>
<svg id="Warstwa_2" data-name="Warstwa 2" xmlns="http://www.w3.org/2000/svg" viewBox="0 0 40.59 56.46">
  <g id="Warstwa_1-2" data-name="Warstwa 1">
    <g id="icon-v8-weapon-shield-pixarts-store_93">
      <path d="M32.56,43.55c-.51,1.46-1.33,2.73-2.39,3.68l-.45.41c-.12.1-.39-.33-.59-.58l-.82,2.08c-.74,1.86-1.8,2.88-3.42,3.97-1.38.93-2.37,2.59-3.87,3.35l2.21-2.87c.24-.32.36-.8.37-1.52-1.34.96-2.29,1.81-3.62,3.02l-4.16-3.43,3.31,3.83c-4.62-1.7-6.64-7.15-8.77-8.21-2.09-1.04-1.27-3.06-1.96-4.49-.83-1.73-1.87-3.62-2.93-5.19l-2.22-3.3c-.6-.89-1.3-1.66-1.53-2.74,3.31.58,1.93,3.87,3.34,3.68.36-1.59-.41-4.84-.42-4.76.26-2.84-1.04-5.96-.42-9.07,1.45,1.91.71,3.8,1.45,5.47l-.03-4.39c1.66.68.91,1.93,1.21,3.07,1.86,7.01-1.6,5.22,4.16,16.66,2.22,4.41,5.38,7.73,9.46,10.45l1.71-1.34c3.98-3.12,6.99-6.98,8.58-11.84,1.67-5.1,4.26-3.62,3.67-7.37-.32-2.04-1.81-9.72.7-9.68-.06,1.74-.37,3.25-.28,4.76.14,2.33,2.34,6.11.17,8.31l1.38.04c-1.36,2.83-3.51,1.4-4.12,5.96.62-1.18,1.05-2.01,1.97-2.84l-1.72,4.89Z"/>
      <path d="M22.66,18.85c-.56-2.13-3.61-5.72-3.61-6.43,0-.11.27-.31.33-.22l.36.45c.19.24.41.63.53.52l.73-.65c-.83,2.77.9,1.21,1.96,5.99,1.57-5.23.62-6.12-2.34-10.31-.7-.99-1.13-2.42-.25-3.18.14.94.28,2.1.66,2.67l1.54,2.31.02-3.28c0-.1.12-.48.21-.48h.34c.49.01-.69,2.93.71,5.05.64-1.13,1.21-2.26,2.5-2.6-1.73,1.78-2.43,3.84-.97,5.9l-1.22,3.86c1.13-1.13,1.52-2.55,2.11-4.06.79-2.03,1.35-4.02.87-6.23-.53-2.43-1.91-6.49.33-7.45-1.1,1.67.45,7.23,1.06,9.49,1.7-1.47,2.88-2.73,3.97-4.28l-.28-3.82.77,1.15c-.15-1.42.73-2.56,2.06-3.12.55,4.75-2.06,1.28-2.01,5.19l1.69-.57-2.97,4.04c-2.47,3.37-2.68.2-5.97,10.53.98-1.18,2.33-1.74,3.95-2.09s5.81-2.12,5.92-3.64l.26-3.44c.13-1.81-3.93-1.92-2.24-3.06.67-.45,2.63.2,3.03.93.77,1.4.08,2.99-.05,4.37,1.44-2.22,1.66-4.94,1.58-7.31l.63.7,1.69-1.43c-1.23,1.77-1.93,3.33-2.23,5.57s-1.73,4.67-3.47,6.18c-1.49,1.3-3.53,2.06-5.32,2.51-2.99.76-4.45,2.69-6.45,4.69l-4.71,4.7-1.91-2.12,4.85-4.69c.45-.44,1.03-1.61,1.32-2.34Z"/>
      <path d="M17.19,22.97c-1.53-2.2-3.88-3.67-6.41-4.58l-4.52-1.63c.32.85.54,1.88.63,2.86-.37,0-1.11-.1-1.18-.32-.09-.28-.09-.7-.12-1.48,0,0-.21.26-.51.64-.95-.77-1.7-1.85-1.46-3.41l1.85,2.36.17-.43c.04-.11.22-.17.59-.39C3.45,14.24,1.74,10.95,1.87,7.21c-.7-.93-1.15-1.52-1.84-2.95l1.56,1.42.55-1.26c-.37,5.29,1.52,10.68,7.61,12.39,1.64.46,3.25,1.26,4.7,2l-1-3.39c-.81-2.74-2.31-4.86-4.65-6.53l-1.64-3.1-2.7-1.67c1.25.06,2.02.64,3.21,1.27.22-1.64.6-3.04,1.5-4.41l.71,1.19c.14.24.23,1.01,0,1.19-.26.22-.92.24-1.21.19-1.42,2.92,1.35,5.14,3.6,6.59l1-4.89c.25-1.23-.04-2.75-.17-4.18,2.93,2.67-2.27,8.52,2.11,13.97.75-2.44,1.42-4.36-.98-6.56,1.72.17,2.52,1.77,2.22,3.4l1.44-2.97-.53-2.78c1.16.5,1.12,1.49,1.25,2.32l1.41-.81c-1.87,2.61-3.56,5.05-2.85,8.29l.72,3.27,1.53,1.67c.26.28.48,1.37.13,1.51-.42.18-1.03.38-1.47.53l-.35.47c-.07.1-.47-.3-.55-.42Z"/>
      <path d="M22.93,49.71l-.66-2.4c-.14,1.31.35,2.1-.09,3.23-1.86-6.75-4.64-8.81-8.87-13.99.03-.95.79-2.08,1.48-2.6l3.64,4.17c.91,1.04,7.35,8.39,6.24,10.09l-1.19-1.45.32,1.68c.07.37-.61.98-.87,1.27Z"/>
      <path d="M15.19,25.65c.85.76,4.25,4.42,4.64,4.94.28.38-1.66.82-1.8,1.84-1.48-1.5-3.21-3.19-4.69-4.9-5.23-6.04-4.65-2.45-9.78-7.8-3.1-3.23-1.32-2.53-3.56-7.83,1.27.95,1.77,4.58,3.01,5.73,2.33,2.15,4.91,3.55,7.76,5.13l-.41-3.6c1.09,1.33,1.33,2.57,1.81,4s2.16,1.72,3.01,2.49Z"/>
      <path d="M30.58,32.83l-3.8,4.2-4.29,4.86-1.81-2.08,8.3-9.39,3.88-4.59c-.12.87-.43,1.23-.99,2.3l1.01-.68-.34,2.37c-.14.96-1.17,2.13-1.96,3.01Z"/>
      <path d="M26.62,28.03c-.31-.04-.51-.94-.43-1.32l-.66.06c-.16.01-.53-.29-.48-.44.33-1.16,3.25-1.83,4.54-5.67.15-.45.79-1.06,1.12-1.23l-.82,3.33c4.52-1.95,7.66-4.39,9.44-8.59.75,2.06-1.03,2.74-1.88,5.13,1.36.18,1.98-.47,2.78-1.48-.6,3.09-1.95,1.08-4.7,3.21l-2.39,1.86-6.52,5.16Z"/>
      <path d="M26.51,6.96c-2.32-.24-3.9-2.63-6.29-3.27l-5.67,3.38c-.18-.17-.35-1.17-.09-1.37l1.08-.82c-.14.08-1-.57-.89-.9L20.27.44l5.66,3.7c-.67,1.06-1.56.03-2.49.04,1.14.8,2.53,1.04,3.07,2.77Z"/>
      <path d="M10.61,36.9l-.34,1.43c-.83-1.11-.14-1.9.1-3.26l-.83,1.67c-1.31-1.54,2.9-6.39,4.03-7.55l1.89,1.96c-2.63,3.49-3.63,5.14-4.44,9.68-.29-1.39-.31-2.43-.41-3.93Z"/>
      <path d="M26,32.58l-4.36-5.05c-.15-.18-.45-.65-.55-.8-.11-.17.37-.36.56-.51.28-.51.83-1.22,1.36-1.37l4.98,5.79-2,1.93Z"/>
      <path d="M18.73,37.22l-1.93-1.95,5.07-6.17,1.62,2c-2.02,1.88-3.15,3.45-4.75,6.13Z"/>
      <path d="M26.69,45.45l-.48-1.69-.37,2.74-1.32-5.3,1.99-2.1c1.74,1.85,2.05,6.47.7,4.4l-.51,1.95Z"/>
      <path d="M14.83,46.53c-1.32-1.22-1.36-2.47-1.29-3.68l-.36.63c-.09.15-.6-.58-.54-.76l1.27-3.52,2.08,2.43-1.15,4.91Z"/>
      <path d="M17.76,48.09l-.88,1.28c-.05-1.14.09-1.83.29-2.93-.33.58-.69,1.13-1.24,1.73,0-1.94.94-3.03,2.02-4.47.55.43,1.02,1.65,1.1,2.26.02.14.34.23.43.34.12.14.03.65-.03.87l-.94,3.35c-.46-.97-.66-1.7-.76-2.42Z"/>
      <path d="M29.7,40.35l-1.11-4.3,2.24-2.17c.7,1.19.93,4.03-.61,3.08.48,1.28.25,2.14-.52,3.39Z"/>
      <path d="M6.28,11.67l.04,2.79c-1.67-1.44-1.36-4.34-.38-5.59.21-.27,1.12-.6,1.43-.65s.7.7.76.95c-1.21.48-1.86,1.24-1.85,2.5Z"/>
      <path d="M7.82,26.65c.98,1.13,4.73,4.03,2.91,5-1.62.87-2.56-3.16-2.91-5Z"/>
      <path d="M4.83,9.61l-.12,3.25c-1.05-1.67-1.23-3.53-.94-5.29l3.53-.76c-.46,1.71-2.1,1.97-2.97,1.31.1.36.52,1.29.51,1.5Z"/>
      <path d="M29.98,8.28c-.23.29-1.45-.26-1.55-.62-.11-.43.02-1.15.19-1.63l-.57-1.56,3.51,1.83-1.59,1.98Z"/>
      <path d="M23.65,35.18c-.44.8-1.08,1.84-1.81,1.78-.54-.04-1.21-1.39-1.29-1.88l1.35-1.94,1.75,2.04Z"/>
      <path d="M35.64,29.28c-.9-2.85-.29-5.55.96-7.96.06,2.83-.33,5.33-.96,7.96Z"/>
      <path d="M36.94,31.71c-.68-1.75,0-3.72,1.72-4.79.55,1.87.32,3.66-1.72,4.79Z"/>
      <path d="M34.4,14l-.04-3.06c0-.64-.97-1.19-1.8-1.87.21-.21.81-.54,1.13-.54.39,0,1.23.49,1.39.88.54,1.35.36,3.3-.67,4.58Z"/>
      <path d="M28.45,16.82c-.46-1.78.39-3.31,1.97-3.91.67,1.48.06,3.49-1.97,3.91Z"/>
      <path d="M12.53,16.77c-1.92-.05-2.44-2.01-2.1-3.72,1.55.51,2.29,1.83,2.1,3.72Z"/>
      <path d="M7.37,3.43c-1.33-.07-1.99-1.82-1.36-3.43,1.01.51,2.06,2,1.36,3.43Z"/>
      <path d="M33.42,29.05c.61,1.75,1.29,5.16-.71,6.31l.71-6.31Z"/>
      <path d="M11.07,28.84c-1.01-.73-1.69-1.85-2.02-3.3,1.53.35,2.86,1.42,2.02,3.3Z"/>
      <path d="M14.6,23.99c-.97-.52-1.64-1.94-1.36-2.96,1.39-.14,2.1,1.69,1.36,2.96Z"/>
      <path d="M8.83,12.61l.76,3.51c-1.29-1.4-1.95-2.77-2.44-4.64l1.1,1.52.58-.4Z"/>
      <path d="M12.49,4.67c.76-.24-.6,1.85-2.92,2.38-.55.13-.62-1.27,2.92-2.38Z"/>
      <path d="M26.63,24c-1.09-1.08-.26-2.75,1.04-3.29.06,1.15-.21,2.19-1.04,3.29Z"/>
      <path d="M31.44,15.88l.44-2.12c.2-.96.6-1.86,1.24-2.6.19,1.04-.3,1.63-.5,2.41-.22.84-.02,1.68-1.17,2.32Z"/>
      <path d="M12.04,6.23c.55.53.07,2.11-.8,2.38-.35.11-1.34-.62-1.09-.89.41-.44,1.29-1.09,1.89-1.48Z"/>
    </g>
  </g>
</svg>