<?xml version="1.0" encoding="UTF-8"?>
<svg id="Warstwa_2" data-name="Warstwa 2" xmlns="http://www.w3.org/2000/svg" viewBox="0 0 52.34 46.66">
  <g id="Warstwa_1-2" data-name="Warstwa 1">
    <g id="icon-v9-equipment-pixarts-store_258">
      <path d="M7.19,6.58l3.67,2.23c5.4-1.53,7.1,1.6,9.2.46,2.1-1.14,3.69-.65,5.78-.05,1.52.43,3.53.07,5.24,0l1.34-1.84c1.05-1.43,3.08-2.27,4.3-.82l-2.17,1.67c7.75-1.84,6.56,1.9,12.26-1.14l-2.44-1.69,2.59.74c-.19-.42-1.06-1.26-1.62-1.37l-6.5-1.34c1.69-1.31,3.5-1.17,5.65-1.14-.08-.34-.29-.64-.12-.8l.82-.73c-1.38.32-2.64.61-4.04.58-3.36-.08-1.31,3.04-9.91,1.51.84-.91,1.58-1.46,2.53-2.14-1.62-.16-2.64,1.01-3.79,1.98l-5.89.27c-.9.04-2.31.01-2.9-.75-.39-.51-.74-1.41-1.13-2.23l-.31,1.26c-.09.38-3.07-2.28-4.31-.45.65.05,2.1.03,2.58.44l2.24,1.91c-4.12.73-4.91-.93-8.07-.9l2.3,1.16-4.62.66c-1.63.23-3.27.6-4.58,1.66.37.45,1.11.48,1.53.3l.65-.29c.09-.04.18.3.11.38l-.39.44Z"/>
      <path d="M20.74,39.95l.76-2.07c.44,1.98-1.64,4.31-.96,5.08.79.9,2.92.15,2.87.98l-.06,1.22c-.01.23.19.76.3.97.09.17.55-.33.65-.37l.44.64c.05.07.1-.04.15-.12l.35-.63.49,1.02.62-.85c.05-.07.14.02.18.09l.37.7.58-1.23.48.79c1,1.65-.11-2.8,1.46-2.67.9.08,1.5-.06,1.89-.55.33-.42-.1-1.44-.41-2.02.63-1.66,1.22-3.96.2-5.79-.66-1.19-2.3-2.97-4.07-2.69-.9.14-1.53.13-2.48,0-2.49-.31-5.42,3.95-3.8,7.49ZM25.24,43.89c-.39-.58.08-1.76.8-2.35.36.48.79,1.3.99,2.15-.23.37-1.57.52-1.79.2ZM28.9,39.41c1.12.19,1.96,1.54.94,2.54-.9.88-2.98.07-3.09-1.16-.1-1.19,1.43-1.51,2.15-1.38ZM27.26,35.62l-.97.99c.34.47.66.98.89,1.89l-1.56-1.47-.52,1.29-.2-4.21c.95.41,1.61.84,2.36,1.5ZM25.1,40.37c.33.72-.43,1.63-.99,1.77-.75.18-2.12.05-2.29-.59-.24-.91.29-1.81.89-2,.67-.22,1.97-.11,2.39.82Z"/>
      <path d="M40.72,25.19c-.7,1.5-.88,3.05.36,4.43-.23.05-.8.08-.67.23.09.11.45.55.58.62l2.45,1.29c.23.12,1.09.09,1.14.34l.2,1.15,1.92.63,1.63-.97c.04-1.12.49-1.6,1.46-1.91.32-2.69-.24-7.95-3.76-7.85-1.87.06-3.99-.78-5.31,2.05ZM48.2,28.24c.31-.65,1.61.28,1.24,1.12-.23.52-.77.92-1.45,1.18-.05.32-.31,1.58-.74,1.67-.7.14-.69-.98-.35-1.42.56-.74.87-1.66,1.29-2.55ZM46.13,25.92l.44-.98c.08-.17.67.1.78.26.14.2-.13.84-.38,1.03-.15.12-.93-.14-.85-.32ZM46.41,28.62c.34.43-.04,1.46-.67,1.8-.83.44-1.92.29-2.17-.41-.19-.52.24-1.49.95-1.81.57-.26,1.55,0,1.89.42Z"/>
      <path d="M10.67,22.71c-.45-.2-1.16.84-1.22,1.37-.05.43.68,1.16.8,1.61,1.01,3.71.71,7.46.64,11.29-.04,2.04-.56,3.59-1.43,5.33-.21.43.86,1.57,1.31,1.3.33-.2.61-.55.81-.92.26.54,1.34,1.57,1.93,1.36,1.21-.43,1.03-1.66.45-2.44-1.78-2.37-1.46-11.39-1.22-14.65.09-1.2.97-2.04,2.03-2.53.34-.37-.05-1.39-.41-1.77-.41-.43-1.43-.62-1.76-.26l-.9.95c-.17.19-.73-.53-1.03-.66Z"/>
      <path d="M39.98,22.64c-.21-.3-1.13-.58-1.38-.32-.25.27-.54.78-.91,1.4-.15-.49-.59-1.68-1.11-1.95-.31-.16-1.13.42-1.16.77-.15,1.98,1.31,1.85,1.44,3,.39,3.53.37,7.45.21,11.07-.21,4.66-3.25,5.07-.34,6.88l2.3-1.63.54,1.12c1.86-2.19-.49-2.15-.64-6.02-.14-3.76-.09-7.38.03-11.17.04-1.28,1.79-2.07,1.02-3.17Z"/>
      <path d="M46.98,10.28c-1.45-.16-2.79-.34-4.03-.85-3.52-1.44-7.17-1.18-10.43.79.59-1.56,1.61-2.7,3.1-3.71-4.38-.15-2.77,6.38-12.41,7.42,2.31,2.62,5.73.45,8.08-1.29,8.31-6.17,11.97.65,15.7-2.36Z"/>
      <path d="M38.53,12.84c-1.28,1.53-2.8,2.69-4.45,3.91-.62.46-1.19.39-1.97.39-13.84.12-10.92-9.88-20.82-7.58,2.64,1.98,2.99-.2,6.8,3.21,4.16,3.73,4.52,5.13,11.11,5.81,1.38.14,2.19-1.34,3.71-1.04l-5.34,2.84c-.21.11-.57.49-.71.63-.14.14.27.81.61.67,7.17-2.93,9.09-5.07,15.26-10.02-1.55-.67-3.04-.23-4.21,1.18Z"/>
      <path d="M5.47,3.96c-1.32.61-2.26,1.37-2.33,2.65-.06,1.05.9,2,2.14,2.19,5.99.94,3.62,4.93,8.14,2.79-1.04-.38-2.14-.91-2.98-1.77-3.19-3.29-5.63-2.19-5.95-3.52-.45-1.88,3.13-2.18,4.55-2.54l-1.62-.86c-1.45-.77-3.2-.33-4.03,1.24l-1.72-.11c-.71-.05-1.57.41-1.68.94,1.02-.02,1.84.15,2.58.45.76-.64,1.84-1.89,2.9-1.46Z"/>
      <path d="M3.81,9.17c-.42,1.04,1.06,3.81,1.63,4.66,2.12,3.21,8.77-.16,11.45-1.16-.54-.52-1.26-.97-1.7-.87l-5.16,1.21,1.24.44-4.42.08c-.22,0-.75-.32-.9-.4-.11-.06.55-.57.49-.68l-1.83-3.05c-.08-.13-.74-.38-.8-.24Z"/>
      <path d="M48.63,10.24c-4.08,2.88-4.78.83-7.41,3.46,7.79.59,5.54-2.78,8.98-2.16,1.15.21,2.51-1.09,2.05-2.25-.7,1.91-2.47.83-3.62.95Z"/>
      <path d="M29.47,10.9c-5.23-.55-5.67-2.82-10.27-.27.41.36,1.23.73,1.67.6,4.62-1.31,5.92,2.09,8.61-.33Z"/>
      <path d="M5.07,27.26c-.25.35-.29,1.8-.18,2.47l2.69-1.68c.09,1.98-1.54,2.04-2.41,3.15-.21,1.05.58,2.52,1.46,3.33-.1-.65-.26-1.72-.39-2.47-.19-1.11,2.31-1.3,2.34-3.53,0-.47-.69-1.42-1.17-1.34-.73.12-1.45.15-2.33.07Z"/>
      <path d="M31.28,33.01c.6-.72.71-1.37.89-2.2.82.62,1.44,1.13,2.43,1.55l-1.8-2.3,1.93-1.81-3.52-2.21c-.17,2.59-.2,4.45.06,6.97ZM32.01,28.19c.04-.23.63-.45.91-.45.3,0,.58.86.27.99l-1.07.42c-.17.07-.15-.73-.11-.96Z"/>
      <path d="M24.98,21.43c-.12-.03-.41-.12-.6-.16l-4.89-1.12c-2.07-.47.54,1.07,2.02,4.26.28.61.91,1.12,1.37,1.23l-1.56-3.72,3.3.34c.19.02.54-.78.36-.83Z"/>
      <path d="M41.97,32.12l.07,2.87c1.75.72,3.35,3.16,5.11,2.06.4-.25.55-1.6.4-1.59l-2.29-.2c-.16.02-.48.24-.61.15l-.55-.39c-2.24-1.6.04-2.45-2.13-2.9Z"/>
      <path d="M19.31,15.23l-4.31-.72c-.99-.17-2.58.65-3.47,1.13,1.15-.04,2.26-.21,3.06.22l3.14,1.68c-.47-.77-.76-.95-1.3-1.4h3.96c-.36-.51-.77-.86-1.07-.91Z"/>
      <path d="M48.67,7.93c.7-1.73-.94-3.82-2.65-4.33.78,1.24,2.15,2.32,1.09,3.86-.51.74-2.02,1.1-3.15,1.58.7.86,4.02.59,4.7-1.11Z"/>
      <path d="M43.44,16.13l-4.51,1.56c-.32.11-.39,1.25-.03,1.2,1.65-.22,4.83-.54,5.05-1.74.05-.29-.32-1.01-.51-1.02Z"/>
      <path d="M15.45,32.58c1.16,1.13,2.05,2.37,3.64,2.71-.71-1.2-1.46-1.72-2.47-2.74.99-1.12,2.12-1.63,2.61-3.07-1.61.6-2.66,1.78-3.79,3.1Z"/>
      <path d="M3.39,19.66l-1.51,3.08c1.93-1.08,1.25-1.44,3.38-4.03.2-.24.36-.69.2-.89-.13-.16-.74-.46-.82-.28-.08.17-.28.64-.28.62,0,0-.27-.14-.35-.18l-2.49,1.52,1.87.16Z"/>
      <path d="M4.02,17.98h0s-.03-.01,0,0Z"/>
      <path d="M32.13,13.09l4.82.27c.23.01,1.21-.7,1.01-.79-1.6-.77-4.52-1.39-5.83.52Z"/>
      <path d="M17.95,18.04c-.29.67-.44,1.89-.33,2.94l1.17-1.54c1.66-.08,3.35-.54,4.62-1.58-2.18-1.98-2.58,1-5.46.18Z"/>
      <path d="M29.88,14.26c2.14,1.1,4.43,1.8,6.2.11l-4.4-.38c-.54-.05-1.33.11-1.8.27Z"/>
      <path d="M7.96,16.06c-.49-.03-.69,1.67-.23,1.73l3.53.16-.08-1.42c-.89-.18-2.2-.39-3.22-.47Z"/>
      <path d="M45.86,16.83c1.47-.52,3.36-2.39,2.41-4.24-1.99,3.38-3.98,2.29-2.41,4.24Z"/>
      <path d="M13.59,17.65c-.17-.04-.53.68-.41.8.13.12.46.46.68.53l3.21,1.1c.12-.61.22-1.36.17-1.51l-3.65-.93Z"/>
      <path d="M7.28,22.96l-.05-4.54c-1.12-1.88-.8,8.53-.36,8,.22-1.06.42-2.27.41-3.46Z"/>
      <path d="M3.22,11.48c-1.26-.12-3.76,1.44-2.66,3.2,1.28-2.69,3.66-1.71,3.29-2.55-.07-.17-.42-.63-.63-.65Z"/>
      <path d="M4.01,13.15c-.96,1.73.07,3.29,1.72,3.81.03-.73-.15-1.65-.52-2.16l-1.19-1.65Z"/>
      <path d="M49.76,17.41l-1.15-.97c-.26-.22-1.01.23-1.3.53,1.43.81,2.49,1.38,2.93,2.93,1.02-.92.31-1.81-.48-2.48Z"/>
      <path d="M25.9,21.22l-.47-1.04.09,4.57c.42-.51.63-.72.3-.2l-.32,3.18c-.1,1.02.18,2.03.74,3.16.17-2.21.21-4.32.03-6.71-.11-1.44.33-2.9.34-4.62-.45.33-.57.92-.72,1.68Z"/>
      <path d="M17.95,21.04c-.62,2.29-.6,4.32-.43,6.34,1.01-2.19.98-4.37.43-6.34Z"/>
      <path d="M20.96,12.07c.25,1.29,3.97,1,5.02.5-1.82-.63-3.24-.71-5.02-.5Z"/>
      <path d="M39.51,15.31c1.4.29,2.87.32,4.29-.41-1.52-.64-3.11-.83-4.29.41Z"/>
      <path d="M49.61,7.02c.84-.99,1.37-2.16,1.3-3.39l-1.5,1.78c-.22.26,0,1.17.21,1.61Z"/>
      <path d="M32.09,22.5l-.17,2.54c1-1.58,1.06-3.23.68-5.14-.31.81-.44,1.63-.51,2.6Z"/>
      <path d="M5.59,9.86c1.04,1.17,2.33,1.68,3.76,2.02-1.03-1.06-2.21-1.96-3.76-2.02Z"/>
      <path d="M39.54,11.15c-1.22-.18-2.5-.2-3.48.22,1.46.39,2.53.91,3.48-.22Z"/>
      <path d="M12.25,19.22l.87-2.93c-1.66.34-1.53,2.06-.87,2.93Z"/>
      <path d="M32.4,16.36c-1.08-.78-2.44-.85-3.82,0h3.82Z"/>
      <path d="M29.05,21.29c-.85,1.09-.61,2.38.45,3.33l-.45-3.33Z"/>
      <path d="M44.49,14.44c-.28,1.29-.25,2.41.36,3.59.26-1.19.11-2.43-.36-3.59Z"/>
      <path d="M44.43,18.61l-.21,3.05c1.08-.93.84-2.14.21-3.05Z"/>
      <path d="M9.05,12.69l-2.43-1.04.67,1.05c.19.29,1.32.15,1.76-.01Z"/>
    </g>
  </g>
</svg>