<?xml version="1.0" encoding="UTF-8"?>
<svg id="Warstwa_2" data-name="Warstwa 2" xmlns="http://www.w3.org/2000/svg" viewBox="0 0 51.24 50.96">
  <g id="Icon-Set-V1">
    <g id="icon-set-v1-pixarts-store_139">
      <path d="M21.48,40.28c-3.4-2.38-5.73-5.73-5.78-9.78,2.2,4.76,6.86,7.93,12.29,8.25,6.9.41,13-3.22,16.51-9.17,5.24-8.88,3.17-19.8-4.1-26.97,6.3,3.89,10.36,10.74,10.8,18.2.55,9.4-5.05,17.85-13.61,21.22-5.51,1.85-11.27,1.63-16.11-1.76Z"/>
      <path d="M21.61,12.06c-5.76.24-10.5,3.23-13.74,7.66-6.43,8.78-4.91,20.58,2.73,28.23-5.64-3.39-9.2-9.18-10.29-15.64C-1.69,20.51,6.46,9.33,18.32,7.8c7.58-.98,16.67,3.65,17.24,12.44-2.49-5.01-7.62-8.44-13.95-8.18Z"/>
      <path d="M30.76,35.36c5.3-2.54,8.55-7.94,8.21-14.17-.32-5.86-3.57-10.91-8.52-14.08C21.74,1.51,10.85,3.11,3.13,9.98,8.66,1.55,19.63-1.98,29.18,1.1c7.86,2.53,13.3,9.41,14.13,17.45.96,7.42-4.25,16.54-12.56,16.81Z"/>
      <path d="M27.78,46.74c7.36,1.72,13.9-.85,19.95-5.39-3.74,5.59-10.24,9.04-17.03,9.55-12.41.94-23.33-9.05-22.75-21.46.33-7.08,5.27-13.2,12.36-14-6.63,3.72-9.76,11.13-7.28,18.46,2.23,6.59,7.75,11.21,14.76,12.85Z"/>
    </g>
  </g>
</svg>