<?xml version="1.0" encoding="UTF-8"?>
<svg id="Warstwa_2" data-name="Warstwa 2" xmlns="http://www.w3.org/2000/svg" viewBox="0 0 41.3 52.19">
  <g id="Icon-Set-V1">
    <g id="icon-set-v1-pixarts-store_112">
      <path d="M32.32,17.89c-4.41,5.4-8.86,10.57-14.96,14.56-.85-1.23-1.56-2.5-2.26-3.98,5.27-2.77,9.62-7.37,9.77-13.84,7.91-1.91,11.84-7.34,14.97-14.63,4.26,10.83-1.39,22.17-9.3,29l-8.49,7.33c-1.02-.35-2.08-1.06-2.82-1.97,5.53-4.41,10.77-9.26,13.08-16.48Z"/>
      <path d="M4.62,52.03c-2.44-1.01-6.51-5.16-3.62-7.62l3.44-3.94c1.61-1.85,3.59-3.53,5.32-5.27,1.36,1.89,2.77,3.54,4.54,5.26-2.59,1.83-4.95,3.84-6.53,6.61-.54.94-.29,2.39-.26,3.53s-1.65,1.93-2.88,1.42Z"/>
      <path d="M24.13,39.63c-.2,1.36-.62,2.36-1.46,3.48-6.46-1.95-13.59-9.32-13.5-16.28,1.04-.38,2.06-.6,3.25-.82,1.27,6.32,5.35,11.45,11.71,13.62Z"/>
    </g>
  </g>
</svg>