<?xml version="1.0" encoding="UTF-8"?>
<svg id="Warstwa_2" data-name="Warstwa 2" xmlns="http://www.w3.org/2000/svg" viewBox="0 0 48.72 51.18">
  <g id="Icon-Set-V1">
    <g id="icon-set-v1-pixarts-store_48">
      <rect x="16.57" y="8.13" width="19.86" height="25.82" transform="translate(-6.62 27.95) rotate(-50.22)"/>
      <path d="M7.98,19.56L21.82,3.03l-2.89-2.58c-.88-.78-2.6-.48-3.37.44L5.21,13.25c-.69.83-1.21,2.52-.6,3.35.89,1.22,1.94,2.05,3.37,2.96Z"/>
      <path d="M37.38,41.24l10.47-12.42c.76-.9,1.25-2.28.46-3.37-.8-1.11-2.02-2.05-3.32-2.78l-13.59,16.25c1.15,1.67,4.12,4.52,5.97,2.32Z"/>
      <polygon points="5.17 40.72 10.74 45.35 19.06 34.69 22.13 33.27 14.99 27.24 14.42 30.39 5.17 40.72"/>
      <path d="M7.08,51.03c1.37.78,3.3-1.76,3.08-2.89l-7.7-6.55c-1.3.3-3.19,2.66-2.16,3.8,1.88,2.08,4.23,4.18,6.78,5.64Z"/>
      <path d="M38.05,11.51c-1.39-1.22-2.55-2.2-3.9-3.26-.82-.65-2.28.11-2.61,1.11l5.93,5.1c.99-.55,1.56-2.09.58-2.95Z"/>
    </g>
  </g>
</svg>