<?xml version="1.0" encoding="UTF-8"?>
<svg id="Warstwa_2" data-name="Warstwa 2" xmlns="http://www.w3.org/2000/svg" viewBox="0 0 41.64 46.66">
  <g id="Icon-Set-V1">
    <g id="icon-set-v1-pixarts-store_15">
      <path d="M30.3,6.73c-1.65.24-3.65,1.79-4.44,3.25-1.69,12.44-.45,24.65,2.93,36.67,3.17-.77,6.06-1.97,7.8-4.67-3.82-8.1-6.33-16.59-6.05-25.31l2.79,9.36c2.97-1.14,4.94-2.86,6.52-5.08-2.83-3.58-4.45-7.27-6.07-11.34-.54-1.36-1.77-3.14-3.49-2.89Z"/>
      <path d="M8.44,25.96l2.68-9.2c.43,8.72-2.12,16.53-5.54,24.21-1.3,2.93,5.5,5.34,7.45,5.66,3.14-12.1,4.59-24.16,2.76-36.51-.26-1.73-3.02-3.33-4.52-3.39-1.73-.07-2.8,1.66-3.31,2.97-1.61,4.12-3.47,7.73-6.1,11.32,1.75,2.38,3.93,4.2,6.57,4.93Z"/>
      <path d="M21.17,46.12c1.76.4,3.99-.46,5.56-1.12-2.86-11.42-3.68-22.06-2.59-33.62l-3.26,3.14-3.34-3.19c1.25,11.48.17,22.24-2.41,33.41l6.05,1.36Z"/>
      <path d="M14.03,6.11l5.36,4.69c-.12-5.01-5.64-5.83-5.06-7.76.63-2.13,10.58-2.14,13.17-.54.27,3.5-4.62,2.29-5.17,8.31,3.1-2.56,5.86-6.65,10.16-5.34.23-1.88-1.56-3.51-3.42-4.15-5.24-1.79-11.05-1.74-16.33-.01-1.92.63-3.78,2.26-3.54,4.2,1.5-.3,3.52-.55,4.83.59Z"/>
      <path d="M7.27,29.51l.82-2.29c-2.96-1.12-4.93-2.56-7-5.01-.39.21-1.32,1.53-1.05,2.04,1.43,2.73,4.03,4.61,7.23,5.26Z"/>
      <path d="M33.72,27.13l.76,2.41c2.71-.31,9.77-4.87,6.15-7.38-2.02,2.45-3.86,3.99-6.91,4.98Z"/>
    </g>
  </g>
</svg>