<?xml version="1.0" encoding="UTF-8"?>
<svg id="Warstwa_2" data-name="Warstwa 2" xmlns="http://www.w3.org/2000/svg" viewBox="0 0 53.7 51.57">
  <g id="Icon-Set-V1">
    <g id="icon-set-v1-pixarts-store_122">
      <path d="M51.09,47.87c-11.8,5.64-32.49,2.51-37.64-11.81-3.08,5.07-7.57,8.21-13.4,8.35l-.03-12.05c12.27-2.97,10.98-12.19,20.16-17.26-4.7,7.17-4.63,16.14.76,22.93l1.07-5.25c4.5,11.84,17.43,15.85,29.08,15.08Z"/>
      <path d="M30.29,31.1c3.02,9.31,14.81,11.29,23.4,9.18l-.04,4.86c-13.83,1.59-29.41-3.34-30.64-19.28-1.96,1.53-2.45,3.42-3.18,5.64-1.6-5.45-.58-11.5,3.44-15.66,3.48-3.61,5.59,2.83,9.95-4.33,1.1-.48,2.78.59,3.55,1.8-3.46,1.65-5.71,4.98-5.55,9.09.19,4.86,3.42,8.79,7.87,10.64,4.84,2.02,9.89,2.06,14.57-.58l.02,5.15c-8.76,2.2-17.76.89-23.39-6.51Z"/>
      <path d="M30.96,10.16c-1.09,4.63-4.93.71-9.06,1.54-3.51.71-6.42,2.71-8.54,5.55l-5.19,6.93c-2.05,2.73-4.64,4.68-8.03,5.59l-.14-4.39c7.75-3.47,6.63-10.83,14.69-18.56C20.78.99,29.48-1.49,37.57.91c3.58,1.06,6.58,2.99,8.72,5.85,2.36,3.16,2.82,7.12.86,10.63-.85-2.73-1.96-5.16-4.41-6.4-3.39,5.21-3.79-2.35-9.81-2.34-.83,0-1.79.74-1.97,1.52Z"/>
      <path d="M15.28,49.23c-3.67-2.8-9.2,1.94-15.16,1.76v-3.65c5.24-.3,9.42-2.41,12.95-6.33,3.01,5.41,7.89,8.32,13.72,10.55-3.89.14-7.79-.8-11.51-2.32Z"/>
    </g>
  </g>
</svg>