<?xml version="1.0" encoding="UTF-8"?>
<svg id="Warstwa_2" data-name="Warstwa 2" xmlns="http://www.w3.org/2000/svg" viewBox="0 0 35.99 49.16">
  <g id="Icon-Set-V1">
    <g id="icon-set-v1-pixarts-store_40">
      <path d="M34.21,43.44c.03-.46-.13-1.49-.37-1.85s-1.09-.5-2.11-.66l-2.6-23.46,4.43-4.43.92-11.2c.04-.44-.89-1.08-1.36-1.11l-5.52-.37-.51,5.36-5.17-.36.09-5.32-7.95-.02-.03,5.39-5.07.27-.5-5.36L1.51,1.17l1.09,12.01,4.37,4.29-2.69,23.35-2.24.79-.44,3.79c-.76.44-1.51,1-1.58,1.54-.08.63.18,1.97.72,2.23h34.77c1.69-5.03-1.55-1.63-1.29-5.72ZM14.32,31.22l.26-6.98c.07-1.87,1.84-3.14,3.42-3.16,1.63-.02,3.38,1.28,3.43,3.17l.21,7.04-7.32-.06Z"/>
    </g>
  </g>
</svg>