<?xml version="1.0" encoding="UTF-8"?>
<svg id="Warstwa_2" data-name="Warstwa 2" xmlns="http://www.w3.org/2000/svg" viewBox="0 0 47.09 48.87">
  <g id="Icon-Set-V1">
    <g id="icon-set-v1-pixarts-store_52">
      <path d="M26.58,6.11c-6.33,1.09-11.18,6.32-11.51,12.88,2.3.19,4.46.49,6.42,1.27l-1.11,1.35,4.06,3.7c.32.3,1.22-.31,1.63-.81,1.29,1.98,1.79,4.51,1.74,7.18,7.01-.49,12.74-6.55,12.88-13.99-2.91.27-5.57.14-8.02-1.04l1.07-1.38-4.1-3.82-1.44,1.37c-1.31-1.93-1.67-4.23-1.62-6.7Z"/>
      <path d="M4.56,48.8l7.73-9.12,7.77-9.76c.92-1.16,2.03-2,3.17-3.05l-3.75-3.53c-1.83,2.3-3.47,4.1-5.37,6.15L1.21,43.38c-.46.49-1.3,1.26-1.2,1.78.23,1.28,3.12,4.21,4.56,3.64Z"/>
      <path d="M27.44,33.83l-2.24,4.15c6.74.69,13.49-2.26,17.71-7.72l-.82-1.59h1.96c2.76-4.22,3.67-9.49,2.6-14.37-1.37,1.02-2.51,1.79-3.88,2.6.2,8.9-6.4,16.46-15.33,16.93Z"/>
      <path d="M12.97,19.61c-.03-7.98,6.14-14.77,14.08-15.64L29.22.02c-6.07-.3-11.94,2.38-15.9,6.84l.5,1.59-1.77.35c-2.39,3.85-3.4,8.42-2.79,12.83l3.72-2.01Z"/>
      <path d="M35.3,13.6l1.12-2.79,2.19-5.38-7.71,4.42c1.25,1.81,2.44,2.86,4.41,3.75Z"/>
    </g>
  </g>
</svg>