<?xml version="1.0" encoding="UTF-8"?>
<svg id="Warstwa_2" data-name="Warstwa 2" xmlns="http://www.w3.org/2000/svg" viewBox="0 0 48.83 42.29">
  <g id="Icon-Set-V1">
    <g id="icon-set-v1-pixarts-store_69">
      <path d="M37.94,29.4c-.02,2.69-3.39,2.75-5.35,2.82-3.02.1-1.57-5.14-2.2-6.47l-12.26,1.97.16,14.57,30.54-5.22-.02-14.14-10.83,1.68-.04,4.8Z"/>
      <path d="M10.45,23.25c1.04-2.93,3.97-3.57,6.46-2.43.76-1.32,1.83-2.52,2.87-2.9,1.45-.52,3.02-.12,4.24.71,1.48,1.01,1.78-3.13,6.32-2.54,1.4.18,2.8,1.52,3.96,2.77,2.78-1,5.84-.04,6.82,3.19l6.22-1.1-10.57-4.3c3.19-3.06,6.06-5.76,9.17-9.22l-30.46,2.61-11.26,10.83,6.22,2.4Z"/>
      <polygon points="3.02 36.57 16.22 42.09 16.23 27.46 2.98 22.63 3.02 36.57"/>
      <path d="M15.55,8.11l11.86-1.01c-.24-.9-.39-2.08.05-2.63,1.52-.36,3.49-.71,5.2-.36.66.13,1.26,1.65,1.55,2.38l11.48-1.13C44.61,2.54,42.13-.22,39.09.01L10.88,2.19c2.19,1.8,3.63,3.46,4.67,5.93Z"/>
      <path d="M13.62,9.06c-.71-2.12-1.9-3.83-3.61-5.03-2.26-1.6-4.96-1.3-7.03.56-4.22,3.79-3.48,10.23-.78,15.44l11.42-10.97Z"/>
      <path d="M33.36,27.22l.43,3.12,1.27-.08c.21-.01.19-.55.24-.88l.29-1.87c.11-.7-.36-1.48-1.07-1.5-.45-.01-1.21.76-1.15,1.22Z"/>
    </g>
  </g>
</svg>