<?xml version="1.0" encoding="UTF-8"?>
<svg id="Warstwa_2" data-name="Warstwa 2" xmlns="http://www.w3.org/2000/svg" viewBox="0 0 47.28 39.65">
  <g id="Icon-Set-V1">
    <g id="icon-set-v1-pixarts-store_110">
      <path d="M45.66,39.64h-10.37c-.97,0-1.83-.85-1.83-1.88v-7.63c0-.71.93-1.65,1.6-1.65l10.59-.04c.9,0,1.59.64,1.59,1.61l-.03,7.75c0,.95-.61,1.84-1.55,1.84Z"/>
      <path d="M28.93,39.65h-10.62c-.81,0-1.54-.99-1.54-1.83l-.03-7.44c0-.94.75-1.92,1.66-1.92h10.63c.59,0,1.46.88,1.46,1.53v8.2c-.02.57-.91,1.47-1.56,1.47Z"/>
      <path d="M12.36,39.62l-10.97.02C.9,39.64,0,38.72,0,38.21v-8.23c.01-.6.92-1.51,1.51-1.51l10.63-.02c.7,0,1.61.78,1.61,1.59v8.06c.01.47-.83,1.51-1.38,1.52Z"/>
      <path d="M20.27,25.48h-10.23c-.75,0-1.69-.84-1.7-1.67l-.05-7.77c0-.93.87-1.75,1.74-1.75h10.05c.99,0,2.02.65,2.02,1.8v7.38c0,1.02-.75,2.01-1.84,2.01Z"/>
      <path d="M45.66,11.22l-10.93-.05c-.59,0-1.27-1.32-1.27-1.89V1.88c0-1.09.9-1.86,1.82-1.86L45.7,0c.85,0,1.58.82,1.58,1.72l-.02,7.76c0,.89-.7,1.74-1.6,1.74Z"/>
      <path d="M28.73,11.22l-10.37-.02c-.71,0-1.61-.93-1.61-1.69V1.71c-.01-.84.81-1.69,1.59-1.69h10.4c.78-.01,1.78.67,1.78,1.56v7.91c-.01.97-.93,1.74-1.79,1.74Z"/>
      <path d="M11.99,11.2l-10.26.02C.85,11.22,0,10.49,0,9.48V1.69C.01.71.88.01,1.73.01h10.4c.7,0,1.59.91,1.59,1.69v7.79c0,.84-.88,1.71-1.74,1.71Z"/>
      <path d="M37.05,25.49l-10.42-.03c-.59,0-1.4-.94-1.4-1.59v-7.83c0-.98.85-1.77,1.74-1.77h10.08c.98,0,1.84.76,1.84,1.83v7.66c0,.97-.99,1.72-1.83,1.72Z"/>
      <path d="M5.36,23.29c0,.62-.28,1.53-.6,1.76-.8.58-4,.74-4.74-.13v-10.33c1.54-.43,5.35-.99,5.35,1.52v7.16Z"/>
      <path d="M47.19,24.44c0,1.56-5.16,1.55-5.18-.31l-.12-8.08c-.03-2.45,4.17-1.98,5.33-1.27l-.03,9.66Z"/>
    </g>
  </g>
</svg>