<?xml version="1.0" encoding="UTF-8"?>
<svg id="Warstwa_2" data-name="Warstwa 2" xmlns="http://www.w3.org/2000/svg" viewBox="0 0 57.67 42.3">
  <g id="Icon-Set-V1">
    <g id="icon-set-v1-pixarts-store_08">
      <path d="M56.03,35.31c-.43.24-.81.97-1.33,1.96L30.17,5.39l2.62-3.75c.25-.36.2-1.33-.11-1.56-.31-.22-1.23.03-1.45.35l-2.4,3.56-2.45-3.47c-.21-.3-1.04-.55-1.36-.38-.24.13-.33,1.01-.16,1.28l2.55,4L2.94,37.25c-.47-.94-.74-1.59-1.07-1.88-.33-.3-1.51-.03-1.7.37-.16.34-.23,1.22-.11,1.61l1.18,4c.14.47,1.11,1.15,1.44.89,1.26-1-.02-2.01.88-3.14l5.55-6.97.39,10.12,13.71-.02c3.46-8.91,3.97-15.79,5.43-25.38,2.84,6.83,5.76,13.29,11.24,18.16.8.71,1.53,1.5,1.5,2.3-1.37,1.71-2.05,2.71-2.67,4.93h9.48s.42-9.96.42-9.96c2.08,2.49,4.46,5.43,5.82,7.5.27.41-.03,1.67.1,2.06.11.32,1.35.5,1.5.2.69-1.38,1.36-3.9,1.64-5.62.08-.52-1.2-1.38-1.63-1.14Z"/>
      <path d="M30.47,25.44c.25,4.83,2.46,13.55,6.33,16.27l2.48-4.81c-3.68-3.27-6.29-7.28-8.81-11.46Z"/>
    </g>
  </g>
</svg>