<?xml version="1.0" encoding="UTF-8"?>
<svg id="Warstwa_2" data-name="Warstwa 2" xmlns="http://www.w3.org/2000/svg" viewBox="0 0 52.77 55.05">
  <g id="Icon-Set-V1">
    <g id="icon-set-v1-pixarts-store_83">
      <path d="M46.2,11.71l-2.41-9.84C43.65.69,42.86,0,41.63,0L7.64.02l4.52,31.03-2.81-12.3L5.56.14C1.44.09-.36,6.33.06,8.81l2.44,14.38,3.96,22.7c.36,2.06,1.44,4.16,3.55,4.77,1.43.41,2.93.34,4.53.32v-2.56s-3.42-.16-3.42-.16c-1.11-.9-1.37-2.51-1.29-3.92.13-2.29,1.65-4.19,4.29-4.19l36.98-.02c.56,0,1.41-.36,1.55-.74.12-.32.17-1.16.07-1.55l-6.52-26.14ZM35.05,31.41c-1.65.49-3.7.46-5.6.13l-2.38-14.07-8.02.56-.96-4.76,7.98.44-1.77-6.48,5.35-.07.8,6.56,7.76-.47c.49,1.31.95,3.06,1.24,4.64l-8.11-.27,3.69,13.78Z"/>
      <path d="M49.75,40.97c-2.6,2.02-2,4.67-.86,7.39l-23.86.07c-.04.98.02,1.78.26,2.59l25.14-.02c.3,0,1.14-.37,1.17-.67.02-.24-.02-.77-.09-1.09l-1.77-8.27Z"/>
      <path d="M22.09,43.92l-6.32.06.4,10.94,3.64-2.26,3.68,2.38.03-9.74c0-.57-.86-1.4-1.43-1.39Z"/>
    </g>
  </g>
</svg>