<?xml version="1.0" encoding="UTF-8"?>
<svg id="Warstwa_2" data-name="Warstwa 2" xmlns="http://www.w3.org/2000/svg" viewBox="0 0 47.14 47.3">
  <g id="Icon-Set-V1">
    <path id="icon-set-v1-pixarts-store_51" d="M34.32,19.6c.55-.52,2.06-1.07,2.69-.66,2.58,1.69,5.8,1.74,8.07-.44,1.99-1.9,2.69-4.82,1.43-7.45-1.24-2.6-3.92-3.84-7.04-3.46.32-3.05-1.03-5.83-3.73-7.06-2.66-1.21-5.66-.29-7.39,1.86-1.72,2.14-1.92,5.06-.34,7.59.68,1.08.23,2.43-.7,3.35l-14.34,14.33c-.85.84-2.17.98-3.07.42-2.62-1.62-5.68-1.49-7.85.56-1.96,1.86-2.69,4.91-1.42,7.41,1.32,2.61,3.9,3.89,7,3.57-.45,3.28,1.13,6.04,3.59,7.1,2.8,1.21,5.89.43,7.63-1.84,1.78-2.33,1.95-5.32-.04-8.02-.46-.62,0-1.8.55-2.4,4.87-5.19,9.77-10.01,14.95-14.88Z"/>
  </g>
</svg>