<?xml version="1.0" encoding="UTF-8"?>
<svg id="Warstwa_2" data-name="Warstwa 2" xmlns="http://www.w3.org/2000/svg" viewBox="0 0 29.61 50.99">
  <g id="Icon-Set-V1">
    <g id="icon-set-v1-pixarts-store_13">
      <path d="M22.13,30.86c1.98-3.13,3.45-6.2,4.06-9.95-4.77-4.62-11.18-6.98-17.69-5.14l-1.7,11.61c5.84-.6,10.59.31,15.33,3.48Z"/>
      <path d="M1.78,38.99l8.9,7.54,11.46-3.29-.73-7.23c-4.72-3.38-10.35-4.63-16.07-3.63l-3.55,6.61Z"/>
      <path d="M9.88,50.99l12.41-3.66c.18-.73.06-1.97-.18-2.42l-11.74,3.29-9.25-7.64c-.68.21-1.46,1.76-.97,2.17l9.73,8.26Z"/>
      <path d="M21.71,34.43c3.66-4.16-18.39-8.76-15.75-3.59,5.63-.6,10.82.42,15.75,3.59Z"/>
      <path d="M19.63,1.92C19.67,1.11,18.51,0,17.79,0c-.65,0-1.77.74-1.89,1.43l-.98,5.48,4.43.62.28-5.61Z"/>
      <path d="M18.65,9.38c-.26-1.09-3.29-1.51-3.74-.52-.64,1.42-.81,3.13-1,4.69l4.26.72c.35-1.54.84-3.38.48-4.89Z"/>
      <path d="M12.21,2.54c-.47-.55-1.31-1.22-1.87-1.18-.49.04-1.54.96-1.57,1.48l-.31,5.1,4.42-.31-.66-5.1Z"/>
      <path d="M2.09,21.22c.43,1.88,2.13,3.53,3.35,4.97l1.07-7.82c-1.74-.73-4.88.86-4.42,2.85Z"/>
      <path d="M1.4,18.57c1.82-1.15,2.74-1.55,4.39-1.9-.7-1.43-2.05-5.74-4.35-4.76-.43.18-.9,1.24-.82,1.72l.78,4.94Z"/>
      <path d="M25.49,5.23c.08-.54-.76-1.59-1.29-1.68-.54-.09-1.88.38-2.05.95l-1.32,4.37,3.95,1.17.71-4.81Z"/>
      <path d="M8.68,9.74c-.22,1.38-.17,3.07-.14,4.34l4.45-.68c-.03-1.34-.02-2.9-.54-4-.44-.95-3.61-.69-3.77.34Z"/>
      <path d="M22.95,16.31l1.26-4.61c-1.31-.99-2.09-1.24-3.76-1.21l-1.32,4.16,3.82,1.66Z"/>
      <path d="M25.19,14.17c-.58.44-1.13,1.81-1.46,2.62l2.87,2.47,1.75-3.63c-.5-1.07-1.95-2.4-3.17-1.47Z"/>
      <path d="M28.58,8.86c-.37-.07-1.3.31-1.48.68l-1.32,2.76,3.25,1.47c.52-1.83,1.15-4.62-.45-4.91Z"/>
    </g>
  </g>
</svg>