<?xml version="1.0" encoding="UTF-8"?>
<svg id="Warstwa_2" data-name="Warstwa 2" xmlns="http://www.w3.org/2000/svg" viewBox="0 0 70.46 52.34">
  <g id="Icon-Set-V1">
    <g id="icon-set-v1-pixarts-store_88">
      <path d="M65.55,40.43c-3.18-.29-6.54-1.48-9.69-1.14-3.21.34-6.12,2.42-9.61,2.06,2.55-1.01,4.85-2.07,7.52-3.47l-2.27-5.22-4.1.76,2.8-2.43-4-11.26-3.54-4.18,2.95,1.39c1.26-3.22-1.72-5.44-2.42-8.77l4.27,4.55,4.45-.41,7.94,3.86c-.86-2.62-1.9-5.2-3.47-7.58-.97-1.47-2.87-2.23-4.37-3.06L42.78.38c-.95-.53-1.89-.51-2.8.05l-8.1,4.99c-.88.54-2.82,1.55-3.2,2.61l-6.77,18.73,4.97-1.26-6.97,5.14,2.99,2.75-3.91-.73-2.34,5.06c2.36,1.57,4.84,2.56,7.63,3.55-3.33.54-6.36-1.79-9.63-1.96-4.29-.23-8.62,1.07-12.85,1.78-.75.12-1.71,1.06-1.78,1.65-.33,2.69,7.05,5.53,9.47,6.18l5.27-1.79-1.52,2.69c13.74,3.08,27.82,3.37,41.65.52l-1.55-3.17,5.99,2.07c2.52-.23,11.6-3.59,11.13-6.48-.26-1.57-3.44-2.22-4.89-2.35ZM40.63,44.32l-5.33-3.1-5.46,2.97,1.12-6.07-4.39-4.17,6.04-.66,2.57-5.64,2.59,5.57,6.1.7-4.39,4.16,1.14,6.24Z"/>
    </g>
  </g>
</svg>