<?xml version="1.0" encoding="UTF-8"?>
<svg id="Warstwa_2" data-name="Warstwa 2" xmlns="http://www.w3.org/2000/svg" viewBox="0 0 48.7 51.14">
  <g id="Icon-Set-V1">
    <g id="icon-set-v1-pixarts-store_134">
      <path d="M25.29,51.14l-8.8-3.96.68-3.45c-3.75-8.86-1.41-5.3-8.81-10.94l-4.2.76-2.33-5.39,6.86-15.81c1.09-.59,2.82-1.59,4.04-1.56,1.14.02,3.25,1.66,3.78,2.69l.47,5.61,6.11,2.65-3.95-4.18.47-5.44-3.22-3.29L24.25,0l16.1,8.98,3.57,11.33c-2.32,3.38-8,2.52-8.91,3.76l-3.7,5.09-6.44,2.39,5.09.35-.52,5.16,2.6-4.61c4.25-7.54,5.88-5.94,14.08-7.26l2.58,6.99-5.35,11.28-18.06,7.69Z"/>
      <path d="M12.64,47.88c-.87.87-2.13,1.48-3.22,2.12l-5.99-2.13-3.44-4.21c.46-2.31,1.46-4.38,2.56-6.5l4.65-.85c3.7,2.34,5.14,3.33,6.44,7.89.24.85-.34,3.02-1.01,3.69Z"/>
    </g>
  </g>
</svg>