<?xml version="1.0" encoding="UTF-8"?>
<svg id="Warstwa_2" data-name="Warstwa 2" xmlns="http://www.w3.org/2000/svg" viewBox="0 0 45.65 49.55">
  <g id="Icon-Set-V1">
    <path id="icon-set-v1-pixarts-store_38" d="M40.68,2.82c-5.02-3.96-11.99-3.73-16.76.53-4.52,4.04-5.77,10.65-2.72,16.19L.7,40.15c-1.28,1.28-.59,3.08.41,4.29.72.71,1.84,1.54,2.82,1.35.7-.13,1.65-.91,2.47-1.55l5.5,5.32c1.75-.6,3.08-2.22,3.58-3.79l-2.94-3.21c.59-1.04,1.8-2.46,2.85-2.74,1.22,1.12,2.01,2.02,3.11,2.82.98.71,3.51-2.39,3.65-3.05.09-.43-.5-1.31-.82-1.64l-4.3-4.48,9.1-9.02c6.72,3.83,14.63,1.27,18.04-5.31,2.94-5.68,1.34-12.5-3.49-16.31ZM32.59,19.42c-3.5,0-6.33-2.84-6.33-6.33s2.84-6.33,6.33-6.33,6.33,2.84,6.33,6.33-2.84,6.33-6.33,6.33Z"/>
  </g>
</svg>