<?xml version="1.0" encoding="UTF-8"?>
<svg id="Warstwa_2" data-name="Warstwa 2" xmlns="http://www.w3.org/2000/svg" viewBox="0 0 39.33 57.42">
  <g id="Icon-Set-V1">
    <g id="icon-set-v1-pixarts-store_74">
      <path d="M26.51,19.45l.03-4.8c2.5-.97,2.19-3.3,1.82-5.91-.09-.63-1.65-1.39-1.99-1.37-.23,3.21-13.28,3.13-13.33,0-1.96.31-2.29,1.67-2.25,3.36.04,1.76,0,3.28,2.15,3.85l-.03,4.69c-3.09,1.52-5.96,3.12-8.19,5.74-6.81,7.99-6.09,19.68,1.23,26.81,7.44,7.24,19.2,7.48,26.89.52,7.55-6.82,8.74-18.23,2.44-26.54-2.26-2.98-5.14-4.87-8.76-6.36ZM29.74,51.73c-6.76,4.78-15.76,4.35-21.82-1.39-4.68-4.44-6.54-10.67-4.87-17.09,1.44-5.57,6.04-10.33,12.15-12l.18-6c2.89.33,5.36.35,8.53-.06l.23,5.97c4.9,1.67,9.01,4.63,11.22,9.58,3.4,7.61.79,16.47-5.62,21Z"/>
      <path d="M24.22,7.71l1.32-6.49c-3.87-1.69-7.86-1.55-11.78-.02.29,2.34.69,4.2,1.28,6.45,3.1.77,5.94.74,9.17.06Z"/>
      <path d="M29.79,26.94l-6.69,1.64c-5.26,1.29-8.38-3.15-13.58-1.51-6.15,5.38-6.37,14.81-.88,20.78,5.86,6.37,15.69,6.45,21.6.47,5.96-6.03,5.83-15.7-.46-21.39ZM27.85,38.85c-.31,1.32-1.32,2.88-2.47,3.91l-5.74,5.13-3.79-3.4c-1.52-1.36-3.1-2.82-4.01-4.64-1.16-2.35-.32-4.93,1.95-6.07,2.04-1.03,4.35-.15,5.9,2.04,1.38-2.11,3.44-2.84,5.5-2.17,1.92.62,3.21,2.86,2.66,5.2Z"/>
    </g>
  </g>
</svg>