<?xml version="1.0" encoding="UTF-8"?>
<svg id="Warstwa_2" data-name="Warstwa 2" xmlns="http://www.w3.org/2000/svg" viewBox="0 0 50.63 51.85">
  <g id="Icon-Set-V1">
    <g id="icon-set-v1-pixarts-store_02">
      <path d="M50.62,6.58c-2.42-.3-4.31-.38-6.3-.36l.4,3.98c.31,3.14-1.57,6.35-4.67,7.08,4.37-5.12,2.09-11.51.03-17.27-3.91,5.25-8.46,6.46-7.81,13.67-1.26-1.56-1.31-3.07-1.49-5.26-4.36,2.27-9.85,4.62-12.41,8.97-1.43,2.42-1.35,4.97-4.8,5.92-5.04,1.38-5.78,6.75-10.47,5l-2.47-.92c-.68,1.39-.82,2.97-.33,4.43.92,2.71,1.49,5.19,2.07,8.08,1.2,1,3.34,2.13,4.88,2.4,2.26-1.44,4.45-2.35,6.85-2.91-1.92-4.27-1.91-10,1.94-12.53,4.53,13.88,9.05,7,12.61,12.43-3.81-1.01-7.03.12-10.54,1.35-3.32,1.16-6.84,1.42-9.12,4.25,2.54.7,5.82,2.42,8.37,1.47,4.39-1.77,8.76-2.72,13.48-.9,1.25.48,2.69.27,3.79-.49l4.8-3.34c2.78-1.94,4.14-5.11,3.84-8.49l-.32-3.59c2.84,3.16,3.39,8.12,1.08,11.66-1.12,1.73-3.15,2.59-4.91,4.14,3.57,1.67,6.68,3.52,9.48,6.16.41.39,1.92.64,2.03-.08V6.58ZM5.53,37.99c-2.1-.12-2.21-3.8-2.15-5.49,2.11.93,3.38,5.56,2.15,5.49ZM26.03,24.99l-4.3-.41c3.83-3.43,3.53-4.83,8.76-4.6-1.5,1.81-.48,5.4-4.46,5.02Z"/>
      <path d="M25.82,9.44l-5.27,2.33c-.43-2.04-.4-4.12.46-6.25,2,.85,3.62,2.32,4.81,3.92Z"/>
    </g>
  </g>
</svg>