<?xml version="1.0" encoding="UTF-8"?>
<svg id="Warstwa_2" data-name="Warstwa 2" xmlns="http://www.w3.org/2000/svg" viewBox="0 0 33.88 51.08">
  <g id="Icon-Set-V1">
    <g id="icon-set-v1-pixarts-store_94">
      <path d="M31.35,34.55c-.11-.68-1.58-1.59-1.63-2.17l-1.35-16.44,4.22-4.19L32.52,0h-6.8s-.2,5.47-.2,5.47l-4.97-.13-.11-5.35h-7.05s-.15,5.42-.15,5.42h-4.92S8.17,0,8.17,0L1.18.12v11.58l4.28,4.28-1.37,16.52c-.85.88-1.66,1.98-1.84,3.16L0,49.93c-.09.56.52,1.15,1.09,1.15l10.88-.08.03-8.19c.01-2.88,2.19-5.03,4.86-5.05,2.61-.02,4.82,1.92,4.86,4.74l.11,8.54,12.04-.06-2.53-16.43ZM13.74,27.88l.05-6.21c.02-1.59,1.49-2.82,2.81-2.95,1.37-.14,3.29,1.01,3.33,2.67l.15,6.43-6.34.06Z"/>
    </g>
  </g>
</svg>