<?xml version="1.0" encoding="UTF-8"?>
<svg id="Warstwa_2" data-name="Warstwa 2" xmlns="http://www.w3.org/2000/svg" viewBox="0 0 42.65 49.15">
  <g id="Icon-Set-V1">
    <path id="icon-set-v1-pixarts-store_99" d="M39.87,43.72l-1.49-29.58,3.96-3.23-.09-10.8-9.43-.05-.22,5.8-6.34-.04-.23-5.78h-9.55s-.17,5.78-.17,5.78h-6.3s-.33-5.82-.33-5.82L.29.07l-.13,10.64,4.09,3.48-1.45,29.37-2.79.67.18,4.92,15.5-.07.05-14.92c.02-3.3,2.68-5.71,5.45-5.72,2.91-.02,5.55,2.41,5.57,5.71l.1,15.01h15.64l.15-4.91-2.78-.52ZM9.41,25.5l-.02-5.74c0-1.16.85-2,1.81-2s1.81.92,1.81,2v5.8s-3.6-.07-3.6-.07ZM33.21,25.49h-3.58s-.01-5.72-.01-5.72c0-1.21.72-2.08,1.86-2.05.92.02,1.74.92,1.74,2.04v5.73Z"/>
  </g>
</svg>