<?xml version="1.0" encoding="UTF-8"?>
<svg id="Warstwa_2" data-name="Warstwa 2" xmlns="http://www.w3.org/2000/svg" viewBox="0 0 58.21 36.37">
  <g id="Icon-Set-V1">
    <path id="icon-set-v1-pixarts-store_104" d="M24.2,36.29l-9.05.07v-6.38c4.48-1.01,10.26-3.89,9.07-9.23-.33-1.49-1.75-3.57-3.64-3.84-7.44-1.05-14.55-3.18-19.13-9.77C.63,5.96.11,4.66,0,3.09l16.39-.05c.47,2.32.82,4.03,1.65,6.13.46-3.15.43-5.76.5-9.18h39.31c.55,2,.62,4.58-.92,6.13-2,2-9.93,1.58-14.64,8.85-2.2,3.4-2.32,7.89.22,11,1.84,2.27,4.29,3.12,7.09,3.93v6.42s-8.95.04-8.95.04c-4.46-4.63-11.61-4.94-16.45-.08Z"/>
  </g>
</svg>