<?xml version="1.0" encoding="UTF-8"?>
<svg id="Warstwa_2" data-name="Warstwa 2" xmlns="http://www.w3.org/2000/svg" viewBox="0 0 41.94 59.28">
  <g id="Icon-Set-V1">
    <g id="icon-set-v1-pixarts-store_107">
      <polygon points="24.89 36.88 17.04 36.89 13.16 30.01 17.07 23.06 24.73 23.05 28.67 29.92 24.89 36.88"/>
      <path d="M28.92,46.31c-5.05,3.34-10.92,3.18-15.89.06l3.92-6.98,7.88-.02,4.09,6.94Z"/>
      <path d="M24.98,20.51h-8.05s-3.84-6.7-3.84-6.7c4.86-3.35,11.01-3.26,15.71-.02l-3.82,6.72Z"/>
      <path d="M30.93,44.85l-3.92-6.79,3.82-6.83,6.45.02c-.16,5.33-2.37,10.11-6.35,13.6Z"/>
      <path d="M14.88,38.05l-3.92,6.66c-3.98-3.34-6.01-8.14-6.41-13.42l6.44-.1,3.89,6.87Z"/>
      <path d="M11.13,28.64l-6.57-.03c.3-5.15,2.37-9.83,6.36-13.32l3.98,6.49-3.77,6.85Z"/>
      <path d="M30.75,28.68l-3.74-6.76,3.81-6.65c4.19,3.26,6.01,8.02,6.5,13.31l-6.57.1Z"/>
      <path d="M26.18,9.38c-3.48-.65-6.86-.78-10.36.07-1.13-4.31,1.32-8.29,5.22-9.45,3.65,1.33,6,4.91,5.14,9.38Z"/>
      <path d="M5.33,49.66c-1.69.36-2.83-.83-3.43-1.74-2-3.07-.04-5.53,1.99-8.44,1.46,2.86,3.04,5,5.22,7.2-.99,1.27-2.21,2.66-3.78,2.99Z"/>
      <path d="M3.58,21.24c-1.37-1.05-2.93-2.66-3.45-4.52-.55-1.97.79-3.52,2.03-4.33,1.55-1.02,3.34-.78,4.81.34l1.56,1.19c-2.21,2.16-3.52,4.22-4.95,7.32Z"/>
      <path d="M37.15,49.67c-1.83-.05-3.17-1.69-4.26-2.89,2.11-2.2,3.56-4.23,5.19-7.21,1.04,1.32,1.93,2.69,2.47,4.27.84,2.44-.46,5.91-3.39,5.83Z"/>
      <path d="M38.45,21.17c-1.53-2.83-2.89-4.9-4.93-7.33,1.01-1.04,2.6-2.06,4.11-2.07,2.45-.02,4.23,2.15,4.31,4.59-.69,1.89-1.82,3.4-3.49,4.81Z"/>
      <path d="M25.15,50.87c-.5,3.1-1.84,6.3-4.38,8.41-2.08-2.58-3.51-5.45-4.12-8.46,2.97.44,5.42.49,8.5.05Z"/>
    </g>
  </g>
</svg>