<?xml version="1.0" encoding="UTF-8"?>
<svg id="Warstwa_2" data-name="Warstwa 2" xmlns="http://www.w3.org/2000/svg" viewBox="0 0 47.96 60.03">
  <g id="Icon-Set-V1">
    <g id="icon-set-v1-pixarts-store_77">
      <path d="M23.99,0C17.23,5.88,9.14,9.42.02,10.14c-.14,7.67.58,15.05,1.88,22.52,1.07,5.81,3.43,10.84,7.06,15.46,3.99,5.07,9,8.89,14.86,11.91,8.91-4,16.86-11.9,20.42-20.9,1.46-4.14,2.21-8.25,2.77-12.64.65-5.47,1.17-10.76.86-16.3-8.89-.85-17.07-4.11-23.89-10.19ZM42.98,28.74c-.83,4.54-1.94,8.78-4.1,12.86-3.54,5.96-8.56,10.59-14.87,14.15-4.68-2.58-8.45-5.76-11.76-9.62-3.62-4.36-5.77-9.27-6.83-14.87-.97-5.95-1.43-11.84-1.45-17.73,7.52-1.27,14.06-3.97,19.95-8.68,5.9,4.63,12.51,7.3,20.14,8.67l-1.08,15.21Z"/>
      <path d="M12.47,19.87c.34,11.92.28,18.06,11.64,24.13,11.55-6.75,10.8-11.98,11.41-24.14-4.57-.27-8.28-1.63-11.61-4.51-3.27,3.04-6.95,4.29-11.44,4.53ZM32.75,22.22c-.42,8.56-.26,14.3-8.69,18.39l-.02-21.64c2.98,1.8,5.54,2.73,8.71,3.25Z"/>
    </g>
  </g>
</svg>