<?xml version="1.0" encoding="UTF-8"?>
<svg id="Warstwa_2" data-name="Warstwa 2" xmlns="http://www.w3.org/2000/svg" viewBox="0 0 37.65 43.55">
  <g id="Icon-Set-V1">
    <g id="icon-set-v1-pixarts-store_70">
      <path d="M.26,40.13c.26.56,1.5,1.27,2.16,1.26l3.68-.1c8.13,2.93,16.74,3.02,24.91.21,2.21-.76,5.3.89,6.4-1.36,1.06-2.16-1.62-2.01-1.23-6.58.55-6.53-2.41-12.22-7.1-16.27-1.22-1.05-2.24-2.33-4.19-2.17,1.15,1.55,4.97,8.83,2.5,9.15-2.03.26-.97-4.84-4.22-7.46-.03,1.24-.24,9.29-2.46,7.94-1.62-.99,1.58-5.26-.21-9.17l-9.48-.24C5.22,19.3.79,25.83,1.42,33.38c.42,5-2.25,4.43-1.16,6.75Z"/>
      <path d="M12.09,10.22l12.61-.2c.8-2.25,4.69-6.74,4.05-7.71-.88-1.32-3.81,1.07-5.95.6l-2.34-2.35c-1.88-1.13-4.3-.38-5.78,1.01-2.49,2.33-3.28.09-6.27.97-.35.1-.81,1.23-.58,1.56l4.27,6.13Z"/>
      <path d="M12.47,11.46c-.61,0-1.34.8-1.34,1.34,0,.48.81,1.37,1.35,1.37l12.33-.03c.52,0,1.26-.89,1.26-1.36,0-.52-.7-1.37-1.27-1.37l-12.33.04Z"/>
    </g>
  </g>
</svg>