<?xml version="1.0" encoding="UTF-8"?>
<svg id="Warstwa_2" data-name="Warstwa 2" xmlns="http://www.w3.org/2000/svg" viewBox="0 0 52.21 42.28">
  <g id="Icon-Set-V1">
    <path id="icon-set-v1-pixarts-store_118" d="M52.21,22.83l-3.09-1.38c-2.91-1.3-6.08-.33-7.69,2.61-1.1,2-1.14,4.24-1.34,6.76-3.38-2.02-6.69-1.44-9.04,1.27-2.48,2.86-3.67,6.34-5.02,10.19-1.17-4.12-2.46-7.6-5.09-10.42-2.37-2.54-5.56-2.98-8.82-1.02-.19-2.82-.31-5.28-1.73-7.39-1.42-2.11-3.98-3.3-6.3-2.3L0,22.89C-.14,12.64,6.3,3.07,15.59.07c-.85,2.54-1.71,4.39-1.92,6.64-.44,4.77,2.98,8.82,7.43,9.2l1.01-8.23,2.48,2.86c.46.53,2.23.57,2.86.25l2.63-3.1,1.11,8.2c4.35-.38,7.26-4.01,7.28-8.53.01-2.5-1.11-4.73-1.91-7.36,9.42,3.19,15.57,12.39,15.64,22.83Z"/>
  </g>
</svg>