<?xml version="1.0" encoding="UTF-8"?>
<svg id="Warstwa_2" data-name="Warstwa 2" xmlns="http://www.w3.org/2000/svg" viewBox="0 0 45.24 39.2">
  <g id="Icon-Set-V1">
    <g id="icon-set-v1-pixarts-store_12">
      <path d="M3.25,31.35c-1.99.94-3.21,2.97-2.32,4.86.89,1.9,3.41,2.81,5.53,2.53l9.06-1.18,1.41-4.12,1.98,3.54c2.93-.07,5.43.3,8.37.86l4.88.93c3.28.62,11.33,1.21,12.36-3.01.45-1.84-.88-3.62-2.45-4.26l-1.33,4.61c-1.96.45-6.18-.51-6.36-3.15-.27-3.9.96-7.86,1.2-11.87.3-4.99-.07-9.73-.73-14.66l-4.73.17-1.49,3.59-2.08-3.92c-5.36-1.5-10.48-1.66-15.97-.33-1.63,10.96-.84,15.37.48,25.99.37,3-4.04,4.54-6.52,4.1l-1.28-4.68ZM15.31,17.03l2.71-2.77,4.56,4.59,4.66-4.6,2.71,2.77-4.71,4.34,4.7,4.68-2.79,2.82-4.58-4.73-4.5,4.65-2.79-2.76,4.57-4.58-4.55-4.42Z"/>
      <path d="M8.93,29.75c-1.52-12.21-1.3-15.07.1-26.64.18-1.51-.32-2.7-1.91-2.99-1.88-.35-3.87.05-5.27,1.44C.71,2.7.1,4.69.35,6.6c1.04,8.11.92,15.79-.35,24.51,2.8-2.24,5.71-2.88,8.93-1.37Z"/>
      <path d="M42.88,1.29c-1.71-1.3-4.44-1.9-6.18-.28-.69.64-.53,2.77-.35,3.81,1.47,8.43,1.28,16.55-.11,25,3.38-1.52,6.23-.94,9,1.43-1.07-8.38-1.37-16.07-.41-24.14.28-2.34-.28-4.56-1.94-5.82Z"/>
      <path d="M5.06,30.98l.75,3.33c1.17.12,3.49-.57,3.26-1.84-.31-1.69-2.76-1.81-4.01-1.49Z"/>
      <path d="M39.52,34.34l.78-3.3c-1.57-.21-3.88-.18-4.16,1.64-.08,1.02,2.34,1.95,3.38,1.66Z"/>
    </g>
  </g>
</svg>