<?xml version="1.0" encoding="UTF-8"?>
<svg id="Warstwa_2" data-name="Warstwa 2" xmlns="http://www.w3.org/2000/svg" viewBox="0 0 36.67 49.5">
  <g id="Icon-Set-V1">
    <g id="icon-set-v1-pixarts-store_10">
      <path d="M12.37,48.51c9.16,3.1,19.02-1.25,22.79-9.96,3.75-8.67.35-19.07-8.25-23.42l-.79-2.71c-.92.78-1.55,1.29-2.06,1.9-3.03,3.63-8.06,3.79-11.22.28-.69-.77-1.29-1.28-2.36-2.13l-.74,2.57C3.14,18.6-.69,25.5.1,33.13c.71,6.87,5.3,13.02,12.27,15.37ZM18.33,19.78c7.27,0,13.17,5.9,13.17,13.17s-5.9,13.17-13.17,13.17-13.17-5.9-13.17-13.17,5.9-13.17,13.17-13.17Z"/>
      <path d="M18.65,15.6c.17-.12.59-.51.7-.75l2.62-5.8-7.36.02,2.76,6.04c.15.32,1.06.65,1.29.49Z"/>
      <path d="M24.66,1.41c-4.08-1.88-8.44-1.87-12.67-.02,2.11,2.02,10.49,1.93,12.67.02Z"/>
      <path d="M20.95,4.35l-5.23-.02c-.45,1.03-.81,2.02-1.14,3.12l7.51-.07-1.14-3.02Z"/>
      <polygon points="13.98 4.1 10.43 2.75 8.62 5.46 12.89 7.17 13.98 4.1"/>
      <path d="M23.78,7.17l4.25-1.82c-.64-.94-1.49-2.06-2.1-2.57l-3.42,1.34,1.27,3.05Z"/>
      <path d="M8.9,7.53l5.93,6.66c-.86-3.72-1.91-6.22-5.93-6.66Z"/>
      <path d="M21.58,14.36l6.12-6.85c-4.81.94-4.71,2.62-6.12,6.85Z"/>
    </g>
  </g>
</svg>