<?xml version="1.0" encoding="UTF-8"?>
<svg id="Warstwa_2" data-name="Warstwa 2" xmlns="http://www.w3.org/2000/svg" viewBox="0 0 42.78 48.21">
  <g id="Icon-Set-V1">
    <path id="icon-set-v1-pixarts-store_06" d="M2.12,29.08c1.78,3.75-1.79,5.1,1.01,8.33,2.16,2.49,4.95.73,6.32,2.16,1.28,1.34.25,3.93,1.06,5.61.35.73,1.96,1.38,2.86,1.43,1.75.1.41-3.96,2.21-3.46l.76,4.27c.71.83,2.96.94,3.76.38l1.22-4.66,1.21,4.52c.91.88,3.31.72,4.05-.57l.33-3.2c.03-.29.59-.98.77-.77,1.1,1.33.35,3.1,1.5,3.37.85.2,2.8-.53,3.08-1.31.39-1.09.35-2.57.36-3.67.03-4.17,4.09-1.22,6.81-3.95,3.04-3.05-.71-4.56,1.3-8.72,3.1-6.43,2.7-13.69-1.4-19.75C35.18,2.96,27.84-.31,20.44.02,13.26.35,6.47,4.06,2.61,10.48c-3.45,5.74-3.34,12.6-.48,18.6ZM25.56,24.12c2.54-2.93,7.95-3.18,10.44.07,1.99,2.59.3,6.94-2.7,8.1-3.04,1.18-5.83-.63-7.43-2.92-1.05-1.5-1.67-3.67-.31-5.25ZM21.14,30.51c1.15-.55,3.96,5.4,2.78,6.85-.96,1.19-1.9-1.38-3.21-.4-.54.41-1.21.67-1.59.52-1.92-.76,1.16-6.57,2.02-6.98ZM8.51,22.66c2.38-1.13,5.22-.98,7.51.34,1.27.73,2.1,2.02,1.88,3.72-.52,4.06-4.62,6.82-8.45,5.61-1.85-.58-2.93-2.56-3.42-4.31-.63-2.26.4-4.37,2.49-5.36Z"/>
  </g>
</svg>