<?xml version="1.0" encoding="UTF-8"?>
<svg id="Warstwa_2" data-name="Warstwa 2" xmlns="http://www.w3.org/2000/svg" viewBox="0 0 47.25 48.19">
  <g id="Icon-Set-V1">
    <g id="icon-set-v1-pixarts-store_131">
      <polygon points="23.64 36.22 20.87 27.01 11.88 24.13 20.83 21.29 23.64 12.11 26.5 21.3 35.45 24.14 26.53 27.01 23.64 36.22"/>
      <polygon points="9.62 19.77 7.3 12.33 0 9.99 7.28 7.5 9.6 0 11.93 7.47 19.27 9.95 12.07 12.3 9.62 19.77"/>
      <polygon points="37.66 48.19 35.23 40.84 28.04 38.48 35.25 36.07 37.59 28.69 39.98 36.09 47.25 38.46 40.01 40.87 37.66 48.19"/>
      <polygon points="36.41 15.52 35.11 11.4 31.28 10.01 35.04 8.67 36.4 4.53 37.76 8.51 41.79 10.06 37.76 11.41 36.41 15.52"/>
      <polygon points="10.95 43.68 9.64 39.78 5.89 38.32 9.58 37.04 10.92 32.8 12.26 36.98 16.03 38.4 12.26 39.71 10.95 43.68"/>
    </g>
  </g>
</svg>