<?xml version="1.0" encoding="UTF-8"?>
<svg id="Warstwa_2" data-name="Warstwa 2" xmlns="http://www.w3.org/2000/svg" viewBox="0 0 47.46 47.86">
  <g id="game-icon-v5-divine-pixarts-store">
    <g id="game-icon-v5-divine-pixarts-store_183">
      <path d="M11.61,11.87c.34-.41.68-1.63.33-1.97-.36-.35-1.05-.64-1.97-1.07.15-.14.89-.5,1.24-.48.35.03,1.06.53,1.23.84,2.88,5.14-4.84,10.32-5,19.06-.11,6.08,3.48,11,9.14,13.04.6.22,1.26,1.13,1.35,1.65.48,2.68-4.14.7-3.69,4.91h18.93c.4-4.2-4.73-2.34-3.58-5.21.18-.44.81-1.19,1.36-1.39,7.13-2.67,10.78-10.12,8.34-17.44-.94-2.82-2.45-5.4-3.79-8.11-1.16-2.35-2.04-6.38.41-7.32.31-.12,1.05.23,1.13.38-.87.47-1.64.92-1.79,1.57-.14.6.44,1.69,1.09,2.01,1.14.56,2.56.09,3.27-.69.8-.87.94-2.36.54-3.56-.53-1.59-2.12-2.34-3.59-2.35-1.47,0-3,.8-3.79,2.26-2.02,3.76-.01,7.94,1.45,11.89,2.12,5.73,2.89,13.03-4.46,15.41-1.52-6.67.2-15.88-1.02-22.54-.63,6.85-.22,13.35-.28,20.26,0,.46-1.66.61-1.69.16-.53-6.69.37-13.59-.52-20.36-.83,6.65-.03,13.84-.47,20.26-.04.57-1.7.38-1.7-.09-.12-6.93.37-13.36-.32-20.24h0c-1.19,3.06.59,20.08-1.11,20.77-.31.12-1.11-.1-1.11-.57l.04-19.07c0-.24-.58-.83-.71-.82l-.05,19.21c0,.62-.5,1.32-.91,1.27-.58-.07-1.03-.62-1.04-1.28-.09-6.56.27-12.74-.3-19.4-1.34,6.22.32,15.92-.92,22.41-3.79-.73-5.92-4.11-6.06-7.82-.26-6.76,4.3-11.41,3.7-17.11-.27-2.54-1.97-4.5-4.57-4.54-1.53-.02-2.97.84-3.5,2.11-.54,1.28-.38,2.92.68,3.96,1.04,1.02,2.84,1.02,3.7-.01Z"/>
      <path d="M4.45,32.49c.77.71,1.5,2.48,1.86,3.59-1.76-1.16-3.49-2.07-5.75-2.06,3.98,8.55,6.47,2.1,10.38,7.49-1.86-.65-3.82-.61-5.93.44,5.2,4.42,5.74.87,10.54,1.15-8.16-4.04-11.96-12.73-9.37-21.22.69-2.26,1.76-4.1,2.76-6.34-2.22,2.35-3.19,5.21-4.4,8.09-.33-2.21-.71-4.02-2.3-5.47-1.49,2.65-.56,5.75,2.02,7.49l.16,5.17c-.83-2.47-2.1-4.29-4.35-5.24-.44,3.41,1.32,5.66,4.38,6.9Z"/>
      <path d="M38.37,15.91c6.72,9.54,3.91,21.99-6.43,27.06,4.7-.19,4.99,3.49,10.43-1.09-1.88-.82-3.57-.85-5.84-.73l2.49-2.04,3.09-.14c2.33-.11,4.06-2.73,4.6-4.97-2.4.19-4.11,1.17-5.87,2.43.52-1.28,1.37-3.06,2.21-4.03,3.11-1.12,4.75-3.61,4.36-6.82-2.44,1.17-3.76,2.96-4.36,5.23l.1-5.2c2.54-1.77,3.61-4.75,1.99-7.6-1.43,1.65-1.9,3.46-2.27,5.72-1.48-2.73-1.73-6-4.49-7.81Z"/>
      <path d="M23.78,12.76l6.77-.02c.41,0,.44-1.43.03-1.43l-6.79-.07.54-2.58c.07-.34-.41-1.1-.71-1.04-.3.06-.7.69-.65,1l.44,2.63-6.46.06c-.31,0-.89.62-.78.86.11.24.73.61,1.08.6l6.53-.02s0,0,0,0c0,0,0,0,0,0Z"/>
      <polygon points="23.78 12.76 23.78 12.76 23.78 12.76 23.78 12.76"/>
      <path d="M41.48,13.3c-.88,1.94-1.13,4.17.32,5.69,1.54-1.95,1.2-4.1-.32-5.69Z"/>
      <path d="M5.78,18.87c1.47-2.18.89-4.13.09-5.79-1.43,1.93-1.88,4.43-.09,5.79Z"/>
      <path d="M23.71,5.09c.48-1.4,1.18-2.15,2.49-2.57-1.32-.22-2.11-1.13-2.45-2.52-.35,1.38-1.06,2.3-2.37,2.54,1.36.49,2.06,1.32,2.33,2.55Z"/>
      <path d="M29.63,5.19l.35,1.2c.49-.71,1.11-1.46,1.51-1.83-.58-.4-1.2-1.26-1.44-1.88-.23.88-.79,1.59-1.53,1.97.33.14,1.03.27,1.11.55Z"/>
      <path d="M17.15,5.83c.48-.43,1.3-1.01,1.77-1.29-1-.28-1.56-1.02-1.9-1.95-.13.43-.22,1.35-.54,1.49l-.95.41c.72.5,1.45,1.1,1.61,1.34Z"/>
    </g>
  </g>
</svg>