<?xml version="1.0" encoding="UTF-8"?>
<svg id="Warstwa_2" data-name="Warstwa 2" xmlns="http://www.w3.org/2000/svg" viewBox="0 0 43.06 43.29">
  <g id="game-icon-v5-divine-pixarts-store">
    <g id="game-icon-v5-divine-pixarts-store_126">
      <polygon points="38.43 16.05 25.78 16.06 25.74 3.37 16.03 3.39 15.98 15.99 3.32 16.11 3.38 25.92 15.97 25.91 16.03 38.68 25.75 38.66 25.75 25.94 38.43 25.82 38.43 16.05"/>
      <path d="M43.05,13.19l-3.17,2.53.08,10.38c.49,1.13,2.13,2.77,3.11,3.32V13.19Z"/>
      <path d="M26.3,40.17l-10.69.06c-.81.96-1.54,2.01-2.02,3.06h15.4s-2.69-3.12-2.69-3.12Z"/>
      <path d="M11.75,30.43l2.14-3-10.79-.06c-.88.93-1.51,1.77-2.23,3.18l10.88-.12Z"/>
      <polygon points="27.24 3.03 27.31 13.91 30.41 11.21 30.34 .44 27.24 3.03"/>
      <path d="M30.33,42.21l.02-10.76-3.08-2.81-.03,10.24c.76,1.17,1.86,2.4,3.09,3.33Z"/>
      <path d="M41.56,30.47c-.99-1.3-1.92-2.33-2.82-3.13l-10.43.14,3.14,3.08,10.11-.08Z"/>
      <path d="M1.92,26.05l.07-8.82c.01-1.43-.49-2.62-1.98-3.2l.07,14.32c.71-.48,1.84-1.63,1.84-2.31Z"/>
      <path d="M15.94,1.95h10.14c.72,0,1.9-1.36,2.24-1.95h-14.36c.33.64,1.33,1.95,1.99,1.95Z"/>
      <path d="M11.44,12.63l-10.02.04c.43.81,1.38,1.94,2.02,1.93l9.95-.06c-.4-.9-1.27-1.92-1.95-1.91Z"/>
      <path d="M29.16,14.48l8.68.17c1.35.03,2.57-.89,3.19-2l-9.79-.02c-.6,0-1.55,1.09-2.08,1.85Z"/>
      <path d="M12.62,10.54c0,.94.81,1.93,1.88,2.37l.06-9.62c0-.63-1.26-1.58-1.89-1.87l-.05,9.12Z"/>
      <path d="M14.56,38.95l-.04-9.57c-.62.37-1.89,1.53-1.89,2.26l.04,9.61c.87-.56,1.9-1.64,1.89-2.3Z"/>
    </g>
  </g>
</svg>