<?xml version="1.0" encoding="UTF-8"?>
<svg id="Warstwa_2" data-name="Warstwa 2" xmlns="http://www.w3.org/2000/svg" viewBox="0 0 41.28 42.32">
  <g id="game-icon-v5-divine-pixarts-store">
    <g id="game-icon-v5-divine-pixarts-store_13">
      <path d="M1.47,27.22l13.2.03.08,13.69c0,.52.95,1.4,1.54,1.38l10.31-.2.11-14.88h13.13c.54,0,1.44-.95,1.43-1.49l-.03-9.27c0-.55-.86-1.52-1.4-1.52l-13.13-.04-.15-14.74L16.28,0c-.5,0-1.59.64-1.59,1.22l-.02,13.74H1.89C.81,14.95,0,15.57,0,16.72l.04,9.08c0,.52.95,1.42,1.43,1.42ZM30.36,17.63l4.01,2.63,2.98-2.19c.15-.11.9.06.88.24-.01.19-.13.69-.27.82l-2.27,1.97c.99,1.11,2.06,1.2,2.45,3.16l-4.24-2.49-3.42,2.75c-.19-2.78-.22-4.35-.12-6.89ZM24.2,36.83c-1.28,1.23-2.39,2.12-4.11,3.28l-.35-3.83c-.84.42-1.36.7-2.63,1.02.94-1.26,1.6-1.94,2.44-2.83l-2.55-2.42c.95-.36,1.39.01,2.62.73l.45-3.87,4.15,2.95-2.62,2.67,2.6,2.3ZM18.04,2.81c1.47.09,1.17.93,1.4,2.1l2.33-1.88c.16-.13.88.01,1.04.15.8.72-3.54,2.96-3.44,4.5,1.21-.65,2.51-1.64,3.7-2.55.19-.02.69-.12.86-.15.17-.03.28.75.15.86l-4.38,3.66c-1.06,2.16.54,1.66-1.08,3.11-.2.18-.63-.72-.63-.99l.05-8.81ZM16.33,20.37l3.3-.19.19-3.36c.01-.18.35-.56.49-.67.22-.16,1.02.35,1.03.6l.1,3.29,2.78.23,1.07.08c.24.02.31.88.21,1.1-.13.3-.81.48-1.17.49l-2.82.02-.19,3.41c-.03.44-1.45.47-1.46.06l-.16-3.47-3.37-.15c-.19,0-.65-.54-.62-.74.03-.19.43-.69.63-.7ZM7,19.8l2.83-2.32c.19-.14.92-.29.92-.05,0,.24-.12.94-.28,1.1l-2.45,2.35,2.55,2.66c.14.14.45.68.55.86.09.18-.46.44-.73.55l-3.74-3.48-3.11,4.04-.05-8.44,3.53,2.73Z"/>
      <path d="M11.54,11.53l-2.48-3.71,2.32-4.34c-2.58-.21-4.49.15-6.57,1.17l2.65,3.55-1.51,3.58c2.57-.94,2.82-.92,5.59-.23Z"/>
      <path d="M33.45,29.67c-1.36,1.16-2.54,2.37-3.62,3.62l2.66,2.91-2.27,2.29c-.16.16.3,1.02.47.88l.63-.52,2.36-1.93c1.42,1.19,1.62,2.74,3.44,2.16l-2.66-3.12,2.93-2.69-3.95-3.6ZM33.47,35.3l-1.99-2.09,2.16-2.06,1.99,2.09-2.16,2.06Z"/>
      <path d="M10.42,29.69l-1.97,3.36-2.64-3.18c-.54.93.17,2.26,1.01,3.34-1.49,1.15-1.33,2.75-.57,4.53.38.87,1.53,1.66,2.56,1.5.83-.13,1.49-1.66,1.24-2.33-.87.6-1.77.95-2.62.57-.74-.33-1.1-1.58-.76-2.28.29-.6,1.83-1.24,2.36-.74.42.4.78,1.12,1.35,2.05.25-.37.6-1.73.29-2.09l-1.09-1.29c.82-1.22,1.75-2.13.83-3.43Z"/>
      <path d="M31.89,12.35c.04-.13.34-.77.34-.92l.13-6.41,2.29,1.54c.25.17.89.31,1.15.32,2.35.13-3.82-4.18-4.61-4.33-.29-.62-.52,13.72.72,9.81Z"/>
    </g>
  </g>
</svg>