<?xml version="1.0" encoding="UTF-8"?>
<svg id="Warstwa_2" data-name="Warstwa 2" xmlns="http://www.w3.org/2000/svg" viewBox="0 0 43.48 39.21">
  <g id="game-icon-v5-divine-pixarts-store">
    <g id="game-icon-v5-divine-pixarts-store_07">
      <path d="M43.42,10.53c-.47-5.16-4.3-9.32-8.91-10.27-5.07-1.04-9.95,1.08-12.7,5.84C18.95,1.26,13.63-1,8.36.48,3.35,1.89-.18,6.67,0,12.26c.29,8.79,7.28,15.79,13.79,20.81l7.98,6.15,8.34-6.48c6.75-5.25,14.12-13.2,13.3-22.2ZM31.29,25.5c-.55,3.28-2.95,5.91-6.14,6.94.58-1.26,1.25-2.59,1.26-3.55.05-3.82-4.56-2.84-4.58-9.05-2.62,1.53-2.39,4.64-1.32,7.63-1.69-.04-2.09-1.37-2.86-2.82-1.76,2.46-1.2,5.26.55,7.78-3.04-.72-4.77-3.09-5.65-5.25-2.12-5.22,2.01-7.67,3-12.79.63,1.1.92,2.51,1.24,4.4,3.09-3.21,4.83-5.43,3.16-10.75,8.66,4.79,4.98,9.22,5.7,12.86.08.42,1.46.88,1.78.53.79-.85,1.01-2.74,1.1-4.42,2.26,2.09,3.25,5.51,2.75,8.49Z"/>
    </g>
  </g>
</svg>