<?xml version="1.0" encoding="UTF-8"?>
<svg id="Warstwa_2" data-name="Warstwa 2" xmlns="http://www.w3.org/2000/svg" viewBox="0 0 41.59 52.39">
  <g id="game-icon-v5-divine-pixarts-store">
    <g id="game-icon-v5-divine-pixarts-store_73">
      <path d="M.63,44.31c5.45,2.46,12.39,2.68,17.42-1.19,2.12-1.63,4.34-2.8,6.79-4.1-.38-3.73.9-6.64,3.55-8.62-1.48-.98-2.49-.3-4.17.65-.3-1.59.9-2.2,2.52-3.27l-1.55-.54c1.59-.5,2.42-.63,3.55-1.66l-2.64-.34,2.34-.84c.4-.14,1.02-.75,1.21-1.04l-2.9-.3c1.89-.59,3.68-.61,4.2-2.55l-3.02.35c1.62-1.27,3.3-1.19,3.92-3.36l-4.15,1.28,2.58-1.86c.9-.65,1.51-1.68,1.41-2.94-3.04,1.97-6.11,3.27-6.19,7.32-2.01-5.43,5.36-4.9,5.64-10.81l-6.21,4.99c-1.59,1.28-2.75,3.68-2.12,5.59.92,2.81,1.25,5.77-.82,7.97.28-2.21.79-4.18,0-6.05-2.38-5.73,1.82-8.36,5.35-11.01.58-.44.55-2.31-.11-2.92-2.78.3-6.19.9-8.64,1.42l-.06,1.08,8.51-1.64c-2.62,2.14-5.75,1.97-8.87,2.73-1.53,2.93.94,4.13.87,7.14l-2.09.75c.52.23,1.02.14,2.01-.18.89,1.48,1.11,3.91.76,5.72.31.39,1.08,1.15.82,1.48l-1.11,1.39c-1.24-.17-2.39-.2-3.5.28,1.51.53,2.66.67,3.74.74.4,1.33-.22,2.71-1.29,3.35-1.02-.19-2.26-.34-3.9-.35.99.7,2.12,1.26,3.36,1.75l-.85,1.87c-1.05,2.31-2.59-.8-5.21-.59l-3.15,3.05.65,1.08c-2.4-.8-10.11.64-8.61,4.15Z"/>
      <path d="M24.18,42.22l.6,1.51c2.17-.48,4.45-1.26,6.56-2.23l-.12-3.65c-5.4,2.6-7.72,2.12-12.22,5.81-5.47,4.48-12.64,3.89-18.84,1.72-.08.32-.23.94-.1,1.14.77,1.19,10.25,3.6,16.65.14,1.81-.98,7.14-5.3,7.48-4.45Z"/>
      <path d="M11.07,12.51l2.53,5.71c1.34.09,3.48-1.06,3.3-2.27-.32-2.14-.19-3.33.66-5.26-1.11-.77-7.7-.93-6.48,1.82Z"/>
      <path d="M39.67,0c-1.74,3.49-3.48,6.69-6.39,9.12-1.14.95-1.93,2.21-1.69,3.54l1.32-.91-.38,1.63c3.73-2.62,9.07-8.38,7.14-13.39Z"/>
      <path d="M25.7,38.82c1.52-.49,4.08-.86,4.81-2.28,1.06-2.05-.2-4.32-.99-5.86-2.92,1.68-4.18,4.71-3.82,8.14Z"/>
      <path d="M33.71,13.46c-.63.42-1.12,1.06-1.58,1.8l1.72-.33-1.54,1.76c4.91-1.68,9.02-5.62,9.28-10.99-2.25,3.13-4.72,5.65-7.88,7.76Z"/>
      <path d="M22.11,47.6c-1.68-.26-3.27-.34-4.71.2,3.19.9,5.76,1.76,8.57,2.92,3.73,1.55,7.68,2.33,11.25.95-3.33-.09-5.98-.28-8.61-1.53l-6.49-2.54Z"/>
      <path d="M32.02,18.52l2.06-.3-2.18,1.43c3.34.23,9.32-4.12,9.55-7.45-2.07,1.54-4.04,2.95-6.38,4.09-1.22.59-2.08,1.14-3.05,2.24Z"/>
      <path d="M20.57,46.19c5.36.46,12.34,5.34,16.51.44-7.81,2.59-10.72-2.41-16.51-.44Z"/>
      <path d="M31.67,21.03c.13.11.43.37.4.35-.43.44-.68.72-1.07,1.22,3.6-.1,6.84-1.06,8.68-4.31l-7.46,2.18c-.16.05-.68.46-.56.56Z"/>
      <path d="M29.77,24.83c2.67.56,5.38.27,7.09-1.97l-5.1.28c-.82.29-1.53.81-2,1.69Z"/>
      <path d="M14.34,21.85c.07.7.25,1.63.48,2.57,1.65-.61,2.71-1.05,4.39-1.88-1.81-1.13-3.13-1.06-4.87-.69Z"/>
      <path d="M13.18,49.79c5.73.05,5.56,1.4,10.61,2.44-3.1-2.11-7.11-3.98-10.61-2.44Z"/>
      <path d="M15.19,26.27l-.31,1.9c1.73-.07,2.93-.21,4.39-1.05-1.49-.71-2.77-.9-4.09-.85Z"/>
      <path d="M34.04,25.94l-4.06-.17c-.41-.02-1.33.91-1.21,1.06,1.92.74,4.09.94,5.27-.89Z"/>
      <path d="M18.72,31.68c-.69-1.03-2.67-1.54-3.7-1.4-.38.05-.83,1.27-.71,1.53,1.57.17,2.96.18,4.41-.13Z"/>
      <path d="M29.48,45.06l2.77.34c1.92.24,3.92-.71,4.76-2.28-1.25.58-2.4,1.04-3.65,1.3l-3.87.63Z"/>
      <path d="M17.94,18.44c.1-.19-.69-.6-.87-.5l-3.46,1.92c1.08,1.17,3.65-.16,4.33-1.43Z"/>
      <path d="M12.02,34.58c1.32.67,2.83,1.29,4.43,1.78-.57-2.1-2.64-3.22-4.43-1.78Z"/>
    </g>
  </g>
</svg>