<?xml version="1.0" encoding="UTF-8"?>
<svg id="Warstwa_2" data-name="Warstwa 2" xmlns="http://www.w3.org/2000/svg" viewBox="0 0 52.81 47.97">
  <g id="game-icon-v5-divine-pixarts-store">
    <g id="game-icon-v5-divine-pixarts-store_109">
      <path d="M13.74,41.47c1.61-.72,3.14-2.13,4.68-2l11.26.93c1.26.1,3.43.46,4.53-.08,11.23-5.56,9.59-4.75,18.16-12.7.34-.32.56-1.49.36-1.9-.97-1.99-4.35.34-5.63,1.39-2.25,1.85-4.58,3.21-7.04,4.71-1.61.98-3.06,2.19-5.18,2.2l-9.91.03c.78-3,14.53.82,13.79-4.13-.1-.65-1.22-1.73-1.9-1.74l-5.91-.03c-7.86-.04-11.63-4.26-18.53,1l-5.23,3.99,6.55,8.33Z"/>
      <path d="M22.93,13.39c-2.28,2.92-3.57,8.32-1.23,11.4,6.1,3.81,15.59.03,18.32,3.99,3.2-3.19,4.36-7.76,2.82-12.24-1.26-3.66-4.74-6.53-9.06-7.26-4.18-.71-8.3.84-10.85,4.12ZM30.88,11.71c-4.43,1.56-6.93,4.51-7.87,8.68-.71-4.69,2.94-9.55,7.87-8.68Z"/>
      <polygon points="14.01 43.97 5.08 32.69 0 36.47 9.38 47.97 14.01 43.97"/>
      <path d="M43.9,25.88l-1.95,3.39,7.29-5.38c-2.41-1.59-4.28.14-5.35,1.99Z"/>
      <path d="M31.95,0c-.39,2.17-1.09,5.76.01,6.99,1.07,1.2.36-7.03-.01-6.99Z"/>
      <path d="M52.4,20.17l-5.81-.81-.82.75c-1.31,1.2,6.81.33,6.63.06Z"/>
      <path d="M15.79,8.65c1.51,1.59,2.86,2.68,4.61,4.08l.7-.72c.29-.3-4.62-3.47-5.31-3.36Z"/>
      <path d="M17.91,20.94c.25-.57.48-.94.33-1.04-.14-.1-.83-.36-1.06-.34l-5.75.58,6.47.8Z"/>
      <path d="M43.08,12.28c-.4,1.69,5.15-3.19,4.97-3.48-1.44.41-4.65,2.12-4.97,3.48Z"/>
      <path d="M23.98,9.31l.1-.81-3.55-4.19c-.23.65,3.26,6.52,3.45,4.99Z"/>
      <path d="M39.65,9.05l1.34.27,2.49-4.96c-1.6,1.54-2.42,2.7-3.83,4.69Z"/>
    </g>
  </g>
</svg>