<?xml version="1.0" encoding="UTF-8"?>
<svg id="Warstwa_2" data-name="Warstwa 2" xmlns="http://www.w3.org/2000/svg" viewBox="0 0 29.46 48.96">
  <g id="game-icon-v5-divine-pixarts-store">
    <g id="game-icon-v5-divine-pixarts-store_99">
      <path d="M.16,48.67c1.58.58,3.71.21,5.17-.41,2.17-.92,4.05.61,6.03.61l14.5.03c1.56,0,3.01-1.2,3.46-2.49.37-1.07.04-2.98-.92-3.98-5.78-5.96-12.81-6.59-10.77-9.24,2.57.24,5.27-.21,7.51-1.47l-.44-6.07c1.98-1.42,3.88-3.84,2.72-6.21-.52-1.06-2.04.51-2.71.8-.61.26-1.69.61-1.82,1.54-.24,1.76-1.54,3.43-3.18,3.36l-2.16-5.5c-.17-.44.11-1.39.55-1.68,1.41-.93,1.53,1.7,3.43.44l2.18-1.45c.28-1.67,1.93-3.07,2.65-4.66,1.12-2.51-1.9-5.29-3.84-5.93-2.91-.95-5.22.31-7.06,2.47l-6.17,7.26c-1.99,2.34-2.63,5.53-2.99,8.46l1.27-.84c-.58,2.62-1.05,4.9-1.71,7.31-1.19,4.31-2.85,8.77.42,12.24-1.86,1.47-3.76,2.79-5.75,3.83-.36.19-.73,1.43-.35,1.57Z"/>
      <path d="M24.16,1.08c-.25-3.24-15.39,1.56-13.62,4.34,1.45,2.29,13.87-1.03,13.62-4.34ZM23.21,1.42c-2.05,2.66-9.05,4.44-11.35,3.58-1.73-.65,8.44-5.52,11.35-3.58Z"/>
    </g>
  </g>
</svg>