<?xml version="1.0" encoding="UTF-8"?>
<svg id="Warstwa_2" data-name="Warstwa 2" xmlns="http://www.w3.org/2000/svg" viewBox="0 0 51.22 47.47">
  <g id="game-icon-v5-divine-pixarts-store">
    <g id="game-icon-v5-divine-pixarts-store_116">
      <path d="M43.53,32.98c-.48-1.32-.52-3.35.19-4.4,1.77-2.6,1.93-5.41-.23-7.92-4.25-4.93-13.95-3.37-19.8-8.91.27,5.54,6.33,8.06,10.78,9.65.6.21,1.56-.16,2.17-.63l-3.7-2.05c3.06.21,5.94,1.96,7.26,4.79-1.46-.85-2.3-1.6-3.93-1.35.39,1.49,1.3,2.61,2.29,3.66l-3.01-.11c.52,1.64,1.61,2.4,2.88,3.12l-2.75,1.18c1.1,1.24,1.89,1.43,3.39,2.03l-2.13,1.33c.95.8,2.15,1.15,3.23,1.3l-.99,2.17,3.26.13c-.06.58.47,2.2.95,2.01l2.07-.84.68,2.36,2.37-.43,2.58,2.6c.27-1.48.22-3.21-.48-4.64-1.5-3.09-5.89-1.8-7.07-5.05Z"/>
      <path d="M22.77,19.2l.9-1.17,2.4.49c-2.58-2.29-9.52-3.52-12.78-6.35l10.71,4.04-1.5-3.3C14.12,10.18,6.96,5.62,0,0c.12,10.1,14.91,17.18,22.77,19.2Z"/>
      <path d="M23.11,20.08c-7.82-1.97-14.9-4.82-22.07-8.93,1.22,8.69,16.41,13.82,23.17,14.7l.13-1.49,2.59.33c-2.54-1.88-8.79-2.24-12.07-4.51l9.95,2.55c-.67-1.21-1.12-1.91-1.7-2.65Z"/>
      <path d="M25.9,31.59c.71-.67,1.51-1.15,2.68-1.68l-9.49-1.48c1.96-.76,4.55.56,7.14,0-1.11-1.5-2.34-1.93-4-2.15-5.75-.78-11.14-2.14-16.79-3.94,2.61,6.67,14.48,9.62,20.47,9.25Z"/>
      <path d="M30.94,34.9l-7.7.08c1.68-.65,3.17-.67,5.21-.95-.56-.79-1.7-1.59-2.76-1.51-4.64.35-8.78.15-13.5-.34,2.31,5.3,16.88,6.35,18.74,2.71Z"/>
      <path d="M33.92,21.95l-9.88-2.85c1.22,4.24,6.56,6.18,9.95,6.89l1.1-1.29-5.24-2.15,5.93,1.39c-.33-.97-.99-1.74-1.85-1.98Z"/>
      <path d="M29.66,37.18l-9.54,2.63c1.96,2.82,11.67,1.39,14.08-1.23-1.4-.23-2.48-.16-3.94-.09l.8-.87c.18-.19-1.07-.53-1.4-.44Z"/>
      <path d="M25.23,25.42c.61,2.98,8.94,6.24,9.92,3.5l-2.98-.91,3.27-.22c.21-1.41-9.64-2.56-10.21-2.37Z"/>
      <path d="M37.11,41.1l-2.75.33-.58-1.19-7.09,3.73c3.94,1.58,7.7-.12,10.43-2.86Z"/>
      <path d="M35.01,31.76c.17-.05.53-.35.38-.45-1.66-1.13-5.74-.35-7.98.17,2.57,2.72,6.65,3.22,9.34,1.15l-2.54-.61.8-.26Z"/>
      <path d="M40.31,42.94c-1.32.11-1.84.32-1.99.1l-.72-1.05-4.66,4.42c3.18.41,5.91-1.3,7.37-3.47Z"/>
      <path d="M30.92,36.33c2.39,1.65,5.68,1.42,7.51-.7l-2.19-.19.61-1.24c-2.3.24-4.04.83-5.93,2.13Z"/>
      <path d="M44.39,42.99l-2.27.84-.59-1.41-2.97,5.06c2.92-.08,4.71-1.91,5.83-4.48Z"/>
      <path d="M44.18,46.79c2.35-.96,3.73-3.26,4.06-5.51l-2.69.7c-.58,1.35-1.1,3.25-1.36,4.81Z"/>
      <path d="M38.16,37.29c-1.15.42-2.66,1.52-3.44,2.77,2.53.45,4.66-.7,6.09-2.01-1.53.14-2.04-.14-2.66-.75Z"/>
      <path d="M38.73,41.96c1.72-.08,3.11-.96,4.06-1.91l-1.48-1.46c-1.13.82-2.23,1.84-2.58,3.36Z"/>
      <path d="M42.42,42.28c1.89.33,2.91-1.23,2.52-2.74-1.16.52-2.18,1.43-2.52,2.74Z"/>
    </g>
  </g>
</svg>