<?xml version="1.0" encoding="UTF-8"?>
<svg id="Warstwa_2" data-name="Warstwa 2" xmlns="http://www.w3.org/2000/svg" viewBox="0 0 45.81 36.15">
  <g id="game-icon-v5-divine-pixarts-store">
    <g id="game-icon-v5-divine-pixarts-store_145">
      <path d="M45.74,18.6c.22-.42-.11-1.58-.54-1.67-.44-.08-1.68.26-1.71.7l-.21,2.51c-1.45,1.22-3.36,2.39-5.42,3.34-3.91-8.09-.61-6.65-.65-8.48,0-.49-.8-1.5-1.3-1.46-.52.04-1.5.66-1.43,1.07l.3,2-4.75,3.74c-.64.5-2.04-.01-2.44-.74l-3.53-6.43c.63-1.05,1.05-2.26.74-3.2-.21-.64-1.47-1.41-2.34-1.17-.73.2-1.62,1.26-1.56,1.87.06.66.51,1.72.97,2.6l-4.3,7.43c-2.56-.87-5.08-2.47-6.44-4.39.18-.86.24-2.32-.42-2.57-.89-.34-1.97.12-2.17.88-.55,2.08,3.57.68-.4,8.91C-.22,20.08,3.59,18.01,2.15,17.37c-.62-.27-1.8-.37-2.03.12-.3.62.03,1.61.48,2.16,1.2,1.46,1.79,3.45,2.81,5.02.69,1.06,1.94,1.43,1.49,3.09-.2.76.07,2.03.4,2.62,7.57-3.49,27.8-3.36,35.37,0,.57-1.23.61-2.32.48-3.44-.09-.76,1.26-1.82,1.59-2.47l3.01-5.86ZM13.26,25.64c-.56-.02-1.63-1.1-1.61-1.65.03-.64.46-1.88.77-2.37.87.79,1.42,1.31,1.7,1.74.32.5-.27,2.3-.86,2.28ZM23.05,25.67c-.81-1.03-1.59-2.19-2.09-3.54l2.02-3.06,2.08,3.21-2,3.39ZM32.57,25.81c-.38-.32-1.03-1.84-.77-2.44.27-.63,1.43-1.6,1.85-1.69,1.11,1.55.85,3.26-1.07,4.14Z"/>
      <path d="M38.39,30.73c-9.33-2.19-18.9-2.15-28.39-.61-1.56.25-3.52.91-4.34,2.13-.51.75,1.02,2.19,1.82,2.37,8.8,2,22.34,2.13,31.06-.11.89-.23,1.94-1.41,1.79-2.11-.13-.59-1.16-1.49-1.94-1.67ZM7.95,32.53c6.68-1.98,24.33-2.6,30.23.53-3.29,2.48-28.36,2.9-30.23-.53Z"/>
      <path d="M19.27,13.84l-3.73-11.78c.23,5.13,1.19,9.41,2.15,14.59l1.58-2.8Z"/>
      <path d="M28.24,15.98l2.34-14.3-3.6,10.39c-.48,1.4-.34,3.44,1.26,3.91Z"/>
      <path d="M16.11,18.04c-.15-.95-.35-1.91-.67-2.4l-6.78-10.44c.63,2.43,1.52,4.92,3.06,6.78,1.04,1.26,1.83,2.16,1.75,4.01l2.64,2.05Z"/>
      <path d="M29.28,17.92c2.29-.45,3.42-2.13,3.32-4.33,2.07-2.03,3.45-4.22,4-7.07-2.88,3.53-5.18,7.11-7.32,11.4Z"/>
      <path d="M39.36,14.4l-1.16,3.69c2.51-2.83,4.23-4.9,6.09-7.55l-4.94,3.85Z"/>
      <path d="M7.75,17.77c-1.63-4.2-3.51-5.02-6.66-7.66,1.95,2.77,4.59,6.08,6.66,7.66Z"/>
      <path d="M23.52,6.16l-.49-6.16c-2.19,7.59.64,8.06.49,6.16Z"/>
    </g>
  </g>
</svg>