<?xml version="1.0" encoding="UTF-8"?>
<svg id="Warstwa_2" data-name="Warstwa 2" xmlns="http://www.w3.org/2000/svg" viewBox="0 0 49.56 52.05">
  <g id="game-icon-v5-divine-pixarts-store">
    <g id="game-icon-v5-divine-pixarts-store_180">
      <path d="M39.13,36.78c-6.13-1.75-11.53-2.43-14.74,4.36-.87,1.84-2.01,3.37-1.93,5.75-2.54-3.74-2.76-8.44-1.24-12.61l-1.84-.78c-2.31,6.65-1,14.44,5.18,18.45.87.15,2.36.09,3.37,0-2.38-1.57-5.23-3.01-4.49-6.45.44-2.03,1.84-3.12,3.25-4.43,1.17-1.08,1.75-2.78,3.42-3.27l-1.71,2.5c6.32-.63,2.54-.68,7.16-2.23l-2.05,1.75c3.27.66,6.25.61,9.47-.36-2.54,1.93-5.53,1.68-8.87,1.75,1.22,1.28,2.73,1.99,4.34,2.42-5.24.21-4.05-3.89-10.23-1.84l4.38,2.97c-1.28.26-3.65-2.32-5.49-2.03-1,.16-1.82,1.51-2.06,2.25,1.48.13,2.74.35,4.02.96,3.83,1.8,8.12,1.71,11.65-.73,3.43-2.37,6.01-5.84,7.07-10.02-2.67,1.96-5.6,2.45-8.68,1.57Z"/>
      <path d="M10.61,30.94l-4.81-1.98c-2.46-1.01-3.94-2.97-4.92-5.55-1.44,4.49-1.11,9.38.96,13.43,1.87,3.65,5.25,5.73,9.32,5.79,1.74.03,3.37.28,4.99.89-.44-1.07-1.44-2.81-2.95-2.94l-4.35-.39c1.68-.27,3.14-.38,5-.45l-3.02-2.18c-2.31-.15-4.3-.15-6.25-1.08,1.72.17,3.2.36,4.97.17-2.78-1.75-5.47-3.4-6.58-6.55,1.84,2.32,3.91,4.12,6.68,5.21l-.4-2.39,1.65,2.97c.46.83,1.84,1.37,2.78,2.08l-.4-3.31c2.16,5.18.42,3.31,4.32,8.49-1.86-5.2-.37-9.16-6.99-12.2Z"/>
      <path d="M34.66,24.96l2.08-4.47c1.02-2.19,2.88-3.52,5.28-4.31-6.79-3.15-15.93,1.31-18.45,8.13-.45,1.22-.68,3.05.2,3.91,3.46.59,6.29-1.38,8.63-4.03-.99,2.88-3.77,4.63-7.09,5.19,3.79.89,7.6-.86,9.35-4.42Z"/>
      <path d="M19.39,26.69c-1.6-2.85-2.13-6.25-.64-9.01-.4,3.77-.18,7.47,2.96,9.7.34-3.47,1.56-6.28,4.08-8.64.29-5.22-2.22-10.63-7.25-13,1.87,4.01.47,6.52-1.38,10.18-1.9,3.75-1.05,8.22,2.24,10.77Z"/>
      <path d="M27.21,17.32c1.96-1.34,3.67-2.16,5.83-2.88-.08-2.71-.42-5.3-1.04-8-2.54,1.41-4.56,2.99-6.38,4.83.85,2.11,1.35,4.05,1.59,6.05Z"/>
      <path d="M42.09,35.39c3.55-.3,6.19-3.73,5.26-7.44-.89-3.54-5-5.27-8.18-3.58-2.63,1.4-3.45,4.81-1.47,7.02.75.83,2,1.31,3.02,1.21.91-.1,1.98-.68,2.5-1.58.39-.67.38-1.7,0-2.38-.27-.5-1.17-1.02-1.93-1-.66.02-1.3.88-1.08,1.22.49-.34,1-.7,1.34-.62.3.07.83.73.89,1.05.15.94-.46,1.75-1.28,2.06-.61.23-1.72.01-2.33-.63-.99-1.04-1-2.36-.46-3.59.35-.79,1.39-1.68,2.57-1.91,1.53-.29,3.01.36,3.9,1.23,1.17,1.14,1.47,2.67,1.22,4.25-.35,2.18-1.97,3.65-3.97,4.68Z"/>
      <path d="M20.94,33.01c1.53.54,3.09-.16,3.82-1.98,2.51,2.03,5.65,1.34,7.63-.75-2.82.52-7.07,1.29-9.38-.63-2.14-1.79-2.13.48-5.76-3.29l-2.68-2.79c.22,2.8,2.01,4.81,4.65,5.3-.76,1.9.13,3.59,1.73,4.16Z"/>
      <path d="M5.55,24.47c1.04.73,2.49.72,3.51-.28.72-.7,1.29-2.29.64-3.5l-2.62-4.84c-1.36,2.79-4.49,6.54-1.53,8.63Z"/>
      <path d="M14.84,9.86c-1.18-.14-2.92-.28-3.59-1.62-.49-.97-.71-2.22-1.06-3.4-.29,1.27-.3,2.76-1.19,3.83-.65.78-2.01.98-2.97,1.31.87.32,2.19.52,2.81,1.16,1.03,1.08,1.05,2.66,1.34,3.87,1.22-4.25.74-3.8,4.67-5.16Z"/>
      <path d="M23.33,7.61l1.68,2.34,1.88-1.8c-.47-1.21-1.01-2.15-1.93-3.25-.72.86-1.28,1.78-1.63,2.7Z"/>
      <path d="M34.34,14.05l3.3-.42.3-3.04c-1.38.22-2.46.56-3.69,1.06l.08,2.39Z"/>
      <path d="M47.3,18.54c-.41-.36-.59-1.35-.79-2.07.02-.67-.01-.62-.1,0-.73,2.33-.59,2.17-2.59,2.71.63.28,1.55.67,1.93.96l.71,2.35c.19-.82.32-1.91.74-2.41.37-.44,1.53-.63,2.26-.87-.66-.15-1.72-.27-2.17-.66Z"/>
      <path d="M32.29,2.2c-.43.81.22,1.76.99,1.98.52.15,1.54-.41,1.56-1.25.02-1.1-.14-1.9-.42-2.93-.93.67-1.65,1.29-2.14,2.2Z"/>
      <path d="M41.39,3.99c-.3,1.48-.52,2.7-2.06,2.83,1.44.39,1.79,1.33,2.02,2.57.27-1.51.69-2.2,1.84-2.5-1.47-.44-1.62-1.59-1.79-2.9Z"/>
      <path d="M48.64,23.82c-.9,1.02-1.04,3.06-.15,4,1.24-1.2,1.56-3.24.15-4Z"/>
      <path d="M36.39,8.43c.22-.03.32-.83.27-1.07l-.27-1.22c-.57.4-1.07.82-1.31,1.3-.13.25.13,1.15.41,1.11l.91-.12Z"/>
      <path d="M29.5,4.64l-.27-1.46c-.28,0-.95.45-1.24.78-.35.4-.39,1.33.39,1.52.4.1,1.18-.52,1.13-.84Z"/>
      <path d="M15.32,3.97l-.32-1.38-.43,1.32c-.1.29-.9.41-1.09.47.74.44,1.24.95,1.56,1.56.07-.29.18-1.01.44-1.11l1.07-.42c-.39-.14-1.16-.12-1.24-.45Z"/>
    </g>
  </g>
</svg>