<?xml version="1.0" encoding="UTF-8"?>
<svg id="Warstwa_2" data-name="Warstwa 2" xmlns="http://www.w3.org/2000/svg" viewBox="0 0 51.01 39.16">
  <g id="game-icon-v5-divine-pixarts-store">
    <g id="game-icon-v5-divine-pixarts-store_36">
      <path d="M31.27,26.06c1.19-1.11,2.02-2.25,4.02-2.48.4-.7.56-2.23.32-3.22-1.34-5.68-6.78-8.99-12.29-7.9-5.27,1.04-9.32,6.29-8.24,11.67,1.1.51,2.3,1.16,3.03,1.91l1.85,1.91c-1.64.02-2.81-.67-3.79-2.02l-2.47-.39c-.93-1.6-2.2-2.24-4.06-2.16-1.17.05-2.19,1.99-3.18,2.42-1.52.67-2.74,1.15-3.91,2.75-.62.84-3.08.09-2.42,2.05l29.06.04c-1.05-2.46.71-3.3,2.1-4.59Z"/>
      <path d="M48.06,28.34c-.37-.6-.78-2.38-1.43-2.7-.56-.28-1.59-.32-2.47-.34-.57-2.17-2.16-3.23-4.29-3.37-1.83-.11-2.86,2.02-4.23,2.69-1.61.78-2.37,1.21-3.45,2.61-.7.9-2.89.96-2.3,3.4l21.11-.05c-.22-2.45-2.35-1.28-2.94-2.23Z"/>
      <path d="M28.73,32.16c-7.69-.01-15.06-.3-22.8.74l16.32,1.35c-3.75,1.34-7.17.62-10.82,1.7,10.19.99,17.21,1.02,27.44.02-3.99-1.37-7.71-.25-11.84-1.71l17.57-1.28c-5.13-.84-10.36-.81-15.88-.82Z"/>
      <path d="M26.7,10.4l-1.5-10.4-1.21,10.48c.94.06,1.92.04,2.71-.08Z"/>
      <polygon points="38.36 4.62 31.45 12.1 33.62 13.51 38.36 4.62"/>
      <path d="M18.09,38.52c4.95.86,9.58.86,14.53-.02-4.85-1.1-9.68-1.22-14.53.02Z"/>
      <polygon points="19.18 12.09 11.86 4.06 17.11 13.55 19.18 12.09"/>
      <path d="M15.65,14.4l-8.71-4.78,7.46,6.88c.54-.08,1.4-1.39,1.25-2.09Z"/>
      <path d="M43.13,9.96l-8.46,4.58c.49.77.95,1.36,1.6,2.03l6.86-6.61Z"/>
      <polygon points="45.64 16.38 36.62 17.81 37.43 20.24 45.64 16.38"/>
      <polygon points="22.74 10.65 18.75 2.83 20.33 11.55 22.74 10.65"/>
      <path d="M30.42,10.97c.59-3.22.94-5.48,1.18-8.07l-3.51,7.58c.18.68,2.2,1.24,2.33.49Z"/>
      <polygon points="13.33 20.42 13.86 17.91 5.08 16.4 13.33 20.42"/>
    </g>
  </g>
</svg>