<?xml version="1.0" encoding="UTF-8"?>
<svg id="Warstwa_2" data-name="Warstwa 2" xmlns="http://www.w3.org/2000/svg" viewBox="0 0 49.39 44.06">
  <g id="game-icon-v5-divine-pixarts-store">
    <g id="game-icon-v5-divine-pixarts-store_186">
      <path d="M41.93,37.51c1.56-6.18,4.49-11.59,7.46-17.12-2.34,1.5-4.41,3.16-6.08,4.9-.03,1.3.26,3.45-.8,4.36-.99.86-2.6,1.51-4.1.85-1.25-.55-1.87-2.25-1.86-3.63,0-1.04,1.01-2.08,2.06-3.12l-1.33-4.59-3.5,3.83c1.28,2.01.83,3.78-.99,4.98-1.41.93-3.11,1.13-4.44.18-1.18-.84-2.15-2.8-.95-4.09.49-.53,1.16-1.24,1.42-1.68s-1.1-1.31-1.32-1.82c-.74-1.7-1.69-3.86-2.83-5.99-1.26,2.12-2.15,4.27-2.88,6.04-.21.5-1.49,1.32-1.25,1.75.2.35.79.91,1.23,1.31,1.36,1.23.79,3.29-.51,4.38-1.12.94-3.1,1-4.49.16-1.92-1.17-2.54-2.93-1.11-5.03-1-1.36-2.19-2.67-3.69-4.04l-1.01,4.97c1.08,1.18,1.84,2.07,1.82,3.2-.02.96-.69,2.55-1.6,3.09-1.41.84-3.27.07-4.25-.86-.92-.88-.79-2.95-.84-4.24-1.84-1.75-3.84-3.48-6.11-5,2.9,5.96,6.07,11.16,7.5,17.18,8.12-3.72,26.58-3.81,34.43.02ZM33.09,31.61l1.42-1.61c.2.24.87,1.18,1.2,1.65.33.48-.98,1.96-1.52,1.73-.61-.26-1.39-1.45-1.1-1.78ZM24.58,27.66l2.33,3.03-2.31,2.98-2.12-3.03,2.1-2.98ZM13.8,32.16c.18-.51.49-1.21.94-2.23.43.35,1.25,1.17,1.59,1.64.34.47-.64,2.14-1.18,1.93-.41-.16-1.49-.95-1.35-1.34Z"/>
      <path d="M41.88,40.06c-.27-1.82-4.03-2.79-5.77-3.09-8.04-1.4-16.02-1.37-24,.27-1.57.32-3.63,1.03-4.46,2.28-.59.88,1.08,2.34,1.95,2.6,5.06,1.54,10.16,1.97,15.51,1.94,2.69-.02,17.29-.63,16.78-4ZM38.38,41.21c-8.45,2.12-16.87,2.06-25.28.57-1.25-.22-2.24-.76-3.61-1.6,1.2-.68,2.06-1.14,3.31-1.38,8.34-1.58,17.28-1.58,25.51.44.32.08,1.09.66,1.33.84.25.18-.89,1.04-1.26,1.13Z"/>
      <path d="M11.46,16.87l1.91,1.26,4.88,5,2.28-3.83c-.73-2.59-1.9-5.16-3.07-7.62-1.42-3-2.58-5.87-4.12-8.56l5.16,17.29-4.99-7.25,2.54,6.59L4.8,8.22c1.9,3.25,3.73,6.72,6.65,8.65Z"/>
      <path d="M29.09,19.66c.49,1.01,1.12,2.55,1.46,3.58,1.3-.79,2.75-1.97,3.85-3.23,2.76-3.18,6.96-5.8,9.74-11.58l-10.72,11.23,2.51-6.53-4.76,6.81,4.26-15.69-6.08,13.04c-.23.49-.4,1.85-.27,2.37Z"/>
      <polygon points="26.18 13.51 24.73 0 23.26 13.54 24.67 11.83 26.18 13.51"/>
      <path d="M21.77,14.72l-1.52-5.88c-.26,3.21.21,5.94.95,8.81.55-1.01.76-2.18.57-2.93Z"/>
      <path d="M40.22,21.7c2.37-1.67,4.56-3.5,6.6-5.32-2.77,1.19-5.51,2.27-6.6,5.32Z"/>
      <path d="M8.63,19.84l-6.36-3.68,6.55,5.33c.18-.5.05-1.15-.19-1.65Z"/>
      <path d="M29.1,9.28l-1.61,5.76c.07.94.25,1.84.65,2.53.63-3.34.93-5.43.96-8.29Z"/>
    </g>
  </g>
</svg>