<?xml version="1.0" encoding="UTF-8"?>
<svg id="Warstwa_2" data-name="Warstwa 2" xmlns="http://www.w3.org/2000/svg" viewBox="0 0 41.97 41.85">
  <g id="game-icon-v5-divine-pixarts-store">
    <g id="game-icon-v5-divine-pixarts-store_05">
      <path d="M4.62,7.58c1.8.55,2.37,1.77,2.82,3.41.3-1.97,1.2-2.92,3.11-3.5-1.95-.32-2.77-1.54-3.12-3.36-.41,1.84-1.29,2.82-2.81,3.46Z"/>
      <path d="M34.48,10.54c.51-1.57,1.35-2.34,2.76-3.01-1.61-.61-2.36-1.63-2.97-3.35.02,1.67-1.03,2.82-2.85,3.37,1.69.61,2.55,1.57,3.06,2.98Z"/>
      <path d="M34.48,37.23c.35-1.52,1.43-2.56,3-2.97-1.65-.59-2.6-1.54-3-2.97-.4,1.36-1.57,2.41-2.88,2.94,1.44.61,2.36,1.62,2.88,3.01Z"/>
      <path d="M7.41,31c-.33,1.86-1.41,2.77-3.23,3.24,2.06.46,2.88,1.51,3.18,3.08.7-2.2,1.64-2.61,3.25-3.1-1.97-.43-2.72-1.3-3.21-3.22Z"/>
      <path d="M41.94,26.47l.03-10.99c0-.63-.86-1.7-1.48-1.71l-12.13-.1V2.03C28.38,1.04,27.59,0,26.58,0h-11.02c-1.1.01-1.99.94-2,2.05l-.03,11.68H2.06c-.91,0-2.04.84-2.04,1.72L0,26.44c0,.67,1.1,1.68,1.65,1.68h11.9s.01,11.87.01,11.87c0,.95,1.08,1.87,2.05,1.86l11.02-.03c.81,0,1.75-1.06,1.75-1.81l.05-11.9h11.89c.65,0,1.62-1.08,1.62-1.63ZM21.09,31.94l-6.65-6.07-.08-9.82c1.98-2.23,4.24-4.16,6.64-6.13l6.55,6.05.08,9.72-6.54,6.25Z"/>
      <path d="M23.47,18.15l-2.31-2.44c-2.41.9-2.9,2.91-2.9,5.29,0,2.26.51,3.98,2.9,5.05l2.27-2.33.02-5.57Z"/>
      <path d="M17.26,22.84l.04-3.66c0-.81-.67-1.59-1.57-1.71v6.89c.8-.18,1.53-.9,1.54-1.53Z"/>
      <path d="M24.4,17.01c.35.13,1.2-.97.92-1.23l-3.59-3.33c-1.38,1.91,1.79,4.24,2.67,4.56Z"/>
      <path d="M17.56,24.96c-.34,0-.92.51-1.24.85l3.82,3.5c1.2-2.24-1.85-4.37-2.58-4.35Z"/>
      <path d="M24.68,18.84l-.06,3.96c0,.7,1.09,1.73,1.57,1.22l-.08-6.58c-.51.05-1.43.86-1.44,1.4Z"/>
      <path d="M17.54,16.99c1.19-.64,3.68-2.54,2.65-4.63l-3.76,3.55c.05.29.82,1.24,1.12,1.08Z"/>
      <path d="M24.01,25.01l-1.06.84c-1.03.82-1.58,1.97-1.12,3.22l3.69-3.35c-.49-.43-1.23-.93-1.5-.71Z"/>
    </g>
  </g>
</svg>