<?xml version="1.0" encoding="UTF-8"?>
<svg id="Warstwa_2" data-name="Warstwa 2" xmlns="http://www.w3.org/2000/svg" viewBox="0 0 51.66 48.52">
  <g id="game-icon-v5-divine-pixarts-store">
    <g id="game-icon-v5-divine-pixarts-store_52">
      <polygon points="31.27 10.59 20.81 10.57 20.75 21.94 9.38 22.06 9.4 32.48 20.75 32.53 20.78 43.95 31.27 43.94 31.3 32.51 42.53 32.52 42.55 22.02 31.28 21.98 31.27 10.59"/>
      <path d="M35.39,1.36c-5.95-1.79-12.25-1.77-18.29-.19-1.13.3-2.94,1.23-3.06,2.34-.12,1.14,1.56,2.16,2.6,2.45,5.83,1.65,11.91,1.66,18.03.24,1.31-.31,3-1.25,3.17-2.31.2-1.25-1.36-2.2-2.45-2.53ZM18.03,4.54c-.3-.09-.89-.66-.99-.91-.81-1.87,14.52-3.34,17.93-.22,1.15,1.05-8.1,3.78-16.94,1.13Z"/>
      <path d="M12.04,19.97l6.66.07-.05-6.75c-3.17,1.4-5.22,3.74-6.61,6.67Z"/>
      <path d="M33.31,13.25l-.08,6.73,6.56.09c-1.13-3.03-3.39-5.21-6.48-6.82Z"/>
      <path d="M39.48,34.52h-6.3s.11,6.11.11,6.11c2.91-1.08,4.79-3.26,6.19-6.11Z"/>
      <path d="M18.7,34.43l-6.2.12c1.55,2.76,3.27,4.66,6.11,6.12l.09-6.24Z"/>
      <path d="M39.05,14.97l5.91-6.92c-2.49,1.83-4.56,3.6-6.99,5.65-.34.29.77,1.63,1.08,1.27Z"/>
      <path d="M14.19,13.76c-2.46-1.99-4.4-3.67-6.83-5.25l5.77,6.64c.54-.47,1.04-1.05,1.06-1.39Z"/>
      <path d="M41.5,18.91c-1,3.51,8.87-2.79,8.41-2.59l-8.41,2.59Z"/>
      <path d="M10.34,18.95c-2.61-.87-4.67-1.58-7.18-2.24.08.58,8.25,5.15,7.18,2.24Z"/>
      <path d="M45.69,25.01l-1.24.71c-.23.13.47,1.12.74,1.09l6.48-.82-5.97-.97Z"/>
      <path d="M7.13,25.14l-.91.03-6.22.62c9.21,2.28,7.58-.66,7.13-.65Z"/>
      <path d="M39.66,37.72l-.91,1.27,5.41,4.01c-1.39-2.37-2.77-3.55-4.5-5.28Z"/>
      <path d="M12.29,37.75c-.66.58-3.92,3.84-4.47,5.09,1.77-.94,3.86-2.67,5.32-4.08-.08-.38-.67-1.17-.85-1.01Z"/>
      <path d="M17.48,42.21c-.8,2.3-1.44,4.05-1.98,6.32l2.88-4.93c.17-.28-.02-1.37-.24-1.38h-.66Z"/>
      <path d="M36.42,47.92l-1.58-5.12c-.38-1.22-3.48-1.45,1.58,5.12Z"/>
      <path d="M2.63,35.29c1.88-.32,3.71-.9,5.18-1.43.06-.23.01-.96-.21-.97h-1s-3.96,2.4-3.96,2.4Z"/>
      <path d="M49.13,35.2c.12-.56-6.31-3.69-4.99-1.91.79,1.07,3.73,1.99,4.99,1.91Z"/>
      <path d="M13.68,8.98c.3,1.3,1.38,3.41,2.4,3.81,1.72.67-1.38-3.64-2.4-3.81Z"/>
      <path d="M35.37,12.21c1.11,2.06,2.79-2.42,2.97-3.27-1.21,1.04-2.08,2.07-2.97,3.27Z"/>
      <path d="M11.99,16.85c-.09-.15-.46-.67-.64-.75l-3.52-1.66,3.3,2.89c.13.12.95-.33.86-.48Z"/>
      <path d="M41.25,17.06l2.89-2.64c-1.57.63-2.84,1.3-4.24,2.07l.58.83c.06.09.67-.16.78-.26Z"/>
    </g>
  </g>
</svg>