<?xml version="1.0" encoding="UTF-8"?>
<svg id="Warstwa_2" data-name="Warstwa 2" xmlns="http://www.w3.org/2000/svg" viewBox="0 0 50.52 46.42">
  <g id="game-icon-v5-divine-pixarts-store">
    <g id="game-icon-v5-divine-pixarts-store_160">
      <path d="M25.76,7.2c-2,1.65-4.18,3-6.49,3.98-.53-.06-1.19-.26-1.16.02l.13,1.25.83,8.34c1.6,1.49,3.77,2.81,5.96,3.87l.12-8.71-4.79-1.71c-.24-.08-.64-.87-.57-1.07.07-.2.54-.45.74-.4,8.28,1.86,2.37,1.73,10.47-.02.24-.05.72.61.61.83-.08.15-.5.74-.65.79l-4.61,1.53.13,8.8c2.29-1.2,3.99-2.37,5.88-3.85.08-1.58.11-2.88.29-4.28l.68-5.27c-3.05-.69-5.36-2.16-7.56-4.1Z"/>
      <path d="M13.21,39.52c-.54,1.1.35,3.58,1.11,4.57,4.66-.97,7.69-2.84,10.82-5.77.08-1.9.07-4.06-.04-5.73-2.99-1.21-4.82-2.32-7.53-4.03,1.03,2.44-1.04,3.63-1.77,5.33-.85,1.97-1.6,3.64-2.58,5.62Z"/>
      <path d="M26.38,32.71c-.08,1.72-.1,3.99,0,5.67,3.15,3.14,6.7,4.9,10.99,5.81,1.86-5,1.25-3.54-1.55-10.2-.71-1.7-2.94-2.93-1.96-5.4-2.53,1.79-4.53,2.96-7.49,4.13Z"/>
      <path d="M39.48,23.25c-.91,2.12-2.32,4.18-1.99,6.5.21,1.42,2.84,3.47,4.25,3.78,2.28.51,4.43-.51,6.48-1.39-1.64-5.63-3.07-8.46-8.74-8.89Z"/>
      <path d="M14.08,30.11c-.13-2.66-.87-4.78-2.3-6.95-5.68,1.09-7.25,3.43-8.6,9.14,2.25.76,4.01,1.18,6.5,1.62l4.4-3.8Z"/>
      <path d="M1.97,33.39c-2.41,1.24,6.14,3.5,8.44,2.71,2.07-.72,4.84-3.3,5.66-5.36.8-2.03-.35-9.55-2.45-10.71-2.66,2.91,1.77,6.05,1.3,10.01-6.47,8.78-10.03,1.85-12.95,3.35Z"/>
      <path d="M49.02,33.15c-1.72-.05-5.4,2.16-7.87,1.15-1.97-.8-3.33-2.59-4.88-4.19.33-4.31,3.87-7.43,1.49-10.24-2.16,2.52-2.26,5.47-2.73,8.5-.27,1.75.23,3.03,1.55,4.23,1.41,1.29,2.61,3.26,4.74,3.63,2.37.41,6.13-.69,7.92-1.57.34-.17.11-1.49-.21-1.5Z"/>
      <path d="M4.75,36.96l-1.06,4.26,6.48,3.63c1.52-1.91,2.19-4.64,1.49-7.08-2.47.18-4.3-.18-6.91-.8Z"/>
      <path d="M41.43,44.73l6.48-3.65-1.3-4.13c-2.38.54-4.42.91-6.7.89-.93,2.27,0,5.02,1.52,6.88Z"/>
      <path d="M32.47,10.15c0-4.2-5.24-7.41-9.02-5.69-2.43,1.11-4.67,2.56-4.4,5.74,2.55-.97,4.81-2.44,6.68-4.39,1.97,2.12,4.2,3.56,6.74,4.33Z"/>
      <path d="M25.24,31.3c3.14.45,10.88-4.29,8.83-7.63-2.01,2.76-4.61,5.31-8.06,5.45-3.75.15-6.53-2.49-8.82-5.43-1.57,3.62,5.77,7.28,8.06,7.61Z"/>
      <path d="M15.01,45c-.22.05-.84.63-.69.81.15.17.76.61,1.05.61l9.89-.05-.13-6.53c-3.08,2.39-6.32,4.29-10.12,5.16Z"/>
      <path d="M36.32,46.4c.33,0,.99-.82.79-.98-.15-.12-.55-.37-.78-.43-3.66-.93-6.89-2.66-9.98-5.07l-.06,6.48h10.02Z"/>
      <path d="M41.25,46.2l9.26.07-1.32-4.68c-3.08,1.68-5.19,2.75-7.94,4.61Z"/>
      <path d="M10.26,46.18c-2.99-1.87-5.13-3.01-7.96-4.43l-1.31,4.58,9.27-.15Z"/>
      <path d="M18.27,22.81c.89,3.13,4.46,5.37,7.77,5.28,3.09-.08,6.29-2.4,6.82-5.37-2.41,1.7-4.33,4.12-7.23,4.1-2.97-.02-4.61-2.71-7.37-4.02Z"/>
      <path d="M35.68,14.29L48.38,0l-11.61,10.71c-.99.9-1.74,2.33-1.1,3.58Z"/>
      <path d="M15.84,14.37c.77-1.71-.25-2.78-1.4-3.83-3.01-2.75-5.46-5.47-8.89-7.99,3.14,4.06,6.67,7.8,10.29,11.82Z"/>
      <path d="M36,16.14c-.79.59-1.21,1.05-1.16,2.43l3.35-1.78,9.7-6.8c-4.22,1.98-7.89,3.98-11.89,6.15Z"/>
      <path d="M16.52,18.88c.04-.74.03-1.47-.03-2.11-4.02-2.18-7.26-4.23-11.54-5.95,3.86,3.03,7.32,5.3,11.57,8.07Z"/>
      <path d="M41.07,19.82l8.74-2.97c-3.53.21-6.67.99-9.64,1.81-.14.35.51,1.29.9,1.15Z"/>
      <path d="M10.46,19.91c.46.16,1.15-1.24.76-1.33-3.52-.78-6.31-1.42-9.5-1.79l8.74,3.12Z"/>
      <polygon points="34.61 8.44 38.24 .68 34.15 6.61 34.61 8.44"/>
      <path d="M14.32,2.34c.73,2.25,1.4,3.66,2.44,5.74.33-.44.61-1.47.4-1.75l-2.84-3.99Z"/>
      <path d="M4.27,23.35c.7.1,1.83-.41,2.1-1l-6.37.41,4.27.6Z"/>
    </g>
  </g>
</svg>