<?xml version="1.0" encoding="UTF-8"?>
<svg id="Warstwa_2" data-name="Warstwa 2" xmlns="http://www.w3.org/2000/svg" viewBox="0 0 53.24 54.03">
  <g id="game-icon-v5-divine-pixarts-store">
    <g id="game-icon-v5-divine-pixarts-store_50">
      <path d="M10.5,21.44c-1.04,10.11,10.8,15.49,16.21,22.02,4.58-5.16,10.72-8.51,14.12-13.9,1.84-2.9,2.73-6.33,1.9-9.55-.98-3.8-3.92-6.13-7.71-6.27-3.7-.14-6.51,1.66-8.16,5.42-2.11-3.94-5.38-5.98-9.37-5.38-3.68.55-6.58,3.56-7,7.66ZM20.27,25.07l3.39.47-2.89-3.51,4.19,2.97-1.1-3.58,1.94,2.82.9-5.33.93,5.39,1.52-2.15-.53,2.72,4.09-2.93-3.04,3.66,2.66-.23-1.97,1.26,7.06.79-7.52.73,2.48,1.37-2.78-.29,3.44,3.94-4.47-3.38.61,3.28-1.52-2.51-.97,7.98-.96-7.84-1.56,2.36.63-3.09-4.07,2.72,3.07-3.46-2.77.26,2.39-1.28-7.11-.78,6.85-.88-2.88-1.48Z"/>
      <path d="M26.64,15.44c.68-.07,1.61-1.23,1.83-1.82l-1.79-13.62-1.75,13.55c.18.58,1.14,1.94,1.71,1.89Z"/>
      <path d="M35.61,37.66l9.72,7.55c-2.43-3.78-4.85-6.35-7.5-9.53l-2.22,1.98Z"/>
      <path d="M15.45,35.79l-7.63,9.61,9.92-7.77c-.86-.98-1.53-1.55-2.28-1.84Z"/>
      <path d="M8.72,25.55l-8.72,1.12c3.34.78,6.18,1.04,9.88,1.43-.24-1.06-.61-1.97-1.17-2.55Z"/>
      <path d="M43.71,28.04l9.53-1.33-8.67-1.21c-.38.91-.61,1.57-.86,2.55Z"/>
      <polygon points="25.53 45.2 26.69 54.03 27.82 45.3 25.53 45.2"/>
      <path d="M18.66,38.64c-1.26,2.65-2.43,5.14-3.36,7.88l4.73-6.42c.38-.52-1.01-1.7-1.37-1.46Z"/>
      <path d="M22.34,12.71c.24.17,1-.07,1.22-.42l-3.2-8.62,1.07,7.63c.06.44.61,1.19.9,1.4Z"/>
      <path d="M31.7,12.13l1.35-8.2c-1.37,2.95-2.36,5.7-3.28,9.02.53.12,1.84-.28,1.93-.81Z"/>
      <path d="M38.9,34.82l8.21,3.24-6.74-4.72c-.46.29-.99.85-1.47,1.48Z"/>
      <polygon points="33.07 39.85 38.18 46.73 34.67 38.58 33.07 39.85"/>
      <path d="M6.98,37.72c2.95-.85,4.93-1.8,7.6-2.96l-1.49-1.58-6.11,4.54Z"/>
      <path d="M13.89,12.93l-6.24-4.8,4.58,6.01c.56-.29,1.25-.79,1.66-1.21Z"/>
      <polygon points="45.95 7.85 39.45 12.92 41.17 14.12 45.95 7.85"/>
      <path d="M9.98,30.45l-6.32,2.51,8.4-1.2c-.52-1.24-1.25-1.64-2.08-1.31Z"/>
      <path d="M31.55,41.22c-1.02.35-1.36,1.23-1.12,2.14l2.57,6.34-1.45-8.48Z"/>
      <polygon points="42.7 30.15 41.57 31.72 49.17 32.61 42.7 30.15"/>
      <path d="M21.82,41.13l-1.52,8.67,2.56-6.46c.28-.84-.12-1.78-1.05-2.21Z"/>
      <path d="M38.08,7.01l-3.72,4.86,1.46.21c.22.03,2.35-4.28,2.27-5.07Z"/>
      <path d="M18.89,11.9c-1.32-1.93-2.08-3.16-3.61-4.83.63,1.85,1.36,3.33,2.2,5.11l1.41-.28Z"/>
      <path d="M8.73,22.04c.05-.23-.63-.75-.94-.81l-5.04-.9,5.24,2.14c.36-.12.69-.2.73-.42Z"/>
      <path d="M26.61,29.82c1.29-.45,2.32-1.61,2.69-2.95l-2.57-1.86c-.92.33-2.3,1.47-2.27,2.48.02.81,1.39,2.23,2.14,2.32Z"/>
    </g>
  </g>
</svg>