<?xml version="1.0" encoding="UTF-8"?>
<svg id="Warstwa_2" data-name="Warstwa 2" xmlns="http://www.w3.org/2000/svg" viewBox="0 0 41.76 42.07">
  <g id="game-icon-v5-divine-pixarts-store">
    <g id="game-icon-v5-divine-pixarts-store_20">
      <path d="M4.39,14.95c.76.3,1.71,1.49,1.93,2.24.73-1.12,1.32-1.85,1.83-2.35-.7-.4-1.51-1.56-1.7-2.39-.47,1.04-1.29,2.04-2.06,2.5Z"/>
      <path d="M14.6,33.02c4.28,2.96,10.01,2.54,13.92-1.04,3.8-3.47,4.98-9.12,2.05-14.03l-5.85-9.79c-1.53-2.56-2.64-5.28-3.78-8.15-2.3,6.86-7.9,13.82-10.17,19.02-2.23,5.09-.56,10.96,3.84,14ZM25.04,22.99c.47-.55.74-2.01,1.09-3.08,1.27,3.36-.14,2.68,3.76,4.28-2.38.37-3.28,1.32-3.67,4.13l-1.01-2.89c-.24-.68-1.86-.95-2.62-1.31.75-.33,2.03-.64,2.45-1.13ZM14.98,16.99c-.37,1.81-.88,3.47-.98,5.08-.27,4.45,2.55,8.01,6.86,9.36-3.22,1.11-6.3-.87-7.73-3.85-1.73-3.6-.56-7.57,1.85-10.59Z"/>
      <path d="M32.65,30.93l6.34,2.71c.5.21,1.08,1.52.96,2.01-.47,2-5.02,3.33-7.07,3.73-7.7,1.5-15.41,1.61-23.11.15-2.02-.38-8.07-1.96-7.87-4.26.04-.49.66-1.53,1.13-1.72l6.59-2.66c-2.61,0-9.4,1.97-9.6,4.79-.18,2.42,4.5,4.21,6.72,4.73,9.26,2.19,18.76,2.21,28.04.1,2.29-.52,7.22-2.25,6.98-4.82-.28-3.06-6.93-4.68-9.1-4.76Z"/>
      <path d="M7.77,35.77c.42.87,2.32,1.63,3.41,1.88,6.59,1.53,13.23,1.54,19.77-.13,1.16-.3,3.01-1.32,3.08-2.37.12-1.69-2.15-2.27-2.94-2.11l2.14,1.65c-2.73,3.82-22.64,3.58-24.74-.02l2.11-1.56c-1.77.15-3.58,1.14-2.84,2.67Z"/>
      <path d="M32.56,6.02c-.71,1.12-2.93,1.17-4.07,1.52,1.29.5,3.27.64,4,1.54.76.93,1.08,2.46,1.51,3.59,1.6-4.9.91-3.55,5.4-5.15-1.14-.33-3.27-.5-3.85-1.32-.82-1.17-1.12-2.65-1.56-3.9-.45,1.23-.75,2.64-1.44,3.73Z"/>
    </g>
  </g>
</svg>