<?xml version="1.0" encoding="UTF-8"?>
<svg id="Warstwa_2" data-name="Warstwa 2" xmlns="http://www.w3.org/2000/svg" viewBox="0 0 47.09 51.39">
  <g id="game-icon-v5-divine-pixarts-store">
    <g id="game-icon-v5-divine-pixarts-store_61">
      <path d="M24.05,44.73c4.55-.22,7.88-3.04,8.72-7.61,1.52.01,2.35-.55,2.49-1.31.11-.58-.62-1.59-.73-2.17-.18-.96-.33-2.09-.65-3l-1.4-3.96-1.1-3.91-1.09-4.18-1.05-4.01-1.13-4.14c-.32-1.19-.75-2.95-.97-4.21-.27-1.53-.23-2.45-1.23-3.78-.52-.68,0-2.52-1.41-2.42l.35,1.68c.08.38-.81,1.02-1.22.98-1.16-.1-1.6-1.42-1.75-2.68-.95.22-.59,1.73-.95,2.47-.59,1.23-.6,2.74-.95,3.91-.42,1.41-.91,2.66-1.09,4.14-.15,1.21-1.79,2.36-.79,3.92l-1.54,2.57c.5,1.38.25,2.23-.59,3.28l-.28,2.75c-.89,1.09-.9,2.28-1.23,3.39l-1.2,4.08-.99,3.28c-.24.81-.97,1.8-.41,2.57.34.48,1.51.81,2.39.96.91,4.7,4.94,7.64,9.78,7.4ZM27.87,42.38c.17-1.29,1.58-2.38-.06-3.32-2.06,1.78-.76,1.71-2.6,3.64-.86.9-.04-3.7-1.79-3.23-1.3.35-1.25,1.87-1.24,3.18-1.67-.13-1.59-3.62-3.39-3.44-1.21.68.07,2.08.42,3.13-1.85-.64-3.02-2.23-3.35-4.48l1.42,1.08c.27-.22,1.6-.71,2.14-.47.53.23,1.29,1.09,1.71,1.58.56-.54,1.42-1.43,2.06-1.53.78-.12,1.96.7,2.54,1.35l1.48-1.35c.39-.36,1.82.07,2.19.48.27-.37.86-.81,1.6-1.05-.32,2.05-1.31,3.72-3.13,4.43ZM12.29,35.16c.03-.37.7-.45,1.44-.51.49-.76.42-2.75.76-3.67.48-1.3.95-2.66,1.35-4.04l1.13-3.91,1.04-4.05,1.09-3.99,1.15-4.23,1.16-4.24.97-3.46c.13.69.18,1.47.18,2.45l.61,1.97c-1.3,1.07-.17,2.72-.29,3.82-.16,1.48-.26,2.56-.01,4.02.21,1.25-1.28,2.99.54,4.1-.78.53-1.55.97-1.7,1.5-.15.52.21,1.87.27,2.34-.67.75-1.3,1.44-2.13,2.59,2.83.29,4.48.29,7.35-.02l-2.25-2.57c.12-.53.38-1.5.41-1.98.04-.55-.97-1.33-1.75-1.79,1.47-1.17.37-2.88.49-4.19.13-1.34.21-2.68.2-4.01l-.03-4.33v-3.14s.52-.48.52-.48c.08-.08.28,0,.25.11l-.2.81c-.16.67.9,1.89,1,2.58.19,1.24.51,2.72.86,3.92l1.14,3.92,1.08,4.27,1.09,4.19,1.06,3.78c.41,1.46.87,2.7,1.42,4.09.38.95.15,2.92,1.44,3.7.31.19.78.89.6,1.12-.18.24-.83.53-1.21.59-5.3.78-10.34,1.24-15.63.51-4.48-.63-5.53-.07-5.41-1.75ZM23.47,20.54c.63,0,1.14.51,1.14,1.14s-.51,1.14-1.14,1.14-1.14-.51-1.14-1.14.51-1.14,1.14-1.14Z"/>
      <path d="M47.09,14.74c-.08-2.56-2.17-4.68-4.8-4.98.95.71,2.35,1.78,2.74,2.75,1.04,2.6-.67,3.97-2.54,4.87l-3.63,1.74c-1.68.8-2.61,2.07-3.06,3.8-.41-1.79.64-3.12,2.06-3.99l2.47-1.51c1.05-.64,1.5-2.32,1.14-3.53-.82-2.75-5.64-1.71-6.24-4.55-.57-2.69,1.93-4.14,4.32-4.5-1.75-.79-5.77,1.51-5.74,4.25.04,3.42,4.46,3.43,5.07,5.32.98,3.01-4.4,3.15-4.74,6.78-.36,3.82,4.65,4.19,3.99,8.57,2.61-2.38-1.17-4.24-.73-6.47.12-.62.97-1.83,1.6-2.09l4.38-1.75c2.04-.81,3.78-2.43,3.71-4.71Z"/>
      <path d="M4.02,30.5c2.01.49,3.71,1.27,5.22,2.24-.89-2.81-6.8-2.69-6.5-6.54.07-.9,1.14-2.29,2.13-2.69l5.19-2.1c1.94-.79,3.07-2.79,2.45-4.6-.58-1.67-2.43-2.81-4.35-2.71,1.27.37,2.4,1.02,2.85,2.3.34.99-.12,2.56-1.15,3.22-3.41,2.18-7.02,1.21-9.45,5.39-1.36,2.34,1.08,4.88,3.63,5.49Z"/>
      <path d="M19.28,48.93c3.03.7,5.96.73,8.55-.11-1.7-1.85-3.15-1.46-4.98-1.48-1.48-.02-2.9-.1-3.57,1.59Z"/>
      <path d="M17.65,49.81c.83,2.66,13.18,1.44,11.62.14-1.23-1.02-5.36,1.59-10.7-.5-.21-.08-.98.14-.92.36Z"/>
      <path d="M41.91,24.86l-.47-.66c-.08-.11-.33.02-.34.15-.08,1.16,1.7,4.04.2,5.34l-3.59,3.11c2.63-.5,5.67-2.54,5.64-4.73-.01-1-.79-2.29-1.44-3.21Z"/>
      <path d="M40.34,37.83c-.25-.38-.57-1.17-.87-1.82-.22,1.64-1.15,2.33-2.72,2.59,1.8.34,2.61,1.1,2.78,2.76.99-2.94.63-1.77,2.73-2.79-.66-.23-1.67-.37-1.92-.75Z"/>
      <path d="M6.86,39.45c.27.45.46,1.34.66,2,.37-1.08.45-1.97.88-2.13l2.06-.76c-.6-.27-2.02-.35-2.2-.92l-.73-2.35c-.16.74-.33,1.91-.61,2.42-.29.51-1.65.63-2.27.86.64.24,1.96.42,2.22.87Z"/>
      <path d="M26.59,45.48l-6.58-.17c1.86,1.94,5.19,1.81,6.58.17Z"/>
      <path d="M5.67,27c-.09.42.52,1.52.91,1.75l2.54,1.57-1.56-1.93c-.68-.83-.9-1.85-.9-3-.38.44-.87,1.12-.98,1.61Z"/>
      <path d="M31.86,33.09l-5.12-6.17-6.5.02-5.12,6.12c5.71,1.71,11.16,1.77,16.74.04ZM29.85,31.53c-.35.28-1.74.41-1.95-.07l-1.42-3.24,3.37,3.32ZM24.99,28.31l1.85,4.01-2.39.3.54-4.31ZM18.71,31.81c-.22.32-1.38-.23-1.5-.36l3.42-3.48c-.1.77-.52,1.82-1.03,2.56l-.88,1.28ZM19.92,32.15l1.97-3.75.65,4.1-2.62-.35Z"/>
      <path d="M32.42,35.41l.54-1.02c.07-.13-.84-.32-1.03-.27-4.93,1.32-11.69,1.57-16.58-.04-.38-.13-1.22.76-.97.92,3.55,2.13,13.58,1.8,18.03.41Z"/>
    </g>
  </g>
</svg>