<?xml version="1.0" encoding="UTF-8"?>
<svg id="Warstwa_2" data-name="Warstwa 2" xmlns="http://www.w3.org/2000/svg" viewBox="0 0 62.54 58.2">
  <g id="game-icon-v5-divine-pixarts-store">
    <g id="game-icon-v5-divine-pixarts-store_48">
      <path d="M52.62,9.2c-8.56-.4-15.71-3.96-21.9-9.2-6.04,5.74-13.16,8.64-21.35,9.19-.68,7.93-.31,15.7,1.82,23.39,2.91,10.89,9.75,20.1,19.72,25.62,10.45-6.1,17.28-15.59,19.94-27.01,1.7-7.31,2.14-14.55,1.76-21.99ZM47.46,32.97c-2.71,9.14-8.26,16.86-16.52,22.05C15.38,45.5,11.19,28.81,11.87,11.79c7.28-.98,13.36-3.77,18.97-8.06,5.73,4.31,12.01,6.99,19.06,8.12.23,7.26-.38,14.18-2.43,21.11Z"/>
      <path d="M54.57,29.02l7.98-.62c-11.04-2.65-10.56.82-7.98.62Z"/>
      <path d="M8.06,27.35c-2.93.3-5.44.46-8.06,1.06l8.39.77-.33-1.83Z"/>
      <path d="M14.51,44.86c-.07-.2-.51-.59-.67-.45-.1.09-.56.49-.65.6l-3.9,4.82c.64-.05,5.47-4.29,5.21-4.97Z"/>
      <path d="M47.31,44.53c-1.45.32,4.5,5.22,5,5.33l-4.4-5.46-.6.13Z"/>
      <path d="M29.48,6.86l-5.78,3.26c.95,2.39,1.65,3.89,2.13,6.32-1.7-1.77-2.53-3.23-3.9-5.46l-7.19,2.13c3.46,2.25,6.3,4.04,9.15,6.77l-10.34-4.16c-.08,2.74.03,5.4.28,8.09l2.5.26-2.38.96,1.86,8.16c2.75-1.61,4.76-3.1,8.09-4.42-2.25,2.54-4.56,4.4-7.3,6.8l3.1,5.98,6.63-9.88-4.51,12.96c1.62,2.2,3.26,4.11,5.54,5.75,1.1-8.37,1.61-16,1.47-24.22-2.88-.19-5.39-.14-7.99.49l-2.56-2.55,2.35-2.51c2.57.29,5.01.39,8.05.4.31-2.47.24-4.54-.73-6.78,3.44-4.09,2.61-2.48,1.51-8.32Z"/>
      <path d="M46.61,13l-6.62-2.08-3.97,5.4c-.15-2.32,1.15-3.92,2.29-6.11l-6.29-3.55c-.74,5.78-1.89,4.56,1.68,8.37-.76,2.05-1.04,4.48-.61,6.76,2.7.4,5.38.33,7.75-.52l2.86,2.78-2.63,2.56c-2.63-.46-5.32-.59-8.14-.44-.09,8.46.28,15.92,1.5,24.24,2.2-1.91,3.82-3.68,5.48-5.73l-4.57-12.9c2.69,3.28,4.16,6.31,6.56,9.96,1.24-2.25,2.25-4.29,3.09-6.35-3.07-2.56-5.02-4.09-7.39-6.79,3.13,1.28,5.04,2.57,8.2,4.34l1.88-7.94-2.58-.9,2.9-.82.24-7.42-10.84,4.05,9.22-6.9Z"/>
    </g>
  </g>
</svg>