<?xml version="1.0" encoding="UTF-8"?>
<svg id="Warstwa_2" data-name="Warstwa 2" xmlns="http://www.w3.org/2000/svg" viewBox="0 0 38.16 52.88">
  <g id="game-icon-v5-divine-pixarts-store">
    <g id="game-icon-v5-divine-pixarts-store_85">
      <path d="M0,26.96c.64,5.19,37.77,5.1,38.15.02.21-2.83-11.94-4.25-13.91-3.17l9.74,1.78c.46.08,1.07.69,1.45,1.22-5.64,2.87-27.01,2.92-32.8-.12,1.1-2.59,13.02-1.74,10.89-3.03-1.75-1.06-9.79.72-12.09,1.46-.7.23-1.49,1.31-1.42,1.85Z"/>
      <path d="M19.01,0c-.56,7.41-.28,7.64-4.29,13.72-2.45,3.72-1.74,8.77,2.44,10.78-1.13-3-.26-5.08,1.17-7.11,2.86-3.13,3.12-6.65,1.82-10.51-.73-2.16-.67-4.75-1.15-6.89Z"/>
      <path d="M13.58,32.01c.09,2.77,1.1,5.49,3.38,7.14,1.4,1.02,3.65.8,4.99-.5,1.88-1.84,2.7-4.26,2.56-6.65h-10.93Z"/>
      <path d="M30.36,50.16c.06-.53-.45-1.83-.88-1.58-3.34,2.79-18.14,2.54-21-.22-.27.31-.62,1.34-.62,1.88,0,.52.98,1.29,1.6,1.44,6.48,1.57,13,1.64,19.44-.07.61-.16,1.41-.96,1.46-1.46Z"/>
      <path d="M24.51,16.05c-.48-1.57-1.26-3.08-2.03-4.5-.59,3.03-1.62,5.15-3.35,7.33-1.51,1.89-1.59,4.65.6,6.12,3.95-1.34,5.93-5.18,4.78-8.95Z"/>
      <path d="M14.63,42.85l-1.25,3.3c3.73,1.33,7.91,1.32,11.6,0l-1.55-3.28c-2.83.68-5.94.58-8.8-.02Z"/>
      <path d="M25.1,47.1c-9.99,3.55-14.62-3.32-15.27,1.03,4.08,1.95,15.15,2.19,18.67-.27-1-1.83-2.11-1.22-3.41-.76Z"/>
      <path d="M7.04,31.37c1.85,4.51,4.79,7.48,8.52,8.08-2.08-2.43-2.72-4.63-3.16-7.53l-5.36-.55Z"/>
      <path d="M15.98,26.18c-2.64-.68-5.89.13-8.43.81,7.95,1,15.7,1.2,23.38,0-10.54-2.79-7.66,1.07-14.95-.81Z"/>
      <path d="M25.7,31.97c-.22,3-1.05,4.99-2.67,7.37,4.14-.98,6.82-4.2,8.03-8.01l-5.36.64Z"/>
      <path d="M2.13,30.08c1.8,3.85,4.58,6.7,8.06,7.91-2.03-2.12-3.32-4.26-4.38-6.99l-3.68-.92Z"/>
      <path d="M13.27,40.25c-.52,2.98,12.91,2.71,11.48,0-3.93.7-7.47.71-11.48,0Z"/>
      <path d="M32.28,31.14c-.92,2.62-2.12,4.33-3.64,6.41,3.58-1.43,5.74-4,7.36-7.37l-3.72.96Z"/>
      <path d="M25.73,12.16l.82-.3,5.01-4.82c-1.76.95-4.32,2.77-5.83,3.88-.23.17-.21,1.31,0,1.23Z"/>
      <path d="M11.08,20.42c-.26-1.05-.41-1.39-.62-1.37l-7.58.98,8.2.39Z"/>
      <path d="M26.89,15.64c.23.61,7.39-1.86,7.88-2.38-1.69.31-8.42.96-7.88,2.38Z"/>
      <path d="M27.16,19.4v.8c.02.2.7.23.97.22l7.41-.4-7.5-.86c-.21-.02-.88.04-.87.24Z"/>
      <path d="M4.52,13.71l5.52,1.99c.24.09.86-.03,1.08-.06,2.82-.42-6.7-2.58-6.6-1.93Z"/>
      <path d="M12.85,11.45c-.68-1-3.88-3.28-5.18-3.58-.93-.2,7.41,6.84,5.18,3.58Z"/>
      <path d="M14.82,8.28c-.29-2.56-1.65-4.02-2.99-5.61.75,2.19,1.7,4.14,2.99,5.61Z"/>
    </g>
  </g>
</svg>