<?xml version="1.0" encoding="UTF-8"?>
<svg id="Warstwa_2" data-name="Warstwa 2" xmlns="http://www.w3.org/2000/svg" viewBox="0 0 52.04 51.2">
  <g id="game-icon-v5-divine-pixarts-store">
    <g id="game-icon-v5-divine-pixarts-store_79">
      <path d="M33.95,20.65l-.71-.77c-.14-.15-.57.51-.75.71l-5.11.22.09-5.66.96-1.42-2.39-2.06-2.09,1.92c.27.7.72,1.77.72,2.34v4.79c-2.31.21-4.02.28-6.1-.74l-1.46,2.18,1.54,1.99c1.98-.92,4.06-.98,6.01-.6v18.1c0,.87-.44,1.75-.91,2.77l2.3,1.94,2.37-1.99c-.56-.9-1.03-1.82-1.03-2.75v-18.22c2.3-.17,4.15-.02,6.21.69l1.16-1.82c.24-.38-.49-1.27-.81-1.61Z"/>
      <path d="M37.02,47.92H14.85c-.25.59-.81,1.45-1.22,1.46l-6.04.1c-.41.02-.43,1.72.04,1.72h36.97s.13-1.74.13-1.74l-5.9-.04c-.87,0-1.41-.39-1.79-1.5Z"/>
      <path d="M25.88,2.43c-8.25,2.19-15.89,10.19-15.72,18.48,0,.43,1.46.45,1.48.07.53-8.16,6.91-14.42,14.53-16.99,8.01,3.17,13.24,8.62,14.17,16.97.04.39,1.7.38,1.67-.04-.65-8.94-7.46-16.45-16.14-18.49Z"/>
      <path d="M36.72,47.12c.89-.15,1.05-.86,1.04-1.63l-.12-20.56c0-1.46-.23-3.19-.42-4.62-.8-6.31-5.56-11.12-11.44-12.91-5.85,2.35-10.42,7.04-11.13,13.31-.11.98-.12,2.38-.13,3.48l-.17,22.44c.28.18.83.43.89.2.04-.15.18-.79.18-1l-.2-16.58c-.04-3.44-.1-6.7.66-9.92,1.24-5.24,5.31-9.03,10.17-10.97,5.53,2.17,10.39,6.89,10.45,13.07l.22,25.68Z"/>
      <path d="M26.07,5.35c-6.14.57-14.42,9.52-13.36,16.23,1.51-1.29.85-2.72,1.6-4.44,1.92-4.44,6.45-10.11,11.77-10.46,7.5,1.3,11.19,8.14,12.91,14.93,2.23-5.79-7.19-16.02-12.93-16.25Z"/>
      <rect x="40.53" y="25.57" width="1.51" height="19.02" transform="translate(-.04 .04) rotate(-.06)"/>
      <path d="M10.75,25.25c-.18.13-.69.67-.69,1.09l-.05,17.85.87.36c.18.08.62-.9.62-1.11l.03-17.21c0-.24-.6-1.11-.78-.98Z"/>
      <rect x="3.31" y="34.5" width="19.04" height="1.18" transform="translate(-22.28 47.87) rotate(-89.9)"/>
      <path d="M39.42,44.95l.41-18.32c0,.14-1.7-4.48-.99,4.5.37,4.74-.58,9.32.58,13.82Z"/>
      <path d="M11.52,11.35c.37-.32,1-1.32.72-1.59C9.07,6.82,5.56,3.45,2.09.8l9.42,10.55Z"/>
      <path d="M39.62,9.76c-.36.33.63,1.74.95,1.39,2.89-3.12,5.33-5.52,7.69-8.75-3.27,2.19-5.88,4.88-8.65,7.35Z"/>
      <polygon points="8.3 24.25 0 25.53 8.63 26.5 8.3 24.25"/>
      <path d="M52.04,25.52l-8.05-1.34c-3.52,3.8,7.01,1.38,8.05,1.34Z"/>
      <path d="M51.36,10.21l-8.92,4.39-.23.98c-.05.2.95.52,1.23.32l7.92-5.68Z"/>
      <path d="M9.66,14.66c-2.24-1.23-5.04-2.74-7.58-3.6,2.2,1.91,4.64,3.51,7.08,5.11.35-.02.86-1.32.5-1.51Z"/>
      <path d="M8.64,27.85l-.64-.54L.46,30.28c1-.08,9.87-.99,8.19-2.43Z"/>
      <path d="M8.79,20.48c.34-1.28-7.26-2.41-8.77-2.44l7.49,2.94c.41.16,1.2-.19,1.28-.5Z"/>
      <polygon points="43.49 29.05 51.42 30.29 43.55 27.11 43.49 29.05"/>
      <path d="M44.16,21.11l7.83-3.08c-2.98.32-5.76.96-8.3,1.59-.4.1.08,1.64.47,1.48Z"/>
      <path d="M1.63,37.76l5.66-2.55c.37-.17,1.3-.47,1.26-.83l-.16-1.58c-2.53,1.67-4.54,2.9-6.76,4.97Z"/>
      <path d="M43.58,32.82c-.31.41-.3,1.71.13,1.91,2.39,1.1,4.45,2.05,6.65,2.84-2.4-1.95-4.42-3.2-6.77-4.75Z"/>
      <path d="M28.71,27.17c1.31,4.38,3.49,7.91,5.43,11.75-.18-1.86-4.01-10.39-5.43-11.75Z"/>
      <path d="M29.45,35.93l2.38,8.18c-.78-5.09-1.76-9.05-3.14-13.55-.12,1.81.25,3.61.76,5.37Z"/>
      <path d="M18.25,37.74c2.3-3.27,4.22-6.78,5.04-10.57-2.05,3.56-3.64,6.9-5.04,10.57Z"/>
      <path d="M42.69,47.15l-3.39.03c-.3,0-.94.54-.84.8.08.2.66.72.88.72l4.14-.09c-.04-.45-.43-1.46-.79-1.46Z"/>
      <path d="M8.63,48.67l4.86-.02c.07-.38-.2-1.52-.58-1.52-1.77-.02-4.64-.58-4.28,1.54Z"/>
      <path d="M20.67,42.43c1.36-3.66,2.6-7.31,2.6-11.4-1.12,3.73-2.05,7.39-2.6,11.4Z"/>
      <path d="M28.7,24.94c1.39,2.86,3.48,4.99,5.77,7.18-1.53-2.62-3.2-5.14-5.77-7.18Z"/>
      <path d="M44.18,41.68l4.73,3.44c-1.68-2.19-3.4-3.79-5.49-5.78-.21.85.13,1.69.76,2.34Z"/>
      <path d="M16.76,4.91L13.31,0l2.55,6.44c.61-.34,1.15-1.17.9-1.53Z"/>
      <path d="M23.06,24.9c-1.99,2.36-3.65,4.38-5.17,7.06.53-.18,6.84-7,5.17-7.06Z"/>
      <rect x="38.6" y="45.21" width="3.98" height="1.36" transform="translate(-1.42 1.3) rotate(-1.8)"/>
      <rect x="9.27" y="22.05" width="4.53" height="1.19" transform="translate(-.53 .28) rotate(-1.35)"/>
      <path d="M8.46,39.48c-1.84,1.82-3.3,3.24-4.94,5.25,1.18-.56,6.55-4.06,4.94-5.25Z"/>
      <path d="M36.3,6.06c.63-1.42,1.63-3.94,2.14-5.53l-3.04,4.29-.17,1c-.03.17.99.44,1.08.24Z"/>
      <rect x="40.01" y="20.5" width="1.14" height="4.29" transform="translate(16.91 62.63) rotate(-88.53)"/>
      <path d="M13.7,45.92c-1.53-1.13-3.19-1.21-4.47.08,1.34.67,3.2.77,4.47-.08Z"/>
      <path d="M17.53,27.7c1.83-.71,3.26-1.62,4.76-2.93-1.94.09-3.51,1.32-4.76,2.93Z"/>
    </g>
  </g>
</svg>