<?xml version="1.0" encoding="UTF-8"?>
<svg id="Warstwa_2" data-name="Warstwa 2" xmlns="http://www.w3.org/2000/svg" viewBox="0 0 48.21 50.3">
  <g id="game-icon-v5-divine-pixarts-store">
    <g id="game-icon-v5-divine-pixarts-store_82">
      <path d="M40.16,28.7c-2.7,2.3-5.69,3.31-9.24,3.62-3.3.29-6.82.36-9.65-1.49.07-4.61,5.7-3.9,7.79-8.58.17-.37-.01-1.54-.36-1.76-1.3-.82-6.49,3.43-10.32,5-8.43,3.44-6.51,4.73-12.41,11.72,1.22,2.7,3.78,5.14,6.69,6.16,1.53-1.37,3.4-2.93,5.71-3.09l9.83-.66c1.61-.11,3.24-1.41,4.59-2.38l-4.36.22c12.63-3.76,8.42-2.09,18.22-10.28-1.06-2.73-5.36.56-6.49,1.52Z"/>
      <path d="M46.13,6.14c.36-1.92-.42-3.9-1.74-4.92-1.54-1.2-3.48-1.29-5.16-.15,2.07-.25,3.52.28,4.2,2.02,1.92,4.89-6.34,7.25-9.95,8.12-2.39.57-4.77,1.04-6.98,2.01-3.47,1.52-6.52,4.26-7.22,7.95,6.34-8.98,12.15-6.04,21.03-8.84,2.7-1.45,5.24-3.11,5.82-6.18Z"/>
      <path d="M14.59,46.72c1.21.2,2.66-.46,3.3-1.27.62-.79,1.04-2.2.34-2.83-.22.9-.43,2.15-.92,2.56-2.38,2.01-12.29-2.26-13.97-11.51-.18-.99.36-2.49,1.05-2.87.69-.38,1.68-.35,3.04-.36-1.23-.69-3.11-.97-4.31-.08-4.35,3.22,1.41,14.67,11.47,16.36Z"/>
      <path d="M20.18,47.59c.81-1.31.77-3,.31-4.15-.02,2.53-.82,4-3,4.5-3.97.91-7.83-.49-11.25-2.56-2.46-1.49-4.09-3.52-4.24-6.6-1.63,1.57-.99,3.73.34,5.29,4.47,5.23,15.09,7.96,17.84,3.51Z"/>
      <path d="M41.77,21.37c-1.01-.84-2.71-.3-3.22.73l-2.1,4.24c-.78,1.56-2.35,2.95-3.52,4.41,6.33-.21,6.07-3.87,8.84-9.38Z"/>
      <path d="M24.41,12.08c1.6-.58,2.96-.99,4.13-1.98-2.11.53-3.86.98-5.76,1.6-5.02,1.62-8.09,6.86-6.11,11.96-.15-5.06,2.69-9.74,7.75-11.58Z"/>
      <path d="M34.83,23.21c-2.63.24-2.8,4.77-4.55,7.92,3.69-1.33,4.68-4.7,4.55-7.92Z"/>
      <path d="M45.35,12.72c-1.01,3.24-.4,2.95-3.7,4.13.75.16,2.21.24,2.62.79.42.56.75,1.57,1.11,2.47.36-1.9,1.07-2.99,2.84-3.42-2.07-.59-2.54-2.14-2.86-3.97Z"/>
      <path d="M7.68,50.02c-3.12-1.94-5.44-3.35-7.28-6.24-2.19,2.06,5.34,7.86,7.28,6.24Z"/>
      <path d="M31.8,4.05l.97,2c.27-.63.64-1.69,1.05-2.1.41-.41,1.74-.5,2.36-.67-1.01-.36-2.06-.59-2.53-1-.41-.35-.61-1.65-.74-2.29-1.34,2.83-.33,2.27-3.3,3.28.64.21,1.96.3,2.19.77Z"/>
      <path d="M23.73,5.04l-2.26.98c.81.2,2.23.32,2.44.9l.87,2.3c.2-.77.36-2.09.85-2.47.42-.34,1.4-.59,2.09-.82-2.08-.34-2.77-1.54-2.94-3.29-.42.83-.52,2.17-1.05,2.4Z"/>
      <path d="M9.79,25.33l.59,1.69c.4-1.62,1.02-2.21,2.16-2.64-.51-.24-1.52-.46-1.64-.9l-.49-1.8c-.81,2.41.11,1.75-2.47,2.94.48.1,1.69.28,1.85.72Z"/>
      <path d="M23.35,18.96c1.39-.58,2.66-1.23,4.13-1.48l5.71-.97c-1.29-.76-9.09.26-9.84,2.45Z"/>
      <polygon points="38.2 18.12 36.75 16.36 35.55 18.19 36.74 19.93 38.2 18.12"/>
      <path d="M14.81,15.54l-1.43-1.69c-.52.69-1.37,1.51-1.84,1.82l1.87,1.18,1.4-1.32Z"/>
      <path d="M26.74,44.36l1.62,1.64c.06-.21.25-1.06.52-1.17l1.02-.41c-.93-.55-1.55-1.39-1.59-2.05l-1.57,1.99Z"/>
    </g>
  </g>
</svg>