<?xml version="1.0" encoding="UTF-8"?>
<svg id="Warstwa_2" data-name="Warstwa 2" xmlns="http://www.w3.org/2000/svg" viewBox="0 0 47.48 50.7">
  <g id="game-icon-v5-divine-pixarts-store">
    <g id="game-icon-v5-divine-pixarts-store_65">
      <rect x="22.17" y="-.15" width="3.31" height="46.62" transform="translate(.6 46.91) rotate(-89.83)"/>
      <rect x="0" y="47.84" width="47.47" height="2.85"/>
      <path d="M7.11,42.34l7.99-.06-.05-12.06-7.99.08.05,12.04ZM9.5,32.05c1.35.71,2.94,1.51,3.43,2.5.66,1.35-1.24,2.34-2.37,2.43l2.67,2.51c-1.16-.04-1.74-.53-2.56-1l-.97,1.62c-.37-2.87-.36-5.22-.2-8.06Z"/>
      <path d="M32.49,42.4l8.08-.12c.15-4.62.11-7.91-.17-12.02l-8.03.07.12,12.08ZM34.29,32.63l2.78,2.03.63-1.77,1.23,2.09c-.34.82-.73,1.98-.72,3l.03,1.9-2.69-2.55c-.2,1.34-.15,1.92-.94,2.79-.34-2.7-.36-4.7-.32-7.49Z"/>
      <rect x="2.25" y="25.53" width="43.26" height="1.55"/>
      <rect x="2.07" y="45.29" width="43.5" height="1.71"/>
      <path d="M23.3,28c-2.6.25-4.42,2.13-5.78,4.07-.3-1.17-.34-2.05-1.56-1.77l-.05,11.63c0,.32,1.08.76,1.17.5.71-2.17-.18-4.8.44-8.02.5-2.61,3.64-5.47,6.61-5.18,2.43.24,5.26,2.48,5.75,4.54.82,3.42-.46,8.28.9,8.7.27.08.79-.74.79-1.03l-.14-11.25c-1.45.38-1.14,1.08-1.56,2.02-1.28-2.64-3.66-4.48-6.58-4.19Z"/>
      <rect x="3.61" y="43.22" width="40.51" height="1.44"/>
      <path d="M26.13,7.58c-.68,1.16-1.14,2.64-1.3,3.51-.08.4-1.26,1.15-1.3.78l-.18-1.41c-.13-.99-1.36-2.32-2.4-3.09-1.44,6.44,2.25,3.9,1.76,8.06-.05.43-.02,1.6.35,1.6h1.55c.84,0-.16-2.95.57-3.88,1.1-1.4,2.35-3.78.96-5.58Z"/>
      <path d="M23.28,31.4l-.08,3.82-2.6-1.03c.63,1.07,1.42,1.63,2.25,2.17l-2.56,2.19c1.41.07,1.82-.49,2.83-1.08l.24,3.84,3.66-2.83-2.5-2.14,2.58-2.06-3.82-2.88Z"/>
      <path d="M44.01,28.72c.12-.14-.22-.82-.49-.82h-13.14c-.31,0-.65,1.1-.39,1.21.2.08.79.3,1.05.3l11.91-.04c.29,0,.91-.47,1.06-.65Z"/>
      <path d="M16.58,27.85l-12.53.07c-.29,0-.51.97-.28,1.08.23.11.95.38,1.31.38l11.62.02c.4,0,1.05-.57.99-.91-.05-.27-.68-.64-1.12-.64Z"/>
      <path d="M5.06,14.07l.42,4.81c.55.02,2.01-.09,2.29-.19-.28-5.21.83-4.89.29-7.36-1.47.51-1.78.41-3.11-.15.02.94.06,2.14.12,2.88Z"/>
      <path d="M39.99,18.58c.05.67,2.3.49,2.33-.23l.34-6.67-3.17-.45.5,7.36Z"/>
      <rect x="4.71" y="30.32" width="1.58" height="12.09" transform="translate(-.07 .01) rotate(-.11)"/>
      <rect x="41.34" y="30.31" width="1.51" height="12.09" transform="translate(-.06 .07) rotate(-.09)"/>
      <path d="M24,9.01c2.17-2.94.03-1.76.63-6.5.12-.95-.05-2.36-.95-2.51-.67.34-.82,1.74-.63,2.5.97,3.76-2.39,3.35.96,6.51Z"/>
      <path d="M5.93,10.06l.6-1.01.53,1.59c1.42-1.78.44-3.18-.75-4.51-2,3.16-.71,4.48-.39,3.94Z"/>
      <path d="M40.21,10.24l1.06-.87c.08.85.12,1.24.27,1.11,1.34-1.13.8-2.43-.43-4.22-.86,1.18-1.52,2.6-.9,3.97Z"/>
      <rect x="38.36" y="19.71" width="5.43" height=".78"/>
      <rect x="3.85" y="19.71" width="5.43" height=".78"/>
      <path d="M21.58,19.64l-.73.88,5.78-.26c-1.94-.82-3.18-.48-5.05-.62Z"/>
    </g>
  </g>
</svg>