<?xml version="1.0" encoding="UTF-8"?>
<svg id="Warstwa_2" data-name="Warstwa 2" xmlns="http://www.w3.org/2000/svg" viewBox="0 0 42.97 44.52">
  <g id="game-icon-v5-divine-pixarts-store">
    <g id="game-icon-v5-divine-pixarts-store_192">
      <rect x="24.09" y="6.97" width="11.84" height="11.82" transform="translate(-.42 24.73) rotate(-44.5)"/>
      <path d="M23.05,24.18l-.13,14.06h6.19s.05-12.03.05-12.03c0-1.61-.21-3.5-.96-4.91-1.71-.43-5.13.87-5.15,2.88Z"/>
      <path d="M5.73,40.17l4.95-5.29c4.51-4.83,8.7-9.58,13.42-14.25-.27-.7-1.21-1.64-1.88-1.61l-7.55,7.41-11.61,11.04,2.68,2.7Z"/>
      <polygon points="21.62 24.99 15.3 31.57 15.31 38.29 21.63 38.24 21.62 24.99"/>
      <path d="M8.74,12.96c-.31,5.75-.16,11.15-.13,17.02.94-.47,1.58-1.44,1.57-2.46l-.11-12.38c-.06-6.57,4.13-11.98,10.51-13.25.88-.17,1.85-.87,2.12-1.65-7.11-.04-13.58,5.49-13.96,12.71Z"/>
      <path d="M21.34,14.37c-2.87-.4-4.39-4-5.3-2.87-1.32,1.64-.64,9.57-.69,12.21,3.4-3.57,6.97-4.84,5.99-9.35Z"/>
      <rect x="4.3" y="43.18" width="36.03" height="1.33"/>
      <path d="M41.68,14.95c-3.53,2.94-6.64,6.28-9.8,9.66.32.82,1.35,1.46,1.98,1.36.48-.08,1.49-.53,1.92-.98l6.85-7.02c.77-.79.18-2.93-.95-3.02Z"/>
      <rect x="6.64" y="41.1" width="31.51" height="1.47"/>
      <path d="M26.24,0c-1.96.3-6.92,5.88-8.59,7.79-.3.34-.35,1.54-.33,2,.02.38,1.27,1,1.6.67L28.04,1.31c-.31-.71-1.25-1.39-1.8-1.3Z"/>
      <rect x="8.03" y="39.27" width="28.32" height="1.2" transform="translate(-.04 .02) rotate(-.06)"/>
      <path d="M40.21,13.49c-.21-.06-1.17-.1-1.4.13l-8.21,8.18c-.23.49-.52,1.22-.24,1.23.21,0,1.19-.09,1.51-.41l8.13-8.08c.26-.26.48-.98.2-1.05Z"/>
      <rect x="18.09" y="6.83" width="13.32" height="1.5" transform="translate(1.88 19.7) rotate(-44.95)"/>
      <path d="M35.14,38.33c.32-.05.76-.84.76-1.18l-.06-10.12c-.45-.18-1.66.32-1.66.81v9.32c0,.55.56,1.24.96,1.18Z"/>
      <path d="M16.2,8.19c-3.91.95-3.12,14.55-2.62,17.52,1.05-4.56.11-8.7.61-12.97l2.02-4.54Z"/>
      <rect x="27.3" y="32.18" width="10.88" height="1.14" transform="translate(-.18 65.32) rotate(-89.7)"/>
      <path d="M1.75,43.16c.66.06,2.41-.93,2.03-1.49-.59-.88-1.64-1.85-2.41-2.33-.64-.17-1.42,1.34-1.37,2.01.07.91.9,1.73,1.75,1.81Z"/>
      <path d="M31.36,26.25c-.77-.73-.95-.9-.83-.19l-.1,12.59c1.82-4.05.38-8.2.94-12.39Z"/>
      <path d="M15.25,6.85l-.88-.92c-1.97,2.69-4.03,5.6-2.81,8.95,2.09-3.98-.44-4.11,3.69-8.03Z"/>
      <rect x="11.24" y="17.83" width=".8" height="9.43"/>
      <path d="M22.91,16.06c-.4,1.57.78,2.34,1.73,3.22l.9.84c.2.19.97-.52,1.02-.75-.98-1.11-2.33-2.41-3.65-3.32Z"/>
      <path d="M16.49,6.18l3.52-3.1c-1.55.09-3.33,1.08-4.37,1.93-.26.21.61,1.39.85,1.17Z"/>
      <path d="M33.4,6.14c1.07,1.19,2.03,2.15,3.1,3.09.71-2.23-1.32-3.73-3.1-3.09Z"/>
      <path d="M13.99,33.02c-1.05-.78-.92,5.65-.42,5.51.7-2.03.49-3.54.42-5.51Z"/>
      <rect x="2.96" y="37.55" width=".93" height="3.9" transform="translate(-27.27 14.41) rotate(-45.78)"/>
    </g>
  </g>
</svg>