<?xml version="1.0" encoding="UTF-8"?>
<svg id="Warstwa_2" data-name="Warstwa 2" xmlns="http://www.w3.org/2000/svg" viewBox="0 0 40.42 49.24">
  <g id="game-icon-v5-divine-pixarts-store">
    <g id="game-icon-v5-divine-pixarts-store_131">
      <path d="M37.06,21.41c1.15-1.2,1.92-2.33,1.8-3.33-.29-2.48-4.74-3.75-6.68-4.16-.27-.06-.73,1.19-.48,1.3l.93.38c.85.35,2.92.99,2.89,2.15-.03,1.14-2.05,2.18-3.21,2.44-8.47,1.89-17.24,1.95-25.54-.54-.75-.22-1.78-1.13-1.85-1.71-.25-1.95,7.83-3.71,7.86-3.71l9.05-.1c.22,0,.76-1.05.58-1.17-2.04-1.34-21.46.44-20.82,5.38.11.87,1.04,2.2,1.7,3.14-5.2,7.99-4.18,15.04,2.62,21.63l-1.27,3.69c-.17.5.06,1.8.46,2.15.4.35,1.81.38,2.24,0l3.5-3.01c6.02,2.35,12.48,2.67,18.66.05l3.28,2.79c.49.42,1.92.58,2.39.19.41-.33.72-1.69.55-2.2l-1.3-3.71c6.79-5.59,8.01-14.61,2.63-21.67ZM27.26,34.47c-1.9,2.79-4.57,4.73-7.11,6.87l-5.89-5.25c-1.95-1.74-2.65-4.87-.94-6.89,1.92-2.26,5.08-1.48,6.89.67,1.51-2,3.87-2.5,5.78-1.54,1.92.97,2.77,3.93,1.27,6.14Z"/>
      <circle cx="27.25" cy="13.56" r="3.49"/>
      <path d="M18.92,6.85c0-1.49-1.21-2.7-2.7-2.7s-2.7,1.21-2.7,2.7,1.21,2.7,2.7,2.7,2.7-1.21,2.7-2.7Z"/>
      <path d="M13.09,15.24c-1.35.17-2.65,1.81-1.7,2.96.7.84,3.64.69,4.13-.41.69-1.56-1.33-2.68-2.43-2.54Z"/>
      <path d="M24.03,0c-1.13,0-2.04.91-2.04,2.04s.91,2.04,2.04,2.04,2.04-.91,2.04-2.04-.91-2.04-2.04-2.04Z"/>
      <path d="M21.57,17.38c-.86.01-2.21,1.17-1.78,2.3,1.17.29,3.18.27,4.26.05-.03-1.67-1.15-2.37-2.49-2.35Z"/>
    </g>
  </g>
</svg>