<?xml version="1.0" encoding="UTF-8"?>
<svg id="Warstwa_2" data-name="Warstwa 2" xmlns="http://www.w3.org/2000/svg" viewBox="0 0 40.77 40.72">
  <g id="game-icon-v5-divine-pixarts-store">
    <g id="game-icon-v5-divine-pixarts-store_08">
      <path d="M1.22,34.45c1.46,1.86,3.01,3.59,4.93,5.09,1.68,1.31,4.79,1.77,6.5.08l26.72-26.55c1.88-1.87,1.79-5,.14-6.91-1.45-1.67-2.97-3.29-4.53-4.69-2.52-2.26-5.74-1.78-7.98.46L1.81,27.1c-2.08,2.08-2.44,4.98-.59,7.35ZM20.37,10.9l9.47,9.44-9.59,9.62-9.47-9.44,9.59-9.62Z"/>
      <path d="M5.89,1.41c-1.6,1.4-3.21,3.02-4.54,4.55C-1.02,8.66.02,11.8,2.25,13.99l5.36,5.25,11.7-11.76L13.14,1.38c-1.92-1.89-5.18-1.79-7.25.03Z"/>
      <path d="M39.04,27.23l-5.85-5.76-11.68,11.74,5.77,5.81c1.81,1.82,4.73,2.41,7.11.64,2.11-1.58,4.02-3.53,5.43-5.54,1.61-2.31,1.05-5.08-.78-6.88Z"/>
      <path d="M22.55,22.05c1.09-.04,2.52-.14,2.54-.75.02-.66.11-1.69-.26-2.05-.37-.35-1.62-.26-2.53-.37-.3-.32-.39-1.75-.53-2.91-.41-.17-2.23-.14-2.79-.02l-.19,2.88-3.02.27.05,2.68,2.92.28.28,3.01c.86.02,2.4-.09,2.85-.24.05-1.28.03-2.77.67-2.8Z"/>
    </g>
  </g>
</svg>