<?xml version="1.0" encoding="UTF-8"?>
<svg id="Warstwa_2" data-name="Warstwa 2" xmlns="http://www.w3.org/2000/svg" viewBox="0 0 44.39 45.63">
  <g id="game-icon-v5-divine-pixarts-store">
    <g id="game-icon-v5-divine-pixarts-store_01">
      <path d="M31.54,4.94l-.19,2.6-.21,2.82c1.78-1.68,1.99-3.45.4-5.42Z"/>
      <path d="M26.21,10.5c-2.83,1.1-5.74,1.19-8.74.04l-.28,4.75c-3.75,1.1-6.86,2.77-8.75,6.07-1.8,3.13-1.73,7.18-.12,10.46,1.98,4.03,3.96,7.66,6.23,11.59,1.7,2.92,13.06,2.99,14.67.08,2.37-4.28,4.72-8.28,6.51-12.71,2.37-5.84-.43-11.99-6.04-14.36l-3.27-1.38-.22-4.53ZM34.23,30.48c-1.83,4.39-4.19,8.38-6.67,12.74-3.89.77-7.26,1.05-10.85-.03-1.01-.3-1.83-2.12-2.34-3.07-1.71-3.2-3.35-6.13-4.81-9.39-2.19-4.89-.16-10.46,4.76-12.64l4.24-1.88c.41-.86.46-2.76.51-4.04l5.6-.02.17,3.98,4.53,1.91c4.85,2.04,6.91,7.49,4.85,12.43Z"/>
      <path d="M17.56.7c.2,1.75.52,3.48,1.17,4.85,2.38.33,4.21.2,6.72-.07l.64-4.93c-3.31-.73-5.59-.79-8.54.15Z"/>
      <path d="M33.79,11.79c-.74,1.55-.21,3.82,1.27,4.48.9.4,1.59.98,1.96,1.93l1.71,4.43,1.83-3.16c2.54-4.38-.65-3.5.75-7.32-3.41,1.67.52,3.89-2.66,7.57-1.25-7.02-4.64-4.5-1.79-10.92-1.14.52-2.44,1.67-3.07,2.98Z"/>
      <path d="M16.9,5.57c-1.12.33-1.51,3.16-.13,3.53,3.4.92,7.11.96,10.46-.04,1.09-.46.62-3.32-.16-3.56-1.23,2.03-9.28,1.89-10.17.07Z"/>
      <path d="M9.95,12.19c-.53-1.54-1.91-2.99-3.31-3.72,3.29,7.46-.72,4.21-1.56,11.32-3.17-3.73.49-5.09-2.31-7.72.31,2.98-1.26,4.58-.12,6.42l2.44,3.94,2.16-5.6c2.21-.35,3.46-2.4,2.69-4.64Z"/>
      <path d="M2.37,28.07l-1.48.61c1.34,1.19,2.86,2.22,4.44,2.86l-1.56-4.82c-.49-1.53-2.31-2.86-2.38-4.68-.02-.49-.8-1.41-1.17-1.7v2.69c-.02,4.12,3.51,4.48,2.15,5.04Z"/>
      <path d="M39.86,26.93c-.3,1.83-.31,3.15-2.07,4.9,2.15-.79,3.88-1.95,5.15-3.32l-1.56-.48c-.23-.07.31-.89.5-1.07,3.28-3.03.17-4.13,2.51-6.91-2.87,1.05-1.21,2.73-4.53,6.88Z"/>
      <path d="M7.46,36.54c-.87-1.19-1.91-1.53-2.96-2.09l-4.5-2.4c.54,1.58,1.76,3.03,3.03,3.35l4.43,1.15Z"/>
      <path d="M36.41,36.34c4.22-.99,5.41-.24,7.44-4.24-1.02.26-7.59,3.68-7.44,4.24Z"/>
      <path d="M9.77,41.03c-.76-.56-1.71-1-2.86-1.62l-2.03-1.1c.62,2.54,2.66,3.13,4.89,2.72Z"/>
      <path d="M38.61,38.33c-3.22,2.44-3.29,1.11-4.29,2.41-.08.11-.1.37.03.37h1.24c1.77-.02,2.96-1.41,3.01-2.78Z"/>
      <path d="M12.52,10.54l-.31-5.78c-1.69,2.38-1.5,3.6.31,5.78Z"/>
      <path d="M21.83,25.95c-4.75-4.74-4.82-2.69-10.56-3.33-1.92,2.33-1.59,5.84-.17,8.57l5.64,10.82c3.18.76,7.03.88,10.16-.05,2.38-4.89,9.69-14.51,5.67-19.31-6.01.63-6.2-1.42-10.74,3.31ZM17.03,26.88c1.67-1.19,3.47.09,4.83,1.14,1.22-.97,2.87-2.05,4.38-1.22,1.56.85,2.46,2.8,1.31,4.81-1.36,2.37-3.51,4.06-5.7,5.78-2.26-1.87-4.43-3.6-5.83-5.97-.99-1.67-.22-3.66,1.01-4.54ZM26.07,36.93c.72.14.96.18,1.06.19l.45.06c1.52.19-4.34.68-5.64,4.38-3.5-4.64-3.76-2.58-5.62-4.02-.11-.08-.37-.4-.24-.43l1.56-.39-2-1.22c-.89-.54-1.61-1.25-2.09-1.99l.53.05c.14.01.63.11.54.02l-.67-.72c-.42-.45-.75-1.2-.97-1.92l-1.42-1.58,1.26.4c.24.08.78-.45.69-.68-.48-1.19-2.32-2.18-1.37-3.78.54-.91,2.32-1.39,2.95-.6.48.6.15,1.85-.49,2.22l-.2-2.22c-.5.23-1.21.75-1.41,1.16-.23.48.54,1.54.92,2.01.16,1.74.11,4.56,1.64,5.97l6.31,5.78c3.48-3.84,6.83-4.44,7.99-9.61l2.11-.65-2.37,3.84c.31,2.47-1.63,1.45-3.54,3.72ZM31.74,25.79c.23,1.07-.75,2.48-2.09,2.54l1.19-1.96c.25-.42-.61-1.34-1.21-1.47-.37-.08-.44.93-.47,1.72-.08.08-.71-.27-.9-.57s.28-1.37.68-1.58c.73-.38,2.55.11,2.81,1.32Z"/>
      <path d="M13.06,21.47c1.1.37,4.99-1.16,8.66,2.76,4.15-3.98,5.24-2.01,9.46-3.1-2.93-2.02-6.55-.94-9.44,1.16-5.07-3.92-10.42-1.42-8.68-.83Z"/>
    </g>
  </g>
</svg>