<?xml version="1.0" encoding="UTF-8"?>
<svg id="Warstwa_2" data-name="Warstwa 2" xmlns="http://www.w3.org/2000/svg" viewBox="0 0 49.88 48.87">
  <g id="game-icon-v5-divine-pixarts-store">
    <g id="game-icon-v5-divine-pixarts-store_168">
      <path d="M37.32,26.98c.36-2.71,1.79-5.01,4.97-5.23-.77-1.13-1.75-2.4-2.87-3.29-1.62-1.29-3.88-.61-5.15.67l-3.05,3.08c-2.1,2.12-4.99,1.53-6.69-.67-1.26-1.63-2.66-3.59-4.41-4.67C12.57,12.22,7.27,12.99.7,2.8-.14,7.9,3.24,11.44,6.75,14.28c-2.65-.68-4.43-2.62-6.71-4.65-.6,4.67,5.2,7.89,8.66,10.02-2.68-.47-4.85-1.82-7.27-3.02,1.26,3.89,4.83,5.93,8.68,6.73.86.18,1.51.41,2.13.98l-6.82-.83c2.23,3.29,5.69,3.58,9.41,4.23l-3.98.86c2.24,1.6,4.57,1.58,7.47,1.51l-2.34,1.1c2.18.75,4.24.08,6.71-.5-.97.97-1.84,1.74-2.51,2.64-4.02,5.39-10.43,5.1-16.49,6.34,1.78,2.28,3.78,1.52,6.29,1.77l-3.76,2.05c1.03,1.01,2.55,1.39,3.77.97l3.92-1.36-3.73,3.14c2.34,1.06,4-.3,5.75-1.48l-.23,2.69c5.2-1.93,3.08-9.36,9.97-9.51,6.39-.13,10.81-4.72,11.64-10.99Z"/>
      <path d="M25.7,20.85c.67,1,1.95,1.72,3.12,1.46.9-.2,2.02-1.43,2.14-2.66.19-2.06-.78-3.91-1.91-5.56-2.91-4.26-4.88-8.81-4.83-14.09-2.85,2.49-1.64,5.52-1.77,9.18l-1.8-4.33c-1.36,2.61-.38,4.9.19,7.95l-1.75-1.82c-.59,5.39,1.8,2.69,6.61,9.88Z"/>
      <path d="M41.03,13.96c-.43,1.75,1.46,4.09,3.82,3.66-.91,5.49-5.1,5.72-4.43,9.37,2.71-5.6,6.27-6.04,5.36-14.39,1.01-.6,2.32-1.41,2.54-2.21.24-.88.08-2.41-.19-2.97-2.36,1.24-1.9,2.77-2.21,5.05l-1.06-2.87c.16,2.78.33,5.19.2,7.99-.81-1.76-1.65-3.85-4.04-3.64Z"/>
      <path d="M41.89,3.95c-.47,2.2.48,4.1,2.64,5.41.84-2.2-.36-4.62-2.64-5.41Z"/>
      <path d="M32.29,12.32c.02.31,1.33.36,1.48.07l3.47-7.05c-1.13,1.1-5.02,5.75-4.95,6.98Z"/>
      <path d="M49.69,19.16c-2.05-.96-4.26-.03-4.68,2.21,2.09.72,3.88-.51,4.68-2.21Z"/>
      <path d="M49.83,13c-1.85-.02-4.21,2.19-3.13,3.78,2,.34,3.5-2.19,3.13-3.78Z"/>
      <path d="M44.76,12.4c-.96-2.15-2.52-2.72-4.45-2.73.3,2.15,2.52,3.68,4.45,2.73Z"/>
      <path d="M24.03,42.36l.58,6.51c.77-2.89.82-5.04,1.09-8.13l-1.2.15c-.23.03-.5,1.14-.48,1.47Z"/>
      <path d="M16.54,12.17c.86-1.16-3.31-5.67-4.25-6.7.3,1.02,3.36,7.9,4.25,6.7Z"/>
      <path d="M4.64,35.7c2.72-.9,4.63-1.78,7.17-2.94.07-3.07-6.93,2.6-7.17,2.94Z"/>
      <path d="M33.92,39.08c-.25-.22-1.13-.79-1.25-.48l-.42,1.15,4.06,4.97-2.38-5.64Z"/>
      <polygon points="39.35 31.75 38.61 33.33 45.61 36.1 39.35 31.75"/>
      <path d="M28.37,40.44c-.02.21-.07.94.02,1.17l2.27,6c-.14-2.71-.67-5.49-1.03-6.99-.08-.33-1.23-.46-1.25-.17Z"/>
      <path d="M41.45,40.8c-1.13-1.61-4.02-5.54-5.35-4.81-1.02.57,4.79,4.8,5.35,4.81Z"/>
      <path d="M28.93,10.04c.22.01.55.06.74.09.35.06,1.66-6.13,1.47-7.07l-2.45,5.76c-.14.33-.04,1.2.24,1.22Z"/>
      <path d="M48.12,29.93l-5.1-1.52c-.62-.18-1.7.22-2.41.98,2.78.54,5.04.78,7.51.54Z"/>
      <path d="M1.21,29.89c2.43.25,4.59-.05,6.94-.45.5-2.2-6.13.18-6.94.45Z"/>
      <path d="M35.48,15.56c1.03-.22,3.46-2.55,3.93-3.9-1.27-.26-5.94,4.33-3.93,3.9Z"/>
    </g>
  </g>
</svg>