<?xml version="1.0" encoding="UTF-8"?>
<svg id="Warstwa_2" data-name="Warstwa 2" xmlns="http://www.w3.org/2000/svg" viewBox="0 0 37.37 52.29">
  <g id="game-icon-v5-divine-pixarts-store">
    <g id="game-icon-v5-divine-pixarts-store_70">
      <path d="M16.61,34.49c.99.48,2.59,1.73,2.1,2.76-.33.69-1.36,1.83-.72,2.44,1.2,1.14,2.98,1.12,4.42.46.78-.35.84-1.49.42-2.16-.34-.54-.63-1.2-.53-1.59.5-1.89,9.16-3.07,9.56-14.25-6.09,2.55-16.92,2.56-22.85-.07.36,5.23,2.9,10.12,7.6,12.41ZM12.57,24.46c.3,0,.4.68.5,1.14.54,2.43,1.78,4.42,3.1,6.5-3.13-1.47-4.25-4.59-4.97-7.61l1.37-.02Z"/>
      <path d="M22.03,41.39l-2.94.19c-.28,3.67-1.56,6.13-4.43,7.93l4.76,1.1c-2.17.42-4.27.01-6.21-.88l2.42-2.14c-1.86.29-3.2,1.08-4.38,2.33,2.07,4.03,20.64,2.2,18.17-.22-2.96-2.9-6.93-1.41-7.4-8.31Z"/>
      <path d="M14.56,16.56c.41,1.38,2.12,2.67,3.56,3.07-1-1.16-1.76-2.54-1.61-3.83.13-1.17,1.24-2.64,2.48-3.11l6.7-2.51c2.5-.94,3.78-3.6,3.23-6.04C28.45,2.01,26.65.06,24.02,0c-1.32-.03-2.82.8-3.45,1.69-.79,1.12-1,2.73-.35,3.99.23.45,1.28,1.06,1.77,1.16.41.08,1.13-.46,1.49-1.05-1.21.22-1.88-.09-2.24-.78-.66-1.26-.22-2.65,1.05-3.13,1.22-.46,2.83.03,3.52.89.82,1.03.89,2.66.22,3.79-1.73,2.92-5.74,2.77-9.39,4.89-1.82,1.06-2.68,3.06-2.07,5.11Z"/>
      <path d="M10.1,18.85l1.49-1.04-1.34.19c-.63.27-1.44,1.21-1.41,1.82.03.52.82,1.51,1.4,1.7,6.67,2.18,13.63,2.12,20.37.16.76-.22,1.54-1.14,1.52-1.75-.06-2.26-4.94-3.13-6.07-2.46,1.87.42,3.56.34,5.08,1.7-2.79,3.64-23.87,1.65-21.04-.33Z"/>
      <path d="M19.14,17.74c.28.83,1.23,1.67,2.31,1.88-3.19-8.25,9.89-4.17,11.33-9.99.41-1.68.33-3.85-1.41-4.57,2.23,7.98-6.61,5.75-11.28,9.54-.85.69-1.28,2.17-.95,3.15Z"/>
      <path d="M4.2,11.05c-1.25,3.55-.1,3.5-4.2,4.79l2.78.89c.54,1.15,1,2.48,1.41,3.71.28-3.05,1.5-4.22,4.12-4.64-2.88-.52-3.85-1.92-4.11-4.76Z"/>
      <path d="M35.75,36.58c-2.19-.56-3.12-1.71-3.49-3.61-.38.96-.69,2.42-1.32,2.68l-2.25.94c3.22.83,2.26.43,3.62,3.22.25-1.99,1.4-3.14,3.44-3.24Z"/>
      <path d="M34.15,12.88c-4.19,2.19-6.35,1.06-9.79,2.86-1.21.63-1.82,2.19-1.23,3.3,1.55-5.9,8.04-.95,11.02-6.15Z"/>
      <path d="M11.49,16.55c.24,1.42,1.61,2.42,3.28,2.69-2.08-1.7-2.97-4.17-1.48-6.91-1.88.72-2.08,2.57-1.8,4.21Z"/>
      <path d="M3.33,30.12c1.25.42,1.98,1.5,2.26,2.67.43-1.7,1.08-2.39,2.18-2.82-1.26-.28-1.93-1.24-2.1-2.53-.44,1.21-1.23,2.31-2.34,2.68Z"/>
      <path d="M10.32,7.07c-.44.64-1.16,1.51-1.44,1.71l1.39,1.79,1.47-1.78c-.46-.25-1.23-1.21-1.43-1.72Z"/>
      <polygon points="15.72 3.55 14.56 5.39 15.69 7.12 16.93 5.4 15.72 3.55"/>
      <polygon points="37.37 18.08 35.96 16.8 34.58 18.17 35.86 19.56 37.37 18.08"/>
    </g>
  </g>
</svg>