<?xml version="1.0" encoding="UTF-8"?>
<svg id="Warstwa_2" data-name="Warstwa 2" xmlns="http://www.w3.org/2000/svg" viewBox="0 0 51.05 51.92">
  <g id="game-icon-v5-divine-pixarts-store">
    <g id="game-icon-v5-divine-pixarts-store_49">
      <path d="M29.02,13.84l-1.39,2.64.68-6.66-1.64,6.01-1.4-12.33-.81,11.87c-.71-1.43-1.04-2.59-1.51-4.12l.21,4.86-1.26-3,.05,3.05-3.4-5.64,1.85,5.57c-.36.14-.96.47-1.18.27l-1.14-1.09,1.23,2.54c-.64-.07-1.45-.4-2.01-.9l-7.96-7.01,8.45,9.91-2.43-.63c.72.56,1.57,1.25,1.02,1.99l-6.27-2.18,6.02,3.63-2.43.02,2.02,1.03-5.27-.28c1.65.47,2.99.76,4.74,1.55l-11.7.63c-.2.59-.16.83.35.54l11.38.79c-2,1-3.78,1.24-5.87,1.86l6.85-.48-4.23,1.52,4.02-.49-6.65,3.86c2.18-.54,3.98-1.37,6.06-2.02.95-.3,2.13-.42,2.82-1.14l5.05-5.29c.39-.41.86-1.44,1.37-1.83,7.39-5.46,2.5-2.78,5.75-7.38,1.19-1.69,1.92-3.94,2.31-6.07l-3.88,6.89.2-2.49Z"/>
      <path d="M32.46,22.37c-1.88.9-2.71,3.47-4.35,4.75l-2.42,1.89-5.56,5.93c1.07,2.2-1.39,3.82-1.19,5.97l3.09-5.29.25,1.93.99-1.61-.33,4.9,1.55-4.82.74,11.39c1.05-.6.54-8.91,1.42-11.52l1.65,5.97-.54-6.19,1.2,2.94c-.07-1.1-.12-1.87-.03-3.02l4.23,7.45-2.62-7.25.91-.69,1.19,1.28c-.3-1.11-.65-1.4-.31-2.54l8.84,7.64-7.95-9.37c1.72.4,2.53,1.05,3.73,1.6l-3.1-2.7c2.12-.64,4.95,1.89,7.02,1.7l-6.4-3.48,2.63-.21-2.27-.93,7.07.68-6.44-1.76,12-.98-11.8-1.31,5.75-1.66-5.66.47,2.83-1.24-4,.56,6.1-3.82c-3.8.37-6.13,4.04-8.22,3.35Z"/>
      <path d="M34,13.5c.04,1.37-.12,2.41-1.27,3.44l1.63,1.69c1.98-1.19,3.8-1.29,6.11-1.18L51.05,0l-15.5,9.71c-1.37.86-1.98,2.06-1.55,3.79ZM36.59,12.28c3.06-2.4,5.9-4.57,9.06-6.74-2.44,3.62-4.71,6.66-7.31,10.01-.65.84-2.52,1.45-3.37,1.85,2.73-2.56,5.1-5,7-8.15-2.94,1.63-4.96,4.1-7.58,6.81.18-1.28,1.11-2.94,2.2-3.79Z"/>
      <rect x=".79" y="35.39" width="28.42" height="2.42" transform="translate(-21.57 21.53) rotate(-45.31)"/>
      <path d="M30.44,21.57l-.85-1.37-2.51,2.58c.56.59,1.11,1.15,1.49,1.27.35.11,2.26-1.86,1.88-2.48Z"/>
      <path d="M2.13,47.88c-1.14,1.5-1.73,2.33-2.13,4.04l4.06-2.19-1.93-1.86Z"/>
      <path d="M33.23,18.71l-1.48-.56-.05-1.53c-.83.61-1.43,1.79-.94,2.43.34.44,1.32,1.39,1.72,1,.38-.36,1.04-1.24.74-1.35Z"/>
    </g>
  </g>
</svg>