<?xml version="1.0" encoding="UTF-8"?>
<svg id="Warstwa_2" data-name="Warstwa 2" xmlns="http://www.w3.org/2000/svg" viewBox="0 0 50.18 50.62">
  <g id="game-icon-v5-divine-pixarts-store">
    <g id="game-icon-v5-divine-pixarts-store_132">
      <path d="M39.78,22.61c.02-.72-.67-2.02-1.33-2.02l-8.82.02-.12-9.98-9.03-.05-.29,10-9.81.18c-.13,3.53-.11,5.84.12,9.13l9.75.23.14,10.01,8.03.15c.52,0,1.15-1.18,1.15-1.67v-8.55s9.95-.15,9.95-.15l.25-7.29Z"/>
      <path d="M7.83,25.21c.03-.2-.6-.73-.83-.73l-6.07.03c-.35,0-1.14.92-.89,1.11.19.14.77.49,1.01.5l5.67.06c.33,0,1.06-.66,1.11-.97Z"/>
      <path d="M13.07,13.02c-.05-.29-.27-1.11-.48-1.32l-4.08-4.04c-.24-.23-1.39-.39-1.35-.09.02.2.07.98.22,1.12l4.31,4.31c.23.23,1.43.3,1.38.01Z"/>
      <path d="M12.85,38.57c.22-.21.19-1.47-.1-1.4-.19.04-.95.11-1.09.25l-4.42,4.54c-.14.14-.07,1.28.14,1.21.21-.07.96-.22,1.12-.37l4.35-4.24Z"/>
      <path d="M42.57,7.44c-.25,0-1.11.11-1.3.3l-3.97,3.91c-.22.22-.35,1.04-.35,1.33,0,.29,1.2.16,1.43-.08l4.01-4.14c.26-.27.52-1.33.18-1.33Z"/>
      <rect x="1.87" y="32.57" width="7.47" height="1.64" transform="translate(-12.22 4.6) rotate(-22.23)"/>
      <path d="M18.22,9.35c.14.11.71-.78.63-.98l-2.35-5.72c-.13-.32-1.07-.77-1.21-.51-.1.19-.28.91-.19,1.1l2.28,5.46c.07.17.7.53.84.65Z"/>
      <path d="M38.36,37.58c-.26-.26-1.19-.38-1.28-.06-.07.24.04,1.1.22,1.28l4.23,4.08c.2.2,1.33.28,1.3.01-.03-.27-.2-1.01-.41-1.23l-4.05-4.08Z"/>
      <path d="M15.6,48.54c.21-.14.82-.67.94-.98l2.34-5.7c.1-.24-.93-.96-1.08-.74-.1.15-.49.65-.57.84l-2.18,5.23c-.14.32.26,1.54.54,1.36Z"/>
      <rect x="29.25" y="4.76" width="7.61" height="1.59" transform="translate(15.04 33.82) rotate(-67.04)"/>
      <rect x="32.34" y="41.09" width="1.58" height="7.58" transform="translate(-14.55 15.93) rotate(-22.3)"/>
      <path d="M2.6,16.61l5.51,2.49c.21.1,1.29-.44,1.18-.63-.12-.19-.49-.83-.69-.91l-5.2-2.23c-.26-.11-.91.01-1.16.08-.25.07.13,1.09.36,1.2Z"/>
      <path d="M42.02,18.94l5.38-2.4c.23-.1.7-1.11.44-1.17-.17-.04-.79-.23-.96-.16l-5.47,2.32c-.26.11-.57.85-.62,1.12-.04.21,1.02.37,1.23.28Z"/>
      <path d="M47.16,33.67l-4.91-2.09c-.28-.12-.96.02-1.22.09-.26.07.14,1.16.39,1.26l5.86,2.3c.19.07.9-.93.73-1.04-.17-.1-.64-.44-.85-.53Z"/>
      <rect x="24.19" y="42.83" width="1.59" height="7.79"/>
      <path d="M49.13,24.52l-5.83.02c-.3,0-1.15.41-1.01.66.13.25.82.89,1.09.89h5.71c.32,0,1.21-.61,1.07-.85-.14-.24-.73-.72-1.03-.72Z"/>
      <rect x="24.19" width="1.59" height="7.72"/>
    </g>
  </g>
</svg>