<?xml version="1.0" encoding="UTF-8"?>
<svg id="Warstwa_2" data-name="Warstwa 2" xmlns="http://www.w3.org/2000/svg" viewBox="0 0 50.77 44.55">
  <g id="game-icon-v5-divine-pixarts-store">
    <g id="game-icon-v5-divine-pixarts-store_86">
      <path d="M13.69,32.62c-1.79-4.4-.79-8.4,2.64-11.63-3.62.21-5.56,3.01-6.13,6.32-2.03-2.09-3.86-4.39-4.47-7.12-1.02-4.56,2.52-8.3,7.06-9.04-3.74-1.79-7.5,1.56-9.18,5.19-.01-2.8,1.37-5.46,3.72-6.8,2.62-1.5,5.3-1.1,8.04.46-.17-1.25-1.07-2.4-2.23-2.98-2.63-1.31-5.27-.74-7.96.79,1.52-2.93,4.67-3.96,8-4.16,5.62-.34,10.43,3.39,12.52,8.91,1.46-4.28,4.77-8.01,9.68-8.6,3.09-.37,5.48,1.03,7,3.21.49,0,1.13-.15,1.1.13-.61,5.02.14,5.83-3.68,10.59,2.28-.52,3.87-2.36,4.61-4.31,1.2-3.18-.23-5.92-1.88-8.93,4.45,2.11,5.21,7.64,2.47,11.48-1.76,2.46-4.59,3.74-7.56,4.44l-9.67,2.29c-1.34.32-2.65,1.27-3.34,2.53,5.74-3.07,9.2-.58,16.04-2.23,6.4-1.55,10.65-7.1,10.13-13.64-1.23-4.88-5.09-8.49-10.12-9.27-6.24-.98-12.13,2.33-14.9,8.09C22.57,1.76,15.43-1.59,8.71.74,2.97,2.72-.39,8.41.04,14.41c.64,8.97,7.01,13.36,13.65,18.21Z"/>
      <path d="M39,25.12c-4.61.51-7.79-.19-10.64.93l5.65.81c2.53.36,4.83.23,7.51.13l-8.51,6.75c-1.04-3.57-3.4-3.32-6.37-3.02l2.76,1.53c1.59.88,1.11,3.4-.06,4.26-1.51-5.24-4.39-2.46-7.03-7.78-.75,4.96,6.59,6.23,3.58,12.57-1.5-5.74-10.73-6.19-7.78-14.25.08,3.92,1.59,7.18,5.18,8.51-.84-1.13-1.78-2.34-2.4-3.69-1.43-3.15-.24-6.74,2.54-8.76,4.24-3.09,8.75-1.83,13.22-5.35,2.48-1.96,3.56-5.45,1.9-8.28-1.44-2.45-5.12-3.15-7.22-1.49,1.11.28,2.24.52,2.99.91.63.33,1.15,1.95,1,2.78-1.23,7.04-12.15,6.47-17.17,10.08-3.96,2.85-4.77,8.06-1.82,11.95,2.74,3.62,6.71,5.72,9.3,10.83,5.61-10.94,23.05-15.17,25.13-27.15-2.77,4.26-6.74,7.16-11.77,7.72Z"/>
      <path d="M10.82,21.7c1.63-1.33,3.29-2.48,5.4-2.58,3.19-.14,6.1-.79,8.78-1.73-5.4-.61-12.14-1.63-14.18,4.3Z"/>
      <path d="M14.03,5.32c2.08,1.68,3.7,2.81,6.1,3.33-1.18-2.62-3.72-3.35-6.1-3.33Z"/>
      <path d="M41.11,10.85c.38-1.37,0-2.86-1.01-3.87-.92-.93-2.44-1.36-3.73-1.36,2.48,1.24,3.88,2.75,4.74,5.23Z"/>
      <path d="M8.84,19.68c.26-1.98.31-3.25.26-4.78-2.13,1.21-1.68,3.73-.26,4.78Z"/>
      <path d="M19.07,13.55c1.39-.71-.03-3.37-1.18-3.5-.65.76-.37,3.76,1.18,3.5Z"/>
    </g>
  </g>
</svg>