<?xml version="1.0" encoding="UTF-8"?>
<svg id="Warstwa_2" data-name="Warstwa 2" xmlns="http://www.w3.org/2000/svg" viewBox="0 0 50.81 50.37">
  <g id="game-icon-v5-divine-pixarts-store">
    <g id="game-icon-v5-divine-pixarts-store_75">
      <polygon points="28.38 22.09 25.08 0 21.98 21.98 0 25.24 21.98 28.34 25.12 50.37 28.39 28.35 50.81 25.19 28.38 22.09"/>
      <path d="M29.55,30.67c-.09.83.26,1.47.99,2.07l11.08,8.95c-3.22-4.45-6.26-8.08-9.65-11.88-.55-.62-2.34.14-2.43.86Z"/>
      <path d="M20.55,20.13c.23-.35.27-1.57-.11-1.88l-11.73-9.51c3.1,4.4,6.51,8.23,9.91,12.14.73-.01,1.66-.34,1.93-.75Z"/>
      <path d="M20.69,31.92c.52-.42-.31-2.27-.92-2.31-.59-.04-1.57.21-1.99.72l-9.27,11.45,12.18-9.86Z"/>
      <path d="M29.84,18.4c-.55.46-.22,1.95.35,2.13.68.21,1.83.14,2.32-.47l9.14-11.32c-4.22,2.99-7.82,6.25-11.82,9.66Z"/>
      <path d="M20.95,13.67l-3.09-5.72c.86,3.37,1.68,5.99,2.93,9.03.84-1.09.69-2.32.16-3.3Z"/>
      <path d="M36.4,29.21c-.86-.45-2.14-.34-2.91.5,2.97,1.11,5.64,1.91,8.81,2.57l-5.9-3.07Z"/>
      <path d="M29.81,16.89c1.04-3.11,1.71-5.42,2.35-8.33-.65,1.31-5.09,7.7-2.35,8.33Z"/>
      <path d="M29.47,36.95l2.63,5.07c-.48-2.87-1.23-5.39-2.36-8.33-1.38.74-.8,2.24-.27,3.26Z"/>
      <path d="M9.17,31.9c2.84-.42,5-1.11,7.52-2.19-1.23-2.22-6.26,1.48-7.52,2.19Z"/>
      <path d="M20.78,33.64c-1.25,2.83-1.98,5.36-2.57,8.44l3.04-5.89c.3-.58,0-1.93-.47-2.55Z"/>
      <path d="M16.77,20.74c-3-1.12-5.17-1.84-7.98-2.41,1,.67,7.44,4.83,7.98,2.41Z"/>
      <path d="M41.39,18.37c-2.98.64-5.1,1.33-7.84,2.32,1.14,2.3,7.12-1.89,7.84-2.32Z"/>
    </g>
  </g>
</svg>