<?xml version="1.0" encoding="UTF-8"?>
<svg id="Warstwa_2" data-name="Warstwa 2" xmlns="http://www.w3.org/2000/svg" viewBox="0 0 46.11 45.42">
  <g id="game-icon-v5-divine-pixarts-store">
    <g id="game-icon-v5-divine-pixarts-store_23">
      <path d="M45.83,31.3c-.78-.47-2.77-.21-3.75.45-2.64,1.77-5.29,3.12-7.46,4.98-1.57,1.34-2.45,2.78-4.96,2.64l-10.61-.6c1.65-3.09,12.94,1.38,13.71-2.43.51-2.51-4.86-2.65-6.76-2.82-6.9-.63-9.17-6.15-18.12-1.56l-7.88,4.04,4.83,8.48,4.65-2.16c.73-.34,2.47-.35,3.28-.13l11.63,3.11c1.16.31,2.94.1,3.97-.45,12.35-6.51,6.79-2.82,17.42-11.54.36-.3.47-1.73.04-1.99Z"/>
      <path d="M22.89,22.88l.17,6.16,5.73-.04.07-6.1,5.95-.19c.07-2.13.06-3.76-.08-5.67l-5.89-.13-.1-5.97-5.69-.03-.16,6.03-5.92.14.02,5.66,5.89.14Z"/>
      <path d="M34.73,34.93l7.52-4.9c-1.83-2.17-7.27,2.47-8.88,3.59-.11.48.99,1.56,1.37,1.31Z"/>
      <path d="M32.86,32.63l4.2-2.98c-2.7-.86-4.63,1.35-6.53,2.81.75.33,1.89.48,2.33.17Z"/>
      <path d="M34.36,11.22c.32,1.38,4.77-4.5,4.73-4.64-1.56.82-5.07,3.14-4.73,4.64Z"/>
      <path d="M17.36,11.03c-.18-1.26-3.9-4.11-5.13-4.64-.05.32,5.46,6.98,5.13,4.64Z"/>
      <path d="M21.29,7.07l-2.85-5.36c1.47,8.66,3.8,7.16,2.85,5.36Z"/>
      <path d="M6.65,19.98l6.09.69c.55.06,2.8-2.67-6.09-.69Z"/>
      <path d="M26.52,6.51l-.77-6.51-.67,6.49c-.03.28.54.94.7,1.1.16.16.77-.83.74-1.08Z"/>
      <path d="M33.09,2.1l-2.78,5.06c-.47.85,1.06,4.24,2.78-5.06Z"/>
      <path d="M14.59,14.96l-.66-.98-5.19-1.32,4.63,2.79c.27.17,1.39-.25,1.22-.49Z"/>
      <path d="M39.58,19.17c-.34-.05-1.31.61-1.1.79l.85.74,6.03-.76-5.77-.78Z"/>
      <path d="M42.76,12.68c-2.04.42-3.45.89-5.53,1.61-.73,3.15,4.86-1.24,5.53-1.61Z"/>
      <path d="M38.58,24.52c-.27-.16-1.05-.01-1.29.08-.25.09.36.97.67,1.07l5.2,1.62-4.59-2.76Z"/>
      <path d="M14.29,24.54c0-.2-.99-.12-1.17,0l-3.61,2.36,4.78-1.41v-.94Z"/>
    </g>
  </g>
</svg>