<?xml version="1.0" encoding="UTF-8"?>
<svg id="Warstwa_2" data-name="Warstwa 2" xmlns="http://www.w3.org/2000/svg" viewBox="0 0 57.32 58.49">
  <g id="game-icon-v5-divine-pixarts-store">
    <g id="game-icon-v5-divine-pixarts-store_27">
      <path d="M43.91,33.17l.02-7.83c0-.43-.58-1.08-1.03-1.08h-9.26s0-9.2,0-9.2c0-.58-.67-1.14-1.3-1.13l-7.8.04c-.39,0-.79.9-.79,1.23v9.05s-9.32.02-9.32.02c-.48,0-1.04.63-1.04,1.08l.02,7.81c0,.45.57,1,1,.99l9.31-.04.02,9.5c0,.53.66.98,1.15.98h7.81c.28-.01.9-.7.9-.99v-9.45s9.23,0,9.23,0c.43,0,1.06-.56,1.06-.97Z"/>
      <path d="M17.34,35.91c-2.09,1.42-3.8,2.75-5.66,4.35l6.52-3.45-10.02,12.71,12.58-9.97-3.23,6.23c1.73-2.03,3.06-3.85,4.48-5.96.3-.67.08-2.24-.05-2.99-2.48,2.08-4.5,4.18-7.33,6.15l6.11-7.14c-.82-.09-2.66-.42-3.39.07Z"/>
      <path d="M49.14,49.48c-3.07-4.36-6.46-8.23-9.89-12.53l6.36,3.25-5.57-4.41c-.95-.08-2.29-.05-3.35,0,2.03,2.5,4.07,4.33,5.81,6.98-2.59-1.87-4.69-3.95-7.18-6.04-.05.91-.35,2.62.2,3.36l4.27,5.78c-.72-2.35-2.33-3.94-2.88-6.14l12.23,9.76Z"/>
      <path d="M40.03,22.6c1.93-1.33,3.57-2.58,5.25-4.01-2.33.73-3.8,2.15-5.98,2.98l9.69-12.43-12.17,9.69,2.95-6.14-4.49,6.04.04,3.05,2.69-2.34c1.62-1.41,3.01-2.93,4.75-3.99l-5.89,7.19c.88.11,2.44.25,3.17-.03Z"/>
      <path d="M22.06,18.7c-1.41-2-2.67-3.71-4.22-5.56.49,2.33,2.36,3.5,2.64,5.69l-12.27-9.82,9.91,12.64c-2.26-1.09-4.07-2.42-6.46-3.42l5.72,4.39c.73.3,2.4.1,3.2-.05-2.1-2.47-4.05-4.53-6.01-7.14,2.63,1.91,4.89,4.07,7.46,6.36.09-.84.17-2.28.04-3.08Z"/>
      <path d="M27.79,12.4c.18-.08.35-.5.4-.72l.47-3.64.48,3.96.63.38c.16.1.36-.51.32-.77l-1.44-11.62c-.7,4.02-1.04,7.66-1.49,11.66-.03.26.41.84.63.73Z"/>
      <path d="M29.47,46.16c-.12.14-.31.5-.34.72l-.47,3.89-.48-4.14c-.02-.19-.43-.6-.6-.51-.17.09-.4.54-.37.82.39,3.62.84,7.65,1.48,11.55l1.47-11.8c.03-.23-.57-.67-.69-.53Z"/>
      <path d="M45.5,28.07c.01.15.33.66.48.69l3.07.49-2.95.46c-.22.03-.54.36-.63.53-.08.17.5.48.76.45l11.09-1.45-11.16-1.46c-.25-.03-.68.11-.66.31Z"/>
      <path d="M11.48,29.75l-3.09-.47,2.86-.47c.23-.04.54-.35.64-.52.09-.17-.52-.55-.73-.53l-11.16,1.45,11.41,1.49c.35.05.35-.92.07-.96Z"/>
      <path d="M38.38,6.39c-2.49,2.71-1.25,3.63-3.88,6.34.37.92.69,2.07.9,3.23,2.77-4.29,1.53-4.62,2.98-9.57Z"/>
      <path d="M35.4,42.54l-.79,3.29c2.62,2.79,1.57,3.41,4.03,6.84l-1.26-5.91c-.31-1.45-1.35-3-1.98-4.22Z"/>
      <path d="M18.98,6.2c.47,1.96.83,3.41.88,5.25.62,1.68,1.41,3.35,2.19,4.9.11-1.37.34-2.48.88-3.62-2.78-2.29-1.55-3.99-3.95-6.53Z"/>
      <path d="M20.01,46.83l-1.18,5.37c2.27-2.54,1.35-3.65,3.82-6.45l-.74-3.2c-.69,1.29-1.58,2.83-1.9,4.27Z"/>
      <path d="M46.42,37.5c1.85.21,3.35.65,5.24,1.07-1.65-1.3-3.3-2.03-5.03-2.91l-1.47-.75c-.92.5-1.59.75-2.56.98,1.1.85,2.43,1.46,3.82,1.62Z"/>
      <path d="M9.78,36.16c-1.58.79-2.98,1.67-4.4,2.69,4.39-1.56,5.95-.77,9.52-2.94-1.15-.27-1.99-.54-2.8-.9l-2.32,1.16Z"/>
      <path d="M9.24,20.7c-1.27-.16-2.48-.71-3.79-.98,2.6,2.25,4,2.15,6.64,3.84.7-.41,1.61-.8,2.69-1.05-1.61-1.1-3.48-1.54-5.54-1.8Z"/>
      <path d="M51.88,19.75l-3.55.91c-2.08.54-4.08.7-5.78,1.87,1.08.2,1.91.57,2.65,1.05,2.43-1.72,4.1-1.73,6.68-3.84Z"/>
      <path d="M50.04,12.79l-.78,1.98-1.83.81c1.58.19,2.3.95,2.54,2.43.97-2.24.11-1.59,2.59-2.56-1.54-.23-2.28-1.02-2.51-2.66Z"/>
      <path d="M10.07,43.43c-2.15-.76-1.86-.06-2.76-2.52-.19,1.58-1.07,2.27-2.48,2.49.7.26,1.71.44,1.88.86l.62,1.51c.42-.92.58-1.75,1-1.86l1.74-.47Z"/>
      <path d="M7.94,17.64c.15-.53.34-1.5.72-1.73s1.16-.42,1.69-.57c-.6-.19-1.44-.41-1.79-.67-.34-.26-.43-1.17-.59-1.72-.29,1.45-.83,2.1-2.37,2.39,1.36.18,2.11.88,2.34,2.3Z"/>
      <path d="M49.59,45.2c.39-1.59,1.04-1.97,2.38-2.29-.51-.15-1.56-.27-1.74-.71l-.66-1.65c-.13.52-.18,1.6-.56,1.79l-1.4.69c1.28.22,1.89,1.01,1.98,2.17Z"/>
      <path d="M34.07,6.79c.12-.96.92-1.55,1.94-1.94-1.18-.13-1.77-.82-1.9-1.93l-.67,1.42c-.15.31-1.07.43-1.32.53,1.05.35,1.64.92,1.96,1.92Z"/>
      <path d="M23.24,51.32c-.23,1.1-1.1,1.61-2.17,1.75,1.17.31,1.93.74,2.18,1.62.49-1.03,1.04-1.3,1.96-1.61-.93-.18-1.56-.75-1.97-1.76Z"/>
      <polygon points="15.44 8.7 14.37 9.7 15.35 10.86 16.48 9.74 15.44 8.7"/>
      <path d="M32.84,12.2l.02-3.38c-.14.65-2.11,4.67-.02,3.38Z"/>
      <path d="M24.81,12.37c.06.14.73-.15.69-.3-.26-.94-.84-2.78-1.28-3.76l.35,3.35c.02.16.18.56.24.7Z"/>
      <path d="M24.8,46.17l-.3.4-.02,3.1,1.01-3.21c.03-.1-.63-.37-.69-.29Z"/>
      <path d="M11.75,32.49c.01-.12-.46-.15-.58-.11l-3.07.93h3.58s.07-.81.07-.81Z"/>
      <path d="M49.18,33.29l-3.24-.99c-.42-.13-1.54,1.45,3.24.99Z"/>
      <path d="M45.98,26.21l3.17-1h-3.32s-.3.6-.3.6c-.06.12.33.43.45.39Z"/>
      <path d="M32.75,46.25c-.28-.07-.96.1-.88.37l.98,3.26c.06-1.44,0-2.26-.1-3.63Z"/>
      <path d="M11.08,25.22l-2.99-.03,2.92.96c.19.06.76.08.75-.1v-.47c0-.12-.54-.35-.69-.36Z"/>
    </g>
  </g>
</svg>