<?xml version="1.0" encoding="UTF-8"?>
<svg id="Warstwa_2" data-name="Warstwa 2" xmlns="http://www.w3.org/2000/svg" viewBox="0 0 45.84 45.5">
  <g id="game-icon-v5-divine-pixarts-store">
    <g id="game-icon-v5-divine-pixarts-store_188">
      <path d="M19.49,15.78l-2.3,3.97,4.07-2.11,1.7,8.02,1.72-8.04,4.09,2.09-2.32-3.93,6.78-1.59-6.75-1.61,2.19-3.81-4.02,2.07-1.72-6.48-1.68,6.44-3.92-1.99,2.16,3.77-6.69,1.62,6.68,1.58ZM20.31,11.54l1.76.8.87-2.76.88,2.78,1.83-.74-.75,1.68,2.48.86-2.45.83.76,1.85-1.82-.8-.94,2.83-.89-2.81-1.84.82.82-1.89-2.41-.84,2.44-.8-.74-1.8Z"/>
      <path d="M17.02,42.34l11.95.02c-.53-.84-3.79-1.22-4.01-2.45-.45-2.53.56-2.92-1.05-5.47.32-.67.63-1.59.58-2.36l-.47-7.84-1.02,4.43-1.18-4.68-.44,8.09c-.05.83.26,1.7.67,2.35-1.65,2.36-.75,2.61-1.12,5.29-.23,1.67-3.26,1.64-3.9,2.61Z"/>
      <path d="M29.5,43.09h-13.39c-1.66,0-4.77.16-5.11,2.4h23.88c-.2-2.34-3.7-2.4-5.38-2.4Z"/>
      <path d="M21.8,5.54l1.17-3.14,1.08,3.13c.51-.36,1.01-1.44.66-2.11l-1.78-3.43-1.51,2.83c-.51.95-.46,2.01.38,2.72Z"/>
      <path d="M29.57,7.49c-1.78-.67-3.32-.53-4.93.32l.5,1.94,4.43-2.26Z"/>
      <path d="M21.24,7.72c-1.6-.68-3.17-.91-4.82-.21l4.36,2.23.45-2.02Z"/>
      <path d="M1.23,28.52c.07-.08.26-.32.33-.52l5.28-14.64,5.32,14.84c.06.17.63.45.64.33.01-.12.05-.44,0-.56l-5.65-15.9c5.22-.11,5.73-1.68,9.97-2.17l-1.25-2.39-4.96,2.29c-.7.32-1.75.58-2.47.62-.49-.89-.95-1.43-1.95-1.28-.57.08-1.22.66-1.32,1.44-.09.66.35,1.25,1.23,1.75L.76,28.24c-.05.13.39.38.48.28ZM6.15,10.79c0-.37.3-.68.68-.68s.68.3.68.68-.3.68-.68.68-.68-.3-.68-.68Z"/>
      <path d="M13.21,30.46l-12.6-.02c1.33,2.37,3.73,3.37,6.21,3.4,2.56.03,5.01-1.13,6.39-3.38Z"/>
      <path d="M.08,29.65c.12.09.49.22.7.22h12.55c.19-.01.59-.64.44-.72-.11-.07-.44-.24-.6-.24l-12.92.02c-.25,0-.33.61-.18.72Z"/>
      <path d="M33.02,27.88c-.08.22-.03.56,0,.69.03.12.52-.12.57-.27l5.42-14.92,5.31,14.79c.05.15.32.38.41.47.07.07.38-.26.29-.51l-5.55-15.68c.84-.61,1.31-1.1,1.25-1.87-.06-.77-.72-1.34-1.38-1.43-.9-.13-1.36.34-1.84,1.22-.83.04-2.01-.34-2.87-.74l-4.53-2.07-1.25,2.29c4.39.76,4.76,2.09,9.83,2.23l-5.67,15.8ZM38.42,10.78c0-.37.3-.68.68-.68s.68.3.68.68-.3.68-.68.68-.68-.3-.68-.68Z"/>
      <path d="M45.27,30.49c-1.25-.09-2.36-.06-3.54-.05l-9.06.02c1.34,2.25,3.66,3.32,6.13,3.37,2.59.05,5.07-.96,6.47-3.33Z"/>
      <path d="M32.2,29.69c.12.05.42.18.55.18l12.64.02c.41,0,.67-.96.18-.96l-13.2-.02c-.24,0-.32.71-.17.77Z"/>
    </g>
  </g>
</svg>