<?xml version="1.0" encoding="UTF-8"?>
<svg id="Warstwa_2" data-name="Warstwa 2" xmlns="http://www.w3.org/2000/svg" viewBox="0 0 42.22 49.58">
  <g id="game-icon-v5-divine-pixarts-store">
    <g id="game-icon-v5-divine-pixarts-store_146">
      <path d="M13.92,32.81c7.8,2.23,20.79,1.44,23.2-8.87l-31.84.02c1.22,4.39,4.44,7.65,8.64,8.85ZM9.24,25.63l3.65,4.84c-2.24-.85-4.05-2.75-5.05-5.07.32-.09,1.2-.04,1.4.23Z"/>
      <path d="M17.02,7.69c-1.84,3.38-1.96,7.63,1.82,9.59,2.22,1.15,4.67.48,6.14-.84,4.73-4.26-1.36-11.42-3.78-16.44l-4.18,7.69ZM17.3,13.29c-.5-1.99.34-4.09,1.38-5.71-.46,3.34-.88,5.86,1.64,8-1.48.28-2.65-.8-3.02-2.29Z"/>
      <rect x="3.91" y="20.42" width="34.52" height="2.38"/>
      <path d="M32.86,47.47c-.33-.17-1.1-.52-1.52-.52H10.87c-.58,0-1.39.43-1.64.79-.25.35-.1,1.84.43,1.84h22.94c.59,0,.66-1.89.25-2.11Z"/>
      <path d="M16.65,37.72c-.26,1.95-.5,3.23-.98,5.22,3.48.19,7.49.19,11.06-.03-.59-1.75-.9-3.38-1.11-5.21l-8.98.02Z"/>
      <path d="M12.05,45.88l18.14.02c-1.04-2.07-2.61-1.63-4.08-1.96l-10.43.1c-1.43.01-2.89.37-3.63,1.84Z"/>
      <path d="M27.63,35.51c.04-.26-.43-.9-.78-.88-3.21.21-8.18.23-11.36.05-.37-.02-.88.86-.71,1.15.12.22.82.82,1.17.82l10.37.03c.47,0,1.28-.83,1.32-1.18Z"/>
      <path d="M14.71,18.44c-.25-.78-1.23-1.44-2.18-1.52L0,15.87c4.81,1.35,9.49,2.15,14.71,2.56Z"/>
      <path d="M27.43,18.42c5.42-.43,9.91-1.06,14.79-2.5l-11.1.89c-1.41.21-2.83.51-3.69,1.61Z"/>
      <path d="M13.2,15.46c1.38-.98-9.55-5.22-10.45-5.25,3.25,1.91,6.57,3.66,10.45,5.25Z"/>
      <path d="M29.46,14.84c-.02.11-.05.36-.05.37-.08.57,8.98-3.88,9.31-4.51-1.31.06-9.12,3.35-9.26,4.14Z"/>
      <path d="M13.09,12.18c1.78-.57-5.34-6.01-5.96-6.18,1.71,2.29,3.72,4.25,5.96,6.18Z"/>
      <path d="M28.99,12.13c2.94-1.68,5.08-4.29,6.99-6.82-2.73,2.07-5.33,3.81-6.99,6.82Z"/>
      <path d="M13.86,6.2l-3.35-4.34c1.03,2.53,2.26,4.64,3.7,7.04.28-.91.14-2.06-.36-2.71Z"/>
      <path d="M28.45,8.49c1.51-2.37,2.45-3.85,3.32-6.29l-3.32,4.29c-.27.35-.24,1.42,0,2Z"/>
    </g>
  </g>
</svg>