<?xml version="1.0" encoding="UTF-8"?>
<svg id="Warstwa_2" data-name="Warstwa 2" xmlns="http://www.w3.org/2000/svg" viewBox="0 0 43.75 47.83">
  <g id="game-icon-v5-divine-pixarts-store">
    <g id="game-icon-v5-divine-pixarts-store_102">
      <path d="M14.76,39.1c3.93-4.72,7.19-6.45,6.09-13.37-1.35-8.42.97-10.2-.46-12.84-.22-.4-1.74-.58-1.93-.14-1.68,3.83-1.57,8.17-3.71,11.44l1.9-9.88c.31-1.6,1.46-2.27,2.47-3.43.68-.78,3.7-7,.99-7.48-3.3,4.31-5.18,9.2-7.18,14.17,0-5.27,4.39-12.13,7.45-15.72.3-.35.05-1.73-.38-1.82-.43-.08-1.43.26-1.67.65-3.64,5.84-7.8,11.7-9.14,18.81-.68,3.61,2.13,9.69-1.16,12.86l6.74,6.73Z"/>
      <path d="M24.71,11.09c.59.79,1.95,1.35,2.19,2.47l2.06,9.52.18.85c.03.13-.2.09-.3.02-.11-.08-.5-.57-.54-.72l-2.91-10.53c-.42-.4-2.01-.19-2.14.27-1.22,4.25,1.39,4.54-.38,12.88-.73,3.45.19,6.7,2.45,9.14l3.78,4.08,6.58-6.63c-3.14-3.75-.44-9.06-1.15-13.05-1.2-6.77-5.63-13.19-9.18-18.79-.29-.46-1.52-.8-1.86-.45-.29.3-.43,1.42-.15,1.72,3.62,3.85,7.48,10.95,7.66,16.08-2.07-5.27-4.13-10.06-7.22-14.56-2.87.52.14,6.67.91,7.71Z"/>
      <path d="M32.58,47.79l11.17-11.18-5.24-5.24-11.17,11.18,5.24,5.24ZM31.81,41.86c.62,0,1.12.5,1.12,1.12s-.5,1.12-1.12,1.12-1.12-.5-1.12-1.12.5-1.12,1.12-1.12Z"/>
      <path d="M0,36.66l11.23,11.17,5.21-5.24-11.23-11.17-5.21,5.24ZM12.01,41.89c.61,0,1.11.5,1.11,1.11s-.5,1.11-1.11,1.11-1.11-.5-1.11-1.11.5-1.11,1.11-1.11Z"/>
    </g>
  </g>
</svg>