<?xml version="1.0" encoding="UTF-8"?>
<svg id="Warstwa_2" data-name="Warstwa 2" xmlns="http://www.w3.org/2000/svg" viewBox="0 0 58.19 40.58">
  <g id="game-icon-v5-divine-pixarts-store">
    <g id="game-icon-v5-divine-pixarts-store_108">
      <path d="M.48,18.55c.57,4.38,6.45,6.76,10.17,6.83-.56-1.71-.94-2.5-1.54-3.31-3.35-.69-5.87-1.95-8.63-3.51Z"/>
      <path d="M58.12,12.03c-3.07,3.34-6.95,5.04-11.35,6.17-1.32.34-2.74,1.15-3.79,2.03.79,3.9-1.99,5.97-3.97,8.25-1.64,1.88-2.79,3.9-5.11,5.08-3.29,1.67-6.4,1.57-9.65-.11-2.33-1.2-3.46-3.17-5.06-5.02-2.1-2.42-4.53-4.53-3.87-8.39-5.77-3.65-9.45-1.85-15.16-8.15-1.49,6.24,8.66,9.96,8.98,9.48l.75-1.11,3.45,2.04-3.28-.22c1.14,1.79,2.38,2.39,4.01,3.47l-2.47.13c.85,1.83,2.51,2.19,4.18,2.71-.94.36-1.86.71-2.13,1.08,1.87,1.48,3.57,1.52,5.85,1.99-2.14,1.04-4.39,1.85-6.88,2.56,1.42,2.05,3.7,1.45,5.95,1.33l-2.26,1.95c2.26,1.3,3.82.13,5.94-.69l-1.92,2.51c1.59.89,2.98.05,4.51-1.06l-.23,2.51c2.08,0,3.36-1.43,4.56-3.46,1.06,1.97,2.39,3.63,4.61,3.31l-.55-2.61c1.56,1.17,2.89,2.48,4.79,1.39l-1.65-2.28c2.2.73,3.96,1.77,5.51.23l-2.79-2.12c2.65.46,4.93,1.2,6.43-.95l-6.65-2.59c2.44-.63,4.44-.41,6.01-2.36l-2.52-.69c2.21-.68,3.4-.91,4.29-2.61l-2.54-.4,2.42-1.34c.59-.33,1.25-1.5,1.32-2.03l-3.17.27,4.43-2.4c.07,1.26-.13,2.29-.85,3.45-.33.53-.31,1.89-.56,2.4-.43.84-1.45,2.24-1.78,3.15-.55,1.52-1.92,2.22-3.67,2.84,3.02,1.06,6.75.84,9.03-1.96l-4.93-.47c3.65-.56,6.97-1.2,8.94-4.65-2.33.52-4.35.96-6.79,1.01l5.13-2.01c2.04-.8,3.59-2.8,4.09-4.98-2.73,1.42-5.13,2.94-8.02,2.84,3.99-1.85,9.2-4.25,8.46-9.51Z"/>
      <path d="M25.93,16.73c-1.07-.96-3.43-.71-3.9.71-.47,1.4-.96,2.4-1.92,3.6-.84,6.13,3.24,12.96,9.63,12.33,2.41-.24,5.13-1.69,6.49-3.65,1.73-2.51,1.97-5.85,1.73-8.68-1.11-1.26-1.41-2.78-1.78-4.28-.29-.75-1.57-1.92-2.22-2.54l-2.85,1.38.55,1.56c-1.74,1.38-4.09,1.07-5.73-.41ZM25.22,24.17c-.46.14-1.3-.33-2.22-.67.52-1.14,2.17-1.6,3.63-.47-.23.29-1.02,1.02-1.41,1.14ZM35.16,23.24c-1.14,1.4-2.79,1.06-3.54-.02.76-1.04,2.74-.99,3.54.02ZM26.55,29.25c1.59-.28,3.2-.21,4.97.1-1.62,1.42-3.44,1.01-4.97-.1Z"/>
      <path d="M42.61,18.32c.65-3.07-2.44-2.87-2.19-5.54.22-2.33-2.69-3.68-4.38-4.87-2.48-1.77-3.88-2.81-7.05-2.77-2.94.04-4.36.92-6.65,2.65-1.58,1.19-4.4,1.29-4.29,4.59.03.92-.79,2.37-1.63,3.13-1.59,1.46-.81,3.86.99,4.98-.94,2.12-.48,4.36,1.77,5.69l-.36-4.19c-.04-.43-.05-.89-.26-1.04l-.9-.64c3.92-.11,2.36-4.92,4.4-5.17l3.53-.42c1.15,1.1,2.6,2.34,4.17,2.11l-.14-1.69c-.03-.34.77-.57,1.37-.89l3.43-1.82c.45,1.15,2.52,2.68,2.85,3.8,1.23,6.71,3.02.13,1.76,9.75,1.42.06,2.79-4.05,2.31-4.45l-1.33-1.07c1.67-.14,2.31-.82,2.6-2.15Z"/>
      <path d="M36.75,6.76c1.54.69,4.26-.84,3.67-2.94-.34-1.24-2.24-2.18-3.52-2.6-5.18-1.67-10.57-1.61-15.78.06-1.13.36-2.9,1.38-3.21,2.43-.58,1.96,1.67,3.64,3.36,2.98l-2.19-1.89c1.35-4.3,18.21-4.3,19.85-.23-.17.69-1.42,1.56-2.18,2.19Z"/>
      <path d="M10.02,26.02l-6.99-1.3c1.76,3.09,5.77,4.69,9.54,4.14-.6-1.08-1.67-2.67-2.55-2.83Z"/>
      <path d="M15.64,31.84c-5.64-3.29-.3-2.35-8.49-2.05,2.09,2.62,5.83,3.19,8.49,2.05Z"/>
    </g>
  </g>
</svg>