<?xml version="1.0" encoding="UTF-8"?>
<svg id="Warstwa_2" data-name="Warstwa 2" xmlns="http://www.w3.org/2000/svg" viewBox="0 0 43.7 44.97">
  <g id="game-icon-v5-divine-pixarts-store">
    <g id="game-icon-v5-divine-pixarts-store_26">
      <path d="M21.95,34.79c4.66-2.36,6.53-7.27,5.22-12.06-.88-3.21-2.81-5.82-5.3-8.25-2.27,2.41-4.01,4.79-5.06,7.68-1.79,4.92.26,10.34,5.14,12.63Z"/>
      <path d="M18.58,34.36c-3.01-3.16-4.32-6.48-3.65-10.94-2.61-1.86-4.97-3.13-8.01-3.98-.81,7.45,4.22,14.22,11.66,14.92Z"/>
      <path d="M37.05,19.52c-3.23.79-5.88,2.11-8.19,4.05.64,4.2-.52,7.47-3.53,10.81,7.32-1.09,12.27-7.4,11.72-14.87Z"/>
      <path d="M20.28,36.47c-1.2.58-3.69,1.79-3.3,3.56.53,2.38,3.19,3.49,4.95,4.94l4.1-3.15c.55-.42,1.12-1.77,1.08-2.34-.13-1.79-4.25-4.25-6.83-3.01Z"/>
      <path d="M37.73,25.66c-1.62,5.14-5.45,8.09-10.19,9.85,7.52.92,12.75-3.45,16.16-9.5-2.25-.41-3.97-.51-5.97-.35Z"/>
      <path d="M16.07,35.49c-4.88-1.83-8.46-4.91-9.99-10-2.1-.04-3.82.08-6.08.47,3.73,6.17,8.9,10.46,16.07,9.53Z"/>
      <path d="M36.63,35.46c-3.21,1.19-5.88,1.6-9.47,1.75,3.05,3.55,9.51,3.31,13.59,1.33-1.2-1.49-2.73-2.74-4.12-3.09Z"/>
      <path d="M3.41,38.67c4.02,2.06,10.76,1.9,13.19-1.35-8.48-.03-9.18-4.34-13.19,1.35Z"/>
      <path d="M26.64,17.83l1.96,4.01,3.64-2.21c-.04-1.79-.38-3.25-1.2-4.85l-4.4,3.04Z"/>
      <path d="M17.16,17.83c-1.61-1.17-2.75-1.91-4.47-2.82l-1.22,4.44,3.75,2.57,1.94-4.19Z"/>
      <polygon points="21.9 12.7 24.07 10.67 21.82 8.47 19.93 10.69 21.9 12.7"/>
      <path d="M22.07,0c-.42,2.38-1.7,4.93.07,7.52.69-2.64.29-4.98-.07-7.52Z"/>
      <path d="M39.8,12.32c-2.25.84-4.17,2-5.42,3.65,2.54-.54,4.1-2.08,5.42-3.65Z"/>
      <path d="M4.31,11.97c2.25.84,4.17,2,5.42,3.65-2.54-.54-4.1-2.08-5.42-3.65Z"/>
      <path d="M28.35,12.53c1.79-1.72,2.95-3.49,3.89-5.62-1.9,1.44-3.35,3.2-3.89,5.62Z"/>
      <path d="M11.72,7.05c.97,2.11,2.22,4.03,3.76,5.35-.7-2.68-2.16-3.99-3.76-5.35Z"/>
    </g>
  </g>
</svg>