<?xml version="1.0" encoding="UTF-8"?>
<svg id="Warstwa_2" data-name="Warstwa 2" xmlns="http://www.w3.org/2000/svg" viewBox="0 0 34.73 49.74">
  <g id="game-icon-v5-divine-pixarts-store">
    <g id="game-icon-v5-divine-pixarts-store_167">
      <path d="M33.95,11.36c-.75-1.46-1.01-2.76-1.47-4.51l-1.57,4.45c-.07.2-.66.76-.7.57-.03-.19-.22-.99-.17-1.25,1.27-6.13-3.84-5.94-3.4-10.62-1.91.65-2.53,2.89-1.62,4.76,1.64,3.39-1.81,4.62-3.5,7.97l-1.32-2.72c-.79,1.55-1.55,3.14-1.61,4.62-.11,2.74,1.81,5.11,4.32,5.13-.43-1.47-.62-2.9-.25-4.09l1.67,2.27c-.19-2.76.12-4.91,2.51-6.32.03.72-.13,2.55.29,3.1l2.48,3.24.95-2.48c.6,1.37.57,2.85.06,4.49,3.8-.7,5.09-5.17,3.33-8.6Z"/>
      <path d="M3.68,42.5c1.87,2.25,3.61,4.13,5.68,6.02l7.59-4.71c-1.67-3.73-2.48-6.51-3.14-10.04l-8.31-.11c-.95,3.07-1.46,5.7-1.82,8.84Z"/>
      <path d="M27.02,29.6c-2.91-.36-5.25,2.41-8.79,2.83,1.43,3.04,2.5,6.49,2.44,10.15l7.42-.41c1.58-4.45,1.34-8.7-1.06-12.57Z"/>
      <path d="M0,43.42l5.61,5.77c.28.28,1.15.7,1.37.5l.9-.83-5.51-6.01c.35-2.92.99-6.01,1.82-8.63l-.96-.61c-1.41-.89-3.03,8.62-3.23,9.8Z"/>
      <path d="M14.93,34.21c.64,3.28,1.69,6.29,3.17,9.34,3.66-1.24.18-8.91-1.18-10.82-.38-.53-2.14.74-1.99,1.47Z"/>
      <path d="M33.3,21.46c-.2-.17-.88-.52-1.16-.52l-11.15-.04c-.47,0-1.09,1.22-.74,1.36.27.1,1.05.31,1.42.32l10.68.1c.4,0,1.22-.98.95-1.21Z"/>
      <path d="M31.89,23.71c-3.5-.31-6.67-.37-10.3-.17.02,1.15.92,2.15,2.21,2.11l6.85-.2c.43-.01,1.17-1.4,1.23-1.75Z"/>
      <polygon points="28.18 43.31 25.31 43.69 24.59 47.44 28.86 47.42 28.18 43.31"/>
      <path d="M24.57,28.7l3.61-.02c.4,0,1.32-.2,1.4-.55l.39-1.62-6.72.07c.21,1,.77,2.11,1.31,2.11Z"/>
      <path d="M32.96,31.59c.36-.17.15-2-.25-2.01-1.05-.03-3.13,0-4.44.05l1.12,2.72c.85-.02,2.7-.35,3.57-.75Z"/>
      <path d="M33.13,32.93c-.93-.06-2.62.1-3.23.4-.47.23-.3,1.75.16,1.98.7.35,2.75.41,3.73-.51.32-.3-.2-1.83-.66-1.86Z"/>
      <path d="M18.22,31.31c2.18-.33,3.14-.88,4.93-2.01-.73-.97-1.71-1.51-2.16-1.13-1.3,1.08-1.96,1.82-2.77,3.15Z"/>
      <path d="M33.09,36.58c-.7-.35-2.53-.4-3,.2-.25.32-.4,1.84,0,1.86l1.56.06c.38.01,1.23-.33,1.55-.54.31-.21.23-1.41-.11-1.57Z"/>
      <path d="M32.05,40.08c-.27-.46-2.27-.77-2.38-.26l-.38,1.81c1.17.61,3.35-.58,2.76-1.56Z"/>
    </g>
  </g>
</svg>