<?xml version="1.0" encoding="UTF-8"?>
<svg id="Warstwa_2" data-name="Warstwa 2" xmlns="http://www.w3.org/2000/svg" viewBox="0 0 50.95 51.42">
  <g id="game-icon-v5-divine-pixarts-store">
    <g id="game-icon-v5-divine-pixarts-store_152">
      <path d="M50.45,1.42l-13.19,6.06.66,1.41c4.6-2.58,8.5-4.64,12.53-7.47Z"/>
      <path d="M13.37,18l-.73.38c-4,2.07-8.02,4.1-11.75,6.51,4.24-1.38,9.14-3.62,12.99-5.56.32-.16-.28-1.45-.51-1.33Z"/>
      <path d="M49.11,24.51c-3.55-2.6-7.25-4.3-10.96-6.37l-1.15.1c-2.87.25,11.99,6.7,12.11,6.27Z"/>
      <path d="M1.41,2.03c3.09,1.99,7.53,4.54,10.69,6.33.33.19,1.13-.03,1.38-.16C14.96,7.44,2.4,1.87,1.41,2.03Z"/>
      <path d="M39.11,11.09c-.39.02-1.03.76-.99,1.07.17,1.16,11.75-1.38,12.83-1.82l-11.84.75Z"/>
      <path d="M12.36,12.65l.29-1.25c.04-.17-.62-.23-.85-.25l-11.81-.82,12.36,2.32Z"/>
      <path d="M15.1,21.95c-3.02,3.32-5.36,6.23-7.55,9.81l7.43-7.62.12-2.19Z"/>
      <path d="M36.07,22.05c-.47,1.28.18,2.25.96,3.25l6.95,7.03-7.92-10.28Z"/>
      <path d="M49.82,16.61c-2.73-.9-10.06-2.29-11.45-1.84-3.95,1.26,12.89,2.15,11.45,1.84Z"/>
      <path d="M11.66,14.34L.96,16.55c3.68-.05,8.31-.4,11.58-.88.21-.03-.64-1.38-.88-1.33Z"/>
      <path d="M33.31,6.22c.52,2.47,6.07-4.95,6.27-5.53-2.58,1.26-4.44,3.4-6.27,5.53Z"/>
      <path d="M17.6,6.45c.71-.14-4.9-5.39-5.93-5.43,1.5,2.25,3.13,3.83,4.91,5.62l1.01-.19Z"/>
      <rect x="22.95" y="2.36" width="5.01" height="1.19" transform="translate(22.3 28.39) rotate(-89.55)"/>
      <path d="M28.72,5.18l.93.83c.86-2.14,1.53-3.61,1.59-5.94l-2.52,5.1Z"/>
      <path d="M21.94,5.49c.04-.55-1.71-4.91-2.53-5.49.25,1.73,1.04,4.27,1.52,5.59.07.18.99.1,1.01-.1Z"/>
      <path d="M18.12,20.27l-1.25,17.41c5.81-.42,11.4-.45,17.26-.01l-1.25-17.55c-4.93-.65-9.91-.73-14.76.14ZM23.39,30.1l.14-5.17c.02-.63,1.31-1.57,1.94-1.57.63,0,1.97.93,2.01,1.59l.28,5.09-4.37.06Z"/>
      <path d="M21.93,51.37l.15-6.44c.05-2.15,1.38-3.54,3.37-3.61,1.78-.06,3.43,1.25,3.48,3.52l.15,6.56,9.51-.05c.58-1.3-.62-2.18-1.66-2.58l-1.43-9.81c-6.85-1.18-13.31-1.03-20.08-.09l-1.32,9.94c-.74.28-1.42.53-1.65.85-.23.32-.01,1.46.24,1.74l9.24-.05Z"/>
      <path d="M35.53,9.75c-.68-.47-2.58-.88-2.75-.67l-.48,2.38c-.09.45-1.57.08-1.97-.15-.4-.23-.21-1.25-.24-2.12-.02-.51-1.09-1.13-1.62-1.12-.59,0-1.54.29-1.61.73l-.31,2.06c-.07.43-1.44.27-1.89.19-1.04-.18-.12-3.01-.92-2.98l-1.21.05c-3.2.13-.48,3.05-2.25,3.34-.57.09-1.68.27-1.74-.18l-.25-2.04c-.08-.67-2.48-.03-2.7.63l.06,6.65c6.78-1.29,13.06-1.56,19.7.05l.18-6.82Z"/>
      <path d="M16.74,17.39c.08.6.57,1.42,1.09,1.8,5.05-.79,10.16-.88,15.2.07.59-.45,1.26-1.35,1.32-1.83-5.97-1.76-11.72-1.3-17.6-.04Z"/>
    </g>
  </g>
</svg>