<?xml version="1.0" encoding="UTF-8"?>
<svg id="Warstwa_2" data-name="Warstwa 2" xmlns="http://www.w3.org/2000/svg" viewBox="0 0 47.9 48.09">
  <g id="game-icon-v5-divine-pixarts-store">
    <g id="game-icon-v5-divine-pixarts-store_197">
      <path d="M47.9,0l-22.5,20.83,10.26-12.77c-.57.31-1.07.8-1.58,1.31L15.81,25.67c2.36-4.54,6.09-7.81,8.75-12.09l-11.17,9.31,3.46,8.84,9.68.34,12.9-17.1c-4.63,2.88-6.96,7.29-11.33,10.34l13.84-17.36c2.16-2.71,4.48-5.12,5.95-7.97Z"/>
      <polygon points="4.69 48.04 12.56 43.25 20.07 48.09 17.85 39.28 24.5 33.6 15.69 33.06 12.4 24.19 9.15 33.07 0 33.6 6.99 39.27 4.69 48.04"/>
      <path d="M25.9,34.21l-6.32,5.65c.4,1.52.82,2.89,1.29,4.09l14.53-18.3c-3.82,2.64-6.35,5.73-9.51,8.56Z"/>
      <path d="M7.94,31.21c1.24-1.66,1.55-3.22,1.88-5.3l-6.07,5.63c1.01.43,3.57.51,4.19-.33Z"/>
    </g>
  </g>
</svg>