<?xml version="1.0" encoding="UTF-8"?>
<svg id="Warstwa_2" data-name="Warstwa 2" xmlns="http://www.w3.org/2000/svg" viewBox="0 0 50.66 43.79">
  <g id="game-icon-v5-divine-pixarts-store">
    <g id="game-icon-v5-divine-pixarts-store_101">
      <path d="M42.98,26.03c-.86-4.16-4.41-6.71-8.66-5.67-1.3-4.09-4.95-6.38-8.78-6.46-3.85-.08-7.18,2.16-8.77,5.79-2.07-.63-3.85-.26-5.37.93-1.23.96-1.97,2.56-2.19,4.51-2.92.16-5.4,1.68-6.46,4-1.25,2.75-.44,5.43,1.24,7.64,1.67,2.2,4.41,1.14,6.37,2.05,2.48,1.15,4.81,3.16,7.83,1.15,3.89,5.06,11.25,5.06,15.51.1,2.92,1.63,5.73.39,7.54-1.7,1.13.1,2.78.26,3.73-.14,3.03-1.27,4.12-4.23,3.61-7.21-.47-2.77-3.05-4.3-5.6-5Z"/>
      <path d="M25.47,0c-.85,3.56-.49,7.56-.67,10.38-.02.36.47.93.68,1.05,1.08.61.12-11.65,0-11.43Z"/>
      <path d="M36.78,16.83c.87.54,1.57.13,2.16-.48l6.23-6.38c-3.28,1.97-5.8,4.19-8.39,6.85Z"/>
      <path d="M18.94,13.09c1.3,0-3.62-8.75-4.17-9.37.85,2.99,2.03,6.05,3.17,8.86.1.26.73.51.99.51Z"/>
      <path d="M12.56,16.94l.79.2c2.68.68-6.22-6.83-6.87-6.54,1.83,2.35,3.89,4.31,6.08,6.34Z"/>
      <path d="M35.92,4.08l-4.33,8.25c.56,4.23,4.46-7.89,4.33-8.25Z"/>
      <path d="M43,22.16c1.2.74,6.14-1.81,7.66-2.44-.53-.07-9.11,1.55-7.66,2.44Z"/>
      <path d="M7.94,21.5c-2.39-.73-5.29-1.56-7.94-1.79l7.53,2.86c.3.11.72-.97.42-1.07Z"/>
      <path d="M28.85,11.86c.47.74,1.7-6.15,1.3-6.7l-1.81,5.9.51.8Z"/>
      <path d="M21.88,11.85l.34-.14c.52-.21-1.12-6.01-1.7-6.49l.9,6.01c.03.18.33.67.45.62Z"/>
      <path d="M16.1,14.86c-.56-2.12-2.21-3.51-3.54-5.02.79,1.84,1.58,3.83,3.54,5.02Z"/>
      <path d="M38.11,10.25c-1.33,1.35-3.09,2.5-3.26,4.63,1.68-1.17,2.53-2.9,3.26-4.63Z"/>
      <path d="M41.32,18.88l3.29-2.19c-1.81.54-3.38,1.21-5.27,2.23.48.22,1.55.25,1.98-.04Z"/>
    </g>
  </g>
</svg>