<?xml version="1.0" encoding="UTF-8"?>
<svg id="Warstwa_2" data-name="Warstwa 2" xmlns="http://www.w3.org/2000/svg" viewBox="0 0 41.27 46.59">
  <g id="game-icon-v5-divine-pixarts-store">
    <g id="game-icon-v5-divine-pixarts-store_95">
      <path d="M6.22,17.01c-1.91-.78-3.52-1.81-5.39-2.94.33,4.43,4.05,6.05,7.66,7.93l-5.11-.99c.68,1.85,2.27,3.58,4.25,4.13l4.64,1.29-4.92.39c2.12,2.3,4.67,2.3,7.58,2.75l-2.11.97c1.99,1.08,3.62,1.04,5.96.88-1.54,1.48-3.04,3.48-5.08,4.41-4.21,1.93-8.74,1.99-13.55,1.85.86,2.43,3.37,2.44,5.68,2.9l-4.01,1.57c1.89,2.22,4.28,1.18,6.75.41l-3.16,2.47c2.3,2.38,6.71-2.29,5.76-.68l-.32.54c-.19.32-.33,1.08-.33,1.45,0,.36,1.42.31,1.69.03.83-.84,2.11-2.47,2.8-3.56,3.54-5.55,8.09-1.41,14.7-5.44,7.15-4.36,3.02-12.94,11.56-12.91l-2.11-1.9c-.87-1.46-1.96-2.58-3.42-2.73-4.6-.48-4.98,5.04-9.11,5.06-1.63,0-3.34-1.76-3.89-3.26-1.28-3.49-3.42-5.49-6.65-7.16C9.97,11.3,5.11,6.61,2.32.07c-1.63,4.06.56,7.33,2.38,10.78L.15,6.45c-.95,4.86,2.81,7.81,6.07,10.56Z"/>
      <path d="M18.44,14.41c5.29,3.18,3.84,5.74,6.8,8.81.51.52,1.9.73,2.49.43.67-.33.97-1.42,1.19-2.2,2.24-7.97-5.03-10.37-3.25-21.45-2.71,1.64-2.77,4.72-3.25,7.72l-.76-4.06c-2.21,2.39-1.68,5.39-1.33,8.51l-1.58-2.81c-.58,1.71-.73,3.69-.3,5.06Z"/>
    </g>
  </g>
</svg>