<?xml version="1.0" encoding="UTF-8"?>
<svg id="Warstwa_2" data-name="Warstwa 2" xmlns="http://www.w3.org/2000/svg" viewBox="0 0 48.55 50.59">
  <g id="game-icon-v5-divine-pixarts-store">
    <g id="game-icon-v5-divine-pixarts-store_181">
      <path d="M2.23,19.82c-.13.41-.18,1.08-.43,1.19l-.73.33c.58.37,1.02.84,1.17,1.19.36-.53.94-.94,1.52-1.21-.26-.08-1.01-.19-1.11-.44l-.42-1.07Z"/>
      <path d="M30.77,28.05c-1.94-4.91-4.98-7.77-6.5-13.39-.86,2.6-1.77,4.93-3.11,7.17-2.33,3.87-5,7.83-3.64,12.32.69,2.28,2.34,3.95,4.18,4.67,2.31.9,4.71.78,6.75-.83,3.02-2.39,3.7-6.48,2.33-9.95ZM18.97,33.34c-.61-2.17.13-4.33,1.18-6.15-.22,1.62-.38,3.11-.35,4.67.46,2.52,1.95,4.2,4.49,5.19-2.58.61-4.66-1.36-5.33-3.71Z"/>
      <path d="M35.88,36.83c-6.36,1.66-11.05,6.93-11.07,13.76,2.59-5.44,5.63-6.96,11.04-8.91,2.49-.9,4.62-2.11,6.88-3.37-3.5,4.39-11.98,5.31-14.4,10.13,1.91-.47,3.48-.78,5.28-.88,11.29-.64,15.29-8.96,14.92-18.9-2.41,5.24-7.6,6.86-12.64,8.18Z"/>
      <path d="M12.85,36.88c-5.58-1.73-9.69-2.45-12.73-8.1-.4,3.2.21,6.07,1.13,8.98,1.64,5.2,6,8.76,11.48,9.45,2.55.32,4.91.66,7.5,1.21-3.37-5.42-10.92-5.53-15.02-10.75,1.61.96,2.96,2.1,4.74,2.84l6.35,2.62c3.39,1.4,5.68,3.85,7.36,7.23-.11-6.78-4.62-11.81-10.81-13.48Z"/>
      <path d="M17.2,18.53c-.52-2.92-2.83-5.52-3.76-8.75-.95,3.18-3.69,6.54-3.87,9.19-.17,2.51,1.83,4.45,4.05,4.3,2.26-.15,4.05-2.16,3.59-4.74ZM10.95,20.43c-.29-.78-.18-1.72.07-2.6.27,1.52.68,2.6,1.75,3.89-.74-.08-1.59-.69-1.82-1.29Z"/>
      <path d="M35.41,23.27c1.99-.18,3.78-1.98,3.49-4.42-.36-3.06-2.87-5.81-3.77-9.01-.92,3.47-3.79,6.69-3.84,9.39-.04,2.41,1.9,4.24,4.11,4.04ZM32.91,17.83c0,1.59.31,2.85,1.77,3.91-.87-.12-1.72-.56-1.98-1.2-.34-.86-.22-1.81.21-2.7Z"/>
      <path d="M16.09,36.22l-1.17-4.82c-1.5-3.39-6.55-6.41-10.36-7.07,1.29,1.83,2.02,3.29,2.2,5.35.2,1.11.49,2.57.89,3.55,1.57.79,3,1.27,4.67,1.75l-2.19-4.86c2.39,2.25,2.38,5.21,5.97,6.11Z"/>
      <path d="M40.89,33.37c1.63-3.85.22-5.11,3.28-9.02-3.89.69-8.97,3.71-10.45,7.19-.34,1.68-.71,3.04-1.23,4.68,3.32-.66,3.8-3.9,5.81-5.8l-2.02,4.58c1.66-.41,3.08-.89,4.62-1.63Z"/>
      <path d="M18.75,7.85c.9.45,2.1.26,2.78-.5,1.84-2.05-1.2-4.94-1.71-7.35l-2.21,4.95c-.49,1.09.28,2.47,1.14,2.91Z"/>
      <path d="M43.11,7.54l-.56-2.79c-.37,1.45.03,3.12-1.25,4.05-.57.41-1.77.63-2.59.93.82.22,2.21.3,2.83.98.9,1.01.72,2.56,1,3.72.36-1.17.21-2.75,1.13-3.69.78-.79,2.11-.84,2.99-1.06l-1.68-.43c-.88-.22-1.68-.79-1.86-1.72Z"/>
      <path d="M26.75,9.69c-.29.64.22,1.81.79,2.17.58.36,1.57.31,2.11-.13.41-.34.79-1.57.54-2.11l-1.71-3.75-1.72,3.82Z"/>
      <path d="M4.97,12.84c.43.6.5,1.56.68,2.42.23-.75.39-1.58.74-2.32.32-.69,1.85-.73,2.5-.91-.62-.23-1.96-.46-2.31-.94-.53-.72-.67-2.06-.91-2.91-.21,1.14-.44,2.29-.82,3.17l-2.2.65c.83.17,1.96.33,2.33.84Z"/>
      <path d="M44.63,18.96c.97.32,1.55,1,1.69,1.9.36-1.04.97-1.71,1.86-1.88-1.07-.25-1.6-.96-1.85-1.89-.17,1.03-.74,1.65-1.7,1.87Z"/>
      <path d="M34.16.8c-.15,1.19-.75,1.9-1.89,1.94,1.03.4,1.66.88,1.89,1.81.46-1.41,1.12-1.51,2-1.6-1.25-.34-1.78-.97-2-2.14Z"/>
    </g>
  </g>
</svg>