<?xml version="1.0" encoding="UTF-8"?>
<svg id="Warstwa_2" data-name="Warstwa 2" xmlns="http://www.w3.org/2000/svg" viewBox="0 0 19.44 54.62">
  <g id="game-icon-v5-divine-pixarts-store">
    <g id="game-icon-v5-divine-pixarts-store_110">
      <path d="M.24,34.25l1.58.87.15,18.01c5.37,1.93,10.53,2.05,15.69-.05l.07-21.03c3.29-1.25.82-1.42,1.01-6.91.02-.7-.45-1.91-.99-2.2-1.83-.96-3.93,1.35-7.14,1.17l-.45-4.63c-2.07,1.25-.65,2.78-1.22,4.55-3.2.68-5.45-2.24-7.2-1.12-2.23,1.43.42,3.72-1.57,9.35-.16.44-.26,1.78.1,1.98ZM4.66,35.03c.15-.52,1.22-.89,1.87-.9l1.74-.04c.64-.01-.16-2.21.61-3.91.24-.52,2.07-.1,2.1.47l.16,3.47,3.38.21c.55.03.6,1.94.28,2.33l-3.7.33-.1,8.76c0,.59-2.07.64-2.4.13l-.07-8.93-3.18-.17c-.52-.03-.83-1.29-.69-1.77Z"/>
      <path d="M7.02,21.41c-1.93-3.62-.73-7.69,2.37-10.06.28,2.08.76,3.79,1.49,5.23l1.81-.72c.63,2,.57,3.32.24,5.26,4.96-3.3,4.47-8.37,2.22-13.01-.67,1.63-.72,2.97-2.39,3.07.84-4.67-.51-9.1-4.35-11.18,1.04,5.49-1.91,6.13-4.74,11.5-1.97,3.74-.59,8.19,3.36,9.91Z"/>
    </g>
  </g>
</svg>