<?xml version="1.0" encoding="UTF-8"?>
<svg id="Warstwa_2" data-name="Warstwa 2" xmlns="http://www.w3.org/2000/svg" viewBox="0 0 40.96 47.81">
  <g id="game-icon-v5-divine-pixarts-store">
    <g id="game-icon-v5-divine-pixarts-store_113">
      <path d="M30.07,24.97l-9.61,16.76-2.77-4.45c-.42-.67-2.3-.53-3.47-.24l6.24,10.77,11.36-20.08c-.57-1.02-1.11-1.87-1.76-2.77Z"/>
      <polygon points="9.17 19.92 10.87 22.79 20.31 6.11 23.43 11.01 26.6 10.96 20.45 0 9.17 19.92"/>
      <path d="M14.58,31.6L5.17,15.19l5.46-.29c.53-.69,1.16-1.86,1.54-2.72l-12.15.02,11.29,19.5,3.27-.1Z"/>
      <path d="M7.89,27.71l-1.83-2.73L0,35.7l22.65-.04c.63-1.07,1.15-2.05,1.53-2.93l-18.94-.07,2.65-4.95Z"/>
      <path d="M16.86,15.03l18.78.04c-.89,1.73-1.76,3.21-2.36,4.79-.26.69,1.1,2.4,1.45,2.87l6.23-10.56-22.62-.05c-.58.95-1,1.79-1.48,2.91Z"/>
      <path d="M26.33,16.32l9.4,16.31-5.38.17c-.59.66-1.22,1.99-1.45,2.86l12.05-.04-11.3-19.3c-.92-.25-2.06-.26-3.32,0Z"/>
      <path d="M6.19,46.47l5.86-7.96c-.6-3.78-5.82,7.49-5.86,7.96Z"/>
      <path d="M29.39,37.62c-2.18-.8,4.72,8.43,4.91,8.33-1.16-3.01-2.54-5.3-3.94-7.97l-.97-.36Z"/>
      <path d="M29.56,10.14l.86-.6c1.62-2.96,3.08-5.36,4.38-8.42l-5.85,8.09c.08.28.4,1.07.61.93Z"/>
      <path d="M11.37,10.18c3.11,1.71-4.77-8.51-4.68-8,.32,1.68,3.49,7.34,4.68,8Z"/>
      <path d="M29.26,46.02l-1.23-5.26c-3.21-3.36,1.02,5.87,1.23,5.26Z"/>
      <path d="M13.7,7.67c.17.11.38-1.05.28-1.25l-2.37-4.85c.23,2.11.81,3.65,1.42,5.69l.67.41Z"/>
      <path d="M27.06,7.74c1.41-1.82,1.82-4.04,2.23-6.17-1.22,1.95-2.43,3.79-2.23,6.17Z"/>
      <path d="M14.04,41.1c.06-.13-.59-1.09-.65-.96-.6,1.18-1.86,4.45-1.74,5.91l2.39-4.95Z"/>
      <path d="M36.66,6.46c-1.44,1.02-2.88,2.25-4.11,3.74,2.49-.1,2.95-2.23,4.11-3.74Z"/>
      <path d="M8.31,9.95c-1.7-1.59-2.96-2.74-4.61-3.87l3.3,3.94c.21.25,1.06.26,1.31-.07Z"/>
      <path d="M36.54,41.25l-2.89-3.73c-.85-1.1-2.3.6,2.89,3.73Z"/>
      <path d="M7.02,37.8l-3.21,3.7c1.6-1.1,3.01-2.24,4.57-3.63-.58-.24-1.16-.3-1.36-.07Z"/>
    </g>
  </g>
</svg>