<?xml version="1.0" encoding="UTF-8"?>
<svg id="Warstwa_2" data-name="Warstwa 2" xmlns="http://www.w3.org/2000/svg" viewBox="0 0 41.32 42.6">
  <g id="game-icon-v5-divine-pixarts-store">
    <g id="game-icon-v5-divine-pixarts-store_18">
      <polygon points="3.29 6.47 5.18 5.01 3.31 3.28 1.62 4.93 3.29 6.47"/>
      <path d="M6.16,10.58c-1.99,7.27,2.21,14.19,9.03,16.83l4.69,1.82c-7.42,2.67-14.38-2.01-16-9.32l.16,4.32c-2.71-3.99-2.59-8.64-1.24-13.45C-.21,14.9-.86,20.25,1.18,25.07c1.68,3.97,5.46,7.39,10.18,8.33,5.46,1.08,10.53-.97,13.66-5.57.48-.7.95-1.17,1.77-1.9-.1,1.48-.24,2.32-.48,3.63,1.18-1.86,1.94-4,1.69-6.14l.66,4.26c1.8-2.91.17-5.45-.27-8.09l-.44-2.62c4.38,1.55,6.33,10.16,4.13,14,.29-2.33.15-4.52-.76-6.7.37,7.59-1.54,11.42-9.05,14.13l3.35-.22c-3.7,2.77-8.1,2.57-12.7,2.18,8.49,4.73,19.35.19,21.81-9.07,2.34-8.82-4.71-16.32-13.55-18.23,7.16-2.43,13.96,1.86,15.62,9.22l-.14-4.32c2.85,3.75,2.45,7.9,1.57,12.6,4.49-6.3,2.79-15-3.73-19.43-3.72-2.53-8.43-3.4-12.68-1.61-3.5,1.48-5.71,4.21-8.01,7.27l.18-3.59-1.28,4.75-.26-3.91c-2.12,3.49-.87,6.94-.46,10.75-4.06-3.24-5.13-8.68-3.43-13.2l.4,5.17c1.57-9.14,1.51-10.11,11.14-13.41l-4.5.47c3.7-2.45,8.22-2.64,12.96-1.49C24.54-.28,19.55-.76,14.71,1.22c-3.62,1.48-7.33,4.9-8.55,9.36ZM22.8,28.78c-.22,2.86-8.95,4.46-10.7,2.69l2.99.28c2.78-.07,5.11-1.71,7.71-2.97ZM28.47,10.68c-4.14-.49-7.2,1.23-11.19,3.26,2.33-3.53,7.28-4.76,11.19-3.26Z"/>
      <path d="M12.94,12.5c4.99-6.16,12.56-7.49,19.36-5.11-6.73-4.7-16.2-2.35-19.36,5.11Z"/>
      <path d="M26.51,31.84c-5.78,4.13-11.55,5.59-18.19,2.89,5.27,4.2,14.41,3.33,18.19-2.89Z"/>
      <path d="M36.72,6.25c.39.55.62,1.97.84,2.86l.97-2.84c.24-.69,1.93-1.07,2.78-1.43l-2.56-.91-1.19-3.24c-.25,1-.56,2.5-1.08,3.1-.43.5-1.7.8-2.47,1.09.88.35,2.27.75,2.7,1.36Z"/>
      <path d="M3.96,33.91l-.77,3.02c-.19.73-1.78,1.1-2.66,1.5.79.39,2,.7,2.46,1.23.53.61.74,2.08.99,2.93.41-.93.57-2.8,1.3-3.13l2.66-1.21c-.86-.22-2.64-.51-2.88-1.21l-1.09-3.14Z"/>
      <path d="M35.75,37.04c1.1.28,1.78,1,2.27,2.17.22-.52.52-1.54.98-1.67l1.72-.51c-1.54-.29-2.48-1.02-2.68-2.23-.55,1.23-1.35,1.97-2.29,2.24Z"/>
    </g>
  </g>
</svg>