<?xml version="1.0" encoding="UTF-8"?>
<svg id="Warstwa_2" data-name="Warstwa 2" xmlns="http://www.w3.org/2000/svg" viewBox="0 0 36.07 32.43">
  <g id="game-icon-v5-divine-pixarts-store">
    <g id="game-icon-v5-divine-pixarts-store_78">
      <path d="M10.29,16.26c.47,0,1.28.52,1.75.87l2.22-9.66c.08-.35.55-.79.79-.85.18-.05.62.51.68.83l2.41,12.53,3.01-9.7,2.13,6,10.77.13c2.39-3.9,2.83-8.62.35-12.44C32.53,1.06,29.13-.27,25.78.05c-3.21.31-6.02,2.28-7.72,5.47C16.15,2,13.03.11,9.54,0,6.19-.1,2.76,1.62,1.14,4.76c-1.95,3.77-1.23,8.18.88,11.64l8.27-.15Z"/>
      <path d="M22.94,19.41l-1.78-4.46-2.32,9.71c-.06.25-.5.71-.66.85-.16.14-.76-.56-.8-.79l-2.44-12.29c-.95.64-1.66,10.84-3.36,7.4l-1.04-2.1-7.86.03c2.32,3.03,4.65,5.44,7.42,7.82l7.97,6.84,4.07-3.59c4.02-3.55,8-6.64,11.32-11.1l-8.43-.11-2.09,1.79Z"/>
    </g>
  </g>
</svg>