<?xml version="1.0" encoding="UTF-8"?>
<svg id="Warstwa_2" data-name="Warstwa 2" xmlns="http://www.w3.org/2000/svg" viewBox="0 0 52.12 45.58">
  <g id="game-icon-v5-divine-pixarts-store">
    <g id="game-icon-v5-divine-pixarts-store_136">
      <path d="M14.05,0l-.19,9.89c.65,1.22.12,2.41.12,3.67l-.05,14.63c0,2.23.28,4.16-.24,6.19l-.66-3.12c-3.94.97-3.3,4.93-3.08,8.31.07,1.09,1.26,2.48,2.09,2.88,1,.48,2.9,1.13,3.55-.52-2.06-.18-3.84-.77-4.33-2.32-.37-1.15.34-4.11,2.21-4.12l28.73-.13V0S14.05,0,14.05,0ZM40.58,30.48c-1.53.67-2.47,1.28-3.05,3.15-6.31.32-12.76.29-18.97.02-.41-1.6-1.2-2.48-2.94-2.96l-.03-26.03c1.46-.56,2.48-1.62,3.11-2.95l18.68-.03c.79,1.28,1.52,2.49,3.2,3,.28,8.51.28,17.19,0,25.8Z"/>
      <path d="M9.91,8.24l-.09,23.61,3.56-1.56-.03-25.21c-1.44.55-3.43,1.92-3.43,3.16Z"/>
      <path d="M41.3,36.37c-1.35,1.76-.72,3.4-.32,5.26l-18.66.05c-.31,0-.92.44-.89.63.02.19.66.56.89.56l20-.02-.71-2.06-.3-4.4Z"/>
      <polygon points="20.57 45.58 20.43 38.52 16.31 38.51 16.21 45.49 18.35 44.01 20.57 45.58"/>
      <path d="M12.82,36.99c9.04.51,18.02.68,26.93-.11-9.25-.64-17.89-.81-26.93.11Z"/>
      <path d="M22.05,38.08l-.82.97c6.23-.04,11.93.26,18.1-.31-6.05-1.26-11.41-.11-17.28-.66Z"/>
      <path d="M10.05,6c.68-.51,2.43-1.18,2.92-1.9.67-1,.26-3.15.06-3.96-2.78.58-3.72,3.44-2.98,5.86Z"/>
      <rect x="21.68" y="39.93" width="17.58" height=".43"/>
      <path d="M44.6,19.74c-.1.24.67.59.93.56l6.58-.57c-1.32-.73-6.94-1.33-7.51,0Z"/>
      <path d="M6.41,28.95l-5.52,3.95c1.77-.64,4.79-2.13,6.28-2.94.21-.12.03-1.48-.11-1.4l-.65.39Z"/>
      <path d="M0,19.77l7.07.51c4.92.35-1.74-2.63-7.07-.51Z"/>
      <path d="M44.52,29.28c.89,1.04,4.92,3.21,6.24,3.19l-5.41-3.82c-.15-.1-.94.49-.83.63Z"/>
      <path d="M1.23,6.53l5.57,4.04.69-.31c1.36-.62-5.64-3.96-6.26-3.73Z"/>
      <path d="M44.67,10.36c2.65-1.14,4.67-2.66,6.44-4.21-2.6,1.16-5.36,1.88-6.44,4.21Z"/>
      <path d="M7.19,23.62c-.16,0-.83.01-1.04.09l-4.89,1.85,6.01-.77c.05-.65.15-1.18-.09-1.18Z"/>
      <polygon points="7.08 15.82 7.29 14.43 1.22 13.48 7.08 15.82"/>
      <path d="M45.29,15.76l5.48-2.18c-6.92.2-6.9,2.74-5.48,2.18Z"/>
      <path d="M50.8,25.5c-2.06-.8-4.08-1.72-6.48-1.83,1.77,1.97,4.24,1.54,6.48,1.83Z"/>
      <path d="M36.43,2.58h-16.81c-.88,1.18-1.86,2.14-3.14,3.04l.06,24.34c1.65.59,2.27,1.4,2.91,2.86l17.31.02c.68-1.75,1.52-2.43,3.02-3.21l-.02-24.06c-1.46-.85-2.4-1.83-3.32-3ZM33.74,19.17l2.28,1.91h-3.05s2.35,3.74,2.35,3.74l-4.12-2.03.25,3.02-2.1-2.25-1.32,5.17-1.05-5.12-2.1,1.98.02-2.72-4.1,2.23,2.34-4.11-3.14.19,2.45-1.93-4.19-1.37,4.19-1.32-2.47-2.06,3.26.07-2.56-3.95,4.2,2.44-.14-3.52,1.96,2.66c.72-1.84.95-2.93,1.34-4.89l1.36,4.88,2.17-2.56-.19,3.46,4.14-2.4-2.38,3.92,2.41.23-1.72,1.81,4.44,1.16-4.52,1.36Z"/>
      <path d="M28.14,12.63c-2.9,0-5.26,2.35-5.26,5.26s2.35,5.26,5.26,5.26,5.26-2.35,5.26-5.26-2.35-5.26-5.26-5.26ZM28.13,22.22c-2.41,0-4.36-1.95-4.36-4.36s1.95-4.36,4.36-4.36,4.36,1.95,4.36,4.36-1.95,4.36-4.36,4.36Z"/>
    </g>
  </g>
</svg>