<?xml version="1.0" encoding="UTF-8"?>
<svg id="Warstwa_2" data-name="Warstwa 2" xmlns="http://www.w3.org/2000/svg" viewBox="0 0 53.07 54.85">
  <g id="game-icon-v5-divine-pixarts-store">
    <g id="game-icon-v5-divine-pixarts-store_35">
      <path d="M42.22,22.99l-10.95-.24-.05-11.34h-10.02s-.14,11.41-.14,11.41l-10.7.1.04,9.63,10.7.1.08,11.45c3.43.14,6.76.13,10.14-.09l-.03-11.36,10.9-.12.02-9.54Z"/>
      <path d="M35.45,16.49l1.51-4.39c-2.64,3.72-4.82,4.09-3.79,8.96.86.16,2.94.34,3.5-.14l4.17-3.57-3.65,1.09c2.49-3.41,4.78-5.42,6.76-8.82l-8.5,6.87Z"/>
      <path d="M11.48,16.99c2.61,2.19,4.01,5.08,7.84,4.06.73-4.69-.83-5.7-3.9-8.93.6,1.66,1.15,2.79,1.52,4.36l-8.97-7.35,7.55,9.43-4.03-1.56Z"/>
      <path d="M37.12,37.02l3.93,1.55c-3.16-2.75-4.11-5.14-7.95-4.07-.58,4.86.36,4.58,3.57,8.2l-1.56-4.17,9.01,7.22-7.01-8.72Z"/>
      <path d="M17.6,38.36l-1.77,4.34c3.4-3.32,4.02-3.78,3.49-8.3-3.38-.89-5.32,1.61-7.51,3.86l3.72-1.52-6.82,8.66,8.9-7.05Z"/>
      <path d="M25.61,9.68l1.27-.06c.48-.02-.26-8.96-.79-9.63l-.75,8.51c-.02.28,0,1.19.27,1.18Z"/>
      <path d="M25.29,47.06l.86,7.8c2.59-11.48-1.03-9.43-.86-7.8Z"/>
      <path d="M44.37,26.81c-.43-.04-.6,1.57-.32,1.83,3-.21,6.08-.24,9.03-1.03l-8.7-.81Z"/>
      <path d="M8.18,26.82l-8.18.79c11.81,2.72,8.38-.81,8.18-.79Z"/>
    </g>
  </g>
</svg>