<?xml version="1.0" encoding="UTF-8"?>
<svg id="Warstwa_2" data-name="Warstwa 2" xmlns="http://www.w3.org/2000/svg" viewBox="0 0 48.5 46.71">
  <g id="game-icon-v5-divine-pixarts-store">
    <g id="game-icon-v5-divine-pixarts-store_190">
      <path d="M5.47,46.52l8.89-5.59,8.77,5.79-.58-3.68,14.09-9.61-8.74,2.1,14.21-13.21c-4.74,1.95-8.11,4.9-12.71,6.51l10.41-12.38-11.12,8.18L48.5,0l-23.89,19.95,7.55-11.13-12.9,11.79,7.09-13.83-12.83,14,1.63-8.37L4.85,28.89l-4.85.6,8.15,6.8-2.68,10.23ZM4.04,30.68l7.66-.37,2.69-7.13,2.72,7.08,7.65.54-5.8,4.88,1.92,7.49-6.52-4.13-6.31,3.83,1.82-7.11-5.83-5.08Z"/>
    </g>
  </g>
</svg>