<?xml version="1.0" encoding="UTF-8"?>
<svg id="Warstwa_2" data-name="Warstwa 2" xmlns="http://www.w3.org/2000/svg" viewBox="0 0 48.08 49.29">
  <g id="game-icon-v5-divine-pixarts-store">
    <g id="game-icon-v5-divine-pixarts-store_81">
      <path d="M33.31,27.48c.36-2.69,2.46-4.82,4.98-5.07l-2.32-2.49c-1.74-1.87-4.45-.73-5.94,1.05-1.4,1.68-3.27,3.37-5.66,2.62-4.17-1.31-3.21-5.84-9.82-9.99C9.31,10.3,5.33,5.86,2.86,0c-1.83,4.7,3.11,9.25,5.7,12.57C5.02,10.56,2.99,7.35.66,4.13c-.44,5.85,4.61,8.81,8.3,11.71-3.65-1.2-6.13-3.86-8.96-6.26.44,5.77,6.63,7.82,10.45,9.58-3.56-.3-6.28-2.15-9.5-3.77,1.15,4.91,7.09,5.22,10.25,6.41-2.84-.01-5.18-.69-8.2-1.42.96,3.73,7.71,3.27,9.67,3.47.13.01-.52.61-.65.61l-6.25.06c2.12,2.65,5.28,1.48,8.51,1.6-1.68.7-3.4.97-5.45,1.32.39.51,1.84,1.3,2.61,1.17l4.27-.71-3.39,1.83c2,.73,3.22.02,5.26-.44l-1.07,1.47c1.42.04,2.58-.44,4.02-1.14-.28,1.9-2.54,1.59-3.59,2.67-1.67,1.71-3.08,3.24-5.36,3.92-3.06.91-6.1,1.06-9.48,1.46.14.86,1.35,1.61,2.26,1.54l5.04-.39c-1.87,1.21-6.65,1.52-6.92,3.04-.42,2.31,6.77-.88,7.27-.79l-4.81,3.01c-.27.17-.64.92-.39,1.02,3,1.15,5.59-2.29,8.06-3.74l-5.11,5.44c1.58.74,2.79-.1,3.58-1.03l2.94-3.46-2.1,4.88c1.52-.1,2.42-1.05,2.92-2.2l1.9-4.39c.89-2.06,2.65-2.78,4.79-2.8,6.27-.05,10.98-4.23,11.79-10.34Z"/>
      <path d="M22.82,21.07c.6.94,2.09,1.66,3.1,1.52.83-.12,2.1-.98,2.5-1.81,1.28-2.63.62-5.21-.67-7.62-2.17-4.06-3.24-8.26-3.07-13.12-2.79,2.71-1.35,6.04-1.32,9.56l-2.11-6.5c-1.59,2.85-.22,5.35.32,8.62l-2.39-4.5c-1.15,2.34.12,4.55.8,7.06l-1.98-2.48c-.67,1.8.47,2.49,1.16,3.55l3.65,5.73Z"/>
      <path d="M41.91,3.62c-2.89,6.42,1.93,5.8.4,11.08-1.3,4.51-2.83,6.04-3.43,8.1-.04.15.45.14.6.19.15.05.13-.68.21-.82,1.92-3.19,3.82-7.16,3.37-11.05,1.48-2.67.99-5.44-1.16-7.5Z"/>
      <path d="M41.77,20.13c1.9,1.76,5.31.06,6.16-2.35-2.26-1.12-5.5.03-6.16,2.35Z"/>
      <path d="M39.84,19.53c.65-2.97-.88-5.44-3.51-6.03-.4,2.8.98,5.34,3.51,6.03Z"/>
      <path d="M41.56,15.14c.88-3.15-1.25-5.33-3.6-6.17-.32,2.78,1.12,5.11,3.6,6.17Z"/>
      <path d="M43.33,15.54c2.77.09,4.71-2.07,4.76-4.97-2.54.2-4.67,2.21-4.76,4.97Z"/>
      <path d="M36.32,7.9l-5.93,6.62.63,2.57c2.06-3.2,3.69-5.74,5.3-9.2Z"/>
      <path d="M33.64,33.04l8.47,4.81-7.56-6.62c-.29.33-.7,1.16-.92,1.81Z"/>
      <path d="M31.42,36.34c1.96,2.42,3.85,4.74,6.03,6.91l-4.95-8.28c-.44-.01-1.35,1.04-1.09,1.37Z"/>
      <path d="M23.07,40.53l1.05,8.76.78-9.85c-1.53.06-1.92.36-1.83,1.1Z"/>
      <path d="M28.02,38.17c-.26.13-.29.81-.26,1.15l3.18,6.88-1.77-8c-.16-.09-.89-.16-1.15-.03Z"/>
      <path d="M38.33,30.26l7.35,1.67c-1.93-1.03-4.7-2.2-6.63-2.97-.36-.14-1.06,1.21-.72,1.3Z"/>
      <path d="M39.82,25.67l7.31-.6-5.51-.84c-.88-.13-1.88.6-1.8,1.45Z"/>
      <path d="M28.55,9c-.43.93-.28,2.01.5,2.68l1.58-7.2-2.09,4.52Z"/>
      <path d="M7.39,29.77l-4.2,1.8c2.36-.29,4.26-.74,6.33-1.34-.62-.37-1.65-.67-2.13-.46Z"/>
      <path d="M9.8,34.56c1.75-.42,2.66-.95,4.01-1.96-1.29-1.48-3.46,1.2-4.01,1.96Z"/>
      <path d="M36.42,29.45c.62-2.29,1.19-4.1,2.06-6.17-1.64,1.58-2.87,4.03-2.06,6.17Z"/>
    </g>
  </g>
</svg>