<?xml version="1.0" encoding="UTF-8"?>
<svg id="Warstwa_2" data-name="Warstwa 2" xmlns="http://www.w3.org/2000/svg" viewBox="0 0 38.13 51.11">
  <g id="game-icon-v5-divine-pixarts-store">
    <g id="game-icon-v5-divine-pixarts-store_141">
      <path d="M31.49,10.41c-1.48.02-2.82.09-3.49.2-.27,2.16-.88,3.19-2.25,3.89-4.25,2.19-9.19,2.1-13.45-.02-1.67-.83-2.24-2-2.18-4.13l-3.59.2-.03,37.76,12.43-7.1,12.51,7.07.04-37.88ZM26.31,31.54l-2.65.12,2.19,3.44-3.71-1.94v2.7s-2.06-2.05-2.06-2.05l-1,4.74-1.2-4.61-2.08,2.16.07-2.97-3.57,1.82,2.17-3.3-2.9-.08,2-1.96-4.34-.92,4.38-1.2-1.99-1.88h2.68s-1.88-3.52-1.88-3.52l3.42,1.94.11-2.83,1.96,2.08.99-4.65,1.29,4.66,1.9-2.29-.03,3.02,4.14-2.39-2.65,3.72,2.76.29-1.76,1.75,4.43,1.31-4.51.84,1.83,2.01Z"/>
      <path d="M11.56,11c-.17.11-.34.96-.15,1.1.19.13.85.43,1.09.44l5.44.17.31,1.99c.06.36,1.42.39,1.5.03l.42-2.07,5.31-.12c.27,0,1.07-.21,1.09-.47l.12-1.12h-6.57c-.15-1.92.25-3.48,1.26-5.1-.58-1.77-1.43-3.83-2.35-5.84-.88,1.81-1.76,3.94-2.33,5.86,1.02,1.68,1.48,3.36,1.2,5.05l-6.33.09Z"/>
      <path d="M17.93,44.17l.03,6.42c0,.49,1.77.66,2.16.38l.07-6.81c0-.48-.67-1.32-1.08-1.31-.41,0-1.18.88-1.18,1.31Z"/>
      <path d="M34.33,9.96l-2.3,1.69c2.34,2.56,3.5,1.32,6.1.02l-3.8-1.7Z"/>
      <path d="M3.37,10.23l-3.37,1.38,1.83,1.2c1.31.85,3.47.16,3.79-1.11.03-.61-1.68-1.7-2.25-1.47Z"/>
      <path d="M19.01,23.59c-2.73,0-4.93,2.21-4.93,4.93s2.21,4.93,4.93,4.93,4.93-2.21,4.93-4.93-2.21-4.93-4.93-4.93ZM19.01,32.6c-2.24,0-4.06-1.82-4.06-4.06s1.82-4.06,4.06-4.06,4.06,1.82,4.06,4.06-1.82,4.06-4.06,4.06Z"/>
    </g>
  </g>
</svg>