<?xml version="1.0" encoding="UTF-8"?>
<svg id="Warstwa_2" data-name="Warstwa 2" xmlns="http://www.w3.org/2000/svg" viewBox="0 0 37.07 45.26">
  <g id="game-icon-v5-divine-pixarts-store">
    <g id="game-icon-v5-divine-pixarts-store_184">
      <path d="M9.16,37.38c.8,4.63,4.8,8.03,9.82,7.88,4.61-.14,8.56-3.77,9.06-8.59.49-4.63-2.43-8.9-7.14-10.28l-.32-2.42-1.21,1.93c-.26.41-1.79.24-1.97-.22l-.84-2.14-.42,2.99c-4.99,1.3-7.83,5.91-6.98,10.85ZM18.57,27.74c4.4,0,7.97,3.57,7.97,7.97s-3.57,7.97-7.97,7.97-7.97-3.57-7.97-7.97,3.57-7.97,7.97-7.97Z"/>
      <path d="M37.05,1.33c.07-.34-.09-.93-.18-1.16-.06-.16-.87.15-.92.42-1.24,7.19-7.44,16.7-14.66,19.86-.38.16-.68,1.01-.63,1.38,8.08-2.38,14.66-12.51,16.39-20.5Z"/>
      <path d="M.94,0C.12.09-.11.82.05,1.52c1.81,8.02,8.55,17.92,16.43,20.36.2-1.57-1.12-1.47-2.13-2.1C7.2,15.28,2.75,8.05.94,0Z"/>
      <path d="M18.73,25.08c.86-1.46,1.05-3.18.93-4.82-.53-.1-1.74-.24-2.22-.26-.23,1.9-.28,3.71,1.3,5.08Z"/>
      <path d="M12.36,37.94l3.69.11.25,3.76c1.04.93,3.23.92,4.35.04l.26-3.73,3.76-.24c.78-1.37.96-3.14.06-4.42l-3.82-.23-.29-3.79c-1.16-.55-3.01-.79-4.09.03-.34.84-.31,2.42-.33,3.7l-3.99.34c-.56,1.48-.54,3.15.15,4.43Z"/>
    </g>
  </g>
</svg>