<?xml version="1.0" encoding="UTF-8"?>
<svg id="Warstwa_2" data-name="Warstwa 2" xmlns="http://www.w3.org/2000/svg" viewBox="0 0 53.49 49.91">
  <g id="game-icon-v5-divine-pixarts-store">
    <g id="game-icon-v5-divine-pixarts-store_88">
      <path d="M20.23,17.33c-2.3,1.09-3.14,3.68-2.19,6.23,1.46,3.92,6.1,6.18,8.72,9.38,3.08-3.64,8.09-5.9,9.04-10.32.46-2.16-.4-4.42-2.37-5.3-2.57-1.14-5.11.16-6.68,2.39-1.5-2.59-4.3-3.43-6.51-2.38Z"/>
      <path d="M26.78,43.61c-2.57-7.41-10.3-7.38-9.94-15.65-2.63,2.34-2.47,5.98-.05,8.38.65.64,2.08,1.71,2.36,2.51l1.3,3.75v-2.96c3.77,2.17,5.83,5.93,6.31,10.28.61-4.44,2.51-8.01,6.25-10.11l.14,2.88,1.23-3.8,2.77-2.92c2.22-2.34,2.17-5.88-.46-7.82.45,7.91-7.23,8.24-9.91,15.46Z"/>
      <path d="M33.65,13.62l.8-.55c2.39-1.64,5.04-2.43,8.04-3.15l-6.01,3.25c-1.06.58-2.18,1.55-2.51,2.75,2.68-1.31,4.83-2.37,7.41-3.25,5.29-1.81,10.64-6.31,9.15-12.67-4.85,11.12-20.83,7.41-21.97,15.99l4.14-2.99c.28.2.75.76.96.62Z"/>
      <path d="M12.18,12.67c2.56.92,4.85,2.01,7.63,3.24-.67-2.93-8.41-5.04-9.82-6.67l5.87,2.2c1.45.54,2.95,1.49,4.05,2.18l1.06-.6,3.98,2.83C23.43,7.43,8.12,10.98,3.09.14c-1.34,6.42,3.53,10.52,9.09,12.53Z"/>
      <path d="M49.57,10.74c-5.55,3.26-11.96,2.82-13.85,6.52,3.32-1.02,6.1-2.12,9.05-2.31-2.8,1.18-5.29,1.58-7.47,3.43,7.62-1.02,15.66-2.13,16.2-11.3-1.34,1.35-2.47,2.81-3.92,3.67Z"/>
      <path d="M16.13,18.33c-2.36-2.01-4.98-2.14-7.42-3.37,3.2.29,5.84,1.3,9.03,2.28-1-2.14-3.13-2.66-5.01-3.2C6.72,12.34,3.81,11.75,0,6.94c.58,9.21,9.08,10.78,16.13,11.39Z"/>
      <path d="M44.74,20.48l-7.06,1.31c5.84,1.6,13.13.74,15.25-5.76-6.24,4.32-11.9,1.33-15.49,4.48l7.3-.02Z"/>
      <path d="M.58,15.77c2.18,6.84,9.45,7.56,15.2,5.99l-7.11-1.28,7.43.02c-3.64-3.17-9.56.09-15.53-4.73Z"/>
      <path d="M39.89,26.21c3.22,1.12,6.8.59,9.04-1.98-5.77.85-7.96-1.56-11.65-.47l3.27,1.03-3.98.26,3.32,1.15Z"/>
      <path d="M4.81,24.31c2.31,2.53,5.71,2.96,8.72,1.94l3.39-1.16-4.41-.27,3.76-1.04c-3.16-1.37-6.31,1.34-11.46.54Z"/>
      <path d="M34.75,28.61c-1.44,5.54-6.71,4.88-7,10.34,2.63-4.33,8.06-4.86,7-10.34Z"/>
      <path d="M25.73,38.81c.2-2.48-1.58-3.9-3.18-5.16-1.78-1.25-3.08-2.79-3.6-4.8-1.22,4.87,4.82,6.37,6.78,9.97Z"/>
      <path d="M11.31,30.97c-.57,1.54-.28,3.15.75,4.5.21-2.77.91-4.87,2.62-7.41-1.84.21-2.94,1.72-3.38,2.91Z"/>
      <path d="M38.77,27.84c1.63,2.46,2.64,4.7,2.66,7.58,1.44-1.13,1.27-3.52.62-4.9-.53-1.12-1.76-2.25-3.28-2.69Z"/>
      <path d="M17.4,40.35c-1.57-2.48-2.74-4.74-3.83-7.88-.82,2.97.37,6.69,3.83,7.88Z"/>
      <path d="M39.94,32.47c-.74,3.21-2.06,5.44-3.61,7.8,3.41-1.27,4.6-4.92,3.61-7.8Z"/>
    </g>
  </g>
</svg>