<?xml version="1.0" encoding="UTF-8"?>
<svg id="Warstwa_2" data-name="Warstwa 2" xmlns="http://www.w3.org/2000/svg" viewBox="0 0 40.33 46.36">
  <g id="game-icon-v5-divine-pixarts-store">
    <g id="game-icon-v5-divine-pixarts-store_03">
      <path d="M40.33,20.36l-.14-12.62c-7.56-.36-14.07-3.17-19.97-7.74C14.2,4.71,7.52,7.48.21,7.77c-.28,5.21-.33,9.82.19,14.62,1.05,5.98,3.19,11.33,7.34,15.7,3.6,3.52,7.6,6.36,12.57,8.28,12.33-5.27,18.6-13,20.02-26ZM20.35,44.03C9.38,39.41,3.58,31.71,2.38,19.91l.03-10.05c6.58-.79,12.53-3.04,17.88-7.1,5.23,3.98,11.09,6.33,17.73,7.09l-.1,11.71c-1.49,11.19-7.36,17.79-17.56,22.47Z"/>
      <path d="M20.27,5c-5.01,3.38-10.12,5.52-16.1,6.41-.81,14.17,2.38,24.42,16.18,30.69,13.75-6.8,16.84-16.34,15.86-30.75-6.01-.97-11.11-3-15.94-6.36ZM31.87,26.59l-7.89.05-.11,8.03h-7.33s-.11-7.97-.11-7.97l-7.83-.19c-.19-2.56-.2-4.51.02-6.99l7.82-.1.1-7.68,7.27-.03.21,7.75,7.9.05c.2,2.68.19,4.65-.06,7.09Z"/>
    </g>
  </g>
</svg>