<?xml version="1.0" encoding="UTF-8"?>
<svg id="Warstwa_2" data-name="Warstwa 2" xmlns="http://www.w3.org/2000/svg" viewBox="0 0 47.07 50.56">
  <g id="game-icon-v5-divine-pixarts-store">
    <g id="game-icon-v5-divine-pixarts-store_45">
      <path d="M32.22,49.68c-1.28-4.48-1.99-8.33-2.37-12.69-3.17-2.89-5.03-6.86-5.73-11.06l-4.23-1.53c-2.61,6.53,1.02,4.38-1.65,7.25l10.78,11.34c1.04,1.09,1.53,2.73,1.54,4.16-2.06-.39-3.59-1.33-4.92-2.72l-7.96-8.35c-.73,5.04-1.42,8.91-2.66,13.47,5.61,1.29,11.62,1.34,17.21.13Z"/>
      <path d="M31.15,12.36c.91.49,3.44-1.44,3.68-3.68l.51-4.7c.84-.54,2.39.02,2.97.9l4.55,6.94c.78,1.18,1.51,2.08,3.06,2.66-1.13-3.25-2.84-7.86-5.72-9.31l1.88.11c-1.58-2.14-5.87-5.92-8.5-3.96-2.8,2.08,2.34,5.67-3.51,9.85.18.36.7.98,1.08,1.19Z"/>
      <path d="M1.29,14.61c3.23-1.7,3.75-4.73,5.78-6.98-.51,1.44-1.25,2.69-.6,4.04,2.18-1.61,2.96-5.77,1.73-4.84l-1.14.86c.55-1.55,1.87-3.49,4.03-3.9.71-.14,1.1,1.95,1.04,2.69-.4,4.8,3.46,6.41,4.07,5.71l.87-.99c-5.9-4.26-.5-8.1-3.62-10.04-2.82-1.76-6.14,2.04-8.73,4.14l2.26-.13c-2.85,1.14-4.98,6.85-5.7,9.44Z"/>
      <path d="M21.65,13.37c-.32.59-.73,1.32-1.19,1.85-2.25,2.63-.21,6.35.84,6.91.68.36,2.36.48,2.42.08l.17-4.43,3.99-1.19c-.67-.91-1.59-1.83-1.74-2.5l-.59-2.65c-1.73.42-2.25.32-3.95.11-.03.64.73,1.68,1.3,1.67.72-.02,1.68-.31,2.76-.67-.31,1.58-2.64,1.78-4.02.82Z"/>
      <path d="M24.9,18.7c-.25,6.77.78,14.95,7.38,18.58,4.72-3.37,7.41-14.53,5.8-19.11l-6.3-2.55c-2.16,1.31-4.31,2.31-6.88,3.08ZM37.47,18.85c1.14,4.56-.65,13.84-5.23,17.31-6.03-3.38-6.65-10.43-6.55-16.77,2.22-.78,4.22-1.69,6.26-2.65l5.52,2.1Z"/>
      <path d="M42.37,23.95l-.44,2.09-.49-2.82c-.49,5.84-.23,18.55,5.09,22.63-1.58-6.46-3.5-11.98-3.47-18.42,0-1.45-.12-2.58-.68-3.49Z"/>
      <path d="M5.78,22.8c-1.01,1.07-.62,2.22-.82,3.66l-.52-2.08-.27,4.89c-.33,5.88-2.18,11.1-3.37,16.7,5.46-5.11,5.34-17.03,4.98-23.17Z"/>
      <path d="M25.58,43.29c1.12,1.17,2.09,2.03,3.98,2.75-.33-1.53-1-2.55-1.99-3.57l-10.72-11.03c.89-.57,1.38-.95,1.66-1.68-2.53.53-3.96,2.46-4.38,4.74l1.68-1.43,9.78,10.22Z"/>
      <path d="M40.88,22.52c-.44.28-.73.56-.84.47l-.59-.48c-.93,7.04-.53,4.81-.3,10.86.12,3.07.73,6.1,3,8.25l-1.05-7.55c-.54-3.9-.19-7.82-.22-11.55Z"/>
      <path d="M11.1,24.8l-.3-3.87c-3.19.96-.59,4.5-1.71,5.16l-.44-4.77-2.2,2.16-.29,9.13-1,9c4.76-5.49,1.98-13.18,2.83-19.15.82,4.5.01,8.41,1.13,12.27.81-1.88,1.42-4.02,1.75-5.85-.61-.7-1.66-2.14-1.15-2.81.23-.31,1.41-.88,1.38-1.26Z"/>
      <path d="M7.29,12.81l-1.19-.21c-1.42,3.36-2.56,6.88-1.59,10.81.78-1.67,1.29-3.35,1.81-5.2l1.11-3.94c.08-.3.15-1.41-.14-1.46Z"/>
      <path d="M4.12,17.15l1.02-5.07c-1.12,1.15-2.92,2.46-3.31,3.94-.9,3.38-1.27,6.75-1.64,10.17,3.09-2.51,3.06-5.96,3.93-9.04Z"/>
      <path d="M42.04,12.44l1.81,7.9c.51,2.22,1.45,4.45,3.22,5.85l-1.12-7.49c-.4-2.68-1.33-4.9-3.91-6.26Z"/>
      <path d="M3.53,30.27l.14-4.95c.02-.61-.45-1.86-.35-2.33l-1.71,3.69c-.24,3.8-.68,6.99-1.61,10.68,2.4-1.61,3.45-4.26,3.53-7.09Z"/>
      <path d="M43.72,23.31c-.35,4.12-.88,10.95,3.35,13.87-2.02-6.67.36-9.75-3.35-13.87Z"/>
      <path d="M22.34,4.06c-.86.29-1.57,1.56-1.8,2.7l-.64,3.24c-.06.31.95,1.05.99.73l.14-1.15c.11-.92.37-1.85.9-2.48l1.6-1.91c1.29,2.3,3.88,2.35,2.33,5.2.1.19.91.51,1.08.28.72-.94-.47-4.39-1.09-5.87-.44-1.05-2.51-1.08-3.52-.74Z"/>
      <path d="M19.06,11.53c-2.35.89-4.09,3.2-3.35,5.85,1.61.11,5.21-3.07,4.76-4.15-.22-.52-.94-1.41-1.41-1.7Z"/>
      <path d="M41.97,14.37l-.82,1.14c-.26-1.25-.42-2.09-1.37-2.77.7,4,1.18,7.62,3.12,11.16.25-1.6.36-3.38.05-4.87l-.99-4.66Z"/>
      <path d="M13.73,26.89c-.05.42.16,1.29.52,1.43.36.15,1.27-.35,1.42-.75l1.45-3.95-2.81-1.88-.58,5.15Z"/>
      <path d="M7.98,13.61c-.91,2.68-1.53,5.69-1.36,8.67,2.22-2.08,2.16-5.36,2.7-7.97.09-.43-1.21-1.08-1.34-.71Z"/>
      <path d="M24,11.09c.76-.27,1.79-1.87,1.54-2.56-.29-.81-1.46-1.9-2.08-1.89-1.13.24-1.9,1.72-1.56,2.73.24.72,1.17,2.06,2.1,1.73Z"/>
      <path d="M27.85,11.79c-1.58.53-.78,2.78.09,3.55.74.66,3.16.43,3.06-1.2-.06-.98-2.25-2.46-3.15-2.36Z"/>
      <path d="M19.46,5.03c-.24-1.3-.14-2.45.82-3.1,2.04-1.37,4.14-1.57,6.2-.35,1.24.73,1.36,1.86,1.38,3.46.5-.33.85-1.75.61-2.45-.78-2.29-5.33-3.77-8.77-1.36-1.32.92-1.63,2.97-.25,3.8Z"/>
      <path d="M15.53,21.58c.26.24.98.55,1.55.78.88-1.42,1.5-2.82,1.67-4.74-1.37.08-2.99.72-3.25,2.02-.14.7-.28,1.65.03,1.94Z"/>
      <path d="M39.23,18.26c.35,1.33.06,2.78,1.24,3.63.3-3.23.02-6.08-1.63-8.85-.89,1.81-.05,3.53.39,5.23Z"/>
      <path d="M11.11,7.57c-2.25.42-3.1,3.09-3.01,5.38l2.59-3.06c-.47,1.26-.83,2.41-.78,3.83l1.72-1.96c-.29,1.26-.43,2.2.11,3.34.87-.95,1.5-2.09,1.45-2.83l-2.31-3.14c-.15-.2-.62-.45-.51-.6l.73-.96Z"/>
      <path d="M10.3,14.12c-1.07,2.43-1.24,4.46-.77,7.01l1.29-3.14c.51-1.24.44-2.85-.52-3.87Z"/>
      <path d="M36.26,5.74l-.17,3.41,2.25,3.18c1.6-.72-2-5.77-.37-4.07.25.26.54.54.63.67l2.15,3.13c1.31-2.06-3.41-9.04-4.49-6.32Z"/>
      <path d="M15.64,30.04c0-.76-.62-1.38-1.38-1.38s-1.38.62-1.38,1.38.62,1.38,1.38,1.38,1.38-.62,1.38-1.38Z"/>
      <path d="M11.87,20.2c-.9,1.87-.77,3.99.29,5.44.83-1.8.84-3.66-.29-5.44Z"/>
      <path d="M38.54,29.37c-1.17,2.13-2.2,3.79-.18,5.88.17-1.9.23-3.62.18-5.88Z"/>
      <path d="M12.65,15.56c-1.79-.68-1.52,4.33-1.25,4.49,1.44-1.05,1.41-2.98,1.25-4.49Z"/>
      <path d="M23.61,23.47l-3.55-.84c.12,1.33,2.8,2.31,3.84,2.08.25-.06-.03-1.18-.29-1.24Z"/>
      <path d="M14.46,15.83c-.46-.16-1.36.69-1.36,1.12l-.04,3.64,1.79-1.91c-.86-.26-1.18-.36-1.08-.32l.69-2.52Z"/>
      <path d="M34.28,13.73c.12-.37-.59-1.21-.97-1.16-.39.05-1.27.85-1.02,1.11l1.27,1.35c.17-.13.61-.95.72-1.31Z"/>
      <path d="M32.19,35.46c4.25-3.98,5.08-10.76,4.69-15.99l-4.81-1.86-5.76,2.46c.21,5.5.66,11.54,5.88,15.38ZM28.63,23.87c0-.35.92-.22,1.4-.27l1.22-.11c.79-.07-.68-2.87.69-3.65,2.71,1.31-.88,3.38,2.21,3.64l1.44.12c.33.03.09,1.38-.23,1.42l-2.51.27.02,6.44c0,.27-.58,1.14-.74.99-.15-.15-.65-.72-.65-.96l-.02-6.44-2.81-.09-.03-1.36Z"/>
    </g>
  </g>
</svg>