<?xml version="1.0" encoding="UTF-8"?>
<svg id="Warstwa_2" data-name="Warstwa 2" xmlns="http://www.w3.org/2000/svg" viewBox="0 0 48.22 48.03">
  <g id="game-icon-v7-magic-pixarts-store">
    <g id="game-icon-v7-magic-pixarts-store_159">
      <path d="M36.28,6.98c-.99-1.58-2.55-3.39-4.46-4.59-1.27-.8-3.79.26-5.22.46-.73.1-2.32.09-2.79.54l-10.41,10.21c-1.7,1.66-3.96,3.02-5.37,4.57-2.05,2.26-3.86,4.68-6.09,6.49.03-.01.61.9.63,1.21l.38,5.57,8.69,8.81c1.73,1.76,3.75,3.16,5.13,4.82-.67.62-1.46,1.64-1.85,1.39s-1.3-.94-1.69-1.33l-9.64-9.74C1.19,32.97-.3,31.47.05,27.73c.16-1.68-.08-3.75,1.52-5.28L23.32,1.53c1.12-1.07,7.33-2.76,10.72-.12l4.47,3.49c-.96,2.21-.26,4.15,1.31,5.82l5,5.33-.71,6.23c-.27,2.4-3.19,4.46-5.4,5.55-1.83.9-2.2,2.42-3.18,3.88-3.27,4.86-7.97,8.47-12.38,12.28l-5.52-.02c-.87,0-2.05-2.21-2.78-2.7-4.64-3.16-5.69-4.46-9.26-8.83-.15-.19.09-1.54-.14-1.59l-1.63-.35-.23-5.74c-.05-1.28,2.48-2.7,3.27-3.67,2.05-2.51,4.27-4.39,6.7-6.57,3.43-3.08,6.44-6.29,9.77-9.66.68-.69,1.97-1.12,2.82-.91,3.95-2.14,6.85-.4,10.14,3.03ZM30.13,9.89l-1.73-1.52,2.15-1.44-3.65.68c.31.93.74,1.61.5,1.91l-1.17,1.47,3.9-1.1ZM31.3,16.13l2.77-.15-1.27-2.55,3.36-.76c-1.64-.41-2.46-.39-4.16-.24l.49,2.83-1.2.87ZM40.51,20.17l-.77-4.16c-1.86,1.51-3.05,2.69-4.29,4.03,2.37-.15,2.6-.14,5.06.13ZM28.4,17.35c-.84,1.05-1.27,1.8-1.57,1.65s-1.18-.58-1.15-.56l2.2-2.7c-2.13.59-3.29,2.32-4.39,3.79l3.11-.25c.45-.04,1.78-.3,1.79-.75,0-.37.02-1.35.02-1.18ZM21.46,17.26l3.66-3.78-2.84.45.08-2.89c-1.32.8-2.51,1.93-3.8,3.8l2.11-.73.79,3.15ZM32.7,28.68c1.82-1.93,2.14-2.23,3.96-3.35l-2.22.06c.04-.78.1-1.86.1-1.75-1.32,1.44-1.8,1.9-3.35,3.27l2.15-.35-.63,2.13ZM17.52,20.8l-1.97-1.1c-.18-.1.27-.66.42-.8l.99-.89c-.15.01-1.17.17-1.94.3-.49.08.1,1.28.58,2.22-.03.04-1.41-.53-1.42-.15l-.09,1.89,3.44-1.47ZM30.5,32.66l-2.22-3.53-3.29,3.97,5.51-.44ZM14.61,31.63c.39.01,1.22-.7,1.22-1,0-.23-.01-1.01,0-.62l-1.77-.44c-.2-.05.33-.61.51-.7l.92-.46c-.01-.43-1.94-.63-1.9-.03l.17,2.37c-.61-.02-1.53.1-2.66.76l3.52.12ZM17.39,36.8c1.6-.69,1.94-2.09,1.65-3.53l-.3-2.03-3.83,4.11,3.53-1.42-1.04,2.86Z"/>
      <path d="M36.39,32.63c.93-2.44,2.6-3.45,4.35-4.95,5.51-4.72,4.37-4.81,4.59-8.03.42-6.08.66-2.28-5.15-9.94-.87-1.14-1.5-2.35-.75-3.96,2.76,3.03,5.29,5.62,7.68,9.03,1.87,2.67,1.27,7.72-.9,10.08l-10.36,11.25c-1.22,1.33-2.37,2.44-4.56,2.02l5.1-5.49Z"/>
      <path d="M15.5,47.47c2-3.04,5.77-3.23,7.74-1.85l5.51-5.44c.7-.69,2.49-.73,3.41-.27l-6.26,6.3c-2.81,2.82-5.98,1.62-10.39,1.26Z"/>
    </g>
  </g>
</svg>