<?xml version="1.0" encoding="UTF-8"?>
<svg id="Warstwa_2" data-name="Warstwa 2" xmlns="http://www.w3.org/2000/svg" viewBox="0 0 42.03 42.79">
  <g id="game-icon-v7-magic-pixarts-store">
    <g id="game-icon-v7-magic-pixarts-store_226">
      <path d="M8,37.95c-1.24-1.03-2.21-2.02-3.23-3.29,4.4-3.84,8.42-7.65,12.26-12.11.87,1.09,1.87,2.14,2.92,3.03l-11.96,12.37Z"/>
      <path d="M26.35,22.36c-2.09.92-3.96.78-5.32-.78-1.37-1.58-2-3.54-.62-5.51.67.77,1.02,1.66,1.4,2.92l1.64-4.25c1.93-.77,3.76-1.36,5.92-1.87-.53,2.43-1.11,4.67-1.81,6.76l-3.92,1.26c1.25.41,1.89.63,2.71,1.47ZM26.57,17.8c.55-.84.74-1.98.84-2.91l-3.03,1.06-.56,2.93c.7-.16,2.33-.44,2.74-1.08Z"/>
      <path d="M37.69,13.31c-.75.76-1.32,1.75-1.97,2l-3.98,1.51c2.69.19,4.26-2.24,6.53.53l-6.87.9c-.49.06-1.52-.38-2.08-.68,3.34-3.31,7.95-6.4,12.58-3.46l-3.26,2.97-1.25-1.43,2.21-.92-2.24.1.32-1.54Z"/>
      <path d="M36.47,6.43l3.46-4.07c-1.6,1.05-2.5,1.94-4.17,3.35l-.43-4.04,6.71-1.67-1.39,6.96-4.17-.53Z"/>
      <path d="M30.11,15.62c-.86-3.1,3.5-6.15,5.55-8.35,1.47.08,2.97.24,4.56.5l-10.1,7.86Z"/>
      <polygon points="30.52 11.49 26.72 12.38 34.57 2.12 34.93 6.89 30.52 11.49"/>
      <path d="M27.42,3.35l-.6,1.62-1.25-.98c.67,1.51.96,2.62.55,4.06l-1.39,4.82c-1.01-1.86-.49-3.54-.22-5.38.4-2.82,1.29-5.2,3.73-6.96,2.43,5.27.89,7.15-2.51,11.51.23-2.02.73-3.95,1.47-5.73l1.95-1.47-1.53.42-.2-1.91Z"/>
      <path d="M4.14,39.48c.52.14,1.24,1.15,1.16,1.78-1.69.71-3.35,1.15-5.3,1.52l.94-4.64c.08-.39,1.09-.9,1.43-.71.46.26,1.01,1.13.73,1.54l-1.44,2.15,2.48-1.65Z"/>
      <path d="M22.75,14.57l-1.03-3.6.06,5.53c-1.44-1.93-2.05-6.51-.4-8.78,1.3,1.61,3.4,6.06,1.37,6.84Z"/>
      <path d="M26.45,20.99c1.79-.64,2.99-.03,4.92-.02l-2.99-1.32.34-.74c.24-.51,4.7,1.11,5.61,2.04-1.4,2.3-5.7.76-7.88.03Z"/>
      <path d="M18.65,19.97c1.22,1.86,4.58,3.84,3.78,4.66-1.58,1.63-5.16-2.27-4.7-3.8.1-.32.71-.83.92-.86Z"/>
      <path d="M4.42,35.57c1.58,1.76,4.12,3.74,3.09,4.26-1.73.89-4.28-2.44-4.96-3.64-.15-.26.24-.94.51-1.06.35-.15,1.08.12,1.36.44Z"/>
    </g>
  </g>
</svg>