<?xml version="1.0" encoding="UTF-8"?>
<svg id="Warstwa_2" data-name="Warstwa 2" xmlns="http://www.w3.org/2000/svg" viewBox="0 0 46.29 44.02">
  <g id="game-icon-v7-magic-pixarts-store">
    <g id="game-icon-v7-magic-pixarts-store_177">
      <path d="M9.15,34.83l.65-6.32,1.57-1.07c-.99-.61-1.39-.9-1.4-1.93l-.15-9.41c0-.24.62-.97.79-1.09.23-.16-.5-.59-.9-.88l-.49-4.72c9.37-1.43,18.56-1.42,27.8.05l-.58,4.52c-.03.26-.84.71-1.06.86s.84.96.85,1.25l.17,12.73c0,.21-.74.99-.88.89-.21-.14.63.44.92.64l.55,4.5c-9.35,1.31-18.19,1.38-27.83,0ZM13.96,10.67c-1.82.57-2.11,2.65-1.42,4.24.57,1.31,2.48,1.75,3.61,1.34,1.86-.69,2.05-2.39,1.73-3.93-.31-1.54-2.33-2.14-3.92-1.64ZM33.99,13.37c0-1.65-1.34-2.99-2.99-2.99s-2.99,1.34-2.99,2.99,1.34,2.99,2.99,2.99,2.99-1.34,2.99-2.99ZM17.36,19.91c.73-2.35,2.26-3.19,4.53-4.19-1.62-.63-2.86.75-3.92,1.77l-1.14,1.1c-.25.24.34,1.12.52,1.32ZM25.12,15.7c1.75,1.45,2.97,2.58,4.2,4.31,1.27-.64-2.52-5.05-4.2-4.31ZM28.22,21.85c-.1-3.26-2.6-5.33-5.56-5.06s-4.79,2.45-4.77,5.53c.03,3.26,2.26,5.41,5.45,5.24,2.77-.15,4.98-2.4,4.87-5.7ZM29.35,23.62c-1.24,2.1-2.55,3.56-4.42,4.99,1.32.63,5.46-3.5,4.42-4.99ZM23.27,29.63l1.02-1.3c-3.59.71-5.68-1.5-7.47-4.41-.18,3.29,3.31,4.82,6.02,5.19-.39,1.33-.41,2.76.24,3.61.87-.79.89-2.24.19-3.09ZM29.3,32.96c1.25,1.5,3.22.84,4.22-.44.93-1.2.83-2.64-.52-3.94-.98-.94-2.64-1.06-3.81-.03-1.09.95-1.83,3-.37,3.96-.31-1.5-.29-2.86.76-3.59,1.22-.83,2.51-.64,3.4.44.94,1.14.78,2.15-.24,3.22-.89.93-2.02.62-3.43.38ZM17.29,28.59c-.81-.92-3.08-.85-4.07-.06-1.44,1.14-1.46,3.48-.19,4.57,1.04.89,3.17,1.09,4.32-.07.95-.95,1.32-2.88-.06-4.43ZM32.58,30.53l-.49,1.37c-.05.15.63.05.71-.08.41-.71.02-2.44-1-2.88-.79-.34-2.03.28-2.34,1.01-.47,1.11-.24,2.44.92,2.57l-.43-2.14,2.63.16Z"/>
      <path d="M37.81,43.36c-9.89-1.33-19.37-1.42-29.14-.03-1.71-2.2-1.7-5.07-.22-7.52,9.8,1.31,19.41,1.36,29.35-.02,1.35,2.25,1.29,4.99,0,7.57Z"/>
      <path d="M37.78,8.4c-9.87-1.39-19.48-1.48-29.33.02-1.43-2.48-1.43-5.4.28-7.55,9.76,1.33,19.27,1.43,28.93,0,1.68,2.3,1.61,5,.12,7.54Z"/>
      <path d="M39.18,8.57c3.46-4.42-1.47-9.47,1.04-8.43,2.99,1.24,1.92,10.9-1.04,8.43Z"/>
      <path d="M39.39,35.41c3.53-1.82,2.72,8.89,1.36,8.48l-1.28-.39c1.26-2.65,1.35-5.34-.08-8.09Z"/>
      <path d="M7,43.47l-1.04.53c-.23.12-.82-.51-.94-.76-1.48-3.05-.41-8.86,1.42-8.12,1.18.48-2.42,3.88.57,8.35Z"/>
      <path d="M6.77,8.16c.22.3-.66,1.07-.84.91C3.4,6.89,4.1.45,6.2.15c2.05-.3-2.23,4.19.57,8.01Z"/>
      <path d="M3.1,6.51c-.98-.43-1.88-.97-3.08-1.79l3-1.97c.8,1.04.77,2.29.08,3.75Z"/>
      <path d="M3.01,41.31l-3.01-1.87,2.94-1.98c.92,1.24.66,2.36.06,3.85Z"/>
      <path d="M46.29,4.66l-3.09,1.97c-.44-1.33-.43-2.24-.07-3.87l3.16,1.9Z"/>
      <path d="M46.2,39.46l-2.86,1.85c-.69-1.31-.79-2.47.06-3.72l2.8,1.88Z"/>
      <path d="M20.31,21.76l.65-1.92c.18.96.41,2.21.9,2.7.43.45,1.44.34,2.47.3.1.1-.64,1.37-.99,1.3l-1.27-.25c.54.79,1.52.87,2.15.46,3.23-2.08-2.21-3.32-.49-4.92.08-.07.88.22.97.28.1.07.03-.09.01-.28l-.07-.66c1.24.2,1.88,1.71,1.88,2.97,0,1.42-.74,2.64-2.03,3.45l-2.24,1.4-2.43-2.23c-.63-.58-.57-2.24-.35-3.24l.86.65Z"/>
      <path d="M33.44,13.37c0,1.36-1.11,2.47-2.47,2.47s-2.47-1.11-2.47-2.47,1.11-2.47,2.47-2.47,2.47,1.11,2.47,2.47ZM30.61,11.48c-1.27.4-1.49,1.84-1.21,2.69.22.65,1.4,1.24,2.2.97.64-.21,1.44-1.54,1.31-2.24s-1.62-1.63-2.31-1.41Z"/>
      <path d="M14.46,11.02c1.05-.32,2.68.53,2.97,1.41.46,1.37-.23,2.84-1.43,3.28-1.38.51-2.69-.12-3.21-1.5-.43-1.16.08-2.7,1.66-3.19ZM15.88,13.65c-.14.59-.17.98-.42,1.09l-1.19.54c.49.17,1.72-.01,2.07-.48.3-.4.47-1.69.33-2.22-.32-1.2-2.05-1.35-2.77-.61-.67.7-.77,1.9-.31,2.61l.89-2.48c.1-.28,1.68.08,1.62.38l-.22,1.16Z"/>
      <path d="M15.71,29.56c.38.56.13,2.29.15,2.22-.16.48-1.4.4-1.74.02-.35-.39-.24-1.76.16-2.11.23-.2,1.25-.37,1.43-.12Z"/>
    </g>
  </g>
</svg>