<?xml version="1.0" encoding="UTF-8"?>
<svg id="Warstwa_2" data-name="Warstwa 2" xmlns="http://www.w3.org/2000/svg" viewBox="0 0 39.01 43.47">
  <g id="game-icon-v7-magic-pixarts-store">
    <g id="game-icon-v7-magic-pixarts-store_194">
      <path d="M22.65,27.16c5.15.9,9.93-1.15,12.77-5.71l-.03,2.8c2.9-3.1,2.8-6.95,2.73-11.02,2.12,5.76.42,12.03-4.14,16.15-3.76,3.39-8.83,4.59-13.67,3.1l2.34-5.32ZM34.06,26.77l-.85.78c-.11.1-.47-.18-.4-.31l.4-.76c.14-.27-.77-.4-1.03-.24-.24.14-.8.56-.64.8l.69,1.04c.23.35,1.13.38,1.44.12.44-.37.7-1.3.4-1.42ZM28.81,31.39c.65-1.02.7-1.28.88-1.22l1.22.38-1.01-2.68c-.08-.21-1.05.19-.94.37l.55.97-2.11-1.29c.46,1.6.83,2.55,1.42,3.48Z"/>
      <path d="M18.89,26.55c-2.99,2.55-2.28,3.12-9.1,4.34l4.53-2.62c.47-.27.9-1.3.72-1.79-1.04.9-1.85,1.74-3.19,2.39l5.08-7.41c.95-1.38,2.68-2.35,4.37-2.58,5.79-.8,7.69,1.44,11.33-1.97.2-.19.8-.41.98-.49.24-.11.54.94.33,1.18-.8.89-2.4,2.16-3.53,2.98l1.24.13c-1.5,3.35-4.02-.56-10.31,1.76-.4.15-1.08.9-1.2,1.13,1.18-.46,2.01-.79,3.22-.87l-4.48,3.83Z"/>
      <path d="M15.13,8.87c-3.98,6.24.12,10.53-1.38,11.84l-3.81,3.31c-2.7-4.74-2.62-9.95.15-14.66,2.26-3.86,6.62-7.12,11.85-7.16-4.03,1.39-7.74,3.45-9.29,7.81l2.48-1.13ZM12.15,14.17c.17-.15.43-.71.48-.93s-.81-.46-.92-.26l-.47.87-1.08-2.17-.97,2.1c.88.57,1.17.77,1.86,1.31l1.1-.92ZM9.52,20.04l2.8-.11c.25-.01.91-.72.67-.77l-1.7-.31,1.24-1.9-3.45.38c-.01.46-.1.84.06.82l.86-.1.98-.11c.12-.01.12.28.16.5l-1.63,1.6Z"/>
      <path d="M20.92,18.29l.14-1.4c-.71,1.1-1.41,1.91-2.67,2.4.77-4.68,3.06-5.57,1.2-9.4v3.91s-.97-3.3-.97-3.3c-.44-1.48.07-3.14,1.38-3.96l.53,3.16c1.42-1.17,2.45-2.48,3.04-4.11.96-2.67,3.47-4.05,6.36-3.58,2.74.45,4.81-.23,7.3-2.02-.51,3.28-3.3,3.08-6.07,3.36l2.94.35c-1.46.79-3.01.92-4.23.41l1.17-.64c-3.49-.51-5.81,4.96-7.61,7.24.11-1.16.38-2.23.81-3.65-1.49,2.2-1.83,4.42-1.25,7.07l.83,3.75-2.9.4Z"/>
      <path d="M3.21,37.29c.62-1.72,1.37-2.82,2.38-4.36,1.96-1.1,8.14-2.53,10.28-2.63l2.05-1.54c-.22,1.85-1.54,3.04-3.17,3.57l-5.62,1.8c-.8.25-1.58.47-2.35.63-1.06.8-1.96,1.53-3.57,2.54Z"/>
      <path d="M1.29,43.16l-1.13.21,1.28-1.89-1.04.37c-.25.09-.56-.82-.32-1.05,2.75-2.67,7.43-6.46,11.56-6.63l-4.56,3.1.54.59c.09.1-2.09,2.74-3.01,4.38-.72,1.28-2.15,1.51-3.31.92Z"/>
      <path d="M32.11,12.66l-4.09,1.52,1.44-4.36,1.58-.52c-1.25-.17-1.67-.08-2.76-.69l5.7-2.1-.02.86c0,.09-.11.33-.02.29l.96-.36c-.34,1.92-.78,3.8-1.33,5.92-1.32-.51-.73-1.29-.98-2.62l-.47,2.08Z"/>
      <path d="M28.71,10.7l-1.83,4.38c-.05.13-.4.48-.48.54s-.14,0-.16-.11c-.03-.11-.11-.73-.07-.88l1.61-5.49c.71-.02,1.21.91.94,1.56Z"/>
      <path d="M33.1,13.83c-1.96.98-3.85,1.77-6.17,2.19-.35-.26,5.95-4.09,6.17-2.19Z"/>
    </g>
  </g>
</svg>