<?xml version="1.0" encoding="UTF-8"?>
<svg id="Warstwa_2" data-name="Warstwa 2" xmlns="http://www.w3.org/2000/svg" viewBox="0 0 49.05 50">
  <g id="game-icon-v7-magic-pixarts-store">
    <g id="game-icon-v7-magic-pixarts-store_235">
      <path d="M7.08,48.79c-.83,1.43-2.71,1.61-3.87.46l2.47-2.96c-1.83.36-3.34,2.9-4.58,1.26-.45-.6-.33-1.43.2-1.84l-1.17-.47c-.32-.13.05-1.26.36-1.46,3.09-2.09,6.64-4.52,9.43-6.9-.67-2.25,4.25-4.33,6.12-4.78,1.07-.26,1.97-.61,2.9-1.23l-3.45.55c.52-1.31.76-2.03,1.03-3.11,3.73-3.19,4.29-2.49,8-6.93-.12,2.42-1.46,5.04-3.53,6.2-.99.55-2.46.45-2.83,1.71,1.98-.96,4.37-1.66,5.59-3.42,3.61-5.22,1.09-10.77,5.15-12.39.26,3.6-.78,6.88-2.09,10.61,3.44-4.13,2.99-9.41,2.85-14.57-.06-2.29,2.09-4.78,3.7-6.06l.41,7.43c.06,1.16-.91,7.94-1.57,9.87,1.49-1.12,3.44-1.19,5.25-.24-2.69,2.59-4.23.95-6.02,2.68l-2.19,2.13.34-1.87-3.09,2.85c-1.96,1.81-4.26,2.89-5.87,5.09,1.57-.79,2.7-1.64,4.14-2.59-3.77,7.9-8.59,3.29-12.85,7.44,2.28-.58,4.27-1.1,6.57-1.42-.64,2.28-2.44,1.34-4.31,2.18l2.34.4-7.53,6.63c-.96.84-1.65,2.08-2.15,3.26l2.45-2.27-2.18,3.76ZM29.53,21.74c1.45-1.48,1.52-3.4,1.86-5.31.26-2.11.36-4.14.17-6.1l-.79,5.5-1.25,5.91ZM5.7,43.76c1.5-.99,4.37-2.81,5.51-4.62l-5.68,3.97-.75.02c-.18,0-.36.63-.2.56.11-.04,1.02.13,1.12.07Z"/>
      <path d="M42.92,10.51l-.34-4.34-3.31.22c.15-1.64.71-4.27,2.65-5.09,1.85-.79,4.01-.39,6.18-.13.29,2.46.32,4.57.04,7.17l-5.23,2.18Z"/>
      <path d="M39.81,19.61l-6.16-1.05c2.51-1.64,4.45.07,6.81-.91l-5.3-.43c-.27-.02-.97-.4-.83-.57,1.48-1.72,8.81-.98,11.3-.31-1.27,1.42-3.9,3.6-5.82,3.27Z"/>
      <path d="M34.88,14.32c.23-1.51.48-3.21,1.3-4.4,1.01-1.45,3.08-1.61,4.68-1.56.24,1.66-.13,3.42-1.16,4.54-1.14,1.25-2.99,1.69-4.83,1.42Z"/>
      <path d="M34.7,8.58c.26-1.24.69-1.7,1.49-2.96l-1.64.71-.27-2.51c1.78-1.43,3.63-2.67,5.75-3.82l-1.86,6.32-3.46,2.25Z"/>
      <path d="M42.84,15.04l1.67-2.2-4.08,1.87,2.33-3.38,6.29-1.95c-.7,1.19-3.4,7.55-6.21,5.66Z"/>
    </g>
  </g>
</svg>