<?xml version="1.0" encoding="UTF-8"?>
<svg id="Warstwa_2" data-name="Warstwa 2" xmlns="http://www.w3.org/2000/svg" viewBox="0 0 37.6 47.49">
  <g id="game-icon-v7-magic-pixarts-store">
    <g id="game-icon-v7-magic-pixarts-store_93">
      <path d="M3.54,9.23l.91,3.85c.63-1.41.41-3,1.18-3.65.96-.81,2.62-.8,3.75-1.23-1.39-.44-3.2-.67-4-1.4l-.85-3.85-.99,4.09c-.87.39-2.33.74-3.55,1.11l3.54,1.07Z"/>
      <path d="M28.96,7.09c.58-.39,1.65-.6,2.57-.86l-2.83-1.02-.86-2.97c-.31.93-.44,2.29-.94,2.9-.37.46-1.82.72-2.39.96l2.66,1.14.71,2.84c.44-1.32.51-2.62,1.07-2.99Z"/>
      <path d="M16.37,3.26l1.4-.39c-.71-.34-1.61-.5-1.72-.96l-.49-1.9-.53,1.86c-.12.41-1.05.66-1.58.92,1.24.25,1.84,1.05,2.06,2.24.36-.92.49-1.66.86-1.76Z"/>
      <path d="M5.33,21.72l-.54-1.56c-.23.53-.33,1.48-.68,1.62l-1.48.59c1.35.34,1.93,1.01,2.15,2.1.16-1.64,1.14-1.85,2.25-2.12-.49-.19-1.56-.26-1.69-.63Z"/>
      <path d="M28.52,45.08c3.3-1.89,4.59-5.41,3.55-9.03-.73-2.53-2.09-4.91-3.87-6.86l-4.05-4.44-.68.34c-.15.07.1.83.2.98l1.61,2.45-1.44-.8c1.11,2.41,2.18,4.39,1.66,6.8-.2.91-1.01,1.86-1.79,1.68-2.48-.56.12-3.03-1.53-6.27l-2.15-4.2-.4,2.98-.9-2.5-2.31.14c-.9,1.95-1.73,3.69-2.1,5.95l1.1-1.75c-.12,1.25-.48,2.4-1.13,3.37-.74-.24-.98-1.56-.7-2.29l2.05-5.44c-.66-.23-1.54-.45-1.93-.39-.94,1.18-1.91,2.4-2.92,3.42.3-1.1,1.32-2.47,1.87-3.26.17-.24-.15-1.24-.39-1.11-.18.09-.6.37-.76.56-3.38,3.97-8,9.08-7.12,14.57.83,5.22,7.63,6.58,11.98,7.39,3.25.61,5.72-.67,8.47-2.36l-1.33,1.77c1.74-.42,3.58-.85,5.02-1.67ZM29.75,37.54c.64,1.3.45,3.46-1.13,4.65l1.13-4.65ZM6.44,37.95c.4,1.77,1.09,3.33,2.01,4.98-1.83-1.01-2.48-3.07-2.01-4.98Z"/>
      <path d="M23.41,15.2c-4.89-2.06-4.79,4.66-11.31.57l-3.51,1.05,3.13,3.67c.94,1.1,2.32,1.89,3.62,1.89-.89-1.89-1.66-3.15-2.07-5.06l3.25,5c.54.83,2.73.54,3.05-.2.72-1.68,1.27-2.92,2.17-4.26l-.98,4.15c.73-.36,2.02-.86,2.45-1.34l4.43-4.98c-1.68.03-2.95.06-4.23-.48Z"/>
      <path d="M7.65,15.64c2.4,1.53,4.83-1.74,5.48-1.18l1.08.93c2.17,1.87,4.34-1.2,6.54-1.51l-2.02.07c1.27-.3,2.81-2.18,1.92-3.02-2.44-1.5-5.6-.13-7.86,1.09,1.25.44,2.4.83,2.68,2.01-1.1-.49-1.97-.85-3.06-1-2.12-.3-3.99.76-4.76,2.6Z"/>
      <path d="M27.8,14.09c-.47-2.37-5.56-2.51-7.07-1.06l4.04,1.71c.88.37,2.53.07,3.04-.65Z"/>
      <path d="M24.92,23.07c1,2.02,4.45-1.05,7.93,4.72,1.93-4.05-5.86-6.15-7.93-4.72Z"/>
      <path d="M12.51,22.6c-.2-.1-.65.5-.52.64,2.02,2.34,8.33,2.89,8.71-.14-2.46,1.33-6.07.55-8.19-.5Z"/>
      <path d="M21.34,25.12c-.32,2.73,3.43,4.88,2.2,9.08-.68,2.32,4.78.24-2.2-9.08Z"/>
      <path d="M35.53,17.12l-.81-2.67c-.14.79-.31,1.82-.59,2.41-.24.49-1.32.66-2.04.99.6.3,1.8.43,1.99.89.22.52.51,1.39.73,2.02.24-.68.48-1.67.77-2.09.29-.42,1.34-.59,2.02-.88l-2.07-.68Z"/>
      <path d="M33.55,29.42c.16.77.55,2.58,1.31,2.58l2.02.02c.77-.49-.27-2.99-1.34-2.85l-1.99.25Z"/>
      <path d="M23.09,21.89c-.78.37-1.79,1.44-2.06,2.67,1.09-.02,1.4-.54,2.54-1.35l-.33,1.13c.27-.23.67-.73.84-1.1.18-.37-.59-1.55-.99-1.36Z"/>
    </g>
  </g>
</svg>