<?xml version="1.0" encoding="UTF-8"?>
<svg id="Warstwa_2" data-name="Warstwa 2" xmlns="http://www.w3.org/2000/svg" viewBox="0 0 41.17 50.48">
  <g id="game-icon-v7-magic-pixarts-store">
    <g id="game-icon-v7-magic-pixarts-store_28">
      <path d="M20.58,50.48c11.37,0,20.58-9.22,20.58-20.58S31.95,9.31,20.58,9.31,0,18.53,0,29.9s9.22,20.58,20.58,20.58ZM20.58,10.64c10.63,0,19.25,8.62,19.25,19.25s-8.62,19.25-19.25,19.25S1.33,40.52,1.33,29.89,9.95,10.64,20.58,10.64Z"/>
      <path d="M21.55,8.35l.74-3.91c-.84-.52-2.35-.53-3.33-.14.04,1.35.29,2.69.59,4.07l2.01-.02Z"/>
      <path d="M31.56.12c-.22-.2-1.22-.04-1.48.3-2.78,3.63-6,3.97-7.25,5.2-1.95,1.92,7.3-1.28,8.73-5.5Z"/>
      <path d="M18.48,5.92C15.89,3.73,12.72,3.18,11.08.17c-.15-.28-1.59-.19-1.4.08,2.04,2.9,5.07,5.76,8.8,5.67Z"/>
      <path d="M16.58,19.78c-3.36,4.11-3.9,9.58-1.73,14.39,1.91,4.24,5.99,7.57,11.15,7.99,4.5.36,9.27-1.6,11.32-5.83,3.53-7.29.15-19.53-9-21.06-4.38-.73-8.93,1.09-11.73,4.52ZM20.64,36.14l-.13-1.57c-.03-.35-1.25-.4-1.31-.05l-.22,1.37c-.25-.59-.48-1.31-.33-1.65.18-.4,1.23-.61,1.76-.41.3.12.78.9.72,1.21-.06.37-.45,1.31-.49,1.1ZM23.95,21.48c-.66.62-.91.79-.22-.13-.6-.58-.98-.95-1.38-1.04-.42-.1-1.32.58-1.29.98.04.5.42,1.28.73,1.74-.81.09-1.44-.93-1.29-1.77.11-.65,1.09-1.49,1.94-1.56.65-.05,1.66,1.32,1.51,1.78ZM33.56,35.95c-.23.74-1.34,1.43-2.33,1.27.86-.66,1.93-1.26,1.75-2.39-.14-.89-1.41-1.27-2.07-.94-.58.29-.8,1.17-1.06,2.34-.13-.57-.04-1.81.31-2.45.33-.6,1.75-.93,2.38-.63,1.18.55,1.4,1.62,1.03,2.81ZM29.98,22.45c.96-1.04,2.38-.61,3.04.18.86,1.02.39,2.36-.42,3.09.14-1,.2-1.61.09-1.98-.14-.43-1.13-1.06-1.72-1.05-.33,0-1.17.54-1.16.8l.08,1.55c-.37-.48-.38-2.06.1-2.58Z"/>
      <path d="M10.88,45c7.33,4.76,17.42,3.73,23.09-3.29-5.22,2.31-10.02,2.41-14.72-.64-6.32-4.09-8.7-12.36-5.53-19.07,2.88-6.08,8.99-8.82,15.4-7.9-5.55-3.21-12.02-2.96-17.59.18-4.6,2.59-8.36,7.66-8.97,13.55-.71,6.92,2.52,13.39,8.32,17.16ZM17.65,44.93c.88-.68,2.42-.44,3,.41l-1.76.9,2.46.25c-1.4.62-3.24.84-4.59-.73l1.57.38-.68-1.21ZM12.57,43.81c-1.11.03-2.52-.28-2.97-1.39,1.01.35,1.9.82,2.67.95.68.12,1.81-.79,2.54-1.24-.19,1.01-1.33,1.65-2.24,1.67ZM12.73,16.88c-.1-.44-1.28-.03-1.91.33.09-.72,1.16-1.55,2.25-1.12.52.21.45,1.48.06,1.83-.13.12-.44.38-.44.39l.37.6c-.75.44-1.73.3-2.37-.44l1.41-.23c.37-.06.75-.83.63-1.35ZM13.35,39.58c.57.88.68,1.99.21,2.49-.73.78-1.69.81-2.58.38-1.18-.57-2.15-2-1.38-3.27.81-1.34,2.86-.97,3.76.4ZM6.47,27.21l-1.43-.99c.08-1.06.35-2.22.87-2.74.75-.75,1.99-1.31,2.92-.85,1.2.59,1.07,2.4.6,3.39-.38.79-2.01,1.86-2.97,1.19Z"/>
      <path d="M8.2,23.42c-.62-.23-1.58.49-1.78,1-.22.57-.14,1.97.46,2.21,1.08.45,1.89-.55,2.08-1.13.22-.67.06-1.77-.77-2.08Z"/>
      <path d="M11.02,41.91c.39.34,1.85.6,2,.12.18-.82-.29-1.99-.76-2.05l-2.27-.29c.06.95.51,1.77,1.03,2.22Z"/>
    </g>
  </g>
</svg>