<?xml version="1.0" encoding="UTF-8"?>
<svg id="Warstwa_2" data-name="Warstwa 2" xmlns="http://www.w3.org/2000/svg" viewBox="0 0 44.76 43.21">
  <g id="game-icon-v7-magic-pixarts-store">
    <g id="game-icon-v7-magic-pixarts-store_167">
      <path d="M39.29,15.54c0,8.58-6.96,15.54-15.54,15.54s-15.54-6.96-15.54-15.54S15.17,0,23.75,0s15.54,6.96,15.54,15.54ZM37.42,15.61c0-7.55-6.12-13.68-13.68-13.68s-13.68,6.12-13.68,13.68,6.12,13.68,13.68,13.68,13.68-6.12,13.68-13.68Z"/>
      <path d="M7.28,40.28c-.71.72-2.84-.09-3.54-.78-3.04-2.99,1.69-6.36,3.46-8.64.78,1.26,1.39,1.96,2.22,2.05-.9-1.72-1.7-3.14-.62-4.65,1.15,2.08,2.47,3.69,4.97,4.37-.72,1.83-1.91.74-3.85.59.49.46,1.16.9,2.23,1.52-1.54,1.86-3.1,3.73-4.87,5.53Z"/>
      <path d="M6.98,41.7c-.93.95-2.46,1.65-4.01,1.49-1.48-.15-2.63-1.59-2.87-2.68-.36-1.6.31-2.94,1.62-3.93-.03,3.28,1.9,4.71,5.27,5.12Z"/>
      <path d="M17.07,31.2c-1.87,2.97-9.37-3.06-6.93-5.74,1.93,2.38,4,4.16,6.93,5.74Z"/>
      <polygon points="42.03 25.73 39.41 24.03 40.31 20.9 43.97 22.82 42.03 25.73"/>
      <path d="M6.34,17.16l-3.12.55c-.12-.43-.26-1.62.08-1.78l2.06-.99c-.95-.08-1.66-.18-2.93-.46,1.28-.77,2.33-.65,4.13-.31l-2.32,2.33,2.09.65Z"/>
      <path d="M4.17,8.82c-.81.9,3.63.93,2.65,2.42l-3.7-1.38c.27-.91.92-2.34,1.5-2.93,1.28,0,2.56.58,3.42,1.79l-3.09-.76-.78.86Z"/>
      <path d="M31.57,33.29l-1.05-.69c-.23-.15.2-.62.46-.61l1.94.08.7-1.94.83,4.39c-1.19-.29-1.9-.59-2.88-1.23Z"/>
      <path d="M42.63,17.43l1.11-.27c.32-.08.71-.07.94.06s-.03,1.51-.29,1.49c-.8-.07-2.26-.26-3.47-.44.94-1.48,1.93-2.52,3.7-3.12l-1.98,2.28Z"/>
      <path d="M7.66,20.99l-2.08.95c-.46.21-.56.95-1.14,2.1-.39-.86-.82-2.02-1.1-2.93l4.32-.11Z"/>
      <path d="M22.36,35.27l-1.94,1.75c-.03-1.47.24-2.87.81-4.23l1.13,2.48Z"/>
      <path d="M38.12,31.47l-2.58-3.11c1.6-.27,3.2,1.18,2.58,3.11Z"/>
      <path d="M36.61,15.63c0,7.1-5.76,12.86-12.86,12.86s-12.86-5.76-12.86-12.86S16.65,2.78,23.75,2.78s12.86,5.76,12.86,12.86ZM35.88,15.61c0-6.71-5.44-12.15-12.15-12.15s-12.15,5.44-12.15,12.15,5.44,12.15,12.15,12.15,12.15-5.44,12.15-12.15Z"/>
      <path d="M28.87,22.18c-1.37,2.2-4.32,3.57-6.94,3.47-2.88-.1-5.33-1.93-6.74-4.48-1.85-3.34-1.15-7.25,1.6-9.77-1.62,3.46-1.05,7.32,1.62,10,2.59,2.6,6.62,2.95,10.46.77Z"/>
      <path d="M31.21,8.67c.94,1.2.98,2.77,0,3.75-.78.78-2.33,1.08-3.5.32-.91-.59-1.77-1.66-1.93-2.46-.19-.93.32-2.62,1.07-3.06,1.66-.96,3.26.06,4.36,1.45Z"/>
      <path d="M24.93,5.59c-6.17,1.13-7.58,2.5-11.24,7.81.89-4.97,5.79-8.98,11.24-7.81Z"/>
      <path d="M26.47,25.57c2.55-1.47,4.59-3.6,6.57-6.61-.3,3.15-2.75,6-6.57,6.61Z"/>
      <circle cx="32.35" cy="15.22" r="1.28"/>
    </g>
  </g>
</svg>