<?xml version="1.0" encoding="UTF-8"?>
<svg id="Warstwa_2" data-name="Warstwa 2" xmlns="http://www.w3.org/2000/svg" viewBox="0 0 39.03 37.55">
  <g id="game-icon-v7-magic-pixarts-store">
    <g id="game-icon-v7-magic-pixarts-store_197">
      <path d="M23.63,7.76l.57-3.15c-.57-.14-1.54.24-2.01.65-.4-1.05-1.85-2.16-3.11-1.8-1.84.52-2.84-.35-4.34-1.15-1.87-1.02-4.21.33-6.03.94-2.67.91-4.91,1.91-7.2,3.59,1.03-1.63,2.73-2.72,4.39-3.87C8.8.98,13.29.08,17.02,0l-1.11,1.13c2.63,2.15,2.91-.32,5.84,1.09.92.44,1.82.37,2.55-.3l1.03.29L27.1.1c-.91,2.92-1.93,5.26-3.47,7.66Z"/>
      <path d="M36.99,30.2l-.12-1.94c-.94,3.14-2.24,5.89-4.81,7.87,1.65-2.83,3.62-5.6,3.9-8.96.07-.85-.79-1.88-.1-3.05.84-1.42,1.15-3.45.05-4.78-.5-.61-.81-1.23-1.18-1.97-.56-1.1-.79-1.51-.36-3.26-1.32,0-2.63.23-4.2.49,2.54-1.46,4.74-3.15,7.88-4.06l-2.17,1.76.63,1.3c-1.48,1.94.78,6.65,1.86,4.57.72,4.59-1.95,5.87-.55,8.38l1.22-1.74c-.35,1.85-1.09,3.61-2.04,5.4Z"/>
      <path d="M9.42,30.19c-1.09,2.9-2.39,2.99-5.36,2.95l1.24-4.37c1.28-.15,1.88-.43,2.44-1.17l2.19-2.93c.67-.89,1.61-1.64,2.64-2.43-.43,2.65-1.41,4.65-2.55,7.2,1.12-1.14,1.81-2.45,2.45-4.2.9-.16,2.01-.19,3,.09l-4.92,4.21c-.24.2-1.02.37-1.13.65Z"/>
      <path d="M29.28,10.86c-1.39,1.4-2.64,3.03-3.8,4.76-.65.42-1.41.71-2.15.85l1.13-3.43-2.99,1.01,1.76-2.17-.63.11c-.15.03-.37.06-.34-.04s.16-.62.27-.76l5.94-7.56c.73,4.34-3,4.87-4.88,7.9l3.86-3.18c.81-.67,2.27-.91,3.32-1.09l-1.49,3.59Z"/>
      <path d="M25.47,15.62c1.55-1.27,3.03-2.91,3.8-4.76,1.26-1.27,3.21-1.65,5.14-1.34l-7.71,5.75c-.38.29-1.02.59-1.23.35Z"/>
      <path d="M35.28,8.63l-4.44.36c.63-1.38,1.13-2.27,1.92-3.58-1.41.9-2.47,1.46-4.17,1.76l.69-4.38L36.97.22c-1,1.69-3.55,2.9-3.15,4.57l3.38-3.69-1.93,7.52Z"/>
      <path d="M3.91,34.01c-.76,1.18-2.04,2.88-3.91,3.54.71-2.36,1.54-6.39,3.99-7.14l-.42,2.41c-.03.18.24.9.34,1.19Z"/>
      <path d="M18.21,23.06c-.53.63-1.26,1.16-1.74,1.2l-3.73.31,1.31-5.39c1.13,1.16.58,2.38.48,3.7l3.67.18Z"/>
      <path d="M22.36,15.79c-.25,2.75-2.68,4.64-5.53,5.24.92-5.04,1.72-4.73,6.32-6.76l-.79,1.52Z"/>
      <path d="M24.9,18.15c-.77.81-2.12,1.43-3.29,1.32.3-2.24,1.94-2.46,3.77-2.62,1.38-.12,2.67-.4,4.21.34l-3.22,1.01c-.32.1-1.05.04-1.46-.05Z"/>
      <path d="M15.58,22.27l-.5-4.81c-.1-.95.33-2.05.86-2.68,1.1,2.36,1.11,4.98-.36,7.49Z"/>
      <path d="M17.49,16.88c-.09-1.78-.04-3.36.28-5.02.57-.94,1.6-2.13,2.5-3.13-.69,2.81-1.5,5.52-2.78,8.15Z"/>
      <path d="M20.93,8.56c.88,2.19.72,6.71-2.11,6.87l2.11-6.87Z"/>
      <path d="M19.77,22.51l-3.26-.4c1.7-1.8,4.24-1.41,6.32-.23-.9.56-1.96.76-3.06.62Z"/>
      <path d="M28.21,18.12c-2.03,2.31-3.09,2.33-6.91,2.09l6.91-2.09Z"/>
      <path d="M7.01,33.79c-.8,1.55-2.4,2.4-4.38,2.63,1.56-1.61,1.96-3.2,4.38-2.63Z"/>
      <path d="M35.14,21.45c.16.64-.64,1.92-1,2.29.35-1.9-.15-3.09-.8-4.91.74.64,1.53,1.54,1.79,2.61Z"/>
      <path d="M19.63,5.21c-3.12-.38-4.38.89-5.28-.19l3.05-.42c.61-.08,1.65.18,2.23.62Z"/>
    </g>
  </g>
</svg>