<?xml version="1.0" encoding="UTF-8"?>
<svg id="Warstwa_2" data-name="Warstwa 2" xmlns="http://www.w3.org/2000/svg" viewBox="0 0 42.31 49.73">
  <g id="game-icon-v7-magic-pixarts-store">
    <g id="game-icon-v7-magic-pixarts-store_74">
      <path d="M19.73,16.85c-7.98,0-14.45,6.47-14.45,14.45s6.47,14.45,14.45,14.45,14.45-6.47,14.45-14.45-6.47-14.45-14.45-14.45ZM19.66,43.61c-6.81,0-12.33-5.52-12.33-12.33s5.52-12.33,12.33-12.33,12.33,5.52,12.33,12.33-5.52,12.33-12.33,12.33Z"/>
      <path d="M27.92.24c-5.03,1.02-5.22,6.61-4.04,6.3,1.07-.28.08-4.43,4.49-5.13,4.2-.67,8.67.99,11.29,4.47,1.37,1.81,1.81,4.51.52,6.47-1.86,2.83-5.56,2.57-7.91,1.07-.28-.18-.99-.26-1.24-.23-2.31.22,6.27,5.74,10.26-.19,1.25-1.85,1.38-4.3.24-6.47C39.02,1.73,33.21-.83,27.92.24Z"/>
      <path d="M33.85,42.02c-2.37,2.28-4.66,4.14-7.48,5.43,3.58-.02,5.55-2.64,8.2-4.01l-1.67,2.67c2.84-1.64,5.25-4.63,5.7-7.98.38-2.83.06-10.81-1.8-12.28,1.01,3.51,1.27,6.44-.28,9.35.23,1.29.73,3.09.32,4.37-.38,1.2-2.18,1.66-2.99,2.44Z"/>
      <path d="M1.97,35.96c-1.22-6.01.25-6.61.52-10.42.37-5.3,3.38-4.09,5.75-6.9,1.65-1.96,3.55-3.24,5.82-4.33-2.85-.08-4.69,1.94-6.86,3.13C3.54,19.45.82,22.14.16,26.54L0,27.56c-.03.2.36.28.68.47-.34,2.75-.25,5.41,1.29,7.93Z"/>
      <polygon points="15.71 46.88 10.08 44.03 10.8 49.73 15.71 46.88"/>
      <path d="M23.94,16.05c2.18.83,4.02,1.76,5.83,3.19.94-1.31.18-2.66-1.01-3.48-1.57-1.09-3.69-1.68-4.83.29Z"/>
      <path d="M28.97,14.85l.68-1.44c.52-1.11.99-1.61,2.17-1.73-.27-.84-1.17-1.47-2.01-1.35-1.58.22-2.29,2.69-2.03,3.55.1.34.6.59,1.19.97Z"/>
      <path d="M26.34,6.79c-2.55-.04-5.4,2.57-8.03,3,2.98.53,6.04-.51,8.03-3Z"/>
      <path d="M37.7,20.64l2.79,7.88c1.66-1.85-1.59-6.94-2.79-7.88Z"/>
      <path d="M34.41,36.22l-1.77,3.69c.7-.01,2.36-.48,2.59-1.2.32-.99-.33-2.1-.82-2.49Z"/>
      <path d="M4.44,23.52c-.48.7-.12,2.24.49,3.01l1.72-3.76c-.53.04-1.88.28-2.21.75Z"/>
      <path d="M11.72,12.24l5.46-1.21c-2.07-.68-4.22-.48-5.46,1.21Z"/>
      <path d="M22.19,40.96c.85,1.6,4.7-1.7,5.57-2.86-.61.12-1.34.26-1.75.45-.55,1.67-2.33,2.52-3.81,2.42Z"/>
      <path d="M27.13,23.42c.7,1.8,2.14,3.23,1.11,5.3-.29-.78-.43-2.54-.87-3.24l-2.24-3.57c-1.36-2.17-2.18,1.1-6.87-.21l3-1.28c-1.6-.13-8.13.79-8.73,3.31,1.72-.95,2.8-1.71,4.44-2.11-6.11,6.05-7.77,2.1-6.56,7.09.29,1.21-.22,2.95-.32,4.34l-.21,3.02c.34,1.35,1.88,3.13,3.24,3.79l-2.19-2.95c-.11-.15.19-.93.22-1.06-.24-.8-.56-2.19-.42-3.06l.68-4.34,1.4-2.04-1.34.42c-.26.08-.2.61-.33,1.18-.5-.01-.76-1.67-.24-1.84,6.1-1.9,3.38-3.14,11.13-3.46.41-.02,1.24-.86,1.63-.85,1.19.03.79,1.28,2.7,4.23,1.62,2.49,2.5,7.1.48,9.8-2.07,2.76-5.69,4.17-9.23,4.06l-2.34.99c-.32-.57-.55-2.03-.91-2.53l-2.2-3.12c.47,1.54,1.12,2.86,1.83,4.26l1.1,2.17,3.12-1.13c1.14-.05,2.67.12,3.97.38-.19-.39-.44-.79-.28-.84l.66-.23c1.25-.44,2.34-.86,3.44-1.34.76-2.29,3.91-1.98,3.62-2.83l-.43-1.24c-.35-1-.24-2.39.08-3.5l.56-1.97-.15,4.85c1.97-3.33.16-8.42-2.54-10.43Z"/>
      <path d="M20.48,27.41c1.38-.39,2.71,0,3.96.72-.93-2.15-3.16-2.84-5.17-2.71-1.89.12-3.68,1.43-4.62,3.29-1.43,2.84-.42,6.11,2.22,7.74,2.47,1.53,5.94.91,7.55-1.74-1.84.92-3.7,1.13-5.19.12-1.39-.94-2.37-2.62-1.73-4.67.43-1.4,1.82-2.42,2.98-2.75Z"/>
      <path d="M9.59,34.4l-.43-5.38c-1.19,1.9-.53,3.95.43,5.38Z"/>
    </g>
  </g>
</svg>