<?xml version="1.0" encoding="UTF-8"?>
<svg id="Warstwa_2" data-name="Warstwa 2" xmlns="http://www.w3.org/2000/svg" viewBox="0 0 39.22 37.79">
  <g id="game-icon-v7-magic-pixarts-store">
    <g id="game-icon-v7-magic-pixarts-store_87">
      <path d="M1.04,16.13l-.33-4.99c-.85,1.57-1.14,3.79.33,4.99Z"/>
      <path d="M.39,22.77l1.5,1.76.05-2.21-.92-.37c-.2-.08-.37.38-.63.81Z"/>
      <path d="M35.45,35.69c1.19-.79,1.82-1.96,1.55-3.33-.18-.94-1.09-1.89-2.5-2.21-.93-.22-2.18.3-2.63.84-.6.73-.7,1.79-.22,2.57.21-.55.37-1.15.61-1.56.31-.53,1.61-.34,2.01.02.4.37.69,1.45.5,1.9-.86,2.12-2.64,2.22-4.55,1.92-1.6-.25-3.18-.89-3.71-2.21-.65-1.62-.13-3.22.87-4.47l-.31,2.75c-.17,1.52,1.27,2.84,2.67,2.72-1.08-1.38-1.36-3.22-.27-4.68l3.65-4.9c1.78-2.39,2.2-5.18,1.72-8.13-1.1-6.76-7.43-11.75-14.2-10.49,4.74.58,8.32,3.26,9.65,7.68.86,2.87.39,5.62-.41,8.68,1.76-2.24,2.08-4.83,2.25-7.76,1.22,3.24.26,6.4-1.78,9.1-3.01,3.97-6.69,7.14-11.5,8.71,2.59.71,4.44-.95,6.52-1.78-.72,1.34-1.38,2.34-1.4,3.44-.02.94.66,2.24,1.63,2.64,3.72,1.52,7.47-.1,11.59.05-.16-.76-.86-1.24-1.73-1.5Z"/>
      <path d="M24.6,27.48c2.77-2.5,4.4-6.06,3.85-9.75-.96,3.89-2.73,7.88-6.54,9.07-2.14.67-4.81.72-6.93.43-2.75-.38-4.71-2.18-7.06-3.58,1.05,2.75,3.69,3.81,6.47,4.84-4.37.34-8.07-2.77-9.62-6.85-.59-1.56-1.61-3.04-3.35-3.55,1.09,2,2.01,3.85,2.45,5.92,1.33,6.25,6.06,5.65,9.84,10.08-1.09,2.71-7.24,2.46-7.75.36-.09-.36.37-1.26.75-1.38,1.21-.38,2.37.06,2.98.88l-.86.61c.31.31,1.78.28,1.93-.27.27-.98-.78-1.5-1.39-2.02-1.81-1.55-4.71-1.3-5.94.64-.3.48.02,1.75.11,2.08-.88-.09-1.15.44-1.15,1.07,0,2.01,2.36.69,5.48,1.2,2.49.4,4.77.5,7.04-.86,1.02-.61,1.31-2.03.38-3.09-1.02-1.16-2.4-2.03-3.7-2.93,4.7,1.48,9.46.29,13.01-2.91Z"/>
      <path d="M12.35,16.09c0,3.97,3.21,7.18,7.18,7.18s7.18-3.22,7.18-7.18-3.21-7.18-7.18-7.18-7.18,3.22-7.18,7.18ZM24.95,17.21c.46,1.6-.9,3.19-2.59,3.69.99-1.16,1.76-2.23,2.59-3.69ZM24.4,14.64c-.86-1.7-1.62-3.04-3.25-3.94,1.94.04,3.77,1.79,3.25,3.94ZM18.93,10.08c.9,2.81,3.56,2.71,3.3,5.14-.09.87-.77,2.06-1.78,2.06-.38,0-1.08-.22-1.35-.35-.27-.13-.3-1.04-.02-1.07l1.1-.1c.22-.02.29-.63.28-.85-.01-.28-.62-.69-.94-.69-1.05.02-1.87.71-2.11,1.44-.32.98.06,2.17.88,2.82,1.44,1.14,3.11.35,4.61-.61-.4,1.84-2.34,2.24-4.05,2.13-1.96-.13-3.18-1.94-2.95-3.76.22-1.75,1.75-3.01,3.87-3.15-.95-1.06-1.72-2-.83-2.99ZM16.44,11.25c-2.21,2.54-2.85,4.96-1.53,8.1-2.66-2.55-1.14-6.8,1.53-8.1Z"/>
      <path d="M37.61,10.03c.08.73.15,1.79-.24,1.74-2.32-.47-.77-3.64-4.69-4.45,1.18-.18,2.12-.25,2.71-.63.49-.32.79-1.57.68-2.31-.54-3.56-4.83-4.87-7.86-4.08,4.13,1.35,3.1,4.93,4.25,4.12l.62-.44-1.17-1.73c.96-.35,1.65.42,2.01,1.03.36.62.07,1.87-.72,2.02-1.87.36-3.56-1.02-5-2.08l.4-.68C23.52-2.27,14.07.21,10.71,6.03c-2.23,3.86-2.81,8.58-.47,12.22-.27-2.37-1.51-4.25-.35-6.53l.37,1.28c.43-4.33,3.12-7.81,7.29-9.32,3.12-1.13,6.45-1.09,9.4.59,2.19,1.24,4.35,2.74,5.96,4.69,1.94,2.33,3.03,5.66,5.36,4.65.57-.24,1.11-1.25.89-2.06-.15-.58-1.04-1.36-1.56-1.52Z"/>
      <path d="M7.07,7.91c1.16-2.27,2.31-4.73,4.63-6.11.18-.11.25-.64.1-.92-3.54,2.74-5.98,4.83-7.83,8.72-.05-1.57.4-3.19,1.32-4.44l2.09-2.81c.33-.44.12-1.63-.38-1.96-.41-.27-1.51-.23-1.9.24-.28.33-.38,1.01-.39,1.46.59-.4.81-.59,1.06-.54,1.26.25-1.33,4.01-1.7,4.54-3.02,4.3-1.5,8.85,1.42,12.64,1.98,2.57,4.61,4.68,7.88,5.04-4.88-2.93-7.18-7.6-7.02-13.34-.88,2.09-.81,4.13-.66,6.53-1.98-4-.05-6.22,1.39-9.05Z"/>
      <path d="M34.72,26.97c3.42-3.1,4.66-6.4,2.23-10.4.61,3.82-.4,6.99-2.23,10.4Z"/>
      <path d="M15.08,7.38c2.47-1.8,4.89-2.57,7.79-2.82-2.92-.98-6.23.36-7.79,2.82Z"/>
      <path d="M20.73,34.78l-.56.03c-1.14.05-2.22.41-2.46,1.96.4.34,4.26-2.05,3.02-1.99Z"/>
      <path d="M20.97,24.95l-5.42.4c1.9,1.03,3.72.37,5.42-.4Z"/>
    </g>
  </g>
</svg>