<?xml version="1.0" encoding="UTF-8"?>
<svg id="Warstwa_2" data-name="Warstwa 2" xmlns="http://www.w3.org/2000/svg" viewBox="0 0 44.57 47.81">
  <g id="game-icon-v7-magic-pixarts-store">
    <g id="game-icon-v7-magic-pixarts-store_155">
      <path d="M21.59,36.59c-1.28-.25-2.96-.64-4.22-1.05l-1.31-2.66,1.81-.56-.92-1.85c3.27-.89,1.79,1.82,5.39,2.7l3.41.83c.42-1.48-.15-3.26-1.08-4.39-1.25-1.53-3.04-1.33-4.9-1.43l-4.14-.23c.35-.94.65-2.42.19-3.4-1.98-.21-3.42,1.41-3.84,3.47l-2.27-6.68,1.8-.45c.36-.09.76,1.03,1.09,1.22.77.03,1.91-.26,2.99-.62-.7-1.47-1.75-2.17-3.14-2.86,3.04-1.78,4.62-7.56,5.21-7.45.18.03-.43-.35-.61-.47l-1.19-4.46c1.05-.25,2.52-.53,3.38-.61.6.91,1.11,1.37,2.18,1.35l1.13,1.28c.29-1.68-.94-1.67-2.38-2.63,1.32-.6,3.14-1,4.41-.93,1.78,3.13,5.31-.24,6.21,3.12.41,1.55,3.81.11,3.58,3.28-1.08.45-3.39.64-4.38.11-.62-1.34-1.24-2.55-2.82-2.68l-2.66-.22c-.26,3.06,1.42,4.51,3.91,5.05l3.67.8c-.06.34-.18,1.69.18,2,.96.83,1.47-1.29,2.51-1.98,1.11-.74,3.28,5.18,3.29,6.99s-1.96,3.23-3.06,4.45c-.57-1.99-1.57-3.09-3.62-3.84-.84,3.31-1.15,3.98.94,6.35l-2.46,5.94-.62-1.06c.08,1.22.43,2.72-.22,3.52l-6.83,1.45-.62-1.38ZM25.66,18.72c.24-.69-.08-1.92-.56-2.4l-3.62-3.64c-.54,2.35-.8,4.31-.62,6.43l3.71,2.76,1.09-3.15ZM26.83,26.82c.64-1.92,1.84-3.06,3.03-4.57,1.51-1.92.48-5.17-1.38-6.74,1.04,5.51-4.38,2.84-1.64,11.31ZM25.97,27.16c-1.15-4.11-1.99-5.14-5.94-6.49-1.37-.52-2.08-1.43-2.62-2.77-.37,1.12-.23,2.38.12,3.55,1.42,4.79,5,2.78,8.44,5.71Z"/>
      <path d="M17.46,45.62l.87-.13c.19-.03.16.88-.03.92l-4.26.81c-1.04.2-2.46-1.03-2.78-1.95-1.78-5.08-3.43-8.21,1.36-11.87l2.14,5.85c-.87.83-1.51,1.42-2.06,2.33-.85,1.38-.64,3.9,1.14,4.47.95.3,2.56-.26,3.63-.43Z"/>
      <path d="M32.84,35.81l.69-2.13c3.46.57,4.16.2,6.22-2.75-1.57-1.15-3.07-1.14-4.83-.89.93-1.25,2.15-2.45,3.2-3.1,1.12.57,1.87.76,2.91-.07l2.78,6.77-10.97,2.18Z"/>
      <path d="M8.22,11.46c-1.27,4.76,3.98,4.42.09,6.27l-3.45-9.67,7.16-1.3c2.29,1.92,2.52,5.05.52,7.16.02-2.57-1.67-3.93-3.75-4.61l-.57,2.15Z"/>
      <path d="M34.9,44.5c-.36,1.27-1.68,2.18-2.89,2.25-1.33.08-2.78-.8-3.45-2.1-.87-1.7-.41-3.78.4-5.51,1.12-2.41,2.08-4.74,2.81-7.29,1.85-6.52,9.11-6.67,6.87-13.57,1.57.8,1.85,2.64,1.22,4.22-1.99,4.97-5.47,4.23-7.04,9.77-.74,2.6-1.66,5.03-2.75,7.53-.58,1.32-.9,2.91-.26,4.25.36.76,1.51,1.58,2.29,1.64.77.06,1.67-.63,2.81-1.21Z"/>
      <path d="M5.22,30.61c-3.81-1.98-.92-7.64,1.25-9.62l6.12-5.59c2.48-2.26,2.99-5.86,1.03-8.42-1.16-1.53-2.72-1.69-4.46-.77.54-1.63,2.61-1.92,4.01-.97,3.26,2.21,3.67,7.05,1.1,10.1-4.25,5.04-11.62,7.76-9.06,15.28Z"/>
      <path d="M7.18,32.96c-1.71-4.96-2.76-6.53,1.55-10.88l2.54,7.21-4.09,3.68Z"/>
      <path d="M8.13,36.39c-1.18,2.67-.12,4.7,1.45,6.79-1.83-.2-2.99-1.8-3.21-3.49-.65-4.91,3.28-7.76,6.46-10.39.03-1.59.18-3.78,2.44-4.08.14.49-.13,1.46-.52,1.94l-1.72,2.09c2.64-.28,4.71-.91,7.18.23l-2.36.03c-4.2.05-8.02,3.03-9.73,6.88Z"/>
      <path d="M5.74,13.62c-1.95.62-3.12,1.83-4.04,3.76-1.56-2.39-1.92-5.17-.26-7.48.51-.7,1.5-1.29,2.33-1.22l1.96,4.94Z"/>
      <path d="M23.3,41.7c-.17.04-.51-.69-.51-.89l4.58-1.07c.14.25-.22,1.12-.56,1.19l-3.51.77Z"/>
      <path d="M18.07,42.44l-1.24.77c.57.22,1.15.48,1.25.75-1.03.59-2.86,1.06-3.9.66-1.26-1.15.03-3.64,1.63-3.97l12.35-2.54c-.19,1.24-1.1,1.32-2.02,1.51l-10.41,2.12,2.32.71Z"/>
      <path d="M16.41,35.43c.56,1.91,3.69.55,4.67,2.64l-5.23,1.11-2.26-6.9c1.79.47,2.37,1.58,2.83,3.15Z"/>
      <polygon points="21.26 46.38 20.19 47.81 18.88 41.95 21.85 41.39 23.33 47.29 21.26 46.38"/>
      <path d="M2.78,34.44l2.78,2.35c-1.48.75-3.5.26-4.37-1.26-.52-.9-.81-1.77-1.19-2.9l3.13.27c1.48.13,2.57,1.54,2.59,2.86-.96-.57-1.66-1.02-2.94-1.31Z"/>
      <path d="M37.44,15.16c-2.71-4.72-5.38.94-10.3-4.65l.77,1.7c-1.81.1-2.47-1.48-2.59-3.03,5.08-.43,2.13,3.37,6.27,3.18l3.34-.16c1.43-.07,3.16,1.15,2.52,2.96Z"/>
      <path d="M33.46,8c-3.12.28-1.38-2.81-5.6-2.57-1.11.06-1.96-.16-2.28-1.15l5.91-1.04,1.97,4.76Z"/>
      <path d="M15.93,5.24l.72-2.71c-.71.96-1.12,1.72-1.81,2.94-.34-2.85.19-4.36,3.64-5.47l-.12,2.78c-.05,1.17-1.07,2.21-2.43,2.45Z"/>
      <path d="M6.34,15.18c.24,1.6-3.99,1.73-3.4,7.06-2.28-2.62,0-6.5,2.36-7.7.3-.15,1.01.39,1.05.64Z"/>
      <path d="M21.71,32.08c-.7-.17-1.53-1.26-1.82-2.04l3.32.94-2.22-1.89c2.39-.32,4.08,1.54,4.12,3.8l-3.4-.81Z"/>
      <path d="M7.11,18.77l-3.22,3.64c-.65-2.47.67-4.47,2.51-5.73.4.06,1.13,1.61.71,2.09Z"/>
      <path d="M31.13,40.02c.02-.26.29-.79.55-1.17l8.85-1.8c-.11.52-.32,1.05-.52,1.31l-8.88,1.66Z"/>
      <path d="M31.97,38.37c-.08-.59.29-1.01.75-1.23l8.46-1.69c-.02.39-.5,1.19-.86,1.26l-8.35,1.65Z"/>
      <path d="M40.07,39.72l-9.05,1.8c-.19.04-.61-.24-.54-.32.11-.13.58-.62.8-.67l8.93-1.87c.29-.06.19.99-.15,1.06Z"/>
      <path d="M10.46,12.7l-.19,2.72c-1.64-1.06-1.66-3.31-.9-4.81,2,.23,2.84,2.89,1.86,4.94l-.78-2.85Z"/>
      <path d="M37.91,42.49c-.4.09-1.25-.49-1.23-.81l5.02-1.28-.06-2.52,1.81,3.39-5.54,1.22Z"/>
      <path d="M41.43,20.37l1.43-1.83-2.13,1.18c.1-2.07,2.35-3.04,3.85-2.63-.32,1.47-.71,3.66-3.14,3.28Z"/>
      <path d="M33.8,32.78l2.15-1.05h-1.83c1.13-1.33,3.02-1.38,4.43-.59-1.09,1.99-2.98,2.56-4.75,1.64Z"/>
      <path d="M32.78,25.63l-.13,1.67c-1.06-1.27-1.23-2.69-.88-4.3,1.81.45,2.87,2.44,1.82,4.23l-.81-1.6Z"/>
      <path d="M31.75,43.79c-.16.04-.97-.07-.97-.2l-.02-.8,5.34-1.13c.13-.03.64.4.57.51-.11.16-.48.61-.68.66l-4.24.96Z"/>
      <path d="M36.53,11.7c-.07-1.5,2.09-2.71.16-4.34-.2-.17-.48-.7-.36-.9s.59-.56.7-.51c1.36,1.69,1.71,4.46-.5,5.76Z"/>
      <path d="M12.76,20.72c-.21-.46-1.21-.54-2.27-.59.76-.92,2.71-.93,3.4.17.11.18.33.95.14,1.03l-.66.28c-.19.08-.46-.58-.6-.89Z"/>
      <path d="M27.36,41.68c-1.39,1.07-2.78,1.34-4.36,1.08,1.28-1.02,2.9-1.38,4.36-1.08Z"/>
      <path d="M10.48,3.71c-3.42.67-.43-.57-4.05-.14.41-.28,1.37-.93,1.91-1.05.68-.15,1.69.57,2.14,1.19Z"/>
      <path d="M1.01,26.54l1.44,1.03c-1.52.41-2.51-.79-2.38-2.28l2.2.67-1.26.58Z"/>
    </g>
  </g>
</svg>