<?xml version="1.0" encoding="UTF-8"?>
<svg id="Warstwa_2" data-name="Warstwa 2" xmlns="http://www.w3.org/2000/svg" viewBox="0 0 47.36 43.91">
  <g id="game-icon-v7-magic-pixarts-store">
    <g id="game-icon-v7-magic-pixarts-store_26">
      <path d="M39.73,8.55c2.07,6.47,3.16,12.92,1.75,19.34.49-9.38-.11-16.47-6.09-24.05,6.57,3.53,9.84,10.53,11.97,17.11.05-4.52-1.95-8.39-4.27-11.92l1.26-.23c-3.46-2.34-5.35-4.49-8.82-6.83.17-.34.47-.94.46-.92l-1.78.15c-1.13-.95-3.03-.91-3.59.48l1.82.08c1.13.05,2.06,5.03.67,8.77-1.83,4.94-7.66,2.28-6.11,4.45.16.23.75.56,1.05.48l3.16-.82c3.41-2.17,4.58-6.21,3.61-10.07,7.13,9.23,7.12,21.9,2.68,32.47,3.73-2.92,4.12-8.26,7.04-10.14.86.26,1.31,1.47,1.81,2.37,1.21-7.47-1.01-15.27-6.62-20.71Z"/>
      <path d="M11.96,3.99c-3.52,4.69-5.81,10.22-5.85,16.19l-.06,7.69c-1.1-6.49-.48-12.94,2.06-19.57C3.18,12.01-.65,23.23,1.49,29.36c.17-.68.64-2.21,1.31-2.35,2.25-.45,4.18,7.92,7.18,9.95C5.59,26.42,5.71,13.88,12.68,4.7c-.91,4.08.37,8.49,4.18,10.1,1.12.47,2.32.66,3.77,1.14-.11-.54-.49-1.51-.85-2.05-2.48.15-4.27-1.21-5.28-3.34-1.59-3.36-.38-8.76.61-8.8l1.88-.07c-.25-.52-1.15-1.26-1.69-1.2-.71.08-1.54.55-2.02.83l-1.82-.29.51,1.02-3.76,2.92c-1.73,1.35-3.33,2.59-5.09,3.85l1.37.29C1.84,12.99.14,17.1,0,21.53,2.26,14.96,5.45,7.28,11.96,3.99Z"/>
      <path d="M29.62,9.82c.51-.21,1.13-1.6.68-2.05-1.27-.3-1.61-1.53-2.27-2.41-2.17-2.88-2.33-3.3-5.26-5.35l2.63,3.45-2.9-1.36c-.88-.41-1.74-1.28-2.64-2.11-.14,2.54,2.56,2.71,3.62,4.17-1.76-.31-2.8-.69-4.34-.28l2.3,1.03c-1.4.45-2.45.81-3.47,1.87h1.72c-.73,1.03-1.38,2.08-1.82,3.02l1.34-.47-.16,3.29.88-.76,1.66,3.02c.58,1.06,1.6,2.09,2.51,3.14.76-.52,1.66-1.48,1.82-2.15.57-2.35-2.43-3.8-3.46-6.27.18-.76.31-1.5.09-1.79-2.44,2.92,2.64,6.04,1.27,7.49l-2.13-3.64c-.89-1.52-.75-3.65.84-4.56.79-.45,1.36.95,1.87,1.16l3.18,1.34c.15.06.46.7.54.83.09.13.23-.04.7-.44l-3.23-2.64c1.6.39,2.88,1.22,4.03,2.45Z"/>
      <path d="M8.2,27.45c.64-1.54.91-3.43,2.52-3.08,1.39.3,2.23,1.97,3.51,3.1-2.31-5.51-3.19-11.06-2.54-17.4-1.97,3.48-.74,7.2-.69,11.14-.94-3-1.16-6.19-1.05-9.31-1.97,5.09-2.49,10.53-1.74,15.56Z"/>
      <path d="M37.12,24.31c1.42-.07,1.58,1.89,2.25,2.93.62-4.13.13-11.73-1.66-14.85-.14,3.12-.29,6.02-1.12,8.85.05-4.03,1.29-7.98-.79-11.83.81,6.31.09,12.12-2.58,18.09,1.78-.85,2-3.1,3.9-3.19Z"/>
      <path d="M13.58,23.92c.28-1.46.42-3.22,2.06-3.54.67-.13,1.77.78,2.25,1.23.44-.79.77-1.47,1.08-1.82s1.61-.28,2.01-.44c.32-1.64-1.05-2.87-2.55-3.2-.79-.18-1.61-.14-2.28.08l-.87-.9.4,2.71-2.59-5.16c-1.43,2.12-.32,8.84.49,11.04Z"/>
      <path d="M31.14,16.05c-.68,0-2.35-.17-2.68.42-.46.8-.62,2.37-.41,2.98.79.75,1.3,1.48,1.7,2.27.59-.59,1.79-1.55,2.44-1.32,1.49.52,1.53,2.25,1.79,3.5,1.24-3.57,1.43-7.19,1.05-10.67l-.49,1.04-.21-1.4-2.39,5.1.33-2.61-1.14.69Z"/>
      <path d="M24.12,18.97l-2.52-2.8.22,3.41.87-.88c-.48,1.67-.91,2.77-.71,4.26l2.66-2.76c-.26,2.61-3.26,3.24-2.28,6.48l3.17-4.36c1.29-1.78,1.99-4.08,1.27-6.2l-2.68,2.86Z"/>
      <path d="M27.3,37.51c-.25-.07-.6-.4-.78-.64l-.54-.75c-.12-.17-.66.55-.66.79v5.76c.01.13.6.69.67.57l.29-.57c.16-.32.66-.9.99-.84.32.06.5.66.78,1.33.39.05,1.63.03,2.25-.01l-.12-2.64-1.33.88c.43-1.5-5.34-1.7-2.3-2.08l1.06-.13c.42-.05.98-.61,1.28-1.12l1.32.5.03-2.31c-.59-.29-2.06-.33-2.27.2-.15.39-.42,1.15-.67,1.07Z"/>
      <rect x="22.68" y="35.54" width="2.1" height="8.36" transform="translate(-.1 .06) rotate(-.14)"/>
      <path d="M24.71,32.44l.27-7.77c-3.01,1.85-2.81,7.89-1.76,8.24.38.13,1.48-.09,1.49-.46Z"/>
      <path d="M22.43,34.69l1.37.12c.26.02,1-.1,1.25-.16.25-.05.3-.98.06-1.07-.62-.24-2.31-.31-2.9,0-.24.13-.04,1.08.22,1.1Z"/>
    </g>
  </g>
</svg>