<?xml version="1.0" encoding="UTF-8"?>
<svg id="Warstwa_2" data-name="Warstwa 2" xmlns="http://www.w3.org/2000/svg" viewBox="0 0 37.18 46.15">
  <g id="game-icon-v7-magic-pixarts-store">
    <g id="game-icon-v7-magic-pixarts-store_94">
      <path d="M29.54,27.19c1.86-3.14,1.45-7.04-.29-10.19-2.71-4.92-7.5-6.38-10.43-9.3-1.6-1.59-1.63-4.09-.03-5.56,1.47-1.34,3.7-1.09,5.47.31C23.46-.02,20.61-.46,18.37.41c-1.66.64-3.11,1.97-3.53,3.32-1.4,4.54,2.01,6.43,4.7,9.08.73.72,1.36,1.49,2.28,2.01,3.04,1.75,4.97,5.04,5.13,8.53.13,2.68-1.27,4.65-3.3,6.25,2.36-.2,3.83-2.09,4.51-4.17.87-2.66.1-5.24-.65-7.96,1.91,2.83,2.11,6.95.16,10.08-1.76,2.82-4.9,3.18-7.92,3.65,3.6.83,7.78-.63,9.78-4.01Z"/>
      <path d="M17.75,33.75c-.41-.44-.88-1.11-1.31-1.4-2.94-1.9-5.35-4.47-5.98-7.89-.58-3.09.47-5.87,3.08-7.58-5.75.95-5.18,8.97-3.29,13.04-2.17-2.71-2.7-7.02-1.06-10.22,1.56-3.05,4.92-4.1,8.21-4.47-2.82-.77-5.8.17-7.99,2.1-2.15,1.89-3.31,4.71-2.81,7.82.63,3.99,3.07,7.37,6.39,9.59l4.78,3.2c1.69,1.13,2.53,3.45,1.63,5.32-.77,1.61-4.42,2.54-5.91.54-.43-.58-.42-1.76-.53-2.9-1.17,1.35-.19,2.85.83,3.86,1.97,1.95,5.1,1.75,7.11.06,1.94-1.63,2.37-4.56,1.04-6.94-.95-1.68-2.82-2.69-4.18-4.13Z"/>
      <path d="M19.01,32.81c3.49,1.47,7.32,2.22,11.19,1.19,4.27-1.14,7.94-4.84,6.75-9.44-2.09,8.09-9.95,9.68-17.94,8.25Z"/>
      <path d="M7.1,14.04c3.63-1.77,7.2-1.08,11.1-.51-3.95-2.12-8.82-2.31-12.84-.55C1.59,14.63-.67,18.16.18,22.06c.95-3.79,3.22-6.71,6.92-8.02Z"/>
      <path d="M16.88,28.01c1.62.88,3.36.65,4.88-.32,1.14-.73,1.97-2.14,2.11-3.58-1.41,1.76-3.14,3.34-5.47,2.56-1.27-.43-2.37-1.48-2.38-2.74,0-.85.58-1.98,1.11-2.95-1.74.45-2.17,2.13-2.16,3.62,0,1.26.64,2.72,1.9,3.41Z"/>
      <path d="M13.81,20.84c-.39,1.13-.55,2.32-.59,3.2,1.61-2.99,3.09-3.98,6.26-3.65l-1.56-1.68,2.72.21c-2.19-2.05-5.92-.7-6.83,1.92Z"/>
      <path d="M9.58,35.6c-3.15-3.2-4.6-6.62-4.88-10.95-1.54,4.22.34,9.83,4.88,10.95Z"/>
      <path d="M27.63,10.63c3.11,3.08,4.59,6.62,4.92,10.84,1.6-4.38-.33-9.56-4.92-10.84Z"/>
      <path d="M21.25,3.8c.48-.2,1.36-.17,2.01-.11-.51-.47-1.7-1-2.48-.78-.57.16-1.22,1.22-1.21,1.99,0,1.1.94,2.46,1.92,2.82l3.51,1.31c-1.24-1.43-2.27-1.86-3.79-3.02-.46-.35-.48-2,.04-2.21Z"/>
      <path d="M15.73,42.59c-.43.09-1.35-.16-1.83-.3.68.93,1.92,1.33,3.02.64.71-.45.98-1.85.36-2.76-.5-.73-1.38-1.31-2.13-1.64l-2.99-1.28c.85,2.21,3.15,1.69,4.12,3.45.23.41-.09,1.78-.55,1.88Z"/>
      <path d="M22.17,35.65c1.32,1.55,1.76,2.82,2.21,4.93.96-.87,1.5-2.32.91-3.38-.55-.98-1.85-1.59-3.11-1.55Z"/>
      <path d="M14.74,10.81c-.96-1.9-1.44-3.16-1.83-4.75-1.05.62-1.48,2.2-.85,3.29.44.75,1.91,1.5,2.68,1.46Z"/>
      <path d="M34.25,22.01c-.32.34-.67.84-.95,1.31-.24,2.5-1.32,4.35-2.58,6.38,2.56-1.8,3.81-4.62,3.53-7.7Z"/>
      <path d="M21.07,25.43c2.05-1.4,2.71-3.95,1.22-5.94l-.21,2.71c-.16,1.99-1.74,2.85-3.62,3.1.7.7,1.88.63,2.61.13Z"/>
      <path d="M3.28,24.47c.92-2.8,1.66-4.98,2.8-7.26-2.14,1.72-3.85,4.65-2.8,7.26Z"/>
      <path d="M2.77,31.99c-.04-1.62-.25-2.8-.61-4-.9,1.38-.64,2.99.61,4Z"/>
      <path d="M34.37,14.19l.59,4.26c1-1.58.73-3.32-.59-4.26Z"/>
    </g>
  </g>
</svg>