<?xml version="1.0" encoding="UTF-8"?>
<svg id="Warstwa_2" data-name="Warstwa 2" xmlns="http://www.w3.org/2000/svg" viewBox="0 0 41.28 44.84">
  <g id="game-icon-v7-magic-pixarts-store">
    <g id="game-icon-v7-magic-pixarts-store_48">
      <path d="M40.6,35.71c1.12-1.88.51-4.67.53-6.55-4.06,4.88-12.33,7.37-17.99,6.91,1.29-.49,2.5-.72,3.77-.88,4.13-.52,8.04-1.76,11.29-4.35,1.34-1.06,2.7-2.81,2.57-4.6-.34-4.81-9.89-8.45-13.98-7.84,3.31,1.89,6.93,1.9,9.73,4.13,1.64,1.32,2.95,3.19,1.86,5.24-1.13,2.11-3.31,3.44-5.68,4.26-7.55,2.6-15.77,2.61-23.41.23-2.77-.86-7.02-3.08-6.83-6.19.06-.93.76-2.23,1.61-2.98,4.83-4.23,11.05-2.93,10-4.95-4.3.18-13.7,3.3-13.73,8.3-.01,2.43,2.1,4.08,3.97,5.31,4.39,2.87,9.41,3.21,14.7,4.2-5.8.88-15.18-1.91-18.88-6.79-.03,2.08-.55,4.73.53,6.58,2.42,4.18,12.79,7.01,17.7,7.71-5.91.16-11.43-2.06-16.72-5.33,2.43,3.37,6.46,4.73,10.4,5.64,7.39,1.7,14.95,1.48,21.97-1.43,2.16-.9,4.14-2.13,5.39-4.14-4.3,2.76-8.81,4.82-14,4.97l7.04-2.08c2.97-.88,6.47-2.54,8.15-5.38ZM3.49,37.35l.56-1.44c.32-.83-.68-.76-.39-2.25.02-.12.29-.26.36-.16l.45.78c.25.42.65,1.26.67,1.67.01.42-.71.95-1.64,1.4ZM8.69,39.83l-2.03-.87.27-3.67,3.08,2.25-1.58.99c.01.07.13.65.26,1.3ZM14.78,41.34l-1.41-1.03c-.29-.21-.67.18-1.52.69-.17-1.36-.17-2.62.16-4.23.57.99.62,1.67.65,2.35l2.71-1.65c-.47.7-.92,1.18-1.6,1.92.41.34,1.16,1.34,1,1.94ZM20.78,43.87l-3.03-3.87,2.87-3.76,2.83,3.72-2.67,3.91ZM37.07,33.46l2.14,1.06.32-2.14c.66.5.66,2.38.03,2.71-.34.18-1.4-.25-1.8-.44l.07,3.01c-1-1.43-1.03-2.58-.76-4.2ZM28.18,41.52c-.73-1.66-1.98-1.59-1.6-1.97l.39-.39c.31.26.93.7,1.26.85.02-.84-.71-1.33-1.56-1.74-.33-.14.48-.97.9-.97.36,0,.61.6,1.04,1.27l1.47-1.46c-.31,1.57-1.07,3.01-1.89,4.4ZM31.97,36.4c0-.22.76-.27.69-.21l.36,1.19c.33-.85.69-1.93,1.17-1.83,1.41.3,1.66,2.45.49,3.27l-.15-2.28-1.57,3.06-.81-2.17c-.09-.23-.17-.82-.18-1.04Z"/>
      <path d="M34.68,29.59c-2.87-1.91-5.97-2.71-9.33-3.14l-3.81,4.89-1.04.42c-.19.08-.67-.37-.8-.53l-3.93-4.78c-3.41.45-6.62,1.13-9.48,2.98,7.14,4.37,21.24,4.38,28.39.16Z"/>
      <path d="M17.29,11.71l1.51,10.76c.18,1.27,1.02,2.56,1.76,3.85l1.39-3.96.81-7.22c-1.05-1.99-2.17-3.76-3.65-5.87-.77.71-1.64,1.73-1.81,2.44Z"/>
      <path d="M23.45,10.66c-1.55-3.03-1.67-5.98-2.88-8.93l-1.42,6.71,3.59,4.91c1.17-1.98,2.32-3.54,3.9-5.46L21.55.9l1.9,9.76Z"/>
      <path d="M24.92,24.51l1.66-15c-1.26,1.1-2.66,2.55-2.86,4.1l-1.26,9.64c-.29,2.23-2.09,4.06-1.22,6.35l3.28-4.34c-1.88-1.03-1.72-2.04-1.13-3.47.23,1.02.44,1.81,1.53,2.72Z"/>
      <path d="M26.87,20.15l-.62,5.01c3.45.64,5.81,1.7,8.99,2.94-1.42-1.22-2.69-2.03-4.19-3.02l4.91,1.89-4.31-3.09,3.32,1.08c-1.5-1.2-2.74-1.91-4.33-2.83l3.99,1.01c-2.16-1.86-4.76-2.69-7.75-2.99Z"/>
      <path d="M16.39,24.55c1.49-1.24,1.62-2.91,1.35-4.79l-1.15-8.02-2.11-2.76,1.9,15.57Z"/>
      <polygon points="14.62 7.6 16.85 10.58 18.51 8.59 19.94 0 14.62 7.6"/>
      <path d="M15.09,25.05l-.68-4.9c-2.48.45-4.17.93-6.16,1.9l3.8-.18-3.5,1.64,4.26-.17c-1.68.38-3.13.72-4.38,1.66l4.35-.53-4.58,2.09,6.89-1.53Z"/>
      <path d="M33.69,11.75l.86,2.17c.45-1.11.59-2.28,1.12-2.47l2.13-.72c-2.36-.35-2.99-1.71-3.2-3.88l-.8,2.67c-.19.62-1.64.89-2.43,1.31.63.24,2.09.36,2.32.94Z"/>
      <path d="M16.91,25.64l3.12,3.93c.26-2.4-.74-4.32-1.83-6.39l-1.29,2.46Z"/>
      <path d="M6.11,14.15l.58,1.7.77-1.79c.17-.4,1.24-.46,1.63-.63-.7-.38-1.68-.65-1.83-1.1l-.58-1.71-.61,1.96c-.11.35-.93.52-1.48.82.51.23,1.39.35,1.53.75Z"/>
      <path d="M20.44,38.06l-.73.78c-.61.65-.75,1.74-.18,2.37.69.75,1.57.74,2.19,0,.54-.63.47-1.59-.13-2.3-.35-.41-.96-1.06-1.15-.85Z"/>
    </g>
  </g>
</svg>