<?xml version="1.0" encoding="UTF-8"?>
<svg id="Warstwa_2" data-name="Warstwa 2" xmlns="http://www.w3.org/2000/svg" viewBox="0 0 45.29 49">
  <g id="game-icon-v7-magic-pixarts-store">
    <g id="game-icon-v7-magic-pixarts-store_137">
      <path d="M22.83,27.51l2.4,3.07c2.46-1.76-.59-.13.73-6.06.14-.48,1.23-1.09,1.77-1.3l-.3,4.45.86-1.03c-.06.07,3.23,1.6,2.6,1.87l-1.44,1.54c.9-.15,1.4-.95,2.04-1.69,1.87-2.16,4.95-1.27,4.25-7.74h-2.16s1.98-4.67,1.98-4.67l9.73,16.54-28.31,6.63L4.04,11.41c2.52-.63,4.84-1.11,7.39-1.45l3.14-.93,2.46,7.46-5.9-1.52,1.11,6.99,4.78,4.55c-.5.77-.84,1.35-1.13,2.06l3.03.76-1.95-1.22c1.35-2.18,3.54.23,5.58-.49l-4.55-1.65-4.67-4.27c.82-.17,2.38-.3,3.01.06,1.6,1.6,3.08,3.24,4.78,4.55l-4.06-4.96c-.66-.81-.37-2.52.1-3.39l4.06,5.03c1.05,1.3,1.38,2.56,1.59,4.49ZM8.65,17.57l-.78-4.51,3.69-1.8-5.48,1.12,2.56,5.19ZM38.11,32.34c2.01-.22,2.89-.47,4.66-.95l-2.46-4.51c-.32,1.48.35,2.62.85,3.71-1.14.56-2.05,1.04-3.05,1.75ZM23.31,35.91c-1.78-.27-3.01-.08-4.49.25l-3.17-4.13c.54,1.98,1.25,3.37,2.18,5.32l5.47-1.44Z"/>
      <path d="M12.71,45.61c-2.48-5.21-3.84-6.78-.02-11.23-2.11.79-3.05,3.01-3.09,5.32-2.26-2.12.26-4.77.71-6.27-.81.73-1.31,1.4-1.98,2.3l-5.32-10.96c-.45-.93-1.28-1.69-1.18-2.81.2-2.29,1.45-3.9,3.16-5.29-2.01-.02-2.18,2.12-3.39,3.83-.13.18-.47-.62-.63-.88-1.66-2.54-1.3-6.68,2.2-7.95l6.3,13.41,6.58,14.16c-1.57,1.53-2.81,3.18-2.21,5.43.27,1.03,1.52,1.65,2.65,1.37l3.44-.84c.24-.06.49.93.26.99l-3.58,1.05c-1.54.45-3.16-.12-3.88-1.63Z"/>
      <path d="M21.93,23.06l-2.15-6.19.35,3.22c-.98-1.02-1.6-2.3-2.03-3.73l-2.13-7.11,4.5,2.83,2.51,8.65-1.6-8.58,2.13-3.84c.16-.29,1.18.11,1.35.29l.12-.86c.03-.2.81-.15.88-.01l1.57,11.51c.17-1.04.2-2.29.42-3.22l1.31-5.71,1.89,4.18-2.23,7.6-2.49-3.09c-.17-.21-.6-.5-.8-.51s-.64.31-.78.49l-1.48,1.89-1.32,2.19Z"/>
      <path d="M34.66,37.44l-17.42,4.11c.15.08.68.21.9.19l.84-.06c.24-.02.43.82.22.92l-.95.45,1.16.15c.19.02.24.21.41.65l-4.22,1.04c-.66-.86-.53-2.26.01-3.17.38-.64,1.41-1.26,2.46-1.51l24.2-5.77c.23.27-.22.95-.54,1.04l-5.63,1.57,5.71-.96c.17,1.01-.33,1.24-1.31,1.47l-14.57,3.49c-.28.07-.84-.32-.75-.42.13-.15.55-.56.8-.64l8.68-2.54Z"/>
      <path d="M21.99,5.16l1,2.4c-.32,1.09-1.05,2.39-1.93,3.34l-1.85-10.9,6.63,6.42c-.6.58-1.82.88-2.22.49-.58-.58-.95-1.03-1.63-1.75Z"/>
      <path d="M23.64,46.08l-1.51,2.91-1.79-7.26,3.91-.92c.86,2.4,1.37,4.38,1.67,6.75l-2.28-1.48Z"/>
      <path d="M31.91,17.93c-.36,2.52-1.26,4.74-3.15,6.99.06-1.05.29-2.15.68-3.28l2.43-7.01,3.6-1.79c-.95,3.04-2.02,5.78-3.92,8.58l.36-3.48Z"/>
      <path d="M18.05,7.89l-.61,1.44-1.62-1.23L18.65.46l1.71,10.53c-1.76-.47-2.57-1.64-2.31-3.1Z"/>
      <path d="M26.67,42.25c-.34.08-.68.17-.74.07-.06-.11-.19-.28-.27-.37-.13-.13.47-.57.65-.62l14.29-3.5c.16-.04.73-.27.88-.33.21-.09.31.56.41,1.08l-15.22,3.67Z"/>
      <path d="M27.54,44.55c-.34.08-.72.09-.9.08-.23-.02-.25-1,.04-1.08l10.85-2.65c.46.04.02,1.22-.37,1.31l-9.62,2.34Z"/>
      <polygon points="36 11.78 32.07 13.75 34.58 5.96 36 11.78"/>
      <path d="M31.52,13.46l-2.05-3.86,4.24-3.56c-.6,2.59-1.2,4.53-2.19,7.42Z"/>
      <path d="M28.7,8.84l-1.18,3.32-.6-5.87c.37-.37,1.61-.67,2.25-.64.55.02,1.15.74,1.49,1.5l-1.95,1.69Z"/>
      <path d="M38.48,41.89c-.23-.3,0-1.24.39-1.34l4.31-1.1c-.21-1.1-.32-1.65-.17-2.74.86,1.25,1.27,1.99,2.06,3.58l-6.58,1.6Z"/>
      <polygon points="25.45 21.93 24.97 23.47 23.51 22.26 25.5 19.38 27.68 22.17 25.75 23.72 25.45 21.93"/>
      <path d="M25,24.6l.2,4.89c-1.91-1.58-2.08-4.1-1.73-6.4.36.22,1.51,1.04,1.53,1.51Z"/>
      <polygon points="16.58 17.48 15.89 20.2 12.95 16.49 16.58 17.48"/>
      <polygon points="15.52 20.68 12.91 21.03 12.63 17.15 15.52 20.68"/>
      <path d="M32.97,24.23l1.17-2-1.58,1.45-.33-1.24c-.09-.34.89-.77,1.25-.77l1.14-.02c.39,0,.43,2.76-.27,2.7l-1.38-.12Z"/>
      <path d="M31.09,27.36l-.13-1.29c-.27.29-.94.61-1.77.57.59-1.56,1.3-2.71,2.23-4,.97,1.27.34,2.05-.35,3.41l1.25-1.07c.32-.27,1.2-.04,1.99.14-.87.81-1.73,1.41-3.21,2.25Z"/>
    </g>
  </g>
</svg>