<?xml version="1.0" encoding="UTF-8"?>
<svg id="Warstwa_2" data-name="Warstwa 2" xmlns="http://www.w3.org/2000/svg" viewBox="0 0 44.9 32.97">
  <g id="game-icon-v7-magic-pixarts-store">
    <g id="game-icon-v7-magic-pixarts-store_43">
      <path d="M44.82,21.29c-.53-3.87-7.18-5.64-10.64-6.13-7.85-1.12-15.9-.32-23.3,2.58-3.4,1.33-10.45,5.7-9.36,9.58.33,1.19,1.38,2.28,2.54,2.89,4.96,2.62,10.5,2.96,16.14,2.68,4.42-.22,8.31-.73,12.39-2.06,3.68-1.2,7.21-2.54,10.05-5.34,1.08-1.07,2.41-2.59,2.19-4.21ZM36.23,28.19c-8.23,3.84-17.4,4.72-26.25,2.76-2.36-.52-7.79-2.56-6.29-5.86.71-1.57,1.95-2.98,3.48-3.94,7.72-4.88,19.15-6.27,27.92-4.42,2.84.6,7.42,1.8,7.72,4.9.26,2.75-4.26,5.47-6.58,6.56Z"/>
      <path d="M6.27,6.33C15.38,1.64,25.85.45,35.81,2.8c2.93.69,5.25,2.04,7.44,3.86-.63-1.99-2.21-3.34-4.09-4.15C33.28-.03,26.86-.41,20.53.35,14.03,1.12,7.88,3.11,2.72,7.22,1.18,8.44-.13,10.16.01,11.99c1.91-2.5,3.67-4.33,6.26-5.66Z"/>
      <path d="M29.7,14.26c5.06.04,11.4,1.09,15.2,4.86-.41-3.61-8.01-5.67-11.18-6.03-7.82-.9-15.51-.02-22.87,2.77C7.93,16.96.25,21.12.99,24.76c4.3-7.19,14.14-9.31,21.9-10.37,2.28-.31,4.51-.15,6.8-.13Z"/>
      <path d="M24.83,3.21c-.22.05-.83.47-.69.63,2.16,2.48,1.68-2.52,10.25,6.41,2,2.09,4.4,3.52,7.39,3.47-.04-.37-.26-1.31-.62-1.38l-1.61-.33c-4.33-.9-8.27-9.94-14.73-8.78Z"/>
      <path d="M8.57,6.51c-3.61,1.3-5.26,6.87-4.92,6.98l.57.18c.6.2,1.85-6.54,6.66-6.06,1.77.18,3.43.81,5.14,1.5l1.11-1.2c-2.76-1.5-5.7-2.45-8.56-1.42Z"/>
      <path d="M14.41,5.57c.49.49,1.34.53,1.93.13,3.41-2.34,6.11.28,9.28,2.46.34.23,1.45-.71,1.16-.97-3.77-3.46-8.41-6-12.38-1.61Z"/>
      <path d="M9.31,14.3l3.41-5.23c-.4-.2-.78-.36-1.04-.3-.21.05-.66.54-.8.76l-2.16,3.56c-.73,1.21-2.07,1.87-3.5,1.64l-3.98-.65c-.24-.04-.96.07-1.02.3L0,15.31l4.78.9c1.71.32,3.51-.36,4.53-1.92Z"/>
      <path d="M11.65,13.36c1.89.58,4.53-.4,5.95-2l4.16-4.67-.93-.49c-.23-.12-.9.41-1.09.61l-3.73,3.91c-2.14,2.24-5.29.34-4.35,2.64Z"/>
      <path d="M29.31,6.92l-1.05.81c-1.88,1.46-3.87,2.88-6.28,2.27l-1.36-.35c-.32-.08-.82.8-.97,1.27,4.41,1.87,8.07-.09,10.86-3.13-.36-.36-.97-1.06-1.2-.88Z"/>
      <path d="M32.18,4.69c.29.79,1.17,1.27,2.01.98,3.09-1.05,3.05,1.96,4.88.33-1.72-2.17-4.54-2.8-6.89-1.31Z"/>
      <path d="M40.02,6.83c-1.31.3-2.69,1.11-3.77,1.88.29.4.9,1.04,1.14.91l1.12-.64c1.81-1.03,3.24-1.13,4.96.01-.26-1.64-1.91-2.52-3.46-2.17Z"/>
      <path d="M40.35,9.26l3.9,6.78c.3-1.31-.14-2.2-.77-3.26l-2.06-3.42c-.15-.24-1.01-.26-1.07-.1Z"/>
      <path d="M31.64,10.39c-1.09-.18-2.05-.69-2.92.44,1.75.97,3.54,1.34,5.51.74-.56-1.21-1.59-1.02-2.59-1.19Z"/>
      <path d="M2.4,17.24l-1.77,3.15c-.14.25-.04.84.2,1.23,3.45-3.7,2.47-5.97,1.57-4.37Z"/>
      <path d="M.82,13.22c1.53-.39,2.62-1.33,2.89-2.81-1.45.36-2.65,1.24-2.89,2.81Z"/>
      <path d="M27.34,28.85l5.18-1.84c1.84-.65,3.56-1.44,5.09-3.11l-5.71,2.25c1.96-1.2,3.83-1.94,5.61-3.49l-4.98,1.92c1.49-1.2,2.93-1.68,3.98-2.86l-4.38,1.86,3.46-2.8-3.98,1.85,3.03-2.8c-3.51,1.24-6.83,2.55-10.53,2.64l4.4-1.32c2.27-.68,4.58-1.28,6.44-3.06-10.36,3.12-13.96,4.32-24.38,2.81-.26-.04-.76.15-.88.25-.08.07.03.29.12.35.08.06.57.3.7.32l6.05,1.01c-2.73.7-5.35-.5-8.26-.63l2.76,1.52-2.49-.35,2.61,1.86-3.34-1.11c.88.88,1.93,1.47,3.23,2.22l-3.81-.73,4.64,2.38c-1.71-.25-3.15-.7-4.73-1.26,2.03,2.66,8.28,2.58,11,3.03-3.81.26-7.41-.37-10.97-1.04,7.02,4.58,26.98,2.15,31.86-3.9-3.58,2.06-7.49,3.8-11.73,4.05Z"/>
    </g>
  </g>
</svg>