<?xml version="1.0" encoding="UTF-8"?>
<svg id="Warstwa_2" data-name="Warstwa 2" xmlns="http://www.w3.org/2000/svg" viewBox="0 0 43.9 38.09">
  <g id="game-icon-v7-magic-pixarts-store">
    <g id="game-icon-v7-magic-pixarts-store_95">
      <path d="M21.92,12.34c-.84-1.23-1.64-2.49-2.77-3.48-3.56-3.1-9.37-2.5-11.7,1.77-2.35,4.31-1.32,9.54,1.73,13.25,4.36,5.3,9.62,7.89,12.71,14.21,4.07-7.73,10.49-9.62,14.4-16.6,2.74-4.89,1.72-12.22-3.68-14.09-4.39-1.52-8.19.76-10.69,4.94ZM9.69,18.83c.84,1.12,1.44,2.42,1.88,3.95-1.14-.89-2.29-2.17-1.88-3.95ZM9.46,16.91c-1.24-.57-.98-2.04-.71-3.19.76-3.25,3.89-5.37,7.23-4.04-3.5.53-6.8,3.43-6.52,7.22ZM35.06,12.83c.56,2,.77,3.88-.06,5.78l-.18-4.11c-.13-2.92-2.88-4.83-5.77-4.98,2.77-1.19,5.28.71,6.01,3.31ZM29.38,26.21c-.79,1.16-1.65,2.14-2.69,3.15l-3.81,3.68c1.16-3.21,3.95-5.02,6.5-6.83Z"/>
      <path d="M3.96,14.91c.2-3.32,1.38-6.09,3.57-7.94,2.41-2.03,5.21-2.51,8.6-2.25-2.34-1.54-5.08-1.39-7.54-.21-3.92,1.88-5.96,6.24-4.63,10.4Z"/>
      <path d="M36.26,5c-2.67-1.74-6-2.05-8.64-.28,4.09-.42,7.83.53,10.28,3.83,1.37,1.85,1.73,4.06,2.21,6.29.79-3.72-.56-7.69-3.85-9.84Z"/>
      <path d="M10.58,29.06c-2.64-2.27-4.42-4.98-6.17-8.1-.32,3.96,6.07,11.44,9.34,11.65-1.03-1.56-2.01-2.55-3.17-3.56Z"/>
      <path d="M35.77,26.66c-1.8,2.1-4.23,3.58-5.61,6.06,5.24-2.11,8.59-6.82,9.44-11.96-1.18,2.04-2.27,4.09-3.83,5.91Z"/>
      <path d="M36.12,1.99c2.35,1.37,4.12,2.86,5.31,4.88.19-3.09-2.66-5.24-5.31-4.88Z"/>
      <path d="M7.86,1.97c-3.05-.34-5.76,2.1-5.27,5.05.99-2.49,3.13-3.73,5.27-5.05Z"/>
      <path d="M42.67,11.09c.13,2.43.17,4.28-.11,6.57,1.06-1.34,2.33-6.01.11-6.57Z"/>
      <path d="M.72,11.19c-1.46,2.18-.37,4.51.45,6.04-.5-1.42.65-7.68-.45-6.04Z"/>
      <path d="M11.28,34.6c-1.29-1.7-2.72-2.98-4.54-3.98.6,2.07,2.57,3.25,4.54,3.98Z"/>
      <path d="M32.07.55c-1.88-1.32-3.86.01-5.29,1.31l5.29-1.31Z"/>
      <path d="M12.76.84l4.16.99c-2.55-2.98-6.31-1.5-4.16-.99Z"/>
      <path d="M32.79,34.55c1.94-.82,3.5-1.99,4.33-3.69-2.05.77-3.33,2.22-4.33,3.69Z"/>
    </g>
  </g>
</svg>