<?xml version="1.0" encoding="UTF-8"?>
<svg id="Warstwa_2" data-name="Warstwa 2" xmlns="http://www.w3.org/2000/svg" viewBox="0 0 40.6 41.76">
  <g id="game-icon-v7-magic-pixarts-store">
    <g id="game-icon-v7-magic-pixarts-store_180">
      <path d="M20.49,8.57l-.21,2.38c-1.07-2.73-.86-6.22,1.96-7.99-2.87,7.93,2.96,4.09.25,16.04,1.5-.51,3.02-.78,4.58-.68,3.16.2,6.49-1.24,7.63-3.94-.95.62-1.75,1.16-2.72,1.56,1.54-3.44,2.3-6.47,2.02-9.99-1.23,1.24-2.16,2.26-3.4,2.47l-4.05.7,1.46-2.32c-2.36.28-3.65,2.24-4.67,4.64l-.97-3.11c-.24-.78.33-2.51.37-3.33.17-3.61,3.66-3.02,5.96-4.22-.8,2.84-5.08.75-4.55,5.12,5.01-3.34,5.6-.2,8.33-5.89l-.4,5.54c1.8-3.88,4.63-5.75,8.51-4.98-6.17,3.16.29,4.54-4.88,10.34l4.59-1.91c-.87,2.76-2,1.26-2.97,5.34l-1.76,2.53c1.98.55,3.06-1.05,3.82-2.75,1.22,4.34-5.46,5.33-8.02,5.17l1.43.83,5.31-.84c-2.02,2.62-5.47,3.04-8.26,1.7l1.46-.32c-3.26-.99-6.44-1.59-9.99-.08-.57-2.51,1.04-4.96.23-8l-1.06-4.01Z"/>
      <path d="M19.02,23.4l3.31-.06c-.62.94-1.27,1.27-2.28,1.42-3.54.52-1.5,1.94-4.18,3.31l.2-4.08c.08-1.56.17-3.09,1.66-4.31l.07,4.27c.61-1.17.78-2.4.96-3.83l.47-3.73-.44.93-.99-3.38c-.57-1.96-.55-4.08.29-5.82,0,4.97,3.25,4.77,2.65,8.87l-.71,4.93,4.01-1.28c2.2-.7,4.09.67,5.68,2.11l3.41.55c-1.87,1.19-3.92.8-5.87.17l-2.33-.75,1.03-.64-5.99.59c-.27.03-.64.32-.96.75Z"/>
      <path d="M9.76,33.77c-1.67,2.29-3.45,3.57-6.06,4.68-.07-4.95,2.41-.96,4.38-7.72,2.76-2.1,5.04-4.19,6.97-7.34,1.88,4.45-2.61,7.9-4.99,10.65l-.27-.45c-.14-.23-.36-.79-.03.18Z"/>
      <path d="M6.15,38.54c.71-.23,1.62-.98,2.22-1.48-.25,1.46-1.26,2.76-2.74,3.16l-5.63,1.54,1.59-6.12c.2-.77,1.43-1.58,2.32-1.85-.38,1-.66,1.71-.95,2.65l-1.09,3.47,4.29-1.37Z"/>
      <path d="M27.83,17.34l-4.42.77.5-4.4c.07-.57.86-1.52,1.35-1.87l.7,1.41c1.16-2.4,3.2-3.09,5.35-2.48-1.91.95-2.69,2.7-2.74,4.42l1.3-.18c-.31.73-1.23,2.19-2.04,2.33Z"/>
    </g>
  </g>
</svg>