<?xml version="1.0" encoding="UTF-8"?>
<svg id="Warstwa_2" data-name="Warstwa 2" xmlns="http://www.w3.org/2000/svg" viewBox="0 0 41.97 40.54">
  <g id="game-icon-v7-magic-pixarts-store">
    <g id="game-icon-v7-magic-pixarts-store_88">
      <path d="M39.99,16.25l1.1,4.69c.66-1.21,1.11-2.7.76-3.95-.14-.5-1.49-.91-1.86-.73Z"/>
      <g>
        <path d="M13.35,36.03c2.94.24,5.75.74,8.34-.68,3.59-1.96,6.54-5.31,7.21-9.62-3.65,4.84-8.98,6.66-14.76,4.28,2.21,2.79,5.78,2.24,9.02,1.63-3.1,1.82-8.24,3.21-10.56-.86-.24-.42-.92-1.11-1.29-1.42-5.8,1.57-5.72-6.93-8.43-8.81,1.62,4.85.1,5.48,2.45,9.96.38.73.42,1.53-.05,2.28l-2.57-3.1c1.77,6.78,9.35,10.34,15.89,7.95-2.02-.48-3.76-.61-5.24-1.61ZM11.28,34.35c-.46.58-1.67.83-2.39.48-1.07-.51-1.7-1.61-1.85-2.72.79.81,1.33,1.65,2.28,1.98.42.15,1.42-.47,1.46-.87.04-.39-.45-1.06-.8-1.24l-.55-.28c-.09-.04.31-.5.41-.5.54-.02,1.5.59,1.73,1.09.26.57.05,1.62-.28,2.04Z"/>
        <path d="M26.89,2.02c1.12.56,2.02,1,3.01,1.71-5.88-1.18-10.93.38-14.25,4.89-1.98,2.69-3.4,5.85-2.69,9.18.47-3.54,1.93-6.23,4.65-8.19,3.43-2.48,7.48-2.12,11.02.72-1.39-3.52-5.17-4.3-8.82-3.7,3.6-2.07,8.16-.65,10.25,3.19.37.68,1.35,1.86,2,1.77.9-.12,2.17-.38,2.86.02.5.29,1.03,1.15,1.24,1.84l1.38,4.65c.2.67.74,1.45,1.21,1.86-.17-1.53-.41-2.38-.35-3.41.18-2.86-.19-5.76-2.02-7.96-.97-1.17-2.06-2.11-3.64-2-.48.03-.91,1.23-.49,1.47.35.2.97.37,1.66.57-.55.76-1.58.69-2.21.05-.48-.49-.71-1.47-.37-2.09.29-.53,1.21-1.08,1.85-1.04,1.57.11,2.55,1.1,3.29,2.19.03-.2.04-.77.14-.7.1.07.6.36.66.47l2.5,3.86c-1.17-6.31-5.72-10.05-12.89-9.34Z"/>
        <path d="M37.82,29.03c-1.62-.48.36-4.47-1.76-8.47-1.82-3.43-4.73-6.34-8.54-7.63.92,1.34,2.16,2.29,2.8,3.64,2.36,4.94,1.44,8.42-.1,13.06,2.79-2.66,3-6.31,2.41-10.09.97,1.67,1.04,3.58.98,5.37l.49-.57c-.04,2.77-1.91,4.46-2.93,6.68-.59,1.29.32,3.48-1.21,4.55-2.46,1.72-4.65,1.91-5.95,3.85l3.7-.8c2.75-.6,5.55-2.39,6.64-4.94-.97-1.36-1.04-3.07.51-3.63-.09.63-.2,1.67-.21,2.35,0,.42,1.51.71,1.75.35l.8-1.23c.52,1.64-1.33,1.76-1.86,2.5l-2.82,3.9c7.49-2.82,8.32-10.61,5.55-15.66.12,2.71.18,4.52-.26,6.76Z"/>
        <path d="M18.48.51l-5.68,1.82c-2.43.78-5.49,2.62-5.76,5.29.36.86,1.18,2.42.67,3.45-.37.74-1.5,1.79-2.44,1.34-.8-.38-1.42-2.02-1.53-2.87-.15-1.21,1.16-1.62,1.88-1.87l2.32-4.72C2.86,5.7.63,11.53,3.38,17.24c.06-1.32.16-2.67.41-3.98.28,3.06.77,5.85,2.97,7.87-.21-1.86-1.01-3.13-.48-4.94,1.16,4.45,3.67,8.88,8.48,10.72-5.03-5.86-5.31-8.93-3.04-15.99-1.87,1.76-2.45,4.14-3.23,6.53-.03-3.47,1.46-6.39,3.28-9.23l-.46-2.33c1.8-3.07,5.26-3.19,7.16-5.38Z"/>
        <path d="M20.7,10.66c-.47,6.47-7.06,5.24-5.58,11.36.5,2.07,1.89,3.81,3.51,4.55,2.1.97,4.18.54,5.99-.42,2.43-1.28,3.17-3.48,2.91-6.06-.16-1.59-.49-3.23-2.13-3.85.24,2.12.51,4.03-1.35,4.71-.43.16-1.53-.01-1.72-.45-1.36-3.07,3.7-4.53-.39-9.04.92,5.18-4.06,6.67-2.3,9.94.48.9,1.89,1.85,3.18,1.71l3.23-.35c-.74,3.02-4.38,4.18-6.95,2.76-1.57-.87-2.27-2.58-2.28-4.19-.03-4.33,6.55-5.24,3.88-10.67Z"/>
        <path d="M21.52,25.44c1.46-.14,2.86-.86,3.52-1.89-1.88.38-3.04.45-4.39-.37-1.03-.63-1.55-1.73-2.04-3.31-.61,1.15-.98,2.57-.3,3.78.57,1,1.84,1.92,3.19,1.8Z"/>
        <path d="M.05,22.59c-.3,1.19.78,2.9,2.22,2.42l-1.53-5.16L.05,22.59Z"/>
        <path d="M4.43,9.51c-.08.39.2,1.17.54,1.55.57.64,1.72.39,2.05-.26.73-1.45-1.48-2.55-1.27-2.56-.46.04-1.22.8-1.32,1.27Z"/>
        <path d="M20.27,40.54c.7-.86,1.22-1.61,1.7-2.51l-4.39,1.84c1.03.64,1.62.62,2.69.67Z"/>
        <path d="M22.26.12c-1.08.49-1.96,1.58-2.18,2.49l4.28-2.06c-.41-.47-1.46-.73-2.1-.44Z"/>
        <path d="M27.47,33.56c-1.23.44-2.29,1.32-2.49,2.65,1.41-.29,2.23-1.39,2.49-2.65Z"/>
      </g>
    </g>
  </g>
</svg>