<?xml version="1.0" encoding="UTF-8"?>
<svg id="Warstwa_2" data-name="Warstwa 2" xmlns="http://www.w3.org/2000/svg" viewBox="0 0 41.34 43.79">
  <g id="game-icon-v7-magic-pixarts-store">
    <g id="game-icon-v7-magic-pixarts-store_221">
      <path d="M4.75,39.47c-1.97,1.04-3.34,2.48-4.75,4.32,1.26-8.33,9.3-6.52,9.41-14.06l.1-6.79,2.09,4.12c.03-2.02-.32-3.84-.92-5.73-1.56-4.93-1.15-10.11,1.73-14.42C15.08,2.9,19.61.4,24.02.06c5.09-.4,9.87,1.3,13.23,5.03,6,6.67,5.27,16.67-1.4,22.66-4.96,4.46-11.93,5-18.19,2.19.84,1.85,2.62,1.97,4.52,3.03-5.44,2.31-6.26.62-12.22,3.75l-5.23,2.75ZM39.63,15.79c0-7.79-6.31-14.1-14.1-14.1s-14.1,6.31-14.1,14.1,6.31,14.1,14.1,14.1,14.1-6.31,14.1-14.1Z"/>
      <path d="M20.09,37.49c1.36-1.08,2.43-2.1,2.79-3.96,5.17.35,9.86-1.29,13.87-4.32-1.58,2.84-4.08,4.46-6.71,5.87-3.09,1.3-6.19,2.4-9.95,2.41Z"/>
      <path d="M8.14,18.22c-2.13,1.38,2.04,4.16-2.38,9.49,0-1.63.25-3.27-.06-4.87-1.01-5.18-.09-10.94,3.85-14.69-1.23,3.37-1.75,6.76-1.4,10.08Z"/>
      <path d="M17.78,36.62c-1.97.89-3.44,1.35-5.53,1.49,1.73-1.35,3.27-1.96,5.58-2.31l-.05.82Z"/>
      <path d="M4.61,34.01l2.48-4.76c.52,1.81-.13,4.16-2.48,4.76Z"/>
      <path d="M23.26,11.98c-1.54,1.1-2.6,2.62-2.61,4.48-.02,2.16.78,4.08,2.59,5.19-.46-1.29-.79-2.23-.97-3.51,1.7,2.31,3.93,2.89,6.42,1.99,1.67-.61,3.32-1.83,3.33-3.81-1.03.89-1.95,1.74-3.35,2.21,1.74-2.15,2.18-4.96.42-6.88l-.51,1.22c-1.97-2.78-5.19-2.68-8.12-1.12l-2.75,1.46c-3.3,1.76-2.69,6.3-1.73,9.76-3.85-4.44-2.55-11.21,2.42-14.38,2.88-1.83,6.13-1.31,9.51.03-2.52-3.45-6.72-3.04-10.62-1.73,2.91-2.96,7.53-3.5,11.14-1.64,3.77,1.95,5.43,5.8,5.46,10.11,1.32-3.22.59-6.53-1.35-9.52,4.59,3.02,5.67,9.22,2.23,13.48l-2.67,3.3c2.33-.33,3.49-2.09,4.94-3.51-.37,1.73-1.28,3.71-2.9,4.59-4.19,2.3-10.61,1.57-13.37-2.68.48,4.45,6.22,6.48,10.43,5.34-2.25,1.54-4.81,1.68-7.4,1.01-5.52-1.44-8.49-7.28-6.32-12.59,1.53-1.39,3-2.81,5.77-2.79Z"/>
    </g>
  </g>
</svg>