<?xml version="1.0" encoding="UTF-8"?>
<svg id="Warstwa_2" data-name="Warstwa 2" xmlns="http://www.w3.org/2000/svg" viewBox="0 0 47.8 48.06">
  <g id="game-icon-v7-magic-pixarts-store">
    <g id="game-icon-v7-magic-pixarts-store_212">
      <path d="M27.57,12.98l3.3,1.53c-6.55,2.05-5.94,6.48-6.2,12.39-.19,4.37-1.36,4.71-5.13,6.63-1.33.68-3.36.67-4.24,1.96-1.41,2.07-3.08,4.17-4.77,5.47.96-3.07,1.61-5.78,2.15-8.85.59-3.38,4.55-3.8,7.17-6.95,1.13,2.82-.04,5.6-3,6.66.78-.03,2.25-.16,2.86-.63,3.06-2.37.29-7.07,1.87-11.93l-2.1.81c.61-2.26,2.09-3.53,3.89-5.45l-3.32-.02c1.6-2.07,3.76-2.66,6.56-3.77-1.05-.47-2.18-.78-3.69-1.15,1.97-1.43,4.28-1.3,7.02-.91l-1.18-1.83c2.4.37,4,1.35,6.42,2.57-1.84-2.86-5.65-4.08-4.99-9.51,1.02,1.73,2.12,3.45,3.73,4.66l4.47,3.38c-.17-2.59-3.95-2.23-2.77-6.4.63,1.07,1.22,2.18,2.06,2.93,1.43,1.28,2.19,3.08,3.33,4.4,1.33,1.54,2.83,2.68,2.8,5.01-.02,1.98,2.59,2.17,3.42,3.06,1.31,1.4.23,4.73-1.66,4.99l-.55-1.01c-.14-.25-.87-.29-1.39-.41l-.04-1.23c0,.24-3.74-2.71-4.95-2.56l-1.79-2.54c-.41,2.11.93,3.57,2.28,4.96,1.18,1.21,1.92,3.05,3.78,3.51-.29,1.71-2.08,2.41-4.23,1.79.36-2.47-1.5-4.54-4-5.08l-2.55-.55,2.07-1.39-3.38-1.13,2.32-1.87-3.37-1.62,3.72-.94c-1.89-.64-3.9-.33-5.91,1.03ZM41.95,14.39c-.79-1.52-1.64-2.35-2.73-3.04-.26,1.83.95,3.22,2.73,3.04Z"/>
      <path d="M1.62,47.83c-2.74,1.31-2.27-3.32,3.47-6.99.83-.53,1.68-.81,1.99-1.69.84-2.42,2.09-4.35,4.46-5.79-1.31,7.37-3.38,11.33-9.91,14.47Z"/>
      <path d="M27.33,26.22c-1.57-.88-2.03-2.48-1.31-4.19.78.59,1.49,1.13,1.75,1.62.34.63-.05,2.01-.44,2.56Z"/>
      <path d="M27.94,22.28c-.68-.41-1.53-1.07-1.73-1.61-.19-.5.3-1.56.73-2.33,1.15.97,1.66,2.11,1,3.93Z"/>
      <path d="M30.14,17.72l-1.44,1.59c-.48-.57-.96-1.73-.57-2.29.33-.47,1.35-1.01,1.84-1.12l-.54.93c-.1.16.3.47.71.9Z"/>
    </g>
  </g>
</svg>