<?xml version="1.0" encoding="UTF-8"?>
<svg id="Warstwa_2" data-name="Warstwa 2" xmlns="http://www.w3.org/2000/svg" viewBox="0 0 42.17 47.77">
  <g id="game-icon-v7-magic-pixarts-store">
    <g id="game-icon-v7-magic-pixarts-store_16">
      <path d="M37.03,26.52l-.73-.55c-.01-.55-.01-1.85-.15-1.84l-1.11.06-.43-1.02c-.9.23-1.45.35-2.39.08l-1.49,1.6c-.35-.16-1.27-.35-1.27-.03.07.95-.34,2.2-1.58,2.45l.19,2.22c-.38.38-1.23,1.25-.93,1.58l.81.89c.16.17-.22.72-.37.98-.16.26-.2,1.28.1,1.28h1.07c-.04.64.28,2.03.84,1.83l1.73-.63c1.53-.56-1.91,3.23,3.42-1.99l1.98-3.56c-.97-2.4,1.12-2.75.33-3.34ZM31.13,33.57l.34-3.26c-.18-.54-.62-1.62-.52-2.18.11-.6.93-1.39,1.76-1.55.46-.09,1.04,1.05.86,1.43-.7,1.5-.63,2.44.18,4.31l-2.62,1.24Z"/>
      <path d="M10.18,23.98c-1.41-.83-3.47-.67-4.07.94-1.48,4.01.45,8.65,4.24,10.55.65.33,2.01.34,2.53.06,2.82-1.56,1.95-8.81-2.71-11.55ZM11.07,33.56l-2.45-1.17.53-3.03c-.39-.88-1.09-2.17-.03-2.86.61-.4,1.8.43,2,1.08.77,2.62-1.06.33-.05,5.98Z"/>
      <path d="M27.23,12.56l-.96-1.43c1.46-.31,1.78-.27,2.92-1.07l-2.89-.93c-.48,1.8-1.56,3.13-3.34,2.79.6-.46,2.03-1.3,1.73-2.17-.3-.88-1.62-1.28-2.36-1.7,1.3.19,2.1.44,3.21.97.52-.24,1.31-.96,1.91-1.65-1.07-.23-1.9-.27-2.79-.22l-1.01-.9c-.25-.22-1.09.12-1.43.32-2.41,1.42-2.47-1.12-4.18-.56-.42.14-1.11.78-1.54.96l-1.85.79,1.1,1.49-2.65.68c-.04.83,3.26.95,2.66,1.64l-.88,1.01c.3.26,1.29.84,1.68.96.85-.35,2.26-.95,2.77-.35.61.71,1.27,1.12,2,1.08.47-.02,1.08-.62,1.58-1.17,1.13-1.24,1.89,1.6,4.3-.55ZM21.58,11.66c-1.53-.09-2.84-.32-3.82-1.26l.12-2.4,1.89.14-.71.36c-.15.08-.21.49-.13.58,1.43-.14,3.24-.64,4.37.61.68.75-.83,2.02-1.73,1.97Z"/>
      <path d="M37.91,19.45c-2.61-2.35-7.01-.68-8.3,2.28,1.47-1.02,2.97-2.4,4.71-2.49,2.33-.12,4.69,1.44,3.96,3.9-1.13-1.29-2.2-2.34-3.45-2.49-1.52-.19-3.06.07-3.95,1.29,2.25-.78,4.77-.95,6.23,1.16.81,1.18.99,3.01,1.34,4.41l.38-4.21c1.26,3.21-.08,6.17-1.16,9.21-.44,1.24-1.23,1.94-1.96,2.85-1.68,2.1-3.52,4.26-6.47,4.29-1.92.02-2.98-1.5-3.44-2.66-.13-.32-.69-1.02-.81-1.29-.13-.27.52-.75.77-.76.91,1.58,1.87,2.98,3.6,3.5,1.06.32,2.33,0,3.02-.77-1.86.12-3.31.04-4.56-1.05-.95-.83-1.87-2.39-1.89-3.84l-.05-3.64c-.47,1.72-.51,3.36-.72,5.46-1.33-2.08-.25-4.53.71-6.6l2.48-5.34c-2.49,2-3.17,5.1-4,8.02-.88,3.08-.43,6.49,1.88,8.82,1.37,1.38,3.54,1.07,5.16.39,7.06-2.94,11.48-16,6.51-20.47Z"/>
      <path d="M18.39,15.21c-1.93-.69-3.99-1.32-5.56-2.71-1.63-1.45-1.24-3.9.46-5.26,3.44-2.75,11.08-2.65,13.98-.92.33.2.97,1.17,1.28.95l1.03-.75c-5.12-3.61-20.36-2.15-19.02,4.45.54,2.67,5.23,4.65,7.82,4.23Z"/>
      <path d="M19.14,27.9c0,.52.9,1.34,1.37,1.15l.04-7.19-7.12-3.77-.27,1.14c-.06.26.54.73.79.86l5.2,2.76v5.04Z"/>
      <path d="M28.84,18.18l-7.08,3.66.04,7.22c.96-.07,1.36-.74,1.35-1.65l-.05-4.56,5.32-2.81c.6-.31.88-1.3.41-1.86Z"/>
      <path d="M28.25,44.34c.27-.15.66-.49.8-.7.14-.21-.1-1.04-.2-1.09l-5.64,2.99-.11-5.46-1.04.08c-.23.02-.34.64-.33.87l.11,6.71,6.41-3.41Z"/>
      <path d="M28.28,17.1c-.61-.53-1.22-.63-1.74-.4l-5.55,2.42-5.31-2.59c-.51-.25-1.33-.03-1.63.58l7,3.56,7.22-3.57Z"/>
      <path d="M1.28,19.23l.06-5.64,4.79,2.45c.21,0,.68-1.11.45-1.27L.09,11.31.01,18.47c0,.41,1.06,1.11,1.27.76Z"/>
      <path d="M20.52,40.85c0-.23-.41-.74-.57-.85-.16-.11-.76.22-.77.46l-.09,5.07-5.51-2.83-.28.9c-.05.16.49.61.63.69l6.56,3.49.03-6.93Z"/>
      <path d="M41.52,10.18l-6.39-3.39c-.35-.19-1.44.31-1.43.63l5.11,2.82-5.31,2.63.5.88c.08.15.68-.02.88-.12l6.64-3.45Z"/>
      <path d="M6.5,13.25c.71.38,1.62.28,2.11-.41l-5.21-2.69,5.57-2.78c-.56-.32-1.86-.55-2.5-.21L.63,10.17l5.86,3.08Z"/>
      <path d="M15.11,29.77l.1,4.66,2.25,2.08c.71-2.52.96-4.97-.24-7.24-.28-.53-2.13-.12-2.12.5Z"/>
      <path d="M40.95,19.28c.29.22,1.23-.41,1.22-.77l-.06-7.08-6.3,3.2c-.37.19-.44,1.49-.11,1.59l5.1-2.5.14,5.57Z"/>
      <path d="M5.6,38.53l-4.22-2.46-.06-5.09c-.01-.82-.37-1.62-1.26-1.51v7.43s5.66,3,5.66,3c.14-.07.14-1.22-.12-1.38Z"/>
      <path d="M40.66,36.09c-1.25,1.33-5.66,2.23-4.43,3.96l5.93-3.13v-7.71c-2.26-.19-.65,4.9-1.5,6.88Z"/>
      <path d="M15.41,4.01l5.79-2.79,4.76,2.43c.59.3,1.22.42,2.09-.13l-6.99-3.52-5.81,2.86c-.12.06-.39.61-.3.69l.48.46Z"/>
      <path d="M3.19,21.5l2.25,2.1c.98-1.06,1.7-1.27,2.8-1.25l-.81-3.76c-2.17.39-3.38,1.25-4.24,2.9Z"/>
      <path d="M17.08,37.87l-2.07-2.6-2.64,1.74.82,3.23c1.99-.57,2.94-.92,3.9-2.37Z"/>
      <path d="M12.22,24.41l2.65,3.78,2.07-.46c-1.2-2.51-2.21-4.33-3.96-6.25l-.76,2.93Z"/>
      <path d="M7.34,37.22c.77-1.14.5-2.24-.3-3.46l-1.59-2.42c-.27-.42-1.56-.46-2.22-.37.94,2.48,2.18,4.43,4.11,6.24Z"/>
      <path d="M20.58,31.23c0-.59-.76-1.22-1.4-1.23v7.66c-.07.7.46,1.38,1.34,1.33l.06-7.77Z"/>
      <path d="M29.82,13.5c2.04-1.21,2.3-4.27,1.04-5.66-.17-.19-.68-.43-.84-.5-1.66-.78,2.07,2.99-.51,5.2-1.57,1.34-3.37,2.11-5.48,2.53l.64.7c1.76-.62,3.58-1.35,5.14-2.28Z"/>
      <path d="M3.6,29.92c.32.09,1.43-.04,1.25-.17-.27-1.92-.18-2.98.02-4.51-.07-.8-1.05-2.03-1.98-2.91-.75,1.53-.92,7.11.71,7.58ZM3.95,28.08c.01.17-.29.29-.72.48l-.04-4.43c1.56.72.62,1.7.76,3.95Z"/>
      <polygon points="11.48 23.78 12.18 20.67 8.29 18.51 8.74 22.07 11.48 23.78"/>
      <path d="M1.28,28.55v-7.09c-.02-.46-.6-1.04-1.19-1.1L0,27.21c-.01.68.51,1.32,1.28,1.34Z"/>
      <path d="M11.27,36.88l-2.58-1.2c-.26.7-.54,1.66-.66,2.41,1.22.99,2.56,1.6,4.06,1.95-.09-1.22-.19-2.87-.82-3.17Z"/>
      <path d="M21.8,38.95c.92.13,1.32-.61,1.31-1.43l-.06-7.56-1.31.73.06,8.26Z"/>
      <path d="M40.95,21.83v6.75c.78-.35,1.23-.92,1.22-1.35l-.08-7.01c-.67.34-1.14,1-1.14,1.6Z"/>
      <path d="M14.26,15.75l-3.84-1.93c-.53-.26-1.44-.05-1.68.54l4.44,2.34c.3.16,1.39-.96,1.07-.94Z"/>
      <path d="M7.62,40.95l4.45,2.35c.46-.31.17-1.27-.27-1.5l-4.38-2.38c-.25.18-.16,1.35.19,1.54Z"/>
      <path d="M11.86,17.39l-3.77-2.08-.31,1.45,4.31,2.17c.32-.43.13-1.34-.22-1.54Z"/>
      <path d="M33.23,14.57c.17-.09,0-.82-.17-.88-.18-.06-.75-.09-.98.03l-4.08,2.16c.72.57,1.68.65,2.46.22l2.77-1.53Z"/>
      <rect x="8.45" y="4.8" width="6.36" height="1.1" transform="translate(-1.17 5.56) rotate(-25.62)"/>
      <path d="M27.78,4.43l4.88,2.51,1.15-.64-4.94-2.44c-.3-.15-1.22.35-1.09.57Z"/>
      <path d="M34.11,16.94c.2-.33.32-1.16.23-1.58l-4,1.99c-.19.29-.28,1.13-.2,1.51l3.98-1.92Z"/>
      <path d="M30.54,41.84c-.26.14-.34.83-.2,1.44l4.27-2.46c.19-.11-.08-1.16-.16-1.18l-3.91,2.2Z"/>
      <polygon points="18.68 16.92 21.24 18.12 23.11 16.86 20.87 15.61 18.68 16.92"/>
      <path d="M3.17,15.49l-.16,1.26c-.37-.93-.43-1.26-.91-1.71-.59,2.77,1.59,6.06.99,3.35l-.17-.77,1.22-.11c.28-.03.74-.84.51-1l-1.49-1.02Z"/>
      <path d="M18.28,25.92l.02-1.15c0-.35-.18-1.38-.5-1.33l-1.12.17c.02-.21.09-.7.01-.92-.08-.22-.65-.26-1.27-.31l2.16,2.86c.02.22-.07.66.11.72.27.09.6.14.6-.04Z"/>
      <path d="M5.97,10.3c1.29.67,2.45,1.85,3.48.41l-2.06-.52,1.73-.85c-1.32-.77-2.6.05-3.15.97Z"/>
      <path d="M20.65,2.77c.08-.07.27.29.54.64.41.55,1.47.79,1.93.05-1.09-1.14-2.51-1.66-3.97-.22.43.44,1.27.83,1.82.73l-.76-.76c-.11-.11.33-.35.45-.45Z"/>
      <path d="M34.88,10.4l-.67.09-.69.1c-.15.02-.08.51-.06.66.02.1.61.16.73.1l2.26-1.02c-.87-.84-2.12-1.48-3.18-.55l1.18.08c.11,0,.42.14.51.21.09.06.02.32-.09.33Z"/>
      <path d="M26.22,22.41c-1.77.22-2.54,2.06-2.08,3.65.3-.73.45-1.5.74-1.5h.9c-.15-.46-.42-1.03-.25-1.25l.69-.9Z"/>
      <path d="M18.24,43.92c0-1.18-.09-2.29-.48-3.46l-.48,1.62s-.52-.57-.52-.58c-.1-.23-.27.96-.14,1.08l1.62,1.35Z"/>
    </g>
  </g>
</svg>