<?xml version="1.0" encoding="UTF-8"?>
<svg id="Warstwa_2" data-name="Warstwa 2" xmlns="http://www.w3.org/2000/svg" viewBox="0 0 47.04 46.6">
  <g id="game-icon-v7-magic-pixarts-store">
    <g id="game-icon-v7-magic-pixarts-store_196">
      <path d="M24.95,22.19c.74-.11,1.81-.17,2.3-.22l-3.04-2.65-.18,2.67c-.48.3-2.07.08-2.34-.46-.74-1.48.81-2.6,1.59-3.51-.16-.63-.52-1.62-.45-2.11.22-1.48,4.95-4.65,6.57-2.18.85,1.29,1.54,1.75,2.97,2.51,1.87.99.79,4.31-.08,5.7-1.01,1.6-2.28,1.16-3.59.81-.59.84-1.9,2.36-3.23,2.12-.4-.07-.96-.75-1.09-1.08-.16-.4.13-1.52.57-1.59ZM26.37,17.62c1.12-1.65.19-2.91-1.15-3.09.13,1.1.62,2.29,1.15,3.09ZM29.6,20.04l2.63.5c-.53-1.42-1.85-1.69-3.02-1.52l-1.24,1.45c.7-.22,1.31-.49,1.63-.42Z"/>
      <path d="M14.31,30.89c.14,1.21,1.03,1.71,2.37,2.27-3.03,2.95-5.9,5.73-8.7,9.05-1.4-.58-2.95-2.01-3.39-3.59,3.31-2.96,6.23-5.73,8.81-8.87l.71,1.06c-.44-1.75.29-3.87,1.66-5.55.18,1.75.12,3.17.04,4.81,1.05,1.76,3.07.53,5.17,1.08-.91.57-1.66.78-2.48.82l.55.34c.39.24-2.12,1.04-4.74-1.44Z"/>
      <path d="M32.49,14.04c2.1-.04,4.74.09,5.41,2.23.35,1.1.54,2.44.52,3.52-.56-.93-.58-3-1.76-3.27l-5.8-1.32-.12-2.81-.76.61c-.9.72-.88-3.12-2.63-4.88,1.58-.2,2.65.95,3.31,2.25l.19-1.96c1.2.54,1.83,1.55,2.12,2.85l1.23-.61c.34-.17.71,1.08,1.01,1.33.66.56,1.9,1.48,2.15,2.28-1.78-.46-3.36-.78-4.87-.23Z"/>
      <path d="M27.39,12.17c-.43.27-1.86.7-2.46.47-1.21-1.04-2.93-1.73-4.72-1.49.65-1.24,2.35-1.68,3.76-1.37l.48,1.91c.28-.94.65-2.35,1.7-2.44,1.74-.16,2.82,1.85,2.22,3.32l-1.18-1.88c-.2-.32-1-.62-1.33-.52-.38.12-.73,1.38-.32,1.44.19.03.71-.26.88-.34s.43.29.98.91Z"/>
      <path d="M34.78,27.17c-.16-2.07-.39-3.63-.95-5.6-.12-.75.08-2.26.18-3.04.54.71,1.07,1.27,1.44,1.28s.86-.78.83-1.14c-.05-.51-.78-1.18-1.47-.4l-1.29-1.5c1.3-.21,2.96.13,3.71,1.49.27.5.03,1.83-.39,2.15-.59.46-1.47.3-2.45,0-.24.31.56.91,1.09,1.38,1.53,1.36.73,4.08-.7,5.36Z"/>
      <path d="M4.92,44.14c-.36,1.64-2.67,3.02-4.5,2.22-1.2-1.19.38-4.04,2.3-4.74l2.2,2.51Z"/>
      <path d="M24.84,27.41c-.81,2.01-5.34,2.8-7.54,2.58.71-1.9,1.1-2.97,2.22-4.74l.15,2.14,1.99.3,3.18-.28Z"/>
      <path d="M21.86,30.74c1.88-1.08,3.77-3.14,4.52-4.62.11-.21.67.24.79.11l.57-.61.44-.47c.07-.07.2-.02.19.08l-.05.61c-.27,3.22-3.07,6.1-6.46,4.9Z"/>
      <path d="M16.97,28.78c-.27-4.53-.75-6.45,2.97-8.56-2.31.25-3.15,2.08-4.32,3.94-.16-1.91.44-3.81,1.62-5.2,1.04-1.23,2.78-1.54,4.46-1.05l-1.66,2c.19.53.1,1.26-.32,1.92-1.21,1.92-.83,3.96-2.74,6.94Z"/>
      <path d="M26.86,30.77c1.17-1.89,1.91-3.71,2.29-5.9l1.84-.95c.87,3.48-.95,6.19-4.13,6.85Z"/>
      <path d="M21.42,16.71c-2.11.16-3.69.88-5.59,2.04.79-3.13,3.78-4.99,6.76-3.91l-1.17,1.87Z"/>
      <path d="M31,29.63c1.42-3.82-.26-5.52,2.13-7.69,1.88,2.69.66,6.1-2.13,7.69Z"/>
      <polygon points="47.04 19.22 39.49 20.69 39.63 17.62 47.04 19.22"/>
      <path d="M24.14,25.93c-.18.66-1.95.33-2.73-.05-.91-.44-1.32-2.52-.79-3.5,1.79-.45,4.1,1.37,3.52,3.55Z"/>
      <path d="M22.18,14.09c-1.84-.2-3.18-.07-4.91.28,1.5-2.41,5.01-3.51,7.32-1.26-.48.75-1.44,1.16-2.41.98Z"/>
      <path d="M7.64,42.81c.46.26.05,1.59-.38,1.45-2.22-.73-5.09-3.47-4.53-5.11.09-.26.99-.36,1.13-.12.7,1.23,2.16,2.92,3.77,3.78Z"/>
      <polygon points="37.04 11.77 35.1 9.76 41.5 5.43 37.04 11.77"/>
      <polygon points="20.09 9.84 18.15 11.71 13.92 5.73 20.09 9.84"/>
      <polygon points="41.19 32.64 35.39 28.49 36.87 26.32 41.19 32.64"/>
      <path d="M28.8,6.86c-.73.15-1.9.21-2.52.17l1.18-7.03,1.34,6.86Z"/>
      <polygon points="44.16 26.1 37.76 24.6 39.18 22.3 44.16 26.1"/>
      <polygon points="14.77 20.47 8.44 19.19 15.09 17.88 14.77 20.47"/>
      <path d="M39.24,15.91l-.98-2.43c2.1-.59,3.62-.98,5.82-1.29l-4.84,3.72Z"/>
      <polygon points="27.66 38.57 26.5 32.08 28.84 31.29 27.66 38.57"/>
      <polygon points="16.75 13.24 15.62 15.76 11.05 12.55 16.75 13.24"/>
      <polygon points="24.09 7.88 21.54 8.68 20.83 3.08 24.09 7.88"/>
      <path d="M34.5,35.64l-3.03-4.89,2.13-1.3c.46,2.38.67,3.74.9,6.19Z"/>
      <polygon points="33.34 8.88 31.17 7.45 34.29 2.78 33.34 8.88"/>
    </g>
  </g>
</svg>