<?xml version="1.0" encoding="UTF-8"?>
<svg id="Warstwa_2" data-name="Warstwa 2" xmlns="http://www.w3.org/2000/svg" viewBox="0 0 51.22 44.39">
  <g id="game-icon-v7-magic-pixarts-store">
    <g id="game-icon-v7-magic-pixarts-store_21">
      <path d="M7.71,35.94c12.2,1.33,23.82,1.48,35.9-.13l-.81-7.91-2.93-.79,2.8-2.08.07-7.11c0-.5-.74-1.22-1.3-1.65.6-.19,1.47-.71,1.52-1.3l.52-6.24c-12.01-1.25-23.76-1.37-35.75.04l.53,5.44,2.69,1.12-2.55,1.62.18,10.51,1.58,1.07-1.9.84-.56,6.59ZM34.41,31.75l2.02-3.69,2.22,3.75-4.25-.06ZM33.48,11.24c.04-.16.51-.59.71-.5l1.17.52.45-1.12c.09-.24.85-.28.98-.06l.62,1.04,1.43.24c.41.07.37,1.28.18,1.68l-1.01,2.09c-.38-.08-.84-.27-.95-.15-.11.13-.4.46-.39.45-.09-.74-.17-1.14-.6-2.28l-1.33,3.07-.2-1.45c-.05-.34-.77-.55-1.31-.84.43-.84.57-1.79.25-2.72ZM17.24,13.57c1.23,0,2.23,1,2.23,2.23s-1,2.23-2.23,2.23-2.23-1-2.23-2.23,1-2.23,2.23-2.23ZM12.02,28.38l.73-1.48c.32-.64,1.63-1.84,2.38-1.63.32.09.51,1.22.35,1.31l-2.37.48.37,1.77c.07.35,1.15.4,1.47.24,1.12-.56.15-.55,1.5-2.21.17-.21.75.62.77.91l.32,6.85-1.4-.88c-2.04-.33-3.11-2.57-3.27-4.09-.04-.37-.98-.99-.85-1.27Z"/>
      <path d="M44.1.37c-12.34,1.61-24.59,1.39-36.95.07-1.21,2.27-1.25,4.9-.01,7.23,12.43-1.44,24.6-1.43,37.08,0,1.01-2.62.96-4.99-.11-7.3Z"/>
      <path d="M7.29,44.16l13.4-.9c7.96-.53,15.44.22,23.18.9,1.53-2.05,1.5-4.84.32-7.21-12.45,1.59-24.67,1.42-37.13.09-1.15,2.39-1.2,4.88.23,7.12Z"/>
      <path d="M4.75,36.61c-1.14-.41-2.05,7.58.64,7.77.18.01.38-.4.36-.59-.84-2.53-.74-4.57.08-6.79l-1.07-.39Z"/>
      <path d="M4.75.18c-.9-.19-2.2,6.29.33,7.76,1.27.74-.72-4.78.68-7.54l-1.01-.22Z"/>
      <path d="M46.24.11c-1.64-.89.79,3.99-.67,7.5,2.06,1.99,3.01-6.23.67-7.5Z"/>
      <path d="M45.51,44.07c2.69,1.63,2.41-7.8.91-7.43l-.98.24c.96,2.41.73,4.76.07,7.19Z"/>
      <path d="M2.54,2.27C1.36,2.98.86,3.34.01,4.07l2.53,1.81v-3.62Z"/>
      <path d="M48.68,38.64l.03,3.43c.94-.51,1.58-.94,2.47-1.68-1.17-.98-1.43-1.15-2.5-1.75Z"/>
      <path d="M2.57,38.67c-1.28.76-1.53.93-2.57,1.72l2.54,1.94.03-3.66Z"/>
      <path d="M48.8,5.85l2.42-1.88-2.47-1.76c-.14,1.6-.14,1.98.04,3.64Z"/>
    </g>
  </g>
</svg>