<?xml version="1.0" encoding="UTF-8"?>
<svg id="Warstwa_2" data-name="Warstwa 2" xmlns="http://www.w3.org/2000/svg" viewBox="0 0 49.5 48.44">
  <g id="game-icon-v7-magic-pixarts-store">
    <g id="game-icon-v7-magic-pixarts-store_158">
      <path d="M31.95,39.33l1.53,1.61-4.61,5.88c-.77.98-2.64.76-3.62.02l-9.81-7.44.81-.77c1.06-1.01-2.42-.5-4.55-2.12l-6.07-4.64c-1.73-1.32-1.58-3.42-.4-4.93,1.9-2.42,3.65-4.77,6.1-6.61.78-.58.97-1.32,1.47-2.01,3.8-5.25,7.96-10.03,12.32-15.07l9.01-2.64,8.73,7.21c1.26,1.04,6.42,4.44,5.17,6.48-1.33,2.17-4.32-.41-6.48,4.13-2.28.85-5.94-.64-8.05,1.13l-6.12,5.13c2.38-.68,3.88-2.55,6.17-3.91,2.43-1.44,6.16.36,9.68.18.77-2.74,3.04-3.64,5.84-3.72.99,1.46.15,4.42-1.68,5.47h-2.14s.95,1.1.95,1.1c.22.25-.1,1.15-.31,1.42l-10.52,13.78-3.44.34ZM30.17,13.02c1.21-.03,2.21-.26,2.34.17l.67,2.09,3.39-3.88c-1.24-.18-1.98-.09-2.21-.51l-1.25-2.29c-1.09,1.47-2.17,3.1-2.95,4.41ZM39.23,25.67l-1.89,2.84c1.29.57,2.3-.93,2.76-2.08.31-.77-.7-1.71-1.86-2.64-1.02,1.23-1.79,2.28-2.86,4.03l3.85-2.15ZM23.93,15.4c.45-.13,1.1-1.09,1.26-1.67.13-.5-.96-1.96-1.45-1.75-1.07.44-2.88,2.44-3.41,3.36,1.48-.1,2.35-.13,3.6.06ZM25.66,30.57c1.91,1.2,4.17-.44,4.27-2.24.04-.72-1.15-2.11-1.7-1.79-.56.32-2.28,1.59-1.78,1.99l1.72,1.36c-.65-.4-2.24-.17-2.51.69ZM18.35,21.23l-1.14,2.63,3.74-3.92-2.15-.38c-.38-.07-.45-.99-.8-1.74l-2.08,2.45,2.43.95ZM21.52,35.76c.66-.9,1.88-.52,2.92-.56.07-.32-.48-1.16-.79-1.12l-1.47.19,1.02-2.05-4.25,4.31,2.03.04c.53.31,1.43.8,1.89.58.38-.18,1.02-1.41.86-1.3l-2.2-.09ZM26.29,42.01l2.61-2.55c.56-.54-.83-2.9-1.52-2.87-1.09.82-2.15,2.28-2.54,3.24,1.11.19,1.65.13,1.62.45l-.17,1.73ZM18.92,30.38l.18,1.04c.04.24.06.41.16.31l.88-.9-1.76-1.57c-.19-.17-.67-.94-.82-.76l-.76.97c-.15.19.66.44.82.57l-1.84,3.64,3.14-3.3ZM12.54,27.5l.07,1.38c0,.19.64.6.69.42s.2-.75.22-.97l.21-3.72c-1.52,1.92-2.54,3.25-3.86,5.42,1.13-.77,1.85-1.55,2.66-2.52Z"/>
      <path d="M11.35,18.07c-.56.68-1.42,1.57-1.9,1.65s-1.27-.55-1.63-1.13C12.57,12.93,16.94,6.76,22.42,1.8,24.48-.04,28.43.07,30.91,0c-1.97,1.47-4.33,1.84-6.69,2.37l-12.87,15.7Z"/>
      <path d="M21.53,47.67l-10.06-7.64c.77-.79,2.14-.77,3.05-.07l10.61,8.25c-1.07.45-2.57.23-3.59-.54Z"/>
      <path d="M0,28.82l5-7.45,3.73-.66-5.36,6.97c-.75.97-1.44,1.73-3.36,1.15Z"/>
      <path d="M3.58,33.13c-.69-.76-2.63-1.26-2.71-2.64.56-.38,1.6-.7,2.13-.49s.97,2.07,1.43,2.45l6.79,5.12c-2.56,1.94-6.88-3.6-7.64-4.43Z"/>
    </g>
  </g>
</svg>