<?xml version="1.0" encoding="UTF-8"?>
<svg id="Warstwa_2" data-name="Warstwa 2" xmlns="http://www.w3.org/2000/svg" viewBox="0 0 42.39 43.27">
  <g id="game-icon-v7-magic-pixarts-store">
    <g id="game-icon-v7-magic-pixarts-store_224">
      <path d="M38.02,17.07c-2.39,4.22-9.97-1.98-13.77,1.57,2.85-.58,5.15-.42,7.69.74-.3.35-1.26,1.03-1.86,1.06l-10.64.44c-.82.83-1.78,1.7-2.97,1.92.47-5.32,5.95-3.99,7.46-6.42,2.38-3.82-2.83-8.56.9-12.33.14.96.14,2.27.4,2.95l1.96,5.13c.33.87.01,2.36-.33,3.02,1.23-.03,2.56.04,3.86.21,5.37.72,2.58,1.12,7.3,1.7Z"/>
      <path d="M5.25,40.1l-2.72,2.04c-.6.45-.71,1.39-1.89.8,1.77-3.31,4.12-2.53,3.89-7.34-.54,1.16-.8,2.93-1.66,3.83L.08,42.36c-.43-2.73.93-4.76,2.79-6.2,4.73-3.68,2.45-6.76,15.59-7.77-4.64,6.4-6.38,3.53-8.84,5.61-1.56,1.31-2.16,3.52-1.89,5.33,1.25-3.87,1.39-5.75,6.08-5.95-2.21,1.77-4.12,3.47-5.74,5.75-.98,1.38-3.93,4.98-5.76,3.97,1.1-1.1,1.82-1.61,2.94-2.99ZM5.68,38.22l1.2-3c.4-1,.96-1.92,1.54-2.87-2.21.65-2.72,4.28-2.74,5.87Z"/>
      <path d="M29.83,12.53c.2-1.35.26-2.64.75-3.88.39-1.01,1.78-2.59,2.75-3.05,1.32-.61,2.78-.73,4.12-1.01.22,4.34-2.49,8.18-7.62,7.94Z"/>
      <path d="M26.42,21.49c-.71,1.54-2.26,2.87-4.1,3.09l-8.69,1.06c1.82-3.41,4.9-1.41,6.08-4.07,1.31-.23,2.54-.3,4.21-.08l-2.8,1.18c3.25.55,2.54-1.74,5.3-1.18Z"/>
      <path d="M36.54.19c-6.29,2.02-6.66,2.63-10.03,8.29-.29-.87-.86-2.37-.63-3.09C27.18,1.24,32.53-.63,36.54.19Z"/>
      <path d="M42.07,5.79c1.34,2.97-1.76,9.64-4.3,10.06-1.22.2-2.49-.17-3.36-.85,4.2-1.43,6.85-4.75,7.65-9.21Z"/>
      <path d="M17.97,27.64l-7.74,1.03c1.5-2.9,7.89-3.01,11-3.25-.6,1.34-1.8,2.03-3.26,2.23Z"/>
      <path d="M37.36,9.17l.57-3c.3-1.57.82-2.87,2.22-3.74.01,2.44-.3,4.47-.83,6.71l-1.95.03Z"/>
      <path d="M39.42,2.04c-.85,2.08-3.71,2.49-5.81,2.76-.45.06-.89-1.54-.47-1.72,1.89-.64,4.31-1.01,6.29-1.03Z"/>
      <path d="M21.12,17.41l.97-4.36c.16-.72.55-1.53.94-2.3.54,1.58.67,2.76.66,4.19-.47,1.19-.97,2.17-2.57,2.47Z"/>
      <path d="M30.05,8.29c-.27.22-1.32-.12-1.73-.33,1.06-1.77,2.25-3.16,3.97-4.42.23.45.46,1.58.2,1.88l-2.45,2.86Z"/>
      <path d="M34.53,14.01c-1.33-1.43.02-2.22.87-3.09.9-.92,1.94-1.6,3.11-.43-1.03,1.26-2.32,2.37-3.98,3.52Z"/>
      <path d="M33.7,13.28c-1.18,1.78-3.19,1.19-4.76.51,1.46-.85,3.19-1.43,4.76-.51Z"/>
      <path d="M29.53,9.07c.06,1.54-.07,3.09-1.25,4.15-.17-1.53-.23-2.79-.23-4.5l1.48.35Z"/>
    </g>
  </g>
</svg>