<?xml version="1.0" encoding="UTF-8"?>
<svg id="Warstwa_2" data-name="Warstwa 2" xmlns="http://www.w3.org/2000/svg" viewBox="0 0 49.2 49.54">
  <g id="game-icon-v7-magic-pixarts-store">
    <g id="game-icon-v7-magic-pixarts-store_244">
      <path d="M30.55,21.34c1.01.85,1.84,1.5,2.44,2.64-1.97,1.56-2.82-1.34-7.24-.36.41-3.44-1.88-6.63,0-7.5.74.67,1.44,1.47,2.27,2.4,1.29-1.04,1.98-2.96,1.69-4.66l-.92-5.39c-.5-2.93.93-5.75,3.77-6.95-2.98,6.67.11,8.87-1.08,15.86,6.9-1.13,9.31,1.92,15.98-1.08-5.01,8.82-12.64-.72-16.92,5.05Z"/>
      <path d="M18.76,34.06l-4.91,5.5c-1.61-.83-3.11-2.36-3.7-4.04,4.53-4.09,8.46-7.9,12.4-12.29l-.84,4.5,4.26-.78c-2.51,2.28-4.87,4.49-7.21,7.11Z"/>
      <path d="M40.32,16.37c5.31-3.93,2.22-6.45,3.75-11.44-5.04,1.84-7.19-1.87-11.68,3.76-.23-1.17-.11-2.57.6-3.44,3.26-4.04,6.38-1.5,10.59-3.11l5.62-2.14-2.22,5.18c-.8,1.87-.94,3.82-.96,5.9-.02,3.14-2.38,6.08-5.7,5.3Z"/>
      <path d="M5.6,46.36l2.73.71c.05,1.37-1.04,2.21-2.38,2.02-2.8-.4-5.26-2.85-5.39-5.79-.03-.65.39-1.63.79-1.89s1.78-.15,1.8.32c.02.83.16,2.11.56,2.7.72-1.5,1.56-1.98,3.41-2.05l-1.52,3.98Z"/>
      <path d="M38.91,12.88c-.88.86-2.36,2.03-3.63.95-1.18-1-.23-3.05.81-4.01,1.07-.98,2.11-1.26,3.59-1.06,1.08,1.52.59,2.8-.77,4.12Z"/>
      <path d="M28.23,17.26c-1.76-4.01-5.5-4.09-3.95-6.37.91-1.34,1.81-2.33,3.17-3.21-.03,1.5-2.4,3.12-.49,4.42,1.73,1.18,2.59,3.02,1.27,5.17Z"/>
      <path d="M7.03,45.4l1.29-4.34-4.13,1.25c-.16-.33.07-1.21.39-1.47l2.63-2.12,3.69,3.47c-.95.84-1.94,1.98-2.63,3.05l-.52.81c-.11.18-.77-.44-.71-.65Z"/>
      <path d="M41.33,21.61c-.51,1.3-4.55,5.29-5.7,2.68-.76-1.73-2.01-2.46-3.81-3.28,2.26-1.56,4.34-.36,5.69,1.98l3.81-1.38Z"/>
      <path d="M13.66,41.45c-.76,2.64-7.83-4.63-5.91-5.33.33-.12,1.06-.19,1.42-.08,1.72,3.73,4.95,3.81,4.49,5.41Z"/>
      <path d="M29.27,24.94c-2.28.7-4.03,1.12-6.44,1.6l1.55-6.54c.64,1.81.39,3.18.35,4.79,1.67-.29,2.95-1.03,4.54.16Z"/>
      <path d="M41.84,12.18c-2.41,2.84-3.91,4.34-7.47,3.26.93-1.44,2.49-.57,3.49-.41,1.04-1.32,1.84-3.54,3.98-2.85Z"/>
      <path d="M3.24,49.25c-.9.3-2.21.45-2.71,0-.61-.55-.68-2.15-.31-2.98l3.02,2.98Z"/>
      <path d="M33.89,10.7c0-1.39,1.38-2.67,2.78-3.29-.21,1.45-.81,2.74-2.78,3.29Z"/>
      <path d="M41.87,7.69c.14,1.34.09,2.63-.2,3.96-1.49-.97-1.75-3.12.2-3.96Z"/>
      <path d="M41.03,7.28c-1.36,1.38-2.86,1.2-4.05.16,1.21-.48,2.65-.45,4.05-.16Z"/>
      <path d="M33.77,15.08c-.64-1.13-.69-2.76-.23-4.17,1.01,1.25,1.19,2.63.23,4.17Z"/>
    </g>
  </g>
</svg>