<?xml version="1.0" encoding="UTF-8"?>
<svg id="Warstwa_2" data-name="Warstwa 2" xmlns="http://www.w3.org/2000/svg" viewBox="0 0 44.69 45">
  <g id="game-icon-v7-magic-pixarts-store">
    <g id="game-icon-v7-magic-pixarts-store_76">
      <path d="M22.29,35.73l13.06-12.23.11-14.17-13.53.02-12.75,12.75.42,13,12.69.63ZM12.66,27.24c0-.25.14-1,.42-1.28l12.39-12.81c.27-.28,1.61-.52,1.7-.04.59,3.32,1.17,7.48,1.55,11.35l-7.09-1.34.22,6.24c.02.59-.37,1.29-1.36,1.82l-1.49-7.75c-.36.33-6.29,5.68-6.33,3.8Z"/>
      <path d="M19.23.65L1,18.72c-.22.22-.38,1.26-.16,1.22.21-.03,1.11-.07,1.31-.24l5.34-4.53-4.31,5.19c1.42.44,3.44.85,5.16.93l12.69-12.96-.89-4.51-5.23,4.51,4.75-5.53c.34-.39-.04-1.93-.43-2.16Z"/>
      <path d="M44.03,25.47c-.9-.77-1.95-.68-2.64-.09l-4.15,3.57,3.55-4.35-4.89-.68-12.5,12.74,1.68,7.84,18.95-19.03ZM25.23,40.48l6.37-6.04c-1.38,2.41-2.93,5.18-6.37,6.04Z"/>
      <path d="M22.2,8.35l13.83-.36L43.44.14l-22.58-.14c.23,2.85.57,5.5,1.34,8.35ZM31.49,2.45l-8.1.95c-.74,1.36.66,2.6,1.39,3.76-.81-.17-1.98-1.2-2.33-2.04-.3-.71.18-2.66.99-2.79,2.63-.41,5.23-.31,8.05.11Z"/>
      <path d="M44.62,1.43c-1.92.35-1.31,2.13-2.05,3.18-1.17,1.68-2.74,3.23-4.39,4.91l3.99-5.78c-2.05,1.54-3.52,3.06-5.49,5.03l-.3,14.05,5.6.7.72-8.49c.4,2.8.37,5.61.41,8.48l1.26.18c.19.03.32-.76.32-1.09l-.08-21.16Z"/>
      <path d="M23.55,45c-.14-3-.51-5.18-1.18-8.15l-7.92-.28-4.84-.29c-1.67.61-4.64,4.46-6.23,6.62l20.18,2.09ZM18.97,38.95c.73-.21,2.1.21,2.74.74.85.69,1.14,2.26.33,3.34-2.45-.18-4.62-.56-6.93-1.13h6.71c-.14-1.67-1.46-2.09-2.84-2.94Z"/>
      <path d="M1.89,41.37c2.47-1.92,4.76-3.92,6.54-5.97l-.4-13-5.21-.77c.07,3.05.25,5.64-.05,8.41-.64-2.87-.81-5.52-1.15-8.21-.05-.39-1.67-.7-1.63-.28l1.89,19.81Z"/>
      <polygon points="25.3 16.99 21.42 20.77 26.23 21.83 25.3 16.99"/>
    </g>
  </g>
</svg>