<?xml version="1.0" encoding="UTF-8"?>
<svg id="Warstwa_2" data-name="Warstwa 2" xmlns="http://www.w3.org/2000/svg" viewBox="0 0 43.2 42.55">
  <g id="game-icon-v7-magic-pixarts-store">
    <g id="game-icon-v7-magic-pixarts-store_239">
      <path d="M37.12,21.29c0,8.55-6.93,15.49-15.49,15.49s-15.49-6.93-15.49-15.49,6.93-15.49,15.49-15.49,15.49,6.93,15.49,15.49ZM21.09,13.45c2.26,1.39,4.08,2.72,5.4,4.87,1.2-3.11-2.55-6.85-4.32-7.97-4.01-2.54-9.06-.72-11.17,3.1l3.44-1.27-1.42,2.6c2.02-.51,3.47-1.4,4.79-2.45l-.51-.7c-.08-.11-.12-.24,0-.26,1.49-.26,1.87.87,3.79,2.06ZM21.41,27.05l3.45,2.9c.86-1.32,2.27-2.45,3.84-2.94,3.19-1,2.39-3.21,3.86-5.06l.12,3.46c3.73-3.57,2.12-8.49.05-11.29l-.45,3.08c.5-3.8-1.84-7.2-5.72-8l2.68,3.86-3.06-1.39,1.91,3.68-.25,3.66c-.11,1.53-.29,2.56-.52,4.24l4.07-5.46c-1.29,7.37-4.32,7.1-5.7,8.04-1.25.85-2.27,1.75-4.28,1.2ZM14.14,29.57l3.1,1.66-2.11-4.15c-.38-.75.27-2.45.33-3.28l.31-4.04-3.62,4.72c0-1.45.56-2.64.98-3.84.84-2.39,2.36-3.21,4.56-4.05,1.14-.44,2.4-.8,3.78-.93l-3.06-2.78c-2.18,2.63-5.31,2.48-5.87,3.8l-1.81,4.21-.12-3.59c-3.11,3.07-2.51,5.47-1.19,9.41.33,1,1.1,1.82,1.72,2.65,1.56,2.09,3.44,3.86,5.9,4.23-1.37-1.26-2.33-2.61-2.89-4.02ZM29.66,28.14c-2.41.01-3.3,1.23-4.18,2.42l.77,1.09c-1.7-.07-2.7-1.13-3.97-2.09-2.06-1.54-3.84-3.09-5.48-5.18-.72,2.59.65,4.57,2.25,6.25,2.26,2.38,5.61,3.84,8.84,2.43,1.84-.81,3.34-2.44,4.54-4.24l-3.63,1.23.87-1.91Z"/>
      <path d="M19.28,2.79l-7.76,3.33C16.66.17,24.06-1.8,30.55,1.82c-4.2-.76-7.64-.58-11.27.98Z"/>
      <path d="M2.23,21.88c2.03,3.89,1.6,4.8,4.19,9.23C.14,25.94-1.71,19.66,1.66,12.9c-.11,3.34-.84,6.27.57,8.98Z"/>
      <path d="M12.68,40.75c3.59.64,7.18.98,10.47-.67s4.23-1.28,8.69-3.88c-2.12,3.15-5.43,4.72-8.79,6.05-3.53.59-7.17.49-10.37-1.49Z"/>
      <path d="M41.63,29.25c.43-4.06.51-7.41-1.65-10.39-.65-2.58-1.75-4.77-3.04-7.16,2.43,1.63,4.08,4.02,5.33,6.62,1.31,3.73,1.36,7.67-.64,10.93Z"/>
      <path d="M41.57,13.56c-3.05-6.1-10.43-8-16.45-9.8,7.69-.44,14.37,1.79,16.45,9.8Z"/>
      <path d="M17.82,39.03l-5.09-.26c-5.28-.91-9.46-4.35-10.92-9.52,4.89,6.61,8.51,6.94,16.02,9.78Z"/>
      <path d="M30.13,40.92c6.15-3.61,7.33-10.18,9.17-16.42.65,7.47-1.31,14.13-9.17,16.42Z"/>
      <path d="M4,17.47c-.88-6.52,1.46-13.13,8.6-15.5-3.17,2.34-5.43,5.36-6.43,9.16-.87,1.99-1.49,3.85-2.17,6.34Z"/>
    </g>
  </g>
</svg>