<?xml version="1.0" encoding="UTF-8"?>
<svg id="Warstwa_2" data-name="Warstwa 2" xmlns="http://www.w3.org/2000/svg" viewBox="0 0 41.66 39.88">
  <g id="game-icon-v7-magic-pixarts-store">
    <g id="game-icon-v7-magic-pixarts-store_162">
      <path d="M17.87,28.28l-3.1-4.96.6,3.01c-1.89-1.47-3.23-2.99-4.7-4.83l-.94-1.18c-.2-.24,1.48-.8,1.69-.57l3.29,3.74-1.82-3.7c-.3-.6.71-1.97,1.43-2.61,1,2.04,2.05,4.03,2.71,6.17,2,6.46,3.78,2.02,2.9,11.85-2.77-2.66-6.09-3.6-9.81-2.55l-6.18,1.74,2.95-12.58c.11-.45,1.31-1.07,1.62-.85l1.62,1.16c1.78,2.72,3.54,5.25,7.73,6.16Z"/>
      <path d="M31.1,32.66c-3.68-.93-6.62-.17-9.55,2.64-.37-1.78-.36-4.25.09-6.24l8.81-3.31c-.15-1.6-.12-2.88.5-3.68s2.01-1.14,3.3-.99l3.33,13.23-6.49-1.64Z"/>
      <path d="M39.85,38.4c-.85-5.39-3.12-9.86-3.41-15.38,2.65,5.34,3.39,10.96,5.22,16.58-5.91.74-11.64-1.26-17.12-.13-2.88.59-4.61.51-7.48-.04-5.49-1.05-10.84.71-17.07.24l3.92-15.19c.14-.55.98-1.21,1.47-1.17l-3.73,15.05c4.07-.21,7.28-.42,11.04-.83,2.84-.31,5.63,1.11,8.15,1.06,2.77-.06,5.49-1.26,8.43-1.03l10.57.84Z"/>
      <path d="M22.74,21.82l-2.93,2.87-.52-2.26-.51,2.62c-1.33-2.84-1.84-5.59-1.9-8.95l-.58,2.64c-.91-3.89-1.22-7.03-1.27-10.98.98.32,2.32,1.08,2.35,1.7l.39,7.25.81-7.6c1.49.26,3.12.8,4.29,1.73l-.13,10.97Z"/>
      <path d="M27.56,35.81c-.95-.13-2.73.47-3.67.21,3.3-1.76,6.73-.34,10.79-.56l-5.56-1.22c-1.73-.38-4.08.91-5.84,1.13,1.04-1.05,3.55-2.4,4.97-2.15l8.3,1.46c1.12.2,1.96,1.11,1.39,2.55l-10.39-1.41Z"/>
      <path d="M6.32,35.52c2.84.62,7.72-1.59,11.29.5l-3.45-.33-10.73,1.43c-.17-1.43.76-2.33,1.96-2.55l6.56-1.21c2.56-.47,5.55.67,7.13,2.82-2.53-1.23-4.97-2.41-7.62-1.82l-5.14,1.15Z"/>
      <path d="M23.58,21.53l.27-8.34c.06-1.94.4-3.79,2.24-5.11.02,6.02.47,8.65-2.5,13.46Z"/>
      <path d="M32.2,18.98c-1,1.59-2.46,3.64-3.82,4.27l-3.87,1.8c-.2.09-.84.49-.86.31-.04-.27-.19-1.29-.04-1.57l4.23-8.07,1.37,2.38-2.5,4.98c1.6-.45,2.76-6.26,5.49-4.1Z"/>
      <path d="M21.04,2.43l1.72,7.06-3.85-1.5c.56-4.79,1.76-3.81,2.25-7.99l4.54,6.15c-.51.69-1.35,1.64-2.11,2.43l-2.55-6.16Z"/>
      <path d="M17.85,8c-.86-.29-2.06-1.23-2.4-1.93L20.07.47c-.24,2.79-1.07,4.83-2.22,7.53Z"/>
      <path d="M32.74,17.56c-2.16.38-3.13-.45-4.02-2.46,1.31-.84,2.35-1.4,3.73-2l.29,4.45Z"/>
      <path d="M13.86,16.57c-1.29,1.84-2.3,2.27-4.63,2.66l-.35-4.94,4.99,2.28Z"/>
    </g>
  </g>
</svg>