<?xml version="1.0" encoding="UTF-8"?>
<svg id="Warstwa_2" data-name="Warstwa 2" xmlns="http://www.w3.org/2000/svg" viewBox="0 0 41.71 43.15">
  <g id="game-icon-v7-magic-pixarts-store">
    <g id="game-icon-v7-magic-pixarts-store_24">
      <path d="M12.4,4.6C16.97.53,23.36-.01,28.64,3.8c5.45,3.93,6.41,11.48,3.06,16.82-.13.2.88.68,1.01.46l.44-.76c3.39-5.85,1.64-13.26-3.6-17.37-5.16-4.05-12.69-3.96-17.69.45-7.44,6.56-4.42,16.94-2.05,17.78.17.06.51-.58.36-.83-3.02-4.83-2.16-11.84,2.24-15.75Z"/>
      <path d="M4.75,29.14c1.12-.76,2.13-2.35,3.84-2.26l-2.37,2.99c1.88,1.57.61-1.18,4.33-3.11-.21-.36-.58-.77-.44-.87l.61-.42c.11-.07.41.3.54.48.25.35,0,1.32-.15,1.59.57.37,1.29.94,1.53,1.4l-1.28-.69.51,1.98-2.3,3.12c-.91,1.23-1.28,2.48-.44,4.1,1.2,2.32,9.01,2.93,11.82,2.7l-1.45-1.11c-.6.33-1.34.37-1.64-.03l-1.16-1.53c-1.18.1-2.28.34-3.43.86-.43-.22-1.12-.58-1.62-.87-1.24-.74-.76-2.59.22-3.31,2.61-1.92,2.94-4.91,1.45-7.7-.53-.99-1.1-1.7-2.37-1.84l.4-.88-1.54.64c1.04-1.54,2.01-2.5,2.36-4.23-.62.59-1.17,1.24-1.75,1.62l-2.8,1.87c.18-1.34.28-2.11.25-2.91l-2.32,4.05c-.38.67-.86,1.93-1.66,2.23-.42.16-.38,1.23-.16,1.56.17.25.69.58,1,.57Z"/>
      <path d="M37.27,29.1c.74.28,1.49-1.74.87-1.95-.09-.03-.45.32-.5.41-.05.08-.06.03-.13-.12l-.24-.52c-.28-.61-.63-1.76-.94-2.28l-2.23-3.66.28,2.74-1.2-.8-3.03-2.12c.38,1.43,1.22,2.39,2.24,3.53l-1.26-.24c-2.4,1.47-3.86,4.24-3.12,7.1.66,2.52,3.59,2.85,2.88,5.57-.17.66-1.15,1.08-2.04,1.49.34.17,1.45.66,1.97.6,1.07-.13,1.94-1.21,2.25-1.93,1.23-2.79-2.05-4.38-2.8-6.92l.41-1.14c.09-.24-.53-.62-.65-.64.74-.24,1.14-2.15,1.16-2.12l-.29-.74c.19-.04.99.19.99.44l-.02,1.19c2.5,1.4,2.34,3.24,2.76,3.18l1.28-.18-1.43-1.73c-.46-.56-.97-.76-.69-1.75l3.49,2.6Z"/>
      <path d="M7.62,41.04c7.32,2.75,19.52,2.9,26.78-.06,1.3-.53,2.14-1.61,1.6-2.97-1.29.83-2.73,1.6-4.42,1.99-6.99,1.63-14.14,1.61-21.14,0-1.69-.39-3.15-1.16-4.47-1.97-.51,1.36.3,2.51,1.66,3.02Z"/>
      <path d="M17.81,4.36c-.23-.25-1-.49-1.35-.4-3.86,1.01-5.42,4.58-4.2,5.62,1.69,1.44,7.11-3.52,5.55-5.22Z"/>
      <path d="M21.13,34.98c.95,1.31,1.44,2.09,2.15,3.36.66-.69.58-1.61.19-2.39-.94-1.89-1.63-3.69-2.47-5.89-.82,2.1-1.51,3.91-2.52,5.76-.43.8-.49,1.83.2,2.51.8-1.43,1.27-2.22,2.45-3.35Z"/>
      <path d="M19.18,31.94c.7-1.39,1.02-2.04,1.93-3.23l1.56,3c.34-.12,1.05-1.1.83-1.47l-2.56-4.25-2.73,4.54.97,1.41Z"/>
      <path d="M29.4,39.43c-.71-1.26-1.72-1.66-3.04-1.9-2.7-.48-1.51,2.88-3.97,1.52l-1.28,1.11c3.19.05,5.44-.19,8.3-.74Z"/>
      <path d="M30.23,19.28c.99-1.31,1.4-3.12,1.04-4.9-.85,4.63-3.96,8.03-8.71,9.56,2.55.38,5.43-.93,6.55-3.46.3-.68.52-.98,1.13-1.2Z"/>
      <path d="M28.97,23.68c-2.34,1.37-4.3,2.21-6.76,2.75-.2,2.19,7.63-.7,6.76-2.75Z"/>
      <path d="M19.76,26.46c-2.48-.48-4.32-1.23-6.63-2.67-1.39,1.62,6.92,5,6.63,2.67Z"/>
      <path d="M39.56,12.22c-.31,1.31-.88,2.16-2.07,2.42.98.44,1.66,1.06,2.05,1.9.45-.97,1.08-1.52,2.18-2-1.3-.09-1.91-.96-2.16-2.32Z"/>
      <path d="M0,13.35c2.28.69,1.65.83,2.28,2.24.34-.86.52-1.61.88-1.74l1.44-.51c-1.54-.29-2.05-1-2.31-2.29-.33,1.52-1.06,2.04-2.3,2.29Z"/>
      <path d="M23.77,33.43l2.37-1.64c.6-.42,1-1.28.54-1.94-.7.64-4.73,3.08-2.92,3.58Z"/>
      <path d="M18.95,33.1c-1.29-1.5-2.4-2.41-3.74-3.28-1.25,1.21,3.79,4.54,3.74,3.28Z"/>
      <path d="M21.01,38.98c.3.03.91-.67.92-.98.04-.98-.36-1.81-.97-2.41-.61.77-1.07,1.71-.91,2.53.06.31.67.83.96.86Z"/>
      <path d="M24.38,30.29c1.1-.83,1.97-1.21,2.84-2.59l-3.53.91.69,1.68Z"/>
      <path d="M17.53,30.01l.73-1.43-3.46-.86c.67,1.34,1.66,1.79,2.73,2.3Z"/>
      <path d="M33.38,38.36c.98-.43,1.88-.97,2.74-1.92l-1.78-1.24-.95,3.16Z"/>
      <path d="M6.16,36.64c.4.81,1.7,1.39,2.37,1.59l-.77-2.93c-.39.04-1.75.82-1.6,1.34Z"/>
      <path d="M36.04,7.62c.64.33,1.3.99,1.61,1.62.1-.28.25-1.04.52-1.15l1.05-.44c-.94-.43-1.44-1.13-1.6-1.92-.3.96-.98,1.66-1.58,1.89Z"/>
      <path d="M24.72,34.13l4.59.98c-.98-1.44-2.92-1.79-4.59-.98Z"/>
      <path d="M12.64,35c1.75-.17,3.2-.41,4.69-.79-1.85-1.04-3.45-.38-4.69.79Z"/>
      <path d="M11.2,13.17c.55-.08,1.05-.76,1.09-1.08.04-.32-.27-1.01-.57-1.12-.55-.18-1.21.5-1.24.91-.02.35.36,1.34.72,1.29Z"/>
      <path d="M21.41,3.88c0-.52-.42-.95-.95-.95s-.95.42-.95.95.42.95.95.95.95-.42.95-.95Z"/>
    </g>
  </g>
</svg>