<?xml version="1.0" encoding="UTF-8"?>
<svg id="Warstwa_2" data-name="Warstwa 2" xmlns="http://www.w3.org/2000/svg" viewBox="0 0 41.59 39.83">
  <g id="game-icon-v7-magic-pixarts-store">
    <g id="game-icon-v7-magic-pixarts-store_209">
      <path d="M17.95,21.19c2.82-3.17,5.67-5.29,8.9-8.17l-5.29-2.82L40.82.23l-10.8,10.03,5.19,2.78-17.26,8.14Z"/>
      <path d="M18.45,7.03c1.44-.04,5.63-.92,4.54-2.9-.27-.48-1.09-.96-1.88-1.35l3.96-.54c-2.77-1.05-5.6-1.01-8.59-.7l-1.77,1.87,5.37.42c.23.02.72-.03.68.11l-.14.58c.27-1.17-8.81.92-9.66,1.3l1.38-1.29c-3.54.72-5.92,2.85-8.54,5.28,2.31-4.16,6.19-6.17,10.79-7.36l-1.99-.63c6.07-2.73,13.07-2.37,19.12.93l-2.53,1.44c-1.72-.74-3.46-1.26-5.19-1.04-.14,1.63-.53,3.32-1.49,4.24l-2.83.28c-.72,3.22-.95,1.51-1.3,3.57-.07.44.59,1.44,1.06,1.59l3.09,1.01-4.93,2.33,2.19-2.19c-1.56-.41-2.74-2.44-1.83-3.86.64-1,1.03-1.77.46-3.09Z"/>
      <path d="M27.76,20.02l-2.92,2.32,2.52-3.43,2.94.75c.42-.29.96-1.39,1.23-2.06h3.24s.32-2.14.32-2.14c.03-.22,2.43-1.85,3.7-1.25-1.07-2.04-2.23-3.74-3.99-5.63l1.74-1.51c3.81,3.9,6.61,12.65,4.08,17.51-.22-2.95-.17-5.42-1.35-8.21l-.41,1.45c-.28-.79-.77-2.29-1.33-2.88-.28-.3-1.52.05-1.6.45l-.44,2.2c-.44.71-2.25.95-3.42,1.12l-1.2,2.15c-.8-.3-2.51-1.32-3.1-.85Z"/>
      <path d="M15.3,26.69l-8.8,8.61c-1.04-.44-2.02-1.2-2.4-2.36l7.53-7.31c.53-.52.73-.74,1.55-1.31l-1.76,4.71c.87-1.16,1.46-2.29,2.09-3.59l1.79,1.25Z"/>
      <path d="M34.85,34.65c1.31-2.23,2.66-4.46,3.15-6.89l-.92.42c.67-2.98.9-5.48.64-8.46,2.18,1.93.15,4.34,1.79,5.5-.14,3.25-1.75,7.17-4.67,9.43Z"/>
      <path d="M20.97,21.49c-.49.85-1.55,2.16-2.53,2.83-.54.36-1.95-.18-2.43-.6-.55-.49-1.22-1.82-.92-2.62.35-.93,1.21-1.48,2.25-1.76l-1.28,3.31,4.9-1.17Z"/>
      <path d="M4.52,37.71l-4.52,2.12c.49-1.82,1.08-3.35,1.72-4.98l2.79,2.86Z"/>
      <path d="M17.52,25.12c-.29.47-.86,1.04-1.26,1.02-.52-.03-1.53-.45-1.88-.79-.96-.92-1.79-2.43-.19-3.43.43,1.8,1.14,2.59,3.33,3.19Z"/>
      <path d="M6.15,35.94c.32.19-.18,1.34-.57,1.25-1.4-.32-3.58-2.29-2.99-3.59.64-1.4,1.04.86,3.56,2.34Z"/>
    </g>
  </g>
</svg>