<?xml version="1.0" encoding="UTF-8"?>
<svg id="Warstwa_2" data-name="Warstwa 2" xmlns="http://www.w3.org/2000/svg" viewBox="0 0 44.63 36.77">
  <g id="game-icon-v7-magic-pixarts-store">
    <g id="game-icon-v7-magic-pixarts-store_60">
      <path d="M3.17,28.82c4.75,5.78,14.26,8.14,21.59,7.94,10-.27,18.66-5.18,18.25-16.34-.54.09-1.64.72-1.66,1.24.08,2.03.1,4.29-.87,6.13.15-1.44.42-3.05.07-4.41l-1.63-1.6c-.23-.22-1.1-.11-1.5.06,1.76,2.44,1.89,5.14.35,7.63-3.38,5.45-11.42,6.84-17.36,5.88l5.01-.4c3-.24,5.94-1.01,8.44-2.96l-3.18,1.12.63-1.09-1.61-.53c3.14-1.52,6.02-2.58,7.53-5.68-3.59,3.7-7.21,5.1-12.51,5.38-7.59.4-14.93-2.09-19.91-8.26.89,1.82,2.14,3.16,3.68,5.01-1.43-.42-2.21-1.52-3.14-2.65.4,2.02,2.33,2.48,3.57,4.09l-2.76-1.42c1.43,2.03,3.56,3.78,6.05,4.74l5.97,2.33c-6.27-.56-16.62-5.79-14.79-13.76,1.32-5.73,9.04-7.96,14.54-7.7-1-2.09-7.05-.06-7.94.01,2.14-1.06,4.14-1.29,6.4-1.9-.67-2.4-7.09.73-8.38,1.32-1.46.67-2.62,1.89-3.8,2.98-2.24,2.06-3.43,4.53-3.27,7.6-1.5-5.84,4.17-9.06,7.71-12.17-1.44.08-2.22.97-3.4,1.45l1.99-2.1c-1.33.7-2.26,1.41-3.76,2.51,1.52-2.41,4.01-3.94,6.64-5.32,1.48-.77,3.13-1.13,4.38-2.59-4.45.58-8.49,3.23-11.39,6.64-4.25,5-4.03,11.82.08,16.81Z"/>
      <path d="M36.32,8.7l.05.83c0,.15.53.09.6-.05l.32-.64c.08-.16.14-.91-.03-.97l-.68-.24c.31-.31.76-.61.64-.91-.45-1.14-1.92-2.59-3.09-3.13l-.18,1.06c-.03.17-.47.15-.83.25-.93.26-1.35,1.66-1.14,2.58.25,1.05.99,1.48,2.2,1.66.8.11,1.55-.09,2.13-.44Z"/>
      <path d="M28.3,7.02l.5-1.45c.08-.23-.45-.75-.61-.66l-.76.45c-.13.08-.38-.46-.24-.51l.93-.4c-.16-.5-1.15-1.22-1.84-1.36-.54-.11-1.85.19-1.98.72l-.47,1.87c-.12.5.15,1.43.44,2.09,1.14-1.28,2.46-1.17,4.03-.76Z"/>
      <path d="M19.2,10.69c.63,1,2.02.61,2.68.08-.7,1.02-.37,1.45.45.88,1.12-1.18.74-3.48-.85-3.88-.7-.18-1.99.27-2.34.77-.3.44-.29,1.62.05,2.15Z"/>
      <path d="M29.99,14.46c-.34.62.03,1.86.72,2,.5.1,1.32-.37,1.89-.72l-.45.74c-.09.15-.1.78.05.68.16-.11.7-.49.87-.67.69-.76.85-2.3-.18-2.91-.98-.58-2.22-.35-2.9.89Z"/>
      <path d="M32.46,2.09c-.03.16.28.34.46.38l2.66.62c.58-1.15-.54-2.75-1.82-3.05-1.17-.27-2.76.82-2.72,2.17,0,.23.27.69.42.85.85.89.1-2.27,1.25-2.21l-.25,1.24Z"/>
      <path d="M36.24,16.23l-.04-.02c-.07.07-.03.79.14.89.68.36,2.3-.32,2.35-.98.06-.8-.38-1.94-.93-2.28-.77-.47-2.03-.16-2.49.73-.14.27-.28,1.13-.03,1.24l.96.4s.02,0,.04.02Z"/>
      <path d="M36.2,16.21l.04.02s-.03-.03-.04-.02Z"/>
      <path d="M25.75,11.8l.81,1.47,1.48-1.26c.37-.32.95-1.25.76-1.7-.15-.34-.73-.72-1.14-.89-.35-.15-1.26.38-1.38.76l-.53,1.62Z"/>
      <path d="M42.63,18.58c-.1.02-.34.05-.43.11l-.52.34.38-1.15c.14-.42-.44-1.48-.91-1.5-.65-.03-1.78,1.36-2.11,1.89-.17.27.41.95.73.97,7.03.47,1.41-.44,2.86-.67Z"/>
      <path d="M40.57,12.77c.91-.07,1.19-1.39,1.03-2.07-.13-.57-1.37-1.18-2.16-1-.84.52-.39,3.18,1.13,3.07Z"/>
      <path d="M17.04,5.42l1.99,1.71c.15.13.48.28.63.3.16.01.49-.35.37-.44l-.61-.43,1.04-.89c-.36-.67-1.02-1.31-1.7-1.55-.59-.21-1.91.74-1.72,1.3Z"/>
      <path d="M27.03,17.94c1.21,1.78,4.13,2.42,5.66.57-2.08.6-3.83,0-4.89-1.52-.19-.27-.98.64-.77.95Z"/>
      <path d="M41.7,14.83c.13.45.29.99.4,1.3.11.31,2.35.48,2.33.06l-.04-.92c-.02-.35.13-1.11.24-1.57.06-.26-.82-.53-.95-.31l-.62,1.05c-.1.18-.44.86-.62.77l-.73-.37Z"/>
      <path d="M29.85,8.61c1.93.44,1.9-4.03,1.27-4.05-1.47.82-1.52,2.72-1.27,4.05Z"/>
      <path d="M20.86,2.95c.19-.14.73.11,1.05.16l.74.13c.17.03.27-.92.12-1.01-.57-.37-1.68-.82-2.69-1.14l-.32,2.66,1.1-.79Z"/>
      <path d="M38.35,6.37c.42-.12,1.16-.36,1.26-.14l.43.93c.07.14.59-.22.54-.4l-.26-.96c-.05-.17-.33-.73-.48-.65l-.81.44.02-1.08c0-.27-.93-.17-1.18-.07-.56.22-.16,2.11.47,1.93Z"/>
      <path d="M29.56,17.18c.72.48,2.06,1,2.43.17-4.07-1.47-1.37-1.44-3.23-2.87-.43,1.18.03,2.19.8,2.7Z"/>
      <path d="M31.47,11.11c.43.45,1.59.67,2.56.73.17-1.02-1.42-1.89-2.08-1.77-.25.04-.66.85-.48,1.04Z"/>
      <path d="M10.03,8.9c-.12.14-.35.57-.41.78l-.57,1.89,1.69-.65c.39-.15.13-1.28.11-1.67-.01-.26-.66-.54-.82-.35Z"/>
      <path d="M21.73,14.5c.35-.09.43-1.43.24-1.31l-3.14-.05c.4.92,2.14,1.55,2.91,1.36Z"/>
      <path d="M27.21,1.13c.13.07.54.24.65.34l.73.67c.13.12.96-.48.89-.64-.47-1.16-2.15-1.76-2.33-1.11-.06.24-.12.64.05.73Z"/>
      <path d="M31.05,10.37c.36-.43.83-1.03.98-1.28.15-.25-.79-.88-1.06-.75-.44.21-1.02.89-.95,1.26.06.33.8,1.04,1.03.77Z"/>
      <path d="M39.13,20.98l.41-.78-3.76-.37c.69,1.8,1.71.91,3.35,1.16Z"/>
    </g>
  </g>
</svg>