<?xml version="1.0" encoding="UTF-8"?>
<svg id="Warstwa_2" data-name="Warstwa 2" xmlns="http://www.w3.org/2000/svg" viewBox="0 0 41.98 42.88">
  <g id="game-icon-v7-magic-pixarts-store">
    <g id="game-icon-v7-magic-pixarts-store_80">
      <path d="M39.6,8.95c.19-1.47.88-1.93,2.38-2.63-2.15-.26-2.35-1.56-2.71-3.14l-.8,2.32c-.16.47-1.25.64-1.84.95,1.64.43,2.26,1.04,2.47,2.58.17.62.3.56.5-.08Z"/>
      <path d="M2.22,30.05c.55-1.74,1.01-2.3,2.27-2.95-1.57-.43-1.98-1.31-2.18-2.77l-.79,1.98c-.16.39-1.07.59-1.52.93,1.68.49,1.91,1.57,2.22,2.82Z"/>
      <path d="M5.75,4.3c.5-1.12,1.15-1.68,1.95-2.03-1.04-.35-1.68-1.22-1.93-2.27-.23.97-1.06,1.87-1.85,2.35.82.4,1.66,1.21,1.82,1.95Z"/>
      <path d="M37.21,31.4l.28.96c.67-1.17,1.17-1.57,1.79-1.71-.69-.49-1.46-1.3-1.72-1.73-.32.54-.96,1.35-1.41,1.76.3.14.97.43,1.06.73Z"/>
      <path d="M26.26,1.29c-7.23-2.51-15.09.48-19.26,6.67-4.19,6.21-3.58,14.47,1.33,20.35,2.7,3.24,6.62,5.05,10.82,5.54l1.7-1.97,2.07,1.97c7.99-.97,13.8-7.2,14.69-14.84.91-7.74-3.83-15.12-11.34-17.73ZM30.84,10.03c2.57,3.4,3.16,4.69.64,7.83l-1.81,2.25c1.54-5.08,2.72-4.79,1.17-10.08ZM33.41,16.54c.51,3.2-.4,6.16-2.34,8.68-2,.91-4.18,1.78-6.75,1.11,5.97-3.14,5.15-4.12,9.09-9.78ZM27.29,22.93c-.69,1.61-2.16,2.77-3.9,2.14l3.9-2.14ZM20.73,3.41c.47-.11,1.11-.07,1.4.08.37.18-.11,1.4-.59,1.44-.74.07-1.54-.13-1.56-.45s.44-1,.75-1.07ZM9.65,9.74c1.28-5.05,7.25-6.95,8.55-4.97,1.77,2.7-6.32,8.75-8.09,6.76-.3-.34-.6-1.28-.47-1.79ZM7.86,14.15l.8-.92c.17-.2.96.32,1.02.63.16.85-.32,2.21-1.23,2.22-.8.01-1.03-1.42-.59-1.93ZM8.49,24.69c2.29,3.27,5.23,5.2,9.12,6.67-3.87-.29-7.51-2.97-9.12-6.67ZM13.59,27.29c2.93.62,5.94-.37,8.96-.25,2.69.11,5.01.37,8.03-.95-3.56,4.18-11.83,5.9-16.99,1.19ZM30.01,28.84c2.59-2.76,4.22-5.71,5.28-9.08.09,3.88-2.35,7.12-5.28,9.08Z"/>
      <path d="M19.58,42.83c-.96-1.28-1.99-3.32-3.32-3.93-2.51-.97-4.86-1.43-7.06-2.82-.35-.22-.8-.42-1.07-.49-.22-.06-.73.8-.59.94l2.46,1.91-2.92-1.31c-2.5,2.99,10.35,6.16,12.49,5.7Z"/>
      <path d="M34.8,37.16l-.81.28c-1.09.78-2.28,1.43-3.59,1.7l3.55-2.25c.19-.12.14-.91-.08-.99-.14-.05-.77-.05-.98.08-1.74,1.12-4.99,2.09-7.3,2.89-1.49.71-2.44,2.59-3.36,3.99,3.38-.23,6.34-.9,9.46-2.04,3.37-1.23,4.05-3.99,3.11-3.66Z"/>
      <path d="M18.2,34.95c-3.15-.6-5.66-1.68-8.37-3.35-.13,1.26-.33,1.9-1,2.92,2.03,1.6,4.45,2.55,6.98,3.26l2.39-2.83Z"/>
      <path d="M24.6,38.12l-3.72-4.97-3.7,4.89,3.6,4.74,3.82-4.66ZM20.95,35.37l1.74,2.9-1.77,2.49-1.89-2.3c.55-1.08,1.06-1.88,1.92-3.08Z"/>
      <path d="M32.28,32.26c.05-.18-.62-.48-.84-.33-1.69,1.12-5.13,2.59-7.56,3.13.27,1.01,1.71,2.47,2.72,2.34,1.64-.22,7.99-2.33,5.76-3.83-1.33.85-2.58,1.54-3.81,1.7l3.21-1.93c.23-.14.46-.84.52-1.07Z"/>
    </g>
  </g>
</svg>