<?xml version="1.0" encoding="UTF-8"?>
<svg id="Warstwa_2" data-name="Warstwa 2" xmlns="http://www.w3.org/2000/svg" viewBox="0 0 39.41 49.99">
  <g id="game-icon-v7-magic-pixarts-store">
    <g id="game-icon-v7-magic-pixarts-store_63">
      <path d="M14.56,26.58c-.14.24-.4.76-.51,1.11l-5.68,17.97c3.83-2.5,6.98-4.87,10.31-7.42-1.03-2.68-5.04,2.5-7.26,3.16l4.56-14.49c-.1-.32-1.24-.63-1.42-.33Z"/>
      <path d="M25.57,25.12c1.32.88,5.38-.03,7.48.55l-12.26,9.21c.08.37.74,1.09,1.05.96,1.07-.45,14.03-10.02,16.03-11.91l-11.99-.09c-.38,0-.54,1.13-.31,1.28Z"/>
      <path d="M14.72,33.96l16.41,11.93-3.89-12.46c-.59.43-1.12.87-1.34,1.14l2.08,6.91-12.51-8.94c-.3.14-.66.86-.75,1.43Z"/>
      <path d="M17.3,22.74l2.39-6.9,4.87,14.65c.43.04,1.2-.5,1.49-1.02l-6.36-18.82-4.07,11.99c.47.25,1.38.36,1.68.1Z"/>
      <path d="M11.52,31.66c.32-.51.58-1.18.6-1.57l-5.82-4.51,15.37-.16c.17-.62-.32-1.53-.94-1.53l-19.25.08,10.02,7.69Z"/>
      <path d="M7.1,45.16c.31-.3.82-1.6.47-1.94-4.35-4.34-6.57-10.06-5.34-16.05.09-.43-.02-1.24-.25-1.51-.23-.27-1.09-.49-1.33-.23-2,7.2.64,15.02,6.44,19.73Z"/>
      <path d="M9.39,46.84c6.39,4.16,14.44,4.23,20.8.03-.29-.45-1.36-1.25-1.75-1.05-5.73,2.98-11.68,3.01-17.2.08-.58-.31-1.56.25-1.84.94Z"/>
      <path d="M38.65,25.13c-.53-.05-1.58.74-1.48,1.26,2.08,10.98-5,15.85-5.44,17.53-.09.34.42,1.24.82,1.17,5.79-5.13,8.24-12.71,6.1-19.96Z"/>
      <path d="M1.57,22.67c.36.18,1.22.41,1.53.28.31-.13.63-.6.86-1.03,2.89-5.33,7.82-8.84,14.01-9.48l.57-1.89c-7.55.49-14.11,5.15-16.97,12.13Z"/>
      <path d="M22.67,12.65c5.79.96,10.36,4.51,12.96,9.71.31.61,1.83.7,2.02.09-2.82-6.91-9.31-11.32-16.63-11.94-.35,1.24.5,1.95,1.64,2.14Z"/>
      <path d="M22.01,46.32c.12-2.48.13-3.35,0-5.28l-2.28,1.97-2.42-1.92.14,5.25,2.29-1.98,2.27,1.96Z"/>
      <path d="M20.7,9.33l.72-4.26c-1.2-.75-2.42-.82-3.51-.05l.81,4.32h1.97Z"/>
      <path d="M10.33,16.29c-.18,2.44-.2,3.93.09,6.28l.84-2.19,2.23,1.08-1.4-1.78,1.69-1.71-3.45-1.67Z"/>
      <path d="M22.82,5.22c-.45.3-.85,1.01-.35,1.38,3.64-1.27,5.92-3.59,7.65-6.55-.5-.13-1.32,0-1.53.3-1.59,2.22-3.35,3.73-5.77,4.87Z"/>
      <path d="M10.94.52c-.28-.39-.9-.59-1.56-.45,1.72,3.23,4.45,5.42,7.82,6.68.43-2.19-2.81-1.4-6.26-6.23Z"/>
      <path d="M33.81,34.35c.03,1.3.03,2.12.54,3.27.3-1.82.25-3.2.13-4.88l-3.48-1.35-.16,5.23.59.73.35-4.54c.94-.32,2,.43,2.03,1.55Z"/>
      <path d="M27.67,22.05c.93-3.02,2.69-3.73,2.44-4.51-.06-.17-.72-.32-.79-.17l-.9,1.84-.57-2.85-.72,2.75-.49-1.4c-.07-.19-.85.21-.78.42.74,2.51,1.47-.01,1.82,3.93Z"/>
      <path d="M9.05,34.24l-3.14-.25,1.64-2.81c-1.49.91-2.01,1.89-2.92,3.47l2.98.35c-.55.79-1.2,1.7-1.32,2.58,1.23-1.16,1.88-2.03,2.77-3.33Z"/>
    </g>
  </g>
</svg>