<?xml version="1.0" encoding="UTF-8"?>
<svg id="Warstwa_2" data-name="Warstwa 2" xmlns="http://www.w3.org/2000/svg" viewBox="0 0 44.36 45.07">
  <g id="game-icon-v7-magic-pixarts-store">
    <g id="game-icon-v7-magic-pixarts-store_144">
      <path d="M35.16,7.8l9.2,23.73-28.84,5.29L4.58,4.68,32.2,0l2.35,5.85c-.43.77-.27,1.51.61,1.96ZM31.04,5.33l2.31,2.07c.27-.88-.67-2.06-1.38-2.58.44-4.58-3.17-2.95-4.71-2.07,0,0-1.71-.56-1.71-.56.82,2.42,3.02.49,4.53.28,1.71.2,1.11,1.76.96,2.86ZM9.46,6.72c-1.31,1.01-.21,1.34.86,1.14.41,1.13-.94,1.49-1.74.61-.42-.47-.68-1.59-.43-2.05.76-1.43,3.09.31,3.6-.53l.83-1.36c-2.52,1.26-4.62.02-5.38,2-.2,1.31,1.37,4.55,1.67,5.9l.58-2.78c2.11-.33,2.47-3.33,0-2.93ZM21.86,8.22c-1.15-1.45-1.55-1.87-1.92-3.46l-2.1.2,1.65,4.08.55-1.66c.56.33,1.45.77,1.82.85ZM23.33,6.89c3.72.95,6.93,2.47,9.52,5.43-.6-3.29-6.43-6.02-9.52-5.43ZM12.17,16.02c.62-3.56,2.33-5.65,4.87-7.86-3.54.99-5.5,4.56-4.87,7.86ZM32.97,22.65c-2.14,2.14-4.9,3.44-7.62,1.97,3.89-.26,8.22-3.15,6.65-7.54l-.87,2.82c.6-4.06-.93-8.7-5.07-9.8,4.07,2.95,4.38,7.65.95,11.11,1.23-.34,2.06-1.09,2.93-1.94-.58,3.7-3.76,3.57-6.7,3.01.67.76,1.58,1.23,2.79,1.85-3.02.51-5.46-2.22-5.64-5.66-3.72,7.36,10.23,11.6,12.58,4.18ZM27.83,17.9c2.38-7.55-10.67-10.74-13.02-3.57,3.8-4.98,12.13-2.18,13.02,3.57ZM18.65,22.34c-.75-2.95.85-4.96,3.12-6.64-1.1.23-2.13.75-3.2,1.38.76-2.63,3.28-2.95,5.93-2.41-2.75-3.61-9.41-1.21-9.07,3.5.86-1.67,1.9-3.24,3.55-3.73-3.76,3.37-2.76,10.05,2.27,11.92-1.06-1.07-2.2-2.42-2.61-4.02ZM36.87,17.88l-.74-3.31-.54,1.72c-.47-.11-1.51,0-1.69.45-.23.56-.31,1.83.06,1.71.98-.85,3.21.74,2.91-.57ZM26.05,18.63c.03-2.17-3.37-2.17-3.34,0-.03,2.17,3.37,2.17,3.34,0ZM14.04,20.68l.63-2.13-3.33-.52c.54,1.92.88,2.96,1.52,4.47l.52-2.03c-.33-.39-1.48-.97-.34-1.29.88-.18.85.97,1.01,1.49ZM31.98,28.37c3.55-1.29,4.79-4.96,4.38-8.25-.64,3.45-2.19,5.83-4.38,8.25ZM24.77,29.99c-3.82-.83-6.95-3-9.51-5.68,1.59,3.89,5.6,5.93,9.51,5.68ZM36.29,31.82c2.22-1.17,5.05-.46,5.33-2.56.26-2.02-1.12-.86-1.22-5.12-2.31,3.94.83,2.56.26,5.29-.59,1.48-3.09.27-3.6,1.13l-.76,1.27ZM38.49,28.41l-.2-1.49c-1.48.98-.22,3.28,1.13,2.26.65-1.35.23-1.05-.93-.77ZM28.18,31.15c.95.68,1.73.48,2.43.12l-1.69-3.76c-.15,1.13.32,1.89.63,3.01l-1.36.63ZM27.88,32.12c-.05-.82-.58-2.08.44-2.61l-1.58-1.1c1.51,2.33-1.23,2.44,1.15,3.71ZM16.69,31.05c-.46-.82-1.34-1.84-2.16-2.33.21.73,1.39,4.79,2.16,2.33ZM22.78,34.14c-.18-.33-1.17-1.04-1.73-1.24-1.58.24-3.83,3.25-3.87-.79l-.81.58c-.46.33.5,2.39,1.94,2.3,2.54-.16.58-1.73,4.47-.85Z"/>
      <path d="M8.49,36.94c-1.63-2.42,1.08-4.95,2.97-6.94-1.84.07-2.51,1.73-3.67,3.14l-4.98-14.92c-.76-2.29,1.09-4.14,2.5-6.01-2.27.51-3.23,2.92-3.31,5.45-2.41-3.01.38-5.75,2.6-7.84-1.79.26-2.84,1.71-3.73,3.23-1.91-3.04-.55-6.93,2.91-8.09l11.01,31.99c-2.07,1.39-3.36,3.85-2.03,5.81,1.22,1.59,3.57.29,5.17.25.19-.03.34.95.16,1.01-.98.32-3.02.7-4.13.65-5.04-1.23-5.8-9.59-1.35-12.43-2.52.27-3.14,2.33-4.13,4.72ZM6.19,20.55c.39-.48.5-1.82.25-2.29-.41.73-.39,1.46-1.6,1.29l.2.81c.06.24.98.4,1.14.19ZM8.84,23.55l-1.37-.22.31-2.22c-1.14.52-2.49.8-1.92,2.03.17.04.72-.56.92-.66l-.4,2.33,2.46-1.25ZM8.71,29.54l.56-2.74c-.14-2.1-2.86-1.3-1.92.47l1.08-.77c0,1.44-.5,2.06.28,3.05Z"/>
      <path d="M40.04,36.69c4.57,1.26-16.74,3.71-16.31,4.06l-.87-2.34,16.89-3.39c1.39-.19.87.39.6,1.18l-13.32,2.71,13.02-2.21Z"/>
      <path d="M15.17,39.3c1.55.14,2.7.73,2.7,2.42-1.37.3-2.72.81-3.91.38-1.42-1.46.35-4.14,2.44-4.27,0,0,25.03-4.52,25.03-4.52.01.39-.5,1.09-.84,1.15l-10.52,2.01-14.9,2.83Z"/>
      <path d="M24.9,42.9c-6.5-.98,17.61-4.25,16.85-4.41l.04-2.65c.74,1.29,1.17,2.18,1.73,3.53l-18.61,3.53Z"/>
      <path d="M20.09,44.53c-.34.35-.58.99-.73.02,0,0-.83-5.01-.83-5.01l3.37-.73c.82,1.78.96,3.54,1.01,5.51-1.13-.42-1.93-1.2-2.83.21Z"/>
    </g>
  </g>
</svg>