<?xml version="1.0" encoding="UTF-8"?>
<svg id="Warstwa_2" data-name="Warstwa 2" xmlns="http://www.w3.org/2000/svg" viewBox="0 0 41.86 48.87">
  <g id="game-icon-v7-magic-pixarts-store">
    <g id="game-icon-v7-magic-pixarts-store_46">
      <path d="M28.21,17.61c-5.14-1.88-10.81-1.81-15.95,0-1.34.45-1.86,1.4-2,2.73-.38,3.53-.82,6.86-1.48,10.58,7.42-2.34,15.56-2.38,23.18.03-.74-3.32-1.13-6.77-1.45-10.33-.14-1.52-.73-2.64-2.3-3.01ZM12.39,18.79l-1.34,9.94c-.62.6.3-10.22,1.34-9.94ZM12.27,26.77l.23-3.64c.05-.73.29-1.59.54-2.3.32-.07-.17,6.75-.77,5.95ZM19.39,24.52l-.21,2.76c-.01.14-.37.54-.44.66-.1.16-.61-.35-.66-.54l.05-9.76c2.21,1.31,3.42,2.21,5.27,3.69l-2.87,2.17,3.03,3.25c-2.07-.14-2.65-1.51-4.17-2.23ZM27.7,23.42c.65,1.95.99,3.86.96,6.17-.68-2.09-1.09-3.98-.96-6.17ZM28.31,22.18l.75,2c0-.69-.13-1.05.49-1.45l.68,7.21c-1.4-2.56-1.6-5.2-1.92-7.76Z"/>
      <path d="M22.33,31.74c-2.94-.17-13.51.39-14.74,2.89-.87,1.78-1.63,3.05-2.73,4.77,9.05-3.1,21.61-3.06,30.73-.06l-2.67-5.11c-3.19-1.78-6.86-2.27-10.59-2.49ZM11.05,36.81c-.64-.54-1.11-1.75-.85-2.77l.57.63c.11.12.35-.25.57-.47l.28-.29c.06-.06.38.09.34.16-1.31,2.39-.83.74-.91,2.74ZM15.28,35.69l-.35.51c-.05.07-.29-.02-.26-.1l.15-.45c.06-.2.31-.65.19-.78l-.71-.72c-.07-.08-.29-.47-.21-.53l.47-.38c.22-.18.63,1.12.72,1.04.12-.11.41-.39.52-.52l.47-.58c.09-.12.57.18.56.23l-1.55,2.28ZM20.88,35.7l-.19-1.52c-.03-.26-.98-.32-.97-.21l-.51,2.45-.35-3.75,2.85,1.19-.85,1.83ZM26.12,36.48c-.21-.06-1.22-.51-1.57-.72l-.86-1.95,1.37-1.2,1.79,1.59c-.5,1.01-.61,1.31-.72,2.28ZM30.15,36.02l-.72.97c-.13.17-.51-.7-.6-.97-.08-.25.1-.3.79-.59l-.88-1.47c.19-.11.42-.24.53-.14l.62.55c.06.05.11-.3.14-.37.05-.11.33-.46.38-.34.05.11.24.58.17.69-.27.47-.08,1.58.4,2.05l.5.49c.09.09.48.03.47-.09-.01-.15-.1-.74-.16-.84l-.55-.79c-.09-.13.31-.48.39-.51l1.58,3c-1.16.02-2.33-.55-3.07-1.64Z"/>
      <path d="M24.1,45.4c1.37,1,13.68-.97,13.31-3.27-.39-2.4-8.7-3.81-10.98-4.01-4-.35-7.87-.37-11.85-.05-2.12.17-11.42,1.55-11.3,4.02.11,2.27,11.71,4.35,13.2,3.31-2.11-1.01-11.13-1.22-11.58-3.38-.06-.28.55-.74.87-.84,12.54-4.15,31.64-.72,30.08,1.15-1.72,2.06-8.87,2.08-11.74,3.06Z"/>
      <path d="M19.29,40.38c-.36,3.21-3.84,6.43-.37,8.18,1.16.58,2.6.31,3.47-.48,2.39-2.17-.16-3.79-1.21-7.89l-.03,2.35-.65-2.5-.72,2.13.12-1.38c.02-.2-.39-.35-.62-.42Z"/>
      <path d="M12.44,14.89c1.14-.04,1.91-.86,2.8-1.5l-.45.84c3.9-.29,7.31-.35,11.11,0l-2.25-1.49c2.05.07,3.99,2.97,4.62,1.99-4.17-4.83-11.98-4.9-15.83.14Z"/>
      <path d="M4.32,30.5c1.42-3.85,1.77-3.13.69-7.47l-.49,1.56c-3.62-3.44-2.48-5.75-1.24-10.17C-.19,16.59-.74,21.01,1.72,24.02c1.55,1.9,2.34,3.89,2.6,6.47Z"/>
      <path d="M36.23,10.59c-1.18-.97-2.46-1.68-3.96-2.18l2.52,2.3c1.89,1.72,2.78,4.23,2.55,6.54l-1.37-2.68c.85,5.79.33,4.09-.43,9.53.51-.67.96-1.27,1.56-1.94,3.06-3.46,2.73-8.6-.86-11.56Z"/>
      <path d="M9.85,31.32c-.96.27-1.81.76-1.98,1.65,7.67-2.69,17.58-2.67,24.99.02-.63-1.34-1.91-1.61-3.11-1.91-6.54-1.66-13.4-1.59-19.9.24Z"/>
      <path d="M39.37,21.8c2.42,7.59-3.84,5.54-2.79,11.12,1.78-3.63,5.39-3.58,5.27-7.27-.05-1.44-.94-3.05-2.48-3.85Z"/>
      <path d="M11.13,17.23c6.14-2.56,12.32-1.95,18.54-.27-2.43-3.37-17.81-3.28-18.54.27Z"/>
      <path d="M3.19,36.35c-3.94-5,.41-5.98-1.78-8.58l-1.21,3.58c-.74,2.2.58,4.77,2.99,5Z"/>
      <path d="M5.03,19.71c.91-6.16,3.54-5.14,5.56-8.79-3.36,1.66-7.74,4.44-5.56,8.79Z"/>
      <path d="M20.13,7.03L19.34,0c-2.07,2.45-.75,6.54.63,8.52.15.21,1-.43.82-.56-.14-.1-.64-.76-.66-.94Z"/>
      <path d="M20.74,6.22c1.99,2.84,1.36,1.05,1.57,4.16.02.25,1.05-.2,1.14-.49.4-1.37-.56-4.27-2.71-3.67Z"/>
      <path d="M21.44,0l.09,5.2c1.56-1.61,1.28-3.96-.09-5.2Z"/>
      <path d="M17.85,10.51c.15.14.78-.28.76-.49l-.32-2.95c-1.15.51-1.48,2.47-.44,3.44Z"/>
      <path d="M7.98,9.79l3.81-2.68c-2.1-.53-3.57,1.09-3.81,2.68Z"/>
      <polygon points="19.3 19.85 19.34 22.8 21.75 21.35 19.3 19.85"/>
    </g>
  </g>
</svg>