<?xml version="1.0" encoding="UTF-8"?>
<svg id="Warstwa_2" data-name="Warstwa 2" xmlns="http://www.w3.org/2000/svg" viewBox="0 0 45.39 48.95">
  <g id="game-icon-v7-magic-pixarts-store">
    <g id="game-icon-v7-magic-pixarts-store_19">
      <path d="M27.19,8.36c-.11-.22-.28-.79-.49-.74l-1.06.25c5.44,8.56-2.96,12.97-.76,16.83,1.7,2.99,9.77,3.65,9.89,12.02-1.02-1.49-1.71-2.63-3.16-3.16l-5.57-2.04c-.74-1.72-1.35-3.64-1.94-5.35-2.14-6.17,2.68-7.25,2.08-12.49-4.8,4.63-6.17,1.1-11.29,2.09-.3.06-.86.53-.88.82-.24,3.01,7.13,4.59,8.32,7.14,1.2,2.58,1.88,5.08,2.53,7.9-1.6,4.38-4.51,4.39-4.2,9.5-2.25-3.44-2.04-7.46,0-10.97,5.87-10.06-8.42-5.25-9.26-17.89-.68.26-1.01.77-.91,1.3,1.67,9.43,9.66,8.65,10.41,12.29.67,3.3-5.94,7.1-1.11,15.97,5.57-1.17,10.84-2.79,16.16-4.99-.94-10.19-9.08-9.75-10.18-12.9-1.07-3.07,5.41-7.22,1.45-15.54Z"/>
      <path d="M3.71,9.14c.06.45.88,1.59,1.52,1.39L28.12,3.32c1.31-.41,2.18-.48,1.82-2-.25-1.06-.99-1.48-2.29-1.27-7.99,1.28-15.62,3.74-22.88,7.27-.68.33-1.12,1.29-1.05,1.81ZM4.16,9.49c1.88-1.22,4.01-1.47,6.41-1.73-1.93.74-3.96,1.56-6.41,1.73Z"/>
      <path d="M42.13,40.45c.09-.58-.43-1.71-.98-1.98l-8.35,3.45c-5.33,2.2-10.9,3.19-16.53,4.28-.17.66-.02,1.7.32,2.14.26.33,1.15.7,1.87.6,7.98-1.06,15.34-3.33,22.26-7,.66-.35,1.34-.98,1.42-1.48Z"/>
      <path d="M13.54,33.81c1.41,2.66,2.65,5.56,3.45,8.39.09.17.61.57.66.39.05-.19.15-.78.09-.98-.89-3.11-1.41-5.98-1.76-9.05-.16-1.43-1.03-2.42-2.25-2.96.37-.56.91-1.71.7-2.2-.21-.49-1.09-1.09-1.67-1.52.49-1.22.58-2.45-.11-3.66-1.53-2.69-2.71-5.39-3.72-8.37-.07-.2-.38-.61-.51-.77-.09-.11-.51.47-.45.67.71,2.39,1.73,6.32,2.05,9.02.2,1.7.84,2.61,2.06,3.53-.24.64-.7,1.66-.5,2.1.2.45,1.12.98,1.74,1.27-.61,1.32-.53,2.73.21,4.14Z"/>
      <path d="M6.82,34.05c-3.12-2.04-5.91-4.53-5.91-8.82-1.78,2.38-.51,4.58.04,6.88.6,2.54.92,4.93,3.47,6.51,2.11,1.3,4.59,2.27,7.28,2.32l-4.18-1.84c-1.83-.81-3.31-2.38-3.51-4.31,2.76,1.89,5.68,3.12,8.82,3.19l-6-3.93Z"/>
      <path d="M44.5,16.96c-.49-2.38-.83-4.61-3.08-6.13-2.21-1.5-4.88-2.78-7.63-2.69,2.83,1.35,7.5,2.39,7.56,6.3-2.57-1.88-5.08-3.08-8.19-3.27l4.82,3.43c4.03,2.87,5.57,3.85,6.57,8.93,1.69-2.15.4-4.39-.05-6.58Z"/>
      <rect x="5.84" y="7.63" width="24.27" height="1.57" transform="translate(-1.7 5.8) rotate(-17.52)"/>
      <path d="M17.81,44.79c7.14-1.21,15.29-3.62,21.92-6.96.22-.35-.61-1.19-.97-1.02-6.72,3.11-13.62,5.09-20.87,6.58-.25.05-.76.39-.95.51-.17.1.38.97.87.89Z"/>
      <path d="M32.95,15.79c-1.37-2.52-2.96-6.54-3.65-8.83-.06-.2-.78-.44-.82-.3-.04.13-.12.53-.06.7,2.47,7.15.86,10.31,3.92,12.2-.33.64-.66,1.78-.41,2.31.23.48,1.11.9,1.79,1.19-.72,1.07-.47,2.44.1,3.74l4.24,9.68c.08-3.78-1.61-6.62-1.69-10.3-.03-1.57-1.19-2.73-2.33-3.31.35-.52.87-1.54.7-2.06-.17-.56-1.14-1.19-1.76-1.5.53-1.07.67-2.23-.03-3.52Z"/>
      <path d="M38.18,18.48c1.55,1.56,2.81,3.29,2.43,5.49l-.95-.23c.47,3.6-.47,6.29.28,9.37.75-2.46,1.31-4.4,2.09-6.58,1.21-3.37-.35-7.12-3.85-8.06Z"/>
      <path d="M7,30.65c-2.01-1.97-2.93-5.68-1.88-5.28l.74.28c-1.27-4.16.95-7.04-.52-9.33-.46,1.98-.93,3.9-1.77,5.87-1.44,3.36-.27,7.39,3.42,8.46Z"/>
    </g>
  </g>
</svg>