<?xml version="1.0" encoding="UTF-8"?>
<svg id="Warstwa_2" data-name="Warstwa 2" xmlns="http://www.w3.org/2000/svg" viewBox="0 0 38.03 40.64">
  <g id="game-icon-v7-magic-pixarts-store">
    <g id="game-icon-v7-magic-pixarts-store_44">
      <path d="M15.03,10.93c3.5,8.38,4.94,20.6,0,28.7l3.26-.56c-.58-.78-1.13-1.38-1.19-1.83-.31-2.73,5.18-5.77,9.27-5.74,1.53.01,2.34,1.22,3.52,2.32l1.54-3.47c.38-.86.48-2.13.87-3.17-.16,2.94-1.31,5.57-2.93,8.35,1.67-.91,2.62-2.71,3.19-4.66,1.62-5.53,1.48-11.43-.09-16.95-1.3-4.57-3.6-10.23-8.38-11.98-3.98,2.78-8.59,3.08-13.69,2.34,1.84,2.32,3.56,4.11,4.62,6.64ZM27.64,28.87l-1.99-2.24c-1.34,1.62-1.36,3.08-3.51,3.81l2.56-4.89-2.85.5c-.2.03-.74-.28-.89-.41-.2-.18.53-.68.8-.74l8.46-1.86c-.59,2.4-1.47,4.01-2.58,5.83ZM30.93,13.05c1.1.81,1.03,1.95.47,3.01l-2,3.85-6.87,1.62-4.95-4.26c2.64-6.66,3.3-5.94,10.04-6.66l3.31,2.45ZM28.42,7.44l-2.67-3.27c-.29-.35-1.2-.52-.92-1.26,1.55,1.18,3.14,2.3,3.59,4.53ZM19.32,7.09l1.28-2.01,4.16,1.07-1.74,3.12-6.21-1.75c-.2-.06-.54-.41-.46-.49.97-.99.68-.04,2.97.07Z"/>
      <path d="M.47,22.12c.62,3.28,8.53.93,10.4-.2.8-.48-.19-2.47-.81-2.87l-.72-1.65-.46,1.46c-.59-1.84-.81-3.35-.81-5.11l-.67,5.57c-1.21-1.97-.49-3.88-1-6.23l-.5,2.15-.73.26.16,4.27c-.81-2.1-.74-4.05-1.28-6.24l-1.1,4.7c-.2-2.42.06-4.62.15-7.07-1.5,3.6-1.32,7.08-.94,11.03l7.19-1.1c.45-.07.97-1.36,1.47-.1-1.34.44-8.91,2.86-9.28.75-.75-4.24-.63-8.24.83-12.22.42-1.14,1.42-2.53,2.73-2.62.92-.06,2.28.9,2.85,1.69,5.08,7.07,6.8,18.08,4.19,26.24-.48,1.49-1.44,3.15-2.85,3.87-2.78,1.44-5.69-5.28-5.65-7.17,1.27,1.91,1.55,4,3.45,5.39l-2.23-4.83c-.15-.33-.12-1.19-.05-1.47.96,2,1.68,3.7,3.28,5.58l-1.05-3.16,2,1.54-.25-2.69,1.52,1.87-.42-1.91,1.28,1.13-.84-2.88,1.25,1.02-.34-1.35c-.05-.18.09-.15.86-.33.03-.41-.05-1.37-.21-2.21-2.06.02-9.46.73-9.41,3.35.1,4.92,4.55,12.54,8.06,9.23,4.05-3.81,3.74-8.53,4.32-14.04.68.59.7,1.52.58,2.5-.64,5.14-.71,8.29-4.45,12.32.7,0,2.21-.36,2.61-1,2.17-3.39,3.28-7.08,3.46-11.06.28-6.03-.71-11.98-3.2-17.46-1.04-2.29-3.99-6.94-6.69-6.42,5.3,3.87,6.71,10.26,7.32,16.17-1.42-4.74-2.79-12.51-7.47-15.12-1.73-.97-3.64-.58-4.67,1.15C-.17,11.15-.43,17.39.47,22.12Z"/>
      <path d="M27.46.26c1.64,1.18,3.02,2.1,3.65,3.79l-3.44-2.87c-.59-.49-1.81-.62-2.52-.33,2.64,1.64,4.36,3.6,5.8,6.3,3.64,6.88,4.58,14.85,3.08,22.53-.44,2.25-1.64,4.08-2.97,5.93,3.05,1.73,5.83-4.23,6.3-6.6,1.05-5.4.92-10.96-.62-16.22-1.28-4.38-4.59-12.33-9.27-12.53ZM32.9,35.03c2.26-3.6,3.02-7.55,3.74-11.84,1.05,1.67-1.66,11.93-3.74,11.84ZM37.05,20.92c-1.48-1.93-1.21-4.05-1.02-6.04.59,2.41.79,4.19,1.02,6.04Z"/>
      <path d="M28.12,35.94l-.76-1.91c-.47-.3-1.43.34-1.8,1.11-.23.48-.17,1.03.24,1.83-1.42.04-2.62.44-3.06,1.47-.72-.75-1.65-1.44-2.41-1.42-.3,0-1.23.92-1,1.07,2.68,1.72,7.08,1.12,8.79-2.14Z"/>
      <path d="M27.97,33.59l.89,1.76c.54-1.84-1.54-3.27-3.32-3-2.8.42-7.19,1.89-7.38,5.11,1.93-4.11,9.07-5.32,9.81-3.87Z"/>
      <path d="M12.49,3.67c3.45.16,7.23.17,10.13-2.09-3.05.42-5.84,1.48-8.77,1.43-.61,0-1.47-.6-1.35.66Z"/>
      <path d="M22.96,37.21c1.57-.68,2.38-1.59,2.45-3.23l-4.9,1.97,2.44,1.26Z"/>
      <path d="M13.76,2.06l3.72-.28c.47-.41.87-.69,1.13-.62l1.2.35c2.63.77-1.64-4.16-6.04.55Z"/>
      <path d="M21.66,15.7l2.2,1.14c.35.18,1.4-1.04,1.4-1.02.79.13,1.59.27,2.08.16.49-.1,1.26-1.31.99-1.77-.68-1.19-2.32-1.28-3.49-.86-1.45.52-3.01.39-3.18,2.35Z"/>
      <path d="M23.34,19.55l-4.27-2.68c1.01,1.37,2.45,2.77,3.83,3.48,4.37-1.04,6.54-.38,7.6-4.95-.72.91-1.44,2.08-1.99,3.02l-5.16,1.13Z"/>
      <path d="M22.26,12.98c.21.07.82.2,1.04.15l2.91-.66c.14-.03.53-.41.63-.51.1-.11-.27-.53-.41-.51l-3.9.58c-.22.03-.47.89-.27.96Z"/>
      <path d="M26.03,16.75c-1.1.15-2,.67-1.72,1.85l3.57-.82c-.49-1-1.05-1.14-1.84-1.03Z"/>
      <path d="M30.47,13.95l-2.49-2.13c-.16-.13-.8.13-.75.31.35,1.44,1.84,1.82,3.24,1.82Z"/>
      <path d="M20.37,16.52l2.94,2.28c.99-1.7-1.96-2.72-2.94-2.28Z"/>
      <path d="M20.94,13.14l.14.66-2.29,2.59c1.26-.23,2.83-1.67,2.91-2.76.01-.19-.35-.85-.44-.99-.1-.14-.36.33-.33.5Z"/>
      <path d="M20.65,7.46l1.14.44c.24.09.96-.08,1.06-.33.07-.18.18-.69,0-.78l-.82-.42c-.24-.12-.87-.05-1.11.06-.24.11-.51.93-.27,1.02Z"/>
    </g>
  </g>
</svg>