<?xml version="1.0" encoding="UTF-8"?>
<svg id="Warstwa_2" data-name="Warstwa 2" xmlns="http://www.w3.org/2000/svg" viewBox="0 0 44.43 45.56">
  <g id="game-icon-v7-magic-pixarts-store">
    <g id="game-icon-v7-magic-pixarts-store_238">
      <path d="M7.1,40.44c-1.92,1.12-3.22,2.49-4.49,4.24l-2.61.07.13-3.67,5.76-5.85c-.37,1.75-1.04,3.41-1.93,5.3.83-.62,1.55-1.62,1.92-2.6,2.34-6.18,1.56-7.51,7.32-10.19,2.13-.99,3.69-2.18,5.15-4.1-.66,4.62-3.15,4.09-6.38,5.97,2.25.04,4.01-1.08,5.34-2.51,3.82-4.08.76-6.94,4.4-9.16l-.82,7.85c-.36,3.48-3.34,2.88-4.37,4.14,8.79-.96,2.97-11.37,7.96-17.21.41,1.42-.06,2.68-.18,4.07l-.46,5.41c1.02-1.6.86-3.56,1.25-5.4.44-2.11.52-3.94-.27-6-.84-2.2.33-4.08,2.35-4.75,1.05-.35,1.86-.85,3.01-1.39-1.19,3.21-2.86,2.25-2.45,5.83.23,2.03.08,3.78-.09,5.9l1.47-3.52c.1-.23.53-.77.69-.92.19-.17.66-.04.91.05l1.38-1.19c-.01,2.15-.69,4.08-1.93,5.61,1.97-.06,3.6.12,5.61.3,1.34-.44,2.88-2,4.24-2.89-.43,1.24-1.15,3.13-1.75,4.35-.35.72-2.08,1.79-2.9,1.67l-7.09-1.04c-.62.44-1.31,1.26-1.63,1.81l2.09-1.11c1.1.58,1.92.51,3.36.55-2.71,2.68-6.37,1.05-7.8,5.77-.36,1.17-.92,2.41-1.92,3.17-.89.68-1.98,1.79-2.89,2.18l-5.59,2.45.45-1.24c-2.28,1.05-2.42,3.22-3.69,5.23-.12.19-7.7,10.65-6.83,7.25.05-.21.21-.73.36-.92l2.9-3.52ZM8.35,38.32l1.02-1.81c.12-2.26,1.4-3.76,3.46-5.13-2.4.2-3.7,2.22-4.09,4.54l-.4,2.4Z"/>
      <path d="M32.52,15.43c-.11-1.67.51-3.23.75-5.01-.15-.48-1.19-.49-2-.43,1.49-1.88,3.06-3.63,4.82-5.41l4.02-.24c-.35,1.81-.56,2.84-.48,4.32l-7.11,6.77Z"/>
      <path d="M44.07,8.68l-2.87-.26c-.76-1.75-.5-3.58,0-5.3l-5.71.77-.36-3.44,8.23-.45-2.06,2.89,2.56-1.61c.76,2.46.68,4.69.21,7.4Z"/>
      <path d="M29.14,11.35c-.79-1.28-.45-2.25.15-3.14l4.88-6.7c2.08,2.96-2.85,7.03-5.03,9.84Z"/>
      <path d="M36.48,15.17c-.77.64-1.76.75-2.78.05l5.01-4.49c1.26-1.13,2.78-1.83,4.58-1.2l-6.81,5.65Z"/>
    </g>
  </g>
</svg>