<?xml version="1.0" encoding="UTF-8"?>
<svg id="Warstwa_2" data-name="Warstwa 2" xmlns="http://www.w3.org/2000/svg" viewBox="0 0 40.71 41.7">
  <g id="game-icon-v7-magic-pixarts-store">
    <g id="game-icon-v7-magic-pixarts-store_110">
      <path d="M6.03,31.75c-.84-.33-2.2-2.49-1.37-2.82,2.03-.8,3.7-.93,5.59-1.28l-5.82-.35c-.47-2.11-.77-4.76-.61-6.57l6.84-6.91c-4.15,1.91-4.54,4.62-8.29,5.8l-.06,2.39c-.01.53-1.16.72-1.99,1.14l2.04.43c1.48,2.39,1.42,6.41-1.49,8.66-2.64-14.26.66-15.81,11.71-23.6l-.89,4.22c1.73-1.73,1.85-4.49,3.56-5.91.91-.75,8.75-6.58,9.22-4.68l-1.55,2.63,2.52-1.68c2.03.17,3.75.3,5.85-.03l-6.07-1.51c3.81-2.62,6.9-1.53,11.37-1l-3.39,3.57.47,4.59c1.69-3.66-1.38-3.92,3.93-7.1,1.01,2.96,2.52,5.58,2.97,8.7.46,3.17-.18,7.66-1.71,10.46-3.03,5.55-6.52,10.22-10.45,15.33-.94-6.43,5.25-10.83,9.1-14.27-.48-.84-1.06-2.63-.62-3.38l3.35-5.61-5.08,5c.32,1.26.67,3.24.73,4.61-6.37,5.94-6.49,4.12-9.33,12.35l.58,2.66-6.82,2.87c-2,.84-3.8,1.91-6.18.72,1.31-1.18,2.8-2.66,3.99-3.1l7.64-2.83c-2.74-.7-4.83.7-7.27,1.62-4.09,1.54-4.38-1.99-12.48-5.12ZM21.8,29.07l-.17-8,6.26.94c.46.07,1.48.11,1.72-.22.64-.87.61-13.82-3.26-13.43l-14.38,12.95c-.41.37-.75,1.36-.77,1.76-.02.3.82.85,1.1.75s.87-.43,1.17-.69l5.38-4.71.82,10.52c.03.44.02,1.59.37,1.55l1.02-.1c.27-.03.74-1.04.74-1.33Z"/>
      <path d="M1.97,34.07c-.2-.67,1.37-1.87,2.14-1.88,1.1-.02,8.27,3.31,9.15,5.99l1.1-.28c.22-.06.67.87.47.99l-2.97,1.75-9.88-6.56Z"/>
      <path d="M27.96,19.56c-2.97-.16-4.96-.37-8.03-1.69,2.01-2.48,3.6-3.83,6.31-5.83.99,2.61,1.32,4.48,1.72,7.53Z"/>
    </g>
  </g>
</svg>