<?xml version="1.0" encoding="UTF-8"?>
<svg id="Warstwa_2" data-name="Warstwa 2" xmlns="http://www.w3.org/2000/svg" viewBox="0 0 30.77 40.41">
  <g id="game-icon-v7-magic-pixarts-store">
    <g id="game-icon-v7-magic-pixarts-store_122">
      <path d="M30.51,24.08c-1.16,1.3-2.81,3.07-2.85,4.75-1.52.52-3.34,1.25-4.32,3.01l-18.75.1c-.31-3.12-.18-5.79-.09-8.83.28-8.78-.3-14.48.06-23.03l18.81.04c.91,1.53,3.2,2.26,3.93,3.22.88,1.33,1.93,3.01,3.06,4.22l.14,16.52ZM24.47,23.03l.06-7.55c0-1.21-1.04-2.67-1.51-3.54-.55-3.36-1.94-6.1-5.48-6.39-2.97-.24-6.01,2.23-5.84,5.6.04.71-1.5,1.9-1.56,2.63-.16,2.2-.16,6.17-.17,8.86,0,1.43,1.25,2.61,2.58,2.66,4.1.14,11.89,1.1,11.92-2.27Z"/>
      <path d="M.17,29.2c.08-.86,1.72-1.74,2.65-2.74-.64-.31-1.47.09-2.76.74l.03-18.23c0-.84,1.85-2,2.46-2.74-.23-.26-1.12,0-2.27.43C-.04,5.58-.11,3.49.48,2.06.96.91,2.33.2,3.57.18l.03,31.68c-1.7.71-2.24,2.15-1.89,3.33.53,1.77,2.13,1.84,3.78,1.86h.86c.22.01.43.78.21.84-2.03.62-5.69.68-6.25-2.07-.42-2.05-.37-4.22-.15-6.63Z"/>
      <path d="M12.1,37.66c5.74-1.87,11.23-.1,16.66-1.01.01-1.22.05-2.3.48-3.76l1.33,5.19c-6.27.02-12,.43-18.47-.42Z"/>
      <path d="M11.55,40.41l-1.91-1.25c-.46-.3-1.46.78-2.14,1.2l.14-5.45,3.76-.08.15,5.57Z"/>
      <path d="M24.66,31.86c.36-1.08,1.06-1.42,2.07-1.54l1.84-.21c1.28-.15-.49-3.73,2.03-4.95l.08,6.65-6.02.05Z"/>
      <path d="M30.77,6.23c-2.45-.53-1.14-4.32-2.02-4.44l-1.34-.17c-1.26-.16-2.23-.4-2.96-1.62l6.13.03.19,6.2Z"/>
      <rect x="5.7" y="33.34" width="22" height=".44"/>
      <rect x="12.81" y="35.12" width="14.89" height=".44"/>
      <path d="M12.42,22.53l-1.3.71-.03-8.17,1.72.97-1.45-2.31,11.99-.08.02,10.27c-3.77.3-7.28.28-11.16.15l.21-1.54ZM18.32,21.01c-.3-3.27,1.1-4.7-.66-5.08-1.04-.23-2.1.46-1.95,1.26.31,1.59.41,2.66.42,4.12.21.33,2.24.29,2.19-.31Z"/>
      <path d="M13.76,11.33l-.16,1.08c-.02.17-.73.17-.75,0l-.1-.85c-.32-2.71,1.75-4.78,4.08-4.91,2.69-.15,4.85,1.9,4.82,4.71v.87c-.01.18-.32.29-.5.33-1.14.26.04-4.15-3.46-4.65-2.15-.3-3.59,1.02-3.93,3.41Z"/>
      <path d="M19.55,12.53l-4.74-.1c-.07-.94.32-2.37.83-2.9.54-.56,2.08-.74,2.64-.31.75.59,1.04,1.57,1.27,3.31Z"/>
    </g>
  </g>
</svg>