<?xml version="1.0" encoding="UTF-8"?>
<svg id="Warstwa_2" data-name="Warstwa 2" xmlns="http://www.w3.org/2000/svg" viewBox="0 0 40.79 39.74">
  <g id="game-icon-v7-magic-pixarts-store">
    <g id="game-icon-v7-magic-pixarts-store_199">
      <path d="M22.95,24.09c.54-4.12-1.78-6.8,1.35-10.58l-3.1.52.55-1.73c-1.09.53-1.41,1.81-1.15,2.71l2.12-.58c-1.52,2.91.12,5.12-2.58,4.69l-.45-3.46-2.58-.12,1.32-1.58-1.81-.74,3.1-2.29-2.33-.78c4.68-2.06,4.94-5.44,9.6-2.27-.78-1.18-1.23-1.8-1.79-2.91l3.63,1.67c-1.92-1.46-3.4-3.33-3-5.95,4.13,5.88,8.66,3.52,12.08,7.87.31.4.35,1.52-.03,1.72-2.19,1.13-1.49-2.3-5.35-2.59l1.56,2.67,2.46.34c-1.26.95-2.82,1.31-4.92,1.8l1.5,2.46-2.49.25c-.51.05-.84.88-.95,1.7l1.39-1-.07,4.32s-.48.19-.53.31l-1.39,3.03-.21-3.37c-.56,2.35-1.45,3.89-3.61,4.6.87-2.53,1.35-4.82,1.04-7.39-.63.38-1.26.88-1.04,1.18,1.36,1.79.06,4.9-2.33,5.51ZM29.38,13.41l-2.27.28,1.33-2.46-2.39-.05,1.83-1.61-3.07-1.06c.64.68,1.27.87,2.08,1.21l-1.8,1.56c.88.45,1.63.54,2.29.46-.5.96-.97,2.14-.71,2.76.36.07,1.47-.36,1.56-.07l.4,1.32.74-2.37Z"/>
      <path d="M18.66,24.58c-4.38,3.43-5.92,5.91-9.92,9.59-1.18-.07-3.52-1.86-2.7-3.21,1.91-3.13,8.26-7.4,10.57-12.09l1.19,2.55,2.96,1.84c-.22.3-.95.94-1.25.76l-1.35-.82-.65,1.1,1.15.27Z"/>
      <path d="M30.61,28.33c3-1.16,4.47-3.79,5.57-6.62.03,2.89-1.51,5.06-2.99,7.48,2.36-.94,3.63-2.88,4.93-4.82l.03,1.65,2.29-4.67c-.29,5.14-3.95,9.24-8.56,11.2-4.91,2.09-10.53,1.31-14.92-1.21,5.08,1.2,9.87,1.8,14.08-1.02-3.78.4-7.11,1.13-10.3-.81,3.49.81,6.5.15,9.89-1.16Z"/>
      <path d="M19.86,4.38c-6.37,1.9-10.53,7.15-10.46,13.94-.95-2.32-.32-4.59,0-7.13-2.56,3.06-1.88,6.55-1.39,10.58-3.49-6.41-1.05-14.04,4.66-18.62C15.16,1.15,17.99-.32,21.59.06l-4.46,1.65c-1.11.41-5.97,4.48-6.11,6.11,2.78-1.84,5.34-3.65,8.84-3.45Z"/>
      <path d="M34.1,13.36l2.67,3.9c-2.25-.57-3.08-2.76-4.05-4.32,1.99-.48,3.21-1.08,4.83-2,1.19-.68,2.61,1.14,3.02,2.14.54,1.33.02,2.92-1.01,3.75-.62-2.43-2.52-3.09-5.46-3.47Z"/>
      <path d="M4.99,38.1l-4.99,1.64c.13-1.84,1.67-5.07,1.68-5.27.04-.61.31-1.32.82-1.87,1.24,2.28,2.48,3.72,4.74,4.65-.31,1.2-1.45.58-2.26.85Z"/>
      <path d="M7.81,36.35c-1.93-.17-4.12-1.93-4.36-4.07-.05-.48.92-1.21,1.39-1.39.69,2.33,1.94,3.59,4.16,4.15.03.23-.77,1.32-1.2,1.31Z"/>
      <path d="M21.68,22.76c-2.83-1.5-3.88-1.54-4.39-4.88-.06-.43.87-1.19,1.42-1.35l1.08,3.35c.61.14,1.77.27,2.01.67.27.46.17,1.59-.12,2.2Z"/>
      <path d="M32.71,4.5c-.86-.13-2-.55-2.55-1.11-.63-.64-.4-2.07-.19-3.04l2.73,4.15Z"/>
      <path d="M11.22,16.1c-.26-2.08.23-4.04,1.86-5.27l-1.86,5.27Z"/>
    </g>
  </g>
</svg>