<?xml version="1.0" encoding="UTF-8"?>
<svg id="Warstwa_2" data-name="Warstwa 2" xmlns="http://www.w3.org/2000/svg" viewBox="0 0 37.03 40.77">
  <g id="game-icon-v7-magic-pixarts-store">
    <g id="game-icon-v7-magic-pixarts-store_42">
      <path d="M31.85,5.97c-2.39-2.98-6.46-3.37-9.91-1.91-5.48,2.32-9.49,7.4-10.35,13.38-.43,2.98.63,6.08,3.14,7.7,6.58,4.26,16.42-2.73,18.45-11.56.6-2.61.31-5.55-1.33-7.61ZM32.41,11.76c-.88,9.23-11.06,16.08-16.93,12.53-2.08-1.26-3.14-3.75-2.91-6.31.6-6.62,5.65-12.32,12.15-13.63,2.14-.43,4.35.42,5.71,1.7,1.49,1.4,2.19,3.44,1.97,5.7Z"/>
      <path d="M1.55,34.05c-.84.21-1.14,1.55-1.14,2.45,0,1.24-1.03,2.96.17,3.92,1.16.94,2.84-.25,3.81-.82l1.49.05c.33.01.52-.91.42-1.39l-4.5,1.56c-.24.08-.84-.13-.85-.36-.06-2.87.7-.83.16-3.58-.08-.4.48-1.01.99-1.31l-.16,4.32,3.1-.94c1.16-.35,1.92-.36,2.51-1.5,1.22-2.38,2.71-4.55,4.18-6.84-2.33.84-2.93,3.11-3.96,4.83-.37.66-.75,1.24-1.21,1.7l2.29-4.68c.17-.35.92-.8.94-1.24l-.91.49.02-1.04-5.25,4.79,2.66-.67c-.14.89-.32,2-.74,2.81-.42.81-2.21,1.09-2.75.55-.94-3.74,5.03-5.39,6.82-9.06-1.18-.26-1.55.97-2.25,1.66-1.28,1.26-2.83,2.37-4.28,3.49-.19.15-.39.84-.62.85-.19.01-.72-.08-.93-.03Z"/>
      <path d="M14.77,7.27c5.65-1.45,3.22-4.92,6.46-6.01.35-.12,1.35.23,1.43.57l.29,1.24c.74-.55.56-1.38.22-1.95-.33-.56-1.25-.88-1.95-.76-2.75.46-2.9,3.52-4.08,5.41-.15.23-1.13.39-1.29.16-.13-.19-.26-.58-.27-.71l1.07-.06c.2-.01.14-.49.06-.67-.06-.14-.6-.41-.78-.41-.88.03-1.51,1.36-1.18,2.29-.77-.43-2.22-.74-2.74.2,0,.61.24,1.79.36,2.44-.73-.12-1.87.69-1.79,1.35.02.2.46.64.63.71.17.06.38-.4.39-.58l.02-.77c.37.15.8.43.85.72.04.24-.23.95-.46,1.12l-2.68,1.92c-1.31.94-1.67,2.72-1.07,3.9.19.38,1,.76,1.36.88.4.13,1.22-.3.99-.81l-1.33-.37c-.74-.21-.32-2.77,1.55-3.57,2.28-.97,2.93-3.82,2.1-5.56-.13-.27,0-1.05.06-1.17l1.8.49Z"/>
      <path d="M10.28,21.02c-1.24-.49-2.17-.04-2.47.96-.24.77.4,1.94,1.19,1.96.24,0,.71-.66.55-.76l-.86-.55c-.28-.18.49-.77.83-.73.34.05,1.08.7,1.04,1.07l-.32,2.57c-.16,1.3-.19,2.64-.53,3.74,1.13-.28,2.4-.5,3.59-.68.98-.15,1.92-1.05,3.16-.79.4.08.94.75.9,1.05-.04.3-.51.92-.7.69l-.62-.78c-.1-.13-.4.14-.5.26-.1.13-.07.66.04.81.42.61,1.56.78,2.12.4.63-.43.88-1.52.54-2.29-1.12-2.56-5.42-.09-7.31-.02l.58-4.12c.14-1.01-.37-2.46-1.22-2.79Z"/>
      <path d="M34.7.36c-1.19-.75-3.01.38-3.17,1.45l-.94-1.48c-.18-.28-1.19-.28-1.49-.13-.49.24-.84,1.16-.6,1.59.2.36,1.16.72,1.25.26l-.62-.43c-.19-.14.65-1.02.95-.53.34.56.26,1.63.24,2.93,1.45-1.04,1.41-2.93,3.95-3.12.39,1.95-.76,2.89-2.36,4.01.25,1.02,2.43-.82,3.09.36.18.33-.08,1-.35,1.67.69.18,1.54-.71,1.42-1.52-.11-.75-.93-1.22-1.75-1.49.73-.69,1.5-2.86.4-3.56Z"/>
      <path d="M27.64,23.56c-3.07,2.25-2.35,4.76-4.74,5.06-.78.1-1.07-.75-1.27-1.59l-1.56.3c1.05.88,1.73,3.16,3.87,1.96,1.84-1.03,2.19-2.79,3.5-4.88.12-.19.97-.46,1.11-.28l.59.76-1.04.03c-.15,0-.3.34-.27.48.03.14.5.55.65.58.54.12,1.4-.6,1.38-1.12-.01-.4-.32-1.08-.65-1.43-.27-.29-1.21-.14-1.58.13Z"/>
      <path d="M36.73,15.57c.29-.56.38-1.58.22-2.08-.18-.54-.9-1.13-1.57-1.35-.31-.1-1.31.36-1.26.67l.12.82,1.18-.52c.24-.1.63.71.64.98.04,3.07-4.23,2.9-4.47,5.61-.09,1,.6,1.74,1.32,1.61.67-.13,1.26-.74,1.08-1.55-.05-.22-.9-.32-.9-.06l-.02.91c-.44-.17-.89-.64-.82-.94.38-1.72,3.14-1.52,4.49-4.11Z"/>
      <path d="M34.33,10.1l.28.88c.08.27,1.12.23,1.37.03.59-.49.88-1.37.74-1.94-.24-1.04-1.7-1.81-3.01-1.9-.23.92,2.89,1.65,1.99,2.73-.19.23-.72.24-1.37.2Z"/>
      <path d="M26.45.92l1.55,1.88c.48-.35-.37-2.68-1.74-2.79-.77-.06-1.56.33-1.86,1.09-.14.34.05,1.32.39,1.33.34.02,1.18-.18,1.24-.28l-.71-.5c-.14-.1.04-.44.11-.59.05-.1.94-.22,1.01-.13Z"/>
      <path d="M12.57,26.35l.42.53,1.39-.88c-1.19-.74-1.35-.9-1.94-2.09l-1.09,3.46,1.17-.23c-.25-.33-.52-.59-.39-.65.12-.05.37-.23.44-.14Z"/>
      <path d="M31.55,21.25c.19.53.61,1.93.01,2.17-.56.22-1.53-.39-2.18-.54.1,1.32,2.42,1.83,3.1,1.03.65-.76.02-2.68-.93-2.66Z"/>
      <path d="M33.7,2.02c-1.35-.23-2.5.98-2.14,2.25.94-.51,1.65-1.21,2.14-2.25Z"/>
      <path d="M13.49,17.77l14.19-3.64c.72-.19,1.52-.17,2.71-.23l-13.48,3.99c-1.37.41-2.64.37-3.69,1.55,1.5-.27,2.79-.63,4.23-1l13.19-3.39c1.09-1.74,1.21-4.11.57-5.98-5.79,1.36-11.06,2.69-16.55,4.39-.65,1.34-1.04,2.88-1.17,4.32Z"/>
      <path d="M30.08,7.07l-.67.08c-2.94.78-5.78,1.36-8.52,2.5l8.94-1.99c.18-.04.43-.61.25-.59Z"/>
    </g>
  </g>
</svg>