<?xml version="1.0" encoding="UTF-8"?>
<svg id="Warstwa_2" data-name="Warstwa 2" xmlns="http://www.w3.org/2000/svg" viewBox="0 0 43.86 44.48">
  <g id="game-icon-v7-magic-pixarts-store">
    <g id="game-icon-v7-magic-pixarts-store_145">
      <path d="M16.55,42.97c-5.59.09-5.7,2.01-7.17-2.63l-1.32,2.89c-1.77.97-4.73,1.52-6.89,1.12-.58-2.39.55-4.92,2.36-6.45-2.84-.92-.67-3.07-.97-6.93-.26-3.39-.51-6.97-.6-10.56l4.48-1.01L1,15.62c1.03-4.89-.16-8.88-1-13.8,6.06,1.78,11.77,2.45,17.81,1.92l3.33,3.89c.29-5.52,7.85-4.15,11.35-5.04l1.32,3.8,1.61-4.26,8.44-2.13c-1.45,7.99,1.33,7.09-3.9,12.13l2.49,1.48c-.39,1.48-.1,13.21-2.05,13.79,1.5,1.6,2.58,5.49.04,6.63l1.55,1.13.93,6.15c-4.18-1.19-9.96-1.49-14.01-.68l-2.02-4.47c-1.09,5.36-5.51,7.01-10.35,6.8ZM10.46,9.96l.82,1.36.31-2.13h-2.96c-1.44.98-.17,1.01.77,1.16.06,1.59.05,2.88.79,3.9l.27-4.29ZM17.85,13.72l-.53-1.64c2.8-3.67-4.5-4.41-2.1-.03-.14.4-.5,1.49-.48,1.43l3.11.25ZM30.93,14.23l.11-5.26c-1.32.41-.92.99-.59,1.86l-3.74-1.99.19,5.59,1.68-1.92,2.36,1.71ZM37.17,10.25c-1.51-2.65-.75.8-.76,1.59l-2.38-2.62c.25,1.14.68,1.4-.62,2l3.71,2.26.05-3.24ZM23.83,18.38l-1.75.26-.25-2.77c-.54,1.15-.95,2.71-.96,3.62,2.46.33,2.03.95,2.05,2.69.97-1.03,1.27-2.9.91-3.81ZM15.93,18.76c.82-.15,2.24,0,1.43-1.31,0,0-2.51-1.11-2.51-1.11-.33,1.9-.36,3.42.22,5.41l.86-3ZM37,19.37c-.96-1.33-.13-1.55.46-2.47-1.17.36-1.75,1.02-2.63-.49l-1.69,2.24,1.97,1.1-.58,2.39,2.47-2.77ZM9.94,19.91c.98-.59,1.9-1.5,1.92-2.93l-3.69-.14c.04,2.01.14,3.32.47,5.04l1.31-1.97ZM29.78,20.35c-.62-1.15,2.5-7.02-.08-3.08-.95,1.3-1.79,2.95-1.5,4.56l.85-1.25.73.8c.68.03.16-.76,0-1.03ZM9.85,29.68l1.8-2.52c-2.33-.26-2.23-.61-2.21-2.49-2.21.25-.46,1.74-.68,2.92,2.14-.9,1.31.71,1.09,2.09ZM18.29,24.52l-1.65,1.52-2.45-1.87v5.54c2.14-1.47,2.48-1.09,4.2-.04l-.09-5.14ZM26.78,29.57c2.51-2.19,2.41-1.22,4.05.32.38-1.91.39-3.9,0-5.68-2.11,2.41-2.01,1.28-4.1.26l.05,5.11ZM34.51,25.71c2.26.89,1.09,2.63,1.82,4.4,1.65-2.11.25-5.23-2.85-5.58l.21,5.21.82-4.04ZM22.53,29.31c.29-1.09,2.2-3.73.44-4.52-2.95-.67-1.34,3.08-1.13,4.56l.69-.04ZM11.55,37.5c.37-2.3.42-3.46-.17-4.98l-.46,2.81-2.62-3.25c-.26,2.16-.27,3.53.07,5.53l.88-2.89,2.29,2.78ZM22.67,34.48l1.9-2.26c-1.35.36-1.93,1.17-3.43-.03l.07,5.28,3.17-3.15c-.24-.1-1.35.04-1.72.16ZM18.07,35.79c-.44-.66-1.67-1.67-2.47-2.08.21-.82.07-1.28-.68-.94,0,0-.36,1.08-.36,1.08l.63,3.46.88-1.88c1.24-.3,1.02.93.92,1.72.77.02,1.12-.69,1.08-1.37Z"/>
    </g>
  </g>
</svg>