<?xml version="1.0" encoding="UTF-8"?>
<svg id="Warstwa_2" data-name="Warstwa 2" xmlns="http://www.w3.org/2000/svg" viewBox="0 0 47.07 46.18">
  <g id="game-icon-v7-magic-pixarts-store">
    <g id="game-icon-v7-magic-pixarts-store_100">
      <path d="M41.9,26.41c1.76-3.14,3.29-6.14,4.74-9.23l-3.6,1.43c-1.38,2.44-2.75,4.86-4.54,7.26,0-2.32,3.9-6.12,3.46-8.46l-1.08-5.76c1.15,1.87,1.37,3.65,2.08,5.7,1.23.13,3.23-.48,4.12-1.57-.4-3.24-1.17-6.36-2.24-9.43C43.23,1.78,35.04.59,30.61.04c-4.08-.51-3.59,3.62-5.72,5.09.45-1.62,1.08-2.8,2.01-4.64-7,3.12-13.67,6.45-19.15,11.15l-1.89,5.46c2.75-1.21,4.56-4.39,6.91-4.93l-6.59,6.3c-2.92,2.8-.79,5.78-1.93,10.11-1.62-8.55-.3-8.26,2.67-16.01C-.95,18.85-1.11,23.04,1.55,31.89c3.07,1.61,5.72,3.13,8.23,5.35-3.06-1.01-5.29-2.65-7.98-4.38.65,1.55,1.44,3.85,2.93,4.91l8.3,5.87c.5.35,1.51.67,1.99.53s1.4-1.06,1.44-1.47l-2.97-4.18,2.7,2.17c5.23-.48,6.68,2.9,10.95-1.72.96-1.04,2.03-1.98,3.11-2.81l2.44-1.89-6.08,6.22c-4.73,4.84-7.5-2.42-10.62,4.46,7.49,3.35,13.99-.46,18.59-7.3l-3.62,1.8c-.52.26-1.58.56-2.11.72,1.84-2.77,5.33-2.74,7.4-4.55,2.64-2.32,3.93-6.14,5.64-9.2ZM33.09,23.03c.23-2.46-.02-4.52-1.24-6.18-1.32-1.8-3.43-3.05-5.83-2.75-1.71.21-3.13,1.55-3.8,3.31-.45,1.18-.27,3.04.25,4.51l3.37-3.57c.29-.31,1.1-.57,1.46-.59.43-.02,1.43.83,1.25,1.23l-2.9,3.07c.27,2.25.51,3.92-.07,6.34-.84-1.55-1.03-2.84-1.46-4.42-2.28.34.76,3.84-.71,7.48l-1.68-5.27c-2.76,2.78-4.31,4.97-7.87,6.12.03-3.08,4.56-5.23,6.56-8.31-1.3-4.95-1.43-8.67,3.24-11.97-.52-1.03-1.63-2.75-2.31-3.42-.26-.26-1.53.16-1.84.24,1.91-2.03,5.21-3.1,8.04-3.4,1.09-.11,5.07-4.12,8.72.32-1.81-.57-3.38-1.8-4.82-1.28l-4.9,1.76c-1.63.58-3.05,1.33-4.42,2.34l3.23,3c3.58-.54,6.43.95,8.26,3.86,1.5,2.37,1.92,5.72-.55,7.58Z"/>
    </g>
  </g>
</svg>