<?xml version="1.0" encoding="UTF-8"?>
<svg id="Warstwa_2" data-name="Warstwa 2" xmlns="http://www.w3.org/2000/svg" viewBox="0 0 40.53 41.2">
  <g id="game-icon-v7-magic-pixarts-store">
    <g id="game-icon-v7-magic-pixarts-store_227">
      <path d="M38.31,7.8c-.4-2.68-2.55-5.01-5.35-5.63l-1.5,2.46c-.33-.84-.31-1.67-.12-2.8-2.69-.06-5.61,1.31-6.78,4l1.61,1.79-2.55-.18c-.81,1.83-.58,3.6.32,5.59-.45.13-1.4.26-1.9.17-1.26-2.96-.78-6.28,1.02-8.92C25.44.8,29.51-.78,33.64.37c3.84,1.07,6.55,4.48,6.87,8.84.24,3.35-1.38,6.43-3.88,8.3-2.81,2.09-6.23,2.67-9.64,1.24.06-.49.32-1.26.56-1.8,1.98.9,3.7,1.05,5.51.23l.29-2.95c.59.49,1.02,1.22,1.6,2.28,2.2-1.43,3.68-3.92,3.62-6.71l-2.9-1.12,2.63-.89Z"/>
      <path d="M32.45,12.82l-2.38,3.56-1.47-4.23-4.18-.99,3.52-2.71-.21-4.41,3.62,2.61,4.16-1.84-1.39,4.41,2.73,3.53-4.4.07ZM31.48,10.46c1.32.6,1.69.83,2.77.85l-2.48-1.79c.8-.88,1.58-1.77,1.93-2.82l-2.57,2.15-2.18-2.76c.3,1.16.7,1.98,1.27,3.18l-3.4,1.23c1.12.19,2.33-.01,3.63-.29-.19,1.29-.33,2.56-.03,3.72l1.05-3.47Z"/>
      <path d="M14.38,25.44c-.7,2.75.34,7.23-4.12,8.69,2.23-5.03-.3-9.88,4.79-11.28l-.66,2.59Z"/>
      <path d="M6.09,39.32c-.26,1.35-2.06,2.13-3.35,1.81-1.32-.33-2.39-1.46-2.66-2.7-.32-1.5.42-2.99,1.89-3.57,1.24,1.61,2.57,3.06,4.12,4.47Z"/>
      <path d="M18.35,25.03c-.26,2.07-1.57,4.15-3.66,4.43,2.25-4.62-.22-9.05,4.76-10.78-.44,2.16-.83,4.18-1.1,6.36Z"/>
      <path d="M8.83,36.17c-.88-.24-2.17-1.12-2.55-1.78,1.07-2.8.18-6.47,4.34-7.15-1.63,4.49-.09,5.81-1.78,8.94Z"/>
      <path d="M23.62,20.45l1.2-4.95-2.89.32c-.9-1.86,1.21-1.05,4.76-2.85.29-.15.91-.27,1.15-.13s.27.91.14,1.17l-2.4,4.79c-.39.74-.91,1.24-1.97,1.66Z"/>
      <path d="M23.51,16.5c-1.28,3.5-.44,6.41-4.09,8.23l.76-5.55c.08-.61.35-1.78.81-2.07.53-.33,1.79-.53,2.52-.61Z"/>
      <path d="M4.21,32.96c2.71,4.48,4.95,3.54,4.32,5.15-.91,2.32-7.15-3.7-5.61-5.26.21-.21,1.1-.18,1.28.11Z"/>
    </g>
  </g>
</svg>