<?xml version="1.0" encoding="UTF-8"?>
<svg id="Warstwa_2" data-name="Warstwa 2" xmlns="http://www.w3.org/2000/svg" viewBox="0 0 43.84 45.33">
  <g id="game-icon-v7-magic-pixarts-store">
    <g id="game-icon-v7-magic-pixarts-store_178">
      <path d="M26.28,15.26c-.76.55-2.18,1.07-2.8,1.46-1.07.96-2.06,1.97-3.45,2.55-.91.95-.16,3.85-2.94,3.32.41-1.4.65-2.68.37-4.25,2.66-.97,5.08-2.48,7.24-4.56,5.67-5.44,11.67-10.46,19.13-13.78-1.68,4.87-10.71,20.48-16.03,20.45l9.08-13.08-5.68,4.32-4.93,3.57Z"/>
      <path d="M22.43,22.38c-.32-.38-1.71-.26-2.59-.09-.1-1.4.78-2.64,2.02-3.45l4.09-2.66,6.96-4.82-5.77,8.73c-.86,1.31-1.59,2.65-2.23,4.2l-2.56,1.09.08-2.99ZM25.79,20.38c.29-.61.07-1.77-.39-1.89s-1.6.13-1.92.5c-.4.46-.79,1.43-.59,1.88.17.39,1.05.85,1.47.78s1.15-.69,1.43-1.27Z"/>
      <path d="M20.87,28.3c-.63,4.17-4.29,3.09-8.41,3.71.4-3.37-.32-7.35,3.58-8.09l5.66-1.06-.83,5.45ZM18.68,29.82c1.5-1.28,1.33-3.57,1.37-5.31-1.77.18-4.34-.02-5.38,1.42-.93,1.27-.77,3.41-1.02,5.08,1.55-.19,3.8-.12,5.04-1.18Z"/>
      <path d="M17.11,32.69c3.75-1.68,2.98.1,6.25.49l-2.46-1.66c-.44-.3.17-1.76.61-1.79,1.46,1.76,3.24,2.55,5.62,2.5-2.01,2.34-5.12,2.74-7.9,1.45l-2.12-.99Z"/>
      <path d="M11.65,21.6l.91,3.05c.21.7-.34,2.2-.69,3.05-1.76-4.11-2.53-6.45.7-10.04.26,2.35.33,4.2,2.53,5.67l-1.71.89-1.74-2.63Z"/>
      <path d="M20,7.09l-1.08-.08c.7-.81,1.62-1.69,2.33-2.19.26.6.31.7.37.72,2.52-1.41,4.7-2.13,7.47-1.91-5.55,1.14-9.77,5.12-11.52,10.83-.11-2.6.91-4.85,2.43-7.38Z"/>
      <path d="M21.79,28.03c-.02-3.13,3.33-1.95,3.77-3.72.56-2.22,2.37-4.01,4.75-4.03-1.94,2.03-3.18,4.34-4,6.75-1.52.22-2.86.51-4.52,1Z"/>
      <path d="M40.22,22.17c-.48,1.42-1.22,1.39-2,1.67-2.07.74-3.89,2.67-6.53,2.41,4.94-1.99,8.51-6.58,9.2-11.88.71,3.01-.49,5.68-1.81,8.08l1.14-.29Z"/>
      <path d="M5.75,41.34c1.09.58.97,2.1.17,2.9-1.57,1.57-3.89,1.39-5.15-.19-1.23-1.54-1.04-4.26,1.02-4.94-.25,1.27-.64,2.64-.36,3.71s1.78,1.37,2.78,1.04c.74-.25,1.26-1.35,1.55-2.52Z"/>
      <path d="M14.15,34.5c-1.12.84-1.79.61-3.02.38-.91-.17-2.53-1.56-1.71-2.48l2.28-2.59-.33,3.36,2.78,1.34Z"/>
      <path d="M9.98,38.07l-1.84,1.4c-.39-2.18-1.35-4.12.28-6.22l1.56,4.83Z"/>
      <path d="M27.87,7.46c-2.85,1.08-4.93,3.21-6.56,6.25-.05-3.38,2.61-6.5,6.56-6.25Z"/>
      <path d="M32.05,22.62c2.48-1.79,3.99-3.91,5.38-6.74.34,3.24-1.9,6.39-5.38,6.74Z"/>
      <circle cx="3.58" cy="41.82" r="1.51"/>
      <path d="M7.45,40.09c.14.13-.27,1.12-.44,1.04l-.86-.42c-1.18-.58-2.41-1.76-1.54-3.36l2.84,2.75Z"/>
      <polygon points="12.51 35.74 10.34 37.63 9.48 34.8 12.51 35.74"/>
      <path d="M17.9,28.71l-2.33.21c-.08-.48-.06-1.65.27-1.94.38-.34,1.14-.69,1.86-1l-.44,1.42.75-.07c.26-.02.14,1.35-.11,1.37Z"/>
    </g>
  </g>
</svg>