<?xml version="1.0" encoding="UTF-8"?>
<svg id="Warstwa_2" data-name="Warstwa 2" xmlns="http://www.w3.org/2000/svg" viewBox="0 0 39.03 43.92">
  <g id="game-icon-v7-magic-pixarts-store">
    <g id="game-icon-v7-magic-pixarts-store_40">
      <path d="M23.37,25.43c-1.55-.44-3.19.41-4.37,1.6-5.05,5.1-9.42,9.68-15.69,12.95,2.26-6.38,6.12-11.06,10.1-15.85,1.38-1.66,2.83-3.45,1.92-5.9l-7.42,9.68c-3.69,4.81-6.61,9.79-7.92,16.01,5.62-2.68,10.46-5.89,14.62-9.96l8.75-8.54Z"/>
      <path d="M4.81,38.16c5.21-2.46,10.12-7.89,14.04-11.78,1.14-1.13,2.61-1.66,4.15-1.87l.92-2.5-5.16.37-.17-4.96-2.27.97c.02,1.55-.38,3.45-1.54,4.88-3.63,4.48-7.84,9.17-9.97,14.89ZM17.61,22.52l.98,2.11-2.72.79c-.12-1.11.59-2.09,1.75-2.9ZM11.01,31.13c-.27.06-.11.56-.14,1.5l-1.51-1.05,2.26-2.59.82,1.8-1.43.34ZM14.41,29.22l-.24-1.75-1.49.77c.57-1.24,1.15-1.87,1.9-2.82.65,1.19.77,2.62-.17,3.79Z"/>
      <path d="M15.33,14.9c.74-.23,1.57-.66,2.01-.48,2.66,1.14,2.11,4.34,2.29,7.01,1.9-.58,7.6-.39,7.4,1.62l-.25,2.57c.87.1,1.94-.2,2.64-.63.51-.32,1.27-1.68.83-2.29-2.21-3.06-5.06-5.18-7.83-7.63-1.76-1.56-3.31-3.33-5.72-4.06-.79-.24-1.73,1.04-1.88,1.67-.15.62.07,1.95.5,2.22ZM24.73,18.86c1.29,1.17,3.01,2.1,3.42,4.08-1.65-2.62-4.26-3.99-7.57-2.64.61-2.58.16-4.49-1.39-5.92l5.54,4.49Z"/>
      <path d="M31.92,3.12c1.55.56,2.57,1.2,3.83,2.33l1.82-3.84c.68,3.63-1.91,3.53-1.7,3.94l.41.79c.17.33.47.9.74.95,1.77.34,2.66-5.29,1.45-7.3-2.38.35-6.49.49-6.56,3.12Z"/>
      <path d="M21.9,35.98c4.03-.06,7.72-2.79,9.3-6.64-2.88,2.74-5.7,4.8-9.64,5.15-2.11.19-4.37.71-5.79,2.1,2.31-.43,4.05-.58,6.13-.61Z"/>
      <path d="M26.98,9.82l.89,6.41c3.1-1.98,1.82-4.82.94-8.51l-1.84,2.1Z"/>
      <path d="M29.31,7.41c.68,2.15.91,3.78,1.26,6.09l2.31-3.03c-1.58-2.43-.59-2.48-1.86-4.75-.88.79-1.39,1.29-1.72,1.68Z"/>
      <path d="M9.33,21.71c4.53-3.91-.26-6.27,2.9-11.56-5.41,5.53-.74,5.32-2.9,11.56Z"/>
      <path d="M7.09,12.66c-3.06,3.43-.22,7.86-1.18,12.91,3.61-6.57-.44-7.07,1.18-12.91Z"/>
      <path d="M36.24,7.22c-1.04-1.48-2.31-2.55-3.79-3.15-.28-.11-1.23.21-1.13.47.57,1.43,1.92.52,3.67,3.89l1.25-1.22Z"/>
      <path d="M22.84,13.97l4.23,3.69c.65-2.56-1.9-4.55-4.23-3.69Z"/>
      <path d="M19,38.68c-3.42.94-6.23-.26-7.68,1.69,4.04-.56,5.32,1.05,7.68-1.69Z"/>
      <path d="M2.21,28.4l.33,2.88c.68-.83.91-1.47.93-2.16l.11-4.96c-1.07,1.14-1.55,2.7-1.37,4.24Z"/>
      <path d="M23.97,12.88l3.04,1.32-.33-4.23c-1.17,1.13-1.84,1.88-2.7,2.91Z"/>
      <path d="M20.5,32.49c2.44.15,4.59-.54,5.98-2.32l-3.79.99c-.94.25-1.83.39-2.19,1.33Z"/>
      <path d="M33.08,9.88c.93-.53,1.02-1.2.81-2.15l-1.87-1.14,1.06,3.29Z"/>
      <polygon points="23.76 18.92 21.55 17.05 21.67 19.42 23.76 18.92"/>
    </g>
  </g>
</svg>