<?xml version="1.0" encoding="UTF-8"?>
<svg id="Warstwa_2" data-name="Warstwa 2" xmlns="http://www.w3.org/2000/svg" viewBox="0 0 47 46.15">
  <g id="game-icon-v7-magic-pixarts-store">
    <g id="game-icon-v7-magic-pixarts-store_98">
      <path d="M7.12,12.26C-1.49,19.32-1.08,23.3,2.05,33.47l1.93-3.55-.46-3.99,1.74,3.78c2.9.39,5.75.93,8.15,2.4-3.17-.73-5.91-1.2-8.82-1.25l-1.94,4.14c1.62,3.18,9.74,8.26,12.89,9.78,7.29,3.5,14.04-.03,18.67-6.41-1.68-.25-3.29.06-4.72.86l-5.84,3.27c-.9.51-1.8,1.9-2.87,1.56l1.86-2c-2.54-1.31-4.55-2.52-7.09-3.01-1.81-.35-3.57-.23-5.15-1.12,4.56-.39,8.65,1.06,12.71,3.51,3.17-1.26,6.23-3.02,9.49-4.01,1.47-.45,2.76-.15,3.72-1.46.74-1,.95-2,1.04-3.38l.33-4.96-2.79,3.04c.65-1.38,1.3-2.99,2.22-4.19l4.12-5.39c1.39-1.81,1.89-3.87,2.51-6.22.67,2.58-.6,4.73-2.03,6.77l-3.08,4.38-.29,7.09,7.86-14.89c1.05-1.98.88-4.24.32-6.21l-1.53-5.37c-.55-1.95-2.21-3.55-4.18-4.22C37.24,1.18,33.53.19,29.68,0c-2.35-.11-4.53,1.39-6.61,2.22-2.38.94-3.98,2.3-5.24,4.47-1.89,3.25-4.34,6.1-7.54,7.87,2.92-3.06,5.46-5.93,7.58-9.66-2.93,1.66-6.3,3.11-8.59,5.77-1.13,2.05-1.9,4.77-2.6,6.96-.81,2.52-.59,5.17-2.7,7.24l1.75-6.41c.58-2.12,1.12-3.91,1.4-6.2ZM37.34,19.18c-1.7.78-3.82.88-4.94,2.45-1.97,2.77.15,6.95-3.26,6.64l-7.07-.65.22,4.32c2.27.16,3.65-.08,5.83.78-2.62,1.38-5.31,1.52-8.22,1.58l-.52-9.38,9.31.89,1.05-5.28c1.92-2.08,5.05-2.27,7.61-1.34ZM33.67,3.44l4.64,2.04c1.42.62,3.44.04,4.67,1.27-1.17-.05-2.99-.18-4.27-.18-.62,0-1.23,1.48-1.91,2.19l.26-2.78-3.55-1.71c-2.05-.99-3.91-1.15-6.39-.7,1.92-1.36,4.35-1.09,6.56-.13ZM20.98,9.54c1.89-.27,4.84-.42,6.91-.24.25,3.84.39,6.92.06,10.71-1.83-1.09-1.45-2.95-2.08-5.03l-6.88,6.48c-2.17,2.04-4.49,3.87-7.5,4.59l13.61-14.18-3.68-1.02-.72-.2c-.22-.06.03-1.07.28-1.11Z"/>
    </g>
  </g>
</svg>