<?xml version="1.0" encoding="UTF-8"?>
<svg id="Warstwa_2" data-name="Warstwa 2" xmlns="http://www.w3.org/2000/svg" viewBox="0 0 45.82 46.72">
  <g id="game-icon-v7-magic-pixarts-store">
    <g id="game-icon-v7-magic-pixarts-store_242">
      <path d="M21.28,28.31c-5.19,4.14-8.93,9.43-13.45,14.21-1.72.48-4.02-2-3.74-3.74l13.51-12.56,1.19-2.67c.11-.24,1.22-.76,1.3-.49l.35,1.25c1.28-2.11.69-3.75,2.92-5.87.33,1.54.13,2.84-.37,4.15,2.01-.28,3.84-.31,6.06.12-2.55,1.99-6.51,1.58-7.05,2.93l2.68-.37c-.06,1.97-2.12,2.03-3.4,3.05Z"/>
      <path d="M28.2,19.9c1.63.18,3.92-.9,6.93-.57-1.47,4.29-7.76.96-11.47,2.78,1.5-3.9-.51-9.27,3.04-10.76.09,2.25-.35,4.49-.78,7.11,2.04.27,1.95-5.75,1.65-7.57-.6-3.66.78-7.16,3.77-9.19-.8,1.85-1.48,3.66-1.56,5.64l-.25,6.35-.43,2.89,7.71-.26c2.48-.08,4.71-.6,7.12-1.5-1.57,2.74-4.67,3.87-7.9,3.59-6.24-.54-8.56,1.39-7.84,1.47Z"/>
      <path d="M41.42,3.06c-6.62-2.18-5.76.06-10.52,4.16-.07-3.47,1.7-7.49,6.29-7.21,1.92.12,3.81,1.03,4.23,3.05Z"/>
      <path d="M38.51,15.22l4.11-4.17c1.67-1.69.84-4.33.5-6.59,1.4.87,2.69,2.6,2.7,4.07.05,4.68-2.64,6.01-7.31,6.68Z"/>
      <path d="M39.29,8.68c-1.38,1.81-4.02,5-6.04,4.1-.41-.18-.5-1.67-.23-2.05.97-1.36,2.77-3.2,4.13-4.32.39-.32,1.7-.12,2.05.2s.4,1.68.1,2.06Z"/>
      <path d="M7.54,43.88c.34.09.36,1.18.11,1.42s-1.1.65-1.52.55c-4.56-1.04-6.02-5.63-4.95-6.71.29-.3,1.06-.35,1.75-.32-.04,2.66,2.29,4.6,4.61,5.06Z"/>
      <path d="M36.34,14.81c-.57-.86-.42-1.71.24-2.39l3-3.07c.33-.04.91.18,1.58.51l-4.82,4.96Z"/>
      <path d="M33.09,9.61c-.37.38-.96.42-1.81-.08,1.55-1.84,2.94-3.32,4.79-4.96.5.67.43,1.5.04,1.9l-3.02,3.13Z"/>
      <path d="M3.75,46.22c-.85.42-2.23.61-3.68.43-.16-1.29,0-2.84.24-3.99l3.44,3.56Z"/>
      <path d="M32.18,10.62c.27.03.65,3.31-.85,3.6l-.13-3.69.98.09Z"/>
      <path d="M40.72,4.85c-1.19,1.25-3.13,1.71-3.92-.33,1.26-.15,2.62-.03,3.92.33Z"/>
      <path d="M40.93,9.15c-.83-.54-1.15-1.15-1.14-1.68.01-.79.34-1.5,1.16-1.97.42,1.04.41,2.29-.01,3.65Z"/>
    </g>
  </g>
</svg>