<?xml version="1.0" encoding="UTF-8"?>
<svg id="Warstwa_2" data-name="Warstwa 2" xmlns="http://www.w3.org/2000/svg" viewBox="0 0 45.03 48.32">
  <g id="game-icon-v7-magic-pixarts-store">
    <g id="game-icon-v7-magic-pixarts-store_164">
      <path d="M31.67,20.8l4.5,1.41c.21,1.8.54,5.18-.35,6.53l-2.83,4.3c-.72,1.1-3.36,1.75-4.25,3.63l-20.37.04-.05-14.88c1.89-.56,3.94-1.04,5.96-1.22l3.48,3.86c1.76.97,2.73,1.62,4.18,3.63l2.18-2.7c1.85-.35,3.56-1.88,4.3-3.44.33-.7,2.42-1.43,3.26-1.16Z"/>
      <path d="M31.65,15.65c-.9.1-2.84-.58-3.38-1.09-1.23-4.78-2.98-.85-6.48-6.56-.88,2.3-3.56,3.43-5.32,4.62-.69.47-1.01,2.45-1.75,2.74-.87.35-2.48.4-3.35.24l-3.01-.54-.04-14.86,12.04-.12c.71,0,1.97.62,2.82,1.17,4.98-3.19,5.63.48,9.86,2.21,2.82,7.31,3.74.52,3.21,11.69l-4.58.49Z"/>
      <path d="M27.37,47.32c-1.14,1.99-4.44.61-5.77-.7-.37-.37-1.38.76-1.81,1-1.82,1.01-4.98-.47-5.8-1.88l2.07-1.03c-1.53-1.71-2.46-2.96-2.99-4.73,2.1,2.24,3.38,3.81,5.83,4.68,5.75,2.05,3-1.43,8.12-.03-.96.76,1.18,1.28,1.88,1.15.64-.12,1.44-.83,2.3-1.59l4.16,1,2.27-2.62c.75.1,3.15.09,3.01-.72-.19-1.09-.55-2.03-.42-2.65.55-2.77,2.55-.31,3.05-5.78,1,1.38.53,3.01-.02,4.84l-.35,1.17c-.05.18-.4.15-.44-.05l-.31-1.65-1.03,1.47c-.34.48.76,2.18,1.35,1.9,1.51-.71,1.61-2.92,1.96-4.76,1.6,2.52-.23,4.92-2.47,6.05-5.16,2.6-2.23-.46-5.72,2.79.55.24,1.98.73,2.45.33l2.62-2.19c.18,1.09-.77,2.37-1.99,3.03-.94.51-2.28-.02-3.57-.33l-3.8-.9c-1.87,1.07-5.25,2.75-7.07-.36l-2.53,1.89c1.79.66,2.81.65,5.01.67Z"/>
      <path d="M5.14,42.59c-2.2-1.4-2.42-9.67.44-11.68l-2.13.96c-.22-1.86.84-2.84,2.8-4.07l-2.72.35.27-5.03c.05-1,2.39-2.03,3.37-2.06.12,4.91.31,10.56-.18,15.24-.09.91-2.08,2.25-1.82,3.09.43,1.41,1.3,2.22,2.72,2.62l2.68.75c-1.52,1.26-3.77.88-5.43-.17Z"/>
      <path d="M6.05,9.7l-3.06.8c.09-1.45.92-2.4,2.32-3.55.06-.16.12-.44.02-.4l-1.5.55C2.94,4.57,3.23.87,7.24,0v15.67c-1.29.17-3.15.01-3.46-.86-.58-1.66.33-3.87,2.26-5.12Z"/>
      <path d="M39.31,19.34c-.25-.25-1.47-.42-1.48-.07s.13,1.13.37,1.37l1.7,1.76-2.89-1-4.96-1.59,1.2-.48c.18-.07.32-.23.19-.34-1.77-1.52-4.51,2.82-8.21-.12,2.65-1.56,2.2.77,5.3.07-1.5-1.92-2.98-1.68-5.31-1.55,1.69-2.26,3.65-.3,5.6.18l3.29.8.71,1.42c.18.36,1.46.03,1.63-.51-1.87-.87-.87-.59.38-.39,1.52-1.21,4.09-.48,4.28,1.13.34,2.87,1.15,4.44.71,4.46l-1.44.04c.06,1.11.71,2.48,1.49,3.86-1.77-.45-3.42-3-1.66-4.64.9-.83-.06-3.56-.9-4.4Z"/>
      <path d="M22.96,14.12c2.3.8,1.82,6.47.19,7.38-.89.5-3.15.43-3.53-.78-.5-1.61-.5-3.9.03-5.44.35-1.03,2.45-1.46,3.31-1.16Z"/>
      <path d="M19.42,43.2l-1.78-.02c-.28,0-.37-.84-.31-.96l18.97-.24c-.21.55-.99,1.19-1.51,1.19l-15.38.02Z"/>
      <path d="M33.17,38.77c-7.91.69-16.17.44-24.38.22,6.66-.73,17.12-1.66,24.38-.22Z"/>
      <path d="M16.39,18.8l1.03-.68c.24-.16.82.38.82.67s-.89,1.06-1.18,1.02l-5.06-.63c-.66-.04-1.95,1.19-2.6,1.33-.74.17-1.9-.82-2.73-1.66l-1.75,1.26c-.43-1.25-.7-2.22-1.13-2.66-.54-.55-2.52.62-2.32,1.22.22.98.39,1.29.13,1.29l-1.4.03c-.68.02.42-2.95,2.7-3.29.99-.15,1.96.88,2.85,1.99,1.14-1.83,3.04-2.84,5.17-2.08l-3.63,1c-.38.44.59,1.96,1.32,2.14.68.16,1.85-.56,2.05-1.01l-2.42-.61c8.22.15,4.59-3.22,10.24-1.18-1.62.2-3.26.44-4.54.88-.19,1.13,1.71,1.44,2.44.95Z"/>
      <path d="M36.26,6.71c-2.94-1.35-.17-4.66-3.03-4.86-1.4-.1-2.37-.24-3.38-1.75l6.48.13-.07,6.48Z"/>
      <path d="M26.7,15.5c-1.68-1.25-2.95-2.51-4.78-2.6-1.37-.06-3.18,1.5-4.72,2.54-.58-1.76.81-2.59,2.28-3.3,1.77-.85,3.09-.84,4.83-.04,1.46.68,2.62,1.6,2.39,3.4Z"/>
      <path d="M30.42,36.68c-.24-.73.71-1.4,1.63-1.58l2.08-.43c1.12-.23.06-3.99,2.17-4.49l.03,6.49h-5.91Z"/>
      <path d="M22.24,24.8l-3.74-1.57c-1.05-.44-2.16-1.24-1.44-2.81,4.9,5.15,7.6,1.19,9.92.38.26-.09.23,1.34-.01,1.47l-4.72,2.53Z"/>
      <rect x="15.81" y="40.2" width="17.34" height=".52"/>
    </g>
  </g>
</svg>