<?xml version="1.0" encoding="UTF-8"?>
<svg id="Warstwa_2" data-name="Warstwa 2" xmlns="http://www.w3.org/2000/svg" viewBox="0 0 43 41.31">
  <g id="game-icon-v7-magic-pixarts-store">
    <g id="game-icon-v7-magic-pixarts-store_25">
      <path d="M8.52,4c-.78,2.88-1.16,5.64.81,7.67,1.95-2.19-2.57-3.67,1.14-9.01-.6-.01-1.44.18-1.61-.16l-.75-1.47-1.9,2.56c-.47.64-5.71,7.67-5.01,8.01l.51.25c-3.07,8.06-2.09,14.81,3.77,21.55C1.01,23.63.52,12.08,8.52,4Z"/>
      <path d="M41.91,11.45c-1.32-2.8-3.14-5.2-4.91-7.61-.74-1.01-1.16-2.37-2.19-2.77-.17.59-.33,1.32-.64,1.53-.27.18-.97.13-1.44.15,1.49,2.38,1.92,4.89.42,7.26.1.6.45,1.36.78,1.62,1.64-2.5,1.43-4.87.46-7.58,3,2.41,4.5,5.79,5.51,9.28,2.09,7.19.39,13.21-2.37,20.03,5.75-6.27,6.89-13.6,3.76-21.43l.62-.47Z"/>
      <path d="M33.06,13.51c-1.22-5.87-6.67-10.14-12.85-9.44-5.47.62-9.65,4.95-10.4,10.42-.78,5.7,2.8,10.91,8.17,12.78.7.24,1.16.05,1.22-.71-6.45-1.55-10.21-8.47-7.54-14.76,1.99-4.71,6.56-7.35,11.45-6.63,4.53.67,8.28,4.31,8.98,9.11.84,5.7-2.63,10.92-8.21,12.16l.24.73c.06.17.68.16.86.1,5.84-1.87,9.3-7.85,8.08-13.78Z"/>
      <path d="M9.89,21.77c-1.9-4.27-.79-5.42-1.46-8.74l-.5,2.44-.37-3.47c-.48,1.4-.69,2.95-.68,4.57l.02,3.86c-1.09-3.88-.38-7.66-.26-11.87-1.97,4.88-1.58,9.92-.29,15.3-1.82-3.49-1.99-7.47-1.81-11.72-1.81,4.66-2.01,9.84-.55,14.75l.9-1.18c.18-.23,1.21-.09,1.42.13l1.96,2.06-.43-3.38c-.17-1.38.88-2.34,2.05-2.76Z"/>
      <path d="M34.86,27.72l1.89-1.85c.27-.26,1.26-.48,1.47-.19l.83,1.16c1.34-4.94,1.34-10.23-.64-14.98.26,4.42.08,8.65-1.76,12.31,1.18-5.41,1.8-10.52-.26-15.59.11,3.86.85,7.53,0,11.3-.39-2.79.25-5.29-.88-7.78l-.47,3.36-.57-2.21c-.06,3.15.01,5.89-1.51,8.55,3.17.74,1.99,3.66,1.89,5.91Z"/>
      <path d="M34.04,37.53c-6.37,3.61-18.88,3.39-25.12.04.08,1.53,1.48,2.09,2.81,2.45,6.5,1.75,13.48,1.72,19.95-.08,1.2-.33,2.47-.97,2.36-2.41Z"/>
      <path d="M12.18,31.65c-.27.27-.62.87-.49,1.14,1.22,2.47,13.54,3.45,19.06.67.3-.15.82-.91.64-1.13l-.62-.76c-.68,3.34-17.35,3.23-18.58.08Z"/>
      <path d="M18.61,29.17c-.83,1.2-2.17,2.11-3.39,3.17.52.29,1.73.51,2.15.04,1.65-1.84,2.86-3.47,4.16-5.52.82,1.39,4.54,7.23,6.04,5.4-.89-.93-2.05-1.59-2.66-2.44l-3.46-4.78-2.85,4.14Z"/>
      <path d="M14.05,12.04c.98,1.44,6.2-3.06,4.73-4.4-1.52-1.38-5.94,2.61-4.73,4.4Z"/>
      <path d="M13.52,30.78c-.06.27-.2.97,0,1.06.21.09.59.2.81.23.22.03.58-.63.6-.87.1-1.31-.51-2.5-1.16-3.91l3.26,2.21c.2-.13.68-.84.7-1.02-2.43-1.23-4.23-2.57-6.45-4.33-.87,1.9,2.98,3.32,2.23,6.63Z"/>
      <path d="M31.72,24.11c-2.2,1.94-4.09,3.22-6.54,4.44.35.31.78.68.97.81l3.16-1.99c-.77,1.64-1.49,2.66-1.02,4.27.08.29.94.51,1.18.3.8-.7-1.54-2.44,1.76-5.72.59-.59.87-1.44.49-2.1Z"/>
      <path d="M22.95,30.81c-.32-.84-.94-1.85-1.49-2.62-.58,1.02-.98,1.69-1.29,2.56-.31.85.64,1.98,1.58,2.15.57-.57,1.41-1.56,1.21-2.09Z"/>
      <path d="M25.73,38.61l1.76-2.15,3.11,1.32c.16.07.91-.05.83-.17-.54-.81-3.12-2.11-4.21-2.02-1.33.86-2.24,2.15-3.19,3.46.61.24,1.31.02,1.69-.44Z"/>
      <path d="M11.77,37.99l3.77-1.56,1.54,1.97c.44.57,1.14.91,1.98.73-.99-1.21-1.89-2.39-3.07-3.38-.93-.78-5.1,1.62-4.22,2.24Z"/>
      <path d="M30.34,16.83c-1.12,3.93-3.65,6.56-7.33,7.86,4.35.19,7.47-3.84,7.33-7.86Z"/>
      <path d="M24.14,37.53c.15-.17-.53-.57-.7-.73-1.27-1.2-3.09-1.16-4.23.31-.15.2-.56.5-.41.62l.58.47c.6-.57,1.35-1.32,2.32-1.67l1.84,1.69.6-.69Z"/>
      <path d="M30.48.43l3.27,1.48c.48-.4.11-1.4-.48-1.65-.95-.4-2.05-.33-2.79.17Z"/>
      <path d="M9.81,1.69l2.76-1.21c-.95-.86-2.74-.45-3.39.41-.12.16-.19.68-.17.86.03.18.58.04.8-.06Z"/>
      <path d="M20.01,38.88c1.16.54,1.76.71,2.94-.11l-1.53-1.38-1.41,1.49Z"/>
    </g>
  </g>
</svg>