<?xml version="1.0" encoding="UTF-8"?>
<svg id="Warstwa_2" data-name="Warstwa 2" xmlns="http://www.w3.org/2000/svg" viewBox="0 0 43.57 43.93">
  <g id="game-icon-v7-magic-pixarts-store">
    <g id="game-icon-v7-magic-pixarts-store_04">
      <path d="M0,21.99c-.01,1.68,1.2,2.9,2.49,3.4,1.54.6,2.9.14,4.17-1.02,1.16,6.89,6.2,11.53,12.7,12.97-1.74,1.91-1.6,4.11-.06,5.59,1.42,1.38,3.67,1.34,5.12-.23,1.32-1.42,1.45-3.69-.25-5.34,6.56-1.46,11.48-6.14,12.71-12.94,1.68,1.63,3.91,1.61,5.47.21,1.64-1.48,1.57-3.89.03-5.36-1.48-1.4-3.81-1.35-5.42.32-1.45-6.72-6.03-11.62-12.79-12.89,1.8-1.98,1.59-4.22.14-5.68-1.54-1.55-4.03-1.27-5.32.28-1.38,1.66-1.13,3.8.51,5.42-6.78,1.25-11.53,6.13-12.83,12.67-1.39-1.09-2.96-1.45-4.46-.76C1.02,19.19.01,20.47,0,21.99ZM39.81,19.11c1.57,0,2.85,1.28,2.85,2.85s-1.28,2.85-2.85,2.85-2.85-1.28-2.85-2.85,1.28-2.85,2.85-2.85ZM9.76,29.82l7.77-.07,3.88,6.68c-4.8-.03-9.05-2.54-11.65-6.61ZM25.45,15.2l7.24,13.61-6.29.12,2.65-4.81c.24-.44.31-1.09-.09-1.69l-7.17,12.75-3.11-5.21c2.03-.73,3.97.52,6.08-.78l-6.52-.24-3.88-6.82,4.41-7.84,3.05-5.4,3.12,5.38c-2.42.53-4.22-.8-6.29.81l6.8.11ZM26.49,15.24l6.22.07-3.01,5.76-3.21-5.83ZM13.8,21.25l-2.95-5.96,6.22-.02-3.28,5.98ZM13.89,23.12l3.32,5.8-6.23-.06,2.91-5.74ZM24.54,40.22c0,1.53-1.24,2.76-2.76,2.76s-2.76-1.24-2.76-2.76,1.24-2.76,2.76-2.76,2.76,1.24,2.76,2.76ZM22.12,36.47l3.73-6.65h7.86c-2.69,4.24-6.83,6.44-11.59,6.65ZM34.04,29.28l-3.9-7.4,4.01-7.04c2.59,4.62,2.54,9.88-.12,14.44ZM33.77,14.33l-7.75.08-3.75-6.78c4.98.15,8.96,2.49,11.5,6.7ZM19.02,3.76c0-1.53,1.24-2.78,2.78-2.78s2.78,1.24,2.78,2.78-1.24,2.78-2.78,2.78-2.78-1.24-2.78-2.78ZM21.4,7.71l-3.72,6.68-7.87-.06c2.47-4.07,6.58-6.64,11.59-6.62ZM9.42,14.85l3.97,7.25-3.86,7.24c-2.81-4.6-2.65-9.91-.11-14.49ZM3.78,19.15c1.55,0,2.81,1.26,2.81,2.81s-1.26,2.81-2.81,2.81-2.81-1.26-2.81-2.81,1.26-2.81,2.81-2.81Z"/>
      <path d="M42.2,17.88c-1.62-8.54-8.03-14.75-16.34-16.49.23.71.71,1.21,1.27,1.37,6.97,2.02,12.18,7.3,13.9,14.36.11.47.72.85,1.18.75Z"/>
      <path d="M26.07,42.6c8.34-1.96,14.7-8.26,16.2-16.65-.36-.12-1.15.43-1.27.94-1.67,7.15-7.06,12.42-14.09,14.49-.58.11-1.16.53-.84,1.22Z"/>
      <path d="M16.79,41.35c-6.95-1.85-12.22-7.14-14.13-14.06-.18-.64-.64-1.21-1.33-1.4,1.46,8.37,7.81,14.85,16.23,16.63.09-.4-.32-1.06-.77-1.18Z"/>
      <path d="M17.47,1.41C9.25,3.12,2.91,9.61,1.33,17.89c.69.17,1.11-.33,1.3-1.04,1.86-7.04,6.97-12.18,13.84-14.14.58-.17,1.05-.5,1-1.3Z"/>
      <path d="M33.49,34.18c-.12.21-.63.24-1.15.36l.32.5c.41.04.82.02.8.16l-.08.98,1.68-.56c-.61-1.09-.76-1.46-1.06-2.39l-.52.94Z"/>
      <polygon points="11.37 9.27 9.68 8.09 8.52 8.6 9.66 10.66 11.37 9.27"/>
      <path d="M14.28,7.12l-2.07-.62.67-1.11c-.67.27-1.45.9-1.53,1.22.55.82.73,1.16,1.08,2.12l1.86-1.61Z"/>
      <path d="M8.58,12.28c.28-.27.22-1.15-.08-1.19l-.28.82c-.03.09-.42.24-.43.14l-.03-.53-.04-.88c0-.16-.6-.42-.67-.4l-.93,1.27,1.53,1.53s.67-.49.94-.75Z"/>
      <path d="M9.03,32.31l-1.98-.14.17-1-1.37.63,1.15,1.69c.86.11,1.96-.48,2.03-1.18Z"/>
      <path d="M11.15,34.67l-.97-.99-1.97,1.29c.84,1.26,2.28.79,2.94-.3Z"/>
      <path d="M36.83,29.18l1.63,1.37c-.06-.84-.19-1.24.01-1.32l1.02-.42-2.39-1.35.36,1.13c.07.21-.53.49-.64.59Z"/>
      <path d="M28.46,4.27c-.74.28-1.63,1.07-1.76,1.76l1.39.51,1.47-1.16-.93-.41c-.13-.06-.09-.27-.17-.7Z"/>
      <path d="M37.59,16.05l1.82-.57-1.13-.87.48-1.07-2.14,1.12c-.04.09.19.73.38.68l.86-.22c.09-.02.23.03.18.12l-.46.81Z"/>
      <path d="M4.78,30.21l2.55-.98c-.68-.14-1.24-.24-1.61-.33-.1-.03-.11-.51-.02-.46l.36.18c.15.07.25.15.33.08.09-.07.25-.24.31-.33.23-.33-1.1-.87-2.57.18l.93.44c.13.06.24.28.17.4l-.44.82Z"/>
      <path d="M15.84,37.71l-.31.74-.47-1.08-.96,1.4c.44.11.76.13.85.29l.48.8c.39-.99,1.78-2.31.63-2.38-.1,0-.18.13-.22.23Z"/>
      <path d="M35.42,32.25l-.81.37c.88.39,1.21.6,1.97,1.19l-.04-1.21c.64.01.87.07.89-.05.01-.09.03-.38.03-.39,0-.01-.34-.06-.47-.08l-.85-.14c-.14-.02-.18-.35-.33-.84l-.49.11c.1.47.3.95.11,1.04Z"/>
      <path d="M5.89,15.36l1.01-.22-1.54-1.69.04,1.43-.66-.48c-.1-.07-.33.31-.42.41-.11.13.1.49.27.48,1.39-.09.28.42,1.54,1.25-.07-.6-.44-1.12-.25-1.17Z"/>
      <path d="M28.32,39.24l.78.25-.99-2.38-.41,1.11-1-.28,1.04,1.89c.16-.21.4-.65.58-.6Z"/>
      <path d="M18.03,17.68l.33,3.02.72-.96,1.93,1.92-3.42,3.01c.74,1.41,2.02,1.91,3.39,2.62.24.12.72.77.94.6,2.62-1.99,2.13-.78,4.03-3.05l-3.45-3.11,1.97-1.89.85.64.02-2.62-2.97,2.93-.06-2.83,1.68.19-2.14-2.02-1.91,1.71,1.41.42-.22,2.55-3.1-3.13ZM22.34,22.66l2.57,2.19c-.65.84-1.35,1.23-2.64,1.63l.07-3.82ZM21.29,26.51c-1.16-.23-1.9-.67-2.75-1.67l2.69-2.19.05,3.86Z"/>
      <path d="M33.53,22.54c-.42.12-1.13.33-.99.5.14.19.42.74.62.65l.65-.29c.76-.34,1.07-1.74.52-2.33-.39-.42-1.43-.69-1.7-.29l1.25.84c.2.13-.11.86-.34.92Z"/>
      <path d="M10.91,20.74c-.12-.53-1.63.04-1.85.52-.23.5-.29,1.47.03,1.81.41.43,1.22.72,1.94.84l-.13-3.17Z"/>
      <path d="M28,33.91s.18-.31.18-.31c-.02,0-.16-.24-.29-.42l-.49-.69,1-.43c.13-.05-.08-.69-.15-.89-.19-.55-1.78.05-1.9.8-.25,1.48,1.65,1.92,1.65,1.94Z"/>
      <path d="M17.57,10.98l-1.78-.7c-.42.23-.97,1.11-1.15,1.8l1.16-.99c-.02.46-.05.83-.26.97l-1.25.86,1.75-.27c.44-.07,1.23.01,1.23-.27l.02-1.03-.62,1.02c-.05-.02-.27-.87-.03-.97l.92-.43Z"/>
      <path d="M15.91,31.06c-.4-.28-1.33.13-1.93.7l1.53,1.47.95-.8.29.81c.05.15.83-.1.76-.24l-.29-.56c-.22-.42-.86-1.07-1.3-1.39Z"/>
      <path d="M27.86,12.95c.67.03,1.41-.34,1.65-1.26l-2.02-1.44c-.14-.1-.88.08-.87.25l.03.79c.03.96.3,1.62,1.21,1.66Z"/>
      <path d="M2.65,23.27c.73.62,2.29.26,2.33-.11.22-1.79-.75-.39-.22-2.94l-1.36.14.2,1.15c.04.23-.61.47-.87.61l.23.52c.04.1-.39.55-.3.62Z"/>
      <path d="M39.02,23.6c.5.02,1.57-.28,1.69-.49-.29-.69-.54-1.01-.46-1.19l.5-1.07c.2-.42-1.2-.66-1.69-.47-.43.17-.85.97-.85,1.61,0,.6.37,1.58.81,1.6Z"/>
      <path d="M22.74,2.49c-.4-.44-1.85-.14-1.99.2l-.06,2.84,1.98-.81c.52-.21.46-1.79.07-2.22Z"/>
      <path d="M13.51,27.16l-.11.58c-.04.21,1.41.17,1.4-.04l-.04-.66c-.03-.58-.24-1.69-1.05-1.59-.55.07-.53,1.35-.2,1.71Z"/>
    </g>
  </g>
</svg>