<?xml version="1.0" encoding="UTF-8"?>
<svg id="Warstwa_2" data-name="Warstwa 2" xmlns="http://www.w3.org/2000/svg" viewBox="0 0 32.22 37.48">
  <g id="game-icon-v7-magic-pixarts-store">
    <g id="game-icon-v7-magic-pixarts-store_109">
      <path d="M28.84,20.32l.06,11.07c-1.76-.08-7.86,1.03-7.74-1.05,0-.17-.66,1.12-.83,1.12l-11.56.1-1.25-2.16-.7,1.78c-.19.49-1.77.23-2.83.21V.08s2.76.19,2.76.19l.85,2.63,1.1-2.9,12.71.04,7.59.09v12.26c-2.39-.26-4.07-.35-5.34,1.37-1.03,1.39-1.46,2.78-.51,4.45,1.07,1.88,2.11,2.67,5.69,2.1ZM17.86,9.95c.51-.74-.24-2.09-.61-3.02-.27-.66-.26-2.24-.85-2.46-1.37-.52-3.98-.61-4.64.21-.34.42-.28,1.75-.54,2.26-.59,1.19-1.32,2.38-.14,3.66.53.58.44,2.42-.27,2.8-3.45,1.86-4.94,5.38-3.93,8.88.99,3.45,4.17,5.69,8.03,5.45,3.66-.23,6.24-2.94,6.84-6.13,1.56-8.29-7.28-6.8-3.89-11.65Z"/>
      <path d="M27.31,37.41l-11.58-.05-12.07.12c-1.8.02-3.46-1.42-3.53-3.48-.02-.53-.63-10.5,1.07-9.56.23.13-.66-.38-1.09-.62-.33-3.7.38-5.84.13-8.93C-.04,11.3.01,7.72,0,4.04,0,2.1,1.11.3,3.1.14l-.03,31.22c-.7.71-1.46,1.82-1.52,2.51-.05.7.78,2.52,1.52,2.52l26.8.02.37-15.79.79.84-.05,15.35c-.82.55-2.32.61-3.69.61Z"/>
      <path d="M32.21,19.74c-4.04-1.2-7.19.91-8.36-2.54-.39-1.15.54-3.6,2.22-3.68,2.08-.1,3.81.06,6.15.25v5.97ZM28.22,16.32c0-.85-.69-1.54-1.54-1.54s-1.54.69-1.54,1.54.69,1.54,1.54,1.54,1.54-.69,1.54-1.54Z"/>
      <rect x="5.04" y="33.29" width="22.48" height=".44"/>
      <rect x="8.1" y="34.6" width="19.87" height=".44"/>
      <rect x="30.15" y="2.73" width=".87" height="9.61"/>
      <path d="M16.49,13.97c2.95,1.39,4.68,4.23,4.15,7.3-.49,2.85-2.71,5.08-5.65,5.39-3.04.32-5.76-1.47-6.79-4.04-1.24-3.09-.04-6.34,2.87-8.03,1.35-.78,1.72-1.75,1.59-3.78l3.16.09c.1.83.28,2.34.66,3.06ZM18.88,17.27c-1.62-2.41-2.76.27-6.14-.62-1.64-.43-3.1.06-3.74,1.66-.98,2.46.12,5.22,2.19,6.55,2.25,1.44,4.75,1.18,6.69-.6,1.86-1.71,2.68-4.49,1.01-6.99Z"/>
      <path d="M16.98,8.7c1.46,1.91-6.31,1.63-5.85-.02,1.9-.45,4.02-.57,5.85.02Z"/>
      <path d="M15.87,5.87c.37.69-.7,1.63-1.31,1.66-.9.04-2.48-.5-1.95-1.75.36-.85,2.71-.94,3.26.1Z"/>
      <path d="M10.03,18.59c5.35,1.04,3.21,1.51,8.4.11.98,2.04-.09,4.26-1.58,5.44-1.66,1.31-3.95,1.09-5.5-.22-1.5-1.27-2.52-3.57-1.32-5.33Z"/>
    </g>
  </g>
</svg>