<?xml version="1.0" encoding="UTF-8"?>
<svg id="Warstwa_2" data-name="Warstwa 2" xmlns="http://www.w3.org/2000/svg" viewBox="0 0 46.97 46.13">
  <g id="game-icon-v7-magic-pixarts-store">
    <g id="game-icon-v7-magic-pixarts-store_79">
      <path d="M20.19,3.56c-6.92,3.59-13.21,7.51-17.92,13.84l5.21-.86c-.91.89-2.27,1.61-3.46,1.71-6.65.57-3.3,10.75-2.08,14.84,2.34-3.77.76-6.08,2.23-8.91.43,3.66-.21,6.95-1.08,10.51-.63,2.57,9.1,8.28,11.31,9.5,3.26,1.8,6.93,2.47,10.52,1.47l.2-4.19-1.24-.09,4.07-3.38c3.79-3.15,6.17-6.64,9.15-10.95-.82,2.19-1.8,4.48-3.39,6.2l-7,7.58c-.85.92-.52,2.89-.28,4.19,6-2.79,12.02-11.74,15.03-17.58l4.41-8.56c.51-.99,1.24-2.86,1.11-3.9-.42-3.59-1.32-6.7-2.83-10.21-3.32,2-.54,5.98-1.55,9.41l-1.23-6.39c-2.23-.86-4.32-1.4-6.26-3.31l6.16,2.48,1.77-3.02C40.93,1.46,32.4-.07,29.28,0c-1.85.04-5.12,1.17-6.4,2.51-1.81,1.89-3.3,3.83-4.86,5.79-4.45,5.61-3.63,2.13-9.34,7.89,3.1-6.41,7.47-3.26,11.5-12.64ZM18.66,41.98c-4.59-2.45-5.07-.96-8.48-4.78,3.3,1.59,7.83,3.79,11.7,4.76-.78.62-2.11.61-3.22.02ZM28,34.81c-1.75,1.58-3.81,2.83-6.44,2.66l6.44-2.66ZM25.74,18.34c1.58-.97,1.93-2.16,2.34-3.9,1.06-.67,2.94-1.13,4.57-1.39-.24,1.5-.65,3.16-1.13,4.52-1.83.41-3.15.86-4.16,2.39l2.08,3.73c2.6-1.46,5.2-3.07,7.77-1.07-3.64,1.13-6.52,2.64-9.27,5.28-.59-2.35-.9-3.82-1.99-6.22-1.23.96-2.05,1.73-3.07,2.75l2.5,2.11c-1.18.02-2.48-.27-3.57-.41-.98-.13-2.37,1.79-2.99,2.57l3.48,1.08c-1.9.77-3.56.7-5.55,1.25-1.04.29-1.98.58-2.87.55.95-2.42,1.36-3.93,1.28-6.28-.04-1.24.39-3.13,1.94-3.28,1.22-.12,2.46.54,3.83,1.11l3.1-2.99c-1.46-2.27-7.44-1.26-5.46-3.28,2.33-2.37,3.29-5.28,4.59-8.51,1.68,2.78.43,5.42-1.13,7.88l3.74,2.1ZM32.37,3.66l-6,.63c1.75-1.41,4.15-1.7,6-.63Z"/>
      <path d="M18.94,24.2c-.5-.24-1.32-.57-1.7-.38-.6.29-.15,2.84.2,2.6l.97-.67c.5-.35,1.02-1.32.53-1.55Z"/>
    </g>
  </g>
</svg>