<?xml version="1.0" encoding="UTF-8"?>
<svg id="Warstwa_2" data-name="Warstwa 2" xmlns="http://www.w3.org/2000/svg" viewBox="0 0 41.23 39.18">
  <g id="game-icon-v7-magic-pixarts-store">
    <g id="game-icon-v7-magic-pixarts-store_38">
      <path d="M36.95,29.5c-1.01-1.94-.45-3.64.9-5.6-3.37,1.17-6.53,1.9-9.93,2.19l-6.48-6.92c-1.15-1.23-1.67-3.01-1.6-4.69.17-4.56.78-8.93,1.61-13.39-2.47,2.25-5.05,3.67-8.07,4.66C4.61,8.63-1.3,17.14.24,26.74c1.5-3.38,4.14-5.55,7.69-5.72l-2.88,1.38c-2.03.98-4.24,3.25-4.06,5.7.23,3.17,2.65,5.57,5.36,7.17,15.17,8.98,33.82.48,30.58-5.78ZM35.52,25.52c-1.78,3.35,2.47,5.28-.33,8.14.31-1.28.68-2.89-.09-3.91-1.24-1.65-3.23-2.15-5-2.74l5.42-1.49ZM24.53,24.68c-6.54-2.99-7.25-3.94-14.69-3.59,2.88-1.4,6.54.88,9.58-2.57l5.11,6.16ZM3.77,20.73c-1.82.66-2.7-9.32,9.92-13.89,2.16-.78,4.1-1.75,6.17-3.12l-.73,3.91c-.61,3.24-.69,6.33-.63,9.64-2.56,3.39-5.83.24-14.72,3.46ZM28.68,36.95c-7.51,2.46-19.15,1.22-24.52-5.19-2.22-2.65-1.7-6.07,1.04-7.84,5.94-3.83,16.15-.9,21.02,3.88l4.67.54c.88.1,2.25,1.11,2.69,1.94,1.38,2.58-1.76,5.64-4.9,6.67Z"/>
      <path d="M39.87,7.14l-7.1-7.14-9.04.93c-.87.09-1.62.53-1.72,1.49l-.44,4.29c-1.06,10.23-3.17,8.74,7.13,18.69,3.6-.78,9.93-1.03,10.42-4.78l1.48-11.35c.07-.54-.33-1.74-.73-2.13ZM28.1,24.26l-.61-.62c-2.43-2.45-5.52-4.98-6.18-8.62,1.51,3.01,4.54,6.65,7.09,8.85-.12.23-.23.46-.3.39ZM35.92,21.72c-1.86.6-4.02,1.49-6.21,1.28-1.65-.16-6.81-6.31-6.93-7.8-.26-3.22.48-6.24.78-9.42.11-1.19.33-2.75,1.1-3.5l7.93-.95,6.83,7.08-1.18,10.06c-.17,1.41-.78,2.75-2.33,3.24Z"/>
      <path d="M40.72,15l-.85,7.88c1.29,1.54,1.85-9.09.85-7.88Z"/>
      <path d="M39.47,27.29c1.13-1.33,1.02-2.55,1.16-4.3l-1.09.97c-.83.7-1.54,1.36-2.14,2.16l2.17-.88-.1,2.06Z"/>
      <path d="M28.09,35l-2.85.15,4.92-2.26-4.74,1.21,4.28-2.16-4.84,1.2c1.34-1.16,4.06-1.36,4.95-2.93-7.84,3.98-17.92,3.16-24.53-3.68l1.89,2.99-2.4-2.01,2.49,3.71-2.53-1.8,3.37,3.78-3.07-2.17c4.31,6.58,17.64,8.02,24.18,4.59l-5.37.8,4.25-1.42Z"/>
      <path d="M16.99,14.53c-.48-1.51-2-1.85-3.27-1.96,1.97-.45,3.75-1.75,3.8-3.19.02-.42-.55-1.29-.94-1.61-.84-.68-2-.64-2.74.03-.56.51-.79,1.91,0,2.32l.62-1.61c.13-.33,1.08-.06,1.27.24.16.25.15.98-.03,1.23-1.53,2.07-4.21,1.61-6.84,2.96.74-.8,1.57-1.95,2.15-3.04-.57-.22-1.17-.31-1.26-.08-1.38,3.81-4.85,4.96-5.92,8.12,1.47-1.21,3.05-2.42,4.78-2.01.3.07.69.73.6.98-.13.34-.33.75-.59.69l-1.06-.27c-.06.3.23,1.13.49,1.08l1.39-.25c.45-.08,1.17-.61,1.35-.97.18-.36-.18-1.42-.53-1.66-1.09-.74-2.26-.58-3.4-.34,1.96-1.8,8.1-2.86,8.51-.16.06.39-.37,1.14-.72,1.32-.21.11-1.16.17-1.13-.06l.15-1.29c-.33.06-1.14.57-1.23,1.03-.08.39.5,1.43.89,1.59.86.36,2.11.05,2.68-.52.58-.57,1.21-1.79.97-2.58Z"/>
      <path d="M34.71,13.6l-.8-2.64c.89-.31,2.34-.46,3.48-.54.35-.44.55-1.72.43-2.32-.97,1.05-1.54,1.54-2.76,1.66-.6.06-2.04.81-1.96,1.43.07.6.24,1.25.45,2.25-1.56-1.02-2.15-5.91.06-6.66.28-.02.78.04.75-.13l-.07-.43c-.08-.45-1.57-.26-1.66-.61l-.29-1.17c-.23.08-1.05.6-1.3.81-.35-.25-1.15-.61-1.51-.39,2.99,2.49.65,8.35-1.41,7.96.86-1.3,1.99-2.27,1.92-3.15-.11-1.45-.89-2.35-2.06-3.11l-.62-2.67-1.67-.05c-1.47,4.17,3.81,2.66,3.49,6.85-.39-1.74-1.79-2.8-3.52-2.72.13,2.02-.24,3.51-1.13,5.15-.12,2.55,3.54,5.31,5.1,8.75,3.59-2.74,7.52-1.45,7.05-6.31-.82-.05-1.74-.21-2.04.07-.26.25-.51.93-.55,1.21-.23-.02-.9-.15-1.06.04l-.61.73,2.92.35c-1.55,1.26-1.83-1.23-5.1,1.15l-1.1-2.35c-.59-1.26-1.74-1.99-3.08-2.64-.3-.71.03-2.35.74-2.93.63-.2.39,1.14.58,1.46l3.25,5.31,3.45-3.12,1.94.31c.37-.79.82-2.19.91-2.98.04-.34-.71-1.01-1.03-.95-1.11.21-.28,2.27-1.19,2.38ZM29.44,19.29l-4-5c1.86,1.04,3.48,2.54,4,5Z"/>
    </g>
  </g>
</svg>