<?xml version="1.0" encoding="UTF-8"?>
<svg id="Warstwa_2" data-name="Warstwa 2" xmlns="http://www.w3.org/2000/svg" viewBox="0 0 36.1 48.01">
  <g id="game-icon-v7-magic-pixarts-store">
    <g id="game-icon-v7-magic-pixarts-store_112">
      <path d="M32.59,32.96c.07.04-.44-.25-.61-.35.89.53-4.14,3.34-5.34,5.01-1.65.45-4.6.31-6.34.22v-3.57s-1.77,3.66-1.77,3.66l-13.35.05.16-18.37L5.26.03l13.64-.03,1.01,4.33c.65-1.16,1.21-3.93,2.37-3.99l4.64-.23c3-.15,5.54-.09,9.1,0l.08,26.62c.01,3.31-2.85,2.41-3.5,6.23ZM34.33,8.66c.12-2.55.02-4.71-.22-6.65l-6.68-.44c.5.73,2.49,1.47,3.23,2.08.53.43,1.5,1.4,1.96,1.91l1.7,3.1ZM7.05,9.06c1.61-3.52,2.78-5.46,6.2-7.12l-6.38.13.18,6.99ZM24.37,24.39l-.99-1.48c-.15-.22.67-.71,1.02-.84l7.68-2.94-9.1-3.79-4.69.15c2.04-5.36,4.75,1.16,7.17-2.82l-2.42.58c.18-.27,1.05-1.15,1.54-1.5.87-.63,3.01,1.63,2.91,1.97l-.43,1.47c.86.23,1.88-1.65,1.37-2.57-1.31-2.32-4.12-2.09-5.87-.58l-2.11-4.93-2.43,6.14-2.05.05,1.91,2.06-3.38,1.43-5.85,2.27c2.57,1.16,4.39,1.77,6.62,2.39,2.33.64,2.32,1.95,3.01,3.76l2.22,5.87,1.95-4.49,2.8-.37-2.55-.75c-.04-.19.13-1.06.42-1.06l1.28-.02ZM15.37,25.67l1.24-1.71-3.2.11.13-2.53c-.53.43-1.43,1.81-1.21,2.39.06.17,2.78,3.28,3.06,3.13l1.93-1.05-1.95-.33ZM10.34,34.12c-.15-.29-.42-1.09-.66-1.24l-.95-.61-1.58-2.54-.07,6.23,6.19-.08-2.93-1.76Z"/>
      <path d="M.76,43.11c-1.28-2.93-.62-6.55-.36-9.54l3.25-2.32c-1.04-.49-1.84.02-3.54.86l.1-21.82c0-.97,1.95-2.2,2.71-3.22-.61.07-1.43.39-2.59.9C-.18,5.76-.36.33,4.02.03l.33,18.09-.4,19.72c-.64.75-1.75,1.92-1.98,2.65-.26.82.63,2.81,1.5,2.97l4.43.84c-1.78,1.72-6.05,1.3-7.14-1.19Z"/>
      <path d="M14.42,44.57c6.74-1.63,13.29-.25,19.76-.76-.21-1.73-.13-3.35.67-4.37l1.14,5.71c-7.22-.2-14.18.54-21.57-.58Z"/>
      <path d="M27.56,38c.81-3.39,4.76-.98,6.43-2.26,1.52-1.18-1.34-4.59,2.02-5.55l-.04,7.66-8.41.15Z"/>
      <polygon points="13.74 48.01 11.21 46.25 8.98 47.9 8.98 41.54 13.73 41.5 13.74 48.01"/>
      <path d="M31.36,40.7c-10.08-1.64-14.51.69-24.42-.2.92-.3,2.66-.86,3.62-.87l21.29-.04c1.33.25.86.93-.48,1.1Z"/>
      <rect x="15.43" y="41.65" width="17.16" height=".51"/>
      <path d="M26.27,18.49c-2.86,3.5-8.5,3.68-10.9-.17,3.59-1.76,7.1-1.66,10.9.17Z"/>
      <path d="M21.68,22.95c.46.05.14,1.6-.18,1.96-.39.43-1.85.92-1.97.35-.13-.6-.26-1.85-.29-2.29s1.76-.08,2.43-.02Z"/>
    </g>
  </g>
</svg>