<?xml version="1.0" encoding="UTF-8"?>
<svg id="Warstwa_2" data-name="Warstwa 2" xmlns="http://www.w3.org/2000/svg" viewBox="0 0 38.28 39.67">
  <g id="game-icon-v7-magic-pixarts-store">
    <g id="game-icon-v7-magic-pixarts-store_102">
      <path d="M14.56,15.78l1.16,6.41-2.32-6.89c-.73-2.17-3.01-3.79-4.77-5.28l-1.29,5.69,3.51,7.9,1.96,4c-2.61-1.82-3.32-6.88-6.17-10.55-1-1.29-3.13-1.79-4.87-2.48,2.85,5.78,5.44,11.2,8.77,16.48,1.36,1.6,3.61,2.53,5.39,3.7.21-1.37-3.91-5.09-4.7-5.95,2.08.83,3.13,2.38,4.52,4.4,2.03-7.06.55-4.59.08-10.49l1.45,4.49c.25.78,1.28,1.47,2.1,1.06l-1.2-5.47-2.74-12.63c-.72,1.7-1.2,3.76-.87,5.59Z"/>
      <path d="M33.24,10.53l.14,3.53,2.15-.57.05-4.21c.04-2.87.19-5.46.12-8.19-1.01,2.06-1.72,3.65-2.49,5.63-.4,1.02-.02,2.7.03,3.82Z"/>
      <path d="M32.39,7.63c-1.02.42-1.9,1.06-2.23,1.93-3.05,8.13-5.34,7.13-6.24,17.16l2.66-2.08c1.44-.25,2.7-1.11,3.27-2.46l.95-.41,4.76-7.72c-2.95,0-2.78,3.07-4.74,5.06,2.38-7.53,2.62-1.58,1.58-11.47Z"/>
      <path d="M4.51.72c-1.25,4.4-2.22,8.23-3.19,12.52,1.8,1.06,3.28,1.91,5.43,2.89,1.84-8.75,1.2-7.54-2.24-15.41Z"/>
      <path d="M25.07,35.36c1.55-1.78,4.66-2.31,5.29-5.41-.59-.48-2.44-.98-3.07-.42-5.09,4.55-3.61,2.11-6.9,10.13,1.47-.55,2.59-1.03,3.83-1.88.38-.26,1.37-.2,1.79-.4,2.08-1,4.51-2.57,6.77-3.95-2.89-2.55-4.8,1.18-7.72,1.92Z"/>
      <path d="M13.69,14.18l1.15-5.52C11.7,5.92,8.85,3.45,5.47,1c2.19,6.04,3.49,9.11,8.22,13.18Z"/>
      <path d="M24.28,17.86l.56,1.31,5.2-10.52c-.58-1.17-1.19-2.18-2.07-3.33l-3.46,8.72-2.74,6.48c1.65.07,2.4-1.24,2.52-2.66Z"/>
      <path d="M32.83,5.64L35.38.11l-6.94,4.66,2.17,3.25c1.02-.73,1.79-1.42,2.23-2.37Z"/>
      <path d="M9.8,35.58c-.81-1.51-2.35-3.35-3.93-4.23-.67-.37-2.15-.25-3-.27,1.14,4.05,1.96,3.91,6.12,5.26.25.08.92-.55.81-.76Z"/>
      <path d="M20.72,5.54c-2.27,2.07-.68,5-.22,7.46.82-2.81,2.17-5.8.22-7.46Z"/>
      <path d="M16.42,32.97c-.13.57.61,1.71,1.11,2.07l1.85-5.75-1.95-.6-1.01,4.29Z"/>
      <path d="M33.4,32.69l.53-4.91c-1.69,1.17-2.7,2.32-3.62,4.06l3.09.85Z"/>
      <path d="M.97,26.17c.85.31,1.89.59,2.91.86-.38-2.05-1.71-3.45-3.88-3.4-.01.56.3,2.3.97,2.55Z"/>
      <path d="M23.14,25.97c.72-2.44.97-3.92,1.28-6.11l-2.57,1.62,1.29,4.49Z"/>
      <path d="M37.72,22.99c.48-.24.6-1.62.55-2.05-1.78-.53-3.41,1.71-3.78,3.07,1.07-.2,2.35-.57,3.23-1.02Z"/>
      <path d="M28.28,28.87c2.55.93,3.05.74,4.55-1.21-1.67.3-2.94.64-4.55,1.21Z"/>
      <path d="M15,3.08c.5-1.33.32-2.27-.48-3.08-.38.38-.9,1.35-.62,1.71l1.1,1.38Z"/>
    </g>
  </g>
</svg>