<?xml version="1.0" encoding="UTF-8"?>
<svg id="Warstwa_2" data-name="Warstwa 2" xmlns="http://www.w3.org/2000/svg" viewBox="0 0 21.45 42.72">
  <g id="game-icon-v7-magic-pixarts-store">
    <g id="game-icon-v7-magic-pixarts-store_31">
      <path d="M4.54,25.83c-1.24,3.1-5.64,3.13-4.21,7.32l1.65-2.91c-.88,4.82-1.84,1.45-1.92,7.6-.02,1.54.24,3,1.53,3.85-.05-2.52-.57-4.68.37-6.92.3.97-.77,7.91,1.31,7.46-.24-1.94-.42-3.65-.17-5.53l.46-3.5v6.42c.01,1.11.34,2.65,1.53,2.97.46-.37.88-2,.34-2.21l-1.58-.61,1.15-1.59-.13,1.01c-.03.22.68.59.81.42.31-.41.29-1.56.07-1.81-.33-.03-.78,0-.7-.11l.48-.7c2.02,1.99-1.3,5.83,1.78,5.59.12-2.17-.37-4.2-.73-6.51,1.12,2.01,1.3,3.98,1.39,6.47l2.2-.05-.04-2.04.31,1.94c.51.18,1.74.26,2.07-.1.31-1.56.63-3.14,1.13-4.46l-.49,4.81.79-1.85-.02,1.96c1.02-.31.77-4.82,1.35-6.07l.71,2.39c.11.37.5,1.05.79.98,1.68-.43.43-5.2,1.17-7.39.45,3.16.47,6.24.21,9.64,1.93.08,1.04-6.29,1.25-7.64.71,2.41.56,4.83-.11,7.41,1.75-.63,1.9-2.17,2.03-3.61.26-2.79-1.75-3.8-1.24-8.23l1.07,4.55c.18-1.89.17-3.45.02-5.06-1.81-1-3.59-2.02-4.25-3.88-1.52-4.24,5.14-5.72,4.26-10.23l-1.27,2.04c.96-2.93,2.19-5.72.72-8.88-.64,1.11-.72,2.33-.95,3.66l-.52-4.5c-.04-.35-1.02-.53-1.23-.41,1.66,6.44-3.07,6.47-2.29,9.16.19.66.84,1.6,1.43,1.78,1.84-.98,2.36-2.82,2.6-4.91.76,4.97-2.09,5.36-4.51,8.9-1.13-2,1.78-2.4.21-4.06-1.32-1.39-1.28-3.48.24-4.75,3.64-3.05,1.25-7.71.7-6.31-.51,1.3.5,1.93-.59,3.85l-.19-3.31c0-.13-.41-.53-.45-.41l-.29.83c-.17-.9-1.86-1.38-2.55-.52-1.22,1.52,1.82,4.09-.67,5.26-.64.3-1.53.13-2.04-.28-1.84-1.46.67-2.87-.49-5.11-.16-.31-1.39-.19-1.43.17l-.35,4.02-.29-4.17c-.01-.18-.91-.07-.94.1-.15.94-.26,2.67-.28,3.78-.53-1.11-.69-2.6-.49-3.98l-.77-.25c-.58-.18-1.66,3.84,1.47,6.52,1.39,1.19,1.21,3.23.14,4.52-1.56,1.88,1.39,1.92.21,4.2-2.35-3.5-5.44-4.43-4.72-9.01.52,2.23,1.01,4.09,2.95,5,.63-.48,1.28-1.48,1.35-2.26.2-2.44-3.69-2.16-2.49-8.6.05-.35-1.23,0-1.26.35l-.39,4.42-.45-4.15C.2,9.27.12,10.69.03,12.1c-.22,3.33,1.11,7.29,3.3,9.57,1.01,1.05,1.8,2.69,1.21,4.16ZM10.73,39.84c-.6-2.88-3.06-3.42-1.68-5.23l1.68-2.19,2.27,3.25c-1.02,1.59-1.72,2.82-2.27,4.18ZM15.65,27.23l2.24,3.08-2,2.27-2.04-1.83c-.32.32-.64.82-.49,1.01l.73.88.64.77c.18.21-.75.88-.93.66l-2.11-2.68,3.96-4.15ZM14.07,12.75l-.85,2.8c-.37,1.21.5,2.59.82,4.03-1.95-1.83-1.95-4.62.02-6.84ZM8.61,14.9c.72,1.46.02,3.41-1.07,4.38,1.73-5.34-.38-4.12-.32-7.2l1.39,2.82ZM7.5,22.25c1.46-1.97,2.56-4.09,3.17-6.45,1.16,5.14,6.29,7.72,3.17,11.15l-3.14,3.45-3.17-3.62c-1.25-1.43-1.14-3.02-.03-4.53ZM9.77,31.35l-2.28,2.82c-.28-.22-.78-.66-.66-.82l.75-.98c.27-.35.48-.64.6-.81.12-.17-.25-.55-.43-.66s-.68.19-.83.34l-1.24,1.3-2.19-2.26,2.25-2.97,4.03,4.03Z"/>
      <path d="M.28,29.21l2.19-1.8c1.58-1.3,2-3.5.57-5.16-1.14-1.31-1.77-2.59-2.85-4.49l-.15,3.3,1.82,1.29c.68.48,1.1,1.69,1.01,2.61-.21,2.17-3.74,1.97-2.58,4.24Z"/>
      <path d="M18.05,26.36c.74,1.11,1.83,1.81,3.12,2.53l.1-1.25c.04-.52-2.57-.72-2.76-2.98-.27-3.16,3.96-1.99,2.71-5.88-1.07,2.09-5.22,4.51-3.17,7.58Z"/>
      <path d="M10.97,11.05c.19-.83.3-1.6.35-2.49l.22-4-1.76.04.23,5.37c.01.33.56.9.97,1.08Z"/>
      <path d="M5.19.64c-.11-.21-.6-.42-.77-.46-.17-.04-.17.57-.08.74,2.25,4.5,5.07,5.55,4.75,4.73-.6-1.52-1.92-1.2-3.89-5.01Z"/>
      <path d="M16.82.15c-1.42,1.27-1.76,3.01-4.83,5.58,2.64.83,6.28-6.88,4.83-5.58Z"/>
      <path d="M1.23,24.63l-.52.75-.6-1.45.07,2.92c.72-.46,1.54-1.08,1.75-1.69.46-1.37-.66-2.4-1.68-2.8-1.01,1.22,1.43,1.63.98,2.28Z"/>
      <path d="M16.33,40.48l-.92-.97c.02.99.09,1.93.22,2.77.4.12,1.51.16,1.64-.15.24-.58.42-1.74.41-2.07-.4.21-1.12.65-1.35.41Z"/>
      <path d="M21.04,23.43c.13-.17.28-.55.34-.73.03-.12-.45-.3-.55-.23l-.52.37c-.49.35-.93,1.43-.87,2.1.05.56.91,1.38,1.64,1.57,1.18.31-1.1-1.68-.81-2.06l.78-1.02Z"/>
      <path d="M10.76,28.66l2.43-2.71c.64-.72.6-1.84.11-2.66l-2.52-4.23-2.66,4.25c-.45.73-.44,1.55-.11,2.34l2.75,3.01ZM10.64,21.56c.81.83,1.58,1.77,1.96,3.05-.26.77-1.16,1.74-1.87,2.39-.65-.57-1.62-1.59-1.88-2.42.37-1.14,1.12-2.09,1.79-3.02Z"/>
      <path d="M10.61,34.52c-.46.4-.93,1.17-.71,1.49.25.37.85.96,1.02.9.47-.72.83-1.26.68-1.55-.17-.32-.74-1.04-.99-.83Z"/>
      <path d="M10.71,25.53c.38.03.81-.76.82-1.15,0-.33-.59-1.19-.85-.99-.37.28-.8.94-.73,1.26.06.27.49.85.76.88Z"/>
    </g>
  </g>
</svg>