<?xml version="1.0" encoding="UTF-8"?>
<svg id="Warstwa_2" data-name="Warstwa 2" xmlns="http://www.w3.org/2000/svg" viewBox="0 0 46.31 37.25">
  <g id="game-icon-v7-magic-pixarts-store">
    <g id="game-icon-v7-magic-pixarts-store_136">
      <path d="M35.9,23.83c.67-.42,1.94,2.7,1.66,4.8-9.75,1.16-18.94,1.21-28.79.04l.3-4.68,1.97-.74-1.82-1c.37-4.54.39-8.79-.57-13.42,9.48-1.62,19.11-1.25,28.9-.15l-.47,6.14-1.84,1.02,1.72.73-.09,6.12c0,.24-.76,1-.97,1.13ZM27.02,13.38l-4-4.16-4.05,4.12,3.9,14.9c1.93-2.03,3.54-11.81,4.15-14.86ZM15.84,20.99c1.29-4.3,3.82-9.93-.49-10.84l-1.78,2.29,2.27,8.55ZM30.77,20.61l1.95-8-2.25-2.36-1.93,2.18c-.38.43.08,1.91.26,2.46.49,2.19.85,3.88,1.97,5.72ZM28.11,25.3c.96-1.78,1.78-4.64-.03-5.19-1.77-.54-.77,4.06.03,5.19ZM19.52,21.88c.05-.42-1.19-1.38-1.43-1.11s-.85,1.07-.73,1.45l1.04,3.43c.47-.99.96-2.56,1.11-3.77Z"/>
      <path d="M38.91,7.73c-10.62-1.36-20.7-1.39-31.38-.09-1.32-2.31-1.2-5.05-.02-7.62,10.53,1.54,20.86,1.3,31.33-.02.96,2.61,1.14,4.95.07,7.73Z"/>
      <path d="M38.64,37.19c-10.72-1.31-20.79-1.3-31.14.06-1.27-2.43-1.17-5.04-.16-7.58,10.62,1.27,20.85,1.27,31.5-.02.9,2.46.99,4.89-.19,7.54Z"/>
      <path d="M3.64,3.32c.49,1.01-.73,1.91-1.64,1.96-.74.04-2.19-.85-1.98-1.55.46-1.46,3.05-1.58,3.62-.41Z"/>
      <path d="M46.31,3.55c-.61,1.9-2.41,2.03-3.83,1.05l.3-1.68c.76-.58,2.68-.35,3.54.63Z"/>
      <path d="M5.82.1l.02,7.42c-1.92-1.86-1.91-5.26-.02-7.42Z"/>
      <path d="M46.12,33.3c.05.61-1.15,1.37-1.76,1.41-.71.05-2.1-.61-2-1.59.07-.69,1.45-1.14,2.03-1.06.54.08,1.68.69,1.72,1.24Z"/>
      <path d="M40.33,36.9v-7.3c1.87,2.13,1.91,5.23,0,7.3Z"/>
      <path d="M40.49,7.41l-.16-7.3c1.66,1.95,2.23,5.06.16,7.3Z"/>
      <path d="M5.78,36.72c-1.42.14-2.05-5.95.01-7.01v7.01Z"/>
      <polygon points="22.93 15.66 20.42 13.13 23.22 10.23 25.55 13.25 22.93 15.66"/>
      <path d="M23.36,25.25c-.01-2.52-.93-11.16,2.59-10.76-.66,3.96-1.47,7.23-2.59,10.76Z"/>
      <path d="M20,14.28c3.21-.18,2.83,7.33,2.65,10.09l-2.65-10.09Z"/>
      <polygon points="16.55 14.55 15.84 18.59 14.55 12.56 16.55 14.55"/>
    </g>
  </g>
</svg>