<?xml version="1.0" encoding="UTF-8"?>
<svg id="Warstwa_2" data-name="Warstwa 2" xmlns="http://www.w3.org/2000/svg" viewBox="0 0 43.68 45.15">
  <g id="game-icon-v7-magic-pixarts-store">
    <g id="game-icon-v7-magic-pixarts-store_191">
      <path d="M12.34,6.49c-1.07,3.84.49,7.73,3.42,10.45l3.2,2.97c1.42,1.32,1.51,3.77.08,5.09l-3.64,3.38c-2.92,2.71-3.44,5.99-3.52,10.05-2.3-3.11-.33-6.95,1.66-9.47,2.42-3.06,7.47-5.13,4.67-8.32-.84-.96-1.87-1.97-2.9-2.85-8.01-6.87-1.36-12.76-6.19-11.76,0,.15.33,1.28.29,1.67l-.48,5.25c-.75.07-.86-4.21-2.08-6.72,8.69-2.78,20.65-2.78,29.6-.03l-1.85,6.38c-.43-2.2-.7-4.5-.82-6.73l-2.23.68c.29.41.79,1.58.76,2.17-.52,8.73-7.42,9.76-8.06,13.29-.31,1.72,1.26,3.23,2.48,4.16,6.61,5.01,5.91,11.54,5.24,11.59l-.92.07c.5-3.66-.86-7.17-3.46-9.6l-3.41-3.18c-1.57-1.46-1.5-3.78,0-5.2l3.59-3.42c2.69-2.56,3.79-6.22,2.97-9.86-5.99-1.52-11.89-1.49-18.4-.06Z"/>
      <path d="M37.56,5.5c-7.94-2.73-23.54-2.88-31.79,0-.3-.66-.59-1.57-.71-2.3-.09-.59,1.12-1.26,1.91-1.45,9.81-2.34,19.8-2.36,29.55.13.49.13,1.41.79,1.56,1.21.18.49-.17,1.5-.54,2.42Z"/>
      <path d="M37.2,39.61c.44.19.92,1.49.85,2.03-.08.62-1.12,1.49-1.94,1.69-9.57,2.35-19.42,2.48-28.95,0-.76-.2-1.81-.79-1.9-1.35-.1-.61.26-1.73.63-2.47,8.46,3.11,22.31,3.19,31.3.1Z"/>
      <path d="M26,16.49c-3.1,2.25-4.23,4.82-4.33,8.51-.59-7.96-4.38-6.57-6.53-11.01-.84-1.72-.12-3.64,1.42-4.39,1.5-.72,3.48.11,4.65,1.72,1.67-1.72,4.58-3.1,6.24-1.08,1.62,1.98.63,4.76-1.44,6.25ZM19.26,10.52c-.95-.34-2.67-.25-3.22.84s-.16,2.81.73,3.16l-.03-2.92c0-.59,1.58-1,2.52-1.08Z"/>
      <path d="M30.44,37.74c-1.07,1.93-22.28,1.97-17.1-1.09l5.71-3.38c2.51-1.49,1.6-5.12,2.51-4.37l.43.36c.18.15-.21.54-.5.98.65,1.11,1.77,2.31,2.92,3.22,2.01,1.26,3.83,2.32,6.02,4.28Z"/>
      <path d="M10.89,23l-2.37,6.93-2.31-10.65-1.66,4.99c-1.28-1.27-2.38-1.47-4.54-1.79,1.17-.61,2.65-.89,4.11-.62l2.31-8.34,2.32,11.93,1.63-4.63c2.78,2.6,3.96.08,5.34,1.87l-4.84.31Z"/>
      <path d="M38.93,22.81l-2.1,6.78-2.33-10.16-1.66,4.6c-1.66-1.48-2.87-1.19-5.2-1.38,1.4-.65,3.19-1.01,4.85-.9l2.22-6.97,2.35,9.86,1.65-4.2c1.3,1.15,2.25,1.58,3.73,1.68l.82.05c.15.01.29.36.41.48.16.16-.98.25-1.25.24l-3.48-.09Z"/>
      <path d="M10.99,38.67c6.95,1.92,14.56,1.97,21.45-.1l.59.43c.14.11.75.3.72.12s-.12-.91-.09-1.13l.78-5.68,1.95,6.6c-8.37,2.58-17.39,2.82-25.74.98-.25-.05-.77-.58-.93-.76s.86-.57,1.26-.46Z"/>
      <path d="M9.55,37.63c.09.54-.64,1.81-1.12,1.76-.55-.06-1.45-.63-1.33-1.12l1.53-6.09.92,5.44Z"/>
    </g>
  </g>
</svg>