<?xml version="1.0" encoding="UTF-8"?>
<svg id="Warstwa_2" data-name="Warstwa 2" xmlns="http://www.w3.org/2000/svg" viewBox="0 0 37.42 51.22">
  <g id="game-icon-v7-magic-pixarts-store">
    <g id="game-icon-v7-magic-pixarts-store_172">
      <path d="M2.27,43.06c-.76.44-.74,2.94-.1,3.36l3.2,2.07c-1.16.4-2.89.22-3.78-.51C.88,47.4,0,45.7,0,44.5V2.66C.09,1.96.96,0,1.68,0h32.83s.03,41.19.03,41.19c0,.95-1.1,1.81-1.91,1.81l-30.36.06ZM32.61,35.31l-.06-28.14c-2.34-1.7-3.91-3.53-5.51-5.53-1.32.07-2.83.12-4.33.12l-14.76-.02c-1.72,2.14-3.29,3.76-5.44,5.38v28.34c2.1,1.79,3.69,3.38,5.32,5.57l19.4.08c1.5-2.3,3.14-3.93,5.38-5.81ZM5.97,1.78l-3.43.02.23,3.45c1.96-1.03,2.54-1.81,3.2-3.47ZM31.83,4.91c.68.14,1.06-2.01.65-2.72-.36-.61-1.65-.51-2.98-.25-.27.91,1.09,2.6,2.33,2.96ZM5.76,40.89c-1.12-2.04-1.36-2.57-3.02-3.31-.25,1.06-.27,2.25-.21,3.57l3.23-.26ZM28.77,40.53c1.75.79,2.9.67,3.53.06.79-.76.4-2.93-.58-3.07l-2.95,3.01Z"/>
      <path d="M11.14,48.24l24.55-.72.3-16c.12-.22.5-.71.61-.86s-.74-.83-.74-1.23l.13-25.37c1.55.17,1.41,1.61,1.41,2.87l-.06,41.25c-1.32.82-2.84.83-4.28.66-7.35-.48-14.32.5-21.93-.61Z"/>
      <path d="M12.43,45.17c-3.3-.03-6.15-.23-9.24-.34,5.82-.36,11.34-.6,17.18-.56l10.63.07c1.24,0,2.3-.23,3.74-.74l-.15,3.17-23.05-.2c7.64-1.81,14.87.5,22.66-1.2l-21.78-.2Z"/>
      <path d="M10.61,51.22l-2.1-1.36c-.46-.3-1.14.31-2.35.91l.15-4.73h4.15s.15,5.19.15,5.19Z"/>
      <path d="M31.48,35.02l-4.86,5.23H8.39s-4.97-5.23-4.97-5.23V7.57c1.83-1.58,3.25-2.99,4.85-4.79l18.45.03,4.91,4.87.02,23.64c0,.89.41,3.06-.19,3.7ZM25.87,9.28c-.22-.22-1.83.22-2.18.79-.36.6.28,2.08.9,2.36.68.31,1.29.68,1.31,1.05l.07,1.38c.84.19.45-1.37.69-1.84.44-.86,2.44-2.15,2.42-3.17-.04-1.61-1.61-2.51-3.01-2.75-1.05-.18-2.66.57-3.17,1.63,2.09-.29,3.79-.52,5.17.24-.2.6-.22.72-.44.76l-1.25.21,1.43,1.2c-.84.53-2.45.77-3.41-.03l1.47-1.84ZM11.36,11.25l-1.17,2.52c-.22.47-2.1.23-2.52-.1-1.71-1.35,3.12-4.08,2.01-4.88l-1.2-.87-1.06-.67c-.24-.15-.91.5-.97.65,2.09,3.11-1.38,3.02.23,6.87l5.59.04-.9-3.56ZM19.91,14.6l-1.6-.92c-.22-.13-.06-.8.17-.89l.88-.36.75-.31c.14-.06-.06-.35-.22-.74l-4.7.2,2.65,1.02-1.47,2.12,3.55-.12ZM16.54,20.99c-.27-.72-.76-1.98-1.8-2.67l.15,4.38c.05,1.35,2.35,3.93,3.78,2.68,1.22-1.07,1.81-3.99,1.93-5.46l-2.94-1.84c-.3-.19-1.21.09-1.17.45s.64,1.04,1,1.11l2.31.44-1.86,4.77c-1.02-.08-2.06-1.93-1.4-2.25l.99-.48c.15-.07,0-.61-.15-.69l-.85-.43ZM10.43,21.04l2.08-2.5c-1.2-.67-3.05-.45-3.31.36l-.46,1.47c-.08.26-.94.14-.98-.13l-.19-1.15c-.06-.35-.96-1.07-1.09-.74-.1.24-.27.93-.27,1.2v5.65s.86.22.86.22c.2.05.45-.75.46-.96l.05-1.7c1.3,1.24,2.85,2.41,4.43,2.9-.75-1.64-2.3-3.75-1.58-4.62ZM23.59,23.62c4.11.76,3.41,2.55,4.01,1.96l.62-.61c.57-.56-2.1-.78-1.87-2.37.07-.48,1.22-.69,2.06-.86,1.16-.23.56-3.32-.45-3.31-1.77.01-3.12.06-5.09.19,1.6,1.77,3.35.74,5.29.83-.06.68-.18,1.41-.62,1.43l-1.98.07c-.22,0-1.02.17-1.26.22-.15.03.16.41.28.5l.74.59-1.71,1.38ZM28.09,32.64c1.05-.06,1.16-1.61.94-2.68-.21-1-1.64-1.71-2.64-.99s-1.51,2.57-.17,3.98l.74-3.4c.48.23,1.16.73,1.15,1.12l-.02,1.96ZM11.49,32.84c-.78-.57-1.22-.73-1.13-.98l.56-1.51-2.48,2.63-.43-3.99-1.03.45c-.16.07-.11.67-.1.89l.19,3.6,3.6.02-.11,2.89c1.27-.73,1.96-3.23.93-3.98ZM26.05,35.66l1.62-2.16-3.25-.15-.32-1.69c-.51.13-1.34,1.82-.85,2.08.53.29,1.22.59,2.42,1.14l-2.37,1.33c.46.19,1.15.44,1.52.44s.97-.66,1.22-.99Z"/>
    </g>
  </g>
</svg>