<?xml version="1.0" encoding="UTF-8"?>
<svg id="Warstwa_2" data-name="Warstwa 2" xmlns="http://www.w3.org/2000/svg" viewBox="0 0 42.42 41.97">
  <g id="game-icon-v7-magic-pixarts-store">
    <g id="game-icon-v7-magic-pixarts-store_205">
      <path d="M33.26,11.4l-1.69-4.94c-.24-.71-.12-1.94.29-2.44-1.53.09-3.26-2.34-6.14.19-2.93,2.58-.46,6.14,1.11,8.76.88,1.47,2.68,4.8.99,6-.42.3-1.43.47-1.89.43.56-1.77.61-3.22-.27-4.65l-2.64-4.3c-1.66-2.71-1.17-6.27.91-8.38s5.49-2.73,8.33-1.16c4.04,2.24,5.04.69,6.91,3.58.93,1.44,3.81,1.81,2.71,3.26l-1.49,1.95.14-1.18c.13-1.13-4.44-.84-6.54-2.72l.05,5.26c0,.42.96.71,1.67,1.02-.18.14-.91.46-1.24.47-.4.02-1.08-.72-1.23-1.15Z"/>
      <path d="M15.98,19.32c-2.96,1.1-1.03,4.64-2.9,5.35-1.14-1.97-1.2-4.32.01-6.24,1.53-2.44,4.7-2.72,7.13-1.2,1.64,1.02,3.26,2.23,5.04,2.86s3.64-.53,3.73-2.29c.06-1.07.23-1.53,1.19-1.67.96-.14,1.56.16,1.49,1.45-.03.57-.65.93-1.72,1.34l1.56.3c-.42,2.35-3.24,4.92-5.98,4.19-3.95-1.06-6.47-5.23-9.54-4.09Z"/>
      <path d="M2.32,34.1c-.39-1.32.28-2.65,1.14-3.35,2.65-2.16,5.36.64,9.21,1.34,4.22.77,2.74-3.82,5.26-4.72.88,2.1.44,4.18-.86,5.57-1.43,1.53-3.71,2.1-5.77,1.12l-4.27-2.05c-2-.96-3.63-.07-4.73,2.09Z"/>
      <path d="M12.71,31.16c-1.18-.24-2.24-.65-3.3-1.3l8.01-8.24c1.1.29,2.06.9,3.03,1.8l-7.73,7.75Z"/>
      <path d="M34.27,25.38c1.04-.99,2.81-2.11,1.41-3.9-1.11,1.93-2.54,3.05-4.61,2.53,2.04-.8,3.43-2.39,3.99-4.42l.78.89c.18.21,1.17-.45,1.22-.72l.57-3.03c.47,1.7.51,3.37.4,5.22-.29,4.62-.73,3.24-3.3,5.12-2.31,1.69-5.35,1.84-7.81.68,3.26.28,5.24-.37,7.36-2.36Z"/>
      <path d="M13.6,10.94l-1.19,3.44c-.59-2.6.21-5.07,1.64-7.28,3.86.62,2.71-4.68,5.75-5.52l-1.25,1.81c-.28.4.1,1.29.36,1.87-.81,1.01-1.8,2.44-2.73,3.2s-2.17,1.27-2.58,2.47Z"/>
      <path d="M6.46,37.9c-1.13-.09-2.2-1.35-2.72-2.4l2.86-2.72,2.94,1.63-3.07,3.5Z"/>
      <path d="M24.82,18.76c-1.24-.57-2.03-1.01-3.21-1.78l2.22-2.65c1.35,1.05,2,2.33.99,4.42Z"/>
      <path d="M40.55,14.02l1.46.47c-3.58,1.44-6.04-3.57-7.03-6.62.98,1.3,1.73,2.51,2.56,3.82,1.14,1.79,2.95,1.69,4.87.94l-1.86,1.39Z"/>
      <path d="M6.39,39.09c-.19.32-1.31.69-1.79.43-1.19-.65-3.16-2.32-2.11-3.71.55-.73,1.78,1.92,3.9,3.29Z"/>
      <path d="M4,39.98c-1.27.79-2.32,1.4-4,1.99l1.69-4.11,2.31,2.12Z"/>
      <path d="M16.09,13.51c-.42-.75-.26-3.01.96-3.31,1.26-.31,1.91-.58,2.6-1.74.33.98-.16,2.21-1.39,2.55-1.09.34-1.54,1.03-2.16,2.5Z"/>
      <path d="M30.88,15.3c-.5.4-1.79.58-2.06.22s-.76-1.56-.29-1.7c.53-.15,1.47-.33,1.85-.29.45.05.85,1.49.5,1.77Z"/>
      <path d="M29.86,12.69c-.6.38-1.67.68-2.13.42s-1.14-1.58-.66-1.78c.64-.26,1.64-.4,1.85-.07l.94,1.42Z"/>
      <path d="M31.2,10.93c.08.22-.16,1.01-.27,1.17-.15.22-.82-.32-.94-.57l-.81-1.65c-.19-.38.54-1.19,1.04-1.5l.96,2.54Z"/>
      <path d="M28.03,10.12c.02.38-.95.74-1.32.71-.43-.03-1.17-.99-1.04-1.42.3-1.01,2.32-.3,2.37.71Z"/>
      <path d="M30.59,5.11l-1.78-.93-.79.79c-.19.19-.78-.59-.81-.77,1.2-.52,2.83-1.12,3.38.91Z"/>
    </g>
  </g>
</svg>