<?xml version="1.0" encoding="UTF-8"?>
<svg id="Warstwa_2" data-name="Warstwa 2" xmlns="http://www.w3.org/2000/svg" viewBox="0 0 45.81 46.08">
  <g id="game-icon-v7-magic-pixarts-store">
    <g id="game-icon-v7-magic-pixarts-store_187">
      <path d="M15.14,41.79c.52-1.55-1-1.87-2.22-2.33l3.94-.3c-1.81-.78-3.64-.55-5.75.18.68,1.04,1.75,1.01,2.98,1.41-6.06.75-12.03-4.64-13.17-11.3,4.61,6.07,11.03,8.19,18.18,8.25,4.35.04,8.38.48,12.37-2.81-.53,5.84-5.12,11.5-11,11.18-4.58-.25-8.67-2.31-12.05-5.01,2.33.44,4.24.76,6.73.73ZM25.37,39.51l-1.95,1.03c-.5-.57-1.39-1.33-1.8-1.01-.53.41-1.33,1.45-1.21,1.66l1.61-.54c.3-.1.7.84.97,1.09.93-.08,2.37-1.13,2.37-2.23ZM21.73,43.22c.56.8,1.63,1.15,2.38.64.44-.29,1-1.28.91-1.61l-1.83.84c-.29.13-.86-.73-1.19-.82-.77-.22-2.33,1.02-1.81,1.96l1.54-1.02Z"/>
      <path d="M34.11,6.73c-.63-.9-1.73-.99-2.98-1.53,6.88-.6,12.55,3.84,13.79,11.46-4.24-6.23-11.01-8.42-18.3-8.37-4.31.03-8.47-.46-12.21,2.76.44-3.15,1.41-5.54,3.29-7.77,5.15-6.1,14.84-2.61,20.03,1.74-2.74-.41-4.99-1.63-7.68-.46l1.12,1.87-2.25.26c.95.56,2.25.76,3.07.59.23-.75.28-.97.47-.92l1.64.38ZM26,1.75l-1.91.91c-.28.13-.87-.84-1.19-.86-.72-.05-2,.87-2.25,1.83l1.91-.69c.47.3,1.81.96,2.29.52.41-.38.96-1.27,1.15-1.72ZM23.79,6.92l1.79-2.32-1.59.43c-.32.09-1.01-.67-1.33-.75-.81-.2-2.3.96-2.35,2.28l2.21-1.34,1.27,1.69Z"/>
      <path d="M37.89,24.68c-.66-3.97-.65-7.83-3.56-10.9-.27.13-1.15,1-1.39,1.43s.55,1.41.72,1.89l-1.76,3.33-2.53-2.26c-.41-.37-1.88.4-2.43.46.38-.74,2.08-1.67,2.76-1.23s1.25.84,1.68.98c.52.18,1.55-.92,1.33-1.4-.32-.69-.68-1.68-.62-2.19s.91-.96,1.87-1.49l-3.97-3.52c4.05.49,7.64,1.75,10.55,4.26,8.31,7.16,5.75,17.18-.39,24.48l1.36-6.88-.86,1.05-.71-3.16-.75,4.39c-.32-3.08-.73-5.86-1.3-9.25ZM41.93,20.94c.81,1.81,1.79,1.39,1.31,2.91-1.87-.18-1.78-3.97-4.14-3.31l1.59,2.37c-.75.37-1.68.94-1.41,1.25.38.44,1.08,1.17,1.05,1.07l.76-1.41c.37-.69,2.25,2.37,2.84,1.52,1.05-4.54-2.58-5.71-1.99-4.4Z"/>
      <path d="M6.8,11.72l1.04,10.05c.61,5.87,2.67,11.25,8.11,14.22C6.07,35.44-2.04,27.54.46,17.57c.96-3.84,2.41-7.46,5.47-10.2-.76,2.63-1.43,4.47-1.69,7.15l1-.98.43,2.91,1.14-4.74ZM4.99,23l1.74-.61-1.02-1.79-1.5,1.66c-.71-.85-1.42-1.56-2.14-1.73-1.11.64.41,5.72,1.85,4.91.15-.08.38-.37.26-.49l-.48-.49-1.06-1.08c-.23-.24.07-1.3.37-1.26,1.27,1.51,2.07,2.65,3.42,3.61.19-1.24-.44-1.38-1.44-2.73ZM9.73,33.37l-4.17-2.98c.48-.73.72-1.18.48-1.32s-.71-.45-.83-.26l-.8,1.13c1.22,1.65,3.34,3,5.33,3.44Z"/>
      <path d="M16.82,24.83l2.36-3.56-2.53-2.76c-.63-.69-1.18-1.23-1.89-1.33-1.47-.2-1.18,1.4-1.8,2.05l-2.64,2.77c.24-2.23,2.67-3.45,2.59-3.87-.34-1.89-1.56-1.83-1.24-2.31l.62-.91c.33.67.65,1.41.99,1.45l3.17.32c.44.04,1.28-.87,1.23-1.31-.19-1.84-1.17-1.07-1.63-3.82,2.04.8,3.87-.91,4.85-2.26l-.41,1.87-2.85,1.6,1.03,1.69c.74,1.21-2.02,2.69-.64,4.06.74.74,1.1,1.24,1.64,2.15l6.77-9.77-3.15,10.17,5.58.09-9.42,13.21,2.89-9.44-5.53-.1Z"/>
      <path d="M13.1,11.5c-2.22,2.44-3.61,5.06-4.68,8.44-.63-2.97-.7-5.68-.61-9.16l-2.01.44C7.44,4.24,12.34,1.56,19.19.14c-2.97,1.59-8.87,7.54-8,10.81,1.15-2.34,2.15-4.24,3.83-6.04-.77,2.14-1.42,4.09-1.92,6.58Z"/>
      <path d="M27,45.73c3.55-2.48,7.17-5.56,7.19-10.35-.98,2.19-1.73,4.41-3.6,6.02,1.11-2.02,1.31-4.64,2.27-6.7,1.34-2.86,3.77-5.07,4.29-8.29,1.75,2.26-.19,11.18,2.04,8.79l.84-.9c-.52,5.69-6.6,10.94-13.04,11.42ZM35.47,36.46l-.4,2.05c-.03.14.31.39.37.28.69-1.17,1.16-4.12,1.1-5.48-1.01.62-.68,1.5-.81,2.52l-.53-.7c-.08-.1-.44.2-.45.33l-.1,1.2s-.02,0,.82-.2Z"/>
      <path d="M28.37,31.64l1.95,2.72c-2.41-.9-4.4.29-5.23,2.6-.79-2.92,2.15-2.38,3.21-3.95l-1.13-1.63c-.59-.85,1.36-2.54.96-3.11-.99-1.39-2.17-1.9-1.5-3.06l2.85,2.67c.47.44,1.3,1.12,1.88,1.07.53-.04,1.08-1.04,1.43-1.61l.8-1.33c.2-.33,1.29.17,1.38.22-.73.51-1.38.97-1.85,1.42-.91.86,1.89,2.61.38,3.47-.28-.46-.47-1.3-.81-1.36l-1.91-.28c-.73-.11-1.81-.36-2.2,0s-.52,1.71-.2,2.15Z"/>
      <path d="M14.47,27.5c-1.99.86-.15,2.13-.59,3.6-.19.65-1.26,1.36-1.69,1.01,1.23-1.79.97-1.15,1-4.7,0-.31-.3-.42-.77-.81.17-.23.78-1.01,1.11-.9,1.63.54,2.2,2.12,3.04,1.87l2.24-.65c-.42.63-1.29,1.43-1.9,1.56-.58.12-1.68-.56-2.45-.98Z"/>
    </g>
  </g>
</svg>