<?xml version="1.0" encoding="UTF-8"?>
<svg id="Warstwa_2" data-name="Warstwa 2" xmlns="http://www.w3.org/2000/svg" viewBox="0 0 41.9 45.28">
  <g id="game-icon-v7-magic-pixarts-store">
    <g id="game-icon-v7-magic-pixarts-store_261">
      <path d="M1.39,30.71c.46,1.47,1.08,2.73,2.1,3.86l-.12-1.27c2.11,2.87,3.96,4.95,6.7,7.48l-3.13-1.94c1.06,1.62,2.58,2.43,4.11,3.4,3.45,2.19,7.28,3.37,11.38,2.96,1.71-.17,3.52.08,5.17-.56l.48-.75c-.54.84,5.72-1.2,8.46-4.42,1.88-2.21,3.61-4.32,4.46-7.05,1.15-3.69,1.37-8.44-.44-11.86-2.02-3.83-4.37-7.24-8.45-9.12-2.64-1.22-5.22-1.33-8.11-1.14-6.19.41-10.81,4.49-12.4,9.75.08-1.49.74-2.46,1.05-3.79-3.71,4.08-2.82,12.55,1.58,16.08,4.48,3.59,9.38,4.27,14.43,1.06,2.52-1.6,3.88-4.67,3.66-7.91-.17-2.44-1.65-4.1-3.32-5.57.63.15,1.18.49,1.8.83-2.46-3.21-7.23-3.61-10.23-.87-2.03,1.85-2.17,4.98-.2,6.77.11.1.65.25.69.11.03-.1.11-.35.1-.34l1.2.06c-1.26-1.38-1.19-3.17.33-4.27,1.79-1.3,4.54-.4,5.42,1.7.95,2.28.26,4.9-1.52,6.42-.86.73-1.77.45-2.61.61-4.43.86-8.46-2.03-8.84-6.62-.27-3.26,1.16-6.14,3.99-7.85,4.08-2.46,8.96-1.75,12.72,1.15,1.18.91,2.01,2.18,2.8,3.54,1.09,1.87,1.38,3.67,1.67,5.99l.23-3.6c.72,1.97.63,4.17-.16,6.24-2.06,5.42-7.09,9.13-12.87,9.54-3.78.27-7.13-.85-10.21-2.75-1.34-.83-2-1.71-2.93-3.02-2.42-3.41-4.34-7.52-3.79-11.98.25-1.99,1.02-4.07,1.71-5.93,2.2-5.95,8.94-9.28,14.91-9.85,1.51-.14,2.87.16,4.28.5,1.13.28,2.37.4,3.38.89l5.52,2.73-1.12-1.25c2.79,1.04,4.25,3.21,6.29,5.16.29-.45.02-1.04-.29-1.58-1.67-2.93-.07-1.57-2.51-4.45l.77-.14c-2.62-3.38-7.15-6.13-11.25-7.01-6.23-1.34-.51-.03-6.33-.32l2.31.55c-3.12-.15-5.71.39-8.75,1.02,1.84-.92,3.75-1.36,5.76-1.6-4.29-.64-9.72,2.24-12.95,4.88-1.96,1.6-4.56,4.56-5.42,6.98-.97,2.72-1.52,5.26-2,8l.17-4.06c-1.36,3.02-1.34,9.35-.33,12.57l.66,2.09Z"/>
    </g>
  </g>
</svg>