<?xml version="1.0" encoding="UTF-8"?>
<svg id="Warstwa_2" data-name="Warstwa 2" xmlns="http://www.w3.org/2000/svg" viewBox="0 0 46.28 47.79">
  <g id="game-icon-v7-magic-pixarts-store">
    <g id="game-icon-v7-magic-pixarts-store_237">
      <path d="M21.11,34.7c-3.12,1.23-5.63,2.03-8.05,4.11-2.96,2.53-5.76,5.58-8.2,8.64-.15.19-.7.35-.93.35-2.01,0,6.09-8.02,5.72-8.51-2.5,2.07-4.63,4.31-6.43,6.89-.73,1.05-1.31,2.07-3.22,1.22,1.26-2.51,5.53-6.05,5.61-7.83L.33,45.69c-.61-1.95,1.43-3.13,3.21-5.41,1.32-1.69,2.4-3.5,4.13-4.72l7.77-5.5c1.53-1.08,2.83-2.32,4.32-3.6-.74,2.73-2.88,4.2-4.81,6.04,2.89-1.19,5.39-3.67,5.46-6.99l-2.88,2.18c.69-2.17,2.08-3.84,2.43-5.9.36-2.1,1.11-3.19,2.73-4.33,2.87-2.02,4.02-5.19,3.33-8.59.54-1.68,2.53-3.14,4.38-3.54.55,1.78-2.37,2.1-1.24,5.23.76,2.1.35,3.93-1.14,5.52,2.97-.48,4.91-2,6.86-4.3.34,1.77.18,4.46-1.69,5.16l-4.73,1.76c2.84-.33,5.37-.69,8.26-.37,2.72.3,3.13-2.23,5.18-2.64l-1.18,2.74c-3.09,7.17-8.65-.43-14.85,3.66-1.96,1.29-3.42,3.62-3.9,5.91.97-1.66,2.6-3.97,4.1-5.11-.2.15,5.56-1.87,5.92-.93-4.72,2.71-6.36,1.95-9.44,7.57-1.05,1.92-2.44,1.02-3.3,2.12l4.05-.14c-.48,1.02-1.25,2.7-2.2,3.19ZM24.87,17.29c2.75-.94,3.63-4.4,2.5-7.18-.36,2.89-.25,5.13-2.5,7.18ZM20.95,23.54l4.12-4.48c-2.18.06-3.72,2.99-4.12,4.48ZM20.02,33.15c-2.09.07-4.28.87-5.79,2.63l5.79-2.63Z"/>
      <path d="M36.07,10.8c-1.42-1.48-3.74,2.49-5.05,3.15l-.94-5.02,4.63-7.2c.78.78,1.11,2.29.57,3.24l-2.75,4.78c1.58-1.45,2.49-2.85,3.78-4.53l1.67,1.42-.63-2.25,7.21-3.41.23,2.57,1.02-2.01.17,3.98c.06,1.48.8,2.98-.33,4.88l-2.65-.71.18-3.81c-1.21,1.84-.18,3.86-2.84,4.01-.11.35-.48,1.16-.83,1.47l-3.37,3.07-.07-3.64Z"/>
      <path d="M37.86,16.85c-.55.42-1.98.17-2.81-.11.96-1.35,1.82-2.25,2.95-3.12l3.62-2.79c1.06-.02,2.21.18,3.35.64l-7.11,5.38Z"/>
      <path d="M37.08,3.4c-.71-.33-1.25-1.74-1.12-2.44,1.23-1.15,2.87-1,4.36-.87l3.73.32c-2.15,1.27-4.47,2.3-6.97,2.99Z"/>
    </g>
  </g>
</svg>