<?xml version="1.0" encoding="UTF-8"?>
<svg id="Warstwa_2" data-name="Warstwa 2" xmlns="http://www.w3.org/2000/svg" viewBox="0 0 41.72 44.51">
  <g id="game-icon-v7-magic-pixarts-store">
    <g id="game-icon-v7-magic-pixarts-store_229">
      <path d="M41.52,18.42c-3.13,4.93-11.14,5.24-15.16,2.01-.44-.35-.24-1.91-.57-1.99l-1.87-.48c-3.14-.8-3.17-7.96-1.25-11.69C24.46,2.79,27.72.12,32.13,0c3.75-.09,7.63,1.06,9.59,4.5-2.19-1.35-4.06-2.3-6.52-2.06-3.71.35-6.59,3.03-7.62,6.18-1.24,3.79.4,7.6,3.18,9.71,3.23,2.45,7.09,2.21,10.77.09Z"/>
      <path d="M41.05,11.45c0,3.05-2.47,5.52-5.52,5.52s-5.52-2.47-5.52-5.52,2.47-5.52,5.52-5.52,5.52,2.47,5.52,5.52ZM37.15,7.6c-.48-.52-1.61-.8-2.38-.73-.58.05-1.53.85-1.69,1.58,1.2.96,3.33.65,4.07-.85Z"/>
      <path d="M8.18,39.68c-1.58-.58-2.83-1.81-3.39-3.45l12.13-11.55,2.87,2.72-11.62,12.28Z"/>
      <path d="M5.63,42.74c-.5,1.18-1.87,1.88-3.14,1.75S.25,43.35.02,41.83c-.16-1.05.65-2.61,1.63-3.08,1.29,1.65,2.32,2.67,3.99,3.99Z"/>
      <path d="M24.96,24.55l-.7,1.03c-.92,1.35-7.92-4.65-4.72-6.2,1.08.14,1.48,1.78,2.09,2.3l3.34,2.87Z"/>
      <path d="M7.85,40.69c.41.22-.22,1.68-.67,1.56-2.77-.79-5.57-4.18-4.75-5.57.16-.28.75-.49,1.17-.59.66,2.21,1.98,3.37,4.25,4.6Z"/>
      <path d="M31.09,23.69c-1.59,1.55-4.74.95-6.36-.77-.27-.32.75-1.13,1.19-.98l5.17,1.75Z"/>
      <path d="M22.52,18.48c.16.4-.51,1.39-.98,1.34-1.85-1.64-1.99-4.53-1.11-6.59l2.1,5.24Z"/>
      <path d="M22.12,26.42c-1.13,1.74-5.77-2.4-4.32-4.4,1.4,1.7,2.61,2.96,4.32,4.4Z"/>
      <path d="M25.17,18.91c.72,1.63-.8,3.18-1.87,3.49-.31.09-1.02-.62-1.04-.94-.06-1.09,1.36-2.73,2.92-2.54Z"/>
    </g>
  </g>
</svg>