<?xml version="1.0" encoding="UTF-8"?>
<svg id="Warstwa_2" data-name="Warstwa 2" xmlns="http://www.w3.org/2000/svg" viewBox="0 0 41.28 39.93">
  <g id="game-icon-v7-magic-pixarts-store">
    <g id="game-icon-v7-magic-pixarts-store_15">
      <path d="M23.58,28.82c.09-5.68-3.23-10.75-8.51-12.65-6.29-2.27-12.76.97-14.6,7.48-1.76,6.24,1.63,13.15,7.9,15.52,3.74,1.41,7.53.83,10.64-1.37,2.71-1.92,4.51-5.26,4.56-8.98ZM10.2,37.6c-6.39-1.51-9.76-8.69-7.27-14.55,1.85-4.35,6.3-6.5,10.8-5.22,4.9,1.39,7.96,5.92,7.84,10.97-.07,2.88-1.21,5.32-3.13,6.93-2.29,1.92-5.08,2.62-8.24,1.87Z"/>
      <path d="M26.92,21.68l4.36-4.63c.24,1.06-.02,2.32-.74,3.21l-2.77,3.44c-.27.33-.18,1.28-.04,1.71l3.17-3.89c1.7-2.09,1.88-4.83.72-7.32-1.22-2.61-4.04-5.23-7.15-4.6-2.41.49-4.49,2-6.83,3.06,4.36,1.6,7.43,4.49,9.28,9.03Z"/>
      <path d="M23.94,32.72c.95-.94,1.94-2.22,2.27-3.64,1.5-6.41-2.09-12.7-8.12-15.07-2.34-.92-4.78-1.01-6.98.4,4.64.26,8.41,2.45,10.7,5.67,2.68,3.77,3.3,8.07,2.12,12.63Z"/>
      <path d="M33.65,4.92c-1.6.1-2.99,1.08-4.36,1.8,2.57,1.24,4.36,2.85,5.72,5.29l2.42-2.68c.6,2.25-2.93,3.76-1.74,5.13,1.04-1.11,2.09-2.09,2.52-3.38.98-2.88-1.49-6.35-4.57-6.16Z"/>
      <path d="M32.06,12.88c1.35,2.3,1.62,4.66.95,7.41,1.51-.99,1.7-2.49,1.92-4.05-.22-3.93-2.64-7.42-6.36-8.67-1.95-.66-4-.59-5.42,1.07,3.79-.66,7.07,1.11,8.91,4.25Z"/>
      <path d="M41.26,7.97c-.23-2.56-1.95-4.79-4.36-5.62-1.76-.6-3.79-.12-4.61,1.65,2.38-.59,4.38.27,5.77,2.01,1.39,1.74,1.81,3.76,1.11,5.96,1.74-.81,2.23-2.41,2.09-4.01Z"/>
      <path d="M35.6,37.18c-1.75-2.81-3.47-5.59-6.28-7.29,1.46,2.95,3.61,5.37,6.28,7.29Z"/>
      <path d="M15.93,0c-.17,1.38,1.96,8.79,2.64,9.06,1.15.46-1.87-8.67-2.64-9.06Z"/>
      <path d="M31.6,26.13c2.98,1.99,6.07,3.16,9.49,3.62-3.09-1.57-6.07-3.42-9.49-3.62Z"/>
      <path d="M14.27,10.9c-1.34-3.13-3.74-5.24-6.41-7.02,1.86,2.74,3.77,5.27,6.41,7.02Z"/>
      <path d="M40.73,21.49c-1.18-.41-3.48-.54-4.25.4-.43.52,4.04.12,4.25-.4Z"/>
      <path d="M24.13,1.4c-.78,1.38-1.28,2.95-.63,4.26.78-1.48.9-2.82.63-4.26Z"/>
      <path d="M14.29,5.89c.11,1.5.84,2.72,1.97,3.79-.13-1.49-.82-2.75-1.97-3.79Z"/>
      <path d="M26.98,38.3c.24-1.67.21-2.91-.78-4.02-.31,1.45.11,2.96.78,4.02Z"/>
      <path d="M31.44,28.5c.52,1.29,1.73,2.17,3.01,2.25-.82-1.15-1.8-1.86-3.01-2.25Z"/>
      <path d="M34.37,24.22c1.12.77,2.33.88,3.49.68-1.11-.82-2.25-1.14-3.49-.68Z"/>
      <rect x="28.53" y="32.4" width=".8" height="3.11" transform="translate(-12.41 17.21) rotate(-27.52)"/>
      <path d="M5.03,11.42c1.11.72,2.19,1.27,3.62,1.58-.54-1.4-2.13-1.65-3.62-1.58Z"/>
      <path d="M19.79,27.8c-.09-.05-.52-.34-.62-.33-1.48.08-4.33-.17-5.53-1.56-1.65-1.91-1.47-4.09-1.59-6.74l-.69.8c-.14.17.45.89.44,1.1-.08,1.52-.67,5.17-2.5,5.66l-3.92,1.06,3.23.68c1.11.23,2.4,1.33,2.59,2.5l.83,5.16.52-4.48c.81-4.95,8.61-3.17,7.26-3.86Z"/>
      <path d="M6.86,24.15l-.33,1.33c.46-.4.83-.97,1.05-.88l1.08.4-.49-1.26c.78-.15,1.54-.28,1.94-.51.34-.2.34-1.27.16-1.75-.26-.67-1.5-.61-2.07-.21-.42.3-.54,1.17-.58,1.96-.77-.64-1.36-1.09-2.16-1.34.06,1.07.51,1.65,1.4,2.25Z"/>
      <path d="M15.17,30.41c.43,1.16.76,1.39,1.58,2.37l-2.7,2.2c2.48-.33,2.46-1.91,4.03-1.46l.44-2.46-1.11,1.05-2.23-1.71Z"/>
      <path d="M15.03,24.89l1.58-.87c.59-.32,1.15-1.21,1.3-1.8-2.09.98-1.83-1.11-3.88-1.08l2.41,1.81-1.41,1.94Z"/>
      <path d="M8.36,30.6c-.99.35-1.3,1.62-2.1.46.02.72-.08,1.22-.31,2.18.84,0,2.91-2.96,2.42-2.64Z"/>
    </g>
  </g>
</svg>