<?xml version="1.0" encoding="UTF-8"?>
<svg id="Warstwa_2" data-name="Warstwa 2" xmlns="http://www.w3.org/2000/svg" viewBox="0 0 55.26 42.91">
  <g id="game-icon-v7-magic-pixarts-store">
    <g id="game-icon-v7-magic-pixarts-store_128">
      <path d="M39.93,12.51l.09,15.3-2.68,3.59-3.95,2.77-14.54.06.02-27.95,10.14-.08c.68,0,2.02.51,2.44.65.82-.49,2.04-.64,2.78-.11l3.11,2.21,2.6,3.55ZM24.44,16.07c2.03-1.02,3.57-2.2,4.96-3.61,1.22,1.59,2.8,3.56,5.06,2.77-2.31-.63-4.02-2.23-5.07-4.87-1.25,2.26-3.03,3.97-5.32,5.03l-2.31-1.52c1.73,1.94,1.23,3.02,1.27,5.82l1.4-3.63ZM32.68,26.79l2.42.61-1.35-1.93,3.85-3.1c.81-.65.48-3.23-.34-3.89l-3.14-2.51-.71,2.83c-1.18-1.64-2.67-3.44-4.06-4.98-3.78,4.64-6.2,3.57-5.37,8.61-1.17-1.68-1.7-2.84-3.32-3.77l1.2,2.45c.84,1.64,1.8,3.15,2.9,4.63l-1.23,1.85c1.32-.31,2.27-.55,3.18-.67.61-.08,1.51,1.04,2.02,1.53l1,.96c.21.2,1.85-2.9,2.94-2.62Z"/>
      <path d="M14.74,34.85c.02-2.75.28-4.03,2.3-5.52l-2.17.58.07-16.22,2.27-2.18-2.31.83.06-3.84c.02-1.19,1.83-2.44,2.93-2.1l.26,6.23.12,19.05c.03,4.1-2.08,2.65-1.99,5.52.09,2.78,5.53,1.16,6.39,2.22-1.7.61-2.98.64-4.32.56-2.95-.16-3.61-2.45-3.6-5.14Z"/>
      <path d="M48.41,15.14l-2.55,2.6,1.56.59-5.83,4.41c-1.83-3.87,2.49-1.81,1.69-7.19-2.78-6.16,6.98-6.3,10.23-15.55,1.38,4.52-1.57,8.43-5.35,10.47l.38-2.08c-1.45,1.5-2.38,2.72-3.49,4.64l3.55-1.69-2.18,3.85,2-.04Z"/>
      <path d="M9.26,18.01l-2.43-3.01,2.2.33-2.09-3.28,3.07.97c-.72-2.07-1.72-3.51-3.69-4.78l1.47,2.86C3.73,9.1.68,4.97,1.7.08c1.88,3.99,4.6,7.03,8.23,9.48,1.92,1.29,3.12,3.24,2.1,5.62-1.09,4.14,3.82,5.58,1.57,7.4-.59.48-1.97-.97-2.38-1.58-.6-.89-3.25-1.25-1.95-2.99Z"/>
      <path d="M48.61,14.01l1.07-3.4c2.07-1.59,3.63-3.03,5.51-4.96-.01,3.77-2.33,7-6.58,8.36Z"/>
      <path d="M.02,5.02c2.81,4.54,6.34,4.83,6.74,9.07C2.98,12.53-.26,9.43.02,5.02Z"/>
      <path d="M27.68,39.38c3.86-1.19,7.37-.35,10.91-.63l.69-3.44.81,4.44c-4.37.08-8.12.27-12.41-.38Z"/>
      <path d="M27.01,42.91l-1.88-1.15c-.38-.23-1.09.54-1.93,1.09l-.11-5.78,3.66-.06.27,5.91Z"/>
      <path d="M48.27,17.5c.07-.78.52-2.12.91-2.53l6.09-3.56c-.83,3.32-3.18,5.3-6.99,6.09Z"/>
      <path d="M4.78,14.12c1.25.67,2.1,1.88,1.95,3.17-3.54-.43-5.71-2.75-6.69-5.69l4.74,2.52Z"/>
      <path d="M34.62,33.87l3.99-1.45c.26-1.28.54-2.48,1.45-3.69.23,1.99.22,3.46.07,5.59-2.14.02-3.05.05-5.51-.45Z"/>
      <path d="M40.07,11.43c-1.05-1.05-1.21-2.43-1.53-3.58-.94-.32-2.43-.79-3.57-1.48,1.8-.4,3.22-.36,5.24-.04l-.14,5.1Z"/>
      <path d="M46.94,20.07c.44-.77,1.51-1.77,2.3-1.95l4.37-.96c-1.62,2.39-3.82,3.1-6.67,2.9Z"/>
      <rect x="18.75" y="35.57" width="18.9" height=".49"/>
      <path d="M6.68,18.33c.48.13,1.37,1.5,1.44,1.68-2.41.25-4.85-.73-6.27-2.95l4.83,1.27Z"/>
      <path d="M50.2,21.29c-1.52,1.62-4.02,1.77-5.76.44,1.82-.8,3.68-.88,5.76-.44Z"/>
      <path d="M10.76,21.89c-1.82.85-3.82.63-5.83-.3,1.78-.84,3.87-.81,5.83.3Z"/>
      <path d="M29.13,22.55c-2.62-2.54-1.48-4.46-.07-7.5,1.29,2.52,1.55,5.24.07,7.5Z"/>
      <path d="M36.19,21.04c.14.31.17,1.1.11,1.38s-1.15.43-1.32.18c-.7-1.01-1.03-3.76-.41-5.18l1.62,3.61Z"/>
      <path d="M33.09,24.88l-2.63,1.73c.82-1.59,1.63-2.8,2.9-4.48l.68,1.41c.17.35-.6,1.1-.96,1.34Z"/>
    </g>
  </g>
</svg>