<?xml version="1.0" encoding="UTF-8"?>
<svg id="Warstwa_2" data-name="Warstwa 2" xmlns="http://www.w3.org/2000/svg" viewBox="0 0 53.68 56.37">
  <g id="game-icon-v7-magic-pixarts-store">
    <g id="game-icon-v7-magic-pixarts-store_156">
      <path d="M34.91,41.92l-7.88,8.73c-.81.9-2.21,1.88-3.51,2.26l-12.01-11.99c.06-2.27.39-4.72.73-6.92l-2.7,4.39-6.56-5.86c3.7-5.13,7.82-6.98,11.96-12.49-2.96,1.07-4.35,3.87-6.7,4.54-.58.17-1.86-1.44-1.28-2l14.93-14.23c.65-.62,1.62-.99,1.96-.65.55.55.51,1.75,0,2.26l-5.95,5.94c4.02-1.13,5.88-4.9,8.75-7.66l7.44-7.15c1.7,1.19,4.12,3.31,5.71,5.23.4.49-.78,1.73-1.66,2.81l3.72-.26,7.53,7.11c-1.01,2.05-1.49,3.6-1.68,5.51l-.61,5.9c2.8-1.63,1.19-6.55,2.8-10.48,1.66,2.39,2.74,4.32,3.81,6.67-2.83,3.62-7.45,6.07-8.44,7.71-3.07,5.13-6,8.84-12.26,8.91l1.92,1.73ZM29.89,22.14l6.85-2.26c-5.36-1.59-10.69-.65-14.67,2.91,2.49-.03,5.47.13,7.83-.65ZM39.19,25.66c-4.81-2.05-9.58-1.11-14.39.41l-5.34,1.69c9.11,3.27,8.77-.61,19.72-2.1ZM18.96,34.22c7.64.19,11.39.93,17.36-3.3-2.08-1.18-17.16.77-17.36,3.3Z"/>
      <path d="M21.09,54.9l-3.89-3.88c-1.54-1.54-3.92-2.23-3.38-5.41l7.52,7.13c5.1,4.83,7.74-5.22,16.82-11.91,8.1-5.96,4.81-6.68,13.23-13.13-.23,2.13-1.19,4.1-2.77,5.58l-7.14,6.73c-.92.87-2.77,1.57-3.54,2.82-1.41,2.3-3.18,3.74-5.19,5.45-5.57,4.75-7.34,10.94-11.67,6.61Z"/>
      <path d="M11.29,44.67c-1.9-1.59-9.44-7.34-7.83-9.61,3.61,2.39,6.8,4.82,7.83,9.61Z"/>
      <path d="M.92,34.2c-2.54-1.62.89-7.47,1.74-6.95.45.27,1.67,1.03,1.64,1.01l-3.39,5.94Z"/>
      <path d="M29.11,4.41c-.29.31-1.91-.83-1.69-1.19.71-1.17,3.06-4.49,5.31-2.71l-3.63,3.89Z"/>
      <path d="M7.63,26.63c-1.17,2.02-2.19.15-4.63-.5.43-.52,1.86-1.72,2.67-1.79s2.37,1.59,1.97,2.29Z"/>
      <circle cx="25.82" cy="5.93" r="1.64"/>
    </g>
  </g>
</svg>