<?xml version="1.0" encoding="UTF-8"?>
<svg id="Warstwa_2" data-name="Warstwa 2" xmlns="http://www.w3.org/2000/svg" viewBox="0 0 42.54 42.26">
  <g id="game-icon-v7-magic-pixarts-store">
    <g id="game-icon-v7-magic-pixarts-store_168">
      <path d="M7.6,16.79c4.32-1.91,9.26-3.23,14.4-1.86.6.16,1.21,1.62,1.27,2.36-8.03-2.05-19.31.88-20.17,9.74-.29,2.98.82,5.93,3.4,8.23,7.2,6.43,18.25,7.56,26.34,2.21,3.38-2.23,4.86-6.29,3.78-9.95-.7-2.37-2.41-4.07-4.17-6.11,2.96-3.25,6.24,4.45,7.01,6.93-.15-3.12-1.3-5.69-4-8.24l4.18-2.76c.15-.1.81.62.64.69l-.98.41c-1.6,2.49,1.32,5,1.67,7.32.74,4.9-2.68,10.62-7.08,13.21-7.92,4.67-17.13,4.08-25.01-.04C3.43,36.08.11,31.11,0,24.97-.21,12.99,10.24,6.03,21.06,5.11l-.3,5.26c-.05.82.75,2.48,1.03,3.39-4.89-.27-9.82-.39-14.2,3.03ZM19.3,10.48c.56-.59.96-1.56.76-1.95-.16-.32-.83-1.02-1.25-1.2-2.9-1.23-7.04.53-8.06,3.71,2.26,1.83,6.29,1.83,8.54-.56Z"/>
      <path d="M5.55,32.92l2.05,1.29-2.38-3.46,1.26.79-1.43-3.79c4.28,6.57,11.3,9.36,18.82,8.29,4.56-.65,8.27-2.56,11.35-6.48-.8,3.81-4.19,4.77-7.43,6.89l2.62-.17-3.06,2.01,4.03-1.11c-3.84,3.04-8.56,3.19-13.07,2.83-5.3-.42-9.85-2.76-12.75-7.07Z"/>
      <path d="M29.55,1.9c.85,2.58-.48,3.92-2.21,5.68.99-.41,2.69-1.58,3.46-1.11,1.49.9,3.04,2.66,4.48,2.84s1.97.38,3.05,1.49l-.27-1.28c-.06-.31.75-.73,1.07-.93l1.88-.8c-.97,2.03-1.37,2.98-1.67,4.77-.32,1.92-3.24,2.19-4.61,1.93l-.47-4.29c-1.92.53-3.05,1.32-4.67,2.71-2.86-1.91-5.08-5.42-4.89-8.9l4.85-2.1Z"/>
      <path d="M37.12,8.58c-2.52.05-5.33-1.75-6.22-3.9-.49-1.18-.57-2.47-.85-3.89,5.33-.45,9.18.87,10.59,6.38-.93.49-2.37,1.38-3.52,1.41Z"/>
      <path d="M30.38,20.98c-3.99.51-5.96-2.15-6.73-5.3-.5-2.02-1.94-3.84-2.03-5.89,2.02,2.9,3.03,6.09,6.41,7.21-3.08-2.94-7.84-8.92-4.89-13.26.52,9.08,5.95,8.22,5.28,12.8-.19,1.28.77,2.69,1.91,2.61l4.94-.36c-1.42,1.16-3.21,1.98-4.89,2.2Z"/>
      <path d="M30.24,17.9c-1.42-.61-1.11-3.5.38-4.53l2.5-1.72c1.48,2.53.2,4.98-2.89,6.25Z"/>
      <path d="M32.58,17.93c1.33-2.61,3.51-1.08,8.54-3.8-1.64,3.37-5.2,3.99-8.54,3.8Z"/>
      <path d="M22.94,2.8c-.38-1.65,6.04-4.32,5.77-1.7-2.03,1.21-3.53,1.96-5.77,1.7Z"/>
      <path d="M42.12,14.14c-.68.16-1.9-.96-1.84-1.72s.44-1.82.96-2.86c1.39,1.33,1.63,2.71.88,4.59Z"/>
      <path d="M41.41,24.45c-1.15-1.35-1.72-3.36-1.04-5.36,1.37,1.35,1.77,3.31,1.04,5.36Z"/>
      <path d="M18.5,9.51c-1.62,1.82-3.99,2.18-5.93,1.36.55-2.23,3.08-3.16,5.05-2.78.39.08,1.12,1.15.88,1.41Z"/>
    </g>
  </g>
</svg>