<?xml version="1.0" encoding="UTF-8"?>
<svg id="Warstwa_2" data-name="Warstwa 2" xmlns="http://www.w3.org/2000/svg" viewBox="0 0 46.9 46.1">
  <g id="game-icon-v7-magic-pixarts-store">
    <g id="game-icon-v7-magic-pixarts-store_99">
      <path d="M25.11,1.03c-4.69,2.35-8.98,4.55-13.2,7.29-2.91,1.89-10.21,8.17-11.16,11.43,3.75,2.04,5.38-2.59,9.46-4.78-1.34,2.16-5.66,4.66-6.15,7.37l4.29-1.03c-1.53.97-2.73,1.44-4.14,2.08l.25,5.09c-1.79-4.39-1.02-2.96-1.22-7.07-.49-.52-1.92-.78-2.88-.7-.39,1.92-.41,3.88-.28,5.82l2.66-1.79-2.09,3.14c.75,8.25,3.48,9.51,9.61,13.88,2.89,2.06,5.85,3.63,9.35,4.24.46.08,1.3-.09,1.5-.42.16-.28.18-1.16.08-1.5l-.81-2.73c-6.05-.42-6.98-1.19-11.36-5.34,2.27.9,4.09,2.26,6.13,3.3,3.24,1.65,6.74,1.03,10.33,1.16l-3.74,1.4c-.1,1.44-.04,3.05.66,4.23,6.17-.37,10.5-6,13.84-10.48l.27-5.95c-1.67,2.3-3.35,4.45-5.6,6.11,2.8-2.93,4.54-5.92,6.15-9.48,1.08-2.39,3.39-4.38,4.7-6.69.65-1.14,1.19-2.11,1.89-3.2-.82,4.81-5.6,8.26-5.84,11.69l-.42,5.97c1.71-2.08,2.62-4.17,3.81-6.41l4.44-8.36c.61-1.16,1.42-3.14,1.25-4.44-.45-3.65-1.49-6.84-2.86-10.35l-3.67,1.4.49,1.12c-2.1-1.25-3.61-1.11-5.78-.64,1.28-2.1,5.33-.08,7.92-2.88-3.42-1.93-12.64-4.63-15.61-3.02-1.24.67-2.12,2.4-2.64,3.48l3.72-.75c-5.75,2.28-7.24,4.5-12.24,7.23,3.09-3.9,7.09-4.4,8.9-9.42ZM26.31,11.48c.24,1.16-.53,2.37-1.64,2.93l-3.07,1.54c5.61.88,8.75.53,11.06-5.3,1.57,3.98-.34,7.92-4.06,9.56-2.34,1.03-5.2,2.15-4.83,4.82.14,1.01,1.07,2.12,2.24,2.13,3.81.03,2.71-6.24,7.01-6.4-.88,1.24-1.49,2.45-1.76,3.9-.58,3.19-3.08,5.84-6.25,5.76-3.67-.08-6.87-3.13-5.79-6.71.72-2.39,3.23-3.2,5.27-4.51-1.36-.31-3.1-.46-4.73-.11-3.99.84-5.72,5.07-4.08,8.58,1.93,4.13,6.54,6.07,10.79,4.72-2.31,1.85-5.27,1.82-7.38,1.22-3.01-.86-4.96-3.02-5.99-5.68-1.31-3.38-.79-7.02,1.65-9.94,3.59-4.3,8.69-2.77,11.56-6.49Z"/>
    </g>
  </g>
</svg>