<?xml version="1.0" encoding="UTF-8"?>
<svg id="Warstwa_2" data-name="Warstwa 2" xmlns="http://www.w3.org/2000/svg" viewBox="0 0 36.92 51.07">
  <defs>
    <style>
      .cls-1 {
        fill: #fff;
      }
    </style>
  </defs>
  <g id="Icon-Set-V1">
    <g id="icon-set-v1-pixarts-store_100">
      <path class="cls-1" d="M36.87,25.65c0-1.37-.56-2.76-1.53-3.49-.9-.68-2.22-.8-3.62-.86-.02-2.97.09-5.9-.11-8.92-.34-5.13-3.71-9.72-8.49-11.54C18.94-.74,14.42-.06,10.71,2.61c-3,2.16-5.39,5.87-5.46,10.16l-.14,8.62C2.04,21.01,0,22.95,0,25.33v21.83c0,1.96,1.57,3.91,3.63,3.91l29.88-.02c2.3,0,3.4-2.41,3.4-4.21l-.05-21.19ZM22.07,43.85l-7.24-.11,1.51-6.97c-1.88-1.44-2.78-3.6-1.78-5.63.98-1.98,3.15-3.16,5.41-2.27,1.5.59,2.45,2.01,2.67,3.41.27,1.71-.47,3.23-1.92,4.44l1.35,7.14ZM11.02,21.36l.03-8.21c.02-4.02,3.25-7.07,7.06-7.22,3.74-.14,7.65,2.73,7.7,6.8l.08,8.6-14.87.02Z"/>
    </g>
  </g>
</svg>