<?xml version="1.0" encoding="UTF-8"?>
<svg id="Warstwa_2" data-name="Warstwa 2" xmlns="http://www.w3.org/2000/svg" viewBox="0 0 63.37 64.08">
  <defs>
    <style>
      .cls-1 {
        fill: #fff;
      }
    </style>
  </defs>
  <g id="Icon-Set-V1">
    <g id="icon-set-v1-pixarts-store_89">
      <path class="cls-1" d="M13.93,46.03c-3.49,3.76-6.96,7.16-10.66,10.72-1.35-.32-3.66.94-3.21,2.4.66,1.75,3.05,4.01,4.59,4.73,2.22,1.03,2.13-2.14,2.84-3,3.18-3.86,6.5-7.04,9.99-10.27.76-.71,1.82-1.18,2.33-2.02l-4.56-4.34c-.61.25-.99,1.42-1.33,1.78Z"/>
      <rect class="cls-1" x="14.93" y="34.61" width="24.18" height="4.36" transform="translate(-18.1 29.87) rotate(-44.98)"/>
      <path class="cls-1" d="M39.4,19.91c1.2-2.27,2.49-3.86,3.72-5.72-1.79-2.74-1.96-5.58-.76-8.55-8.34.74-15.17,7.08-15.85,15.7,5.94-1.17,5.22-.36,10.42,1.42l-2.14,2.51c.98,1.58,2.21,2.9,3.77,3.71l3.22-2.85-.3,2.6c1.56,2.67,1.87,5.7.71,8.78,8.53-.23,15.32-7.97,15.8-16.27-3.03,1.09-5.93,1.12-8.51-.55l-3.39,1.76,3.45-4.31c-.91-1.7-2.39-3.1-4.14-3.94-2.18,2.04-3.65,4.15-6,5.71Z"/>
      <path class="cls-1" d="M20.91,20.69c-.16,2.02.08,3.97.65,5.57,1.17-1.63,2.21-2.78,3.64-3.98-.03-10.18,8.08-17.56,17.86-18.24l3.82-3.73c-13.04-2.19-24.92,7.48-25.96,20.38Z"/>
      <path class="cls-1" d="M59.33,20.25c.11,10.11-7.73,18.64-18.09,18.73-1.22,1.6-2.3,2.55-3.6,3.71,7.42,1.41,14.62-1.15,19.55-6.24,4.97-5.14,7.35-12.4,5.63-19.76-1.2,1.34-2.2,2.46-3.49,3.56Z"/>
      <path class="cls-1" d="M50.71,16.43l1.8-5.36c-2.2.57-3.55,1.06-5.34,1.99,1.28,1.44,1.93,2.19,3.54,3.37Z"/>
    </g>
  </g>
</svg>