<?xml version="1.0" encoding="UTF-8"?>
<svg id="Warstwa_2" data-name="Warstwa 2" xmlns="http://www.w3.org/2000/svg" viewBox="0 0 46.61 57.06">
  <defs>
    <style>
      .cls-1 {
        fill: #fff;
      }
    </style>
  </defs>
  <g id="Icon-Set-V1">
    <path id="icon-set-v1-pixarts-store_25" class="cls-1" d="M15.13,34.55c-6.95,2.38-7.56-.53-11.74,3.74-.95.97-2.2,1.69-3.39,2.4,4.09,1.18,4.6-4.39,10.3-3.09l-1.48,4.37c-.54,1.58-1.65,2.8-2.97,4.09,6.79-.69,3.27-8.33,10.85-8.87-1.28,2.91-.73,5.7.42,8.34l-3.38,4.27c2.11-.28,3.05-1.42,4.3-2.59,2.86,2.5,2.45,6.2,2.5,9.87,6.19-8.73-8.24-14.6,1.69-21.8.89,1.99,2.1,3.8,3.11,5.51-.07,1.69-1.92,4-.77,5.45.91-1.67,1.54-2.78,2.53-4.16,3.88,3.09,2.15,7.08,1.88,11.02,1.85-2.14,2.7-4.53,2.67-7.62,2.16-.46,3.9,1.12,5.34,2.97.41-3.06-2.37-4.72-5.25-5.05l-3.79-4.34c-1.26-1.44-2.32-3.04-2.46-5.03,2.72,1.75,5.43,2.51,8.81,2.94.69,1.35,1.26,3.09,2.03,5.11.54-1.44.49-3.01.42-5.12,5.61.9,4.93,6.79,9.86,5.94-5.45-2.71-2.21-7.06-10.94-8.56-3.19-.55-7.94-1.38-9.47-4.79-1.68-3.75-.34-8.51,1.2-12.35,11.14,1.32,16.69-6.72,17.71-17-6.68-1.13-19.66,3.69-19.6,9.9l.05,5.17c.02,1.95-1.31,3.55-2.12,5.58-.45-.51-1.14-1.67-1.15-2.24-.05-8.59-9.96-10.66-17.06-9.61,1.36,8.05,6.88,14.69,15.44,12.48,1.84,2.53,2.65,6.06,1.08,8.91-1.33,2.41-4.14,3.33-6.62,4.18Z"/>
  </g>
</svg>