<?xml version="1.0" encoding="UTF-8"?>
<svg id="Warstwa_2" data-name="Warstwa 2" xmlns="http://www.w3.org/2000/svg" viewBox="0 0 46.85 35.82">
  <defs>
    <style>
      .cls-1 {
        fill: #fff;
      }
    </style>
  </defs>
  <g id="Icon-Set-V1">
    <g id="icon-set-v1-pixarts-store_34">
      <path class="cls-1" d="M24.27,31.7c5.57-3.38,11.19-4.82,18.07-3.88l.1-27.4c-6.43-1.19-13.2.56-18.15,4.6v26.69ZM32.74,23.11l-5.1,2.04c-.26.1-.87-.14-.82-.35.05-.2.34-.88.53-.99,6.22-3.38,7.34-1.49,5.38-.71ZM38.38,18.59c-7.19-.51-10.98,3.56-11.54,2.38-.98-2.08,10.87-5.33,12.46-3.35.18.22-.56.99-.93.97ZM38.54,14.48c-6.88-.4-11.49,3.56-11.69,2.38-.04-.24.12-.9.35-1.05,3.11-1.97,7.5-3.17,11.29-2.82.25.02.68.34.83.49.19.21-.42,1.01-.78.99ZM39.29,5.3c.21.15-.37,1.15-.71,1.11-3.73-.45-8.18,1.06-11.11,2.64-3.39-1.62,9.14-5.56,11.82-3.75ZM39.32,9.4c.21.18-.39,1.05-.67,1.04-3.86-.16-7.47.65-10.67,2.52-5.61-.32,8.67-5.89,11.34-3.56Z"/>
      <path class="cls-1" d="M4.46.38l.04,27.43c6.69-.9,12.42.35,18.03,3.93l.03-26.27C19.64,1.2,9.43-.92,4.46.38ZM19.95,21.13c-.08.21-.71.23-.98.06-6.27-3.85-10.78-1.88-11.43-3.32-1.06-2.34,13.42.41,12.42,3.26ZM20.05,24.78l-.83.65c-3.35-2.2-7.03-2.78-10.73-2.85-.29,0-.86-.36-.95-.58-.1-.28.56-.83.92-.85,5.84-.39,12.4,2.99,11.58,3.63ZM19.38,17.26c-2.84-1.68-7.24-3.09-10.82-2.8-.29.02-.96-.44-1.03-.67-.61-2.09,10.91-.21,12.54,2.74.11.2-.48.82-.69.73ZM19.97,12.98c-.65,1.04-4.04-2.88-11.53-2.58-.35.01-.88-.46-.92-.74-.35-2.39,13.96.93,12.45,3.33ZM19.53,7.67c.52.33.58,1.03-.03,1.65-3.33-2.23-7.3-3.08-10.91-3.01-.31,0-.85-.3-1.01-.47-1.41-1.43,6.17-1.86,11.96,1.83Z"/>
      <path class="cls-1" d="M44.19,4.6l-.07,27.18-14.78.1c-.88,0-2.17.55-3.04.85-4.64,2.18-5.31-.9-9.6-.89H3.96c-.5.01-1.29-.61-1.29-1.19V4.58C2.08,3.99.05,4.32.05,5.18L0,32.76c0,.75.7,1.51,1.41,1.53,5.55.13,10.93-.33,16.46.23,1.66.17,3.35,1.31,5.29,1.3,2.07-.01,3.87-1.05,5.7-1.27,5.48-.65,10.94-.05,16.54-.29.74-.03,1.45-.69,1.45-1.47l-.02-27.67c-.12-.82-2.37-1.17-2.64-.51Z"/>
    </g>
  </g>
</svg>