<?xml version="1.0" encoding="UTF-8"?>
<svg id="Warstwa_2" data-name="Warstwa 2" xmlns="http://www.w3.org/2000/svg" viewBox="0 0 50.7 45.93">
  <defs>
    <style>
      .cls-1 {
        fill: #fff;
      }
    </style>
  </defs>
  <g id="Icon-Set-V1">
    <path id="icon-set-v1-pixarts-store_45" class="cls-1" d="M31.66.15l8.42,2.63c2.32.73,7.01,3.7,5.55,6.73-.32.67-1.12,1.54-1.77,2.1-.41-4.24-8.4-6.3-11.56-5.49l5.04,2.56c.5.25,1.2,1.43,1.14,1.99-.32,2.75-6.14,3.59-7.79,3.86l3.15-1.89c-.36-.77-1.13-1.47-1.77-1.65-4.34-1.24-9.18-1.04-13.25.76-.32.14-.76.75-.87,1.03-.11.28.57,1.03.83,1.11l5.79,1.74c-3.29.97-18.32-.81-18.41-5.74-.05-2.8,5.29-5.4,7.43-5.96l11.03-2.91C18.09-.96,6.61,1.3,1.44,6.48c-1.94,1.94-1.89,5,0,7,1.83,1.93,4.12,3.3,6.68,4.2,10.12,3.57,20.65,3.47,30.91,1.02-8.47,5.6-23.77,6.25-31.85,1.04.46,3.32,3.8,3.28,5.01,5.07,1.19,1.76,1.84,3.67,4.07,4.75,5.81,2.81,12.09,3.46,18.77,2.83-4.78,2.87-10.31,2.76-15.68.86.61,2.99,5.75,4.6,8.9,4.76-2.5,1.34-5.1,1.36-7.7,0-.2,3.86,2,7.29,5.48,7.91-1.22-4.58,2.54-4.6,6.11-7.59.92-.77,1.96-1.9,2.94-2.16,2.95-.79,3.52-3.4,4.83-5.52,1.04-1.68,3.85-2.37,3.51-5.14-5.98,4.25-15.85,4.2-22.15,1.81,7.88-.02,18.02-.94,24.48-6.24,2.09-1.72,1.99-4.07,1.65-6.34,1.21-1.6,3.56-3.14,3.3-5.83C50.04,2.04,36.8-.69,31.66.15Z"/>
  </g>
</svg>