<?xml version="1.0" encoding="UTF-8"?>
<svg id="Warstwa_2" data-name="Warstwa 2" xmlns="http://www.w3.org/2000/svg" viewBox="0 0 48.79 50.33">
  <defs>
    <style>
      .cls-1 {
        fill: #fff;
      }
    </style>
  </defs>
  <g id="Icon-Set-V1">
    <g id="icon-set-v1-pixarts-store_55">
      <path class="cls-1" d="M47.02.02l-12.03,2.86L13.48,26.74c1.24,1.4,2.31,2.43,3.63,3.49l15.65-15.2c1.68-1.63,3.42-2.98,5.35-4.07-1.41,2.13-2.67,3.81-4.23,5.51l-14.61,15.91c1.19,1.3,2.32,2.4,3.58,3.46l23.27-22.14,2.63-11.99c.09-.4-.05-1.13-.28-1.39-.19-.21-1.11-.38-1.47-.29Z"/>
      <rect class="cls-1" x="12.03" y="23.98" width="5.27" height="22.04" transform="translate(-20.58 20.94) rotate(-45.51)"/>
      <path class="cls-1" d="M8.07,49.33c.51-.72.39-1.81.11-2.93l5.48-5.63-4.36-4.28-5.49,5.5c-1.2-.17-2.53-.26-3.22.6-.74.92-.83,2.32.01,3.26,1.98,2.2,5.39,6.38,7.47,3.47Z"/>
    </g>
  </g>
</svg>