<?xml version="1.0" encoding="UTF-8"?>
<svg id="Warstwa_2" data-name="Warstwa 2" xmlns="http://www.w3.org/2000/svg" viewBox="0 0 42.15 48.87">
  <defs>
    <style>
      .cls-1 {
        fill: #fff;
      }
    </style>
  </defs>
  <g id="Icon-Set-V1">
    <g id="icon-set-v1-pixarts-store_130">
      <path class="cls-1" d="M19.44,48.81l-5.34-7.87-1.36-27.31c3.69,2.72,6.86,5.5,10.16,8.49l-3.46,26.69Z"/>
      <path class="cls-1" d="M27.17,42.13l-5.91,6.74,3.9-26.46c2.56-2.17,4.82-4.14,7.73-5.88l-5.72,25.6Z"/>
      <polygon class="cls-1" points="23.23 19.43 13.07 11.61 23.09 0 23.23 19.43"/>
      <path class="cls-1" d="M12.05,41.73l3.17,4.82-5.62-2.87L.28,26.64l6.1.59,5.37,11.44c.14.66-.08,2.49.29,3.06Z"/>
      <polygon class="cls-1" points="33.08 13.91 25.24 19.48 25.01 .87 33.08 13.91"/>
      <path class="cls-1" d="M33.02,43.52c-1.57,1-3.03,1.83-4.89,2.43l9.65-16.99c1.37-.29,2.62-.41,4.26-.41l-9.02,14.97Z"/>
      <path class="cls-1" d="M9.31,20.13l-2.28,4.21c-.1.18-.85.09-.9.29l-.32,1.14-5.8-.54,1.76-8.56,2.29,3.32-.42-3.43,5.68,3.57Z"/>
      <polygon class="cls-1" points="42.15 26.83 37.7 27.09 35.62 22.49 40.83 19.58 42.15 26.83"/>
      <path class="cls-1" d="M30.45,38.18l2.07-9.27c.43-1.92,1.05-3.51,1.95-5.37l2.09,4.41-6.11,10.23Z"/>
      <polygon class="cls-1" points="11.5 34.14 7.74 27.01 10.21 21.57 11.2 24.7 11.5 34.14"/>
    </g>
  </g>
</svg>