<?xml version="1.0" encoding="UTF-8"?>
<svg id="Warstwa_2" data-name="Warstwa 2" xmlns="http://www.w3.org/2000/svg" viewBox="0 0 39.53 42.59">
  <defs>
    <style>
      .cls-1 {
        fill: #fff;
      }
    </style>
  </defs>
  <g id="Icon-Set-V1">
    <path id="icon-set-v1-pixarts-store_62" class="cls-1" d="M24.19,5.92c.08.21.39.68.59.81l3.84,2.43-13.9,14.89-5.8-.11L0,33.55c2.58,1,4.81,1.02,7.11,1.62.36,2.72.13,4.78,1.24,7.42l7.78-8.21c.78-.82,1.08-2.09,1.11-3.26l.13-4.53,13.87-14.8,2.26,4.05c.18.33.96.83,1.31.73.28-.08.74-.64.82-.97l3.9-15.61c-5.03,1.44-10.17,3.2-14.55,4.73-.44.15-.89.91-.78,1.19Z"/>
  </g>
</svg>