<?xml version="1.0" encoding="UTF-8"?>
<svg id="Warstwa_2" data-name="Warstwa 2" xmlns="http://www.w3.org/2000/svg" viewBox="0 0 50.1 44.99">
  <defs>
    <style>
      .cls-1 {
        fill: #fff;
      }
    </style>
  </defs>
  <g id="Icon-Set-V1">
    <g id="icon-set-v1-pixarts-store_32">
      <path class="cls-1" d="M23.59,30.07c-4.13-1.15-2.38-3.48-8.58-3.39-.98,2.1-1.38,4.25-1.43,6.62,3.34.69,6.47,1.13,9.66,2.2,4.9,1.64,8.1,4.8,13.26,4.7l13-.24c.52-3.85-.16-7.81-3.74-9.36-2.04-.88-4.11-.96-6.49-.72-2.13-1.66-3.98-3.82-5.37-6.14l3.8-15.53c-1.18-.59-2.2-1.02-3.29-1.19l-13.78-2.18c-.73-.11-1.53.3-1.58.93-.1,1.36,1.29,1.01,4.19,3.04,3.25,2.27,4.47,6.14,3.32,9.93-1.74,5.75,2.89,7.92.31,10.56-.66.68-2.16,1.07-3.28.76Z"/>
      <path class="cls-1" d="M25.49,27.92c1.11-1-2.59-3.87-.89-9.35,1.13-3.64-.27-7.16-3.73-8.89C14.3,6.38,7.35,5.59,0,0c.16,7.88,8,11.03,13.88,13.49-4.33-.14-8.15-1.6-12.01-3.58.99,6.99,8.07,8.64,13.86,10.27-2.94.55-5.8.08-8.71-.63.94,2.27,2.78,3.75,5.03,4.47,4.78,1.53,6.74,0,9.35,2.48.94.89,2.97,2.43,4.1,1.41Z"/>
      <path class="cls-1" d="M49.54,42l-15.21-.08c-3.76-.02-6.92-2.63-10.32-4.01-3.48-1.41-7.01-2.03-10.69-2.68-.63,1.78-.96,3.49-.38,5.14l9.51,2.16,1.11-2.07,5.75,2.94c1.53.78,3.59,1.62,5.52,1.59l14.21-.2c1.03-.01,1.49-2.78.49-2.79Z"/>
    </g>
  </g>
</svg>