<?xml version="1.0" encoding="UTF-8"?>
<svg id="Warstwa_2" data-name="Warstwa 2" xmlns="http://www.w3.org/2000/svg" viewBox="0 0 18.01 52.12">
  <defs>
    <style>
      .cls-1 {
        fill: #fff;
      }
    </style>
  </defs>
  <g id="Icon-Set-V1">
    <g id="icon-set-v1-pixarts-store_36">
      <path class="cls-1" d="M12.31,11.14C13.33,6.28,11.16,1.65,6.5,0c.59,2.84.01,5.33-1.64,7.43l-3.2,4.07C.13,13.45-.43,15.99.35,18.35c.68,2.03,2.16,4.2,4.68,4.68-2.44-4.51-.27-7.82,2.95-10.78.06,2.17.62,6.7,3.12,6.31.51-.08,1.13-.69,1.77-1.32,1.02,1.71.97,3.74.32,5.93,2.48-.97,4.07-3.27,4.61-5.83.71-3.37-.51-6.91-2.85-9.23-.54,1.51-.94,2.92-2.64,3.03Z"/>
      <path class="cls-1" d="M4.73,34.12l1.9,17.02c.9,1.13,4.5,1.51,4.76-.17l1.93-17.02c-3.12.36-5.66.34-8.59.16Z"/>
      <path class="cls-1" d="M.28,24.92c-.2,1.11-.2,2.73.3,3.35,1.28.74,2,1.98,2.48,3.41,3.72,1.24,7.93.91,11.86.2l1.24-2.77c.86-.59,1.61-1.12,1.65-1.73.05-.82-.12-1.94-.41-2.45H.28Z"/>
    </g>
  </g>
</svg>