<?xml version="1.0" encoding="UTF-8"?>
<svg id="Warstwa_2" data-name="Warstwa 2" xmlns="http://www.w3.org/2000/svg" viewBox="0 0 47.39 46.01">
  <defs>
    <style>
      .cls-1 {
        fill: #fff;
      }
    </style>
  </defs>
  <g id="Icon-Set-V1">
    <g id="icon-set-v1-pixarts-store_39">
      <path class="cls-1" d="M14.99,18.01l-.32,5.46c-1.84-.66-1.24-2.12-1.54-3.57l-12.07-.06c-.32,0-.99.27-1.05.54-.04.21.03.86.16,1.12,2.9,5.94,8.99,8.18,15.25,9.16,2.19.35,3.78,1.98,3.55,4.31-.55,5.61-6.7,4.84-7.29,6.54-.49,1.42-.36,3-.2,4.5h7.96c4.02-3.47,9.81-3.39,13.77,0h7.78c.23-3.27.7-4.82-2.21-5.83-2.18-.75-4.28-2.11-4.92-4.41-.88-3.19.52-6.52,3-8.61,4.59-3.86,8.68-2.44,10-5.33.6-1.3.74-2.74.12-3.88l-31.99.06Z"/>
      <rect class="cls-1" x="16.5" y="3.83" width="14.64" height="8.51" transform="translate(10.62 29.5) rotate(-77.1)"/>
      <path class="cls-1" d="M45.01,10.53l-15.23-3.02c-.42,1.38-.67,2.53-.7,3.71l15.28,3.9c.7-2.07.93-3.08.65-4.59Z"/>
      <path class="cls-1" d="M17.73,4.86c-.92,1-1.54,3.64.07,3.95l.91-3.37c.09-.34-.79-.78-.98-.57Z"/>
    </g>
  </g>
</svg>