<?xml version="1.0" encoding="UTF-8"?>
<svg id="Warstwa_2" data-name="Warstwa 2" xmlns="http://www.w3.org/2000/svg" viewBox="0 0 49.87 34.73">
  <defs>
    <style>
      .cls-1 {
        fill: #fff;
      }
    </style>
  </defs>
  <g id="Icon-Set-V1">
    <g id="icon-set-v1-pixarts-store_24">
      <path class="cls-1" d="M6.97,6.2c4.24,4.07,9.93,4.07,14.22.1,2.31-2.14,5.21-2.14,7.53-.02,4.39,4.01,10.19,4.02,14.45-.21,2.76-2.74,5.92.16,6.66-3.01.19-.82-.27-2.48-1-2.71-2.93-.9-5.9-.04-8.16,2.21-2.8,2.79-6.48,2.84-9.37.12-3.77-3.55-8.92-3.57-12.66.02-2.79,2.68-6.37,2.62-9.09-.04C5.99-.83-.26-.93,0,2.61c.28,3.76,3.77.54,6.96,3.6Z"/>
      <path class="cls-1" d="M48.47,25.7c-2.81-.68-5.55.09-7.73,2.24-2.71,2.67-6.39,2.98-9.31.28-3.72-3.45-8.59-3.9-12.48-.31-2.92,2.7-6.63,2.91-9.58.11-2.29-2.17-5.03-3.14-8.08-2.29-.71.2-1.33,1.75-1.24,2.55.4,3.5,3.57.06,7.34,3.58,4.05,3.77,9.6,3.83,13.57-.12,2.39-2.38,5.41-2.22,7.9.02,4.26,3.84,9.76,4.11,13.87-.05,3.13-3.16,6.71-.13,7.12-3.47.1-.83-.62-2.35-1.39-2.54Z"/>
      <path class="cls-1" d="M7.25,19.04c4.01,3.86,9.62,3.87,13.74.08,2.37-2.18,5.28-2.4,7.73-.13,4.27,3.95,10.07,4.03,14.27-.1,2.83-2.78,6.84.19,6.76-3.66-.06-3.16-5.48-3.32-9.32.17-2.84,2.58-6.43,2.64-9.23.02-3.71-3.46-8.81-3.48-12.5,0-2.73,2.58-6.24,2.61-9,.05C5.68,11.74-.48,12.04.05,15.67c.49,3.4,3.9.19,7.2,3.36Z"/>
    </g>
  </g>
</svg>