<?xml version="1.0" encoding="UTF-8"?>
<svg id="Warstwa_2" data-name="Warstwa 2" xmlns="http://www.w3.org/2000/svg" viewBox="0 0 44.8 62.73">
  <defs>
    <style>
      .cls-1 {
        fill: #fff;
      }
    </style>
  </defs>
  <g id="Icon-Set-V1">
    <path id="icon-set-v1-pixarts-store_07" class="cls-1" d="M40.31,13.47c2.42-4.63,1.49-10.06-3.94-12.38-3.05-1.3-6.4-1.49-9.34-.3-7.22,2.91-5.6,9.53-11.21,14.2-2.36,1.97-5.28,3.38-8.22,4.72C1.14,22.66-1.61,28.29.95,33.99l1.67-3.16c1.64-3.11,5-5.39,9.31-5.81-2.49,3.57-3.4,7.28-1.82,10.95,1.83,4.26,6.85,6.32,11.01,9.94,6.23,5.42,2.94,12.26-3.05,16.83,11.3-3.85,21.32-12.57,14.4-22.76-2.71-3.99-5.66-9.43-1.41-13.76,2.2,4.66,7.04,4.27,10.17,7.55,1.35,1.42.93,3.34,1.35,5.18,4.54-4.68,1.25-8.48-2.51-12.14-4.52-4.41-2.27-8.54.23-13.32ZM24.36,10.17c.69-1.51,2.45-4.75,4.75-3.6.5.25.64,1.62.11,1.94-1.59.96-3.02,1.27-4.87,1.66ZM31.23,15.25c-.4,2.23-3.4,6.88-5.55,5.34.63-1.74.87-3.65.27-5.35-.56-1.58.94-2.7,2.55-2.74,1.81-.05,3.01,1.17,2.73,2.75ZM35.43,13.14l-2.06-3.55c-.22-.38.27-1.43.71-1.6.51-.2,1.87.15,2.09.61.67,1.42.35,2.97-.74,4.54Z"/>
  </g>
</svg>