<?xml version="1.0" encoding="UTF-8"?>
<svg id="Warstwa_2" data-name="Warstwa 2" xmlns="http://www.w3.org/2000/svg" viewBox="0 0 50.43 36.71">
  <defs>
    <style>
      .cls-1 {
        fill: #fff;
      }
    </style>
  </defs>
  <g id="Icon-Set-V1">
    <g id="icon-set-v1-pixarts-store_54">
      <path class="cls-1" d="M47.15,7.2c-1.7.41-1.82,2.09-1.53,3.71l-10.63,8.35-7.76-13.39c1.26-1.55,1.63-3.57.36-4.86-1.43-1.46-3.54-1.24-4.74-.04-1.44,1.45-.94,3.4.37,4.92l-7.78,13.5-9.8-7.71c-1.48-1.17.37-4.27-2.87-4.56C1.14,6.98.12,8.03,0,9.51c-.1,1.37,1.01,2.17,2.5,2.61l3.51,16.69h38.37s3.46-16.69,3.46-16.69c1.63-.45,2.85-1.48,2.54-2.97-.34-1.65-1.95-2.27-3.23-1.96Z"/>
      <rect class="cls-1" x="5.73" y="31.18" width="38.88" height="5.53"/>
      <path class="cls-1" d="M35.49,16.52l4.26-3.45-1.2-4.57c1.24-1.06,1.4-2.18.64-3.17-.65-.85-2.13-1.03-3.05-.19-.63.57-.71,1.82-.22,2.86l-3.18,3.68,2.75,4.82Z"/>
      <path class="cls-1" d="M15.07,16.53l2.69-4.92-3.35-3.53c.48-1.26.46-2.54-.42-3.1-.95-.61-2.29-.37-2.86.48-.65.97-.19,2.15.71,3.04l-1.14,4.8,4.36,3.24Z"/>
    </g>
  </g>
</svg>