<?xml version="1.0" encoding="UTF-8"?>
<svg id="Warstwa_2" data-name="Warstwa 2" xmlns="http://www.w3.org/2000/svg" viewBox="0 0 46.33 46.34">
  <defs>
    <style>
      .cls-1 {
        fill: #fff;
      }
    </style>
  </defs>
  <g id="Icon-Set-V1">
    <g id="icon-set-v1-pixarts-store_101">
      <path class="cls-1" d="M6.15,43.02c-1.43-.17-2.41-1.39-2.83-2.45l-3.31-8.23,3.98-12.91c1.37-1.19,3.11-2.03,5.24-2.83l3.34,9.88,9.02,4.34c2.4,5.84-.75,5.46-1.85,10.7l5.08-5.38-.5-5.53,3.68-3.73-5.36,1.54-7.9-4.12-2.36-10.18c.6-1.71,2.38-2.83,3.84-3.8.85-.57,1.13-2.3,1.76-3.01l4.93-5.5c.56-.62,1.72-1.04,2.59-.83l14.8,3.56c.9.22,1.69.96,1.94,1.85l4.11,15.02c-1.61,2.88-3.13,5.53-4.9,8.33-.68,1.08-2.38,1.71-3.67,2.4l-.1-6.96,5.02-2.88-6.69.31c-7.21-5.38-4.9-3.05-8.39-10.56l.62,7.23,6.23,6.36c1.67,7.81-1.56,11.43-6.23,17.43-3.01,1.21-6.98,2.79-10.27,2.87-4.05.09-7.64-2.44-11.81-2.93Z"/>
      <path class="cls-1" d="M43.05,45.1c-2.21,1.94-5.54,1.28-7.97.16l.65-5.89,6.64-3.49,3.71,3.83c-.86,1.86-1.54,4.09-3.03,5.4Z"/>
      <path class="cls-1" d="M9.56,10c-2.55-.6-4.72-1.42-7.14-2.39.16-5.17,3.41-6.56,7.94-7.61l3,3.41-3.8,6.58Z"/>
    </g>
  </g>
</svg>