<?xml version="1.0" encoding="UTF-8"?>
<svg id="Warstwa_2" data-name="Warstwa 2" xmlns="http://www.w3.org/2000/svg" viewBox="0 0 47.88 48.15">
  <defs>
    <style>
      .cls-1 {
        fill: #fff;
      }
    </style>
  </defs>
  <g id="Icon-Set-V1">
    <path id="icon-set-v1-pixarts-store_41" class="cls-1" d="M41.87,19.16l-1.94-4.31,3.35-5.21-3.48-3.82c-.86-.94-2.01-1.04-2.97-.29l-3.43,2.66-4.63-2.05L27.53.16c-2.51-.23-4.66-.22-7.19.03l-1.18,5.95-4.54,1.97-4.84-3.4c-1.35.43-4.3,3.54-5.15,4.9l3.33,5.16-1.89,4.41L.17,20.42c-.22,2.75-.27,4.83.14,7.18l5.76,1.17,1.93,4.44-2.34,3.26c-.38.53-.76,1.47-.92,2.19,1.55,1.68,3.05,3.23,4.85,4.59l4.99-3.34,4.67,2,1.09,5.89c2.54.34,5.07.64,7.31-.23l1.16-5.77,4.45-1.93,4.95,3.38c2-1.3,3.45-2.9,5.01-4.91l-3.24-5.32,1.83-4.26,5.85-1.22c.29-2.52.29-4.53.06-7.15l-5.84-1.24ZM23.96,31.2c-3.96,0-7.18-3.21-7.18-7.18s3.21-7.18,7.18-7.18,7.18,3.21,7.18,7.18-3.21,7.18-7.18,7.18Z"/>
  </g>
</svg>