<?xml version="1.0" encoding="UTF-8"?>
<svg id="Warstwa_2" data-name="Warstwa 2" xmlns="http://www.w3.org/2000/svg" viewBox="0 0 48.69 53.39">
  <defs>
    <style>
      .cls-1 {
        fill: #fff;
      }
    </style>
  </defs>
  <g id="Icon-Set-V1">
    <g id="icon-set-v1-pixarts-store_133">
      <path class="cls-1" d="M26.8,30.71c.17-2.88,1.7-5.09,3.75-6.84-2.4.26-4.25,1.73-5.26,3.86-3.37,7.1,4.36,9.78,3.88,16.28-.3,4.09-2.87,7.37-6.38,9.38,6.14-12.01-6.17-11.26-3.46-22.49l-12.41-.09c-3.8-.03-6.56-3.51-6.89-6.84-.37-3.83,1.99-7.19,5.87-8.36-.59-3.14.3-5.98,2.59-7.88s5.26-2.31,8.07-1.05C19.1,1.85,24.06-.73,29.45.18c4.92.83,9.12,4.89,9.72,10.58,5.1.49,8.96,4.09,9.47,9.05.51,4.97-2.52,9.83-7.66,10.83-2.05.4-3.99.26-6.16.14.34-1.65.86-2.73,1.72-4.15-1.79.2-3.38,1.68-3.57,3.8-.4,4.44,3.89,5.69,2.96,9.95-.47,2.18-1.95,3.84-3.8,5.03,2.82-8.15-4.12-6.74-2.65-14.41l-2.68-.29Z"/>
      <path class="cls-1" d="M15.2,47.82c2.24-6.59-4.03-6.46-2.63-11.92.35-1.37,1.63-2.93,3.29-3.45-1.81,6.06,3.4,6.71,2.47,11.39-.31,1.54-1.28,3.08-3.13,3.98Z"/>
    </g>
  </g>
</svg>