<?xml version="1.0" encoding="UTF-8"?>
<svg id="Warstwa_2" data-name="Warstwa 2" xmlns="http://www.w3.org/2000/svg" viewBox="0 0 49.87 30.08">
  <defs>
    <style>
      .cls-1 {
        fill: #fff;
      }
    </style>
  </defs>
  <g id="Icon-Set-V1">
    <g id="icon-set-v1-pixarts-store_91">
      <path class="cls-1" d="M35.33,2.29C22.13-3.8,7.93,2.87,0,15.06c3.09,4.69,6.93,8.43,11.49,11.16,14.14,8.47,29.55,2.22,38.38-11.21-3.74-5.69-8.63-10-14.53-12.72ZM4.73,15.15c3.41-4.08,7.41-7.84,12.64-9.39-5.31,5.56-5.2,13.47.31,18.77-5.25-1.67-9.17-5.13-12.95-9.37ZM24.95,23.49c-4.44,0-8.04-3.79-8.04-8.47s3.6-8.47,8.04-8.47,8.04,3.79,8.04,8.47-3.6,8.47-8.04,8.47ZM32.27,24.49c5.46-5.23,5.51-13.45.14-18.82,5.06,1.7,8.93,4.96,12.74,9.27-3.57,4.28-7.56,7.9-12.88,9.55Z"/>
      <path class="cls-1" d="M25.07,20.35c-3.14.05-5.81-2.98-5-6.59,1.5,1.18,2.91,1.39,3.97.09.85-1.05.7-2.53-.7-3.82,3.25-1.21,6.15,1.07,6.58,4.15.45,3.29-1.76,6.11-4.84,6.16Z"/>
    </g>
  </g>
</svg>