<?xml version="1.0" encoding="UTF-8"?>
<svg id="Warstwa_2" data-name="Warstwa 2" xmlns="http://www.w3.org/2000/svg" viewBox="0 0 36.85 39.03">
  <defs>
    <style>
      .cls-1 {
        fill: #fff;
      }
    </style>
  </defs>
  <g id="Icon-Set-V1">
    <g id="icon-set-v1-pixarts-store_28">
      <path class="cls-1" d="M30.04,6.44c.04-2.37.64-4.42,1.84-6.44L7.33.02c-3.49,0-3.73,6.82-3.66,9.24l1.31,9.77c.49,3.69.74,7.17.6,10.96l12.86.09c-.03.55-.29,1.33-.65,1.69H1.21c-1.25,1.18-1.39,2.96-1.05,4.56.25,1.16,1.16,2.72,2.55,2.72l24-.02c-1.25-2.67-1.47-4.47-.87-6.75-.13-.44-.09-1.68.31-1.95.65-.43,2.01-.2,2.54.22-1.52,2.4-1.99,4.95-.43,7.26.39.58,1.31,1.19,1.9,1.15,2.41-.17,3.05-4.51,2.89-6.67-.67-9.35-3.2-15.67-3.01-25.84ZM10.19,8.49h14.52c.36.01.93.38,1.09.61.19.28-.39,1.19-.9,1.18h-14.8c-.37,0-.95-.57-.97-.87-.02-.31.6-.92,1.06-.92ZM24.75,14.86l-14.69-.02c-.32,0-.88-.52-.92-.81-.06-.34.55-.99.94-.99h14.69c.36,0,.98.42,1.04.74.08.47-.5,1.08-1.06,1.08ZM18.23,19.35l-8.29.03c-.34-.23-.75-.64-.83-.94-.07-.3.65-.87,1.03-.87h8.09c.39,0,1.05.53,1.04.87,0,.34-.65.91-1.05.91ZM23.22,35.65l-1.96-1.6-2.38.55,1.09-4.5c.51-2.09,1.64.91,4.48.34l-1.23,5.21ZM27.85,25.98c-.24.44-.39,1.44-.65,1.8-.27.35-1.21.47-1.8.76l-1.58.78c-.39.19-1.15-.46-1.59-.66l-2.05-.92-.68-2.09c-.35-1.07-.39-1.56.05-2.56l.97-2.19,3.28-1.23,3.28,1.31.84,2.17c.68,1.07.5,1.82-.06,2.83Z"/>
      <path class="cls-1" d="M34.56.17c-1.85-.06-2.96,5.34-2.63,7.17,1.4.07,2.58.07,3.98-.02,1.99-2.78.48-7.09-1.35-7.15Z"/>
    </g>
  </g>
</svg>