<?xml version="1.0" encoding="UTF-8"?>
<svg id="Warstwa_2" data-name="Warstwa 2" xmlns="http://www.w3.org/2000/svg" viewBox="0 0 49.13 43.12">
  <defs>
    <style>
      .cls-1 {
        fill: #fff;
      }
    </style>
  </defs>
  <g id="Icon-Set-V1">
    <g id="icon-set-v1-pixarts-store_65">
      <path class="cls-1" d="M.3,33.96l36.73.02-1.82-2.82c-.22-.34-.27-1.43.05-1.6,2.17-1.1,3.42,1.64,4.12,4.41h9.54c-2.78-6.07-.97-8.14-4.5-11.9l-.46-8.64c-.1-1.96-2.48-3.03-3.79-3l-3.36.08c-1.73-.81-3.17-.97-4.75.13-1.37.96-2.18,2.53-2.24,4.99-.76.41-2.33,1.04-3.12.89l-5.46-.99-.06-3.6c-1.8-.84-4.02-1.38-6.02-.02l3.07,3.71c-2.71,1.68-4.73,3.15-6.6,5.68-.37.51-1.6-.08-1.94-.7-1.05-1.95-3.29-3.02-4.83-1.19-.68.8-.8,2.96-1.2,4.04-.65,1.77-.98,3.26-1.39,5.13l-1.99,5.38ZM43.78,28.09c-.54.91-1.62.99-2.52.51-.63-.34-1.49-1.67-1.39-2.71,1.48-.4,2.76.61,3.91,2.2ZM37.18,15.38c.09-.53,1.25-.93,1.76-.71.7.3,2.2,1.98,2.09,2.87-.33,2.21-2.38.76-3.24-.12-.38-.4-.72-1.51-.62-2.04ZM30.86,20.35c.17-.41,1.12-.86,1.46-.68.33.18.78.95.95,1.62.41,1.57-.14,3.53-1.47,3.19-1.09-.28-1.4-3.05-.94-4.13ZM22.28,28.22c.49-1.8,1.4-4.2,3.23-2.97.17,1.7-1.82,6.41-3.12,4.83-.27-.33-.27-1.25-.11-1.86ZM21.78,21.78c-.61,1.58-1.49,2.13-2.53,2.18-1.03.05-2.37-.65-2.81-2.14,1.54-1.2,3.47-.9,5.34-.04ZM12.4,28.88c.16.47-.49,1.42-.87,1.64-.38.22-1.65.11-1.79-.41-.12-.47.4-1.35.72-1.58.39-.27,1.73-.25,1.93.34ZM7.8,25.37c.89-.34,2.7-.34,2.97.9-.25,2.17-3.02,2.81-4.22,1.69-.48-1.04.57-2.33,1.26-2.6Z"/>
      <rect class="cls-1" x="0" y="36.29" width="49.13" height="6.81"/>
      <path class="cls-1" d="M22.96,13.33l5.37,1.31.57-6.91c1.42-.84,2.62-1.67,2.77-3.1.15-1.53-.62-3.05-1.59-3.74-.97-.68-2.46.07-3.39.39-1.33-1.15-3.12-2.01-4.46-.37-2.51,3.08,1.27,5.35,1.1,7.7l-.35,4.72Z"/>
      <path class="cls-1" d="M9.89,4.28c-2.18-.33-2.47,1.74-3.64,3.29-.73.96-2.81.9-3.15,2.61-.29,1.43-.17,3.51,1.18,4.16.77.38,2.49.41,3.28.62l3.25,3.93,4.58-3.61-3.09-4.1c-.9-1.19,1.06-6.38-2.39-6.9Z"/>
    </g>
  </g>
</svg>