<?xml version="1.0" encoding="UTF-8"?>
<svg id="Warstwa_2" data-name="Warstwa 2" xmlns="http://www.w3.org/2000/svg" viewBox="0 0 55.44 55.81">
  <defs>
    <style>
      .cls-1 {
        fill: #fff;
      }
    </style>
  </defs>
  <g id="Icon-Set-V1">
    <g id="icon-set-v1-pixarts-store_23">
      <circle class="cls-1" cx="27.75" cy="27.94" r="16.26"/>
      <polygon class="cls-1" points="46.8 24.38 46.93 31.37 55.44 27.86 46.8 24.38"/>
      <polygon class="cls-1" points="27.74 0 24.21 8.84 31.15 8.77 27.74 0"/>
      <polygon class="cls-1" points="13.84 52.03 21.23 46.26 15.1 42.69 13.84 52.03"/>
      <polygon class="cls-1" points="13.78 3.77 15.15 13.15 21.15 9.6 13.78 3.77"/>
      <polygon class="cls-1" points="41.66 3.62 34.41 9.55 40.4 13.09 41.66 3.62"/>
      <polygon class="cls-1" points="24.34 47.15 27.71 55.81 31.09 47.13 24.34 47.15"/>
      <polygon class="cls-1" points="46.04 21.26 51.85 13.8 42.64 15.44 46.04 21.26"/>
      <polygon class="cls-1" points="12.79 15.39 3.83 13.93 9.47 21.41 12.79 15.39"/>
      <polygon class="cls-1" points="3.81 41.87 12.81 40.48 9.39 34.49 3.81 41.87"/>
      <polygon class="cls-1" points="8.54 24.43 0 27.84 8.67 31.43 8.54 24.43"/>
      <polygon class="cls-1" points="46.08 34.56 42.55 40.59 51.64 41.81 46.08 34.56"/>
      <polygon class="cls-1" points="40.33 42.78 34.34 46.34 41.51 51.75 40.33 42.78"/>
    </g>
  </g>
</svg>