<?xml version="1.0" encoding="UTF-8"?>
<svg id="Warstwa_2" data-name="Warstwa 2" xmlns="http://www.w3.org/2000/svg" viewBox="0 0 37.44 43.33">
  <defs>
    <style>
      .cls-1 {
        fill: #fff;
      }
    </style>
  </defs>
  <g id="Icon-Set-V1">
    <g id="icon-set-v1-pixarts-store_73">
      <path class="cls-1" d="M3.88,17.84c2.54,2.7-.97,5.51,3.08,7.1,1.25.49,2.31,1.63,2.79,2.9,1.33,3.52,3.79.26,7.3,2.94,3.07,2.34,3.39-1.69,7.58-1.15,4.21.54,2.38-3.35,6.2-4.71,3.74-1.33.41-4.32,2.86-7.11,1.2-1.36,1.2-2.8.02-4.18-2.52-2.95.83-5.58-2.73-7.02-1.38-.55-2.51-1.68-3.08-3.04-1.47-3.5-4.02-.14-7.11-2.76-1.23-1.04-2.62-1.12-3.85-.07-3.22,2.74-5.87-.72-7.32,2.95-.51,1.28-1.66,2.38-2.93,2.93-3.68,1.57-.26,3.95-2.87,7.09-1.15,1.38-1.23,2.77.04,4.12Z"/>
      <path class="cls-1" d="M8.06,36.45l4.39,6.88,4.86-9.83c-1.17-1.12-2.59-2.24-3.96-2.04-6.2.89-4.24-4.94-8.23-4.75L0,37.15c2.92,0,5.16-.37,8.06-.71Z"/>
      <path class="cls-1" d="M37.41,37.02c.06-.13,0-.63-.06-.77l-4.93-9.75c-4.13.99-1.9,5.55-8.24,5.03-1.33-.11-2.93,1.17-3.84,2.11l5.05,9.63,4.34-6.91,6.76.91c.22.03.84-.07.93-.26Z"/>
    </g>
  </g>
</svg>