<?xml version="1.0" encoding="UTF-8"?>
<svg id="Warstwa_2" data-name="Warstwa 2" xmlns="http://www.w3.org/2000/svg" viewBox="0 0 47.38 51.49">
  <defs>
    <style>
      .cls-1 {
        fill: #fff;
      }
    </style>
  </defs>
  <g id="Icon-Set-V1">
    <path id="icon-set-v1-pixarts-store_126" class="cls-1" d="M45.77,10.28c.89-.91,1.65-1.92,1.61-3.12C47.08-2.49-.68-2.63,0,8.23c.07,1.02,1.73,1.95,2.18,2.82.78,1.52.74,3.1,2.47,4.18,7.99,4.98,19.72,5.07,29.27,4.13-7.04,3.63-22.29,3.14-29.07-1.42-.39,2.53,2.56,3.08,3.6,4.6.91,1.32.54,3.15,2.54,4.09l3.86,1.82c.29,2.25,2.26,3.27,4.12,4.26-.83,1.66-1.32,2.72.44,4.2,2.32,1.97,5.21,2.06,8.32,2.52-3.44,1.19-8.09.9-10.91-1.96-.49,1.5.72,2.72,1.73,3.69-2.13,4.76,1.76,9.08,5.83,10.33-.66-2.74-.34-4.94,1.37-6.74-1.86-.22-3.36-.74-4.47-2.02,2.43.16,4.76.25,6.96-.17,2.61-.5,3.33-2.42,4.88-4.13,1.12-1.23,3.61-1.13,3.81-3.47-4.07,2.07-13.78,2.33-16.73-1.79,5.92,1.48,11.69,1.96,17.19-.12,1.75-.66,3.64-1.6,3.8-3.91-4.88,2.17-10.17,2.61-15.44,1.19,4.3-.25,8.5-.47,12.59-2.1,2.1-.83,5.36-2.73,4.77-4.98-.13-.51-.73-1.23-1.19-1.64-4.8,6.67-21.22,6.69-27.44,2.78,8.88,1.09,18.37.8,25.97-3.79,1.65-1,1.78-2.7,2.49-4.28.49-1.08,1.91-2.11,2.04-3.39-6.56,4.02-18.38,4.46-25.43,2.51,8.51.05,19.09-.47,26.19-5.18ZM12.08,8.92c-.62-2.03,5.7-2.91,6.93-3.54-1.9-.4-11.33.54-9.7,4.32-1.24-.3-3.83-1.01-3.76-2.77.19-4.3,23.31-7.56,35.27-1.92.7.33,1.66,1.54,1.26,2.24-.55.98-1.87,1.61-2.68,1.84-.67-3.22-8.3-4.26-10.39-3.79,1.61.68,7.67,1.46,7.3,3.67-.26,1.58-4.99,1.96-6.14,2.02l.7-.9c1.24-1.61-10.02-2.97-13.24-.9,1.01,1.98,3.14,1.35,4.94,2.06-1.84.22-9.84-.12-10.51-2.33Z"/>
  </g>
</svg>