<?xml version="1.0" encoding="UTF-8"?>
<svg id="Warstwa_2" data-name="Warstwa 2" xmlns="http://www.w3.org/2000/svg" viewBox="0 0 49.72 38.3">
  <defs>
    <style>
      .cls-1 {
        fill: #fff;
      }
    </style>
  </defs>
  <g id="Icon-Set-V1">
    <g id="icon-set-v1-pixarts-store_33">
      <path class="cls-1" d="M32.48,24.15c-.03,1.89-1.69,3.43-3.45,3.44h-8.25c-2.02.02-3.56-1.55-3.6-3.54l-.08-4.17-8.61.03,2.07,17.86h28.58s2.04-17.91,2.04-17.91l-8.64.05-.07,4.23Z"/>
      <path class="cls-1" d="M12.35,1.13c-2.82,5.21-3.76,10.65-3.77,16.34h8.59c-.02-1.63-.04-2.93.83-4.01.64-.8,2.1-1.3,3.38-1.28,2.81.05,5.56-.03,8.42.23,2.4.23,2.88,2.93,2.65,5.05h8.69c-.06-5.9-1.13-11.29-3.8-16.34H12.35Z"/>
      <path class="cls-1" d="M20.84,25.83h7.97c.97,0,1.74-1.03,1.74-1.88v-8.14c.02-1.01-.87-1.84-1.84-1.84h-8.01c-.75,0-1.62.85-1.62,1.62v8.36c.01.84.87,1.88,1.75,1.88ZM23.2,16.93c.77-.95,2.41-1,3.27,0,.77.89.75,2.42-.42,3.3l.54,3.47-3.38.07.32-3.55c-.76-1.1-1.1-2.33-.33-3.29Z"/>
      <path class="cls-1" d="M41.5,38.13l4.11.17c.53.02,1.65-.6,1.73-1.21l2.27-17.11-5.97-.08-2.15,18.24Z"/>
      <path class="cls-1" d="M3.91,38.27l4.31-.17-2.19-18.18H0s2.34,16.91,2.34,16.91c.08.56,1,1.46,1.57,1.44Z"/>
      <path class="cls-1" d="M39.25.12c3.54,6.63,3.88,10.15,4.47,17.38l5.99-.08c-.43-6.71-1.49-12.37-5.24-17.23-1.67-.16-3.46-.16-5.23-.07Z"/>
      <path class="cls-1" d="M10.43.18c-1.59-.16-3.6-.31-5.03.01C1.65,3.95.13,12.1,0,17.47l6.12-.08c.03-6.57,1.26-11.88,4.31-17.21Z"/>
    </g>
  </g>
</svg>