<?xml version="1.0" encoding="UTF-8"?>
<svg id="Warstwa_2" data-name="Warstwa 2" xmlns="http://www.w3.org/2000/svg" viewBox="0 0 39.02 51.09">
  <defs>
    <style>
      .cls-1 {
        fill: #fff;
      }
    </style>
  </defs>
  <g id="Icon-Set-V1">
    <g id="icon-set-v1-pixarts-store_04">
      <path class="cls-1" d="M.75,38.58c-.35.93-.22,2.18.57,2.91,4.17,3.82,8.37,7.25,14.07,9.6l-1.2-22.09-8.31-3.17c-.62-1.8-.78-3.78-.5-5.87l11.62,2.96c1.06,4.47-2.59,8.2,2.58,10.37.7-.21,2.7-1.73,2.64-2.75l-.33-5.95c-.05-.84.68-1.91,1.56-2.12l10.32-2.45c.19,2.16-.01,4.27-.87,5.88l-8.14,3.22-1.03,21.93c5.64-2.46,9.74-5.7,13.83-9.44,1-.92,1.16-2.09.63-3.27-1.88-4.26-2.24-9.1.81-12.88l-.31-9.03c-7.12-.6-13.2-2.78-19.17-6.15C13.51,13.83,7.34,15.79.4,16.41c-.16,2.95-.79,6.23-.04,9.06.67,2.56,3.66,4.47.39,13.11ZM10.34,31.55c.27-.23,1.32.53,1.34.89l.6,11.89c.01.28-.99.92-1.16.74-.22-.25-.79-.98-.81-1.38l-.59-10.99c-.02-.29.4-.96.62-1.15ZM6.11,29.67c.33-.11,1.17.56,1.19.93l.49,11.21c-1.01.27-1.65-.22-1.9-1.04l-.57-9.81c-.02-.35.46-1.16.79-1.28ZM28.66,43.84c-.02.36-.47,1.04-.65,1.23-.24.25-1.27-.35-1.25-.78l.57-11.52c.02-.36.53-.98.78-1.13.32-.2,1.19.64,1.17,1.04l-.61,11.17ZM33.08,40.76c-.02.35-.7,1.09-.85,1.27-.15.18-1.02-.38-1-.77l.44-10.16c.02-.4.41-1.02.6-1.28.19-.25,1.41.22,1.39.55l-.58,10.39Z"/>
      <path class="cls-1" d="M36.72,14.91c-.75-6.36-5.88-11.14-11.97-12.2l-1.09,3.2-.84-5.76c-2.35-.21-4.44-.2-6.66.09l-.67,5.98-1.33-3.53C8,3.92,3.03,8.55,2.37,14.91c6.29-.85,11.79-2.95,17.25-6.2,5.3,3.31,10.87,5.38,17.1,6.2Z"/>
    </g>
  </g>
</svg>