<?xml version="1.0" encoding="UTF-8"?>
<svg id="Warstwa_2" data-name="Warstwa 2" xmlns="http://www.w3.org/2000/svg" viewBox="0 0 41.26 43.62">
  <defs>
    <style>
      .cls-1 {
        fill: #fff;
      }
    </style>
  </defs>
  <g id="Icon-Set-V1">
    <path id="icon-set-v1-pixarts-store_42" class="cls-1" d="M6.4,39.91c2.71,1.04,5.48,2.47,8.43,3.06,4.73.95,9.44.77,13.83-1.12,5.11-2.21,5.97-.85,10.73-3.65,2.33-1.37,1.74-3.2,1.79-5.35.07-3.34.37-6.48-.86-9.71-1.15-3.01-2.37-5.92-3.84-8.81-1.38-2.71-2.65-5.37-3.63-8.24-.58-1.71-1.68-2.96-3.47-3.51L21.86.31c-.94-.28-3.04-.56-3.74.08-1.42,1.33-2.31,3.09-3.15,4.7-.94,1.81-.12,3.22,1.02,4.65.52.65.74,2.45,1.82,2.38,5.33-.33,5.55,1.51,8.12-1.51,3.98,8.56-1.75,8.81,1.15,18.39-2.88-.98-1.57-4.89-5.66-6.46-2.74-1.05-5.68-.56-8.05,1.16l-3.17,2.3c.32-1.23.73-1.95,1.35-2.99-2.69-3.35-7.34-4.59-11.55-3.41l.02,24.02c2.75-.22,4.51-2.05,6.38-3.71ZM12.57,32.33c3.45,2.4,7.65,2.54,11.64.81.02,1.01-.6,1.56-1.42,1.97-3.86,1.95-8.69,1.16-11.65-2.35-.28-.33,1.06-.68,1.43-.42Z"/>
  </g>
</svg>