<?xml version="1.0" encoding="UTF-8"?>
<svg id="Warstwa_2" data-name="Warstwa 2" xmlns="http://www.w3.org/2000/svg" viewBox="0 0 44.44 51.73">
  <defs>
    <style>
      .cls-1 {
        fill: #fff;
      }
    </style>
  </defs>
  <g id="Icon-Set-V1">
    <g id="icon-set-v1-pixarts-store_114">
      <path class="cls-1" d="M15.71,39.03c-4.73,2.26-7.1,8.61-10.97,12.7.58-3.18,1.47-5.79,2.29-8.72l1.64-5.87c.6-.88,2.28-1.81,2.71-2.85l3.56-8.45c.95-2.27,1.51-4.27,3.78-5.67,2.02-1.24,3.58-3.2,4.18-5.71.74-3.11,3.99-1.36,6.15-5.99,4.22-3.22,8.35-6.15,13.27-8.47-2.32,3.4-3.45,3.55-5.61,7.74-4.99,2.84-1.62,5.56-7.59,9.76-4.27,5.21-2.03,1.61-3.92,7.45-1.31,4.04-1.97.73-5.87,6.71l-2.83,4.33-.79,3.04Z"/>
      <path class="cls-1" d="M8.37,27.64c-1.43,2-4.15,3.39-5.39,5.5l-2.98,5.09c.68-4.82,2.07-8.93,3.96-13.12l3.44-7.6c2.82-2.54,5.13-5.47,7.27-8.77,3.91-2.01,5.49-5.03,10.26-6.61l-3.81,4.57c-.45.54-.85,1.95-1.23,2.57-5.23,4.16-4.02,6.35-5.96,9.81l-1.51,2.68c-2.51,1.08-3.5,3.07-4.04,5.87Z"/>
      <path class="cls-1" d="M25.09,43.55l-4.3,6.4c.6-4.13,1.08-8.1,2.82-11.44.94-1.81,2.06-3.09,2.18-5.29.13-2.36,1.47-4.35,3.4-5.51,3.08-1.85,1.01-2.01,4.54-5.13l2.86-2.52c2.37-2.09,4.99-3.74,7.86-5.19-1.58,2.22-3.45,3.91-4.79,6.12l-3.28,5.38-2.38,4.01-2.14,3.36c-.86,1.35-1.1,3.34-2.19,4.59l-2.72,1.7c-.93.58-1.12,2.44-1.85,3.52Z"/>
    </g>
  </g>
</svg>