<?xml version="1.0" encoding="UTF-8"?>
<svg id="Warstwa_2" data-name="Warstwa 2" xmlns="http://www.w3.org/2000/svg" viewBox="0 0 58.06 57.54">
  <defs>
    <style>
      .cls-1 {
        fill: #fff;
      }
    </style>
  </defs>
  <g id="Icon-Set-V1">
    <g id="icon-set-v1-pixarts-store_132">
      <circle class="cls-1" cx="29.14" cy="28.8" r="15.6"/>
      <path class="cls-1" d="M19.35,12.49c-2.91,2.18-4.72,3.93-6.81,6.88l-4.09-11.02,10.91,4.15Z"/>
      <path class="cls-1" d="M34,47.05l-4.89,10.49-4.76-10.49c3.47.47,6.15.5,9.65,0Z"/>
      <path class="cls-1" d="M19.26,45.02l-10.68,4.06,3.97-10.7c2.11,2.64,3.84,4.47,6.71,6.64Z"/>
      <path class="cls-1" d="M45.76,19.18c-2.18-2.66-3.97-4.49-6.8-6.66l10.79-4.11-3.99,10.77Z"/>
      <path class="cls-1" d="M58.06,28.82l-10.32,4.68c.35-3.24.32-5.93-.02-9.43l10.33,4.75Z"/>
      <path class="cls-1" d="M33.87,10.37c-3.58-.43-6.19-.41-9.46,0L29.09,0l4.77,10.37Z"/>
      <path class="cls-1" d="M10.57,33.49L0,28.85l10.58-4.71c-.46,3.31-.47,6.09-.01,9.36Z"/>
      <path class="cls-1" d="M49.72,49.1l-10.64-4.13c2.72-2.03,4.45-3.92,6.62-6.62l4.02,10.75Z"/>
    </g>
  </g>
</svg>