<?xml version="1.0" encoding="UTF-8"?>
<svg id="Warstwa_2" data-name="Warstwa 2" xmlns="http://www.w3.org/2000/svg" viewBox="0 0 40.3 50.52">
  <defs>
    <style>
      .cls-1 {
        fill: #fff;
      }
    </style>
  </defs>
  <g id="Icon-Set-V1">
    <path id="icon-set-v1-pixarts-store_58" class="cls-1" d="M14.07,4.23C2.7,7.29-2.31,19.22,1,29.94c2.38,7.7-2.47,9.83.18,12.39,3.37,3.25,6.97,6.01,11.27,7.89.35.15,1.15.19,1.45.04.24-.12.31-.88.28-1.2l-1.09-15.44c-.23-3.32-4.18-2.99-7.09-5.15-.69-2.32-.81-4.36-.82-7.09l11.07,3.71c.75.25,1.33,1.56,1.24,2.26l-.85,6.61c.97,1.09,2.41,2.33,3.67,3.19l3.43-3.17-.87-6.98c-.07-.55.69-1.73,1.21-1.93,3.78-1.39,7.06-2.53,10.94-3.64,0,2.67-.12,4.63-.65,7.04-1.69,1.41-6.95,2.39-7.09,4.35l-1.23,17.69c4.17-.32,10.84-5.98,13.54-8.65,1.7-1.68-2.53-5.19-.39-11.81,3.43-10.63-1.4-22.78-12.88-25.82l-2.57,9.59c-.13-4.54.34-8.57.76-13.09-2.91-.88-5.98-1.09-8.71.1.45,4.46.91,8.47.84,13.2l-2.57-9.8Z"/>
  </g>
</svg>