<?xml version="1.0" encoding="UTF-8"?>
<svg id="Warstwa_2" data-name="Warstwa 2" xmlns="http://www.w3.org/2000/svg" viewBox="0 0 32.21 54.37">
  <defs>
    <style>
      .cls-1 {
        fill: #fff;
      }
    </style>
  </defs>
  <g id="Icon-Set-V1">
    <g id="icon-set-v1-pixarts-store_31">
      <path class="cls-1" d="M12.75,12.88c-3.12.16-6.48,1.35-8.16,4.21C3.11,19.61.25,17.45,0,20.45c-.09,1.05.97,1.78,2.27,2.29l1.13,21.61c-1.56.21-2.7.68-2.85,1.82-.37,2.88,3.03,1.91,3.86,3.3,1.35,2.27,4.05,4.23,6.97,4.56,16.81,1.93,14.66-5.18,18.31-5.57,1.35-.15,2.1-1.02,1.93-2.27-.15-1.06-.93-1.63-2.85-1.77l1.19-21.71c1.29-.46,2.3-1.21,2.25-2.3-.13-2.55-3.5-1.53-4.17-2.72-1.57-2.75-5.29-5.19-8.7-4.69-.51-.68-.18-1.76.43-2.18,3.13-2.19,3.09-6.42.69-8.99-2.42-2.6-6.58-2.42-8.9.19-2.33,2.61-2.02,6.59.9,8.85.47.36.79,1.69.3,1.98ZM13.34,3.78c1.42-1.52,3.82-1.72,5.37-.23,1.34,1.29,1.43,3.92-.2,5.19-.72-.53-1.75-1.24-2.38-1.25-.76,0-1.7.66-2.38,1.33-1.66-1.02-1.72-3.64-.41-5.05ZM25.98,22.58l-1.23,21.83-3.82.13.12-5.72-9.78-.03.1,5.64-3.82.08-1.19-21.88,19.63-.05Z"/>
      <path class="cls-1" d="M16.12,37.32c1.55-.04,2.88-1.17,3.41-2.05,1.84-3.11-1.16-7.07-3.67-10.28l-3.39,6.36c-.59,1.1-.37,2.89.27,3.97.53.89,1.86,2.04,3.38,2Z"/>
    </g>
  </g>
</svg>