<?xml version="1.0" encoding="UTF-8"?>
<svg id="Warstwa_2" data-name="Warstwa 2" xmlns="http://www.w3.org/2000/svg" viewBox="0 0 40.67 64.13">
  <defs>
    <style>
      .cls-1 {
        fill: #fff;
      }
    </style>
  </defs>
  <g id="Icon-Set-V1">
    <g id="icon-set-v1-pixarts-store_85">
      <path class="cls-1" d="M3.54,40.16c3.69,5.93,9.38,10.4,15.96,12.96l.03-20.04-13.38-5.24-1.03-3.97,15.32,4.55,15.22-4.47-1.27,4.03-13.13,5.15.07,19.97c5.34-1.91,9.13-5.04,12.72-8.75,1.32-1.31,2.48-2.78,3.27-4.45.25-3.71.52-10,3.17-12.58.3-2.25.16-4.68.13-7.08-7.31-.57-12.86-4.13-19.16-8.44l-1.08,12.11-1.04-12.17C12.82,16.39,7.99,19.31.12,20.36c-.24,9.69-.41,4.31,2.23,10.82.62,2.94.89,5.96,1.18,8.98ZM14.34,34.66l2.27.79-.06,12.26-2.23-1.26v-11.79ZM12.1,33.99l-.13,10.59c-.82-.3-2.07-1.13-2.07-1.73l-.03-9.77c.71-.09,1.8.35,2.23.91ZM7.8,31.98l-.09,9.08c-.98-.89-1.62-2.05-1.65-3.14l-.19-6.95,1.93,1ZM24.24,47.69l-.05-12.21,2.18-.79.06,11.57c-.5.49-1.06.87-2.19,1.43ZM30.79,42.74c0,.7-1.51,1.67-2.05,1.8l-.03-10.73,2.09-.85v9.78ZM34.68,38.63c-.02.59-.8,1.54-1.57,2.03l-.07-8.38c0-.59,1.39-1.21,1.85-1.21l-.2,7.55Z"/>
      <path class="cls-1" d="M20.5,54.93c-5.71.07-10.53-5.34-14.62-8.62l-5.48,2.5,2.79,4.33c2.09,3.26,5.35,4.54,8.53,6.32,2.88,1.62,5.39,4.05,8.73,4.67,3.35-.78,5.82-3.01,8.53-4.66,2.82-1.72,5.98-2.67,8.02-5.68l3.34-4.94-5.44-2.54c-4.09,3.19-8.68,8.54-14.4,8.62Z"/>
      <path class="cls-1" d="M37.81,18.32c-1.01-7.47-6.5-13.09-13.64-14.45l-1.38,3.95.04-5.01c0-1.09-1.31-2.88-2.6-2.8-1.08.07-2.44,1.77-2.41,2.72l.18,5.08-1.52-3.98c-7.28,1.62-12.71,7.13-13.62,14.51,7.09-1.62,11.69-5.22,17.54-9.38,5.63,4.14,10.58,7.8,17.4,9.36Z"/>
    </g>
  </g>
</svg>