<?xml version="1.0" encoding="UTF-8"?>
<svg id="Warstwa_2" data-name="Warstwa 2" xmlns="http://www.w3.org/2000/svg" viewBox="0 0 45.78 46.57">
  <defs>
    <style>
      .cls-1 {
        fill: #fff;
      }
    </style>
  </defs>
  <g id="Icon-Set-V1">
    <g id="icon-set-v1-pixarts-store_14">
      <g>
        <path class="cls-1" d="M4.01,18.07c-2.4,3.63-3.15,7.71-2.16,11.85l1.42,5.93c.44,1.83.11,3.42-.37,5.48l3.03,1.16c3.31-8.5-3.61-13.69,1.4-21.71l-3.32-2.7Z"/>
        <path class="cls-1" d="M18.13,4.09l2.61,3.45c8.41-5.1,12.81,1.55,21.35-1.69l-1.35-3.07c-7.91,2.29-12.66-4.99-22.61,1.31Z"/>
        <path class="cls-1" d="M8.71,37.97c-.47.8-.51,2.3-.38,2.95l20.1-20.43,12.26-12.45c-.99.11-2.04.29-3.14.59l-28.84,29.34Z"/>
        <polygon class="cls-1" points="13.7 8.02 8.14 13.66 10.89 16.07 16.02 10.99 13.7 8.02"/>
        <path class="cls-1" d="M6.2,13.98c-.44-.38-1.51-.01-1.78.31-.28.33-.53,1.5-.21,1.79,1.46,1.31,3.3,2.88,4.84,4.09.38.3,1.46-.33,1.7-.72.21-.34.2-1.42-.12-1.69l-4.44-3.78Z"/>
        <path class="cls-1" d="M19.68,10.32c.28-.5.16-1.57-.34-2.19l-3.29-4.11c-.31-.39-1.6.13-1.84.49-.21.31-.53,1.17-.24,1.54l3.71,4.79c.36.47,1.72-.02,2-.52Z"/>
        <path class="cls-1" d="M.08,43.96c-.21.64,0,1.85.46,2.22,1.4,1.12,3.48-.39,4.84-1.9-1.53-.73-2.38-1.12-3.25-1.46-.65-.25-1.87.56-2.06,1.13Z"/>
      </g>
      <path class="cls-1" d="M43.93,0c-.64,0-1.86.8-1.75,1.51.22,1.45.77,2.4,1.63,3.58,1.24-1.2,1.89-2.13,1.97-3.45.06-.99-1.05-1.64-1.84-1.63Z"/>
    </g>
  </g>
</svg>