<?xml version="1.0" encoding="UTF-8"?>
<svg id="Warstwa_2" data-name="Warstwa 2" xmlns="http://www.w3.org/2000/svg" viewBox="0 0 44.33 52.8">
  <defs>
    <style>
      .cls-1 {
        fill: #fff;
      }
    </style>
  </defs>
  <g id="Icon-Set-V1">
    <path id="icon-set-v1-pixarts-store_97" class="cls-1" d="M.05,52.8l-.05-25.99c4.84-1.13,9.82.23,13.19,4.26,3.81-3.55,8.93-3.79,12.82-.57.66.55,1.46,1.03,2.36,1.41-.76-3.01-1.31-5.43-.51-8.26,1.13-4.01.77-8.29-1.66-11.81-1.75,1.24-3.24,1.42-5.04.95-2.81-.74-4.46,1.24-5.93-.79-.38-.52-.28-1.84-.27-2.64-1.32-1.58-1.73-3.6-.18-5.39l3.16-3.65c1.33-1.53,11.16,2.69,13.03,3.67,1.28.67,2.05,2.41,2.6,3.69,1.99,4.58,4.08,8.8,6.48,13.11,2.54,4.56,3.59,9.37,3.69,14.54.02,1.1.74,2.61.56,3.68-.38,2.25-2.2,3.53-4.17,4.29-2.26.87-4.33,1.67-6.52,2.72-7.99,3.84-17.13,4.31-25.4.85-2.21,2.58-4.29,4.88-8.16,5.91Z"/>
  </g>
</svg>