<?xml version="1.0" encoding="UTF-8"?>
<svg id="Warstwa_2" data-name="Warstwa 2" xmlns="http://www.w3.org/2000/svg" viewBox="0 0 64.29 65.19">
  <defs>
    <style>
      .cls-1 {
        fill: #fff;
      }
    </style>
  </defs>
  <g id="Icon-Set-V1">
    <g id="icon-set-v1-pixarts-store_86">
      <path class="cls-1" d="M16.58,39.73c1.13,1.17,2.46,2.03,4.01,2.31L52.67,11.72l-29.88,32.31c.24,1.73,1.02,3.27,2.34,3.84L60.88,11.88l3.41-11.88c-4.13,1.04-7.72,2.21-11.79,3.53L16.58,39.73Z"/>
      <path class="cls-1" d="M20.42,50.83l7.1,5.79c1.15-1.08,2.26-2.46,3.23-3.94l-6.47-3.22c-2.2-1.1-2.27-3.91-3.61-5.4-6.72-3.17-5.15-3.41-8.53-10.13l-3.95,3.09,5.91,7.53c1.85,2.35,3.97,4.38,6.31,6.29Z"/>
      <path class="cls-1" d="M5.51,65.05c1,.59,2.12-.76,2.29-1.48.24-1.01-.25-1.88-1.11-2.67l-3.69-3.39c-.48-.44-1.81-.05-2.29.24-2.75,1.62,3.34,6.45,4.8,7.31Z"/>
      <polygon class="cls-1" points="13.05 54.83 8.47 53.44 6.74 55.3 11.2 56.79 13.05 54.83"/>
      <polygon class="cls-1" points="9.5 52.44 14.14 53.94 15.63 52 11.25 50.62 9.5 52.44"/>
      <path class="cls-1" d="M7.96,60.25l2.14-2.6-4.21-1.29c-.4-.12-1.11,1.04-.8,1.32l2.87,2.58Z"/>
      <path class="cls-1" d="M17.28,50.59v-.43s-2.84-2.74-2.84-2.74l-2.34,2.16,4.25,1.35c.16.05.93-.17.93-.33Z"/>
    </g>
  </g>
</svg>