<?xml version="1.0" encoding="UTF-8"?>
<svg id="Warstwa_2" data-name="Warstwa 2" xmlns="http://www.w3.org/2000/svg" viewBox="0 0 64.36 65.35">
  <defs>
    <style>
      .cls-1 {
        fill: #fff;
      }
    </style>
  </defs>
  <g id="Icon-Set-V1">
    <g id="icon-set-v1-pixarts-store_82">
      <path class="cls-1" d="M55.99,20.13c.11-2.38,1.71-4.6,2.94-6.39h-2.81c-1.55-2.68-3.69-4.56-6.44-6.02l-.5-3.12c-1.44,1.55-2.38,2.29-3.94,3.09-3.19,1.63-6.65.39-9.11-2.59l-.17,3.15c-2.55,1.65-4.7,3.69-5.99,6.55l-3.33.29c3.66,3.98,5.09,5.7,2.79,10.77,1.24,4.82,6.1,8.81,10.77,9.56,4.05-3.11,6.94-1.21,10.02,1.45l.42-3c2.57-1.72,4.49-3.95,6.19-6.43l2.97-.31c-1.99-2.09-3.94-4.07-3.8-6.98ZM38.14,13.81c1,.34.69,2.15.08,2.76-.51.51-1.97,1.07-2.58.09-.8-1.29-1.21-2.58-1.75-4.27l4.24,1.42ZM39.03,28.61c-1.27.92-2.48,1.25-4.41,1.86.28-1.63.67-2.88,1.37-4.52.26-.61,1.96-.45,2.48-.06.58.44,1.39,2.12.56,2.71ZM43.25,23.56c-1.36,0-2.46-1.1-2.46-2.46s1.1-2.46,2.46-2.46,2.46,1.1,2.46,2.46-1.1,2.46-2.46,2.46ZM47.52,13.62c1.57-.73,2.67-1.14,4.31-1.77-.28,1.55-.56,2.8-1.3,4.3-.46.92-2.15.53-2.67.06-.51-.47-.98-2.29-.34-2.58ZM47.93,28.35c-.66-.28-.32-2.06.12-2.6.45-.55,2.06-1.12,2.58-.39.95,1.36,1.38,2.63,1.97,4.55-1.82-.49-2.99-.84-4.67-1.56Z"/>
      <polygon class="cls-1" points="31.03 37.61 27.47 34.21 18.21 43.6 21.74 47.13 31.03 37.61"/>
      <path class="cls-1" d="M7.17,64.51c.85.16,2.19-1.71,1.88-2.5l-6.01-5.88c-.83.39-2.22,1.41-2.26,2.1,1.36,2.07-2.56,3.59.3,6.16.94.84,2.37,1.43,3.49.46.78-.67,1.36-.57,2.6-.33Z"/>
      <polygon class="cls-1" points="20.59 48.09 16.92 44.41 13.55 48.05 19.39 49.91 20.59 48.09"/>
      <path class="cls-1" d="M34.65,34.89c-2.03-1.6-3.17-2.69-4.81-4.49l-1.79,2.07c1.51,1.76,2.65,2.88,4.52,4.43l2.08-2.01Z"/>
      <path class="cls-1" d="M9.76,53.94s0,0,0,0c0,.01,0,.02,0,0Z"/>
      <path class="cls-1" d="M14.49,54.3l-3.98-1.02c-.18-.05-.69.55-.75.65,0,0,0,0,0,0-.01.01-.02,0,0,0-.15-.21-1.14-.91-1.39-.68-.5.45-1.34,1.38-1.98,2.11l6.03,1.42,2.07-2.47Z"/>
      <path class="cls-1" d="M41.95,36.22l2.35,6.12,1.65-6.4c-1.16-.99-3.17-.79-4,.28Z"/>
      <path class="cls-1" d="M22.11,21.98l6.46,1.84c.72-1.62.58-2.88-.29-4.1l-6.17,2.26Z"/>
      <path class="cls-1" d="M44.59,6.13l-2.48-6.13-1.7,6.49c1.61.56,2.79.61,4.18-.36Z"/>
      <path class="cls-1" d="M58.36,22.28l6-2.15-6.18-1.6c-1.14.74-1.07,3.36.18,3.75Z"/>
      <polygon class="cls-1" points="32.83 8.49 27.19 6.2 29.93 11.55 32.83 8.49"/>
      <polygon class="cls-1" points="53.82 33.43 59.43 36.02 56.63 30.57 53.82 33.43"/>
      <polygon class="cls-1" points="58.17 4.98 52.84 7.78 55.91 10.51 58.17 4.98"/>
      <path class="cls-1" d="M11.13,57.77c-2.42-.59-3.46-.84-5.44-1.1l3.35,3.4c.84-.79,1.44-1.45,2.1-2.3Z"/>
      <path class="cls-1" d="M18.1,50.77l-4.22-1.19c.58,1.66.87,2.34,1.62,3.86,1.25-1.12,1.65-1.52,2.6-2.67Z"/>
      <polygon class="cls-1" points="12.42 49.19 9.74 51.89 13.5 52.69 12.42 49.19"/>
    </g>
  </g>
</svg>