<?xml version="1.0" encoding="UTF-8"?>
<svg id="Warstwa_2" data-name="Warstwa 2" xmlns="http://www.w3.org/2000/svg" viewBox="0 0 46.3 47.99">
  <g id="icon-v8-weapon-shield-pixarts-store">
    <g id="icon-v8-weapon-shield-pixarts-store_184">
      <path d="M18.46,34.06c.68-5.17,1.21-5.28,4.46-8.66l6.19-6.44c2.6-2.71,5.19-5.26,7.16-8.5-6.45,5.06-10.88,11.04-17.05,16.59-1.45,1.31-3.95,1.5-5.86,2.09l2.39-4.27c2.11,0,3.99-.7,5.55-2.09l-4.51,1.11c.98-.73,2.15-1.17,3.05-1.93,5.36-4.51,6.88-10.6,14.51-16.34.2-.15.87-.47,1.03-.31s.35.5.51.84l.36.77c.07.15.58.14.63-.02.46-1.39-.23-2.81,1-3.39,2.86-1.34,5.34-2.43,8.44-3.51-.19,2.23-3.21,11.08-4.47,10.82-2.04-.42.75-3.39.45-5.17-1.02,1.52-1.77,2.97-2.58,4.61-1.08,2.2-2.46,4.04-3.78,6.17.98-.45,4.22-4.93,4.48-4.76l1.1.68c-1.35,2.6-3.41,4.71-5.81,6.56l-7.7,5.94c-1.17.9-1.88,2.28-2.95,3.5-.09-1.56.46-2.82,1.01-4.42-.79.65-1.66,1.77-2.01,2.91l-1.57,5.1c-1.05.79-2.76,1.59-4.01,2.13Z"/>
      <path d="M21.01,36.71c.86.19,2.5-.84,2.96.79.25.87-1.03,2.53-1.95,2.53l-7.01-3.42.93-5.03-5.22,1.04-3.26-7.28c.18-.89,1.91-1.77,2.65-1.51,1.27.44.59,1.74.39,2.63l1.7,4.31,5.66-1.29-1.03,5.59c1.43.64,2.65,1.25,4.16,1.65Z"/>
      <path d="M2.02,46.07c1.24,1.67,3.96-2.11,4.07-.27.08,1.39-1.76,2.25-2.93,2.18-1.48-.09-2.7-1.21-3.09-2.57s.75-3.22,1.81-3.63c.29-.11,1.07.54.94.79-.61,1.22-2.01,1.87-.81,3.49Z"/>
      <path d="M10.5,35.64l-.48-.46c-.09-.08.12-.32.19-.45.08-.16.36.31.63.65l.29-1.5,3.21-.71c-.29,2.03-.59,3.29-1.37,4.86l-2.48-2.39Z"/>
      <path d="M7.9,43.21l-.36,1.29c-1.94.02-3.67-1.64-3.95-3.42-.04-.25.29-.99.54-1.01.76-.06,1.49,1.95,3.77,3.14Z"/>
      <path d="M10.33,40.01l-2.67-2.64,1.65-1.75c.79.89,1.72,1.94,2.26,2.8.26.41-.77,1.52-1.23,1.59Z"/>
      <path d="M9.25,40.59c.31.3-.32,1.24-.69,1.31s-1.18-.31-1.46-.6c-.88-.93-1.57-2.02-.25-3.03l2.4,2.32Z"/>
    </g>
  </g>
</svg>