<?xml version="1.0" encoding="UTF-8"?>
<svg id="Warstwa_2" data-name="Warstwa 2" xmlns="http://www.w3.org/2000/svg" viewBox="0 0 36.45 54.99">
  <g id="icon-v8-weapon-shield-pixarts-store">
    <g id="icon-v8-weapon-shield-pixarts-store_78">
      <path d="M18.31,54.99c-3.83-2.57-6.94-5.68-9.8-9.26-3.47-4.62-5.77-9.69-6.83-15.42C.1,22.89-.18,15.56.09,7.81,6.57,6.41,12.63,3.73,18.24,0c5.6,3.71,11.5,6.43,18.08,7.74.39,7.84-.1,15.45-1.63,23.15-1.33,6.67-4.45,12.41-8.95,17.44-2.27,2.38-4.55,4.36-7.43,6.66ZM18.18,51.79c3.86-3.11,6.94-6.35,9.72-10.2,2.06-3.23,3.37-6.62,4.27-10.38,1.5-7.05,2-14.05,1.63-21.27-5.6-1.41-10.65-3.7-15.58-6.81-4.84,3.02-9.93,5.36-15.57,6.86-.28,6.54.02,12.92,1.24,19.37.96,5.33,3.09,10.07,6.23,14.42,2.47,2.91,4.94,5.55,8.06,8Z"/>
      <path d="M23.22,40.29c.57,6.62-.28,5.92-5.04,10.33-1-1.04-7.26-6.03-6.05-7.21l-.82.32c-1.21-1.53-2.76-3.74-3.5-5.56l.64-4.58-1.38,2.97c-2.95-6.13-3.53-14.61-3.69-21.3l1.55.69c-1.32-1.51-2.07-3.63-1.21-5.31l6.54-2.23,1.91,3.85-.4-4.53,6.44-3.51,7.44,4.02c.75.83-1.02,2.66-.59,4.34.55-1.38,1.29-2.68,2.09-3.76l5.8,1.89c.11,1.08.14,2.77.04,3.99l-1.55,1.95,1.63-.69c-.13,4.83-.68,9.43-1.57,14.16l-1.06-.63c.43,1.39.7,2.27.34,3.45-1.33,4.43-3.39,8.48-6.52,11.68-.03-1.76-.21-3.23-1.03-4.34ZM22.14,35.1c4.62-2.13,6.25-7.03,4.26-11.33l-1.14,3.81c-2.76-1.86,1.63-3.43-.93-8.18-.49-.92-.86-1.87-1.26-2.86-.94,1.9.83,3.49-.67,5.32-1.13-5.7-5.45-6.03-4.32-10.92-5.46,4.02,1.47,7.68-3.46,10.93.24-1.92-.18-3.93-1.85-4.59,1.14,4.58-2.18,4.08-1.88,9.72-.59-1.02-.79-2.07-.96-3.59-2.25,4.41-.51,9.54,4.13,11.75,1.78.85,3.28,1.78,4.13,3.96.54-2.02,2-3.12,3.94-4.01Z"/>
      <path d="M17.97,34.26l-1.98-.77c-.65-1.83-.24-4.21,1.52-4.69l2.39,1.47c1.36,1.02-.3,3.68-1.92,3.99Z"/>
    </g>
  </g>
</svg>