<?xml version="1.0" encoding="UTF-8"?>
<svg id="Warstwa_2" data-name="Warstwa 2" xmlns="http://www.w3.org/2000/svg" viewBox="0 0 49.96 52.44">
  <g id="icon-v8-weapon-shield-pixarts-store">
    <g id="icon-v8-weapon-shield-pixarts-store_146">
      <path d="M20.71,48.64c-.06-1.99,0-3.68.25-5.6s1.57-3.09,2.53-4.55c.56-.85.9-1.87,1.79-2.45l4.67-2.98c-.07-.87-.1-1.34-.03-2.2l2.96,2.85c2.31,2.22-3.81,2.11-5.46,6.21-1.04,2.58-.7,4.75.53,7.36l-7.23,1.37ZM26.08,39.92c.34.03.81-.94.58-1.21-.22-.26-.67-.72-1.04-1.06-.32-.29-1.1.85-1.17,1.28s1.01.94,1.63.99ZM25.43,42.88c.58-.39.07-1.63-.4-1.83-.55-.23-1.56-.65-1.93-.31-.4.37-.86,1.49-.82,1.93.95.33,2.5.65,3.15.2ZM25.69,45.03c-.38-1.56-2.91-1.45-3.7-.57-.59.66-.16,2.33.7,2.54,1.05.26,3.25-.91,3-1.97Z"/>
      <path d="M40.97,26.76c-3.07.6-3.97,2.9-5.27,5.56-1.37-1.17-2.47-2.25-3.77-3.64,1.26-1.1,2.48-1.61,3.39-2.76l2.66-3.37c2.18-2.77,6.19-2.73,9.45-2.21l-.88.62c.82-.58.52,4.87.09,6.05-1.99-.23-3.76-.63-5.67-.25ZM45.82,21.83c-.31-.41-1.71-.64-2.04-.26-.72.83-.91,3.4.4,3.72s2.53-2.3,1.65-3.46ZM41.93,21.85c-1.16-.17-2.43,1.19-2.34,1.47.27.81.88,2.7,2.32,2.15.74-.28.58-3.53.02-3.61ZM38.24,24.45c-.39.05-1.19.93-1.05,1.26s.76.77,1.13.83,1.14-.67.98-1-.69-1.14-1.06-1.1Z"/>
      <path d="M45.05,8.84c-1.25.43-2.24-.64-3.32-1.52l-8.46,7.96c-1.5,1.41-2.71,2.64-4.41,4.55l13.06-8.86c1.07-.73,1.94-1.75,3.42-1.5l-14.72,9.91c-1.48,1-2.62,2.26-4.76,2.64,1.22-2.09,2.94-3.34,4.62-4.93l10.83-10.25c-.95-2.04-.81-4.55,1.29-5.89,2.23-1.43,4.93-1.33,6.63,1,1.2,1.64,1.06,5.07-1.32,6.13l1.25-3.29c-1.22.05-2.24.3-2.48-.16-.34-.66-.69-1.56-1.02-1.86-.37-.34-1.36-.29-1.93-.47l-1.07-.33c-.23-.07-.6.71-.49.75l.9.45c.17.09.02.6-.04.85s-.34.08-1.12-.04l-.32,1.24c-.08.3.56.97.7.89.54-.4,1.15-.82,1.44-.77l-.98,1.81,2.32,1.7ZM48.83,3.15c.03-.64-.55-1.57-.94-1.58-.32,0-1.12.29-1.26.57-.19.36.35,1.2.61,1.52s1.57-.07,1.59-.52Z"/>
      <path d="M1.35,46.1c.86.46,1.87.83,2.01,2.06l1.92.77.49,2.6,2.66-1.98c-.31,2.71-3.88,3.53-5.94,2.41-2.58-1.41-3.11-4.34-1.79-6.8,1.27-2.39,3.59-2.85,6.04-2l11.48-13.43,3.87-4.39c.47-.53.54-.13.77-.24.03-.01-.16.51-.24.64l-12.92,20.95c2.16-6.05,6.52-10.53,9.13-16.64l-11.59,13.52c.97.93,2.28,1.61,1.5,3.22l-1.68-2.33c-.63.52-1.38,1.01-1.91,1.01-.85,0-1.88-.52-1.55-1.7-.81.14-1.73,1.07-2.25,2.34ZM4.77,50.38c0-.63-.51-1.15-1.15-1.15s-1.15.51-1.15,1.15.51,1.15,1.15,1.15,1.15-.51,1.15-1.15Z"/>
      <path d="M22.57,24.12c-.52-.89-1.04-1.44-2.02-2.01l1.7-.35-2.33-.84.48-1.79.96.51.43-1.33c.41.65.56,1.38.66,2.36.75.95,1.85,2.05,3.12,2.84l-3.1-3.85c.27-.09.97.03,1.16.23l.72.73c.19.19.43-.8.5-1.11,4.97-5.07,9.66-10.78,15.19-15.57-4.41,6.01-10.49,11.12-15.08,16.71-.04.42.38,1.15.63,1.48l.56.75c.11.15-.38.51-.7.83l15.47,14.84,1.13-.72,2.04,4.54c-2.16-.6-3.32-1.08-4.97-1.82l.89-1.24-10.44-10.08-4.6-4.49c-.67-.01-2.07-.08-2.4-.63Z"/>
      <path d="M48.78,26.79c-.12.56-.29,1.02-.51,1.16-.28.18-1.03-.58-.95-.92,1.63-7.11.46-13.82-2.17-20.41l-1.04-2.6.65-.57c.17-.14.75.4.84.62l1.9,5.05c2.16,5.72,2.61,11.54,1.28,17.68Z"/>
      <path d="M28.68,49.12c.02.91-5.81,1.47-7.09,1.58-6.33.54-11.22-1.81-16.85-3.03l-.79-.17c-.24-.05-.38-.65-.36-.89.08-.97,3.03-.13,3.78.2,10.91,4.76,19.45,1.11,20.99,1.43.22.05.32.65.32.87Z"/>
      <rect x="-.12" y="32.27" width="25.4" height=".89" transform="translate(-19.76 19.19) rotate(-46.26)"/>
    </g>
  </g>
</svg>