<?xml version="1.0" encoding="UTF-8"?>
<svg id="Warstwa_2" data-name="Warstwa 2" xmlns="http://www.w3.org/2000/svg" viewBox="0 0 48.9 50.61">
  <g id="icon-v8-weapon-shield-pixarts-store">
    <g id="icon-v8-weapon-shield-pixarts-store_189">
      <path d="M39.81,9.36l-4.29,3.96-16.68,16.51c-.73-.31-1.44-.86-1.81-1.5l7.88-8.07c4.44-4.55,8.45-9.29,13.17-13.56,3.13-2.82,6.84-4.6,10.83-6.72-1.96,3.86-3.34,8.09-6.35,11.19l-21.03,21.65c-.61-.35-1.16-1.04-1.52-1.78l17.59-18.81c.78-.84,1.35-1.62,2.23-2.89Z"/>
      <path d="M10.13,30.65c.14,2.02.2,3.72,1.78,4.93,1.53-1.47-2.05-2.37.52-5.96-2.58-.33-1.9,1.17-4.64,1.11-.36,0-.62-1.1-.46-1.45,1.98-1.19,5.34-1.22,7.55-.04,3.66,1.95,6.12,5.09,6.82,9.23.16.93-.25,2.4-.88,3.15-5.72.7-11.15-4.43-12.94-9.41l2.25-1.54ZM15.66,37.42c.16-1.63-.02-2.18-.52-3.53.69-.26,1.82.09,2.66.58l.73.42c.14.08.52-.39.41-.52l-.51-.62c-1.28-1.56-3.9-1.21-5.31-.28.96.57,1.5,1.08,1.54,1.96.04.7-.48,1.09-1.49,1.42.98,1,2.39,2.65,4.19,1.79-.63-.14-1.77-.68-1.72-1.23ZM19.66,39.05c.74-.35.14-2.28-.58-2.8-.65.69-1,3.05.58,2.8Z"/>
      <path d="M13.11,49.78c-2.85,1.63-7.05.47-6.91-.33l.18-.99c2.18.76,4.24.84,6.25-.4,1.7-1.05,2.9-2.97,2.99-5.48,2.8-.48.44,5.51-2.53,7.21Z"/>
      <path d="M3.89,50.53l-3.66-.31-.24-3.38c.45-.47,1.86-1.38,2.65-1.31.86.08,1.71,1.35,2.33,2.07l-1.09,2.93Z"/>
      <polygon points="8.61 43.85 4.38 43.6 6.52 41.17 11.12 41.43 8.61 43.85"/>
      <path d="M11.27,40.19l-3.55.09c.25-.72.9-1.72,1.63-1.79.68-.07,1.44.85,1.92,1.71Z"/>
      <path d="M19.64,45.77c-1.07-.46-1.31-1.9-1.03-2.54.49-.16,1.62.18,1.71.67.11.6-.23,2.07-.69,1.87Z"/>
      <path d="M7.18,44.77c.19.58-.62,1.81-1.24,1.51-.58-.27-1.09-.91-1.61-1.61l2.86.1Z"/>
    </g>
  </g>
</svg>