<?xml version="1.0" encoding="UTF-8"?>
<svg id="Warstwa_2" data-name="Warstwa 2" xmlns="http://www.w3.org/2000/svg" viewBox="0 0 40.74 56.32">
  <g id="icon-v8-weapon-shield-pixarts-store">
    <g id="icon-v8-weapon-shield-pixarts-store_91">
      <path d="M1.62,31.71l-.97,4.04,1.66-.06c1.18.77,3.23,3.01,4.69,1.15.15-.19.69-.88.87-.74l.86.69c-.48.29-.87.44-.76.53s.55.41.63.56l3.67,7.01-.97,2.5c-1.83-2.64-3.41-5.36-4.52-8.53-.18-.51-.74-.95-1.28-.82-.42.1-.69.88-.69,1.41-1.31-3.17-3.96-2.26-4.59-3.28-.91-1.46,1.46-3.57-.09-6.02.88-1.33,1.84-2.51,3.12-3.53-1.48-6.59-1.67-13.37-1.57-20.27,6.79-.41,12.88-2.69,18.16-6.33l8.62,4.64-2.69,1.51c-2.01-.84-3.85-1.88-5.89-3.06-2.72,1.67-5.49,3.29-8.57,3.99l-7.19,1.64c-.03,4.72.17,9.29.79,13.93.12.88-.03,1.72-.36,2.36.27-.28,1.2-.54,1.62-.39l2.48,1.04-3.4-.52c.6,3.59,1.42,6.93,2.43,10.25l-1.91,1.41c-1.04-3.03-1.84-6-2.49-9.3l-1.81,2.14c-.26.31.26,1.61.15,2.07Z"/>
      <path d="M24.74,39.56l.2,3.37c.11,1.74,3.97.71-5.11,9.02-4.69-4.06-8.2-9.25-10.36-14.86l1.97-2.24c1.29.41,2.55.12,3.37-.88-1.18.58-2.33.48-3.59-.07l-2.19,2.2c-1.44-3.59-2.13-6.8-2.79-10.32l2.39.36c.45-1.13.96-2.26,1.48-2.84l2.37-.36c-.93-.24-2.71-.37-3.19.24-.53.67-.89,1.49-1.37,1.52-.63.05-1.91-.53-1.99-1.12-.57-4.12-.85-7.79-.98-12.04,2.48,3.38,2.51,0,4.93,3.15l-.16,2.38c1.25.54,2.34.92,3.73,1.19l-2.62-1.8.08-1.92c-1.51-3.69-4.1-1.1-5.56-4.98l5.92-1.27,1.54,1.71c-.05,1.36.13,2.58.81,3.44l-.03-3.28c0-.73-.74-1.78-1.25-2.38,2.73-.98,5.14-2.17,7.52-3.57l4.82,2.7c1.1,3.59-1.53,2.55-2.17,5.02l3.02-2.06c.44-.3.71-1.48.85-2.31l7.61,2c-1.14.96-2.24,1.39-3.69,1.88l-.19,2.72-2.64,2.56c1.54-.54,2.52-1.26,3.73-2.12l.1-2.36c1.52-.4,2.23-.7,3.54-1.59l-.39,9.53-2.85,2.51-1.73-2.2c-.93.14-1.95.34-2.8.64,5.12-.46,2.5,5.04,6.91,1.63-.55,3.78-1.37,7.69-2.56,11.3-1.32-.25-2.12.01-3.07.55l-.59.34c-.73.42-.79-3.19-2.74-2.67,1.12.67,1.43,1.77,1.74,3.37,1.03.37,2.54,0,4.16-.38.05.27-3.71,10.44-4.85,8.02-.98-2.1.3-2.27-1.36-3.7ZM16.58,40.64l10.02-16.45-5.74.57,4.53-9.73-7.01.61-4.29,13.82,5.21-.59-2.73,11.75Z"/>
      <path d="M27.72,48.49c-2.38,3.11-4.82,5.47-7.87,7.83-2.93-2.31-5.4-4.51-7.47-7.58-.45-.66.04-2.15.39-3.04,2.19,2.63,4.29,5.09,7.11,7.45,2.54-2.16,4.34-4.38,6.58-6.73.53-.55,1.9,1.23,1.26,2.07Z"/>
      <path d="M35.55,35.58c.74-2.24,1.67-3.68,4.19-4.21l-.92-4.53.61-2.06-2.26-1.35c-.73,4.27-1.56,8.33-2.94,12.69-.84-.58-1.34-1.06-1.79-1.75.93-3.53,1.94-8.31,2.54-11.69.04-.24.45-.77.55-.86.13-.12-.26-.43-.43-.53l-1.88.99c.5-1.03,1.57-1.78,2.65-1.99-.12-.25-.41-1.11-.4-1.49l.3-9.73c.68-.6,1.45-1.26,1.99-2.26-1.06.33-1.76.89-2.67,1.71-2.25-.31-4.77-.89-7.07-1.56l.47-1.47c.25-.06,1.22-.24,1.65-.37l7.9,1.32c.23,5.03-.03,10.28-.5,15.17l-1.05-.89c.42,2.43,3.26,2.51,3.97,3.52.65.92-1.03,1.87-.54,4.04l.8,3.51c-2.75,2.08-4.79,1.72-4.42,5.42l-.59-.48c-.57-.46-.71,1.23-2.97-.07l.91,1.28c-1.35,3.1-2.93,6.21-4.83,8.99-.87-.64-1.4-1.89-.96-2.68,1.43-2.56,2.57-4.83,3.6-7.56.77-2.07,3.3,1.29,4.07-1.08Z"/>
    </g>
  </g>
</svg>