<?xml version="1.0" encoding="UTF-8"?>
<svg id="Warstwa_2" data-name="Warstwa 2" xmlns="http://www.w3.org/2000/svg" viewBox="0 0 57.54 56.48">
  <g id="icon-v8-weapon-shield-pixarts-store">
    <g id="icon-v8-weapon-shield-pixarts-store_09">
      <path d="M36.62,22.52c-2.34,1.66-2.51,3.27-4.36,3.96l4.09-4.65c-.67-.5-1.21-.86-1.64-1.08l-2.7,3.03c.23-1.59,2.12-1.9,2.1-3.84l-5.75,5.52-8.17,9.47c-.17.2-.62.5-.5.62l.56.58c.12.12.59-.26.72-.4l2.68-2.89c.88-.95,1.48-2.2,2.48-3.08l-1.47,2.34c-1.11,1.76-4.01,4.48-3.81,4.69l.56.58c1.96-1.18,2.63-3.9,4.04-3.58l-3.61,3.91c.66.62,1.29,1.13,1.94,1.57,4.47-3.27,2.95-1.91,8.01-3.03.3-.09.36-1.31.15-1.23l-3.03.71.59-1.17-2.23.3c1.37-1.42,2.06-.48,3.94-2.7,2.15-2.53,4.26-4.51,6.92-6.58-.48-1.12-.91-1.97-1.52-3.04ZM33.87,27.61c-2.05,1.79-4.16,4.55-5.96,5.13.53-.56,1.25-1.06,1.89-1.69l5.4-5.27,1.96-1.29c-.95,1.15-2.09,2.06-3.29,3.11Z"/>
      <path d="M35.41,1.53c.06.23.17.66.2.77,0,0,0,0,0,0,0,.04,0,.03,0,0-.45-1.75-2.58,3.31-1.93,5.25l1.69,1.39-1.89-.36c-.04,1.09.12,1.93.73,2.7l1.76,2.23,4.3-.82c-.9-1.81-2.35-2.73-4.16-3.5.35-.08.84-.05.92-.27l.36-1.04c.02,1.05.5,1.68,1.43,2.3.68.45,1.33,2.26,2.32,2.19,1.29-.09,2.65-.52,3.86-.96l.69-3.88-1.6-2.52,1.76,1.97.45-3.87c.07-.62-.4-1.96-1.16-1.92-.82.05-1.32,1.4-1.47,2.19l-2.22-.41c2.5-.14,3.28-2.34,3.13-2.56-.1-.15-.65-.42-.85-.42l-5.09.13c-1.14.03-2.42.85-3.23,1.4Z"/>
      <path d="M35.61,2.3s0,0,0,0c0,.03.01.04,0,0Z"/>
      <path d="M55.13,22.85l-.4-2.2h-1.61c.51-.32,1.27-.43,1.3-.72l.15-1.27.87,2.84,1.84-5.42c.46-1.36.36-3.2-.99-3.98-.4-.23-1.42.37-1.71.68-.21.02-.9,0-1.2.08l-5.51,1.55-1.01,4.18c1.98,2.59,1.36,2.01,3.62,2.28l-1.82.48-1.59,2.43,1.11-2.83c-.22-.57-.94-1.39-1.46-1.82l-1.17,3.66c.13.49,1.14,1.01,1.49,1.33l1.11,1.02c.21.2.85-.32,1.18-.39l4.69-1.01c.32-.07,1.16-.6,1.11-.9Z"/>
      <path d="M44.88,22.9c2-5.95,3.67-13.25,4.24-19.57.07-.81-.31-1.25-.72-1.37l-1.41-.41c-.46,6.97-2.01,13.68-4.18,20.48-.08.25.24.95.4.87.16-.08.48-.31.57-.53l1.15-2.94-.78,2.9c-.04.16-.04.56-.04.7,0,.15.68.12.77-.14Z"/>
      <path d="M54.6,3.01l-.76-.75c-1.32-1.3-2.53-1.21-3.61-.13-1,1-.6,2.41.41,3.49,1.03,1.1,2.04,2.8,3.69,3.11,1.3.24,2.8-1.57,2.78-2.74l-1.35-2.55-1.35.65c.16-.56.37-.91.2-1.07Z"/>
      <path d="M.31,55.4c1.08,1.27,2.79.54,3.76-.34l2.58-2.32c.75-.68,2.13-1.48,2.46-2.41.32-.88-1.31-1.31-1.87-.86-1.36,1.1-2.56,1.96-3.98,2.75l4-3.42c-.28-.22-.59-.5-.8-.44.08-.02-8.13,4.72-6.15,7.04Z"/>
      <path d="M44.04,15.48l-6.55,1.17c2.01,3.78,1.51,2.72,4.86,4.63l1.69-5.8Z"/>
      <path d="M44.76,12.23l-8.83,2c-.36.51.29,2.03,1.06,1.88l7.02-1.36c.22-.11.45-.86.47-1.1l-2,.2,1.77-.65c.25-.09.5-.51.51-.96Z"/>
      <path d="M49.73,10.91c-.77.22-1.52.39-1.36,1.46l2.6-.66-2.53,1.09c-.16.07-.46.63-.3.67.12.03.52.1.68.05l7.97-2.34c-.1-.74-.37-1.35-.87-2.06l-6.19,1.79Z"/>
      <path d="M9.5,50.73l-2.97,2.71c-.9.82-1.73,1.46-2.51,2.54,1.31.44,2.75.86,4.01.07.95-.59,1.66-1.88,2.25-2.93l-.78-2.38Z"/>
      <path d="M42.19,21.97l-7.52-4.41-.97,1.82,7.83,4.07c.3-.45.57-1.04.65-1.49Z"/>
      <path d="M13.09,50.84l1.66-1.48-7.31-3.26-1.27,1.37c1.52.91,3.12,1.73,4.76,2.48.53.24,1.75,1.26,2.16.9Z"/>
      <path d="M14.79,48.31l3.33-3.56c-.59-.65-1.35-1.17-2.24-1.51l-3.43,3.28.69,1.48,3.1-3.18-2.59,3.55c.36.14.96.12,1.14-.08Z"/>
      <path d="M16.02,38.74c-.12.35.41,1.02.66,1.56l2.01,4.34c.23.09,1.04-.27,1.16-.56.1-.24-.05-.75-.15-1.06l.58-.03-3.13-5.74c-.47.41-.97,1.02-1.13,1.5Z"/>
      <path d="M23.09,40.5c.14.09.55-.2.66-.32l-5.04-4.72-1.33,1.29c1.59,1.81,3.22,3.31,5.15,4.89.37-.57.57-.91.41-1.03l-.82-.63c-.33-.51-.34-.56.02-.11l.95.63Z"/>
      <polygon points="48.61 10.65 51.16 9.96 49.08 8.6 48.61 10.65"/>
      <path d="M53.19,9.11l-3.63-3.73-.38,2.76c1.02,1.18,2.79,1.83,4.01.97Z"/>
      <path d="M13.5,42.1c-.48.19-1.63,1.19-1.57,1.77.09.81.26,1.47.42,2.3l3.05-3.08-1.9-.98Z"/>
      <path d="M12.24,47.64l-1.19-4.34-1.67,1.46c-.01,1.89,1.26,2.78,2.87,2.88Z"/>
      <path d="M38.72,25.19c.09.17.87-.04.92-.23l.16-.75.7-.13c.1-.02.19-.34.11-.41-.08-.07-.4-.31-.49-.35l-2.93-1.3c.42.93,1.13,2.4,1.53,3.15Z"/>
      <path d="M13.13,41.24l4.21,1.97c.06-1.01-3.39-3.93-4.21-1.97Z"/>
      <polygon points="9.93 50.13 10.94 53.15 12.78 51.51 9.93 50.13"/>
      <path d="M35.27,17.18c1.01.79,1.88,1.3,2.86,1.79l-1.23-2.09c-.33-.57-1.64-.53-1.63.31Z"/>
      <path d="M21.14,41.28c-.47-.53-1.37-1.3-2.13-1.8l1.4,2.86c.31-.02.92-.84.72-1.06Z"/>
    </g>
  </g>
</svg>