<?xml version="1.0" encoding="UTF-8"?>
<svg id="Warstwa_2" data-name="Warstwa 2" xmlns="http://www.w3.org/2000/svg" viewBox="0 0 41.07 51.76">
  <g id="icon-v8-weapon-shield-pixarts-store">
    <g id="icon-v8-weapon-shield-pixarts-store_145">
      <path d="M38.02,31.56c-2.59,8.32-9.19,17.62-17.89,20.2C3.85,44.49-.71,24.68.09,8.66,6.11,3.98,12.71,1.18,20.14,0c7.65.97,14.63,3.71,20.73,8.73.7,7.75-.51,15.27-2.85,22.82ZM37.14,18.27l.14-6.14c.02-1.01-.52-2.14-1.54-2.75-4.54-2.71-9.69-5.38-15.25-5.32-5.01.05-16.7,4.46-16.82,7.56-.49,13.24,3.72,30.39,17,36.16,10.75-5.18,16.21-18.65,16.46-29.53Z"/>
      <path d="M20.59,46.71C7.58,40.56,4.46,24.56,4.56,11.5c2.13-2.03,4.48-3.27,7.2-4.34,2.79-.83,5.7-2.33,8.72-2.17,5.87.31,11.11,2.79,15.84,6.17.67,12.61-2.96,29.21-15.74,35.55ZM24.43,30.81l-1.56.23c-.35.05-.05,1.25.22,1.48s.91-.19,1.33-.42l.75-.42c.15-.09.43.43.57.59l.97,1.14c.25-.68.3-1.3.57-1.41l1.1-.46-1.38-.67c1.06-.29,1.3-.46.42-.54-1.49.28-2.52-.09-3.42-1.3.17-.12,1.11-.71.83-.93l-1.14-.89c-.44-.34-1.03-.83-1.34-1.12-.29-.27.62-1.34.76-1.22.96,1.25,1.84,2.23,3.09,2.3l-1.04-2.15c1.34.59,2.4,1.36,3.51,1.37.97,0,2.25-.89,2.95-1.58-2.07-.44-3.54-.39-4.6-1.77l1.86.16c1.4.12,2.87-.21,3.81-1.3.77-.9,1.07-2.46.81-3.74-1.58,1.77-3.54,2.47-5.55,2.04,1.6-.96,3.3-1.9,4.36-3.38s.58-3.65-.23-5.41c-.88,2.21-1.93,4.36-4.45,5.42,1.24-2.69.98-5.38-1.44-7.01.81,2.87.11,5.34-2.14,7.03.28,1.04.54,2.58.07,3.38-.16.27-.87.66-1.15.77s-1.12-.52-.94-.75l1.07-1.32c-.72-1.22-1.1-2.05-1.44-3.16l-3.24,1.71c-.17.09-.45.82-.49,1.01s.21.45.4.42l.76-.12c.42-.07.41,1.32.22,1.7s-.93.68-1.35.59c-1.89-.39-1.27-3.01-1.01-4.23-1.23-1.09-2.44-2.49-2.37-4.23l.12-2.9c-2.29,2.28-2.69,4.72-1.21,7.4-2.2-1.31-3.43-3.45-4.53-5.66-.63,1.63-1.1,3.62-.3,5.09.95,1.76,2.88,2.62,4.66,3.74-2.07.52-4.28-.23-5.61-2.09-.41,1.85.41,3.62,1.83,4.52,1.22.77,2.91.34,4.73.35-1.09,1.37-2.54,1.37-4.52,1.79.6.84,1.95,1.73,3.02,1.61.9-.11,1.84-.81,3.05-1.53l-.9,2.17c1.24-.49,2.11-1.22,3.19-2.31.13.09.78,1.27.48,1.54-1.79,1.6-1.28.43-2.44,2-.14.19.66.47,1.26.66l-2.15,1.58c-.46-.25-1.76-.68-1.92-.31l-.67,1.56,1.17-.04.41,1.69,1.41-1.9,2.16.94c.33.15.48-1.18.11-1.23l-1.52-.23,3.05-2.16c.44,4.6-3.38,6.45-3.08,7.27l.42,1.13,2.3-2.05-.57,3.18,2.02,2.76,2.2-2.74-.71-3.28,2.27,2.21c1.95-2.23-3.12-3.03-2.54-8.49l2.72,1.95Z"/>
    </g>
  </g>
</svg>