<?xml version="1.0" encoding="UTF-8"?>
<svg id="Warstwa_2" data-name="Warstwa 2" xmlns="http://www.w3.org/2000/svg" viewBox="0 0 40.32 52.81">
  <g id="icon-v8-weapon-shield-pixarts-store">
    <g id="icon-v8-weapon-shield-pixarts-store_125">
      <path d="M20.31,52.81C6.78,45.85,1.77,33.66.16,19.4l-.16-13.32C7.01,4.39,13.46,2.53,20.14,0c6.65,2.56,13.16,4.45,19.99,6.09.47,8,.11,15.6-1.86,23.1-2.46,10.12-8.57,18.43-17.97,23.62ZM20.52,48.81c14.03-8.59,17.15-25.15,16.11-40.04-5.75-1.21-10.78-2.83-16.17-4.93l-8.87,2.9-8.15,2.15c-.4,8.5.43,16.96,3.55,24.82,2.15,5.4,8.02,13.2,13.53,15.1Z"/>
      <path d="M24.08,32.21v12.9s-3.89,2.84-3.89,2.84l-3.94-2.87-.07-26.8c.24-.14,1.02-.61.88-.51-1.42,1.07-1.07-10.49-.92-11.38,1.5-.63,2.88-1.19,4.22-1.56l3.75,1.64-.04,10.11c0,.48-.87,1.05-1.14,1.17.39.15,1.21.92,1.2,1.73l-.13,11c0,.27-.74.83-.63.95l.7.8ZM19.32,9.38l2.74,1.01c-.94-1.51-2.1-2.11-3.69-2.82l.14,7.68c1.2-1.1.66-2.12.87-3.58l2.41.99c.41-1.6-2.51-1.29-2.48-3.28ZM19.92,25.18c.93.74,1.5,1.27,2.81,1.88-.57-1.22-1.04-1.85-1.67-2.82l1.73-1.52c-.57-.84-1.53-2.34-2.66-2.47-.92-.1-2.2,1.7-2.46,2.37l1.47,1.98-1.67,2.21c1.33.19,1.8-.78,2.47-1.62ZM21.83,38.23c-.47,1.05-.52,1.64-.76,3.02-.98-.87-1.54-1.92-2.54-3.65-.27,2.49-.42,4.48.2,7.07.55-1.33.53-2.06.8-3.62l2.47,2.68c.28-1.8.29-3.6-.17-5.5Z"/>
      <path d="M27.37,27.96l6.59.64c-1.61,5.87-4.35,11.53-9.11,15.42l.06-37.37,10.84,3.04c.59,5.93-.07,11.95-1.45,17.82l-6.93.44ZM27.82,11.57c1.89.8,1.28,2.57,1.54,4.07.46-1.21.83-2.12,1.39-3.01l-3.63-3.11-.24,5.07c-.03.66.25,1.42.76,1.9l.18-4.92ZM33.23,10.92l-1.8-.14.15,4.14c.54-1.59.92-2.6,1.64-4ZM30.14,25.31c1.62-1.09.33-2.44.9-3.22,1-.93,2.34-1.58,2.09-3.21l-1.94,1.93-.83-2.51-.73,2.64-2.05-1.97c-.03,1.45,1.08,2.39,2.17,3.23l.38,3.11ZM30.63,33.61l-2.68-.44,1.47-2.88c-1.75.79-2.22,1.93-3.06,3.68l2.41.55c-.67.84-1.3,1.34-1.28,2.7,1.13-1.07,1.75-1.85,3.13-3.61Z"/>
      <path d="M6.22,28.37c2.55-.16,4.67.77,7.11-.41l-7.36-.44c-1.47-5.84-1.76-11.78-1.54-17.79l10.89-3.04.04,8.58-.05,28.7c-4.81-4.3-7.61-9.55-9.07-15.6ZM10.29,16.85c.46-2.35.33-3.69.48-5.42l.95.75c.14.11.82-.38.69-.51l-2.24-2.17-2.31,2.43c.65.21,1.18.04,1.84-.33.14,1.67.26,3.59.59,5.25ZM12.92,24.97c.23-3.06.23-4.26-.03-6.67l-2.77,2.41-2.71-2.38c-.52,2.38-.6,4.3.03,6.66l2.63-2.79,2.84,2.77ZM13.64,31.96c-.61-.69-1.91-1.65-2.87-2.12l-.28,4.79c-.03.45.18,1.67.56,1.91s1.22.63,1.4.68c-.5-.82-.86-1.43-.96-2.07-.18-1.11,3.06-2.18,2.16-3.18Z"/>
    </g>
  </g>
</svg>