<?xml version="1.0" encoding="UTF-8"?>
<svg id="Warstwa_2" data-name="Warstwa 2" xmlns="http://www.w3.org/2000/svg" viewBox="0 0 49.87 50.21">
  <g id="icon-v8-weapon-shield-pixarts-store">
    <g id="icon-v8-weapon-shield-pixarts-store_61">
      <rect x="2.71" y="44.7" width="1.47" height="4.24" transform="translate(-31.33 15.28) rotate(-43.59)"/>
      <path d="M2.22,49.18l1.23-.57c-.11.49-.58,1.32-1,1.54-.56.29-1.64-.46-1.9-.96L.01,48.16c-.11-.21.51-.71.7-.83l.75-.5c.16-.1.72.47.59.61l-.78.86c-.22.61-.28.96.14.28.34-.27.57-.46.68-.54.12-.09.33,0,.59.07.15.04-.23.59-.48,1.06Z"/>
      <g>
        <path d="M30.04,29.62l1.5-1.69c1.59-1.79,1.36-4.12-.51-5.67l3.85-3.59c.18-.17.6-.47.78-.58.24-.14.68.59,1.01.81,1,.65,3.31.7,4.39-.14,1.64-1.27,2.72-2.94,3.97-4.57,1.73,5.29-.17,10.7-4.12,13.98-.8-.78-.82-.7-.37.28-3.62,3.37-8.82,4.64-13.73,2.51l2.66-1.18c2.56.79,5.19.25,7.5-1.15-2.46.46-4.1,1.22-6.93.99ZM35.04,26.24l-.91-3.64c1.27.92,2.46,1.61,3.79,2.06l-.96-2.91,2.96-.13c.37-.02.99.02,1.13-.21s.26-.85.26-1.11c-1.42,1.08-3.38,1.38-4.59.2l-.63-.62c-.1-.1-.59.57-.52.69l1.71,3.29-3.2-1.96-.99,1.45c1.69.97,1.53,3.01.32,4.65.68.05,1.83-.98,1.63-1.76Z"/>
        <path d="M28.78,13.11l.99.77c.18.14-.03.89-.25.93-.47.07-1.36-.26-1.86-.5l-.15,1.49-3.05-.23c-.18-.01-.67.52-.74.69-.45,1.09,1.89-.46,3.64.47.22.12.02,1.21-.24,1.21l-1.39.02c-2.55.05-4.06,1.95-5.53,4.33-1.23-4.39.32-8.91,3.25-12.05,3.07-3.27,7.39-4.99,12.08-4.14-3.18,2.5-5.33,4.14-3.18,8.58l-3.97,3.81c-.11.1-.57.38-.65.3l-.48-.47c-.13-.12.33-.59.46-.71l3.38-3.27c-1.56-1.01-.98-2.66-1.25-4.56l-1.06,3.34ZM21.6,19.31c.92-2.92,1.8-5.34,3.3-7.71-2.41,1.92-3.17,5.03-3.3,7.71Z"/>
        <path d="M37.2,15.05l-2.02-2.02c1.18-.84,1.48-1.69,1.07-3.19L49.87,0l-9.6,13.96c-1.3-.27-2.03-.19-3.07,1.09Z"/>
        <path d="M10.2,40.82c-.64,1.81-1.41,3.17-2.86,4.46l-1.69,1.5c-.54-.18-1.59-1.23-1.74-1.9,1.26-.72,1.39-2.11,1.96-2.83,1.62-2.04,3.54-3.9,5.5-5.61l3.24-2.82c.47.37,2.47,1,.35,1.84,3.97-1.31-.67,3.03-2.76,5.02l-2.14,2.04.15-1.71Z"/>
        <path d="M27.65,24.8c-.96-.54-1.87-1.47-2.29-2.23l4.15-4.23,3.84-3.91,2.36,2.79-8.05,7.58Z"/>
        <path d="M19.26,33.45c-.44-.43-.9-.95-1.28-1.41l-.75-.25c-.19-.06-.32-.72-.11-.92,1.55-1.39,3.67-3.59,5.35-5.39.67-.72,2.85.19,2.99,1.35-.24.73-1.54,1.56-2.13,2.19l-4.07,4.41Z"/>
        <path d="M17.36,35.14c-.62-.45-1.83-1.7-2.29-2.33-.24-.32.63-1.36.84-1.37l2.23,2.24c.21.21.45.81.46,1.07.02.32-.99.57-1.24.39Z"/>
        <path d="M25.94,26.25l-2.04-2.17c-.16-.17-.07-.93.15-1s.8.02.97.19l1.94,1.98c.16.16.23.76.14.96-.12.26-.96.25-1.16.04Z"/>
        <path d="M36.86,15.45c.14.2-.44,1.28-.66,1.21-.69-.22-2.55-2.45-2.35-3.36,1.1.19,2.43,1.34,3.01,2.15Z"/>
      </g>
    </g>
  </g>
</svg>