<?xml version="1.0" encoding="UTF-8"?>
<svg id="Warstwa_2" data-name="Warstwa 2" xmlns="http://www.w3.org/2000/svg" viewBox="0 0 54.97 58.13">
  <g id="icon-v8-weapon-shield-pixarts-store">
    <g id="icon-v8-weapon-shield-pixarts-store_106">
      <path d="M47.26,9.53l3.97-1.24c2.08-.65,2.73-2.21,3.27-4.11.48.61.66,2,.21,2.33l-2.06,1.55,2.29-.66c-1.87,2.72-4.91,1.61-7.59,3.09l6.22-.73c-.64.55-1.75,1.17-2.51,1.24l-6.08.62.95-1.06-4.65.78,1.36.56c-3.07,1.13-5.28-2.97-8.96-1.36-1.51.66-2.92,1.99-2.64,4,.67-2.15,1.9-3.34,4.11-3.66,1.19-.18,2.57-.3,3.24.95-5.51-.37-4.23,1.1-7.6,3.12-.4.48-.69,1.82-1.17,2.16-.61.42-1.7.62-2.43.47l1.29-1.8-2.04,1.34,1.29-3.96c-.03-1.82-.41-3.88,1.83-4.96.42,1.5-2.49,2.39-.41,5.07l-.81,2.48c1.64-.76.74-2.24,1.15-3.51,1.22-3.72,4.36-4.56,6.04-7.05l.5.78c.17.27,1.25.34,1.55.23l.51-.2c.16-.06.53.67.38.74-.74.33-2.36.19-3.14-.19l-2.51,3.02c5.02-2.23,6.93,1.58,10.55-2.51.18-.67.31-.79.58.24l2.64-.73c-2.26,1.84-4.71,2.82-7.71,3.25,3.01.07,9.74.83,9.22-3.95l1.07-.06c.96-.06-1.07,3.09-1.92,3.73Z"/>
      <path d="M16.12,35.74c.37,1.26-1.58,3-.05,4.01l.16-2.16c1.71,1.32.68,2.95-.49,4.21-.51-1.08-1.06-2.35-1.37-3.28-.18-.53.76-1.53,1.09-1.75-.28-1.48-.28-3.19.06-4.83l-2.49,3.08c-1.05,1.3-.72,3.43-1.01,5.33-.89-1.49-.87-3.34-.57-5.33-.97,2.12-.67,4.56.11,6.95l1.11,3.42c-2.13-1.02-2.18-3.27-2.95-5.46.04,1.54.22,3.66,1.37,4.89,1.18,1.26,2.15,3.47.25,4.64l-.27,3.83c-.09,1.3-.28,2.53-1.25,3.2l-.66-2.44c-.18,1.09-.16,2.12-.69,2.7-.75.82-1.65,1.12-2.76,1.4l-1.54-.38c2.34-.22,3.18-1.27,3.8-3.25l1.04-3.35-1.37-.35c1.86-.82,2.45-2.03,2.25-3.85l-.98-8.97,1.7-3.76c-1.61,1.38-2.82,2.47-4.76,2.91l2.06-2.02c2.67-3.76,2.19-4.29,7.63-5.4l-1.82,1.99c-1.76.49-3.15.96-4.35,2.23l3.85-1.59-1.06,1.31,2.04-1.21c.64-1.76,1.74-3.19,3.91-3.46l-.93.79.6.17c1.19.34-3.02,1.14-1.67,5.8Z"/>
      <path d="M6.14,52.23c-.05-.95.24-1.42.42-2.09l1.13-4.13c-1.38.57-2.6,1.27-3.5,2.24l1.6-.45c-1.45,1.45-3.8,1.73-5.79.76.61-.89,1.38-1.94,2.24-2.64.94-.76,2.82-.88,3.19.61,1.38-.76,2.39-1.78,3.74-3.19l-1.53,5.58c-.35,1.29-.63,2.29-1.5,3.31Z"/>
      <path d="M33.1,28.61c2.66-3.05,3.82-2.43,5.62-3.88.1-.08.21.33.15.44-.64,1.34-2.34.39-4.86,4.48-2.25,3.65-3.84,3.12-7.25,8.65-.87,1.41-3.09,2.01-3.91,2.98-.59,1.42-2.09,2.54-4.05,3.09.47-.6.94-1,1.65-1.46.87-.57,1.44-1.48,2.18-2.25l4.82-4.99,2.09-2.12,4.59-4.77-1.02-.17Z"/>
      <path d="M46.29,2.92c.19,1.38-.9,2.91-2.1,3.57l.74-4.1-1.44,3.98c-.43-.88-.98-2.45-.65-3.18.66-1.45,1.88-2.37,3.06-3.19l.4,2.92Z"/>
      <path d="M29.57,4.65c.55,1.21-.11,2.72-1.24,3.39l-.46-3.51c-.22,1-.29,2.14-.29,3.57-1.16-.5-2-2.52-1.04-3.81l1.78-2.4,1.24,2.76Z"/>
      <path d="M5.74,28.97s-.11.38-.29.42l-1.07.25,3.14.22c-1.51,2.06-4.13,1.65-6.02.44,1.85-1.85,4.56-3.37,6.54-1.15-.75.19-1.53.08-2.3-.18Z"/>
      <path d="M18.17,27.62c-2.36,3.1-5.81.97-8.6,2.43l-3.2,2.34c-.3-1.01.62-1.16,1.12-1.73,1.16-1.32,2.3-1.52,3.99-1.83l6.69-1.21Z"/>
      <path d="M40.32,15.51c-3.76,2.99-4.65-.77-8.92.15,1.04-.83,2.71-1.12,3.81-.44.18-.59,1.38-1.42,1.92-1.17l3.19,1.45Z"/>
      <path d="M22.49,8.49c2.75-.13,4.35.79,4.54,3.21-.95.06-2.56.05-3.14-.56-.68-.71-1.33-1.99-1.4-2.66Z"/>
      <path d="M11.32,27.16c-.75-.44-1.36-.9-2.32-1.68l1.69,2.3c-.86,0-2.06-.43-2.35-1.06-.4-.87-.56-2.37-.29-2.96,2.01.65,3.18,1.29,3.27,3.4Z"/>
      <path d="M20.8,47.72l.26-1.37c1.48.97,1.28,3,.28,4.36-1.4-.81-2.24-3.08-1.31-4.73l.77,1.73Z"/>
      <path d="M13.17,50.65c3.23-2.26,1.73-3.44,4.79-3.45l-2.55,2.59-3.5,3.46c-.26-1.28.39-2,1.25-2.61Z"/>
      <path d="M25.41,14.79c-.14,4.16,2.97,4.44.52,6.64-.2-1.38-.49-2.43-1.14-3.49-.74-.94-.64-2.4.62-3.15Z"/>
      <path d="M41.52,19.23l3.19-2.13-.15,3.46c-.04.93-.92,2.24-1.66,2.26-.18,0-.46-1-.31-1.09l.91-.52.43-2.39c-1.04.31-1.38.41-2.42.41Z"/>
      <path d="M26.46,43.74c-1.36,1.1-3.08,1.95-5.27,1.05,1.15-1.62,3-2.31,5.27-1.05Z"/>
      <path d="M19.67,26.68c.45.88.49,1.77-.54,2.33l-1.35-3.36c-.13-.32.6-1.15.8-1.1l1.09,2.14Z"/>
      <path d="M35.25,18.04l-.3-1.52c1.24.32,2,1.73,1.77,3.17-.34.01-1.1-.25-1.52-.5-1.08-.64-1.76-1.72-1.01-2.8l1.06,1.65Z"/>
      <path d="M20.16,23.15l4.17-.22c-.8,1.59-4.03,1.65-5.09,1.17-.22-.1.63-.93.93-.95Z"/>
      <path d="M16.94,35.27c1.31-.26,2.57.48,2.94,1.58-.53.29-1.88.48-2.34.19-.41-.27-.6-1.21-.6-1.77Z"/>
      <path d="M23.35,21.42c1.01.04-.99-.81-.91-.9l.38-.46c.09-.11.45.15.61.29l.9,1.64c-1.23.42-2.28.54-3.48.36.38-.74,1.09-.98,1.8-.95l.7.03Z"/>
      <path d="M40.39,22.08c-.4,1.49-1.75,2.82-3.64,3.19.79-1.31,1.55-2.59,3.64-3.19Z"/>
      <path d="M32.35,32.64c.94,1.33.74,2.93-.33,4.09-.72-1.38-.85-2.9.33-4.09Z"/>
      <path d="M15.39,26.11l1.23-.34c.28-.08.82.93.59,1.1-.56.42-2.08.53-2.85.45-.18-.4-.43-.81-.24-.86l1.28-.35Z"/>
      <path d="M49.44,14.36l1.81,2.18c-.86.86-2.63-.01-2.83-.75-.11-.39.65-1.17,1.02-1.43Z"/>
      <path d="M47.3,12.89c.42.11.87.72.67.91-2.55,2.4-.08,1.47-2.53,4.29.06-1.77.81-3.44,1.86-5.19Z"/>
      <path d="M37.62,3.49c.12-.11.85-.24.89-.08.34,1.5-.73,2.06-.71,2.07l-1.57-.78,1.39-1.21Z"/>
      <path d="M43.18,19.71c-.81,1.57-2.25,1.87-3.96,2.02.93-1.05,2.31-1.71,3.96-2.02Z"/>
      <path d="M20.71,26.1l.05,1.16-1.13-2.09c1.01-.54,1.95-.71,2.88-.1-.64.44-1.28.79-1.8,1.03Z"/>
      <path d="M5.25,38.33c-.62,1.14-1.43,1.38-2.65,1.13.1-.4.5-1.26.88-1.27.43-.01,1.13.06,1.76.14Z"/>
    </g>
  </g>
</svg>