<?xml version="1.0" encoding="UTF-8"?>
<svg id="Warstwa_2" data-name="Warstwa 2" xmlns="http://www.w3.org/2000/svg" viewBox="0 0 32.18 53.83">
  <g id="icon-v8-weapon-shield-pixarts-store">
    <g id="icon-v8-weapon-shield-pixarts-store_69">
      <path d="M20.78,52.91l-4.8.92L.04,50.48c.44-5.86.57-11.36.57-17.16v-12.85c.04-5.82-.21-11.3-.61-17.3L13.52.24c1.68-.32,3.24-.33,4.92-.01l13.73,2.95c-.34,5.46-.57,10.38-.57,15.65v13.66c0,6.1.16,11.84.58,17.99l-11.4,2.43ZM18,51.09l11.47-2.41-.1-8.27.08-9.83-.07-17.46.06-8.12-11.95-2.45c-2.61-.53-11.77,1.89-14.77,2.53l.07,8.58.03,19.65-.05,9.01.04,6.32,10.15,2.2c1.54.33,3.4.59,5.05.24Z"/>
      <path d="M26.03,48.48l-2.71.64-.4-3.01-.28,3.06c-.38.13-1,.27-1.67.37l.05-15.76c4.69-5.01,4.14-9.69,3.85-16.09l-3.86-1.57-.05-11.94c.42-.06,1.48.11,1.57.49l.42,2.46.26-2.56,2.71.55c.08,1.25.17,2.36.16,3.63l-.1,11.93.03,4.53.02,23.28Z"/>
      <path d="M8.52,48.98c-.46.01-1.71-.26-2.19-.55v-3.35c-.02-.98,0-1.81,0-2.78l.04-13.35-.06-6.57.06-7.9c.02-3.17.02-6.06-.09-9.29l2.18-.58.28,2.28.38-2.33,1.97-.53.16,3.89c.11,2.75.11,5.58-.09,8.21l-3.82,1.53-.17,4.99c-.14,4.13.92,7.95,4,10.95l.05,15.82c-.54.18-1.94,0-2.02-.54-.11-.75-.24-1.72-.45-2.51l-.24,2.6Z"/>
      <path d="M28.57,43.43l.1,4.45-2.11.54c-.1-.92-.21-1.63-.21-2.59V8.23c0-1.09.08-1.82.17-2.96l2.13.56c.1,1.75-.07,3.08-.67,4.79l.69-.57.03,19.71c0,4.67-.24,9.14-.15,13.68Z"/>
      <path d="M4.3,42.03l-.75.71-.1-9.43V15.56s.16-9.61.16-9.61c.54-.41,1.51-.63,2.25-.5v42.91s-2.31-.42-2.31-.42l.08-3.79c.01-.55.49-1.47.67-2.12Z"/>
      <path d="M24.22,18.06c.51,8.6-.09,13.84-8.14,18.33-7.77-4.5-8.92-9.79-8.05-18.29,6.84-2.78,9.33-2.57,16.19-.04ZM16.01,34.96c6.6-2.99,8.16-9.61,6.96-16.13-4.36-1.9-8.91-2.36-13.35-.07-.76.39-.75,2.01-.77,2.77-.14,6.29,1.51,10.29,7.15,13.42Z"/>
      <path d="M17.79,50.19c-1.26.44-2.49.55-3.43-.14v-13.83c1.4,1.01,2.09,1.02,3.41.02l.02,13.95Z"/>
      <path d="M17.84,15.44l-3.47-.02V3.5c1.15-.41,2.12-.37,3.44-.02l.03,11.96Z"/>
      <path d="M18.13,43.53l.21-4.2-.04-3.4,1.95-1.43.06,15.2-1.96.46c-.16-2.27-.35-4.19-.23-6.62Z"/>
      <path d="M13.81,50.02c-.4.08-1.33-.1-1.94-.35l.05-15.16c.66.29,1.89,1.07,1.89,1.74v13.78Z"/>
      <path d="M20.33,15.81c-.75.06-1.33-.04-2.09-.31l.02-11.77c.7-.15,1.5,0,2.04.41l.02,11.67Z"/>
      <path d="M13.84,15.3c-.46.32-1.33.56-1.96.63V3.91s1.95-.38,1.95-.38v11.78Z"/>
      <path d="M22.64,19.23c.75,6.41-.44,12.03-6.42,15.25-4.72-2.17-7.09-6.74-6.84-11.84l.17-3.37c5.18-2.08,7.91-2.04,13.09-.05ZM16.57,25.07l3.13-2.52c-.95-1.08-2-1.98-3.26-2.48-.27,1.17.33,1.42,1.36,2.3l-2.18,1.77-.02-5.1-1.59.54.16,3.6-1.96-.56,1.96,2.2.23,7.11,5.55-3.97-3.37-2.89Z"/>
      <polygon points="17.89 27.9 15.61 29.41 15.58 26.08 17.89 27.9"/>
    </g>
  </g>
</svg>