<?xml version="1.0" encoding="UTF-8"?>
<svg id="Warstwa_2" data-name="Warstwa 2" xmlns="http://www.w3.org/2000/svg" viewBox="0 0 50.34 52.52">
  <g id="icon-v8-weapon-shield-pixarts-store">
    <g id="icon-v8-weapon-shield-pixarts-store_147">
      <path d="M26.44,43.15c-9.36,8.34-18.87-.88-23.25,5.24l-.16-2.91c.78-.7,2.36-1.48,3.52-1.59l7.16-.72c4.46-.45,10.66-3.99,8.74-9.52.68.07,2.14.18,2.79.52l3.15,1.66c-.57,1.77.3,3.52,2.34,4.55-1.65.83-2.93,1.57-4.28,2.78ZM28.34,39.98l-1.28-1.61c-.11-1.53-1.27-3.04-2.76-2.74-2.48,7.15-6.32,8.24-13.02,9.05,7.18,2.27,12.24.18,17.05-4.7Z"/>
      <path d="M32.87,25.52l-.19-2.7c3.71,1.14,7.28-2.2,8.53-5.28,2.44-6.04-.02-8.8,2.17-13.68.59-.33,1.88-.53,2.56-.58-.87,1.47-1.57,3.17-1.23,5.07l.96,5.4c.82,4.59-.43,9.14-3.49,12.66-1.05,1.21-1.58,2.59-2.16,4.41-1.22-1.87-2.96-3.26-5.11-2.2,0-1.59-.72-2.47-2.05-3.1ZM39.61,28.28l2.59-3.66c2.7-3.82,3.63-9,1.43-13.34-.11,6.54-3.4,11.62-9.26,13.33l2.01,2.24,3.23,1.44Z"/>
      <path d="M7.58,41.72c-.86.89-1.45,1.46-2.56,1.56l12.11-12.71L41.73,5.07c-.15,1.21-.7,1.88-1.52,2.74L7.58,41.72Z"/>
      <path d="M2.29,49.89c.01.4.79,1.38.62,1.73s-.8.83-1.19.89-1.29-.43-1.44-.81c-.8-2.06.17-4.58,1.87-5.91l.14,4.1Z"/>
      <path d="M49.74,2.69c-1.89-.52-3.84-.59-5.81-.09,1.04-1.73,4.53-3.62,6.25-1.96.35.34.11,1.84-.43,2.05Z"/>
      <path d="M30.82,28.97c.03.83-.52,1.88-1.61,2.67-.27-1.15-.13-2.74.22-3.85,1.1.33,1.85.53,2.69.66.32.05.39.88.07.86s-.71-.14-1.38-.34Z"/>
      <path d="M34.08,28.62c-1.28-.25-2.37-.85-3.25-1.57.82-.78,1.68-1.15,2.14-.81.7.51,1.23,1.41,1.11,2.37Z"/>
      <path d="M28.45,33.99c.19.24-.68,1.09-.88.92l-.9-.76-1.04-.88c-.23-.2.39-1.27.67-1.12.54.28,1.72,1.31,2.15,1.85Z"/>
      <polygon points="28.66 33.03 26.57 31.39 28.26 28.99 28.66 33.03"/>
      <path d="M23.28,43.07v-1.03c0-.18-.21-.67-.35-.55-1.51,1.42-.06,1.95-.94,2.38-.49.23-1.06.36-1.62.4l1.76-3.68,2.91-.09c.18,0,.64-.51.76-.65.15-.19-.31-.74-.49-.58l-.65.58c-.19.17-1.01-.46-.89-.74l1.16-2.74c.63.04,1.41.84,1.21,1.2l-1.01-.07c-.24-.02-.66,1.17-.45,1.63,0-.02.34-.04.48-.04s0-.32-.03-.68c.6-.24,1.86.53,1.82,1.4-.06,1.2-1.55,1.64-2.4,1.91-.11.52-.76,1.61-1.26,1.33Z"/>
      <path d="M19.71,43.17c.67,1.71-2.88,2.06-3.98,1.77l3.98-1.77Z"/>
      <path d="M42.39,22.31c.69,1.77-1.16,1.65-1.6,2.52s-.94,2.3-1.97,2.2c-.16-.02-.6-.39-.55-.51l.26-.69c.07-.17.36.14.92.54l.11-3.24c.05-1.51,2.45-3.02,3.94-2.44-.48.64-1.68,1.12-2.31,1.37-.17.18-.57.72-.69.92-.15.25.49.73.72.81l1.17-1.5Z"/>
      <path d="M37.54,26.11c-.12.73-1.78-.24-1.65-1.13.73-.56,2.46-1.63,2.95-.76.1.17.09.73-.12.7l-.88-.13c-.17-.02-.17.51-.3,1.32Z"/>
    </g>
  </g>
</svg>