<?xml version="1.0" encoding="UTF-8"?>
<svg id="Warstwa_2" data-name="Warstwa 2" xmlns="http://www.w3.org/2000/svg" viewBox="0 0 32.03 53.76">
  <g id="icon-v8-weapon-shield-pixarts-store">
    <g id="icon-v8-weapon-shield-pixarts-store_68">
      <path d="M16.1,53.76l-15.09-3.13c-.61-.13-1.05-.69-1.01-1.3.21-2.93.45-5.6.46-8.52l.08-20.19c.02-5.57-.14-10.85-.53-16.39-.02-.27.03-.98.23-1.1l.9-.54c18.69-3.53,11.83-3.54,30.86.4l-.58,17.35v12.56c0,5.89.16,11.42.6,17.48l-15.93,3.37ZM17.58,51.03l11.76-2.48.03-43.64-11.85-2.47c-1.26-.26-2.69-.04-3.99.14L2.65,4.9v43.62s9.85,2.14,9.85,2.14c1.6.2,3.36.74,5.08.38Z"/>
      <path d="M9.16,49.11l-.43-2.85-.31,2.66-2.26-.59V5.13s2.19-.63,2.19-.63l.42,2.25.28-2.35,2.07-.45-.02,11.27-4.32,1.68c-.11,7.13-.93,11.24,4.34,16.89l.02,15.59-1.97-.28Z"/>
      <path d="M22.87,46.56l-.33,2.27c-.06.42-.95.65-1.58.58l-.04-15.65c3.3-3.23,4.6-7.47,4.4-12.01l-.22-4.93-4.14-1.6-.06-11.15c.76.08,1.25.1,1.48.28.27.22.28,1.17.24,1.52l-.07.69c0,.09.16.12.23.05.07-.07.24-.36.25-.46l.15-1.63,2.64.49v43.38s-2.56.62-2.56.62l-.39-2.45Z"/>
      <path d="M28.62,10.43c-.01,10.29-.02,22.89-.03,32.28,0,.36-.54.4-.51.46.65,1.22.5,2.88.45,4.67l-2.16.33-.02-42.91,2.24.42c.06,1.63-.04,2.9-.49,4.36l.53.39Z"/>
      <path d="M3.64,44.09l.52-2.16-.31.54c-.06.1-.11.08-.41,0l.03-32.66.02-4.14,2.14-.45.03,23.31-.04,19.67-2.1-.4c-.03-1.23-.15-2.56.12-3.72Z"/>
      <path d="M24.65,22.28c.17,6.5-3.42,11.12-8.56,14.52-2.63-1.73-4.89-3.57-6.54-6.19-2.74-4.37-2.16-8.18-2.08-13.36,2.78-1.07,5.5-1.78,8.5-2.29,3.01.46,5.74,1.2,8.54,2.33l.13,4.99ZM16,35.21c3.72-2.23,6.71-5.59,7.24-9.97.28-2.3.08-4.57.08-6.95-5.24-2.66-9.45-2.34-14.7-.05.04,2.28-.17,4.49.09,6.73.51,4.46,3.44,8.03,7.29,10.24Z"/>
      <path d="M17.65,50.05c-.88.53-2.28.41-3.32.02v-13.51s1.44.85,1.44.85c.34.2,1.01-.32,1.84-.7l.03,13.34Z"/>
      <path d="M17.62,14.37l-3.28.09-.03-11.11c.94-.29,2.2-.31,3.34-.06l-.03,11.08Z"/>
      <path d="M13.81,49.9c-.52.03-1.29-.11-2.01-.29l.05-14.95c.76.55,1.34,1.01,1.94,1.55l.02,13.69Z"/>
      <polygon points="18.2 50.03 18.19 36.23 20.15 34.77 20.19 49.58 18.2 50.03"/>
      <path d="M13.8,14.4c-.47.38-1.22.51-1.97.49l-.04-10.99c.58-.21,1.2-.33,1.97-.39l.03,10.88Z"/>
      <polygon points="20.16 14.88 18.18 14.59 18.19 3.56 20.21 3.84 20.16 14.88"/>
      <path d="M16,34.64c-3.63-2.19-6.41-5.62-6.77-9.92-.18-2.1-.05-4.1-.07-6.24,5.62-1.95,7.93-2.18,13.69.01-.13,2.45.2,4.88-.2,7.17-.7,3.94-3.35,6.9-6.65,8.97ZM18.58,29.8l1.25-1.18-3.61-3.23,3.71-2.75-4.64-3.87c-.39.08-1.03.33-1.42.53-.33.17-.22,1.07-.22,1.54l-.02,10.34c.46-.14,1.53-.77,1.54-1.27l.08-3.53c1.27,1.14,2.29,2.24,3.32,3.43Z"/>
      <polygon points="17.76 22.58 15.21 24.44 15.19 20.55 17.76 22.58"/>
    </g>
  </g>
</svg>