<?xml version="1.0" encoding="UTF-8"?>
<svg id="Warstwa_2" data-name="Warstwa 2" xmlns="http://www.w3.org/2000/svg" viewBox="0 0 47.54 49.85">
  <g id="icon-v8-weapon-shield-pixarts-store">
    <g id="icon-v8-weapon-shield-pixarts-store_185">
      <path d="M21,28.94c4.41-5.05,9.13-9.28,13-14.63l-13.89,13.37c-1.91.92-4.25,1.8-6.43,2.2,5.27-6.2,12.8-12.34,13.32-20.32,2.13-1.72,4.58-3.2,7-4.52l1.56,1.27.34-2.19c3.73-1.68,7.35-2.98,11.63-4.12-.29,3.9-1.12,7.21-2.31,10.68l-2.2.95,1.14,1.45c-1.28,2.69-2.61,6-4.72,8.09-7.91,1.05-14.61,8.74-20.3,14.33l1.85-6.55ZM41.43,6.67c-.59,4.07-2.18,7.77-4.17,11.32-2.63.76-4.64,2.11-6.66,3.82l-1.54,1.64c2.99-1.94,5.58-3.61,8.94-4.73,2.63-4.08,4.26-8.53,5.08-13.62-4.87,1.13-9.44,3.02-13.45,6-1.17,3.15-2.64,5.92-4.48,8.77,8.05-8.59.83-7.64,16.26-13.21Z"/>
      <path d="M22.24,37.5c-.37,2.43-2.85,4.64-5.37,4.79-.1-1.66-.69-3.04-1.54-4.35l.77-1.78c.61-1.41-.11-2.74-1.62-3.2-.99-.3-2.02.42-3.12,1.68-.89-2.09-2.77-2.35-4.87-2.23.77-2.71,2.82-4.91,5.54-5.59-.28,1.74-.46,3.88,1.16,4.93l6.02-1.99-1.87,6.17c.81,1.27,2.8,1.49,4.9,1.57Z"/>
      <path d="M2.8,49.61l-2.61.24L0,45.9c-.04-.91,1.68-1.93,2.65-1.91l2.95,3.55c.24.43-.44,1.51-.84,1.76-.43.27-1.27.25-1.96.31Z"/>
      <path d="M37.68,35.95c-.69.32-8.59-5.2-6.41-5.86,2.49,1.15,5.13,2.96,6.41,5.86Z"/>
      <path d="M9.85,13.83c1.51-.25,6.93,4.01,7,5.73.06,1.6-6.69-4.73-7-5.73Z"/>
      <path d="M10.45,40.91l-4.8.45,1.95-2,5.14.26c-.37.51-1.45,1.21-2.29,1.29Z"/>
      <path d="M9.95,42c-.29,2.22-4.66,2.27-5.1,2.05-.29-.15-.41-.66-.67-1.39l5.76-.67Z"/>
      <path d="M29.81,38.45c-1.32-1.76-2.06-3.82-1.3-5.71,1.34,1.74,1.66,3.69,1.3,5.71Z"/>
      <path d="M19.45,16.98c-1.51-1.52-1.8-3.49-1.67-5.55,1.37,1.51,2.19,3.33,1.67,5.55Z"/>
      <path d="M14.17,22.28c-1.99.64-4.09.41-5.76-.8,2.11-.62,3.95-.24,5.76.8Z"/>
      <path d="M39.57,28.15c-1.97.57-3.86.43-5.76-.42,1.8-1.04,3.79-.47,5.76.42Z"/>
      <polygon points="12.8 38.39 8.55 38.32 10.5 36.04 12.8 38.39"/>
      <path d="M12.69,36.09l-.42-.59c-.15-.21,1.11-1.56,2.22-.9.41.24.25,1.31-.11,1.71-.39.43-1.4.21-1.7-.22Z"/>
    </g>
  </g>
</svg>