<?xml version="1.0" encoding="UTF-8"?>
<svg id="Warstwa_2" data-name="Warstwa 2" xmlns="http://www.w3.org/2000/svg" viewBox="0 0 45.53 47.82">
  <g id="icon-v8-weapon-shield-pixarts-store">
    <g id="icon-v8-weapon-shield-pixarts-store_150">
      <path d="M30.62,21.18c-.19.67-.08,2.11.37,2.74l6.48-.31c2.15-.1,2.46-3.71,2.53-5.27.09-2.03.01-3.73,1.86-4.85l-1.39,8.46c-.56,3.43-3.01,6.62-5.55,8.85.36-1.72,1.63-3.3,1.11-4.92-.16-.5-1.31-1.05-1.82-1.09-.58-.05-1.59.85-2.16,1.02-1.54.33-2.77-1.9-2.76-3.08.01-1.73,1.1-3.5,2.98-3.72-.36.82-.72,2.03-.41,2.64,1.36.72,2.96-.3,3.78-1.47,1.92-2.75,1.94-6.03,1.38-9.34-.32-1.93,0-4.11.61-6.03,1.12-3.57,5.84-6.17,7.56-4.02.59.73.45,2.3-.25,2.77-.33.22-1.49.18-1.66-.13-.2-.37.05-1.03.32-1.93-2.47-.53-4.5,1.48-5.19,3.84-.53,1.81-.76,3.58-.34,5.19-.04-1.72,1.09-8.4,3.8-8.11-3.72,3.96-3.05,8.71-2.56,13.86.23,2.39-.63,8.46-2.99,6.18,1.61-2.01,2.58-4.56,1.82-7.02-.03,3.28-1.26,6.52-4.42,7.43-.44.13-1.76.27-2-.09l-1.07-1.61Z"/>
      <path d="M22.35,37.15c.18.45.4,1.11.43,1.45.09,1.33-4.52,1.98-3.94,1.97l-10.23.15c-2.46.04-4.11,1.44-6.22,3.09.58-3.32,6.17-3.98,8.71-4.11-3.54-1.31-10.6,1.68-9.73,5.91l1.71-.52c.64.68.45,2.13-.14,2.49-.85.51-2.27.17-2.62-.72-.93-2.32.41-4.51,2.21-5.96,6.01-4.85,10.99.05,16.86-3.65,1.28-.81,2.64-2.51,1.81-3.86-.38-.51-1.78.03-2.67.32.16-.73.71-1.63,1.32-2.26,1.37-1.42,3.02-1.29,4.41,0,2.7,2.5-.93,2.54.53,5.12.33.58,1.74,1,2.33.69l3.02-1.6c-5.08,6.29-8.81,5.87-16.67,7.88,2.1-2.87,3.04-1.56,7.39-2.65,1.3-.33,3.02-1.54,2.7-2.96-1.01-4.45.89-3.7-.77-5.95-.42-.57-1.58-.53-2.17-.06l1.36.45c1.09.36.73,3.76-.92,5.09-1.33,1.08-2.94,1.52-4.65,2.2,2.34.41,4.32-.78,5.94-2.51Z"/>
      <path d="M7.53,37.06c-.67.7-1.43,1.18-2.45,1.25l7.36-7.69,20.67-21.72,3.51-3.71c-.29,1.75-1.39,2.82-2.5,3.99l-10.17,10.77L7.53,37.06Z"/>
    </g>
  </g>
</svg>