<?xml version="1.0" encoding="UTF-8"?>
<svg id="Warstwa_2" data-name="Warstwa 2" xmlns="http://www.w3.org/2000/svg" viewBox="0 0 46.32 48.17">
  <g id="icon-v8-weapon-shield-pixarts-store">
    <g id="icon-v8-weapon-shield-pixarts-store_174">
      <path d="M23.61,22.64c-1.8,1.76-3.97,3.16-6.07,4.35-1.09.62-2.44,1.12-3.02,2.28-.13.26-1.03.66-1.25.46l-.86-.77c2.35-.67,3.91-1.58,5.5-3.27l9.02-9.57,1.06-.23c.25-.05.34-1.04.59-1.31l7.21-7.55c1.55-1.62,4.36-1.72,6.39-2.64-.41,2.28-.92,4.61-1.87,6.4l-12.97,13.17.44-3.67,9.52-10.53c-3.2,2.11-5.53,4.86-8.2,7.49l-5.48,5.38Z"/>
      <path d="M20.39,36.45c-1.63-.61,1.51-5.41,3.17-7.11l14.6-14.94c4.09-4.19,3.98-4.31,5.21-11.13-6.95,1.4-7.5,1.89-11.54,6.28-1.03-2.77,2.72-6.06,5-6.85,3.12-1.07,6.01-1.91,9.48-2.71-.71,4.25-1.17,8.03-2.94,11.65-.76,1.55-2.66,2.81-3.87,4.04l-6.46,6.56-1.22-.56-.18,1.89-8.32,8.51c-1.63,1.67-1.23,5.01-2.93,4.37Z"/>
      <path d="M17.1,24.89c-1.33,1.37-4.82,3.33-5.28,3.15-.33-.13-.59-.8-.92-1.53l3.21-1.24L30.76,8.11c.33.76.45,2.21-.07,2.76l-13.59,14.03Z"/>
      <path d="M20.03,41.47l-5.28-3.19c2.16-1.24,3.26,1.6,4.75.84l-2.15-1.81c-.21-.18-.41-.74-.31-.97.13-.28.91-.18,1.16.05l3.15,2.87,1.38-.84c.25-.15.82.67.82,1,0,1.61-1.76,3.4-3.18,3.78-.26.07-1.35-.24-1.22-.46s.28-.43.88-1.27Z"/>
      <path d="M8.15,28.35c-.14,1.5,2.52,3.11.98,4.57l-1.9-3.26c-.25-.43-.38-2.02-.77-1.78l-1.72,1.05c-.61-1.37-.02-2.28.77-3.22.68-.81,2.39-1.48,3.35-.96.27.15-.03,1.27-.31,1.33l-1.31.27c-.12.03-.38.4-.38.52s.13.41.25.35l.56-.28c.2-.1.93-.09,1.09.09l2.56,2.99-.54.65c-.56.67-1.44-2.07-2.61-2.33Z"/>
      <path d="M19.13,34.1l-.32.71c-.07.17-.63-.22-.56-.37l2-4.35c1.43-3.11,3.59-5.57,5.9-8.01.25.69.61,2.27.2,2.78-3.87,4.74-4.8,3.85-7.22,9.24Z"/>
      <path d="M16.66,34.11c0,1.79-1.45,3.24-3.24,3.24s-3.24-1.45-3.24-3.24,1.45-3.24,3.24-3.24,3.24,1.45,3.24,3.24ZM15.67,34.12c0-1.22-.99-2.22-2.22-2.22s-2.22.99-2.22,2.22.99,2.22,2.22,2.22,2.22-.99,2.22-2.22Z"/>
      <path d="M5.08,48.06c-.69.48-1.48-.78-4.31-.78l.11-2.2c-.39-.55-.82-1.13-.88-1.57-.08-.58,1.08-1.41,1.51-1.12.67,2.07,2.04,3.75,4.24,4.3.05.33-.33,1.13-.67,1.37Z"/>
      <polygon points="17.72 32.7 16.64 30.13 14.98 29.69 20.32 26.96 17.72 32.7"/>
      <path d="M5.81,45.07c-1.46.45-2.36-1.08-2.83-2.27l1.33-1.42,1.5,3.69Z"/>
      <path d="M7.04,41.18l.55,1.29c.13.31-1,1.03-1.24.8-.63-.61-1.17-2.57-.62-3.55.6-.26,1,.75,1.31,1.46Z"/>
      <path d="M10.01,40.14l-1.28,1.29c-1.15-.48-1.88-2.21-1.08-3.43l2.36,2.15Z"/>
      <path d="M11.76,38.63c-.2.19-.74.71-1.01.66-.33-.06-.98-.52-1.19-.78l-.87-1.05c-.19-.23.29-1.08.45-1.09l2.62,2.26Z"/>
      <circle cx="13.38" cy="34.13" r="1.11"/>
    </g>
  </g>
</svg>