<?xml version="1.0" encoding="UTF-8"?>
<svg id="Warstwa_2" data-name="Warstwa 2" xmlns="http://www.w3.org/2000/svg" viewBox="0 0 46.35 48.82">
  <g id="icon-v8-weapon-shield-pixarts-store">
    <g id="icon-v8-weapon-shield-pixarts-store_164">
      <path d="M23.05,13.5c-.08.55-.35,1.13-.81,1.93l-2.01-2.63,2.82.7Z"/>
      <path d="M21.12,30.43l2.77-2.96-3.82,2.08,2.37-4.39-2.71,2.95c-.18.19-1.16-.17-1.1-.43.43-1.84,3.39-3.76,3.76-5.51-1.32,1.13-3.17,3.26-4.19,4.48-.14.17-1.01-.34-.89-.52l.64-.97,2.81-5.35c3.54-6.73,8.3-12.62,13.11-18.52,1.43-1.76,4.7-1.52,6.27-.43l-2.51,1.74,3.42-.8c1-.23,2.97,1.81,2.48,2.71-.66,1.21-1.77,2.36-1.97,3.82l3.09-3.32c.95,2.32.74,5.34-.95,7.06-2.22,2.27-4.41,4.17-6.71,6.21l-5.67,5.05c-1.64,1.46-3.32,2.75-5.17,4.01-1.65,1.12-2.58,2.94-5.07,3.12ZM22.57,19.68l1.83-2.26c2.71-1.66,3.86-4.13,5.53-6.67,1.08-1.63,2.38-3.26,3.59-4.89l3.82-2.57-1.6-.93c-.05,2.33-3.04,1.86-3.09,2.59l-.07,1.09-5.06,6.11c-.08.1-.54.37-.62.44-.06.06-.08.22.01.21l.87-.1c-.76,2.85-5.79,4.41-5.22,6.98ZM36.45,12.32c1.04-1.01,1.65-1.57,2.96-2.39l-.13-3.59-3.97.03-.09,3.84,1.72.43-.49,1.69ZM43.25,8.31l-3.69,5c1.26-.23,4.53-3.6,3.69-5ZM34.39,15.75l-.37-3.8h-3.89s.33,4.34.33,4.34l3.94-.54ZM24.18,25.72c1.77-.68,3.67-1.06,5.01-2.15l2.15-1.77c.96-.78,1.57-1.76,2.26-2.75,1.51-2.17,3.79-3.47,5.24-6.06-1.88,1.53-5.77,5.05-7.21,7.34-2.31,3.67-5.02,2.7-7.45,5.38ZM29.44,21.57l-.41-3.77-3.63.17.12,3.62,3.92-.02Z"/>
      <path d="M3.28,46.03c.93-.49,1.4-1.22,2.21-2.18l.9.69c.27.21-.12,1.19-.36,1.42l-2.42,2.34-2.71-2.13c-.64-.5-1.04-2.19-.85-3.04.36-1.58,2.47-2.75,2.86-2.52,2.16,1.24-2.76,1.46-1.34,4.08.27-1.06,1.3-2.43,2.28-2.53.42-.04,1.12,1.12.91,1.47l-1.47,2.4Z"/>
      <path d="M19.56,32.76c-1.79-1.21-2.9-2.43-4.26-3.89-.4-.43.55-2.14.99-1.77,1.61,1.37,2.81,2.65,4.29,4.18.32.34-.62,1.76-1.02,1.49Z"/>
      <path d="M16.23,35.1c.17.34-.99,1.41-1.18,1.33l-2.65-4.17c.08-.32.92-1.01,1.47-1.21l2.36,4.06Z"/>
      <path d="M7.36,43.78l-3.36-3.25c.4-.35,1.23-.83,1.58-.8,1.3,2,5.19,3.78,3.02,4.58-.31.12-.94-.25-1.23-.53Z"/>
      <path d="M32.06,1.48c-.67,1.06-1.18,1.75-2.02,2.75L27.99.1l4.08,1.38Z"/>
      <polygon points="46.35 16.84 42.16 15.25 44.25 13.21 46.35 16.84"/>
      <polygon points="40.55 22.04 36.75 20.09 38.99 18.11 40.55 22.04"/>
      <path d="M27.94,7.51l-1.94,2.34-2.06-3.34c1.48.24,2.23.44,4,1Z"/>
      <path d="M11.22,39.18c-1.39-.57-1.98-.94-3.33-1.83l1.56-1.96c.76,1.43,1.08,2.09,1.77,3.78Z"/>
      <polygon points="34.63 26.68 31.28 24.97 33.37 22.97 34.63 26.68"/>
      <path d="M13.87,37.37c-.25.63-.71,1.19-1.47,1.86l-1.97-3.64,3.45,1.78Z"/>
      <path d="M13.78,36.23l-3.32-1.5c.27-.56.84-1.19,1.36-1.44.91.6,1.55,1.63,1.96,2.94Z"/>
      <path d="M4.62,48.7l1.27-1.03,1.63-2.49c.65,1.08.5,1.95-.1,2.66s-1.24,1.25-2.8.87Z"/>
      <path d="M17.94,33.2c.2.2-.59,1.07-.88,1.15-.98-1.38-1.81-2.73-2.23-4.27l3.12,3.12Z"/>
      <polygon points="11.37 40.49 9.73 42.24 8.7 38.91 11.37 40.49"/>
      <path d="M38.5,7.33c-.19.94-.27,1.51-.44,1.81-.2.36-1.19.39-1.81.39l-.18-2.26,2.43.05Z"/>
      <rect x="31.17" y="12.85" width="2.19" height="2.28" transform="translate(-.59 1.45) rotate(-2.55)"/>
      <rect x="26.36" y="18.56" width="2.03" height="2.21" transform="translate(-.36 .52) rotate(-1.07)"/>
    </g>
  </g>
</svg>