<?xml version="1.0" encoding="UTF-8"?>
<svg id="Warstwa_2" data-name="Warstwa 2" xmlns="http://www.w3.org/2000/svg" viewBox="0 0 45 55.61">
  <g id="icon-v8-weapon-shield-pixarts-store">
    <g id="icon-v8-weapon-shield-pixarts-store_103">
      <path d="M44.99,28.05c-.12.61-.87,1.24-1.37,1.31-2.63.36-4.95-2.26-5.43-4.77-.8-4.23-2.9-9.44-8.9-10.45.21-1.57.59-3.08,1.11-4.41,6.05,3.01,9.25,7.75,9.44,13.33.06,1.67.37,3.3,1.48,4.67.49.61,1.97.83,2.32.35.09-.13.18-.62.17-.76,0-.19-.49-.13-1.23-.14l1.26-.41c.4-.13,1.26.75,1.16,1.28ZM37.19,18.35c-.71-2.94-3.03-4.55-5.29-6.29l.23.89c.03.12-.18.21-.56.46,2.73.93,4.34,2.93,5.62,4.93Z"/>
      <path d="M22.62,11.44c-9.22-5.42-15.51,3.68-21.53.97-.91-.41-1.3-1.5-.97-2.16.45-.89,1.92-1.19,2.59-.46-.66.28-1.14.48-1.41.66-.33.21.36,1.23.9,1.29,5.46.62,9.76-7.62,23.35-4.08l-2.93,3.78ZM20.91,9.13l1.86-.61c-2.99-.65-5.96-.68-8.91.21,2.39-.1,4.84-.31,7.05.4Z"/>
      <path d="M16.4,31.09c-.09.55-.28,1.16-1.36,1.51.45-3.18,2.03-2.98,3.26-5.47L28.96,5.58c-.84-.05-1.59-.03-2.49,0l5.82-5.58-.65,7.43-1.49-1.71-8.39,16.38c-1.15,2.24-2.44,4.39-3.27,6.7-.55,1.52-.65,2.85-2.02,4.2l-.08-1.9Z"/>
      <path d="M9.48,52.32c-.26.81-1.52,1.34-2.39.91l-1.86-.9c-1.3-.63-1.89-1.55-1.2-2.74l.69.72c.07.08.52,0,.47-.08-.09-.13-.43-.57-.49-.71-.29-.66,1.32-1.92,2.53-1.41-.22-.26-.79-.91-.66-1.18l2.06-3.99,3.97.34-2.57,4.95c-.11.21-1,.5-1.16.53.46.61.58,1.64.34,2.77l-3.73-.51c1.13.81,2.53,1.25,4.01,1.28Z"/>
      <path d="M15.25,27.77c.23-4.39,2.19-3.84,3.98-6.98,1.51-2.67,2.34-5.4,2.16-8.27,3.02.02,2.37-3.1,4.61-3.09-2.66,6.01-5.92,12.42-9.09,18.26-.13.24-.71.63-.88.78s-.8-.48-.79-.7Z"/>
      <path d="M24.67,20.54c-3.35,6.29.86,4.61-4.85,9.6-.69-1.26-.03-2.41.54-3.53l8.38-16.4c.8,1.56-.39,2.65-.41,4.08l.95,1.6c-2.34,1.08-3.55,2.67-4.61,4.65Z"/>
      <path d="M19.18,32.32c-1.94,2.56-3.59,4.83-5.09,7.7-1.09-.07-2.23-.23-3.48-.48l2.54-5.76c.44-1,.45-2.23.73-3.38.73.75.57,1.56.46,2.61.48.2,1.92.55,2.48.48.74-.41,1.03-1.16,2.36-1.18Z"/>
      <path d="M5.41,37.98c3.36,4.51,13.51,2.9,12.97,1.15-.13-.42-.43-.96-.87-1.79.72.06,1.92.78,2.2,1.4,1.23,2.74-5.96,4.49-11.52,2.61-1.94-.66-3-1.87-4.18-3.16-.63-.69-1.37-1.43-1.54-2.24-.19-.89.51-1.86,1.81-2.32-.5,1.21-.65,2.29-.08,3.5l.33.7c.08.17.51.12.87.16Z"/>
      <path d="M16.23,13.54c-1.75-.32-3.12.21-3.81,1.08-.85,1.06-.7,2.4.24,3.34s2.42,1.14,4.06.89c-1.6,1.32-4,1.16-5.57,0-1.66-1.22-1.83-3.27-.43-4.76,1.31-1.39,3.89-1.76,5.52-.55Z"/>
      <path d="M9.14,53.58c-.18,1.97-3.62,2.52-5.47,1.6-2.19-1.09-2.56-3.42-1.04-5.09.51,2.54,2.94,4.16,6.51,3.49Z"/>
      <polygon points="3.76 13.45 15.64 29.84 14.88 30.21 3 13.82 3.76 13.45"/>
      <path d="M18.97,31.62c-.76-.07-1.08-.17-.52-.47l19.51-2.7c.67-.09,1.34-.04,1.61.44l-20.61,2.72Z"/>
      <path d="M30.69,23.64l-.53,2.89-.73-2.6-1.11.06c.13-.28.48-.74.31-.82l-1.11-.56,1-.31c.24-.08.36-.61.51-.93.06-.14.48-.19.78-.24l.32-2.11.69,2.59.64-.66,1.95.52-2.11,1.24,1.04,1.16-1.64-.22Z"/>
      <path d="M23.38,6.4l-2.33-.48c.5-2.92,3.45-4.84,6.92-4.98-2.9,1.13-4.96,2.26-4.59,5.46Z"/>
      <path d="M34.86,11.26l-2.16-1.16c2.91-1.21,3.33-3.53,2.61-5.89,1.8,2.1,2.02,4.76-.45,7.05Z"/>
      <path d="M15.93,44.29c1.93-.35,3.65-.65,5.08-1.46l.53-.3c.13-.07.31.18.59.44l2.11-2.57c.22,1.8-.96,3.01-2.71,3.46-1.89.48-3.69.89-5.61.43Z"/>
      <path d="M8.1,37.89l-1.2-1.78c1.34-.82,3.1-1.57,4.57-1.04-1.03.38-1.96.69-2.68,1.02-.53.24-.54,1.16-.69,1.8Z"/>
      <path d="M22.84,39.7c-.47-1.88-2.37-2.92-4.63-4.05,2.57-.2,5.03,1.55,4.63,4.05Z"/>
      <path d="M11.83,33.12c-2.2.41-4,.86-6.09,1.58,1.13-1.87,3.96-1.82,6.09-1.58Z"/>
      <path d="M6.34,41.43c-1.62-.17-3.54-.85-4.26-2.63l4.26,2.63Z"/>
    </g>
  </g>
</svg>