<?xml version="1.0" encoding="UTF-8"?>
<svg id="Warstwa_2" data-name="Warstwa 2" xmlns="http://www.w3.org/2000/svg" viewBox="0 0 49.01 49.03">
  <g id="icon-v8-weapon-shield-pixarts-store">
    <g id="icon-v8-weapon-shield-pixarts-store_173">
      <path d="M31.95,26.44c-.65.8-1.19,2.37-1.45,3.59,2.14-.27,7.08-3.38,7.32-3.07l.88,1.15c-.27-1.4-.08-2.07.77-2.84,4.08-3.73,6.5-8.84,6.69-14.32-1.4.76-2.85,1.07-4.56,1.23l-1.19,1.56-.72-1.03c-.99.02-1.8-.07-2.35-1.47l2.93.02,1.1-.95c2.08.19,3.95-.53,5.48-1.96l1.67-1.55c.85,3.64.53,7.14-.39,10.43l-1.88.11c2.43,2.53-.88,5.43-2.55,7.61-4.11,5.35-9.77,7.13-16.66,8.12,1.55-2.66,2.35-5.24,2.91-8.01,1.9-.18,4.07-.93,4.82-2.85.76-1.94.66-4.25-1.08-5.76l.63-1.61c2,1.87,3.01,4.11,2.37,6.58-.57,2.19-1.98,4.06-4.71,5Z"/>
      <path d="M23.89,2.82l1.56,4.77c2.45.7,3.4,2.46,2.51,2.44-2.47-.06-.25-.85-4.16-.61-.58-3.34-1.7-6.53-3.62-9.42,3.91.87,7.55,1.58,11.04,1.87-.2,3.13.69,2,.3,4.07-.05.25-1.52.27-2.05-2.33l-5.59-.79Z"/>
      <path d="M40.05,22.5l-2.55,3.17-.55-.89c-.12-.19.54-.72.58-.94l.54-3.09c.08-.48.85-1.39,1.32-1.45.61-.07,1.35.33,1.98.81.58-1.11.21-2.81-.88-3.47l-2.27-1.37c-.24.45-.28,1.49.12,1.69l1.81.92c-.27.17-1.22.37-1.79.36-1.08-.02-1.08-2.87-3.07-4.82.13-.31,1.01-.73,1.3-.53s.95.73,1.27.89l3.07,1.57,2.64-2.48c.17-.16,1.18-.08,1.14.15-.35,1.75-1.08.32-2.9,3.04l1.2,1.85c.17,1.33-.61,2.98-1.51,3.68-.44-.61-1.02-1.22-1.34-1.05-.94.48-1.2.95-1.18,1.86,0,.19.22.08,1.08.09Z"/>
      <path d="M24.7,19.19c-1.75,3.73-3.91,4.18-5.69,7.37l-.69-.49c-.72.62-1.35,1.23-2.57,1.46l5.33-5.27c1.21-1.19,1.86-2.58,2.62-4.13.4-.81,3.45-4.99,4.87-4.5l-.45,1.95,2.57-2.63c.05,2.57-1.98,3.69-3.19,5.05.06-1.06.1-1.63.05-1.87-.68,2.38-1.58,4.09-3.09,5.83-2.22,2.55-3.98,5.5-7.12,7.46l7.69-9.58c.57-.71.9-2.06,1.27-3.01-.78.54-1.16,1.39-1.62,2.36Z"/>
      <path d="M37.89,10.15l-10.06,2.47c-.23.06-.62-.47-.52-.63.14-.22.6-.75.87-.84l4.08-1.36.24-4.45c.03-.64,2.21-1.2.92,4.14l4.07-.58c.23-.03.75.1.92.16.23.08-.18,1.01-.52,1.09Z"/>
      <path d="M5.2,41.84l2.79,1.81-.57,3.67c-.08.5-.89,1.4-1.44,1.63-.5.2-1.3-.27-1.84-.4-.7.19-1.9.58-2.51.43s-1.5-1.05-1.62-1.69c3.41-2.6,2.95-6.82,4.96-5.07-.7,1.2-1.31,2.4-1.68,3.64,1.26-.55,1.85-.92,2.76-.52l-1.04,2.41c.73-.59,1.68-2.04,1.17-2.84-.67-1.05-1.09-1.58-.96-3.09Z"/>
      <path d="M26.45,21.88c-1.26,1.53-6.38,7.79-7.9,8.47-.18.08-.69-.4-.54-.53l.63-.58c2.38-2.19,4.36-4.53,6.32-7.22.2-.27.9-.28,1.49-.14Z"/>
      <path d="M28.41,4.65c.71,3.45,3.18,2.06,2.91,3.59-.06.36-.61,1.05-.97,1.06-1.34.05-1.03-2.67-3.69-2.27l-1.09-2.97,2.85.58Z"/>
      <path d="M10.06,40.12l-2.15-4.04c-.17-.45.44-1.27,1.03-1.69l2.25,4.1c.04.49-.78,1.45-1.13,1.63Z"/>
      <path d="M16.62,32.73l-2.86-3.51c.18-.33.74-.96.95-1.09l2.92,3.31c.05.32-.55.99-1.01,1.28Z"/>
      <path d="M9.77,41l-1.01,1.89-4.25-2.98c2.16-.09,3.43.47,5.26,1.09Z"/>
      <path d="M12.84,35.15c-1.44-.17-2.11-.57-3.42-1.58l2.03-2.12,1.39,3.7Z"/>
      <path d="M26.42,21.22c-.1-1.91,1.36-3.01,2.6-4.09l1.16-1.02c1.4-.07-3.32,5.61-3.76,5.11Z"/>
      <path d="M32.88,15.7c-.03.24-.72.77-.95.71s-.53-.67-.48-.91l.47-2.61c.03-.19.19-.78.36-.79l1.1-.04-.5,3.64Z"/>
      <path d="M8.73,39.58l-3.04-.82,1.24-2.12c.89,1.24.97,1.3,1.8,2.94Z"/>
      <polygon points="15.89 33.49 14.09 35.43 12.83 32.48 15.89 33.49"/>
      <path d="M14.97,32.43l-2.78-1.33.18-.92c.2-1.06,2.15.86,2.61,2.25Z"/>
      <polygon points="13.51 36.24 11.97 37.87 10.45 35.37 13.51 36.24"/>
      <path d="M32.46,27.91c-.16-.82,1.36-.93,1.85-1.34.56-.47,1.33-1.17,2.13-1.56-.4,1.74-1.9,2.54-3.98,2.9Z"/>
    </g>
  </g>
</svg>