<?xml version="1.0" encoding="UTF-8"?>
<svg id="Warstwa_2" data-name="Warstwa 2" xmlns="http://www.w3.org/2000/svg" viewBox="0 0 36.01 58.87">
  <g id="icon-v8-weapon-shield-pixarts-store">
    <g id="icon-v8-weapon-shield-pixarts-store_79">
      <path d="M27.41,51.71c-.81-1.47-.82-3.16.75-4.5l-.75,4.5Z"/>
      <polygon points="13.35 11.22 11.61 7.11 13.63 6.72 13.35 11.22"/>
      <path d="M30.54,17.84l-3.35,1.8-7.97-4.84c.35-2.66.89-5,1.8-7.54l.92.76.11,5.24.95-1.86c0-.54-.06-.5-.71.12.07-1.61.24-3.01.52-4.77,1.87.42,3.57.99,5.06,1.58l-.26,2.62c.44-.6.5-1.14.72-2.26-.14-.27.87.4.95.66l-1.56,4.8,3.22-1.33c.51-.21,1.03,1.04.67,1.55-.26.37-.81.5-1.49.3l-1.21,1.74,2.86-1.34c.2,2.09.43,3.96.25,5.83l-.34,3.47c-.26,2.63-1.26,6.36-1.82,8.95-.05.23-.75.25-1.05.25l1.4.9c2.04-9.11,2.59-9.5,2.17-19.02l-.17-3.73-2.26.93c-.1.04-.45-.19-.55-.16l-.86.23,2.1-4.32c-3.44-.66-6.06-2.34-9.93-2.57l-2.41,8.58-.24-11.73,1.23.96c-.6-1.3-1.07-2.32-1.11-3.63,1.67,1.09,2.65,2.3,4.24,2.85l9.05,3.1,4.18.22-2.07,2.4,2.42-1.66c-.21,1.74-.35,3.32-.78,4.85-.34,1.21-.19,1.88-.17,3.07.1,3.99.05,8.06-.45,12.02.04-.34-3.47,13.69-3.6,14.11-1.13,3.49-3.93,6.25-6.13,9.03l-5.11,6.44.63-2.96-2.43,5.38c-1.01-2.2-1.52-3.86-2.74-5.56l1.09,3.37c-2.57-3.09-10.55-12.52-11.45-15.88l-3.31-12.4c-.42-1.57-.74-2.78-.76-4.45l-.14-9.49c-.02-1.12.09-1.9-.15-3-.34-1.59-.45-3-.52-4.72l3.08,3.21c-.55-1.53-1.64-2.36-2.94-3.7,3.23-.9,5.45,1.01,8.13.29-1.36-.11-2.17-.08-3.57-.72l8.48-2.88c1.6-.54,2.79-1.85,4.43-2.95.17.86-.01,1.8-.38,2.88l.49.09-.2,11.16-2.21-7.88c-3.91-.61-6.18,1.59-10.19,2.15.82,1.42,1.55,2.94,2.18,4.73l-3.78-1.4c-.11,3.82-.3,7.64-.08,11.61s1.47,7.48,2.27,11.35l1.18-1.03c-1.17,1.05-2.73-9.21-2.75-9.42-.27-3.12-.09-6.23-.13-9.39l3.01,1.42-.66-1.31c-.68.02-1.37-.02-1.74-.23-.52-.29-.55-1.37-.18-1.9l3.65,1.28-1.4-4.74c.56-.09.96.59,1.44,1.58l.54-1.63,2.02,2.14.47-4.15,2.57,5.65c.09-2.22.08-3.89.56-6.07.67.62,1.1,1.39,1.3,2.21l1.32,5.48-8.28,5-3.37-1.78c.64,1.51,1.4,2.68,2.21,4.02l.05,10.6,9.27,5.45-1.31,9.96c-1.57-.5-1.47-1.88-1.3-3.47-.09-.42-.79-.7-.65,0,.12,1.37.15,2.85.79,3.46l.97.93c.2.19-.24.96-.47,1.27-.53-.32-8.78-10.71-6.24-10.57-1.63-.09-1.85-3.26-1.44-4.9l-1.12,1.42c1.73,6.59,4.77,10.37,9.34,15.64l1.12-7.05c.33-2.07.07-4.07,1.15-6.15l.09,15.65c-.68-.98-1.22-1.76-2.27-2.55l2.5,3.76c4.01-5.94,6.71-7.86,10.01-13.98.83-1.54,1.28-3.43,1.96-5.25l-1.25-1.53c1.49,2.8-2.19,8.61-3.91,10.8l-3.7,4.71c-.48-.7-.39-1.26.08-1.67,1.79-1.57.45-2.37,1.07-4.67-1.36.16.49,3.03-1.75,4.51l-1.33-10.24,9.18-5.57.02-10.57c.81-1.21,1.66-1.86,2.21-3.94ZM2.5,27.2c-.05-1.73-.14-2.98.08-4.35.19-1.86.08-3.7-.02-5.57l-.33-5.76c-.15,1.61-.32,3.22-.26,4.67l.18,4.43c.09,2.25-.51,4.6.35,6.57ZM33.81,18.7c.02-1.06.37-2.46.48-3.3-.4-.2-.65-.45-.57-.62.16-.34.43-.97-.22-1.02l-.17,8.16c-.03,1.38.1,2.84.31,4.37l.17-7.58ZM29.43,42.16c.71-2.29,1.42-4.39,1.68-6.79l-2.9,8.27,1.22-1.47ZM24.67,42.12l.53-.13-1.94-3.34.84,3.4.45,2.41c1-.22-.38-2.21.12-2.33Z"/>
      <path d="M17.96,37.81l-9.7-5.79-.11-10.56-1.91-2.65,2.3,1.5,9.34-5.49,9.32,5.51,2.15-1.12-1.63,2.32c-.26,3.42-.23,7.01,0,10.4l-9.76,5.88ZM18.02,36.47l8.59-5.15-.08-10.18-8.58-5.1-8.69,5.08-.03,10.23,8.79,5.12Z"/>
      <path d="M20.47,51.01l-2.33,2.93v-15.87c1.22,1.55.71,3.21.97,4.75l1.36,8.2Z"/>
      <path d="M9.08,48.5c-.17,1.58-.31,2.9-.61,4.3l-.71-5.83,1.31,1.53Z"/>
      <path d="M10.11,10.18c-.29-.4-.8-1.07-1.1-1.38-.23-.24-.61.26-1.45,0l3.25-1.34-.7,2.73Z"/>
      <path d="M17.88,35.51l-.61-2.3-.55.45c-.16.13-.67-.39-.5-.54.54-.52,1.4-1.73,1.18-2.5l-1.6,1.22c-.29-2.23,2.14-1.33,1.56-4.2-2.46-.2-1.8,2.72-3,3.44l.05-2.07c-1.02.36-1.38,1.27-1.98,2.6-.18-.27-.38-.79-.52-1.3l-1.82.66c.24-.91.97-1.24,1.69-1.51l-1.09-1.13c1.7.16,2.45.34,3.54-.23l-2.01-1.03c1.4-1.29,2.71,1.3,4.25-.76-1.1-1.98-2.76-.21-4.03-.46-.11-.02-.33-.33-.23-.4.14-.1.49-.31.65-.38l.71-.31c.09-.04.16-.18.09-.27-.1-.13-.52-.4-.67-.39l-2.36.11,1.17-.81c-.78-.55-1.3-.89-1.71-1.83l1.97.76.44-1.41c.58,1.35.82,2.2,1.84,2.71l-.19-1.76c1.4-.25.18,2.44,2.98,3.24,1.28-2.92-1.94-2.37-1.54-4.31l1.8,1.08c-.05-1.13-.57-1.67-1.38-2.93l1.35.16c.17-.85.25-1.31.64-2.08l.53,2.22.53-.44c3.22-2.7-2.08,3.42-.72,3.05l1.88-.92c1.3,1.23-3.11,1.61-1.38,4.2,2.42-.8,1.3-3.12,2.92-3.42l-.23,1.87c1.2-.37,1.32-1.29,1.82-2.74l.47,1.37c.7-.34,1.26-.52,1.98-.37l-1.53,1.51.67.42c1.66,1.04-2.4-.17-2.91.76l1.71,1.05c-1.07,1.33-2.83-1.67-4.3.75,1.51,2,3.07-.58,4.3.89l-2.13.76c.49,1.16,5.09-.34,3.52.71l-.94.63,1.56,1.26c-.2.33-1.17.03-1.76-.24l-.63,1.1c-.64-1.32-.93-1.96-1.83-2.51l.03,2.09c-1.52-.82-.51-3.21-2.92-3.43-.85,3.23,1.51,1.76,1.55,4.21l-1.8-1.12c-.07,1.04.37,1.48,1.37,2.68.03,0-.94.19-1.18.24l-.69,1.91Z"/>
    </g>
  </g>
</svg>