<?xml version="1.0" encoding="UTF-8"?>
<svg id="Warstwa_2" data-name="Warstwa 2" xmlns="http://www.w3.org/2000/svg" viewBox="0 0 36.73 54.37">
  <g id="icon-v8-weapon-shield-pixarts-store">
    <g id="icon-v8-weapon-shield-pixarts-store_32">
      <path d="M18.81,27.38l10.22-15.96c-4.14,4.7-6.95,9.75-10.67,14.52-1.29,1.66-3.3,2.72-4.93,4.06l-.71,2.41c-.54,1.83-2.15,3.3-4.18,3.09,2.23-1.58,3.37-4.18,1.67-6.76,3.11-1.34,5.59-3.19,7.29-5.92,2.56-4.13,5.35-7.98,8.22-11.88.44-.6,1.04-1.1,1.39-1.8,2.08-4.1,5.43-7.08,9.61-9.13-.19,3.52-1.15,6.79-3.14,9.78l-3.26,4.91c-.15.22-1.5.18-1.42.42l.35,1.07-7.89,11.81c-1.35,2.02-1.49,4.6-1.83,7.14-2.69-.42-4.86,1.12-5.37,4.05-1.83-2.87,1.21-5.09,2.96-6.41,1-1.34.63-3.77,1.67-5.4Z"/>
      <path d="M11.7,45.98c.61-1.16,1.34-2.57.66-3.6-.46-.68-3.07.23-4.88-2.42-.18-.27-.36-1.07-.52-1.34-.19-.31-1.09-.5-1.43-.35-.99.44-1.61,1.24-2.2,2.05-1.02-3.37.41-6.72,3.46-8.48-.22,1.42-.74,2.9.39,3.97.92.87,2.83.6,3.87-.12l2.8-1.94c-.63,2.01-1.34,3.57-.75,5.45.29.91,1.29,1.71,2.1,1.69,1.01-.02,1.95-.59,2.95-1.37.03,3.27-2.68,6.26-6.45,6.46ZM11.61,39.67l.19-2.92-2.68,1.26.32,2.21c.77-.15,1.65-.36,2.17-.55Z"/>
      <path d="M5.28,51.5c-.31,1.93-2.4,1.08-5.25,2.88l-.03-3.43c0-.97-.08-1.76.54-2.64,1.09,1.95,2.46,2.89,4.74,3.19Z"/>
      <path d="M4.95,49.17l-1.94-1.51,1.66-2.7,1.22,2.31c.2.38-.49,1.29-.93,1.9Z"/>
      <path d="M7.57,45.01l-1.11,1.84-1.4-2.05c.19-.84.97-1.86,1.5-2.65l.85-1.25,2.27,1.64-1.52,1.99-1.48-2.09.89,2.58Z"/>
      <rect x="2.63" y="47.88" width="1.41" height="3.14" transform="translate(-37.77 21.76) rotate(-52.18)"/>
    </g>
  </g>
</svg>