<?xml version="1.0" encoding="UTF-8"?>
<svg id="Warstwa_2" data-name="Warstwa 2" xmlns="http://www.w3.org/2000/svg" viewBox="0 0 46.99 48.89">
  <g id="icon-v8-weapon-shield-pixarts-store">
    <g id="icon-v8-weapon-shield-pixarts-store_151">
      <path d="M10.08,30.87c-1.46,1.71-.98,4.03.44,5.29l5.32,4.72-2.71,3.07c-3.12-1.09-5.67-3.22-7.42-6.1l-1.41-2.31,11.36-13.34,5.95-7.11c3.59,3.55-.63,7.58,6.88,13.23-.18.32-.59.85-.95,1.26l-7.2-6.7c-.39-.36-1.29-.84-1.77-.85s-1.35.49-1.71.92l-6.78,7.93Z"/>
      <path d="M3.78,20.19c-.81,6.16.65,6.22,2.07,11.73l-3.27,3.9c-.09-3.11-.28-5.76-1.1-8.61-.89-3.09-.62-6.1,1.3-8.81,1.47-2.08,4.26-4.57,7.47-4.17,3.79.47,7.29.93,10.97-.47l-3.17,3.79c-5.12,1.5-8.81-3.39-14.61,1.59-1.15.98-2.09,2.22-1.96,3.92.54-1.07,1.04-1.98,2.31-2.86Z"/>
      <path d="M20.79,37.72c-.75.84-2.15,1.8-2.95,1.91-.57-.3-.86-.38-1.61-.5-2.18-.35-4.4-2.73-5.19-4.58l.42-1.56-1.17,1.18c.08-.88.19-2.43.62-2.92l7.06-8.05c-.15,1.04-.35,1.68-.74,2.97.02.02-.26-.24-.7-.66-.98,1.73-.76,4.02-.12,5.92-.76.96-1.73,2.42-1.3,3.81,1.07.26,2.39-.4,3.33-1.2.84-.72,2.45.05,2.78,1.04,1-.8,1.88-1.38,3.26-1.49l-3.69,4.12Z"/>
      <path d="M29.3,27.87c-1.31-.77-2.13-1.71-2.97-2.84-4.56-6.15-.1-7.52-4.33-10.5l2.26-2.77c6.38,3.36-.02,7.97,7.48,13.51l-2.43,2.6Z"/>
      <path d="M22.61,33.35c-1.62.15-3.16-.33-4.32-1.33-3.66-3.16.29-5.68.83-8.88l7.79,7.43-1.71,2.54-2.59.24ZM20.91,30.32c0-.73-.59-1.33-1.33-1.33s-1.33.59-1.33,1.33.59,1.33,1.33,1.33,1.33-.59,1.33-1.33Z"/>
      <path d="M9.98,47.23c-3.97-1.64-6.67-4.51-8.77-8.19l2.39-2.85c2.48,3.71,4.97,6.5,8.86,8.36l-2.48,2.69Z"/>
      <path d="M39.37,16.69l-5.57,5.23c-.17.16-.62.21-.73.25-1.52.47,4.74-5.43,5.65-6.59,1.08-1.38.33-3.73,2.75-4.21l-.21,2.22c1.28-1.91.21-3.11,2.09-3.87l-.16,2.71,1.48-3.74c.28.9.07,1.76-.2,2.65.83-.14,1.56-.3,2.54.54l-4,1.24,2.09.37c-1.23.72-2,.81-3.45,1.08l1.44.69-3.69,1.43Z"/>
      <path d="M39.08,7.8l-2.14,2.36c-.45.9-.96,1.62-2.44,1.58l-4.02,4.26c-.54-2.49,1.99-3.06,2.71-4.54-.22-3.23,1.09-3.15,2.8-5.34l1.77-2.27c.65,1.13.35,1.92-.21,2.93l1.36-.69c.36-.18,1.23.15,1.5.55l-3.61,1.55-.64-1.19-.37,2.06c1.28-.58,1.72-.8,3.28-1.27Z"/>
      <path d="M29,11.27c-1.45-1.89,1.57-1.47,1.78-4.81.05-.81.25-1.61.47-2.23l.37,2.31.56-3.61.66,2.12c.68-.67-.64-3.11.94-3.52l.33,2.16c.32-1.53.49-2.45.92-3.69.86.72.5,1.7.14,2.6l2.11-.45c-.31,1.2-1.06,1.33-2.43,1.79l1.3.36c-.89,1.29-1.79,1.68-3.18,2.18l.56.61c.61.67-1.8.78-2.39,1.51l-2.16,2.67Z"/>
      <path d="M29.96,18.92c.52,3.8,4.93,4.84,2.95,5.77-.3.14-.79-.14-1.16-.41-5.85-4.31-1.49-9.23-5.64-12.45-.37-.29-.72-.65-.88-.89s.79-1.03,1.03-.88c3.56,2.25,3.12,4.62,3.7,8.87Z"/>
      <path d="M9.04,47.59c.19.33-.45,1.21-.84,1.28s-1.27-.23-1.58-.5l-3.14-2.71c-1.45-1.25-4.29-3.7-3.28-5.6.14-.26.84.27,1.01.52,2.03,2.96,4.25,5.5,7.82,7.01Z"/>
      <path d="M31.33,19.78c-.27-.12-.39-.93-.14-1.21l11.79-12.67-1.78-.82,5.24-2.64c-.55,2.25-.93,3.4-1.77,5.43l-1.25-1.8c.08.94-.33,1.38-.98,2.06l-11.1,11.65Z"/>
      <polygon points="18.33 33.48 15.73 34.62 16.75 31.92 18.33 33.48"/>
    </g>
  </g>
</svg>