<?xml version="1.0" encoding="UTF-8"?>
<svg id="Warstwa_2" data-name="Warstwa 2" xmlns="http://www.w3.org/2000/svg" viewBox="0 0 36.85 52.12">
  <g id="icon-v8-weapon-shield-pixarts-store">
    <g id="icon-v8-weapon-shield-pixarts-store_95">
      <path d="M36.81,49.19c.09.11.02,1.07-.12,1.04l-.68-.13.11.78c.02.14-.47.34-.58.25l-.73-.58.23,1.04c.04.2-.83.59-.91.4l-1.3-3.15.53,3.28c-1.75-.53-1.61-2.32-1.82-3.89l-.45,1.64c-.23-2.58-.7-3.85-2.48-5.25-.67-.52-1.1-2.14-1.53-2.96-1.37-2.65-1.18-3.78-3.38-7.27-.41-.65-.77-1.34-.96-1.92l-2.74-1.24c-.36-.16-.84-.27-.79-.48.07-.3.22-.96.21-.92l2.06.62-4.26-5.31c-.57-.2-.79-.28-1.5-.76l2.52-.12c-.99-.54-2.1-.85-3.26-1.26-1.25-.45-2.22-.81-3.61-.72l-.63-1.82c-.03-.09-.27-.43-.31-.5-.07-.11-.27.19-.57.44-.05-.63.36-1.25.99-1.93.05-.43-.43-1.43-.8-1.89-.24.9-.3,1.86-.7,2.18-.51.4-1.37-.4-1.63-.81l-1.22-1.94.07,2.15c.01.39-1.88.79-.98-.34l-1.7.99c-.56-.14,2.66-3.65,3.06-3.53l-1.23-1.53c1.89-.31,2.2,1.38,3.6,1.96-.67-2.08-3.1-2.32-4.84-2.69.62-2.28-1.03-2.89-.59-3.28l.6-.54-.22-.58c-.06-.15.37-.61.53-.65l.84-.22c.22-.06.06.74-.12.94-1.6,1.76,2.64,4.04,3.85,4.67-.41-1.82-4.52-2.52-3.47-3.94.41-.55.52-.73.79-1.37,1.16.45,2.08,1.75,2.76,3.16.18-2.94-4.17-3.05-2.18-6.85l1.42,1.65-.48-1.45,1.73-1.72,1.58,3.61,2.03,1.6c1.78,4.94,3.81,3.68,4.35,6.57.33,1.76.67,3.38,1.16,5.24.74-4.2-.72-3.43-1.28-7.91-.45.34-1.37.03-1.67-.45-.43-.69-.06-1.48.17-2.49-.09-.02-.59.56-.98,1.04-.64-.14-.85-1.38-.51-2.18,1.16-2.7-.96-3.65.94-4.55.43.37.75,1.43.89,2.16l1.57-.54c-.08.78-.07,1.15.07,1.73l.58,2.35.35-1.28.89,1.41-.16-.98c-.04-.26.51-.59.79-.59h2.42s-1.58,1.08-1.58,1.08c.37.34-.39,1.03-.79,1.13s-1.15-.4-1.8-.75l1.29,1.75c.47.64.9,1.33,1.47,2.21l-1.06.36-.1,2.88.82-.07c.2-.02.08.67.07.88l-.14,2.03c-1.08.64-.33,4.37.12,5.31.03-1.19-.58-2.34.53-3.33.35,2.33.85,4.34,1.87,6.28l2.48,4.71c1.88,3.57,1.27,3.29.53,7.82l.7,1.75c-.93-5.71,2.43-5.07-1.05-10.25.86.48,1.88,1.28,2.34,2.15.18.86.05,2.04.28,2.89.33,1.23,1.36,2.64,1.18,3.78-.26,1.69-.48,3.16.05,4.58-.03-1.64,0-2.93.24-4.53l1.94,2.6c.31.41.6,1.2.95,1.87l.32-1.84c.85.77.68,2.11.66,3.23l2.38,3.02ZM11.88,11.21c-.7-.08-1.32-1.73-1.49-2.48l1.81.07c-.75-.37-1.49-.54-2.32-.61.4,1.71.59,3.25,2.26,3.5.52.08,1.06-.97.98-1.44-.1-.59-.41-1.28-1-1.32.3.62,1.2,2.23-.23,2.27ZM16.28,21.11l2.62,2.4c-1.81-2.91-1.02-5.74-2.41-6.19.49,1.32.74,2.22.77,3.56-1.63-1.58-1.61-.27-3.35-2.43.09,1.54,1.14,2.02,2.37,2.66ZM21.79,27.37l-2.12-6.98c-.13,2.49.71,4.86,2.12,6.98Z"/>
      <path d="M14.2,7.54c-2.84-1.82-1.86-.79-3.33-3.98l2.04-.45c.38-.08,1.15.1,1.65.31l-1.54.3c1.04,1.25,1.9,2.41,1.17,3.82Z"/>
      <path d="M8.89,2.74l-.57,1.18c-.15.31-1.43.38-1.51.03-.26-1.06-.48-2.37-.63-3.62l2.72,2.41Z"/>
      <path d="M16.78,3.8c-.04-.18-.45-.45-.58-.58-.29-.28.93-1.24.93-1.24l.35.35c.11-.73.3-1.34.99-1.53l-.36,2.18.38.73c.24.47-1.43,1.37-1.49,1.07l-.22-.98Z"/>
      <path d="M3.8,13.15l-3.8-2.08,3.24-.6c.22-.04.76.48.66.68l-.41.83c.16.25.27.5.31,1.17Z"/>
      <path d="M24.79,15.08l-1.95.41c-.48.1-1.13.29-1.38.03s-.13-1.29.15-1.52c.36-.3,1.19-.01,1.41.42l1.77.66Z"/>
      <path d="M5.77,7.41l-.18-1.07-.92.86-1.44-1.94,2.68.29c.27.37.29,1.06-.15,1.86Z"/>
      <path d="M10.87,23.03c-.25.27-1.09.54-1.61.77l.57-2.95c.72.44,1.59,1.6,1.04,2.18Z"/>
      <polygon points="13.11 2.55 11.2 2.78 11.95 0 13.11 2.55"/>
    </g>
  </g>
</svg>