<?xml version="1.0" encoding="UTF-8"?>
<svg id="Warstwa_2" data-name="Warstwa 2" xmlns="http://www.w3.org/2000/svg" viewBox="0 0 44.92 51.94">
  <g id="icon-v8-weapon-shield-pixarts-store">
    <g id="icon-v8-weapon-shield-pixarts-store_12">
      <path d="M35.97,25.22l-2.4-.1.6,1.58c-2.79,2.81-4.46,3.28-6.58,5.44-2.11,2.14-4.16,3.83-6.66,6.01l-4.96-7.47c2.3-2.61,2.16-3.18,4.41-2.98.3.03-.13-1.4.09-1.63l4.8-5.19,1.18,1.45.94-3.93L44.59,0l-.21,7.76-3.56,4.34,3.48-1.86v3.12s-4.52,4.07-4.52,4.07l-5.49,4.98c-1.61,1.46-3.18,2.84-4.6,4.55l7.92-6.71,3.65-3.15,2.95-2.46.69,2.92-8.95,7.66Z"/>
      <path d="M.04,48.18c-.18-.57.31-1.76.71-2.06,1.72-1.25,2,1.98,5.86-3.67.72,1.13,1.28,2.04,2.25,3.13l-1.22-3.94c.2-.51.9-1.43,1.28-1.88l2.59,3.8-1.52-4.24c-.01-.77,1.14-1.94,1.83-2.37l1.57,5.24c-1.54,1.69-2.5,2.82-4.02,4.94l-4-1.76c.36,2.04,4.55,1.45,4.51,4.85,0,.51-.98,1.44-1.44,1.71L.04,48.18Z"/>
      <path d="M19.72,43.12l-8.53-12.35c.91-.76,1.89-1.47,2.69-1.95,2.79,4.62,5.31,8.26,8.38,12.49-.8.64-1.52,1.16-2.53,1.81Z"/>
      <path d="M14.11,41.52l-1.65-4.6c-.16-.44.26-1.23.69-1.64l2.77,3.9c-.37.85-1.11,1.72-1.81,2.34Z"/>
    </g>
  </g>
</svg>