<?xml version="1.0" encoding="UTF-8"?>
<svg id="Warstwa_2" data-name="Warstwa 2" xmlns="http://www.w3.org/2000/svg" viewBox="0 0 42.17 44.71">
  <g id="icon-v8-weapon-shield-pixarts-store">
    <g id="icon-v8-weapon-shield-pixarts-store_34">
      <path d="M16.37,29.93l-2.87-3.05c3.51-2.84,6.7-5.83,8.73-9.66-1.25,1.16-9.14,10.78-9.75,8.25-.05-.21.26-.72.45-.87,4.6-3.77,8.3-8.15,11-13.29,3.86.19,8.28-2.19,11.49-4.22,2.63-1.67,4.29-4.28,6.41-7.08,1.09,5.2-.57,10.33-3.56,14.51-.18.25-.6.84-.82.79l-1.23-.29c.03.59-.1,2.08-.63,2.44l-4.51,3.07c-5.26-.95-10.39,4.17-11.56,8.74l-3.15.68ZM19.01,26.54c2.17-3.99,5.23-6.66,9.4-8.12,4.71-1.65,8.59-5.25,10.25-9.89l-2.61,3.69c-1.56,2.21-4.6,4.36-7.36,5.4-4.29,1.61-8.74,4.14-9.68,8.93Z"/>
      <path d="M8.41,36.38c.14,1.09-.4,2.17-1.19,2.71.02.25.16,1.78-.28,1.78-1.16,0-3.07-.51-4.46-1.01,1.3-4.69,4.08-8.03,7.69-11.21l3.89,4.09c-1.41.49-2.82.83-3.03,1.76s-.25,1.5-.55,1.86c-.43.5-1.73.35-2.07.03Z"/>
      <path d="M16.83,37.09l-.89-3.43-4.02-4.28c-1.59-1.69-3.72-5.01-2.32-6.83.2-.26,1.12-.26,1.35-.04-.2,5.52,7.51,8.41,7.58,12.78,0,.54-.71,1.26-1.71,1.8Z"/>
      <path d="M0,43.42l1.98-2.76,4.55,1.08c.53.13.84,1.53.55,1.95-1.06,1.52-4.88,1.27-7.08-.27Z"/>
    </g>
  </g>
</svg>