<?xml version="1.0" encoding="UTF-8"?>
<svg id="Warstwa_2" data-name="Warstwa 2" xmlns="http://www.w3.org/2000/svg" viewBox="0 0 46.35 46.64">
  <g id="icon-v8-weapon-shield-pixarts-store">
    <g id="icon-v8-weapon-shield-pixarts-store_13">
      <path d="M29.22,17.31c-3.02,1.54-7.99,7.74-10.72,9.56-.27.18-1.2-.97-.79-1.35L42.08,2.84c1.59-1.48,2.46-2.17,4.27-2.84-.61,1.47-1.34,2.59-2.47,3.79l-22.61,24.26c-.29.31-.89.8-1.12.65s-.82-.78-.66-1l.63-.87,9.1-9.53Z"/>
      <path d="M12.01,33.13c0,.86,6.01,5.51,7.88,4.52.01-.04-.23.7-.33.99-.1.31-1.04.24-1.42.12-5.25-1.7-9.24-6.09-10.7-11.52,3.27-2.8,7.85-2.19,10.78.82,2.44,2.5,3.45,6.15,1.85,9.42-3.28-.28-5.58-2.3-8.06-4.33ZM11.85,32.71l-2-4.01c2.19-1.46,4.07-1.35,6.24-.5-1.93-2.34-4.42-1.71-7.32-.77.44,1.9,1.65,3.88,3.08,5.29Z"/>
      <path d="M.21,46.28c-.41.01-.34-3.97,1.13-4.21.67-.11,1.75.37,2.66.7l-.7-1.03c-.17-.25.3-1.02.59-.95l1.46.34c0,.07.2-.14.11-.19l-1.02-.49c-.19-.11,0-.96.27-1.07l1.45-.62c-.14-.57.92-2.55,1.75-2.42,1.16.18,2.2.47,3.21.74-1.04,2.35-2.72,1.74-4.76,1.74l2.37.98c-1.4,1.28-3.04,2.6-4.52,3.67,0,.59,0,1.62-.28,2.02-.32.45-1.51.74-2.16.76l-1.57.04Z"/>
      <path d="M5.41,44.25c1.06.12,4.35,2.11,6.85.04,1.9-1.57,2.66-3.55,2.14-6.14.92.1,1.47.96,1.45,1.92-.08,2.65-1.46,4.73-3.79,6-3.72,2.03-8.18-1.99-6.65-1.82Z"/>
      <path d="M7.04,29c-1.45-.83-4.91-4.22-2.71-6.15.31-.27,1.27.38,1.16.82-.73,2.94,1.08,1.71,1.55,5.32Z"/>
      <path d="M20.11,44.92c-2.29-.52,1.62-1.38-2.66-5.34,2.32-.17,4,2.12,3.76,4.44-.04.36-.77.97-1.1.89Z"/>
      <polygon points="11.93 36.5 8.52 35.64 10.01 34.09 11.93 36.5"/>
    </g>
  </g>
</svg>