<?xml version="1.0" encoding="UTF-8"?>
<svg id="Warstwa_2" data-name="Warstwa 2" xmlns="http://www.w3.org/2000/svg" viewBox="0 0 49.45 50.68">
  <g id="icon-v8-weapon-shield-pixarts-store">
    <g id="icon-v8-weapon-shield-pixarts-store_156">
      <path d="M37.68,13.24c2.03,3.81-1.36,3.91,1.04,5.78l-5.22,5.78-8.59-8.32,4.43-4.75,4.92-5.23,6.01,6.06,2.39,2.38-3.41,3.64c-1.87-3,1.03-3.89-1.58-5.35Z"/>
      <path d="M29.98,0l3.31,3.11-12.04,12.81-3.31-3.11L29.98,0ZM30.64,3.92c0-.73-.59-1.32-1.32-1.32s-1.32.59-1.32,1.32.59,1.32,1.32,1.32,1.32-.59,1.32-1.32ZM26.9,7.91c0-.74-.6-1.33-1.33-1.33s-1.33.6-1.33,1.33.6,1.33,1.33,1.33,1.33-.6,1.33-1.33ZM23.12,11.99c0-.74-.6-1.35-1.35-1.35s-1.35.6-1.35,1.35.6,1.35,1.35,1.35,1.35-.6,1.35-1.35Z"/>
      <path d="M46.25,15.6l3.2,3.01-12.17,12.92-3.2-3.01,12.17-12.92ZM46.8,19.61c0-.71-.57-1.28-1.28-1.28s-1.28.57-1.28,1.28.57,1.28,1.28,1.28,1.28-.57,1.28-1.28ZM43.04,23.53c0-.72-.58-1.3-1.3-1.3s-1.3.58-1.3,1.3.58,1.3,1.3,1.3,1.3-.58,1.3-1.3ZM39.32,27.54c0-.72-.59-1.31-1.31-1.31s-1.31.59-1.31,1.31.59,1.31,1.31,1.31,1.31-.59,1.31-1.31Z"/>
      <path d="M25.66,24.69l-7.1,7.53-.56.6c-.12.13-.62-.64-.5-.77l2.34-2.64c-1.81-.06-1.54,2.34-3.73,2.08,2.04-2.5,5.71-6.63,8.57-8.74-.22,1.4-1.1,1.95-1.8,2.94.63.14,2.83-2.79,2.81-1.78v.8Z"/>
      <path d="M19.01,10.64c-.69-1.39-.05-2.68,1.03-3.76,1.62-1.62,3.15-3.25,4.67-4.95.88-.98,1.94-1.77,3.21-.93l-8.91,9.63Z"/>
      <path d="M4.64,47.06c1.01.54-1.06,1.49-.44,2.31.67-.53,1.08-.85,1.88-1.29-.35,1.1-.89,2.07-1.56,2.4-1.13.57-2.57-.16-3.37-.95-.74-.74-1.42-2.26-1.04-3.39.72-.67,1.51-1.22,2.44-1.73.18.88-.19,1.38-.62,2.17l1.93-.6-1.29,2.37,2.06-1.28Z"/>
      <path d="M43.28,28.6c-1.21,1.25-1.94,2.89-4.11,2.19l9.41-10.01c.77,1.93-.57,2.98-1.65,4.09l-3.64,3.73Z"/>
      <path d="M35.36,26.08c-.21.23-1.12.13-1.09-.08s.18-.67.37-.88l8.64-9.33.83.34c.21.08-.29.8-.53,1.05l-8.21,8.89Z"/>
      <path d="M24.63,15.35c-.24.25-.84.43-.98.3-.17-.17-.14-.75.02-.93l8.94-9.57.51.33c.15.1-.06.88-.26,1.1l-8.23,8.78Z"/>
      <path d="M28.34,24.93l-3.7-3.62,1.31-2.15,4.34,4.28c-.72.61-1.35,1.1-1.95,1.48Z"/>
      <path d="M24.46,28.02l-5.61,5.8c-.11-.99.43-1.72,1.03-2.35l6.7-6.92c.33,1.7-1.27,2.39-2.12,3.47Z"/>
      <path d="M11.47,41.15l-2.86-.86c-.23-.07-.63-.6-.67-.82-.32-1.49,4.61-.88,5.33.08.08.61-1.26,1.75-1.8,1.59Z"/>
      <path d="M17.33,36.15l-2.65-2.73c-.22-.23-.41-.86-.43-1.13s.93-.72,1.15-.51l2.97,2.87c.33.32-.53,1.48-1.04,1.5Z"/>
      <path d="M6.86,47.42l-3.29-3.2c-.23-.22-.22-1.16.06-1.28s.89.04,1.16.31l2.88,2.85c.15.14.26.63.3.8.06.22-.93.71-1.11.53Z"/>
      <path d="M8.83,45.07c-1.5-.11-2.51-1.55-2.95-2.8-.19-.53.72-1.66,1.27-1.97.73,1.74,1.13,2.88,1.68,4.76Z"/>
      <path d="M41.08,11.45l-3.57-3.21c.46-.47,1.5-.74,1.91-.4l1.98,1.68c.46.39.48.85-.33,1.93Z"/>
      <polygon points="16.3 36.95 14.13 39.03 12.7 36.05 16.3 36.95"/>
      <polygon points="12.56 38.05 9.56 37.62 11.87 35.57 12.56 38.05"/>
      <path d="M11.09,42.16l-1.55,1.92c-.43-.98-.64-1.55-1.02-2.83l2.57.91Z"/>
    </g>
  </g>
</svg>