<?xml version="1.0" encoding="UTF-8"?>
<svg id="Warstwa_2" data-name="Warstwa 2" xmlns="http://www.w3.org/2000/svg" viewBox="0 0 38.72 52.35">
  <g id="icon-v8-weapon-shield-pixarts-store">
    <g id="icon-v8-weapon-shield-pixarts-store_71">
      <path d="M19.36,52.35C4.26,43.03-1.52,26.37.33,9.54l10.17-5.21L19.36,0l19.13,9.54c1.45,17.1-3.83,33.03-19.13,42.81ZM19.08,2.24c-.71.36-1.2,1.48-.84,1.91.29.34,1.07.73,1.55.61.43-.11.8-1.07.69-1.52s-1-1.2-1.4-.99ZM34.07,28.69c.31-1.38-1.2-2.96-1.69-4.12,4.41-4.41,3.78-2.65,3.99-9.49l-3.37-1.06v-4.31s-10.84-5.39-10.84-5.39l-2.87,3.2c-.82-1.17-1.8-2.43-2.93-3.18l-10.77,5.37.11,4.33-3.24.95c-.36,6.81-.13,5.41,3.8,9.72-.49,1.19-2.08,2.71-1.68,4.19,1.97,7.29,6.13,13.32,11.82,18.26l2.91-5.24,2.89,5.35c5.62-4.83,10.35-11.76,11.87-18.57ZM2.44,11.3c-.45.63-.31,2.12.34,2.01.4-.07,1.16-.25,1.5-.44.4-.23.13-1.34-.15-1.7-.24-.31-1.46-.19-1.69.14ZM34.25,10.81l-.21,2.29,2.43.22.21-2.29-2.43-.22ZM2.84,26.26c.4.25,1.49-.42,1.6-.87s-.48-1.31-1.05-1.62c-.33-.19-.85.53-1.04.86-.23.4,0,1.33.48,1.64ZM19.28,49.52c.59.1,1.51-1.34,1.26-1.88l-1.13-2.38-1.22,2.26c-.31.41.25,1.85,1.09,1.99Z"/>
      <path d="M19.31,33.01c-1.62-1.61-3.41-2.74-4.56-4.66-1.19-2-1.1-5.57,0-7.62s2.71-3.4,4.31-5.17c1.96,1.51,4.06,3.05,5.04,5.49.8,1.99.91,5.05.04,7.03-.95,2.17-3.09,3.37-4.83,4.94ZM19.26,31.48c1.44-1.31,3.22-2.27,3.8-3.78.9-6.72.35-6.29-3.81-10.85-1.17,1.58-2.93,2.88-3.57,4.73-.56,1.62-.48,4.33-.02,5.98s2.37,2.81,3.6,3.93Z"/>
      <path d="M9.57,25.78c-2.07,2.17-1.81,5.23-1.44,8.18-1.93-2.11-1.68-5.26-.25-7.78.61-1.07.47-1.56.05-2.67-.92-2.41,1.48-4.61,3.69-5.25,1.59-.46,2.97-1.62,2.85-3.38-.04-.55-.4-1.3-.72-1.59s-1.7-.24-1.61.18c.08.35.2,1.35-.08,1.39-.62.09-1.21-.95-1.04-1.44.22-.63.94-1.32,1.58-1.39,1.69-.2,2.69.69,2.98,2.14,1.3,6.34-9.44,4.57-6.33,9.47,1.04-1.3,1.98-2.46,3.56-2.89l-2.81,4.12,2.88,3.49c-1.49-.45-2.03-1.27-3.31-2.57Z"/>
      <path d="M30.64,34.01c.32-3.16.47-6-1.5-8.49-.99,1.13-1.85,2.2-3.24,2.8l2.73-3.53c-.73-1.55-1.88-2.67-3.29-4.13,1.88.13,2.86,1.42,4.05,3.03.59-.52.75-1.81.33-2.44-1.44-2.18-5.44-1.59-6.63-5.39-.24-.76,0-2.19.49-2.92.38-.57,1.46-1.06,2.4-.96.67.08,1.41.8,1.55,1.36s-.46,1.51-1.04,1.39l-.16-1.33c-.05-.38-1.42-.16-1.68.12-.49.54-.71,1.95-.35,2.7.32.65,1.24,1.51,2.19,1.83,2.23.76,4.88,2.38,4.35,5.07-.21,1.08-.64,1.93,0,2.95,1.54,2.47,1.65,5.6-.18,7.94Z"/>
      <path d="M29.03,13.98c.13-1.84-1.1-3.16-2.59-3.62s-3.33.03-4.26,1.61c-.61,1.04-.84,2.47-1.05,3.66-1.25-1.99-.05-4.36,1.47-5.48,1.7-1.25,4.03-1.22,5.53-.05,1.73,1.35,2.55,3.89,1.44,5.79-.8,1.37-2.82,1.79-3.71.43,1.64.2,3.04-.45,3.17-2.34Z"/>
      <path d="M17.56,15.44c-.31-2.32-1.68-5.76-4.85-5.17-1.61.3-3.04,1.38-3.17,3.29-.04.63.33,1.86.8,2.2.51.38,1.5.54,2.41.75-.43.28-1.54.62-2.18.56-.56-.06-1.39-.85-1.63-1.43-.81-1.95-.15-4.04,1.21-5.19,1.66-1.41,3.74-1.5,5.72-.44,1.81.97,2.88,3.45,1.69,5.43Z"/>
      <path d="M26.76,36.52c-.88,1.15-2.47.81-3.27-.4-2.33-3.54,3.25-6.57,5.6-8.16-.34,3.01-4.56,2.73-5,6.28-.06.47.37,1.57.71,1.85.4.32,1.23.4,1.96.43Z"/>
      <path d="M11.88,36.62c.73-.14,1.46-.28,1.89-.57.56-.37.92-1.85.64-2.45-1.52-3.28-4.72-3.02-5.17-5.73,2.62,1.78,7.75,4.34,6.06,7.88-.24.51-1.06,1.19-1.61,1.38-.46.16-1.36-.19-1.82-.52Z"/>
      <path d="M21.45,7.15c.52-.68,1.55-1.07,2.26-.84-1.75,1.6-3.13,3.39-4.36,5.58-1.08-2.34-2.66-3.96-4.53-5.62,2.5-.2,2.94,2.1,4.52,3.61l2.12-2.73Z"/>
      <path d="M5.6,18.22c.01,1.13.88,1.57,2.07,1.71l-.6.7c-.22.26-1.3-.07-1.53-.33-.47-.54-.85-1.74-.77-2.42.07-.62.99-1.76,1.67-1.67.94.13,1.58,1.3,1.28,1.84l-1.1-.84c-.26-.2-1.02.58-1.02.99Z"/>
      <path d="M31.06,20.08c.73-.32,1.45-.63,1.79-.95s.03-1.7-.43-1.72c-.32-.02-1.09.34-1.53.52-.1-.46.8-1.86,1.41-1.7,1.89.52,1.99,2.79.95,4.04-.57.68-1.79.44-2.19-.19Z"/>
      <path d="M19.35,28.35c-2.65-2.07-2.39-5.63-.04-7.8,1.08,1.06,1.92,2.29,2,3.52.11,1.73-.46,3.1-1.96,4.28Z"/>
      <path d="M22.06,27.26c-.66-1.87-.52-3.53.04-5.28.89,1.66.93,3.56-.04,5.28Z"/>
      <path d="M19.35,18.39l-.7,1.79c-.46,1.17-1.3,2.02-2.42,1.76l3.05-4.24,2.46,2.93c.12.14.33.74.34.92.14,1.74-2.86-1.36-2.73-3.16Z"/>
      <path d="M17.03,22.93l-.2,4.13c-1.45.01-.46-4.51-.47-4.49.04-.16.67.2.67.36Z"/>
      <path d="M22.23,27.78l-2.4,2.32c-.36-.82.09-1.52.7-2.15l.68-.7c.18-.19.7.23,1.02.54Z"/>
      <path d="M18.69,29.88l-2.03-2.01c-.2-.19.49-.74.75-.82.76.9,1.49,1.18,1.28,2.83Z"/>
    </g>
  </g>
</svg>