<?xml version="1.0" encoding="UTF-8"?>
<svg id="Warstwa_2" data-name="Warstwa 2" xmlns="http://www.w3.org/2000/svg" viewBox="0 0 39.9 54.01">
  <g id="icon-v8-weapon-shield-pixarts-store">
    <g id="icon-v8-weapon-shield-pixarts-store_43">
      <path d="M18.39,40.57l-2.24-1.7,8.7-12.81c1.32-2.19,2.99-3.99,3.86-6.49l-13.29,18.96-7.36-5.4c5.05-7.3,9.88-14.25,14.26-21.73,2.09-3.56,3.35-7.07,3.37-11.4l14.21,9.64c-1.03,1.57-1.9,3.13-3,4.4-.65.75-.88,1.18-1.44,2.01l-8.25,12.28c-.35.5-1.82.51-2.46.58l.75,1.71-7.1,9.95ZM29.93,6.55c0-.75-.61-1.36-1.36-1.36s-1.36.61-1.36,1.36.61,1.36,1.36,1.36,1.36-.61,1.36-1.36ZM18.42,26.15h-1.86s1.17.81,1.17.81c.25.17,1.29-.5,1.19-.81l-1.1-3.64-1.63,2.04c-.12.15-.47.62-.32.74l.58.48.85-2.04,1.13,2.42ZM15.16,31.26l1.68-2.19-1.78.66-.85-2.43-1.71,2.27c-.07.09.41.44.48.35l.48-.6,1.7,1.94ZM13.03,34.25l-.53-3.87c-1.04.89-1.38,1.5-1.94,2.7l2.47,1.17Z"/>
      <rect x="10.49" y="30.35" width="3.05" height="16.85" transform="translate(-26.58 26.19) rotate(-54.71)"/>
      <path d="M6.33,51.81c.5.38-.59,2.29-1.22,2.2-2.53-.39-5.58-2.78-5.04-4.38.17-.52,1.35-1.51,1.84-1.23l4.43,3.41Z"/>
      <path d="M9.18,41.8l1.54,1.5-2.04,2.98c-.75-1.35-1.25-2.47-1.49-3.76l2.18-2.83,2.54,1.73-.63,1.17-2.1-.79Z"/>
      <path d="M6.69,48.66c-.73-1.06-1.27-2.15-1.55-3.29l1.45-1.94,1.59,3.58-1.5,1.65Z"/>
      <path d="M5.59,50.16c-.82-.35-1.79-1.24-2.21-1.82l1.25-2.09c.38.71,1.16,2.08,1.62,2.83.15.25-.37,1.21-.66,1.09Z"/>
    </g>
  </g>
</svg>