<?xml version="1.0" encoding="UTF-8"?>
<svg id="Warstwa_2" data-name="Warstwa 2" xmlns="http://www.w3.org/2000/svg" viewBox="0 0 45.22 49.11">
  <g id="icon-v8-weapon-shield-pixarts-store">
    <g id="icon-v8-weapon-shield-pixarts-store_153">
      <path d="M8.8,48.73c-1.83,1.91-7.12-4.03-8.19-5.46-.33-.44-.72-1.64-.58-2.15s.76-1.22,1.22-1.75l6.75-7.78,7-8.23-.1,7.23-.39,12.17-5.71,5.96Z"/>
      <path d="M17.85,18.06c-4.54,4.5-11.59-2.02-17.12,7.28-.21-.95.22-1.83.67-2.79,1.48-3.17,4.37-5.43,8.03-5.45,4.19-.02,7.83-1.1,11.59-2.66l-2.42,2.79-.89-.96c-.21-.23-1.01.25-1.24.49-.18.18-.4,1.01-.21,1.19.23.22.7.18,1.59.12Z"/>
      <path d="M18.62,29.05c-3.38.43,2.29.38,2.62,2.46.77,4.82.65,3.67-3.12,7.57.19-5.34,2.72-3.07,2.62-5.54-5.32,2.2-.97,4.43-5.31,8.43l.14-8.2.24-9.92c.03-1.09.26-2.13.89-2.77l-.3,18.88c1.47-2.6.14-5.34,1.09-7.83.28.69,1.14,1.66,1.78,1.48.87-.26,1.21-1.28.84-1.86s-1.34-.72-2.1-.78c-.81-.06-1.13-2.53-.44-2.69l3.38-.44.56,2.38-1.93-1.19c-.16-.1-.79,0-.97.02Z"/>
      <path d="M24.03,47.51c8.14-5.79,2.12-12.63,4.18-16.82.5-1.01,1.88-1.93,2.86-2.69-.57,3.78-.33,6.85-.02,10.32.39,4.45-2.37,8.8-7.02,9.19Z"/>
      <path d="M26.32,22.99c-1.19-2.45-1.89-6.33-1.02-8.45.08-.2.57-.65.67-.78s-.24-.5-.38-.42l-.93.54.03-2.25c6.64,4.45.41,6.44,7.08,13.69l-2.9,2.91-2.55-5.24ZM26.09,21c.53-4.04,1.96-3.26.19-6.14l-.21,3.05c-.12,1.19-.21,2.24.02,3.09ZM29.94,24.35c-.71-.81-1.34-1.22-1.91-1.6.05-.74.22-1.71-.74-2.19-.1.87-.09,1.95.12,2.84.43.52,1.81.95,2.53.95Z"/>
      <path d="M28.45,28.83l-4.43,4.36c-.44-4.86-.38-9.39,0-14.35.86,2.68,1.77,5.07,3.1,7.54l1.32,2.45Z"/>
      <path d="M25.44,45.2c-1.29,2-2.25.84-2.62,2.57-2.39.98-4.67-1.75-9.69-1.75.9-1.12,1.93-2.32,3.15-3.08,4.33,1.05,3.13,2.61,9.16,2.26Z"/>
      <path d="M30.52,18.28c.51,4.31,3.59,5.05,2.96,5.7l-.92.96c-.22.23-.8-.63-1.01-.87-4.93-5.55-.15-7.15-5.28-12.48-.22-.23-.59-.77-.72-1.01-.15-.3.63-.95.97-1.08,4.05,4.09,3.43,3.99,3.99,8.78Z"/>
      <path d="M2.16,36.42c-.03-1.61-.18-3.63-.7-5.24-.3-.92-1.42-2.89-.95-3.65l2.11-3.38c-.08,6.1,4.08,7.81,1.68,10.17l-2.13,2.09Z"/>
      <path d="M40.25,14.87l1.84-3.35-1.76,2.19c-.2.25-.71.64-.96.73s-.84-.46-.75-.71c.05-.13.44-.53.35-.63l-.57-.64,4.05-4.33-.39,2.81,3.16-.52-3.57,4.15c-.23.27-1.25.43-1.4.3Z"/>
      <path d="M35.37,4.39l-2.24,1.65,1.08-2.6-.62.52c-.13.11-.57.62-.57.45s-.11-.99.02-1.11l3.45-3.29.22,2.06c.05.45,1.03.41,1.96.57-1.39,1.49-2.06,3.55-4.55,3.96l1.25-2.2Z"/>
      <path d="M17.32,26.12c-.17-1.79.54-3.33,1.58-4.45l2.26.03-1.3-.91c-.63-.44,2.09-.77,1.44-4.46l-1.05,2.96c-1.78.17-.06.84-2.52,2.69-.16-.59-.32-1.59-.08-1.93l4.51-5.28c.23,1.29.2,3.05-.19,4.64-1.48,5.96.27,2.43-.83,7.23l-2.27-1.32,1.89-.85c-.09-.53-.55-1.23-.96-1.43-.44-.21-1.7.1-1.79.54-.15.79.12,2.34.71,2.61.19.09.86.25,1.06.3s.14.77-.02.9c-.56.47-2.33-.06-2.44-1.25Z"/>
      <path d="M38.71,10.89l-3.51-2.81,6.17-3.2c-.72,2.32-1.55,4-2.66,6.01Z"/>
      <path d="M23.19,32.74c.08.73-.24,1.63-.82,1.95-.08-4.4-.84-13.93,1.12-17.81-.27,5.51-.91,10.43-.3,15.87Z"/>
      <path d="M32.66,21.39c-.23-.47-.27-1.28,0-1.57l5.09-5.34c.19-.2,1.01-.06,1.01.14,0,.26-.16.86-.43,1.13l-5.68,5.64Z"/>
      <path d="M29.51,11.65c-.42-.33-.54-.94-.29-1.23l3.04-3.59c.14-.16.58-.4.73-.47.19-.09.52.84.39.99l-3.87,4.31Z"/>
      <path d="M31.45,16.27c-.27-.36-.33-1.29-.05-1.59l3.44-3.53c.2-.2.88.45.68.66l-4.08,4.45Z"/>
      <path d="M23.36,16.59c-1.06-1.42-.53-3.11.55-4.46.07,1.56.12,2.58-.55,4.46Z"/>
    </g>
  </g>
</svg>