<?xml version="1.0" encoding="UTF-8"?>
<svg id="Warstwa_2" data-name="Warstwa 2" xmlns="http://www.w3.org/2000/svg" viewBox="0 0 46.58 62.19">
  <g id="icon-v8-weapon-shield-pixarts-store">
    <g id="icon-v8-weapon-shield-pixarts-store_97">
      <path d="M39.61,38.35c-.35-2.32-1.42-5.26,1.11-6.8l-1.11,6.8Z"/>
      <g>
        <path d="M42.62,20.67l-1.67-.72,2.02-.84c-.03-.28-.4-1.06-.65-1.02l-1.46.24c.53-.27,1.19-.41,2-.51l.15-1.99-2.05.29c-3.19.45-2.37,1.74-3.47,3.37l-.18-2.26-.41.55c-.07.09-.13.01-.16-.1l-.29-1.14-1.68,4.12-.13-3.8c-.02-.5-.95-1.42-1.36-1.75l-1.29,1.33,1.13-2.48-4.21,2.34-.19,3.52c-.03.58-.64,1.31-1.35,1.67l-.22-4.58-.94.34c-.17.06.3.53.38.72.18.91.27,2.56-.07,3.39-.2.5-1.64,1.18-1.9,1.26l1.72-.13c-2.19,5.03-1.15,1.32-3.5,5.35l-6.54,11.22c-.28.48-.46,1.28-.85,1.43-1.05.41-3.46.17-3.75-.13-.27-.28-.42-.99-.52-1.5l2.12-.24-1.47-.36,8.25-13.34.07,3.98c.78-2.54-.19-5.88,2.63-8.78l.79,1.22c.06-.43-.03-1.72.35-2.01l2.18-1.68-2.49.9-.66-.78-3.6-.09-.89,6.32-.77-5.31-.47.79-.28-1.54c-.07-.38-1.54.41-1.68.8-.64,1.74-1.03,4.41-1.48,6.71l-.5-3.47-1.15,6.83-.62-6.32-2.42,1.94-.52-6.26c-.23-2.82,1.02-5.51,1.98-8.2,1.63-4.61,5.17-7.44,9.63-9.96.98,4.37,3.36,7.24,6.85,9.87l-1.14,2.44-.73-1.84-1.35,2-.17-3.57c-.53.19-.97.47-1.07.31-.14-.23-.44-.97-.58-.86l-.92.74c.23-1.77.06-3.13-.77-4.42-.83.46-1.05.53-.39.08.2-.62.21-.85-.29-.77-2.57,1.81-4.62,4.06-6.11,6.7.38.48,1.22.91,1.99,1.27l-2.82.11-.83,3.32,2.58.42-2.8.68-.17,4.79c2.35-1.08,2.07-3.43,3.94-4.46,1.21-.67,2.23-1.36,2.7-2.49l.13,1.53c.02.28.62-.04,1.22-.3l3.96,1.61,3.43-2.12.07-3.73c0-.4.59-1,1.25-1.28l.38,4.72,3.59-1.89c2.7,1.28,5.78,2.07,8.88,1.6l5.45-.83c.15,2.84.19,5.91-.57,8.71-.41,1.52-1.56,3.13-1.65,4.62l-.37,5.94-.88-4.84c-1.52,2.23-3.49,3.97-5.53,5.27-1.8,1.16-3.66,2.55-6.01,3.48l-5.38,2.14c.41-2.11.66-4.05.65-6.17,3.37-.71,6.3-3.8,4.64-7.47l-.87,2.77c-.25-1.81.16-2.95-.86-4.29l-.96,4.06-.33-6.15c-.02-.35.54-1.18.82-1.39.71-.54.94,1.66,2.43,1.67.37,1.16.92,2.33,2.22,3.32l-1.17,3.84c-.54,1.79-2.36,3.11-4.15,3.9-.28.76-.33,1.91-.22,2.82l7.7-5.08-.42-1.68,1.24.75,2.43-2.38c1.72-1.68,2.44-4.28,3.34-6.8Z"/>
        <path d="M8.8,47.09s-.38,1.05-.73,1.02l-2.2-.19,1.05-1.78,1.88.95Z"/>
        <path d="M1.73,53.2c.21-.97,1.78-2.1,2.65-1.8l2.61,1.4-2.36-2.13,3.98.15-3.86-.89.61-1.2c.64-1.26,2.38.96,4.45.13.02,1.45-1.17,3.03-2.06,4.23-.08.84-.25,2.12-.63,3.11l-5.41-3Z"/>
        <path d="M2.8,58.8c1.04-.5,1.78-1.25,2.71-2.36l.96.64c.73.49-1.56.87-1.74,5.12l-.4-3.14L.1,61.58c.02-1.5-.65-7.4,1.23-7.67.35-.05.97.76.72,1.03-.6.64-1.33,2.05-1.19,3.38l1.98-3.51,2.18,1.02-2.22,2.97Z"/>
        <path d="M11.24,46.91l-3.87-.95c.07-.66.57-1.64,1.08-2.14l2.97,1.86c-.75-.8-1.61-1.8-2.21-2.83l1.35-2.61,2.39,2.4-.59-1.59,2.59.07c-1.18,2.18-2.33,3.99-3.71,5.78Z"/>
        <path d="M33.35,11.31l-4.18-2.34c.18-.49.94-1.38,1.46-1.4s1.57.46,2.01.78l1.5,1.09c.33.24-.37,1.2-.8,1.87Z"/>
        <polygon points="33.3 11.94 29.11 13.49 28.86 9.62 33.3 11.94"/>
        <path d="M31.44,41.74c-.41-1.48-.55-2.16-1.12-3.52l2.09-1.06-.97,4.58Z"/>
      </g>
    </g>
  </g>
</svg>