<?xml version="1.0" encoding="UTF-8"?>
<svg id="Warstwa_2" data-name="Warstwa 2" xmlns="http://www.w3.org/2000/svg" viewBox="0 0 42.2 50.11">
  <g id="icon-v8-weapon-shield-pixarts-store">
    <g id="icon-v8-weapon-shield-pixarts-store_121">
      <path d="M41.91,5.47c1.61,18.02-3.3,36.52-20.83,44.64-8.73-4.06-15.06-11.33-18.14-20.32C.24,21.89-.63,13.73.45,5.42L21.06,0l20.86,5.47ZM31.7,36.78c5.91-8.69,6.98-17.86,6.56-27.96l-16.96-4.65L4.16,8.77c-1,14.39,2.46,27.76,15.13,36.01.64.42,1.97,1.02,2.65.62,3.86-2.27,6.87-5.12,9.75-8.62Z"/>
      <path d="M32.83,33.3c-2.9,4.86-6.78,8.53-11.58,11.48C8.16,37.39,4.07,24.14,5.03,9.65l16.03-4.49,16.27,4.48c.31,8.85-.44,15.61-4.51,23.67ZM22.3,33.8l.09-8.67,6.86,6.82c.4.37,1.83-.81,1.71-1.4l-8.16-8.23,4.27-4.23c.38-.37,1.1-.84,1.53-.91.37-.06,1.1.81,1.46.8l2.82-.06c1.32-3.03.36-2.99,1.21-6.39l-3.31.88c.26.73.6,1.94.25,2.42-1.34,1.83-3.38-.37-4.08.31l-4.59,4.43-.1-5.14c0-.31.75-1.12.97-1.39l-1.96-4.61-2.19,4.79c.34.18,1.1.78,1.09,1.05l-.15,5.3-4.66-4.48c-.67-.64-2.85,1.54-3.99-.27-.37-.59-.1-1.65.29-2.47l-3.17-.67c.65,2.58-.14,4.69,1.22,5.83.5.42,1.59.58,2.55.72l1.28-.9c.29-.2,1.36.19,1.65.48l4.36,4.51-8,8.12c-.51.52,1.21,1.94,1.76,1.39l6.72-6.73.08,7.63c.05,4.72-1.44,2.91,1.14,7.8,2.54-5.07,1.06-3.17,1.1-6.72Z"/>
    </g>
  </g>
</svg>