<?xml version="1.0" encoding="UTF-8"?>
<svg id="Warstwa_2" data-name="Warstwa 2" xmlns="http://www.w3.org/2000/svg" viewBox="0 0 34.85 54.34">
  <g id="icon-v8-weapon-shield-pixarts-store">
    <g id="icon-v8-weapon-shield-pixarts-store_76">
      <path d="M34.67,4.96c1.08,16.79-2.52,38.5-17.13,49.38-4.23-3.03-7.39-6.9-10.01-11.44C1.28,31.63-.6,17.87.16,5.03,6.04,4.1,11.37,2.66,16.55.08,17.16.02,17.74,0,18.39,0c5.15,2.63,10.53,4,16.29,4.96ZM16.24,50.64c.94.84,2.1.62,2.97-.25,11.39-11.31,14.01-26.89,13.59-42.3-.62.08-1.67.25-1.67-.09l-.02-1.47c-4.19-.81-8.39-2.23-12.32-3.85l-1.32,1.65-1.16-1.58c-4.06,1.54-8.22,2.87-12.41,3.83l-.16,1.73-1.57-.09c-.74,14.69,2.63,32.29,14.07,42.42Z"/>
      <path d="M32.06,9.25c.36,14.36-2.88,31.75-14.57,41.42C6.94,42.09,2.82,25.84,2.88,13.15l.02-3.96c.68.04,1.14.12,1.36-.06.26-.22.3-1.1.33-1.77,3.75-.99,7.52-2.08,11.28-3.58l1.76,1.4c.47-.52,1.37-1.49,1.84-1.31,3.61,1.35,7.19,2.57,10.78,3.43l.35,1.51c.07.32.95.33,1.46.44ZM17.44,45.55l2.93-4.25c-.98-1.43-1.44-2.65-1.44-4.16l.04-14.25h5.28c.72,0,1.7.6,2.44,1.08l3.13-2.61-3.26-2.69c-.94.75-1.9,1.36-2.87,1.35h-4.75s.06-6.29.06-6.29c0-.79.64-1.78,1.22-2.53l-2.76-3.7-2.64,3.67c.46.8,1.14,1.88,1.14,2.52l-.02,6.3-4.84.04c-.87,0-1.69-.57-2.57-1.35l-3.23,2.74,3.23,2.6c1.46-1.81,4.91-.99,7.42-1.13v15.21c0,1.09-.77,2.35-1.24,3.29l2.74,4.17ZM22.02,17.75l2.47-3.38-3.34,2.46.5-3.05c-.63.98-1.3,2.12-1.53,2.93l2.04,2.01c.5.24,1.76-.72,2.09-1.11l-2.25.13ZM15.07,16.52l-1.66-2.49.39,2.87-3.66-2.79,2.79,3.65-2.75-.38,2.47,1.55,2.41-2.42ZM13.85,25.84l-.42,2.95,1.53-2.79-2.24-2.12c-.67.15-1.75.83-2.07,1.21l2.11-.04-1.98,2.82,3.07-2.02ZM24.17,27.96l-2.06-3.07,2.41.26c-.58-.59-2.05-1.48-2.52-1.02l-1.84,1.81c.28.88.78,1.83,1.42,2.99l-.38-3.07,2.97,2.09Z"/>
    </g>
  </g>
</svg>