<?xml version="1.0" encoding="UTF-8"?>
<svg id="Warstwa_2" data-name="Warstwa 2" xmlns="http://www.w3.org/2000/svg" viewBox="0 0 37.49 47.73">
  <g id="icon-v8-weapon-shield-pixarts-store">
    <g id="icon-v8-weapon-shield-pixarts-store_115">
      <path d="M17.91,47.73c-7.02,0-15.92-5.01-17.91-12.52,4.18,4.38,10.25,6.78,16.3,5.5,4.1-.87,7.41-3.41,8.68-7.35,2.53.38,2.96,2.48,2.91,5.04,1.94-3.54-1.57-5.1-2.69-5.98-.18-.14.16-.89.42-.89,3.13.07,4.23,4.03,4.93,4.48,1.12.73,2.58-1.64,5.2-.83-3.04,7.35-9.77,12.55-17.83,12.55ZM7.04,41.97c5.64,4.19,15.88,3.11,19.83-2.45-6.97,5.55-11.87,5.43-19.83,2.45Z"/>
      <path d="M37.26,32.28c.54.5.05,2.48-.55,2.32-2.03-.61-3.93-.25-5.91,1.04-.62-3.05-3.42-4.83-5.92-5-.42-.03-.79-1.17-.59-1.45,1.07-1.49,5.58-1.22,6.79-4.99.35-1.08.21-2.67-.66-3.32-.72-.54-2.02-1.34-3.04-.65l2.23.62c.57.16,1.16,1.4,1.17,2.08.04,2.02-1.67,3.52-3.36,3.9.72-2.78-.66-4.68-2.9-5.43.24-1.34.26-2.69-.5-3.72-.52-.7-2.04-1.19-3.15-1.58-.05-2.15-1.16-3.96-3.78-4.11,3.43-4.57,3.03-5.34.93-10.11.35-.19,1.1-.18,1.48-.01.59.25.82,1.16.89,2.1l1.76-.29c-.23.6-.66,1.9-.28,1.87l1.99-.45-.62,2.04,2.17-.62-.62,2.11,2.38-.71-1.06,1.95c.45.31,1.14.18,2.33-.31,2.8,3.64,6.54,8.27,6.86,13.3.2,3.2-.95,6.69,1.97,9.41ZM22.25,14.63c1.47-.41,2-2.29,1.53-3.6s-2.13-2.2-3.49-1.2c1.25.12,2.67.2,3.01,1.39.32,1.12-.27,2.11-1.05,3.41ZM26.5,19.74c2.11-.53,2.13-3.62.82-4.91-.91-.9-2.75-1.17-3.83-.39.96.32,2.58.17,3.22.58,1.86,1.2.88,3.47-.2,4.72ZM31.51,32.82c.82.61,3.05.19,3.92-.22-2.07-4.62-1.25-7.16-1.69-8.7-.06-.21-1.09.08-1.21.32-2.18,4.32-7.14,4.09-4.82,5.8l3.8,2.8Z"/>
      <path d="M17.47,2.73c2.11,2.96,1.95,5.99-.8,8.55-1.63,1.52-4.48,1.53-6.56.25-1.77-1.09-3.32-3.58-2.57-5.93.57-1.8.94-3.55,1.03-5.6,5.17,1.63,6.72-.34,8.9,2.73ZM17.35,6.6c0-2.33-1.89-4.22-4.22-4.22s-4.22,1.89-4.22,4.22,1.89,4.22,4.22,4.22,4.22-1.89,4.22-4.22Z"/>
      <path d="M31.75,32.25l-3.26-2.29-.75-.53c-.2-.14.48-.76.74-.85,1.98-.68,3.45-2.31,4.76-4.35.06,2.92.32,5.21,1.3,7.93-.37.17-2.19.51-2.79.09Z"/>
    </g>
  </g>
</svg>