<?xml version="1.0" encoding="UTF-8"?>
<svg id="Warstwa_2" data-name="Warstwa 2" xmlns="http://www.w3.org/2000/svg" viewBox="0 0 44.19 48.32">
  <g id="icon-v8-weapon-shield-pixarts-store">
    <g id="icon-v8-weapon-shield-pixarts-store_53">
      <path d="M21.54,18.4c-.66,1.28-2.17-2.61-5.08-1.18-1.47.72-2.42,2.08-1.77,3.98l-3.21,3.15-1.99-6.32c-.11-.34-.57-1.2-.34-1.45l.97-1.08-.9-.31c-.24-.08-.4-.83-.34-1.14l.68-3.5c1.11-5.72,2.7-6.9,7.93-9.18,1.59-.69,3.11-1.19,4.85-1.38l.98,1.8c.77-3.29,4.06.01,7.88-.42l-2.61,3.68c-1.84-.2-3.4.56-3.86,2.1-.56,1.89.38,3.61,2.2,4.37.33.14-.57,1.2-.9,1.03-.83-.42-2.14-1.6-2.64-2.41-.86-1.41-.48-2.71.59-3.96-1.69-.57-3.65.05-4.51,1.72l-4.09-.13c-.19,1.57.23,2.81.82,4.22-1.52,1.13-2.14,2.84-1.4,4.83,1.99-2.1,4.74-1.58,6.49.41.22.25.37.92.24,1.17ZM15.21,7.17c2.16-1.3,4.42-3.34,7.14-3.37l5.1-.06c-6.42-1.55-7.88.2-13.08,3.24l-1.71,4.12c-1.31,3.14-.8,6.58.58,9.67-.86-6.71-1.71-7.1,1.97-13.6Z"/>
      <path d="M24.17,29.63c1.95.21,3.44-.63,3.91-2.29s-.46-3.23-2.13-4.17c-.01-.21.65-.95.89-.8l1.08.69c.75.48,1.77,1.87,1.89,2.85.1.83-.38,1.99-.85,2.9,1.9.56,3.46-.54,4.39-2.02,1.41.31,2.55.42,4.19.12-.14-1.33-.41-2.59-.78-4.02,1.46-1.06,2.04-2.87,1.11-4.57-1.75,1.8-4.31,1.37-5.88-.25-.19-.2-.57-.68-.69-.87-.16-.24.32-.77.64-1.07,1.1,1.06,2.34,2.1,3.97,1.87,1.99-.28,2.88-2.11,2.37-4.33l3.14-2.91c.33,4.28,3.91,6.36,1.2,8.14l1.57.97c-.3,3.31-.79,6.71-2.8,9.53-.65.91-3.72,3.81-5.93,2.77.4.19-.46,2.34-4.24,2.16l-.93-1.44-.43,1.48c-3.83-.16-3.6-1.03-8.09-1.16l2.39-3.58ZM24.07,31.08l4.04.41c5,.51,6.46-1.77,10.44-3.62l1.32-3.15c2.17-5.19.94-5.88-.22-11.55-.29.99-.1,2.07.24,3.08,1.69,5.12-.22,6.87-1.61,11.13-4.18,1.61-5.38,4.1-10.03,3.59-1.33-.15-2.66-.47-4.17.1Z"/>
      <path d="M24.95,23.26l-4.04-3.47c1.13-1.65,3.19-2.25,4.37-3.61,1.13-1.31.99-3.38,2.93-4.37,1.2.94,2.37,1.97,3.62,3.25l-4.1,4.05c-1.08,1.07-1.57,2.46-2.77,4.16Z"/>
      <path d="M16.31,28.99c-.94.3-1.33.61-2.33.23l5.52-6.56,2.77,2.38-5.38,6.34c-.65-.48-1.12-.81-1.31-1.08s.53-.98.72-1.31Z"/>
      <path d="M36.68,26.15c-3.86,2.69-5.6-7.53-9.47-5.12.69-.96,1.63-2.08,2.57-2.96-.76,2.48,3.61,4.27,5.61,5.06.83.33,1.72,2.25,1.29,3.02Z"/>
      <path d="M21.34,14.28c-.45-1.49-5.04-2.08-4.83-3.78.93.07,1.91-.02,2.17-.58.13-.29-.71-.93-1.07-.97-.38-.05-.8.34-1.22.89-.1.15-.58-1.03-.27-1.23.59-.4,2.37-.28,2.78.31,1.42,2.04,3.72,5.91,6.42,5.16-.7,1.23-1.6,2.54-2.97,3.33.27-.66.67-1.33.58-1.82s-1.02-1.32-1.45-1.62l-.87,1.37c-1.84-.65-3.49-.69-5.23.06-.51-.9.18-3.09,1.41-2.67l1.96.67,2.6.89Z"/>
      <path d="M33.53,12.51c-1.35-.87-2.24-1.56-3.48-2.65l6.9-4.76-3.41,7.41Z"/>
      <path d="M1.39,41.81l1.93-1.72,4.39,3.47c.07.73-.79,1.78-1.63,2.13l-4.7-3.89Z"/>
      <path d="M0,43.99c0-.51,1.07-1.07,1.63-.96.48.1,1.4,1.09.96,1.31-.77.37-1.47.74-1.53,1.15-.07.57.37,1.1.91,1.22,1.9.44.32-2.69,2.61-1.59.39.19.52,1.48.12,1.72-1.31.77-2.93,1.14-4.67,1.47L0,43.99Z"/>
      <path d="M11.33,30.9l1.52-1.88,4.01,3.25c.45.48-1.04,2.17-1.59,1.74l-3.94-3.11Z"/>
      <path d="M31.5,19.82l-.74.09c-.23.03-.19-1.2.03-1.11l3.74,1.71c.72.33,2.28-.78,3.04-1.3.58,1.4,0,3.24-1.58,3.51l-1.64-1.23c-1.25-.01-2.43-.37-2.85-1.67Z"/>
      <path d="M10.56,39.13l-2.57-3.12,1.43-1.89c1.37.89,2.09,1.89,2.62,3.28l-1.48,1.73Z"/>
      <path d="M21.76,7.6l-1.67,1c.15-1.16,1.28-1.89,2.57-1.97-.95,2.24-.16,4.45,1.57,6.36-1.2.41-2.32-.78-2.74-1.62-.55-1.12-.14-2.09.27-3.76Z"/>
      <path d="M19.94,22.1c-.26-.25.3-1.5.54-1.73l4.03,3.4c-.26.3-1.26.98-1.62.77-.77-.46-2.12-1.66-2.95-2.43Z"/>
      <path d="M7.61,42.82c-1.21-1.14-2.82-3.98-1.33-4.97l2.49,3.45-1.17,1.53Z"/>
      <path d="M6.84,37.7c-.21-.32.61-1.3.91-1.24l2.4,2.94-1.27,1.42-2.03-3.11Z"/>
      <path d="M28.58,11.29c.13-.22.87-.81,1.15-.67,1.1.58,3.81,2.17,2.71,3.95l-3.86-3.28Z"/>
      <path d="M9.81,33.96l.61-1.2c1.51.23,3.11.45,4.19,1.97-1.7.29-3.03-.19-4.8-.77Z"/>
      <path d="M30.51,26.9c-.16-2.17-.31-3.02-1.81-4.06,1.73-.77,3.19,1.56,3.15,2.2-.04.6-.67,1.46-1.33,1.86Z"/>
      <path d="M32.44,27.16l-1.25.95c-.27.21-1.02-.11-1.05-.36.87-.51,1.68-1.07,2.05-1.67.13-.21.92.03.83.25s-.41.7-.59.84Z"/>
    </g>
  </g>
</svg>