<?xml version="1.0" encoding="UTF-8"?>
<svg id="Warstwa_2" data-name="Warstwa 2" xmlns="http://www.w3.org/2000/svg" viewBox="0 0 50.34 51.09">
  <g id="icon-v8-weapon-shield-pixarts-store">
    <g id="icon-v8-weapon-shield-pixarts-store_58">
      <path d="M39.61,12.66c-.42-.15-1.37-.98-1.72-1.44.51-1.11.79-2.08,1.01-3.26L50.34,0c-.09.42-.3,1.09-.56,1.47l-7.19,10.47c-1.08.02-1.99.25-2.98.73ZM42.98,9.23l3.09-4.45c-.18-.04-1.03.23-1.32.44-.26.19-.24.86-.35,1.21-.62.97-1.23,1.68-1.42,2.81Z"/>
      <path d="M37.94,21.96c-.37-.86-.81-1.68-.53-2.23.41-.8,1.51-1.64,2.61-.94l-1.27-1.2-2.92,3.28c-.21.19-.92-.4-1.11-.76,1.19-1.5,2.64-2.91,4.16-4.09l.14.95c.07.44,3.2,1.85,4.74,2.16l-5.76,5.76-1.66-4.3c.76.13,1.13.64,1.6,1.37Z"/>
      <path d="M11.93,40.74c-.69.94-3.41,5.38-5.99,5.39-.62,0-1.79-.6-2.01-1.3-.15-.5.91-1.46,1.5-1.57,1.56-.29,2.14-1.89,3-3.01,2.11-2.76,4.81-5.16,7.5-7.62,1.03.28,1.96,1.42,2.29,2.34-2.06,1.1-3.28,2.37-4.28,4.23-.41.63-1.39,1.58-2,1.54Z"/>
      <path d="M30.29,13.75v1.04s-4.53-1.97-4.53-1.97l5.89-5.75c.42,1.36.83,2.61,1.38,3.53l.44.74c.08.14-.32.42-.46.35l-.8-.38c.44,1.14-.47,2.17-1.93,2.43Z"/>
      <path d="M21.16,32.1c-.81-.27-2.03-1.44-2.57-2.32,2.26-1.78,3.68-3.69,5.69-5.55l1.78-1.64,1.79-2.01c.83.63,1.76,1.43,2.58,2.23-5.63,3.13-2.99,3.53-5.44,5.56-1.43,1.18-2.27,2.02-3.82,3.74Z"/>
      <path d="M31.66,17.26c-.02.06-.65-.5-.47-.69l.86-.95c-.74.27-1.16.45-2.08.29,1.25-1.93,2.75-3.33,4.5-4.64.6,2.3-1.67,2.09-1.87,3.97l2.86-2.81,1.41.34-.45-.8c-.1-.18.37-.63.57-.57s.6.31.74.48l1.89,2.24-2.62.37,1.64.81-4.14,3.91-2.1,1.99-2.66-2.86c.43-.3,1.01-.61,1.93-1.07Z"/>
      <rect x="22.74" y="8.18" width="10.18" height="1.67" transform="translate(1.7 22.16) rotate(-44.66)"/>
      <rect x="36.53" y="22.22" width="10.29" height="1.66" transform="translate(-4.06 36.32) rotate(-45.13)"/>
      <path d="M45.35,21.38c-1.16,4.6-1.91,3.88-4.7,5.63-.13.08-.88.16-.8.02s.3-.66.48-.83l5.03-4.81Z"/>
      <path d="M19.34,34.39c-.9-.4-2.21-1.54-2.72-2.47-.24-.44.51-1.57,1.08-1.82.85.78,2,1.96,2.76,2.86.32.37-.7,1.58-1.13,1.43Z"/>
      <path d="M3.96,49.56l-3.43,1.53c-1.21-1.73-.18-3.44,1.48-4.19.28.74-.12,1.21-.73,2.14l1.34-.91c.51-.35,1.62,1,1.34,1.44Z"/>
      <path d="M24.02,10.86c.19-2.88,2.5-5.37,5.68-5.69l-5.68,5.69Z"/>
      <path d="M30.7,22.44l-2.32-2.46c-.15-.16-.03-.9.16-1,.26-.13.92-.02,1.14.18l2.2,2.01c.2.18.17,1.01.08,1.26-.11.31-1.02.26-1.26,0Z"/>
      <path d="M4.11,48.41l-1.86-2.06c-.18-.2-.34-.85-.19-1.06.19-.26.99-.24,1.23.01l2.35,2.54c.19.2-.27,1.06-.55,1.07s-.78-.26-.98-.49Z"/>
    </g>
  </g>
</svg>