<?xml version="1.0" encoding="UTF-8"?>
<svg id="Warstwa_2" data-name="Warstwa 2" xmlns="http://www.w3.org/2000/svg" viewBox="0 0 47.28 52.33">
  <g id="icon-v8-weapon-shield-pixarts-store">
    <g id="icon-v8-weapon-shield-pixarts-store_105">
      <path d="M17.68,30.7c-.21.41-2.15-.08-2.1-.51.17-1.51,2.26-2.45,3.05-3.61l12.54-18.45c.55-.8.93-1.57,1.33-2.34l-2.98.06,2.35-1.27-2.27-1.64,2.98.42-.27-2.33,1.74,2.16,3.18-3.18-1.28,3.83,2.68.2-2.22,1.01,3.04,2.11-3.83-.94-.27,2.21-1.55-1.97c-1.51,1.91-2.7,3.48-3.98,5.37l-9.96,14.69-2.17,4.18Z"/>
      <path d="M46.99,30.12c-.94.93-2.34.71-3.28.08-4.88-3.25-1.76-8.27-6.25-13.03-1.43-1.52-2.92-2.53-5.31-3.18l1.84-4.24c5.69,3.4,8.74,8.37,8.52,13.85-.07,1.78.02,3.52.97,5.15.41.7,2,.99,2.52.59.19-.15.33-.88.08-.92l-1.18-.18c.48-.18,1.57-.14,2,.17.49.35.54,1.3.1,1.72ZM40,18.48c-.23-1.65-1.37-3.14-2.8-4.37l-1.71-1.79-1.66,1.25c3.2.68,4.67,2.79,6.18,4.91Z"/>
      <path d="M25.58,10.41c-9.03-6.3-17.02,1.95-22.38-1.38-1.06-.66-1.46-1.67-.73-2.43.61-.64,2.14-.79,2.65.24-.84.02-1.38,0-1.62.27-.37.44.1,1.42.83,1.48,1.8.16,3.38-.08,4.89-.68,6.93-2.77,12.33-3.65,19.85-.79l-3.48,3.29ZM16.56,7c2.67.22,5.22-.08,7.17.87.56.28,1.27,1.09,1.7.86.47-.25,1.28-1.04.95-1.3-.4-.3-1.28-.46-1.84-.49-3.6-.17-6.07-.84-7.97.06Z"/>
      <path d="M19.85,30.97c-2.89,2.45-4.92,5.14-7.19,8.03-.55.7-3.26-.44-3.14-1.19,2.09-3.04,3.74-5.85,4.95-9.22.24.82.24,1.51.28,2.45l2.05,1.09c.95-.66,1.46-1.33,3.05-1.16Z"/>
      <path d="M16.11,25.91c1.88-5.96,2.21-2.5,5.38-6.93,1.63-2.28,2.87-4.54,2.62-7.36l2.14-.43c1.21-.89,1.14-2.39,3.32-2.43l-7.02,10.69c-1.12,1.71-4.16,6.55-5.76,7.32-.19.09-.75-.65-.68-.87Z"/>
      <path d="M25.15,22.33l-.65,2.85c-.08.34-2.6,3.08-3.51,3.58-.21.12-.74-.61-.67-.81.27-.8.91-2.11,1.5-2.96l10.27-14.84c1.01,1.82-2.01,3.28.1,5.39-2.98.67-6.85,5.96-7.04,6.79Z"/>
      <path d="M11.95,43.7c-3.67-.81-5.97-3.23-5.21-5.89.35,1.95,1.88,3.75,3.88,4.64,2.56,1.14,5.5.9,7.75-.18,4.27-2.05,5.08-5.87,3.52-9.8,1.28,1.37,1.79,3.19,1.67,4.86-.33,4.52-5.91,7.63-11.6,6.37Z"/>
      <path d="M3.09,33.89c-2.25,2.61-2.21,5.61-.33,8.92-3.24-2.95-3.04-7.54.16-10.4,2.13-1.9,6.05-2.89,9.18-1.35-4.02-.06-6.97.45-9.01,2.83Z"/>
      <polygon points="5.76 10.37 16.16 27.91 15.32 28.18 4.92 10.65 5.76 10.37"/>
      <path d="M7.74,46.5c-.26.32-1.96.38-2.31.07s-.86-.88-1.32-1.42l2.3-3.09,2.79,1.97c-.23.49-.97,1.85-1.47,2.47Z"/>
      <path d="M16.73,15.94l-.91,2.57-.22-2.58-.95-.08c-.18-.02-.02-.35.08-.73l-3.1-.98,3.18-.02c0-.23-.13-.71,0-.71l.98.06.87-2.7.31,2.95,1.41-.37-.64,1.12,3.13.65-3.15.24.23.9c.03.11-.39-.06-1.21-.32Z"/>
      <path d="M19.03,30.15c-.06-.3.94-.58,1.69-.6l19.39-.42c.68-.01,1.26,0,1.73.61l-22.8.4Z"/>
      <path d="M4.12,50.4l-2.53,1.93.58-2.91c.13-.67,1.05-1.71,1.84-1.99,1.53.81,1.07,2.24.11,2.97Z"/>
      <path d="M32.58,24.8c-.65-1.09-1.33-1.99-2.27-2.51,1.1-.29,2.12-.87,2.66-1.69.12,1.01,1.21,1.99,2.49,2.37-1.54-.04-2.98.7-2.89,1.83Z"/>
      <path d="M13.26,41.55c2.47-.26,4.3-1.08,5.54-3,.83-1.29.42-2.82.21-4.47,2,2.4.93,5.2-1.38,6.84-1.33.48-2.56.92-4.37.64Z"/>
      <path d="M7.42,49.66c2.33-.39-2.01,2.92-4.52,2.65.76-1.31,3.02-2.4,4.52-2.65Z"/>
      <path d="M.6,51.76c-.48-.78-1.3-5.45.59-5.44l.14,2.71c.04.87-.15,1.71-.73,2.72Z"/>
      <path d="M5.24,40.04c-2.2-2.4-1.28-5.79,2.13-6.92-2.4,1.9-3.23,4.14-2.13,6.92Z"/>
      <path d="M14.33,40.14l-2.18.76c-.89.31-2.65-.49-2.99-1.47,1.49.8,2.69,1,5.17.7Z"/>
      <path d="M12.19,29.13c-1.94-.53-3.62-.41-6.06-.28,1.24-.78,3.84-.89,5.28-.52l.78.8Z"/>
      <path d="M11.7,45.7l.66-.34c1.83.11,3.14.06,5.22-.03-1.66.71-3.34.99-5.88.38Z"/>
    </g>
  </g>
</svg>