<?xml version="1.0" encoding="UTF-8"?>
<svg id="Warstwa_2" data-name="Warstwa 2" xmlns="http://www.w3.org/2000/svg" viewBox="0 0 37.42 54.93">
  <g id="icon-v8-weapon-shield-pixarts-store">
    <g id="icon-v8-weapon-shield-pixarts-store_129">
      <path d="M19.78,54.68c-.7.5-1.98.17-2.59-.27-7.08-5.1-11.99-12.82-14.25-21.25C.48,24.04-.5,14.79.24,5.17,3.8,2.53,14.48-.11,18.4,0c5.77.16,13.62,2,18.81,5.13.59,8.68-.06,17.2-2.09,25.65-2.38,9.89-6.83,17.85-15.33,23.9ZM17.12,51.37c1.25,1.05,2.46.63,3.51-.23,5.92-4.83,9.81-11.48,11.81-18.91,2.19-8.1,2.82-16.21,2.4-24.63-1.62-2.97-12.3-4.97-15.57-5.07-5.39.19-10.49,1.36-15.37,3.68-.55.26-1.19,1.08-1.22,1.69-.67,12.65.99,27.71,8.97,38,1.56,2.01,3.49,3.8,5.48,5.47Z"/>
      <path d="M9.76,38.64c.37,1.53,1.34,2.58.83,4.15l-1.47-2.63C4.46,31.81,3.23,19.32,3.4,9.83c3.39-2.11,1.03-3.14,3.45-3.82.4,2.39-.85,3.98-2.99,4.59l1.68.32c1.21-1.72,1.98-3.27,2.09-5.18,2.57-1.01,5.37-1.64,8.12-1.98l-.07,10.11-5.53.05c-.15,6.4-.6,14.94,5.55,19.01l-.13,15.89c-1.89-1.6-3.24-3.24-4.52-5.11l.54-1.24c-.32-1.38-.77-2.74-1.84-3.83Z"/>
      <path d="M26.84,42.82c-.08-.88-.08-1.69-.06-2.75-1.36.84-.22,2.53-.63,3.57-.82,2.07-2.59,3.71-4.38,5.27l-.11-15.95c4.63-3.26,5.65-8.14,5.66-13.58v-5.47s-5.58-.02-5.58-.02l.02-10.22c2.95.49,5.66,1.09,8.18,2.03.19,1.59.44,2.71.98,3.97l1.67,1.22c-.58.59-.43.55-.05.37l1.02-.49c-2.11-.84-3.38-2.59-2.85-4.82,2.24.63-.19,1.9,3.31,3.98.25,10.46-1.18,23.75-7.18,32.89Z"/>
      <path d="M19.35,33.82c-1.55.13-2.14-.74-3.11-1.42-6.04-4.24-5.37-10.91-5.35-17.74l15.64.02c.2,4.73.39,9.51-1.7,13.75-1.11,2.24-3.56,3.66-5.47,5.39ZM15.76,27.44l4.27.12c-.05.76-.5.87-1.48,1.38l1.28.97,1.75-2.53c-.65-.53-1.14-1.07-.82-1.18.81-.25,1.9-.56,1.91-1.07l.09-2.92-1.07.21c1.11-1,1.94-1.72,1.53-3.15l-2.33-.02c-.34-.25-.78-1.42-1.27-1.46-1.3-.09-2.85,1.12-2.73,1.31l.76,1.18c.19.3-.8.63-1.2.51-1.2-.34-.04-1.8-1.08-1.56l-.69.16c.18-.41-.15.05-.57.61l2.39,2.66-2.36.38c-.73,2.74,3.45-.22,3.92,1.37l-1.13.78c-.24.16-.02.9-.02,1.17l-1.13.02c-.25,0-.28,1.06-.02,1.07Z"/>
      <path d="M20.8,49.6c0,.57-1.4,1.66-1.95,1.57-.7-.11-1.74-.87-2.38-1.5l.05-15.99c1.69,1.2,2.74,1.12,4.3-.05v15.98Z"/>
      <polygon points="20.96 13.79 16.57 13.86 16.64 3.5 20.82 3.43 20.96 13.79"/>
      <path d="M22.71,19.73c.6,1.28-1.99,1.89-1.72,2.72.13.4.45,1.05.69,1.53l.54,1.07c.15.29-1.08.6-1.21.3l-1.02-2.37.78-2.9c.16-.12.36-.28.41-.15l.35.98,1.18-1.18Z"/>
    </g>
  </g>
</svg>