<?xml version="1.0" encoding="UTF-8"?>
<svg id="Warstwa_2" data-name="Warstwa 2" xmlns="http://www.w3.org/2000/svg" viewBox="0 0 28.72 50.16">
  <g id="icon-v8-weapon-shield-pixarts-store">
    <g id="icon-v8-weapon-shield-pixarts-store_113">
      <path d="M10.72,31.07c-.37,9.9,9.03,17.35,18,16.98-4.12,2.42-8.78,2.66-13.27,1.22C7.33,46.67,1.87,39.3,1.25,30.76c2.56-.13,3.38,4.02,5.08,1.16.97-1.63,3.05-3.58,4.88-1.98-2.57.87-4.63,2.43-4.14,5.03.74,3.95,2.74,8.04,6.27,10.09-2.78-3.07-5.32-6.18-5.74-10.37-.2-1.97,1.25-3.6,3.12-3.64Z"/>
      <path d="M.05,29.95c-.35-2.18,1.36-4.14,1.47-3.99l-.56-.8,1.42-.46c-.31-.31-.98-.79-.78-.91l1.07-.69c-.09-.14-1.03-.81-.78-.92l.61-.27c.15-.07.51-.38.37-.48l-.72-.52c.36-5.74,4.41-11.37,8.77-15.4l1.71.29-.08-1.06c-.01-.16.12-.41.27-.35l1.16.47-.05-1.66,1.26.55c.26.11.32-.8.37-1.32l1.38.1c-.04-1.33.72-2.08,2.33-2.12-1.35,3.62-3.32,4.87.2,9.47-3.21-.92-3.13,2.39-4.21,3.3-1.65,1.4-4.22,2.38-3.2,5.47-2.71.84-2.91,3.15-2.44,5.58l-1.6-1.75c-1.09-1.19-1.08-3.07.07-4.28l2.67.47c-.5-.76-1.78-1.06-2.48-.9-1.25.29-1.55,1.78-1.4,2.98.61,4.81,5.73,4.41,5.5,6.55-.27,2.53-4.56-.63-7.04,5.01l-2.88-2.15-2.43-.25ZM6.25,20.79c-.27-2.13,1.1-3.67,3.05-4.2-.25-1.3-.45-2.72.13-3.83.47-.91,1.7-1.25,3.14-1.51l.77-3.2c-.82-1.01-2.36-.91-3.11-.03C-1.22,21.57,8.1,17.31,1.6,28.68c2.88.31,5.42-.36,7.77-1.3.59-2.52-2.65-2.83-3.12-6.59ZM15.31,7.88l2.35,1.02c-.06-.97-1.45-1.48-2.33-1.39-.62.06-1.48,1.04-1.6,1.88-.17,1.18.54,2.59,1.38,3.09-.67-1.76-1.36-3.49.21-4.6ZM10.42,14.41c0-.63.9-1.86,1.44-1.84.58.01,1.45.31,2.5.6-.36-.62-1.45-1.06-2.31-1.05-.79,0-1.86.78-2.12,1.61-.49,1.52.04,3.47,1.56,3.87-.55-.93-1.08-1.76-1.08-3.18Z"/>
      <path d="M28.11,4.8c.29,2.22-.59,4.07-2.33,5.09-1.68.98-4.12,1.17-5.53-.21-2.27-2.22-2.32-5.03-.86-7.53,2.11-3.6,3.56-1.56,8.16-1.69l.57,4.35ZM26.94,5.29c0-2.08-1.69-3.77-3.77-3.77s-3.77,1.69-3.77,3.77,1.69,3.77,3.77,3.77,3.77-1.69,3.77-3.77Z"/>
      <path d="M8.68,16.28c-1.89.53-2.7,2.05-3.22,3.93-3.29-1.68,3.8-10.13,5.18-11.81.28-.35,1.61-.65,1.89-.42l-.25,2.65c-1.61.36-2.58.79-3.21,1.78-.78,1.24-.92,2.37-.4,3.86Z"/>
    </g>
  </g>
</svg>