<?xml version="1.0" encoding="UTF-8"?>
<svg id="Warstwa_2" data-name="Warstwa 2" xmlns="http://www.w3.org/2000/svg" viewBox="0 0 32.09 53.97">
  <g id="icon-v8-weapon-shield-pixarts-store">
    <g id="icon-v8-weapon-shield-pixarts-store_70">
      <path d="M32.09,50.62l-15.99,3.34L.04,50.58c.46-6,.61-11.55.56-17.43l.02-14.48L0,3.31,15.27.08c1.39-.29,3.03.34,4.4.52l12.41,2.73-.49,10.45-.07,18.88c-.02,6.01.14,11.6.57,17.97ZM19.29,50.98l10.13-2.27V5.2s-7.26-1.65-7.26-1.65c-2.15-.24-4.39-1.21-6.63-.92-4.3.56-8.47,1.53-12.75,2.49v43.67s11.66,2.46,11.66,2.46c1.61.13,3.14.02,4.85-.27Z"/>
      <polygon points="8.84 46.79 8.5 49.16 6.28 48.63 6.28 36.42 11.18 33.73 11.23 49.66 9.17 49.26 8.84 46.79"/>
      <path d="M23.3,49.25c-.14-1.15-.22-1.88-.52-2.8l-.12,2.86c-.42.11-1.15.25-1.69.34l.02-15.86,4.92,2.46.02,12.38-2.63.63Z"/>
      <path d="M23.83,25.65c.8,4.18-3.78,8.8-7.75,10.68-4.45-2.38-8.15-6.44-8.06-11.65l.11-5.83c7.07-2.92,8.85-3.15,15.89.04l.31,6.45c0,.08-.48.4-.5.31ZM16.2,34.88c6.5-3.31,7.72-8.4,6.63-15.04-3.72-2.47-8.12-2.48-12.12-.84-1.33.54-1.26,1.12-1.51,2.45-1.04,5.51,1.52,11.15,7,13.44Z"/>
      <polygon points="6.23 5.3 8.44 4.69 8.88 6.98 9.1 4.68 11.22 4.22 11.24 16.93 6.33 14.32 6.23 5.3"/>
      <path d="M23.3,4.7l2.61.53v9.07s-4.87,2.69-4.87,2.69l-.08-12.55c.31-.17,1.57-.09,1.61.31l.22,2.52.5-2.57Z"/>
      <path d="M3.56,48.08c.03-3.19-.25-2.63.51-5.1.05-.15-.39-.2-.54-.28v-16.63c.83.26,1.55.59,2.23,1.07l-.03,21.32-2.16-.37Z"/>
      <path d="M26.45,48.49l.04-11.52v-1.91s-.08-7.91-.08-7.91c.72-.45,1.57-.83,2.24-.98l-.11,17.31c0,1.42.08,2.92.07,4.55l-2.16.46Z"/>
      <path d="M5.83,18.79l-.03,5.13-2.25,1.02.02-15.19v-3.71c.49-.37,1.58-.6,2.18-.58l-.03,8.42-.45.09c-.3.06.57,1.86.55,4.82Z"/>
      <path d="M28.67,24.65c-.54,0-1.88-.39-2.08-.9-.24-.62-.12-1.84-.15-2.62-.08-2.03-.22-4.07.33-5.96l.27-.94c.06-.2-.32-.34-.6-.52l.03-8.29,2.12.5c.25,1.35.05,2.81-.43,4.05l.38.18c.1.05.16.42.16.56l-.04,13.93Z"/>
      <path d="M14.42,50.38l.06-11.84c.51,1.4.83,2.34,1.66,3.88l1.59-4.16.03,12.09c-.99.36-2.13.36-3.34.03Z"/>
      <path d="M18.28,50.21l.05-14.27,1.94-1.36.05,15.19c-.69.2-1.2.31-2.04.44Z"/>
      <path d="M13.9,50.2c-.76-.09-1.29-.21-2.01-.43l.05-15.27,1.86,1.27.09,14.43Z"/>
      <path d="M17.72,13.47l-1.58-3.84-1.65,3.92-.1-9.95c1.05-.37,2.31-.38,3.37.05l-.04,9.82Z"/>
      <path d="M20.3,16.51l-1.93-.46-.11-12.28c.76.03,1.44.14,2.05.37v12.37Z"/>
      <path d="M13.83,15.64c0,.52-1.26.9-1.88.84l-.06-12.33c.64-.2,1.28-.31,2.06-.39l-.11,11.88Z"/>
      <path d="M8.56,30.29l-2.21,4v-7.17c.99.28,1.31.71,1.56,1.4l.65,1.77Z"/>
      <path d="M23.81,30.62l.44-1.92c.19-.83.67-1.32,1.66-1.39v7s-2.1-3.7-2.1-3.7Z"/>
      <path d="M16.04,15.4l-1.52.48,1.56-5.04c.77,1.9,1.12,3.25,1.52,5.16l-1.56-.6Z"/>
      <path d="M7.94,34.89c-.16.1-.82-.25-.7-.24l-.92.71c.62-1.58,1.54-2.93,2.64-4.47l1.59,2.37-2.6,1.62Z"/>
      <path d="M24.92,22.98l-.21-3.63,1.12-2.3c.07,2.06.1,4.19.04,6.49,0,.25-.93-.28-.95-.56Z"/>
      <path d="M23.65,33.94c-.67-.05-1.5-.28-2.16-.69l1.27-1.12.16-.84c.04-.19.72.13.83.33l1.93,3.67c-1.09.01-1.75-.74-2.04-1.35Z"/>
      <path d="M16.25,36.73c.04.07.31.49.46.4l.81-.56c-.34,1.6-.78,2.9-1.46,4.65l-1.47-4.66,1.12.31.42,1.73.12-1.87Z"/>
      <path d="M6.36,17.37c1.29.69,1.59,6.72.01,6.36v-6.36Z"/>
      <path d="M24.87,17.84c-.12.26-.5.76-.71.67s-.85-.39-.73-.58l.57-.93c-.82.27-1.17.77-1.99.16l4.31-2.49-1.45,3.16Z"/>
      <path d="M6.8,25.97c.19.25.32.49.55,1.07l-3.59-1.64,3.68-1.39c-.37.61-.55.83-.82,1.15l.56.12c.11.02.31.28.21.33l-.59.36Z"/>
      <path d="M25.06,26.83c-.06-.18-.1-.8.14-.9l1.26-.53-1.49.28.14-1.57,3.57,1.3-3.62,1.42Z"/>
      <path d="M8.91,17.54l-1.17,1.12-1.82-3.86c.91.18,3.01,2.02,2.99,2.74Z"/>
      <path d="M16.09,34.38c-5.82-2.87-7.45-8.36-6.14-14.46,5.33-2.23,6.92-2.14,12.24.01l.36,2.39c.76,5.1-1.69,9.85-6.46,12.05ZM18.76,22.88c.81.48.57,1.44.68,2.5l1.56-2.51-2.59-2.06-2.26,3.17-2.29-3.28-2.5,2.08,1.39,2.46c.12-1.21.03-2.13.8-2.39,2.77,2.15,1.28,6.33,2.52,8.8,1.52-1.79-.17-7.04,2.69-8.78Z"/>
    </g>
  </g>
</svg>