<?xml version="1.0" encoding="UTF-8"?>
<svg id="Warstwa_2" data-name="Warstwa 2" xmlns="http://www.w3.org/2000/svg" viewBox="0 0 43.64 55.05">
  <g id="icon-v8-weapon-shield-pixarts-store">
    <g id="icon-v8-weapon-shield-pixarts-store_101">
      <path d="M28.95,17.93l1.93-3.34c.31-.54.05-2.03-.33-2.53l-1.25-1.69c-.98-1.32-2.94-2-4.55-2.71l.36,3.05c-.51,1.06-.81,2.94-.43,3.84.1.23.96.43,1.04.23l.4-.98c.77,1.25,1.43,2.49,1.81,3.75-.9-1.14-1-2.69-3.07-2.15l2.08,4.34c.61,1.28-1.06,2.86-1.12,3.97-.08,1.29-.06,2.23-.47,3.41l-6.68-4.31-.86-2.38-.76,1.59c-.56-2.15-.79-3.74-1.74-5.57.27,1.63.64,2.72.66,4.38-1.5-.67-2.21-1.1-3.34-1.93l1.35-2.31c.11-.19,1.01-.16.98-.14-.08-.65.06-1.26.47-1.92l6.08-9.72c.59,2.81,3.07,3.31,1.81,6.45-.26.64-1.6.91-2.31.69,0-.13.01.37.02.59,0,.23.58.09.87,0l2.3-.82c1.46-4.13-1.95-4.76-1.92-6.5l3.47,2.06c2.75,1.63,5.28,3.4,7.74,5.21l-1.05-.05c-.23-.01-.71.07-.69.29s.31.9.49,1.06c1.09,1,2.53.66,4.45.25-1.02,1.57-3.24,1.29-4.68.58l-1.89,2.89c1.41.28,2.08,1.89,1.46,3.37-.07.16-.21.75-.06.81l.56.21c.92-2.93-1.4-4.42.38-5.78,3.89.3,4.46-1.83,6.02-.53l-8.92,13.85c.6-2.4.82-4.34-.64-6.37-1.03-1.44-.83-3.59.05-5.11Z"/>
      <path d="M9.77,45.57l-2.05,3.78-3.75-2.44c4.98-7.12,9.26-13.95,13.64-21.13l3.37,2.3c-3.99,5.85-7.89,11.35-11.21,17.49Z"/>
      <path d="M38.2,24.99c-.83,1-.65,2.38-.18,3.71l-2.2,3.51-3.98-.32,6.44-10.15,2.89-4.37,1.84,3.69-4.07,6.31c-.88-.38-.67-1.18-.73-2.37Z"/>
      <path d="M8.27,13.99c-.26-.91,1.19-2.61,1.72-3.47l2.48-4.03.96,2.39c-.23-2.45-.4-5,2.04-6.28.81-.23,2.49.05,3.45.28l-9.17,14.47c-.58-1.22-1.18-2.31-1.49-3.37Z"/>
      <path d="M35.51,12.76l-.21-4.34,2.23-1.05-1.49-1.89c-1.01-1.28.32-3.03,1.86-3.23,1.45-.19,2.09-3.06,4.19-2.03,1.28.63,1.82,1.73,1.42,2.81-.99,2.63-3.88,1.11-3.67,1.83.47,1.58,1.48,1.4,1.03,2.93-.5,1.7-3.42,1.32-3.79,1.92-.46.74-.9,1.73-1.57,3.04Z"/>
      <path d="M31.69,30.84c-.75,1.14-.94,2.5-1.32,3.98l-.88-4.16,9.75-15.11c.33-.51,1.96.25,1.68.72-2.94,5.06-6.02,9.69-9.24,14.57Z"/>
      <path d="M16.41,11.32l-2.13,3.43-2.75,4.38c-.27.4-1.74-.71-1.51-1.14l7.82-12.22,2.19-3.5,1.59,1.12c-1.45,2.31-2.68,4.16-4.4,6.38l.22-2.47c-.95,1.08-.89,2.59-1.03,4.01Z"/>
      <path d="M6.08,51.98c.62.58-.23,2.27-.86,2.6-.89.47-2.26.66-3.2.19-1.23-.62-1.91-1.61-2.02-2.72-.1-1.04.6-2.69,1.82-2.83,1.37.6,2.97,1.54,4.26,2.75Z"/>
      <path d="M27.89,29.28l-.33,1.6c-.39-1.4-.82-2.5-1.37-3.56.31-.57.78-1.81.61-2.51l-.21-.85c-.03-.12.35-.24.43-.14l.37.44c2,.88,2.13,2.68,1.49,4.49l-.28.8c-.06.18-.42-.11-.71-.27Z"/>
      <path d="M21.96,27.83l-4.77-3.14c.04-.51.47-1.32.84-1.58l5.23,3.43c.22.17-.97,1.5-1.3,1.29Z"/>
      <rect x="4.12" y="46.01" width="1.7" height="6.7" transform="translate(-39.13 26.64) rotate(-57)"/>
      <path d="M32.74,11.11l-4.82-3.3c.27-.59,1.19-.95,1.58-.7l3.58,2.32c.41.27.09,1.48-.34,1.67Z"/>
    </g>
  </g>
</svg>