<?xml version="1.0" encoding="UTF-8"?>
<svg id="Warstwa_2" data-name="Warstwa 2" xmlns="http://www.w3.org/2000/svg" viewBox="0 0 43.85 56.56">
  <g id="icon-v8-weapon-shield-pixarts-store">
    <g id="icon-v8-weapon-shield-pixarts-store_109">
      <path d="M41.08,7.51c-7.99,5.53-16.05.45-20.15,10.21l1.53.52c-.17.22-1.02,1.02-1.44,1.01-1.93-.05-6.67-2.92-5.24-5.37l.75,1.4c.17.31,1.29.24,1.32-.1.07-.86-.82-2.77-.38-3.49,1.93-3.13,2.55-2.65,4.39-5.28,0,2.73-2.75,2.89-2.4,4.34l.84-.8c.11.47.18,1.08.3.99l.76-.57c4.96-3.72,1.52-6.24,7.39-6.27-1.08.36-2.41.96-2.66,2.25-.09.46.14,1.28.46,1.44s1.26-.18,1.46-.52c1.87-3.28,4.5-1.08,5.45-4.39,1.09,2.93-2.9,2.49-2.4,4.31,5.15,1.23,3.13-3.64,7.71-3.07l-1.71.69c-.32.13-.5,1.42-.18,1.51,1.05.27,2.8-.47,4.06-.92-1.27,1.58-3.52,2.39-5.63,2.63l-7.86.88c-5.03.56-9.9,5.26-8.69,5.83l1.27.6c.48.23-.57,1.35-1.01,1.77,2.74,1.54-.07-1.44,4.56-4.87-1.74.53-2.88,1.81-4.58,2.49,1.73-3.11,5.28-4.91,8.7-5.29l7.78-.87c2.28-.25,4.26-1.17,5.98-2.81l.3.77c.1.27-.42.86-.67,1.03Z"/>
      <path d="M4.59,35.09c-.97,6.6,2.9,12.33.04,17.58-.06-1.93,1.25-3.88-.51-5.42-.6.31-1,1.37-1.26,2.46-2.23-3.51,3.76-4.79.25-8.47l-1.44,3.33c-.43-1.8-.03-2.84.48-4.78L0,40.48c-.16-1.65,3.83-1.82,3.44-5.82-1.01.42-1.85.93-2.95,1.64.66-4.17,5.65-3.07,4.51-6.73l-2.68,1.29c.79-1.83,3.39-4.41,5.85-2.93.13-.15.36-1.26.19-1.65s-.98-.49-1.78-.75c1.34-.72,2.95-.11,3.75,1.2l.94-.51s3.09,3.02,1.17,5.19l-.91-1.08c-1.69.55-2.93,2.2-3.63,3.88-2.62,6.36,1.31,11.61-1.34,18.33-.09.24-.39.64-.5.77s-.68-.34-.9-.53c1.08-2.33,1.29-5.1.79-7.74-.75-4-2.48-11.87,1.66-14.63l-.95,3.88,2.68-4.11-1.67.28,1.75-2.54c-2.88,1.26-4.4,4.01-4.86,7.16Z"/>
      <path d="M33.01,34.89c.74.23.71-1.6,1.06-1.15l.51.65c.56.72,1,.98,1.94,1.29.53.49.87,2.07,1.23,2.89l1.78,3.99-6.38-1.59c.02-2.1-3.17-.27-2.89-4.54.43.71,1.08,1.64,1.7,1.88l2.81,1.1c-.62-.71-1.19-1.16-1.87-1.66-1.62-1.18-3-2.47-4.58-3.75l-18.5-15.02c-1.31-1.06-2.72-1.77-3.93-3.19l.25,2.73c-1.9-2.32-3.22-4.34-4.73-6.93l7.91,3.31-2.68.17c1.05.64,1.99,1.51,2.93,2.47,1.5,1.53,3.28,2.68,4.99,4.06l17.38,14c1.28,1.03,2.52,1.63,3.64,3.23-.79-4.74-6.53-4.14-5.72-7.22.21.59,1.17,2.02,1.88,1.68,2.64-1.26-1.31-4.92.61-6.6-.26,2.92,3.12,3.58,1.89,5.86l-1.25,2.32Z"/>
      <path d="M30.14,25.09l-.36-2.04-5.33,5.92c.35-1.87,1.72-3.13,2.77-4.49,1.66-2.15,3.04-4.14,4.33-6.64l-1.37.3c.46-1.11,1.22-2.48,2.01-3.37.75.13.78.17.23.19l-.34,1.43c-.07.28,1.15.24,1.34,0l4.27-5.54c.79-1.03,1.7-1.84,2.78-1.96-.98,1.47-4.57,5.04-3.67,6.45.11.17.75.29.88.15l1.59-1.68c-.15,1.84-1.37,2.92-3.31,3.25-1.47.25-3.51,1.27-3.3,3.22.07.69,1.65.34,2.3.04-.78.78-1.87,1.23-3.28,1.62l-1.54,3.17Z"/>
      <path d="M16.46,43.75l-3.93,1.79c-.09.04-.41.75-.49.7-.13-.08.26.11.7.32-2.17,1.47-3.8,3.53-5.27,5.78,0-2.4,1.66-3.96,2.51-5.95.67-1.56.36-3.72,1.91-4.86l-.2,2.51c1.92-1.18,2.62-2.43,3.76-3.98,2.44-3.32,4.87-6.57,7.61-9.78-.05,2.69-2.55,3.48-3.21,5.8,1.29-.68,2.59-1.24,3.72-.96-1.14.33-2.24.66-2.68,1.61-1.37,2.98-2.79-.01-6.07,6.68l1.65.33Z"/>
      <path d="M42.45,6.17l-.8-1.62c1.2-1.33,1.57-2.63,1.79-4.55.66,1.97.67,3.81-.99,6.17Z"/>
      <path d="M5.37,53.73c.94.45-2.68,3.35-4.26,2.74l3.37-2.9c.13-.11.73.09.89.16Z"/>
      <path d="M13.65,26.22v.77c-.02.22-.76.32-.88.14l-1.05-1.71,1.71-1.44,1.09,1.92-.52-.15c-.08-.02-.34-.32-.34-.23v.71Z"/>
    </g>
  </g>
</svg>