<?xml version="1.0" encoding="UTF-8"?>
<svg id="Warstwa_2" data-name="Warstwa 2" xmlns="http://www.w3.org/2000/svg" viewBox="0 0 44.79 46.76">
  <g id="icon-v8-weapon-shield-pixarts-store">
    <g id="icon-v8-weapon-shield-pixarts-store_187">
      <path d="M29.71,17.2c-2.28,1.42-4.04,2.89-5.87,4.64,3.55-4.17,6.13-8.8,7.39-14.26,4.02-3.44,8.59-5.82,13.57-7.57-1,5.1-3.23,9.58-6.31,13.55-3.04,1.04-5.83,2.19-8.77,3.65ZM38.13,7c-2.3,1.8-4.15,3.91-5.72,6.16,2.34-1.84,4.19-3.79,5.72-6.16Z"/>
      <path d="M20.29,36.83l1.18-1.13c.12,1.41-.1,2.41-.89,3.68-8.79-3.82-10.38-4.73-14.29-13.85,1.27-.82,2.23-1.13,3.71-1.32l-1.16,1.47c1.18,2.81,3.88,4.53,7.26,4.3-.48,3.36,1.26,5.93,4.2,6.85ZM15.09,33.99c.07-.77-.05-2.31-.44-2.91-.26-.41-1.5-.37-1.91-.11s-.73.94-.83,1.46l1.79.04.05,1.52c.01.32,1.32.35,1.35,0Z"/>
      <path d="M15.25,27.81c-1.24,1.03-2.76.87-3.41-.39,2.08-1.31,3.14-3.26,3.9-5.54,7.63-2.37,8.38-7.55,13.7-12.58-1.12,6.1-5.8,12.6-11.55,14.79-.74,1.09-1.56,2.82-2.65,3.72Z"/>
      <path d="M18.36,33.79c-1.07-.7-1.2-2.04-.42-3.04,1.01-1.3,3.07-1.8,3.88-3.15l2.92-4.88c2.39-3.99,7.01-6.19,11.86-7.23-4.5,5.26-10.93,6.62-12.49,14.51-2.6.17-4.22,1.81-5.75,3.8Z"/>
      <path d="M20.93,26.51c-.36.6-6.11,5.12-4.06,1.56l1.76-3.05,4.86-2.77-2.56,4.25Z"/>
      <path d="M5.35,45.43c-1.15,1.79-3.35,1.62-4.51.35s-1.15-3.42.26-4.56c.58,2.15,1.86,3.81,4.25,4.21Z"/>
      <path d="M5.1,44.71l-2.54-1.09-.62-2.55c-.04-.18.33-.82.5-.74s.58.31.7.45l2.62,2.69c.12.13.26.62.3.77.06.21-.74.58-.97.47Z"/>
      <path d="M5.14,38.66c.66-.97,1.76-.82,3.03-.72.14-.15.29-.26.2-.3l-.99-.34c-.23-.08-.14-.58-.03-.79s1-.54,1.1-.34l1.41,2.81c-1.65.74-3.03.57-4.71-.33Z"/>
      <path d="M20.98,13.68c-2.53-.96-4.2-2.96-5.55-5.08,2.5.96,4.81,2.65,5.55,5.08Z"/>
      <path d="M37.44,29.28c-2.28-.77-4.47-2.68-5.31-5.05,2.25,1.09,3.99,2.83,5.31,5.05Z"/>
      <path d="M40.23,22.38c-1.62.92-3.91.64-5.8-.58,1.78-1.01,3.44-.24,5.8.58Z"/>
      <path d="M18.86,16.31c-2.05.7-4.02.07-5.53-.91,1.89-.39,3.8-.3,5.53.91Z"/>
      <path d="M30.73,31.92c-1.18-1.32-1.84-3.36-1.09-5.31,1.05,1.58,1.43,3.21,1.09,5.31Z"/>
      <path d="M23.56,11.25c-1.38-1.55-1.54-3.53-1.22-5.57.97,1.72,1.84,3.47,1.22,5.57Z"/>
      <path d="M12.14,36.81c-1.03.42-1.68.1-2.31-.39-.76-.58-1.03-1.37-.42-2.43l2.73,2.82Z"/>
      <path d="M4.16,39.58c.77-.28,4.41,2.58,2.71,2.62-1.01.02-2.52-1.85-2.71-2.62Z"/>
    </g>
  </g>
</svg>