<?xml version="1.0" encoding="UTF-8"?>
<svg id="Warstwa_2" data-name="Warstwa 2" xmlns="http://www.w3.org/2000/svg" viewBox="0 0 46.34 46.39">
  <g id="icon-v8-weapon-shield-pixarts-store">
    <g id="icon-v8-weapon-shield-pixarts-store_33">
      <path d="M4.74,44.3c1.99.69,3.59,1.33,5.06.7,1.67-.71,2.85-2.41,3.04-4.2.61-5.82-5.76-8.99-3.12-14.2-.4.12-1.48.93-1.63,1.47-.16.58.1,1.41.28,2.55-1.72-1.12-4.32-5.57-2.17-7.78.25-.26,1.08-.36,1.35-.22,1.79.95-2.33,2.02-.23,4.47,2.91-2.83,6.61-3.8,9.74-2.36,3.63,1.66,5.54,5.18,4.8,9.1-.41,2.16-2.37,3.85-2.96,5.83-.28.95,1.91,4.18-1.07,5.69-.24.12-1.06-.43-1-.69.63-2.5,1.21.19,1.15-4.34-2.59,2.44-6.1,7.5-11.76,5.69-.8-.26-1.5-.88-1.5-1.72ZM21.08,32.24c-4.17,1.65-5.02-.73-4.28-.56l.63.14c1.04.23,2.3,0,2.96-.71-1.73.01-2.77-.02-4.22-.73.89-1.31,2.29.03,4.47-.47-.99-2.33-1.91-3.42-4.28-4.23.03.94.16,2.38.29,3.15.05.27-1.01.71-1.05.43-.13-.92-.25-2.61-.31-3.63-.91,1.06-.77,2.63-.29,4l1.98,5.73c.17,1.62.13,3.07-.08,4.66,1.91-2.25,3.6-4.86,4.17-7.78ZM14.79,33.56l-1.66.39c-.24.06-.52-.6-.54-.85l2.05-1.12c-.79-2.36-1.57-4.45-.66-6.87-1.48.11-2.62.91-3.34,2.28-1.91,3.6,5.31,8.41,3.13,15.29,2.44-2.43,2.84-6.47,1.03-9.12Z"/>
      <path d="M30.1,16.19l-8.69,8.05-1.18,1.08c-.3.27-1.08-.32-1.41-.73L42.11,2.75c1.38-1.29,2.49-2.23,4.23-2.75-.92,1.82-1.53,2.7-2.99,4.26l-21.34,22.89c-.36.38-1.34-.39-1.23-.61.13-.28.41-.75.74-1.1l8.57-9.24Z"/>
      <path d="M1.43,46.25l-1.24.07c-.36.02-.2-2.81.46-3.51.41-.43,1.73-.1,2.38.14l.05-1.59,1.36,1.63c-1.47.8-.36,2.55-1.24,2.83-.42.14-1.17.3-1.76.42Z"/>
      <path d="M7.01,41.44c-1-3.79-1.38-3.82,1.25-6.12l.73,4.35-1.98,1.78Z"/>
      <path d="M9.5,38.96l-.58-3.77c-.04-.26.37-1.08.6-.98,1.01.45,1.45,1.39,1.74,2.72.12.54-.76,1.41-1.76,2.03Z"/>
      <path d="M6.25,41.67c.05.26-.78,1.08-.97.91-.26-.24-1.01-.95-1.15-1.28-.43-1.03.59-2.29,1.48-3.06l.64,3.44Z"/>
    </g>
  </g>
</svg>