<?xml version="1.0" encoding="UTF-8"?>
<svg id="Warstwa_2" data-name="Warstwa 2" xmlns="http://www.w3.org/2000/svg" viewBox="0 0 46.53 48.21">
  <g id="icon-v8-weapon-shield-pixarts-store">
    <g id="icon-v8-weapon-shield-pixarts-store_29">
      <path d="M29.4,17.26l-13.24,12.64-1-.2c-.26-.05.06-.8.29-1.01L42.65,2.75c1.19-1.14,2.25-1.9,3.88-2.75-.38,1.36-.99,2.11-2.01,3.18l-26.51,27.9c-.22.23-1.12.48-1.09.26l.12-.98,12.37-13.11Z"/>
      <path d="M8.76,30.33l2.79,4.44c-1.6-1.22-2.82-2.72-4.1-4.5,2.75-2.2,6.51-1.23,8.66,1.41,1.76,2.16,2.26,5.18.21,7.53-4.48-2.26-4.04-7.3-7.56-8.88Z"/>
      <path d="M6.72,46.44c-.17.74-.28,1.23-.42,1.61-.16.41-1.54-.04-1.75-.54s.28-1.67.71-1.96c1.97-1.33,4.34,1.35,7.23-1.34,1.34-1.25,1.67-2.92,1.67-5.24,2.38.56.87,5.06-1.11,6.71-1.3,1.08-3.28,1.3-5.08.99l-1.25-.22Z"/>
      <path d="M0,43.58c0-.82,4.1-2.1,4.85-2.17l2.48-.23c-2.1,1.85-3.04,3.01-3.94,5.44-1.35-.59-2.53-1.53-3.38-3.04Z"/>
      <path d="M8.31,40.4l-3.85.31c.29-.61.95-1.56,1.42-1.93s1.54-.16,2.3.04l1.02.26c.22.06-.62,1.29-.89,1.32Z"/>
      <path d="M12.33,37.45c-1.67-.48-2.49-.97-3.74-1.74l1.42-1.32c1.05.92,1.72,1.52,2.33,3.06Z"/>
      <path d="M7.66,31.89l-3.58-.94c-.37.33-1.28-.09-1.2-.43s.44-.71.88-1.11c1.72.21,2.98,1.05,3.89,2.48Z"/>
      <path d="M9.74,38.54l-3.04-.79c.42-.61,1.2-1.47,1.6-1.29l1.77.83c.21.1.56.58.66.79s-.76.52-1,.46Z"/>
      <path d="M22.26,37.89c-1.4,1.15-4.4-.06-4.11-1.26,1.15.21,2.68.42,3.58.4.29,0,.75.67.53.85Z"/>
    </g>
  </g>
</svg>