<?xml version="1.0" encoding="UTF-8"?>
<svg id="Warstwa_2" data-name="Warstwa 2" xmlns="http://www.w3.org/2000/svg" viewBox="0 0 41.95 47.51">
  <g id="icon-v8-weapon-shield-pixarts-store">
    <g id="icon-v8-weapon-shield-pixarts-store_112">
      <path d="M19.75,20.55l-4.86-2.34c-.3-1.37-.99-2.15-1.89-2.14-1.96.02-1.58,1.38-2.2,2.53-1.18,2.16-3.35,3.76-5.39,5.87l2.81-5.78-3.26,5.04c.31-2.74.69-5.4,1.89-7.54.48-.85,1.65-.96,1.24-2.43-.32-1.14-1.26-.71-2.33-1.06-1.93-.64-3.72-1.73-5.62-2.73,2.22-.55,4.1-1.03,6.14-1.2.58-.05,1.7.56,2.17.21,1.04-.78.65-1.48.61-2.6-.07-1.99.26-4.04.62-6.3,1.03,1.79,2.17,3.43,2.79,5.27.27.81.29,1.73.85,2.04,1.29.7,1.91-.46,2.41-1.16,2.37-1.21,4.69-2.08,7.4-3.08l-1.74,2.06,2.62-1.7-5.17,6.85c-1.45-.2-2.5.25-2.7,1.73-.14,1.05.72,1.96,2,2.11l2.9,6.24-2.01-1.56.74,1.67ZM14,11.59c0-1.15-.94-2.09-2.09-2.09s-2.09.94-2.09,2.09.94,2.09,2.09,2.09,2.09-.94,2.09-2.09Z"/>
      <path d="M7.83,43.6c0,2.16-1.75,3.91-3.91,3.91s-3.91-1.75-3.91-3.91,1.75-3.91,3.91-3.91,3.91,1.75,3.91,3.91ZM6.14,43.62c0-1.2-.97-2.17-2.17-2.17s-2.17.97-2.17,2.17.97,2.17,2.17,2.17,2.17-.97,2.17-2.17Z"/>
      <path d="M13.74,34.35c-.47.16-2.2-.19-2.73-.68-.19-.17.05-.87.27-1,.27-.15.92-.12,1.44-.02.04.03.34-.33.25-.41l-.73-.67c.85-1.08,2.63-2.28,2.84-3.63.35-2.35-.14-4.79,2.17-6.53,0,2.8-.37,4.99,1.2,7.34-1.01,1.38-2.65,3.19-3.77,4.1-.19.16-1.14.11-1.11.33l.17,1.17Z"/>
      <path d="M10.86,37.48c-.69.26-2.24-.3-2.79-.86-.06-.5,1.03-1.2,1.52-1.05.69.21,1.15.35,1.44.51s.13,1.29-.17,1.4Z"/>
      <path d="M10.09,38.15c-.35,2.01-3.76.37-3.5.1l.83-.87c.5-.53,2.4.18,2.68.76Z"/>
      <path d="M8.78,39.73l-1.28,1.3-1.85-2.03c1.55.22,1.83.32,3.13.73Z"/>
      <path d="M29.94,42.51c-.45-1.29-.23-2.14-1.3-2.56-1.41-.56-1.48.97-2.33,1.38-2.29,1.08-4.72,1.86-7.19,2.66l4.61-3.98-5.62,3.76,4.9-6.6c1.46.25,2.6-.26,2.85-1.52.26-1.31-.5-2.23-1.99-2.6l-2.22-4.77c-.27-.57-.2-1.43.33-1.75l5.28,2.83c.28,1.33.93,2.08,1.89,2.12,1.92.09,1.51-1.34,2.13-2.47,1.2-2.21,3.29-4.12,5.27-5.88.05,1.98-3.47,5.53-3.71,7.94l4.58-7.79c-.54,2.85-.97,5.59-2.08,7.97-.48.76-1.42,1.47-1.3,2.18.33,1.88,1.58.92,2.66,1.34,1.76.7,3.41,1.58,5.18,2.54-2.05.67-4.03,1.27-5.99,1.26-.81,0-1.8-.39-2.33.09-.76.69-.31,1.65-.27,2.62.09,1.96-.29,3.96-.68,6.19-1-1.52-2.05-3.17-2.68-4.96ZM22.2,27.33l-.34.34,4.36,4.36.34-.34-4.36-4.36ZM32.43,36.01c0-1.18-.96-2.13-2.13-2.13s-2.13.96-2.13,2.13.96,2.13,2.13,2.13,2.13-.96,2.13-2.13Z"/>
      <path d="M34.33,10.22c-.78.07-1.96-.58-2.3-1.42.5-.46,1.54-.62,2.42-.68l-1.17-1.05c.63-.22,1.11-.32,1.83-.4-.88-1.21-1.25-3.03-.59-4.48S36.8-.1,38.48.01c1.69.11,3.11,1.29,3.41,3.18.26,1.59-.36,3.23-1.52,4.08-1.42,1.03-2.93.89-4.84-.02l.59,1.28-1.65-.26.68.87c.2.26-.49,1.05-.83,1.08ZM40.39,3.92c0-1.24-1.01-2.25-2.25-2.25s-2.25,1.01-2.25,2.25,1.01,2.25,2.25,2.25,2.25-1.01,2.25-2.25Z"/>
      <path d="M26.91,19.46c.12,1.66-.46,5.79-1.75,6.35-.9.39.65-4.22-1.56-7.12l3.69-4.3,2.08,1.77-2.47,3.3Z"/>
      <path d="M30.51,13.82s.09.4.13.56-.35.63-.48.54l-.88-.6c.13-.61-.04-.26-.34.52l-1.1-1.14c.63-.79,1.55-1.6,2.31-2.08.12-.46.41-1.27.76-1.54.43-.34,1.61-.05,2.07.22l.84.5c.13.08.11.19,0,.29-.19.17-.79.45-.96.39l-1.67-.6,1.65,1.45-1.3.09c.08.13.35.65.4.92.07.33-.83.54-1.42.48Z"/>
    </g>
  </g>
</svg>