<?xml version="1.0" encoding="UTF-8"?>
<svg id="Warstwa_2" data-name="Warstwa 2" xmlns="http://www.w3.org/2000/svg" viewBox="0 0 41.56 54.47">
  <defs>
    <style>
      .cls-1 {
        fill: #fff;
      }
    </style>
  </defs>
  <g id="icon-v10-loot-pixarts-store">
    <g id="icon-v10-loot-pixarts-store_75">
      <path class="cls-1" d="M34.42,25.06l-2.08-4.64c-7.59-7.07-19.34-6.41-26.49.61-7.19,7.06-7.95,18.64-1.21,26.31,1.7.67,3.16,1.34,4.58,2.32l-2.37.08c6.82,5.96,17.38,6.46,24.77.45,8.54-6.95,9.68-19.55,2.74-27.82l.07,2.68ZM19.48,51.45c-9.12,0-16.52-7.39-16.52-16.52s7.39-16.52,16.52-16.52,16.52,7.39,16.52,16.52-7.39,16.52-16.52,16.52Z"/>
      <path class="cls-1" d="M6.81.27c-.45-.31-1.54-.33-2.35-.18,1.67,4.42,6.34,10.42,11.24,11.63.16-.54.29-1.8-.1-2.07-.61-.43-1.81-1.12-2.41-1.31-1.12-.08-2.12-.44-2.63-1.11l.89-.36c-1.88-2-3.37-4.27-4.63-6.61Z"/>
      <path class="cls-1" d="M23.42,9.62c-.47.23-.46,1.85-.07,2.03,5.17-1.16,9.31-7.07,11.32-11.57-.95-.08-1.81-.07-2.29.06l-4.03,6.1,1.31.17-2.97,1.78c-.78.47-2.2.91-3.27,1.43Z"/>
      <path class="cls-1" d="M17.28,8.89c-.03,1.9.11,3.33.41,5.28l3.6-.03c.17-1.79.9-3.69.27-4.87-.78-1.45-2.97-.86-4.28-.38Z"/>
      <path class="cls-1" d="M39.92,31.75l-.06,5.27c0,.29.19.76.35.95.95,1.1,2.63-6.17-.29-6.22Z"/>
      <path class="cls-1" d="M29.83,23.77c-3.7-3.44-8.96-4.95-14.09-3.59-1.48.39-2.6,1.3-3.41,2.5l-1.59,2.34.19-2.7c-6.34,4.52-8.39,12.49-5.18,19.15,3.15,6.52,10.62,10.29,17.87,8.12,4.5-1.34,3.93-4.76,6.24-7.02l-.89,4.09c7.28-5.41,7.49-16.72.85-22.89ZM29.93,33.14c-.25,2.31-1.55,4.39-3.34,6.12l-7.14,6.89-7.14-6.82c-1.39-1.33-2.53-3.02-3.09-4.88-.79-2.62.06-5.76,2.44-7.12,2.9-1.67,6.19-.07,7.77,2.75,1.55-2.6,4.13-3.92,6.83-3.11,2.46.74,3.98,3.27,3.66,6.17Z"/>
      <path class="cls-1" d="M13.56,28.6c-.6.09-1.59.82-2,1.42-1.27,1.89-.67,4.34.63,5.81-.08-1.83-.23-3.2.55-4.46.63-1.01,1.85-1.37,3.41-1.9-.61-.44-1.83-.99-2.59-.87Z"/>
    </g>
  </g>
</svg>