<?xml version="1.0" encoding="UTF-8"?>
<svg id="Warstwa_2" data-name="Warstwa 2" xmlns="http://www.w3.org/2000/svg" viewBox="0 0 51.95 58.89">
  <defs>
    <style>
      .cls-1 {
        fill: #fff;
      }
    </style>
  </defs>
  <g id="icon-v10-loot-pixarts-store">
    <g id="icon-v10-loot-pixarts-store_264">
      <path class="cls-1" d="M12.86,45.81c7.02,7.12,17.54,7.61,25.23.81,6.21-5.49,7.86-14.74,2.85-21.26-1-1.3-1.68-2.13-2.09-4.36-4.31-.12-6.39,2.52-10.93-.53-3.7-2.49-4.89,2.33-10.26,1.3l-4.93-.94c-.37,1.6-.49,2.98-1.13,3.71-5.49,6.24-4.54,15.38,1.26,21.27ZM40.82,33.2c.73.05,1.32.35,1.53.71.21.36.14,1.74-.23,1.96-.6.36-2.11.1-2.21-.43-.13-.71.24-2.28.9-2.24ZM15.97,46.88c-.56,0-1.35-.59-1.48-1.01-.14-.43.04-1.69.43-1.95.65-.44,2.2.27,2.24,1.11.03.62-.51,1.85-1.19,1.86ZM20.69,43.83c3.25,1.75,6.83,1.67,10.25.02.39-1.52.32-2.61.09-4.99l4.3-.65c4.12-.62-.96,8.05-9.98,7.89-7.61-.13-13.69-8.52-8.94-7.94l4.39.54c-.41,1.49-.57,3.58-.12,5.13ZM28.07,40.57l-4.21.1.66-5.6c-1.21-1.22-1.8-2.86-.47-4.15.88-.85,2.76-1.08,3.75.01,1.06,1.17.7,2.71-.5,4.05l.76,5.58ZM25.89,50.36c-.83,0-1.51-.67-1.51-1.51s.67-1.51,1.51-1.51,1.51.67,1.51,1.51-.67,1.51-1.51,1.51ZM35.88,46.86c-.84,0-1.52-.68-1.52-1.52s.68-1.52,1.52-1.52,1.52.68,1.52,1.52-.68,1.52-1.52,1.52ZM36.25,22.45c.49-.21,1.66.26,1.92.73.32.58-.01,1.47-.84,2-.48.31-1.29-.03-1.78-.71-.38-.52-.09-1.68.71-2.03ZM25.77,21.75c.8,0,1.45.65,1.45,1.45s-.65,1.45-1.45,1.45-1.45-.65-1.45-1.45.65-1.45,1.45-1.45ZM25.56,25.93c1.86,0,4.54-.44,6.16.03,2.06,1.4,3.42,2.96,5.29,5.13l-5.75.07-.03-4.34h-6.41s-4.31-.12-4.31-.12l-.1,4.45-4.52.04c-.27,0-.93-.41-1.13-.58-.2-.17.74-.77,1-.75l3.47.32-.07-3.17-2.95,2.67c3.52-5.54,4.45-3.76,9.36-3.75ZM14.91,22.39c.82,0,1.49.67,1.49,1.49s-.67,1.49-1.49,1.49-1.49-.67-1.49-1.49.67-1.49,1.49-1.49ZM12.38,34.61c0,.84-.68,1.53-1.53,1.53s-1.53-.68-1.53-1.53.68-1.53,1.53-1.53,1.53.68,1.53,1.53Z"/>
      <path class="cls-1" d="M17.25,20.74l.18-8.53c.09-4.18,4.15-7.27,7.93-7.47,3.9-.2,8.25,2.04,8.83,6.62.33,2.64.18,6.5.34,8.87.02.31,1.04.57,1.19.3l.91-1.61c.05.97.27,1.54.86,1.46.81-.1,1.64-.83,1.63-1.62l-.07-6.09c-.09-7.91-6.92-13.53-14.76-12.57-6.1.74-11.09,5.31-11.5,11.56-.18,2.76-.06,5.74-.02,8.45l4.5.63Z"/>
      <polygon class="cls-1" points="23.42 19.12 28.46 19.22 25.86 11.91 23.42 19.12"/>
      <polygon class="cls-1" points="7.08 32.13 0 34.55 7.07 36.81 7.08 32.13"/>
      <polygon class="cls-1" points="44.88 32.17 44.82 36.88 51.95 34.54 44.88 32.17"/>
      <polygon class="cls-1" points="11.22 45.43 8.14 51.53 14.48 48.61 11.22 45.43"/>
      <polygon class="cls-1" points="23.66 52.54 25.92 58.89 28.28 52.44 23.66 52.54"/>
      <polygon class="cls-1" points="40.6 45.23 37.32 48.53 43.37 51.36 40.6 45.23"/>
      <path class="cls-1" d="M40.93,23.44l3.07-5.94c-1.38.45-2.91,1.07-3.89,2.13-.96,1.03-.34,2.98.82,3.81Z"/>
      <path class="cls-1" d="M12.04,20.16c-1.12-1.39-2.76-2.34-4.33-2.63l3.45,5.99c.62-.83,1.4-2.71.88-3.37Z"/>
      <polygon class="cls-1" points="44.08 29.29 48.39 25.15 42.74 25.83 44.08 29.29"/>
      <polygon class="cls-1" points="9.2 25.71 3.75 25.4 7.78 29.37 9.2 25.71"/>
      <polygon class="cls-1" points="31.51 51.56 35.28 55.98 34.96 50.16 31.51 51.56"/>
      <polygon class="cls-1" points="43.92 39.48 42.43 43.15 48.02 43.82 43.92 39.48"/>
      <polygon class="cls-1" points="16.65 55.96 20.31 51.67 16.97 50.29 16.65 55.96"/>
      <polygon class="cls-1" points="3.71 43.81 9.35 43.23 7.88 39.87 3.71 43.81"/>
      <polygon class="cls-1" points="33.12 20.62 32.86 16.88 30.45 20.45 33.12 20.62"/>
      <polygon class="cls-1" points="18.97 20.83 21.47 20.25 18.92 16.92 18.97 20.83"/>
      <path class="cls-1" d="M35.65,39.47l-3.12.1.15,3.53c1.36-.87,2.36-2.02,2.97-3.63Z"/>
      <path class="cls-1" d="M15.97,39.57c.9,1.59,1.79,2.54,3.13,3.77v-4.06s-3.13.28-3.13.28Z"/>
      <path class="cls-1" d="M34.89,29.78l-2.31-2.59c-.03.83-.02,1.82.08,2.48.09.56,1.89.44,2.23.11Z"/>
    </g>
  </g>
</svg>