<?xml version="1.0" encoding="UTF-8"?>
<svg id="Warstwa_2" data-name="Warstwa 2" xmlns="http://www.w3.org/2000/svg" viewBox="0 0 58.2 53.53">
  <defs>
    <style>
      .cls-1 {
        fill: #fff;
      }
    </style>
  </defs>
  <g id="icon-v10-loot-pixarts-store">
    <g id="icon-v10-loot-pixarts-store_12">
      <path class="cls-1" d="M7.73,46.41c.82.88,1.17,1.4,2.41,1.39l-1.55,2.02c-.28.36-.36,1.52-.12,1.88.24.37,1.1.64,1.57.64l5.31-.05c.35,0,.7-.04.93-.08.23-.03.23-1.09.06-1.32-1.65-2.24-3.48-5.75-4.06-8.91l2.77,4.64c.82,1.36,2.29,4.1,4.09,4.23,1.75.12,3.9-.51,5.68-.83,1.09-1.27-3-6.31-3.41-8.81,1.99,1.68,3.33,3.81,4.61,5.92,1.59-2.13,6.04-3.6,3.69-6.7l-3.78-4.98,3.76,2.55c3.19-5.33-9.64-13.84-13.6-16.19l-2.3,1.66-5.99-1.03-2.12,4.62-2.62-.34c-1.14,5.26-.3,10.42.93,15.68l3.74,4.01ZM4.23,28.41l1.29,2c.72-1.69,1.7-3.27,3.39-4.29-.81,2.06-1.98,3.34-2.26,5.41,3.94-5.17,3.79-3.62,9.48-5.16l-6.85-1.23c2.46-.83,4.99-.45,7.46-.09l-.26-1.52,2.01,1.99c1.89,1.32,3.64,2.12,5.33,3.99l-5.2-2.1-1.29,2.91c2.61,2.98,5.02,5.58,7.16,9.2l-8.86-8.02c-1.31.64-2.38,1.42-3.25,2.38l2.83,9.78c-1.79-2.96-3.12-5.82-4.64-9.09-1.06-.36-2.07-.55-3.67-.78l.82,9.87c-1.26-3.25-1.69-6.39-2.5-9.62-.48-1.9-1.3-3.56-.97-5.62Z"/>
      <path class="cls-1" d="M49.81,21.84c-.95-3.39-3.82,1.39-6.22-1.28-2.8,1.85-11.41,6.47-11.43,9.82l3.85-1.15-4.6,3.43.2,9.59,3.16.78c1.69-2.26,3.01-3.95,4.96-5.98l-3.34,6.56,2.55,2.73c1.7-1.4,3.39-.75,5.07.3l4.32-8.56-1.51,5.71c6.48,1.74,3.15,5.77,11.39,3.61-.32-1.95-1.5-3.58-3.21-4.48l-3.45,2.65c.68-1.89,2.58-2.81,3.1-4.58.92-3.16,1.46-6.51,1.33-9.81-.07-1.73-.5-3.31-.72-5.17-.32-2.69-4.26.04-5.44-4.17ZM53.59,29.25l.62-2.4c.82,2.5-.7,9.77-1.85,13.2-.15-2.45.14-4.55.45-7.57l-3.42-.26-4.15,7.98,2.32-8.23-3.22-2-8.53,7.41c1.98-3.13,4.33-5.66,6.92-8.51-.15-.88-.59-2.18-.98-3.21l-3.14.72,5.37-4.42-.48,1.39c1.76-.48,3.44-.9,5.32-.35l-4.91,1.4c3.8.4,5.97,2.24,8.3,4.87-.47-1.93-1.6-3.16-2.92-4.56,2.27.32,3.66,2.32,4.29,4.56Z"/>
      <path class="cls-1" d="M27.84,28.06l.51-9.91,1.71,10.61c2.65-2.65,4.17-4.82,7.77-6.07,2.55-.88-.67-6.47-.26-8.33l3.02,6.41,2.57-2.09c-2.28-6.15-4.53-12.31-8.48-17.4l-2.81,1.38c-.5.24-1.68-.76-2.23-.98-1.26.33-2.66,0-3.44-1.68l-4.07,4.34c-1.12-.05-2.03-.05-2.87.06-2.98,5.31-4.89,10.85-5.71,16.94,1.44-1.23,2.89-1.19,4.24-.79.67-2.35,1.4-4.74,2.84-6.92l-1.38,8.19,8.59,6.23ZM18.01,15.65c.12-2.57.96-4.73,1.45-7.15l.68-3.35.68,1.82c5.19-4.01,6.86-4.8,13.19-1.5l.14-2.25c.52.67.99,1.65,1.22,2.68.18.8-.95,1.96-1.62,2.69.58,3.13,1.58,6.23,1.64,9.35l-3.4-8.36-5.12,1.06-1.38,10.81c-.44-3.44-.49-6.83-.5-10.72-.94-.74-2.41-1.23-3.95-1.67l-3.03,6.57Z"/>
      <path class="cls-1" d="M48.56,46.08c-.89-.59-2.15-.03-2.8.8-2.66,3.39-3.25-1.5-6.82,1.31-2.05-1.06-3.58-3.86-6.25-3.72-1.63.09-2.24,2.59-2.87,3.79l-.57-2.07c-1.62,1.14-2.62,2.75-3.17,4.62l5.48,2.27c1.96.81,3.69.47,5.53-.56,8.97-5.02,8.97,2.3,15.47-2.2-1.23-1.79-2.37-3.15-4-4.24Z"/>
      <path class="cls-1" d="M7.37,48.87c-.05-.21-.21-1.02-.36-1.18l-3.43-3.37c-1.68,1.28-2.77,2.56-3.58,4.5l6.16.75c.35.04,1.29-.42,1.22-.7Z"/>
      <path class="cls-1" d="M44.38,18.01l4.28-9.09c-2.25,1.41-4.03,2.86-5.93,4.57l1.65,4.52Z"/>
      <path class="cls-1" d="M8.47,20.85c1.12.29,2.3.42,3.51.16-1.59-3.4-2.94-5.58-5.41-7.68l1.9,7.53Z"/>
      <path class="cls-1" d="M48.16,18.95l.93-8.55-4.31,8.6c1.26.37,2.33.34,3.38-.05Z"/>
      <polygon class="cls-1" points="13.22 15.33 7.14 11.96 12.15 18.71 13.22 15.33"/>
      <path class="cls-1" d="M51.91,15.27c-1.55.85-2.57,1.88-3.27,3.34.5.52,1.36,1.09,1.98,1.34l1.29-4.68Z"/>
      <path class="cls-1" d="M7.81,20.27c-.72-.95-1.76-1.91-3.1-2.47l1.27,4.74,1.83-2.27Z"/>
      <path class="cls-1" d="M32.51,6.19c-3.37-2.18-6.68-2.33-8.95.73,3.09-1.33,5.65-1.07,8.95-.73Z"/>
    </g>
  </g>
</svg>