<?xml version="1.0" encoding="UTF-8"?>
<svg id="Warstwa_2" data-name="Warstwa 2" xmlns="http://www.w3.org/2000/svg" viewBox="0 0 52.92 54.82">
  <defs>
    <style>
      .cls-1 {
        fill: #fff;
      }
    </style>
  </defs>
  <g id="icon-v10-loot-pixarts-store">
    <g id="icon-v10-loot-pixarts-store_107">
      <path class="cls-1" d="M50.12,1.85c-1.84.14-3.33,2.03-3.57,3.6l3.38.44c1.62,2.89,1.05,6.67-1.54,8.92-.76.45-2.57.22-3.6.06-5.79-.86-11.35-2.22-17.18-2.34l-9.56-.19c-1.67-.03-3.41.26-5.12.36l-.85,5.22c1.24.47,1.81.7,2.83,1.28l-3.27.77c-1,3.5-.28,1.88-1.56,5.59l-2.57,7.43c1.57.58,2.52.98,3.52,2.02l-4.41,1.23c-.4,1.92-.56,3.37-.47,5.39,4.03.85,7.57,1.44,11.57,2.07,1.41.22,2.79.08,4.19.08l16.72-.03c.78,2.19,1.22,4.21,1.44,6.27l-4.17-.44c-.06,2.48,1.71,5.35,3.99,5.04,2.49-.35,4.11-3.95,4.33-6.34l-2.09-1.27,2.15-.53-.24-6-3.15-1.59,3.06-.7,1.04-3.49c1.29-4.33,1.15-7.22,3.28-11.5l-3.11-1.35,4.09-.99,2.65-7.46c1.09-3.07,1.44-5.72.31-8.9-.33-.94-.67-2.8-2.11-2.69ZM23.84,17.14l.04.94c.03.75,5.23-.48,6.52.9l-4.55.74c-1.47.24-3.14-.15-4.24-.49l.64-.63-4.99-.45c2.07-1.1,4.44-1.52,6.57-1.01ZM22.99,22.71c1.93-.06,6.44-.23,7.8.69,1.24.85-4.32,1.6-5.89,1.31l-8.56-1.62c2.4-.5,4.27-.3,6.65-.38ZM20.88,26.9l.6,1.46c3.55-.46,6.68-.46,9.9.54l-9.17.68c-1.14.08-1.78-.42-2.71-.82-1.51-.65-3.3-.55-5.17-1.22l6.56-.65ZM20.22,37.55c-3.42,1.96-1.87-2.02-6.23-.35.63-.98,1.95-1.71,3.32-1.99l1.2,1.71,3.79-.56-2.09,1.2ZM36.95,41.75h-2.94c-1.08.01-2.28.04-2.95-.11l-.89-2.42c-.41-.48-1.16-.99-1.23-1.45-.1-.59.24-1.64.45-2.23l.99-2.74c1.25-.35,1.84-.83,2.76-1.71,5.33.61,3.54,1.27,4.96,2.63,3.02,2.91-.24,4.26-1.15,8.03ZM34.82,24.98c-.25.02-1.14-.14-1.1-.35l.27-1.21,6.46,1.16-5.63.4ZM32.07,19.28c5.42-.35,5.82-1.86,10.78.65-6.5-1.55-9.15,2.68-10.78-.65Z"/>
      <path class="cls-1" d="M31.28,2.45c-2.74.23-5.23.79-8.07.34l3.61-.78L10.97,0c-1.09-.14-2.44,1.41-2.63,2.3l2.96,1.39-4.13.48c-.83,2.41.13,5.79,2.08,7.06l15.5-.35-1.85-1.02c2.49.27,4.64.6,7.05.98l15.59,2.46c-1.46-2.7-1.66-4.68-.93-7.27l-2.26-.49,2.52-1.17,2.75-3.29-16.34,1.37Z"/>
      <path class="cls-1" d="M5.18,52.27l7.56-.3-.57-1.04c1.52.47,2.71.91,4.13,1.1l20.22,2.79-2.07-3.11-2.03-.68,1.94-.79c-.15-1.92.33-3.26,1.46-5.08-4.29.28-5.17-.96-7.85,1.91l-.6-1.77c-4.75-.63-6.29.76-10.34.71l1.41-.9-10.07-1.55-5.26-1.18c-2.45-.55-3.65,3.19-2.84,5.23l2.97,1.06-2.76.73c.77,2.13,2.54,2.95,4.72,2.86Z"/>
      <path class="cls-1" d="M47.71,13.44c2.28-1.56,2.56-4.6,1.05-6.58-.81,1.33-.52,2.36-.21,3.77l-2.56.44c.07.75.85,2.33,1.72,2.38Z"/>
      <path class="cls-1" d="M37.84,45.05c-1.05,1-1.41,1.74-1.95,3.17l2.8.4-.86-3.56Z"/>
      <rect class="cls-1" x="44.97" y="7.54" width="2.74" height="1.66" transform="translate(35.93 54.29) rotate(-87.47)"/>
    </g>
  </g>
</svg>