<?xml version="1.0" encoding="UTF-8"?>
<svg id="Warstwa_2" data-name="Warstwa 2" xmlns="http://www.w3.org/2000/svg" viewBox="0 0 45.92 64.11">
  <defs>
    <style>
      .cls-1 {
        fill: #fff;
      }
    </style>
  </defs>
  <g id="icon-v10-loot-pixarts-store">
    <g id="icon-v10-loot-pixarts-store_285">
      <path class="cls-1" d="M37.8,46.97c.28-.64.91-3.05.2-3.63-1.38-1.13-2.65-1.6-4.01-2.31,1.51-.59,2.7-.94,4.44-1.4l-1.24-4.31c-.94.22-2.31.55-2.51,1.17l-.85,2.56-2.99-.46,2.34-1.16.76-2.14,2.6-1.48c.8-4.85,2.41-1.46,3.91-6.22.39-1.22,1.1-4.38-.84-4.76-3.37-.66-7.07-.22-10.64-.21-1.14,2.58-3.43,3.58-6.11,3.54-2.66-.04-4.92-1.01-5.99-3.64l-11.04.12c-1.84,2.32-.86,6.76,2.01,8.08,3.45,1.6-.32,5.15-.41,8.85l4.18,1.42-3.5,2.08c-.99.59-.46,3.12.14,3.84,2.68-1.6,5.19-3.07,8.2-2.46-1.74,2.08-3.68,4.21-4.08,6.7,1.89,2.41,4.95,3.24,7.91,3.86l2.66-5.9,2.56,5.97c2.86-.7,6.06-1.55,7.9-3.96-.23-2.52-2.38-4.5-4.05-6.77,3.16-.42,5.7.99,8.46,2.62ZM36.52,24.59c.99,0,1.78.8,1.78,1.78s-.8,1.78-1.78,1.78-1.78-.8-1.78-1.78.8-1.78,1.78-1.78ZM9.27,28.2c-.98,0-1.78-.79-1.78-1.78s.79-1.78,1.78-1.78,1.78.79,1.78,1.78-.79,1.78-1.78,1.78ZM25.69,46.63l-5.46.06,1.05-6.24c-1.61-1.47-1.73-3.37-.54-4.7,1.17-1.32,3.3-1.22,4.35-.07,1.36,1.49,1.08,3.33-.55,4.8l1.15,6.16ZM14.97,26.91l-2.39.84c.15-.4.83-1.32,1.3-1.52.62-.26,1.75.23,2.4.7,3.89,2.76,9.38,2.83,13.19,0,.99-.74,2.18-1,3.04-.21l-2.19.56c-4.45,3.8-10.94,3.43-15.35-.36Z"/>
      <path class="cls-1" d="M32.19,21.39l5.31-.02c0-2.77.06-4.97-.08-7.61C36.98,5.53,29.8-.61,21.82.05,13.81.71,7.67,7.65,8.55,15.94l2.13-1.45c-.77,3.65-3.04-.31-2.15,6.9l5.03-.15.16-7.13c.11-4.96,4.25-8.38,8.55-8.72,4.59-.36,9.1,2.65,9.72,7.42.37,2.84.19,5.3.22,8.57Z"/>
      <path class="cls-1" d="M36.26,49.43l-.04,2.38-.98-3.38,3.9,1.32c-1.8-2.43-4.78-4.15-7.85-4.38,2.16,2.51,3.24,4.81,3.31,7.67l2.56,1.68.02-1.54c2.19,2.13,1.72,4.61,1.4,7.46,2.12-1.53,3.48-4.58,2.23-7.26-.92-1.97-2.88-3.33-4.55-3.95Z"/>
      <path class="cls-1" d="M8.97,53.22l-.22,1.41,2.73-1.79c-.39-3.04,1.14-5.17,3.01-7.58-3.28.45-5.91,2.08-7.62,4.36l3.56-1.27-.7,3.12-.33-2.12c-1.92,1.05-3.75,2.26-4.49,4.18-1.03,2.7.42,5.92,2.52,7.22-.72-3.16-.89-5.76,1.54-7.54Z"/>
      <path class="cls-1" d="M20.28,58.17l2.62,5.93,2.7-6.01-2.69-6.92-2.64,7ZM24.07,57.64l-1-1.79-1.53,2.2c.31-1.24.6-1.97,1.2-3.31,1.07,1.07,1.41,1.73,1.33,2.9Z"/>
      <path class="cls-1" d="M9.6,40.96c-1.98-.57-4.01-.24-5.79.54l1.78,1.18c-1.96-.12-3.54,0-4.34.87-1.35,1.45-1.33,2.93-1.16,5.29,1.02-1.42,2.21-2.86,3.37-3.68,2.27,1.86,2.1-2.43,6.14-4.21Z"/>
      <path class="cls-1" d="M43.68,42.94c-.85-.43-1.82-.33-3.34-.19l1.49-1.31c-1.49-.67-3.64-.96-5.67-.44,2.13.7,2.91,2.78,4.22,3.63,2.05,1.34,4.65,1.25,5.18,4.69.76-2.59.46-5.2-1.87-6.38Z"/>
      <path class="cls-1" d="M26.71,58.82c3.56-1.13,5.93-2.32,8.58-4.04-1.07-.99-1.62-1.57-2.1-2.3-2.09,1.62-4.34,2.62-7.25,3.39.16.81.41,1.78.77,2.96Z"/>
      <path class="cls-1" d="M10.72,54.68c2.53,1.85,5.09,3.09,8.43,4.08l.82-3.11c-2.99-.46-5.08-1.41-7.27-3.1l-1.97,2.12Z"/>
      <path class="cls-1" d="M8.05,32.07c-.42-.43-1.5-.96-1.98-1.03l-2.36,9.35c1-.04,2.39-.3,2.89-.83.2-3.46,2.69-6.22,1.45-7.49Z"/>
      <path class="cls-1" d="M42.06,40.45c-.71-3.74-1.4-6.36-2.35-9.53l-1.91,1.33c-.42.29-.1,1.76.05,2.32l1.45,5.35,2.75.53Z"/>
      <path class="cls-1" d="M6.6,45.45c-.74.44-1.72.96-1.9,1.45-.17.49.52,1.48,1.16,2.43.4-.4,1.17-1.34,1.45-1.89.24-.49-.42-1.81-.71-1.99Z"/>
      <path class="cls-1" d="M40.11,49.37l1.1-2.84-2.05-1.07c-.98,1.46-.68,2.85.94,3.9Z"/>
      <path class="cls-1" d="M9.3,25.38c-.56,0-1.01.45-1.01,1.01s.45,1.01,1.01,1.01,1.01-.45,1.01-1.01-.45-1.01-1.01-1.01Z"/>
      <path class="cls-1" d="M36.52,27.37c.56,0,1.02-.46,1.02-1.02s-.46-1.02-1.02-1.02-1.02.46-1.02,1.02.46,1.02,1.02,1.02Z"/>
    </g>
  </g>
</svg>