<?xml version="1.0" encoding="UTF-8"?>
<svg id="Warstwa_2" data-name="Warstwa 2" xmlns="http://www.w3.org/2000/svg" viewBox="0 0 49.64 56.41">
  <defs>
    <style>
      .cls-1 {
        fill: #fff;
      }
    </style>
  </defs>
  <g id="icon-v10-loot-pixarts-store">
    <g id="icon-v10-loot-pixarts-store_74">
      <path class="cls-1" d="M7.98,46.8c2.77-1.69-3.47-2.73-6.02-9.32-.12-.31-.07-1.18.16-1.35,1.17-.83,4.47.42,5.79,1.03,5.77,2.65,10.85,6.25,15.49,10.58,1.1,1.02,5.06,5.58,3.59,6.66-1.57,1.16-7.28-1.58-9.09-2.53-.19-.1-.84-.08-1.04-.04-.19.04-.26.8-.05.92,1.86,1.1,11.33,6.07,12.35,2.22.58-2.21-.48-4.58-1.76-6.32l-3.58-4.9c2.63,1.56,4.06,3.93,5.75,6.13.46-1.78.26-3.61-.83-5.09l-3.33-4.53c1.82,1.02,3.37,2.53,4.68,4.21,1.81-6.35,8.77-12.15,3.7-18.57-3.24-4.1-10.14-7.26-14.79-2.68l-5.24,5.17c-2.21,2.17-4.99,3.35-7.92,4.2,3.97,1.46,7.7,2.52,10.42,5.72l-6.96-3.3c-2.11-1-4.44-1.8-6.76-1.5-.93.12-2.17.97-2.4,1.67-1.1,3.33,5.18,9.48,7.85,11.63ZM13.07,31.97c2.67-1.55,4.56-3.49,6.3-5.92,1.97-2.75,5.62-3.62,8.39-1.88-1.64.17-3.36.22-4.51,1.17l-4.17,3.42c-1.17.96-4.94,4.17-6.01,3.22Z"/>
      <path class="cls-1" d="M46.34,5.85l.64-.16,1.51,2.21c.81-1.51,1.47-3.58.98-5.44-.53-2.03-2.81-2.88-4.67-2.24-1.55.53-2.62,1.48-3.77,2.61-.58.57-1.66,1.34-1.99,2.02l-3.52,7.36c-1.53,3.19-4.33,4.51-3.48,5.35l1.04,1.02-2.64-.13c-1.07-.05-1.86.65-2.23,1.76,2.74.95,4.87,2.75,6.93,5.08.86-.51,1.46-1.98.74-3.15-.66-1.08-1.43-1.88-2.19-2.74,1.24,0,2.18.73,3.06,1.69,3.07-5.29,5.77-6.07,9.99-10.54,1.5-1.59-1.13-4.51-.4-4.69Z"/>
      <path class="cls-1" d="M15.21,42.94c-.63.74-1.34,2.01-2.11,2.06-2.52.15-4.36,2.01-4.03,4.36.33,2.35,2.52,3.58,4.77,2.99,2.22-.58,3.18-2.91,2.28-5.34.3-.72.93-1.83,1.31-2.54-.36-.56-1.62-1.45-2.23-1.53Z"/>
    </g>
  </g>
</svg>