<?xml version="1.0" encoding="UTF-8"?>
<svg id="Warstwa_2" data-name="Warstwa 2" xmlns="http://www.w3.org/2000/svg" viewBox="0 0 52.01 54.62">
  <defs>
    <style>
      .cls-1 {
        fill: #fff;
      }
    </style>
  </defs>
  <g id="icon-v10-loot-pixarts-store">
    <g id="icon-v10-loot-pixarts-store_92">
      <path class="cls-1" d="M11.58.18L3.73,15.35c4.63.16,8.51.59,12.79-.15L11.58.18Z"/>
      <path class="cls-1" d="M27.89,7.29L12.9,0l4.48,13.62c.1.32.52.92.74.84l.94-.33,8.83-6.85Z"/>
      <path class="cls-1" d="M22.01,13.49c-1.3,1.01-2.47,2.09-3.71,3.27l2.3,7.07,7.4-14.98-5.99,4.64Z"/>
      <path class="cls-1" d="M4.5,16.76l14.77,7.43c-.59-2.6-1.26-4.67-2.13-7.14l-12.63-.3Z"/>
      <polygon class="cls-1" points="6.14 37.78 15.18 47.89 19.44 34.8 6.14 37.78"/>
      <polygon class="cls-1" points="5.26 38.7 3 49.5 14.27 48.68 5.26 38.7"/>
      <polygon class="cls-1" points="20.52 35.18 16.39 48.16 26.71 44.43 20.52 35.18"/>
      <polygon class="cls-1" points="10.54 26.73 5.93 36.55 19.04 33.59 10.54 26.73"/>
      <polygon class="cls-1" points="4.86 50.63 15.89 54.62 14.87 49.74 4.86 50.63"/>
      <polygon class="cls-1" points="17.21 54.51 25.45 46.26 16.21 49.54 17.21 54.51"/>
      <polygon class="cls-1" points="2.2 47.12 4.17 37.78 0 36.86 2.2 47.12"/>
      <path class="cls-1" d="M4.62,36.59l3.67-8.15-7.73,7.15c1.36.51,2.67.84,4.05.99Z"/>
      <polygon class="cls-1" points="24.12 31.61 21.13 34.01 26.27 41.4 24.12 31.61"/>
      <polygon class="cls-1" points="20.33 33.08 23.33 30.66 13.01 27.22 20.33 33.08"/>
      <polygon class="cls-1" points="40.57 19.64 32.81 29.92 45.78 31.35 40.57 19.64"/>
      <polygon class="cls-1" points="51.9 21.4 41.72 19.36 46.77 30.89 51.9 21.4"/>
      <polygon class="cls-1" points="32.12 29.01 39.47 19.14 29.47 18.68 32.12 29.01"/>
      <polygon class="cls-1" points="45.43 32.57 32.97 31.11 38.63 39.94 45.43 32.57"/>
      <polygon class="cls-1" points="40.77 13.09 30.78 17.58 40.24 18.01 40.77 13.09"/>
      <polygon class="cls-1" points="41.41 18.13 50.62 19.86 42 13.28 41.41 18.13"/>
      <path class="cls-1" d="M52.01,23.59l-4.47,8.25c1.21.79,2.13,1.32,3.38,1.92l1.09-10.17Z"/>
      <path class="cls-1" d="M28.75,21.58c-.65,3.43-.91,6.08-1.2,9.49l3.63-1.07-2.43-8.42Z"/>
      <polygon class="cls-1" points="46.77 32.9 40.99 39.02 50.21 34.84 46.77 32.9"/>
      <polygon class="cls-1" points="31.56 31.03 28.01 32.36 35.93 38.08 31.56 31.03"/>
    </g>
  </g>
</svg>