<?xml version="1.0" encoding="UTF-8"?>
<svg id="Warstwa_2" data-name="Warstwa 2" xmlns="http://www.w3.org/2000/svg" viewBox="0 0 44.96 55.58">
  <defs>
    <style>
      .cls-1 {
        fill: #fff;
      }
    </style>
  </defs>
  <g id="icon-v10-loot-pixarts-store">
    <g id="icon-v10-loot-pixarts-store_145">
      <path class="cls-1" d="M4.66,15.77l-2.51,28.18c7.26,4.67,24.29,4.74,31.31-.03l-2.68-27.96c-.06-.65.01-1.31-.33-1.45-.27-.11-1.29-.02-1.55.21-3.61,3.36-5.4-.5-6.74,1.65-1.43,2.28-3.97,2.89-6.31,1.69-.84-.43-2.05-.19-2.51.78-2.31,4.86,2.92,9.49-3.2,12.65l-1.03,10.08c-.07.69-1.34,1.4-1.9,1.23-2.81-.83.15-9.09-.65-11.86-2.13-1.88-1.61-7.97-.96-8.98,1.26-1.98.32-4.28-.95-6.19ZM29.49,18.58c-1.28.61-2.78.78-4.34.75,1.01-1.04,2.56-1.9,4.34-.75ZM26.51,22.2c.68.01,1.64.84,1.71,1.65l1.53,16.97c.07.83-.7,1.86-1.4,1.95-.6.08-1.78-.69-1.84-1.42l-1.55-17.46c-.06-.73.96-1.71,1.55-1.7ZM19.72,42.25c0,.99-1.16,1.99-1.83,1.99-.86,0-2.04-.97-2.04-2.03l-.02-17.26c0-.98.93-1.87,1.82-2.02.73-.13,2.01.9,2.02,1.92l.05,17.4ZM15.13,20.12c1.05.18,2.5.31,3.56.36l.71.04c.19.01-.22.68-.46.68l-4.11.02c-.39,0-.08-1.17.29-1.1Z"/>
      <path class="cls-1" d="M1.14,14.71c2.13,2.53-1.94,4.39.05,6.54.18.19.89.44,1.06.26.13-.14.41-.71.42-.9l.38-5.68c.05-.73,2.23-1.06,2.74-.58,1.58,1.48,3.1,6.33.93,9.26.62,1.79-1.42,5.32,1.83,6.06,1.01.23,2.58-.29,2.87-1.76.64-3.23-1.52-6.2.37-9.88.66-1.29,2.29-2.61,3.63-1.99,1.09.51,2.29,1.11,3.34.85,1.64-.42,2.38-2.75,3.58-3.29,1.16-.53,3.46,2.21,5.82-.54,1.26-1.47,3.78,1.14,4.98-1.86.52-1.31.19-2.78-.56-3.91-.69-1.05-2.46-1.41-3.53-1.77-.77-1.37-1.66-2.86-2.93-3.34-1.87-.71-3.49-.11-4.84.79C19.74,1.73,18.06.19,15.95.03c-2.91-.23-5.36,1.08-6.6,3.77-1.89-.79-3.53-.66-5.15.14-1.71.84-1.45,2.82-2.32,4.32-1.19,2.06-2.88,3.9-.74,6.46ZM13.22,4.76c1.03-.45,2.28-.21,2.74.9-1.78-.27-2.99.2-4.24,1.54-.08-.95.62-2.05,1.5-2.45ZM6.16,7.13c.83-.52,2.15-.47,3,.01-1.87.59-2.84,1.2-3.76,2.82-.46-1.01-.13-2.27.76-2.83Z"/>
      <path class="cls-1" d="M35.11,48.03l-2.1,1.85c-.92.81-2.08,1.26-3.31,1.07,1.05-2.12,7.23-3.72,4.51-5.12-9,4.55-23.91,4.71-33.18-.28-.17.95-.18,2.05-.14,2.99l-.77,1.11c-.83,1.19,2.58,3.3,4.48,3.89,9.01,2.81,20.37,3.01,29.01-1.1,1.75-.83,2.32-2.75,1.49-4.39ZM1.74,48.28l5.12,2.68c-1.51.05-6.13,0-5.12-2.68Z"/>
      <path class="cls-1" d="M44.93,35.28c.28-11.13-1.19-9.32-1.74-15.72-.11-1.32-.9-3.66-2.47-3.82-2.7-.28-5.1.08-7.99.3l.31,4.76c1.9-.75,4.16-1.62,5.55-.13,1.79,4.52,2.59,9.96,1.42,14.69-.54,2.2-3.29,2.6-5.2,3.17l.61,5,5.81-2.68c2.1-.97,3.64-3.07,3.71-5.56Z"/>
    </g>
  </g>
</svg>