<?xml version="1.0" encoding="UTF-8"?>
<svg id="Warstwa_2" data-name="Warstwa 2" xmlns="http://www.w3.org/2000/svg" viewBox="0 0 59.86 53.13">
  <defs>
    <style>
      .cls-1 {
        fill: #fff;
      }
    </style>
  </defs>
  <g id="icon-v10-loot-pixarts-store">
    <g id="icon-v10-loot-pixarts-store_247">
      <path class="cls-1" d="M26.4,32.14c-1.01,6.19-2.99-1.41-2.36,9.84,1.39.5,2.19,1.2,3.04,2.28l23.14-5.5c.22-1.75.98-2.6,2.39-3.33l.3-6.02-2.37-2.25c-.61-.58-2.82.34-3.16.95.09,3.89-4.51,9.91-7.55,11.48l-3.57-1.66c-1.92-.9-3.59-2.58-5.25-3.78l-.75-2.85-3.87.84Z"/>
      <path class="cls-1" d="M21.91,18.93c-.44-3.86-3.04-12.7-6.99-13.33,5.54,5.13,4.25,10.6,7.4,17.11l8.13-1.65c.54-.11,1.18-.75,1.46-1.45l-6.76,1.44.73-2.89.65,1.62,6.14-1.11c-.09-3.84-1.2-7.73-3.56-10.99-3.43-4.74-6.91-2.41-12.31-1.89,3.1,2.9,4.4,6.82,5.51,10.84.89-.59,1.93-.83,2.41-.34-1.12.83-1.73,1.43-2.81,2.66ZM24.32,20.14c.17.26-.58.93-.89.86-.31-.06-1.01-.46-.99-.77.02-.32.35-.75.9-1.61l.98,1.51Z"/>
      <path class="cls-1" d="M.98,18.71l16.46,8.63c.47-2.93-.45-4.82-1.42-6.97l-1.86-7.66c-.77-3.17-3.48-7.65-6.9-6.67-2.99.86-3.45,5.36-5.22,8.08-.8,1.23-2.3,2.91-1.06,4.58ZM6.99,8.74l2.5.02c3.99,5.15,3.32,9.25,5.28,15.05-1.14-.97-2.35-2.01-3.74-2.71l-6.21-3.14c-.42-.21-1.31-.32-1.88-.36,2.22-3.09,1.22-5.32,4.05-8.86Z"/>
      <path class="cls-1" d="M48.77,11.85l1.61.08c-.8-3.19-3.71-10.31-8.25-9.69l-5.57.77c6,5.85,3.4,8.7,6.55,13.65l5-1.07c-1.29-1.27.3-3.76.67-3.75Z"/>
      <path class="cls-1" d="M55.06,40.11c2.83-7.43,2.12-2.5,2.69-13.23.04-.74-1.52-2.04-2.03-2.15l-1.22,15.41-32.79,8.13-.4-16.4-2.23,3c-.75,1.69-.27,4.19-.45,6.11-.18,1.92.23,3.13,1.3,4.72,1.15,1.72,2.21,3.63,4.01,4.47l28.69-7.24c.8-.58,2.12-1.98,2.44-2.83Z"/>
      <path class="cls-1" d="M53.94,39.5l1.06-15.33c-2.84.47-5.09.83-7.66,1.89,1.63.48,2.75-.02,4.1-.08.02,1.7,1.21,2.13,2.56,2.49l-.69,7.78c-.62.22-1.73.57-1.93,1.01-.2.44-.18,1.24-.18,2.1l-24.95,6c-.29-.83-.47-1.88-.89-2.04s-1.29-.32-2.15-.49l.04-7.9c2.12-.33,2.42-1.75,2.4-3.34,1.65-.49,3.23-.65,4.75-1.77-3.02.03-5.59.8-8.38,1.65l.47,15.78,31.45-7.75ZM24.2,43.91c.55,0,.99.44.99.99s-.44.99-.99.99-.99-.44-.99-.99.44-.99.99-.99Z"/>
      <path class="cls-1" d="M55.69,10.52c-1.29-4.36-4.03-12.29-10.33-10.17,3.09,1.34,5.13,3.99,6.36,7.21l3.19,8.39,3.22,2.93-3.65-1.43-8.87,1.65,1.38,2.58,11.97-2.66c1.52-4.24-1.56-2.74-3.26-8.49Z"/>
      <path class="cls-1" d="M33.07,22.34c.42-.49,1.86-1.32,2.55-1.11.53.16.91,1.15.98.51.02-.16.06-.78.05-.94-1.72-.69-4.24.76-4.24.78l.12.84-1.44,2.36c.59-.2,1.37-.74,2.09-.89l1.43-.81-1.54-.74Z"/>
      <path class="cls-1" d="M35.95,24.15l-.48,3.32,2.27,1.27c0,1.32.62,2.08,1.58,2.49.63.27,2.31-.47,2.22-1.08l-1.91-1.91,4.04.07-1.59,1.94c.43.14,1.06.29,1.47.32.42.02.93-1.34.78-1.72l-.72-1.82c.55.14,1.37-.44,1.3-.83l-.26-1.47c-.91.21-1.14.93-1.28,2.19-.23-.3-.85-1.28-1.06-1.71l2.39-1.73-2.66-2.42c-1.36,1.16-3.07,1.42-4.02-.49l2.37.64,2.31-1.92c.29-.24.53-1.29.23-1.38-.25-.08-.84-.26-.83-.26l-.69,1.78-.55-2.08-3.22-.17,1.37,1.54-2.09-.95c-.27-.12-.82-.05-1.28.13l2.57,1.66c-1.44-.46-2.89-.89-3.94-.31,1.22.63,1.83.98,2.39,1.57.34.21,1.03.65.83.84l-.91.88-2.27-.68,1.2,1.57-2.32.48c-1.15,1.19-2.14,2.73-2.21,4.55,1.81-1.78,2.62-3.48,4.99-4.29ZM40,26.31c-.1.15-.32.5-.49.44l-.84-.3c-.8-.28-1.75-.52-1.72-1.64.51-.32,3.46.89,3.04,1.5Z"/>
      <path class="cls-1" d="M21.8,23.21c-3.66-5.65-2.07-14.57-9.12-17.84-.6-.28-2.11-.08-2.78.06,4.47,3.41,5.14,7.05,6.15,12.23,1.19,6.06,1.85,3.71,2.61,9.88l3.14-4.33Z"/>
      <path class="cls-1" d="M29.93,2.61l-2.44.68c2.83,1.47,5.09,4,6.05,7.23l1.89,6.32,4.54-.86-1.23-5.31c-.72-3.09-2.52-6.05-5.55-7.44-.76-.35-2.5-.84-3.27-.63ZM36.79,11.76c.59.2,1.21.59,1.49.9.27.31-.03,1.71-.42,1.92-.79.42-1.82-.26-1.98-.85-.17-.59.33-2.17.92-1.96ZM34.74,6.92c.37-.26,1.4.36,1.63.73.28.44-.09,1.84-.62,1.95-1.78.37-1.76-2.16-1.02-2.68ZM33.17,5.37c-.32.21-1.22.16-1.55-.03-.33-.19-.3-1.15-.21-1.45.82-.15,1.62-.29.24-.04.22.68.53,1.2.73,1.12l1.16-.5c.05.08-.11.73-.37.9Z"/>
      <path class="cls-1" d="M6.91,26.06l-2.73-1.31c-.37,1.56,6.22,2.96,7,4.01l1.07,4.28c.49,1.96-.03,4.48-1.65,5.59-1.95,1.33-3.95.06-5.55-1.29.8,2.55,3.51,2.51,4.77,4.6-1.78-.97-3.22-1.92-4.8-3-.14.12.13,1.19.5,1.41l9.19,5.64-.31-1.27c-.03-.14.48-.68.48-.91l-.09-11.65c-1.59-1.08-2.58-1.75-3.38-2.89l3.71,1.85c-2.4-2.39-5.27-3.65-8.21-5.05Z"/>
      <path class="cls-1" d="M17.63,34.09c.24-1.89.24-3.63-.04-5.55L.63,19.74l.51,5.39,1.42-2.32,10.83,5.74c.39.2,1.47-.46,1.37-.47.37.95.66,1.61,1.04,2.37l1.82,3.64Z"/>
      <path class="cls-1" d="M37.3,37.31l.8-1.92.23,2.19c.05.48,1.15,1.1,1.64,1.19,1.13-1.04,2.21-2.07,2.93-3.42-.86.39-1.32.83-1.68,1.22-6.72-3.81-2.93-6.73-6.34-7.94l-.14-3.38c-1.91,1.32-4.63,6.96-1.79,9.08l-.44-3.22c-.1-.75,1.07-1.86,1.81-1.35-.08,2.46-1.59,3.98,1.32,6.82-.38-1.68-.74-3.01-.18-4.31.54,1.86,1.08,3.48,1.84,5.05Z"/>
      <path class="cls-1" d="M20.59,48.38l-1.7-2.83-1.02,4.11-.48-4.03c-.95,4.04-2.49,2.55-3.23,4.98,2.72,3.69,5.33,2.83,9.28.74-1.19-1.11-2.24-1.96-2.84-2.96Z"/>
      <path class="cls-1" d="M51.32,9.07c-1.19-3.53-3.64-8.37-8.18-7.62,5.12.84,7.09,7.1,8.44,11.44l-2.9-.23c.01.23.26.77.14.93l-.6.82c.66.15,1.11.24,1.39.44.23.17.11,1.3-.32,1.39l-5.37,1.19c-.08.22.81.72,1.18.66l8.73-1.58-2.51-7.45Z"/>
      <path class="cls-1" d="M21.21,30.9l1.97-2.46-.21,1.74,6.75-1.49c.22-.74.35-1.67.36-2.41l-11.61,2.44.21,5.41,2.53-3.23Z"/>
      <polygon class="cls-1" points="30.1 25.19 31.13 21.93 22.77 23.78 19.45 27.34 30.1 25.19"/>
      <path class="cls-1" d="M17.7,36.08c-.2-1.25-1.36-2.72-2.02-3.85l.17,14.86c2.53-3.06,2.46-7.08,1.84-11Z"/>
      <path class="cls-1" d="M1.85,25.87l.8,10.37c.1,1.29.87,2.75,1.75,3.84l-.92-16.35-1.62,2.14Z"/>
      <path class="cls-1" d="M14.84,48.09c.13-.35-.26-1.21-.61-1.42l-10.05-6.13c.57,1.4,1.23,2.37,2.02,3.42l7.07,4.54c.44.28,1.41.05,1.58-.4Z"/>
      <path class="cls-1" d="M53.54,44.03l6.32-1.37-1.92-6.02c-1.5,3.03-2.57,4.81-4.39,7.4Z"/>
      <path class="cls-1" d="M1.77,36.79l-1.77,5.1,2.83,2.09c.39.29,1.9-.11,2.01-.49l-1.39-1.79-1.68-4.92Z"/>
      <path class="cls-1" d="M7.11,37.7c.53.39,2.15.53,2.73.24,2.07-1.02,1.83-4.39,1.02-6.32-.11-.25-1.09.27-1.07.48.93,1.33,1.25,3.53-.32,4.71-.91.69-2.35.15-2.94-.86-1.06-1.83-.38-3.65.24-5.8-2.46,1.92-2.15,5.7.34,7.55Z"/>
      <path class="cls-1" d="M47.8,24.63l6.81-1.4c.02-.4-.93-1.88-1.52-1.76l-6.07,1.23c-.18.5.34,2.01.77,1.93Z"/>
      <path class="cls-1" d="M25.17,3.73c5.55,1.55,7.67,7.7,8.6,13.26.17.06.77.21.82-.02.38-1.78-3.32-14.27-9.42-13.23Z"/>
      <polygon class="cls-1" points="58.82 20.13 54.39 21.27 58.69 26.14 58.82 20.13"/>
      <path class="cls-1" d="M38.91,9.04l1.95,7.09c.04.14.75.39.93.48.13.07.08-.41.02-.54l-.31-.73c-.7-4.16-2.84-11.9-7.8-12.9,2.26,1.71,4.36,3.52,5.2,6.59Z"/>
      <path class="cls-1" d="M8.32,36.28c.49.12,1.3-.53,1.41-.95.09-.35.12-1.5-.18-1.66-.61-.32-1.93-.92-2.57-1.19-.77,1.72.16,3.51,1.34,3.8Z"/>
      <path class="cls-1" d="M8.05,28.23c-.51.7-.83,2.52-.39,3.21.38.59,1.81.15,2.06-.36.34-.68.76-1.78.41-2.15-.35-.37-1.53-.77-2.08-.7Z"/>
      <path class="cls-1" d="M42.39,31.36l-1.44.3c-.52.11-1.56,1.17-1.2,1.55.82.86,2.36.7,3.23-.26.28-.3-.21-1.67-.59-1.59Z"/>
      <path class="cls-1" d="M4.7,26.52l.31,4.72c.38-.73.54-1.38.66-2.1l.13-.76c.02-.13.47.07.47.2l.02.77c.2.11,1.08-1.2.78-1.54-.5-.57-1.58-1.08-2.37-1.29Z"/>
      <path class="cls-1" d="M44.03,21.93l1.31,1.22c-.08,1.41-.12,2.8,1.42,3.66.3-3.08-1.76-2.42-1.39-6.78l-1.34,1.91Z"/>
      <path class="cls-1" d="M45.4,31.17c.96-1.15,1.41-2.67.11-3.99l-.11,3.99Z"/>
      <path class="cls-1" d="M44.72,33.88c.24-1.44.33-2.52.29-3.52-.9,1.3-1.55,2.48-.29,3.52Z"/>
      <path class="cls-1" d="M12.91,20.78c-.43-4.06-1.45-7.05-2.98-10.31l-1.31-.83c-1.14-.72-3.29,5.65-3.01,7.35l7.3,3.79Z"/>
    </g>
  </g>
</svg>