<?xml version="1.0" encoding="UTF-8"?>
<svg id="Warstwa_2" data-name="Warstwa 2" xmlns="http://www.w3.org/2000/svg" viewBox="0 0 43.76 56.36">
  <defs>
    <style>
      .cls-1 {
        fill: #fff;
      }
    </style>
  </defs>
  <g id="icon-v10-loot-pixarts-store">
    <g id="icon-v10-loot-pixarts-store_193">
      <path class="cls-1" d="M43.07,45.74c1.37-5.46.66-10.83-1.88-15.91-1.03-2.07-4.81-8.2-6.29-9.06-.19-.11-.56.67-.28.95,3.35,3.36,6.35,9.11,6.22,14.18-.05,1.93-.74,2.95-2.39,3.32-1.3.29-3.14-.45-3.29-2.13-.32-3.58-1.03-6.95-3.33-9.81.37,4.83.47,9.39-1.1,13.77-.64,1.78-3.03,1.55-4.13.86-1.73-1.08-1.71-2.58-1.13-4.45,1.35-4.32,1.18-9.22-.16-13.51l-8.91-.35c-.99,5.14-3.96,8.09-4.79,12.15.91.98,1.55,1.79.81,2.67l-1.44-.87c-.53,1.36-.9,3.15-.97,4.55l2.4.74-2.52,1.31c.03,1.13.37,3.16.74,4.24.77,0,1.92.11,2.06.48-.3.63-.91.98-1.57,1.35.9,1.69,1.98,4.24,4.08,5,3.98,1.45,8.46,1.42,12.54.4,4.25-1.06,7.08-4.13,9.1-7.76-.25,1.95-.89,3.58-1.67,5.48,3.95-1.07,6.92-3.71,7.9-7.62Z"/>
      <path class="cls-1" d="M5.62,5.05c2.65.79,5.63-.58,9.1-.14l-1.24,2.95c5.15-.61,8.79-3.86,14.37-2.77.5.1,1.43.43,1.58.82.15.4.25,1.14.37,1.95,1.64-.15,3.3-.56,4.9-1.5-.41-.78-.93-1.32-1.69-2.08.96-.02,2.62.29,3.58,1.04,2.84,2.21-6.36,5.7-10.22,3.77l1.31-2.35c-6.51.08-7.48,4.24-15.07,2.79l1.53,2.03c1.34,1.78,2.21,3.48,3.01,5.75,11.74,1.95,3.26-3.39,14.4-1.74,3.31-.35,6.85-7.4,7.81-10.57-1.71-1.32-3.64-1.93-5.66-1.9l-5.7.07,1.59-2.49c-3.76-.89-7.79-1.01-11.45.28l.14,2.42-5.92-.06c-.4,0-1.06-.7-1.3-1.12-1.85.42-3.94,1.16-5.45,2.85Z"/>
      <path class="cls-1" d="M2.06,48.45c2.05,3.24,5.63,4.74,9.22,5.85l-2.48-4.47-1.36-.79c-.26-.15.65-.76.94-1.03l-.36-4.25c-.57-.23-1.74-.79-1.56-1.29.14-.41,1.28-.61,1.63-.68l1.18-5.29-1.03-1.63,1.99-.25,1.7-4.19c.98-2.4,1.82-4.84,2.46-7.32l-5.33-1.93c-2.38,3.86-4.87,7.59-6.97,11.64-2.56,4.92-3.03,10.88-.04,15.6Z"/>
      <path class="cls-1" d="M8.02,10.82c3.31,4.27,1.92,4.8,6.84,5.86-.78-4.74-5.85-7.11-3.04-9.92l-6.86-.23c1.04,1.6,1.97,2.87,3.06,4.29Z"/>
      <path class="cls-1" d="M29.33,16.85c-.08,2.23-.69,4.01-1.87,6.21,1.79.1,3.81-1.31,4.03-3.41.17-1.63-.76-2.86-2.15-2.8Z"/>
      <path class="cls-1" d="M15.19,18.85c.3.96.67,2.07.99,2.58.99.33,2.29.5,3.44.62l-1.02-2.76-3.4-.44Z"/>
      <path class="cls-1" d="M28.15,29.81c.49-.17,1.68-.83,2.01-1.39l-.92-4.16c-.72.08-1.59.19-1.8.5-.18.26.08.99.19,1.41l1.51-.9c-.75,1.87-1.66,2.48-.99,4.54Z"/>
      <path class="cls-1" d="M21.07,21.85c.91.32,2.37.21,3.39.05-1.84-2.49-1.5-2.94-4.86-2.42.22.67.83,2.15,1.47,2.37Z"/>
      <path class="cls-1" d="M11.52,17.63c-.1.68.02,2.45.62,2.75.89.46,2.19.8,2.99.99l-1.1-2.78c-.25-.62-1.97-.87-2.51-.97Z"/>
      <path class="cls-1" d="M30.22,29.63c-2.25,1.18-2.38,1.56-2.1,3.92l2.23-.75-.13-3.17Z"/>
      <path class="cls-1" d="M30.24,33.67c-1.91.53-2.95,1.68-2.62,3.86l2.42-.79.19-3.07Z"/>
      <path class="cls-1" d="M36.74,34.49l2.02-1.57-.9-2.92c-1.69,1.18-1.95,2.68-1.12,4.5Z"/>
      <path class="cls-1" d="M35.83,30.76c.62-.53,1.48-1.37,1.66-1.85l-1.42-2.66c-1.1,1.29-1.53,2.91-.24,4.51Z"/>
      <path class="cls-1" d="M33.76,23.51c-1.26,1.33-.92,2.39.48,3.96.44-.33,1.43-1.47,1.22-1.94-.37-.83-1.18-1.65-1.7-2.02Z"/>
      <path class="cls-1" d="M28.49,40.75c1.1-.04,1.44-3.01,1.07-2.92l-1.04.25c-.64.16-1.71.78-1.69,1.34.03.7,1.04,1.35,1.66,1.33Z"/>
      <path class="cls-1" d="M37.19,37.37c.37.12,1.11.06,1.51-.07.29-.1.53-.99.47-1.38l-.3-2.1c-1.66,1.06-2.75,3.21-1.69,3.55Z"/>
      <path class="cls-1" d="M9.15,16.43c-.25.25-.64,1.1-.55,1.44.22.83,1.14,1.61,1.91,1.96l.16-2.7c.02-.41-1.22-.99-1.52-.7Z"/>
      <path class="cls-1" d="M26.39,21.58c.56-.2.2-1.89-.32-2.05-.59-.17-1.38-.26-2.12-.25.25,1.05,1.12,2.77,2.44,2.3Z"/>
      <path class="cls-1" d="M35.22,16.93c-.18-.3-1.16-.53-1.47-.37l-1.05.54c-.21.11.38.74.67,1.1.26.33,1.41.64,1.64.29.24-.38.41-1.2.2-1.56Z"/>
      <path class="cls-1" d="M27.52,17.16c-.42-.33-1.61.15-1.92.53l2.28,1.97c.35-.99.22-2.04-.36-2.5Z"/>
      <path class="cls-1" d="M32.79,23.64c.4-.52.38-1.08-.05-1.65-.21-.28-.71-.09-1.22.34-.55.46-.72,1.06-.36,1.48.61.72.84.85,1.64-.17Z"/>
    </g>
  </g>
</svg>