<?xml version="1.0" encoding="UTF-8"?>
<svg id="Warstwa_2" data-name="Warstwa 2" xmlns="http://www.w3.org/2000/svg" viewBox="0 0 46.6 60.01">
  <defs>
    <style>
      .cls-1 {
        fill: #fff;
      }
    </style>
  </defs>
  <g id="icon-v10-loot-pixarts-store">
    <g id="icon-v10-loot-pixarts-store_72">
      <path class="cls-1" d="M23.92,48.81c-.53-.1-1.43-.17-2.17-.06-3.18.46-5.91-.38-8.93-1.7l-3.16,2.25c2.12.97,2.06,2.01,2.33,4.13l2.39-1.83c3.71,1.05,7.44,1.15,11.27.01l2.52,1.76.62-2.93,1.79-1.3-3.06-2.03c-1.15.33-2.65,1.12-3.6,1.7Z"/>
      <path class="cls-1" d="M1.51,26.25l4.72-.05c1.36-2.27,2.74-3.93,4.63-5.56l-1.03-.66c1.11-.26,2.16-.35,2.92-.61l4.94-1.65,1.32-3.55-4.74.72-2.26-1.66-.53,2.93c-3.65,1.73-6.44,4.6-8.33,8.24l-3,.43c-.07.2.81,1.42,1.35,1.42Z"/>
      <path class="cls-1" d="M28.72,16.14l-.56-2.95-2.53,1.76-4.56-.78,1.23,3.59c2.53.57,4.65,1.34,6.79,2.64l2.86-.34-1.13,1.76,3.13,4.29,4.72.15c.54.02,1.28-1.01,1.47-1.44l-2.96-.28c-2.04-3.58-4.75-6.5-8.47-8.4Z"/>
      <path class="cls-1" d="M38.55,27.93l-3.18,2.46c1.2,5.22-1.18,6.26.49,9.13l-1.28.03-3.46,4.79c.14,1.17.56,2.62,1.11,3.73,2.1-1.82,3.49-3.65,4.85-5.81l3.06-.7-1.74-2.52c1.04-3.81,1.3-7.34.15-11.11Z"/>
      <path class="cls-1" d="M6.3,40.58l-2.46.04,1.64-1.85c-1.12-2.86-1.16-5.56-.65-8.46l-3.15-2.36c-1.07,3.78-.87,7.35.08,11.08l-1.76,2.61,3,.44c1.47,2.27,2.93,4.25,5,5.9.42-1.1,1.31-3.07.8-3.79l-2.5-3.59Z"/>
      <path class="cls-1" d="M19.21,27.51l-.64,1.99,12.42.04-4.12,3.05c.09.63.37,1.34.83,1.91l9.15-6.9-17.66-.09Z"/>
      <path class="cls-1" d="M23.36,35.26l-9.96,7.12,1.23-4.45c.14-.52-1.12-1.39-1.67-1.29l-3.32,11.02,14.28-10.33c-.15-.75-.36-1.5-.56-2.08Z"/>
      <path class="cls-1" d="M14.55,31.86c.34.5.9.96,1.53,1.38l3.96-11.43,1.69,4.48c.47.01,1.39-.05,2.01-.13l-3.7-11.05-5.49,16.75Z"/>
      <path class="cls-1" d="M19.04,36.81l-9.63-7.1,4.48-.29c.36-.31.72-1.34.8-1.85l-11.17.04,14,10.6,1.52-1.41Z"/>
      <path class="cls-1" d="M23.09,30.85l3.64,11.44-3.96-2.55c-.42-.2-1.48.83-1.45,1.2l9.17,6.51-5.25-16.58-2.15-.02Z"/>
      <path class="cls-1" d="M29.75.48c-1.51,2.65-2.78,5.18-4.87,7.22-.98.96-2,1.56-1.32,3.34,2.29-.93,4.3-2.33,5.74-4.35L33.93.13c-1.45-.23-3.15-.17-4.18.35Z"/>
      <path class="cls-1" d="M16.55,10.96c.65-1.43-.19-2.35-1.27-3.37-2.21-2.08-3.51-4.57-4.77-7.26C9.05.1,7.94.02,6.31.06l2.83,4.23c1.89,2.82,4.08,5.39,7.41,6.67Z"/>
      <path class="cls-1" d="M22.11,7.79c-1.4-.64-2.83-.48-4.32-.05l.56,5.03h3.44s.33-4.99.33-4.99Z"/>
      <polygon class="cls-1" points="20.13 60.01 22.6 53.76 17.53 53.68 20.13 60.01"/>
      <polygon class="cls-1" points="3.87 20.6 7.27 17.16 1.23 14.4 3.87 20.6"/>
      <polygon class="cls-1" points="1.27 52.02 7.47 49.45 3.94 45.96 1.27 52.02"/>
      <polygon class="cls-1" points="40.55 35.82 46.6 33.25 40.41 30.77 40.55 35.82"/>
      <polygon class="cls-1" points="38.9 14.41 32.91 17.15 36.34 20.54 38.9 14.41"/>
      <polygon class="cls-1" points="32.89 49.42 38.86 51.98 36.33 46.01 32.89 49.42"/>
    </g>
  </g>
</svg>