<?xml version="1.0" encoding="UTF-8"?>
<svg id="Warstwa_2" data-name="Warstwa 2" xmlns="http://www.w3.org/2000/svg" viewBox="0 0 18.69 61.08">
  <defs>
    <style>
      .cls-1 {
        fill: #fff;
      }
    </style>
  </defs>
  <g id="icon-v10-loot-pixarts-store">
    <g id="icon-v10-loot-pixarts-store_294">
      <path class="cls-1" d="M1.81,6.33c.69,1.02.18,1.88-.2,3.03-.37,1.13-.4,2.27-1.24,3.25.05.46.63,1.49,1.05,1.79.42.3,1.52.08,2.29-.06l2.41,3.56c4.62,1.08,3.96-1.86,5.97-3.71,1.36.63,1.95.47,2.65-.47.65-.86,0-1.47-.33-2.48l-1.11-3.52.54-1.66c-.02,1.43.37,2.18,1.09,3.59.8-1.83.96-4.15-.24-6.06C13.2,1.19,10.31,0,7.67,0,5.06,0,2.36,1.22.86,3.54c-1.25,1.94-1,4.29-.14,6.58l1.09-3.79ZM10.88,8.96c.52-.23,1.7.05,2.1.42.42.39.4,1.58.11,2.5-.37,1.15-2.08.83-3.05.37-.69-.33-1.26-1.35-1.49-2.28l2.33-1.02ZM7.76,11.58c.89.71,1.35,2.32.98,3.29-.09.24-.81-.38-1.07-.77l-1,.91c-.18-1.36.22-2.4,1.09-3.43ZM2.59,9.34c.31-.36,1.34-.57,1.78-.39l2.41.99c.08,1.64-.95,2.57-2.43,2.65-.37.02-1.12-.01-1.41-.09-.3-.08-1.26-2.11-.35-3.16Z"/>
      <path class="cls-1" d="M12.2,49.33c-1.94-.05-.55-1.45-2.11-1.71-.25-.04-.49.67-.49.97l.03,7.98c0,.3.27.79.46.89.98.52.28-1.93,2.09-1.76.43.04.73.8,1.01,1.61l3.68.23c.27.13.89.9,1.04.67l.67-.96c.15-.22.12-1.09.01-1.33-.1-.23-2.55-.02-2.12-.84l.62-1.18c.19-.37-.73-.77-1.18-.77-1.65-.01-.26,2.55-1.31,2.48-.32-.02-.97-.37-.98-.65-.03-.49.16-1.46-.14-1.49l-1.51-.15c-.33-.03-1.12.03-1.13-.22l-.02-.96c0-.25.85-.42,1.1-.44l1.5-.12c.29-.02.22-.76.23-1.29,0-.31.59-1.02.87-.88,1.16.59-.15,2.4,1.38,2.49.59.03,1.46-.46,1.25-.86-.31-.57-.82-1.42-.5-1.5l1.65-.39c.74-.18.24-2.25-.53-2.46-.3.27-1.1.91-1.58.91l-3.07-.03c-.02,1.09-.09,1.77-.93,1.74Z"/>
      <path class="cls-1" d="M6.44,43.73c1.98-1.68,2.47,1.23,3.84-.14,1.04-1.05-.92-1.2-1.07-3.64l-.26-4.16c-.13-2.12.03-4.59.25-6.51.06-.51,1.45-1.6.61-2.15l-2.01.61-2.34-.85.63,2.35c.88,3.29.5,6.78.25,10.29-.14,1.9-2.12,2.71-1.22,4.03.19.28,1.02.44,1.32.19Z"/>
      <path class="cls-1" d="M9.11,47.02c-.95-.16-2.02-.17-2.79.05l-.09,10.68c-.01,1.45.21,2.74,1.84,3.33l1.33-1.44c.31-.33-.25-1.52-.25-1.98l-.05-10.64Z"/>
      <path class="cls-1" d="M12.61,19.4l-.09-3.87-1.75,4.01-.32-1.5-.26,1.49-.75-.95-.34,1.33-.47-1.06c-.04-.1-.42.17-.46.27l-.23.7c-.04.11-.23-.09-.28-.2l-.38-.98-.77,1.19-.39-1c-.04-.11-.12.08-.23.19l-.53.52c-.11.11-.18-.57-.26-.71-.08-.13-.45-.12-.79-.16l-1.42-3.7-.06,2.78c-.03,1.37.46,2.02,1.41,2.92,1.06.99,2.02,2.04,3.41,2.01,1.43-.04,2.39-.73,3.37-1.7l1.58-1.57Z"/>
      <path class="cls-1" d="M10.09,45.34l-.79-.61c-1.1-.84-1.89-.87-3.09-.17-.37.21-.96.69-.83.98.11.23.58.79.83.79h3.07c.29,0,1.03-.82.81-.99Z"/>
      <path class="cls-1" d="M10.27,23.26c-1.24-.84-1.7,1.03-4.17-.16-.25-.12-1.22.2-1.1.43.61,1.22,2.82,2.21,4.82.77.25-.18.68-.88.44-1.04Z"/>
      <path class="cls-1" d="M6.32,25.22c-.21-.1-.96-.09-1.02.12-.04.16-.05.47.09.57l.64.45c1.35.94,2.09.95,3.62-.11.27-.19.68-.67.52-.87-.84-1.09-1.45,1.02-3.86-.16Z"/>
    </g>
  </g>
</svg>