<?xml version="1.0" encoding="UTF-8"?>
<svg id="Warstwa_2" data-name="Warstwa 2" xmlns="http://www.w3.org/2000/svg" viewBox="0 0 55.81 58.86">
  <defs>
    <style>
      .cls-1 {
        fill: #fff;
      }
    </style>
  </defs>
  <g id="icon-v10-loot-pixarts-store">
    <g id="icon-v10-loot-pixarts-store_298">
      <path class="cls-1" d="M38.39,6.48c-.44,1.26-.76,3.23-.55,4.3,1.88,1.57,3.37,3.07,4.88,4.77l2.7,3.03c1.44-.15,3.44-1.22,4.68-1.47,1.71-.34,4.11-.13,5.02-2.13,1.02-2.27.89-5.06-.17-7.34-1.49-.08-3.04.03-4.13-.18l-5.72-1.1c.79-.89,2.15-.91,3.62-1.05.92-.3,1.2-3.82.17-4.39-5.46-3.03-11.02,2.13-9.78,3.62l1,1.19,3.05,3.99c-1.83.07-2.84-1.38-4.76-3.26Z"/>
      <path class="cls-1" d="M9.25,51.94l13.16-11.36c2.72-2.35,4.63-6.01,3.86-9.42-2.79-1.19-3.71,5.45-3.81,5.75-.81,2.44-5.02,7.85-8.04,8.35,2.51-2.72,5.65-5.31,6.99-8.88l2.17-5.76c-1.49-2.79-9.25,8.47-10.26,9.86-4.44,6.13-9.17,11.5-13.32,18.38,3.74-1.57,6.32-4.39,9.25-6.92Z"/>
      <path class="cls-1" d="M37.09,12.87c2.02,3.65,2.67,6.89,2.75,10.83,4.09.6,1.18-11.76-2.75-10.83Z"/>
      <path class="cls-1" d="M27.33,23.98l3.12,8.11,1.81-1.05c-.83-3.17-1.82-5.68-3.67-8.58-.48.3-1.22,1.12-1.25,1.52Z"/>
      <path class="cls-1" d="M30.2,20.18c-2.84,1.69,9.47,5.11,8.89,3.18-.71-2.36-1.21-.84-7.58-3.09-.64-.23-1.03-.25-1.31-.09Z"/>
      <path class="cls-1" d="M31.6,18.63c2.15,1.29,4.46,2.12,6.93,1.71-1.65-1.5-6.12-4.15-6.93-1.71Z"/>
      <path class="cls-1" d="M35.31,26.82c1.4.28,2.89-.16,3.37-1.38l-7.49-1.4c.52,1.73,2.23,2.4,4.11,2.78Z"/>
      <polygon class="cls-1" points="34.02 15.88 37.92 17.85 35.99 13.63 34.02 15.88"/>
      <polygon class="cls-1" points="23.98 28.5 27.91 29.74 26.08 25.97 23.98 28.5"/>
      <path class="cls-1" d="M27.28,35.3c1.63-.93,2.29-1.73,1.89-2.5-.4-.75-1.08-1.34-1.78-1.45l-.1,3.95Z"/>
    </g>
  </g>
</svg>