<?xml version="1.0" encoding="UTF-8"?>
<svg id="Warstwa_2" data-name="Warstwa 2" xmlns="http://www.w3.org/2000/svg" viewBox="0 0 57.79 61.83">
  <defs>
    <style>
      .cls-1 {
        fill: #fff;
      }
    </style>
  </defs>
  <g id="icon-v10-loot-pixarts-store">
    <g id="icon-v10-loot-pixarts-store_317">
      <path class="cls-1" d="M10.59,51.37l4.03-8.07c3.29,3.55,2.14,8.88,5.44,12.31l1.73-2.97c3.22,3.62,2.85,6.1,5.66,9.2,1.97-3.85,1.36-7.06,4.39-9.54l1.56,4.01,3.23-4.1c.56-4.44,1.14-8.97,2.43-13.72,2.59,2.42,2.38,5.9,2.87,9.27l.88,6.07,1.88-3.78c1.04-2.09,2.19-3.83,3.29-6.13l1.87,2.68,1.59-8.54c.24-1.29-.35-3.57-.68-5.04-2.75-12.05.97-17.04-.79-26.27-.1-.5-.5-1.7-.95-1.71l-1.85-.05-1.47-1.58c-.37-.39-1.69.86-1.77,1.4-.61,3.89-2.83,8.06-6.78,9.3,2-2.9,4.51-5.08,4.75-8.73-3.69.89-7.06,2.03-10.67,2.26-6.44.4-9.7-2.05-15.43-2.77-.05.77-.14,2.07.13,2.52l4.07,6.64C11.82,9.37,15.29,4.61,11.51,3.18l-1.45,2.7-1.17-1.16c-.92-.91-2.22,6.09-1.79,9.25.83,6.12.97,11.82-.17,17.79l-1.55,8.05c4.73-.52,3.32,7.98,5.21,11.55ZM12.78,40.13c-1.74-.68-2.33-4.96,0-5.42,1.37.71,1.57,4.08,0,5.42ZM20.48,46.44c-2.31-.94-1.84-4.69-.24-6.2,1.38,1.53,1.89,4.46.24,6.2ZM44,41.11c-1.48-.53-2.35-4.32-.11-6.39,1-.92,3.13,4.44.11,6.39ZM47.2,8.72c1.93,3.76,1.32,8.16-2.09,11.38l2.09-11.38ZM43.51,15.65c-1.07,1.67-2.37,3.02-2.46,4.2-.1,1.29.87,3.8,1.99,4.02,1.89-.2,3.53-1.59,5.06-2.89.69,3.94-4.19,5.7-7.63,6.18,1.05-2.46-.99-3.09-1.54-4.51-1.14-2.95,1.66-6.79,4.58-7ZM40.23,31.13c.39,2.73-4.59,2.12-5.3,9.05-1.47-4.85-.16-6.1,3.42-10.05.45-.49,1.79.44,1.87,1ZM37.42,27.52l-5.49,6.12c-2.56,2.85-1.09,11.98-3.16,16.53-1.09-3.44-1.41-6.89-1.54-10.57-.24-6.81-2.85-6.75-6.89-11.98,3.01-5.12,5.42-5.24,6.43-11.33,3.25,8.27-5.16,8.14-1.34,12.6l3.41,3.97,4.98-5.51c-1.52-4.15-5.29-5.82-2.84-10.8.3.89.59,2.93,1.15,3.7l5.29,7.26ZM28.26,24.85c.46-.51,1.91.11,2.32.73.56.83.14,2.07-.58,2.8l-1.03,1.05c-.41.41-2.15-1.7-2.19-2.43-.02-.57.72-1.33,1.47-2.15ZM18.86,8.71c2.12-2.39,6.42,3.15,10.63,3.56l6.41-1.91c-1.58,3.49-9.84,2.95-12.75,1.09l-4.29-2.73ZM21.8,18.58c.27.95.02,1.92-1.11,2.77l-.86-4.08c1.08.32,1.81.78,1.96,1.31ZM22.59,40.08c-.51-5.97-3.61-4.85-4.96-8.87-.17-.51,1.39-1.42,1.8-1.01,2.57,2.55,5.24,5.76,3.15,9.89ZM14.95,15.6c2.3.65,5.3,4.65,3.9,7.2-.81,1.47-2.26,1.97-1.23,4.49-2.97-.67-7.87-1.86-7.52-6.02,1.46.95,2.81,2.52,4.65,2.47,1.25-.03,2.03-2.3,2.04-3.33,0-1.36-.91-2.53-1.94-3.62l-.61-.65c-.12-.12.52-.6.72-.55ZM10.5,9.17l2.22,11.28c-2.62-2.86-4.32-7.21-2.22-11.28Z"/>
      <path class="cls-1" d="M4.57,5.26c.73.15,2.17-.48,2.26-1.24C4.75,2.3,3.41,1.26,1.48,0c-1.03,1.55,1.89,5.01,3.1,5.26Z"/>
      <path class="cls-1" d="M56.43.49l-5.66,3.94c.58.49.9.79,1.11.64l1.28-.92-1.17,2.25c2.66-1.01,4.61-2.69,4.44-5.91Z"/>
      <path class="cls-1" d="M52.6,10.64l1.69-.11c1.73-.11,3.07-.73,3.49-2.7-1.8.03-3.96.27-5.36.74-.09.45-.19,2.1.18,2.08Z"/>
      <path class="cls-1" d="M5.87,9.07c-1.85-1.17-3.66-1.73-5.87-1.71.37,1.34,1.38,2.53,2.27,2.75,1.31.33,2.83.52,3.61-1.04Z"/>
    </g>
  </g>
</svg>