<?xml version="1.0" encoding="UTF-8"?>
<svg id="Warstwa_2" data-name="Warstwa 2" xmlns="http://www.w3.org/2000/svg" viewBox="0 0 57.41 58.32">
  <defs>
    <style>
      .cls-1 {
        fill: #fff;
      }
    </style>
  </defs>
  <g id="icon-v10-loot-pixarts-store">
    <g id="icon-v10-loot-pixarts-store_204">
      <path class="cls-1" d="M5.73,39.99c-.36.57-1.54,2-1.24,2.48,8.43,13.25,26.27,16.14,38.33,6.63l1.08-3.94,2.45.21c8.59-8.79,9.76-22.5,3.07-32.78h-2.56s1.13-2.26,1.13-2.26C41.07,1.11,28.94-2.44,18.24,1.74l-1.06,3.89-2.1-2.52C2.11,10.06-3.96,26.23,2.77,39.42l2.96.57ZM13.33,24.32l9.98-1.39,4.44-9.11,4.47,9.09,10.02,1.38-7.31,6.94,1.85,10.09-9.01-4.82-9,4.83,1.87-9.99-7.31-7.01ZM47.91,27.18c.52.94.22,2.07.11,3.22-.84,8.87-6.93,16.38-15.86,18.23-2.41.43-4.36.83-6.64.27,12.12-.12,21.79-9.31,22.39-21.72ZM6.55,24.44c1.87-12.4,13.79-20.45,25.93-17.23,4.32,1.15,8.14,3.52,10.55,7.22-5.8-5.7-14-7.56-21.75-4.52-6.29,2.47-10.52,7.81-12.21,13.31-2.2,7.16-.34,13.66,3.64,19.44-5.2-4.46-7.18-11.5-6.16-18.22Z"/>
      <path class="cls-1" d="M47.8,46.71c-9.35,10.37-23.32,12.48-35.48,5.78,7.15,6.16,17.04,7.06,25.4,4.46.24-.38.66-1.38.99-1.32l1.67.31c16.43-6.94,22.78-30.15,10.89-44.1,6.4,11.63,5.23,25.21-3.48,34.87Z"/>
    </g>
  </g>
</svg>