<?xml version="1.0" encoding="UTF-8"?>
<svg id="Warstwa_2" data-name="Warstwa 2" xmlns="http://www.w3.org/2000/svg" viewBox="0 0 62.64 53.47">
  <defs>
    <style>
      .cls-1 {
        fill: #fff;
      }
    </style>
  </defs>
  <g id="icon-v10-loot-pixarts-store">
    <g id="icon-v10-loot-pixarts-store_134">
      <path class="cls-1" d="M43.24,52.38l-7.42-.13c2.05,1.34,5.12,1.85,7.42.13Z"/>
      <path class="cls-1" d="M35.96,12.86c-5.46,7.6-3.79,21.18,1.72,28.27l3.08-.67-1.65,1.82c-.4.44.9,1.55,1.61,1.79l1.36-4.15c-2.75-3.32-4.13-7.76-4.72-11.73-.47-3.19-3.05,1.1-4.04.02l2-2.28c.31-.35,1.74-.8,1.72-1.3-.13-3.48.59-7.15,2.35-10.03l-1.83-1.35,2.36-.06c2.11-1.71,5.53-3.61,8.06-1.52,1.39,1.15.18,3.56-1.1,4.37.71.29,1.15.45,1.3.16l.72-1.34c.31-.58.79-1.5,1.27-1.61s1.51.48,1.87.89c3.5,3.92,5.16,8.61,5.8,13.76l1.91-.74c-.67-6.27-1.91-5.14-2.75-8.51-1.44-5.77-8.95-13.03-16.73-8.87-1.4.75-3.43,1.81-4.33,3.07Z"/>
      <path class="cls-1" d="M25.79,23.99c-3.71,4.24-3.07,10.88-.7,15.63,3.32,6.67,8.12,8.01,15.39,6.26-1.47-1.67-3.06-2.89-4.21-4.6-4.56-6.79-5.56-14.83-4.26-22.83-2.2,2.09-4.52,3.61-6.22,5.55ZM26.48,26.27c1.35-.76,3.13-.98,3.7,1.12-.99-.19-2.16-.52-2.77-.14-.91.58-1.8,1.73-2.24,2.48.03-1.35.41-2.95,1.3-3.45ZM25.98,37.01c-1.19-.11-1.42-2.48-.69-3.27l.7,1.39c.22.43,2.49-1.48,3.08-.82l1.15,1.28c.46-1.54-.82-1.91-1.92-2.83.65-.48,2.24.14,2.94.84.83.84-1.28,3.25-1.29,3.22l-.22-1.2-1.26.24c-.93.18-1.9.7-2.5,1.16ZM32.1,42.34c.67-.11.92-1.44,1.5-2.59.14.42.35,1.57.32,2.42-.03.75-1.86,1.57-2.55,1.38-.75-.21-1.84-.83-2.48-1.35,1.25.1,2.39.29,3.21.15Z"/>
      <path class="cls-1" d="M12.57,41.92c2.92,3.44,8.6,3.86,12.75,4.81-1.49-3.59-5.56-2.02-6.58-5.31-.44-1.45-1.13-2.46-1.83-3.68l-1.68-2.95,2.36.61c.36,3.99.6,1.16,3.42,6.19l-.97-4.07c-1.03-4.32-.79-8.4,1.38-12.46-1.78.12-3.57.13-5.31,1.16-4.94,2.9-7.61,10.92-3.55,15.7Z"/>
      <path class="cls-1" d="M14.09,23.81c-2.31-1.76-3.79-3.8-5.6-6.38-.81.62-1.05,1.97-.64,2.74.75,1.38,3.95,2.19,2.33,1.94-1.62-.25-2.94-.87-3.57-.34l-2.12,1.78,1.63-3.17v-4.15c-1.6-.69-5.94.66-6.09,3.19-.39,6.72,2.4,13.24,6.77,18.45-.1-6.93,1-11.04,7.28-14.04Z"/>
      <path class="cls-1" d="M61.09,35.96c-.86-4.36-4.13-1.01-6.42-2.94-1.46-1.23-3.81-.97-4.53.98-.49,1.32-.59,3.27-.48,4.73,2.6,1.19,3.59,3.41,4.42,6.2,1.44-1.77,3.23-1.86,4.95-2.61,1.93-.84,2.43-4.47,2.06-6.35Z"/>
      <path class="cls-1" d="M50.16,40.13c-1.86-1.23-4.72-1.23-6.31.04.59,1.78-1.53,3.32.49,6.33.58.87,2.12,1.43,3.35,1.95-1.68.16-3.42-.72-4.19-1.95-.87-1.39-.81-2.93-.71-4.95-1.71,2.87-.88,6.28,2.24,7.73,2.68,1.25,6.09.19,7.29-3.12.82-2.26-.42-4.88-2.17-6.03ZM46.93,46.48l-.02-1.29c.41-.72.27-.53-.15.12-.32.27-.48.52-.62.47l-.52-.2c-.14-.05.2-.53.35-.79.86-1.51-2.08-4.35.99-2-.15.68.04.38.5-.57l1.51.59c-1.2.09-1.98,6.94-2.03,3.67Z"/>
      <path class="cls-1" d="M2.8,8.46l-.24-1.65C.99,9.16.44,11.43.23,14.11c2.16-1.74,4.34-2.3,6.9-1.32-.75-4.11-.27-7.81,1.07-11.71.09-.27.13-1.01-.13-1.06-1.68-.32-3.26,2.65-4.37,3.99l.15,3.02c.05.95.21,1.64.48,2.72-.2-.04-1.46-.83-1.53-1.3Z"/>
      <path class="cls-1" d="M20.99,29.21c-1.45,6.04.77,12.22,5.34,16.37,1.17,1.06,2.35,1.32,4.61,1.5-7.78-4.26-11.13-13.81-7.17-22.48-1.76.77-2.33,2.78-2.77,4.61Z"/>
      <path class="cls-1" d="M43.8,38.76c-.52-1.11-1.33-2.5-.6-3.46.34-.45,1.99-.19,2.24.32.21.43.56,1.77.08,1.74l-1.13-.08c-.15-.01-.06.52-.04,1.11l4.3-.26c.52-2.35-.55-4.4-2.42-5.32-1.39-.68-4.78-.66-5.43.87-.28,1.99,1.35,4.59,3,5.07Z"/>
      <path class="cls-1" d="M9.2,29.69c-1.44,3.06-2.13,10.01.87,10.97-1.6-7.05.7-13.49,6.73-15.89-3.37-.2-6.18,1.91-7.6,4.92Z"/>
      <path class="cls-1" d="M44.33,25.24c-.7.24-1.34,2.04-.62,2.35,2.73,1.15,5.92.55,7.74-1.62-2.47-2.04-4.7-1.57-7.12-.73Z"/>
      <path class="cls-1" d="M35.88,50.63c2,1.6,5.18,2.02,7.2.04-2.27-1.87-5.24-1.68-7.2-.04Z"/>
      <path class="cls-1" d="M58.63,29.16c-.94.48-1.53,1.61-1.8,2.93,2.41.89,4.56-.2,5.38-2.9-1.12-.45-2.53-.57-3.59-.02Z"/>
      <path class="cls-1" d="M55.76,44.87c2.3,1.32,4.9,1.43,6.82-.22-2.16-1.77-5.29-1.79-6.82.22Z"/>
      <path class="cls-1" d="M38.45,24.03c1.48,1.96,4.5,1.64,5.77.12-1.35-1.21-4.53-2.19-5.77-.12Z"/>
      <path class="cls-1" d="M7.68,14.74C5.29,12.24,1,13.36.03,16.64c2.52-1.46,4.87-1.94,7.65-1.9Z"/>
      <path class="cls-1" d="M45.23,31.38c1.66.49,3.32.97,4.36.66l4.29-1.28c-.99-3.15-3.95,1.07-8.65.62Z"/>
      <path class="cls-1" d="M43.42,28.39l-4.28-.56c-.17.5-.2,1.62.11,2.05.57.79,4.82.39,4.17-1.49Z"/>
      <path class="cls-1" d="M44.41,29c4.5,3.48,8.6-1.85,6.84-1.2l-.93.34c-1.66.61-3.67.7-5.91.85Z"/>
      <path class="cls-1" d="M55.49,46.21c2.08,1.99,5.43,1.84,7.15.12-2.78.15-4.77.11-7.15-.12Z"/>
    </g>
  </g>
</svg>