<?xml version="1.0" encoding="UTF-8"?>
<svg id="Warstwa_2" data-name="Warstwa 2" xmlns="http://www.w3.org/2000/svg" viewBox="0 0 43.23 50.17">
  <defs>
    <style>
      .cls-1 {
        fill: #fff;
      }
    </style>
  </defs>
  <g id="icon-v10-loot-pixarts-store">
    <g id="icon-v10-loot-pixarts-store_88">
      <path class="cls-1" d="M6.81,36.27l-1.85-3.97c-.17-.37-1.02-.82-1.42-.94l-.91,6.35c-.39,2.68,5.09,4.6,7.15,5.12,5.85,1.48,11.93,1.91,17.89,1.03-.05-2.95,2.75-5.1,2.46-6.2l-1.12-4.24,2.63,4.33-1.42,3.27c-.25.58.18,1.9.63,2.42,2.39-.29,10.24-2.57,9.79-5.47l-1.65-10.75c-4.85,2.74.79,4.08-3.97,6.46,2.56-3.26-.83-3.79,1.32-6.63l2.3-3.04-2.58-17.93c-.29-1.98-1.46-3.37-3.36-4.08C24.96-.86,16.28-.76,8.81,2.98c-.96.48-1.67,2.33-1.8,3.37l-1.78,13.5c-.15,1.17.29,2.04-.28,3.19-.65,1.31-.81,3.54-.7,5.01,1.82,1.75,2.73,3.48,3.02,6.11l3.36-.96,3.27,4.47c-1.48-.89-2.53-1.69-3.92-2.76l-3.16,1.36ZM17.37,26.44c-.9,0-1.63-.73-1.63-1.63s.73-1.63,1.63-1.63,1.63.73,1.63,1.63-.73,1.63-1.63,1.63ZM17.94,16.02c-.81,0-1.47-.66-1.47-1.47s.66-1.47,1.47-1.47,1.47.66,1.47,1.47-.66,1.47-1.47,1.47ZM21.61,21.49c-.88,0-1.59-.71-1.59-1.59s.71-1.59,1.59-1.59,1.59.71,1.59,1.59-.71,1.59-1.59,1.59ZM25.73,26.46c-.9,0-1.62-.73-1.62-1.62s.73-1.62,1.62-1.62,1.62.73,1.62,1.62-.73,1.62-1.62,1.62ZM23.67,14.55c0-.82.67-1.49,1.49-1.49s1.49.67,1.49,1.49-.67,1.49-1.49,1.49-1.49-.67-1.49-1.49ZM29.34,20.7c-.83,0-1.51-.67-1.51-1.51s.67-1.51,1.51-1.51,1.51.67,1.51,1.51-.67,1.51-1.51,1.51ZM34.85,15.8c1.12.35,1.35,2.01.56,2.94-.41.11-1.19-.76-1.21-1.21-.02-.52.31-1.36.65-1.73ZM34.7,23.2c0,.58-.59,1.68-1.44,1.58-.89-.11-1.25-1.21-1.07-1.72.21-.6.83-1.39,1.6-1.3.45.06.9,1,.9,1.44ZM32.84,13.41c0,.48-.58,1.4-1.34,1.38-.44-.01-.93-1-.94-1.4-.01-.47.55-1.48,1.11-1.51.76-.04,1.19.94,1.17,1.54ZM19.46,5.89c-1.08.97-2.48,1-3.61.01,1.17-.53,2.4-.57,3.61-.01ZM14.8,7.9c5.57.72,10.86.27,16.86-.43-4.12,3.22-19.9,3.59-22.72-1.4,2.01.82,3.78,1.42,5.86,1.84ZM8.08,15.9c1.12-.11,1.33,2.71-.03,2.72-1.01,0-.88-2.63.03-2.72ZM10.34,24.7c-1.25.29-1.73-.53-1.79-1.18-.05-.52.33-1.74.87-1.77.61-.03,1.3.6,1.47,1,.21.49-.03,1.82-.55,1.95ZM11.88,14.76c-.76.17-1.44-.56-1.51-1.03-.11-.7.09-1.94,1.13-1.88.5.03,1.1.8,1.15,1.22.06.43-.33,1.58-.77,1.69ZM13.78,20.62c-.83,0-1.5-.67-1.5-1.5s.67-1.5,1.5-1.5,1.5.67,1.5,1.5-.67,1.5-1.5,1.5Z"/>
      <path class="cls-1" d="M34.75,44.21c-8.72,2.44-17.84,2.43-26.52-.14-2.53-.75-5.95-2.32-6.99-5.13-1.79,1.75-1.64,4.77.5,6.34,2.07,1.51,4.37,2.48,6.91,3.18l-.53-2.56,1.89,1.53c.74.48,1.72,1.16,2.43,1.77,8.4,1.79,21.08,1.36,28.72-3.6,2.47-1.6,2.71-4.91.77-6.67-.99,2.86-4.76,4.59-7.19,5.27Z"/>
    </g>
  </g>
</svg>