<?xml version="1.0" encoding="UTF-8"?>
<svg id="Warstwa_2" data-name="Warstwa 2" xmlns="http://www.w3.org/2000/svg" viewBox="0 0 49.22 59.26">
  <defs>
    <style>
      .cls-1 {
        fill: #fff;
      }
    </style>
  </defs>
  <g id="icon-v10-loot-pixarts-store">
    <g id="icon-v10-loot-pixarts-store_33">
      <path class="cls-1" d="M.07,34.39c6.07,2.33,5.36,8.38,7.39,8.88l4.06,1.01-1.06.54c3.18,7.1,7.52,2.27,9.5,9.04-.96-1.24-1.94-2.36-3.21-2.74.65,2.76,1.05,4.55,1.2,7.12.6.4,2.23.91,2.99,1.03-.06-1.39.07-2.42.52-3.24l2.02.34,1.04-2.64.15,5.45,5.83-.15c1.03-1.06.4-3.52-.37-4.88.71-.07,1.4-.03,1.68-.33,1.54-1.68-.1-3.57-.95-5.31,2.71.83,3.36,3.67,2.42,6.22l1.54.51,1.18,2.94c1.09-.98,1.84-2.3,1.88-3.68.03-1.04-.33-3.28-2.13-2.99-.31-2.37,2.75-6.71,2.61-11.55l-2.47,3.35c.52-5.33,4.25-3.85,5.12-8.2.27-1.35,1.26-2.01,2.23-2.75,1.32-1.01,2.49-1.96,4.07-2.6,1.06-.43,1.74-1.52,1.33-2.64l-.92-2.51c1.31-.82,2-2.54,1.06-4.02l-2.87-1.36c-.39,4.01-2.4,2.7-1.43,6.36l-3.32,2.43c-2.17,1.59-.1,3.86-2.68,6.12-2.31,2.03-3.4,4.47-4.4,7.3-.13-3.42,1.25-6.14,3.67-8.42,1.49-1.4-1.15-3.65,6.33-12.38.45-.52.44-2.05.1-2.66-2.44-4.34-.34-6.19-1.74-7.45-1.33-1.2-2.24.36-6.31-1.9.25,1.2.88,2.25,1.72,3.12,2.5,2.59-.37,5.08.97,7-1.77,1.26-2.89,3.27-3.21,5.55l-.7,5.01c-.14,1-.88,2.89-1.49,3.65-2.91,3.64-2.83,7.8-2.75,12.39-1.43-2.58-.17-9.03.13-11.3.07-.54-.24-1.56.69-2.17,4.57-3.01.14-5.31,1.91-9.7l.81,2.89c.41-3.31,1.05-6.23,2.56-8.83,1.14-1.96.25-3.21-.98-4.8-1.16-1.5-1.36-3.82-2.01-5.8-.39-1.17-2.39-1.79-3.48-1.44-1.75.55-3,.16-4.78-1.03-.44,1.19-.25,2.8.66,4.1.65.93,2.08,1.51,3.3,1.61-.49,2.1-.05,4.62,1.47,5.93-.76.68-1.46,1.55-1.87,2.49l-2.12,4.91,1.92-1.06c-.22,1.17-1.66,2.93-2.94,2.47-1.76-.63-1.92-3.06-2.29-4.64-1.19-5.03,1.9-4.83-1.97-7.9-2.1-1.66-.96-4.57-3.53-5.95-1.86-1-2.88,2.12-6.94.38-.5,1.28.07,2.7,1.15,3.87.58.63,1.68.88,2.34.73.51,1.75,1.54,3.92,2.33,5.53-.37,2.66-.31,5.22.34,7.61-2.32,6.03-.16,2.56-3.09,9.86-.14.34.44,1.46.7,1.25l1.41-1.13c-.43,2.46-3.15,3.75-5.8,3.31l3.06-1.18c.51-.23.14-2-.12-2.27-2.02,1.48-3.75,1.75-5.66,1.11l2.53-1.07-4.55-2.3,1.05-.31c1.11-2.51.2-5.59-2.34-6.76-1.49,6.61-3.09,2.45-3.99,6.02-.38,1.48-.67,3.04-.47,4.6ZM36.5,13.99l-3.76-.39c1.04-.78,2.63-1.06,3.76.39ZM22.74,44c-1.29-1.02-.92-2.79.35-3.81l-.35,3.81ZM29.23,27.25l-.02,3.97c-.76-1.12-1.41-2.65.02-3.97ZM28.83,42.47l-2.54-2.6c.3,2.21.57,4.42.55,6.62-1.21-2.97-1.71-5.62-2.17-8.62,1.39-1.17,4.56,3.77,4.16,4.6ZM25.28,31.48c-.33,1.76-.11,3.14.35,5.2-1.85-1.53-1.74-4.33-1.08-6.73,1.21-4.42-1.81-4.18-1.81-7.62,2.98,4.42,4.29,3.59,2.55,9.15ZM23.05,14.01l-3.42-.45c1.38-.86,2.74-.92,3.42.45ZM20,26.94c.23,1.58.35,2.65,1.53,3.58.23,1.1.35,2.24.35,3.77-1.34-3.56-3.92-4.68-1.88-7.36ZM20.27,51.51c-1.58-2.75-3.5-4.89-6.81-6.31,3.09-1.39,7.13,3.9,6.81,6.31Z"/>
      <path class="cls-1" d="M4.15,18.42c-3.28,1.56-4.81,5.53-2.97,8.84,3.46-1.26,1.18-4.18,2.97-8.84Z"/>
      <path class="cls-1" d="M21.77.71c5.75.78,4.97,4.21,8.59,2.3-1.61-3.32-5.6-3.57-8.59-2.3Z"/>
      <path class="cls-1" d="M15.79,3.98c-2.56-1.97-6.05-2.29-8.23-.13,5.64-.36,5.01,3.16,8.23.13Z"/>
      <path class="cls-1" d="M40.3,8.96c-.94-2.13-2.84-3.4-4.95-3.21,1.34,1.69,2.73,3.42,4.95,3.21Z"/>
      <path class="cls-1" d="M47.59,19.04c.04-1.67-.9-3.21-2.69-3.85.25,1.78.72,3.42,2.69,3.85Z"/>
      <path class="cls-1" d="M33.79,58.36c.37-.51.35-1.91-.13-2.01-.64-.13-1.18.81-.97,1.15.19.3.84.86,1.09.86Z"/>
    </g>
  </g>
</svg>