<?xml version="1.0" encoding="UTF-8"?>
<svg id="Warstwa_2" data-name="Warstwa 2" xmlns="http://www.w3.org/2000/svg" viewBox="0 0 46.36 56.35">
  <defs>
    <style>
      .cls-1 {
        fill: #fff;
      }
    </style>
  </defs>
  <g id="icon-v10-loot-pixarts-store">
    <g id="icon-v10-loot-pixarts-store_81">
      <path class="cls-1" d="M4.62,42.33c1.49,3.97,3.74,7.44,7.19,9.87l-.14-2.1c1.14.31,1.45,1.29.95,2.47,8.63,7.11,21.35,3.68,26.74-5.89l-1.32-.05c1.61-1.27,2.8-2.27,3.45-4.11,4.13-11.59,1.3-27.15-10.54-32.74-4.72-2.23-10.44-2.41-15.22-.23C3.83,14.97.25,30.7,4.62,42.33ZM7.14,22.58c1.11-2.99,2.94-5.29,4.86-7.73.61-.78,1.06-2.03,2.14-2.4,2.7-.91,5.37-1.8,8.29-1.9,5.98-.21,11.46,3.04,14.58,8.09,4.85,7.87,4.95,17.39.96,25.56-4.16,8.5-14.2,12.26-22.6,7.5-3.71-2.11-6.36-5.63-8.06-9.73-2.64-6.35-2.47-13.16-.17-19.38Z"/>
      <path class="cls-1" d="M37.07.22c-4.31-1.06-3.58,1.89-10.31,3.79-.4.11-.75.92-.58,1.18.85,1.33,9.62-3.74,10.89-4.97Z"/>
      <path class="cls-1" d="M12.36.39c-.58-.44-2.02-.34-2.9-.1,3.01,2.52,6.22,4.17,10.21,5.21,1.51-1.89-1.96-1.03-7.31-5.11Z"/>
      <path class="cls-1" d="M24.63,3.24c-.66-.45-2.74-.56-3.16.12-.51.83-.38,2.38-.2,3.47l3.73-.08c-.1-1.56-.16-2.56-.37-3.52Z"/>
      <path class="cls-1" d="M.1,28.79l.1,6.75c.51.13,1.56.26,1.67.2v-7.16c-.18-.08-1.3.05-1.77.22Z"/>
      <path class="cls-1" d="M46.34,32.33c.11-1.61-.32-3.05-2.01-3.35l.08,6.05c1.41-.13,1.84-1.29,1.93-2.7Z"/>
      <path class="cls-1" d="M2.09,27.36c.23-.58.97-2.71.29-3-.35-.15-1.52-.15-1.82.09-.69.53-.69,2.49-.23,3.12.45.05,1.63.12,1.76-.21Z"/>
      <path class="cls-1" d="M.79,40.11l1.58-.05c.37-.01.26-1.09.22-1.81-.07-1.13-.78-1.61-1.69-1.6-.75,0-.91.88-.9,1.89,0,.47.35,1.59.79,1.57Z"/>
      <path class="cls-1" d="M17.32,51.25c7.38,3.28,15.78-.12,19.27-7.37.86-.98,1.23-1.81,1.59-2.88,2.2-6.73,2.03-13.82-1.22-20.16-2.47-4.81-6.85-8.33-12.31-8.95-5.67-.64-11,2.2-14.17,6.98-6.94,10.49-4.47,27.34,6.85,32.37ZM22.87,30.26c-.71,1.65-2.13,7.19-4.63,6.09-1.15-.51-1.99-1.71-1.68-2.97.56-2.28,2.53-3.02,3.86-5.06l-4.78,2.15c-.89.4-2.67.04-3.39-.47l-.72-2.61c2.71-3.11,6.21-.97,7.81-1.94-2.35-.9-4.23-1.5-5.77-3.31l-.55-2.5,3.57-1.66c1.83,1.41,2.98,2.89,4.61,4.78l-.75-3.31c-.3-1.34-.25-3.31.98-4.25.6-.46,2.49-.57,3.01-.02,2.56,2.69-.74,6.16.54,7.64,1.71-2.16,2.89-5.3,5.62-5.05.57.05,1.27.72,1.8,1.38,2.6,3.25-4.55,5.09-6.46,6.58l5.95.21-2.13,1.48c.31.61,5.7,1.45,3.89,2.71-.73.51-2.83.59-3.62.19l-4.25-2.15c1.64,2.15,3.84,2.03,3.87,6.47-1.24-.14-3.1-.57-3.76-1.66l-1.76-2.93c0,3.3.58,5.9.06,8.73-.46,2.48-1.09,4.57-1.12,7.27l3.33-6.96.24,1.4,3.01-3.01c.93.42,1.15.17,1.89.03l3.39-.64-.85,1.73c-.56,1.13-1.4,2.04-2.44,2.8l.5.46-2.79,1.61c-1.61.93-3.55,1.07-4.95,2.17-3.16,2.49.09,5.36-2.56,4.69-1.53-.39,1.92-4.46-2.48-5.9-1.66-.54-3.23-1.37-4.66-2.24l1.38-.37c-.89-.7-2.19-1.65-2.66-2.36l-1.52-3.35,2.99,1.02c.81.28,1.45,1.23,2.32.38l2.15,2.88.49-.88,2.08,5.77,1.37-6.58c.59-2.83.36-5.81-.42-8.43Z"/>
    </g>
  </g>
</svg>