<?xml version="1.0" encoding="UTF-8"?>
<svg id="Warstwa_2" data-name="Warstwa 2" xmlns="http://www.w3.org/2000/svg" viewBox="0 0 53.99 48.83">
  <defs>
    <style>
      .cls-1 {
        fill: #fff;
      }
    </style>
  </defs>
  <g id="icon-v10-loot-pixarts-store">
    <g id="icon-v10-loot-pixarts-store_224">
      <path class="cls-1" d="M38.62,32.48c.08.57.8,1.55,1.43,1.91,6.12,3.42,14.14.77,13.94-2.22-.37-5.37-16.01-4.53-15.37.31Z"/>
      <path class="cls-1" d="M33.86,40.2c-6.25-3.54-14.59-.67-14.08,2.46.79,4.92,15.57,4.29,15.32-.32-.03-.59-.67-1.82-1.24-2.14Z"/>
      <path class="cls-1" d="M2.63,32.11c.03.54.72,1.51,1.29,1.86,6.21,3.89,14.48.69,14.07-2.15-.71-5.01-15.65-4.5-15.36.29Z"/>
      <path class="cls-1" d="M9.2,21c-.22-1.71-.36-2.8-.45-4.12l-.21-3.13C5.98,13.31-.03,14.64,0,17.44c.03,2.84,6.55,4.21,9.2,3.56Z"/>
      <path class="cls-1" d="M19.99,16.4c6.5,3.54,14.21.44,13.77-2.3-.82-5.06-15.33-4.18-15.12.33.03.58.73,1.63,1.35,1.97Z"/>
      <path class="cls-1" d="M33.76,24.83c-4.51,3.39-10.64,3.23-15.1.06.13,5.53,15.58,5.14,15.1-.06Z"/>
      <path class="cls-1" d="M33.76,19.36c-4.43,2.83-10.33,3.4-14.91.03-.15,1,.63,2.21,1.86,2.75,4.14,1.83,12.48,1.75,13.05-2.78Z"/>
      <path class="cls-1" d="M18.83,22.33c-.01,1.27.81,1.99,1.8,2.52,5.33,2.81,12.5.24,11.95-.9l-.34-.7c-4.53,1.82-9.5,1.8-13.42-.92Z"/>
      <path class="cls-1" d="M31.94,18.61l-.41-.67c-3.36,1.09-7.36,1.35-10.81-.06-1.75,4.02,12.47,2.79,11.22.73Z"/>
      <path class="cls-1" d="M20.77,28.99l-.12,1.19c-.16,1.61,12.64,2.79,11.83-1.51-3.73,1.68-7.64,1.97-11.71.32Z"/>
      <path class="cls-1" d="M33.39,3.54c-.02.56.64,1.59,1.23,1.93,6.89,3.93,14.66.4,13.98-2.28-1.16-4.58-15.06-4-15.22.35Z"/>
      <path class="cls-1" d="M48.55,8.71c-4.47,2.79-9.8,2.77-14.64.33.15,4.48,14.04,4.98,14.64-.33Z"/>
      <path class="cls-1" d="M35.02,15.2c-1.15,3.88,13.4,4.37,13.65-.93-4.62,2.87-8.93,2.53-13.65.93Z"/>
      <path class="cls-1" d="M48.68,19.67c-3.86,2.87-8.86,3.04-13.45,1.11-1.84,3.7,13.32,4.44,13.45-1.11Z"/>
      <path class="cls-1" d="M48.6,17.22c-4.36,2.64-9.09,2.65-13.6.8-.86,3.8,13.19,4.04,13.6-.8Z"/>
      <path class="cls-1" d="M47.17,13.56l-.15-1.13c-4.16,1.81-8.44,1.57-12.29-.18-.24,4.45,12.67,2.95,12.44,1.31Z"/>
      <path class="cls-1" d="M47.13,25.02l-.31-1.42c-3.87,1.77-7.84,1.48-11.7.07-.58,3.81,9.93,3.16,12.01,1.35Z"/>
      <path class="cls-1" d="M46,8.81c.34-.13.97-.55.92-.85l-.16-1.03c-2.92,1.37-5.77,1.3-9.02.88-.39.88-.49.83-.57-.11l-1.3-.46c-.24-.08-.36.51-.38.76-.13,1.35,6.04,2.55,10.52.81Z"/>
      <path class="cls-1" d="M40.75,36.04c-.3.74.3,1.6.94,1.85.39.15.75-.44.96-.97l.71,1.47c1.45.17,7.51,1.17,6.6-1.74-3.25.38-6.15.28-9.22-.6Z"/>
      <path class="cls-1" d="M8.44,36.57c-1.05.02-2.26-.38-3.35-.84-.3-.15-.35,1.14-.08,1.54.25.36,1.08.13,1.5-.31-.04-.04.65,1.05.99,1.13,1.34.31,7.37,1,6.51-1.64l-5.57.13Z"/>
      <path class="cls-1" d="M32.14,46.33c-3.85,1.57-9.89-.58-8.17,1.61,1.09,1.39,5.26,1,7.78-.11.39-.17,1.45-.31,1.39-.74-.1-.61-.35-1.02-1-.75Z"/>
      <path class="cls-1" d="M3.98,21.9l.08,1.34c2.7.49,5.33.94,7.77-.28-.71-.34-1.59-.76-2.05-.92l-5.8-.14Z"/>
      <path class="cls-1" d="M23.37,6.1c-5.64-2.99-13.65-1.03-13.96,1.98-.26,2.53,5.99,4.67,8.99,3.37,2.08-.91,3.87-1.55,5.9-2.29,1.04-.38,0-2.57-.93-3.06Z"/>
      <path class="cls-1" d="M17.14,17.01c.15-.03.2-1.36.05-1.38l-.74-.07c-2.36-.23-4.33-.84-6.63-1.96.18,2.75,5.28,3.84,7.32,3.41Z"/>
      <path class="cls-1" d="M16.7,20.02c.32.03.81-1.31.49-1.41-2.58-.85-3.53.07-7.4-2.36-.36,2.77,5.08,3.62,6.91,3.77Z"/>
      <path class="cls-1" d="M10.03,18.77c-.15,3.18,5.07,4.01,7.08,3.84l.05-1.39-4.37-.71c-.35.79-.59,1.31-.16.12l-2.6-1.86Z"/>
      <path class="cls-1" d="M13.3,12.84c.11,1.14,1.01,1.43,2.64,1.53.42.02,1.31-.24,1.38-.52.08-.28.22-.88-.08-.91l-1.21-.13c-1.56-.17-2.8-.41-4.46-.74-.03.2.16,1,.32,1.27.16.27.95-.06,1.39-.49Z"/>
      <path class="cls-1" d="M22.25,46.33c-.27.17-.27,1.24.03,1.33l1.12.37c.35.11.22-1.22-.05-1.47-.23-.21-.84-.39-1.1-.23Z"/>
      <path class="cls-1" d="M14.51,36.4c-.16.42.15,1.33.56,1.23.71-.18,1.28-1.41.75-1.79-.31-.22-1.17.21-1.3.57Z"/>
    </g>
  </g>
</svg>