<?xml version="1.0" encoding="UTF-8"?>
<svg id="Warstwa_2" data-name="Warstwa 2" xmlns="http://www.w3.org/2000/svg" viewBox="0 0 54.1 54.18">
  <defs>
    <style>
      .cls-1 {
        fill: #fff;
      }
    </style>
  </defs>
  <g id="icon-v10-loot-pixarts-store">
    <g id="icon-v10-loot-pixarts-store_207">
      <path class="cls-1" d="M38.91,23.79c-8.39,0-15.2,6.8-15.2,15.2s6.8,15.2,15.2,15.2,15.2-6.8,15.2-15.2-6.8-15.2-15.2-15.2ZM38.89,51.13c-6.71,0-12.15-5.44-12.15-12.15s5.44-12.15,12.15-12.15,12.15,5.44,12.15,12.15-5.44,12.15-12.15,12.15Z"/>
      <path class="cls-1" d="M36.16,22.46h5.69c.26-1.72,2.59-.87,2.74-1.49l.26-1.09c.22-.65.63-1.45.6-1.96-.15-2.25-6.77-3.74-11.47-1.59-.56.26-1.21.81-1.33,1.25-.11.37.14,1.31.27,1.7l.69,2.02c1.21-.08,2.05.28,2.55,1.15ZM43.62,19.31c.08.59-1.04,1.2-1.64,1.15-.65-.05-1.55-.44-2.01-.97.71-1.17,2.66-1.41,3.65-.18ZM34.39,19.27c.43-1.15,3.07-.96,3.55.14-.53,1.44-3.53,1.35-3.55-.14Z"/>
      <path class="cls-1" d="M32.87,12.29c-.5.14-.59,1.51-.19,1.58,5-1.35,10.38-1.3,14.85,1.13,1.94,1.05,3.37,3.05,2.49,5.14-.77,1.82-2.57,2.69-4.41,3.56l1.75,1.08c1.74-.38,3.26-1.41,4.55-2.72,1.75-1.78,1.92-4.31.11-6.18-4.44-4.59-13.33-5.15-19.15-3.59Z"/>
      <path class="cls-1" d="M32.22,15.61l.17.75c3.95-1.98,8.7-2.22,12.71-.18.63.32,1.41,1.11,1.42,1.66.01.62-.23,1.49-.4,2.11-.28,1.09-.47,1.73-1.7,1.89-.45.06-1.24.48-1.5.76,1.57,1.42,2.8.49,4.02-.21,1.38-.79,2.81-2.18,2.17-3.99-.49-1.36-2.05-2.5-3.49-3.06-6.42-2.5-13.54-.38-13.4.26Z"/>
      <path class="cls-1" d="M50.66,27.26c1.78-1.21,2.69-2.93,2.66-4.83l-4.42,3.38,1.75,1.45Z"/>
      <path class="cls-1" d="M33.05,23.41c.89-.18,1.38-.35,2.23-.89l-2.28-.72.06,1.61Z"/>
      <path class="cls-1" d="M38.89,28.44c-5.98,0-10.83,4.85-10.83,10.83s4.85,10.83,10.83,10.83,10.83-4.85,10.83-10.83-4.85-10.83-10.83-10.83ZM46.49,40.97c-.14.66.11,1.92-.27,2.55-.42.7-1.34,1.09-2.42,1.38l-.72,2.27c-2.38,1.09-5.08,1.23-7.58.36-.92-.32-.96-1.76-1.48-2.38-.41-.49-1.85-.78-2.25-1.31-.57-.76-.32-1.94-.5-2.84-.52-2.64-1.04-5.21.66-7.54,1.69-2.32,4.4-3.48,7.12-3.41,2.79.07,5.46,1.39,7,3.81,1.45,2.29.97,4.65.43,7.12Z"/>
      <path class="cls-1" d="M44.79,33.82c-3-3.72-8.88-3.71-11.85.05-1.65,2.09-.84,4.71-.34,6.88.11.47-.16,1.57.02,1.96.66,1.41,2.57-.08,2.83,2.61.03.3.58,1.11.75.92l.77-.89c.28.48.66,1.11.93,1.33.27.22.83-.73,1.05-1.08l.84,1.39,1.04-1.59c.17.26.57,1,.8.86,1.32-.83,0-2.64,2.17-2.78.51-.03,1.51-.48,1.48-.93l-.12-1.82c.68-2.17,1.31-4.81-.37-6.89ZM35.79,41.71c-1.06,0-1.92-.86-1.92-1.92s.86-1.92,1.92-1.92,1.92.86,1.92,1.92-.86,1.92-1.92,1.92ZM37.71,43.4c.24-1.08.45-1.52,1.19-2.39l1.3,2.33-2.49.07ZM42.01,41.68c-1.06,0-1.93-.86-1.93-1.93s.86-1.93,1.93-1.93,1.93.86,1.93,1.93-.86,1.93-1.93,1.93Z"/>
      <path class="cls-1" d="M29.77,4.46C23.45-1.81,7.52-1.25,2.3,4.77c-1.65,1.9-1.61,4.54.15,6.33,6.1,6.21,21.73,6.07,27.46.01,1.86-1.96,1.77-4.77-.14-6.66ZM5.94,11.04c-1-.8-1.73-2.15-1.71-3.32.02-1.24.87-2.6,2-3.4C13.63-.87,28.06,1.96,28.12,7.72c.07,6.16-15.1,9.02-22.18,3.32Z"/>
      <path class="cls-1" d="M31,18.02C25.48,26.12,6.94,26.25.1,18.68c-.13,2.66,1.46,4.44,3.7,5.73,7.11,4.12,18.56,3.94,25.02-1.19,1.6-1.27,2.42-2.98,2.19-5.2Z"/>
      <path class="cls-1" d="M31.14,11.61c-6.35,7.16-23.29,7.1-29.88.11-.34,3.94,4.56,6.43,7.74,7.27,4.9,1.3,9.97,1.25,14.85-.12,3.04-.85,7.82-3.39,7.29-7.26Z"/>
      <path class="cls-1" d="M2.39,48.59c6,5.28,17.54,5.5,24.55,1.95l-1.79-2.31c-7.44,2.83-18.69,2.1-24.47-3.9-.1,1.64.5,3.2,1.71,4.26Z"/>
      <path class="cls-1" d="M26,28.34c-8.07,3.13-19.39,2.57-25.38-3.77-.07,2.71,1.78,4.74,4.13,6.02,5.78,3.15,12.74,3.37,19.05,1.5l2.19-3.75Z"/>
      <path class="cls-1" d="M6.95,37.06c5.06,1.76,10.43,1.84,15.56.38l.47-3.09c-7.52,1.93-17.47,1.39-22.91-4.78-.55,3.83,3.92,6.47,6.87,7.49Z"/>
      <path class="cls-1" d="M.78,36.35c-.17,3.11,2.06,5.4,4.71,6.72,5.52,2.75,11.79,2.9,17.81,1.36l-.77-2.82c-7.21,1.71-17.41.45-21.74-5.27Z"/>
      <path class="cls-1" d="M6.84,21.5c5.63,2.02,11.77,2.07,17.38-.04,2.14-.81,4.15-1.87,5.54-3.89-6.65,4.38-17.31,4.93-24.5,1.37-2.35-1.16-4.18-2.81-5.14-5.1-.88,3.82,3.9,6.63,6.73,7.65Z"/>
      <path class="cls-1" d="M5.6,46.31c5.81,2.82,12.68,2.87,18.74.83.04-.47-.4-1.5-.75-1.41-7.87,2.08-17.3,1.06-22.7-4.46.45,2.57,2.56,3.99,4.71,5.04Z"/>
      <path class="cls-1" d="M22.47,40.25l-.27-1.35c-6.54,1.6-13.17,1.03-19.07-2.11,3.45,4.29,14.46,4.98,19.34,3.45Z"/>
      <path class="cls-1" d="M23.28,27.76c-3.43.59-6.74.93-10.42,1.02,3.41.37,6.98.32,10.42-1.02Z"/>
      <path class="cls-1" d="M5.37,8.62c.42,4.54,13.79,7.39,20.35,2.2,1.63-1.29,1.66-3.42.32-4.84C20.86.48,4.81,2.56,5.37,8.62ZM23.57,9.05l-.09,1.13c-.08.98-2.85.3-3.39,2.09-8.71,1.62-7.62-1.38-9.86-1.44-1.1-.03-1.16-.81-1.38-1.6-.2-.7-.69-1.68-.6-2.36.52-4.13,14.42-4.77,15.88-.21.22.68-.2,1.63-.55,2.39Z"/>
      <path class="cls-1" d="M22.04,5.37c-4.23-2.72-13.02-1.01-12.68,1.72.06.49.5,1.25.67,1.87l.3,1.08c.17.59,1.78-.35,3.02,1.46l1.99.11c.44.02,1.15.03,1.6,0l2.11-.1c2.22-2.67,2.54.32,3.42-2.63.19-.65.48-1.53.56-2.06.06-.44-.61-1.22-1-1.47ZM11.43,8.29c.47-1.25,3.03-.93,3.86.07-.69,1.41-3.72,1.51-3.86-.07ZM15.16,9.9l.95-.63c.24-.16.95.26,1.11.52-.49.6-1.17.61-2.07.1ZM17.4,8.37c0-1.12,3.56-1.47,3.57.03.01,1.42-3.49,1.29-3.57-.03Z"/>
    </g>
  </g>
</svg>