<?xml version="1.0" encoding="UTF-8"?>
<svg id="Warstwa_2" data-name="Warstwa 2" xmlns="http://www.w3.org/2000/svg" viewBox="0 0 31.72 49.19">
  <defs>
    <style>
      .cls-1 {
        fill: #fff;
      }
    </style>
  </defs>
  <g id="icon-v10-loot-pixarts-store">
    <g id="icon-v10-loot-pixarts-store_225">
      <path class="cls-1" d="M.14,7.94c.09,1.43,1.36,3.36,2.99,4.19,12.19,6.23,28.93,1.77,28.59-4.62-.07-1.32-1.21-3.34-2.68-4.17C17.19-3.36-.32.98.14,7.94ZM28.59,7.47c.02,1.03-1.03,2.67-2.14,2.85l1.16-2.04C29.17,5.54,17.42-.12,6.08,5.25c-.63.3-1.74,1.28-1.7,1.89l.2,2.78c-.63-.32-1.31-1.6-1.32-2.48-.04-7.23,25.17-7.41,25.33.03Z"/>
      <path class="cls-1" d="M28.41,34.41c.21-.71-.03-2.52-.41-2.49-7.5,2.93-14.87,2.95-22.01.68l-.47,2.96-.35-2.86c-.06-.51-.78-.8-1.69-1.1-.68.49-.5,3.12.41,3.55,7.21,3.38,15.17,3.49,22.57.83.86-.31,1.77-.98,1.95-1.58Z"/>
      <path class="cls-1" d="M25.76,15.41c-7.62,2.17-15.19,1.94-22.5-1.12-.2.6-.52,2.39.03,2.8,4.91,3.67,16.45,4.19,22.38,1.59.61-.28.41-3.01.09-3.27Z"/>
      <path class="cls-1" d="M5.91,26.88c-.35.73-.53,2.66.05,3.31,6.26,2.42,13.17,2.22,19.74.34l-.09-3.64c-7.05,2.01-13.09,1.74-19.71,0Z"/>
      <path class="cls-1" d="M25.69,38.64c-6.35,1.63-12.73,1.95-19.38-.08-.3,1-.43,2.63.05,3.43,6.2,2.13,13.16,2.03,19.3.02l.03-3.36Z"/>
      <path class="cls-1" d="M5.98,44.17c.07,1.15.2,2.47.38,3.49,6.49,1.99,13,2.1,19.3-.02l-.1-3.31c-7.03,1.98-12.89,1.84-19.58-.16Z"/>
      <path class="cls-1" d="M25.78,21.18c-6.48,1.67-12.77,1.97-19.61-.14-.26.94-.26,2.61.29,3.51,6.21,1.94,13.09,1.93,19.29-.04l.03-3.32Z"/>
      <path class="cls-1" d="M26.56,29.84c.74-.13,2.06-.62,2.09-1.31l.13-2.82c-.88.2-1.95.49-2.28,1.03-.34.53-.17,2.26.05,3.1Z"/>
      <path class="cls-1" d="M28.69,37.24c-1.06.56-2.01,1-2.26,1.66-.22.58.06,2.66.28,2.71,2.66-.79,2.27-2.46,1.98-4.37Z"/>
      <path class="cls-1" d="M26.48,23.97c2.61-.31,2.51-2.12,2.18-4.21-.69.29-1.53.6-1.93,1.11-.39.51-.33,2.57-.25,3.1Z"/>
      <path class="cls-1" d="M3.21,37.17l-.28,2.59c-.06.55,1.08,1.14,2.04,1.49l.22-2.59c.05-.54-1.08-1.11-1.98-1.49Z"/>
      <path class="cls-1" d="M4.77,23.81c.11-.31.38-1.72.49-2.51.08-.54-1.11-1.16-1.95-1.53-.79,1.24-.72,3.54,1.46,4.04Z"/>
      <path class="cls-1" d="M26.45,44.43c-.02.72.12,2.21.21,2.68,2.33-.8,2.15-2.34,2-4.02-.77.24-2.19.65-2.21,1.33Z"/>
      <path class="cls-1" d="M1.87,22.27c.93-1.74.51-3.91-1.87-4.68-.04,1.59.59,3.32,1.87,4.68Z"/>
      <path class="cls-1" d="M.21,35.17c-.15,1.58.29,3.26,1.5,4.5.97-1.88.55-3.84-1.5-4.5Z"/>
      <path class="cls-1" d="M4.8,29.5c.26-.36.48-2.34.07-2.86-.35-.43-1.16-.78-1.7-.97-.52,1.6-.4,3.44,1.64,3.83Z"/>
      <path class="cls-1" d="M29.86,22.14c1.18-1.06,1.88-2.79,1.68-4.09-1.95.19-2.62,2.18-1.68,4.09Z"/>
      <path class="cls-1" d="M.02,23.57c-.04,1.74.54,3.27,1.85,4.45.89-1.9.21-3.97-1.85-4.45Z"/>
      <path class="cls-1" d="M29.57,28.13c2.04-1.34,2.15-2.65,1.84-4.26-.79.4-2.12.95-2.06,1.61l.22,2.65Z"/>
      <path class="cls-1" d="M31.55,11.93c-1.59.65-2.55,2.44-1.71,4.3,1.32-.86,1.88-2.24,1.71-4.3Z"/>
      <path class="cls-1" d="M.03,29.46c.12,1.98.85,3.45,2.04,4.5,1.21-2.23.11-4.2-2.04-4.5Z"/>
      <path class="cls-1" d="M29.75,33.89c1.42-1.13,1.95-2.51,1.77-4.18-2,.45-2.84,2.1-1.77,4.18Z"/>
      <path class="cls-1" d="M28.37,14.25c-1.8.53-2.13,2.31-1.63,3.85,2.48-.88,2.17-2.43,1.63-3.85Z"/>
      <path class="cls-1" d="M2.05,45.18c.81-2.06-.15-3.38-1.74-4.68-.34,1.6.4,3.53,1.74,4.68Z"/>
      <path class="cls-1" d="M.22,12.23c-.2,1.84.3,2.96,1.92,4.06.39-1.8.41-3.23-1.92-4.06Z"/>
      <path class="cls-1" d="M31.66,41.19c-1.9.46-2.95,2.22-1.77,3.88,1.09-.9,1.8-2.69,1.77-3.88Z"/>
      <path class="cls-1" d="M3.2,42.92c-.3,1.54-.35,3.15,1.51,4.04l.35-2.65c.07-.51-1.12-1.08-1.86-1.39Z"/>
      <path class="cls-1" d="M29.81,39.81c1.51-1.22,1.99-2.78,1.54-4.43-1.61.89-1.91,2.78-1.54,4.43Z"/>
    </g>
  </g>
</svg>