<?xml version="1.0" encoding="UTF-8"?>
<svg id="Warstwa_2" data-name="Warstwa 2" xmlns="http://www.w3.org/2000/svg" viewBox="0 0 52.52 55.88">
  <defs>
    <style>
      .cls-1 {
        fill: #fff;
      }
    </style>
  </defs>
  <g id="icon-v10-loot-pixarts-store">
    <g id="icon-v10-loot-pixarts-store_78">
      <path class="cls-1" d="M40.9.15c-2.5.43-5.49,2.18-6.76,4.97-2.4,5.28-2.88,9.53-6.67,14.01l2.33,1.04-5.47-.35c-.63-.04-1.35,1.33-1.42,1.84,4.91,1.77,8.21,5.21,10.86,9.42,3.57-1.58.04-5.71-.48-7.71l2.73,2.63c1.41-1.61,2.96-2.99,4.78-3.98l7.26-3.95c2.61-1.42,4.16-4.44,4.41-7.01.31-3.11-.78-5.95-2.9-8.05-2.28-2.26-5.28-3.43-8.67-2.85ZM36.81,8.26c-.21.3-.79.55-1.07.41-.28-.14-.31-.98-.2-1.33,1.2-3.91,4.9-6.47,8.91-4.58-5.58,1.38-4.52,1.11-7.64,5.5Z"/>
      <path class="cls-1" d="M1.79,45.99c-.66,4.03,2.61,7.37,6.4,7.4-.67-.56-1.04-.82-1.38-1.47,2.72,1.02,4.85,2.06,7.18,3.28,2.99,1.56,6.22.4,7.99-2.45,1.12-1.82,2.49-3.19,3.91-4.52l-1.27,2.64c3.1-1.1,4.78-4.6,4-7.89-.57-2.46-1.26-4.66-1.25-7.35,0-1.89-.95-4.45-2.93-4.97-2.98-.77-5.59-1.73-8.11-3.43-1.97-1.33-4.36-1.16-6.01.47-1.73,1.71-3.7,2.8-5.94,3.74-3.3,1.39-5.39,5.13-3.92,8.48.88,2.01,1.68,3.85,1.31,6.07ZM14.69,30.44c5.94,0,10.75,4.81,10.75,10.75s-4.81,10.75-10.75,10.75-10.75-4.81-10.75-10.75,4.81-10.75,10.75-10.75Z"/>
      <path class="cls-1" d="M12.14,23.99c-2,.89-3.78,2.67-4.91,4.38,2.05-1.12,3.25-2.93,5.34-3.28,4.46-.75,6.39,2.88,10.31,3.51,7.05,1.13,5.69,8.3,6.38,10.89.54,2.05.92,3.66,1.08,5.53l.87-1.37-.59-6.26c1.43,1.66,1.39,3.6,1.03,5.97,3.37-2.73,2.48-8.68.62-11.86-2.71-4.62-6.91-7.73-11.96-9.29-2.67-.83-5.24-.54-7.61.85,2.17.25,3.92.61,5.57,1.34-2.36.29-4.15-1.28-6.11-.4Z"/>
      <path class="cls-1" d="M14.69,50.7c5.25,0,9.5-4.25,9.5-9.5s-4.25-9.5-9.5-9.5-9.5,4.25-9.5,9.5,4.25,9.5,9.5,9.5ZM19.23,46.95l-8.53.03c-.29,0-.89-.24-1.08-.34-.25-.13.07-1.18.38-1.18l9.38.03c.55,0,.39,1.46-.16,1.46ZM10.54,41.17l.4-3.57,1.93,2.5c.77-1.16,1.03-2.47.37-3.65l1.39-2.38,1.42,2.4c-.62,1.14-.36,2.32.34,3.38l2.1-2.25.03,3.18c1.55.54,1.74-2.25,3.74-2.73l-2.33,6.63-10.44.02-2.4-6.47c1.64-.03,1.59,1.86,3.45,2.94Z"/>
    </g>
  </g>
</svg>