<?xml version="1.0" encoding="UTF-8"?>
<svg id="Warstwa_2" data-name="Warstwa 2" xmlns="http://www.w3.org/2000/svg" viewBox="0 0 60.34 58.14">
  <defs>
    <style>
      .cls-1 {
        fill: #fff;
      }
    </style>
  </defs>
  <g id="icon-v10-loot-pixarts-store">
    <g id="icon-v10-loot-pixarts-store_232">
      <path class="cls-1" d="M38.42,28.25l-3.46-2.55c.32,1.56,1.53,1.82,2.92,2.91l-1.59-.02,1.2,2.51c.73,1.52.91,2.99.73,4.96l3.68,2.16,2.98-2.94c-.21-4.79,1.71-5.55.34-8.75-1.18,0-2.94,2.04-3.51,1.27-1.05-1.43-1.58-4.37-3.34-7.17l3.35-4.54c-1.49-1.34-2.96-2.59-3.87-4.15-1.31-2.23-1.18-4.86.79-6.61l3.14,2.31c1.19-1.2,2.02-2.1,3.08-3.36,1.6-1.9,3.29.98,5.02.62,1.39-.89,3.13-1.89,4.4-2.35l2.35,5.59-2.58,3.43,2.11,3.48c-2.98,4.07-2.52,3.53-7.39,5.75l-.45,5.08c-.77.2-2.2.53-2.12,1.05.09.54.31,1.41.5,2.05l10.16-2.19c-.27-2.68-.69-4.8-1.37-7.37l-2.91,1.41.37,3.8-4.2,1.02c.43-1.28.6-2.45.76-3.96,1.2-.98,3.74-1.51,4.99-2.69,1.36-1.28,2.28-2.63,4.03-3.33l-2.96-4.08,2.29-3.28c-.91-1.84-1.75-3.97-2.31-5.83l1.78-2.51c-2.13.92-3.73,1.73-5.57,2.8-3.62,2.11-5.27-1.49-6.38-.86-1.25.72-2.28,3.33-3.73,3.67-1.34.31-2.54-1.29-3.45-2.23-2.4,2.48-3.15,6.07-2.79,9.24l3.97,3.75-2.67,3.98c1.59,2.15,3.26,4.44,3.83,6.97l-1.3.07c-.24.01-.51.47-.82.86ZM41.25,29.63c.42-.16,1.34.05,1.64.39,1,1.17-.71,1.22.12,4.87l-2.29.37c1.17-2.85-1.39-4.92.53-5.62Z"/>
      <path class="cls-1" d="M6.43,9.73l-3.21,3.2,4.48,5.76,2.91.41.28,3.75,3.17,1.41c.62.5.75,2.32.55,3.36l-7.22-2.7,1.32-5.18-2.02-.86c-1,2.55-1.79,5.04-1.76,7.84l17.31,6.69c-.12-3.83-.17-7.35-1.33-10.69-1.43-4.11-4.78-10.28-9.43-9.27-1.18.25-3.59,1.56-3.34,2.8.33,1.64,2.58.86,3.51.31,1.24-.73,2.93.13,3.89,1.24,2.79,3.2,3.83,7.26,4.03,11.75l-4.4-1.66.24-4.11-3.59-1.87.28-3.39-4.2-1.15-2.81-4.26,1.89-3.64-.65-2.01c2.02.45,3.53.21,5.16-.27,4.08-1.19,4.06,3.84,5.22,3.75,2.59-.19,5.28-2.2,6.42-1.11l3.7,3.52c2.28,2.17-1.06,4.58,2.28,5.23,1.49.29,2.76.92,4.17,1.68-.62-1.99-2.53-2.54-4.46-3.16l-.09-3.25-4.9-6.07-5.22,1.82c-.87.31-1.89-.3-2.31-.97l-1.82-2.9c-1.4.9-2.63.41-4.18.02l-.27,1.12c-.06.23-1.07.48-1.33.38l-5.55-2.17c1.37,1.31,2.67,3,3.28,4.66Z"/>
      <path class="cls-1" d="M13.9,12.62c1.91,1.01,3.75,2.19,4.97,4.11,4.01,6.28,3.66,9.53,4.53,16.93l13.25-2.74c-.37-.88-1.14-2.12-1.81-2.43l-7.81,1.19-.9-4.37c.92.48,1.42.99,1.81.83l1.69-.72,1.94,2.42-1.52-3.77c-1.69,1.02-3.41,1.01-4.19-.64-.62-1.3-1.02-2.62-1.51-4.19l2.81.95c-.72-1.08-2.47-1.39-3.31-2.15-2.97-2.71-3.87-6.95-9.95-5.4Z"/>
      <path class="cls-1" d="M29.39,41.95c-3.07.17-1.54,1.77-7.19,2.18l-3.71-3.34c-.36-.33-1.65-.07-1.77.07.8.28,1.56.76,2.19,1.38l3.88,3.84c-1.23.23-1.41-.69-2-1.38l-.09,6.13-1.29-.16c-.12.85-.32,1.72-.64,2.84l3.86,1.93.45-10.06,5.87-1.87,1.07-.34c.22-.07.39.45.72,1.08,1.11-1.44,1.45-3.5,1.44-5.38l4.4-3.49c.5-.4,1-1.29,1.02-1.83.02-.44-.72-1.44-1.16-1.35l-12.95,2.8.26,8c.53.38,2.69-.13,2.71-.88l.15-5.22,7.72-1.7c-.68,1.87-3.95,2.97-3.78,3.63l.29,1.11c.1.38.08,1.33-.05,1.7-.1.29-.81.27-1.38.3Z"/>
      <path class="cls-1" d="M3.2,40.33l3.26,1.02c1.36-1.31,2.81-1.68,4.54-1.32l1-3.25c1.19.27,2.22.61,2.8.41.72-.25,1.31-1.09,1.88-2.1l3.61,1.62.38,4.62c.08.98.82,1.83,2.19,2.25.08-2.99-.14-5.75-.57-8.76l-16.99-6.84,1.2,10.78c.44.09,2.02-.62,1.97-1.22l-.45-5.93,8.06,3.18c-2.04,3.02-3.04.05-5.04.99l-.68,3.13c-1.53-.26-3,.93-4.15.84l-3.22-.27c-.93.32.61-2.07.46-4.33.47-.47,1.61-1.17,1.68-1.93l-3.26,1.81.69,2-2.55,6.15,3.2-2.83Z"/>
      <path class="cls-1" d="M47.92,32.69l1.46,3.08,3.69-1.09-.23,5.88c.52.27,1.89.45,2.43.36l1.14-12.78-9.76,2.08c-.64.14-1.09,2.15-.86,2.4l2.14.08ZM53.28,31.2l.08,2.51-3.37.77-1.36-2.37,4.65-.9Z"/>
      <path class="cls-1" d="M32.42,52.55c.06-.64-.46-1.87-.95-1.75l-4.54,1.1-.37-6.83c-.87.21-2.04.63-2.88,1.09l.07,9.6,7.03-1.69c.7-.17,1.58-.95,1.64-1.52Z"/>
      <path class="cls-1" d="M47.26,18.21l2-.46,1.4-.32c.31-.07.79.85,1.1.91.75.17,2.22-1.05,2.5-1.96-1.74-4.39-6.42-9.08-11.5-7.42,1.95.72,3.73,1.02,4.24,3.17l-3.26,1.11.34,3.29c.38-1.53.69-2.48,1.75-3.07l2.31-1.28,2.51,4.08-4.95,1.89c.27,2.12.08,2.57-.44,3.69,2.13-.17.72-3.34,2.01-3.63Z"/>
      <path class="cls-1" d="M37.35,42.67c-1.48.25-2.83,1.3-3.82,2.56.13,1.05.65,2.79-.01,3.86-2.08,3.35,1.22,2.24-1.49,5.49-3.41,4.08-4.57-.98-6.28,3.56,3.47-3.13,4.76,1.18,6.55-1.79.75-1.24,1.73-2.23,2.8-3.19-2.22-3.97.37-2.69-.11-5.78-.23-1.49.44-2.68,1.53-3.23l1.36.68c.55-2.65.83-5.01-.59-7.35l.07,5.19Z"/>
      <path class="cls-1" d="M35.91,52.66l11.19-2.87-1.18-2.47-11.04,2.73c.23,1.06.54,1.88,1.03,2.61Z"/>
      <path class="cls-1" d="M43.9,40.17c-.15-.69-.77-1.76-1.23-1.94l1.06,5.32c.75-.67,2.51-.92,3.34.03l-.4,3.6c.97,1.73,1.53,3.47,1.79,5.34,1.28-.1,2.72-.12,4.08.15,3.4.68,2.55-2.6,6.11.14l-.4-3.58c-.12-1.1-.41-2.16-1.12-2.51l.36,4.45c-1.48-.34-2.7-.04-4.16.64l-2.6-.55c-1-.21-1.46-.61-1.84-1.57-2-4.99.24-6.28-1.3-7.27-1.84-1.19-3.1.53-3.71-2.27Z"/>
      <path class="cls-1" d="M54.17,42.76c-.32-.15-1.17-.17-1.39-.12l-.24,2.96-3.87,1.09.81,2.49,5.84-1.27-.26-3.59c-.03-.44-.51-1.37-.89-1.55Z"/>
      <path class="cls-1" d="M9.02,48.21c.1-1.51.02-2.3-.14-3.52l-.45-3.54c-.77-.14-1.94,1.05-1.9,2.01l.15,3.91c.02.58,1.38,1.03,2.34,1.15Z"/>
      <path class="cls-1" d="M11.5,47.15c-.3.64-.56,1.57-.59,2.24l5.52,2.74c1.88-2.06-3.52-4.75-4.93-4.99Z"/>
      <path class="cls-1" d="M3.42,49.8c1.44.53,2.87,1.18,4.14,1.44,1.64.33,2.87-2.4,2.91-3.69.06-1.7,1.15-2.68,2.74-2.98l.07-2.91c-.51,1.48-1.12,2.35-2.45,2.78-.88.78-1.12,6.15-3.75,5.67-1.28-.23-2.52-.46-3.65-.31Z"/>
      <path class="cls-1" d="M16.8,49.74c2.25,2.7-2.3,4.39-.47,5.65.63-.92,1.06-1.62,1.62-2.27,2.13-2.5-1.07-3.33-.91-6.03,1.2-.82,2.12-1.54,2.26-2.79l-2.27,1.8c-1.17.93-1.22,2.45-.24,3.64Z"/>
      <path class="cls-1" d="M56.53,35.89c-.16.09-.09.97.13,1.1.35.22,1.26.55,1.24.9l-.09,1.64c-.09,1.81,1.23,3.53,2.5,4.82.26-2.49-3.07-2.42-.88-6.86l-2.9-1.6Z"/>
      <path class="cls-1" d="M47.88,38.7c1.74.62,2.65.96,2.94,2.71.27,1.64,3.3.07,3.75.74l.71,1.05.1-1.4c-6.9-.77-2.08-4.2-7.5-3.1Z"/>
      <path class="cls-1" d="M34.81,10.97c-2.48-.15-4.46.26-6.81.64-.94,1.44,7.37.29,6.81-.64Z"/>
      <path class="cls-1" d="M37.88,10.76c1.99.4,3.77.05,5.42-.63-1.91-.59-3.84-.44-5.42.63Z"/>
      <path class="cls-1" d="M20.75,12.67c-.26-.13-.3-.11-.08.86,1.66-.14,3.06-.32,4.63-.79-1.73-.81-2.55-.32-4.55-.08Z"/>
    </g>
  </g>
</svg>