<?xml version="1.0" encoding="UTF-8"?>
<svg id="Warstwa_2" data-name="Warstwa 2" xmlns="http://www.w3.org/2000/svg" viewBox="0 0 57.4 56.64">
  <defs>
    <style>
      .cls-1 {
        fill: #fff;
      }
    </style>
  </defs>
  <g id="icon-v10-loot-pixarts-store">
    <g id="icon-v10-loot-pixarts-store_159">
      <polygon class="cls-1" points="17.46 32.2 18.92 29.07 15.59 30.7 17.46 32.2"/>
      <path class="cls-1" d="M35.65,10.24c-12.47,6.86-13,15.74-18.7,26.29-2.07,3.83-6.43.31-12.56,4.45,2.7,1.72,5.63,2.62,8.9,2.81-.07,3.29,1.24,6.14,2.89,8.89,2.02-3.18,2.58-6.53,2.3-10.28.52-.98,1.91-2.19,2.98-2.65l9.42-4.05c2.5-1.08,4.66-2.64,6.83-4.15.09.8-.1,2.12.2,2.45l1.82,2.07c.99-1.83,1.75-3.47,1.93-5.95l-1.81,1.09c0-.34.26-1.37.59-1.73,4.41-4.81,9.21-12.02,9.37-19-1.58.7-2.34,1.31-3.38,2.32l.84-6.06c-4.34-.04-7.99,1.5-11.61,3.49ZM41.75,10.18c.81,0,1.46.65,1.46,1.46s-.65,1.46-1.46,1.46-1.46-.65-1.46-1.46.65-1.46,1.46-1.46ZM35.31,26.98c-1.3.11-5.02.26-5.59-.86-.87-1.73,4.15-5.56,6.41-5.69l-4.81,4.61c2.03.52,3.51.72,5.23.04.78-.31,1.43-1.77,2.14-2.81.51,2.2-.83,4.49-3.39,4.71ZM38.67,19.4c-1.96-1.46-3.14-4.17-2.47-6.72,1.26,4.57,4.64,7.15,9.51,7.09-2.16,1.4-4.96,1.18-7.04-.37Z"/>
      <path class="cls-1" d="M2.55,56.43c2.33-2.26,4.63-4.52,6.69-7.09.51-.64.58-1.84,1.35-2.24.5-.26.98-1.2.65-1.5-.28-.25-1.52-.46-1.89-.12L.11,54.23c-.61,1.11,1.54,3.07,2.44,2.2Z"/>
      <path class="cls-1" d="M21.89,21.94l5.34-7.32c-3.32.25-6.14,1.54-8.54,3.46,1.86.81,2.87,2.02,3.2,3.87Z"/>
      <path class="cls-1" d="M48.91,7.4c-.04.43.96,1.09,1.3.97.29-.1.81-.44,1.05-.69l3.89-4c1.04-1.07,2.08-2.09,2.25-3.68-3.06,2.06-5.88,4.75-8.49,7.4Z"/>
      <path class="cls-1" d="M27.26,42.69c1.38-1.44,2.43-3.09,2.79-4.96l-6.39,2.6c1.75.61,2.61.99,3.6,2.36Z"/>
    </g>
  </g>
</svg>