<?xml version="1.0" encoding="UTF-8"?>
<svg id="Warstwa_2" data-name="Warstwa 2" xmlns="http://www.w3.org/2000/svg" viewBox="0 0 51.46 48.06">
  <defs>
    <style>
      .cls-1 {
        fill: #fff;
      }
    </style>
  </defs>
  <g id="icon-v10-loot-pixarts-store">
    <g id="icon-v10-loot-pixarts-store_176">
      <path class="cls-1" d="M3.85,18.7c.59.25,2.58-.41,2.4-1.02l-2.85-9.45c-.26-.87-3.35-.67-3.39.27-.15,3.06.86,5.73,1.96,8.54.28.71,1.29,1.42,1.88,1.67Z"/>
      <g>
        <path class="cls-1" d="M1.16,19.33c-2.74,2.46,2.19,13.48,3.75,16.17,2.24,3.86,11.42,14.16,15.87,10.23-1.8-1.49-1.95-4.14-.32-5.58,3.26-2.89,6.02,2.09,7.44,1.77.49-.11,1.36-.67,2.03-1.12-1.85-1.63-1.64-3.86-.18-5.13,3.6-3.13,5.66,1.99,6.91,1.01l1.66-1.3c-1.99-1.22-2.14-3.19-1.1-4.86,2.01-3.22,5.74,1.03,6.4.11l.75-1.06c-1.67-1.09-2-2.84-1.2-4.3.78-1.43,2.37-1.77,4.24-.98.87-5.09-6.72-3.58-11.87-16.21-.37-.91-1.52-2.3-2.25-1.99-.38.96-.7,2.08-1.08,2.59-.38.52-1.99.69-2.6.47-5.66-1.99-2.04,3.68-6.25,4.39-1.1.18-2.23-.32-3.44-.95l-3.26,1.17c-.03,1.45-.56,2.73-1.59,3.17-2.72,1.17-4.05-1.12-5.41-1.08-3.24.09-1.24,3.54-3.42,4.09-1.75.44-3.24-.17-5.06-.64ZM30.38,11.47c2.32,3.84,4.02,7.25,7.07,10.2-.73-.21-1.32-.47-1.72-.67-.31-.15-.48.04-1.16.28-1.69-3.2-4.42-5.85-4.19-9.82ZM22.42,16.2c.01-.19.82.42.94.71,1.61,3.73,4.46,8.54,8.13,11.37-3.8,0-9.35-8.6-9.08-12.08ZM15.62,25.89c.47.26,1.38.82,1.65,1.29l3.13,5.45,1.66,2.88c-4.3-1.62-8.85-10.44-9.9-15.42l3.46,5.8ZM7.33,29.92c3.79,7.84,4.46,4.83,5.39,8.81-4.78-4.24-8.64-9.75-9.36-16.21,2.01,2.38,2.76,4.91,3.97,7.4Z"/>
        <path class="cls-1" d="M23.57,40.84c-.7-.49-2.19.17-2.61.92-1.14,2.05,3.25,4.81,5.1,6.09,1.26.87,4.41-1.15,3.63-2.69l-6.13-4.32Z"/>
        <path class="cls-1" d="M13.91,15.86c3.14.3-.61-6.52-.68-9.42-.5-.95-3.46-.61-3.87.48.41,2.67,1.16,5.6,2.33,7.99.26.53,1.67.89,2.22.95Z"/>
        <path class="cls-1" d="M30.68,36.7c-2.37,1.9,2.93,5.03,4.64,5.93,1.52.8,4.2-1.55,3.61-3.03l-6.2-3.33c-.49-.26-1.62.08-2.05.42Z"/>
        <path class="cls-1" d="M45.36,35.98c.61-.35,1.43-2.31.79-2.59l-6.02-2.64c-.72-.31-1.82.34-2.03,1.05-.15.5.11,1.73.63,2.08l3.89,2.63c.62.42,2.12-.18,2.73-.52Z"/>
        <path class="cls-1" d="M23.64,11.87c.74-.46.74-1.47.48-2.48l-1.42-5.56c-.44-.9-3.55-.3-3.43,1.02.18,2.06,1.33,8.91,4.37,7.02Z"/>
        <path class="cls-1" d="M28.62,6.98c.23.75,1.69,1.15,2.3.82.64-.35.7-1.18.48-2.26l-1.03-4.98c-.11-.55-1.61-.65-2.15-.47-.46.15-1.38,1.08-1.22,1.61l1.62,5.29Z"/>
        <path class="cls-1" d="M44.2,26.51c0,.57.53,1.64,1,1.93l2.37,1.49c.88.55,2.37.56,3.13-.12.54-.48,1.12-2.16.46-2.44l-5.37-2.24c-.54-.22-1.6.81-1.6,1.37Z"/>
      </g>
    </g>
  </g>
</svg>