<?xml version="1.0" encoding="UTF-8"?>
<svg id="Warstwa_2" data-name="Warstwa 2" xmlns="http://www.w3.org/2000/svg" viewBox="0 0 54.54 40.43">
  <defs>
    <style>
      .cls-1 {
        fill: #fff;
      }
    </style>
  </defs>
  <g id="icon-v10-loot-pixarts-store">
    <g id="icon-v10-loot-pixarts-store_190">
      <path class="cls-1" d="M44.94,34.13c-.36-.97-.82-1.54-1.71-1.85l-4.75-1.61c-.99-.05-2.39,1.66-3.18,2.23l-2.24,1.31.29,3.97c1.52.7,3.57,1.71,5.42,2.24,1.98-.79,3.7-1.63,5.24-2.48,1.49-.82,1.43-2.47.93-3.81ZM43.5,36.68l-3.13.55-2.39-2.71,1.42.48c1.56.53,2.49.49,4.31-.49,0,.41-.11,1.58-.21,2.17Z"/>
      <path class="cls-1" d="M31.04,29.84l5.39-3.15-2.55-5.13,1.22-2.19c1.01-1.81,1.86-3.23,3.25-5.06-1.65-3.94-2.24-3.3-4.32-8.09-1.05-2.42-4.31-1.32-5.78-2.1L20.67.11c-.88-.47-2.53.69-3.4,1l-9.73,3.53c-3.07,6.37-.16,4.64-4.61,9.72-.78.89-.37,3.56.29,4.68l2.34,3.91,4.08-1.01c2.58,1.97,5.18,3.46,8.06,4.86,1.61,1.75.26,5.1,3.97,5.38,8.71.66,5.28.06,9.37-2.34ZM29.43,5.67c.95-.11,2.41.09,3.19.79-.6,1.64-1.58,3.03-2.01,4.74l1.43,4.27-3.34-3.65c-.7-1.55,1.24-3.58.72-6.15ZM20.77,20.86c-.72-.95-3.41-1.54-4.58-1.28-1.63.35-2.69,2.22-3.26,3.66l-1.77-2.35,3.02-3.3-3.44-5.4c-.71-1.11-1.85-1.46-3.39-1.64l.78-3.36c1.21,3.65,4.2,1.41,6.05,5.86.32.76,1.05,2.47,1.82,2.88,1.77.95,3.98,1.82,5.94,2.02,1.52.15,2.94-.79,4.6-.45l-3.72,2.33c.55,2.14,1.55,4.23,2.68,6.16l3.08.66c-2.3.71-3.34,1.61-5.63,3.59l.83-3.89c-.94-1.82-1.75-3.79-3.02-5.48Z"/>
      <path class="cls-1" d="M48.62,28.99c2.53-1.3,4.44-3.18,5.92-5.36l-1.1-4.64-3.32-4.09c-.65-.81-2.22-1.83-3.15-2.36-2.96-.06-4.97,2.1-6.07,4.63l-1-.83c-.22-.18-1.17.42-1.31.7l-2.34,4.75c1.21,2.31,2.42,4.32,3.96,6.19,2.98-.24,5.41.08,8.41,1.01ZM52.53,24.17l-3.2,3.12c-.37-4.16,1.93-1.78,2.93-5.14l.63.64c.22.23-.11,1.12-.36,1.37ZM47.64,19.96c1.46-.44,2.09-1.54,2.42-3.05l2.27,2.44c.32.34.11,1.54-.11,2.19l-.98-1.38-4,1.64c-.87.36-2.38-.11-3.4-.68l3.8-1.15ZM42.77,23.66l-1.66,3.66-.92-2.73,2.58-.93Z"/>
      <path class="cls-1" d="M0,31.98c1.49,1.75,3.14,4.7,5.71,4.86l5,.32c2.33-.39,6.15-1.1,6.63-3.96l-1.03-4.83c-5.57-2.07-3.57-2.33-7.5-4.56-2.49.89-4.66,1.83-6.86,3.05l-1.96,5.11ZM4.03,27.43c.13-.09-.12.55-.13.71l-.18,1.78c-.05.44.83.83,1.31,1.16,1.31.91,2.42.61,3.9.41l3.79-.5c-.96,2.86-4.4.31-4.97,3.88-.1.61-1.01,1.08-1.82,1.1-.26-2.56-1.8-3.79-4.51-4.07l1.66-4.06c.06-.15.82-.32.95-.41Z"/>
    </g>
  </g>
</svg>