<?xml version="1.0" encoding="UTF-8"?>
<svg id="Warstwa_2" data-name="Warstwa 2" xmlns="http://www.w3.org/2000/svg" viewBox="0 0 53.43 60.76">
  <defs>
    <style>
      .cls-1 {
        fill: #fff;
      }
    </style>
  </defs>
  <g id="icon-v10-loot-pixarts-store">
    <g id="icon-v10-loot-pixarts-store_124">
      <path class="cls-1" d="M33.18,19.93c-1.69-2.21,1.26-3.05,1.59-5.29l-4.82.13c2.28-6.91,9.12,2.31,9.78-8.15-1.98,1.19-2.73,4.32-5.92,2.42-.15-1.68,2.49-4.4-.02-6.41l-3.3-2.64,1.48,3.84-2.19,5.48c-.39-2.18.29-3.45-1.49-4.48l-1.6,2.02-1.29-2.21c-1.71.89-1.51,2.09-1.69,4.44l-2.2-5.34,1.29-3.5c-1.95,1.13-3.38,2.55-4.33,4.36l1.18,4.15c-.6,1.58-2.88.96-3.73.01l-2.3-2.57c.11,1.79.39,3.16,1.15,4.55,1.88,3.45,7.09-1.62,8.59,4.03h-4.69s1.87,3.16,1.87,3.16c.2.43-.13,2.02-.61,1.97-3.03-.34-3.22-2.65-4.17-5.22l-15.77-.93,1.18,2.93,8.58.23c-2.57.78-4.61,1.1-7.78,1.65.41.65,1.31,1.9,1.87,2.55,2.66-.6,4.61-1.07,7.22-1.35l-5.66,2.84c.38.71,1.74,2.18,2.41,1.86l5.43-2.53-3.51,3.75c.63.39,2.42,1.05,3.19.8l3.2-3.22-1.48,3.68c.66.01,2.1-.03,2.71-.21l2.17-3.16.66,2.97c.52.08,2.26-.2,3.12-.47.37-.12,1.44.53,1.28.89-.32.78-2.64,3.13-4.87,1.81l-.53,4.97c-.15,1.44-2.77,2.3-4.04,2.23-1.28-.07-3.04-1.03-3.55-2.38-.15-.39.18-1.43.55-1.57l1.9-.72c-1.68-.93-3.48-1.88-5.52-1.6l2.94,1.14-2.13,1.08c-2.46,1.25,2.53,5.88,4.91,6.55l.15,1.14c.12.9,2.52-3.19,4.82-2.48.08,2.63.05,5.08-.53,7.37-.44,1.73-4.92.73-7.15-2.77-.21,1.47.49,3.36,1.77,4.31,1.37,1.01,3.36.38,5.01,0l1.25,1.22c.3.29,1.67-.43,2.08-.32,1.05.29,2.69,2.44,2.26,3.65-1.42.58-3.41.34-5,.18l-.79,5.23c.39.7,1.47,1.71,2.12,2.15l1.06-3.24.28,3.27c.03.37.32,1.24.51,1.53.19.29,1.19.26,1.28-.11l1.27-5.03.62,5.74c.33.62,2.91.61,2.98-.14l.44-5.52,1.53,5.2c.42.45,1.72-.66,1.73-1.21l.06-3.68,1.31,3.11c.63-.42,1.92-1.48,1.99-2.18l-.67-5.1-3.69.28c-.43.03-1.5-.35-1.63-.76-.37-1.21,1.85-3.51,2.38-3.44l2.94.38-.69-12.23,4.35,1.05c1.39.34,2.43,1.03,3.08,2.39.45.93.33,2.29-.55,3.2-1.61,1.68-4.14,5.43-2.78,6.31.45.29,1.35.61,1.8.7-3.74-5.1,4.28-5.99,4.15-10.18-.1-3.2-3.39-4.89-6.13-5.06-2.63-.16-3.84-2.2-4.16-4.59-2.42,1.01-5.5-1.34-4.86-2.24.24-.34,1.07-.57,1.51-.47l2.67.6.85-3.33,2.31,3.3c.36.52,2.22.29,2.57.21l-1.2-3.32,2.98,2.87c.62.6,2.66-.25,3.15-.79l-3.6-3.7,5.67,2.64c.82-.28,2.03-1.42,2.32-1.98l-5.38-2.79c2.6-.25,6.31,1.9,7.5.75.45-.44,1.09-1.67,1.16-2.11-2.88-.47-4.86-.71-7.35-1.54l8.35-.3,1.08-2.83-15.05.8c-1.86.1-.79,5.2-5.2,5.33ZM21.27,42.2l.21-7.71c1.27,1.56,1.84,2.39,3.18,4.44l-3.4,3.27ZM26.72,47.14c-1.38,0-2.49-1.12-2.49-2.49s1.12-2.49,2.49-2.49,2.49,1.12,2.49,2.49-1.12,2.49-2.49,2.49ZM31.9,34.32c.3,3.09.37,4.87.23,7.73-1.49-1.26-2.24-1.97-3.3-3.08l3.07-4.65ZM28.83,32.29c-.05,1.74-.96,2.97-2.17,4.46-1-1.27-2.1-2.74-2.15-4.33-.02-.81,1.4-2.09,2.15-2.71.76.5,2.19,1.78,2.17,2.58ZM26.73,23.7c-1.86,0-3.37-1.51-3.37-3.37s1.51-3.37,3.37-3.37,3.37,1.51,3.37,3.37-1.51,3.37-3.37,3.37Z"/>
      <path class="cls-1" d="M40.78,31.31c2.43,1.02,3.96,1.98,4.42,4.09.4-1.07.62-2.28.28-2.69-1.01-1.23-3.22-2.62-4.69-1.4Z"/>
      <path class="cls-1" d="M26.76,18.82c-.84,0-1.51.68-1.51,1.51s.68,1.51,1.51,1.51,1.51-.68,1.51-1.51-.68-1.51-1.51-1.51Z"/>
    </g>
  </g>
</svg>