<?xml version="1.0" encoding="UTF-8"?>
<svg id="Warstwa_2" data-name="Warstwa 2" xmlns="http://www.w3.org/2000/svg" viewBox="0 0 58.79 60.76">
  <defs>
    <style>
      .cls-1 {
        fill: #fff;
      }
    </style>
  </defs>
  <g id="icon-v10-loot-pixarts-store">
    <g id="icon-v10-loot-pixarts-store_65">
      <path class="cls-1" d="M46.51,25.46c-1.24.09-1.74,1.46-2.07,2.59-.36-.46-.86-.89-1.35-.99l-3.14-.64c-1.52-.31-.96,2.73-5.84,1.5,6.88-2.26,1.94-2.05,5.53-4.27,1.14-.71,2.11-1.35,3.16-2.42-2.43-.39-3.89-1.21-3.96-3.82-.92.25-1.58.94-1.87,1.82l-1.09,3.25-.48-1.39c.02.05-3.26,1.15-3.83,3.23-.29-1.94.84-3.08,2.44-4.14l-1.28-3.32c-.36-.93.4-2.99.38-4.02l-1.69-1.81c3.24,0,5.68-2.11,5.37-5.15-1.4,1.25-2.51,1.73-4.1,1.45-1.16-.21-1.92-.95-3.08-2.27-.77.66-1.97,2.17-2.14,3.14.68,2.76,1.71,5.18.45,7.97l-.31-2.07-2.61,5.8c3.89,4,3.84,5.92,3.57,11.56l3.38-.49c5.44-.79,6.83,5.07,8.22.71,4.46-1.73,7.86,3.06,8.81-1.64-2.18-.57-2.74-2.21-2.45-4.58Z"/>
      <path class="cls-1" d="M54.36,15.23c.65-3.6-.85-7.6-3.73-9.62-3.11-2.18-7.23-2.85-10.62-.95l2.24,2.55c-1.2-.19-1.97-.89-2.75-1.73-.19-.06-1.1.33-1.19.65l-1.29,4.21c1.84.55,2.15-1.45,4.23-1.52-.76.98-1.46,1.62-2.47,2.5l-.32,2.82c-.39-1.3-.82-2.85-1.78-3.5-.38-.25-1.52.53-1.64,1.04-.41,1.79-.02,4.38.8,6.06,1.16-1.06,2.06-1.3,3.25-1.9l5.49-2.76c.36-.18,1.27-.07,1.53.09,1.54.95-1.42,5.73-1.95,7.17-.51,1.4-.43,2.5-2.21,3.42,1.06.52,2.17.66,3.24.21.85-.36,1.58-1.46,1.71-2.53l.46-3.64c1.98.37,2.83,1.84,3.89,3.47.86-5.33,2.88-4.85,3.09-6.05ZM47.46,14.43c-2.51-3.44-2.51-2.46-3.62-6.63l2.9-1.46c.44-.22,1.44-.15,1.69-.02l-4.24,2.66,3.7,4.27c.52.6,2.71.31,3.16-.2l1.44-2.67c-.47,2.41-.71,3.71-.13,5.77l-1.45-2.04-3.45.32Z"/>
      <path class="cls-1" d="M19.78,34.48l-1.46,3.83-.12-1.92c-1.49,2.04-3.09,3.39-4.77,5.03l-5.23,5.12c.53,2.78,2.91,5.32,5.67,5.57,2.91-3.31,5.74-6.37,9.01-9.6h-3.14s5.65-2.48,5.65-2.48c.7-.31,4.82-2.47,3.63-4.26l-5.45.59c.25-1.77.59-4.08.49-5.99-1.1-1.58-4.15,3.74-4.29,4.1Z"/>
      <path class="cls-1" d="M25.77,24.25l-1.86,2.49c-.19.25-.27,1.02-.14,1.3.55,1.11,2-1.25,1.37,6.73l5.23-.37c.29.95.37,1.31.59,1.68.23.37,1.62.24,1.93-.09l2.47-2.56c-1.25-.99-2.97-1.39-4.57-1.19l-3.61.44.28-3.94c.12-1.74-.45-3.41-1.7-4.49Z"/>
      <path class="cls-1" d="M34.32,6.2l5.32-3.45c1.8-1.16,4.01-1.37,6.13-1.69-5-2.39-11.09-.63-14.13,4.29.38.67,2.04,1.26,2.68.85Z"/>
      <path class="cls-1" d="M13.84,55.26c.39-.35.62-1.45.54-1.86-3.44.72-7.79-4.34-7.21-7.26-1.08-.46-2.6.69-2.34,2.03,1.17,6.01,7.24,8.69,9.02,7.08Z"/>
      <path class="cls-1" d="M54.59,17.23c-1.71.84-1.62,2.87-1.48,4.43-.55.42-1.6,1.28-1.62,1.89l-.12,3.75,4.85-2.82c1.08-.63,2.32-1.18,1.78-2.37-2.63.29-3.46-2.74-3.43-4.88Z"/>
      <path class="cls-1" d="M6.42,53.93c-1.04-.87-4.09.95-4.52,1.7-.97,1.67-1.44,3.18-1.89,5.12,1.9-.72,3.22-1.27,4.9-2.18.6-.33,2.86-3.52,1.52-4.65Z"/>
      <path class="cls-1" d="M57.34,21.18c2.25-3.42,1.83-8.08-.85-11.15,1.09,5.43-2.99,9.85.85,11.15Z"/>
      <path class="cls-1" d="M48.59,19.91l-1.62,6.01c-.27.99.87,2.35,1.8,2.88,1.8-2.82,2.03-6.25-.18-8.89Z"/>
      <path class="cls-1" d="M42.74,19.62c1.26-1.68,1.98-3.16,2.38-5.34-1.92.74-3.27,1.53-4.81,2.7-.49.37-.18,1.74.2,2.18.39.44,1.82,1,2.23.46Z"/>
      <path class="cls-1" d="M5.09,52.6l-1.24-2.49c-.31.21-1,.76-1.08,1.08l-.7,2.85,3.03-1.44Z"/>
      <path class="cls-1" d="M7.82,55.64l-1.44,2.96,2.92-.84c.31-.09.79-1.06.48-1.21l-1.95-.9Z"/>
    </g>
  </g>
</svg>