<?xml version="1.0" encoding="UTF-8"?>
<svg id="Warstwa_2" data-name="Warstwa 2" xmlns="http://www.w3.org/2000/svg" viewBox="0 0 57.94 58.39">
  <defs>
    <style>
      .cls-1 {
        fill: #fff;
      }
    </style>
  </defs>
  <g id="icon-v10-loot-pixarts-store">
    <g id="icon-v10-loot-pixarts-store_35">
      <path class="cls-1" d="M34.64,48.35l-1.63,1.46c.22-1.11.74-2.84-.13-3.44-2.03-1.41-5.3-1.04-6.8.75-.87,1.03-1.42,1.65-2.82,1.5-3.18-.34-6.51.18-8.64,2.58,7.59-1.46,11.09,3.34,16.18,4.08,2.14.31,4.09-1.32,4.76-2.79.73-1.61.45-3.33-.92-4.15Z"/>
      <path class="cls-1" d="M26.67,18.15c4.83.56,9.42-2.64,9.92-7.68l.73,2.63c2.26-3.61,2.39-5.5-.27-8.21.9-.03,1.47.04,1.8-.16.33-.19-.19-1.53-.53-1.75-2.22-1.44-5.59-.65-7.2,1.52-1.6,2.15-1.77,5.01.27,7.2.65.7.85,2.04.3,2.91-1.19,1.88-3.04,2.69-5.03,3.52Z"/>
      <path class="cls-1" d="M10.27,30.52c-3.09-.23-6.13,2.38-5.19,2.89l.94.51c0,1.13-2.22-.04-2.73.4-3,2.58-4,7.53-2.81,11.19,4.79-13.56,10.99-4.12,12.75-10.72.42-1.58-.59-4.1-2.97-4.28Z"/>
      <path class="cls-1" d="M34.85,34.03c-.71-.82-2.2-1.21-3.37-.96l-3.62.78,2.12-1.66c-.95-2.37-5.88,1.51-7.37,2.75l1.61,4.11c1.9-1.34,3.65-1.06,4.81.78.41.32,5.88-1.52,6.15-1.86,1.02-1.29.45-3.06-.33-3.96Z"/>
      <path class="cls-1" d="M40.22,5.44c2.28,1.66,7.44-.4,7.56-2.18.21-3.02-7.88-4.29-10.22-2.31,1.96.78,3.11,2.37,2.66,4.49Z"/>
      <path class="cls-1" d="M41.02,33.49c-.59-2.69-8.18-6.38-10.46-2.68,1.91,2.47,5.38-.68,6.55,6.37,1.81.06,4.41-1.44,3.91-3.69Z"/>
      <path class="cls-1" d="M52.48,20.01l-2.09-1.78c-.59-.5-1.97-.59-2.66.03-1.39,1.23-2.02,2.9-2.11,4.64,2.49-.2,3.34,1.45,4.41,2.96,1.34-1.28,3.44-3.95,2.45-5.85Z"/>
      <path class="cls-1" d="M45.35,31.85c-.51-2.13-1.94-3.61-3.61-4.31-2-.84-3.8-.92-5.84.73,2.62,2.92,5.42.25,6.14,6.52l3.3-2.94Z"/>
      <path class="cls-1" d="M14.29,55.9c5.2,3.48,9.04,2.99,14.41.5l-3.96-2.21c-3.14,1.93-6.81,1.99-10.45,1.72Z"/>
      <path class="cls-1" d="M45.71,6.43c.9,1.91,3.03,4.29,5.49,3.8,2.46-.49,0-7.73-2.19-7.95.46,2.35-1,3.64-3.3,4.15Z"/>
      <path class="cls-1" d="M48.12,25.59c.13-1.42-5.3-2.62-7.28.73,3.17.81,4.66,2.24,5.55,5.2,1.64-1.01,2.41-2.36,2.59-3.72-.68-.06-1.2-.11-1.06-.1l.2-2.11Z"/>
      <path class="cls-1" d="M48.43,11.18c-.79,1.24-.52,3.96.86,4.74,1.21.69,1.91,1.16,3.05,2.05,1.42-2.18,2.14-5.42.69-7.41-1.27,1.17-2.91,1.52-4.6.62Z"/>
      <path class="cls-1" d="M34.93,46.79c1.39,1.11,2.32,2.11,2.7,3.82,1.75-1.97,3.11-5.11,1.22-7.67-1.73.75-3.31,2.44-3.92,3.85Z"/>
      <path class="cls-1" d="M42.89,39.96c-2.17,2.09.15,4.45.64,5.98-.4,2.25-1.64,5.37.69,7.21-.61-7.02,2.92-6.65-1.33-13.19Z"/>
      <path class="cls-1" d="M50.56,39.86l-3.4-3.81c-.82.87-.8.91-.67-.46-2.6.66-4.65,1.3-7.06,2.33,3.56.69,4.31.92,6.59-.78.63,1.23,1.53,2.55,2.53,3.56h1.72c-1.59,1.96-.36,7.4,2.53,8.15l-1.22-2.43c-.95-1.9-.16-4.47-1.03-6.56Z"/>
      <path class="cls-1" d="M49.98,33.15c.89,1.29,1.23,1.79,1.86,2.27.5.38,1.77.17,2.35-.5-1.08-1.31-2.98-3.02-4.59-3.15-2.02.03-3.91,1.87-5.47,3.11l3.83-.21,2.03-1.53Z"/>
      <path class="cls-1" d="M38.36,41.98c-1.39-.81-7.67-2.58-8.28-.3,3.23,1.79,5.24,2.96,8.28.3Z"/>
      <path class="cls-1" d="M14.78,33.39c.72.09,2.79-.21,3.1-.93l1.11-2.57c-2.21-.28-4.08-.05-5.75.61l1.55,2.89Z"/>
      <path class="cls-1" d="M19.98,29.99c-1.47,1.97-.37,3.77.99,5.54l1.84-2.56c-.56-1.26-1.54-2.53-2.82-2.97Z"/>
      <path class="cls-1" d="M21.64,29.46c.16.53,1.2,1.07,1.5.81l1.31-1.12.96,2.15c.31.13,1.58-.51,1.52-.97-.12-.86-.81-2.37-1.42-3.16-1.43.51-2.89,1.35-3.87,2.28Z"/>
      <path class="cls-1" d="M27.24,27.45c-.12.24.36.87.6,1.15l1.66-1.71.4,2.55,1.36-.61c.67-.3.26-3.53-.69-3.56-1.26-.04-2.99,1.46-3.34,2.18Z"/>
      <path class="cls-1" d="M34.97,39.46c2.86,1.27,6.25,2.88,7.51-.11-2.81-.16-4.96-.53-7.51.11Z"/>
      <path class="cls-1" d="M54.56,35.63c-1.68.65-1.15,1.89-.83,3.08.58,2.12,1.84,4,4.21,3.87l-2.19-2.05-1.19-4.9Z"/>
      <path class="cls-1" d="M6.92,39.06l-1.93,4.08c2.53-.74,3.77-2.51,4.71-4.71-.89-.28-2.46-.05-2.78.63Z"/>
      <path class="cls-1" d="M23.2,42.78c1.44.37,3.06.25,4.35-1.01.5-.49.35-1.78-.15-2.14-2.02-1.45-1.8,1.57-4.2,3.15Z"/>
      <path class="cls-1" d="M33.08,27.95c1.48-.28,2.92-.88,3.42-2.07.19-.46.01-1.49-.21-1.72-.96-.99-2.98,3.03-3.2,3.79Z"/>
      <path class="cls-1" d="M20.99,36.79c-.92.81-1.59,3.06-.61,4.24l1.57-2.33c.22-.33.45-1.01.41-1.37-.04-.36-1.06-.81-1.37-.55Z"/>
      <path class="cls-1" d="M18.77,34.57c-1.91,1.38-.84,1.67-3.25,3.45,1.63.63,2.81-.85,3.52-2.38.12-.25-.06-1.22-.27-1.07Z"/>
    </g>
  </g>
</svg>