<?xml version="1.0" encoding="UTF-8"?>
<svg id="Warstwa_2" data-name="Warstwa 2" xmlns="http://www.w3.org/2000/svg" viewBox="0 0 46.58 51.48">
  <defs>
    <style>
      .cls-1 {
        fill: #fff;
      }
    </style>
  </defs>
  <g id="icon-v10-loot-pixarts-store">
    <g id="icon-v10-loot-pixarts-store_114">
      <path class="cls-1" d="M10.16,24.76c.98,1.94.65,4.06-.19,6.2-1.53,3.89.36,5.26-2.96,8.48-.1.61.43,1.96.79,2.95l-4.43,2.45c1.87.14,3.62-.71,4.97-1.63l2.82,2.97,3.78-1.13c.71-.21,2.26.32,2.49.97.2.57.29,1.97.35,2.9,4.83,3.4,11.98,3.38,16.85-.02-.05-1-.08-2.25.2-2.84.28-.59,1.86-1.27,2.5-1.07l3.82,1.18c1.88-1.69,3.64-4.14,4.32-6.42-3.51-3.6-1.55-4.26-3.09-8.62-.67-1.91-1.63-3.9-.42-5.54.25,4.83,1.34,3.21,2.65,8.88,1.42-3.94,2.58-8.18,1.65-12.57-1.61.02-3.86-.06-5-.82-.4-2.45,1.57-3.88,3.69-4.47-.3-1.19-.67-2.01-1.4-2.87l-3.42,4.82-5.97,1.47c.31,1.98.84,3.34,1.58,5.64l-2.65-3.06c-1.54-1.78-3.26,4.29-4.11,3.62.47-1.11.82-2.45.97-3.71,5.52-2.72,1.11-7.14,2.31-9.77l2.3-5.01-2.41,1.39c-1.18-.57-1.97-2.03-2.42-3.28-3.8-1.79-11.8.68-15.5,2.73-.11,1.11-.04,2.86.44,3.49l1.74,1.06c1.03.62-1.09,3.04.31,6.55.39.52-.15-.19-.5-.65-3.17-2.05.98-4.34-1.83-5.53-1.42-.6-1.97-1.62-2.11-3.14-7.9,6-7.83,15.85-4.54,24.08,1.25-5.2,2.55-4.43,2.45-9.67ZM29.61,33.52c2.41-2.96,7.9-3.64,10.64-.63,1.41,1.55.74,5.68-1.19,6.75-2.71,1.49-6.03.09-8.26-1.29-1.5-.92-2.43-3.31-1.18-4.83ZM27.05,10.12c1.62.59,2.82,1.79,3.03,2.82.26,1.28-.06,3.81-1.42,3.97-1.14.13-2.7-1.9-2.9-2.93-.21-1.11.46-3.2,1.29-3.86ZM27.34,38.46c.77,2.68,2.75,5.29,1.51,7.57-.16.3-1.21.53-1.4.22l-1.39-2.33-1.2,2.31c-.14.28-.94.11-1.19-.08-.32-.23-.89-1.41-.76-1.81l1.94-5.89h2.49ZM12.1,32.69c2.86-2.91,8.28-2.01,10.59,1.03,1.16,1.53.12,3.87-1.53,4.82-2.22,1.27-5.15,2.23-7.66,1.3-2.23-.82-3.13-5.4-1.41-7.15Z"/>
      <path class="cls-1" d="M43.28,11.71c-.81-.18-1.46-.26-1.66.02l-2.01,2.71.88-2.23c1.02-.69,1.23-3.47-.08-3.79-2.07-.51-6.3,4.88-4.09,7.39,1.03-.24,2.33-.8,3.1-1.29.09.54.2,1.05.49,1.9l3.37-4.72Z"/>
      <path class="cls-1" d="M12.12,7.43c.26.13.95.5,1,.27l.21-.83c.04-.15-.49-.41-.73-.5l-3.41-1.26c-.32-1.9-.95-3.48-2.08-5.11.41,1.88.7,3.37,1.02,5.5l3.99,1.93Z"/>
      <path class="cls-1" d="M36.95,7.23c-1.34,1.95-2.31,3.62-3.28,5.97,1.11.75,5.2-5.77,3.28-5.97Z"/>
      <path class="cls-1" d="M3.31,17.8c.6.41,1.74.47,1.96-.12-4.72-3.01.47-3.75-5.28-5.35,3.76,2.62.99,3.85,3.31,5.46Z"/>
      <path class="cls-1" d="M46.07,20.59c-.01-1.22-.14-1.62-.82-2.54-1.45.58-1.98.83-3.14,1.7,1.4.74,1.98.79,3.96.84Z"/>
      <path class="cls-1" d="M42.37,10.89c.14.17,1.12-.45,1.07-.69l-.76-3.82c-1.5,1.19-1.56,2.96-.31,4.5Z"/>
      <path class="cls-1" d="M41.36,6.74c.19-.19.37-1.17.13-1.13l-.95.17c-.88.16-2.36.83-2.92,1.39,1.09,1.78,2.77.53,3.75-.43Z"/>
      <path class="cls-1" d="M32.18,7.57c.79-.71,1.34-1.71,1.26-2.32-.06-.49-1.17-.99-1.62-.8-.92.4-.61,3.15.36,3.12Z"/>
      <path class="cls-1" d="M36.92,16.22c-.52.21-.96.79-1.49,1.65,1.58,0,2.7-.19,4.17-.94-.81-.79-1.98-.99-2.68-.71Z"/>
      <path class="cls-1" d="M33.5,13.73l.94,4.28c.59-.87,1.05-1.73,1.07-2.37.03-.89-.6-1.69-2.01-1.91Z"/>
      <path class="cls-1" d="M28.14,15.49l.76-.33c.2-.09.4-1.05.28-1.26l-1.43-2.59c-.41.18-1.39,1.2-1.17,1.61.17.32,1.67,2.52,1.56,2.57Z"/>
    </g>
  </g>
</svg>