<?xml version="1.0" encoding="UTF-8"?>
<svg id="Warstwa_2" data-name="Warstwa 2" xmlns="http://www.w3.org/2000/svg" viewBox="0 0 48.89 53.37">
  <defs>
    <style>
      .cls-1 {
        fill: #fff;
      }
    </style>
  </defs>
  <g id="icon-v10-loot-pixarts-store">
    <g id="icon-v10-loot-pixarts-store_118">
      <path class="cls-1" d="M19.41,48.72l-3.3.73c-1.55-1.53-1.59-3.4-.83-5.22,1.9-4.57,8.15-1.28,7.9-8.34l2.23-1.93c-1.08,2.33-1.31,3.96-.57,5.83l13.87-3.54,2.07-4.17,2.24-.85c-2.21-4.23,2.24-3.91.57-7.67l-3.24-7.28c-.09-.21-1.35-.26-1.59-.28s-.1-.67.09-.8l.93-.63c-1.15-2.62-1.94-6.98-5.88-7.45-2.16-.26-1.73,3.3-4.85,4.81,3.31-4.48-.69-1.45,3.35-6.66l-3.18-.27-3.74-2-7.41,1.79.47,2.43-2.28-1.84c-3.4.45-6.71,1.05-9.94,2.28l2.55,6.67,2.88,1.21c1.64.04,3.19.36,4.13,1.67l-2.72-.97.07,1.79c-.92-.78-2.19-1.48-3.54-1.83,2.5,7.22,5.16,13.49,6.6,20.75L5.21,8.36c-1.7-.25-3.39.83-4.15,2.33-1.25,2.47-1.5,5.26-.15,7.52.99-1.94,1.49-4.13,3.82-4.54-1.43,2.57-5.33,9-1.83,10.63.58-2.38.3-5.2,3.07-6.26-.84,2.38-2.5,4.66-1.71,6.94l4.08,11.84c.83-1.37,1.48-2.4,2.77-3.18l-2.44,6.36c-.42,1.11.35,2.89,1.21,3.54.79-2.37.75-4.99,3.33-6.33-2.42,4.77-2.57,6.06-.64,11.75.35,1.04,1.67,2.3,2.63,2.49,1.33.27,4.26-.86,4.87-1.44.27-.26-.27-1.38-.64-1.3ZM31.01,30.66l-2.7-1.66-5.21-.45.35,1.4c-1.81-1.08-2.87-1.88-4.41-3.3,2.88-2.3,8.03,2.95,14.46-3.68.69-.71,1.58-1.39,2.62-1.97-.77,5.83-6.77,5.42-5.1,9.66ZM24.64,20.37c1.26-1.54,3.75-1.36,5.22.06.6.58.37,2.4-.09,3.12-.62.95-2.01,1.48-3.39,1.26-.74-.12-1.98-.96-2.26-1.55-.31-.66-.02-2.24.52-2.9ZM23.6,13.91l-2.91-1.82c3.29.39,4.11.7,5.27,2.88,2.27.01,4.32.31,6.64.83l-.13-1.67c1.88,1.85,3.22,3.32,4.87,5.45l-6.6-1.45c-4.49-.99-8.77,1.62-11.54,4.93l-2.05,2.45c-.73-6.39,6.12-8.35,6.47-11.61Z"/>
      <path class="cls-1" d="M20.6,45.2c.31.78.76,1.82.88,2.56l.94,5.61,2.37-2.93,2.94,1.66c-.31-3.1-.85-5.63-2.05-8.25l-5.08,1.35Z"/>
      <path class="cls-1" d="M46.32,41.63l-16.7,4.57c-.41.11-.91.57-1.08.86-.12.21.71.83,1.02.75l8.6-2.34c3.3-.9,5.57-.33,10.73-2.41-.62-1.8-1.23-3.07-2.52-4.72-.11,1.3-.1,1.89-.05,3.29Z"/>
      <path class="cls-1" d="M40.64,36.33l8.01-2.36-3.1-7.54c-2.21,1.35-1.4,3.7-.95,5.74-2.28.51-4.28,1.79-3.95,4.16Z"/>
      <path class="cls-1" d="M31.37,3.59l1.35-.43c.67-.21,1,4.34,4.62,3.37l-2.57-6.53-7.89,1.88c1.26,1.23,3.01,2.17,4.48,1.71Z"/>
      <path class="cls-1" d="M43.98,38.51c.5-.12.99-1.38.83-1.63l-8.3,1.82c-5.16,1.13-10.02,2.64-14.96,4.18l13.34-2.98-.51.96,9.6-2.35Z"/>
      <path class="cls-1" d="M44.15,39.27c-3.52.79-13.25,3.83-16.15,5.15,5.18-.99,10.92-2.59,15.92-3.95.27-.07.46-1.25.23-1.2Z"/>
    </g>
  </g>
</svg>