<?xml version="1.0" encoding="UTF-8"?>
<svg id="Warstwa_2" data-name="Warstwa 2" xmlns="http://www.w3.org/2000/svg" viewBox="0 0 47.31 59.02">
  <defs>
    <style>
      .cls-1 {
        fill: #fff;
      }
    </style>
  </defs>
  <g id="icon-v10-loot-pixarts-store">
    <g id="icon-v10-loot-pixarts-store_167">
      <path class="cls-1" d="M35.82,12.32c1.88-3.86,3.03-7.83,3.29-12.23-3.07,2.34-7.61,6.37-8.02,10.38-.47-3.87-1.01-7.42-3.02-10.47l-1.01,9.73,1.22,4.48,5.33-3.79-.88,6.7,5.74-1.54c2.26-2.39,4.84-4.3,7.65-5.82-3.92-.46-7.08.8-10.3,2.56Z"/>
      <path class="cls-1" d="M28.57,23.57c2.84-2.07,3.13-6.07,3.18-10.11-3.56,2.86-5.3,4.53-6.47,8.93-.76-4.14-4.41-10.17-9.39-9.44,3.05,2.31,4.79,5.36,5.23,9,2.08.21,3.45,1.4,5.09,2.18,1.75.83,3.54,1.22,5.01,2.89,2.98-1.75,6.21-1.43,9.79-.38-2.88-4.41-8.02-4.42-12.44-3.06Z"/>
      <path class="cls-1" d="M32.93,18.72c-.67.34-1.08,1.78-.86,2.3l5.09.73c3.29-1.92,6.5-3.02,10.15-3.8-4.79-1.84-9.79-1.54-14.38.77Z"/>
      <path class="cls-1" d="M22.51,13.85l3.02,3.97,1.61-2.18c-.45-5.13-2.98-9.84-7.7-12.52,1.9,3.59,2.79,6.97,3.06,10.74Z"/>
      <polygon class="cls-1" points="21.9 46.72 19.08 41.38 14.16 43.17 16.35 48.48 21.9 46.72"/>
      <polygon class="cls-1" points="13.48 41.64 18.44 39.78 16.32 34.88 11.45 36.4 13.48 41.64"/>
      <polygon class="cls-1" points="27.96 43.59 25.54 39.09 20.93 40.95 23.46 46.11 27.96 43.59"/>
      <polygon class="cls-1" points="14.58 48.86 12.35 43.68 8.15 45.33 9.86 50.53 14.58 48.86"/>
      <path class="cls-1" d="M17.75,54.91c-.78-1.67-1.5-3.06-2.38-4.48l-4.6,1.57,2.16,4.69,4.82-1.78Z"/>
      <polygon class="cls-1" points="24.06 52.61 22.52 48.28 17.22 49.94 19.34 54.47 24.06 52.61"/>
      <polygon class="cls-1" points="18.01 34.59 20.38 39.63 24.93 37.73 22.44 33.23 18.01 34.59"/>
      <polygon class="cls-1" points="5.78 38.94 7.62 43.72 11.84 42.01 10.03 36.81 5.78 38.94"/>
      <polygon class="cls-1" points="9.97 30.22 11.32 34.87 16.15 33.46 15.08 29 9.97 30.22"/>
      <path class="cls-1" d="M5.5,52.8l3.2-1.7-2.17-5.05c-4.78,2.96-1.42,1.64-5.05,4.94,1.71-.1,3.37,0,4.02,1.82Z"/>
      <polygon class="cls-1" points="28.33 45.15 23.95 47.58 25.42 51.98 29.75 49.54 28.33 45.15"/>
      <polygon class="cls-1" points="32.99 40.48 30.65 36.04 27 38.41 29.16 42.75 32.99 40.48"/>
      <polygon class="cls-1" points="16.3 28.92 17.69 33.29 21.99 32.11 20.45 27.61 16.3 28.92"/>
      <path class="cls-1" d="M6.11,33.59l-.92,3.7,4.75-2.18-1.09-4.19c-2.35.61-1.88-.84-3.8-1.31.36,1.37,1.32,2.92,1.06,3.98Z"/>
      <polygon class="cls-1" points="29.98 34.86 27.8 31.04 23.99 32.96 26.37 37.25 29.98 34.86"/>
      <path class="cls-1" d="M0,40.92l2.86,2.56.35,3.01,2.91-2.09-1.55-5.04c-1.38,1.43-2.44,1.39-4.57,1.56Z"/>
      <polygon class="cls-1" points="23.41 57.9 25.64 59.02 24.32 53.93 19.59 55.7 20.36 58.87 23.41 57.9"/>
      <polygon class="cls-1" points="21.77 27.58 23.47 31.74 27.27 29.92 25.74 26.23 21.77 27.58"/>
      <polygon class="cls-1" points="36.46 43.31 32.96 41.81 29.67 44.25 31.06 48.33 32.9 44.46 36.46 43.31"/>
      <polygon class="cls-1" points="12.52 22.65 12.46 25.79 10.15 28.66 15.14 27.7 15.1 24.96 12.52 22.65"/>
      <path class="cls-1" d="M28.58,53.61l3.62.28-2.49-3.1-3.86,2.53c-.13.62.09,1.84.31,2.39l2.42-2.09Z"/>
      <polygon class="cls-1" points="16.25 24.09 16.35 27.51 20.55 26.44 20 23.48 16.25 24.09"/>
      <path class="cls-1" d="M9.45,52.53c-1.24.47-2.07.85-3.1,1.5,1.95,1.67,3.03,2.67,5.18,3.23l-2.08-4.73Z"/>
      <path class="cls-1" d="M28.99,30.48l1.9,3.62,1.88-1.83c-.45-1.22-.91-2.13-1.64-3.33l-2.15,1.53Z"/>
      <path class="cls-1" d="M36.17,33.63c-1.23-.67-3.68-.59-4.37,1.67.29,1.23,1.03,2.47,1.67,3.55.09-2.68.52-3.66,2.7-5.21Z"/>
      <path class="cls-1" d="M18.23,56.31c-2,.52-3.18.85-4.99,1.66,2.04.85,3.36,1,5.62,1.06l-.63-2.71Z"/>
      <path class="cls-1" d="M21.67,26.22l3.21-1.06c-1.63-1.16-2.28-1.34-3.71-1.54l.5,2.6Z"/>
      <polygon class="cls-1" points="28.31 29.41 30.31 27.77 27.11 26.18 28.31 29.41"/>
    </g>
  </g>
</svg>