<?xml version="1.0" encoding="UTF-8"?>
<svg id="Warstwa_2" data-name="Warstwa 2" xmlns="http://www.w3.org/2000/svg" viewBox="0 0 55.06 59.12">
  <defs>
    <style>
      .cls-1 {
        fill: #fff;
      }
    </style>
  </defs>
  <g id="icon-v10-loot-pixarts-store">
    <g id="icon-v10-loot-pixarts-store_216">
      <path class="cls-1" d="M2.74,6.01l1.27,3.12c.2-.93.49-2.53.98-3.18.45-.6,1.77-.92,2.77-1.37-2.6-.34-3.43-1.64-3.85-4.26l-1.21,3.21-2.71,1.17c.63.19,2.48.67,2.74,1.3Z"/>
      <path class="cls-1" d="M27.73,54.66c15.09,0,27.33-12.24,27.33-27.33S42.83,0,27.73,0,.41,12.24.41,27.33s12.24,27.33,27.33,27.33ZM27.74,4.02c12.86,0,23.29,10.43,23.29,23.29s-10.43,23.29-23.29,23.29S4.44,40.18,4.44,27.32,14.87,4.02,27.74,4.02Z"/>
      <rect class="cls-1" x="24.71" y="56.38" width="2.84" height="2.59" transform="translate(-31.64 83.58) rotate(-89.77)"/>
      <rect class="cls-1" x="28.97" y="56.12" width="2.67" height="2.97" transform="translate(-1.83 1) rotate(-1.84)"/>
      <path class="cls-1" d="M39.46,56.47l.13-2.64c-.82.33-1.6.66-2.15.96-.48.27-.43,2.46.13,2.48.52.02,1.87-.31,1.9-.8Z"/>
      <path class="cls-1" d="M23.21,58.32c.14-.76.31-2.18-.12-2.27l-1.79-.4c-.64-.14-.69,1.85-.39,2.42.3.58,2.18.89,2.31.25Z"/>
      <path class="cls-1" d="M19.05,57.41c.16-.95.02-2.49-.5-2.64l-1.73-.47c-.1,1.1-.07,2.39.42,2.71.41.27,1.51.5,1.82.4Z"/>
      <path class="cls-1" d="M43.52,54.09c.27-.52.1-1.98-.01-2.39-2.01.49-2.91,1.86-2.15,3.71.6-.18,1.85-.73,2.17-1.33Z"/>
      <path class="cls-1" d="M14.91,53.24l-1.86-.99c-.17.5-.37,2.08.1,2.51.4.38,1.5.91,1.93,1.05.12-1.15.26-2.35-.16-2.57Z"/>
      <path class="cls-1" d="M35.64,57.7c0-.38-.08-1.44-.19-1.99-.13-.66-2.18.01-2.27.68-.08.58-.06,2.19.5,2.14.68-.05,1.94-.35,1.95-.83Z"/>
      <path class="cls-1" d="M9.22,49.53c-.48,1.46.35,3.32,1.94,3.5.36-2.28-.6-2.72-1.94-3.5Z"/>
      <path class="cls-1" d="M47.07,48.95c-1.78.52-2.39,2.12-1.59,3.71,1.38-.87,1.91-2.21,1.59-3.71Z"/>
      <path class="cls-1" d="M5.39,46.23c.54,1.45,1.19,2.47,1.97,3.42.5-1.55-.37-3-1.97-3.42Z"/>
      <path class="cls-1" d="M50.13,45.89c-1.1.62-1.7,1.71-1.22,3.01,1.06-.78,1.51-1.89,1.22-3.01Z"/>
      <path class="cls-1" d="M27.74,49.02c11.97,0,21.68-9.71,21.68-21.68S39.72,5.66,27.74,5.66,6.06,15.37,6.06,27.34s9.71,21.68,21.68,21.68ZM36.56,11.12c0-.62.13-.48.49.17.34,1.8,1.21,2.79,3.3,3.24-2.2.61-3.06,1.72-3.65,4.15-.39-2.22-.9-3.59-3.54-4.13,2.05-.6,3-1.09,3.39-3.43ZM17.89,26.19l1.85-5.89,3.76,4.52,4.15-8.48,4.27,8.67,3.81-4.65,1.89,5.93,4.82-4.39-2.69,12.58c-.24,1.13-.17,2.26-1.84,2.73-6.44,1.82-13.23,1.71-19.51.3-2.49-.56-2.41-1.76-2.85-3.79l-2.64-12.05,4.97,4.52Z"/>
      <path class="cls-1" d="M37.4,35.49c-6.5-1.89-13.17-1.85-19.26.03,6.48,1.78,12.99,1.89,19.26-.03Z"/>
      <polygon class="cls-1" points="29.95 28.58 27.63 25.41 25.51 28.78 27.74 31.88 29.95 28.58"/>
    </g>
  </g>
</svg>