<?xml version="1.0" encoding="UTF-8"?>
<svg id="Warstwa_2" data-name="Warstwa 2" xmlns="http://www.w3.org/2000/svg" viewBox="0 0 29.69 62">
  <defs>
    <style>
      .cls-1 {
        fill: #fff;
      }
    </style>
  </defs>
  <g id="icon-v10-loot-pixarts-store">
    <g id="icon-v10-loot-pixarts-store_274">
      <path class="cls-1" d="M12.76,27.15c.22.26,1.15.72,1.53.71,1.1-.03,1.92-1.3,1.98-2.29.05-.69-.49-2.06-1.27-2.47-2.96-1.56-5.64.03-8.99-.29-.15,1.85.9,3.65,2.4,4.67-.09-2.2.84-3.91,2.67-4.18-.99,1.58-1.57,3.05-1.11,4.56.86,2.86,4.39,3.65,3.79,4.18l-.97.85c1.97,2.94,2,8.98.99,12.56l1.2.7-1.55,1.06c-.29.2.56,1.04.84,1.28l.05,11.57c0,1.21.87,2.12,2.06,1.89,1.68-.33.88-2.24,1.5-3.73.5-1.2,2.48,2.29,2.73.94l.63-3.44-1.27-.32c-.27-.07-1.07-.63-.86-.83l.58-.53c.61,0,1.49-.02,1.43-.36l-.21-1.39c.25-.68.48-1.15.51-1.57.03-.42-1.35-1-1.61-.67-.31.4-1.86,1.32-2.01.83l-.65-2.17c.45-.15,1.47-1.29,1.06-1.5l-1.62-.85,1.23-.75c-.59-3.43-1.01-10.19.99-12.65-.43-.46-1.1-1.16-.86-1.42l1.03-1.07c1.07-1.12,2.16-2.42,2.3-4.1.1-1.17-.83-2.8-1.74-3.89-.36,2.47-.77,4.57-2.63,6.01-.92.71-2.59.95-3.75.51-.84-.32-1.84-1.6-1.88-2.81-.02-.78.73-1.81,1.31-1.9.7-.11,1.52.35,1.92.99l-1.44.56c-.32.12-.53,1.04-.31,1.29Z"/>
      <path class="cls-1" d="M26.25,8.41c-1.99-4.33-7.38-.56-12.34-3.72.66,2.31,2.53,2.71,4.22,3.73l-4.21-.77c.62.71,1.64,1.7,2.42,2.39-.29.16-1.34.79-1.82,1.1-.18.12.78.75.79.72-.75,1.46-1.44,3.09-1.32,4.66l1.56-1.2-.56,1.93c-.09.33.73,1.31.94,1.07l.86-.97c.03,1.4.69,2.79,1.92,3.79l.27-1.92c1.91,3.59,4.36,4.29,2.71,9.68,2.69-1.85,3.94-4.9,2.6-8.04l1.65,1.57c.66-3.96-2.8-4.82-2.87-7.21-.02-.58.64-1.93,1.23-2.06l3.47-.8-5.37.04c1.06-1.33,2.6-2.83,3.84-3.98ZM21.7,8.72c.86-.49,2.18-.97,2.63.66-.51.49-2.01-.09-2.63-.66Z"/>
      <path class="cls-1" d="M3.69,0c-1.05,1.05-1.72,2.59-1.61,4.12.21,2.76,1.81,5.14,4.25,6.41l-.32-2.98c.95,2.06,1.78,3.55,3.14,5.11l-3.79-1.75c.68,1.74,1.89,2.75,3.39,3.95l-1.97-.03,2.66,2.66-1.15.02c-.15,0,0,.39.09.53l.45.8c-1.22-.54-2.18-.96-3.53-1.27l-3.57-.82c3.05,4.87,7.75,2.29,7.59,2.21l1.5.75c.54.27,1.1,1.08,1.03,1.5,1.46.09,3.23.52,4.21,1.45,1.05,1.01,1.22,2.5,1.43,3.92,1.53-2.92-.04-5.96-2.64-7.53-4.6-2.79.18-5.65-3.84-8.51l-4.07-2.89C4.51,5.9,3.72,3.02,3.69,0Z"/>
      <path class="cls-1" d="M6.08,13.78C3.95,7.98,3.76,11.01.25,5.43c-.53,3.77,1.85,7.64,5.83,8.35Z"/>
      <path class="cls-1" d="M7.43,16.91c-2-3.81-4.63-2.38-7.43-5.69.24,3.31,3.61,5.98,7.43,5.69Z"/>
      <path class="cls-1" d="M27.17,9.05c-1.29.4-2.41,1.52-3.04,2.42l3.04.23c.75.06,1.54,1.08,2.02,2,.56-.48.65-2.21.18-3.14-.33-.65-1.48-1.74-2.21-1.51Z"/>
      <path class="cls-1" d="M22.47,55.61c-.63.76-.51,2.68-.24,3.7l2.45.17c.25-1.09.38-3.01-.08-3.86-.22-.41-1.83-.35-2.12,0Z"/>
      <path class="cls-1" d="M22.14,52.15c-.31.14-.28,1.79.17,1.8l2.51.05v-4.2c-1.41.01-2.37.89-2.72,1.69.94.12,2.07.37,2.03.81-.12.96-1.48.21-1.99-.15Z"/>
      <path class="cls-1" d="M10.37,2.78c-1.89-.2-3.79,1.03-3.81,3.21l1.78,1.92c-.3-2.69-.23-4.29,2.02-5.13Z"/>
      <path class="cls-1" d="M5.32,20.94c1.73.94,3.68,1.34,5.6.26-.87-.81-1.52-1.08-2.12-1.05l-3.49.8Z"/>
    </g>
  </g>
</svg>