<?xml version="1.0" encoding="UTF-8"?>
<svg id="Warstwa_2" data-name="Warstwa 2" xmlns="http://www.w3.org/2000/svg" viewBox="0 0 57.72 52.31">
  <defs>
    <style>
      .cls-1 {
        fill: #fff;
      }
    </style>
  </defs>
  <g id="icon-v10-loot-pixarts-store">
    <g id="icon-v10-loot-pixarts-store_64">
      <path class="cls-1" d="M.83,27.55l2.41,1.64c4.34,7.5,4.65,4.39,3.3,13.32l4.01,3.87-4.77-2.35c-2.92,3.23,9.5,6.78,11.48,7.18l1.94-2.69.87,3.1c5.41.41,11.05,1.43,16.25-.28,4.95-1.63,3.99,1.59,13.98-3.87,1.33-.73,2.31-2.18,1.86-3.55l-5.07,2.4,3.85-3.73c-1.49-9.11-1.05-5.44,3.11-13.29l2.54-1.73c1.02-5.87-.49-3.44.5-6.73,1.12-3.71.47-10.41-.07-14.71l-4.59,14.5c1.5-.71,1.91-1.78,2.46-3.29,1.05,2.82-1.19,3.82-2.59,5.16-2.52,2.42-2.88,6.48-4.34,9.58l-1.94,2.17.53,3.2-1.75-2c-.31-.36-.35-1.24-.5-1.88-.39-1.72-1.2-3.29-2.13-5-1.4,2.6-2.67,4.88-3.83,7.44-.73,1.61-.8,3.58-2.17,4.86.26-6.73,1.05-3.85-2.07-9.67l-1.17,2.15-.1-2.96c-.06-1.85.21-3.18,1.32-4.92-.29-1.83-.76-3.85-1.24-6.04l-2.32.81c.56-1.02,1.22-1.91,1.94-2.8L28.78,0c-1.21,4.45-2.08,8.79-3,13.37l1.15,3.08-1.64-.32c-.61,3.05-1.54,6.38-1.79,9.36.91,2.47,2.25,4.82,1.13,7.35l-.86-1.99-3.69,5.67c-1.12-1.27-1.73-2.14-2.4-3.37l-2.47-4.53c-1.92,3.25-1.85,6.08-4.02,8.3.7-2.45-.16-2.96-1.12-4.34-2.56-3.67-1.36-8.36-5.91-8.07-.54-1.42-.98-3.03-1.29-4.88,1.33.51,1.51,4.33,3.27,3.65L.52,6.17c-.91,5.36-.41,10.64-.04,16.14l.35,5.24ZM39.03,41.52l3.36-5.12c1.31,2.29,2.12,3.98,3.16,6.3l-3.62,4.8-2.92-4.08c-.26-.36-.22-1.52.04-1.91ZM28.81,33.51c1.95,2.54,3.45,4.65,5.07,7.12l-.8,4.87-4.29,4.56-4.3-4.43-1-4.36c1.51-2.83,3.14-5.25,5.32-7.75ZM15.14,36.49c1.47,2.08,2.52,3.87,3.74,6.1l-3.26,4.94c-1.35-1.66-2.45-3.17-3.49-4.94.75-2.14,1.74-3.94,3.01-6.09Z"/>
      <path class="cls-1" d="M11.97,31.89l3.33-6.08c1.39,2.3,2.21,3.78,3.32,5.89,2.5-.25,4-.45,4.47-3.5-2.76-2.67-.05-5.52-.8-5.95l-1.07-.61c.12-1.45-.24-2.8-.7-4.21l-2.94-8.93c-.81,4.34-1.33,8.48-1.37,12.94,0,1.01-.24,2.54-1.73,2.67-.85-.03-1.91-1.46-2.45-2.25l-1.63-2.37-.99,7.46,1.25,3.99c.1.32.92.85,1.3.95Z"/>
      <path class="cls-1" d="M35.88,31.15l2.92.62,3.49-6.01,2.92,5.78c1.02,2.01,2.91-3.92,2.92-5.2,0-.88-.55-2.33-.66-3.26l-.4-3.54c-1.98,2.02-1.45,3.48-4.11,4.77l-1.72-1.72c.44-1.58.09-2.89-.61-4.21.96-2.83-.09-6.53-.69-9.89l-3.12,9.45c-.37,1.12-.49,2.56-.53,3.71-2.94,1.01,1.39,2.66-1.88,6.6.35.83,1.01,2.15,1.45,2.89Z"/>
      <path class="cls-1" d="M6.31,36.48c-.71-1.72-1.68-3.32-2.97-4.63-.76,1.89-1.31,3.77-1.36,5.59l3.49,3.87c.41-1.67.58-2.78.51-4.14l-1.15,2.63c-.58-.61-1.24-1.6-.65-2.22.49-.52,1-.7,2.14-1.1Z"/>
      <path class="cls-1" d="M52.05,41.36l3.39-3.86c-.16-2.03-.55-3.69-1.26-5.61-3.27,3.65-3.55,4.86-2.12,9.46ZM52.46,40.05l-.8-3.59c.97.32,1.24.59,2.29,1.49l-1.5,2.1Z"/>
      <path class="cls-1" d="M28.54,47.54c.98-1.23-2.06-2.54-1.92-4.72l2.39-.86c.44-.16,1.4.22,2.13.3-.22,2.88-2.67,4.13-2.01,5.14l2.64-2.53.52-4.5-2.93-4.22c-.52,0-.63-.01-1.14-.09-1.03,1.38-2.24,3.08-3.25,4.73.72,4.48.08,3.74,3.57,6.74Z"/>
      <path class="cls-1" d="M17.34,42.18c-.5-1.5-1.28-2.57-2.12-3.86-1.01,1.71-2.56,3.97-.72,5.73l.11.04-.28-1.68,2.11.73c-.54.85-.73,1.38-.96,1.29l-.87-.33v.07s-.07-.08-.11-.12l-.1-.04,1.12,1.37c.54-.67,2.13-2.28,1.83-3.2Z"/>
      <path class="cls-1" d="M14.6,44.08l-.11-.04s.08.08.12.12v-.07Z"/>
      <path class="cls-1" d="M42.91,44.1c-.84.32-1.1.46-1.18.22l-.39-1.21c-.07-.22,2.11-1.1,1.89-.32l-.33,1.15c1.25-.73,1.23-2.26.52-3.54l-1.21-2.19-2.46,4.06,2.16,3.21.99-1.39Z"/>
    </g>
  </g>
</svg>