<?xml version="1.0" encoding="UTF-8"?>
<svg id="Warstwa_2" data-name="Warstwa 2" xmlns="http://www.w3.org/2000/svg" viewBox="0 0 34.3 59.1">
  <defs>
    <style>
      .cls-1 {
        fill: #fff;
      }
    </style>
  </defs>
  <g id="icon-v10-loot-pixarts-store">
    <g id="icon-v10-loot-pixarts-store_314">
      <path class="cls-1" d="M30.58,16.79c-1.65-3.31,2.19-9.13-1.33-12l-1.69,3.29c-1.78.86-2.56,1.95-2.88,4.07-1.03-.38-2.22-1.9-1.93-2.82.42-1.31,1.55-1.8,3.04-2.22-.12-.67-.67-2.12-1.28-2.55-.62-.43-2.44-.66-2.9-.39-.16.46-.48,1.37-.48,1.35.04-1.6-5.62-5.5-8.38-5.53l1.15,6.91c4.03,1.06,5.92,5.61,4.35,5.92-.17.03-.75-.02-.65-.17,1.45-2.19-3.35-4.49-4.43-3.74-1.66,1.17-3.22,2.52-4.78,3.8-.17,1.16-.17,3.96.58,4.87,1.83,2.22,6.93,6.55,9.41,8.05.7-2.02.51-3.36.06-5.25l4.85-2.79c.89-.51,2.11-.33,2.86.52l4.97,5.62c1.65-2.54.65-4.62-.52-6.96Z"/>
      <path class="cls-1" d="M26.91,42.94c3.62-3.79,3.31-8.78,1.01-12.65l-1.02,1.71c-.16.27-.83,0-1.08-.27l3.44-7.48-4.65-4.56-2.95,1.64c-4.46,2.49,4,4.73,3.59,9.92l-4.74-5.09-1.06,4.21-.88,3.41-4.28-2.02c-1.23,6.55-.84,11.43-2.16,18.53,2.3-1.6,3.64-3.45,5.26-5.64-.24,5.44-3.85,4.85-5.55,8.36l-2.88,5.96c2.05.41,3.15-.13,4.36-1.05l4.83-3.69c2.24-1.71,4.04-4.2,6.03-6.21,1.94-1.97,2.58-4.14.66-6.73l-2.19,4.29c-.29.57-1.94.98-2.45.68l5.35-7.29,1.35,3.97Z"/>
      <path class="cls-1" d="M11.94,28.66l4.9,2c.36-1.67.39-3.79-.18-5.01l-9.01-6.71-.58-3.47c-.17-1-1.18-3.04-.32-3.6,1.65-1.08,2.54-1.94,3.08-3.65-2.54.24-3.99,1.94-4.41,4.58L.11,11.18c-.75,7.25,2.6,2.22,4.68,11.49l2.19-2.72c1.44,3.63-3.46,3.6-1.05,6.87l5.41,7.32c.42-1.43.56-3.26.6-5.48Z"/>
      <path class="cls-1" d="M33.38,31.81c.43-1.87.82-5.36.92-7.54l-4,3.35c-1.13.7,1.22,4.64,1.57,5.15.19.27,1.44-.65,1.51-.96Z"/>
    </g>
  </g>
</svg>