<?xml version="1.0" encoding="UTF-8"?>
<svg id="Warstwa_2" data-name="Warstwa 2" xmlns="http://www.w3.org/2000/svg" viewBox="0 0 37.82 58.24">
  <defs>
    <style>
      .cls-1 {
        fill: #fff;
      }
    </style>
  </defs>
  <g id="icon-v10-loot-pixarts-store">
    <g id="icon-v10-loot-pixarts-store_25">
      <path class="cls-1" d="M3.86,45.42c.23,1.88.65,3.63.55,5.54-.14,2.65,1.16,5.01,3.31,6.3,1.69,1.01,5.52,1.69,6.95-.34l.6-4.84c-.29-.38-1.37-.97-1.31-1.37l.25-1.57c1.49,2.41,2.88,1.06,2.47,3.99-.13.94-.09,1.64.26,2.6,3.55-3.27,2.68-7.24,6.19-10.93l5.02-5.27c-.61-1.92-.51-3.99.62-5.59l-.2,2.48c-.04.46.32,1.15.84,1.74,1.93-2.34,3.42-4.94,4.21-7.63l-1.42-.73c-.27-.14.1-1.19.39-1.12l1.24.29c1.46-3.49.85-7.42.68-11.25l-3.4.56c.02,5.25-.61,10.21-2.97,14.93-1.03,2.06-2.91,3.68-4.42,5.47-1.84,2.17-3.44,4.36-5.23,6.78.95-3.37,2.71-6.61,5.21-9.41,2.24-2.5,6.23-8.68,3.46-12.14l-1.74,4.56c.29-3.95,1.03-7.53-.91-10.96-.87-1.53-1.5-2.99-2.13-4.75-2.48,1.61-4.84,3.4-6.54,5.58.21.9,1.5,1.85,2.45,1.82.68-.02,1.44-.97,2.37-1.82.03.84-.13,2.35-.47,3.2-2.09.83-3.91-.03-5.88-1.25-.7.86-1.41,2.15-1.69,3.14,4.62,2.43,8,4.25,7.72,10.02-.09,1.78-.44,3.62-2.42,4.45,2.5-3.49.33-6.89-3.02-9.74-.57.28-.81.45-1.08.36l-1.42-.46,1.87,4.63c-3.03-1.72-5.03-5.21-4.26-8.86.37-1.76,1.17-3.19,2.07-5.02l-3.67-2.4c-.87,1.23-1.9,2.3-2.29,3.51l-2.5,7.74.56-6.75c-1.42,1.23-2.34,2.75-3.24,4.43-.95,1.77-1.39,3.44-.46,5.38,2.08,4.36.36,6.9.96,10.4l2.74-5.6c.1,3.4-.75,6.61-.35,9.9ZM6.55,30.74l1.11,2.28c2.05.55,4.05,1.24,5.53,2.95.63.72.55,2.32-.01,3.16l-3.25,4.82c-.19.28-.13,1.28.04,1.54.17.26,1.1.29,1.41.03l3.32-2.72c-.46,1.4-1.16,2.69-2.15,3.85-1.07,1.26-3.39,1.44-4.51.3-3.7-3.77,4.44-6.73.04-10.91-1.43-1.35-2.23-3.19-1.53-5.3Z"/>
      <path class="cls-1" d="M33.19.77c-3.2,1.97-6.23,3.63-9.7,5.03-3.7,1.5-13.44,6.08-14.67,10.07,1.67.84,2.59,1.33,3.87,2.4,2.69-2.67,5.54-5.48,8.94-7.31l10.45-5.61c-1.52,1.84-3,3.25-4.84,4.71-.76.6-2.51,1.38-3.36,1.95-.41.28-.28,1.62.01,2.03,5.3,7.32,1.88,5.47,3.49,8.47l1.57,2.91,1.12-8.75c.08-.66-.32-2.07-.44-2.74.35-1.4,1.41-3.35,2.28-4.66-.72,2.97-1.01,5.69-.66,8.36,2.28-.73,3.42-1.71,3.69-3.87.8-6.46,4.45-11,2.09-13.32-.87-.86-2.84-.28-3.85.34Z"/>
    </g>
  </g>
</svg>