<?xml version="1.0" encoding="UTF-8"?>
<svg id="Warstwa_2" data-name="Warstwa 2" xmlns="http://www.w3.org/2000/svg" viewBox="0 0 53.43 55.85">
  <defs>
    <style>
      .cls-1 {
        fill: #fff;
      }
    </style>
  </defs>
  <g id="icon-v10-loot-pixarts-store">
    <g id="icon-v10-loot-pixarts-store_149">
      <path class="cls-1" d="M51.77,19.61c-.92-.78-1.29-1.93-1.14-3.2.35-2.9-1.08-5.7-3.99-6.29-1.27-.26-2.38-.95-2.8-2.22-1.11-3.3-4.34-5.2-7.83-4.37-1.15.27-2.29-.06-3.12-.89-3.56-3.55-8.93-3.52-12.4.08-.74.76-1.92,1.13-2.88.87-3.6-.96-6.92.95-8.07,4.41-.35,1.05-1.44,1.81-2.5,2.03-3.15.65-4.83,3.39-4.26,6.53.21,1.16-.08,2.29-1.03,2.99C.02,20.82-.47,23.05.47,25.04c1.96,4.19,7.52,5.25,12.2,7.87,1.59.89,2.78,2.06,4.91.89-.34-5.33,3.86-9.72,9.22-9.67,5.04.05,9.19,4.25,9.11,9.56,1.67,1.32,3.31.16,4.74-.7,4.4-2.64,9.41-3.36,11.94-7.2,1.37-2.09,1.07-4.58-.81-6.18ZM3.63,21.05c-.33-.3.68-1.56.97-1.4,2.77,3.23,5.69,5.69,9,8.6-3.76-1.49-7.02-4.48-9.97-7.2ZM8.58,11.71l1.73-1.02c1.65,4.93,4.18,8.64,6.9,13.48-3.62-3.38-6.19-7.71-8.63-12.46ZM18.22,6.27c-.07-.48,1.4-.98,1.72-.82l1.93,14.37c-1.87-3.99-2.97-8.69-3.65-13.55ZM31.37,20.47c.92-5.17,1.81-9.68,2.09-14.96.33-.07,1,.11,1.94.45-.89,5.18-1.92,9.86-4.03,14.52ZM36.28,24c2.61-4.48,5.22-8.33,6.87-13.27l1.65.97c-2.31,4.66-4.7,8.81-8.52,12.3ZM39.64,28.25c3.52-2.81,6.46-5.37,9.3-8.65l1.22,1.22c-3.31,2.99-6.52,5.92-10.52,7.42Z"/>
      <path class="cls-1" d="M37.58,47.15c-1.89,1.75-4.6,1.95-6.92.86-2.61-1.22-5.09-1.24-7.66-.02-2.56,1.21-5.36.77-7.45-1.07-3.33-2.92-6.47,2.54-10.31-3.1l-4.57-.68c2.76,3.67,5.26,7.53,9.44,8.31l-1-2.71c3.92,3.18,5.13,6.36,11.15,5.73-.76-1.16-1.26-1.89-1.53-3.26,1.16.98,1.95,1.69,2.94,2.62,3,2.82,7.58,2.63,10.49-.26.95-.95,1.7-1.64,2.8-2.62-.4,1.45-.86,2.28-1.55,3.55,6.25.36,7.36-2.81,11-5.79l-.96,2.69c4.11-.66,6.65-4.98,9.36-8.23-1.5.15-3.26.42-4.53.81-4.05,5.47-7.13-.13-10.69,3.17Z"/>
      <path class="cls-1" d="M26.72,40.78c4.18,0,7.57-3.39,7.57-7.57s-3.39-7.57-7.57-7.57-7.57,3.39-7.57,7.57,3.39,7.57,7.57,7.57ZM24.89,27.93c.33,0,1,.29,1.14.56s-.19,1.11-.47,1.34l-2.81,2.38c-.19.16-.78.58-.9.39-.11-.19-.4-.79-.41-1.07-.05-1.47,1.51-3.56,3.44-3.6Z"/>
      <path class="cls-1" d="M35.66,35.97c-.22.21-.31.85-.3,1.09,4.64.56,9.15,1.03,13.56,3.02-4.77,1.28-3.64,3.75-6.64,2.82-5.9-1.84-6.1,3.69-11.11,1.68-7.75-3.12-9.18,2.75-14-.72-4.98-3.59-6.13,1.4-9.14-2.11-.67-.78-2.16-1.12-3.47-1.65,4.11-1.99,8.89-2.4,13.38-3.05.28-.14-.13-1.39-.51-1.36-5.48.35-11.03,1.36-16.05,3.51-.42.18-.95.78-1.02,1.11-.06.33.55,1.1.89,1.19,3.97.98,4.24.1,6.14,2.54,1.77,2.27,5.78-1.19,8.73,1.25,5.4,4.47,7.47-2.26,14.83.98,1.71.75,3.96.91,5.4-.31,4.63-3.96,7.61,1.31,10.44-2.66.51-.71,1.63-1.15,2.56-1.29l2.74-.41c.38-.06,1.05-.87,1.01-1.24-.32-2.56-16.55-5.24-17.42-4.38Z"/>
    </g>
  </g>
</svg>