<?xml version="1.0" encoding="UTF-8"?>
<svg id="Warstwa_2" data-name="Warstwa 2" xmlns="http://www.w3.org/2000/svg" viewBox="0 0 61.43 61.82">
  <defs>
    <style>
      .cls-1 {
        fill: #fff;
      }
    </style>
  </defs>
  <g id="icon-v10-loot-pixarts-store">
    <g id="icon-v10-loot-pixarts-store_254">
      <path class="cls-1" d="M61.41,40.49l-.77-.53c-.55-.38-1.83.05-2.59.8.81.28,2.14.66,2.77.75.17.02.74-.92.6-1.01Z"/>
      <path class="cls-1" d="M23.49,9.84c5.95-1.59,9.45,6.67,8.56,10.65l-1.04-3.3-.52,1.84-1.35-2.2-8.71,1.21,4.09,4.71c1.08.61,4.52,2.94,5.34,2.07.3-.32.65-.82,1.21-1.55.69-.31,2.27.84,3.15,1.06,3.41.85,3.53,2.31,5.1,1.56,1.63-.78,1.3-3.4,1.81-3.29l.96.21c.21.05.84.29.88.11l.23-.99c.07-.32.29-1.35.57-1.22l1.05.51c.61.29,1.74.75,2.35.66.57-.08,1.17-1.01,1.78-1.78l-.29,2.03c-.06.44-1.23,1-1.64.87l-2.82-.92-.47,1.68c-.11.39-1.79,0-2.03.35-.54.82-1.04,2.56-1.86,2.78-1.48.41-6.43-1.16-8.12-2.48-.56.63-1.23,1.48-1.84,1.68-.77.25-2.15-.25-2.7-.61l-2.05-1.33c1.07,3.44,1.79,6.18,2.47,9.86l24.54-4.83c-.44-5.54-2.97-11.99-8.67-13.93-1.51-.51-3.71,0-5,.51l-.41,2.7c-1.18-2.49-.04-5.09,1.63-6.93,1.86-2.05,3.82,1.93,5.28-.45.35-.57.25-1.97-.23-2.41-1.06-.97-2.4-1.33-3.77-1.04-.94.2-2.25,1.23-2.88,2.22-1.99,3.1-1.32,6.26-1.03,9.94-.91-.76-.86-4.75-2.34-3.8-.23.15-.52.69-.57,1.01l-.63,3.54c-.37-3.18-.5-5.95-1.37-8.84-1.33-4.41-5.74-8.86-10.37-7.15-1.62.6-2.41,2.1-1.92,3.56.45,1.35,2.04,2.15,3.65,1.72Z"/>
      <path class="cls-1" d="M35.82,38.08l-12.7,2.76.25,20.99,32.46-8.32.37-6.54c-.58-.18-1.68-.05-2.02.35-1.29,1.55-.27,2.97-1.09,3.99l-26.56,6.66-.36-15.2,9.9-2.27c.43-.1.85-1.16.69-1.47-.16-.3-.5-.61-.94-.95Z"/>
      <path class="cls-1" d="M5.56,41.43l2.2.98-.24-5.06,12.27,5.01c.32,5.11.54,9.78.31,14.92l-12.04-5.83c.25-2.33.28-4.22-1.97-4.77l.28,6.84,15.83,8c.75-7.29.44-13.92-.23-20.87l-17.31-6.99.91,7.77Z"/>
      <path class="cls-1" d="M60.43,46.34c.22-1.71-1.21-3.25-3.01-3.48-2-.25-3.88.89-5.4,2.38-.23-.79-.65-1.94-1.15-2.51-1.1-1.24-2.91-.8-3.62.3l1.62.7c.42.18.58,1.42.51,1.91-.66,4.46-5.65,5.07-5.88,4.1l-.44-1.81c-1.35,2.34-3.29,4.51-6.3,4.54-1.09,0-2.39-.8-2.56-1.7-.17-.95.16-2.13.92-2.78.57-.49,1.88-.35,2.9-.2.1-1.41-1.13-2.21-2.46-2.04-1.69.21-3.35,1.31-4.49,2.68l-3.41,4.09c-.58.69-.09,3-.01,3.83l24.72-6.02c-.22-2.37.73-4.26,3.03-4.83,2.18-.54,2.51,2.32,4.03,2.07.36-.06.96-.81,1.02-1.22ZM47.89,50.58l3.39-3.39c-.39,1.61-1.33,3.26-3.39,3.39Z"/>
      <path class="cls-1" d="M21.51,32.65c-.8-5.38-3.3-12.66-9.22-14.13-5.9-.18-7.58,9.19-8.09,13.77l17.65,6.85-.33-6.49ZM19.07,35.13l-12.18-4.64c.4-3.25,1.69-8.5,4.92-8.75,1.17-.09,2.41.69,3.47,1.49,2.42,3.36,3.92,6.99,3.78,11.89Z"/>
      <path class="cls-1" d="M26.6,35.38c-.74-6.6-2.72-14.57-8.95-17.62-1.15-.56-3.24-.13-4.59.1,1.63.62,3.16,1.39,4.37,2.84,4.69,5.61,4.93,11.15,5.62,18.73l12.91-2.66-.26-3.1-9.12,1.72Z"/>
      <path class="cls-1" d="M27.25,43.49l.19,7.27,3.24-3.55c1.14-1.25,2.81-2.29,4.52-2.64,1.46-.3,2.96.42,3.52,1.59.45.93.23,2.88-.41,3.25-.97-.52-1.9-.89-2.24-.64-.34.26-.67,1.04-.67,1.48,0,.99,2.94,2.28,6.48-2.41.88-1.17,2.66-1.99,3.49-.72l-1.23.85c-.23.16-.01,1.12.37,1.11,1.66-.07,4.36-2.11,3.64-4.71l-2.29.38c-.4-1.67,1.05-3.31,2.56-3.73,1.71-.48,3.02.43,3.94,2.04l.46-5.06c-2.37.48-4.61.96-6.6,1.6-.39,1.64-1.28,2.64-2.38,3.61-1.53,1.33-2.54,1.41-4.38.46-1.15-.59-2.38-1.31-3.45-2.15l-8.76,1.96Z"/>
      <path class="cls-1" d="M44.14,13.97c6.3,2.74,8.85,9.19,9.49,16.13l-8.07,1.65,1.19,2.78,11.04-2.26c-.52-3.97-1.38-7.64-2.89-11.26-1.65-3.95-6.15-8.67-10.77-7.04Z"/>
      <path class="cls-1" d="M1.83,44.06c-.27.36-.45,1.26-.43,1.67.02.42.89,1.22,1.25,1.11.91-.78,2.18-1.73,3.29-1.57.87.12,2.46,1.16,2.69,2.14l.86,3.52,9.72,4.51c.33-1.08.02-1.55-.69-1.79-5.64-1.97-1.8-8.81-5.32-10.44-.34-.16-1.64.2-1.48.44.71,1.05,1.99,1.93,1.42,2.62-.26.31-.73.43-1.85.83l2.41,4.79c-3.47-1.93-2.37-5.85-6.36-8.5-1.78-1.18-4.2-1.03-5.51.69Z"/>
      <path class="cls-1" d="M39.19,42.02c.59.43,2.18,1.4,2.84,1.09,1.07-.49,2.3-1.53,2.9-2.21.48-2.56.82-5.05.49-7.77-2.76.4-4.79.83-7.4,1.57l1.16,7.31ZM41.98,35.21c2.4-.07.48,2.85,1.11,5.64l-2.3.14c.53-1.64.52-2.69-.04-4.2-.2-.55.7-1.57,1.24-1.58Z"/>
      <polygon class="cls-1" points="56.47 41.64 57.36 33.67 46.53 35.88 46.52 38.39 54.21 36.78 53.88 42.44 56.47 41.64"/>
      <path class="cls-1" d="M35.66,9.25c1.88-5.46,6.23-3.8,7.1-6.37.25-.74-.05-2.23-.75-2.53-2.44-1.06-4.82.35-6.09,2.46-1.7,2.82-1.69,6.14-1.22,9.23l.96-2.8Z"/>
      <path class="cls-1" d="M13,42.03c4.87,1.27.96,8.09,6.23,6.36l-.41-5.29-9.73-3.98.08,2.75c.05,1.68.96,3.54,2.71,3.62-.54-1.02-1.15-1.96-.99-2.54.14-.52,1.52-1.07,2.1-.92Z"/>
      <path class="cls-1" d="M26.96,14.28l2.51,1.46c-1.18-2.91-4.34-4.55-7.41-3.48-.56.19-1.31,1.06-1.25,1.57.07.62.53,1.44,1.01,1.63,1.81.7,3.02-2.41,5.15-1.18Z"/>
      <path class="cls-1" d="M13.22,12.48c1.46.93,2.17-1.5,4.44-2.74-1.54-.47-3.31-.32-4.56.85-.38.35-.32,1.6.12,1.89Z"/>
      <path class="cls-1" d="M19.28,52.73l-.04-2.59c-1.67-.45-2.05-.59-2.93-1.16-.12,1.55.96,3.52,2.97,3.75Z"/>
      <path class="cls-1" d="M49.88,7.36c.05-.34-.32-1.32-.63-1.48-1.18-.61-2.75-.44-3.66.02l2.7,1.81c.46.31,1.52.07,1.58-.35Z"/>
      <path class="cls-1" d="M1.15,41.2l2.69-.72c-.81-.88-1.94-1.4-2.97-1.3-.37.04-1.11,1.13-.8,1.33l1.08.69Z"/>
      <path class="cls-1" d="M44.86,32.12c-1.17-.32-7.46,1.19-8.01,1.55.66.47,9.13-1.25,8.01-1.55Z"/>
      <path class="cls-1" d="M31.05,3.33c-.21-.19-1.18-.15-1.18.12l-.02.92,1.89,1.85c.23-.97-.1-2.37-.68-2.89Z"/>
      <path class="cls-1" d="M12.5,22.9c-1.95-.38-3.83,5.03-3.71,6.92l9.34,3.6c-.37-3.9-1.5-6.76-3.49-9.56-.69-.39-1.54-.84-2.14-.96Z"/>
    </g>
  </g>
</svg>