<?xml version="1.0" encoding="UTF-8"?>
<svg id="Warstwa_2" data-name="Warstwa 2" xmlns="http://www.w3.org/2000/svg" viewBox="0 0 52.68 59.12">
  <defs>
    <style>
      .cls-1 {
        fill: #fff;
      }
    </style>
  </defs>
  <g id="icon-v10-loot-pixarts-store">
    <g id="icon-v10-loot-pixarts-store_28">
      <path class="cls-1" d="M7.75,51.89l9.81-6.56c5.96-3.99,11.14-8.85,14.95-14.99.53-.85.33-2.14,1.91-2.02-1.96,3.51-4.02,7.01-6.93,9.83l-5.83,5.64,5.23.85c-2.35.93-5.1-.65-7.2.61-3.4,2.04-6.47,4.21-9.81,6.53,2.84.37,3.62,1.88,4.43,4.14.3-1.5-.08-2.71-.5-4.3,2.28.89,3.89,1.74,6.35,2.22l-3.32-3.3,5.74.91c2.47.39,5.08-.25,7.01-1.67-3.04-.07-5.82-.51-8.09-2.34,7.07.68,10.17.27,15.25-4.95-1.92.34-3.64.67-5.37.24l-4.63-1.17c4.07-1.16,8.28.89,11.7-2.59,3.45-3.51,5.32-2.59,7.1-6.39-3.07,1.85-7.44,2.19-10.71,1.76,3.03-1.31,5.55-2.11,8.29-3.13,4.91-1.83,7.91-6.4,7.76-11.61-1.44,1.94-2.71,4.09-5.63,4.76.72-1.32,1.54-2.52,2.49-3.71,3.11-3.87,2.13-5.96,3.36-10.36-1.35,1.32-2.09,2.75-3.06,4.58-1.24-7.31-1.81-9.78,4.63-14.89-3.05.49-6.19,1.72-8.44,3.91-3.58,3.47-4.78,8.27-7.28,7.58-.53-2.1,1.47-3.22,1.94-5.3-4.22,2.86-7.51,7.15-8.09,12.27-.25,2.21-.14,4.35-.24,6.66-1.18-2.24-1.53-4.63-1.66-7.38-4.64,6.43-.16,9.15-3.05,15.2l-1.18-6.11c-.77-3.98,1.63-5.67-.66-8.97-.75,8.96-4.73,4.85-4.31,15.94-.58-1.8-.92-3.33-1.32-5.53-1.64,2.54-1.06,4.13-2.42,6.89l-.61-.98c-.1-.15-.57.56-.61.76l-.94,4.5c-1.5-1.88-1.41-4.4-.6-6.65l1.03-2.87c-3.53,2.67-5.14,6.76-4.21,11.18.2.96.16,2.35.02,3.04-1.14-1.73-1.98-2.97-3.36-3.79.75,2.37,1.27,3.98,1.56,6.11l-2.7-.77c.88,1.24,1.41,2.15,1.8,3.33,2.32-1.53,4.87-3.05,7.14-4.82,2.1-1.64,1.14-7.18,2.57-7.9.53,2.4.15,4.3-.3,6.69,5.5-3.21,9.72-7.52,14.27-11.92-6.74,10.58-18.2,14.55-27.52,22.08-1.74,1.41-2.83,3.71-3.52,5.99l7.75-7.22ZM38.51,28.7l4.94-1.37c-1.2,1.74-3.08,1.94-4.94,1.37ZM37.73,14.76l-.12,1.79c1.01-.06,2.14-.65,2.79-1.56l2.54-3.55-.34,7.86,1.83-2c-.29,5.53-2.41,8.31-7.84,9.25,1.9-1.28,4.21-5.06,2.26-6.4-.45-.31-1.85-.15-2.26.26-1.26,1.25-1.58,2.76-2.11,4.72-1.64-3.86-.51-8.11,3.25-10.36Z"/>
      <path class="cls-1" d="M28.95,13.12c1.03-1.83,1.87-3.75,1.83-6.04-2.58,3.96-5.92,4.25-3.73,9.38l1.9-3.35Z"/>
      <path class="cls-1" d="M39.48,42.48l3.64-1.19c1.99-.53,3.61-2.06,3.88-4.07-3.23,2.51-6.13.3-7.52,5.25Z"/>
    </g>
  </g>
</svg>