<?xml version="1.0" encoding="UTF-8"?>
<svg id="Warstwa_2" data-name="Warstwa 2" xmlns="http://www.w3.org/2000/svg" viewBox="0 0 30.3 58.69">
  <defs>
    <style>
      .cls-1 {
        fill: #fff;
      }
    </style>
  </defs>
  <g id="icon-v10-loot-pixarts-store">
    <g id="icon-v10-loot-pixarts-store_337">
      <path class="cls-1" d="M11.34,30.6c3.92-.58,6.71.45,8.56,3.14,1.58,2.3,1.31,5.12.04,7.88,2.85-1.3,3.14-4.08,3.14-6.63,0-2.09-1.85-3.83-3.47-5.89l1.56.61,1.1-4.89c.33-1.48,1.37-4.04.84-5.47l-4.25-11.51c-.99-2.69-1.85-5.23-3.63-7.84-.33,4.47-1.05,8.66-.75,13.06l.44,6.38,2.19,1.14c.54.28.73,1.98.73,2.57l-3.41-2.98c-1.37,3.44-2.61,6.85-3.1,10.42Z"/>
      <path class="cls-1" d="M4.72,46.67l1.27-2.87-.4,4.3c1.12,1.07,3.51,2.4,4.17,3.83l3.17,6.76,1.73-4.2c1.14-2.77-2.56-3.92-1.14-7.11l2.65,5.03c-.34,1.84-.98,4.13-1.15,6.27,2.96-1.72,5.93-3.35,7.76-6.09,4.56-13.99-2.21-4.44,7.51-15.81l-3.49-9.09c-.59-1.53-1.43-2.9-2.71-3.9l-1.77,3.97c-1.59,3.56,5.24,4.77,1.85,12.94-1.16,2.79-3.32,4.22-6.86,5.29l4.31,1.12c-3.49,1.15-7.9.84-10.17-2.56-1.22-1.82-.97-3.79-.66-6.04-2.5,2.4-2.75,5.79-1.21,9.01-2.79-1.49-3.16-4.68-2.62-7.55.44-2.37,2.09-4.22,3.92-5.1,2.34-1.14,4.51-.28,6.81.67-.88-1.66-2.52-2.88-3.9-3.04-2.04-.24-3.89.6-5.42,1.61-3.84-3.47-7.87,10.55-8.36,13.12l4.72-.55Z"/>
      <path class="cls-1" d="M4.84,32.55l5.65-2.76,1.53-4.59c1.3-3.92,1.24-7.95,1.34-12.13l.23-10.56-4.27,13.98-4.48,16.07Z"/>
      <path class="cls-1" d="M10.22,56.43c.38-3.6-6.09-10.06-9.86-7.7,4.07,4.04,4.63,5.21,9.86,7.7Z"/>
      <path class="cls-1" d="M25.85,43.64l-1.33,8.19c3.23-2.92,4.87-7.89,5.39-12.66l-4.06,4.47Z"/>
    </g>
  </g>
</svg>