<?xml version="1.0" encoding="UTF-8"?>
<svg id="Warstwa_2" data-name="Warstwa 2" xmlns="http://www.w3.org/2000/svg" viewBox="0 0 54.15 55.9">
  <defs>
    <style>
      .cls-1 {
        fill: #fff;
      }
    </style>
  </defs>
  <g id="icon-v10-loot-pixarts-store">
    <g id="icon-v10-loot-pixarts-store_76">
      <path class="cls-1" d="M50.53.39c-2.34-.85-5.01-.2-6.96.84.88.11,2.19.83,1.77,1.46-.17.26-1.17.51-1.13.81l.14,1.1-1.53,1.74c-.1,1.08-.15,1.79-.76,2.58l-.28-3.19c-.14-.58-1.8.17-1.92.88-.05.32-.7.89-1,.83-.3-.06-1.06-.49-.89-.75l.84-1.32c-1.58-2.36-6.47,4.74-7.2,6.28-1.98,4.19.48,8.17-3.16,10.76l-5.5,3.93c-1.99,1.42-4.11,3.43-4.96,5.7l-1.67,4.44-.18-2.26-5.95,5.86c.07.51.19,1.48.15,1.87-.04.39-.96.69-1.15.96,0,.76-.13,1.76-.5,2.34-.26.41-1.43.35-1.91.42-.58.59-1.57,1.5-2.02,1.52l-.82-1.8C.87,47.62.04,48.2,0,51.66c-.02,1.64.7,3.53,2.45,4.08,1.5.47,3.53-.18,4.7-.68-1.21-.69-1.24-2.38-1.19-3.07.03-.4,2.48-.62,2.29-.1-.08.23-.32.79-.44,1.01l-.54.98c-.08.15.73.59.85.47l3.97-4.33.35-4.56,2.44-2.16c.36,1.39-2.25,2.72-1.13,4.18l9.8-15.06c.88-3.56.38-4.44,4.25-5.89l1.11.72c.69.45,3.07-3.41,8.61-2.71,3.53.44,6.97-.55,9.54-3.06,5.35-5.21,3-4.65,5.23-7.71,1.98-2.73,3.55-11.45-1.77-13.37ZM34.27,11.52l-.84,4.81c.26.18-.08.73-.35.85-.23-2.06-.08-4.13,1.19-5.66ZM35.18,21.33c-1.24-.73-2.38-1.98-1.73-3.49l1.22,2.18c2.2,1.28,5.97,1.34,7.6-.87.93-1.26.4-3.84,2.8-3.87-.29.61-.32,1.49.18,1.82,3.68-2.25,5.23-6.2,6.5-10.4.9,7.29-9.15,18.95-16.57,14.63Z"/>
    </g>
  </g>
</svg>