<?xml version="1.0" encoding="UTF-8"?>
<svg id="Warstwa_2" data-name="Warstwa 2" xmlns="http://www.w3.org/2000/svg" viewBox="0 0 40.98 58.35">
  <defs>
    <style>
      .cls-1 {
        fill: #fff;
      }
    </style>
  </defs>
  <g id="icon-v10-loot-pixarts-store">
    <g id="icon-v10-loot-pixarts-store_14">
      <path class="cls-1" d="M37.33,12.17c-.91-.64-2.54.25-3.46.64l-5.77,2.41c-4.38,1.83-5.53-.98-7.06,1.36-.56.86-.31,1.77.25,2.78,1.36,2.46-3.34,3.96-2.5,5.25,1.43,2.2,4.43,1.63,4.91,4.34l-2.5-1.06c-1.75,3.06,1.44,3.42.86,6.57-3.55-6.5-2.03-.97-2.61-6.64-.12-1.16-2-2.15-3.04-2.04-2.46.25-4.69,2.89-4.29,5.21.56,3.21,5.3,1.79,5.98,6.48-1.24-1.02-2.6-2.13-3.73-2.6-.31-.13-1.4.37-1.33.67.66,2.74,1.25,1.36,1.34,3.68l-1.1-1.22c-.21-.23-.72-.18-1.37-.26l-.24-3.06-1.48-3.67-3.02,1.5c-1.69,2.86-1.48,7.23,1.42,9.15,1.18.78,2.82.7,3.39,2.08l-1.66-.23,2.31,5.49c-3.34-1.79-1.67-5.12-5.21-6.12l-.56,1.73c-.97-2.88-1.7-5.33-2.36-8.35-1.61,2.38-1.19,4.98-.24,7.46,1.66,4.36,5.52,5.97,9.64,9.47,3.12,2.65,6.11,5.08,10.57,5.18,1.73.04,4.42-.28,5.53-1.9,6.37-9.3,3.17-5.93,6.69-13.04,1.54-3.1,1.8-7.28-.38-9.93-2.19.09-4.82.67-6.52-1.92-2.62,7.22,5.42,6.96,4.69,11.49-.71-1.13-1.41-2.03-2.59-2.96l.07,4.88c.02,1.12.96,2.53.49,3.56l-1.21-2.82-.94,2.12c-.85-4.76,1.91-4.79-1.61-10.06l-2.31,4.57c-2.02,3.99,1.9,7.32,1.55,10.12l-1.27-1.79-.52,2.66c-.34-2.5-.5-4.15-1.6-6.57-3.34,2.83-3.05,5.52-2.54,10.2-1.98-1.58-1.12-3.77-1.65-6.12-1.15.73-1.62,1.87-2.14,3.3-1.29-3.8,2.41-3.89,5.09-9.03.77-1.48.87-3.41,1.41-4.84-6.36.56-1.16,2.96-8.84,4.63,1.9-1.34,3.51-2.32,4.6-4.85l-3.28-.47c1.02-.87,2.24-.53,3.53-.24,2,.45,4.56-.68,5.73-2.39,1.5-2.2,1.26-5.11.17-7.35-1.01-2.08-.61-3.89.37-5.79,1.2-2.33,2.75-3.98,5.42-4.73l5.4-1.52c1.23-1.36,1.12-4.28-.44-5.39ZM37.25,17.08c-1.65-.65-1.6-3.13-.42-4.39,1.07,1.07,1.19,3.1.42,4.39Z"/>
      <path class="cls-1" d="M2.06,36.57c5.08-10.04,6.66-4.12,9.96-11.2.93-2-.94-3.11-1.26-4.79-.39-2.05-.24-5.22,1.04-6.82l3.08-3.86c.98-1.23-2.37-3.26-3.59-2.13-.69.64-1.17,2.19-1.53,2.99-.66-2.11-.65-4.69-2.79-5.69-1.65-.77-4.9,2.4-3.92,3.92,1.31,2.02,3.7,3.24,3.09,6.08l-.96,4.5,3.47-2.66c.4,4.46-10.56,4.02-7.55,11.72-2.26,1.39-.53,6.36.97,7.94ZM14.37,9.51c-1.08,1.08-2.94.29-2.95-1.05.73-.4,2.11.06,2.95,1.05ZM3.66,8.53c.33-1.67,1.33-2.29,2.93-2.84l.2,1c-1.18,1.21-1.76,1.86-3.13,1.84Z"/>
      <path class="cls-1" d="M22.57.07c-.61.12-1.12,1.07-1.23,1.79l-.97,6.84c-2.89-1-3.1-8.43-5.81-5.18-1.14,1.37,4.4,5.65.91,8.43-2.73,2.19-4.01,5.75-2.92,9.09l1.15,3.52,3.15-.77c.79-.19,1.84-2.03,1.84-2.85-.62-6.67,3.77-6.38,3.67-7.76l-.16-2.33,2.06,2.96,2.21-1.58-.35,2.25,5.09-2.13-3.49-4.06c-.59-1.88,1.53-2.93,2.69-3.95.84-.74-.9-2.46-1.82-2.06-2.18.97-3.09,3.29-4.41,5.25-.87-2.89,2.07-8.22-1.63-7.47Z"/>
      <path class="cls-1" d="M39.95,18.56c-2.67.91-5.36,1.73-8.09,2.44-2.47.64-5.47,6.39-2.55,8.1l.69-1.19c.51,1.68,1.16,2.74,2.37,3.58.92.64,2.91.61,3.83-.38,2.51-2.7-1.83-6.59-1.86-8.66l4.07,2.79c.48.33,1.85.07,2.09-.45.21-.44-.17-1.55-.6-1.77l-2.18-1.15,3.16-.96c.33-.52-.24-2.35-.93-2.36Z"/>
    </g>
  </g>
</svg>