<?xml version="1.0" encoding="UTF-8"?>
<svg id="Warstwa_2" data-name="Warstwa 2" xmlns="http://www.w3.org/2000/svg" viewBox="0 0 58.71 55.44">
  <defs>
    <style>
      .cls-1 {
        fill: #fff;
      }
    </style>
  </defs>
  <g id="icon-v10-loot-pixarts-store">
    <g id="icon-v10-loot-pixarts-store_284">
      <path class="cls-1" d="M7.9,42.56c-.01.62,1.84,1.07,2.41.63l20.82-16.1c1.08-.84,1.57-1.92,1.5-3.05l-1.59.57,1.38-2.17c-1.12-.25-1.66.25-2.39.93.05-.34.46-1.38.13-1.34-.25.03-1.32.12-1.64.36L6.64,39.27c-.31.24-.34,1.63-.12,1.56l1.11-.33-1.57,2.1,1.84-.06Z"/>
      <path class="cls-1" d="M36.83,22.63l-.62-3.22-.74,7.18-.47-5.8c-.6.42-1.32,1.44-1.31,2.2l.22,15.34c.08,5.46-.88,10.8,2.4,13.4l.42-1.23c.5,1.7.77,2.82,1.9,3.68l.32-15.56c.03-1.62-.12-3.13-.12-4.74l.04-15.87c-.74.1-1.49.81-1.57,1.34l-.49,3.28Z"/>
      <path class="cls-1" d="M6.36,14.01l-2.6.38c-.15.24.26.36,1.5.43.2.01.05.05-1.16.44-.04.13,1.17,1.23,1.71,1.32l25.71,4.19c1.59.26,2.77-.58,3.64-1.66l-4.39-1.18c2.53-.51,4.82,1.48,6.94-.99-5.41-.91-10.64-1.9-16.01-2.37-3.48-.31-6.69-.42-10.05-1.3-3.4-.89-6.77-1.46-10.28-1.98.81,2.68,3.1,2.14,4.99,2.72Z"/>
      <path class="cls-1" d="M1.72,47.94l36.51,7.49c-.27-.45-1.36-1.54-1.91-1.68l-8.45-2.26,7.73,1.07c-1.18-.98-1.84-1.36-1.97-2.83l-27.27-5.39c-1.02-.2-2.22.83-2.26,1.53l2.84.6c-2.06.68-3.99-.85-5.22,1.47Z"/>
      <path class="cls-1" d="M.66,36.1l.25,10.57c.67-.28,1.41-1.09,1.52-1.71l.6-3.27.4,3.15c.91-.33,1.76-1.49,1.74-2.7l-.13-6.49-.55-8.8.21-7.36c.05-1.59-.22-2.99-1.63-3.96l-.47,4.05-.69-4.91c-.11-.77-1.07-1.94-1.86-2.68-.04,3.3-.15,6.44.1,9.76.36,4.83.39,9.48.51,14.36Z"/>
      <path class="cls-1" d="M32.8,47.83c.43-5.71.15-10.97-.12-16.53l-.17-3.48c-.57.34-1.91,1.17-2.03,1.82l-.73,3.9-.27-3.28c-1.63.56-2.5,1.79-2.41,3.54.24,4.51-1.19,8.87.93,13.5l1.38-7.23c.77,2.64-1.1,6.82.42,7.04.27.04,1.09-.31,1.13-.58l.52-3.89c.75,1.82-.46,3.69,1.34,5.19Z"/>
      <path class="cls-1" d="M17.96,13.55c1.06.02,2.49-.14,3.41-.02l16.95,2.21c-.7-2.29-2.49-2.75-4.58-3.04l-23.53-3.34c-2.16-.31-4.97.85-7.01,1.14,3.98.76,7.66.96,11.27,2.42,1.03.3,2.81,0,4.09.04-.46.45-.93.91-.6.59Z"/>
      <path class="cls-1" d="M41.22,19.56l-.51,4.38-.54-4.99-.57,7.99c-.19,2.69.16,5.45.17,8.16l.05,18.96c.99-2.5.83-4.67,1.2-7.59l.64,3.03c.64-1.55.85-3.25.84-5.07l-.14-21.92c0-1.1-.54-2.3-1.16-2.96Z"/>
      <path class="cls-1" d="M10.14,34.56l1.11.08c.25.02.41-.9.41-1.18v-14.1s-2.58-.58-2.58-.58c-.09,3.34-.08,5.52-.8,8.24l-.03-8.06-1.28-.59c-.21-.1-.31.83-.3,1.12l.44,18c1.42-.65,2.5-1.74,3.03-2.93Z"/>
      <path class="cls-1" d="M43.47,16.99l-1.33,1.44c-.26.28.66,1.39,1.04,1.4l5.16-3.39c2.75-1.8,5.15-3.57,7.66-5.43l.29.94c.66,2.15.23-4.74,1.58-6.67l-17.35,11.6c1.36,1.69,1.8.09,2.96.11Z"/>
      <path class="cls-1" d="M12.71,19.22c-.35,4.85-.32,9.3-.07,14.13l6.35-5.06v-7.93s-4.74-.73-4.74-.73l-.12,6.1c-1.91-.68.33-5.73-1.42-6.51Z"/>
      <path class="cls-1" d="M45.07,26.76l8.5,10.68c.82-.39,1.72-.91,1.53-1.25l-.88-1.54c.23.07,1.03.69,1.02.4,0-.24.04-1.49-.14-1.73l-9.95-12.87c-.22-.28-1.4.78-1.09.88,1.42.45-2.5,1.02,1.03,5.44Z"/>
      <path class="cls-1" d="M26.08,46.58c.93-5.37-.16-7.99.06-13.8-4.13,2.98-4.06,2.34-4.76,6.85l-.43-2.79c.14-.35-.73.78-.72,1.14l.02,7.19,3.89.71.29-3.29c.86,1.54-.53,2.9,1.65,3.99Z"/>
      <path class="cls-1" d="M47.13,49.1l10.62-9.31c-.06-.2-.78-.74-1.14-.65l-1.24.32,1.25-.88c.24-.17-.64-1.08-.93-.84l-12.31,10.04c-.34.28-.7,1.24-.74,1.48-.03.18.36.26.59.36l-2.12,4.4c2.45-1.49,3.97-3.13,6.01-4.92Z"/>
      <path class="cls-1" d="M57.43,14.72l-.82-2.18-.43,22.26c-.03,1.45.56,2.73,1.85,2.99.73-5.2.11-9.61.29-14.38l.38-10.03.02-7.11c-1.39,2.67-1.57,5.34-1.28,8.46Z"/>
      <path class="cls-1" d="M37.78,13.11l2.43,2.31,6.83-4.25,10.61-6.83c-2.34-.02-5.07-.05-6.81.99l-13.07,7.78Z"/>
      <path class="cls-1" d="M24.47,1.83c-.57-.75-1.18-1.32-1.94-1.81L2.71,9.32c2.76-.09,5.06-.35,7.77-.67L24.47,1.83Z"/>
      <path class="cls-1" d="M25.47,1.49c.45.03,1.09.05,1.64.13,6.61,1.04,15.32,2.17,23.17,2.72,1.85.13,3.8-.66,5.49-.82L25.06,0c-.28.26,0,1.46.4,1.49Z"/>
      <path class="cls-1" d="M26.78,10.56c1.84.49,4.06,1,5.48.87,3.7-1.9,6.62-3.7,10.19-5.94l-4.44-.81-11.23,5.89Z"/>
      <path class="cls-1" d="M31,4.26c-2.09.86-3.98,1.63-5.76,2.57l-5.47,2.91c2.47.35,4.83.5,6.78.42l9.58-5.42c-1.31-.32-3.83-1.02-5.14-.49Z"/>
      <path class="cls-1" d="M45.85,30.4l-.07,12.87,1.31-1.11c2.77-.16,1.85-6.42,1.48-8.61-.18-1.04-1.85-2.43-2.73-3.16Z"/>
      <path class="cls-1" d="M25.14,3.55l-11,5.31c1.83.4,3.33.25,4.66-.16l.2.68c.05.17.8-.15,1.05-.29l9.42-5.22c-.89-.19-3.3-.81-4.32-.32Z"/>
      <polygon class="cls-1" points="47.59 6.1 43.75 5.68 33.6 11.61 37.12 12.44 47.59 6.1"/>
      <path class="cls-1" d="M51.3,16.36c-.61.32-1.66,1.05-1.68,1.48-.31,4.86-.85,7.69,2.89,10.37.21-4.52.21-8.62.09-13.14-1.97,2.73.19,5.43-1.1,8.37l-.2-7.07Z"/>
      <path class="cls-1" d="M25.61,21.38l-6.08-.9.21,7.21,5.32-3.95c.49-.37.64-2.08.54-2.36Z"/>
      <path class="cls-1" d="M43.33,40.48l-.03,4.32c1.84-.11,1.93-1.34,1.93-2.76l.02-10.77c0-1.62-.24-3.1-1.83-3.79l-.09,13Z"/>
      <path class="cls-1" d="M14.79,44.07l4.35.9.11-6.99-5,3.7c-.34.43.02,2.28.53,2.39Z"/>
      <path class="cls-1" d="M54.68,13.81c-.89.2-1.36,1.15-1.37,2.14l-.16,12.33c-.01,1.04.47,2.12,1.38,2.43l.14-16.9Z"/>
      <polygon class="cls-1" points="45.78 20.08 48.66 23.86 48.92 17.66 45.78 20.08"/>
      <polygon class="cls-1" points="52.4 38.27 49.62 34.22 49.64 40.41 52.4 38.27"/>
    </g>
  </g>
</svg>