<?xml version="1.0" encoding="UTF-8"?>
<svg id="Warstwa_2" data-name="Warstwa 2" xmlns="http://www.w3.org/2000/svg" viewBox="0 0 41.82 57.23">
  <defs>
    <style>
      .cls-1 {
        fill: #fff;
      }
    </style>
  </defs>
  <g id="icon-v10-loot-pixarts-store">
    <g id="icon-v10-loot-pixarts-store_43">
      <path class="cls-1" d="M39.14,16.62c.62-.95,1.39-2.29,1.76-3.37.23-.68-1.22-2.17-1.67-2.24-1.95,3.99-8.59-.09-10.76-2.02-1.07-.96-1.01-2.03-.44-3.54-.51-.31-2.48-.55-2.96.02-2.74,3.25-.23,5.38-.68,6.68-.79,2.3-1.93,4.59-3.31,6.56-3.13.11-6.06-.01-8.87,1.16-2.79,1.16-5.49,3.01-7.5,5.31-6.12,7.02-6.46,18.3-.02,25.11,2.42,2.56,5.44,4.63,8.8,5.86,6.38,2.33,13.7.71,18.69-3.84,8.52-7.78,8.79-19.71,1.03-28.08.57-2.64,1.8-5,3.52-6.95l2.41-.67ZM19.06,24.69c1.23,0,2.22.99,2.22,2.22s-.99,2.22-2.22,2.22-2.22-.99-2.22-2.22.99-2.22,2.22-2.22ZM34.91,33.47c2.56,4.53.93,10.23-1.86,14.11-3.05,4.25-7.48,6.63-12.21,7.01-5.28.42-9.84-1.6-13.68-5.4-5.06-4.99-6.02-13.49-2.12-19.6,1.39-2.18,4.59-2.56,6.82-1.9,5.1,1.51,5.15,6.04,9.92,4.99,2.79-.61,11.08-2.86,13.13.78ZM25.26,24.81c-.8,0-1.44-.65-1.44-1.44s.65-1.44,1.44-1.44,1.44.65,1.44,1.44-.65,1.44-1.44,1.44ZM27.61,27.62c.56,0,1.01.45,1.01,1.01s-.45,1.01-1.01,1.01-1.01-.45-1.01-1.01.45-1.01,1.01-1.01ZM34.4,17.47c-1.5,2.3-2.51,4.75-3.7,7.29l1.02-4.71c-2.41-.3-4.58-1.42-6.33-3.03-.55.98-1.16,1.9-2.06,2.65l1.88-4.56c.45-1.1.53-2.26.45-3.76,3.02,2.5,5.89,4.12,10.11,4.91l-1.37,1.21Z"/>
      <path class="cls-1" d="M41.82,5.79C39.07,1.92,35.16-.36,30.36.05l3.41,3.96c-1.64-.55-2.46-1.39-3.84-2.43l-.99,5.67c2.21,2.5,5.18,4.16,8.62,3.73l3.1-3.74c-1.66-.36-2.84-.71-3.71-1.39,1.92.1,3.29.14,4.86-.07Z"/>
      <path class="cls-1" d="M15.13,31.45c-1.55-1.68-3.66-2.84-5.98-2.48-4.59.72-7.49,11.22-1.25,18.57,6.11,7.2,17.06,7.19,23.04-.16,2.53-3.1,4.13-6.87,3.22-11.13-6.56,5.39-14.58.35-19.03-4.8ZM8.95,39.42c-.83,0-1.5-.67-1.5-1.5s.67-1.5,1.5-1.5,1.5.67,1.5,1.5-.67,1.5-1.5,1.5ZM20.91,47.9c-.43.9-2.56-.07-2.75.22l-.77,1.2c-.14.22-.66.57-.9.67-.24.11-.53-.59-.76-.96l-.7.62c-.13.11-.49-.28-.52-.44l-.14-.79c-.31.13-1.11.69-1.17.45l-.32-1.32-.52.17c-.17.06-.72.15-.69-.03.03-.19.17-.75.25-.94l.57-1.27c.15-.32-1.62-1.4-1.46-2.18.06-.29.48-.88.57-1.16.6-1.93,1.19-3.56,2.7-4.34,3.4-1.74,7.52.26,8.61,3.77.71,2.27-.6,3.38-2.01,6.35ZM25.14,48.74c-.44,0-.79-.35-.79-.79s.35-.79.79-.79.79.35.79.79-.35.79-.79.79ZM29.49,43.06c0,.92-.74,1.66-1.66,1.66s-1.66-.74-1.66-1.66.74-1.66,1.66-1.66,1.66.74,1.66,1.66Z"/>
      <circle class="cls-1" cx="29.47" cy="34.75" r="1.39"/>
      <path class="cls-1" d="M27.25,16.77c4.45,2.68,5.63.9,5.37.71-1.45-1.07-3.06-1.1-5.81-2.9-.47.32-.26,1.76.45,2.19Z"/>
      <circle class="cls-1" cx="14.46" cy="42.38" r="1.61"/>
      <circle class="cls-1" cx="19.28" cy="44.79" r="1.52"/>
      <path class="cls-1" d="M15.38,45.31c-.27.34-.62.97-.36,1.03l1.17.27c.19.04.14-1.03.14-1.29,0-.32-.82-.19-.95-.02Z"/>
    </g>
  </g>
</svg>