<?xml version="1.0" encoding="UTF-8"?>
<svg id="Warstwa_2" data-name="Warstwa 2" xmlns="http://www.w3.org/2000/svg" viewBox="0 0 62.71 40.57">
  <defs>
    <style>
      .cls-1 {
        fill: #fff;
      }
    </style>
  </defs>
  <g id="icon-v10-loot-pixarts-store">
    <g id="icon-v10-loot-pixarts-store_163">
      <path class="cls-1" d="M62.6,13.08c-.16-.58-1.02-1.36-1.64-1.69-3.88-2.02-.39-4.06-4.77-5.08-1.2-.28-3-.64-3.78-1.41-4.63-4.52-5.45-.49-9.5-3.22-3.59-2.42-5.05.33-8.65-1.11-2.12-.84-4.06-.73-6.19.13-3.08,1.24-4.3-1.85-9.33,1.52-1.68,1.12-4.99-.96-7.44,1.83-1.08,1.23-2.38,1.82-4.06,2.07-4.86.72-1.95,3.68-5.45,5.31-1.6.74-2.34,2.41-1.29,3.95.83,1.21.79,2.66.81,4.2.04,3.06,4.92,1.53,6.14,4.22,2.19,4.83,6.59.24,9.86,3.79,1.64,1.78,4.08,1.8,6.23.88,5.02-2.15,5.97,3.48,10.49.78,1.38-.82,2.95-1.05,4.6-1.28.71-1.05-.15-2.63-.72-3.87l-6.17-13.58c7.86,1.81,14.63,4.66,21.34,8.4l3.06-1.88c.43-1.26.99-2.15,2-2.8l-.68,2.5c-.28,1.01-.86,1.45-2.26,1.96,1.81.3,2.62,1.95,3.02,3.45,1.86-.13,3.69-1.63,3.25-3.7-.54-2.54,1.77-3.12,1.14-5.37ZM5.44,17.95l-.8-3.8c.95,1.17,1.52,2.4,2.19,3.45.9,1.41,3.58.87,4.06,3.23-1.85-1.7-5.16-1.5-5.45-2.89ZM34.54,24.44c-4.64,3.63-5.15-1.28-10.66.39-1.8.55-3.53.18-5-.93-3.08-2.33-5,.36-7.58-1.66l4.74-.52c4.19-.46,3.04,2.81,7.95,1.91,6.31-1.16,4.25,1.97,10.55.81ZM21.63,7.7c1.91-1.07,4.49-1.66,6.09.71-2.1.33-4.12-.08-6.09-.71ZM28.07,11.44c-1.37,1.91-3.11,3.2-5.52,3.61.34-2.37,3.05-3.56,5.52-3.61ZM34.83,8.61c.32-2.43,3.99-2.21,6.12-1.08-2,.73-3.86.95-6.12,1.08ZM21.07,4.96c-4.06.78-7.42,2.26-10.93,3.93-1.6.76-2.75,1.58-3.95,3.13-.2-.91.35-2.2,1.29-2.86,5.92-4.16,12.77-6.15,20.03-6.67,7.04-.51,13.9.13,20.41,2.76,2,.81,3.97,1.68,5.24,3.53-10.27-4.87-20.99-5.96-32.1-3.83Z"/>
      <path class="cls-1" d="M8.95,28.36l-2.97-3.77c-.28-.36-1.45-.44-1.75-.2,1.02,2.75,1.44,5.84,2.97,8.32,4.3,6.99,22.39,8.93,30.02,7.32l.38-10.07c-3.46.47-4.41,3.59-8.8,1.18-5.75-3.15-5.17,1.96-11.33-.96l.67,6.03c-1.55-2.19-1.22-4.57-2.09-6.7-.78-1.92-4.35-1.78-5.59-.86l1.31,5.98c-2.1-1.72-1.39-4.47-2.82-6.28Z"/>
      <path class="cls-1" d="M39.24,32.29l12.69,3.59c1.26-.87,3.2-1.82,3.79-3.12,1.28-2.81,2-5.52,2.88-8.61-3.94-.05-2.64,3.36-4.72,6.59.22-1.97.56-4.41.86-6.17.09-.53,1.17-1.22,1.46-1.64.29-.42-.1-1.57-.44-1.96-.34-.39-1.75-.24-2.28-.52-5.9-3.07-12.15-6.15-18.78-7.78-.16,1.12.62,1.93,1.68,2.33l9.16,3.49c2.73,1.04,5.07,2.38,7.7,4.05l-1.93,9.66c-.12.6-1.17,1.29-1.77,1.13l-10.21-2.74-.09,1.7Z"/>
      <path class="cls-1" d="M49.17,31.04c.49-.16.85-1.68.62-2.11-.23-.42-1.1-1.14-1.5-.9l-2.96,1.76c.99.94,2.68,1.61,3.85,1.24Z"/>
      <path class="cls-1" d="M43.83,19.6c-.22-.07-.84-.23-1.08-.19-1.2.16-3,.96-2.57,2.75l3.2-1.31c.29-.12.72-1.16.45-1.25Z"/>
      <path class="cls-1" d="M51.01,24c-1.22-1.55-2.17-2.67-4.25-2.19l2.2,2.79,2.05-.6Z"/>
    </g>
  </g>
</svg>