<?xml version="1.0" encoding="UTF-8"?>
<svg id="Warstwa_2" data-name="Warstwa 2" xmlns="http://www.w3.org/2000/svg" viewBox="0 0 57.77 61.56">
  <defs>
    <style>
      .cls-1 {
        fill: #fff;
      }
    </style>
  </defs>
  <g id="icon-v10-loot-pixarts-store">
    <g id="icon-v10-loot-pixarts-store_260">
      <path class="cls-1" d="M4.76,16.77c2.59-1.01,4.82-1.05,6.72,1.26,1.01,1.22,1.81,2.58,2.25,4.2.48,1.81,1.3,3.36.74,5.18l-11.34-6.19,1.75-3.69-2.36-1.41c-.27,1.94-2.92,5.84-1.95,6.36l1.12.6,15.12,8.11c1.06-3.35-.03-6.23-1.21-9.3l-1.5-3.87c1.12.39,1.4,1.33,1.68,2.55.85,3.61,2.58,2.1,2.46,10.75l9.22-1.93c.32-.81.7-1.69,1.01-2.2.11,1.41.15,2.37.85,3.26,1.97,2.51,6.21,1.05,8.66-.62-.24-.93-1.29-2.5-2.09-2.41-.98.11-1.52.25-1.97-.05-.64-.42-1.09-1.77-.68-2.23,1.52-.15,3.24.14,4.9.49l3.85-1.94c.31.41.45,1.67.17,2.2-.22.43-.73.52-1.66.8-.46.59-.96,1.77-1.34,2.89,1.19.24,2.89.66,3.79.27,2.37-1.05,2.46-3.86,1.2-5.52l2.01,1.51,7.49-1.82c-1.05-2.87-2.16-4.75-3.45-7.07l.56-5.64-2.14,1.93.08-2.88c.06-2.22-.16-4.35-1.2-6.23-.74,1.71-1.16,2.82-2.2,4.15-.2-3.59-1.05-6.53-4.14-8.29.43,2.33.24,4.43-.73,6.03l-1.98.38c1.35.61,2.71.87,3.66,1.6,2.64,2.04,3.96,5.12,5.07,8.15l2.13,5.8c-1.22.43-2.46.73-4.1.62l2.61-1.32-2.45-7.38c-1.19-3.59-5.44-7.08-9.26-6.23l.39,1.54c-1.36-1.3-2.38-2.27-4.03-3.12l.17,3.5c-1.86-2.47-3.34-4.56-6.42-5.3l1.45,4.85c-1.6-1.51-3.45-2.35-5.97-2.25.42.76.96,1.42,1.85,2.46-1.33-.28-3.4-.74-4.76-.25l-3.47,1.25c2.18,2.76,3.91,6.31,4.93,9.93l1.73,6.15c1.9-.3,3.86-.91,5.75.09l-6.56,1.13c-.9-4.61-4.19-18.16-10.13-18.34l1.51,1.91-5.11-2.66c-2.39-1.24-4.12-2.92-5.26-5.61-.97,3.72.54,6.83,2.23,10.24-1.79-.42-3.15-1.51-4.42-2.56.25,2.69,2.5,5.45,4.76,6.15ZM39.34,11.66c.03,1.66-.44,3.11-2.11,3.99l2.11-3.99ZM25.01,23.91l3.19-.34c-4.64-.87-4.41-6.2-5.54-3.28l-2.68-3.65c.83.36,1.78,1.1,2.38,1.05,6.26-.49,7.76,4.72,10.12,2.88.7-.55.75-1.89.28-2.82-.97-1.93-2.89-2.43-5.03-3.39,2.5-.49,6.55,2.92,6.53,5.89.22-.03,1.04-.3,1.07-.68l.2-2.27,1.44,2.58.69-2.65,1.37,2.6c.47.17,1.53-.79,1.8-1.27,2.76-4.99,3.24-2.29,3.65-5.43,1.55,1.91-.22,5.94-1.83,8.19l1.24.11-2.52.4c.26.36.53,1.26.41,1.75l-3.23-3.22c-1.84-1.01-4.47.25-5.43,1.35l1.24,1.67-2.93-.71-1.87,2.09c-1.21-1.34-1.98.48-4.55-.84ZM15.02,16.46l-2.27-2.95c1.47.26,2.19,1.37,2.27,2.95Z"/>
      <path class="cls-1" d="M46.16,26.99l-.64,2.59,3.7-.74.03,3,.91-.9c-.08.35-.68,1.31-.75,1.78l-.6,3.87c-1.38.17-1.53,1.23-1.72,2.33l-6.81,1.81.34-1.69c1.85.5,4.03-.4,5.44-1.12,1.49-3.49,3.58-2.85,1.74-7.69l-2.7.84c-.79,2.52-1.38,4.88-4.22,6.17l-.2-3.65c-.58.02-1.44.11-1.63-.24l-.76-1.46-1,1.86c-.6-.41-1.1-.91-1.19-.66l-.35.99c-.11.31-.33,1.09-.61,1.05l-1.55-.22-.59,4.13c-2.51-.65-2.77-2.8-4.23-5.26l-.59,3.97-.92-3.05-4.06.9-.72,1.79c-.46,1.13-1.42,2.96.09,3.85.76.44,1.13.84,1.79,1.86l2.46-.65c.17.07.92.3,1.17.23l5.75-1.5,1.18-2.5.21,1.95c1.48.43,2.76-1.23,4.41.18l-11.09,2.48c-1.01.23-1.93.82-2.73,1.54l.28-.92c.18-.59-2.33,1.19-2.74.2-.2-.48-.36-1.56-.69-1.5l-1.52.28c-.58-7.04-.08-3.09.89-8.05l7.07-1.56c-.33-.92-.9-1.92-1.61-2.48l-9.31,2.01c.13,2.64.23,4.48-.05,6.74-.8-2.4-1.03-4.49-1.19-6.9L.49,23.53l1.44,6.97c.7,3.4-.81,5.53-.71,5.66.24.3.76.82,1.13,1.14l2.92,2.58c.38.34,1.36.63,1.76.42.35-.18.98-1.21.71-1.45l-2.56-1.84-1.14-4.21c-.45-1.68-.69-3.2-1.09-5.28l11.44,6.67c.87.51,2.04,6.78.56,8.39.04-1.72.04-2.98-.31-4.4l-.76-3.15-8.71-5.16c-1.73,2.74,2.91,10.75,4.14,6.92,1.5,4.88-6.04,5.68-2.49,8.38,2.69,4.95.81,7.76,1.71,9.08l2.75,4.05c.15-1.25.72-3.14,1.69-3.74.36-.22,1.43.17,1.97.42-.1-1.44-1.38-2.41-3.13-2.32l1.41-.95c2.02,1.11,2.93,3.08,3.04,5.39.42.63.73.93.64.16.11-2.29.68-3.51,2.91-3.92-.89-.88-1.72-1.05-3.27-1.63.61-.32,1.93-.45,2.75-.12.62.25,1.23,1.33,1.57,2.09l1.34,2.97c-.03-.94-.04-2.03.13-2.95.11-.59,1.04-1.02,1.96-1.52-1.69-1.53-.31.21-4.71-1.81-1.4-.64-3.8-.86-4.68-2.05l-2.21-3c-.41-.55-.66-1-.27-1.74,1.45,2.2,3.1,1.78,5.47,1.3-.43.66-1.03,1.06-2.23,1.64,1.21.81,2.94,1.2,4.38.34-.04.48-.24,1.23-.03,1.18.16-.04.7-.17.86-.23,2.08-.82,4.28-1.14,6.44-1.65l21.52-5.09.89-1.45,1.02-1.66,1,1.56c.19-.8.4-1.76.32-2.22-1.39-7.69.46-5.78,1.02-11.68l-6.94,1.4Z"/>
      <path class="cls-1" d="M42.57,43.86c-1.45.16-3.4.72-4.77,1.37-.31.75-.22,2.57.22,3.2,1.04,1.48,3.43.05,5.92,2.38.95.88,2.22,1.22,3.35,1.09-.36-2.22-.31-3.46,1.63-4.58l-3.37-.54c-.09-.11-.57-.74-.55-.71.42.44,4.59-1.02,5.6,2.6l1.56-2.5-2.52-.34c1.29-1.32,3.01-.19,4.29.93l.84-1.53c-2.96-1.33-3.31.21-8.17-1.8l-4.04.45Z"/>
      <path class="cls-1" d="M7.57,17.25c-.86,2.49-.5-.35-2.59,3.71l8.44,4.39c.46-2.1-4.28-9.7-5.84-8.1Z"/>
      <path class="cls-1" d="M18.76,54.44c-1.12.67-1.03,2.65-.37,3.51l2.36,3.1c.94-2.28.34-6.82-1.99-6.62Z"/>
      <path class="cls-1" d="M15.19,56.99c-.33-.68-1.36-1.89-1.92-1.58-1.01.55-1.21,2.32-.77,3.08l1.8,3.08c.7-1.83.83-2.89.89-4.57Z"/>
      <path class="cls-1" d="M24.02,53.31c-.58.08-1.14,1.48-1.03,2.02.45,2.1,1.43.95,3.14,3.94.85-1.91.3-5.27-2.11-5.95Z"/>
      <path class="cls-1" d="M51.46,53.93c.31-1.99-.31-4.75-2.4-5.45-1.04.13-1.52,2.4-.62,3.03,1.08.77,1.81,1.39,3.02,2.42Z"/>
      <path class="cls-1" d="M52.29,47.22c-.87.33-.44,2.61.45,3.02,1.15.53,1.95,1.06,2.95,1.75.32-2.01-.94-4.82-3.4-4.77Z"/>
      <path class="cls-1" d="M33.09,32.97l-2.88-.28c.06,1.85.45,3.38,1.89,4.9l.99-4.62Z"/>
      <path class="cls-1" d="M41.66,31.43l.31,3.95c1.38-1.58,1.79-2.56,2.22-4.37l-2.54.42Z"/>
      <path class="cls-1" d="M55.13,46.25c-.51,0-.23,1.63.18,1.92l2.45,1.76c.15-1.77-.87-3.68-2.63-3.68Z"/>
      <path class="cls-1" d="M25.77,19.39c-.28.8.14,2.11.71,2.45.77.46,1.83.35,2.8-.1-1-1.02-1.99-1.81-3.52-2.35Z"/>
      <path class="cls-1" d="M42.8,19.62c.43-1.07.66-2.14.58-3.15l-1.91,2.64c-.19.28,1.2.82,1.33.51Z"/>
    </g>
  </g>
</svg>