<?xml version="1.0" encoding="UTF-8"?>
<svg id="Warstwa_2" data-name="Warstwa 2" xmlns="http://www.w3.org/2000/svg" viewBox="0 0 37.13 52.61">
  <defs>
    <style>
      .cls-1 {
        fill: #fff;
      }
    </style>
  </defs>
  <g id="icon-v10-loot-pixarts-store">
    <g id="icon-v10-loot-pixarts-store_82">
      <path class="cls-1" d="M36.98,34.29c-.2-.95-.34-2.05-.59-2.94-2.2-8.05,1.01-8.55.15-9.99-.91-1.52-8.29-3.29-10.57-3.99l-2.52,4.24-9.71-.07-2.23-4.17c-2.02.53-10.09,2.51-10.77,3.92-.13.28-.03,1,.1,1.3,2.01,4.5-.42,8.06-.81,13.38-.38,5.1,2.36,9.65,6.29,12.57,7.23,5.39,17.38,5.55,24.77-.21,3.28-2.55,5.77-5.88,6.01-10.26l-1.24-.92c1.48-1.11,1.36-1.69,1.12-2.85ZM8.07,44.55c2.42-1.88-.25-3.93-.82-5.97,1.39.63,2.76,1.8,3.22,3.3.46,1.49-.01,2.59-1.14,3.75l5.8,3.42c-.96.32-9.59-2.53-7.05-4.51ZM15.52,43.47l1.41-7.17c-1.86-1.38-2.3-3.7-.92-5.3,1.34-1.57,3.75-1.66,5.15-.24,1.61,1.65,1.2,4.16-.77,5.5l1.45,7.14-6.33.07ZM30,45.46c-2.1,2.04-4.96,3.32-7.86,3.53,2.09-1.14,3.98-2.09,5.71-3.44-1.5-1.71-1.54-3.44-.36-5.01.63-.84,1.61-1.49,2.6-2.01l-1.85,3.84c-.42.87.88,2.22,1.76,3.09ZM33.16,41.33c-.19.3-.8.79-1.1.86-.3.06-.86-.33-1.01-.54,3.1-1.83,2.38-7.84.93-9.88-.37-.52-1.7-.9-2.33-.45-.43.3-.06,1.66.1,2.23-.76.37-1.7-.57-1.8-1.38-.1-.84.5-2.07,1.34-2.22l2.11-.39.37-6.02c-.53-.48-2.35-1.17-3.33-1.2-.47-.01-1.14.93-1.3,1.34-.16.41.28,1.42.88,1.76.36.2,1.13-.66,1.59-1.01.27.32.14,1.46-.21,1.84-.32.36-1.49.65-1.97.48-3.07-1.1-5.94-1.25-9.13-1.28-6.63-.06-7.91,1.9-9.95,1.05-.59-.25-1.06-1.22-.76-2.2l1.37,1.25c.53-.27,1.25-.85,1.3-1.31.04-.46-.49-1.67-.94-1.81-1.06-.33-2.82.42-3.72,1.07l.27,5.92,1.97.41c.8.17,1.56,1.28,1.56,2.02,0,1.16-.83,2.15-1.9,1.75l.57-1.7c.14-.42-1.06-.9-1.48-.77-3.05.92-3.22,7.65-1.02,9.77l.61.59c.13.12-.05.42-.17.54-1.29,1.25-3.61-3.09-3.16-6.14.94-6.33,2.6-7.36.85-13.39l5.98-2.11c1.07,1.29,1.94,2.94,2.33,4.27,3.81-.64,9.35-.52,13.31-.01.44-1.34,1.27-2.94,2.33-4.23l5.92,2.09c-2.55,7.51,3.44,12.65-.39,18.81Z"/>
      <path class="cls-1" d="M16.54.28l-.98,1.83c-3.26-.93-2.87,4.92-5.5,1.77,1.01-.76,2.08-1.07,2.11-2.24-6.49,3.06-7.96,9.35-7.23,16.04l4.68-1.41-.59-1.28-.45.85c-.07.14-.59-.12-.6-.28v-2.48s1.15-.17,1.15-.17c.68-3.29,3.85-7.05,7.65-7.78,3.36-.65,6.66.33,8.83,2.9,1.91,2.26,2.35,4.99,2.02,8.2l4.58,1.29c.74-1.53-.25-2.12-.75-3.03l-1.59-2.87c.12-.27.76-.99.54-1.19l-.99-.91c-.22-.2.43-.92.73-.91l1.4.03C29.85,2.57,22.25-1.07,16.54.28Z"/>
    </g>
  </g>
</svg>