<?xml version="1.0" encoding="UTF-8"?>
<svg id="Warstwa_2" data-name="Warstwa 2" xmlns="http://www.w3.org/2000/svg" viewBox="0 0 54.63 59.09">
  <defs>
    <style>
      .cls-1 {
        fill: #fff;
      }
    </style>
  </defs>
  <g id="icon-v10-loot-pixarts-store">
    <g id="icon-v10-loot-pixarts-store_218">
      <path class="cls-1" d="M27.32,54.63c15.09,0,27.32-12.23,27.32-27.32S42.4,0,27.32,0,0,12.23,0,27.32s12.23,27.32,27.32,27.32ZM27.32,4.01c12.87,0,23.29,10.43,23.29,23.29s-10.43,23.29-23.29,23.29S4.02,40.17,4.02,27.3,14.45,4.01,27.32,4.01Z"/>
      <rect class="cls-1" x="24.3" y="56.37" width="2.84" height="2.58" transform="translate(-32.14 82.92) rotate(-89.55)"/>
      <path class="cls-1" d="M20.35,56.02c-.05.73.07,2.17.51,2.4.45.23,1.81.35,2-.2.24-.69.01-2.56-.83-2.51-.48.03-1.65-.18-1.68.32Z"/>
      <path class="cls-1" d="M39.2,56.06c.02-.7-.13-1.9-.27-2.24-1.05.45-2.14.86-2.16,1.41-.02.62.17,1.86.32,2.19.92-.28,2.09-.78,2.1-1.35Z"/>
      <path class="cls-1" d="M31.11,58.52l-.06-2.09c-.01-.47-1.78-.37-2.16-.09-.55.41-.52,2.44.14,2.59.78.17,2.09.06,2.08-.41Z"/>
      <path class="cls-1" d="M35.1,57.91c.14-.43.09-1.62-.04-2.26-.13-.61-1.99-.07-2.21.53-.22.59-.3,2.38.31,2.35.63-.03,1.81-.18,1.94-.61Z"/>
      <path class="cls-1" d="M42.95,51.72c-.62.2-1.6.7-2,1.24-.41.57-.19,2.4.23,2.33,1.83-.51,2.62-1.83,1.77-3.57Z"/>
      <path class="cls-1" d="M16.46,54.39c-.17.58-.23,1.87,0,2.28.22.4,1.19.74,1.82.84.58.09.6-2,.18-2.4-.43-.4-1.44-.78-1.99-.71Z"/>
      <path class="cls-1" d="M12.57,52.33c-.03.39-.05,1.41-.04,2.02.02.52,1.08,1.05,2.05,1.4.12-.35.24-1.65.13-2.14-.11-.5-1.02-.82-2.14-1.28Z"/>
      <path class="cls-1" d="M46.73,48.83c-1.38.17-2.77,2.33-1.62,3.69,1.18-.31,2.14-2.24,1.62-3.69Z"/>
      <path class="cls-1" d="M10.61,53.16c.66-1.52-.18-2.99-1.8-3.64-.47,1.51.19,2.85,1.8,3.64Z"/>
      <path class="cls-1" d="M6.86,49.91c.78-1.88-.32-3.22-1.88-3.75.58,1.53,1.17,2.6,1.88,3.75Z"/>
      <path class="cls-1" d="M49.57,45.75c-.92.66-1.43,1.94-1.1,3.09,1.02-.51,1.7-2.16,1.1-3.09Z"/>
      <path class="cls-1" d="M27.33,49c11.97,0,21.67-9.7,21.67-21.67S39.3,5.66,27.33,5.66,5.66,15.36,5.66,27.33s9.7,21.67,21.67,21.67ZM12.52,25.71c.33,3.51,1.45,5.97,3.36,8.69l-2.47-.56c2.27,5.9,9.16,9.44,15.29,7.8,1.83-.49,3.08-2.04,2.91-3.57-.47-4.19-5.4-2.38-9.97-4.45-2.16-.97-3.6-3-3.73-5.05-.4-6.09,8.5-7.41,5.08-10.96-.29-.3-1.52-.17-1.65.23l-.52,1.59c-1,.54-2.48,1.25-3.11,1.94l-1.09,1.19c-.24.26-1.38-.33-1.49-.45,1-1.12,1.59-1.84,2.33-3.27-1.88,0-3.13,1.11-4.57,2.19-1.03-.1-1.37-2.89-.28-3.09,3.37-.62.86-1.7,5.17-4.52l2.66-3.08v2.39s3.74-2.78,3.74-2.78l-1.27,3.11,4.49.6-1.05.99,3.1,2.14-1.26.75.92,4.05-1.24-.89-1.66,3.83c3.36-.55,5.51-3.06,5.85-6.25.34-3.25-1.3-6-3.92-8.1,6.23-.03,11.79,3.81,14.5,8.65,3.22,5.74,3.24,12.62-.4,17.78-.08-2.53,1.27-7.3-1.25-8.66-.27-.15-.96.45-1.12.75l-1.21,2.17c-.64-1.83-.3-4.46-2.72-5.24-.84-.27-1.69,1.82-1.75,2.71-.92-.47-2.15-1.07-2.94-1.16-1.32-.15-2.62.68-2.95,2.11,3.99,1.19,7.26,2.44,9.64,6.12l-1.27.02c.75,1.98,1.14,4.04.17,6.3l-.66-1.92c-1.08,1.99-2.68,3.81-5.08,4.51-8.08,2.37-16.54-2.11-19.04-9.97l-1.15,1.34c-1.18-3.47-.38-6.99,1.63-9.99Z"/>
    </g>
  </g>
</svg>