<?xml version="1.0" encoding="UTF-8"?>
<svg id="Warstwa_2" data-name="Warstwa 2" xmlns="http://www.w3.org/2000/svg" viewBox="0 0 53.93 59.31">
  <defs>
    <style>
      .cls-1 {
        fill: #fff;
      }
    </style>
  </defs>
  <g id="icon-v10-loot-pixarts-store">
    <g id="icon-v10-loot-pixarts-store_47">
      <path class="cls-1" d="M49.28,32.28l-2.22-2.24c-1.58.99-2.31,1.93-3.26,3.33l.05-2.7c-1.46-.46-2.42.67-3.44,2.11-.14-.66.21-2.07.17-2.76-.08-1.18-2.32-.54-3.27.2-.09-.54.64-1.49,1.29-2.11-.42-1.91-.42-4.15,1.08-5.75.14-.74-.36-1.94-.96-2.67l-3.26,4.87-2.32-5.12-7.65,2.89c-3.13,6.4-9.81,6.24-10.1,7.27l-.31,1.11c-.66-1.2-1.3-1.85-2.71-1.93l-.1,2.03c-.87.07-.36-2.48-2.71-2.59-.63-.03-1.72.82-1.55,1.36l1.31,3.38c2.49.27,5.33-.65,7.76-1.81,4.71-2.25,3.99-3.63,6.5-3.84l-3.06,3.59,1.31,2.02c-2.15-1.04-3.85-.81-5.59.37.76.87,1.28,1.58,1.52,2.36-2.08-1.35-3.7-2.04-5.59-.99.48.79.92,1.73,1.04,2.44-1.6-1.02-2.68-2.21-4.25-2.42-.67-.09-1.61,1.45-1.82,2.19,3.96,1.19,3.79,4.19,3.66,8.21,2.27-.32,3.81-2.39,4.14-4.58.41-2.67,5.92-.92,10.6-10.28.33-.66,1.46-1.62,2.13-1.74.7-.13,1.98.41,2.36.87l-3.08.23-1.27,3.63c1.36.38,2.25.9,2.58,1.75-1.28-.2-2.59-.63-3.32-.25-.58.31-1.47,1.43-1.64,1.8.86.78,1.49,1.41,1.81,1.93l-2.83-.67c-.61-.15-1.82,1.11-1.8,1.41.84.9,1.49,1.68,1.62,2.49-1.56-.75-3.18-1.89-4.77-1.05-.73.39-1.15,2.25-1.09,2.91,2.87-1.17,6.55,3.48,5.89,6.39,4.83-1.66,1.56-6.18,4.3-8.66,2.89.12,4.51-1.83,5.72-3.9,1.45-2.48,4.58-.79,6.48-.52,1.79.25,3.26-.49,4.18,1.6.76,1.74,3.03,2.78,4.81,1.74l-.33-3.4c-.19-1.88.48-3.32,1.97-4.52Z"/>
      <path class="cls-1" d="M23.14,15.75c1.74.27,3.37-.14,5.25-.84l-1.98,4.99c2.94-.54,5.4-1.67,7.89-3.31l1.45,4.86,3.55-5.54c.67,2.83,1.5,5.21,3.38,6.98.43-3.26.46-5.68,1.45-8.13.48,2.6.99,4.9,3.48,6.24l-.63-4.21c-.28-1.87.43-3.92,1.4-5.42.21,1.49.12,2.54.96,3.65l1.06-4.27c.28-1.13,1.94-2.22,2.82-3.24C49.71,2.04,42.25-.67,35.85.14c-2.31.29-3.67,1.62-4.67,3.59-1.2,2.37-3.51,3.44-5.76,5.01l4.55.35c-1.87,2.67-4.16,4.55-6.82,6.67Z"/>
      <path class="cls-1" d="M16.97,44.78c-2.57,5.07-2.42,8.58,1.64,12.75,1.18,1.21,3.02,1.75,4.36,1.77-6.05-8.55,1.54-11.03-6-14.53Z"/>
      <path class="cls-1" d="M6.55,38.93c-4.16,3.93-5,10.33-1.24,14.9.38-2.33.73-4.32,1.65-6.45.68-1.6,4.42-2.9,1.71-8.01-.34-.63-1.59-.94-2.12-.44Z"/>
      <path class="cls-1" d="M49.49,33.96c-1.07,1.36-1.56,4.38-.37,5.73,1.9,2.15,2.15,4.62,1.83,7.78,2.88-2.25,3.62-5.85,2.49-9.3-.6-1.83-1.86-4-3.94-4.21Z"/>
      <path class="cls-1" d="M6.66,34.44c.47-.63.99-1.36,1.07-1.92.08-.51-.53-1.9-1.08-1.84-4.21.44-7.96,7.36-6.21,10.61,1.17-1.93,2.71-3.07,4.75-4.36.56-.35,1.06-1.94,1.47-2.49Z"/>
    </g>
  </g>
</svg>