<?xml version="1.0" encoding="UTF-8"?>
<svg id="Warstwa_2" data-name="Warstwa 2" xmlns="http://www.w3.org/2000/svg" viewBox="0 0 37.83 58.45">
  <defs>
    <style>
      .cls-1 {
        fill: #fff;
      }
    </style>
  </defs>
  <g id="icon-v10-loot-pixarts-store">
    <g id="icon-v10-loot-pixarts-store_09">
      <path class="cls-1" d="M10.45,24.19C-1.17,29.92-2.02,44.35,2.66,49.42l4.42,4.8c1.04,1.13,1.31,2.55,3.03,3.01,6.03,1.6,12.15,1.77,18.31-.33,1.12-.38,1.58-1.99,2.23-2.65,5.05-5.08,8.2-8.04,6.88-16.31-1-6.29-4.51-10.96-10.17-13.79-2.02-1.01-2.45-5.41-1.16-6.77,1.01-1.06,1.57-1.54,1.67-2.96.09-1.31-.61-2.53-2.03-2.76-3.03-.49-13.78-1.28-15.5.71-.3.35-.4,1.44-.41,2.04-.03,1.55.8,1.99,1.77,3.07,1.24,1.38.72,5.73-1.25,6.71ZM18.89,12.57c2.12.07,4.14-.66,6.47.57-4.08,1.59-8.49,1.27-12.95.05,2.01-1.29,4.27-.69,6.48-.62ZM14.07,18.88l-.94-1.17c3.93.4,7.7.44,11.69-.04-.82.99-1.47,2.06-1.43,2.85.2,3.63,2.28,5.17,4.98,6.83,5.65,3.48,8.3,10.83,6.67,17.27-1.2,4.74-5.24,6.64-7.55,10.21-5.53,1.69-11.32,1.6-16.76.13-4.76-5.36-9.85-8.17-8.17-16.75.94-4.84,3.44-9.26,7.94-11.5,2.94-1.47,4.57-4.65,3.58-7.83Z"/>
      <path class="cls-1" d="M18.82,5.47c0-1.51-1.23-2.74-2.74-2.74s-2.74,1.23-2.74,2.74,1.23,2.74,2.74,2.74,2.74-1.23,2.74-2.74Z"/>
      <circle class="cls-1" cx="22.31" cy="1.79" r="1.79"/>
      <path class="cls-1" d="M20.64,8.26c0,.72.58,1.3,1.3,1.3s1.3-.58,1.3-1.3-.58-1.3-1.3-1.3-1.3.58-1.3,1.3Z"/>
      <path class="cls-1" d="M4.37,43c.62,3.51,3.02,6.08,5.52,8.4.74.69,1.76,1.76,2.67,2,4.55,1.23,9.06,1.11,13.48-.26.77-.76,1.72-1.91,2.51-2.52,5.37-4.12,6.65-10.92,3.17-16.82-1.9,1.46-3.87,1.6-5.53.56,1.94-.26,4.24-.44,4.59-2.45-1.25-2.44-5.17,0-7.56-.17-2.15-.15-4.24-1.58-6.27-2.38-.61,1.12-1.49,2.16-2.52,2.23-1.41.1-2.24-.85-3.13-1.99-4.91-.68-7.77,8.55-6.92,13.39ZM29.33,37.78c.69,0,1.25.56,1.25,1.25s-.56,1.25-1.25,1.25-1.25-.56-1.25-1.25.56-1.25,1.25-1.25ZM24.23,51.2c-.69,0-1.26-.56-1.26-1.25s.56-1.26,1.26-1.26,1.26.56,1.26,1.26-.56,1.25-1.26,1.25ZM14.46,34.08c3.43-2.47,8.16-1.61,10.48,2.04,1.97,3.1-1.15,4.13.87,6.93-.49.58-1.84,1.12-2.97,1.45l-1.19,3.05-.39-.6c-.1-.15-.49-.68-.57-.52l-.43.88c-.09.19-.57.81-.67.63l-.63-1.17-.93,1.38-1.09-1.94-.73,1.64c-.47-.95-.82-1.86-1.24-3.14l-2.82-1.53.79-2.03c-1.29-2.6-.82-5.37,1.53-7.06ZM12.02,46.11c1.12,0,2.03.91,2.03,2.03s-.91,2.03-2.03,2.03-2.03-.91-2.03-2.03.91-2.03,2.03-2.03ZM9.52,40.23c0,.64-.52,1.16-1.16,1.16s-1.16-.52-1.16-1.16.52-1.16,1.16-1.16,1.16.52,1.16,1.16Z"/>
      <circle class="cls-1" cx="21.44" cy="26.28" r="1.98" transform="translate(-3.93 3.77) rotate(-9.22)"/>
      <path class="cls-1" d="M14.26,29.72c.93-.15,1.75-.96,1.47-1.36-.2-.3-.81-.78-1.3-.99-.45-.2-1.47.59-1.58,1.06-.13.55.68,1.42,1.41,1.3Z"/>
      <path class="cls-1" d="M17.53,22.88c.57,0,1.03-.46,1.03-1.03s-.46-1.03-1.03-1.03-1.03.46-1.03,1.03.46,1.03,1.03,1.03Z"/>
      <path class="cls-1" d="M22.77,42.21c.85-.38,1.61-1.64.78-2.81-.37-.53-1.92-.35-2.38.03-.4.32-1.1,1.28-.99,1.83.19,1.04,1.83,1.3,2.6.96Z"/>
      <path class="cls-1" d="M14.83,42.06c.73.43,2.64.6,2.71-1.05.05-1.21-2.15-2.43-3.11-1.84-1.16.72-.56,2.31.4,2.88Z"/>
      <circle class="cls-1" cx="18.8" cy="43.52" r=".91"/>
    </g>
  </g>
</svg>