<?xml version="1.0" encoding="UTF-8"?>
<svg id="Warstwa_2" data-name="Warstwa 2" xmlns="http://www.w3.org/2000/svg" viewBox="0 0 62.97 58.51">
  <defs>
    <style>
      .cls-1 {
        fill: #fff;
      }
    </style>
  </defs>
  <g id="icon-v10-loot-pixarts-store">
    <g id="icon-v10-loot-pixarts-store_236">
      <path class="cls-1" d="M37.83.52c1.71.35,3.49.47,5.04-.47-1.75-.16-3.28.06-5.04.47Z"/>
      <path class="cls-1" d="M12.61,2.46l6.45-.37c-2.23-.35-4.46-.54-6.45.37Z"/>
      <path class="cls-1" d="M9.39,5.84c-.05.32.24,1.24.53,1.45l4.29,3.14c-.75.64-1.74,1.68-1.55,2.4,1.24.95,3.17,1.19,4.55,1.1l-2.91-1.62c.16-.48.62-1.34,1.05-1.41.37-.07,1.34.1,1.77.26,8.81,3.23,17.81,4.99,27.24,4.85,1.77-.02,7.26-.54,7.37-2.52.13-2.37-5.55-4.46-7.43-4.16,1.78,1.32,3.75,1.71,4.79,3.72-5.03,4.16-11.12-3.64-18.54-.21h4.24c1.61-.02,3.53.83,5.02,1.52-3.64.16-6.9-.75-10.34-1.34-4.1-.7-7.84-1.61-11.92-3.39,12.78-5.68,11.74-4.31,25-.81l-5.12,2.2c2.89.25,16.05-5.38,14.64-8.11-2.17-4.2-19.82.61-23.91,1.2-1.87.27-18.17-2.1-18.79,1.73ZM16.27,8.7c-1.14.47-2.85-1.17-3.53-2.2,1.4-2.68,9.68-1.78,12.03-1.3l-8.5,3.5ZM48.99,3.36c2.33,1.81-4.15,4.36-5.38,4.89l-12.13-3.34c4.6-1.22,13.39-2.95,17.51-1.55Z"/>
      <path class="cls-1" d="M61.66,28.81c-2.04-1.47-4.48-2.55-6.98-3.44-1.37,3.16.7,1.36,4.3,4.34.41.34.8,1.57.67,2.07-.53,2.05-5.07,3.69-7.14,4.31-13.77,4.1-29.94,4.4-43.62-.22-1.98-.67-5.87-2.28-5.91-4.4-.04-2.29,3.71-3.48,5.61-4.32l-.21-1.72C5.68,26.5-.32,28.56.01,31.85c.41,4.11,8.99,6.29,12.49,7.24,8.25,2.25,16.45,2.67,24.97,1.89,3.58-.33,6.92-.7,10.41-1.53,4.98-1.19,10.48-2.37,14.08-5.8,1.41-1.35,1.37-3.63-.3-4.84Z"/>
      <path class="cls-1" d="M52.98,34.66l.69-16.69-25.62,5.72c-.15,3.23-.06,6.12.03,9.19l.12,4.07,2.18.14-.04-11.38,21.01-4.76-.33,14.28,1.96-.59Z"/>
      <path class="cls-1" d="M17.85,50.71c-.23-.24.51-1.08.82-1.3-.58-.62-3.19-.41-3.06,1.16.11,1.37,2.54,1.91,3.9,2.58-.92.98-2.84,1.97-2.57,3.85.15,1.09,2.03,1.34,2.92,1.43,5.59.51,10.56-1.34,15.87-2.38,2.39-.47,13.67.1,14.18-2.67.28-1.52-1.49-2.58-2.43-3.17l1.29-1.94c-1.82-.76-2.05.65-2.91,1.34-2.91,2.33-6.39,3.69-9.93,4.97-4.95-.12-9.57-.52-14.27-2.17-1.06-.37-3.06-.91-3.81-1.69ZM46.35,50.82c.45-.25,1.57.53,1.72,1,.77,2.39-6.21,2.79-8.12,2.49l6.41-3.49ZM19.29,55.27c.12-.99,1.22-2.08,2.22-1.55l10.58,1.92c-1.65,1.01-13.23,3.17-12.8-.37Z"/>
      <path class="cls-1" d="M25.61,37.17c.54-.07,1.36-.23,1.81-.37l-.39-13.12-17.76-6.4.79,16.28c.04.73.71,1.41,1.64,1.61l-.63-14.85,14.03,5.1.51,11.76Z"/>
      <path class="cls-1" d="M28.25,42.4l.37,10.06,23.86-7.16.3-5.95c-.59-.04-1.6,0-1.78.36-.73,1.39.2,3.38-.83,4.14l-19.35,5.42-.34-6.81,3.64.22c.96.06,2.4-.36,3.4-.62-3.18-.15-5.96.04-9.26.34Z"/>
      <path class="cls-1" d="M10.55,16.58l17.04,6.2,24.78-5.56c-1.87-1.72-3.83-.58-6-.09l-18.32,4.11-12.58-4.43,10.22-2.11c-2.79-1.36-11.78,1.25-15.14,1.89Z"/>
      <path class="cls-1" d="M11.65,40.26l-1.19-.17.12,4.35,16.95,7.89-.03-8.91c0-.39-.28-.97-.5-1.21-.17-.19-1.25.26-1.26.61l-.07,6.29-12.92-5.69c-1.32-.58-.33-3.06-1.1-3.17Z"/>
      <path class="cls-1" d="M49.49,36.17c.19-1.84.51-3.58.53-5.21l.1-8.28-17.57,4.15c-.19.05-1.05-.12-.97.04.06.11.23.66.22.84l-.09,9.15c0,.24.66,1,.7.95l.24-10.32,16.54-3.81.09,7.98c.02,1.47-1.14,3.04.2,4.52Z"/>
      <path class="cls-1" d="M23.97,35.51l.17-8.94-12.1-4.52.37,8.42.37,5.55c1.05-.24.34-1.13.33-1.74l-.18-7.55c-.03-1.28-.19-2.23.11-3.6l10.31,3.82.63,8.55Z"/>
      <path class="cls-1" d="M47.3,42.61l-14.26,3.83c-.21-1.47.09-2.37-.95-3.41l-.11,4.46,17.27-4.74c.22-.83.28-1.65.3-2.55-1.36.23-2.21.47-3.23,1.2l2.47-.51c.05.53-.72,1.5-1.49,1.71Z"/>
      <path class="cls-1" d="M40.63,32.63c.48-.21,1.63-1,1.61-1.47-.06-.91-.74-2.54-1.23-3.35-1.32.35-1.96.55-3.38,1.11l1.87.34c.47.09,1.31.58,1.41,1.06.08.43-.49,1.23-.93,1.4l-2.06.82c-.1,1.81-.09,3.35.3,5.25,2.24-.82-.67-3.83,2.42-5.17Z"/>
      <path class="cls-1" d="M44.74,28.97l-.2-.98c-.04-.21-.65.18-.7.38-.44,1.85,1.29,4.11-3.39,6.19-.02,1.03,1.68,2.93,2.49,2.47l.84-.47-1.52-1.73c2.36-1.47,3-3.35,2.49-5.87Z"/>
      <path class="cls-1" d="M24.63,47.37c.17-1.94.23-3.45-.42-5.19l-.57,3.98-9.28-3.93c-.43-.18-.99-1.25-1.21-1.7-.2.06-.21,1.68.34,1.93l11.14,4.91Z"/>
      <path class="cls-1" d="M17.98,26.16c-1.15,1.77-1.88,2.94-2.69,5l2.8-2.25,2.63,3.86c-.58-2.68-1.58-4.3-2.73-6.61Z"/>
      <path class="cls-1" d="M18.21,34.76c1.59-1.12.84-3.27-.35-3.58-.55.3-1.06,1.5-.8,1.98.28.52.88,1.36,1.15,1.6Z"/>
      <path class="cls-1" d="M18.44,37.45c.4.06,1.4.21,1.48-.16l.34-1.46c-.8.43-1.82,1-2.24.78-.88-.47-1.81-1.74-2.15-2.5.05,2.11.78,3.07,2.58,3.33Z"/>
      <path class="cls-1" d="M31.4,38.42c.13-.01-.72-.68-.91-.67l-6.77.13c1.64.85,5.86.75,7.67.54Z"/>
      <path class="cls-1" d="M61.68,36.04l-5.5,3.16c2.23-.03,3.75-.94,5.5-3.16Z"/>
      <path class="cls-1" d="M2.56,36.7c1.53,2.18,4.25,2.87,6.66,2.92-2.43-.9-4.38-1.76-6.66-2.92Z"/>
    </g>
  </g>
</svg>