<?xml version="1.0" encoding="UTF-8"?>
<svg id="Warstwa_2" data-name="Warstwa 2" xmlns="http://www.w3.org/2000/svg" viewBox="0 0 31.29 62.71">
  <defs>
    <style>
      .cls-1 {
        fill: #fff;
      }
    </style>
  </defs>
  <g id="icon-v10-loot-pixarts-store">
    <g id="icon-v10-loot-pixarts-store_292">
      <path class="cls-1" d="M28.49,10.4c-.53-1.24-.76-2.33-2.06-3.21-1.98-1.35-3.61-3.28-6.46-3.06,2.16,1.23,3.13,2.98,3.48,5.3.48,3.17-.26,6.63-3.7,8.07l-.14-4.06,1.43,1.09c-.22-1.89-1.09-2.97-2.31-4.7l2.22.18c-1.43-1.78-3.04-1.97-4.99-2.95l2.42-.79c-1.5-1.3-7.19.03-6.85,2.32,1.06-.19,1.91-.48,3.19-.93l-1.1,1.48,2.33.27-2.34,1.36c1.34.57,2.44,1.12,2.94,2.07,2.97,5.7-8.01,10.34-5.18,16.04,1.59-8.02,9.19-6.12,8.59-8.71l-2.4-.21c3.24-.96,5.69-1.96,7.24-4.95.3,3.14-1.1,1.04-.78,5.84-.78-.18-1.16-.96-1.4-2.1-.38.17-1.39,1.01-1.62,1.57l-1.4,3.34,5.17-3.15c-.15-.49-.12-1.48.22-1.49.91,0,1.59,1.94.74,2.48l-3.18,2.05,2.8-.26-3,3.69c-.46-.63-1.56-1.4-1.94-.98l-.12,3.35c.44-.36,1.28-.82,1.63-.61.25.17,0,1.21-.22,1.51-1.73,2.35-2.03,6.1.11,8.46-1.09-3.88.11-7.44,3.77-9.58-.88-.63-1.58-1.43-1.21-2.3.57-1.37,2.01-3.9,3.44-3.13,1.33.71.42,4.26.46,5.55,1.94-3.08,2.56-7.24,2.4-10.81-.02-.35.36-.91.64-1.24-.71-2.04-1.89-4.62-2.81-6.78ZM29.42,22.98l-.87-5.11c-.53,1.37-.84,2.17-1.48,3.19l.16-3.93c.06-1.37-.14-2.57-.73-3.73-.13,1.89,0,2.96-.44,4.57-1.01-3.49-1.13-4.93-.97-8.76,3.89,3.5,4.96,8.85,4.33,13.77Z"/>
      <path class="cls-1" d="M11.29,1.97c-2.21,1.04-3.24,2.96-4.25,5.3l-.42-.82-2.7,3.11c-.19.57-.42,1.74-.86,2.31-.34.44-1.44.67-2.15.49-1.21,1.07-1.34,3.75.38,5.1l.2-1.89,1.02.46c.18.08.11-.93.16-1.08,4.28-1.47,1-1.68,4.78-2.32l-.75,2.19c-.31.92-1.88,3.18-1.63,3.08l-.95.38,1.26.97c.26.2,1.11-.18,1.22-.48.38-.96,1.04-3.19,2.06-3.58l3.49-1.35-1.84-.47,2.99-1.38-2.58-.49,2.64-1.42-2.4-.18,1.46-.71-1.83-.39c-.3-.06.21-.99.45-1.24l2.44-2.55c.24.08.53.32.71.19l.8-.58c1.62-1.18,3.1-2.51,3.23-4.6-3.32,4.04-5.09,2.6-9.39,6.84l2.45-4.88ZM4.82,11.26l2.13-2.13c-.02,1.39-.47,2.56-2.13,2.13Z"/>
      <path class="cls-1" d="M15.15,39.95c1.11-.98,2.06-2.49,1.59-3.56l-1.18-2.66c1.14.46,1.45,1.14,2.14,2.17l-.29-3.07c.8-.95,1.62-2.03,1.62-3.1,0-.94-.77-2.11-1.32-2.93l-1.12,1.28c-1.41-1.56-.38-3.09.92-4.34-1.98.34-3.35,2.52-2.8,4.69.08.3.53.89.82.9l1.46.05c.56.02.17,1.82-.32,2.13-.43.28-1.49.47-2.02.09-.81-.56-1.16-1.44-1.66-2.37-.15,1.65.23,3.11.67,4.97l-3.03-4.81c-3.27,5.12,3.33,4.18,4.54,10.55Z"/>
      <path class="cls-1" d="M18.72,50.33l-.25-1.88-1.15.59c-.28.14-.38,1.1-.38,1.46l.08,7.16,1.92.12c-.16-.87-.32-1.67.04-1.85.3-.15,1.22,0,1.42.27l1.39,1.78-1.39.86c1.98.83,3.75-.58,4.29-2.22-.53.11-1.65.17-1.72-.21-.3-1.6,1.04-2.31,2.05-2.56-1.25-.65-2.62-.16-3.16.83l-.44.83c-.1.19-.99-.09-.95-.3l.22-1.1-1.19.04c-.25,0-.71-.08-.92-.14-.2-.06.07-.78.28-.84l3.89-.98c.33-.08.8-.14,1.02-.17.17-.03.18-.51.06-.63l-.58-.58c-.39-.4-.79-.76-.91-1.08-.11-.26.51-.94.78-.85l1.45.46c-.2-.59-.83-1.51-1.38-1.88-.67-.46-1.77-.4-2.5-.12l.8.73c.08.07-.77,1.93-1.09,2.38-.22.3-1.64.27-1.69-.1ZM22.56,51.33c-.15.99-2.11,1.33-2.48.19.35-.53,1.26-.53,2.48-.19Z"/>
      <path class="cls-1" d="M16.57,55.78l.03-8.13-2.94.11v10.18c0,.47-.61,1.63-.26,1.76,1.04.4,2.83.32,3.61.05-.34-1.93-.44-2.69-.43-3.98Z"/>
      <path class="cls-1" d="M18.21,37.93c-.09-.14-.31-.25-.44-.13-2.47,2.43-3.99,3.84-5.02,7.39,1.57.26,2.88.26,4.56,0-2.36-3.91,1.61-6.17.9-7.27Z"/>
      <path class="cls-1" d="M7.77,29.26c-.18.98.62,2.39,1.23,3.35.28-4.05,1.87-3.06,1.04-6.39-1.12.72-2.05,1.82-2.27,3.04Z"/>
      <path class="cls-1" d="M7.13,28.44c2.1-3.04,3.25-2.15,3.95-4.98-1.41.2-2.75.65-3.77,1.77-.62.68-.44,2.43-.18,3.22Z"/>
      <path class="cls-1" d="M7.51,23.97l3.82-1.35c.55-.19,1.27-1.13,1.58-1.54-2.32-.57-4.87.42-5.4,2.9Z"/>
      <path class="cls-1" d="M9.81,20.43c2.34-.19,4.26.39,5-1.95-1.9.05-3.74.22-5,1.95Z"/>
      <path class="cls-1" d="M12.49,17.62c-.08.09.09.47.21.46l.99-.12c.71-.08,1.89-.37,2.12-.86.24-.5.45-1.47.43-1.69l-3.22,1.72c-.13.07-.46.39-.54.49Z"/>
      <path class="cls-1" d="M17.21,46.11c-.77-.17-4.06-.6-4.48.47,2.23,1.4,5.5-.25,4.48-.47Z"/>
      <path class="cls-1" d="M12.12,36.45l1.8,4.48.78-1.69c-.98-1.35-1.49-2.04-2.59-2.79Z"/>
      <path class="cls-1" d="M15.5,12.66c-.65,1.02-1.08,1.86-1.6,3.18.81-.09,1.59-.54,2.07-1.15.39-.49.04-1.48-.47-2.04Z"/>
      <polygon class="cls-1" points="15.29 62.71 16.75 60.43 13.52 60.38 15.29 62.71"/>
    </g>
  </g>
</svg>