<?xml version="1.0" encoding="UTF-8"?>
<svg id="Warstwa_2" data-name="Warstwa 2" xmlns="http://www.w3.org/2000/svg" viewBox="0 0 58.78 61.61">
  <defs>
    <style>
      .cls-1 {
        fill: #fff;
      }
    </style>
  </defs>
  <g id="icon-v10-loot-pixarts-store">
    <g id="icon-v10-loot-pixarts-store_252">
      <path class="cls-1" d="M20.75,32.95l.47,4.91,14.11-2.91c-.05-1.39.73-2.54,2.26-2.7-1.28,1.25-1.74,2.33-.89,3.96l.16,3.16,3.24,1.93c3.12-3.29,2.19-3.57,2.66-8.16-.87-.61-2.23-.7-3.38-.56-.31-.14-1.02-.6-.44-.36l1.1-.45c.12-.05.02-.24-.08-.33-.09-.09-.77-.28-1.04-.23l-14.2,2.81c-1.13-6.33-2.44-13.95-8.61-17.2-1.24-.65-3.13-.54-4.55-.24,5.97,2.18,8.6,10.27,9.19,16.37ZM39.25,34.06c.38-.1,1.06-.13,1.41-.05.86.21-.2,1.11.3,4.37.08.5-1.66.79-1.72.33l-.29-3.53c-.03-.33.02-1.06.29-1.13Z"/>
      <path class="cls-1" d="M.87,23.48l4.01,2.86-1.7.19c-.25,1.35-.42,2.92-.31,4.21l17.14,6.87c.32-6.47-1.59-15.71-6.85-19.55-2.68-1.64-5.47-.82-7.24,1.62-.81,1.13-1.11,2.12-.26,3.61-3.49-.61.14-2.37-5.59-2.49.01,1.05.2,2.24.82,2.68ZM6.26,23.35c-.13,1.1,1.09,6.58,3.03,5.66l-2.52-4.25c.77-.27,1.69-.46,1.75-.83.07-.37-.19-1.06-.46-1.76l-1.52,1.18c.31-1.24,3.04-4.7,4.91-3.32,1.45,1.06,2.88,2.37,3.61,3.95,1.43,3.09,2.18,6.19,2.29,9.67l-12.19-4.77c.27-1.81.57-3.66,1.08-5.54ZM4.83,25.35c-1.34-1.04-2.28-2.22-3.02-3.39,1.61,1.1,2.55,2.02,3.02,3.39Z"/>
      <path class="cls-1" d="M4.24,42.33l2.12,3.92c.05-2.68-.07-5.29-.69-8.12-.16-.74-.04-1.65.27-2.5l12.46,5.35.14,9.17c.04,2.6.46,4.94,1.88,7.19.26-2.62.46-5.24.3-7.97l-.58-10.36-17.1-6.99,1.19,10.29Z"/>
      <path class="cls-1" d="M9.85,46.39l3.29,6.08,1.78-3.09,2.76,1.9-.25-6.16c-1.36-.1-2.65-.47-2.76-1.34-.13-1.08.1-1.9.57-3.09l-5.41-2.25c-.1.91-.1,2.12-.55,2.28l-1.69.59.2,5.82,2.05-.75Z"/>
      <path class="cls-1" d="M41.05,50.2c.65-1,1.47-2.42,1.92-3.57.6-1.53-.68-4.16-1.92-4.75-.8.31-1.87.59-2.47.19l-2.04-1.35-3.14,4.82c-1.29,1.98.06,4.19,1.67,5.22,1.94,1.25,4.55,1.65,6-.57Z"/>
      <path class="cls-1" d="M21.3,39.23l.29,20.13,2.58-6.45c.83-2.07.34-5.37-.24-7.61.17.66-2.11-3.14.09-4.75.76-.56,2.07-.02,2.82-.15l8.87-1.58c.35-.45.26-1.79-.13-2.74l-14.29,3.14Z"/>
      <path class="cls-1" d="M31.44,21.57c1.23-1.29,1.69-2.58,1.64-4.48l-.17-6.28c-.06-2.14-2.03-8.03-3.24-10.02l-.95,9.14c-.31,2.98,1.07,6.32,1.21,9.56l1.51,2.08Z"/>
      <path class="cls-1" d="M26.48,17.97l.6-1.7,2,2.53c-.2-2.92-.45-5.38-1.11-8.22-.25-1.09-2.21-2.11-3.27-2.61l.95,8.5c.04.38.65,1.28.83,1.5Z"/>
      <path class="cls-1" d="M49.76,14.13l.56-1.77-1.89-4.35-2.62,5.42c.81,2.88.54,4.82-.23,7.91,1.57-.81,2.66-1.74,3.79-2.78-.53,1.61-2.63,2.15-1.48,3.78,2.4-3.53,4.43-6.6,6.44-10.17-1.85,0-3.14.73-4.57,1.96Z"/>
      <path class="cls-1" d="M45.6,51.11l-16.31,4.14c-.61,1.21-1.11,2.24-1.49,3.34l18.83-4.95c-.23-.98-.54-1.81-1.03-2.53Z"/>
      <path class="cls-1" d="M55.06,31.95l-11.49,2.41-.33,2.61,6.31-1.52c.67-.16,2-.97,2.68-.71,1.02,1.37,1.05,3.53-.34,4.53l-.25,6.42,2.74-4.53.68-9.22Z"/>
      <path class="cls-1" d="M33.18,52.96l.15-2.05-1.31.64c1.18-1.3,1.24-1.89.62-3.39-1.02-2.45-4.93-2.9-7.21-1.71l.12,4.81,3.68-2.37c.45,1.65.62,2.95.55,4.7l3.4-.64Z"/>
      <path class="cls-1" d="M55.05,26.84l-3.25,2.5c-4.48-.3-6.7.67-11.23,1.65l3.18,2.16,11.66-2.55c-.04-1.43-.15-2.56-.36-3.77Z"/>
      <path class="cls-1" d="M50.65,40.89l-1.88-.04c-.02-.44-.06-1.28-.13-1.8l-.27-2.11c-1.47.24-3.82.65-5.01,1.16l-1.92,3.15c.54.61,1.78,1.8,2.35,2.25-.54.54-.66,2.08-.25,2.66.22-.09.64-.44.75-.34l.75.67c-1.62.6-2.54,2.14-3.19,4.24,1.03-.06,2.74-.49,3.54-1.07.31-1.86.64-3.08,1.63-4.28l2.81,2.48c1.4-.5.12-2.17.28-2.98.2-.97.44-2.5.54-3.99ZM45.32,44.56c-.15.2-1.01-.25-.8-.42l3.62-2.83-2.82,3.24Z"/>
      <path class="cls-1" d="M35.01,40.37c-.62-.2-1.63-.36-2.32-.18l-4.96,1.25,1.13,3.72,3.47,1.14,3.68-5.91-.79-.57c-.13-.09-.18.51-.2.55Z"/>
      <path class="cls-1" d="M58.09,19.45c-4.89.03-3.84.9-7.28,4.64-.78.85-1.72,2.33-1.75,3.38.98,1.16,2.62.84,3.62.05l4.43-3.5c-1.08-.23-1.89-.1-2.09-1.09l2.29.66,1.09-3.4-3.56,2.85-2.4,1.95c-.72.59-1.8,1.2-2.64,1.72l3.63-3.02,4.67-4.24Z"/>
      <path class="cls-1" d="M31.34,23.22l-3.92-5.49-.64,6.13c-.18,1.74,1.42,3.36,2.76,4.51l-.3-3.32.83,1.88,1.27-3.72Z"/>
      <path class="cls-1" d="M53.3,44.54l-2.18,4.36c-.58,1.15-.91,2.16-1.08,3.65l1.21-1.37-.24,1.98c1.71-1,2.25-2.59,3.52-3.56,1.47-1.13,2.59-1.92,3.56-3.99-.8-.32-2.17-.52-3.16-.39-1.13,2.26-2.05,4.45-3.59,6,1.25-2.85,2.64-4.85,3.57-8.07.39,1.42,2.2,2.32,3.88,1.52l-.02-4.16c-2.65.52-4.33,1.75-5.47,4.03Z"/>
      <polygon class="cls-1" points="29.16 0 24.68 7.2 28.05 9.21 29.16 0"/>
      <path class="cls-1" d="M33.7,18.83c1.05-.47,1.55-1.14,1.58-1.85l.39-9.3c-2.11,1.17-2.07,3.02-2.04,5.04l.07,6.11Z"/>
      <path class="cls-1" d="M39.7,28.52l.46,1.18c.07.18.63.04.68-.15l.22-.74c.49-1.66.74-3.63-.63-4.98-.49-.05-1.18.77-1.41,1.3l-2.25,5.28c1.24-.48,2.28-1.2,2.92-1.9Z"/>
      <path class="cls-1" d="M36.37,26.65c.43-.96-1.13-2.31-2.21-2.04l-2.14,6.82,2.52-.65,1.83-4.13Z"/>
      <path class="cls-1" d="M46.88,55.55c.67.75,1.38.94,2.35.8,3.03-.42.82,2.29,5.91-.13-3.31-3.1-4.57-2.73-8.26-.67Z"/>
      <path class="cls-1" d="M6.75,52.92c.23.44,1.11.85,1.83,1.16l-.53-3.15-.99.69c.1-1.16.06-2.08-.41-2.97l-2.2-4.23-1.13,1.91,3.42,6.6Z"/>
      <path class="cls-1" d="M9.19,55.04c.09.31,1.28-.05,1.35-.36l.83-3.72-1.89-3.34c-.43-.05-1.26.41-1.58.68-.27.23-.12,1.7.13,1.46l1.15-1.07c-.95,1.92-.52,4.61.01,6.35Z"/>
      <path class="cls-1" d="M30.99,31.9c1.2-2.43,1.92-4.82,2.5-7.47l-.59-2.59c.61,1.06.9,1.93,1.72,2.06,1.7.28,2.73-4.39,2.6-5.93-2.05,1.16-4.07,2.33-4.83,4.44-.56,1.55-3.22,8.48-1.4,9.49Z"/>
      <path class="cls-1" d="M36.41,25.14c.16.32,1.37.67,1.52.34.4-1.41.14-3.56-.49-4.66l-1.23,2.82c-.15.35.05,1.18.21,1.49Z"/>
      <path class="cls-1" d="M21.73,20.85l.69-4.1c.38-.14,1.78-1.1,1.55-1.61l-2.61-5.92c-.71,1.09-.85,2.46-.52,3.7.69,1.29,1.2,2.29,1.44,3.77l-2.21-4.35c-.53.16-1.59,1.1-1.58,1.71l1.84,3.6-2.66-3.39c-.56-.72-1.99-1.35-2.99-1.74,1.02,3.94,3.8,3.69,7.06,8.33Z"/>
      <path class="cls-1" d="M46.31,22.01c-3.94,2.18-4.02,2.51-4.49,7.02,1.13-1.17,2.1-2.54,3.24-3.49,1.25-1.05,2.2-1.72,1.24-3.53Z"/>
      <polygon class="cls-1" points="53.74 4.72 48.97 7.33 50.82 11.67 53.74 4.72"/>
      <polygon class="cls-1" points="35.44 6.53 30.44 .33 33.46 9.11 35.44 6.53"/>
      <path class="cls-1" d="M47.33,49.29l1.02-.43.79,4.44.3-2.43c.2-1.6-.71-3.75-2.3-3.9-2.37,2.79,1.75,9.24,1.37,6.23l-.44-3.46c-.45-.21-.68.16-.85.97-.11-.11-.19-1.29.11-1.42Z"/>
      <path class="cls-1" d="M24.19,23.14c-.05-1.59-.43-2.61-.95-3.7l2.1.44c-.92,1.06-.98,2.96.45,4.16.86-3.86,1.54-4.71-1.55-7.06-1.44,1.11-1.74,2.42-1.68,4.16.03,1.01.59,1.93,1.64,1.99Z"/>
      <path class="cls-1" d="M41.15,19.43l-2.15-2.64-.57.09c-.13.02-.2.7-.18.83l.84,5.4c1.57-.5,2.73-2.54,2.05-3.68Z"/>
      <path class="cls-1" d="M2.02,46.56l-1.51.13,4.04,5.6c.36.5.86.8,1.86.88l-2.67-5.11c-.39-.74-1-1.52-1.55-2.07l1.38-1c.32-.23.29-1.48-.05-1.73-.83-.6-2.18-1.21-3.52-1.68.01,1.38.12,3.29.25,4.23.05.37,1.24.56,1.77.75Z"/>
      <polygon class="cls-1" points="54.37 5.43 51.22 11.91 54.87 11.16 54.37 5.43"/>
      <path class="cls-1" d="M13.82,53.29l-.06,1.9c-.36-.96-.88-2.4-1.64-2.15-.75.25-.95,2.05-.41,2.43.67.46,1.89,1.09,2.25.18l1.21,1.61-.37-3.4.56-2.26c.16,1.21.22,1.81.41,2.2.2.39,1.6.13,2.07-.4l-2.56-3.12-1.46,3Z"/>
      <path class="cls-1" d="M8.78,16c.46.14,1.64-.34,2.08-.59l-2.77-4.47c-.68,1.01-1.43,2.72-.84,3.53.51.72,1.06,1.4,1.52,1.53Z"/>
      <path class="cls-1" d="M16.96,12.64c-.49-2.55-.98-4.37-2.03-6.72l-.81,5.61,2.84,1.12Z"/>
      <path class="cls-1" d="M25.81,45.53c.69.06,1.89-.94,1.91-1.69.02-.6-.45-1.81-.71-2.07l-.34,1.86c-.02.13-.33-.43-.33-.56l.03-.54c.02-.42-.09-1.11-.28-1.46-.19-.34-1.41-.11-1.67.19-.64.75-.53,2.45.13,2.84l1.45-.15-.86.98c-.11.12.5.57.66.59Z"/>
      <path class="cls-1" d="M45.11,14.09c-.51,1.49-.87,2.86-1.06,4.33l-.54,4.04c1.82-.9,3.14-6.86,1.6-8.37Z"/>
      <path class="cls-1" d="M17.71,12.93c1.54-.39,1.86-.92,2.2-1.89l.92-2.55-3.81-2.29.59,2.03-1.54-1.67,1.63,6.37Z"/>
      <path class="cls-1" d="M48.56,22.15l-1.25,3.4c-.34.92-.99,1.84-1.6,2.94.4-.03,1.59-.44,1.84-.84l1.58-2.55c.6-.97,1.09-2.44-.57-2.95Z"/>
      <path class="cls-1" d="M38.16,15.84c.68-2.15,1.19-4.29,1.64-6.63.56.43,1.23.83,1.64.69.55-.18.81-1.13.69-1.61l-.66-2.58-1.21,3.65.26-3.09-1.63,1.59c-.31.3.3,1.18.54,1.71l-1-.59c-.25-.15-2.15,4.32-.28,6.86Z"/>
      <path class="cls-1" d="M8.03,16.35c-1.69-2.5-1.25-2.15-4.72-1.92l2.89,3.36,1.83-1.44Z"/>
      <polygon class="cls-1" points="3.25 13.94 5.77 13.85 4.66 11.84 6.49 13.76 7.33 10.32 3.13 8.97 4.8 12.11 2.75 10.1 3.25 13.94"/>
      <path class="cls-1" d="M27,26.6c-.57-1.27-2-2.55-3.62-2.86l1.32,4.91c.66-.83,1.27-1.34,2.3-2.04Z"/>
      <path class="cls-1" d="M50.87,38.96c1.38-.61,1.85-2.55.76-3.72-.76.08-1.91.9-2.18,1.55-.53,1.27.8,3.03.6,3.1.18-.07.57-.19.64-.35.05-.11.06-.18.18-.58Z"/>
      <path class="cls-1" d="M27.6,54.9c1.63-.32,1.6-2.14,1.44-4.19l-1.38,1.37.34-1.35c-1.66.25-1.97,1.93-2.71,2.87-.49.63-1.18,1.49-1.61,2.41-.26.57.51,1.8,1.24,2.29,2.6-2.96.45-4.15.86-4.26l.93-.26.7,1.48c-.94,1.66-2.3,3.54-2.36,5.58.48-.17,4.33-6.29,2.55-5.94Z"/>
      <path class="cls-1" d="M42.17,23.81c.65-1.64,1.25-4.98,1.12-6.74-.47.27-1.06.77-1.31,1.13-.2.29.23,1.06.37,1.41-.31.63-1.05,2.02-1.35,2.68-.18.39.68,1.33,1.16,1.52Z"/>
      <path class="cls-1" d="M6.41,36.86c-1.28,1.16,1.27,4.06,2.41,3.17,1.4-1.09-1.31-4.17-2.41-3.17Z"/>
      <path class="cls-1" d="M39.07,16.45c.91.88,1.45,1.38,2.12,1.89,1.34-.91,1.89-2.41.82-3.62-.93.38-1.82.93-2.94,1.73Z"/>
      <path class="cls-1" d="M55.94,52.29c.25-.64.22-1.61.13-2.45-1.97.44-2.99,1.88-3.24,3.29.63.61,2.82-.06,3.11-.84Z"/>
      <path class="cls-1" d="M51.68,18.42c-1.12,1.47-2.2,2.73-1.04,4.38l1.54-1.51c.31-.3.66-1.41.45-1.75-.21-.34-.74-.94-.96-1.13Z"/>
      <path class="cls-1" d="M44.38,59.42c.3-.4.51-1.46.36-1.88-.17-.47-.84-1.55-1.28-1.49-.38.05-1.1.4-1.32.54.35.6.63,1.38.74,2.21.07.55,1.21,1.01,1.51.62Z"/>
      <path class="cls-1" d="M42.04,10.42l-1.9.3-1.11,4.24c2.04-1.08,2.27-2.72,3.01-4.55Z"/>
      <path class="cls-1" d="M17.14,44.25c.57-.31.74-2.45.31-2.76-.27-.2-1.13-.53-1.35-.27-.86.96-1.14,2.27-.33,2.95.28.24,1.05.26,1.37.08Z"/>
      <path class="cls-1" d="M18.08,59.19l-2.12-4.61c-.77,1.3.39,6.13,2.12,4.61Z"/>
      <path class="cls-1" d="M5.66,56.03c.58.53,2.53.29,2.69-.62.11-.62-1.36-1.35-1.96-1.27-.53.07-1.13,1.52-.73,1.88Z"/>
      <path class="cls-1" d="M2.1,55.71c.29.44,1.33.89,1.91.76.58-.13,1.08-1.26,1.25-2.05-.93-.3-2.17.37-3.16,1.29Z"/>
      <path class="cls-1" d="M10.25,56.26l-.86-.85c-.53-.52-.21,1.62-3.94,1.29-1.24,1.86,3.99.28,4.8-.45Z"/>
      <path class="cls-1" d="M26.6,32.58c.5-.08.86-1.33.68-1.69-.17-.35-1.22-.77-1.6-.6-.63.28-.35,2.5.92,2.29Z"/>
      <path class="cls-1" d="M16.8,54.79l2.22,5.33c.38-.95.55-1.95.58-2.98l-1.39.1c.26-.79.47-1.53.41-2.04-.09-.81-.99-1.1-1.83-.41Z"/>
      <polygon class="cls-1" points="33.66 52.94 36.63 52.02 33.76 50.38 33.66 52.94"/>
      <path class="cls-1" d="M27.98,28.95c.02-.38-.72-1.11-1.1-1.07-.37.04-1.37,1.19-1.05,1.39.32.2.97.59,1.37.82.32.18.76-.76.78-1.14Z"/>
      <path class="cls-1" d="M28.28,32.16c.88-.12,1.38-1.15,1.14-1.56l-.85-1.44c-.71,1.05-1.02,2.53-.29,3Z"/>
      <circle class="cls-1" cx="11.91" cy="59.75" r="1.09"/>
      <path class="cls-1" d="M42.34,12.03c.25.62.97,1.16,1.6,1.38.45.16,1.35-1,1.14-1.43-.99-.07-1.69-.05-2.74.05Z"/>
      <path class="cls-1" d="M23.3,57.24c-.53,1.23-.86,2.33-1.09,3.75,1.61-1.01,1.94-2.38,1.09-3.75Z"/>
      <path class="cls-1" d="M43.08,29.01c1.66-.76,2.3-1.87,2.87-3.19-1.41.67-2.57,1.84-2.87,3.19Z"/>
      <path class="cls-1" d="M35.3,30.68c1.14-1.35,1.99-2.67,2.03-4.45-1.02,1.52-1.62,2.97-2.03,4.45Z"/>
      <path class="cls-1" d="M36.5,13.7l-.34,3.43c1.68-.77,1.46-2.67.34-3.43Z"/>
      <path class="cls-1" d="M24.72,58.32c-.91,1.06-1.26,2.1-1.25,3.29,1.01-.94,1.47-2.07,1.25-3.29Z"/>
      <path class="cls-1" d="M8.22,25.24c.53,2.13,1.13,3.16,2.65,4.94l.6-2.06c.35.96.49,2.03,1.49,2.59l-.53-3.39-4.22-2.08Z"/>
      <path class="cls-1" d="M11.96,22.74c-.13,1.72.85,4.1,3.09,3.46-1.33-3.52-.81-1.08-3.11-4.59-.06-.09-.18.08-.21.19l-.28.94-.84-2.51c-1.39.88-1.35,1.84-1.07,3.22l2.43-.71Z"/>
      <polygon class="cls-1" points="12.44 26.68 14.5 31.36 15.81 27.56 12.44 26.68"/>
      <path class="cls-1" d="M9.64,24.24c.27.95,1.1,1.61,2.3,1.72-.13-.52-.36-1.22-.6-1.68-.19-.36-1.16-.25-1.7-.04Z"/>
      <path class="cls-1" d="M16.19,29.76c-.37.33-.8,1.07-.87,1.44-.07.36.82.91,1.28.92-.1-.96-.24-1.7-.41-2.36Z"/>
    </g>
  </g>
</svg>