<?xml version="1.0" encoding="UTF-8"?>
<svg id="Warstwa_2" data-name="Warstwa 2" xmlns="http://www.w3.org/2000/svg" viewBox="0 0 79.76 51.54">
  <defs>
    <style>
      .cls-1 {
        fill: #fff;
      }
    </style>
  </defs>
  <g id="icon-v10-loot-pixarts-store">
    <g id="icon-v10-loot-pixarts-store_197">
      <path class="cls-1" d="M13.22,47.77c-.58.02-1.45.54-1.83,1.17.63,1.16,3.32,2.2,3.83.5.4-1.35-1.22-1.69-1.99-1.67Z"/>
      <path class="cls-1" d="M75.71,41.21c-.99-.77-1.58-2.38-3.12-2.92-.63-.22-.79-1.09-1.03-1.53-1.27-2.33-3.8-1.99-6.63-1.58l2.58-1.76-.35-2.6c-1.38-.06-2.18-.45-2.71-1.51l-1.54-3.08-4.18-1.13c-4.13-3.64-1.88-3.06-4.18-6.08-1.49-.47-3.16-.34-4.79-.31-4.64-3.57-.44-1.97-4.82-3.87-2.22-.96-3.87-1.09-6.22-.11-1.18.49-2.5.55-2.32,2.57l-3.04.4-3.42,2.77.61,1.91c-1.47-.72-2.69-1.04-4.16-.73l1.54,4.81,2.31.12-4.46,2.2-1.46,2.31c-2.74-.37-4.2,1.35-5.2,3.5l-.52-1.62c-.08-.25-1.11-.14-1.35,0l-2.47,1.4c.29-.89.68-1.54,1.31-2.52-.29-.65-1.42-1.9-2.27-2.47l-2.59,3.01c-.18,1.71-.78,2.71-2.36,3.27l-1.98.69.25,2.29c-1.07.21-1.87,1.13-2.51,1.81-1.98.53-3.87,1.27-4.64,3.62,2.07.55,4.27,1.19,6.25,1.02.83-.07,1.21-.18,1.81.22,1.63,1.08,3.32.28,5.02-.38,1.56.7,3.41,1.61,4.78,2.59,4.8,3.4,6.84,1.1,8.83,1.15,2.55.06,5.61.43,8.06,1.03,1.53.37,6.64,3.11,10.69,1.23l-1.18-2.36c1.3.47,2.16,1.1,3.14,1.89l6.31-1.91c.8-.24,1.54-1.21,1.37-2.05l-.89-4.5c1.47,1.09,2.37,2.53,3.22,4.18l3.47-1.04c4.19,2.22,4.57,1.31,8.97.72-.46-.4-1.12-1.14-.98-1.6.21-.73,1.61-.76,2.07-.32.32.3.67.97.71,1.37l-.7.41c-2.8,1.64,8.71-.72,8.81-.93l-2.16-2.05-1.9-1.49ZM16.3,38.63c-1.29-.51-2.66-.28-4.12.43.33-1.66,1.79-2.57,3.68-2.5l2.76,2.72-2.31-.64ZM34.4,21.61c.41.26.83,1.46.4,1.68-.26.13-1.25.09-1.53,0-.35-.12-.51-.9-.52-1.47,0-.4,1.3-.43,1.65-.21ZM38.16,31.03c-1.76.54-2.79.9-3.98,1.4l-4.03,1.7c.99-3.93,5.76-4.38,8.01-3.1ZM38.51,43.22c-1.61-.6-2.83-1.36-4.12-1.1-.85.17-1.78,1.87-2.51,2.1l-4.03,1.27c-.16-.58-.45-1.46-.78-1.56l-2.51-.76c.44-.77,1.75-.53,2.29-.8,2.14-1.09,3.74-2.8,6.29-3.23.96-.16,5.78,2.13,5.37,4.08ZM53.99,23.78c1.18.75,1.72,1.61,1.24,3.18l-4.14-2.97c1.04-.53,2.16-.68,2.91-.2ZM39.39,40.89c.13-.32.63-1.04.97-1.26.34-.22,1.16.38,1.77.9-.64.91-1.74.99-2.74.36ZM40.02,19.28c1.06-.62,2.98-1.21,3.89-.19.72.81,1.33,1.86,1.96,3.08-2.02-1.27-3.7-2.36-5.85-2.89ZM46.23,31.77l-2.46-1.41c1.02-1,2.32-2.42,3.91-2.03,1.05.26,2.22,1.58,3.04,2.39l-4.49,1.06ZM60,33.02c-1.25.65-2.38,2.55-3.13,3.8.89,1.06,1.52,1.76,1.9,3.18l-3.75-2.69c-1.2-.86-2.08-2.16-3.98-1.44.9-1.84,2.56-1.14,3.99-1.18,1.98-.43,2.93-3.02,3.51-4.85.78-.52,2.66,1.18,2.94,2.12.15.51-.89.75-1.48,1.05Z"/>
      <path class="cls-1" d="M19.73,25.99c-1.22-.78-1.84-1.66-2.77-3.13l-3.56,1.33c1.12,2.47,2.84,6.96,5.43,7.54.99-2.25,2.97-1.96,4.77-2.4.52-1.04,1.36-2.22,2.76-2.77-.56-2.17-1.44-4.66-2.36-6.93-1.56.13-2.85.99-3.14,2.57l-1.51-2.87c-.29-.55-1.93-.01-2.41.62.76,2.09,1.75,4.1,2.79,6.06Z"/>
      <path class="cls-1" d="M12.09,8.19l4.48,10.44,2.05-.76-4.19-10.7c1.8-2.33,1.74-4.99,0-7.18l-7.66,3.19c.42,3.15,2.62,4.39,5.31,5.01ZM13.8,2.29c.53,1.21.52,3.33-.84,4.06-1.45.78-3.56-.58-4-1.98l4.84-2.08Z"/>
      <path class="cls-1" d="M61.3,47.74c-1.93-.13-3.28,1.39-4.48,2.96,2.68.36,5.32.61,8.13-.11-.83-1.69-2.21-2.75-3.65-2.85Z"/>
    </g>
  </g>
</svg>