<?xml version="1.0" encoding="UTF-8"?>
<svg id="Warstwa_2" data-name="Warstwa 2" xmlns="http://www.w3.org/2000/svg" viewBox="0 0 63.58 48.87">
  <defs>
    <style>
      .cls-1 {
        fill: #fff;
      }
    </style>
  </defs>
  <g id="icon-v10-loot-pixarts-store">
    <g id="icon-v10-loot-pixarts-store_211">
      <path class="cls-1" d="M8.83,21.31l14.98,6.07c1.77.72,3.5.22,5.03-.87L56.29,6.86c.28-.2.54-.68.46-.79-.08-.12-.5-.52-.79-.63L41.32.22c-1.21-.43-2.26-.2-3.25.44L8.77,19.65c-.27.18-.74.73-.63.96.08.17.51.63.69.7ZM40.94,3.98l4.61,6.2-6.63-.21,1.06,3.82-2.31.67-1.52-4.64c-2.53.84-3.84,3.57-6.34,1.67l11.13-7.51ZM27.88,13.28c.66.29,1.66.87,2.04,1.38l2.82,3.74-1.96.91-2.8-3.31c-.23-.25-1.25.38-1.59.75l2.42,3.86c-.35.28-1.24.72-1.8.9l-2.49-3.31-4.99,3.5c-.55.38-2.19-.44-2.6-.79l10.97-7.64Z"/>
      <path class="cls-1" d="M58.66,7.98l-28.94,20.8c-1.28.92-2.15,1.89-2.09,3.57.2,5.43-.13,10.64.47,16.33l27.89-22.44,6.86-5.45c.43-.34.91-1.35.66-1.9l-4.86-10.91ZM31.9,43.54c-.81.65-1.48,1.04-2.44,1.61l-.17-13.8,20.03-15.06.75,6.4,2.24-8.5,5.44-4.06,4.08,9.5-29.92,23.91Z"/>
      <path class="cls-1" d="M25,32.59c-.14-1.19-.89-2.15-2.03-2.58l-14.83-6.63-1.05-1.66c.22.73-1.3,1.04-1.52,1.55L.14,35.57c-.31.69-.13,1.44.54,1.74l26.21,11.56-1.9-16.28ZM2.01,35.99c.92-2.34,1.94-4.34,3.22-6.78.62.28,1.33.91,1.46,1.33l1.21,3.91c.47-1.62.49-3.56,1.49-5.11.67-1.04,2.93-1.63,4.16-1.83l10.06,4.26,1.24,14.04L2.01,35.99Z"/>
      <polygon class="cls-1" points="40.54 6.68 38.12 8.43 41.83 8.75 40.54 6.68"/>
    </g>
  </g>
</svg>