<?xml version="1.0" encoding="UTF-8"?>
<svg id="Warstwa_2" data-name="Warstwa 2" xmlns="http://www.w3.org/2000/svg" viewBox="0 0 55.56 57.48">
  <defs>
    <style>
      .cls-1 {
        fill: #fff;
      }
    </style>
  </defs>
  <g id="icon-v10-loot-pixarts-store">
    <g id="icon-v10-loot-pixarts-store_19">
      <path class="cls-1" d="M52.13,26.36l-2.1-5.5c1.32.97,2.12,1.74,3.15,2.82-.63-3.76-2.98-6.35-5.96-8.47,3.09.34,5.51.56,8.04-.79-6.77-.41-6.92-2.12-11.85-5.43l3.55-.24c-2.71-1.31-5.11-1.86-8.26-1.95,2.48-1.4,5.23-1.68,8.33-1.94-4.28-1.93-8.92-2.12-13.6.13.72-2.11,2.46-3.55,4.57-4.95-3.14-.31-5.62,1.85-8.3,3.57l-.02-2.92c-1.07,1.2-1.92,2.41-2.73,3.64-1.04-1.15-1.83-1.99-2.7-2.78l.64,1.93c-2.72-1.64-4.87-3.33-8.09-2.66,1.83.93,3.43,1.82,4.21,3.85-3.76-.73-6.94-1.26-10.34-1.19l6.16,3.06c-5.16.08-9.51.96-13.1,4.65l6.66-.81-2.44,2.04c-1.58,1.32-3.23,2.44-4.96,3.38h3.08c-1.79,2.1-3.63,3.12-5.92,4.78,2.15-.03,3.97-.31,5.91-.67-3.86,3.66-1.89,6.46-6.05,11.64,2.72-.08,3.8-2.19,5.34-4.05-.82,4.02-1.98,7.51-.7,11.07.65-1.85,1.24-3.34,1.98-4.82.08,3.19.23,5.62.74,8.29l.13-4.22c.78,1.73,1.15,3.7,2.05,5.42,1.26,2.4,2.31,4.47,2.77,7.32,1.67-2.76,1.23-5.66,1.29-9.09l2.41,6.64c.38,1.04,1.16,2.16,1.79,3.04l.02-3c1.37,2.29,2.16,4.23,4.06,6.03-.57-3.46-2.06-6.32-.72-9.68.54,3.4,1.84,5.26,3.79,7.41,1.66,1.83,2.64,4.31,4.76,5.56-.22-3.05-.8-5.33-.23-8.3l1.73,4.57c.67-2.16,1.23-3.94,2.66-5.18-.11,2.72-.87,5.05.9,7.1.37-3.7,1.78-6.59,4.32-9.02l-.12,3.08c2.97-2.96,4.3-6.71,4.25-10.93,1.29,3.55,1.13,7.01.85,10.81,2.86-3.7,2.96-8.25,2.02-13.24,1.86,2.01,2.5,4.14,3.55,6.56.48-2.93.29-5.29.13-8.28l1.5,2.76c-.07-3.6-1.68-6.39-2.72-10.08,1.88,1.67,4.05,3.35,7.01,2.96-1.5-1.03-2.8-2.28-3.43-3.92ZM23.62,10.33l-3.58-1.43c2.16-1.24,4.52-1.33,6.54.15l-2.98.04,1.8,1.56c-1.62.8-2.65,1.37-3.97,2.37l2.67.31c-1.98,2.38-3,5.14-3.89,8.51-.4-2.44.21-4.4,1.06-7.17l-3.15,1.4c.38-2.76,2.68-4.57,5.49-5.75ZM10.93,38.92c-1.4-2.62-1.29-5.82.41-8.15l-.41,8.15ZM20.17,34.12c-.8,2.81-.7,5.15-.64,7.97-1.47-2.38-2.42-4.7-3.38-7.37l-1.13,3.3c-1.88-3.86-1.77-7.8-1.81-12.06-1.45,1.31-2.35,2.46-3.43,3.91-.7-3.39.2-6.68,1.73-10.03l-3.81,1.21,1.99-3.08c.98-1.51,2.14-2.87,3.33-4.24l-2.32.1c1.48-1.69,3.56-1.61,6.13-2.03-2.23,1.64-4.22,3.66-5.72,6.29l3.59-1.11c-1.38,2.78-2.44,4.96-3.11,7.75l4.43-2.83c-.8,3.53-1.05,6.67-.59,10.47l2.1-3.27.69,4.9,2.96-6.98c.4,4.42.85,8.13,3.07,11.52-.03-2.24-.05-3.98.6-5.95l.79,3.93c.54,2.7.97,5.29,1.07,8.22-2.9-5.13-4.23-4.64-6.54-10.63ZM36.4,8.38l-5.54.44c1.41-1.48,3.7-1.49,5.54-.44ZM30.28,30.64c.79-4.12.62-7.4-.1-11.53,1.64.93,2.72,2.23,3.93,3.84.01-2.6-.7-4.72-1.53-7.06,3,2.88,3.34,7.24,2.17,10.97l-2.45-4.47c-.16,3.41-.5,5.85-2.01,8.25ZM42.69,19.87c2.3,3.9,3.81,7.75,2.83,12.23l-3-3.75c1.01,6.73-.24,9.15-3.92,14.39l-.69-5.49c-1.1,2.21-1.91,3.96-3.62,5.95l-.75-3.56c-.37,2.83-.67,5.06-1.62,7.55-.89-3.8.18-7.12,1.59-10.32l.8,3.55c2.39-3.33,2.47-7.19,2.48-11.43,1.48,2.59,2.55,5.27,2.99,8.34,1.76-3.8,1.56-7.71.49-12.36l3.85,2.56c-.47-3.57-2.32-6.73-4.59-9.86l3.28.07c-1.46-1.39-2.76-2.42-4.23-3.52l3.47.04c-2.18-1.46-4.12-2.34-6.44-3.35,3.46-.13,6.4,1.52,8.65,4.31l-2.13.27c2.28,1.64,3.8,3.61,4.55,6.22l-3.97-1.84Z"/>
    </g>
  </g>
</svg>