<?xml version="1.0" encoding="UTF-8"?>
<svg id="Warstwa_2" data-name="Warstwa 2" xmlns="http://www.w3.org/2000/svg" viewBox="0 0 57.74 61.29">
  <defs>
    <style>
      .cls-1 {
        fill: #fff;
      }
    </style>
  </defs>
  <g id="icon-v10-loot-pixarts-store">
    <g id="icon-v10-loot-pixarts-store_307">
      <path class="cls-1" d="M7.15,34.05l-1.11,17,3.11-4.97c.78-.25,2.31.34,3.16.82l1.68-2.13c2.36,4.48-.06,8.19,1.28,10.66,1.41-1.23,3.09-2.56,4.62-1.41,3.76,2.82,4.1,8.09,5.48,7.16,2.11-5.84.3-11.27,2.53-15.78l1.49,1.11,2.12-8.72c2.5,1.72,1.98,7.4,3.41,10.82,3.57-3.39,1.73-6.04,4.27-6.83,2.12,4.15,2.56,7.95,3.14,12.87,1.54-4.11,3.06-10.12,3.57-14.46.19-1.6.26-3.18,2.17-4.11l2.22,3.96c1.46-3.83-.19-7.42-.38-11.25-.23-4.56-.02-9.09.41-13.68.78-8.35-1.82-11.7-2.44-8.47l-.85,4.42c-1.76-1.73,1.27-6.1-2.01-7.37-1.1,6.65-4.9,11.67-10.72,14.04,1.7-1.15,10.84-11.9,8.07-12.1-3.03-.22-10.41,5.25-24.1.65,2.13,4.09,6.3,5.8,10.1,7.49l3.85.6c-1.47.57-3.94,1.4-5.63.66-3.99-1.73-7.63-4.25-10.49-7.45-.99-1.11-1.95-3.26-3.2-3.65-4.21,1.48-.02,7.92-.19,12.48-2.19-3.32-2.61-7.46-2.81-11.61-3.11-1.66-3.1,7.38-2.76,9.31.51,2.98,1.4,5.95,1.12,8.84l-1.1,11.09ZM46.2,25.8c1.45-.98.99,5.56-.45,7.05-1.71-2.34-1.73-5.57.45-7.05ZM43.02,14.04c-.1,4.89-2.37,8.88-5.71,11.96,1.66-4.33,3.45-8.13,5.71-11.96ZM36.36,30.86c.5-.09,1.48.65,1.64,1.16.77,2.42-.12,4.85-2.47,5.86-1.03-1.64-1.66-6.58.84-7.01ZM21.41,45.19c1.23-.13,1.87,3.72.22,4.12-1.61.4-1.89-3.83-.22-4.12ZM14.23,33.57c2.57,6.47,1.26,5.71-1,9.43-1.64-2.83-1.92-6.95,1-9.43Z"/>
      <path class="cls-1" d="M52.31,7.13c2.12-1.87,3.86-3.77,4.29-6.49-1.96,1.13-3.55,2.25-5.2,3.48-.63.47.08,2.59.91,3Z"/>
      <path class="cls-1" d="M4.57,5.33c.59.34,2.13-.33,2.15-1.22L1.47,0c-.37,2.85,1.24,4.26,3.1,5.33Z"/>
      <path class="cls-1" d="M52.13,10.62l1.91.15c1.88.15,3.46-.75,3.7-2.58l-5.2.53c-.39.04-.8,1.87-.41,1.9Z"/>
      <path class="cls-1" d="M5.46,8.99l-3.61-1.57c-.47-.2-1.88.09-1.84.57.08,1,1.34,2.38,2.18,2.43,1.03.05,3.13-.4,3.28-1.43Z"/>
    </g>
  </g>
</svg>