<?xml version="1.0" encoding="UTF-8"?>
<svg id="Warstwa_2" data-name="Warstwa 2" xmlns="http://www.w3.org/2000/svg" viewBox="0 0 56.56 57.22">
  <defs>
    <style>
      .cls-1 {
        fill: #fff;
      }
    </style>
  </defs>
  <g id="icon-v10-loot-pixarts-store">
    <g id="icon-v10-loot-pixarts-store_40">
      <path class="cls-1" d="M6.51,25.88l.55,1.04c-1.9.71-.89,5.62-.27,6.6,1.52,2.4,2.56,4.49,2.25,7.45-.16,1.52.43,3.59,1.84,4.23.56.25.88.71,1.39,1.17,1.69,1.54,3.79,2.73,5.25,4.53,1.63,2.02,4.36,3.2,4.81,2.77l.93-.88.4,2.07c1.39.84,3.08,1.86,4.67,2.37,2.5-1.04,4.94-1.69,5.07-4.55l1.25.97c2.1-.22,3.42-1.46,4.76-3.23.98-1.29,3.41-2.77,4.63-3.68.29-.28.57-1.48.67-1.85.07.08,1.07.65,1.3.45.87-.76,1.69-3.1,1.55-4.35-.71-6.67,3.84-5.75,2.87-13.16l-3.33-1.55c.81,4.15-1.79,13.35-3.89,16.79-3.16,5.14-8.72,7.69-13.77,10.41-.79.42-2.55-.09-3.36-.55l-6.06-3.44c-2.53-1.44-5.05-3.98-6.7-6.45-2.22-3.34-2.75-7.49-3.64-11.29-.74-3.16-.01-6.24.93-9.28,1.7-5.46,0-4.62,2.67-9.47l7.38-5.52c.09-.07.31-.9.38-.82l.47.62c7.45-3.6,7.41-2.98,14.64.74.43.22,1.28.55,1.59.78l5.8,4.31.93,2.22c1.46,3.49-.43,2.94,2.38,9.87.32.79,2.19,1.39,3.19,1.32.04-.48-.17-1.5-.44-1.83-4.16-5.07-.04-9.85-2.54-12.21l-2.26-2.13c-2.36-1.14-5.01-3-6.42-5.04-.26-.38-1.45-.93-1.65-.61l-.97,1.56-.2-2.19c-2.36-.68-4.25-1.45-6.24-2.89-1.81-1.31-4.25,2.29-8.41,2.94l-.24,2.02-1.17-1.57c-.19-.25-1.13.42-1.32.72-1.34,2.11-3.95,3.79-6.12,5-1.26,2-4.49,1.71-3.21,7.18,1.21,5.15-2.88,7.38-2.34,8.4Z"/>
      <path class="cls-1" d="M32.89,25.72c-1-.89-3.21-1.74-4.65-1.89-1.29-.14-3.47.9-4.38,1.78-1.3,1.26-2.77,3.44-2.97,5.14.38,1.77,2.15,3.22,3.36,4.52l8.43-.1c1.4-1.78,2.33-3,3.37-4.63-1.08-1.75-1.71-3.53-3.16-4.81Z"/>
      <path class="cls-1" d="M28.26,13.17c-3.48,1.24-5.84,3.69-7.39,6.92l2.06,3.44c.17.28,1.33.36,1.5.08.17-.28.37-.93.37-1.3l.03-2.51,1.71,3.01c2.29-.29,4.06.07,6.53,1.09.91-1.07,1.93-2.65,2.58-4-1.55-3.2-4.11-5.51-7.39-6.74Z"/>
      <path class="cls-1" d="M43.49,20.19c-4.99-.28-6.88.24-8.68,4.74.74,1.7,1.81,3.58,2.87,4.97.35.46,2.14.29,2.42-.2l1.2-2.12-.09,2.58c1.2.26,3.34.43,4.51-.5-.09-3.38-1-6.43-2.22-9.48Z"/>
      <path class="cls-1" d="M10.96,29.32c.4.71,2.13.96,3.04.82.62-.1,1.22-.77,1.92-1.55l.04,1.43c.56.16,2.75.45,3.2-.3l2.77-4.63-2.58-4.11c-1.82-.79-4.21-1-6.24-.66-1.37,2.69-2.12,5.89-2.15,9.01Z"/>
      <path class="cls-1" d="M31.52,36.84l-7.93.1c-.75,1.28-1.36,2.48-2.01,3.95,1.99,1.72,3.92,4.3,6.73,4.29,2.45,0,4.9-2.56,6.62-4.29-.12-1.22-1.09-2.53-1.89-3.24l-1.07,1.51-.45-2.32Z"/>
      <path class="cls-1" d="M16.58,41.38l.93-2.88.64,2.15c.53,0,1.87-.43,2.19-1.05l1.96-3.73-3.23-4.15c-2.67-.11-4.93-.07-7.75.14.26,3.56,1.5,6.8,3,9.68.31.49,2.09.37,2.26-.17Z"/>
      <path class="cls-1" d="M45.14,32.2l-8.11-.21-2.66,3.87,2.06,4.36,5.65,1.93c1.62-3.4,2.55-6.31,3.06-9.94Z"/>
      <path class="cls-1" d="M21.41,9.6c.95,1.73,1.78,2.99,2.78,4.24,1.49-.74,2.75-1.92,4.06-1.9,1.43.02,2.76,1.25,4.35,1.84l2.63-4.22c-1.93-1.51-4.13-3.02-6.7-3.25-2.64-.24-5.19,1.59-7.12,3.28Z"/>
      <path class="cls-1" d="M38.48,17.08l.04,1.77,4.77-.47c.83-3.83-3.82-6.91-6.71-8.03-1.04,1.58-1.91,2.91-2.51,4.44l2.8,4.1,1.62-1.81Z"/>
      <path class="cls-1" d="M13.39,18.37l4.76.69c.35.05,1.12-.08,1.4-.19.28-.11.5-1.01.31-1.23l-2.39-2.8c1.16.53,1.95,1.28,3.19,2.43.41-.33,1.9-2.01,1.65-2.74-.47-1.33-1.45-2.77-2.41-4.11-2.8,1.01-7.45,4.35-6.51,7.95Z"/>
      <path class="cls-1" d="M33.23,49.52l-1.86-3.75-3.07,1.29-3.22-1.2-1.79,3.75c5.09,2.88,5.16,2.98,9.95-.09Z"/>
      <path class="cls-1" d="M22.21,48.94l1.75-3.95-3.85-3.23c-1.51.36-2.93.96-4.38,1.74,1.94,2.52,3.46,4.16,6.48,5.43Z"/>
      <path class="cls-1" d="M35.13,48.91c2.44-1.86,3.9-3.22,5.63-5.13-1.5-.96-2.78-1.57-4.45-1.89l-3.47,2.98c.12,1.55.93,3.17,2.28,4.04Z"/>
      <path class="cls-1" d="M11.73,8.88c2.14-.64,3.47-1.8,4.56-3.39L10.23,0l1.5,8.88Z"/>
      <path class="cls-1" d="M0,17.7l6.04,5.55c1.52-1.49,2.3-4.07,1.19-5.64l-7.23.09Z"/>
      <path class="cls-1" d="M44.85,8.87L46.27.09l-5.87,5.35c1.17,1.6,2.27,2.75,4.45,3.44Z"/>
      <path class="cls-1" d="M49.05,17.64c-.28,2.17-.01,3.84,1.35,5.62l6.15-5.58-7.5-.04Z"/>
      <path class="cls-1" d="M50.35,35.26c-1.1,1.53-1.56,3.31-1.47,5.3,2.29.62,4.4.93,6.94.91-1.75-2.35-3.41-4.07-5.48-6.21Z"/>
      <path class="cls-1" d="M.65,41.32c2.89-.01,4.61-.23,7.19-.71-.22-2.55-.54-3.75-1.67-5.38l-5.52,6.1Z"/>
      <path class="cls-1" d="M11.82,55.78l4.92-3.96c-1.61-1.48-2.36-2.09-3.83-2.9l-1.09,6.86Z"/>
      <path class="cls-1" d="M39.89,51.85l4.73,3.87-1.03-6.79c-1.7,1.03-2.57,1.68-3.7,2.93Z"/>
    </g>
  </g>
</svg>