<?xml version="1.0" encoding="UTF-8"?>
<svg id="Warstwa_2" data-name="Warstwa 2" xmlns="http://www.w3.org/2000/svg" viewBox="0 0 54.18 54.34">
  <defs>
    <style>
      .cls-1 {
        fill: #fff;
      }
    </style>
  </defs>
  <g id="icon-v10-loot-pixarts-store">
    <g id="icon-v10-loot-pixarts-store_157">
      <path class="cls-1" d="M19.98,41.46c3.74-1.63,3.54-4.37,8.41-5.54l10.46-2.53c4.03-.98,8.59-2.73,10.45-6.38l2.82-5.53c1.73-3.39,2.75-6.6,1.52-10.28-2.73-8.12-5.51-8.22-11.99-10.61-1.97-.73-3.64-.87-5.54.18-3.45,1.93-5.3-.19-9.05,3.6-10.18,10.29-5.5,20.28-12,27.18-1,1.06-1.91,2.29-1.77,3.54,1.8-.5,2.81-.77,4.28-1.01l-.71,3.49,2.99-.14.12,4.03ZM36.84,4.44c1.36-1.11,3.94-1.16,4.81.63-.92,1.33-3.47,1.5-4.95,1.02-.42-.13-.22-1.36.14-1.65ZM36.91,28.37c2.4-1.1,5.5-.39,7.45-3.06l-.44-1.05,2.58-3.03,3.32-3.93c.16.85-2.28,6.02-2.76,6.6-3.15,3.86-.55,3.69-7.45,5.7-3.22.94-5.96,2.04-9.17,1.82,2.41-.5,4.26-2.04,6.46-3.05ZM33.66,6.09c.39.4-.46,1.85-1,2.13l-5.87,3.04c.39-2.58,4.43-7.71,6.87-5.17Z"/>
      <path class="cls-1" d="M18.85,39.4c-1.76-.21-2.41-.11-3.7-.01l.25-3.03c-3.05.44-5.35,4.67-8.59,6.41-2.04-1.36-3.94-1.16-5.59.3-1.37,1.21-1.72,3.49-.34,5.15,1.34,1.61,3.41,1.3,5.46.97-.79.89-1.17,2.04-.47,3.21,1.22,2.05,3.85,2.46,5.53,1.28,1.59-1.11,2.5-3.31,1.36-5.2-.43-.72-.31-1.79.24-2.41l5.85-6.67Z"/>
    </g>
  </g>
</svg>