<?xml version="1.0" encoding="UTF-8"?>
<svg id="Warstwa_2" data-name="Warstwa 2" xmlns="http://www.w3.org/2000/svg" viewBox="0 0 56.1 61.31">
  <defs>
    <style>
      .cls-1 {
        fill: #fff;
      }
    </style>
  </defs>
  <g id="icon-v10-loot-pixarts-store">
    <g id="icon-v10-loot-pixarts-store_310">
      <path class="cls-1" d="M33.94,29.73c3.86-4.06,5.83-9.79,5.83-15.58l-3.13,5.5-.91,4.15-.05-3.03-8.26,4.9-6.53,4.41-3.41,4.57c.19-1.82,1.06-3.05,2.11-4.57-1.4-.57-9.02,6.19-10.45,7.59-1.48,1.45-2.61,3.43-3.99,5.24,2.35,2.81-.72,9.43-3.98,9.04l-1.18,9.35,9.93-.34-.74-6.57-1.6,1.99c1.07-6.74,1.69-2.94,2.65-11.65.31-2.8,2.2-5.56,4.51-7.28-2.27,3.25-3.54,6.23-3.93,10.04-.32,3.12-1.02,5.97-.04,9.03l1.77-3.92c.24.89.36,2.31.89,2.24l2.53-.33-2.76-4.18c3.47-7.49,4.94-17.34,13.68-19.85-4.53,3.51-8.28,7.47-9.2,13.05,2.04-1.97,4.23-3.38,6.49-5.13,3.42-2.65,6.76-5.52,9.77-8.7Z"/>
      <path class="cls-1" d="M53.74.03l-8.99-.03c5.12,6.85,3.55,11.72-.77,18.57l2.62-9.76c.83-3.1-1.21-6.3-3.33-8.33.32,2.65.56,4.84.09,7.19l-.54-2.73-4.89.81,3.86,3.83c-1.22,14.93-2.39,14.62-11.44,26.04,8.79-4.47,7.87-4.66,12.99-11.94v2.46c1.98-1.94,3.67-4.03,4.93-6.1-.93-.93-1.32-1.82-1.24-3.01.15-2.39.96-4.64,3.28-5.05-1.33,2-2.07,3.8-1.82,5.56l7.59-.57-4.75-4.22c1.26-4.16,2.18-8.37,2.39-12.72Z"/>
      <path class="cls-1" d="M12.73,19.85l-5.78.83,5.12,4.66c-.97,2.46-.38,4.6.95,6.47l4.37-3.68c-1.17-4.58.39-8.05,3.56-10.9,2.92-2.63,8.8-4.28,12.69-4.22-1.57-1.43-4.02-2.13-6.46-1.93-.01-1.98-.56-3.91-1.62-6.1-1.17,2.13-1.8,3.98-1.95,6.09-2.41.12-4.73.89-6.52,2.78-6.81,7.18-2.2,3.86-3.61,9.94l-.73-3.95Z"/>
      <path class="cls-1" d="M32.25,45.45l-6.33,1.98c-1.5.47-2.84.21-4.81-.28,2.17,2.6,5.23,3.98,8.81,3.48l3.29,4.91,1.2-5.44c2.07-2.94,4.09-6.36,2.85-10.24-1.52,1.93-2.68,4.87-5.01,5.59Z"/>
      <path class="cls-1" d="M41.91,41.47l5.52-1.17-4.72-3.58c.35-2.72.22-4.36-.71-6.78l-3.77,3.23c-.51,8.65,2,7.55-1.1,14.91,2.52-1.15,3.79-3.8,4.77-6.62Z"/>
      <path class="cls-1" d="M33.03,20.1l3.11-3c-1.49-1.81-3.21-2.9-5.24-3.3l-2.22,1.5c1.82,1.36,2.98,2.8,4.34,4.79Z"/>
      <path class="cls-1" d="M20.36,44.95c.59,1.25,2.08,2.29,3.04,2.2,1.48-.13,2.94-.54,3.89-1.46-1.85-1.49-3.01-2.45-4.16-3.28-.81-.58-3.18,1.66-2.77,2.54Z"/>
    </g>
  </g>
</svg>