<?xml version="1.0" encoding="UTF-8"?>
<svg id="Warstwa_2" data-name="Warstwa 2" xmlns="http://www.w3.org/2000/svg" viewBox="0 0 64.24 41.43">
  <defs>
    <style>
      .cls-1 {
        fill: #fff;
      }
    </style>
  </defs>
  <g id="icon-v10-loot-pixarts-store">
    <g id="icon-v10-loot-pixarts-store_201">
      <path class="cls-1" d="M55.07,13.85l-27.2,14.4c1.78.92,3.94,1.89,5.89,1.66,8.43-4.14,16.22-8.59,24.88-12.19l-24.24,14.12-.68,7.79-1.55-7.42c-4.25-3.03-6.37-2.32-11.5-4.75l-2.5,7.17,15.74,6.8,30.35-17.95-2.86-7.55-6.31-2.08Z"/>
      <path class="cls-1" d="M17.32,31.87l1.67-5.25-3.59-1.43-.71,6.18-1.51-6.9-8-4.17,2.82.49,1.46-4.8-6.83,2.93c-1.19,2.54-2.01,5.26-2.62,8.11l14.65,6.39c.81-.06,2.43-.81,2.67-1.54Z"/>
      <path class="cls-1" d="M55.97,11.38l-2.92-7.8-11.17-3.58L12.56,12.42l-2.82,8.34,15.66,6.62,30.57-16ZM23.32,18.03l-8.68-4.47,9.55,2.65,26.38-11.08-24.94,12.69-.6,7.87-1.72-7.65Z"/>
    </g>
  </g>
</svg>