<?xml version="1.0" encoding="UTF-8"?>
<svg id="Warstwa_2" data-name="Warstwa 2" xmlns="http://www.w3.org/2000/svg" viewBox="0 0 55.87 44.33">
  <defs>
    <style>
      .cls-1 {
        fill: #fff;
      }
    </style>
  </defs>
  <g id="icon-v10-loot-pixarts-store">
    <g id="icon-v10-loot-pixarts-store_177">
      <path class="cls-1" d="M28.71,29.91c4.51-2.74,8.53-5.87,11.77-10.04l4.59-5.89c1.75-2.25-.57-2.78,4.56-7.59-.34-.48-1.07-1.21-1.52-1.23-.38-.02-1.26.43-1.54.75-1.66,1.88-4.31,2.29-6.52,3.22-4.4,1.84-7.69,5.38-11.35,8.31-3.82,3.05-7.51,6.15-10.69,9.76-.07,4.23-8.73,9.35-7.12,11.1.29.31,1.29.28,1.71.02,1.73-1.09,3.66-1.62,5.94-2.36,3.87-1.25,6.86-4.03,10.17-6.05ZM23.26,31.28c-.11-.34,5.65-7.2,7.33-6.58-2,2.4-4.28,4.59-7.33,6.58ZM37.95,12.79l.03.77c-2.84,2.07-4.54,5.12-8.51,5.21l8.48-5.98ZM25.57,24.3c1.76-1.99,3.81-3.76,6.19-4.94,2.86-1.42,5.07-3.15,7.95-5.28-1.51,2.52-3.94,4.5-6.66,6.1-5.51,3.26-8.06,8.32-14.76,12.33l7.27-8.21Z"/>
      <path class="cls-1" d="M54.87,7.89c-3.48.75-1.6,2.24-6.52,3.05l-2.14,4.31,2.9-1.13-5.17,4.48c-3.78,3.28-6.37,7.78-10.72,10.57l-10.35,6.64c-1.24.79-1.36,2.01-2.03,3.06l-2.42,3.78c-.28.44.66,1.65,1.14,1.67,2.57.12,2.31-2.58,7.33-3.46,1.72-.3,2.97-1.69,4.24-2.85l4.63-4.24,7.79-7.14c2.49-2.29,4.56-4.78,6.63-7.45,1.49-1.92,2.13-3.92,1.63-6.29,1.3-1.03,3.22-2.56,4-3.76.23-.36-.58-1.33-.97-1.25ZM27.61,35.65l-2.63,1.96c1.21-2.09,2.34-3.26,4.08-4.53-.07,1.02-.69,1.99-1.46,2.57ZM36.53,30.1c-2.03,1.71-3.95,3.15-5.92,5.18-.61.63-1.24,1.04-2.05,1.26,1.79-3.56,6.9-6.27,9.86-9.75,1.56-2.02,3.21-3.81,5.52-5.09-2.27,3.07-4.57,6-7.41,8.4Z"/>
      <path class="cls-1" d="M19.88,23.13l12.35-10.22c5.3-4.39.84-2.91,8.25-5.47.55-.19,1.77-.36,1.79-.81l.09-1.73c.08-1.48,3.3-1.73,2.71-3.79-.14-.5-1.22-1.38-1.65-1.05l-3.27,2.45c-1.97.5-4.57,0-6.2,1.17-3.07,2.2-5.15,5.32-7.73,8.01-7.08,7.39-6.97,9.49-15.59,16.24-1.62,1.27-2.17,3.12-2.71,5.02l-2.1,2.96c-.13.43.85,1.37,1.33,1.32.41-.04,1.25-.36,1.61-.63,6.18-4.54,4.45-7.96,11.13-13.49ZM31.75,8.45c1.38-1.64,3.33-2.76,5.24-3.21-5.84,4.47-6.65,8.24-12.56,11.89l7.31-8.68Z"/>
      <path class="cls-1" d="M16.53,20.23c-3.48.38-5.13,2.95-8.32,2.89l10.45-5.57c.71-.38,1.72-1.81,2.26-2.51-2.34,1.41-4.98,3.02-7.82,3.66l-6.01,1.37c1.21-1.24,2.62-1.84,4.27-2.3,3.27-.9,13.15-4.75,14.35-8.28-7.61,2.41-10.62,5.4-17.69,7.74-2.42.8-3.63,2.49-4.99,4.44-.6.86-2.69,1.82-3.02,2.97-.14.48.39,1.52.82,1.68,2.25.86,1.44-.94,5.25-.35,5.09.79,7.6-1.81,10.43-5.75Z"/>
    </g>
  </g>
</svg>