<?xml version="1.0" encoding="UTF-8"?>
<svg id="Warstwa_2" data-name="Warstwa 2" xmlns="http://www.w3.org/2000/svg" viewBox="0 0 50.82 46.76">
  <defs>
    <style>
      .cls-1 {
        fill: #fff;
      }
    </style>
  </defs>
  <g id="icon-v10-loot-pixarts-store">
    <g id="icon-v10-loot-pixarts-store_85">
      <path class="cls-1" d="M1.89,27.2l9.98-.05c-.37-3.33-.42-6.49.61-9.64l13.18-.11.75,5.84,1.8.58c-1.1.56-1.73.66-1.91,1.13-.22.56.13,2.04.73,2.04l10.37-.08c.5-3.34.26-6.17,0-9.55l10.7-.08-.85-3.34c-.79.23-1.87.47-2.22.16l-.03-2.95c0-.24.98-.33,1.13-.14l.74.87.78-3.55c.58-2.63.44-5.31.2-8.29l-10.73-.02c-2.5,0-5.1-.07-7.49.48-.59.14-1.5.83-2.04.53-1.49-.84-2.53-.54-3.74.67l-3.38-1.5-13.89.36c-.36,1.01-.72,1.72-1.05,2.19-.59-.98-.93-1.65-1.31-2.03-.38-.38-1.86-.21-2.25-.07.11,1.84.3,3.58.29,5.3l-.05,7.7c0,.71.08,1.71.03,2.27l-.28,3.18C1,19.86-.1,20.67,0,22.22c.12,1.72.94,3.54,1.88,4.98ZM36.79,25.56c-1.59.83-2.62.42-5.04-.02.61-1.41,6.27-.61,5.04.02ZM40.8,4.08c1.6,0,2.9,1.3,2.9,2.9s-1.3,2.9-2.9,2.9-2.9-1.3-2.9-2.9,1.3-2.9,2.9-2.9ZM38,2.91l-1.84.62c-.16.32-.35,1.12-.61,1.47-.25.34-1.39.43-1.81.34l-2.12-.48c1.32-1.31,5.06-4.38,6.37-1.95ZM19.83,14.29l.43-1.77c1.17-.37,1.65-.6,2.88-1.48l1.54,2.8c.2.37.6.98.65,1.32.05.4-1.07.51-1.48.49l-1.4-.06c-.32-.01-.57-.81-.88-1.4l-2.06,1.16c-.82.46-2.21.23-2.54-.87.51-.51,1.84-.41,2.87-.18ZM9.47,4.3c1.59,0,2.88,1.29,2.88,2.88s-1.29,2.88-2.88,2.88-2.88-1.29-2.88-2.88,1.29-2.88,2.88-2.88ZM1.54,22.37c.18-.47,1.61-1.1,1.63-.65l.08,2.36c-.12.3-1.11.09-1.37-.18-.37-.39-.5-1.12-.34-1.52Z"/>
      <path class="cls-1" d="M2.73,46.41c4.17.04,7.98,1.08,10.95-.62.22-.13.75.77,1.07.76l7.56-.18,11.4-.26c.79-1.02,1.52-1.73,2.56-2.45.9,2.33,2.1,2.54,3.98,2.53l8.54-.02-.27-5.15c-.08-1.47-.03-2.97-.01-4.48l.04-3.57c0-.1-.67-.29-.76-.34-.08-.05-.12-.17-.03-.22l.73-.38.12-4.67c1.89-.32,2.31-2.08,2.04-3.56-.39.29-.9.76-1.13.54-.18-.18-.39-1.05-.14-1.08l1.25-.14c.51-.87-.02-2.78-.98-3.68l-10.67-.02c.31,3.46.53,6.48-.4,9.7l-13.6-.03-.39-9.42-10.69-.07-.19.59c-.31.93,4.94.26,5.58.94-.98.71-4.65,1.24-5.62.31-.21.37-.53,1.5-.49,2.18l.3,5.48c-2.94-.13-5.84,4.25-6.28,3.49l-.97-1.65-2.08.85.36,2.31c-.37.34-1.19.86-1.05,1.19l.6,1.41-1.52,1.26.2,8.44ZM41.37,36.54c1.61,0,2.92,1.31,2.92,2.92s-1.31,2.92-2.92,2.92-2.92-1.31-2.92-2.92,1.31-2.92,2.92-2.92ZM29.33,31.77l1.36.65c.34-.67.61-1.4.93-1.65.37-.3,1.49-.04,2.06.06l1.77.29c.45.07.71,1.01.78,1.76l-2.52-.59c-.43-.1-.85,1.21-.59,1.63.71,1.16-.35,2.97-1.68,2.98-.39,0-1.1-.9-.96-1.2l.6-1.31c0-.08-.22-.53-.36-.46l-.82.42c-.43.22-1.35-.37-1.52-.82-.2-.52.46-1.98.94-1.75ZM17.35,41.18c.53-.31,1.7-.17,2.24.19-.65,1.32-1.91,1.94-3.38,1.26.18-.48.71-1.2,1.14-1.45ZM13.62,44.03c1.15-.21,2.27-.85,3.03.8l-3.21-.12-.53-.02c-.12,0-.22-.49-.1-.51l.81-.15ZM10.07,36.67c1.6,0,2.9,1.3,2.9,2.9s-1.3,2.9-2.9,2.9-2.9-1.3-2.9-2.9,1.3-2.9,2.9-2.9Z"/>
    </g>
  </g>
</svg>