<?xml version="1.0" encoding="UTF-8"?>
<svg id="Warstwa_2" data-name="Warstwa 2" xmlns="http://www.w3.org/2000/svg" viewBox="0 0 56.08 57.14">
  <defs>
    <style>
      .cls-1 {
        fill: #fff;
      }
    </style>
  </defs>
  <g id="icon-v10-loot-pixarts-store">
    <g id="icon-v10-loot-pixarts-store_166">
      <path class="cls-1" d="M14.87,44.02c.03-.76-.9-1.76-1.77-2.15L1.35,52.51c-.58.52-1.8,1.37-1.17,2.29.68,1.01,1.71,1.76,2.95,2.34,4.41-4.32,8.2-8.35,11.74-13.12Z"/>
      <path class="cls-1" d="M13.32,39.64c1.61,1.1,3.03,2.69,4.21,4.28l-1.46,1.47c.72,1.4,2.28,2.83,4.08,1.57l-1.91-2.43s.43-.66.64-.99c-.76-2.33-2.73-4.86-5.46-5.51-.41-.1-.49,1.34-.1,1.61Z"/>
      <path class="cls-1" d="M20.63,21.47c-1.16.19-2.1,1.83-2.22,3.03-1.31.5-2.63,1.1-3.19,2.42-.26.6,1.09,2.24,1.63,1.89,1.89-1.21.99-3.14,3.54-3.38l1.36-2.22c.18-.3.27-1.01.07-1.27-.16-.21-.9-.53-1.18-.48Z"/>
      <path class="cls-1" d="M26.66,26.17c-.56.19-1.28,1.1-1.39,1.64-.29,1.39,2.21,3.59,3.04,3.27.72-.28,1.56-1.1,1.74-1.68.41-1.33-2.12-3.67-3.38-3.24Z"/>
      <path class="cls-1" d="M31.53,21.36c-.31,1.4,1.87,3.63,3.18,3.33.58-.13,1.65-1.26,1.56-1.85-.22-1.55-1.43-2.46-2.76-2.76-.64-.15-1.85.69-1.98,1.28Z"/>
      <path class="cls-1" d="M22.61,30.09c-.79.98-.54,2.01.49,2.98.53.51,1.4,1.29,1.96,1.12.71-.21,1.59-1.02,1.75-1.58.2-.69-.5-1.72-1.09-2.26-1.2-1.1-2.25-1.33-3.11-.26Z"/>
      <path class="cls-1" d="M28.5,24.65c-.18,1.24,2.12,3.51,3.02,3.22.54-.17,1.37-.94,1.59-1.41.59-1.23-2.01-3.53-2.94-3.41-.64.08-1.59,1.02-1.68,1.6Z"/>
      <path class="cls-1" d="M50.14,7.85l4.22-4.53c.84-.9,1.54-1.95,1.72-3.32l-7.45,6.28,1.51,1.57Z"/>
      <path class="cls-1" d="M19.18,34.25c-.03.55.62,1.46,1.08,1.94.94.98,1.89,1.36,2.86.48.73-.66.83-1.72-.07-2.78-.56-.66-1.59-1.29-2.21-1.26-.71.03-1.62.93-1.66,1.63Z"/>
      <path class="cls-1" d="M36.15,17.19c-.53.16-1.65,1.15-1.48,1.69.3.94,1.41,2.11,2.36,2.49.54.21,1.69-.53,1.93-1.05.26-.56-.03-1.69-.52-2.27-.59-.7-1.61-1.07-2.28-.86Z"/>
      <path class="cls-1" d="M30.94,30.43c-.86.32-2.16,1.49-2.03,1.99.07.27.34.81.51,1.1.76,1.28,2.02,1.56,3.04.61.78-.74.79-1.93-.06-2.9-.3-.34-1.08-.95-1.46-.81Z"/>
      <path class="cls-1" d="M16.48,37.11c.09.51.61,1.27,1.06,1.79.86,1.01,1.75,1.35,2.65.61.83-.68.86-1.67-.03-2.7-.52-.6-1.33-1.26-2.11-1.46-.57-.15-1.67,1.18-1.58,1.76Z"/>
      <path class="cls-1" d="M28.14,33.53c-.99-.14-2.33,1.31-2.25,2.26.07.8,1.23,2.07,2.06,2.08,1.1.01,2.05-1.17,1.98-2.05-.06-.76-1.05-2.19-1.8-2.29Z"/>
      <path class="cls-1" d="M24.85,36.67c-.81.3-2.19,1.1-2.22,2.01-.03.97.97,1.85,1.81,2.54.89-.27,2.01-.83,2.12-1.47.23-1.37-.68-2.33-1.71-3.07Z"/>
      <path class="cls-1" d="M33.74,27.32c-.61.44-1.4,1.26-1.95,1.89l2.06,2.61c1.04-.46,1.78-.81,2.13-1.41.3-.51-.04-1.66-.41-2.28-.24-.4-1.43-1.1-1.83-.82Z"/>
      <path class="cls-1" d="M38.99,14.53c-.44.15-1.28.93-1.3,1.38-.04.79,1.76,2.65,2.86,2.59.53-.03,1.41-1.23,1.32-1.81-.25-1.65-1.63-2.59-2.89-2.16Z"/>
      <path class="cls-1" d="M23.76,23.19c-.84.03-1.99,1.25-1.88,2.28.08.71,1.13,1.49,2.07,2.02l2.14-2.22c-.13-.91-1.35-2.11-2.32-2.08Z"/>
      <path class="cls-1" d="M37.34,24.15c-.7-.24-2.14,1.16-2.08,1.9.06.81.96,2.17,1.63,2.33.93.22,2.14-.99,2.17-1.75.03-.84-.73-2.14-1.72-2.49Z"/>
      <path class="cls-1" d="M27.37,24.36l2.05-2.19c-.69-.83-1.48-1.62-2.16-1.82-.87-.25-2.17.51-2.23,1.52-.06,1.07,1.39,2.31,2.33,2.49Z"/>
      <path class="cls-1" d="M20.43,26.52c-.98.11-1.74,1.37-1.64,2.3.07.71,1.33,1.82,2.21,1.63.64-.14,1.66-1.52,1.67-2.17.01-1-1.49-1.84-2.25-1.76Z"/>
      <path class="cls-1" d="M30.39,21.25l2.12-2.12c-.2-.98-1.36-1.89-2.28-1.86-.87.03-1.94,1.02-1.84,2.05.08.79,1.32,1.93,2.01,1.94Z"/>
      <path class="cls-1" d="M17.61,29.71c-.84-.2-1.74.89-1.93,1.74-.16.69.61,1.7,1.63,2.21.65.32,1.93-.92,2.12-1.71.19-.79-.77-1.99-1.82-2.24Z"/>
      <path class="cls-1" d="M41.73,23.06c-.01-.7-.73-1.8-1.71-1.99-.66-.13-1.77,1.07-1.89,1.74-.12.63.66,1.83,1.51,2.15,1.12.42,2.1-1.04,2.08-1.9Z"/>
      <path class="cls-1" d="M33.41,14.6c-.76-.03-1.98.8-1.77,1.84.13.63,1.26,1.41,2,1.9l2.13-2.18c-.26-.83-1.45-1.53-2.37-1.57Z"/>
      <path class="cls-1" d="M20.99,43.57c.54.25,1.91-.26,2.15-1.14.26-.92-.69-2.31-1.52-2.44-.63-.1-1.92.91-2.09,1.68-.15.65.88,1.65,1.46,1.91Z"/>
      <path class="cls-1" d="M42.77,17.93c-.69.17-1.77,1.14-1.84,1.71-.09.7,1.02,2.18,1.7,2.16,1.31-.05,1.88-1.42,1.7-2.21-.14-.61-.96-1.8-1.56-1.66Z"/>
      <path class="cls-1" d="M40.72,13.41c.18.83,1.44,2.06,2.22,2.17.81.11,1.68-1.42,1.48-2.1-.18-.63-1.18-1.46-1.96-1.63-.63-.14-1.87.93-1.74,1.57Z"/>
      <path class="cls-1" d="M24.37,45.92c.03-.49-.8-1.45-1.23-1.59l-3.23.58c.34.66.91,1.65,1.46,2.17,1.13,1.07,2.95-.12,3.01-1.16Z"/>
      <path class="cls-1" d="M32.11,38.52c.98.12,2.55-1.39,2.39-2.7-.04-.31-.71-.91-1.01-.88-.87.08-2.42,1-2.79,2.06-.17.48.89,1.46,1.42,1.53Z"/>
      <path class="cls-1" d="M13.75,33.11c-.84.57-.88,1.89-.52,2.64.27.58,1.55,1.4,2.06.89.88-.86,1.31-2.15.68-2.78-.51-.51-1.61-1.18-2.22-.76Z"/>
      <path class="cls-1" d="M28.82,41.86c.47.11,1.2-.3,1.91-.96.41-.39.44-1.67.12-2.08-.31-.39-1.3-.45-1.93-.18-.73.31-1.4,1.01-1.54,1.71-.1.54.82,1.37,1.44,1.52Z"/>
      <path class="cls-1" d="M14.76,28.46c-.44-.28-1.4.17-1.93.67-.48.46-.98,1.51-.8,2.05.15.44,1.02,1.04,1.5.99.47-.05,1.02-.78,1.48-1.47.6-.9.55-1.73-.26-2.24Z"/>
      <path class="cls-1" d="M35.23,34.94c.54.34,1.59-.2,2.09-1,.66-1.05.29-2.24-.87-2.46l-2.15,1.61c-.46.34.43,1.52.93,1.84Z"/>
      <path class="cls-1" d="M25.27,44.84c.39.13,1.31-.16,1.83-.55.76-.56.8-1.54.34-2.18-.28-.4-1.19-.49-1.78-.2-.66.32-1.4.87-1.4,1.35,0,.52.55,1.44,1.01,1.58Z"/>
      <path class="cls-1" d="M10.49,32.24c-.5.44-1.03,1.96-.85,2.61.18.65,1.15,1.36,1.99,1.42l.54-2.41c.08-.37-.24-1.23-.48-1.48-.2-.21-.97-.34-1.2-.14Z"/>
      <path class="cls-1" d="M24.56,18.66c-1.2-.63-2.96,1.25-2.74,2.03.13.47,1.37,1.66,1.69,1.29l1.66-1.87c.28-.32-.24-1.26-.61-1.45Z"/>
      <path class="cls-1" d="M34.86,13.53c-.02.61,1.32,1.75,1.89,1.54.61-.23,1.33-.92,1.99-1.56-.63-.8-1.29-1.33-2.09-1.49-.6-.12-1.76.82-1.79,1.51Z"/>
      <path class="cls-1" d="M38.71,31.85c.65-.07,1.55-1.1,1.7-1.69.16-.63-.23-1.67-.78-2.1-.8.36-1.93,1.34-2.25,2.07-.21.47.8,1.78,1.33,1.72Z"/>
      <path class="cls-1" d="M30.9,12.79c-.41,0-1.15.41-1.63.74-.62.43-.99,1.32-.68,1.9.28.53,1.21.95,1.63.47l1.93-2.25c-.1-.19-.84-.87-1.25-.86Z"/>
      <path class="cls-1" d="M44.36,25.3c1.31-.66,1.99-2.53.64-3.55-.66.3-1.74.96-2.18,1.65-.34.54.97,2.19,1.54,1.9Z"/>
      <path class="cls-1" d="M42.01,28.67l.9-1.22c.23-.31.26-1.26.16-1.63-.1-.37-1.04-.89-1.37-.66-.46.33-1.19.92-1.41,1.28-.32.53,1.29,2.81,1.71,2.23Z"/>
      <path class="cls-1" d="M26.97,19.21c.46-.85,1.09-1.86,1.25-2.54.23-1-1.58-1.11-2.05-.68-.4.36-1.04,1.35-.77,1.86.24.46,1.11,1.12,1.58,1.36Z"/>
      <path class="cls-1" d="M11.7,41.01c1.29.6.82-2.43-1.74-4.28-1.05,1.85.4,3.65,1.74,4.28Z"/>
      <path class="cls-1" d="M45.13,12.96c.37.37,1.37-.91,1.43-1.45.05-.54-.71-1.48-1.38-1.67-.52-.15-1.27.58-1.95,1.23l1.9,1.9Z"/>
      <path class="cls-1" d="M45.41,15.29c-.5-.2-1.81.83-1.71,1.36.13.66,1.11,1.89,1.72,1.86.49-.02,1.13-1.12,1.12-1.6-.01-.48-.56-1.39-1.13-1.62Z"/>
      <path class="cls-1" d="M33.28,10.53c-.55.35-1.19.91-1.16,1.3.02.4.64,1.15,1.02,1.27.53.16,2.89-1.65,2.01-2.35-.49-.39-1.45-.5-1.86-.23Z"/>
      <path class="cls-1" d="M39.69,9.88c-.41,0-1.3.68-1.57,1.06-.24.33.4,1.03.8,1.41.29.28,1.02.15,1.51-.24.45-.35.97-1.23.68-1.54-.24-.25-1.08-.7-1.43-.7Z"/>
      <path class="cls-1" d="M47.11,18.72c-.49.07-1.25.81-1.52,1.27-.36.61.32,1.9.93,1.76,1.67-.37,1.46-2.31.58-3.03Z"/>
      <path class="cls-1" d="M47.1,15.57c.4.25,1.08-.81,1.2-1.26.12-.45-.46-1.52-.99-1.51-.42,0-1.26.85-1.23,1.26.03.42.59,1.24,1.03,1.51Z"/>
      <path class="cls-1" d="M35.57,9.81c.1.32.74.96,1.08.88.27-.06.97-.41,1.21-.7l.83-1c-1.31-1.21-2.71-.14-3.12.82Z"/>
      <path class="cls-1" d="M47.42,7.89c-.55.19-1.39,1.19-1.17,1.62.27.51,1.32,1.25,1.6.79.42-.69.77-1.43.67-1.79-.08-.3-.83-.72-1.11-.62Z"/>
      <path class="cls-1" d="M42.42,8.09c-.41.05-1.15.69-1.21,1.12-.06.49,1.03,1.3,1.44,1.08.35-.19,1.09-.83,1.26-1.22.19-.44-1.02-1.04-1.49-.98Z"/>
      <path class="cls-1" d="M44.17,7.45c-.11.59,1.13,1.22,1.59.85.38-.3.95-1.07.91-1.42-.69-.57-2.34-.27-2.5.57Z"/>
      <path class="cls-1" d="M48.3,18.49c.66-.13,1.43-1.37.81-2.2-.38-.5-1.44.18-1.54.67-.11.55.25,1.62.73,1.52Z"/>
      <path class="cls-1" d="M49.11,10.26c-.46.07-1.28.84-1.29,1.25,0,.36.62,1.05,1.03,1.18.4.13.94-.77.97-1.19.02-.35-.36-1.3-.71-1.25Z"/>
    </g>
  </g>
</svg>