<?xml version="1.0" encoding="UTF-8"?>
<svg id="Warstwa_2" data-name="Warstwa 2" xmlns="http://www.w3.org/2000/svg" viewBox="0 0 52.9 55.58">
  <defs>
    <style>
      .cls-1 {
        fill: #fff;
      }
    </style>
  </defs>
  <g id="icon-v10-loot-pixarts-store">
    <g id="icon-v10-loot-pixarts-store_102">
      <path class="cls-1" d="M50.03,13.74l.37-2.67,2.5-3.54-7.83,2.74-1.39,3.05-1.46-2.04c-3.71,1.2-6.97,1.51-10.74,1.05l.8,7.58c-1.56-3.25-2.17-6.65-2.99-10.23-1.17-5.12-5.09-3.95-9.64-3.7l-2.55,2.97-.75-2.26-9.44,3.9c-1.39.57-4.49-1.32-5.3,1.3-.23,1.17.51,3.44,1.04,4.67,1.68-1,4.2-2.16,5.84-.64,1.33,1.23,1.86,3.61,2.58,5.32,1.63,3.9,1.99,7.92.99,12.1-2.12-.58-4.18-.37-5.65,1.12l.92,4.49c1.81-1.16,3.77-.76,5.42-1.52l8.08-3.68,1.28-2.4,2.28,1.68c2.7-.76,5.3-.58,8.14-.17-.88-4.16-1.92-7.88-1.84-11.7l3.22,11.41c.92,3.25-2.98,3.04-4.45,6.2,4.4.64,8.71.47,12.79-1l.65-2.99,2.67,2.15c2.49-1.12,4.66-1.8,7.13-2.16-3.5-3.17-1.49,0-3.91-3.96-1.19-1.94-3.4-1.36-5.55-2.27,1.63-.86,3.11-1.52,4.81-2.19-.56-2.09.95-3.69,2.83-4.39-.63-1.94-.86-3.24-.86-5.53l-5.76,1.35c.9-2.37,3.36-3.3,5.76-4.04ZM13.23,13.21c-.66.5-1.84.12-2.97-.23l1.66-1.55c.61-.57,2.09-.72,2.83-.29-.44.85-1.03,1.71-1.52,2.08ZM23.79,29.43c-.07-.78.36-2.41,1.21-2.63,1.09-.28,1.9-.03,3.16,1.34l-4.37,1.29ZM45.27,21.3c-.61.78-1.54,1.52-2.16,2.21-1.19,1.31-1.79,1.77-3.86,1.31l-3.27-.74c4.53-2.1,2.45-4.29,9.3-2.78Z"/>
      <path class="cls-1" d="M13.51,44.3l-1.24-5.31c-1.07-.16-2.44.13-3.72.73.77,4.67,1.68,8.92,2.87,13.18,3.89-2.68-1.42-5.07.29-7.78,1.77,3.74,1.43,7.34,4.12,10.46.14-.47.29-1.3.19-1.68l-2.51-9.59Z"/>
      <path class="cls-1" d="M10.72,31.88l-3.52-15.36c-1.15-.2-2.8.09-3.29.77-1.05,1.48,1.4,2.4,1.36,3.27-.08,1.47-.34,2.86.05,4.3.71,2.56,1.22,5.23,1.68,7.59,1.58-.34,2.45-.47,3.72-.58ZM5.89,21.09c1.48.59,1.36,1.96,1.34,3.29l-.04,3.49c-.5-.89-.67-1.77-.6-2.85l-.69-3.94Z"/>
      <path class="cls-1" d="M1.63,9.86c1.45-.38,2.87-.59,4.36-.74-.3-.43-.94-1.22-.74-1.55l.79-1.29c.32-.51-.77-1.61-1.17-2.11L1.46,0,.04,6.67c-.37,1.71,2.03,1.3,1.59,3.19Z"/>
      <path class="cls-1" d="M32.02,34.2c-1.85-.37-2.54-.41-4.34-.54l.68,3.74,3.66-3.2Z"/>
    </g>
  </g>
</svg>