<?xml version="1.0" encoding="UTF-8"?>
<svg id="Warstwa_2" data-name="Warstwa 2" xmlns="http://www.w3.org/2000/svg" viewBox="0 0 55.9 53.86">
  <defs>
    <style>
      .cls-1 {
        fill: #fff;
      }
    </style>
  </defs>
  <g id="icon-v10-loot-pixarts-store">
    <g id="icon-v10-loot-pixarts-store_150">
      <path class="cls-1" d="M3.92,35.06c-1.02.39-1.04,2.67-.25,3.18,1.15-.53,1.14-2.65.25-3.18Z"/>
      <path class="cls-1" d="M49.72,3.25c-1.17,1.56-2.18,2.72-4.07,2.58,2.86,8.63-.18,6.97-2.22,15.17-1.62,6.49-4.48,13.57-10.43,17.19l-9.7,5.9c-2,1.22-3.78,2.76-5.53,4.22,1.29,1.13,1.19,2.53.85,4.3,7.69,1.97,11.01,1.71,18.18-1.48,11.54-5.13,19.08-16.26,19.12-28.96.02-8.96-6.86-7.34-6.19-18.92ZM25.38,48.4c10.42-4.9,20.56-11.38,22.81-24.8l.97-5.8c1.36,15.2-8.09,27.01-23.78,30.6Z"/>
      <path class="cls-1" d="M20.37,43.58l10.56-6.37c5.59-3.37,8.92-9.18,10.36-15.45,2.06-8.98,6.17-8.82,2.35-16.22-.12,2.33.98,4.95-.73,6.67l-3.92,3.95-5.34,6.57c-3.72,4.57-8.92,7.5-14.77,8.59-4.63.87-9.08,1.93-13.47,3.35.25,1.73-.18,2.91-.8,4.56,5.84,3.96,8.98,4.59,15.75,4.36ZM29.1,32.53c3.69-1.92,6.28-4.77,9.03-7.93-3.7,9.76-18.65,15.16-28.21,12.54,6.7-.3,13.18-1.49,19.18-4.61Z"/>
      <path class="cls-1" d="M18.72,29.36c11.12-1.68,15.5-11.04,18.56-13.84l4.51-4.13c1.44-1.32.92-4.12.72-5.96-1.73,7.79-1.68,3.53-9.56,10.45-5.29,4.64-11.9,7-18.95,6.23-4.45-.49-8.68-.47-13.04-.19l-.96,2.6c9.17,9.59,9.5,6.24,18.72,4.85Z"/>
      <path class="cls-1" d="M42.37,2.54c.86.71,2.03,1.48,3.09,1.63,1.62.22,2.57-.8,3.56-1.94l-4.18-2.22c-.96.24-2.31,1.62-2.47,2.54Z"/>
      <path class="cls-1" d="M16.46,48.97c-.57-.09-.17,2.68,1,3.45.43-1.64.35-2.03.21-3.26l-1.21-.18Z"/>
    </g>
  </g>
</svg>