<?xml version="1.0" encoding="UTF-8"?>
<svg id="Warstwa_2" data-name="Warstwa 2" xmlns="http://www.w3.org/2000/svg" viewBox="0 0 58.39 45.11">
  <defs>
    <style>
      .cls-1 {
        fill: #fff;
      }
    </style>
  </defs>
  <g id="icon-v10-loot-pixarts-store">
    <g id="icon-v10-loot-pixarts-store_24">
      <path class="cls-1" d="M4.06,21.8c1.34,1.55,3.09,3.48,3.16,5.44l.12,3.36c-1.87-2.34.94-2.94-3.36-6.39-.37,1.31-1.21,2.97-1.05,4.39.46,3.18,3.36,7.5,6.61,7.33l6.55-.35c1.76-.09,3.26.62,4.76,1.34l-3.71.13c5.9,3.6,18.63,6.57,25.41,7.85,2.11.4,5.17.28,6.8-.92,1.45-1.07,2.24-2.64,3.56-3.75l-.13,1.99c1.52,0,4.61-1.52,3.95-3.43-1.94-5.66,2.38-8.96.36-8.51-.26.06-.48.21-.84.58l-1.06,1.07c-.23.24-.95-.39-1.39-.64l-.84,1.38c-.2.32-1.22.82-1.49.55l-1.19-1.2c-.72,1.18-1.43,2.47-2.71,2.71-1.62.3-2.27-2.98-2.75-2.47l-.64.68c-.38.4-1.26,1.14-1.75,1.04-1.39-.29-2.03-2.49-2.39-2.24l-1.02.73c-.45.32-1.5,1-1.97.78-.4-.19-.91-.86-1.27-1.33l-.81-1.06c-.34-.45-2.47,2.04-5.08,1.08-.89-.33-1.72-1.82-2.68-2.31-.78-.4-2.8.43-3.77-.3-.65-.49-1.2-1.37-2.15-2.44,0,1.72.82,2.94,1.63,4.3-2.38-.81-2.4-3.27-3.22-5.06-3.39-7.49-1.36-8.66-2.01-16.25-.05-.64-1.18-1.76-1.72-1.58-1.99.67-1.75,4.87-4.42,6.32-2.99-.48-4.59-3.29-5.63-5.98-.67-.36-1.7.51-2.24,1.21-.3-2.97,3.52-2.01,3.23-4.09-.08-.56-.76-.92-1.72-1.14C3.09,4.12-1.03,7.09.24,9.51c2.03,3.89,4.31,7.71,3.82,12.29ZM48.55,35.82l-1.29,2.42-1.13-2.35,2.42-.07ZM38.93,38.82c.34,0,.58-.46,1.09-.95.34-.05,1.09.9,1.17,1.36.07.46-1.15,1.14-1.58.92l-2.62-1.31,1.94-.02ZM15.09,19.85c.99,3.64,1.54,6.62,3.71,9.81-3.97-.55-3.97-6.99-3.71-9.81Z"/>
      <path class="cls-1" d="M26.75,21.06l3.33,2.99c2.34.06,4.4,1.35,6.29,1.84l4.58,1.17c1.33.34,2.89-1.3,4.35.96l1.57-3.22c.11-.23-.16-1.18-.38-1.19-1.45-.07-4.11,1.92-5.86-1.61-1.05.05-2.69-.05-3.38-.66-.53-.47-.98-1.68-1.42-2.58-2.35-.57-4.32-2.74-3.69-5.33l.89-3.64c.26,2.05-.82,8.15,3.05,7.54-.62-1.84-1.48-3.68-1.23-5.43l.93-6.44c.16-1.1-.95-2.4-2.1-2.66-.78,1.57-1.36,4.05-2.92,4.56-2.94.22-4.25-3.81-3.45-5.99.11-.28-.17-1.31-.44-1.32L25.52,0c-1.6-.05-3.92,2.83-2.85,4.45,6.31,9.56-1.04,12.01,4.08,16.61Z"/>
      <path class="cls-1" d="M28.97,25.87c-1.02,1.51-.51,4.21,1.43,4.99,1.21.49,2.79-.31,3.41-1.1.68-.87.96-2.13.96-3.37l-2.55-.89c-.86-.3-2.65-.52-3.24.37Z"/>
      <path class="cls-1" d="M45.92,29.66c-.5,1.11.51,3.59,1.79,3.93,1.61-1.25,1.96-3.4,2.09-5.11l-1.57-3.94-2.31,5.11Z"/>
      <path class="cls-1" d="M23.32,23.92c-.64.76-1.12,3.9.99,4.75.74.3,2.51-.18,2.87-1.22l1.01-2.95-2.94-.93c-.49-.15-1.63,0-1.93.35Z"/>
      <path class="cls-1" d="M41.73,21.32c.36,1.26,1.5,2.05,3.15,1.52.98-.32,1.83-1.74,2.02-3.11l-2.85-1.06c-1.49-.55-2.65,1.51-2.32,2.65Z"/>
      <path class="cls-1" d="M38.1,20.63c.59.41,2.15.51,2.4-.17.46-1.28.82-1.61,2.12-2.43l-2.93-1.54c-.87-.46-2.44.37-2.6,1.32-.16.98.09,2.19,1,2.82Z"/>
      <path class="cls-1" d="M36.11,28.42c.02,1.34.33,2.71,1.3,3.61.87-.14,2.11-1.53,2.29-2.33.26-1.11-.44-2.24-1.35-2.5-.68-.19-2.26.49-2.25,1.22Z"/>
      <path class="cls-1" d="M41.04,29.26c.12,1.6.56,2.57,1.46,3.96l2.14-2.79c.09-1.11-.47-2.32-1.47-2.56-.66-.16-2.19.62-2.13,1.39Z"/>
      <path class="cls-1" d="M50.93,27.94c-.24,1.51.15,3.06.96,4.53,1.29-1.81,1.75-3.68,1.62-5.67-1.45-.33-2.4.08-2.58,1.14Z"/>
      <path class="cls-1" d="M57.07,29.01c1.7-2.14,1.66-5.09.45-7.49l-1.27,2.81c.3.31.96,1.1.95,1.44l-.13,3.24Z"/>
      <path class="cls-1" d="M47.46,23.07c.99.44,2.02.72,2.25.3.21-.38.5-1.33.51-1.91,0-.96-1.56-.96-2.31-.65-.69.28-1.18,1.94-.45,2.26Z"/>
      <path class="cls-1" d="M54.75,26.32c-.58,1.51-.81,3.04.36,4.43.62-1.44,1.02-3.03,1.25-4.85-.25-.4-1.45,0-1.61.41Z"/>
      <path class="cls-1" d="M51.55,24.94c1.77-.28,2.04-2.72.54-3.21-.53-.17-1.31.73-1.45,1.24-.15.55.3,2.07.91,1.98Z"/>
      <path class="cls-1" d="M55.45,22.86c-.66-.4-1.6.16-1.68.68l-.3,2.01c1.19-.48,1.88-1.38,1.98-2.69Z"/>
    </g>
  </g>
</svg>