<?xml version="1.0" encoding="UTF-8"?>
<svg id="Warstwa_2" data-name="Warstwa 2" xmlns="http://www.w3.org/2000/svg" viewBox="0 0 57.56 58.34">
  <defs>
    <style>
      .cls-1 {
        fill: #fff;
      }
    </style>
  </defs>
  <g id="icon-v10-loot-pixarts-store">
    <g id="icon-v10-loot-pixarts-store_194">
      <path class="cls-1" d="M5.77,40l-1.33,2.34c8.45,13.24,26.2,16.45,38.63,6.67l.96-3.71,2.69.05c8.58-9.21,9.48-22.48,2.84-32.76l-2.46.07,1.15-2.27C41.18,1.19,29.13-2.51,18.38,1.78l-1.08,3.96-2.22-2.53C2.1,10.22-3.98,26.16,2.8,39.47l2.97.54ZM20.79,42.8l-2.42-2.64c-2.32-2.52.11-7.07.55-6.86l.58.28c5.4-5.73,11.6,3.25,12.72,2.3.27-.22.65-.98.73-1.4.45-2.26-1.55-4.1-3.38-4.73l.04,1.79-3.75-4.19-.77,1.9-1.36-3.01c-1.44-1.26-3.9-.4-4.43,1.42l-.71,2.44-1.67-1.42c-.33-.28-1.49.15-1.78.52-1.48,1.88-1.04,4.11-.91,6.47-2.5-4.49-2.68-9.79.16-14.69,2.05-3.53,6.18-7.03,11.06-7.42-1.64,1.19-3.04,2.42-3.43,3.95-.53,2.12-.21,4.13,1.88,5.42l1.67-3.61-1.02-.61c.88-.86,2.07-1.45,3.59-1.98l-.88-1.03,4.33.28c-.62-1.38-1.13-3.05-.84-4.46.95,1.73,1.73,2.99,3.08,4.14l.54-2.64c.77,1.83,1.49,3.23,2.95,4.58,2.16,2.02-.03,2.85,3.6,4.66.54.45-.23,2.23-.93,2.86-1.23-1.48-2.14-2.58-4.34-3.24l.91,2.82,1.59.18c-.2.35-.74,1.05-1.13,1.15-.46.12-1.51-.15-1.8-.35.89-2.86-2.78-2.64-2.91-3.24l-.21-.97-.48-.29c-.11-.06-.12-.23,0-.26l1.04-.27c-.54-.53-1.89-.77-2.46-.34-.87.66-1.41,2.09-.89,3.18,1.91,4.01,10.27,2.77,10.34,12.57l-1-1.12c-.34,1.41-.66,2.79-1.36,3.9-3.17,5.01-9.4,6.48-14.57,4.23-.66.36-1.44.25-1.92-.26ZM37.67,42.48c-.41.8-1.6,1.4-2.71,1.42l2.78-3.92c.18.75.22,1.94-.07,2.49ZM48.08,26.11c1.66,10.58-5.74,20.73-16.37,22.64-2.01.36-3.65.61-5.98.21,12.35-.47,22.45-9.55,22.35-22.85ZM7.53,20.56c2.42-6.94,8.14-11.9,14.64-13.43,7.53-1.77,15.37.22,20.13,6.08-2.67-1.55-4.91-3.26-8.07-4.07-8.93-2.29-17.82,1.42-22.64,8.72-5.07,7.68-4.39,16.85.87,24.49-6.2-5.48-7.51-14.41-4.94-21.79Z"/>
      <path class="cls-1" d="M48.24,46.39c-9.28,10.46-23.44,13.01-35.88,6.08,6.94,5.97,17.01,7.29,25.41,4.38.83-.29,1.32-2.01,2.7-.8,7.92-3.65,13.88-10.83,15.94-18.51,2.48-9.26,1-18.84-5.12-25.77,6.67,11.35,5.52,24.97-3.05,34.63Z"/>
      <path class="cls-1" d="M33.54,37.05c-3.96,2.42-5.17-2.75-5.66-1l-.21.75c-1.45-1.9-3.53-3.43-5.87-2-1.46.9-1.3,3.21-.01,4.32,3.75,3.26,11.03,1.93,11.75-2.08Z"/>
    </g>
  </g>
</svg>