<?xml version="1.0" encoding="UTF-8"?>
<svg id="Warstwa_2" data-name="Warstwa 2" xmlns="http://www.w3.org/2000/svg" viewBox="0 0 47.88 62.33">
  <defs>
    <style>
      .cls-1 {
        fill: #fff;
      }
    </style>
  </defs>
  <g id="icon-v10-loot-pixarts-store">
    <g id="icon-v10-loot-pixarts-store_290">
      <path class="cls-1" d="M33.95,10.06c-.77,2.24-1.87,3.94-3.69,5.39l-1.35,1.08-2.73-.97-2.35-6.8-1.8,5.14c-.44,1.25-.45,1.71-1.85,2.2-1.04.36-1.5.34-2.36-.28-2.11-1.53-3.41-3.31-4.03-6-1.04,2.39.07,4.79,1.51,6.68,1.06,1.39,1.01,2.57.54,4.23-.74,2.63.65,6.14,3.07,7.44,1.23.66,2.13,1.17,3.22,1.95l-.93.58c-.57.36,1.33,1.47.97,1.74l-.73.53c1.03,1.01,1.86,2.23,2.37,3.6.77-2.18,3.1-3.66,2.4-3.98l-.73-.33.96-1.14c.18-.22-.21-.63-.56-1.22.87-.59,1.87-1.21,2.94-1.82,2.55-1.47,3.8-4.84,2.96-7.67-1.35-4.58,3.66-4.57,2.16-10.36ZM29.56,24.3c-2.93,4.09-3.55.8-5.76,7.16-1.81-6.78-5.54-3.6-5.5-8.87.02-2.79,1.33-5.1,4.11-5.77l1.44-3.12,1.22,2.93c3.07.88,4.12,3.38,4.71,6.39l.37-2.95c.61,1.33.34,2.94-.58,4.22Z"/>
      <path class="cls-1" d="M42.89,14.79c.35-.29.58-1.14.79-1.45l2.04-3c-.12-.23-.8-.8-.59-.88,2.71-1,2.79-6.9,1.89-9.43-.71,3.44-2.41,6.67-5.01,9.22l-2.05,2.01c.31-2.76.85-5.14-.77-7.82-.15,4.07-1.58,7.35-4.44,10.08l-2.14,4.37c1.6-.64,3.08-1.93,3.93-3.54l1.72-3.31-1.19,4.4,5.2-3.57-2.41,2.61-3.2,5c1.67-.04,3.25-.34,4.91-.68-1.92.53-3.67,1.53-4.75,3.48,5.14-.89,9.43-4.13,11.06-9.06-2.66,2.02-5.32,3.86-8.62,4.58l3.63-3.04Z"/>
      <path class="cls-1" d="M6.62,18.91l4.43.73-2.67-4.28-1.65-2.36,3.78,2.43-1.19-4.49,1.64,3.2c.9,1.76,2.35,3.32,4.18,3.71-3.29-7.45-6.16-6.13-6.61-14.45-1.55,2.52-1.19,5.01-.71,7.76C4.06,8.42,1.8,4.56.67,0-.12,2.65.4,6.69,1.52,8.83c.13.26,1.25.67,1.11.86l-.61.81,2.82,4.15c.88,1.3,2.62,2.22,3.56,3.21-3.39-.77-5.71-2.59-8.4-4.35,1.68,4.94,5.82,7.92,10.87,8.87-.95-1.82-2.4-2.86-4.25-3.47Z"/>
      <path class="cls-1" d="M26.67,48.82c-.13-.3-.48-.83-.7-.77-.22.06-.36.62-.36.91l.04,7.38c.02,2.78.99-.86,2.02-.41.32.14.54.79.8,1.49l4.27-.06c.22-.53-.38-1.46-.78-1.35l-1.63.46c.09-.54.92-1.43,1.48-1.76.3-.17.33-1.27,0-1.33-1.38-.27-2.32.44-3.5,1.58l-.06-5.04,2.3,1.27.75.82c.17.19.78-.28.85-.53.4-1.48-1.29-.36-1.74-2.84.9.29,1.4.47,1.75.54.29.05.62-.89.67-1.37l-4.1.04-.75,1.37c-.16.28-1.16-.12-1.29-.42Z"/>
      <path class="cls-1" d="M25.09,56.04l-.09-8.44-2.41-.03v9.46c0,.44-.4,1.33-.55,1.62.93.97,2.84,1.13,3.71.07-.39-1.03-.66-1.87-.67-2.68Z"/>
      <path class="cls-1" d="M23.82,38.84c-.46-1.81-.71-3.54-2.34-4.42.95,3.81,1.8,7.15.45,10.54l1.15.38-1.27,1.33c2.03.34,2.57.45,4.25.06l-2.49-1.53c-.13-.08.04-.55.09-.7.2-.6.56,1.75,2.15.84-1.09-3.79-.71-7.51.49-11.06-1.69,1.06-1.91,2.86-2.49,4.56Z"/>
      <path class="cls-1" d="M13.17,25.07c-.9-.53-1.83-.71-2.92-.89l2-1.07c-.71-.28-1.2-.43-1.47-.41-2.58.18-4.7.15-7.21.04,2.81,2.26,6.22,3.49,9.6,2.33Z"/>
      <path class="cls-1" d="M38.14,24.12l-4.03.97c3.58,1.06,7.22,0,10.01-2.36l-8.52-.04c.26,1.07,1.34,1.12,2.55,1.43Z"/>
      <path class="cls-1" d="M7.46,27.38c2.39,1.4,5.37,1.9,7.74-.05l-2.49-.52,1.25-1.26c-3.25.54-2.69,1.81-6.5,1.83Z"/>
      <path class="cls-1" d="M33.77,25.78l1.39,1.3c-1.21-.13-2.02-.18-2.45.41,2.07,1.6,4.97,1.35,7.23.06-3.4-.49-3.94-1.84-6.16-1.77Z"/>
      <path class="cls-1" d="M32.43,18.67l.54,2.13c2.36-.8,4.15-2.64,5.33-5.13-1.9.84-4.04,1.91-5.87,3Z"/>
      <path class="cls-1" d="M15.34,19.2c-1.94-1.63-3.76-2.6-5.71-3.25,1.26,2.54,2.76,4.09,5.33,4.88l-.84-1.52c.42.19,1.02.23,1.23-.11Z"/>
      <path class="cls-1" d="M31.71,33.36l-2.26-4.85c-.33.18-.7.5-.63.74l.39,1.34-1.46-1.2c.14,2.3,2.11,3.61,3.95,3.97Z"/>
      <path class="cls-1" d="M18.3,28.52l-2.26,4.86c1.91-.55,3.75-1.79,3.85-3.75l-1.46.78c.18-.83.36-1.4-.13-1.89Z"/>
      <path class="cls-1" d="M12.45,31.13c2.09.18,4.24-.92,4.97-2.56-.74-.06-1.39-.25-2.02-.57l-2.95,3.13Z"/>
      <path class="cls-1" d="M35.14,31.15l-2.54-3c-.11-.13-.57-.43-.71-.47-.14-.04-.3.04-.28.19l.15.8-1.5-.42c.65,2.19,2.92,2.83,4.88,2.9Z"/>
      <path class="cls-1" d="M37.5,20.32l-3.31.48c-.92.13-1.73,1.45-1.17,2.02,2.04-.35,3.44-1.16,4.48-2.5Z"/>
      <path class="cls-1" d="M14.8,23.11l-.31-.93c-.2-.6,1.15-1.21-4.23-1.82,1.32,1.44,2.78,2.23,4.53,2.75Z"/>
      <polygon class="cls-1" points="23.91 62.33 25.36 59.98 22.44 59.85 23.91 62.33"/>
      <path class="cls-1" d="M32.32,24.8c.76.01,2-.46,2.5-1.02-1.07-1-2.37-.24-2.5,1.02Z"/>
      <path class="cls-1" d="M15.46,24.48c-.54-1.27-2.11-1.32-2.7-.48.55.66,2.03.92,2.7.48Z"/>
      <path class="cls-1" d="M22.14,22.04c.08-1.39,1.35-2.3,2.94-2.82-1.34-.28-2.78.1-3.6,1.34-.7,1.07-.67,2.59.25,3.72.78.95,2.42,1.35,3.59.93-2.05-.49-3.28-1.44-3.19-3.16Z"/>
    </g>
  </g>
</svg>