<?xml version="1.0" encoding="UTF-8"?>
<svg id="Warstwa_2" data-name="Warstwa 2" xmlns="http://www.w3.org/2000/svg" viewBox="0 0 53.39 62.88">
  <defs>
    <style>
      .cls-1 {
        fill: #fff;
      }
    </style>
  </defs>
  <g id="icon-v10-loot-pixarts-store">
    <g id="icon-v10-loot-pixarts-store_123">
      <path class="cls-1" d="M1.5,28.38l4.76,6.77c.36.51.15,2.45-.47,2.42l-2.73-.11c.14.3.94,1.5,1.42,2.09.43.52,1.91.37,2.95.42,1.18,6.04,3.1,11.36,5.68,16.7.31.65.5,2.05.72,2.91,7.81,4.28,17.37,4.44,25.28.24.44-.61.7-2.3,1.02-2.93,2.81-5.58,4.85-11.12,5.83-17.17,1.22.49,2.59.51,3.32-.28.49-.53,1.07-1.7,1.16-2.31-1.15.47-2.38.68-2.87.26-.41-.35-.63-1.82-.3-2.32l4.8-7.15c1.83-2.73,1.77-6.67-.17-8.9-1.88-2.16-3.97-3.15-6.51-2.44-2.25.63-3.94,2.4-4.29,5.26-4.07-2.52,2.04-4.7.56-8.08-.47-1.06-2.61-1.22-3.53-1.17-.87-1.64-2.1-2.92-3.98-3.47l-5.41-1.57,1.68-2.13c.35-.44-.42-1.78-.8-2.21l-2.79-3.2c-1.39,1.24-3.2,3-4.18,4.56-.31.6,1.12,1.93,1.69,2.72-2.38,2.14-7.73.78-9.06,5.64,2.45,3.25,20.5,3,23.5-.06.25.25.84,1.03.61,1.3-.23.27-1.04.97-1.42,1.08-7.13,2.05-15.26,2.09-22.39-.01-.47-.14-1.55-.89-1.42-1.29l.47-1.55-3.01,1.1c-1.24,3.76,4.8,5.66.74,8.54-.31-3.03-2.22-4.92-4.58-5.55-2.61-.7-4.9.58-6.54,2.9-1.75,2.47-1.59,6.33.28,9ZM43.89,22.61c-.22-.69.31-2.02.94-2.45,1.14-.78,2.54-.85,3.62-.24,4.31,2.42.22,9.44-2.33,12.08-.29-2.73-.88-4.81-2.41-6.71l2.33-1.21c-1.02-.42-1.96-.85-2.15-1.46ZM16.18,19.57c7.2,2.1,14.4,1.9,21.58-.08.04.55-.57,1.46-1.26,1.68-6.5,2.05-12.72,1.92-19.15.31-.73-.18-1.3-1.25-1.17-1.9ZM16.17,22.38c7,2.54,14.17,2.52,21.2.03-.14,2.2-1.34,2.55-2.43,3.98,1.28-.26,2.42-1,3.64-1.9,2.07.88,4.78,2.92,5.07,5.54,1.08,9.8-1.11,16.01-5.38,24.57-.35.71-1.01,1.21-1.65,1.4l.38,1.11c.1.29-.4,1.03-.78,1.16-6.26,2.09-13.59,2.65-19.84-.74.5-1.13,1.62-1.76,2.71-2.37l-3.11.52-2.17-4.11c-3.58-6.79-5.15-14.27-3.94-21.99.46-2.95,4.69-4.41,6.3-7.19ZM3.85,21.09c.59-.93,1.87-1.63,2.85-1.63.81,0,2.21.91,2.65,1.71.22.4.33,1.83-.08,2.01l-1.98.86,2.16,1.28c-1.04,1.81-1.67,3.71-2.2,6.59-2.15-2.33-5.75-7.12-3.42-10.82Z"/>
      <path class="cls-1" d="M23.6,49.14c-2.07,1.07-3.76,1.25-5.8,1.58,3.97,1.88,8.37,1.34,11.65-1.25-.24,2.56-1.71,3.75-3.07,5.37,4.34-1.41,6.77-4.98,7.56-9.45,1.89,2.89,1.52,6.11-.3,8.98,4.25-3.76,4.62-9.82.9-14.46,2.13.2,3.68,1.48,5.43,2.85-1.38-4.35-5.48-6.75-9.94-7.04,1.94-1.62,4.07-1.65,6.66-2.09-4.17-2.03-8.49-1.29-12.21,1.29.45-3.09,2.74-4.35,4.45-6.32-5.15,1.16-8.84,5.51-9.02,10.78-2.07-2.58-1.87-5.76-.99-8.97-3.87,4.4-3.54,10.63.51,14.9-2.76-.56-4.61-2.1-6.29-4.09,1.24,4.77,5.34,7.5,10.44,7.94Z"/>
    </g>
  </g>
</svg>