<?xml version="1.0" encoding="UTF-8"?>
<svg id="Warstwa_2" data-name="Warstwa 2" xmlns="http://www.w3.org/2000/svg" viewBox="0 0 55.54 57.15">
  <defs>
    <style>
      .cls-1 {
        fill: #fff;
      }
    </style>
  </defs>
  <g id="icon-v10-loot-pixarts-store">
    <g id="icon-v10-loot-pixarts-store_326">
      <path class="cls-1" d="M49.2,37.22c-.68-.96.94-2.81,1.01-3.86l.68-10.34c-7.66-2.54-.62,4.18-8.55,8.08l2.32-3.93c.45-3.32,1.74-5.78,3.51-8.42,1.11-1.66,1.59-3.41,3.55-4.43v-4.24s-5.95,3.39-5.95,3.39l-9.9,5.31-2.58,6.5c1.75,1.57,3.38,2.98,4.66,5.05l-5.9-2.59c-4.81,3.83-3.1,9.4-4.81,15.12l-.37-7.55c-.31-6.31-1.96-6.05-3.83-12.76l-1.9,3.22c-.51-1.9.42-4.75-1.05-5.88-2.7-2.08-5.97-2.73-8.63-4.27,4.42.29,7.63,2.28,11.67,3.77l4.86-7.56c1.33,2.14,2.22,4.03,3.68,5.68,1.77,2.01,8.88-2.9,10.47-3.92l8.56-5.46-11.15-3.61-7.75,2.65,3.84-3.99L26.28,0l-6.9,3,4.82,3.91c-13.81-2.82-6.28-2.3-19.43,2.06l-3.56,3.88.93,9.68c1.14,11.83-2.25,7.33,1.3,15.22,1.42,3.16,2.28,6.61,3.36,10.03l5.91,2.94,3.5-3.44c8.56,5.58,2.29,8.17,10.64,9.51l.69-9.07c1.29,3.01.92,5.5.68,8.99l5.94-2.79c1.14-.53,1.9-2.43,1.83-3.63-.12-2.06,1.23-3.48,1.66-5.12l3.43-12.96c5.85,7.58,2.96,5.3,6.86,12.63,1.93-1.15,3.07-2.17,2.98-3.54-.12-1.62-.74-2.72-1.72-4.1ZM7.97,15.7c-.22-1.41-1.46-2.07-3.16-2.89,5.8-.11,8.87-2.85,16.28-1.94l-10.53,4.76-2.02,3.73-.57-3.65ZM15.32,43.8c-2.08-3.9-1.99-7.88-1.28-11.71l1.94-1.44-3.86-3.22-.38,16.45c-1.31-1.29-2.04-2.18-3.14-3.56.68-5.93.82-11.84.36-17.82,1.1-1,2.73-.3,3.63.66l7.63,8.19-3.65,2.37c-.61.39-.91,2.37-.57,3.07l4.36,9.11c-1.65-.53-3.75-1.31-5.04-2.1Z"/>
      <path class="cls-1" d="M24.56,21.43l3.66,7.68,3.99-7.16c-1.94-2.33-2.56-4.13-4.05-7.21l-3.6,6.69Z"/>
      <path class="cls-1" d="M37.24,51.92l8.54-4.83c.12-2.3-.05-4.42-1.22-6.77-3.86,1.77-8.6,7.15-7.31,11.6Z"/>
      <path class="cls-1" d="M13.2,57.15l7.43-2.73-3.49-5.1c-1.89,2.27-3.67,4.46-3.95,7.83Z"/>
      <path class="cls-1" d="M0,46.83c1.89.61,3.21.98,5.33.92-1.03-3.47-1.87-5.84-3.45-9.27-.96,2.99-1.39,5.36-1.89,8.35Z"/>
      <path class="cls-1" d="M49.19,20.26c3.45,1.31,3.09.25,6.35-2.23l-3.58-2.31c-1.5,1.34-2.22,2.79-2.77,4.54Z"/>
      <path class="cls-1" d="M50.27,36.47c.22.51,1.09,1.41,1.56,1.74l3.04-2.17-3.51-1.83c-.49.23-1.33,1.67-1.08,2.25Z"/>
      <path class="cls-1" d="M41.5,35.82l-1.6,6.44c3.2-1.16,3.23-4.31,1.6-6.44Z"/>
    </g>
  </g>
</svg>