<?xml version="1.0" encoding="UTF-8"?>
<svg id="Warstwa_2" data-name="Warstwa 2" xmlns="http://www.w3.org/2000/svg" viewBox="0 0 57.4 58.3">
  <defs>
    <style>
      .cls-1 {
        fill: #fff;
      }
    </style>
  </defs>
  <g id="icon-v10-loot-pixarts-store">
    <g id="icon-v10-loot-pixarts-store_205">
      <path class="cls-1" d="M5.68,39.94l-1.41,2.23c8.46,13.42,26.4,16.61,38.65,6.8l.97-3.8,2.57.14c8.39-8.89,9.59-22.32,3.02-32.63l-2.65-.12,1.24-2.19C41.21,1.14,29.14-2.42,18.37,1.69l-1.15,3.91-2.04-2.5C2.32,9.86-3.89,25.8,2.6,39.24l3.08.7ZM15.13,24.13c1.19-4.04,4.06-7.11,7.3-8.62,4.27-1.98,8.68-1.77,12.48.35-7.53-.27-13.46,5.5-13.13,12.98.3,6.86,6.2,12.34,13.49,11.88-4.48,2.86-9.71,2.46-14.07-.21-5.55-3.4-7.9-10.12-6.07-16.37ZM47.89,26.11c1.5,10.43-5.61,20.61-16.07,22.57-2.04.28-3.64.83-5.96.17,12.3-.35,22.02-9.74,22.03-22.74ZM15.4,10.16c8.49-5.9,20.55-4.69,26.98,3.39-5.34-4.13-11.42-6.17-18.21-4.57-5.71,1.35-11.07,5.28-13.91,11.26-3.78,7.96-2.37,16.62,3.26,23.24-2.07-1.56-3.64-3.51-4.83-5.79-4.95-9.51-2.13-21.39,6.72-27.53Z"/>
      <path class="cls-1" d="M48.23,46.21c-9.06,10.42-22.89,13.14-35.39,6.58,6.8,5.95,16.54,6.6,24.91,4.25.42-1.59,1.44-1.61,2.54-1.08,6.76-2.81,11.75-8.27,14.67-15.05,4.28-9.94,3-21.7-4.3-29.91,6.96,11.33,6.13,25.37-2.43,35.22Z"/>
    </g>
  </g>
</svg>