<?xml version="1.0" encoding="UTF-8"?>
<svg id="Warstwa_2" data-name="Warstwa 2" xmlns="http://www.w3.org/2000/svg" viewBox="0 0 56.34 47.41">
  <defs>
    <style>
      .cls-1 {
        fill: #fff;
      }
    </style>
  </defs>
  <g id="icon-v10-loot-pixarts-store">
    <g id="icon-v10-loot-pixarts-store_170">
      <path class="cls-1" d="M6.64,40.31c4.13,3.71,9.27,6.2,14.55,6.96,4.76.68,8.76-1.2,11.73-4.56,6.85-7.75,5.29-9.77,3.33-19.9,1.47,1.8,2.31,3.79,3.25,5.87.96-4.26,1.4-8.16,3.82-11.44,1.41-1.92,1.55-4.71.03-6.7-3.21-4.24-8.1.33-12.61-.59-6.43-1.31-10.26-2.11-16.37.36,1.48.43,2.57.61,3.51,1.36-2.25.37-4.22-.32-6.25.13-3.75.84-7.42,3.25-9.67,6.33-4.7,6.44-.11,17.9,4.67,22.2ZM3.87,18.1c7.1-5.39,16.04.81,21.4,5.75,4.14,3.82,6.75,9.07,5.89,14.67-.68,4.38-4.08,7.37-8.93,7-5.61-.43-10.77-3.04-14.62-6.85-2.76-2.73-4.5-6.38-5.5-10.1-.98-3.62.07-7.35,1.76-10.48Z"/>
      <path class="cls-1" d="M46.15,12.43c5.23-4.59,6.8-.35,9.28-3.47.64-.8,1.15-2.39.79-3.52-.51-1.6-2.44-1.99-3.7-2.42-.79-2.04-2.29-3.53-4.29-2.88-2.09.69-2.85,2.37-2.34,4.75l-3.72,2.82c2.02.88,3.42,2.55,3.97,4.71Z"/>
      <path class="cls-1" d="M7.54,34.24c.57,2.83,2.96,4.7,5.33,6.1,1.41.84,9.64,4.4,10.13,2.14.25.14.91.72,1.23.57l1.21-.58c1.29-.63,2.25-1.62,1.99-3.16-.2-1.18-.69-1.62-2.11-2.7,1.08-.03,2.08.45,3.16,1.26,1.22-1.24-1.64-8.12-2.3-9.22-2.62-4.39-9.38-8.65-10.4-6.44-.91,1.97.86,3.49.03,4.96-1.16-1.01-1.96-2.28-1.97-3.33,0-2.03-.21-5.26-2.67-5.21l-.06,1.7c-.91-.99-1.27-1.55-1.78-1.78-.66-.29-4.41.15-5.44,4.58-.65,2.79-.36,7.42,3.02,8.42,1.44.43,3.05.2,4.35,1.52l.54.55c1.35,1.37-3.89-1.18-4.25.65ZM12.81,29.26c1.49-2.01,5.76.45,6.2,2.65.14.69-.02,1.63-.26,2.03-.24.4-1.24.75-2.17.6-2.05-.33-5.23-3.31-3.77-5.28Z"/>
    </g>
  </g>
</svg>