<?xml version="1.0" encoding="UTF-8"?>
<svg id="Warstwa_2" data-name="Warstwa 2" xmlns="http://www.w3.org/2000/svg" viewBox="0 0 36.78 57.63">
  <defs>
    <style>
      .cls-1 {
        fill: #fff;
      }
    </style>
  </defs>
  <g id="icon-v10-loot-pixarts-store">
    <g id="icon-v10-loot-pixarts-store_20">
      <path class="cls-1" d="M15.94,10.33c.03,3.03-.38,5.72-.96,8.74-.28,1.46.91,3.46.76,4.96-.2,2.13-.61,4.02-1.02,5.92l-1.36-10.6c-.27-2.12,1.74-4.4.92-7.5-4.49,10.39-2.28,7.36-11.64,16.12l3.55,7.66-.23,3.97,2.69,7.24c1.81-1.42,3.58-2.36,4.86-3.98l3.29-4.19c-2.13,7.68-3.14,3.77-1.17,13.73,1.51-2,3.34-3.59,3.65-5.68l.91-6.09c.27-1.79,5.01-5.89,7.56-6.75l5.27-11.45-5.94,1.64-5.4,7.68c-.28-2.09,5.7-10.29,2.89-10.88-1.09-.23-2.59.6-3.68.93.82-1.38,2.07-1.97,3.67-2.63l-1.09-5.43-4.82,3.16c.76-2.2,3.39-3.18,4.51-5.22,2.04-3.71,3.66-7.39,5.42-11.67l-11.16,7.51c-1.01.68-1.51,1.6-1.5,2.82ZM25.69,31.56c-4.06,2.66-7.71,4.84-12.32,5.71,3.9-2.64,7.91-4.93,12.32-5.71Z"/>
      <path class="cls-1" d="M32.22,9.31c-.59-3-1.52-5.62-2.55-8.69-1.63,3.94-3.21,7.47-4.43,11.47-.51,1.67.6,4.12.86,5.82l2.99-2.82c-.36,1.74-1.18,2.98-2.5,4.36l.81,3.21,5.98-1.62-1.66-6.85c-.11-1.42.75-3.59.49-4.89Z"/>
      <path class="cls-1" d="M5.33,19.84c1.16-1.52,2.55-3.31,3.56-4.86.29-.45,1.27-7.83.65-8.33-2.46,1.92-4.57,3.74-6.55,5.71-.24,2.57.31,5.22,1.11,7.6l.72-5.27,2.84-1.71c-1.53,2.55-2.68,4.17-2.33,6.86Z"/>
      <polygon class="cls-1" points="12.3 46.01 9.48 48.13 7.36 57.63 14.92 53.01 12.3 46.01"/>
      <path class="cls-1" d="M4.67,36.93c-.38-2.46-1.15-5.36-2.42-7.95l-2.24,10.27,2.59,5.78c.79-.31,2.04-8.39,2.08-8.1Z"/>
      <path class="cls-1" d="M7.39,48.22l-2.54-6.06-1.35,4.37c-1.36,4.5.64,5.96,2.6,10.61l1.29-8.92Z"/>
      <path class="cls-1" d="M31.01,45.63c2.59-3.95,2.62-4.31,2.49-9.13-1.24,1.9-2.19,3.58-3.03,5.53l.25,2.63c-.42-.4-.85-1.18-1.2-1.1-2.16.47-2.87,1.68-3.61,2.7l-3.13,4.28,4.52-2.03c1.3-.58,2.92-1.66,3.71-2.87Z"/>
      <path class="cls-1" d="M24.03,41.69l2.32,1.59c.61.42,2.49-.41,2.86-1.12,1.23-2.34,2.74-4.78,4.38-7.41-4.52,2.42-6.94,2.53-9.56,6.94Z"/>
      <path class="cls-1" d="M23.66,42.37c-.71,2.69-1.18,4.81-1.5,7.62l2.78-3.92c.32-1.41-.11-2.84-1.28-3.7Z"/>
      <path class="cls-1" d="M33.89,30.84c.9-.44,2.46-1.21,2.72-1.91.43-1.19-.02-2.55-.38-3.22-2.06,1.09-2.78,3.04-2.34,5.13Z"/>
    </g>
  </g>
</svg>