<?xml version="1.0" encoding="UTF-8"?>
<svg id="Warstwa_2" data-name="Warstwa 2" xmlns="http://www.w3.org/2000/svg" viewBox="0 0 45.78 63.81">
  <defs>
    <style>
      .cls-1 {
        fill: #fff;
      }
    </style>
  </defs>
  <g id="icon-v10-loot-pixarts-store">
    <g id="icon-v10-loot-pixarts-store_288">
      <path class="cls-1" d="M29.25,44.07c3.1-.11,5.64.94,8.43,2.69.39-.7.91-2.71.34-3.46-.88-1.16-2.32-1.5-3.94-2.37l4.33-1.47c-.27-3.9-4-7.35-.51-8.85,3.2-1.37,3.77-7.53,1.51-7.96-3.27-.61-7.18-.29-10.46-.12l-2.78,3.37c.12.48.93,1.71,1.37,2.19l4.32-2.18c1.39,1.33,2.09,5.11,2.07,6-.02,1-4.13-.32-3.78,2.11.08.58-.01,2.16-.52,2.33l-1.67.56c1.41-1.12.9-2.94,1.28-4.03.3-.84,2.13-1.42,2.9-2.07.93-.77.3-3.06-.51-3.86l-4.37,2.15c-.69.34-.66,2.06-.3,2.95l-2.83,2.6c.91.8,1.8,2,1.76,3.06-.03.76-.87,1.92-1.43,2.65l3.06,1.98c-.23,6.17,2.6,5.06,1.8,6.58-.42.8-.82,1.66-.59,2.05l1.09,1.78-2.63-1.97,1.05-2.16c-2.88-2.9.17-5.56-3.51-6.37l.96,4.09-5.74.05.16-1.56c-5.26,3.06.97,5.07-3.43,8.96l3.52,1.24,2.61-6.23,2.55,6.18c1.97-.1,9.61-2.88,7.66-5.61l-3.78-5.3ZM36.41,24.41c1,0,1.82.81,1.82,1.82s-.81,1.82-1.82,1.82-1.82-.81-1.82-1.82.81-1.82,1.82-1.82Z"/>
      <path class="cls-1" d="M5.47,25.46c-1.15,2.22,1.11,4.82,3.49,5.53.22,1.18.35,2.38.48,3.76.19,1.94,4.33.53,6.22.89l1.63,2.25c.34.46,2.03.1,2.23-.5,1.42-4.27,4.69-1.12,5.74-7.5l-1.75-1.93c-1.19-1.31-2.39-2.4-4.14-2.58-.43.88-.68,2.32-.54,2.96l2.92.89-1.93,2.71.13-2c.02-.32-1.17-.14-1.48-.28-.86-1.18-2.41-2.4-3.82-3.04l2.45.04c.48,0,1.09-1.46.93-1.91-.24-.65-.89-1.67-1.42-2.44l-9.61.19-1.53,2.96ZM9.18,24.46c.99,0,1.8.8,1.8,1.8s-.8,1.8-1.8,1.8-1.8-.8-1.8-1.8.8-1.8,1.8-1.8Z"/>
      <path class="cls-1" d="M37.44,21.15l-.19-7.99c-.07-3.02-1.32-5.9-3.48-8.05l-1.43,1.9.48-2.97C28.83-1.46,16.56-.88,16.01,3c-.05.35,1,.71,1.21,1,2.57,3.56,4.72-1.09,11.26,2.96l.72-2.96c1.24,7.3,3.15,4.76,3.1,13.41l-.02,3.81,5.16-.07Z"/>
      <path class="cls-1" d="M15.74,52.69c2.57-1.1,1.51-3.36,1.3-5.19-.22-1.96,2.4-3.13,3.4-4.46.61-.82,1.04-2.3.61-2.89-1.79-2.48-4.29.95-5.59-3.31-2.97-1.13-3.57,1.07-7.3-.18-.38.34-.88,2.2-.72,2.78l3.99,1.41-3.42,2.04c-1.08.64-.56,3.07.3,3.76,2.54-1.49,5-2.97,8.05-2.36-1.68,2.12-3.47,3.94-4.06,6.52.15,1.08,2.43,2.31,3.43,1.89Z"/>
      <path class="cls-1" d="M8.48,21.29l2.38-2.05c.73-.63,1.58-1.16,2.52-1.77-1.06-2.48-3.45.85-3.46-2.29.77.5,1.72,1.07,1.76.77l.21-1.4,1.62-.76c.43-2.62,1.48-4.86,3.28-6.72l-.35-2.47c-.83-.1-1.64-.14-1.56-.47l.45-1.87c-4.73,2.2-7.14,7.8-7,13.17l.16,5.87Z"/>
      <path class="cls-1" d="M7.56,60.76c-1.04-2.78-1.15-5.77,1.33-7.74l-.39,1.59,3.04-2.1c-.67-2.85,1.03-5.03,3-7.36-2.97.23-5.66,1.7-7.46,4.02l3.33-.96-.55,2.96-.55-1.85c-1.6.67-3.61,2-4.36,3.88-1.1,2.74.1,5.89,2.63,7.56Z"/>
      <path class="cls-1" d="M36.38,49.28l-.33,2.33-.9-3.34,3.72,1.08c-1.93-2.51-4.8-3.94-7.75-4.15,2.16,2.44,3.36,4.58,3.38,7.51l2.43,1.73.14-1.3c2.1,1.71,1.85,4.44,1.32,7.33,2.16-1.46,3.54-4.36,2.46-7.09-.78-1.97-2.8-3.26-4.46-4.1Z"/>
      <path class="cls-1" d="M20.14,58.04l2.64,5.77,2.73-5.83-2.71-7.01-2.66,7.06ZM24.34,58.34l-1.47-2.58-1.02,1.28c-.03-.93.24-1.37,1.06-2.21.78,1.06,1.32,2.04,1.43,3.51Z"/>
      <path class="cls-1" d="M40.57,42.8c-.17-.74-.21-.67-.05-.74l1.27-.58c-1.62-.93-3.55-1.28-5.73-.57,2.21.44,2.89,2.85,4.32,3.65,2.02,1.14,4.32,1.31,5.04,4.21.59-1.86.47-3.59-.43-4.86-1.18-1.67-2.96-2.05-4.42-1.11Z"/>
      <path class="cls-1" d="M26.65,58.51c3.14-.67,5.93-2.09,8.32-3.96l-1.93-1.99c-2.18,1.25-4.55,2.29-7.05,3.26-.14.57.23,1.93.66,2.7Z"/>
      <path class="cls-1" d="M9.66,40.8c-2.09-.62-4.33-.24-6.09.66.99.47,1.53.64,1.84,1.14-2.66-.51-4.9.24-5.32,2.91-.13.85-.07,2.17-.01,2.99,1.2-1.53,2.3-2.79,3.53-3.6,1.4,2.52,2.16-2.71,6.06-4.1Z"/>
      <path class="cls-1" d="M41.84,40.31c-.4-3.56-1.21-6.4-2.3-9.58-.98.53-1.99,1.01-2.06,1.63-.06.54.27,1.72.42,2.32l1.25,5.06,2.69.57Z"/>
      <path class="cls-1" d="M6.47,39.47l.44-3.04-2.1-1.83c-.74,1.94-1.08,3.64-1.13,5.67.82-.08,2.61-.22,2.79-.8Z"/>
      <path class="cls-1" d="M19.82,55.61c-1.12-.45-2.34-.84-3.15-.74-.66.09-1.2,1.25-1.71,2.32l4.12,1.32.74-2.91Z"/>
      <path class="cls-1" d="M8.49,32.7c-.45-1.33-2.57-2.35-2.58-2.27l-.23,1.18c-.13.7-.27,1.83.06,2.25.28.36,1.25.95,1.71,1.01.6.08,1.24-1.59,1.04-2.17Z"/>
      <polygon class="cls-1" points="10.76 54.42 13.04 56.02 14.81 53.68 12.58 52.3 10.76 54.42"/>
      <path class="cls-1" d="M7.3,47.03c.09-.44-.51-1.4-.79-1.71l-2.14,1.29,1.44,2.59c1-1.27,1.41-1.73,1.5-2.16Z"/>
      <path class="cls-1" d="M40.14,49.09l.98-2.72-2.14-.88c-1.1,1.56-.2,2.88,1.16,3.6Z"/>
      <path class="cls-1" d="M13.62,20.77c.19-.28.11-1.57.05-1.92l-3.06,1.89c.99.55,2.6.65,3.01.03Z"/>
      <path class="cls-1" d="M36.43,27.11c.54,0,.98-.44.98-.98s-.44-.98-.98-.98-.98.44-.98.98.44.98.98.98Z"/>
      <path class="cls-1" d="M9.21,27.22c.54,0,.98-.44.98-.98s-.44-.98-.98-.98-.98.44-.98.98.44.98.98.98Z"/>
    </g>
  </g>
</svg>