<?xml version="1.0" encoding="UTF-8"?>
<svg id="Warstwa_2" data-name="Warstwa 2" xmlns="http://www.w3.org/2000/svg" viewBox="0 0 50.08 57.67">
  <defs>
    <style>
      .cls-1 {
        fill: #fff;
      }
    </style>
  </defs>
  <g id="icon-v10-loot-pixarts-store">
    <g id="icon-v10-loot-pixarts-store_32">
      <path class="cls-1" d="M46.38,3.71l-9.71,5.58c-2.88,1.65-3.37,5.2-3.84,8.37-2.91-6.09,4.47-9.06-.96-9.65-.32.82-.41,1.92-.86,2.09-.55.21-3.34.56-3.34.49l.08-1.12,2.67.19c.21-1.99.2-3.3-.18-5.21l-4.29,4.23c.03-.8.29-1.27.95-2.44l-2.61-.87c-1.62,1.2-3.47,1.89-5.2,1.44l3.49-1.44-1.38-3.31c-2.33,2.32-2.84,4.7-3.48,7.72-.84-1.54-1.44-2.57-2.44-3.94l-2.12,5.43-.07-3.11c-5.61,2.81-3.23,4.44-10.24,6.98-.71.26-1.67,1.6-1.51,2.28.13.59.9,1.76,1.39,1.68.65-.26,1.82-.7,2.16-.39l2.3,2.13c1.32-.7,1.95-2.56,1.1-3.88l-1.5-2.33c1.7-.14,2.04,1.16,2.16,2.38l.31,2.98,2.72.6c-.08-2.44.91-3.67,2.72-4.57,2.02-1.01,3.76-2.23,6.07-2.87l-6.17,4.51c-1.09.8-2.05,2.09-.91,3.39.85.97,2.15,1.03,3.32.09l3.04-2.43c.9-.72,1.6-1.29,2.51-2.07l.25,1.38,3.89,1.54c.64.29,2.55-2.59,2-3.29l-.91-1.18c.8.32,1.85,1.38,2.06,2.18l-1.99,3.81c-4.87.49-.25,3.7-7.25,4.25,1.68,1.16,3.56.67,5.54-.09-2.31,3.57-7.27,1.61-9.95-.65-.67-.57-2.04-1.22-2.78-1.13l-3.57.44,2.78-1.5c-.8-.46-2.62-1.22-3.51-.85-1.2.5-2.51,1.75-3.37,2.77l-.97,2.65c-.69-.29-1.29-.55-1.49-.26-1.23,1.71,2.48,3.11,2.09,5.88l-2.91-3.3-1.64,2.98c-.5.92.8,6.75,2.75,7.92l.78-3.6c.89.57,1.27.9,1.55.82l.99-.27c.28-.08.87.85,1.1.69l1.05-.74,1.49.91.84-2.2-6.94-.27c-.46-.02-1.5.08-1.71-.28s-.37-1.4-.32-1.49c1.1.59,1.89.85,3.02.86l7.16.08-1.16.76c-.18.12.45.64.56.88l1.99,4.4c1.53-2.09,1.79-4.01,1.78-6.16l-.68.58c-.11.1-.38.11-.36-.04l.18-1.32,2.84.58,1.09,1.7c1.18-.89,1.67-2.63.89-3.21l-1.16.1c-.18.02-.02-.41.04-.58,1.26-3.33,7.3,2.77,7.85,8.78.19,2.12-1.41,2.41-2.29,3.58l-3.97,5.3c-.97,1.3-1.93,2.92-3.76,2.76l-3.72-.33-4.83-.53c-.78-.09-1.55-.41-2.3-.77-.21.21-.17,2.1.41,2.28l2.51.8c-1.05,3.78,7.81,3.7,9.88,3.18l-2.15-2.28,5.18,1.66c3.02.97-.09-1.93,3.32-5.69,6.19-6.82,10.87-3.76,13.17-11.52-1.09-.9-2.57-.69-4.1-.47.03-1.63,3.33-.87,3.42-1.37.26-1.44-2.22-4.25-.05-8.1.24,8.09,4.79,6.46,1.57,13.56,1.06-.55,1.8-1.22,2.46-2.09l2.9-3.9-1.26-2.94-2.23-.33c1.33-1.5,2.58-.51,4.1.74.7-.59,1.41-2.34,1.07-2.95-.75-.3-1.43-.62-1.7-.82.8-.49,1.87-.9,2.09-1.4.33-.73-.54-1.88-1.11-2.04-.67-.19-1.66-.14-2.25.33-3.35,2.63-6.72-.24-5.83-.48,1.64-.44,4.04.66,6.05-1.65.98-1.12,1.48-2.69,1.16-4.61l3.39-1.3c.47-.98.87-2.94.98-4.09-.58-.33-1.17-.47-1.18-.78l-.06-1.29c-.02-.4-.71-1.37-.48-1.7,1-1.43,3.06-1.96,3.08-3.02l.16-8.87c-1.32,1.15-2.22,2.86-3.71,3.71ZM26,15.2c-.56.11-1.39.09-2.08.08l2.99-2.39c.27.31-.19,2.16-.91,2.3ZM11.44,30.21c-.47.4-1.2.55-2.09.59l-2.25,1.3c.55-1.93,2.27-3.34,4.42-3.87.58.21.48,1.5-.07,1.98ZM15.94,28.26c-.5,1.65-1.7,2.64-3.61,2.51l1.95-2c.6-.61-.83-2.73-1.68-2.6l-3.43.53c.94-1.21,3.5-2.31,4.94-1.19l2.71,2.1c.62.48,1.16,1.3,1.46,2.04l-2.33-1.39ZM26.13,46.29l.72-2.83.2-.77s1.84.83-.92,3.6ZM28.24,41.71c-1.53-2.42-2.27-4.92-2.86-7.65,1.97,2.05,3.29,4.7,2.86,7.65ZM31.77,30.97l-1,8.06-1.17-6.83-1.69.82c-3.56-2.8-3.85-1.87-7.67-3.75,2.52-.43,5.04.44,7.44,1.44,2.22-2.31,6.21-3.09,4.58-5.81-.39-.65-.62-1.51-.63-2.45l2.93,3.18c.67,2.39-1.04,4.05-2.79,5.33ZM44.07,10.52c.62,3.23,1.46,6.77-.7,9.7.55-3.63.91-4.47-.75-8.86-1.58,1.49-2.3,2.5-3.08,3.97l1.9,1.9c.41,3.06-1.22,6.09-4.27,6.61.64-.94,1.75-2.15,2-2.98.11-.38-.7-1.25-1.1-1.27-.4-.03-1.21.16-1.6.34l-1.89.89c4.69-5.39,1.17-6.93,7.36-10.99,2.22-1.46,4-3.06,6.05-4.9-.68,2.37-2.35,3.94-3.91,5.59Z"/>
      <path class="cls-1" d="M14.81,41.81c-4.05,2.62-3.68,5.21-3.57,5.24.53.18,1.47.38,1.91.4.84.05.33-3.92,2.28-3.76l3.93,4.46c.65-.35,1.42-1.09,1.63-1.62.23-.58-.26-1.73-.58-2.46-.26-.57.35-2.09.97-2.07l2.49.05c.57.01.51-1.64.21-2.13-1.33-2.16-4.9.43-6.49,2.24l.77-2.49c-1.95-.68-2.49,1.45-3.53,2.13Z"/>
      <path class="cls-1" d="M6.16,12.06c2.23-2.41,4-4.18,6.5-5.29-1.03-1.85-1.25-3.82-1.11-6.38-1.8,1.59-7.19,8.31-5.38,11.67Z"/>
      <path class="cls-1" d="M5.02,45.06c-.41,1.49-.05,3.89.76,5.14.28.43,1.69.17,2.17.28,1.72.38,4.1.76,6.11.92.43-3.74-3.47-1.31-6.91-3.68l-2.14-2.65Z"/>
      <path class="cls-1" d="M15.05,45.22c-.44,1.84-.62,4.75,1.15,6.19,1.12.91,2.81-.98,2.62-1.91-1.51-1.46-2.56-2.68-3.77-4.28Z"/>
      <path class="cls-1" d="M23.82,21.78c.27-1.08-1.7-1.78-2.65-1.5-1.21.36-2.16,1.39-2.78,2.6,1.66,1.29,4.78,1.53,5.43-1.1Z"/>
      <path class="cls-1" d="M2.23,26.07c.59-.3,1.27-.55,2.37-.99l-2.53-2.58c-.72.68-2.2,2.13-2.07,2.98.22,1.38.87,2.64,1.41,3.49.33-1.61.34-2.65.82-2.89Z"/>
      <path class="cls-1" d="M10.85,43.2c.01-1.61-.35-3.76-2.12-4.04l1.31,3.92c-.67,1.17-1.35,2.29-1.77,3.66,1.79-.28,2.57-2.37,2.57-3.54Z"/>
      <path class="cls-1" d="M4.82,23.05c.36.16,1.15-.64,1.42-1.08l-1.76-1.74c-.32-.32-1.01,1.09-.85,1.53.15.43.71,1.07,1.19,1.29Z"/>
      <path class="cls-1" d="M20.93,42.99l1.39,1.95c.17.24,1.23-.53,1.39-.78-.61-.83-1.61-1.41-2.78-1.16Z"/>
    </g>
  </g>
</svg>