<?xml version="1.0" encoding="UTF-8"?>
<svg id="Warstwa_2" data-name="Warstwa 2" xmlns="http://www.w3.org/2000/svg" viewBox="0 0 52.47 59.48">
  <defs>
    <style>
      .cls-1 {
        fill: #fff;
      }
    </style>
  </defs>
  <g id="icon-v10-loot-pixarts-store">
    <g id="icon-v10-loot-pixarts-store_29">
      <path class="cls-1" d="M2.44,18l2.92,1.96c-.27.05-.87.08-1.4.09l-1.49.04c-.34,0-.67,1.22-.41,1.5.81.85,2.43,2.37,3.5,3.27.82-.02,2.12-1.14,2.08-1.85-.06-1.1.23-2,.85-2.52l.15,2.99c.03.65-1.07,1.56-1.67,2.36.26.66,2.04,2,2.85,1.85,1.36-.26,2.34-2.02,2.91-3.2,1.27,2.69-1.79,3.78-1.87,4.93-.02.34,1.21.93,1.49.73l3.23-2.32c-.48,2.77-4.42,3.87-5.31,5.55-.74,1.39,1.96,4.21,1.29,6.44l-1.4.49c-1.47.51,2.15,5.42,2.76,5.98,2.31-.67,5.82-2.48,6.94.28.28.7.24,1.87-.02,2.51-.23-1.3-.69-2.55-1.92-2.87l.36,4.33,3.41,3.09c.24-.15,1.11-.58,1.42-.34,2.51,1.95-.43,2.96,2.12,3.91.45.02.93-1.3.69-1.67l-1.05-1.6,1.55.62c.39.16.26,1.25.19,1.8-.05.37.94,1.21,1.14.89,1.27-1.98.39-2.78.31-2.77l-1.46.13c0-.18.83-.99,1.14-.86l1.09.45.84-.9c.17-.18.64.35,1.09.74l.85-2.03c.99-.05,1.76-.2,2.07-.62,1.52-2.1-.42-1.27.97-5.37-1.17.39-1.72,1.7-2.01,3.14-.8-1.21-.33-3.63,1.48-4.02,1.79-.39,3.37.29,5.39,1.28l2.95-4.55c.38-.58-.7-2.3-1.33-1.41-1.62-2.29,1.57-5.47.85-7.02-.88-1.92-5.54-2.87-5.38-6.41.55,1.48,2.78,3.04,4.1,3.17.3.03.97-.81.79-.99l-.77-.79c-1.19-1.23-2.15-2.8-.93-4.1.33,1.51,1.4,3.49,3.06,3.41.78-.04,2.12-1.31,2.55-1.83-4.06-3.39,2.12-3.85-2.86-7.03l-1.45-.93c-1.23-.78-2.76,3.14-2.56,5.04-.54-1.33-.72-2.63-.81-4.11-1.63.29-2.12,1.63-2.73,3.32l.1-3.48c-2.69-1.39-4.15-3.42-7.41-2-2.2.96.63,4.12.3,4.33l-.98.63c-.43.27-1.2,1.02-1.18,1.5.04,1.51,2.25,2.4,2.57,3.66l-2.48-1.26-3.19,3.4c1.03-3.32,3.51-2.68,1.74-6.28l1.91-2.35c-1.35-1.21-1.46-2.07-1.1-3.79-3.55-1.25-5.35.51-8,2.22l.03,3.19c-.56-1.49-1.11-2.49-2.61-2.9l-.57,3.27-.96-3.49-2.96-1.4c-1.52-1.56-2.88-2.2-5.34-2.4l1.9-1.09-3.09-4.36,1.49.37c-.09-3.41.61-6.64,1.69-9.93C3.43,3.05,1.15,6.94.53,11.29l1.07,3.28-1.33-1.26c-.37,2.39-.53,4.57.68,6.84.61-.29,1.22-1.41,1.49-2.16ZM27.67,37.21c.49.97,1.61,2.17,2.61,1.68.99-.49,2.25-1.49,2.78-2.53.48-.94-.42-2.96-.87-3.84l-2.45,1.17c1.16-1.51,2.51-2.96,2.63-4.63l-.69-3.61,1.71,3.84c-.66,1.57-.94,2.91.71,3.71l.42,2.68c1.84-1.55,5.44-2,5.58-.86l.21,1.71-1.32-.89c.29,1.81.03,3.14-.5,4.93l-.45,1.51c-.26.89-2.25-.35-3.85.36l.38,1.2-3.21-1.71-.09,1.62-2.09-3.26c-.61-.95-2.61-1.36-1.51-3.08ZM26.22,42.97l1.07-1.29,1.63,4.6c.17.48.44,1.58.32,2.04-.14.52-.95,1.1-1.67,1.54l-1.51-3.16-1.25,2.98c-1.34-.37-2.01-1.59-1.56-2.81l1.84-4.99,1.14,1.09ZM16.83,34.96l.96-1.48c-.11,2.77.73,2.72,3.52,5.08.36.3,1.59.68,1.93.38.41-.36.94-.97,1.48-1.59,1.04,1.79-1.12,2.09-1.7,3.1l-1.94,3.4.19-1.86-3.47,1.29c-.02-.7.05-.98-.17-1l-1.26-.13c-.58-.06-1.4-.17-1.84-.26-.67-.13-1.71-4.5-1.26-6.17l-1.31,1.25c-.1-.54.11-1.87.61-2.31,1.57-1.41,4.02.66,4.26.3Z"/>
      <path class="cls-1" d="M46.3,17.8l.13,2.28c-1.61,1.34-2.03,3.95-.45,5.62,4.77-4.12,7.45-6.02,6.18-12.79l-2.13,2.37,1.61-5.07c-.97-4.04-3.1-7.59-6.19-10.03,1.31,3.61,2.26,6.78,1.34,10.19l1.06.45-2.47,3.4,1.16.72c-1.73.37-2.97.94-4.23,2.33.89.73,1.89,1.55,2.62,2.02.38.24,1.25-1.14,1.37-1.49Z"/>
      <path class="cls-1" d="M32.01,52.65c-1.51,1.91-.63,4.13-.58,6.7,3.09-3.4,1.23-7.52.58-6.7Z"/>
      <path class="cls-1" d="M21.15,56.02c.06-1.19-.41-2.46-1.18-3.39-1.56,2.41-.54,4.89,1.01,6.85l.17-3.46Z"/>
      <path class="cls-1" d="M22.63,53.97c-.39.03-.87,1.22-.72,1.7.12.37.68.9,1.13,1.18.8-1.01.5-2.46-.41-2.88Z"/>
      <path class="cls-1" d="M29.8,54.12c-.99-.24-1.17,2.61-.33,2.62,1.21.01,1.42-2.36.33-2.62Z"/>
    </g>
  </g>
</svg>