<?xml version="1.0" encoding="UTF-8"?>
<svg id="Warstwa_2" data-name="Warstwa 2" xmlns="http://www.w3.org/2000/svg" viewBox="0 0 39.82 59.36">
  <defs>
    <style>
      .cls-1 {
        fill: #fff;
      }
    </style>
  </defs>
  <g id="icon-v10-loot-pixarts-store">
    <g id="icon-v10-loot-pixarts-store_306">
      <path class="cls-1" d="M.13,4.78c3.53,4.11,16.77,5.6,21.95,5.29-.64.8-1.71.88-2.93.89-6.68.07-13.1-.63-18.89-3.9-.82,2.81.82,4.84,3.48,5.75,10.46,3.55,22.18,3.37,32.67-.15,2.61-.88,3.91-3.42,3.23-5.53l-6.98,2.97-1.99,2.32-.26-2.16c-.05-.39-1.29-.23-1.84-.27-1.06-.22-1.12-.33-.04-.38l1.42-1.39c.3-.29,1.6.43,2.08.35,2.55-.42,5.64-1.76,7.74-3.63-2.16-2.41-4.43-2.96-7.63-3.59-.42.07-.46.28.04,1.11l-3.88-1.7C22.2-.55,4.93-.7.13,4.78ZM26.59,5.02c.9,2.06-13.69,2.84-13.38-.43,2.4-2.01,12.32-1.99,13.38.43Z"/>
      <path class="cls-1" d="M39.49,48.66c-.56-.83-2.07-1.88-2.9-2.11-.81,1.67-1.67,2.77-3.28,3.31-8.97,2.98-18.65,2.94-27.44-.45-1.46-.56-2.13-1.74-2.61-3.12-.69.16-2.59,1.55-2.38,2.36.59,2.27,3.04,3.22,5.32,4.24-2.01.2-4.19-.82-5.83-2-3.23,7.2,16.05,8.69,20.19,8.44l8.94-.55,1.11-4.01-7.74.15c2.34-.68,4.4-1.37,6.45-1.83,3.6-.8,7.82-.63,10.18-4.43Z"/>
      <path class="cls-1" d="M34.72,31.58c-6.75,1.73-17.66,1.52-22.66-3.52,8.56,2.21,13.83,4.66,22.58,1.79.36-.12-.12-1.37-.7-1.27-9.59,1.73-22.36-1.16-29.14-9.05-.52.87-.25,1.96.29,2.49l4.47,4.42-4.94-2.66.18,3.85c8.57,5.58,19.04,9.56,29.28,6.67.46-.13,1.26-.92,1.46-1.34.17-.35-.43-1.49-.84-1.39Z"/>
      <path class="cls-1" d="M31.67,17.39c-2.96,3.61-6.46,6.3-10.45,9.26,1.65.39,4.5,1.43,6.24.68,2.54-1.09,10.41-7.59,7.6-8.81-1.87,1.7-3.42,3.09-5.67,4.67l6.26-7.54c-1.9-.53-2.98.51-3.98,1.73Z"/>
      <path class="cls-1" d="M4.95,42.89c-.22.13.04,1.17.29,1.14,5.06-.65,11.04-3.98,15.1-7.42-.91-.49-2.82-1.1-3.6-.58l-5.15,3.43c.68-2.17,2-2.4,3.96-4.34-.5-.21-1.81-.69-2.42-.88-2.33,2.15-4.64,3.69-7.26,5.25l-.96.57c-.22.13.32,1.13.56,1.06l5.38-1.74c0,1.42-4.03,2.39-5.9,3.5Z"/>
      <path class="cls-1" d="M27.08,37.23c-1.37-.48-2.95-.43-4.51-.06-4.58,3.92-10.53,6.86-16.13,8.33-.39.1-1.11.98-.84,1.07,3.92,1.22,18.08-4.9,21.48-9.34Z"/>
      <path class="cls-1" d="M35.41,43.42c-.19-.24-.63-.68-.92-.85l-5.37-3.23c-.4-.24-1.34-.32-1.75-.14-.33.14-.74,1.26-.5,1.63l4.66,6.98c.87.19,2.65-.92,2.34-1.47l-2.74-2.74,3.5,1.51c.4.17,1.05-1.36.79-1.67Z"/>
      <path class="cls-1" d="M39.61,51.28c-2.69,1.48-5.29,2.33-8.36,3.02l-.17,4.24c4.22-1.57,9.8-2.77,8.53-7.26Z"/>
      <path class="cls-1" d="M4.14,15.47c.11,3.7,7.12,7.17,9.91,9.08l2.36-1.28c-3.75-2.08-6.23-3.67-8.9-6.45-.81-.84-1.94-1.31-3.37-1.36Z"/>
      <path class="cls-1" d="M26.65,17.39c-2.99,3.1-6,5.43-9.94,7.65,1.89,4.06,11.7-6.43,13.51-8.29-1.19-.11-3.03.08-3.57.64Z"/>
      <path class="cls-1" d="M29.51,48.61c-.12-.31-.33-1.22-.49-1.5l-3.58-6.24c-.69.32-1.77,1.34-1.53,1.82.87,1.78,2.43,4.86,3.33,6.34.21.34,2.42-.05,2.27-.43Z"/>
      <path class="cls-1" d="M26.48,49.22l-6.88-3.26c-.77-.69-1.83-.93-2.87-.25,2.6,2.51,5.89,4.86,9.75,3.51Z"/>
      <path class="cls-1" d="M9.58,16.85c2.81,2.41,5.36,4.61,8.82,5.28-3.35-3.28-4.81-6.11-8.82-5.28Z"/>
      <polygon class="cls-1" points="5.02 38.24 9.11 36.05 5.11 32.9 5.02 38.24"/>
      <path class="cls-1" d="M35.15,39.22c.08-.65-5.47-3.32-6-1.74l5.75,3.7.25-1.96Z"/>
      <path class="cls-1" d="M11.48,33.69l-6.55-4.16c-1.18,1.66,6.83,7.22,6.55,4.16Z"/>
      <path class="cls-1" d="M19.57,49.76l-4.03-2.92c-.35-.25-1.65-.32-1.66.06,0,.39.17,1.18.47,1.72.84,1.53,3.54,1.45,5.22,1.13Z"/>
      <path class="cls-1" d="M35.48,24.23c.02-.3-.34-1.09-.48-.99-.14.1-.59.42-.73.55l-4.02,3.97c2.81.31,5.1-1.5,5.23-3.54Z"/>
      <path class="cls-1" d="M20.47,19.35c-1.29-1.44-2.66-2.64-4.73-1.56l4.2,2.96c.21.15,1.46-.36,1.28-.56l-.75-.84Z"/>
      <path class="cls-1" d="M20.07,44.37l3.57,1.75c-.2-1.27-.61-2.49-1.29-2.9-.46-.28-1.69.57-2.28,1.15Z"/>
    </g>
  </g>
</svg>