<?xml version="1.0" encoding="UTF-8"?>
<svg id="Warstwa_2" data-name="Warstwa 2" xmlns="http://www.w3.org/2000/svg" viewBox="0 0 54.03 56.57">
  <defs>
    <style>
      .cls-1 {
        fill: #fff;
      }
    </style>
  </defs>
  <g id="icon-v10-loot-pixarts-store">
    <g id="icon-v10-loot-pixarts-store_98">
      <path class="cls-1" d="M53.74,10.7c-.66-1.37-2.63-2.26-3.91-3.16l3.07-.81c.25-.07,0-1.04-.23-1.14l-.9-.35.6-4.8-4.78,1.23-.53-1.11c-.12-.24-.98-.22-1.07.04-.09.26-.23.88-.27,1.18l-.24,2.12-3.05-3.27c-.42-.45-1.77-.79-2.37-.56-2.42.94,0,1.9-6.19,2.13-5.03.18-9.4,2.58-13.28,5.39-.45.03-1.38-.15-1.5.2l-.51,1.48c-.89-.42-1.78-.86-2.45-.74-.78.14-1.44.98-1.35,1.84.06.52.61,1.13,1.32,1.93l-2,.54c.02.19.19,1.21.21,1.6-4.53,8.48-5.51,16.13.07,24.57l-1.62.98c-.48-2.35-1.06-4.17-2.04-6.35-1.07.55-1.17,1.78-.6,2.45,4.76,5.67-5.52,9.59-8.69,12.04C-.08,50.4-.09,53.74.07,56.56c2.82.02,5.92-.35,8.21-1.96,1.47-2.24,2.73-4.93,4.1-7.33,1.39-2.44,4.35-3.7,6.8-2.15.43.27,1.17.71,1.56.69.33-.02.76-.4,1.19-.77-1.95-1.27-3.65-1.72-6.06-2.18l1.2-1.55c8.53,5.26,17.24,3.8,24.93-2.12l1.92-.07.26-2.12c1,.59,1.66,1.04,2.33.95.63-.08,1.42-.96,1.52-1.61.08-.56-.42-1.39-.9-2.11l1.74-.84-.54-1.21c3.35-4.89,4.79-10.9,3.83-16.74,1.26-1.29,2.44-2.94,1.58-4.74ZM6.7,53.48l-4.35.74c.2-3.67-.39-4.94,2.96-6.17-1.38,1.35-2.05,2.53-1.39,4.61l3.96-.83-1.17,1.65ZM48.91,2.97l1.39-.08c.34-.02.05.89-.04,1.77-.07.66-.98,1.3-1.64,1.36v-1.79s-1.65.72-1.65.72c-.35-1.14.73-1.92,1.94-1.98ZM41.55,1.74c.62.19,1.33,1,1.79,1.97l-4.37-1.35c.61-.77,1.58-.93,2.58-.62ZM49.72,22.65c-2.54,11.87-14.77,22.03-26.18,19.06-6.6-1.72-10.95-7.84-10.63-14.88.48-10.72,8.69-19.97,19.18-22.12,5.2-1.07,10.4.31,14,4.06,3.52,3.68,4.71,8.84,3.63,13.88ZM51.98,14.04l-2.41-4.93,2.63,1.58c.26,1.15.23,2.31-.22,3.35Z"/>
      <path class="cls-1" d="M25.72,21.24l-.07.97c.56,0,1.7-.1,2.04-.54.36-.46.75-1.63.81-2.21l-2.17-1.54-.17,1.32-.84-2.77,2.93,1.56c1.51-.48,2.96-2.03,2.64-3.52l-.95-4.57c1.8,1.8,3.97,1.46,6.41.46l1.28-4.5c-10.06-1.42-20.29,6.99-22.71,16.57l8.18-.13c.93-.01,1.97-.57,2.62-1.1Z"/>
      <path class="cls-1" d="M33.58,19.47c.67-1.21.99-2.2,1.33-3.47l1.24-4.7c-2.35.29-3.46.35-5.42.09l1.5,5.3c.3,1.06.72,1.9,1.36,2.78Z"/>
      <path class="cls-1" d="M38.28,26.04c-.54-.68-1.41-1.42-2.71-1.18l1.94,6.06,1.8-1.51c-2.61,4.05-.44,3.1-.58,7.47l-2.05-5.93c-.25-.73-1.69-.81-2.27-.53-.87.43-1.08,1.11-1.63,2.18v-5.46c-1.03,1.12-1.82,2.02-2.22,2.97l-1.99,4.7,3.92-.54c-1.48.6-3.37.99-4.59,1.94l-1.96,4.37c.28-4.7,2.67-4.24.95-8.53l1.34,1.55,2.76-6.49c-1.26-1.19-3.15-1.05-4.59-.01l-2.04,1.47c1.34.98,2.13,2.03,2.52,3.54-.97-.98-1.95-2.8-3.4-2.96-1.76-.19-2.93,1.55-4.6,1.93l2.47-2.04c.46-.38,1.2-.58,1.25-1l.24-1.88.72,1.66,7.02-4.41-7.77-.39c-.25.25-.56.71-.74.61-.14-.07-.63-.46-.79-.47l-2.69-.13-3.75-.18c-.93,3.23-.83,6.33.13,9.54l1.7.02s.05,0,.07,0h-.07c-.35.03-1.36.52-1.18.99,1.59,4.25,6.35,7.3,11.1,7.54,7.94.4,15.92-5.2,19.72-12.46l-4.71-1.56c-.91-.3-1.94-1.52-3.31-.85Z"/>
      <path class="cls-1" d="M16.65,32.37h.07s-.05,0-.07,0Z"/>
      <path class="cls-1" d="M38.43,6.1c-.61,1.77-1.81,3.91-1.51,5.75.31,1.92,2.92,2.81,4.39,3.13.59-.58,1.19-1.26,1.61-1.54l3.09-2.03c-1.21,2.89-5.02,2.23-4.54,7.21l-.78-1.64c-.48.45-1.16,1.11-1.37,1.63-.22.56.34,2.01.75,2.23l6.35-.87-3.83,1.43c-.52,1.12-.85,3.33-.41,4.41l4.24,2.31c1.87-3.47,2.79-7.19,2.23-11.08-.79-5.49-4.71-9.88-10.21-10.94Z"/>
      <path class="cls-1" d="M36.44,13.1c-.25.68-.66,2.03-.46,3.02.15.77,1.59,1.33,2.44,1.59l2.03-2.04c-1.68-.83-2.61-1.43-4.01-2.58Z"/>
      <path class="cls-1" d="M31.99,20.83c-.11-1.98-.3-3.05-.61-4.46l-2.77,2.1c1.01.83,1.76,1.39,3.38,2.35Z"/>
      <path class="cls-1" d="M41.46,25.43l.12-3.43c-1.24-.39-2.11.44-2.22,1.63-.09,1,.93,1.87,2.1,1.8Z"/>
      <polygon class="cls-1" points="34.49 26.16 33.71 29.92 35.9 29.4 34.49 26.16"/>
      <path class="cls-1" d="M38.35,18.98c-.84.91-1.17,1.36-1.68,2.56l2.67-.32-.99-2.24Z"/>
      <path class="cls-1" d="M37.6,18.31l-2.15-1.43c-.41.97-.14,1.91.71,2.69l1.44-1.25Z"/>
    </g>
  </g>
</svg>