<?xml version="1.0" encoding="UTF-8"?>
<svg id="Warstwa_2" data-name="Warstwa 2" xmlns="http://www.w3.org/2000/svg" viewBox="0 0 54.77 60.81">
  <defs>
    <style>
      .cls-1 {
        fill: #fff;
      }
    </style>
  </defs>
  <g id="icon-v10-loot-pixarts-store">
    <g id="icon-v10-loot-pixarts-store_127">
      <path class="cls-1" d="M17.28,16.92l-4.57,3.61,2.88.75-3.39,5.02h3.21s-2.76,6.11-2.76,6.11l5.19-1.53c-.81,1.92-1.5,3.42-1.62,6.01l4.72-2.82c-.54,2.44-.89,4.33-.96,7.05l4.1-2.39.22,7.65,3.07-3.38-.04,5.78,2.4-2.15.58,1.97c3.41-2.95,5.1-6.59,5.28-11.03l1.86,2.03c.28-1.8.13-3.48-.18-5.53l1.74,1.25c-.32-2.57-1.33-4.64-.22-6.92.68-1.4,2.23-1.97,3.65-3.31l-6.02-2.34c1.5-2.78,4.88-2.3,6.99-3.69,1.57-1.04,2.18-3.88,4.76-4.06,1.35-4.86-10.14-8.38-14.34-8.69l-3.74-.28c-3.72-.28-6.5-3.56-8.96-6.04-.69,2.66.12,5.68,1.76,7.88l2.89,2.89c-2.65-.78-4.38-.59-6.51,1.36l2.17.73-2.96,2.19c-.27.68-.72,1.48-1.22,1.87ZM44.24,16.84l-4.07.62c-.89.14-2.14-.59-2.17-1.6-.06-2.17-1.43-1.98-3.28-3.5,4.39.16,5.62,2.84,9.53,4.48Z"/>
      <path class="cls-1" d="M12.3,13.59l-3.04-7.37-2.22,7.69L0,17.91c7.65,11.62.05,23.52,12.75,34.01,3.05,2.52,5.82,5.05,8.33,8.2l8.27-8.05-2.98.94.11-1.94-2.16.96,1.49-4.85-3.28,1.57.31-7.24-3.92,1.92c-.42-2.41-.4-3.92-.09-5.81l-3.95,1.55c-.11-2.11.02-3.64.29-5.68l-4.58,1.15c.52-2.23,1.28-4.19,2.26-6.36l-2.99.34c1.04-2.62,1.98-4.24,3.21-6.12l-3.16-1.79,4.26-3.07-1.45-.72,2.74-1.54-3.16-1.79Z"/>
      <path class="cls-1" d="M37.56,55.26c.17-1.87,2.57-3.18,3.82-4.49,1.99-2.09,3.98-3.93,6.36-5.48l-.2-1.19,2.97.08c-.5-.83-1.7-1.85-2.67-1.99-.97-.14-2.07.56-2.86,1.24l-3.55,3.06c-.66.57-2.39,1.89-3.17,1.5l-3.19-2.4-1.99,3.07c1.84,1.23,2.75,1.98,2.54,3.86-.14,1.21-1.04,2.17-2.38,3.4.37.81,1.04,2.15,1.54,3.08.86,1.61,2.76,2.39,4.13,1.39-.95-.54-2.2-1.56-1.9-2.22.54-1.21.47-1.97.55-2.89Z"/>
      <path class="cls-1" d="M48.35,15.6c-1.64,1.58-2.75,2.96-4.07,4.58l-5.86,1.83c4.56.28,13.62-.07,13.32,7.53,2.07-2.11,3.98-5.44,2.52-8.4-1.22-2.48-3.52-4.12-5.91-5.55Z"/>
      <path class="cls-1" d="M46.9,52.78c.48.54,1.53-.05,2.36-.85l1.79,3.8c.96-1.85.51-3.39-.39-4.92-1.44-2.43-5.91-2.06-6.44-1.56-.33.31-.63,1.24-.56,1.4,1.59.59,2.21.97,3.25,2.13Z"/>
      <path class="cls-1" d="M49.81,25.89c-2.95-2.36-6.21-3.21-9.31-3.04,2.8,2.26,5.94,3.66,9.31,3.04Z"/>
      <path class="cls-1" d="M29.98.4c-.24,1.34-.24,2.61-.04,4.26l4.93.85L29.98.4Z"/>
      <path class="cls-1" d="M47.6,47.78c2.65.03,2.51-1.02,4.68,1.87.46-1.12.11-2.42-1.08-3.34-.73-.57-1.94-.09-3.11.6l-.75.44c-.14.08.1.43.26.44Z"/>
    </g>
  </g>
</svg>