<?xml version="1.0" encoding="UTF-8"?>
<svg id="Warstwa_2" data-name="Warstwa 2" xmlns="http://www.w3.org/2000/svg" viewBox="0 0 36.11 59.01">
  <defs>
    <style>
      .cls-1 {
        fill: #fff;
      }
    </style>
  </defs>
  <g id="icon-v10-loot-pixarts-store">
    <g id="icon-v10-loot-pixarts-store_01">
      <path class="cls-1" d="M25.33,24.6c-1.19-3.73-1.75-7.78,0-11.1.81-1.55,2.15-3.99.85-5.36-.32-.34-1.23-.7-1.57-.76-.34-.07-.44,1.4-.83,1.58-3.07,1.36-8.27,1.87-11.41-.18-.3-.19-.56-1.44-.91-1.41-.35.04-1.26.44-1.55.82-1.2,1.5.14,3.93.95,5.6,1.06,2.19,1.96,9.72-1.45,11.57C2.9,28.87-.66,35.81.1,43.13c.7,6.76,5.5,12.69,12.28,14.94,9.27,3.08,19.17-1.64,22.55-10.58,3.36-8.88-.66-18.82-9.61-22.88ZM32.09,47.37c-3.25,7.32-11.86,11.24-19.53,8.11-5.56-2.27-9.33-7.41-9.82-12.96-.54-6.12,2.45-11.64,7.79-14.76,1.84-1.08,3.32-2.27,3.62-4.59.41-3.25.4-6.53-.85-9.56,3.22.8,6.22.73,9.46-.02-1.46,3.23-2.22,11.54,1.9,13.59,7.65,3.8,10.8,12.6,7.42,20.2Z"/>
      <path class="cls-1" d="M11.87,1.46c.42,2.12,1,4.32,1.74,6.43,2.95,1.11,6.38,1.33,9.1-.36l1.56-6.19c-4.07-1.9-8.24-1.7-12.4.12Z"/>
      <path class="cls-1" d="M18.51,40.91c-4.03-2.18-9.29-5.85-13.45-1.69-1.28,5.97,2.33,11.45,7.63,14.06,4.36,2.14,9.24,1.48,13.19-1.36,3.42-2.45,5.7-6.85,5.24-11.53-3.67,2.76-8.55,2.72-12.62.53Z"/>
      <path class="cls-1" d="M17.68,38.46c3.87,3.01,10.12,3.54,13.11-.07-3.37-3.16-9.52-1.62-13.11.07Z"/>
      <path class="cls-1" d="M13.73,35.18c1.26,0,2.28-1.02,2.28-2.28s-1.02-2.28-2.28-2.28-2.28,1.02-2.28,2.28,1.02,2.28,2.28,2.28Z"/>
      <path class="cls-1" d="M18.13,28.58c.82,0,1.48-.66,1.48-1.48s-.66-1.48-1.48-1.48-1.48.66-1.48,1.48.66,1.48,1.48,1.48Z"/>
      <path class="cls-1" d="M21.96,33.78c.61,0,1.1-.49,1.1-1.1s-.49-1.1-1.1-1.1-1.1.49-1.1,1.1.49,1.1,1.1,1.1Z"/>
    </g>
  </g>
</svg>