<?xml version="1.0" encoding="UTF-8"?>
<svg id="Warstwa_2" data-name="Warstwa 2" xmlns="http://www.w3.org/2000/svg" viewBox="0 0 49.13 62.15">
  <defs>
    <style>
      .cls-1 {
        fill: #fff;
      }
    </style>
  </defs>
  <g id="icon-v10-loot-pixarts-store">
    <g id="icon-v10-loot-pixarts-store_86">
      <path class="cls-1" d="M34.49,4.81l-.99-.48,1.25-.57c-5.21-5.38-13.64-4.85-17.96.77-4.43,5.77-2.98,14.2,3.73,17.6,5.5,2.8,12.57.75,15.8-4.42,2.72-4.35,2.06-9.64-.88-13.44-.41.27-.73.64-.95.53ZM16.9,11.46c0-.25.15-.73.3-.92l.75-.93c.26-.32-.36-.49-.51-2.16-.03-.33,1.11-.32,1.3-.04.17.26.52,1.21.78,1.07l1.21-.64c.38-.2.71-.36.94-.45.23-.09.75.61.63.83-.12.22-.45.64-.67.8l-1.01.77c-.21.16.22.78.43,1.16l.54,1.01c.1.19-.45.76-.64.67-.25-.13-.76-.45-.97-.65l-.95-.93c-.2-.2-.83.37-1.12.56-.2.13-1,.09-1.01-.16ZM30.55,17.68c-.1.16-.39.61-.48.71l-1.74,1.83-1.57-.91c-.45-.26-1.44.81-1.79,1.17l-1.49-1.27c-.41-.35-1.72.48-2.11.67l-.8-1.55c-.18-.34-1.37.09-1.7.29l-1.51-2.7c.89-.02,1.77-.15,2.63-.39l.25,1.28c.06.29.85.53,1.05.32l.97-1.03.18,1.33c.05.37,1.14.92,1.36.62l1.04-1.45c-.05-.1.33.73.49,1.08.15.33,1.38.76,1.57.45.19-.31.32-.84.49-1.43.85.59,1.69.96,2.53.91.57-.04.71-.06.64.05ZM29.81,15.45c-2.26,0-4.09-1.83-4.09-4.09s1.83-4.09,4.09-4.09,4.09,1.83,4.09,4.09-1.83,4.09-4.09,4.09ZM35.45,16.37c1.15-3.84.95-7.22-.6-10.89,2.56,3.21,3.06,7.64.6,10.89Z"/>
      <path class="cls-1" d="M21.69,24.37l-3.08-1.26c-3.29,4.11-5.8,8.7-6.2,14.02-.67,8.95,8.57,12.28,9.34,10.53l.76-1.71c.42-.1,1.4-.05,1.58-.41l.68-1.38,2.07.46c.44.1,1-.72,1.41-1.22.97.89,2.1,2.12,3.47.91l-3.48-4.06c.13-.32.59-1.02.89-.98.24.04.79.28,1.02.43l2.72,1.83c.93-6.32-.23-6.04-2.54-9.26-.22-.3-1.07-.71-1-1.04l.26-1.23-.94-1.43c.38-.93.5-1.64.53-2.49l1.27-1.72c-2.76.58-5.1.78-7.9.31l-1.15,2.47,1.43.42c.16.05.06.5-.1.51l-.84.07c-.64.06-1.71,1.06-1.77,1.86-.04.54.71,1.01,1.52,1.82l-1.75.07c-.46.02-1.51,3.34-.32,4.56-.46.25-1.22,1.22-1.13,2.05.06.59.77,1.11,1.71,1.88l-1.35.5v4.41s-.83-3.16-.83-3.16c-.32-1.23-.53-1.92-1.85-2.96.86-.3,1.61-.63,1.63-1.21.04-.81-.66-1.92-1.12-2.3.81-.49,1.41-1.24,1.65-2.29.27-1.18.17-2.05-.77-2.82.89-.44,1.61-.85,2.16-1.39l-1.5-.73c1.82-1.01,2.79-2.29,3.54-4.07Z"/>
      <path class="cls-1" d="M29.12,45.9l-.94,1.25c-.21-.42-.92-1.34-1.35-1.23-.43.1-.84.86-1.13,1.45l-1.19-.58c-.3-.15-.58,1.25-.58,1.53l-1.07.29c-1.05.28.06,7.32.31,9.01.47,3.2,3.23,4.94,6.12,4.46,1.73-.29,3.62-1.68,3.45-3.82-.28-3.55-1.23-8.14-2.08-11.42-.1-.4-1.31-1.23-1.53-.94ZM29.26,57.75l-1.07-.72c-.3-.2-.69.67-1.09,1.66l-1.1-.64-1.69.17,1.86-2.71c.17.17.97.98,1.28.74l1.55-1.21,2.85,1.49c-.98.3-1.87.71-2.58,1.22Z"/>
      <path class="cls-1" d="M36.52,26.17c-.92-1.13-3.69-1.73-4.79-.98-.17.15-.1.92-.32,1l-.85.32c-.21.08.05.86.26.96l1.09.56-1.19,1.27c-.29.31.89.82,1.53.91l-.7,1.83c2.62,2.32,5.02,4.14,7.93,5.45,0-1.33-.19-2.3-.43-3.1.34-.06,1.55-.59,1.56-1.06.01-.41-.42-1.1-.77-1.76,3.34.47,1.74-1.11,3.81-.86.13.02.17.36.06.45l-.46.41c-.21.19-.71.55-.61.75l.55,1.06c-.07.12-.27.5-.23.41l-1.28-.21c-.29-.05-.81.87-.62,1.09l1.02,1.12-1.67.5c-.34.1-.41,1.59-.08,1.71.72.26,2.34.66,3.11.62,2.01-.12,3.05-2.18,3.28-3.57.34-2.02-.78-3.11-2.17-4.36-1.65-1.48-3.42-2.93-5.54-3.54l-2.45,1.69c-.33.23-1.23-.98-1-1.31l.95-1.39Z"/>
      <path class="cls-1" d="M8.05,58.74c2.33,1.36,4.58.56,5.93-1.55,1.59-2.49,3-5.06,3.76-7.82-2.79-1.5-4.21-3.35-5.99-5.94l-4.84,8.29,1.57,1.19c.31.24,1.08-.58,1.44-.81.1,1,.19,1.85.67,2.07.71.32,1.48.08,2.03-.3l.55,2.29-1.83.05c-.24-.61-1.07-1.71-1.46-1.52-.33.16-.7.39-1.55.89-.03-1.07-.49-2.64-1.7-2.34-.8.2-.95,2.24-.68,3.21.22.8,1.2,1.77,2.1,2.3Z"/>
      <path class="cls-1" d="M12.04,32.01c1.31-3.49,2.88-6.04,4.8-9.08-2.3.28-4.01.65-5.8,1.11l.68,2.03c.09.28-.82,1-1.07.83-2.29-1.5-.74-1.33-2.5-2.08-1.98.64-4.72,1.53-6.45,2.89-1.37,1.07-.97,3.02-.45,4.18,1.77,4.03,7.6,1.15,10.8.12ZM4.1,26.74l.98,3.64,1.01-.08c.25-.02-.08.8-.26,1.08l.2,1.9-2.64-1.69c1.29-2.8-.42-2.26.7-4.85Z"/>
      <path class="cls-1" d="M49.13,17.43c0-1.45-1.17-2.62-2.62-2.62s-2.62,1.17-2.62,2.62,1.17,2.62,2.62,2.62,2.62-1.17,2.62-2.62Z"/>
      <circle class="cls-1" cx="2.64" cy="14.58" r="2.64"/>
      <path class="cls-1" d="M39.51,51.39c1.33,0,2.4-1.08,2.4-2.4s-1.08-2.4-2.4-2.4-2.4,1.08-2.4,2.4,1.08,2.4,2.4,2.4Z"/>
      <path class="cls-1" d="M36.64,27.61c1.22-.5,8.99-6.89,7.57-7.93-.26-.19-1.05.07-1.32.38-2.02,2.34-4.22,4.7-6.25,7.55Z"/>
      <path class="cls-1" d="M10.12,24.86c-1.29-2.86-3.03-5.2-4.78-7.92l-1.44.79c1.92,2.54,3.62,4.83,6.21,7.13Z"/>
      <path class="cls-1" d="M37.38,46.96c.8-.48-6.79-6.2-7.73-6.55,1.9,2.74,4.56,4.84,6.97,7l.77-.46Z"/>
      <path class="cls-1" d="M11.11,39.91l-.12-1.32c-2.21,1.01-4.15,1.98-6.2,3.16,1.23.13,6.35-1.52,6.32-1.84Z"/>
      <path class="cls-1" d="M29.65,10.56l-1.91,1.72c-.19.18.57.8.82.66l1.14-.66c.29-.17.88-1.01.64-1.19l-.69-.52Z"/>
    </g>
  </g>
</svg>