<?xml version="1.0" encoding="UTF-8"?>
<svg id="Warstwa_2" data-name="Warstwa 2" xmlns="http://www.w3.org/2000/svg" viewBox="0 0 56.13 42.25">
  <defs>
    <style>
      .cls-1 {
        fill: #fff;
      }
    </style>
  </defs>
  <g id="icon-v10-loot-pixarts-store">
    <g id="icon-v10-loot-pixarts-store_179">
      <path class="cls-1" d="M54.06,9.02c-1.97-4.68-8.23-6.52-12.65-7.51-1.43.48-3.06,1.6-4.47,1.4-1.65-.24-2.56-.97-2.97-2.64-7.81-.57-15.81-.39-23.14,2.55-.93.38-1.63,1.18-2.85,1.32-2.43.28-5.16,2.39-5.85,4.84-.87,3.1,1.52,6.18,4.2,7.23l2.47-.52c1.71-.36,2.96.83,2.99,2.6,7.26,2.84,14.84,3.22,22.57,2.26l-3.09-4.55-3.55-5.75c.91-1.83,2.34,1.71,5.57-1.11.57.86,1.41,1.86,2.28,2.1l14.86,4.01c2.13-.25,4.49-4.17,3.62-6.22ZM21.01,15.96c-.79-.07-1.93-.48-2.48-1.02.61-1.55,3.05-2.05,4.21-.4.34.49-1.1,1.48-1.73,1.42ZM24.19,5.34c-1.88,1.44-5.02,1.38-6.27-.28.77-2.2,4.1-2.47,5.96-1.48.35.19.64,1.5.31,1.75ZM45.95,9.73c-.82.15-2.63-.57-2.69-1.38.8-1.76,3.65-1.67,4.92-.12-.52.68-1.59,1.38-2.23,1.5Z"/>
      <path class="cls-1" d="M.54,26.53c.51,6.9,2.64,10.53,9.65,12.65,9.5,2.88,14.77,3.54,24.79,2.78.36-.95.95-3.14.23-3.66-1-.72-2.45-1.35-2.72-2.04-1.02-2.62.51-4.77,3.16-5.56.22-2.95.01-5.71-.7-8.66-7.48,1.71-16.4-.1-23.74-1.71-1.17,1.41-2.48,1.64-4.09,1.2-1.43-.38-1.05-2.42-1.83-3.29L.72,13.12l-.72,6.22c2.5.96,3.11,4.15,2.03,5.93-.28.27-1.12.94-1.49,1.25ZM19.36,27.58c.62-2,2.79-2.93,4.73-2.07,1.64.73,2.9,3.31,1.51,5.05-.59.74-2.55,1.58-3.47,1.51-2.45-.18-3.35-2.66-2.78-4.5ZM7.59,29.76c.44-.52,2.06-.59,2.68-.22,1.6.96,1.93,4.47.4,5.47-.53.34-1.94.18-2.45-.29-1.42-1.3-1.89-3.46-.63-4.95Z"/>
      <path class="cls-1" d="M50.31,21.68l-.62-4.5-10.16-2.99c-2.79-.82-5.5-1.5-8.4-1.73,5.98,9.72,6.07,6.52,6.04,16.97,0,1.2-.16,1.92-.45,3.43l8.09,2.32c1.59.46,2.89.76,4.75,1.11,2.26-9.53-1.97-6.28-1.65-10.78.11-1.59.98-2.78,2.41-3.83ZM41.7,23.14c-1.43.34-2.58-.85-2.97-1.93-.48-1.31-.25-2.88,1.05-3.54,1.65-.83,3.28.23,3.75,1.66.46,1.39-.1,3.4-1.83,3.8ZM45.47,32.27c-.96.31-1.86-.35-2.02-.87-.22-.7.03-2.29.67-2.38.95-.14,1.8.45,2.01.97.25.61.05,2.05-.67,2.28Z"/>
      <path class="cls-1" d="M51.74,17.11v5.56c-1.63.74-2.15,1.67-2.19,3.25-.03,1.25.84,2.07,2.18,2.77.17,2.21,0,4.58-.23,7.08,3.03-1.42,3.5-4.02,3.74-6.83l.18-2.05c.03-.38-.96-.77-1.17-1.12-1.14-1.86,0-4.06,1.88-5l-1-7.67-3.39,4.01Z"/>
    </g>
  </g>
</svg>