<?xml version="1.0" encoding="UTF-8"?>
<svg id="Warstwa_2" data-name="Warstwa 2" xmlns="http://www.w3.org/2000/svg" viewBox="0 0 50.75 59.4">
  <defs>
    <style>
      .cls-1 {
        fill: #fff;
      }
    </style>
  </defs>
  <g id="icon-v10-loot-pixarts-store">
    <g id="icon-v10-loot-pixarts-store_203">
      <path class="cls-1" d="M45.65,55.87c1.4-.12,3.74-.74,4.49-1.92,1.2-1.9.34-4.29-.21-6.15l-2.13,1.99c1.13-3.44,2.51-6.4,2.09-9.93-.7-5.76-3.53-11.04-7.8-15,.3,2.17,1.66,4.33.89,6.48-.47,1.31-3.36,1.66-4.34.61-.8-.86-.86-2.55-1.29-3.69-.72,2.84-.91,5.62-2.46,7.89-.7,1.03-2.58.43-3.35-.06-4.2-2.67,2.18-5.01-.75-12.54-3.77.54-7.14.65-10.83-.12l-2.33,4.09c.65.98.95,1.58.93,2.47l-1.76-.68c-.45.27-1.46,1.71-1.23,2.19l1.17,1.05c.2.18-.17,1.2-.39,1.15l-1.84-.63-1.67,4.41,2.29.52c-.5,1.27-1.3,1.39-2.53,1.59-.55,2.35-.57,5.04-.44,7.63l2.45.86c.09.29.11,1-.15,1.05l-1.65.37.37,1.79c.1.47,1.41.68,1.95.75.25.03.67.87.43.98l-1.37.66,2.79,4.38c10.15,2.19,18.19,2.9,24.07-6.93-.12,1.94-.84,3.49-1.67,5.31l6.29-.55Z"/>
      <path class="cls-1" d="M.85,53.99c1.94,1.68,4.96,1.5,7.39,1.72l-1.32-2.52c2.75,1.79,5.09,3.57,8.16,4.26l-2.5-3.65c-.58-.84-2.08.1-2.45-1.5-.07-.29.88-.61,1.24-.75.63-1.22-.75-3.09-2.16-3.51-.31-.09-.55-1.52-.24-1.48l1.42.19.26-7.08-1.64-.5c.09-.4.21-1.16.49-1.22l1.52-.31,1.69-4.69c-4.8-1.85,2.97-1.18,1.89-4.1-.27-.2-1.27-.68-1.04-.88.24-.2.72-.54.97-.59l1.62-.3,2.37-3.71-5.19-2.28C7.21,25.73,1.98,31.88.71,39.78c-.63,3.93,1.01,7.18,2.75,10.49l-2.51-1.67c-.71,1.37-1.67,4.02-.1,5.39Z"/>
      <path class="cls-1" d="M16.02,12.41c1.24,1.03,3.26,1.37,4.93,1.61l-1.61-5.37c1.54,1.51,2.29,3.54,3.21,5.61,2.34,1.04,11.23-.99,12.65-2.25,1.93-1.72,3.73-2.53,6.49-2.92-1.66-3.28-3.24-5.96-7.26-4.49l-2.12,2.59c-1.04,1.27-1.85,2.42-2.57,3.72.12-.89.2-2.03.46-2.57l2.53-5.18c.27-.55-.12-1.73-.7-2.05-3.31-1.86-7.01-1.34-9.85,1l-4.35,3.59c-1.6,1.32-3.94,1.71-5.76,1.04,2.18-.81,4.1-1.51,5.17-3.12-3.41-1.17-6.29.79-8.07,3.07l6.86,5.71Z"/>
      <path class="cls-1" d="M33.03,19.19c-.47.29-1.19,1.38-1.04,1.92l.92,3.38,1.02-.03c-.75.99-1,2.14-.66,3.4l2.18-.84-.61-5.03,2.77,3.17,1.64-1.92c-1.42-1.47-4.3-5.2-6.22-4.04Z"/>
      <polygon class="cls-1" points="22.41 16.16 23.46 18.81 28.19 18.44 27.27 16.14 22.41 16.16"/>
      <path class="cls-1" d="M21.98,21.98c1.62.2,3.19.24,4.8.1-.09-.62-.61-2.18-1.2-2.24l-4.4-.46c.16.79.45,1.78.8,2.6Z"/>
      <path class="cls-1" d="M17.91,15.24c-.1.6-.12,2.03.35,2.42,1.03.86,2.71,1.07,4.14.99l-.72-2.74-3.77-.67Z"/>
      <path class="cls-1" d="M28.1,15.99l1.13,2.39,4.72-1.36c-2.64-2.45-2.57-1.58-5.86-1.03Z"/>
      <path class="cls-1" d="M17.41,20.82c.9.48,2.46.84,3.43,1.03l-.43-2.74-3.34-.84c-.15.68-.2,2.27.34,2.56Z"/>
      <polygon class="cls-1" points="27.89 22.17 30.63 21.71 31.32 19.08 26.87 19.8 27.89 22.17"/>
      <path class="cls-1" d="M35.39,27.86c-1.83.61-2.86,1.16-2.52,3.26l2.29-.12.23-3.14Z"/>
      <path class="cls-1" d="M13.85,18.89l2.03,1.57c.15-2.13,2.1-4.98.81-5.87-.43-.29-1.84-.45-2.09,0-.39.71.51,2.04.97,2.38-.68.13-1.13.21-1.5.34-.31.11-.48,1.37-.23,1.57Z"/>
      <path class="cls-1" d="M31.78,34.1l2.05.82.96-2.91c-2.15-.35-2.82.49-3.01,2.1Z"/>
      <path class="cls-1" d="M39.46,29.66c.2.51.51.97.78,1.17.22.17,1.29-.32,1.28-.64-.04-.75-.47-2.45-.71-2.93-1.32.56-1.74,1.36-1.34,2.39Z"/>
      <path class="cls-1" d="M38.87,27.68l1.78-1.41-1.33-2.23c-1.25,1.25-1.19,2.5-.45,3.63Z"/>
      <path class="cls-1" d="M32.99,15.18c.81.59,1.4,1.02,1.81,1.13.41.11,1.46-.97,1.26-1.42-.53-1.18-2.89-.6-3.07.29Z"/>
      <path class="cls-1" d="M36.38,17.28c-.56-.13-1.6.39-2.03.85l2.32.82c.09-.49.07-1.59-.29-1.67Z"/>
    </g>
  </g>
</svg>