<?xml version="1.0" encoding="UTF-8"?>
<svg id="Warstwa_2" data-name="Warstwa 2" xmlns="http://www.w3.org/2000/svg" viewBox="0 0 46.39 46.83">
  <defs>
    <style>
      .cls-1 {
        fill: #fff;
      }
    </style>
  </defs>
  <g id="icon-v8-weapon-shield-pixarts-store">
    <g id="icon-v8-weapon-shield-pixarts-store_41">
      <path class="cls-1" d="M30.59,15.84l-10.42,9.79c-.23.22-.92.68-1.2.82s-.66-.38-.95-.74l17.62-16.4c3.5-3.26,6.55-6.47,10.75-9.31-2.07,3.58-4.78,6.12-7.76,9.31l-17.69,18.91c-.19.21-.95-.12-.93-.3.03-.25.2-.85.39-1.05l10.19-11.03Z"/>
      <path class="cls-1" d="M12.76,31.83c2.29,3.61,5.36,8.47,1.65,12.21-2.43,2.45-5.16,1.28-6.74,1.3-.35,0-.7.9-.96,1.31-.16.26-.97.21-1.2,0s-.27-1.1-.07-1.37c1.58-2.17,5.35,1.07,8.03-2.44,1.1-1.44,1.68-3.82.67-5.65l-3.44-6.22c-.62-1.12-.53-2.92,0-3.79.76-1.21,2.41-1.87,3.93-1.64,3.67.57,6.48,4.01,6.34,7.76-2.47,1.57-6.89-3.76-7.9-5.87l2.46-.62c-.94-.49-2.99-.87-3.72.54s.11,3.18.93,4.47Z"/>
      <path class="cls-1" d="M1.41,46.42l-1.27.14c-.45.05.33-3.08.48-3.46.54-1.4,2.58-.37,3.57-2.63l2.11,1.49c-3.41,1.72-.34,3.97-4.88,4.46Z"/>
      <path class="cls-1" d="M7.65,23.64c-2.26,2.83,2.12,5.09,2.91,8.9-1.79-1.58-3.06-3.08-4.21-4.95-.93-1.52-1.34-4.7.55-5.55.22-.1.7.19.87.39.21.25.09.96-.12,1.21Z"/>
      <path class="cls-1" d="M18.69,45.4c-.17.14-1,.13-1.16,0-1.08-.86,1.86-2.39.5-4.75-1.08-1.86-1.86-3.92-2.33-5.76,1.7-.08,2.65-.21,4.46-.5-.42,1.3-2.15,1.67-3.82,1.53,1.8,2.07,5.22,7.19,2.36,9.47Z"/>
      <path class="cls-1" d="M11.4,37.16c.28,0-.85,1.03-1.27.89-.71-.23-1.82-.71-3-1.21l3.59-3.23c.93.8,1.44,1.51,1.84,2.74l-3.08-.69,1.92,1.5Z"/>
      <path class="cls-1" d="M6.14,38.63c-.25-.32.58-1.51.92-1.44l2.77,1.58c-.61,1.5-2.72,1.08-3.69-.14Z"/>
      <path class="cls-1" d="M8.1,40.71c-1.8,1.19-1.88.17-3.03-.31l-.05-1.02c-.01-.23.75-.32.97-.28l2.11,1.61Z"/>
    </g>
  </g>
</svg>