<?xml version="1.0" encoding="UTF-8"?>
<svg id="Warstwa_2" data-name="Warstwa 2" xmlns="http://www.w3.org/2000/svg" viewBox="0 0 45.54 47.55">
  <defs>
    <style>
      .cls-1 {
        fill: #fff;
      }
    </style>
  </defs>
  <g id="icon-v8-weapon-shield-pixarts-store">
    <g id="icon-v8-weapon-shield-pixarts-store_197">
      <path class="cls-1" d="M17.4,31.45c-.55-.72-1.17-1.18-2.09-1.59,1.81-2.13,4.14-3.86,5.59-6.47-2.34,1.7-4.86,4.54-6.91,6.52-.3.29-1.27.23-1.56.1-.35-.16-.32-1.11,0-1.41,3.97-3.81,7.57-7.51,11.05-11.81l2.27.26-.84-2.11c.34-.45,1.17-1.37,1.53-1.62l2.62.3-1.28-2.06c.17-.46.97-1.94,1.63-1.9l2.14.15-1.37-2.05c1.04-1.11,2-2.82,3.22-3.75,3.46-2.61,7.78-3.5,12.07-3.99.26,2.86-.31,5.11-.88,7.58-.63,2.76-1.99,4.96-4.28,6.66-6.95,5.17-16.46,14.03-22.28,20.87-1.27-.9-.75-2.23.08-3.16,3.09-3.46,5.87-7.02,9.38-10.07l11.13-9.66c2.37-2.06,2.93-5.36,3.47-8.39-1.96.24-3.47.68-5,1.59l3.59-.56c-.17,3.8-2.27,6.72-5.19,8.92-4.3,3.23-7.96,6.82-11.64,10.76l-6.48,6.94Z"/>
      <path class="cls-1" d="M19.74,38.27c.66-.91,1.31-1.87,2.19-1.3.6.39,1.03,2.07.61,2.63-1.14,1.53-2.92,1.08-4.23.3-5.58-3.34-10.22-7.22-12.48-13.7.54-.85,1.86-1.81,2.95-1.88.47-.03,1.25,1.06,1.28,1.53.03.52-.57,1.18-1.22,1.86.67,1.16,1.78,2.55,2.82,3.62l4.01.29.23,3.81c.98.9,2.55,2.04,3.82,2.84Z"/>
      <path class="cls-1" d="M2.37,47.09C.83,46.33.2,45.69,0,43.01c-.04-.55.88-1.44,1.39-1.62,1.3,2.18,2.62,3.59,4.92,4.72-.84,1.65-2.38,1.75-3.94.98Z"/>
      <path class="cls-1" d="M7.18,43.05c-.2-2.16-1.66-5.34,1.11-6.71l.76,4.77-1.87,1.94Z"/>
      <path class="cls-1" d="M6,44.64c-1.42-.88-2.09-1.62-2.92-2.9l2.3-2.63c.42,2.08.67,3.44.62,5.53Z"/>
      <polygon class="cls-1" points="12.54 37.55 9.85 40.13 9.4 34.83 12.54 37.55"/>
    </g>
  </g>
</svg>