<?xml version="1.0" encoding="UTF-8"?>
<svg id="Warstwa_2" data-name="Warstwa 2" xmlns="http://www.w3.org/2000/svg" viewBox="0 0 40.19 51.42">
  <defs>
    <style>
      .cls-1 {
        fill: #fff;
      }
    </style>
  </defs>
  <g id="icon-v8-weapon-shield-pixarts-store">
    <g id="icon-v8-weapon-shield-pixarts-store_124">
      <path class="cls-1" d="M21.2,51.15c-1.15.73-2.33-.16-3.15-.71C4.1,41.14-1.71,24.12.43,7.93,6.16,3.17,13.05.13,20.57,0c3.75-.06,7.37,1.53,10.83,2.5,3.08,1.69,5.76,3.29,8.45,5.51,1.87,16.9-3.72,33.7-18.64,43.14ZM34.31,30.71c2.72-7,2.9-11.45,2.9-18.9l-3.76-.03,1.53-3.61c-10.99-6.89-18.93-6.87-29.74.06l1.6,3.56-3.8.05c-.61,14.33,4.46,28.21,17.04,36.3,3.36-1.92,5.78-4.4,8.23-7.13,2.71-3.01,4.51-6.49,5.99-10.29Z"/>
      <path class="cls-1" d="M13.51,37.42c-.23-3.25,1.22-3.85,3.47-6.49.44,0,1.24,1.05,1.24,1.53,0,3.68.41,7,1.95,10.44,1.3-2.94,2.19-5.87,1.89-8.94-.13-1.3-.26-2.58,1.12-3.19,2.41,2.9,3.38,2.81,3.6,6.65l1.08-3.39-3.1-5.35c2.67-3.77,2.32-8.19,4.31-10.31l.49,3.28c.93-2.29-.77-3.61,2.23-5.53l-1.44-1.08-3.51,2.51c-.95.21-3.03-.58-3.58-1.34-.29-.4.3-1.87.76-2.04.52-.19,1.39.16,2.33.4.71-1.25-1.6-1.27-2.09-2.74-.14-.43.22-1.65.66-1.76.91-.23,2.64-.7,3.55-1.25l-4.07-.1c.03-.54-.04-1.18-.37-1.38-.57,1.24-.73,3.2-1.61,3.68l-1.6.87c.48.94.91,1.83.69,2.45-.3.83-.71,1.36-1.13,1.41-.8.09-1.45-.49-1.57-1.36-.13-.96.09-1.38.76-2.67l-2.05-.5-1.31-4.06-.35,1.69c-.85-.08-2.51-.28-3.23-.52-.64-.98-1.13-1.48-2.33-1.91,8.93-3.99,15.14-2.83,23.49,2.12l-1.65,4.07,4.21.19-.22,5.53-2.97-1.83c-.03,1.48,1.28,2.54,2.89,2.78-1.18,11.53-5.97,20.97-15.49,27.64-3.18-.33-9.21-7.82-10.85-10.43-3.18-5.04-4.76-10.93-5.49-16.85,1.42-.9,2.73-1.7,3.07-3.32l-3.07,1.89-.25-5.4,4.15-.17-1.74-4.05,3.85-2.07c1.27,4.69,4.98,2.56,5.69,3.97.37.74-.09,2.11-.79,2.45-.83.39-1.27.92-1.38,1.81l2.17-.85c.43.36,1.15,1.42,1.54,2.28-1.23.8-2.53,1.29-3.99,1.47l-2.88-2.31c-.22-.18-1.06-.19-1.27-.02s-.65.76-.46.95c2.8,2.8.93.75,2.1,5.27l.05-3.63c.31.31.99,1.2,1.12,1.72.83,3.32,1.75,6.07,3.23,9.2l-3.02,5.6,1.18,2.99Z"/>
      <path class="cls-1" d="M20.06,32.06c-4.13-3.2-6.51-7.83-6.62-13.18,6.36-2.39,6.77-3.36,13.3.27-.1,5.35-2.56,9.71-6.68,12.9ZM16.17,19.28c-.89,2.36.47,6.25,2.54,8.57,2.16,2.42,1.19-.38,4-1.26,1.32-1.85,1.81-4.95,1.62-7.08-1.87-.43-3.21-.83-4.37-1.59l-2.87,1.67c2.53-.78,4.83-.97,6.82.85-.16,1.73-.68,3.72-1.33,5.21l.99-4.85c-2-1.78-5.13-1.89-6.72.32l.94,4.43c-1.24-1.67-1.24-3.58-1.61-6.26Z"/>
    </g>
  </g>
</svg>