<?xml version="1.0" encoding="UTF-8"?>
<svg id="Warstwa_2" data-name="Warstwa 2" xmlns="http://www.w3.org/2000/svg" viewBox="0 0 37.21 54.7">
  <defs>
    <style>
      .cls-1 {
        fill: #fff;
      }
    </style>
  </defs>
  <g id="icon-v8-weapon-shield-pixarts-store">
    <g id="icon-v8-weapon-shield-pixarts-store_23">
      <path class="cls-1" d="M15.63,35.24l-2.52.7c1.42-1.4,1.99-3.03,1.32-5.05,5.78-2.92,9.6-7.94,11.95-13.84,2.1-1.98,4.78-3.74,6.06-6.35l.41-.82c.07-.14.37.08.93.27-.13-.75-.14-1.02-.76-2.21-1.07,4.39-4.86,5.86-6.84,8.87-3.21,4.88-2.37,8.07-12.29,13.76.29,1.59.21,3.36-1.1,4.67-.76.76-1.48,1.4-2.56.81,2.25-1.71,3.07-4.02,1.56-6.64,5.54-2.02,12.26-8.57,12.32-14.62l2.72-1.69c.62-.39,1.35-1.69,1.97-2.33,2.92-2.95,4-6.62,5-10.76,2.34,2.81,2.91,5.95,3.35,9.17.21,1.57-.37,2.87-1.98,3.34l1.61,1.35c-.71,3.62-2.29,7.27-4.45,10.09-5.6-.88-10.01,8.49-10.22,13.29-2.97-.76-4.8.78-6.15,3.45-1.01-2.95,1.86-5.23,4.61-5,1.03-6.28,4.47-10.96,9.71-14.12,2.63-2.91,3.81-7.64,3.24-11.44-.88,3.74-.72,8.34-3.8,11.02-2.6,2.27-5.62,3.93-7.21,7.22-1.03,2.13-1.96,4.49-2.73,6.64-1.46.22-3.09.92-4.25,2.52l.08-2.27ZM16.31,34.19l2.69-.83.05-1.97c.91-.75,1.63-1.93,1.74-3.11-1.48.83-2.07,1.52-2.42,2.61l-1.87.24-.19,3.06Z"/>
      <path class="cls-1" d="M11.46,42.35l-1.94-1.46-1.19-2.68-2.34.13c-.2-2.13-.66-6.56,1.91-6.63-.08,1.68-.05,2.99.81,4.12s2.53,1.54,3.91,1.08l2.31-.76c-.35,2.24-.54,4.12,1.12,5.39,1.47,1.13,3.32.75,5.06.06.22,2.91-4.03,3.32-6,3.83-.11-.91-.28-1.97-.58-2.38-.95-.2-2.48-.25-3.06-.69ZM11.65,40.84c.8.02,1.96-.51,2.04-.99.07-.41,0-1.32-.28-1.79-.37-.59-1.86.07-2.21.6s-.27,2.15.45,2.17Z"/>
      <path class="cls-1" d="M1.02,54.56c-1.21-1.36-1.29-4.21-.55-5.8.5.34,1.13.96,1.52.85s.96-.68,1.6-1.28l3.28.94-1.04,1.45c-.22.31-.66,1.39-.39,1.65l1.17,1.15c-1.46.99-3.62,1.43-5.58,1.04Z"/>
      <path class="cls-1" d="M5.71,45.63l1.41-1.93,3.36.76c-.07.54-.97,1.6-1.58,1.53l-3.19-.36Z"/>
      <path class="cls-1" d="M5.6,48.17l-1.17-.51c-.23-.1.48-1.24.73-1.26.89-.08,2.54.05,3.58.19-.41,1.63-1.67,2.23-3.15,1.58Z"/>
      <path class="cls-1" d="M11.44,43.56c-1.05.56-2.47.08-3.69-.43l1.07-1.76,2.63,2.18Z"/>
    </g>
  </g>
</svg>