<?xml version="1.0" encoding="UTF-8"?>
<svg id="Warstwa_2" data-name="Warstwa 2" xmlns="http://www.w3.org/2000/svg" viewBox="0 0 35.85 56.93">
  <defs>
    <style>
      .cls-1 {
        fill: #fff;
      }
    </style>
  </defs>
  <g id="icon-v8-weapon-shield-pixarts-store">
    <g id="icon-v8-weapon-shield-pixarts-store_39">
      <path class="cls-1" d="M17.15,39.69l-.15-4.4-.79,4.14-5.91-4.11.93-.92-1.3-.4,14.46-20.85c.46-.26,1.5-.69,1.89-.86-.1-.1-.55-1.19-.33-1.51L33.41,0l-.34,5.1c2.63,2.73-.55,4.24-1.38,7.81l2.9-3.28,1.25,2.22-10.79,15.98-1.49-1.03.06,3.27-6.48,9.62ZM22.96,22.99l2.67-.53c-.95-.42-2.08-.44-2.27-.92l-.8-1.99c-.19,2.24-.17,3.88-1.11,5.71.08.26,1.06.98,1.35,1.08-.08-1.31-.08-2.71.16-3.35ZM21.95,28.41c-1.12-.32-2-.08-3,.17-.12-.98-.12-1.85-.79-2.94-.38,1.71-.3,2.78-.15,4.32l3.94-1.56ZM16.39,32.85l.03,1.69c0,.22.54.34,1.04.47l-.44-2.7,1.14-1.46-2.67-1.27-1.02,1.88c1.12-.33,1.32-.76,2.21-.21l-5.06,3.06c1.63-.12,3.3-.7,4.77-1.46Z"/>
      <path class="cls-1" d="M18.27,39.48l5.27,3.34c-1.37,2.14-7.54-.69-9.53-1.8-4.05-2.26-7.43-5.28-9.27-9.61-.27-.65-.18-1.55.22-2.08l4.54,3.76-.72,1.09c-.57.87,8.16,6.82,8.57,6.35l.92-1.05Z"/>
      <path class="cls-1" d="M6.83,52.86c-.08.31-5.1,2.69-6.83,4.07l.98-5.99c.06-.39-.08-1.3.08-1.62.2-.38,1.42-.48,1.77-.19,3.23,2.71,4.44,1.96,4,3.73Z"/>
      <path class="cls-1" d="M8.18,46.86l-2.49-.44c-.04-.22.15-1.28.27-1.29l2.14.31-1.83-1.37,4.37.17-3.21,4.38c-.9.13-2.24-.71-2.71-1.64l3.45-.12Z"/>
      <path class="cls-1" d="M10.32,43.75l-2.85-.44c.04-.4.49-1.42.85-1.51.8-.22,2.59.08,3.43.44.35.63-.76,1.62-1.43,1.52Z"/>
      <path class="cls-1" d="M6.1,49.05l.9.51c.18.1-.06.87-.15,1.05-1.3-.13-3.51-.79-3.13-2.9l2.39,1.34Z"/>
      <path class="cls-1" d="M12.86,41.56l-4.12-.55,1.09-1.67c1.23.6,1.95.98,3.03,2.21Z"/>
    </g>
  </g>
</svg>