<?xml version="1.0" encoding="UTF-8"?>
<svg id="Warstwa_2" data-name="Warstwa 2" xmlns="http://www.w3.org/2000/svg" viewBox="0 0 41.86 55.2">
  <defs>
    <style>
      .cls-1 {
        fill: #fff;
      }
    </style>
  </defs>
  <g id="icon-v8-weapon-shield-pixarts-store">
    <g id="icon-v8-weapon-shield-pixarts-store_92">
      <path class="cls-1" d="M2.8,24.68l.64,3.04-1.96-2.87.59,1.95.9,7.55c1.97-.84-.68-3.64.37-5.77l.86,2.75c.28.9.6,2.29.54,3.16l-.3,4.96C1.31,32.54.43,24.85.15,17.22c-.03-.73-.19-1.71-.14-2.52l.16-2.6.23-3.29c3.62-.54,7.14-1.49,10.74-2.76,5.17-1.82,1.2-1.59,5.11-1.99.25-.02.31-.69.44-.93l3.88-3.14c.68,1.05-3.11,4.57-4.91,5.07l-1.1.31c-.28.08-.34.62-.4,1.07,2.99-.96,5.04-2.62,6.79-5.08,1.07,1.28,1.85,2.22,2.62,3.68l-2.88-1.74c-4.42,3.61-10.86,6.52-16.45,7.32,1.2-1.85,3.25-1.67,4.97-1.53l.99-1.19c.57-.69,1.37.7,2.9-.35.22-.15.15-.9.05-1.11l-2.48.5c-.85.17-2.3,1.12-3.1,1.17-5.14.55-4.75,4.76-4.93,5.94l-.62,3.98c-.08.54,1.6,4.05.75,6.65Z"/>
      <path class="cls-1" d="M28.72,46.15c-3.71-2.49-.03-4.55-3.53-5.65-1.03-.32-3.04-1.65-2.64-2.82.35-1.03,1.66-1.64,1.09-3.15l2.72-1.41c1.86-.96,3.62.83,4.58,2.27l2.55,3.79c-1.34,2.4-2.84,4.63-4.77,6.97Z"/>
      <path class="cls-1" d="M32.54,28.56l-.3-2.13c-.06-.44-1.4-.5-1.86-.6-.46-.55-.96-2.43-.44-2.98l2.36-1.48c1.9.72,3.41,0,5.5-1.25-.13,4.2-.74,8.38-1.67,12.41-1.71-.04-3.2.15-4.8.5-.75-.12-2.37-1.55-2.35-2.5.03-1.35.76-2.94,1.66-3.88.58-.6,1.46.78,1.9,1.89Z"/>
      <path class="cls-1" d="M17.91,50.78c-1.4-1.2-2.71-2.49-4.06-3.99l1.45-3.49c.11-.28,1.14-.58,1.39-.7-1.61-.92-2.52-3.28-1.87-5.31.22-.69,1.52-1.69,2.28-2.08,3.03,1.67,1.84,2.66,4.8,5.65-.35,2.17-1.5,3.68-2.76,5.49l-1.22,4.43Z"/>
      <path class="cls-1" d="M7.38,23.51l-.37-.71c-.06-.11-.6.03-.54.14l.42.82,1.62,3.12c-.14,1.37-1.8,2.47-3.4,3.05-.66-4.22-1.1-8.33-1.25-12.42,2.01-.21,2.62,1.53,4.08,2.21,1.14.53,3.13-.12,4.04,1.27.77,1.18.24,4.03-1,4.69-.47.25-2.19.13-2.52-.27s-.62-1.03-1.08-1.91Z"/>
      <path class="cls-1" d="M14.83,33.83c.05,1.71-1.83,2.21-3.11,2.44-1.38.25-2.47,1.3-3.71,2.31-1.04-2.19-1.99-4.76-2.55-7.32,3.2-1.37,4.27-3.94,5.91-3.78.9.09,1.78,2.21,1.65,2.87-.09.45-1.18.61-1.79.72.07.09.69.71.91.56l1.18-.75c.48.55,1.5,2.1,1.52,2.95Z"/>
      <path class="cls-1" d="M15.68,14.69c-.15.75-.29,1.71-.25,2.78.04,1.1-2.25,2.7-2.81,1.36-1.91-4.58.19-5.54-.55-8.85l3.78-1.89,3.17,4.21c.5.66.44,2.71.16,3.42-.57.81-1.38,1.4-2.6,2.24l-.89-3.26Z"/>
      <path class="cls-1" d="M34.14,14.03c-2.59,2.04-.47,4.12-2.6,5.71-.62.47-2.5,1.22-3.03.66-.67-.7-1.28-1.41-1.88-2.12-.67-.8-.07-3.39.85-3.88,1.7-.9,2.89-1.74,2.56-4.37l6.56,1.9c-.83.75-1.59,1.41-2.46,2.1Z"/>
      <path class="cls-1" d="M19.24,51.42l.73-4.43,1.76,1.88c-2.04-3.64-.04-2.07,1.41-6.98.23-.44,1.45-.26,1.91.07,1.52,1.09-.11,2.25,2.61,5.26-1.21,1.61-5.85,5.63-6.93,5.76-.47.06-1.58-1.02-1.49-1.57Z"/>
      <path class="cls-1" d="M23.77,12.92c-.77.38,2.63,3.2.95,3.75-1.83.6-3.16-1.1-3.61-2.72-.64-2.34,1.52-1.72,1.56-7.69l6.55,3.36c-.07.79-.32,2.2-.74,2.72l-3.28,2.37-1.42-1.79Z"/>
      <path class="cls-1" d="M21.08,30.52c-1.13-.05-3.02-1.08-3.62-1.96-.98-1.43-.43-3.82.82-4.47l.86.4c.42.2,1.55-2.07,2.42-.97.61.77,1.69,1.98,2.24,2.83,1.05,1.61-.89,4.26-2.71,4.18Z"/>
      <path class="cls-1" d="M10.89,18.64c-5.07.4-1.47-1.15-7.02-2.42l.13-3.98,3.06-.7c1.11,1.31,2.19,2.39,3.47,3.58.22.92.32,2.41.37,3.52Z"/>
      <path class="cls-1" d="M41.82,8.64c-1.91,2.85-3.75-.52-8.14-.2l-3.3-1.5c.39,1.14.96,1.52,1.75,2.29-7.49-2.99-6.12-2.12-10.95-9.11,1.29.8,2.18,1.64,3.22,2.47,3.45,2.77-.87,1.89,3.95,4.15l-2.01-2.67c6.42,2.5,8.09,4.05,15.49,4.55Z"/>
      <path class="cls-1" d="M14.56,41.76c.37,1.25-.86,3.02-1.79,3.98l-4.05-5.9c1.2-1.7,2.8-2.99,4.71-1.95l1.14,3.87Z"/>
      <path class="cls-1" d="M30.67,47.76c.95-1.81,2.26-6.38,4.08-7.53-.15,2.02-1.29,2.94-1.73,4.72l2.68-3.39-.26-.65c-.22-.56,2.26-.8,1.41-3.14-.36-1,.03-1.95.23-2.9l.79-3.69.41,2.56,1.2-.92c-.97,3.85-2.07,7.84-4.59,11.08l-3.88,5.01c-.8,1.03-1.7,1.93-2.6,2.56.35-1.73,1.36-2.49,2.24-3.7Z"/>
      <path class="cls-1" d="M37.92,18.33c-.05.83-3.41,3.18-4.86,1.76l1.05-4.11c.35-1.37,2.73-2.45,3.82-3.39.07,1.73.06,4.33-.02,5.74Z"/>
      <path class="cls-1" d="M39.8,25.73c.05-1.25,1.82-2.53.41-3.66l-1.35,3.06c.09-3,.24-5.51.82-8.28.19,1.86-.12,3.46.81,4.91l.06-7.47c0-.23.04-.9.16-1.04.15-.19.34-.24.79-.49l-.84-1.62c-.1-.2.02-.79.07-1,.06-.27,1.14.34,1.13.67l-.27,6.42-.35,5.2c-.19,2.86-.87,6.78-1.6,9.75-.96-3.02.05-3.67.17-6.43Z"/>
      <path class="cls-1" d="M20.51,11.72c-1.59-1.45-2.52-2.45-3.69-4l3.02-2.08c.31-.21,1.05-.49,1.37-.42,1.03.23.49,4.77-.7,6.51Z"/>
      <path class="cls-1" d="M11.52,47.53l-1.19-2.08c1.57.78,2.02,1.89,1.8,3.19.66.97,1.31,1.86,1.65,3.19-1.7-1.39-8.86-9.46-8.46-12.23l3.52,5.36c-.65-1.76-1.45-3.03-1.9-4.99,1.23,1.3,2.13,2.71,2.81,4.2-.1.81-.24,1.52-.18,2,.07.57,1.1,1.28,1.96,1.36Z"/>
      <path class="cls-1" d="M37.82,9.78c3.03,1.34,2.68,4.93,1.63,6.79-.08-1.85-.18-3.71-.42-5.29l-6.2-1.85c1.65-.73,3.49-.33,4.99.34Z"/>
      <path class="cls-1" d="M33.93,38.1l-2.14-3.52c1.51-.62,2.25-.88,3.9-1-.43,1.81-.8,2.7-1.77,4.53Z"/>
      <path class="cls-1" d="M11.13,14.01c-1.24-.95-1.92-1.53-3.1-2.68l3.56-1.24c.31,1.62.27,2.25-.47,3.92Z"/>
      <path class="cls-1" d="M21.23,54.44l3.31-2.3c-.51,1.33-2.35,3.47-3.87,2.99-1.86-.58-3.39-1.72-3.87-3.54,1.25.35,3.29,3.64,4.44,2.84Z"/>
      <path class="cls-1" d="M24,55.08l.99-2.21c.8-1.77,1.74-3.25,3.41-4.4-.18,1.05-.64,1.75-1.15,2.55-.95,1.5-.87,3.41-3.25,4.06Z"/>
      <path class="cls-1" d="M15.53,50.45c-.6,2.69,1.22,2.28,2.09,4.58-2.31-.8-2.79-2.73-3.62-4.53-.39-.84-1.07-1.52-1.16-2.57.98.79,1.86,1.63,2.69,2.52Z"/>
      <path class="cls-1" d="M6.3,39.9l-1.03-1.04c-.16-.16.39-.29.73-.39-.65-.91-1.2-1.98-.85-3.25l1.93,3.9-.77.78Z"/>
    </g>
  </g>
</svg>