<?xml version="1.0" encoding="UTF-8"?>
<svg id="Warstwa_2" data-name="Warstwa 2" xmlns="http://www.w3.org/2000/svg" viewBox="0 0 47.97 49.49">
  <defs>
    <style>
      .cls-1 {
        fill: #fff;
      }
    </style>
  </defs>
  <g id="icon-v8-weapon-shield-pixarts-store">
    <g id="icon-v8-weapon-shield-pixarts-store_168">
      <path class="cls-1" d="M26.78,12.05c.3.7,2.19,1.08,2.43,2.09.12.51-.8,1.71-1.22,1.5-1.36-.66-2.93-1.32-4.38-1.05-2.56.48-4.11,2.1-5.48,4.4-1.55-4.67-.31-9.47,2.34-13.22l1.6.18.23-2.08C25.63.97,29.83-.41,34.37.11c-2.01,3.26-4,5.94-1.23,9.76.1.61-.87,1.82-1.52,1.89-.81-.57-1.5-1.79-1.92-2.48l-4.12-1.15,1.19,3.92ZM30.75,2.77c-2.66-.17-5.34.78-6.23,3.01,2.29-1.43,4.17-2.44,6.23-3.01ZM22.88,7.34c.13-.01-.23.03-.65.07-1.34,2.03-2.43,4.23-2.07,6.72.69-2.37,1.46-4.06,2.71-6.79Z"/>
      <path class="cls-1" d="M32.64,20.4c-.02-.44,1.04-1.37,1.53-1.3,1.35.21,1.64,1.89,2,2.84,1.37-.02,2.91.39,4.28,1.11l-1.2-4.63c-.92-.5-1.9-1.11-2.9-1.92l1.6-1.7c2.12,1.81,4.76,1.97,7.04.56l2.82-1.74c.64,5.58-.57,10.41-4.75,13.99l-1.47-.82-.52,2.26c-3.24,2.24-7.32,2.94-11.2,1.76,3.16-2.48,6.15-6.51,2.77-10.42ZM33.91,28.76c6.3.32,11.32-5.15,11.75-10.95-3.44,7.34-3.83,8.56-11.75,10.95Z"/>
      <path class="cls-1" d="M26.74,21.61c2.08-7,3.95-6.08,6.63-9.79.93-1.28,1.79-2.86,3.79-2.51.95.17,2.04,1.9,1.81,3.04l-8.36,8.14-3.86,1.11ZM36.52,12.66l-1.13.11,1.03-2.36c-1.56.84-2.07,2.44-2.39,3.64,1.2.38,2.57-.13,2.49-1.39ZM32.82,16.96c.35-.43.64-1.52.8-2.11l-2.17.16-.42,2.65c.42-.16,1.51-.35,1.79-.7Z"/>
      <path class="cls-1" d="M23.11,26.75c-2.17.58-2.52,3.13-5.09,3.84,1.17-1.97,3.04-3.55,4.76-5.58-2.22,1.1-2.98,4.09-5.96,4.77l9.6-10.23c-.28,1.57-1,2.9-1.91,4.23l4.62-1.88-9.05,9.51c-.19.2-.56.33-.73.31-.22-.02-.11-.78.06-.96l3.7-4.02Z"/>
      <path class="cls-1" d="M3.83,47.06l1.37-.84.32.67c.54,1.12-4.5,2.37-5.51,2.59l.58-3.5c.2-1.19,1.24-2.32,2.5-2.19l-.85,2.15,2.01-1.01-.41,2.11Z"/>
      <polygon class="cls-1" points="40.01 10.63 37.29 8.09 42.88 4.96 40.01 10.63"/>
      <path class="cls-1" d="M7.06,46.5c-1.6-1.45-2.98-2.91-4.15-4.43.08-.45.98-1.18,1.31-1l3.86,4.16c.23.25-.36.89-1.01,1.27Z"/>
      <path class="cls-1" d="M11.31,40.6l-1.36-4.3,1.6-1.47c.65,2.59,2.33,4.31-.25,5.78Z"/>
      <path class="cls-1" d="M18.23,34.28l-2.97-2.89c-.22-.21-.7-1-.49-1.2l.81-.77,4.08,3.87c-.1.21-1.09.92-1.42,1Z"/>
      <path class="cls-1" d="M9.07,42.85l-1.13-3.95c-.13-.47.95-1.6,1.33-1.3.66,1.45,1.99,4.76-.2,5.25Z"/>
      <path class="cls-1" d="M16.11,35.43l-3.45-.88c-.19-.2.06-1.04.34-1.22.73-.47,2.93-.02,4.13,1.44.11.14-.83.71-1.03.66Z"/>
      <path class="cls-1" d="M38.5,21.19c-1.57-.46-1.9-1.24-2.78-2.19l-.73-.79c-.19-.21.45-.81.68-.94l2.22,1.79c.41.33.64,1.31.62,2.13Z"/>
      <path class="cls-1" d="M31.08,12.69l-.47.68c-.13.19-.83-.22-1-.38l-2.04-1.94c-.14-.13-.18-.81-.19-1-.01-.24,1.03-.11,1.2.07l2.5,2.57Z"/>
      <polygon class="cls-1" points="15.73 36.22 13.57 38.33 12.79 35.45 15.73 36.22"/>
      <polygon class="cls-1" points="7.95 42.48 5.47 41.01 7.08 39.33 7.95 42.48"/>
    </g>
  </g>
</svg>