<?xml version="1.0" encoding="UTF-8"?>
<svg id="Warstwa_2" data-name="Warstwa 2" xmlns="http://www.w3.org/2000/svg" viewBox="0 0 46.32 48.15">
  <defs>
    <style>
      .cls-1 {
        fill: #fff;
      }
    </style>
  </defs>
  <g id="icon-v8-weapon-shield-pixarts-store">
    <g id="icon-v8-weapon-shield-pixarts-store_182">
      <path class="cls-1" d="M38.24,8.45c-2.15,1.5-3.95,3.31-5.9,5.26l-10.97,10.99c-1.33,1.34-3.35,2.04-5.1,3.42l1.35-3.76c2.33-.13,3.7-1.67,5.12-3.34l2.04-2.39-2.78,1.33c-.9,2-2.45,3.56-4.99,3.32-.9,2.03-1.79,4.25-3.06,5.79-.33.4-1.74.82-2.12.55-.43-.31-.77-1.26-.86-1.8,1.69-.18,2.73-.75,3.16-2.09l1.35-4.21c1.67.22,3.65.54,5.01-.83.39-.39-.5-1.42-1.02-1.91,1.38-.37,3.05-.48,4.22-1.1.88-.53-.36-1.72-1.16-2.05l3.79-1.04c.38-.1,1.14-.92.87-1.15l-1.58-1.17c1.36-.95,4.39-.15,4.52-1.7.03-.43-.62-.89-1.37-1.43,0-.27,5.1-1.01,3.74-2.06-.51-.4-1.14-.68-1.7-.94,5.61-3.09,9.05-4.94,15.52-6.13-.57,5.33-2.26,10.02-4.78,14.4l-1.24-1.52c-1.08,1.26-1.07,2.36-1.48,4.05l-.86-.99c-.16-.18-.98-.17-1.05.07l-1.24,4.44-1.42-1.89c-.63.62-1.22,1.46-1.36,2.24l-.51,2.94c-.69-.87-1.09-1.39-1.53-1.78-1.35,1.55-1.3,3.21-1.48,5.06-.57-.54-1.34-1.21-1.93-1.45-1.62,1.61-1.86,4.09-1.09,6.01-2.1.6-3.99,1.23-5.78,2.25l-.79,2.36c-.42,0-1.3-.24-1.57-.59-.31-.41-.04-1.76.28-2.16,1.39-1.8,3.73-2.04,5.62-2.99,1.08-7.18,3.53-4.12,4.15-7.69l-3.29,2.61c-1.16.92-1.51,2.51-1.92,4.16l-4.01,1.89,3.2-5.15,12.39-13.23c1.33-1.42,2.46-2.71,3.6-4.57ZM42.26,4.37c-.66,2.45-1.28,4.8-2.68,6.55-1.14,1.43-3.16,2.13-2.59,4.53l1.33-1.84c.57-.78,1.61-1.6,2.33-2.15,1.53-2.54,2.44-5.28,2.71-8.45-10.35,2.71-7.73,3.51-11.9,7.26l-2.9,2.61c-.26.23-.51,1-.22,1.13.23.1.97-.05,1.14-.23l1.39-1.53,4.71-4.94c1.63-1.71,4.42-2.3,6.67-2.92ZM35.28,15.76c-.02-.15-.64-.12-.72,0l-1.88,2.87c1.41-.04,2.73-1.9,2.61-2.88Z"/>
      <path class="cls-1" d="M19.73,38.09c1.71.95,3.15-1.37,3.49-.68l.42.85c-.76,1.65-2.03,3.15-3.6,3.89l-.2-1.76c-.1-.9-4.32-.41-4.51-4.05-.08-1.45.19-2.92.45-4.77-2.15.92-4.51,1.19-6.66.22-2.37-1.89-.76-4.37-3.88-4.02.67-1.43,2.17-3.05,3.65-3.58.41-.14,1.24,1.06,1.01,1.33-2.12,1.34.12,4.12,1.24,5.92,3.45-.6,5.87-2.29,8.77-4.31-1.21,3.41-3.44,4.32-3.26,9.24l3.09,1.72Z"/>
      <path class="cls-1" d="M3.64,46.82l-3.64,1.33.99-4.06-.73-1.03c-.17-.24.39-.75.64-.89.3-.18,1.33.07,1.37.49.25,2.73,3.41,2.35,3.32,4.12-.01.3-.6.62-1.02.72-.29.07-.57-.33-.93-.67Z"/>
      <path class="cls-1" d="M14.37,37.65l-2.38-1.59c-.83-.56-1.7-1.7-2.29-2.64,1.87.12,2.99.19,4.52-.09l-.33,1.63.48,2.7Z"/>
      <path class="cls-1" d="M8.66,41.44c-.35-1.25-.65-2.38-.94-3.83-.12-.62,1.17-1.75,1.81-1.75l.33,3.17c.12,1.11.13,1.91-1.21,2.41Z"/>
      <path class="cls-1" d="M6.51,43.64l-1.06-3.31c-.17-.53,1.06-1.68,1.23-1.52l1.34,3.78c-.14.14-.79.59-1.51,1.06Z"/>
      <path class="cls-1" d="M5.65,44.21c-.81.21-2.11-1.28-2.1-2.09,0-.4.86-1.08,1.06-1.1l1.04,3.19Z"/>
    </g>
  </g>
</svg>