<?xml version="1.0" encoding="UTF-8"?>
<svg id="Warstwa_2" data-name="Warstwa 2" xmlns="http://www.w3.org/2000/svg" viewBox="0 0 37.41 56.31">
  <defs>
    <style>
      .cls-1 {
        fill: #fff;
      }
    </style>
  </defs>
  <g id="icon-v8-weapon-shield-pixarts-store">
    <g id="icon-v8-weapon-shield-pixarts-store_85">
      <path class="cls-1" d="M18.7,56.31c-6.54-4.69-11.53-10.59-14.81-17.69-1.52-3.92-2.33-7.76-3.05-11.91C.19,21.25-.06,15.88.01,10.34,7.31,8.79,13.53,5.39,18.61,0c5.2,5.39,11.51,8.88,18.8,10.36-.06,7.16-.41,14.08-1.86,21.06-1.25,6.22-3.9,11.62-7.95,16.44-2.54,3.16-5.44,5.72-8.9,8.44ZM18.7,52.34c7.03-5.99,11.73-11.98,13.74-20.76,1.4-6.11,1.93-12.08,1.83-18.5l-3.99-1.48c-4.34-1.62-8.25-3.92-11.61-7.17-5.42,5.01-9.13,6.24-15.58,8.74-.17,6.33.35,12.33,1.74,18.37,2.03,8.8,6.76,14.94,13.87,20.81Z"/>
      <path class="cls-1" d="M18.72,51.23c-6.56-5.67-11.16-11.5-13.05-19.92-1.3-5.77-1.86-11.5-1.76-17.52,5.76-2.1,10.06-3.92,14.74-8.22,3.9,3.67,8.54,6.01,13.58,7.66.87.28,1.38.87,1.34,1.92-.22,5.26-.68,10.33-1.79,15.46-1.97,9.07-6.13,14.29-13.05,20.63ZM18.7,26.93c.37,4.74,2.31,1.86,2.81,7.07l1.23-1.97c.75,2.04-.35,3.91-1.8,5.43,4.45-.51,7.05-4.99,6.08-9.06-.6.94-.89,1.38-1.56,2.1.05-3.16.98-6.34-1.97-8.15.39,1.97.6,3.55-.94,4.53.03-2.32-.87-4.22-2.49-5.69-2.99-2.7.76-4.76-1.96-7.95.27,1.4-.23,2.78-1.13,4.1-2.78,4.03.96,4.78-1.09,8.54-1.12-3.38-2.37-2.69-1.9-6.19-3.46,3.89.17,3.8-1.21,7.78l-.92,2.68-.75-3.2c-1,2.1-1.35,4.67-.11,6.88,1,1.76,3,3.53,5.34,3.65-2.36-2.05-2.6-5.01-.79-7.4-.06,1.59.52,3.39,2.43,3.69-.87-2.54-.84-5.05.74-6.83ZM21.14,20.49c1.3-.43,1.5-1.62,1.31-2.43-.12-.5-.6-1.06-1.06-1.49-.19,1.54-.31,2.5-.24,3.92Z"/>
    </g>
  </g>
</svg>