<?xml version="1.0" encoding="UTF-8"?>
<svg id="Warstwa_2" data-name="Warstwa 2" xmlns="http://www.w3.org/2000/svg" viewBox="0 0 45.37 47.03">
  <defs>
    <style>
      .cls-1 {
        fill: #fff;
      }
    </style>
  </defs>
  <g id="icon-v8-weapon-shield-pixarts-store">
    <g id="icon-v8-weapon-shield-pixarts-store_180">
      <path class="cls-1" d="M16.19,34.58c-1.26-1.41,1.12-3.23-1.25-4.41l.89-1c-1.2.89-2.33,1.74-3.77,1.4.26-2.21,2.49-3.35,4.21-3.64,1.37-.3-.2-3.94,3.35-4.36,3.77-.44.75-4.71,5.45-5.49,3.86-.64,1.37-4.73,5.73-5.63,4.54-.93,1.96-5.21,7.26-6.34,4.03-.86,2.51-4.11,7.31-5.12l-2.79,5.78c-.76,1.57-4.42,1.96-5.43,5.68-1.3,4.79-4.83,2.16-5.6,6.42-.86,4.73-4.86,1.88-5.26,5.72-.47,4.6-4.8,2.11-4.64,4.97.11,1.98-1.23,3.18-3.16,3.13l-1.15,2.84c-.1.25-.96.23-1.14.04ZM21.8,25.18c4.27-.67,1.4-4.55,5.41-5.62,4.05-1.09,1.11-3.99,5.67-6.26-5.16.31-1.96,4.66-6.06,5.48-4.8.96-1.72,5.03-5.24,5.56-.73.11-2.1.86-2.25,1.54l-.8,3.68c2.54-.53-.13-3.84,3.28-4.37Z"/>
      <path class="cls-1" d="M20.21,37.04c.12.46.1,1.54-.09,2.34-1.8.12-4.19-1.62-4.59-1.03-.5.74.37,5.27-3.49,7.6-1.72,1.04-5.55,1.34-6.77-.33-.09-.13.05-.7.2-.67l.93.21c1.8.41,3.64.36,5.26-.71,1.38-.91,2.1-2.74,2.2-4.6.17-3.01-1.23-4.9-3.58-6.54-1.39-.97-4.1-5.76-3.06-6.33.22-.12,1.09-.14,1.21.07l2.35,4.46c1.08,2.05,3.25-.73,3.73.56-.05.8-.24,2.19,0,2.76l.91,2.25.2-.7c.11-.39,2.29.92,4.6.65Z"/>
      <path class="cls-1" d="M4.13,45.44c-.48,1.6-3.16,1.98-3.99,1.22-.34-.3.03-1.24.09-1.76.09-.78-.12-1.49.39-1.89.84-.66,1.59-.26,2.35.34.72.57,1.38,1.36,1.16,2.09Z"/>
      <path class="cls-1" d="M8.63,36.95c.34,1.08,1.03,2.54-.43,3.33-.3-.65-.81-2-.99-2.82-.1-.46.91-1.58,1.35-1.45.67.19,1.65,1.12,2.12,1.78-.2.31-.9.63-1.08.4l-.97-1.24Z"/>
      <polygon class="cls-1" points="6.51 42.12 4.93 39.59 6.47 37.8 7.37 41.19 6.51 42.12"/>
      <path class="cls-1" d="M5.73,43.12c-.69.93-2.58-1.16-2.45-1.77.08-.34.84-.9,1.12-.89l1.33,2.67Z"/>
    </g>
  </g>
</svg>