<?xml version="1.0" encoding="UTF-8"?>
<svg id="Warstwa_2" data-name="Warstwa 2" xmlns="http://www.w3.org/2000/svg" viewBox="0 0 57.88 54.59">
  <defs>
    <style>
      .cls-1 {
        fill: #fff;
      }
    </style>
  </defs>
  <g id="icon-v8-weapon-shield-pixarts-store">
    <g id="icon-v8-weapon-shield-pixarts-store_06">
      <path class="cls-1" d="M38.51,13.1l2.67-2.96,3.11,3.26c-.81,1.24-.09,2.58,1.2,3.21,2.59,1.28,5.43-.16,6.05-2.83.63-2.75,3.8-4.18,6.33-4.52-1.52,1.56-2.09,3.19-1.83,5.51.09.81-.15,1.83-.15,2.52.06,9.57-4.81,14.63-14.24,15.26l-3.85.26c-2.01.14-3.65.48-5.29,1.57.41-2.19,1.46-5.04,3.67-5.72,2.78-.85,5.01-2.9,3.87-6.17-.24-.68-1.32-1.7-2.04-1.83-.73-.14-1.57.31-2.12.87l-4.91,5c-.86.87-1.48,1.96-1.87,3.11-1.62-.3-3.15-.21-4.66.59.64-1.56.72-3.19.5-5.02.4-.04,1.56-.07,1.92-.39,2.89-2.6,5.92-5.69,8.51-8.78l-.59-.1s.18-2.03-1.59-2.75c-.62-.25-1.54,0-2.59.35-.66-3.54-1.98-6.71-3.9-10.11,3.41,1.93,6.51,3.3,10.1,3.77-.4,1.03-.72,2.2-.29,2.84.64.95,1.7,1.41,2.69,1.66-.19.24-.66.75-.94.85-.62.22-3.32-1.32-3.24-3.96l-5.48-2.18,1.95,3.68-1.02-2.89,4.14,1.68c.29,1.28.66,2.85,1.84,3.36l2.02.87ZM27.15,25.8c-.42.42-.39,1.14.07,1.6s1.18.49,1.6.07.39-1.14-.07-1.6-1.18-.49-1.6-.07ZM31.22,22.01c-.46.13-1.06.85-.97,1.23.1.44.87,1.16,1.32,1.15.44-.02,1.09-.76,1.04-1.2-.04-.45-.97-1.29-1.39-1.17ZM33.97,18.95c-.43.43-.39,1.15.07,1.61s1.19.49,1.61.07.39-1.15-.07-1.61-1.19-.49-1.61-.07ZM48.72,18.24c-.46-.01-1.2.71-1.18,1.11l.89-.17c.16-.03.44.09.58.19.18.14-.05.87-.24,1.01-1.72,1.24-3.93-1.38-5.19-1.52,1.06,1.37,5.06,3.83,6.33,1.68.19-.31.17-1.24,0-1.58s-.83-.71-1.19-.72ZM40.08,29.66c6.33,1.62,13.92-4.8,12.82-11.43-.97,7.82-4.96,10.97-12.82,11.43ZM42.06,20.46c1.19,1.32,2.96,4.66,1.22,5.32-.19.07-.81-.12-.78-.32l.16-1.34c-.22,0-.85.59-1.09,1.1-.21.45.47,1.37.96,1.57.46.18,1.57-.05,1.81-.56.99-2.09-.42-4.53-2.28-5.75ZM41.8,18.12c-.46,1.41,3.99,3.23,4.38,6.8l2.29.34-.23-2.27c-2.65-.69-4.7-2.54-6.44-4.87Z"/>
      <path class="cls-1" d="M27.16,30.05l-11.75,11.67c.25-2.73,2.79-3.25,3.68-5-1.8.99-2.98,2.45-4.11,3.82-.12.11-1.15-.68-.99-.98l.75-1.38c-.45.36-.76.83-1.56.91l11.32-11.33-.86,3.25c1.39-.42,2.28-.75,3.51-.96ZM18.63,35.41l-2.29,1.99c2.07-.48,2.88-2.56,4.19-4.15l1.92-2.34c-1.61,1.12-2.83,2.65-3.82,4.5Z"/>
      <path class="cls-1" d="M44.86,11.4c.19-.49,1.29-.89,1.86-1.08l4.74-7.2-7.05,4.85c2.31-.81,3.92-2.36,5.84-3.49l-3.62,5.36c-.27.4-1.62.42-1.71.84l-.42,1.88-2.29-2.11c.47-.34.97-.64.96-.87l-.07-2.47L54.65,0l-7.01,11.6-2.78-.2Z"/>
      <path class="cls-1" d="M4.91,54.51c-1.95.33-5.75-3.66-4.68-5.27.26-.09,1.3-.09,1.58.2l3.08,3.11c.57.57.77,1.84.03,1.97Z"/>
      <path class="cls-1" d="M14.21,43.43c-1.13-1.07-2.15-2.1-3.03-3.03.13-.52.75-1.19,1.2-1.32l3.11,3.21c.34.35-.92,1.49-1.28,1.14Z"/>
      <path class="cls-1" d="M8.37,48.84l-3.47-1.4,1.72-1.69,1.82.64c.4.14,1.24.75,1.36,1.11l-1.42,1.34Z"/>
      <polygon class="cls-1" points="10.11 47.05 8.65 43.76 10.01 42.27 11.5 45.81 10.11 47.05"/>
      <path class="cls-1" d="M6.6,50.76c-1.12-.94-1.83-1.38-2.58-2.97l3.97,1.43-1.39,1.54Z"/>
      <rect class="cls-1" x="3.77" y="48.05" width="1.29" height="4.53" transform="translate(-34.23 17.8) rotate(-44.91)"/>
      <path class="cls-1" d="M.24,51.95c1.08.85,1.79,1.54,2.52,2.58-.66.11-1.77.11-2.18-.29-.75-.73-.67-1.55-.34-2.28Z"/>
      <polygon class="cls-1" points="11.86 45.47 10.86 42.94 13.24 44.03 11.86 45.47"/>
      <path class="cls-1" d="M10.56,42.09c-.27-.2.63-.96.86-.71l2.03,2.26c-.91-.32-2.14-1.01-2.89-1.55Z"/>
    </g>
  </g>
</svg>