<?xml version="1.0" encoding="UTF-8"?>
<svg id="Warstwa_2" data-name="Warstwa 2" xmlns="http://www.w3.org/2000/svg" viewBox="0 0 52.24 52.47">
  <defs>
    <style>
      .cls-1 {
        fill: #fff;
      }
    </style>
  </defs>
  <g id="icon-v8-weapon-shield-pixarts-store">
    <g id="icon-v8-weapon-shield-pixarts-store_59">
      <path class="cls-1" d="M31.3,32.96c-1.56-6.8,10.73-6.43,4.6-12.86,1.46-1.58,3.09-3.23,4.66-4.61.8,1.28,1.61,1.97,3.08,1.75,3.96-.58,3.39-5.62,8.61-6.3-1.57,1.22-2.22,2.87-2.16,4.91.13,4.12-1.31,8.04-4.46,10.63-5.97,4.92-11.03,1.21-14.33,6.49ZM43.4,24.77c3.16-1.97,4.38-5.62,4.39-8.94-.68,3.46-2.12,6.46-4.39,8.94ZM39.57,21.21l2.05.09-.72-2.33c1.43.45,3.69,1.22,4.56-.86-.98.5-1.95,1.14-2.88.82-.86-.29-2.15-.47-2.03-1.86l-1.21,1.29c.82.79,1.57,1.41,1.53,2.68l-2.06-1.92-2.11,1.12c1.26.41,2.06.68,2.37,1.72.32,1.1-.06,2.02-.51,3.26,1.59-.7,1.13-2.48,1.02-4Z"/>
      <path class="cls-1" d="M35.86,13.13l-3.45,3.23-1.54-1.41c-2.13-.83-3.8.72-5.04,2.36-.69-2.31-.44-4.58,1.01-6.56l-1.71-5.49,5.19,1.69c2-1.21,4.26-2.21,6.84-1.33-1.73.83-3.02,3.61-2.18,5.08.19.33.96.77,1.19.97.28.24-.03,1.19-.31,1.46ZM32.67,7.98l-2.13.56-3.16-1.15.44,2.02c1.1-3.03,1.64,1.6,4.86-1.44ZM32.08,13.71c-.31,1.22-.19,1.31.28.84l2.95-2.5c-.53-.11-1.5-.32-1.67-.84l-.72-2.17c-.28,1.14.22,2.27.92,3.48l-1.23,1.14c-1.33-.87-2.53-1.22-3.77-.94l3.23.99Z"/>
      <path class="cls-1" d="M39.65,11.55c.45,1.22,2.21,1.2,1.07,2.68l-2.49-2.88,1.25.24c.16.03.13-.46.2-.66l.99-2.96L51.96,0l-7.3,10.83c-.12.18-.41.49-.56.6-.2.15-.81-.25-.79-.5l.1-1.27-1.77,2.98-1.99-1.1Z"/>
      <path class="cls-1" d="M8.86,45.8l-.85,1.02c-.18.22-.75-.13-1.07-.32s-.26-.82.08-1.12c.09-.34.24-.97.16-.64l-.96.81c-.12.1-.9-.52-.42-1.15,3.17-4.23,3-2.6,6.82-7.07.58-.68,1.31-1.15,1.92-1.77l2.81-2.9,1.89-1.77c.68.18,1.47,1.51,1.2,2.1l.7-.19c.12-.03.31.34.23.44s-.34.39-.49.53l-6.1,6.06c-.92.91-2.14.87-2.66,2.53-.39,1.24-2.36,2.34-3.26,3.41Z"/>
      <path class="cls-1" d="M23.56,30.79l-1.84-2.48,4.05-4.07,3.34-3.23,1.8,2.29-1.16.48c-.2.08.12.34.49.76l-6.68,6.25ZM27.01,26.68l-.59-.97,1.73-1.94c-1.17.07-1.98.9-2.41,1.89l-1.25,2.89,2.52-1.88Z"/>
      <path class="cls-1" d="M30.8,19.21c1.15-2.04,3.13-2.24,4.9-2.44l-.36,2.16c.68-1.04.97-1.91,1.11-3.03l-3.1.66,4.31-4.6,2.83,2.62-4.25,4.37-1.06-.03c-.46.97-1.06,1.88-1.95,2.64l-2.42-2.34Z"/>
      <path class="cls-1" d="M23.57,31.85c-.2.25-1.03.92-1.38,1.14l-2.28-2.2c-.31-.3-.49-1.19-.2-1.61.31-.44,1.35-.34,1.73.11l2.14,2.55Z"/>
      <path class="cls-1" d="M6.24,48.82c-.87-.4-2.32-1.9-2.81-2.79-.16-.29.8-1.31,1.09-1.16,1.22.66,1.12,1.32,2.8,3.12.16.18-.86.93-1.08.83Z"/>
      <path class="cls-1" d="M32.52,21.44c.31.29.35,1.3.03,1.5-.46.28-1.3,0-1.64-.46l-1.66-2.23c-.13-.18.31-.79.53-.82s.72.16.91.33l1.82,1.68Z"/>
      <path class="cls-1" d="M3.09,52.19c-1.12.44-1.89.35-2.55-.24-.55-.49-.72-1.43-.29-2.58l2.84,2.81Z"/>
      <path class="cls-1" d="M4.48,48.4c-.03.52-.53,1.52-.89,1.73s-1.18.1-1.86-.17c.35-.54.86-1.18,1.34-1.7l.48-.51c.14-.15.94.39.92.65Z"/>
    </g>
  </g>
</svg>