<?xml version="1.0" encoding="UTF-8"?>
<svg id="Warstwa_2" data-name="Warstwa 2" xmlns="http://www.w3.org/2000/svg" viewBox="0 0 39.69 54.79">
  <defs>
    <style>
      .cls-1 {
        fill: #fff;
      }
    </style>
  </defs>
  <g id="icon-v8-weapon-shield-pixarts-store">
    <g id="icon-v8-weapon-shield-pixarts-store_22">
      <path class="cls-1" d="M22.16,28.65c-1.03,2.28-3.59,4.03-2.87,7.12-1.86.16-2.84.57-3.76,1.53l.24-3.41-2.77,1.11c.18-1.41.25-2.52.2-4.48,3.34.36,3.91-3.39,5.34-4.59,2.02-1.69,3.21-3.38,4.5-5.39,1.3-2.01,3.38-3.27,3.92-6,.28-1.39,2.85-2.76,2.34-4.89l4.79-3.56c-1.92.59-3.74,1.91-5.28,3.17-.16,2.1-1.22,4.01-3.07,4.87.93,3.09-2.04,4.16-3.41,5.88-1.29,1.61-1.21,5.09-4.96,4.83,1.17,3.3-2.75,4.73-4.95,5.47.94,2.28.53,5.2-2.08,6.56,1.09-2.68,1.06-5.14-.59-7.35,2.31-1.15,7.3-1.73,5.66-5.56l3.04-1.27c1.58-.66,2.12-2.11,1.38-3.91l3.09-1.66c2.63-1.41-.42-3.34,2.01-4.43,1.86-.83,2.23-2.62,1.47-4.2,3.92-3.35,8.48-6.09,13.29-8.5-.94,5.59-2.05,10.7-3.79,15.76-1.42-.42-2.18.1-2.93,1.07l-.85,2.74c-.74.1-2.62.51-2.9,1.27-.47,1.3-.64,2.91-.91,4.17-2.31.65-3.23.92-3.37,3.65l-.11,2.23c-3.64.3-3.06,4.86-3.13,7.47-2.7-.77-4.89.05-7.11,1.76l1.37-2.39c.75-1.3,2.73-1.53,4.01-1.48.23-3.5-.14-5.3,3.15-6.97-.06-2.48.97-5.18,3.63-5.67.38-2.54.97-5.27,4.17-5.47,1.34-7.06,3.49,1.27,5.45-12.89-1.14-.07-1.32,0-.33.52-2.89,10.75-1.29,4.49-5.84,11.43-.21.45-1.36.86-1.75,1.16-1.34,1-1.84,2.96-2.26,4.55-2.61.99-3,3.45-4.05,5.77Z"/>
      <path class="cls-1" d="M17.29,40.8c.36.04.71,1.19,1.04,1.32,1.54.59,2.95-1.2,4.96.39-1.83.22-3.06,1.34-4.32,2.32-1.14-.72-2.92-.83-4.35-.54-1.92-1.18-3.88-2.53-5.59-3.98l-2.55-2.17c-.17-1.58-.62-3.03-1.79-3.98.43-1.49.82-3.17.75-4.87,2.67,1.9.17,4.31,2.6,4.76.34.06.91.13.94.32.06.38.29,3.95,1.78,3.17s2.5-2.2,4.49-2.74l-1.5,5.62c.93.76,2.57.36,3.54.38Z"/>
      <path class="cls-1" d="M4.09,54.42l-3.06.37-1.02-3.13c.12-.45,1.13-1.35,1.81-1.6,1.04.62,2.31,1.6,3.09,2.35.22.43-.31,1.95-.81,2.01Z"/>
      <path class="cls-1" d="M6.25,47.1l-.82-.2c-.11-.03-.17.25-.07.29l.52.23c.56.24,1,.46,1.67.83-1.48.69-2.48.38-3.8-.08l1.65-2.13c.69-.89,1.45-1.89,2.06-2.78l2.55,1.07c-.11.17-.57,1.27-.94,1.2l-2.07-.39,1.72,1.14c-.1.85-1.33,1.09-2.47.81Z"/>
      <path class="cls-1" d="M5.57,51.63c-.98-.38-2.83-1.59-3.08-2.38-.09-.28.73-.74,1.04-.66l2.79.73-.76,2.31Z"/>
      <path class="cls-1" d="M11.1,42.79c-.51.95-2.16,1.11-3.2.02l1.02-1.69,2.17,1.67Z"/>
    </g>
  </g>
</svg>