<?xml version="1.0" encoding="UTF-8"?>
<svg id="Warstwa_2" data-name="Warstwa 2" xmlns="http://www.w3.org/2000/svg" viewBox="0 0 46.52 48.2">
  <defs>
    <style>
      .cls-1 {
        fill: #fff;
      }
    </style>
  </defs>
  <g id="icon-v8-weapon-shield-pixarts-store">
    <g id="icon-v8-weapon-shield-pixarts-store_195">
      <path class="cls-1" d="M18.55,34.15c.62-5.13,1.07-5.16,4.46-8.68l6.38-6.63c2.57-2.67,5.15-5.17,7.04-8.4-6.49,5.18-10.96,11.18-17.12,16.7-1.48,1.32-3.92,1.61-5.93,2.11l2.43-4.31c2.17.04,3.99-.77,5.45-2.01l-4.47,1.05c2-1.27,4.02-2.27,5.48-4.24l5.3-7.11c2.22-2.98,4.86-5.69,7.9-7.59.5.98.65,1.31,1.44,2.24.32-1.43.33-1.94.41-3.3,2.87-1.59,5.83-2.92,9.19-3.97-.71,3.75-1.96,6.73-3.45,10.02-.22.49-.79.88-1.31.67-1.45-.58.97-3.1.6-4.88-2.25,3.64-3.23,6.45-6.28,10.67,1.72-1.52,2.94-3.07,4.42-4.97l1.23.95c-1.51,2.38-3.13,4.38-5.33,6.08l-7.69,5.92c-1.45,1.11-2.34,2.49-3.58,4.04-.05-1.72.59-3.07,1.15-4.69-2.76,2.49-2.38,5.02-3.77,8.23-.75.9-2.4,1.49-3.96,2.13Z"/>
      <path class="cls-1" d="M21.17,36.86c.9.18,2.41-.8,2.9.78.25.8-1.05,2.7-1.95,2.51l-7.05-3.39.89-5.08-5.24,1.1-3.22-7.34c.04-.85,1.85-1.84,2.66-1.55,1.18.42.43,1.78.54,2.66.19,1.46.99,2.89,1.59,4.36l5.63-1.33-1.03,5.64c1.49.65,2.82,1.37,4.28,1.65Z"/>
      <path class="cls-1" d="M2,46.27c1.18,1.46,2.96-.82,3.18-.71l1.12.57c-.45,1.07-1.74,2.03-2.87,2.07-1.35.04-2.63-.82-3.13-1.87-1.07-2.22,1.04-4.52,1.74-4.43.27.04.71.58.72.85.01.7-2.18,1.74-.75,3.51Z"/>
      <path class="cls-1" d="M11.24,36.29c-.52-.81-.71.16-1.28-1.16-.05-.11.39-.32.46-.22l.42.59.31-1.52,3.38-.71-1.33,4.93c-.96-.57-1.36-1.02-1.96-1.91Z"/>
      <path class="cls-1" d="M7.68,43.32c.23.19.04,1.09-.16,1.4-1.93-.12-3.57-1.52-3.94-3.54-.06-.35.66-1.09.9-.83.83.92,2.12,2.14,3.2,2.98Z"/>
      <path class="cls-1" d="M10.27,40.09l-2.56-2.6,1.61-1.72,2.32,2.77c.34.41-.91,1.76-1.37,1.55Z"/>
      <path class="cls-1" d="M9.26,40.75c.33.31-.34,1.26-.71,1.37s-1.16-.31-1.48-.63c-.9-.88-1.55-2.03-.26-3.02l2.45,2.28Z"/>
    </g>
  </g>
</svg>