<?xml version="1.0" encoding="UTF-8"?>
<svg id="Warstwa_2" data-name="Warstwa 2" xmlns="http://www.w3.org/2000/svg" viewBox="0 0 42.41 42.57">
  <defs>
    <style>
      .cls-1 {
        fill: #fff;
      }
    </style>
  </defs>
  <g id="icon-v8-weapon-shield-pixarts-store">
    <g id="icon-v8-weapon-shield-pixarts-store_16">
      <path class="cls-1" d="M29.45,12.8l-5.85,5.58-6.47,6.04c-1.02.95-2.5,1.36-3.65.92,1.71-1.02,2.98-2.09,2.75-4.18L42.41,0l-20.99,26.36c-1.98-.5-3.17.87-4.11,2.75-.94-1.71.36-3.27,1.56-4.52l9.18-9.58c.38-.4.86-1.27,1.39-2.21Z"/>
      <path class="cls-1" d="M13.39,32.01c-.92,1.67-7.87,8.69-9.7,6.67-.63-.7-.41-1.62.21-2.46,1.99-2.68,3.81-5.02,6.55-7.15l2.94,2.94Z"/>
      <path class="cls-1" d="M21.02,33.45c0,1.87-10.98-1.44-12.52-11.04-.07-.46.59-1.09.81-.96,1.46.85,1.31,6.24,7.05,4.56-.11,1.52-.33,2.97.18,3.83,1.9,3.21,4.46,1.75,4.47,3.63Z"/>
      <path class="cls-1" d="M3.62,41.92l-3.62.65.53-3.38c.09-.54.94-1.46,1.44-1.72.97,1.46,1.61,2.14,2.91,2.97.16.24-.76,1.39-1.27,1.48Z"/>
    </g>
  </g>
</svg>