<?xml version="1.0" encoding="UTF-8"?>
<svg id="Warstwa_2" data-name="Warstwa 2" xmlns="http://www.w3.org/2000/svg" viewBox="0 0 42.26 50.08">
  <defs>
    <style>
      .cls-1 {
        fill: #fff;
      }
    </style>
  </defs>
  <g id="icon-v8-weapon-shield-pixarts-store">
    <g id="icon-v8-weapon-shield-pixarts-store_122">
      <path class="cls-1" d="M40.04,27.4c-2.64,9.95-9.24,18.15-18.73,22.68-9.47-4.19-16.35-12.5-19.13-22.59C.17,20.22-.49,12.94.37,5.4L21.14,0l20.81,5.44c.82,7.28.03,14.69-1.9,21.96ZM21.33,45.74c7.67-4.29,12.87-10.89,15.16-19.17,1.62-5.85,2.31-11.84,1.75-17.8l-16.83-4.61L4.07,8.78c-.71,11.71,1.37,23.6,9.95,31.76,2.23,2.12,4.36,4.07,7.31,5.21ZM2.07,6.06c-.59.2-.96,1.33-.71,1.81.21.39,1.07.74,1.45.54.42-.23.81-1.09.78-1.52-.04-.51-.89-1.04-1.52-.83ZM14.21,42.24c0-.65-.52-1.17-1.17-1.17s-1.17.52-1.17,1.17.52,1.17,1.17,1.17,1.17-.52,1.17-1.17Z"/>
      <path class="cls-1" d="M37.33,9.63c.82,13.9-3.19,27.8-16.1,35.18C7.9,37.12,4.2,24.28,4.92,9.61l16.28-4.46,16.14,4.48ZM15.05,25.38c.33.31,1.36-.52,1.09-.82l-3.35-3.67,3.47-3.09-5.95-4.8c-.28.76-.54,1.49-.54,1.86l.03,12.59c.82.02,1.38-.7,1.4-1.43l.11-4.14,3.75,3.5ZM32.35,20.58l-2.75-2.05c-.45-.33-.36-1.78-.06-2.17l2.68,1.71c.2.13.85-.36.9-.6.04-.18-.12-.66-.31-.8l-4.83-3.41-.04,14.26c1-.32,1.45-1.04,1.44-1.87l-.05-5.25,3.26,2.04.52-.96c.12-.21-.4-.64-.76-.91ZM23.38,23.79c0,1.05.19,1.82,1.45,2.24l.04-6.8-6.37-5.05.07,11.81c.68-.29,1.43-.99,1.43-1.53v-7.06c4.18,2.74,3.38,2.22,3.38,6.39ZM21.41,36.49l2.3,2.5c.21.23.87.44,1.13.41s.63-.82.46-1.01l-2.87-3.19,3.35-3.33-4.47-4.77-4.31,4.99,3.19,3.23-3.09,3.43c.06.3.93.98,1.19.73l3.12-2.98Z"/>
      <polygon class="cls-1" points="21.36 34.2 19.08 31.78 21.24 29.2 23.64 31.69 21.36 34.2"/>
      <polygon class="cls-1" points="14.13 17.96 11.33 20.06 11.24 15.72 14.13 17.96"/>
    </g>
  </g>
</svg>