<?xml version="1.0" encoding="UTF-8"?>
<svg id="Warstwa_2" data-name="Warstwa 2" xmlns="http://www.w3.org/2000/svg" viewBox="0 0 49.35 49.64">
  <defs>
    <style>
      .cls-1 {
        fill: #fff;
      }
    </style>
  </defs>
  <g id="icon-v8-weapon-shield-pixarts-store">
    <g id="icon-v8-weapon-shield-pixarts-store_62">
      <path class="cls-1" d="M28.77,14.03c-3.7-.98-4.65,5.08-8.39,5.25.47-1.18,1-2.56,1.03-3.95.16-7.41,5.88-13.15,13.29-13.53,1.01-.05,2-.4,3.07-.7-.86,3.79-5.68,3.82-4.14,8.72l1.52,1.25-4.1,4.67c-.64-.58-1.54-1.52-2.27-1.71ZM23.68,15.46c.52-2.38,1.44-4.47,2.63-6.83-1.83,1.75-2.85,4.3-2.63,6.83ZM29.81,10.39l1.67.19c-.54-.39-1.15-.76-1.71-1.01l-.19,2.19c-1.29.08-3.17-.56-3.61,1.3,2.77-2.19,5.59.68,5.32.91l.47-.4c.35-.31-1.61-1.56-1.95-3.17Z"/>
      <path class="cls-1" d="M6.18,44.17c-.36.68-.59,1.38-.8,2.34.03.11-1.03-.2-.99-.53l.19-1.44-.72.66c-.17.15-.6-.36-.74-.54s.27-.72.47-.83c1.54-.83,2.12-2.51,3.22-3.58l6.56-6.3,1.95-1.79,2.75-2.69c.1.01.45.39.34.55l-.63.91,1.05-.47c.22-.1.44.34.3.6-1.83,3.48-4.58,6.62-7.65,9.05-.89.71-1.22,2.1-2.81,2.07l.43.48c.09.1-.2.48-.31.57l-2.49,2.17c-.28-.13-.53-.19-.49-.3l.34-.93Z"/>
      <path class="cls-1" d="M39.11,11.71l-.07,1.48-2.79-2.54c2.12-.5,2.83-2.03,2.51-4.06,3.42-2.37,6.66-4.65,10.59-6.59-1.86,3.57-4.07,7-6.28,10.27-1.35.16-2.89.65-3.96,1.44Z"/>
      <path class="cls-1" d="M26.32,24l2.42-1.14-6.51,6.58c-.71-1.03-1.01-1.33-1.13-1.79-.44-1.72,4.44-5.82,5.98-7.17.69,1.45-.86,1.32-1.1,2.74.84-.65,1.56-1.59,2.14-2.62l-1.01-.36,1.7-2.39c.54.63,1.04,1.03.63-.08l2.84-2.66,3.63-3.98,2.46,2.56-3.88,3.89.09-2.16c.81-.53,1.45-.95,1-2.09l-1.83,2.03c1.48,4.25-3.98,5.42-3.63,5.5-.24-.06-.44-.36-.78-.81-.23-.31-1.12-.59-1.31-.45l1.77,2.12c-1.47.93-2.27,1.18-3.48,2.28Z"/>
      <path class="cls-1" d="M41.17,22.11l-3.18-1.47,3.72,2.61c-.74-7.68-2.67-3.65-3.8-7.03-1.27,1.23-1.88,1.92-2.7,3.18l-.78-.83c-.19-.21.55-.77.79-1l3.41-3.25c.25,1.06.36,1.6.59,2.21.19.49,1.32.56,2.15.35,1.23,2.84,2.07,6.12,1.48,9.55-1.73-2.25-3.68-3.9-6.25-4.73.2-1.05.14-1.94-1.03-2.6l2.01-1.83,2.44,1.38c.75.42,1.02,2.26,1.13,3.47Z"/>
      <polygon class="cls-1" points="3.95 48.75 .96 45.45 2.2 44.53 5.08 47.62 3.95 48.75"/>
      <rect class="cls-1" x="19.41" y="27.28" width="1.56" height="4.27" transform="translate(-14.49 21.02) rotate(-41.91)"/>
      <path class="cls-1" d="M3.02,48.72c-.32,1.45-1.91.95-2.53.18s-.78-1.8.3-2.6l2.23,2.42Z"/>
    </g>
  </g>
</svg>