<?xml version="1.0" encoding="UTF-8"?>
<svg id="Warstwa_2" data-name="Warstwa 2" xmlns="http://www.w3.org/2000/svg" viewBox="0 0 32.82 54.62">
  <defs>
    <style>
      .cls-1 {
        fill: #fff;
      }
    </style>
  </defs>
  <g id="icon-v8-weapon-shield-pixarts-store">
    <g id="icon-v8-weapon-shield-pixarts-store_48">
      <path class="cls-1" d="M17.48,23.22c-1.76-1.4-2.6-2.79-2.89-4.76l-.35,2.25c-2.21.29-4.58.01-6.67-1.33-4.12-2.66-5.3-8.73-2.07-12.68,2.67-3.27,7.61-4.26,11.25-2.29,2.65,1.43,3.95,4.21,4.37,7.15.47,3.28-1.66,6.45-4.35,8.2.4,1.17.63,2.31.7,3.46ZM15.07,7.94c1.06-.87,1.03-2.75.26-3.29-.96.35-2.1,1.49-2.17,2.43.1.48,1.52,1.18,1.91.86ZM6.56,11.51c.32.28,1.65-.03,1.65-.47,0-.37-.06-1.16-.15-1.51s-1.08-.45-1.43-.36l-2.1.57,2.04,1.77ZM11.75,10.64c-.81.4-.96,1.77-.61,2.26.32.45,1.43.85,1.95.59s.85-1.45.69-2.04c-.15-.53-1.37-1.13-2.02-.81ZM20.05,13.87c-.92-1.07-1.65-1.8-2.5-2.03-.47-.13-1.38.88-1.28,1.32.09.38.41,1.16.66,1.62l3.12-.91ZM11,17.42c.36-.26-.22-1.67-.65-1.64-.39.02-1.04.09-1.39.16s-.56,1.06-.56,1.45l-.04,1.94,2.63-1.9Z"/>
      <path class="cls-1" d="M23.05,34.96l.19,1.76c.05.49-1.24.95-1.72.82-1.55-2.75-2.77-5.98-3.93-8.89-.98-2.46-2.32-4.36-3.01-7.09l3.21,3.04.19-4.85,5.07,11.78c.53,1.22,2.26,4.18,1.87,4.42l-1.14.7-.73-1.69Z"/>
      <path class="cls-1" d="M31.91,53.54c-1.8.35-1.79,1.92-3.84.48-.63-.44-1.45-1.49-1.2-2.31l5.25-2.17c1.23,1.01.6,3.28-.21,4Z"/>
      <path class="cls-1" d="M26.99,50.99l2.17-2.95-2.38,2.14-.89-2.04c1.06-1,2.18-1.66,3.58-2.33l1.66,3.52-4.15,1.67Z"/>
      <path class="cls-1" d="M28.19,43.6c.59-.07,1.21,1.62.69,1.89-1.22.64-1.78,1-3.09,1.89-.51-.87-1.18-2.39-1.57-3.31l-.97-2.31,3.11-1.56c.18-.09.88-.11.83.05l-.33.96c.76-.1,1.27.73,1.43,1.89-.71.45-2.02.51-3.19.23l-.52.74,3.62-.46Z"/>
      <path class="cls-1" d="M22.21,40.02c-.1-.11-.48-1.17-.58-1.67,1.13-.6,2.43-1.26,3.67-1.79.4-.17.85,1.3.44,1.52l-3.54,1.94Z"/>
      <polygon class="cls-1" points="21.67 9.59 20.64 7.23 24.64 6.71 21.67 9.59"/>
      <polygon class="cls-1" points="10 21.18 7.55 24.43 7.64 20.27 10 21.18"/>
      <polygon class="cls-1" points="4.32 17.15 0 17.61 3.19 14.76 4.32 17.15"/>
      <polygon class="cls-1" points="9.44 2.98 7.11 4.19 6.83 0 9.44 2.98"/>
      <path class="cls-1" d="M3.75,7.87l-.79,2.26L.15,7.77c1.31-.07,2.15-.03,3.6.1Z"/>
      <path class="cls-1" d="M17.22,3.63l-2.27-.7c.95-1.27,1.27-1.68,2.31-2.69l-.03,3.38Z"/>
      <polygon class="cls-1" points="24.44 16.57 21.01 16.53 21.76 14.46 24.44 16.57"/>
      <rect class="cls-1" x="22.61" y="39.29" width="4.14" height="1.08" transform="translate(-14.14 13.59) rotate(-24.16)"/>
      <path class="cls-1" d="M11.69,11.31c.42-.14,1.29-.08,1.57.14s.17,1.08-.1,1.3-1.05.2-1.39.05c-.38-.17-.48-1.35-.09-1.48Z"/>
    </g>
  </g>
</svg>