<?xml version="1.0" encoding="UTF-8"?>
<svg id="Warstwa_2" data-name="Warstwa 2" xmlns="http://www.w3.org/2000/svg" viewBox="0 0 37.79 54.81">
  <defs>
    <style>
      .cls-1 {
        fill: #fff;
      }
    </style>
  </defs>
  <g id="icon-v8-weapon-shield-pixarts-store">
    <g id="icon-v8-weapon-shield-pixarts-store_27">
      <path class="cls-1" d="M15.58,38.63c-.33-1.01-.5-3.06.09-4.02,5.78-9.39,12.04-18.09,17.26-27.85-6.84,8.86-12.8,17.97-19.1,27.1-1.01.45-2.01.9-3.1,1.2-.7.2-1.94-1.15-2.29-1.68l2.35-2.93c1.65-.03,3.54-.9,4-2.02.19-.46-.32-1.24-.83-2.02l9.07-13.43,1.62.28c.25.04.9-.44.81-.67l-.5-1.29c-.13-.32-.51-.89-.3-1.05.81-.64,1.81.3,2.46-.34.57-.57-.14-1.17-.47-2.45-.25-.95,2.43.33,2.68-.8.11-.5-.18-1.24-.58-1.78-1.39-1.85,7.05-4.52,8.62-4.89.34,1.77,1.23,10.09-1.25,10.2-.55.03-1.43-.09-1.75.18-1.12.96,1.29,1.81.48,2.71s-1.63-.51-2.56.49c-.78.83.84,1.3.57,2.36-.3,1.19-2.25-.37-2.76.8-.17.39.33,1.17.96,1.75l-4.9,7.46-1.03-1.84c-.16,1.4-.05,3.09-.73,4.04-1.26,1.73-2.38,3.25-3.72,4.82-.96,1.11-1.2,2.34-1.03,3.95l-1.64,2.99c-.61-.06-2.12-.69-2.42-1.28Z"/>
      <path class="cls-1" d="M20.07,40.78l.07,2.33-4.62.35-5.59-3.66c-1.21-.79-2.37-1.77-3.51-2.82-.9-.83-.98-3.13-1.36-4.34.25-.42,1.2-.87,1.69-.9.84,1.96,2.04,3.79,4.05,4.32l3.58-1.26.21,4.02c1.42,1.56,2.91,2.29,5.49,1.97Z"/>
      <path class="cls-1" d="M4.02,54.76l-2.3-1.12c-.74-.36-1.38-1.14-1.66-1.92-.21-.6.16-2.07.81-2.15,1.04-.12,1.64-.19,2.67-.4l2.12,1.41c-.16,1.18.08,1.86.71,2.95-.27.4-1.75,1.52-2.36,1.23Z"/>
      <path class="cls-1" d="M9.7,44.79l-3.48-.03,1.14-2c1.3-.22,2.52-.33,3.99-.3l-1.65,2.33Z"/>
      <path class="cls-1" d="M7.74,47.55l-3.19-.21c.41-.74.9-1.53,1.33-2.03l3.28.28-1.42,1.96Z"/>
      <path class="cls-1" d="M7.26,48.05l-1.12,1.82c-.98-.45-1.5-.72-2.49-1.75,1.48-.16,2.1-.13,3.62-.07Z"/>
      <polygon class="cls-1" points="11.63 41.67 8.31 41.75 9.12 40.08 11.63 41.67"/>
    </g>
  </g>
</svg>