<?xml version="1.0" encoding="UTF-8"?>
<svg id="Warstwa_2" data-name="Warstwa 2" xmlns="http://www.w3.org/2000/svg" viewBox="0 0 58.49 57.8">
  <defs>
    <style>
      .cls-1 {
        fill: #fff;
      }
    </style>
  </defs>
  <g id="icon-v8-weapon-shield-pixarts-store">
    <g id="icon-v8-weapon-shield-pixarts-store_04">
      <path class="cls-1" d="M30.23,28.72l-.61-.7-1.61,1.23c.57-1.33,2.24-1.85,1.81-3.42l-10.85,10.56c-.19.18-.2.78-.03.8.17.02.72,0,.89-.16l3.24-3.3c-.24,1.28-3.65,3.72-3.29,4.06l.84.79,4-3.7-3.71,3.96.34.47c.06.09.49-.12.62-.26l10.74-10.78c-.89-.1-1.7.18-2.38.45ZM28.81,30.42c-3,1.72-2.54,2.3-5.15,4.24-1.47.07,5.59-5.45,5.15-4.24Z"/>
      <path class="cls-1" d="M.77,51.44l2.21,3.04c-1.03-.47-1.64-1.3-2.55-2.5-1.07,2.33-.06,4.49,1.98,5.53,1.14.58,2.57.1,3.4-.16-1.05-.79-1.77-1.4-2.42-2.35l2.79,1.86.95-2.6-3.73-3.75-2.65.91Z"/>
      <path class="cls-1" d="M15.78,39.3c-.77.33-1.55,1.21-1.82,2.01-.85.29-1.64.96-2.21,1.87l3.81.97c.36.09.93.47,1.16.28.26-.21.75-.67,1.14-1.04l-1.72-1.2,1.25.09-1.62-2.98Z"/>
      <path class="cls-1" d="M12.72,48.36l-1.82-4.48-2.56,2.54,1.88,4.28c.96-.69,1.93-1.59,2.5-2.34Z"/>
      <path class="cls-1" d="M10.07,50.98l-4.22-1.86c-.48-.21-1.58,1.02-1.46,1.53.83,1.01,2.07,2.14,3.15,2.93l2.52-2.6Z"/>
      <path class="cls-1" d="M19.74,41.77c.67-.41,1.4-1.12,1.49-1.75l-3.37-3.32-1.66,1.56,3.53,3.51Z"/>
      <path class="cls-1" d="M11.55,43.8c.33,1.74.93,2.86,1.88,4.05l2.7-2.79c-1.48-.71-2.81-1.03-4.58-1.26Z"/>
      <path class="cls-1" d="M7.75,46.97l-1.79,1.74c1.46.63,2.1.92,3.46,1.31l-1.67-3.05Z"/>
      <path class="cls-1" d="M19.29,41.88l-2.61-2.19,1.42,3.02c.21.26,1.09-.5,1.18-.83Z"/>
      <path class="cls-1" d="M28.94,12.13c1.53-3,3.45-5.92,6.65-7.1-2.11,1.89-4.42,3.5-5.62,5.99l-.85,1.76c-.81,1.69-1.16,3.53-1.14,5.41,2.02-2.41,6.2-2.21,8,.11l2.02-2.3c-.69-.79-.95-2.31.04-2.83.49-.26,1.16-.57,1.41-.86l1.66-1.95c-.68-1.1-1.61-1.52-2.94-1.44,1.06-.85,2.45-.16,3.28,1.1l3.3-.07c-1.9-2.09-2.73-4.04-1.78-6.58l-3.43.31c1.04-1.09,2.65-.1,3.68-.77l3.21-2.11c-1.79-.78-4.83-1.13-6.66-.35-.24.1-.58.69-.7.88-.12.18-.83-.68-1.23-.6-5.75,1.18-12.18,7.81-12.96,14.13-.05.38.55,1.01.4,1.12l-.69.55c-.25,2.14-.26,4.41.46,6.41.7-1.55,2.03-2.98,2.33-4.26.45-2.35.47-4.43,1.55-6.55Z"/>
      <path class="cls-1" d="M49.4,27.1c3.15-1.24,6.02-7.98,5.78-11.45-2.54.84-4.52.07-6.41-1.58-1.09,5.41,2.07,3.14.62,6.23-.03-1.11-.51-2.36-1.29-2.74l-2.21,1.94c-.39.34-.58,1.54-1.22,1.61-.59.06-1.26-.2-2.06-.55l-2.3,2.08c2.17,1.89,1.91,6.01-.18,7.81,2.69.2,5.12-.63,7.45-2.06l.09-2.91c.53.72,1.13,1.5,1.74,1.63Z"/>
      <path class="cls-1" d="M55.65,15.62c-.46,1.59-.21,3.24-.85,4.63-2.05,4.47-1.34,3.82-5.17,7.42l-1.65-.89c.33,1.71-.41,2.23-1.52,2.75-2.3,1.07-4.57,1.43-7.14,1.46l-4.1,2.39c1.84.58,3.94.95,5.81.46.69-.18,1.11-.08,1.68-.14,3.33-.33,7.13-1.98,9.48-4.44.63-.65.78-.95,1.49-1.49,2.06-1.57,3.62-4.83,4.17-7.12.07-.28-.66-1.07-.48-1.24l.77-.73c.59-2.07.39-4.32-.2-6.53-.68,1.2-1.96,2.34-2.28,3.46Z"/>
      <path class="cls-1" d="M38.69,18.51l-.4.39c-.1.1-.13.62,0,.58l.62-.19.5-.16c.11-.03-.03.46-.08.6-.1.52-.06.83.25.43.52-.18.93-.41.98-.25l.32.95,1.61-1.3c.63.53,1.24.93,1.83.89.49-.03.79-.95,1.15-1.4.5-.62,1.89-1.21,2.19-1.99,1.16-3.03-.95-6.21-3.98-6.5-1.63-.16-2.88.43-3.6,1.98-.27.57-1.08.87-1.69,1.17-.85.42.19,1.87.46,2.37-.51.74-1.05,1.59-1.15,2.27l.87-.14c.09-.01.16.23.1.29ZM45.39,17.39c.21.49-.48,1.39-.93,1.49-.45.1-1.18-.24-1.58-.67-.33-.35-.37-1.45.12-1.67.8-.37,2.03,0,2.39.84ZM39.72,13.95c.1-.56,1.13-1.25,1.69-.7.49.48.79,1.56.63,2.21-.13.55-1.26.5-1.71.21-.45-.29-.72-1.1-.61-1.71ZM40.09,17.32c.2-.22,1.07-.6,1.46-.48.38.12.05,1.33-.32,1.66l-1.15-1.17Z"/>
      <path class="cls-1" d="M34.1,27.54l6.06-5.89c-1.85-1-2.61-1.83-3.3-3.38l-5.99,5.87-.51,3.9c1.34-.29,2.5-.42,3.73-.49ZM35.38,21.42c.29-.39,1.1-.61,1.43-.39.37.26.83,1.06.62,1.4-.3.47-.95.69-1.35.61-.66-.14-1.18-.97-.7-1.62ZM32.36,24.36c.43-.43,1.13-.42,1.56.01s.42,1.13-.01,1.56-1.13.42-1.56-.01-.42-1.13.01-1.56Z"/>
      <polygon class="cls-1" points="48.39 6.95 48.68 8.24 49.82 7.03 52.82 5.8 51.67 8.31 50.33 10.03 51.57 10.23 55.25 3.34 48.39 6.95"/>
      <path class="cls-1" d="M49.64,12.34l-3.39-3.47-1.33,1.22c1.57.74,2.61,1.86,3.47,3.43.38.02,1.32-.7,1.26-1.18Z"/>
      <path class="cls-1" d="M48.77,8.59c-.24.1-.81.26-1.37.44.71.82,1.38,1.51,2.12,2.19.92-3.15,2.06-2.46,2.4-4.77l-3.15,2.14Z"/>
    </g>
  </g>
</svg>