<?xml version="1.0" encoding="UTF-8"?>
<svg id="Warstwa_2" data-name="Warstwa 2" xmlns="http://www.w3.org/2000/svg" viewBox="0 0 39.73 57.23">
  <defs>
    <style>
      .cls-1 {
        fill: #fff;
      }
    </style>
  </defs>
  <g id="icon-v8-weapon-shield-pixarts-store">
    <g id="icon-v8-weapon-shield-pixarts-store_99">
      <path class="cls-1" d="M5.79,17.29c1.49,1.45,2.51,2.56,3.99,3.41-3.66-4.07-3.77-6.17-9.21-4.96,1.06-2.22,5.4-.83,6.31-.01,1.49,1.33,2.65,3.54,4.6,4.16,1.12.35,2.37.19,3.5.82l-2.24-3.6c-.82-1.32-2.81-2.14-4.23-1.19-.41-.23-.57-1.62-.23-2.14.18-.28,1.07-.06,1.67.03-.46-.77-1.5-.88-2.67-.64-.83.17-2.38-1.12-2.17-2l.64-2.63-.71.47-1.95-1.01c.91-.21,2-.27,2.77.07,1.57.68.07,3.53,2.38,3.15.08-1.07.26-1.79.67-3.05-1-.78-2.36-1.64-3.68-2.5-1.02-.66-.11-4.83.24-5.66.27,1.66.16,2.76-.1,4.47l3.15,1.44c3.6,1.64-.67,3.94,3.09,7.04-.79-1.91,1.33-3.11.92-5.43-.21-1.16-2.86-2.28-2.66-3.5.08-.48.44-1.4.63-1.74.16,1.33.26,2.36,1.32,2.5,1.69.22,2.66,1.58,2.37,3.27-.07.44-.28,1.62,0,1.96.32.39.96.82,1.69,1.34-3.4,5,3.46,5.2,2.16,10.28-4.08-2.94-4.53-6.86-4.51-11.69-1.5,6.09.69,7.82,3.6,11.89.41.58.64,2.38-.51,1.81.47.54.32,1.72-.3,1.94-5.14-3.86-3.97-.58-7.63-3.79-1.42-1.24-2.84-2.51-2.91-4.52Z"/>
      <path class="cls-1" d="M27.31,43.44l-3.6-6.21-3.2-5.39c.73.16.96.25,1.42.46-1.21-.84-2.23-1.58-3.51-2.82l1.33-.02-1.1-.6c-.35-.19-.17-1.47.07-1.78.93.81,1.68,1.48,3,1.89l-2.25-1.92c-.2-.17-.5-.68-.51-.92-.02-.39.43-.89.91-.77-.1-.31-.18-1.36.01-1.82l1.47-3.59.79,2.38c-1.33,1.75-1.11,3.54.06,5-.35-1.68-.97-2.87.15-4.16,1.41,1.23-.21,2.82,1.6,5.18.28.37.25,1.43.47,1.88l3.92,7.79c.57,1.13-.32,2.45-.85,2.98.22.77.85,1.65-.18,2.43Z"/>
      <path class="cls-1" d="M37.35,52.43c-1.02-.53-1.7-.94-2.34-1.54,0,1.66.1,3.28.6,4.62l-1.02-.62.48,2.34c-.16-.01-.75-.83-.82-1.23l-.52-2.91c-.26-1.45-.14-3.02-1.87-3.5,1.33,1.02,1.58,2.53.96,3.97l-1.33,3.13c-.5-2.32,1.13-2.43-.22-5.9-.2-.5-.98-1.36-1.2-1.79-.11-.8-.13-1.37-.94-1.88l.4,2.74c-2.23-1.87-2-5.59-1.04-8.72,1.29-4.18.51-3.88-1.45-7.31,1.15-.48,2.11,2.61,2.55,1.89l.35-.58c0,2.57,0,4.25-.57,6.22-.45,1.57-1.47,3.22-.47,5.03l.07-2.8.62-.47c.02-.69.15-1.56.47-2.18l2.94,4.88c.12.2.16,1.02.11.83l1.67.6c1.07.38,2.3.21,3.09,1.35l-2.74-.4c-1.56-.23-2.76-.9-4.22-1.9.5,1.11,1.54,1.67,2.87,2.02.83.22,1.53,1.21,2.19,1.82,1.37,1.26,2.56,2.4,3.77,3.79-1.17-.08-1.48-1.04-2.38-1.5Z"/>
      <path class="cls-1" d="M19.29,38.63c-.81-1.5.24-3.26,1.75-3.49l-1.6-.97c-.4-.24-1.24.02-1.81.33l.5-1.02c.12-.24-.25-.92-.41-1.15l-1.45-2.18.54-2.54,3.07-9.81c1.73-5.54-4.2-6.56-3.83-8.65,2.98,1.01,5.25,3.59,5.74,6.72.61,3.88-7.62,13.58-1.89,17.36.83.55,1.71,1.48,1.52,2.27-1.14.51-2.37,1.49-1.71,2.69.44.8.76,1.68.64,2.41l-1.06-1.97Z"/>
      <path class="cls-1" d="M16.89,13.08c-.06-.1-.38-.38-.46-.45-.12-.1-.42.47-.32.6l1.47,1.9c.21.27.05,1.2-.24,1.56-1.37-.69-2.57-2.92-1.38-4.48.59-.55,2.11.33,2.61.88.65.71,1,1.95.81,2.97l-.64,3.47c-1.07-1.32-1.16-2.66-.12-3.74l-1.74-2.73Z"/>
      <path class="cls-1" d="M4.6,21.66c-.26.15.2.46.76.95l-4.04.88c.2-1.21.44-2.18,1.12-2.53,1.73-.89,6.71.28,6.39,2.36l-4.23-1.66Z"/>
      <path class="cls-1" d="M30.54,20.27c-2.02.48-4.48,1.27-5.61-.92l2.4-.35-2.73-.27c.66-.64,2.1-1.5,3.22-.98s1.81,1.41,2.71,2.51Z"/>
      <path class="cls-1" d="M24.41,11.91c-.13,1.3-1.1.33-2.15,2.26l-1.35-2.97c-.39-.86.66-2.98,1.42-3.4,1.57-.29,3.03-.39,3.25-2.12,1.11,1.91-2.94,2.43-3.01,3.97l-.11,2.59,1.95-.33Z"/>
      <path class="cls-1" d="M12.61,28.7c1.94,2.28.79,4.16-.91,6.12l-.89-2.27c-.58-1.48.05-2.98,1.29-3.73l-.16,2.73.67-2.85Z"/>
      <path class="cls-1" d="M30.64,34.6l.09-.77c.02-.13-.18-.41-.27-.32l-.63.61c-.84-2.09,1.01-4,3.19-4.35-.01,2.57-.12,4.2-2.38,4.83Z"/>
      <path class="cls-1" d="M7.06,14.94l-2.78-.97C3.29,9.65-.47,13.38.05,6.59c.62,2.05,1.13,3.61,3.46,3.89.57,2.96,4.53,3.11,3.56,4.46Z"/>
      <path class="cls-1" d="M19.53,9.93c-.6.25-1.91-.63-2.31-1.26,1.59-3.17-.86-4.06,1.96-5.49l.42-2.51c1.94,3.96-2.47,2.95.16,5.5-1.01.98-1.04,1.92-.23,3.76Z"/>
      <path class="cls-1" d="M17.54,7.03l-1.59,1.59-.62-.63c-.56-.56,1.36-1.02.98-3.33s-3.88-.61-3.47-3.3c1.48,1.44,2.79.86,3.98,2.13.09,1.27.23,2.05.72,3.53Z"/>
      <path class="cls-1" d="M9.55,28.82l1.19.04c-.94,1.51-2.68,1.27-3.82.43l1.66-1.38c.72-.6,1.47-.99,2.57.05l-1.6.87Z"/>
      <path class="cls-1" d="M24.65,19.94c.84.64,1.49,1.33,1.36,2.83-.85-.28-1.65-.66-2.21-1.19-.6-.57-.48-1.62-.29-2.65l-1.56-.52c.22-.12,1.43-.18,1.68.13.29.35.37.96.61,1.83-.09.62.05.38.4-.43Z"/>
      <path class="cls-1" d="M30.85,35.99l2.22.16-1.94-.77c.46-.23,1.51-.46,2.17-.31s1.31,1.01,1.62,1.65l-2.07.41c-.71.14-1.61-.35-2-1.13Z"/>
      <path class="cls-1" d="M13.3,19.2l-3.53-2.17c-.2-.12-.53-.82-.33-.94,1.36-.85,3.82,2.05,3.86,3.11Z"/>
      <path class="cls-1" d="M22.53,17.1c-.11-.39.04-1.27.19-1.76,1.42,1.03,2.17.52,3.42-.24-.39,1.54-1.99,2.38-3.61,2Z"/>
      <path class="cls-1" d="M16.42,26.98c-3.93-1.04-2.44,1.68-4.87,1.11l1.76-1.45c.86-.71,2.42-.97,3.11.34Z"/>
    </g>
  </g>
</svg>