<?xml version="1.0" encoding="UTF-8"?>
<svg id="Warstwa_2" data-name="Warstwa 2" xmlns="http://www.w3.org/2000/svg" viewBox="0 0 46.65 50.22">
  <defs>
    <style>
      .cls-1 {
        fill: #fff;
      }
    </style>
  </defs>
  <g id="icon-v8-weapon-shield-pixarts-store">
    <g id="icon-v8-weapon-shield-pixarts-store_119">
      <path class="cls-1" d="M7.91,45.6c8.61-3.5,15.14-13.64,19.14-21.29.94-1.79,2.17-3.02,4.54-2.79l-7.68,12.98c-4.68,7.91-13.66,16.4-23.92,15.67,4.51-3.57,6.96-8.77,6.78-14.4,3.28-1.02,6.11-2.58,8.8-4.62,5.1-4.07,8.66-9.04,11.75-14.73.42,1.57.56,2.68.74,4.29l2.76-1c.31-.19.61-.47.75-.34l.8.77c1.13,1.08-4.11.7-5.03,2.45-3.14,5.99-6.38,11.36-10.98,16.33-2.49,2.69-5.71,4.5-8.45,6.68Z"/>
      <path class="cls-1" d="M39.77,19.65c-.86,2-3.51,2.03-5.11.9l-9.66-6.82c-.48.98-.79,1.62-1.03,1.98s-1.47-.19-1.68-.56-.2-1.16.08-1.64c.95-1.63,3.28-1.74,4.83-.73,2.83,1.84,5.48,3.84,8.21,5.89.23.18.99.59,1.2.41l.97-.82c.37-.31,1.21-.58,1.64-.51s.79,1.35.55,1.9Z"/>
      <path class="cls-1" d="M42.68,4.32l-1.4,1.34-3-3.27c.78-.97,2.36-2.1,3.89-2.35,1.41-.23,2.92.46,3.7,1.42.81,1.01,1,2.5.52,3.88-.32.91-1.32,1.42-2.34,1.2-.83-.18-1.28-1.01-1.36-2.23Z"/>
      <path class="cls-1" d="M34.37,15.25l-1.32-3.75c-.42-1.19-.75-2.46.74-3.11l1.44,4.59c.18.56-.52,1.8-.86,2.27Z"/>
      <path class="cls-1" d="M35.89,12.52l-1.37-3.8c-.14-.38-.4-1.17-.24-1.48.19-.36.86-.91,1.27-1.17l1.3,4.02c.22.69-.44,1.94-.96,2.44Z"/>
      <path class="cls-1" d="M37.62,3.76l.86,4.3c.13.68-.26,1.52-.98,2.01l-1.61-4.68c.27-.8,1.58-1.91,2.28-2.18.81.57,1.79,1.69,2.17,2.61.19.45-.63,1.73-.94,1.97l-1.78-4.02Z"/>
      <path class="cls-1" d="M33.63,16.44l-3.52-2.48c.08-.32.12-.74.29-.72.26.03.8.11,1.08.16,1.58.28,2.5,1.34,2.15,3.04Z"/>
    </g>
  </g>
</svg>