<?xml version="1.0" encoding="UTF-8"?>
<svg id="Warstwa_2" data-name="Warstwa 2" xmlns="http://www.w3.org/2000/svg" viewBox="0 0 39.59 56.04">
  <defs>
    <style>
      .cls-1 {
        fill: #fff;
      }
    </style>
  </defs>
  <g id="icon-v8-weapon-shield-pixarts-store">
    <g id="icon-v8-weapon-shield-pixarts-store_143">
      <path class="cls-1" d="M22.26,50.71c4.76-2.4,11.15-9.59,12.34-14.65l-.2-5.36h2.99s.71,6.71.71,6.71c-3.73,8.19-10.08,14.82-18.44,18.64-8.76-4.36-14.14-9.91-18.31-18.61l.69-6.63c.93-.17,2.28-.16,3.15.05-.1,2.14-.57,3.85-.07,5.58,1.56,5.41,6.77,11.29,11.94,14.41.41-5.27-.4-8.23.14-13.58l2.51,1.32,2.52-1.25.04,13.39ZM30.64,47.09c0-.63-.51-1.14-1.14-1.14s-1.14.51-1.14,1.14.51,1.14,1.14,1.14,1.14-.51,1.14-1.14Z"/>
      <path class="cls-1" d="M19.69,15.98l-2.55.89V4.95c-4.34,1.27-8.74,2.25-13.11,3.11l.98,9.4-3.1.11c-.35-4.27-1.04-8.3-1.91-12.59l9.07-1.75c3.69-.71,7.14-1.75,10.59-3.22,2.79,1.03,5.48,2.17,8.41,2.73l11.51,2.22c-.97,4.15-1.66,8.03-1.96,12.3-.82.41-1.91.42-3.19.22l1.03-9.46c-4.44-.8-8.68-1.73-13.22-3.18l-.03,12.05-2.53-.9ZM38.15,6.64c0-.62-.51-1.13-1.13-1.13s-1.13.51-1.13,1.13.51,1.13,1.13,1.13,1.13-.51,1.13-1.13ZM19.4,11.28c-.65.03-1,1.19-.77,1.7.17.38,1.02.63,1.49.53.41-.09.75-1,.71-1.46-.04-.41-.84-.79-1.43-.77Z"/>
      <path class="cls-1" d="M28.49,16.55c1.29,8.64-.11,17.15-8.77,20.99-9-4.45-9.61-11.46-8.88-21.07,2.98,2.75,5.91.89,8.77.85,2.87-.04,5.84,2.05,8.88-.78ZM19.25,32c0,.15.43,1.01.69,1.27.66.67,2.7-1.23,2.85-3.2.02-.21-.96-.82-.76-.9l.96-.4c.37-.15,1.17-.36,1.16-.69l-.02-1.2c0-.59.01-1.13.04-1.9.04,0-.5-.09-.73-.14,1.08-.61,1.97-1.97,1.15-3.07-.29-.39-1.34-.16-1.69.15s-.46,1.48.03,1.52c.26-.07.66-.79.99-1.33,1.71,1.1-1.71,1.88-1.64,3.14.09,1.4,1.56,1.31,1.37,2.65-.04.29-1,.21-1.16,0l-1.52-2.12c.57-1.33,1.03-2.48.95-3.88-.04-.68-.93-1.66-1.48-1.69-1.28-.08-2.87,1.31-2.85,1.34l.41.47-.21,1.44c-2.19-.48-.79-2.45-2.9-1.93-.32.08-.18,1.11.08,1.39l2.25,2.4c-.03.14-.7.66-1,.58l-1.16-.33c-.43-.12-.58,1.62-.14,1.61,2.81-.08,3.39-1.05,4.29.46-.73.1-1.8.36-1.72.73l.31,1.32-1.46-.14c-.26-.03-.65.79-.54.97.63.69,2.66.95,3.07-.14l.54-1.46c.14.72-.06,1.26.18,1.42l.95.64c.18.12.09.78-.13.83l-1.16.24Z"/>
      <path class="cls-1" d="M37.4,29.68l-8.92.16c1.65-5.36.89-6.42,1.3-11.27l7.75-.11-.13,11.21Z"/>
      <path class="cls-1" d="M10.97,29.8l-8.89-.15-.18-11.19,7.99.11c-.26,4.08-.17,7.33,1.08,11.23ZM7.38,20.65c0-.63-.51-1.15-1.15-1.15s-1.15.51-1.15,1.15.51,1.15,1.15,1.15,1.15-.51,1.15-1.15Z"/>
      <path class="cls-1" d="M26.09,38.62l-.21,8.32c-.65.78-1.73,1.6-2.77,2.2l-.02-12.54c3.7-2.07,4.19-6.1,6.12-5.9.53.06.46,1.06.45,1.68l-.05,10.63c-.56,1.17-1.9,2.46-2.93,3.38l-.59-7.76Z"/>
      <path class="cls-1" d="M14.23,47.82l-.34-6.88-.4,6.14-3.2-3.27c.26-.34-1.47-17.5,1.4-12.42,1.19,2.11,2.78,3.81,4.7,5.3l-.03,12.45-2.12-1.31Z"/>
      <path class="cls-1" d="M25.9,7l3.77.87-.07,8.96-.94-1.38c-1.79,1.22-3.48,1.88-5.56,1.71V6.22c.68.05,1.72.32,2.13.74l.18,3.93c.27-.25.56-.89.56-1.22l-.07-2.67Z"/>
      <path class="cls-1" d="M10.04,16.04V7.89s2.83-.75,2.83-.75l.69,5.12c.22-1.91.1-3.1-.13-5.22l2.95-.92-.04,11.04c-3.75.44-4.94-2.45-6.31-1.12Z"/>
      <path class="cls-1" d="M9.48,42.54c-3.67-4.83-4.08-5.79-3.41-11.89l3.55.16c.19,4.14.17,7.68-.13,11.73Z"/>
      <path class="cls-1" d="M5.95,17.57l-.83-8.72c.08-.51,1.61-.33,1.95.1.44-.57,1.37-.97,2.3-1.01l.16,9.61-3.58.03Z"/>
      <polygon class="cls-1" points="33.49 17.51 30.23 17.53 30.3 8.01 34.39 8.78 33.49 17.51"/>
      <path class="cls-1" d="M33.55,31.13c.14,5.86.72,5.52-3.27,11.24l-.09-10.34c0-.51.11-1.27.47-1.31.59-.08,1.08.26,1.47.92l.4-.89c.1-.23,1.02.08,1.03.39Z"/>
    </g>
  </g>
</svg>