<?xml version="1.0" encoding="UTF-8"?>
<svg id="Warstwa_2" data-name="Warstwa 2" xmlns="http://www.w3.org/2000/svg" viewBox="0 0 50.2 52.11">
  <defs>
    <style>
      .cls-1 {
        fill: #fff;
      }
    </style>
  </defs>
  <g id="icon-v8-weapon-shield-pixarts-store">
    <g id="icon-v8-weapon-shield-pixarts-store_155">
      <rect class="cls-1" x="10.88" y="23.59" width="31.67" height="1.74" transform="translate(-9.45 26.58) rotate(-45.83)"/>
      <path class="cls-1" d="M41.9,7.47c1.04-.79,1.48-1.16,2.71-1.54l-1.28,2.69c.52.6,2.55.26,2.58-.65l-.8-.2c-.13-.03-.23-.15-.18-.27.05-.13.55-.46.55-.6l.02-2.23-2.5,1.07-.27-2.05,7.46-3.69-4.46,10.18-3.38-.25-1.05.66c-.28.17-.97-.82-.93-1.15.15-1.17.34-4.79.43-4.85l1.18-.69-.08,3.55Z"/>
      <path class="cls-1" d="M5.23,47.73c-.25.26-.96-.42-1.27-.91l3.15-3.16,5.39-5.66c.25-.27.79-.58,1.08-.57s.63.88.38,1.14l-8.73,9.16Z"/>
      <path class="cls-1" d="M8.76,45.2c.46,2.36,1.27,3.47-1,4.86-.5-1.83-.82-3.74,1-4.86Z"/>
      <path class="cls-1" d="M5.32,40.85c.29-.45.92-1.34,1.35-1.28l2.06.32-1.63-1.11c.62-.96,1.9-1.21,3.26-1.17l.84.02c.14,0,.22.34.12.43l-.48.41-2.63,2.69-2.88-.31Z"/>
      <path class="cls-1" d="M7.16,50.57c-.2.43-1.14,1.21-1.64,1.53-.15-1.63-.06-3.34,1.07-4.86.19.81.52,2.38.57,3.32Z"/>
      <path class="cls-1" d="M4.66,44.42l-3.15.11c.12-.51,1.1-1.56,1.68-1.5l3.05.31c-.39.53-1.08,1.07-1.58,1.09Z"/>
      <path class="cls-1" d="M13.07,44.56c-.49-2.06-.93-3.64.94-4.61.13,1.58.4,3.08-.94,4.61Z"/>
      <path class="cls-1" d="M4.45,45.03c-1.11,1.94-2.83,1.75-4.45.93,1.14-.98,2.93-1.13,4.45-.93Z"/>
      <path class="cls-1" d="M10.09,47.5c-.43-.85-1.35-2.7.2-3.92l.59,2.73c.17-1.73.13-3.02.93-4.2.37.77.98,2.7.37,3.31l-2.09,2.08Z"/>
      <path class="cls-1" d="M7.79,41.65c-.18.36-.76,1.03-1.04,1l-3.13-.23c.24-.42.85-1.12,1.14-1.09l3.02.32Z"/>
    </g>
  </g>
</svg>