<?xml version="1.0" encoding="UTF-8"?>
<svg id="Warstwa_2" data-name="Warstwa 2" xmlns="http://www.w3.org/2000/svg" viewBox="0 0 48.61 49.91">
  <defs>
    <style>
      .cls-1 {
        fill: #fff;
      }
    </style>
  </defs>
  <g id="icon-v8-weapon-shield-pixarts-store">
    <g id="icon-v8-weapon-shield-pixarts-store_161">
      <path class="cls-1" d="M8.69,45.29c.19.49-.83,1.64-1.41,1.76-1.67-.65-5.36-3.61-4.35-5.52.22-.42,1.3-.87,1.65-.53l4.11,4.29Z"/>
      <path class="cls-1" d="M4.59,47.62l.49-.55c.13-.15.83.45.81.68-.08,1.06-1.86,2.46-3.27,2.1C1.12,49.47,0,48.59,0,46.6c0-.62.43-1.64.86-1.99.69-.57,2.02-.5,2.31.24-.69.44-1.54.94-1.66,1.65-.1.57.55,1.57,1.23,1.82.51.19,1.42-.22,1.85-.7Z"/>
      <path class="cls-1" d="M11.8,39.97l-4.19-1.19,1.7-1.93c1.46.46,2.81.93,4.16,1.76.39.36-1.1,1.53-1.68,1.37Z"/>
      <path class="cls-1" d="M20.92,31.71l-1.44,1.68-3.72-3.7c.14-.31.62-.91,1.01-1.31,1.05.61,1.87,1.42,2.6,2.4l1.56.94Z"/>
      <path class="cls-1" d="M16.85,35.23c-.77.95-2.99-.07-3.51-1.02-.31-.58-.09-1.57.51-1.96,1.12.68,2.04,1.61,3,2.98Z"/>
      <polygon class="cls-1" points="11.56 40.89 9.04 43.16 8.36 39.96 11.56 40.89"/>
      <path class="cls-1" d="M7.89,42.95c-.6-.57-1.42-1.4-2.03-2.23-.3-.41.95-1.28,1.54-1.26l.49,3.49Z"/>
      <path class="cls-1" d="M11.72,35.86c.1-.2-.24.48-.33.67s-.63-.23-.81-.33c-.22-.13.03-.78.27-.94l1.63-1.13.74,3.34-1.49-1.61Z"/>
      <path class="cls-1" d="M28.06,33.17c-.93-4.98.91-7.4-2.7-10.18-.7-.54-1.64-1.85-2.67-1.88l-6.42-.18c-.15,0-.64-.22-.72-.3-.12-.12-.27-.44-.13-.54s.72-.37.97-.38l7.72-.29.22-4.19,4.35.02-.37-8.18c0-.19.2-.76.3-.82l.57-.29c.61-.31.68,5.99,1.23,7.95.37,1.35,2.47,3.53,3.85,3.73,2.4.36,5.11.19,7.64.37-.02.91-.88,1.41-1.76,1.4l-7.02-.11-.13,4.37-3.89.12.08,6.6c.01,1.08-.01,1.95-1.12,2.78ZM30.79,21.5l-.09-3.99-4.27-.07.13,4.14,4.23-.08Z"/>
      <path class="cls-1" d="M44.64,17.47l3.57,3.36-16.87,17.95-3.57-3.36,16.87-17.95ZM44.57,22.81c0-.86-.69-1.55-1.55-1.55s-1.55.69-1.55,1.55.69,1.55,1.55,1.55,1.55-.69,1.55-1.55ZM39.39,28.44c0-.87-.7-1.57-1.57-1.57s-1.57.7-1.57,1.57.7,1.57,1.57,1.57,1.57-.7,1.57-1.57ZM34.27,33.88c0-.84-.68-1.53-1.53-1.53s-1.53.68-1.53,1.53.68,1.53,1.53,1.53,1.53-.68,1.53-1.53Z"/>
      <path class="cls-1" d="M26.03,0l3.57,3.35L12.79,21.28l-3.57-3.35L26.03,0ZM26.23,5.06c0-.88-.71-1.6-1.6-1.6s-1.6.71-1.6,1.6.71,1.6,1.6,1.6,1.6-.71,1.6-1.6ZM21.12,10.44c0-.88-.71-1.59-1.59-1.59s-1.59.71-1.59,1.59.71,1.59,1.59,1.59,1.59-.71,1.59-1.59ZM16.01,15.86c0-.88-.71-1.59-1.59-1.59s-1.59.71-1.59,1.59.71,1.59,1.59,1.59,1.59-.71,1.59-1.59Z"/>
      <path class="cls-1" d="M23.52,13.91c-.6,1.11-.53,2.76-.39,4.61l-5.98-.14,10.09-10.77.17,6.42-3.9-.11Z"/>
      <path class="cls-1" d="M30.38,30.8c-.23-2.21-.28-4.05-.28-5.93l4.11.07.04-4.48,5.83.09-9.7,10.25Z"/>
      <path class="cls-1" d="M35.14,16.82c-.14,0-.27-.88-.13-.9s-.7.14-.86.15c-1.53.1-4.2-4.56-2.65-6.13l6.76,6.69-3.12.2Z"/>
      <path class="cls-1" d="M24.58,26.77l1.6-1.24c.38,1.12.47,2.48.12,3.89l-7.05-6.88c1.11-.34,2.84-.54,3.45-.03l2.8,2.35-.92,1.9Z"/>
      <path class="cls-1" d="M20.87,29.13l1.76-1.27c.06.32.05.66.17.74l1.01.68c-.04.35-1.82,1.54-2.51,1.29-1.25-.47-2.34-1.96-3.27-3.06l1.51-2.47c.17.05.89.51,1.09.69s-.42.67-.6.91l-.37.49c-.08.1-.02.48.09.43.18-.07.66-.29.78-.42l.56-.63c.12-.14.83.16.75.32l-.45.94c-.17.36-.33.77-.52,1.36Z"/>
      <polygon class="cls-1" points="43.93 33.34 39.36 32.09 42.23 29.08 43.93 33.34"/>
      <polygon class="cls-1" points="18.18 6.46 15.24 9.54 13.86 5.16 18.18 6.46"/>
      <polygon class="cls-1" points="13.39 11.77 10.56 14.73 9.19 10.75 13.39 11.77"/>
      <path class="cls-1" d="M38.29,12.76c.17.21-.88,1.34-1.15,1.07l-3.14-3.13c.4-.49,1.53-.84,1.94-.41l2.35,2.46Z"/>
      <polygon class="cls-1" points="38.47 38.55 34.35 37.33 37.04 34.5 38.47 38.55"/>
      <polygon class="cls-1" points="48.61 27.75 44.55 26.64 47.1 23.88 48.61 27.75"/>
      <polygon class="cls-1" points="22.89 1.48 20.2 4.24 19.05 .15 22.89 1.48"/>
      <path class="cls-1" d="M27.77,18.49c.28-.36,1.89-.29,2.04.14s0,1.55-.37,1.89c-.34.31-1.39.16-1.82-.15s-.18-1.46.15-1.88Z"/>
    </g>
  </g>
</svg>