<?xml version="1.0" encoding="UTF-8"?>
<svg id="Warstwa_2" data-name="Warstwa 2" xmlns="http://www.w3.org/2000/svg" viewBox="0 0 52.45 53.11">
  <defs>
    <style>
      .cls-1 {
        fill: #fff;
      }
    </style>
  </defs>
  <g id="icon-v8-weapon-shield-pixarts-store">
    <g id="icon-v8-weapon-shield-pixarts-store_03">
      <path class="cls-1" d="M33.35,22.86c-1.35-1.42-2.48-2.53-3.88-3.79-2.63,2.6-4.97,5.07-7.41,7.78l-1.93,2.14,3.64,3.38,9.58-9.51ZM30.23,20.74l.64,1.6.89.36-2.41,2.2c-.05-.89.64-1.06,1.08-1.57.11-.3-.02-.98-.26-1.63-.83.61-1.35,1.14-2.38,1.69.68-1.2,1.34-1.71,2.44-2.65ZM25.18,25.7l1.05-.23c.24-.05.17-.66.25-1.11.2-.16,1.05.13,1.31.41.31.34.75,1.06.48,1.33-.17.17-1.06-.1-1.14.13l-.42,1.28-.43-1.44-1.11-.38ZM21.82,28.79c.67-.16,1.24-.16,2.13-.14l-.25-1.72c.23-.03.51-.06.57-.08.1-.02-.04.3-.05.41l-.02.71c-.01.52,1.87-.1,1.98.66l-1.99-.05,1.48.6c-.68.13-1.49,0-1.55.33-.1.56-.13.94-.48,1.12l-.02-1.5-1.81-.34Z"/>
      <path class="cls-1" d="M8.13,52.03l-2.1-2.43,2.28,1.93c.08-.49.16-1.21.15-1.66-2.01-1.16-5.01-5.41-5.86-5.35-.29.02-.85.49-.78.69l2.21,2.42-2.9-2.38-1.14,4.28c1.39,1.39,2.44,2.43,3.79,3.57l4.35-1.07Z"/>
      <polygon class="cls-1" points="29.15 18.03 34.57 23.24 36.7 21.29 31.05 15.78 29.15 18.03"/>
      <polygon class="cls-1" points="5.36 43.01 3.59 44.65 8.61 49.37 10.08 47.6 5.36 43.01"/>
      <path class="cls-1" d="M15.06,38.79l-2.83-1.32c-.19-.09-.74.16-.75.35,0,.09,1.22,4.74,1.77,5.32l2.94-3.09c.09-.39-.71-1.07-1.12-1.26Z"/>
      <path class="cls-1" d="M7.56,41.82l-1.28,1.2,3.59,3.63,2.52-2.57c-1.89-.77-3.1-1.3-4.84-2.26Z"/>
      <path class="cls-1" d="M12.68,43.52l-.56-1.25c-.29-1.36-.53-2.34-1.17-3.85l-3.15,2.98c1.81.98,3.14,1.55,4.88,2.12Z"/>
      <path class="cls-1" d="M14.25,34.92l4.84,2.16,1.47-1.47c-1.81-.8-2.94-1.31-4.7-2.33l-1.62,1.64Z"/>
      <path class="cls-1" d="M23.67,33.19l-4.18-4.11c-.36-.3-1.26.89-.96,1.23,1.41,1.56,2.5,2.63,3.99,3.84.36.29,1.48-.64,1.15-.97Z"/>
      <polygon class="cls-1" points="15.35 36.01 16.44 39.76 18.76 37.5 15.35 36.01"/>
      <path class="cls-1" d="M14.03,35.35l-1.72,1.67c1.36.72,2.02,1.04,3.26,1.56-.18-1.44-.38-2.21-1.54-3.23Z"/>
      <polygon class="cls-1" points="16.24 32.97 19.68 34.72 17.99 31.18 16.24 32.97"/>
      <path class="cls-1" d="M21.08,35.06l.76-.86-3.52-3.3c.23,1.12,2.14,4.86,2.77,4.16Z"/>
      <path class="cls-1" d="M41.04,5.54c-3.99-3.92-1.67-2.73-4.01-4.92l-10.85,11.18c2.08.93,3.25,1.78,4.69,3.06l1.96,1.73,1.37,1.21c.37.33.87,1.18,1.32,1.64,3.34,3.41,2.73,2.17,5.25,6.49l3.34-3.24c.19-.19.27-.98.31-1.08.33-.16.84-.42,1.09-.61.25-.18-.12-2.15.31-1.7l.64.65c1.89-1.49,3.64-3.37,5.34-5.34-5.27-2.21-3.81-4.05-7.91-4.3l1.42-.55-4.29-4.21ZM32.23,8.18c.04-.62,1.14-1.51,1.67-1.82l2.7.78c.1.03.47.02.55.03.08.01.09.17.06.24-.03.08-.33.34-.41.31l-2.8-.87-1.36,1.34.81,2.6c.03.1.03.39,0,.47-.25.83-1.28-2.28-1.22-3.07ZM35.34,13.51c-.17-.01-.44-.28-.46-.4-.03-.17.22-.63.39-.62l2.9.21-.28-2.9,4.01.06.38,3.99-3.05-.11.2,2.64c.01.16-.11.47-.18.6s-.75-.07-.76-.23l-.15-3.03-3-.22ZM31.25,8.96l.94,1.75-1.12-.88-1.74,1.84c1.37.39,1.91-.49,3.03.47l-1.74-.02c.14,1.06,1.82.96,1.69,2.04-1.3-.99-2.21-1.68-3.74-2.48l2.67-2.73ZM40.86,23.6c-1.23-2.44-2.3-2.61-2.78-4.21l2.14,2.26c.14-.65.09-1.27-.07-1.92,1.36.95.19,1.89.66,3.15l1.81-1.86c-.55-.4-.79-.62-.85-1.02l1.72.9-2.62,2.7ZM44.12,19.97l-3.39-.97c1.08-.84,1.98.43,3.14.38.5-.02,1.49-.77,1.47-1.29-.04-1.72-1.2-3.09-.73-3.08h.55c.13.02,0,.55.04.69l.81,2.41c-.54.62-1.31,1.37-1.9,1.86ZM49.52,14.82l-2.67,2.53-1.01-1.72,1.26.86,1.72-1.69-2-.11c-.42-.02-.99-.47-1.04-.76.61.28,1.1.38,1.72.2l-1.86-1.68c1.85.79,1.44,1.17,3.88,2.37ZM37.91,3.97l1.81,2.67-1.87-1.9-.03,1.78c-.56-1.12-.41-1.72-.63-2.89l-1.64,1.67c.57.53.95.85.96,1.17l-1.81-.98,2.52-2.68.7,1.16Z"/>
      <polygon class="cls-1" points="25.67 7.55 26.09 11.09 36.45 .45 33.01 0 25.67 7.55"/>
      <polygon class="cls-1" points="41.61 26.02 45.04 26.47 52.45 18.95 51.81 15.66 46.93 20.46 41.61 26.02"/>
      <path class="cls-1" d="M43.33,4.73l-1.62.78,5.04,4.83c.26-.62.43-1.11.58-1.77l-4-3.84Z"/>
      <polygon class="cls-1" points="41.07 10.89 39.07 10.77 39.25 12.77 41.19 12.79 41.07 10.89"/>
    </g>
  </g>
</svg>