<?xml version="1.0" encoding="UTF-8"?>
<svg id="Warstwa_2" data-name="Warstwa 2" xmlns="http://www.w3.org/2000/svg" viewBox="0 0 39.23 54.39">
  <defs>
    <style>
      .cls-1 {
        fill: #fff;
      }
    </style>
  </defs>
  <g id="icon-v8-weapon-shield-pixarts-store">
    <g id="icon-v8-weapon-shield-pixarts-store_83">
      <path class="cls-1" d="M20.5,50.4l-.78-3.42-.84,3.43-3.27-2.74c1.23-5.53,2.44-10.93,2.32-16.62-.1-4.34-3.77-3.8-4.09-6.5-.2-1.69,1.64-4.75,3.61-5.52.02.02-.65-.52-.77-.77l-4.26-8.57,2.69-1.6,2.67,9.62c-.35-3.54-1.32-6.56-2.11-10l3.3-2.52.48,10.9c.03.58.25,1.52.43,2.2l.59-13.17,3.23,2.47c-.72,3.68-1.93,7.29-2.32,11.31l2.86-10.89,2.75,1.58-4.74,9.59c1.23.72,1.83,1.67,2.5,2.73,1.04,1.64,1.09,3.64-.71,4.82-1.64,1.08-2.6,2.8-2.56,4.93.09,5.5,1.07,10.69,2.21,16.07l-3.17,2.67Z"/>
      <path class="cls-1" d="M33.57,30.47c.04-.16.55-.61.5-.73l-.35-.77,2.35-1.34c-1.51,10.61-6.94,21.24-16.43,26.74-9.91-6.22-14.25-15.44-16.54-26.84l2.4,1.37c-.12.71.02.98.22,1.63,1.54,5.02,3.11,9.87,6.32,14.03,2.17,2.82,4.43,5.35,7.67,7.18,3.47-1.98,5.98-4.8,8.29-8.05,2.78-3.91,4.43-8.47,5.58-13.23Z"/>
      <path class="cls-1" d="M19.73,3.36c-3.87,3.35-7.51,5.87-12.28,7.16-.4-.6-.77-1.3-1.03-1.97,5.27-1.7,9.78-4.16,13.25-8.55,3.52,4.42,8.1,6.83,13.26,8.61-.34.7-.66,1.3-1.05,1.89-4.6-1.44-8.36-3.6-12.14-7.15Z"/>
      <path class="cls-1" d="M30.7,16.46l.66-1.3c-.16-.79-.1-1.9.36-2.61,2.28-3.54,3.3-7.28,3.65-11.57,3.04,4.87.8,13.12-4.66,15.48Z"/>
      <path class="cls-1" d="M7.24,14.12l1.31,2.2-1.71-1.2c.03-.07-.39.22-.49.1l-.62-.74C2.49,10.58,1.33,5.17,4.06.72c.16,4.01.96,7.4,2.9,10.64.55.92.88,1.97,1.12,3.07l-.83-.31Z"/>
      <path class="cls-1" d="M29.01,40.33c-.46,1.2-1.14,2.26-2.21,3.56l-2.5-6.99c-.62-1.73-1.07-3.35-1.55-5.33,1.3.62,2.04,1.55,2.69,2.67l3.56,6.09Z"/>
      <path class="cls-1" d="M22.79,28.93c.41-.57.96-1.14,1.44-1.42,2.11-1.25,2.71-3.73,1.21-5.73-1.67-2.22,1.44-5.59,2.65-5.68l2.8-2.96c.11,3.37-2.19,3.73-3.76,7.4-.31.73.03,1.4.21,2.14.75,3.04-1.72,5.73-4.55,6.25Z"/>
      <path class="cls-1" d="M12.53,43.88l-2.27-3.54,4.45-7.22c.26-.43,1.16-.97,1.71-1.26-.36,1.69-.71,3.17-1.23,4.62l-2.65,7.41Z"/>
      <path class="cls-1" d="M32.6,19.5l.59-1.09c.11-.2-.11-.42-.52-.95l2.67-4.09c1.3-1.99,2.36-3.98,3.37-6.22.66,3.34-.21,6.71-2.44,9.39-1.06,1.28-2.14,2.47-3.66,2.95Z"/>
      <path class="cls-1" d="M5.05,16.85l1.74,2.26c-.16.15-.5.46-.63.37C2.82,17.35-.58,11.85.58,7.19c1.91,4.56,4.06,6.73,6.42,11.03l-1.95-1.37Z"/>
      <path class="cls-1" d="M12.58,15.47c-.37-.51-1.11-.88-1.64-.99l-2.44-3.18c1.06-.59,1.97-.98,3.05-1.3l4.51,8.17c.09.17.3.67.17.77l-.73.55-2.92-4.02Z"/>
      <path class="cls-1" d="M26.86,15.22l-3.11,4.16c-.23-.18-.59-.85-.43-1.16l4.43-8.31,3.24,1.31-2.71,3.3c-.44.07-1.18.37-1.43.7Z"/>
      <path class="cls-1" d="M14.93,46.83l-1.8-2.22,3.93-12.07c.19,4.83-.95,9.37-2.13,14.29Z"/>
      <path class="cls-1" d="M26.25,44.53c-.52.85-1.12,1.57-1.89,2.35-1.18-4.78-1.94-9.14-2.09-14.09l3.98,11.73Z"/>
      <path class="cls-1" d="M31.25,22.83l1.78-1.16c-.38-.41-.6-.55-.52-.66.85-1.24,5.46-4.02,6.7-6.36.4,4.29-3.69,8.79-7.95,8.19Z"/>
      <path class="cls-1" d="M6.66,21c.18.95.39,1.29.85,2.1C3.36,22.6-.04,18.88,0,14.46c2.59,3.66,4.23,3.84,6.66,6.53Z"/>
      <path class="cls-1" d="M14.98,27.46c.68.43,1.28.93,1.81,1.49-1.86-.08-3.29-1.33-4.07-2.39-1.4-1.88-.52-3.59-.54-5.44,0-.71-.02-1.54.09-2.26l-.87-2.69c1.5.5,3.94,3.54,2.43,5.58-1.36,1.83-.99,4.36,1.15,5.7Z"/>
      <path class="cls-1" d="M9.98,39.59c-.57-1.05-.97-1.91-1.4-2.99l3.31-3.58,2.3-.11-4.21,6.68Z"/>
      <path class="cls-1" d="M30.75,36.52c-.37,1.34-.71,2.15-1.46,3.06l-3.96-6.58,1.8-.06,3.62,3.58Z"/>
      <path class="cls-1" d="M30.33,25.57l2.02-1.77,5.85-1.79c-1.58,2.78-4.45,4.49-7.86,3.56Z"/>
      <path class="cls-1" d="M7.73,24.64l-1.76-.05,2.86,1.02c-2.95.75-6.36-.59-7.67-3.64,1.97.68,3.54,1.25,5.47,1.69.5.11.89.52,1.1.98Z"/>
      <polygon class="cls-1" points="7.89 32.16 11.62 32.48 8.27 35.77 6.73 30.98 8.99 31.07 7.89 32.16"/>
      <path class="cls-1" d="M27.64,21.43c-.22-1.15.39-2.39,1.43-3.09l3.74-2.5c-1.45,2.57-2.48,4.61-5.17,5.59Z"/>
      <path class="cls-1" d="M31.11,35.89l-3.51-3.48c3.3.29,2.24-1.2,4.54.46l-1.03,3.02Z"/>
      <path class="cls-1" d="M7.11,16.26c2.12,1.47,4.64,2.68,4.37,5.01-2.2-.89-4.05-2.54-4.37-5.01Z"/>
      <path class="cls-1" d="M28.24,23.46l-.42-1.53,4.43-1.78c-.61,1.81-2.12,2.88-4.02,3.32Z"/>
      <path class="cls-1" d="M11.04,21.74l.17,1.7c-1.84-.32-3.5-1.05-4.06-3.18l3.88,1.48Z"/>
      <path class="cls-1" d="M35.27,27.21c-1.66,1.32-3.65,1.25-5.67.62,1.64-1.15,3.61-1.55,5.67-.62Z"/>
      <path class="cls-1" d="M10.48,15.37c.82.89,1.22,2.27,1.34,3.4-1.95-1.27-3.27-3.03-3.33-5.56l1.99,2.16Z"/>
      <path class="cls-1" d="M9.98,27.86c-1.66.53-3.73.71-5.65-.53.93-.56,2.25-.73,3.25-.33l2.4.86Z"/>
      <path class="cls-1" d="M32.6,29.83c-1.65.7-3.21.49-4.23-.79-1.01-1.26,3.6-.05,4.23.79Z"/>
      <path class="cls-1" d="M11.08,28.83c.34.59-2.72,2.05-4.33.87,1.15-.46,3.68-2.01,4.33-.87Z"/>
      <path class="cls-1" d="M31.3,23.77c-.78,1.19-2.29,1.79-3.69,1.13.85-1.44,2.41-1.34,3.69-1.13Z"/>
      <path class="cls-1" d="M10.73,23.92c.34.06.65,1.06.62,1.27-1.22-.04-2.57-.02-3.35-1.49.61,0,2.05.1,2.73.22Z"/>
      <path class="cls-1" d="M29.57,31.59c-1.48.33-3.03-.52-3.19-2.04,1.42.07,2.46.81,3.19,2.04Z"/>
      <path class="cls-1" d="M12.74,30.05c-.53,1.14-1.63,1.56-2.72,1.38.58-1.17,1.6-2.06,2.72-1.38Z"/>
      <path class="cls-1" d="M30.07,26.47c-.45.27-.95.56-1.32.74s-1.31-.52-1.3-.9c.51-.68,1.55-.56,2.61.16Z"/>
    </g>
  </g>
</svg>