<?xml version="1.0" encoding="UTF-8"?>
<svg id="Warstwa_2" data-name="Warstwa 2" xmlns="http://www.w3.org/2000/svg" viewBox="0 0 42.52 42.36">
  <defs>
    <style>
      .cls-1 {
        fill: #fff;
      }
    </style>
  </defs>
  <g id="icon-v8-weapon-shield-pixarts-store">
    <g id="icon-v8-weapon-shield-pixarts-store_11">
      <path class="cls-1" d="M16.81,27.13c.6-2.53-2.01-.7-3.54-1.85-.44-.33-.99-1.68-.82-1.87,1.02-.5,1.98-1.07,2.47-1.73.44-.59.2-1.89-.09-2.9,2.58-1.32,5-2.78,7.33-4.59.77.38,1.34.7.46-.48l6.91-6.49,2.04.66v-2.06c3.31-2.32,6.78-4.53,10.94-5.83-.69,2.22-2.2,5.15-3.16,6.67-.09.14-1.24.16-1.07.15,1.48-.03-2.71,6.99-5.35,7.5-.18.04.38.48.54.69-1.82,2.03-3.64,4.19-5.74,5.9-.93.75-1.06.87-1.55,1.88l-2.32,4.79c-1.04-.11-2.23-.29-2.9-.08-.75.23-1.43,1.84-1.89,2.4-1.1.7-2.64-1.24-2.28-2.77ZM23.64,17.68l3.1-3c.36,1.33.37,1.85,1.11,2.55-.04-1.57-.2-2.54-.57-4.15l-3.04,2.87c-.33.31-1.11.43-1.82.57l1.22,1.17ZM21.03,19.25l1.71,1.01c.47.28,1.57.3,2.41.23l-.07-2.95c-.33.71-.59,1.28-.74,1.63-.11.26-.69.89-.84.7l-.64-.77-1.84.14ZM22.72,22.64c-1.68.17-2.12,1.28-3.36,2.29-.07-.18-.35-1.3,0-1.43l1.77-.69c-1-.64-1.06-1.26-1.3-3.15l-4.04,3.97,2.51.29.5,2.64,3.92-3.92Z"/>
      <path class="cls-1" d="M19.5,34.43c-1.42-1.44-3.3-1.51-4.85-1.5-1.34-1.83-2.86-3.74-4.94-4.91l-.63-4.03c-.03-.2-.86-.48-1.06-.55.35-1.33.76-2.62,1.5-4.24l2.99,6.96,3.53.38.2,3.29c2.34,1.33,4.4,2.16,7.08,3.13l-3.82,1.48Z"/>
      <path class="cls-1" d="M4.17,42.36l-4.04-.04-.13-4.11c.02-.57,1.32-1.08,1.87-1.05,1.38.09,2.8,2.36,3.35,3.42.26.5-.48,1.78-1.05,1.78ZM3.32,40.78c.45-.45.45-1.19,0-1.64s-1.19-.45-1.64,0-.45,1.19,0,1.64,1.19.45,1.64,0Z"/>
      <polygon class="cls-1" points="6.43 33.79 8.24 31.81 12.11 33.16 9.83 35 6.43 33.79"/>
      <path class="cls-1" d="M4.31,35.95c.24-.44,1.42-1.66,1.98-1.46l2.99,1.08-1.61,1.62-3.36-1.24Z"/>
      <path class="cls-1" d="M13.24,32.61l-4.53-1.38,1.54-2.06c1.4,1.02,2.22,1.75,2.99,3.44Z"/>
      <polygon class="cls-1" points="5.66 39.49 3.11 36.42 7.09 37.6 5.66 39.49"/>
    </g>
  </g>
</svg>