<?xml version="1.0" encoding="UTF-8"?>
<svg id="Warstwa_2" data-name="Warstwa 2" xmlns="http://www.w3.org/2000/svg" viewBox="0 0 50.27 50.81">
  <defs>
    <style>
      .cls-1 {
        fill: #fff;
      }
    </style>
  </defs>
  <g id="icon-v8-weapon-shield-pixarts-store">
    <g id="icon-v8-weapon-shield-pixarts-store_57">
      <path class="cls-1" d="M29.88,22.83l-2.25-2.17c1.5-1.47,3.02-4.84,1.32-5.49-.4-.15-.96.18-1.57.55-.15-.12-.32-1.16-.11-1.49.25-.38.95-.74,1.68-1.05l-.23-2.79-1.52.52c1.51-4.87,5.83-3.36,8.54-5.97l-1.65-.54c2.14-.82,3.63-2.17,5.27-4.05-1.08,9.83-9.61,6.1-8.23,11.58.25.99,1.74,2.65,3.14,1.79,3.2-1.96,5.7-4.71,8.59-7.52l-2.51.2c3.37-2.4,6.22-4.32,9.92-6.4l-6.14,10.32.24-2.91c-1.12,1.46-8.63,8.14-7.93,10.39.15.47.93,1.03,1.47,1.28,1.76.82,3.31.29,4.08-1.46.47-1.07,1.01-2.55,1.77-3.41,1.55-1.76,3.67-2.83,6.03-3.1-1.66,1.75-2.94,3.2-3.67,5.58l-.79-1.88c-1.89,2.77-1.61,7.75-5.87,8.56l.52-1.74-2.58.14c-.27.35-.78,1.19-1.09,1.52s-1.45.2-1.74.15l.86-1.34c.2-.31-.63-1.12-1.06-1.2-1.45-.28-3.02.11-4.48,1.94ZM29.52,21.02c2.55-1.39,3.91-1.93,6.36-1.17-.56-.6-1.43-1.73-1.17-2.38.57-1.44,1.12-2.27,1.88-3.62l-3.15,1.55c-.78.39-2.03-.22-2.7-.8.97,3.81-.49,3.37-1.21,6.4Z"/>
      <path class="cls-1" d="M4.58,43.72l4.03-4.2c.14-.15.63-.54.69-.4l.35.85c.36-1.83,1.64-2.91,2.93-4.2l3.8-3.8,3.61-3.79c.34-.35,1.02-.6,1.44-.63l1.63-2.66.53,1.24.37-1.95c2.98,2.21-2.38,6.31-3.4,7.39-1.23,1.3-1.91,3.16-4.28,2.97l-1.39,2.42c-.83,1.44-1.89,2.45-3.06,3.69l-2,2.14-3.57,3.39c-.15.14-.49.35-.64.44s-.73-.41-.62-.55l.65-.86-1.14.22c-.25.05-.74-.61-.62-.83s.42-.59.69-.87Z"/>
      <path class="cls-1" d="M2.66,48.78c.45.03.76.06,1.45.21-1.44.85-2.38,1.22-4.11,1.82.38-1.86.79-2.89,1.74-4.29.41.66.44,1.15.29,1.7l.46-.52c.11-.13.46.12.63.23.14.1-.12.4-.46.86Z"/>
      <path class="cls-1" d="M28.57,22.25c.44.42.4,1.56-.05,1.88-.38.27-1.37.12-1.73-.3-.33-.39-.69-.99-.73-1.31-.04-.39.58-1,.97-1.18.37-.17.9.32,1.53.92Z"/>
      <path class="cls-1" d="M5.62,47.64c-.23.32-.89.78-1.12.6-.32-.23-.94-.74-1.18-1l-.96-1.06c-.23-.25.08-.88.53-1.48l2.73,2.93Z"/>
      <path class="cls-1" d="M26.82,25.75l-2.02-1.73c-.15-.13-.18-.7-.12-.89s.69-.4.76-.23l.53,1.26,1.3.29c.35.08-.16,1.45-.44,1.29Z"/>
      <path class="cls-1" d="M30.79,19.57l1.06-3.34c.82-.07,2.03-.5,3.02-.95l-.72,3.55c-.85.14-2.3.44-3.36.74Z"/>
    </g>
  </g>
</svg>