<?xml version="1.0" encoding="UTF-8"?>
<svg id="Warstwa_2" data-name="Warstwa 2" xmlns="http://www.w3.org/2000/svg" viewBox="0 0 33.48 50.03">
  <defs>
    <style>
      .cls-1 {
        fill: #fff;
      }
    </style>
  </defs>
  <g id="icon-v8-weapon-shield-pixarts-store">
    <g id="icon-v8-weapon-shield-pixarts-store_14">
      <path class="cls-1" d="M9.1,33.45l3.05-4.05c1.32-.11,2.52-.25,3.55-.82l-1.24-.76.76-1.55c.25-.5.74-1.37,1.07-1.84,3.36-4.68,6.5-9.28,8.06-14.95.21-.76-.04-2.08-.42-2.59-1.78-2.35-5.89-.36-7.64,1.89-.09-3.84,2.15-7.76,6.15-8.27l2.26-.29c2.97-.38,5.78-.24,8.79.07-.42,3.57-1.08,6.74-1.92,10l-1.47,1.01.67,1.09-1.57,3.87-.94.56c-.2.12.24,1.02.06,1.39-2.42,4.95-6.23,10.6-9.57,15.27l-1.84.21c-1.95.64-2.84,2.57-3.36,4.64-2.16-2.03.06-6.14-.63-6.14-1.72,0-1.93,1.39-3.82,1.23ZM27.04,12.7c-.32,1.06-.56,1.93-.67,2.94.62-1.43,1.23-2.88,1.67-4.45l.79-2.78c.45-1.6.57-3.09.82-5.07-2.43-.38-7.46-1.02-9.46.52,3.49-.55,5.04-.63,8.7.06-.25,2.08-.37,3.79-.91,5.6l-.95,3.18ZM17.95,30.21c2.58-2.96,4.64-6.27,6.11-9.99l-6.11,9.99Z"/>
      <path class="cls-1" d="M13.71,46.62c-3.65,2.52-4.55,4.2-9.65,3.03-1.08.08-2.52.56-3.84.02L0,46.3c-.01-.23.54-.77.73-.88,1.19-.68.22,2.06,4.51,3.1,1.89.46,3.71-.3,4.85-1.56,1.25-1.37,2.11-3.39,1.38-5.19s-2.06-3.23-3.41-4.6c-1.44-1.46-2.12-4.01-.16-5.51.28.2.05.95-.19,1.41.87,1.51,3.12,1.15,4.48-.14-.16,1.15-.23,2.65-.12,3.67l-.49.74,2.21,2.44c1.99,2.2-1.28,5.9-.08,6.86Z"/>
      <path class="cls-1" d="M5.87,44.63l-2.05-.54,1.85,1.38-1.67,1.81c-.69-.29-1.54-1.21-1.88-1.88,2.04-2,3.52-3.88,5.2-6.16.78,1.03,1.12,2.2.68,3.44l-1.46-.55.69,1.22c.22.39-.88,1.41-1.37,1.28Z"/>
      <path class="cls-1" d="M7.81,38.46c.41-.85,1.95,1.4,1.9,1.81-.03.3-.44.78-.74,1.13l-1.17-2.93Z"/>
    </g>
  </g>
</svg>