<?xml version="1.0" encoding="UTF-8"?>
<svg id="Warstwa_2" data-name="Warstwa 2" xmlns="http://www.w3.org/2000/svg" viewBox="0 0 35.58 54.45">
  <defs>
    <style>
      .cls-1 {
        fill: #fff;
      }
    </style>
  </defs>
  <g id="icon-v8-weapon-shield-pixarts-store">
    <g id="icon-v8-weapon-shield-pixarts-store_77">
      <path class="cls-1" d="M18.02,54.45c-3.95-1.61-8.69-7.91-10.8-11.54C.84,31.89-.35,20.77.08,8.14c4.19-1.38,8.23-2.46,11.9-4.66l5.83-3.49c6.47,4.26,10.33,5.81,17.64,8.11.34,6.72.03,13.22-1.31,19.77-1.95,9.54-7.52,20.77-16.12,26.58ZM32.8,24.35c.63-4.26.76-8.47.7-12.68-.81-.06-1.53-.09-1.68-.46-.16-.39.04-1.37.24-1.9-4.32-1.52-8.44-3.23-12.49-5.7l-1.75,1.61-1.69-1.61c-3.97,2.36-8.2,4.15-12.48,5.7.12.57.21,1.43.08,1.86-.11.38-.86.44-1.56.53-.52,11.38,1.6,22.43,7.95,32.1,1.76,2.68,3.8,5.16,6.17,7.05l1.6-1.64,1.44,1.65c7.41-6.21,12.05-16.86,13.47-26.51Z"/>
      <path class="cls-1" d="M19.52,49.76l-1.63-1.6-1.85,1.53C6.19,40.35,2.36,25.98,2.91,12.61c1.41-.35,1.99-1.32,1.76-2.82,3.9-1.42,7.63-2.97,11.15-5.17l2.12,1.72,1.79-1.71c3.48,1.97,7.23,3.69,11.04,5.17.12,1.24.26,2.6,1.96,2.76.37,13.72-3.22,27.5-13.19,37.2ZM17.79,45.51l2.07-4.73c-1.32-3.47-.97-8.47-.72-13.08l3.2,4.95-1.26-5.58,5.66,3.87-3.96-5.61,4.76.8-4.12-2.8c2.64-.43,4.51-.58,6.98-1.24l-6.97-1.38,4.24-2.84-5.02.98,3.89-5.56-5.48,3.9.98-4.96-2.9,4.18-1.36-7.69-1.41,7.67-2.9-4.31,1.08,5.21-5.56-3.98,3.91,5.57-5.01-1.02,4.21,2.95-7.17,1.36,7.17,1.21-4.07,2.76,4.73-.77-3.79,5.44,5.58-3.82-1.18,5.43,3.06-4.68c.26,4.51.53,9.58-.71,13.01l2.03,4.77Z"/>
      <circle class="cls-1" cx="17.77" cy="22.04" r="4.66"/>
    </g>
  </g>
</svg>