<?xml version="1.0" encoding="UTF-8"?>
<svg id="Warstwa_2" data-name="Warstwa 2" xmlns="http://www.w3.org/2000/svg" viewBox="0 0 36.09 57.93">
  <defs>
    <style>
      .cls-1 {
        fill: #fff;
      }
    </style>
  </defs>
  <g id="icon-v8-weapon-shield-pixarts-store">
    <g id="icon-v8-weapon-shield-pixarts-store_86">
      <path class="cls-1" d="M15.68,48.59c-4.18-6.01-3.06-4.14-2.12-10.82l-2.99,3.77-1.93-4.9c.31,2.3,1.11,3.97,2.17,5.76l1.83-2.9c-1.19,8.18,1.67,5.15,2.82,10.28-4.08-3.28-6.75-8.07-8.17-13.2-.78-2.83-1.67-5.47-2.3-8.31-1.08-4.91-1.23-9.89-1.41-14.9l4.5,1.93-2.12-5.64c3.37-.46,6.33-1.32,9.17-3.35.84,2.36,1.49,4.37,2.75,6.84,1.39-2.31,1.9-4.33,2.72-6.87,2.75,1.98,5.95,3.13,9.35,3.38l-2.26,5.63,4.55-2.03-.16,5.01c-.17,5.32-1.17,10.32-2.71,15.37-2.42,7.93-2.39,9.69-8.88,16.03l-2.59-7.34-2.22,6.27ZM12.73,15.38l-.32-5.6,3.14-1.67c-.8-1.22-1.02.06-1.44.26l-2.21,1.1.38,3.02c.02.17-.42.73-.35.89l.81,1.99ZM23.1,13.82l.55-4.53-2.34-.97c.51.44,1.03.78,1.59,1.14l.2,4.37ZM29.8,27.51c.67-2.29,1.01-4.6,1.13-6.98l.29-5.5c-1.2.77-.31,1.68-.7,5.54l-.72,6.94ZM17.89,35.89c.71-1.41.87-2.67.97-4.09l1.99,1.24c-1.05-3.27-2.49-1.74-2.11-5.83,3.83,1.59,1.76,2.31,4.03,4.91l-.04-2.57c1.18.67,2.42,1.28,3.95,1.54-.61-1.54-2-2.45-3.37-3.02.9-.4,1.45-.66,2.36-1.23-3.07-.62-3.14,1.5-6.11-1,2.98-2.57,3.29-.25,5.95-1.16l-2.21-1.16c1.3-.52,2.68-1.33,3.26-2.87-1.41.21-2.68.78-3.85,1.43l.03-2.49c-2.17,2.24-.34,3.32-3.98,4.91-.66-4.1,1.48-2.98,2.07-6.07l-1.96,1.35c-.12-1.29-.18-2.62-.99-3.96-.66,1.49-.82,2.88-.84,4.16l-2.01-1.44c.27,1.51,1.16,2.34,2.13,3.34l.05,2.65c-3.7-1.39-2.01-2.54-4.08-5.01l.04,2.62c-1.16-.66-2.17-1.45-3.93-1.36.76,1.18,1.81,1.97,3.07,2.83l-1.93,1.12c2.13.99,3.32-1.5,5.88,1.2-2.89,2.5-3.91-.03-6.18.92l2.27,1.26c-1.33.78-2.46,1.57-3.19,2.87,1.58-.08,2.83-.78,3.99-1.48l-.06,2.65c2.12-2.67.34-3.3,4.05-5.05.66,3.72-1.31,3.04-2.08,5.98l2-1.27c.06,1.48.17,2.75.82,4.09ZM5.91,27.55l-.33-4.45-.29-3.9c-.07-.96-.27-1.96-.47-2.89-.14,1.59-.02,2.99.12,4.52l.32,3.57c.1,1.13.32,2.19.65,3.15ZM23.03,39.35c.97,1.23,1.32,2.19,1.87,3.83.86-1.63,1.63-3,1.86-4.96l-1.7,3.49c-.89-1.53-1.63-2.68-2.73-4.02l.8,6.49c-1.03,1.46-2.04,2.65-2.79,4.26,1.42-1.2,3.33-3.35,3.14-5.05l-.45-4.03Z"/>
      <path class="cls-1" d="M30.4,32.78c1.08-3.52,1.76-6.86,2.05-10.41l1-12.02.67,2.18.17-2.88c.05-.89.69-1.95,1.79-2.16l-1.59,17.96c-.52,5.81-2.67,11.51-4.76,16.97-1.7,4.43-5.54,7.49-8.11,11.32-.37.55-1.37,1.09-1.7,1.52l-1.97,2.66-2.51-2.95c-2.74-3.22-5.35-6.39-7.89-9.77-1.39-1.85-2.19-3.91-2.78-6.16-1.27-4.87-3.19-9.6-3.56-14.67L0,7.31c.7.65,1.87,1.78,2.09,2.64,1.23,4.75.67,13.69,2.69,20.47l1.55,5.23c1.33,4.46,2.95,8.65,6.1,12.15,1.94,2.15,4.03,4.2,4.99,7.06l.4,1.94c.36-1.04.54-2.06.5-3.07l-.26-6.26c-.05-1.21-.23-2.28-.03-3.64l2.02,7c-.66,1.08-1.46,1.86-1.49,3.16,1.42-2.18,2.57-4.14,4.42-5.92,2.69-2.59,4.53-5.83,5.61-9.37l1.8-5.9Z"/>
      <path class="cls-1" d="M18.76,3.71c2.4,3.82.97,3.09-.48,7.5l-.23-3.22c-.07-1.05-.72-4.36.62-4.27l-.68-3.39c-.09.8-.52,2.23-.51,2.96l.05,3.76.14,4.28-1.7-4.11c-.4-.98.35-1.74.91-3.04-3.52,3.05-7.93,4.67-12.71,4.7-1.73.01-3.12-.83-4-2.34,6.81.69,13.09-1.54,17.65-6.53.7.51,1.37,1.02,1.95,1.56,3.26,3.06,7.29,4.83,11.72,4.99l4.15.15-1.83,1.68c-.52,4.15-.91,4.04-5.2,5.79l1.86-4.35,2.44-.76c.11.94.28.26.55-.43-4.29,1.01-11.12-.95-14.71-4.9Z"/>
      <path class="cls-1" d="M6.92,14.18c-3.36-1.55-4.52-1.62-4.54-5.28l2.91.84c.7,1.34,1.15,2.42,1.64,4.43Z"/>
      <polygon class="cls-1" points="17.65 53.74 15.72 50.59 17.46 44.83 17.65 53.74"/>
    </g>
  </g>
</svg>