<?xml version="1.0" encoding="UTF-8"?>
<svg id="Warstwa_2" data-name="Warstwa 2" xmlns="http://www.w3.org/2000/svg" viewBox="0 0 46.53 48.35">
  <defs>
    <style>
      .cls-1 {
        fill: #fff;
      }
    </style>
  </defs>
  <g id="icon-v8-weapon-shield-pixarts-store">
    <g id="icon-v8-weapon-shield-pixarts-store_194">
      <path class="cls-1" d="M41.14,9.56c-2.2,4.51-5.48,8.23-9.83,11.13-5.32,3.55-11.33,6.39-13.32,12.93-1.8-1.55-3.27-3.26-4.58-5.21,6.67-4.57,12.82-11.27,15.35-19.09,7.14.53,13.22-3.45,17.58-9.32,1.15,8.76-2.95,16.85-9.82,21.96-6.55,4.88-11.78,5.33-16.92,12.26-.3-4.82,6.6-8.9,9.97-10.89,3.02-1.79,5.61-3.9,7.96-6.46,1.57-2.19,3.35-4.24,3.61-7.31Z"/>
      <path class="cls-1" d="M11.65,28.34c1.75,3.22,7.79,10.77,12.13,7.72-.21,1.56-1.36,2.56-2.53,3.07-1.51.66-2.99.01-4.22-1.08-2.56-2.27-4.92-4.59-7.24-7.13-.95-1.04-1.14-2.82-.55-4.11.5-1.1,1.97-2.22,3.41-2.2-.58,1.07-1.63,2.58-1.01,3.72Z"/>
      <path class="cls-1" d="M7.22,46.24c-.8,2.57-3.5,2.52-5.35,1.31C.74,46.81-.05,45.48,0,44.3c.06-1.43.68-2.85,2.3-3.01.48,2.72,1.98,4.57,4.92,4.95Z"/>
      <path class="cls-1" d="M3.86,42.02c-.09-.48.68-1.15,1.45-1.63l1.38,3.74-.51-4.4c-.06-.53.66-1.37,1.18-1.78l1.26,4.49-2.01,2.29c-1.31-.24-2.47-1.2-2.75-2.7Z"/>
      <path class="cls-1" d="M9.61,41.22l-1.33-4.2,1.58-1.7,1.24,3.82c.21.63-.79,1.74-1.5,2.08Z"/>
      <polygon class="cls-1" points="14.09 37.13 12.06 38.8 11.2 34.49 14.09 37.13"/>
    </g>
  </g>
</svg>