<?xml version="1.0" encoding="UTF-8"?>
<svg id="Warstwa_2" data-name="Warstwa 2" xmlns="http://www.w3.org/2000/svg" viewBox="0 0 44.84 44.94">
  <defs>
    <style>
      .cls-1 {
        fill: #fff;
      }
    </style>
  </defs>
  <g id="icon-v8-weapon-shield-pixarts-store">
    <g id="icon-v8-weapon-shield-pixarts-store_18">
      <path class="cls-1" d="M28.37,20.4l-3.94,4.13c-2.22,2.33-4.04,4.33-6.54,6.46l-1.17-2.69-2.89-1.33,5.01-5.08,13.91-14-7.53,6.99-11.69,11.28c-.42-.23-.89-1.02-.93-1.48-.13-1.69,3.25-3.8,5.48-4.31v-1.71s14.01-13.36,14.01-13.36c.75-.72,1.56-.83,2.42-.45l.07-1.48c3.19-1.75,6.47-3.01,10.23-3.4.17,1.38-1.36,6.84-1.93,6.95l-1.43.26,1.06.94c-.13,1.48-6.63,9.81-8.03,8.47l-.11,1.55-5.09,5.28c-.35.36-1.74.36-2.09.45-.05.5,0,1.78-.4,2.21l-5.72,6.19c-.77-.17-1.64-.42-2.41-.72l15.95-16.82c1.29-1.36,2.48-2.73,3.69-4.23-3.31,3.13-6.54,6.32-9.94,9.88ZM25.55,21.67l-.5-.98c-.11-.21.62-.66.85-.59l1.34.43-2.59-2.63c-.09.55.1,1.07.33,1.56.1.22-.57.58-.8.49l-1.23-.48c.24,1.19,1.48,2.18,2.6,2.21ZM21.82,25.41l.51-1.7,1.91-.35-1.4-1.94c-.22-.31-1.46-.84-1.52-.46l-.24,1.49-1.69.6c.75.3,1.67.23,1.86.57s.29.94.56,1.78ZM19.14,26.61l2-.65-2-.38-.21-1.56-.73,1.43c-.13.26-.68.3-1.2.54l1.28.52c.21.64.53,1.45.89,1.97l-.02-1.86Z"/>
      <path class="cls-1" d="M20.51,36.73c-1.86-.74-3.79-1.36-5.15-2.48-4.43-3.66-4.79-4.67-7.13-9.65.55-.79,1.4-1.44,2.52-2.07,1.65,2.41.43,5.1,5.43,6.2,1.47,7.42,9.41,2.63,4.34,8.01Z"/>
      <path class="cls-1" d="M4.39,43.34c-.81,1.23-1.8,1.05-2.96.67-.77-.25-1.36-2.05-.71-2.68.09-.09.56-.44.64-.5.13-.1-.15-.38-.29-.52-.12-.12-.36.22-.77.55-.34-.31-.41-1.35-.1-1.78.39-.56,1.62-1.08,1.99-.56,1.23,1.75,2.68,3.13,4.18,4.24.41.31.1,1.57-.3,1.78-.5.26-1.45.41-2.01.4l.33-1.59Z"/>
      <polygon class="cls-1" points="6.61 35.58 8.42 33.34 13.02 35.16 10.85 37.06 6.61 35.58"/>
      <polygon class="cls-1" points="4 38.08 5.92 36.01 10.15 37.65 8.19 39.56 4 38.08"/>
      <path class="cls-1" d="M14.23,34.67l-5.11-1.78,1.58-2.06c1.39,1.26,2.26,2.09,3.53,3.85Z"/>
      <path class="cls-1" d="M6.17,41.91c-1.51-.88-2.45-1.74-3.06-3.41l4.48,1.56-1.42,1.85Z"/>
    </g>
  </g>
</svg>