<?xml version="1.0" encoding="UTF-8"?>
<svg id="Warstwa_2" data-name="Warstwa 2" xmlns="http://www.w3.org/2000/svg" viewBox="0 0 45.09 46.8">
  <defs>
    <style>
      .cls-1 {
        fill: #fff;
      }
    </style>
  </defs>
  <g id="icon-v8-weapon-shield-pixarts-store">
    <g id="icon-v8-weapon-shield-pixarts-store_192">
      <path class="cls-1" d="M39.45,24.71c-2.06.61-4.29.37-6.29-.88,2.05-.72,4.17-.06,6.29.88Z"/>
      <path class="cls-1" d="M39.03,6.47c-3.52,2.6-6.1,5.56-9.09,8.42l-8.48,8.09-7.07,4.92c-.82.57-1.36,1.24-2.36,1.3l1.31-4.4c6.03-1.46,12.48-11.14,15.7-16.33.84-1.36,1.85-2.49,3.22-3.47l.43,2.99,1.78-4.34c3.34-1.52,6.78-2.68,10.62-3.65-.75,3.67-1.67,7.23-3.14,10.51-1.18.48-2.11.94-3.06,1.68l2.11.58c-1.42,1.92-3.23,3.31-5.25,4.65-4.8,3.18-13.19,9.18-14.44,15.14l-4.12,1.34c-.05-.48.09-1.08.35-1.44,1.68-2.35,3.03-4.56,4.5-6.99,1.31-2.17,3.3-3.8,5.01-5.69l11.98-13.32Z"/>
      <path class="cls-1" d="M21.46,37.94c-.86.83-1.46,1.37-2.21,2.01-2.39-1.78-3.97-3.72-6.08-5.64l-3.56-3.24c-1.38-1.26-2.3-2.57-3.66-4.13l2.19-2.15c.36-.35,1.56-.02,1.85.5.24.43-.46,1.32-.76,1.81.47,3.26,4.08,3.28,6.03,4.49-.14,2.42,1.75,5.12,3.91,5.21.47-.29,1.42-.93,1.82-.72s.8,1.53.46,1.86Z"/>
      <path class="cls-1" d="M7.28,43.85c-.86,2.58-4.03,3.83-6.16,2.25-1.14-.84-1.35-2.4-.89-3.79.33-.99,1.09-2.37,2.52-2.57.3,2.59,1.76,4.49,4.54,4.11Z"/>
      <path class="cls-1" d="M16.76,31.57c-.57-1.01-.92-1.32-2.24-1.99,1.58-1.62,3.55-3.12,5.87-4.16-1.05,2.35-2.28,4.15-3.63,6.15Z"/>
      <path class="cls-1" d="M9.67,7.88c1.99.98,8.06,5.83,8.66,7.9.72,2.48-8.77-7.52-8.66-7.9Z"/>
      <path class="cls-1" d="M29.88,27.28c.94-1.52,8.13,6.34,8.29,7.25-3.16-2.02-5.81-4.39-8.29-7.25Z"/>
      <path class="cls-1" d="M9.14,40.19c-.58.6-1.61,1.66-2.36,2.31-.4.35-1.59-.34-1.97-.67-.43-.37-.9-1.42-.23-2.02.4-.36,1.44.43,2.02,1.03.29-.94,1.1-1.43,2.56-.65Z"/>
      <path class="cls-1" d="M9.78,38.8l-3.98-.15c.18-.6.9-1.62,1.42-1.57l4.25.41c-.11.66-.97,1.33-1.68,1.31Z"/>
      <path class="cls-1" d="M21.54,12.88c-1.39-1.85-1.91-4.13-1.48-6.55,1.26,1.94,1.99,4.16,1.48,6.55Z"/>
      <path class="cls-1" d="M15.49,19.33c-2.36.39-4.68-.16-6.62-1.23,2.29-.26,4.66-.49,6.62,1.23Z"/>
      <path class="cls-1" d="M28.46,36.19c-1.2-1.72-1.84-3.8-1.34-6.02,1.5,1.57,1.66,3.81,1.34,6.02Z"/>
      <path class="cls-1" d="M13.11,36.16c-.73.45-1.77.38-2.41-.14s-1.06-1.49-.68-2.63c1.16.86,1.85,1.5,3.09,2.77Z"/>
    </g>
  </g>
</svg>