<?xml version="1.0" encoding="UTF-8"?>
<svg id="Warstwa_2" data-name="Warstwa 2" xmlns="http://www.w3.org/2000/svg" viewBox="0 0 32.03 55.45">
  <defs>
    <style>
      .cls-1 {
        fill: #fff;
      }
    </style>
  </defs>
  <g id="icon-v8-weapon-shield-pixarts-store">
    <g id="icon-v8-weapon-shield-pixarts-store_52">
      <path class="cls-1" d="M14.04,23.7c-1.43-3.44-4.7-5.84-5.64-9.32l-2.35-8.78c1.4-1.13,2.52-1.7,4.36-2.02,1.46,2.9,4.45,5.06,5.27,8.1l2.71,10.13c-1.35.72-2.6,1.25-4.34,1.88ZM11,11.06c.51-1.06.8-1.59.98-2.46l-1.77,1.91c-.58-1.53,1.44-2.02.98-3.64l-1.51,1.93c-.43-.56-.81-1.03-1.4-.92l2.4,5.31.31-2.13ZM13.77,20.21l-.75-2.97c1.55.3,2.52.99,3.34,2.33-.18-1.92-.69-3.79-2.25-5.09l.62,2.38-3.39-1.29c.79,1.88,1.36,3.22,2.44,4.64Z"/>
      <path class="cls-1" d="M7.47,14.32c.42.93,7.08,9.55,5.38,9.92-.25.05-.84-.04-1.11-.35-1.32-1.52-3.72-3.46-5.77-4.84l-3.54-2.38c.55-2.98,1.11-5.65,1.23-8.61.05-1.2.33-2.27,1.95-2.07l.84,3.85c-.31.11-.63.15-.55.25l.56.68c.58.7.73,2.41,1.02,3.54Z"/>
      <path class="cls-1" d="M19.23,21.53c-.54-.66-2.97-8.67-2.57-10.15l-2.29-3.47.3-.54c.04-.08.12-.28.04-.27-.12.02-.89.19-.96.09l-2.67-3.65c1.83-1.44,2.6-.17,3.76.77,2.05,1.67,4.12,2.89,6.48,4.54l-1.02,6.63-.22,5.53c0,.16-.74.64-.85.51Z"/>
      <path class="cls-1" d="M20.76,37.37l3.61-1.11c.51-.16.94,1.57.43,1.78l-3.31,1.37c-.32.13-1.23-.44-1.16-.74l.29-1.23c-1.03-1.16-1.49-3.03-2.19-4.47l-2.41-4.93,4.29-1.71,2.31,5.76,1.35,3.17c.15.35-1.05,1.11-1.24.81l-1.18-1.88.55,2.06-1.32,1.11Z"/>
      <path class="cls-1" d="M20.4,25.53l-5.26,2.1c-.74-1.17-1.39-1.83-2.53-2.5l7.79-3.3v3.7Z"/>
      <path class="cls-1" d="M26.42,53.42c-.37.17-1.15-.77-1.22-1.18s.29-1.19.77-1.37l4.46-1.7c.55-.21,1.58.97,1.6,1.66l-5.61,2.59Z"/>
      <path class="cls-1" d="M24.44,43l-1.2,1.06-1.02-2.01,2.7-1.49c-.81-.61-1.06-.79-.89-.48l-1.39.97c-.31.21-1.16-.56-1.24-1.13,1.35-.58,3.02-.84,4.47-.85.18.52.4,1.28.22,1.56l-1.51,2.3,1.97-1.96.99,2.17c-1.23.42-2.06.64-3.1-.14Z"/>
      <polygon class="cls-1" points="30.41 55.45 26.88 53.83 31.49 51.82 30.41 55.45"/>
      <path class="cls-1" d="M24.63,46.28c-.58.19-1.42-1.71-1.32-1.99l3.44-.34c.26-.03,1.01-.09,1.06.11l.28,1.09-3.46,1.12Z"/>
      <path class="cls-1" d="M28.95,46.89l.84,1.79-3.83,1.61-1.61-3.32,3.93-1.42.54.72-3.22,3.22c1.4-.57,1.96-1.23,3.34-2.6Z"/>
      <path class="cls-1" d="M11.73,2.26l-7.4,3.15c-1.45-.89,7.56-4.6,7.4-3.15Z"/>
      <polygon class="cls-1" points="8.77 1.88 5.9 3.09 6.25 0 8.77 1.88"/>
      <polygon class="cls-1" points="8.21 21.43 5.8 22.96 6.02 19.94 8.21 21.43"/>
      <polygon class="cls-1" points="23.63 15.49 20.76 16.01 21.39 13.65 23.63 15.49"/>
      <polygon class="cls-1" points="2.5 12.49 .18 10.64 2.96 10.04 2.5 12.49"/>
      <polygon class="cls-1" points="18.12 5.79 16.09 4.62 18.2 3.1 18.12 5.79"/>
      <polygon class="cls-1" points="2.94 18.27 0 18.1 1.75 16.16 2.94 18.27"/>
      <polygon class="cls-1" points="23.94 7.77 22.17 9.6 21.33 7.9 23.94 7.77"/>
    </g>
  </g>
</svg>