<?xml version="1.0" encoding="UTF-8"?>
<svg id="Warstwa_2" data-name="Warstwa 2" xmlns="http://www.w3.org/2000/svg" viewBox="0 0 49.53 50.56">
  <defs>
    <style>
      .cls-1 {
        fill: #fff;
      }
    </style>
  </defs>
  <g id="icon-v8-weapon-shield-pixarts-store">
    <g id="icon-v8-weapon-shield-pixarts-store_63">
      <path class="cls-1" d="M35.77,7.83c1.93.08,4.68,1.18,3.97,2.38-.15.26-.8.47-1.01.37-1.8-3.47-2.6.42-5.82-2.09-2.89-2.25-6.45-3.39-10.09-4.12-7.45-1.49-14.69-.58-22.11,1.73C3.15,3.89,6.08,2.56,9.29,1.65,20.13-1.41,30.06-.07,40.17,4.49l-.58,1.97c-.14.46.83,1.22,1.21,1.61.23.24-.08.99-.4,1.51-3.49-4.11-1.11-4.43-8.05-6.59l1.94,1.39,1.47,3.44ZM33.64,6.71c-1.04-1.47-2.74-2.28-4.5-2.95-6.17-1.99-14.64-3.03-20.66-.77,6.98-1.08,13.66-.97,20.3,1.13,1.68.74,3.03,1.54,4.85,2.59Z"/>
      <path class="cls-1" d="M21.68,32.52l-.46-1c-.38,3.16-2.75,4.79-4.68,7.11-.28-.26-.69-.67-.55-.77l1.05-.76c.02-.08.22-.79.19-.68-.58.49-1.29,1.25-1.6,1.06-.36-.21-1.1-.89-1.08-.93,1.64-.24,3.59-3.82,4.1-4.8,1.63-3.18,1.44-1.28,3.07-3.88,2.23-3.56,6.59-7.68,9.57-10.26.27-.23,1.1.24.8.2l1.1-1.31.09,2.14.61-2.59,2.42-1.36c.68.33,1.99,1.22,2.12,1.92.17.93-1.31,2.14-1.93,2.21l-2.11-.41,1.83,1.04-.92,1.7-4.75.02c1.22-1.42,3.01-1.21,4.9-.88-2.11-1.65-5.11-.09-6.62,1.99l1.21-.83,2.23.09c-1.86,1.23-3.68,2.7-5.28,4.32l-1.49.38,1.07.35c-.37.47-1.18,1.04-1.97,1.41l.43.36-3.35,4.14Z"/>
      <path class="cls-1" d="M43.96,17.56c.64-.68,1.49-1.48,1.5-2.14.02-1.12-1.32-1.69-2.22-1.85l.54-1.93,1.96-.65c.44.98.78,1.67,1.2,2.02.72.59,1.58-.02,2.57-.6.31,2.93-2.33,5.65-5.55,5.15Z"/>
      <path class="cls-1" d="M5.89,48.47c-1.94.44-2.68,2.74-3.87,1.91-.42-.3-.39-1.29-.1-2.13l-.99,1.65c-1.01-.92-1.35-3.01-.23-4.09.97-.93,3.7-.38,2.93.04l-.83.46c1.31.07,2.41.97,3.1,2.16Z"/>
      <path class="cls-1" d="M41.08,15.39c-.29-1.36.11-2.53.43-4.07-1.55.42-2.42,1.59-4.1.67l3.9-1.77.68-3.78c.85,1.36.47,2.61.27,3.7,1.43-.32,2.66-.49,3.77-.22l-3.66,1.72c-.41,1.46-.27,2.38-1.29,3.74Z"/>
      <path class="cls-1" d="M13.47,41.29c-.51.88-1.04,1.63-1.63,2.29-.33-1.78.48-3.13,1.99-4.35l-1.04-.39c-.23-.09-.06-.63.12-.98l1.35,1.53c.38.43.82,1.15.38,1.63-.28.3-.97.44-1.17.28Z"/>
      <path class="cls-1" d="M38.87,16.13l-2.13-2.21c-.13-.14-.21-.58-.2-.78,0-.26.95-.31,1.14-.11l2.58,2.65-.48.78c-.12.19-.75-.17-.9-.33Z"/>
      <path class="cls-1" d="M7.97,46.84c.01-1.81.21-3.52.79-5.22,1.49,1.65,1,3.87-.79,5.22Z"/>
      <path class="cls-1" d="M10,45.05c.5-3.25-1.37-3.78.73-4.61.86,1.49.9,3.65-.73,4.61Z"/>
      <path class="cls-1" d="M6.87,44.29c-.08-.14-.37-.7-.25-.46l-.42.87c-.06.13-.42.11-.57.11-.22,0-.2-.85,0-.95.53-.28,1.82-.85,2.39-1.11-.42,1.93-.52,2.42-.66,4.11l-1.03-1.09c-.24-.26.24-1,.54-1.47Z"/>
      <path class="cls-1" d="M7.37,48.07c-1.91-.09-3.47-1.84-3.09-3.92,1.06,1.2,2.04,2.44,3.09,3.92Z"/>
      <path class="cls-1" d="M46.14,9.03l-2.44-1.18c-.23-.49-.49-1.38-.56-2.1l3.54,2.75c.14.11-.37.61-.54.53Z"/>
      <path class="cls-1" d="M15.98,39.72c-1.2.04-1.54-1.32-2.44-1.99l-.58-.63c-.16-.17.84-.53,1.01-.37.58.54,1.65,1.75,2,2.99Z"/>
      <path class="cls-1" d="M46.66,7.69l-2.29-1.96c.75-.39,1.41-.58,1.8-.36.64.35.97,1.29.48,2.33Z"/>
    </g>
  </g>
</svg>