<?xml version="1.0" encoding="UTF-8"?>
<svg id="Warstwa_2" data-name="Warstwa 2" xmlns="http://www.w3.org/2000/svg" viewBox="0 0 48.81 50.1">
  <defs>
    <style>
      .cls-1 {
        fill: #fff;
      }
    </style>
  </defs>
  <g id="icon-v8-weapon-shield-pixarts-store">
    <g id="icon-v8-weapon-shield-pixarts-store_158">
      <path class="cls-1" d="M22.95,19.89l1.57-.2,1.24,2.84-1.2.63,1.65,1.62c1.72,1.69,3.29,3.29,5.13,4.81l-1.26-2.14.29-2.98,2.58-.77c-.15,1.5-.06,2.22.04,3.38l.34,3.77-1.52-.83.81,1.18c.15.22,0,.77-.17.96s-.94.1-1.28-.23l-14.15-13.84c-.26-.25-.35-.98-.24-1.24s.93-.34,1.16-.11l4.49,4.37c.42.41,1.13.68,1.74.76l-3.27-3.14-2.87-3.01,9.98-10.47,14.63,14.15c.43.42.9.98.66,1.38-1.41,2.31-1.84-1.84-5.06-2.66-.8.29-2.26.69-3.03.42-.55-2.46-1.74-4.1-4.31-4.61l.57-2.74c.08-.4-.74-.9-1.1-1.19-1.2-.98-1.74-2.54-3.47-2.86l3.36,3.92-.66,2.44c-.12.46-1.63.49-2.03.3-.18-1.29-.5-2.44-1.37-3.06l.47,4.11c-1.46-.02-1.84-.84-2.95-2.04-.53.65.82,1.85.49,2.25l-.68.82c.39-.07,1.25-.1,1.46.16.46.68-.4,2.34-1.73,2.15l.67.69c.17.18-.3.47-.98,1.03Z"/>
      <path class="cls-1" d="M45.85,19.81l2.97,2.85-14.51,15.12-2.97-2.85,14.51-15.12ZM45.9,24.07c0-.73-.59-1.33-1.33-1.33s-1.33.59-1.33,1.33.59,1.33,1.33,1.33,1.33-.59,1.33-1.33ZM40.71,27.74l-.16,1.48c-.02.23-1-.06-.97-.29l.11-1.06c-.21.04-.84.57-1,.93s.63,1.29,1.03,1.32c.65.05,1.5-.43,1.69-.9.25-.58-.23-1.82-.71-1.49ZM36.7,33.63c0-.71-.58-1.29-1.29-1.29s-1.29.58-1.29,1.29.58,1.29,1.29,1.29,1.29-.58,1.29-1.29Z"/>
      <path class="cls-1" d="M25.64,0l2.95,2.79-14.52,15.37-2.95-2.79L25.64,0ZM23.38,4.9c.41.73,1.66.73,2.16.05.36-.5.19-1.78-.52-1.97-1.09-.29-2.18.94-1.63,1.93ZM21.38,8.94c0-.77-.63-1.4-1.4-1.4s-1.4.63-1.4,1.4.63,1.4,1.4,1.4,1.4-.63,1.4-1.4ZM16.35,14.59c.37-.31.49-1.76.1-1.85-.31-.08-.9-.17-1.32-.18s-1.16.79-1.13,1.22c.03.37.33,1.02.65,1.19s1.32-.04,1.7-.37Z"/>
      <path class="cls-1" d="M34.45,30c-.39.3-.7-7.62-.26-7.17,1.39.95,2.22,1.96,3.58,1.27-.96-.45-2.29-.97-2.79-1.58-.32-.39-.26-1.61.03-1.98s1.13-.92,1.63-1.02c2.22-.44,4.03,1,5.19,2.68l-7.39,7.8Z"/>
      <path class="cls-1" d="M33.94,19.01c0,2.25-1.82,4.07-4.07,4.07s-4.07-1.82-4.07-4.07,1.82-4.07,4.07-4.07,4.07,1.82,4.07,4.07ZM32.05,19.02c0-1.22-.99-2.21-2.21-2.21s-2.21.99-2.21,2.21.99,2.21,2.21,2.21,2.21-.99,2.21-2.21Z"/>
      <path class="cls-1" d="M5.87,50.02l-5.87-5.65c.77-.95,1.45-1.69,2.27-2.48l5.8,5.85-2.2,2.28Z"/>
      <path class="cls-1" d="M12.15,12.63c-.29-.28-.64-1.42-.36-1.71L20.74,1.44c.28-.29.73-.66.99-.73.32-.08.94.2,1.35.41l-10.93,11.51Z"/>
      <path class="cls-1" d="M38.57,36.96c-.18.19-.73.57-.91.46l-.86-.57,5.31-5.62,5.38-5.7c.33.31.72.72.65.97-.09.31-.45.9-.75,1.2l-8.82,9.26Z"/>
      <path class="cls-1" d="M23.64,29.68l-4.27-4.22c-.16-.57.5-1.56,1.15-2.14l5.18,5.07c-.01.6-1.6,1.75-2.06,1.29Z"/>
      <path class="cls-1" d="M18.16,31.61l3.59-2.2c-.45,1.19-1.31,2.31-2.09,3.12-1.54-.55-2.34-.7-4.31-1.1.43-.49,1.1-1.18,1.68-1.78l2.4-2.41c.67.66.2,1.14-.23,2.09l.9-.8c.2-.18.56-.09,1.17.25l-3.09,2.82Z"/>
      <path class="cls-1" d="M17.17,35.12l-4.52-.45c1.09-2.75,3.36-2.16,5.94-1.49l-1.42,1.94Z"/>
      <path class="cls-1" d="M9.23,43.66l-1.39-3.01c-.53-1.15.33-2.33,1.51-2.64l1.23,3.68-1.35,1.96Z"/>
      <path class="cls-1" d="M7.38,45.18l-2.19-1.88c-.25-.22-.49-1.03-.35-1.32s.94-.7,1.19-.47l2.22,2.04c.37.34-.5,1.95-.87,1.63Z"/>
      <path class="cls-1" d="M38.78,13.91l-3.98-3.88c.26-.32,1.17-.82,1.45-.56l2.67,2.56c.59.56.7,1.61-.14,1.88Z"/>
      <path class="cls-1" d="M13.19,38.92l-2.56-.56c-.31-.08-.63-1.58-.25-1.89l1.41-1.15,1.4,3.59Z"/>
      <path class="cls-1" d="M29.36,26.84l-3.21-2.56c-.18-.14-.46-.95-.26-.98.27-.04.67-.02.94.09l2.45,1.04c.5.22.39,1.51.08,2.41Z"/>
      <path class="cls-1" d="M16.5,35.71c-1.09,1.39-1.38,1.67-2.51,2.74l-1.16-2.75h3.67Z"/>
      <path class="cls-1" d="M3.51,49.38c-.1.23-.54.8-.75.71-.66-.27-3.83-2.58-2.22-3.71l2.98,3Z"/>
      <circle class="cls-1" cx="29.83" cy="18.99" r="1.14"/>
    </g>
  </g>
</svg>