<?xml version="1.0" encoding="UTF-8"?>
<svg id="Warstwa_2" data-name="Warstwa 2" xmlns="http://www.w3.org/2000/svg" viewBox="0 0 46.33 47.84">
  <defs>
    <style>
      .cls-1 {
        fill: #fff;
      }
    </style>
  </defs>
  <g id="icon-v8-weapon-shield-pixarts-store">
    <g id="icon-v8-weapon-shield-pixarts-store_183">
      <path class="cls-1" d="M31.01,14.91l-10.77,10.33c-1.55.29-3.81-.36-4.39,2.15l-2.07-1.09,6.94-7.26.8,1.68c.94-1.03.76-2.94,1.53-4.04,1.53-2.18,3.28-4.1,5.05-6.21l1.15,1.07-.12-2.13c4.93-4.86,10.32-7.98,17.21-9.4-1.43,6.91-4.57,13.2-9.66,17.75-.79-.67-1.84-1.04-2.48-.81l1.14,2.11-9.61,9-4.78,4.88-.8-1.39c3.45-2.97.33-3.6,2.81-6.26,5.49-5.91,10.92-11.57,16.05-17.86l-7.98,7.5Z"/>
      <path class="cls-1" d="M19.17,43.74l-1.34.57c-.37.16-.47,1.05-.66,1.47l-.89-.24c-.19-.05-.33.87-.58,1.02-3.55,2.15-9.39,1.64-12.44-1.95-.33-.38-4.51-4.02-2.2-4.79s1.41,3.86,6.97,5.55c2.8.85,5.42.33,7.55-1.54,2.79-2.46,3.59-6.94,1.6-10.19-2.64-4.3-6.85-4.59-9.32-7.6-.81-.99-.77-2.52-.05-3.41.72-.9,2.01-1.45,3.21-.81.61.33,1.04,1.54.68,2.09-.3.47-1.37.57-2.39.73.57,1.03,1.81,2.01,3.06,2.5,3.81,1.49,6.38,4.28,7.8,8.24,1.45-.83,2.96-1.01,4.12-.11,1.08.84,1.8,2.23,1.14,3.76-.31.73-1.15,1.31-1.84,1.42-.75.12-2.08-.74-1.73-1.63.19-.48,1.13-.92,1.76-1.29-.15-.37-.92-.93-1.38-.98s-1.73.45-1.81.98c-.16,1.08-.22,2.81-.26,3.88-.26.17-1.01.37-1,.64v1.7Z"/>
      <path class="cls-1" d="M19.37,30.67l-2.63-2.67c.81-1.46,2.3-1.94,3.79-1.59.34,1.61.52,2.84-1.16,4.26Z"/>
      <path class="cls-1" d="M10.76,39.36l-1-4.63,1.64-1.72c.63,1.77.88,3.14.95,4.94l-1.59,1.4Z"/>
      <path class="cls-1" d="M8.03,42.23l-.79-4.31c-.11-.6.87-1.56,1.46-1.82.62,3.01,2.07,4.47-.67,6.13Z"/>
      <path class="cls-1" d="M3.78,47.02c-.82,1.11-2.14.75-2.93.07-.95-.82-1.18-2.2-.3-3.3l3.23,3.24Z"/>
      <path class="cls-1" d="M15.23,33.95c.3,1.11-1.16,2.19-1.67,2.63l-1.01-4.27c-.58-2.44,2.46.83,2.69,1.64Z"/>
      <path class="cls-1" d="M7,43.37c-1.35-.65-2.02-1.44-2.9-2.76l1.97-2.01c.48,1.8.67,2.76.93,4.77Z"/>
    </g>
  </g>
</svg>