<?xml version="1.0" encoding="UTF-8"?>
<svg id="Warstwa_2" data-name="Warstwa 2" xmlns="http://www.w3.org/2000/svg" viewBox="0 0 41.58 54.11">
  <defs>
    <style>
      .cls-1 {
        fill: #fff;
      }
    </style>
  </defs>
  <g id="icon-v8-weapon-shield-pixarts-store">
    <g id="icon-v8-weapon-shield-pixarts-store_128">
      <path class="cls-1" d="M40.82,23.93c-2.11,13.2-7.61,23.49-19.84,30.19C3.64,46.45-1.81,24.6.5,7.37l6.58-1.81c4.46-1.23,8.52-2.97,12.54-5.26.78-.44,1.84-.35,2.64.09,3,1.65,5.92,3.38,9.19,4.31l9.61,2.7c.78,5.53.65,10.95-.25,16.55ZM29.26,41.61c6.58-9.53,8.13-19.16,7.35-30.52-5.73-1.4-10.86-3.18-15.82-5.96-4.94,2.69-10.09,4.56-15.78,5.99-1.53,13.53,2.89,30.67,15.8,37.85,3.31-1.98,5.94-4.52,8.45-7.36ZM39.77,16.38l.78-2.02-3.09-.02,1.02.83c.15.13-.37.51-.56.96l1.47-.82.39,1.07ZM2.47,19.31l1.33-1.61-2.42-.13c.47.8.71.97.57,1.2l-.64,1.04c.74.31,1.78.34,2.73-.19l-1.57-.31ZM4.36,27.46c.27.14-1.17.68-1.23.38l-.35-1.72c-.27.41-.45,1.3-.32,1.81.22.84,1.47.74,1.94.34s.46-2.03-.02-1.8l-1.08.5c-.18.08.17.38.37.38.13,0,.58.06.7.12ZM9.34,39.19c-1.14-.35-1.05-.02-1.81.39l1.2-2.42-2.27,1.16.95,1.97,1.93-1.1ZM33.81,40.23l1.54-1.83-2.5-1.06c.43.57.64.74,1.04,1.07l-1.75.81c.17.54,1.36,1.37,1.66,1.01ZM13.55,47.86l.93-2.17-.77-.8c-.13-.14-.35.1-.72.47l.59.2c.13.04.08.59-.05.59-.09,0-.36,0-.45-.01l-1.1-.25,1.58,1.99Z"/>
      <path class="cls-1" d="M23.16,39.4c-.38,2.47-.75,4.32-.7,6.75.01.58-.92,1.49-1.52,1.52-.55.03-1.58-.67-1.98-1.2.04-2.21-.23-4.56-.53-6.85-.34-2.53-.72-4.64-3.26-5.9l-4.03-2c-.95-.47-1.56-2.02-1.14-2.88.11-.23.93-.59,1.03-.37l.59,1.28c.52-.3.57-1.38.19-1.78-.61-.65-2.01-.6-2.55.17-1.02,1.45-.28,3.72,1.35,4.58l4.21,2.21c1.37.72,2.44,2.3,1.99,3.84-.12.42-1.09.99-1.47.85s-.85-.8-.95-1.29.71-.83,1.41-1.17c-.32-.34-.91-.76-1.2-.68-.35.1-1.03.75-1.12,1.1-.21.83.14,1.99.7,2.45.64.52,1.85.54,2.88.49.88,1.4,1.3,3.57,1.15,5.43-5.86-4.03-11.13-14.37-11.48-20.96-.11-2.17,2.22-3.98,3.9-4.67,4.67-1.94,2.44-6.26,5.28-9.09.28-.28,1.55-.3,1.8,0s.19,1.38-.17,1.54-.66.26-1.49.58c.95.37,2.25-.05,2.72-.95.46-.86-.1-2.5-1.25-2.59-2.14-.16-3.6,1.59-4.02,3.51l-.87,4.02-.65-3.28c-.14-.7-1.63-1.26-2.35-1.08s-1.55,1-1.83,1.86c-.22.7-.06,1.91.4,2.26.65.49,1.91.54,2.47.25l-.25-.97c-.05-.2-.5.15-.99.33-.8.17-.8-1.37-.57-2.07.19-.59,2.01-1,2.17-.3l.88,3.89c-3.48,2.33-3.54.76-5.72,4.66-.6-3.8-.64-7.36-.34-10.92,5.36-1.34,10.08-3.18,14.89-5.59,4.85,2.51,9.56,4.25,14.99,5.64.17,3.57.03,7.13-.34,10.86-2.64-4.55-2.04-1.94-5.88-4.65,1.11-1.63.05-3.64,1.23-4.2.39-.18,1.39-.09,1.7.21s.42,1.23.39,1.72c-.02.26-.7,1.11-.92.95l-.95-.67-.2.75c-.07.27.84.73,1.1.63.52-.18,1.36-.53,1.67-.78.6-.49.52-3.42-1.57-3.89-.91-.21-2.39.34-2.53,1.24l-.5,3.13-1.22-4.72c-.46-1.77-2.04-3.21-4.01-2.78-.88.19-1.31,1.54-1.05,2.39.28.9,1.6,1.46,2.39,1.25l-1.29-.96c-.29-.22-.1-1.26.23-1.42s1.41-.11,1.66.15c2.7,2.82.5,7.26,5.21,9.05,1.91.73,4.17,2.61,3.94,4.94-.7,7.19-5.61,16.72-11.7,20.88.01-2.06.42-4.15,1.3-5.61,1.05.03,2.27,0,2.84-.45.74-.59,1.07-1.94.6-2.86-.15-.29-.87-.78-1.19-.73s-.87.58-.93.73c1.13.45,1.51.65,1.39,1.44-.08.5-1.06,1.07-1.6.87-1.42-.52-1.22-2.37-.24-3.38,2.87-2.95,8.39-3.03,7.39-7.27-.24-1.02-1.26-1.68-2.31-1.39-.8.22-1.46,1.7-.57,2.29l.59-1.18c.13-.26.8-.21,1.07-.03.78,1.18-.14,2.63-1.29,3.22-5.29,2.72-6.24,2.61-7,7.58ZM26.38,30.5c1.85-1.43,1.1-7.76,1.01-10.21-2.04-2.23-4.18-3.98-6.58-5.88-2.6,1.9-4.83,3.63-6.73,5.97l-.1,6.79c-.06,3.61,3.91,5.38,6.78,7.69l5.63-4.36Z"/>
      <path class="cls-1" d="M20.66,33.86c-7.06-5.72-5.82-3.48-5.86-13.15l6-5.23,5.72,4.93c.42,3.04.39,5.72.04,8.8l-5.9,4.66ZM20.16,16.84l-4.28,3.75c.57.45,1.17.93,1.52.94.13,0,4.1-2.65,2.76-4.7ZM25.63,20.57l-4.37-3.75c-.96,2.1,2.15,4.48,2.92,4.63.33.06,1-.48,1.45-.89ZM21.04,29.7l2.66-2.53-.16-5.15-2.77-2.42c-.89.77-2.51,1.83-2.7,2.89-.71,3.82-.2,5.72,2.98,7.21ZM17.24,26.38l.02-3.28c0-.81-.75-1.53-1.69-1.53l-.02,6.28,1.2-.22c.27-.05.49-.95.49-1.25ZM24.29,26.45c0,.35.25,1.28.57,1.32l1.1.12c.17-2.08.16-4.08-.02-6.21-.53.04-1,.1-1.31.23-.24.1-.39.98-.38,1.25l.05,3.29ZM20.1,32.57c1.5-1.83-2.4-4.81-2.78-4.56l-1.46.95,4.25,3.61ZM21.38,32.47l4.28-3.51-1.8-1.14-2.45,2.48c-.38.39-.3,1.56-.03,2.16Z"/>
    </g>
  </g>
</svg>