<?xml version="1.0" encoding="UTF-8"?>
<svg id="Warstwa_2" data-name="Warstwa 2" xmlns="http://www.w3.org/2000/svg" viewBox="0 0 46.2 47.64">
  <defs>
    <style>
      .cls-1 {
        fill: #fff;
      }
    </style>
  </defs>
  <g id="icon-v8-weapon-shield-pixarts-store">
    <g id="icon-v8-weapon-shield-pixarts-store_179">
      <path class="cls-1" d="M42.4,10.31c.68-2.57.92-4.96.95-7.7l-7.78,1.5c-1.76,2.22-3.36,4.07-5.22,6.14l-14.84,16.46c-3.34.48-1.8,1.35-3.95,1.45-1.66.07,3.33-3.74,3.62-4.08l8.24-9.75,6.78-7.83.62,2.45.49-3.58,3.4-4.1C38.5.32,42.12-.08,46.2.01l-.8,11.19-4.65,4.22-4.21,1.18,1.9.96c-2.18,1.82-4.22,3.58-6.28,5.47l-5.58,5.12-5.09,4.74c-.6.56-1.19,2.16-1.63,2.77-.13.18-.93-.02-.96-.25-.16-1.15.8-1.12,1.09-3.65l22.41-21.46Z"/>
      <path class="cls-1" d="M21.73,37.59c.65.21-.06,1.74-.73,2.19l-3.77,2.52-.1-2.18c-1.21-1.63-3.27-2.6-4.98-3.86-3.19-2.35-3.6-7.32-6.94-5.69-.99-1.41,2.99-6.28,4.39-5.43.78.48-.89,1.38.02,2.44l3.6,4.2,2.63-.87-.54,2.72,3.93,3.64c.52.48,1.28.38,2.47.31ZM18.43,39.59c.4-.34.82-.8.66-.91-2.88-1.99-8.4-7.77-10.93-10.58l-.59.07c-1.43.16,9.97,10.86,10.86,11.42Z"/>
      <path class="cls-1" d="M28.48,17.72l-.08,2.54c-.01.44-.67,1.03-1.29,1.09l-.19-4.81,3.44-.17-.77-2.49c1.74-.25,2.87-.32,4.5.5-.59.73-1.4.8-2.65.88l.94,2.4-3.9.05Z"/>
      <path class="cls-1" d="M39.98,9.09l-3.92,4.3-.18-4.25c-.78.98-1.37,1.74-2.31,2.36-.26-1.07.11-1.65.65-2.25l2.85-3.24.36,4.11,1.41-1.57.6-.18c.14-.04.22.2.55.73Z"/>
      <path class="cls-1" d="M21.52,27.09c-.24-.16-.58-1.09-.32-1.21l1.59-.78c.09-.27.02-1.07-.09-1.93l-2.31,2.46c-.15.16-.54.37-.73.33s-.62-.46-.5-.63c.45-.66,3.37-4.07,4.71-4.9l.12,2.91.87-.13c.18-.03.62.33.55.5s-.39.59-.57.67l-.96.42c-.25.11.12,1.08-.09,1.25-.43.35-1.58.85-2.27,1.03Z"/>
      <path class="cls-1" d="M2.15,45.54c.76.69,1.58.03,3.17-.2.26-.04.22.94.04,1.14-.64.72-2.32,1.42-3.17,1.06-1.17-.49-2.03-1.61-2.15-2.62-.16-1.47.2-2.86,2.21-3.16.37.79-1.29,2.7-.1,3.78Z"/>
      <path class="cls-1" d="M16.81,33.54l.41-4.25-3.02.76c-.29.07-.86-.01-1.09-.11-.29-.12.24-1.14.58-1.21l5.04-1.02c.06,1.18.06,7.01-1.92,5.84Z"/>
      <path class="cls-1" d="M6.74,42.81c-1.12,1.3-2.2,1.92-3.98,1.47.23-1.28.67-2.24,1.48-3.39l2.5,1.92Z"/>
      <path class="cls-1" d="M10.23,38.74c.34.01-.41.97-.78,1.01-1.13.13-2.14-1.38-2.17-1.78-.02-.36.74-1.05.9-1.08l2.05,1.85Z"/>
      <path class="cls-1" d="M8.53,40.82c-.5,1.69-2.91-.51-3.05-1.1-.08-.31.87-.99,1.09-.77l1.96,1.87Z"/>
    </g>
  </g>
</svg>