<?xml version="1.0" encoding="UTF-8"?>
<svg id="Warstwa_2" data-name="Warstwa 2" xmlns="http://www.w3.org/2000/svg" viewBox="0 0 46.57 47.82">
  <defs>
    <style>
      .cls-1 {
        fill: #fff;
      }
    </style>
  </defs>
  <g id="icon-v8-weapon-shield-pixarts-store">
    <g id="icon-v8-weapon-shield-pixarts-store_20">
      <path class="cls-1" d="M17.59,29.03l-3.17.14c.02-2.67,4.7-2.34,3.97-6.65-.06-.35-.1-.99,0-1.24.13-.31.94-.32,1.37-.42l1.47-.32c.34-.07.43-1.04.5-1.4,1.48-.53,2.97-1.26,4.21-2.4l11.26-10.44c2.76-2.56,5.58-4.89,9.35-6.29-1.37,3.2-3.14,5.93-5.43,8.39l-11.57,12.44c-1.02,1.1-1.77,2.59-2.28,3.82-.27.02-1.37.32-1.42.66l-.37,2.84c-6.37-.54-4.15,2.43-8.13,4.02l.23-3.13ZM19.61,26.85l3.77-.81c.49-2.03,1.67-3.97,3.22-5.57l7.98-8.24-3.85,2.96-5.24,5.24c-1.41,1.41-3.37,2.3-5.11,2.93l-.78,3.5Z"/>
      <path class="cls-1" d="M14.76,43.44c-1.68,2.36-4.97,2.11-7.32,2.58l-.48,1.56c-.12.4-1.32.27-1.57-.07s-.24-1.44.1-1.7c2.66-2.1,6.07-.15,8.26-3.82.76-1.28.99-3.4.11-5.12-1.73-3.36-4.96-5.34-8.98-5.87,1.25-1.92,3.05-1.57,5.17-2.31l-4.32-1.31-1.23,1.29c-.26.27-1.35,0-1.64-.26s-.33-1.14-.11-1.42c1.69-2.13,6.23-.24,7.64,1.09-.34.76-.45.94-.23.98l1.15.2c.67.12-1-3.17,1.08-4.95,1.01-.87,2.46-1.14,3.79-.41.41.22.89,1.06.65,1.36-.37.45-1.27.63-1.63.37l-1.01-.76c-.79-.59-2.16,2.66-.89,5.07l3.45-.13-.18,3.37c1.77,1.14,5.15.22,4.85-.7l-.37-1.12c-.14-.42-.25-.93-.25-1.24s1.08-.6,1.36-.35c.8.7,1.02,2.85.36,3.8-.95,1.36-2.21,1.83-3.83,1.59l-1.38-.2c-.09,1.9.37,4.37-.69,5.85l-1.88,2.63ZM14.62,34.22l.18,2.27.79,2.07c1.72-1.69.2-3.08-.15-4.58-.16-.7.56-2.51-.42-2.9-.63-.25-2.09-.04-2.85,0-1.21-.94-2.78-2.04-4.12-.27l4.19,1.14c.05.35.21,1.61.65,1.74l1.74.53Z"/>
      <path class="cls-1" d="M0,46.12l.49-3.08c.16-1.01,1.78-1.45,2.71-1.16,1.19.38,1.66,1.53,1.46,2.6-.42,2.25-4.78,2.38-4.66,1.64Z"/>
      <path class="cls-1" d="M8.67,37.19l.77,1.61c.16.33-.87,1.12-1.15.87-.53-.47-1.49-1.05-2.14-1.16l1.47,1.52c.23.23-.24,1.03-.58,1.26-.61.42-2.26-1.31-2.2-1.39,1.28-1.69,3.7-4.31,5.37-5.88,1.18.63,2.05,1.24,2.2,2.38l-3.01-1.13c-.2.85,2.4,1.08,1.86,2.15-.15.3-.68.85-.97.69l-1.63-.91Z"/>
      <path class="cls-1" d="M18.62,43.95c-.55-.09-1.18-1.76-.78-2.12l1.07-.95c.6-.53-1.15-3.57-1.09-4.95,2.86.88,3.64,8.47.81,8.02Z"/>
      <path class="cls-1" d="M6.26,41.84c.2.17-.45,1.16-.63,1.03l-1.23-.83c-.35-.24-.69-.51-.87-.69-.23-.22.69-1.19.94-1,.4.31,1.42,1.17,1.8,1.48Z"/>
    </g>
  </g>
</svg>