<?xml version="1.0" encoding="UTF-8"?>
<svg id="Warstwa_2" data-name="Warstwa 2" xmlns="http://www.w3.org/2000/svg" viewBox="0 0 42.62 50.75">
  <defs>
    <style>
      .cls-1 {
        fill: #fff;
      }
    </style>
  </defs>
  <g id="icon-v8-weapon-shield-pixarts-store">
    <g id="icon-v8-weapon-shield-pixarts-store_111">
      <path class="cls-1" d="M16.03,50.75c-1.79-.63-3.11-1.86-3.43-3.45l11.41-12.25,5.67-6.95c1.54.85,2.59,1.73,3.71,3.09-5.34,7.04-11.03,13.22-17.36,19.56Z"/>
      <path class="cls-1" d="M39.72,23.1l-3.91-3.06,1.77-2.67c1.67.89,2.71,1.69,4.03,3.02l-1.89,2.72Z"/>
      <path class="cls-1" d="M33.36,38.65c-2.19,1.57.72-7.22,1.15-7.32,1.56.61-1.79,8.9-1.42,6.57,0-.01.08.23.26.75Z"/>
      <path class="cls-1" d="M42.08,19.81l-4.16-3.13c-.04-.15.99-1.03,1.32-.86.95.51,4.79,2.49,2.84,3.98Z"/>
      <path class="cls-1" d="M34.12,30.76l-3.54-2.98c-.21-.18-.47-.54-.57-.73-.13-.25.96-.72,1.17-.54l3.3,2.92c.11.1.4.7.3.79l-.66.53Z"/>
      <path class="cls-1" d="M38.59,24.44c-1.85-2.1-3.96-2.36-4-3.27-.01-.27.94-.72,1.16-.54l3.44,2.7c.25.2-.44,1.29-.6,1.12Z"/>
      <path class="cls-1" d="M35.74,28.8l-2.74-4.21-.46-.7c.49.75-.5-3.35,3.29,2.88.27.45.13,1.56-.09,2.02Z"/>
      <path class="cls-1" d="M36.37,34.1l-.73-3.02c-.12-.51.22-1.31.77-1.73.44,1.42,1.77,4.39-.03,4.75Z"/>
      <path class="cls-1" d="M36.68,37.99c-1.01-.42-.48-2.44.63-2.52.5-.04.94,1.01,1.01,1.56.05.47-1.12,1.17-1.63.96Z"/>
      <path class="cls-1" d="M37.62,25.35c.35.33-.56,1.47-1.07,1.72l-1.56-2.79c.94.1,1.98.46,2.63,1.07Z"/>
      <path class="cls-1" d="M32.73,39.16c1.01-.31,1.57,2.3,1.14,2.63-.27.21-1.03.32-1.29.11-.3-.25-.75-2.47.15-2.74Z"/>
      <path class="cls-1" d="M37.4,24.22l-2.87-.69c-.21-.05-.71-.39-.87-.5-.22-.14.64-.96.89-.87.76.29,2.14,1.25,2.86,2.06Z"/>
      <path class="cls-1" d="M34.38,28.11l-2.44-1.71c-.18-.13-.65-.62-.5-.77l.63-.63c.15-.15.61.23.91.4l1.4,2.71Z"/>
      <path class="cls-1" d="M33.96,9.23c1.17-1.61,1.82-3.27,1.93-5-.95,2.12-1.87,4.21-3.37,6.2-5.02,6.7-10.1,12.95-15.65,19.27-.6-.25-1.08-.62-1.43-1.13C23.41,19.38,30.71,9.94,37.75,0c1.08,3.08.52,6.12-1.31,8.72-5.6,7.91-11.67,15.39-18.01,22.73-.44-.35-.92-.76-1.14-.98s.45-.88.69-1.16c5.57-6.52,10.86-13.04,15.97-20.09Z"/>
      <path class="cls-1" d="M2.96,42.73l5.17-5.6.67,2.31c.13.44,1.55.24,1.99.14s.22-1.74-.21-1.94c-.5-.23-1.05-.33-2.43-.67l2.14-2.37.4,1.97c.1.5,1.19.68,2.17.8l.06-2.18-2.35-.86,1.23-1.5,2.93,3.05-5.47,5.89-.62-1.76c-.18-.51-1.67-.85-2.16-.36-.38.37.04,1.71.44,2.01.43.33,1.15.4,2.14.51l-3.68,3.99c-.72-1.32-1.28-1.88-2.72-2.01-.1-.09.08-1.17.31-1.41ZM6.95,42.44c-.52-.68-2.22-.88-2.45-.34-.21.5.07,1.67.44,1.86s1.07.19,1.47.05c.33-.11.77-1.28.54-1.58Z"/>
      <path class="cls-1" d="M16.92,36.61l-6.19-5.59c-.17-.15-.34-.94-.17-1.01.23-.1.77-.1,1,.1l5.94,5.33c.32.29.64.6.75.82.13.28-1,.64-1.33.34Z"/>
      <path class="cls-1" d="M4.3,47.03c-.13.28-.73,1.08-1.13,1.39-.51.4-1.76.12-2.13-.31-.62-.71-1.23-1.69-.98-2.24.4-.85,1.5-1.83,2-1.42l.27,1.76c.06.38.67.43,1.97.81Z"/>
      <rect class="cls-1" x="14.53" y="29.29" width="2.35" height="4.33" transform="translate(-18.26 22.36) rotate(-48.47)"/>
    </g>
  </g>
</svg>