<?xml version="1.0" encoding="UTF-8"?>
<svg id="Warstwa_2" data-name="Warstwa 2" xmlns="http://www.w3.org/2000/svg" viewBox="0 0 46.43 46.43">
  <defs>
    <style>
      .cls-1 {
        fill: #fff;
      }
    </style>
  </defs>
  <g id="icon-v8-weapon-shield-pixarts-store">
    <g id="icon-v8-weapon-shield-pixarts-store_67">
      <path class="cls-1" d="M46.43,23.22c0,12.82-10.39,23.22-23.22,23.22S0,36.04,0,23.22,10.39,0,23.22,0s23.22,10.39,23.22,23.22ZM24.64,2.09c0-.75-.61-1.36-1.36-1.36s-1.36.61-1.36,1.36.61,1.36,1.36,1.36,1.36-.61,1.36-1.36ZM42.15,23.22c0-10.45-8.48-18.93-18.93-18.93S4.29,12.77,4.29,23.22s8.48,18.93,18.93,18.93,18.93-8.48,18.93-18.93ZM9.43,8.7c0-.75-.61-1.36-1.36-1.36s-1.36.61-1.36,1.36.61,1.36,1.36,1.36,1.36-.61,1.36-1.36ZM39.64,8.6c0-.74-.6-1.35-1.35-1.35s-1.35.6-1.35,1.35.6,1.35,1.35,1.35,1.35-.6,1.35-1.35ZM3.51,23.22c0-.73-.59-1.32-1.32-1.32s-1.32.59-1.32,1.32.59,1.32,1.32,1.32,1.32-.59,1.32-1.32ZM45.53,23.26c0-.74-.6-1.34-1.34-1.34s-1.34.6-1.34,1.34.6,1.34,1.34,1.34,1.34-.6,1.34-1.34ZM9.56,37.85c0-.74-.6-1.35-1.35-1.35s-1.35.6-1.35,1.35.6,1.35,1.35,1.35,1.35-.6,1.35-1.35ZM39.61,37.89c0-.74-.6-1.34-1.34-1.34s-1.34.6-1.34,1.34.6,1.34,1.34,1.34,1.34-.6,1.34-1.34ZM22.58,43.17c-.59.23-.67,1.77-.2,2.07s1.25.53,1.65.27c.43-.29.68-1.5.43-1.9s-1.24-.68-1.88-.43Z"/>
      <path class="cls-1" d="M36.87,34.48c-7.45,9.68-20.95,5.86-19.48,4.93l-.52.33c-5.07-2-8.92-6.35-10.41-10.99-1.93-6.01-.7-11.84,2.98-16.57,6.04-7.76,17.37-8.89,24.81-2.8,7.66,6.27,8.81,17.04,2.61,25.1ZM23.2,39.35l2.08-6.5,3.89,4.52-.59-5.96,6.15,3.25-3.21-6.13,5.96.64-4.48-4,6.36-1.97-6.27-2.04,4.37-3.78-5.71.43,3.04-5.97-6.1,3.16.49-5.8-3.96,4.27-1.91-6.32-2.25,6.16-3.79-4.23.54,6.04-6.09-3.2,3.23,6.02-6.15-.72,4.58,3.95-6.47,2.04,6.29,2.01-4.37,3.87c2.35-.13,3.91-.43,6.17-.81l-3.21,6.24,5.99-3.21-.51,5.99,3.76-4.41,2.16,6.46Z"/>
      <path class="cls-1" d="M31.91,23.16c0,4.81-3.9,8.71-8.71,8.71s-8.71-3.9-8.71-8.71,3.9-8.71,8.71-8.71,8.71,3.9,8.71,8.71ZM30.33,23.22c0-3.94-3.19-7.13-7.13-7.13s-7.13,3.19-7.13,7.13,3.19,7.13,7.13,7.13,7.13-3.19,7.13-7.13Z"/>
      <polygon class="cls-1" points="24.29 32.81 23.25 36.41 22.15 33.02 24.29 32.81"/>
      <polygon class="cls-1" points="17.17 15.59 15.55 17.22 13.77 14.06 17.17 15.59"/>
      <polygon class="cls-1" points="24.32 13.46 22 13.48 23.2 10.07 24.32 13.46"/>
      <polygon class="cls-1" points="30.97 17.28 29.49 15.56 32.68 13.92 30.97 17.28"/>
      <polygon class="cls-1" points="13.47 24.28 9.58 23.19 13.43 22.12 13.47 24.28"/>
      <polygon class="cls-1" points="32.63 32.58 29.32 30.72 30.9 29.24 32.63 32.58"/>
      <polygon class="cls-1" points="17.1 30.54 13.76 32.51 15.45 29.2 17.1 30.54"/>
      <polygon class="cls-1" points="36.56 23.15 32.93 24.23 33.13 22.23 36.56 23.15"/>
      <circle class="cls-1" cx="23.2" cy="23.18" r="6.14"/>
    </g>
  </g>
</svg>