<?xml version="1.0" encoding="UTF-8"?>
<svg id="Warstwa_2" data-name="Warstwa 2" xmlns="http://www.w3.org/2000/svg" viewBox="0 0 37.3 54.81">
  <defs>
    <style>
      .cls-1 {
        fill: #fff;
      }
    </style>
  </defs>
  <g id="icon-v8-weapon-shield-pixarts-store">
    <g id="icon-v8-weapon-shield-pixarts-store_135">
      <path class="cls-1" d="M20.53,54.06c-1.14.86-2.26,1.04-3.37.25-5-3.52-8.79-8.25-11.5-13.78C.78,30.57-.57,15.96.21,4.95,4.25,2.68,8.34,1.52,12.73.64c3.99-.8,7.79-.89,11.77-.05,4.42.93,8.57,2.13,12.63,4.5.55,9.43-.19,18.74-2.63,27.83-2.29,8.53-6.89,15.8-13.97,21.15ZM19.25,51.98c13.62-9.6,15.95-28.07,15.51-43.26-.03-1.08-.69-2.13-1.69-2.64C23.49,1.16,12.04,1.47,2.71,6.95c-.65,8.77-.01,17.3,2.31,25.59,1.9,6.78,5.24,12.76,10.39,17.44,1.11,1.01,2.26,1.8,3.84,2Z"/>
      <path class="cls-1" d="M27.29,42.16l-.58-3.69c-.56,2.09.82,3.94-.88,5.69l-.47-2.88c-.85,1.68.53,3.52-1.13,4.96l-.43-2.99-.43,3.66c-.09.63-1.15,1.52-1.76,1.86-.19-3.39-.06-6.45-.03-9.74l.05-6.12c6.26-4.11,5.73-12.27,5.52-19.07h-5.51s0-10.15,0-10.15l6.49,1.33.53,1.86.26-1.56c.3.13,1.12.51,1.39.68l.57,3.12.48-2.96c1.58.63.35,3.74,1.17,4.91l.14-4.09c.6.12,1.1.87,1.13,1.65.48,10.52-.88,21.66-5.16,31.25l-.69-1.66c.19,1.41.27,2.69-.67,3.93Z"/>
      <path class="cls-1" d="M10.5,38.81l-.68,3.11c-.53-1.23-.69-1.99-.99-3.42l-.33.98c-2.79-6.16-4.21-12.8-4.78-19.71-.35-4.26-.61-8.38.04-12.86,1.54.77.56,2.25,1,3.47,1.12-.92-.87-3.82,1.44-4.24l.09,2.98c.98-1.66-.23-3.39,1.65-3.68l.26,2.07.52-2.34,6.97-1.59-.09,10.19-5.48.09c-.39,6.32-.75,15.12,5.49,19.01l-.03,15.8c-.6-.31-1.73-1.15-1.78-1.8l-.22-2.91-.59,2.2c-1.46-1.03-.6-3.84-1.22-5.18l-.46,2.96c-.6-.64-.81-1.55-.82-2.53v-2.62Z"/>
      <path class="cls-1" d="M24.26,27.54c2.06.8-4.21,5.9-5.35,6.17-1.05.09-1.98-.9-2.7-1.42-2.01-1.43-3.24-3.04-4.1-5.33-.29-.78-.92-1.84-1.01-2.68-.36-3.37-.42-6.46-.15-9.73l15.4.15c.2,4.41.31,9.67-1.52,13.06l-.58-.22ZM20.1,29.12l-.82-5.74,4.45.72c-.39-.94-.48-1.92-.1-2.99-1.37.36-2.5.63-4.34.87l.75-4.3c-1.15.28-2.11.26-3,.02l.95,4.28-4.34-.74-.05,2.79c1.35-.28,2.73-.5,4.4-.65l-.93,5.74c1-.4,2.03-.34,3.03,0Z"/>
      <path class="cls-1" d="M20.77,38.39c.07,3.94.09,7.73-.14,11.36-.41.51-1.39,1.3-1.92,1.33-.59.03-1.62-.73-2.23-1.29l-.05-16.2,2.24,1.17,2.01-1.07.08,4.7Z"/>
      <path class="cls-1" d="M20.71,13.75l-4.22-.09.07-10.14c1.38-.19,2.59-.18,4.15,0v10.23Z"/>
    </g>
  </g>
</svg>