<?xml version="1.0" encoding="UTF-8"?>
<svg id="Warstwa_2" data-name="Warstwa 2" xmlns="http://www.w3.org/2000/svg" viewBox="0 0 40.48 52.66">
  <defs>
    <style>
      .cls-1 {
        fill: #fff;
      }
    </style>
  </defs>
  <g id="icon-v8-weapon-shield-pixarts-store">
    <g id="icon-v8-weapon-shield-pixarts-store_144">
      <path class="cls-1" d="M16.85,46.73c-.8.65-1.31,1.45-1.07,1.92.32.64,1.72.93,1.77.36.36-3.58,1.4-3.43,1.16-8.62,1,.04,2.07.04,3.04-.02.12,2.17.28,4.43.73,6.82,2.35-1.11,3.57-2.72,5.04-4.6,6.08-7.75,9.28-17.26,9.64-27.09l-2.75-2.07-7.31,7.54c-.32-.31-.77-.76-.79-1.04s.34-.89.54-1.11l3.35-3.82c1.52-1.73,2.81-3.43,4.25-5.45l1.15,3.54c1.77-.55,3.01-.9,4.88-.88.17,15.17-6.61,32.59-20.14,40.43C6.69,44.92.82,28.87,0,14.15c-.03-.58.32-1.65.53-2.15,1.92.4,3.61.91,5.23,1.71l-2.43,1.77c.21,11.43,5.25,23.66,13.52,31.25Z"/>
      <path class="cls-1" d="M20.33,39.45c-1.47.08-2.93-1.73-3.72-2.68l-.06-2.45c-2.61-.28-4.09-1.36-4.37-4l-.9,1.64c-1.5-3.29-.23-5.57,1.86-8.58,1.39,2.12.57,3.67.35,5.59-.16,1.34,1.06,3.35,2.41,3.24-3.37-4.95.36-3.2-1.67-7.82l2.03,1.91c.36-1.41-2.27-3.06-2.17-4,.05-.48.83-1.11,1.42-1.61l1.86,1.48c-.54-1.09-.98-2.03-.72-2.66s1.55-1.55,2.13-1.22c2.6,1.47,3.3-1.83,4.86,1.06.34.62.12,1.73-.15,2.52l1.2-.99c.33-.27,1.12.36,1.36.72.97,1.44-1.66,2.72-2.17,4.67l2.3-1.7c-.37.9-.82,1.93-.79,2.56.97,1.43.68,3.44-1,4.96,1.19.24,2.04-.85,2.37-1.6,1.22-2.8-1.61-2.39.47-7.23,2.21,2.8,3.62,5.99,1.7,8.83l-.75-2.02c-.53,4.99-3.84,3.59-4,4.53l-.27,1.52c-.22,1.25-1.8,3.22-3.57,3.32ZM18.97,37.68c.35-1.83-.01-11.56-3.97-9.45l2.87,3.87,1.1,5.59ZM22.86,31.69l2.57-3.5c-4.11-1.91-4.21,8.05-3.96,9.44,1.01-1.84.19-4.31,1.39-5.94Z"/>
      <path class="cls-1" d="M12.73,21.94c-1.05,1.92-2.03,3.49-2.71,5.29-1.14,3,.26,5.95,3.35,7.15.2,2.36.19,4.55-.07,6.94-7.21-9.13-2.95-7.49-5.09-16.63l-.17,7.68c-.84-.98-6.04-18.78-2.28-17.02l.64,6.04.31-5.74c.43.26,1.09,1.03,1.13,1.54l.49,6.08.43-5.72c1.42,1.41,2.72,2.83,3.97,4.38Z"/>
      <path class="cls-1" d="M25.13,9.95c-4.26-1.66-2.34,6.81-4.47,7.72-.48.2-1.72-.32-1.81-.92l-.73-5.36c-.17-1.27-1.52-1.85-2.55-1.48-2.3.83-4.25,1.4-6.64,2.04l-1.64-2.49c4.48-.26,7.03-2.93,9.61-2.58l3.43,2.66,3.34-2.66c1.24-.99,5.55,2.68,9.66,2.48l-1.8,2.65c-2.34-.61-4.21-1.19-6.41-2.05Z"/>
      <path class="cls-1" d="M27.33,41.19c-.27-2.5-.32-4.52-.29-6.82,2.98-.94,4.17-3.55,3.58-6.43-.44-2.12-1.64-3.85-2.91-5.9,1.3-1.64,2.56-3.05,4.12-4.48.24,2.44.16,16.06-.27,16.93-1.25,2.55-2.51,4.49-4.23,6.7Z"/>
      <path class="cls-1" d="M32.85,31.25c-.44-1.96-1.22-15.9,1.04-15.67l.52,3.22.46-3.52c3.18-.9-1.13,14.77-2.02,15.97Z"/>
      <path class="cls-1" d="M23.07,46.07c-.24-2.2-.89-4.69.03-6.51l1.9-3.75c.19-.38.94-.93,1.38-.92-.31,6.02,1.52,7.48-3.31,11.18Z"/>
      <path class="cls-1" d="M17.26,39.31c.88,1.66.46,4.3.23,6.45-4.63-2.54-2.97-5.49-3.36-10.87.23-.1.92.28,1.06.55l2.06,3.87Z"/>
      <path class="cls-1" d="M15.46,19.53l-1.38-1.98.28-5.86c.02-.47,1.16-.96,1.57-.92,1.98.2,1.9,4.52,1.85,6.13l-2.32,2.63Z"/>
      <path class="cls-1" d="M13.39,20.98l-7.6-7.75c-.22-.23-.74-.98-.57-1.15l.69-.65c-.04-.63.02-1.51.19-2.08,2.43,3.55,4.72,6.43,7.62,9.49.22.23.57.87.63,1.17s-.66.83-.96.97Z"/>
      <path class="cls-1" d="M26.45,17.22c0,.64-.8,1.75-1.41,2.16l-2.42-2.75c-.02-1.62.34-4.06,1.03-5.43.21-.42,1.51-.37,1.89-.14.45.27.96,1.28.95,1.84l-.04,4.32Z"/>
      <polygon class="cls-1" points="20.22 8.66 18.27 6.6 20.33 0 22.34 6.8 20.22 8.66"/>
      <path class="cls-1" d="M13.42,16.94c-1.46-1.17-2.28-2.22-3.63-4.08l3.91-1.27-.28,5.36Z"/>
      <polygon class="cls-1" points="30.78 12.89 27.27 17 27.15 11.67 30.78 12.89"/>
      <path class="cls-1" d="M4.67,9.33c.48.36.06,1.62-.22,2.06s-1.94.34-2.16-.16c-.6-1.33-.99-3.02-1.29-4.66l3.68,2.75Z"/>
      <path class="cls-1" d="M38.43,10.97c-.16.51-1.61.66-2.09.6s-.83-1.64-.45-2.01c.94-.93,2.35-2.01,3.57-2.89-.23,1.34-.57,2.83-1.03,4.3Z"/>
      <path class="cls-1" d="M11.86,6.66c.57.87-1.74,1.8-2.7,1.41l-.18-4.98c1.13,1.17,1.85,1.99,2.88,3.56Z"/>
      <path class="cls-1" d="M31.24,7.89c-.17.84-2.62-.08-2.7-.97.85-1.28,1.75-2.44,2.92-3.84.17,1.65.16,2.96-.22,4.81Z"/>
    </g>
  </g>
</svg>