<?xml version="1.0" encoding="UTF-8"?>
<svg id="Warstwa_2" data-name="Warstwa 2" xmlns="http://www.w3.org/2000/svg" viewBox="0 0 51.12 50.36">
  <defs>
    <style>
      .cls-1 {
        fill: #fff;
      }
    </style>
  </defs>
  <g id="icon-v8-weapon-shield-pixarts-store">
    <g id="icon-v8-weapon-shield-pixarts-store_157">
      <path class="cls-1" d="M35.8,3.18l8.9,8.54-8.77,9.14-8.9-8.54,8.77-9.14ZM30.48,10.84l4.2-.16-.62-4.03-.54,3.33c-1.3.11-2.36.12-3.04.86ZM40.43,10.53l-2.34-.9c-.5-.19-.68-1.27-.86-1.87l-.32,2.85,3.52-.08ZM34.27,15.57l-.1-3.68-4.6.22c1.04,1.22,2.12,1.04,3.55,1.03l1.15,2.43ZM40.19,12.75l-1.87,3.24,4.05-3.97c-2.19-.23-4.12-.22-5.72.04l.37,6.43c.18-.36.68-1.49.68-1.98l-.16-3.72,2.65-.04ZM35.63,17.59c.55-1.64.58-3.03.09-4.29-.9,1.54-.83,3.18-.09,4.29Z"/>
      <path class="cls-1" d="M49.16,18.27l-2.72.39c.13.68.25,2.09-.04,2.69l-2.77.47-.13,2.71-2.44,1.58c-.53.35-1.84-.98-1.92-1.56,1.4-1.7,2.89-3.21,4.2-5.32-1.57.75-2.79,2.33-3.91,3.68-.52-1.03-.97-1.65-1.94-2.51l4.01-4.15,2.46-2.67,2.63,1.07-1.07,2.58,2.81-2.62c1.39.97,3.26,3.19,2.67,5.1l-5.82,6.26c-.36.38-.99,1.13-1.41,1.15-.48.03-1.26-.51-1.79-.87,1.85-.4,2.7-1.55,2.44-3.63l2.44-.35.97-2.75,1.23.05c.36.02.24-1.66.1-1.29ZM40.96,19.44l2.38-2.18c.18-.16.33-1.03.09-.99-.16.03-.56.13-.67.25l-2.05,2.02c-.14.14-.25.74-.29.99-.02.13.25.03.54-.09Z"/>
      <path class="cls-1" d="M26.58,9.17c-1.08,1.43-4.08-3.31-4.36-4.65l4.67,1.02,1.73-.95-.25-.5c-.07-.14-.28-.58-.22-.44l.92.07c.16.01.36-.63.2-.64l-1.13-.07-1.79-3c1.95.15,3.99.81,5.67,1.9l-.6,1.92,1.13.05c.26.01.76.87.55,1.08l-4.88,4.96c-1.17-1.78,1.88-3.27,2.13-4.86-2.05.68-2.43,2.34-3.77,4.11Z"/>
      <path class="cls-1" d="M8.2,47.79c-.53.82-1.41,1.82-2.22,2.57l-5.98-5.69c.24-.84,1.43-2.01,2.55-2.33l5.65,5.45Z"/>
      <path class="cls-1" d="M21.5,30.75c-.13.15-.32.33-.42.42s-.5-.13-.54-.26c-.05-.19.1-.71.25-.87l3.9-4.51c-2.41,1.34-3.07,3.37-5.02,4.61-.15.1-.48-.62-.36-.75,1.15-1.26,3.33-3.31,4.43-4.9-1.77,1.26-3.36,2.92-5.08,4.55-.49-.15-.31-1.01.09-1.44l8.36-8.75c.56,1.69-1.18,1.74-1.21,3.21l2.72-2.01-3.42,5.22,2.13-2.21c.77-.79,1.53-1.6,2.77-1.52-3.63,4.24-5.01,4.9-8.61,9.2Z"/>
      <path class="cls-1" d="M31.42,21.24l-4.09-3.74c.27-.68.99-1.47,1.71-2.01l3.75,3.86c.41.43-.78,2.03-1.38,1.89Z"/>
      <path class="cls-1" d="M8,46.09l-3.31-3.18c-.28-.27.17-1.21.44-1.4.32-.23,1.35-.39,1.67-.11l2.56,2.2-1.37,2.49Z"/>
      <path class="cls-1" d="M19.22,34.23l-2.84-3.17-1.01-1.13c-.27-.3.91-1.17,1.25-1.17l4.24,3.95-1.63,1.51Z"/>
      <path class="cls-1" d="M14.24,38.88l-3.96-1.16c-.21-.06-.49-.77-.54-.98-.36-1.54,6.31-.41,5.49.75l-.99,1.4Z"/>
      <path class="cls-1" d="M10.72,40.96c.24.55.53,1.19.37,1.49s-1.03.74-1.29.52c-1.15-1-2.87-4.33-.7-5.72l1.63,3.72Z"/>
      <path class="cls-1" d="M15.88,37.23c-.75-1.79-1.02-3.93-1.08-5.9l3.24,3.27c-.55.97-1.02,1.56-2.16,2.62Z"/>
      <path class="cls-1" d="M4.11,50.04c-1.13.33-2.5.48-3.08,0-1.01-.83-1.2-2.2-.65-3.49l1.62,1.48,2.12,2.01Z"/>
      <path class="cls-1" d="M42.47,8.28l-2.82-2.82c.13-.26.72-.79,1.02-.8s.94.34,1.16.57l1.81,1.96c.06.25-.68.82-1.16,1.08Z"/>
      <polygon class="cls-1" points="14.64 35.79 11.32 35 13.68 32.66 14.64 35.79"/>
      <polygon class="cls-1" points="13.53 39.35 12 41.15 10.7 38.82 13.53 39.35"/>
    </g>
  </g>
</svg>