<?xml version="1.0" encoding="UTF-8"?>
<svg id="Warstwa_2" data-name="Warstwa 2" xmlns="http://www.w3.org/2000/svg" viewBox="0 0 42.7 42.81">
  <defs>
    <style>
      .cls-1 {
        fill: #fff;
      }
    </style>
  </defs>
  <g id="icon-v8-weapon-shield-pixarts-store">
    <g id="icon-v8-weapon-shield-pixarts-store_28">
      <path class="cls-1" d="M18.65,25.76l.33-1.98-1.89.49c1.39-1.87,2.29-3.45,2.31-5.89,4.48-1.62,8.4-4.41,11.22-8.22-4.61,3.37-5.99,6-11.82,7.44.44,3.04-3.92,9.47-5.7,6.47,3.13-1.71,4.78-4.43,3.28-7.98,1.28-.45,2.81-.51,4.11-.6.82-.81,2.21-2.36,3.29-2.63,2.94-.74,3.08-3.42,4.58-5.01,3.75-4,9.26-6.11,14.34-7.84-.56,2.82-2.2,6.52-3.45,8.38-.12.17-1.13.25-1.34.25-.26,0,.52,1.08.41,1.32-.63,1.32-2.24,3.74-3.39,4.83-2.92.75-4.6,2.82-5.77,5.4-.9,1.99-2.02,3.76-2.4,6.26-3.39-1.2-6.51-.02-8.15,3.46-2.59-2.55,3.8-6.06,6.48-5.94.98-2.87,2.38-5.42,4.3-7.7l3.58-4.27c-3.85,3.1-6.71,6.41-8.54,11.37-2.17.16-3.9.99-5.78,2.4ZM19.6,21.54c.87.09,1.64-.03,1.7.27l.2,1.19.8-1.59c.17-.33,1.28-.2,1.59-.4.71-.46.98-2.11,1.1-3.35l-3.42,1.03-.16,1.81-1.81,1.04Z"/>
      <path class="cls-1" d="M11.14,31.56c.21-1.41.5-2.81.02-4.06-.3-.77-1.45-1.63-2.15-1.62-.87.02-1.76.79-2.64,1.68-.66-1.53-.22-3.79.57-4.97,1.26-1.88,3.32-2.7,5.18-2.18-.46.78-1.04,1.73-1.01,2.34.02.68.97,1.94,1.7,2.37,1.42.84,3.35.27,4.97-.15-.4,1.56-.86,3.31-.26,4.86.26.67,1.57,1.66,2.3,1.81s1.66-.43,2.56-1.07c.63,1.83-.22,3.77-1.88,5.04-1.33,1.02-3.65,1.62-5.25.7.81-.8,1.68-1.66,1.76-2.38.23-1.89-2.73-3.25-5.86-2.38ZM12.68,29.99c1.04.26,2.53.2,3.12-.43l.04-2.79-3.1.38-.06,2.84Z"/>
      <path class="cls-1" d="M6.83,37.79l.51.43c.08.07-.63,2.13-3.04,1.82-.73-.09-1.47-.98-1.63-1.97-.13-.81.56-1.74,1.42-2.29,3.5-2.23,1.57-3.05,4.1-2.55.16-1.77.84-3.41,2.62-4.5-.14,1.49-.5,2.68-.99,4.12,1.54-.41,2.84-.76,4.4-.73-1.29,1.59-2.91,2.16-4.58,2.74.31.25.45.37.54.46.13.13-.36.82-.55.93l-2.81,1.54Z"/>
      <path class="cls-1" d="M7.3,41.8c-.78,1.05-2.27,1.25-3.72.74l-3.5.27.14-3.75c-.31-1.29-.44-2.47.74-3.33l.82,1.88c1.34,3.08-.69,1.99,5.52,4.19Z"/>
    </g>
  </g>
</svg>