<?xml version="1.0" encoding="UTF-8"?>
<svg id="Warstwa_2" data-name="Warstwa 2" xmlns="http://www.w3.org/2000/svg" viewBox="0 0 32.05 53.88">
  <defs>
    <style>
      .cls-1 {
        fill: #fff;
      }
    </style>
  </defs>
  <g id="icon-v8-weapon-shield-pixarts-store">
    <g id="icon-v8-weapon-shield-pixarts-store_72">
      <path class="cls-1" d="M32.05,50.49l-15.9,3.39L.03,50.56c.41-5.91.55-11.43.55-17.22v-12.85c.09-5.83-.14-11.28-.58-17.35L13.97.17c1.43-.25,2.76-.21,4.21.04l13.86,2.97c-.42,6.03-.68,11.49-.64,17.31v12.3c0,5.91.12,11.44.65,17.71ZM18.93,50.94l10.39-2.28.02-43.61c-4.43-.93-8.51-1.98-12.84-2.52-2.63-.33-5.23.93-7.77,1.15l-6.05,1.42v43.57s12.73,2.69,12.73,2.69l3.53-.43Z"/>
      <path class="cls-1" d="M17.28,38.6c-.43.28-.94.65-1.24.73-.34.09-.93-.47-1.3-.7-5.12-3.27-8.16-8.46-8.69-14.59-.25-2.84-.2-5.52-.22-8.58l9.93-2.99,10.37,2.93c.61,9.36-.31,17.59-8.85,23.2ZM24.81,16.5l-8.17-2.35c-1.43-.41-3.37.63-4.71,1l-4.58,1.25c-.5,8.6.37,16.82,8.78,21.22,8.33-5.11,9.06-12.23,8.69-21.12Z"/>
      <path class="cls-1" d="M3.56,47.97c-.21-2.12.02-3.91.64-5.91l-.72.79.02-32.66.02-4.21c.45-.37,1.39-.56,2.19-.61.18,3.16.28,6.13-.09,9.25-.05.42-.42,1.28-.45,1.75-.24,3.62.43,6.91.47,10.46l.22,16.3c.03,1.87-.06,3.37-.18,5.29l-2.13-.46Z"/>
      <path class="cls-1" d="M28.56,48.01l-2.22.33.09-21.29c.02-3.54,1.19-6.93.46-10.41l-.46-2.22-.13-9.11,2.19.46c.22,1.8,0,3.31-.75,4.85l.81-.81-.12,33.48c0,1.46.12,2.98.12,4.71Z"/>
      <path class="cls-1" d="M9.15,49.27l-.43-2.88-.32,2.68-2.21-.56.09-19.48c1.22,2.86,2.49,5.37,4.85,7.59v12.93s-1.98-.28-1.98-.28Z"/>
      <path class="cls-1" d="M22.87,46.69l-.34,2.28c-.07.46-1.05.66-1.65.52l.03-12.86c2.32-2.23,3.72-4.74,4.87-7.78l.02,19.58-2.62.76-.32-2.5Z"/>
      <path class="cls-1" d="M6.21,5.13l2.23-.43.27,1.93.38-2.07,2.02-.38.02,8.96-4.91,1.43c-.13-3.32-.13-6.24-.02-9.43Z"/>
      <path class="cls-1" d="M23.1,4.59l2.71.6v9.4s-4.89-1.35-4.89-1.35V4.14c.76.12,1.2.17,1.45.33.3.2.29,1.16.29,1.55-.12.56-.16,1.05.26.54l.19-1.97Z"/>
      <path class="cls-1" d="M17.7,39.25c.23,3.57.25,7.1,0,10.82-.84.7-2.13.57-3.35.23v-10.95c.63.33,1.18.68,1.53.77.4.1,1.03-.48,1.82-.87Z"/>
      <path class="cls-1" d="M17.65,9.58l.08,2.52c-1.19-.1-2.11-.13-3.41.02l.02-8.62c1.09-.41,2.41-.39,3.37.05-.09,2.13-.12,3.92-.05,6.02Z"/>
      <path class="cls-1" d="M20.3,49.67c-.69.2-1.23.32-2.05.46v-11.3s1.97-1.44,1.97-1.44l.08,12.27Z"/>
      <path class="cls-1" d="M13.77,50.06c-.43.09-1.33-.1-1.97-.38l.04-12.2c.7.4,1.45,1.01,1.97,1.59l-.03,10.99Z"/>
      <polygon class="cls-1" points="20.28 12.89 18.24 12.4 18.22 3.61 20.27 4 20.28 12.89"/>
      <path class="cls-1" d="M13.76,11.99c0,.5-1.35.82-1.91.8l-.05-8.74c.57-.17,1.28-.34,2-.47l-.04,8.41Z"/>
      <path class="cls-1" d="M17.27,30.1c-1.54.11.72-2.39-2.4-4.7-.87-.64-1.21-1.32-2.56-.79-.39.15-.9.43-1.34.69l-.43-.54c-.13-.17-.6.22-.98.48l-.63-1.08.55-.32c.08-.05-.17-.32-.17-.34l.66-.91.88,1.23,3.59-1.08-.74-.44c-.08-.04-.12-.05-.08-.12l.38-.63-1.97.61-.89-.92c-.11-.12-.1-.73-.26-.75l-.92-.14c.11-.25.6-.87.36-1.01l-1.12-.65.64-.3c.19-.09.15-.45.2-.86l1.02.52v-.53c0-.12.28-.24.32-.13.53,1.4-.6,1.38.46,2.26.51.42.76.98.96,1.62l3.27-1.63-1.11.17c-.23.04-.61-.67-.58-.76l.77.17c.18.04.43-.63.36-.7-.84.02-1.66-.18-1.84-.99,1.07-.59,2.43-1.19,3.69-1.32,1.73-.17,1.96,3.83,1.73,4.44l-.75,2.01-.83-.52.34,1.39-1.25-1.19c.19.8,2.89,6.06,4.39,4.64.25-.24.44-1.09.26-1.41l-1.52-2.64c-.4-.69.12-2,.73-2.39.57-.37,1.88-.39,2.4.52l.22,1.94c-1.2-.17-1.63-.9-1.53-2.13-.61.03-1.24.35-1.33.74-.38,1.68.42,1.55,1.56,3.7.36.67.04,1.8-.58,2.18-.62.38-1.36.28-2.18-.04.01.4.08,1.25.17,1.63s1.12.52,1.4.64l-.42,1.42-.6,1.85-1.5,1.16-.45-.74c-.1-.16-.66.13-.91.15l.54-1.1c.32-.07.98-.16,1.27-.31.34-.16.32-1.08.16-1.43-.19-.41-.84-.67-1.42-.62Z"/>
      <path class="cls-1" d="M11.99,31.69l-.77-.73.65-1.5,1.02.76c.27.21,1.29-.38,1.21-.71-.13-.52-.69-1.25-1.08-1.79.12-.5,1.12-1.26,1.85-1.31.42-.03,1.1.32,1.26.62s.16,1.17-.15,1.32l-.74.35c-.64.3.98,1.56.26,1.92-.9.16-1.91.62-2.51,1.25l-.33-.57c-.05-.09-.14-.25-.2-.18l-.45.57Z"/>
    </g>
  </g>
</svg>