<?xml version="1.0" encoding="UTF-8"?>
<svg id="Warstwa_2" data-name="Warstwa 2" xmlns="http://www.w3.org/2000/svg" viewBox="0 0 47.12 48.83">
  <defs>
    <style>
      .cls-1 {
        fill: #fff;
      }
    </style>
  </defs>
  <g id="icon-v8-weapon-shield-pixarts-store">
    <g id="icon-v8-weapon-shield-pixarts-store_198">
      <path class="cls-1" d="M35.13,13.12c1.73-1.86,3.13-3.54,4.57-5.3-1.15.93-2.13,1.71-3.07,2.64l-16.54,16.24c-1.92.65-3.72,1.3-5.97,1.75,3.72-3.69,6.84-6.97,10.14-10.75,3.9-4.48,7.24-9.37,11.5-13.49,3.11-2.32,7.36-2.93,11.36-4.2-.84,3.72-.99,8.57-3.63,11.51-4.09,4.57-9.04,8.08-13.51,12.2-3.62,3.34-6.79,6.49-10.08,10.5.01-2.34.8-4.28,1.41-6.23l13.82-14.86Z"/>
      <path class="cls-1" d="M19.83,38c.4,3.32-.62,6.31-2.9,8.44-2.32,2.17-5.65,3.03-8.87,1.87-2.94-1.06-8.1-5.74-6.33-6.65,1.33-.69,2.44,2.46,5.08,4.05,3.04,1.84,6.69,1.17,8.8-1.25,2.25-2.59,2.71-6.27.28-9.02l-4.26-4.83c-1.73-1.97-2.39-4.43-1.39-6.91.21-.52,1.04-1.08,1.6-1.12.46-.02,1.15.7,1.15,1.33,0,.47-.41,1.03-.96,1.67-1.7,2.01,5.34,8.35,7.03,9.7.94.76,2.91,1.73,3.7,1.12.6-.47,1.02-.93,1.4-1.01.42-.09,1.19.23,1.36.59s.04,1.48-.27,1.78c-1.27,1.25-3.49,1.27-5.42.24Z"/>
      <polygon class="cls-1" points="8.93 41.99 8.27 37.29 10.33 34.85 11.07 39.94 8.93 41.99"/>
      <path class="cls-1" d="M4.07,47.62c-.34,1.27-2.34,1.33-3.11.63-1.1-1.01-1.46-2.42,0-3.72l3.1,3.1Z"/>
      <path class="cls-1" d="M7.02,44.08c-.88-.82-1.61-1.64-2.43-2.72l2.56-2.94.5,3.93c.06.44-.26,1.09-.62,1.73Z"/>
      <path class="cls-1" d="M14.77,36.21l-2.6,2.76c-.34-1.99-.57-3.47-.57-5.75l3.16,2.99Z"/>
      <polygon class="cls-1" points="18.35 32.84 15.42 29.83 19.7 28.25 18.35 32.84"/>
    </g>
  </g>
</svg>