<?xml version="1.0" encoding="UTF-8"?>
<svg id="Warstwa_2" data-name="Warstwa 2" xmlns="http://www.w3.org/2000/svg" viewBox="0 0 37.86 53.19">
  <defs>
    <style>
      .cls-1 {
        fill: #fff;
      }
    </style>
  </defs>
  <g id="icon-v8-weapon-shield-pixarts-store">
    <g id="icon-v8-weapon-shield-pixarts-store_49">
      <polygon class="cls-1" points="2.56 24.63 0 23.27 2.55 22.17 2.56 24.63"/>
      <polygon class="cls-1" points="16.61 34.45 14.23 35.62 14.27 33.32 16.61 34.45"/>
      <path class="cls-1" d="M24.79,34.55l-7.34-16.1c-.19-.42-.34-.73-.56-1.17l-3.55-7.1,2.12-1.47,1.39,2.37-.77-2.28c-.05-.16.28-.6.44-.54s.64.37.75.61l4.77,10.02,6.3,13.28c.23.47-1.09,1.03-1.3.71l-1.02-1.64.67,2.2-1.89,1.09Z"/>
      <polygon class="cls-1" points="12.47 9.41 9.6 3.86 14.04 1.33 16.77 7.32 12.47 9.41"/>
      <path class="cls-1" d="M35.22,53.19l.45-1.78c-1.03,1.06-1.49,1.71-2.42,1.5s-1.96-1.92-1.01-2.5c1.36-.84,2.91-1.62,4.38-2.18,1.15.18,1.45,1.9,1.09,2.98-.27.81-1.34,1.71-2.49,1.98Z"/>
      <path class="cls-1" d="M32.48,44.9c.25-.12.68-.6.89-.89l-3.58.94c-.5-.42-.98-1.53-1.05-2.37l4.43-.46,1.33,3.04-3.02,3.25c-1.27-.97-.27-2.89,1.01-3.51Z"/>
      <path class="cls-1" d="M25.84,37.11c-.32-.44-.71-1.2-.93-1.92l4-2.08c.47.16,1,1.44.74,1.87l-3.8,2.13Z"/>
      <path class="cls-1" d="M35.91,47.86c-1.69.75-2.58,1.25-4.58,1.64,1.08-1.75,1.97-2.38,3.34-3.71l1.24,2.07Z"/>
      <path class="cls-1" d="M30.18,35.9l1.14,2.18-3.23,1.2c-.28.11-1-.08-1.26-.18-.33-.12-.72-1.23-.49-1.47.62-.65,2.12-1.4,3.23-1.56l-1.78,2.59c1.13-.21,1.59-1,2.39-2.76Z"/>
      <path class="cls-1" d="M29.18,42.24l.25-1.06-1.11,1.41-1.18-2.67,2.98-.69c.15-.03.62.45.76.39l.95-.45c.32.59.83,1.71,1.1,2.42l-3.75.65Z"/>
      <path class="cls-1" d="M10.96,1.06c.02.62-.4,1.91-.93,1.68-1.25-.56-.34-1.96.25-2.37.92-.64,2.44-.44,2.98.73l-1.15.49c-.29.12-.8-.32-1.15-.52Z"/>
      <path class="cls-1" d="M13.47,48.28c-2.04,1.11-7.97,1.11-10.23-.11l-.04-27.27c3.3-1.42,6.74-1.36,10.39-.1l-.11,27.48ZM10.05,23.22c0-.89-.72-1.6-1.6-1.6s-1.6.72-1.6,1.6.72,1.6,1.6,1.6,1.6-.72,1.6-1.6ZM7.4,29.99c.83.45,1.67.47,2,.14.42-.41.69-1.41.53-1.86s-1.15-.97-1.75-.91c-.5.05-1.23.57-1.42.95s.27,1.48.64,1.68ZM9.2,35.84c.63-.11.96-1.68.62-2.14-.41-.54-1.41-.83-2.1-.65-.65.17-1.19,1.22-.87,1.99.26.64,1.34.98,2.36.79ZM11.99,37.02c0-.49-.33-1.51-.48-1.92-.16,2.17-.46,4.09.43,6.14l.05-4.22ZM9.87,40.75c.31-.86-.12-1.82-1.14-2.09-.58-.15-1.35.17-1.85,1.02-.34.59.1,1.46,1.05,1.93.5.24,1.68,0,1.69-.54l-1.83-.03c-.42,0-.36-1.27-.19-1.66s1.25-.42,1.46-.05l.81,1.41ZM7.66,44.56c-.78.48-1.14,1.79-.58,2.23.66.51,1.64.65,2.27.37.53-.23.78-1.55.44-2.04-.32-.47-1.62-.87-2.13-.55Z"/>
      <path class="cls-1" d="M13.56,19.88c-3.45-.67-6.34-.98-9.98.04-.32-2.65,8.96-3.34,9.98-.04Z"/>
      <path class="cls-1" d="M13.56,49.22c-.54,2.71-9.86,2.75-10.18,0,3.44.71,6.61.74,10.18,0Z"/>
      <path class="cls-1" d="M8.65,6.71l-.6-.61c-.12-.12-.41.51-.43.7l-.62,4.61c-1.71.34-1.08-6.53,1.05-6.52.4,0,1.2.45,1.46.76l.71.86c.14.17-.42.66-.64.7-.28.05-.69-.26-.93-.51Z"/>
      <path class="cls-1" d="M8.33,15.67c-.86-2.04-.94-4.18-.07-6.2.96,2.02,1.26,4.22.07,6.2Z"/>
      <path class="cls-1" d="M9.69,11.67c-.49-1.47-.45-3.22.92-4.34.42,1.38-.07,3.07-.92,4.34Z"/>
      <polygon class="cls-1" points="16.91 23.44 14.24 24.47 14.24 22.16 16.91 23.44"/>
      <polygon class="cls-1" points="16.76 28.94 14.26 30.07 14.23 27.73 16.76 28.94"/>
      <circle class="cls-1" cx="8.42" cy="28.78" r="1"/>
      <path class="cls-1" d="M8.3,22.03c.33-.08,1.03.48,1.11.81.1.41-.04,1.3-.46,1.32-.55.02-1.38-.22-1.51-.61-.16-.48.35-1.39.87-1.51Z"/>
      <circle class="cls-1" cx="8.45" cy="45.81" r="1.01"/>
      <circle class="cls-1" cx="8.43" cy="34.43" r="1.06"/>
    </g>
  </g>
</svg>