<?xml version="1.0" encoding="UTF-8"?>
<svg id="Warstwa_2" data-name="Warstwa 2" xmlns="http://www.w3.org/2000/svg" viewBox="0 0 38.43 54.06">
  <defs>
    <style>
      .cls-1 {
        fill: #fff;
      }
    </style>
  </defs>
  <g id="icon-v8-weapon-shield-pixarts-store">
    <g id="icon-v8-weapon-shield-pixarts-store_89">
      <path class="cls-1" d="M21.69,52.23c-.46.62-1.7,2.27-2.55,1.71-1.61-1.08-3.09-2.22-4.49-3.29l-.31.8c-.19.49-2.83-3.72-4.04-4.87l-2.59-2.47c-1.18-2.26-2.29-4.33-4.06-6.09-.54-.54-.91-1.19-1.11-1.87l1.48.61-1.13-5.7c1.43.31.6,1.21,1.08,1.75-.14-1.37-.19-2.32-.14-3.49l.2-4.49c-1.22.95.64,5.31-1.2,6.28-.18-2.92-.14-5.31-1.03-7.79-.23-.88.03-1.63.42-1.61.26-1.72-.46-3.97-1.61-5.66-.26-.76-.45-1.9-.59-2.86.97,1.05,1.4,2.16,1.73,3.61.26.06.48.13.45.03-1.05-2.89.5,0-.18-4.56l-.48-3.26c-.1-.66-.42-1.56.03-2.18,1.1-1.54,2.17.07,4.16-.56.85-.64,1.59-.84,2.34-.75,3.2.38,3.8-4.36,5.32-3.12l-.56.65c-.16.19-.16.99-.11.94l2-.77c3.39-1.31,1.99-2.27,4.39-3.21l2,1.17-1.79.11,2.55.97c.12.05.45-.3.49-.41s.37.66.49.71l4.02,1.56-1.51-1.76c1.84.07,2.06,1.52,3.11,2.31l2.98,1.43-2.35-.07c2.4,1.74,4.86-1.23,8.34.75-.71,2.76-2.42,2.98-2.03,6.7l1.17-4.08.05,4.12-.22,3.18c.58-1.01.98-1.72,1.89-2.51.93,2.35-2.27,2.98-1.72,5.95.36,1.9-.06,3.52-.23,5.35-.08.89-.09,1.84-.26,2.75-1.33,7.18.2,3.34-2.38,9.84l-1.32,3.32c-.82,2.06-1.42,3.89-3.86,4.56l-2.11,2.78c-.94,1.24-1.81,2.18-3.24,2.77l-.06-1.13-1.41,1.87ZM26.34,5.02c-2.16-1.13-4.25-1.59-6.49-1.9,2.11.93,4.25,1.53,6.49,1.9ZM19.35,50.65c2.98-1.55,4.93-3.23,6.88-5.53.67-.79,1.69-1.55,2.29-2.5,2.38-3.72,4.32-7.86,4.93-12.34.33-2.44.66-4.84.62-7.3l-.08-4.17c-.06-3.28.43-6.41.12-9.74-2.2-.59-4.39-.72-6.31-1.54l-4-1.72c-1.52-.65-3.34-2.08-5.13-1.76-1.72.31-3.42,1.84-4.95,2.57-.41.2-1.56.2-2.1.19-.27,0-.79.51-1.09.6l-6.06,1.92c-.05,6.95-.08,13.36.49,20.11.25,2.96,1.53,5.74,2.49,8.46,1.14,3.25,3.2,5.78,5.66,8.04l2.53,2.32c1.08.99,2.22,1.85,3.71,2.39ZM31.92,39.4c.95-.27,2.8-5.88,2.5-6.63l-1.9,5.09-.6,1.54ZM8.82,42.59l-2.1-4.22-2-4.3c-.05,1.77.87,3.37,1.78,4.86.68,1.38,1.25,2.69,2.33,3.66Z"/>
      <path class="cls-1" d="M6.51,29.1l.52-.41c.07-.05,0-.09-.08-.14l-.69-.4,7.69-2.33c-2.58-1.23-5.53-.91-8,.38l-.58-.48c1.07-.41,1.88-.76,2.77-1.32-1.93-.99-3.14-1.96-2.67-4.07,1.18,2.37,2.9,3.65,5.49,3.01-1.83-3.35-3.97-2.1-5.8-6.86l1.42,1.2-.36-2.3c-.02-.15.05-.65.07-.81s.51.03.5.19l-.03.65c-.08,1.59-.17,3.29,1.69,4.19l-.1-4.26c1.86,3.25-.05,3.58,2.29,6.14,3.6,3.92,5.42,1.89,6.1,3.9.35,1.02.27,1.81-.11,3.25l-1.1-.97c-.47-.41-1.2-1.09-1.77-1.06-.5.03-1.31.64-1.83.76-1.76.39-4.06,1.42-5.54,2.44-.13-.04-.46-.22-.39-.28l.52-.42Z"/>
      <path class="cls-1" d="M24.73,25.72c4.24.99,4.06,2.07,7.9,3.17l-.59.94-4.46-2.37c-.46-.24-1.42-.4-2-.64-1.25-.52-3.34.58-3.58,1.91-.42,2.34-1.33,4.19-2.56,6.14-1.13,1.79-.42,4.07-.84,5.94-.25,1.12-2.05,1.89-1.2,3.43.8,1.46,1.54,3.17.79,4.84l-.76-3.38-1.22-1.81-.93,3.19c-2.34-.91,1.69-6.11,2.11-7.28-1.49,1.46-2.74,3.61-5.14,2.65,3.07-1.46,4.91-3.17,4.98-6.38-2.1,3.82-5.5.24-5.55,8-1.26-3.65-1.2-2.93.47-5.85l-3.82.88c-.04-3.17,8.42.28,8.37-6.63-.03-4.06,1.59-7.48-.95-11.01-1.48-2.06-4.54.17-5.39-3.62,1.38.25,2.32.62,3.46,1.41l-1.21.45,2.85.39c-2.72-5.38-1.86-2.34-6.75-5.81-1.45-1.03-3.16-1.92-3.6-3.66l2.37,1.77-.8-2.66.7-.4c.21-.12,1.05.79-.05.54.53,4.36,3.6,3.97,6.77,6.14l-2.74-3.56-2.36-2.09.74-.14c.19-.04.35-.56.34-.77l-.02-.77c0-.13.39-.33.43-.21l.18.61c.31,1.06.45,1.74,1.38,2.71.5-1.52.56-2.5.84-4.22,1.39,1.8-1.34,5.32,1.39,6.65l.83-2.1c1.18-3-1.54-4.33-.06-4.8l1.09,2.45,2.09-4.55c1,3.96-4.35,6.18-2.28,11l2.1-2.71c.47-.61-.09-2.17.05-3.22l1.04,2.26,1.64-2.82c.03,1.09-.09,2.35-.75,3.17l-2.62,3.25c-.61.75-.02,2.45.4,3.19l1.3,2.28c.48-.85,1.11-1.78,1.79-2.38,2.6-2.29,3.25-6.03,1.06-8.81-1.16-1.47-2.69-3.25-1.61-5.29.47,1.85.87,3.48,2.2,4.84l.48-3.52.92,1.32c.4.57-1.83,2.3-.23,3.97l1.58-2.18c.37.02.64.09.7-.05l.39-.83.3.68c.32.71-1.43.75-2.03,2.81l-1.04,3.57.64-.98.41,1.33c1.56-.93,2.64-2.66,2.73-4.49l.17-3.25.73,2.23,1.73-1.13c-.73,2.19-2.07.44-2.05,4.44,2.17-.38,2.5-2.17,3.63-4.37.02.71-.12,1.27-.3,2.58l2.2-1.38c-.1.6-.52,1.36-1.01,1.68l-2.92,1.91-3.78,2.57-2.44,1.92c-.91.71-2.13,1.06-2.04,2.43.02.24-.12.91.05.95l.65.17-.42,2.66c2.76-.65,4.58-1.87,6.49-3.68,2.84-2.69-.06-3.61,2.13-6.34l-.13,4.54,3.09-3.11c-1.11,4.12-3.28,3.3-5.82,6.67,2.29.8,4.34-.25,5.66-2.49.53,1.85-.82,2.62-2.47,3.91l2.44,1.18c-.37,2.18-3.57-2.92-8.27,0Z"/>
      <path class="cls-1" d="M22.87,37.41l.39,1.45c-1.69-.85-1.64-2.26-1.86-3.86-1.58,1.57,1.64,8.16,2.58,9.95.42.79.31,1.87-.52,2.16l-.9-2.86c-2.87,1.84-1.1,3.88-2.45,5.1-1.17-4.84,2.89-4.63.31-8.41-1.63-2.39-1.57-5.17.34-7.29l1.17-3.18.34,5.87.31-1.66c2.31,4.52,6.76,1.37,7.75,4.14l-4.23-.57,1.48,1.81c.72.88,1.05,2.01-.22,2.9l-.92-2.55c-.66-1.83-2.11-1.35-3.56-2.99Z"/>
      <path class="cls-1" d="M29.03,32.72l-1.68-1.34c-.86-.69-.91-2.32.1-2.82.59.13,1.5.73,1.72,1.24.28.66.18,1.83-.14,2.93Z"/>
      <path class="cls-1" d="M11.72,29.3c1.11.34-1.24,3.02-2.1,3.47-.85-2.26-.21-3.59,1.61-4.31.13-.05-.02.43-.08.67l.57.18Z"/>
      <path class="cls-1" d="M27.26,18.73c.12,1.28-.36,2.43-1.71,2.99-.13-.6-.44-2.48.9-3.56.16-.13.78.26.81.56Z"/>
      <path class="cls-1" d="M26.24,44l-1.82-1.45c-.65-.52-1.23-1.08-1.57-1.62,2.08,0,3.23,1.12,3.4,3.06Z"/>
    </g>
  </g>
</svg>