<?xml version="1.0" encoding="UTF-8"?>
<svg id="Warstwa_2" data-name="Warstwa 2" xmlns="http://www.w3.org/2000/svg" viewBox="0 0 37.9 54.66">
  <defs>
    <style>
      .cls-1 {
        fill: #fff;
      }
    </style>
  </defs>
  <g id="icon-v8-weapon-shield-pixarts-store">
    <g id="icon-v8-weapon-shield-pixarts-store_10">
      <path class="cls-1" d="M27.23,15.8c-4.35,4.4-6.34,11.76-13.12,13.36.19,1.11-.45,5.72-2.16,4.55,1.09-2.06.62-4.15-.19-6.26,3.9-.11,8.21-6.87,10.26-9.9.57-.84,1.15-1.21,2.3-1.19l-.16-1.78c2.09-3.19,4.19-6.28,6.49-9.36,1.81-2.43,4.28-4.1,7.25-5.23.02,3.59-.87,6.73-2.77,9.74-1.55,2.46-3.62,5.41-5.29,7.67-.15.2-1,.27-1.01.48s0,.74,0,.99c-2.45,3.92-7.67,11.15-6.71,15.93-2.33-.34-4.65.21-5.81,2.39-.91-2.43,1.53-3.42,3.24-4.1.22-2.92.39-6.1,2.21-8.65l5.47-8.65Z"/>
      <path class="cls-1" d="M21.23,41.76c-3-2.12-2.78-.57-5.83-1.96l-.05-2.73c.51.82,1.02,1.58,1.62,2.02.91.66,2.11.4,2.97.25,1.25.83,2.52,1.56,4.15,2.28-2.37,1.62-5.39,2.58-8.4,2.67.21-.56.56-1.55.35-1.98-.63-1.31-2.65-1.51-3.68-.52l-.72-.99c-.33-.46-1.58.9-1.69.52l-.23-.79c-.07-.24.07-1.26-.18-1.22l-1.24.18c.48-1.11.1-3.19-1.35-3.53-.63-.15-1.35.45-1.95,1.14-.92-2.9-1.09-6.01-.06-8.93,1.19,1.44,2.33,2.56,3.56,3.29-.03.76.12,1.86.6,2.31.75.71,1.63.72,3.01.89-.81.62-2.68,1.21-3.59.54-.57-1.75-1.08-3.26-3.02-4.19-.22,1.42-.22,2.59.04,3.81,2.1-.29,3.14.96,3.87,2.72l.51-1.21,4.71-2.08.12,5.08-1.31,1.26c1.03-.27,1.67-.29,2.55.12.78.37,1.04,1.26,1.41,2.37,1.18-.14,2.58-.64,3.83-1.32ZM10.76,39.83l2.92-.85-.1-3.06-2.78.86-.04,3.05Z"/>
      <path class="cls-1" d="M15.45,35.5l-.26-1.81c-.04-.29-.76-.19-1.2-.17.39-1.06.68-2.31.83-3.7,1.59-.57,3.34-1.63,4.79-2.8l-.72,5.54c-1.39.62-2.88,1.5-3.44,2.94Z"/>
      <path class="cls-1" d="M6.19,48.78c-.55-.55-1.35-1.6-1.57-2.17l3.08-4.84,1.34,3.02-2.85,3.99Z"/>
      <path class="cls-1" d="M5.3,52.6c.19.16.24,1.29,0,1.26l-1.16-.14c-.98-.11-2.34.46-3.47.94.14-1.7-.05-3.25-.66-4.78-.06-.26,1.2-.72,1.44-.46l.7,3.03c.91-.24,2.58-.34,3.16.15Z"/>
      <path class="cls-1" d="M5.71,50.84c-.51.75-2.05,1-2.74.38s-1.24-2.03-.18-2.72c.62,1.21,1.44,1.84,2.91,2.34Z"/>
      <path class="cls-1" d="M9.46,44.27l-1.2-2.88c-.13-.31.43-1.22.61-.99.2.27.15,1.25.48,1.3l1.76.25-1.65,2.32Z"/>
      <path class="cls-1" d="M5.39,49.69c-.52,0-1.05-.11-1.29-.38-.37-.4-.49-1.45-.13-1.81.77.27,1.24,1.17,1.42,2.18Z"/>
      <path class="cls-1" d="M11.56,38.72c-.2-.22-.36-1.08-.17-1.31s.9-.43,1.29-.5c.42-.08.54,1.11.34,1.46s-1.18.65-1.46.35Z"/>
    </g>
  </g>
</svg>