<?xml version="1.0" encoding="UTF-8"?>
<svg id="Warstwa_2" data-name="Warstwa 2" xmlns="http://www.w3.org/2000/svg" viewBox="0 0 46.32 48.91">
  <defs>
    <style>
      .cls-1 {
        fill: #fff;
      }
    </style>
  </defs>
  <g id="icon-v8-weapon-shield-pixarts-store">
    <g id="icon-v8-weapon-shield-pixarts-store_159">
      <path class="cls-1" d="M26.43,25.24c1.73-.67,3.17-2.32,4.67-3.66.31-.28,1.43.84,1.07,1.16-2.1,1.82-4.49,3.73-6.83,5.2-2.05,1.29-3.79,2.41-5.54,4.14-.33.32-.97.4-1.49.05l4.48-4.26c-2.45.22-5.14,5.71-5.96,2.55,1.54-2.06,3.41-4.28,4.48-6.73l-4.75,5.73c-.17.21-.75.37-.96.31-.26-.07-.18-.84.02-1.06,1.37-1.57,2.33-3.12,3.32-4.93,1.57-2.88,3.6-5.86,5.38-8.43.23-.33,1.42.15,1.2.5-.96,1.54-2.74,3.43-3.21,5.41l3.73-5.07.98.98c-.84,1.03-1.39,1.64-2.15,2.87l2.53-2.3c.39-.12,1.4,1,1.47,1.64-2.69,3.19-5.35,4.78-7.87,8.05,2.22-.69,3.14-2.59,4.69-4.15,1.1-1.12,2.61-2.43,3.74-3.4.39-.04,1.31.92,1.05,1.19l-4.04,4.22Z"/>
      <path class="cls-1" d="M41.36,14.4l-9.27-9.19c1.01-1.28,2.22-2.62,3.59-3.99,3.26,2.99,6.21,5.85,9.1,9.17l-3.42,4.01ZM40.43,7.76c0-1.09-.88-1.98-1.98-1.98s-1.98.88-1.98,1.98.88,1.98,1.98,1.98,1.98-.88,1.98-1.98Z"/>
      <path class="cls-1" d="M33.92,21.97l-8.77-8.51,3.37-3.85c3.27,2.83,6.1,5.66,9.04,8.92l-3.63,3.43ZM33.25,15.78c0-1.08-.88-1.96-1.96-1.96s-1.96.88-1.96,1.96.88,1.96,1.96,1.96,1.96-.88,1.96-1.96Z"/>
      <path class="cls-1" d="M5.55,47.06l.85-.86c.16-.16.61.09.96.29-.44,1.09-1.73,2.66-2.91,2.39-.59-1.03-3.15-.47-3.15-1.58v-2.03s-.61.59-.61.59c-.16.15-.62-.36-.66-.62-.22-1.6,1.03-3.33,2.94-3.15l-1.21,2.49,1.82-1.28c.17-.12.75.52.67.73l-.5,1.26.99-.52c.27-.14.96.21.97.52s-.27,1.06-.48,1.29l-.48.51c-.09.1-.08.41.04.36s.67-.29.78-.4Z"/>
      <path class="cls-1" d="M43.6,7.17l-4.37-4.14c1.02-.5,2.06-1.09,2.8-1.21,1.69-.27,2.38,1.6,2.32,2.82-.04.93-.16,1.4-.75,2.53Z"/>
      <path class="cls-1" d="M7.77,45.49c-1.61-1.47-3.12-2.93-4.41-4.5.1-.59,1.38-1.19,1.73-.84l3.2,3.23c.21.22.71.82.54,1l-1.06,1.11Z"/>
      <path class="cls-1" d="M35.4,14.43l-2.78-2.76c.43-.8,1.11-1.49,1.97-2.2l2.65,2.52-1.83,2.44Z"/>
      <path class="cls-1" d="M9.76,41.64c.19.38-.04,1.2-.3,1.42l-3.55-3.65c.53-.57,1.19-1.17,1.88-1.74l1.97,3.97Z"/>
      <path class="cls-1" d="M17.02,34.72l-3.65-3.36c0-.4.72-1.26,1.13-1.31l3.29,3.11c.19.18.31.91.31,1.16s-.88.58-1.08.39Z"/>
      <path class="cls-1" d="M10.09,35.52c.57.54,2.09,5.82.6,5.87-.76-1.32-1.55-2.96-2.05-4.28-.14-.42.84-1.35,1.45-1.59Z"/>
      <path class="cls-1" d="M38.83,2.5l-2.1-1.88c1.98-.83,3.43-.91,5.18.3l-3.08,1.58Z"/>
      <path class="cls-1" d="M45.6,9.14c-.27.06-1.43-.91-1.32-1.35l.79-3.21c1.09,1.36,1.36,2.89.52,4.57Z"/>
      <path class="cls-1" d="M12.42,39.41l-.71-2.95,1.53.28-2.75-1.84,1.48-1.71c.62.84,1.5,2.25,1.86,3.06.07.15-.82.63-.7.73l.97.8-1.68,1.63Z"/>
      <path class="cls-1" d="M16.32,35.31c-.2.48-1.06,1.28-1.33,1.27l-2.47-4.2c1.35.91,2.51,1.82,3.8,2.93Z"/>
      <path class="cls-1" d="M46.32,15.33c-1.05-.13-2.21-.58-3.22-1.09l1.91-2.2,1.31,3.29Z"/>
      <path class="cls-1" d="M30.69,10c-.37-.36-.87-.89-.95-1.21s.44-1,.69-1.25l.98-.97c.21-.21.96.77.81,1.01-.35.58-1.01,1.58-1.54,2.42Z"/>
      <path class="cls-1" d="M31.98,11.02c-.16.02-.81-.49-.69-.71l.68-1.28c.17-.32.89-1.28,1.16-1.03s.9.94,1,1.09l-2.15,1.93Z"/>
      <polygon class="cls-1" points="26.92 9.47 25.24 11.41 23.69 8.23 26.92 9.47"/>
      <polygon class="cls-1" points="33.87 1.34 32.09 3.36 30.65 .06 33.87 1.34"/>
      <path class="cls-1" d="M37.08,16.14l1.86-2.32-2.46,1.63c0,.1-.69-.61-.54-.78l1.8-2.15,2.18,2.64-1.76,1.99-1.08-1.01Z"/>
      <polygon class="cls-1" points="38.35 23.15 35.48 21.88 37.42 20.24 38.35 23.15"/>
      <circle class="cls-1" cx="31.3" cy="15.61" r=".95"/>
    </g>
  </g>
</svg>