<?xml version="1.0" encoding="UTF-8"?>
<svg id="Warstwa_2" data-name="Warstwa 2" xmlns="http://www.w3.org/2000/svg" viewBox="0 0 39.49 54.93">
  <defs>
    <style>
      .cls-1 {
        fill: #fff;
      }
    </style>
  </defs>
  <g id="icon-v8-weapon-shield-pixarts-store">
    <g id="icon-v8-weapon-shield-pixarts-store_93">
      <path class="cls-1" d="M31.68,42.38c-.5,1.42-1.29,2.65-2.32,3.58l-.44.4c-.11.1-.38-.32-.58-.57l-.8,2.02c-.72,1.81-1.75,2.81-3.33,3.86-1.35.9-2.31,2.52-3.76,3.26l2.15-2.79c.24-.31.35-.78.36-1.48-1.31.93-2.23,1.76-3.52,2.94l-4.04-3.33,3.22,3.72c-4.5-1.65-6.46-6.96-8.54-7.99-2.04-1.01-1.24-2.98-1.91-4.37-.81-1.69-1.82-3.52-2.85-5.05l-2.16-3.21c-.58-.87-1.26-1.61-1.49-2.67,3.22.57,1.87,3.76,3.25,3.58.35-1.55-.4-4.71-.41-4.63.25-2.76-1.01-5.8-.41-8.83,1.41,1.85.69,3.7,1.41,5.32l-.03-4.27c1.61.66.89,1.88,1.18,2.98,1.81,6.82-1.56,5.08,4.05,16.21,2.16,4.29,5.24,7.52,9.2,10.17l1.67-1.3c3.88-3.03,6.8-6.79,8.34-11.52,1.62-4.96,4.14-3.52,3.58-7.18-.31-1.99-1.76-9.45.68-9.42-.06,1.7-.36,3.16-.28,4.63.14,2.26,2.28,5.95.16,8.08l1.35.04c-1.32,2.75-3.41,1.37-4.01,5.8.6-1.15,1.02-1.96,1.92-2.76l-1.67,4.75Z"/>
      <path class="cls-1" d="M22.05,18.34c-.55-2.07-3.51-5.57-3.51-6.26,0-.11.26-.3.32-.22l.35.44c.18.23.39.62.52.51l.71-.64c-.81,2.69.88,1.18,1.91,5.83,1.53-5.09.61-5.96-2.28-10.03-.68-.96-1.1-2.36-.24-3.1.14.91.28,2.04.65,2.59l1.5,2.25.02-3.19c0-.09.12-.47.21-.46h.33c.48.01-.68,2.85.69,4.91.62-1.1,1.18-2.19,2.44-2.53-1.69,1.73-2.36,3.73-.94,5.74l-1.19,3.76c1.09-1.1,1.48-2.48,2.06-3.95.77-1.98,1.31-3.91.85-6.06-.51-2.37-1.86-6.32.33-7.25-1.07,1.63.44,7.04,1.04,9.24,1.66-1.43,2.8-2.66,3.86-4.16l-.27-3.72.75,1.12c-.15-1.38.71-2.49,2.01-3.04.54,4.62-2,1.25-1.96,5.05l1.65-.56-2.89,3.93c-2.41,3.28-2.61.2-5.81,10.24.95-1.15,2.27-1.69,3.85-2.04s5.65-2.06,5.76-3.54l.25-3.35c.13-1.76-3.83-1.86-2.18-2.98.65-.44,2.56.19,2.95.9.75,1.36.08,2.91-.05,4.26,1.4-2.16,1.61-4.81,1.54-7.12l.61.68,1.64-1.39c-1.2,1.72-1.88,3.24-2.17,5.42s-1.69,4.54-3.38,6.02c-1.45,1.26-3.44,2-5.17,2.44-2.91.74-4.33,2.62-6.28,4.56l-4.58,4.58-1.86-2.07,4.72-4.56c.44-.42,1-1.57,1.28-2.28Z"/>
      <path class="cls-1" d="M16.73,22.35c-1.48-2.14-3.78-3.57-6.24-4.46l-4.39-1.59c.31.83.53,1.83.61,2.79-.36,0-1.08-.1-1.14-.31-.08-.27-.09-.68-.12-1.44,0,0-.2.26-.5.62-.92-.75-1.65-1.8-1.42-3.32l1.8,2.29.16-.42c.04-.11.21-.17.58-.38C3.35,13.85,1.69,10.65,1.82,7.02c-.68-.91-1.12-1.48-1.79-2.87l1.51,1.38.53-1.23c-.36,5.15,1.48,10.4,7.4,12.06,1.59.45,3.16,1.22,4.58,1.95l-.97-3.3c-.79-2.67-2.24-4.72-4.53-6.36l-1.59-3.02-2.63-1.63c1.22.06,1.96.62,3.12,1.24.21-1.59.58-2.95,1.46-4.29l.69,1.16c.14.24.22.98,0,1.16-.26.21-.89.24-1.18.19-1.38,2.84,1.31,5,3.51,6.42l.97-4.76c.24-1.2-.04-2.68-.16-4.07,2.85,2.59-2.2,8.29,2.06,13.59.73-2.37,1.38-4.24-.95-6.38,1.67.17,2.45,1.72,2.16,3.3l1.4-2.89-.51-2.71c1.13.49,1.09,1.45,1.21,2.26l1.37-.79c-1.82,2.54-3.47,4.92-2.77,8.07l.7,3.18,1.49,1.63c.25.28.47,1.33.13,1.47-.41.17-1,.37-1.43.51l-.34.46c-.07.1-.46-.29-.54-.41Z"/>
      <path class="cls-1" d="M22.31,48.37l-.65-2.33c-.14,1.28.34,2.04-.09,3.14-1.81-6.56-4.51-8.57-8.63-13.61.03-.92.77-2.03,1.44-2.53l3.54,4.05c.88,1.01,7.16,8.17,6.07,9.82l-1.16-1.41.31,1.64c.07.36-.6.96-.85,1.23Z"/>
      <path class="cls-1" d="M14.78,24.96c.82.74,4.14,4.3,4.52,4.81.28.37-1.61.79-1.75,1.79-1.44-1.46-3.13-3.1-4.56-4.76-5.08-5.88-4.52-2.39-9.52-7.59-3.02-3.14-1.28-2.46-3.46-7.62,1.23.92,1.72,4.45,2.93,5.57,2.27,2.1,4.78,3.45,7.55,4.99l-.4-3.5c1.06,1.29,1.29,2.5,1.76,3.89s2.1,1.67,2.93,2.42Z"/>
      <path class="cls-1" d="M29.76,31.94l-3.7,4.09-4.17,4.73-1.76-2.03,8.08-9.13,3.78-4.47c-.12.85-.42,1.19-.97,2.24l.98-.66-.34,2.31c-.14.93-1.14,2.07-1.9,2.93Z"/>
      <path class="cls-1" d="M25.9,27.27c-.3-.04-.5-.92-.42-1.29l-.64.06c-.16.01-.51-.28-.47-.43.32-1.13,3.17-1.78,4.41-5.51.15-.44.77-1.03,1.09-1.19l-.8,3.24c4.39-1.9,7.45-4.27,9.19-8.36.73,2.01-1.01,2.66-1.83,4.99,1.32.18,1.93-.46,2.71-1.44-.59,3.01-1.89,1.05-4.57,3.12l-2.33,1.81-6.35,5.02Z"/>
      <path class="cls-1" d="M25.79,6.77c-2.26-.23-3.79-2.56-6.12-3.18l-5.52,3.29c-.18-.17-.34-1.14-.09-1.33l1.06-.8c-.13.08-.97-.56-.87-.87L19.72.43l5.51,3.6c-.65,1.03-1.51.03-2.43.04,1.11.78,2.46,1.01,2.99,2.7Z"/>
      <path class="cls-1" d="M10.33,35.9l-.33,1.39c-.81-1.08-.14-1.85.09-3.17l-.81,1.62c-1.27-1.5,2.82-6.22,3.92-7.35l1.84,1.91c-2.56,3.39-3.54,5-4.32,9.42-.28-1.35-.3-2.36-.4-3.83Z"/>
      <path class="cls-1" d="M25.3,31.69l-4.24-4.91c-.15-.17-.44-.63-.53-.78-.1-.17.36-.35.55-.49.27-.49.81-1.19,1.33-1.33l4.85,5.64-1.95,1.87Z"/>
      <path class="cls-1" d="M18.23,36.21l-1.88-1.9,4.93-6.01,1.57,1.94c-1.97,1.83-3.07,3.35-4.63,5.97Z"/>
      <path class="cls-1" d="M25.97,44.22l-.47-1.64-.36,2.67-1.29-5.16,1.93-2.04c1.69,1.8,1.99,6.3.68,4.28l-.5,1.9Z"/>
      <path class="cls-1" d="M14.43,45.28c-1.29-1.19-1.32-2.4-1.26-3.58l-.35.62c-.09.15-.59-.56-.52-.74l1.23-3.42,2.02,2.36-1.12,4.77Z"/>
      <path class="cls-1" d="M17.28,46.79l-.86,1.25c-.04-1.11.09-1.78.28-2.85-.32.56-.67,1.1-1.2,1.68,0-1.89.92-2.95,1.96-4.35.54.42,1,1.61,1.07,2.2.02.13.33.22.42.33.11.14.03.63-.03.84l-.91,3.26c-.45-.95-.65-1.65-.74-2.35Z"/>
      <path class="cls-1" d="M28.9,39.26l-1.08-4.18,2.18-2.11c.68,1.16.9,3.92-.59,2.99.47,1.24.24,2.08-.5,3.3Z"/>
      <path class="cls-1" d="M6.11,11.36l.04,2.72c-1.63-1.4-1.33-4.22-.37-5.44.21-.26,1.09-.58,1.39-.64s.68.68.74.92c-1.18.46-1.81,1.21-1.8,2.44Z"/>
      <path class="cls-1" d="M7.61,25.93c.95,1.1,4.6,3.92,2.83,4.87-1.58.85-2.49-3.07-2.83-4.87Z"/>
      <path class="cls-1" d="M4.7,9.35l-.12,3.17c-1.02-1.62-1.2-3.44-.91-5.15l3.43-.74c-.45,1.66-2.05,1.91-2.89,1.27.09.35.5,1.26.5,1.46Z"/>
      <path class="cls-1" d="M29.17,8.06c-.22.28-1.41-.25-1.5-.6-.11-.42.02-1.12.18-1.59l-.55-1.51,3.42,1.78-1.54,1.93Z"/>
      <path class="cls-1" d="M23.01,34.23c-.43.78-1.05,1.79-1.76,1.73-.53-.04-1.18-1.35-1.25-1.83l1.32-1.89,1.7,1.98Z"/>
      <path class="cls-1" d="M34.68,28.49c-.88-2.77-.28-5.4.93-7.75.06,2.75-.32,5.19-.93,7.75Z"/>
      <path class="cls-1" d="M35.94,30.85c-.66-1.7,0-3.62,1.67-4.66.54,1.82.31,3.56-1.67,4.66Z"/>
      <path class="cls-1" d="M33.47,13.62l-.04-2.97c0-.63-.95-1.16-1.75-1.82.2-.2.78-.53,1.1-.52.37,0,1.2.48,1.35.86.53,1.31.35,3.21-.65,4.45Z"/>
      <path class="cls-1" d="M27.68,16.36c-.45-1.73.38-3.22,1.92-3.81.65,1.44.06,3.4-1.92,3.81Z"/>
      <path class="cls-1" d="M12.19,16.32c-1.87-.05-2.38-1.96-2.04-3.61,1.51.5,2.23,1.78,2.04,3.61Z"/>
      <path class="cls-1" d="M7.17,3.34c-1.29-.07-1.93-1.78-1.32-3.34.98.5,2,1.95,1.32,3.34Z"/>
      <path class="cls-1" d="M32.51,28.27c.6,1.7,1.25,5.02-.69,6.14l.69-6.14Z"/>
      <path class="cls-1" d="M10.77,28.06c-.98-.71-1.65-1.8-1.96-3.21,1.48.34,2.78,1.38,1.96,3.21Z"/>
      <path class="cls-1" d="M14.21,23.35c-.94-.51-1.6-1.89-1.32-2.88,1.35-.14,2.04,1.64,1.32,2.88Z"/>
      <path class="cls-1" d="M8.59,12.27l.74,3.42c-1.26-1.36-1.9-2.7-2.37-4.51l1.07,1.48.57-.39Z"/>
      <path class="cls-1" d="M12.15,4.54c.74-.23-.59,1.8-2.84,2.31-.53.12-.6-1.24,2.84-2.31Z"/>
      <path class="cls-1" d="M25.91,23.35c-1.06-1.05-.25-2.68,1.01-3.2.06,1.11-.2,2.13-1.01,3.2Z"/>
      <path class="cls-1" d="M30.59,15.45l.42-2.07c.19-.93.58-1.81,1.2-2.53.19,1.01-.29,1.58-.49,2.34-.21.81-.02,1.63-1.14,2.26Z"/>
      <path class="cls-1" d="M11.71,6.06c.53.51.07,2.05-.78,2.31-.34.11-1.31-.61-1.06-.87.4-.43,1.26-1.06,1.84-1.44Z"/>
    </g>
  </g>
</svg>