<?xml version="1.0" encoding="UTF-8"?>
<svg id="Warstwa_2" data-name="Warstwa 2" xmlns="http://www.w3.org/2000/svg" viewBox="0 0 44.84 47.78">
  <defs>
    <style>
      .cls-1 {
        fill: #fff;
      }
    </style>
  </defs>
  <g id="icon-v8-weapon-shield-pixarts-store">
    <g id="icon-v8-weapon-shield-pixarts-store_149">
      <path class="cls-1" d="M9.71,46.02c-.73,1.57-4.36-2.1-4.97-2.76l-3.19-3.46c-.17-.18-.38-.94-.22-1.07l.78-.61,1.47,2.9c.41-1.35.12-2.56-.44-4.03,1.78-.04,3.91.29,5.41-.36,5.07-2.22,7.31-7.86,5.48-12.98l2.32-2.6,1.85.19c.43.04,1.17.69,1.18,1.1,0,.47-.71,1.27-1.03,1.42l-1.06-1.75c-.08.93,0,1.76.28,2.45.55.31,1.89-.29,2.21-.84.3-.52.26-1.92-.34-2.52-.46-.47-1.18-.51-2.58-.83l2.44-3.1c2.01,2.37,2.35,5.03,1.05,8.42l3.8-.9c1.59-.38,3.3.64,4.99,1.46l-2.6,2.59c-.49-1.41-.7-2.2-1.55-2.76-.54-.36-1.76-.13-2.43.42-.61.49-.81,1.81.09,2.37.05-1,.2-1.97.8-2.16,1.16-.37,2.01.23,2.32,1.28.13.43.28,1.09.3,1.4s-.84.61-1.06.85l-1.71,1.87c-6.99-1.77-12.48,3.07-13.6,9.59l.39,3.1-3.04-1.25c.58,1.45,1.64,1.7,2.66,2.59ZM19.57,29.34l.38-3.2-3.21.97-.43-4.72-.76.74c.9,2.55.67,5.14-.06,7.93-.03-.31,10.08-1.45,5.54-1.65l-1.46-.06ZM5.37,41.98l2.88-.19,1.17-3.94-3.7.95-.35,3.17Z"/>
      <path class="cls-1" d="M13.19,38.05c-1.9,1.76.46,4.02-2.19,5.36-.91-2.59.11-4.96,1.58-7,2.24-3.12,5.86-4.7,9.73-3.62l-7.24,6.84c-.81.46-1.31.89-1.95,1.54l.08-3.12Z"/>
      <path class="cls-1" d="M44.57,4.72l-2.41,1.32,1.04,1.91-1.28-.58c-1.11.81-2.7,1.9-3.97,2.12-1.53.26-2.44-1.22-2.66-2.34s.13-2.74,1.39-3.21c3.25-1.21-.22-3.48,3.57-3.93l-1.37,2.74,1.32-.95.28,2.26,3.49-.19c.14,0,.54,0,.67.02.19,0,.09.76-.08.85Z"/>
      <path class="cls-1" d="M28.65,21.37l3.68,1.89c-.58.84-1.86,1.96-2.73,1.9-2.73-1.38-5.21-2.2-8.2-.56,2.58-7.4-3.84-6.43.5-10.89,3.4,4.02,1.83,4.27,1.07,8.93,1.47.57,4.5-1.88,5.69-1.27Z"/>
      <path class="cls-1" d="M4.38,36.05c.1-2.68,5.18.22,4.77-3.32-.53.75-1.07,1.25-2.06,1.26-.05-.5.02-1.4.3-1.77l5.98-7.67c1.23,3.32.1,6.45-1.92,9-1.69,2.14-4.33,3.4-7.08,2.49Z"/>
      <path class="cls-1" d="M39.64,17.64l-2.9-.09,1.49-2.02c-2.47.61-2.99,3.4-5.53,3.6l7.01-6.62-4.43,3.03c-.12-1.37.93-2.21,1.91-3.03l3.53-2.96.51,2.39,3.6-.17c-.95,1.38-1.95,1.94-3.34,2.66l.67.93-3.08.96.55,1.31Z"/>
      <path class="cls-1" d="M33.2,22.62c-5.39-2.31-3.3-3.03-9.15-.85.28-1.8,1.16-3.86.46-5.36l-1.73-3.65c.24-.74,1.03-2.09,1.46-2.69.85,5.29,2.14,3.77,2.05,9.2,5.34-.93,3.85.68,9.58,1.68l-2.67,1.67Z"/>
      <path class="cls-1" d="M7.66,47.04c-1.65,3.12-9.67-4.4-7.18-7.06l7.18,7.06Z"/>
      <path class="cls-1" d="M29.02,10.31l.37-1.76c-1.74,1.21-1.56,3.59-3.67,4.43l4.96-8.16-3.19,4.04c-.25-.21-.57-1.23-.58-1.81,0-.49.9-1.16,1.06-1.63.24-.7.57-1.39,1.13-1.92l1.52-2.36,1.25,3.41-2.6,4.18c2.14-1.06,2.1-5.01,5.31-4.64-.24,1.2-4.36,6.56-5.57,6.23Z"/>
      <path class="cls-1" d="M35.51,12.71l-.71-1.62c-.17-.38-1.37-.47-1.65-.14l-2.99,3.48c-.81-2.47,1.26-3.78,2.37-5.47.49-.75,1-1.44,1.57-2.09.55,2.53.98,3.64,3.64,3.97l-2.22,1.87Z"/>
      <path class="cls-1" d="M32.32,14.47l-3.39,3.5c-.08.09-.75.03-.86.08-.17.07.06-.52.19-.66l5.36-5.71c.61-.27,1.08-.15.6.48-.7,1.08-1.13,1.49-1.91,2.3Z"/>
      <path class="cls-1" d="M16.76,29.87c-.19-.18,0-1.39.33-1.83s1.29-.78,2.01-.81c.02.49-.05,1.51-.16,1.92s-.95.46-2.18.72Z"/>
      <path class="cls-1" d="M8.2,39.23c.34.26,0,1.3-.28,1.62s-1.57.69-1.67.27c-.08-.35.02-1.15.12-1.49.13-.41,1.47-.68,1.83-.4Z"/>
    </g>
  </g>
</svg>