<?xml version="1.0" encoding="UTF-8"?>
<svg id="Warstwa_2" data-name="Warstwa 2" xmlns="http://www.w3.org/2000/svg" viewBox="0 0 47.78 51.54">
  <defs>
    <style>
      .cls-1 {
        fill: #fff;
      }
    </style>
  </defs>
  <g id="icon-v8-weapon-shield-pixarts-store">
    <g id="icon-v8-weapon-shield-pixarts-store_117">
      <path class="cls-1" d="M24.99,32.59c-5.34,7.65-9.68,14.52-18.91,17.98-1.96.73-3.96,1.1-6.08.93,3.63-3.17,5.27-7.28,5.03-12.17,7.17-1.56,14.76-10.8,15.98-17.69,3.49-1.24,2.18-1.42,4.67-2.82.28-.16.95.78.93,1.1l-.22,2.99c2.14-.78,4.15-.79,5.95.69-1.6,1.33-2.3,3-1.74,4.99-2.42.59-4.18,1.95-5.61,4ZM24.42,25.35c.11-.77.35-2.11.49-2.75.04-.18-.68-.57-.7-.38l-.05.6c-.33,3.81-1.54,3.17-2.87,6.51,1.45-1.27,2.46-2.68,3.13-3.97ZM22.35,25.98c.44-.54.7-2.1.64-2.68-1.49,3.69-4.37,5.95-4.66,8-.4,2.75,2.7-3.67,4.03-5.32ZM5.6,46.81c7.82-1.73,15.08-12.67,18.57-18.56-2.95,3.07-4.81,6.44-7.23,9.66l-4.75,4.71c-1.88,1.87-4.58,2.78-6.59,4.19Z"/>
      <path class="cls-1" d="M35.28,29.72c-.72-.15-1.4-1.27-1.39-1.83s1.15-1.63,1.43-1.18l.58.95c.1.16.53.26.6.09.84-2-1.38-3.53-3.08-4.58-1.95-1.21-3.86-1.95-6.1-1.28.07-4.81-2.85-4.61-5.16-8.9-.93-1.72-.1-3.93,1.78-4.27,1.02-.18,1.99.46,2.28,1.47.2.69-.52,1.62-1.42,1.96l-1.01-1.54c-.64.8-.31,2.19.52,2.86l8.92,7.19c2.13,1.71,6.24,4.2,4.76,7.83-.32.77-1.52,1.47-2.71,1.22Z"/>
      <path class="cls-1" d="M38.79,10.32c-1.58-.96-3.68-.74-5.46-.4,1.68-3.12,4.26-2,7.7-1.34l-2.23,1.73Z"/>
      <path class="cls-1" d="M38.79,10.32l-3.12,4.22-5.99-.21c1.27-1.83,2.3-3.21,3.65-4.4-.21.2.97,1,.82,1.29-.33.59-1.54,1.03-2.38,1.39l4.77.36c-.04-.96-.28-2.17.18-2.31s1.43-.26,2.07-.33Z"/>
      <path class="cls-1" d="M46.88,5.86c-.56-1.34-.31-3.7-1.78-3.98l-3.85-.71c1.26-2.75,5.78-.05,6.42,1.72.3.83,0,2.49-.79,2.97Z"/>
      <path class="cls-1" d="M43.62,8.69l-4.29-4.55c.07-.14,1.16-.84,1.64-.79.76.08,4.34,3.95,2.65,5.34Z"/>
      <path class="cls-1" d="M33.5,20.05l-4.3-3.52c-.24-.2-.72-1.12-.5-1.24l.83-.47,4.13,3.57c.3.26.25,1.28-.17,1.66Z"/>
      <path class="cls-1" d="M41.6,7.84l-5.95-.55c.58-.74,1.87-2,2.95-2.15s2.38,1.43,3,2.71Z"/>
      <path class="cls-1" d="M44.64,6.61l-2.83-3.89c1.01-.65,2.96-.76,3.7.54.54.96-.16,2.51-.87,3.34Z"/>
      <polygon class="cls-1" points="35.2 15 33.95 17.61 30.74 15.09 35.2 15"/>
    </g>
  </g>
</svg>