<?xml version="1.0" encoding="UTF-8"?>
<svg id="Warstwa_2" data-name="Warstwa 2" xmlns="http://www.w3.org/2000/svg" viewBox="0 0 46.11 48.11">
  <defs>
    <style>
      .cls-1 {
        fill: #fff;
      }
    </style>
  </defs>
  <g id="icon-v8-weapon-shield-pixarts-store">
    <g id="icon-v8-weapon-shield-pixarts-store_178">
      <path class="cls-1" d="M39.56,14.06c-5.09,1.39-9.17,3.55-13.38,6.59,2.83-4.18,4.88-8.21,6.04-12.93,4.19-3.54,8.81-5.96,13.89-7.72-.99,5.27-3.39,9.79-6.55,14.06ZM39.46,6.99c-2.52,2.01-4.56,4.22-6.12,6.57,2.6-2,4.52-4.2,6.12-6.57Z"/>
      <path class="cls-1" d="M20.82,37.9l1.25-1.18c.17,1.46-.03,2.54-.92,3.85-9.28-4.22-10.43-4.6-14.69-14.3,1.35-.84,2.29-1.17,3.88-1.37l-1.3,1.53c1.21,2.86,4.07,4.66,7.51,4.45-.39,3.34,1.15,5.95,4.27,7.02ZM15.51,35.05c.15-.72.07-2.27-.41-3.07-.26-.43-1.52-.31-1.99-.17s-1.04,1.52-.56,1.54h1.3c.56,0-.34.97.72,2,.16.16.89-.08.94-.3Z"/>
      <path class="cls-1" d="M16.02,28.31c-1.24,1.3-3.01,1.39-3.85-.1,2.18-1.26,3.23-3.25,3.94-5.68,8.13-2.42,8.7-7.97,14.18-12.84-1.18,6.27-6.16,13.07-11.87,15.03-.7,1.11-1.48,2.63-2.4,3.59Z"/>
      <path class="cls-1" d="M24.83,30.76c-2.5.4-4.39,1.79-5.85,3.96-1.12-.42-1.34-2.06-.53-3.02,1.09-1.28,2.51-2.09,3.95-3.14.98-1.04,1.45-2.97,2.37-4.22,3.14-4.25,7.55-7.16,12.81-8.39-4.18,5.2-11.08,6.62-12.75,14.8Z"/>
      <path class="cls-1" d="M21.54,27.3c-.06.1-4.52,4.04-4.53,2.7,0-.21.08-.67.2-.86l2.1-3.47,4.59-2.62c-.88,1.63-1.55,2.91-2.37,4.24Z"/>
      <path class="cls-1" d="M5.49,46.77c-.81,1.24-2.23,1.65-3.6,1.11-.94-.37-1.71-1.52-1.86-2.54s.3-2.35,1.11-2.99c.75,2.45,2,4.1,4.35,4.41Z"/>
      <path class="cls-1" d="M6.07,44.86c.12.12.19.87.06.98-.72.57-3.03-.5-3.42-1.19-.53-.94-1.1-2.16-.21-3.35l3.57,3.56Z"/>
      <path class="cls-1" d="M5.27,39.55c1.03-.43,1.86-.56,3.34-.82l-1.53-.53,1.48-1.21,1.53,3.14c-1.73.69-3.46.86-4.81-.58Z"/>
      <path class="cls-1" d="M12.42,37.9c-.89.24-1.72.07-2.3-.37-.8-.6-1.02-1.46-.49-2.52l2.78,2.89Z"/>
      <path class="cls-1" d="M4.14,40.77c.64-.38,3.7,1.79,3.25,2.35-.89,1.09-2.4-1.12-3.25-2.35Z"/>
    </g>
  </g>
</svg>