<?xml version="1.0" encoding="UTF-8"?>
<svg id="Warstwa_2" data-name="Warstwa 2" xmlns="http://www.w3.org/2000/svg" viewBox="0 0 39.7 56.08">
  <defs>
    <style>
      .cls-1 {
        fill: #fff;
      }
    </style>
  </defs>
  <g id="icon-v8-weapon-shield-pixarts-store">
    <g id="icon-v8-weapon-shield-pixarts-store_142">
      <path class="cls-1" d="M22.52,50.83c5.02-2.95,10.79-9.2,12.14-14.83.4-1.66-.13-3.42-.09-5.25l2.98-.06.74,6.41c-3.49,8.41-10,15.15-18.47,18.98-9.18-4.8-13.85-9.47-18.36-18.69l.74-6.46c.77-.28,2.02-.32,2.91-.22v4.73c-.01,4.66,7.56,12.91,12.23,15.43l.12-13.53c1.81,1.02,2.99,1.13,4.94-.14l.11,13.63ZM37.12,37.36c0-.61-.49-1.1-1.1-1.1s-1.1.49-1.1,1.1.49,1.1,1.1,1.1,1.1-.49,1.1-1.1ZM21.11,41.7c0-.35-.75-1.14-1.13-1.29-.44-.16-1.32.7-1.23,1.16.08.43.59,1.03.97,1.17s1.39-.54,1.39-1.04ZM30.85,47.03c0-.63-.51-1.15-1.15-1.15s-1.15.51-1.15,1.15.51,1.15,1.15,1.15,1.15-.51,1.15-1.15ZM21.12,47.67c0-.65-.52-1.17-1.17-1.17s-1.17.52-1.17,1.17.52,1.17,1.17,1.17,1.17-.52,1.17-1.17Z"/>
      <path class="cls-1" d="M22.47,14.24h-5.01s-.16-9.28-.16-9.28l-12.99,3.1.82,9.49-3.12.07c-.27-4.31-.9-8.28-2.01-12.6C6.93,3.64,13.35,2.92,19.67,0c3.13,1.15,6.27,2.39,9.65,3.03l10.38,1.98c-.93,4.1-1.63,7.98-1.93,12.27-.8.38-1.88.38-3.19.2l.97-9.32-13.12-3.22.05,9.31ZM20.99,2.53c0-.62-.51-1.13-1.13-1.13s-1.13.51-1.13,1.13.51,1.13,1.13,1.13,1.13-.51,1.13-1.13Z"/>
      <path class="cls-1" d="M19.9,37.46c-5.52-2.48-6.93-3.39-8.92-8.8-1.59-4.32-1.48-8.74-1.35-13.49l20.6-.03c.05,6.5.15,14.23-4.66,19.04-1.5,1.5-3.61,2.1-5.66,3.28ZM22.86,30.61c.37.5.76,1.01,1.02,1.06s.8-.49.78-.75l-.07-.76.92.13c.24.03-.01-.84-.24-.83l-1.84.1c-.55-.63-1.08-1.72-1.25-2.79l1.4,1.64c.19-.04.9-.35,1.15-.48.2-.1-.37-.78-.51-.96.72.5,2.72-.77,2.47-1.21l-.38-.68,1.11-.67c.18-.11-.48-.63-.45-.68l.75-.73c.15-.14-.52-.58-.43-.77l.51-.96c.12-.22-.29-.72-.47-.99.37-.8.62-2.07.46-2.69-2.98,2.39-2.24.19-4.82,2.76.27.55.66,1.19.55,1.53s-.81.78-1.17.8-1.04-.4-1.23-.71c-.2-.32-.46-1.26-.2-1.46l1.1-.87c-.98-.77-2.57-.55-3.76-.05.43.55.54,1.13.36,2.07-.07.38-.82,1.02-1.2.98-.31-.03-.94-.41-1.03-.71s.14-.7.43-1.43c-.37-.65-1.63-1.26-2.55-1.74l-2.15-1.14c-.27.96.02,2.22.58,3.05l-1.28.13,1.24,1.79-.55.53c-.15.14.27.55.47.6l1,.24-1.28.52,1.26,1.49c.23.28.48,1.18.83,1.06l1.42-.47-.72,1.07c-.13.2.5.63.83.82l1.68-2.01-.86,2.85c-.07.22-.88.43-1.01.38-.42-.27-.7-.56-.88-.42l-.82.65,1.81.31-.46.77c-.09.15.18.65.34.57l.83-.45c.15-.08.52-.56.64-.43s.44.47.44.47l-1.2.99,2.45,1.53c.3.19,1.17,1,1.38.72l.95-1.24,1.23-.3c.31-.08.65-.92.67-1.21l-1.9-.25,1.69-.75Z"/>
      <path class="cls-1" d="M33.73,36.27c-1.96,5.51-5.83,9.8-10.38,13.02-.3-4.31-.25-8.26-.12-12.46,2.78-1.29,4.43-3.42,5.74-6.07l4.77-.03c-.12,1.8.61,3.8,0,5.55Z"/>
      <path class="cls-1" d="M16.57,36.73l-.04,12.47c-4.73-3.24-8.59-7.47-10.51-12.91-.57-1.63.14-3.72.02-5.59l4.83.14c1.23,2.6,2.63,4.7,5.7,5.88Z"/>
      <polygon class="cls-1" points="8.97 14.34 8.61 17.63 6.02 17.6 5.24 8.85 16.52 6.25 16.61 14.27 8.97 14.34"/>
      <path class="cls-1" d="M31.16,17.48l-.28-3.14-7.63-.09c-.12-2.82-.12-5.42.03-7.97l11.29,2.6-.86,8.38c-.37.4-1.94.46-2.54.22Z"/>
      <path class="cls-1" d="M10.3,29.81l-8.08-.09-.16-11.17h6.56c.1,3.97.41,7.07,1.68,11.26Z"/>
      <path class="cls-1" d="M37.57,29.59l-8.17.26c1.27-3.8,1.62-7.08,1.59-11.23l6.67-.11-.09,11.07ZM34.7,20.71c0-.63-.51-1.15-1.15-1.15s-1.15.51-1.15,1.15.51,1.15,1.15,1.15,1.15-.51,1.15-1.15ZM34.64,27.64c0-.64-.52-1.15-1.15-1.15s-1.15.52-1.15,1.15.52,1.15,1.15,1.15,1.15-.52,1.15-1.15Z"/>
    </g>
  </g>
</svg>