<?xml version="1.0" encoding="UTF-8"?>
<svg id="Warstwa_2" data-name="Warstwa 2" xmlns="http://www.w3.org/2000/svg" viewBox="0 0 52.6 53.04">
  <defs>
    <style>
      .cls-1 {
        fill: #fff;
      }
    </style>
  </defs>
  <g id="icon-v8-weapon-shield-pixarts-store">
    <g id="icon-v8-weapon-shield-pixarts-store_60">
      <path class="cls-1" d="M35.05,19.98c-.55-.12-1.93-1.36-1.87-1.94l1.27-2.62c-1.84-2.59-1.34-5.77.78-7.78.24,1.87-.05,3.97,1.76,4.79.5.22,1.57-.49,1.68-1,.13-.6-.04-1.65-.4-2.49,3.92-3.85,8.68-7.15,14.34-8.93-1.53,5.48-4.66,10.72-8.81,14.71-.87-.65-1.96-1.01-2.68-.35-.67.61-.7,2.01.33,2.59,1.09.63,2.31.8,3.96.99-1.76,2.22-4.82,2.34-7.37.85-.87-.51-2.03.44-2.97,1.19ZM44.49,8.42c-1.49.41-2.26,1.11-3.09,2.07l1.73-.66-3.14,3.94c1.18-.68,2.41-.94,3.67-.96,2.89-3.04,5.27-6.59,6.89-10.59-1.49.55-2.56,1.09-3.71,1.96l2.62-.77c-.93,2.41-4.81,8.47-6.66,9.02-1.64.49,1.94-3.53,1.69-4.01ZM37.79,16.31l-2.25,1.4c.44-1.68.51-2.47.07-3.76.95.08,2.69.38,2.95-.66-.83.18-1.58.66-1.98.47s-1.16-.91-1.44-1.26l-.44-.55c-.07-.08-.15,0-.15.1-.08,1.73,1.2,2.14.73,3.92l-.66,2.52,2.83-.84c1.51.49,2.51.79,4.15.96l-1.48-1.36c-.5.32-1.21.79-1.42.46l-.9-1.41Z"/>
      <path class="cls-1" d="M4.75,48.27l1.92-1.18c-.91.42-1.88.77-2.79.4l3.73-4.31,1.92-1.69,4.33-4.55,3.72-3.52,4.08-4.2v1.94c.7-1.51,1.06-2.43,1.98-3.83,1.57.79-1.23,2.83-.51,4.9l-4.53,4.37-5.38,5.18.56-2.32c-1.27,3.4-3.53,6.08-6.57,8.36-.67.51-1.19,1.82-2.46.44Z"/>
      <path class="cls-1" d="M27.79,27.22c-.53.01-1.72-.87-2.06-1.47.33-1.24,1.68-1.96,2.58-2.36.19-.5.99-1.67,1.37-1.47.33.91.76,1.43,1.51,2.05-1.19.92-2.14,1.86-3.39,3.26Z"/>
      <path class="cls-1" d="M4.08,51.21c-1.37,1.33-2.39,1.76-4.08,1.83.32-1.57.66-2.42,1.64-3.97l2.44,2.15Z"/>
      <rect class="cls-1" x="3.12" y="47.25" width="1.35" height="4.05" transform="translate(-32.44 15.66) rotate(-42.74)"/>
      <path class="cls-1" d="M32.54,23.5c-1.21.34-3.21-3.48-2.33-3.77l.61-.2,1.72,3.97Z"/>
      <path class="cls-1" d="M34.74,20.94c-1.29.56-1.57,0-2.23-.54l-.84-.71c-.23-.19.19-.81.57-1.34l2.5,2.59Z"/>
      <path class="cls-1" d="M26.93,28.99l-2.47-2.11c-.12-.1-.07-.82.09-.81,1.01.12,2.85,1.83,2.39,2.92Z"/>
    </g>
  </g>
</svg>