<?xml version="1.0" encoding="UTF-8"?>
<svg id="Warstwa_2" data-name="Warstwa 2" xmlns="http://www.w3.org/2000/svg" viewBox="0 0 46.46 48.01">
  <defs>
    <style>
      .cls-1 {
        fill: #fff;
      }
    </style>
  </defs>
  <g id="icon-v8-weapon-shield-pixarts-store">
    <g id="icon-v8-weapon-shield-pixarts-store_176">
      <path class="cls-1" d="M29.53,16.63l-.82-1.98-.19,2.94c-2.41,2.58-4.91,5.16-7.59,7.56-1.49,1.34-3.28,2.21-5.03,3.1-1.63.83-3.54,2.46-3.94,1.08-.47-1.62,4.11-2.78,6.4-5.36l9.7-10.94c.31-.35.9-.71,1.17-1.15,1.32-2.07,2.8-3.76,4.44-5.47l.74,1.49.75-3.43c3.66-1.8,7.18-3.26,11.3-4.5-1.04,3.68-1.82,7.14-3.49,10.42-.94,1.84-3.22,3.09-4.55,4.63l-2.64.19.96.66c.24.17-.12.94-.36,1.15l-7.43,6.53c-.53.46-1.17.88-1.64,1.4-3.65,4.01-5.56,5.41-7.64,10.64-.39.29-1.5-.32-1.73-.76-.24-.47.71-1.3.89-1.79,1.21-3.26,2.92-6.34,5.4-8.9,5.43-5.62,10.8-10.98,15.68-17.21-3.84,2.93-6.92,6.27-10.37,9.66Z"/>
      <path class="cls-1" d="M17.18,32.44l-1,3.16c2.93,3.41,8.47,2.44,6.79,4.11l-1.79,1.78-6.43-3.11c-4.74-2.29-5.48-4.81-7.7-9.73-.31-.68-.74-1.99-.39-2.7.31-.62,1.52-1.12,2.3-1.24.17,2.24.87,3.85,2,5.71l.61,1c.19.32,2.87-.17,4.25-1.28,1.3-1.05,2.58-1.86,4.26-2.73-.63,1.57-1.43,4.17-2.91,4.15-.21,0,.04.67,0,.89ZM15.28,32.3l-3.7.45-2.01-2.6c.4,1.49,1.05,2.7,1.81,3.85l3.02-.5c-.19,1.14-.43,2.05-.29,2.53s1.06,1.02,1.24,1.07c-.5-2.24.89-3.2-.07-4.8Z"/>
      <path class="cls-1" d="M4.68,46.74c-.81,1.84-2.89,1.43-3.92.38-1.09-1.12-1.09-3.24.54-3.92l2.7-1.13,2.32,2.25c-.85.85-1.2,1.42-1.65,2.42ZM3.89,45.38c0-.75-.61-1.36-1.36-1.36s-1.36.61-1.36,1.36.61,1.36,1.36,1.36,1.36-.61,1.36-1.36Z"/>
      <path class="cls-1" d="M6.84,43.59l-1.86-2.24c-.24-.29.51-1.31.78-1.08l2.36,1.89-1.28,1.43Z"/>
      <path class="cls-1" d="M11.72,38.4c.11.23-.39.9-.67.8l-1.45-.49c-.35-.12-.99-.74-1.01-1.11s.44-1.11.62-1.28l2.51,2.07Z"/>
      <path class="cls-1" d="M10.13,40.12l-.93.92c-.42.42-2.54-1.2-2.58-1.69-.03-.4.85-1.28.94-1.14.83.9,1.23,1.19,2.57,1.91Z"/>
    </g>
  </g>
</svg>