<?xml version="1.0" encoding="UTF-8"?>
<svg id="Warstwa_2" data-name="Warstwa 2" xmlns="http://www.w3.org/2000/svg" viewBox="0 0 58.06 55.49">
  <g id="icon-v10-loot-pixarts-store">
    <g id="icon-v10-loot-pixarts-store_320">
      <path d="M50.01,37.22l-7.1,5.12c-.2,4.2-.2,8.68.21,13.01l14.95-12.49c-.88-2.09-1.91-4.14-2.54-6.14l-1.01-3.2c-1.46,1.96-2.54,3.02-4.5,3.7Z"/>
      <path d="M39.45,41.73l-7.91-4.98c-2.66,2.16-5.26,4.52-7.27,7.23l17.31,11.51c.09-2.77-.22-12.55-2.13-13.75Z"/>
      <path d="M43.39,25.04l-3.71,3.64-3.7,3.42c3.17.97,4.63,1.2,7.43,1.24l-.51-5.23c.83.48,2.17,1.62,2.34,2.48l.89,4.43-6.12-.22c-1.86-.07-3.13-1.14-3.95-2.62l-3.34,3.36,8.85,5.8,12.18-9.31-10.36-6.99Z"/>
      <path d="M6.89,23.37l9.15,5.67c3.24,2.01,2.76,1.9,9.8-4.96l9.16-8.92,3.33.12c-.19-5.16,3.38-5.68,2.58-7.55-.18-.41-.89-1.18-1.3-1.4L28.12,0l-5.88,5.15,2.59,1.12c-3.12-.48-4.96,1.32-7.16,3.22l-11.15,9.6c-.91.78-1.81,2.64-2.66,3.66.7,0,2.26.16,3.03.64ZM33.49,5.68c1.33,2.86.25,6.07-1.74,8.11.29-2.28.43-3.47.48-6.46l-6.34,1.03c.05.81.21,1.35-.06,1.27l-1.8-.53c2.59-2.44,6.32-3.52,9.46-3.41ZM20.1,11.55l6.73-.33,1.17,4.54-2,1.05c-.3.16-1,.35-1.03.59l-.21,1.86-2.83-2.15c-.5-.38-1.06-.61-2.14-.98l.31-4.57ZM17.97,20.69l4.51.16-4.04,1.04c-.62.16-2.19.1-2.29-.49-.11-.69.4-1.8.93-2.36.17.35.49,1.63.89,1.64ZM13.33,18.07c.62,0,.84.09.91-.06l.39-.85.58-1.26c.09-.2.54-.03,1.02.13-1.14,2.15-1.83,4.13-.91,6.62l7.74-.44c-1.9,1.07-7.58,2.41-10.17,2.56l.44-6.69Z"/>
      <path d="M46.92,18.75l-4.07-9.01c-1.07.72-2.65,1.82-2.79,2.69l-.66,4.23h-3.56s-15.82,15.53-15.82,15.53l.43,13.07,16.71-16.36,9.76-10.15Z"/>
      <path d="M11.96,41.57c2.23,1.44,4.01,2.55,6.39,3.67.21-4.54.18-8.45-.1-12.81l-3.4-2.24c-3.62-2.38-6.73-4.66-10.83-6.41l-.26,6.19-1.8-3.54-1.94,6.97,3.98,3.01,7.98,5.15Z"/>
      <path d="M25.76,15.98c.81-.3.24-3.11-.62-3.28-1.13-.22-2.36-.08-3.69.17.19.99.46,2.25.8,3.14.26.69,2.32.41,3.51-.03Z"/>
    </g>
  </g>
</svg>