<?xml version="1.0" encoding="UTF-8"?>
<svg id="Warstwa_2" data-name="Warstwa 2" xmlns="http://www.w3.org/2000/svg" viewBox="0 0 50.84 57.01">
  <g id="icon-v10-loot-pixarts-store">
    <g id="icon-v10-loot-pixarts-store_322">
      <path d="M40.89,15.44l-1.41,4.73-.66-4.69c-1.38-.83-1.67-1.61-1.41-3.09l1.19-6.66c-.89-.6-2.49-1.49-3.58-1.83l-9.62,4.16c1.44-1.87,3.7-3.17,4.19-5.54-.63-1.2-3.48-2.98-4.81-2.42L3.9,8.81,0,13.31l.89,11.92c.07.92.61,2.66,1.19,3.31l3.6,4.03-3.12-.7c-.86.99-1.43,2.8-1.56,4.38l-.78,9.42c3.05,1.88,6.13,3.24,9.47,4.46l2.02.74,1.93-5.97c1.72,3.8.45,8.1,3.83,9.31l7.76,2.78c.78-5.07-.1-9.79.71-14.8l.85,5.07c.54,3.21.47,6.17.26,9.54,2.2-1.06,4.81-2.31,6.35-3.58.85-2.5,1.63-4.39,2.64-6.61,1.39-3.03,1.84-6.24,2.76-9.69l5.86,10.07,5.05-4.23-.11-6.78c-2.61-1.63-4.8-3.29-7.06-5.44-1.43-1.36-3.58-1.97-5.35-.21-.81.8-1.86,2.62-2.66,3.52-2.89,3.29-4.27,4.1-8.11,6.75l-6.44-3.71,3.11-1.01c.06,1.24,1.21,2.59,2.23,2.57.53-.01,1.42-1.01,1.5-1.55.07-.45-.77-1.45-.82-2.01l-.96-9.78c-.08-.78-1.18-2.46-1.56-3.19l-6.86-2.99-2.53,2.62-1.82-4.5-4.97-2.45-.62,6.55c-1.07-3.27-1.84-6.14-3.24-8.71l10.54-2.07-5.69,3.24c1.92.97,3.82,1.79,5.33,2.1l8.57-3.11-4.4,4.55,4.25,2.04c5.59,2.68,8.84-1.33,14.32-2.67-9.76,7.02-8.3,3.94-9.03,17.22,2.01.68,3.68,1.06,5.61,1.1l3.99-8.02c1.23.23,3.4.53,4.49.23l5.65-5.17c1.33-1.22,2.62-3.85,3.33-5.63.65-1.64.39-4.08.37-5.98l-9.87,5.17ZM7.06,30.76l6.39-6.98,6.14,9.41-4.7,4.38,4.58,6.6-2.47,2.3-4.07-6.8-3.88,4.13-2.1-2.64,4.18-3.97-4.06-6.42Z"/>
      <path d="M39.37,40.35l-.74,3.81c-1.98,2.44-3.53,5.23-3.5,8.58l6.86,1.32c.11-2.4.66-3.73.59-4.97-.17-3.09-1.76-6.05-3.21-8.75Z"/>
      <path d="M49.51,8.33l-7.1-2.91c-.68-.28-2.29.07-2.75.42l.6,7.71c3.67-1.68,6.06-2.96,9.25-5.22Z"/>
      <path d="M49.03,32.77c.38-3.65.7-6.64.69-10.64l-7,5.97,6.3,4.67Z"/>
      <polygon points="15.56 31.93 12.95 28.66 10.61 31.06 13.11 34.83 15.56 31.93"/>
    </g>
  </g>
</svg>