<?xml version="1.0" encoding="UTF-8"?>
<svg id="Warstwa_2" data-name="Warstwa 2" xmlns="http://www.w3.org/2000/svg" viewBox="0 0 57.61 53.99">
  <g id="icon-v10-loot-pixarts-store">
    <g id="icon-v10-loot-pixarts-store_231">
      <path d="M.16,19.89l17.79,9.62-.14-3.55c-.22-5.77-1.7-11.29-5.04-16.05-1.38-1.97-4.27-3.64-6.64-3.34C2.33,7.03-.74,16.36.16,19.89ZM7.43,9.86c1.78.56,3.02,1.49,4.12,2.91,1.77,3.61,3.24,7.08,3.53,11.77l-12.46-6.34c.17-2.86,1.38-7.8,4.8-8.33Z"/>
      <path d="M12.11,6.66c-.59-.13-.94-.93-1.05-1.64l-2.92.47c3.09,1.02,5.11,2.85,6.56,5.66,3.04,5.88,4.43,11.84,4.29,18.74l5.76-1.28c-.66-7.92-2.05-18.25-8.97-22.83-1.2-.79-3-1.32-4.06-.62.25,1.03,1.43.79,2.44.63-.02.74-1.08,1.06-2.06.85ZM19.9,19.56c.21-.11.72-.38.8-.42h0s.02,0,0,0l-.18,1.51c-.03.27.69.7.9.52.2-.18.42-.43,1.02-1.08.09.47-.12,1.31-.47,1.66-.54.54-2.08,0-2.2-.74-.07-.41-.11-1.32.15-1.46ZM17.12,10.89l.8,1.39c.16.28.79-.07,1.37-.23.06.19-.33.97-.69,1.09-.42.14-1.43-.2-1.67-.57s-.02-1.43.19-1.67Z"/>
      <path d="M47.13.47c-.61.4-1.82,1.04-2.32.8-.43-.21-.99-.76-1.54-1.27l-2.4.37c3.58.82,6.36,2.95,8.02,6.32,2.12,4.3,3.44,8.65,3.56,13.52l-1.71-.28-4.83,1.21.14,2.94,5.84-1.55c-.11-1.65.17-1.2.61.09l5.11-1.17c-.08-5.18-1.63-10.17-3.82-14.97-1.29-2.84-3.88-5.22-6.66-6.01ZM51.39,6.52c-.46.08-1.45-.12-1.74-.43-.35-.37-.18-1.81.14-1.97l.51,1.54c.11.34,1.2-.19,1.48-.5l.27.4c.13.19-.42.93-.65.97ZM54.51,12.7c-.47.34-1.28.61-1.12.84l.69.99c.2.29.84-.7,1.09-1.15.07.28-.03,1.32-.24,1.72-.21.4-1.49-.06-1.72-.48-.22-.4-.32-1.38-.1-1.7s1.09-.33,1.4-.22Z"/>
      <path d="M33.74,20.37l-1.1-4.43c-2.15.37-3.21.56-4.97.36l4.58-1.43c-.86-2.38-1.72-4.39-3.06-6.61l-7.92,1.4,2.67,7.07,3.19-.15-2.87,1.44,1.25,6.08,5.61-1.18c.21-1.15.39-1.96.8-2.07l1.81-.47Z"/>
      <path d="M25.22,2.55c1.78,1.17,3.86,1.98,5.19,3.51,3.49,4.02,4.72,8.88,5.8,14l5.63-1.33-2.34-8.26c-2.12-3.81-4.66-7.29-8.83-8.86l-5.45.94ZM38.18,15.61l-.33,1.33c-.06.26.64.85.82.66l.97-1.04c.21.56.01,1.51-.47,1.71-.59.24-1.78-.14-1.91-.65-.19-.72.28-1.9.92-2.01ZM34.38,7.98l.84,1.56c.18.34,1.16-.35,1.63-.71l-.08,1.09c-.02.2-1.43.97-2.66-.48-.26-.31.14-1.14.28-1.46ZM30.05,4.01c-.59-.07-1.16-.87-.86-1.56.49.36.8.9,1.15.88l1.7-.11c-.15.6-1.08.9-1.99.79Z"/>
      <path d="M26.76,47.06l.24,3.44,22.9-5.91c.15-1.55.14-2.49-.16-3.43l-22.98,5.9Z"/>
      <path d="M18.89,45.54v8.46s6.85-1.91,6.85-1.91l-.4-7.7-6.45,1.16ZM21.67,50.16c-.5-.31-.71-1.48-.36-1.93l.79,1.53c.18.35.97-.15,1.39-.39-.03.85-1.05,1.27-1.83.79Z"/>
      <path d="M48.19,12.92c-.18-2.46-1.06-5.2-2.92-7.25-2.24.13-4.81.52-6.71.89l3.3,6.95c1.97-.57,3.95-1.13,6.33-.59Z"/>
      <path d="M38.69,42.35l-.03-5.92-4.85-2.75-3.05,4.57,5.23,4.65c.52.47,2.71.19,2.71-.55Z"/>
      <path d="M29.69,38.75l-5.63,1.11.13,3.48c1.89,0,2.4.89,2.57,2.45l8.43-2.18-5.5-4.87Z"/>
      <path d="M50.03,18.93l-1.23-5.97-7.16,1.1,1.1,4.36,3.39,1.23c.81.29,2.6-.46,3.9-.72Z"/>
      <path d="M51.32,38.02l-.14,7.41,6.11-1.62-.04-7.22-5.92,1.43ZM55.6,41.99c-.12.42-1.37.55-1.7.27-.33-.28-.68-1.19-.6-1.62.09-.5,1.21-1.11,1.5-.89l-.74.91c-.2.24.43,1.25.64,1.02l1.04-1.1c.02.24-.02.98-.14,1.4Z"/>
      <path d="M39.69,35.04c1.6-.43,3.55-1.73,3.77-3.08.29-1.76.03-3.33-.2-5.27-2.47.41-4.61.92-6.82,1.68l.12,5.15c.28.76,2.19,1.77,3.12,1.51ZM39.51,28.79c.22-.32,1.28-.3,1.53,0,.88,1.08-.41.36.26,3.73.11.57-1.79,1.14-1.83.57l-.21-3.02c-.02-.35.08-1.04.25-1.29Z"/>
      <path d="M13.29,50.83l4.81,2.83.14-8.45-4.72-2.19-.23,7.81ZM14.83,47.28l.83,1.55c.14-.1.59-.43.59-.64l-.03-1.27c.28.23.72.72.89,1.05.21.4-.34,1.69-.8,1.75-.53.08-1.61-.31-1.59-.72l.1-1.73Z"/>
      <path d="M34.16,23.01c.15,1.36.34,3.08.5,3.93.07.37,1.49.15,1.62-.2l.51-1.41,5.88-1.32.9,1.29c.13.19,1.23-.25,1.29-.48.23-.96.18-2.75-.09-4.14l-10.61,2.33Z"/>
      <path d="M42.51,41.42l3.29-6.27-1.72-1.74c-1.38,1.52-2.46,2.25-4.54,2.98v6.03c1.07-.05,2.59-.27,2.98-.99Z"/>
      <path d="M24.63,38.64l5.33-1.13,2.63-3.66c-.24-.36-.93-1.07-1.31-1.27l-5.58,1.35c-.07.88-.1,2.05-.5,2.41l-1.13.96c-.21.18.2,1.41.55,1.33Z"/>
      <path d="M51.28,36.8l.18-2.99-4.74,1.4-3.39,6.4,5.86-1.64c-.08-1.95.26-3.04,2.1-3.17Z"/>
      <path d="M24.53,29.96l-5.62,1.19.1,5.81,5.64-1.41-.11-5.59ZM22.84,34.27c-.07.37-1.23.68-1.55.5-.37-.22-.88-1.2-.67-1.58l.45-.8c.08-.14.36.27.39.43l.18,1.1c.05.29.78-.28,1.18-.82.05.39.09.81.02,1.17Z"/>
      <path d="M51.72,30.8l-1.44-2.5-3.92,1.13c-.54,1.02-.98,1.79-1.48,2.48-.43.6.95,2.54,1.67,2.36,2.2-.55,6.27-1.55,5.17-3.47Z"/>
      <path d="M20.28,8.77c2.66-.17,5.33-.5,7.87-1.27-4.66-3.8-5.27-2.69-10.72-1.99l2.85,3.26Z"/>
      <polygon points="13.89 28.67 4.55 23.54 4.69 26.43 13.83 31.42 13.89 28.67"/>
      <path d="M.07,42.5l4.33,2.35.05-7.13L.22,35.59l-.14,6.91ZM1.37,39.49c0-.15.54-.61.89-.59.34.02,1.09.78,1.02,1.11l-.33,1.44c-.07.3-1.12.35-1.27.08-.19-.33-.32-.77-.56-1.65l1.2,1.03.32-1.11c.09-.32-.62-.35-1.27-.3Z"/>
      <path d="M5.11,31.94c3.13,2.28,3.37,1.59,4.33,4.61.17.13,1.22-.21,1.15-.49l-.35-1.44c-.93-3.84,1.45-2.9-4.76-6.5-.53.9-1.26,3.18-.37,3.83Z"/>
      <polygon points="5.71 44.41 12.25 48.54 12.47 45.01 5.42 40.99 5.71 44.41"/>
      <path d="M9.98,38.52v3.38s2.21,1.52,2.21,1.52l2.34-1.69c.6-.43.63-2.5.04-3-.78-.66-2.48-1.53-3.35-1.82-.5-.17-1.25,1.09-1.25,1.6Z"/>
      <path d="M52.44,29.26l4.64-1.09.27-5.37-4.93,1.17.03,5.29ZM53.7,25.81c.16-.34.64-.75,1.08-1.09l-.48,1.53c-.04.13.35.43.47.49s.21-.15.85-.91l.06,1.01c.02.34-1.28.82-1.49.55-.27-.35-.65-1.24-.49-1.57Z"/>
      <polygon points="19.28 44.34 23.02 43.57 22.86 37.27 19.33 38.15 19.28 44.34"/>
      <path d="M6.5,38.34c.08,1.79.95,2.6,2.56,3.05.01-4.64.46-6.42-4.17-8.08-.65,4.78,1.51,2.78,1.61,5.03Z"/>
      <polygon points="31.84 31.21 31.71 28.16 25.64 29.56 25.68 32.65 31.84 31.21"/>
      <path d="M34.8,2.97l3.31,2.97,6.07-1.06c-2.63-2.45-5.98-3.27-9.38-1.91Z"/>
      <polygon points="52.79 30.48 52.66 36.5 55.78 35.7 55.99 29.79 52.79 30.48"/>
      <path d="M18.07,36.6l.08-5.54-3.44-1.82c.02,2.04-.03,3.59.36,5.3.2.87,2.11,1.67,3.01,2.06Z"/>
      <polygon points="31.58 23.96 25.38 25.39 25.59 28.33 31.83 26.87 31.58 23.96"/>
      <polygon points="45.81 25.28 46.02 28.27 51.51 26.92 51.36 23.98 45.81 25.28"/>
      <path d="M.14,21.13l.32,5.68,3.04,1.34.05-5.05-3.4-1.97ZM2.54,26.27c-1.01-.23-1.56-1.56-.95-2.21.37.93.11,1.34,1.09.37.19.3.14,1.44-.15,1.84Z"/>
      <polygon points="15.97 42.97 18.37 44.1 18.45 38.01 16.13 37.03 15.97 42.97"/>
      <path d="M14.2,35.32l-.51-2.57-3.21-1.74c.27,1.92.71,3.31,1.47,5.03l3.12,1.54c.43-.71-.07-1.44-.87-2.26Z"/>
      <polygon points="3.82 35.93 3.64 29.83 1.49 28.64 1.65 35.03 3.82 35.93"/>
      <path d="M35.15,20.45c-.09-6.42-5.32-18.05-12.38-16.89,3.86.57,6.55,3.06,8.54,6.27,2.04,3.29,2.29,7.03,3.84,10.63Z"/>
      <path d="M47.37,5.6c-2.25-2.5-5.03-4.95-8.61-4.3,4.98.62,8.69,4.08,10.1,8.92l2.44,8.39c-.07-4.95-1.87-9.01-3.93-13.01Z"/>
      <path d="M42.81,19.6l-10.52,2.08c.35.24,1.62.85,2.07.75l10.05-2.23c-.29-.58-1.01-.72-1.6-.6Z"/>
      <path d="M34.46,32.32c0,.22.52.51.72.6.2.09.66-.74.66-1.04l-.05-3.87-1.36.36.03,3.95Z"/>
      <path d="M33.54,32.8c.35-1.7.37-3.19-.13-4.91-1.11,1.74-1.03,3.39.13,4.91Z"/>
      <rect x="32.71" y="22.54" width="1.04" height="4.49" transform="translate(-2.35 3.51) rotate(-5.84)"/>
      <path d="M42.4,25.65l-.18-.74c-1.98.44-3.79.51-5.43,1.76l5.62-1.02Z"/>
      <rect x="44" y="26.04" width="1.06" height="4.1" transform="translate(-1.07 1.77) rotate(-2.25)"/>
      <path d="M9.19,12.21c-.01,2.84.34,4.88-.31,7.27l-.34-7.66c-.02-.54-1.81-.42-2.1.06-1.16,1.82-1.92,3.86-1.95,5.85l9.38,4.86c-.05-2.13-2.36-9.6-4.67-10.38Z"/>
    </g>
  </g>
</svg>