<?xml version="1.0" encoding="UTF-8"?>
<svg id="Warstwa_2" data-name="Warstwa 2" xmlns="http://www.w3.org/2000/svg" viewBox="0 0 57.77 46.39">
  <g id="icon-v10-loot-pixarts-store">
    <g id="icon-v10-loot-pixarts-store_191">
      <path d="M57.77,16.54l-4.61-11.04L36.01,0,4.57,22.18,0,35.16l25.05,11.23,32.71-29.85ZM34.62,5.02c.08.97-.06,1.43-.57,2.5l2.83.95-.98-4.08c-.1-.44.86-1.07,1.39-1.01l1.16,3.09,7.38-.04c-.79,1.21-1.87,1.42-3.19,1.37l-4.22-.15c-.47,1.59.88,1.73,1.84,2.15l.95.42c.2.09-.95,1-1.23.9l-9.09-3.19c1.22-1.1,2.26-1.86,3.74-2.91ZM22.82,14.38l4.89-.28-1.11-3.46,7.05-.15,1.61,4.49-4.95.31.59,2.45c.06.27-.89.56-1.2.49-1.26-.28-.82-2.94-1.92-2.91l-4.41.1c-.17,0-.6-.21-.73-.29-.13-.08.03-.74.18-.75ZM20.59,15.78l1.78,3.87c2.07-.05,3.67-.24,6.04.26l-5.76,4.86c-.6.51-2.12.49-2.29-.11.52-.67,1.22-1.39,1.23-1.88,0-.5-.61-1.49-1.02-1.78l-7.48.68c2.51-2.34,4.76-3.88,7.5-5.9ZM24.54,43.36c-.89-3.69-1.53-7.03-2.27-11.04-.14-.74-1.07-1.58-1.72-1.92l-14.23-7.19,15.72,5.11c.85.28,1.93-.06,2.64-.59L50.9,7.91c-3.12,3.55-6.71,6.16-10.12,9.33l-14.62,12.67c-.71.62-1.14,1.64-1.18,2.58l-.43,10.86Z"/>
      <polygon points="17.7 19.9 20.43 19.84 19.76 18.24 17.7 19.9"/>
      <polygon points="33 13.9 32.07 11.63 28.88 11.82 29.84 14.18 33 13.9"/>
    </g>
  </g>
</svg>