<?xml version="1.0" encoding="UTF-8"?>
<svg id="Warstwa_2" data-name="Warstwa 2" xmlns="http://www.w3.org/2000/svg" viewBox="0 0 42.66 61.06">
  <g id="icon-v10-loot-pixarts-store">
    <g id="icon-v10-loot-pixarts-store_122">
      <path d="M39.61,22.96c-.31-1.2-1.32-2.75-2.92-2.51.25,1.37,1.46,3.43.15,4.29-1.6,1.05-3.68,1.44-5.71,1.89l-2.21,4.47c-.43-1.26-.1-2.11.22-3.47-1.02-2.05-5.68-2.66-5.45-4.15.35-2.3,3.77-.09,11.7-5.24l4.32-2.8c.92-.6,1.71-2.59,2.19-3.65l-2.38,2.04c.54-1.77,1.35-3.43.99-5.07-.65-2.99-2.84-5.07-5.48-6.1,2.65,2.12,4.05,5.3,3.18,9.24-.54,2.46-2.79,4.74-5.78,5.97-2.39.98-4.63,2.24-7.3,2.59l-.43-1.83c-2.05-.38-4.32-.37-6.33.31l1.05,5.15-5.23,3.18.23,4.5c-.58-1.08-1.05-2.41-1.64-2.85-.39-.29-1.92.06-2.22.44-.92,1.18,1.08,3.75-.53,5.06-.68-2.84-1.75-3.3-4.05-3.93-1.45-.4-2.11-2.96-1.71-4.42.36-1.33,1.72-2.53,2.96-4.01-3.3.48-4.63,3.66-5.57,6.2l-.46-1.77c-.56,2.04-.96,4.08-.23,6.37l.71-.93,4.21,2.8c1.34.89,2.22,2.75.79,3.96-.65-.19-1.62-1.13-2.28-1.82-.99,2.52,2.74,4.48,3.21,5.66l2.13,5.28,1.27-1.2.02,3.87c1.5,2.01,2.92,3.65,4.89,5.59l.19-4.37,2.08,6.47c.33,1.04,2.55,2.3,3.53,2.91,5.41-4.59,5.38-3.51,6.52-10.15l1.13,3.14c.91-1.24,3.06-3.03,3.05-4.33v-4.04s1.43,1.9,1.43,1.9c1.06-2.56,1.8-4.85,2.34-7.63l-1.13-3.93c.48-1.81,1.92-3.33,3.33-4.16-2.06-.84-3.79.16-5.36,1.47-.27-1.13-.36-3.48.59-4.17,1.53-1.11,3.13-1.54,4.96-2.35,1.1-.49,1.34-2.64,1.03-3.85ZM27.12,45.55c-3.18,1.84-7.35.8-8.98-2.46,0,3.97,3.32,6.04,7.41,6.17-3.17,1.68-7,.51-8.81-2.52-1.79-2.99-1.15-6.93,2.05-8.86-3.85-.25-5.39,3.22-5.7,6.83-1.48-3.02-.36-6.73,2.64-8.67,3.03-1.95,6.7-1.16,8.75,1.83.05-3.71-3.13-5.44-6.58-5.46,3.01-1.71,6.83-.32,8.43,2.5,1.73,3.05,1.01,6.66-2.22,8.78,3.45.21,5.49-2.83,5.75-6.63,1.67,2.95.15,6.82-2.73,8.48Z"/>
      <path d="M7.53,18.65l4.81,1.64-2.87.24c2.83.9,5.17,1.36,8.05,1.8.02-.85.01-1.98-.4-2.09l-1.71-.47c-3.11-.85-5.56-1.88-8.16-3.34-3.99-2.25-4.8-7.88-2.16-10.84.19-.22.82-.6.97-.7.09-.06.04.29.03.41l-.09,1.05C12.66.22,27.49.25,36.12,5.57,30.18-2.47,12.76-.94,4.55,4.68c-3.37,2.31-3.72,5.84-1.93,9.03l-2.62-2.41c1.12,3.65,4.14,6.19,7.53,7.35Z"/>
      <path d="M32.82,9.99c-2.13.17-3.46,1.9-3.72,4.05-.1.82.87,1.95,1.79,2.75,2.42-2.12-1.93-3.54,1.93-6.8Z"/>
      <path d="M39.67,30.24c1.02.28,2.51-.44,2.91-1.66.25-.76-.2-2.31-.57-2.89-.69,1.89-1.34,3.21-2.34,4.55Z"/>
    </g>
  </g>
</svg>