<?xml version="1.0" encoding="UTF-8"?>
<svg id="Warstwa_2" data-name="Warstwa 2" xmlns="http://www.w3.org/2000/svg" viewBox="0 0 59.81 48.96">
  <g id="icon-v10-loot-pixarts-store">
    <g id="icon-v10-loot-pixarts-store_168">
      <path d="M12.23,45.4c3.2,1.18,6.45,2.26,8.54-1.12l1.06.44c.2.08-.1.46-.25.91.91.17,1.69-.2,2.57-.96.43,3.51,4.4,4.26,4.49,3.8.02-.1.07-.2.18-.48l1.86.94c4.59.23,9.03-.64,13.07-2.92,1.09-.61,1.63-2.01,2.16-3.03l.17,1.94c2.93-1.9,7.44-5.65,4.54-9.42-.97-1.26-3.04-1.64-4.72-.89-3.7,1.66-6.27,7.22-17.01,5.67-2.6-.38-4.6,1.28-4.9,3.85l-1.26-1.94c-.37.74-.68,1.2-1.37,1.17,0-2.46-1.01-4.26-3.28-5.02-3.69-1.23-4.27-2.33-6.97-2.58l.84-.69c-5.5-4.85-1.75-9.8-7.7-10.95-.58-.54,1.54-.96,1.09-1.55l-.86-1.15c6.58-.77,4.31-4.51,8.93-9.34,2.71-2.83,9.08-3.1,7.53-9.16.78.65,1.98,1.14,2.45.62l.08-1.86-1.77-1.67-1.21,2.27c-3.19-3.19-7.09-.45-9.99,1.21l.84.56c-4.02-.09-8.4,7.65-9.61,10.92-.88,2.37.02,4.62,1.67,6.17l-.38.87c-.05.12-.17.04-.25-.06l-.45-.56c-.12.24-.41,1.15-.33,1.51s.6.68,1.22,1.27c-4.12,1.38-3.5,5.96-2.31,9.16,1.74,4.68,6.76,10.39,11.33,12.08Z"/>
      <path d="M19.24,13.11c-.27.44,1.13,1.3,1.45,1.19l-2.61.58c-2.49,2.35-6.87,11.6-2.42,13.76l-.1-2.6,1.55,3.11,2.13-1.86-.71,1.84c2.13.11,3.33-1.69,3.93-3.52.57-1.73.06-2.63-1.59-3.83.84.03,1.46.24,2.29.74,1.29-2.75,3.32-4.98,5.58-7.15,1.3-1.25.48-3.71-.42-4.86,1.3.49,1.95,1.86,2.05,3.62l5.17-2.63c1.16-.59,1.12-1.98,1.66-3.33l.23,2.87,4.05-.12c1.7-.05,3.32-.97,4.13-2.45l-1.98-.05,2.21-1.38-2.2-2.22c.7.12,1.53.39,2.37.7-.57-4.85-10.22-3.3-13.31-1.82-.72.92-1.12,2.37-1.47,3.47l-.32-2.2c-.28-.1-1.38-.11-1.85.1-3.85,1.76-7.58,4.34-9.87,8.03Z"/>
      <path d="M49.34,11.17l-1.16-1.63c-2.71,5.03,6.04,7.65,2.32,17.19-.89,2.28-.34,4.61,1.52,6.29l-2.09.42c.2,1.16,2.86,1.86,2.48,2.2.12-.11.46-.48.48-.65l.18-1.69c7.89,1.22,7.86-14.56,5-19.15l-2.5-1.08,1.8-.37c-1.16-2.95-3.63-5.82-7.01-4.95l.69,1.44-1.83-.46.12,2.44Z"/>
      <path d="M43.76,20.36c-2.66-.95-5.42.71-6.41,3.21,1.15.31,1.85.97,1.93,2.01-.62-.65-2.2-1.49-3.02-.93l-3.98,2.67c.45.62,1.03,1.63,1.14,2.32l-2.54-1.8c-2-.08-7.72,1.47-6.42,3.82.12.22-.35.63-.57.6-.93-.13-1.05-1.68-1.88-1.11l-.79,1.77.85,1.97,2.13-1.47c.52,2.24,2.44,3.37,4.7,3.3,4.16-.14,7.94-1.9,11.26-4.33,3.22-2.36,8.14-6.94,5.22-11.06l2.01-1.1-1.16-1.68-2.34-.53-.12,2.37Z"/>
      <path d="M17.31,29.7c-.85-.35-2.37.59-2.38,1.37l1.71,1.31c.78-.28,1.26-.42,1.96-.56.32-.47-.62-1.84-1.28-2.11Z"/>
      <path d="M48.94,7.8c.34-.21-.07-1.54-.46-1.51-.43.04-1.34.18-1.74.29l.2,2.46,2-1.24Z"/>
    </g>
  </g>
</svg>