<?xml version="1.0" encoding="UTF-8"?>
<svg id="Warstwa_2" data-name="Warstwa 2" xmlns="http://www.w3.org/2000/svg" viewBox="0 0 48.13 64.32">
  <g id="icon-v10-loot-pixarts-store">
    <g id="icon-v10-loot-pixarts-store_281">
      <path d="M39.23,14.81l-3.67,1.29c1.37-1.69,2.6-2.67,2.82-4.86l-5.94,4.06c1.41-1.69,2.68-3.25,2.76-5.72l-4.77,3.74c-1.48,1.16-2.43,3.28-1.62,4.84.5.06,1.57.16,1.9.38.47.31.66,1.83.48,2.36-.18.53-1.02,1.3-1.5,1.46l-4.12-2.71-1.58-2.89-1.65,3.01-4.07,2.62c-.57-.19-1.37-1.19-1.46-1.8-.08-.53.22-1.96.71-2.17.37-.16,1.44-.23,1.83-.26,1-1.87-.34-3.87-1.91-5.12l-4.65-3.72c.39,1.93,1.05,3.3,1.98,5.31l-4.94-3.47c.05,2.48,1.71,3.64,3.28,5.32l-4.07-1.74c.36,1.97,1.73,2.75,3.45,3.94l-3.29-.31c.76,1.61,2,1.92,3.79,2.55l-2.49.92c1.3.76,2.32.9,4.01,1.15l-2.31,1.1c1.15.57,1.8.6,2.96.58l-.9,1.1c1.23.61,1.59.84,2.49,1.49.19-1.24.4-2.54,1.18-3.29-.59,3.09.39,5.46,2.81,7.07-.45.31-1.43,1.01-1.12,1.16l1.31.62c.37.18,1.24.99,1.08,1.37-.13.32-.61.65-1,.96l.76,1.31.51,2.08c1.05,4.27-.47,10.4-.13,12.8.96,6.71-1.06,13.3,2.04,13.01,2.78-.26.32-3.99,2.41-4.02.39,0,.82.52,1.28,1.33l4.7.04-.14-2.23c-1.58,1.09-2.5,1.55-3.71.29l3.78-1.74-5.02-.66c.86-1.71,2.12-.37,4.81-1.13.24-.07.08-.92-.16-.92-.16,0-.88,0-1.03-.06l-2.74-1.1c1.5-1.49,2.61-.62,3.95.5l.21-2.49-4.63.13c-.64.75-1.27,1.14-1.76,1.06-.42-.07-.66-1.28-.47-1.7.6-1.26.32-1.85.17-3.02-.34-2.61-.85-11.53,1.21-13.43-.19-.28-.98-.94-.95-1.34.02-.33.7-.8,1.02-.97l1.68-.89-2.01-.93c3.13-.99,4.07-4.24,3.45-7.23l1.33,2.28c.34.58,1.94.18,2.29-.27l-1.39-1.15c1.33.09,1.99.14,3.4-.55l-2.3-1.13c1.45-.16,2.79-.07,3.88-1.25l-2.35-.7c1.9-.59,3.23-1.19,3.77-2.69l-3.3.42c1.63-1.31,3.18-1.81,3.66-3.94ZM24.22,30.68c-.9-.08-4.36-2.26-4.45-4.54-.07-1.69.81-3.21,2.35-4.05,2.11-1.15,4.63-.17,5.7,1.82,2.19,4.07-3.7,6.75-3.6,6.76Z"/>
      <path d="M7.83,13.36c.71-.2,1.15.35,2.05.69l-1.46-3.5C5.37,8.3,3.34,5.51,2.23,1.95c-1.42,4.92,1.8,9.37,5.59,11.41Z"/>
      <path d="M38.37,10.13c.21-.16,1.19-.33,1.18-.05-.01.21-.07.89-.14,1.1l-1.01,2.85,1.69-1.29.28,1.07c4.2-3.12,7.31-7.68,5.38-12.12-.29,3.61-3.41,7.17-6.21,8.9,2.07-3.35,4.95-6.39,2.41-10.59-.7,7.14-6.35,7.88-6.21,12.13l2.64-2Z"/>
      <path d="M9.76,10.05l2.89,2.23C12.24,7.73,7.12,6.81,6.13.13c-2.38,2.73.82,10.2,3.62,9.92Z"/>
      <path d="M9.04,17.09c-.58-4.06-5.83-4.71-9.04-9.02.51,4.87,4.73,8.11,9.04,9.02Z"/>
      <path d="M40.69,14.09l-1.61,2.96c4.78-.96,8.47-4.03,9.05-8.76-2.13,2.42-4.51,4.11-7.45,5.81Z"/>
      <path d="M39.28,19.6c3.65-.19,6.58-1.97,7.87-5.03-3.48,2.22-7.49,1.95-7.87,5.03Z"/>
      <path d="M8.67,19.62l-.15-1.67c-.03-.3-1.01-.44-1.43-.62l-5.95-2.6c1.32,2.97,4.53,4.7,7.53,4.89Z"/>
      <path d="M38.31,22.08c2.52.36,5.42-.51,6.76-2.85l-6.01,1.21c-.48.1-1.16,1.34-.75,1.64Z"/>
      <path d="M9.18,20.24l-5.67-.75c1.1,1.85,3.63,2.96,6.18,2.5.53-.1.07-1.67-.51-1.75Z"/>
      <path d="M9.92,22.78l-3.9.29c1.65,1.42,3.69,1.87,5.68.92-.11-.41-1.23-1.25-1.78-1.21Z"/>
      <path d="M42.25,22.9h-4.69c-.38,0-1.25,1-.92,1.18,1.82.87,4.32.31,5.61-1.18Z"/>
      <path d="M8.48,26c1.75.78,3.37.46,4.85-.32-1.53-1.46-3.36-.49-4.85.32Z"/>
      <path d="M34.93,25.15c1,1.87,3.11,1.64,4.63.69-1.54-.72-3.01-1.05-4.63-.69Z"/>
      <path d="M31.49,27.71l.06,1.22c1.2.44,1.82.62,3.29.68l-2.3-2.17c-.35.04-1.06.02-1.05.27Z"/>
      <path d="M33.62,26.64l-.32.85c1.33.56,2.4.89,3.82.54l-2.32-1.6c-.16-.11-1.11.03-1.18.21Z"/>
      <path d="M13.45,29.4c1.13.31,2.47.13,3.52-1.26-1.31-1.47-2.46.28-3.52,1.26Z"/>
      <path d="M13.34,26.59l-2.18,1.28c1.24.63,2.59.24,3.63-.6.08-.27-1.13-.87-1.46-.68Z"/>
      <path d="M15.78,30.6c.96-.1,1.37-.17,1.83-.38.32-.14.26-1,.03-1.72-.72.67-1.07,1.07-1.86,2.09Z"/>
    </g>
  </g>
</svg>