<?xml version="1.0" encoding="UTF-8"?>
<svg id="Warstwa_2" data-name="Warstwa 2" xmlns="http://www.w3.org/2000/svg" viewBox="0 0 61.22 60.99">
  <g id="icon-v10-loot-pixarts-store">
    <g id="icon-v10-loot-pixarts-store_240">
      <path d="M53.28,21.44c-.04-1.95.54-4.23-.21-5.96-1.34-3.13-4.93-4.39-8.07-4.09l.62.87-3.7-.35-3.02-.3c-.37,1.41,2.27,3.08-.19,4.9.11-1.96.55-4.15-1.51-4.63.68,1.19,1.29,4.12-.43,4.48-3.03.63-6.3-1.24-8.21-3.52l-4.01-.22.79.61-3.62.38,1.38.85c-1.52-.21-2.66-.19-3.97.37l1.85,2.19c-2.03-1.01-3.71-1.42-6.16-1.2,1.75,1.11,3.37,2.58,3.99,4.79l-2.37-2.38c-1.23-1.23-3.59-2.49-5.24-1.41-.68.45-1.88,1.48-2.48,2.08-1.64,3.75-.25,5.29-2.39,8.2-.38.51-.68,2.14,0,2.45l15.64,7.27c.14-3.83-.35-7.27-1.1-10.92,1.66,1.52,1.25,3.77,1.5,5.84l.64,5.41,27.04-5.92c1.92-.42,3.87-.97,5.74-1.49,1.35-3.53-2.44-4.54-2.52-8.3ZM19.88,33.66l-11.66-5.57,2.3-7.83c.34-1.16,2.51-1.17,3.53-.6,5,2.79,6.4,8.52,5.83,14.01ZM49.07,15.33c.68.78.4,2.49-.21,3.35-.48.68-1.84,1.51-2.78,1.44l-3.55-.27c.3-1.27.58-2.43,1.17-3.5,1.03-1.89,3.83-2.77,5.36-1.02ZM46.33,13.61c-1.76.22-3.12,1.14-4.04,2.87-.01-2.12,1.74-3.34,4.04-2.87ZM36.47,20.64c1.63-.63,3.81-.72,4.99.39-3.06-1.04-5.55.08-7.58,2.67.39-1.33,1.52-2.64,2.59-3.05ZM32.63,29.38c-1.89-1.98-4.3-2.43-6.88-1.04,1.85-2.34,5.7-1.98,6.88,1.04ZM31.03,18.88c-2.1-1.84-3.87-2.63-6.45-2.56,2.48-.82,5.35.03,6.45,2.56ZM21.39,20.53c.76-1.96,2.73-3.04,4.58-3.28,2.28-.29,3.77,1.28,5.15,3.06l.54.7s-4.01,3.89-6.79,1.95l-3.49-2.44ZM23.56,23.44c2.47.95,5.06,1,7.59-.55-1.63,2.33-5.47,3.07-7.59.55ZM25.67,33.67c2.08.46,3.51.68,5.79.57-1.67.79-4.31,1.16-5.79-.57ZM33.18,32.08l-.87-.13c-1.07,1.31-3.43,2.54-5,1.27l-2.8-2.28c1.25-1.29,2.64-2.32,4.12-2.42,1.82-.12,3.03,1.32,4.23,2.61l.42.45c.08.09,0,.52-.11.5ZM40.17,31.37c-1.9.11-3.57-.16-4.51-1.65,3.08,1.47,6.04,1.27,8.27-1.34-.39,1.63-1.76,2.87-3.76,2.99ZM37.15,29.35l-4.21-1.97,2.57-3.53c.86-1.18,2.79-2.03,4.19-1.97,1.87.08,3.88,1.9,4.96,3.15-.07-.08-2.63,6.61-7.51,4.32ZM49.78,18.85c-.21,2.46-2.5,3.18-4.8,2.31,1.88-.1,3.68-.6,4.8-2.31ZM52.9,27.75c-.61-.69-1.2-1.48-1.66-1.81-.46-.33-1.98,0-2.19.18l1.29,1.08c.29.24-.05,1.31-.51,1.32-.63,0-.69-.83-1.06-2.34l-1.64,2.03c1.88,1.68,3.9.85,5.34-.69-.06.6-.73,1.94-1.25,2.1-1.72.53-3.84.15-5.38-.71.77-2.11,2.32-3.96,4.66-3.87,1.43.06,3.27.99,2.4,2.71Z"/>
      <path d="M23.26,38.48c.29,6.39.28,12.35.12,19.13l5.82-1.47c.02-.71-.22-2.16-.72-2.14l-2.87.15c.67-5.36-.43-6.57.52-10.94.32-1.46.13-3.08,2.27-3.7l7.74-2.22c2.46-.71.93,3.72,3.99,4.07.81.09,2.53-.68,2.72-1.61l.8-3.89,8.64-1.78c.57,1.13.25,2.44-.25,3.21.12.47.25,1.19.23,1.73l-.24,8.23c-.56.85-2.68,1.62-1.45,3.12l4.14-1.44c-1.23-6.04-.43-11.6,1.19-17.88l-32.65,7.42ZM41.52,39.29c.02.35-.75,1-1.01.83-.77-.51-.63-1.15-.86-3.51-.04-.4.77-.99,1.26-.99,1.2,0,.44,1.04.61,3.67Z"/>
      <path d="M32.43,49.52l-.6,3.18c-.31,1.62-.59,4.28.51,5.39,2.08,2.1,4.51,3.49,7.28,2.64,1.36-.42,2.56-1.42,2.84-2.5.29-1.13-.11-2.64-.8-3.38-.31,1.48-.56,2.81-1.57,3.43-1.54.95-3.29.48-4.36-.44-3.02-2.59-.11-6.09,1.69-8.33,1.5-1.86,2.7-4.56,1.34-6.82l-2.6-4.31-3.17,4.27,1.83,2.31.38-1.46c.74,2.57-1.14,4.43-2.78,6.01Z"/>
      <path d="M9.77,49.29l1.25-5.05c1.32-5.33,6.09-1.16,7.65-3.4-2.07-1.34-4.09-3.32-6.4-3.49-3.6-.27-5.62,3.75-5.15,6.94.31,2.11.34,4.1-.75,5.75-.73,1.11-2.35,1.53-3.46,1.03-.78-.34-1.49-1.68-1.38-2.64l1.22-1.67c-2.37.28-2.96,2.46-2.69,4,.34,1.96,1.8,2.93,3.87,3.37,1.1.23,4.74-.38,5.85-4.85Z"/>
      <path d="M57.89,53.97c-2.84-1.49-5.33,1.03-7.5-.82-2.64-2.25.98-7.46-2.28-10.21-1.26-1.06-2.92-2.18-4.22-3.08-.95,1.24-2.13,2.08-3.46,2.81-.66,2.08,3.71,1.36,5.04,2.96,1.04,1.24,1.16,3.33,1.25,4.76l-1.08.38c-.23.08.19,1.1.37,1.31l3.05,3.53-.44.65c-.06.09,3.17.47,5.23-.53,2.12-1.02,3.78-.69,5.5,1.11.13-1.14-.66-2.45-1.47-2.88Z"/>
      <path d="M20.29,54.26c-.24,1.64.71,3,2.24,3.04.17-4.55.54-9.09.01-13.62l-.61-5.32-15.8-7.36,1.52,7.52,1.91-1.81-.36-2.38,10.51,5.42c1.93,3.6,1.14,10.6.58,14.51Z"/>
      <path d="M14.67,57.99c-.59.08-1.63-.09-1.77-.51l-.66-2c-.3.44-.58,1.66-.49,2.37.08.62,1.18,1.64,1.91,1.82,2.53.61,4.45-.67,5.37-2.47,2-3.92-2.67-5.46-1.68-8.35.22-.65,1.27-1.2,2-1.91.89-.88.47-3.26-.14-4.36-2.88.37-5.04,2.86-5.7,5.54-1.19,4.84,4.08,4.87,3.35,8.16-.16.71-1.27,1.59-2.19,1.71Z"/>
      <path d="M10.43,10.38c3.26,1.24,1.99,4.53,3.47,4.6.95.05,1.95-.08,3.12-.22-.92-4.13-4.29-7.57-8.39-6.91-1.97.32-3.86,1.44-4.74,3.59-.44,1.08-.46,2.5,0,3.71.31.81,1.51,1.69,2.66,1.75-.56-1.11-1.35-2.27-1.22-3.17.23-1.55,2.3-4.4,5.09-3.34Z"/>
      <path d="M23.09,1.53c-1.35-1.7-3.85-2.13-5.37-.53,1.52.05,2.87.2,3.61,1.3.61.9.67,2.52.03,3.51l-2.05,3.16c-.83,1.28-1.04,3.61.52,4.51.44-.57.36-1.41.4-2.35.18.27.43,1.56.84,1.47l1.89-.43c-1.9-4,3.22-6.74.13-10.63Z"/>
      <path d="M59.44,34.4l1.46-1.55c-1.07,0-2.37.55-2.72,1.29-1.33,2.81,2.16,4.39.56,6.76-.35.51-1.87.5-2.19.1l-1.32-1.67c-.14.71-.26,1.71-.23,2.67.03,1.34,1.3,1.82,2.67,1.94,1.33.11,2.33-.09,2.94-1.08,2.23-3.59-2.53-7-1.17-8.45Z"/>
      <path d="M50.77,5.37c1.1.31,1.67,1.45,2.01,2.71.98-2.37-.78-4.42-3.08-4.83-1.85-.33-3.8.54-4.67,1.8-1.12,1.63-1.22,3.37-.77,5.28h3.3c-.75-1.43-.98-2.69-.16-3.76.82-1.07,2.02-1.58,3.37-1.2Z"/>
      <path d="M1.8,38.2c.67,1.97,2.58,3.19,4.64,2.51l-.03-2.34c-1.25-.3-2.19-.51-2.52-1.06-1.48-2.46,1.43-3.95.28-6.95-.4-1.04-1.27-2.29-2.9-2.02,4.34,3.71-1.11,5.06.53,9.86Z"/>
      <path d="M28.04,43.36c-1.32.47-2.09,1.83-1.03,3.6.49.82,2.03,1.18,3.06.83.74-.25,1.52-1.17,2.04-2.16.89-1.69.05-3.6-1.07-5.15-1.5.22-3,1.28-3.59,2.44.96-.47,2.38-.97,3.06-.48.96.69,1.54,1.89,1.39,2.77-1.05-1.88-2.21-2.45-3.86-1.86ZM29.69,46.52c-.28.11-1.14-.36-1.16-.64-.02-.35.19-1.06.41-1.32.73-.41,1.52,1.66.75,1.95Z"/>
      <path d="M34.53,12.52c.32.58.53,2.07.57,2.78.02.47,1.45.61,1.73.22.99-1.34-.3-4.22-2.92-4.76-1.69-.35-3.64.17-4.61,1.31.88,1.76,2.77,2.78,4.38,3.04l-.48-1.75c-.1-.36,1.14-1.18,1.33-.83Z"/>
      <path d="M36.16,54.2l7.97-2.13c.47-.22.45-1.81.14-2.24l-5.51,1.38c-1.48.37-2.79,1.28-2.59,2.99Z"/>
      <path d="M51.17,38.38c-.62-1.17-2.08-1.59-3.32-1.21-.79.24-2.07,1.34-1.7,2.57.3.98,2.21,2.2,3.17,2.09,1.95-.23,2.54-2.13,1.85-3.44ZM49.21,40.59c-.4.14-1.19-.74-1.23-1.1s.29-1.25.69-1.43c.32-.15,1.19.66,1.38.97.21.36-.07,1.29-.83,1.56Z"/>
      <path d="M54.5,18.01c.22.59.49,1.14.8,1.72-.48.27-1.13,2.03-.99,2.78.04.24.93.63,1.03.42l.57-1.19-.17,1.92c-.04.39-.25,1.18-.04,1.25l1.06.35c1.14-3.55,1.05-5.27-2.26-7.26Z"/>
      <path d="M26.82,52.96c1.29.26,3.32-.71,3.38-2.18l-2.21.86c-.44-1.58-.52-2.33-1.7-3.31l.53,4.64Z"/>
      <path d="M42.51,47.56l-.58.96c-.1.17-.52-.23-.63-.38l-.57-.75-.64,2.38c1.44-.24,2.53-.48,3.99-.9-.38-.71-1.33-1.69-1.56-1.3Z"/>
      <path d="M50.96,47.18c.61-1.51.4-2.56.07-4.07l-1,.72.92,3.35Z"/>
      <path d="M11.79,49.22c-.34-.15-1,1.41-.65,1.56l1.43.61c0-.82-.26-1.94-.78-2.18Z"/>
      <path d="M12.72,20.77c-1.71.51-2.67,5.27-2.77,7.15,3.15,1.71,5.95,2.82,9.1,3.86,1.09-4.4-3.91-11.73-6.32-11.01ZM17.8,27.68c-1.2,1.59-3.3,1.98-4.68,1.18-1.32-.77-2.49-2.88-1.44-4.36.7-.98,2.79-1.08,3.74-.34,1,.78,1.94,2.27,2.38,3.52Z"/>
      <path d="M38.75,22.85c-1.93.54-3.58,2.12-3.8,4.21,2.05,1.61,5.07,2.5,6.83.72.58-.59,1.18-2.16.9-2.99-.57-1.69-2.42-2.36-3.93-1.93ZM39.87,27.98c-.61-1.23-.73-2.7-.45-4.2,1.4.84,1.69,2.61.45,4.2Z"/>
      <path d="M29.9,21.08c.27-1.75-1.88-2.95-3.15-3.08-1.38-.14-3.52.54-3.74,2.26.35,1.07,2.06,2.11,3.08,2.29,1.17.2,3.63-.28,3.81-1.46ZM26.85,19.13c1.01.25,1.32,1.87.03,2.81-.51-.68-.56-2.33-.03-2.81Z"/>
      <path d="M47.97,18.55c.69-.51.82-2.01.5-2.54-.33-.54-1.71-1-2.4-.75-1.64.6-2.23,2.14-2.31,3.78,1.42.23,3,.4,4.21-.5ZM46.99,16.13l.59,1.89-1.16.36-.59-1.89,1.16-.36Z"/>
      <path d="M28.64,29.36c-.76-.01-2.45.64-2.46,1.55-.02,1.22,1.63,1.98,2.46,2.08.91.1,2.87-.59,2.75-1.71-.16-1.41-1.86-1.9-2.75-1.92ZM28.89,32.16c-.34.13-.89-.95-.68-1.22l.83-1.07c.71.6.79,1.92-.15,2.29Z"/>
      <path d="M12.89,24.65c-.34.27-.74.99-.67,1.43.18,1.15,1.05,2.16,1.92,2.32.88.17,2.32-.33,2.72-1.1-.37-.84-1.12-1.92-1.86-2.63-.36-.34-1.77-.3-2.11-.03Z"/>
    </g>
  </g>
</svg>