<?xml version="1.0" encoding="UTF-8"?>
<svg id="Warstwa_2" data-name="Warstwa 2" xmlns="http://www.w3.org/2000/svg" viewBox="0 0 51.18 58.89">
  <g id="icon-v10-loot-pixarts-store">
    <g id="icon-v10-loot-pixarts-store_48">
      <path d="M20.22,58.46c1.63-4.27,1.27-8.68-1.29-12.46l-7.58-11.19c-6.16-9.09-.45-21.12,7.06-25.7,2.66-1.62,5.81-2.53,8.88-2.9,5.13-.61,10.21,1.29,14.08,4.72,2.27,2.01,3.06,4.52,3.57,7.23,1,5.29-1.98,10.04-7.24,11.33-2.16.53-4.41.3-6.12-1.13-1.53-1.28-2.69-3.31-2.37-5.65.15-1.09,1.09-2.19,1.86-2.53.86-.38,2.71-.4,3.15.34.34.57.61,1.51.85,2.15.87-1.11.63-2.64-.19-3.66-.57-.71-2.01-1.32-3.09-1.32-2.37,0-4,1.45-5.02,2.93-2.3,3.32-.76,9.53,3.85,12.03,4.02,2.18,8.79,2.11,12.91-.43l-1.39-.92,1.79-1c.18-.1.87-.04.87.16v1.02c3.3-2.54,6.03-6.37,6.33-10.89.51-7.52-4.14-14.76-10.9-17.99C34.08-.34,27.37-.59,20.81.87l.86,1.16c-3.73,1.26-3.63-.88-8.13,1.83C7.8,7.31,3.01,12.68,1.09,19.18c-1.59,5.36-1.58,11.01.96,15.87,3.68,7.03,9.99,9.88,7.16,18.76,1.91,1.48,8.87,5.06,11.01,4.65ZM13.87,49.32c-.96.43-1.89-2.2-1.27-2.85,1.07-.32,2.71,2.2,1.27,2.85ZM12.05,43.18c.13-.26.94-.32,1.14-.12.27.27.34.87.3,1.78-1.05-.11-1.7-1.12-1.44-1.66ZM45.11,8.39c-1.4.36-2.84-.42-3.02-1.96,1.13.21,2.19.94,3.02,1.96ZM42.15,5.35c-1,.22-1.86-.23-2.15-1.31.87-.2,1.7.36,2.15,1.31ZM2.67,23.22c-1.36-1.13-.96-2.95.31-3.92.52,1.29.26,2.72-.31,3.92ZM4.6,21.09c-.44-.23-.97-1.07-.77-1.43.33-.58.92-1.28,1.41-1.61.55,1.2.24,2.53-.64,3.04ZM6.36,15.18c-.17.42-.76.73-1.72,1.01l1.48-3.14c.33.62.45,1.6.24,2.12Z"/>
      <path d="M32.24,47.77l-1.79.58-1.71-3.33c-.17-.33.6-1.35.64-1.7.12-1.25-1.64-3.7-2.9-3.79-.41-.03-3.07.51-4.08-2.2-.11-.3.46-1.11.42-1.44-.11-.97-1.48-2.69-2.43-2.82-1.41-.2-3.34-.62-2.79-2.33.29-.89.63-1.78.36-2.63-.89-2.83-3.19-.66-2.59-3.71.09-.46.68-.83,1.38-1.37,1.77-1.38-.37-4.49.07-5.18.8-1.27,4.87-1.42,4.48-4.04-.18-1.17-.33-1.76.83-2.5.79-.51,1.14,0,2.11.85.82-.04,2.69-.65,3.18-1.18.29-1.13.47-1.82,1.55-1.9.77-.05,1.29.76,1.77,1.48.41.61,2.39.94,2.9.41.68-.7,1.23-1.17,2.1-.69.71.39.77,1,.91,1.83.23,1.42,2.18,1.83,3.43,1.12.54.48,1.33,1.56,1.42,2.01-.67.9-.98,1.42-.79,2.09.23.79,1.06,1.25,1.75,1.56.51.23.67,1.84.16,2.03-.59.22-1.65.86-1.69,1.35-.04.43.23,1.21.42,1.75.21.57-.57,2.04-1.16,1.93-.57-.11-1.27-.38-1.62-.26-1.31.48-1.01,1.88-2.14,2.28-1.31.47-1.5-2.38-4.35-.82,1.7,1.68,3.94,1.72,5.91,1.07,3.69-1.22,5.61-4.38,5.7-8.15.1-4.21-1.79-7.72-5.45-9.9-4.28-2.55-9.38-3.05-14.31-1.62l-5.08,1.48c-.39.11-1.06,1.14-1.37,1.49-2.65,2.94-5.41,6.32-6.57,10.28-1.3,4.43-.11,9.16,2.43,12.92l6.57,9.71c2.86,4.22,3.12,9.19,1.84,14.26,3.88.58,7.52-.07,10.84-1.33l-.14-2.82,1.56-.89c.39-2.22-.24-4.49-1.77-5.87ZM13.7,18.98c.31-.23.56-.44.76-.43.92.03,1.99,2.27.6,4.49-.2.33-.78.89-1.1,1.02-.38.16-1.18-.24-1.75-.6l1.71-.36c.33-.07.64-.81.8-1.22.51-1.26.13-2.38-1.03-2.92ZM13.57,31.98c1.17-.46,1.71-1.52,1.29-2.89-.13-.43-.61-1.41-1.01-1.55-.4-.14-.96-.12-1.9-.17.39-.37.81-.73,1.12-.89,1-.5,2.82,1.27,2.75,4.23-.03,1.42-1.31,1.99-2.25,1.26ZM19.91,39.06c-.46.06-1.41-.1-1.81-.2.65-.37,1.49-.74,1.57-1.08.16-.7-.5-2.1-1.01-2.54-.77-.67-1.75-.94-3.03-.54,0,.03,0-.45-.02-.66,0-.28.79-.66,1.14-.62,1.79.19,3.83,2.01,3.88,4.11,0,.4-.33,1.5-.72,1.55ZM23.48,46.97l1.7-.56c.42-.14.41-1.5.23-1.95-.62-1.54-2.36-3.13-4.23-2.13-.12-1,.94-1.55,1.85-1.34,2.17.51,3.75,2.68,3.6,4.95-.04.55-.69,1.65-1.18,1.7-.5.05-1.49-.33-1.97-.67ZM29.43,56c-.27.52-1.23,1.13-1.73,1.25-.64.15-1.86-.37-2.32-1.05.87,0,1.94.11,2.5-.17.98-.49,1.79-3.42-.24-5.22-.52-.46-1.66-.25-2.67,0,.21-.55,1.12-1.29,1.72-1.29.67,0,1.83.44,2.22.93,1.28,1.62,1.43,3.83.54,5.55ZM26.93,51.81c.7.62.75,1.57.44,2.97-.49-.26-1.04-.71-1.16-1.07-.15-.5.23-1.47.71-1.9Z"/>
      <path d="M31.55,26.16c-.08-1.08-.64-1.66-1.36-2.43-.09.98.07,2.33,1.36,2.43Z"/>
    </g>
  </g>
</svg>