<?xml version="1.0" encoding="UTF-8"?>
<svg id="Warstwa_2" data-name="Warstwa 2" xmlns="http://www.w3.org/2000/svg" viewBox="0 0 50.71 53.24">
  <g id="icon-v10-loot-pixarts-store">
    <g id="icon-v10-loot-pixarts-store_77">
      <path d="M40.84,19.4l-5.33.66c.14,3.91,1.21,7.1,2.49,10.55-3.19-2.81-3.68-6.63-4.72-10.7-.75,2.64-2.16,4.05-4.52,4.58-3.04.69-6.09-.89-6.41-4.25l-9.11-.86c-.01,1.72-.12,3.28-.3,4.94.4.02,1.5.56,1.42,1.14-.05.36-1.14.51-1.68.53l-.96,3.47,1.23,1.14-1.61.62c-.15.06-1,2.52-.72,2.89l1.09,1.45c.13.17-.56.54-.76.46l-.84-.35c-.69,2.21-.65,5.58.14,7.68.21.3,1.27.36,1.66.46.37.09-.43.99-1.04,1.3,2.35,5.16,7.49,8.13,13.26,8.14,10.21.01,13.47-.53,18.8-9.44.12,2.55-1.21,4.53-2.72,6.48,4.69-.1,9.16-3.07,10.25-7.88,1.72-7.6-5.89-10.75-7.72-21.95-.09-.53-1.4-1.11-1.91-1.05ZM35.58,45.76c-2.01.94-3.75,1.62-5.96,1.94,3.09-2.16,5.46-4.09,7.81-7.05-.34,1.88-.98,3.29-1.85,5.12Z"/>
      <path d="M4.6,48.81c2.67,1.65,5.84,2.15,9.11,2.39l-3.73-5.49-1.8-.37,1.1-1.5c-1.24-2.69-1.13-5.51-.48-8.4l-1.56-1.19,2.03-.45.91-2.83c.09-.28-.56-1.16-.57-1.22,1.76-.46,1.95-3.37,1.69-3.54l-1-.67c-.31-.29.84-.98,1.5-1.16l.75-4.91-3.49-.28c-.59-.05-1.59.93-1.69,1.59-.67,4.11-2.15,7.59-4.31,11.05-3.53,5.64-5.14,12.86,1.54,16.99ZM2.79,39.43l2.88,6.97c-2.94-1.03-3.33-3.86-2.88-6.97Z"/>
      <path d="M5.02,16.66c-.11,1.59.4,3.2.98,4.82.55-2.77,1.96-4.12,4.59-3.92l12.2.94c-.04-1.56-.56-2.82-1.29-3.2l-12.35-.78c-1.4-.09-4.02.63-4.13,2.14Z"/>
      <path d="M37.76,14.71l-6.93.69,1.72,3.02c4.58.11,10.89-2.75,11.93,2.96l1.12-4.21c-.3-3.48-5.14-2.72-7.85-2.45Z"/>
      <path d="M27.13,23.07c1.88.21,3.82-.57,4.32-2.79.35-1.57-1.18-3.16-1.85-4.06-.29-.39-.23-2.02-.73-2.07-1.87-.22-4.07-.12-6.03.09,1.36,1.83,1.46,3.34,1.16,5.34-.29,1.92,1.6,3.33,3.13,3.5ZM26.29,17.86c.42-.26,1.63-.2,2.1-.09.5.12,1.07,1.06.99,1.76-.21,1.83-1.88,1.71-2.81,1.23-1.04-.53-1.17-2.36-.28-2.91Z"/>
      <path d="M28.87,1.8c-6.42-3.82-12.48-.66-9.71,1.12,6.13,3.93,12.51.55,9.71-1.12Z"/>
      <path d="M9.22,9.12c-.61.74-.96,2.49-.87,3.31.03.23.86.8.97.59.51-1.02.36-2.82,1.6-3.71.89-.64,2.2-.93,3.15-.83-2.4.59-3.89,2.49-3.16,4.68l4.2.26c.57-1.69,1.32-2.85,2.61-4.16-1.95-2.77-6.26-2.85-8.5-.15Z"/>
      <path d="M30.69,8.92c-1.89.39-3.38,1.94-3.43,3.85,4.74.36,1.83,1.71,7.4.88-.3-2.26-2.11-2.96-4.29-2.98,2.04-1.15,4.44,0,5.12,2.31.06.21.44.69.63.6l.73-.35c-.27-2.9-3.14-4.94-6.17-4.32Z"/>
      <path d="M38.32,12.99c.84.49,2.23-.24,2.32-1.09.31.61.52,1.17.72,1.07,1.3-.61.58-3.18.27-3.67-1.7-2.7-5.28-3.23-7.82-1.39,2.63.68,4.03,2.71,4.5,5.08Z"/>
      <path d="M16.61,13.27c-.04.38,1.06.61,1.18.23.65-2.08,2.98-3.63,5.03-2.5-1.98.2-3.61.83-4.07,2.87,3.3.51,2.7-.89,7.49-1.04-.45-2.79-3.21-4.06-5.89-3.41-1.82.44-3.52,1.93-3.75,3.84Z"/>
      <path d="M27.09,6.05c-.74-.62-4.28-.33-6.54-1-.69,2.54,7.88,2.13,6.54,1Z"/>
    </g>
  </g>
</svg>