<?xml version="1.0" encoding="UTF-8"?>
<svg id="Warstwa_2" data-name="Warstwa 2" xmlns="http://www.w3.org/2000/svg" viewBox="0 0 34.51 56.72">
  <g id="icon-v10-loot-pixarts-store">
    <g id="icon-v10-loot-pixarts-store_02">
      <path d="M22.78,31.8l-2.91,2.94,1.83-5.17-5.55-5.26-6.82,6.22-.05,12.4,6.83,6.26,7.02-6.4c.09-3.83-.01-7.35-.36-10.97Z"/>
      <path d="M25.86,32.88c-.3-1.07.04-2.16-.97-3.03l-.35,13,6.96,3.32.8-11.75c.21-3.02-.22-5.79-.37-8.95-4.4,2.99-4.99,2.59-6.07,7.41Z"/>
      <path d="M3.26,40.91l-1.55,4.98,6.03-3.05.11-12.38L.32,25.34c-.45,6.47-.47,12.39.26,18.52,1.04-1.33,1.58-2.09,2.69-2.95Z"/>
      <path d="M24.12,21.71l.61,6.75,6.66-4.35c-.95-1.15-1.79-1.81-3.02-2.27-4.75-1.78-4.43-6.83-6.19-6.47l-5.2,1.08-.2,6.56,4.95,4.54c2.02-1.65,1.14-4.02,2.39-5.83Z"/>
      <path d="M14.22,22.68l.64.71c.14.15.59-.71.59-.94v-5.95s-5.54-1.27-5.54-1.27l-5.68,5.48,1.37,3.22-.77,2.52,3.71,2.72,5.12-4.68-1.2-3.31c.72.46,1.24.9,1.76,1.49Z"/>
      <path d="M16.85,50.47l.15,6.18c10.9-4,6.17-.4,14.09-9.02l-7.07-3.53-7.16,6.36Z"/>
      <path d="M7.58,47.83l-.47-2.98-5.75,2.78c8.32,8.85,2.46,4.62,14.02,9.09l.09-6.15-6.84-6.2-1.06,3.45Z"/>
      <path d="M10.45,1.13l1.58,5.36c2.8.7,5.61,1.03,8.41-.17l1.44-5.22c-3.88-1.5-7.66-1.45-11.43.03Z"/>
      <path d="M22.59,6.13c-2.24,3-8.64,2.39-11.21,1.48l-1.68-1.65c-1.09,1.33-1.19,3-.47,4.14,4.46,1.83,9.48,1.74,13.95-.03.64-1.22.41-3.18-.58-3.94Z"/>
      <path d="M26.87,13.1l-1.8,2.89c.6,2.63,2.68,4.42,5.19,5.06l2.39-2.44c-2.64-1.07-4.21-2.87-5.79-5.51Z"/>
      <path d="M21.39,13.95c.46-.22.43-1.73.05-1.67-3.66.64-7.39.73-10.83-.09-.05.49.03,1.42.26,1.82,3.1,1.15,7.31,1.46,10.51-.07Z"/>
      <path d="M28.12,11.39c.68,3.17,3.19,5.94,6.39,5.82-.61-3.29-3.23-5.53-6.39-5.82Z"/>
      <path d="M2.78,22.22l-1.87,1.74,3.34,2.3c.63-1.52.2-3.1-1.46-4.04Z"/>
    </g>
  </g>
</svg>