<?xml version="1.0" encoding="UTF-8"?>
<svg id="Warstwa_2" data-name="Warstwa 2" xmlns="http://www.w3.org/2000/svg" viewBox="0 0 28.79 62.46">
  <g id="icon-v10-loot-pixarts-store">
    <g id="icon-v10-loot-pixarts-store_296">
      <path d="M2.61,14.62l.5-1.01c.67,1.29,1.58,2.5,2.55,3.58l-1.9,1.72,2.67-.27-.63-1.39,2.35,1.92c1.18.96,3.01,1.57,2.73,3.49-.07.52-.69,1.37-1.14,1.43-.39.05-1.34-.18-1.35-.57l-.03-1.86c-1.41.8-1.15,2.61-.37,3.35,1.3,1.23,2.81.73,3.8-.26,1.53-1.54,1.37-3.38.08-4.9-.16-.19-.4-.51-.5-.65-.1-.14.36-.37.52-.43s.55.32.61.48l1.1,2.69c.25.62-.57,2.08-.77,2.72.39,1.19,2.5,1.16,3.18.13-1.33-1.99-.4-5.11.95-6.09.15-.11.52.61.37.75-1.22,1.15-2.14,3.72-.32,5.35.92.82,1.77,1.32,3.06.76.85-.37,1.61-1.54,1.4-2.63-.07-.33-.75-1.05-.85-1.04-.06.79-.07,1.48-.31,1.85-.25.37-1.4.5-1.72.18-.27-.27-.6-1.11-.64-1.61-.15-1.52,1.52-2.24,2.57-3.06l2.4-1.87-.43,1.24,2.45.24-1.51-1.66c.37-1.68,1.27-1.05,2.24-3.62l.57.99,2.59-1.89-2.33.07c.11-1.5.11-3.15.33-4.54.22-1.37,1.22-2.73.6-3.99l-.99,1.69-1.95-.85c.09-.06.54-.31.43-.47-1.77-2.53-.37-2.88-3.03-4.59l.71,2.6c-1.46-.1-2.59-.09-3.44-.4l-2.24-.83.94,1.63c-1.19.71-2.28,1.38-2.65,2.2-.45.99-.28,2.23.29,3.18.25.42,1.31,1.03,1.73.81.37-.19,1.19-.78,1.36-.96-.45-.5-1.09-1.06-1.19-1.4-.29-1.12,1.18-2.72,2.39-2.33-1.35,1.13-.72,2.83.3,4.07-1.55.69-2.49,1.58-3.27,3l-1.56-2.21c-.77,2.94,2.67,3.34.88,4.83-1.26,1.04-1.3,2.74-.23,3.9l-1.48,3.02-1.3-3.15c1.05-1.27.68-2.92-.67-3.89-1.29-.92,1.89-2.4,1.2-4.57l-1.63,2.13c-.73-1.57-1.83-2.47-3.4-3.03.5-.57,1.25-1.27,1.27-1.85.03-.71-.26-1.46-.54-2.22.82,0,1.74.6,2.13,1.5.3.69-.22,1.44-1.02,2.16.12.28.54.89.87,1.04.32.14,1.22-.08,1.52-.3.96-.71,1.3-1.84,1.12-3.05-.28-1.93-3.09-2.51-2.8-3.04l.76-1.39-1.98.71c-1,.36-2.12.37-3.62.44L6.99.04c-2.33,1.35-1.44,2.24-3.54,5.4-.21.32-1.21.54-1.34.22l-.58-1.46c-1.17,1.33.44,2.65.53,3.92l.32,4.57-2.37.02,2.61,1.9ZM24.42,11.26c-.81-1.07-2.05-1.74-3.38-2.45-.22-1.08,2.07-2.23,3.13-1.16.74.74.6,2.59.25,3.6ZM20.29,4.98c1.08-.8,2.95-.18,3.39,1.39-1.14-.33-2.06.16-3.16,1.11-.66-.17-.93-1.97-.23-2.5ZM18.37,10.89c.72-1.04,2.31-1.09,3.46-.54.77.37,1.41,1.4,2.05,2.49l-1.53,2.16c-.54-1.71-1.08-3.31-2.23-4.13-.3.85-.47,1.41-.67,1.67-.2.26-.94.07-1.16-.17-.22-.24-.12-1.21.07-1.48ZM16.44,15.68c.13-.18.72-.54.92-.6.26-.09.53.38,1.11,1.14.02.2.7-.86.45-1.07l-1.44-1.24,1.49-.25c.66-.11,1.26-.47,1.88-1.12.39,1.6.26,3.74-1.4,4.97-.64.48-1.7.6-2.37.18-.5-.31-1.02-1.5-.64-2.01ZM11.12,13.88c.14.02-.3.32-.43.45l-.83.77c-.19.18.24,1.16.4,1.01l.97-1.02c.24-.25,1.12.38,1.2.72.09.39-.12,1.19-.34,1.51-.26.37-1.29.77-1.8.61-2.04-.62-3.14-3.23-2.27-5.01.92.55,1.72.79,2.56.9l.53.07ZM10.41,10.86c.17.23.45,1.17.26,1.36-.24.24-.72.39-1.14.45-.32.05-.49-.58-.86-1.77-1.2.75-1.66,2.38-2.14,4.18l-1.57-2.04c.17-1.01,1.01-2.27,1.82-2.66,1.15-.56,2.93-.46,3.63.48ZM8.4,4.81c.75.36.61,2.45-.07,2.57-1.21-.64-2.17-1.09-3.15-1.09.24-1.27,1.91-2.11,3.22-1.48ZM4.45,7.82c1.1-1.18,3.17-.33,3.44.98-1.55.67-2.67,1.3-3.59,2.42-.32-.77-.47-2.73.16-3.4Z"/>
      <path d="M27.18,54.89c-.66.47-1.51,1.08-2.14,1.36-.46.2-1.65-.3-1.8-.73-.15-.44-.18-1.55.25-1.54.81.02,1.23.04,1.5-.17.28-.2.04-1.46-.33-1.43l-3.85.26-.25,1.55c-.05.29-1.01.37-1.12.25l-.27-1.42c-.06-.29-.75-.36-1.2-.44-.31-.05-.71-.71-.69-1.03.09-1.08,1.36.32,2-1.42l.39-1.06c.06-.17.79.25.83.4l.47,1.61,3.94-.04c.34,0,0-1.6-.34-1.53l-1.18.25c-.46-.56-.24-2.17.69-2.42,1.08-.29,2.14.47,2.99,1.16-.36-2.2-2.46-3.65-4.66-3.58l.47.85c-.75.23-1.32.3-1.26.55l.25,1.01c.07.27.01,1.02-.22,1.1-1.36.47-.99-2-1.68-2.1-.4-.06-1.26.06-1.29.36-.04.46-.12,1.23-.42,1.22-.3,0-.95-.38-1.18-.58l-.59-.52c-.09-.08-.24.48-.24.67l.15,9.78,1.11-1.17c.17-.18.87-.04,1,.06.16.72.44,1.26.89,1.26,1.74,0,.48-1.21,1.67-2.04.15-.11.63.03.69.2.06.18.15.73.11.91l-.22.97c-.12.53,1.88-.2,1.06.74l-.39.45c2.39.05,4.33-1.56,4.84-3.76Z"/>
      <path d="M12.88,45.97l.06,11c0,.76-.25,1.61-.58,2.37l2.16,3.11,2.14-3.41c-.54-.62-.94-1.32-.93-2.06l.09-10.95-2.92-.06Z"/>
      <path d="M12.24,41.49c1.34-.26,1.78-1.19,2.16-2.18.44.99.82,1.88,2.22,2.21-1.02-4.79-1.4-7-.26-12.22-.65.38-1.41,1.12-1.85,1.65-.56-.56-1.31-1.26-1.89-1.66.6,3.57,1.01,6.87-.04,10.27-.19.6-.35,1.29-.32,1.93Z"/>
      <path d="M16.84,44.13c-1.77-.52-3.63-.51-5.14.15.28,1.78,5.69,1.63,5.14-.15Z"/>
      <path d="M11.47,27.26c.06.13.24.5.36.6l2.59,2.06,2.04-1.59c.51-.4.94-.85.72-1.53-3.07,3.05-6.42-1.05-5.7.47Z"/>
      <path d="M17.19,42.74c-.1-.08-.41-.41-.53-.45l-2.27-.82-2.02.68c-.25.09-.82.62-.64.77.14.11.57.38.76.38l3.92.03c.2,0,.91-.45.76-.58Z"/>
      <path d="M16.53,26.67l.69-.49c1.93-1.38-4.1.67-4.77-.71l-.77.35c-.61.28,2.38,2.61,4.84.86Z"/>
    </g>
  </g>
</svg>