<?xml version="1.0" encoding="UTF-8"?>
<svg id="Warstwa_2" data-name="Warstwa 2" xmlns="http://www.w3.org/2000/svg" viewBox="0 0 54.66 54.6">
  <g id="icon-v10-loot-pixarts-store">
    <g id="icon-v10-loot-pixarts-store_06">
      <path d="M12.81,14.41c3.8-.34,7.37-1.37,10.59-2.77l-3.68,9.87c-.75-1.82-1.56-3.37-2.82-4.95-.8,1.9-.41,3.78.35,5.61-1.46-.95-2.79-1.72-4.46-2.48.13,1.92,1.42,2.7,2.63,3.87l3.59,3.46,4.13-.71c2.28-.39,4.49-.05,6.23-2.19l-5.3-.16c1.65-1.15,2.74-2.27,2.98-4.17-2.02.42-3.42,1.31-5.09,2.54.72-4.89,2.79-9.24,5.85-13l5.07-6.24c.89,3.23,1.95,5.86,3.3,8.8l-4.99-2.57c.12,2.11,1.41,3.09,2.95,4.32l-5.02.09c1.08,2.31,2.88,1.86,4.82,1.84,1.64-.02,3.6.24,5.16.32,2.22-3.45,6.53-4.65,5.79-7.89l-4.08,3.21c.29-2.21.65-3.82-.61-5.37-1.12,1.72-1.53,3.12-2.23,5.23l-2.43-5.42c-.86-1.93-.37-3.75.45-5.66h-4.66c-1.44,2.17-2.59,4.15-4.33,5.9-4.6,4.64-13.79,8.6-19.89,5.07-2.11-1.22-3.34-3.82-2.27-6.05.31-.64,1.42-1.56,2.06-1.65.61-.09,1.53.5,2.29.92.32-1.13-.75-2.1-1.94-2.09-1.99.01-3.63,1.62-4.25,3.11-.83,2.01-.13,4.05,1.2,5.67,1.67,2.02,4.1,2.58,6.83,3.33-.35,1.34-1.25,2.73-2.33,3.71l-3.03,2.77c3.46-.87,5.47-3.4,7.12-6.29Z"/>
      <path d="M13.72,46.06c6.02-.75,11.4-4.41,13.91-10.04,1.08-2.42.72-6.16-1.48-8.01-1.1-.93-3.48-.26-4.55.12-4.88,1.71-5.21-3.12-7.59-3.47-.85-.12-2.31.34-3,.93-5.92,5.04-2.47,15.75,2.72,20.48ZM22.19,31.6c.03-1.22,2.36-2.28,3.3-1.26l-2.05,1.85c-.02,2.3-.15,3.73-.42,6.11.8-.7,1.61-1.57,2.39-2.47-.11,3.21-4.59,5.21-7.34,5.74l-2.17,1.76c-.02-1.52,1.11-2.64,2.63-2.97,4.55-.99,3.61-6.25,3.68-8.76ZM11.95,31.08c1.66-1.31-1.19-3.25,1.28-4.03.23,1.36.37,2.75,1.23,3.4,3.24,2.48.8,1.27,3.45,5.41-2.86-.61-1.95-3.13-3.65-4.14-.42-.25-1.53.19-1.98.62-1.51,1.47-.78,3.4.51,4.6,1.14,1.06,1.58,2.13,1.21,3.7-.75-1-1.48-1.92-2.37-2.89-1.83-1.98-1.91-4.92.33-6.69Z"/>
      <path d="M41.57,15.41c-3.21,4.55-5.74-.02-8.71,2.17-.67.49-1.51,1.75-1.65,2.82-1.06,7.89,7.56,13.88,14.8,14.12,4.5-4.98,7.76-15.56,1.39-20.4-.89-.67-2.49-1.18-3.51-.81-.75.27-1.79,1.34-2.33,2.11ZM39.27,30.74c-1.49-.4-2.23-1.57-1.92-3.02.11-.51-.47-1.59-.88-1.81-2.41-1.25-3.41-4.03-1.9-6.36.36-.55,1.99-.63,1.91-.09-.72,1.04-1.46,2.11-1.31,2.89.64,3.42,3.41,1.95,3.46,4.93.07,3.87,4.39,2.39,5.28,4.69l-4.64-1.23ZM44.95,16.06c.1-.09.7-.28.94-.28.32,0,.65.86.59,1.2-.57,3.17,3.24,2.46,2.35,10.07l-.71-1.75-1.86,2.79c-.36-2.72,2.29-3.98.34-7.46-.32-.56-1.45-1.02-2.12-.92-2.29.33,0,4.77-4.56,5.67-.05-1.83,2.24-1.29,1.89-3.75-.57-4.03,4.38-1.77,3.14-5.58Z"/>
      <path d="M36.47,38.93l-4.06,1.42.96-4.89,8.21,4.58c3.59,2,5.82,5.69,4.81,9.88-.26,1.07-1.3,2.34-2.29,3.02-.57.39-2.2.34-2.83-.01-.57-.32-1.17-1.26-1.3-2.11-.07-.45.37-1.73.81-1.75l1.93-.09c-.13-.53-1.04-1.34-1.68-1.24-.58.1-1.59.8-1.91,1.34-1.04,1.75-.31,3.59.97,4.61,3.15,2.52,5.53-1.1,6.39.46,2.27-6.22,3.3-7.73-1.5-13.87-6.28-4.86-10.14-4.37-15.72-12.24.1,4.85,4.17,7.15,1.67,11.33l-1.43-1.59-1.63,1.96c.26.91,1.8,2.94,2.82,2.78l4.66-.72c.5-.74.97-2,1.12-2.86Z"/>
      <path d="M28.18,53.54c3.44-.75,9.41-5.86,5.84-9.82-.52-.57-2.44-.13-3.13.25-1.92,1.07-2.48-2.2-4.01-1.61-3.42,1.33-2.29,9.03,1.29,11.18Z"/>
      <path d="M15.52,0c.78,4.12,3.85,8.67,8.4,6.95-1.43-.96-2.63-1.75-3.52-2.91l4.1,1.78C23.95,1.3,19.23.3,15.52,0Z"/>
      <path d="M6.69,21.96l-2.93,3.92,1.1-4.02C.69,23.05.47,27.74,1.32,31.55c3.21-1.94,7.01-5.59,5.37-9.59Z"/>
      <path d="M46.57,39.25l3.4-.49-2.8,2.12c4.42,1.83,6.5-2.56,7.5-5.89-2.81.37-7.89,1.16-8.1,4.26Z"/>
      <path d="M6.5,18.54l-1.91-1.52,2.39.18c-.85-1.55-2.07-2.39-3.47-2.53l-3.51-.35c.81,3.03,3.19,5.3,6.5,4.22Z"/>
      <path d="M10.19,9.14c.1,1.38,1.17,2.78,2.73,2.01-1.03-1.26-2.08-2.37-1.21-4.34-1.21.3-1.57,1.48-1.51,2.33Z"/>
    </g>
  </g>
</svg>