<?xml version="1.0" encoding="UTF-8"?>
<svg id="Warstwa_2" data-name="Warstwa 2" xmlns="http://www.w3.org/2000/svg" viewBox="0 0 44.46 62.49">
  <g id="icon-v10-loot-pixarts-store">
    <g id="icon-v10-loot-pixarts-store_121">
      <path d="M0,32.05c1.36,1.09,3.74,2.52,4.18,4.09l1.78,6.42-3.23,3.32,5.07,1.11,3.79,5.83-1.4,4.24,4.01-1c2.7,2.57,5.26,4.49,8.23,6.43,3.22-2.17,5.63-3.97,8.12-6.55l3.98,1.13-1.39-4.29,3.81-5.8,4.88-.97-3.16-3.45,1.98-6.81c.37-1.26,2.77-2.52,3.82-3.55l-3.72-1.53c-.14-3.05-.9-5.26-2.11-8.11.22-1.83,1.16-4.5,1.73-6.38-1.34,1.09-2.95,2.71-4.81,3.15-1.27.3-6.14-2.1-5.92-6.01.05-.94,1.11-2.08,2.09-3.04l-1.02-2.21c-.16-.35-.15-1.33-.52-1.42l-1.22-.31.54,1.24c.85,1.96-14.55,2.13-14.25.31l.26-1.64s-.82-.02-1.07.17-.42.93-.57,1.36l-.84,2.52c1.83,1.38,2.7,3.56,1.34,5.58-1.01,1.51-3.16,3.62-5.23,3.45-1.71-.14-3.16-1.95-4.82-2.79l1.72,6.07c-1.42,2.45-1.94,4.98-2.16,7.85-.93.85-2.76,1.42-3.87,1.57ZM13.18,20.2c3.15-1.2,4.91-4.09,3.64-7.57,3.87.78,7.23.97,10.92.03-1.51,7.38,4.91,7.08,7.7,9.82,2.07,2.04,2.87,5.13,2.91,7.98.09,7.02-2.02,13.36-5.8,19.35-2.29,3.63-5.04,7.23-9.34,8.31-2.31.58-5.2-1.36-6.87-3.08-6.37-6.56-9.99-15.36-10.04-24.47-.18-4.91,2.33-8.91,6.88-10.37Z"/>
      <path d="M27.79,6.83l1.54-5.62c-4.65-1.51-9.46-1.73-13.95.08l1.59,5.63c3.5,1.57,7.39,1.63,10.82-.1Z"/>
      <path d="M22.29,56.81c9.37-3.96,15.72-19.69,13.46-29.49-.5-2.18-2.2-4.56-4.59-4.91-2.52-.37-5.15.58-7.67.95-1.46-.89-1.06-3.55-.12-5-2.41.98-4.13,3.05-4.12,5.73l-5.29-1.79c-2.88.68-4.71,3.29-5.13,6.18-1.53,10.39,3.93,23.22,13.47,28.33ZM12.64,38.72c1.66,2.08,4.05,3.97,6.59,2.38-3.04-1.38-5.36-3.8-5.02-7.17.17-1.7,1.74-3.27,3-4.04-1.2,2.04-2.04,4.08-.34,5.84,1.31-4.8,4.49-4.37,5.61-6.59.9-1.78-1.82-3.5-1.69-5.45,1.47,1.18,3.23,2.35,4.27,3.72,2.89,3.83-5.99,6.43-2.86,8.19l4.41-3.91-.71,2.04c2.77-.43,5.45.27,6.27,2.92-1.88-1.48-4.38-1.92-6.04.04,2.07.41,3.94,1.72,4.47,3.4.77,2.45-.12,4.49-1.86,6.07.93-1.97,1.35-4.17-.65-5.83.35,2.76-.54,4.78-2.82,6.07l-4.57,2.59.23,3.05c-.79-.76-1.89-2.08-1.82-2.98.24-3.37,5.7-3.03,4.18-6.5-1.54,1.22-3.3,2.06-5.21,1.64-2.72-.59-5.05-2.64-5.44-5.46Z"/>
    </g>
  </g>
</svg>