<?xml version="1.0" encoding="UTF-8"?>
<svg id="Warstwa_2" data-name="Warstwa 2" xmlns="http://www.w3.org/2000/svg" viewBox="0 0 57.3 58.51">
  <g id="icon-v10-loot-pixarts-store">
    <g id="icon-v10-loot-pixarts-store_300">
      <path d="M8.85,53.17l3.86-4.07-.88,6.09c2.25,3.19,5.81,3.82,9.33,2.99,2.69-.63,4.86-2.2,6.57-4.44l4.49-5.91,14.63-16.19,8.73-8.77c1.21-1.22,2.08-3.03,1.57-4.82l-9.91,8.74c1.05-2.43,2.91-3.9,4.59-5.84l2.87-3.33c.76-.88,1.81-2.02,1.85-3,.05-1.13-.7-2.74-1.53-3.11l-9.67,8.31,7.86-8.97c.81-.92.58-3.14-.33-3.87l-4.74-3.79-3.7,3.03,2.39-3.76c-3.83-4.52-5.06,3.35-11.92,5.32,2.49-2.33,4.51-4.34,6.22-7.49l-3.98-.29-8.12,8.61-4.44,4.84,1.8-4.06c.4-.96-.65-3.37-1.55-3.84-1.33-.69-4.58.37-4.94,1.77-1.03,4.08-1.98,7.52-3.49,11.63l2.85-1.65c-2.1,3.3-5.27,5.13-8.16,7.61l-7.64,6.55c-2.86,2.45-4.95,7.28-2.12,10.42,5.18,5.76-1.86,2.75,7.51,11.29ZM45.23,21.57c-.14,3.37-1.13,6.96-3.95,8.67-1.74,1.05-3.12,2.14-4.62,3.51l-3.69,3.38,2.61-4.23c-2.9-.63-4.41.57-6.99,1.53,3.75-5.39,7.84-1.54,12.78-5.94,2.08-1.86,1.47-5.11,3.86-6.92ZM44.36,11.64l-3.48,5.1-.65,9.74-6.35,1.09c-.38.07-1.45-.04-1.81-.11-.45-.08.39-1.73.86-1.83l5.49-1.13-.48-6.46-6.94,1.08c-1.09,9.69,1.29,8.88-7.24,13.73l3.94-6.97c1.33-2.36.71-5.62,1.17-8.4,3.21-.7,6.44-.97,9.4-1.97,2.33-.79,3.56-3.21,6.08-3.88ZM33.47,20.98c.34-.52,2.14-1,2.26-.38l.35,1.72c.09.44-1.27.81-2.17.92-.65.08-.79-1.72-.44-2.27ZM41.94,8.3c-2,2.25-4.97,5.1-9.13,5.1,2.07-3.14,3.87-.96,9.13-5.1ZM29.56,14.13c-6,4.85-1.95,6.37-6.3,11.43,2.38-5.41-.01-9.83,6.3-11.43ZM5.47,32.49c1.03-.98,1.85-1.81,3.19-2.63l-1.17,2.56c5.38,3.05,10.15-5.21,13.71-8.13-1.1,3.94-3.25,6.97-5.05,10.62.81,1.48,2.52,2.91,4.01,3.74l2.57-.96c-.54,1.06-1.23,2.15-.92,2.81.37.79,1.79,2.1,2.55,1.94,1.93-1.97,3.84-4.22,6.08-5.16l-6.39,7.26c-.19,1.12.59,2.95,1.48,3.98,3.87-2.2,5.69-7.37,11.06-9.57-1.07,1.61-2.69,2.48-3.76,3.8-2.17,2.67-4.56,5.32-6.5,8.02-1.1,1.54-.93,2.9-2.87,4.02-2.89,1.67-6.38,2.93-9.19-.4,2.48,1.12,4.91,1.15,7.08-.46,2.8-2.07,2-5.57,1.12-8.44-.44-1.42-.15-3.17-1.57-4.28-1.82-1.42-3.42-2.56-5.57-4.06l-.62,1.73c-.25.69,2.93,2.39,3.19,3.93l-3.7-2.12c-.24.1-.37,1.6-.11,2.02l1.84,2.96-4.4-2.51c-.46-.26-1.36,1.33-1.2,1.85l.76,2.56c-1.09-.59-1.99-2.3-2.13-3.72-.06-.63.53-2.2,1.13-2.23l2.53-.12c.73-.95-.48-2.3-1.75-2.61-.6-.14-2.08-.37-2.6-.15-.61.25-1,1.1-1.83,2.24l.25-2.25c.18-1.66,4.65-1.22,6.29-.71l.37-2.62c-2.31-.38-5.41-1.31-7.04,0-2.54,2.02-2.57,5.16-1.42,7.64l2.6,5.61c-2.02-1.14-2.17-3.24-3.21-5-2.61-4.42-2.62-7.53,1.2-11.14ZM18.82,45.12c1.95,1.19,2.96,4.03,2.06,6.14-.75,1.77-3.54,2.19-4.87.92.9-.14,2.2-.33,2.98-.63.76-.3,1.11-1.95,1.32-2.93l-1.49-3.5Z"/>
    </g>
  </g>
</svg>