<?xml version="1.0" encoding="UTF-8"?>
<svg id="Warstwa_2" data-name="Warstwa 2" xmlns="http://www.w3.org/2000/svg" viewBox="0 0 62.22 61.84">
  <g id="icon-v10-loot-pixarts-store">
    <g id="icon-v10-loot-pixarts-store_250">
      <path d="M60.45,52.1c-4.67-6.09-3.57-7.23-3.36-13.56l-2.05,3.05c-.93,1.83-.14,4.36.21,6.29l-1.89-.1.86,1.75c-1.25.2-2.34.37-3.52.68l-4.41,1.16c-.5.13-1.35-.87-1.37-1.43l-.16-4.88-3.1-.92c-.14,2.72-.12,5.69-.76,8.51l-7.94,2.13c-.71.19-1.31.88-1.74,1.54l.44-3.21-2.48,1.61c.05-.5.59-1.87.59-2.55l-.04-5.45-2.62-.98-.17,8.7c-.05,2.57-1.07,4.59-1.89,7.39.86.2,6.89-4.04,6.09-3.71,3.39-1.39,7.87-2.37,11.39-3.53.1-1.91.24-3.31.61-4.84l.56,4.61,9.96-2.62,2.64.8-.49-1.77c1.34,1.51,2.84,2.56,4.63,1.33Z"/>
      <path d="M43.71,43.99c.88-.78,1.72-1.65,2.3-2.36-1.77.42-3.25,1.33-4.52.12-.85-.82-1.18-2.62-1.42-3.83l-12.69,2.77c-1.81.4-3.51-.59-4.84-1.72-.58-.03-1.57.93-1.77,1.46l3.57,1.88c.26,3.93.35,7.71.04,11.41l-1.23-1.4-.03,2.92c-.41-.6-.97-1.59-1.46-1.88l-6.69-3.91.95-1.21c.15-.2-.69-.64-.88-.49l-1.07.83c2.1-5.13-.85-10.78-1.11-8.35-.43,3.96,1.12,6.81-3.12,12.03,1.63,1.31,3.02.07,4.16-1.21l-.72,1.67,2.36-.61,7.89,4.75c-.47,1.9-.23,3.55,1.33,4.36,1.44-5.85,2.86-11.39,1.06-16.79-.41-1.25-2.12-2.11-1.34-3.78,1.05.97,2.53,1.61,4.03,1.3l9.99-2.05c.66,1.51,1.47,2.37,2.69,2.93l2.52,1.15Z"/>
      <path d="M13.66,14.72c-.8,3.96,2.12,6.84,4.34,9.46-.28,2.74-.19,5.63.66,8.35.77,2.49,4.6,6.21,7.32,7.15.19-4.73-.53-9.12-3.13-13.1-2.29.81,1.33,6.48,1.13,9.2-2.48-1.63-3.75-4.38-3.33-7.23l1.42-2.74c-.18-4.93-5.37-6.1-8.41-11.09Z"/>
      <path d="M47.29,11.11c-.73-4.99-25.35-1.41-24.86,3.76.47,4.95,25.67,1.81,24.86-3.76ZM24.61,14.94c1.19-4.08,18.31-5.73,20.62-3.52-2.45,3.86-16.9,5.11-20.62,3.52Z"/>
      <path d="M25.25,29.79c1.35,3.03,1.47,6.34,1.86,9.89l12.21-2.68c-1.42-1.36-2.3,1.24-5.51-1.5l-3.58.43c-.81-4.18-3.17-13.12-8.49-14.01l3.51,7.88Z"/>
      <path d="M15.82,46.55l1.1,2.74c1.18.92,3.59,2.15,4.87,2.79.49-.82.76-1.41.97-1.23l1.06.89c.07-2.9-.02-5.76-.44-8.89l-4.68-2.05-3.16.98c.07,1.49-.19,3.56.29,4.76Z"/>
      <path d="M9.86,19.62l.27-2.98,3.08,2.39-.86-4.2c-3.11-3.98-5.29-8.21-6.32-13.28-3.91,5.86-1.01,13.84,3.83,18.07Z"/>
      <path d="M45.27,18.34c6.23,1.31,8.28,6.7,9.12,12.42l-3.61,1.14-3.47,3.29c4.25-.73,7.42-1.5,11.44-2.63l-1.65-4.03c-2.11-5.16-3.53-11.62-11.83-10.19Z"/>
      <path d="M9.27,25.52l-.36-2.62,2.43.55c-.68-1.55-1.44-2.84-2.73-3.79-3.29-2.44-5.85-5.28-8.08-8.93-1.6,6.37,3.03,12.18,8.74,14.79Z"/>
      <path d="M32.46,20.27c6.02,2.76,6.34,5.18,8.11,12.11l1.9-1.54,1.91.61c-.3-2.99-1.18-5.7-2.67-8.12-2.03-3.31-5.3-4.24-9.26-3.06Z"/>
      <path d="M40.29,43.74l-2.36-3.08-7.97,1.82c-1.48.34-2.98.22-4.51,0,1.62,2.49,4.07,1.44,6.83,1-1.24.73-2.67,1.21-4.26,1.68,2.91,1.14,5.44-.18,8.19-1.37l-2.37,3.76c2.45-.17,3.28-1.39,4.87-2.58l-.85,3.52c1.77-.31,3.85-2.89,2.43-4.74Z"/>
      <path d="M24.72,22.27c2.03,2.17,3.29,4.09,4.79,6.73l-1.32-4.04c-.11-.41.41-1.62.71-1.82,4.23,4.01,5.31,3.07,9.81,6.15-.63-3.16-2.63-6.92-6.27-7.74-2.39-.54-5.26.42-7.72.72Z"/>
      <path d="M32.64,48.31c.03-.99.81-1.99,1.54-2.59l-3.57,1.01.17,5.53c.44-.07,1.24-.35,1.33-.07l.53,1.6,7.57-2.03.47-4.17c-1.01,1.21-2.02,1.94-3.87,2.18l.23-2.44c-1.15.62-2.74,1.54-4.41.96Z"/>
      <path d="M49,45.81l-1.07-2.71c1.77.41,3.33.65,4.97.19l-3.25-2.25c2.39-.53,4.44.34,6.03-1.67l-3.52-.35c2.71-.36,5.4-.92,6.08-3.59-2.56,2.29-6.99,1.55-9.43,3.2l-3.1,5.24c.19,1.14,1.97,2.16,3.29,1.95Z"/>
      <path d="M39.96,34.37c.03.67.31,1.54.65,2.27.61,1.34.15,4.07,1.71,4.82,2.18,1.06,3.96-1.27,4.15-3l.35-3.16c.37-3.34-4.41-3.21-4.24-3.33l-.98.73c-.6.45-1.65,1.07-1.62,1.67ZM43.45,35.19c.4-.13,1.14.06,1.49.35.32.26.18,1.2-.03,1.73-.38.94.72,3.72-.54,2.96-.21-.13-.79-.59-.86-.84l-.81-2.64c-.13-.41.36-1.43.75-1.57Z"/>
      <path d="M10.14,30.37l-.53-1.75c-.07-.24.99-.28,1.65-.43-.74-1.2-1.88-1.9-3.37-2.4-2.83-.94-5.36-2.21-7.88-3.76,1.06,4.95,5.41,8.68,10.14,8.34Z"/>
      <path d="M44.23,19.28l-4.61.88c2.62,2.22,4.02,4.88,5.02,8.36.59-2.55,4.97-5.47,2.73-8.3-.49-.62-2.34-1.09-3.13-.93Z"/>
      <path d="M55.72,0c-.16,3.9-.33,7.46-2.06,10.99l1.04,4.8.23-1.23c.02-.11.12-.12.24-.05l.66.43c2.36-3.76,3.79-10.93-.11-14.94Z"/>
      <path d="M53.92,46.8l-.32-2.73-4.03.52.69,2.09c-1.77.43-3.01.04-4.52-.91-.11,1.54-.1,3.09.13,4.58l6.77-1.78-.29-1.46c-.05-.27.93-.22,1.56-.3Z"/>
      <path d="M60.51,6.58c-.92,3.13-2.21,5.83-4.07,8.63l-.56,4.17c4.09-.99,6.4-8.94,4.63-12.8Z"/>
      <path d="M3.12,31.63c2.3,2.89,6.18,3.99,9.59,3.45l-1.21-1.3c-.21-.22.42-.65,1.01-1.22-2.66-2.07-4.8-.37-9.4-.94Z"/>
      <path d="M38.68,34.57c1.79-2.79-1.78-6.15-5.2-7.33-1.76-.61-3.11-1.98-4.58-3.21,0,3.99,5.02,4.47,6.66,6.01l-5.56-1.88c.29.72,1.13,2.03,1.78,2.26l4.02,1.43-4.52-.55c.92,1.9,2.82,2.41,4.82,2.19l-2.03.92c1.32.74,2.37,1.03,4.2,1.12l-2.76-5.71c1.55,1.11,2.35,2.78,3.18,4.74Z"/>
      <path d="M16.97,26.37c1.22-2.88-4.75-6.7-6.16-8.39-.11,4.1,2.49,7.13,6.16,8.39Z"/>
      <path d="M56.18,23.27c3.83-.92,5.8-4.49,6.05-8.16l-4.93,4.79c-.37.85-.84,2.31-1.12,3.38Z"/>
      <path d="M16.96,28.96c1.77-1.99-5.63-4.21-7-4.98.46,3.45,3.79,5.32,7,4.98Z"/>
      <path d="M7.43,37.37c2.67,2.08,6.15,2.16,8.88.44l-1.88-.73.74-1.06c-.91-.08-2.07-.18-2.7-.01l-5.05,1.36Z"/>
      <path d="M48.97,21.5c-.65,4.69-3.31,4.53-3.21,7.22l.13,3.36c.01.26.9.63.95.37l.18-1c.25-1.4-.55-2.93.88-4.22l-.45,6.58c1.01-.57,2.22-1.72,2.61-2.62l-1.74-.15c1.56-.91,2.51-1.25,2.53-2.72l-2,.46c1.58-1.26,2.18-2.67,1.72-4.09l-1.68,1.96c.57-1.97.89-3.53.07-5.15Z"/>
      <path d="M48.66,37.57l7.71-1.77c.86-.2,1.95-.98,2.18-1.78-3.34.55-7.98,1.61-10.67,2.33-.39.1-.56,1.58-.28,1.51l1.06-.28Z"/>
      <path d="M17.29,31.92c.15-.4.1-1.58-.22-1.78-.25-.16-.79-.3-1.2-.35l-5.35-.59c1.3,2.51,4.53,3.87,6.77,2.72Z"/>
      <path d="M50.05,17.37l2.33,1.32c1.25-2.5,1.58-4.4.55-6.79l-2.87,5.47Z"/>
      <path d="M18.6,34.09c-.43-.81-.86-1.45-1.15-1.39l-4.89.98c1.46,1.7,4.27,1.97,6.04.41Z"/>
      <path d="M56.73,24.18c0,.56.44,1.7.89,2.31,1.86-1.02,3-2.31,3.67-3.97l-4.57,1.66Z"/>
      <path d="M53.63,30.25c-.54-2.15-1.06-3.83-2.06-6.05-.51,3.41.75,2.01-.3,6.59l2.37-.54Z"/>
      <path d="M20.29,37.05l-.72.53c-1.65,1.22-4.56.73-3.64,3.11l4.76-2.13.38-.97c.09-.22-.58-.69-.78-.55Z"/>
      <path d="M18.64,35.11l-2.89,1.29c.62,1.5,3.03,1.08,3.88-.21.19-.29-.68-1.22-.98-1.08Z"/>
      <path d="M29.69,29.55l1.05,5.08c.16.53,1.99.18,2.04-.23l-1.93-2.14c-.33-1.04-.66-1.94-1.16-2.7Z"/>
      <path d="M55.12,16.27l-2.18,2.77,1.31,1.26c1-1.42,1.28-2.53.86-4.02Z"/>
    </g>
  </g>
</svg>