<?xml version="1.0" encoding="UTF-8"?>
<svg id="Warstwa_2" data-name="Warstwa 2" xmlns="http://www.w3.org/2000/svg" viewBox="0 0 51.78 58.23">
  <g id="icon-v10-loot-pixarts-store">
    <g id="icon-v10-loot-pixarts-store_21">
      <path d="M50.51,28.78l-4.67-3.01c-1.49-.96-2.58-2.6-3.75-4.25l3-.35-4.78-3.09c-1.39-.9-2.27-3.09-3.05-4.52l2.74-.22-3.07-2.38c-1.24-.96-2.11-2.36-2.7-3.89l-1.39-3.64c-.17-.45-1.24-.98-1.67-.89-1.38.32-.71,2.46-2.33,5.06l.79,3.36,2.31,5.28c.67,1.53-.55,3.6.23,5.26l1.55-2.24c3.04,3.41-.08,3.58,1.36,8.02l2.02-2.98c.59.95,1.28,2.26,1.38,3.06-.59,1.51-.94,3.01-.63,4.61l1.91-2.05c3.48,1.95.4,4.56,1.09,7.97l2.37-3.02c.79,1.02,2.3,2.21,3.22,1.47.84-.67,1.7-1.66,2.61-1.54.73.1,1.68.82,2.73,1.53-.04-4.06-2.16-4.12-4.03-7.05l2.77-.51Z"/>
      <path d="M30.56.56c-2.7-2.13-7.23,2.42-9.16,3.59l-.09-2.27-2.71,3.95c-.8,1.17-2.17,2.08-3.4,2.99l-.04-2.89-2.91,4.85c-.95,1.58-2.79,2.88-4.04,4.35-1.44,1.7-4.54,6.19-1.55,7.81.65.35,2.35.45,3.01.07l2.69-1.58,3.87-.66-1.93-1.31c2.92-2.66,3.43-.04,6.23-1.85l-2.46-1.08c.59-.64,1.48-1.54,2.11-1.63l3.67-.53-2.34-1.39,5.91-3.95c-.26-1.33.19-2.6.64-3.87.65-1.82.26-3.38,2.51-4.58Z"/>
      <path d="M42.73,58.23c5.56-4.38,7.37-13.9,7.52-20.4,0-.4-.79-1.39-1.17-1.28-.32.09-.84.43-1.22.75-2.42,2.05-2.88-.03-3.73,2l-2.13,5.1,2.89-1.04c.12,1.9-.73,3.42-1.78,5.05l1.66-.38-.49,2.44-1.57,7.76Z"/>
      <path d="M4.72,23.78c-.72-1.4-1.1-2.72-.58-4.05l1.07-2.79c-1.4-.84-2.94-1.06-4.44-.39l.27,2.55c-.94,1-1.63,2.67-.3,3.76.83.68,2.83.9,3.98.92Z"/>
    </g>
  </g>
</svg>