<?xml version="1.0" encoding="UTF-8"?>
<svg id="Warstwa_2" data-name="Warstwa 2" xmlns="http://www.w3.org/2000/svg" viewBox="0 0 55.68 60.92">
  <g id="icon-v10-loot-pixarts-store">
    <g id="icon-v10-loot-pixarts-store_208">
      <path d="M44.17,19.59l2.79,1.42c-2.96,4.1-6.96,1.07-11.05,4.28-5.02,3.93-7.11-3.34-15.42-1.89l-5.95,1.04c.63,1.63,1.03,2.95,1.92,4.12,1.35,1.76,6.16.21,5.73,2.87l-2.47-.51-6.13-1.46c-.41,1.81,4.6,2.74,3.64,3.02l-1.85,1.21c-1.32.86,2.14,1.74,1.67,3.85-.13.6-1.23,1.49-1.82,1.31-.42-.12-1.31-.7-1.48-.41l-.65,1.1c-.13.21-.4.89-.24,1.06s.59.48,1.02.76c1.22.79,1.67,2.17.88,3.14-.72.88-1.98.69-3.34.13-.31.88-.57,2.83-.14,3.43,1.54.34,2.41.59,2.62,1.73.44,2.37-3.31,1.94-1.78,3.54.85.89,3.02-.56,3.52,1.43.22.87-.3,1.76-1.04,2.25,3.42,4.88,14.96,4.63,19.45,2.37-.02-1.7.16-3.52,1.75-4.43,1.89-1.08,4.24-1.28,6.3-1.5,1.41-3.84,5.34-4.04,8.86-3.98,1.58-4.9.25-9.95-2.59-14.08l-3.64-5.28c-.72.52-2.19.96-2.61.41-1.18-1.5-.48-3.28.85-4.16,2.06-1.36,5.47-4.67,5.63-6.34.15-1.62-4.64-3.86-6.65-4.07l2.22,3.67ZM31.84,30.87l.6-2.96,1.7-.13-2.3,3.09ZM37.29,33.05c-.11-2.4.63-4.81,2.74-6.22-1.74,3.74-1.34,7.09.48,11.33-2.02-.63-3.14-3.28-3.23-5.1Z"/>
      <path d="M3.45,54.23c2.75,3.02,6.75,4.25,10.59,5.13-.86-3.13-5.3-.96-5.44-4.03-.02-.54.63-1.21,1.09-1.84.5-.68-.82-2-1.68-2.32-1.06-.39-1.52-1.56-1.45-2.55.08-1.11.93-1.51,2.34-1.96l.56-3.27c-1.69-.46-2.34-1.43-1.76-2.76.49-1.14,1.64-1.39,2.98-1.09l1.26-1.88c-1.2-.44-1.96-.92-1.84-1.78.37-2.65,3.04-.81,3.81-2.55.7-1.58-1.97-1.07-1.7-3.94.06-.6.98-1.15,1.92-1.51-.55-1.26-.99-3.39-1.65-4.62-1.68-3.09-5.34-3.64-8.5-5.01,2.28-.84,4.52-.67,5.07-3.09-2.01.43-5.8,1.85-5.51,3.68.07.43.51,1.14.89,1.61l5.63,7.15c.38.48-.3,2.18-.82,2.36-.46.15-1.05.02-1.92-.22-2.18,2.57-4.42,5.42-5.88,8.64-2.36,5.23-1.91,11.54,2.01,15.83Z"/>
      <path d="M35.28,2.66c-1.94-.13-3.89.35-5.35,1.62-1.15,1-1.71,2.47-1.54,3.98.12,1.03.97,2.49,2.1,3.09,2.41,1.28,5.34,1.02,7.47-.72,1.71-1.39,2.06-3.26,1.47-5.03-.55-1.65-2.13-2.82-4.15-2.95ZM38.18,8.48c-.35-1.09-.64-2.1-1.05-2.86-.37-.68-2.02-1.03-2.91-.96-1.6.13-2.91,1.08-3.28,2.62-.46,1.91.83,2.95,2.5,3.26-1.68.6-3.59-.85-3.55-2.83.05-2.48,2.18-4.24,4.68-4.11,1.1.06,2.45.65,2.99,1.31.85,1.05.92,2.5.63,3.58Z"/>
      <path d="M21.35,9.7c-.5,0-1.47.28-1.75.59-.95,1.06.02,5.12,1.91,6.88-2.64-.56-2.76-3.14-3.51-5.49-1.74,4.32,1.93,8.46,6.03,9.19.27.05.89-.36,1.03-.59.54-.9-2.86-.78-3.22-2.26l3.95.28c.72-2.03-.02-3.65-1.17-5-1.02-1.2-2.63-1.57-4.55-1.77.25-.2,1.11-.67,1.52-.62,3.2.36,5.62,3.14,4.96,6.61.52,0,1.64-.7,1.6-1.2-.28-3.48-3.17-6.59-6.79-6.62Z"/>
      <path d="M47.46,57.72c-1.16-3.73-12.23-2.61-11.63.2.08.38.66,1.26,1.07,1.47,5.24,2.7,11.07-.04,10.57-1.67Z"/>
      <path d="M43.94,53.52c2.08.82,3.45,1.46,5.06,2.81,1.69.73,7.3-.73,6.62-2.72-1.04-3.03-10.61-3.3-11.68-.09Z"/>
      <path d="M35.22,23.11c.35-1.33-.88-2.61-2.11-3.17-1-.45-2.34-.5-3.2-.05-.87.45-1.62,1.82-1.5,2.77l2.9,1.78c1.36.84,3.49.32,3.91-1.33Z"/>
      <path d="M39.83,16.45c-1.94-1.32-4.16-1.92-6.23-.35.9.33,1.81.45,2.83.48,2.53.06,5.13,2.3,4.65,4.91-1.4-1.7-2.1-3.87-4.4-3.77,1.2,1.44,1.75,2.66,2.13,4.68,1.16,0,2.53-.19,3.8-.55.18-2.44-1.19-4.31-2.78-5.4Z"/>
      <path d="M13.05,17.64c-.7.06-2.37,1.34-1.88,1.89,1.42,1.6,4.69,3.98,6.52,2.4.11-2.43-2.08-4.52-4.64-4.29Z"/>
      <path d="M26.46,21.64c.1.23.5.45.94.72.2-.64.48-1.63.81-2.09,1.04-1.44,2.84-1.8,4.41-1.47,3.38.7,3.62,4.98,4.32,3.71,1.11-2.01-2.43-4.85-4.52-5.09-4.33-.5-6.49,3.07-5.96,4.23Z"/>
      <path d="M9.48,19.36c1.42-1.22,2.45-2.58,3.7-2.61,1.68-.05,3.08.57,4.25,1.85-.06-1.69-1.25-3.07-3.3-3.1-2.2-.03-5.27,1.08-4.66,3.87Z"/>
      <path d="M46.92,8.23c-1.57-.2-4.51,1.69-3.91,3.37,1.34-.15,3.1-.89,4.33-1.85.36-.28-.02-1.47-.42-1.52Z"/>
      <path d="M24.54,5.3c1.15-.49,1.66-4.92,0-5.27-2.24-.48-.98,5.7,0,5.27Z"/>
      <path d="M16.22,6.94c1.06-.83-.35-3.84-1.51-4.6-.31-.2-1.45.49-1.38.88.22,1.31,1.34,3.29,2.89,3.72Z"/>
      <path d="M55.42,56.41c-3.59,1.31-4.42.79-6.38,1.54-2.72,1.05,5.85,2.33,6.38-1.54Z"/>
      <path d="M7.15,7.9c.14.88,4.36,3.02,4.89,1.21-1.43-1.25-2.45-1.92-3.92-2.62-.5.49-1.03,1.02-.97,1.41Z"/>
      <path d="M9.02,41.65l3.87,2.16c.21.12,1.2-.2,1.11-.41-.07-.16-.25-.76-.39-.87-4.23-3.35-5.34-1.29-4.59-.88Z"/>
      <path d="M7.71,48.97c-.29.41,1.86,2.6,4.67,1.62.21-.07.56-.96.35-1l-.9-.17c-1.17-.22-2.51-.69-3.63-1.15l-.49.7Z"/>
      <path d="M11.36,35.86c1.57.72,2.89,1.26,4.53,1.79-.34-2.31-3.16-3.08-4.53-1.79Z"/>
      <path d="M14.66,54.84l-4.96.27c1.42,1.63,4,1.62,4.96-.27Z"/>
      <path d="M43.74,27.2c-.59.19-1.35,1.49-.88,1.97.57.58,1.67-.37,2.09-1.09.15-.26.2-1.32-.05-1.25l-1.16.36Z"/>
      <path d="M9.1,28.54c-.23-1.01-.94-1.73-1.9-1.75-.04.45.16,1.32.44,1.58.23.22.98.25,1.46.17Z"/>
      <polygon points="18.44 19.77 18.76 22.22 20.38 21.35 18.44 19.77"/>
    </g>
  </g>
</svg>