<?xml version="1.0" encoding="UTF-8"?>
<svg id="Warstwa_2" data-name="Warstwa 2" xmlns="http://www.w3.org/2000/svg" viewBox="0 0 56.74 43.31">
  <g id="icon-v10-loot-pixarts-store">
    <g id="icon-v10-loot-pixarts-store_175">
      <path d="M15.46,38.26c2.05,1.82,4.54,2.27,6.96.43-2.74-1.56-2.84-4.07-1.32-6.21,1.35-1.9,4.49-2.13,5.99.09.42.62.98,1.61,1.69,2.06.79.5,2.29-.59,2.31-1.33-1.62-1.29-1.88-2.69-1.24-4.35.52-1.34,1.75-2.53,3.09-2.56,3.31-.07,3.1,3.56,5.14,3.02.49-.13,1.2-1.32.97-1.76-1.03-.99-1.49-2.79-.69-4.27.66-1.21,1.79-2.13,3.06-2.15,1.43-.02,2.23.85,3.25,2.2.41.53,2-.42,2.08-1.1-1.24-1.16-1.65-2.67-.76-4.32.42-.78,1.55-1.87,2.33-1.88.96-.02,1.95.42,3.08.88.32-2.68,0-5.88-1.72-8.05-3.37-4.26-8.01-7.02-13.25-8.57-4.02-1.19-8.23.59-11.06,3.56-1.4,1.47-3.04,2.3-5.02,2.67-7.6,1.41-5.99,5.61-9.21,8.45.08-1.25.36-2.22.75-3.3-5.27-.55-9.07,3.04-10.72,7.67-.78,2.2-1.79,4.02-.65,6.5,5.22,11.34,11.06,8.88,14.95,12.34ZM44.13,13.36c.97-1.62,3.46-2.66,5.14-1.5-6.78,2.23-3.29,3.34-7.08,4.75l1.94-3.25ZM27.44,25.52c.72-2.62,3.89-4.04,5.85-2.42-2.28.45-3.87,1.2-5.85,2.42ZM37.31,3.75c-1.41.99-3.17.82-4.78.4,1.05-1.73,3.15-1.89,4.78-.4ZM27.88,6.75c.95-.66,2.78-.97,4.22-.05-1.34.83-3.32,2.28-4.64,1.58-.32-.17.08-1.3.42-1.53ZM25,27.96c-2.37.27-3.96.79-5.91,1.93.94-2.27,3.64-3.47,5.91-1.93ZM14.85,29.6c1.34.67,1.91,2.18,1.91,3.8-1.73-.63-2.03-2.26-1.91-3.8ZM5.06,21.34l2.16,2.46c1.37,1.56,3.65,1.8,4.25,4.13-4.24-1.37-7.96-4.18-7.84-8.63l1.43,2.04Z"/>
      <path d="M21.88,34.36c-.71,3,5.35,7.43,7.82,8.68,2.2,1.11,5.52-1.51,4.82-3.61-3.9-2.04-6.87-4.24-10.05-6.87-.86-.7-2.39.95-2.59,1.8ZM30.98,40c.58-.17,1.62-.2,2.2-.1-.52,1.77-1.91,2.46-3.02,2-.17-.51.31-1.74.82-1.9Z"/>
      <path d="M31.2,29.43c-.23,1-.03,2.17.7,2.93,2,2.08,3.99,4.06,6.7,5.08,2.09.79,5.18-1.67,4.35-3.62-3.54-1.7-6.3-3.5-9.26-5.81-.74-.58-2.31.65-2.49,1.43ZM39.43,34.62c.6-.2,1.83-.34,2.45-.3-.38,1.26-1.6,2.26-2.69,2.02-.3-.37-.21-1.57.23-1.72Z"/>
      <path d="M41.78,22.8c-.56-.37-1.9.67-2.19,1.3-1.24,2.68,4.58,6.36,6.52,7.3,1.94.94,4.69-1.69,4.11-3.43-3.03-1.76-5.54-3.27-8.44-5.18ZM46.26,30.74c-.06-.98.12-1.94.57-2.2.63-.35,1.68-.48,2.31-.3-.42,1.39-1.27,2.26-2.88,2.49Z"/>
      <path d="M47.07,20.12c1.24,2.26,3.69,4.23,6.09,5.04,1.69.57,4.3-2.1,3.39-3.34l-7.12-4.18c-.96-.56-3.03,1.27-2.36,2.48ZM53.35,22.46c.48-.29,1.84-.37,2.16-.02-.21.85-1.41,1.88-2.24,1.82-.49-.04-.33-1.55.08-1.8Z"/>
    </g>
  </g>
</svg>