<?xml version="1.0" encoding="UTF-8"?>
<svg id="Warstwa_2" data-name="Warstwa 2" xmlns="http://www.w3.org/2000/svg" viewBox="0 0 56.95 35.03">
  <g id="icon-v10-loot-pixarts-store">
    <g id="icon-v10-loot-pixarts-store_171">
      <path d="M13.16,32.6c-.19-1.12-.27-1.56-.14-2.55l1.91,3.06c5.17,2.13,13.22,1.99,18.94,1.85,7.65-.19,14.72-2.63,20.43-8.06,2.34-2.22,2.98-11.68,2.5-13.36-1.57-5.6-6.33-9.51-11.8-11.02C31.56-1.19,16.25-1.55,4.43,6.58.88,9.02-.02,13.19,0,17.09c.01,3.04.17,5.7,2.14,8.29,2.69,3.53,6.88,5.97,11.02,7.22ZM5.51,7.83c3.74-2.83,8-3.93,12.44-5.1,8.67-2.3,17.28-1.94,25.73,1.03,4.59,1.61,8.53,3.8,10.93,8.17,3.22,12.67-18.78,16.26-27.25,15.42l.71-1.06-3.68.7c-6-.52-12-1.69-17.04-5.06-.76-.51-1.73-1.57-2.53-2.28-3.46-3.03-2.93-9.09.69-11.82Z"/>
      <path d="M18.57,23.79c4.81,1.29,9.39,1,13.47-2.13.93-.71,2.77-2.35,1.75-3.56-1.72-.97-4.01-1.66-3.63-3.89l.29-1.72c.09-.53-4.45-2.2-7.02-4.06-1.45-1.05-2.72-1.88-4.44-2.48l1.21,1.81-4.23-1.51c-4.24-.28-11.63,2.9-10.77,7.94l1.97.82-2.21,1.01c3.34,4.35,8.4,6.38,13.62,7.79Z"/>
      <path d="M32.45,11.01c3.78-.34,8.78-1.56,10.99,2.65,1.66.12,3.97,0,5.72-.16,1.18-.11,2.5-1.72,1.85-2.83-.38-.66-1.27-1.82-1.79-2.23-4.82-3.27-10.27-4.54-15.96-5.52-2.08-.36-3.54.13-5.61.66-1.78.45-4.27-.9-6.11.69l5.58,4.09c1.26.92,3.89,2.01,5.33,2.65Z"/>
      <path d="M43.56,15.61c-2.1,1.48-4.57,2.35-7.23,2.49-.52,2-1.43,3.96-3.17,5.44,3.57,2.86,17.88-1.91,18.48-7.87-.63-.26-1.51-.4-2.21-.36l-5.87.3Z"/>
      <path d="M40.81,13.77c-1.88-1.8-6.06-1.61-8.21.13-.45.36.6,1.8,1.14,1.98,4.38,1.44,8.19-1.03,7.07-2.11Z"/>
    </g>
  </g>
</svg>