<?xml version="1.0" encoding="UTF-8"?>
<svg id="Warstwa_2" data-name="Warstwa 2" xmlns="http://www.w3.org/2000/svg" viewBox="0 0 60.27 42.7">
  <g id="icon-v10-loot-pixarts-store">
    <g id="icon-v10-loot-pixarts-store_161">
      <path d="M54.53,30.3l.39.86c-.16-.35,4.57,1.56,5.35,1.55l-3.67-4.87-1.59-.25-1.19-2.03c-.69,1.72.65,2.88-.38,4.27l-.63-2.15c-.16-.54-.04-1.58-.1-2.33-4.76.61-3.62-1.92-5.5-3.07l-.35,2.49c-.06.42.16,1.12.46,1.52.57.75.5,1.78-.48,2.06.35-1.31,0-2.28-.86-3.22l.39-2.59c-1.11.16-2.13.63-3.17.45-1.49-.27-1.72-2.7-3.06-2.69,0,.87.1,1.71-.13,2.17l-.89,1.77c-.9-1.79,1-1.46-.33-3.64-1.22.34-2.49,1.26-3.64.36-.49-.39-3.47-4.02-3.15-2.59l.12.55c.2.91-.04,1.75-.89,1.95.1-.32.22-.67.27-.9.05-.23-.55-.73-.76-.61-1.86,1.14-3,2.31-5.15.92l-2.65-1.72c-.17-.11-.73-.1-.74.06-.05,1.02,1.59,2.79-.68,4.46l.44-1.49c.16-.53-.34-1.48-.98-1.49l-1.79,1.94c-1.28.34-2.52-.02-3.63-.56l-2.2-1.05c-1.35,2.48,1.8,1.74-.59,5.43l.06-1.96c0-.26-.4-.83-.65-.88-.78-.18-1.19,2.52-3.69,1.5-.95-.39-2.13-.77-3.23-.46-.49.14-.35,1.59.08,1.86.49.31,1.02.76,1.08,1.14.06.4-.16,1.25-.31,1.52-.37-.91-.98-1.88-1.81-1.95-1.51,1.93-3.67-.05-4.23,1.59-.2.58.04,1.29.51,1.69l1.12.93-.03-1.09c1.39.43,2.31,1.4,2.49,2.74l-1.32-.94c.81,3.06-.39,4.38,1.75,5.04l3.89,1.19c.5-.01,1.32-1.23.96-1.56-.65-.6-1.1-1.1-.9-2.05.55-2.74-2.2-1.62-2.42-4.36,1.76,1.55,2.32,1.2,3.84,2.41-.07,1.34-.02,2.57.42,3.6,1.74.3,1.61-2.7,3.49-3.24,1.14-.32,2.32.39,3.45.74.4-2.11-1.6-.87-1.27-4.48l-1.75-1.64c1,.22,1.94.7,2.65,1.25.07,1.64.37,3.04,1.34,4.38,1.65-1.46-1.19.62,1-3.2.42-.73.99-1.44,1.59-1.7,1.18-.51,4.14.26,4.43,2.58,2.4-.69,1.02-3.94,4.97-4.15l1.73,1.04c.3.18.37,1.11.49,1.55,1.53.28,1.29-1.71,4.04-2.73.77-.29,2.9.98,3.59,2.51l.41-3.8c1.51,2.04.23,3.82,1.06,4.17.78.33.34-1.87,2.63-1.59.77.09,1.3.68,1.57,1.65.33,1.16.83,0,2.16.83.58-.75,1.48-1.47,2.33-1.34,1.14.17,1.53,1.01,1.95,1.97.39.9,1.86.33,2.3-.31ZM10.02,29.18c-.51,0-.93-.41-.93-.93s.41-.93.93-.93.93.41.93.93-.41.93-.93.93ZM18.9,25.88c-.28.17-1.12.21-1.3-.07-.19-.29.02-1.04.25-1.25.26-.25,1.24-.16,1.58.13.28.25-.25,1.02-.53,1.19ZM25.74,25.99c-.88-1.42-2.56-1.67-2.04-2.5,1.35-.05,2.31,1.38,2.04,2.5ZM33.58,26.63c-.73-1.3-.05-2.58-1.78-2.97-.26-.06-.61-.57-.63-.82-.01-.25.59-.68.77-.5l1.58,1.58c.6.6.39,1.98.06,2.72Z"/>
      <path d="M25.21,18.51c.71-2.36,1.28-4.5,2.41-6.74l-1.35,7.53c.53.25,1.5.35,2.01.21l.39-1.76.58,1.1,1.17-.68c.25-.14-.03-.96-.02-1.28.06-2.61.46-5.12.95-7.78-.69.11-1.02.7-1.16,1.31l-.47,2.14c-.19-3.23-.17-3.33,2.03-5.41l3.14-7.16c-.87.39-2.09.86-2.71,1.6-1.79,2.14-3.55,4.2-5,6.57-1.09,1.78-1.24,4.02-1.99,5.95l-1.3,3.35c.13.38.83.84,1.31,1.03Z"/>
      <path d="M17.75,14.23l-.38,5.89c-.02.37.06.89.27.92.21.02.89-.07,1.03-.23l1.67-1.84c-.06-.49-.19-1.15-.21-1.61l-.25-6.01.87-.37c.42-2.66.99-5.04,1.68-7.72-2.42,1.02-3.38,4.94-5.53,7.26l-1.78,9.27,1.13.69c.36-2.35.62-4.2,1.5-6.26Z"/>
      <path d="M19.83,32.46c1.62,2.09,2.97,4.56,4.77,6.47-.12-.13,5.89,4.37,6.47,3.71-.91-1.54-1.85-2.72-3.22-3.81.35-1.32-.95-1.75-1.43-2.67-.86-1.63-1.54-3.41-2.21-5.15-.3-.78-.5-1.49-1.16-1.73-.73-.27-1.61-.29-2.18.27l2.3,5.25-2.91-3.9c-.55.19-.85,1.03-.43,1.57Z"/>
      <path d="M34.98,29.41l1.59,3.28c1.23,2.54,2.93,4.57,5.54,5.87l-2.73-6.28c-.47-1.07-.32-2.47-.38-3.71-.6-.79-1.44-1.22-2.6-1.24l1.04,4.48c-.75-1.26-1.23-2.27-1.84-3.6-.31.05-.79.86-.63,1.19Z"/>
      <path d="M8.06,22.93l.66-2.78c.16,1.28.26,2.42.51,3.48.95-.12,2.03-1.2,1.86-1.84-.43-1.61-.71-2.85-.59-4.39.15-1.98.19-3.83.19-5.9-1.11,1.75-2.59,3.4-2.82,5.31l-.72,5.86c.21.25.86.52.91.27Z"/>
      <path d="M34.38,18.66c.12.17.48.44.54.46.56-1.07.92-1.76,1.5-2.59l-.79,3.52c.75.14,2.11.02,2.46-.64.1-4.94,1.06-5.42,2.76-9.76-4.98,3.3-4.06,3.67-6.31,7.94-.12.23-.3.86-.16,1.06Z"/>
      <path d="M42.4,20.68l1.37-1.95-.68,3.18c.99-.06,1.68-.17,2.49-.44-.04-3.54,1-6.43,2.52-9.55-1,.15-1.67.68-2.23,1.45-.63.86-1.61,1.62-2.15,2.51-.41.67-2.65,4.7-1.31,4.79Z"/>
      <path d="M28.3,30.29c1.71,2.82,1.76,4.23,5.28,5.7-.85-2.32-1.84-4.23-2.22-6.49-.12-.7-.08-1.42-.66-1.71-.45-.22-1.16-.23-1.61.01l.71,3-1.51-2.29c-.47.56-.34,1.16.02,1.76Z"/>
      <path d="M16.28,39.21c.89.71,2.37.99,3.45,1.3-1.27-1.97-2.53-3.48-3.27-5.47-.25-.67-.6-1.13-1.21-1.37-.47-.18-1.31,0-1.52.52l1.31,2.44c-.53-.5-1.2-1.07-1.85-1.5-1.51.38,2.83,3.87,3.08,4.07Z"/>
      <path d="M51.51,24.48c.07-1.87.75-3.43,1.57-5.21-1.86.54-3.13,2.29-3.81,4.13.36.74,1.5,1.2,2.24,1.08Z"/>
      <path d="M3.06,26.32c.3-.23.67-1.03.57-1.43l-1-4.18c-.73,1.62-1.64,3.66-1.18,5.48.33.33,1.29.38,1.61.13Z"/>
      <path d="M51.91,34.85l-.7-4.13c-.05-.42-.39-.92-.71-1.09-.29-.16-1.29.05-1.29.41.04,2,1.26,3.79,2.7,4.8Z"/>
      <path d="M44.97,29.35c-.13-.34-.48-.89-.79-.95s-1,.17-1.11.46c-.38,1.03,1.16,3.63,2.48,4.13l-.58-3.64Z"/>
    </g>
  </g>
</svg>