<?xml version="1.0" encoding="UTF-8"?>
<svg id="Warstwa_2" data-name="Warstwa 2" xmlns="http://www.w3.org/2000/svg" viewBox="0 0 56.42 46.61">
  <g id="icon-v10-loot-pixarts-store">
    <g id="icon-v10-loot-pixarts-store_73">
      <path d="M.86,6c-1.93,2.7,1.61,7.59,3.59,9.76,6.82,7.5,12.3,10.89,20.86,16.21-3.81,2.22-17.85,7.48-20.32,2.75-1.49-2.85,2.2-6.81,4.35-8.98.46-.46.46-1.65.16-2.27-3.23,2.83-10.83,10.98-8.31,15.05,3.58,5.8,22.13-2.54,27.19-5.05,4.66,2.61,24.44,11.08,27.31,4.75,1.76-3.88-5.21-12.13-8.48-14.69-1.46,2.08,2.75,3.21,4.53,8.53.69,2.05-.43,4.02-2.75,4.42-5.52.94-12.59-2.01-17.81-4.48,5.54-3.46,10.7-6.55,15.41-10.74,3.22-2.86,11.68-10.65,9.48-14.95-1.21-2.37-5.56-2.14-7.7-1.75l-1.12,2.16c1.3.26,2.75.47,3.54,1.5,2.23,2.91-3.63,8.87-5.74,10.81-5.1,4.7-10.77,8.37-16.91,11.59-7.2-4-19.91-12.03-22.64-19.67-.65-1.82.39-3.36,2.21-3.82,5.74-1.47,8.8,2.58,10.07-.28C13.89,5.47,3.48,2.34.86,6Z"/>
      <path d="M28.04,5.82c-7.43.12-13.85,5.34-15.77,12.28,5.09,4.45,10.2,7.84,16,11.14,5.8-3.39,11.08-6.72,16.04-11.32-2.03-7.18-8.73-12.22-16.27-12.1ZM36.12,18.51c-1.78,1.57-4.42,1.22-6.08-.46-1.8-1.82-1.97-4.66-.09-6.41,1.82-1.71,4.79-1.36,6.53.84,1.58,1.99,1.31,4.57-.36,6.04ZM39.09,20.67c-.62,0-1.13-.51-1.13-1.13s.51-1.13,1.13-1.13,1.13.51,1.13,1.13-.51,1.13-1.13,1.13Z"/>
      <path d="M45.07,24.48l-10.92,7.46,6.17,2.44c2.64-3.05,4.27-6.13,4.75-9.9Z"/>
      <path d="M11.72,24.54c.25,3.65,2.02,7.04,4.57,9.76,2.2-.71,4.26-1.48,6.03-2.45l-10.6-7.31Z"/>
      <path d="M28.34,35.16l-6.57,3.09c4.44,2.02,9.03,1.81,13.08-.07l-6.5-3.01Z"/>
      <circle cx="43.66" cy="3.11" r="3.11" transform="translate(24.07 42.25) rotate(-67.5)"/>
      <path d="M18.56,44.17c0-1.35-1.09-2.44-2.44-2.44s-2.44,1.09-2.44,2.44,1.09,2.44,2.44,2.44,2.44-1.09,2.44-2.44Z"/>
      <circle cx="1.8" cy="20.21" r="1.8"/>
    </g>
  </g>
</svg>