<?xml version="1.0" encoding="UTF-8"?>
<svg id="Warstwa_2" data-name="Warstwa 2" xmlns="http://www.w3.org/2000/svg" viewBox="0 0 44.09 56.59">
  <g id="icon-v10-loot-pixarts-store">
    <g id="icon-v10-loot-pixarts-store_96">
      <path d="M3.93,30.81c-.77,1.53-2.87,2.56-3.93,3.97,4.64,4.44,3.79,3.28,6.32,9.76.61,1.56.26,3.67.45,5.55l5.22.36c2.05.14,8.15,3.43,10.2,6.15,3.87-4.05,4.27-4.16,9.67-5.96,1.69-.56,3.89-.26,5.66-.55.19-1.86-.23-4,.37-5.55,2.34-6.14,1.74-5.46,6.21-9.68l-3.95-4.14c-2.76-7.07-2.46-3.47-2.74-11.28-1.62-.14-3.68.37-5.17-.11-2.19-.7-4.12-1.53-6.19-2.57-.81-.41-1.82-1.93-2.39-2.6.47-2.04.89-3.84,1.14-5.91-.53-.8-2.1-.97-3.1-.97-1.02,0-2.41.6-2.18,1.76l1.07,5.38c-.61.83-1.72,2.15-2.58,2.51l-5.77,2.36c-1.49.61-3.7.05-5.43.26-.44,1.63.15,3.8-.39,5.36-.71,2.05-1.51,4-2.48,5.93ZM4.9,37.09l-2.53-2.27,2.55-2.21v4.48ZM41.76,34.88l-2.55,2.15v-4.57s2.55,2.42,2.55,2.42ZM8.22,48.67l.12-3.5,3.29,3.37-3.41.14ZM22.05,54.35l-2.25-2.46,4.67-.1-2.42,2.56ZM32.45,48.63l3.43-3.48.1,3.63-3.52-.15ZM35.95,21.15l.02,3.65-3.45-3.67,3.42.02ZM22.13,15.46l2.35,2.47-4.87.06,2.52-2.52ZM11.56,21.24l-3.22,3.51-.11-3.67,3.33.16ZM22.1,20.01c8.22,0,14.89,6.67,14.89,14.89s-6.67,14.89-14.89,14.89-14.89-6.67-14.89-14.89,6.67-14.89,14.89-14.89Z"/>
      <path d="M37.46.09c-1.13-.06-2.13-.06-3.15.04-1.86,3.79-4.44,6.67-8.08,8.66-.22.69-.41,1.6-.49,2.41,4.9-1.36,9.2-7,11.72-11.11Z"/>
      <path d="M6.9.22l3.56,5.16c.09.12.62.53.73.62.09.08.14-.08.25-.31l.37-.8,1.16,2.76c1.43,1.64,3.48,2.85,5.48,3.43.37-1.99-.71-2.38-1.71-3.05-2.95-1.99-5.02-4.71-6.85-7.83-.82-.28-1.9-.26-2.99.02Z"/>
      <path d="M11.38,36.33c-.53,3.85,1.01,7.73,4.68,9.75-1.28-2.18-3.08-4.16-2.2-6.99,1.27,3.73,4.54,6.11,8.1,6.79,3.85.73,7.79-.67,10.25-3.91-4.31,2.6-9.34,2.73-12.91-.65-2.06-1.95-3.36-4.84-2.27-7.63,1.02-2.61,3.72-3.56,5.89-2.34,1.52.85,1.59,2.96.62,3.9-.39.38-1.92.51-2.05.05l-.44-1.67c-.43.04-1.22.82-1.21,1.26,0,.38.24,1.31.5,1.64.69.89,2.09,1.31,3.19,1.13,1.05-.18,2.15-.92,2.76-2,1.64-2.93.75-6.66-2.12-8.65-3.98-2.76-9.6-1.84-12.72,1.81-1.08,1.26-1.66,2.71-1.6,4.3,1.6-2.98,4.46-5.24,8.13-4.95-3.62,1.3-6.08,4.59-6.57,8.17Z"/>
      <path d="M29.8,32.6c-.05,4.6-3.52,8.19-8.02,7.75,2.53,1.77,5.31,1.76,7.74.27,4.22-2.59,6.38-7.65,3.53-12.28l-.3,4.26c-.34-6.46-6.03-11.25-12.36-10.22,5.94.75,9.46,4.67,9.41,10.23Z"/>
    </g>
  </g>
</svg>