<?xml version="1.0" encoding="UTF-8"?>
<svg id="Warstwa_2" data-name="Warstwa 2" xmlns="http://www.w3.org/2000/svg" viewBox="0 0 24.49 58.24">
  <g id="icon-v10-loot-pixarts-store">
    <g id="icon-v10-loot-pixarts-store_271">
      <path d="M.59,13.42c.25-.29,4.09,4.64,3.47,6.55,5.32-2.04,11.19-2.01,16.23-.1.11-2.42,2.49-5.51,3.25-6.22l-.76-.17c-.12-.03-.41-.26-.3-.28.12-.02.9-.27,1.01-.34,1.26-.85,1.26-3.65.34-5.07-1.16-1.78-3.04-1.19-4.66-1.8-1.96-.74-4.29-1.88-6.07.39l.28-2.79c.13-1.25-.02-2.48-1.07-3.6-1.62,1.18-1.3,4.8-.87,6.56-.92-.93-1.96-1.64-3.16-1.66-.86-.01-2.07.78-2.87,1.34-1.87-.3-3.83.1-4.78,1.75-.91,1.58-.94,3.65.46,4.83l-.51.59ZM19.83,7.69c.62-.21,2.03.12,2.49.76.64.9.64,2.13.39,3.19-.43,1.85-1.66,3.12-3.48,3.05l-.91,1.87c-.07.15-.95-.12-.94-.3.01-.23.08-.75.27-.88.39-.24,1.35-.52,1.31-.88l-.24-1.97c.72-1.36,1.26-2.8,1.11-4.85ZM13.67,14.11l.54.72.25-1.49c.06-.38-.99-.97-1.11-1.32v-3.14c0-1.73,1.19-2.59,2.58-2.49,1.43.11,2.25,1.41,1.93,3.05l-.49,2.49c-.66.46-1.88,1.43-1.83,2.19l.83.32c.15.06.4.34.31.45l-.84,1.04c-.16.2-.62-.54-.99-1.05l-.57.95c-.16.27-.93-.39-.98-.69l-.13-.79c-.02-.15.42-.36.51-.24ZM7.32,6.98c.63-.58,1.88-.74,2.72-.37,2.09.93.18,4.53,1.58,5.57-.21.07-1.06.36-1.16.63l-.99,2.73c-.07.2-.97.51-1.04.32l-.31-.82c-.1-.25.49-.52.97-.91-.08-.9-1.45-1.98-2.18-2.38.93-.45-1.32-3.17.43-4.77ZM2.08,8.61c.41-.64,1.9-1.14,2.55-.99-.02,4.72,1.88,3.77,1.06,6.15-.12.34-.3.62-.18.7l.68.41c.4.24.68.43.87.59s-.25.92-.44,1.2l-1.29-.92-.41,1.23c-.06.18-.63-.01-.76-.16-.12-.15-.22-.56-.16-.75l.46-1.37c-2.33-.95-3.47-4.37-2.37-6.09Z"/>
      <path d="M21.26,54.91l-.78-1.68-.12-1.49c-.33-.09-1.19-.28-1.39.01l-.88,1.3c-.21.32-.77-.91-.83-1.37-1.11-.17-2.44-.35-3.41-.64,1.61-.93,2.3-.43,3.38-.57l.33-1c.07-.21.81-.24.91-.06.23.39.5,1.02.79,1.18.24.13.99.05,1.07-.21l.37-1.28.54-1.89c.1-.36-1.04-.85-1.37-.67-1.45.76-1.4,1.75-1.78,1.36l-.51-.52c-.22-.23-.97-.8-1.19-.57l-.78.8c-.31.32-1.4.07-1.65-.11l-.12-2.82c.33-.27,1.12-1.48.7-1.72-1.27-.6-3.52-.36-4.86.14.55.97,1.13,1.98,1.13,3.04v11.03c0,.71,1.55,1.28,2.09.95,2.22-1.38.33-3.97,1.52-3.92,2.23.09,1.7,2.36,2.9.71l.56-.76c.11-.15.68.07.8.18.2.59.52,1.41,1,1.31.52-.1,1.75-.39,1.58-.75Z"/>
      <path d="M9.28,26.81l.86,1.08c.18.23-.23.91-.38,1.25,1.76,1.97,1.18,10.17.58,13.06l4.05-.06-.59-1.86c-.39-3.35-.29-6.69.22-10.16.1-.21.88-.76.77-.95l-.53-.93.83-1.56c-1-.92-1.07-2.13-.17-3.28.53-.67,1.65-1.01,2.31-.46.64.53.5,1.56.26,2.62.72-.19,1.4-1.25,1.37-1.95-.06-1.1-.76-1.86-1.77-2.24-.64-.24-2.05-.36-2.63-.05-.55.3-1.11,1.2-1.51,1.86l-.4-2.46c-.85.44-.88,1.05-1.04,2.12-.9-1.59-2.3-2.1-4.12-1.41-.76.29-1.69,1.05-1.73,1.9-.03.67.69,1.9,1.13,1.99,0-1.07.18-2.25.87-2.5.65-.24,1.82.3,2.14.88.25.46.6,1.4.48,1.78-.12.39-.62.86-.99,1.35Z"/>
      <path d="M20.22,21.22c0-.29-.48-.93-.79-1.03-8.61-2.8-16.85.48-15.03,1.15.2.07.8.17,1.02.08,8.5-3.25,14.85,1.36,14.8-.2Z"/>
    </g>
  </g>
</svg>