<?xml version="1.0" encoding="UTF-8"?>
<svg id="Warstwa_2" data-name="Warstwa 2" xmlns="http://www.w3.org/2000/svg" viewBox="0 0 58.72 59.69">
  <g id="icon-v10-loot-pixarts-store">
    <g id="icon-v10-loot-pixarts-store_52">
      <path d="M22.58,54.32c4.13-4.8,8.38-2.03,8.54-3.64l.2-2c.45.52.84,1.22,1.25,1.23.34,0,.91-.97.96-1.44.33-2.89,3.61-5.39,6.47-4.26.39.15,1.8-.44,1.75-.83-.05-.39-.23-.82-.5-1.48l-.27-.64c-.04-.09.26-.06.34,0l.5.38c3.08,2.35.58-3.58,3.37-6.34.94-.93,2.2-.89,4-1.06l-.8-3.04,1.33.57c-.47-4.73-.92-4.79,2.38-7.71-3.39-7.77.96-9.79-.38-12.32-1.27-2.41-4.04-2.58-6.52-1.98l3.59,3.11c-1.11,1.89-1.35,3.73-.97,5.78l.66,3.6c-.94.92-2.07,1.92-2.19,2.91l-.64,5.24c-4.44,2.34-4.15,5.88-6.67,9.56-4.92.45-6.6,2.51-9.05,6.7-4.44,1.71-5.61.55-9.73,4.56l-6.82-2.7c-2.74-1.09-5.85-1.01-8.41-.17l-.17-2.41c-1.43,1.92-1.95,4.25-1.64,6.63,11.68-5.02,15.01,6.89,19.43,1.76Z"/>
      <path d="M44.07,29.82c-1.29-3.96-1.66-3.73-5.43-5.42-.88,1.76-1.73,3.24-3.28,3.67-1.24.35-3.64-.02-4.45-1.28-.81-1.27-.58-3.3-.8-5.13-3.85-1.89-6.63.78-10.04,3.08,2.08,4.76,1.1,7.45,6.24,8.35l.78-4.26,5.8,6.4c1.12,1.24,3.03,2.49,4.51,3.47,2.6-1.65,1.67-5.38,6.66-8.87Z"/>
      <path d="M41.1,12.3l4.99,3.05c.45-.36,1.02-1.56.93-2.3-3.36-3.13-7.57-5.55-12.54-5.97l3.45,4.18c.53,1.85.84,4.01,1.08,6.34l-1.53-2c.25-1.26.22-3.54-1.01-3.98-3.26-.24-6.21.98-9.27,2.31l.51,4.88c.07.67,2,1.37,2.33,1.13l.65-5.41,6.25,6.49c3.65,3.79,4.98,1.72,7.52,6.24.42-2.31,1-4.07,2.59-5.59-.32-1.54-.57-3.44-1.18-4.85-1.72-2.36-4.1-2.35-5.46-4.01-.09-.11.59-.58.71-.51Z"/>
      <path d="M7.18,31.01l-2.04-2.24-.73,3.28,3.47,4.71,7.08.86c1.96-2.27,3.66-3.97,6.12-5.68l-2.64-6.8c-3.29-.78-6.22-1.17-9.19-1.01,1.29,1.58,2.61,2.77,2.39,4.6-.16,1.35-1.74,2.51-2.84,2.92l1.48-2.34c.93-1.47-.37-3.37-1.63-4.14-4.44-2.68-3.47-2.99-6.58-4.75l5.12,10.59Z"/>
      <path d="M28.76,44.62c2.26-2.67,4.15-4.77,7.11-5.69l-2.61-1.94c-.52,1.24-.98,2.11-1.79,2.57.91-3.7-.48-4.94-3.4-7.62-.41,2.59-.51,4.7-.56,7.09-1.4-1.08-1.35-2.76-1.13-4.64l-4.06-1.19-5.97,5.15,3.78,10.64c2.74-1.52,4.77-2.54,7.8-3.44-3.15-4.4-4.45-1.24-7.14-4.39l5.34.75,2.64,2.71Z"/>
      <path d="M26.25,19.42l-.88-5.65c-2.56-.84-4.79-1.27-7.38-1.5.54,2.08-.34,3.53-1.85,4.8-1.67,1.42-4.52,3.66-6.53,1.14-1.12,1.23-2.22,2.92-2.72,4.73,4.1-.83,7.49-.67,11.47.47l1.91-2.2-.52,2.12c1.86-1.95,3.71-3.09,6.51-3.91Z"/>
      <path d="M18.62,48.94l-3.77-9.57-6.91-.93-1.76,5.69c-.14.46.25,1.87.43,2.05,2.35-.16,4.2.07,6.73.7v-3.65s1.51,4.02,1.51,4.02c.97.57,2.41,1.19,3.79,1.69Z"/>
      <path d="M11.29,17.9c2.73.45,5.32-1.83,5.57-4.43L6.01,3.4c1.28,5.05,2.89,9.91,5.28,14.49Z"/>
      <path d="M26.91,12.28c2.97.52,5.72-2.16,8.96-1.74-1.25-1.52-2.87-3.29-4.56-3.37-4.52-.23-8.63,1.55-12.45,3.69l8.04,1.42Z"/>
      <path d="M45.2,38.15l-.04,3.01,9.53,3.07c-2.04-3.16-3.99-5.62-6.27-8.42-1.66-.07-2.55.88-3.22,2.34Z"/>
      <path d="M36.18,46.41c-.58.64-1.17,2.22-.91,3.21l6.27,4.91-1.57-8.67c-1.16-.55-2.93-.4-3.79.54Z"/>
      <path d="M35.84,26.35c.7-.44,1.78-2.11,1.27-2.79-1.69-2.28-3.15-3.62-5.32-5.51-.26,2.89-.12,5.49.26,8.23,1.09.63,2.85.66,3.78.07Z"/>
      <path d="M50.98,30.87l7.75-.28c-2.23-1.97-4.36-3.26-6.89-4.62-1.47,1.49-1.35,3.11-.85,4.9Z"/>
      <path d="M29.48,52.71c-2.36,0-3.94.73-5.43,2.24l4.75,4.46.68-6.71Z"/>
      <polygon points="21.11 8.06 25.3 6.57 21.57 0 21.11 8.06"/>
      <path d="M15.73,55.64c-1.71-1.38-2.42-1.8-4.33-2.41l-.47,6.46,4.79-4.05Z"/>
      <path d="M52.16,17.15c-.04,1.72.13,2.7.72,4.47l5.79-3.2-6.5-1.27Z"/>
      <path d="M4.38,34.46c-.42,2.76-.2,5.11.89,7.41l1.4-4.33-2.29-3.08Z"/>
      <polygon points="3.24 30.94 4.08 27.76 0 27.75 3.24 30.94"/>
      <polygon points="40.83 7.43 42.99 8.48 42.97 4.36 40.83 7.43"/>
      <polygon points="3.04 39.96 .94 41.81 3.86 42.62 3.04 39.96"/>
    </g>
  </g>
</svg>