<?xml version="1.0" encoding="UTF-8"?>
<svg id="Warstwa_2" data-name="Warstwa 2" xmlns="http://www.w3.org/2000/svg" viewBox="0 0 59.03 52.64">
  <g id="icon-v10-loot-pixarts-store">
    <g id="icon-v10-loot-pixarts-store_38">
      <path d="M6.61,33.44l3.39,3.02-.37-1.62c-.06-.26.97-.76,1.19-.59.55.41.18,2.13.37,2.77,1.67,3.06,5.92.72,6.51,2.67.65,2.15-3.74,3.53-5.06,3.22-2.36-.56-4.81-2.82-5.22-5.11-.2-1.11-.09-2.49-1.27-2.56-2.22,2.71.19,7.01,2.54,7.91.2.08,1.24-.13,1.1-.05-1.01.6,1.51,3.33,2.73,3.18,1.4-.17,2.51-.57,3.97-.89-.84,1.73-2.44,3.37-4.31,3.93-2.49.74-3.62-4.04-4.73-5.25-1.63,2.49,1.94,8.16,3.92,8.44,1.1.16,2.59-.12,3.33-.86,7.05-6.96,5.74-8.59,6.98-10.12l4.44-5.49c.59-.73.34-2.21-.48-2.43l-3.5,3.58-.84-.08c-.21-.02-.14-1.11.03-1.24l3.17-2.46c.43-.33,1.05-.87.98-1.23s-.43-1.14-.63-1.45l-4.07,2.93c-4.42,3.18-7.46,1.02-8.01,2.96.65-3.14-4.41-2.48-5.38-7.31.1-.54.38-1.18.25-1.53-.11-.29-.94-.8-1.35-.98-1.78,1.77-1.68,4.84.31,6.61Z"/>
      <path d="M27,15.89c-.44,1.67-.88,2.73-.21,4.22.56,1.26-.65,2.91-.55,4,.18,1.88.23,3.26.03,5.21-.17,1.61.98,3.59,1.32,5.16.43,2.01.64,3.61,1.81,5.58,1.48-1.78,1.47-3.16,1.92-4.95.47-1.86,1.34-4.16,1.66-5.92-.49-1.92-.31-3.47-.31-5.33,0-1.78-1.33-3.73.21-5.5l-1.2-3.03c1.26-1.85,2.57-3.9,3.2-5.72l-2.9-2.87c-1.4.91-3.47,1.12-4.9-.13l-2.95,3c.42,1.91,3.32,4.59,2.88,6.27Z"/>
      <path d="M37.69,42.29c1.23,2.3,2.03,4.39,3.87,6.3,1.08,1.12,2.24,2.68,3.46,3.44,2.32,1.43,4.24.15,5.38-1.77,1.13-1.9,2.39-3.65,1.12-6.13l-1.61,3.25c-.45.9-1.93,2.27-2.92,1.98-1.93-.58-3.19-1.94-4.16-3.67l1.94.19.59-2.68c-1.44-.57-4.78-2.03-3.94-3.52.16-.28.83-.79,1.13-.8l2.69-.1c.09-.81.13-2.21.07-2.92-2.53-.32-4.4-.59-6.29-1.84l-4.7-3.11c-.62-.04-.93,1.51-.4,1.93l3.84,3.05c.2.16.11,1.37-.14,1.32l-.78-.17-3.56-3.48c-2.37,1.65,2.59,5.35,4.41,8.74Z"/>
      <path d="M3.8,7.98c.82,2.16-2.02,3.45-.52,4.32,1.71,1,2.86,2.98,3.67,5.26-.6-3.05,1.44-4.5,2.98-6.59,1.03-1.39.53-3.81,3.06-4.99-3.23-1.96-2.66,1.38-6.01-.59L2.87,2.97c-.75.03-2.23.73-2.71,1.5-.99,1.58,2.87,1.46,3.64,3.5Z"/>
      <path d="M49.02,5.73c-.91-.44-1.67-.5-2.83.26,2.66.99,1.94,3.65,2.98,5.06,1.45,1.96,3.57,3.09,2.85,6.35,1.25-2.64,2.27-4.14,4.38-5.62-.68-1.11-1.3-2.26-1.28-3.29.05-2.36,4.81-2.45,3.75-3.95-.57-.8-2.09-1.47-2.8-1.46-1.3,1-2.61,1.55-4.01,2.21-1.14.53-1.66,1.13-3.05.45Z"/>
      <path d="M50.8,19.1c-.37.17-.99,1.13-.95,1.45,2.74,2.55-5.09,7.13-7.66,7.59-2.62.46-5.43-1.58-7.77-2.35-.36.06-.9.91-.83,1.29.07.38.51,1.22.89,1.42,3.58,1.85,8.79,4.52,11.67,1.03.11-1.22.53-2.25,1.63-2.91l-.8,2.57c2.28-1.09,4.43-2.96,5.69-5.39.89-1.71-.34-3.91-1.88-4.69Z"/>
      <path d="M6.95,24.89c.95,1.2,2.25,2.49,3.38,3.35l3.81-.43-1.98,1.51c1.17.53,3.09,1.98,4.34,1.92,2.35-.11,11.52-2.63,8.25-5.44-2.35.8-4.87,2.68-7.45,2.31-3.63-.53-6.93-3.36-8.97-6.05l.81-1.62c.16-.31-.59-1.12-.97-1.33-1.93.85-2.76,3.83-1.23,5.78Z"/>
      <path d="M44.68,18.88c-6.09,3.45-2.5,3.19-6.09,2.33l-4.95-1.19c-.6.63-.42,2.48.42,2.68,7.62,1.81,6.49,2.53,14.68-3.19,1.23-.86,1.99-2.62,1.84-3.82-.16-1.27-1.03-2.85-2.49-3.05-.66.37-.05,1.87.4,2.64-.68,1.44-2.35,2.77-3.82,3.61Z"/>
      <path d="M10.96,12.66c-1.41.01-2.39,2-2.43,3.27-.1,3.07,3.2,4.68,5.51,5.66,2.59,1.1,1.23,4.17,11.09,1.07.85-.27.86-2.48.1-2.63l-5.22,1.31c-.49.12-1.34,1.01-2.18,1.39l.14-1.82-4.26-2.51c-1.19-.7-2.71-2.08-2.82-3.38.2-.62.87-2.2.08-2.36Z"/>
      <path d="M34.48,7.61c.94.62,1.8.25,2.93-.13,3.21-1.09,6.28-2.1,9.33-3.58,4.58-2.22,7.31.36,8-1.66.65-1.91-5.41-1.71-8.08-.41-4.1,1.99-8.36,2.91-12.93,2.96-.59.98-.09,2.27.75,2.82Z"/>
      <path d="M12.63,3.99c3.04,1.5,6.09,2.49,9.27,3.6,1.17.41,1.97.59,2.75.01.75-.55,1.37-2.6.38-2.71-3.69-.39-7.07-.56-10.42-2.15C7.07-.85,3.36,1.46,4.54,2.51c1.69,1.5,3.55-.76,8.09,1.48Z"/>
      <path d="M15.31,7.23c-.52-1.65-3.63,1.48-3.71,3.17-.12,2.39,3.49,4.15,5.43,5.23,3.23,1.82,8.76,2.32,8.94.21.22-2.61-4.16.68-10.5-4.22-.54-.41-1.34-1.68-1.09-2.25l.94-2.15Z"/>
      <path d="M52.54,26.7l-1.16,1.37c.4,1.13.32,2.71-.64,3.49l-4.37,3.52c.3,1.36.13,1.97-.11,3.47,2.67-1.65,5.06-3.67,7-6.03,1.5-1.83,1.06-4.49-.71-5.81Z"/>
      <path d="M52.9,35.24c-1.06.32-1.13,1.49-1.2,2.49-.14,2.06-2.13,3.26-3.43,4.65l-2.25,2.42c-1.27,1.36.42,3.58,6.61-3.47,1.53-1.74,1.52-4.41.26-6.09Z"/>
      <path d="M43.91,11.54l-3.3,2.42c.46.61,1.16,1.34,1.6,1.42.75.14,5.02-2.02,5.31-4.9.14-1.4-2.53-4.28-3.65-3.49-.79.56,2.52,2.75.04,4.56Z"/>
      <path d="M33.05,15.8l.59,1.18c2.36.3,5.35.1,7.46-1.05-.55-.21-1.34-.25-1.44-.57l-.39-1.22-5.26.65c-.34.04-1.11.71-.96,1.01Z"/>
      <path d="M41.1,2.57l-3.49-2.3c-1.23-.81-3.76.32-4.27,1.63,6.27-.45,3.56,2.75,7.77.67Z"/>
      <path d="M25.68,1.98c-.61-1.44-2.82-2.42-4.35-1.71-1.05.49-1.93,1.3-3.04,2.35,3.33,2,1.73-1.48,7.39-.64Z"/>
      <path d="M21.24,8.48l-4.01-1.13c1.08,2.82,3.65,3.46,6.21,4.07.01-1.37-.83-2.55-2.2-2.94Z"/>
      <path d="M35.59,11.43c2.68-.67,5.14-1.35,6.4-4.02-2.56.4-6.48,1.09-6.4,4.02Z"/>
    </g>
  </g>
</svg>