<?xml version="1.0" encoding="UTF-8"?>
<svg id="Warstwa_2" data-name="Warstwa 2" xmlns="http://www.w3.org/2000/svg" viewBox="0 0 20.06 57.78">
  <g id="icon-v10-loot-pixarts-store">
    <g id="icon-v10-loot-pixarts-store_279">
      <path d="M1.06,5.71c-2.43,4.77-.5,10.69,4.15,13.63-1.05.72-2.09,1.54-2.25,2.3-.2.96.47,2.33,1.05,2.7.16-.92.29-1.78.61-2.16.28-.34,1.42-.24,1.84-.01,1.26.69,2.41,2.48,1.71,3.76-.24.44-.94.97-.76,1.28l.74,1.22c.15.25-.46.85-.39,1.14.07.29.85.93.88,1.33.21,2.89.19,7.3.02,10.48-.02.37-.64,1.15-.38,1.31l1.07.65-1.26.68c-.29.16.52,1.18.52,1.58l.08,11.11c0,1.11,1.84,1.33,2.32.86,1.88-1.88.21-2.68,1.26-3.72.2-.2,1.11-.2,1.25.04l.7,1.25.99-.88c.41,1.34,1.98,1.42,3.58.95v-3.79s-3.82.33-3.82.33c-.49.04-1.42-.87-1.4-1.08,2.08.02,1.51-4.58,3.06-2.99.3.31.83,1.24.72,1.22l-1.57.24c-.27.04-.57,1.08-.42,1.14l3.43-.12v-3.91s-4.68.13-4.68.13l-.51,1.39c-.1.28-1.38.14-1.49-.14-.33-.78-.06-2.43.33-3.56l-1.43-.83,1.28-.68c-1,.53-.53-11-.47-11.77.03-.35,1.04-1.07.87-1.36-.14-.24-.53-.86-.38-1.09l.79-1.26c.16-.26-.77-.79-.91-1.11-.59-1.34.85-3.29,2.1-3.83.41-.18,1.82-.01,1.87.4l.22,1.79c.66-.54,1.35-1.71,1.17-2.66-.16-.86-1.2-1.66-2.2-2.26,2.44-1.79,4.87-4.14,4.73-7.59-1.97,4.31-6.9,6.18-10.92,3.9-3.98-2.26-5.49-7.47-2.67-11.28,1.95-2.63,4.86-3.24,8.32-3.26C9.65-1.53,3.61.68,1.06,5.71ZM16.68,54.16l-1.89-1.62c1.14-.48,2.17,0,1.89,1.62Z"/>
      <path d="M15.05,9l.92-.91c-.91-.04-2.06-.07-2.02-.53l.17-1.92-1.37,1.72-.4-3.74c-.58,1.07-.93,2.21-1.21,3.41l-1.28.42c.56.59,1.44,1.44,1.47,2.03.03.52-.72,1.41-1.25,2.04l1.45.11c.17,1.31.23,1.9.71,2.89l.5-3.54,1.6.63c-.15-.55-.35-1.29-.3-1.67.04-.32.74-.67,1.02-.95Z"/>
    </g>
  </g>
</svg>