<?xml version="1.0" encoding="UTF-8"?>
<svg id="Warstwa_2" data-name="Warstwa 2" xmlns="http://www.w3.org/2000/svg" viewBox="0 0 42.81 51.26">
  <g id="icon-v10-loot-pixarts-store">
    <g id="icon-v10-loot-pixarts-store_94">
      <path d="M36.82,16.14c-.95-6.4-4.8-11.43-9.83-14.03C21.06-.94,14.12-.67,8.93,2.84c-.21,1.99-.99,4-3.03,4.56.38-.99.66-1.68.66-2.83C.11,9.68-1.71,18.58,1.66,26.15c4.12,9.24,15.38,13.88,24.35,9.01,1.24-.67,1.07-3.81,3.26-4.08.04-1.06.08-.39.1.32-.33.84-.64,1.61-.89,2.58,4.7-2.61,7.27-7.54,8.29-12.59,3.45.81-.22-2.07,1.18-3.77.54-.66,1.62-.88,2.44-.49.56.27.93,1.42.86,2.15l-.21,2.15c2.22-.87,2.1-3.49.99-4.88-1.25-1.57-3.37-1.65-5.22-.4ZM18.46,33.41c-8.21,0-14.87-6.66-14.87-14.87S10.25,3.66,18.46,3.66s14.87,6.66,14.87,14.87-6.66,14.87-14.87,14.87Z"/>
      <path d="M40.99,43.65l.14,4.42c.03.97-.71,1.79-1.63,1.76-.67-.02-1.27-.97-1.28-1.76l-.03-4.39c-2,1.22-1.26,2.84-1.33,4.36-.08,1.92,1.27,3.32,2.98,3.22,1.8-.11,2.82-1.7,2.69-3.58-.11-1.57.27-3.35-1.55-4.02Z"/>
      <path d="M40.37,30.23c0-.3-.63-1.08-.87-.9-.19.15-.67.76-.67,1.01v5.14c0,.27.8.92,1,.74s.63-.83.63-1.13l-.09-4.87Z"/>
      <path d="M39.52,38.93c-.13.13-.66.67-.66.87l.03,5.36c0,.3.74.97.92.78.13-.14.63-.72.63-.93l-.03-5.24c0-.28-.7-1.02-.89-.84Z"/>
      <path d="M39.5,19.72c-.21.07-.67.62-.67.87l.08,5.03c0,.34.66,1.06.89.89.18-.12.66-.74.66-.99l-.06-4.92c0-.37-.63-.98-.9-.89Z"/>
      <path d="M38.31,31.35l-.05-6.96c-2.15.1-1.97,7.44.05,6.96Z"/>
      <path d="M38.25,40.8l-.02-6.61c-2.21.1-1.78,7.42.02,6.61Z"/>
      <path d="M41.06,24.47v6.76c2.12-.07,1.81-6.84,0-6.76Z"/>
      <path d="M41.09,41.05c1.93-.25,1.97-6.8-.08-6.93l.08,6.93Z"/>
      <path d="M6.61,18.86c1.68-3.95,3.36-7.66,7.45-9.93,1.69-1.21,3.31-1.97,5.18-2.69-7.3-.78-13.53,5.29-12.62,12.62Z"/>
      <path d="M21.72,30.41c5.38-1.1,8.56-5.75,8.82-10.97-3.31,6.23-3.65,6.4-8.82,10.97Z"/>
    </g>
  </g>
</svg>