<?xml version="1.0" encoding="UTF-8"?>
<svg id="Warstwa_2" data-name="Warstwa 2" xmlns="http://www.w3.org/2000/svg" viewBox="0 0 57.06 51.73">
  <g id="icon-v10-loot-pixarts-store">
    <g id="icon-v10-loot-pixarts-store_259">
      <path d="M30.62,8.7c-1.9.25-4.39.28-5.78-1.93l-1.63,3.44.13-.09s.03-.03.05-.04c0,0,0,0,0,0l1.3-.95c.29-.21,1.1-.08,1.54.03l5.09,1.29c-.81,2.28-2.17,4.35-3.69,5.31-1.12-.63-2.14-1.02-3.18-1.37-1.77-.58-1.46-2.77-1.07-4.32l-.04.03c-1.29.95-1.29,2.8-.78,4.53l4.77,1.52-.5,2.46c-.31,1.51,1.46,2.83,2.66,3.74l-1.11,3.13,4.12-.97.53-2.31c-2.4-.27-5.44-1.94-4.86-4.83,1-1.76,2.58-3.64,3.98-5.42l5.11,2.92c.55.32.88,1.92.96,2.53l-3.98,3.44c-.8.73-.96,3.46-.28,4.3,3.14,2.81.4,4.24,2.56,5.42l3.54,1.94,3.34-3.26c.39-1.67.32-3.89.88-5.62.36-1.1.61-2.52-.61-3.25l-4.11-2.47-2.29,2.17c-.92.87-1.6,1.58-2.39,2.56-.27-.83.22-1.87.98-2.42l3.73-2.64c-.86-1.71-.67-3.16.11-4.49,2.1-3.59,5.39-.34,7.94-2.89l-6.18-.05-.48-3.46c-3.41-1.64-2.95-3.08-5.96-3.02-1.75.03-4.46,2.94-4.4,5.01ZM39.41,22.77c.46-.21,1.6.07,1.97.53,1.05,1.29-1.16,1.24-.02,5.24-.34.08-2.06.25-2.44.25,1.08-3.07-1.69-5.05.48-6.02ZM33.61,5.42c1.39-1.16,2.69-.98,4.12-.09,1.49.92,2.48,2.25,2.56,3.8.06,1.28-1.15,3.92-2.57,3.88-3.04-1.39-6.47-2.14-5.84-5.32.15-.73.98-1.65,1.73-2.27Z"/>
      <path d="M23.38,10.07s-.03.03-.05.04l.04-.03s0,0,0,0Z"/>
      <path d="M33.29,27.14c-1.75-.5-3.68.09-5.23.46l-.23,2.38c1.9-.71,3.3-1.25,5.11-.79-1.42,10.22-4.62,5.37-8.5,9.79-2.29,2.6-5.04.82-5.22,1.86-.05.28.44,1.19.7,1.32,1.04.51,3.29.05,4.37-.61,1.6-4.24,3.19-3.48,6.97-4.83.85.57,2.23,1.65,2.99,2.86.66,1.06-.22,2.98-.73,3.77l-2.79,4.34,2.62-.53c.42-2.52,1.35-4.69,2.96-6.48,2.75-.19,4.42-2.85,6.1-1.73.93.62,1.27,2.6,1.06,3.8-3.38,1.42-9.52-.04-9.12,4.36,1.99.78,4.28-.29,6.32-.98,1.55-.53,2.62-1.22,3.87-2.25.58-.47,1.82-1.19,1.7-1.94-1.35-1.36-3.37-3.06-2.54-5.13.56-1.39,1.53-2.78,2.43-4.17.91.17,1.91.52,2.79.89,1.57.66,3.62-.33,4-2.23-2.05.9-3.29,1.38-5,.75-2.69-1-3.1-4.73-2.9-5.08.13-.24.77-.53,1.05-.6l2.73-.65-.45-1.86c-.66-.14-2.1.03-2.8.47-1.39.88-.6,3.82-1.24,5.76l1.21,1.55-3.24,5.39c-3.13,1.62-4.65,4.08-7.13,1.44-.68-.72-2.05-1.68-2.38-2.53-.68-1.77.65-3.68,1.46-5.07.5-.87.05-3.45-.94-3.73Z"/>
      <path d="M23.17,51.08c3.98-1.95,5.99-.44,7.3-3.5-1.31-1.25-2.96-1.89-4.65-2.34l-1.17-2.61-4.3.64-1.87-.5c-.64.92-1.1,1.66-1.63,1.93-.62.32-1.82.05-2.73-.14l-1.33,1.89c3.09,3.15,5.97,6.8,10.38,4.64ZM20.27,47.08l.26-2.84.71.33c-.13,2.12-.3,4.04-.79,6.56-.96-1.36-.31-2.61-.17-4.05Z"/>
      <path d="M14.29,38.98l2.38-1.03c-1.02-.33-2.56-.43-2.85-1.03l-2.91-6.05c.73-.97,1.5-2.65.79-3.23-5.55-4.57-3.83-3.14-11.29-5.92.89,3.41-.17,7.58,1.95,8.12.32.08,1.29-.1,1.41-.39.66-1.47-.33-2.33.61-3.34,1.07-1.15,4.6,1.18,5.86,1.92-.16,2.32-1.22,4.51-3.22,5.39-.46.11-1.25.18-1.15.45l.33.89c.41,1.09,2.87-1.22,3.72-2.62,5.7,6.79,2.06,5.69,2.49,11.83-.87-.37-3.21-1.02-3.7-1.94-1.24-2.35-2.33-4.68-3.19-7.11-.55-1.56-.61-3.78-2.77-3.88-.16.32-.35,1.56-.04,1.77l1.34.9c.43,2.68,1.29,5.04,3.04,7.34l.66,3.1c1.3.71,2.95,1.3,4.5,1.68,1.97-2.3.84-3.88,2.03-6.87Z"/>
      <path d="M6.46,11.36c.59-.04,1.24-.92,1.84-1.52,1.07-1.08,3.26-.13,3.86,1.17.5,1.09,1.59,1.85,2.6,2.4.04,2.01.49,3.75,1.73,5.97l2.49-1.95-2.23-5.1c-.34-.11-.61-.2-.63-.21-.01,0,.02-.87-.04-.97l-2.86-4.79-4.67-1.89c-1.54,1.48-2.97,3.18-3.9,5.38-.25.59,1.16,1.55,1.81,1.51Z"/>
      <path d="M20.91,11.82c-.69-.43-2.37-.13-3.29.2l1.37,4.43c.12.39.89.93,1.24.83.43-.12,2.8-4.13.68-5.46Z"/>
      <path d="M13.79,5.4l4.72-.52-3.85,1.47c.37,1.25,1.1,3.95,2.47,4.23,1.54.31,3.24.4,4.53.51.5-1.68,1.07-2.9,2.09-4.18-.52-4.18-6.43-3.96-9.65-3.58l-4.55.54c1.33.82,2.97,1.66,4.24,1.52Z"/>
      <path d="M47,6.78c.95.61,3.05.59,3.05-.99,0-1.14-.87-3.2-1.84-4.04-3.33-2.9-7.37-1.49-11.08-.75-.94.19-1.92.66-2.02,1.38,1.45.39,2.52.77,3.44,1.75,2.67,2.84,3.73-.38,8.44,2.65ZM41.63,3.54c2.55-.6,4.93.14,5.62,2.79-2.21-2.01-4.05-3.19-6.79-1.59l-1.4-2.63c1.03.54,1.86,1.6,2.57,1.43Z"/>
      <path d="M12.7,16.35l.93-1.91c.22-.45.19-1.06-.32-.61-1.2,1.82-2.56,2.91-4.78,2.93-.78-1.28-1.41-2.82-2.03-4.47-.32.16-.79,1.44-.59,1.84l2.13,4.11c.77,1.48-.93,5.27,4.85,7l.3-.82c.25-.68.25.55.78.75l6.35,2.41c-2.56-7.52.21-5.2-.76-9.59-4.65,3.15-2.66,3.51-4.25,4.87-1.17,1-4.78-.98-6.18-1.76-.33-.8-.21-2.92.33-3.45l3.23-1.31Z"/>
      <path d="M20.84,17.75l-.68,3.71c-.31,1.71-.31,4.55,1.93,5.2,1.46.42,3.81-.41,5.17-.84l1.28-3.12c-3.79-4.35-1.99-2.93-7.7-4.95Z"/>
      <path d="M55.23,43.05c1.19-.4,1.84-1.83,1.34-3.02l-1.77-4.21c-5.36,1.21-2.98,3.25-6.29,5.37-.4.26-1.32.48-1.34.82l-.11,1.31,4.58.76c.91.15,2.74-.74,3.6-1.03ZM51.24,39.86l.48-.53c.09-.1.48-.03.4.09l-.5.74c-.7,1.04-1.2,1.95-1.8,3.13-.21-1.13.48-2.4,1.42-3.43Z"/>
      <path d="M27.14,28.77c-.22-.35-1.27-.38-1.73-.26l-4.61,1.25c-.74,1.61-.53,3.41,1.58,4.44l-1.23.85.28,4.47c1.73-.4,2.72-.97,3.38-1.9-1.11-5.33,3.71-6.67,2.32-8.85Z"/>
      <path d="M13.98,27.15c-.38-.18-1.32.04-1.53.39-.96,1.57,3.62,1.93,4.11,3.5,1.15,3.69.66,9.42,3.89,8.45l.34-4.83c-.95-1.71-1.25-2.92-1-4.85l-5.81-2.66Z"/>
      <path d="M51.14,17.97c-1.53.6-2.46,1.89-2.43,3.76,3.31.03,5.6-.83,8.34-2.21.02-1.41.01-2.93-.18-4.38-.08-.64-1.59-1.27-2.19-1.08-2.79.88-1.17,2.47-3.54,3.91Z"/>
      <path d="M3.11,20.81l4.78,1.52c.5-3.97-3.95-2.03-4.84-4.58l2.4-5.11c.11-.47-.87-1.21-1.42-1.36-.48-.13-1.37.46-1.66.93l-1.81,2.99c-.63,1.05-.61,2.95-.47,4.48.91.42,2.11.85,3.02,1.14Z"/>
      <path d="M3.68,35.18c-.09-.6-.8-1.47-1.3-1.37-.42.08-1.33.88-1.35,1.3l-.31,6.26,2.18,1.51c1.34.98,2.01,2.21,4.16,1.69.08-.84-1.01-5.39-2.07-4.62l-.96.69c1.33-2.99.41-.38-.33-5.46Z"/>
      <path d="M49.02,24.09c1.17,3.81,3.83-.19,3.97,6.33,1.54,1.65,3.56-3.31,3.55-3.9l-.1-3.91-1.72,2.35.74-2.79c-2.15.95-4.07,1.55-6.43,1.92Z"/>
      <path d="M25.02,5.18c1.74-.19,3.72.29,5.77.9l2.84-3.63-4.9-.2c-1.65-.07-3.85.41-4.98,1.72-.27.31.81,1.25,1.26,1.21Z"/>
      <path d="M48.22,10.17c1.36,1.16,2.02,1.79,3.16,3.08.83.17,2.2-.03,3.18-.35.46-3.42-2.67-4.89-3.96-4.92-.96-.03-2.26,1.65-2.38,2.19Z"/>
      <path d="M45.19,21.29c.06.34.76.68,1.1.56,2.22-.8,1.16-2.84,3.29-3.81,1.69-.77,2.71-1.85,2.68-3.73l-1.92,1.67-4.66,3.84c-.29.24-.57,1.07-.5,1.47Z"/>
      <path d="M47.18,45.22c-1.53.53-2.59,1.18-3.73,2.42,1.88.39,5.23.89,6.09-.96,0-.9-1.46-1.78-2.36-1.46Z"/>
      <path d="M51.85,36.29l.9-.51c.81-.46,1.69-1.02,1.89-1.59.2-.57.01-1.76-.29-2.53-2.68,1.34-3.24,5.05-2.5,4.63Z"/>
      <path d="M7.27,47.69c1,.69,2.37,1.18,3.11.54.42-.37-.74-1.65-1.28-1.57-.67.1-1.6.57-1.83,1.03Z"/>
      <path d="M45.15,12.78l3.95-.93c-1.5-.81-3-.28-3.95.93Z"/>
    </g>
  </g>
</svg>