<?xml version="1.0" encoding="UTF-8"?>
<svg id="Warstwa_2" data-name="Warstwa 2" xmlns="http://www.w3.org/2000/svg" viewBox="0 0 48.81 49.59">
  <g id="icon-v10-loot-pixarts-store">
    <g id="icon-v10-loot-pixarts-store_183">
      <path d="M29.11,40.02c2.95,1.12,6.26-1.38,7.4-3.68.84.79,4.59.79,5.94.42,4-5.9,7.42-12.85,6.06-20.21-.68-3.7-3.52-7.43-5.89-10.32-1.32-1.61-3.89-2.65-5.58-3.62C33.5.55,29.99.17,25.98.02,16.94-.32,8.95,3.5,5.97,12.81l2.22.38c-2.19,2.32-7.72,2.29-6.11,7.39.63,2,.27,3.88-.82,5.78-1.04,1.82-2.01,4.44-.42,6.32.81.96,2.77,1.04,4.19,1.5.73.24.68,2.15.33,2.82l-1.46,2.78,1.3.22c.3.05.95,1.01.95,1.36l-.08,5.53c0,.71,1.9.97,2.56,1.19,1.24.41,3.24,1.15,4.49,1.11,1.25-1.64.66-3.66-.14-5.37l-2.18.69c-.01-.86.81-1.89,1.78-1.99,1.59-.18,2.34,3.5,3.27,2.49.51-.55,1.32-1.39,1.79-1.28.47.11,1.18.61,1.69.96,1.49-2.38,4.82-.32,5.09-1.32l.45-1.65c.28-1.02-.18-2.17-1.26-2.62-.61-.26-1.41.23-2.54,1.02-.13-.59.15-1.82.61-2.33,1.97-2.14,5.73,1.6,7.41,2.24ZM5.29,28.98c-1.12-.53-1.78-1.15-1.62-2.76l.57-5.66c.18-1.81,4.31-3.24,5.83-2.48,3.45,2.39,2.67,7.02-.06,9.55-1.56,1.45-2.5,2.4-4.72,1.35ZM14.38,37.62c-1.24.38-1.43-1.34-2.31-2.74-.29-.46-.78,1.26-2.33,1.53-2.23.39,1.51-8.98,3.5-8.63,2.04.36,2.47,6.79,2.49,8.36,0,.48-.94,1.35-1.35,1.47ZM34.63,17.69c1.01-1.47,2.13-2.97,4.35-2.88-2.94,2.08-4.13,5.13-2.57,8.47,1.54,3.27-.3,5.72.39,6.71.85,1.23,3.87.11,4.75,2.54-1.84.25-3.77.43-5.65.04-1.35-.28-1.44-2.68-1.12-3.81,1.54-5.49-3.33-6.45-.15-11.07ZM20.99,30.8c-.86-1.06-1.35-1.55-2.55-2.07-.02-2.07.35-4.98,1.35-6.81,1.56-2.87,4.81-2.29,7.09-.78,2.35,1.56,4.97,3.23,4.54,6.54-.21,1.62-1.58,4.45-3.4,5.29-2.4,1.11-5.7-.52-7.04-2.17Z"/>
      <path d="M21.11,44.76l-1.51,1.97-2.07-1.89c-.91.97-2.02,3.63-.48,4.48,1.85,1.01,5.68-1,6.43-1.9.25-.31.25-1.57-.12-1.72l-2.25-.93Z"/>
      <path d="M2.95,43.58c-.06.95.45,1.69,1.35,2.35.9-1.38,1.34-3.09.14-4.71-.74.4-1.44,1.59-1.49,2.36Z"/>
    </g>
  </g>
</svg>