<?xml version="1.0" encoding="UTF-8"?>
<svg id="Warstwa_2" data-name="Warstwa 2" xmlns="http://www.w3.org/2000/svg" viewBox="0 0 52.74 56.2">
  <g id="icon-v10-loot-pixarts-store">
    <g id="icon-v10-loot-pixarts-store_160">
      <path d="M.04,51.64c.86,1.98,2.53,3.63,4.43,4.56l2.24-1.59-.93-2.11c6.52,3.41,12.57,1.3,17.63-3.04l8.13-6.97c1.39-1.19,3.1-2,4.77-2.79-1.53-2.03-3.66-2.19-5.98-2.38,3.29-1.5,6.83-.32,8.22,3.14,1.21,3.02.74,5.99.39,9.42,3.42-4.11,6.83-9.23,3.76-13.88-7.27-5.64-28.36,3.62-33.53,10.45,4.63-8.16,10.06-26.74,4.94-34.84-2.97-1.09-6.56.43-8.92,2.3l-3.3,2.62,6.62-.87c4.01-.53,6.26,5.63,4.9,9.19-.36-2.05-.94-4-1.9-5.85-1.33,3.95-3.05,6.94-5.3,10.09-5.03,7.03-8.34,13.36-2.58,21.56-1.01,0-1.55-.52-2.32-1.1-.45-.08-1.55,1.49-1.29,2.09ZM17.94,49.08l6.72-4.12c-3.11,4.06-9.83,9.18-14.83,6.21,2.98-.19,5.67-.6,8.11-2.09ZM3.52,46.25c-3.22-5.86,2.12-12.9,5.34-16.62l-3.42,7.33c-1.4,2.99-1.86,6.12-1.92,9.28Z"/>
      <path d="M23.29,5.88l-4.76,8.5c-.61,1.09-.95,2.02-.77,3.49,1.04-.92,1.61-1.76,2.51-2.68l3.5-3.56c1-1.01,3.28-1.89,3.28-3.74,0-2.69-.67-5.43-1.56-7.9-.71,2.14-1.18,4.07-2.2,5.88Z"/>
      <path d="M45.3,22.07l-3.07,4.41-2.11,2.91-2.17,3.12c.56.26,1.57.2,2.06-.29,4.16-4.11,8.34-7.74,12.73-11.53-2.47.04-5.53-.04-7.44,1.38Z"/>
      <path d="M25.24,31.72c.61-.37,1.47-1.55.89-2.44-.73-1.12-1.85-1.89-3.06-2.12-.62-.12-1.63,1.05-1.8,1.72-.17.67.44,1.63,1.08,2.21.9.82,1.88,1.24,2.88.64Z"/>
      <path d="M30.83,24.95c.64-.24,1.38-.93,1.45-1.46.17-1.45-1.97-3.64-3.39-3.26-.66.18-1.47,1.24-1.4,1.89.14,1.34,2.34,3.21,3.34,2.83Z"/>
      <path d="M27.67,28.6c.56-.1,1.42-1.11,1.58-1.66.33-1.13-2.12-3.76-3.55-3.14-.54.23-1.22,1.22-1.26,1.89-.06,1.01,2.22,3.09,3.23,2.91Z"/>
      <path d="M21.79,35.41c.78-.23,1.81-1.48,1.32-2.29-.75-1.25-1.72-2.06-2.95-2.42-.61-.18-1.79.96-1.82,1.59-.08,1.4,2.22,3.49,3.45,3.13Z"/>
      <path d="M34.28,21.28c.91-.9,1.02-2-.01-3.09-.51-.54-1.59-1.26-2.15-1.12-.58.14-1.49,1.01-1.61,1.57-.11.5.47,1.54.85,1.95.99,1.08,2.09,1.53,2.93.7Z"/>
      <path d="M33.8,14.72c-1.29,1.47,1.63,3.71,2.54,3.61.53-.06,1.34-.94,1.56-1.45.21-.49-.3-1.58-.78-2.05-1.14-1.14-2.3-1.26-3.32-.1Z"/>
      <path d="M34.36,28.32c.35-.17,1.06-.85,1.2-1.29.54-1.66-1.35-3.4-2.64-2.72-.54.28-1.3,1.32-1.33,1.83-.04.8,1.78,2.64,2.76,2.18Z"/>
      <path d="M32.85,29.67c-.12-.91-1.09-1.86-1.94-1.94-.83-.08-2.11.86-2.24,1.92-.1.82,1.32,2.06,2.24,2.17,1.1.13,2.05-1.27,1.94-2.15Z"/>
      <path d="M24.81,22.6c-.1-1.18-1.65-2.11-2.54-1.9-1.05.25-1.7,1.58-1.43,2.39.21.62,1.25,1.76,2.02,1.72.73-.03,2.01-1.49,1.95-2.21Z"/>
      <path d="M17.85,26.42c.04.67.96,1.69,1.91,1.89.91.19,2.34-1.34,2-2.56-.19-.69-1.5-1.63-2.14-1.62-1.07.01-1.83,1.36-1.78,2.29Z"/>
      <path d="M26.8,16.23c0,.74,1.41,2.16,2.2,1.93,1.03-.29,2.26-1.72,1.98-2.41-.46-.86-1.83-1.57-2.53-1.48-.73.09-1.65,1.04-1.66,1.95Z"/>
      <path d="M24.23,18.44c-.47.77-.25,1.98.67,2.52.5.29.91.48,1.61.81l1.57-2.45c.22-.34-.87-1.19-1.26-1.43-.84-.52-2.07-.31-2.58.54Z"/>
      <path d="M36.89,24.85c1.44-.38,1.67-1.72,1.32-2.55-.24-.58-1.16-1.55-1.96-1.43-.63.1-1.79,1.24-1.82,1.86-.04.92,1.53,2.36,2.46,2.12Z"/>
      <path d="M39.17,15.09c.46.01,1.25-1.06,1.3-1.59.14-1.6-1.44-2.65-2.72-2.29-.48.13-1.39,1.05-1.26,1.52.27.97,1.68,2.34,2.68,2.37Z"/>
      <path d="M15.85,36.37c.13.61,1.18,1.9,1.74,1.62.9-.45,1.87-.99,2.68-1.45-.96-1.22-1.72-2.05-2.89-2.23-.9-.14-1.68,1.37-1.53,2.07Z"/>
      <path d="M40.92,19.91c.09-.75-.49-1.74-1.35-2.23-.77-.44-1.92.53-2.24,1.3-.33.82.28,1.86,1.57,2.49.63.31,1.94-.88,2.02-1.56Z"/>
      <path d="M31.99,11.39c-.87-.05-2.09.82-1.92,1.88.11.67,1.43,1.95,2.13,1.71.63-.21,1.49-1.34,1.59-1.86.17-.89-1.09-1.69-1.8-1.73Z"/>
      <path d="M33.29,10.65c.43.59,1.18,1.22,1.65,1.26.47.05,1.35-.71,1.76-1.32.83-1.24-.83-2.29-1.95-2.13-.78.11-2.03,1.39-1.46,2.19Z"/>
      <path d="M40.83,8.26c-.5-.02-1.53.87-1.57,1.37-.07.84,1.59,2.27,2.44,2.26.39,0,.94-.84,1.18-1.55.29-.86-1.04-2.03-2.06-2.08Z"/>
      <path d="M22.2,15.38c-.78.47-1.57,1.46-1.5,2.09.07.67,1.09,1.73,1.71,1.69l1.93-2.44c-.53-.94-1.59-1.68-2.14-1.35Z"/>
      <path d="M30.02,33.08c-.59-.94-1.43-1.93-2.11-1.98-1.33-.09-2.74,1.9-1.92,2.93,1.04.44,2.89-.29,4.03-.95Z"/>
      <path d="M35.8,31.36c.44.08,1.38-.4,1.85-.92.57-.64.33-1.94-.13-2.29-1.24-.94-2.99,1.31-2.91,1.95.06.47.75,1.18,1.2,1.26Z"/>
      <path d="M39.28,27.78c.73-.47,1.25-1.44,1.32-2.02.06-.48-.78-1.51-1.27-1.42-.87.16-1.71,1.19-2.36,2.09.55.81,1.7,1.74,2.31,1.35Z"/>
      <path d="M43.36,16.02c-.07-.76-1.14-1.94-1.93-1.56-.69.33-1.41,1.33-1.36,1.87.04.48.79,1.31,1.38,1.56.93.4,1.98-1.02,1.91-1.86Z"/>
      <path d="M26.08,12.37c-.36-.11-1.08.19-1.47.54-.43.4-.75,1.4-.6,1.85.15.46,1.22,1.32,1.56.99.52-.5,1.2-1.55,1.44-2.17.14-.35-.57-1.11-.93-1.22Z"/>
      <path d="M28.12,9.59c-.43.38-1.21,1.32-1.08,1.88.11.5,1.02,1.28,1.4,1.45l2-2.67c-.29-.75-1.81-1.1-2.32-.66Z"/>
      <path d="M19.71,18.56c-.71.27-1.57,1.16-1.6,1.77-.03.68.48,1.65,1.17,2.08.63-.64,1.37-1.65,1.72-2.46.2-.46-.89-1.55-1.29-1.4Z"/>
      <path d="M42.19,24.17c.5-.64.93-1.48.95-1.98.02-.42-.89-1.2-1.31-1.13-.66.11-1.84,1.24-1.84,1.9,0,.89,1.68,1.88,2.2,1.21Z"/>
      <path d="M38,8.94c.81,0,1.47-.66,1.47-1.47s-.66-1.47-1.47-1.47-1.47.66-1.47,1.47.66,1.47,1.47,1.47Z"/>
      <path d="M45.42,12.8c-.04-.56-.96-1.66-1.5-1.5-.67.19-1.53,1.16-1.42,1.7.1.48.99,1.36,1.69,1.54.56.14,1.28-1.18,1.23-1.74Z"/>
      <path d="M45.06,19.44c.13-.35-.26-1.43-.6-1.58-.34-.15-.96.16-1.41.55-.41.35-.81,1.34-.55,1.72.23.32.98.77,1.38.77.39,0,.92-.78,1.18-1.45Z"/>
      <path d="M32.94,7c-.45-.22-1.46-.21-1.81.05-.5.37-1.09,1.18-.88,1.58.19.36.76,1,1.14,1.08s1.01-.54,1.38-.96c.42-.48.62-1.54.18-1.75Z"/>
      <path d="M43.31,5.92c-.45-.16-1.34.84-1.29,1.3.07.66,1.28,1.86,1.93,1.72.72-.15,1.22-1.57.8-2.04-.31-.34-.97-.82-1.43-.98Z"/>
      <path d="M34.37,6.88c.31.08,1.11-.2,1.47-.44.44-.3.7-1.34.35-1.6-.3-.23-1.25-.46-1.58-.29-.46.23-1.12.85-1.1,1.24.02.39.49,1,.87,1.1Z"/>
      <path d="M42.35,4.87c-.18-.29-.87-.84-1.22-.92-.4-.09-1.35.39-1.6.71-.25.32.07,1.18.38,1.44.26.22,1.17.28,1.45.07.45-.32,1.16-1.02.98-1.3Z"/>
      <path d="M16.65,31.76c1.34-.11,2.36-1.51,2.09-2.47-.12-.43-1.09-1.04-1.59-1.25l-.51,3.72Z"/>
      <path d="M45.51,17.36c.52.17,1.34-.69,1.53-1.21.2-.54-.53-1.94-1.11-1.73-.31.29-.85,1.01-1.06,1.35-.22.34.15,1.43.64,1.59Z"/>
      <path d="M44.85,10.38c.21.49,1.29,1.22,1.65.74.41-.56.78-1.17.68-1.47-.1-.29-.68-.93-.98-1.04-.8-.27-1.65,1.08-1.35,1.77Z"/>
      <path d="M37.31,4.62c.27.18,1.25-.07,1.48-.34.37-.43.69-1.2.42-1.33-1.39-.64-2.3.2-2.45.66-.1.31.29.83.56,1.02Z"/>
      <path d="M47.88,13.89c.87-.81.92-1.99.05-2.37-.44-.19-1.24.75-1.25,1.24-.02.57.81,1.5,1.21,1.13Z"/>
      <path d="M47.32,2.09c-.42.28-1.03,1.1-.83,1.45.18.32,1.11.8,1.31.51.3-.42.71-1.26.56-1.52-.15-.26-.8-.6-1.04-.45Z"/>
      <path d="M41.35,1.23l-1.09.49c-.26.12-.11,1.06.17,1.09.28.03.92-.09,1.46-.26.26-.08.79-1.01.52-1.08-.22-.06-.86-.32-1.06-.23Z"/>
    </g>
  </g>
</svg>