<?xml version="1.0" encoding="UTF-8"?>
<svg id="Warstwa_2" data-name="Warstwa 2" xmlns="http://www.w3.org/2000/svg" viewBox="0 0 58.23 56">
  <g id="icon-v10-loot-pixarts-store">
    <g id="icon-v10-loot-pixarts-store_144">
      <path d="M26.67,12.25c1.94-1.24,3.62-1.67,5.64-1.21,1.63.37,3,1.73,4.05,3.62.42-.95,1.42-2.41,1.64-3.47.63-3.01-.2-5.81-1.8-8.55l-1.86,3.1c-1.73-2.48-3.68-4.75-6.71-5.73-.92,2.36-.66,5.11.22,7.49l-3.97-.05c.75,1.95,1.57,3.41,2.81,4.81Z"/>
      <path d="M36.48,22.32c-3.05,0-5.53,2.48-5.53,5.53s2.48,5.53,5.53,5.53,5.53-2.48,5.53-5.53-2.48-5.53-5.53-5.53Z"/>
      <path d="M20.46,34.16c0,3.06,2.48,5.55,5.55,5.55s5.55-2.48,5.55-5.55-2.48-5.55-5.55-5.55-5.55,2.48-5.55,5.55ZM24.56,31.5c-.69,1-1.26,2.11-1.69,3.2-.99-1.27.04-3.35,1.39-3.74.13-.04.67.02.61.1l-.3.44Z"/>
      <path d="M50.26,13.63l1.29-3.36c-5.24,1.08-7.12,1.86-8.65,6.46,3.15.83,4.81,2.91,5.59,5.77,1.61.37,3.62.24,5.02-.33l-1.76-2.81c2.69-.9,4.22-1.81,6.14-3.29-2.29-1.84-4.78-2.56-7.63-2.43Z"/>
      <path d="M27.76,16.34c-2.87-.15-5.11,1.6-5.68,4.45-.42,2.11.41,4.28,1.97,5.47,1.14.86,4.44,1.93,5.23.24.91-1.95,2.31-3.73,3.38-5.14.72-2.76-2.73-4.9-4.91-5.02ZM24.34,19.92c.41-1.61,2.32-2.57,3.73-1.62l-3.73,1.62Z"/>
      <path d="M25.41,50.66c1.77.45,3.49-.25,4.76-1.51.9-.88,2.27-2.94,1.35-4.55l-2.18-3.84c-1.94,1.06-3.97.75-5.98.39-1.79.61-2.46,3.62-2.01,5.36.49,1.91,1.94,3.62,4.06,4.15ZM29.32,47.27c-.43,1.55-2.46,2.61-4.07,1.34l4.07-1.34Z"/>
      <path d="M39.08,34.88c-1.72.14-4.22.34-5.77-.29-.52,1.84-1.33,3.41-2.03,5.06-.69,1.64,1.34,3.47,2.46,4.11,1.46.83,3.57.75,5.04-.28,2.77-1.94,3.35-6.84.3-8.6Z"/>
      <path d="M12.71,28.32c-.32,1.9.36,3.66,1.69,4.72,1.28,1.03,3.03,1.44,4.67.89.06-2.87,1.49-4.88,3.65-6.34-.8-1.12-1.45-2.23-2.15-3.06-1.12-1.34-3.64-.9-5.06-.2-1.34.67-2.5,2.23-2.79,3.99Z"/>
      <path d="M15.45,55.61c3.12,1.33,6.91-.83,7.1-4.29-1.25-1.4-2.21-2.91-2.89-4.08l-4.78.06c-1.46.02-2.29,2.95-2.15,4.21.18,1.62,1.02,3.37,2.72,4.1Z"/>
      <path d="M13.77,44.17c1.19,1.31,4.35,2.37,5.59.95.55-1.74,1.15-3.77,2.2-5.1-1.16-1.14-1.93-2.8-2.5-3.87-2.19-1.34-4.9.19-5.9,2.23-1.02,2.09-.78,4.25.62,5.79Z"/>
      <path d="M43.55,26.42c.48,2.9-.75,5.55-2.65,7.38l1.99,3.54c3.38.53,6.22-2.07,6.27-5.22.05-2.96-2.12-5.59-5.61-5.7Z"/>
      <path d="M16.4,22.04l3.93.13c-.04-3.42,1.7-5.7,4.26-7.01-2.2-2.14-5.14-1.92-7.3-.11-1.98,1.67-2.5,4.8-.89,6.99Z"/>
      <path d="M45.5,3.55c-1.5-.15-2.81-.04-4.04.47.49,5.18-.91,9.2-4.23,12.79-.57.61-.92,2.25-1.06,3.18,2.68-3.49,5.21-3.98,6.95-8.52,1.02-2.65,1.69-5.07,2.39-7.93Z"/>
      <path d="M46.4,25.06c.46-1.28.35-2.94-.47-4.27-.89-1.44-2.34-2.37-3.86-2.43-1.62-.06-3.21.63-4.08,2.26,2.25.68,3.75,1.92,4.97,3.99l3.43.44Z"/>
      <path d="M32.9,13.1c-1.89-1.23-4.66-.66-5.88,1.4,3.41.24,5.94,1.91,7.26,4.97,1.69-2.42.6-5.09-1.38-6.37Z"/>
      <path d="M10.07,21.36c1-.86-8.59-3.58-10.07-2.86.94,1.36,8.66,4.08,10.07,2.86Z"/>
      <path d="M42.93,45.07c-1.81-.3,3.79,8.1,5.17,8.07-.54-3.25-2.63-5.54-4.28-7.92l-.89-.15Z"/>
      <path d="M12.23,13.93l.58-.59c.45-.46-5.4-6.35-6.97-6.27,1.28,3.09,3.94,5.19,6.39,6.86Z"/>
      <path d="M48.16,39.61c2.34,2.8,5.57,4.35,8.96,5-2.36-2.6-5.42-4.9-8.96-5Z"/>
      <path d="M9.08,29.61c-2.5-.96-4.92-.42-6.94.8,2.39.81,5.06.97,6.94-.8Z"/>
      <path d="M19.07,9.37c.7-2.31-.45-4.76-2.12-6.41-.28,2.38.2,4.71,2.12,6.41Z"/>
      <path d="M51.88,32.2c1.97,1.29,4.39,1.19,6.35.17-2.11-1.16-4.45-1.51-6.35-.17Z"/>
      <path d="M36.75,55.1c.8-2.25.76-4.52-.78-6.46-1.24,2.02-.44,4.58.78,6.46Z"/>
      <path d="M9.82,38.03c.29-1.16-5.7,1.53-5.53,2.9,1.94.25,5.16-1.43,5.53-2.9Z"/>
    </g>
  </g>
</svg>