<?xml version="1.0" encoding="UTF-8"?>
<svg id="Warstwa_2" data-name="Warstwa 2" xmlns="http://www.w3.org/2000/svg" viewBox="0 0 57.87 50.77">
  <g id="icon-v10-loot-pixarts-store">
    <g id="icon-v10-loot-pixarts-store_139">
      <path d="M2.92,37.05c2.82,3.51,6.54,5.88,10.7,7.61-3.58-.02-6.01-2.35-9.21-3.97,1.9,3.44,4.93,5.77,8.51,7.33,8.3,3.63,18.08,3.74,26.47-.2,3.89-1.82,6.92-4.41,8.59-7.95-3.35,2.44-6.56,4.73-10.75,5.13,4.84-1.98,9.28-4.54,12.26-8.9,2.93-4.29,3.1-9.52.2-13.86-2.65-3.95-6.51-6.67-11.06-8.37-8.85-3.29-18.72-2.98-27.33.87-3.3,1.48-6.03,3.46-8.26,6.13-4.01,4.82-4.07,11.26-.13,16.17ZM5.34,21.64c-1.9,3.2-2.83,6.44-1.61,9.83.28-7.14,7.22-11.61,13.14-13.31,8.78-2.51,19.56-1.61,26.62,4.52,2.61,2.26,4.31,5.25,4.44,8.7,1.52-3.18.42-6.5-1.32-9.74,3.82,3.33,4.26,8.85,1.5,13.01-9.01,13.62-36.23,12.82-44.35.14-2.75-4.29-2.39-9.8,1.57-13.15Z"/>
      <path d="M55.46.28c-1.8-.59-3.76-.21-5.3.88-6.2,4.39-5.1,8.86-11.87,10.92l7.4,3.68c.48-2.05,2.03-3.52,3.9-4.66,3.03-2,8.82-4.4,8.23-8.22-.16-1-1.18-2.2-2.36-2.59ZM49.76,5.78c.34-1.32,2.55-4.09,4.25-3.47.28.1.41.56.63,1.3-1.48,1.03-3.04,1.84-4.87,2.17Z"/>
      <path d="M11.54,34.87c-.02,2.31,1.07,3.92,3.27,4.7,5.06,1.78,7.38-1.91,13.52.3,3.2,1.15,6.67.86,9.44-.75,2.02-1.17,2.61-2.96,2.48-5.29-.12-2.18,3.58-3.44,3.74-5.9.18-2.67-2.78-4.38-5.48-4.8-2.24-.35-3.62-1.39-5.44-2.69-4.39-3.15-10.89-2.38-14.93,1.11-4.05,3.51-4.56,2.48-8.84,4.92-1.15.66-1.73,2.04-1.64,3.32.22,3,3.91,2.34,3.89,5.08ZM35.17,37.1c-1.19.34-2.39.45-3.52.21.88-1.1,2.47-1.71,3.52-.21ZM19.29,24.55c3.54-3.72,9.71-4.07,13.4-.46.85.83,1.39,2.16,1.43,3.17.18,4.04-7.93,6.87-13.78,3.55-.99-.56-1.89-1.73-2.11-2.58-.27-1.05.21-2.77,1.06-3.67Z"/>
      <path d="M22.69,26.05l3.11-2.2c-1.26-1.28-2.46-.55-3.52.01-1.05.56-1.89,1.86-1.4,3.29.5.32,1.22-.69,1.81-1.1Z"/>
    </g>
  </g>
</svg>