<?xml version="1.0" encoding="UTF-8"?>
<svg id="Warstwa_2" data-name="Warstwa 2" xmlns="http://www.w3.org/2000/svg" viewBox="0 0 54.29 53.42">
  <g id="icon-v10-loot-pixarts-store">
    <g id="icon-v10-loot-pixarts-store_87">
      <path d="M.36,37.22c1.14,4.8,2.46,8.85,5.17,12.4,1.26,1.66,3.72,2.28,5.54,3.07,2.37,1.02,4.54.86,6.92.3,5.03-1.17,4.32-4.51,7.65-7.63l-.85,3.7,2.37-2.33c5.36-5.27,4.29-8.83,7.75-14.32l-1.1-2.82c1.04.54,1.58,1.19,2.27,2.34.43-.2,1.21-.79,1.46-1.26,1.45-2.72-7.51-8.05-9.02-5.78-.31.47-.48,1.77-.06,1.92,1.28.25,2.71.74,3.56,1.49l-3.82.14c-1.15,2.35-2.48,4.09-4.13,5.73.4,1.95.17,3.98-.8,5.51-.14-2.34-.5-4.4-1.36-6.48l-1-2.4-3.09,3.3-.09,4-1.85-3.02-7.24,2.25.1,3.98c-1.3-1.36-1.97-2.35-2.86-3.58l-5.54-.51ZM28.93,39.51l1.84-2.33c-.2,1.58-.69,2.58-1.81,4.1-.23-.45-.3-1.43-.03-1.77ZM14.93,50.42c-1.06.84-2.3.1-3.61-.22-1.79-.44-3.53-.57-4.08-3.01,4.88-.02,3.09,2.08,7.7,3.23ZM6.12,45.88l-.94-3.41,2.83,3.43h-1.89Z"/>
      <path d="M6.26,19.65c2.15.3,3.18,1.94,2.66,4-.17.69-.23,1.74-.24,2.53,2.3-2.98,5.51-3.52,7.06-5.48.9-1.13.32-2.88-.49-3.99l-2.75,1.13c-1.3.53-3.27-.51-3.01-2.03.76-4.4,8.79-1.67,11.91-2.24l4.51-3.32c-.13-5.68-2.74-3.41-4.36-7.41.69-1.05,2.09-2.02,3.23-2.76-4.3-.26-8.44.09-12.26,1.68l-2.29,4.05,4.58-2.15c.87-.41,2.63-.29,3.49.4.59.48,1.24,1.53,1.5,2.56-3.27,2.87-9.63,3.37-13.85,3.53l-3.33,3.28c-.97.96-1.2,2.56-.5,3.73.89,1.48,2.49,2.26,4.12,2.49Z"/>
      <path d="M40.1,16.63l-.37,4.39c1.1-1.94,1.79-3.85,3.03-5.69,2.18-3.22,5.71-5.27,8.97-7.07.48.22.98.47,1.29.51.25.04.77-.48.97-.75.58-.8.22-2.12-.49-2.79-.63-.59-1.73-.65-2.61-.29l1.07,1.67c-3.14-1.11-10.84,3.68-12.88,5.73-3.15,3.17-5.34,7.12-7.46,11,2.28.91,3.92,1.92,5.8,3.28,2.51-5.09-.35-5.45,2.66-10Z"/>
      <path d="M7.76,37.68l.74-1.73,6.42-2.28c2.01-.72,4.17-2.21,5.08-4.12.38-1.15-1.54-2.01-2.6-2.07-5.57-.31-11.16,1.11-15.68,4.24-1.3.9-1.9,1.91-1.68,3.69,4.93,1.72,5.75-.87,7.72,2.27ZM3.72,32.27c3.87-2.37,8.63-4.01,13.27-3.22-.24,3.7-12.51,6.43-13.9,4.31-.15-.22.37-.94.62-1.1Z"/>
      <path d="M31.5,5.19c.69-1.98-1.57-3.39-3.14-3.53,2.23,3.45-.92,3.29-.92,5.89,1.58-.33,3.56-.92,4.06-2.36Z"/>
    </g>
  </g>
</svg>