<?xml version="1.0" encoding="UTF-8"?>
<svg id="Warstwa_2" data-name="Warstwa 2" xmlns="http://www.w3.org/2000/svg" viewBox="0 0 52.05 59.02">
  <g id="icon-v10-loot-pixarts-store">
    <g id="icon-v10-loot-pixarts-store_131">
      <path d="M2.24,46.79c-.96.76-1.84,1.8-2.24,2.51,3.99,1.33.7,2.58,5.13,3.73,1.47.38,2.78.77,3.98.06,2.9-1.71.85-4.95,4.1-6.83l.62,1.81,3.76-5.16.7,4.14,1.62-1.14c.09,2.83.49,5.1,1.52,7.39l.94-2.15c1.58,3.6,3.33,6.07,6.22,7.87-.71-2.12-1.31-7.78.4-7.73l1.16.04.73-4.84,2.05,2.82-.15-1.86c-.02-.26.47-.19.94-.21l.35-3.62c1.89,1.43,3.1,2.98,4.09,4.77l.48-2.23c3.37,2.06,1.56,5.32,4.03,6.94,1.02.67,2.29.49,3.53.18,5.5-1.37,1.6-2.44,5.88-4.08-1.85-2.7-5.2-3.52-4.22-5.95l-.88-1.84c-.16-.35.35-.46,1.06-1.03l-2.84-3.47,1.87-.86c-.45-.97-2.76-1.71-3.2-2.67l-1.8-3.93c-.12-.26-.34-1.18-.09-1.16l1.64.08-2.69-3.73,2.09.3-.63-3.91,2.2-.88-1.66-1.18,4.38-1.78-.8-.78c-.1-.1.51-.47.65-.61l2.93-3.16c.81-.87,1.94-2.55,1.74-3.83-.28-1.84-2.56-4.81-5.07-4.97-2.27-.15-3.3,3.88-4.53,4.14-1.88.39-4.76-.65-4.31-1.04l1.18-1.02-4.05-1.11,2.46-1.64-7.19-.26L32.98.09c-2.7-.47-5.23.99-7.46,1.8-1.69-.61-4.13-1.29-6.36-1.24l2.32,2.39h-6.77s1.84,1.74,1.84,1.74l-3.77,1.19,1.16,1.13c-1.23.72-3.57,1.35-4.75.31-1.25-1.11-2.22-2.95-3.93-3.62-1.27-.5-3.15,1.63-4.2,2.6-1.79,1.66-1,4.51.74,6.24l3.06,3.05c.22.22.61.52.51.67l-.61.92,3.98,1.71-1.62,1.13,2.29.94-.36,4.14,1.42-.42-2.24,3.58c.65,0,1.87-.31,1.78.05-.08.33-.32,1.11-.46,1.47l-1.34,3.35-3.89,3.32,2.35.02-2.69,3.76c.64.45,1.09.6.98.84l-.54,1.14c-.97,2.05,1.7,1.47-2.15,4.52Z"/>
      <path d="M3.89,54.61c.04,1.41.43,2.37,1.17,3.47l.53-4.07c-.39-.38-1.71.16-1.69.6Z"/>
      <path d="M49.12,52.9c-.06.23-.18.86-.12,1.11l.79,3.24c.52-.98.8-2.85.66-3.84-.05-.32-1.25-.82-1.33-.51Z"/>
    </g>
  </g>
</svg>