<?xml version="1.0" encoding="UTF-8"?>
<svg id="Warstwa_2" data-name="Warstwa 2" xmlns="http://www.w3.org/2000/svg" viewBox="0 0 58.68 58.39">
  <g id="icon-v10-loot-pixarts-store">
    <g id="icon-v10-loot-pixarts-store_55">
      <path d="M53.55,5.04C48.17-.08,40.22-1.4,33.17,1.55c-9.22,3.87-16.48,13.5-21.01,22.12-.94,1.79-1.38,4.08-1.21,6.03.18,2.09,2.12,3.46,4.11,3l5.92-1.37c1.53-4.43,2.82-5.64,7.41-5.37l-1.24-2.22c-.14-.24-.37-.8-.45-1.03-.09-.23.71-.53,1.01-.53l3.75-.06-2.26-3.8,4.3-1.63-1.65-3.54,5.41.34-1.82-4.12,6.31,1.7c-.73-1.55-1.32-2.85-1.8-4.46,4.15-2.94,8.42-2.82,13.6-1.57Z"/>
      <path d="M51.38,30.13l-1.76-2.43-1.15,4.46c-.09.36-.99,1.28-1.16,1.01l-.62-.99c-.44-.7-1.41-1.61-2.01-1.46-.56,1.62-1.14,3.02-2.69,3.04l-2.26-2.52c-1.05,1.99-1.57,2.95-2.68,4.51l-2.61-3.53-1.98,3.53c-2.07,1.9-5.06,2.3-7.53.73-2.18,2.77-4.4,5.8-6.47,8.83-.36.53-.27,2.07.07,2.55,2.89,4.13,20.27-1.68,24.66-3.39,8.72-3.42,17.71-11.12,15.02-21.54-.45,1.88-4.47,10.43-6.81,7.21Z"/>
      <path d="M17.13,44.51l6.14-8.73c.38-.54.05-1.95-.4-2.43-1.72-1.82-12.48,4.58-13.61-3.12-.21-1.43-.03-2.95.14-4.83-3.9,1.16-3.81,3.63-5.77,7.08-.94-1.33-1.16-2.09-1.5-3.71-5.49,7.28,1.7,6.93-1.2,14.08-1.12,2.76.32,5.93,2.71,7.67,1.45,1.06,2.98,2.2,3.97,3.7,2.61,3.94,7.31,5.18,11.57,3.32-2.07-.39-3.82-.6-3.86-2.79,3.44-.03,6.94-.54,8.77-3.6-2.25-.18-4.7-.27-6.51-1.6-1.5-1.11-1.48-3.6-.46-5.05ZM6.79,34.88c-1.2.78-1.78,2.03-2.33,3.47-.95-2.4.53-5.03,3.12-5.4,1.53,2.57,3.72,3.56,7.01,3.85-2.66,1.36-5.52.74-7.8-1.91ZM14.61,51.9c-2.77,1.14-6.02.1-7.21-2.6,1.73.84,3.27,1.57,5.17,1.7-.59-3.11-.64-5.82,2.1-7.45-2.12,5.38-.51,3.69-.07,8.35Z"/>
    </g>
  </g>
</svg>