<?xml version="1.0" encoding="UTF-8"?>
<svg id="Warstwa_2" data-name="Warstwa 2" xmlns="http://www.w3.org/2000/svg" viewBox="0 0 47.16 59.65">
  <g id="icon-v10-loot-pixarts-store">
    <g id="icon-v10-loot-pixarts-store_137">
      <path d="M24.08,29.67c.21.23.98.72,1.38.78,2.28.37,4.33-1.9,4.32-4.44-.02-4.65-3.66-8.4-8.41-8.71-1.31-.09-2.8.06-3.97.23,3.07.47,5.9.58,8.02,2.93l-1.14.3c1.41,1.13,2.49,2.35,2.5,4.01-3.02-3.1-6.77-2.77-9.88-.53-1.88,1.35-3.84,2.83-4.01,5.47l2.88-3.15-1.31,4.33c-.95,3.12.41,6.55,2.81,8.19-.96-2.45-1.7-4.21-2.14-6.55-.1-.53.94-1.46,1.16-1.97,1.02-2.3,2.77-5.22,5.99-5.04,1.37.08,3.5,1.26,2.58,2.73-.24.39-1.06,1.14-.79,1.43Z"/>
      <path d="M35.5,37.79c2.47-.27,3.59-3.35,4.18-5.07-2.03-1.39-3.28-2.83-4.32-4.89-1.08,2.27-2.38,3.9-4.62,5.16.3,1.91,2.06,5.1,4.76,4.8Z"/>
      <path d="M7.17,31.28c2.41-.18,3.43-3.09,4.19-4.64-2.04-1.32-2.97-3-3.62-5.43-.99,1.91-2.18,3.31-3.99,4.75-.4,1.8.79,5.51,3.41,5.32Z"/>
      <path d="M21.84,36.97c3.44,1.32,5.97,1.53,8.66.23l-4.77-.69,3.78-1.73c-3.11.07-6.73,1.01-8.43-2.62-.55-1.18-.28-2.74.11-4.17-1.78.74-2.91,2.57-2.79,4.61.18,3.02,2.43,5.61,5.07,6.09l-1.62-1.72Z"/>
      <path d="M43.56,38.37c-1.41-1.36-2.34-2.72-3.06-4.51-1.04,2.18-2.34,3.89-4.28,5.39.26,1.42,1.08,4.22,3.19,4.11,2.47-.12,3.82-3.1,4.16-4.99Z"/>
      <path d="M3.7,38.19c.19,1.71,1.5,4.83,3.96,5.03,2,.17,3.44-2.8,3.35-4.22-1.94-1.32-3.43-3-4.21-5.11-.84,1.84-1.66,3.05-3.1,4.29Z"/>
      <path d="M38.24,44.6c-1.61-1.1-2.55-2.68-3.13-4.23l-4.36,4.82c-.92,1.02,1.52,4,3.32,3.45,2.1-.64,3.51-2.47,4.16-4.04Z"/>
      <path d="M46.61,29.99l-2.08-3.06c-.1,2.38-1.64,4.12-2.94,5.81-.29,1.74,1.58,4.1,3.43,4.65,2.25-1.9,2.62-5.05,1.59-7.39Z"/>
      <path d="M13.65,48.63c1.97.05,3.33-2.32,3.28-3.62-1.91-1.05-3.6-2.52-4.55-4.44l-2.95,4.04c.08,1.51,2.21,3.96,4.22,4.01Z"/>
      <path d="M2.72,37.41c1.78-1.2,3.03-3.26,3.08-4.8-1.66-1.47-2.63-3.01-3.34-5.27-.51.81-1.51,2.07-1.93,2.93-1.2,2.47-.29,5.85,2.19,7.14Z"/>
      <path d="M12.44,25.37c2.29.09,3.94-2.35,4.51-4.15-2.97-3.43-2.75-.09-8.02-.91.03,1.82.97,4.97,3.51,5.07Z"/>
      <path d="M8.06,18.82c1.98.38,5.04-2.52,4.76-4.27l-1.83-3.68-4.11,3.44c-.97.82-.3,4.22,1.18,4.5Z"/>
      <path d="M40.3,14.16l-3.92-3.26-1.91,4.01c.54,1.42,2.4,3.84,4.33,3.86,2.05.02,2.72-3.6,1.5-4.61Z"/>
      <path d="M28.07,53.25c1.92-.1,3.63-1.92,4.42-3.31-1.29-1.21-2.33-2.42-3.34-3.88-1.19,1.7-2.72,3.05-4.48,4.04.31,1.34,1.59,3.24,3.4,3.14Z"/>
      <path d="M19.61,53.21c1.48-.15,2.75-1.96,2.99-3.02-1.92-1.09-3.31-2.56-4.44-4.12-1.09,1.54-2.18,2.8-3.24,3.9.73,1.48,2.73,3.44,4.69,3.24Z"/>
      <path d="M3.28,24.58c1.54-.38,3.59-3.02,3.32-4.68-.16-1.02-.78-2.46-1.15-4.08-3.45,1.7-5.8,9.65-2.18,8.76Z"/>
      <path d="M45.24,24.36c1.49-1.77-.68-6.63-3.24-8.68-.29,1.59-.78,2.78-1.81,4.48.18,1.29,3.66,5.87,5.05,4.2Z"/>
      <path d="M35.91,52.97c2.37-.21,4.47-2.22,4.49-4.17l-1.53-2.89c-1.26,1.49-2.8,2.84-4.45,4.12-.68.53.31,3.04,1.49,2.94Z"/>
      <path d="M32.78,13.63c2.04,0,2.67-2.68,1.84-3.81-1.34-.82-2.62-1.78-3.75-2.78-.33.99-1.02,2.07-2,3.17.29,1.35,2.15,3.41,3.91,3.42Z"/>
      <path d="M45.53,42.29l-1.26-2.79c-.83,2.33-2.17,4.14-4.44,5.22.22,1.26.79,2.75,1.67,3.54,2.61-1.18,3.79-3.63,4.04-5.97Z"/>
      <path d="M11.68,52.88c.83-.16,1.79-2.39,1.22-2.99-1.67-1.12-3.4-2.66-4.46-4.17l-1.49,3.8c.83,1.82,2.72,3.49,4.73,3.36Z"/>
      <path d="M5.54,48.23c1.11-.26,1.98-2.65,1.48-3.47-1.74-1.44-3.28-3.25-4.18-5.15l-1.08,2.69c.51,2.12,1.19,5.03,3.78,5.94Z"/>
      <path d="M27.2,54.46l-3.57-3.16-3.32,3.12c.42,1.12,2.11,2.86,3.88,2.57,1.16-.19,2.51-1.72,3.01-2.53Z"/>
      <path d="M15.34,8.29l-3.15,1.74c-.38.93.29,3.6,1.99,3.82,2.06.26,4.1-2.2,4.01-3.51-1.38-.5-2.65-1.17-2.86-2.05Z"/>
      <path d="M43.44,25.99l-3.92-4.32c-.41,1.14-1.03,3.04-1.21,4.01,1.77,1.42,2.51,2.49,3.84,4.49.87-.91,1.9-3.29,1.29-4.18Z"/>
      <path d="M29.82,43.84c2.02-.56,3.33-2.39,4.06-4.18-2.85.27-5.37.74-8.27,1.59.87,1.44,2.29,3.12,4.21,2.58Z"/>
      <path d="M16.8,56.8c.8,0,1.95-1.73,1.92-2.24l-4.57-3.51-1.57,2.94c.67,1.39,2.28,2.8,4.22,2.81Z"/>
      <path d="M30.97,56.78c1.5-.48,3.06-1.71,3.79-2.73l-1.74-3c-1.33,1.34-2.57,2.2-4.09,3.2-.83.55.68,2.97,2.03,2.53Z"/>
      <path d="M19.14,9.29c1,.35,2.29-.37,3-1.35.76-1.05.24-2.21-.84-3.34l-.76-.8-3,2.41c-.53.93.63,2.74,1.61,3.08Z"/>
      <path d="M22.41,11.31c-.13.26-1.26.3-1.38.34.33.93,1.6,2.68,2.54,2.54,2.12-.33,3.06-2.4,3.25-3.63l-2.72-2.65-1.68,3.41Z"/>
      <path d="M27.82,9.39c1.67-.22,2.44-2.36,1.54-3.55l-2.86-2.07c-.45.5-1.51,1.71-1.71,2.4-.48,1.66,1.46,3.44,3.04,3.23Z"/>
      <path d="M6.62,12.71c1.57-.14,3.22-1.55,4.14-2.99.46-.72-.5-2.72-1.02-3.04l1.2-.9c.2-.15-.17-.79-.39-1.18l-4.15,5.67c-.44.6-.84,2.53.23,2.43Z"/>
      <path d="M29.49,58.69c1.89-.57,4.71.03,5.44-3.14-1.02-.14-3.19,2.92-5.31,1.91-.63-.3-1.37-1.21-1.97-1.93l-3.31,2.77c1.27,2.02,3.39.91,5.15.39Z"/>
      <path d="M41.4,11.34c-1.49-2.42-3.29-4.97-5.31-6.71.77,2,.97,3.08.32,4.95.78,1.05,2.31,2.31,3.87,3.09.34.17,1.3-1.05,1.12-1.34Z"/>
      <path d="M11.87,8.51c1.2.49,2.8-.58,3.58-1.7.53-.76.25-2.16-.11-3.55l-3.21,1.81c-.79.45-1.01,3.05-.27,3.44Z"/>
      <path d="M31.83,3.26l-.65,2.66c.89,1.54,2.2,2.64,4.25,2.78.64-1.37.44-3.23-.64-3.82l-2.95-1.61Z"/>
      <path d="M24.22,59.65c.26.06-.12-1.32-.41-1.42-1.34-.45-3.3-1.66-3.98-2.83l-3.03,2.82-4.36-2.71c-1.04,2.27,4,2.94,5.66,3.31,2.15.49,3.55,1.23,5.12-.68l-.29,1.31c-.06.27,1.02.14,1.29.21Z"/>
      <path d="M31.11,18.25c1.93,4.99,2.67,8.97-1.23,13.31,4.91-1.13,5.18-11.08,1.23-13.31Z"/>
      <path d="M28.39,45.18l-2.62-1.29-2.29,3.87c-1.11,1.88,2.73,1.52,4.9-2.58Z"/>
      <path d="M26.84,2.68c.36,1.01,1.99,1.98,3.35,2.45,1.43-1.71.61-2.62-.5-3.49l-2.09-1.64-.76,2.68Z"/>
      <path d="M19.49.36l-2.83,2.16c-.37.28-.25,2.02.21,2.09,1.78.29,3.83-1.67,3.58-2.21l-.95-2.04Z"/>
      <path d="M39.34,28.23l-2.98-1.79c.64,2.31,2.02,4.52,4.76,5.13-.15-.97-1.01-2.87-1.78-3.34Z"/>
      <path d="M11,56.18c.14-.58.28-1.58.22-1.92-2.35-.95-4-2.66-5.95-4.67.97,2.7,3.03,4.6,5.73,6.59Z"/>
      <path d="M41.23,50.81c-2.25,2.42-6.85,3.19-5.01,5.3,2.24-1.58,3.94-3.12,5.01-5.3Z"/>
      <path d="M16.32,1.08l-.89-.73-3.8,3.52c2.25.04,3.35-1.1,4.69-2.8Z"/>
      <path d="M31.05.28c.24,2.28,2.37,3.77,4.24,3.35-1.37-1.72-2.67-2.67-4.24-3.35Z"/>
      <rect x="21.72" y="1.14" width="2.95" height="1.92" transform="translate(4.17 15.53) rotate(-40.39)"/>
    </g>
  </g>
</svg>