<?xml version="1.0" encoding="UTF-8"?>
<svg id="Warstwa_2" data-name="Warstwa 2" xmlns="http://www.w3.org/2000/svg" viewBox="0 0 49.02 53.17">
  <g id="icon-v10-loot-pixarts-store">
    <g id="icon-v10-loot-pixarts-store_113">
      <path d="M15.86,49.01c-1.95-1.96-.83-6.16,1.37-6.94,2.59-.92,4.85-1.71,7.19-2.91l.97.4,12.28-3.1c3.05-.77.46-3.99,5.68-5.46l-4.04-2.12-1.98-1.86c2.36-.6,4.4,2.95,5.32,1.22l1.81-3.42-4.71-10.46-3.57,2.35c.72-1.7,1.88-3.04,2.84-4.38-1.94-6.73-5.04-3.28-6.16-6.76-.07-.23-.65-.82-.73-.58-.66,2.05.52,3.49-.78,4.28-1.31.8-2.57,1.68-3.8,2.83-.06-.88.59-2.18,1.5-2.76l1.58-1.02c-.4-1.2-.31-1.87,0-2.76l-5.02-2.62-12.99,3.18c.78,1.87,2.13,1.87,3.99,2.55l-1.64.35.53,3.02c-2.09-2.64-5.2-7.03-9.02-4.03,3.52,9.72,7.69,18.68,9.99,29.17-4.21-9.12-7.65-18.97-11.22-28.68-1.93-.52-3.45.77-4.24,2.26-1.29,2.47-1.47,5.15.07,7.37.74-2.01,1.66-3.76,3.5-4.42-1.22,2.62-5.2,8.68-1.64,10.46.45-2.61.64-5.32,3-6.27-.59,2.07-2.43,4.49-1.77,6.43l4.26,12.51c.85-1.33,1.26-2.36,2.74-3.05-.36,2-4.54,7.69-1.11,9.55.63-2.64.63-5.36,3.6-6.18-2.37,3.64-2.89,7.05-1.39,10.92.47,1.22,1.35,2.55,2.42,3.06,1.77.84,5.08-.6,5.33-1.48.7-2.45-3.06.52-4.18-.62ZM13.57,18.3c2.36-.7,4.75-.84,7.27.48l1.81-2.9c-1.5-1.65-1.3-3.54-.66-5.3.86,4.08,2.62,4.4,6.31,6.09.85-2.31,2.43-3.63,4.79-4.23-1.2,1.79-2.53,3.63-3.05,5.42,2.27,2.42-.04,3.67,2.47,4.49,1.8.59,3.07,1.16,4.63,2.1-2.55,0-4.5-.2-6.67-.07-2.41.14,1.58,5.29.2,9.31l-2.17-4.69c-.62-1.33-3.18-2.49-4.28-3l-4.45,4.02c-.28-1.53,2.75-4.21,2.07-5.61l-1.73-3.32c-1.39-1.77-4.08-1.73-6.55-2.79Z"/>
      <path d="M46.36,41.55l-16.87,4.6c-.32.09-.82.59-.98.83-.17.25.88.82,1.25.72l8.17-2.27c4.29-1.19,5.38.15,11.1-2.71l-2.46-4.49c-.37,1.44-.33,1.98-.2,3.32Z"/>
      <path d="M20.8,45.15l1.67,8.02,2.37-2.87,2.59,1.56c-.14-2.9-.56-5.34-1.78-8.06l-4.85,1.34Z"/>
      <path d="M43.94,32.33c-1.77.24-3.43,1.73-3.37,3.9l8.11-2.34-3.08-7.58c-3.25,2.35.49,5.74-1.67,6.02Z"/>
      <path d="M30.85,3.68l2.02-.56c.42-.12.8.91,1.05,1.6.6,1.7,1.94,2.23,3.42,1.73l-2.41-6.45c-3.02.52-5.39.98-8.13,1.75,1.22.98,3.02,2.22,4.05,1.93Z"/>
      <path d="M33.95,40.82l10.08-2.42c.43-.1.9-1.11.8-1.63l-9.2,2.04c-5.16,1.14-10.03,2.63-15.2,4.41l14.6-3.46-1.08,1.07Z"/>
      <path d="M27.74,44.46l16.52-4.06c4.91-3.79-17.85,4.04-16.52,4.06Z"/>
      <path d="M28.87,19.7c-1.13-1.32-2.9-1.9-4.69-2.61-.74,1.35-1.52,3.2-1.63,4.68,1.5,1.37,3.01,2.23,5,3.1.86-1.94,1.73-3.78,1.32-5.17Z"/>
    </g>
  </g>
</svg>