<?xml version="1.0" encoding="UTF-8"?>
<svg id="Warstwa_2" data-name="Warstwa 2" xmlns="http://www.w3.org/2000/svg" viewBox="0 0 55.83 44.79">
  <g id="icon-v10-loot-pixarts-store">
    <g id="icon-v10-loot-pixarts-store_162">
      <path d="M15.29,41.64l-.37-3.47c-2.01-1.81-4.95-2.19-7.46-1-1.42.67-2.23,2.62-1.28,3.98,1.41,2.03,3.75,3.43,6.18,3.63,1.93.16,3.12-1.25,2.92-3.14Z"/>
      <g>
        <path d="M8.58,9.17c-1.84.4-3.2,1.75-2.97,3.92,2.37-1.41,4.82-1.89,7.39-1.05,7.09,2.31,13.08,9.39,12.91,17.16,2.15.06,4.23-.83,6.12-2.04,4.4-2.81,1.23-9.22.62-13.59,1.46,2.08,1.99,4.43,2.67,7.01.55-6.22-1.08-12.56-4.92-17.64C28.58.54,25.84-.38,22.89.14c-5.64,1-11.15,3.48-15.33,7.87,2.22-.28,4.26-.79,6.32-.08,4.43,1.52,8.31,4.62,10.06,9.06-3.56-4.4-9.41-9.12-15.35-7.82Z"/>
        <path d="M.44,25.53c-.74.81-.44,2.48.09,3.3,3.69-5.41,10.45-4.08,14.68-1.36,2.05,1.32,3.14,3.11,3.97,5.42,2.71-1.29,5.86-2.8,5.03-6.18-2.22-9.08-12.31-16.36-18.14-12.09C3.22,16.72.87,19.87.25,23.62c5.91-3.55,9.02-3.55,14.73,1.21l-2.99-1.32c-3.93-1.74-8.56-1.24-11.55,2.03Z"/>
        <path d="M38.08,3.11c-1.48-.85-4.04-.7-5.53-.45,4.14,7.67,5.87,13.33,3.59,21.33,2.72.74,5.14-.19,6.13-2.72,1.87-4.78,2.36-10.06.63-15.08-.45-1.32-1.58-2.31-2.69-2.56,1.11,3.6,2.5,7.06,1.15,10.5-.21-4-.67-7.96-3.27-11.02Z"/>
        <path d="M7.79,26.75c-2.27-.06-4.57.73-5.48,2.79-.91,2.05-.69,4.65.05,6.56,1.36-1.7,2.3-3.28,4.34-2.88-1.68.91-3.19,2.37-3.52,4.27-.09.54.75,1.5,1.09,1.63.78-2.58,2.28-3.79,4.53-4.23,2.57-.5,4.89.09,6.91,1.93.85-1.06,2.4-2.83,1.66-4.39-1.68-3.5-5.79-5.59-9.58-5.69Z"/>
        <path d="M50.66,10.73c-1.73-1.52-3.7-2.58-5.89-3.36,1.43,5.51.54,10.34-1.79,15.33,1.02.35,2.61.56,3.64.41,2.65-2.82,8.04-8.86,4.03-12.38Z"/>
        <path d="M47.91,23.21c1.48.99,3.05,1.86,4.83,2.54,1.38.53,2.66-.69,2.92-1.9.61-2.85-.41-5.7-2.16-7.99-1.45,2.92-2.94,5.18-5.59,7.34Z"/>
      </g>
    </g>
  </g>
</svg>