<?xml version="1.0" encoding="UTF-8"?>
<svg id="Warstwa_2" data-name="Warstwa 2" xmlns="http://www.w3.org/2000/svg" viewBox="0 0 54.76 58.62">
  <g id="icon-v10-loot-pixarts-store">
    <g id="icon-v10-loot-pixarts-store_313">
      <path d="M51.49,15.7l-1.57,2.21c-2.7-.98-2.98-3.26-3.49-5.89-1.27-6.54-8.75-8.19-14.75-10.71-5.94-2.49-5.08-1.35-12.34,2.86l5.77,1.48c-6.61,1.3-3.78-.81-10.71,1.29-2.86.87-5.62,1.87-7.71,4.2.14,1.13.72,2.53,1.35,3.52,1.94-2.1,3.55-3.09,6.14-2.79l-4.8,3.84c-.87.69-.45,3.45-.17,4.22,4.51-3.39,9.93-7.01,15.05-9.22,2.69-1.16,5.21-1.24,7.81.38l6.09,3.8c-2.6-4.96-7.45-9.07-12.95-9.72,1.84-.11,4.99-.15,6.37,1l6.22,5.17c1.83,1.52,2.29,4.59,3.7,6.25,1.91,2.24,3.1,3.53,3.03,6.54-.08,3.16-.61,6.07-2.65,9.18,2.56-.35,4.42-2.35,5.45-4.75l1.58-3.68c.81,2.81-.52,5.18-2.52,7.05-4.63,4.32-4.67,2.13-9.68,5.98-4.74,3.65-8.01.78-11.87-2.05-.67,2.87,1.68,4.43,3.18,5.99,2.23,2.32,3.6,1.76,6.34,1.29,2.91-.5,5.03-1.43,7.74-3.68-1.49,3-3.99,5.89-7.3,6.98-1.54.51-3.94.52-5.74.66-2.89-2.55-6.73-6.28-8.31-9.75-.71-1.56-1.88-4.32-.94-5.99,1.7-3.02,5.52-9.25,8.91-8.86,1.18.13,6.08,3.23,4.56,6.05-.51.95-2.19,1.53-3.8,2.21,2.17,1.11,4.73.88,6.55-.47,4.04-3,1.74-8.95,1.42-9.23-.5-.44-1.87-.69-2.62-1.09-2.64-1.41-4.92-4.05-7.88-4.79-3.97-.99-7.11,5.9-9.86,7.66-3.08-.16-7.16,6.9-6.92,9.68.28,3.27,1.82,6.25,4.07,8.83l-.06-8.5c0-.65.42-1.81.86-2.7l1.14,13.91c6.59,5.71,2.35,10.24,10.07,14.6l5.3-4.7c-3.47-3.16-6.41,2.74-6.99-2.58,3.54-1.38,7.23.32,10.72,1.42,3.52-2.18,6.88-4.92,10.05-7.62l.92-7.12c3.28-3.64,6.03-7,8.32-11.29.71-1.33-1.03-3.83-1.35-5.04-.59-2.2-1.04-3.82-1.75-5.99ZM16.33,28.7c-.16-2.5,2.6-2.67,3.87-4.08,1.28-1.42.94-4.25,3.59-4.64-.88,1.59-1.71,4.31-3.18,5.43l-4.28,3.28Z"/>
      <path d="M2.98,11.37l.63-3.57c-1.27.18-2.6,1.44-3.22,2.61-1.66,3.09,2.69,5.55,1.21,7.88-1.75,2.76-.91,5.47,1.74,7.18l1.05-2.22c2.58,5.2-2.65,5.05.9,10.86l1.35-7.83c.71-4.13-.06-8.82-1.33-12.68-.82-.55-2.47-1.44-2.33-2.22Z"/>
      <path d="M46.98,7.97l2.05,7.21c1.49-2.07.66-3.46,1.27-5.08.49-1.28,1.06-2.77.44-3.86-1.26-2.22-5.59-3.87-8.46-4.53,3.64,4.83,3.15.86,4.69,6.26Z"/>
      <path d="M48.31,40.3c-.73,1.06-.41,2.87-.2,4.05l-2.77,5.27,6.23-4.34v-7.12c-1.19.47-2.68,1.32-3.26,2.15Z"/>
      <path d="M11.28,1.88c-.83,1.45-1.19,2.42-1.41,4.1,2.9-.65,4.61-.83,6.28-3.83-1.77-.32-3.11-.36-4.87-.27Z"/>
      <path d="M12.31,45.1c-.18,1.57-.11,3.4.57,4.44.51.78,2.68.92,3.93.9-1.09-2.3-2.24-3.95-4.49-5.34Z"/>
    </g>
  </g>
</svg>