<?xml version="1.0" encoding="UTF-8"?>
<svg id="Warstwa_2" data-name="Warstwa 2" xmlns="http://www.w3.org/2000/svg" viewBox="0 0 36 58.54">
  <g id="icon-v10-loot-pixarts-store">
    <g id="icon-v10-loot-pixarts-store_05">
      <path d="M26.17,24.66c-2.4-3.07-2.69-7.88-.94-11.36.77-1.53,2.12-3.69.79-5.23-.26-.3-1.13-.64-1.47-.7-.27-.05-.45,1.19-.7,1.33-3.02,1.68-8.16,1.97-11.43.07-.3-.18-.55-1.4-.89-1.39-.35.01-1.23.37-1.45.63-1.49,1.7-.07,3.72.73,5.35,1.56,3.2,1.65,7.96-.52,10.86C6.78,28.88-.87,32.87.08,42.03c.6,5.8,3.8,11.35,9.04,14.24,5.51,3.04,12.6,3.06,18.1-.12,5.41-3.12,8.71-9.21,8.78-15.57.09-8.14-7.16-12.5-9.84-15.93ZM19.13,55.93c-5.28.38-10.18-2.13-13.22-6.44-5.24-7.41-3.09-14.55,3.48-20.05,4.74-3.96,6.59-10.34,3.78-16.08,3.23.88,6.31.84,9.6.12-2.46,5.66-.84,11.6,3.63,15.51,2.94,2.57,5.35,5.49,6.29,9.4,1.85,7.67-4.62,16.91-13.55,17.54Z"/>
      <path d="M22.57,7.72l1.66-6.41c-4.13-1.85-8.41-1.72-12.34.2.46,2.15,1.03,4.35,1.73,6.24,2.98,1.29,5.86,1.14,8.94-.03Z"/>
      <path d="M12.3,37.24c-1.98-.43-5.85-.75-6.82,1.56-1.49,3.91.61,8.45,3.29,11.14,2.89,2.9,6.74,4.5,10.95,3.91,6.79-.96,11.57-6.93,11.3-13.84-7.88,4.85-12.12.25-18.72-2.77Z"/>
      <path d="M17.36,38.05c3.84,2.55,9.78,3.84,13.28-.02-3.46-3.2-8.91-1.65-13.28.02Z"/>
      <path d="M20.49,32.28c1.13,0,2.05-.92,2.05-2.05s-.92-2.05-2.05-2.05-2.05.92-2.05,2.05.92,2.05,2.05,2.05Z"/>
      <polygon points="15.03 31.77 13.39 28.96 11.5 32.04 13.36 35.4 15.03 31.77"/>
      <path d="M17.56,23.9c.66,0,1.19-.53,1.19-1.19s-.53-1.19-1.19-1.19-1.19.53-1.19,1.19.53,1.19,1.19,1.19Z"/>
    </g>
  </g>
</svg>