<?xml version="1.0" encoding="UTF-8"?>
<svg id="Warstwa_2" data-name="Warstwa 2" xmlns="http://www.w3.org/2000/svg" viewBox="0 0 56.23 58.87">
  <g id="icon-v10-loot-pixarts-store">
    <g id="icon-v10-loot-pixarts-store_309">
      <path d="M46.19,16.12c-.57,5.73-4.31,2.83-4.59,8.5-.35-.48-1.3-3.01-.66-3.65,1.04-1.04,2.4-2.26,3.54-3.29.7-2.93.57-5.89.08-8.65-3.59,4.94,1.01,4.38-3.84,11.12-.05-1.7.72-3.33.77-4.68.14-3.24.61-6.06,2.27-8.9.52-.9.45-3.33.07-4.41-.36-1-2.75-2.35-3.8-2.13-1.85.4-3.65,1.14-5.08,1.74.09-3.32-10.64,3.46-9.7,6.56,1.65,3.58,4.82,6.94,4.54,11.04-.33,5-3.84,8.24-7.12,11.95,4.48-1.63,7.12-5.4,9.41-9.15,1.26,2.82-.6,3.87-2.11,5.3-2.72,2.56-5.1,4.98-8.7,6.55-12.78,5.57-.91,14.04-7.56,15.64-1.62.39-4.38,2.16-3.77,4.01.87,2.65,3.77,4.59,6.36,3.53-1.51-1.32-3.86-1.71-3.57-4.27l5.06-1.11c.86-.19,1.44,2.17,1.17,3.07,1,.27,2.93-1.35,2.54-2.58l-1.42-4.53c-.55-1.75-1.51-4.79,0-6.37,1.27-1.33,2.96-2.4,4.71-3.36-1.02,1.39-2.11,2.44-3.36,3.67-1.49,1.46-.93,4.39.49,5.56l2.11-5.68.34,3.47c2.18.03,1.76-1.73,2.06-3.35.52-2.81,3.74-5.12,6.4-5.98,4.24-1.38,6.39-3.81,8.47-7.55,1.17-2.1,4.06-3.5,6-5.15,2.84-2.41-1.16-8.4,5.83-11.3,1.18-.49,2.21-1.13,3.12-2.22-5.96.59-9.45.75-10.04,6.64ZM32.25,31.15l-4.04,2c-1.65.82-3.42,1.17-4.86.9,5.33-2.04,10.48-3.41,12.64-8.55.37,2.72-1.44,4.83-3.74,5.64ZM39.18,9.85c.55,2.47-.04,4.94-1.07,7.34l-1.03-8.03-3.92,1.15c1.09,4.01,1.91,7.76-.27,11.05.78-3.84.44-7.48-1.85-10.71l-5.07-2.58,3.5-3.31-1.28,2.11c3.29,3.22,9.34.48,11.84-3.11-2.73.1-4.72.51-7.14.98,2.53-2.49,6.1-3.09,9.37-2.24.27,4.21-4.14,2.56-3.07,7.33Z"/>
      <path d="M30.85,56.81c-2.08.15-3.44.42-3.88,2.05l6.44.02,4.66-4.69c.69-2.57-1.24-4.54-2.4-6.27-2.32-3.46-1.17-7.84,1.67-10.65,1.36-1.35,2.32-3.08,2.88-4.66-4.82,3.83-7.77,2.89-11.19,8.27-1.18,1.86-1.13,3.45.28,5.41l.41-2.12c.03-.15.36.07.59.17-.35,3.36,1.14,5.19,3.05,7.29,1.35,1.48-.48,5.03-2.51,5.18Z"/>
      <path d="M18.16,18.21l-5.72,2.63c-2.88-.06-3.68-3.71-2.63-5.85.5-1.01.76-1.47,1.8-2.98-3.51,1.56-4.9,5.15-3,8.83l-2.37-1.8c-.18.91-.08,2.99.56,3.73,1.13,1.3,6.67,3.39,8.96,1.12l-3.38-.92c3.94-.92,9.18-.94,10.33,4.51,1.66-.52,3.55-2.26,4.2-4.41l-5.1-1.93,3.38-.72c-2.02-1.34-4.78-3.26-7.04-2.22Z"/>
      <path d="M36.99,45.18c2.32.07,5.02.32,5.83,2.63.49,1.39.85,2.84,1.31,4.47l5.81,2.25c-1.19-3.26-4.19-1.56-4.24-7.08-.04-4.74-4.18-3.41-8.51-6.84-.68,1.54-.82,3.33-.2,4.57Z"/>
      <path d="M7.96,46.26c1.07-2.01,2.6-2.98,5.17-2.51l-.22-3.69c-1.56-.55-4.37-.89-5.33,1.09-.95,1.96-1.72,4.65-3.52,5.8-1.52.96-3.7.81-4.06,3.02,4.81-1.91,6-.02,7.96-3.71Z"/>
      <path d="M15.14,3.05l-.27,7.36c.79,1.03,3.17,2.31,4.1,2.18-2.1-6.5,2.53-5.61-3.83-9.54Z"/>
      <path d="M46.26,30.46l4.53.82,4.72-4.61c-2.48-.56-9.03.73-9.25,3.79Z"/>
      <path d="M8.48,31.05c1.79,1.49,3.25,2.11,5.26,2.71.74-1.25,1.26-2.03,1.32-2.6.05-.49-.79-1.37-1.2-1.72l-5.37,1.62Z"/>
      <path d="M46.5,35.52c-.12-.32-1.36-.29-1.57-.03-.46.57-1,1.85-1.35,2.91l3.51-1.26-.59-1.63Z"/>
    </g>
  </g>
</svg>