<?xml version="1.0" encoding="UTF-8"?>
<svg id="Warstwa_2" data-name="Warstwa 2" xmlns="http://www.w3.org/2000/svg" viewBox="0 0 53.81 48.82">
  <g id="icon-v10-loot-pixarts-store">
    <g id="icon-v10-loot-pixarts-store_147">
      <path d="M48.98,6.58c-4.59-3.57-13.58-3.3-15.14,2.19,1.54-.87,2.99-1.54,4.26-1.32-6,3.19-4.63,4.14-5,9.91l6.53.15c1.56.04,3.35-.66,4.53-1.58,1.72-1.35,2.19-3.87.59-5.47-.84-.84-2.45-.91-3.43-.56-1.17.42-1.98,1.03-2.24,2.67l2.8.04c-.1,1.44-2.09,1.91-3.07,1.4-1.4-.72-1.78-2.39-.9-3.66,1.09-1.58,2.9-2.39,4.73-2.34,2.59.08,5.67,2.63,5.5,4.57-.24,2.76-1.68,4.83-4.28,5.95-5.38,2.32-10.15-.77-16.03,2.26-1.9.98-3.2,2.76-2.98,4.82,6.33-.02,10.91,2.81,16.87,2.7,4.16-.07,7.92-2.03,9.97-5.13,2.26-3.41,2.72-7.5,1.36-11.24-.52,2.2-.66,4.29-2.75,5.17,2.1-3.59,1.97-7.98-1.33-10.54ZM31.96,23.12c2.08-1.35,4.51-1.3,6.98-1.68,1.15-.17,2.26-.71,2.87.69,2.31.57,4.47.41,6.77-.34-4.85,4.96-9.09.06-16.62,1.32Z"/>
      <path d="M24.78,32.06c4.54,2.65,11.75,3.92,14.57-1.79l-11.37-2.57c-5.3-1.2-10.6,1.42-12.86,6.27l1.02,3.02c6.84-1.78,11.01,2.24,18.01,1.96,5.71-.24,10.66-3.96,11.7-9.48l-4.63.87c-2.17,6.28-9.01,6.61-14.6,4.34-1.93-.79-3.61-1.29-5.8-1.95,2.12-4.01,9.64-3.85,12.03-.98l-4.45-.65c-1.26-.18-2.67.18-3.62.98Z"/>
      <path d="M19.45,12.03c.17-1.07.27-2.05.35-3.34-7.65,1.03-12.27,8.09-10.23,15.41.86,3.08,2.42,5.75,4.44,8.37,1.92-3.76,4.89-5.68,8.92-6.49.77-4.79-2.07-7.64-3.23-12.32-2.92.44-5.52,2.75-5.7,5.99-.11,1.99,1.18,4.49,2.93,5.14,1.76-1.11,2.29-4.03.52-5.52l-1.05,1.88c-.51-.65-.42-1.77.02-2.54.3-.52,1.79-.98,2.25-.43,2.44,2.91,1.42,7.21-1.64,9.24-2.11-1.53-3.89-3.29-4.52-5.62-1.28-4.75,1.98-9.07,6.94-9.78Z"/>
      <path d="M24.37,3.68c-2.94,2.59-3.66,6.98-2.47,10.66.74,2.28,1.7,4.38,2.63,6.67,2.05-1.9,4.38-2.84,7.14-3.62l-.35-6.09c-.21-3.63,2.07-6.79,5.5-7.79,1.92-.56,3.86-.75,5.95-1.03-5.68-3.6-13.24-3.34-18.41,1.2ZM27.05,5.56c-2.26,2.41-2.66,6.27-.15,8.44,1.75-1.61.68-3.63,1.15-5.61,2.34,2.02,1.58,6.38-1.04,7.66-2.32-.82-3.47-3.79-3.48-5.95-.02-4.84,4.58-7.84,9.27-8.08-2.05,1.11-4.18,1.88-5.75,3.55Z"/>
      <path d="M10.43,37.96c-2.69-4.78-2.91-3.14-5.16-9.2-1.66,2.14-1.47,4.77-.43,7.1,1.18,2.64,1.39,5.02,2.03,7.77.4,1.73,3.85,3.39,5.5,3.09,3.02-.54,4.1-7.53,0-13.24-1.96-2.73-3.43-5.49-4.65-8.59-2.84,6.72,2.88,8.65,2.71,13.05Z"/>
      <path d="M13.25,47.58c7.64,2.74,16.92,1.11,21.5-6.67l-5.03-.36c-2.03,4.09-6.55,4.84-10.24,3.25,3.63-.17,6.73-.52,8.38-3.74-3.82-.94-7.55-2.42-11.16-1.25.48,3.51-.29,6.61-3.45,8.77Z"/>
      <path d="M.65,35.82c.85,2.55,2.44,4.59,4.34,6.49.19-2.13-.52-3.77-1.31-5.56-2.39-5.4-.5-9.26,3.74-13.1-.05-1.09-.19-2.3-.42-3.41C1.28,23.43-1.31,29.92.65,35.82Z"/>
    </g>
  </g>
</svg>