<?xml version="1.0" encoding="UTF-8"?>
<svg id="Warstwa_2" data-name="Warstwa 2" xmlns="http://www.w3.org/2000/svg" viewBox="0 0 55.42 57.6">
  <g id="icon-v10-loot-pixarts-store">
    <g id="icon-v10-loot-pixarts-store_199">
      <path d="M51.36,42.12l-4.42,2.07,2.94-3.93c2.97-3.96.33-7.46-1.66-12.2l-11.74,4.98c-4.75,2.02-8.75-1.5-12.4-4.41l5,1.97c2.22.88,4.82.87,7.09-.03l8.54-3.37c2.37-.94,4.39-2.11,6.52-3.62l-1.28-3.25c-2,1.58-3.68,3.18-6.06,2.78,3.64-1.73,5.95-4.48,6.17-8.32l-3.95-1.72c-1.21-.53-2.81-.64-3.92-.35,1.66.96,2.86,1.64,3.92,3.04-1.92,2.34-4.26,3.71-7.08,4.72-5.93,2.13-12.39,2.84-18.41.92-4.28-1.37-8.16-2.74-11.74-5.75l2.54-1.55c.77-.47,1.45-.83,2.33-1.31-3.42-.4-6.75.28-9.07,2.96,1.33,1.98,2.97,3.41,4.99,5l-4.15-1.23-1.27,4.47c5.92,1.61,11.66,1.66,16.04,6.47-4.19-1.69-7.86-2.95-12.28-3.08-.6.92-1.25,2.07-1.67,3.04,1.46,2.27,2.61,4.16,3.61,6.47-2.06-1.19-3.21-2.29-4.96-3.71l-2.15,3.03.84,7.13c-2.29,1.03-3.47,3.09-3.67,5.38,1.91.16,3.65.39,5.47.75l6.87,1.34-1.92-2.42c6.61,3,13.9,7.02,21.15,4.7,1.69-4.18,8.82-4.06,12.43-2.37l4-2.2.21,1.27c2.63-.65,4.66-1.24,7.21-2.39-1.19-2.09-2.47-3.76-4.06-5.26ZM18.67,46.38c-1.68-1.5-3.06-3.02-3.93-5.29,3.57,2.84,7.01,4.26,11.61,4.97-2.65.85-5.1.75-7.69.31ZM40.56,42.94c-1.76.77-3.58,1.25-5.63,1.17,4.9-2.44,4.85-3.58,8.63-7.05-.39,2.5-1.6,4.08-3,5.88Z"/>
      <path d="M34.28,54.24c4.65,2.39,10.44.05,9.74-1.2-1.59-2.83-11.12-1.72-10.56.26.07.26.5.77.83.94Z"/>
      <path d="M26.8,13.91c.43,1.01,5.43.88,8.55-1.81.22-.19.55-1.01.34-1.2-2.17-1.99-9.71,1.08-8.89,3.01Z"/>
      <path d="M29.5,20.37l.8-.89c.68-.75-4.21-4.1-8.16-2.96-3.65,1.05,4.74,4.72,7.36,3.85Z"/>
      <path d="M30.74,4.62c3.21.9,7.31-.86,8.47-4.41-3.4-.89-7.23,1.13-8.47,4.41Z"/>
      <path d="M22.89,15.15h2.75s.2-3.24.2-3.24c-1.47-.7-7.54-1.41-7.68.74-.07,1.05,3.21,0,4.73,2.5Z"/>
      <path d="M24.03,7.75c1-2.11-4.31-7.04-6.74-5.66.75,3.14,3.57,5.47,6.74,5.66Z"/>
      <path d="M16.95,17.91c2.02.13,3.61-1.31,4.48-3.01-2.96-1.1-6.16-.47-8.32,1.47,1.23.7,2.68,1.47,3.83,1.54Z"/>
      <path d="M43.47,16.14c.51-1.36-4.15-2.99-5.62-2.82l-1.75,2.4c1.86,1.56,6.77,2.03,7.37.43Z"/>
      <path d="M44.24,54.94c-3.64,1.66-7.3,1.61-10.87,0-.47,3.6,11.31,3.52,10.87,0Z"/>
      <path d="M39.73,1.61c-2.13,2.6-4.59,3.92-7.83,4.4,1.08,2.43,9.07-1.64,7.83-4.4Z"/>
      <path d="M36.45,12.53c-2.74,2.25-5.73,2.94-9.19,2.86,1.39,2.56,9.46.14,9.19-2.86Z"/>
      <path d="M23.21,8.86c-2.95-1.44-5.19-2.94-6.56-5.81-1.88,1.96,4.45,7.27,6.56,5.81Z"/>
      <path d="M39.76,18.15l-5.23-1.68c.99,2.25,3.66,2.93,5.23,1.68Z"/>
      <path d="M31.77,20.38c1.54-.12,2.82-.37,4.32-.8-1.57-1.64-3.23-.57-4.32.8Z"/>
      <path d="M33.58,16.99l-2.83.66c.87,1.39,2.08.86,2.83-.66Z"/>
    </g>
  </g>
</svg>