<?xml version="1.0" encoding="UTF-8"?>
<svg id="Warstwa_2" data-name="Warstwa 2" xmlns="http://www.w3.org/2000/svg" viewBox="0 0 40.04 58.26">
  <g id="icon-v10-loot-pixarts-store">
    <g id="icon-v10-loot-pixarts-store_22">
      <path d="M38.2,2.35c-.81-.53-2.53-.55-3.32-.24l-3.08,1.2.75-2.14c-6.72-3.5-10.09,1.84-15.3,2.72-2.91.49-5.91-1.11-8.92-1.15-2.93-.04-9.78,5.32-8.05,11.26.94,3.24,1.74,6.22,3.45,9.21,1.08-.23,2.11-.78,2.96-1.37-.95-2.22-1.02-4.3-.51-6.58l1.32,4.84c.67,2.47,3.92-.38,5.89,1.53,1.85,1.8,4.48,3.95,7.52,2.81,1.44-.54,2.75-1.92,4-2.72,1.7-1.09,5.12-1.41,6.87.71.24.3,1.2-.21,1.44-.43,3.19,1.64,6.36-4.75,6.54-6.3.4-3.42.27-6.67.13-10.17-.04-1.1-.95-2.7-1.7-3.19ZM34.67,11.22l-.51,3.4c-1.8-2.18.8-4.78-1.53-7-.86-.82-2.47-2.23-3.98-1.57-2.72,1.19-5.18,2.49-7.97,3.95,2.14,1.56.65,4.35-.18,6.61l-.28-5.07c-3.46-2.36-9.21-4.45-13.05-4.61,4.96-2.53,9.41,1.7,14.14-.03,4.68-1.72,8.23-4.09,12.51-.65.28.23.8.53.76.75l-.19,1.01c.21.81.41,2.34.28,3.22Z"/>
      <path d="M32.21,27.79c-.05,6.38-.52,12.81-4.01,17.42l2.08-8.02c.18-.68.07-2.01.02-2.73l-2.15,1.98,1.81-4.88c1.04-2.78.87-6.17.35-9.14-.19-1.11-3.81-.72-3.84.36-.06,2.9,0,5.45-.42,8.2l-1.42-6.88c-2,1.02-3.54,2.68-5.77,2.11-4.68-1.19-6.13-4.93-8.48-3.71-.41.21-.94,1.04-1.08,1.56l-2.33,8.59.28-8.64-2.54,1.27-1.55,11.11c-.14,1.04,1.7,2.61,1.89,3.55l.74,3.77-2.91-3.94c-.39,4.45.53,8.36,1.61,12.52.47,1.8.63,4.38,2.74,5.06,1.53-.84,1.84-3.39,2.28-5.06,1.94-7.43-.79-5.91,1.34-11.67l.69,6.33c1.7-3.33,3.06-6.57,5.18-9.61.53-.76,1.07-1.4.77-2.08-.21-.49-1.65-1.18-1.92-.68l-3.23,6.07c-.46-2.14,1.83-8.07,4.32-8.05.49,0,1.52.6,1.81,1.02,3.23,4.64,2.47,10.55,2.54,15.62l3.23-6.08c.02,5.11-4.3,9.53-4.08,15.09,4.23-1.18,10.5-10.32,12.03-13.64,3.04-6.57,2.49-15.12,3.7-22.33-2.56.75-3.66,2.88-3.68,5.5Z"/>
    </g>
  </g>
</svg>