<?xml version="1.0" encoding="UTF-8"?>
<svg id="Warstwa_2" data-name="Warstwa 2" xmlns="http://www.w3.org/2000/svg" viewBox="0 0 55.8 56.39">
  <g id="icon-v10-loot-pixarts-store">
    <g id="icon-v10-loot-pixarts-store_49">
      <path d="M.25,41.98l5.97,2.88c1.9-.83,4.26-1.82,6.34-1.39,5.56,3.23,4.17,4.85,9.41,5.26l10.24.79c-3.86,1.39-7.72,1.59-11.66.52,2.7,3.08,2.98,7.29,6.8,6.16,2.61-.77,5.78-.46,8.35-1.6,3.35-1.48,6.08-4.19,9.12-6.16,3.34-2.15,4.24-4.6,5.26-8.69l1.88-7.59-2.94.25,3.15-2.05c.78-.51,1.86-2.64,1.32-3.39-.67-.95-1.75-2.22-2.4-2.93-2.37.19-5.41-1.01-6.31-3.4-.96-.3-2.49-.31-3.98-.05,1.87,2.03,3.62,3.42,5.77,4.95.94.67,1.27,1.56.75,2.67l-.42.88c-.07.16-.36-.14-.52-.34l-.44-.54-2.15,4.95c-1.63,3.75-3.94,7.07-7.14,9.85l2.57-.12c-7.83,4-13.71,4.72-21.75.59l-6.92-3.55c-.95-.11-2.95-.15-3.82-.15-.97.45-2.24,1.57-3.1.42,2.46-.83,6.14-7.9,7.18-10.13,1.46-3.13,2.93-6.02,5.22-8.63,4.22-4.82,10.83-7.01,17.06-5.09,1.47.45,2.77,1.53,4.41,2.22l-1.76-5.03c-3.32.02-4.85-2.81-5.83-5.34-4.9-1.31-7.81-1.43-12.43,1.11l-8.05,4.44c2.31.77,4.37,1.3,6.42,1.65l4.93-1.98c-2.74,2.19-6.56,3.48-8.24,6.76l-4.46,8.7c.5-4.91,3.5-8.34,2.93-13.07-.05-.44-1.3-.92-1.64-.72-.84.47-4.22,4.81-4.67,6.73-.78,3.29-1.28,6.15-1.76,9.64l2.93-3.25c-1.35,6.13-3.82,4.02-5.28,10.84-.16.74-1,2.64-.33,2.96ZM45.41,36.13c.21-.82.83-1.83,1.34-2.54-.25,2.98-.72,5.65-1.69,8.35-1.63,1.4-2.98,2.67-5.16,3.7,2.27-3.14,4.51-5.65,5.51-9.51ZM44.8,47.54l-4.64,2.68c-.97.56-2.91.45-4.21.15,2.92-1.39,5.53-2.21,8.85-2.84Z"/>
      <path d="M30.93,43.35c4.59-1.47,7.85-4.79,9.39-9.39,1.23-3.66.46-8.13-2.08-11.18-3.28-3.94-11.01-6.52-15.11-3.43-1.31.99-3.59,1.75-4.46,3.18-.78,2.36,1.57,3.97,3.7,5.05-2.27.74-4.51-.53-6.77-1.77-1.56,1.6-2.33,3.93-1.96,6.57,1.16,8.29,9.54,13.46,17.29,10.98ZM25.16,25.77c1.71-1.55-.88-3.87,1.93-5.88,3.77,6.75,4.17,14.71,0,21.43-2.52-3.57-5.29-12.48-1.92-15.54Z"/>
      <path d="M46.75,11.66l6.26-1.78-1.46-8.82c-.56-.49-1.71-.25-2.41-.03l-7.89,2.58,2.85,4.79,6.41-7-5.31,8.08c.26.77.98,1.9,1.55,2.16Z"/>
      <polygon points="43.18 9.74 40.61 4.3 37.05 12.6 38.91 17.65 43.18 9.74"/>
      <path d="M45.79,13.76c-.08-1.03-.88-2.3-1.59-2.9l-4.34,7.63,6.34.46-.41-5.19Z"/>
      <path d="M14.16,53.58c.86-1.9,1.57-3.8,1.3-6.07-1.98.93-3.48,1.66-5.11,2.75-.5.98-.89,2.88-1.12,4l4.93-.68Z"/>
      <path d="M50.96,15.29l-4.15,4.24c-.16.17-.35.84-.2.99,1.32,1.24,8.28-3.75,8.9-4.73-1.66-.34-3.32-.62-4.55-.49Z"/>
      <path d="M7.01,46.64l3.13,2.41,3.98-2.26-2.18-2.03c-1.76-.26-3.58.46-4.93,1.88Z"/>
      <path d="M52.59,11.01c-2.05.25-3.89.58-5.91,1.19-.34,1.78-.3,3.59.05,5.29l5.87-6.48Z"/>
      <path d="M8.3,38.17l2.44-.3c1.41,1,2.51,1.71,3.64,2.29-1.27-2.42-2.25-4.55-2.83-6.72l-3.25,4.73Z"/>
      <path d="M16.75,48.29l-.16,3.65c1.65,1.03,3.28,1.86,5.16,2.5-.64-1.67-3.42-5.45-4.99-6.15Z"/>
      <path d="M33.88,11.2c.15-1.36.26-3.14.15-4.57l-2.39-1.88c-.75,2.47-.13,4.84,2.24,6.46Z"/>
      <path d="M45.73,27.44l-4.08-3.33c.7,2.67,1.07,4.88,1.04,7.29l1.54-2.83c.2-.37,1.01-.83,1.49-1.13Z"/>
      <path d="M53.58,20.21c-1.96-.21-4.2.44-6.01,1.46,1.8,1.36,3.8,1,5.69-.19,1.46-.92,2.22-3.25,2.54-4.86l-2.42,2.21c-.25.23-.03,1.11.19,1.37Z"/>
      <path d="M37.48,5.72l-2.24,1.31-.26,4.39c2.54-1.53,2.33-3.53,2.5-5.7Z"/>
      <polygon points="34.96 0 31.85 3.77 34.38 5.79 34.96 0"/>
      <path d="M8.25,53.74c1.24-2.48.69-5.11-1.77-6.51.43,2.4.99,4.41,1.77,6.51Z"/>
      <polygon points="35.42 5.84 37.8 4.1 35.56 .88 35.42 5.84"/>
      <path d="M12.27,16.34c-.15.56-.15,1.57-.01,2.01l2.28-2.13c-1.06-.28-2.15-.33-2.26.12Z"/>
    </g>
  </g>
</svg>