<?xml version="1.0" encoding="UTF-8"?>
<svg id="Warstwa_2" data-name="Warstwa 2" xmlns="http://www.w3.org/2000/svg" viewBox="0 0 56.28 40.29">
  <g id="icon-v10-loot-pixarts-store">
    <g id="icon-v10-loot-pixarts-store_180">
      <path d="M49.85,4.96l-1.99.54.88-1.61C43.3,1.56,37.83.71,32.02.21,23.2-.53,14.43.61,6.54,4.65,3.38,6.27.48,9.58,2.14,13.5l-1.05.02C-.21,16.15-.21,19.53.39,22.62c1.59,8.16-.08,10.87,10.37,14.66-1.08-2.84-2.39-5.53-1.31-8.32,1.48,2.98,1.55,6.93,4.23,8.83,6.8,3.44,19.08,2.69,26.58,1.51,5.32-.83,3.25-3.93,5.39-5.84l.29,4.03c2.94-1.16,6.55-2.88,7.96-5.88,1.68-3.59,2.32-7.84,2.37-11.79.04-2.69-.99-5.28-1.34-7.86-.43-3.16-2.09-5.73-5.08-7.01ZM12.35,21.04c-1.78-.66-3.24-1.33-4.37-2.75,6.34,2.28,12.58,3.46,19.37,3.72l14.48-1.29c-9.25,4.21-19.86,3.88-29.47.32ZM49.53,18.55l-1.12,5.88c-.91-2.02-.74-4.09-1.99-5.52l-2.55-2.49c5.9-.34,1.86,2.31,8.51-1.11l-2.85,3.24Z"/>
    </g>
  </g>
</svg>