<?xml version="1.0" encoding="UTF-8"?>
<svg id="Warstwa_2" data-name="Warstwa 2" xmlns="http://www.w3.org/2000/svg" viewBox="0 0 62.64 57.86">
  <g id="icon-v10-loot-pixarts-store">
    <g id="icon-v10-loot-pixarts-store_234">
      <path d="M6.82,47.16c.63,2.16,1.71,3.96,3.03,5.68-1.33-4.74-1.59-9-1.89-13.77-.76-12.09,2.56-23.82,10.45-33.1l2.87-1.73c.14-.09.66-.43.57-.57l-.49-.83c1.24-.7,2.63-.95,4.16-.71-.42-1-1.34-1.87-2.1-1.91-1.07-.06-2.27.31-2.67.94l.45,1.95-1.45-1.77-3.77,2.67c-3.69,2.61-7.33,5.66-9.83,9.56C1.63,20.63-1.98,33.02,1.22,41.43l.96-6.45,1.85,2.61,2.8,9.57Z"/>
      <path d="M50.46,23.27c.69,1.42,1.07,2.84,1.03,4.32l-.9-.76c-.69-.59.36,3.55-4.22,3.19l-.26-2.07-1.66,1.4c-.33.28-1.41-.79-1.57-1.22l-1.38-3.85c-.92-2.57-3.03-5.55-5.91-5.88-1.5-.17-3.42.36-5.14.58,3.74.85,6.05,3.77,6.97,7.47.43,1.72.78,3.46-.43,4.85l-2.58-.73.18,1.98c.03.36-1.24.44-1.62.56-3.39,1.11-2-2.3-4.79-2.17-1.31-3.67-4.49-12.22-10.31-10.46,5.04,1.94,7.44,11,7.52,16.52l11.74-2.54c-.12-2.02.2-3.36,1.95-3.72-1.42,1.73-1.15,2.9-.85,4.89l.49,3.37c.32.74,1.99,1.64,2.75,1.83.68-.48,2.27-1.67,2.39-2.49l.86-6.05-2.27-2.47c1.83,0,3.11.98,3.08,2.96l9.68-2.37c-.57-4.97-3.42-15.5-10.69-13.33,3.29.8,4.62,3.5,5.92,6.18ZM42.5,35.11c-.57,2.07.52,3.56-.48,3.47-.36-.03-1.36-.12-1.31-.12.56-2.81-1.38-4.06.19-4.91.31-.17,1.18-.2,1.42.06.25.26.29,1.12.19,1.49Z"/>
      <path d="M14.19,48.68l7.64,4.75c.46,1.33.64,3.37,2.18,3.76l1.08-7.91c.1-2.15.12-4.43-.07-6.58l-.41-4.54-13.23-6.61,1.08,7.52c.49,3.37-.05,6.68-1.82,9.57.84,1.22,2.38.67,3.55.03ZM14.06,35.07l7.58,3.83-.25,2.78,1.72-.8.14,8.14-1.84-1.93.1,3.12-6.24-3.46.66-2.72-1.74.32-.33-7.67,1.28,1.19-1.09-2.81Z"/>
      <path d="M54.99,31.74l-9.36,2.11c-.25.72-.44,1.76-.47,2.34l5.4-1.45-.23,2.59,1.81-1.06-.21,7.4-2.4-.15.89,2.62c-2.19.48-4.71,1.75-6.88,1.59-2.04-.16-2.17-3.67-1.38-4.91l1.81-2.83-2.8,2.23-3.55-2.38c-.12-1.78-.27-2.92-.82-4.18l-11.3,2.59c-.06,7.52.71,12.3-1.08,19.61,2.04-.67,3.76-2.25,5.36-3.44l21.32-5.58c1.71.59,3.6.91,5.29.49-3.59-6.36-2.56-10.45-1.39-17.6ZM37.81,49.47l-7.03,1.64.29-3.27-2.72,1.37-.06-7.54,2.25.68-.66-2.97,6.27-1.25.2,2.47c2.51.56,4.82,2.62,4.7,5.08-.11,2.26-1.39,3.35-3.23,3.78Z"/>
      <path d="M48.6,4.22c-1.62-1.14-3.09-2.38-4.8-3.79-.32,1.36-1.16,2.46-2.33,2.57,3.49,3.71.46,10.84-2.49,14.45,4.83.19,6.65-9.46,5.37-13.71,14.07,7.34,17.77,23.32,16.08,38.09,1.28-4.12,1.56-8.29,2.23-12.72-2.01-10.36-5.18-18.65-14.05-24.9Z"/>
      <path d="M24.65,36.78c.08-5.29-2.49-15.23-7.72-15.81-4.25-.47-5.45,5.59-5.77,9.21l13.49,6.6ZM15.56,23.74c3.26-2.18,7.56,6.45,6.78,9.46l-8.88-4.25c-.66-1.82.45-4.11,2.1-5.21Z"/>
      <path d="M58.4,33.2c.49-.1,1.28,1.34,1.51,1.68.1-5.1-1.24-9.86-4.22-13.93-.57,2.41-.14,4.72.13,7.26l.83,7.81c.43-1.04.92-2.65,1.75-2.82Z"/>
      <path d="M17.97,10.43c-.07,3.63,1.56,6.78,4.71,8.66.76.45,1.96.44,2.93,0-5.23-2.19-7.28-7.63-5.44-13.34-1.85.82-2.16,2.85-2.2,4.68Z"/>
      <path d="M27.91,21.82c1.69-.95,3.07-1.09,4.98-.83-1.1-.85-2.61-1.07-4.04-.82l-5.34.93,2.96,3.75c-.2-1.66.18-2.31,1.43-3.02Z"/>
      <path d="M54.24,21.79c-1.45-5.5-3.58-10.36-7.17-14.24,1.9,3.67,3.67,6.95,5.18,10.65.55,1.33,1.13,2.64,1.99,3.6Z"/>
      <path d="M38.36,18.9c.66.38,1.4.75,1.91.94,1.37-1.08,3.41-1.7,4.88-1.09,1.75,2.52,2.22,1.28,4.07,3.41-.91-2.45-3.29-4.21-5.99-4.39l-4.87,1.13Z"/>
      <path d="M9.25,37.17c.68-1.35,1.27-2.69,1.59-3.8l-.84-5.42c-.46,3.12-.74,6.12-.75,9.22Z"/>
      <path d="M14.72,19.92l1.71-6.87c-1.81,2.24-2.36,4.76-2.68,7.83.27-.07.89-.63.97-.96Z"/>
      <path d="M38.56,1.83c1.38-.2,2.04-.19,3.87.14.09-.09.39-.91.36-1.23-.02-.32-.84-.7-1.22-.74-1.28-.13-2.75.66-3.01,1.82Z"/>
      <path d="M46.53,14.68c.06.37.61.92,1.1,1.14-.26-2.02-.77-3.52-1.74-4.96l.64,3.82Z"/>
    </g>
  </g>
</svg>