<?xml version="1.0" encoding="UTF-8"?>
<svg id="Warstwa_2" data-name="Warstwa 2" xmlns="http://www.w3.org/2000/svg" viewBox="0 0 58.95 56.68">
  <g id="icon-v10-loot-pixarts-store">
    <g id="icon-v10-loot-pixarts-store_229">
      <path d="M58.63,25.33l.32-18.24-38.45,6.52.11,18.28.34,24.78,37.42-10.34.27-21.01ZM55.91,8.99c.35-.2,1.43.05,1.64.37.25.37.18,1.31-.18,1.58-.36.27-1.37.22-1.66-.12-.29-.35-.19-1.6.21-1.83ZM50.26,9.78c.36-.13,1.28.23,1.49.56.24.39-.22,1.46-.63,1.65-.42.2-1.44-.23-1.68-.69-.22-.41.3-1.34.83-1.53ZM44.35,10.82c.64,0,1.15.52,1.15,1.15s-.52,1.15-1.15,1.15-1.15-.52-1.15-1.15.52-1.15,1.15-1.15ZM37.68,11.96c.38-.05,1.05.62,1.12,1,.08.46-.54,1.39-1.03,1.46-.46.06-1.17-.65-1.35-1.17-.15-.44.71-1.21,1.26-1.29ZM30.38,13.18c.42-.11,1.32.32,1.33.7,0,.51-.16,1.59-.61,1.56-.54-.03-1.22-.2-1.52-.42-.55-.42-.25-1.57.8-1.84ZM23.02,14.54c.7,0,1.27.57,1.27,1.27s-.57,1.27-1.27,1.27-1.27-.57-1.27-1.27.57-1.27,1.27-1.27ZM22.74,23.89c.44-.03,1.34.57,1.44.99.1.42-.54,1.26-.92,1.46-.38.2-1.09-.33-1.36-.66-.41-.5.13-1.74.85-1.79ZM22.08,34.31c.29-.31,1.57-.18,1.93.16.24.23.26,1.36-.05,1.48-.39.15-1.33.15-1.71-.04-.38-.19-.46-1.29-.17-1.6ZM22.34,44.25c.29-.33,1.37,0,1.62.29.3.35.28,1.46-.13,1.68-.34.19-1.23.14-1.61,0-.43-.17-.25-1.55.11-1.96ZM24.36,53.87c-.08.52-1.2,1.17-1.55.84-.5-.48-.7-1.49-.46-1.81l.49.77c.12.18.66.5.72.29l.45-1.42c.15.18.41.92.35,1.34ZM30.63,52.92c-.62,0-1.13-.51-1.13-1.13s.51-1.13,1.13-1.13,1.13.51,1.13,1.13-.51,1.13-1.13,1.13ZM37.58,51.12c-.63,0-1.13-.51-1.13-1.13s.51-1.13,1.13-1.13,1.13.51,1.13,1.13-.51,1.13-1.13,1.13ZM45,49.08c-.41.24-1.2.23-1.51-.08s-.21-1.65.19-1.8c.34-.12,1.31.16,1.64.36.37.23.13,1.24-.33,1.51ZM50.59,47.5c-.61,0-1.1-.49-1.1-1.1s.49-1.1,1.1-1.1,1.1.49,1.1,1.1-.49,1.1-1.1,1.1ZM54.48,43.18l-27.24,7.09-1.17-.25c-.82-.17.72-2.83-1.35-4.59l-.2-6.16,1.23-1.84-.22-6.5c-.01-.41-.97-1.4-.96-1.87l.14-5.99c.02-.86,1.87-1.81.73-3.09l.56-2.48,28.88-5.16-.39,30.83ZM56.93,45.7c-.47.18-1.09.19-1.43.03-.47-.23-.51-1.59.04-2.01.3-.23,1.39.16,1.63.45.28.35.18,1.37-.24,1.54ZM56.47,38.02c-.39-.1-1.07-.64-1.08-1.04,0-.4.39-1.06.76-1.57l1.27,1.38c.35.38-.56,1.34-.95,1.24ZM55.65,28.05c-.04-.42.14-1.13.31-1.53l.59,1.43.87-1.05c0,.25-.17,1.1-.33,1.57-.13.4-1.4,0-1.44-.42ZM56.52,20c-.39-.19-.94-.86-1.03-1.28-.09-.42,1.03-1.19,1.34-.9.15.14.68.73.93,1.05.28.35-.86,1.32-1.24,1.13Z"/>
      <path d="M.91,46.7l18.4,9.86.05-18.63-.21-24.4L0,6.23l.63,37.41c-.09,1.07-.03,2.19.27,3.06ZM1.69,36.44c.31-.21,1.56.46,1.4.79l-.74,1.45c-.17.33-.91-.34-1.24-.79-.26-.35.01-1.06.58-1.46ZM1.6,46.25c-.27-.26-.53-1.55-.33-1.85.21-.31,1.34-.46,1.49-.13.17.38.33,1.02.33,1.39,0,.37-1.23.84-1.5.59ZM6.95,48.6c-.42.05-1.11-.12-1.4-.34-.35-.26.09-1.69.62-1.77.36-.06,1.25.49,1.45.79.24.36-.23,1.27-.67,1.32ZM11.51,51.18c-.59,0-1.08-.48-1.08-1.08s.48-1.08,1.08-1.08,1.08.48,1.08,1.08-.48,1.08-1.08,1.08ZM17.37,54.31c-.56-.23-1.27-1.17-1.19-1.6.08-.42,1.01-1.09,1.43-.98.36.1.88.93.94,1.3.07.44-.75,1.46-1.17,1.28ZM17.54,45.89c-.61,0-1.1-.49-1.1-1.1s.49-1.1,1.1-1.1,1.1.49,1.1,1.1-.49,1.1-1.1,1.1ZM16.98,33.36c.25-.32,1.4.16,1.59.52.19.35-.06,1.12-.35,1.57-.21.33-1.06.07-1.42-.23-.37-.3-.22-1.36.18-1.86ZM17.51,25.73c-.64,0-1.16-.52-1.16-1.16s.52-1.16,1.16-1.16,1.16.52,1.16,1.16-.52,1.16-1.16,1.16ZM17.18,14.17c.67,0,1.21.54,1.21,1.21s-.54,1.21-1.21,1.21-1.21-.54-1.21-1.21.54-1.21,1.21-1.21ZM11.76,11.98c.62,0,1.13.5,1.13,1.13s-.5,1.13-1.13,1.13-1.13-.5-1.13-1.13.5-1.13,1.13-1.13ZM15.66,16.98l.14,33.07-10.63-5.34c-.54-.27-1.43-1.03-1.89-1.49-.13-1.91.33-4.23-.14-6.19l-.85-3.56c-.32-1.36-2.08-2.8-.24-4.41l-.94-1.35c-.22-.31-.3-1.33-.16-1.69.14-.35,1.05-.22,1.6-.21.13-.72.59-2.34.59-3.13l-.04-10.79c4.5,1.5,8.49,3.1,12.56,5.07ZM1.3,8.19c.26-.26,1.21.35,1.38.67.17.33-.02,1.43-.43,1.58-.52.18-1.48-.22-1.48-.54.01-.43.21-1.39.52-1.71Z"/>
      <path d="M1.5,5.26l18.18,7.14,7.22-1.12,30.59-5.2-14.04-4.48c-.1.52-.15,1.23-.4,1.13l-1.41-.58,1.37-.71c-7.36-2.49-6.43-1.16-13.08-.41.4.26,1.07.64.84.72-.15.05-.77.56-.9.46l-1.23-.98-6,.84.92.9-1.43.23c-.32.05-.58-.48-.9-.94l-7.26,1.08c1.21.33,1.4.7.34,1.05l-1.94-.81-7.06.91c-1.21.15-2.34.41-3.81.78ZM34.46,1.94c2.02-.3,3.99.06,5.91.7,2.97.99,5.7,1.76,8.76,2.97l-27.77,4.56c.1.66.26,1.43-.03,1.46-.36.03-1.12-.16-1.55-.35-.33-.15.24-.66.82-1.35l-6.89-2.84c-1.23-.51-2.32-.78-3.41-1.58l24.17-3.56Z"/>
      <path d="M29.37,23.62l-.02,5.76c0,.64-1.31,1.28-2.13,1.57l.15,6.64c3.07-1.39,1.73,8.06,1.72,8.39-.58.3-1.79.58-1.72.98l.27,1.61,25.67-6.72.14-27.75-26.08,4.72-.07,2.85c1.38.15,2.08.8,2.08,1.93ZM31.54,46.24c-.33.17-1.12.03-1.37-.29-.31-.4-.19-1.32.51-1.8.35-.24,1.47.12,1.55.48.11.44-.24,1.37-.69,1.61ZM51.7,41.02c-.29.23-.89.19-1.4.09-.44-.08-.48-1.29-.09-1.85.21-.31,1.46-.14,1.71.13.31.32.19,1.3-.22,1.64ZM50.59,16.09c.27-.29,1.43.28,1.54.66.11.38-.16,1.08-.5,1.47-.26.3-1.02.1-1.33-.14-.38-.28-.18-1.49.28-1.99ZM33.56,26.16c-.26-.95,1.26-2.87,2.27-2.73,1.11.15,1.92.28,2.63-.09.61-.32.91-1.38,1.09-2.37.14-.81,2.02-1,3.08-.87.8.1,1.59,1.28,2.17,2.32.42-.15,1.73-.69,2.24-.55.84.22,2.52,1.51,2.47,2.33-.05.87-.37,1.92-.14,2.5.29.75,1.27,1.28,1.97,1.68.61.37.54,2.25.24,2.95-1.68.98-2.72,3.22-1.76,5.12-.27.75-1.18,2.13-1.87,2.1-.81-.03-1.89-.09-2.5.27-.59.34-.92,1.25-1.39,2.26-.58,1.24-3.54,1.04-4.17-.03l-.7-1.21c-.17-.29-1.12.68-1.47.7-1.22.1-3.53-1.28-3.95-2.51.2-.67.8-1.84.51-2.33-.42-.68-1.27-1.19-2.07-1.71-.73-.47-.66-2.75-.11-3.43.42-.51,1.76-.85,1.82-1.46.08-.74-.1-1.97-.37-2.93ZM30.84,19.63c.38-.13,1.34.59,1.17.95-.22.47-.58,1.1-.83,1.41-.25.3-1.17-.46-1.4-.78-.29-.41.38-1.35,1.06-1.58Z"/>
      <path d="M25.73,43.12c.51.2,1.75.15,2.28,0,.45-.13.51-1.75.2-2.04l-2.48-.09c-.39.2-.52,1.93,0,2.12Z"/>
      <rect x="25.42" y="25.06" width="3.06" height="2.26" transform="translate(-2.06 2.3) rotate(-4.71)"/>
      <path d="M26.79,29.8l1.33-.26c.3-.06.39-1.52.06-1.53l-2.5-.04c-.37,0-.35,1.31-.05,1.51.24.16.87.36,1.15.31Z"/>
      <path d="M27.07,40.4c.54-.02,1.51-.72,1.26-1.12-.76-1.21-2.69-.76-2.85.25-.08.48,1.09.89,1.59.87Z"/>
      <path d="M28.5,43.87l-3.33.27c.68,1.69,1.35,1.53,2.32,1.46.47-.04.85-.77,1.01-1.73Z"/>
      <rect x="25.43" y="22.95" width="2.89" height="1.49" transform="translate(-2.12 2.64) rotate(-5.42)"/>
      <path d="M8.43,21.75c1.12.18,1.61,1.03,2.39,2.07.25.34,1.12.77,1.28,1.16.16.39-.07,1.43-.13,1.99.84.99,1.8,2.55,1.15,3.91-.18.37-.73,1.19-.68,1.58.04.34.38.64.84,1.17.41,1.05-.56,2.28-1.28,3.22-.47.61-.62,1.95-1.44,2.22-1.74.56-4,.62-5.83-.48l.13,4.19,10.1,5.14-.07-13.42-.25-16.93-10.06-4,.05,9.2c1.86-.91,2.53-1.2,3.79-1Z"/>
      <path d="M2.26,31.07l1.71,4.55c.26.7,1.7,1.75,2.08,2.46.28-.26,1.2-1.33,1.48-1.02l1.05,1.17c.09.1.71-.02.67-.15l-.2-.75c-.11-.42.14-1.38.48-1.64,1.2-.93,2.15.52,2.51-.75.06-.19-.09-.48-.28-.51l-.96-.15c-.62-.09-.69-1.72-.58-2.41l.25-1.6c.05-.31.79-.41,1.28-.58.25-.08.49-.67.4-.92-.31-.92-1.65.7-2.05.09-.15-.22-.4-.99-.41-1.25l-.05-3.41c-.57.65-.93,1.19-1.31,1.19-.38,0-.99-.72-1.14-1.07l-.62-1.51-.87,1.57c-.18.32-1.57-.03-1.87-.13l-.72,2.93-.87,3.89ZM4.95,26.72c.96-1.16,3-.34,3.44,1.02.68,2.08,1.57,7.21-.96,7.77-.56.12-1.91-.16-2.31-.65-1.92-2.33-2.09-5.84-.17-8.15Z"/>
      <path d="M26.66,8.54l18.25-2.93-8.54-2.76-22.47,3.33c5.95,2.44,6.13,3.42,12.77,2.35Z"/>
      <path d="M34.5,33.71c.41.07,1.45.16,1.6.51l.56,1.3c1.11,2.58-1.55,2.59.37,3.94.36.25,1.12-.6,1.55-.78.73-.31,2.69.15,3.03.86.29.61.47,1.6,1.09,1.49,1.01-.19,1.26-4.07,4.23-3.71.86.1,1.7.05,1.88-.49.13-.39-.15-1.22-.36-1.79.29-1.03.8-2.58,1.28-3.58.42-.39,1.52-1.05,1.3-1.73-.14-.42-.75-.78-1.48-1.18-2.11-1.16-.56-4.2-.79-4.64-.12-.23-.77-.61-.98-.45l-1.03.75c-.68.49-2.73-.37-2.97-1.19-.15-.51-.51-1.5-.97-1.57-2.54-.38,0,1.87-2.84,3.25-1.11.54-1.67.78-2.94.03l-1.15,1.63c.79,1.49.85,4.04-.63,4.89-.64.37-1.39.66-1.39,1.09,0,.44.24,1.29.67,1.36ZM39.72,27.11c1.43-1.41,3.4-1.92,5.33-1.17,1.54.6,2.81,2.34,2.86,4.36.08,2.86-1.33,5.62-4.27,6.63-1.26.43-3.14.18-3.99-.62-2.81-2.61-2.54-6.64.06-9.21Z"/>
      <path d="M35.32,27.44l-.92,3.28c1.58-.71,1.3-2.18.92-3.28Z"/>
      <path d="M4.87,32.76c.13.41.44,1.13.76,1.43.32.29,1.36.41,1.92.37,1.07-2.1.53-8.21-1.89-7.05-1.52.73-1.3,3.31-.83,4.53h1.45c.26,0,.46-1.11.35-1.35l-.5-1.08c-.07-.16-.38.31-.44.47l-.29.81c-.66.1-.53-.97-.35-1.62.11-.4,1.57-.25,1.82.09.77,1.01.54,2.77-.06,3.86l-1.93-.45Z"/>
      <path d="M42.05,35.62c-.02.28-.08.73.06.67l.86-.37c.75-.32,1.34-.65,2-1.03l1.01-.58c.07-.04,2.34-5.5-1.44-7.05l-1.83-.75v.87c0,.16-.44.16-.58.08-.09-.06-.51-.58-.61-.56-.68.15-1.82,1.15-2.12,1.72l.93,1.25c-1.14,2.18-.1,4.33,1.72,5.74ZM41.73,29.89c.34-.59,1.47-1.1,2.11-1.08.74.02,1.59,1.06,1.67,2.04.14,1.68-.76,3.08-2.21,3.16-.71.04-1.79-.91-2-1.58-.21-.63-.02-1.74.44-2.54Z"/>
      <path d="M42.91,33.1c.97.31,1.72-.89,1.8-1.57.07-.6-.37-1.83-1.03-1.89-.85-.07-1.48.82-1.69,1.48-.17.54.08,1.71.92,1.97Z"/>
    </g>
  </g>
</svg>