<?xml version="1.0" encoding="UTF-8"?>
<svg id="Warstwa_2" data-name="Warstwa 2" xmlns="http://www.w3.org/2000/svg" viewBox="0 0 55.66 52.5">
  <g id="icon-v10-loot-pixarts-store">
    <g id="icon-v10-loot-pixarts-store_214">
      <path d="M12.76,30.33l-4.23-.67c.07.92.28,2.36.71,2.87l4.68,1.88c-1.71-.16-3.08-.54-4.73-.95-.11,1.77.97,3.17,2.81,3.77l16.42,5.4c.54.18,1.51-.75,1.64-1.19.66-2.29-3.68-1.54-5.95-3.65l5.89,1.58-.03-3.62c-2.08-.63-3.59-1.06-5.52-2l5.69,1.07c-.18-.6-.84-2.27-1.48-2.46l-5.9-1.76c.08,1.99-1,4.24-3.14,4.21-3.21-.05-4.84-2.87-4.12-6.16l-6.16-1.96c-.42-.13-1.31.69-1.25,1.08.25,1.74,2.82,1.15,4.66,2.56Z"/>
      <path d="M32.98,47.05l.18-7.25c.08-3.1.15-6.06-.17-9.14l-10.71-2.78c-.2.62.04,1.55.46,1.67l6.54,1.84,1.91,3.26-.13,7.61-1.75,1.69-17.89-5.93c-1.5-.5-1.88-.84-3.04-2.27l.04,3.08,24.55,8.23Z"/>
      <path d="M20.34,0l-1.08,12.07c-.03.3-.07,1.02.15,1.02.32,0,.89.12.98-.72l1.08-10.89,27.08,4.46-1.55,15.12-4.22-.84c1.25,2.32,3.66,2.15,5.29,2.19l1.9-17.63L20.34,0Z"/>
      <path d="M29.5,10.61l-.85-2.25-1.61,2.33-2.14-6.66-.9,6.73-1.56-1.99.28,3.33,4.31-1.11c.87-.22,2.92.44,3.7.99.58.4,1.04,1.89,1.47,2.74,2.59.73,4.35-.58,5.94,2.72l5.05,1.46c.17.05.92-.46.75-.53l-1.21-.5,2.09-2.44-6.08.42,3.61-4.94-7.62,3,.73-3.82-3.26,2.1.88-6.39-3.58,4.81Z"/>
      <path d="M16.54,10.91l-5.31-6.48,2.88,8.26-3.25-1.51,1.19,2.63-7.1-3,5.5,5.89-5.74.16,4.26,2.26,4.19-2.22c.55-.29,1.24-1.41,1.65-1.85l3.33-1.54c.36-3.21.23-6.08-1.32-8.93l-.26,6.33Z"/>
      <path d="M45.55,36.52c.79-.12,1.64-1.01,1.77-1.98l.89-10.54-14.27,6.75-.09,15.83c1.47-.24,2.56-1.62,2.69-3.29l-1.3-1.35.03-7.61c0-.81.8-2.69,1.45-3.15l8.48-4.07,2.16,1.51-1.2.57-.61,7.32Z"/>
      <path d="M12.88,26.65c.83.26,1.95.31,2.89.32l.2,3.07c.12,1.78,1.2,3.37,2.93,3.83.43.11,1.38,0,1.63-.27.98-1.1.02-3.21.71-6.05l-16.65-4.86c.17,2.7.67,6.08,1.17,8.87.09.52,1.56,1.06,1.93,1.01l-.74-5.1c-.09-.6.43-1.87.71-2.45l5.22,1.61ZM17.52,28.13c.09-.38,1.38-.18,1.66.09,1.03.99-.58.95-.27,4.21-.12.1-.85.25-.89.07l-.22-1.13-.32-1.71c-.08-.41-.05-1.15.04-1.53Z"/>
      <path d="M50.83,4.87c-.92,6.06-1.62,11.98-1.82,18.06,4.58-1.61,6.63-5.78,6.65-10.26.02-3.5-1.58-6.47-4.83-7.8ZM50.43,20.47c.21-4.21.75-8.35,1.43-12.82,3.7,3.41,3.15,9.7-1.43,12.82Z"/>
      <path d="M54.01,41.85c-3.81,2.23-7.18,4.39-11.08,6.2l.49,3.85,12.12-7.57c.24-.79-.89-2.84-1.52-2.47Z"/>
      <path d="M45.18,23.6l-9.28,4.41c-2.04.97-3.38.93-5.32.39l-17.56-4.85c-1.92-.53-3.64-1.13-5.57-1.79l1.49-1.54c-1.57.55-2.56.94-4.05,1.64l16.43,4.78,12.12,3.33,13.4-6.15c-.4-.19-1.25-.41-1.66-.22Z"/>
      <path d="M19.53,16.55l.38,3.15,11.38-4.46c-.31-.89-.83-1.84-1.44-2.55l-10.32,3.86Z"/>
      <polygon points="53.14 40.99 51.96 37.86 43.72 42.33 43.92 46.29 53.14 40.99"/>
      <polygon points="42.02 47.72 36.98 45.83 35.39 49.35 42.75 52.08 42.02 47.72"/>
      <path d="M44.61,31.69l-8.24,3.68c-.12,1.1-.1,2.1.07,3.26,2.8-1.38,5.51-2.78,7.93-4.19.57-.33.49-2.26.24-2.75Z"/>
      <path d="M51.21,37.35c-1.28-.42-2.3-.69-3.36-.89l-7.92,3.96,3.31,1.37,7.97-4.44Z"/>
      <path d="M15.6,21.91c.06.02.11.04.1.09l-.06,1.17,4.98,1.39.27-2.03,1.02,2.29,2.16-1.89-.82,2.25.97-.62c.17-.11.23-.15.24-.03l.15,1.1,5.44,1.43c.18-.64.2-2.16-.14-2.84l-4.32-.95-.32-.96c-.06-.17-.87-.39-1.05-.35l-2.49.61-5.01-1.77-1.12,1.12Z"/>
      <path d="M14.51,20.31l-.21,2.24.75-.59c.06-.05.24-.08.4-.08l.23-1.25c.04-.19-1.14-.52-1.16-.32Z"/>
      <path d="M15.41,22.1l.19-.19s-.09-.02-.15-.02l-.04.21Z"/>
      <path d="M44.6,28.54l-7.08,3.43c-.74.36-1.21,1.5-1.06,2.69l8.13-3.88c.5-.24.42-1.97,0-2.25Z"/>
      <path d="M41.15,20.3l-10.18,4.43c.12.82.17,1.66.42,1.64.25-.02.64-.03.9-.03.2,0,.1-.91.25-1.1.65-.8,2.69-.73,3.79-.41.45-.53,1.36-1.57,2.02-1.8l4.02-1.41c.13-.22-.77-1.33-1.22-1.31Z"/>
      <path d="M39.12,41.46c-.87-.07-1.8,2.23-1.37,2.98l5.09,2.08-.12-4.11c-1.25-.42-2.4-.85-3.6-.95Z"/>
      <path d="M39.11,18.86c-3.63,1.82-6.94,3.33-10.49,4.53.5.13,2.22.61,2.84.35l10.14-4.17c-.66-.54-1.95-.98-2.49-.71Z"/>
      <path d="M36.46,17.07l-6.16,2.57c-.19.42.08,1.63.4,2.15l7.01-3.1c-.13-.63-.78-1.57-1.25-1.62Z"/>
      <path d="M28.76,12.32c-1.5-.91-2.67-.38-3.92.05l-8.05,2.76c1.12,2.18,9.95-2.09,11.98-2.81Z"/>
      <path d="M15.85,15.96c-1.14-.05-1.93,1.72-1.86,2.95l4.76,1.28-.07-3.7c-.87-.2-1.94-.49-2.82-.53Z"/>
      <path d="M44.18,35.4l-7.54,3.86c-.55.28-.3,2.22.02,2.4,3.03-3.33,8.98-3.75,7.52-6.26Z"/>
      <path d="M27.57,18.07c.76.8,2.09,1.22,3.19.74l5.66-2.47c-3.73-1.51-5.87.42-8.85,1.72Z"/>
      <path d="M48.56,34.23c1.32,1.18,5.86,1.61,6.63-.74-2.91-2.14-7.83-.33-6.63.74Z"/>
      <path d="M7.19,33.75c-2.47-1.55-5.4-1.61-7.19.32,2.08,1.76,5.59,1.99,7.19-.32Z"/>
      <path d="M25.03,49.89c2.32,1.36,5.32,1.65,7.1-.31-2.35-1.83-5.59-1.88-7.1.31Z"/>
      <path d="M9.14,44.14c-2.11-1.79-5.39-1.8-6.98.44,2.2,1.57,4.97,1.3,6.98-.44Z"/>
      <path d="M28.8,19.7c-1.15-.52-1.82-.9-2.69-1.48l-1.39,2.98c1.49.47,3,.83,4.73,1.04.39-.94.08-2.22-.65-2.54Z"/>
      <path d="M10.82,42.58c-1.76.98,3.99,3.16,5.94,2.42-.04-2.35-4.29-3.34-5.94-2.42Z"/>
      <path d="M13.96,20.04c-1.27-.26-2.08-.46-2.94-.6-.53-.09-1.21,1.35-1.36,1.95l3.6,1.1.7-2.45Z"/>
      <path d="M23.25,21.29c.74-.37,1.38-1.5,1.95-2.65-2.11.62-3.73,1.25-5.69,2.37,1.31.82,2.58.85,3.73.27Z"/>
      <path d="M7.11,39.04c-2.42.25-4.51.26-6.98.02,1.79,2.07,5.13,2.05,6.98-.02Z"/>
      <path d="M7.23,36.98c-2.52.91-4.47.7-7.02.17,1.68,2.31,5.71,2.3,7.02-.17Z"/>
      <path d="M16.56,45.81c-2.62,0-4.8-.62-6.78-2.23.56,2.28,5.78,4.07,6.78,2.23Z"/>
      <path d="M7.01,35.53c-2.34.44-4.3.65-6.76.07,1.53,1.87,4.95,2.08,6.76-.07Z"/>
      <path d="M33.31,25.93c-.12.5.69,1.73,1.18,1.63.49-.1,1.74-.76,1.99-1.18-.15-1.31-2.9-1.56-3.17-.45Z"/>
      <path d="M7.13,40.41c-2.31.8-4.36.66-6.95.3,1.8,2.19,5.41,1.65,6.95-.3Z"/>
      <path d="M31.63.81c2.29.62,4.24.87,6.27.91-1.96-1.53-4.42-2.02-6.27-.91Z"/>
      <path d="M12.68,48.37c.02-.08.23-.46.28-.55-2.06.26-3.9.37-6,.35,1.41,1.18,4.09,1.14,5.72.2Z"/>
      <path d="M12.96,47.81s0,0,0,0c.02-.03.01-.03,0,0Z"/>
      <path d="M25.12,51.02c1.93,1.9,5.05,2.05,6.96.01-2.65.6-4.56.76-6.96-.01Z"/>
      <path d="M54.95,35.45c.63-1.05-1.95,1.45-5.97-.12.38,1.21,4.78,2.09,5.97.12Z"/>
      <path d="M42.34,22.24l-2.68.94c.21.47,1.03,1.42,1.47,1.27.5-.18,1.72-.83,1.44-.83l-.22-1.37Z"/>
      <path d="M12.16,47.03l-2.01-1.42-1.82,1.74c1.49.21,2.65.13,3.83-.32Z"/>
      <path d="M8.92,45.71c-2.27.49-4.11.58-6.64-.02.44,2.06,5.95.95,6.64.02Z"/>
      <path d="M37.61,24.32l.16,1.63,2.16-1.01c-.09-.42-.74-1.32-1.11-1.29-.38.04-1.25.3-1.21.67Z"/>
      <path d="M52.43,10.21l-1.02,8.04c1.59-2.34,2.58-5.22,1.02-8.04Z"/>
    </g>
  </g>
</svg>