<?xml version="1.0" encoding="UTF-8"?>
<svg id="Warstwa_2" data-name="Warstwa 2" xmlns="http://www.w3.org/2000/svg" viewBox="0 0 53.1 58.1">
  <g id="icon-v10-loot-pixarts-store">
    <g id="icon-v10-loot-pixarts-store_206">
      <path d="M3.28,49.65c1.69,4.26,5.58,6.35,10.13,6.07-1.66-2.25-2.82-4.51-2.22-7.19,2.46,5.89,7.89,9.04,14.1,9.51,8.47.64,16.2-4.09,18.79-12.27.93,3.92-1.25,7.45-4.34,9.94,3.64.21,6.91-1.09,9.01-3.51l.62-.71c.11-.13.34.27.69.65,1.01-2.15,2.46-4.38,2.89-6.96.52-3.12-.23-6.51-1.52-9.37-1.74-3.85-6.67-5.53-9.17-13.24-.62-1.9-2.55-3.08-4.56-2.38l.53,3.41-2.08-2.12c-1.64,2.61-.37,4.56-.88,7.37l-2.14-5.8c-.96-2.59-3.23-4-6.01-4-9.69,0-5.79,3.06-11.37,10.8.17-3.21,2.48-6.45.87-9.21-1.09-1.87-5.01-.36-5.62,1.53C7.9,31.74,2.69,30.81.49,39.2c-1.14,4.33-.27,8.35,2.36,12.17l.44-1.72Z"/>
      <path d="M46.88,15.93c-.19-2.24-2.25-3.6-4.32-3.75l-6.7-.49c-.06,2.04-1.39,2.44-2.98,2.56-3.06.23-5.99-.03-8.38-1.99-4.71.75-16.41-2.47-17.84,2.89,1.99-1.57,4.23-1.7,6.78-1.35l-3.63,1.19c-2.22.73-3.74,2.96-3.75,5.32l-.03,6.88c3.92-3.85,2.03-8.7,7.62-9.12l9.65-.73c3.33-.25,6.57.22,9.95.48,4.57.35,9.3-.95,10.96,4.23.59,1.84,1.34,3.42,2.64,4.88.09-2.25.14-4.15.11-6.14-.07-3.74-2.59-5.93-6.26-6.69,2.29-.34,4.7.19,6.18,1.83Z"/>
      <path d="M32.24,10.57c-3.05.35-6.37-1.8-6.31-4.91.03-1.58,1.1-3.04-.4-4.48-.84-.81-2.47-1.46-3.84-1.06-2.28.67-2.56,2.57-2.49,4.4.08,2.2,2.63,2.02,3.46,3.18,2.61,3.65,5.61,6.46,10.5,5.21.49-.12,1.09-.8,1.01-1.31-.11-.67-.88-1.16-1.93-1.04Z"/>
      <path d="M31.05.37c-.99-.22-3.04.1-3.08,1.24l-.17,4.91c.71,1.17,3.29.75,4.26.03.91-.68,1.79-2.04,1.62-3.45-.17-1.51-1.43-2.46-2.63-2.72Z"/>
      <path d="M20.59,9.18c-1.18.09-2.04.4-2.05,1.8l4.48.02c-.3-1.85-1.17-1.91-2.42-1.82Z"/>
    </g>
  </g>
</svg>