<?xml version="1.0" encoding="UTF-8"?>
<svg id="Warstwa_2" data-name="Warstwa 2" xmlns="http://www.w3.org/2000/svg" viewBox="0 0 56.15 55.01">
  <g id="icon-v10-loot-pixarts-store">
    <g id="icon-v10-loot-pixarts-store_221">
      <path d="M13.93,28.16c-1.91,3.49-6.14,4.9-9.99,3.4-1.55,2.19-3,4.3-3.62,7.08-1.71,7.72,3.74,14.75,11.02,15.78,7.4,1.05,14.01-4.33,14.85-11.77.81-7.24-4.6-13.68-12.25-14.49ZM13.53,52.33c-5.48,0-9.92-4.44-9.92-9.92s4.44-9.92,9.92-9.92,9.92,4.44,9.92,9.92-4.44,9.92-9.92,9.92Z"/>
      <path d="M2.77,2.7C1.31,3.66.4,5.33.36,6.88c-.03,1.42.91,3.16,2.34,4.1,8.61,5.64,20.75,1.44,20.58-4.15C23.11,1.08,11.23-2.9,2.77,2.7ZM3.44,7.79c4.44,4.58,12.71,4.54,16.86-.22-.61,5.38-15.5,5.92-16.86.22ZM20.34,7.02c-.85-1.5-1.65-2.88-3.15-3.51C12.84,1.65,4.42,1.86,3.46,7.53c-.88-1.44.12-2.99,1.44-3.85,4.19-2.72,9.89-2.75,14.04.03,1.13.75,2.08,2.07,1.39,3.31Z"/>
      <path d="M46.03,17.38c-.94-2.32-3.41-4.48-6.6-4.33-.24,1.25,3.93.97,4.49,3.75,1.18,5.87-12.31,10.46-18.69,7.21-.93-.48-1.94-1.74-2-2.56-.3-4.25,6.68-6.49,9.77-7.93-3.49-.23-6.55,1.69-9.01,3.76-2.07,1.74-2.76,4.47-2.13,7.12,1.7,7.17,15.14,7.89,22.36.84,2.17-2.12,2.93-5.07,1.81-7.86Z"/>
      <path d="M50.64,7.86c-3.06-2.66-7.26-3.44-10.98-1.85-6.2,2.63-6.87,11.83-3.91,17.12l3.88-1.78c-2.51-4.61-2.18-12.39,2.7-14.26,2.36-.9,4.77-.56,6.81.8,4.91,3.28,7.31,9.94,5.36,15.71-.72,2.15-2.32,3.67-3.68,4.17-2.12.78-4.28.43-6.14-.62l-3.33,2.25c2.83,1.86,6.08,2.19,9.3.58,2.24-1.12,4.32-3.38,5.08-6.5,1.38-5.67-.65-11.75-5.09-15.61Z"/>
      <path d="M52.75,38.94c-8.1-5.51-20.39-1.68-20.7,4.4-.08,1.69.8,3.23,2.09,4.41,6.52,6.03,21.37,2.92,21.23-4.03-.03-1.72-.97-3.66-2.62-4.78ZM51.5,47.38c-7.37,5-17.5,1.19-17.64-3.64-.16-5.39,10.11-8.57,17.26-4.33,1.34.79,2.3,2.33,2.42,3.53.16,1.61-.47,3.38-2.03,4.44Z"/>
      <path d="M32.08,47.66c.09,2.59,1.82,4.33,3.95,5.46,4.7,2.5,10.76,2.54,15.43.05,2.22-1.19,3.94-3.04,3.91-5.63-4.94,6.33-18.04,6.5-23.29.12Z"/>
      <path d="M49.91,9.79c-1.94-1.73-4.32-3.03-6.94-1.78,3.47.6,5.95,2.73,7.58,5.75,2.26,4.17,2.59,8.81.13,12.91,5.74-2.7,3.8-12.81-.77-16.88Z"/>
      <path d="M2.46,28.64c.48,1.63,4.26,2.55,7.52,1.12,1.36-.6,2.69-2.55,3.41-4.39-1.81-2.72-3.62,3.38-10.17,1.94-.32.21-.85,1.01-.75,1.33Z"/>
      <path d="M24.66,22.26c1.88-2.51,4.72-4.07,7.62-5.01.41-.51.4-1.64.23-2.35-2.5.42-10.2,3.8-7.85,7.35Z"/>
      <path d="M3.43,26.27c2.91.4,5.56-.3,7.59-2.72-1.81-1.44-7.62.24-7.59,2.72Z"/>
      <path d="M43.09,17.35c-.41-2.02-2.14-2.4-3.54-2.76-.12.47-.28,1.7.05,1.98.98.83,3.73,1.94,3.49.79Z"/>
      <circle cx="11.73" cy="15.94" r="1.28"/>
      <path d="M14.2,14.66c-.5.2-.64,1.52-.5,2.01.12.41,1.51.47,1.77.13.26-.34.34-1.14.4-1.69.05-.46-1.15-.66-1.67-.45Z"/>
      <path d="M9.89,16.49c.11-.87-.22-2-.66-1.98-.44.02-1.53.03-1.52.38.01.64.22,1.58.51,1.89.29.31,1.63.13,1.68-.29Z"/>
      <path d="M16.55,14.5c-.05.55.04,1.85.14,1.98,1.73-.05,2.27-1.77,1.61-2.58-.41-.17-1.71.13-1.75.6Z"/>
      <path d="M19.43,15.28c1.28-.15,2.26-1.28,1.58-2.94l-1.46.89c-.35.21-.29,1.65-.12,2.05Z"/>
      <path d="M2.92,12.55c-.5,1.46-.21,2.5,1.5,2.91.04-.45.08-1.59-.16-1.98-.24-.38-.97-.77-1.35-.93Z"/>
      <path d="M6.89,14.9c0-.37-.75-1.01-1.18-1.09-.36-.07-.61.99-.69,1.38-.07.36.69.94,1.28,1.08.38.09.6-.99.59-1.37Z"/>
      <path d="M22.05,13.46c.68-.81.95-1.41,1.12-2.73l-1.19.93c-.32.25-.11,1.42.07,1.8Z"/>
      <path d="M37.15,40.26c-1.42.84-2.39,2.21-2.12,3.79,4.79-4.3,13-3.78,17.43-.2-.6-5.86-10.26-6.57-15.31-3.59Z"/>
    </g>
  </g>
</svg>