<?xml version="1.0" encoding="UTF-8"?>
<svg id="Warstwa_2" data-name="Warstwa 2" xmlns="http://www.w3.org/2000/svg" viewBox="0 0 56.23 54.73">
  <g id="icon-v10-loot-pixarts-store">
    <g id="icon-v10-loot-pixarts-store_173">
      <path d="M6,8.02c-.75,1.45.18,3.01,1.14,3.73,2.95,2.2,3.14-1.63,9.62-1.46,4.17.11,8.15.24,12.22.75l4.35.55-.8-.9c3.07.32,5.04,1.8,7.22,3.57,1.08.87,3.02,1,3.72,0,1.96-2.81-1.55-4.02-.76-5.23l1.07-1.63c.95-1.45-1.27-4.21-3.13-3.81-1.28.27-2.52,1.57-3.51,2.47-6.96.43-13.86-.15-20.72-1.34-2.2-.38-3.25-1.6-4.41-3.26C11.05.11,9.21-.32,8.12.23c-1.29.65-2.8,2.07-1.68,3.55l2.25,2.99c-1.51.08-2.14.17-2.69,1.25Z"/>
      <path d="M46.83,6.66c-.79.26-1.71,1.31-1.67,2.19.07,1.82,2.89,4.06,5.93,4.37,2.42.25,1.17,2.63,2.89,3.93,2.16-1.54,2.09-3,1.52-4.8-1.74-5.5-5.11,1.44-8.66-5.7Z"/>
      <path d="M51.61,8.62l-.38-3.23c-1.39-.69-3.13-.52-3.83.81,1.33,1.02,2.58,1.75,4.21,2.42Z"/>
      <path d="M50.63,17.33c.17-.32.08-1.47-.2-1.75-.86-.84-2.03-1.24-3.03-1.4.16,1.47.47,2.77,1.29,3.4.37.29,1.73.16,1.95-.25Z"/>
      <path d="M46.5,2.3c-.66.38-.93,1.26-.71,2.34l3.42-1.06c-.79-1.51-1.73-1.84-2.71-1.29Z"/>
      <path d="M.6,32.35c1.9,2.98,5.3.76,7.75,1.38l-1.22.59c6.79,3.76,13.31,8.24,19.38,13.38,3.32,2.81,2.03,6.57,5.06,6.98,1.27.17,3.3-.05,3.76-1.23.38-.99.34-2.56.43-3.64.89-.59,3.2-1.41,3.19-2.7-.02-3.12-2.96-4.38-5.65-3.74-4.4,1.04-17.11-9.71-20.61-12.87-2.18-1.97.34-6.2-4.15-6.98-1.49-.26-3.35.91-3.66,2.52l1.91.85c-2,1.32-4.73.01-5.96,1.25-1.16,1.17-.97,3.03-.23,4.2Z"/>
      <path d="M53.94,25.27c-2.85-2.35-6.52-1.43-9.79.01-.38-1.71,1.43-2.5,2.87-2.54l4.39-.14c-3.09-2.32-6.84-2.7-10.8-2.86-2.81-.11-5.69-.79-8.55-1.39-3.92-.83-5.81-4.7-11.78-1.81-1.66.8-3.05,1.87-3.51,3.36-.51,1.65-.99,4.14.62,5.12l6.51,4c4.38,2.69,5.31,9.99,11.4,10.22-1.1-3.31-1.75-8.54.68-11.25-.53,3.54-1.26,9.52,1.48,12.1.88.83,3.05,1.15,4.29,1.21-1.49-.69-3.19-1.41-3.95-2.64-2.4-3.86,1.88-8.61,3.02-9.12l5.88-2.63c2.17-.97,3.99-1.38,5.94.47,1.27,1.2,2.84,3.12,2.06,5.1l-1.42,3.59c3.75-2.53,3.86-8.15.65-10.8Z"/>
      <path d="M53.58,31.16c-.24-1.46-2.5-3.74-3.99-3.89-.69-.07-1.95.75-2.71.97-3.7,1.09-6.9,3.09-8.19,6.82-.81,2.35.8,3.82,2.77,4.58,2.09.81,3.59,1.31,6.08.28.85-.35,2.65-1,3.04-1.82l2.06-4.38c.33-.7,1.05-1.9.94-2.56ZM43.71,34.4c-.04-2.55,3.82-4.46,6.03-3.49.45.2,1.11,1.48,1.12,1.97.04,1.35-5.71,4.63-7.15,1.52Z"/>
      <path d="M46.77,32.28c-.53.33-1,1.15-1.25,2,1.56.44,3.39,0,3.97-1.56-.41-.73-2.02-.89-2.72-.44Z"/>
    </g>
  </g>
</svg>