<?xml version="1.0" encoding="UTF-8"?>
<svg id="Warstwa_2" data-name="Warstwa 2" xmlns="http://www.w3.org/2000/svg" viewBox="0 0 58.01 52.31">
  <g id="icon-v10-loot-pixarts-store">
    <g id="icon-v10-loot-pixarts-store_261">
      <path d="M12.92,43.08l2.49,1.42c.1-5.92.42-11.37-.02-17.17l-.52-6.87c-.05-.72-1.67-1.54-2.25-1.4v13.71c-1.19-4.81-.77-9.38-.95-14.24-.02-.58-1.46-1.45-1.7-1.15l-.51,2.28c-.09-2.14-.02-3.61-2.08-3.96l-.08,10.54c-.26-1.48-.5-2.9-.57-4.26l-.37-6.99c-.62-.43-1.34-.86-2.12-1.25l.35,23.21c.58.6,1.47,1.21,2.19,1.6l.42-5.12.45,5.21c.04.45.79,1.13,1.09,1.29l.45-2.61c.36,2.59.59,4.17,2.84,4.92-.01-1.85-.12-3.32.5-5.02l.39,5.86Z"/>
      <path d="M23.64,31.42c-.23-.3-.86-.82-.8-1.12.06-.29.71-1.01.74-1.36.21-2.38.26-5.73.29-8.38l-3.9-3.25.13,18.85.18,15.58c1.38-1.45,2.62-2.87,3.78-4.43l-.41-15.89Z"/>
      <path d="M57.97,9.48l-3.36,4.14-.34,16.78-.37,8.84,3.7,2.38c.26-7.58-1.14-16.57.01-23.91.44-2.78.43-5.5.35-8.23Z"/>
      <path d="M28.05,13.31c.81.46,1.51,1.52,1.53,2.51l.11,7.22,3.85-.73-.16-9.13L15.04,3.15l-3.85.77,9.96,5.48,6.91,3.9Z"/>
      <path d="M18.91,17.71c-1.01.5-2.37,1.25-2.67,2.07-.47,1.28.05,2.83.06,4.15l.13,22.97,2.74,4.53-.06-26.2-.2-7.52Z"/>
      <path d="M46.51,12.36v7.13s3.34-.71,3.34-.71l.38-7.16c.05-.89-.46-2.09-1.32-2.5L31.78.98c-.89-.43-2.82.11-3.76.5l17.02,8.44c.77.38,1.47,1.68,1.47,2.45Z"/>
      <path d="M3.32,37.28l-.48-24.79L.04,7.65c-.17,4.56.25,9.04.57,13.74l.4,5.94c.08,1.11-.12,2.1-.3,3.21-.46,2.91-.29,5.76,0,8.68,1.38-.72,1.94-1.15,2.59-1.94Z"/>
      <path d="M28.32,37.26c1.08-5.98-.93-8.27-.92-9.03l.04-3.66c1.15-1.18,1.31-2.39.91-4.19l-3.42.68-.32,8.57.37,11.44c1.23-.91,3.08-2.34,3.34-3.81Z"/>
      <path d="M45,26.76c-.65-1.68-.7-3.38-.63-5.65l-9.54,11.39c2.53,4.87-1.74,2.38-.5,6.93l10.66-12.67Z"/>
      <path d="M9.03,11.21L.63,6.8c.68,1.61,1.51,3.6,2.56,4.83l12.37,7.45,3.04-2.56-9.58-5.31Z"/>
      <path d="M3.9,38.37c-1.09.29-2.02.98-2.77,1.82l4.28,2.96-.38-2.92c.58,2.14.95,3.53,2.69,4.69l10.26,6.87c-.83-2.27-1.63-3.98-2.55-5.65l-11.53-7.77Z"/>
      <path d="M29.72,34.71l.12,10.6c.02,1.72-.14,3.05-.31,5.08l3.86-.96-.11-12.14c-1.95-.14-2.7-1.07-3.55-2.58Z"/>
      <path d="M40.73,17.56c-2.04.42-4.17.68-5.76,1.43-2.19,3,2.09,2.97.36,9.42-.17.64-.99,1.1-.69,1.86l6.05-6.77.03-5.94Z"/>
      <path d="M20.17,13.23c-4.1-2.14-7.7-4.34-11.84-6.23-2.06-.94-4.98-.5-6.97-1.04l10.98,6.13c2.16,1.21,4.2,2.37,6.54,3.43.62-.57,1.12-1.49,1.28-2.3Z"/>
      <path d="M46.58,30.08l-.39,15.77c.99-.03,2.69-.54,3.55-1.43l.05-9.73c-1.89-.89-2.74-2.23-3.22-4.62Z"/>
      <polygon points="34.39 13.9 34.42 17.77 45.36 15.22 45.25 11.53 34.39 13.9"/>
      <path d="M41.59,35.73l-.23,6.02,3.96-1.1-.12-12.5c-4.91,5.05-3.43,3.15-3.6,7.58Z"/>
      <path d="M34.36,44.79l.02,3.74c2.43-.36,4.07-1.06,5.28-2.74l.08,1.37,5.56-1.72-.08-3.49-10.85,2.84Z"/>
      <path d="M40.3,42.04c.67-2.81,1.12-5.82.52-8.97l-6.27,7.56c-.47.57-.31,2.26-.18,2.8l5.93-1.39Z"/>
      <path d="M29.93,3.89l-8.75,1.67,4.9,2.79,9.34-2.17-3.7-1.53c-.42-.17-1.21-.87-1.78-.76Z"/>
      <path d="M50.76,34.36v4.69s2.12-.47,2.12-.47l.25-19c-1.24.71-.99,1.68-1.02,2.86-.09,4.27-2.44,1.26.03,8.6.49,1.45.36,2.6-1.38,3.31Z"/>
      <path d="M39.14.39c-.28.1-.49,1.15-.09,1.32l11.32,5.09c1.87.84,4.23.48,6.33.59l-7.28-3.07L40.65.47c-.39-.17-1.17-.2-1.51-.08Z"/>
      <polygon points="36.53 6.76 26.77 8.75 30.75 10.85 39.88 8.62 36.53 6.76"/>
      <path d="M51.54,31.99l-1.64-6.49-2.89.69.96,5.68c.14.82,1.24,1.54,1.98,1.56.73.01,1.8-.6,1.59-1.43Z"/>
      <path d="M24.59,19.81c.93.36,3.07-.38,3.87-.83.13-1.34.01-2.6-.27-3.77l-7.27,1.58c1.33,1.38,2.14,2.43,3.67,3.02Z"/>
      <path d="M44.52,10.82l-3.16-1.63-9.55,1.98c2.21,3.22,8.68.15,12.7-.35Z"/>
      <path d="M33.51,28.63c.38-.77.12-2.48-.37-3.07l-.34,1.31c-.06.25-.72.79-.85.57l-.65-1.13-.38-.67c-.09-.15-.77.04-.74.21l.16,1.21c.06.43-.28,1.2-.74,1.27-.19-.87-.26-2.39-.1-3.26,1.23-1.04,2.97-1.14,4.43-.68l.55,3.89c.32-1.95.31-3.27.19-5.28l-6.11,1.02.16,5.34c1.7-.03,3.37-.16,4.79-.75Z"/>
      <polygon points="21.06 52.31 28.58 50.35 28.71 46.61 24.43 47.72 21.06 52.31"/>
      <path d="M34.68,34.65l-1.36-4.99-3.09.88c-.04,1.67.36,3.59,1.43,5.03.74.98,3.32.18,3.02-.91Z"/>
      <path d="M25.06,46.27l3.68-.94-.23-5.9c-2.76,3.36-4.02,3.15-3.45,6.84Z"/>
      <path d="M57.41,8.85l-6.38,1.4-.1,3.43c4.49-.37,3.72-1.33,6.48-4.84Z"/>
      <path d="M50.71,40.7l-.09,3.42,6.52-1.69c-3.16-2.29-3.17-3.38-6.43-1.73Z"/>
      <path d="M24.29,2.19l-6.91,1.18c.68.66,2,1.37,2.94,1.22l8.9-1.42c-1.54-.97-3.14-1.27-4.92-.97Z"/>
      <path d="M27.31,14.41c-1.73-2.03-4.57-2.12-6.42-.64-.38.31-.52,1.63-.41,2.11l6.83-1.46Z"/>
      <path d="M50.24,22.25l-.27-.6c-.19.5-.7,1.75-1.1,1.56l-2-.92.02,3.02c1.12-.18,2.54-.36,3.32-.92,1.42-1,1.34-3.22.67-4.68-.93-.11-2.05,0-3.16.29.3,1.29,2.92-.11,3.03.79l.16,1.33c.02.2-.61.3-.68.12Z"/>
      <path d="M42.15,17.08c-.39.02-1.11.66-1.07,1.06l.45,4.3,3.6-4.22c.24-.28.23-1.59-.1-1.56-.34.02-1.28-.04-1.31.29l-.11,1.24c-.1.5-.21,1-.1.47-.47-.99-.77-1.61-1.36-1.57Z"/>
      <path d="M18.64,9.31l-4.52-2.47c-.68-.37-2.38.1-3.29.43l5.11,2.9c.66.05,1.86-.43,2.71-.85Z"/>
      <path d="M53.45,14.4c-.89.12-1.82.23-2.24.47-.51.29-.84,4.27.49,4.2,1.54-.93,2.45-3.08,1.75-4.67Z"/>
      <path d="M3.38,5.44c3.01,1.1,5.93.85,8.8.23-.46-.39-1.76-1.31-2.48-1.2l-6.32.97Z"/>
      <path d="M23.19,11.95c-2.53-1.6-3.33-2.64-6.31-1.31l2.99,1.6c.76.41,2.23.2,3.31-.3Z"/>
      <path d="M37.3,2.82l4.65,2.08c1.95.87,3.59,2.6,6.1,2.09-2.35-1.12-4.57-2.07-6.94-2.99-1.22-.48-2.11-1.89-3.82-1.18Z"/>
      <path d="M48.78,7.75c.68,1.77,2.26,1.64,3.85,1.23l2.55-.66c-2.1-.58-4.05-.85-6.4-.57Z"/>
      <path d="M36.62,1.91c.81.02,1.62-.7,2.19-1.91-1.92.13-3.49.42-5.3.91,1.07.72,1.92.98,3.1,1Z"/>
      <path d="M46.57,21.33l.92.24c0-.47-.12-1.2-.42-1.17-2.34.26-1.39,2.73-1.33,4.98l.31-3.35c.02-.21.33-.75.52-.7Z"/>
    </g>
  </g>
</svg>