<?xml version="1.0" encoding="UTF-8"?>
<svg id="Warstwa_2" data-name="Warstwa 2" xmlns="http://www.w3.org/2000/svg" viewBox="0 0 58.56 55.91">
  <g id="icon-v10-loot-pixarts-store">
    <g id="icon-v10-loot-pixarts-store_30">
      <path d="M18.04,52.19l3.35.53c-.07-.88-.18-1.8.22-2.12,1.82-1.44,3.44.22,5.91-.23l-1.16-2.28c2.63-2.25,3.1,0,7.28-.75-.74-.92-1.37-1.75-1.75-2.52,3.03-2.78,3.52.43,7.94-1.43l-2.21-2.51c2.06-3.59,3.35-.38,7.37-2.37-1.29-1.13-2.08-1.82-2.71-3.09l2.32-1.61c1.57.25,3.29.2,4.47-.35-1.06-1.15-2.29-2.6-2.43-3.88,1.14-2.26,2.41-3.75,2.87-6.14l-2.65,1.87c.49-3.01,2.84-3.92,5.54-3.69l5.45-6.71c.49-.6.82-2.17.65-2.48-1.47.36-6.41-.33-6.35-.86l1.45-1.33c.19-.17.32-6.63-1.33-7.45-2.76,1.52-4.78,2.51-7.6,3.29,1.58,1.78,2.61,1.22,4.47,2.79l-3.22.06c-.67,1.94-1.24,3.83-1.49,5.61-1.8-1.62.06-3.81-.37-5.33-.54-1.93-1.87-3.81-2.26-5.83-.24-1.25-.7-2.14-1.55-3.39-2.96,2.83-3.91,5.8-6.55,8.15l.99-3.04c-.79.31-2.47.95-3.35,1.15-.45.1-1.2-.95-1.71-1.5l-2.12,4.87c-.8,1.85-3.88.48-5.47-1.08-.93,2.87-2.68,7.77-1.09,10.67l2.38,4.34,3.02-4.49c-.2,5.84-4.44,15.31-8.57,18.86l3.82-7.82c.77-1.58.4-5.41-.23-6.33-.21-.3-1.48-.51-1.59-.12-2.9,10.32-8.33,20.02-15.95,27.53-1.55,1.53-2.7,2.86-3.85,4.69,6.6.23,12.11-1.62,18.04-3.7ZM33.16,42.71c-.97-1.33.06-3.16,1.5-3.81.47-.21,1.53.28,1.83.64-1.98-.04-2.88,1.23-3.33,3.17ZM39.25,35.52c-.55.27-.64,1.55-.99,2.72-.54-.65-.58-2.31-.09-3,.8-1.11,2.15-1.59,3.33-.65-.86.34-1.69.65-2.25.93ZM45.95,29.45c-1.83.56-2.56,1.55-2.9,3.42-.4-.58-.48-1.89-.11-2.59.51-.97,1.62-2.07,3.01-.83ZM39,17.26l-.02,3.16c1.74.93,2.69-.01,4.3-1.47-.51,3.08-1.56,6.02-2.62,9.07-.48,1.39-.76,2.67-1.6,3.76l-.45-1.59c-3.29,4.05-5.46,4.92-8.67,8.76.42-2,1.31-4.02,2.72-5.55,1.77-1.91,7.25-8.32,6.22-10.52-.18-.38-1.57-.5-1.92-.26-1.66,1.19-3.08,3.15-4.44,4.84.9-4.11,3.43-7.27,6.48-10.18ZM30.43,17.03c2.32-1.39,2.59,5.24,1.4,7.02l-.5-4.33c-.06-.5-.57-1.64-.97-1.58l-2.2.32c.64-.43,1.29-.84,2.27-1.42ZM28.26,43.88c.33-.45,1.81-.6,2.12-.27l-2.72,2.03c0-.35.28-1.33.59-1.75ZM22.18,43.55c1.82-1.51,3.38-3.22,5.03-5.03.03,2.31-1.2,4.38-3.16,5.69-2.66,1.78-5.26,3.36-8.25,4.64l6.37-5.29Z"/>
    </g>
  </g>
</svg>