<?xml version="1.0" encoding="UTF-8"?>
<svg id="Warstwa_2" data-name="Warstwa 2" xmlns="http://www.w3.org/2000/svg" viewBox="0 0 46.1 58.24">
  <g id="icon-v10-loot-pixarts-store">
    <g id="icon-v10-loot-pixarts-store_11">
      <path d="M36.26,16.69c-1.82-1.64-2.55-4.46-3.19-6.86C31.75,4.9,27.83,1.55,22.9.41c-3.68-.85-7.36-.33-10.96.97-3.7,1.33-6.48,4.05-8.61,7.31C-2.82,18.09-.2,30.32,9.15,36.52c3.63,2.41,10.01,7.44,10.34,12.14-.91-1.52-1.68-2.87-3-4.06.21,3.77-.68,6.72-3.41,9.2l6.16,3.23c2.18,1.14,4.97-.11,5.31-2.59l.68-4.86c.29-2.05.53-3.82.65-6.05,1.03,2.24.4,4.6.28,7.08-.12,2.52.73,4.82-1.31,6.97,1.92.79,3.56.79,5.55.39l8.13-1.63c.49-.1,1.11-1.18,1.21-1.72.09-.49-1.21-.88-1.64-1.31-2.26-2.24-2.27-6.74.06-8.87.6-.55,1.39-1.24,1.1-1.67-.31-.45-1.2-.69-1.82-.88-2.68-.79-4.01-4.22-3.08-6.82,1.42-3.96-5.78,1.68-7.35-6.9-3.3,1.67-5.11-.68-7-2.61-1.11-1.14-4.01-.88-4.09-3.38-.12-3.56-3.65-1.61-.92-8.48-.67-.13-2.02-.11-2.23-.62-.2-.5-.42-1.33-.58-1.96-1.15,1.14-2.19,2.7-2.38,4.09,1.25-.56,2.19-.82,3.04-.46.56.24.73,1.52.79,2.56.09,1.65-.55,2.76-1.8,3.02-1.24.26-2.28-.64-2.67-2.03-.25,3.57,1.24,6.94,3.63,9.8,4.88,5.83,6.64,3.81,9.77,10.06-2.07-2.16-4.06-3.88-6.54-5.49-7.73-5.02-11.45-15.69-4.61-22.83,3.9-4.07,10.24-5.02,14.76-1.34,5.31,4.32,3.34,11.97,11.2,13.14-3.72.66-6.44-2.17-7.66-5.42-1.21-3.26-2.91-6.25-6.09-7.88-2.6-1.34-5.53-.83-8.06.01.8.27,1.72.44,1.86.84l.57,1.65c1.08-1.55,2.03-2.38,3.17-2.6,2.17-.42,2.33,1.88,3.21,2.35,2.43,1.29,2.42,2.7,3.49,4.72l2.45,4.66c.96.85,3.17,2.16,4.06,3.25,1.97-.39,4.29-.55,6.41-.44l3.57-3.81,1.32-3.31c1.13-2.83-.31-6.31-2.85-7.85-.3-.18-1.55.15-1.4.45.73,1.44,3.57,4.39.79,7.64-1.27,1.49-4.06,2.53-5.99.79ZM34.88,47.2c1.14,2.03,1.01,4.52-.32,6.57-.78,1.2-2.27,1.89-3.46,1.77-1.19-.11-2.49-.99-3.07-2.19-1.07-2.23-.84-4.79.76-6.75.7-.86,2.18-1.4,3.28-1.31.92.07,2.29.95,2.82,1.91ZM30.97,36.13c1.03.54,2.04,1.79,2.42,3.03.56,1.84.16,3.51-1.13,4.48-1.05.78-2.88.87-4.15-.12-1.65-1.29-2.39-3.6-1.76-5.63.59-1.89,2.83-2.7,4.62-1.75ZM11.6,25.16c-.83-1.16-1.22-3.07.34-3.87,1.23-.63,2.58.06,3.23,1.11.55.89,1.04,2.41,0,3.44-1.25,1.26-2.88.29-3.58-.69ZM19.13,31.36c-.59.08-1.73-.18-2.3-.57-1.35-.92-2.53-2.65-1.37-4.06.76-.92,2.41-.85,3.43-.28.86.48,1.91,1.34,1.9,3.02,0,.73-1.09,1.81-1.67,1.89ZM22.02,34.85c-1.11-1.18-1.79-3.08-.3-4.29,1.09-.88,3.02-.49,4.11.23,1.21.79,2.46,2.51,1.48,4.23-1.16,2.03-3.97,1.24-5.3-.17Z"/>
      <path d="M38.47,45.79c-1.15,2.08-1.08,4.63.37,6.51.73.95,2.21.42,3.05-.5,1.36-2.32,1-6.94-1.58-7.15-.53-.04-1.55.62-1.83,1.14ZM40.28,46.78c1.12-.09,1.46,3.51-.06,3.71-1.7.23-1.46-3.53.06-3.71Z"/>
      <path d="M35.51,35.15c-.75.89-.26,2.89.31,3.93.44.81,1.94,2.11,3.1,1.61,1.72-.74.8-3.27-.02-4.61-.76-1.24-2.34-2.19-3.39-.94ZM36.85,36.3c.7-.42,2.18,1.86,1.36,2.61-.96.88-2.65-1.84-1.36-2.61Z"/>
      <path d="M30.92,32.22c.95.37,2.61.63,2.51-1.01-.1-1.82-3.33-3.71-4.64-2.42-1.35,1.34.92,2.96,2.12,3.43ZM29.99,29.65c.91-.11,1.65.39,2.08,1.51-.41.12-1.16.14-1.46-.06-.3-.2-.72-1.21-.62-1.45Z"/>
      <path d="M25.98,27c.41-1.76-3.74-2.86-4.29-1.64-.39,1.76,3.79,3.77,4.29,1.64Z"/>
      <path d="M12.89,16.09c-.24-.35-1.55-.74-1.82-.43-.49.57-.91,1.48-.94,2.01-.03.52.73,1.72,1.28,1.73,1.15,0,2.55-1.76,1.48-3.3Z"/>
      <path d="M17.03,10.07c.07-.25-.82-.63-1.09-.61-1.16.1-3.3,1.72-2.37,3.08.47.7,2.62.48,3.46-2.47Z"/>
      <path d="M20.04,24.17c.17-2.24-1.2-3.52-3.38-3.14,0,.96.26,2.01.89,2.55.49.42,1.45.57,2.49.59Z"/>
      <path d="M23.2,10.3c.05-.58-1.43-1.21-2-1.18-.5.03-1.61.78-1.42,1.24.48,1.18,3.26,1.73,3.42-.07Z"/>
      <path d="M14.68,18.06c.08.48.75,1.17,1.31,1.53.89-1.47.72-2.91-.54-3.81-.43.37-.88,1.64-.78,2.27Z"/>
      <path d="M26.83,16.69c.07,1.48.79,2.62,1.92,3.26.46-1.61-.14-3.11-1.92-3.26Z"/>
      <path d="M30.15,21.88c.32.84,1.76,1.69,2.73,1.68-.1-1.54-1.73-2.74-2.73-1.68Z"/>
      <path d="M26.08,12.82c-.39-.22-.98-.4-1.62-.56.13,1.34.71,2.32,1.84,2.65.37-.36.2-1.85-.22-2.09Z"/>
      <path d="M42.72,22.67c1.07-.29,2.07-1.14,2.42-2.2-1.3-.48-2.59.98-2.42,2.2Z"/>
      <path d="M39.15,24c-.67-.86-2.63-.83-3.2.15.57.8,2.71.7,3.2-.15Z"/>
      <path d="M18.03,11.51c-1.13.97-1.81,1.35-1.77,2.76l2.44-1.91-.67-.85Z"/>
      <path d="M29.47,47.69c-1.51,2.5-.83,6.03,1.58,6.51.72.14,2.16-.22,2.59-.86,1.17-1.76,1.25-3.64.53-5.39-.35-.85-1.58-1.57-2.41-1.55-.68.01-1.88.62-2.28,1.29ZM32.88,50.07c.02.55-.43,1.85-1.19,1.96-.86.13-1.39-1.07-1.38-1.63.01-.66.59-1.86,1.37-1.92.55-.05,1.18,1.06,1.2,1.59Z"/>
      <path d="M31.57,42.65c1.23-.66,1.17-2.5.8-3.53-.35-.98-1.24-2.09-2.51-2.38-.64-.14-1.74.19-2.08.61-.34.42-.6,1.66-.51,2.29.29,1.98,2.19,4.15,4.3,3.01ZM29.16,38.48c.36-.17,1.15.23,1.43.51.34.36.57,1.61.05,2.12-.34.33-1.48-.24-1.7-.66s-.21-1.77.22-1.97Z"/>
      <path d="M26.66,34.21c.55-1.23-.8-2.51-1.65-2.97-.85-.45-2.49-.58-3.04.42-.68,1.23.5,2.4,1.31,2.86.96.54,2.74,1.11,3.38-.31ZM25.25,33.6c-.14.23-1.1.24-1.38.06-.33-.23-.75-1.09-.68-1.43.85-.64,2.14.38,2.05,1.37Z"/>
      <path d="M18.6,27.15c-.56-.31-2.08-.38-2.42.2-.55.94.2,2.05.89,2.55.66.48,2.33.84,2.74-.13.52-1.24-.51-2.23-1.22-2.63Z"/>
      <path d="M11.95,22.46c-.41.48-.03,1.83.38,2.3.38.43,1.53.9,2.03.6.95-.58.64-2.11.03-2.82-.45-.52-1.7-.96-2.43-.08Z"/>
    </g>
  </g>
</svg>