<?xml version="1.0" encoding="UTF-8"?>
<svg id="Warstwa_2" data-name="Warstwa 2" xmlns="http://www.w3.org/2000/svg" viewBox="0 0 55.19 40.14">
  <g id="icon-v10-loot-pixarts-store">
    <g id="icon-v10-loot-pixarts-store_104">
      <path d="M7.61,10.04l.76-1.33c.22-.39,1.49-.42,1.86-.12,1.84,1.45-4.52,7.3-.47,17.79.43,1.11.86,2.55.74,3.75-.08.76-2.01.86-2.26.3-.24-.54-.52-1.06-.85-1.17-.26-.09-1.07-.11-1.09.17l-.11,1.5c-.03.44.12,1.51.46,1.78.28.22,1.05.46,1.43.49l5.58.46-.96-1.92,5.42,4.21-.66-4.24c-6.92-5.84-7.49-15.31-2.49-22.43.99-1.41,1.12-2,2.61-2.97,6.26-4.09,13.09-4.37,19.61-.23,1.52.97,1.96,1.69,2.99,3.13,5.11,7.14,4.55,16.64-2.38,22.5l-.74,4.24,5.44-4.2-.78,1.93,6.66-.67c.72-.62.85-3.22.26-3.77-.21-.2-1.24-.17-1.29.12l-.18,1.13c-7.2,1.24,3.95-6.18-2.35-20.02-.3-.66-.06-1.93.52-2.05,2.94-.61,1.01,2.07,2.9,1.79,1.29-.19.89-3.04.34-3.8l-6.63-.96.29,1.36c-9.08-9.28-20.71-9-29.48.22l.49-1.62-6.56,1.05c-.7.59-.67,2.61-.38,3.37.12.31,1.12.47,1.29.18Z"/>
      <path d="M15.42,26.65l.65-2.08,3.3-3.93c-.8-.33-1.3.04-2.23.59l.98-2.34c-.42-1.52-.07-3.26,1.45-3.57-.21.84-.76,1.86-.51,2.29.28.5,1.95,2.47,2.32,2.24l1.19-.74c-.09,1.57-1.68,3.86.66,5.18,1.03.58,3.19.82,3.69-.83.45-1.49-3.6-2.55-2.32-3.05.21-.08.81-.17,1.03-.11,2.89.75,5.48-.68,5.07.26-.58,1.35-2.97,1.53-2.44,2.89.66,1.69,2.84,1.31,3.94.71,2.73-1.49-1.09-6.89.98-4.66l.62.66,2.51-2.53-.62-2.58c2.07,1.11,1.53,2.83,1.89,4.36l.4,1.69c-1.1-.54-1.34-.91-2.07-.44l2.92,3.59c.4.49.67,1.66.95,2.47,2.34-2.51.26-6.39-.48-8.91,1.05.87,1.73,1.82,2.53,3.03.25-2.77-.86-4.78-2.73-6.68l2.18.48-1.84-3.07c-.77,1.05-1.2,1.6-1.76,1.75.15-1.92,1.22-3.92.16-5.07-2.09-1.25-4.14.06-6.26,1.16.27-1.51,1.45-2.39,3.02-2.91-.6-.49-1.76-1-2.53-.9-.95.12-1.77.95-2.21,1.76l-1.14,2.07c-.18-1.94.6-3.01,1.53-4.45-1.77-.49-3.58-.5-5.36-.03,1.01,1.56,1.64,2.9,1.82,4.63-1.39-.65-1.08-3.51-3.16-3.87-1.06-.18-2.23.22-2.79.74,1.21.42,2.1,1.34,2.65,2.49-2.13-.5-4.15-2.04-6.05-.69-1.17,1.17.18,2.97-.02,4.97l-1.76-1.6-1.65,2.97,2.06-.45c-1.89,1.98-3.15,4.33-2.6,7.01.7-1.46,1.35-2.63,2.54-3.24-.98,2.64-2.6,6.39-.5,8.71ZM37.1,9.27l-.62,3.45-.11.63c-.03.17-.63-.2-.75-.37l-1.84-2.43c.58-.88,2.38-1.68,3.32-1.29ZM28.72,14.08c.03-.1.14-.17.22-.08l.44.43.6.59c.57.56,2.1-2.06,4.7-.78-.54,1.16-1.7,2.11-3.49,2.16l-.61,2.5c-.83-4.12-2.24-3.72-1.86-4.83ZM24.64,15.12l1.98-1.01c-1.02,1.82-1.41,2.65-1.99,4.71l-.54-2.31c-1.46-.21-3.14-.99-3.7-2.18,1.41-.97,3.02-.32,4.25.8ZM21.43,10.53l-2.43,3.08c-.24-.63-.34-1.5-.39-2.35l-.62-2.15c1.32-.07,2.67.57,3.44,1.42Z"/>
      <path d="M.73,27.52l1.23.53c.72.15.64.26-.15.36-.62.13-1.39.41-1.36.81.03.32.57,1,.9,1.07l2.74.59-.1-2.69,4.37.34c-1.74-7.87-2.64-9.69.21-17.8l-4.66.46.41-2.39c-1.27.1-2.78.37-3.54.66-.29.11-.44,1.22-.17,1.3l1.95.6-2.21.47c-.63,2.16-.4,15.35.37,15.68Z"/>
      <path d="M46.72,10.8c2.73,8.31,1.9,9.83.18,17.73l4.41-.37-.12,2.69,2.58-.56c.31-.07.92-.43.9-.71l-.06-.94-1.99-.32,2.13-1c.56-5-.74-4.54-.76-8.41l1.13,2.32c.14-3.35.03-6.22-.19-9.31l-2-.57c.83-.22,2.18-.68,1.88-1.23-.83-1.53-2.76-1.25-3.91-1.11l.35,2.12-4.53-.32Z"/>
      <path d="M32.41,38.85c2.46-1.44,3.77-3.89,4-6.47.22-2.47-1.34-5.71-3.37-6.73-.34-.17-1.19.6-1.07.86.84,1.97,3.25,3.91,1.46,7.91-.92,2.06-3.13,3.14-5.6,3.28-2.57.15-4.97-1.09-5.99-3.12-1.16-2.31-.89-4.94.93-6.84.44-.46.35-2.5-.39-2.12-4.07,2.08-4.51,7.8-1.8,11.11,2.95,3.6,7.93,4.4,11.84,2.11Z"/>
      <path d="M26.15,31.04l.47.76c.17.28.79,1,1.07.83.22-.14.65-.53.82-.75l.67-.85c.14-.19.94.19,1.13.05.49-.39,1.05-1.82.94-2.26l-2.53-.96c-1.05-.4-2.46.02-3.48.62l-1.44.24c-.06.78.48,2.15,1.26,2.39.23.07.96-.25,1.08-.05Z"/>
      <path d="M20.58,24.76c-.68.07-1.46.2-1.39.03l.39-.88c.36-.83,1.07-1.51.12-2.6-1.86,2.71-3.07,4.53-1.8,8.12.71-1.74,1.61-3.16,2.68-4.68Z"/>
      <path d="M35.73,24.91l-1.04-.19,2.68,4.2c.39-1.23.64-3.12-.03-4.32l-1.84-3.33c-1.56,1.33,1.36,3.85.23,3.64Z"/>
    </g>
  </g>
</svg>