<?xml version="1.0" encoding="UTF-8"?>
<svg id="Warstwa_2" data-name="Warstwa 2" xmlns="http://www.w3.org/2000/svg" viewBox="0 0 30.88 58.86">
  <g id="icon-v10-loot-pixarts-store">
    <g id="icon-v10-loot-pixarts-store_341">
      <path d="M24.44,17.99c-.43,3.07-.74,5.69-.9,8.34-.07,1.04,1.34,3.15,1.04,4.12l-1.34,4.28c.67,4.49-1.53,8.18-5.85,9.75,2.17,1.27,4.09.23,6.23-1.32-.71,2.18-2.82,3.96-4.53,4.33-2.96.64-5.04-.14-6.86-2.01.43,1.43,1.22,2.46,2.27,3.57-2.77-.67-4.39-2.92-4.71-5.31-.38-2.9.76-5.2,3.34-6.95-2.02.16-3.8,1.27-4.74,2.81-1.25,2.04-1.18,3.91-.87,6.34-1.71-2.81-.82-5.68.21-8.59.27-.76.5-1.65,1.19-2.12,2.64-1.8,5.81-2.45,8.51-.49,1.49,1.08,1.58,3.34,1.56,5.1,2.15-1.87,1.88-5.13-.22-7.05-1.39-1.26-3.36-1.61-5.2-1.9,3.41-1.35,5.91.77,8.75,2.69,3.15-7.25.44-3.94.25-10.34-.1-3.52.86-7.55-.29-10.95-1.48-4.35-3.74-8.15-5.77-12.27-.66,4.78-1,8.87-1.84,13.21-.78,4.01,2.39,10.72,4.02,14.8-1.63-1.54-2.29-3.03-3.73-5.41-1.55,2.59-2.7,4.92-3.99,7.35l-1.36,2.56.5-3.74c-2.82-2.06-2.07-5.78-3.66-5.81-.49,0-1.66.54-1.94.96L.09,30.64c2.03,2.1,3.93,3.97,5.58,6.28l-5.67-4.35,3,13.44,2.38-2.59-1.64,5.66,10.52,9.38.55-5-.74-2.09c2.22,1.13.89,4.65,1.85,7.52l8.11-6.81-4.98-1.4c.79-.25,2.16-.5,2.87-.36l2.62.51c.83-4.25,2.13-6.53.21-9.79l1.89-.1,4.22-5.3-6.44-17.61Z"/>
      <path d="M14.82,2.33l-4.87,10.42c-4.86,10.39-.6,7.66-.82,11.89-.04.75.2,1.76.54,2.14.28.31,1.56.47,1.75.06l1.86-3.81c.79-1.62,1.03-3.17.07-4.73-1.72-2.8,2.13-10.94,1.48-15.96Z"/>
      <path d="M26.33,50.31c4.7-5.54,4.4-5.16,4.53-12.65-4.25,4-4.34,6.86-4.53,12.65Z"/>
    </g>
  </g>
</svg>