<?xml version="1.0" encoding="UTF-8"?>
<svg id="Warstwa_2" data-name="Warstwa 2" xmlns="http://www.w3.org/2000/svg" viewBox="0 0 42.09 56.24">
  <g id="icon-v10-loot-pixarts-store">
    <g id="icon-v10-loot-pixarts-store_45">
      <path d="M5.89,29.9l-1.51,12.26,4.21,5.42c.52-4.3-.66-4.74,2.62-8.35,1.07-1.18,2.14-2.41,3.61-3.18,3.15-1.66,6.03-3.73,8.05-6.74,1.21-1.81.78-4.67-.82-6.1-.96-.86-2.49,0-3.15.66-.22-1.14.56-2.39,1.85-2.85.9-.32,2.52-.27,3.64-.12,2.75,3.77,4.91,7.84,2.31,12.21-.04-1.56.02-2.65-.24-4.16-1.44,3.06-2.37,5.88-4.96,8.02l-3.5,2.9.9-2.13c-2.17,1.14-4.23,3.2-4.46,5.73,2.2,2,3,6.01,4.53,4.3,3-3.37,5.4-3.08,8.98-6.48,1.35-2.18,3.17-4.53,3.17-7.11v-4.83s1.47,3.8,1.47,3.8c1.08,1.26,2.36,2.39,3.78,3.55l-2.9-12.78c-.88-3.91-1.56-7.59-1.94-11.67-3.84.88-1.9,6.13-2.23,8.69l-1.42-5.01c-.31-1.09-.98-2.26-2.03-2.82l-6.95,5.1c-2.63,1.93-3.69,5.7-1.57,8.22.33.39,1.43,1.09,1.8.81l1.35-1c.58,2.13-1.83,4.11-3.75,3.46l-2.5-2.28c-1.55-1.42-2.33-3.28-1.95-5.56l1.22,2.26c-.05-5.47,2.27-7.72,1.38-11.89,1.23,1.23,1.49,2.59,1.46,4.59l6.32-6.86c.16-3.86-3.12-4.27-1.65-8.9,1.54,5.17,4.46,6.23,2.34,11.53,2.44-1.95.46-2.4,3.01-6.32.42-.66-.14-2.55-.79-3.07-1.33-1.08-2.76-2.11-4.4-3.19-3.88,3.75-6.83,7.55-9.57,12l-1.36,6.16-3.42,6.94c-1.3,2.63,1.02,5.43,2.6,7.49,1.26,1.63,1.01,3.87.59,5.76-1.67-5.51-.65-3.93-4.13-8.44Z"/>
      <path d="M18.89,49.56c-1.08,2.08-.7,4.71-.05,6.68,2.99-1.61,5.42-3.37,8.33-4.6,2.35-.99,4.76-1.76,6.25-4.23l1.34-2.22c1.12-1.85,1.29-4.69,1.72-6.77l-4.23-3.34-2.89,7.96,3.59,2.28c-1.82-.06-2.49-.2-4.27-.46-.93,1.36-1.66,2.84-2.46,4.43l1.16-5.42c-2.22,1.33-7.54,3.84-8.52,5.71Z"/>
      <path d="M12.78,49.59c-.02.76-.67,1.8.1,2.49,1.45,1.3,2.75,2.39,4.27,3.58-.81-8.52.12-4.87-4.23-11.45l-.14,5.38Z"/>
      <path d="M4.61,6.78c-2.03,2.6-3.12,5.71-2.32,8.86,1.84,1.6,3.05,3.45,4.01,5.49.13-1.94.23-4.04-.07-5.5-1.22-1.34-2.42-2.56-2.17-4.52l.54-4.32Z"/>
      <path d="M36.48,19.35c0-4.11,2.7-5.65,4.16-8.35.33-2.36-1.34-4.78-2.49-6.72l.42,3.65c.45,3.85-5.07,5-2.09,11.42Z"/>
      <path d="M28.19,13.1c1.14-1.3,1.95-1.85,3.43-2.59-1.18-1.86-2.5-3.42-4.41-4.97-.71,2.08-1.11,3.87-1.1,5.89l2.08,1.67Z"/>
      <path d="M38.91,20.49c-.2.98,2.2,3.86-.81,6.54-.59.53-.28,2.59.1,3.13.94-1.79,2.53-2.8,3.56-4.25,1.48-2.09-2.55-6.9-2.85-5.42Z"/>
      <path d="M.68,32.63l2.53,2.54c.75-4.18-2.1-1.83-1.27-7.74-1.47,1.07-2.79,3.66-1.26,5.2Z"/>
    </g>
  </g>
</svg>