<?xml version="1.0" encoding="UTF-8"?>
<svg id="Warstwa_2" data-name="Warstwa 2" xmlns="http://www.w3.org/2000/svg" viewBox="0 0 34.25 63.49">
  <g id="icon-v10-loot-pixarts-store">
    <g id="icon-v10-loot-pixarts-store_136">
      <path d="M34.24,43.65l-1.62-14.35c-.1-.89-2.04-2.27-2.84-2.19-3.68,3.92-10.23,2.98-15.28,3.19-5.55,3.79-2.84,2.42-4.66,6.35l-.32-3.54,2.36-2.78-3.84-.94c-1.29-.32-2.53-1.44-3.74-2.38-.66.14-2.7,1.41-2.8,2.27l-1.16,10.92c1.58-.59,1.88-1.97,2.47-3.17l.48,2.61-2.8,2.57c-.53.49-.6,2.36-.19,2.91,1.37,1.81,7.87,4.22,9.8,3.16l-2.64-.96,3.11-.35-3.31-1.3,3.28-.47-3.27-1.12,3.13-.27c-.24-1.98-5.2-.86-5.45-2.93-.31-2.55.05-4.81,1.05-7.01l.2,6.88,4.92,1.05c.48,2.3.79,5.65-.27,7.57-2.65,1.44-5.14.06-8.07-.99l-.64,4.3,5.8,1.39c2.74.66,4.1-3.38,8.12-4.97-1.67,4.93-4.02,1.78-4.56,5.08,7.19.74,13.59.45,20.48-1.48l-.5-4.28c-1.58.76-7.91,2.84-8.47.47-.44-1.87-.38-4.91.03-7.01l4.82-1.1.38-7.05c.57.62,1.94,6.97.27,8.03-1.91,1.22-4.09.15-4.62,1.84l2.7.4-2.93,1.3,3.14.32-2.92,1.27,2.71.56-2.4.98c2.16.77,10.43-1.64,10.08-4.78ZM12.54,40.56l2.99-3.25c.17-.19.67-.52.9-.58.3-.08.85.45,1.13.78l-2.4,2.89c1.61,1.76,3.13,2.89,4,5.23-2.58-1.05-4.48-2.98-6.62-5.06ZM19.12,40.63c-.19.2-.87.52-1.07.6-.26.1-.66-.82-.5-1.03l2.07-2.73-3.28-3.4c-.33-.34-.46-.86-.21-1.68l6.14,4.83-3.15,3.41Z"/>
      <path d="M18.32,0c-3.55-.02-7.4.25-10.78.88-1.75.33-2.76,1.75-2.75,3.46l.08,10.79c5.66,4.29,2.54,6.03,3.8,12.35.15.74,2.15,1.12,2.86,1,.62-.11,1.45-1.05,1.62-1.57-1.41-.67-2.29-1.23-2.25-2.25.05-1.16,1-1.81,2.07-2.11l1.24-.34c.26-.07.23-1.01-.02-1.12-.67-.28-2.13-.71-2.38-1.38-1.34-3.5,3.74-2.57,1.2-5.85l-3.91.95c-.42-2.08-3.85-2.07-3.1-6.19l4.38-.6-.04-2.65c.68,1.1.86,2.72,1.53,3.1,1.47.85,2.96,1.85,2.9,3.73l-.16,5.21c-.9.35-1.63.71-1.67,1.14-.14,1.56,5.59,1.73,7.83.73.36-.16.09-1.46-.24-1.57l-1.21-.41-.12-4.73c-.04-1.59.66-3.23,2.44-3.84,2.05-.7,4.69-.88,6.43.15.4,1.59-.73,3.64-1.76,4.34-1.46.98-3.65,1.02-5.47.58-.27,0-.62,1.27-.54,1.76s.8,1.13,1.49,1.58c.76.5.71,3.12-.27,3.34-2.45.54-4.28.94-6.87,1.52,2.49,1.72,8.59-.96,8.72,2.71.03.78-1.12,1.72-2.01,1.73l-5.34.07-1.07,2.28c3.71.17,6.98.11,10.59-.82l.04-6.18c.02-2.84.94-4.84,3.63-6.36l.06-11.57c0-1.49-1.48-2.92-2.65-2.65l-.56,1.9c-.12.41-1.52.29-1.92.55-.6.4-.67,2.01-.8,2.85l-1.4-3.4c1.12.18,2.38.22,2.95-.14.48-.3.72-1.66.52-2.26-1.54-.27-3.61-.49-5.1-.55l-2.73,6.48C16.8,3.89,19.74,1.05,18.32,0Z"/>
      <path d="M5.43,61.2c.18.97,1.2,1.74,2.21,1.84,4.68.45,9.07.65,13.79.19l.76-5.5c.72,2,.62,5.03,3.15,5.18,2.75.17,5.84-.77,8.45-1.6.42-1.02.38-2.41-.33-3.55l-1.73,2.49c-.07-.38-.44-1.34-.8-1.25l-2.09.52c1.34-1.19,3.23-2.15,4.99-2.99.35-.75-.19-2.59-.89-2.71l-4.85,1.2c-.54.13-1.27,1.13-1.55,1.64l-1.68-1.14c-4.81.19-9.32.26-14.06.04-.47-.02-1.74-.4-1.93,0l-.76,1.62-.87-2.01-6.58-1.49c-.68,2.45-.86,4.96-.37,7.23.19.88,2.51,1.5,3.27.9,1.03-.82.5-2.83-.77-3.74-.55-.58-.29-.5.34-.12,1.14.76,2.28,1.11,3.72,1.03-.75.63-1.55,1.49-1.41,2.22Z"/>
      <path d="M4.84,24.04c0,1.23,1.34,2.76,2.44,3.43-.03-3,.95-9.57-2.48-10.57l.04,7.14Z"/>
      <path d="M29.24,16.93c-3.42,1.1-2.28,7.85-2.41,10.69,3.69-2.32,2.25-6.14,2.41-10.69Z"/>
      <path d="M32.38,16.89l-.04-8.22c0-.85-1.02-1.84-1.81-1.35l.06,11.41c1.03,0,1.79-.86,1.79-1.85Z"/>
      <path d="M3.57,18.8V7.34s-1.18.08-1.18.08c-.27.02-.6,1.04-.6,1.42l-.09,7.97c-.01,1.08.7,1.88,1.86,1.99Z"/>
      <path d="M22.17,12.71c2.24.27,4.37-.2,4.58-3.1-2.72-.84-7.05.96-6.13,2.37.22.34,1.05.67,1.55.73Z"/>
      <path d="M7.4,9.9c.05,2.5,2.73,3.33,4.87,2.77.43-.11,1.04-.42,1.21-.68.73-1.09-3.41-3.76-6.08-2.09Z"/>
      <path d="M21.24,25.16c.27,0,1.13-.36.98-.54-.15-.17-.76-.75-.99-.75l-5.5-.03c-.23,0-.94.59-.83.77.11.18.59.54.81.54h5.53Z"/>
    </g>
  </g>
</svg>