<?xml version="1.0" encoding="UTF-8"?>
<svg id="Warstwa_2" data-name="Warstwa 2" xmlns="http://www.w3.org/2000/svg" viewBox="0 0 56.65 44.38">
  <g id="icon-v10-loot-pixarts-store">
    <g id="icon-v10-loot-pixarts-store_153">
      <path d="M35.73,23.62l-8.06-12.29c7.96,1.92,15.18,3.95,22.66,6.16,1.42.42,2.04.35,3.07-.69,2.78-2.8,2.98-6.81-.04-9.69-2.43-2.32-5.68-3.93-9-4.73-.92.51-2.23,1.1-3.28.94-1.1-.16-1.7-1.1-1.79-2.2C31.35-.48,23-.39,15.18,1.58c.84,1.31.26,2.31-.67,2.97-2.01,1.42-4.02.03-5.99-.31-2.3.15-4.81,2.42-6.25,4.18-1.85,2.27-1.83,5.25-.02,7.48,1.35,1.67,3.49,3.61,5.48,4.03,1.82-.46,3.69-1.2,5.55-.33,1.15.54,1.6,1.62,1.12,3.04,6.93,1.76,14.15,2.19,21.34.98ZM49.48,10.37c-.85,1.83-5.06,1.79-5.69-.13.86-1.9,5.02-1.9,5.69.13ZM21.03,19.82c-.23-.15-.58-.9-.44-1.12,1.02-1.56,5.26-1.53,5.75.15-.47,2.01-3.88,1.92-5.3.97ZM38.47,8.71c-.36,1.28-3.49,1.42-3.95.03.45-1.08,3.23-1.36,3.95-.03ZM31.18,4.69c.91,2.35-7.78,3.04-8.02.25-.19-2.16,7.06-2.76,8.02-.25ZM23.23,10.48c-.41,1.16-3.13,1.17-3.52.03.32-1.16,3.06-1.36,3.52-.03ZM6.71,12.84c-.12-.33.4-1.15.74-1.32,2.46-1.24,6.38-.71,6.68,1.05.32,1.86-6.55,2.65-7.42.27Z"/>
      <path d="M8.76,38.31c.53-.07,1.73.56,1.96,1.11l1.01,2.33c7.95,2.68,16.47,3.36,24.76,1.86l.02-5.34c-1.98-.68-2.86-2.04-2.75-3.79.09-1.47,1.14-2.79,2.72-3.66l-.08-5.5c-7.86,1.08-15.34.84-22.88-1.02-.6,1.75-1.84,2.67-3.33,2.45-2.68-.39-2.69-3.18-3.3-4.81C4.45,19.9,1.46,18.68.03,15.45l-.03,10.04c1.41.87,2.31,2.11,2.44,3.65.12,1.36-.84,2.45-1.72,3.55.65,3.07,3.38,5.57,5.97,6.68.71-.46,1.55-.98,2.08-1.06ZM26.3,29.42c1.03-.11,2.05,1.05,2.21,1.84.22,1.12-.1,2.66-1.29,2.97-1.76.46-2.57-.78-2.76-1.94-.19-1.14.27-2.71,1.84-2.87ZM13.9,34.43c.23-1.23,1.31-2.41,2.65-2.68,2.11-.42,3.68,1.19,4.13,3.24.39,1.78-.37,3.43-1.73,4.07-1.43.68-3.12.12-4.17-1.24-.72-.93-1.08-2.31-.88-3.39ZM5.62,31.18c-.08-.65.09-2.13.84-2.23.68-.09,1.33.82,1.44,1.32.13.59.04,2.05-.78,2.33-.73.25-1.44-.86-1.51-1.42Z"/>
      <path d="M48.74,28.16c.1-1.69.93-2.87,2.43-4l-.06-4.63-19.51-5.41,5.3,8.13,1.72,2.75c.39.63,1.8,1.27,1.91,2.08.12.86-.13,2.24-.75,2.56l-1.43.75c-.31.16-.18,1.3-.41,1.56-.41.48-1.11,1.42-1.16,1.94l14.36,3.91v-5.54c-1.91-.88-2.51-2.39-2.4-4.1ZM38.41,20.06c-.64,0-1.16-.52-1.16-1.16s.52-1.16,1.16-1.16,1.16.52,1.16,1.16-.52,1.16-1.16,1.16ZM45.42,33.77c-.8,0-1.44-.65-1.44-1.44s.65-1.44,1.44-1.44,1.44.65,1.44,1.44-.65,1.44-1.44,1.44ZM45.42,25.81c-1.59.49-2.79-.84-3.1-1.94-.39-1.38.03-3.09,1.64-3.46,1.52-.35,2.6.79,2.96,2.09.3,1.08-.03,2.86-1.5,3.31Z"/>
      <path d="M56.48,15.33l-3.53,4.3-.2,5.64c-1.46.84-2.14,1.66-2.18,3.1-.03,1.23.96,2.15,2.13,2.89l.27,5.81c2.97-2,4.08-5.44,3.13-8.58-.34-1.13-2.13-1.56-1.61-3.47,1.24-4.53,2.64.7,1.99-9.68Z"/>
    </g>
  </g>
</svg>