<?xml version="1.0" encoding="UTF-8"?>
<svg id="Warstwa_2" data-name="Warstwa 2" xmlns="http://www.w3.org/2000/svg" viewBox="0 0 54.62 59.09">
  <g id="icon-v10-loot-pixarts-store">
    <g id="icon-v10-loot-pixarts-store_217">
      <path d="M27.31,54.62c15.08,0,27.31-12.23,27.31-27.31S42.4,0,27.31,0,0,12.23,0,27.31s12.23,27.31,27.31,27.31ZM27.32,4.01c12.86,0,23.29,10.43,23.29,23.29s-10.43,23.29-23.29,23.29S4.03,40.16,4.03,27.3,14.46,4.01,27.32,4.01Z"/>
      <rect x="24.29" y="56.34" width="2.83" height="2.62" transform="translate(-32.63 81.73) rotate(-88.4)"/>
      <path d="M43.05,51.65c-.56.22-1.61.77-2.07,1.23-.46.47-.27,2.57.09,2.52,2.12-.7,2.59-1.75,1.99-3.76Z"/>
      <path d="M22.89,58.28c.29-.89-.06-2.57-.86-2.6-.48-.02-1.44-.11-1.59.38-.18.58-.14,2.2.35,2.36.49.16,1.95.34,2.1-.14Z"/>
      <path d="M34.97,58.06c.38-.31.31-1.76.13-2.44-.13-.49-1.43-.08-1.91.09-.48.17-.5,1.68-.32,2.63.22.37,1.65.08,2.1-.29Z"/>
      <rect x="28.58" y="56.12" width="2.57" height="2.93" transform="translate(-1.8 .97) rotate(-1.8)"/>
      <path d="M39.2,55.98c.02-.63-.15-1.85-.32-2.15-1.02.48-1.67.78-2.02,1.08-.35.29-.03,1.84.29,2.21.42.48,2.04-.5,2.05-1.13Z"/>
      <path d="M18.23,57.47c.58.12.64-1.98.22-2.4-.42-.42-1.49-.92-1.95-.56-.34.28-.28,1.8-.03,2.17.26.37,1.05.64,1.76.79Z"/>
      <path d="M12.6,52.25c-.76,1.55.19,3.17,1.92,3.4.31-.26.46-2.09,0-2.34l-1.92-1.06Z"/>
      <path d="M46.71,48.79c-1.62.49-2.39,2.11-1.81,3.92,1.41-.67,2.12-2.06,1.81-3.92Z"/>
      <path d="M8.79,49.52c-.42,1.68.51,3.06,1.97,3.61.48-1.79-.46-3.02-1.97-3.61Z"/>
      <path d="M49.78,45.75c-1.12.51-1.77,1.76-1.37,3.15.85-.58,1.42-1.53,1.37-3.15Z"/>
      <path d="M5.14,46.06c.26,1.61.88,2.65,1.79,3.31.29-1.83-.7-2.79-1.79-3.31Z"/>
      <path d="M27.32,49c11.97,0,21.67-9.7,21.67-21.67S39.29,5.65,27.32,5.65,5.65,15.35,5.65,27.32s9.7,21.67,21.67,21.67ZM16.53,39.65v-3.46s21.62-.01,21.62-.01v3.46s-21.62.01-21.62.01ZM11.42,20.44c.46-.96,1.5-1.84,2.88-1.27,1.08.45,1.26,1.97.7,3.42l6.87,5.5,4.48-9.34c-.92-1.14-1.52-2.43-.9-3.29.96-1.35,2.46-1.16,3.29-.42,1.37,1.21.43,2.66-.54,3.69l4.59,9.4,6.8-5.58c-.41-1.29-.53-2.71.48-3.27,1.12-.62,2.58-.16,3.06.92.62,1.39-.38,2.49-1.92,2.87l-2.93,11.41-21.83.03c-1.04-3.94-1.72-7.68-3.14-11.18-.41-1.01-2.79-1.01-1.89-2.89Z"/>
    </g>
  </g>
</svg>