<?xml version="1.0" encoding="UTF-8"?>
<svg id="Warstwa_2" data-name="Warstwa 2" xmlns="http://www.w3.org/2000/svg" viewBox="0 0 58.03 58.54">
  <g id="icon-v10-loot-pixarts-store">
    <g id="icon-v10-loot-pixarts-store_58">
      <path d="M7.11,39.42c.16-2.46.12-4.06-.64-6.09-5.19,1.21-7.72,8.52-5.87,13.46.87-3.5,2.64-6.36,6.51-7.38Z"/>
      <g>
        <path d="M42.01,11.56c-2.32,1.52-5.15,3.58-6.44,5.84-.22,4.28-2.51,6.85-5.53,9.29-.4,1.52-1.17,3.61-2.49,4.91,1.35-.17,3.21-.7,4.22-.02,1.47,1,2.17,2.36,3.13,3.72l1.16-4.84c3.29-2.09.36-1.25,3-8.58.5-1.37,2.64-2.14,3.52-3.28,1.25-1.59,1.36-4.37,2.67-5.87,1.73-1.99,3.06-3.93,4.44-6.12,1.45-2.29,3.73-3.99,5.46-6.09-2.74,1-4.93,2.64-7.13,4.49l-4.52,3.8c-.55.47-.77,2.28-1.48,2.74Z"/>
        <path d="M26.31,15.81c-.93.84-.5,3.15-1.07,4.01l-2.79,4.23c-1.17,1.76-2.68,3-3.42,5.09,2.71-1.24,4.48.31,5.31,2.04.09.19.53.8.55.77,1.28-1.89,2.68-3.64,2.48-5.8-.16-1.77,1.15-2.59,1.87-3.92,2.52-4.71,1.99-9.04,7.42-11.16.15-2.75,1.73-4.48,3.39-6.35l4.16-4.71-4.34,2.43c-2.9,1.62-6.19,5.64-8.01,8.32-1.38,2.04-3.65,3.36-5.54,5.06Z"/>
        <path d="M48.67,18.98c-3.67,2.82-3.17,4.25-6.41,7.48-.19,4.6-2.28,2.84-3.21,5.15-.24.6-.5,1.11-1.24,2.13,3.35-.38,5.73.89,7.01,4.61l1.1-3.41.98-1.26.22-4.53c.65-.03,1.14.08,1.14-.21,0-.22-.05-1.27.01-1.47,2.22-7.21,2.49-3.47,4.14-8.11,1.12-3.16,3.44-5.52,5.61-8.05-2.84,1.22-5.38,2.84-7.82,4.81l-1.53,2.85Z"/>
        <path d="M28.26,33.46c-.69.41-1.13,1.41-1.58,2.44-2.61-.04-5.2.89-5.84,3.49l2.4-.85c2.05,3.15,2.43,7.41,1.12,10.56,9.29-2.88,3.23-7.06,8.77-11.56.26-1.25-.21-3.18-1.19-4.13-.81-.79-2.71-.53-3.68.05Z"/>
        <path d="M16.97,29.1l.43-1.27c.06-.16.31-.08.86-.05,2.74-5.36-.21-1.32,2.71-7.6,4.06-8.75,2.33-3.48,5.92-10.08.94-1.72,2.58-3.13,3.91-4.78-3.81.84-7.14,6.05-10.56,8.54-.04.71-.31,1.91-.76,2.27l-2.35,1.85c.23,2.33-1.06,3.95-3.66,4.65,1.02,5.86,1.71,3.12,3.52,6.48Z"/>
        <path d="M32.26,41.98c.76-.71,2.45-1.81,3.11-1.11,2.18,2.32,2.69,5.41,1.75,8.41,1.5-.03,2.59-1.45,3.05-3.07.43-1.53,1.28-2.52,2.34-3.74,1.19-1.36.93-4.2-.11-5.73-.54-.79-2.04-1.64-2.86-1.66-1.09-.02-2.25.85-1.72,1.91-1.66,1.63-5.92,1.79-5.55,4.99Z"/>
        <path d="M15.72,58.54c1.26-4.83,3.68-8.6,7.82-11.11.49-2.35.19-4.95-.91-7.37-7.3,3.28-8.29,11.81-6.91,18.48Z"/>
        <path d="M5.44,53.64c1.64-3.38,3.03-6.88,6.46-8.62,1.53-.77,2.26-1.48,2.41-3.19.17-1.85.16-3.62-1.01-5.17-7.25,2.57-8.88,10.38-7.86,16.97Z"/>
        <path d="M20.09,30.28c-.57.28-.95,1.15-1.33,2.03-.71,1.65-5.32-.34-6.47,3.17,4.36-.69,3.45,6.61,2.67,9.28,5.88-3.7,2.07-7.03,9.1-10.26-.4-1.32-.78-2.44-1.39-3.65-.29-.57-1.92-.89-2.58-.57Z"/>
        <path d="M31.08,58.15c1.23-5.24,1.01-6.51,4.75-10.03.94-2.04-.06-4.53-1.29-6.16-5.6,2.59-5.28,11.65-3.46,16.19Z"/>
        <path d="M7.19,32.75c1.21,1.15,1.12,3.16,1.52,4.98,3.77-1.15-.47-3.45,6.97-6.24,1.24-.96-.33-3.03-1.46-3.27-1.75-.37-2.77.18-3.47,2.04l-3.47.88c-.3.08-.95.6-1.15.8-.21.19.81.59,1.06.83Z"/>
      </g>
    </g>
  </g>
</svg>