<?xml version="1.0" encoding="UTF-8"?>
<svg id="Warstwa_2" data-name="Warstwa 2" xmlns="http://www.w3.org/2000/svg" viewBox="0 0 57.55 58.33">
  <g id="icon-v10-loot-pixarts-store">
    <g id="icon-v10-loot-pixarts-store_196">
      <path d="M5.61,40l-1.25,2.36c8.52,13.19,26.21,16.44,38.66,6.64l.91-3.65,2.58.05c8.61-8.82,9.64-22.2,3.14-32.62l-2.71-.17,1.27-2.05C41.39,1.22,29.15-2.53,18.3,1.77l-1.15,3.89-2.13-2.47C2.04,10.21-3.91,26.2,2.75,39.46l2.86.54ZM24.04,38.95l-2.22-2.29-3.25,3.22-.44,1.98c-1.77.62-3.54-1.31-3.31-2.75.11-.45,1.7-.5,2.01-.81l3.26-3.24-2.63-2.37,1.63-1.54,1.89,2.2,13.39-15.08c2-.99,4.11-1.81,6.46-2.62l-2.54,6.51-14.76,13.51,2.25,1.83c-.38.59-1.29,1.53-1.75,1.44ZM24.44,25.55c.36.37.9,1.05.82,1.45-.08.4-.98,1.05-1.35.98-5.99-5.84-6.11-3.9-9.01-12.33,7.95,2.45,6.94,3.05,11.95,8.82.14.17.2.8.03.88l-1.06.52-4.69-4.21c1.06,1.67,2.11,2.6,3.32,3.88ZM28.94,32.52c-.25-.25.46-1.43.76-1.27l1.6.89-.74-1.31c-.19-.33.82-1.27,1.07-1l3.25,3.53,1.86-2.26,1.63,1.51-2.6,2.4c.93,1,2.35,2.52,3.16,3.28.35.33,1.96.41,2.01.9.13,1.48-1.16,2.91-3.17,2.83l-.59-2.13-3.22-3.2-2.33,2.43-1.59-1.58,2.26-1.72-3.35-3.3ZM48.09,26.47c1.31,10.33-5.69,20.18-16.2,22.22-2.27.42-4.1.78-5.94.19,12.47-.38,21.97-9.94,22.14-22.42ZM18.7,8.31c8.34-3.66,18.38-1.77,23.93,5.49-9.33-8.15-23.04-6.89-30.44,3.22-5.71,7.8-5.33,17.57.38,25.31-3.16-2.2-4.56-5.58-5.62-9.14-2.55-10,2.24-20.7,11.75-24.87Z"/>
      <path d="M47.66,46.96c-9.34,9.98-23.13,12.32-35.33,5.49,6.85,6.01,16.81,7.25,25.32,4.48.95-.31,1.34-2.18,2.77-.78,2.73-1.45,4.98-2.9,7.3-4.94,11.26-9.91,13.39-27.78,3.51-39.49,6.73,11.74,5.44,25.61-3.58,35.24Z"/>
      <rect x="22.65" y="26.56" width="14.13" height=".53" transform="translate(-10.27 28.87) rotate(-45.01)"/>
    </g>
  </g>
</svg>