<?xml version="1.0" encoding="UTF-8"?>
<svg id="Warstwa_2" data-name="Warstwa 2" xmlns="http://www.w3.org/2000/svg" viewBox="0 0 43.82 50.04">
  <g id="icon-v10-loot-pixarts-store">
    <g id="icon-v10-loot-pixarts-store_198">
      <path d="M42.78,47.35c.85-.79,1.15-3.91,1.02-4.77-.79-5.3-2.91-10.3-6.57-14.16-1.52-1.61-3.01-3.56-5.52-3.22-1.32.18-2,1.99-2.05,3.34-.37,10.4,9.57,22.1,13.11,18.8ZM41.37,44.45c.27-5.45-3.74-13.91-8.69-16.21,4.64-1.4,11.53,12.79,8.69,16.21ZM32.7,36.35c1.62,2.87,3.21,5.25,5.29,7.86-2.59-1.84-4.54-4.84-5.29-7.86Z"/>
      <path d="M29.22,2.03c-.98-.61-2.09-1.3-3.25-1.51-4.91-.93-9.95-.67-14.53,1.21-1.77.72-3.58,1.12-4.83,2.78-.65.86-.4,2.27.54,2.94,1.31.95,2.93,1.61,4.61,1.89,12.03,2.07,22.44-4.22,17.46-7.32ZM14.99,8.29c3.59-.3,6.92-.47,10.13-2.01.25-.09.83-.05.76.1-3.59,2-7.3,2.33-10.89,1.91ZM11.47,4.25c-.9.38-1.5,1.35-1.75,2.13C7.08,1.74,25.16-.5,27.02,3.47c-4.92-1.72-10.57-1.31-15.54.79Z"/>
      <path d="M.03,19.46c.2,2.22,3.87,3.7,5.88,4.22,5.4,1.39,14.09,1.46,18.99-2.09-1.9-.81-3.5-.1-5.29.57-2.91,1.09-6.12,1.04-8.94.76,3.63-.34,6.79-.09,9.93-1.63-3.79-.91-7.45-1.17-10.18-4.32-1.99.29-5.95.64-6.85,2.98-.73-2.69,3.54-3.48,5.89-4.1.35-.09.3-.97.03-1.07-.88-.32-3.12.18-4.16.86-2.08,0-5.48,1.85-5.3,3.83Z"/>
      <path d="M2.03,26.26c.65.5,1.44.43,2.22,0,.04,3.38,15.74,3.42,16.33.81,1.57,1.29,6.28-2.12,5.39-4.78-1.46.9-2.92,1.92-4.51,2.41-5.77,1.79-16.59,1.73-21.36-2.51-.45,1.89.59,3.03,1.93,4.06Z"/>
      <path d="M6.67,47.99l.76-.71,1.29,1.51c4.44,1.79,10.78,1.48,14.94.21.3-.09.63-1.1.81-1l.9.5c1.62-.7,4.93-2.85,3.69-4.69-6.38,4.31-20.07,4.42-26.03-.56-.58,3,3.29,5.07,3.64,4.74Z"/>
      <path d="M14.55,15.38c-1.24-.39-2.35-.68-3.59-.99,0,1.71,3.72,4.75,4.2,3.04.48.73,1.02,1.29,1.72,1.48,4.27,1.19,9.24,1.27,13.5.25.49-.12,1.19-1.08,1.38-1.35.3.18.81.64,1.08.5l1.23-.64c1.74-.91,3.19-2.34,2.68-4.43-5.77,4.62-15.44,4.26-22.19,2.14Z"/>
      <path d="M5.66,40.67l1.02.53c.22.12.64-.6.91-.85l1.37,1.7c3.11,1.08,14.94,1.89,15.65-1.38.33,1.26,1.75.55,2.16.03.32-.39-.22-1.43-.66-2.18-6.89,2.28-17.72,2.35-23.19-2.41-.07,2.26.98,3.64,2.73,4.55Z"/>
      <path d="M25.52,9.44c-6.18,1.92-13.31,2.33-19.02-.77-.25,2.02,2.16,3.63,3.47,3.67.26,0,.97-.74,1.05-.51.08.23.52,1.11.8,1.19,3.91,1.14,9.72.69,13.31-.95.21-.1.62-1.07.76-.92.1.12.57.51.72.45,1.89-.77,4.76-2.87,3.67-5.1-1.37,1.46-2.94,2.38-4.75,2.94Z"/>
      <path d="M39.83,48.87c-6.77-2.87-12.8-15.36-11.2-22.11-2.04.6-3.22,5.04-1.44,5.56-.15-.04-.7.72-.69.9.25,3.92,2.71,8.82,5.37,11.99.48.57,1.34.89,1.6,1.31,1.27,2.04,4.09,3.56,6.36,2.36Z"/>
      <path d="M7.62,34.15l1.13-.81c-.27,3.7,15.04,3.27,15.94.87.21-.57.13-1.58-.04-2.15-5.82,1.64-15.53,1.49-20.54-2.63-.3,2.38,1.55,3.98,3.52,4.72Z"/>
      <path d="M26.2,13.54c2.05-.01,3.71-.61,5.49-.92-2.57,1.56-5.39,1.29-8.25,1.73l-4.71.72c4.11.92,8.29.71,12.51-.32,1.95-.48,5.78-2.13,5.55-4.39-.17-1.66-2.57-3.12-4.55-3.57-.2.28-.52,1.31-.26,1.61l1.11,1.31-1.47-.56c-1.27,2.1-3.19,3.26-5.41,4.4Z"/>
      <path d="M5.09,36.17c5.99,3.07,13.33,3.23,19.8,1.33.25-.07.66-.49.78-.67.11-.19-.68-.56-.91-.5-6.86,1.97-16.66,1.64-21.46-3.44-.47,1.35.52,2.64,1.79,3.28Z"/>
      <path d="M3.53,41.18c.63,1.65,2.05,2.33,3.51,2.88,6.22,2.33,13.24,2.22,19.39-.25.83-.33,1.78-.79,1.38-1.87-7.27,3.78-17.98,3.3-24.28-.76Z"/>
      <path d="M7.49,30.01c5.63,2.17,11.5,2.1,17.19.69.17-.68.32-1.45.36-1.81-5.72,1.89-12.14,1.66-17.55,1.12Z"/>
      <path d="M27.62,22.87c-.7,3.66-3.15,5.17-6.2,6.24,4.69-.03,3.97-2.52,8.44-4.64l-2.24-1.6Z"/>
    </g>
  </g>
</svg>