<?xml version="1.0" encoding="UTF-8"?>
<svg id="Warstwa_2" data-name="Warstwa 2" xmlns="http://www.w3.org/2000/svg" viewBox="0 0 53.59 53.67">
  <g id="icon-v10-loot-pixarts-store">
    <g id="icon-v10-loot-pixarts-store_97">
      <path d="M6.09,42.37c-1.03,2.62,2.26,3.23,1.04,9.13l1.4-1.67,1.08,2.89.28-2.64,1.44,1.21v-1.9s3.76,3.99,3.76,3.99l-2.78-5.44,2.61,1.67,1.06-.76-2.86-2.17,2.9-.46-3.71-1.5c-.97-.39-1.67-.82-2.57-1.79-.47,1.32-.45,3.01-.09,4.87-2.67-2.46.41-5.72-1.59-6.76l-.62-2.12-1.35,3.44Z"/>
      <path d="M35.93,47.75l2.13.84c-.64.58-.31.54.33.28l.87-.23c-1.03,1.43-1.7,2.23-2.48,3.84l3.9-2.39-.87,2.97c.4-.28,1.28-1.14,1.43-.86l.79,1.47c.14-2.34.58-4.39,2.68-5.66-1.35-.02-2.31-.11-3.21-.71,1.84-.1,3.57-.15,5.22-1.23-3.9-.52-7.22.53-10.8,1.68Z"/>
      <path d="M41.73,8.86c-.28,3.5.43,6.68,1.94,9.96,1.19-3.52,1.6-7.34-1.94-9.96Z"/>
      <path d="M43.82,43.29c1.01.49,1.17.6.74.55-1.33.33-2.12.5-3.06,1.16,4.47.49,5.22.87,8.39-2.66l-5.9.14c-.39.68-.54,1.06-.17.81Z"/>
      <path d="M37.51,5.82c.84,5.81.73,3.87,3.74,8.42-.99-4.75.73-6.71-3.74-8.42Z"/>
      <path d="M46.12,10.1c.32-1.36.95-3.18.6-4.74-.28-1.25-1.88-2.27-2.87-2.76l.61,4.57c.11.8,1.13,2.01,1.66,2.93Z"/>
      <path d="M46.2,30.35l-4.22-.4c-.93-.09-2.32,1.02-3.11,1.69,3.7,1.23,4.78,1.84,7.33-1.29Z"/>
      <path d="M26.46,35.02c2.4,3.01,3.58,4.33,7.09,2.7l-4.03-2.53c-.65-.41-2.29-.26-3.06-.18Z"/>
      <path d="M30.11,44c-2.58-2.06-3.31-3.85-6.79-3.36,2.25,2.97,2.37,4.35,6.79,3.36Z"/>
      <path d="M47.94,6.33l-.75,2.61c-.48,1.68-.33,3.36.39,4.9,2.1-3.03,3.07-4.63.36-7.51Z"/>
      <path d="M45.43,26.67c-1.25.46-2.17,1.04-3.13,2.37l4.7.21c.95-1.13,1.43-1.78,2.24-3.12l-3.82.54Z"/>
      <path d="M43.52,6.58l-.76-4.39c-1.28-.91-2.39-1.45-3.75-1.69l1.39,3.3c.71,1.28,1.55,2.15,3.13,2.78Z"/>
      <path d="M11.49,13.51c.69-.46,1.23-1.96,1.49-2.71-3.48.42-5.05,1.33-5.3,5.26l3.81-2.55Z"/>
      <path d="M47.07,22.1l2.16-1c1.98-.92,2.93-2.75,2.33-5.06-2.64,2.28-3.63,2.33-4.49,6.06Z"/>
      <path d="M14.92,41.91c-.8-3.87-.42-4.96-3.57-6.46l.31,4.33c1.12.92,1.92,1.5,3.26,2.13Z"/>
      <path d="M35.73,3.68c-.86-1.31-1.78-2.79-3.45-3.34-1-.33-2.63.18-3.41.44,3.22,1.93,2.65,3.3,6.86,2.89Z"/>
      <path d="M3.24,37.9l1.84-2.46c.97-1.3,1.49-2.55,1.2-4.39-2.75,1.45-4.36,3.61-3.04,6.86Z"/>
      <path d="M30.8,34.93c4.02,2.33,3.5,3,7.36,1.18l-3.62-1.81c-1-.5-2.68.06-3.74.63Z"/>
      <path d="M5.66,12.65c-3.52.37-5.52,1.84-5.5,5.17l2.74-1.61c1.41-.83,2.42-2.04,2.76-3.57Z"/>
      <path d="M6.53,35.11l-1.59,1.91c-1.35,1.62-1.46,3.85,0,5.52l1.69-3.54c.34-1.17.29-2.43-.1-3.9Z"/>
      <path d="M48.23,38.14c1.34-.31,2.59-.6,3.64-1.12,1.5-.75,1.85-2.75,1.68-4.28l-2.64,1.91c-1.26.91-2.23,1.98-2.68,3.49Z"/>
      <path d="M19.69,43.36l-1.65-3.46c-.42-.88-1.92-1.6-2.97-1.96.16,1.53.48,2.95,1.32,4.2.64.96,2.32,1.26,3.31,1.22Z"/>
      <path d="M51.05,21.22c-2.84,1.36-4.55,1.5-5.87,4.69,3.36-.5,5.2-.7,5.87-4.69Z"/>
      <path d="M45.06,23.22l.8-3.01c1.4-1.04.87-6.32-.8-7.55-.06,1.62,0,3.32.08,5.07.09,1.9-1.59,3.52-.09,5.49Z"/>
      <path d="M8.09,9.28c-3.48-.49-5.36.09-6.42,3.42l4.49-1.2c.62-.17,1.51-1.5,1.93-2.22Z"/>
      <path d="M39.97,39.99l-3.9-.95-3.65.99,3.94,2.03c1.58-.6,2.5-1.09,3.61-2.07Z"/>
      <path d="M22.46,34.31c1.87,3.23,1.58,4.85,5.92,4.28l-2.68-3.14c-.66-.77-2.21-1.08-3.25-1.14Z"/>
      <path d="M19.64,36.12c.41,1.53,2.44,2.14,3.97,2.19l-2.22-4.09c-.38-.7-1.85-1.3-2.69-1.64l.95,3.54Z"/>
      <path d="M19.08,39.69c1.12,3.08,1.86,4.78,5.68,4.49l-2.53-3.46c-.46-.64-2.14-.88-3.15-1.03Z"/>
      <path d="M39.82,4.52c-1.26-3.29-1.92-4.97-5.78-4.41l2.51,3.09c.66.82,2.22,1.25,3.27,1.32Z"/>
      <path d="M45.68,41.38c1.56.22,3.32.34,4.76-.37.96-.48,1.53-1.87,1.77-2.96-3.45,1.02-4.35.62-6.53,3.33Z"/>
      <path d="M31.22,3.78c-.9-.99-1.86-1.94-3.15-2.31-1.37-.39-3.02.43-4.04,1.09l3.75,1.65c1.11.03,2.24-.11,3.43-.43Z"/>
      <path d="M15.76,30.09c-1.1,2.75-.19,5.75,3.02,6.51l-1.26-4.83c-.15-.57-1.5-1.42-1.76-1.68Z"/>
      <path d="M7.67,21.2l3.19-3.35c.58-.61.63-2.32.67-3.22-1.51.84-2.48,1.61-3.71,2.69-.2,1.38-.27,2.46-.15,3.88Z"/>
      <path d="M48.04,17.53c3.05-1.47,3.89-4.16,2.38-6.73l-2.49,4.43c-.31.55-.09,2,.11,2.3Z"/>
      <path d="M35,33.43c3.26,1.63,4.2,2.75,7.29.19-2.95-.99-4.17-1.93-7.29-.19Z"/>
      <path d="M4.01,16.66c-2.97.93-4.81,3.39-3.67,6.4,2.09-2.95,3.66-2.67,3.67-6.4Z"/>
      <path d="M25.21,8.49l2.26,2.33c1.01,1.04,2.39,1.89,3.94,1.08l-2.71-3.53-3.49.12Z"/>
      <path d="M35.24,42.5l-4.4-2.03c-.68-.31-2.22.08-3.09.26l3.7,2.78c1.99-1.73,2.16.42,3.79-1Z"/>
      <path d="M49.74,34.28l3.2-2.21c.46-1.39.62-2.65.09-4.18l-2.62,2.81c-.41,1.14-.62,2.03-.67,3.57Z"/>
      <path d="M14.44,33.87l.27-3.99c-.31-1.15-.79-2.31-1.41-3.39-1.73,3.06-1.53,5.35,1.13,7.38Z"/>
      <path d="M10.91,7.85c-.77.49-1.46,1.71-1.95,3.02l4.51-1.34c.68-.2,1.39-1.53,1.47-1.96-1.28-.36-2.86-.48-4.03.27Z"/>
      <path d="M11.16,30.21l1.05-4.15c.15-1.03,0-2.1-.39-3.19-.94,1.04-1.66,2.05-2.06,3.32-.47,1.52.47,3.17,1.39,4.02Z"/>
      <path d="M2.64,32.81l3.59-3.28c.45-.41.8-1.78.97-2.42-3.29.89-4.96,2.07-4.56,5.7Z"/>
      <path d="M24.47,6.07c.63.13,1.91-.9,2.35-1.23-2.72-1.66-4.6-2.17-6.95.27l4.6.96Z"/>
      <path d="M16.5,8.28l4.57.26,2.17-1.73c-2.89-1.1-4.94-1.34-6.74,1.48Z"/>
      <path d="M32.76,12.14c.48.63,2.01.97,2.94,1.1l-2.15-4.08-3.52-.61,2.72,3.59Z"/>
      <path d="M10.86,22.49c.67-1.04.73-2.33.26-3.46-2.57,2.02-3.76,3.93-2.39,6.76l2.13-3.3Z"/>
      <path d="M10.61,38.94l-.29-4.41-2.16-2.05c-.22,2.77-.27,5.69,2.45,6.46Z"/>
      <path d="M14.12,11.99c2.4.41,4.64-.44,5.98-2.52-3.08-.25-4.89-.82-5.98,2.52Z"/>
      <path d="M15.96,6.53l1.81-1.75c-2.15-1.38-4.68-.87-6.04,1.56l4.23.19Z"/>
      <path d="M1.66,27.89l1.94-5.65c.21-.6.32-1.19.35-1.54C1.2,22.25-.02,25.3,1.66,27.89Z"/>
      <path d="M40.07,36.89l-2.9,1.68c3.52.62,4.45,1.08,6.7-1.93-1.28-.16-2.94-.24-3.79.25Z"/>
      <path d="M33.84,5.21c.33,2.19,1.48,3.55,3.5,4.37l-.68-4.28-2.82-.09Z"/>
      <path d="M21.74,10.43c1.66,1.6,3.33,2.03,5.34,1.19l-3.23-2.74c-.8.44-1.39.88-2.11,1.55Z"/>
      <path d="M8.41,8.2c.51-.02,1.22-1.46,1.29-1.87-.92-.38-2.48-.59-3.01-.08l-1.98,1.9c.99.05,2.57.09,3.7.06Z"/>
      <path d="M20.91,2.35c-1.7-1.4-4-.93-5.26.64l3.11,1.04,2.15-1.67Z"/>
      <path d="M3.56,27.58l3.37-1.64-.49-2.21c-2.25.31-3.03,2.1-2.88,3.86Z"/>
      <polygon points="36.95 13.82 39.21 14.95 37.69 11.06 35.3 10.06 36.95 13.82"/>
      <path d="M49.86,29.87c.03.11.26-.25.34-.33l.5-.49c1.56-1.52,2.43-3.49,1.05-5.29l-2.1,5.01c-.07.17.17.93.22,1.09Z"/>
      <path d="M16.94,12.8c-.93.02-2.32.08-3.18.45-.62.26-.84,2-.85,2.64,1.92-.38,2.99-1.52,4.04-3.08Z"/>
      <path d="M42.42,35.39c2.39.76,3.77-1.01,4.04-2.93l-4.04,2.93Z"/>
      <path d="M32.46,5.29c-.56-.15-1.55.17-2.17.56,1.07.99,2,1.42,3.19,1.65-.19-.93-.52-2.07-1.03-2.21Z"/>
      <path d="M20.83,11.3c-.65.15-1.46.97-1.99,1.79,1.25-.1,2.26-.25,3.83-.54-.41-.54-1.31-1.37-1.84-1.25Z"/>
      <path d="M10.93,5.06c.38-.29.8-.93,1.17-1.62-1.86.34-2.54.69-3.53,1.46.59.33,1.82.57,2.36.16Z"/>
    </g>
  </g>
</svg>