<?xml version="1.0" encoding="UTF-8"?>
<svg id="Warstwa_2" data-name="Warstwa 2" xmlns="http://www.w3.org/2000/svg" viewBox="0 0 52.1 57.56">
  <g id="icon-v10-loot-pixarts-store">
    <g id="icon-v10-loot-pixarts-store_308">
      <path d="M23.66,48.56c2.03-.05,5.8-1.74,6.1-3.67,1.61-1.01,3.61-2.43,3.91-4.87l-5.02.81c1.31-2.94,1.35-5.95.35-9.05-3.53.76-6.67,1.93-9.33,3.66l.02,6.56c-2.1.79-4.04,1.67-5.2,3.09.73,3.01.66,5.11.06,8.52,2.64-.46,6.72-3.16,7.77-5.41.94-2.01-2.16-1.3.49-7.73.68.79,1.4,1.69,1.97,1.6l2.72-.43-3.43,1.5c-.32,1.42-.47,3.33-.43,5.42Z"/>
      <path d="M39.86,31.33l-8.07,1.77c-2.49.55-.09,4.73-.79,6.86,5.29-1.11,7.17-2.9,8.86-8.63Z"/>
      <path d="M38.22,2.47l-3.05,2.95.62-2.4c-2.94.76-6.1,2.03-7.69,4.77l-2.79,4.82,6.67-3.34c1.74-.87,3.36-1.17,5.34-.32l-.02,8.79c2.04-.16,3.3-1.15,3.97-2.77,2.8-6.72,5.49-4.01,5.85-9.58l.34-5.14c-3.39,0-6.45.57-9.24,2.22Z"/>
      <path d="M49.86,39.14c.56-.92.8-2.2.62-2.94-4.9,2.9-6.19,1.45-11.25,2.74-6.84,6.54-7.84,10.22-16.27,15.04,3.35.64,6.5.51,9.38-.54.76-.41,1.82-1.3,2.47-1.23,2.76.3,5.96-1.06,7.85-3.3-1.23-.62-3.25-.69-4.2.05l-3.35,2.59.94-2.02c.16-.33-.4-.85-.59-1.31,9.16-2.21,9.75-1.51,14.4-9.07Z"/>
      <path d="M34.89,10.6c-4.08.62-11.74,4.97-12.24,9.44l3.75-1.01,1.35,6.7c1.95-1.37,2.98-2.49,4.91-3.27-1.18,1.47-2.46,2.43-4.02,3.51-1.22.84-2.08,3.26-.55,4.19.58.35,1.87.58,2,1.1l.44,1.73c4.87-1.51,3.28-7.49,4.36-6.44l.64.63-.29-4.15-2.38-.46,2.07-2.61c.43-3.12.43-6.02-.05-9.36Z"/>
      <path d="M4.56,57.56c2.52-.91,4.45-1.71,6.54-3.02,2.9-1.83,3.19-5.92,2.06-8.84l-3.75.38-.22-5.22-.15-3.16c-8.39,5.18-6.1,11.42-4.47,19.86Z"/>
      <path d="M51.78,20.09l-4.42,2.19-4.82,2.39c1.48.84,1.85,1.89,1.3,3.22l-3.57,8.61c5.71.28,6.29-.05,8.9-4.82l-2.97.49c3.8-3.51,6.93-6.82,5.59-12.08Z"/>
      <path d="M16.39,31.23c.92-.03,1.85-.01,2.06.43l1.02,2.12,5.59-2.76c2.02-2.45,1.09-7.13.88-10.76-3.81,1-6.85,3.24-9.82,6.03l.27,4.94Z"/>
      <path d="M26.64,0c-4,1.44-13.59,7.64-11.69,12.15l3.17-1.71.75,4.55c1.63-.14,4.22-.99,4.51-2.63.39-2.16.24-4.5,1.61-6.09,1.57-1.81,2.88-3.7,1.65-6.26Z"/>
      <path d="M5.34,23.67l3.55-4.55,3.61-4.56c1.05-1.32,0-3.37.12-4.92.11-1.51,1-2.61.46-4.63l-4.29,4.02c-2.6,2.44-4.89,10.27-3.44,14.64Z"/>
      <path d="M17.22,32c-6.23,4.49-7.58,4.68-6.27,12.63l7.31-3.12c0-3.67.03-6.39-1.04-9.51Z"/>
      <path d="M47.3,11.22c-3.78.28-4.84,3.02-5.55,6.3-.47,1.03-2.73,1.56-4,1.99-.5,1.1-.36,3.48.07,4.65l7.11-2.87c1.98-.8,2.7-7.85,2.36-10.07Z"/>
      <path d="M13.27,24.62c.63.25,2.52.14,2.99-.25l5.04-4.21,2.17-4.43c-2.56.62-4.93,2.22-7.4,3.87.37-2.07.63-3.59.17-5.58-2.01,1.85-3.37,3.41-4.77,5.42.17,1.53,1.05,3.83,1.79,5.18Z"/>
      <path d="M10.99,35.66c3.07-3.51,5.2-4.5,3.72-9.87-3.19,1-5.64,3.58-7.19,6.15-.48.87.09,2.87.37,3.95.7.1,2.59.26,3.1-.22Z"/>
      <path d="M.51,24.48c-.22,3.2-1.04,6.06.01,9.56,1.87-3.53,5.47-9.77,2.9-13.16l.62-5.71c-2.55,2.65-3.3,5.88-3.54,9.3Z"/>
      <path d="M10.19,21.45c-3.19,2.47-4.23,6.13-4.04,9.36l5.28-5.33c-.19-1.24-.84-3.13-1.24-4.02Z"/>
      <path d="M2.87,40.94l3.44-3.32c.21-2.12-.34-4.4-1.23-6.28-2.15,2.89-2.73,6.42-2.21,9.59Z"/>
      <path d="M41.56,26.92c-1.87-.64-4.3-.6-5.56.65-.6.6-.7,2.4-.67,3.26l5.03-1.01,1.2-2.9Z"/>
    </g>
  </g>
</svg>