<?xml version="1.0" encoding="UTF-8"?>
<svg id="Warstwa_2" data-name="Warstwa 2" xmlns="http://www.w3.org/2000/svg" viewBox="0 0 62.95 49.24">
  <g id="icon-v10-loot-pixarts-store">
    <g id="icon-v10-loot-pixarts-store_135">
      <path d="M13.16,31.67c-3.16,4.62-3.44,13.18,2.16,14.67l2.17-3.41,2.02-.87c-.09-2.24.53-4.08,2.2-4.74-1.14,2.04-1.77,3.47-.72,4.86l3.26-.51c-1.08,1.12-3.03,1.71-4.67,2-1.11.19-2.43,3.29-1.21,3.82,7.39,3.17,15.86,1.77,22.65-1.89-10.12-.63-17.56-9-16.29-18.67-4.82,1.81-8.09-.33-11.56,4.75Z"/>
      <path d="M49.56,29.56c-.45,3.23.76,3.79.23,4.37l-1.19,1.28c.2-.75.51-3.07-.3-3.21-.89-.15-2.21.67-3.12.99.66-1.14,1.71-1.66,2.81-2.32l.57-3.56c-7.18-1-13.28-3.68-18.01-8.76-.52,2.49,2.08,6.87,1.27,8.75l-2.43-5.07c-3.52,3.95-.71,11.55,3.67,15.17,4.06,3.36,12.3,6.44,16.57,1.66,3.12-3.49,5.72-7.19,7.57-11.55-2.29-.71-7.57,1.75-7.64,2.23ZM40.56,33.55c-.09.97.1,2.46.34,3.58.14.5-1.68.22-1.69-.37l-.09-3.72-4.12,1.92c-.2.1-1.29-.63-1.1-.75l1.1-.72c.63-.41,1.57-1,2.03-1.37.96-.78-1.14-4.46.57-4.85.5-.12,1.63.24,2.06.7-1.09.86-1.75,2.91-.42,3.35,1.26.41,2.82-1.03,3.44-2.06.27.11,1.06.81.96,1.14-.47,1.53-2.95,1.65-3.1,3.16Z"/>
      <path d="M6.77,40.22c.14-2.95.61-6,1.36-8.63-.58-.84-1.21-1.88-1.68-2.78l-.66-1.26c2.33-.27,1.24,2.93,3.25,2.58,1.53-1.52,3.33-2.98,5.31-3.85-5.41-3.07-4.65-9.68-10.97-7.37C2.21,19.35-.03,20.59,0,22.32c.1,6.55,2.62,12.76,6.77,17.9Z"/>
      <path d="M51.65,26.05c1.38-1.97,2.1-2.85,1.58-4.7-6.04-.06-24.98-4.9-20.38-14.36-1.46.19-2.89,2.15-2.31,4.06.39,1.26.96,2.49,1.49,3.71l-2.17-2.02c-.19,8.75,15.45,13.39,21.79,13.31Z"/>
      <path d="M35.41,6.38c-2.6,1.23-2.26,4.89-.45,6.7,1.64,1.64,3.67,2.79,5.92,3.75.64-3.64,2.47-5.17,5.48-4.75.1-1.92-.09-4.2-1.13-5.73-1.5-2.21-4.28-1.47-5.83.08-1.06-.04-3.09-.48-3.98-.05Z"/>
      <path d="M60.25,16.41c-.47-5.68,1.65-8.67-.98-10.04-.74-.39-2.81-.2-3.29.48l-2.1,2.92c.27,1.85-.89,2.89-2.59,3.79,2.06,1.66,2.2,3.64,1.88,6.26,2.63.43,7.33-.47,7.09-3.4Z"/>
      <path d="M28.19,32.94c-1.11-2.19-1.15-4.66-1.57-7.05-3.81,5.84,3.41,15.86,8.98,17.14-.15-1.29-.21-1.86.29-1.09,1.95,3.27,8.07,3.17,9.73.47-7.41.52-14.1-2.92-17.43-9.47Z"/>
      <path d="M8.28,2.54C7.31.26-.68,12.86.44,16.58c1.93-1.59,4.41-2.17,6.78-1.24-.59-4.28-.21-8.08,1.14-11.7.11-.3.02-.86-.08-1.1Z"/>
      <path d="M43,14.21c-.57.82-.94,2.21-.74,3.26,2.93,1.05,5.94,2.07,9,2.1.75-.38,1.07-2.22.93-2.99-.56-3.07-2.55-1.43-6.29-3.37-.75-.39-2.39.27-2.9.99Z"/>
      <path d="M54.53,5.59c-.13-1.15-1.29-2.74-2.51-2.24-.83.34-1.88.77-2.5.81-.58.04-1.23-1.61-1.05-1.78,1.55.48,2.5.64,4.04.17.31-.84-.94-2.23-1.79-2.48-1.37-.39-2.34,1.13-3.19,1.41-1.5.49-3.45.38-3.73,2.4l3.27,2.03c1.28.8,4.21-.23,5.54,2.86,1.09-.4,2.08-1.88,1.93-3.17Z"/>
      <path d="M58.69,20.49l-4.32,1.09c.75,1.72.92,2.91.27,4.09,1.59.67,8.33-2.28,6.1-4.03,1.06-.87,2.06-2.03,2.2-3.55.1-1.07-.64-2.67-1.46-3.49.73,2.79-.12,5.21-2.79,5.89Z"/>
      <path d="M9.5,31.94c-1.62,3.17-2.32,10.26.68,11.27-1.26-7.25.43-12.51,6.26-15.84-3.08-.15-5.59,1.92-6.94,4.57Z"/>
      <path d="M36.45,1.54c-.96-.22-2.8-.27-3.43.15.41,2.27,3.28,4.23,4.85,2.69.59-.81-.57-2.63-1.42-2.83Z"/>
      <path d="M7.83,17.36c-2.54-2.59-7.17-1.37-7.73,2.19,2.3-1.98,4.87-2.31,7.73-2.19Z"/>
      <path d="M60.5.86l-.94,2.55c-.88-.17-2.09.23-2.06.91l2.2,1.02c1.31-.74,2.68-3.21.8-4.49Z"/>
      <path d="M51.57,8.42l-1.78-.62c-.72-.25-2.22-.85-2.43-.23-.44,1.27.89,1.95,1.78,2.13.88.18,2.08-.32,2.43-1.28Z"/>
      <path d="M50.68,10.61c-.81.34-1.38,1.23-1.43,2.31,1.46-.29,2.38-.78,3.78-2.11-.65-.57-1.62-.5-2.35-.2Z"/>
    </g>
  </g>
</svg>