<?xml version="1.0" encoding="UTF-8"?>
<svg id="Warstwa_2" data-name="Warstwa 2" xmlns="http://www.w3.org/2000/svg" viewBox="0 0 55.79 51.35">
  <g id="icon-v10-loot-pixarts-store">
    <g id="icon-v10-loot-pixarts-store_262">
      <path d="M17.89,2.87l3.16.83-2.71.57c.19.32.92,1.23,1.39,1.28l5.25.63-5.18,1.07c1.5,3.35,2.47,6.33,2.89,9.57l5.58-.2-5.32,1.29c-.04.63.2,1.69.51,2.05l9.36-1.46c-.25-2.83-.75-5.5-1.63-8.17l-4.52-.15,4.03-1.37-2.48-4.66c-.55-1.04-1.92-1.82-3.04-1.93l-8.36-.83c.2.49.7,1.4,1.08,1.49Z"/>
      <path d="M12.96,7.3l2.79.8c-1.77,1.46-1.29,2.41-.86,3.96.45,1.62.88,2.76,2.87,3.16l-1.35,2.07.49,4.31,5.26-.79c-.43-2.82-.59-5.43-1.34-8.11C20.2,10.53,16.18.13,13.64.09l-5.26-.09,2.46,2.02,2.12,5.28Z"/>
      <path d="M38.85,4.73l-2.18.49,1.89,4.46,2.8.43-2.57.6,1.18,6.88,8.33-1.25-.44-2.52-4.49.1,4.4-1.46c-.3-1.24-.74-4-2.02-4.19-1.7-.25-3.14-.28-4.55-.57l4.21-.73c-2.5-5.57-4.32-3.91-10.29-4.73.32,2.17,1.77,2.18,3.73,2.49Z"/>
      <path d="M3.66,16.26c.75-2.93,1.11-7.89,4.08-10.12,3.23,4.12,4.69,8.8,5.23,14,.87.54,2.1,1.08,2.87,1.3l-.24-4.47c-.02-.29.66-.99.44-1.13-1.94-1.24-1.67-3.26-2.58-5.68l-1.14.03,1.18-1.3c-.58-.3-1.3-.92-1.52-1.47l-1.92-4.79c-.46-.7-1.93-1.53-2.75-2.04-4.04,3.79-1.27,2.63-3.83,6.44-1.19,1.77-1.07,4.31-1.49,6.43-.12.61-.35,1.56-.21,1.99.15.43,1.24.67,1.87.81Z"/>
      <path d="M16.56,28.61c2.96-.53,5.39-.86,7.98-1.7,1.89-.61,6.24-.71,9.49-1.49l.22-5.41-17.91,2.9.22,5.7Z"/>
      <path d="M33.18,31.25c.93,3.27-2.28,6.57.91,8.03.02-1.98-.2-3.92,1.18-5.95l-.34,4.26c-.14,1.76,1.63,2.91,2.78,3.36,1.99.77,3.1-.1,4.56-1.29,4.2-3.42,1.64-5.45,2.24-9.24l-7.43,1.57c-1.62.34-2.35.69-3.9-.74ZM40.06,32.63c.79-.13,1.73.7,1.51,1.52-.31,1.17-.3,1.88.02,3.64-.2.16-1.73.49-2.46.58.76-3-1.5-5.33.93-5.74Z"/>
      <path d="M23.8,43.23l7.84-1.88c.27-.07.96-.46.9-.71-.07-.25-.37-.85-.58-1.05-2.81-2.57.06-4.41-1.27-6.64.4-.3.74-1.86.17-2.03l-7.06,1.46c-.49.1-.48,1.9,0,1.84l4.84-.6-5.14,1.86v4.04s3.74-.05,3.74-.05l-3.78,1.23.35,2.53Z"/>
      <path d="M29.84,3.29c2.99,4.58,4.3,9.45,4.84,15.15l4.32-.69c-.36-4.96-2.37-13.45-6.26-16.27-2.04-1.47-5.24-.76-7.43-.8,2.03.33,3.46.98,4.52,2.61ZM33.64,7.33c.14-.41,1.07-.08.92-.38l-.42-.85c-.15-.3,1.1-.03,1.13.31.03.34-.03.88-.16,1.2-.15.38-1.61.1-1.47-.28ZM31.04,1.52c.07-.19.82,0,1.04.24.22.23.13,1.18-.19,1.21-.43.03-1.24-.12-1.39-.28l.94-.47c.14-.07-.34-.53-.4-.7Z"/>
      <polygon points="15.51 28.04 15.26 22.79 8.12 19.76 7.77 21.67 7.22 19.42 0 16.19 .39 20.81 15.51 28.04"/>
      <path d="M42.43,23.97l4.01-.79c.27-.05.58-1.05.86-1.02.29.03,1.14.59,1.5.53l6.82-1.23.17-4.91-14.12,2.46c-.73,1.55-.8,3.82.76,4.97Z"/>
      <path d="M44.95,3.05c3.68,5.54,4.22,6.21,5.14,13.21l3.79-.49c-1.71-4.99.81-5.49-2.98-8.86l-.89-2.77c-1.16-3.64-6.96-3.15-9.87-3.11,2.03.38,3.65.29,4.8,2.02Z"/>
      <path d="M13.92,41.5l-.8-8.92c-.04-.42-1.24-1.09-1.45-1.15l-.56,1.98c0-2.2-1.15-3.32-2.9-3.57l-.02,2.67c-.73-1.56.27-3.18-1.83-3.67l1,8.6c.07.6,1.05,1.01,1.51,1.17l1.84,1.45.29-3.29.5,3.51c.09.66,1.65,1.54,2.42,1.22Z"/>
      <path d="M14.07,43.11l.06,5.67c.6.65,1.65,1.36,2.65,1.92l.11-4.79c0-.15.39-.76.43-.61.03.1.19.53.2.64l.16,5.41,5.96-1.36-.34-6.45-6.05,1.21-3.18-1.64ZM19.64,47l.44,1.19c.09.25.41.11,1.45.01-.14.21-.6.73-.92.97-.31.23-1.4-.27-1.36-.65.04-.41.28-1.34.38-1.51Z"/>
      <path d="M33.64,26.42l-16.67,3.24c-.03,1.13.07,2.14.32,3.04l14.5-3.16c.66-.14,1.75-.48,1.82-1,.08-.57.07-1.48.03-2.13Z"/>
      <polygon points="22.54 42.63 22.44 32.62 17.63 33.76 18.21 39.15 18.12 43.7 22.54 42.63"/>
      <path d="M1.29,22.29c-.09.83.1,2.23.53,2.89l14.25,7.21c.13-1.17.07-2.38-.32-3.01L1.29,22.29Z"/>
      <polygon points="24.64 48.69 32.69 46.8 33.04 42.66 24.41 44.59 24.64 48.69"/>
      <path d="M6.63,11.37c-.55,1.8-.87,3.5-1.04,5.54l6.39,2.5-.92-4.75-.63,3.56c-.55-4.03.98-4.49-1.25-8.25l-.31,1.54-.75-3.37c-1.58,1.15-.26,6.33-1.08,7.75l-.42-4.51Z"/>
      <polygon points="50.27 27.44 48.92 37.76 52.21 36.81 53.63 26.69 50.27 27.44"/>
      <polygon points="43.6 27.71 54.47 25.5 54.73 22.71 43.05 24.84 43.6 27.71"/>
      <path d="M14.8,42.23l2.44,1.26c.07-3.39-.11-6.35-.39-9.63l-2.83-1.28.78,9.65Z"/>
      <path d="M39.77,45.26l7.33-2.12.41-3.45c-3,.97-8.97,1.45-7.73,5.57Z"/>
      <polygon points="13.07 43.39 7.14 39.8 7.37 43.47 12.97 47.21 13.07 43.39"/>
      <path d="M2.38,26.67l1,8.23c.16,1.29.86,2.47,2.31,2.35l-1.2-9.33c-.12-.58-1.74-1.25-2.12-1.26Z"/>
      <path d="M38.77,42.63l-4.18-.91-.43,5.95,4.44-1.23.16-3.81ZM37.68,44.15l-.78.87c-.17.19-.95-.04-.95-.3l-.04-1.37.91,1.1.14-.9c.02-.15.37-.18.52-.22.15-.04.3.71.2.82Z"/>
      <path d="M48.6,27.87l-4.12.69c1.82,1.81.31,3.12,1.3,6.73.44-.02,1.92-.56,2-1.11l.66-4.48-1.8-.23c1.18-.61,1.92-.61,1.96-1.6Z"/>
      <path d="M52.45,42.71l.59-4.99c-1.6.29-2.81.58-4.05,1.02l-.8,4.94,4.26-.97ZM50.23,40.11c.4-.3.42-.25.13,1.02l1.29-.14-.6.84c-.18.25-1.16-.02-1.22-.33-.06-.3.12-.84.4-1.39Z"/>
      <polygon points="3.2 41.96 6.2 43.92 5.79 38.62 3.05 37.02 3.2 41.96"/>
      <path d="M35.44,23.98c1.77-.43.76-1.8,1.41-3.12.46-.93,2.51-.35,3.47.17l.09-2.23-5.03.69.07,4.49Z"/>
      <path d="M39.63,21.7c-.78-.41-1.71-.5-2.54-.29,1.64,1.94,1.95,2.98,1.11,5.09.69-.14,1.47-.36,1.77-.7.48-.54.87-3.47-.34-4.1Z"/>
      <path d="M36.85,31.12l7.32-1.43c-.36-.49-1.39-.22-2.2-.24-1.45-.04-3.12-.38-4.48.32-.55.29-1.32,1.01-1.77.86l-2.26-.73c.2,1.8,2.01,1.49,3.38,1.22Z"/>
      <path d="M36.04,29.91c1.05-.81-.71-1.5,1.41-4.5.27-.38.23-1.51-.06-1.63-3.36,1.24-2.78,7.24-1.35,6.13Z"/>
      <path d="M47.41,35.7c-.11-.45-1.56.03-1.76.49l-1.15,2.72c1.17-.16,2.25-.33,2.61-.81.31-.42.43-1.83.3-2.41Z"/>
      <path d="M42.25,28.75l.16-.85c.26-1.37,0-2.75-1.15-3.44l-.09,3.94c0,.22,1.04.57,1.08.36Z"/>
      <path d="M40.39,27.3l-3.33.48c1.4,1.44,2.53.51,3.33-.48Z"/>
    </g>
  </g>
</svg>