<?xml version="1.0" encoding="UTF-8"?>
<svg id="Warstwa_2" data-name="Warstwa 2" xmlns="http://www.w3.org/2000/svg" viewBox="0 0 61.92 53.53">
  <g id="icon-v10-loot-pixarts-store">
    <g id="icon-v10-loot-pixarts-store_66">
      <path d="M60.18,19.93l-.8-.87c2.64-.86,2.13-7.48,1.34-9.58-1.84,3.81-3.35,7.41-5.92,10.36,1.1-2.88,2.75-6.61,2.88-9.41.01-.32-.99-.77-.78-.9,2.19-1.36.05-7.71-1.62-9.5-.89,5.88-2.16,11.65-5.4,16.74l.28,4.48,1.48-1.78c1,2.49.58,4.6-.04,7.13l2.2-1.29c.42,2.22-.18,4.19-1.21,6.2l1.61-.07c.07,1.78-.66,3.51-1.67,4.91.39.25.99.5.95.75-.24,1.44-2.14,3.98-4.08,2.67,1.27-.55,2.26-1.19,2.98-2.24l-2.4-.6c1.76-1.06,2.79-2.52,3.03-4.26l-3.02.71c1.63-2.23,2.9-3.75,2.75-6.26l-3.61,2.39c1.09-2.43,2.47-4.65,1.93-7.75l-3.49,4.03,1.47-5.27c.36-1.29-.05-3.03-.55-4.14-.91,2.52-1.85,4.47-3.37,6.4-2.46,3.14-4.31,8.1-.95,11.06,2.08,1.83,2.22,4.59.85,6.85-.18-.59-.21-1.43-.55-1.5l-1.24-.28c-1.83-.41-3.1.18-4.21,1.62-.15-.33-.01-1.4.31-1.62,1.27-.83,2.48-.87,4.17-.94.04-.94-1.05-2.04-1.8-2.42-.55.74-1.01,1.29-1.53,1.58l-3.62,2.01c.86-3.26,4.36-1.03,4.09-5.86l-2.67,1.57,1.82-2.78c.92-1.4.36-3.36-.13-4.72l-1.56,3.49c-.08-4.38-4.14-7.34-7.14-10.51-3.02,3.06-7.2,6.31-7.13,10.34l-1.39-3.23c-1.5,2.54-.59,4.86,1.56,7.24-.94-.14-1.69-.7-2.52-1.37-.92,4.58,3.25,2.63,3.99,5.94l-2.82-1.62c-.91-.52-1.64-1.15-2.45-1.94-.62.16-1.75,1.37-1.81,2.11l3.25.57c.93.16,1.69,1.27,1.29,2.18-1.96-2.84-5.76-1.55-5.77-1.01l-.04,1.34c-1.6-2.29-1.33-5.23.81-7.13,3.32-2.95,1.33-7.89-1-10.83-1.58-2-2.58-4.03-3.39-6.54-.78,1.73-.82,3.66-.28,5.44l1.15,3.77-3.45-3.79c-.77,2.86.86,5.28,2.01,7.83l-3.72-2.58c-.27,2.66,1.15,4.33,2.89,6.44l-3.17-.84c.15,2.07,1.3,3.13,3.01,4.31l-2.26.46c.56,1.33,1.83,1.89,3.21,2.37-2.27,1.2-3.88-1.16-4.39-2.71-.08-.23.6-.46,1.07-.69-1.23-1.36-2.01-3.16-1.67-4.95l1.55.24c-1.07-2.12-1.66-3.95-1.29-6.35l2.21,1.25c-.7-2.34-1.04-4.68-.12-6.97l1.55,1.6.3-4.34C9.07,11.73,7.67,6.16,6.72,0c-1.65,1.18-3.73,8.58-1.44,9.74-2.69.2,1.84,8.77,1.74,9.77-2.52-3.07-4.02-6.6-5.69-10.04-1.11,2.57-.81,6.5.19,8.6.15.31.86.81,1.06.99.2.17-.72.87-.59,1.16.82,1.82,2.24,4.27,3.34,6.15L0,22.16c-.03,5.27,3.61,9.03,7.13,11.96l-4.77-1.69c.35,3.08,2.96,5.09,5.9,6.47l-3.25.56c1.27,1.98,3.91,3.3,6.53,2.85.73-.13,1.78-1.11,2.32-1.69-1.52-3.44-.72-6.95,1.65-9.79l.62-3.5c.45,1.24.93,3.34-.04,4.55-2.24,2.78-2.81,6.68-.38,9.42-1.03.45-1.93,1.07-2.83,1.85l1.43.85-2.12.48c-.51,1.51-.47,3.96.5,5.53,1.19,1.94,3.33,3.1,5.42,3.48l-2.95-3.12c-1.57-1.66-.73-3.92.95-5.23,3.24-2.53,7.24-3.63,11.34-4.09l3.56,2.45,3.68-2.57c4.11.61,7.97,1.63,11.23,4.03,1.81,1.33,2.53,3.62.96,5.48-.87,1.04-1.93,1.99-2.98,3.09,5.17-1.49,6.78-3.91,6.08-9.08l-2.12-.38,1.3-.91c-1.1-.88-1.66-1.36-2.82-1.87,2.25-2.72,1.93-6.63-.49-9.51-1.01-1.21-.4-3.42.19-4.74.07.99.21,2.74.43,3.8,2.51,2.71,3.15,6.36,1.78,9.8.89,1.66,3.29,2.23,5.05,1.57,1.44-.54,2.63-1.4,3.63-2.62l-3.14-.69c2.9-1.45,5.6-3.24,5.91-6.57-1.64.68-2.76,1.2-4.24,1.47,3.57-3.1,6.52-6.88,6.45-11.58l-5.11,4.15,3.37-6.42ZM31.02,41.52c-2.14-1.46-3.44-2.67-5.17-4.43l-.21-8.43c1.68-2.05,3.17-3.66,5.31-5.46,2.19,1.78,3.76,3.42,5.38,5.52-.39,9.02,1.71,7.2-5.31,12.8Z"/>
      <path d="M31.37,24.88c-.07,2.09-.1,3.43-1.92,4.07,1.06-1.47,1.72-2.45.99-3.9l-3.33,3.51,1.65,1.31.16,3.93c.03.69.15,1.74.2,2.18l-1.74,1.08,3.15,2.66c.63-1.75-.34-2.43-1.28-3.56l1.74,1.12c3.74-2.35,1.17-3,2.25-6.85,1.5,1.44-1.21,5.93,1.97,5.75l.03-5.99c0-.58-.43-1.68-.61-2.11l-3.25-3.2Z"/>
      <path d="M28.31,34.33l-.05-3.28c0-.33-.21-1.22-.51-1.27l-1.01-.17.1,6.56c1.1.18,1.48-.82,1.47-1.85Z"/>
      <path d="M33.45,36.17c-1.09.22-2.68,1.86-1.91,3.39l2.89-2.37c-.08-.31-.67-1.08-.99-1.02Z"/>
    </g>
  </g>
</svg>