<?xml version="1.0" encoding="UTF-8"?>
<svg id="Warstwa_2" data-name="Warstwa 2" xmlns="http://www.w3.org/2000/svg" viewBox="0 0 26.99 60.45">
  <g id="icon-v10-loot-pixarts-store">
    <g id="icon-v10-loot-pixarts-store_291">
      <path d="M23.91,12.23c-3.92-2.58-1.23-8.15-1.75-7.93l-.59.25c-1.31.55-2.53.94-3.74,1.06l1.08-1.01c-4.39-1.33-3.01-1.21-5.45-4.6l-2.09,3.19c-.49.75-2.41.99-3.29,1.35l.87,1.04c-1.83-.36-2.82-.75-4.33-1.29.77,2.47,1.11,5.27-.79,7.2-.99,1.01-2.41,1.8-3.81,2.73,4.26,2.82,6.48,4.38,4.6,10.18,1.54-.67,2.64-1.12,4.37-1.53l-.96.92,2.71,1.21c.23.1.76.71.63.91l-.53.78c1.02,1.15,2,2.55,2.68,3.9.68-1.46,1.63-2.84,2.64-3.94l-.6-.67c-.1-.11.21-.81.34-.87l2.97-1.27-1-.92c1.41.22,2.91.76,4.46,1.38-.54-2.04-1.05-4.4.1-6.31,1.01-1.68,2.79-2.6,4.58-3.76l-3.07-2.02ZM21.52,15.47l-.06-2.09-2.67.85,2.62,1.33-1.89,4.05c-.32,0-1.12-.23-1.19.01l-.43,1.47c-1.94.73-3.7,2.12-4.28,4.79-2.4-3.69-.66-2.58-4.45-4.8-.25-1.06-.72-1.47-1.81-1.61l-1.89-4.07,2.87-1.02-2.85-1.04-.11,2.25-1.88-1.32c1.93-.94,2.48-2.17,3.19-3.87.52-1.26.48-1.91-.31-3.47l1,.14c.92.13-.22,1.36.61,1.81.16.09.88,0,.86-.18l-.15-1.27c2.36-.46,3.71-1.85,4.74-4.56,2.39,6.31,5.19,2.64,4.39,5.98l1.73-.06,1.5,3.61c.32.76,1.31,1.34,2.24,1.85l-1.81,1.23Z"/>
      <path d="M21.31,47.86l.99-.25c.15-.04-.13-.67-.26-.77l-1.68-1.35-2.24,1.78-.49,1.13c-.58,1.33-.66-2.27-1.71-1.65-.23.13-.6.72-.6,1l.08,6.87c0,.32,1.17.28,1.25-.01l.3-1.13c.07-.25.93.09.99.35l.22.93c.69.27,1.17.55,2,1.24l1.73-.94c.26-.14.77-.94.5-1.01l-1.04-.25c-.38-.09-1.1-.24-1.04-.5.06-.26.49-.73.74-.86l.94-.49c.1-.06-.29-.69-.41-.71-.56-.07-1.74.46-2.18.89l-1.98-.58c-.45-.13-.97-.44-.94-.81.07-1.12,1.33.05,2.78-1.4.35.54,1.35,1.09,2.05,1.04.25-.02.99-.61.81-.73l-.84-.55c-.29-.19-.7-.57-.85-.82-.12-.2.67-.38.91-.44Z"/>
      <path d="M13.38,33.32c-.48-2.19-.83-4.51-2.91-5.42,1.85,5.21,2.21,10.22.65,15.3,1.42-.55,1.74-1.59,2.41-2.66.51,1.09.89,2.1,2.19,2.58-1.42-5.13-1.06-10.14.6-15.12-2.17,1.16-2.15,3.4-2.93,5.32Z"/>
      <path d="M15.54,56.74c-.4-1.08-.75-2.1-.75-2.9l.08-8.35-2.92-.04.03,9.94-.53,1.71c1.39.81,3.42.69,4.07-.35Z"/>
      <path d="M15.79,44.66l-2.33-2.45c-.78.94-1.34,1.38-2.5,2.2,1.48.7,3.29.8,4.83.25Z"/>
      <polygon points="13.42 60.45 15.11 58.15 11.92 58.12 13.42 60.45"/>
      <path d="M4.17,7.66c-.6,1.2-1.1,2.41-1.47,3.58,1.53-.87,1.84-2.11,1.47-3.58Z"/>
      <path d="M24.15,11.2c-.25-1.44-.7-2.58-1.4-3.58-.27,1.43.23,2.76,1.4,3.58Z"/>
      <path d="M2.65,17.55c.42,1.33.93,2.53,1.49,3.66.26-1.72-.04-2.95-1.49-3.66Z"/>
      <path d="M22.93,20.89c.59-1.09.94-1.96,1.27-3.35-1.18.51-1.78,1.88-1.27,3.35Z"/>
      <path d="M15.71,12.02l-2.14-1.99-1.5,1.09c.86-1.54,1.61-2.33.92-3.72l-2.76,2.34c-.51.43-1.15,1.86-1.13,2.5l.14,5.35c.66-.17,1.45-.82,1.45-1.28l.03-3.61c0-.5-.68-1.38-.97-1.72.29.09.89.54,1.17.43l1.24-.5c-1.8,1.83-1.4,5.83.26,7-.91-.4-1.36-.64-1.7-.7-.34-.05-.9.79-1.03,1.09l3.47,2.9c.25-1.29-.07-2-.63-3.19l1.04.69,2.15-2.13v-4.54Z"/>
      <path d="M17.36,10.38l-3.58-3.04c-.47,1.89.54,3.38,2.55,4.11l-.04,4.11c-.01,1.06.4,1.89,1.55,1.91l.02-6.16-1.46.31.96-1.24Z"/>
      <path d="M15.86,17.3l-.98.66c-1.07.73-1.6,1.87-.83,3.14l3.16-2.8c-.42-.53-1.08-1.19-1.35-1Z"/>
    </g>
  </g>
</svg>