<?xml version="1.0" encoding="UTF-8"?>
<svg id="Warstwa_2" data-name="Warstwa 2" xmlns="http://www.w3.org/2000/svg" viewBox="0 0 44.86 60.7">
  <g id="icon-v10-loot-pixarts-store">
    <g id="icon-v10-loot-pixarts-store_129">
      <path d="M41.21,35.77c-2.02-1.1-1.85-3.14-1.22-4.9,1.35-3.8,3.86-4.1,3.29-5.88-.14-.45-.65-1.13-.92-1.45-.75,1.03-1.72,1.95-2.66,1.86-1.06-.1-2.31-1.1-2.46-1.91-.62-3.43,4.53-3.92,6.02-6.28,1.81-2.89-.6-6-3.43-7-.95-.33-2.26-.94-2.5-1.65-.26-.79.1-2.3.39-3.24-1.5.45-3.01,2.85-1.64,4.43.94,1.08,3.11,2.27,3.5,3.63.76,2.65-1.78,4.42-3.94,4.49-2.74.08-4.45,2.58-4.8,4.66-.18.28-1.47.22-1.54-.15-.06-.29-.08-.97,0-1.25l.68-1.7c-2.69.31-4.59-.6-6.33-2.17l.44-4.43c-.78-.4-2.58-.38-3.34.05l.45,4.65-5.07,2.62,3.93.67-7.24,3.25-.78-1.89-3.54.14c.46-5.31,2.81-.97,3.33-7.5-3.28,4.5-4.1,1.75-4.98,6.47l-1.55,8.27c1.28-.74,1.1-1.73,2.8-1.86l-3.78,8.42c-.62-1.63-.49-2.15-.59-3.55l-3.74,6.02,3.79,6.12.02-3.02c0-.22.72-.48.8-.28l.29.71c.93,2.28,1.86,4.34,3.05,6.84l-1.43,2.03-2.78-1.7c.06,1.71.41,3,1.24,3.94.91,1.04,2.42.98,3.88,1.22l3.33,1.15c1.3-2.82,5.41-.14,7.49.95l-3.47.59,6.37,3.56,6.34-3.66c-1.72-.24-2.44-.31-3.57-.63,3.11-1.58,4.99-2.44,8.13-3.4l-1.61,2.77,6.59-1.94,1.66-6.14-2.61,1.69c1.04-3.59,1.71-5.62,3.59-8.7l.38,3.97,3.39-6.06c-1.02-2.02-2.23-3.93-3.44-5.69l-.21,2.87ZM30.77,49.38c-4.36,2.29-9.52,1.61-13.2-1.57,1.7,3.18,5.15,4.11,8.88,4.44-3.67,1.35-7.51.38-10.39-2.22-2.62-2.37-4.3-5.78-3.85-10.04-1.42,2.08-1.12,4.58-.5,7.5-2.48-2.2-3.19-5.46-2.74-8.65.43-3.03,2.44-5.45,5.18-7.12-3,.61-4.18,3.16-5.73,6.1-.19-4.46,4.25-11.03,10.31-11.19,3.62-.1,6.68,1.59,8.78,4.58-.85-3.69-3.86-5.52-7.42-6.58,3.19-.81,6.29-.02,8.87,1.81,2.46,1.74,3.27,4.45,4.18,7.93.17-1.56.03-3.05-.14-4.94,2.14,3.36,2.43,8-.18,11.27-1.7,2.12-4.37,3.44-7.16,2.37,2.24-1.28,4.05-3.35,4.48-5.38.67-3.11.07-5.91-1.81-8.02l.61,5.04c.19,1.61-.93,3.33-2.07,4.2.02-2.49-.58-4.54-2.14-5.97-1.81-1.66-4.2-2.39-6.73-1.54,2.14.41,4.17,1.08,5.21,3.06-2.71-.55-5.07-.28-6.96,1.61-1.55,1.55-2.56,4.03-1.87,6.32,1.07-2.36,1.66-4.28,3.98-5.17-.96,2.62-1.77,5.47.28,8.02,1.44,1.78,3.8,2.73,5.98,2.84-2.4-1.17-5.01-2.64-4.59-5.65,2.74,2.82,6.39,3.73,10.1,2.86,3.33-.78,5.27-3.71,6.41-7.12.57,4.51-1.88,9.17-5.78,11.22Z"/>
      <path d="M28.74.02c.07,5.3-2.34,9.66-4.19,14.63C28,13.37,33.95-.58,28.74.02Z"/>
      <path d="M20.4,14.42c-.9-3.56-4.06-6.72-4.12-13.65l-1.32,1.71-.94-.19c.75,4.58,2.58,8.55,5.34,11.91.19.23,1.11.49,1.04.22Z"/>
    </g>
  </g>
</svg>