<?xml version="1.0" encoding="UTF-8"?>
<svg id="Warstwa_2" data-name="Warstwa 2" xmlns="http://www.w3.org/2000/svg" viewBox="0 0 58.15 55.69">
  <g id="icon-v10-loot-pixarts-store">
    <g id="icon-v10-loot-pixarts-store_164">
      <path d="M39.58,4.09c-7.49,4.86-14.84,10.53-20.47,17.27-4.42,3.36-7.83,7.37-11.1,11.73-3.44,4.59-10.21,14.22-7.31,19.92,2.88,5.65,11.87,1.02,15.74-1.5,11.78-7.67,23.08-18.85,32.48-29.36,3.17-3.54,11.31-14.41,8.72-18.98-3.61-6.37-13.3-1.55-18.06.92ZM43.37,7.07l6.98,1.03c-5.17,3.88-9.89,1.45-15.14,2.12,1.84-2.3,4.99-3.62,8.15-3.15ZM32.23,18.07l-1.33-2.43c2.35-.43,4.39-.52,6.29.6,1.42.84,3.71.23,5.62.73-8.47,6.22-11.96,1.97-20.16,3.59,3.87-3.19,3.91-3.76,9.58-2.49ZM10.86,50.77c3.18-2.18,6.76-4.25,10.62-6.08-2.93,2.65-6.08,5.25-10.62,6.08ZM5.83,40.95c2.88-3.2,6.17-5.2,10.13-2.96l-.44-1.33,6.66,1.04c-5.02,4.07-10.12,2.59-16.34,3.25ZM13.21,30.9c3-4.75,7.72-3.79,12.22-2.92l-3.25-2.18c3.77-.66,6.19,1.62,11.49,1.11-7.69,6.5-12.39,2.18-20.46,3.99ZM46.85,20.8c-2.16,2.12-3.95,4.36-5.94,6.61-3.92,4.44-7.87,8.64-12.99,11.94l7.45-8.27c1.5-1.66,3.16-2.73,4.77-4.12,1.37-1.18,4.49-6.06,4.79-6.31,1.6-1.35,3.05-2.72,4.3-4.32l3.08-3.96c-.9,3.28-2.95,5.97-5.47,8.45Z"/>
    </g>
  </g>
</svg>