<?xml version="1.0" encoding="UTF-8"?>
<svg id="Warstwa_2" data-name="Warstwa 2" xmlns="http://www.w3.org/2000/svg" viewBox="0 0 58.51 60.1">
  <g id="icon-v10-loot-pixarts-store">
    <g id="icon-v10-loot-pixarts-store_51">
      <path d="M51.11,27.94c.43-.28,1.7.3,2.13.67,1.68,1.46.81-.91,3.9-.46-.33-2.01-1.38-4.21-3.34-5.63-.81.58-1.23,1.93-1.59,3.07-.75-.23-2.02-.67-2.73-.75-.83-.09-2.32,1.92-2.05,2.73,1.63,4.94.35,10.37-4.06,13.6l2.47,1.79-.57,2.7,2.36.74c.55.17.56,1.57.83,2.54,1.68-1.13,3.45-2.64,4.35-4.38.25-.49.05-1.92-.4-2.19-1.3-.76-3.4.46-3.37-.24l.07-1.46c.03-.57-.1-1.78-.58-1.97l-1.97-.76,3.5.26.36,2.8c.96-.1,2.36-.26,2.65.24l1.13,1.94c1.62-1.59,3.73-7.32,1.37-7.26-1.79.04-2.69,1.95-2.91,1.1l-.32-1.21c-.13-.5-.75-1.58-1.22-2.04-.37-.36-1.25-.2-1.94-.05l1.73-.98c.31-.18,1.15.44,1.37.73l1.47,1.88c.65-.3,1.81-.95,2.16-.59l1.37,1.4c.54-1.75,1.01-4.17.37-5.88-.16-.43-1.22-1.42-1.54-1.13l-1.16,1.07-.99.92c-.2.19-.63-.64-.8-.9-.72-1.15-1.58-1.39-3.16-.87.21-.43.68-1.19,1.11-1.47Z"/>
      <path d="M19.9,16.42c3.23,2.26,7.05,3.04,10.8,3.12l-.66-1.76c-.09-.24.64-.79.76-1.03.09-1.27-1.26-2.62-2.91-2.44-4.21.46-8.45-1.94-10.08-5.77-1.22-2.85-.38-5.69.43-8.55-4.84,4.61-3.89,12.55,1.67,16.42Z"/>
      <path d="M15.76,51.73c-.48-2.56-3.31-2.93-5.19-4.02,2-.78,4.61.14,5.79-1.76.96-1.54-1.11-3.42-2.59-3.81l-4.69-1.23.77,3.17-3.03,2.03,1.9,3.27c.39.66-.97,1.83-1.87,2.68l5.52,1.55c1.11.31,3.61-.68,3.39-1.89Z"/>
      <path d="M24.76,52.79c-1.02-1.54-2.52-2.44-4.25-3.31,1.64-.36,3.79-.99,4.07-2.73.11-.71-.93-2.36-1.69-2.51l-5.68-1.12c.36,1.1.83,2.6.73,3.41l-2.52,2.06,2.19,3.33-1.79,2.07c3.76.67,6.86,2.38,8.94-1.21Z"/>
      <path d="M7.37,49.93c-.88-2.66-2.67-3.86-5.5-4.45,1.54-.79,5.28-.15,6.21-2.09.35-.74-.53-2.73-1.28-3.06-1.2-.52-2.95-.86-4.52-1.25-1.33,3.96-3.59,7.59-1.27,11.23,3.14,1.56,3.86,1.55,6.37-.39Z"/>
      <path d="M39.88,50.37l-3.55-1.4c.9-.72,2.22-1.71,2.21-2.53-.06-3.63-5.87-1.63-7.51-1.67l-6.08-.18.91,3.18-2.12,2.1c.68.76,1.52,1.71,2,2.69.28.56-.71,1.73-1.27,2.41,2.17.29,7.65,1.13,7.72-2.52l-3.06-2.21c1.23-1.02,2.4-2.11,3.64-3.37.22,1.01-.67,2.33-1.47,3.18l1.95,2.23c.33.37-.11,1.45-.49,2.47,1.64-.23,3.52-.54,5.37-.9,1.55-.3,2.55-2.14,1.74-3.48Z"/>
      <path d="M42.74,41.77l-4.97,2.24c.86.78,1.65,1.45,1.92,1.96.26.52-.34,1.7-.74,2.51l2.68,1.72-.09,2.47,4.52-2.03c.87-.39,1.44-2.99.66-3.37l-3.19-.81c.41-.97.97-2.32,1.08-3.26.07-.56-1.43-1.54-1.87-1.43Z"/>
      <path d="M1,52.2l1.68,5.36,5.89,1.12c.53-1.64.44-3.95-.73-4.59-2.1-1.13-4.28-1.53-6.84-1.89Z"/>
      <path d="M48.92,23.91c.44-.4,2.12.14,2.46.15.46-1.29.92-1.91,2.2-2.55-1.6-1.44-2.83-2.46-5.14-3.58.02,1.42.11,1.99.3,3.46l-3.01-.22-1.06,2.91c-.19-.84-.14-2.42.05-3.44l2.59-.65c-.22-1.26-.2-1.89.94-2.72l-5.76-2.03c-.16,1.38.25,2.11.99,3.18l-2.7.81c.33,4.22,2.99,3.12,6.18,7.39.48-.79,1.33-2.18,1.95-2.73Z"/>
      <path d="M17.2,55.83l-7.1-1.44-.18,4.33c2.49.75,4.52.99,7.35.96l-.06-3.84Z"/>
      <path d="M37.04,20.71l3.54.92c-.27-1.61-.48-2.38-.31-2.84.14-.38.93-.82,1.28-1.12l-.4-2.64c-1.37-.36-3.05-.6-4.7-.51.17,1.04.62,1.61,1.47,2.62l-2.27,1.16c-.2.75.57,2.19,1.37,2.4Z"/>
      <path d="M25.92,59.76c.87-.22.54-3.06-.25-3.17-2.18-.29-4.27-.45-6.59-.6-.4,1.17-.55,2.68-.02,3.67,2.1.44,4.56.67,6.86.1Z"/>
      <path d="M27.65,56.48l.22,3.52,6.37-.9c.91-.13.84-2.96.02-2.92l-6.6.3Z"/>
      <path d="M32.26,16.66l-1.42,1.21c-.31.26.38,1.5.75,1.66.86.36,2.7.63,3.57.71-.26-.95-.64-1.86-.32-2.17l1.14-1.11-.78-2.61c-1.06-.13-2.82,0-4.4.25l1.47,2.06Z"/>
      <path d="M36.74,58.25c2.56-.24,4.34-.93,6.4-1.87.53-.75-.23-2.79-1.08-2.53l-5.51,1.67c-.68.22-.52,2.8.19,2.74Z"/>
      <path d="M18.87,41.93l1.75-5.43c-2.8.44-4.61,1.95-6.62,4.17l4.87,1.26Z"/>
      <path d="M5.83,38.28l4.59,1.3,2.57-5.25c-2.87.6-5.19,1.7-7.16,3.95Z"/>
      <path d="M45.19,55.2c1.91-.61,6.2-2.8,5.25-4.76-.13-.27-.96-.48-1.24-.32l-4.94,2.94c-.43.37.34,2.33.93,2.14Z"/>
      <path d="M27.86,38.14c-2.4.88-3.87,2.08-5.36,4.28l4.53.69.83-4.97Z"/>
      <path d="M52.34,50.12c1.47-1.43,4.1-3.74,3.29-5.2-.13-.23-.84-.31-1.05-.13l-3.62,4.1c-.22.45,1.03,1.58,1.39,1.23Z"/>
      <path d="M34.07,43.02l-.19-4.28c-1.85,1.33-2.72,2.44-3.95,4.38l4.14-.1Z"/>
      <path d="M39.69,37.52c-1.44,1.65-2.02,2.8-2.58,4.8l3.52-1.11-.94-3.69Z"/>
      <path d="M44.92,36.52c-.62-1-1.37-1.56-2.02-2.03-.33,1.71-.28,3.16.09,4.8.95-.46,2.42-2,1.94-2.78Z"/>
      <path d="M43.36,25.43c-.78-.13-1.91.75-2.69,1.54,1.49.49,2.71.68,4.6.73-.37-1.04-.99-2.12-1.9-2.27Z"/>
      <path d="M46.57,33.85l.19-3.51-3.36-.29c.96,1.64,1.59,2.51,3.17,3.8Z"/>
      <path d="M55.82,43.79c.02.21.84.29.94.13.9-1.36,1.8-4.06,1.74-5.88l-2.57,4.82c-.1.19-.13.72-.12.93Z"/>
      <path d="M37.43,22.36l-1.52,2.68c1.9-.4,2.68-.63,4.66-1.51l-3.14-1.16Z"/>
      <path d="M31.58,21.71c-.57.27-.91,1.23-1.18,2.25,1.6-.48,2.7-.99,4.04-1.97-.81-.4-2.12-.63-2.86-.28Z"/>
      <path d="M26.38,20.65c-.51.26-.84,1.19-1.17,2.11,1.48-.3,2.45-.76,3.71-1.63-.7-.41-1.95-.77-2.54-.47Z"/>
      <path d="M21.48,19.05c-.35.18-.77.74-1.24,1.38,1.36.05,2.17,0,3.37-.23-.86-.81-1.72-1.36-2.13-1.15Z"/>
      <path d="M15.93,17.08c1.26.5,1.91.61,3.24.53-.68-.85-1.4-1.48-1.84-1.4-.38.07-.91.47-1.4.87Z"/>
    </g>
  </g>
</svg>