<?xml version="1.0" encoding="UTF-8"?>
<svg id="Warstwa_2" data-name="Warstwa 2" xmlns="http://www.w3.org/2000/svg" viewBox="0 0 56.25 54.13">
  <g id="icon-v10-loot-pixarts-store">
    <g id="icon-v10-loot-pixarts-store_235">
      <path d="M9.91,24.17c3.06,1.26,5.76,2.35,8.94,3.33.48-2.81-.66-9.78-2.93-11.61-1.81,2.1-.87,4.24-.81,6.97l-.97-2.21-1.93,1.34,1.62-2.41,1.27-4.95-1.43-4.33-5.02-1.98-.37,3.87-1.35-5.81,3.12.95c1.48.45,3.23,1.63,4.82,1.81,2.18.24,3.8-.49,5.9.37l-5.48,1.03c.41,2.89,2.34,5.37,3.92,7.79-.24,4.85.99,3.7.77,9.43l12.57-2.52c.1-.44.31-1.49.51-1.85l4.22-7.57c.9.57,6.82,7.02,6.37,7.14l.93-.24c1.71-.44,3.86-.58,5.32-1.54,2.09-1.38.32-5.45,6.21-5.17l-3.12,1.56c-.97.48-1.63,2.48-2.25,3.74l5-1.07c.38-2.51,1.31-5.17-.85-6.46-.16-.1-.25.29-.32.47l-.34.87-.43-6.38-5.94-7.51c-5.55-.21-6.5.11-11.89-1.22l-7.45,2.71c1.28.58,2.23,1,3.17,1.67l-12.08-2.39-8.68,3.16c-1.56.57-3.38.56-4.83,1.27-2.89,1.42-2.41,5.14-6.08,7.92l.46,5.95,9.45,3.88ZM47.12,2.13c-.76.94-1.67,2.13-1.97,3.49l2.26,3.16c1.96.51,3.58.37,5.54,1.54h-5.6s-3.41,7.07-3.41,7.07l1.25-5.15c-1.05-.25-2.09-.08-3.65.1.96-.79,2.26-1.18,3.77-1.22.35-.27.77-1.71.5-2.24l-1.97-3.85c.79-1.19,2.08-2.26,3.27-2.91ZM43.78,5.32c-2.82,1.17-5.23-.03-7.64-.34,2.61-.24,5.12-.53,7.64.34ZM26.12,5.59c-.56,1.41-1.56,2.47-3.2,2.88l3.2-2.88ZM22.15,9.58c2.29.97,3.54,3.62,5.91,5.05,1.1-2.04,1.81-3.5,3.14-5.35l-1.86,5.79c.85,1.36,1.57,2.5,2.2,3.82l-4.9-3.64c-2.95.99-3.61,3.57-4.95,6.01l.98-4.4,2.9-2.47c-1.36-1.67-2.51-2.81-3.43-4.83ZM5.22,15.27l2.51-1.26c-.31.85-1.69,1.74-1.79,2.47l-.51,4.02c-.24-2.46-.97-4.31-2.18-6.86l1.96,1.64Z"/>
      <path d="M29.72,27.41l-2.47,7.8-2.39-4.45-.96,2.64-1.3-.08-2.59,8.46,3.98,4.4c.94,1.03,2.74,1.56,4.1,1.25.43-1.72.66-3.18.86-5.22l-3.39,2.98c.82-1.3,1.79-2.59,2.9-3.74l2.3-2.39c.77-.8,2.15-1.56,3.26-1.99l-3.32,3.11-1.46,6.97,2.05.37c1.77.73,3.56,1.33,5.26,1.49.34-1.99.92-2.91,2.15-4.69.9.88-2,2.76-1.46,4.28,6.44-1.36,4.71-1.27,9.23-5.56l-1.52-5.94,5.47,2.13,2.83-5.57c.13-.25,1.19-5.61-.38-6.55l-1.29.94-1.17-1.89-2.42,6.57c-1.24-2.91-1.91-5.66-2.69-8.41-.14-.51-1.95-.31-2.02.21l-.9,6.02-2.42,3.03,1.45,1.25c-.46.2-.75.39-.91.25l-.67-.61c-.23-.21-1.13.32-1.14.64-.11,2.61.69,1.3.37,4.52l-2.06-5.72c-.85-.42-2.74-1.2-2.9-2.02l-1.09-5.35-3.3.9Z"/>
      <path d="M13.06,49.53l.7-4.15,2.42,1.21,2.57-3.48c.62-.84.5-1.72.12-2.66l-3.34-8.34-1.68,1.53-1.57-3.66-2.6,6.63-3.11-10.78-2.45,3.15c-2.85.67-1.03,9.57.75,11.27.98-.95,1.78-1.66,2.57-2.14.49,2.01.36,3.78,1.01,5.13l1.98,4.13c.52,1.08,1.32,2.34,2.63,2.16Z"/>
      <path d="M23.48,47.71l-3.61-4.58c-1.24,2.23-1.93,3.74-3.86,4.59-.34.15-.72.35-.86.21l-.67-.69-.97,3.9,5.44,2.92c.58.31,2.15-.34,2.71-.48l5.2-1.27c2.46-.6,4.71-1.45,7.23-2.39-3.97-2.86-9.06-.24-10.61-2.2ZM18.99,51.17l.66-4.38.09,5.85c-.55-.43-.82-1.01-.75-1.47Z"/>
      <path d="M7.46,24.36l2.24,8.99c.65-.26,1.76-7.77,3.28-4.12l1.12,2.68,1.63-1.88c1.73,3.32,2.72,6.23,3.83,9.7l2.46-8.14c.5.24,1.17.83,1.28.6l.41-.92c.35-.78.69-1.31,1.31-2.18l2.18,3.95,1.41-6.02-9.33,2.25-11.84-4.91Z"/>
      <path d="M35.23,31.23l3.26,2.43,3.17-3.65.89-6.95-3.85-4.43-.36,1.46-.97-2.46c-5.43,8.74-3.07,6.59-2.68,9.56l.53,4.04ZM38.83,24.1c.63-.12,1.67.94,1.42,1.59-1.11,2.82.65,5.13-1.16,4.54l-1.21-.4c.24-1.49.06-2.85-.34-4-.19-.53.78-1.63,1.3-1.73Z"/>
      <path d="M53.99,34.51l-4.88,9.85-2.26-.28c-1.15,1.12-2.13,2.14-3.03,3.37,4.26-.07,7.36-1.15,11.04-2.14.34-3.77.33-7.04-.89-10.8Z"/>
      <path d="M55.98,21.6c-3.3-.02-5.61,1.37-9.83,1.67.36,2.25.92,4.57,1.72,6.86l2.32-5.57,1.65,1.94,1.14-1.22,2.08,3.18.91-6.85Z"/>
      <path d="M7.55,43.53l-.73-3.56c-1.82,1.11-2.24,2.41-2.12,4.24-.67-2.46-1.3-4.57-2.45-7.08-1.46,1.01-.93,6.65-.56,7.86l8.03,3.43c-.63-1.75-1.31-3.11-2.17-4.9Z"/>
      <path d="M4.38,27.43l.96-3.48c-1.83-.99-3-1.57-4.87-2.31.28,3.29.6,5.3,1.25,8.22l1.53-3.03,1.12.6Z"/>
      <path d="M49.5,40.04c-.48-.77-2.11-1.22-3.09-1.34l1.37,4.58c1.43-.55,2.43-2.09,1.71-3.24Z"/>
    </g>
  </g>
</svg>