<?xml version="1.0" encoding="UTF-8"?>
<svg id="Warstwa_2" data-name="Warstwa 2" xmlns="http://www.w3.org/2000/svg" viewBox="0 0 50.56 57.27">
  <g id="icon-v10-loot-pixarts-store">
    <g id="icon-v10-loot-pixarts-store_334">
      <path d="M11.89,30.83c-4.82.15-4.83-2.32-5.26-2.05-.32.21-1.22,1.12-1.2,1.57l.3,8.43c.07,2.04.59,2.71,1.58,4.21,2.14,3.24,4.33,5.41,7.94,7.84l-3.91-1.35.05,6.39c1.95.03,3.3.06,4.89-.19l7.64-1.16c.83-6.77,3.87-.65,4.35-9.29,2.64-1.81,5.47-3.34,8-5.27,1.42-1.08,2.76-4.22,2.67-5.99-.16-3.12-1.73-5.45-2.52-8.62,2.1,1.86,2.65,4.23,4.19,6.85,8.66-8.06,2.72-10.82.36-21.95l-3.92,4.78-.84,8.18-.83-7.6-3.54-3.12-2.01,2.36c.16-2.1.13-3.54-.41-5.39l-3.18.74,1.59-1.94.03-6.9-5.77,6.16-2.26,5.97-5.92,6.4c2.04,3.84,1.09,8.17-1.98,10.93ZM31.31,38.43l-6.11,3.59c-3.09,1.82-2.93,5.23-2.65,5.27l1.16.15-1.81,2.58c-2.74-5.68-1.26-5.35,1.37-9.74-.72-1.13-1.56-2.42-1.73-3.7,2.7,1.53,5.08,2.1,7.76.69,2.53-1.33,4.24-3.61,5.12-6.35.92,3.02-.56,6.01-3.12,7.52ZM26.18,15.64c-1.04,5.58,2.01,5.73,4.68,10.8l-.04-3.93c2.58,3.42,2.55,7.81-.44,10.83-1.18,1.19-3.21,1.54-4.49,1.26,2-1.9,3.78-4.13,2.48-6.82-.53-1.09-2.01-2.29-2.89-2.44-4.91-.82-7.85,10-6.3,15.26-1.71-2.37-2.56-4.8-3.25-8.24l-1.6,2.82c-.14-4.37,2.6-8.16,6.37-10.6,4.8-3.11,1.5-6.85,5.49-8.95ZM21.51,17.2c.31.77.72,2.85.22,3.65-.71,1.14-2.57,1.85-3.78,2.24,1.68-2.04,2.98-3.61,3.56-5.89Z"/>
      <path d="M43.95,37.7c.68-.16,1.71-.21,2.09-.02.38.19.44.92.77,2.39-1.79-4-4.19,1.11-6.45-3.01-1.85,2.14-1.98,5.28,0,7.63,2.08,2.47-1.95,5.94-2.21,10.21l12.41-10.76-1.48-9.78c-.26-1.73-2.13-3.42-3.25-4.55l-4.91,4.55c-.63,1.15,1.75,3.63,3.02,3.32Z"/>
      <path d="M36.87,42.11l-7.41,3.55-.73,4.4c-1.76,1.36-3.14,2.19-3.47,4.79l10.51,2.42c.87-4.46,1.7-6.78,3.18-10.18l-2.08-4.99Z"/>
      <path d="M35.66,14.43l4.5-5.22L29.38,1.12c-.6,3.5-.61,7.42,2.01,9.95,1.14,1.11,2.77,2.13,4.27,3.36Z"/>
      <path d="M9.92,49.14l-2.36-4.23c-.46-.82-1.61-2.08-2.6-2.41-1.81.83-3.45,2.07-4.96,3.75,3.27,3.39,6.26,5.87,10.17,8.42.15-1.68.5-4.18-.25-5.53Z"/>
      <path d="M10.14,25.69l-5.71-2.08c.5,2.19,7.27,8.18,6.89,5.34l-.22-1.62.84.63c.19.14.64-.29.56-.51,0,.02-8.1-12-9.76-13.07l.62,7.77c2.47,1.07,4.68,1.99,6.78,3.54Z"/>
      <path d="M10.74,23.45l.47-.67c.41,1.49.89,2.75,1.69,4.03.9-1.75.75-3.67-.27-5.38-3.24-5.4-1.34-4.37-8.46-7.48l5.94,8.72c.14.21.52.94.64.77Z"/>
      <path d="M9.86,7.15l3.35,10.71c.91-.67,2.72-2.15,2.62-3.06-.58-5.45-1.32-6.22-5.97-7.65Z"/>
      <path d="M17.13,13.63c.73-.26,2.17-1.58,1.99-2.28l-1.65-6.61c-.39.57-.65.95-.76,1.11,0,0,0,0,0,0-.09.13-.08.12,0,0-.19-4.03.34-2.79-3.29-5.53.36,2.11.85,4.03,1.48,6.09l2.23,7.22Z"/>
      <path d="M16.71,5.85s0,0,0,0c-.08.12-.09.13,0,0Z"/>
      <path d="M4.59,40.18c.56-1.9-.23-4.02-.73-5.97-1.44,3.3-2.73,6.46-3.86,10.14,1.66-1.01,4.02-2.26,4.59-4.18Z"/>
      <polygon points="12.14 0 9.68 5.89 14.38 8.02 12.14 0"/>
    </g>
  </g>
</svg>