<?xml version="1.0" encoding="UTF-8"?>
<svg id="Warstwa_2" data-name="Warstwa 2" xmlns="http://www.w3.org/2000/svg" viewBox="0 0 57.44 57.55">
  <g id="icon-v10-loot-pixarts-store">
    <g id="icon-v10-loot-pixarts-store_18">
      <path d="M44.85,7.91c-.15-2.63-.9-5.72-2.51-7.83-3.84-.39-7.8.68-10.06,4.05l4.08.11c-1.27.55-3.08,1.51-4.53,1.24-2.63-.49-5.5-.41-6.79,2.4,3.69.63,7.01,3.67,6.74,7.4-.18,2.36-.29,4.51-.32,6.6.99-.66,1.66-1.2,2.45-1.31.52-.08,1.52,1.11,1.37,1.61l-.65,2.17c4.75-1.15,8.04-5.92,12.77-1.64l3.27,1c.95,1.53,1.49,2.93,2.21,4.67,2.28-2.59,2-6.26.08-9.22.08-1.8.33-3.68.75-5.45l.55,4.44c.06.47.66,1.44,1.09,1.62,3.29-2.55,2.17-8.54.25-11.47-3.76-.73-7.29-.96-10.75-.4ZM33.77,15.86l-1.08-4.29c1.98.54,1.85,2.78,1.08,4.29ZM39.95,18.74c1.97-1.19,5.01-1.83,6.87.51-2.36-.5-4.22-.76-6.87-.51Z"/>
      <path d="M31.72,46.07l-2.85.08,2.94,2.89c-3.46,3.41-6.9,5.84-10.75,8.51,8.11-.41,16.17-3.49,21.51-9.45,3.54-3.94,4.55-13.62,7.56-19.41.32-.61.61-1.77.24-2.2-.38-.44-1.31-.8-1.84-1.14l-3.19-2.02c1.99,5.11-.26,8.49-1.91,13.12-.09-4.96,3.5-9.47-1.3-13.42-1.11.39-2.51,1.05-3.49,1.57l.41,3.2c.38,3.01-1.61,4.76-4.67,5.2l3.55,2.15c-2.24,1.11-3.38,1.48-5.6,2.25l4.8,1.67c-.65,1.28-1.62,1.99-2.83,2.22l-2.98.58c1.54,1.14,2.73,1.46,4.47,1.97-.78,1.56-2.37,2.17-4.08,2.22Z"/>
      <path d="M10.58,33.17c-.31-1.66-.33-7.05,1.11-6.02.22.16.57.48.79.77l2.3,2.88.82-5.07c.09-.53,1.6-.87,1.81-.43.6,1.32,1.41,2.84,2.06,3.6.65-2.73.48-4.15,1.91-5.46l1.93,2.61c1.41-4.77,1.31-5.13,6.11-5.99.44-.42.61-2.34.12-2.89-.88-1-2.7-1.16-3.8-.71l-9.71,3.96c3.42-2.2,10.15-6.53,14.01-5.59.18-1.53-2.75-4.26-3.73-4.87-.88-.55-4.19,2.35-7.2,3.8l-11.01,5.32c-2.19,1.06-3.36,3.87-4.48,5.98C.61,30.71-.61,36.88.29,43.01c2.11-4.53,4.23-8.39,7.29-12.07l3,2.23Z"/>
      <path d="M51.03,5.77c-1.76-1.55-3.06-2.44-5.24-3.24-.19,1.67-.14,2.88.12,4.5l5.12-1.26Z"/>
    </g>
  </g>
</svg>