<?xml version="1.0" encoding="UTF-8"?>
<svg id="Warstwa_2" data-name="Warstwa 2" xmlns="http://www.w3.org/2000/svg" viewBox="0 0 52.25 60.27">
  <g id="icon-v10-loot-pixarts-store">
    <g id="icon-v10-loot-pixarts-store_289">
      <path d="M31.07,41.94c-.23-1.42,2.05-6.73-3.16-8.69-.04-1.65.22-3.44.44-5.04l.79-5.73c-1.89-1.11-4.51-1.26-6.05.28l1.42,8.54c.24,1.45-.43,2.11-1.55,2.77-2.14,1.26-2.39,4.29-1.82,6.55.38,1.51-.31,2.24-1.8,2.71-1.1.35-2.71,2.41-2.57,3.55l.46,3.62c.28,2.22,3.51,4.1,5.52,2.84,1.23-.78.31-3.03-.61-3.37v2.52c-2.42.02-3.64-1.69-3.55-3.83.07-1.83,1.08-3.5,2.44-4.79l.4,4.17,3.19.44c.05,1.8,0,3.74-.49,5.41l-1.46,4.92c2.12,1.82,4.24,1.95,6.73.36.21-4.69-2.3-4.62-1.61-10.65l3.26-.74.06-3.84c2.71,1.97,3.4,5.38,1.53,7.77-.3.38-1.59,1.01-1.96.7-.37-.31-.62-.99-1.04-1.87-.33.39-.82,1.48-.7,2.05.11.5,1.36,1.23,1.88,1.17,1.69-.19,3.99-1.16,4.22-2.88l.51-3.79c.4-2.97-4.38-4.49-4.48-5.14ZM27.53,57.86c-.51.58-1.85.79-2.37.23-.62-.66-.75-1.81-.08-2.17.19.63.46,1.73,1.11,2.03.47.21.91-1.42,1.05-2.05.56.33.78,1.39.28,1.95ZM28.66,46.12l-4.98.09,1.01-5.67c-1.25-1.21-1.65-2.79-.9-3.87,1.09-1.57,3.16-1.57,4.21-.58,1.39,1.31,1.09,3.04-.38,4.49l1.05,5.54Z"/>
      <path d="M40.46,16.76C41.74,7.92,34.94-.14,25.97,0c-8.73.14-15.6,7.99-14.12,16.74l5.09-.96c-.64-6.06,3.89-10.49,9.43-10.42,5.61.07,9.52,4.76,9.1,10.75l4.99.65Z"/>
      <path d="M8.86,28.28l3.36,2.87c1.17-1.97.5,2.22,5.58,3.71.35-1.71-4.81-4.08-1.62-8.71l6.35-.24c.27-.74.19-2.41-.47-3.14l-13.17.03c-.57,1.74-1.26,4.44-.02,5.49ZM12.34,24.67c.97,0,1.75.78,1.75,1.75s-.78,1.75-1.75,1.75-1.75-.78-1.75-1.75.78-1.75,1.75-1.75Z"/>
      <path d="M43.56,28.08c.88-1.49.51-3.85-.25-5.37l-13.2.04-.38,3.18h4.85c1.16.01,2.31.87,2.49,2.12.36,2.58-1.05,4.2-2.89,6.5,2.07.63,3.63-2.28,6.03-3.82,1.02-.65,2.58-1.8,3.36-2.66ZM40.47,28.06c-.69.29-1.83-.13-2.15-.69-.43-.75.03-2.27,1.04-2.68.84-.34,2.04.49,2.27,1.23.21.69-.42,1.84-1.16,2.15Z"/>
      <path d="M40.97,53.13c1.58-1.76,2.52-3.16,3.4-5.44-3.25-2.29-6.35-4.01-10.22-5.02,4.72,6.63.77,6.9,6.82,10.46ZM40.21,47.09c.89,0,1.6.72,1.6,1.6s-.72,1.6-1.6,1.6-1.6-.72-1.6-1.6.72-1.6,1.6-1.6Z"/>
      <path d="M11.1,44.46c-1.86-4.59,1.68-11.52.31-12.64l-1.94-1.57-1.04,5.32c-.69,3.54-1.09,6.86.14,10.35,1.12-.48,1.99-.96,2.53-1.46Z"/>
      <path d="M42.8,30.16c-5.08,2.59.5,6.57-1.36,14.24.26.67,1.69,1.39,2.4,1.26,1-3.32.75-6.27.18-9.24l-1.22-6.26Z"/>
      <path d="M11.64,53.14c6.63-5.01,1-2.92,6.42-10.42-3.71,1.16-6.87,2.8-10.05,4.92.87,2.45,1.86,4.12,3.63,5.5ZM10.54,49.24c-.15-.78.48-1.78,1.49-2.23.55-.24,1.65.68,1.74,1.27.1.7-.44,1.91-1.05,2.11-.7.23-2.05-.51-2.18-1.15Z"/>
      <path d="M17.57,38.06c.55-.07,1.36.86,1.86,1.84l.65-2.97-2.64-.99c-.96-.36-2.06-.53-3.5-.83l2.2,2.22c-.71.41-1.9,1.1-2.65,1.13-.62.03-.82-1.79-1.15-2.52-.38.8-.12,1.99.04,3.15.19,1.41-1.48,3.15-.11,4.65.58-1.4,1.3-2.74,1.95-3.22.97,1.22,1.38,1.74,1.8,1.61.36-.11,1.01-.98.69-1.18-.49-.31-1.53-1.27-1.22-1.61.49-.53,1.53-1.21,2.08-1.28Z"/>
      <path d="M35.35,41.25c-.23.22.61.86.88,1.02.27.16.75-.27,1.06-.63l1.17-1.36,1.62,3.39c1.49-1.8-.21-3.22-.19-4.69l.26-3.01c-.4.8-.81,2.24-1.37,2.45-.74.28-2.34-.83-2.58-1.21l2.02-2.12-5.84,1.63c-.17.8.17,2.25.49,2.88.87-1.11,1.61-1.76,2.6-1.33.74.32,1.5,1.37,1.06,1.81l-1.18,1.17Z"/>
      <path d="M13.08,53.23c2.45,2.89,5.28,4.17,8.76,5.26l.52-2.87c-3.38-.94-4.99-2.08-7.31-4.1l-1.98,1.71Z"/>
      <path d="M37.05,51.67c-2.25,2-4.12,3.15-7.08,4.1l.65,2.84c3.65-1.39,6.07-2.67,8.51-5.2-.57-.78-1.53-1.62-2.08-1.75Z"/>
      <path d="M43.04,18.39c-.22-.21-.76-.51-1.14-.56l-6.82-1.07c-.4-.06-1.32.34-1.39.7-.07.36.58,1.18.97,1.24l7.51,1.2c.4.06,1.15-1.25.87-1.51Z"/>
      <path d="M18.14,18.37c.29-.08.5-1.36.23-1.45-.28-.09-.85-.22-1.19-.16l-6.99,1.05c-1.58.24-2.46,3.5,7.95.56Z"/>
      <path d="M30.73,32.73l-1.07-.31c-.21.38.62,1.77,1.13,1.69,1.49-.22,1.9-1.68,1.47-3.32l2.66.49c-.04-1-.22-2.81-.52-3.68-1.58-.53-3.4-.65-4.34.04,1.29.28,3.55.69,2.92,1.81-2.73,1.73-1.32,3.53-2.25,3.26Z"/>
      <path d="M50.32,40.25l-.08-4.15c0-.2-.43-.7-.56-.85-.13-.15-.75.61-.76.8l-.14,4.07c0,.26.32,1.22.53,1.1l1.41-.74-.04,5.3c1.93-1.72,1.56-4.17.73-6.28l-1.1.75Z"/>
      <path d="M21.47,34.27l1.48-1.53-1.39-.15c-.57-.06.36-.58-1.84-2.5-.24-.21-.65-.81-.76-1.09-.11-.28.71-.7,1.01-.8l2.09-.7c-1.14-.55-3.34-.57-4.2.59-.5.67-.45,2.47-.37,3.32l2.29-.76c-.11,1.79.36,3.16,1.7,3.62Z"/>
      <path d="M9.79,17.38c.31-.06.89-.79.66-1.04-.97-1.05-6.87,1.61-5.74,3.78,1.79-1.61,2.94-2.43,5.08-2.75Z"/>
      <path d="M46.16,17.26l-3.73-1.3c-.23-.08-.72,1.01-.48,1.07l.82.23c1.93.53,3.19,1.5,4.98,3,.08-1.2-.55-2.22-1.59-3Z"/>
      <path d="M10.29,20.13c-1.41.21-2.51.63-3.46,1.09.38-.71.55-1.53-.03-1.92l-3.17,3.44-1.11-.52c-1.55-.72-3.18,5.53-1.28,6.42.63-2.12.05-4.26,1.96-5.83l-.24,1.91,1.96-1.04c-.54,2.06-.94,3.43-.82,5.27,1.45-1.35,1.75-3.34,1.59-4.88-.42-.56-.71-.92-.52-1.13l1.06-1.17c1.47.25,3.4.15,4.07-1.64Z"/>
      <path d="M49.08,24.19l.25-.98c.71.94,1.18,1.77,1.27,2.56l.31,3.08c2.49-2.59-.58-7.86-1.46-6.4l-.49.81c-1.21-1.65-2.13-2.86-3.67-4.07-.22,1.01,0,1.59.29,2.33-.99-.7-2.22-1.39-3.75-1.05,1.29.93,3.29,2.62,4.13,1.2l2.56,3.02c.13.16.49-.3.54-.5Z"/>
      <path d="M2.67,26.78c-1.34,1.62-.92,6.31.2,6.6l.66-5.52c.03-.28-.72-1.24-.85-1.07Z"/>
      <path d="M2.27,41.12c.59,2.2,2.05-3.84.52-6.12-1.6,1.47-.97,4.44-.52,6.12Z"/>
      <path d="M11.65,20.94c-.14.2.74.55.99.54l3.31-.08c.24,0,1-.34.97-.57l-.17-1.03-4.08.43c-.28.03-.87.5-1.01.71Z"/>
      <path d="M35.55,21.34c1.74.13,3.72.6,5.26-.6-1.73-.42-3.75-.74-5.13-.89-.1.2-.19,1.44-.13,1.49Z"/>
      <path d="M49.29,26.96c-.55,1.4-.71,4.85.32,6.28,1.11.29.69-8.86-.32-6.28Z"/>
      <path d="M1.44,45.67l-.15-6.5c-1.96,2.23-1.38,4.84.15,6.5Z"/>
      <path d="M3.88,30.74l.07,6.32c1.98-2.08,1.57-4.48-.07-6.32Z"/>
      <path d="M1.24,30.76c-1.73,2.04-1.6,4.6.11,6.34.08-2.36.09-4.28-.11-6.34Z"/>
      <path d="M47.68,39.48c-.96,1.52-.91,5.58.41,5.9l.28-5.03c.01-.21-.58-1.05-.69-.88Z"/>
      <path d="M50.97,37.02c1.86-2.08,1.59-4.52-.07-6.24-.13,2.21-.12,4.25.07,6.24Z"/>
      <path d="M47.94,30.81c-1.59,2-1.2,4.61.15,6.07.38-2.47.4-4.23-.15-6.07Z"/>
      <path d="M2.68,43.55c-1.21-.31-.23,5.54.1,6.34.79-.4,1.02-6.05-.1-6.34Z"/>
      <path d="M48.67,44.81l.73,5.14c.92-2.27.77-4.13.42-6.39-.57.19-1.2.88-1.15,1.25Z"/>
      <path d="M3.95,39.38c-.05,2.21.09,4.15.39,5.99,1.22-2.14,1.43-4.51-.39-5.99Z"/>
      <path d="M46.63,23.56c-.33,1.99.12,3.77,1.44,5.24.5-1.85-.06-3.84-1.44-5.24Z"/>
      <path d="M12.42,27.51c.56,0,1.02-.46,1.02-1.02s-.46-1.02-1.02-1.02-1.02.46-1.02,1.02.46,1.02,1.02,1.02Z"/>
      <path d="M39.82,25.38c-.56,0-1.01.45-1.01,1.01s.45,1.01,1.01,1.01,1.01-.45,1.01-1.01-.45-1.01-1.01-1.01Z"/>
      <path d="M40.15,49.62c.51,0,.93-.42.93-.93s-.42-.93-.93-.93-.93.42-.93.93.42.93.93.93Z"/>
      <path d="M11.73,48.01c-.42.45-.78,1.2-.44,1.39.41.23.87.59,1.09.39.37-.34.69-1.01.79-1.42.07-.3-1.17-.64-1.43-.35Z"/>
    </g>
  </g>
</svg>