<?xml version="1.0" encoding="UTF-8"?>
<svg id="Warstwa_2" data-name="Warstwa 2" xmlns="http://www.w3.org/2000/svg" viewBox="0 0 52.52 59.71">
  <g id="icon-v10-loot-pixarts-store">
    <g id="icon-v10-loot-pixarts-store_42">
      <path d="M50.12,2.21c0-.52-.42-.94-.94-.94s-.94.42-.94.94.42.94.94.94.94-.42.94-.94Z"/>
      <path d="M52.52,21.1c0-.49-.4-.89-.89-.89s-.89.4-.89.89.4.89.89.89.89-.4.89-.89Z"/>
      <path d="M7.52,55.69c2.14,2.51,4.94,3.67,8.16,3.92,7.33.57,10.01-1.36,15.49-5.34-.71,1.94-2.14,3.05-3.8,4.64,2.95.61,6.93-.36,8.8-3.18,2.68-4.05,2.68-9.38.9-13.78l-3.67-9.07c-.2-.5-.41-1.43-.8-1.36l-1.63.29.25,7.59c-1.1-2.43-1.52-5.04-2.17-7.69-2.55-.87-5.34-1.93-7.77-3.29l-4.45,3.02c-.99.67-1.83,1.46-2.44,2.32l2.2-.13c-1.19.92-2.48,1.58-3.73,1.19.16-1.41,1.18-2.9,2.32-3.88l4.5-3.85c-.41-.63-1.19-1.53-1.75-2.01l-5.55,3.01c-2.96,1.6-6.08,3.43-8.52,5.84-2.29,2.26-5.76,10.7-2.58,14.44l6.24,7.33ZM29.64,45.65c.39.9,1.25,1.85,2.38,2.33-.83.32-1.85,1.17-2.27,1.99l-2.2-2.03c.69-.38,1.61-1.33,2.09-2.29ZM21.71,38.51l1.07-2.83,1.05,2.86,2.86,1.15c-2.48.46-3.38,1.18-3.86,3.71-1.81-3.51.12-2.28-3.89-3.84l2.77-1.04ZM13.71,48.39l1.39-4.36,1.47,4.29,4.41,1.62-4.28,1.5-1.53,4.13-1.48-4.08-4.18-1.57,4.21-1.52ZM7.17,38.69c.36.83,1.47,1.97,2.34,2.37-.93.35-1.94,1.24-2.23,2.2-.51-.77-1.31-1.69-2.08-2.29.61-.36,1.54-1.42,1.97-2.28Z"/>
      <path d="M45.02,23.6c-.08-7.85-7.68-5.9-7.25-7.32.73-2.39,1.7-2.22.88-2.74-1.19-.54-2.84-1.73-3.72-2.5-1.07.88-2.12,1.62-3.52,2.33l1.29,1.03c.21.3-1.55,1.11-1.88.66l-3.29-4.49c-3.02-1.26-6.25-.91-9.54-.4,1.44,3.7,4.72,1.56,8.75,3.45,2.16,1.01,2.25,3.28,1.87,5.08,5.7,5.18,7.19-3.63,14.24,4.64-.88.03-1.88-.28-3-.7-5.05-1.93-8.27.95-12.46-2.58-1.12-.94-.91-1.98-.31-3.31-2.36-3.61-6.14-.54-9.58-5.77-.25.79-.33,1.79-.08,2.29l3.53,7.35c.48,1,1.19,1.74,2.32,2.53.12-2-.03-3.43-.23-5.12,1.26,2,1.52,4.47,2.41,6.4.72,1.35,4.18,2.42,5.52,1.73,1.39-.72,2.99-2.17,4.36-2.16l-2.25,2.5c3.16-.21,10.24-.26,11.95-2.89Z"/>
      <path d="M48.93,39.16c.23.62,1.91.68,2.48.34.55-.33.99-1.72.53-2.56-.82-1.49-2.19-2.34-3.32-3.31-2.47-2.12-5.18-3.12-8.4-3.68l-4.34-.75c.23,1.28,1.22,1.86,2.33,2.05,3.39.58,6.64,1.61,9.24,3.88l1.48,4.04Z"/>
      <path d="M45.26,47.6c1.3-1.91.19-4.19-.44-6.24-1.06-3.46-2.94-5.71-5.94-7.76l-4-2.73c.36,2.79,3.54,3.46,7.03,8.11,3.26,4.33-2.74,8.65,3.35,8.62Z"/>
      <path d="M33.52,27.87c-9.51,1.32-13.14-6.28-14.24-6.16-.31.03-.82,1.11-.64,1.39,1.1,1.78,3.32,3.62,5.22,4.72,6.73,3.92,11.87,1.85,10.77.5-.2-.24-.77-.5-1.11-.45Z"/>
      <polygon points="47.98 17.2 49.03 14.34 52.16 13.17 49.06 12.04 47.96 9.04 46.8 12.11 44 13.13 46.83 14.34 47.98 17.2"/>
      <path d="M39.44,0l-.96,2.16c-.23.51-1.46.66-2.18,1.05,1.97.45,2.66,1.4,3.08,3.2.59-2.1,1.48-2.81,3.24-3.31-1.97-.18-2.8-1.37-3.18-3.1Z"/>
      <polygon points="29.54 6.57 30.96 8.06 32.33 6.52 30.96 4.86 29.54 6.57"/>
      <path d="M43.2,7.97c-.48,0-.86.39-.86.86s.39.86.86.86.86-.39.86-.86-.39-.86-.86-.86Z"/>
    </g>
  </g>
</svg>