<?xml version="1.0" encoding="UTF-8"?>
<svg id="Warstwa_2" data-name="Warstwa 2" xmlns="http://www.w3.org/2000/svg" viewBox="0 0 54.59 59.09">
  <g id="icon-v10-loot-pixarts-store">
    <g id="icon-v10-loot-pixarts-store_219">
      <path d="M27.3,54.59c15.08,0,27.3-12.22,27.3-27.3S42.37,0,27.3,0,0,12.22,0,27.3s12.22,27.3,27.3,27.3ZM27.3,4.02c12.86,0,23.28,10.42,23.28,23.28s-10.42,23.28-23.28,23.28S4.02,40.15,4.02,27.29,14.45,4.02,27.3,4.02Z"/>
      <rect x="24.42" y="56.3" width="2.91" height="2.62" transform="translate(-32.27 82.27) rotate(-88.8)"/>
      <path d="M39.15,56.15v-2.45s-2.09.95-2.09.95c-.46.21-.21,2.07.11,2.44.46.34,1.98-.32,1.98-.94Z"/>
      <path d="M43.12,54.03c.31-.5.14-2.12-.02-2.39-1.94.48-2.75,1.46-2.06,3.71.54-.2,1.73-.75,2.08-1.32Z"/>
      <path d="M23.01,58.2c.14-.65-.09-2.48-.82-2.47-.5,0-1.62-.18-1.69.27-.13.83.03,2.2.48,2.45.46.25,1.89.39,2.03-.25Z"/>
      <rect x="28.6" y="56.08" width="2.56" height="2.94" transform="translate(-1.05 .56) rotate(-1.05)"/>
      <path d="M18.43,54.86l-1.74-.57c-.26.39-.42,2.05-.02,2.5.4.45,1.6.85,2.07.86.11-1.23.16-2.63-.31-2.79Z"/>
      <path d="M14.69,55.88c.25-.6.37-2.29-.14-2.65-.45-.31-1.49-.73-1.87-.79-.09,1.07-.21,2.34.24,2.57l1.77.87Z"/>
      <path d="M35.21,57.65c.03-.39-.02-1.42-.12-1.97-.12-.64-1.98-.19-2.17.42-.16.53-.18,2.25.39,2.24.71-.01,1.87-.23,1.9-.69Z"/>
      <path d="M8.9,49.55c-.53,1.65.21,3.03,1.91,3.66.55-1.83-.55-3.08-1.91-3.66Z"/>
      <path d="M46.83,48.99c-.42-.02-1.6.58-1.87,1.1-.3.6-.16,1.86.03,2.57,1.43-.65,1.96-1.58,1.84-3.67Z"/>
      <path d="M5.04,46.17c.41,1.51,1.01,2.52,1.88,3.5.7-1.51-.24-3.01-1.88-3.5Z"/>
      <path d="M27.31,48.98c11.97,0,21.67-9.7,21.67-21.67S39.28,5.65,27.31,5.65,5.64,15.35,5.64,27.32s9.7,21.67,21.67,21.67ZM41.78,33.75l3.09,1.42c-4.61,1.7-2.96,1.93-4.42,5.66-1.21-4.06-.04-3.92-4.01-5.68l2.62-1.22,1.44-4.33,1.28,4.14ZM17.49,13.47l7.84,8.62-.38-10.16,4.76-.05-.42,10.29,7.83-8.56,3.2,2.74-11,11.44.36,14.91c-1.13.41-3.24.4-4.73.23l.49-15.07-11.05-11.44,3.1-2.96ZM15.6,36.13c.44,1.12,1.39,2.31,2.21,2.76-.77.52-1.5,1.29-2.27,2.59-.07-.99-.89-2.03-2.21-2.62,1.11-.33,2.01-1.39,2.27-2.74Z"/>
    </g>
  </g>
</svg>