<?xml version="1.0" encoding="UTF-8"?>
<svg id="Warstwa_2" data-name="Warstwa 2" xmlns="http://www.w3.org/2000/svg" viewBox="0 0 43.72 56.97">
  <g id="icon-v10-loot-pixarts-store">
    <g id="icon-v10-loot-pixarts-store_110">
      <path d="M2.49,31.96c.69-.79,1.36-1.62,2.16-2.05,1.73-.93.36,5.35,1.77,7.09,2.9,3.57,7.01,5.45,11.49,6.39l1.56-5.94c-3.17-1.23-4.51-3.81-5.64-6.67-1.31-3.31-1.75-6.77.36-9.52l-.2,3.07c.93-1.37,1.65-2.46,2.65-3.64-1.26,3.91-1.08,8.04,2.17,10.92,1.75,1.55,3.99,1.59,6.46,2.16l-2.23.62c1.01,3.53,8.67,2.89,11.45,1.89-2.48,2.61-6.09,3.3-9.71,3.02l1.06,4.04c4.62-.87,9.06-2.84,11.73-6.76,1.18-1.72-.12-5.69,1.18-6.56.29-.2,1.15.2,1.36.47l1.14,1.44c4.06-7.68,2.99-16.94-2.47-23.72C34.17,2.46,27.32-.55,20.01.08,13.24.67,7.02,4.45,3.31,10.55c-3.98,6.55-4.51,14.55-.82,21.41ZM17.07,36.76c-2.13-.44-3.73-2.04-3.98-4.16,1.58,1.37,2.76,2.59,3.98,4.16ZM11.95,31.76c-1.08-.83-1.64-1.9-2.26-3.14-.3,4.81,2.92,8.06,6.48,10.81-8.33-1.02-10.17-11.7-10.01-17.87l1.67,3.64c1.3-2.45-.43-5.51,3.38-7.94l-.45,3.08c2.3-3.68,5.97-5.06,9.6-3.65-7.14,1.42-10.53,8.43-8.4,15.07ZM31.77,35.71c2.2-1.86,3.88-3.43,5.64-5.6-.17,2.98-2.72,5.67-5.64,5.6ZM12.94,7.3c-2.28,1.63-4.11,3.22-6.08,5.27.49-3.15,3.14-5.08,6.08-5.27ZM15.57,8.51l-2.7,2.44,6.02-1.86c.94-.29,2.73.06,4.02,0-3.69-3.8-8.56-3.16-13.53-2.28,5.01-4.12,12.44-3.46,17.42.41.24.18.62.45.76.35l.76-.55c1.06.81,2.36,1.92,2.49,3.7l-2.64-2.44c2.39,5.65,3.95,6.29,2.5,12.88,2.25-2.98,1.98-6.47,1.17-9.85l2.11,2.82c.1-4.57-2.79-8.19-6.53-10.15,4.25.5,7.61,3.8,8.75,8.04l2.37,8.86c1.37-2.06.62-3.77.77-6.05,4.63,6.77-2.82,18.87-10.79,19.82l2.42-2.32c-3.09.8-5.43,1.46-8.18.02-2.45-1.28-4.78-3.57-4.39-6.95.93,1.61,1.21,3.22,3.27,3.79l-.49-1.44c4.12,2.47,8.92,2.55,12.35-.82l1.16.31c1.43-1.63,2.71-3.48,3.33-5.64.17-.58-.17-2.77-.88-1.84l-1.44-2.27c-.13,3.53-.54,6.38-2.84,8.48l.35-3.21c-2.48,3.38-5.84,5.34-9.82,3.69,2.97-.41,7.17-2.48,6.37-6.39-.81,1.05-1.5,1.91-2.55,2.73,1.49-3.53,1.09-6.64-.8-9.87-1.44-2.47-3.98-3.75-6.55-2.51,3.91,1.03,6.04,4.49,5.8,7.99-2.82-6.23-4.43-3.72-4.05-3.72-1.1,0-6.73-2.75-10.82,1.29l-.67.67c-.15.15-.47-.25-.84-.55-3.55,3.17-4.91,7.64-4.75,12.75C.1,21.39,7.38,9.41,15.57,8.51Z"/>
      <path d="M24.36,42.9c-.45.16-1.15.69-1.32.46l-.71-.93c3.34.56.55-5.7-.52-7.41-1.26,3.11-4.81,12.18-1.29,13.97-.61,1.04-1.29,2.51-1.32,3.79l1.1-.09c-.56,1.43.27,3.45,1.56,4.29,1.85-.63,1.37-3.16,2.11-4.12.87-1.13.63-2.18-.53-3.56,1.57-1.67,1.96-4.35.92-6.4Z"/>
      <path d="M40.84,49.69c-4.84-.84-1.1-2.1-4.68-3.12.9-2.15,2.93-3.67,5.24-4.53l-.91-1.61c-.08-.15.12-.74.15-.92.02-.11.26.26.37.3l.8.33c.54-3.01-.57-6.14-2.44-8.78l-.39,5.26c-.21,2.75-2.2,3.95-3.58,5.9-.84,1.19-1.23,3.31-2.35,4.43l2.38,2.16c.51.47.18,2.05-.15,3.03l3.34.69.35-1.87c1.49,1.56,2.59,3.09,3.26,4.73,1.39-2.11.98-5.59-1.38-6Z"/>
      <path d="M9.45,48.21c2.41-1.77.57-.88-.87-5.78-4.39-3.52-3.56-5.74-4.16-11.18-1.52,1.13-3.72,9.17-2.16,8.84l1.07-.22-.77,2.26c2.07.8,4.49,2.39,5.02,4.41-.85.32-1.68.9-1.76,1.41-.3,1.86-1.63,1.31-2.86,1.65-2.54.7-2.68,4.11-1.44,6.19.72-1.71,1.79-3.25,3.07-4.76l.45,1.77,3.42-.65c-.28-.86-.62-2.08-.37-2.6.2-.43.79-.94,1.36-1.35Z"/>
      <path d="M33.24,43.21l-6.94,2.06-.94,4.01c-.14.61.24,2.01.85,2.44,2.54-.37,5.23-1.05,7.67-1.98l-2.95-2.4-2.68-.04,3.66-1.54c.96-.41,1.67-1.39,1.32-2.54Z"/>
      <path d="M13.85,49.37c.17-.12.81-.07.81.15v1.21c.25.65,2.37,1.14,3.11.66,1.12-.73.68-2.46.39-3.55l-.74-2.73c-1.72.02-7.4-2.74-7.07-1.29.65,2.86,4.08,2.3,5.5,3.51l-3.79-.06,1.17,1.18c-1.45-.09-2.38.03-3.07,1.38.84.45,2.53.91,3.29.86.21-.85.22-1.19.4-1.31Z"/>
    </g>
  </g>
</svg>