<?xml version="1.0" encoding="UTF-8"?>
<svg id="Warstwa_2" data-name="Warstwa 2" xmlns="http://www.w3.org/2000/svg" viewBox="0 0 55.07 54.58">
  <g id="icon-v10-loot-pixarts-store">
    <g id="icon-v10-loot-pixarts-store_105">
      <path d="M23.44,36.2c-.15,2.46-.05,4.89-1.55,6.9.07-2.23.34-4.38-.35-6.31l-1.13-3.18c-5.76,3.78-12.69,5.11-19.47,3.49.94,7.01.76,11.72,7.2,15.65,5.13,3.13,11.32,2.15,15.04-2.48,1.44-1.79,2.56-3.57,3.82-5.5-.34,1.76-.84,3.24-1.43,4.82,3.52-1.63,6.53-10.04,7.38-13.79l-6.63-3.8-2.88,4.2ZM5.65,45.77c-.71-.3-1.33-2.46-1.23-3.55l2.28,3.01c-.15.24-.78.66-1.05.54ZM6.51,46.84c1.67-.28,3.43,1.72,3.7,3.33-1.52.09-4.12-1.29-3.7-3.33Z"/>
      <path d="M50.82,12.03c-4.65.29-2.07-2.38-6.78-1.85-2.75.31-4.65-1.24-7.26-2.25.66,1.1,1.62,1.81,2.87,2.77-2.98.56-5.66-.92-8.33-2.32,1.34,3.13,4.27,4.15,6.98,5.47-2.61.48-4.9.66-6.8,2.59l3.77.26c-.76,1.9-3.99.29-5.75,3.74,1.35-.12,2.39-.16,2.86.34-1.84,1.08-3.25,1.66-3.92,3.35l1.81-.22-1.74,3.49,6.7,3.66c.88-3.85,2.5-6.58,4.82-10.18h-3.38c.81-1.42,1.72-2.64,3.11-3.88l-.86,2.54,2.68.25c-.73,1.2-1,2.26-.66,3.23l3.65-2.12c1.49-.87,3.53-.72,5.13-.17l.31,1.91,2.36-1.98c.56-.47.6-2.13.36-2.59-.48.25-.82.52-1.03.45l-.9-.33c-.15-.06-.66.25-.75.11l-.32-.48c-.42.19-1.13.55-1.42.34l-1.05-.73c-.65.34-1.51.86-2.03.74-.6-.14-1.29-.7-1.72-1.24,2.94.69,2.57-1.14,4.48-1.62.32-.08.88.81,1.16.67l1.32-.66,1.13.55,1.4-.62c.29-.13.62.7.93,1.23.86-.7,1.38-2.3.99-3.56-.32-1.04-1.9-2.1-2.83-2.16-.19.76-.67,1.22-1.29,1.26ZM45.34,13.63c-.61-.19-1.34-.72-2.01-1.28,1.18-.26,1.94-.25,3.56.14-.29.49-1.11,1.28-1.55,1.13Z"/>
      <path d="M2.93,19.67c1.71,1.07,3.42,1.04,5.39.56,1.32-.32,2.95.47,3.3,1.48,1.09,3.21-2.72,3.56-3.3,5.92-.27,1.11.11,2.19,1.13,2.91-.44-4.08,3.37-3.79,7.24-7.91.97-1.03,1.38-2.51.59-3.62l-.91,1.09c0-.8.12-2.11-.24-2.69-1.66-2.67-5.47,1.21-7.45-1.73-.64-.95-.3-2.65.72-3.5,1.58-1.32,3.51-.32,5.06.64,2.1,1.3,5.08.25,6.38-1.65l-1.81.1c1.61-.97,3.06-2.12,3-3.86-.16-4.54-5.88-2.89-6.57-4.97-.29-.89,1.02-1.81,1.81-2.43-1.21.15-2.78.52-3.65,1.77-.37.53-.06,2.13.43,2.55,1.3,1.1,3.55.63,3.91,2.05.14.56-.38,1.57-.87,1.9-3.42,2.31-5.9-1.58-7.14-1.46-4.16.43-7.9,3.99-7.41,8.76-.99-1.62-1.02-3.47-.61-5.45-3.48,2.23-1.68,7.87,1.01,9.55Z"/>
      <path d="M12.61,35.17c.85-.45,1.22-.63,2.26-.69,1.77-.11,3.85-1.34,4.91-2.79.67-.93-.42-2.28-1.46-2.62-5.06-1.64-10.52.54-6.9.68l4.35.16c.3.01,1.11.52,1.03.79-.95,3.25-14.78,4.21-13.43,2.11.1-.16.47-.67.65-.74l3.68-1.44c.23-.09.12-.83-.11-.94-.64-.3-7.65,1.58-7.22,4.42.33,2.16,8.02,3.3,12.24,1.05Z"/>
      <path d="M34.17,31.74c-2.32-1.28-4.37-2.52-6.81-3.53-.65-.27-1.78,1.97-1.16,2.33l7.8,4.44c.69-.17,1.33-.9,1.35-1.54.02-.67-.54-1.35-1.17-1.69Z"/>
    </g>
  </g>
</svg>