<?xml version="1.0" encoding="UTF-8"?>
<svg id="Warstwa_2" data-name="Warstwa 2" xmlns="http://www.w3.org/2000/svg" viewBox="0 0 42.63 60.9">
  <g id="icon-v10-loot-pixarts-store">
    <g id="icon-v10-loot-pixarts-store_230">
      <path d="M42.55,20.22c.25-1.29-.13-2.57-.63-3.64l-6.21-13.29-1.53,2.39.75-2.96-16.07,1.68.48,1.68-1.45-.85-6.46,16.54c.91.51,2.06.72,2.95.52l5.92-14.97,13.33-1.6c1.04,1.76,1.87,3.29,2.69,5.04l3.98,8.47-3.53,17.34-3.59,18.56-10.52,2.32c-.38-.66-.82-1.59-1.08-2.75l-7.07-32.05-3.12-.06,5.37,23.79,3.14,14.54,14.88-3.25-1.4-2.44,2,1.6,7.18-36.6Z"/>
      <path d="M7.07,20.08L13.96,3.61l-4.36-1.06-6.46,15.33c.63,1.45,2.59,2.23,3.92,2.2Z"/>
      <path d="M15.2,49.31c1.05,5.22-1.27,2.24.98,9.81l2.55,1.13L10.46,22.81c-.64-.42-1.46-.71-2.43-1.01l.56,3.94,1.31,1.15,1.24,5.14c.09.36-.51,1.13-.82,1.31l2.71,12.17c1.28.83,1.82,2.11,2.16,3.8Z"/>
      <path d="M5.42,41.98l3.26,12.93c.11.43.82.79,1.48.76.14-2.15-2.64-7.02-1.22-7.27.61,1.08,1.81,2.38,2.98,2.67.27.07.95-.63.86-.89-.77-2.34-.47-4.62-2.23-4.18-.52.13-.97.35-1.15.21l-.72-.53-.25,2.43c-.83-1.15-.44-2.5-.75-3.87-.79-3.48-1.31-7.38-2.8-10.61-1.14-2.48-1.78-4.12-1.61-7.12.11-2-1.11-4.66-1.43-6.85l-1.85-.21,5.42,22.52Z"/>
      <path d="M14.99,3.87c-.23.07-6.35,15.06-6.8,16.98.81.38,1.71.63,2.31.5l6.57-16.85c-.79-.36-1.66-.76-2.08-.64Z"/>
      <path d="M1.99,18.48L8.67,2.55c.03-.29-1.79-.81-2.02-.32L.03,17.79c.36.59,1.36.91,1.97.68Z"/>
      <path d="M12.19,45.54l-2.65-12.12c-.47.72-.98,2.02-1.45,1.82l-1.75-.76,2.4,10.26c1.59.07,2.05.28,3.45.79Z"/>
      <path d="M5.96,33.19l.92-1-.24,1.27c-.05.27.79.69,1,.51l1.09-.96c1.98-1.74.85-5.08-.47-5.91-.79-.49-2.49-1.18-3.17-.6-3.06,2.59.63,6.96.87,6.69ZM7.81,29.75c.58,0,1.05.47,1.05,1.05s-.47,1.05-1.05,1.05-1.05-.47-1.05-1.05.47-1.05,1.05-1.05Z"/>
      <path d="M8.53,1.2c2.12.58,4.37,1.44,6.39,1.22l13.9-1.52c-.98-.17-2.85-.96-3.91-.89L8.53,1.2Z"/>
      <path d="M11.12,56.55l3.84,1.78c-.41-2.3-.76-3.89-1.52-5.58l-3.44-1.71,1.12,5.51Z"/>
      <path d="M4.14,25.86c1.48-.47,2.23-.56,3.49-.56l-.69-3.9-4.06-1.16,1.26,5.63Z"/>
      <path d="M22.48,3.05l9.2-.99c.92.25.54-.39-.07-.77l-15.09,1.82c1.85.43,3.76.18,5.96-.06Z"/>
      <path d="M13.05,46.61c.21,2.11.5,3.76,1.08,5.85.55-2.07.66-4.53-1.08-5.85Z"/>
      <path d="M19.73,11.56c-1.72,3.7-3.23,7.27-4.29,10.98l3.92,18.3.57-2.44c.29,6.62,1.03,10.64,2.96,16.71l.77-10.93.49,11.62c1.11-.25,2.37-.88,3.1-.95l3.85-.34.55-16.43.45,15.36,6.47-34.36-5.87-12.18-.68,3.39-.3-3.17-3.57.46-.68,3.12-.62-3.11-5.87.86c-1.34,3.55-.06,4.59-.8,7.22l-.44-4.14ZM19.1,19.78c-.81,4.03.58,7.65,3.96,10.86-4-1.38-5.68-6.83-3.96-10.86ZM28.64,32.28l-.44,4-.85-3.93c-1.25-.28-2.8-.58-4.01-1.26l6.98.32-1.69.88ZM35.85,18.61c.69,3.4.38,8.94-3.44,11.39,1.09-1.92,3.04-3.88,3.17-6.37l.26-5.01ZM20.22,21.37c.25-2.84,1.95-5.91,4.9-7.08,4.23-1.67,8.61,1.25,9.46,5.49.55,2.76-.05,5.06-1.56,7.43-2.22,3.48-6.09,4.18-9.5,1.86-2.49-1.69-3.57-4.65-3.3-7.7Z"/>
      <path d="M22.96,22.73c-.05.82-.19,1.69.15,2.13.85,1.12,3-.03,2.94.88l-.07,1.18c-.01.23.07,1.12.28,1.04l.91-.31c.14-.05.46.5.54.63.07.12.32-.2.4-.32l.29-.44c.36.26,1,.8,1.11.51l.5-1.34.93,1.29.16-2.79c.75-.49,1.62-1,1.86-1.55.23-.52-.22-1.72-.3-2.33l-.32-2.54c-.31-2.47-3.01-3.76-5.27-3.55-2.13.2-4.51,2.04-4.38,4.53.05.93.32,2.17.27,2.97ZM30.9,20.73c.79,0,1.43.64,1.43,1.43s-.64,1.43-1.43,1.43-1.43-.64-1.43-1.43.64-1.43,1.43-1.43ZM28.66,23.59c.16-.04.8.37.91.63.11.27.05.98-.09,1.23-.17.31-1.35.39-1.39.03-.06-.42.29-1.32.58-1.9ZM24.67,21.33c.39-.36,1.57-.25,2.03-.02.54.27,1.23,1.63.83,2.08-.9,1.03-2.03.91-2.68.51-.8-.48-.92-1.88-.17-2.57Z"/>
    </g>
  </g>
</svg>