<?xml version="1.0" encoding="UTF-8"?>
<svg id="Warstwa_2" data-name="Warstwa 2" xmlns="http://www.w3.org/2000/svg" viewBox="0 0 58.59 59.2">
  <g id="icon-v10-loot-pixarts-store">
    <g id="icon-v10-loot-pixarts-store_318">
      <path d="M52.81,13.01l-.38-1.13-4.32-1.03,4.5-2.48c-2.7-1.1-5.77-1.42-8.57-.84l-.41-1.6-3.04.78c-.73-1.73-1.41-3.09-2.13-4.08-.72,1.11-1.11,1.77-1.49,2.1-.44.39-5.25-2.59-6.46-4.73l-1.2,4.81L23.25.51l.44,5.77-2.16.16,1.45,3.34-3.63.84c-.98,1.23-2.45,1.98-3.95,2.61,1.56.59,2.51.96,3.9,1.8-2.61,1.91-4.73,3.26-7.35,4.71l2.71.79c-3.02,2.2-5.95,2.36-9.66,2.48l2.78,2.51c-2.07.53-3.53.97-5.19,2.29l3.63.9-2.2,2.34,7.35-1.88-1.7,2.23c-1.89.06-4.19.53-5.06,2.21,1.09.16,2.99.48,3.42,1.32,1.03,2.01.63,4,.67,6.39,2.32-2.49,7.06-7.98,10.13-6.55l-3.93,2.74c-1.91,1.33-3.92,2.6-3.81,5.22l3.94-1.84c1.73.15,3.15,1.89,3.74,3.33.6,1.46-.04,3.3-.51,5.49,6.33-1.47,3.16-9.05,5.63-10.68l-.03,9.43c3.33-2.03,2.54-5.26,5.74-5.94-.88,2-1.56,3.69-1.74,5.32l1.72,1.25,3.74-4.41,3.76,1.11,1.51,3.99,2.65-5.03,2.68,1.34c-.95-4.49-1.36-7.66-.8-11.79l1.09,1.48.49-2.41,2.73,2.03-.13-7.98,2.05,1.11-.16-2.37c.6-.33,1.58-.64,1.53-1.06l-.19-1.7c1.93-.55,3.59-1.13,5.58-2.16l-3.67-2.87c2.59-1.44,4.62-2.87,6.15-5.08l-4.25.14c-.31.01-1.43-.15-1.52-.42Z"/>
      <path d="M11.25,58.91c.43-9.09,8.33-8.46,5.19-14.15-.62.13-2.06,1.05-2.33,1.65l-2.39,5.12c-.29-3.31,1.88-5.37,3.18-8.22-5.19-.85-8.09,11.69-3.65,15.6Z"/>
      <path d="M27.59,59.2c4.53.05,11.43-7.76,8.34-11.65-1.09,2.82-2.1,5.16-3.54,7.44l1.46-7.15c-4.98.2-.93,5.06-6.25,11.36Z"/>
      <path d="M6.71,38.04c-1.61,1.04-2.57,2.03-3.62,3.34.12-2.22,1.9-3.67,3.37-5.22.07-.53-1.31-.79-1.92-.44C.12,38.28-1.13,43.74,1.04,48.24c1.27-7.52,7.98-6.26,5.67-10.2Z"/>
    </g>
  </g>
</svg>