<?xml version="1.0" encoding="UTF-8"?>
<svg id="Warstwa_2" data-name="Warstwa 2" xmlns="http://www.w3.org/2000/svg" viewBox="0 0 32.73 43.11">
  <defs>
    <style>
      .cls-1 {
        fill: #fff;
      }
    </style>
  </defs>
  <g id="game-icon-v7-magic-pixarts-store">
    <g id="game-icon-v7-magic-pixarts-store_154">
      <path class="cls-1" d="M27.51.38c1.7-.41,3.07-.35,5.18-.03l.03,26.2-1.88,2.75c.2,1.22.06,2.19-.97,2.37-1.44.54-2.72,1.34-3.86,2.27l-21.18.18V.05s20.37-.05,20.37-.05l5.32,3.43c.1,1.12.26,1.67.89,2.52.04-1.44-.24-3.33-.68-4.59l-3.22-.98ZM17.45,9.59c1.63,3.19-1.58,5.41-3.78,6.92-1.96,1.34-2.56,3.85-2.18,6.32.28,1.77,1.87,3.85,3.81,4.57-5.44-10.5,7.53-9.36,5.84-16.92-.61-2.72-3.04-4.54-5.57-4.63-2.7-.09-5.42,1.48-5.82,4.53-.11.84.68,2.35,1.29,2.82.66.52,2.38.54,3.16.1.45-.25,1.18-1.74.87-2.15-.26-.34-.74-.82-.98-1.04-.45.88-.79,1.58-1.2,1.9-.4.32-1.73-.71-1.72-1.21,0-.85.28-1.97.73-2.35,1.21-1.03,4.69-.55,5.55,1.13ZM23.75,26.32c-2.35-.15-4.02-.31-4.75-2.06-.44-1.06-.07-3.27,1.11-4.09l4.17-2.89c1.85-2.84,1.26-7.15-1.74-9.1,2.56,7.02-1.65,7.66-5.2,11.36-1.87,1.95-1.55,5.11.14,6.65,1.8,1.64,4.77,2.11,6.27.12ZM23.73,22.59l3.44-4.69c.94-1.28.73-3.62.11-4.74-.45,2.22-.44,5.58-2.65,6.57-1.03.46-2.57.87-3.27,1.55-.32.32-.51,1.75-.18,2.07.26.25,1.01.46,1.36.36s.81-.61,1.19-1.12Z"/>
      <path class="cls-1" d="M2.62,28.05l-2.53.66L.02,12.63l.95-2.86-.72-.17c-.2-.05-.07-.78.06-.94l1.94-2.3L.02,7.42C-.02,5.8-.02,3.87.36,2.13.63.88,2.66-.08,3.85.16l.07,33.8c-.98.89-2.16,2.1-2.09,3.06.26,3.48,4.24,2.02,4.98,3.04-2.08,1.71-5.84.7-6.44-2-.52-2.34-.3-5.15-.07-7.4l2.32-2.61Z"/>
      <path class="cls-1" d="M12.33,43.11c-.97-.51-1.71-1.19-2.23-1.07s-1.41.62-2.29,1.07l.06-5.64c1.1-.35,2.93-.38,4.33-.17l.12,5.81Z"/>
      <path class="cls-1" d="M14.73,40.52c-.63,0-1.13-.28-1.6-.84l17.96-.15c-.36-1.86-.25-3.11.36-3.99l1.12,5.08-17.83-.11Z"/>
      <rect class="cls-1" x="5.94" y="35.89" width="23.91" height=".46"/>
      <path class="cls-1" d="M27.41,33.94c.56-.52,1.27-.83,1.79-.79l1.67.15c1.03.09.68-3.9,1.59-4.93.2,1.95.21,3.4.16,5.65l-5.2-.08Z"/>
      <rect class="cls-1" x="14.06" y="37.75" width="15.09" height=".46"/>
    </g>
  </g>
</svg>