<?xml version="1.0" encoding="UTF-8"?>
<svg id="Warstwa_2" data-name="Warstwa 2" xmlns="http://www.w3.org/2000/svg" viewBox="0 0 46.83 46.62">
  <defs>
    <style>
      .cls-1 {
        fill: #fff;
      }
    </style>
  </defs>
  <g id="game-icon-v7-magic-pixarts-store">
    <g id="game-icon-v7-magic-pixarts-store_202">
      <path class="cls-1" d="M6.01,38.23c-2-2.48-1.84-5.64-2.75-8.23l.14,5C-.45,28.74-1.26,20.56,2.17,13.51c-.07,1.85-.32,3.12-.13,5.01,2.15-4.78.54-8.9,6.04-12.09,3.05-1.77,6.11-2.56,9.34-3.55l-6.01.65c7.68-4.98,16.97-4.46,24.56.16,4.72,2.88,7.21,7.1,7.51,12.6.39-1.77.22-3.24.03-4.86,5.29,8.63,4.39,20.95-3.72,28-2.75,2.39-6.19,3.21-9.47,4.32l4.78-.26c-9.51,5.53-21.91,3.67-29.09-5.26ZM18.69,44.18c-1.77-.66-8.11-5.88-6.74-6.21l.54-.13-2.36-7.45.09,4.8c-3.25-6.02-2.03-10.08,1.74-15.4-.66,3.24-1.6,6.37-.62,9.78s2.78,7.09,5.75,9.35c3.83,2.92,9.13,4.08,13.77,2.53-3.32-.27-6.57-.57-9.54-2.41l-3.23-2c-2.87-1.78-3.31-5.82-3.51-8.8,2.31,5.73,6.93,9.29,12.81,9.77-1.18.35-2.09.43-3.05.42,3.83,1.53,7.05-.25,10.74-1.66l-1.27,1.57c5.49-1.46,11.05-8.65,10.64-14.42-.99,3.37-2.5,6.59-5.5,8.97l.35-2c-5.29,3.21-9.47,5.45-15.46,2.72,5.68.41,11.61-3.41,14.3-7.86-.57,2.13-1.78,3.7-2.71,5.66,6.43-5.04,7.23-13.86,3.39-20.54-2.5-4.35-5.99-7.99-11.12-8.85,2.66,1.56,5.13,2.91,7.01,5.23l-1.09-.23c.67,1.64,1.2,3.07,1.73,4.65l1.65,4.87-.04-4.29c1.31,2.23,2.19,5.06,1.45,7.58-.82,2.78-1.5,5.27-3.56,7.41,2.12-6.21,1.14-11.5-2.2-16.38-.85-1.24-1.63-2.85-3.18-3.79-3.99-2.42-9.05-3.39-13.42-1.81,4.1-.09,8.23.71,11.04,3.38.34.32,1.2.35,1.59.22,2.06,2.54,3.91,5.88,3.69,9.6-1.97-5.87-6.86-9.62-13.29-9.68l1.55-.92c-3.27-.77-5.71.83-8.58,1.65l1.88-1.5c-3.16.58-5.2,2.66-7.25,4.79-2.69,2.79-4.23,6.11-4.17,9.95,1.35-3.75,2.81-6.8,5.8-9.2l-.17,2.44c4.82-4.14,10.22-5.7,15.18-3.04-6.05-.18-11.01,2.89-14.08,7.52.27-1.91,1.45-3.18,2.58-5.09-5.86,4.24-7.51,12.3-4.32,18.93,2.26,4.7,6.28,9.41,11.21,9.88Z"/>
    </g>
  </g>
</svg>