<?xml version="1.0" encoding="UTF-8"?>
<svg id="Warstwa_2" data-name="Warstwa 2" xmlns="http://www.w3.org/2000/svg" viewBox="0 0 40.85 40.71">
  <defs>
    <style>
      .cls-1 {
        fill: #fff;
      }
    </style>
  </defs>
  <g id="game-icon-v7-magic-pixarts-store">
    <g id="game-icon-v7-magic-pixarts-store_179">
      <path class="cls-1" d="M35.65,18.11c-1.69,1.25-3.77,2.15-5.78,2.34-.19,1.21-.4,2.21-.9,3.49-.36-1.32-.49-2.29-.55-3.58-3.93-.72-7.42-3.21-7.94-7.45l-4.27-.83,4.1-1.06c.2-2.06.78-3.56,1.99-5.29l-1.85-3.38,3.31,1.69c1.64-1.1,3.37-1.85,5.45-2.15l.78-1.9.73,1.88c1.63.52,2.91,1.04,4.37,1.73l4.44-2.26-2.5,4.07,1.71,4.15,2.12.92-2,.7c-.33,1.95-.82,3.57-1.78,5.38l1.52,3.14-2.93-1.6ZM37.92,11.12c0-4.62-3.75-8.37-8.37-8.37s-8.37,3.75-8.37,8.37,3.75,8.37,8.37,8.37,8.37-3.75,8.37-8.37Z"/>
      <path class="cls-1" d="M5.2,34.77l3.03-2.04-3.72.95c1.4-1.82,2.83-2.67,4.24-4.1l7.82-7.94c-.1,1.55-.66,2.46-1.27,3.83,1.06-.19.82-1.12,1.11-1.79l2.48-5.89c.91,1.01.47,2.21.02,3.41,3.38-3.65-.93-4.49,1.2-6.31,1.16,3.02,3.21,4.57,6.25,5.72-2.15,2.45-4.29-2.3-5.29.13.93.29,1.46.48,2.29,1.08l-6.13,2.14,1.93.32-7.02,6.59c-4.75,4.46-4.4,7.1-6.93,3.89Z"/>
      <polygon class="cls-1" points="5.11 39 0 40.71 1.74 35.22 5.11 39"/>
      <path class="cls-1" d="M6.73,38.06c-3.35-.07-4.8-4.39-3.9-4.67l.97-.3c.35,1.99,1.64,3.36,3.51,3.88.2.03-.3,1.1-.58,1.09Z"/>
      <path class="cls-1" d="M32.51,5.04c-2.78-.02-5.05.83-6.32,3.15-1.22,2.24-.75,4.92,1.11,6.87s4.35,2.11,7.06.78c-1.54,2.01-4,2.71-6.59,2.08-3.97-.96-6.18-5.14-4.83-9.06,1.24-3.59,5.77-6,9.55-3.83Z"/>
      <path class="cls-1" d="M30.94,14.2c-.18-.69-.36-1.86-.74-2.29-.37-.43-1.51-.67-2.29-.96.66-.23,1.94-.42,2.3-.9s.53-1.72.71-2.43c.35.91.47,2.19.98,2.57.56.42,1.83.57,2.68.74l-2.76.91-.88,2.37Z"/>
    </g>
  </g>
</svg>