<?xml version="1.0" encoding="UTF-8"?>
<svg id="Warstwa_2" data-name="Warstwa 2" xmlns="http://www.w3.org/2000/svg" viewBox="0 0 49.06 49.34">
  <defs>
    <style>
      .cls-1 {
        fill: #fff;
      }
    </style>
  </defs>
  <g id="game-icon-v7-magic-pixarts-store">
    <g id="game-icon-v7-magic-pixarts-store_01">
      <path class="cls-1" d="M9.68,16.5l.65-.81c.13-.17-.34-.5-.45-.64l.54-.66c.11-.13-.47-.35-.63-.33-.21.02-.83.24-.87.06l-.21-1.03c-.04-.22-.79-.17-.82.04l-.14.98-.64,1.12,1.55.66c.24.1.84.81,1.01.6Z"/>
      <path class="cls-1" d="M7.09,26.08c-.41-.34-1.01-.6-1-.91l.03-1.52c0-.48-1.79,0-1.88.37l.75,2.43.38-1.1.79,1.12c.13.18.96-.31.94-.39Z"/>
      <path class="cls-1" d="M6.99,19.55c-.72-.12-1.81-.15-2,.08l2.56,1.05.79-2.28-2.19-1.1c-.19-.02-.52,1.1-.31.99.65-.06,1.03-.09,1.32.1.24.16.05,1.26-.17,1.15Z"/>
      <path class="cls-1" d="M8.37,30.28c.13-.03-.09-.51-.23-.48l-.91.23s-.54-.56-.35-.61l.92-.23c.06.08.19-.78-.04-.74-.23.03-.96.21-1.18.36-.83.56-1.25,2.55-.27,3.42l.14-1.32c.03-.27.82-.36,1.18-.45l.74-.19Z"/>
      <path class="cls-1" d="M7.06,34.35c-.09-.03.23.48.39.47l.79-.08-.25,1.04,2.72-1.28-1.29-1.71c-.61.84-1.29,1.29-2.36,1.56Z"/>
      <g>
        <path class="cls-1" d="M46.67,20.87c-1.75-9.85-9.32-17.16-19.19-18.68-1.2-.19-2.12-1.2-3-2.19-1.01,1.43-2.24,2.1-3.92,2.42C11.12,4.18,3.92,11.57,2.38,21.06c-.25,1.54-1.04,2.57-2.38,3.63,1.13.98,2.1,2,2.32,3.4,1.52,9.42,8.6,16.8,17.97,18.84,1.75.38,3.17.9,4.25,2.42,1-1.19,2.03-1.92,3.66-2.25,9.52-1.89,16.54-8.92,18.39-18.29.33-1.69,1.14-3.06,2.46-4.12-1.23-.99-2.1-2.24-2.38-3.82ZM24.56,46.07c-11.81,0-21.38-9.57-21.38-21.38S12.75,3.31,24.56,3.31s21.38,9.57,21.38,21.38-9.57,21.38-21.38,21.38Z"/>
        <path class="cls-1" d="M40.49,24.65c0-8.81-7.14-15.95-15.95-15.95s-15.95,7.14-15.95,15.95,7.14,15.95,15.95,15.95,15.95-7.14,15.95-15.95ZM9.68,24.67c0-8.22,6.66-14.88,14.88-14.88s14.88,6.66,14.88,14.88-6.66,14.88-14.88,14.88-14.88-6.66-14.88-14.88Z"/>
        <path class="cls-1" d="M42.45,23.64l-.84-.16.17,2.83.81-.77c.69.54,1.13.96,1.36.77.18-.15.56-.74.59-.98l.21-1.62-1.64-1.04c-.26.55-.43,1.03-.66.98Z"/>
        <path class="cls-1" d="M16.79,9.19c.14-.61-.56-1.48-1.07-1.59-.17.06-.3.12-.42.16h0c-.49.19-.49.19,0,0l.24-1.07-1.82.89,1.38,2.32c.28.48,1.54-.1,1.68-.7Z"/>
        <path class="cls-1" d="M15.3,7.76h0c-.49.19-.49.19,0,0Z"/>
        <path class="cls-1" d="M41.63,29.94c.12.16-.47.7-.47.77l1.83,1.3,1.12-2.78-3.4-.47.92,1.19Z"/>
        <path class="cls-1" d="M39.77,34.28c.05.19-.65.22-1.09.36-.68-.09-.56,0,.09.24.44.19,1.09.34,1.19.63l.3.92,1.4-1.51.45-1.16-2.69-.83.35,1.34Z"/>
        <path class="cls-1" d="M20.28,41.27c-.14-.09-.29.41-.45.62l-.47.61c-.1.14-.61-.25-.53-.4l.28-.55c.14-.27.3-.48.19-.56-.12-.08-.43-.3-.48-.17l-.2.5-.97,2.39c.57-.24,1.47-.89,1.64-.58l.67,1.25.52-1.89c.2-.16.92-.5.73-.61l-.93-.6Z"/>
        <path class="cls-1" d="M37.27,12.79l2.17-1.26c-.34-.17-1.15-.31-1.23-.64l-.36-1.46-2.02,2.45,1.45-.68v1.6Z"/>
        <path class="cls-1" d="M23.59,45.34l.48-2.71.95.17-.07,2.21,1.41-2.93-3.16-.16c-.04,1.33-.06,2.08.39,3.42Z"/>
        <path class="cls-1" d="M23.8,5.55l-.35.78c-.09.2-.25.68-.31.88-.06.2.73.4.87.26.15-.14.43-.42.35-.34l-.37-1.18c-1.3-4.12,2.71,4.66,1.91,1.49l-1.01-2.24.92-.61c-.52.02-.84.11-.93-.01l-.31-.43-1.65.76c.37.23.97.45.88.65Z"/>
        <path class="cls-1" d="M34.01,10.09l1.54-1.75-1.44-1.61c-1,.56-1.69,1.65-1.71,2.37l1.65-.91-.04,1.9Z"/>
        <path class="cls-1" d="M13.57,11.13c-.92-.25-1.1-.21-1.17-.41l-.32-1c-.08-.25-.81-.32-.96-.12l-.68.94,1.75,2.07c.32-.21,1.23-1.23,1.38-1.48Z"/>
        <path class="cls-1" d="M37.06,36.53v1.14c.01.13-1.78-.17-1.12.26l.48.3c.55.35.8.72,1.44,1.59l.28-1.12.95.15c-.46-1.03-1.18-1.77-2.02-2.32Z"/>
        <path class="cls-1" d="M42.94,18.9c.06.23-.55.76-.76.65l-.96-.49.05,1.57,2.66-.65-.5-.77c-.1-.15.25-.53.21-.7-.08-.32-.61-1.33-.88-1.14l-.82.58c.58.43.91.66,1,.94Z"/>
        <path class="cls-1" d="M19.45,6.99c.04-.19.29.33.17.48l-.69.91c.74.02,1.8-.9,1.66-1.43-.33-.66-.52-1.13-.66-1.71-.17.21-.56.87-.79.75l-1.01-.54c-.04.16.1,1.13.21,1.56.08.3.61.27,1.11-.02Z"/>
        <path class="cls-1" d="M30.55,6.41c.69-.24.96-.34.83-.38l-.7-.2c-.29-.08-.86-.4-1.1-.57-.32.46-1.06,1.36-1.36,1.66l1.24,1.28,1.1-1.79Z"/>
        <path class="cls-1" d="M29.63,42.06c-.18-.21-.85-1.02-1.02-.77l-.62.9c.73.61.97.87,1.66,1.75l.53-1.27.6,1.52c.24-.45.26-1.24.03-1.68-.15-.29-.67-.31-1.17-.45Z"/>
        <path class="cls-1" d="M31.98,40.64c.18.14.9.47.93.75l.13,1.28c.02.23,1.08-.14.99-.37l-.44-1.12.55-2.09-2.16,1.54Z"/>
        <path class="cls-1" d="M15.13,39.22l-1.21,1.61c-.22.3.24,1.13.56,1.34.32.22,1.49,0,1.36-.24l-1.57-.82,2.39-.82-1.53-1.07Z"/>
        <path class="cls-1" d="M40.88,15.84l1.7-.34-1.57-.74.07-1.67-1.28,2.56.17,1.61c.3-.42.52-1.34.9-1.41Z"/>
        <path class="cls-1" d="M24.59,38.44l6.65-11.45c.14-.24-.04-1.15-.17-1.08l-.52.31-5.88,10.27c-1.48-1.96-2.21-3.46-3.25-5.27l-3.99-6.95c1.09-.76,1.61-1.54,2.43-2.77l2.63,6.92.11-3.69c0-.3,1.21-.25,1.22.09l.13,8.81c0,.29.39.8.51.96.12.15.63-.61.64-.86l.26-9c0-.29,1.07-.24,1.09.04l.21,3.05,2.81-6.18,4.8,8.99-4.28.14c-.31,0-.86.57-.97.89h7.04s-5.12-9.26-5.12-9.26c-.47-.84-.64-1.08-.05-2.08l-5.62.84c-.11-2.47.37-4.43-.66-6.71l-.89,6.79c-1.78-.38-3.56-.62-4.91-.5l-1.42,3.35-2.89-5.32,6.03.02-1.59,1.13c.03.13,1.42.16,1.68-.29l3.91-6.77,3.73,6.27c.11.19.72.37.87.41.15.04-.04-.53-.15-1.02l5.56.31-2.27,4.26c-.13.24.13.9.47,1.03l3.58-6.43c-2.91-.02-4.94-.26-7.52.38l-4.28-7.61-3.89,7.18-7.88.15,7.3,13.02-5.47-.17,1.96-3.61c.24-.44.11-1.18-.31-1.64l-3.33,6.25,7.51.07,4.17,6.77ZM27.72,22c.2,1.82-5.85,2.22-6.75-.2,2.27.5,4.06.63,6.75.2Z"/>
        <path class="cls-1" d="M35.77,19.84c.49,3.42.38,6.18,0,9.55,1.94-2.87,1.94-6.82,0-9.55Z"/>
        <path class="cls-1" d="M13.3,21.47c.11-.39-.16-1.03-.56-1.31-1.12,2.99-1.24,5.93.09,8.98,1.53-.98-.98-2.45.46-7.67Z"/>
        <path class="cls-1" d="M22.4,36.94l-7.72-4.61c1.65,2.67,4.75,4.61,7.72,4.61Z"/>
        <path class="cls-1" d="M15.98,16.47c1.9-1.83,4.16-2.55,6.55-4.05-3.24-.01-5.97,1.93-7.75,4.26.4.06,1.02-.04,1.2-.21Z"/>
        <path class="cls-1" d="M33.11,32.83c-1.8,1.98-4.19,2.71-6.78,4.11,3.07.33,5.7-1.64,7.77-4.08.23-.27-.81-.23-1-.03Z"/>
        <path class="cls-1" d="M26.81,12.49l7.35,4.39c-1.35-2.61-4.53-4.48-7.35-4.39Z"/>
      </g>
    </g>
  </g>
</svg>