<?xml version="1.0" encoding="UTF-8"?>
<svg id="Warstwa_2" data-name="Warstwa 2" xmlns="http://www.w3.org/2000/svg" viewBox="0 0 43.9 44.94">
  <defs>
    <style>
      .cls-1 {
        fill: #fff;
      }
    </style>
  </defs>
  <g id="game-icon-v7-magic-pixarts-store">
    <g id="game-icon-v7-magic-pixarts-store_65">
      <path class="cls-1" d="M10.6,38.84c.28-.04.67-.37,1.02-.67,2.88,1.49,6.57,4.17,9.85,1.78-2.6-.43-5.11-.63-6.69-2.74,4.93,2.37,4.45,1.8,9.71,2.2l.3-2.05-2.93-.69c-.21-.05-1.1.34-1,.54l.49.96c-2.36.84-5.69-3.96-6.44-6.21-.11-.35-.17-.85-.35-.75-1.62.95-.8,1.83-.48,3.49l.29,1.49c-2.32-.65-5.06-4.02-3.26-6.25,2.04-2.52,5.9-.11,8.46.52,2.44.6,5.38-.86,6.82-2.87,1.85-2.58,1.13-5.92-.99-7.98,2.06.36,2.85,2.17,3.21,4,.78-2.25-.72-4.45-2.39-5.13-2.22-.9-4.62-.52-5.83,1.56,1.56-.21,2.93-.07,3.61,1.26.94,1.85.09,4.2-1.71,5l.53-2.01c-1.57,2.09-3.92,3.02-6.47,2.1l-3.45-1.26c-1.88-.69-4.03.23-5.15,1.52-1.17,1.34-1.59,3.41-.86,5.16l1.6,3.82c-2.48-1.82-3.56-4.67-3.03-8.17-1.8,2.28-1.46,5.03-.17,7.46,1.49,2.81-.69,1.41,3.48,5.67l.67-.33c.71-.36-1.98-2.51-2.01-3.69l2.02,1.74c.24.2.85.58,1.14.53ZM24.95,26.67c-.74,2.16-3.18,2.65-5.1,2.36,1.98-.45,3.5-1.16,5.1-2.36ZM8.39,30.74c-.5-1.41.19-2.69,1.07-3.42.99-.82,2.38-.93,3.6-.5-2.46.54-4.34,1.59-4.67,3.92Z"/>
      <path class="cls-1" d="M41.05,38.6l-2.16-1.82c-.69-2.89.78-6.52-1.44-7.55-.8,1.56-.25,2.81-.05,4.38.14,1.11-.61,2.86-.13,3.88l1.22,2.63c.41.15,1.52.26,1.61.64l.41,1.66-1.03-1.18c-.15-.17-.91.06-1.09-.12-.54-.53-.97-1.85-1.37-2.84l-3.02-.53,2.42-.07.38-3.01c.08-.66-.49-1.74-.53-2.41-.22-3.33.61-10.24-.62-10.3-3.75,2.01-1.76,4.34-3.19,9.19-.52,1.77-.75,3.23-1.04,5.31l-.36-2.47c-2.04.18-1.5-3.88-3.66-1.91-.3.27-.48.98-.44,1.49.22,3.62-1.6,2.56-1.9,6.14,5.54-3.57,2.64-3.76,4.61-5.84l-.55,3.17c.92.15,1.58.34,2.08.79l1.55,1.41c-1,1.35-2.38-2.76-4.69-.59-1.03.97-2.45,1.97-3.72,2.27-2.56-2.03-2.05,1.24-6.31.87l-1.65,1.49c-1.3.21-2.7.04-3.18,1.54,5.04.14,9.6.19,14.69-.21l-1.99-.94,8.68-.02c-.75-1.45-1.81-1.73-3.3-2.06l-1.64-1.1c3.9,1.19,3.61-.09,5.78,2.7l8.5.2c-1.84-1.53-3.19-2.53-2.85-4.8Z"/>
      <path class="cls-1" d="M33.67,3.59c.66,1.17.68,2.45.19,3.54.18-2.58-1.9-4.46-4.23-4.27,1.32.6,2.49,1.58,2.77,2.65.38,1.45-.19,2.81-1.26,3.83-1.83,1.74-4.55,2.54-7.23,2.11-3.69-.59-7.39.07-9.82,3.16-1.65,2.1-1.62,5.05.04,7.16,1.47,1.86,4.02,2.83,6.44,1.82-2.66-.21-4.25-1.74-4.12-4.22.15-2.78,2.36-4.98,5.01-5.24-1.76.98-3.34,2.2-3.26,4.27,5.14-5.38,10.04-.86,17.43-3.62,2.8-1.05,4.95-3.07,5.7-5.98.47-1.83-.1-3.97-2.07-4.72.81,1.39,1.25,2.95.61,4.53-1.81,4.47-7.2,5.49-11.22,5.04,4.4-.73,9.01-2.69,8.73-7.52-.14-2.41-1.54-4.33-3.91-5.43-3-1.39-6.78-.63-9.02,2.06,3.18-1.08,7.45-2.29,9.24.85ZM14.7,19.76c-.49-1.77-.28-3.37,1.06-4.92.1-.01.44-.05.55-.06,0,0,0,0,0,0,.05,0,.04,0,0,0-1.17,1.87-1.5,3.03-1.61,4.97Z"/>
      <path class="cls-1" d="M12.74,43.41c2.32-1.51,2.86-.44,4.27-2.04-2.61-.08-5.28-2.64-6.56-1.43-.41.39-.68,1.19-1.12,2.21l-1.66-1.22-3.7,1.62c.62-1.04,1.39-1.42,2.73-1.98l-2.46-2.84-1.08,1.56c-1.8.79-.46,2.51-1.53,3.11l-1.63.9c4.24.28,8.45.36,12.74.11Z"/>
      <path class="cls-1" d="M11.93,21.91c-3-4.7-1.22-10.25,3.75-12.57,2.91-1.35,5.77-1.29,8.99-1.39-2.08-.76-4.29-1.02-6.54-1-3.57.26-6.22,2.16-8.2,5.12-2.12,3.15-1.38,7.74,1.99,9.85Z"/>
      <path class="cls-1" d="M8.35,22.56c-1.56-1.36-3.69-.65-5.1.74-1.67,1.65-1.76,4.46-.79,6.51.25-4.21,1.59-6.73,5.9-7.25Z"/>
      <path class="cls-1" d="M32.44,17.66c2,.37,3.32.42,4.97.43,2.08-.81,4.15-2.05,4.83-4.36-1.56,1.42-3.04,2.49-5,2.91l-4.79,1.02Z"/>
      <path class="cls-1" d="M9.22,8.65c2.04-1.62,4.11-2.94,6.49-3.59-2.84-.38-5.66.81-6.49,3.59Z"/>
      <path class="cls-1" d="M30.98,27.76c.34-.94.19-2.02-.23-2.72-.43,1.93-1.15,3.04-2.29,4.37,1.33.05,2.22-.83,2.52-1.65Z"/>
      <path class="cls-1" d="M6.66,18.19l-.54-3.49c-.96,1.18-.92,2.93.54,3.49Z"/>
    </g>
  </g>
</svg>