<?xml version="1.0" encoding="UTF-8"?>
<svg id="Warstwa_2" data-name="Warstwa 2" xmlns="http://www.w3.org/2000/svg" viewBox="0 0 41.79 46.11">
  <defs>
    <style>
      .cls-1 {
        fill: #fff;
      }
    </style>
  </defs>
  <g id="game-icon-v7-magic-pixarts-store">
    <g id="game-icon-v7-magic-pixarts-store_70">
      <path class="cls-1" d="M39.16,4.87c-.98,0-2.09.83-2.59,1.63,1.02.25,2.46.18,3.01.92,1.73,2.32.38,6.9-2.71,7.32-1.91.26-4.07-.85-5.84-1.46-5.75-1.98-11.29-3.3-17.42-3.24l-1.3,2.23c-.1.18.18.91-.02.98-2.36.78-5.83,10.38-5.52,13.37l1.55,1.47-1.78.45c-.16.9-.22,2.01-.13,3.01,6.38,2.63,12.95,3.56,19.87,3.91,1.19.06,3.13.14,3.95,1.09,1.74,2.01,1.22,5.1-.33,6.79-1.11,1.21-2.38.68-4.24.37-.05.7.72,1.92,1.38,2.21.8.35,2.15.2,2.81-.28,3.34-2.43,3.38-7.02,3.34-10.7l-1.67-.75,1.82-.51c-.41-4.6,1.1-8.61,3.38-12.56l-2.28-1.25,2.83-.25,2.95-4.76c2.8-4.51,1.5-10.01-1.05-9.99ZM15.06,13.16c1.29.16,1.65,1.21,2,2.32,1.25-.43,2.53-1.14,4.04-.9-2.86,1.04-4.89,2.14-6.81,4.37.32-1.14,1.35-2.09,1.95-2.95l-1.17-2.84ZM13.96,27.21c-.89,1.07-1.69,1.97-3.01,1.48.81-.8,1.8-1.49,2.74-2.07-.2-1.02-.39-2.2-.4-3.34.82,2.69,1.95,4.65,4.09,6.72-1.57-.26-2.21-1.5-3.42-2.79ZM26.39,29.96l.85.63c.36.27.53,1.06.52,2.2-.83-.79-1.52-1.67-2.27-2.74-1.2.5-2.58,1.12-3.99.88,2.78-.95,4.96-2.16,6.88-4.48.32,1.41-2.74,2.96-1.99,3.51ZM27.53,25.3c-1.44,2.47-3.74,4.32-6.85,4.2l-2.11,3.97-.02-4.45c-2.45-1.2-4-3.49-3.87-6.4l-3.7-2.06,4.05-.18c1.28-2.78,3.95-4.47,7.14-4.42l2.01-3.44.07,4.09c2.63,1.15,3.86,3.8,3.8,6.49l3.47,1.86-4,.34ZM29.09,19.02c.25.99.7,2.04.21,3.14-.62-2.56-1.51-4.51-3.71-6.41,1.41.11,2.24,1.38,3.12,2.6.81-.78,1.64-1.5,3.21-1.52-.56,1.01-1.7,1.62-2.83,2.19Z"/>
      <path class="cls-1" d="M13.48,0c-2-.05-3.28,2.01-3.78,3.32-.7,1.83-.02,4.21,1.61,5.34,8.11.11,15.67,1.71,23.35,4.79-1.19-3.93-.31-7.03,2.65-9.08C28.89,4.51,21.02,3.1,13.48,0Z"/>
      <path class="cls-1" d="M26.68,36.57c-8.44-.25-16.01-1.98-23.49-4.97-2.04.55-2.91,2.3-3.17,4.19-.17,1.24.66,3.66,2.27,4.2,7.88.83,15.2,2.56,22.9,5.86-1.88-3.35-1.53-6.73,1.49-9.29Z"/>
      <path class="cls-1" d="M28.53,40.74l-.6-.58c-.53.54-.82,1.62-.34,2.64.23.5,1.69.14,2.01-.4.93-1.56,1.28-3.92-.13-5.19-.99-.89-2.71.23-2.98,1.1,1.11.18,2.48.69,2.67,1.4.06.21-.07.99-.13,1.18-.04.14-.39-.05-.5-.16Z"/>
      <path class="cls-1" d="M35.86,13.18c.24.33,1.27.46,1.64.28,1.73-.83,2.41-3.19,1.85-4.81-.1-.3-.91-.88-1.11-.66l-.72.78c-.19.21-.29,1.28-.01,1.32l.97.15c-.41,1.53-1.33,1.52-3.29,1,.09.6.35,1.49.67,1.94Z"/>
      <path class="cls-1" d="M25.41,40c-.22.49-.39,1.62-.26,2.16.06.24.81.51,1.06.57.82.19-.33-1.73,1.33-3.32-.68-.21-1.84-.06-2.13.59Z"/>
      <path class="cls-1" d="M37.13,7.62c-.74-.21-1.69.26-1.89,1.14-.19.85.41,1.72,1.2,1.73l.69-2.88Z"/>
      <path class="cls-1" d="M21.29,16.9c-3.2,0-5.79,2.59-5.79,5.79s2.59,5.79,5.79,5.79,5.79-2.59,5.79-5.79-2.59-5.79-5.79-5.79ZM23.86,22.61c-.95.59-1.96.96-3.12,1.33-.56.18-1.78,1.44-1.07,1.84.98.55,2.07.74,3.29,1.17-1.16.18-4.67.47-5.07-1.17-.64-2.62,4.35-3.13,5.55-4.47.21-.24.1-1.23-.14-1.44-.36-.31-1.49-.47-1.82-.14l-1.5,1.52c-.18-.52-.16-1.63.2-2.15.3-.45,1.38-.9,2.06-.91,1.09-.01,2.18.65,2.53,1.45.39.89.03,2.39-.91,2.97Z"/>
    </g>
  </g>
</svg>