<?xml version="1.0" encoding="UTF-8"?>
<svg id="Warstwa_2" data-name="Warstwa 2" xmlns="http://www.w3.org/2000/svg" viewBox="0 0 40.54 44.71">
  <defs>
    <style>
      .cls-1 {
        fill: #fff;
      }
    </style>
  </defs>
  <g id="game-icon-v7-magic-pixarts-store">
    <g id="game-icon-v7-magic-pixarts-store_17">
      <path class="cls-1" d="M19.77,10.56l-5.31-2.39-2.73,26.64,8.07,3.4-.04-27.65ZM16.57,10.75c.62,1.89,1.52,3.4,1.47,5.56-.75-1.41-1.17-2.73-1.67-4.16l-.45,2.88c-.54-1.43-.67-3.12.65-4.28ZM15.63,31.13c.42-.21,1.07-.23,2.12-.15l-1.27,1.4,1.42,2.34c-1.47-.14-2.14-1.97-2.28-3.59ZM16.9,23.34l.74,2.84-.58,2.41-2.48,1.59c-.14.89.07,2.29.26,3.34-.78-.75-1.64-2.59-.59-3.57.95-.88,2.06-1.61,2.62-2.99.31-.77-.33-2.38-.7-3.04-.82.8-1.17,1.52-2.13,1.33l1.88-2.29c-.76-.84-1.27-2.68-.73-3.75l1.28-.15.25-3.57c.69,1.06,1.2,3.45-1.05,4.66.13.6.47,1.78.65,2.3l2.01-1.45-1.42,2.36Z"/>
      <path class="cls-1" d="M20.7,10.61l.02,27.6,8.13-3.41-2.86-26.62-5.29,2.43ZM22.84,12.72l.9-1.85,1.73,2.69-1.76,5.22c-1.63-1.38,2.04-4.14.08-6.63-.59,1.16-.92,2.36-1.26,3.95-1.02-.98-.21-2.31.31-3.37ZM22.65,34.92c-.09-.55,2.28-4.16.42-3.73-1.11.25,1.36-.99,1.3-1.48l-.28-2.25,1.11,1.37c.4.49-.09,1.81-.27,2.33l-.89,2.49c-.19.52-.84,1.17-1.37,1.29ZM24.46,34.35c.95-1.25,1.57-2.53,2.16-4.31.57,1.71-.09,3.76-2.16,4.31ZM24.44,24.3l-1.56,4.41c-1.26-2.62,1.15-3.29.97-4.99-.11-1.03-2.17-1.58-1.79-2.89l2.07,1.66,1.03-2.14-1.46-1.26c.68-.05,1.27-.08,1.63.09.35.17.53,1.41.37,1.77l-.94,2.14c.77.77,1.39,1.29,1.45,2.48l-1.75-1.27Z"/>
      <path class="cls-1" d="M31.64,37.08l-10.84,4.72c-.13.83-.12,1.71.09,2.88l10.88-4.99c.07-.9.03-1.87-.13-2.6Z"/>
      <path class="cls-1" d="M19.68,41.78l-10.82-4.7c-.19.93-.19,1.94.08,2.73l10.81,4.89-.06-2.92Z"/>
      <polygon class="cls-1" points="20.73 9.51 25.7 7.13 20.62 0 20.73 9.51"/>
      <polygon class="cls-1" points="19.76 9.39 19.74 .15 14.79 7.21 19.76 9.39"/>
      <path class="cls-1" d="M10.06,36.51l9.37,4.19c.19-.11.54-.92.4-1.14-.14-.22-.52-.49-.96-.68l-7.47-3.22c-.38-.16-1.24.31-1.34.84Z"/>
      <path class="cls-1" d="M20.84,39.26l.08,1.5,9.71-4.26c-.48-.64-1.1-.82-1.68-.69l-8.11,3.46Z"/>
      <path class="cls-1" d="M30.02,14.96c3.55,1.25,6.92.87,10.52.02-3.48-.76-7.04-1.05-10.52-.02Z"/>
      <path class="cls-1" d="M10.54,14.98c-3.56-.98-6.92-.81-10.54-.02,3.43.87,6.91,1.26,10.54.02Z"/>
      <path class="cls-1" d="M10.43,12.05c-1.91-1.63-3.93-2.31-6.2-2.7,1.74,1.65,3.91,2.92,6.2,2.7Z"/>
      <path class="cls-1" d="M4.37,20.63c2.4-.3,4.29-1.15,6.05-2.52-2.41-.28-4.49,1.01-6.05,2.52Z"/>
      <path class="cls-1" d="M30.22,18.01c1.43,1.52,3.52,2.31,5.78,2.54-1.66-1.54-3.46-2.47-5.78-2.54Z"/>
      <path class="cls-1" d="M35.92,9.47c-2.27.39-4.15,1.08-5.9,2.57,2.26.28,4.43-1.08,5.9-2.57Z"/>
      <path class="cls-1" d="M6.92,4.74c1.1,1.82,2.23,3.57,4.36,4.43-.91-1.98-2.44-3.46-4.36-4.43Z"/>
      <path class="cls-1" d="M29.26,9.1c2.14-.71,3.23-2.46,4.18-4.35-1.83,1.02-3.42,2.35-4.18,4.35Z"/>
      <path class="cls-1" d="M6.94,25.15c1.65-.82,3.11-1.9,3.76-3.77-1.62.67-2.88,2.09-3.76,3.77Z"/>
      <path class="cls-1" d="M33.33,25.08c-.82-1.74-1.86-3.11-3.61-3.56.79,1.73,2.11,2.9,3.61,3.56Z"/>
    </g>
  </g>
</svg>