<?xml version="1.0" encoding="UTF-8"?>
<svg id="Warstwa_2" data-name="Warstwa 2" xmlns="http://www.w3.org/2000/svg" viewBox="0 0 58.45 58.27">
  <defs>
    <style>
      .cls-1 {
        fill: #fff;
      }
    </style>
  </defs>
  <g id="game-icon-v7-magic-pixarts-store">
    <g id="game-icon-v7-magic-pixarts-store_73">
      <path class="cls-1" d="M16.98,30.97c-3.67-1.13-7.43-1.25-11.41-.7-.8,4.97.03,9.93,2.37,14.41,3.82,7.31,12.28,9.15,20.14,8.3,1.61-9.32-1.17-18.96-11.1-22.01ZM21.03,37.4c2,2,2,5.24,0,7.24s-5.24,2-7.24,0-2-5.24,0-7.24,5.24-2,7.24,0ZM15.52,49.31c-6.72-3.19-8.73-10.43-8.21-17.21,3.51-.08,6.53.37,9.69,1.73-2.81.78-5.2,1.85-6.25,4.55-.83,2.14-.29,4.75.7,6.21,1.5,2.21,3.61,3.57,6.05,3.53,3.76-.07,6.28-2.96,6.98-6.74,1.5,3.07,1.96,6.01,1.78,9.65-3.63.59-7.36-.11-10.75-1.72Z"/>
      <path class="cls-1" d="M30.11,30.29c-.41.32-1.69-.26-1.86-.77-.14-.43.02-1.44.26-1.84l1.08-1.81c-1.27-.08-2.22.42-2.74,1.33-.37.64-.27,2.06-.2,3.01.04.51-1.43,1.24-1.93.95l-3.43-1.98-.07-4.06-2.49,3.18-5.22-.84-1.72-3.07-.65,3.74c12.87,1.87,17.52,7.78,19.17,19.71l2.98-1.46-2.27-1.16-.9-5.65,3-2.16-3.62-.21-2.05-2.96c-.33-.48-.58-1.51-.29-1.91,1.23-1.7,2.55.62,4.44-1.3.54-.55.8-1.56.74-2.46l-2.24,1.73Z"/>
      <path class="cls-1" d="M3.83,35.51l-3.83.82,3.27,1.75.66,5.21-2.75,2.12,3.73.07,2.15,3.86-2.15,4.01,4.31-2.01,3.83,2.46-.2,3.25,2.38-2.64,5.31.85,1.48,3,1.2-3.77c-12.8-1.44-17.5-6.49-19.41-18.99Z"/>
      <path class="cls-1" d="M58.45,25.04c-.14-.51-.92-1.26-1.33-1.07-4.09,1.87-8.11,3.27-12.46,3.77-5.47.63-7.32-1.04-9.34-1.15-3.25-.19,5.83,7.32,23.13-1.56Z"/>
      <path class="cls-1" d="M30.71,23.26c.23.4,1.12-.77.97-1.17-3.95-10.22,3.42-20.79,2.6-21.38l-.99-.7c-3.27,6.03-6.28,16.76-2.58,23.26Z"/>
      <path class="cls-1" d="M35.34,25.17c.15-.85-1.69-2.44-2.49-2.32-1.45,1.6-2.61,3.57-3.21,5.76,2.34-.6,4.61-1.54,5.7-3.44Z"/>
      <circle class="cls-1" cx="17.08" cy="38.62" r="1.95"/>
    </g>
  </g>
</svg>