<?xml version="1.0" encoding="UTF-8"?>
<svg id="Warstwa_2" data-name="Warstwa 2" xmlns="http://www.w3.org/2000/svg" viewBox="0 0 43.34 43.37">
  <defs>
    <style>
      .cls-1 {
        fill: #fff;
      }
    </style>
  </defs>
  <g id="game-icon-v7-magic-pixarts-store">
    <g id="game-icon-v7-magic-pixarts-store_185">
      <path class="cls-1" d="M33.74,19.97c1.06,1.36,2.94,1.38,4.33.05.62.32.92.59.16.63-2.94,3.55-3.38.5-8.94.24-5.9-.27-6.99-1.09-10.07,2.26-.73.8-1.48,1.31-2.37,1.22.35-3.16,2.61-6.83,6.05-6.78l8.17.11c2.7.04,5.38-1.34,6.52-3.91,1.84-4.15-.51-8.87,4.59-9.25-4.28,3.36-.08,5.07-2.95,10.47,2.26-.03,2.06-1.42,3.56-2.88.08-.08.58.04.54.14-1.14,2.53-1.18,3.8-4.59,4.52-1.31.27-2.59,2.44-4.06,2.4-2.04-.05-3.91.11-5.97.54l-2.95-.08c2.16.61,4.39.38,6.71-.07.45.03,2.2,0,1.26.36Z"/>
      <path class="cls-1" d="M24.51,16.42l-1.62.11c.49-2.37-.12-4.33-1.59-6.19-1.12-1.42-1.16-3.68.47-4.75-.61,2.1.08,3.63,1.77,4.98l1.73-6.96c.4-1.61,1.61-2.99,3.21-2.82-1.26.98-2.11,2.32-1.88,3.68,5.41-3.35,8.34.14,10.47-4.47.73,2.16-1.43,3.86-3.46,4.14-2.54.34-4.35,1.06-6.02,3.17l.64-1.7c-3.15,2.05-1.9,6.62-1.34,10.56.07.49-1.58.83-1.58.33v-4.39s-.8,4.3-.8,4.3Z"/>
      <path class="cls-1" d="M11.94,30.83c-.76.96-1.08,1.66-2.38,2.44l1.32-3.99c.59-1.8,1.86-3.19,3.87-3.5l6.41-.99c1.82-.28,3.27-1.79,5.17-2.71-.76,2.53-2.12,5.4-5.16,5.86l-6.38.96-1.98,2.87c-.06.09-.49.33-.6.38s-.45-.07-.44-.19l.18-1.14Z"/>
      <path class="cls-1" d="M33.18,15.25c-2.31,1.43-5.63-1.64-5.59-3.98.04-2.22,1.3-3.86,3.19-4.24,1.96-.4,3.89.09,5,1.69.86,1.24,1.54,4.18-.21,5.13-.7.38-1.41.8-2.39,1.4ZM30.15,13.71c2.34-.88,3.79-2.7,3.94-5.02-2.35.51-4.15,2.6-3.94,5.02Z"/>
      <path class="cls-1" d="M0,43.37c.32-1,1.61-1.84,2.61-2.68,1.12-6.07,2.61-5.14,8.6-7.22,2-.69,3.54-2.15,4.35-3.9.42.23.5.34.65.25l1.19-.65c-1.49,3.86-1.93,5.47-6.17,6.75-7.45,2.24-5.24,7.08-11.23,7.45Z"/>
      <path class="cls-1" d="M32.77,24.72c-1.64,1.11-3.91.7-5.15-.51,1.32-1.84,3.82-.76,5.15.51Z"/>
      <path class="cls-1" d="M18.8,17.49c-1.1-1.71-.42-3.55.53-5.17,1.3,1.5,1,3.76-.53,5.17Z"/>
      <path class="cls-1" d="M25.18,21.7c-1.42,1.39-2.86,2.56-5.03,2.39l1.33-1.46c.88-.96,2.09-1.53,3.7-.93Z"/>
      <path class="cls-1" d="M6.29,41.59l2.33-3.36c.33-.48,1.29-.89,1.97-1.03-.62,2.27-2.2,3.88-4.3,4.4Z"/>
    </g>
  </g>
</svg>