<?xml version="1.0" encoding="UTF-8"?>
<svg id="Warstwa_2" data-name="Warstwa 2" xmlns="http://www.w3.org/2000/svg" viewBox="0 0 35.46 36.75">
  <defs>
    <style>
      .cls-1 {
        fill: #fff;
      }
    </style>
  </defs>
  <g id="game-icon-v7-magic-pixarts-store">
    <g id="game-icon-v7-magic-pixarts-store_148">
      <path class="cls-1" d="M30.22,29.2c-1.53.63-28.64,1.71-25.15-1.39l1.41-1.26c-.11-.11-.9-1.07-1.14-1.46.28-1.4.76-12.77.42-12.55l1.72-1.07c-.71-.41-1.49-.82-1.88-1.24-.44-.48-.48-2.53.14-2.63,8.09-1.12,16.66-1.18,24.42.15l-.64,14.9-1.42,1.11,1.64.74.48,4.7ZM15.01,14.57c1.98-3.02,5.17-3.71,8.42-2.47-2.72-3.2-7.43-2.89-10.45-.21-1.97,1.75-3.05,4.18-2.86,6.77.16,2.19,1.5,4.51,3.47,5.94,3.12,2.27,7.57,2.36,10.21-.93-2.86,1.01-5.68.72-7.62-1.17-2.15-2.09-2.87-5.32-1.15-7.93ZM20.63,20.97c.53-2.04,1.54-2.6,3.19-3.16-1.62-.63-2.78-1.55-3.28-3.35-.46,1.55-1.35,2.71-3.1,3.25,1.81.61,2.74,1.74,3.19,3.27Z"/>
      <path class="cls-1" d="M31.35,36.7c-9.12-.87-17.72-.93-26.86.05-1.06-2.05-1.07-4.32-.24-6.54,9.08.79,17.85.64,27.03.09.9,2,.78,3.89.08,6.4Z"/>
      <path class="cls-1" d="M31.07,6.67c-9.06-1.14-17.63-1.04-26.49,0C3.52,4.49,3.47,2.1,4.51.01c8.99.94,17.5.94,26.55-.01,1.11,1.99,1.23,4.46.01,6.67Z"/>
      <path class="cls-1" d="M3.13,6.44C2.01,4.82-.77,3.53.21,2.89l1.16-.76L2.97.36l.16,6.08Z"/>
      <path class="cls-1" d="M34.37,4.54l-1.79,1.8-.02-6.03,1.42,1.74c.48.29,1.03.51,1.15.89.13.42-.46,1.29-.76,1.59Z"/>
      <path class="cls-1" d="M1.33,34.57c-2.99-2.06.07-1.15,1.64-4.26l.08,5.99-1.72-1.73Z"/>
      <polygon class="cls-1" points="35.46 33.36 32.56 36.37 32.6 30.48 35.46 33.36"/>
    </g>
  </g>
</svg>