<?xml version="1.0" encoding="UTF-8"?>
<svg id="Warstwa_2" data-name="Warstwa 2" xmlns="http://www.w3.org/2000/svg" viewBox="0 0 35.13 36.91">
  <defs>
    <style>
      .cls-1 {
        fill: #fff;
      }
    </style>
  </defs>
  <g id="game-icon-v7-magic-pixarts-store">
    <g id="game-icon-v7-magic-pixarts-store_121">
      <path class="cls-1" d="M5.64,29.18c-.51-.06-.81-1.74-.4-1.93l1.85-.83-1.8-.75c.44-2.11.47-13.3.59-13.36l1.44-.79-1.83-.58-.33-3.17c8.3-1.23,16.56-1.15,25.05-.01l-.73,6.05-1.56.65c.5.26,1.23.63,1.51.82-.1,4.22.08,9.27.63,13.8-8,1.27-16.15,1.14-24.41.11ZM23.94,13.75c2.92,4.61.92,4.57,1.59,7.77,2.05-4.55-.36-9.01-4.33-11.14.31-1.08.11-.96-.52-.2-2.94-.93-5.72-.35-7.77,1.39-1-.53-2.23-.55-2.72.02-.56.67-.6,2.09-.17,2.7.39.55,1.99.73,2.69.32.57-.34.6-1.6.55-2.62,3.12-2.4,8.31-1.98,10.68,1.76ZM22.39,25.32c-3.78,1.57-7.3,1.52-10-.76-2.85-2.41-3.03-5.86-2.29-9.54-2.65,3.37-.83,8.21,2.15,10.43,2.92,2.17,7.7,2.74,10.14-.13ZM16.43,20.27l-1.02-2.45c-.23-.56.56-1.61.94-2.57l-2.39.85c1.84,2.01-.33,2.98,2.47,4.18ZM25.78,23.41c0-.99-.8-1.79-1.79-1.79s-1.79.8-1.79,1.79.8,1.79,1.79,1.79,1.79-.8,1.79-1.79Z"/>
      <path class="cls-1" d="M30.86,6.69c-9.06-.84-17.57-1.13-26.57.1-.82-2.22-1-4.66,0-6.77,9.05.94,17.55.95,26.53,0,1.29,1.96,1.2,4.39.04,6.69Z"/>
      <path class="cls-1" d="M30.96,36.76c-9.12-.81-17.56-1.11-26.38.16-1.18-2.16-1.29-4.58-.3-6.84,9.11,1.26,17.7.97,26.72.16.81,2.23.82,4.15-.04,6.53Z"/>
      <path class="cls-1" d="M34.17,4.32l-1.83,2,.07-6.11,1.35,1.95,1.22.53c.4.17-.44,1.34-.81,1.63Z"/>
      <path class="cls-1" d="M1.63,3.87l-.79.51c-.3.19-1-1.03-.79-1.31s.54-.5,1.11-.81L2.85.37l-.05,6.18c-.61-.64-1-1.7-1.17-2.68Z"/>
      <path class="cls-1" d="M34.1,34.55l-1.72,1.82-.07-6.02,1.82,2.06c.38.32.85.72.98,1.02s-.66.76-1.01,1.13Z"/>
      <path class="cls-1" d="M2.83,36.42c-1.23-2.16-3.08-2.31-2.8-2.99.15-.37.72-.82,1.18-1.19l1.6-1.89.02,6.06Z"/>
    </g>
  </g>
</svg>