<?xml version="1.0" encoding="UTF-8"?>
<svg id="Warstwa_2" data-name="Warstwa 2" xmlns="http://www.w3.org/2000/svg" viewBox="0 0 41.01 42">
  <defs>
    <style>
      .cls-1 {
        fill: #fff;
      }
    </style>
  </defs>
  <g id="game-icon-v7-magic-pixarts-store">
    <g id="game-icon-v7-magic-pixarts-store_104">
      <polygon class="cls-1" points="20.52 9.28 12.51 12.82 9.45 20.86 12.52 29.22 20.62 32.6 28.47 29.34 31.78 20.86 28.48 12.68 20.52 9.28"/>
      <polygon class="cls-1" points=".2 21.14 5.47 26.6 8.34 20.95 5.41 15.27 .2 21.14"/>
      <polygon class="cls-1" points="5.95 13.83 11.84 11.92 13.82 6.04 6.09 6.09 5.95 13.83"/>
      <path class="cls-1" d="M6.06,28.07c-.11,2.8-.04,4.98.13,7.81l7.6-.03-1.96-5.85-5.77-1.93Z"/>
      <polygon class="cls-1" points="32.84 20.97 35.78 26.42 40.89 21.04 35.8 15.32 32.84 20.97"/>
      <polygon class="cls-1" points="15.12 5.46 20.65 8.23 25.97 5.39 20.6 .06 15.12 5.46"/>
      <polygon class="cls-1" points="27.3 35.99 35.02 35.84 35.07 28.15 29.21 30.14 27.3 35.99"/>
      <polygon class="cls-1" points="27.44 6.05 29.43 11.96 35.15 13.8 35.03 6.05 27.44 6.05"/>
      <polygon class="cls-1" points="15.26 36.7 20.57 41.82 25.91 36.66 20.57 33.71 15.26 36.7"/>
      <polygon class="cls-1" points="29.73 28.85 35.02 27.14 32.34 22.17 29.73 28.85"/>
      <polygon class="cls-1" points="29.77 13.16 32.34 19.74 34.94 14.8 29.77 13.16"/>
      <polygon class="cls-1" points="6.19 14.82 8.88 19.72 11.4 13.06 6.19 14.82"/>
      <polygon class="cls-1" points="21.6 33.18 26.45 35.82 27.96 30.56 21.6 33.18"/>
      <polygon class="cls-1" points="21.84 8.73 28.13 11.44 26.45 6.26 21.84 8.73"/>
      <polygon class="cls-1" points="14.71 35.77 19.45 33.14 13.08 30.53 14.71 35.77"/>
      <polygon class="cls-1" points="6.26 27.1 11.22 28.75 8.86 22.18 6.26 27.1"/>
      <polygon class="cls-1" points="14.67 6.28 13.03 11.47 19.29 8.73 14.67 6.28"/>
      <path class="cls-1" d="M1.49,28.78l3.25-1.55L0,22.39c.15,2.49.63,4.23,1.49,6.38Z"/>
      <path class="cls-1" d="M.17,19.61l4.55-4.87-3.22-1.57C.68,15.35.05,17.05.17,19.61Z"/>
      <path class="cls-1" d="M14.55,37.31c-.59,1.29-.92,2.2-1.27,3.5,2.24.66,3.47,1.02,5.87,1.19l-4.6-4.7Z"/>
      <path class="cls-1" d="M14.58,4.7L19.23,0c-2.34.13-3.87.55-6.05,1.28l1.4,3.42Z"/>
      <path class="cls-1" d="M36.46,14.79l4.56,4.92c-.19-2.62-.6-4.24-1.38-6.55l-3.18,1.63Z"/>
      <path class="cls-1" d="M39.61,28.79c.83-2.71,1.26-4.15,1.32-6.44l-4.47,4.86,3.15,1.58Z"/>
      <path class="cls-1" d="M21.83,41.97c2.53-.14,4.22-.59,6.21-1.38l-1.41-3.26-4.8,4.64Z"/>
      <path class="cls-1" d="M5.1,13.68l.02-6.6c-1.63,1.87-2.46,3.31-3.3,5.3l3.28,1.3Z"/>
      <path class="cls-1" d="M26.64,4.64l1.32-3.28C25.84.58,24.19.03,21.94.08l4.7,4.56Z"/>
      <path class="cls-1" d="M5.12,34.85l-.03-6.61-3.31,1.47c1.14,2,1.96,3.35,3.35,5.14Z"/>
      <path class="cls-1" d="M27.56,5.16l6.42-.12c-1.84-1.7-3.04-2.3-5.13-3.33l-1.3,3.45Z"/>
      <path class="cls-1" d="M35.99,6.99l.06,6.77,3.33-1.51c-1.28-2.34-1.9-3.38-3.38-5.26Z"/>
      <path class="cls-1" d="M12.25,40.33l1.39-3.45h-6.47c1.85,1.54,3.16,2.39,5.08,3.45Z"/>
      <path class="cls-1" d="M7.08,5.06l6.55.04-1.35-3.36c-2.06,1.04-3.33,1.73-5.2,3.32Z"/>
      <polygon class="cls-1" points="36 28.18 36.08 34.9 39.3 29.69 36 28.18"/>
      <path class="cls-1" d="M34.18,36.83l-6.6.03,1.32,3.43c2.14-1.25,3.32-1.97,5.28-3.47Z"/>
    </g>
  </g>
</svg>