<?xml version="1.0" encoding="UTF-8"?>
<svg id="Warstwa_2" data-name="Warstwa 2" xmlns="http://www.w3.org/2000/svg" viewBox="0 0 32.84 39.24">
  <defs>
    <style>
      .cls-1 {
        fill: #fff;
      }
    </style>
  </defs>
  <g id="game-icon-v7-magic-pixarts-store">
    <g id="game-icon-v7-magic-pixarts-store_130">
      <path class="cls-1" d="M32.67,24.66c-6.37,9.63-.83,1.27-7.08,7.8-4.21.24-9.07.25-13.49.06-1.35-1.17-2.67-3.13-4.62-2.96-.17-1.7-.86-3.5-2.43-4.41,2.06,4.85.47,1.82.98,5.61.2,1.46,3.27-1.38,4.58,1.74h-5.98s-.04-8.05-.04-8.05L4.52.21,10.47.02c-.79,2-2.29,1.72-3.7,1.23-1.83,1.26-.07,1.58-1.15,5.25.98-.57,1.57-2.69,2.36-3.28L12.17.08l13.27-.08,4.39,3.22c.93.68,1.1,3.22,2.97,3.86l-.12,17.58ZM25.35,25.41c2.33-2.19,2.94-7.36,1.68-10.25-1.49-3.41-3.97-5.11-7.51-5.03,2.8-1.55,5.63.14,7.27,1.7,2.1,2,2.05,4.41,2.34,7.41.39-1.63.67-3.92.05-5.65-1.69-4.77-6.71-6.52-11.57-5.76,2.21-1.78,4.8-.8,7.83-.27-3.69-2.66-7.16-2.05-10.43.51-1.92,1.5-2.74,4.13-3.16,6.76-2.13-3.77.72-7.31,3.83-9.31-2.53-.02-3.69,2.02-5.25,3.77-2.21,2.46-1.89,6.67.16,9.62,1.78,2.54,5.13,3.89,8.57,3.15-3.74,3.64-11.08-1.71-11.39-5.99-.39,3.57,2.07,6.22,4.95,7.64l-1.95.12c2.72,2.46,6.16,2.66,9.49,1.32,2.66-1.06,4.22-3.87,5.24-7.39.97,4.54-2.17,8.44-6.77,9.7.2,1.3,7.06-2.46,6.63-2.05Z"/>
      <path class="cls-1" d="M.22,30.57l2.45-2.44-2.53,1.04c.09-1.49.84-2.29,2.19-3.56l-2.1.63.05-14.85,2.18-2.53-2.45.95c.53-1.64,1.31-2.37,2.58-3.9L.34,7.07C-.05,4.39-.05,1.05,3.64.09l.03,25.76c0,2.23.53,4.83-.31,6.74-.84.98-1.75,1.94-1.58,3.2.14,1.06,1.43,2.21,2.74,2.21h26.58s.12-3.3.12-3.3l1.62,4.54-28.73-.02c-2.06,0-3.79-1.84-3.82-3.75l-.07-4.91Z"/>
      <path class="cls-1" d="M20.91,34.96c-5.32.3-10.52.5-15.49-.22,8.52-.88,16.28-.46,24.45-.29l-8.96.5Z"/>
      <path class="cls-1" d="M29.21,31.22c.17.02.51-.68.67-.63l1.09.29c1.32.36-.77-3.93,1.8-4.94l.04,6.54-5.96.08.92-1.39c.17-.26.94,0,1.44.04Z"/>
      <path class="cls-1" d="M32.7,5.79c-2.24-1.19-.79-1.82-1.42-3.85-.39-1.25-3.83.36-4.14-1.88l5.48.13.08,5.6Z"/>
      <rect class="cls-1" x="6.98" y="36.05" width="22.84" height=".44"/>
      <path class="cls-1" d="M21.02,21.92l.35-3.14c-2,1.45-3.79,2.77-6.27,1.54l2.89-.89c-2-.76-3.56-.99-4.44-2.4-.71-1.14-.45-3.09.07-4.37.17,1.97.37,3.29,1.2,4.3.32-2.23-.08-4.01,1.5-5.81l-.16,2.28c1.63-1.37,3.42-2.34,5.27-1.58l-2.87.64c2.22.3,3.76.52,4.52,2.43l-1.41-.56c1.08,2.83,1.2,5.32-.64,7.57Z"/>
    </g>
  </g>
</svg>