<?xml version="1.0" encoding="UTF-8"?>
<svg id="Warstwa_2" data-name="Warstwa 2" xmlns="http://www.w3.org/2000/svg" viewBox="0 0 47.59 53.02">
  <defs>
    <style>
      .cls-1 {
        fill: #fff;
      }
    </style>
  </defs>
  <g id="game-icon-v7-magic-pixarts-store">
    <g id="game-icon-v7-magic-pixarts-store_183">
      <path class="cls-1" d="M19.84,14.38l-2.96,3.55-5.18-1.32c3.21-2.44,5.28-4.06,9.53-3.6l-2.76-1.72,4.3-2.07c-.22-.75-.43-1.87-.25-2.29s.96-.64,1.66-.72c.55-.06.86.99,1.2,1.71,1.53-1.34,2.17-3.44.93-5.21-.79-1.12-2.52-1.56-3.69-1.08-1.32.54-2.34,2.35-1.73,3.78l1.27,3.01c-3.27-.9-3.54-4.33-2.04-6.48,1.6-2.29,4.81-2.58,6.77-.81,2.01,1.81,2.22,5.43-.33,6.84-.7.39-1.42.84-1.87,1.17,2.2.84,3.06,1.14,4.61,2.28l-2.94,1.63c1.92-.23,3.87-.09,5.56.93l4.26,2.57-5.64,1.29-2.71-3.49c.57,1.51.94,2.18,1.78,3.81l-11.54-.14,1.77-3.65Z"/>
      <path class="cls-1" d="M25.96,22.58l4.17-.05-1.07,17.39c-.07,1.12.05,2.3.06,3.62-3.62.14-7.07.19-10.42-.02l-1.14-20.01c-.02-.38.28-1.12.54-1.13s.93.77.95,1.13l1.23,18.12c1.7,1.63,5.25,1.46,6.91.04.72-5.26.89-10.58,1.04-15.82l-2.28-3.27Z"/>
      <path class="cls-1" d="M38.18,17.28c3.61,5.77-32.02,5.56-28.72.14l8.17,1.48c5.66,1.02,14,.12,20.55-1.62Z"/>
      <path class="cls-1" d="M23.55,44.73c11.04,0,9.95-4.18,11.93-.2-6.91,3.89-16.52,3.56-23.15.08-.26-.23-.08-1.34.21-1.52,2.18-1.32,2.04,1.64,11,1.64Z"/>
      <path class="cls-1" d="M25.12,31.12c-1.67,1.11,2.01,3.8,1.46,5.81-.34,1.25-1.23,2.4-2.24,2.9,2.54-4.93-6.81-4.68-3.18-12.4.47-1,1.75-1.98,2.67-1.99,1.6-.02,2.58.89,2.92,2.22.35,1.37-.57,2.76-1.63,3.46Z"/>
      <path class="cls-1" d="M15.44,40.71l2.54-.32-.07,2.98-3.66-1.43-2.77-20.95,4.78,1.4c.15.04-.03,1.1.06,1.23.14.19-.23-.01-.73-.24l-1.17-.34c-.27-.08-.6,1.14-.57,1.44l1.61,16.24Z"/>
      <path class="cls-1" d="M29.95,40.31l1.53.76c.26.13.78-.68.82-1.01l1.58-15.6c.04-.39-.4-1.73-.72-1.59l-1.65.75c-.08.06-.18.07-.22-.07-.05-.15-.08-1.09.07-1.13l4.7-1.35-2.52,20.54c-1.01.72-2.25,1.21-3.85,1.69l.26-3Z"/>
      <path class="cls-1" d="M27.85,50.52l-3.59,2.49c-2.38-.96-6.66-3.29-8.8-5.24,1.23-1.06,2.28.47,3.17.46l9.92-.08-.71,2.36Z"/>
      <path class="cls-1" d="M9.99,32.33c-3.68.51-6.81-.23-9.99-1.05,3.6-1.36,6.88-.67,9.99,1.05Z"/>
      <path class="cls-1" d="M47.59,31.22c-3.33.94-6.24,1.66-9.58.95,4.44-1.83,5.16-2.13,9.58-.95Z"/>
    </g>
  </g>
</svg>