<?xml version="1.0" encoding="UTF-8"?>
<svg id="Warstwa_2" data-name="Warstwa 2" xmlns="http://www.w3.org/2000/svg" viewBox="0 0 39.02 40.11">
  <defs>
    <style>
      .cls-1 {
        fill: #fff;
      }
    </style>
  </defs>
  <g id="game-icon-v7-magic-pixarts-store">
    <g id="game-icon-v7-magic-pixarts-store_269">
      <path class="cls-1" d="M25.76,37.96c.75.52,1.75,1.89,2.93,1.52,1.13-.35,2.64-1.67,3.01-2.84.25-1.35-.31-2.84-.22-4.18.22-3.37-1.06-7.26-3.43-9.62.08,3.08.46,5.78-.27,8.71l-.15-1.12c-.8,1.95-.74,3.67-1.81,5.33-.63-1.39-.97-2.52-2-3.43l-1.38,4.18c-.5-1.14-.84-1.83-1.47-2.72l-1.53,2.03-1.2-2.14-1.54,1.85-1.69-3.17c-.93,1.18-1.35,2.25-2.02,3.7l-1.66-5.92.06,2.74c-.77-3.21-.85-6.47-.68-9.82-2.23,2.23-3.03,4.97-3.44,7.81-.16,1.14-.49,5.51.35,6.32l.35-3.25c.22,1.61.38,3.4.81,4.91.37.38,1.42.96,1.89.79.83-.3,1.94-1.21,2.69-1.7.51.77.87,1.59,1.6,1.97.41.22,1.4-.56,1.78-.61l1.42.79c2.52-1.56,2.31,1.1,3.89-.8l2.06.8c.6-.58,1.2-1.42,1.66-2.14Z"/>
      <path class="cls-1" d="M11.98,13.86c.03-2.68.34-5.15,1.82-7.48.7,1.57,1.38,2.96,2.18,4.28l.28-.62.75,1.08.68-1.54c.05-.11.33-.44.39-.36l.34.43,1.09-2.02c1.12,2.13,1.3,1.44,2.57,3.59,1.41-.6,2.54-3.55,3.22-5.28,1.16,2.12,1.62,5.19,1.66,7.97,2.28-2.63,4.45-6.69,2.87-9.99-.29-.62-1.5-2.61-2.31-2.43-.21.05-.66.33-.78.54l-1.35,2.4-1.78-1.79c-.72-.73-1.43-.65-2.18-.08l-1.96,1.48-2.85-2.12c-1.16.45-1.97,1.52-2.74,2.68l-1.92-2.64c-.16-.22-.81-.5-1.01-.35-.35.25-2.12,2.82-2.27,3.55l.04,2.6c.02,1.25.37,2.42,1.14,3.41l2.11,2.7Z"/>
      <path class="cls-1" d="M7,22.72l-.9-6.76.46,1.04c-.28-5.82.4-7.73,1.5-13.06C7.43,2.32,5.31.73,3.8.06c-.82-.36-2.23.9-2.31,1.65l-.23,2.23c-.24-.48-.34-.82-.46-.74l-.43.29c-.09.07.02.29.1.54l-.28.11c-.08.03-.18.38-.18.49-.2,5.8,2.06,14.05,6.98,18.09Z"/>
      <path class="cls-1" d="M38.48,3.51l-.27-.89-.15,5.91c-.84-2.14.27-6.23-1.3-7.81-.35-.35-1.43-.82-1.9-.49l-2.67,1.89c-1.5,1.06.25,3.2.12,5.27l-1.12-2.75.88,4.3c.63,3.06.43,6.06.35,9.18-.05,1.62-.06,2.91-.51,4.66,5.09-4.09,7.71-13.11,6.99-19.35-.09-.42-.21-.29-.42.08Z"/>
    </g>
  </g>
</svg>