<?xml version="1.0" encoding="UTF-8"?>
<svg id="Warstwa_2" data-name="Warstwa 2" xmlns="http://www.w3.org/2000/svg" viewBox="0 0 38.48 35.82">
  <defs>
    <style>
      .cls-1 {
        fill: #fff;
      }
    </style>
  </defs>
  <g id="game-icon-v7-magic-pixarts-store">
    <g id="game-icon-v7-magic-pixarts-store_45">
      <path class="cls-1" d="M37.69,17.33l-2.73,1.6c.87,2.38.07,4.95-.76,7.12.07-2.12,1.48-4.33-.13-6.06l-.17,3.29c-.89-.23,0-4.08-1.15-3.08l-.69.6-1.82-.9c1.6-.32,3.22.09,4.66-.99-4.55.36-8.29-1.13-11.43-4.27-.78-.78-1.73-1.37-2.65-1.49.01.96-.04,1.05-.45.22-7.61-.85-17.22,1.7-19.57,9.56-.14-3.74,4.57-7.47,8-8.73,4.13-1.52,8.4-2.06,12.75-1.77-2.62-4.1-3.85-6.88-1.22-11.29-3.84,1.39-7.51,2.84-11.07,4.86C2.9,9.64-1.11,15.86.27,23.25c.91,4.83,3.72,8.57,8.28,10.55,4.97,2.16,10.49,2.62,15.74,1.21,8.86-2.39,11.8-9.69,13.39-17.68ZM18.17,3.49c-.3,2.41-.18,4.31.39,6.57l-1.7.54,1.25-1.35-1.72.11,1.06-1.03-.81-.07c-.1,0-.25-.1-.17-.17l.85-.71-1.89.25,1.64-.74c.17-.02-.17-.75-.37-.68l-1.02.37,1.67-1.33-1.47.09,2.3-1.89ZM1.26,18.37c-.69-3.62,3.74-8.23,6.01-9.86-1.87,2.16-3.59,3.97-4.78,6.67l1.75-1.23-2.44,2.77,3.86-2.35-4.4,4ZM5.07,29.86c-1.91-1.76-2.66-4.2-2.4-6.29.93-7.47,12.49-9.01,18.99-6.04l6.36,2.9c2.46,1.12,5.4,5.19,2.89,8.67-5.44,7.56-18.53,7.48-25.85.76Z"/>
      <path class="cls-1" d="M26.71,3.31l-2.69-1.07c-.89,1.07-1.28,2.4-1.05,3.51l4.16-2.58-.15,1.32c-.03.22-.86.05-1.06.17l-2.24,1.36,3.34,1.23c-1.48.13-2.35-.06-4.12-.29.6,1.54,1.33,2.96,2.29,4.21l1.77-3.56-.6,3.54,3.14-.37-3.11,1.67c1.48,1.13,2.57,1.79,4.21,2.46l-.14-3.68,1.2,2.72,2.4-2.94c.53-.65,2.5-.98,2.42-2.35-.21-3.61-3.34-6.47-6.84-6.8-.88.5-2.13,1.17-2.93,1.48Z"/>
      <path class="cls-1" d="M19.83,4.75c-.93,6.79,6.91,12.8,12.43,13.33,1.88.18,3.99-.27,5.1-1.92,1.08-1.61,1.62-3.86.51-5.65.16,3.15-1.36,5.38-4.43,5.71-5.37.59-11.42-4.95-11.89-10.35-.28-3.21,1.89-5.25,5.17-5.59-3.25-1.09-6.42,1.09-6.88,4.47Z"/>
      <path class="cls-1" d="M35.79,14.04l-1.53-2.44-2.3,3.48c1.59.09,2.6-.24,3.83-1.05Z"/>
      <path class="cls-1" d="M28.07,29.37l-3.77,1.77,3.57-2.96-4.48,2.02c2.58-1.89,5.04-3.16,6.23-5.95-.38.29-.96,1.12-1.4,1.51-7.23,6.26-18.24,4.8-23.78-2.81l1.58,4.05-1.4-.98,1.94,3.26-1.69-1.21c3.73,6.15,16.38,8.11,22.13,3.41l-3.62.86c1.87-.94,3.5-1.67,4.69-2.95Z"/>
    </g>
  </g>
</svg>