<?xml version="1.0" encoding="UTF-8"?>
<svg id="Warstwa_2" data-name="Warstwa 2" xmlns="http://www.w3.org/2000/svg" viewBox="0 0 31.46 41.57">
  <defs>
    <style>
      .cls-1 {
        fill: #fff;
      }
    </style>
  </defs>
  <g id="game-icon-v7-magic-pixarts-store">
    <g id="game-icon-v7-magic-pixarts-store_119">
      <path class="cls-1" d="M24.09.05l7.22.12.15,16.88c0,.43-.12,1.22-.27,1.54s-1.04,0-2.03-.04l2.19,2.22.1,12.07-9.93-.09c-.28,0-1.03-.27-1.09-.46l-.3-1.01c-.15.22-1.08,1.52-1.53,1.52l-13.58.05-.15-4.67.02-6.23L4.96.08h13.56s.96,4.15.96,4.15l.57-3.62c4.41-2.04,1.57,1.57,6.83,2.55l.11,1.1c.03.31,1.1.19,1.25.25.28.95.61,1.91,1.3,3l.2-5.78-3.84-.07c-.88-.02-1.42.17-1.81-1.61ZM10.04,2.87l2.54-1.2-6.18-.03.24,5.99c.6-.79.94-1.88,1.1-2.75.81-.31,1.5-1.07,2.3-2.01ZM11.47,10.33l-.14,4.09c1.49-2.54,3.39-4.78,5.57-7.17l-3.03,1.38c-.34.16-1,1.04-1.12,1.2-.22-.19-1.23-.91-1.24-.59l-.04,1.1ZM24.9,14.82l-.36-5.77c-.31.27-.62.5-.6.71l.09,1.02c-.75-1.25-1.59-2.36-2.73-3.69l.09,1.3-2.13-.96c2.24,2.51,3.93,4.55,5.64,7.39ZM18.05,23.98l3.96-7.45-3.96-7.33-3.87,7.11,3.86,7.67ZM14.85,24.06l1.98,1.56-5.66-7.18,1.39,3.88-.95-.04c-.2,0-.48.74-.3.82s.71.32.93.37l2.61.58ZM24.08,22.29l.79-3.67-5.64,6.83,1.22-.59c.24-.12.72.4.85.46,1.38-1.8,6.06-2.42,2.78-3.03ZM9.53,29.31l-1.43-1.13-1.51-2.57-.06,5.61,5.56.07-2.57-1.99ZM24.16,31.5l5.54-.17v-5.7s-1.45,2.33-1.45,2.33l-1.12,1.8c-1.02.15-2.43.92-2.97,1.73Z"/>
      <path class="cls-1" d="M3.14,27.7l-2.81.73c-.57-1.95,1.05-2.3,2.64-3.93l-2.4.27.15-13.69,2.51-2.19c-1.3-.1-1.92.21-3.11.71-.58-2.23,1.11-2.49,2.8-3.8l-2.43.13C-.13,3.45.5.42,3.9.08l.16,8.56v16.89c.01,2.44.07,5.02-.28,7.3-.78.82-1.94,2.08-1.71,2.99.92,3.69,5.12,1.13,5.61,2.69-2.2,1.32-5.66,1-6.71-1.45-.89-2.07-.49-5.07-.23-7.19l2.41-2.17Z"/>
      <path class="cls-1" d="M13.15,38.42c5.6-.85,11.1-.27,16.77-.47-.22-1.58-.14-2.99.59-4.05l.82,5.13c-6.15-.41-11.91.3-18.18-.62Z"/>
      <polygon class="cls-1" points="10.51 40.07 8.39 41.34 8.55 36.06 12.53 36.04 12.59 41.57 10.51 40.07"/>
      <rect class="cls-1" x="6.77" y="34.42" width="21.56" height=".44"/>
      <rect class="cls-1" x="13.66" y="36.2" width="14.89" height=".44"/>
      <path class="cls-1" d="M17.46,18.45l-2.32-2.3,2.73-4.95c.05,2.59-.07,4.34-.41,7.25Z"/>
    </g>
  </g>
</svg>