<?xml version="1.0" encoding="UTF-8"?>
<svg id="Warstwa_2" data-name="Warstwa 2" xmlns="http://www.w3.org/2000/svg" viewBox="0 0 31.95 41.53">
  <defs>
    <style>
      .cls-1 {
        fill: #fff;
      }
    </style>
  </defs>
  <g id="game-icon-v7-magic-pixarts-store">
    <g id="game-icon-v7-magic-pixarts-store_133">
      <path class="cls-1" d="M31.87,17.64l-.23,5.79c-.06,1.45-.7,2.64-1.77,3.82l1.86-.31-.03,5.57-6.62.28-.24-2.11c-.74,2.83-5.3,2.16-5.39,1.76l-.44-1.79c-.56,1.19-1.65,2.11-3.06,2.11l-11.09-.06-.1-9.36L4.88.18C7.44.01,9.91-.56,10.74,1.86c.36-2.99,1.73-.79,6.43-1.44,2.43-.33,4.57-.52,6.84-.29l1.39,2.34.41-1.84c.08-.34,5-.82,5.92-.43l.12,5.94-1.7-2.29c-.68,1,.39,2.51,1.56,3.5.22,3.19.3,6.7.15,10.29ZM15.68,26.18c1.62-1.74,3.63-1.89,5.53-2.73l4.07-1.79c2.33-1.03,3.67-3.81,3.33-6.41l-2.86,3.62-1.19-.79c.38.25-2.64,2.1-4.53,1.85,3.29-4.74,7.48-5.61,7.11-11.91l-4.14,3.99.71,3.03-1.43-2.32-4.51,3.64c1.16-4.44,3.28-7.5,5.45-11.06-2.49.38-4.48,2.03-5.78,3.72l2.74.91-3.52.29-2.92,5.68c-1.54-.85-.7-7.02.98-8.18-2.35.18-4.39,2.08-4.69,4.31h2.39c-.62.44-1.91.95-2.11,1.48-1.78,4.7,2.37,6.22-1.13,11.32.88,1.83,2.82,3.27,4.96,4.42l3.96-3.35-2.42.28Z"/>
      <path class="cls-1" d="M2.33,28.45l-2.23.84.11-15.83,2.48-4.43c-1.04.58-1.59,1.53-2.53,2.93-.28-1.99.5-3.7,1.93-5.69L.24,7.38l-.06-3.6C.14,1.76,1.94.08,3.92.3l-.09,21.25c-.02,3.75.21,7.57-.21,11.16-1.04.79-2.08,1.95-1.82,3.18.81,3.79,5.53.92,5.26,3.03-1.56.43-3.63.46-5.12-.16-2.38-.99-2.92-7.88.4-10.31Z"/>
      <path class="cls-1" d="M12.64,38.74c5.79-2.04,11.61-.06,17.39-.94l.62-4.16,1.22,5.45c-6.36.05-12.49.44-19.23-.34Z"/>
      <path class="cls-1" d="M12.15,41.53l-2.01-1.26c-.39-.24-1.32.73-2.04,1.16l-.16-5.3,4.26-.09-.06,5.49Z"/>
      <path class="cls-1" d="M26.73,35.3l-8.9-.45c-4.31-.22-8.42-.04-12.47-.28l23.86-.25c-.37.68-1.44,1.04-2.49.99Z"/>
      <rect class="cls-1" x="13.25" y="36.09" width="15.7" height=".46"/>
    </g>
  </g>
</svg>