<?xml version="1.0" encoding="UTF-8"?>
<svg id="Warstwa_2" data-name="Warstwa 2" xmlns="http://www.w3.org/2000/svg" viewBox="0 0 42.33 40.39">
  <defs>
    <style>
      .cls-1 {
        fill: #fff;
      }
    </style>
  </defs>
  <g id="game-icon-v7-magic-pixarts-store">
    <g id="game-icon-v7-magic-pixarts-store_160">
      <path class="cls-1" d="M33.19,16.56c2.69.4,5.6,1.21,8.64,2.24l-16.25,4.88-21.54-6.18c2.75-.89,5.2-1.48,7.23-1.59,1.03,1.15,1.82,1.67,3.07,2.08l7.64,2.46c4.36-1.91,7.47-1.12,11.21-3.89Z"/>
      <path class="cls-1" d="M14.79,37.34c-2.46-.95-5.27-1.82-7.6-3.16-2.22-1.29-1.66-5.35.09-7.17l8.47,3.06c-1.42,2.22-1.46,4.27-.96,7.28Z"/>
      <path class="cls-1" d="M28.58,38.53c-2.78,2.7-7.69,2.41-10.3-.62-1.53-1.77-.67-5.08.68-6.58l4.48,1.21c6.3-2.4,12.23-4.83,18.91-5.79-5.98,3.01-12.14,3.94-18.15,6.27-2.43.94-2.26,5.02-.64,6.44l5.03-.93Z"/>
      <path class="cls-1" d="M16.57,27.51l-9.1-2.76c-.04-1.69.13-3.12.52-4.85l9.6,2.71-1.01,4.9Z"/>
      <path class="cls-1" d="M21.71,2.97l-3.62,4.13c-.16.18-.63.56-.79.66s-.83-.06-.77-.23l.52-1.37-.81.68c-.16.14-.31.09-1.07-.33L21.65,0c2.49,2.11,4.87,4.4,6.77,6.71.02.58-1.55,1.1-1.93.74l-4.78-4.48Z"/>
      <path class="cls-1" d="M22,12.86c-1.03-1.33-2.26-2.69-4.05-4.52l3.85-4.34,4.1,4-3.9,4.86Z"/>
      <path class="cls-1" d="M40.84,30.84c-4.3,2.74-13.32,3.41-16.63,6.33,1.86-.4,2.31-.67,3.6-.25l-3.81,1.7c-.3-1.73-.39-2.99-.11-4.42,5.83-1.89,11.2-3.95,17.19-5.04-3.67,2.64-13.17,3.49-16.3,6.06l16.06-4.38Z"/>
      <path class="cls-1" d="M23.33,14.71l4.99-4.07c.92,1.08-4.72,5.43-6.33,8.26l-7.04-7.83c-.1-1.85,8.51,6.21,7.12,5.91.1-.28.78-1.88,1.26-2.26Z"/>
      <path class="cls-1" d="M23.72,29.84l-3.61-1.64c-.77-.64-.4-3.38.32-4.21.63-.53,2.9,0,3.5.47l-.21,5.38Z"/>
      <path class="cls-1" d="M4.31,26.01c-1.57,2.38-1.69,4.37-.81,6.98-2.86-.13-3.82-2.51-3.4-5.13.12-.71.77-2.03,1.35-2.37s2.12.13,2.86.52Z"/>
      <path class="cls-1" d="M40.64,22.59l-11.11,3.36c-.15-.32-.26-1.08-.49-.99l-1.21.48c-1.11.44-2.17,1.55-3.01-.26l15.97-5.04c.06,2.07-1.61,1.49-3.15,1.86l2.99.6Z"/>
      <path class="cls-1" d="M5.17,19.12l-.52,4.76c-.41-.01-1.59-.24-2-.55-.85-.63-1.29-3.28-.26-4.81.34-.5,2.1.19,2.78.6Z"/>
      <path class="cls-1" d="M41.74,25.52c-4.02,1.12-7.62,2.36-11.23,2.94,3.52-2.23,7.08-2.58,10.7-3.83,1.1-.5,1.34-.06.53.89Z"/>
      <path class="cls-1" d="M22.88,13.64c.82-2.51,2.84-5.08,6.06-5.8-1.45,2.41-3.42,4.02-6.06,5.8Z"/>
      <path class="cls-1" d="M17.72,30.91c-1.23,2.28-1.26,4.81-.64,7.46-3.23-.77-1.29-9.55.64-7.46Z"/>
      <path class="cls-1" d="M41.77,34.52l-9.24,3.1c2.16-2.97,5.71-2.33,8.63-4.02,1.05-.26,1.57.01.61.92Z"/>
      <path class="cls-1" d="M21.18,14.08c-1.41-1.29-6.17-4.14-5.69-6.07.15-.59,5.92,4.26,5.69,6.07Z"/>
      <path class="cls-1" d="M29.93,39.37l-1.3-3.43c.88-1.12,2.58-.54,2.95.88.23.88-.49,2.26-1.66,2.55Z"/>
      <path class="cls-1" d="M5.6,27.69c-.82,1.93-.69,4-.13,6.3-2.55-1.47-1.85-5.65-.53-7.09.13-.14,1.13-.3,1.05-.12l-.39.91Z"/>
      <path class="cls-1" d="M40.9,23.53c-3.66,1.56-7.07,2.55-10.9,3.22,3.49-1.72,7.1-2.79,10.9-3.22Z"/>
      <path class="cls-1" d="M31.76,35.33c2.82-1.44,5.86-2.49,9.31-3.11-2.95,1.59-5.82,2.51-9.31,3.11Z"/>
    </g>
  </g>
</svg>