<?xml version="1.0" encoding="UTF-8"?>
<svg id="Warstwa_2" data-name="Warstwa 2" xmlns="http://www.w3.org/2000/svg" viewBox="0 0 51.45 50.77">
  <defs>
    <style>
      .cls-1 {
        fill: #fff;
      }
    </style>
  </defs>
  <g id="game-icon-v7-magic-pixarts-store">
    <g id="game-icon-v7-magic-pixarts-store_92">
      <path class="cls-1" d="M9.19,42.9c-.57,1.33.61,2.7,1.75,3.15,2.82,1.13,3.82-2.86,7.42-2.95-.25.71-.43.99-.27,1.04l.67.22c.7.23,1.71.29,2.26-.17l2.87-2.38c-.37,1.33-.96,2.82-1.57,4.06l-.72-.93c-.41-.53-.78,1.68-3.4.44-1.28-.6-2.93.21-3.77,1.3l-2.52,3.27c2.26-.46,4.06-1.46,5.61-2.76l-1.12,3.57c2.06-.66,2.96-1.55,4.8-3.08l.53,2.22c1.79-1.34,2.44-3.19,3.33-5.46l.91,2.31,1.66-3.26c.4-.78.02-2.53-.08-3.67,3.62-.72,6.6-2.98,8.04-6.46-5.72.22-4.66-1.79-9.2-1,1.11-1.29,2.55-1.57,4.17-2.25l-4.11-1.68c1.14-1.08,2.11-1.94,2.2-2.9-.97-.61-1.39.26-1.9,1.16-.33.58-1.86.25-2.28-.33-.44-.61-.56-2.07.05-2.3l1.26-.47c.18-.07-.03-.92-.24-.96-.8-.16-1.77.85-2.6,2.2l-1.93-4.34c-.67,1.84-.92,3.34-2.3,4.27.74-4.64-1.02-4.13-.99-9.14-3.38,1.24-5.56,4.26-6.5,7.75l-3.52-.27c-1.1.95-1.93,1.33-3.39,2.05l2.12.81c-2.32.8-4.37,1.92-5.27,3.9h2.24s-3.39,4.7-3.39,4.7l2.29-.64.48,1.1-1.88,4.46c5.49-4.75,4.81-2.59,4.92-7.94l.06-2.57c.26-1.09,2.46-2.06,3.51-1.63-1.26,1.24-2.22,2.51-2.76,3.82l1.25-.7c-.96,1.14-1.29,1.8-.79,3.35l.84-1.72c.63,4.52-4.33,5-2.6,8.36.48.94,1.81,1.95,2.92,1.43,1.4-.65-.52-3.46.74-3.81.3-.08.95.26,1.19.5l2.4,2.34c.27.26.63,1.2.36,1.44-.99.84-3.22-.65-3.74.55ZM33.18,34.78l-2.44,1.46.72.3-4.33,2.28c-.03-1.53-.05-2.25-.43-3.49,1.93-.57,4.1-.78,6.49-.55ZM12.33,23.74c.72-1.04,1.33-1.97,1.94-3.02l.31-.54c.07-.12.28.22.45.44.41-.82.78-1.54,1.41-2.49.04,2.32-.2,4.52-.71,6.3l-3.4-.68ZM10.32,36.44l1.68-2.53c-.9-1.19-1.63-2.45-1.36-3.77l.76-3.68c1.72,2,2.82,4.6,2.29,7.21.84-.01,1.14-.01,1.57.34l-4.94,2.44ZM19.94,27.13c.85,1.17.14,2.58-.35,4.17,1.61-.25,3.01-.9,4.4-.18l-5.38,1.46,1.33-5.45ZM17.28,35.69l.31,1.8c.86-.14,2.59-.36,3.36.05l3.86,2.03,1.01-.65c0,1.1-.35,1.85-1.08,2.33l-.17-1.37c-4.22,0-3.67,2.28-7.38-.69l-2.41,1.77,2.49-5.27Z"/>
      <path class="cls-1" d="M4.02,47.04l1.57.36c.45.1.99.21,1.05.44l.21.85c1.22.1,2.77-.31,3.57-1.41-.53-.4-1.41-.66-2.02-.72.18-1.02-.14-2.32-1.06-3.13-.62-.54-1.92-.82-2.73-.79-.08-.6-.31-1.41-.64-1.85-1.11.99-1.57,2.56-1.31,3.52,1.76.28.64,2.58,1.35,2.74Z"/>
      <path class="cls-1" d="M26.74,20.55c2.54-.45-.87-2.11-.07-8.7.41-3.37,2-7.88,3.28-10.63.13-.28-.09-.96-.19-1.12-.1-.17-.66-.12-.81.17-2.89,5.52-5.41,14.12-2.21,20.29Z"/>
      <path class="cls-1" d="M50.89,21.19c-2.01-.34-9.89,5.75-19.42,2.21-1.58-.58-1.72,2.64,6.56,2.5,5.64-.1,15.95-4.19,12.87-4.71Z"/>
      <path class="cls-1" d="M28.96,19.87c-1.45,1.37-2.4,2.97-2.72,5,1.94-.14,3.56-1.23,4.92-2.79-.38-.8-1.32-1.72-2.2-2.21Z"/>
    </g>
  </g>
</svg>