<?xml version="1.0" encoding="UTF-8"?>
<svg id="Warstwa_2" data-name="Warstwa 2" xmlns="http://www.w3.org/2000/svg" viewBox="0 0 47.29 49.16">
  <defs>
    <style>
      .cls-1 {
        fill: #fff;
      }
    </style>
  </defs>
  <g id="game-icon-v7-magic-pixarts-store">
    <g id="game-icon-v7-magic-pixarts-store_126">
      <path class="cls-1" d="M35.01,34.03l-1.39,2.61,6.83-1.32c.09.92-.59,1.62-1.51,1.79l-16.09,3.09c-.47.09-1.3-.65-1.19-1.06l8.56-2.08c-3.51.03-6.56.73-9.94,1.2l-.9-2.28c-.63.21-1.36.46-1.81.55-1.43.29-3.62-9.79-5.03-11.39.62,3.39,1.73,6.42,2.77,9.84-.08.23-1.22.09-1.55-.18L6.72,12.67c.21-.42.57-.96.88-1.36,1.43,4.06,2.53,7.69,4.15,11.56-.69-4.6-2.35-8.39-3.44-12.92l2.38-.51-.6-2.33,6.95-1.53c-2.17-.25-3.96.07-6.16.39l.06-.93c.02-.31.81-.65,1.14-.7l14.71-2.6c.47-.08,1.37.37,1.78.75-2.71.9-5.33.97-7.83,2.11,3-.13,6.02-.71,8.99-1.21.55.17,1.08,1.21,1.37,1.98l2.43-.08c1.18,2.72,2.19,5.32,3.7,8.02l-2.11-6.98c.16-.2,1.25.34,1.41.76l2.58,6.67-3.8.7c-1.4.26-2.42,1.61-1.94,3l1.42,4.1c.33.95,1.5,1.29,2.43,1.12l4.84-.9,1.96,5.22c.36.95.2,2.1-.46,2.7l-2.95-7.09c-.3,3.18,2.04,5.6,2.26,8.48-.05.5-1.27.74-1.99.78l.58,2.32-6.01,1.28-.44-1.45ZM15.77,19.59l.6-.83c.11-.16.56.05.63.15l-.72,2.48c1.61-1.94,2.9-4.05,5.13-5.25,3.17-1.71,6.5-.79,9.75.85l-.89-1.72,1.59.32-1.28-1.45c.35-2.81-1.22-5.43-3.97-5.84,1.49,1.57,2.11,3.38,1.06,5.01l-2.67-.58,2.33,1.37c-2.86.23-5.35.33-7.53,1.78-.35.24-1.32.05-1.4-.14l2.19-2.12c-1.15.39-1.84,1.04-2.59,1.89-2.03-.72-2.89-2.95-2.53-5.11-4.04,4.63,1.62,6.85.3,9.19ZM31.09,22.51l1.88-2.96-4.18-2.3c-3.33-1.83-7.07-.82-9.28,2.16-.99,1.34-2.17,2.74-3.18,3.91,1.61.53,3.23,1.17,4.77,1.84,3.66,1.58,7.76.82,9.98-2.65ZM26.86,28.37l1.43,2.73.06-3.36c2.36-1.21,4.15-2.9,4.42-5.4-4.54,6.34-8.75,5.4-15.11,2.82,2.35,2.6,5.84,3.25,9.2,3.21Z"/>
      <path class="cls-1" d="M14.71,46.83c-1.07-.16-.79-1.83-.44-2.37.33-.5,1.11-1.27,1.9-1.43l27.95-5.58c-.52,1.38-.76,2.29-.71,3.75l-28.71,5.63ZM38.36,39.78c-7.33,1.12-14.05,2.4-20.6,4.02,7.36-.81,14.05-2.35,20.6-4.02ZM42.66,40.63l.04-.59-16.3,3.4,16.26-2.81Z"/>
      <path class="cls-1" d="M7.6,35.34l-3.77-11.91c-.96-3.02-.54-6.22,2.55-7.88l5.24,16.53c-1.64.8-2.57,1.59-4.01,3.25Z"/>
      <path class="cls-1" d="M44.76,42.21l-.16-2.99c.81,1.06,1.27,2.14,1.56,3.77l-31.21,6.1c-1.61.32-3.1-.54-3.57-2.07-1.61-5.22-3.44-7.88,1.41-11.29l1.98,6.09c-1.38,1.33-2.54,2.54-2.33,4.51.11.99.93,2.08,2.01,1.87l30.3-5.99Z"/>
      <path class="cls-1" d="M36.1,21.79l-1.84-4.69c-.24-.61.44-1.77,1.12-1.87l5.47-.77,2.2,6.13-6.95,1.2ZM39.08,17.81c.02-.66-.17-1.38-.53-1.63s-1.79.23-1.63.63l1.22,3.08c.09.23.71.29.95.25,1.08-.21-.06-.74,0-2.33Z"/>
      <path class="cls-1" d="M5.32,12.21c-2.1.74-3.03,1.74-4.01,3.55l-.89-2.37c-1.03-2.75-.22-5.84,2.85-7.13l2.05,5.95Z"/>
      <path class="cls-1" d="M41.13,36.75l1.19-2.7c0-.97.36-1.49,1.44-1.91l1.09-2.88,2.43,6.28-6.16,1.21Z"/>
      <path class="cls-1" d="M19.3,38.6l2.72,1.8-6.06,1.21-1.69-5.79,3.03,1.73,1.22-.15c.3-.04.51,1.01.78,1.19Z"/>
      <path class="cls-1" d="M9,8.38c-.96.58-1.89,1.31-2.69,3l-1.79-5.73,5.64-1.02c-.7,1.68-.93,2.55-1.16,3.76Z"/>
      <path class="cls-1" d="M33.7,4.28c-1.55-.1-2.17-.46-2.9-1.55l-2.44-1.54c2.07-.54,3.67-.86,5.8-1.19l2.11,5.54-2.58-1.26Z"/>
      <path class="cls-1" d="M8.61,40.38c-2.18-2.41.52-6.4,3.1-7.53l.77,2.02c-2.2,1.16-3.23,2.75-3.88,5.51Z"/>
      <path class="cls-1" d="M2.33,20.61c-2.24-2.35.2-6.54,2.89-7.68.44.24.78,1.29.74,1.78-2.2,1.36-3.31,3.08-3.63,5.9Z"/>
      <path class="cls-1" d="M28.44,23.35c-1.05,1.47-2.93,1.69-4.43,1.26s-2.61-1.85-2.87-3.71c-.22-1.58,1.61-2.91,3.24-3.18,1.48-.24,2.99.22,3.82,1.27.9,1.13,1.24,2.95.23,4.35ZM26.04,24.45c1.04-2.62.01-4.81-1.89-6.34-.52,2.36.35,4.69,1.89,6.34Z"/>
    </g>
  </g>
</svg>