<?xml version="1.0" encoding="UTF-8"?>
<svg id="Warstwa_2" data-name="Warstwa 2" xmlns="http://www.w3.org/2000/svg" viewBox="0 0 30.43 42">
  <defs>
    <style>
      .cls-1 {
        fill: #fff;
      }
    </style>
  </defs>
  <g id="game-icon-v7-magic-pixarts-store">
    <g id="game-icon-v7-magic-pixarts-store_176">
      <path class="cls-1" d="M29.72,36.86c.36.75.65,1.74.58,2.36s-1.24,1.12-2.02,1.31c-7.89,1.88-15.98,1.86-24,.5-1.3-.22-2.84-.71-3.88-1.39-.39-.57-.04-2.33.23-2.92,8.8,2.91,20.38,3,29.1.15Z"/>
      <path class="cls-1" d="M29.74,5.13c-7.32-2.73-22.34-2.74-29.19.12C.2,4.42-.13,3.28.05,2.76s1.22-1.13,1.91-1.29c8.75-2.03,17.75-1.91,26.52.04.76.17,1.81.83,1.92,1.4s-.29,1.87-.67,2.21Z"/>
      <path class="cls-1" d="M23.27,37.37l3.11-1.1c-.43,1.79-1.97,1.14-3.13,1.32-5.24.84-10.33.66-15.59.09-1.41-.15-2.76-.08-3.77-1.17l3.66.61-2.04-1.2c-2.19-12.79,13.02-11.63,4.51-18.48-3.19-2.57-5.95-6.66-4.24-10.97,1.31,2.76.29,5.55,2.3,7.7,1.34,1.44,2.86,2.84,4.32,4.16,1.54,1.4,1.78,3.47.26,4.96l-3.41,3.34c-4.34,4.25-1.72,7.47-3.5,8.65,4.88,2.53,14.64,2.25,19.39-.17-.3,1.2-1.16,1.14-1.87,2.26Z"/>
      <path class="cls-1" d="M26.44,18.73l-1.62-1.97,1.66-.44c-.21-.28-.61-1.16-.5-1.55,1.55-5.51-.2-5.14.96-9.37l-4.49-.47,1.53,1.24c-6.32-1.54-12.4-1.36-19.03.32.85-.74,1.7-1.05,2.7-1.51l-4,.56c1.83-1.59,3.84-1.14,5.87-1.37,5.14-.58,10.08-.25,15.18.47,1.34.19,2.89.5,3.82,1.31-.52,3.91-2.03,9.1.78,12.04-.28.25-1.25.37-1.47.09l-1.27-1.67c-.54,2.41,5.14,3.74,1.91,6.01-2.74,1.92-2.04,4.29-3.04,3.13-.18-.21-.41-.97-.21-1.15l1.21-1.17c-.66-.84-1.27-1.59-1.44-2.18-.16-.55.67-1.51,1.46-2.31Z"/>
      <path class="cls-1" d="M20.02,24.46c3.61,2.48,6.3,7.34,4.72,10.49-.09.18-.87-.16-.83-.43.35-2.81-.96-6.64-3.48-8.55-2.06-1.55-5.44-4.59-2.98-7.15,1.05-1.09,2.05-2.08,3.27-3.07,4.49-3.68,2.6-10.26,3.77-8.98,1.81,1.96-.4,7.98-4.3,10.75-1.09.78-2.44,2.01-2.52,3.38-.08,1.39,1.26,2.8,2.35,3.55Z"/>
      <path class="cls-1" d="M15.01,7.35c-1.76.83-2.72,2.68-1.9,4.54.84,1.88,3.06,2.46,5.17,1.41-.78,1.94-3.04,2.39-4.74,1.82-1.88-.63-2.96-2.49-2.72-4.28.27-1.94,1.72-3.77,4.18-3.49Z"/>
      <path class="cls-1" d="M28.61,36.1c-.21.29-1.1.69-1.41.61-1.89-.5.56-5.58-1.38-9.86l1.87-3.09c.08-.14.82-.54.94-.42l.62.67c.19.2-.45.54-.7.83-1.97,2.19-.29,8.44.07,11.26Z"/>
      <path class="cls-1" d="M4.3,22.97c-.29.41,1.41,1.74,1.01,2.14l-.46.46c-.16.16-.59-.54-.71-.74-1.87-3.11-3.08-2.25-3.16-3.76-.09-1.66,1.22-1.07,3.26-4.31l.37-.59c.1-.17.75.45.68.64-.17.52-.78,1.32-1.28,1.86,1.04.81,2,2.11,1.03,3.32-.27.33-.59.75-.75.98Z"/>
      <path class="cls-1" d="M4.6,26.47c-1.46,3.85.14,10.11-1.6,10.15-.45.01-1.29-.56-1.19-1,.89-3.75,1.57-7.2.44-10.69l-.84-.29c-.25-.09-.16-.8-.01-1.02s1.09-.07,1.24.14l1.96,2.71Z"/>
      <path class="cls-1" d="M2.6,18.22c-.15.23-1.3.11-1.29-.13.13-1.81,2.89-1.12.53-12.32,3.31-2.46,1.21,6.37,2.64,9.55l-1.89,2.9Z"/>
    </g>
  </g>
</svg>