<?xml version="1.0" encoding="UTF-8"?>
<svg id="Warstwa_2" data-name="Warstwa 2" xmlns="http://www.w3.org/2000/svg" viewBox="0 0 38.95 34.9">
  <defs>
    <style>
      .cls-1 {
        fill: #fff;
      }
    </style>
  </defs>
  <g id="game-icon-v7-magic-pixarts-store">
    <g id="game-icon-v7-magic-pixarts-store_257">
      <path class="cls-1" d="M5.97,24.82c2.82,2.09,2,3.66,3.32,6.04.16.33.31,1.13.43,1.49.47.6.83,1.1,1.32,1.88,1.34-.65.65-5.06.21-6.75,2.4,1.48,3.32,3.43,6.06,4.01l4.1.86c3.52.74,3.93,2.87,4.4,2.5.67-.52-.22-2.49-.77-2.97-2.71-2.34-5.11-1.2-8.28-3.54,1.77.15,3.31-.11,5-.57,3.83-1.04,7.06-3,9.67-6.2-.62,1.84-2.43,2.63-3.6,4.18,2.18-1.19,3.75-3.16,4.9-5.06-.71-.34.03-.77.02-1.31,2.68.09,2.81.01,4.93-1.49.9-.64,1.49-1.62,1.16-2.75-.92.6-1.57,1.39-2.59,1.3.94-.44,1.84-.94,2.24-1.92-1.49,1.48-3.23,1.84-5.03,1.01-1.46-.67-2.84-1.46-4.12-2.36-5.45-3.85-12.41-4.32-18.57-1.72-2.46,1.04-4.69,2.21-6.38,4.45l.66-.1c-1.7,2.13-3.1,2.62-4.66,4.74-.72.97-.32,2.31,0,2.7.12.15.66.2.85.15,2.63-.69,6.38.99,4.72,1.42ZM21.7,14.13c.63,0,1.14.51,1.14,1.14s-.51,1.14-1.14,1.14-1.14-.51-1.14-1.14.51-1.14,1.14-1.14ZM17.87,14.65c1.38,0,2.5,1.12,2.5,2.5s-1.12,2.5-2.5,2.5-2.5-1.12-2.5-2.5,1.12-2.5,2.5-2.5ZM11.59,14.12c-.94,2.47-.9,5.28.92,7.2.82.87,2.06,1.44,3.16,1.96.69.32,1.5.15,2.36.14.34-.09.3-.03-.06.26,2.95.33,5.4-1.81,6.29-4.86.5-1.73.32-3.22-.68-5.08,1.71.41,3.19,1.32,4.47,2.47l2.74,2.46c-1.01,1.41-3.95,5.2-5.48,5.45l1.2-1.25c-2.71,1.73-5.92,2.85-9.22,2.71-1.96-.08-3.74-.67-5.6-1.21-1.39-.4-2.58-.95-3.76-1.83-3.03-2.28-1.91-.36-2.99-1.31-.31-.27-.53-.55-.67-.52l-.72.13c1.61-3.09,4.79-5.52,8.04-6.74Z"/>
      <path class="cls-1" d="M.53,15.75c3.8-3.67,7.85-7.39,12.93-8.31,2.27-.41,4.54-.2,6.86-.03,2.78.2,5.29.87,7.75,2.09,1.31.65,2.57,1.4,4.06,1.96,1.9.71,4-.71,4.62-2.25-.23-.19-.44-.3-.38-.4l.25-.48c-3.21,1.5-6.13.14-8.93-1.83,1.2-1.2,1.98-2.24,2.08-3.87l-2.64,1.2c-3.4,1.55-5.57,1.4-9.2.03l1.22-3.64-.61.17c-.1.03-.19-.2-.35-.38-1.04.65-1.98,1.55-3.01,2.27C10.31,5.69,4.35,7.18,1.15,12.97c.14,1.03-.93,1.64-.62,2.78Z"/>
      <path class="cls-1" d="M34.61,24.2c-.77-.37-1.69.45-2.02,1.19l-1.11,2.51c-.15.34.28,1.18.56,1.42.29.24,1.03.32,1.53.2,1.55-.36,1.95-1.54,1.79-2.85-.1-.81.23-1.99-.75-2.46Z"/>
    </g>
  </g>
</svg>