<?xml version="1.0" encoding="UTF-8"?>
<svg id="Warstwa_2" data-name="Warstwa 2" xmlns="http://www.w3.org/2000/svg" viewBox="0 0 35.55 39.79">
  <defs>
    <style>
      .cls-1 {
        fill: #fff;
      }
    </style>
  </defs>
  <g id="game-icon-v7-magic-pixarts-store">
    <g id="game-icon-v7-magic-pixarts-store_166">
      <path class="cls-1" d="M29.79,15.66l1.72.42v17.03s-11.4.15-11.4.15l-.98-1.87-1.29,1.87-13.34-.1L4.62.17,13.33,0c1.8-.03,3.41.49,4.51,1.72,0-.48.77-1.7,1.35-1.69l4.97.06,7.41.08v13.46c0,.63-1.08,1.54-1.78,2.01ZM29.85,6.7l-.11-5.07-4.51-.13,3.31,2.76,1.31,2.43ZM10.53,1.75l-4.2-.12.19,5.14c1.25-2.33,2.25-3.56,4.01-5.03ZM14.58,14.02l2.57-7.66c-1.84,2.15-3.14,4.11-4.67,6.54l2.1,1.13ZM23.58,12.96l-4.8-6.44,2.49,7.52,2.31-1.08ZM25.26,11.03l1.12-1.61c.25-.36-.6-1.27-1.15-2.07l-1.21,1.73c-.26.37.75,1.28,1.24,1.95ZM20.46,14.19l-2.54-6.93-2.45,7.08c2,.1,3.14.08,4.99-.14ZM23.71,13.94c-2.37.32-2.45,1.97-2.78,3.54-.72,3.33-1.43,6.22-2.63,9.76-.76-1.16-1.62-2.36-1.93-3.62l-2.03-8.29c-.14-.56-1.46-1.24-2.05-1.38,1.18,7.48.96,7.9,5.47,13.74,1.27-1.02,2.42-2.21,2.96-3.46l1.08-2.54c1.04-2.44,1.35-5.07,1.92-7.75ZM20.5,15.48l-5.15-.18c.71,3.6,1.08,6.85,2.79,10.2l2.36-10.02ZM11.49,31.4c-3.14-1.25-3.61-3.13-5.28-5.93l.22,5.77,5.06.16ZM29.73,31.15l.07-4.25c.27-.83.3-1.39-.42-.76-.56,3.03-2.46,3.91-4.96,5.38l5.31-.37Z"/>
      <path class="cls-1" d="M32.11,39.79l-27.45-.04c-2.13,0-4.41-1.14-4.5-3.65-.07-2.1-.03-4.47.02-6.59l2.8-2.5c-1.27-.22-1.65.31-2.88.99L0,9.03l2.73-2.73-2.45.58C-.37,3.74-.07,1.48,3.14.3c.32-.12.62,1.02.62,1.45l-.12,31.31c-1.18.72-1.86,1.59-2.03,2.51-.16.81.74,2.84,1.76,2.84l29.01-.02.32-8.54.14-17.7c.14.03.86.78.86,1.24l.05,24.53c0,.86-.76,1.87-1.64,1.87Z"/>
      <path class="cls-1" d="M35.23,6.17c1.02,3.07-.73.39-.51,5.88l-2.02-3.06.08-6.01c1.51-.61.98,6.73,2.03,4.21l.42-1.02Z"/>
      <path class="cls-1" d="M30.45,37.06l-23.52-.14,18.49-.39c1.63-.03,3.04-.94,5.02.54Z"/>
      <rect class="cls-1" x="5.14" y="34.83" width="24.71" height=".45"/>
    </g>
  </g>
</svg>