<?xml version="1.0" encoding="UTF-8"?>
<svg id="Warstwa_2" data-name="Warstwa 2" xmlns="http://www.w3.org/2000/svg" viewBox="0 0 43.89 44.92">
  <defs>
    <style>
      .cls-1 {
        fill: #fff;
      }
    </style>
  </defs>
  <g id="game-icon-v7-magic-pixarts-store">
    <g id="game-icon-v7-magic-pixarts-store_240">
      <path class="cls-1" d="M26.26,18.06l-2.05.61.51-2.04-1.76.14c.49-1.06.84-1.64,1.59-2.64.44-.58-.03-1.88-.76-2.36-1.25-.83-1.36-2.91,0-3.6,1.92-.98,5.42-2.56,6.13-4.82-1.33.97-2.35,1.79-3.91,2.53,1.36-4.78,6.39-7,11.01-5.29,3.49,1.3,6.13,4.39,6.76,8.12.67,3.92-1.37,7.82-5.31,8.84l1.89-3.4c-3.5,1.4-2.95,6.18-4.97,6.85-2.14.71-2.63-1.76-4.32-1.72-1.47.04-3,2.85-3.18,1.56l-.19-1.36-.76.51c-.2.13-1.09-.05-1.12-.23l.44-1.69ZM31.31,10.78c.69-2.03-1.27-3.89-3.08-3.67-1.45.17-2.61,1.82-2.04,3.29.35.89,1.69,1.55,2.51,1.65s2.26-.26,2.6-1.27ZM36.65,13.73c-.96-1.4-2.5-1.74-3.85-.99-1.05,1.44-.88,3.56.66,4.66.98.7,2.37.35,3.09-.45.75-.84.86-2.11.11-3.21ZM28.78,17.19c1.31-.26,2.09-2.44,1.57-3.61-1.13-.25-2.94.64-3.4,1.85.49.21,1.01.26,1.13.49l.7,1.27Z"/>
      <path class="cls-1" d="M8.17,40.23c-1.69,0-3.4-2.09-3.41-3.81l6.52-5.71c1.52-1.33,2.91-3.11,4.3-4.59.93,1.14,1.92,2.14,3.16,3.12-2.09,1.85-4.21,3.84-6.08,5.94l-4.49,5.05Z"/>
      <path class="cls-1" d="M27.02,21.76l.14,1.22c2.23-.66,2.74-2.48,4.47-2.05-1.19,1.26-1.95,2.09-2.81,3.59-2.57.39-5.19.51-7.17-1.3-2.09-1.9-2.09-6.51-1.49-7.16l2.89-3.18c.8,1.2-1.34,2.94-1.58,4.85l1.34.42c.24.08-.23.72-.47,1.4l1.56-.21-.23,1.59,1.41-.19c.29-.04.26.84.26,1.35l1.67-.34Z"/>
      <path class="cls-1" d="M8.15,41.38c.46.13-.32,1.72-.87,1.65-4.03-.55-6.64-5.73-4.95-6.39.31-.12,1-.09,1.34.04.34,2.3,1.93,4,4.48,4.71Z"/>
      <path class="cls-1" d="M5.78,43.77c-1.21,1.66-3.56,1.39-4.89-.04-1.07-1.15-1.43-3.67.31-4.58.97,2.12,2.34,3.51,4.57,4.62Z"/>
      <path class="cls-1" d="M21.71,27.54c-1.14,2.32-4.4-.29-5.49-2.5-.37-.74.25-1.97.97-2.01,1.12,1.89,2.15,3.49,4.53,4.51Z"/>
      <path class="cls-1" d="M24.02,25.87c-1.13,2.14-4.85-.28-6.08-3.61-.16-.44.22-1.21.81-1.67.72,2.78,2.57,4.37,5.27,5.28Z"/>
    </g>
  </g>
</svg>