<?xml version="1.0" encoding="UTF-8"?>
<svg id="Warstwa_2" data-name="Warstwa 2" xmlns="http://www.w3.org/2000/svg" viewBox="0 0 34.57 39.94">
  <defs>
    <style>
      .cls-1 {
        fill: #fff;
      }
    </style>
  </defs>
  <g id="game-icon-v7-magic-pixarts-store">
    <g id="game-icon-v7-magic-pixarts-store_139">
      <path class="cls-1" d="M7.58,37.89c-2.14-1.11-4.1-2.77-5.22-4.66.16-.68.29-1.59-.28-2.44l8.88-10.91c2.66,1.38,4.62,3.04,6.65,5.11l-10.04,12.9Z"/>
      <path class="cls-1" d="M29.6,8.24c.67-.61,1.14-1.03,2.13-.92l-8.99,11.02c-2.05-2.31-4.17-3.89-6.88-5.12L24.43,2.48l.99-.51c.21-.11.65.42.59.65l-.29,1.05,1.19-.83c.13-.09,4.09,1.17,3.64,2.53l-.95,2.86Z"/>
      <path class="cls-1" d="M20.06,26.38c-2.53-3.55-5.44-6.09-9.49-7.72l3.8-4.75c4.34,1.2,7.15,4.16,9.6,8.03l-3.91,4.44ZM16.18,19.31c-.06-.33.18-1.46.5-1.36l1.13.34c.17.05.74.17.69.01s-.25-.82-.34-.97c-.5-.85-2.35-.83-2.93-.1-.84,1.04-.73,2.52.12,3.1.23.15,1.1.35,1.06.11l-.22-1.12Z"/>
      <path class="cls-1" d="M14.19,35.18l1.38-1.83c3.95,1.29,8.15.29,10.92-2.41,2.97-2.89,3.86-6.94,2.76-11.1-.34-1.27-.54-2.45-.57-3.9l1.6,3.51-.75-4.6c2.31,3.75,2.57,8.54.71,13-2.06,4.94-8.42,9.44-13.51,7.82l3.97-.55-6.52.06Z"/>
      <path class="cls-1" d="M9.16,39.51c-.2.31-1.08.52-1.28.39-.26-.17-.17-.86.12-1.14,4.03-4,6.26-9.18,10.73-12.84-2.53,5.03-6.68,9.14-9.57,13.6Z"/>
      <path class="cls-1" d="M30.82,11.87l-6.12,7.41-.56.68c-.17.2-.61-.86-.34-1.19l9.19-11.23c.3-.37.57-.84.7-1.03s.59.12.71.31c.82,1.24-1.55,2.61-3.58,5.06Z"/>
      <path class="cls-1" d="M31.82,6.84c-.59-3.82-2.59-4.44-6.2-5.71-.31-2.58,6-.35,7.06,2.81l.5,1.5c.14.41-.94,1.37-1.36,1.39Z"/>
      <path class="cls-1" d="M7.25,39.21c-2.09.39-7.69-4.18-7.22-5.97.13-.49.81-1.22,1.17-1.45.25,1.17.47,2.32,1.09,2.89l4.96,4.54Z"/>
    </g>
  </g>
</svg>