<?xml version="1.0" encoding="UTF-8"?>
<svg id="Warstwa_2" data-name="Warstwa 2" xmlns="http://www.w3.org/2000/svg" viewBox="0 0 40.95 42.76">
  <defs>
    <style>
      .cls-1 {
        fill: #fff;
      }
    </style>
  </defs>
  <g id="game-icon-v7-magic-pixarts-store">
    <g id="game-icon-v7-magic-pixarts-store_163">
      <path class="cls-1" d="M25.62,12.82c3.82-1.93,6.94-4.15,9.5-6.62-3.1,1.59-5.35,2.89-8,3.89-9.85,3.72-17.42,10.31-22.87,19.61l-.25-4.59.89-.11c.45-.06,1.87-6.65,4.7-8.64l-.08,3.03c1.51-3.93,3.97-6.92,7.81-8.85l3.67-1.84-.3,2.27c3.81-5.19,6.22-2.6,13.79-6.91,1.59-.9,2.87-2.62,4.37-4.06.39,4.36-1.29,8.91-4.62,11.82-1.88,1.64-4.75,1.72-7.29,2.8l4.23.09c-1.64,1.29-3.58,2.62-5.61,3.06l-5.61,1.21,4.6.41c-.85.65-2.2,2.23-3.16,2.57l-5.76,2.05,4.78-.25c-1.99,3.44-5.58,3.97-9.8,5.01l3.65.65c-2.17.83-4.31,1.34-6.86,1.68,3.97-8.13,10.09-14.18,18.22-18.29Z"/>
      <path class="cls-1" d="M27.04,41.46c.36-2,6.83-1.64,9.59-5.01-1.4-1.32-2.8-2.17-4.53-2.66l-6.89-1.94c-.41-.12-1.1-.72-1.32-1.03-1.48-2.09,6.55-2.92,7.77-2.86,1.04-.35,1.47-.32.63.51-2.36.44-5.56-.18-6.98,2.5l10.59,3.08c.62.18,1.59,1.31,1.81,1.89,1.07,2.88-7.55,5.91-10.66,5.52Z"/>
      <path class="cls-1" d="M2.01,36.2c3.05-7.23,10.45-18.16,18.15-21.37-7.01,5.44-12.78,11.83-15.71,20.28-.24,1.04-.97,1.53-2.44,1.08Z"/>
      <path class="cls-1" d="M3.16,39.27L.02,42.76c-.14-1.46.7-4.29,1.47-5.48.23-.35,1.73-.13,1.96.22s.02,1.44-.29,1.78Z"/>
      <path class="cls-1" d="M13.43,36.69c-.07-.18-1.04-.57-1.1-.37l-.42,1.23-.39,1.15c-.08.24-1.13-.04-1.1-.29.09-.75.45-2.42.81-3.08.33-.61,2.19-.11,2.72.35.64.56,1.05,2.18.4,3.46l-.92-2.45Z"/>
      <path class="cls-1" d="M26.55,40.72c-2.39,1.89-5.3,2.03-8.21,1.13,2.74-1.16,5.45-1.3,8.21-1.13Z"/>
      <path class="cls-1" d="M22.57,38.23l-3.06-2.02-.92,2.71-1.1-4.01c1.81.45,2.47.45,4.02-.18l1.06,3.5Z"/>
      <path class="cls-1" d="M33.66,28.78l6.02-2.48-2.82-1.56c1.18-.04,2.54.46,4.09,1.64-2.29,1.57-4.56,2.23-7.29,2.4Z"/>
    </g>
  </g>
</svg>