<?xml version="1.0" encoding="UTF-8"?>
<svg id="Warstwa_2" data-name="Warstwa 2" xmlns="http://www.w3.org/2000/svg" viewBox="0 0 29.87 45.51">
  <defs>
    <style>
      .cls-1 {
        fill: #fff;
      }
    </style>
  </defs>
  <g id="game-icon-v7-magic-pixarts-store">
    <g id="game-icon-v7-magic-pixarts-store_82">
      <path class="cls-1" d="M12.61,29.27c-2.43-1.27-6.86-3.53-9.33-1.76-2.26,6.3,1.46,12.93,7.81,14.83,4.17,1.25,8.59.32,11.81-2.59,2.96-2.68,4.51-7.03,3.69-11.25-4.23,3.62-9.77,2.96-13.98.76ZM4,29.54l.07-.73c.01-.15.58.44.56.66-.25,2.43.29,5.12,1.33,7.43-2.05-1.87-2.23-4.66-1.96-7.36ZM14.13,41.18c2.32-.55,4.28-1.21,6.71-2.16-1.47,1.83-4.21,2.83-6.71,2.16Z"/>
      <path class="cls-1" d="M.6,34.87c2.61,8.89,12.58,13.13,20.69,9.12,7.96-3.94,10.87-14.51,5.21-21.76-3.78-4.84.21-7.01-.81-7.34l-.62-.2c-.27-.09-3.34,4.26,0,7.99,5.05,5.62,3.29,14.83-2.88,19.08-3.62,2.49-8.1,2.91-12.23,1.41-5.74-2.08-8.96-7.7-8.36-13.72.55-5.54,4.7-10.12,10.49-11.42,2.4-.54,3.97-1.87,4.63-4.36.21-.81.52-1.66-.49-2.19l-1.15,2.89c-.45,1.12-1.57,1.96-2.82,2.16C3.57,17.9-1.88,26.45.6,34.87Z"/>
      <path class="cls-1" d="M27.8,13.87c2.21-3.27.75-4.96.36-4.65-2.66,2.04-8.09-.37-9.67-2.31-.13-.67-.16-.95-.27-1.22-.11-.27-1.32-.08-1.52.16-.64.76-1.34,2.74-1.02,3.89,3.47,2.93,7.7,4.38,12.12,4.13ZM17.88,8.21c2.76,1.47,5.27,2.53,8.61,3.29-2.93.07-6.38-.84-8.61-3.29Z"/>
      <path class="cls-1" d="M26.91,9.2l2.82-4.93c-3.88-.01-6.47-1.06-9.59-3.29l-.94,5.5c2.38,1.79,4.62,2.79,7.7,2.71Z"/>
      <path class="cls-1" d="M24.01,25.4c-4.45-.62-7.13,2.02-11.86,2.54,3.8,2.66,12.56,3.27,13.95-.88.23-.68-1.35-1.55-2.09-1.66ZM18.97,27.13c1.62-.58,3.56-1.67,5.38-.4l-5.38.4Z"/>
      <path class="cls-1" d="M29.87,3.23C27.31.47,23.63-.23,20.44.06c2.66,2.41,6.14,3.85,9.43,3.17Z"/>
      <path class="cls-1" d="M18.1,12.77c-.24-.04-.45,1.19-.14,1.43,1.43,1.11,5.6,2.95,5.78.54l-5.64-1.98Z"/>
      <path class="cls-1" d="M15.33,19.53c-3.26-.73-7.02.89-8.87,4.03,2.35-1.35,4.19-2.68,6.88-3.14.7-.12,1.34-.38,1.99-.89Z"/>
      <circle class="cls-1" cx="20" cy="22.39" r="1.18"/>
    </g>
  </g>
</svg>