<?xml version="1.0" encoding="UTF-8"?>
<svg id="Warstwa_2" data-name="Warstwa 2" xmlns="http://www.w3.org/2000/svg" viewBox="0 0 42.52 45.26">
  <defs>
    <style>
      .cls-1 {
        fill: #fff;
      }
    </style>
  </defs>
  <g id="game-icon-v7-magic-pixarts-store">
    <g id="game-icon-v7-magic-pixarts-store_161">
      <path class="cls-1" d="M22.77,4.74c-4.24-.84-10.16,2.29-10.64,6.69-.8,7.31-.08,14.35-.26,21.66-.03,1.44-.48,2.6-2.16,2.69l.12-24.77,1.58-3.59c2.27-2.55,5.81-4.56,9.4-4.77,4.06-.23,8.02,2.13,10.37,4.96.03.41-.18,1.28.08,1.47l1.35,1v25.84c-1.12-.02-1.96-1.23-1.97-2.37-.08-7.48.27-14.61-.32-22.11-.26-3.34-4.06-6-7.55-6.69Z"/>
      <path class="cls-1" d="M35.04,45.24l-27.57.02c-.64,0-.48-2.38.12-2.41,8.97-.46,17.94-.72,26.92-.09.71.05.99,1.82.53,2.48Z"/>
      <path class="cls-1" d="M6.61,36.72c-.92.34-1.86.36-2.77.17l.11-27.84c.45-.53,2.22-.52,2.62.07l.04,27.6Z"/>
      <path class="cls-1" d="M38.54,36.3c0,1.13-2.59,1.13-2.59.21l-.09-27.53c.51-.36,1.83-.42,2.68-.25v27.57Z"/>
      <path class="cls-1" d="M32.7,41.45l-22.68-.06c-.26-.8.54-1.94,1.39-1.94l19.26-.04c1.19,0,2.18.82,2.03,2.04Z"/>
      <path class="cls-1" d="M34.13,8.23c1.48,9.92,1.3,19.33.2,29.26-1.4-9.85-.94-19.54-.2-29.26Z"/>
      <path class="cls-1" d="M22.14,1.52c-5.31-.13-9.13,2.48-12.04,5.99C8.11,3.82,17.25.17,20.92,0c3.8-.17,10.11,2.44,11.75,5.75.12.25-.91.76-1.14.53-1.93-1.91-5.88-4.69-9.38-4.77Z"/>
      <path class="cls-1" d="M30.2,38.4l-16.8.04c-.31,0-1.05-.45-1.24-.68s.63-1.19,1.1-1.19l14.83-.09c1.37,0,2.18.12,2.11,1.92Z"/>
      <path class="cls-1" d="M8.61,12.68c-.49,8.58.68,16.6-.68,24.63-.71-9.96-.38-19.16-.2-28.82,1.73.84.97,2.5.88,4.19Z"/>
      <polygon class="cls-1" points="42.52 45.26 36.75 45.21 36.15 42.02 42.32 42 42.52 45.26"/>
      <polygon class="cls-1" points="5.66 45.18 0 45.17 .01 42.04 6.41 41.99 5.66 45.18"/>
      <path class="cls-1" d="M28.37,35.22c-4.7.37-9.11.33-13.84.12-2.61-1.45,15.3-1.84,13.84-.12Z"/>
      <path class="cls-1" d="M8.11,40.83l-5.89-.16c-.63-.02-.29-2.31.34-2.31l6.61.03-1.06,2.44Z"/>
      <path class="cls-1" d="M40.36,40.68l-5.4.11c-.64.01-1.49-1.52-1.27-2.32l6.17-.04c.54,0,.74,1.95.51,2.25Z"/>
      <rect class="cls-1" x="1.92" y="3.57" width="7.07" height="1.96"/>
      <rect class="cls-1" x="33.91" y="3.6" width="6.55" height="1.98"/>
      <path class="cls-1" d="M29.2,18.13c.21,2.33.05,4.41-1.04,6.29-.29-3.57-.05-6.49.75-9.59l.29,3.3Z"/>
      <path class="cls-1" d="M26.86,32.85c-3.64.26-6.77.25-10.01.06,3.38-.8,6.7-1.7,10.01-.06Z"/>
      <path class="cls-1" d="M13.65,30.24c-.26-3.12-.25-6.15-.08-9.51.69,2.94,1.79,6.04.08,9.51Z"/>
      <path class="cls-1" d="M15.57,21.83l-.18-6.06c-.03-.94,1.22-2.78,1.8-3.42l-.94,5.43-.69,4.05Z"/>
    </g>
  </g>
</svg>