<?xml version="1.0" encoding="UTF-8"?>
<svg id="Warstwa_2" data-name="Warstwa 2" xmlns="http://www.w3.org/2000/svg" viewBox="0 0 45.57 45.7">
  <defs>
    <style>
      .cls-1 {
        fill: #fff;
      }
    </style>
  </defs>
  <g id="game-icon-v7-magic-pixarts-store">
    <g id="game-icon-v7-magic-pixarts-store_181">
      <path class="cls-1" d="M37.4,14.74c.96,1.26,1.66,2.1,2.79,3.38-.99,1.07-2.86,2.31-4.5,2.64-2.05.42-3.71-.63-4.3-2.68l-1.1.21c.45,1.94,4.01,4.1,2.41,4.66-.28.1-.98.17-1.32.12l-3.99-.61c2.68-5.97-5.58-4.62-1.54-8.07,1.28,2.28,3.35,3.04,5.39,1.97-2.05.3-4.14-.52-4.51-2.8-.36-2.16-.6-4.93-.16-7.27.3-1.59,3.08-2.64,4.3-2.97l.22,2.53,1.25-2.92,4.11,3.69c.16.15.51.83.44,1.04-.09.29-.62.74-.98.87-1.99.74-3.6-.66-4.8-2.43l-.19,1.78-3.01,1.1,3.65.1c1.96,2.09,1.7,5.24-.25,7.26,2.51-.81,2.61-2.92,2.46-5.6.75.43,1.51,1.2,2.14,2.04l1.5,1.98Z"/>
      <path class="cls-1" d="M27.89,25.25l1.43,1.76c-.71.44-1.8,1.06-2.59,1.39-3.6-1.22-6.56-4.15-7.34-8.1-.15-.76,1.4-2.13,2.14-2.52l1.5,6.39c1.31-5.95-2.81-5.09.2-8.32l1.96,2.37c.93.35,1.91,1.02,2.02,1.95.21,1.79-2.64,2.37-2.68,3.99-.01.47,1.31,1.08,1.72,1l-1.04-1.07c-.24-.25.89-.86,1.26-.85l3.4.05c.42,0,1.41.66,1.53,1.05.15.45-.66,1.2-1.1,1.49-.4.26-1.29-.4-1.67-.81l-.47-.51c-.1-.11-.38.62-.29.73Z"/>
      <path class="cls-1" d="M8.58,41.32c-2.61,1.27-1.29,5.62-4.83,4.04.84-4.3,3.66-7.56,6.83-10.44,3.69-3.35,3.66-6.76,7.05-8.84.09,4.43-2.2,7.82-4.92,10.97-1.97,2.29.56.43-4.13,4.28Z"/>
      <path class="cls-1" d="M2.88,45.53c-.75.45-2.42-.38-2.88-.91l1.69-2.73c1.64-2.65,2.81-5.11,5.49-6.82,1.37-.87,2.8-1.97,4.31-2.04-3.08,3.22-6.21,5.84-7.63,9.71-.25.68-.31,2.39-.98,2.79Z"/>
      <path class="cls-1" d="M39.2,13.87c-.82.55-2.66-1.53-2.09-2.11,1.75-1.81,3.6-3.33,5.59-4.99.9.31,2.06,1.93,1.89,2.95-1.69,1.55-3.28,2.73-5.39,4.15Z"/>
      <path class="cls-1" d="M20.99,30.15c-1.63.83-2.19,3.58-4.79,3.49,2.6-4.33,1.73-5.53,3.12-10.04,1.23,1.36,2,2.78,2.38,4.35l.82-.71c.22-.19,1.07.58,1.14.85.3,1.12-1.79,1.6-2.67,2.05Z"/>
      <path class="cls-1" d="M36.65,10.65c-.21.19-1.29-.48-1.08-.6l.96-.57c.5-.3,1.35-1.06,1.55-1.57.2-.51-.47-1.61-.69-2.33.04-.99,1.45-2.37,2.48-3.26,1.05.71,1.81,1.5,2.82,2.86l-6.04,5.47Z"/>
      <path class="cls-1" d="M23.06,7.07c-.31,1.32-1.62,2.51-2.41,3.09-1.7-.26-2.38-1.77-2.28-3.03.11-1.51,1.62-2.83,3.13-2.91.58.44,1.77,2,1.57,2.85Z"/>
      <path class="cls-1" d="M41.55,16.76c-.74.38-2.67-.87-2.12-1.59,1-.74,5.78-5.56,6.13-2.84.25,1.97-2.23,3.51-4.01,4.43Z"/>
      <path class="cls-1" d="M36.3,4.92l-2.91-2.67c.84-.89,1.68-1.85,2.58-2.21.7-.28,2.13,1.05,2.68,1.69l-2.36,3.19Z"/>
      <path class="cls-1" d="M39.88,27.3c-.31.75-1.23,1.93-1.84,2.14s-2.2-.37-2.47-1.04c-.33-.83,1.11-2.52,2.92-2.61.49-.03,1.61.99,1.39,1.51Z"/>
      <path class="cls-1" d="M44.2,21.9c-.04.75-.79,1.67-1.3,1.9s-2.05.19-2.32-.3c-.71-1.5,1.64-3.42,2.91-3.08.27.07.73.99.7,1.49Z"/>
      <path class="cls-1" d="M18.5,15.72c-1.16.08-1.11-2.67-.21-3.01.45-.17,1.47.55,1.52,1,.05.52-.53,1.54-1.31,2.01Z"/>
    </g>
  </g>
</svg>