<?xml version="1.0" encoding="UTF-8"?>
<svg id="Warstwa_2" data-name="Warstwa 2" xmlns="http://www.w3.org/2000/svg" viewBox="0 0 43.23 40.67">
  <defs>
    <style>
      .cls-1 {
        fill: #fff;
      }
    </style>
  </defs>
  <g id="game-icon-v7-magic-pixarts-store">
    <g id="game-icon-v7-magic-pixarts-store_204">
      <path class="cls-1" d="M29.39,16.57c2.99,3.78,5.31,7.75,2.11,12.27-1.39,1.97-4.15,3.3-6.94,3.01-3.13-.32-5.63-2.33-7.02-5.22l2.97-2.8c1.69,2.38,3.44,3.56,6.19,3.8l-3.64.98c1.92.56,4.02.04,5.27-1.53,2.8-3.51-.12-6.67-2.28-9.31-2.03-2.49-3.16-5.74-2.09-8.9,1.64-4.88,7.03-6.9,11.75-4.85-1.01-.92-2.88-1.83-4.27-1.62-4.97.72-7.6,2.85-8.85,7.53-.28-.1-1.09-.19-1-.38l.46-.91c.52-1.04.78-2.13.21-2.74.86-.34,2.86-2.09,3.38-2.57.29-.27-.01-1.09-.15-1.62l4.74-.19.47-1.52,3.37,1.83c.49.27,1.08.69,1.64,1.06l.42-1.53,3.83,5.91c.82,1.26,1.24,2.56,2.22,3.88.72.98-1.85,2.65-2.56,1.91-.09-.66-.34-1.84-.99-2.15l-3.3-1.54.83,3.61c.11.47.73,1.19,1.13,1.73-.7.55-2.1.26-2.23-.66-.65-4.55-3.65-2.79-2.35-6.88l-2.37.65c-1.68.46-2.82,1.99-2.86,3.82s.81,3.5,1.94,4.93Z"/>
      <path class="cls-1" d="M10.54,36.84c4.27-3.98.06-7.27-.69-11.94-.44,3.96,3.34,6.42,1.66,9.95-.55,1.17-1.94,2.16-3.58,1.59.87-.9,2.34-1.82,2.54-3.07.54-3.47-4.47-7.22-.42-11.53,1.62-1.73,4.07-2.5,6.49-1.07l-3.69,3.35c-2.35,2.14,1.26,5.46.95,8.96-.17,1.91-1.29,3.71-3.25,3.75Z"/>
      <path class="cls-1" d="M10.79,18.42l-.85-2.7-1.1,4.13c-1.54-1.32-.6-11.62,2.34-10.51l-.66,2.91,2.57-2.97c1.73-2,5.14-3.01,5.93-1.43.52,1.03-3.3,1.74-4.37,2.69l1.66.69c1.37.57-2.51,2.28-3.03,3.04l.27-1.67c-2.28,1.19-1.81,3.41-2.76,5.82Z"/>
      <path class="cls-1" d="M14.04,28.62c-.55-.14-1.5-2.42-.88-3.09l5.87-6.34,2.28,2.48-7.27,6.96Z"/>
      <path class="cls-1" d="M9.56,33.19l-3.11,3.14c-.34.35-1.26.48-1.67.5s-1.36-1.11-1.08-1.45c1.44-1.77,3.21-3.66,4.94-5.44l.92,3.25Z"/>
      <path class="cls-1" d="M39.51,27.88c-.72,1.89-2.79,2.91-2.47,1.96l.24-.72c.56-1.68.89-3.26,1.18-5.26l.74,2.61c.39-1.61.47-2.85.63-4.76.97,1.9,3,6.61.13,8.25l-.46-2.07Z"/>
      <path class="cls-1" d="M25.5,18.95c-.47.35-1.61.65-2.26.43s-1.59-1.14-1.79-1.95c-.35-1.41.36-2.9,1.03-3.91,1.01,2.16,1.74,3.47,3.01,5.44Z"/>
      <path class="cls-1" d="M36.14,33.93c-2.65,2.34-6,3.01-9.18,1.95,2.91.01,5.99-1.36,7.78-3.1.22-.21,1.5-.3,1.48-.04l-.08,1.18Z"/>
      <path class="cls-1" d="M24.31,20.33c-.77.79-1.73.98-2.58.59-.61-.28-1.43-1.15-1.84-1.89-.56-1.02-.52-2.1.6-2.77.61,2.14,1.46,3.4,3.82,4.06Z"/>
      <path class="cls-1" d="M4.08,36.98l1.37.8c.26.15-.41,1.11-.7,1.25-.79.35-2.11-.15-2.55-.75-.73-1-.78-2.43.33-2.84.46.49,1.16,1.32,1.55,1.55Z"/>
      <path class="cls-1" d="M34.57,29.06c-.4.4-2.08-.35-1.9-.91l.81-2.58,2.24.47c-.06,1.02-.45,2.31-1.15,3.02Z"/>
      <polygon class="cls-1" points="33.33 25.25 33.5 22.44 35.54 21.81 36.14 25.23 33.33 25.25"/>
      <path class="cls-1" d="M5.51,31.67c-1.04,2.69-2.65-1.37-5.51,3.06-.05-1.1.62-2.47,1.52-3.15,1.13-.86,2.87-.9,3.99.09Z"/>
      <path class="cls-1" d="M31.04,32.47c-.32.12-1.21-.9-1.04-1.18.45-.71,1.42-1.76,2.17-2.1.41-.19,1.52.55,1.6.95-.48.83-1.84,2-2.73,2.33Z"/>
      <path class="cls-1" d="M39.68,16.44l.74,1.16c-1.98-.11-1.53-1.99-2.14-3.25-.33-.67-1.41-1.18-.94-2.16l2.32,2.93c.89,1.12,2.43,1.08,3.58.37-.55,1.64-1.86,1.36-3.55.96Z"/>
      <path class="cls-1" d="M35.38,21.17c-.9.3-1.69.59-2.02.39-.22-.13-1.53-1.92-.6-2.38.28-.14,1.29-.33,1.48-.09.39.51.99,1.62,1.15,2.07Z"/>
      <path class="cls-1" d="M27.3,33.8c-.27.08-1.03-.83-.85-.99.23-.19.76-.55,1.06-.64l1.72-.53c.36-.11.72.91.85,1.37l-2.78.79Z"/>
      <path class="cls-1" d="M33.24,18.23c.01.49-1.4.71-1.72.32-.4-.49-.92-1.36-.79-1.74.99-.87,2.47-.06,2.5,1.41Z"/>
      <path class="cls-1" d="M20.27,4.71l-4.13,1.05c.13-.92,3.82-3.35,4.13-1.05Z"/>
      <path class="cls-1" d="M24.92,32.37c.3.02.8.3.99.47s-.34.95-.63.88c-.94-.21-2.48-.52-3.25-1.55l2.89.2Z"/>
      <path class="cls-1" d="M22.93,36.03c-2.07,1.27-3.33-.82-4.2-2.44l4.2,2.44Z"/>
      <path class="cls-1" d="M31.26,15.59c.07.28-.75.98-.95.84-.53-.39-1.19-.73-1.42-1.88-.06-.3.94-.58,1.21-.45.35.16,1.06,1.1,1.16,1.5Z"/>
      <path class="cls-1" d="M29.89,13.23c.06.34-.95.68-1.21.52-.33-.2-.57-1.05-.51-1.53.03-.28.79-.54,1.08-.49s.55,1.01.65,1.51Z"/>
      <polygon class="cls-1" points="2.73 39.53 .1 40.67 1.22 38.07 2.73 39.53"/>
    </g>
  </g>
</svg>