<?xml version="1.0" encoding="UTF-8"?>
<svg id="Warstwa_2" data-name="Warstwa 2" xmlns="http://www.w3.org/2000/svg" viewBox="0 0 42.34 43.47">
  <defs>
    <style>
      .cls-1 {
        fill: #fff;
      }
    </style>
  </defs>
  <g id="game-icon-v7-magic-pixarts-store">
    <g id="game-icon-v7-magic-pixarts-store_243">
      <path class="cls-1" d="M7.36,38.47c-.96.82-3.21-1.53-2.58-2.59,1.33-.66,2.5-1.18,3.88-2.06-.96-.62-3.74,1.28-3.82.5-.02-.19.17-.69.38-.83,4.8-3.13,13.41-9.94,15.06-15.91,1.02.48,1.14,1.71.88,2.86l-.36,1.65c1.96-.25,3.34-.89,4.64.46-6.96,2.33-12.52,10.28-16.27,16.29-.35-1.52.18-2.44.38-4.27-.77,1.05-1.41,2.36-2.2,3.91Z"/>
      <path class="cls-1" d="M27.57,19.44c.85-.63,1.44-1.12,2.4-1.11-.32,2.26-2.66,3.1-4.68,2.57.78-1.37,1.21-2.96.99-4.43-1.53-.05-2.9.42-4.38,1.27-.18-1.95.3-4.17,2.48-4.94.24.79-.22,1.32-1.01,2.37.41-.1,1.16-.33,1.55-.5,1.79-.79-.47-5-.85-6.08-.83-2.34,1.43-5.07,3.94-5.19-4.23,5.84.43,6.05-1.07,12.47,6.01-1.77,5.78,3.34,11.94-.95-.51,1.86-1.74,3.91-3.76,4.16-2.43.31-3.73-2.49-6.46-1.6-.55.18-1.1,1.11-1.07,1.95Z"/>
      <path class="cls-1" d="M39.98,12.75c-3.2,3.05-7.89.11-12.17,2.24,1.42-3.99-.26-8.98,1.57-11.86,1.35-2.11,3.92-2.85,6.15-2.83-6.91,3.42-4.48,6.74-5.6,12.33l5.3-.34c3.2-.2,5.4-2.03,6.78-5.01.04,1.95-.55,4.05-2.03,5.47Z"/>
      <path class="cls-1" d="M36.97,8.99l.09-3.68-3.61.44c-.13-.39-.28-2.01.13-2.43,2.27-1.93,5.45-3.12,8.74-3.31.27,1.89-2.1,11.44-5.35,8.99Z"/>
      <path class="cls-1" d="M34.64,11.01l-3.41.5c.07-1.01.11-2.37.61-3.21.79-1.32,2.54-1.55,4.03-1.79.11,1.6-.34,2.83-1.23,4.5Z"/>
      <path class="cls-1" d="M5.83,41.89c-1.07,1.94-3.53,1.75-5.47,1.24-.42-1.31-.83-4.89,1.03-5.49.25-.08.29.78.26,1.08l-.31,3.36,4.49-.19Z"/>
      <path class="cls-1" d="M7.74,39.78c.29,0,.5.95.3,1.03s-.7.25-1.02.28c-2.65.29-5.03-2.82-4.59-5.05.05-.26.49-.74.61-.87.91-1,.05,4.7,4.71,4.6Z"/>
      <path class="cls-1" d="M25.27,17.64c.06,1.95-1.28,3.52-3.36,3.49-.18-1.94,1.23-3.55,3.36-3.49Z"/>
    </g>
  </g>
</svg>