<?xml version="1.0" encoding="UTF-8"?>
<svg id="Warstwa_2" data-name="Warstwa 2" xmlns="http://www.w3.org/2000/svg" viewBox="0 0 41.76 40.88">
  <defs>
    <style>
      .cls-1 {
        fill: #fff;
      }
    </style>
  </defs>
  <g id="game-icon-v7-magic-pixarts-store">
    <g id="game-icon-v7-magic-pixarts-store_198">
      <path class="cls-1" d="M28.92,19.84l-.56,1.89c-.24.83-.67,1.52-1.54,1.79-1.64.51-2.11-1.41-3.28-1.84l-2.39,1.67c-.24-.59-.27-.92-.45-.91l-1.33.06c-.21,0-.08-.97-.28-.97l-1.04-.02v-1.11c0-.24-.71-.11-1.22-.19l1.78-2.35.5-.66c.39-.51-1.98-1.21-1.68-3.07.38-2.35,2.54-.41,3.6-4.33,1.02.55,2.4.82,3.42.46l-1.81-.65c-.36-.13-.03-1,.02-1.68l-.77.7c.01-1.71.36-3.23,1.19-4.56,2.55-4.11,6.65-.44,9.2-4.04-.61,4.96-5.16,1.84-6.27,5.69-.4,1.38,0,2.21,1.14,3.76l.93-1.12c1.87.47,3.58,2.17,4.16,4.15l-1.89,1.19,1.63-.13c.27-.02.1.81.25.95,1.15.25,3.42.49,4.25-.53,1.55-1.91.89-5.46,3.98-5.6-3.17,1.87,1.03,9.35-6.59,10.13-.68.07-1.55.04-2.06-.18-.79-.34-1-1.16-1.24-1.99-.54,1.29-.55,2.34.68,3.16-.41.39-1.22.92-1.58.85-.64-.56-1.48-1.49-2.13-1.66l-3.41-.9c-.73,1.26-.02,2.51.94,3.02,1.32.69,2.51.4,3.84-.95ZM23.03,16.46l-1.29-3.77c-.07-.21-.53-1-.68-.84l-.71.75c-.85.89-1.02,2.35-.26,3.25.69.82,1.71,1.28,2.95.6ZM21.94,20.7c.39-1.08.63-1.89.76-2.81-1.36.04-2.15.6-2.69,1.44l1.94,1.37Z"/>
      <path class="cls-1" d="M27.17,27.46c-1.73-.7-3.82-1.19-5.52.19l2.09.13c-1.36.82-2.62,1.07-4.37.7l5.03-4.05c1.08.43,2.26.7,3.17.16s1.53-1.4,2.06-2.55l2.26-1.45c.91-.58,1.83-.92,2.99-.92l-1.48,1.39,3.25-1c1.8-.55,3.12-1.55,4.08-3.21-.69,6.42-6.83,3.62-8.94,6.26l3.99.56c.95.13,2.33-.51,3.3-.91-1.47,2.47-4.17,3.03-6.92,2.62-1.4-.21-3.27.52-2.88,2.26.17.77,1.63.38,2.75.09-.54,1.15-1.91,2.1-3.36,2.07-1.69-.03-3.17-.71-4.46-1.87l2.98-.47Z"/>
      <path class="cls-1" d="M15.08,14.92c-.5,2.56-.49,5.05-2.98,7.03l-.73-6.43c.83,1.07.81,2.16,1.05,3.56.92-1.29,1.08-3.14.18-4.65-1.63-2.75-.5-6.1,2.25-7.2l-1.05,2.7c-.12.3.31,1.24.61,1.32,3.1.77.45-9.63,7.21-10.28-1.37.86-2.74,1.87-2.83,3.34l-.28,4.55c1.18-.95,1.47-2.2,2.19-3.8.79,2.4-.94,5.72-3.31,7.13-2.11,1.26-.59,3.9-1.55,5.62l-.77-2.9Z"/>
      <path class="cls-1" d="M37.35,7.8c-2.04,2.73-1.18,6.38-3.57,5.63-.57-3.5-3.19-6.14-6.68-6.65-.27-1.01.63-1.49,1.56-1.66l3.1-.58-.13,1.55c4.1-.94.5-6.78,10.15-5.88l-3.66,1.64c-1.04.47-1.85,1.68-2.01,2.82l-.55,3.94c1.32-1.14,1.87-2.37,2.87-4.06.88,1.22-.29,2.23-1.06,3.26Z"/>
      <path class="cls-1" d="M14.69,29.21c-2.41,1.99-4.36,3.85-6.53,6.08-.74.76-2.28-.09-2.7-.86-.67-1.22.13-2.08,1.04-2.99l5.08-5.12c-.05,1.72-.4,2.93-.78,4.39.86-1.09,2.34-1.6,3.9-1.5Z"/>
      <path class="cls-1" d="M19.56,23.94c.03-.13-.06.3-.09.46s.77.66.91.57l3.01-1.85c-.94,2.88-4.49,3.48-6.98,1.89-.33,0-.89.22-.94-.01l-.24-1.24c-.51-2.61-.39-5.46,2.42-6.87-.77,1.63-1.65,3.19-1.77,4.58.74.62,1.23,1.15,1.56,1.98.19.47,1.18.56,2.12.49Z"/>
      <path class="cls-1" d="M5.9,38.97l-5.9,1.91.94-4.15c.19-.83.82-1.63,1.67-2.13-.05,1.1-.19,1.93-.38,2.64.46-.33,1.27-.52,1.64-.21.29.24.2.88-.04,1.59.66-.06,1.18-.7,2.06.34Z"/>
      <path class="cls-1" d="M18.94,27.04c-1.47,1.88-2.14.17-5.13-.1l-.48-2.41c-.19-.94-.09-1.78.46-2.69l1.03,3.72c1.06.46,2.77,1.06,4.11,1.48Z"/>
      <path class="cls-1" d="M7.81,36.45c.12.68-.77,1.22-1.55,1.17-2.14-.13-3.29-2.61-2.91-4.22.09-.38,1.16-.9,1.15-.68-.04,2.08.8,3.54,3.31,3.73Z"/>
      <path class="cls-1" d="M16.1,28.18l-4.23.87.62-4.43c.6,1.03.66,1.84.77,2.99l2.84.57Z"/>
    </g>
  </g>
</svg>