<?xml version="1.0" encoding="UTF-8"?>
<svg id="Warstwa_2" data-name="Warstwa 2" xmlns="http://www.w3.org/2000/svg" viewBox="0 0 46.01 46.28">
  <defs>
    <style>
      .cls-1 {
        fill: #fff;
      }
    </style>
  </defs>
  <g id="game-icon-v7-magic-pixarts-store">
    <g id="game-icon-v7-magic-pixarts-store_173">
      <path class="cls-1" d="M1.44,38.2c-2.28-3.86-.26-9.85,3.71-10.95l-3.08.68-.12-5.44c-.46-.76-2.2-1.92-1.93-2.97.94-3.58,3.48-1.13,1.51-7.44.9.91,2.5,3.04,1.64,4.51l-1.73,2.96,3.17,3.63,2.25-5.49-1.33-2.03c-2.56-3.92,2.64-4.2.55-6.58-.65-.74-.71-2.08-.16-2.67l1.58-1.68-1.04,3.04c.47.75,1.03,1.6,1.32,2.22s-.6,1.69-1.13,2.54c-.39.62.31,2.16.97,2.73,2.9-4.55,1.17-8.65,5.73-8.79-.8,3.03-2.34,5.89-2.78,9.38,1.55-1.81,2.26-6.8,4.14-8.51,2.31-2.08-1.16,5.73-.49,5.5l2.61-5.42,4.26-1.88c.57-.86,1.3-2.22,2.37-2.08l11.17,1.47,1.66,3.03c.25.46.99,1.33,1.38,1.88-.68,2.04-1.42,3.99-1.84,6.31l2.38-5.12c.2.07.68.27.91.41.29.18.21,1.18.09,1.5l-5.24,14.78c-.28.79-1.75,1.39-2.15.81l1.41-5.8-2.67,6.28c-.2.47-1.27.91-1.77,1.22l-4.92,3.03-11.51-1.76c-.72-2.05-1.53-3.33-2.8-4.93l1.75-6.04c-1.87,1.81-1.3,4.92-3.71,5.53,2.02,1.25,4.44,5.19,3.83,7.92l-6.98-.97c1.36-4.62,3.77-8.49,4.64-13.63-2.42,4.2-3.79,9.01-6.01,13.57-.33.67-1.61,1.24-1.27,2.37,2.07,6.94,4.29,2.52,4.97,5.11-2.13,1.09-4.3-.39-5.37-2.21ZM18.43,30.23c2.02-2.05,2.78-4.83,4.89-6.15s4.06-1.97,5.23-4.15l4.44-.27-3.83-2.21c.67-2.44-.32-3.75-2.09-5.14l.45-6.4c-5.01,8.95-4.92,3.44-9.82,10.05l-4.4.68,3.73,1.5c-.47,2.36.48,3.87,1.94,5.5l-.54,6.59ZM17.58,13.45l4.94-3.25c.67-.37-.21-.67-.61-.45-1.04,1-2.47,1.05-3.37.47-.15,1-.53,2.18-.96,3.23ZM32.74,12.51c-1.73.59-2.6-.57-3.4-2.35-1.28,1.35,1.21,2.61,2.06,5.94.23-1.48.54-2.63,1.33-3.59ZM16.91,25.85c.57-1.02.25-2.21-.66-3.28l-1.41-3.34c-.24,1.67-.39,2.64-.88,4,.39-.07,1.7-.17,1.98.36.35.68.68,1.49.97,2.25ZM27.79,25.77c.44-1.62.76-2.35,1.38-3.59l-4.65,2.79c-.45.27-.94,1.27-1.08,1.85,1.6-1.56,3.28-2.3,4.35-1.05ZM7.87,30.68l.35-2.7c-.96,1.55-1.22,2.18-1.82,3.64l3.5.15c-.66-.64-1.1-.77-2.03-1.08Z"/>
      <path class="cls-1" d="M39.45,29.62c1.55-.22,2.4-.38,3.88-.79,2.21-.61-.47-4.09.61-5.52.41-.55,1.44-1.23,2.07-1.48-3.13,3.57,1.02,4.84-.54,7.11-1.72,2.49-4.33,1.77-5.88,4.39.44.17,1.21.55,1.29.31l.6-1.63c.8.05.05,1.82-.49,2.24s-2.14-.23-2.76-.49c-.6.95-1.08,2.43-2.48,2.73-.18-1.87.91-2.94.52-4.83l-3.75,9.51-.56-1.68c-.08-.24-.38-.28-.88-.56l4.12-11.64,6.57-18.16.56.93c-1.59,4.29-3.32,8.3-4.45,12.95,2.09-3.61,2.69-8.27,4.92-12.02.87-.09,2.86.5,3.03,1.34-.49,2.06-1.25,4.16-2.01,6.16-.42.05-1.54-.41-1.84-.78l1.78-5.61c-.05-.09-.78-.55-.83-.36-.07.26-.23.93-.33,1.22l-3.37,9.67c-.76,2.18-1.56,4.18-1.64,6.57,1.23-1.6,3.29-10.23,4.49-10.12.34.03.58.8.46,1.16l-3.09,9.35Z"/>
      <path class="cls-1" d="M12.68,46.28l-2.67-3.11-2.68,1.63c-.08-2.84.21-5.18,1.09-7.89l5.47.81c-.69,2.91-.99,5.59-1.2,8.56Z"/>
      <path class="cls-1" d="M28.22,39.31c2.03.24,3.36,1.05,3.76,2.94l-17.3-2.65,1.1-2.01,8.27,1.23,4.17.5Z"/>
      <path class="cls-1" d="M30.73,37.07l-7.61-1.34c2.82-3.39,6.12-5.12,10.38-6.34l-2.77,7.68ZM26.63,34.7l3.07.75,1.09-3.67-2.4.6,1.31,1.1c.23.19-.48,1.19-.74,1.05l-.88-.45c-.24-.13-.91-.33-1.03-.11l-.42.74Z"/>
      <path class="cls-1" d="M42.76,3.62l-2.87,7.47c-2.41-2.79-3.7-5.18-5.07-8.75l7.94,1.28ZM39.25,8.43c.81-1.52,1.08-2.29,1.55-3.73l-3.24-.55c-.35,1.53,1.05,1.17,1.96,1.21l-.27,3.07Z"/>
      <rect class="cls-1" x="16.96" y="23.39" width="1.35" height="26.96" transform="translate(-21.53 48.56) rotate(-81.05)"/>
      <path class="cls-1" d="M20.04,4.89c-1.21,1.15-3.23,1.53-5.43,1.9L17.05.13l6.88,1.06-3.9,3.7ZM18.44,3.76c0-.27.21-1,.48-.99l1.28.03c.53-.45-1.15-1.12-1.65-.83-1.01.59-1.77,2.72-1.35,2.97.26.16,1.24.13,1.24-.17v-1.02Z"/>
      <path class="cls-1" d="M27.65,44.77c-.54-.08-.43-2.11.09-2.12l5.06.57,2.09-5.49c.16-.42,1.45-.44,1.65-.14.25.37.3,1.16.11,1.68l-2.3,6.45-6.71-.95ZM29.72,44.01l4.15.69c.83-1.99,1.66-4.05,1.84-6.14l-2.04,5.27-3.95.18Z"/>
      <path class="cls-1" d="M21.95,35.62l-9.59-1.56c-.38-.06.12-1.7.51-1.64l10.09,1.53c.35.32-.5,1.76-1.01,1.68Z"/>
      <path class="cls-1" d="M25.22,43.78l-10.35-1.64c-.28-.04-.81-.78-.65-.9.21-.16.76-.47,1.02-.43l10.33,1.56c.29.04.8.68.79.96s-.73.52-1.14.45Z"/>
      <path class="cls-1" d="M34.22,4.11l-10.34-1.46c.15-1.05.81-1.53,1.76-1.4l8.04,1.07c.37.05.55,1,.54,1.78Z"/>
      <path class="cls-1" d="M13.84,5.81l-2.66-.06c.87-1.82,1.73-6.58,4.78-5.63l-2.12,5.68Z"/>
      <path class="cls-1" d="M20.8,23.76l1.59-5.01-2.89-.41c1.83-2.55,3.56-4.66,5.72-6.7l-1.45,4.68,3.24.26-6.21,7.18Z"/>
    </g>
  </g>
</svg>