<?xml version="1.0" encoding="UTF-8"?>
<svg id="Warstwa_2" data-name="Warstwa 2" xmlns="http://www.w3.org/2000/svg" viewBox="0 0 43.8 40.47">
  <defs>
    <style>
      .cls-1 {
        fill: #fff;
      }
    </style>
  </defs>
  <g id="game-icon-v7-magic-pixarts-store">
    <g id="game-icon-v7-magic-pixarts-store_255">
      <path class="cls-1" d="M41.22,13.87l1.43,1.01c-1.15-2.74-2.94-4.74-4.87-6.86l2.74.2c-1.48-1.27-2.84-2.45-4.42-3.3l-2.65-1.42,2.66-.57C27.39-.77,25.4-.84,16.48,2l1.02-.91c-2.61.88-4.82,2.11-7.04,3.5-1.37.85-1.94,2.31-1.99,3.9,1.11.92,3.42.87,3.62,3.45.09,1.24.71,2.04,1.72,2.73,4.67,3.22,5.24,1.21,6.51,2.74.24.29.25,1.25-.12,1.3-3.08.41-5.95,1.1-7.91,3.62,2.17,1.65,2.86,4.43,2,6.78l-.21-2.52c-.17,1.11-.19,2.13-.43,3.2-.86,3.86-3.77,6.11-3.63,9.05l3.26-2.36,1.99-1.38-1.03,3.47c1.33.6,5.82-2.98,6.74-3.83l.16,3.4c.03.72.5,1.67.71,2.32l.21-1.11.48,1.03c2.05-2.53,5.74-6.21,8.77-6.75.13,1.04.22,1.73.94,2.38,2.42-3.07,1.43-5.07,5.3-7.75-1.18,1.97-2.52,3.44-2.9,5.58l2.72-3.43c1.8-2.26,4.08-4.09,6.43-5.74-.54-3.91-2.61-7.64-4.03-11.36.49.16,1.17.36,1.45.56ZM25.31,8.21c-.48,1.91-1.07,3.6-2.76,4.53-2.18,1.21-4.95.22-6.38-1.52-.89-.19-1.61-.41-2.51-.76,1.97-.76,3.55-1.34,5.25-2.3,1.47-.83,5.77-3.11,7.25-1.84l-1.49.43c1.74.45,3.29.62,4.77,1.48l-4.13-.02Z"/>
      <path class="cls-1" d="M2.7,25.5l.19-3.25c.05-.89.98-1.93,1.85-2.44,4.64-2.71,8.94-1.59,13.9-2.19-2.48-.39-4.77-1.13-6.87-2.69-.31-.8-.58-1.89-.83-2.81-.28-1.02-1.53-2.04-2.64-2.17-.64-.07-1.38.54-1.96.83C2.1,12.93-1,15.89.3,21.02c.43,1.7.97,3.27,2.4,4.48ZM8.8,12.87c.41.38.64.85.7,1.55-1.01-.22-1.9-.69-2.2-1.61.41-.42,1.11-.3,1.5.06Z"/>
      <path class="cls-1" d="M15.25,18.75c-2.81-.4-5.56.01-8.23,1.01-1.06.4-1.98.68-2.95,1.52,1.39.26,2.49.19,3.85.17l3.5-.06c1.28-1.18,2.37-1.89,3.84-2.65Z"/>
      <path class="cls-1" d="M22.1,7.83c-.3-.19-1.14.46-.95.79.42.75.32,1.56-.19,1.94-1.49,1.12-1.96-.99-2.79-.84-.19.03-.62.42-.57.65.18.87,1.42,1.89,2.29,1.94,1.25.07,2.27-.56,2.7-1.51.45-1,.47-2.36-.49-2.97Z"/>
    </g>
  </g>
</svg>