<?xml version="1.0" encoding="UTF-8"?>
<svg id="Warstwa_2" data-name="Warstwa 2" xmlns="http://www.w3.org/2000/svg" viewBox="0 0 40.72 45.34">
  <defs>
    <style>
      .cls-1 {
        fill: #fff;
      }
    </style>
  </defs>
  <g id="game-icon-v7-magic-pixarts-store">
    <g id="game-icon-v7-magic-pixarts-store_37">
      <path class="cls-1" d="M0,17.66c-.03.99,1.2,3.66,2.41,3.64-.88,1.03-1.62,1.94-2.39,3.47l2.48-.83c-.98,1.23-1.77,2.04-2.43,3.82l2.83-1.24-.92,1.53c-.8,1.34-1.16,2.89-.59,4.35l1.83-2.47c-.33,2.39-.81,3.95.26,5.67l1.17-3.89c.25,2.54.37,4.43,1.62,6.5.39-2.37,1.18-3.7,3.45-3.84-.73-.64-1.7-.54-2.6-.27,0-.6.93-1.22,1.69-.97,1.05.35,1.66,1.18,2.52,2.08l-.26-1.65.75-.43.27,1.14c.66-.47,1.3-1.78.85-2.55-.64-1.09-2.21-1.11-3.06-.46-1.75,1.34-3.94.85-5.08-.98-.96-1.55-1.51-3.31-.72-5.08.29-.65,1.02-1.18,1.7-.9-1.52,1.13-1.46,2.64-.77,4.24.35.8,1.13,1.78,1.84,2.08,2.2.92,3.84-1.81,5.85-.1,2.14,1.83-1.36,4.75-.23,7.68.59,1.53,2.46,1.74,3.73,2.14-.98.31-2.02-.04-3.17-.44.74,1.86,2.83,2.39,4.72,1.76.78-.26,1.78-.83,2.14-1.42-2.94-3.84-4.26-1.8-4.1-5.48l3.75.86c1.04.24,2.19-.14,3.36-.55l1.98.22c.27,1.69-1.02,2.37-2.35,2.85l-1.77,2c1.31,1.93,4.41,2.45,6.21.88.21-.18.57-1.01.53-1.05-1.16.38-2.07.83-3,.34,1.19-.42,2.96-.63,3.55-1.85,1.55-3.23-2.26-5.79-.25-7.87,1.83-1.89,4.06,1,6.08,0,.67-.33,1.48-1.33,1.81-2.12.69-1.66.56-3.16-.89-4.26,1.25-.29,1.83.75,2,1.73.36,2.03-.43,4.27-2.04,5.51-1.51,1.16-3.15.34-4.57-.46-.89-.5-2.17-.13-2.54.92-.23.65.12,1.36,1.04,2l1.4-1.75c-.42.9-.73,1.77-.97,2.97l2.18-1.77c.96-.78,2.68-.07,2.7,1.16-.8-.87-2.21-.92-3.02-.06.7.1,1.97.14,2.25.59.46.75.87,1.87,1.29,2.94,1.02-1.82,1.51-3.78,1.3-5.81.89.99,1.07,2.2,1.2,3.64,1.46-1.74.68-3.59.58-5.89l1.71,2.24c.86-2.01-.31-3.72-1.51-5.77l1.91,1.07.62.32c.09.05.24-.37.21-.47-.02-.1-.15-.45-.23-.55l-2.18-2.88,2.59.88c-.87-1.52-1.59-2.45-2.47-3.54,1.51-.55,2.71-2.17,2.3-3.71-1.07,1.37-2.39,2.45-3.71,1.17l1.45-.23c.87-.85,1.57-1.98,1.62-3.31-.84,1.04-1.79,2.15-3.05,1.74,2.15-.81,2.64-2.81,2.41-4.87-1.05,1.27-1.69,2.82-3.57,2.92,3.06-4.48,3.24-10.27.52-14.93-2.3,4.83-8.28,5.56-7.97,10.29-1.1-1.45-.4-2.78.75-4.53l-2.84.61,1.53-1.8c-1.55-.02-2.58.35-4.23.88l1.08-1.49c-1.46.07-3.03.78-4.18,1.1l-4.05-1.12,1.02,1.56c-1.71-.59-2.93-1.11-4.51-.9.76.68,1.4,1.29,1.58,1.76-1.37-.42-2.09-.63-2.98-.66,1.5,1.43,2.22,3.32.89,4.92.06-1.77-.05-3.12-1.32-4.13l-2.75-2.19c-1.51-1.21-2.75-2.53-3.71-4.36-2.79,4.24-2.71,10.9.61,15.02-1.83-.09-2.68-1.47-3.59-3.01-.66,1.94.27,4.32,2.42,4.84-1.38.68-2.11-.46-3.06-1.37-.08,1.66,1.11,3.11,2.97,3.24-1.53,1.36-2.57-.07-3.86-1.07ZM7.65,27.52c-.14-.28-1.02-.74-1.1-.47-.19.64.23,1.64.59,2.4-.46-.18-1.07-.71-1.21-1.17-.17-.55,0-1.79.5-1.94,1.01-.3,2.06.48,2.52,1.36.78,1.49,4.67-.64,5.7,1.82-2.15-1.82-5.44,1.1-7-2ZM16.65,24.43l.72-1.56.35,1.99c1.53-1.68.41-3.51-.24-5.4,1.56,1.38,2.35,3.84.91,5.54-2.39,2.84-2.23-3.89-8.33-3.72-1.52.04-3.22-.77-3.11-2.62.98,1.81,2.34,2.06,4.02,1.89l2.64,1.06c.27-1,.37-1.57.61-1.83.28-.31,1.25-.22,1.58.04.41.33.59,1.29.17,1.56l-.5-1.06c-.1-.2-.52-.19-.7-.05-1.24.9.59,3.33,1.89,4.16ZM22.75,24.64l.51-1.82.63,1.63c1.13-.88,2.16-1.93,2.49-3.45.06-.3-.89-.98-1.04-.7l-.73,1.35c-.12-.29-.25-1.12-.08-1.48.2-.43,1.27-.82,1.67-.61.43.22.69,1.07.84,1.99,3.31-1.61,4.51-.13,6.62-2.59-.06,1.31-1.31,2.21-2.67,2.24-6.76.13-6.17,6.44-8.52,4.03-1.44-1.47-1.11-3.84.4-5.31l-.56,2.09c-.22.84-.04,1.82.45,2.63ZM31.51,16.59l-.14-.6c-.03-.14.56-.04.64.09.18.3.19,1.1.06,1.45-.14.38-.84.9-1.29.84l-2.86-.36c.93-1.21,4.1.71,3.6-1.43ZM33.46,29.41c.45-.98,1.35-1.68.42-2.8-3.38,5.13-5.08.15-8.11,3.31.38-1.39,1.97-1.97,3.36-1.68,2.76.58,3.27-1.57,4.52-2.02.28-.1.95.29,1.07.57.4.96-.04,2.58-1.25,2.62ZM34.13,21.64c-.65.72-1.31,1.34-1.59,2.2-1.48,4.53-5.83,2.8-6.95,3.89-.46.45-.82,1.47-.82,2.15v3.47s-.47-2.56-.47-2.56c-.19-.21-.9.28-1.21.63l1.03-2.34c-1.15-.06-1.29.65-2.14,1.28l2.04-3c-.97-.51-1.64.39-2.17,1.31.13-.86.67-1.73,1.41-2.37l.95.53c3.65-7.45,8.81-2.19,10.41-7.85.24-.85-.13-1.43-.49-2.14-.47-.94-.75-1.79-1.8-2-1.07-.21-1.85.32-2.53,1.21,0-.63.29-1.4.69-1.59.46-.21,1.6-.34,2.05-.13,2.64,1.28,3.57,5.14,1.6,7.3ZM28.82,9.03l2.23,2.71c.55-3.75,3.54-5.11,5.15-8.89,1.62,2.84.43,5.45.07,7.96-.13.96-.33,2.56-2.01,2.98-.53-.47-.49-1.43-.03-2.43l-1.03-.03,1.21-2.2c-1.6.24-2.56,1.38-2.92,3.12-1.24-.47-2.78-1.56-2.67-3.22ZM27.79,12.03c.68.32,1.14,1.34,1.07,2.03-.05.59-.61,1.74-1.14,2.04l-3.09,1.77c.2-1.37,4.51-2.57,3.15-4.63-.16-.25-.89-.57-1.17-.63-.26-.06-.71.72-.58.96l.48.95c-1.23.03-1.24-1.07-.96-1.91.21-.62,1.38-.96,2.24-.56ZM23.35,9.23c.32-.89,1.7-1.34,2.66-.77l.77,2c-.44.01-.73.03-.84.02-.17-.01-.03-.41,0-.69l.07-.83c0-.07-2.03.23-2.16.63-.16.49.36,1.37.78,2.08-1.2-.01-1.65-1.35-1.27-2.44ZM24.32,15.33c-1.78,1.93-3.23,3.81-3.94,5.97-.72-2.28-2.36-4.1-3.95-5.95,1.44-2.02,3.07-4.06,3.89-6.65.96,2.48,2.34,4.57,4.01,6.63ZM16.54,8.45c.63.09,1.07,1.38.89,2.05-.14.51-.84,1.14-1.36,1.05l.82-1.23c.95-1.44-2.31-.77-2.52-2.18l2.17.31ZM12.74,12.08c.63-.39,1.73-.19,2.18.22.52.48.42,1.9-.11,2.19-.09.05-.63-.07-.59-.16l.2-.45.3-.69c.1-.22-.92-.67-1.14-.55-.63.34-.99,1.24-.86,1.73.46,1.78,2.44,1.72,3.51,3.49-1.45-.64-4.04-1.48-4.35-3.48-.11-.72.22-1.89.86-2.29ZM12.18,17.94l-2.53.41c-.63.1-1.5-1.4-1.2-1.96.05-.1.44-.36.54-.43.13-.08.12.32.16.54l.12.84c.1.7,1.93-.3,2.91.59ZM10.82,15.83c-.7-.64-1.5-1.16-2.16-1.06-1.99.3-2.87,3.33-2.49,4.49,1.66,5.12,6.86.57,10.43,7.49l.73-.27c.21-.08.82.33.91.53l.79,1.72-1.68-1.79-.61.7c1.03,1.16,1.43,1.62,1.7,2.51l-1.27-1.11c-.17-.15-.6.73-.47.91l.76,1.13-.99-.48-.41,2.42c-.02-1.46.15-2.93-.29-4.43-.77-2.63-6.18.47-7.81-5.1-.21-.72-.94-1.35-1.48-1.98-1.73-2.05-1-5.66,1.29-7.01.46-.27,1.49-.3,2.05-.22.49.08,1.02.83,1.02,1.55ZM4.23,11.54l.68-.45c-1.59-2.52-1.63-5.53-.41-8.3,1.55,3.91,5.32,5.98,4.91,9.02-.72-1.27-1.62-2.34-2.97-2.63l1.1,2.49-.63-.32c-.13-.07-.27-.12-.25,0l.14.62.24,1.04c.07.29-.75,1-1.02.87-.65-.32-1.52-1.59-1.79-2.33Z"/>
      <path class="cls-1" d="M15.18,43.05l1.23,1.78.74-.89c3.55,3.37,6.55-.51,6.73.16l.24.88,1.5-1.98c-4.21.09-3.77-1.74-6.79-.71-1.2.41-2.03.52-3.65.75Z"/>
      <path class="cls-1" d="M22.08,36.89l1.68-.11c.1-.14.14-.72-.05-.91-.14-.14-.88-.16-1.08-.05-3.14,1.73-6.32-1.56-5.92.81.86.08,1.58.11,1.94.36.41.28.6,1.04.91,1.83l.81-.8.33.6c.54.98.52-1.68,1.37-1.74Z"/>
      <path class="cls-1" d="M11.02,38.23c-.09-.08-.81-.46-.77-.67l.24-1.3-1.25,1.53c-.24-.49-.13-1,.2-1.87-2.14-.83-.08,4.33.26,4.85.35-1.11.65-1.71,1.33-2.54Z"/>
      <path class="cls-1" d="M29.98,38.4l1.03,2.34c.22-.49,1.98-4.83.95-4.9l-.84-.06.48,2.14-.99-1.43c-.1-.14-.48.41-.36.53l.56.63-.9.05c-.14,0,0,.56.06.71Z"/>
      <path class="cls-1" d="M20.37,18.79c.69-1.11,1.65-2.39,2.65-3.62l-2.76-4.16-2.66,4.19,2.77,3.59ZM20.29,12.49l1.84,2.63-1.83,2.36-1.77-2.42,1.76-2.57Z"/>
      <path class="cls-1" d="M20.37,16.15c.36-.01.99-.8.94-1.17-.05-.36-.43-.98-.83-1.51-.33.11-.95.93-1.06,1.36-.1.39.55,1.32.95,1.31Z"/>
    </g>
  </g>
</svg>