<?xml version="1.0" encoding="UTF-8"?>
<svg id="Warstwa_2" data-name="Warstwa 2" xmlns="http://www.w3.org/2000/svg" viewBox="0 0 52.77 38.57">
  <defs>
    <style>
      .cls-1 {
        fill: #fff;
      }
    </style>
  </defs>
  <g id="game-icon-v7-magic-pixarts-store">
    <g id="game-icon-v7-magic-pixarts-store_90">
      <path class="cls-1" d="M18.21,26.24c2.42.9,4.29,2.63,6.55,4.3-.31-4.66,1.03-9.01,4.79-11.89l4.99-3.82c-6.69-.71-11.87-.49-15.91-7.03-1.86,8.42-10.71,12.4-17.36,17.01,5.82-.65,11.44-.61,16.94,1.44ZM28.74,16.16c.19-.15-.36.66-.62.86-.27.2-.98.05-1.5-.02l-.87,1.8-.14-3.13,3.14.49ZM23.92,17.09c.65,1.38-.04,2.87-1.11,3.8-1.03.89-2.55,1.17-3.89.09-.69-.56-1.24-1.78-.93-2.39.51-.99,1.22-1.99,2.75-1.06l-1.31,1.66c.31.47,1.38.86,1.98.59.52-.24,1.17-1.31,1.03-1.9-.43-1.86-2-2.56-3.63-3.41,2.09-.5,4.2.65,5.12,2.62ZM17.66,15.41c-1.36,1.68-2.3,3.29-1.36,5.35,1.1,1.35,2.7,2.25,4.31,3.13-2.62.51-5.49-1.59-5.92-4-.35-1.98,1.31-3.93,2.98-4.48ZM13.24,19.14l-1.45,2.31c-.3.48-.77,1.12-1.21,1.23-.49.13-1.58-.19-1.88-.42,3.58-1.23,1.22-1.3,4.53-3.12Z"/>
      <path class="cls-1" d="M46.67,5.61c-1.89-1-3.9-.92-5.35-.07-1.69.99-2.79,3.03-2.45,4.88,1.52.93.64-2.27,3.44-3.62.83-.4,2.46-.52,3.51.03,4.03,2.13,6.22,6.84,5.27,11.22-.31,1.42-1.08,2.64-2.28,3.23-1.04.51-2.59.2-3.88-.44-2.53-1.25-2.9-3.81-4.95-5.82-.02,3.54,2.58,6.46,5.62,7.72,2.87,1.19,6.04-.36,6.81-3.44,1.31-5.24-1-11.18-5.74-13.7Z"/>
      <path class="cls-1" d="M9.8,27.7c8.17.86,9,4.65,13.67,3.16-5.39-5.8-15.55-6.2-23.15-4.98,5.8,4.5,4.81,1.33,9.48,1.83Z"/>
      <path class="cls-1" d="M17.36,8.27c-4.26,1.35-2.39,2.06-6.76,6.31-2.13,2.08-4.24,4.02-7.03,4.94l4.97-3.72c1.71-1.31,3.22-2.95,4.16-5.1-3.84,2.1-7.06,4.97-9.28,8.35-1.22,1.87-2.38,2.16-3.43,5.13,4.23-2.3,7.99-4.71,11.78-7.52,2.8-2.08,4.79-4.88,5.58-8.41Z"/>
      <path class="cls-1" d="M34.68,19.74c.46-1.26.61-2.37.44-3.82-6.79,3.92-9.33,6.52-9.53,14.58,1.29-.45,2.9-1.37,3.69-2.66-1-4.09,1.34-7.62,5.4-8.09Z"/>
      <path class="cls-1" d="M32.06,10.98c-2.74.88-5.67.67-7.63-1.59l-.8-1.88-3.82.19c1.6,3.36,3.92,4.18,6.62,5.21l8.21,1.09c-.44-1.26-1.49-2.54-2.59-3.01Z"/>
      <path class="cls-1" d="M29.5,5.4c-5.33-3.8-12.5-7.57-17.89-1.53,7.3-3.26,11.05-.77,17.89,1.53Z"/>
      <path class="cls-1" d="M39.16,26.11c-8.15,2.19-4.73,11.1-13.26,12.32,2.42.57,4.41-.65,5.95-2.08l3.5-6.23c.88-1.56,2.36-2.66,3.81-4.01Z"/>
      <path class="cls-1" d="M6.3,28.78c3.84,1.72,7.69,2.47,12,2.44-3.36-2.11-7.76-3.54-12-2.44Z"/>
      <path class="cls-1" d="M18.28,34.46c3.04,2.48,6.91,2.04,9.97.37,1.12-.93,1.89-2.01,1.9-3.2-4.31,3.78-6.78,3.31-11.87,2.83Z"/>
      <path class="cls-1" d="M29.95,27.21c2.03-2.23,3.35-4.33,4.45-7.05-3.23.74-5.05,3.93-4.45,7.05Z"/>
      <path class="cls-1" d="M42.33,14.48c.62-1.03-.48-3.21-1.87-3.36l-2.59,1.41.86,2.25,3.6-.3Z"/>
      <path class="cls-1" d="M25.51.17l3.21,2.14c2.22,1.47,4.69,2.76,7.5,2.46C31.03,3.61,28.69-.92,25.51.17Z"/>
      <path class="cls-1" d="M7.86,9.9c2.93-2.19,5.62-3.91,9.23-4.97,2.07-.61-5.7-1.82-9.23,4.97Z"/>
      <path class="cls-1" d="M9,34.66c5.46.2,6.99,4.21,10.9,2.99l-6.56-2.94c-1.36-.61-3.09-.57-4.33-.05Z"/>
      <path class="cls-1" d="M31.37,10.5c-2.06-1.31-4.24-2.14-6.74-2.7.97,2.77,4.25,3.54,6.74,2.7Z"/>
      <path class="cls-1" d="M35.34,12.33l1.36,5.33c1.3-.7,1.08-1.96.83-3.14-.26-1.26-1.09-2.39-2.19-2.18Z"/>
    </g>
  </g>
</svg>