<?xml version="1.0" encoding="UTF-8"?>
<svg id="Warstwa_2" data-name="Warstwa 2" xmlns="http://www.w3.org/2000/svg" viewBox="0 0 42.97 45.1">
  <defs>
    <style>
      .cls-1 {
        fill: #fff;
      }
    </style>
  </defs>
  <g id="game-icon-v7-magic-pixarts-store">
    <g id="game-icon-v7-magic-pixarts-store_132">
      <path class="cls-1" d="M36.75,35.49c-10.12,1.66-20.12,1.51-30.32.17l.06-2.78c.01-.73,1.72-1.19,2.86-1.52l-2.79-1.62.92-12.57c.02-.24,1.51-.92,1.28-.98-2.53-.69-2.05-3.54-2.09-6.5,10.1-1.46,19.71-1.43,29.85.03l-.26,6.87c-.03.73-1.13,2.05-1.56,2.31.73.41,1.43,1.57,1.32,2.62-.19,1.75-.68,2.77-1.74,3.92l1.58.87.9,9.18ZM26.33,20.62c.72-2,1.16-3.58.08-4.81-.9,2.14-.66,4.47-3.5,4.36l1.05-3.71c-.29-2.08-1.56-3.97-3.59-5.24,2.75,7.64-7.18,8.81-4.74,15.36.99,2.66,3.97,3.83,6.49,3.53,2.49-.29,5.46-2.03,5.55-4.91l-1.35-4.59ZM28.99,19.58c0,2.78.57,5.11-.23,7.06-1.54,3.77-5.76,4.94-9.43,3.9-2.01-.57-3.98-1.95-4.68-3.4-2.15-4.44.36-7.11,2.75-10.85-3.29,1.92-5.33,6.04-4.45,10,.87,3.92,5.08,7.03,9.09,6.89,4.15-.15,7.49-3.43,8.46-7.23.6-2.33-.29-4.71-1.51-6.36Z"/>
      <path class="cls-1" d="M37.77,8.5c-11.09-1.48-21.25-1.54-32.13-.16-1.35-2.54-1.39-5.39-.13-8.31,10.72,1.3,21.05,1.42,32.01-.04,1.43,2.52,1.21,5.31.25,8.5Z"/>
      <path class="cls-1" d="M37.38,45.1c-10.74-1.32-20.98-1.4-31.69-.04-1.63-2.58-1.61-5.66-.21-8.19,10.96,1.43,21.24,1.42,32.12-.11,1.46,2.52,1.41,5.47-.22,8.34Z"/>
      <polygon class="cls-1" points="42.97 4.28 39.36 8.2 39.41 .62 42.97 4.28"/>
      <path class="cls-1" d="M3.42,7.8c-.69-.7-.98-1.92-1.07-3.08l-1.39,1.01c-.41.07-1.25-1.72-.86-2.09s1.26-.64,1.87-.85L3.72.38l-.3,7.42Z"/>
      <path class="cls-1" d="M41.63,42.19l-2.15,2.31-.07-7.43,1.75,2.13c.29.35,1.15.85,1.31,1.26s-.51,1.38-.84,1.73Z"/>
      <path class="cls-1" d="M1.85,42.25c-.17-.26-1.03-.41-1.33-.54-.37-.16-.57-1.5-.18-1.61l1.64-.48,1.59-2.8-.29,7.53-1.42-2.1Z"/>
      <path class="cls-1" d="M25.41,24.15c.68,1.8.04,3.6-1.39,4.27-1.49.7-3.34.39-4.73-1.05-.79-.82-1.05-2.87-.51-4.12.43-.99,1.87-2.23,2.76-2.73l2.13,3.41.76-.55c.18-.13.88.49.99.78Z"/>
    </g>
  </g>
</svg>