<?xml version="1.0" encoding="UTF-8"?>
<svg id="Warstwa_2" data-name="Warstwa 2" xmlns="http://www.w3.org/2000/svg" viewBox="0 0 36.55 42.5">
  <defs>
    <style>
      .cls-1 {
        fill: #fff;
      }
    </style>
  </defs>
  <g id="game-icon-v7-magic-pixarts-store">
    <g id="game-icon-v7-magic-pixarts-store_64">
      <path class="cls-1" d="M33.13,7.48c.9-.43,1.98-1.02,2.38-1.78,1.18-2.23.02-4.71-2.08-5.45-2.16-.77-4.26.27-5.21,2.5-1.43-1.76-3.04-2.55-5.02-2.36-3.86.38-6.57,4.63-5.4,8.16.53,1.58,1.92,3.47,3.97,3.77l2.87.13c-1.56.63-2.95-.46-4.03,1.28,1.22,1.17,2.02,1.86,3.27,2.71l.38-3.33c.49,2.76,1.83,4.71,4.41,5.47,2.39.7,5.1-.35,6.59-2.46,1.06-1.51,1.63-3.31,1.02-5.15-.48-1.42-1.62-2.95-3.17-3.5ZM29.66,3.77c.14-.66,1.01-1.48,1.94-1.69.64-.14,1.63.17,1.98.54.47.5.67,1.7.26,2.38-.75,1.22-2.17,1.61-3.39,1.08-.62-.27-.93-1.6-.79-2.31ZM24.41,8.66c-.07.58-.04,1.21.03,2.03-1.24-.06-3.09-.49-3.87-1.78-1.09-1.8-.31-3.89,1.36-5,1.45-.95,3.69-.85,4.98.86.37.49.49,1.8.49,2.36l-1.27-.18c-.34-.05-1.09.99-.84,1.26l2.38,2.59-3.26-2.15ZM30.38,16.02c-2.09.22-3.98-1.42-3.73-3.76l2.88-1.52c-.17-.76-.35-1.1-.07-1.4.35-.37,1.31-.66,1.7-.57,1.72.43,2.41,1.4,2.53,3.02.16,2.19-1.16,4-3.3,4.22Z"/>
      <path class="cls-1" d="M2.97,39.11c2.23-2.68,4.45-5.1,6.79-7.67l9.9-10.84-2.55-2.38-9.13,10.19L.22,37.32c-.53.61,0,1.84.56,2.19.71.44,1.62.28,2.18-.4Z"/>
      <path class="cls-1" d="M11.59,35.9c.11.02.56.16.64.24l1.5,1.51,1.7-2.19-2.14-1.82-1.11.76c-.2.14-.82-.28-.9-.46.14-.65-.08-1.77-.66-1.72-.11,0-.53.42-.62.37l-.46-.28-4.96,5.74c.02.33.73,1.1.98.91l1.03-.77c.27-.2,1.09.43.99.76-.08.27-.31.84-.49,1.28-.33.8,1.41,1.94,1.99,2.26.2.11,2.35-1.79,1.51-2.43-.75-.58-1-1.24-1.13-1.81-.05-.23-.67-.74-.52-.9l.46-.5c.26-.28,1.38,1.21,1.76.58.38-.62-.07-1.61.42-1.54Z"/>
      <path class="cls-1" d="M20.27,14.27c-.2-.15-.85-.27-1.09-.28-.23-.01-.6.67-.49.89,1.01,2.11,4.16,4.23,5,3.25.18-.21.02-1.15-.26-1.36l-3.17-2.5Z"/>
      <path class="cls-1" d="M17.71,15.92c-1.24,1.36,2.46,5.04,4.13,3.84.18-.13.17-.77,0-.92l-3.22-2.64c-.32-.26-.74-.46-.9-.28Z"/>
    </g>
  </g>
</svg>