<?xml version="1.0" encoding="UTF-8"?>
<svg id="Warstwa_2" data-name="Warstwa 2" xmlns="http://www.w3.org/2000/svg" viewBox="0 0 43.66 44.96">
  <defs>
    <style>
      .cls-1 {
        fill: #fff;
      }
    </style>
  </defs>
  <g id="game-icon-v7-magic-pixarts-store">
    <g id="game-icon-v7-magic-pixarts-store_78">
      <path class="cls-1" d="M17.78,28.88l4.14,16.07,4.18-16.35c.5-1.15,1.18-1.81,2.28-2.12l15.29-4.26-13.92-3.58c-1.07-.28-2.06-.75-3.13-1.29-2.26-6.06-2.81-11.05-4.75-17.36l-4.05,15.89c-.47,1.35-1.27,2.12-2.68,2.48L0,22.26l15.8,4.34c1.06.29,1.54,1.26,1.98,2.28ZM16.64,21.06c4.85-.85,4.3-8.53,5.35-12.44.38,3.06.71,6.03,1.55,9.06,1.17,4.24,7.56,3.78,10.93,4.67-3.58.61-9.77.67-10.93,4.67-.85,2.94-1.18,5.78-1.57,8.76-1.05-3.86-.51-10.62-4.82-11.96-2.63-.81-5.12-1.18-7.9-1.47l7.39-1.29Z"/>
      <path class="cls-1" d="M27.05,30.85l6.91,3.53-3.46-7.1c-.71.07-1.64.41-2.17.7l1.5,1.99-2.17-1.23c-.31.32-.8,1.52-.61,2.1Z"/>
      <path class="cls-1" d="M16.72,13.84l-6.95-3.46,3.58,7.08c.72-.11,1.64-.46,1.94-.75l-1.17-1.98,1.9,1.23c.48-.29.96-1.48.68-2.12Z"/>
      <path class="cls-1" d="M30.5,17.45l3.45-7.06-6.99,3.52c0,.68.37,1.61.73,2.18l1.94-1.29-1.17,2.06,2.04.59Z"/>
      <path class="cls-1" d="M13.37,27.17l-3.53,7.19,6.91-3.54c.11-.51-.23-1.63-.54-2.08l-2.1,1.23,1.46-2.04-2.19-.75Z"/>
      <path class="cls-1" d="M8.01,35.63c-1.96,1.45-3.68,3.13-4.98,5.59.06,0,6.63-4.96,4.98-5.59Z"/>
      <path class="cls-1" d="M35.71,8.94c2.3-1.53,3.79-3.53,5.12-5.57-1.23.68-6.27,4.84-5.12,5.57Z"/>
      <path class="cls-1" d="M40.59,40.99c-1.39-2.14-2.75-4.41-5.19-5.12,1.26,2.29,3.2,3.81,5.19,5.12Z"/>
      <path class="cls-1" d="M7.65,8.77c.13.11.81-.06.72-.18-1.74-2.45-2.48-3.2-5.26-5.02,1.01,1.78,3.02,3.93,4.54,5.2Z"/>
      <path class="cls-1" d="M9.47,28.04c-1.74-.15-5.01,1.83-6.7,3.13-.6.48,8.61-2.97,6.7-3.13Z"/>
      <path class="cls-1" d="M34.24,16.68c2.51-.23,4.55-1.51,6.33-2.87-2.4.6-4.85,1-6.33,2.87Z"/>
      <path class="cls-1" d="M34.12,28.06c1.89,1.69,4.17,2.36,6.52,2.86-2.05-1.39-3.98-2.97-6.52-2.86Z"/>
      <path class="cls-1" d="M13.1,41.05c1.45-1.92,2.23-3.67,3.12-6.15-.82-1.98-3.37,6.02-3.12,6.15Z"/>
      <path class="cls-1" d="M27.74,34.92c-.14,1.26,2.12,5.25,3.17,6.68.48.54-2.91-8.98-3.17-6.68Z"/>
      <path class="cls-1" d="M28.25,9.83c.59-.26,2.52-5.46,2.67-6.51-.54.18-4.34,7.26-2.67,6.51Z"/>
      <path class="cls-1" d="M9.43,16.56c1.16-.28-5.38-3.02-6.33-2.78.86.63,4.82,3.16,6.33,2.78Z"/>
      <path class="cls-1" d="M13.05,3.62c-.01,1,1.97,5.93,2.56,6.17,1.48.61-2.02-5.91-2.56-6.17Z"/>
      <path class="cls-1" d="M21.88,29.55c1.26-4.16,1.78-6.22,7.34-7.15-5.34-1.36-6.06-2.2-7.24-7.5-1.56,5.01-1.69,6.29-7.37,7.42,4.82,1.14,5.89,1.87,7.27,7.23Z"/>
    </g>
  </g>
</svg>