<?xml version="1.0" encoding="UTF-8"?>
<svg id="Warstwa_2" data-name="Warstwa 2" xmlns="http://www.w3.org/2000/svg" viewBox="0 0 31.51 41.52">
  <defs>
    <style>
      .cls-1 {
        fill: #fff;
      }
    </style>
  </defs>
  <g id="game-icon-v7-magic-pixarts-store">
    <g id="game-icon-v7-magic-pixarts-store_153">
      <path class="cls-1" d="M31.4,24.55c-1.52,1.42-3.43,2.92-2.88,5.13-2.23.29-3.7.97-4.88,2.9l-19.04.05-.05-32.64,19.25.1c1.25,1.61,3.15,2.65,4.73,3.14.33,1.58.89,3.67,2.86,4.61v16.7ZM16.06,22.78l1.69,4.5,1.68-4.66,3.63,3-.88-4.36,4.88.48-3.2-3.47,5.12-1.7-5.04-1.64,2.87-3.7-4.78.83.83-4.58-3.45,2.82-1.7-4.62-1.55,4.78-3.82-3.06.86,2.97-.26,1.94c2.36-1.42,4.33-2.27,6.8-1.45,2.05.68,3.86,2.6,4.12,5.11.3,2.87-1.67,5.31-3.87,6.26-2.64,1.15-5.6-.2-7.04-1.9-2.01-2.37-1.57-4.86-.03-7.83-1.34-.59-2.89-1-4.24-1.06l2.86,3.52-4.39,1.6,4.61,1.82-3.09,3.25,4.55-.28-.67,4.22,3.53-2.79ZM22.76,16.5c0-2.78-2.25-5.04-5.04-5.04s-5.04,2.25-5.04,5.04,2.25,5.04,5.04,5.04,5.04-2.25,5.04-5.04Z"/>
      <path class="cls-1" d="M.18,29.28l2.52-2.69L.03,27.46.1,8.68c0-.77,1.76-1.72,2.19-2.55-.76.22-1.18.44-2.22.92L0,3.74C-.04,1.76,1.67-.11,3.64.32v32.21c-1.26.81-2.23,1.89-2.08,2.98.48,3.38,4.28,1.66,5.05,2.65-1.84,1.83-5.74,1.02-6.29-1.58-.47-2.22-.25-4.75-.14-7.3Z"/>
      <path class="cls-1" d="M12.2,38.47c5.87-1.93,11.72-.06,17.4-.98-.06-1.19.05-2.46.66-3.7l1.04,5.05c-6.31-.03-12.43.59-19.1-.37Z"/>
      <path class="cls-1" d="M11.54,41.4c-.78-.39-1.7-1.23-2.09-1.01l-2.12,1.13.07-5.81,4.16.14-.02,5.55Z"/>
      <path class="cls-1" d="M25.19,32.62c-.36-1.57,2.03-1.37,3.9-1.81,1.31-.31-.26-3.95,2.37-4.88l.06,6.57-6.33.12Z"/>
      <path class="cls-1" d="M28.49,34.56c-7.34.59-15,.39-22.61.18l7.69-.59c4.85-.38,9.59-.52,14.92.41Z"/>
      <path class="cls-1" d="M31.38,6.61c-1.53-.59-1.48-1.8-1.68-3.26l-.17-1.25c-.12-.86-3.75.33-4.37-2.09l6.16.17.07,6.43Z"/>
      <rect class="cls-1" x="13.13" y="35.8" width="14.67" height=".45"/>
    </g>
  </g>
</svg>