<?xml version="1.0" encoding="UTF-8"?>
<svg id="Warstwa_2" data-name="Warstwa 2" xmlns="http://www.w3.org/2000/svg" viewBox="0 0 44.77 46.13">
  <defs>
    <style>
      .cls-1 {
        fill: #fff;
      }
    </style>
  </defs>
  <g id="game-icon-v7-magic-pixarts-store">
    <g id="game-icon-v7-magic-pixarts-store_252">
      <path class="cls-1" d="M8.77,40.71c-1.58-.42-2.95-1.91-3.49-3.43l9.93-9.22c2.35-2.19,4.38-4.61,6.56-7.03l2.96,2.86c-5.72,5.34-10.94,10.71-15.95,16.81Z"/>
      <path class="cls-1" d="M44.4,8.4c.84,2.34.17,5.27-1.77,7.12-1.58,1.51-4,1.66-6.03.87-4.41-1.72-7.2,1.15-8.36,1.16-1.56,0,2.63-3.31.89-8.64-.64-1.97-.77-4.16.39-5.86,1.64-2.41,4.62-3.37,7.37-2.6-9.09,3.45-3.33,7.63-5.91,13.96,2.03-.61,4.04-.96,6.04-.57,3.64.72,6.51-1.54,7.38-5.44Z"/>
      <polygon class="cls-1" points="42.18 7.96 33.56 11.81 37.2 7.82 34.87 6.19 41.22 0 44.77 2.8 39.6 6.08 42.18 7.96"/>
      <path class="cls-1" d="M6.44,44c.09.35-.56,1.33-1,1.39l-5.44.75c.08-1.8.32-4.33.59-6.02.06-.37,1.28-.9,1.4-.6.25.59.42,1.73.45,2.29.37,0,1.28.11,1.6.37.36.3.58,1.25.61,1.81h1.78Z"/>
      <path class="cls-1" d="M36.72,19.67l-1.58,1.8c-.48.55-1.93.14-2.13-.43.61-.28,1.29-.6,1.67-.82s-.2-1.58-.62-1.71c-1.27-.4-2.81-.11-4.43.09,1.14-1.63,3.16-1.85,4.94-1.53l4.58.84-2.44,1.76Z"/>
      <path class="cls-1" d="M27.11,11.74c-.05-.47-1.25-1.22-1.65-1.07-.46.18-.69.99-.79,1.94-.76-.13-.96-1.46-.61-2.37.24-.63,1.62-1.11,2.2-1.64.5-.47.44-1.99,1.39-2.53l.66,3.98c.36,2.14.22,4.27-1.33,5.96.11-1.61.31-2.71.13-4.27Z"/>
      <path class="cls-1" d="M25.66,15.83c2.76,4.44,4.52,3.35,4.36,5.04-.04.44-1.04,1.06-1.51.87-2.21-.91-5.69-4.33-4.26-5.99.22-.26,1.21-.23,1.41.08Z"/>
      <path class="cls-1" d="M4.56,37.91c1.84,3.81,4.07,3.22,4.22,4.61.04.37-.95,1-1.35.88-3.58-1.14-5.87-5.29-4.15-6.06.34-.15,1.11.23,1.28.58Z"/>
      <path class="cls-1" d="M23.64,18.95c1.91,2.08,4.8,3.97,3.3,4.3-2.04.45-5.5-3.15-4.25-4.8.15-.2.7.21.96.5Z"/>
    </g>
  </g>
</svg>