<?xml version="1.0" encoding="UTF-8"?>
<svg id="Warstwa_2" data-name="Warstwa 2" xmlns="http://www.w3.org/2000/svg" viewBox="0 0 37.86 39.7">
  <defs>
    <style>
      .cls-1 {
        fill: #fff;
      }
    </style>
  </defs>
  <g id="game-icon-v7-magic-pixarts-store">
    <g id="game-icon-v7-magic-pixarts-store_138">
      <path class="cls-1" d="M22.59,16.74l4.41.58-.25,2.19,2.77.78-.18,10.84H4.63s0-31.13,0-31.13l15.37.06h9.51s.08,10.82.08,10.82l-6.85.46-.13,5.41ZM20.26,4.06l-11.18-.1c-.39,0-1.14.7-1.09,1.05s.74.98,1.23.98l15.58-.04c.49,0,1.3-.98,1.09-1.36-.7-1.27-3.11-.51-5.64-.53ZM13.67,10.21l.18-1.21c.04-.24-.94-.69-1.18-.69h-3.99c-.47.02-.66,1.75-.21,1.76l5.2.14ZM25.74,8.69c-.14-.03-.79-.35-.99-.35l-7.97-.06c-.41,0-1.17.45-1.35.74-1.61,2.59,14.47.41,10.31-.33ZM13.68,12.84l-5.45-.2-.08,1.4c-.03.57,6.48.9,5.53-1.2ZM19.18,14.44c.33,0,1.08-.99.91-1.21-.11-.14-.5-.62-.68-.62l-4.98.08c-.26,0-1.01.7-.84.9s.77.85,1.02.85h4.57ZM16.51,18.79c.3,0,1.2-.92.98-1.12s-.92-.75-1.29-.75l-7.17-.04c-.46,0-1.31.83-1.18,1.24.1.32.89.88,1.24.87l7.41-.19ZM26.13,26.76l-.22-5.57-10.52.08v5.78s10.74-.29,10.74-.29Z"/>
      <path class="cls-1" d="M.12,28.23l2.45-2.43c-1.03-.02-1.63.23-2.54.68L0,10.66c0-1.66.85-2.89,2.3-3.63.03-.21-.4-1.02-.61-.9l-1.45.79C.06,5.45-.03,3.64.44,2.04.79.81,2.51.02,3.64.29l.09,30.62c-1.31.98-2.22,2.26-1.97,3.57.29,1.53,1.63,2.14,3.25,2.09l1-.03c.25,0,.46.88.22.93l-1.2.25c-2.4.49-4.9-.87-4.9-3.51v-5.98Z"/>
      <path class="cls-1" d="M29.55,17.38c-.11.07.26,1.29.3,1.41.04.13.05.21-.09.19l-1.37-.18.19-2.55-4.75-.38.16-3.72c4.38-.43,8.33-.48,12.2-.11-.65,1.88-.43,3.17.03,4.47.32.91-2.22,2.58-2.93,1.92-.95-.88-2.88-1.59-3.74-1.05Z"/>
      <path class="cls-1" d="M11.9,37.21c5.52-1.86,10.78-.05,16.03-.99-.08-1.33-.1-2.91.6-4.09l1,5.5c-5.85-.04-11.61.43-17.63-.42Z"/>
      <path class="cls-1" d="M11.29,39.7l-1.69-1.2c-.42-.3-1.42.61-2.28,1.14l.02-5.23,3.84-.05.11,5.34Z"/>
      <path class="cls-1" d="M35.94,26.19c-1.19-1.48-2.97-1.19-4.71-1.14-.85-.95.85-3.19,2.07-2.99.22.52.28,1.66.67,1.68l1.68.12c-.33-.64-.54-1.21-.54-1.74.01-.93,1.61-1.09,1.95-.39.19.39-.76,1.53-.5,1.88l1.31,1.75-1.92.83Z"/>
      <rect class="cls-1" x="6.39" y="32.89" width="20.16" height=".45"/>
      <rect class="cls-1" x="12.73" y="34.7" width="13.82" height=".45"/>
      <path class="cls-1" d="M23.48,24.13l.84.95-6.88.13c-.51,0-.88-1.28-.74-1.65.17-.47,1.16-.75,1.81-.74l6.26.08-1.3,1.24Z"/>
    </g>
  </g>
</svg>