<?xml version="1.0" encoding="UTF-8"?>
<svg id="Warstwa_2" data-name="Warstwa 2" xmlns="http://www.w3.org/2000/svg" viewBox="0 0 43.97 43.72">
  <defs>
    <style>
      .cls-1 {
        fill: #fff;
      }
    </style>
  </defs>
  <g id="game-icon-v7-magic-pixarts-store">
    <g id="game-icon-v7-magic-pixarts-store_265">
      <path class="cls-1" d="M40.47,19.64c-.73.15-1.45.76-1.62,1.31-.23.75-.09,1.54.45,2.06.34.33,1.1.33,1.26-.02-.8-.13-.97-.79-.77-1.35.2-.58.99-.72,1.52-.45.85.42,1,1.31.7,2.12-.22.6-.91,1.22-1.7,1.27-2.9.16-3.76-3.07-4.4-5.15-.46-1.48-1.07-2.75-1.81-4.26,4.96.07,2.87-3.84,7.24-3.46-3.61-1.98-4.09,1.7-6.42,1.76-.65.02-1.89-.03-2.34-.39l-3.14-2.46,1.9-1.57c1.22-1.01,1.66-2.71,1.16-4.09-1.57,4.41-2.51,2.39-4.78,4.88l-4.47-1.13,1.37-.94c-.22-.15-.41-.24-.35-.32l.24-.31c.62-.82.97-1.63,1.36-2.57,0,.55-.05,1.09-.12,1.65.86-1.66.7-3.53-.65-4.98-.86-.93-2.15-1.5-3.38-1.14-1.12.33-2.11,1.24-2.28,2.51-.17,1.25.54,2.44,1.81,2.69.56.11,1.24-.13,1.58-.58.26-.34.29-1,.13-1.34-.29.45-.56.84-.89.92-.29.07-.94-.29-1.07-.59-.24-.56,0-1.29.42-1.61.3-.22,1-.4,1.46-.28.78.21,1.36.94,1.49,1.5.62,2.68-2.33,4.14-4.69,4.71-1.61.39-3,1.03-4.46,1.93-.06-4.74-3.92-2.71-3.48-7.24-1.11,1.28-.73,3.14.5,4.23,1.5,1.33,1.43,3.09.85,4.88-.94.8-1.68,1.72-2.4,2.84-.23-.18-.64-.61-.77-.88-.84-1.81-2.58-2.98-4.63-2.52,4.03,1.87,2.15,2.83,4.48,5.24-.36,1.4-.66,2.88-.93,4.48l-.97-1.91-.47.33c-.97-.88-2.03-1.38-3.23-1.71l1.26-.13c-1.53-.63-3.08-.3-4.29.93-.77.79-1.25,1.89-1.1,2.96.14,1.01.8,1.94,1.78,2.42,1.3.64,2.95.11,3.33-1.34.16-.6-.02-1.29-.47-1.75-.29-.29-.95-.46-1.36-.22.5.39.87.61.91,1.03.03.36-.32.92-.65,1.03-.26.08-.84,0-1.08-.17-.82-.6-.84-1.59-.42-2.32.41-.7,1.3-1.17,2.22-.96,1.56.35,2.63,1.73,3.05,3.31.56,2.13,1.04,4.07,2.42,6.02-.49.11-.9.21-1.39.29-3.24.54-1.84,3.87-6.09,2.93,1.2,1.37,3.2,1.05,4.39-.16,1.48-1.51,3.02-1.4,4.93-.74.85.91,1.8,1.72,2.85,2.49l-1.37.97c-1.54,1.09-2.21,2.9-1.61,4.62,1.53-3.99,2.08-2.65,4.89-4.68,1.38.49,2.77.75,4.2.85-.97.29-.92,1.07-1.24,1.56-.8,1.23-1.13,2.3-1.06,3.96-.69-1.22-.01-2.28.46-3.77-.78,1.29-1.3,2.82-.71,4.27.65,1.59,2,2.66,3.74,2.58,1.4-.07,2.74-1.28,2.88-2.73.07-.75-.28-1.55-.75-2.01-.85-.83-2.34-.67-2.89.2-.15.24-.03.95.07,1.18.3-.39.54-.74.79-.86.25-.12.96.18,1.11.42.2.33.18,1.03,0,1.31-.59.95-2.1.83-2.83.01-1.2-1.35-.37-3.4,1.21-4.35,3.32-1.99,4.1-.92,7.53-3.65-.25,5.72,4.06,2.97,3.32,7.94,1.12-1.37.75-3.43-.55-4.61-1.03-.94-1.15-2.03-1.1-3.39.03-.88.09-1.65.71-2.39,3.52-4.15,3.2-11.54-.76-15.54-2.7-2.73-6.62-3.82-10.36-3.04l.37.25c-4.46,1.5-5.42,2.67-7.33,6.85.1-.83.34-1.5.65-2.53-2.41,3.6-1.98,8.36,1.09,11.61,2.31,2.44,5.87,3.32,9.03,2.15,3.08-1.14,5.15-3.95,5.04-7.2-.14-3.89-3.4-6.78-7.25-6.3-2.7.34-4.54,2.76-4.16,5.42.27,1.89,1.85,3.25,3.76,3.23.9,0,1.77-.57,2.06-1.18.39-.82.36-1.74-.14-2.4-.38-.5-1.32-.5-1.49-.07.41.45.66,1,.46,1.33-.23.38-.88.53-1.28.39-.92-.33-1.2-1.18-1.1-2.11.07-.57.61-1.38,1.31-1.71,1.92-.89,4.05.41,4.5,2.42.31,1.38.07,2.75-.79,3.81-1.3,1.61-4.11,2.21-6.26.98-1.89-1.08-2.99-2.81-3.14-5.01-.19-2.83,1.49-5.05,3.88-6.47.47-.28.77-.38,1.36-.49,5.02-.97,9.63,2.48,10.02,7.6.44,5.66-3.92,10.23-9.63,10.08-4.61-.12-8.54-3.07-9.84-7.62-1.09-3.81-.16-8.2,2.63-11.11,4.95-5.16,13.45-4.67,17.93.79,2.67,3.26,2.3,4.09,3.3,7.8.16.58.62,1.28.9,1.73.94-.73,1.1,1.58,4.74,1.51-.83.18-1.55.14-2.49.19,2.28.62,4.13.14,5.33-2.12.6-1.14.39-2.32-.33-3.26-.61-.8-1.66-1.37-2.81-1.13Z"/>
      <path class="cls-1" d="M38.97,32.33c-1.27-.4-2.47-1-3.15-2.15-.26-1.25-.93-2.25-1.99-2.95-.74.92-.26,1.7.15,2.59.86,1.9,2.79,3.35,5,2.51Z"/>
    </g>
  </g>
</svg>