<?xml version="1.0" encoding="UTF-8"?>
<svg id="Warstwa_2" data-name="Warstwa 2" xmlns="http://www.w3.org/2000/svg" viewBox="0 0 49.33 52.94">
  <defs>
    <style>
      .cls-1 {
        fill: #fff;
      }
    </style>
  </defs>
  <g id="game-icon-v7-magic-pixarts-store">
    <g id="game-icon-v7-magic-pixarts-store_23">
      <path class="cls-1" d="M30.84,18.47l3.82.02c-1.11-3.02-4.11-2.98-6.67-5.33-1.94-.37-4.55-.39-6.53-.01-2.81,2.63-5.3,1.95-6.78,5.28,1.34.08,2.61.07,3.89-.02.8-2.05,1.77-3.59,3.62-4.1-1.12,1.49-1.91,2.52-2.54,4.19l10.2.04c-.74-1.99-1.75-3.02-3.07-4.44,2.34.48,3.17,2.31,4.06,4.39Z"/>
      <path class="cls-1" d="M16.11,45.33c.16.66.95,1.87,1.73,2.21l5.24,2.34-1.13.5,2.69,2.56,2.92-2.79-1.41-.2,2.53-1.09c1.88-.8,3.6-1.29,4.69-3.56-1.01-.14-2.14-.14-2.84.04-.69,1.38-1.54,2.5-2.8,3.02l1.59-3.17h-9.11s1.2,2.91,1.2,2.91c-3.13-1.61-.79-3.64-5.32-2.78Z"/>
      <path class="cls-1" d="M22.32,37.48l-.68-.09.41,3.8,5.38-.1.28-3.67-1.31-.08c3.75-5.49-2.75-4.93-1.33-9.59-1.75,1.09-2.25,3.27-.82,4.97.54.65.99,2.52-.33,2.65-.63.07-1.16-1.43-1.2-2.16-2.34,1.81.89,4.45-.39,4.28Z"/>
      <path class="cls-1" d="M35.54,42.18l-21.53.07c-.5.09-.44,1.86.15,1.86h21.49s-.11-1.93-.11-1.93Z"/>
      <rect class="cls-1" x="11.65" y="19.5" width="26.03" height="1.89"/>
      <path class="cls-1" d="M17.31,25.86l-.35-3.42-3.67.11,2.19,18.5,2.98.05-.27-3.37-1.47,2.72-1.7-14.23c-.09-.73.18-1.64.53-2.42l1.76,2.07Z"/>
      <path class="cls-1" d="M32.28,22.47l-.17,2.98,1.91-1.63c.26,1,.5,1.96.4,2.73l-1.79,13.79c-.75-.85-.85-1.3-1.52-2.54l-.21,3.38,2.93-.11,2.24-18.5-3.79-.1Z"/>
      <path class="cls-1" d="M27.35,10.09c3.1-1.51,3.6-5.71,1.34-8.26-2.17-2.44-6.02-2.51-8.25.24-1.89,2.32-1.48,6.37,1.39,7.89,1.69-.56-3.68-3.64-.15-7.34,1.52-1.59,4.13-1.74,5.87-.13,3.58,3.31-.96,6.42-.2,7.6Z"/>
      <path class="cls-1" d="M29.87,40.75l1.34-17.21c.03-.35-.06-1.11-.27-1.09l-.88.08c-.21.02-.22.54-.24.93l-1.25,17.53c-.02.33,1.29.08,1.31-.24Z"/>
      <rect class="cls-1" x="18.74" y="22.39" width="1.41" height="18.81" transform="translate(-2.6 1.75) rotate(-4.82)"/>
      <path class="cls-1" d="M20.63,27.25c.97-1.49,2.33-3.08,3.94-3.63,1.73.36,2.98,2.19,4.02,3.63l.44-4.75h-8.77s.38,4.75.38,4.75Z"/>
      <path class="cls-1" d="M23.34,8.47l-.86,3.47,4.36.03-.92-3.61c-.2-.78-2.39-.66-2.58.12Z"/>
      <path class="cls-1" d="M8.99,32.02c-2.85-1.29-6.09-.92-8.99.01,3.09.91,6.05,1.2,8.99-.01Z"/>
      <path class="cls-1" d="M40.37,31.98c2.94,1.35,6.18.88,8.96.07-3.18-1.06-6.02-1.17-8.96-.07Z"/>
      <path class="cls-1" d="M38.33,38.82c1.43,2.32,4.05,3.5,6.43,4.2-1.85-1.89-3.82-3.6-6.43-4.2Z"/>
      <path class="cls-1" d="M10.78,39.65l-.61-.88c-2.32,1.45-4.04,2.3-5.55,4.36,2.35-.9,3.91-1.93,6.16-3.48Z"/>
      <path class="cls-1" d="M4.54,20.99c1.63,1.85,3.49,3.42,6.1,3.95-1.27-2.1-3.66-3.11-6.1-3.95Z"/>
      <path class="cls-1" d="M38.72,24.73c2.43.05,4.42-1.96,6.03-3.71-2.42.64-4.33,1.82-6.03,3.71Z"/>
      <path class="cls-1" d="M39.73,35.65c1.21,1.15,2.68,1.59,4.09,1.18-1.34-1.15-2.65-1.48-4.09-1.18Z"/>
      <path class="cls-1" d="M40.06,28.35c1.51.16,2.84-.27,3.82-1.23-1.62-.34-3.05.11-3.82,1.23Z"/>
      <path class="cls-1" d="M9.55,28.07c-1.35-.86-2.68-1.17-4.12-1.05,1.14,1.08,2.71,1.77,4.12,1.05Z"/>
      <path class="cls-1" d="M5.51,36.91c1.55.14,2.93-.23,4.15-1.22-1.51-.4-2.94.07-4.15,1.22Z"/>
    </g>
  </g>
</svg>