<?xml version="1.0" encoding="UTF-8"?>
<svg id="Warstwa_2" data-name="Warstwa 2" xmlns="http://www.w3.org/2000/svg" viewBox="0 0 42.65 41.91">
  <defs>
    <style>
      .cls-1 {
        fill: #fff;
      }
    </style>
  </defs>
  <g id="game-icon-v7-magic-pixarts-store">
    <g id="game-icon-v7-magic-pixarts-store_210">
      <path class="cls-1" d="M22.41,24.55c-1.08.2-2.72-.61-3.84-1.24l1.21-.55-1.81-.21c-.33-2.09-.31-4.27.07-6.46,2.73,1.49,1.56,3.34,1.1,5.85l1.97-4.32c.24-.52,6.27-3.61,5.81-2.49l.56-1.35-4.13,1.54c.11-.99.5-2.2,1.15-3l6.23-7.71.15,3.32,3.01-.95-2.32.25-.32-3.44,9.47-2.7-2.37,9.25-3.83-.09c-.3,0-.75-.61-.94-.91l-.88,1.97c1.7-.48,3.18-.64,5.25-.42l-9.14,7.05-3.09.02c.32-.74.77-1.77.94-2.8l-2.66,5.87c-.91.38-2.29,1.02-3.4.5l-.87,1.09c3.67-.19,3.81-1.29,6.23,1.24l-3.55.67Z"/>
      <path class="cls-1" d="M14.47,5.19l-1.62,4.91-.4-4.74c-4.42.86-7.81,3.84-10.53,7.32,1.14-4,4.27-6.51,7.58-8.71l-2.98-.62,10.43-1.96-3.23-.36c.54-.78,8.62.41,9.07.56l3.08,1.02-.9-2.61,3.01,2.45,1.86.54-4.99,5.99.05-2.67c-1.38-1.02-3.12-.45-4.33.63-.09-.94-.48-1.95-1.02-1.81l-1.89,3.59-.65-3.95-2.54.42Z"/>
      <path class="cls-1" d="M38.23,27.62l-3.28-.25,2.74-1.6c.31-.18.99-.56.93-.87l-.26-1.38-1.2.52c.77-1.16,1.45-1.74.84-2.82l-3.7,1.64,2.42-3.25c.27-.36.46-1.13.32-1.5-.18-.5-1.2-.74-1.77-.75l-1.11-.02c-.2,0,.3-.81.49-.99l4.92-4.4,3.07,2.98-2.69-.47c.42,1.33.72,2.4,1,3.56.62,2.56,1.96,4.74,1.65,7.58l-.82-1.39-1.2,9.23-.92-2c-1.99,3.18-3.82,6.23-7.25,7.76,3.3-3.06,5.46-7.17,5.81-11.58Z"/>
      <path class="cls-1" d="M12.57,30.72c-.39-.07-.24,2.97-3.44,4.42-.74-.26-1.85-1.26-2.11-1.88l.68-1.92c.47-1.32,2.67-2.05,4.78-4.64l2.46-3.01,1.74,1.69,1.58,1.48-2.76-.19,1.57.92-3.61,3.29-.9-.16Z"/>
      <path class="cls-1" d="M5.77,39.9l-.57-.86c-.06-.09-.17-.11-.2-.01-.63,1.92-2.25,1.82-5,2.87.49-2.28,1.17-4.27,2.35-6.32.41-.71,2.22-1.13,2.7-.6.78.86,1.3,1.84.78,2.74l.55-.87c.1-.15.46.09.79.3l-1.4,2.74Z"/>
      <path class="cls-1" d="M33.43,19.77c-2.09,1.19-6.63,3.77-8.56,2.38-.47-.34-.35-1.84.2-2.2,3.41-2.17,4.41-.91,8.36-.18Z"/>
      <path class="cls-1" d="M20.05,17.53c-1.18-4.63.27-5.27,2.42-9.03.77,2.67,1.56,8.25-2.42,9.03Z"/>
      <path class="cls-1" d="M20.51,24.99c.26.43-.61,1.34-1.1,1.27-2.04-.3-3.37-1.71-3.72-3.71-.08-.48.6-1.43,1.08-1.78.71,2.27,1.73,3.49,3.74,4.22Z"/>
      <path class="cls-1" d="M9.14,36c-.08.85-1.49,1.13-2.14.46s-2.79-2.65-1.85-3.55c.19-.19.76-.32.93-.24.7,1.16,1.79,2.32,3.06,3.33Z"/>
    </g>
  </g>
</svg>