<?xml version="1.0" encoding="UTF-8"?>
<svg id="Warstwa_2" data-name="Warstwa 2" xmlns="http://www.w3.org/2000/svg" viewBox="0 0 42.44 48.31">
  <defs>
    <style>
      .cls-1 {
        fill: #fff;
      }
    </style>
  </defs>
  <g id="game-icon-v7-magic-pixarts-store">
    <g id="game-icon-v7-magic-pixarts-store_27">
      <path class="cls-1" d="M3.99,39.71c-1.03-.92-1.75-2.04-1.53-3.27.19-1.11,1.09-2.18,2.46-2.2.38,0,1.25.33,1.51.59.26.26.23,1.05.13,1.44-.53-.69-1.24-1.17-1.81-1.03-1.02.26-1.39,1.24-1.02,2.2.22.58,1.15,1.29,1.71,1.32.65.03,1.71-.27,2.25-.74,2.32-1.99,2.35-5.6.58-7.81-.37.84-.66,1.46-1,2.06-.42-6.27-3.64-3.97-3.43-8.73-4.59,3.64,3.81,6.04-1.39,9.07l-.16-2.84-1.31,2.22c-.89,1.51-1.38,3.17-.55,5.02.51,1.13,1.67,2.72,3.56,2.71Z"/>
      <path class="cls-1" d="M35.6,15.29c.51-.54.32-1.8-.24-2.05-.64-.29-1.38.03-2.03.57.03-.26.14-.87.28-1.18.14-.31,1.05-.51,1.46-.48.88.08,1.73.96,1.85,1.75.13.84-.27,1.74-.76,2.62,1.69-.49,2.62-2.14,2.78-3.68.45-4.42-4.92-4.2-3.3-7.84.54-1.22.05-2.86-1.13-3.21,1.28,3.3-3.95,3.68-1.12,7.22.19.23.4.94.28,1.18-.1.19-.49.43-.78.6l-1.11-1.55c-.9,1.6-1.2,3.49-.26,5.19.79,1.44,2.75,2.29,4.1.87Z"/>
      <path class="cls-1" d="M7.87,17.92c.72-1.27.3-2.95-.66-3.57-.25.83-.46,1.6-.82,1.57-2.13-.14-.52-3.68,0-4.77-1.34.92-2.45,2.3-2.93,3.87-.83,2.73,1.74,2.78,2.45,5.4.65-.7,1.45-1.63,1.95-2.5Z"/>
      <path class="cls-1" d="M36.78,25.67c.36,1.08.85,3.97-.06,3.85-.24-.03-.77-.14-1.04-.23-1.84-.64-3.86,0-4.22,1.82,1.21-1.03,2.11-1.57,3.4-1.33,1.04.19,1.64,1.16,1.87,2.29,3.62-4.6-.28-6.47,1.32-8.24.99-1.09,3.43-1.01,3.66-3.35.09-.96-.23-2.24-.78-2.9-.06,1.19.06,2.32-.24,3.04-.79,1.95-5.13,1.41-3.91,5.05Z"/>
      <path class="cls-1" d="M36.9,34.44c-.78.5-1.18,1.76-1.53,2.76l-.25.71c-.12.36-1.55-1.5-3.19-.73,1.22.58,2,1.09,3.36,2.09,2.11-2.54-.04-4.26,5.04-5.2-.96-.5-2.48-.24-3.44.37Z"/>
      <path class="cls-1" d="M39.96,28.79c.31.18,1.62.21,1.93-.21.38-.51.62-1.65.54-2.18-.78.97-1.27,1.44-2.47,2.39Z"/>
      <path class="cls-1" d="M25.17,15.02c-2.9-.29-5.92-.28-8.84-.04-1.88.16-2.77,2.14-3.3,3.74l15.34.03c-.47-1.56-1.4-3.55-3.2-3.73Z"/>
      <path class="cls-1" d="M30.58,21.54c.25-.6.26-1.42-.03-1.8l-19.54-.04c-.26.43-.26,1.13-.11,1.81l19.69.02Z"/>
      <path class="cls-1" d="M11.3,43.76l19.09.03c.37-.67.35-1.39-.08-1.83l-19.04.02c-.47,0-.44,1.78.02,1.78Z"/>
      <path class="cls-1" d="M19.23,32.82l-1.04-1.69c-.55.56-.93,1.87-.7,2.8.19.77,1.21,2.44,2.33,1.78.75-.44,1.19-1.63,1.64-2.41.64.84.69,1.84.45,3.07,1.08-.3,2.05-1.58,2.16-2.59.44-3.89-4.14-3.3-2.61-7.9-4.74,3.18-.06,5.59-2.24,6.94Z"/>
      <path class="cls-1" d="M17.87,10.37c.11-.92-.26-1.72-.81-2.49-1.41-1.99-.7-4.59,1.12-5.82,1.94-1.31,4.4-1,5.91.78,3.09,3.64-1.52,6.21-.32,7.39,3.2-1.83,3.31-6.04,1.05-8.44-2.36-2.51-6.33-2.31-8.47.3-2.1,2.57-1.63,6.51,1.52,8.29Z"/>
      <path class="cls-1" d="M29.03,22.69c-.54-.15-1.34-.08-1.71.19v17.89c.5.24,1.46.22,1.73-.18l-.03-17.9Z"/>
      <rect class="cls-1" x="12.4" y="22.52" width="1.76" height="18.42"/>
      <path class="cls-1" d="M14.39,44.77c1.82,1.68,3.85,1.48,6.32,3.54,2.34-2.08,4.71-1.91,6.25-3.54h-12.57Z"/>
      <path class="cls-1" d="M17.82,36.95l.11,3.99h5.53s.01-3.43.01-3.43c-2.23.28-3.7.05-5.65-.55Z"/>
      <path class="cls-1" d="M22.36,11.38c.19-1.13.45-2.33,0-2.71-.89-.75-2.19-.44-3.36-.22-.04,1.09.02,1.74.2,2.96,1.28.13,1.95.13,3.16-.03Z"/>
      <path class="cls-1" d="M17.32,13.87h7.05c-.38-.86-.72-1.15-1.38-1.44l-4.67.1c-.38,0-.94.97-1,1.33Z"/>
      <path class="cls-1" d="M15.27,26.06c1.06-1.65,2-2.62,3.49-3.42l-3.66-.04.17,3.46Z"/>
      <path class="cls-1" d="M26.15,26.08l.11-3.57-3.61.12c1.65.83,2.6,1.81,3.5,3.45Z"/>
    </g>
  </g>
</svg>