<?xml version="1.0" encoding="UTF-8"?>
<svg id="Warstwa_2" data-name="Warstwa 2" xmlns="http://www.w3.org/2000/svg" viewBox="0 0 51.27 51.13">
  <defs>
    <style>
      .cls-1 {
        fill: #fff;
      }
    </style>
  </defs>
  <g id="game-icon-v7-magic-pixarts-store">
    <g id="game-icon-v7-magic-pixarts-store_30">
      <path class="cls-1" d="M26.36,49.44c3.32-1.4,5.45-4.29,5.39-7.79-.01-.86-1.11-4.65-3.33-4.4-.1.01-.1.53.06.69,2.37,2.32,2.59,6.64-.56,9.12-9.21,7.25-26.76.87-25.63-7.15.99-7.04,11.78-9.1,18.06-6.65.23-.78-.42-1.54-1.3-1.77-4.89-1.26-9.95-.63-14.15,2.1-2.4,1.56-3.92,3.66-4.09,6.38-.17,2.53,1.05,5.14,3.4,6.82,6.38,4.54,14.96,5.69,22.15,2.66Z"/>
      <path class="cls-1" d="M28.46,42.23c-2.85,2.43-6.3,3.82-10.15,3.77-5.04-.06-11.58-1.62-14.24-6.44-.55,1.05,3.21,4.27,1.96,3.86l-1-.33c.63,1.08,1.58,1.96,2.63,3.04l-3.64-2.59c2.88,5.86,16.65,8.01,21.19,4.13l-1.1-.11c-.14-.01-.32-.48-.2-.56,2.14-1.42,2.25-.44,3.9-2.5-1.79,1.01-3.66,1.88-5.58,2.46,2.32-1.82,4.89-2.31,6.24-4.75Z"/>
      <path class="cls-1" d="M.14,39.1c2.03-6.51,9.22-8.8,15.2-8.96-2.35-2.04-4.85.47-4.18-2.41-1.67.18-3.46.88-5.3,1.55,1.36-1.3,3.06-1.68,4.58-2.71-2.58-.23-4.36,1.26-6.12,2.59C1.2,31.54-.52,35.37.14,39.1Z"/>
      <path class="cls-1" d="M29.94,25.14c-.57-.68-1.64-1.3-2.48-1.32-.81-.02-1.64.65-2.2,1.48l1.66-.59-1.11,1.46c-.11.15.57.45.73.57-.71,1.51-.1,5.26,1.79,5.49.56.07,1.35-.52,1.99-.97-.47,1.59-1.89,2.41-3.76,2.5,1.44.99,2.72-.02,3.56-1.14,1.73-2.32,1.72-5.19-.2-7.48Z"/>
      <path class="cls-1" d="M20.11,28.71c1.26-1.71-.87-4.11,2.02-5.82,2.02-1.2,2.4-3.32,1.47-5.36-1.03-2.27-1.73-4.51-2.23-7.05-2.24,2.6-1.47,5.54-.08,8.42.18-1.45.03-2.43-.18-3.8,3.81,7.21-4.69,6.24-1.01,13.61Z"/>
      <path class="cls-1" d="M19,12.83c.94-1.69.09-4.86.91-7.06l.17,4.95c.86-.58,1.18-1.39,1.11-2.25-.25-2.98.42-5.62,1.5-8.46-4.45,1.62-5.52,8.91-3.69,12.83Z"/>
      <path class="cls-1" d="M16.66,15.91l-.53-7.26,1.32,4.9c.57-1.62.13-2.76-.09-4.16-.33-2.19-.31-4.35-.33-6.82-3.5,2.46-2.58,10.17-.36,13.34Z"/>
      <path class="cls-1" d="M31.83,33.74c3.72-.34,2.83-4.68,6.49-4.89l2.04-.11-2.31.94c2.25.37,4.42-.55,5.51-2.46l-5.46.45c-5.23.43-3.1,2.15-6.27,6.07Z"/>
      <path class="cls-1" d="M13.7,11.26l-1.42-3.37c-1.58,3.87.02,7.9,2.72,10.95.02-1.29-.33-2.2-.8-3.27l-1-2.26c.95,1.32,1.51,2.19,2.58,3.38-.43-2.1-1.28-3.58-2.07-5.44Z"/>
      <path class="cls-1" d="M51.27,23.3c-2.26,1.38-4.11,2.62-6.52,3.61-.31.13-.63.63-.83,1.23l3.89-1.18-5.07,2.57c3.92.14,7.52-2.42,8.54-6.23Z"/>
      <path class="cls-1" d="M25.01,34c-2.64-2.99-2.48-7.15-.13-10.14-1.27.72-2.02,1.75-2.79,2.98-1.87,2.99-1.02,7.32,1.9,9.48,1.01.75,2.41,1,3.31.04-2.78.02-4.46-2.1-4.89-4.58,1.14,2.67,2.73,4.32,5.28,4.23.81-.03,1.99-1.04,2.48-1.68-1.96.88-3.74,1.25-5.15-.34Z"/>
      <path class="cls-1" d="M42.99,30.61c.07.28.45.67.68.64l.78-.1-2.91,1.12c3.45.57,7.1-.8,9-3.97l-7.55,2.31Z"/>
      <path class="cls-1" d="M13.95,20.86l-1.98-2.92,2.7,2.2c-1.37-2.57-2.97-4.38-5.01-6.11.05,3.07,1.69,5.66,4.28,6.84Z"/>
      <path class="cls-1" d="M19.81,21.51l-.67-3.37,1.23.94c-.54-1.95-1.26-3.79-2.26-5.74-1.67,3.08-.12,6.01,1.71,8.17Z"/>
      <path class="cls-1" d="M40.13,33.36c.78.55,1.09.62,1.7.84l-2.82.5c2.89,1.16,6.03.75,8.41-1.47l-7.29.13Z"/>
      <path class="cls-1" d="M14.79,23.81l-2.03-1.63,1.57.2c-1.73-1.28-3.1-2.08-4.99-2.97.72,2.63,2.82,4.12,5.44,4.4Z"/>
      <path class="cls-1" d="M42.23,30.54l-5.64-.31c.64.44.98.48,1.87.77l-2.45.69c1.93.89,4.42.72,6.21-1.15Z"/>
      <path class="cls-1" d="M43.2,36.89l-5.55-1.46c.54.68.88.97,1.29,1.27-.72-.15-1.6-.31-2.5-.4,2.07,1.48,4.44,1.9,6.76.58Z"/>
      <path class="cls-1" d="M18.35,21.93c-.08-.9-1.27-4.32-2.38-4.6-1.1,2.88,2.48,5.68,2.38,4.6Z"/>
      <path class="cls-1" d="M17.37,23.91c-.02-.09.02-.09.11-.11l.63-.11-3.08-2.93c-.53,2.04,1.16,3.35,2.54,3.92l-.2-.77Z"/>
      <path class="cls-1" d="M10.72,24.27c.96,1.37,2.39,2.03,3.98,1.88-.57-1.7-2.44-2.1-3.98-1.88Z"/>
      <path class="cls-1" d="M26.4,32.17l-1.06-3.67-.45,3.2c1.16.77,1.83,1.3,3.15,1.46l-1.64-.99Z"/>
      <path class="cls-1" d="M34.71,33.31c1.61.74,3.24,1.36,4.93.12-1.43-.78-3.24-.75-4.93-.12Z"/>
      <path class="cls-1" d="M38.74,38.86c-1.21-1.28-2.24-1.88-3.73-1.95.51,1.89,2.31,2.38,3.73,1.95Z"/>
      <path class="cls-1" d="M32.28,39.59l-.18,4.37c1.13-1.21,1.84-3.3.18-4.37Z"/>
      <path class="cls-1" d="M37.02,35.14c-.94-.76-2.28-1.1-3.55-.8.92,1.18,2.13,1.69,3.55.8Z"/>
    </g>
  </g>
</svg>