<?xml version="1.0" encoding="UTF-8"?>
<svg id="Warstwa_2" data-name="Warstwa 2" xmlns="http://www.w3.org/2000/svg" viewBox="0 0 33.47 46.39">
  <defs>
    <style>
      .cls-1 {
        fill: #fff;
      }
    </style>
  </defs>
  <g id="game-icon-v7-magic-pixarts-store">
    <g id="game-icon-v7-magic-pixarts-store_171">
      <path class="cls-1" d="M7.95,8.37c-1.5,6.08,3.01,9.74,6.88,13.49.71.69.48,2.59-.26,3.31l-3.28,3.17c-2.88,2.79-4.42,7.03-2.75,10.86,2.89,2.19,13.71,2.23,16.44-.01,1.7-3.37.32-7.64-2.23-10.22l-3.62-3.66c-4.62-4.67,9.6-6.61,6.13-18.24-5.8-2.49-11.81-1.78-17.93.03,1.82-3.55,16.43-3.07,18.81-.57,2.07,4.75-.16,9.95-4.05,13.14-8.44,6.92,4.93,4.93,4.83,17.33-.01,1.47-.36,2.86-1.9,3.48-5.28,2.12-10.93,2.26-16.22.08-1.1-.45-1.89-1.61-2.01-2.77-1-9.63,8.18-12.05,7.51-14.68-.36-1.39-1.83-2.85-3.04-3.69-4.38-3.05-5.71-9.9-3.77-12.19.13-.15.57.81.48,1.15Z"/>
      <path class="cls-1" d="M27.5,4.2c-.83-.06-1.56-.19-1.51,0l.39,1.22c-6.21-2.57-13.12-2.62-19.55.01.82-1.14,1.73-1.94,1.74-3.05-1.15,1.18-1.37,1.62-2.08,1.77-1.56.31-2.29-.88-2.32-2.33-.01-.44.36-1.34.75-1.52,1.79-.83,1.97,1.88,4.57.95,4.97-1.78,10.43-1.56,15.23.22,1.92.71,2.15-2.22,3.81-1.19.75.47.87,1.32.67,2.3-.18.86-.97,1.68-1.69,1.64Z"/>
      <path class="cls-1" d="M7.68,44.57c-.67.64-1.87,1.85-2.77,1.29-.73-.45-.75-2.74-.02-3.35.53-.45,2.15-.2,2.82-.09l.22-.59c.06-.15.55-.14.73-.08,5.43,1.62,11.97,1.78,17.29-.45l.85,1.26c.63-.03,1.62-.03,2.06.23s.58,1.45.5,1.94l-.38,1.17c-.42,1.29-2.07-1.55-4.23-.83-5.54,1.86-11.51,1.85-17.08-.49Z"/>
      <path class="cls-1" d="M29.42,42.49l-.68-1.12c-.16-.26-.97.42-1.3.47.01-.35-.13-1.18-.06-1.55.83-4,1.53-9.68-.12-13.86-.33-.84-.63-1.66-.55-2.38l4.13-.03c.53.68-.37,1.89-.51,2.72-.68,4-.19,8.81,1.02,12.61.52.56,2.12,1.12,2.1,1.81-.03.91-.58,2.12-1.25,2.4-1.05.43-2.23-.15-2.79-1.07Z"/>
      <path class="cls-1" d="M6.55,40.85c-2.43-.23-2.6,3.58-4.56,3.03-.93-.26-1.65-1.26-1.9-1.95-.56-1.58,1.68-1.6,2.02-2.51,1.47-3.91,1.65-8.55,1.03-12.63-.16-1.03-1.63-2.1-.09-2.89l2.4.11c.39.02,1.22.32,1.49.61s-.53,1.12-.69,1.6c-1.46,4.46-1.4,9.86.31,14.64Z"/>
      <path class="cls-1" d="M30.79,22.57c-1.37.75.27-.32-3.17.05-.36.04-1.08-.52-1.13-.86,2.34-4.05,2.15-10.23,1.05-14.7l-.3-1.22c-.08-.33,1.26-.17,1.5-.12.28-.69.8-1.87,1.36-2.58.41-.52,2.14-.34,2.63.07.49.4.81,1.69.61,2.4-.17.62-1.47,1.02-2.15,1.47-.98,3.14-1.09,6.65-1.2,10.05-.11,3.45,2.1,4.75.8,5.47Z"/>
      <path class="cls-1" d="M7.15,22.42l-2.88.13-1.48.06c-1.66.07.95-2.67.7-6.12-.24-3.23-.08-6.8-1.41-9.59C1.46,6.42-.08,5.75.07,5.01c.19-.97.79-1.94,1.51-2.21.91-.34,1.98.29,2.52,1.17s.66,1.89.57,2.76l.54-1.02c.14-.26,1.07.11.97.5-1.41,5.49-1.54,10.72.98,16.21Z"/>
      <path class="cls-1" d="M17.37,20.58l-.36-.43c-.1-.11-.4-.55-.46-.42l-.34.67c-.46-.18-1.07-.35-2.01-.55l-.6-2.25c-.97-.05-1.57-.03-1.99-.18-.49-.17-.43-1.8-.44-2.33,0-1.89-.59-3.93.4-5.5,1.43-2.27,4.24-2.76,6.71-2.41,3.02.43,4.93,2.86,4.27,5.91-.5,2.29.05,4.61-.99,4.61h-1.75s-.52,2.28-.52,2.28l-1-.16c-.24-.04-.57.44-.92.76ZM15.65,14.6c0-.92-.75-1.67-1.67-1.67s-1.67.75-1.67,1.67.75,1.67,1.67,1.67,1.67-.75,1.67-1.67ZM18.86,16.01c.61.23,1.78-.09,2.11-.47s.34-1.45,0-1.82c-.3-.31-1.39-.73-1.81-.65-.69.14-1.51.92-1.55,1.42-.03.43.6,1.25,1.26,1.51Z"/>
      <path class="cls-1" d="M24,38.79c-4.82,1.75-10.29,1.39-15-.06-1.13-3.6,6.07-4.33,7.01-7.5.88-2.96-.41-9.74.14-9.7l1.06.08c.6.04-.65,6.64.3,9.52.79,2.41,3.76,3.56,5.82,4.77.76.45,2,2.42.69,2.9Z"/>
      <path class="cls-1" d="M10.3,33.65c-.93-2.58,1.06-4.05,2.75-5.27-.62,1.85-1.47,3.67-2.75,5.27Z"/>
    </g>
  </g>
</svg>