<?xml version="1.0" encoding="UTF-8"?>
<svg id="Warstwa_2" data-name="Warstwa 2" xmlns="http://www.w3.org/2000/svg" viewBox="0 0 38.32 44.65">
  <defs>
    <style>
      .cls-1 {
        fill: #fff;
      }
    </style>
  </defs>
  <g id="game-icon-v7-magic-pixarts-store">
    <g id="game-icon-v7-magic-pixarts-store_07">
      <path class="cls-1" d="M5.3,30.51c1.43-.19,2.44.62,2.79,1.94l1.08,4.09.94-3.06c.09-.31.89-.79,1.17-.68,1.4.6.56,1.34,1.91,1.31.98-.02-1.03-2.32-.05-3.46l3.05-.05-1.99-2.01c-.68-.69-1.62-2-1.19-2.93,1.75-3.8-2.06-.92-2.6-3.89-.26-1.47-.59-2.81-1.12-4.39l-1.07,3.4c-.07.23-.84.87-1.02.69l-.81-.81c-2.41-2.43,0,2.08-.89,2.82l-3.06.41c1.29,1.43,3.16,2.67,3.01,4.54l-.17,2.07ZM6.03,23.74c.58-1.59,2.55-1.67,3.87-.73,2.88,2.05,3.75,7.82,1.08,8.88-.68.27-1.9.07-2.57-.45-2.32-1.8-3.38-4.93-2.38-7.7Z"/>
      <path class="cls-1" d="M34.15,23.93c-.46-.09-1.37.02-1.39-.32-.03-.38-.05-.93-.06-1.33v-1.2c-.02-1.03-1.84.85-2.06.69l-1.1-.83c-1.46-1.11-1.07,3.54-3.82,2.62l-.97,1.48c2.04,2.07-2.24,4.27-.79,5.01.54.27.94.46,1.24.64.91.55-.73,1.97,0,2.6.89.77.78-.52,2.34-.91.24-.06.64.76.96.93.42.23,1.37-.73,1.56-1.23.39-1.03,1.27-1.44,2.16-1.83,1.22-.54.32-2.22.63-3.04.4-1.08,1.65-2.21,1.3-3.26ZM28.13,31.03c-.79.2-1.89-.82-1.96-1.59-.21-2.36.66-4.71,2.74-5.87.56-.31,1.88-.3,2.39.08,1.29.95,1.11,6.29-3.18,7.38Z"/>
      <path class="cls-1" d="M25.75,9.22l-.98-.19c-.31-.06-1.23-.45-1.12-.74l.47-1.15-1.55.61c-1.78-1.18-3.93-1.32-5.81-.41l-2.02-.74.87.93c.23.24-1.52,1.21-1.41,1.97.15,1.08,1.35,1.21,1.08,1.57l-.5.68c1.83-.43,3.43-.35,4.28,1.38,2.04-1.85,1.49-1.84,4.11-1.28l-.15-.7s1.47-1.58,1.58-1.55l1.19.28c.06-.32.16-.64-.03-.68Z"/>
      <path class="cls-1" d="M25.11,16.65l-5.44,2.73.05,6.86c3.95-2.1,5.66-5.88,5.39-9.6ZM21.18,24.06l-.24-3.81,3.21-1.69c-.14,2.43-.93,3.95-2.97,5.5Z"/>
      <path class="cls-1" d="M13.18,16.61c.08,4.11,2.08,7.62,5.5,9.43l.11-6.63-5.6-2.8ZM17.29,24.04c-1.72-1.34-2.67-2.99-2.93-5.36l3.01,1.5-.08,3.86Z"/>
      <path class="cls-1" d="M18.7,37.12c-.99-.08-2.4-.2-3.08.18-1.68.95-2.23,2.64-2.5,4.46l5.59,2.89v-7.53ZM14.4,40.92c.3-1.66.82-2.87,2.92-2.8l.12,4.29-3.04-1.5Z"/>
      <path class="cls-1" d="M23.7,37.77c-1.09-.76-2.54-.95-3.98-.72v7.47s5.47-2.76,5.47-2.76c.02-1.51-.33-3.19-1.48-3.99ZM21.08,42.36l-.13-4.03c1.55-.67,3.03.46,3.3,2.44l-3.17,1.59Z"/>
      <path class="cls-1" d="M.08,17.33c1.04.09,2.36.18,3.01-.18,1.78-1.01,2.22-2.74,2.21-4.61L.02,9.83l.06,7.5ZM4.16,13.56c.36,1.7-1.13,2.76-2.83,2.75l-.14-4.24,2.97,1.49Z"/>
      <path class="cls-1" d="M28.81,8.92c-.35-3.98-12.2-6.75-15.56-3.06,4.46-1.09,8.77-1.78,12.52.84,1.08.76,1.98,1.87,1.76,3.16-.18,1.02-1.35,1.8-2.43,2.59.36,1.59,3.96-.79,3.72-3.53Z"/>
      <path class="cls-1" d="M13.13,12.16c-1.26-.68-2.37-1.83-2.16-3.28.13-.9,1.29-1.87,2.23-2.89-2.2-.31-4.06,2.08-3.52,4.2.96,3.72,12.05,5.38,15.31,2.74-4.32.29-8.3,1.15-11.87-.77Z"/>
      <path class="cls-1" d="M.06,28.18l-.04,6.77,5.16,2.62c-.05-4.11-1.97-7.23-5.12-9.39ZM1.29,30.29c1.63,1.33,2.8,2.66,2.75,5.15l-2.89-1.35.14-3.8Z"/>
      <path class="cls-1" d="M33.89,15.92c.94,1.58,2.9,1.75,4.38,1.16l-.02-7.16-5.07,2.63c-.02,1.04.2,2.51.7,3.36ZM34.32,13.87c.54-.55,1.57-1.1,2.68-1.65l.03,4.02c-.74.15-1.67-.06-2.11-.4-.4-.32-.99-1.58-.61-1.96Z"/>
      <path class="cls-1" d="M32.02,36.7l-1.71.52-.48-3.51c-2.63.49-1.09,4.16-2.48,5.13l-1.37.95c-.25.17.03.98.25,1.44l5.63-2.96c.39-.21.54-1.68.16-1.56Z"/>
      <path class="cls-1" d="M33.24,37.45l5.08-2.61-.12-6.74c-3.47,1.98-5.13,5.45-4.95,9.35ZM34.22,35.41c-.14-2.22.71-4.04,2.79-5.19l.18,3.74-2.97,1.44Z"/>
      <path class="cls-1" d="M26.28,17.43l1.37-.41.65,3.22c3.05-.49.14-4.28,3.13-5.16.28-.08,1-.57.89-.82l-.46-1.08-5.51,2.92c-.25.13-.32,1.41-.07,1.34Z"/>
      <path class="cls-1" d="M21.15,29.14l-.46-2.04c-.24-.1-1.06.64-1.06,1.09l.04,7.61c.37.08.83.21.92-.01.77-1.91-.22-2.71.69-3.54,1.28-.84,2.51-2.05,1.9-3.49l-2.04.39Z"/>
      <path class="cls-1" d="M36.99,25.07l.19,2.16c.35.17,1.14-.51,1.13-1.14l-.08-7.27c0-.31-1.19-.42-1.21-.14-.08,2.14.64,3.22-1.31,3.98-1,.39-1.36,1.97-.7,2.69l1.99-.27Z"/>
      <path class="cls-1" d="M24.57,15.8c-.42-.3-1.41-.73-1.75-.57l-3.69,1.82-3.55-1.83c-.41-.21-1.24.07-1.69.58l5.41,2.79,5.26-2.8Z"/>
      <path class="cls-1" d="M19.26,0l-5.26,2.64c.76.56,1.69.72,2.32.36l2.98-1.67,3.51,1.84c.34.18,1.35-.3,1.68-.52l-5.23-2.65Z"/>
      <path class="cls-1" d="M1.29,27.59l.03-8.66c0-.36-1.25-.43-1.28-.15L0,26.12c0,.69.68,1.43,1.29,1.47Z"/>
      <path class="cls-1" d="M33.28,11.49l4.29-2.34-4.25-2.26c-.4-.21-1.33.38-1.47.65l2.87,1.57-2.94,1.91c.33.3,1.17.65,1.5.47Z"/>
      <path class="cls-1" d="M5.22,11.49c.39.22,1.42-.27,1.73-.5l-3.03-1.82,2.75-1.63c-.27-.23-1.42-.68-1.82-.47l-3.87,2.05,4.23,2.37Z"/>
      <path class="cls-1" d="M17.37,35.02c0,.28.38.78.54.89.16.11.78-.28.78-.64l.04-7.77-1.3-.52-.06,8.04Z"/>
      <path class="cls-1" d="M12.28,16.16l-5.66-2.98c-.36.23-.56,1.37-.21,1.55l5.9,3.05-.03-1.61Z"/>
      <path class="cls-1" d="M6.93,38.5l5.16,2.72.35-1.43-6.08-3.14c-.32.65-.04,1.53.56,1.85Z"/>
      <path class="cls-1" d="M24.06,3.69l5.65,2.98c.67.36,1.5.19,2.06-.42l-5.88-3.02c-.41-.21-1.4.11-1.83.46Z"/>
      <path class="cls-1" d="M12.24,3.41l-5.68,2.92c.69.79,1.66.67,2.51.22l4.99-2.65c-.33-.6-1.17-.83-1.82-.5Z"/>
      <path class="cls-1" d="M31.57,12.36l-1.06-.79c-.45-.34-4.02,2.43-6.07,2.7l1.38,1.03,5.75-2.93Z"/>
      <path class="cls-1" d="M13.7,14.44c-1.76-.87-3.46-1.77-5.15-2.81-.38-.23-1.28.26-1.5.68l5.2,2.73c.35.19,1.47-.43,1.45-.6Z"/>
      <path class="cls-1" d="M13.26,36.31l.53-.87c.36.52,1.1.91,1.28.59.17-.28.3-.96.32-1.32l.03-.78c0-.09.14,0,.22.08l.4.44-.15-2.48c-1.57,1.18-.67,2.7-3.83,3.5l-1.43,1.47,2.19.11c-.02-.95.02-1.53.44-.73Z"/>
      <path class="cls-1" d="M3.1,20.35l-.3.07.11,2,1.28-2.18c.86-1.47,2.12-2.11,3.95-2.03-.06-.21-.86-.76-1.33-.92-.3-.1-.66.23-1.08.46l-1.44.8-.99.37c-.48.18.49,1.28-.21,1.44Z"/>
      <path class="cls-1" d="M15.86,28.73c.44-3.54-.73-3.46-2.36-5.9l1.29,3.24,1.07,2.66Z"/>
      <path class="cls-1" d="M8.4,10.29c.01-1.61-.73-1.59-1.31-1.71-.38-.08-.77.11-1.53.55,1.13.57,1.9.87,2.84,1.15Z"/>
      <path class="cls-1" d="M3.98,30.38c.47.29.46.26.62-.53l-1.75-3.87c-.03,1.69.35,2.95,1.13,4.4Z"/>
      <path class="cls-1" d="M34.25,20.97c-.07.34.84,0,1.34-.28.3-.17-.26-.71-.6-1.13l-1.19-1.49c.07-.09-.45.63-.62.87-.24.34,1.33.75,1.23,1.27l-.15.76Z"/>
      <path class="cls-1" d="M20.92,15.17l-3.85-.08c1.57,1.41,2.91,1.27,3.85.08Z"/>
      <path class="cls-1" d="M23.94,35.76c-.3-1.09-.63-1.92-1.15-2.81l-.7.84c.55.35,1.09.56,1.03.81l-.29,1.21,1.76.25c-.03-2.33-.65.11-.65-.3Z"/>
      <path class="cls-1" d="M8.98,30.91c1.14.69,2.56-.71,2.59-1.95.04-1.68-.47-3.46-1.64-4.69-.49-.52-1.93-.76-2.47-.44-1.84,1.1-.85,5.63,1.52,7.08ZM8.93,24.67l1.32,2.23-.81,2.61c-.7.18-2.25-4.25-.5-4.84Z"/>
      <path class="cls-1" d="M29.95,25.05c-1.69.31-3.06,2.56-2.01,3.14l1.13-2.24.37,3.05,1.15-2.53c.13-.3-.31-1.48-.64-1.42Z"/>
    </g>
  </g>
</svg>