<?xml version="1.0" encoding="UTF-8"?>
<svg id="Warstwa_2" data-name="Warstwa 2" xmlns="http://www.w3.org/2000/svg" viewBox="0 0 44.04 42.8">
  <defs>
    <style>
      .cls-1 {
        fill: #fff;
      }
    </style>
  </defs>
  <g id="game-icon-v7-magic-pixarts-store">
    <g id="game-icon-v7-magic-pixarts-store_200">
      <path class="cls-1" d="M22.24,37.18l.92.32c.22.08-.12.6-.27.89l.91,1.45c-2.98-.7-4.98-2.73-6.77-5.08l3.78.5c-2.64-1.7-5.59-2-6.48-5.28,2.68,1.74,5.69,3.01,8.77,1.83-3.18-.42-6.34-.81-8.62-3.24,3.92,1.05,7.67,1.2,11.67.04l-5.91-.53c-3.57-.32-10.68-2.42-10.75-6.92,3.11,3.13,11.1,4.8,14.75,3.11-5.5.16-10.72-1.06-14.71-4.59-2.37-2.1-2.22-4.73-.37-7.16l-2.71,1.44c2.28-5.37,12.13-7.16,17.32-6.92,3.36.16,6.11,1.38,9.02,2.77l-2.7-2.93c1.95.55,3.74,1.42,5.1,2.67,2.42,2.23,2.5,5.59.27,7.94-3.97,4.21-9.49,4.52-15.24,4.96l5.51.2c3.59.13,6.66-1.46,9.85-3.21-2.42,5.8-9.1,6.82-14.6,7.23,4.01.86,7.97.1,11.79-1.61-.6,3.86-7.6,5.93-10.19,5.96,2,.89,3.82-.04,6.21-.56-1.4,2.73-4.63,3.24-7.39,4.11l4.35-.2-3.52,2.79ZM15.68,16.21c3.48-3.29,8.48-2.64,12.61-.34-.3-.88-1.19-1.76-2.15-2.21-4.53-2.12-9.39-1.52-13.74,1.06,1.15-3.22,8-4.26,11.02-4.87-3.49-.94-13.92.39-13.24,5.43.96,7.07,25.65,6.02,23.68-2.06-.69,1.41-2.43,3.62-4.47,3.93-4.05.62-3.49-3.97-13.72-.93Z"/>
      <path class="cls-1" d="M35.97,24.48c1.44-3.2,2.56-5.77,2.89-9.38l.7,3.28c1.5-4.72.29-9.12-2.46-13.76,4.07,2.97,5.93,8.37,5.24,13.53-.63,4.75-3.95,9.6-9,11.57,1.9-2.44,4.52-4.26,4.86-7.51-.59.82-1.21,1.55-2.23,2.26Z"/>
      <path class="cls-1" d="M7.22,32.01l-1.4-3.21c0,4.75,2.63,8.43,5.79,11.4C3.67,36.77-.09,24.37,5.7,17.47c.17,1.11.34,2.24.29,3.07l-.23,4.83,1.37-2.76c-.21,3.34-.27,6.04.09,9.4Z"/>
      <path class="cls-1" d="M20.68,4.37l-8.64.56.73-.7c-3.71.26-6.04,2.49-9.14,4.25C9.03,1.01,19.78-1.33,27.4,3.74c-3.81-.51-7.06-1.02-10.72-.6l4,1.23Z"/>
      <path class="cls-1" d="M33.77,34.28h-3.73c2.58-1.09,4.8-2.29,7.17-3.86l-.37,1.32c3.66-2.3,5.85-5.78,7.19-9.92.38,8.43-8.9,17.24-17.64,14.67,2.67-.68,4.58-.96,7.38-2.21Z"/>
      <path class="cls-1" d="M11.91,31.36c1.7,6.26,6.97,10.07,13.53,11.3-8.15,1.3-17.29-6.57-15.67-14.98l1.41,4.85.74-1.16Z"/>
      <path class="cls-1" d="M.03,21.86c-.42-5.83,4.02-12.01,9.32-13.73C3.9,12.11,2.41,15.95.03,21.86Z"/>
      <path class="cls-1" d="M36.21,7.12l-5.67-4.57-3.16-2.56c3.71.85,7.01,3.29,8.83,7.12Z"/>
    </g>
  </g>
</svg>