<?xml version="1.0" encoding="UTF-8"?>
<svg id="Warstwa_2" data-name="Warstwa 2" xmlns="http://www.w3.org/2000/svg" viewBox="0 0 31.28 40.94">
  <defs>
    <style>
      .cls-1 {
        fill: #fff;
      }
    </style>
  </defs>
  <g id="game-icon-v7-magic-pixarts-store">
    <g id="game-icon-v7-magic-pixarts-store_135">
      <path class="cls-1" d="M31.15,29.44l.05,4.95-5.75-.09c-.11-2.64,4.07-.19,4.43-1.94.19-.92,0-2.6-.39-2.64-.8,1.55-1.17,2.39-2.49,2.57l-2.93,2.17-19.12-.06.05-24.06V.03s9.53-.03,9.53-.03l.68,2.11c.66-.94,1.77-2.02,2.99-2.04,4.51-.08,8.39-.1,13,.08l-.11,14.9c0,.27-.99.99-1.21,1.02-.29.04,1.25.85,1.26,1.14l.14,8.98c.02,1-.77,1.75-1.45,2.43-.33-.1,1.32.53,1.32.82ZM29.72,5.34l.25-3.86-4.44-.38c.66,1.23,1.7,1.39,2.78,1.73l1.4,2.51ZM10.24,1.6c-1.34-.28-2.9-.33-3.95-.15l.23,4.06c1.18-2.4,1.6-2.89,3.73-3.92ZM20.27,21.66c.32-1.14,1.64-2.23,2.54-2.53l5.8-1.97-4.53-1.44c-1.58-.5-3.34-1.62-3.86-3.41l-2.05-7.1c-3.3,9.62-.67,8.7-10.37,12,1.24,1.08,7.01,1.47,7.6,3.37l2.73,8.74,2.13-7.65ZM14.45,11.46l-3.62-1.88,1.76,4.19,1.86-2.31ZM23.7,13.51l1.84-4.14-3.94,2.07,2.09,2.07ZM14.62,22.69l-1.93-2.25-1.76,4.31,3.7-2.06ZM25.52,24.7l-2.2-4.49c-.29.8-.34,1.4-.56,1.55l-1.28.87,4.04,2.07ZM10.51,32.89c-1.51-.85-2.5-.89-2.76-1.41l-1.14-2.33-.28,3.79,4.18-.04Z"/>
      <path class="cls-1" d="M3.35,40.78c-2.82-.19-2.93-3.6-2.98-5.45-.07-2.84.42-4.28,2.92-6.14-1.04,0-1.77.39-2.97,1.05-.53-1.97,1.1-2.54,2.81-4.19l-2.54.49.03-12.6c0-2.34.59-3.29,2.6-5.07-.96-.03-1.84.36-2.95,1-.95-1.88.75-2.51,2.69-4.13l-2.41.43C-.31,3.68.73.46,3.85.21l.19,11.92c.09,5.8.19,11.42-.04,17.19l-.2,5.01c-.81.81-1.61,1.77-1.79,2.56-.18.8.79,2.77,1.78,2.76l25.34-.04.83-4.46,1.09,5.77-15.59-.04c-3.98-.01-8.03.18-12.12-.1Z"/>
      <path class="cls-1" d="M28.23,38.3l-21.4-.09,13.64-.29c2.46-.12,5.11-1.45,7.76.38Z"/>
      <rect class="cls-1" x="5.96" y="36.13" width="21.96" height=".45"/>
      <path class="cls-1" d="M24.41,16.86c-4.61.62-6.15,5.52-6.42,5.08-1.85-3.09-1.8-3.87-5.67-4.69l.87-.89,5.06,2.98c1.73-1.13,3.57-2.78,6.16-2.49Z"/>
      <path class="cls-1" d="M18.09,14.32c.22-.32-.55.3-.5.53l.29,1.31-2.14-.24c1.02-2.33,1.72-4.29,2.25-6.53.68,2.38,1.33,4.24,2.16,6.23-.52.16-1.15-.33-2.06-1.3Z"/>
    </g>
  </g>
</svg>