<?xml version="1.0" encoding="UTF-8"?>
<svg id="Warstwa_2" data-name="Warstwa 2" xmlns="http://www.w3.org/2000/svg" viewBox="0 0 41.32 46.42">
  <defs>
    <style>
      .cls-1 {
        fill: #fff;
      }
    </style>
  </defs>
  <g id="game-icon-v7-magic-pixarts-store">
    <g id="game-icon-v7-magic-pixarts-store_06">
      <path class="cls-1" d="M36.53,24.93l-1.25.08c-.51.03.62-2.93-.28-2.89-.68.58-1.14,1.04-1.65,1.16-.71.17-.97-.05-1.24-1.24-1.63.61-1.28,2.94-2.2,2.98l-1.08.04c-.51.02-1.14,1.33-.9,1.77,1.42,2.62-2.46,2.48-1,4.79.27.1,1.31-.05,1.27.22l-.17,1.08c-.07.43-.08,1.07.12,1.34.6.8,1.89-1.53,2.65-.47,1.83,2.58,1.51-1.83,3.06-2.08.99-.16,2.1-1.33,1.5-2.4-1.12-1.97,2.08-1.33,1.17-4.4ZM31.82,31.56c-.39.27-1.59.28-1.91,0-1.67-1.41-.63-5.43,2.35-6.42.96-.32,2.12.37,2.14,1.34.04,2.02-.79,3.83-2.58,5.07Z"/>
      <path class="cls-1" d="M13.08,38.94c.3-.36.65-1.1.86-1.62l.78,2.95.31-2.72,2.03,1.59-.46-2.05c2.51-1.27,0-.77,0-2.98,0-.19.34-.13.45.02l.49.72-.12-2.58c-2.55,2.59-.85,2.57-1.44,4.94-.04.17-.55-.13-.66-.27l-.46-.56c-.07-.06-.44.37-.58.3l-.68-.37c-.1.95-.56,1.87-1.62,1.81l.32-3.35,3.95-3-3.38-6.09c-.72-1.31-.93-3.01-1.09-4.36l1.18,1.07c.23.21.73.85.59,1.08l-.57.89,2.35,2.02c2.56,2.2-1.65-.12,2.03,5.09l-.17-2.12c.06-.73.22-2.02-.19-2.47l-1.23-1.35c-.22-.24-1.24-.43-1.13-.73l.38-1.07-1.04-2.23-.8.16c-.69-.82-1.15-1.33-1.93-2.03-.29,1.38-.76,3.41-.12,4.63l3.6,6.81-3.55,2.98-.08,4.32c-.01.57,1.65.99,1.99.58Z"/>
      <path class="cls-1" d="M16.67,8.19c-.49.25-1.12,1.28-1.12,1.79,0,.51.7,1.39,1.25,1.63,4.47,1.91,9.38.33,9.05-1.92-.34-2.32-5.64-3.29-9.18-1.5Z"/>
      <path class="cls-1" d="M5.27,33.27l-.9.03,1.01,2.03.23-1.49c.95,1.46,1.33,2.43,2.76,3.6.26-1.85.63-4.11-.15-5.6l-3.1-5.94,3.27-2.79c.34-.17.35-6.94-.63-5.42l-.49.76-1.64-1.22-.14,1.34c-.02.19-.64.17-.76.3l-.94,1.04c-.21.23-.76-.44-1.31-.77l.56,3.31-.03,1.71c.46-.28,1.15-.84,1.02-1.17l-.53-1.32c-.15-.38.7-1.12,1.22-1.16.35-.03.66.14,1.35.45l-.29-2.06c.28.21.58.51.81.5l.96-.04c.28.88.12,2.6-.68,3.28l-3.16,2.68,3.06,6.06c.64,1.27,1.24,2.87.5,4.06-.32-1.04-2.12-4.14-1.84-4.18l-.87.12c-.41.06-1.03-.49-1.3-.87-.22-.32,1.14-1.07.98-1.43l-1.68-3.99c0,1.25.19,2.47.4,3.88l-.37,2.1,2.07,1.64c.12.09.9-.26.84-.12-.06.14-.09.66-.24.66Z"/>
      <path class="cls-1" d="M22.2,39.91c.08-.18.27-.71.27-.91v-12.55c-.68-.07-1.38.56-1.37,1.49l.06,11.63c0,.31.94.56,1.04.33Z"/>
      <path class="cls-1" d="M19.33,39.95l.72-.25-.05-12.23c0-.54-.64-.97-1.32-.89l.04,12.46c0,.24.38.99.6.91Z"/>
      <path class="cls-1" d="M12.3,30.77c.99-1.28-.98-5.36-3.75-5.44-.75-.02-1.38,1.5-1.21,2.25.36,1.56,1.13,2.51,2.56,3.38.83.5,1.86.5,2.39-.2ZM9.43,30.19l-.22-2.58c-.01-.17.21-.68.28-.82.11-.22.87.29.93.52.2.76.27,2.7-.99,2.87Z"/>
      <path class="cls-1" d="M.05,17.61v11.93c0,.32.49.84.71.95.21.11.69-.65.69-.96l-.05-11.33c0-.27-.19-.78-.27-.98-.08-.19-1.07.13-1.07.4Z"/>
      <path class="cls-1" d="M24.13,41.38c-.77-.48-1.9-.59-2.93-.21v5.25c1.43-.71,2.66-1.17,3.78-2.1.76-.63-.17-2.51-.85-2.93Z"/>
      <path class="cls-1" d="M25.18,18.94l-4,2.11.12,4.59c3.22-1.42,3.94-3.92,3.88-6.7Z"/>
      <path class="cls-1" d="M.05,31.07l-.05,4.76,4.07,2.01c-.12-3.36-1.33-5.47-4.02-6.77Z"/>
      <path class="cls-1" d="M38.15,15.63c.66.64,1.98.99,2.97.49l.02-5.28c-1.54.67-2.74,1.16-3.73,2.12-.54.52.22,2.15.74,2.66Z"/>
      <path class="cls-1" d="M19.93,20.71l-3.95-1.66c-.02,3.08,1.33,5.46,4.04,6.75l-.08-5.08Z"/>
      <path class="cls-1" d="M20.03,46.32v-5.15c-.98-.45-2.22-.24-2.95.27-.6.41-1.55,2.06-.96,2.62,1.18,1.05,2.44,1.55,3.91,2.27Z"/>
      <path class="cls-1" d="M40,17.97l.15,12.62c.77-.18,1.15-.71,1.15-1.24v-11.97c-.21-.16-1.3.19-1.3.59Z"/>
      <path class="cls-1" d="M5.61,38.76l9.24,4.84.12-1.51-9.72-5.04c-.14.51,0,1.51.36,1.7Z"/>
      <path class="cls-1" d="M3.96,13.08c-1.46-1.12-2.46-1.59-3.85-2.14-.11,1.94-.12,3.47.22,5.08.71.54,2.25.16,2.83-.34.52-.44,1.38-2.15.79-2.6Z"/>
      <path class="cls-1" d="M41.19,31.34c-2.89,1.42-3.89,3.75-3.73,6.57l3.86-2.03-.14-4.54Z"/>
      <path class="cls-1" d="M5.74,15.21l9,4.79c.22-.47.47-1.23.29-1.45-.14-.17-.42-.36-.87-.59l-8.23-4.13c-.36-.18-1.02.4-.89.62.1.16.47.63.7.76Z"/>
      <path class="cls-1" d="M36,13.51l-9.77,4.93.14,1.52,9.2-4.76c.45-.23.67-1.24.43-1.68Z"/>
      <path class="cls-1" d="M36.13,36.95l-9.33,5.03c-.21.11-.57.55-.7.74-.13.18.49.91.72.78l9.25-4.99c.15-.41.16-1.29.07-1.56Z"/>
      <path class="cls-1" d="M33.41,12.24l-9.22,4.61c.13.36,1.03.93,1.38.75l9.8-4.96c-.57-.53-1.39-.69-1.97-.4Z"/>
      <path class="cls-1" d="M4.55,8.14c-1.31.57-2.3,1.08-3.47,1.72,1.21.8,2.66,1.87,4.02,1.91,1.44.04,2.11-1.62,1.87-2.35-.25-.76-1.61-1.63-2.42-1.27Z"/>
      <path class="cls-1" d="M34.46,10.08c.04.84,1.25,2.11,2.2,1.74,1.41-.55,2.33-1.11,3.68-1.98l-3.93-1.89c-.79-.38-1.99,1.32-1.95,2.13Z"/>
      <path class="cls-1" d="M5.84,12.64l9.42,4.67c.32.16,1.3-.35,1.66-.66l-9.07-4.44c-.64-.31-1.49-.19-2.01.43Z"/>
      <path class="cls-1" d="M16.78,17.97l3.97,2.03,3.59-1.84c-2.37-1.78-5.03-1.89-7.56-.19Z"/>
      <path class="cls-1" d="M8.7,7.29l8.66-4.34c-.19-.28-.92-.73-1.23-.58L5.99,7.37c.9.76,1.86.34,2.71-.08Z"/>
      <path class="cls-1" d="M26.56,2.94c-.69-.34-1.39-.62-2.22.21l9.19,4.51c.48.23,1.45.02,1.84-.3l-8.81-4.42Z"/>
      <path class="cls-1" d="M17.28,1.85c2.4,1.67,4.77,1.52,6.98.05l-3.5-1.9-3.48,1.85Z"/>
      <path class="cls-1" d="M18.94,13.97c-.89-1.39-2.85-.78-3.52.26l1.95,1.3c.57,0,1.93-.99,1.57-1.56Z"/>
      <path class="cls-1" d="M24.81,14.08l.72.28.81-.25c-.94-.67-2.7-.95-3.29-.34l-.47,1.65,2.24-.35c-.04-.46-.16-1.04-.02-.99Z"/>
      <path class="cls-1" d="M30.97,18.96c-.15.6-.35,1.83-.48,2.62l1.93-1.25c.38-.24.17-1.29-.16-1.65-.23-.26-1.2-.1-1.29.28Z"/>
      <path class="cls-1" d="M38.18,24.32c-.46,1.52-.68,2.33-.85,4.18l1.94-1.65-1.09-2.53Z"/>
      <path class="cls-1" d="M25.24,26.74l-.77-.65c-.08-.07-.16.42-.16.53v.46s-.66,1.8-.66,1.8l2.32-2.07c.28-.25.55-.89.55-1.12l-1.27,1.06Z"/>
      <path class="cls-1" d="M32.61,26.7c-.24-.03-.86.08-1.07.21-.95.57-1.73,2.61-.56,3.22.87.45,2.06-1.03,2.16-2.13.04-.47-.23-1.26-.53-1.29Z"/>
    </g>
  </g>
</svg>