<?xml version="1.0" encoding="UTF-8"?>
<svg id="Warstwa_2" data-name="Warstwa 2" xmlns="http://www.w3.org/2000/svg" viewBox="0 0 37.51 50.67">
  <defs>
    <style>
      .cls-1 {
        fill: #fff;
      }
    </style>
  </defs>
  <g id="game-icon-v7-magic-pixarts-store">
    <g id="game-icon-v7-magic-pixarts-store_165">
      <path class="cls-1" d="M28.16,33c-3.19-4.9-10.28-5.63-8.2-9.73l6.09,1.86,1.97,3.79c2.24-.68,4.45-1.52,6.1-3.06,1.58-1.47,1.63-4.77.42-6.27l-2.83-1.32c-.72-2.97-2.52-5.2-4.4-7.61l-4.81-6.17,6.66.26c1.04,1.93,3.77,2.45,4.57,3.59,1.06,1.5,1.85,3.87,3.65,5.24v20.59c-1.67,1.43-3.12,3.41-3.52,5.36-4.93,1.18-3.62,4.39-7.79,3.4,3.21-2.5,4.57-6.11,2.08-9.92Z"/>
      <path class="cls-1" d="M9.36,25.85c.06,1.95-.14,4.5.79,5.53,1.66,1.76,2.69,3.49,4.09,5.9l.91-1.81c2.45,1.67,7.1,3.88,5.57,7.6l-15.01-.08-.02-17.9V4.64c1.38-.25,4.3-.77,4.97.18l3.12,4.37c-1.92.19-3.13.33-5.45.93l5.42,2.88c-2.74,1.24-5.23,2.5-6.71,5.31l2.54.03c-1.35,2.89-2.4,5.32-2.26,8.72l2.03-1.21Z"/>
      <path class="cls-1" d="M4.46,50.65c-4.89,0-4.44-7.28-3.69-10.46.22-.96,2.19-2.07,3.02-3.42l-3.63,1.48c-.3-2.44,1.29-3.28,3.34-5.12l-3.01.72.02-14.92c0-1.45,1.91-2.64,3.16-3.8-.78-.3-2.25.38-3.38,1.19-1.13-2.56,1.45-3.07,3.29-5.3l-2.88.95c-.97-3.02-.05-6.95,3.82-7.5l.13,8.99-.02,18.83-.13,10.73c-1.51,1-2.46,2.33-2.18,3.94.27,1.51,1.93,2.53,3.83,2.52l29.21-.05c.02-1.9.05-3.02.7-4.86l1.24,6.1-32.83-.02Z"/>
      <path class="cls-1" d="M28.68,27.49c-2.72-6.67-6.17-3.03-9.68-7.52l.2-2.07c.05-.53-1.57-.82-2.07-1.08-2.16-1.14-3.98-1.06-6.68-.71,2.81-2.99,5.72.85,8.04-.81l-5.39-4.57,7.63,1.93-4.66-3.59c-2.87-2.22-4.81-5.39-4.05-9.06,1.27,4.86,4.49,7.1,8.3,9.29l6.71,3.86c5.2,2.99-.63,3.55,6.45,7.57,1.32.75.73,3.57-.46,4.27-4.87-2.82-4.26-4.05-10.08-7.06.14,1.92,1.37,2.75,2.71,3.75l6.02,4.47-2.99,1.34Z"/>
      <path class="cls-1" d="M14.34,32.9c-2.97-2.62-3.85-5.97-3.15-10.22l-1.97.42c.55-1.74,1.71-4.18,3.12-5.84.58-.68,2.94.35,3.11,1.16-4.52,7.98-.35,7.38-1.12,14.49Z"/>
      <path class="cls-1" d="M25.46,35.69l-5.04-2.75,3.55-.83c-2.26-.45-3.8-.78-5.78-1.5,2.56-3.34,9.4,2.59,9.78,5.88.24,2.07-1.19,4.16-2.8,5.32-.05-2.52-.33-4.21-1.54-5.79l1.81-.33Z"/>
      <path class="cls-1" d="M30.42,43.12c.95-1.65,1.98-1.87,3.5-1.86,3.17.02.2-3.96,3.6-5.64l-.16,7.38-6.94.12Z"/>
      <path class="cls-1" d="M37.31,11.48c-1.27-.35-1.57-1.57-1.67-2.97l-.13-1.78c-.07-.96-4.33.37-4.72-2.19l6.56-.08-.05,7.03Z"/>
      <path class="cls-1" d="M25.5,11.16l-3.3-2.63c-2.28-1.81-4.14-4.41-3.44-7.43,1.35,2.66,2.65,4.83,4.65,6.76.93.85,1.58,1.68,2.1,3.3Z"/>
      <rect class="cls-1" x="6.71" y="45.05" width="26.87" height=".55"/>
      <rect class="cls-1" x="7.81" y="47.26" width="25.76" height=".55"/>
      <path class="cls-1" d="M22.26,38.7l-4.33-3.32c-.77-.59-1.32-1.96-1.3-3.58,2.52,1.65,4.58,3.56,5.64,6.9Z"/>
      <path class="cls-1" d="M21.44,29c-2.04.55-3.85.33-5.17-.75-.98-.8-.69-2.5-.78-3.34-.22-1.75-1.19-4.98,2.07-5.85-.7,1.06-1.26,1.68-1.25,2.4.02.99,1.19,2.47,2.02,3.25-.17.38-.42.75-.69.72l-1.7-.22,5.51,3.79Z"/>
    </g>
  </g>
</svg>