<?xml version="1.0" encoding="UTF-8"?>
<svg id="Warstwa_2" data-name="Warstwa 2" xmlns="http://www.w3.org/2000/svg" viewBox="0 0 52.41 39.55">
  <defs>
    <style>
      .cls-1 {
        fill: #fff;
      }
    </style>
  </defs>
  <g id="game-icon-v7-magic-pixarts-store">
    <g id="game-icon-v7-magic-pixarts-store_186">
      <path class="cls-1" d="M32.6,18.32c.12.37.19.68.35.67l.78-.06c-.21.57-.44,1.07-.33,1.37s1.05.28,1.43.21l-.69,1.34c-.28.55-1.83,1.02-2.04.2l-1.48-.6c.11-.05.92-.65.9-1.09-.09-1.63-2.37-3.91-4.92-3.81.51-.78,1.21-.62,2.29-.6-.86-2.15-2.58-.66-3.89-1.96l3.98-.95c-1.59-.43-2.94-1.27-4.3-2.6l3.78.43c-.48-1.28-1.28-2.19-2.36-3.37,1.79.18,2.88,1.46,4.5,2.54l-.89-1.99c-3.68-1.15-6.57-4.11-5.57-8.03,1.83,5.11,2.47,3.95,6.54,6.71.84.57.89,2.06,2.24,1.96-2.39-5.29-4.89-2.06-3.64-7.06.53,2.07,1.76,3.87,3.8,4.61,1.33,5.25,3.96,3.12,3.11,6.28l2.51,1.67.53-.77c1.07,1.3,1.47,3.62-.2,4.72l-.62-.91c-.13-.19-.82.13-1.07.2l-.19-.98c-.05-.27-.74-.41-1.02-.53l-1.71-.75c.02.08-.09-.35-.21-.84-.95-.27-2.11-.46-3.03-.3l.77.57c.15.11-.02.23-.33.66l.99,3.08ZM34.75,12.53c-.18-1.04-1.12-1.91-2.36-2.12l.46,1.26c.23.64,1.27,1.23,1.9.86Z"/>
      <path class="cls-1" d="M52.41,30.55c-3.5-1.78-6.23-3.76-9.47-5.65l.72,2.83-3.16-3.34v3.11s-2.18-4.55-2.18-4.55l-.73.66-.17-2.53c-1.34-1.22-2.21-2.26-3.14-3.75,1.65.91,2.66,1.57,4.17,2.55.44.29,1.39-.26,1.88-.35.99-.18,2.49-.37,3.77-.52l-2.27,1.91,6.16,3.43-3.03-.1,7.44,6.31Z"/>
      <path class="cls-1" d="M17.59,18.5c.61,1.03.68,3.01-.69,4.01-.81,0-1.78-.93-2.18-1.89l1.64-1.42c-1.27-.52,1.01-5.21,2.12-6.51-.99.49-1.8.81-2.88,1.01.83-2.16,2.59-3.18,5.2-3.33-.81-.85-1.82-1.36-3.31-1.5,1.68-1.2,4.05-1.33,6.36-.78l-1.39-2.39c2.25.66,3.65,2.1,4.55,4.29-2.26-.78-3.38-.09-4.74.94-5.75,4.35-.96,8.35-3.17,12.31-.16.29-.68.98-.9.84l-.96-.61c-.78-.49,2.86-1.62.53-6.55l-1.57,2.17,1.4-.6Z"/>
      <path class="cls-1" d="M25.91,12.63c-3.96.35-5.09,2.85-5.29,6.6-1.35-2.73-.75-6.16,2.04-7.77,1.15-.66,2.67.24,3.25,1.17Z"/>
      <path class="cls-1" d="M10.92,26.89c-1.14.96-1.83,1.51-2.61,2.84-.56.95-2.34,2.12-3.81,2.23l8.23-8.57c.56.1,1.1.63,1.66,1.45-2.32-.63-2.43,1.17-3.46,2.05Z"/>
      <path class="cls-1" d="M7.15,33.97c3.22-4.65,3.64-2.36,4.9-5.81l1.98-.99.54-2.2c.44.19,1.15.88,1.21,1.38l-7.4,7.5-.54.55c-.15.16-.77-.38-.68-.43Z"/>
      <path class="cls-1" d="M18.03,25.57c-.09,1.93-5.47-2.62-4.63-4.19.1-.19.66-.23.84-.09,1.25,1.77,3.84,3.25,3.79,4.29Z"/>
      <path class="cls-1" d="M7.48,36.04c-.74,1.25-5.02-2.88-4.3-4.01s1.67,1.05,4.17,3.11c.18.15.24.71.13.9Z"/>
      <path class="cls-1" d="M4.66,35.59c.03.93-.48,1.94-1.04,2.01-.81.09-1.94-.37-2.08-1.05-.18-.88.41-1.58,1.37-2.33l1.75,1.37Z"/>
      <path class="cls-1" d="M22.93,21.08c-1.51-1.27-1.98-2.98-1.09-4.91,1.25,1.3,1.87,3.07,1.09,4.91Z"/>
      <path class="cls-1" d="M3.94,38.6l-3.94.95.34-2.99c.25-2.14.14-3.8,1.37-4,.39-.06,1.15.75.88,1.06-.59.71-1.5,1.81-1.95,2.43.74,1.49,1.65,1.97,3.3,2.55Z"/>
      <path class="cls-1" d="M25.64,15.31c-.94.51-1.52.95-2.24,1.88-.24-.17-.78-.89-.9-1.33-.14-.5.63-1.75,1.05-1.83l2.09,1.29Z"/>
      <path class="cls-1" d="M22.09,22.49c-.35.67-1.58,1.22-2.26,1.35l1.04-3.81c.83,0,1.77,1.39,1.21,2.46Z"/>
      <path class="cls-1" d="M50.86,20.85c-3.01.8-2.87.83-4.63-.65l1.93-.67c.15,1.69,1.42.72,2.7,1.32Z"/>
      <path class="cls-1" d="M38.07,30.26l-.54-2.35c-.12-.5.48-1.44.68-2.16l.62,1.89-.77,2.61Z"/>
      <path class="cls-1" d="M10.95,29l-2.18,1.96,1.27-2.68c.08-.18.82-.25,1.01-.28s.03.87-.11,1Z"/>
      <path class="cls-1" d="M4.16,38.31l1.87-1.63c.5.62.56,1.51.05,1.85s-1.37.2-1.92-.22Z"/>
    </g>
  </g>
</svg>