<?xml version="1.0" encoding="UTF-8"?>
<svg id="Warstwa_2" data-name="Warstwa 2" xmlns="http://www.w3.org/2000/svg" viewBox="0 0 41.96 42.2">
  <defs>
    <style>
      .cls-1 {
        fill: #fff;
      }
    </style>
  </defs>
  <g id="game-icon-v7-magic-pixarts-store">
    <g id="game-icon-v7-magic-pixarts-store_13">
      <path class="cls-1" d="M5.59,38.52c1.98,1.53,4.45,1.8,6.38.1-2.61.65-4.93-.07-6.64-1.84-1.72-1.77-2.29-4.02-1.88-6.7-2.15,2.99-.48,6.54,2.13,8.44Z"/>
      <g>
        <path class="cls-1" d="M9.35,42.2c3.47.05,5.86-2.4,5.73-5.9-.11-2.92-1.58-4.8-3.09-7.19,3.33,1.6,4.1,5.38,4.04,8.84.59-.63,1.7-1.73,1.85-2.59,1.03-5.82-5.36-12.33-10.78-11.36-.96.17-2.01,1.19-2.71,1.8,1.86.19,3.84.2,5.17,1.71-2.24-.52-4.2-1.08-6.19-.28C1.37,28.02.1,29.7,0,31.91c-.22,5.34,4.02,10.22,9.34,10.29ZM16.77,35.53l-.88-4.09c1.36.89,1.63,2.56.88,4.09ZM2.76,29.24c1.02-.9,2.53-1.32,3.94-1.03,3.66.77,6.56,3.83,6.91,7.75.15,1.68-.46,3-1.45,3.93-.9.85-2.48,1.26-3.95.95-3.84-.8-6.75-4.16-6.89-8.06-.05-1.37.61-2.8,1.45-3.55Z"/>
        <path class="cls-1" d="M19.02,33.41l4.36-5c1.22-1.4,1.73-2.88,1.25-4.68-.79-2.94-3.04-5.32-6.01-6.22-1.46-.45-2.98,0-4.08.95l-5.22,4.5c5.12,1.23,9,5.15,9.72,10.45ZM23.07,22.45c.34.69,1.19,2.6.72,3.38-1.24,2.09-2.79,3.65-4.44,5.28l-1.29-3.07,5.01-5.59Z"/>
        <path class="cls-1" d="M26.66,19.1l4.02-4.52c2.34,3.24-4.36,5.75-2.74,7.46,1.36-1.58,2.91-3.08,3.86-4.81.91-3.66-2.55-7.32-6.28-6.98l-5,4.12c2.72.98,4.5,2.5,6.14,4.73Z"/>
        <path class="cls-1" d="M37.19,4.72c1.29,1.38,1.62,3.03,1.47,4.94,1.87-1.17.23-4.21-.49-5.82,2.11.92,2.26,3.07,2.31,4.96,1.5-1,1.74-2.74,1.25-4.33-.64-2.09-2.41-3.72-4.54-4.33-1.49-.43-2.99.19-3.72,1.49,1.64-.08,3.25.14,4.03,1.64-1.89-.42-3.72-1.72-5.21.12,1.96-.16,3.74.1,4.89,1.32Z"/>
        <path class="cls-1" d="M33.99,10.86l2.83-3.06c1.2,1.43-1.96,3.41-2.08,4.78,1.17-.44,2.04-1.41,2.62-2.41.82-1.44.41-2.96-.54-4.27-.65-.89-2.17-2.1-3.68-1.46-1.35.56-2.62,1.94-3.6,2.91,1.93.89,3.26,2.01,4.46,3.5Z"/>
        <path class="cls-1" d="M21.56,17.88c3.02,2.08,4.63,5.37,4.11,8.9,1.22-.9,1.59-2.21,1.38-3.61-.57-3.79-3.5-6.91-7.15-7.93-1.78-.5-3.27,0-4.39,1.35,2.32-.49,4.25.06,6.04,1.29Z"/>
        <path class="cls-1" d="M30.24,10.74c2.05,1.62,2.94,3.89,2.72,6.55,1.24-.98,1.47-2.46,1.08-3.9-.74-2.71-3.22-4.93-6.03-5.31-1.35-.18-2.59.38-3.09,1.43,2.02-.49,3.78.02,5.32,1.24Z"/>
        <path class="cls-1" d="M6.16,32.1c.87.53,3.02.93,2.86-.62-.14-1.43-2.66-2.34-3.62-1.6-.93.72.02,1.77.75,2.22Z"/>
      </g>
    </g>
  </g>
</svg>