<?xml version="1.0" encoding="UTF-8"?>
<svg id="Warstwa_2" data-name="Warstwa 2" xmlns="http://www.w3.org/2000/svg" viewBox="0 0 53.51 53.41">
  <defs>
    <style>
      .cls-1 {
        fill: #fff;
      }
    </style>
  </defs>
  <g id="game-icon-v7-magic-pixarts-store">
    <g id="game-icon-v7-magic-pixarts-store_91">
      <path class="cls-1" d="M52.31,24.43c-.21.07-.63.24-.95.39-6.01,2.78-13.02,3.97-19.26,1.04-.54-.21-1.35.28-1.31.93,6.83,4.09,16.76,2,22.72-1.32-.41-.49-.91-1.13-1.2-1.04Z"/>
      <path class="cls-1" d="M26.51,22.57c1.42-.92.57-1.84.18-3.08-2.97-9.57,2.23-17.68,2.08-18.88-.04-.29-.93-.68-1.13-.6-3.47,6.98-4.91,15.72-1.13,22.56Z"/>
      <path class="cls-1" d="M27.16,27.46l4.58-2.86c-.84-1.66-1.55-2.32-3.24-3.08l-2.81,5.06c-.2.37,1.08,1.12,1.47.88Z"/>
      <path class="cls-1" d="M5.56,30.06c2.52.06,4.09-1.11,5.65-2.95-.43,2.18-2.24,3.39-4.41,3.89-1.23.28-2.31,1.65-3.34,2.2-1.27.69-2.82.68-2.92,2.77-.03.57-.15,1.61.13,2.06.64,1.04,3.56,1.37,3.84,3.01.09.52-.3,1.25-.7,1.98l-.66-1.72L.04,44.58c-.18.19.36.99.58.9l1.19-.51-1.25,2.31,2.51-.87-1.66,1.87c-.09.4.7,1.69,1.06,1.62l2.8-2.03-2.07,3.05c.74.49,1.37,1.01,1.61.82l.9-.7,1.29-1-1.27,2.83,2.87-1.07c-.35.55-.69,1.08-.23,1.59l3.41-3.2-1.58-.6,2.05-.81c2.36,1.12,1.04,4.66,4.96,3.95,1.5-.27,2.35-1.16,2.48-2.8l2.35-2.54c.22-2.73,1.87-4.64,4.14-5.66-1.74,1.96-3.09,3.42-2.95,5.79,3.66-1.77,6.48-5.83,6.15-10.28-.43-5.76-4.44-10.54-9.68-12.62-5.6-2.22-11.72.18-14.12,5.43ZM8.64,47.24c-.51.04-.73-1.24-.81-1.99l-1.48.02c-1.23.02.63-2.97,4.55-3.03.1,1.95-.73,3.96-2.25,5ZM20.46,44.95c.27,1.7-.91,2.88-2.58,3.53-1.25.48-2.67-.38-3.81-1.55-2.04-2.1-.64-3.7-.67-5.52,0,.43,6.35-.91,7.05,3.54ZM24.06,30.65l-4.96,1.25c-.11.79-.02,1.87.27,2.37.41.72,1.36.91,2.56,1.47-1.95,1.26-3.92,1.36-6.19,1.71l-1.11.17c-.24.04-.08-.77.15-.85.74-.25,2.2-.8,3.2-1.22l-1.1-4.23c2.28-1.06,4.72-1.35,7.17-.68ZM11.36,38.98l1.45.36-5.27,1.83,1.28-1.24c-1.77-.25-3.82-1.22-4.21-3.26-.29-1.53.95-3.67,2.56-4.01,1.46-.32,2.88.89,3.64,2.02.81,1.2.88,2.85.56,4.31Z"/>
    </g>
  </g>
</svg>