<?xml version="1.0" encoding="UTF-8"?>
<svg id="Warstwa_2" data-name="Warstwa 2" xmlns="http://www.w3.org/2000/svg" viewBox="0 0 42.09 45.02">
  <defs>
    <style>
      .cls-1 {
        fill: #fff;
      }
    </style>
  </defs>
  <g id="game-icon-v7-magic-pixarts-store">
    <g id="game-icon-v7-magic-pixarts-store_268">
      <path class="cls-1" d="M42.09,6.15l-.04-1.61c-1.43-3.35-12.58-5.64-15.17-4.01l2.98.63c.27-.04.29.03.02.49,2.3.75,9.16,1.42,9.82,4.29-.21,1.32-1.72,1.86-2.8,2.19-.76-1.38-1.93-2.13-3.31-2.84-1.7-.88-2.72-1-4.64-.46l3,.88c1.18.34,2.4.57,3.12,1.54l-1.72-.34c1,.62,1.55.96,2.23,1.78-7.62,3.11-16.68,3.59-24.37,2.15-1.18-.22-2.17-.7-3.07-1.47,1.32-3.02,7.54-3.5,10.09-4.14l-4.45.3c1.54-1.35,3.38-1.1,5.13-1.35l4.03-.59c-2.6-.26-2.4.2-5.65.19-3.59-.01-7.08,1.15-10.02,3.05-1.09.71-1.48,1.73-1.13,3.02-.91-.18-4.36-1.22-3.48-2.63,1.46-2.32,6.78-3.75,9.33-4.59,2.34-.77,4.79-.84,7.2-1.12-.79-.1-1.63-.2-2.33-.19l-1.74.02.96-.35c-1.41.07-2.28.74-3.55.3L18.7.05c-1.91-.13-3.71.33-5.59.66-3.13.56-6.22,1.1-9.12,2.38C2.93,3.56-.97,5.56.23,6.96c.67-.87,1.28-1.74,2.42-2.01-1.01,1.08-2.09,2.25-1.85,3.74.21,1.3,1.12,1.99,2.14,2.57l-2.04-.61c1.51,1.59,3.43,2.2,5.64,2.9l-1.1,1.7c-.22.35-.02,1.11.14,1.73l-.97.1c2.87,3.19,2.11,2.2,5.89,3.63-.21.54-.44,1.1-.53,1.47-.08.34.52.96.87,1.11l3,1.28c-1.81.17-3.41-.48-4.66-1.69-.07,1.86,2.27,1.88,4.24,2.95l1.2.65c3.4,1.84,7.28,1.28,11.28,1.39-1.89.92-4.08,1.56-6.29,1.47-1.26-.05-2.46-.76-3.73-.88.64,1.17,1.72,1.03,2.58,1.54l-1.88.06-.06.79c-.1,1.24,8.14,1.31,9.33.16.05-.05.02-.12-.04-.15l-.54-.3c2.42-.14,4.38-1.21,6.39-2.54,1.86-1.22,6.34-3.01,5.13-5.09-.26.65-.76,1.36-1.32,1.69.18-.85.36-1.56.38-2.13.02-.46-.73-1.16-1.16-1.37-.2-.1-.92.14-.84.33.45,1.14,1.03,1.14.85,1.63-.85,2.3-9.03,2.54-11.09,2.15l1.42-.54c-.51-.33-1.67-.33-2.4-.16-.24-.08-.82-.34-1.08-.33-3.48.06-6.81-.49-10-1.79.06-.31.24-.72.42-.88.63-.54,1.36.54,3.45.35,1.23-.11,2.48.19,3.77.4,3.38.53,6.74.75,10.11-.27l-2.53-.17,2.51-.59-4.45-.19c1.79.03,10.72-1.08,11.41-2.17.04-.06-.03-.17-.11-.19-.63-.1-8.14,2.14-14.47,1.12-1.81-.29-3.41-.75-5.13-1.12.64-.33,1.29-.04,1.92-.04,4.14.02,8.19-.16,12.31-.71,2.71-.36,5.32-1.28,7.77-2.28,1.36-.56,1.5-1.41,1.67-2.69l1.5-2.46c-1.26-.73-.78,1.1-4.66,2.47-3.92,1.38-7.85,2.21-11.95,2.82l-4.25.63c-1.46.22-3.06-.09-4.54-.08.76.67,6.46.84,7.55.84h3.56c-.81.2-1.57.45-2.31.48l-6.84.3-2.63.16c-.9.05-1.65.19-2.49-.09-2.16-.71-4.16-1.23-6.11-2.5,1.3-2.4,2.54-.78,6.8-.71l2.85.05c3.03.05,9.11-.35,11.94-1.02l-3.16-.27,6.55-1.37c-2.72-.71-4.36.71-7.01-.4.6-.18,6.11-1.41,6.62-.75l-1.46.64c.94,0,1.63-.22,2.44-.32l2.66-.31-.34.97c2.74-.45,7.26-2.63,7.17-5.91Z"/>
      <path class="cls-1" d="M25.44,31.6c1.6.52,2.5-.83,4.12-.78-1.76,1.95-9.64,4.01-11.77,2.78-.23-.12-.33-.88-.39-1.23-.68.21-1.07.76-1.18,1.46-.39,2.51,4.45,2.73,6.52,2.37-1.63,1.36-3.25,2.54-3.59,4.71-.25,1.59.61,3.53,1.98,4.13l-.87-2.4.67.34c.15-2.22,1.7-4.27,3.87-4.69-.91,1.23-1.84,1.98-2.13,3.31l3.01-2.65c.98-.86,1.76-1.72,1.39-3.21,1.01-.4,1.72-.73,2.54-1.29l-.92-.11c.22-.16.85-.67.69-.84l-.74-.81,1.34-1.09c.82-1.5,1.83-2.48,3.1-3.57l-4.8,2.46-2.84,1.15Z"/>
      <path class="cls-1" d="M13.8,9.1c-.09.56,1.13,1.29,1.73,1.33,4.93.35,7.57.59,12.35-.53.48-.11,1.02-.83.89-1.24-.1-.32-.55-.75-.94-1.02-.27-.18-.77.44-1.08.62l-2.79.37c-2.76.37-5.39.68-8.11-.07l1.23-.79c-1.17.01-2.7.04-3.27,1.34Z"/>
    </g>
  </g>
</svg>