<?xml version="1.0" encoding="UTF-8"?>
<svg id="Warstwa_2" data-name="Warstwa 2" xmlns="http://www.w3.org/2000/svg" viewBox="0 0 43.29 44.15">
  <defs>
    <style>
      .cls-1 {
        fill: #fff;
      }
    </style>
  </defs>
  <g id="game-icon-v7-magic-pixarts-store">
    <g id="game-icon-v7-magic-pixarts-store_214">
      <path class="cls-1" d="M10.58,36.12l-3.95,4.72c-1.51-.68-2.73-1.86-3.25-3.37,5.48-4.36,10.14-9.07,14.85-14.17l2.4,2.35c-3.43,3.46-6.93,6.75-10.05,10.48Z"/>
      <path class="cls-1" d="M35.64,13.41c0,3.07-2.49,5.55-5.55,5.55s-5.55-2.49-5.55-5.55,2.49-5.55,5.55-5.55,5.55,2.49,5.55,5.55ZM34.33,13.37c0-2.35-1.91-4.26-4.26-4.26s-4.26,1.91-4.26,4.26,1.91,4.26,4.26,4.26,4.26-1.91,4.26-4.26Z"/>
      <path class="cls-1" d="M23.41,23.11c-1.14-.55-2.02-1.35-2.62-2.59l3.98-3.39,1.9,1.89-3.27,4.09Z"/>
      <path class="cls-1" d="M23.33,14.63c-1.29,1.37-3.85-1.53-6.59-.97,2.71-2.24,2.93-.62,6.87-1.36.1.38.12,1.9-.28,2.33Z"/>
      <path class="cls-1" d="M43.29,13.3c-3.32,2.31-2.71-.04-6.58,1.39-.21-.33-.4-1.97.02-2.46,1.36-1.6,3.71,1.26,6.56,1.07Z"/>
      <path class="cls-1" d="M31.3,20.1c1.23,1.15-1.16,3.95-1.07,6.37-1.91-1.95-.37-2.87-1.25-6.54.24-.16,1.88-.24,2.32.17Z"/>
      <path class="cls-1" d="M31.45,6.89c-.33.12-1.97.14-2.39-.31-1.42-1.5,1.09-3.66.99-6.58,2.46,3.82-.28,2.3,1.4,6.89Z"/>
      <path class="cls-1" d="M35.49,9.63l-1.8-1.85c2.53-3.13,3.2-.93,5.56-4.08.37,3.4-1.96,2.64-3.76,5.93Z"/>
      <path class="cls-1" d="M39.15,22.58c-2.56-.32-2.36-1.97-5.2-3.91l1.7-1.59c2.41,1.04,1.21,2.49,3.5,5.51Z"/>
      <path class="cls-1" d="M26.16,8.06l-1.68,1.7c-2.75-1.54-.89-3.04-3.69-5.44,3.09-.14,2.43,1.98,5.37,3.74Z"/>
      <path class="cls-1" d="M6.34,42.47c0,2.56-6.81-3.49-4.61-4.61.26-.13.77.1.97.38,2.45,3.57,3.64,2.75,3.64,4.23Z"/>
      <path class="cls-1" d="M4.03,43.43c-.56.61-2.46,1.02-3.23.44-1.31-1-.79-3.21-.07-4.13l3.3,3.69Z"/>
      <path class="cls-1" d="M22.9,24.22c.29.3-.92.95-1.4.71-1.04-.51-3.47-2.74-2.3-3.91.21-.21.73.1.99.37l2.71,2.82Z"/>
      <path class="cls-1" d="M23.89,10.22c.22.04.27.8.12.93-1.1.96-2.9-.72-3.31-1.5l3.19.57Z"/>
      <path class="cls-1" d="M33.25,7.48l-1.31-.57c.48-1.28.88-2.13,2.07-2.86l-.76,3.42Z"/>
      <path class="cls-1" d="M23.9,16.7c-.99.6-2.27.89-3.3.53l2.9-1.67c.26-.15.67.97.4,1.14Z"/>
      <path class="cls-1" d="M28.1,6.94c.03.27-1.16.67-1.4.34-.46-.64-.74-2.36-.43-3.22l1.83,2.88Z"/>
      <path class="cls-1" d="M39.62,9.46l-3.27,1.86-.43-1.46c1.41-.37,2.09-.53,3.7-.41Z"/>
      <path class="cls-1" d="M33.95,22.54l-1.89-2.9,1.61-.33c.34,1.35.45,1.85.28,3.23Z"/>
      <path class="cls-1" d="M27.72,19.57c.75-.34.43,2.16-1.64,3.23.45-1.74.38-2.67,1.64-3.23Z"/>
      <path class="cls-1" d="M39.33,17.15l-3.44-.83c1.11-1.92,2.88-.61,3.44.83Z"/>
      <circle class="cls-1" cx="30.03" cy="13.4" r="3.31"/>
    </g>
  </g>
</svg>