<?xml version="1.0" encoding="UTF-8"?>
<svg id="Warstwa_2" data-name="Warstwa 2" xmlns="http://www.w3.org/2000/svg" viewBox="0 0 49.3 49.99">
  <defs>
    <style>
      .cls-1 {
        fill: #fff;
      }
    </style>
  </defs>
  <g id="game-icon-v7-magic-pixarts-store">
    <g id="game-icon-v7-magic-pixarts-store_213">
      <path class="cls-1" d="M30.87,22.3c-4.1.63-4.71,4.3-5.94,2.35-1.03-1.64,1.6-1.42,2.21-6.06l.72-5.41c.44-3.34,2.72-6.13,6.02-6.81,4.11-.85,7.91,1.35,9.02,5.22s-.79,7.74-4.8,9.24c-2.22.83-4.76,1.09-7.23,1.47ZM30.47,17.79c1.45,1.66,2.96,1.97,4.87,2.23l-2.75.78c2.47.82,4.72-.32,6.48-2.05,2.21-2.18,3.25-4.95,1.64-7.85-1.22-2.2-4.05-3.57-7-2.78-3.85,1.04-6.24,4.68-5.12,8.71l.77-3.84c.42,1.74.21,3.76,1.11,4.79Z"/>
      <path class="cls-1" d="M9.64,43.47c-1.5-.58-2.47-1.81-3.33-3.3l8.75-8.38,5.86-5.75,2.7,2.74-13.97,14.69Z"/>
      <path class="cls-1" d="M2.99,49.13c-.4.61-2.23.85-2.87.86-.22-.62-.15-2.61.45-3.07l3.03-2.34c.22-.17,1.12-.11,1.31.08.24.24.37,1.01.17,1.3l-2.08,3.16Z"/>
      <path class="cls-1" d="M9.12,44.7c.26.26.17,1.12-.1,1.26-1.54.85-6.22-3.56-5.03-5.28.21-.3.94-.16,1.21.12l3.91,3.9Z"/>
      <path class="cls-1" d="M25.54,28.28c-1.91-.26-5.47-3.77-3.5-5.13.71-.49,2.53,2.93,4.53,3.97.25.19-.58,1.22-1.03,1.16Z"/>
      <path class="cls-1" d="M32.77,23.84c-1.53,2.05-3.8,2.29-5.94,1.8,1.5-1.77,3.55-2.62,5.94-1.8Z"/>
      <path class="cls-1" d="M23.85,22.81c-.4-2.04-.16-4.29,1.47-5.9,1.27,1.89.58,4.41-1.47,5.9Z"/>
      <polygon class="cls-1" points="37.14 5.07 34 4.96 35.46 0 37.14 5.07"/>
      <polygon class="cls-1" points="42.99 8.55 40.67 6.32 45.02 3.94 42.99 8.55"/>
      <polygon class="cls-1" points="45.06 23.12 40.68 21.04 42.95 18.74 45.06 23.12"/>
      <polygon class="cls-1" points="30.29 6.39 28.3 8.8 25.89 4.32 30.29 6.39"/>
      <polygon class="cls-1" points="35.66 27.3 34.2 22.9 37.24 22.51 35.66 27.3"/>
      <path class="cls-1" d="M26.34,15.14l-4.41-1.54,4.87-1.41c-.04.9-.16,1.69-.47,2.95Z"/>
      <polygon class="cls-1" points="49.3 13.54 44.37 15.08 44.21 12.08 49.3 13.54"/>
      <polygon class="cls-1" points="33.28 5.1 30.94 6.19 30.97 2.77 33.28 5.1"/>
      <polygon class="cls-1" points="28.03 9.02 26.95 11.35 24.62 9.14 28.03 9.02"/>
      <polygon class="cls-1" points="46.46 17.99 43.34 18.28 44.11 15.84 46.46 17.99"/>
      <polygon class="cls-1" points="40.08 5.96 37.75 5.17 39.98 2.72 40.08 5.96"/>
      <polygon class="cls-1" points="40.06 24.76 37.96 22.44 40.07 21.21 40.06 24.76"/>
      <polygon class="cls-1" points="46.57 9.1 44.08 11.45 43.33 9.21 46.57 9.1"/>
      <path class="cls-1" d="M6.98,47.3c-.59,1.05-1.34,1.82-2.63,1.78l1.14-2.25c.12-.23.89-.56,1.16-.53s.47.75.34.99Z"/>
      <path class="cls-1" d="M3.44,43.45c-.74.83-1.77,1.65-2.56,2.1-.29-1.19.87-2.22,1.64-2.77.23-.17,1.13.43.92.67Z"/>
      <path class="cls-1" d="M40.19,13.87c0,2.54-2.06,4.6-4.6,4.6s-4.6-2.06-4.6-4.6,2.06-4.6,4.6-4.6,4.6,2.06,4.6,4.6ZM37.37,11.25c-1.7-1.62-3.92-1.04-4.29.84,1.52.08,3.08-.13,4.29-.84Z"/>
    </g>
  </g>
</svg>