<?xml version="1.0" encoding="UTF-8"?>
<svg id="Warstwa_2" data-name="Warstwa 2" xmlns="http://www.w3.org/2000/svg" viewBox="0 0 52.48 30.94">
  <defs>
    <style>
      .cls-1 {
        fill: #fff;
      }
    </style>
  </defs>
  <g id="game-icon-v7-magic-pixarts-store">
    <g id="game-icon-v7-magic-pixarts-store_259">
      <path class="cls-1" d="M39.07,15.32c.28-.64.13-1.55.86-1.95.19-.11.44-.45.57-.68.94.12,1.99.37,2.91-.1l-2.53-1.01.64-.24-2.66-1.17c-2.51-1.11-5.32-1.86-8.12-1.72-4.57.24-8.53,2.07-11.86,5.15-1.43,1.32-2.45,2.92-4.08,4.02-.28.19-3.07,1.91-2.11,2.45,1.15.64,2.62.01,3.79.24,4.56.91,3.17,1.91,10.19,2.29,5.33.29,10.28-2.4,12.4-7.29ZM39.28,13.17c-.12.49-.42,1.31-.65,1.86l-.25-2.64c.19-.03.97.49.9.79ZM34.67,10.79c1.29.24,2.48.84,3.49,1.68-.05,2.26-1.02,4.09-2.71,5.61-.83.75-1.56,1.58-2.64,1.81,3.43-2.65,3.53-5.11,1.87-9.09ZM18.45,16.76c.53-.87,1.22-1.56,1.96-2.22.07,1.33.46,4.26,1.62,4.94l-.14-.93,1.46,1.55,1.49,1c-2.02.38-7.64-2.27-6.39-4.34ZM26.17,14c.07-.77.19-1.49.38-2.38.12-.56,1.09-1.38,1.61-.78.51.59.74,1.61,1,2.38.46,1.37.52,2.69.31,4.12-.14.98-.23,1.95-1.11,2.56-1.41-2.23-1.91-3.88-1.66-6.51l-.53.62Z"/>
      <path class="cls-1" d="M13.08,12.74c-.78.67-1.6,1.22-1.48,2.62.04.51.55,1.18.92,1.38,1.54.84,3.36-1.36,4.11-2.54l-.48-1.88c1.19,1.82,3.56-.73,4.43-1.35,1.24-.88,2.56-1.56,3.89-2.4,1.27-.8-.32-2.89-.8-3.22-1.15-.78-2.21.06-2.95.81-.84.85-1.1,1.54-.44,2.89l-1.56-.8c-1.3-.66-2.56.98-3.06,2.15l.42.22c-.19.45-.29.87-.27,1.36-.98-.37-1.92.06-2.72.75Z"/>
      <path class="cls-1" d="M25.22,4.53c-.24.94-.12,2.35.52,2.98.61.6,4.63.18,5.4-.76.6-.74.35-2.77-.59-3.17-1.76-.75-3.85,0-5.33.95Z"/>
      <path class="cls-1" d="M5.46,19.29c-.52-.78-1.21-.97-2.26-1.04-.91-.06-2,.49-2.48,1.46-.35.71-1.25,3.42-.31,4.02.72.46,4.24-1.51,5.06-2.03.75-.48.34-1.87,0-2.4Z"/>
      <path class="cls-1" d="M7.34,20.65l2.01-.71c1.23-.44,2.43-1.07,2.78-2.43.11-.44-.6-1.05-.87-1.36-.87-1.04-1.78-1.17-2.98-.67-1.38.57-2.67,1.74-2.16,3.47l1.22,1.71Z"/>
      <path class="cls-1" d="M27.88,27.72l-.97-.14c-.04-.67-4.62-.37-5.01.06-.61.64-.24,1.68.22,2.26,1.17,1.46,4.07.94,5.83.99l-.99-.41,1.21-.65c.39-.21.04-2.05-.29-2.1Z"/>
      <path class="cls-1" d="M35.19,26.04c-1.15-.06-2.08.29-3.06.78l-1.49.73c-.09.04-.36.26-.29.31l.32.23-1.26.64c.11.42.35,1.04.61,1.2.22.14.77.07,1.19.04l1.4-.13-.96.48c1.55-.07,2.92-.46,4.19-1.36.39-.27.1-1.3-.08-1.68l-.57-1.23Z"/>
      <path class="cls-1" d="M44.48,18.38c-1.27-.2-2.09.52-2.35,1.69-.44.42-1.11,1.09-1.24,1.76.07,1,1.52,2.01,2.56,1.49,1.19-.6,3.36-2.54,2.44-4.14-.27-.47-.82-.71-1.41-.8Z"/>
      <path class="cls-1" d="M32.58,4.13c-.23.74-.27,1.88-.32,2.63l-.44.26c-1.04.62,4.39.83,5.08.22.32-.47.43-1.48.27-1.94-.55-1.65-3.09-1.97-4.59-1.17Z"/>
      <path class="cls-1" d="M39.02,23.1c-.88.62-1.27,1.64-1.88,2.47-.27.37-.47.89-.5,1.27-.02.3.37,1.03.9.96,1.65-.22,3.66-1.33,4.03-3,.24-1.08-1.74-2.27-2.56-1.7Z"/>
      <path class="cls-1" d="M38.8,5.67c-.88.71.1.84-1.29,2.15-.17.16.25.5.5.6l3.16,1.3,1.91-1.71c-.58-1.63-3.1-3.29-4.29-2.33Z"/>
      <path class="cls-1" d="M36.99,22.35c-.33-.56-1.17-1.09-1.78-.7l-1.95,1.23c-.06-.23-.06-.4-.13-.38l-.36.11c-.51.15-1.43.6-1.59,1.04l.68,1.62,2.93.03,1.48-.99c.69-.46,1.15-1.26.74-1.96Z"/>
      <path class="cls-1" d="M27.18.22c-.31-.03-.86.1-1.19.19-3.72,1-4.51,3.22-3.87,3.41.98.3,1.9-.04,2.79-.36l3.37-1.24c.54-.3-.59-1.96-1.1-2.01Z"/>
      <path class="cls-1" d="M30.01,23.83c-1.47-.51-3.36-.22-4.7.5-.39.74.18,1.89,1.05,2.06,1.29.26,2.95.59,4.17-.29.49-.37.05-2.06-.52-2.27Z"/>
      <path class="cls-1" d="M19.08,25.85l-3.28-.1c-.89,1.15,1.79,4.04,4.25,3.24.73-.24.98-1.41.78-2.06-.17-.57-1.04-1.05-1.76-1.07Z"/>
      <path class="cls-1" d="M29.91,2.38c1.39.56,2.58.56,3.94.62.65.03,1.52.2,1.66-.76.1-.67-.48-1.96-1.29-2.13-1.07-.23-2.19-.06-3.23.29l2.33.11c-1.24.21-2.2.25-3.3.59-.3.09-.39,1.16-.1,1.28Z"/>
      <path class="cls-1" d="M7.46,23.61c2.03,1.65,2.97.69,5.07-.26.29-.13.62-.61.54-.9-.42-1.66-4.5-.77-5.91-.13-.17.08-.43.69-.29.81l.59.48Z"/>
      <path class="cls-1" d="M46.96,8.93c-.75-.6-1.81-.86-2.74-.77l-1.36,1.17c-.24.21-.11.92.22,1.08l2.69,1.36c.86.43,1.47-.28,1.65-.89.23-.78.19-1.43-.47-1.95Z"/>
      <path class="cls-1" d="M41.11,18.29c-1.26-1.56-4.29.98-4.44,2.32l1.58,1.27c1.51-.28,3.84-2.37,2.86-3.59Z"/>
      <path class="cls-1" d="M18.07,24.77c.72-.23,1.17-1.56.87-2.21-1.31-.85-3.18-1.13-4.61-.53-.24.79.2,1.84.91,2.29.75.48,1.94.74,2.83.45Z"/>
      <path class="cls-1" d="M18.89,6.69l1.61-1.53c.29-.27.57-.83.53-1.21-.04-.28-.44-.85-.73-.83-1.44.09-4.55,2.03-4.11,4.1.78,0,2.09.05,2.71-.53Z"/>
      <path class="cls-1" d="M19.75,22.87v1.87c.73.46,3.73,2.64,4.25,1.37.16-.38.41-2.13.18-2.32-.14-.12-.58-.32-.78-.35l-3.65-.58Z"/>
      <path class="cls-1" d="M45.86,17.37c1.16-.26,1.98-1.52,1.81-2.72-.06-.42-.67-.76-.97-.73l-1.88.19-1.7,3.23c1.12.13,1.87.23,2.74.03Z"/>
      <path class="cls-1" d="M41.55,2.95c-2.21-.93-2.98-1.68-4.48-1.11-.58.22-1.08,1.41-.44,1.66,1.16.44,4.79,1.98,5.23.69.13-.39.03-1.09-.31-1.24Z"/>
      <path class="cls-1" d="M45.96,4.38c-.98-.65-2.72-.2-3.59.62.42,1.19,2.2,3.26,3.82,2.15.84-.57.62-2.21-.23-2.77Z"/>
      <path class="cls-1" d="M51.28,10.12c-.64-.18-1.61-.36-2.25-.18-.84.24-1.09,1.74-.64,2.27l1.47.53c.77.28,1.89.52,2.45-.43.5-.83-.14-1.94-1.03-2.2Z"/>
      <path class="cls-1" d="M10.62,11.01c-1.53.02-2.85,1.17-3.33,2.42.23.36.46.98.72.95l1.17-.13c1.13-.12,2.28-.45,2.65-1.58.18-.55-.58-1.67-1.22-1.66Z"/>
      <path class="cls-1" d="M13.51,7.83c-.75.9-1.97,2.02-1.27,3.18.15.24.77.63,1.02.49,1.26-.68,2.01-1.84,2.37-3.09.14-.48-.47-1.05-.84-1.1-.47-.07-.98.17-1.28.53Z"/>
      <path class="cls-1" d="M6.55,14.43c-.27-.39-1.49-.93-2.58.03-.82.72-1.74,1.38-1.74,2.59,2.83.36,2.66-.15,4.19-1.52.21-.19.29-.87.14-1.1Z"/>
      <path class="cls-1" d="M12.48,24.7c-.58.26-1.05.63-1.61,1.15,1.04.78,2.14,1.64,3.51,1.38.43-.08.69-1.35.44-1.7-.45-.62-1.61-1.16-2.34-.83Z"/>
      <path class="cls-1" d="M42.29,17.27c.33-.29,1.52-2.51.95-2.76-1.08-.46-1.84.47-2.45,1.15-.32.37-.91,1.03-.4,1.41.36.27,1.53.51,1.91.19Z"/>
      <path class="cls-1" d="M49.3,16.95c-.76-.39-1.61-.25-2.15.31-.31.32-.66.79-.63,1.1.03.32.29.89.51,1.16.77-.3,1.47-.62,2.14-1.02.51-.3.63-1.31.14-1.56Z"/>
      <path class="cls-1" d="M9.36,25.12c-1.07-.12-2.16.05-3.18.4-.01.26.3.8.56.88l2,.6c.7.21,1.18-.18,1.36-.77.11-.36-.15-1.05-.74-1.11Z"/>
      <path class="cls-1" d="M5.66,23.4c-.52-.12-3.12.54-3.24,1.85.19.85,3.75-.42,4.12-.81-.17-.41-.57-.97-.88-1.04Z"/>
      <path class="cls-1" d="M50.53,8.47l-1.68-1.97c-.65.01-1.31.09-1.53.56-.18.38.05,1.03.39,1.33.79.72,1.92.86,2.82.08Z"/>
      <path class="cls-1" d="M49.42,14c-.63.13-1.14.94-.74,1.55.31.46,1.41.56,1.95.28.39-.2.95-.76,1.02-1.27-.71-.56-1.53-.7-2.23-.55Z"/>
    </g>
  </g>
</svg>