<?xml version="1.0" encoding="UTF-8"?>
<svg id="Warstwa_2" data-name="Warstwa 2" xmlns="http://www.w3.org/2000/svg" viewBox="0 0 49.18 50.04">
  <defs>
    <style>
      .cls-1 {
        fill: #fff;
      }
    </style>
  </defs>
  <g id="game-icon-v7-magic-pixarts-store">
    <g id="game-icon-v7-magic-pixarts-store_250">
      <path class="cls-1" d="M7.01,39.95c.49-2.99,9.82-2.13,8.84-5.65-1.7,1.26-3.11,2.35-5.49,2.59,1.47-2.64,4.07-3.8,6.77-6.93,1.42-1.65,2.39-3.35,4.51-4.32-.39,2.02-1.05,3.34-1.71,5.07,3.98-2.43,1.6-8.88,5.37-9.3l1.33-5.6c2.02,1.48,1.2,3.07,1.04,4.89l-.46,5.42-2.3,1.61c-1.76,1.23-3.08,2.72-4.55,4.19s-2.87,2.79-4.18,4.67c-1.87,2.67-5.61,3.07-9.18,3.38Z"/>
      <path class="cls-1" d="M43.71,13.87c2.26-3.21,2.87-6.65,2.11-10.48-3.67-.78-7.23-.19-10.34,2.23-.29-.57-.61-2.19-.14-2.62C39.1-.43,43.81-.2,48.8.27c.61,5.06.89,9.66-2.62,13.65-.36.41-1.79.24-2.47-.04Z"/>
      <path class="cls-1" d="M41.39,18.8c-.54,2.12-2.55,3.51-4.75,3.37-4.76-.31-8.12-3.81-9.14-8.34-.61-2.69.29-5.56,3.31-6.43-1.98,3.56-1.18,7.71,1.79,10.41,2.43,2.21,5.58,2.59,8.8,1Z"/>
      <path class="cls-1" d="M5.19,48.86l1.53-5.45c-.86,0-1.85-.04-2.37.14l-3,1.05c-.1-1.99,2.24-1.93,3.05-2.47.25-.16.75-.97.92-1.22s.84.12,1.16.2c1.83-.38,3.52-.77,5.8-.9l-3.66,4.37-.24-1.96c-2.23,2.18,1.01,3.75-3.19,6.24Z"/>
      <path class="cls-1" d="M34.62,14.57l2.68-5.73,5.22-2.26c-2.4,5.67-1.23,5.82-7.9,7.99Z"/>
      <path class="cls-1" d="M.12,50.04c-.15-1.34-.35-3.44.77-4.2,1.29-.87,2.87-1.22,4.58-1.65-.2,1.95-.76,3.64-1.71,5.25l-3.64.6Z"/>
      <path class="cls-1" d="M30.64,11c.37-4.85,2.02-3.47,1.64-8.9,1.85,1.08,1.94,3.17,1.62,5.28-.21,1.36-1.65,2.75-3.26,3.62Z"/>
      <path class="cls-1" d="M46.98,17.31c-2.98-.28-5.51.3-8.43,1.57.44-1.96,1.93-3.2,3.41-3.42,1.85-.27,3.92-.57,5.02,1.85Z"/>
      <path class="cls-1" d="M33.22,22.94c-1.26.56-3.02,1.04-4.42,1.24-.38-.3-.7-1.63-.3-1.91,1.2-.86,3.74-1.21,4.72.67Z"/>
      <path class="cls-1" d="M40.64,14.02c-2.54,1.21-4.14,2.18-6.67,2.3,1.99-1.7,3.92-2.43,6.61-3.43l.06,1.13Z"/>
      <path class="cls-1" d="M35.83,8.26c1.27.52-1.91,6.08-2.7,7.1.01-2.67,1.2-4.93,2.7-7.1Z"/>
      <path class="cls-1" d="M43.1,5.1c-2.06,1.61-4.12,2.68-6.66,2.99,1.39-2.25,4.24-2.58,6.66-2.99Z"/>
      <path class="cls-1" d="M41.92,12.68l-.47.09c-1.45.29,1.83-6.21,2.48-6.67-.1,2.39-1.1,4.41-2.01,6.58Z"/>
    </g>
  </g>
</svg>