<?xml version="1.0" encoding="UTF-8"?>
<svg id="Warstwa_2" data-name="Warstwa 2" xmlns="http://www.w3.org/2000/svg" viewBox="0 0 37.57 38.63">
  <defs>
    <style>
      .cls-1 {
        fill: #fff;
      }
    </style>
  </defs>
  <g id="game-icon-v7-magic-pixarts-store">
    <g id="game-icon-v7-magic-pixarts-store_146">
      <path class="cls-1" d="M15.89,29.4c1.96-.66,2.21-3.37,3.38-4.93,8.07-3.33,5.6-4.49,11.52-10.22.76,5.73-.81,5.82-.17,9.08.45,2.28.62,4.56.83,7.12-8.71,1.21-17.12,1.26-25.81.02l.81-10.55c.02-.32,1-1.02.9-1.31-.12-.36-.78-1.15-.81-1.59l-.71-8.82c6.25-.78,12.16-1.03,18.35-.66l-3.54,3.68c-2.32-.34-4.81-.64-7.48.3,2.64.46,4.61.24,7,.17l-1.45,2.21-9.13.25c-.01.06.8.84,1.08.83l7.39-.16c-1.22,2.98-1.38,5.54-1.2,8.46.11,1.85-1.54,3.71-.97,6.13ZM15.84,17.18l-6.79.02c-2.39,1.32,9.44.81,6.79-.02ZM9.61,20.22v.88h5.72v-.88h-5.72ZM9.27,23.77c2.16.53,3.87.43,6.12.37,1.15-1.12-6.57-1.14-6.12-.37ZM26.11,26.77l-3.96-.28c-1.26-.09-2.49.05-2.8,1.12,3.45-1.18,3.85,1.11,6.76-.84Z"/>
      <path class="cls-1" d="M32.15,38.55c-9.07-1.02-17.79-1.23-26.95.07-1.49-1.98-1.57-4.71-.37-7.05,9.21,1.17,17.97,1.16,27.33-.06,1.07,2.12.99,4.34-.01,7.04Z"/>
      <path class="cls-1" d="M32.72,2.6l-7.34,3.77c-6.93-.23-13.55-.04-20.55.7-.86-2.25-.89-4.72.17-7.07,9.02,1.24,17.93,1.12,26.85.12.6.11,1.35,2.13.87,2.48Z"/>
      <path class="cls-1" d="M19.69,22.82c1.61-5.78,5.91-9.52,9.73-14.16-5.38,3.56-9.07,8.89-11.21,14.63-1.08-2.23-.69-4.01.59-6.56l.56.56c.61-2.56,1.44-4.49,3.04-6.18l.37,2.52c.69-3.84,2.61-5.97,5.83-7.59l4.86-2.44c1.34-.67,2.49-1.07,4.07-1.82.28,3.27-1.53,6.85-5.1,7.17l1.59.6c-.45.46-1.35,1.46-1.85,1.66l-4.65,1.83,2.35.4-3.8,4.39-3.72,1.77h2.57c-1.51,1.58-2.71,2.78-5.24,3.22Z"/>
      <path class="cls-1" d="M1.81,4.8l-1.17-.25c-2.21-.48,1.89-2.38,2.73-4.02l-.09,6.25-1.47-1.98Z"/>
      <path class="cls-1" d="M35.52,36l-1.88,2.15v-6.46s1.56,2.02,1.56,2.02l1.16.86c.32.24-.57,1.11-.85,1.43Z"/>
      <path class="cls-1" d="M1.79,36.04l-1.13-.31c-.29-.08-.51-1.03-.27-1.2l1.16-.78,1.75-1.99-.19,6.17-1.31-1.9Z"/>
    </g>
  </g>
</svg>