<?xml version="1.0" encoding="UTF-8"?>
<svg id="Warstwa_2" data-name="Warstwa 2" xmlns="http://www.w3.org/2000/svg" viewBox="0 0 37.57 38.38">
  <defs>
    <style>
      .cls-1 {
        fill: #fff;
      }
    </style>
  </defs>
  <g id="game-icon-v7-magic-pixarts-store">
    <g id="game-icon-v7-magic-pixarts-store_270">
      <path class="cls-1" d="M2.59,12.66l.84,1.56-1.32,2.61,2.73-.73,3.84,4.24c1.56,1.72,2.54,3.66,3.87,5.67l-2.4,2.08,3.57-.25,2.78,3.25c.73-.6,1.28-1.11,1.72-1.68-1.34-1.48-2.4-2.78-3.45-4.31l1.76-2.87-2.67,1.16c-1.22-1.7-2.26-3.56-3.74-5.19-1.64-1.81-3.04-3.31-4.54-5.26l2.64-1.89-3.55-.1c-.77-1.32-.73-3.02.11-4.36l1.38,1.74.17-3.05c1.58-.63,2.89-.56,4.48.05l-1.25,2.05,3.2-1.01c1.31.55,2.37,1.53,3.46,2.59.4-.37,1.28-1.16,1.39-1.69-.01-.55-.09-1.31-.06-1.86l.11-1.99-2.1,1.7c-3.32-2.74-7.75-3.79-11.3-1.69-1.47-.54-2.89-.87-4.27-.97l2.87,2.59c-1.57,2.36-1.61,5.17-.28,7.62Z"/>
      <path class="cls-1" d="M20.37,32.06l2.65-2.66,2.17,1.59-.52-2.38c-.1-.47-.03-1.01.27-1.37l4.01-4.62-1.78-1.67-2.78,3.11-3.6-.23,2.04,2.05c-2.53,2.93-6.58,7.55-10.42,8.25l-1.94-2.15.08,2.84c-2.07.45-4.06-.38-5.53-1.91l1.85-2.61-2.66.67c-.38-2.01.37-4.05,1.57-5.55l2.38.49c-.48-.76-.98-1.52-1.12-2.19l1.64-1.86-1.33-1.86-1.84,1.46-2.21-1.38.78,3.11c-2.57,3.55-3.85,8.81-.25,12.11l-1.39,2.95,3.11-1.77c3.65,1.63,5.34,1.02,8.96-.21l1.03,2.1.96-3.04,3.89-3.28Z"/>
      <path class="cls-1" d="M14.41,13.25l-2.19-1.73.75,3.49c-.74.84-1.58,1.6-2.43,2.37l1.56,1.79c4.98-3.3,5.94-8.52,10.9-12.19l1.56,2.45.47-3.75c2.04-1.04,5.93-1.85,7.38.58l-2.78,1.04,3.51.84c.45,1.43.12,3.13-.45,4.59l-2.32-1.81,1.28,4.1-1.6,2.66c.54.6,1.22,1.21,1.79,1.59.25-.41.76-1.07,1.02-.95l2.31.99-1.38-2.76c.82-1.8,1.61-3.47,1.92-5.37.45-2.73-.2-5.54-2.17-7.46-1.47-1.43-3.47-1.58-5.45-1.69-.82-.69-1.69-1.47-2.6-2.05l.56,2.63c-5.29,1.81-8.57,6.18-11.61,10.62Z"/>
      <path class="cls-1" d="M30.08,19.1l-3.83-3.05,1.59-2.62-3.32,1.11-3.87-4.07c-.49.61-.99,1.3-1.4,1.98l1.82,2.21-.51,3.12,1.94-1.72c.94.81,1.91,1.64,2.91,2.42l2.6,2.04c2.66,2.08,5.41,5.09,5.53,8.78l-2.77-1.18,1.68,2.84c.1.17.55.37.53.55-.14,1.75-2.69,2.77-4.52,2.6l.34-2.7c-1.09.83-1.85,2.37-3.18,2.27-1.42-.11-2.64-.93-4.1-1.51l-1.56,1.67c.45.36.78.62.88.86l-.32,2.49,1.93-1.7c3.72,1.41,7.26,2,10.8-.17l2.51,1.55-1.16-2.84c1.86-2.69,1.76-4.93.84-8.11l2.14-2.36c-.99.12-1.83.29-2.86.53-1.28-1.84-2.86-3.54-4.64-4.95Z"/>
    </g>
  </g>
</svg>