<?xml version="1.0" encoding="UTF-8"?>
<svg id="Warstwa_2" data-name="Warstwa 2" xmlns="http://www.w3.org/2000/svg" viewBox="0 0 47.67 47.14">
  <defs>
    <style>
      .cls-1 {
        fill: #fff;
      }
    </style>
  </defs>
  <g id="game-icon-v7-magic-pixarts-store">
    <g id="game-icon-v7-magic-pixarts-store_267">
      <path class="cls-1" d="M24.44,13.73s0,0,0,0c-.35.18-.28.15,0,0Z"/>
      <path class="cls-1" d="M31.41,29.38l-1.03,1.56c1.46-.41,3.55-4.9,3.6-5.94.24-4.22-2.59-8.27-6.8-9.18-4.67-1.01-9.19,2.46-9.56,7.32-.17,2.27,1.1,4.1,2.86,5.31,2.34,1.62,5.18,1.43,7.3-.42,1.79-1.56,2.3-3.83,1.25-6.03-.66-1.38-2.02-2.32-3.53-2.26-1.37.05-2.99.66-3.52,2.17-.28.81-.13,1.72.26,2.33.7,1.09,2.45,1.26,2.98.51.14-.2.16-.78.11-.9-.65.26-1.07.43-1.44.28-.31-.12-.7-.85-.62-1.22.27-1.24,1.88-1.85,2.93-1.23,1.22.73,1.48,2.29,1,3.48-.49,1.21-1.6,1.93-3.08,1.9-1.69-.03-3.14-1.05-3.8-2.44-.68-1.43-.56-3.15.43-4.52,1.68-2.33,5.04-2.97,7.56-1.58,1.91,1.05,2.97,3.07,3.15,4.95.22,2.28-.66,4.29-2.31,5.76-1.96,1.75-4.49,2.47-7.21,1.87-3.32-.73-6.11-4.34-6.08-7.41.06-5.26,4.05-9.37,9.35-9.53-.17-.13-.35-.22-.79-.43-.28.15-.35.18,0,0,0,0,0,0,0,0,.09-.05.2-.1.32-.17-.72-.16-1.86.12-2.61.08l-1.23-.06c-5.83,1.33-9.23,8.31-6.58,13.38.42.81.71,1.37,1.04,2.23.88,2.32,3.95,3.95,6.37,4.1,3.52.21,7.56-1.61,9.66-3.9Z"/>
      <path class="cls-1" d="M36.16,33.32c-2.49-.78-1.72-2.04-2.93-2.72l-1.9,2.12c1.63,4.3,5.13,1.02,6.19,4.65.46,1.58,1.86,2.6,3.53,2.57-3.75-2.13-.83-5.02-4.89-6.61Z"/>
      <path class="cls-1" d="M14.18,16.21l1.24-1.34c.18-.2.72-.49.95-.63-.45-1.66-1.89-2.73-3.61-2.78-3.66-.12-1.36-4.46-5.96-4.52,3.09,1.26,1.13,5.64,4.81,6.67,1.31.36,2,1.09,2.57,2.61Z"/>
      <path class="cls-1" d="M15.39,31.84c-.16-.33-.66-1.07-1-.98-1.71.49-2.48,2.02-2.62,3.59-.31,3.56-4.39,1.35-4.61,5.72,1.84-2.94,5.69-1.09,6.62-4.53.39-1.46,1.34-2.17,2.83-2.83l-1.21-.97Z"/>
      <path class="cls-1" d="M25.24,11.54c.75-1.34.46-3.16-.63-4.29-2.39-2.49,1.86-4.2-.87-7.25.6,4.12-3.24,3.87-1.37,8.01.83,1.74.18,1.96-.09,3.46-.05.27,1.99-.25,2.95.08Z"/>
      <path class="cls-1" d="M9.11,24.59c.77-.41,1.83.27,2.68.4l-.09-1.16c.03-.58.18-1.37.04-1.86-1.54-.65-3.11-.26-4.27.78-2.62,2.33-3.72-1.97-7.47.79,4.48-.83,4.23,3.68,9.11,1.06Z"/>
      <path class="cls-1" d="M25.35,38.98c-.7-1.24-.55-2.48.08-3.74l-2.93-.1c-1.8,4.11,2.63,4.59.98,7.62-.81,1.49-.72,3.19.55,4.38-1.15-3.56,3.14-4.93,1.32-8.16Z"/>
      <path class="cls-1" d="M43.97,22.38c-1.62-1.42-3.46-1.43-5.24-.27-.77.5-2.04-.13-2.96-.42l.06,2.89c3.94,1.99,4.6-2.71,7.36-1.07,1.49.89,3.13.69,4.48-.39-1.41.24-2.72.13-3.7-.74Z"/>
      <path class="cls-1" d="M37.71,9.93c1.64-.45,2.88-1.74,2.77-3.46-2.14,3.55-5.59.56-6.98,5.52-.26.93-1.46,1.35-2.23,1.89l2.02,1.98c4.28-1.79.98-4.97,4.42-5.92Z"/>
      <path class="cls-1" d="M40.55,16.45l1.8-.44c-2.01-1.01-3.73-.52-5.24.91-.63.6-1.94.39-2.9.53l1.01,2.26c3.75.64,3.1-2.72,5.33-3.26Z"/>
      <path class="cls-1" d="M31.92,5.05c-2.15.69-3.1,2.27-3.11,4.41,0,.84-1.02,1.57-1.55,2.38l2.18.97c2.94-2.68.17-4.23,1.62-6.44l.87-1.32Z"/>
      <path class="cls-1" d="M38.25,28.25c-1.15-.04-1.83-.9-2.89-1.76l-.72,2.44c2.78,3.12,4.47-.82,7.41,2.52-.28-1.88-1.78-3.14-3.79-3.21Z"/>
      <path class="cls-1" d="M30.2,36.71c-.41-.7-.5-1.98-.68-2.93l-2.02,1.08c-.26,4.32,3.4,2.39,3.66,7.1,1.09-2.01.58-3.84-.95-5.25Z"/>
      <path class="cls-1" d="M18.52,34.01c-1.56.58-1.94,2.41-1.49,3.9.42,1.41-.32,2.46-1.27,3.77,2.03-.63,3.27-2.33,3.06-4.73l1.62-2.09-1.92-.85Z"/>
      <path class="cls-1" d="M5.56,15.42c.51,2.08,2.28,3.07,4.35,3.17.9.04,1.57,1.09,2.41,1.63l.76-2.39c-3.27-3-3.83.68-7.52-2.41Z"/>
      <path class="cls-1" d="M10.62,29.59l2.64-.46-.87-1.94c-3.9-1.14-2.69,3.45-7.12,3.48,1.86,1.02,3.96.65,5.35-1.08Z"/>
      <path class="cls-1" d="M18.08,13.02l2.09-1.16c.2-4.16-3.27-2.29-3.65-7.11-1.08,1.82-.56,3.77.9,5.23.71.71.29,2.11.66,3.03Z"/>
    </g>
  </g>
</svg>