<?xml version="1.0" encoding="UTF-8"?>
<svg id="Warstwa_2" data-name="Warstwa 2" xmlns="http://www.w3.org/2000/svg" viewBox="0 0 48.77 49.93">
  <defs>
    <style>
      .cls-1 {
        fill: #fff;
      }
    </style>
  </defs>
  <g id="game-icon-v7-magic-pixarts-store">
    <g id="game-icon-v7-magic-pixarts-store_248">
      <path class="cls-1" d="M39.06,16.67c3.72-1.01,2.93.34,7.31.11-1.6,2.76-4.88,4.51-8.2,3.82l-3.79-.79,2.81-1.97c-1.83.04-3.11,1.36-4.76,1.94-1.02.36-3.1-1.95-2.73-2.98.61-1.68,2.19-2.76,1.77-4.8l-1.79,2.74c-2.07-6.53-.98-9.58,4.17-13.15-1.55,4.87.22,3.47-1.44,8.37-1.01-1.1-1.37-2.37-1.55-4.12-.94,1.08-1.08,3,.13,4.13l2.02,1.9c0,1.45-.14,3.14-.33,4.82,1.91-.6,3.79-.82,5.53-.37v1.23c1.37,1.39,3.47,1.81,5.09.7-1.8-.2-3.18.17-4.22-1.6Z"/>
      <path class="cls-1" d="M6.52,45.18c-.43,1.71-3.04,3.39-4.11,2.18-1.19-1.35.77-3.35,2.51-3.86-1.7-1.6-3.07.47-4.68,1.54-.04-3.71,2.34-3.41,5.38-4.47,1.16,1.62,2.03,2.56,3.53,3.86l-.9,3.67c-.2.8-2.21,1.47-2.82,1.36.92-1.53,2.34-2.9,1.1-4.29Z"/>
      <path class="cls-1" d="M45.08,9.39c-.98-1.8-.88-3.37-.27-5.14-2.02.49-3.88.52-5.77.12L48.77.13c-.47,2.45-2.52,6.83-3.69,9.26Z"/>
      <path class="cls-1" d="M33.08,21.76c.4.26-.23,1.6-.65,1.77s-1.5.18-1.95-.15c-1.56-1.18-5.88-4.73-4.48-6.6.27-.36,1.01-.62,1.68-.73,1.1,2.49,2.94,4.34,5.4,5.72Z"/>
      <path class="cls-1" d="M35.87,13.12l3.97.04,1.16.02c.26,0,.39.75.33,1-.07.32-.79.83-1.11.83l-5.84-.1-.29-5.98,2.23-2.68c1.89-.54,4.16-.58,6.23-.21,1.02,2.4,1.46,5.5-.65,7.73-.43-2.17-.49-3.97-.36-6.28l-6.14.4c.52,1.77.8,3.57.49,5.23Z"/>
      <path class="cls-1" d="M23.68,29.29l-7.27.19c3.87-4.11,4.17-2.72,9.9-2.65l-2.63,2.46Z"/>
      <path class="cls-1" d="M20.33,32.76h-6.91c.56-.82,1.85-2.41,2.8-2.44l6.92-.22-2.82,2.66Z"/>
      <path class="cls-1" d="M14.89,36.17l-4.61.04c.5-.93,1.76-2.59,2.94-2.56l5.72.18c-.85,1.98-2.25,2.33-4.06,2.35Z"/>
      <path class="cls-1" d="M12.3,40.82c-1.79.27-3.06-1.86-3.42-3.41,2.45-.4,4.62-.41,7.22-.24-1.13,1.27-2.42,2.65-3.8,3.66Z"/>
      <polygon class="cls-1" points="40.73 12.44 36.45 12.44 36.65 8.5 40.5 8.28 40.73 12.44"/>
      <path class="cls-1" d="M7.57,38.03c2.39,4.15,5.65,4.45,4.33,5.46-2.33,1.78-6.53-3.4-5.65-5.32.14-.3,1.15-.42,1.32-.14Z"/>
      <path class="cls-1" d="M26.72,25.92l-6.66.02c2.52-3.45,5.09-2.73,8.84-1.45l-2.18,1.43Z"/>
      <path class="cls-1" d="M4.52,48.64c-.46,1.1-3.18,1.82-4.08.78s-.28-3.33.56-3.9c.28.71.63,1.65.89,2.12.29.52,1.54.67,2.63,1.01Z"/>
      <path class="cls-1" d="M45.66,10.91l-1.28,2.29c-.11-.27.1-2.3.68-2.75l3.68-2.81c.24,2.31-1.49,3.89-3.13,5l.05-1.75Z"/>
      <path class="cls-1" d="M40.11,3l-2.59,1.01C37.75,1.65,39.98-.1,41.96,0l-1.85,3Z"/>
      <path class="cls-1" d="M36.56,4.42l-2.19,1.15.02-1.24c0-.29.7-.23,1.05-.27-.26-.61-.58-1.66-.26-2.06.45-.56,1.3-1.16,2.13-1.57l-.75,4Z"/>
      <polygon class="cls-1" points="28.21 22.93 23.13 22.72 25.36 19.88 28.21 22.93"/>
      <path class="cls-1" d="M48.02,12.87c.71-.23-.52,3.09-4.56,2.28,1.1-1.18,2.35-1.58,3.78-2.03l.78-.25Z"/>
    </g>
  </g>
</svg>