<?xml version="1.0" encoding="UTF-8"?>
<svg id="Warstwa_2" data-name="Warstwa 2" xmlns="http://www.w3.org/2000/svg" viewBox="0 0 34.96 49.16">
  <defs>
    <style>
      .cls-1 {
        fill: #fff;
      }
    </style>
  </defs>
  <g id="game-icon-v7-magic-pixarts-store">
    <g id="game-icon-v7-magic-pixarts-store_84">
      <path class="cls-1" d="M16.61,38.7c4.7-9.3,3.46-9.15,4.19-19.1l-4.94-8-3.62,8.12,2.16,15.44c.2,1.46,1.04,2.8,2.2,3.54Z"/>
      <path class="cls-1" d="M11.75,19.76l2.79-6.71-1.43-.3c1.27-.66,2.6-1.71,2.8-3.24.43-3.24.78-6.19.86-9.45L7.49,14.33l4.24-.97-4.46,2.18,4.48,4.23Z"/>
      <path class="cls-1" d="M21.24,24.85c-.13,2.02-.67,4.36-.09,6.34.75,2.58,1.8,4.83,3.14,7.18l2.81-21.57c-1.06.31-1.76.55-2.52.51-3.62-.2-3.17,5.16-3.33,7.54ZM23.15,27.91c.37-.63.91-.81.62.08l-.75,5.59c-.31-1.96-.14-3.62.13-5.68Z"/>
      <path class="cls-1" d="M11.44,41.13c1.04-.77,2.66-2.33,2.5-3.57l-1.84-14.58c-.2-1.61-.79-3.09-2.2-3.87l.91,7.25c-1.39-1.85-.77-9.88-3.95-9.74l4.59,24.51Z"/>
      <path class="cls-1" d="M17.68,0l-1.23,10.96,4.78,7.62c1.28-1.11,1.85-2.57,1.43-4.47l.37-5.65L17.68,0Z"/>
      <path class="cls-1" d="M23.88,39.37l-3.4-7.34c-4.23,9.47-3.43,5.86-2.08,16.79l5.48-9.44Z"/>
      <path class="cls-1" d="M4.76,38.04c.12-2.19-1.77-3.99-1.03-6.03l1.13-3.11-3.58-3.05c-2.71,5.41-.91,8.61,3.48,12.19Z"/>
      <path class="cls-1" d="M31.93,6.08c-.62-1.7-1.85-3.4-2.91-4.93-2.97,4.37-2.4,5.4.01,9.88.22-1.68-.32-3.28-1.24-4.87,2.07,1.11,1.64,3.14,2.27,5.36.65-1.59,2.1-3.67,1.87-5.44Z"/>
      <path class="cls-1" d="M17.53,49.16l-.69-6.56c-.03-1.92-.89-3.71-2.39-4.84l-2.3,4.37,5.38,7.02Z"/>
      <path class="cls-1" d="M26.94,15.45l-3.34-6.01c-.63,2.53-.44,4.56.03,7.09,1.21.08,2.67-.24,3.31-1.09Z"/>
      <path class="cls-1" d="M34.08,18.56c-.69,2.26-1.22,4.02-2.16,5.92.68-2.5,1.4-4.45,1.54-7.11-3.16.75-3.83,7.4-2.35,8.45l.11,1.3,3.73-5.27-.87-3.29Z"/>
      <path class="cls-1" d="M5.36,29.62c-1.96,2.73-.84,5.51.52,8.24.37-2.68.6-5.4-.52-8.24Z"/>
      <path class="cls-1" d="M26.11,44.9c.69-.35,1.54-1.14,1.4-1.64-.17-.59-.57-1.48-.84-1.84-1.04,1.03-1.33,2.35-.56,3.48Z"/>
      <path class="cls-1" d="M2.43,12.07c-.19.34-.51,1.15-.62,1.69-.09.42.63,1.16,1.07,1.38.78-1.21.65-2.21-.45-3.07Z"/>
    </g>
  </g>
</svg>