<?xml version="1.0" encoding="UTF-8"?>
<svg id="Warstwa_2" data-name="Warstwa 2" xmlns="http://www.w3.org/2000/svg" viewBox="0 0 29.86 43.22">
  <defs>
    <style>
      .cls-1 {
        fill: #fff;
      }
    </style>
  </defs>
  <g id="game-icon-v7-magic-pixarts-store">
    <g id="game-icon-v7-magic-pixarts-store_182">
      <path class="cls-1" d="M19.12,23.88c-5.61,2.18-13.74-.43-15.41-7.36-.88-3.65-2.96-3.74-3.18-6.16l3.87,1.56c3.2,1.29.74,4.24,3.64,4.67l-1.27-3.79c-.77-2.3-7.49-1.41-6.56-6.1,2.88,1.45,5.91,2.83,9.23,2.42C7.42,8.49.09,7.78,0,4.52c-.16-5.85,29.6-6.2,29.86.02.15,3.68-10.45,4.46-12.71,4.97,4.34.42,8.45-.8,12.45-2.71.59,1.74-.68,3.23-2.44,3.78-4.43,1.39-3.11,1.74-5.34,6.32,2.42-.38,1.84-4.09,3.46-4.73l4.03-1.59c-5.55,7.9-2.08,10.16-10.18,13.31ZM27.66,4.62c-.04-.88-1.46-1.95-2.43-2.22-6.54-1.78-13.29-1.75-19.89-.16-.97.23-2.86,1.11-2.94,2.04-.37,4.16,23.28,4.6,25.26.34ZM16.49,13.79c1.21,1.52,2.2,3.05,3.14,4.42-.14-2.33-2.22-6.16-4.85-6-2.71.16-4.42,3.96-4.49,5.98.95-1.53,1.83-3.01,2.87-4.39.65-.86,2.55-.98,3.33,0ZM16.61,20.88c1.48-2.44.4-5.22-1.81-6.28-2.11,1.42-2.63,4.14-1.43,6.26.24.42,1.12.97,1.56,1.01s1.41-.53,1.68-.98Z"/>
      <path class="cls-1" d="M19.16,37.66c-2.87,1.2-6,.79-8.71-.58l1.66-2.98c.9-1.61.98-3.83.3-5.36l5.35.03c-2.29,4.88,1.31,6.08,1.41,8.9Z"/>
      <path class="cls-1" d="M19.65,35.45c1.3.17,3.5.87,4.81,1.71.5,4.61-17.84,4.91-19.01.57-.07-.26.47-.96.76-1.07l3.9-1.33-.19,2.39c3.14,1.71,6.91,1.65,10.07,0l-.33-2.26Z"/>
      <path class="cls-1" d="M25.59,38.22c.83,1.45-.29,2.8-1.63,3.32-5.73,2.21-12.38,2.27-18.05-.05-1.36-.56-2.38-1.88-1.63-3.27,1.18,1.01,2.45,2.11,3.97,2.47,4.52,1.08,13.81,1.66,17.34-2.48Z"/>
      <path class="cls-1" d="M19.6,24.69c.24,3.36-4.88,3.84-7.79,2.53-1.06-.48-1.73-1.52-1.62-2.65,3.28,1.27,5.98,1.22,9.41.12Z"/>
      <path class="cls-1" d="M3.21,18.33c-1.9-.54-3.01-2.66-2.44-4.87,1.3,1.13,2.06,2.58,2.44,4.87Z"/>
      <path class="cls-1" d="M26.51,18.24c.6-1.81,1.28-3.31,2.27-5.04.83,1.86.39,4.3-2.27,5.04Z"/>
      <path class="cls-1" d="M24.66,5.32c-6.16,2.14-13.2,1.91-19.6-.03,6.45-2.01,12.94-2.29,19.6.03Z"/>
      <path class="cls-1" d="M16.09,20.18c-.11.26-.91.93-1.17.85s-.85-.5-1.02-.76c-.84-1.29-.4-3.46.95-4.66,1.29.91,1.93,2.91,1.24,4.57Z"/>
    </g>
  </g>
</svg>