<?xml version="1.0" encoding="UTF-8"?>
<svg id="Warstwa_2" data-name="Warstwa 2" xmlns="http://www.w3.org/2000/svg" viewBox="0 0 44.92 36.96">
  <defs>
    <style>
      .cls-1 {
        fill: #fff;
      }
    </style>
  </defs>
  <g id="game-icon-v7-magic-pixarts-store">
    <g id="game-icon-v7-magic-pixarts-store_33">
      <path class="cls-1" d="M42.52,22.64c-.35-.08-1.11.15-1.12.42v.9c-.51-.97-1.28-1.42-2.31-.93,1.42,2.27,1.6,4.91-.13,7.04-1.78,2.18-4.24,3.95-7,4.72-4.47,1.25-9.15,1.47-13.61.29,2.16.23,13.82.74,13.39-2.18l-1.9.03c2.73-1.14,5.46-1.45,7.27-3.62-2.43,1.45-4.75,2.54-7.65,2.71,2.13-.87,8.23-2.83,8.79-5.84l-2.05,1.77c-3.01,2.6-6.92,3.23-10.78,3.41-6.69.31-13.11-1.53-18.35-5.9-.87-.72-1.5-2.08-2.4-3.07.12.53.48,1.62.86,2.05l3.65,4.17c-1.43-.83-2.46-1.88-3.95-3.12l3.14,4.07-3.1-2.67c2.91,4.92,7.93,6.33,13.03,8.19-4.81-.58-9.52-2.56-12.88-6.18-3.39-3.66-2.93-8.98.96-11.95,2.59-1.97,5.48-2.72,8.67-2.98-.45-.68-1.09-.54-1.81-.47l1.27-.98c-2.1.29-3.59.76-5.49,1.33,1.73-1.14,4.33-1.1,4.89-2.38.38-.87-6.21.79-9.26,3.75-2.2,2.14-4.04,4.63-4,7.96.05,3.82,3.29,7.39,6.93,9.43,7.71,4.33,17.06,5.5,25.56,3.18,3.64-.99,7.06-2.9,8.88-6.1,1.19-2.09.88-4.95.49-7.05Z"/>
      <path class="cls-1" d="M.11,21.53c2.38-7.44,7.15-9.35,13.89-11.55-.86-.19-1.61-.09-2.33-.04l1.03-.81-2.17.3,3.2-1.77c-1.8,0-3.04.67-4.59,1.26l5.02-3.11C6.97,6.83-1.06,13.78.11,21.53Z"/>
      <path class="cls-1" d="M34.59,3.23c-1.39.28-3.13,1.34-4.02,2.35,1.38,5.05.31,2.9,3.79,5.98l4.83-1.38-.78-4.14c-1.17-.97-2.55-1.99-3.82-2.81Z"/>
      <path class="cls-1" d="M31.57,11.8l2.01.23-4.18,2c1.94,1.42,4.03,2.4,6.67,1.88-1.81-3.58-2.3-5.43-5.95-6.78.23-.27.7-.94.53-1.25l-.64-1.13-2.45,3.36c.02-.56.36-.88.88-1.6l-1.13-.33c1.25-.25,2.22-1,2.51-2.42-.5-.59-1.36-1.42-2.12-2.1-1.24,1.93-1.54,4.56-.67,6.62.88-.07,2.21-.11,2.52.45.47.86.11,1.66-.23,2.94l2.27-1.86Z"/>
      <path class="cls-1" d="M19.85,7.76c.89-.17,2.05-.79,2.65-1.12-.02-1.95-1.24-2.83-3.1-3.35-.72.82-1.46,1.7-2.09,2.63.35.66,1.79,1.99,2.53,1.85Z"/>
      <path class="cls-1" d="M25.27,13.29h.12s.06-.08.06-.08l.04.07,1.24-.06c-.56,1.31-1.04,2.49-2.4,3.06l1.61-2.24-.44-.76h-.1s-1.58,1.84-1.58,1.84c-.25.29-.34,1.04-.22,1.38.11.34,1.11.83,1.47.66,1.29-1.62,2.97-3.95,4.09-5.8-2.01-.84-3.14.66-3.87,1.93Z"/>
      <polygon class="cls-1" points="25.45 13.22 25.39 13.29 25.49 13.28 25.45 13.22"/>
      <path class="cls-1" d="M16.4,8.72c-.09-.04-.79.06-1.07.18-1.07.47-.15,4.23,1.1,4.95,1.68.98,3.72,1.25,5.44.88-1.05-.91-1.8-.92-2.83-1.08-1.11-.06-2.37-.59-2.78-1.8-.24-.71-.03-1.82.14-3.13Z"/>
      <path class="cls-1" d="M38.88,6.02c.11,1.64.41,3.15,1.12,4.38l-.88.24-1.25,2.93,1.15.19c1.36.22,2.86-7.59-.14-7.74Z"/>
      <path class="cls-1" d="M39.24,15.12c-.27-.28-.98-.6-1.4-.7-.22.93-.36,2.15-.75,2.65l-3.75,3.04c1.59.69,7.43-3.43,5.9-4.98Z"/>
      <path class="cls-1" d="M43.55,13.23c-.39-.19-1.37.33-1.48.75-.13.53.3,2.59,1.27,3.04.33.16.99-.18,1.35-.47.69-.56-.27-2.91-1.13-3.32Z"/>
      <path class="cls-1" d="M28.06,14.75l.76,1.34-1.59-.74c1.24,2.26,6.94,3.72,8.85,1.8-3.02.3-5.23-.6-8.02-2.4Z"/>
      <path class="cls-1" d="M37.85,20.13l-1.41-.06c2.11,3.44,5.86,1.79,7.99.68l-.02-1.71c-1.41,2.28-5.16,2.89-6.56,1.1Z"/>
      <path class="cls-1" d="M28.09,3.25c2.08,1,4.31.38,6.11-.82-.42-.83-2.21-1.52-2.7-.96-2.23,2.55-.69.2-3.41,1.78Z"/>
      <path class="cls-1" d="M25.81,17.9c1.63,1.12,6.39,3.35,7.29,1.36-2.49-.37-4.31-.93-6.58-2.4l-.72,1.04Z"/>
      <polygon class="cls-1" points="34.66 11.97 36.52 15.3 38.59 10.99 34.66 11.97"/>
      <path class="cls-1" d="M30.37.58c-.14-.27-.85-.57-1.27-.58-1.23-.04-2.04,1.22-2.62,2.27-1.66,3.02-2.64,6.22-1.52,9.73.25-.2.63-.89.56-1.21-.65-3.01,0-6.22,1.99-9,.47-.66,1.86-.27,2.93-.02.06-.21.08-.91-.06-1.19Z"/>
      <path class="cls-1" d="M15.98,6.94c.4.91,1.24,1.81,2.34,2.03l-.58.96c1.27.37,2.46.92,3.63.08-.33-.9-1.84-.98-2.44-1.1-.36-1.56-2.45-2.1-2.2-2.66l.39-.85c.17-.38.33-.97.39-1.34-.83.64-1.88,2.09-1.53,2.88Z"/>
      <path class="cls-1" d="M34.03,1.94l4.82,3.67c-.44-2.42-2.6-3.65-4.82-3.67Z"/>
      <path class="cls-1" d="M22.09,9.92l.33.99c.85,2.56-1.35,3.09.31,4.1-.1-3.13,1.45-2.32.55-5.42-.08-.29-1.29.05-1.19.34Z"/>
      <path class="cls-1" d="M21.65,11.86c-.15-.06-.66-.27-.83-.29l-3.89-.38c.43,2.29,6.18,1.2,4.72.67Z"/>
      <path class="cls-1" d="M20.63,8.42c-.11.27.65.72.9.64l.95-.31,1.14-.39c.2-.07,0-1.02-.2-1.09-.71-.25-2.47.35-2.8,1.15Z"/>
      <path class="cls-1" d="M43.57,26.74c.84-1.68.81-2.98.76-4.72-.25-.07-1.04.44-1.02.79l.26,3.93Z"/>
      <path class="cls-1" d="M42.55,17.36c-.49.1-.98.25-1.72.48.3.49.97,1.23,1.5,1.56.29.18,1-.75,1.08-1.09.08-.34-.53-1.02-.86-.95Z"/>
    </g>
  </g>
</svg>