<?xml version="1.0" encoding="UTF-8"?>
<svg id="Warstwa_2" data-name="Warstwa 2" xmlns="http://www.w3.org/2000/svg" viewBox="0 0 37.6 47.89">
  <defs>
    <style>
      .cls-1 {
        fill: #fff;
      }
    </style>
  </defs>
  <g id="game-icon-v7-magic-pixarts-store">
    <g id="game-icon-v7-magic-pixarts-store_141">
      <path class="cls-1" d="M31,5.09c-1.55.56-3.94,1.54-4.9,2.65l-3.37,3.9-1.91,2.89c-3.3,5-6.14,9.74-8.83,15.07.98-5.71,4.45-9.75,7.22-14.75-3.23,2.42-4.38,5.93-6.64,9.49-.27-3.08.48-5.86,2.14-8.96l.82,2.53c-.08-3.86,1.03-6.24,3.71-8.28,2.4-1.82,4.08-4.9,7.34-6.59l.59,1.34c1.1-3.47,7.2-6.08,10.05-3.05,1.62,2.74-2.15,6.42-4.54,6.99l1.37.71c-1.98,2.03-4.16,2.3-7.25,3.03l3.74.5c-1.65,1.8-3.62,2.61-6.29,3.13l2.12.62c-1.41,2.73-4.17,4.05-7.29,4.5l3.01.44c-2.03,2.01-4.06,3.97-7.28,4.35,3.76-8.14,9.6-14.74,16.21-20.54Z"/>
      <path class="cls-1" d="M22.31,44.98c-9.82,3.73-12.77,4.1-22.31-.23.62-3.46.98-7.1,2.92-9.77.64-.88,3.29-1.03,3.13-2.64,3.35.41,6.17.41,9.57-.03l1.07,1.62c2.4.42,3.58,2.05,4.1,4.33l1.51,6.72ZM20.95,44.09l-2.14-6.82c-5.54,1.7-9.9,1.45-15.5-.18-.8,2.28-1.38,4.34-1.94,6.9,9.04,3.76,10.3,3.15,19.57.1Z"/>
      <path class="cls-1" d="M15.26,29.58l-.51-.84c-.1-.16-.5-.68-.34-.69.24-.01,1.06-.09,1.24.07l1.27,1.15c2.46,2.22-9.27,4.04-11.98.88-2.13-2.48,6.91-3.11,6.4-2.34l-5.11,1.39c3.09,1.38,5.89,1.18,9.04.37Z"/>
    </g>
  </g>
</svg>