<?xml version="1.0" encoding="UTF-8"?>
<svg id="Warstwa_2" data-name="Warstwa 2" xmlns="http://www.w3.org/2000/svg" viewBox="0 0 49.94 49.52">
  <defs>
    <style>
      .cls-1 {
        fill: #fff;
      }
    </style>
  </defs>
  <g id="game-icon-v7-magic-pixarts-store">
    <g id="game-icon-v7-magic-pixarts-store_18">
      <path class="cls-1" d="M22.69,22.83c.62.51,1.55,1.12,2.62,1.15.7.02,1.55-.75,2.2-1.34,2.55.05,4.67-1.33,4.89-3.89.19-2.26-1.3-4.3-3.87-4.61.38-2.52-1.54-4.24-3.69-4.2-1.98.04-3.58,1.86-3.29,4.19-2.36.23-3.8,1.91-3.79,4.16,0,3.02,2.27,4.35,4.94,4.54ZM27.26,16.01c.42-.57,2.22-.11,2.87.57.74.77.79,2.07.31,3.08-.47.99-2.14,1.66-3.29.8.15-1.22.22-2.82.11-4.45ZM23.87,12c.53-.41,1.79-.42,2.31-.01.8.62,1.36,2.05-.09,2.97l-2.71-.4c-.43-.66-.18-2.02.5-2.55ZM24.97,16.23l1.74,1.48-1.42,3.16,1.1,1.5-2.8-.05,1.38-1.79-1.82-2.79,1.82-1.53ZM19.64,17.02c.54-.98,2.14-1.52,3.14-1.24-.25,1.84-.18,3.07.05,4.75-.69.48-2.38.32-2.93-.45-.58-.82-.72-2.21-.26-3.06Z"/>
      <path class="cls-1" d="M23.83,29.73l-.07,18.26c0,.7.55,1.42,1.04,1.52.37.08,1.42-.41,1.42-.97l-.02-18.82c-.05-.58-2.31-.58-2.36,0Z"/>
      <path class="cls-1" d="M36.76,12.65c2.14-.4,3.9-3.19,4.25-5.29l-5.31,3.44c-4.07,2.64-.7,5.75-2.71,9.99,3.97-1.57,2.07-7.94,3.77-8.14Z"/>
      <path class="cls-1" d="M13.88,10.48l-5.02-3.26c.59,2.62,2.18,4.3,4.16,5.85l.17-1.1c2.12,2.77-.44,6.35,3.87,8.85-.57-1.95-.86-3.34-.84-4.98.72-2.28-.54-4.18-2.35-5.36Z"/>
      <path class="cls-1" d="M31.69,43.18c.31-.68.49-2.45-.11-2.92-.28-.22-1.5-.03-1.58.3-.1.43-.52,1.26-.86,1.16-1.54-.48-.61-1.84-2.12-1.07-.25.37-.35,6.81.35,6.32.17-.11.55-.39.73-.57l.69-.69c.8-.8,1.07,1.77,2.54,1.36.39-.11.68-.99.7-1.63,0-.27-.42-1.11-.65-.97l-.89.54-2.19-1.17c.33-.31,1.02-.9,1.41-1.13.39-.23,1.3.22,1.98.47Z"/>
      <path class="cls-1" d="M8.03,14.54c-.8-.93-1.44-1.51-2.11-2.12l2.04.46c-.89-1.48-1.49-1.78-2.56-2.5C3.3,8.99,1.68,6.98,0,4.76c-.08,4.49,3.26,8.87,8.02,9.78Z"/>
      <path class="cls-1" d="M42.88,10.61c3.74-2.25,6.32-6.18,5.23-10.61-1.14,2.66-2.67,4.94-4.94,6.82-1.19.98-1.83,2.2-1.94,3.7l1.1-1.26,2.7-2.27c-.53,1.56-2.5,1.67-2.14,3.62Z"/>
      <path class="cls-1" d="M7.22,7.16C4.98,5.32,3.48,3.12,1.91.31c-1.03,4.09,1.47,8.34,5.29,10.08l-1.72-2.93,3.26,2.61c-.1-1.5-.67-2.22-1.52-2.91Z"/>
      <path class="cls-1" d="M44.26,10.71c-.92.63-1.53,1.23-2.25,2.22l2.15-.54c-.84.75-1.41,1.24-2.14,2.16,4.46-1.04,7.89-4.48,7.92-9.21-1.86,2.03-3.51,3.89-5.69,5.38Z"/>
      <path class="cls-1" d="M9.01,18l-2.16-1.36,1.54-.08C5.83,14.21,3.46,14.21.06,11.69c.94,4.02,4.93,6.73,8.95,6.3Z"/>
      <path class="cls-1" d="M49.93,11.84c-2.12,1.2-4.05,2.3-6.2,3.33-.84.4-1.41.86-2.08,1.65l2.29-.21-2.7,1.52c3.93.15,7.64-2.4,8.7-6.29Z"/>
      <path class="cls-1" d="M47.65,18.43l-4.8.54c-.99.11-1.95.56-2.61,1.21l1.63.44-2.39.59c2.9,1.31,6.4-.12,8.17-2.78Z"/>
      <path class="cls-1" d="M11.03,21.18l-3.13-.91,1.3-.37c.29-.08-.62-.74-.88-.77l-5.79-.56c1.86,2.92,5.49,3.78,8.5,2.62Z"/>
      <path class="cls-1" d="M37.39,13.47c-.57.3-.7,1.75-.53,2.28,2.42-1.03,4.61-2.07,5.34-4.82l-4.81,2.54Z"/>
      <path class="cls-1" d="M13.34,15.69c-.03-1.3-.76-2.4-2.09-3.09l-3.3-1.7c.57,2.64,2.83,3.88,5.39,4.78Z"/>
      <path class="cls-1" d="M13.56,23.56l-2.71-.49.98-.88-5.18,1.23c2.45,1.53,4.98,1.53,6.92.14Z"/>
      <path class="cls-1" d="M43.28,23.39l-4.37-1.11c-.57.45-.77.68-.08.86l-2.11.43c2.37,1.5,4.73,1.36,6.57-.17Z"/>
      <path class="cls-1" d="M13.54,17.91c-.09-2.43-3.42-2.5-5.2-2.9,1.02,2.15,3.29,2.98,5.2,2.9Z"/>
      <path class="cls-1" d="M37.11,16.35l-.7,1.78c2.08-.24,4.09-.78,5.17-2.96-1.38.1-3.35.61-4.47,1.18Z"/>
      <path class="cls-1" d="M39.06,26.49c-1.28-1.32-2.89-1.92-4.82-1.71,1.01,1.68,2.85,2.49,4.82,1.71Z"/>
      <path class="cls-1" d="M14.57,19.6c-1.53-1.29-3.33-1.19-5.11-.86,1.18,1.5,3.32,2.15,5.11.86Z"/>
      <path class="cls-1" d="M40.41,18.48l-.81.05c-1.32.08-2.75.35-3.93.82,1.52,2.62,6.13-.95,4.75-.87Z"/>
      <path class="cls-1" d="M26.71,25.92c.22-.16.39-1.03.12-1.08l-1.11-.22c-.96-.19-2.6-.33-2.79.99.65.59,2.86.6,3.78.3Z"/>
      <path class="cls-1" d="M15.7,24.77c-2.13-.42-3.39.58-4.64,1.71,1.85.68,3.91.07,4.64-1.71Z"/>
      <path class="cls-1" d="M27,27.44c-1.16-.8-3.09-.73-4.01.13.86,1.33,3.44,1.5,4.01-.13Z"/>
      <path class="cls-1" d="M38.21,21.81c-1.37-1.07-2.98-1.28-4.24-.42,1.18,1.16,2.87,1.21,4.24.42Z"/>
      <path class="cls-1" d="M16.18,21.51c-1.43-1.28-3.13-.82-4.2.39,1.44.73,2.86.3,4.2-.39Z"/>
      <path class="cls-1" d="M35.14,27.77c-.41-.78-1-1.63-1.48-2.2-.62.23-.66.29-.83.24l-1.09-.33c.7,1.38,1.65,2.26,3.39,2.29Z"/>
      <path class="cls-1" d="M18.26,25.26l-1.57.81-.39-.83-1.3,2.57c1.91-.27,2.71-.91,3.27-2.55Z"/>
      <path class="cls-1" d="M17.81,22.31c-1.46-.32-2.47.04-3.24,1.12,1.31.61,2.64-.02,3.24-1.12Z"/>
    </g>
  </g>
</svg>