<?xml version="1.0" encoding="UTF-8"?>
<svg id="Warstwa_2" data-name="Warstwa 2" xmlns="http://www.w3.org/2000/svg" viewBox="0 0 37.69 50.42">
  <defs>
    <style>
      .cls-1 {
        fill: #fff;
      }
    </style>
  </defs>
  <g id="game-icon-v7-magic-pixarts-store">
    <g id="game-icon-v7-magic-pixarts-store_256">
      <path class="cls-1" d="M32.97,41.96c.71-.37,1.65-.69,2.3-1.11l2.41-1.58-3.19.33c-1.45.15-6.81-1.29-9.75-2.93-.42-.23-1.4-.3-1.85-.62-2.02-1.43-3.61-3.26-4.21-5.79l.94,1.37c.4.59.94,1.15,1.62,1.32-1.45-2.51-2.6-4.78-2.9-7.51-.28-2.55-.29-5.21,1.03-7.45.19-.32.86-.86,1.04-1.21,1.48-3.06,3.9-5.09,6.82-6.55-1.44.28-2.53,1.08-3.93,1.7,1.69-2.06,4.31-2.62,6.86-3,2.86-.43,3.38.18,4.43-.6l1.82.03c-.92-.54-1.88-1.02-2.76-1.62-.71-.48-1.55-.62-2.45-.83-1.54-.37-3.03-.66-4.66-.55-3.22.22-6.39.81-9,2.68-.1.07-.44.29-.38.36l.35.41-3.09,2.67c-.68.59-1.22,1.26-1.87,1.9l.25-1.28c-3.38,3.85-5.76,10.62-3.89,15.66-.78,2.11,2.1,6.56,3.7,7.85l2.17,1.76c1.2.98,2.43,1.72,3.67,2.61-.76-.05-1.21-.29-1.94-.55,2.32,2.18,5.45,3.22,8.66,3.73,2.78.44,5.33.07,7.81-1.21Z"/>
      <path class="cls-1" d="M2.89,24.39s-.36.12-.47.15c-.07.02-.04.14.02.16.07.02.34.09.43.1l3.86.5.19-3.62-5.36,1.51,1.28.35-2.84.41,2.89.45Z"/>
      <path class="cls-1" d="M17.11,6.75l.79-1.17c.28.39.48.77.59.66l.52-.49,2.09-.59-2.05-2.53c-.58-.72-1.31-1.37-2.04-2.07l.4,2.81-.59-.89.29,4.25Z"/>
      <path class="cls-1" d="M13.29,9.33c-.79-.3-1.53-.54-2.26-.64-.43.74-2.27-1.12-3.61-1.25,1.98,2.1-.14,1.37,3.08,5.09l2.79-3.2Z"/>
      <polygon class="cls-1" points="12.78 38.57 10.39 35.71 7.24 40.06 8.74 39.55 8.63 40.37 12.78 38.57"/>
      <path class="cls-1" d="M25.47,44.74c-.09.35-.11,1.24.04,1.79l.68,2.42.3-.7.42,2.18,1.87-6.17-3.31.49Z"/>
      <path class="cls-1" d="M4.32,32.01l1.47-.1-1.03.72c1.38-.04,2.24-.11,3.54-.29l-1.09-2.79-2.89,2.47Z"/>
      <path class="cls-1" d="M25.18,4.36l2.2-.15c.59-2.86.35-1.45-.46-4.22l-.71,1.52c-.43.91-.78,1.87-1.02,2.84Z"/>
      <path class="cls-1" d="M4.08,15.66l1.58,1.33c.62.52,1.39.79,2.16.65l.64-1.85c-1.46-.14-2.79-.18-4.38-.12Z"/>
      <path class="cls-1" d="M17.45,42.95l-.66-1.08c-.35,1.42-.46,2.48-.49,3.94l1.78-1.84c.29-.01.79.05.91-.16l.44-.81-1.57-.61-.4.55Z"/>
    </g>
  </g>
</svg>