<?xml version="1.0" encoding="UTF-8"?>
<svg id="Warstwa_2" data-name="Warstwa 2" xmlns="http://www.w3.org/2000/svg" viewBox="0 0 45.79 46.6">
  <defs>
    <style>
      .cls-1 {
        fill: #fff;
      }
    </style>
  </defs>
  <g id="game-icon-v7-magic-pixarts-store">
    <g id="game-icon-v7-magic-pixarts-store_228">
      <path class="cls-1" d="M26.85,16.32l-2.08,5.28c1.97-.19,2.98-2.12,5.23-2.17L1.2,46.31c-.3.28-.84.34-1.03.24-.24-.12-.22-.88-.02-1.1l26.7-29.13Z"/>
      <path class="cls-1" d="M36.13,6.07c.25-2.37,1.69-6.34,4.31-5.18,1.21.54,1.6,1.81,1.6,3.05.98-.16,2.3-.06,2.72.57.57.86.79,2.2.22,3.06-.96,1.44-2.9,2.26-4.62,2.45-5.09.56-3.76,4.31-5.39,6.43-.64.83-1.95.97-2.65.5-.83-.55-.93-1.63-.73-2.69-.77.12-1.81.22-2.16-.15s-.64-1.58-.39-2.07c1.58-3.18,6.55-.79,7.1-5.97ZM33.75,14.7l-1.29.53.52.82c.14.22,1.22-.27,1.31-.53l1.51-4.33c-3.63,1.98-1.04,3.09-2.04,3.5ZM34.68,10.42c-.84-.24-6.65,2.27-4.41,2.78l.58.13c-1.05-.24,3.96-1.99,3.83-2.92ZM38.8,2.77l1.47,1.55c.54-.77.69-1.71.26-2.07s-1.76-.26-1.97.2c-1.53,3.28-.76,3.77-2.98,8.17,2.31-1.05,4.21-1.81,6.59-2.42.91-.23,1.86-.92,2.01-1.88.12-.75-.86-1.56-1.48-1.36-.47.14-.84,1.02-.78,1.42l.89.16c.16.03.3.61.16.69s-.54.27-.7.29c-.38.06-1.29-.54-1.33-.92l-.14-1.45c-.65-.04-1.51-.2-1.91-.55-.27-.24-.24-.84-.09-1.84Z"/>
      <path class="cls-1" d="M27.46,15.58c-.17-.16-.21-.91-.17-1.14.24-1.4,4.68,2.32,4.65,4.22,0,.29-1.08.25-1.29.04l-3.19-3.12Z"/>
      <path class="cls-1" d="M42.44.33l3.35-.33-.11,3.91-2.52-1.28c-.42-.21-.64-1.37-.72-2.29Z"/>
      <path class="cls-1" d="M27.75,17.11c.47.37.93.83,1.32,1.31-1.13.81-1.72,1.21-2.93,1.75l1.61-3.06Z"/>
    </g>
  </g>
</svg>