<?xml version="1.0" encoding="UTF-8"?>
<svg id="Warstwa_2" data-name="Warstwa 2" xmlns="http://www.w3.org/2000/svg" viewBox="0 0 40.62 39.4">
  <defs>
    <style>
      .cls-1 {
        fill: #fff;
      }
    </style>
  </defs>
  <g id="game-icon-v7-magic-pixarts-store">
    <g id="game-icon-v7-magic-pixarts-store_208">
      <path class="cls-1" d="M10.66,31.89c-2.16,3.45,1.56,3.68-1.51,6.58-1.1,1.05-3.66,1.51-4.32-.29-.38-1.02-.78-2.08-1.26-3l.41-.39c.1-.09.13-.25,0-.23l-.99.19c-.55.11-.83-.9-1.19-2.04l-.26,2.25c-.98-.18-1.7-1.37-1.52-2.49.33-1.99,2.33-3.18,4.25-2.71,1.52.37,2.6-.35,3.71-1.23l3.92-3.1-2.15.27c.99-2.51,4.17-2.82,6.31-4.94l5.47-5.41c1.57-1.56,3.38-5.02,3.92-3.38.48-.88,1.08-2.03,1.78-2.9,3.89-4.77-.3-7.58,4.75-8.99,1.42-.4,3.12.72,3.02,1.98-.07.45-1.31.85-1.81,1.14-.49.28.61,1.73,1.18,1.64.98-.14,2.05-.18,3.08.18l.31-1.1c1.43.15,2.73,1.29,2.84,2.68s-.9,3.69-2.72,3.27c-2.22-.51-4.75-1.27-6.62.63l1.73.14c-4.92,3.35-3.34,3.41-9.53,6.46l1.36.39c-1.3,1.34-2.63,2.87-4.12,4.02-5.15,3.94-3.17,8.03-6.69,7.43.33-.74,1.11-1.65,1.66-2.24-.15-1.56-.2-3.11,1.17-4.65-2.26.44-1.67,2.55-2.27,3.94-.91,2.12-2.7,3.93-3.93,5.9Z"/>
      <path class="cls-1" d="M32.01,24.38c-4.05.63-5.86,4.21-9.98,2.47,2.75.57,4.19-1.82,5.98-2.7,2.64-1.31,3.47-2.77,4.72-5.22.78-1.53,2.95-2.86,2.44-5.82,1.5,4.08-1.61,6.31-2.35,10.62l2.03-.61c-1.09,1.75-2.53,3.34-4.56,4.03.72-1,1.21-1.4,1.72-2.77Z"/>
      <path class="cls-1" d="M14.58,12.98c0,.25-.23,1.37-.48,1.34l-1.28-.13-1.49,4.22c-1-4.95,3.78-7.73,2.16-9.97l-1.52.88c1.06-2.12,2.75-3.58,4.81-4.35l-1.85,2.54c2.27,1.2,5.16-4,10.06-2.27-2.83-.11-4.52,1.44-6.31,3.01-1.56,1.36-4.02,1.99-4.1,4.73Z"/>
      <path class="cls-1" d="M18.14,13.44c-.49,1.02-1.68,2.15-2.38,3.13-.03-.96.43-2.03.95-2.88.25-.4.27-1.34.43-1.94.27-.98,5.1-3.5,6.42-2.56l-3.95,2.08c-.94.49-.96,1.11-1.47,2.17Z"/>
      <path class="cls-1" d="M23.24,22.83l3.53-1.53c.97-.42,1.27-1.67,1.8-2.4l2.65-3.64c-.06,3.3-2.54,3.59-1.26,5.27-1.62,1.46-4.02,2.69-6.72,2.31Z"/>
    </g>
  </g>
</svg>