<?xml version="1.0" encoding="UTF-8"?>
<svg id="Warstwa_2" data-name="Warstwa 2" xmlns="http://www.w3.org/2000/svg" viewBox="0 0 47.95 37.42">
  <defs>
    <style>
      .cls-1 {
        fill: #fff;
      }
    </style>
  </defs>
  <g id="game-icon-v7-magic-pixarts-store">
    <g id="game-icon-v7-magic-pixarts-store_61">
      <path class="cls-1" d="M24.24,31.71c-6.17-1.89-12.39-5.77-15.94-10.97.19,2.09,1.83,3.13,2.81,4.91l-4.03-4.1,3.12,4.51-3.23-2.89c4.88,6.71,12.39,11.11,20.06,12.19,3.35.47,6.88.72,9.96-1.24l-2.79.49c1.48-.56,2.89-1.11,4.43-2.17l-3.59.81c1.8-.86,3.52-1.35,4.92-2.72-4.91,2.48-10.35,2.83-15.7,1.19Z"/>
      <path class="cls-1" d="M38.48,19.08l-7.32-.45c2.37,0,4.77-.17,7.11-.94-1.07-1.38-2.03-.34-3.55-.89l2.43-.58c-.51-.75-1.15-.96-1.85-.82-4.32.86-8.37-.34-11.55-3.38l-2.44-2.33c.56,1.91,2.11,2.79,3.27,4.38l-4.45-3.73,1.48,2.41-1.92-1.75c-.15-.14-.74-.45-.75-.26-.18,2.26,6.31,6.34,9.3,7.38-5.23-.51-6.56-3.31-10.5-6.82,2.68,7.05,13.71,11.05,20.77,7.8Z"/>
      <path class="cls-1" d="M42.27,21.89l-2.05-3.25.55,2.63-1.2-1.34c-.17-.19-.83.69-.9.84,1.59.98,2.59,2.26,3.36,3.96,1.83,4.06.28,8.32-3.99,10.08-11.07,4.55-26.34-2.61-32.5-12.1-.8,1.06,5.93,7.07,6.47,7.5,4.59,3.6,9.81,5.86,15.45,6.9,5.38.99,14.23-.13,16.66-5.02,1.79-3.6.06-7.15-1.85-10.19Z"/>
      <path class="cls-1" d="M.49,25.66c.28,5.47,9.42,7.69,13.74,8.09-.86-.99-1.73-1.05-2.71-1.27-3.4-.72-10.23-3.94-8.59-8.19.79-2.05,2.31-3.5,4.51-4.43,3.42-1.44,8.34-2.56,11.86-3.08.15-.02.38-.7.24-.76-.15-.07-.68-.33-.87-.3l-6.69,1.18c-.56.1-1.53,1.15-1.96,1.48C5.94,17.39.26,21.2.49,25.66Z"/>
      <path class="cls-1" d="M11.21,11.47c2.14-1.82,4.06-4.01,6.81-5.16-1.97,1.48-3.82,2.93-5.75,4.79,1.82.29,2.83-.56,4.08-1.35l-.74,1.29,7.86-3.98c-1.56,0-3.01.57-4.36,1.14,1.44-1.1,3.78-1.87,5.35-2.35.31-.1.19-1.07-.08-1.04l-1.49.17,1.56-.67c.18-.08.54-.32.69-.44,2.69-1.94-11.24,1.07-13.91,7.6Z"/>
      <path class="cls-1" d="M38.78,23.71c-5.7,2.99-11.76,4.78-18.58,4.9,1.48,1.04,3.52,2.09,5.43,2.05,3.9-.09,10.79-1.69,13.64-4.54l-4.56,2.06c-.94.43-2.08.92-2.92.73,2.56-.9,4.65-1.59,6.53-3.26l-5.74,2.15c2.39-1.38,4.56-2.15,6.21-4.09Z"/>
      <path class="cls-1" d="M28.22,3.59c.07.14.35.54.45.42l.58-.63-.76,3.15c.29.46.33.48.35.65.02.13-.46.71-.38.81l2.56,3.21c1.95-.87-1-4.6-1.54-5.5,1.94.41,2.19,2.4,2.73,3.78.81-1.48,3.2-3.29,2.26-5.23-.51-1.04-1.75-2.31-2.48-3.55-1.99,3.56-4.67,1.05-3.76,2.89Z"/>
      <path class="cls-1" d="M37.64,8.16c.5.41,1.11.63,1.6.8-.85.07-1.7.4-1.92.96l2.22.31-2.81.45,2.77.36c.15.07.64.27.8.33.14.06-.08.45-.1.63,1.57.7,3.62,1.22,4.44,2.97l2.43,5.23c.47-1.49-.39-2.74-.99-4.08l-1.91-4.28,1.15.78-.8-1.35,1.41.02c-2.22-2.36-5.01-3.49-8.28-3.13Z"/>
      <path class="cls-1" d="M39.68,13.22l-.41.37-1.93-.52,1.84,2.35-1.86-1.23,2.63,4.15.26-1.39c.34.68.82,1.49,1,1.4.68-.82.95-1.63.59-2.2l1.9,1.41c0-1.4-3.32-4.96-4.02-4.33Z"/>
      <path class="cls-1" d="M8.34,8.41c-1.32-.55-1.96-.86-2.89-1.85C3.24,8.93.92,12.14,1.6,15.89c1.38-3.48,3.25-6.1,6.74-7.48Z"/>
      <path class="cls-1" d="M.05,23.43c1.35-2.79,3.53-4.5,6.48-5.38-.64-.59-1.6-1.16-1.56-1.59l.14-1.49C2.13,16.9-.41,19.67.05,23.43Z"/>
      <path class="cls-1" d="M11.24,12.48c.55.73,1.31,1.44,1.33,1.91.02.47-.31,1.13-.61,2.04l6.16-1.65-2.17-.26,1.3-.95-2.51-.39.99-.89-4.49.19Z"/>
      <path class="cls-1" d="M6.03,16.05c.18,1.61,3.57,1.49,4.31,1.04.68-.41,1.51-1.63,1.16-2.36-.57.98-1.45,2.43-2.8,1.4l1.71-.92c.43-.23-.88-1.26-1.36-1.24-.68.02-1.14.29-1.82,1.14l.93.23c-.22.34-1.23.87-1.35.55-.33-.85.71-1.98,1.57-2.33.58-.24,1.53-.05,2.45.11-.77-1.09-2.29-.94-3.27-.42-.92.49-1.66,1.58-1.53,2.79Z"/>
      <path class="cls-1" d="M12.31,5.49l-2.92,2.15,2.58-.41,1.51-.12c.29-.02.37-1.04.64-1.11l1.55-.43-1.21-.58c1.19-.15,2.01-.25,3.08-.55-1.8-.95-3.66-.98-5.51-.88.16.49.56,1.7.27,1.92Z"/>
      <path class="cls-1" d="M25.98,9.62l1.93,1.82c1,.95,1.86,1.77,2.78,2.38-.34-2.39-1.24-4.04-2.88-5.61l-1.82,1.41Z"/>
      <path class="cls-1" d="M28.04,5.56c.13-1.01-.17-2.45-1.39-3.1-.87,2.22-1.08,4.16-1.07,6.2,1.91-.59,2.27-1.68,2.45-3.09Z"/>
      <path class="cls-1" d="M9.91,9.55c.95-.25,1.83-.58,2.44-1.57-3.13.21-8.46,3-9.01,6.71,3.22-1.98,2.8-4.17,6.57-5.14Z"/>
      <path class="cls-1" d="M27.5,31.15c.52,1.47,13.88-2.69,13.64-4.67-4.57,2.17-8.5,4.04-13.64,4.67Z"/>
      <path class="cls-1" d="M34.71,11.77c.42-.61.53-1.94.13-2.65-1.23.8-2.85,2.13-3.58,3.02-.19.23-.01,1.42.26,1.33.21-.07.73-.25.98-.36l.89-.4c.15-.07-.42-.69-.31-.6l1.63-.34Z"/>
      <path class="cls-1" d="M46.51,23.61l-.88,1.14c-.14.19-.77-.38-1-.5l1.14,5.36c.97-2.06,1.06-4.05.74-6Z"/>
      <path class="cls-1" d="M8.36,7.36l-.51-.78c1.61-.06,3.46-.1,4.05-1.91l-2.06,1.06.13-1.17-3.39,1.49c.44.7,1.15,1.19,1.78,1.31Z"/>
      <path class="cls-1" d="M44.3,19.93c-.67,1.18.57,2.14,1.72,2.76,1.02-1.42.08-2.59-.64-3-.25-.14-.95,0-1.08.25Z"/>
      <path class="cls-1" d="M27.1,1.74c1.87,1.21,4.06,0,4.6-1.74-1.74.21-3.2.71-4.6,1.74Z"/>
      <path class="cls-1" d="M37.09,5.46c-2.13.98-1.77,2.86-1.22,4.82.8-1.1.83-2.07.84-3.17l.38-1.65Z"/>
      <path class="cls-1" d="M36.6,3.3l-4.07-3.03c.22,1.47,2.41,4.69,4.07,3.03Z"/>
      <path class="cls-1" d="M47.81,17.62c.28-1.83.19-3.39-.88-4.64l.15,1.62-1.14-.88c.48,1.69.95,2.73,1.88,3.9Z"/>
    </g>
  </g>
</svg>