<?xml version="1.0" encoding="UTF-8"?>
<svg id="Warstwa_2" data-name="Warstwa 2" xmlns="http://www.w3.org/2000/svg" viewBox="0 0 43.84 47.46">
  <defs>
    <style>
      .cls-1 {
        fill: #fff;
      }
    </style>
  </defs>
  <g id="game-icon-v7-magic-pixarts-store">
    <g id="game-icon-v7-magic-pixarts-store_142">
      <path class="cls-1" d="M13.17,32.61L4.58,7.98l9.85-1.72-3.21,8.4,2.43-.15-1.22,5.52,2.37-1.18-.94,7.48,4.51-11.11-2.29.58,1.22-4.96-1.66.16,1.73-5.28,4.11-.7-2.29,7.4,3.32-.48-3.88,11.69,5.98-1.65c-.81,4.15-2.29,7.84-2.71,12.05l9.29-17.35-6.58,1.8,4.77-10.75-4.62,1.34,1.38-4.98,3.73-.6.05,2.36,1.14-.83-.49-1.35c-.1-.27.69-.5.95-.39.31.14.36.77.53,1.15l1.38,3.08c-1.19,1.99-2.34,3.71-3.14,6.19l4.06-3.18,1.56,3.93c-1.69,1.79-3.18,5.14-4.1,7.77,1.95-1.56,3.24-2.9,5.21-4.85l1.77,4.66-2.63.27c-1.58,2.35-3.04,4.75-4.53,7.79l5.4-5.15,2.92-.82,3.72,9.92-14.53,2.74.66-2.35c.15-.53-.84-1.26-1.53-1.79l.75,1.74-1.44,2.71-11.11,2.08c-.11-1.17.36-1.96,1.24-2.78l-.31-2.13c.78-1.51,1.67-2.85,2.62-4.16-3.17.87-1.66,3.97-4.09,3.21-1.48-.46-.58-3.03-1.62-2.81-.03.48,0,1.09.2,1.25.37.3-1.2,1.2-1.33.83ZM7.99,10.02l4.46-1.73c-2.07.05-3.75.34-5.84.71.74,2.57,1.23,4.53,2.37,6.62-.13-2-.52-3.66-.99-5.6ZM35.88,33.84l5.96-1.03c-.7-1.98-1.36-3.64-2.37-5.51-.08,1.6.42,3.13,1.01,4.66-1.75.55-3.27,1-4.6,1.88Z"/>
      <path class="cls-1" d="M22.8,42.23c2.67.15,16.9-3.38,17.64-2.91.17.11-.11.86-.43.92l-25.84,4.89c-1.4-1.63-.08-4.05,1.74-4.4l25.26-4.95-.83,2.99-17.54,3.47ZM21.03,41.34l17.55-3.7-20.51,3.78c.95.18,1.85.07,2.96-.08Z"/>
      <path class="cls-1" d="M11.3,30.77c-2.06.79-2.96,2.36-4.14,4.23l-4.04-11.83c-.9-2.63.97-5.42,3.18-6.71l5.01,14.31Z"/>
      <path class="cls-1" d="M41.76,41.05l.03-2.63,1.57,3.4-29.22,5.6c-1.41.27-2.78-.84-3.2-1.99-1.59-4.36-3.72-7.87,1.56-11.41l2.05,5.66c-1.74,1.29-2.79,3-2.3,5.24.16.71,1.3,1.65,2.23,1.47l27.29-5.33Z"/>
      <path class="cls-1" d="M1.96,22.17c-.8-1.24-.88-3.04-.11-4.51l.43-2.09-1.26,1.72c-1.83-3.18-1.3-7.37,2.51-8.88l2.63,7.45c-2.9.83-3.65,3.19-4.2,6.31Z"/>
      <path class="cls-1" d="M39.41,11.12c.26-.91-.31-2.77-.36-3.55-1.42-.87-2.41.99-3.4,1.46-1.08.5-1.95.93-3.03,1.57.09-.42.73-1.77,1.4-2,3.75-1.32-.6-1.11,5.89-2.79,1.36-1.58,2.58-3.01,3.94-4.27-1.92,5.06-4.9,4.98-2.72,9.44-.98,1.3-1.7,2.7-1.55,4.5l-3.2,1.29c-.59.24-1.31,1.46-2.07,1.96.29-1.03.93-2.19,1.71-3.1l2.41-1.17.98-3.36Z"/>
      <path class="cls-1" d="M15.47,15.41c-.16.77-.55,1.43-1.21,1.98l.36-4.03-1.98.04,4.02-9.78c-.45,2.99-1.23,5.33-2.07,8.3l1.59.12-.72,3.37Z"/>
      <path class="cls-1" d="M8.19,39.55c-2.2-2.4.62-6.83,3.01-7.97.38.16.86,1.07.87,1.57-2.39,1.45-3.8,3.67-3.89,6.39Z"/>
      <path class="cls-1" d="M16.59,36.22l-1.36,2.38-1.65-5.37c.28-.45,2.93,1.06,3.17,1.29.26.24.02,1.39-.16,1.71Z"/>
      <path class="cls-1" d="M34.91,25.77l1.38-2.41,3.8-1.33c3.35-1.17-.53-2.56,2.93-4.42-.88,1.59-1.52,2.56-.45,4.2l-5.5,2.26-2.16,1.71Z"/>
      <path class="cls-1" d="M22.63,7.51c-.29-.9.35-1.46.92-2.06-.43-.25-.8-.46-.77-.73.05-.47.66-.85,1.14-.94l2.56-3.78c-.66,2.05-2.45,5.79-3.85,7.51Z"/>
    </g>
  </g>
</svg>