<?xml version="1.0" encoding="UTF-8"?>
<svg id="Warstwa_2" data-name="Warstwa 2" xmlns="http://www.w3.org/2000/svg" viewBox="0 0 46.88 53.14">
  <defs>
    <style>
      .cls-1 {
        fill: #fff;
      }
    </style>
  </defs>
  <g id="game-icon-v7-magic-pixarts-store">
    <g id="game-icon-v7-magic-pixarts-store_101">
      <path class="cls-1" d="M21.15,39.29c-.22,3.29-.59,6.66,2.3,8.79l1.44-1.09c-.93,2.18-1.22,4.12-.87,6.14l3.95-6.34c-.5-.55-1.44-1.15-2.09-1.42l.45-7.06.42,5.93c.04.52,1.07,1.34,1.49,1.62l-.02-11.43c-.92.83-1.4,1.57-1.87,2.54l-.8-2.78c.38.2,1.07.69,1.33.44l1.24-1.22c-1.08-2.11-2.18-3.99-3.83-6.2-.52,1.95-.6,3.48-.09,5-3.08,1.11-2.87,4.39-3.05,7.08Z"/>
      <path class="cls-1" d="M29.39,26.02c1.93,1.8,3.09,4.37,1.15,6.56-.79.9-1.54,1.91-.83,3.12l2.36-2.75c1.39-1.62,1.5-3.86.66-5.77-1.78-4.02,3.13-5.11,3.46-10.32l-5.03,4.79c-1.05,1-2.22,2.97-1.78,4.37Z"/>
      <path class="cls-1" d="M17.47,26.08c.53-1.5-.77-3.41-1.89-4.5l-4.6-4.49c-.03,5.24,4.78,5.69,3.24,9.9-1.55,4.24.28,6.05,3.14,8.82.28-.97.05-2.14-.67-2.89-2.1-2.22-1.41-4.99.78-6.84Z"/>
      <path class="cls-1" d="M46.04,11.56c-2.19,3.13-4.23,5.82-6.79,8.43-.46.47-.8,1.44-.94,2.03l1.88-.81c-1.07,1.17-2.12,2.06-2.82,3.17,5.73-1.56,9.19-7.22,8.67-12.82Z"/>
      <path class="cls-1" d="M9.63,15.85c-2.24-2.43-3.62-5.47-4.88-9.09-2.25,4.32,1.23,12.52,5.64,13.51-1.09-2.21.61-2.93-.76-4.42Z"/>
      <path class="cls-1" d="M9.81,24.29l-3.73-3.71,2.64,1.39c-.41-1.13-.85-1.79-1.5-2.49-2.26-2.45-4.15-4.92-6.12-7.87-1.48,4.32,4.08,12.63,8.71,12.68Z"/>
      <path class="cls-1" d="M37.55,15.69c-.35.41-.56,1.61-.59,2.25l1.59-.88-2.19,3.34c4.72-1.26,8.22-9.31,5.68-13.69-1.07,3.47-2.18,6.3-4.49,8.98Z"/>
      <path class="cls-1" d="M20.94,18.39C13.11,12.25,13.4,1.29,11.85.16c-2.34-1.7,1.2,10.21,4,14.66,3.62,5.74,7.11,5.16,5.09,3.57Z"/>
      <path class="cls-1" d="M30.98,14.88c2.84-4.16,4.03-8.74,5.02-13.54.1-.49,0-1.2-.33-1.17-.33.03-.99.41-1.05.81-.5,3.45-1.7,7.49-3.28,10.75-1.44,2.97-3.49,5.02-5.97,7.61,2.65.12,4.2-2.4,5.61-4.46Z"/>
      <path class="cls-1" d="M9.23,27.72c-.8-1.13-1.63-1.69-2.68-2.33l1.09.03c-.13,0,.45-.19-.41-.84L0,19.17c-.24,3.47,6.05,9.61,9.22,8.55Z"/>
      <path class="cls-1" d="M46.82,19.33l-7.08,5.31c-.23.17-.51.79-.58.95-.05.1.32.05.44.05l.57-.02-2.35,2.15c2.91,1.17,9.76-5.49,9-8.43Z"/>
      <path class="cls-1" d="M18.7,34.41l-.12,11.47c2.15-.54,1.93-2.17,1.94-3.86l.03-5.77c0-.6-1.06-1.55-1.85-1.84Z"/>
      <path class="cls-1" d="M45.44,26.47l-5.79,2.21c-.2.08-.97.29-.92.5l.17.75-1.56,1.53c3.31.37,6.61-1.93,8.12-4.99Z"/>
      <path class="cls-1" d="M9.6,31.51l-1.51-2.37-6.46-2.7c1.24,3.2,4.85,5.27,7.96,5.07Z"/>
      <path class="cls-1" d="M19.1,33.11c-.14.41,1.16,1.62,1.59,1.33,2.36-1.62,3.26-4.82,2.17-7.32l-3.76,5.98Z"/>
      <polygon class="cls-1" points="23.18 49.15 20.61 45.37 19 46.78 23.12 52.96 23.18 49.15"/>
      <path class="cls-1" d="M23.5,24.06c1.02-1.97,1.27-3.6,1.46-5.76-.94-.26-2.17-.26-2.92.01.18,2.16.44,3.8,1.46,5.74Z"/>
      <path class="cls-1" d="M11.67,34.54c-2.94-2.72-2.58-1.72-7.19-1.84,1.73,2.13,4.64,2.69,7.19,1.84Z"/>
      <path class="cls-1" d="M42.48,32.67l-4.97.08-2.17,1.91c2.47.63,5.44.44,7.14-1.99Z"/>
      <path class="cls-1" d="M37.68,20.54l-3.33,2.39c-.82.99-1.29,2.25-.66,3.54,2.37-1.5,3.64-3.12,3.99-5.93Z"/>
      <path class="cls-1" d="M9.2,20.71c.6,2.62,1.94,4.76,4.35,5.77.76-2.99-2.5-4.76-4.35-5.77Z"/>
      <path class="cls-1" d="M34.31,26.94c-.38.31-.22,1.69.2,1.98,1.81-.85,3.27-2,3.84-3.82-1.42.19-2.94.95-4.04,1.83Z"/>
      <path class="cls-1" d="M12.39,28.99c.24-.35.67-1.63.35-1.92-.96-.88-2.78-1.91-4.15-2.2.63,1.94,1.97,3.15,3.81,4.12Z"/>
      <path class="cls-1" d="M12.94,31.44c-.28-2.36-2.23-2.54-4.01-2.43.87,1.45,2.47,2.42,4.01,2.43Z"/>
      <path class="cls-1" d="M34.2,31.56c1.44-.34,2.73-1.07,3.91-2.33-1.96-.67-4.04.23-3.91,2.33Z"/>
      <path class="cls-1" d="M38.18,36.99c-1.46-1.5-3.24-1.3-4.6-.41,1.45,1.13,3.04,1.29,4.6.41Z"/>
      <path class="cls-1" d="M13.46,36.68c-1.48-1.21-3.17-.82-4.84.26,1.43.7,3.13.94,4.84-.26Z"/>
      <path class="cls-1" d="M36.67,32.57c-.84-.48-1.89-.69-2.47-.41-.42.2-.86.81-1.21,1.41,1.45.3,2.51.03,3.68-1Z"/>
      <path class="cls-1" d="M25.89,24.93c.04-.78-.42-1.81-.85-2.03l-.81,3.66c.79-.09,1.62-.97,1.66-1.63Z"/>
      <path class="cls-1" d="M30.38,37.27c.75.81,1.94,1.35,3.25,1.32-.42-1.56-1.91-2.35-3.25-1.32Z"/>
      <path class="cls-1" d="M13.99,33.64c-.6-1.66-2.22-1.9-3.48-1.14.92,1.11,2.29,1.44,3.48,1.14Z"/>
      <path class="cls-1" d="M16.5,36.87c-1.08-.36-2.65.43-3.05,1.4,1.17.4,2.89.18,3.05-1.4Z"/>
      <path class="cls-1" d="M22.32,25.12l-.26-2.23c-1.4.55-1.03,2.63-.42,3.27.17.18,1.29.11,1.19-.08l-.51-.96Z"/>
    </g>
  </g>
</svg>