<?xml version="1.0" encoding="UTF-8"?>
<svg id="Warstwa_2" data-name="Warstwa 2" xmlns="http://www.w3.org/2000/svg" viewBox="0 0 41.54 42.25">
  <defs>
    <style>
      .cls-1 {
        fill: #fff;
      }
    </style>
  </defs>
  <g id="game-icon-v7-magic-pixarts-store">
    <g id="game-icon-v7-magic-pixarts-store_260">
      <path class="cls-1" d="M29.67,20.55c.69-.04,1.75-.42,2.22-1.13,1.72-2.63,2.59-6.14.66-8.88-.39-.56-1.23-.96-1.81-.95-1.56.01-1.92,1.59-2.36,1.47l-.52-.15c-2.02,2.26-2.5,5.76-.77,8.39.62.95,1.63,1.31,2.59,1.26Z"/>
      <path class="cls-1" d="M18.75,17.66c1.07.82,2.56.52,3.14-.53.09-.17.71-.31.84-.47.78-1.03,1.31-3.19,1-4.57-.26-1.15-.58-2.07-.95-3.15-1.19-.88-2.79-2.92-4.55-1.3-2.46,2.26-2.5,7.7.52,10.01Z"/>
      <path class="cls-1" d="M12.3,21c2.3-1.64,2.37-3.75,2.11-6.19-.2-1.93-1.08-3.74-3.04-4.19-1.07-.24-2.15-.08-2.58,1.1l-1.1,2.99c-.63,1.51-.11,3.19.51,4.71.66,1.65,2.61,2.62,4.1,1.57Z"/>
      <path class="cls-1" d="M.41,23.97c.16,2.42,2.14,4.24,4.64,4.01l1.22-1.44.21.58c1.47-1.96.88-5.55-.84-7.75-.65-.83-1.48-1.91-2.75-1.69-1.91.33-3.17,2.43-2.84,4.28.51.61.65,1.29.36,2.01Z"/>
      <path class="cls-1" d="M37.67,26.31c1.93-.32,3.18-1.8,3.38-3.49l-.54.54.47-2.07.24.92c.75-2.17.12-4.36-1.59-5.76-2.1.3-4.55.6-4.85,3.08-.16,1.28-.28,2.58-.25,3.9.04,1.69,1.56,3.13,3.14,2.87Z"/>
      <path class="cls-1" d="M10.13,8.77l.49.55c.28-.58.49-1.15.46-1.72-.08-1.83.22-3.31.59-5.14-2.16,2.52-3.34,4.61-2.9,7.78.65-.48,1.1-.94,1.37-1.47Z"/>
      <path class="cls-1" d="M29.47,8.91l1.46-.75,1.01.65c-.04-2.94-1.69-5.29-3.9-6.67.92,2.29,1.56,4.27,1.43,6.78Z"/>
      <path class="cls-1" d="M19,5.73c.77.11,1.3.14,2.07.1l-1.71-5.83c-1.01,2-1.4,4.09-1.37,6.26l1-.53Z"/>
      <path class="cls-1" d="M38.04,15.02l.99-.7c.22.48.74,1.18,1.29,1.6.4-2.82-.81-5.4-2.96-7.07l.44,2.02c.3,1.36.16,2.59.25,4.14Z"/>
      <path class="cls-1" d="M2.2,15.86c.07-.08.35-.08.42,0l.24.26.09-4.07.39-2.04c-1.95,1.81-3.03,4.65-2.52,7.31l1.38-1.47Z"/>
      <path class="cls-1" d="M6.55,29.64c-2.46,1.47-3.45,4.45-2.58,6.9.39,1.11.83,2.08,1.63,2.8v-.82c.91.87,1.66,2.1,2.72,2.85,4.19,2.94,11.09-2.56,13.99-1.88l5.48,1.29c2.21.52,4.85,1.27,6.79-.44l-.7-.07,2.29-1.71-.69,1.58c1.05-.81,2.13-1.63,2.5-2.77.41-1.27.99-2.54.88-3.85-.18-2.2-1.54-4.61-3.68-5.4l-5.09-1.88c-.74-1.1-1.41-2.4-2.27-3.46-1.32-1.62-3.29-2.78-5.37-2.77-.61,0-1.03-.02-1.61-.09-2.86-.35-5.89,1.07-7.21,3.65-2.49,4.87-2.3,3.19-7.09,6.06ZM27.42,39.95c-1.49-.1-2.65-.21-4.2-.47-.45-.45,4.67.12,4.2.47Z"/>
    </g>
  </g>
</svg>