<?xml version="1.0" encoding="UTF-8"?>
<svg id="Warstwa_2" data-name="Warstwa 2" xmlns="http://www.w3.org/2000/svg" viewBox="0 0 43.77 44.19">
  <defs>
    <style>
      .cls-1 {
        fill: #fff;
      }
    </style>
  </defs>
  <g id="game-icon-v7-magic-pixarts-store">
    <g id="game-icon-v7-magic-pixarts-store_264">
      <path class="cls-1" d="M2.21,7.34c3.23.62,3.19-.15,5.56,2.85l1.39,1.75-3.01,1.99,4.32.02,4.82,4.06-1.48,2.63,3.38-1.16c2.7,2.93,3.42,4.3,6.29,7.2.79.8,1.94,2.7,1.89,2.72l-.47.15.09,1.97c.7-.5,1.32-.95,2.02-1.15l5.16,3.73c1.44,1.04,2.85,2.46,3.56,4.19l-1.05,3.61,2.58-1.97,3.48,3.39-.09-1.31c-.09-.07-.29-.27-.35-.33-.06-.05-.01-.19.07-.19h.5c.75.52,1.44,1.31,2.47,1.53l-6.74-8.37,2.18-3.03-3.62,1.12c-2.38-1.33-4.44-2.93-6.56-4.78l2.1-3.48-3.69,1.63c-2.76-2.04-4.75-4.81-6.93-7.51-1.97-2.43-4.72-3.16-8.73-8.07-.52-.63-1.34-1.45-1.61-2.16l1.05-4.06-2.69,2.18c-.53-.26-1.18-.71-1.47-1.06L2.77.78l.84,1.7-.85.54L.69,1.43l3.28,4.72-1.76,1.18Z"/>
      <path class="cls-1" d="M33.02,12.67l4.52-3.37,4.6.27-2.38-1.74c-.18-.13-.52-.53-.5-.75.08-.77,3.09-4.16,3.63-5.71l-2.45,1.22.38-2.09-3,4.19c-.86-.3-1.37-.8-2.16-1.48l.79,2.94c-1.26,1.89-3.04,3.33-5.18,4.19l-2.48-2.52c.08,1.52.28,2.74.57,4.28l-3.97,5.06c-.14.18-.54.46-.68.37-.1-.07-.32-.33-.39-.46l-.74-1.33-.39,2.99c-.05.39-.4,1.05-.63,1.55l1.58,2.03c1.46-1.73,2.91-1.49,4.85-1.13l-1.77-1.85,2.26-3.31c.91-1.33,2.25-2.39,3.55-3.35Z"/>
      <path class="cls-1" d="M12.45,35.06c1.56-2.45,2.82-4.57,4.51-6.72,1.03-1.31,2.43-2.2,3.66-3.4l-1.69-2.02-2.63,2.16-2.32-1.78.52,3.9c-2.15,3.42-4.24,6.57-7.14,9.49l-3.58-2.46,1.42,4.53c-1.54,1.67-3.19,3.03-4.96,4.43.52.07,1.07-.1,1.47-.39l.38-.27s.03.07.02.14l-.04.54,2.65-1.25-.79,1.39,1.59-1.41,4.12-3.68c.29-.26.98-.84,1.38-.84l4.69-.02-3.26-2.34Z"/>
      <path class="cls-1" d="M21.79,10.09l4.98,3.99,1.39-1.99-3.26-2.55-1.58-1.22,1.9-2.32,3.22-.06-2.15-1.8c.7-1.58,1.04-2.7,1.36-4.14-2.03,1.18-2.19,1.61-3.28,3.29l.61-2.05-2.92,5.05c-2.23-1.98-1.57-2.7-3.32-5.02l-.47.27c-.37.21-.68-1.28-2.44-.95l-.44-.52,2.66,4.36-2.25,1.98,3.34.45,1.27,1.54c-.99,1.11-1.94,2.06-3.15,2.98l.73-1.31-3.41,2.85,1.78,1.59,1.92-1.37,2.58,1.76-.57-3.16c.03-.58,1.12-1.46,1.48-1.66Z"/>
      <path class="cls-1" d="M38.51,26.58l3.89,3.36c.09.07.39.22.42.15l.14-.35.81.34-.3-2.18-1.9-1.61,1.61-2.73c-1.1.17-2.1,1.07-3.21.8-.84-.2-1.57-1.49-2.06-2.23-1.97-2.98-3.17-5.19-6.31-7.21l-1.51,1.59.88,1.03-.03,3.07,1.61-1.78,2.57,3.36c-.54.74-1.18,1.34-1.59,1.99l-2.81,4.47c.47.47,1.14.98,1.75,1.37l1-1.39,2.59.36-1.52-2.04,1.83-2.72c.85,1.09,1.33,1.67,2.12,2.36Z"/>
      <path class="cls-1" d="M17.09,43.76c.43-.06,1-.69,1.32-1.07.11.09.35.4.43.3,2.04-2.31,2.81-4.21,6.44-6.53l1.85,2.24.23-3.59,2.05-1.72-1.63-1.64-6.05,4.19-1.9-2.53,1.04-2.42-2.68.83-1.71-1.35-1.32,2.02c.85.81,1.66,1.4,2.34,2.22l2.57,3.13-1.71,1.8-2.81-.53,1.53,2.29-1.65,2.6,1.67-.24Z"/>
      <path class="cls-1" d="M2.8,19.76c.99.9,1.77,1.92,2.52,3.02l2.72,3.98-1.72,2.31,3.51-.65,1.87,1.58,1.25-2.11-2.72-2.93c-.17.14-.4.33-.4.33,0,0-.28-.31-.31-.37l-1.34-2.29,5.04-5.23-1.73-1.44-2.64,2.66-2.03,2.08c-2.37-2.22-1.08-2.51-.78-5.18l-2.37,1.76c-1.33-.94-2.45-1.67-3.66-2.23.18,2.17,1.44,3.49,2.8,4.73Z"/>
      <path class="cls-1" d="M43.52,13.77c-1.28,1.54-2.32,2.7-3.78,3.87l-2.16-1.69.31,2.58c.04.31-.19.93-.36,1.31l1.15,1.77,2.29-2.14c.81-.75,1.59-1.46,2.18-2.27-.38-.02-.82.06-.78-.07l.22-.62.93-2.74Z"/>
      <path class="cls-1" d="M.42,27l.45.09-.5,1.76.64-.02-.5,1.77c.83-.7.95-1.65,1.5-2.3,1.1-1.28,2.32-2.27,3.61-3.49l-1.22-1.86-1.65,1.17-2.38-.97,1.03,2.41c-.21.29-1.38,1.36-.99,1.44Z"/>
      <path class="cls-1" d="M23.78,42.01l1.03,1.06.55-.65c.15-.18,1.07.81,1.32.58l.36-.33c.54.49,1.08,1.05,1.78,1.53-1.59-2.06-3.35-3.66-5.19-5.27-.6.56-1.17,1.18-1.09,1.69.1.63.68,1.09,1.25,1.4Z"/>
    </g>
  </g>
</svg>