<?xml version="1.0" encoding="UTF-8"?>
<svg id="Warstwa_2" data-name="Warstwa 2" xmlns="http://www.w3.org/2000/svg" viewBox="0 0 31.53 39.5">
  <defs>
    <style>
      .cls-1 {
        fill: #fff;
      }
    </style>
  </defs>
  <g id="game-icon-v7-magic-pixarts-store">
    <g id="game-icon-v7-magic-pixarts-store_116">
      <path class="cls-1" d="M25.32,20.07l4.93.17-.16,10.87-9.79-.08,1.3-2.74-.55-.55c-.52,1.17-1.44,2.7-2.38,3.38l-14.29-.03-.04-31.08,16.52.1,9.27-.02.08,11.77-4.95.02-1.34,2.01c-.36.54-1,1.34-1.05,1.85-.06.6.64,1.64,1.04,2.23l1.41,2.1ZM28.63,6.43l-.04-4.9-5.39.03c1.31,1,2.95,1.08,4.25,1.14-.03,1.07.23,2.46,1.18,3.73ZM7.53,3.24l3.35-1.51-4.91-.24.23,5.5c.87-1.41,1.08-2.62,1.33-3.76ZM15.8,17.35l3.38,2.93,1.09.07c.23.02.04-1.25-.13-1.4l-4.23-4.01,4.51-3.21c-2.5-2.03-4.43-3.48-7.72-4.8-.46,2.61-.37,4.72-.4,7.22l-.07,6.26,1.62-.51.34-4.05c3.18.82-1.74,4.53,2.07,8.15,2.08-3.15-1.8-3.56-.46-6.65ZM24.27,28.67c2.03.82,3.06.71,4.52.49l-.27-5.13c-.69,1.4-.99,2.92-.93,4.17-1.12.1-2.35.24-3.33.46ZM10.95,29.22c-1.52-.63-1.99-.74-3.1-1.05l-1.65-3.53-.22,4.82,4.97-.24Z"/>
      <path class="cls-1" d="M2.94,25.57l-2.87.77.11-18.12,2.32-2.3L.12,6.69C.03,5.41-.02,3.76.21,2.23.42.85,2.3-.06,3.45.17v30.77c-1.2.94-2.03,2.23-1.68,3.37.46,1.5,1.87,1.84,3.41,1.76l1.07-.05c.27-.01.49.87.22.91l-1.29.22c-2.51.44-4.97-.65-5.14-3.47-.11-1.83-.02-3.95.12-5.76l2.77-2.35Z"/>
      <path class="cls-1" d="M31.53,19.06h-5.33s-2.38-3.01-2.38-3.01l2.24-3.09,5.35.08.11,6.02ZM26.35,17.27c.59.59,2.45.64,2.89.01.37-.52.25-1.88-.09-2.49-.31-.55-1.72-.82-2.35-.49-.58.31-1.29.93-1.27,1.34s.44,1.24.82,1.63Z"/>
      <path class="cls-1" d="M12.24,36.78c5.49-1.77,11-.13,16.35-.93.07-1.39.24-2.87.57-3.97l1.15,5.19c-5.85.06-11.82.34-18.08-.29Z"/>
      <path class="cls-1" d="M11.72,39.44c-.72-.44-1.5-1.49-1.97-1.29s-1.21.71-2.2,1.35v-5.31s4.16-.04,4.16-.04l.02,5.29Z"/>
      <rect class="cls-1" x="5.18" y="32.43" width="22.16" height=".87"/>
      <path class="cls-1" d="M27.24,34.32l-7.77.64c-1.99.16-4.37-.41-6.49-.67l14.26.03Z"/>
      <polygon class="cls-1" points="17.82 11.79 14.18 14.05 13.99 9.12 17.82 11.79"/>
    </g>
  </g>
</svg>