<?xml version="1.0" encoding="UTF-8"?>
<svg id="Warstwa_2" data-name="Warstwa 2" xmlns="http://www.w3.org/2000/svg" viewBox="0 0 45.31 46.43">
  <defs>
    <style>
      .cls-1 {
        fill: #fff;
      }
    </style>
  </defs>
  <g id="game-icon-v7-magic-pixarts-store">
    <g id="game-icon-v7-magic-pixarts-store_223">
      <path class="cls-1" d="M13.82,35.5l-4.62,1.69-.35-.75c-1.47,1.26-2.46,2.69-3.5,4.29-1.36,2.1-3.11,3.86-5.1,5.69-.36-.87-.4-2.5.2-3.14l4.68-4.96c-.57-.8.26-2.14.8-3.04,1.06-1.18,3.08-1.77,4.13-2.88l4.45-4.68c.01,1.68-1.27,2.08-2.08,3.41,1.4-.26,2.79-1.78,3.27-3.32l1.36-4.35c.57-1.82,1.89-3.39,4.12-3.32l-2.34,6.05c1.83-2.19,3.39-5.01,3.85-8.03.31-2.01.28-3.82,1.82-5.39.61,1.77.27,3.43-.11,5.22l-1.11,5.19c1.73-1.06,1.12-3.18,1.63-4.61,2.69-7.61-1.71-7.57.46-11.88.43-.85,1.72-1.63,2.87-1.8-1.12,2.21-1.76,4.13-1.18,6.18.3-1.08.33-2.51.69-3.27,1.08-2.26,2.14-4.47,3.57-6.41,1.45-1.95,4.54-1.6,6.44-.68-1.6,1.1-3.79-.47-5.16,2.15,1.51-1.04,2.94-.84,4.35-1.22,2.3-.63,4.55-2.14,7.08-1.02l.8,2.81c1.16,4.11-2.44,3.46-1.57,7.74l1.14-3.05.71,2.27c1.25,4.03-4.15,4.67-6.96,7.37l-3.19.88c2.26.84,3.82-.28,5.58-1.98-.03,1.38-.79,2.79-1.74,3.43-3.91,2.61-6.83-2.63-12.03,1.17,2.21-.29,3.95-.67,5.95,0-1.21,1.27-2.62,1.35-4.34,1.64-.9.15-2.09.95-3,1.29-1.68.64-3.21.87-4.58,2.01l5.92-1.42c-.37,4.21-3.7,2.51-6.68,3.96.76,1.07-4.77,6.19-6.22,6.72ZM36.56,16.96c1.59-1.12,2.68-2.5,4.02-3.88.86-.88,1.69-2.36,1.62-3.7l-.28-5.53c-7.44-1.95-9.15-.17-13.21,5.48-1.62,2.25,1.35,5.54-1.73,9.13,3.99-2.21,7.97-.37,9.57-1.5ZM10.42,35.82c1.85-.96,7.94-5.05,7.93-6.03l-2.45,1.73c-2,1.42-3.99,2.48-5.49,4.3Z"/>
      <path class="cls-1" d="M10.4,38.88c-2.46,1.78-5.36,8.19-8.67,7.23,2.16-2.16,3.86-4.12,5.22-6.64.55-1.01,1.56-1.62,2.64-1.89l4.61-1.14c.38,1.55-.5,2.39-1.66,2.95l-3.23,1.56,1.08-2.07Z"/>
      <path class="cls-1" d="M35.21,13.76l-3.39.31.03-3.57,3.44-3.33c.59-.57,2.32-.38,3.21-.34l-.03,3.41-3.26,3.53Z"/>
      <path class="cls-1" d="M31.84,9.72c-.31.31-1.41.13-1.71-.31l4.08-4.26c.61.73.51,1.69-.04,2.24l-2.33,2.33Z"/>
      <path class="cls-1" d="M36.01,15.76l-.27-1.96,2.64-2.61c.35-.35,1.33-.21,1.77.22l-4.15,4.35Z"/>
      <path class="cls-1" d="M39.89,4.52c-.59,2.03-3.69,1.86-4.47,1.44-.25-.14-.21-.75-.21-1.3l4.69-.14Z"/>
      <path class="cls-1" d="M40.73,10.58c-.74-.17-1.04-.2-1.27-.36-.42-.3-.72-4.56,1.2-5.06l.07,5.42Z"/>
      <path class="cls-1" d="M30.92,10.53c.38.84.72,4.34-1.09,4.81l-.17-4.51c-.01-.32,1.14-.57,1.26-.3Z"/>
      <path class="cls-1" d="M34.36,16.07l-3.98-.05c.5-1.44,4.13-2.03,4.9-.84.18.27-.58.89-.91.89Z"/>
    </g>
  </g>
</svg>