<?xml version="1.0" encoding="UTF-8"?>
<svg id="Warstwa_2" data-name="Warstwa 2" xmlns="http://www.w3.org/2000/svg" viewBox="0 0 49.9 53.29">
  <defs>
    <style>
      .cls-1 {
        fill: #fff;
      }
    </style>
  </defs>
  <g id="game-icon-v6-elemental-pixarts-store">
    <g id="game-icon-v6-elemental-pixarts-store_52">
      <path class="cls-1" d="M26.61,47.2c-.52-.12-2.02.19-2.6.34l-3.84-1.2c-1.55-.48-2.99-1.07-4.65-1.69l-1.07,1.84-.86-1.78-1.42,6.89-1.55-8.75c-.17-.97-1.07-1.86-1.99-2.09l-1.17,3.5c-1-6.57-2.1-7.69-7.45-11.93,8.2-8.36,14.59-13.95,26.84-14.91-6.07-.71-12.31.75-17.34,4.12l-5.75,3.85L.35,18.33l5.06,3.24,2.23-1.78c.27-.22.68-1.01.74-1.35s-.89-.74-1.18-1l-2.21-7.18,6.68,6.79,3.51-1.61-.35-7.31,3.87,5.68c.71.55,2.77.02,3.49-.72L25.18,0l2.58,11.37c.33,1.45.78,2.11,1.98,2.96,1.11.79,1.66,2.04,3.32,1.94l-1.96-1.97,4.32-5.83-.17,6.65c.92.67,2.54,1.49,3.74,1.98l6.15-6.69-2.45,9.17c.45.49,1.47,1.47,2.11,2.03l5.09-3.19-3.3,6.89c-4.58-2.72-9.74-7.27-16.72-7.11,9.15,3.02,13.88,7.07,20,14.01-2.37,2.07-4.11,3.99-5.79,6.28l-.32,3.61-.9-2.69-3.63,2.77-1.82,8.96c-.55-2.34-.87-4.22-1.2-6.87l-5.61,2c-.68.24-1.6,1.5-1.7,2.18l-.71,4.82-1.59-6.09ZM25.55,42.63c5.9-.27,11.3-2.58,15.9-5.76l6.3-4.35c-3.84-3.91-7.94-6.74-12.86-9.04-12.48-5.62-23.09.38-32.52,9.06,6.57,4.55,14.79,10.47,23.18,10.09ZM21.47,45.09l-11.84-4.93c3.41,2.8,7.4,4.73,11.84,4.93Z"/>
      <path class="cls-1" d="M18.66,38.44c.69-1.35,1.23-2.77.46-3.47-.22,1.04-.49,2.04-1.16,2.97-4.03-4.22-3.65-11.13,1.01-14.27l1.86,2.39-.57-2.7c4.38-.79,8.87-1.24,12.55,1.46,1.67,1.23,2.35,3.72,2.44,5.8-1.23-.31-2.61-1.22-3.5-2.14,0-.05-.34.24-1.02.82l4.58,2.05c-.12,3.82-2.55,7.36-5.75,8.71-3.64,1.53-8.03.99-10.89-1.62ZM26.81,26.53c-2.72-1.07-5.95.85-6.3,3.98-.31,2.79,2.01,5.57,5.5,5.28,2.32-.19,4.89-3.01,4.12-5.71-1.33.4-2.73.38-3.36-.39-.5-.6-.32-2.05.05-3.16Z"/>
    </g>
  </g>
</svg>