<?xml version="1.0" encoding="UTF-8"?>
<svg id="Warstwa_2" data-name="Warstwa 2" xmlns="http://www.w3.org/2000/svg" viewBox="0 0 48.84 57.45">
  <defs>
    <style>
      .cls-1 {
        fill: #fff;
      }
    </style>
  </defs>
  <g id="game-icon-v6-elemental-pixarts-store">
    <g id="game-icon-v6-elemental-pixarts-store_67">
      <path class="cls-1" d="M26.86,50.2c-.34,2.11-1.39,4.78-2.29,7.26-.9-1.99-2.04-4.71-2.45-6.85-.17-.89,1.06-2.95.48-3.59l-3.96,1.69,3.33-4.55c.93-1.28-.08-4.27-1.13-5.28-1.41,2.39-2.52,4.32-5.39,5.73l.7-5.24,1.69-1.61c-.34-.08-.83-.08-.86-.24l-.16-1.17c-.84.3-3.36,1.03-3.96,1.98l-2.63,5.67-.25-4.56c-.99.31-2,1.42-2.64,2.39l-7.07,1.22c4.16-7.18,3.18-4.15,7.62-6.99l-3.45-2.27,5.9.62,3.69-2.51-.38-1.5c-2.36.65-5.02-.27-6.99-1.82,2.64-1.4,4.47-1.64,7.97-2.01-1.06-1.08-2.57-2.45-3.85-3.5l-6.47.69,3.75-2.65-3.94-1.31L0,14.35c2.42.25,5.31.7,7.2,1.45.76.3,1.75,2.36,2.7,1.94l.38-4.25,2.43,5.43c.47,1.06,2.81,1.8,3.85,1.94.32.04,1.21-.77,1.02-1.05l-1.09-1.56c-.9-1.29-.99-3.53-.94-5.27,5.16,2.59,2.95,4.19,5.83,5.42.7-1.57,1.31-3.92.61-4.92l-3.41-4.9,4.09,2c.11-.81-.28-2.3-.75-3.44l2.64-7.13c.88,2.26,1.83,4.9,2.4,7.15.17.69-.99,2.16-.39,3.28l4.02-1.73-3.34,4.39c-.8,1.06-.29,4.1,0,4.9l1.48-.21c1.19-1.85,2.86-3.91,5.03-4.73-.71,5.91-.5,4.05-2.18,6.42-.19.26.64,1.21.96,1.17.99-.15,3.49-.79,3.89-1.71l2.29-5.33.5,4.33c.89-.41,1.9-1.52,2.51-2.22l7.11-1.42c-1.22,2.05-2.3,3.79-3.74,5.2l-3.95,1.6,3.66,2.69-5.38-.66c-1.14-.14-4.46,2.08-3.98,2.85,1.18,1.91,3.05-.24,7.01,2.89-2.63,1.59-4.44,1.7-7.9,2.16l3.75,3.35,6.23-.44-3.43,2.22,3.48,1.54c1.78.78,2.76,3.04,4.13,5.22l-6.92-1.1c-.56-1.11-1.85-2.3-2.82-2.11l-.1,4.31c-2.27-3.72-1.07-6.28-6.19-7.27-.31-.06-1,.75-1.23.96.17-.15,2.62,3.13,2.06,6.92l-4.13-3.3-.44-2.63-.6.92c-.07.1-.12.29-.2.19l-.87-1c-.14,1.3-1.06,4.49-.17,5.63l3.35,4.27-3.92-1.68c-.79.28.45,2.36.32,3.18ZM25.17,31.06l4.45,7.24c.67,1.09,1.51,2.19,2.38,3.28l-5.82-11.09c5.45,2.33,9.38,6.1,15,7.68l-14.55-8.89,13.95-.22c-1.64-.73-3.36-.8-5.29-.8h-8.67s15.01-9.49,15.01-9.49c-5.61,2.29-9.89,5.41-15.55,8.28l4.73-8.08c.4-.68.73-2.08.98-3.23-.88,1.1-1.48,2.19-2.22,3.43l-4.37,7.34-.64-19.77-.5,9.82-.23,10.04-6.55-10.93c.91,4.4,4.01,7.17,5.37,11.18-4.9-2.45-8.74-5.46-13.78-7.1l13.53,8.37c-4.47,1.1-7.87-1.06-11.91.89l11.92.3-15.87,9.78c5.78-2.14,10.36-5.78,16.46-8.65-1.11,3.23-5.68,8.22-5.25,10.7l6.09-10.17.25,8.87.48,11.36c.68-6.88-.35-13.47.59-20.14Z"/>
    </g>
  </g>
</svg>