<?xml version="1.0" encoding="UTF-8"?>
<svg id="Warstwa_2" data-name="Warstwa 2" xmlns="http://www.w3.org/2000/svg" viewBox="0 0 50.26 52.68">
  <defs>
    <style>
      .cls-1 {
        fill: #fff;
      }
    </style>
  </defs>
  <g id="game-icon-v6-elemental-pixarts-store">
    <g id="game-icon-v6-elemental-pixarts-store_320">
      <path class="cls-1" d="M25.6,47.58c-.15,1.22-.25,1.79-.73,2.18l-4.04-35.06-5.96,2.07L25.11,0l10.35,16.52c-2.32-.54-3.71-1.09-5.83-1.89l-4.04,32.96ZM23.51,22.24c.4-3.46.42-6.87-.54-10.56-.27,2.02-.12,4.08.11,6.27l.44,4.29Z"/>
      <path class="cls-1" d="M41.73,30.18c-8.73,4.35-11.48,13.88-12.6,22.5-.74-9.48,1.32-22.59,10.52-27.54l-2.67-2.99,13.29,1.9-7.89,10.53-.64-4.4Z"/>
      <path class="cls-1" d="M21.17,52.07c-.89-5.15-2.16-10.35-4.99-15.12-1.92-2.94-4.4-5.13-7.62-6.55l-.69,3.92L0,24.02l13.47-1.98-2.69,3.12c8.58,4.93,11.09,16.99,10.39,26.9Z"/>
      <path class="cls-1" d="M48.04,36.76c-6.49,1.56-11.64,4.79-14.25,11.18-.13-6.71,7.22-12.1,14.25-11.18Z"/>
      <path class="cls-1" d="M16.54,47.46c-2.77-5.61-7.72-9.36-13.63-10.34,6.91-1.14,12.89,3.83,13.63,10.34Z"/>
      <path class="cls-1" d="M17.11,19.95c2.27-1.9,2.96,9.43,2.68,10.44l-2.68-10.44Z"/>
      <path class="cls-1" d="M30.52,30.37c-.02-.78.49-11.81,2.85-10.27l-2.85,10.27Z"/>
    </g>
  </g>
</svg>