<?xml version="1.0" encoding="UTF-8"?>
<svg id="Warstwa_2" data-name="Warstwa 2" xmlns="http://www.w3.org/2000/svg" viewBox="0 0 59.44 45.69">
  <defs>
    <style>
      .cls-1 {
        fill: #fff;
      }
    </style>
  </defs>
  <g id="game-icon-v6-elemental-pixarts-store">
    <g id="game-icon-v6-elemental-pixarts-store_300">
      <path class="cls-1" d="M46.03,13.58c-8.97,9.37-19.97,15.82-32.13,19.38-4.37-6.9-3.9-15.19.59-21.42,4.41-6.13,12.04-9.09,19.67-7.3,5.14,1.21,9.44,4.16,11.86,9.34ZM25.21,18.13c-.59,3.28-3.14,4.97-5.73,4.02-2.07-.77-1.89-2.99-1.52-5.17l-3.03,3.38c-1.14-2.49,1.85-8.49,5.73-8.11.5.05,1.67.58,1.6,1.04l-.35,2.4c.42-.26,1.1-1.48,1.26-2.22.13-.57-.71-1.69-1.29-2.14-2.25-1.75,5.53-4.38,6.65-4.15.1.78.01,1.54.27,1.43l1.08-.47,4.15-1.82c-.86-.4-2.14,0-3.47.1-12.46.98-8.51,4.6-10.76,4.93-2.4.34-4.26,2.15-4.97,4.57-1.48,4.98-2.36,3.91,1.1,10.2-.09-2.53-.65-4.3.47-5.76,1.51,1.64,2.54,2.7,3.99,3.92l.78,1.92.58-2.96c.63-.43,2.04-1.63,2.78-1.85l3.98-1.13-2.32-.69c-.42-.13-.62-1.04-.97-1.43ZM34.8,17.95c.24-.94.46-2.46.94-3.06.42-.52,1.83-.77,2.63-1.07-.94-.41-2.42-.63-2.74-1.31s-.61-2.05-.83-2.92l-.9,2.9c-.21.68-1.98.95-2.72,1.33.78.37,2.49.66,2.72,1.35l.9,2.78ZM17.08,27.1l-.54,1.84-2.91-1.79c.29.82,1.33,1.98,2.06,2.19,1.09.31,6.75-.61,5.29-1.93-1.37.44-2.59.31-3.91-.3Z"/>
      <path class="cls-1" d="M7.77,41.49c1.27-.53,2.1-2.68,2.42-3.93l2.98-1.12-.06,3.12c0,.26-1.03,1-1.17.78l-.93-1.47-1.96,2.92c15.25-2.01,37.96-15.32,46.6-28.31-1.36-.36-2.6-.3-3.53-.05l.41,2.02c.11.55-1.45,1.51-1.92,1.21-.78-.49-.34-1.65.66-2.48l-1.59.51c1.09-2.71,3.96-3.14,6.74-2.38,1.25-1.55,2.14-3.88,1.76-6-.4-2.24-3.88-2.9-5.21-2.05-.24.15-.16,1.4-.42,1.47l-1.18.34c-.36.1-1.79.21-1.69-.16l.45-1.76.35,1.72c.11,0,.98-.48,1.11-.78s.07-.84,0-1.3c-5.04-.45-8.71,2.57-10.85,1.49,3.43-1.62,6.94-2.22,10.83-2.72-1.38-2.49-3.68-1.16-6.18-1.25C47.11.51,49.08-.02,51.16,0c.88.01,1.84,1.82,2.21,2.54,1.86.34,4.46.86,5.47,2.51,1.66,2.71-.63,5.02-.81,7.45-.14,1.85,1.38,3.6-.59,5.51l-3.25,3.16c.89-2.5,3.23-3.77,2.36-6.76-10.86,14.02-30.17,25.16-47.47,28.78,1.9,2.48,3.82.5,6.47,1.1l-4.16,1.22c-2.01.59-3.86-.36-4.16-2.45l-3-.39c-1.42-.19-3.17-1.17-3.75-2.23-.81-1.47-.55-3.6.24-5.02.92-1.68.86-2.31.14-3.87-.86-1.89,1.24-4.39,2.84-4.81-.78,1.83-1.8,2.98-1.28,4.8l7.09-7.28c1.71,1.39-5.45,6.02-6.29,8.33l2.95.25c-.05.25-.53,1.45-.9,1.37l-2.21-.49c-1.18,1.07-2.53,3.89-1.73,5.77.87,2.06,4.02,2.99,6.43,2Z"/>
      <path class="cls-1" d="M22.57,40.62c9.59-4.28,18.32-9.02,26.2-16.12-.34,6.23-3.78,11.53-8,14.42-5.43,3.73-11.95,4.54-18.2,1.7ZM28.95,40.14c4.73.49,7.32-2.79,10.64-4.77,1.8-1.07,5.83-1.14,4.14-5.03-1.32,2.83-3.05,3.76-5.24,4.9l-4.99,2.61-4.55,2.29Z"/>
      <path class="cls-1" d="M9.94,28.06c1.7.4-3.38,4.62-.89,5.98,1.64.89,4.15.63,6.04.02,11.82-3.78,26.82-12.09,33.75-22.5.51-.76.64-3.03-.08-3.44-1.19-.66-3.25-.31-4.89-.15-.31-1.4,4.99-1.93,6.16.02,4,6.66-23.61,26.08-38.68,27.62-1.44.15-3.84-.63-3.94-2.19-.12-1.87,1-3.84,2.53-5.37Z"/>
      <path class="cls-1" d="M37.71,26.41c-.47-1.17,1.1-3.05,2.36-2.51.95.4,1.37,2.23.61,2.78-.84.61-2.5.93-2.97-.26Z"/>
      <path class="cls-1" d="M7.01,40.01c-.29.38-1.92.36-2.08-.05s.16-1.08.59-1.66c.91-1.24,2.25-1.74,3.58-1.03l-2.09,2.74Z"/>
      <path class="cls-1" d="M49.64,18.53c-.32,1.34-2.04,2.71-3.77,1.7l2.15-.8c-.62-.45-1.45-1.35-1.2-1.8s1.15-1.21,1.66-1.31c.59-.11,1.53.97,1.58,1.68l-1.35-.66c-.33-.16-.93.72-.95.97l1.89.22Z"/>
    </g>
  </g>
</svg>