<?xml version="1.0" encoding="UTF-8"?>
<svg id="Warstwa_2" data-name="Warstwa 2" xmlns="http://www.w3.org/2000/svg" viewBox="0 0 54.52 55.21">
  <defs>
    <style>
      .cls-1 {
        fill: #fff;
      }
    </style>
  </defs>
  <g id="game-icon-v6-elemental-pixarts-store">
    <g id="game-icon-v6-elemental-pixarts-store_512">
      <path class="cls-1" d="M21.89,16.12l16.59,16.22,13.25-13.55L35.14,2.57l-13.25,13.55ZM43.72,14.33l-5.22,2.14,2.87,2.62-10.22,2.43,4.74-3.5-3.05-2.14,7.08-4.25c1.2.68,2.76,1.85,3.79,2.7Z"/>
      <path class="cls-1" d="M6.17,55.18l4.89-6.65,17.01-18.04c-1.28-1.53-2.28-2.5-3.68-3.5l-13.47,13.2c-3.08,3.02-6.19,5.67-9.8,8.14-.44.3-1.19,1.36-1.11,1.86.25,1.7,4.11,5.34,6.17,4.98Z"/>
      <path class="cls-1" d="M33.92,1.48c-1.48-.8-3.24-1.4-4.71-1.48l-10.18,10.3c.12,1.5.7,3.13,1.78,4.61L33.92,1.48Z"/>
      <path class="cls-1" d="M44.03,35.48l10.45-10.76c.21-1.28-.44-2.99-1.52-4.56l-13.35,13.44c1.64.85,3.15,1.51,4.42,1.89Z"/>
      <path class="cls-1" d="M16.77,23.43c-4.82.92-2-.86-6.52,1.99l5.83-.47c1.28-.1,3.15-2.17,4.19-2.92l4.57-1.26c-1.67-.82-3.1-.32-4.77-.64-1.86-.35-4.16-3.54-4.47-5.36-.41-2.36-.68-3.69-1.24-5.99l-1.15,1.02c1.16.41,1.74,3.99.53,4.05-1.94.1-3.72.19-5.28.4l4.95,1.32,4.55,5.27c.47.54-.46,2.45-1.17,2.59Z"/>
      <path class="cls-1" d="M34.42,37.53c.97.3,2.41,2.29,2.34,3.34l-.38,5.7,2.33-6.9-4.21-4.11.51-5.5c-2.2,1.35-1.83,3.78-1.94,5.88l-2.66,1.91c-.76,1.01-1.31,3.05-1.58,4.7l2.23-3.63c.55-.89,2.43-1.67,3.34-1.39Z"/>
      <path class="cls-1" d="M32.17,28.35l-4.96-5.07c-.4-.41-1.8.11-1.87.61-.06.4.1,1.63.39,1.9l4.3,3.96c.49.16,2.44-1.25,2.15-1.41Z"/>
      <path class="cls-1" d="M47.52,11.18c-.31-1.69-3.54-5.32-5.36-3.42l3.87,4.09c.29.3,1.57-.24,1.49-.66Z"/>
    </g>
  </g>
</svg>