<?xml version="1.0" encoding="UTF-8"?>
<svg id="Warstwa_2" data-name="Warstwa 2" xmlns="http://www.w3.org/2000/svg" viewBox="0 0 44.11 46.69">
  <defs>
    <style>
      .cls-1 {
        fill: #fff;
      }
    </style>
  </defs>
  <g id="game-icon-v6-elemental-pixarts-store">
    <g id="game-icon-v6-elemental-pixarts-store_102">
      <path class="cls-1" d="M7,40.59l.79,3.2c1.16-.09,2.46-.5,3.49-.3,9.94,1.91,14.88-3.53,20.69-10.57-4.35-7.47-11-13.11-19.52-15.76-5.87,6.34-10.54,14.95-5.45,23.43ZM25.05,34.88s3.78-4.78,3.76-3.03c-.02,2.5-8.26,9.98-12.2,9.28,3.35-1.38,6.1-3.35,8.44-6.25ZM12.88,20.44c.44-.61,2.4.06,2.3.76l-3.11,4.16c-2.11,2.82-3.31,5.76-4.1,8.89-1.06-5.47,1.86-9.6,4.91-13.81Z"/>
      <path class="cls-1" d="M2.06,12.41c-.18,3.23,4.04,3.17,3.4,8.02,4.23-4.68-2.65-5.87.44-10.57,1.03-1.56.66-3.6-.95-4.51,1.42,4.32-2.71,3.91-2.89,7.07Z"/>
      <path class="cls-1" d="M30.92,39.61c4.13-2.61,7.67,3.01,11.11-2.39l2.08-2.33c-1.08.12-2.07.48-2.98,1.02-2.96,3.35-7.38-1.77-10.21,3.71Z"/>
      <path class="cls-1" d="M34.38,3.97c-.64.26-1.44.76-1.84,1.21,3.17,4.44-.71,5.89.58,7.27.76.82,4.59-3.47,3.52-7.49-.18-.67-1.67-1.23-2.25-.99Z"/>
      <path class="cls-1" d="M8.3,12.51c.29-2.82,3.75-2.73,4.15-5.47.15-1.07-.48-2.23-.96-3.34-.55-1.28.72-2.45,1.88-3.7-1.35.31-2.84,1-3.79,2.3-.57.78-.28,2.32.08,3.2,1.46,3.57-2.81,4.26-1.36,7.01Z"/>
      <polygon class="cls-1" points="30.17 20.1 30.3 16.46 26.93 17.35 26.51 21.07 30.17 20.1"/>
      <polygon class="cls-1" points="30.11 24.72 33.96 23.79 34.45 20.21 31.26 20.9 30.11 24.72"/>
      <path class="cls-1" d="M.33,20.08c-1.49,3.31,2.6,3.18,2.5,6.84,2.4-4.89-2.59-2.88-.47-8.82-.78.4-1.71,1.29-2.02,1.98Z"/>
      <polygon class="cls-1" points="22.44 17.8 25.91 16.45 25.83 13.11 22.48 14.39 22.44 17.8"/>
      <path class="cls-1" d="M21.41,10.57l-3.2,1.32.05,3.57,2.89-1.81c.64-.4.39-2.31.26-3.08Z"/>
      <polygon class="cls-1" points="34.54 19.04 34.17 15.77 31.43 16.25 31.28 19.86 34.54 19.04"/>
      <path class="cls-1" d="M33.28,28.19c.68-.08,2.54-.3,3.02-.93.62-.82.9-2.27,1.07-3.38l-2.71.79-1.38,3.52Z"/>
      <polygon class="cls-1" points="30.33 15.32 30.24 12.51 27.04 13.02 27.01 16.2 30.33 15.32"/>
      <polygon class="cls-1" points="22.65 10.23 22.53 13.22 25.82 12.01 25.96 9.48 22.65 10.23"/>
      <path class="cls-1" d="M34.67,43.74c.63-.67,1.19-1.64.72-2.76-3.26,3.32-2.28,1.08-6.38,1.76l2.68,1.52c.78.44,2.35.15,2.98-.51Z"/>
      <path class="cls-1" d="M25.28,22.01l.54-4.42-3.89,1.64c1.26,1.22,1.71,1.58,3.35,2.78Z"/>
      <path class="cls-1" d="M37.33,19.57c-.33-.08-1.51.08-1.64.39-.34.82-.58,2.5-.63,3.48.95-.2,1.85-.32,2.19-.7.37-.41.87-2.97.07-3.17Z"/>
      <polygon class="cls-1" points="28.84 25.27 30.01 21.17 25.84 22.4 28.84 25.27"/>
      <path class="cls-1" d="M17.25,16.96l-.07-4.4c-1.24.98-2.06,1.85-2.95,3.18l3.02,1.23Z"/>
      <path class="cls-1" d="M18.07,17.24l3.25,1.78.15-4.16c-1.6.66-2.33,1.12-3.4,2.38Z"/>
      <path class="cls-1" d="M42.88,27.94c-.39,5.03-4,2.96-3.3,6.53l3.58-3.18c.68-.6.22-2.74-.28-3.34Z"/>
      <path class="cls-1" d="M33.58,32.29c3.13.36,4.79-2.43,5.38-4.89-3.35.91-1.22,2.62-5.38,4.89Z"/>
      <path class="cls-1" d="M14.73,13.08c2.28-1.19,3.03-2.52,2.73-4.42-2.37.46-3.01,2.55-2.73,4.42Z"/>
      <path class="cls-1" d="M31.77,28.77l1.83-3.75c-1.82.33-2.51.49-4.2.97l2.37,2.77Z"/>
      <path class="cls-1" d="M12.76,15.53c.18.06.75-.5.79-.77l.53-3.96c-1.49.5-3.08,4.17-1.32,4.73Z"/>
      <path class="cls-1" d="M19.03,8.49c-.45.32-.6,1.25-.72,2.17,1.35-.53,2.38-.98,3.74-1.8-1.02-.87-2.38-.83-3.03-.37Z"/>
      <path class="cls-1" d="M35.75,28.85l-3.71.66,1.5,2.37c1.13-1.04,1.75-1.82,2.2-3.03Z"/>
      <path class="cls-1" d="M23.96,45c3.81.69,2.59,2.53,5.85,1.23-2.68-.56-3.23-2.71-5.85-1.23Z"/>
      <path class="cls-1" d="M31.33,15.2l2.85-.58c-1.22-1.33-1.58-1.66-2.83-2.34l-.02,2.92Z"/>
      <path class="cls-1" d="M16.09,4.74l2.36-1.47c.53-.33.83-1.66.73-2.35-1.59,2.39-3.38,1.13-3.09,3.82Z"/>
      <path class="cls-1" d="M26.85,11.96l3.38-.48c-1.27-1.01-1.92-1.31-3.22-1.78l-.16,2.26Z"/>
      <polygon class="cls-1" points="35.4 19.1 37.38 18.41 35.25 15.68 35.4 19.1"/>
      <path class="cls-1" d="M38.56,23.24l-.86,3.59c1.07-.39,1.65-.94,1.71-1.58.08-.85,0-1.56-.85-2.02Z"/>
    </g>
  </g>
</svg>