<?xml version="1.0" encoding="UTF-8"?>
<svg id="Warstwa_2" data-name="Warstwa 2" xmlns="http://www.w3.org/2000/svg" viewBox="0 0 49.8 49.15">
  <defs>
    <style>
      .cls-1 {
        fill: #fff;
      }
    </style>
  </defs>
  <g id="game-icon-v6-elemental-pixarts-store">
    <g id="game-icon-v6-elemental-pixarts-store_271">
      <path class="cls-1" d="M29.59,40.44c-2.04,1.73-4.18,2.54-6.9,3.87,6.83.4,12.32-8.66,13.55-14.6,1.07,3.88-.34,7.75-2.93,10.74-4.77,5.52-8.95,5.06-15.26,5.76l6.79.18c-4.42,1.5-8.98,1.48-13.5-.26l.69-.62c-2.47-.98-4.79-1.93-6.49-4.08l2.06.48C3.56,38.51.26,34.4.09,28.8c2.59,6.88,7.7,12.45,15.24,13.42-2.4-2.18-5.67-1.39-7.44-3.92,7.37,3.15,15.71,3.85,20.91-2.77,1.85-2.35,3.02-5.31,1.82-8.28-1.04,4.06-4.05,6.66-8.21,7.4-6.04,1.08-14.23-4.84-13.86-10.89.89,1.19,1.51,2.22,2.04,3.37,1.93,4.15,6.66,6.37,10.98,4.37-1.98-.52-4.03-.56-5.62-1.69-4.86-3.43-7.06-9.57-5.16-15.41C13.62,5.72,23.6-2.04,32.91.48c-4.66.58-9.43,1.02-12.35,5.01,5.86-3.13,11.69-3.93,17.71-1.85,3.81,1.32,7.16,3.52,9.22,6.95-1.35-.95-2.33-1.66-4.24-2.4,1.13,1.94,2.26,3.08,3.59,4.66,2.09,2.49,2.94,5.91,2.69,9-1.87-6.96-9.43-16.58-17.04-13.57l.17-1.1c.03-.19-.27-.47-.56-.79l1.18-.53c-4.65-.44-9.4.93-12.94,4.23-3.3,3.08-4.7,7.6-3.28,11.78.36-3.03.53-5.96,3.14-7.5-.44,2.03-1.08,3.52-.16,5.54,2.36-3.84,6.62-5.3,10.9-3.32,5.29,2.45,8.02,8.45,6.87,14.46-.07-4.11-3.85-12.86-9.13-13,6.33,2.87,7.58,12.06,3.74,17.63-1.14,1.66-2.72,3.15-4.03,4.48l1.23.28ZM17.02,27.14c-3.02-2.98-4.28-6.32-4.15-10.47-1.28,2.5.77,10.03,4.15,10.47Z"/>
      <path class="cls-1" d="M26.82,49.13c2.22-.73,13.37-6.17,9.8-9.37,2.86-2.69,2.23-4.69,3.86-4.82.62-1.91.56-4.21.57-6.58,2.2,3.77.24,7.47-1.91,10.62.61-.57,2.03-1.54,2.5-2.17,3.11-4.07,2.75-10.17.61-14.73l-.12,5.56c-1.4-3.95-2.01-7.22-4.53-10.19-3.15-3.73-7.46-4.89-12.49-4.21,6.25-2.66,13.61-.51,17.67,4.99,1.52,2.06,2.25,4.37,3.48,6.9l-.91-4.51c6.56,8.35,5.28,22.82-5.39,28.07,2.55-3.66,5.5-6.39,5.81-10.57-1.79,3.01-3.27,5.49-6,7.51l.99-3.29c-3.79,3.93-8.08,7.16-13.91,6.79ZM47.64,34.08c1.05-2.13,1.39-4.54.01-6.88v6.88Z"/>
      <path class="cls-1" d="M18.97,37.24c-2.39,1.11-4.64.18-6.85-.67-5.59-2.14-9.72-6.59-11.11-12.5C.06,20-.35,15.75,1.5,11.91c.08,3.41-.17,6.33.74,9.54.71-4.84.22-10.43,4.11-14.61l-.45,2.74c2.45-3.66,4.98-7.26,9.51-8.43C7.25,7.96,3.92,13.12,5.37,24.4c-1.02-1.21-1.21-2.63-1.5-4.35-.62,3.07.32,6.15,1.78,8.96l.27-3.06c3.75,7.98,4.5,8.95,13.05,11.28Z"/>
      <path class="cls-1" d="M49.69,5.94c-.24.91-2.23.07-2.75-.72-1.49-2.28-3.41-3.48-6.19-4.39,1.91-.75,3.69.21,5.61,1.05,1.55.67,3.99,1.58,3.33,4.06Z"/>
      <path class="cls-1" d="M7.05,2.7c-1.79,1.76-3.03,3.56-4.54,5.62C1.86,6.46,4.58-.05,7.13,1.01c.5.21.37,1.25-.08,1.69Z"/>
      <path class="cls-1" d="M6.07,46.1c-2.36.23-7.92-4.94-5.45-5.61.42-.11,1.26.12,1.54.48l3.91,5.13Z"/>
      <path class="cls-1" d="M30.34,8.56l-7.57,2.2c1.83-1.5,4.44-3.45,7.57-2.2Z"/>
      <path class="cls-1" d="M40.81,11.66l-5.88-2.43c1.94-.3,4.63-.15,5.88,2.43Z"/>
    </g>
  </g>
</svg>