<?xml version="1.0" encoding="UTF-8"?>
<svg id="Warstwa_2" data-name="Warstwa 2" xmlns="http://www.w3.org/2000/svg" viewBox="0 0 54.99 54.03">
  <defs>
    <style>
      .cls-1 {
        fill: #fff;
      }
    </style>
  </defs>
  <g id="game-icon-v6-elemental-pixarts-store">
    <g id="game-icon-v6-elemental-pixarts-store_241">
      <path class="cls-1" d="M19.79,3.47c-2.14-1.09-3.71-1.82-5.03-3.47l-1.9,1.71C8.38,3.01,4.15,4.38,0,6.13c2.92.21,5.68.28,7.7,2.29,1.7,1.69,1.88,4.32,1.47,6.52l-.58,3.14c2.35-1.05,4.42-1.6,6.34-.27,1.42.98,1.94,3.23,2.16,5.4,1.74-1.12,3.91-2.04,6-1.31,1.63.57,2.23,1.93,2.54,3.87,2.01-.84,3.81-1.65,5.64-2.91-2.39-2.84-5.01-4.54-8.03-6.45.91-2.15,1.61-4.31,1.57-6.55-2.7,3.8-4.72,7.39-6.65,11.2.2-4.65,4.65-8.52,6.64-13.23-3.02.78-5.61,1.31-7.65,2.71l-3.21,2.21c-1.45,1-2.71,3.37-3.52,3.41-1.66.09,1.4-2.29,2.91-4.95.4-.7.49-2.14,1.03-2.3.45-.13,1.62.32,2.14.25,2.67-.37,5.38-1.37,7.96-2.62l-8.52-3.35-1.94.34,1.63-1.26,4.15,1.19Z"/>
      <path class="cls-1" d="M7.21,35.21l1.25.59c.67.32-1.37.58-1.25,4.54.1,3.36.98,6.34,3.84,8.56,4.26,3.3,6.25,4.62,12.57,2.15,2.31-.9,4.8-1.66,7.14-.85l3.5,3.82c-.14-1.59-.6-3.46-1.1-4.37-3.29,0-4.4-2.88-9.92-.57-4.7,1.96-9.94.05-11.53-4.81-1.1-3.37.7-7.28,3.71-8.8,1.08.35,2.84,1.84,2.69,2.98-.12.92-1.34,1.96-2.28,2.81l1.92,3.79.09,1.66c.02.33,1.23.86,1.44.6.41-.52,1.01-1.64,1.52-1.77l1.86-.48-3.49.27-1.64-3.74,2.74-1.17c.49-.21,1.34-.86,1.51-1.31.14-.38-.07-1.36-.29-1.71l-3.63-5.77-2.42-.7c.44-3.63,4.43-.98,9.39-5.02l-3.63.15c-2.1.08-3.64.71-5.45,1.57-1.04.5-1.83.63-2.35,1.54l-3.41,2.03c.95,1.92-1.88,2.71-2.81,4Z"/>
      <path class="cls-1" d="M54.99,14.78c.02-.35-1.12-.21-1.51-.25-1.72-.9-3.34-2.42-4.81-3.79l-5.73-5.28,1.31,3.4-7.08-3.73,4.65,4.54-5.01-.33,1.15,1.33-4.28,1.73,1.65.8-2.77,2.8c1.06,1.43.54,2.99-.5,4.69l-6.34-4.87c-.24-.18-.68-.36-.96-.41-.21-.04-.6.72-.4.81.19.09.93.34,1.13.49l5.73,4.55c5.26-.58.66,1.99,8.6,5.82.71-2.75-.26-5.18-1.03-8.03-.72-2.66,1.62-4.94,3.69-4.58,1.6,2.97.53.69,4.86,3.22.3.17,1.55-.1,1.34-.38-1.52-2-2.54-1.37-1.69-2.5,2.02-.02,3.84.79,5.31,1.44.23-.11,1.01-.71,1.04-.48.03.27.1.67.05.88l-.32,1.28,1.85-1.61.08-1.51Z"/>
      <path class="cls-1" d="M18.58,30.11c3.97,2.55,7.8,3.89,12.12,4.7,1.43-.63,1.95-9.36,1.36-10.83-4.97,2.01-8.79,3.69-13.48,6.13Z"/>
      <path class="cls-1" d="M35.12,37.85c1.17.86,1.61,2.31,2.09,3.83.73-.68.84-1.24,1.15-1.27l1.87-.2c-2.16-.84-3.75-2.01-5.2-3.8l-1.89-2.32c3.17-1.43,5.47-2.85,6.4-6.11l-5.99-3.8c-1.03,3.36-.91,6.53-.41,9.46l-1.68,1.51,3.66,2.7Z"/>
      <path class="cls-1" d="M25.18,34.23l-5.99-2.64c1.39,2.67,2.43,4.33,4.44,6.84l1.55-4.2Z"/>
      <path class="cls-1" d="M46.46,31.1c-.23.35-1.62.11-2.08.07l2.37,3.12c.79-1.13,1.21-1.5,1.12-1.85l-.31-1.34,1.11-3.45-2.21,3.44Z"/>
      <path class="cls-1" d="M26.38,7.9c1.17-.34,1.78-1.4,2.06-2.16-1.75-.76-2.42-.79-2.76.07-.24.61.17,2.25.7,2.09Z"/>
      <path class="cls-1" d="M30.24,42.89l-1.41-.99c-.96.81-1.71,1.33-2.7,1.92l3.01.76c.37.09,1.41-1.47,1.1-1.69Z"/>
    </g>
  </g>
</svg>