<?xml version="1.0" encoding="UTF-8"?>
<svg id="Warstwa_2" data-name="Warstwa 2" xmlns="http://www.w3.org/2000/svg" viewBox="0 0 55.53 51.13">
  <defs>
    <style>
      .cls-1 {
        fill: #fff;
      }
    </style>
  </defs>
  <g id="game-icon-v6-elemental-pixarts-store">
    <g id="game-icon-v6-elemental-pixarts-store_522">
      <path class="cls-1" d="M6.15,28.18l40.33.13c5.32.02,8.4-2.98,8.98-7.36.72-5.45-4.64-6.22-7.15-8.97-3.5-3.84-6.22-7.41-12.25-6.23C33.46,2.67,29.79-.92,24.62.22c-3.51.77-7,3.37-8.65,7.35-6.09-.86-8.5,2.34-9.8,7.48C2.75,16.07-.21,18.29.01,21.98c.18,2.99,2.59,6.19,6.14,6.2Z"/>
      <path class="cls-1" d="M24.51,30.03l-3.76,10.11,5.01.26c-1.2,3.72-2.35,7.04-3.2,10.73l10.48-14.56-5.33-.31,2.88-6.05-6.07-.18Z"/>
      <path class="cls-1" d="M39.25,30.12l-2.71,7.02,3.53.19-1.9,6.96c2.75-3.31,4.78-6.12,7.12-9.4l-3.36-.61,2.09-4.24-4.78.07Z"/>
      <path class="cls-1" d="M11.36,30.07l-2.81,7.09,3.52.13c-.85,2.64-1.55,4.69-2.16,7.38l7.47-9.86-3.47-.55,1.95-4.07-4.5-.11Z"/>
    </g>
  </g>
</svg>