<?xml version="1.0" encoding="UTF-8"?>
<svg id="Warstwa_2" data-name="Warstwa 2" xmlns="http://www.w3.org/2000/svg" viewBox="0 0 51.27 50.6">
  <defs>
    <style>
      .cls-1 {
        fill: #fff;
      }
    </style>
  </defs>
  <g id="game-icon-v6-elemental-pixarts-store">
    <g id="game-icon-v6-elemental-pixarts-store_122">
      <path class="cls-1" d="M45.24,26.44c1.67,1.23,3.81,1.45,6.02.42-1.75-.85-3.74-1.43-6.02-.42Z"/>
      <path class="cls-1" d="M18.61,1.88c-.47,2.34-.4,4.92,1.25,6.41,1.19-2.7-.08-4.74-1.25-6.41Z"/>
      <path class="cls-1" d="M33.3,48.94c.23-2.48-.08-4.85-1.63-6.7-.98,2.43-.11,4.94,1.63,6.7Z"/>
      <path class="cls-1" d="M41.3,28.21c1.87-4.87,3.05-9.91,3.49-15.12l1.1-13.09c-9.79,7.89-17.36,6.69-28.05,13.12-8.74,5.25-12.36,15.49-8.33,24.68,2.3-1.87,2.87-3.64,2.62-6.41-.29-3.15-2.1.24-1.28-6.57l1.6,4.52c.47,1.33.16,3.43.07,4.75,7.91-6.28-4.7-9.02,6.5-19.05.22,6.57,1.79,5.48.88,12.56,5.6-3.39,1.58-8.09,3.53-12.23,1.17-2.47,3.7-3.81,5.81-5.49-1.61,3.9-.04,5.18-.57,10.51,9.48-7.03,2.29-5.47,6.38-11.43-.2,1.94-.37,3.36-.33,5.51,2.63-1.94,3.93-4.43,6.45-6.56-4.4,7.5-10.48,13.28-17.15,18.67-6.41,5.18-16.78,14.95-19.71,22.68.85.63,1.93,1.18,2.63,1.34,1.27-3.63,2.75-6.54,5-9.24,9.17,1.43,16.91,1.72,23.71-4.95,2.42-2.37,4.42-4.99,5.66-8.2ZM31.12,22.13c1.55-1.39,3.5-2.23,5.68-1.91,1.82,0,3.33-.34,5.15-1.16-2.88,7.58-7.43,5.87-13.99,5.91l3.17-2.85ZM21.86,37.28c-2.1-.53-4.11-.53-6.41-.33,9.36-10.13,10.75-2.14,21.09-5.13-3.11,5.08-9.25,6.83-14.68,5.46Z"/>
      <path class="cls-1" d="M13,12.99c-.63-3.83-3.45-5.46-6.21-6.78,1.39,2.91,3.05,6.25,6.21,6.78Z"/>
      <path class="cls-1" d="M44.52,43.49c-1.23-2.75-2.91-5.67-5.99-6.11.71,3.29,3.28,4.97,5.99,6.11Z"/>
      <path class="cls-1" d="M6.1,24.28c-1.78-2.08-4.25-1.84-6.1-1.04,2.06,1.04,3.97,1.99,6.1,1.04Z"/>
      <path class="cls-1" d="M48.11,33.9c-1.25-1.99-2.97-2.61-5.06-2.19,1.2,1.64,3.25,2.52,5.06,2.19Z"/>
      <path class="cls-1" d="M27.31,16.19c.07-.52-.86-1.66-1.37-1.46-1.18.48-2.18,2.49-.08,3.64.65-.52,1.35-1.46,1.45-2.18Z"/>
      <path class="cls-1" d="M18.33,22.36c.21-.46-.58-1.65-1.08-1.75-.6-.13-1.72,1.18-1.49,1.75.24.58.65,1.14,1.43,2.14.59-1.05.87-1.55,1.14-2.13Z"/>
      <path class="cls-1" d="M8.25,18.37c-1.49-1.64-3.13-2.26-4.86-2.28,1.05,1.8,2.9,3.05,4.86,2.28Z"/>
      <path class="cls-1" d="M25.26,33.39c-.45.2-1.45.86-1.76,1.17.5,1.43,3.11,1.96,3.6.19.17-.62-1.32-1.6-1.84-1.36Z"/>
    </g>
  </g>
</svg>