<?xml version="1.0" encoding="UTF-8"?>
<svg id="Warstwa_2" data-name="Warstwa 2" xmlns="http://www.w3.org/2000/svg" viewBox="0 0 60.5 60.7">
  <defs>
    <style>
      .cls-1 {
        fill: #fff;
      }
    </style>
  </defs>
  <g id="game-icon-v6-elemental-pixarts-store">
    <g id="game-icon-v6-elemental-pixarts-store_275">
      <path class="cls-1" d="M25.39,53.18c1.23,3.74,2.8,2.13,6.21,5.26l4.77,1.44-8.53.43c-3.51.18-7.14.81-10.61-.08-1.59-.41-3.61-1.51-5.1-1.21-2.66.54-4.5.93-7.37.82l6.56-3.21c2.33-1.14,2.99-4.39,2.13-6.81-.74-2.07-.54-4.07.94-5.46l-.27,5.09c.85.71,1.89,1.42,2.18,2.01s-.15,1.9-.26,3.29c1.26-.77,2.29-1.87,3-3.39l-2.51,1.02.95-5.25c.27-1.49.85-3.28.4-4.7-1.45-4.46.32-3.89.99-8.83,1.96,1.93-.86,3.6.96,5.91,2.42-2.35,2.67-5,3.65-8.63.89,1.39,1.75,3.08,2.6,4.82.22-4.54-3.48-5.32-4.1-8.78l3.39,1.66-4.47-5.4-4.33,3.15-.58-1.36-2.74,3.02,1.81-.44c-.03,3.42-4.02,5.72-3.22,7.27.97,1.88,1.34,5.39-1.5,6.02.32-1.44.51-4.44-1.03-4.2-3.21.51-3.26,4.75-2.75,8.08-2.49-.92-2.27-4.08-2.09-6.51-2.02,1.5-1.47,3.77-1.5,6.26-1.77-1.43-1.83-3.79-1.62-6.23L.01,39.17c-.19-2.98,1.71-4.21,3.17-6.22,1.39-1.9,3.03-4.32,4.27-6.22-.8-3.82.08-4.2,2.48-7,2.85-3.31-2.11,5.52-.75,5.23,8.92-4.49,2.34-11.68,10.1-14.26l-2.73,5.08c3.03-.42,4.77-1.25,7.26-2.64l2.03,4.79c.71,1.67,2.88,4.66,4.92,4.16,4.14-1.01,4.72-7.35,6.22-8.92.28-.3,1.25.91,1.67,1.05l4.66,1.61c-.61-2.75-2.06-4.39-.25-6.33l1.16,3.58c2.85,3.95,2.09,9.52,5.59,10.8.32.12,1.34-.34,1.29-.65-.71-4.12-2.4-2.3-1.6-6.14,1.97,4.49,4.73,2.69,3.6,9.49l4.66,6.82c1.33,1.95,3.44,3.43,2.5,5.95l-1.27-1.66c.65,2.88.32,5.24-1.5,7.06.19-2.81.66-4.91-1.21-6.67-.13,2.76.29,5.62-2.62,6.96.69-3.12.79-6.26-1.65-8.62-.51-.49-1.79,1-1.81,1.7l-.12,3.29c-2.41-1.57-2.44-3.92-1.43-6.05,1.22-2.59-2.44-3.6-3.18-8.1l2.65,1.2c-.03-1.51-.29-.43-3.41-3.59-.13-.13-.9-.29-.86-.11l.26,1.14c-1.56-.34-3.3-1.61-4.44-2.8l-2.81,3.52c-.56.7-.99,1.28-1.45,1.92l3.03-1.36c-.68,3.3-3.92,2.92-3.68,7.53.72-1.35,1.42-2.6,2.25-3.83,1,3.82,1.8,6.07,3.8,9.31l1.24-4.38c3.93,3.78-2.29,7.16,2.69,12.26l2.21-2.97c.68,3.64-1.83,6.68.44,9.98,2.14,3.11,6.85,2.11,6.1,3.89l-7.56.29c-3.46.13-5.7.37-9.07-.81l-4.07-1.42c2.81-2.5,2.9-4.13,3.71-7.88l1.17,4.14c.52-1.37.05-3.01-.43-4.75l-1.14-4.23-.69,2.58-2.46-3.93c-.57-.91-1.84-1.65-3.03-1.58-2.43.13-2.72,4.3-4.98,4.93l-1.31,3.95c.76,1.05,1.41,1.96,1.74,2.98Z"/>
      <path class="cls-1" d="M35.39,12.97c-.93,2.44-1.93,7-5.02,7-3.46,0-4.35-4.72-5.48-7.83-.79-2.18-1.73-4.81.33-6.39l1.33,3.01,1.91-4.21C29.52,2.24,30.12-.2,30.41.01c1.44,1.06.65,5.13,3.36,8.14.76-1.27.74-2.49.79-4.24,2.27,2.6,1.99,6.02.84,9.06Z"/>
    </g>
  </g>
</svg>