<?xml version="1.0" encoding="UTF-8"?>
<svg id="Warstwa_2" data-name="Warstwa 2" xmlns="http://www.w3.org/2000/svg" viewBox="0 0 54.5 55.73">
  <defs>
    <style>
      .cls-1 {
        fill: #fff;
      }
    </style>
  </defs>
  <g id="game-icon-v6-elemental-pixarts-store">
    <g id="game-icon-v6-elemental-pixarts-store_247">
      <path class="cls-1" d="M9.64,34c1.24,7.5-3.4,10.31-4.53,15.43,2.11-2.9,3.3-5.36,5.19-8.58,1.15,1.12,2.86,2.98,3.7,4.06.38.5-.12,2.21-.68,2.44l-2.31.97,2.69.14-.28,4.57c.45-2.36,1.73-7.29,3.22-8.68,3.4-3.18,3.87-2.1,9.29-1.65l-12.38,13.01c2.23-1.52,3.94-3.17,5.78-4.99l17.67-17.46c-6.69,2.87-7.97,11.12-16.39,7.51,6.97-7.08,13.79-13.15,19.88-20.55-7.28,6.07-13.45,12.9-19.81,19.91-1.66,1.83-3.7,3.11-5.85,4.61-1.51-1.88-4.57-4.18-3.08-5.63-1.61,1.57-.89-5.63-.86-5.94.11-1.06,1.88-3.04,2.91-3.06l5.92-.13c-1.25,1.69-2.57,2.59-3.57,4.61,7.05-6.21,13.55-13.15,20.09-20.81-1.46-.36-1.8,1.58-2.84,2.2l-12.61,12.8c-1.97.54-4.45.62-6.65.48l9.02-10.73c-2.2,2.01-4.16,3.81-6.16,5.93L1.12,41.45c3.31-2.21,5.52-4.84,8.52-7.45Z"/>
      <polygon class="cls-1" points="42.68 12.34 48.99 12.7 54.5 0 42.46 5.79 42.68 12.34"/>
      <path class="cls-1" d="M39.33,12.07c-.49,1.97-2.86,2.55-1.81,4.95.31.7,1.91,1.63,2.56,1.15l3.2-2.38,2.14,5.13,2.99-7.14-6.68-.73-.46-6.66-6.84,3.28,4.89,2.39Z"/>
      <path class="cls-1" d="M43.66,31.37l5.23.57,5.28-11.26c-4.22,1.81-7.19,3.29-10.89,5.17l.38,5.52Z"/>
      <path class="cls-1" d="M38.21,19.73c-1.42-1.14-1.93-1.64-2.71-2.57-6.65,7.62-13.27,15.01-19.52,23.04l22.23-20.47Z"/>
      <polygon class="cls-1" points="30.32 11.21 34.82 0 24.48 5.25 24.9 11.06 30.32 11.21"/>
      <path class="cls-1" d="M42.24,26.32l-5.85,2.8,4.26,2.29c-1.4,1.51-2.18,2.24-1.96,3.33.16.79,1.77,2,2.38,1.58l2.6-1.83,1.97,4.53,2.57-6-5.61-.91-.37-5.78Z"/>
      <path class="cls-1" d="M20.16,13.75c.15.85,1.37,2.27,2.23,2.66l2.92-2.19,1.96,4.08,2.52-5.9-5.79-.68-.74-5.77-5.62,2.87,4.56,2.23-2.02,2.7Z"/>
      <path class="cls-1" d="M18.85,15.75c-3.01,3.89-5.95,7.47-8.58,11.47,4.13-3.16,7.34-6.17,10.94-9.53l-2.36-1.94Z"/>
      <path class="cls-1" d="M27.78,47.03c4.03-2.95,7.44-5.99,11.34-9.16l-2.03-2.14c-3.18,3.8-6.21,7.16-9.32,11.3Z"/>
      <rect class="cls-1" x="-3.51" y="22.22" width="25.84" height="1.17" transform="translate(-13.52 13.7) rotate(-45.9)"/>
      <path class="cls-1" d="M40.75,39.58c.13-.64.03-.76-.55-.6-5.33,5.15-10.48,10.03-15.04,15.88,5.71-4.73,10.49-9.75,15.59-15.28Z"/>
    </g>
  </g>
</svg>