<?xml version="1.0" encoding="UTF-8"?>
<svg id="Warstwa_2" data-name="Warstwa 2" xmlns="http://www.w3.org/2000/svg" viewBox="0 0 43.2 60.39">
  <defs>
    <style>
      .cls-1 {
        fill: #fff;
      }
    </style>
  </defs>
  <g id="game-icon-v6-elemental-pixarts-store">
    <g id="game-icon-v6-elemental-pixarts-store_566">
      <path class="cls-1" d="M0,43.15c1.8,9.26,9.44,15.66,18.15,16.98,9.23,1.4,18.17-3.06,22.58-11.58,3.83-7.39,2.93-15.58-.87-22.47-1.8-3.28-1.92-6.44-1.32-10.3-1.98,1.2-3.18,2.87-4.35,4.9l-.86-.66c-.42,2.1-1.05,3.92-2.92,5.08-1.76-13.75-16.76-8.26-11.41-25.11-6.6,4.55-10.79,11.15-7.42,19.44.76,1.88,1.13,4.06.36,5.97-.36.9-1.84,1.79-2.65,1.71-.77-.08-2.05-1.28-2.2-2.12l-.73-4.07c-6.92,8.89-7.94,17.14.02,26.22-2.75-.01-4.65-2.05-6.39-4ZM35.23,31.32c1.34-1.35,2.4,5.24-.67,6.94-1.87,1.03-3.92.67-5.47-.75l6.13-6.18ZM13.87,31.36c2.24-.18,3.97.95,5.56,2.41l4.6,4.24c-2.32,1.18-5.23,1.82-7.47.57-2.56-1.43-3.45-4.46-2.7-7.22ZM16.49,43.84l2.32,4.04,2.18-2.74c3.23,1.09,6.07,1.2,9.24-.18l1.73,2.74c1.37-2.74,3.01-4.97,5.85-6.68-.08,5.36-2.99,9.91-7.56,12.13l-1.63-1.42c-.87,1.83-2.09,2.7-3.87,2.84-1.85.15-2.81-.88-3.74-3.17l-2.15,2.25c-4.92-2.41-7.83-7.82-8.31-13.46,1.92,1.66,3.62,2.75,5.95,3.64Z"/>
      <path class="cls-1" d="M7.52,11.86l-.63-3.31c-2.99,2.58-3.37,6.67-1.01,9.93,1.54-1.84,2.11-4.2,1.65-6.62Z"/>
      <path class="cls-1" d="M27.54,13.55l3.02,2.47c.79-3.27-2.06-4.27-3.34-9.06-1.71,1.8-1.68,4.94.32,6.59Z"/>
    </g>
  </g>
</svg>