<?xml version="1.0" encoding="UTF-8"?>
<svg id="Warstwa_2" data-name="Warstwa 2" xmlns="http://www.w3.org/2000/svg" viewBox="0 0 67.68 46.31">
  <defs>
    <style>
      .cls-1 {
        fill: #fff;
      }
    </style>
  </defs>
  <g id="game-icon-v6-elemental-pixarts-store">
    <g id="game-icon-v6-elemental-pixarts-store_210">
      <path class="cls-1" d="M63.06,43c-11.09-3.28-15.37,7.61-27.3.58-4.21-2.48-6.55-7-7.26-12.28-.9,3.33.23,6,1.31,9.36-3.9-2.53-4.85-6.85-4.25-11.41-2.88,3.66-1.32,9.28,2.46,12.09,2.76,2.05,5.94,3.4,8.99,4.9-4.88.47-9.28-1.35-12.31-4.55-3.08-3.25-4.77-8.29-3.59-12.82.79-3.03,3.21-5.13,5.95-6.89-2.62.14-4.72,1.58-6.87,3.73,1.2-3.45,1.7-9.82,5.96-9.34-1.25-.35-2.85-.34-4.52-.2l-4.3.38c-.88,1.19-1.73,2.24-2.88,3.18-4.25,3.47,1.04,3.75-1.89,7.76l-1.37-3.31c-3.22,1.05-2.56,3.74-3.18,6.62-1.14-1.21-1.38-2.83-1.77-5.06l-1.85,4.74c-.38-1.77-.39-3.11-.44-5.32l-1.7,2.22c-.23-1.78.49-3.59,2.02-4.66,5.2-3.64,4.39-5.94,7.51-10.19l-.04,3.11c1.8-2.11,3.69-4.82,6.31-6.2,2.98,1.65,3.37-2.66,6.97-2.67l-2.98,3.46c4.86-.44,2.51-2.64,9.39-.7-.05-1.79-1.13-3.16-2.62-4.92,1.01.02,2.3.48,3.65,1.1.17-1.12-.72-2.62-1.85-3.39l-2.4-1.65c3.13-.38,4.83.76,7.61,1.77L34.29.06c2.76-.39,4.65,1.08,6.57,3.38l.53-2.05c3.14,5.11,2.1,12.14-3.2,15.26-1.99.18-3.66-1.84-5.17-3.19.24,1.53,1.7,3.44,3.38,4.06,4.74,1.73,5.5-4.84,7.45-5.11,3.12,3.16,2.8,5.97,7.04,7.63l-.49-2.45c3.33,2.56,6.23,5.65,10.25,6.68,3.28.84,5.5,3.22,4.71,6.51l-2.48-2.93c.23,2.03.34,3.41-.3,5.06-.96-2.36-1.46-5.16-4.81-5.02-.27.63-.05,2.22.16,3.72-1.44-.34-2.44-1.71-2.84-3.37-.76-3.12-4.51-1.34-8.28-3.46l1.55-.79c.2-.1.23-.29.26-.55-2.85-.89-5.65-1.29-6.43-4.46-1.89,4.31-7.44,3.78-9.02,9.06-.9,2.99-.1,5.6,1.62,7.91s4.11,3.66,7.07,3.45c-3.64-1.62-8.32-5.12-6.61-9.85,1.8,6.59,8.62,9.63,14.8,7.08,7.83-3.23,10.7,2.03,17.65,3.23-6.67,1.73-9.41-4.39-17.26-.28-3.46,1.81-7.05,2.16-11.21,2.1,11.61,4.57,12.79-6.69,23.86,1.3Z"/>
      <path class="cls-1" d="M0,39.3c3.38-.02,6.45-.99,8.94-3.37l6.24-5.95c-.16,2.48-1.01,3.7-1.87,6.04,3.91-2.07,2.89-5.2,5.24-7.1-.51,6.71,1.9,12.73,7.59,16.6-3.47.35-8.91-6.07-9.3-5.98-1.7.4-6.53,6.27-14.06,3.15,3.62-.65,7.41-.7,8.68-4.38-3.87,1.52-7.68,3.56-11.47.98Z"/>
    </g>
  </g>
</svg>