<?xml version="1.0" encoding="UTF-8"?>
<svg id="Warstwa_2" data-name="Warstwa 2" xmlns="http://www.w3.org/2000/svg" viewBox="0 0 42.97 53.26">
  <defs>
    <style>
      .cls-1 {
        fill: #fff;
      }
    </style>
  </defs>
  <g id="game-icon-v6-elemental-pixarts-store">
    <g id="game-icon-v6-elemental-pixarts-store_238">
      <path class="cls-1" d="M21.49,0C9.62,0,0,9.62,0,21.49s9.62,21.49,21.49,21.49,21.49-9.62,21.49-21.49S33.35,0,21.49,0ZM30.9,9.6l1.42-3.35c.48,2.89,1.72,4.15,4.73,4.73l-3.44,1.45-1.42,3.4c-.65-2.91-1.68-4.2-4.75-4.73l3.45-1.49ZM4.71,14.64c1.71-.3,2.58-1.31,3.04-3.24.62,1.67,1.51,2.87,3.24,3.33-1.36.29-2.32,1.08-3.24,3.03-.45-1.4-1.35-2.45-3.04-3.13ZM12.05,37.76c-.44-2.6-1.54-3.55-4.22-3.97l2.89-1.17c.67-.27.91-1.89,1.35-2.82,1.72,3.43-.05,2.4,4.32,3.96-2.7.43-3.6,1.28-4.34,4ZM23.31,25.29l-1.84,7.68-1.75-7.73-3.69,2.01,1.96-3.68-7.82-1.74,7.8-1.72-2.04-3.85,3.7,2.11,1.83-8.4,1.73,8.37,4.03-2.18-2.29,3.81,7.53,1.86-7.45,1.76,2.22,3.82-3.92-2.14ZM34.8,32.34c-.46-1.18-1.53-2.14-2.98-2.76,1.46-.41,2.46-1.37,2.92-3.04.56,1.45,1.6,2.56,3.03,3.05-1.33.61-2.23,1.41-2.97,2.75Z"/>
      <path class="cls-1" d="M5.22,42.88c-.22.15.11,1.29.32,1.48,6.52,5.88,24.22,6.2,31.68-.04.42-.35.32-1.78-.01-2.14-1.64,1.2-2.97,2.18-4.82,2.75,1.25-2.06,4.05-2.01,3.78-5.17-8.81,5.84-19.19,6.3-28,.71-.35-.22-1.27-.32-1.44.01-.98,1.93,6.14,4.56,7.17,5.22-2.93,0-5.75-1.43-7.85-3.39l-.83.56Z"/>
      <path class="cls-1" d="M38.9,48.62c1.36-1.12.97-3.09-.07-3.63-7.31,6.67-27.25,6.73-34.82.04-.19.33-.66,1.37-.79,1.9-.59,2.32,6.39,4.82,8.79,5.32,7.82,1.65,20.31,1.79,26.89-3.63Z"/>
    </g>
  </g>
</svg>