<?xml version="1.0" encoding="UTF-8"?>
<svg id="Warstwa_2" data-name="Warstwa 2" xmlns="http://www.w3.org/2000/svg" viewBox="0 0 58.16 57.15">
  <defs>
    <style>
      .cls-1 {
        fill: #fff;
      }
    </style>
  </defs>
  <g id="game-icon-v6-elemental-pixarts-store">
    <g id="game-icon-v6-elemental-pixarts-store_367">
      <path class="cls-1" d="M47.05,12.19l1.21,3.38c-2-2.13-3.2-3.03-6.28-2.94,1.6-2.27,4.03-1.03,5.92-1.55.47-4.34-5.79-2.02-7.05-2.19,2.06-2.44,6.5-1.56,6.9-3.7.87-4.62-12.64-8.05-23.64-1.76-.59.34-1.94,1.87-1.65,2.51.68,1.48,2.48,2.73,3.99,4.14l-4.2-1.03c1.31,2.49,3.61,2.9,5.75,4.3-2.41-.26-4.2-1.05-6.4-2.1l-2.37,3.55c4.58,2.75,10.61,1.91,14.36-1.71-1.6-5.13-10.9-5.88-6.38-8.81,7.01-4.55,17.39-1.48,16.07-.41l-1.01.82c-1.22.99-3.93,2.2-4.04,3.99-.21,3.46-.98,5.93-3.53,8.22-3.54,3.17-8.15,5.72-12.89,4.55,4.36-1.38,8.63-2.22,10.74-6.18-9.28,6.4-10.37.12-24.69,3.42-2.86.66-3.87,4.51-3.24,6.64l7.59-2.2c.69-.2,2.46.39,2.9.58-4.17,1.3-8.01,2.26-11.16,4.84-6.65,5.45-3.87,12.33.85,18.19-.31-11.43,7.34-15.18,16.63-17.74,6.29-1.74,10.24-3.05,14.9-7.79-6.86,12.04-21.34,8.18-28.33,19.11,3.36-.69,6.65.25,7.85,3.56l2.33,6.45c2.02,5.58,8.11,8.2,13.62,6.11,2.34-.89,4.8-2.39,6.63-3.94l1.33-6.01.18,4.96c1.87-.6,3.47-1.08,5.31-1.43-1.99,1.66-3.45,2.36-4.69,4.28,4.01-1.03,6.57-3.04,10.71-4.24-4.04-7.86-3.82-16.97-1.76-25.28-.31,7.57-.11,14.73,3.34,21.57,2.62-1.48,4.32-3.83,5.31-6.54-10.88-10.8-2.99-23.35-11.11-27.61ZM31.47,45.31l.41-3.95c-3.17,2.41-4.97,5.43-5.88,9.59-.88-4.14,1.19-7.72,3.99-10.66l6.16-5.81c4.49-4.24,6.77-9.71,7.22-15.65,2.36,13.5-6.69,16.14-11.9,26.48Z"/>
    </g>
  </g>
</svg>