<?xml version="1.0" encoding="UTF-8"?>
<svg id="Warstwa_2" data-name="Warstwa 2" xmlns="http://www.w3.org/2000/svg" viewBox="0 0 52.05 54.35">
  <defs>
    <style>
      .cls-1 {
        fill: #fff;
      }
    </style>
  </defs>
  <g id="game-icon-v6-elemental-pixarts-store">
    <g id="game-icon-v6-elemental-pixarts-store_68">
      <path class="cls-1" d="M10.25,25.69c1.75.41,3.12,1.09,4.68,1.37,4.59.82,9.27-.19,13.24-1.85-4.56.39-8.42,1.33-12.33.21-4.75-1.36-14.41-3.84-15.85-9.1,1.93,1.35,3.71,2.65,6.22,2.95-2.19-2.52-4.41-4.67-3.92-8.05.44-3.05,2.08-6.09,4.82-7.75-1.76,3.33-3.15,6.63-1.32,9.92,1.82,3.29,5.35,4.62,8.85,5.51,6.78,1.71,13.3,1.33,19.87-1.92-1.66,2.81-4.58,3.5-7.2,4.97,3.73-.29,12.72-3.03,12.83-7.68,1.43,2.01-.02,3.64-1.08,6.02,3.99-2.06,7.44-5.55,5.58-9.57-.56-1.21-2.42-2.29-3.68-2.27,1.12,1.02,2.16,1.97,2.67,3,.57,1.13-.05,2.87-.72,4.17-.41-5.95-10.16-6.87-14.26-4.61l4.6.54c1.73.2,3.41.85,4.69,2.13.62.62.48,1.98-.13,2.46-1.37-1.8-3.11-2.97-5.08-2.49l1.04,1.88-8.33-.4,4.31-1.77c-3.75-1-7.98-.74-10.58,2.17-.88.99.72,2.53,2.01,3.28-1.96.12-4.37-1.64-3.54-3.96.76-2.09,3.03-3.3,4.76-4.38l-1.92-.61,6.94-2.27c-3.93-.47-11.82,2.8-13.01,7.15-.71-1.42-.28-3.24.49-4.79-2.83,1.43-2.79,4.23-1.6,7.02-2.19-.69-2.97-2.54-3.83-4.56v2.64c-1.85-.84-2.82-2.96-1.86-5.14.86-1.95,2.49-3.62,4.37-4.78-.66,1.84-1.2,3.15-1.28,4.51C14.86,4.5,22.36.89,28.22,0c-3.1,2.36-6.31,3.66-8.64,6.42l9.59-2.54c5.62-1.49,11.32-2.17,17.32-1.29l-12.89,2.45c5.58.61,10.55,1.29,14.81,4.32,4.07,2.89,4.89,7.84,1.71,11.56.25-3.25.51-5.89-1.98-8.09.32,3.31-.76,5.78-3.4,7.58-6.45,4.38-13.53,7.13-20.88,8.56,4.82.16,8.52-1.8,13.13-2.53-1.67,2.33-4.2,3.05-6.54,4.42,5.27-.55,9.64-2.96,14.08-5.93-2.03,4.45-5.97,6.27-9.6,9.2l6.03-2.58c-.12,1.02-.49,2.07-.91,2.44l-3.64,3.12,3.76-1.11c-1.88,2.26-4.09,3.77-6.52,5.15l2.6.35c-2.51,3.46-5.8,4.6-9.89,5.84l3.41.22c-3.51,2.48-6.92,4.74-10.88,6.78l2.91-6.77.41,1.87.77-3.96,1.16.63-1.06-3.82c1.87,1.1,3.22,1.86,5.06,1.89l-4.89-3.01,1.86-.56c-2.36-1.08-5.13-2.19-5.95-5.13,4.9,2.63,8.91,5.17,14.11,2.39l-4.62-.33c2.01-.96,3.75-1.75,5.63-2.96-4.64.86-8.35,2.56-12.89,1.02,3.25-.77,6.18-1.56,9.07-2.76-6.28.67-11.66,1.05-17.14-.92l8.71-.76c-6.94-.23-13.36-1.74-19.11-5.6l9.1,1.78-1.75-1.66ZM17.04,21.24c-2.69-.44-5.05-.57-7.69-.53,2.29,1.77,4.78.88,7.69.53Z"/>
      <path class="cls-1" d="M37.78,27.88c.8-.99,1.76-2.59,2.55-3.2l6.49-4.97c-1.61,4.11-5,6.79-9.04,8.16Z"/>
      <path class="cls-1" d="M48.41,28.49c-.07.89-2.38,1.79-3.19,1.57l3.24-5.93c.06,1.14.08,2.66-.05,4.36Z"/>
      <path class="cls-1" d="M14.58,35.73c.45.56.56,1.65.31,1.98s-1.46.5-1.63.12l-1.49-3.18c.5-.06,2.26.37,2.82,1.08Z"/>
      <path class="cls-1" d="M39.78,42.16c1-.17-.74,2.96-4.45,2.79l3.32-2.56c.16-.12.93-.2,1.13-.23Z"/>
    </g>
  </g>
</svg>