<?xml version="1.0" encoding="UTF-8"?>
<svg id="Warstwa_2" data-name="Warstwa 2" xmlns="http://www.w3.org/2000/svg" viewBox="0 0 54.27 53.4">
  <defs>
    <style>
      .cls-1 {
        fill: #fff;
      }
    </style>
  </defs>
  <g id="game-icon-v6-elemental-pixarts-store">
    <g id="game-icon-v6-elemental-pixarts-store_88">
      <path class="cls-1" d="M26.06,45.78c2.62,1.67,2.75,5.02,6.51,4.24,3.66-.76,5.21,2.68,9.8,1.64-1.87-.67-3.56-1.32-5.25-2.42-3.81-2.48-4.69.54-7.04-2.5l-5.62-7.29c-.79-1.03-1.16-2.25-1.29-3.74l.85.73c.56-4.95,6.63-7.32,10.56-5.62,1.29.56,2.39,1.89,2.61,2.98.29,1.51.03,3.07-1.25,4.03-.51.38-1.83.56-2.42.44-.58-.11-1.52-1.05-1.65-1.79-.07-.36.36-1.31.64-1.54.28-.23,1.42-.11,1.5.24l.3,1.23c.45-.43.8-1.2.59-1.52-.21-.34-1.01-.99-1.39-1.07-1.29-.25-2.4.56-2.78,1.6-.33.92-.1,2.36.64,3.16,1.26,1.36,2.94,1.55,4.64.96,1.16-.4,2.34-1.7,2.69-3.18.72-3.02-.59-5.53-2.87-7.42,2.19-1.44,3.18,2.92,7.48,2.17,2.89-.51,3.6-3.07,5.34-4.72l3.54-3.36c-.89,2.73-2.39,2.54-3.52,5.78,3.06-.37,5.02-2.75,5.49-5.17.56-2.89-1.11-5.44-3.28-6.98l-1.02,2.22c-.18-1.62-.14-3.28-.68-4.49-1.25-2.84-4.12-3.43-6.85-3.63-6.14-.46-11.37,3.09-12.26,9.34-.1.68-.71,1.63-1.3,2.23-.59-2.28-.87-4.87.44-6.94l2.97-4.72c1.6-2.54,3.94-3.86,7.07-4.42-.5-2.05-1.78-3.67-3.58-4.73-4.87-2.87-12.01-1.81-14.81,3.47-3-1.88-7.19-1.1-9.23,1.86-1.84,2.67-1.33,5.47-.61,8.68-.88-.87-1.47-1.87-2.16-3.18-4.15.03-8.08,3.42-8.76,7.67-.66,4.06,2.06,7.16,5.75,8.19-.24,1.76-.12,3.17.82,4.35.68.85,2.23,1.76,3.56,1.58,2.76-.36,4.99-2.09,5.5-4.94-2.35-.46-4.4-.22-6.59-.08l1.05-.63c-2.89-1.08-4.86-3.69-4.38-7.05l1.37,2.87c2.53,5.29,7.75,1.45,10.75,4.45,1.71,1.7,1.17,4.14.26,6.04-3.47,7.17,1.64,9.47-.99,12.47-2.24,2.55-3.46.45-6.88,2.49l-3.8,2.26c1.89-.1,3.83-.98,5.84-1.45,2.48-.57,5.33.03,7.4-2.1l-.96-3.49c.84.84,1.77,2.34,1.6,3.42-.54,3.65-4.34,3.65-7.15,4.62,3.11.83,6.73.21,9.09-2.2,1.77-1.8.82-4.58-.86-6.1-2.23-2.02-3.78-4.7-3.01-7.53.58,6.88,5.42,6.54,6.13,12.82,2.78,2.04,7.3,4.19,10.88,3.06-5.61-1.32-7.16-1.7-9.42-7.3ZM13.13,30.36c-.6,1.09-1.26,1.65-1.98,1.78-1.05.19-1.84-.02-2.59-1.05,1.73-.43,2.74-.59,4.57-.73ZM41.02,28.42c.41-1.49,2.39-1.97,4.26-1.19-.48,1.54-3.02,2.29-4.26,1.19ZM46.3,13.96c.05,1.68-1.36,2.7-2.78,2.45.12-1.6,1.12-2.58,2.78-2.45ZM41.74,13.25c-.4,2.26-2.56,3.25-4.79,2.65.63-2.21,2.74-3.14,4.79-2.65ZM34.22,15.45l-.42,2.82c6.29-2.27,5.04,2.06,11.47-.31-4.46,4.65-6.19-1.89-13.11,1.82.41-1.67.9-3.03,2.06-4.33ZM38.63,21.06c3.21,1.36,6.7.36,8.52-2.41-.23,2.36-2.09,3.08-3.91,4.06,2.15,1.66,4.59,1.16,6.65-.56-2.7,5.54-7.19,1.47-9.01,2.45-1.32.71-.85,2.58-2.36,2.91.08-1.45.71-2.41,1.75-3.58-4.11-1.12-2.59,4.33-7.49,4-2.05-.14-3.89.23-6.17.94,1.58-5.03,6.89-9.97,12.01-7.8ZM30.73,2.98c1.6.7,2.36,2.6,1.27,4.37-1.59-.96-1.9-2.67-1.27-4.37ZM24.03,10.04c.44-.79,1.52-1.53,2.4-1.82.34,1.93.02,3.88-2.13,4.71-.61-.55-.73-2.06-.27-2.89ZM22.12,7.83c-.45,2.32-.8,4.44.72,6.25l2.31,2.74c2.69-5.47,5.14-3.87,3.05-11.16,1.6,2.04,2.77,5.34.82,7.59-5.74,6.61-.05,8.13-4.98,14.13.78-5.41-2.24-5.01-2.74-10.68.96,1.18,1.76,2.08,2.89,3,.59-3.25-6.48-6.18-2.07-11.86ZM18.73,6.85c.74,1.06.04,3.45-1.18,3.85-1.05-1.2-.45-3.55,1.18-3.85ZM15.76,12.26c1.72.81,3.62,1.5,3.68,4.17-2.17.05-3.85-1.95-3.68-4.17ZM15.36,6.94c-2.12,2.31-2.76,5.78-.9,8.61,2.05,3.1,6.41,1.98,6.56,5.17l-3.72-1.46c-2.64-1.04-4.51-2.66-4.99-5.24-.51-2.81.19-5.73,3.05-7.07ZM7.52,19.06c2.85,1.38,2.56.82,3,3.79-2.24-.2-2.94-1.95-3-3.79ZM16,25.77c-2.43.3-5.42.71-7.6-1.35,1.95.32,3.74.59,5.64.21l-1.01-2.63c1.17.6,2.09,1.31,2.98,2.21l-.66.34c-.16.08.14.41.65,1.22ZM17.05,24.15c-1.11-4.61-6.26-2.53-8.24-8.22,2.74,3.14,6.35,3.49,11.29,6.56,2.8,1.74,2.66,5.55,1.04,7.85-1.16-3.89-3.41-3.31-4.1-6.19ZM21.54,38.63c-.83-2.55-.13-5.35,1.67-7.15-2.1,5.96-2.02,5.91,1.97,11.39-1.47-.82-3.07-2.47-3.65-4.24Z"/>
      <path class="cls-1" d="M33.55,11.17c6.1-3.18,8.32-1.1,12.77-1.95,2.66-.5,4.02-2.94,3.63-5.35-.35-2.2-2.48-3.81-5.01-3.69-1.39.06-2.72,1.11-3,2.22-.32,1.29,0,2.75,1.32,3.3.44.19,1.74.11,2.14-.14.4-.26.55-1.19.44-1.59-.59.68-1.45,1.16-2.03.8-.43-.27-.76-1.52-.46-2.02.74-1.21,2.38-1.22,3.67-.56.85.43,1.42,1.97,1.24,2.96-1.08,5.85-11.35-.75-14.71,6.02Z"/>
      <path class="cls-1" d="M1.94,13.58c2.69-3.99,6.36-1.46,7.46-7,.3-1.52-.32-2.95-1.85-3.38-1.08-.31-2.66.32-3.02,1.68-.1.39.01,1.64.41,1.68l1.48.16c-.42-.37-.91-.77-1.04-.95-.32-.45.74-1.58,1.29-1.5.67.1,1.45.95,1.43,1.65-.18,4.37-6.3,3.13-6.16,7.67Z"/>
      <path class="cls-1" d="M48.58,35.97c1.36-.99,1.93-2.83.65-4.2-.45-.48-1.79-.68-2.35-.4-.47.24-.93,1.42-.79,1.94.04.14.75.35.89.39.1.03,0-.18-.03-.28l-.19-.64c-.16-.55,1.2-.94,1.64-.57.44.38.56,1.72.16,2.11-1.6,1.56-4,1.25-5.86.05l-3-1.93c.46,2.21,1.87,3.49,3.32,3.98,2.02.69,3.95.72,5.56-.46Z"/>
      <path class="cls-1" d="M51.47,10.72c.86-1.16,1.08-2.86.58-4.01-.54,2.15-1.85,3.29-3.88,4.17.77,1.18,2.4,1.03,3.3-.16Z"/>
      <path class="cls-1" d="M40.98,39.54c.75-.84.93-2.24.52-3.49-1.11,1.84-2.04,3.23-3.51,4.98.98-.09,2.27-.69,2.99-1.49Z"/>
      <path class="cls-1" d="M4.9,31.43l-3.32-2.94c-.08,1.8,1.25,3.69,3.32,2.94Z"/>
      <path class="cls-1" d="M36.72,22.28c-2.53-.33-4.72,1.33-5.62,3.68,2,.76,2.36-1.93,5.62-3.68Z"/>
    </g>
  </g>
</svg>