<?xml version="1.0" encoding="UTF-8"?>
<svg id="Warstwa_2" data-name="Warstwa 2" xmlns="http://www.w3.org/2000/svg" viewBox="0 0 59.21 51.51">
  <defs>
    <style>
      .cls-1 {
        fill: #fff;
      }
    </style>
  </defs>
  <g id="game-icon-v6-elemental-pixarts-store">
    <g id="game-icon-v6-elemental-pixarts-store_369">
      <path class="cls-1" d="M41.1,11.92c-.42-4.49-3.54-8.27-6.92-10.17-4.22-2.36-8.88-2.26-12.97-.18-4.62,2.35-7.04,7.81-5.34,12.69,1.27,3.64,4.67,6.15,8.49,5.92,1.78-.11,3.55-1.01,4.36-2.21.88-1.31.96-3.06.57-4.41-.78,1.6-1.69,2.99-3.35,3.33-2.51.52-4.73-1.05-5.53-2.75-1.09-2.31-.41-4.67,1.24-6.3,2.32-2.28,5.4-2.67,8.37-1.35,2.52,1.12,4.29,3.66,4.4,6.9.42,12.33-16.28,12.44-24.79,12.38-3.59-.03-7.3,1.18-9.01,4.43,4.8-2.65,8.85-1.16,14.58-.04,6.27,1.22,12.61.52,18.19-2.57,5.64-3.13,8.3-9.2,7.71-15.67Z"/>
      <path class="cls-1" d="M47.78,35.31c-3.98-2.87-8.62-2.51-12.82-.4-6.64,3.34-19.27,5.86-22.68-3.42-1.01,2.46.15,4.8,1.86,6.44,6.32,6.07,15.43,3.65,22.66.74,2.01-.81,4.23-1.22,6.33-.69,1.47.37,2.34,1.96,2.25,3.28-.24,3.62-5.88,2.91-8.5,2.45-3.12-.54-6.21-.57-9.04.8-1.65.8-2.5,2.61-2.13,4.29.3,1.4,1.77,2.72,3.3,2.7-.64-1.07-1.36-2.24-1.44-3.08-.07-.72,1.24-2.03,1.95-2.23,5.96-1.69,9.16,2.08,15.83.65,2.62-.56,4.44-2.74,4.96-4.9.62-2.56-.43-5.12-2.54-6.64Z"/>
      <path class="cls-1" d="M46.65,13.32c-2.34.69-3.93,2.51-4.36,4.5-.47,2.16.05,4.45,1.78,5.83,1.77,1.42,4.49,1.85,5.74-.42-1.68,0-3.3-.36-3.75-1.32-.75-1.62-.04-3.32,1.27-4.05,2.16-1.2,4.45-.49,5.81,1.25,1.32,1.68,1.38,4.11-.03,6.08-3.87,5.42-9.68-.59-15.45,3.23-4.84,3.2-9.87,4.75-15.34,5.64,6.24,1.54,11.6-.45,17.03-3.24,2.18-.8,5.47.39,7.76.75,4.52.71,8.54-.72,10.74-4.41,2.05-3.45,1.82-8.25-1.16-11.37-2.54-2.66-6.58-3.48-10.05-2.45Z"/>
      <path class="cls-1" d="M6.46,19.81c-2.34,2.92-5.15,1.03-6.46,4.76,2.06-.89,3.55-1.46,5.67-1.88,2.78-.56,5.25-4.58,7.92-1.84.22.23.63,1.09.43,1.31l-1.03,1.18c.61.18,2.3-.01,2.81-.61.44-.52.45-2.23.14-2.86-.96-1.92-2.83-2.65-4.67-2.65-1.88,0-3.51.96-4.82,2.59Z"/>
      <path class="cls-1" d="M10.82,42.26c2.28,1.69,5.33,2.45,7.76,1.62-2.96-1.24-4.86-2.07-6.99-3.41-1.44-1.88-2.19-3.58-2.7-6.18-1.44,2.63-.68,6.04,1.92,7.96Z"/>
      <path class="cls-1" d="M52.75,10.8c-2.48-1.55-4.97-1.38-7.36-1.29-.82-1.84-1.33-4.77-3.94-5.15,1.25,2.39,2.03,4.67,2.5,7.07,3.07-.44,6.13-.66,8.81-.63Z"/>
      <path class="cls-1" d="M12.22,7.59l-1.63,5.44c-1.01.46-2.31,1.08-3.38,2.13l5.54-.45-.53-7.12Z"/>
      <path class="cls-1" d="M.47,33.77c2.92-1.01,5.4-1.24,8.52-1.74-3.1-2.23-6.7-.55-8.52,1.74Z"/>
      <path class="cls-1" d="M57.43,32.05c-2.22,1.37-3.86,2.03-6.3,2.58-.06.18,1.38,1.22,1.94,1.17,2.47-.21,3.92-2.05,4.36-3.75Z"/>
    </g>
  </g>
</svg>