<?xml version="1.0" encoding="UTF-8"?>
<svg id="Warstwa_2" data-name="Warstwa 2" xmlns="http://www.w3.org/2000/svg" viewBox="0 0 48.1 51.54">
  <defs>
    <style>
      .cls-1 {
        fill: #fff;
      }
    </style>
  </defs>
  <g id="game-icon-v6-elemental-pixarts-store">
    <g id="game-icon-v6-elemental-pixarts-store_100">
      <circle class="cls-1" cx="1.59" cy="18.16" r="1.59"/>
      <path class="cls-1" d="M11.05,1.41c-.74,0-1.34.6-1.34,1.34s.6,1.34,1.34,1.34,1.34-.6,1.34-1.34-.6-1.34-1.34-1.34Z"/>
      <circle class="cls-1" cx="46.86" cy="27.43" r="1.24"/>
      <path class="cls-1" d="M41.32,36.93c-1.34-.99-5.69,1.15-5.14,3.32.17.67,1.12,1.43,2.03,2.2-.79,1.35-4.19,5.89-5.89,3.8l1.87-2.55-3.57,1.49,3.58-6.06c1.83-3.09,3.33-6.62,2.5-10.36-1.25.59-1.56,1.8-1.88,2.97-2.69,10.09-5.84,7.18-6.44,14.84-1.78-2.2-.04-7.39-1.22-6.99-.25.09-1,.52-1.07.78l-1.08,4.3c-.23.9-2.42,1.94-3.08,1.92l-1.84-2.5-2.29-3.57c-2.23-3.49-3.94-6.7-4.65-11.08l-2.95,1.15c.6,5.45,2.44,11.36,6.19,14.89l-4.66-2.01,1.82,3.23c-3.09-.39-5.28-2.34-6.08-4.88.91-.61,1.89-1.37,2.45-2.13-.71-1.93-3.18-4.04-5.28-3.36-2.27.74-3.28,3.89-2.56,6l3.65.18c.8,2.28,2.35,4.27,4.28,5.52l-4.31,2.12c4.3,1.1,5.23-1.37,10.32.89l2.69-.64c1.06.51,2.18.98,3.15,1.17,4.63-4.22,5.93,1.58,11.04-1.09,2.42-.54,5.09-.06,7.94-.37l-4.52-2.28c1.21-1.52,2.28-3.09,3.21-4.6l3.11-.38c.74-1.92.53-4.55-1.3-5.91Z"/>
      <path class="cls-1" d="M39.93,9.57c-2.88-2.28-5.39-4.54-7.9-7.12-2.86-2.94-6.97-3.34-10.06-.68-3.29,2.83-6.63,5.26-10.16,7.79-1.2.86-2.06,2.57-1.89,3.88.5,4.05,10.49,5,13.15,4.29-2.48-1.61-10.5-.95-11.16-3.83.52-.95,1.99-1.78,3.1-2,7.7-1.5,15.39-1.3,23.09.93,1,.29,2,1.4,2.15,2.2-2.85,3.18-12.56,1.42-10.25,3.37,3.5.1,8.04.05,11.01-2.25,2.17-1.68.78-5.12-1.08-6.59Z"/>
      <path class="cls-1" d="M2.87,31.85c2.08.6,4.71.85,6.54-.49-2.45-.16-4.14-.09-6.26-.59.66-1.29,1.66-1.71,2.7-1.69,9.12.21,10.32-4.18,13.61-2.2l-5.09,3.3c1.16.54,6.49-1.61,6.37-4.46-.03-.65-.89-1.62-1.61-1.96-5.61-2.69-6.17-5.89-9.91-5.28-1.11.18-2.73,1.4-3.42,2.64-1.33,2.42-2.54,4.52-4.03,6.78-.89,1.35-.65,3.44,1.09,3.94Z"/>
      <path class="cls-1" d="M27.13,31.79c1.43-2.21,1.03-5.79.46-7.96-1.32.82-2.29,1.13-3.47.67-.88,4.96-2.22,9.77-4.11,14.52-.51,1.28-.05,2.49,1.13,3.18l.43,2.12,1.08-2.2.58,2.72c2.6-4.31,1.38-5.65.7-7.03-1.35-2.71,2.1-4.35,3.19-6.03Z"/>
      <path class="cls-1" d="M40.14,31.44l-2.39-.29c.13,1.74,3.63,1.58,4.22-.1,1.06-2.99-.61-7.1-3.66-8.09-2.28-.73-8.77,2.39-7.41,5.88.39.99,1.92,2.01,3.11,1.91-.98-1-1.65-1.66-2.27-2.73,3.09-1.47,6.04-.51,8.62,1.21.64.42.45,2.29-.23,2.21Z"/>
      <path class="cls-1" d="M25.78,23.28l1.23-1.3,2.27,2.03-.78-6.9c-.19-1.72-.95-2.68-2.68-2.49-3.27.35-1.48,4.35-3.24,8.93l1.83-1.03c.25.17,1.12,1.03,1.36.77Z"/>
      <path class="cls-1" d="M30.36,38.45c1.22-1.72.24-5.06-1.79-5.31-1.69-.21-3.88,2.81-3.06,4.1.76,1.19,3.74,1.88,4.85,1.21Z"/>
      <path class="cls-1" d="M5.55,11.58c1.11,0,2.01-.9,2.01-2.01s-.9-2.01-2.01-2.01-2.01.9-2.01,2.01.9,2.01,2.01,2.01Z"/>
      <path class="cls-1" d="M43.59,19.17c-.94,0-1.7.76-1.7,1.7s.76,1.7,1.7,1.7,1.7-.76,1.7-1.7-.76-1.7-1.7-1.7Z"/>
      <path class="cls-1" d="M18.6,15.46l2.98.08-7.72-1.97c1.13,1.91,3.07,1.29,4.74,1.89Z"/>
      <path class="cls-1" d="M17.27,12.89c1.78.95,3.46,1.51,5.53,1.73-1.57-1.47-3.49-2.27-5.53-1.73Z"/>
      <path class="cls-1" d="M29.41,14.6c2.11-.18,3.77-.56,5.7-1.14-2.14-1.4-3.86.22-5.7,1.14Z"/>
      <path class="cls-1" d="M38.11,14.5c-2.23-.41-4.22.21-6.23.8,2.19.18,4.33.17,6.23-.8Z"/>
    </g>
  </g>
</svg>