<?xml version="1.0" encoding="UTF-8"?>
<svg id="Warstwa_2" data-name="Warstwa 2" xmlns="http://www.w3.org/2000/svg" viewBox="0 0 66.93 62.68">
  <defs>
    <style>
      .cls-1 {
        fill: #fff;
      }
    </style>
  </defs>
  <g id="game-icon-v6-elemental-pixarts-store">
    <g id="game-icon-v6-elemental-pixarts-store_170">
      <path class="cls-1" d="M11.91,33.38l-2.08.91,7.17.57-8.05,3.75,6.39-.13-1.59,1.66,6.46-1.82c-2.1,3.1-5.93,5.01-7.56,8.43l4-1.94c-2.58,4.18-5.58,7.58-8.65,11.58,4.11-2.85,7.29-6.18,11.54-8.27l-1.13,2.69c1.69-1.64,3.24-3.11,5.29-4.66l-2.92,7.69c2.06-2.35,3.83-4.18,6.38-5.68l-.02,3.4,2.36-5.4c.68,3.1.73,5.53.84,8.26.38-1.17.62-1.97,1.17-3.03.94,3.61,1.33,6.81,1.7,10.39l.07.64c.24,2.28,1.44-10.95,2.17-11.02l1.16,3.04.25-8.82c3.17,3.74,2.67,1.72,5.58,6.24l-.1-2.17,1.24,1.27-1.76-6.28,3.87,3.58c1.25,1.16,2.36,2.22,3.85,3.23-.61-1.34-1.21-2.14-1.54-3.27,4.09,2.33,6.81,5.27,10.6,7.87-2.66-3.89-5.69-6.88-7.85-10.98l2.43.72-4.45-5.31,8.22,2.29c-2.24-1.71-3.95-3.15-5.5-5.28l3.59.05c-2.54-.98-4.66-1.76-6.86-2.99,3.6-.64,6.58-.22,10.1.21l-3.21-1.62,11.9-1.78-12.14-1.99,3.09-1.27c-1.26.06-2.5.16-3.67.09l-4.23-.26,8.12-4.39-6.19.54c.64-1.15,1.04-1.51,1.72-2.15l-1.99.54c-1.77.48-3.29,1.06-5.16,1.15,2.77-2.71,5.24-4.83,7.54-7.89l-3.23,1.55c2.6-4.42,5.56-7.74,8.65-11.53-3.86,2.98-7.22,6.04-11.37,8.61-.16-1.27.13-2.17.65-3.57-1.79,1.75-3.12,4.54-5.57,6.18.51-2.61,1.43-4.53,2.26-6.97-1.84,1.89-3.24,3.58-5.82,4.82l.21-4.21-2.59,6.59-.61-8.55-1.18,2.74-2.04-11.45-1.77,11.49-1.27-3.06-.29,8.17c-2.68-2.73-3.93-5.59-5.2-8.71l.81,6.46-1.19-.98.9,4.57c-2.93-1.76-4.35-4.64-7.59-6.21l1.14,2.68c-4.18-2.42-7.3-5.47-11.14-8.28l4.69,5.7c1.35,1.64,2.44,3.25,3.54,5.19l-2.36-.76c1.63,1.68,3.01,3.01,4.43,5.08l-6.08-1.9c1.82,1.88,3.53,3.6,4.84,5.82l-3.67-.06c2.06.9,3.73,1.57,5.68,2.81-3.67.45-6.65.2-10.18.07l3.16,1.36c-2.21.63-3.82.83-5.72,1.1l-6.09.87,5.88.74c2.08.26,3.95.53,6.03,1.24ZM25.43,29.85l-1.67-1.18,1.09-.42-2.91-1.69c1.87.2,2.96.29,4.46.04l-4.66-6.51,7.04,4.72-.13-1.13c-.02-.2.12-.25.74-.36l-.72-3.94c.46.6,1.05,1.73,1.6,2.15l1.77,1.39,1.4-6.99,1.41,7.45,1.57-1.31.35.87,1.72-2.34-.15,4,6.81-4.52-4.63,6.7c.3.53,4.13.11,5.26-.08l-3.32,2.36.75.31c.09.04.05.16-.02.24l-.5.53,6.89,1.28c-2.84.42-5.48.84-8.36,1.6l1.92,1.75,1.72,1.55-2.83-.29c-.21-.02-.87.44-.84.65.03.27.24.87.4,1.11l2.88,4.14-6.35-3.63.38,1.42-.62.28.69,3.55-2.02-2.91-.57.49-1.17-1.4-1.29,7.07-1.69-7.48-1.19,1.9-.25-1.25-2.34,2.8.75-4.38c-2.76,1.25-4.63,2.57-6.9,4.02l4.52-6.46-1.16.06c-.22.01-.32-.25-.58-.58l-3.77.62,3.48-2.15c-.18-.24-.42-.46-.37-.56l.35-.68-6.78-1.23,7.81-1.55Z"/>
      <path class="cls-1" d="M11.83,42.24c-1.26.37-3.04.71-4.2,1.66l-3.53,2.88c3.48-.31,5.79-2.01,7.72-4.54Z"/>
      <path class="cls-1" d="M22.11,12.21c-.15-1.46-.67-3.1-1.61-3.92l-3.08-2.68c.35,1.22.92,3.02,1.77,3.83l2.92,2.77Z"/>
      <path class="cls-1" d="M45.11,5.88l.5-3.21c-1.91,1.79-3.11,3.88-3,6.52l2.49-3.32Z"/>
      <path class="cls-1" d="M46.46,52.92c.25,2.57,2.28,4.33,3.9,6.1l-1.55-4.3-2.35-1.79Z"/>
      <path class="cls-1" d="M38.84,51.16c-.39,2.42.69,4.16,2.21,6.29-.02-1.21-.38-5.14-2.21-6.29Z"/>
      <path class="cls-1" d="M57.59,40.13c1.58,1.68,3.72,2.13,5.96,2.27-1.6-1.66-3.76-2.59-5.96-2.27Z"/>
      <path class="cls-1" d="M5.86,35.71l-3,1.38,3.81.03,2.16-1.05c-1.09-.61-1.9-.58-2.97-.36Z"/>
      <path class="cls-1" d="M10.98,23.12c-.54-.58-1.48-1.25-2.35-1.43l-3.34-.71c1.44,1.74,3.37,2.45,5.68,2.14Z"/>
      <path class="cls-1" d="M56.2,16.96c.96,0,2.1-.47,2.81-1.28l1.73-1.99c-2.13.2-3.73,1.29-4.54,3.27Z"/>
      <path class="cls-1" d="M63.86,25.66c-2.52.05-4.58.19-6.29,1.29,2.58.92,4.62-.21,6.29-1.29Z"/>
      <path class="cls-1" d="M24.72,53.05c-1.5,1.81-2.11,3.95-2.46,6.45,1.33-1.9,2.57-3.83,2.46-6.45Z"/>
      <path class="cls-1" d="M27.82,10.05c.81-2.29-.41-3.6-1.33-5.62l.23,2.8c.08.99.59,2.15,1.1,2.82Z"/>
      <path class="cls-1" d="M58.34,18.35c-1.86.35-3.45,1.16-5.07,2.21,2.16.42,3.71-.51,5.07-2.21Z"/>
      <path class="cls-1" d="M26.45,33.97l2.42.08-1.91,3.53,3.31-1.84-.35,3,.69-1.03,1.78-1.44.92,4.02,1.11-3.63,1.25,1.07.16-1.82c.2.12.47.34.62.27l.62-.28,2.66,1.61-1.83-3.59,3.26.77-2.99-2.16,4.33-1.14-4.3-1.06,1.94-1.6-2.07.2c.41-1.32.9-2.25,1.68-3.57l-3.06,2.08.35-3.09-.9,1.77-.27-.96-1.44,1.46-1-3.97-.96,3.92-1.51-1.71.32,2.25-.58-.4c-.1-.07-.31.19-.56.4l-2.76-1.54,1.69,3.29-3.07-.48,2.39,1.94-3.97,1.12,4.07,1.01c-.33.89-.97,1.14-2.05,1.52Z"/>
    </g>
  </g>
</svg>