<?xml version="1.0" encoding="UTF-8"?>
<svg id="Warstwa_2" data-name="Warstwa 2" xmlns="http://www.w3.org/2000/svg" viewBox="0 0 51.54 51.24">
  <defs>
    <style>
      .cls-1 {
        fill: #fff;
      }
    </style>
  </defs>
  <g id="game-icon-v6-elemental-pixarts-store">
    <g id="game-icon-v6-elemental-pixarts-store_557">
      <path class="cls-1" d="M47.93,22.98c.42-.83.1-2.13-.42-2.86l-1.88,4.99c1.04-.68,1.95-1.45,2.3-2.13Z"/>
      <path class="cls-1" d="M9.73,18.69c6.07,2.41,12.13,3.57,18.79,3.73-7.43,1.36-14.42.85-21.52-3.23,1.15,7.88,15.36,9.25,21.55,9.66-5.02,1.24-10.03.76-15.36-.97,2.78,6.36,12.74,6.5,18.37,6.59-3.58,1.4-7.05,1.05-10.71.54.68,1.7,1.77,2.98,3.45,4.48l-1.62,5.66-1.04-3.62c-2.7,3.2,1.39,8.86,4.55,9.72-2.26-8.29,5.83-6.77,9.15-11.18-2.33.51-4.33,1-6.48,1.05l5.67-2.7-7.46-.82c3.04-.47,11.36-.98,11.6-4.86.08-1.21.33-1.9.95-3.29l-5.94,1.92c-3.44,1.11-7.1,1.01-10.14.1,6.27-.28,19.29-2.21,20.23-9.1-7.03,4.34-15.51,5.51-23.64,2.72,7.97.6,15.71-.18,22.74-4.17,1.3-.74,2.41-1.61,3.14-2.99-4.67,1.58-8.82,2.9-13.76,2.44l8.57-2.06c3.66-.88,10.8-3.85,10.7-8.22-.1-4.04-7.48-6.96-10.64-7.04,1.96.93,3.77,1.64,5.31,2.72,1.73,1.23,2.25,3.59,1.05,5.31-1.12-2.2-2.87-3.77-5.31-4.37-4.88-1.2-9.88-2.26-14.85-.5,2.98.13,15.59.84,15.65,5.41.07,5.1-14.22,7.04-18.19,6.73.39-1.34,10.41-1,10.54-5.09-4.33,2.6-15.46,3.94-18.41-1.11-.3.16-1.14,1.23-.91,1.65l1,1.86c-2.22,0-8.28-1.98-8.1-4.69.34-5.13,20.59-7.2,24.53-7.88-6.75-.76-26.5-.27-28.52,8.42-.84-.64-1.46-2.15-1.1-3.41.54-1.87,1.98-3.06,3.35-4.33-2.13.66-4.01,1.94-5.47,3.49-2.19,2.34-1.92,5.51.58,7.57,2.18,1.78,4.94,2.78,7.67,3.87Z"/>
      <path class="cls-1" d="M9.66,4.23L23.62.05c-5.28-.34-10.32,1.24-13.96,4.18Z"/>
      <path class="cls-1" d="M38.99,14.01c1.28-1.11.84-2.68-.37-3.3-1.7-.86-3.72-1.24-5.68-1.52-.74-.17-1.37-.23-.55.35,3.32.94,5.72,1.12,6.6,4.46Z"/>
      <path class="cls-1" d="M18,8.13c-1.99.58-5.5.64-6.07,3.72,1.97-1.37,3.58-2.38,6.07-3.72Z"/>
    </g>
  </g>
</svg>