<?xml version="1.0" encoding="UTF-8"?>
<svg id="Warstwa_2" data-name="Warstwa 2" xmlns="http://www.w3.org/2000/svg" viewBox="0 0 56.98 55.21">
  <defs>
    <style>
      .cls-1 {
        fill: #fff;
      }
    </style>
  </defs>
  <g id="game-icon-v6-elemental-pixarts-store">
    <g id="game-icon-v6-elemental-pixarts-store_219">
      <path class="cls-1" d="M52.88.41c-5.09,4.64-4.95,2.66-4.21,5.97l.26,1.15c.5,2.26-2.66-2.33-5.85.23-1.72-2.79-4.49-1.09-6.54-1.11-2.58-.02-5.33-1.83-7.53,1.23-1.21,1.68-2.04,4.27-.15,6.6-2.04.57-3.22,1.81-3.83,3.71-1.26-.91-2.88-1.84-4.37-1.72-1.52.12-3.11,1.13-4.05,2.46-1.24,1.76-1.29,3.73-.68,5.82l-3.58,4.08c-2.82-.76-5.44.2-6.87,2.37-3.24,4.95,3.06,7.31,1.96,9.47-.43.84-1.71,1.87-2.63,2.09-2.46.59-5.01,2.75-3.53,5.17l.79,1.28c.16.26-.52.82-.84,1.07-1.48,1.17-1.63,3.12-.33,4.34,1.19,1.11,2.83.5,4.13-.55,1.46-1.18,1.92-2.1,2-4.13,2.3.05,1.2,4.71,2.52,3.52l1.07-.97c.25-.23-.4-.96-.69-1.5,0-.72,1.51-3.14,2.53-3.09l6.35.31c1.69.08,3.31-2.55,4.48-3.38,1.64.68,3.39,1.51,5.23.93,3.01-.95,2.57-5.21,5.07-4.03,1.33.62,3.38.87,4.48.22.94-.55,2.09-2.26,2.89-3.01,1.83-.97,3.7-1.58,4.1-3.46.44-2.07-.37-3.86-2-5.02l3.45-3.28c2.57-.66,4.55-1.57,5.52-3.81,2.24-5.17-2.84-7.89-2.7-9.28.31-3.19,5.48-1.8,6.66-6.84l-.91-2.38c1.68-.95,2.37-2.38,1.57-3.74-.61-1.03-2.87-1.53-3.77-.71ZM15.04,41.01l-2.03-2.18,2.13-2.33c.36.83,1.65,2.05,2.6,2.55-.89.34-1.84.97-2.7,1.95ZM23.6,38l-1.97-2.14,2-1.9,2.05,1.92-2.08,2.13ZM30.29,31.79c-1.98-4.39.25-3.07-5.11-5.49,3.3-.73,4.57-2.41,4.91-5.79,2.51,5.67.31,3.53,6.05,6.06-3.53.49-5.07,1.38-5.85,5.21ZM39.93,19.13c-.61-1.68-1.63-2.93-3.65-3.48,1.92-.82,3.09-1.95,3.79-3.86.36,1.8,1.57,3.18,3.35,3.8-1.73.57-2.64,1.25-3.49,3.54Z"/>
      <path class="cls-1" d="M55.12,12.38c-.85,0-1.53.69-1.53,1.53s.69,1.53,1.53,1.53,1.53-.69,1.53-1.53-.69-1.53-1.53-1.53Z"/>
      <circle class="cls-1" cx="24.86" cy="50.97" r="1.46"/>
      <path class="cls-1" d="M43.99,44.52c0-.78-.63-1.41-1.41-1.41s-1.41.63-1.41,1.41.63,1.41,1.41,1.41,1.41-.63,1.41-1.41Z"/>
      <path class="cls-1" d="M12.29,17.23c.77,0,1.39-.62,1.39-1.39s-.62-1.39-1.39-1.39-1.39.62-1.39,1.39.62,1.39,1.39,1.39Z"/>
    </g>
  </g>
</svg>