<?xml version="1.0" encoding="UTF-8"?>
<svg id="Warstwa_2" data-name="Warstwa 2" xmlns="http://www.w3.org/2000/svg" viewBox="0 0 55.38 53.71">
  <defs>
    <style>
      .cls-1 {
        fill: #fff;
      }
    </style>
  </defs>
  <g id="game-icon-v6-elemental-pixarts-store">
    <g id="game-icon-v6-elemental-pixarts-store_538">
      <path class="cls-1" d="M5.81,23.93l1.25-.97-3.41.49c-.4,1.1-.46,1.74-1.01,1.93l-2.64.91,5.61-.23c0-1.46-.1-1.91.2-2.14Z"/>
      <path class="cls-1" d="M43.25,21.8c-1.15,1.78-2.28,3.16-3.66,3.59-1.65.51-3.4-1.43-4.68-1.68-2.58-.5-4.7-.69-6.95-2.87.99,3.37,3.37,6.35,1.74,9.85-.96-6.64-5.67-11.06-11.79-10.4l1.68-2.18c.3-.39-.49-1.46-.74-1.99,2.75-.2,9.15.62,9-4.9l-9.36-2.03c-2.57-.56-4.76.56-5.57,3.05l-2.27,6.95c-.53,1.63.04,4,1.04,5.33l6.02,8.09c1.32,1.78,3.53,2.96,5.44,3.95l-3.16,1.12-2.37,15.96,22.26.05-1.16-15.9-3.46-.52c6.51.08,8.58-11.16,7.99-15.49Z"/>
      <path class="cls-1" d="M30.26,17.4c-.53,1.42.07,3.19,1.14,3.85.77.48,2.85.43,3.28-.45,1.84-3.76,3.54-7.16,4.38-11.09.37-1.75-3.86-3.41-5.04-2.35l-3.76,10.05Z"/>
      <path class="cls-1" d="M40.31,11.84l-3.57,8.19c-.46,1.05-.09,2.57.66,3.32,2.68,2.65,5.57-4.48,6.92-7.06.46-.88.05-2.98-.6-3.67-.61-.64-2.37-1.12-3.41-.78Z"/>
      <path class="cls-1" d="M28.03,15.36c-1.25.92-2.89,1.56-4.8,2.41.92.98,3.94,1.69,5.03.63,1.53-4.11,3.02-7.95,3.85-12.2.4-2.02-4.27-3.73-5.64-2.34-.73,1.32-1.18,3.48-1.45,4.97l4.14,1.22c.59,1.81.35,4.23-1.13,5.32Z"/>
      <path class="cls-1" d="M19.11,2.63c-1.17.68-2.09,3.23-1.68,4.57l5.96,1.49c.32-1.7.72-3.46.48-4.54-.43-1.95-3.43-2.3-4.77-1.52Z"/>
      <path class="cls-1" d="M9.44,1.74l-1.49,1.86L4.09.38l4.31,6.44c.67-.9,1.43-1.93,1.88-1.63l2.3,1.5-3.13-4.96Z"/>
      <path class="cls-1" d="M52.39,0l-5.72,2.92c.65.95,1.47,1.7,1.12,2.15l-1.63,2.05c1.45-.46,3.4-1.47,4.63-2.27-.61-1.14-1.08-1.96-.79-2.26.58-.6,1.73-1.88,2.4-2.59Z"/>
      <polygon class="cls-1" points="49.19 34.88 44.92 32.42 46.78 34.79 44.96 36.38 50.61 39.09 48.29 36.32 49.19 34.88"/>
      <path class="cls-1" d="M8.86,32.19l.83-1.88-3.9,2.52c.64.72,1.27,1.22,1.08,1.42l-.98,1.04-.91,1.54,4.76-2.77c-.61-.93-1.06-1.45-.88-1.86Z"/>
      <path class="cls-1" d="M50.11,15.01l-1.63,1.01,3.62.03c.06-1.08-.14-1.84.38-2.07l2.89-1.23-5.47.61c.22,1.01.46,1.48.2,1.64Z"/>
    </g>
  </g>
</svg>