<?xml version="1.0" encoding="UTF-8"?>
<svg id="Warstwa_2" data-name="Warstwa 2" xmlns="http://www.w3.org/2000/svg" viewBox="0 0 38.38 53.79">
  <defs>
    <style>
      .cls-1 {
        fill: #fff;
      }
    </style>
  </defs>
  <g id="game-icon-v6-elemental-pixarts-store">
    <g id="game-icon-v6-elemental-pixarts-store_117">
      <path class="cls-1" d="M3.62,24.67l3.46,6.53c.79,1.49,2.39,2.84,3.35,4.23,1.52,2.21,3.52,2.96,5.96,4.03l-3.25-.27c.29,2.46,1.64,1.72,1.89,4.55l-1.65-1.3-.28,4.63,4.91-1.75,1.44-3.8,1.84,2.47c1.91-.58,4.12-1.47,5.28-3.57l-3.02-.58c2.4-.88,3.8-1.97,4.56-4.3.43-1.32.45-2.57-.49-3.56-.83-.88-1.95-1.11-3.25-.97l-2.76.28,1.56-2.47-3.47-1.96.48,1.93c-.66-.64-1.47-1.9-2.19-2.28-1.98-1.05-4.27-2.08-6.49-1.47,3.3,1.19,5.9,2.1,7.06,5.19.48,1.28,1.22,2.57.75,4.04-1.29-4.94-4.29-7.32-8.82-8.13-1.79-.38-3.09-2.93-3.92-4.34C4.17,17.71.52,17.82.02,18.95c-.12.28.26.84.52,1.14,1.26,1.44,2.19,2.9,3.07,4.58Z"/>
      <path class="cls-1" d="M6.12,13.74l2.03,1.48c-.99,4.8,2.32,4.6,1.63,7.1,1.05-.03,2.06.36,3.14.78,4.07,1.57,8.05,2.92,11.87,5.15l-.79,1.89c1.87-.7,3.26-.33,4.45.89,1.48,1.53,1.76,2.94,1.01,5.21,3.33-1.36.31-2.05,4.5-3.94l-1.93-.15c-.37-.03-.61-.76-.97-1.18-4.27-5.03-7.18-3.25-7.55-7.95l-1.11,1.98-4.31-1.97c-.94-.43-1.85-1.95-2.11-3.04,2.02,1.59,3.85,2.74,6.11,3.44l1.67-2.29,1.4,3.67,4.58,3.11c.63-2.87,1.56-5.07,2.88-7.29.82-1.38,5.72-9.65,3.4-10.19-.46-.11-1.54.3-1.77.73-1.95,3.68-3.75,7.14-6.46,10.45-.56-.41-.85-1.3-1.01-1.82l-3.02-1.36-1.32.3c-.56.12-.56-1.99-1.03-2.93-.15-.3-3.03-.46-3.17.09l-.37,1.43c-.1.4-.55,1.19-.92,1.14-1.66-.21-2.93-7.21-3.41-9.19l-1.38-5.67c-.13-.53-1.4-1.08-1.85-.85-.39.2-.97,1.19-.92,1.64.45,4.08,1.2,7.8,1.87,11.84.37,2.25,1.29,4.22,3.92,4.37l.72,1.46c-2.59-.4-5.38-1.87-6.07-4.75v-3.77s-3.7.16-3.7.16Z"/>
      <path class="cls-1" d="M10.6,53.75c1.14-.73.77-2.52,2.89-3.44,1.98-.86,4.31-1.66,6.49-2.05.65-.12,1.88.9,2.54,1.17l-.63-2.03c2.17-1.1,4.71-1.97,6.24-3.72,1.22-1.4,1.71-1.85,4.18-1.57l-2.32-1.4-.69-2.9c-1.19,1.17-.96,2.23-1.55,3.27-1.5,2.62-4.59,3.64-7.24,4.55l-.7-2.51-.86,3.05-6.18,2.34c-1.88.71-3.44,2.73-3.33,4.47.03.44.89.93,1.16.75Z"/>
      <path class="cls-1" d="M26.41,46.72l-3.03,1.48.77,2.8-3.96-1.6-4.41,1.34-.53,1.54-.83-1.02c-.87.59-1.47,1.15-1.8,2.4l14.51.03-.73-6.97Z"/>
      <path class="cls-1" d="M28.02,15.6c.48-2.51,3.81-12.15,1.34-12.43-.51-.06-1.67.55-1.8,1.05l-2.47,9.3c.23,1.03,1.85,2,2.93,2.07Z"/>
      <path class="cls-1" d="M20.54,11.75c1.7,1.25,1.34-8.86,1.34-9.96,0-.81-.86-1.7-1.38-1.77-2.61-.34-2.08,7.1-2.34,8.97l1.53,1.96c.22.28.62.63.86.8Z"/>
      <path class="cls-1" d="M31.73,28.11c-.32.16-.78.98-.52,1.18,1.34,1.03,3.05-.78,4.21-2.02l2.96-.09-2.51-1.68c.11-1.7.12-3.81-1.45-5.02-2.71.29,2.78,4.97-2.69,7.62Z"/>
      <path class="cls-1" d="M11.48,47.37c.29-.13.43-1.16.23-1.44-3.43-4.84,1.48-5.52-.83-7.71-1.55,1.43-2.3,3.11-2.3,5.33l-2.19.96c4.13.47,3.57,3.56,5.1,2.87Z"/>
      <path class="cls-1" d="M28.6,18.44c.24-.05.97-1.07.76-1.16-2.38-1.1-5.94-.88-5.95-6.69-1.34,1.78-.88,4.26.2,5.87.96,1.44,3.43,2.34,4.99,1.98Z"/>
      <path class="cls-1" d="M16.7,14.7l4.7-.35.06-1.68c.02-.52-2.21.28-2.44-.14-.1-.18-.35-.75-.47-.96l-2.2-3.69c-.99,1.85.07,3.61,1.47,4.97l-1.13,1.84Z"/>
      <path class="cls-1" d="M30.49,49.3c-.45-1.43-1.13-2.82-2.31-3.68-.78,1.12-.17,2.07.38,3.05.83,1.47.09,3.1.15,4.96.82-.66,1.29-1.52,1.92-2.69l1.83-1.34-1.97-.3Z"/>
      <path class="cls-1" d="M5.97,32.86c-.71,1.52-1.02,2.54-.81,3.98.12.85,1.17,1.91,2.12,2.46l.79.46c.16.09.44-.28.48-.46.28-1.21-3.16-1.73-1.45-5.05l-1.13-1.39Z"/>
    </g>
  </g>
</svg>