<?xml version="1.0" encoding="UTF-8"?>
<svg id="Warstwa_2" data-name="Warstwa 2" xmlns="http://www.w3.org/2000/svg" viewBox="0 0 60.24 36.2">
  <defs>
    <style>
      .cls-1 {
        fill: #fff;
      }
    </style>
  </defs>
  <g id="game-icon-v6-elemental-pixarts-store">
    <g id="game-icon-v6-elemental-pixarts-store_207">
      <path class="cls-1" d="M57.6,14.25l-5.15,2.05c-2.33.93-5.05,3.9-3.69,6.19.93,1.56,2.84,0,5.4.94.56.21,1.11,1.43,1.07,1.99-.05.66-1.25,1.67-2.04,1.57l-4.46-.59c-.41-.05-1.37.42-1.68.64s-.39,1.3-.05,1.47c.54.27,5.35,2.05,3.63,4.29-2.12,2.76-4.09-2.74-10.66-1.96-6.07.72-8.01,4.24-11.83,4.87-3.6.59-6.79-.9-9.52-3.05-3.56-2.81-7.06-1.86-5.85-5.07.34-.9,1.75-1.14,3.16-1.02-2.67-6.93-11.08-1.37-11.61-5.7-.12-.96.95-2.21,2.12-2.16,3.2.14,4.28,1.32,5.17.44.34-.34.55-1.52.37-2.01C9.49,10.45-.17,12.44,0,7.8c.03-.71.94-1.8,1.78-2.06,4.98-1.54,8.4,3.4,11.51,6.96.56.64,2.42,1.26,2.8.59,1.57-2.78-3.64-4.01-2.39-6.5.39-.79,2.12-1.05,2.94-.33,3.11,2.71,1.23,7.86,5,11.33.31.29,1.36.47,1.75.38.47-.11.79-1.35.58-1.78l-1-2.03c-.21-.42,0-1.57.33-1.89.39-.37,1.73-.14,2.03.31,1.58,2.4.36,5.5,3.08,6.71,1.31.58,3.02.37,4.12-.59,3.08-2.66.44-8.64,3.65-7.27,1.48.63-1.36,2.78-.5,4.13.3.48,1.87.34,2.2-.14,2.61-3.65,1.42-5.11,3.64-7.32.46-.46,2.23-.45,2.64.1,2.11,2.82-2.76,4.04-1.92,6.98.26.89,1.85,1.38,2.89.93,4.41-1.92,5.78-7.88,11.58-6.91.9.15,2.01,1.04,2.24,1.74.3.93-.31,2.67-1.36,3.09ZM8.01,9.58c-1.12-1.74-3.22-3.64-5.47-1.94l5.47,1.94ZM56.99,11.61c-.17-1.94-4.41-.32-5.03,1.21l5.03-1.21ZM24.62,22.05c-.51,1.55-.62,1.91-.82,2.26s-1.53-.09-1.78-.44l-2.83-3.93c-.93-1.29-2.03-2.45-3.87-2.03,3.15,2.9,4.12,5.73,7.1,7.74,1.09.74,2.87.39,3.26-.72.36-1.02-.31-2.87-1.06-2.88ZM44.25,28.38l-2.09-1.01c.69-1.15,1.27-2.19,1.54-3.16-2.4,1.09-3.37,2.61-5.74,1.66l2-1.3c2.05-1.33-1.69-3.33-1.37-5.63-1.45.85-3.34,2.41-4.82,3-4.47.34-6.75,3.45-7.66,7.77,1.11-1.32,1.8-2.87,3.29-3.74,1.1-.64,2.87.06,4.01.61,5.47,2.63,2.5,2.64,10.85,1.8ZM23.09,31.17c-1.35-.09-4.77-4.61-4.99-3.84l-.26.94c-.16.57,1.96.98,2.22,1.34.63,1.07,1.47,1.5,3.03,1.56Z"/>
      <path class="cls-1" d="M39.76,34.64c-2.61,1.1-5.04,1.9-7.9,1.41,3.35-2.06,7.98-4.97,11.52-2.93l-3.62,1.52Z"/>
      <path class="cls-1" d="M52.68,2.21c-.72.9-2.18,1.6-3.42,1.71,0-1.21.74-2.81,1.63-3.36.29-.18,1.19-.18,1.52-.11.41.08.54,1.42.27,1.77Z"/>
      <path class="cls-1" d="M60.14,18.49c.72,1.1-2.59,1.77-4.61.63.62-1.37,2.77-1.91,3.82-1.41.23.11.67.6.79.79Z"/>
      <path class="cls-1" d="M57.04,30.96c.15.22.2,1.03.09,1.27-.15.31-1.21.49-1.52.31-.94-.53-1.71-1.87-1.9-2.97,1.32-.21,2.53.24,3.33,1.39Z"/>
      <path class="cls-1" d="M19.59,4.53c-.74-.51-1.49-1.12-1.86-1.53-.47-.54-.13-2.42.51-2.39,2.05.09,2.28,2.59,1.35,3.92Z"/>
      <path class="cls-1" d="M3.7,24.15l-1.64,1.43c-.4.35-2.01-.21-1.99-.74.06-1.57,2.2-1.98,3.63-.69Z"/>
      <path class="cls-1" d="M6.94,2.81c-1.61.38-3.16-1.59-2.58-2.6.34-.44,1.87-.11,2.03.42.19.62.46,1.7.55,2.18Z"/>
    </g>
  </g>
</svg>