<?xml version="1.0" encoding="UTF-8"?>
<svg id="Warstwa_2" data-name="Warstwa 2" xmlns="http://www.w3.org/2000/svg" viewBox="0 0 65.85 38.56">
  <defs>
    <style>
      .cls-1 {
        fill: #fff;
      }
    </style>
  </defs>
  <g id="game-icon-v6-elemental-pixarts-store">
    <g id="game-icon-v6-elemental-pixarts-store_453">
      <path class="cls-1" d="M65.05,36.58l-1.6-5.27c-1.01-3.34-.14-11.25-1.41-13.64l-1.33,4.15,1.94-11.61.64-5.04c.22-1.72.26-3.5.33-5.16l-6.66,1.23-1.41,1.85-.77,6.34-.41-5.65c-1.42.3-2.86,1.06-3.69,2.05l-.83,8.02-.38-3.15c-.62,4.02-.4,8.18-1.29,12.23-.25-.77.02-1.52.04-2.27l.25-15.1c-.51-.42-1.06-.7-1.78-1-.47,2.55,1.06,6.97.24,8.48l-.88-8.49-6.88.22-2.27,3.78.12,8.31c.03,1.79.42,3.54.08,5.24l-.41-3.35-1.11-10.69-4.17.44c-1.52.16-2.8-.78-4.2-1.13-1.46-.37-3.31-.19-4.81-.27l-2.22,2.57.38,8.07c.05,1.04.69,2.01,1.21,2.97.38.7.3,1.85.36,2.73l.25,3.59c.07.95.93,2.01.72,3.03-3.05-4.76.45-5.81-2.88-10.49l-.26,4.48-.63-14.27c-1,.22-2.17.7-2.96,1.28l-.55,4.72-.51-4.93-4.22-1.02-.51,4.84-.22-4.58c-.49.34-1.38,1.24-1.33,1.74l.62,6.65c.17,1.84.25,3.66.21,5.55l-1.19-6.7-.79-5.07-5.07-.91,3.02,19.34-1.37-3.63c-1.48,3.01-.48,6.25-2.24,10.12l-2.24,1.41h65.85c-.26-.61-.63-1.38-.81-1.98ZM56.2,22.61l.16-6.68c.87,1.95.15,5.8.97,7.62.92,2.07,2.39,3.77,1.83,6.24-.51-1.96-.96-3.58-2.36-5.04l-.73,2.35.13-4.49ZM38.88,14.02c.68-3.13-.2-6.09.83-6.35v7.25c.02,1.51,1.1,2.8.74,4.44l-1.37-4.32-.76,1.01c-.13-.77.42-1.36.56-2.03ZM30.86,21.55l.46-5.86.37,6.32c.03.46.71,1.46.68,1.95l-.21,3.27c-.14-5.25-1.47-3.62-1.31-5.68ZM23.09,13.75c-.09-1.63-.25-3.16-.11-4.69l.42,2.81.14,5.65c.93-1,1.29-1.81,1.81-2.9.09,2.08-1.04,1.62-1.27,4.7-.07.93-.23,1.71-.53,2.5l-.46-8.07ZM20.61,26.99c-.12,1.88-.75,3.68-1.85,5.31.39-1.89.95-3.54,1.85-5.31ZM6.17,15.12l.26,2.22c.13,1.11.16,1.81.26,3.39l-.68-.53.16-5.07ZM13.16,30.01c-.1.11-.44.53-.47.71l-.84,4.44c-3.04.44-4.72,1.57-7.76,1.72,1.2-.52,2.44-.89,3.75-1.29.14-1.12.24-2.03.59-3.09l.12,2.81,2.92-.84.16-2.48c.08-1.24.61-2.07,1.1-3.15.67-1.49.26-3.35.77-4.89l.26,6.94-.36-.6c-.05-.08-.16-.34-.23-.27ZM29.61,34.26l-5.65,2.26-2.89-.86-7.61,1.58,3.1-1.15c-.72-.76-1.62-1.18-2.78-1.53,2.43-1.05,2.81,1.94,6.17.81,2.72-.91,2.19,1.19,5.18-.04.93-.38,1.51-.74,1.91-1.76l.87.2c.98-3.38.39-5.34,1.26-8.43l.19,8.31c1.41-.05,2.47.49,3.21,1.32-.9-.05-2.19-1.01-2.96-.71ZM51.8,36.26l1.02-1.09c-.99-.53-2.1-1.18-3.16-1.51-1.39-.43-2.52,1.27-3.67,1.46-2.29.37-4.5.66-6.58,1.32l-4.74-1.58c-.08-1.36-.03-2.9.22-4.3l.78,4.07,3.58,1.18,2.45-.67.46-8.39.21-3.9.54,11.98c3.55-.03,2.9-.4,5.65-1.99.38-4.85,1.34-3.67,1.97-8.16.31,2.48.4,4.63.44,7.05l-.74-2.94c-.65,1.37-.88,2.54-1.03,3.87,2.2,1.09,4.11,2.22,6.43,2.29l3.96-2.47c-4.62,4.35-3.83,1.91-7.79,3.77ZM60.32,14.67c-.83-2.87-1.26-5.44-.87-8.65l.5,3.33c.27,1.79.54,3.43.37,5.32Z"/>
    </g>
  </g>
</svg>