<?xml version="1.0" encoding="UTF-8"?>
<svg id="Warstwa_2" data-name="Warstwa 2" xmlns="http://www.w3.org/2000/svg" viewBox="0 0 49.12 56.82">
  <defs>
    <style>
      .cls-1 {
        fill: #fff;
      }
    </style>
  </defs>
  <g id="game-icon-v6-elemental-pixarts-store">
    <g id="game-icon-v6-elemental-pixarts-store_486">
      <path class="cls-1" d="M23.67,25.77c-.51,5.21-.26,10.16-.08,15.2l6.16-6.11c.46-.46,1.12-.68,2.06-.7l1.78-20.53L23.36,0l-9.92,14.59,7.78,4.91,1.48-13.33c.15-1.31.32-2.61.58-3.85l-.12,12.53c0,1.03,1.77,2.84,2.64,3.47l5.33-2.96-4.46,4.23c-1.35,1.28-2.82,4.2-3.02,6.18Z"/>
      <path class="cls-1" d="M20.63,21.41c-2.18-2.15-4.59-3.71-7.31-5.44l3.13,25.6,5.7,4.52c.99-4.3.18-23-1.52-24.67Z"/>
      <path class="cls-1" d="M25.08,56.82c.6.05,1.84-.87,2.34-1.13,1.15.18,2.5-.11,2.96-1.31,1.45-3.85,2.88-7.18,4.74-10.96-1.19-2.49-2.48-4.78-4.32-7.33l-.6,9.57,2.21-.68c-.92.93-2.2,1.98-2.8,3.03l-2.49,4.37,1.25-4.72-2.12-2.88,2.91,1.24,1.28-9.25c-2.69,2.18-4.64,4-6.58,6.04l-.96,11.96c.38.65,1.51,2,2.19,2.06Z"/>
      <path class="cls-1" d="M32.45,35.51l3.53,6.21,4.39-9.24-1.93-6.03,2.89,4.52,6.13-12.08c-3.76,1.59-6.98,3.08-10.13,4.82l-4.87,11.79Z"/>
      <path class="cls-1" d="M1.73,22.31l5.71,9.99,2.1-4.61-1.05,6.18,5.35,10.41c.71-.84,1.45-1.8,1.87-2.5-.65-6.17-3.18-9.93-5.63-15.75l-7.26-3.93c-.42-.23-1.78-.33-1.84.24l-.99,9.36,6.62,1.43c-1.79-3.82-3.57-7.01-4.89-10.82Z"/>
      <path class="cls-1" d="M11.96,47.6c.44-.31,1.77-2.04,1.39-2.68l-5.98-10.36c-2.32-.97-4.46-1.64-7.07-2l5.94,8.96c1.57,2.37,3.29,4.29,5.72,6.08Z"/>
      <path class="cls-1" d="M18.92,56.13l3.29-1.68-.21-6.25-5.57-4.84-3.58,6.04c2.17,4.23.85,4.75,5.66,6.28l-1.41-4.11-2.41-1.69c.93-.1,2.04.36,2.09-.06l.2-2.05.87,2.46,2.38-1.04-2.11,2.43.8,4.51Z"/>
      <path class="cls-1" d="M41.77,33.19c-2.94,4.94-5.42,9.85-7.44,14.75l7.43-6.81,6.86-10.4-6.86,2.45Z"/>
      <path class="cls-1" d="M32.64,53.18l1.37.27c.81.16,2.7.96,3.5.55,2.65-1.33,5.47-3.02,7.97-4.83-1.76-.56-2.87-.58-4-.45l-3.49,1.95c2.48-2.88,3.58-1.65,3.09-7.12-.98.86-10.82,9.17-8.44,9.63Z"/>
      <polygon class="cls-1" points="49.12 30.04 47.65 19.53 42.64 31.49 49.12 30.04"/>
      <path class="cls-1" d="M9.8,53.41c1.19.44,2.16.6,3.42-.37l-6.22-3.27-2.05,1.14.95-1.65-2.66-1.71,3.31,1.05.36-2.17.39,2.47c.07.43,1.02.66,1.5.9l3.34,1.68-.55-2.8c-3.93-3.22-5.14-3.42-10.48-2.29,2.79,5.81,3.33,5.05,8.69,7.04Z"/>
      <polygon class="cls-1" points="42.15 47.06 47.62 42.72 42.22 43.07 42.15 47.06"/>
      <polygon class="cls-1" points="47.91 43.43 42.56 47.85 46.13 48.67 47.91 43.43"/>
      <path class="cls-1" d="M24.62,19.54l-1.73-2.46c-.33,2.14-1.1,4.08.28,6.12l1.45-3.67Z"/>
    </g>
  </g>
</svg>