<?xml version="1.0" encoding="UTF-8"?>
<svg id="Warstwa_2" data-name="Warstwa 2" xmlns="http://www.w3.org/2000/svg" viewBox="0 0 53.65 49.87">
  <defs>
    <style>
      .cls-1 {
        fill: #fff;
      }
    </style>
  </defs>
  <g id="game-icon-v6-elemental-pixarts-store">
    <g id="game-icon-v6-elemental-pixarts-store_408">
      <g>
        <path class="cls-1" d="M29.9,27.16l-2.82-1.66c-2.42-1.42-5.51.33-6.75-2.42-.95-2.11,4.4-3.19,5.83-4.49l1.19-3.6c.16-.47.67-1.12,1-1.58-.74.13-1.38.74-1.76,1.47l-1.22,2.35c-4.04,2.17-5.55,1.44-9.18,4.36-3.17-.54-5.98.22-7.52-2.42,1.43-.8,2.47-1.34,3.6-2.3l-5,1.39c-2.85-.82-5.31-2.46-7.28-4.89,2.28-1.87,5.28-3.73,8.33-3.51,1.27.09,2.14,1.54,3.77.52,1.86-1.17,5.33,1.24,7.43,1.31l-4.69-2.78c-1.8-1.07-4.1,2-5.72-.94l-2.4-.03c2.34-5.19,5.51-3.79,8.58-4.68,3.76-1.09,5.23-4.18,10.45-2.98l5.78,1.33-3.62,3.24c1.33-.13,2.35-.89,3.42-1.63,1.77-1.24,4.01-1.05,6.07-1.03,1.71.02,2.89.42,4.29,1.36,1.27.85,4.98,3.1,4.61,4.71-.04.18-.68.29-.87.25l-5.63-1c-.57.21-1.66.8-2.12,1.1-1.31,4.1-1.19,2.92-4.75,4.18,1.35.08,3.18.07,4.31-.65,1-.64,1.35-2.89,2.94-2.72,2.12.23,4.4.26,6.57-.21,1.01-.22,3.26.66,3.8,1.53l3.09,5c-.79.74-2.32,1.88-3.3,2.29l-4.02-.95,3.08,1.74c-.67.78-1.46,1.89-2.26,2.23-8,3.35-5.73-2.42-13.09-1.2,2.31.82,4.7,1.28,6.1,3.43l-8,4.04c-.65.33-1.63.23-2.25-.14Z"/>
        <path class="cls-1" d="M30.34,28.11c.25,2.96.29,5.65.38,8.7.64-2.72.92-5.37,1.25-8.3l8.13-3.59-.03,5.86c-1.54,3.99-1.85,2.67-1.95,7.48.76-2.31,1.4-4.25,2.98-5.98,2.16.29,1.26,4.62,1.24,4.67l-2.23,5.45c-2.21,1.49-4.61,2.57-7.14,3.72l-.05-3.5-2.43,5.14-3.28,1.49c-1.7.77-4.91-1.57-6-2.56-1.73-1.56-3.34-2.92-5.56-3.7-3.94-1.39-3.54-5.47-5.75-7.66-2.88-2.84-5.6-2.46-6.34-6.47-.66-3.56-1.8-6.61-3.44-9.82-.14-1.44-.08-3.26.05-4.72,1.78,2.32,3.47,3.88,6.01,5.09l1.41,4.53c.44,1.41-.1,3.58.82,4.73,1.07,1.35,1.88,2.38,2.03,4.21.56-3.16.48-2.86-1.56-5.2l.19-5.38,6.96,1.16c.37,2.24.97,4.12,1.96,6.14,1.11,2.27-1.2,3.67-1.74,6.21.01,1.43.62,2.98,1.05,4.19l.09-3.64c.01-.6.95-1.57,1.32-1.9,4.43,5.99,2.58,3.48,4.31,10.32.11-2.14.37-4.44-.14-6.46-.46-1.82-2.76-3.18-2.7-5.21.05-1.96.24-3.8-.2-5.77-.19-.83-.22-1.66-.21-2.58l2.51,1.11c.99.06,2.79-.58,3.64-.13l4.44,2.36Z"/>
        <path class="cls-1" d="M41.91,30.31l1.25-6.3c2.82-1.52,3.5-.33,5.64-2.86l-.31,4.95,2.6-7.05c.32-.86,1.68-1.69,2.49-2.36.27,8.63-1.01,5.61-3.22,13.38-.26.9-.87,2.22-1.58,2.73l-4.47,3.25.1-3.71-2.5-2.03Z"/>
        <path class="cls-1" d="M7.68,41.73l-2.87-1.79-.34-2.69c-.09-.68.52-1.82,1.26-1.92l2.81,2.58.6,2.79c.1.47-1.06,1.27-1.47,1.02Z"/>
        <path class="cls-1" d="M48.37,39.11c-.05.97-2.62,3.77-4.22,3.66-.02-1.25-.06-2.53.45-3.7.36-.83,2.01-1.6,2.98-1.63.45-.01.83,1.15.8,1.66Z"/>
        <path class="cls-1" d="M39.24,46.05s1.26,1.8-1.24,3.46c-.87.58-2.18.35-3.33.02.68-2.51,2.39-3.6,4.58-3.48Z"/>
      </g>
      <path class="cls-1" d="M12.39,45.97c-.33.22-1.23-.12-1.28-.4-.06-.34-.1-1.08.03-1.49.12-.36,1.21.04,1.43.35.25.35.43,1.14-.18,1.54Z"/>
    </g>
  </g>
</svg>