<?xml version="1.0" encoding="UTF-8"?>
<svg id="Warstwa_2" data-name="Warstwa 2" xmlns="http://www.w3.org/2000/svg" viewBox="0 0 56.71 59.16">
  <defs>
    <style>
      .cls-1 {
        fill: #fff;
      }
    </style>
  </defs>
  <g id="game-icon-v6-elemental-pixarts-store">
    <g id="game-icon-v6-elemental-pixarts-store_242">
      <path class="cls-1" d="M23.66,21.85l4.79-12.39,4.82,11.93c.42,1.03,2.86,1.83,4.09,2L28.43,0l-9.02,23.6,4.25-1.75Z"/>
      <path class="cls-1" d="M54.15,9.53c-.69-.63-1.89-.76-2.77-.27,2.96,1.88,4.39,4.53,3.43,7.9-1.08,3.78-3.52,6.84-6.31,9.6-9.28,9.16-19.74,14.23-32.04,17.33-.35.09-1.27,1.27-1.01,1.29.27.02,1.24.23,1.72.13,12.96-2.66,25.86-9.87,34.73-20.03,3.77-4.32,7.4-11.25,2.25-15.95Z"/>
      <path class="cls-1" d="M28.32,49.49l-2.03-4.85-2.77,1.32,4.92,13.19,6.74-18.36c-1.23.31-3.47,1.08-3.92,2.09l-2.94,6.61Z"/>
      <path class="cls-1" d="M28.43,17.8c-2.22,6.11-.97,6.37-7.1,8.24,1.19.9,4.1,1.55,4.56,2.88l2.55,7.39,2.57-7.41c.43-1.25,2.91-1.95,4.39-3.01l-4.16-1.19c-1.37-1.99-2.1-4.4-2.81-6.89Z"/>
      <path class="cls-1" d="M15.35,22.27c1.63-.99,3.2-1.86,4.29-3.52-7.6,2.82-26.06,15.86-17.36,24.84l1.26-.92c-6.2-7.36,6.12-16.94,11.8-20.4Z"/>
      <path class="cls-1" d="M21.8,41.12l3.09-.91-3.48-9.05,2.66.56c-2.14-1.8-3.9-3.33-7.06-3.91l4.79,13.31Z"/>
      <path class="cls-1" d="M9.8,40.06c-.51,1.2-.93,2.53-1.4,3.11-.41.51-1.92.56-3.14.92,1.86,1.59,2.46,2.99,1.41,5.6l3.19-1.53,2.68,1.5-.33-3.33,2.12-2.45c-2.88.24-3.78-1.45-4.53-3.82Z"/>
      <path class="cls-1" d="M39.92,27.31c-3.25.93-5.1,2.29-7.53,4.31l2.92-.56-1.38,4.51c4.45-1.36,4.75-3.5,6-8.26Z"/>
      <path class="cls-1" d="M52.36,7.04c-2.95-1.51-2.78-.19-3.74-4.21l-1.43,3.04c-.3.64-2.05.78-2.86,1.14,2.83.63,3.68,1.84,4.04,4.53.83-2.45,1.2-4,3.98-4.5Z"/>
      <path class="cls-1" d="M48.89,24.56c.32-.14.6-.89.66-1.31-3.32-1.49-6.93-3.06-10.59-2.94l8.44,3.86c.44.2,1.16.53,1.48.39Z"/>
      <path class="cls-1" d="M33.65,8.66c.17.04.69.17.91.14l8.62-1.31c.45-1.73-12.15.58-9.53,1.17Z"/>
      <path class="cls-1" d="M5.12,23.59l2.21-2.28,6.19-4.89c-3.48,1.38-6.83,3.42-8.4,7.17Z"/>
      <path class="cls-1" d="M14.35,16.02c2.63-1.12,4.84-2.23,7.37-3.8-3,.18-5.3,1.68-7.37,3.8Z"/>
      <path class="cls-1" d="M50,31.71c2.13-1.26,3.67-2.73,3.53-4.92-1.85,1.32-3.07,3.06-3.53,4.92Z"/>
    </g>
  </g>
</svg>