<?xml version="1.0" encoding="UTF-8"?>
<svg id="Warstwa_2" data-name="Warstwa 2" xmlns="http://www.w3.org/2000/svg" viewBox="0 0 32.09 53.65">
  <defs>
    <style>
      .cls-1 {
        fill: #fff;
      }
    </style>
  </defs>
  <g id="game-icon-v6-elemental-pixarts-store">
    <g id="game-icon-v6-elemental-pixarts-store_66">
      <path class="cls-1" d="M25.25,16.72c2.07-.45,4.09-.71,6.84-.8-5.27,6.91-10.45,13.57-15.96,19.97-1.72,2-3.27,4.66-5.18,7.08l-8.42,10.68,2.8-7.16,7.23-18.29-12.56,1.24c2.16-5.07,3.92-10.11,6.27-13.89.39-.62.61-1.89.73-3.04L12.04.57c-.15,3.86.72,7.57-.11,10.92l-2.81,11.43,8.38,1.76c.55.12.14,1.79-.1,2.29-2.85,5.82-.6,3.28-.8,4.28l.17-.87c.92-4.58,3.99-7.79,8.07-10.04-.22-.23-.87-.8-.75-1.07l1.14-2.57Z"/>
      <path class="cls-1" d="M24.29,16.81c-.91,2.67-2.48,5.72-5.29,7.32l-9.16-1.64,2.22-9.14c1.53-6.31.02-6.32.61-13.19l15.77-.16c-.46,2.25-2.67,3.21-3.37,4.68-2.17,4.51-5.15,8.59-8.19,12.68l7.4-.55Z"/>
    </g>
  </g>
</svg>