<?xml version="1.0" encoding="UTF-8"?>
<svg id="Warstwa_2" data-name="Warstwa 2" xmlns="http://www.w3.org/2000/svg" viewBox="0 0 54.28 54.55">
  <defs>
    <style>
      .cls-1 {
        fill: #fff;
      }
    </style>
  </defs>
  <g id="game-icon-v6-elemental-pixarts-store">
    <g id="game-icon-v6-elemental-pixarts-store_254">
      <path class="cls-1" d="M13.83,20.72c-4.26-.52-7.55,1.21-9.29,4.8-2.42,4.99-1.85,10.55,1.23,15.11,1.54,2.29,2.81,4.79,5.18,6.02-3.16-5.31-5.17-10.69-5.15-16.79,2.21,1.95.17,4.55,1.99,6.38.25-5.22,1.56-8.25,3.25-12.1.42.89.13,1.01-.04,1.56-.09.29,1.24,8.18,2.18,10.59.11.27,1.29.05,1.33-.23.22-1.6-4.22-8.92,2.35-18.84-1.57,5.41-2,10.61.53,15.43.05-3.25-.12-5.85.59-8.7l1.17,5.4c-.39-4.51.48-8.73,3.09-12.66.88-1.33,1.58-2.77,3.65-2.91l-2.42,3.25c-2.47,4.59-2.63,10.25-.06,14.74-.69-5.38-.37-10.41,3.71-14.01l1.16.35c1.73-.83,3.89-2.28,5.88-.41-5.32.47-8.67,4.29-8.59,9.42.12,7.43,6.57,12.58,13.86,12.69,5.96.09,10.85-2.11,14.85-6.97-2.74,12.53-13.71,21.12-26.25,21.68-8.5.38-16.4-3.38-21.73-9.8C-1.82,34.96-2.2,21.08,5.79,11.19,12.79,2.51,26.63-3.42,36.95,2.2c2.59,1.41,7.03,3.08,6.15,4.51l-1.9.34c-.37.07-.37,1.05-.66,1.97-1.31-.37-2.89-1.46-4.19-2.47-.11.78-.2,2.02-.57,2.43s-1.6-.05-2.58-.12c.05.37,1.09,1.32,1.69,1.5.63.19,1.87-.78,2.44-1.35,1.39,1.21,2.53.88,4.23.5,3.34-.74,6.93,3.14,6.72,6.39l-2.69-1.23c1.54,2.35,3.19,6.17.28,8.23-.49.34-2.16.22-2.28-.34l-.49-2.21-1.64.22c-.41.05-.58-1.2-.74-1.6l-.32-.81c-.06-.14-.46-.16-.63-.2-.22-.06-.04.75-.04,1.17,0,.64-.9,1.54-1.53,1.68-1.02.23-1.52-.97-1.55-1.86-.01-.33-.33-1.48-.58-1.33l-1.42.8.27-2.36c-.14-.36-.57-1.08-.85-1.31s-1.21.09-1.55.28l-1.11.62c-.6.33-1.3-2.38-1.76-2.15l-1.35.66c-1.36-2.91-4.38-3.8-7.36-2.83l-2.68-1.01c.89.65,3.32,3.6,1.41,4.61-1.76.93-3.69-2.87-7.37-.38l-2.71,1.83c1.38.37,2.36.57,3.15.99s1.08,1.67,1.07,3.35ZM43.26,42.75c-1.22.53-2.47.41-3.53-.66-.64-.65-1.93.53-2.61.49-3.77-.24-7.39-2.81-10.36-4.98l.58,1.79c-2.96-1.67-4.3-4.53-6.42-7.54,2.33,11.14,14.87,15.38,24.73,11.5,2.48-.98,4.63-2.57,5.74-4.79-1.95,1.04-4.16,2.86-6.05,2.97l-3.64.22,1.56,1.01ZM39.69,47.34c-2.07-.25-5.14-.61-6.93-.35-.2.21-.69,1.42-.87,1.25-.2-.18-.73-.51-.65-.76l.3-1.01c-3.12-1.18-6.56-2.26-9.09-4.65-1.09-1.03-1.8-2.37-3.26-2.72l2.26,3.9c-1.28.15-2.52-.4-3.35-1.45l-3.02-3.8c-.15-.18.07-1.24-.13-1.13l-1.14.59c1.02,2.52,2.54,5.1,4.3,7.98-4.74-.68-6.45-6.68-8.03-11.32-.85,3.72.81,6.91,2.58,10.05,2.94,5.24,8.38,8.68,14.28,8.91-2.72-1.23-5.51-2.17-7.25-4.7.68-.7,1.61-.61,2.04-.27.34.26.86,1.62,1.31,1.91,3.42,2.13,9.76,3.29,13.66,1.26-3.97-.31-8.06-.47-11-3.14l9.59,1.5.45-1.67.95,1.52c.17.28,1.42.19,1.73.01l4.05-2.21-2.78.33Z"/>
      <path class="cls-1" d="M50.88,23.11c-.42.16-1.22-.6-1.3-1.01-.09-.5.31-1.99.81-1.98.47,0,1.28.88,1.36,1.3s-.41,1.52-.87,1.69Z"/>
    </g>
  </g>
</svg>