<?xml version="1.0" encoding="UTF-8"?>
<svg id="Warstwa_2" data-name="Warstwa 2" xmlns="http://www.w3.org/2000/svg" viewBox="0 0 66.39 40.28">
  <defs>
    <style>
      .cls-1 {
        fill: #fff;
      }
    </style>
  </defs>
  <g id="game-icon-v6-elemental-pixarts-store">
    <g id="game-icon-v6-elemental-pixarts-store_358">
      <path class="cls-1" d="M21.13,26.7c1.78-.38,3.36-.67,5.25-.47-4.65,2.26-9.24,2.92-14.91,4.14l17.06,3.21-6.09,1.76c3.65,1.02,7.11,1.04,10.32.72.17-1.61.38-3.13.69-4.16l8.77-5.55,1.42-4.52c-1.7.2-3.33.22-4.33-.61-.86-.71-1.35-2.73-.89-3.76,4.2-9.58,2.72-7.15,11.59-11.95-2.99-.12-6.13.63-9.13,1.65-6.47,2.22-12.73,3.59-19.94,3.37,3.14,2.27,6.69,2.16,10.72,2.79-7.72,2.72-13.93-.64-20.85,4.61,3.38-.32,6.43-.76,9.83-.15-9.17,3.74-9.38,7.74-20.63,6.95,6.51,3.35,13.89,3.5,21.13,1.97Z"/>
      <path class="cls-1" d="M58.27,17.97l6.7.95c.5.07,1.6-1.03,1.4-1.41-1.23-2.3-4.43-.92-6.28-2.56-2.2-1.95-2.21-9.09-7.5-7.37-9.6,3.13-8.85,3.94-11.7,10.56-.19.43.53,2,.9,1.8.28-.15.95-.61,1.13-.94l2.72-4.93c.48-.87,2.76-1.57,3.79-1.75l-4.95,15.36c-2.75,2.26-6.03,4.22-9.19,6.15l1.27,5.14-5.54.4c-1.55.11-3.3.47-4.77.84l39.19.07c-2.09-1.88-3.45-2.6-5.16-3.6v-10.22s-6.1-5.78-6.1-5.78l1.97-6.01,2.13,3.31ZM56.59,28.33l.38,9.29-17.14,1.1c-.98.06-1.54-1.66-1.29-2.17,1.13-2.25,6.47-4.08,9.11-6.34l2.86-5.96,6.08,4.07Z"/>
      <path class="cls-1" d="M57.1,7.1c1.96,0,3.55-1.59,3.55-3.55s-1.59-3.55-3.55-3.55-3.55,1.59-3.55,3.55,1.59,3.55,3.55,3.55Z"/>
      <path class="cls-1" d="M17.82,5.92c2.48,1.36,5.41,1.66,8.16.27-2.74-1.45-5.34-1.23-8.16-.27Z"/>
      <path class="cls-1" d="M19.35,38.27c-2.15-1.19-4.74-1.14-6.67.23,2.21,1.14,4.61,1.13,6.67-.23Z"/>
      <path class="cls-1" d="M8.95,10.69c2.33,1.3,4.55,1.21,6.88,0-2.17-.99-4.73-1.17-6.88,0Z"/>
      <path class="cls-1" d="M43.22,1.8c-2.17-1.26-4.37-1.18-6.11.05,2.06,1.09,4.11,1.22,6.11-.05Z"/>
      <path class="cls-1" d="M8.67,34.55c-2-1.36-3.94-1.31-5.69.1,1.86.86,3.88.72,5.69-.1Z"/>
    </g>
  </g>
</svg>