<?xml version="1.0" encoding="UTF-8"?>
<svg id="Warstwa_2" data-name="Warstwa 2" xmlns="http://www.w3.org/2000/svg" viewBox="0 0 53.42 56.33">
  <defs>
    <style>
      .cls-1 {
        fill: #fff;
      }
    </style>
  </defs>
  <g id="game-icon-v6-elemental-pixarts-store">
    <g id="game-icon-v6-elemental-pixarts-store_212">
      <path class="cls-1" d="M47.42,17.99c-3.49,4.4-2.72,12.85-10.73,11.1l3.52-1.78-5.81-1.58c-4.16-1.13-2.62,2.67-6.84,2.39-.89-.06-2.25-1.74-1.69-2.53,1.39-1.97,3.01-3.52,2.41-5.71l-1.71-6.24-1.99,3.78c-1.08-8.92,6.28-7.01,10.74-11.75l-2.77-.86,6.89-4.81c-1.33,12.79-16.4,10.21-6.79,18.62l11.31-11.45-2.14-1.38,9.47-4.78-4.18,9.76-1.29-1.95-10.77,12.44c1.33,2.2,4.31,3.21,6.52,2.32,2.4-5.16,6-9.61,11.85-10.7l-4.65,7.52-1.35-2.42Z"/>
      <rect class="cls-1" x="-4.02" y="41.19" width="33.21" height="3.53" transform="translate(-27.47 22.97) rotate(-47.15)"/>
      <path class="cls-1" d="M27.19,29.73c.6,1.23-2.11,1.35-2.66.65-.75-.94-.96-2.29-.01-3.24.68.55,2.31,1.85,2.68,2.6Z"/>
    </g>
  </g>
</svg>