<?xml version="1.0" encoding="UTF-8"?>
<svg id="Warstwa_2" data-name="Warstwa 2" xmlns="http://www.w3.org/2000/svg" viewBox="0 0 52.19 45.54">
  <defs>
    <style>
      .cls-1 {
        fill: #fff;
      }
    </style>
  </defs>
  <g id="game-icon-v6-elemental-pixarts-store">
    <g id="game-icon-v6-elemental-pixarts-store_73">
      <path class="cls-1" d="M22.77,32.74c-.03,1.18-1.03,2.17.6,3.16,1.2-1.45.73-2.46,1.39-5.85.4-2.05.19-4.11,1.31-6.99.54,1.56.88,2.97,1.08,4.5l.53,4.18c.18,1.45.44,2.78,1.05,4.14,1.39-.93.65-2.07.64-3.34v-3.82c0-1.45-.31-2.63.08-3.91l1.6,5.1c-.09-3.75-3.76-11.19-2.03-14.97l2.33,4.65,1.3,2.64c.56-.75.71-.91.86-1.21s-.39-1.24-.56-1.54c-.4-.7-.72-1.67-1.09-2.46l-1.46-3.22-3.22-.59,3.35-.38-.98-1.75-1.42.83,7.13-6.85,3.07,7.8-7.29.29c1.24.46,2.5.48,3.9.52l3.37.1-4.37,11.59-4.16,10.56-3.71,9.63-4.58-11.94c-2.01-5.25-.27-2.48-.2-6.42l-1.19,3.05-6.15-16.47,4.72-.23,3.23-.11-1.54,3.62c-.47,1.11-1,2.23-1.59,3.14l-.11,1.38s.67.12.92.15c.74.1.65-1.23,1.46-2.72l2.13-3.9c.83,2.31.55,4.55-.44,6.78-.3.67.25,1.28.25,1.76l-.05,3.36-.15,5.76Z"/>
      <path class="cls-1" d="M24.79,8.38c.67,1.93-1.26,1.89-1.12,2.26l.34.86-1.07-.3c-.52-.15-1.02,1.04-1.14,1.79l-7.88-.16,2.99-7.7,4.17,3.54-1.71-2.35.21-.57c-.15.42-1.47-.16-2.09-1.25L26.07.13l8.84,4.39-3.31,3.15-.69-3.83c-.5,2.37,1.23,3.09-.53,5.52-.4.55-1.21,1.22-1.75,1.14-.65-.11-1.53-.95-1.4-1.47.21-.86.33-1.55.26-2.17-.05-.48-.82-1.24-1.36-1.2-.67.04-1.32.48-1.4.89-.11.51-.1,1.4.05,1.85Z"/>
      <path class="cls-1" d="M24.49,43.94l-10.35-13.38-1.42-3.79c-.73-1.94-1.72-3.57-1.9-5.65,1.84,1.6,8.11,9.12,8.95,10.64,2.05,3.74,3.14,7.76,4.73,12.18Z"/>
      <path class="cls-1" d="M27.69,44.08c1.17-3.68,2.4-6.9,3.73-10.37.39-1.01.95-1.94,1.63-2.75l8.11-9.66c-.19,2.64-1.38,4.65-2.14,7.03-.33,1.05-.67,2.17-1.36,3.05l-9.96,12.69Z"/>
      <path class="cls-1" d="M41.19,20.29l-8.23,9.58,6.14-16.25,6.69-.78c-1.56,2.76-2.67,5.2-4.6,7.46Z"/>
      <polygon class="cls-1" points="19.32 29.82 10.62 19.92 6.49 12.82 13.1 13.66 19.32 29.82"/>
      <path class="cls-1" d="M6.36,11.34c-.15-2.44.11-4.99.51-7.41L14.1.24l2.33,4.16-10.08,6.94Z"/>
      <path class="cls-1" d="M45.86,11.32l-10-6.97,2.4-4.02,7.14,3.72c.39,2.41.67,4.43.46,7.27Z"/>
      <path class="cls-1" d="M46.62,12.74l2.77-.5-1.06,3.69c1.1-1.84,1.33-4.65,3.87-3.79l-12.45,16.32c.86-2.94,1.81-5.45,2.83-8.25.94-2.58,2.79-4.78,4.06-7.47Z"/>
      <path class="cls-1" d="M5.46,12.56l3.6,6.25c1.1,1.91,1.33,4.3,1.99,6.35.34,1.06,1.5,1.92,1.31,3.19L0,12.11c1.63-.41,1.95.68,2.95,1.8l-.4-1.6,2.9.25Z"/>
      <polygon class="cls-1" points="13.14 12.92 6.66 11.89 16.17 5.36 13.14 12.92"/>
      <polygon class="cls-1" points="45.48 11.81 39.09 12.95 36.21 5.46 45.48 11.81"/>
      <polygon class="cls-1" points="37.67 .03 35.3 3.93 27.51 .07 37.67 .03"/>
      <polygon class="cls-1" points="46.75 11.78 46.35 7.26 46.1 4.47 52.1 11.15 46.75 11.78"/>
      <polygon class="cls-1" points="24.34 .12 16.99 3.99 14.67 .01 24.34 .12"/>
      <polygon class="cls-1" points="2.57 10.06 2.2 11.42 .12 11.18 6.09 4.69 5.5 11.73 2.84 11.5 2.57 10.06"/>
      <path class="cls-1" d="M39.07.18c2.78-.34,3.17-.26,5.03,2.46L39.07.18Z"/>
      <path class="cls-1" d="M13.09.15l-5.09,2.58C9.69.5,10.24-.38,13.09.15Z"/>
    </g>
  </g>
</svg>