<?xml version="1.0" encoding="UTF-8"?>
<svg id="Warstwa_2" data-name="Warstwa 2" xmlns="http://www.w3.org/2000/svg" viewBox="0 0 68.57 63.71">
  <defs>
    <style>
      .cls-1 {
        fill: #fff;
      }
    </style>
  </defs>
  <g id="game-icon-v6-elemental-pixarts-store">
    <g id="game-icon-v6-elemental-pixarts-store_442">
      <path class="cls-1" d="M0,63.71c1.87-4.09,3.9-7.79,6.11-11.91l1.65,4.05,9.6-12.69,1.27,6.43,5.96-8.92c-2.3-3.38-3.15-7.28-2.22-11.28l1.92-.84.91,3.91-.55,2.27,2.78,2.65c-.05-1.08-.72-2.04-1.62-2.83-.07-.91.86-2.24,1.95-2.62l2.31,2.08c.42.38,1.75.27,2.15.06-.65-.24-1.64-.48-1.92-.86l-2.14-2.89-2.43.97c-.02-1.55.05-2.38.23-4.11-.72-.06-1.77.04-2.91.32.69-2.15,2.18-4.08,4.11-5.8l-8.89-8.05,5.21-.6-6.73-6.74,2.49-.58c-1.51-1.57-2.93-2.81-4.4-4.67l8.88,5.5-3.18.94,8.97,7.17-4.9.9,5.64,4.17c1.91-.63,3.87-1.21,5.86-1.04l-2.84,3.12,2.57,1.49-2.09,2.92,1.67,2.4-.46-2.34,1.61-1.94c.32-.38.88-1.14,1.3-1.2.52-.07,1.28.14,2,.28-1.68-2.62-2.3.27-4.23-2.23l2.61-2.3c2.23.35,4.43,1.43,6.28,2.86l8.25-4.71-5.93-1.8,12.71-7.77-4.36-1.49,13.26-5.97c-2.27,2.05-4.7,3.6-7.23,5.51l3.42,1.11-10.06,7.45,6.68,1.4-13.64,9.62,1.65,3.76-1.8-.33-1.13,3.43-3.05-2.16-1.65,3.47,2.14-1.47c2.5.88,2.43,3.71,1.94,4.34l-1.3,1.67,2.16-1.28c.13-1.06.15-2.29.48-3.08l1.25-3.08,1.29.95c.32,3.24-.51,6.35-2.28,9.17l3.69,5.24,1.44-4.91,7.48,12.47,1.51-5.53,7.1,14.45c-2.42-2.44-4.14-5.18-6.45-7.95l-1.24,4.48-7.36-10.84-1.08,4.92-7.75-9.35c-3.31,2.51-6.97,3.58-11.1,2.75l2.47-1.95,3.08.14,1.92-2.52c-1.57.08-2.09,2.9-5.32.66-1.72-1.19,1.42-1.95.87-4.17-.62,1.38-1.66,2.17-3.2,3.14l1.29,1.74c.58.78-2.36.99-3.53,2.45-.84-.29-1.89-.84-3.08-1.54l-11.8,13.73-.85-6.87-8.89,9.13-.97-3.03c-1.96,2.28-3.37,4.38-5.57,6.58Z"/>
    </g>
  </g>
</svg>