<?xml version="1.0" encoding="UTF-8"?>
<svg id="Warstwa_2" data-name="Warstwa 2" xmlns="http://www.w3.org/2000/svg" viewBox="0 0 42.1 50.9">
  <defs>
    <style>
      .cls-1 {
        fill: #fff;
      }
    </style>
  </defs>
  <g id="game-icon-v6-elemental-pixarts-store">
    <g id="game-icon-v6-elemental-pixarts-store_195">
      <path class="cls-1" d="M13.14,50.17L1.91,42c-1.78-1.3-2.61-4.36-1.18-6.35L17.53,12.29c1.91-2.66,5.06-2.11,7.88-2.06,2.57.05,3.51-3.71,3.36-5.48-.05-.59,1.33-2.07,1.78-1.74,1.97,1.41,3.09,3.78,8.3,6.24,1.08.51,2.16.92,2.16,1.99,0,.82-1.15,1.6-2.32,1.74-1.79.22-3.92,3.31-3.12,4.96,1.72,3.51,1.87,6.3-.38,9.36l-16.02,21.88c-1.31,1.78-4.26,2.27-6.03.98ZM13.64,48.6c1.22.9,3.62.55,4.42-.56l16.75-23.24c1.65-2.3-.95-5-1.41-7.17-.41-1.91,1.64-3.95,2.95-5.59l-6-4.73c-3.21,8.87-8.64,2.47-11.08,5.8L2.57,35.87c-1.09,1.49-1,3.85.55,4.99l10.53,7.75Z"/>
      <path class="cls-1" d="M42.09,4.62c.14,1.39-1.73,3.12-3.04,3.51l-5.29-3.92c-1.01-.75.58-4.52,1.76-4.19,2.37,1.08,4.44,2.74,6.57,4.6Z"/>
      <path class="cls-1" d="M18.04,45.63c-1.09,1.53-2.57,2.46-4.27,1.22l-9-6.57c-.49-.36-1.31-1.46-1.33-2.04s.52-1.7.92-2.25l8.92-12.28c7.66-1.11,8.27,5.6,19.34,1.55l-14.57,20.37ZM21.19,32.67c0-.93-.75-1.69-1.69-1.69s-1.69.75-1.69,1.69.75,1.69,1.69,1.69,1.69-.75,1.69-1.69ZM14.93,34.93c0-.95-.77-1.73-1.73-1.73s-1.73.77-1.73,1.73.77,1.73,1.73,1.73,1.73-.77,1.73-1.73Z"/>
      <path class="cls-1" d="M32.44,23.25c-3.44,2.66-8.13,2.31-11.8.39l5.31-1.94c1.77-.65,4.1.08,6.49,1.55Z"/>
      <path class="cls-1" d="M24.16,14.39l-5.27,3.47c-.15-.89.66-2.45,1.64-3.38.94-.89,2.85-.93,3.63-.09Z"/>
    </g>
  </g>
</svg>