<?xml version="1.0" encoding="UTF-8"?>
<svg id="Warstwa_2" data-name="Warstwa 2" xmlns="http://www.w3.org/2000/svg" viewBox="0 0 39.41 53.77">
  <defs>
    <style>
      .cls-1 {
        fill: #fff;
      }
    </style>
  </defs>
  <g id="game-icon-v6-elemental-pixarts-store">
    <g id="game-icon-v6-elemental-pixarts-store_56">
      <path class="cls-1" d="M22.81,47.94l-1.88,4.67c-.14.36-.84.97-1.12,1.14-.36.21-1.16-.92-1.27-1.4-.81-3.57-3.17-7.09-6.11-9.48-.06-1.9-.26-3.91-.6-5.66l-1.85-9.71c-.86,1.52-.29,2.32.04,3.83.52,2.32,2.54,10.79,1.57,12.21.65-.96,5.92,4.98,5.58,7.84-2.43-2.22-5.35-4.66-7.37-7.18-1.08-4.24-1.19-8.55-1.91-12.7l-2.91-16.6c2.28.57,3.06,2.18,3.38,4.06l.72,4.14c.2-2.47-.22-4.67-.55-6.99l-3.57-2.18L19.26.06c.3,2.05-.11,3.73.69,5.97l.24-6.03,5.86,6.18c-.31.69,2.2,8.9,3.37,8.45l-2.25-7.29c1.43.12,7.53,6.06,7.22,8.05l-3.65,23.88-.81-1.41-.05,4.98c0,.25-.03,1.25-.26,1.24l-1.24-.08c.12.06.62,1.16.39,1.43l-6.28,6.02.29-3.51ZM17.79,6.16l-5.4,5.4.45.45,5.4-5.4-.45-.45ZM25.01,37.91c.58-.61,1.19-1.32,1.64-1.94l-7.07-7.27,8.56-7.02-12.75-9.66.02,30.45c1.06-.49,2.65-1.78,2.66-2.72l.12-8.38,6.81,6.54ZM31.43,18.37c.17-1.05.55-1.89,1.06-2.89.02,0-.83.04-1.32.07.03,0-1.92,11.88-1.55,14.16l1.8-11.34Z"/>
      <path class="cls-1" d="M30.62,47.84c.36-2.44,2.84-3.14,1.69-5.14l2.26-11.83,3.85-3.88c2.61,6.63-.58,10.17-2,16.62l-5.81,4.23Z"/>
      <path class="cls-1" d="M9.57,48.15c-1.93-1.28-4.23-2.95-6-4.49-1.52-3.77-2.77-7.29-3.52-11.2-.27-1.43.81-3.73,1.27-5.16,1.07.96,3.15,2.32,3.53,3.63.98,3.38,1.75,6.72,2.07,10.14.25,2.72.69,4.24,2.66,7.08Z"/>
      <polygon class="cls-1" points="24.07 21.7 18.26 26.3 18.15 17.42 24.07 21.7"/>
    </g>
  </g>
</svg>