<?xml version="1.0" encoding="UTF-8"?>
<svg id="Warstwa_2" data-name="Warstwa 2" xmlns="http://www.w3.org/2000/svg" viewBox="0 0 51.34 56.09">
  <defs>
    <style>
      .cls-1 {
        fill: #fff;
      }
    </style>
  </defs>
  <g id="game-icon-v6-elemental-pixarts-store">
    <g id="game-icon-v6-elemental-pixarts-store_190">
      <path class="cls-1" d="M17.77,51.51c3.39-4.2,11.11-8.4,7.91-15.5-5.27,4.52-3.69,5.68-9.31,10.57l-.73-1.77-1.93,3.69c-.92,1.76-3.06,3.12-4.97,2.69-1.65-.37-3.27-1.94-3.74-3.42-.63-1.99.28-3.81,1.79-5.19,2.7-2.48,4.94-5.54,7.87-7.68,1.84-1.35,4.86-2.1,5.22-4.61-1.69-.67-3.16-1.73-3.88-3.04l-1.84-3.34c-.45,1.68-.2,3.26.12,4.82.16.8-1.67,1.84-2.53,1.81-1.76-4.82.35-3.87-.49-7.61l-1.23,1.93c-2.34-2.31-1.3-4.98-.56-8.56-6.89,5.43.23,8.91-2.15,16.77-.3,1-2.45,1.93-2.83,1.18l.21-5.19-2.36,3.88c-3.21,5.26.39,6.12-1.26,9.47-2.4,4.89-.56,10.16,3.98,12.61,4.53,2.45,9.49.52,12.74-3.5Z"/>
      <path class="cls-1" d="M44.07,24.74c1.87-2.48,5.34-3.97,6.57-7.26,1.67-4.44.32-9.02-3.48-11.43-3.8-2.41-8.27-1.92-11.88,1.53l-1.21-2.66-1.04.54c-.37.19-2.47-1.33-.86-5.47-2.65,1.43-3.38,4.58-2.02,7.35.92,1.87.86,4.89-1.36,5.51-.35.1-1.37-.3-1.39-.67l-.12-3.42c-2.76,2.23-2.28,5.31-2.1,8.41.16,2.7-1.84,5.39.29,8.06,5.71-5.2,2.71-5.27,8.03-9.02l1.51-4.39,1.19,3.67,1.7-3.38c1.12-2.22,3.5-2.92,5.8-2.08,1.45.53,2.85,2.49,2.62,4.68-.15,1.45-1.71,3.48-3.23,4.02l-.78-3.27c-.99,1.84-1.2,3.63-1.46,5.8-5.31,7.55-5.36,3.29-10.1,9.34,6.14,2.83,10.06-1.55,13.31-5.87Z"/>
      <path class="cls-1" d="M34.49,21c-.72-.59-2.33-.46-3.21.43l-15.19,15.34c-.83.84-.67,2.62.16,3.38.64.59,2.59.46,3.42-.38l5.57-5.72,9.38-9.35c1.03-1.02.86-2.88-.13-3.69Z"/>
    </g>
  </g>
</svg>