<?xml version="1.0" encoding="UTF-8"?>
<svg id="Warstwa_2" data-name="Warstwa 2" xmlns="http://www.w3.org/2000/svg" viewBox="0 0 42.63 54.82">
  <defs>
    <style>
      .cls-1 {
        fill: #fff;
      }
    </style>
  </defs>
  <g id="game-icon-v6-elemental-pixarts-store">
    <g id="game-icon-v6-elemental-pixarts-store_483">
      <path class="cls-1" d="M37.34,41.38l-1.21-12.48-2.66-1.25c-1.85,4.52,1.3,5.42,1.09,9.12l-2.08-4.53-2.38,10.15c-.56,2.39-2.01,4.39-2.08,7.27-1.31-8.88,1.65-5.36,1.57-10.1-.06-3.81-.23-11.61-2.71-14.31l-1.51-13.75c-1.54,0-2.38.98-2.54,2.39-1.24-1.92,1.06-2.23,1.74-3.31,1.24-4.68-.89-6.33-3.04-10.15.18,3.19.38,5.79.07,8.63l-.6-9.07c-1.86,4.1-2.08,8.14-2.66,12.48-.68,5.09.13,7.01,1.74,11.93-1.12-1.41-1.7-2.99-2.39-4.95-1.15,2.86-1.48,6.06-1.88,9.33-.65,5.32,2.05,6.65,1,14.02-.79-1.98-.43-4.24-1.05-6.06-1.04-3.05-1.57-5.73-1.94-8.96-.37-3.17-1.18-6.7-1.8-9.78-.44-.18-1.78-.26-1.9.17-.1.34-.21,1.3-.16,1.68l1.15,9.16c.18,1.47.24,2.87.04,4.18l-1.65-11.03c-1.46,5.87-1.55,11.22-2.12,16.88,2.77,3.31,3.6,2.7,2.9,7.79-.04-2.68-.91-4.89-3.48-6.23-.59.08-1.75,1.34-1.87,2.17l-1.37,8.72-3.58,3.23,11.13.04c3.78-4.66,3.03-2.31,6.4-5.4.71-.65,1.86-1.65,2.43-2.35l1.06-9.56c2.35-.6,3.42-1.99,3.28-4.39,1.14,2.19-.66,3.91-2.37,5.23l-.96,9.72c-2.88,3.09-6.49,3.67-7.58,6.78h11.45s.44-1.79.44-1.79l1.47,1.82,15.89-.07c-.6-.83-1.51-1.77-1.63-2.45-.92-5.13-.66-6.77-3.66-10.92ZM34.48,48.42l-.14-4.51c.56.94.69,1.67.72,2.99.08,2.7,4.85,3.24,4.89,6.84l-5.47-5.32Z"/>
    </g>
  </g>
</svg>