<?xml version="1.0" encoding="UTF-8"?>
<svg id="Warstwa_2" data-name="Warstwa 2" xmlns="http://www.w3.org/2000/svg" viewBox="0 0 46.43 45.91">
  <defs>
    <style>
      .cls-1 {
        fill: #fff;
      }
    </style>
  </defs>
  <g id="game-icon-v6-elemental-pixarts-store">
    <g id="game-icon-v6-elemental-pixarts-store_151">
      <path class="cls-1" d="M.58,7.22l4.23,1.02-.23,2.15,1.79-1.36c3.78,1.27,5.36,4.67,7.02,7.97l2.82,5.62c1.31,2.61,3.59,4.73,5.43,7.2l-3.87,2.07c.18.4.53,1.06.84,1.14s1.07-.13,1.4-.26l3.6-1.48c.82,2.04,2.57,4.34,3.96,5.52.3.26,1.48-.21,1.33-.5-1.35-2.77-.91-.62-1.33-2.81-.95-.28-2.18-1.1-3.36-2.32.43-.77,1.86-1.22,2.84-1.18.39-1.57,2.49-1.62,2.36-2.38-.07-.43-.26-1.32-.36-1.72l-6.11,3.43c-.19.11-1.03-.67-.87-.81l.91-.8c-5.9-5.21-6.15-8.58-9.78-15.3l2.56-1.39c.72.26,2.36,1.13,3.01,1.71.35.3.2,1.45.27,2.2l1.44-1.47c4.4.86,7.45,4.94,8.43,9.31l-1.17,1.76,1.61-.45c.79,2.18,1.34,4.57,2.51,6.52,3.36,5.61,5.14,4.19,5.56,7.34.9-.35,1.93-.31,2.82.08l4.69,2.04.11.81c.02.18,1.1.23,1.15.06.22-.65.23-2.19-.08-2.72l-3.11-1.33,2.11-3.32c.73-1.14,1.25-2.54,1.07-3.72l-2.5,2.53-1,2.18c-.22.48-.04,1.48.12,2.2-2.88-1.24-5.69-2.69-7.42-5.17l1.03-1.95c-.41.08-1.79.39-2.15.03-3.05-3.42-2.39-7.25-4.78-11.76l1.37-1.8-1.98.58c-3.13-4.29-5.87-3.37-5.25-5.93.32-1.33-1.82,1.39-3.28.24-.57-.45-.61-.95-.97-2.32l-1.18,1.16c-.45.44-1.46-.29-2.53-1.49-.01,0-.02,0-.04,0,0-.01,0-.02,0-.03-1.67-1.89-3.45-4.91-3.31-6.36l2.1-1.45-1.88.21c-.86-.29-2.75-.9-3.22-.34l.05,2.77,1.31.7c.95,2.32,2.22,4.97,4.31,6.4-.83.23-2.06.8-3.13,1.37C7.63,3.48,5.37,9.18,3.48,3.42l-.35,2.12L.14,4.97c-.22.48-.08,2.12.43,2.26Z"/>
      <path class="cls-1" d="M16.87,35.18c.55.31,1.14.59,1.02.81l-.55,1.02c3.06-1.67,8.83,4.25,10.2,6.58.62,1.05.67,2.64,2.48,1.71l-2.45-4.91c4.29-2.76,2.36-2.28,6.46-5.36-1.16-3.12-5.93,3.15-7.49,4.66-.34-.46-.81-1.44-1.03-1.99l-3.93-2.3c-2.92-1.7-5.66-3.14-8.3-5.29l4.21-3.85c-.39-.49-.99-1.17-1.46-1.66-1.62,1.4-2.87,2.6-4.04,4.04-3.21-1.26-7.6-9.38-5.32-11.02.7-.5,1.12-.84,1.54-1.34l2.62-3.04c-1.07.18-2.61.62-3.16,1.17l-2.03,2.04-.69,1.66c-.49-1.2-.85-2.41-1.55-3.28L.19,10.88c-.11,1.05-.13,2.28.05,3.1,1.97,1.9,6,9.33,4.24,11.46-.12.15,1.23.09,1.43.32,2.67,2.94,7.2,7.31,10.96,9.43Z"/>
      <path class="cls-1" d="M36.93,4.89c-.33.05-1.23-1.08-1.32-.81-.07.2-.36,1.1-.54,1.22l-5.58,3.79-2.65-.48-1.25-4.6c-.33-1.19.23-2.59,1.05-3.57-.66-.51-2.63-.14-2.63,1.13,0,2.14,1.36,7.68,4.22,8.43l-1.55,2.7c-.28.49,1.25,1.63,1.6,1.18,1.23-1.53,2.39-2.77,3.7-3.76l2.25,1.64c-.21-1.27-.6-1.92-1.37-2.45,2.37-1.72,5.54-2.89,8.85-2.85l4.62.06c.05-.31-.08-1.53-.29-2.15-2.77-.23-6.87.15-9.13.51Z"/>
      <path class="cls-1" d="M.16,41.05c1.72-1.27,2.73-2.03,4.22-2.9l2.81-1.64c-.4,3.54-2.78,4.35-2.66,4.51,1.21,1.57-.45,2.6-1.65,4.23.6.39,2.93.52,3.37-.28.81-1.44.86-2.73,2.91-2.87l-.86-.59c.46-3.01,1.4-5.94,3.28-8.57-.37-.53-1.04-1.19-1.67-1.73l-2.45,4.18c-.35-.39-.68-.93-.87-.83l-.94.5c-.89.47-1.9,1.99-2.95.23C3.74,37.67-.11,37.35,0,38.9l.16,2.15Z"/>
      <path class="cls-1" d="M33.01,25.32c5.61-4.41,8.78-11.03,8.59-17.88,0-.35-1.27-.54-1.42-.19-.65,1.61-.59,2.42-.83,2.48l-.78.21c1.26,2.34-.85,6.36-1.4,6.29l-1.57-.18,1.23,1.84c-1.34,2.71-5.78,5.87-3.83,7.41Z"/>
      <path class="cls-1" d="M46.3,19.72l-3.23,2.44c-.41.31-.96,1.28-1.48,1.92l-2.99-1.99-1.84.62c1.24.97,2.51,1.74,3.39,2.82.51.62-.7,2.65-1.4,2.79.57,3.59-.85,1.97-.95,4.48,0,.2.51.13.65-.01l.47-.47c3.93-3.86-.59-3.84,7.2-10.58.39-.34.36-1.78.18-2.04Z"/>
      <path class="cls-1" d="M23.96,16.2c-1.19,1.81-2.49,3.42-3.72,4.54l-.94-.62c-.3-.2.01.42.02,1.07v1.6c.02.36,1.07.95,1.32.7l2.89-2.84,1.32.74c-.54-3.06,1.22-3.46-.88-5.18Z"/>
      <path class="cls-1" d="M32.12,39.18l-.87-.7c-.19-.15-1.12.55-.97.75l1.87,2.64c.31.44.19,1.47.15,2.37l1.11-.91c.69-.56,1.77,3.53,4.22,1.88l-2.43-3.18c-.22-.29-.12-1.54-.11-1.64-1.09.09-2-.42-2.98-1.21Z"/>
      <path class="cls-1" d="M44.82,13.96l-1.79-.44c1.01,2.61-1.96,2.04-2.99,4.8,3.73.35,1.68-.72,4.07-.55,1.35-4.16,2.63-.22,2.24-6.39l-1.53,2.58Z"/>
      <path class="cls-1" d="M23.5,0l-1.99,2.55c-.28.36-.5,1.58-.91,1.64l-1.26.21c-.74,2.51-3.27,1.87-3.67,3.94,0,.01.02.02.03.03,3.42.11,8.94-5.05,7.81-8.38Z"/>
      <path class="cls-1" d="M15.7,8.38s-.02-.02-.03-.03c0,.01,0,.02,0,.03.01,0,.02,0,.04,0Z"/>
      <path class="cls-1" d="M7.22,18.65c1.51,1.99,4.07,2.12,5.46,6.45.1.32,1.33.47,1.31.12-.24-3.35-3.43-6.28-5.9-7.48-.34-.16-1.05.68-.87.9Z"/>
      <path class="cls-1" d="M12.15,43.61l1.37,2.23.97-1.03.24-4c.02-.37-1.33-6.42-1.96-4.72-.07.18-.19.64-.16.86l.57,4.9c.06.5-.72,1.52-1.03,1.77Z"/>
      <path class="cls-1" d="M20.68,45.54c.76.15,2.16.18,2.52-.3l1.91-2.58c.17-.23.52-1.08.25-1.16-.2-.06-.53-.12-.76-.15-.98.36-2.15.52-2.88.46.36.57.54,1.53.22,1.98l-1.26,1.75Z"/>
      <path class="cls-1" d="M5.95,32.76c.07-3.04-3.23-1.02-5.81-5.59v2.97s2.86,1.73,2.86,1.73c.71.43,1.83.66,2.95.89Z"/>
      <path class="cls-1" d="M41.91,1.56l-1.67,2.14c1,.24,3.03.1,3.55-.7l1.61-2.47c-1.62-.87-2.56-.17-3.5,1.03Z"/>
      <path class="cls-1" d="M32.38.82v2.4c-.65.67-1.11,1.38-.88,2.45,3.76-2.75.95-3.97,5.07-5.38-1.29-.3-2.91-.2-4.19.53Z"/>
      <path class="cls-1" d="M40.94,39.4c-.56,2.05-1.12,4.51.43,6.51l.61-5.72c.04-.33-.96-1.11-1.04-.79Z"/>
      <path class="cls-1" d="M45.14,26.04c-.95-.31-1.93-.61-2.77.41.85.71,2.78,1.34,3.69,1.3.32-.01.42-1.27.12-1.37l-1.04-.34Z"/>
      <path class="cls-1" d="M.32,23.6l1.29-.66c1.18-.6,1.98-1.67,1.74-2.79l-3.14,1.84c-.25.15-.15,1.74.11,1.61Z"/>
      <path class="cls-1" d="M11.24,35.52l3.51-.62c-.38-.49-1.51-1.33-2.13-1.25-.74.09-1.61,1.4-1.38,1.87Z"/>
    </g>
  </g>
</svg>