<?xml version="1.0" encoding="UTF-8"?>
<svg id="Warstwa_2" data-name="Warstwa 2" xmlns="http://www.w3.org/2000/svg" viewBox="0 0 60.48 61.8">
  <defs>
    <style>
      .cls-1 {
        fill: #fff;
      }
    </style>
  </defs>
  <g id="game-icon-v6-elemental-pixarts-store">
    <g id="game-icon-v6-elemental-pixarts-store_293">
      <path class="cls-1" d="M30.26,61.8l-4.99-19.25-14.43,7.65,7.78-14.37L0,30.82l18.61-5.14-7.86-14.67,14.48,8.06L30.25,0l4.86,19.07,14.75-8.33-8.07,14.87,18.68,5.17-18.64,5.07,7.95,14.67-14.63-7.95-4.9,19.23ZM30.19,53.24l3.68-13.52,10.99,5.93-5.94-10.99,14.09-3.88-14.09-3.96,6-11.1-10.95,6.26-3.78-13.75-3.7,13.83-10.87-6.03,5.94,11.03-14.32,3.67,14.17,3.92-5.53,10.79,10.53-5.74,3.78,13.53Z"/>
      <path class="cls-1" d="M24.09,47.53l-3.8,7.31c.9-8.9,5.15-9.89,3.8-7.31Z"/>
      <path class="cls-1" d="M40.34,6.64c.38,1.89-3.79,10.82-3.76,8.8.05-3.63,2.33-6.37,3.76-8.8Z"/>
      <path class="cls-1" d="M15.23,37.52c-2.71,1.77-5.33,2.76-8.72,3.31.6-.36,8.21-5.47,8.72-3.31Z"/>
      <path class="cls-1" d="M53.95,20.62c-1.9,1.27-6.52,3.91-8.23,3.73-2.88-.29,8.04-4.51,8.23-3.73Z"/>
      <path class="cls-1" d="M14.7,23.4c.02.56.11.89-.09.91s-1.29.08-1.45,0l-6.62-3.66c2.93.24,5.31,1.44,8.17,2.76Z"/>
      <path class="cls-1" d="M53.99,40.85c-3.38-.56-6.31-1.37-8.77-3.64,3.39-.06,6.18,2.08,8.77,3.64Z"/>
      <path class="cls-1" d="M39.92,53.91c-1.52-2.31-3.63-4.82-2.95-7.85,1.79,2.36,2.59,4.85,2.95,7.85Z"/>
      <path class="cls-1" d="M23.7,15.6c-2.23-2.3-2.89-5.23-3.49-8.54,1.51,2.49,3.61,5.12,3.49,8.54Z"/>
      <polygon class="cls-1" points="30.13 43.38 28.02 35.11 22.89 38.13 25.88 32.98 17.68 30.86 26.08 28.65 22.74 23.33 28.14 26.67 30.17 18.63 32.27 26.63 37.63 23.4 34.38 28.49 42.36 30.79 34.4 32.99 37.95 38.64 32.41 35.05 30.13 43.38"/>
    </g>
  </g>
</svg>