<?xml version="1.0" encoding="UTF-8"?>
<svg id="Warstwa_2" data-name="Warstwa 2" xmlns="http://www.w3.org/2000/svg" viewBox="0 0 51.2 49.86">
  <defs>
    <style>
      .cls-1 {
        fill: #fff;
      }
    </style>
  </defs>
  <g id="game-icon-v6-elemental-pixarts-store">
    <g id="game-icon-v6-elemental-pixarts-store_240">
      <path class="cls-1" d="M.75,27.7l2.03,1.45,1.34-1.52-1.64-1.66c-.19.67-.97,1.44-1.73,1.73Z"/>
      <polygon class="cls-1" points="47.19 21.92 48.61 23.42 50.24 21.88 48.68 20.32 47.19 21.92"/>
      <path class="cls-1" d="M33.5,4.2l-.83-1.05c-.16-.2-.69.42-1.33.85-.23-.21.24.24.4.38l.64.55-6.54,4.92c6.46-2.44,10.65-6.37,17.89-3.97-.95-1.13-2.42-1.63-3.97-2.08,4.71-1.95,8.48,1.37,7.59,2.11l-.67.57c0,5.46-2.09,10.5-5.74,14.45l-3.24,3.51c1.49-3.47,7.44-10.87,5.21-14.67-1.22-2.08-4.05-2.27-6.2-1.69-9.41,2.54-17.66,11.55-22.47,19.76-.58,1-.94,2.63-1,3.68,1.66-3.52,3.14-6.33,5.62-8.95,3.79-4.01,7.79-7.54,12.72-10.09,2.4-1.24,8.42-3.13,8.72.73l-1.95-1.06c5.1,7.1-8.1,19.31-12.31,24.54,6.04-3.71,10.87-8.42,15.49-13.53.9-1,1.61-2.49,2.46-3.55,3.09-3.87,10.09-14.21,5.9-18.26-3.72-3.6-12.63.95-16.4,2.85Z"/>
      <path class="cls-1" d="M6.21,43.43c1.2,1.81,3.23,2.24,5.17,2.88-3.03,1.25-7.78-.3-7.6-1.84.04-.37.3-1.13.38-1.57l1.05-5.83c-2.14,1.73-2.09,4.28-1.72,6.92-2.66-3.68.79-8.08,2.87-10.61l5.8-7.07c-1.32,3.66-7.07,11.89-3.44,14.87,5.23,4.29,19.19-6.51,22.11-11.9-5.19,3.72-11.81,10.19-18.25,10.12-1.97-.02-3.22-1.55-2.82-3.15.44.73,1.38,1.28,2.24,1.19-2.5-3.42.82-10.19,3.08-13.01l7.96-9.93c-7.11,4.55-12.59,10.6-17.43,17.25-2.78,3.82-8.1,12.99-4.29,16.76,3.8,3.75,12.96-1.12,16.85-3.28l1.06.86c.16.13.64-.57.63-.77l-.08-.95,5.32-4.22c-5.84,2.18-12.69,7.2-18.89,3.3Z"/>
      <path class="cls-1" d="M41.32,35.59c2.21-4.24,3.49-8.68,2.51-13.35-.85,10.38-9.04,19.63-18.19,22.42,6.77-.07,12.03-4.12,15.68-9.07Z"/>
      <path class="cls-1" d="M26.55,5.33c-11.4-.53-21.72,11.17-19.17,21.33.82-5.65,2.79-9.52,6.27-13.42,3.66-4.09,7.6-6.93,12.9-7.91Z"/>
      <path class="cls-1" d="M16.91,4.88c-4.83.9-8.88,4.62-10.2,9.83,2.32-4.3,5.55-7.2,10.2-9.83Z"/>
      <path class="cls-1" d="M40.42,40.63c-1.64,1.19-3.13,2.32-4.44,3.69,4.53-1.38,7.54-4.9,8.61-9.02-1.28,1.94-2.5,3.76-4.17,5.34Z"/>
      <path class="cls-1" d="M37.57,15.82c-.05-.47-.27-1.63-.47-2.23-.64-1.95-7.04.23-8.18,1.8,2.67-.43,6.56-3.42,8.65.43Z"/>
      <path class="cls-1" d="M12.79,37.88c2.82-.04,4.8-.81,6.69-2.11-2.68.64-4.52,1.07-6.58.48.12.37.33.74.23.94l-.34.7Z"/>
      <path class="cls-1" d="M10.59,23.69c1.11-1.69,1.92-3.45,1.99-5.63-1.38,1.58-1.97,3.47-1.99,5.63Z"/>
    </g>
  </g>
</svg>