<?xml version="1.0" encoding="UTF-8"?>
<svg id="Warstwa_2" data-name="Warstwa 2" xmlns="http://www.w3.org/2000/svg" viewBox="0 0 60.23 56.26">
  <defs>
    <style>
      .cls-1 {
        fill: #fff;
      }
    </style>
  </defs>
  <g id="game-icon-v6-elemental-pixarts-store">
    <g id="game-icon-v6-elemental-pixarts-store_193">
      <path class="cls-1" d="M30.88,44.03c-3.4.27-5.88-2.18-8.67-3.97,5.3,7.26,14.53,8.43,22.82,5.32-4.67,3.98-11.09,3.85-16.95,2.25,5.77,3.58,12.91,3.47,19.16,1.12,2.26-.85,4.16-1.86,6.61-2.94-8.26,8.65-21.25,9.26-30.87,2.51-5.09-3.57-8.46-8.84-8.47-15.2,0-4.46,2.12-8.54,6.01-10.57,2.96-1.55,6.42-1.69,9.1.31-3.5-.8-6.63-.84-9.46,1.38-2.2,1.73-4.5,4.76-3.49,8.11.35-5.01,4.19-9.33,9.22-8.96-2.63.58-4.77,1.9-5.54,4.17,1.31-1.25,2.45-2.4,4.31-2.62-2.82,2.58-4.06,5.67-3.19,9.38,1.11,4.69,4.71,7.8,9.41,9.73ZM18,40.9c-1.18-3-1.95-5.88-2.22-9.05-.35,3.12.03,6.52,2.22,9.05Z"/>
      <path class="cls-1" d="M24.41,19.2c-5.92.61-10.02,4.79-11.89,10.24-.09-3.72,2.48-6.45,4.78-9.57-6.45,3.69-8.9,11.62-6.5,18.47.4,1.15.71,2.18,1.04,3.36-3.8-3.87-3.82-9.05-3.19-14.52-2.73,4.54-2.65,9.94-1.23,14.97.88,3.09,2.65,5.61,4.31,8.51-2.18-1.49-3.78-3.75-5.13-6.04-4.15-7.06-3.39-15.01.65-21.81,1.66-2.79,3.22-4.72,5.97-6.57,5.98-4.03,13.52-4.61,19.46-.16,3.68,2.76,5.44,7.89,2.6,11.79,1.57-5.2-.47-9.95-5.56-11.85-1.43-.53-3.4-.71-5.1-.83,5.07,1.33,10.81,3.15,10.07,9.77-.68-2.75-1.7-5.21-4.23-6.14,1.27,1.07,2.34,2.52,2.75,4.44-2.13-2.6-4.96-4.45-8.79-4.06ZM22.46,14.49l3.86-.46c-3.38-.54-6.97-.2-9.98,1.75,2.2-.52,4.08-1.05,6.12-1.29Z"/>
      <path class="cls-1" d="M36.55,40.69c-5.36-.4-11.72-3.59-10.98-9.73.65,2.19,1.26,4.4,3.4,5.39-.76-1.1-1.44-2-1.8-3.24,2.98,3.29,7.02,4.5,11.28,3.05,5.03-1.72,8.37-6.17,9.34-11.3.46,4.54-2.34,7.8-4.98,11.05,7.84-4.49,9.32-13.96,5.28-21.87,4.23,3.85,4.48,9.79,3.19,15.48,4.52-7.71,2.72-16.83-2.84-24.13,10.06,7.23,10.67,22.03,1.79,30.53-.17.16.23.47.55.89-3.43,2.98-7.5,5.43-12.2,6.09-5.14.72-10.36-1.4-13.28-5.48-1.88-2.63-2.45-5.91-.73-8.46-.28,2.5-.24,4.79,1.07,6.88,2.37,3.77,6.71,5.6,10.92,4.86ZM34.03,41.89c3.54.63,7.38.17,10.37-2.2-3.53,1.29-6.65,2.1-10.37,2.2Z"/>
      <path class="cls-1" d="M36.57,30.57c2.65-3.35,3.29-7.35,1.4-11.27-1.72-3.54-4.51-5.98-8.48-7.33,3.25-.27,5.47,2.16,8.27,3.59-5.21-6.75-13.87-7.86-22.06-4.92,4.48-3.65,10.58-3.52,16.36-2.17-8.5-4.93-17.95-2.38-26.33,2.54C13.94,2.09,27.17,1.12,37.03,7.6c4.65,3.05,8.07,7.43,8.61,13.22.36,3.83-.98,7.99-3.65,10.69-3.32,3.35-8.57,4.24-12.11,1.24,3.46,1.23,6.92,1.17,9.84-1.06,2.47-1.89,4.32-5.16,3.49-8.54-.36,5.43-4.19,10.09-9.61,8.98,2.31-.53,4.76-.49,5.81-3.03l-2.86,1.46ZM44.6,24.92c.31-2.78.16-5.82-1.43-8.3l1.43,8.3Z"/>
      <path class="cls-1" d="M37.65,55.8c-9.71,2.21-20.68-3.73-22.78-14.43,4.04,8.66,12.37,14.3,22.78,14.43Z"/>
      <path class="cls-1" d="M44.86,13.15C40.21,5.17,32.12.32,22.53.64c4.57-1.36,9.26-.46,13.59,1.65,4.09,2.33,7.88,5.61,8.73,10.85Z"/>
      <path class="cls-1" d="M9.61,16.36C3.81,20.66.96,26.89.52,34.27c-2.07-7.84,2.32-15.41,9.07-19.09l6.95-2.07-6.93,3.24Z"/>
      <path class="cls-1" d="M47.41,41.65c5.25-3.54,10.49-8.23,11.6-15.06l.82-5.06c1.97,8.46-3.49,17.88-12.42,20.13Z"/>
    </g>
  </g>
</svg>