<?xml version="1.0" encoding="UTF-8"?>
<svg id="Warstwa_2" data-name="Warstwa 2" xmlns="http://www.w3.org/2000/svg" viewBox="0 0 57.96 55.26">
  <defs>
    <style>
      .cls-1 {
        fill: #fff;
      }
    </style>
  </defs>
  <g id="game-icon-v6-elemental-pixarts-store">
    <g id="game-icon-v6-elemental-pixarts-store_444">
      <path class="cls-1" d="M0,14.05c4.5,2.4,2.7,3.66,7.52,7.05l1.63,3.88c-2.12-.37-.77-3.31-4-4.75-.44,3.99,1.29,6.97,3.4,10l1.31,8.15.77-6.25c.03-.28.75-.68.89-.51.13.17.62.78.67,1.03l.96,5.73,1.28-4.78.99,2.7.65-2.91c.56.23,1.17.65,1.45.38l1.19-1.1c.54-.5,1.28-1.08,1.56-1.52s-.05-1.65-.16-2.42l-1.41.64-.49-1.26c-.09-.24-.73-.17-1.17-.2,1.24-1.2,2.82-.83,4.52-.1,1.73.73,3.88-.24,5.74-.1,2.78.22,4.31,3.59,8.62,1.38-.45-1.35.15-.36.87.53l-4.5,1.64c2.58,3.15-.36,2.85,1.85,3.32.68.15-.63-2.01.14-1.69l.8.33c.17.07-.68,1.92.03,1.84l.8-.08c.59-.06-.32-1.33.36-1.76.2-.13.92-.14.88.09l-.16.96c-.05.3.3,1.25.61,1.18.3-.07.83-.5.91-.79.06-.22-.06-.29-.48-1.05l.63-.67c.15-.16,1.01.14,1.02.22l-.71,1.62c-.11.25.84.84,1.03.66.38-.35.18-1.39-.1-2.49l2.98-.45c.07,1.54-.78,2.28.72,2.74l-.84-6.52c-.88.13-1.6.25-1.69-.12-.07-.29-.13-1.25-.02-1.54l1.38-3.55c.14-.37,1.19-1.19,1.11-1.2-1.12-.98-2.07-1.86-2.86-2.82,1.23-2.15.81-3.56.05-5.47-.86-2.14-1.32-4.58-2.93-6.36-3.73-4.1-9.5-5.83-14.71-4.99-.36.7-1.08,1.69-1.29,2.29l-1.33,3.69c-.76,2.1,5.77,3.24,5.96,4.44l-3.76-1.01c-.38.9-.17,2.29.44,3.06l2.91,3.69c-4.53-1.65-2.22-4.3-7.16-3.37-2.72.51-3.56,2.14-3.95,4.94l-.24-3.08-4.21-.65,4.24-.25,6.3-2.58c.66-.94-.36-2.94-1.21-3.53-1.22-.84-2.63-.84-4.44-.59-.12.1,0-.65.24-.67l1.27-.11c.75-.07,2.12-.07,2.53-.5.41-.43.47-1.82.72-2.43l1.66-3.41-4.28.21L11.76,0l3.19,3.88-3.93,2.16c-.55.3-1.85.58-2.45.3L.52,2.53c1.03,2.07,3.38,2.5,4.73,4.05l2.98,3.43-5.42-1.33,3.61,2.99-1.27,4.23c-1.41-1.18-3.34-1.83-5.14-1.85ZM34.26,19.87c.73-1.45,2.44-2.23,4.63-2.59l.02,3.58c0,1.4.4,2.8-.4,3.66-.75.81-2.73,1.18-3.71.38-1.43-1.16-1.33-3.47-.55-5.04ZM29.68,23.54c.78-6.33,3.59-2.34,1.1-9.46,3.92,5.07.88,3.47.19,9.91-.2,1.84-2.37,1.35-3.83,1.44-2.32.14-4.1.4-6.16.17l8.7-2.05Z"/>
      <path class="cls-1" d="M36.6,45.46l-5.59-3.27c.63-1.08.72-2.15-.41-2.23l-.5,2.19c-5.32-4.36,2.14-11.03-.96-11.19-1.17-.06-2.12,2.06-3.51,1.38-1.47-.72-1.02-3.14-1.54-3.2l-1.4-.17c-3.39-.41.98,3.7-1.39,7.52-1.24,1.99-.2,3.28.11,5.2l.96,5.99.96-4.51c1.16.51,3.61,1,3.98,2.26.58,1.99.66,3.91,1,6.03l1.08-4.2c2.12,2.57,1.13,5.09,1.95,8.01l.99-5.58,2.25.33,3.7-6.61c-.88.26-.98.88-1.69,2.06ZM25.41,40.38l-1.3-1.62c2.03-2.54-.61-3.29-.07-5.08l1.57,2.95c-.24,1.34-.26,2.18-.2,3.75Z"/>
      <path class="cls-1" d="M42.07,37.18l1.49,1.61c-4.08-1-7.14-1.68-10.98-1.83l4.21,2.45-2.72.33c3.77,1.79,7.07,1.63,7.79,7.01l.43-2.2,1.66,3.67c.37.83,1.13,1.82,1.68,2.41-.37-1.43-.57-2.32-.65-3.48l-.67-3.12c3.61,1.7,1.12,3.96,6.51,5.07.73.15,1.33,1.47,1.92,2.63.48-5.77-2.28-2.92-4.25-6.37l4.17-.22c1.33-.07,2.73.56,4.25,1.05-1.11-1.45-2.4-2.3-4.13-3.32,1.26-1.26,2.97-.94,5.18-.72-4.93-4.86-6.88,2.94-11.65-1.72,6.98.44,3.81-3.03,9.02-3.23l-3-1.3c-4.64,4.03-5.03,2.47-10.26,1.3Z"/>
    </g>
  </g>
</svg>