<?xml version="1.0" encoding="UTF-8"?>
<svg id="Warstwa_2" data-name="Warstwa 2" xmlns="http://www.w3.org/2000/svg" viewBox="0 0 61.81 36.72">
  <defs>
    <style>
      .cls-1 {
        fill: #fff;
      }
    </style>
  </defs>
  <g id="game-icon-v6-elemental-pixarts-store">
    <g id="game-icon-v6-elemental-pixarts-store_546">
      <path class="cls-1" d="M54.11,9.32c-1.52-5.09-5.46.59-7.57-6.5l-5,.54c-1.37-3.22-4.69-4.16-7.57-2.67,3.66,0,5.51.75,6.49,3.91l4.66-.36c1.36,2.44,3.35,4.21,6.57,4.28l2.74,6.02-8.33-2.21,6.78,3.97c-8.09,4.48-9.91,1.25-15.44-4.13-.5-.74-.69-2.77-1.46-2.79l-3.4-.06,3.31,1.62c.33.16.71,1.34.43,1.58l-1,.86c2.46,1.46,4.54,3.11,6.35,5.39-5.44.6-9.35-9.21-14.61-3.43-4.97,5.46-8.42.59-14.66-.8l5.33-3.3c.53-.63,1.65-2.82,2.47-2.49,2.43,1.03,5.73,1.46,7.19-1.53-.96.08-2.87,1.13-3.75.99l-3.98-.62c-.92-.14-2.13,2.07-2.97,2.52-3.65,1.96-7.64,3.82-11.93,5.67,3.29-9.68,7.96-6.11,8.54-9.43.53-3.03,2.02-3.54,4.89-5.01-9.03-.36-2.54,6.51-9.58,6.59-4.21.05-.93,6.63-8.61,6.37l.12,7.68c3.02-.16,7.67,3.26,8.17,5.69,1.08,5.21,7.15,1.6,7.94,3.12l1.56,2.97,6.53,1.11c-.59-.76-1.81-1.57-2.56-1.52-6.03.37.11-4.81-10.96-4.66-1.41-2.66-2.73-4.73-5.16-7.22,1.23-.5,3.04.21,5.55,1.02l-2.58-2.45c6.32-4.92,9.75,5.22,14.58,5.78,2.37-.15,3.6-.09,6.05.56-1.78-4.04-6.53,1.11-9.38-5.3,10.16,1.01,7.57-6.47,13.62-2.39,7.41,5.01,4.22,3.62,14.57,3.77l-4.65,2.52c-2.96,6.46-2.67-.75-10.07,4.67,7.28-1.99,8.42.94,9.95-2.04.83-1.62,2.15-2.06,3.77-2.71,2.85-1.14,5-2.16,8.19-2.55l-2.01,4.55c-2.22.64-4.47,1.34-5.83,2.08l-1.64,4.76-4.13,2.97c1.71-.29,3.81-1.03,5.42-2,.19-4.1,2.7-6.65,6.97-6.61l3.52-5.79,4.22.2.06-8.44c-4.15,1.06-6.62-1.15-7.7-4.76Z"/>
    </g>
  </g>
</svg>