<?xml version="1.0" encoding="UTF-8"?>
<svg id="Warstwa_2" data-name="Warstwa 2" xmlns="http://www.w3.org/2000/svg" viewBox="0 0 35.77 59.96">
  <defs>
    <style>
      .cls-1 {
        fill: #fff;
      }
    </style>
  </defs>
  <g id="game-icon-v6-elemental-pixarts-store">
    <g id="game-icon-v6-elemental-pixarts-store_393">
      <path class="cls-1" d="M12.14,45.52l-.51,10.19c-1.56-1.37-2.5-2.8-4.65-2.85l-.61-9.13c-.13-1.88.14-3.43.6-5.37l3.06,2.86c-.48-1.5-1.39-2.73-2.36-4.02l-.06-9.48c0-1.35.34-2.7.63-4.14,1.09.34,2.23,1.16,2.46,2.21l1.19,5.46c.13-4.22.5-7.36-3.48-9.38l-.12-2.85c-.16-4.04-1.13-3.48-.4-9.52,1.46.13,2.83.38,4.24.74l.7,8.47c.53-2.74.27-5.76.96-8.35.59-2.21,3.51-2.11,4.97-2.67l2.98-1.99,1.21,6.45.76-6.81c1.36-1.8,2.57-3.24,4.28-5.07l.28,5.59c.34,6.86-.03,3.94-1.91,8.83l1.96-1.8c.56,2.67.54,4.93.13,7.41l-2.37,3.09c.82-.65,1.25-1.04,1.99-1.5.41,2.98.94,5.53.33,8.19s-3.15,5.14-3.3,8.07c-.16,3.24.2,6.46.64,9.74.16-2.13.29-4.35.26-6.57-.02-1.73-.23-3.22.59-4.84.72-1.42,1.33-2.47,2.46-3.82.54,1.17.64,1.93.64,3.03l.02,15.06-4.54,4.11c-.53.48-1.1,1.94-1.55,2.58-.42.61-2.43.64-2.9.07l-2.61-3.12c-1.82.22-2.97,1.23-4.85,2.4l-.68-9.23c-.04-.57-.29-1.45-.49-2.09ZM18,20.12c-.14-.85-.05-1.52.19-1.72l2.77-2.21c.26-.21.42-1.03.13-1.18-.23-.12-.92.01-1.16.19l-1.89,1.41-.38-1.7c-.05-.21-1.07,0-1.27.17l-.11,9.31c0,.27.99.69,1.12.49l.37-.55.18-2.44,3.66-2.7c.24-.18.44-.8.28-1.02-.13-.18-.78-.34-.97-.2l-2.91,2.16ZM20.2,31.03l.32,5,1.04-.07c.15,0,.19-.28.28-.55l-.12-5.48-5.89-3.23-.05,9.26,1.49-.15.04-6.6c.91.34,2.41,1.1,2.89,1.82ZM21.22,47.82l.89-.97-2.9-2.84,2.95-2.32-3.96-3.13c-.24-.19-.98-.3-1.23-.14s-.66.86-.66,1.23v8.35c.41.12,1.36.09,1.39-.2l.27-2.83,3.25,2.84Z"/>
      <path class="cls-1" d="M13.12,8.92l-4.56-.79,4.83-4.37c2.98-2.69,3.75-.8,9.27-2.93,1.2-.46,2.14-.77,3.82-.83l-3.4,4.33c-2.22-.2-3.12,1.45-4.7,2.22s-3.9.42-5.26,2.36Z"/>
      <path class="cls-1" d="M35.64,57.21c-3.44,2.46-6.52,1.8-10.46.93.07-1.26.85-2.23,2.06-2.82.67-1.34,1.74-2.58,3.25-3.34,1.33.68,4.24,3.9,5.16,5.23Z"/>
      <path class="cls-1" d="M11.72,58.07c-3.05,1.65-5.41,1.08-8.47-.06,1.82-1.95,2.88-4.44,5.3-3.22l3.17,3.28Z"/>
      <path class="cls-1" d="M2.31,51.03c-.21,1.91,2.66,3.41.34,5.24-.51.4-1.56.33-2.65.13l1.82-7.07c1.39.8,2.25,1.31,3.28,2.05.97.69.24,2.56-.72,2.83l-2.07-3.18Z"/>
      <path class="cls-1" d="M34.93,53.93l-3.62-3.07c-.14-.47-.1-1.77.06-2.34l3.43-1.79.95,4.6c.13.65-.56,2.2-.82,2.6Z"/>
      <path class="cls-1" d="M19.9,59c-2.15,1.45-4.2,1.12-6.62-.06l4.27-3.21,2.36,3.28Z"/>
      <path class="cls-1" d="M4.5,48.51c-2.92-1.97-3.74-2.25-3.26-5.94,2.67.86,3.89,3.45,3.26,5.94Z"/>
      <path class="cls-1" d="M31.62,45.64c-.44-1.19-.34-3.35,1.12-4.12,1.06.99.83,3.31-1.12,4.12Z"/>
      <polygon class="cls-1" points="20 41.65 17.77 43.27 17.84 40.25 20 41.65"/>
    </g>
  </g>
</svg>