<?xml version="1.0" encoding="UTF-8"?>
<svg id="Warstwa_2" data-name="Warstwa 2" xmlns="http://www.w3.org/2000/svg" viewBox="0 0 53.05 53.12">
  <defs>
    <style>
      .cls-1 {
        fill: #fff;
      }
    </style>
  </defs>
  <g id="game-icon-v6-elemental-pixarts-store">
    <g id="game-icon-v6-elemental-pixarts-store_91">
      <path class="cls-1" d="M48.52,26.7c-3.29-2-6.45-.81-8.82,1.88-.83.94-2.82.11-3.96-.41,1.92-2.53,4.25-.45,5.98-4.71-1.44.12-3.27.38-3.98,1.11-1.1,2.4-2.67,3.99-5.35,3.71l-3.35-.35,8.12-6.95c-2.74-.28-4.25,1.56-6.71,2.35,4.77-6.12,12.55-1.24,15.56-4.43l-7.86-.62,8.47-.2c1.15-.51,2.46-2.44,2.85-3.56l-3.94,1.78c2.7-3.52,6.5-2.88,6.42-6.61l-.05-2.49-2.15,3.91-.87-2.76c-1.37.65-1.44,5.46-4.55,7.08-2.16,1.12-5.99.11-9.93,1.92,1.34-1.12,5.2-2.99,4.06-5.69-2.96-7.05,4.77-7.94,5.13-11.12l-6,2.7c-5.05,2.27-1.94,6.25-2.88,9.44l-.35-3.39c-.86,7.6-3.37,4.28-4.11,9.38-.34,2.33-2.12,3.92-3.42,5.75-.43.6-.71,1.18-1.54,1.36-11.52,2.58-5.53,9.26-11.1,12.45.81-1.17,1.52-2.36,1.88-3.78l-3.45,3.92.49.55c.37.43-5.17,2.35-6.64,4.35-1.92,2.6-3.59,5.03-6.02,7.28-.57.53-.68,2.7.18,2.53,2.54-.49,3.47-2.92,5.19-4.29-.82,1.45-1.74,2.74-2.84,4.2,4.16.14,4.72-5.43,9.4-8.26l-2.42.43c3.81-3.06,7.36-1.68,9.23-6.4l2.4-6.05c.81-2.04,2.62-3.25,5.32-3.36-2.15.97-4.16,2.11-4.8,4.6,4.68-4.93,6.24-3.18,11.9-4.27,2.31,1.11,3.46,3.47,3.92,5.83l.19.95c.02.12-.23-.31-.33-.39l-.34-.28-.77-2.01-.82-2.13c-1.17,1.38-1.6,3.5-.55,5.11.96,1.47,2.37,2.44,4.11,3.5.82-2.82,1.64-6.34-1.34-8.02-1.28-.72-2.07-1.49-2.91-2.97l4.57.88c1.86,3.23,5.37,4.29,8.63,2.55,1.64-.88,3.11-1.9,4.67-3.01-1.76-1.2-3.09-2.14-4.52-3.01ZM16.11,40.11c-3.54,1.61-6.81,3.19-10.23,5.28.57-.86,1.48-1.56,2.45-2.23l6.3-3.06c3.92-1.91,3.2-6.83,5.95-9.51-1.03,3.29-2.44,6.84-4.46,9.53ZM45.89,30.93c-1.2-.61-2.32-1.03-3.47-.84l.68,1.07c-1.25-.78-2.24-1.25-3.44-1.69,1.72-.17,3.18-.73,4.44-1.98l-1.3,1.92,3.08-.6c-.55,1.69,1.36-.24,2.06,1.35l-2.86-.14.81.9Z"/>
      <path class="cls-1" d="M20.12,16.17c.64.98,1.46,1.86,2.46,2.34-.27-2.25-1.26-4.19-3.25-4.92-2.03-.74-4.21-.62-6.56-.47,1.23,3.69,3.87,8,8.35,6.4,1.45-.52,2.69.15,3.16,1.69.48,1.58-.36,3.27-1.34,4.43,6.51-1.08.5-5.24,4.88-8.14.21-.14.48-.75.52-.95.04-.2-.71-.67-.83-.51l-2.13,2.89c-.42-1.34-.61-3.26-.14-4.48,3.11-2.2,4.13-5.79,2.11-9.04L24.23.38c-2.76,3.72-6.1,8.45-2.38,12.5l1.9,2.07c.25,1.51.33,2.95.34,4.39l-3.84-1.07-2.25.23,2.11-.91c-1.35-.42-2.07-.47-3.66-.68l1.51-.34-1.85-1.32c2.06,0,3.07,2.23,4,.93ZM23.48,12.3l-1.87-2.53,2.26,1.85.12-3.32v-3.36s.37,1.02.37,1.02c.08.21.32.28.53.4l-.37,2.45,1.09-.38c-.64,1.06-1.03,2.07-.75,3.3l2.05-1.57c-1.34,1.82-2.12,2.87-2.64,4.67-.21-.7-.44-2.04-.79-2.52Z"/>
      <path class="cls-1" d="M48.45,1.24c-2.58.23-5.17,2.36-5.03,5.15.06,1.2.86,2.15.2,3.51-.61-1.15-.91-1.99-1.31-3.11l.12,2.13c-.88.17-2.58.73-2.72,1.48-.28,1.44,1.86,1.08,2.68.95.83-.02.62.01-.17.1-.21.18-1.17.94-.9,1.11l.92.57-.67.62c-.09.08,0,.14.12.2.11.05.86.21.96.13l3.26-2.49.03-3.95c5.27-3.56,4.01-1.71,7.13-7.64-1.74.58-2.97,1.09-4.6,1.24ZM49.76,3.37c-2.63.31-4.07,2.06-4.85,4.21-.41-2.64,2.13-4.18,4.48-4.69.82-.14,1.21-.1.37.48Z"/>
    </g>
  </g>
</svg>