<?xml version="1.0" encoding="UTF-8"?>
<svg id="Warstwa_2" data-name="Warstwa 2" xmlns="http://www.w3.org/2000/svg" viewBox="0 0 56.07 52.26">
  <defs>
    <style>
      .cls-1 {
        fill: #fff;
      }
    </style>
  </defs>
  <g id="game-icon-v6-elemental-pixarts-store">
    <g id="game-icon-v6-elemental-pixarts-store_345">
      <path class="cls-1" d="M34.91,43.62l4.45-1.08c-7.02,6.3-17.4,8.55-26.54,9.72,7.65-2.73,16.77-7.25,19.97-15.48-2.72,2.02-5.3,3.69-8.66,4.91l4.57-5.74c-8.49-.96-16.13,1.36-24.38,3.9,7.85-5.85,21.78-11.24,31-8.88l-3.5,1.27,9.02.2-1.35,2.02,12.3-3.55c-2.25,4.13-5.5,7.5-9.17,10.22-.52-2.31,2.63-3.03,2.79-4.43l-10.5,6.91Z"/>
      <path class="cls-1" d="M40.84,19.45l-9.1.14,4.98,1.7c-10.4,1.51-23.22-2.64-31.44-8.89,8.31,1.99,15.14,4.73,23.49,3.46l-4.78-5.81c3.01,1.11,5.54,2.68,8.54,4.61C29.43,7.13,21.75,2.99,14.22,0c8.87.53,17.6,3.46,24.94,8.9l-5.16-1.27,11.55,7.59c-.81-1.9-2.97-2.2-3.15-4.59,3.92,2.56,7.04,6.09,9.55,10.37-4.43-1.47-8.19-2.88-12.3-3.48l1.19,1.93Z"/>
      <path class="cls-1" d="M43.82,29.81l-35.3-3.88c11.18-1.31,22.33-1.91,33.62-3.89,4.65-.82,9.47,1.33,13.93,3.82-3.51,2.03-7.93,4.43-12.25,3.96Z"/>
      <path class="cls-1" d="M23.09,38.84c0,4.15-11.55,6.3-15.01,6.86l15.01-6.86Z"/>
      <path class="cls-1" d="M23.36,13.09c-6.05-2.58-9.11-4.61-15.28-6.91,4.62.65,8.65,2.07,12.99,3.63.89,1.06,1.44,1.79,2.29,3.28Z"/>
      <path class="cls-1" d="M21.48,29.6c-5.09,2.24-12.78,1.68-19.37.8l19.37-.8Z"/>
      <path class="cls-1" d="M13.13,22.05l-7.33-.33-5.8-.59,11.27-.45c2.97-.12,5.62-.04,8.34,1.06-2.17.29-4.15.41-6.47.31Z"/>
    </g>
  </g>
</svg>