<?xml version="1.0" encoding="UTF-8"?>
<svg id="Warstwa_2" data-name="Warstwa 2" xmlns="http://www.w3.org/2000/svg" viewBox="0 0 59.76 58.61">
  <defs>
    <style>
      .cls-1 {
        fill: #fff;
      }
    </style>
  </defs>
  <g id="game-icon-v6-elemental-pixarts-store">
    <g id="game-icon-v6-elemental-pixarts-store_34">
      <path class="cls-1" d="M51.96,52.94c-1.96-.27-3.14-2.05-3.39-3.68-.54-3.53,3.52-4.01,3.23-5.72-.07-.42-1.08-1.16-1.53-1.1-1.12.14-2.81,1.23-3.84,1.97l-2.87-1.19c.45-1.99,3.81-4.16,2.02-5.76-1.64-1.48-3.95,1.88-4.77,2.9l-1.89-.49c-2.26.28-2.04,3.07-3.13,4.04-1.12,1-2.68,1.45-3.24,3.22-.24.77-1.72,2.27-2.47,1.76-3.17-2.14-2.93-7.74-5.51-7.32-1.65.27-2.12,2.75-2.41,2.2l-.38-.7c-.31-.57-.89-1.51-1.31-1.86-.36-.3-1.51,0-2.06,0l-2.42-2.96c-.31-.37-1.77-.17-1.99.23-.22.39,0,1.34.34,1.65l2.86,2.49c.86.75,1.5,2.22,1.58,3.4-.74-.73-1.75-1.74-2.65-2.13-.56-.24-1.56.98-1.82,1.62l-3.63-2.33c-.97-.62-2.72-.54-3.01.77.98.97,2.25,1.86,3.21,2.97,1.01,1.16.48,3.27-.29,4.39-.61.88-2,1.7-3.19,1.91,1.07-1.33,2.82-2.02,1.66-3.84-2.68,2.48-5.66,2.91-9.08,3.07l.03,6.13,27.69.04c2.92,0,5.4-.74,8.05-1.78,1.53.48,3.85,1.74,5.52,1.74l18.46.03v-6.17c-3.56,0-6.36-.7-9.06-3.13-.67,1.53.3,2.43,1.27,3.64ZM6.8,55.4c4.26-1.68,5.96-2.09,7.12-7.12l2.47,3.93c.18.29.34,1.49.04,1.56l-1.39.34c.35-.63.79-1.37.66-1.71-.16-.4-.64-.98-1.12-1.5-1.62,2.95-4.43,4.48-7.78,4.48ZM35.46,52.48c-3.37,3.59-7.96,5.73-12.92,4.12l5.7-1.17-4.8-2.76c-2.52,1.87-5.66,3.5-9,2.59,3.26-.51,6.46-1.33,8.48-4.26,2.28,1.38,4.45,3.11,6.95,3.31,2.46.19,4.25-2.25,6.36-3.5.96,2.41,2.91,4.12,5.63,3.29l3.04,1.32c-4.06.28-7.05.14-9.46-2.93ZM45.2,50.3c-.5.45-1.16,1.18-1.21,1.64-.05.54.59,1.52,1.07,2.14-.62-.03-2.72-1.57-2.18-2.48.94-1.57,2.12-2.72,3.32-4.02-.03,2.58.97,5.17,3.6,6.33l3.52,1.54c-3,.2-7.07-1.96-8.11-5.15Z"/>
      <path class="cls-1" d="M17.22,13.73c.82.61,1.87.88,3.38,1.49l-2.23.37c-1.37,1.21-2.04,3.65-.21,5.26,1.15-1.14,1.12-5.02,2.39-4.45,2.66,1.2,3.42,19.71,3.54,23.36.01.46,1.55.45,1.59-.03l.53-7.3.61,5.55c.19,1.76.15,3.38,1.44,4.82l.91-14.64c.32,3.98.7,7.55,1.22,11.38l.93,6.87c2.5-2.18,1.42-7.87,2.57-11.06l.52,7.24c.84-.9,1.13-1.97,1.17-3.19.07-2.33.49-24.67,4.98-22.78l1.42,3.49c1.69-1.67.5-4.18-.6-5.72.99-1.08,1.79-2.5,1.56-3.67-.29-1.47-1.26-2.39-2.85-2.89.74-1.53.35-3.16-1.04-3.96-1.53-.88-3.07-.34-4.49,1-.08-2.67-1.54-4.54-3.7-4.81-2.38-.31-4.5,1.27-4.43,3.89l-2.37.42c-1.15-1.38-3.18-1.81-4.62-.82-1.75,1.21-2,3.21-1.04,5.05-.55.42-1.45,1.08-1.83,1.61-.66.91-.18,2.91.65,3.53ZM32.25,15.57c1.24.33,2.57.35,3.15-.44l1.62-2.2-2.37,12.36-.06-7.97c-1.19,1.45-1.53,3.19-1.7,5.14l-.76,8.76c-.27-5.02-.16-10.1.12-15.64ZM22.54,13.65c.32-.15.24-1.19.31-1.88,1.02.94,1.95,1.44,3.66,1.66.63,3.81.99,7.78.65,11.79l-.64-4.32c-.33-2.24-.13-4.59-2.25-6.59l.29,7.12-1.49-5.6c-.16-.59-1.27-1.22-1.79-1.59l1.27-.59Z"/>
      <path class="cls-1" d="M56.82,33.8c-3.03-1.11-6.4,2.52-7.07,4.69l6.65-3.09c.35-.16.75-1.49.42-1.61Z"/>
      <path class="cls-1" d="M20.44,26.39c-.12-.08-.28-.13-.31,0-.03.13-.11.95-.05,1.15l2.36,7.32c.4-2.36-.63-7.57-2-8.46Z"/>
      <path class="cls-1" d="M47.89,29.88c-2.42-.24-3.89,3.34-4.09,5.23l3.89-3.9c.24-.24.53-1.29.2-1.33Z"/>
      <path class="cls-1" d="M18.49,36.22c-.88,1.5,1.81,3.24,3.05,3.58-.3-1.43-.87-2.74-1.45-3.46-.29-.36-1.39-.47-1.6-.12Z"/>
      <path class="cls-1" d="M37.2,35.42l1.96-6.69c-.96-4.15-2.64,6.53-1.96,6.69Z"/>
      <path class="cls-1" d="M5.62,37.5l3.72,1.33c-.89-1.59-1.71-2.25-2.88-2.96-.56.2-1.35.35-1.24.63l.4,1Z"/>
      <path class="cls-1" d="M11.82,33.08l2.88,2.41c-.12-1.35-2.18-5.16-3.22-4.16-.17.16-.47.62-.37.83.09.21.5.75.71.93Z"/>
    </g>
  </g>
</svg>