<?xml version="1.0" encoding="UTF-8"?>
<svg id="Warstwa_2" data-name="Warstwa 2" xmlns="http://www.w3.org/2000/svg" viewBox="0 0 53.64 53.64">
  <defs>
    <style>
      .cls-1 {
        fill: #fff;
      }
    </style>
  </defs>
  <g id="game-icon-v6-elemental-pixarts-store">
    <g id="game-icon-v6-elemental-pixarts-store_298">
      <path class="cls-1" d="M53.64,26.82c0,14.81-12.01,26.82-26.82,26.82S0,41.63,0,26.82,12.01,0,26.82,0s26.82,12.01,26.82,26.82ZM32.29,51.2c-11-3.14-18.23-12.96-18.39-24.18-.16-11.04,6.75-20.84,17.46-24.57C20.04.02,9.06,6.4,4.38,16.15c-4.82,10.06-2.17,21.98,6.18,29.42,5.97,5.32,13.67,7.52,21.73,5.64ZM37.39,21.62c.71-1.77.82-4.26,2.07-4.68l4.09-1.38c-1.47-.27-3.82-.3-4.7-1.47-.86-1.14-.92-3.1-1.46-4.69-.54,1.54-.3,3.88-1.67,5.05-.96.83-2.88.79-4.1,1.13l4.15,1.34c.89,1.21,1.3,3.3,1.62,4.7ZM44.23,30.93c.32-1.81,1.14-2.8,2.73-3.33-2.07-.35-2.53-1.62-2.69-3.15-.59,1.81-1.38,2.86-3,3.24,1.71.33,2.5,1.6,2.97,3.25ZM22.7,32.52c.73-1.56,1.36-2.11,2.46-2.68-.46-.19-1.61-.46-1.77-.98l-.62-2.09c-.27,1.48-1.02,2.73-2.39,3.08,1.23.57,2.1,1.62,2.32,2.67ZM34.74,40.33l3.8-1.04c-1.34-.51-3.27-.79-3.82-1.61s-.81-2.56-1-3.59l-1.25,3.59c-.53.66-2.42,1.1-3.45,1.47l3.36,1.25,1.17,3.57,1.19-3.64Z"/>
      <path class="cls-1" d="M10.94,41.25l-.84-2.27c-.18-.49-1.35-.67-2.17-1.01,1.94-1.03,1.75.36,2.93-2.98.2.57.51,1.57.77,2.02s1.36.58,2.22.91l-2.06.83c-.58.23-.67,1.83-.85,2.5Z"/>
      <path class="cls-1" d="M11.74,16.14l-.61-1.49c-.16-.4-1.34-.67-1.73-.8.88-.49,1.81-1.36,2.26-2.24.12.7,1.06,1.63,2.11,2.19-.92.12-1.74.79-2.03,2.34Z"/>
    </g>
  </g>
</svg>