<?xml version="1.0" encoding="UTF-8"?>
<svg id="Warstwa_2" data-name="Warstwa 2" xmlns="http://www.w3.org/2000/svg" viewBox="0 0 49.89 40.85">
  <defs>
    <style>
      .cls-1 {
        fill: #fff;
      }
    </style>
  </defs>
  <g id="game-icon-v6-elemental-pixarts-store">
    <g id="game-icon-v6-elemental-pixarts-store_410">
      <path class="cls-1" d="M13.25,25.18c-1.99,2.16-4.29,4.19-6.93,6.21L0,25.94l.51-8.48,8.11,1.47,4.62,6.25Z"/>
      <path class="cls-1" d="M35.53,24.2l-5.75-2.01c.11-.69.42-2.29.08-2.79-.69-.9-2.37-2.05-3.74-3.19l8.35-5.44-.54,4.35,6.17.22,1.57,5.03-6.14,3.82Z"/>
      <path class="cls-1" d="M27.92,37.63l-5.75,3.22c-2.19-2.65-3.9-5.5-4.35-8.71,1.75-1.43,3.1-2.64,4.64-4.05l2.65-2.43,3.6,6.91-.79,5.05Z"/>
      <path class="cls-1" d="M12.36,28.84l2.66-3.14-5.33-7,6.31-3.17,7.4,5.24c-2.16,2.43-4.15,5.28-5.83,8.14l-5.21-.07Z"/>
      <path class="cls-1" d="M31.37,38c-.37-2.22-1.63-6.02.29-7.13-.46.02-1.26.06-1.68.05-.42-.02-.89-1.14-1.02-1.57l-1.39-4.79,8.03,3.81c4.08,1.94,1.01,4.06,4.75,9.18l-8.98.46Z"/>
      <polygon class="cls-1" points="21.14 14.94 17.03 12.21 17.51 8.15 14.7 3.33 24.39 2.92 26.39 10.62 23.12 11.45 21.14 14.94"/>
      <path class="cls-1" d="M43.5,34.36l-3.07-2.45c.33-2.7-.58-4.35-2.35-6.51l4.18-2.56,7.63,2.22-6.39,9.3Z"/>
      <path class="cls-1" d="M40.53,14l-5.38-.39c.71-3.37,2.63-6,5.16-8.03l6.26,3.6-6.04,4.81Z"/>
      <path class="cls-1" d="M31.92,8.4c-.72.24-2.61-.43-3.06-.9l-.07-6.54,5.12-.97,3.73,3.5-5.72,4.9Z"/>
      <polygon class="cls-1" points="8.68 17.37 2.8 15.83 6.58 9.88 13.3 14.35 8.68 17.37"/>
      <polygon class="cls-1" points="43.24 20.67 41.48 15.05 46.12 13.31 49.17 22.17 43.24 20.67"/>
      <path class="cls-1" d="M15.22,10.95l-6.45-3.18,2.63-6.56,4.25,6.42c.38.58-.05,2.03-.43,3.33Z"/>
      <path class="cls-1" d="M12.55,37.38l-5.48-2.25c2.23-2.14,4.26-3.6,7.81-3.9.34,1.38.64,2.66.92,4.17.25,1.35-2.16,2.43-3.25,1.98Z"/>
    </g>
  </g>
</svg>