<?xml version="1.0" encoding="UTF-8"?>
<svg id="Warstwa_2" data-name="Warstwa 2" xmlns="http://www.w3.org/2000/svg" viewBox="0 0 53.88 50.45">
  <defs>
    <style>
      .cls-1 {
        fill: #fff;
      }
    </style>
  </defs>
  <g id="game-icon-v6-elemental-pixarts-store">
    <g id="game-icon-v6-elemental-pixarts-store_337">
      <path class="cls-1" d="M24.73,39.69c1.12-.9,1.26-3.75,1.23-5.12-8.21,6.47-16.14,12.16-25.96,15.87,5.22-5.55,11.2-9.09,15.06-15.74l-10.19,4.17,18.57-13.41-1.26,4.28c5.95-4.78,11.24-10.17,16.32-15.44l-6.64,2.6c3.33-3.06,8.1-3.38,11.25-6.44L53.88,0c-2.62,6.31-6.4,11.6-10.19,17.22-3.25,4.81-3.53,11.3-9.21,14.59,2.56-3.43,2.59-5.36,3.26-10.08l-4.03,6.08-3.5,6.03c-3.69,6.35-4.62,7.52-11.6,10.74l6.12-4.89Z"/>
      <path class="cls-1" d="M36.86,37.56c-3.72,2.6-7.27,5.42-11.6,7.54,6.56-5.46,12.68-10.65,18.37-16.91,1.16-1.27,2.37-2.38,3.66-3.54-2.83,5.82-6.69,10.72-11.19,14.96l.76-2.05Z"/>
      <path class="cls-1" d="M21.72,16.32c-4.57,3.46-8.69,6.67-13.58,9.3l18.95-15.87c1.39-1.16,2.37-2.5,4.45-2.04l-8.46,8.98-1.36-.38Z"/>
      <path class="cls-1" d="M10.24,31.31L30.71,13.83c3.85-3.3,6.97-6.92,11.05-10.04-9.27,10.41-19.42,19.78-31.52,27.52Z"/>
    </g>
  </g>
</svg>