<?xml version="1.0" encoding="UTF-8"?>
<svg id="Warstwa_2" data-name="Warstwa 2" xmlns="http://www.w3.org/2000/svg" viewBox="0 0 35.89 65.1">
  <defs>
    <style>
      .cls-1 {
        fill: #fff;
      }
    </style>
  </defs>
  <g id="game-icon-v6-elemental-pixarts-store">
    <g id="game-icon-v6-elemental-pixarts-store_255">
      <path class="cls-1" d="M15.31,65.1l-.23-6.52-1.18-1.45c-.67-.82,1.78-2.49.26-3.46-1.5-.96-.87-2.02-.42-3.23.93-2.51-2.66-5.35-4.27-4.99-1.49.33-.84,3.36-1.51,3.93-.51-2.28-.63-4.12-1.88-5.59-.25-.29-1.1-.79-1.36-.6-1.08.8-1.32,1.77-1.63,1.46-1.1-1.09-.32-2.22-2.02-5.48-1.21-2.32-1.46-4.92-.4-7.41l3.38-7.85c.64-1.48.85-3.15.38-4.66l-3.28,1.9c2.04-4.67,3.25-8.96,2.41-13.7,3.74,4.62,4.95,10.42,3.72,16.01l-1.67,7.58c-.6,2.72.55,5.55,2.9,6.91,2.11,1.22,4.55.56,5.7-1.61.67-1.25,1.09-2.88,1.24-4.4.27-2.81,1.3-15.85-.11-17.47l-2.68,1.3L17.99,0l5.34,15.74-1.69-.85c-.3-.15-.73-.34-.96-.43s-.68.76-.7,1.12c-.22,6.19-.18,13.31,1.18,19.51.36,1.62,1.88,2.95,2.99,3.3,1.65.52,3.29-.13,4.46-1.28,3.73-3.67.76-8.86.01-14.69-.66-5.13.21-10.5,3.55-14.72-.17,6.01.52,7.63,2.58,13.43l-3.16-1.89c-.37,1.53-.27,2.93.28,4.27l3.22,7.75c2.02,4.86-.32,7.42-1.92,11.68l-1.11-.55c-1.76,1.07-2.07,2.72-2.79,5.03l-1.32-2.2c-2.5-.43-4.82,1-5.83,3.42-.22.52-.03,1.77.29,2.2,1.81,2.4-1.88,2.61-.89,4.44.33.62.71,1.46.56,1.87s-.91,1.11-1.19,1.54l-.15,6.26-5.45.14ZM16.77,11.21c-.22.39-.3,1.33-.12,1.95.16.54,1.38.82,1.9.57.41-.2.87-.98.94-1.61.04-.4-.29-1.38-.62-1.55s-1.07-.27-1.41-.26c.55.53,1.12,1.05,1.05,1.47-.06.35-.82.92-1.04.83l-.69-1.4ZM2.9,35.64l-.82-.81c-.17-.17.67-.65.64-.89l-.29-2.31c-1.51,2.8-1,8.49,3.26,8.88-1.38-2.8-1.99-.3-2.79-4.87ZM18.97,48.66c-.06-.31-.39.79-.17.87l.72.27c-.12.58-.07,1.3.75,1.63.43-5.72,2.97-5.78,6.58-8.74.12.26.24.49.13.6l-.52.53c.56.07,2.22.12,2.71-.43l3.48-3.84c2-2.21,2.58-5.63.74-7.92l.16,1.48c.03.25-.47.61-.75.89l.95.51c.23.12-.13.83-.36.95s-.88.13-.93-.12l-.24-1.07c-.56.87-.38,1.8.8,2.58-.33.66-.77,1.5-1.19,2.14l-1.14,1.74-2.45,1.16-.61-1.02c-2.29,4.74-4.26-1.19-7.73,8.34l-.93-.58ZM19.22,37.69c.04-.48-.88-1.29-1.23-1.12-.32.16-.73.45-1.24.87-.48.39.16,1.55.68,1.7.86.25,1.69-.16,1.79-1.45ZM7.26,42.92c.61-1.01-.1-1.81-.82-1.92l-2.67-.39c.2.48.38.98.65.95l1.26-.11c.21.51,1.08,1.48,1.58,1.46ZM20.5,44.03c0-1.38-1.12-2.49-2.49-2.49s-2.49,1.12-2.49,2.49,1.12,2.49,2.49,2.49,2.49-1.12,2.49-2.49ZM15.08,48.2c-.16-2.61-1.97-4.29-4.08-5.61-.45-.28-1.49.35-1.55.78,2.45,1.27,4.57,2.54,5.63,4.84ZM15.58,53.09c-.09,2.1,3.49,2.2,4.33,1.76,2.73-1.45-3.8-.79-4.33-1.76ZM20.47,56.34l-3.52.25c1.12,1.5,2.66,1.18,3.52-.25ZM18.96,60.84l.48,3.2.7-6.19c-1.15.66-2.26.59-4.24.78l1.35,1.76.89-.37c.19-.08.77.59.81.81Z"/>
      <path class="cls-1" d="M18.39,42.46c.91.8.29,2.63-1,2.68-.65.02-1.2-1.14-1.11-1.71.14-.83,1.24-1.73,2.11-.97Z"/>
    </g>
  </g>
</svg>