<?xml version="1.0" encoding="UTF-8"?>
<svg id="Warstwa_2" data-name="Warstwa 2" xmlns="http://www.w3.org/2000/svg" viewBox="0 0 24.52 56.27">
  <defs>
    <style>
      .cls-1 {
        fill: #fff;
      }
    </style>
  </defs>
  <g id="game-icon-v6-elemental-pixarts-store">
    <g id="game-icon-v6-elemental-pixarts-store_292">
      <path class="cls-1" d="M8.84,48.05c.78.18,1.16.35,1.15.11-.21-3.18-.98.26-3.93-2.7l-2.33,1.03-.04-4.39c.7-.05,2.02-.08,2.58,0l.57,1.65c.41,1.2,2.79-1.75,3.88-1.97l-.05-11.17c0-.37-1.28-1.15-1.1-1.41l.96-1.42-1.1-1.59c.39-.67.74-1.17.75-1.59.01-.5-.83-1.71-1.42-1.86-2.64-.68-4.56-3.86-6.12-5.96-.8-1.08-2.36-1.61-2.59-2.83-.42-2.3,1.81-2.14,2.54-3.4,1.66-2.86,3.67-5.39,7-6.45-.01-1.67.79-3.46,1.89-3.88,3.05-1.18,2.6,2.56,3.68,3.37,2.68,1.99,5.19,3.92,6.87,7.02.51.94,2.45,1.4,2.48,2.83.05,1.91-1.64,2.12-2.61,3.32-1.64,2.03-3.38,5.17-5.84,5.79-.61.15-1.51,1.01-1.66,1.44-.17.51.12,1.28.53,2.2l-.92,1.62.72,1.16c.19.31-.72,1-.97,1.36l-.08,24.37c0,.61-.75,1.5-1.24,1.55-2.26.2-.51-1.18-2.89-3.74-.85-.91-1.84-1.88-2.98-1.47-.08.71.01,2.09-.45,2.09l-2.43-.02-.07-4.34,2.16,1.02,3.04-1.75ZM5.12,10.78c2.51-.26,4.05-2,4.42-4.25-2.15.63-3.94,2.07-4.42,4.25ZM19.5,10.77c-.65-2.07-2.29-3.71-4.44-4.3.26,2.37,2.04,3.95,4.44,4.3ZM13.75,19.58c1.08-2.53,2.67-3.68,4.6-4.61l-.08-2.92c-2.2-.68-3.79-2.39-4.64-4.44l-2.92.16c-.66,2.14-2.38,3.61-4.4,4.22l-.17,3.09c1.88.75,3.77,1.92,4.36,4.22l3.24.29ZM4.67,13.63c0-.72-.58-1.3-1.3-1.3s-1.3.58-1.3,1.3.58,1.3,1.3,1.3,1.3-.58,1.3-1.3ZM22.36,13.68c0-.69-.56-1.25-1.25-1.25s-1.25.56-1.25,1.25.56,1.25,1.25,1.25,1.25-.56,1.25-1.25ZM9.45,20.67c-.37-2.33-2.01-4.28-4.31-4.12.81,2.15,2.34,3.58,4.31,4.12ZM15.03,20.73c2.27-.63,3.63-2.06,4.26-4.2-2.16.21-4.02,1.85-4.26,4.2Z"/>
      <path class="cls-1" d="M12.18,16.59c-.42-1.63-1.39-2.43-3.13-2.93,1.63-.57,2.62-1.23,3.16-3.34.33,2.02,1.43,2.92,3.67,3.45l-2.37.76c-.6.19-.94,1.48-1.33,2.06Z"/>
    </g>
  </g>
</svg>