<?xml version="1.0" encoding="UTF-8"?>
<svg id="Warstwa_2" data-name="Warstwa 2" xmlns="http://www.w3.org/2000/svg" viewBox="0 0 58.1 58.22">
  <defs>
    <style>
      .cls-1 {
        fill: #fff;
      }
    </style>
  </defs>
  <g id="game-icon-v6-elemental-pixarts-store">
    <g id="game-icon-v6-elemental-pixarts-store_32">
      <path class="cls-1" d="M38.13,32.34c.34-1.98.45-3.79-.34-5.47l1.23.39c.23.07.74-.83.8-1.08.52-2-.17-4.09-.86-6.28,1.99,1.08,1.53,4.39,3.35,5.59.06-3.77-1.44-9.64-6.33-8.79l-1.55-.84v1.82c-1.31-1.78-2.23-3.31-4.2-3.66.09,2.44,4.35,4.97,2.99,5.68-2.25-1.5-4.16-2.03-6.79-2.77l4.85.19-2.52-1.11c.73-.44,1.3-1.25,1.22-1.97l-.34-3.05c1.43,1.68,3.55,4.37,5.85,2.93,1.84-1.15,1.62-4.48,1.95-6.32.26-1.45.78-3.06.04-4.15-2.74-4.03-7.51-4.46-11.26-1.69-2.28,1.68-4.46,1.81-7.08-.19-.16,1.01.43,1.39,1.17,1.9,5.12,3.52,4.55-1.53,10.67.64-1.52.08-3.1-.09-4.29.6C18.08,9.7,15.63.31,9.6,8.03c1.8,1.04,3.83-3.85,7.82-.36,5.6,4.89,10.22-2.84,12.01.48-5.94-.8-5.58,5.14-12.66.86,1.1,4.03,6.71,4.76,10.22,2.85l-2.86.13c.73-1.42,2.9-2.67,4.3-1.2.63.66.12,2.75-.58,3.3-3.31,2.59-8.46-.65-9.89,5.67,1.59-.32,2.12-.34,3.06-.18l3.33-.05c-2.42,2-5.74.79-8.11,1.57-2.89,3.18-6.65,4.52-7.38,7.1l3.05-.67c-2.21,3.29-5.15,5.26-8.7,7.2.59,1.66,2.2.68,3.87.17l-4.38,6.54c-.79,1.18-.4,3.57-.23,5.29,1.13-1.11,1.24-2.54,1.61-4.36.81,1.92.69,3.84-.07,6.03,4.31-1.22.69-4.36,2.18-7.26.4,2.01.72,4.05,1.56,5.63,1.54,2.92.17-3.84.45-5.61.1-.6,1.53-1.28,1.72-.75l1.14,3.1c2.64-3.04-.75-5.38,1.22-7.91,1.07-1.37,1.72-2.59,2.21-4.21l-3.8,4.39c.13-2.27,1.59-4.33,3.34-5.35,3.67-2.14,6.91-4.32,9.36-7.68-1.71.57-2.74,1.26-4.04,1.77l-5.07,1.98c.81-1.89,10.28-5.52,11.74-3.74,1.51,2.29,2.96,3.55,5.65,3.16-2.15,1.91-4.51.41-6.27-1.7.06,2.32,1.89,5.02,4.49,5.11,1.82.06,3.16-1.67,4.72-2.51-1.15,3.25-4.96,2.8-6.99,7.42-.39-1.65-.54-4.05-1.4-5.48l-2.43-4.02c-1.35,1.91.57,3.38,1.32,5.03,1,2.18.62,5.45-1.16,7.12-1.16,1.09-2.18,2.03-2.41,3.52,3.73-.68,5.89-2.82,8.07-5.55l-.18,2.47c1.84-1.11,2.7-2.77,3.81-4.7-.24,2.82-2.03,5.2-4.16,7.26l-5.51,5.31c1.01-2.33,2.32-3.44,3.59-5.37-3.69.96-7.12,3.58-8.93,7.06-.63,1.2-.97,2.78-1.51,4.12-.63,1.58-3.39,3.05-4.52,1.48-1.95-2.73,4.66-4.53,3.2-5.09-3.05-1.16-5.4,1.86-6.74,4.47-3.15,6.09-5.15,3.56-8.66,6.26l17.32.03c1.35-2.26,2.28-4.37,3.83-6.21,7.88-9.36,14.91-7.5,16.97-19.65Z"/>
      <path class="cls-1" d="M52.55,54.87c-3.1.37-5.5-.97-6.29-4.1-1.17-4.63-2.55-5.47-5.72-8.71-.43,2.62,4.3,7.31,1.64,10.12-1.28,1.35-3.5-.36-3.88-1.99-1.12-4.76,2.06-8.86.29-14.12l-3.07,8.09c-.92,2.44-1.56,4.87-1.26,7.27l.89-1.77c.45,3.78,2.39,7.7,6.39,8.35,2.3.38,4.94.08,7.1.07-2.25-1.32-3.6-3.23-3.22-5.88.98,3.03,3.31,4.82,6.72,4.6,2.79-.17,2.85,2.08,5.97,1.18-1.29-1.71-3.29-3.4-5.56-3.13Z"/>
      <path class="cls-1" d="M53.56,36.59l.82.21c.98.25,2.02.42,2.88.4-2.48-4.47-6.47-.17-8.8-4.79-1.06-2.09-2.39-3.95-4.33-4.74l.35,2.18-3.76-4.82c-1.62,3.15.92,5.93,2.27,6.39,2.16.75,4.29,1.8,4.88,4.34-3.9-3.78-3.52-1.32-7.59-4.96-.07,1.7,1.31,3.6,3.1,4.17,2.83.89,3.83,2.74,5.07,5.29.68,1.4,1,2.65,1,4.59,1.69-.81,1.38-2.43.7-4.39,5.64,1.34,2.01,6.73,4.46,6.84.97-2.13.59-6.93-3.03-7.69-1.98-.41-3.17-1.87-3.65-3.95,3.24,5.07,6.34.93,8.35,8.52,2.98-3.65-2.54-6.39-3-7.02-.1-.13.12-.61.28-.57Z"/>
      <path class="cls-1" d="M32.65,44.3c-3.94,1.58-11.96,8.6-9.12,13.53l1.39-4.71c-.01,1.6.02,3.66.78,5h5.19c-3.55-5.7-1.5-8.74,1.75-13.82Z"/>
      <path class="cls-1" d="M34.12,45.04c-3.59,3.52-4.3,8.87-1.49,13.07,1.48.07,3.17.04,4.33-.04-5.28-5.53-4.12-6.66-2.84-13.03Z"/>
      <path class="cls-1" d="M17.84,32.18c1.39-.88,2.46-2.03,2.19-3.63l-4.04,3.45c-.74.63-1.54,1.88-.54,2.53l2.38-2.35Z"/>
      <path class="cls-1" d="M39.74,46.16c-.87,1.64-.85,3.84.61,5.14,1.45,1.29.43-4.26-.61-5.14Z"/>
      <path class="cls-1" d="M21.19,57.67l.37-4.37c-.9,1.68-1.66,3.15-1.94,4.44-.09.41,1.53.34,1.57-.07Z"/>
      <path class="cls-1" d="M16.13,18.38c-.56-.41-1.73-.5-2.21-.28-.55.26-1.15,1.44-.85,1.9.92.48,2.56-.39,3.06-1.63Z"/>
    </g>
  </g>
</svg>