<?xml version="1.0" encoding="UTF-8"?>
<svg id="Warstwa_2" data-name="Warstwa 2" xmlns="http://www.w3.org/2000/svg" viewBox="0 0 73.68 43.96">
  <defs>
    <style>
      .cls-1 {
        fill: #fff;
      }
    </style>
  </defs>
  <g id="game-icon-v6-elemental-pixarts-store">
    <g id="game-icon-v6-elemental-pixarts-store_401">
      <path class="cls-1" d="M73.68,43.95H0s7.88-12.03,7.88-12.03l3.43.14,4.13-6.22,1.96.86,7.57-14.55,3.4,2.73,2.84-5.09L36.96,0c3.23,5.23,5.94,10.02,8.35,15.38l4.4,1.39c.7,1.14,1.51,2.54,2.15,3.74l4.39,8.22,5.38-2.84,3.54,5.97c.29.48,1.16,1.14,1.58,1.45l6.92,10.63ZM23.37,36.34l3.8-3.74c1.84-.86,3.23-1.78,4.99-3.38.84,3.3-1.39,6.61-1.36,11.25l7.96-6.34c-1.59-3.28-2.75-6.23-2.86-9.49l2.46-4.17,3.69,5.07c-.77-2.65-1.62-5.13-2.69-7.85l-2.74-3.38c1.12-1.92,1.35-3.52.97-5.3l-1.16,2.26c.22-2.65.41-4.85.24-7.54-2.58,4.08-4.6,7.82-6.76,11.93l.93,5.59c-1.59-2.49-2.92-4.57-5.45-6.24l-7.42,13.97-2.08-.81-4.27,6.01-2.4-.1-4.77,6.38,8.89-4.42-.93,3.61c6.38-3.77,5.36-4.87,8.07-7.81,2.1-2.28,3.84-4.36,5.79-7.02-.82,3.77-1.75,7.29-2.9,11.52ZM48.52,18.29l-3.43-.46c.24,1.16.42,2.53.97,3.41l3.75,6.05c-.37-3.99-3.26-5.67-1.28-9ZM49.02,35.24l5.5,3.15c-1.55-2.17-3.31-3.5-4.83-5.33-1.44-1.73-2.47-3.91-3.8-5.7.08,1.85,1.32,3.76,1.01,5.5l-1.24,6.96,3.37-4.59ZM65.76,40.1c-2-2.58-4.13-5.01-5.66-7.93l.63-3.94-4.23,2.46c3.74,6.17,2.61,5.55,9.27,9.41Z"/>
    </g>
  </g>
</svg>