<?xml version="1.0" encoding="UTF-8"?>
<svg id="Warstwa_2" data-name="Warstwa 2" xmlns="http://www.w3.org/2000/svg" viewBox="0 0 60.81 59.29">
  <defs>
    <style>
      .cls-1 {
        fill: #fff;
      }
    </style>
  </defs>
  <g id="game-icon-v6-elemental-pixarts-store">
    <g id="game-icon-v6-elemental-pixarts-store_355">
      <path class="cls-1" d="M52.54,17.78l.57,4.71c-2.16-1.03-3.19-1.54-4.54-.31l1.68,1.63-5.97.12,3.13,1.66-2.5,1.07,4.77.71c-2.14,1.98-4.29,4.44-6.88,6.11-5.47,3.54-15.17,1.77-16.9,9.33,2.95-1.62,5.74-1.08,7.63,1.85,3.72-1.56,6.78-3.22,10.14-5.16-2.49,3.24-6.2,4.66-9.59,7.11,1.15,6.32,6.11.07,8.55,5.88l-2.96,1.88,1.96,4.31c.2.45,1.84.53,1.69.1-.57-1.62-.81-4.17,1.05-5.47,2.55-1.78,6.27-1.91,9.67-2.07,1.42-4.82,1.86-9.98,1.82-15.01-.03-3.32,5.26-5.53.73-12.08l1.67.29,2.54-4.54c-3.36-2.91-4.02-4.41-8.27-2.12Z"/>
      <path class="cls-1" d="M9.2,24.09c4.25,1.71,8.74,2.64,13.44,2.62l11.53-.06c1.34,0,3.05-.42,4.28-.76-9.51-.49-28.73-.57-31.32-12.09-.69-3.07.15-6.15,2.44-8.05,1.99-1.65,5-2.43,7.69-1.18,2.9,1.35,4.01,5.03,2.48,7.85-.79,1.45-2.52,2.23-4.2,2.11-1.71-.12-3.08-1.13-3.42-2.8-.2-.98.43-2.42,1.21-3.49-2.1.21-2.85,2.17-2.73,3.96.08,1.21,1,2.99,2.24,3.79,2.68,1.75,5.94,1.13,8.26-.6,2.24-1.67,3.2-4.56,2.77-7.64C23.12,2.43,17.69-.97,12.2.25c-2.21.49-5.13,1.75-6.69,3.45-3.78,4.13-2.9,9.99-.15,14.33C1.58,16.05,1.33,11.89.56,8.02c-1.48,6.83,2.02,13.41,8.64,16.07Z"/>
      <path class="cls-1" d="M30.3,28.9c-6.08.38-12.05.17-17.96,1.18-5.05.87-9.41,4.31-9.62,9.47,1.15-1.88,1.93-4,4.25-4.76-2.71,3.58-3.59,7.79-1.23,11.32l.57-1.39c1.65,3.02,4.48,5.09,7.92,4.63,3.32-.44,6.33-2.84,6.58-6.49.14-2.18-.64-4.3-2.02-5.49-1.6-1.38-3.82-1.78-5.88-.82-1.16.53-2.21,2.18-2.22,3.22,0,1.3.76,2.75,1.67,3.16-.63-1.92-.88-3.43.41-4.52.92-.78,2.78-.88,3.87-.04,1.67,1.29,1.86,3.44,1.18,5.12-.69,1.68-2.6,2.89-4.63,2.72-3.84-.31-6.14-3.93-5.17-7.61,1.75-6.69,11.84-7.24,18.45-8.17l11.49-1.62c-2.7-.42-5.07-.09-7.66.07Z"/>
      <path class="cls-1" d="M40.78,21.34c-4.17-1.26-11.13-2.05-12.66-6.1-.3-.8.12-2.58.93-3.11,1.39-.91,3.14-.38,3.58.67.41.98-.31,2.23-1.15,3.14.78.36,2.44-.43,2.67-1.64.31-1.61-.23-3.29-1.44-4.12-.86-.59-2.77-.71-3.85-.25-2.18.94-3.05,2.87-2.85,5.05.54,6.06,10.39,6.43,14.77,6.35Z"/>
      <path class="cls-1" d="M18.84,20.1c4.57,2.82,14.83,3.7,19.44,3.57-5.26-1.18-9.84-1.43-14.15-3.59-1.79-.9-3.55-1.54-5.29.02Z"/>
      <path class="cls-1" d="M49.75,52.93l-.6,6.25c2.46.12,3.75.16,6.39,0l-3.7-2.22.49-4.38c-.1-.45-2.51-.32-2.58.35Z"/>
      <path class="cls-1" d="M13.27,27.89c-5.46-1.2-9.91-3.07-13.27-7.41.88,6.41,8.14,8.29,13.27,7.41Z"/>
      <path class="cls-1" d="M21.73,34.95c.2.52.76,1.57,1.01,1.95,3.35-2.49,6.36-3.83,9.97-4.88-3.92-.2-7.6.91-10.99,2.93Z"/>
    </g>
  </g>
</svg>