<?xml version="1.0" encoding="UTF-8"?>
<svg id="Warstwa_2" data-name="Warstwa 2" xmlns="http://www.w3.org/2000/svg" viewBox="0 0 65.55 42.8">
  <defs>
    <style>
      .cls-1 {
        fill: #fff;
      }
    </style>
  </defs>
  <g id="game-icon-v6-elemental-pixarts-store">
    <g id="game-icon-v6-elemental-pixarts-store_11">
      <path class="cls-1" d="M51.53,16.69c-9.59,8.65-21.23,14.87-33.72,18.65-7.71-9.44-4.77-23.29,5.5-29.15,10.27-5.86,23.69-1.64,28.21,10.49Z"/>
      <path class="cls-1" d="M.23,37.54c1.98-5.36,7.09-9.67,11.4-13.14.4,1.26.72,2.78.61,3.82-1.78,1.89-5.44,5.8-3.85,8.02,1.45,2.02,7.47,1.04,9.8.36,12.54-3.64,23.93-9.91,33.8-18.4,1.78-1.53,7.12-7.19,5.28-8.94-.4-.38-1.25-.88-2.03-1.35,1.79-.88,3.04-2.57,3.46-4.81,2.27-.23,5.45-.02,6.54,2.4.89,1.97-.33,4.85-1.74,6.58-8.24,10.1-21.47,18.06-33.18,23.68-7.39,3.55-19.62,8.13-27.59,6.42-2.12-.45-3.25-2.64-2.51-4.66Z"/>
      <path class="cls-1" d="M23.59,40.27c10.52-4.28,19.84-9.4,28.92-15.85-.55,6.82-4.38,12.51-9.29,15.49-6.23,3.78-13.51,3.79-19.64.35Z"/>
      <circle class="cls-1" cx="53.72" cy="3.17" r="3.17"/>
      <path class="cls-1" d="M51.49,7.84c-.61.24-2.69.75-3.3.22l-2.65-2.26,3.2-1.08,2.75,3.12Z"/>
    </g>
  </g>
</svg>