<?xml version="1.0" encoding="UTF-8"?>
<svg id="Warstwa_2" data-name="Warstwa 2" xmlns="http://www.w3.org/2000/svg" viewBox="0 0 51.03 55.26">
  <defs>
    <style>
      .cls-1 {
        fill: #fff;
      }
    </style>
  </defs>
  <g id="game-icon-v6-elemental-pixarts-store">
    <g id="game-icon-v6-elemental-pixarts-store_514">
      <path class="cls-1" d="M24.86,28.64l.91-2.33c.17-.42,1.42-.16,1.77-.44l.8-.63c3.95-3.08-3.38,3.13-.91,5.74l4.41,4.67,7.61-5.13c-2.03-5.16-5.01-9.4-10.11-11.98-.07,1.99.53,3.22,1.41,5.21l-3.32-2.25.06-4.11c.02-1.05-1.95-2.37-3.01-3.08l-8.01,8.47,8.38,5.86Z"/>
      <path class="cls-1" d="M2.2,35c-.47-.06-2.31,1.53-2.19,2.27,1.78,9.35,9.3,16.33,18.79,17.9.83.14,2.68.16,3.09-.41.34-.47.68-1.47.94-2.39-5.31-1.15-10.01-2.5-14.19-5.73l6.37-5.58-3.56-2.65,8.09-5.24-6.46-5.86-3.81,2.75,2.36,2.34-4.58,3.07c.33-1.73.79-2.06,1.76-3.04l-1.5-.83-3.73,2.81,5.53,11.79c-4.46-2.29-4.44-7.18-6.9-11.2Z"/>
      <path class="cls-1" d="M22.9,44.85c.22-.5,1.42-1.55,1.86-1.25l1.98,1.36,2.35-4.3-6.03-4.56-5.11,2.78,3.66,2.69-10.75,4.95c4.25,2.7,8.17,3.83,12.74,4.49,1.16-2.07,2.06-3.77,1.71-5.79l-1.8,2.96c-.18.2-1.71-.87-1.48-1.39l.86-1.93Z"/>
      <path class="cls-1" d="M25.3,12.83c6.36,5.05,11.9,8.23,15.17,16.4.63-.36,1.86-1.47,2.47-2.36-2.62-7.49-8.42-13.22-15.83-16.37-.55.43-1.39,1.58-1.81,2.34Z"/>
      <path class="cls-1" d="M14.75,26.72l14.64,12.4c5.38-1.81-10.91-14.01-13.92-14.2-.44-.03-1.21,1.39-.72,1.8Z"/>
      <path class="cls-1" d="M17.13,10.6c-.75,2.76-.71,5.79-.59,9.08,1.98-1.68,5.08-3.59,5.81-6.46.53-2.1-4.29-4.02-5.22-2.63Z"/>
      <path class="cls-1" d="M37.58,7.74c-1.31.98-2.73,2.89-3.74,4.56l3.84,3,3.15-3.91c.52-.65.44-2.55-.12-3.07-.56-.52-2.45-1.09-3.13-.58Z"/>
      <path class="cls-1" d="M39.19,17.16c.19.77,1.38,2.16,2.24,2.82,1.65-1.18,3.08-2.61,3.96-4.16.47-.83-.64-3.22-1.51-3.21-2.12.02-5.02,3.19-4.69,4.56Z"/>
      <path class="cls-1" d="M31.13,4.67c-.88.82-2.13,2.87-2.97,4.29l4.2,2.58,2.54-4.37c.34-.58-.67-2.19-1.29-2.46-.52-.22-2.08-.42-2.48-.05Z"/>
      <path class="cls-1" d="M18.88,8.28l4.62,2.46c1.36-1.79,3.12-3.8,2.23-6.29-2.74.66-5.08,2.14-6.85,3.83Z"/>
      <path class="cls-1" d="M42.4,21.55l1.88,4.1,2.27-1.73c.55-.42,1.21-1.77,1.32-2.47.11-.69-.88-2.44-1.58-2.42-1.23.03-2.98,1.51-3.88,2.52Z"/>
      <path class="cls-1" d="M40.56,3.16l-1.62,2.28c1.81,1.07,2.47,1.55,3.91,2.85,1.05-.84,2.55-3.66.91-5.32-.55-.55-2.75-.44-3.19.18Z"/>
      <path class="cls-1" d="M32.51,2.42l4.14,2.62c.69-.61,1.61-3.58.56-4.44-2.02-1.66-4.06.48-4.7,1.82Z"/>
      <path class="cls-1" d="M47.95,8.65c-1.06-1.05-3.66.79-3.42,1.82l2.88,3.49c1.11-1.05,2.13-3.74.54-5.32Z"/>
      <path class="cls-1" d="M48.27,15.68l-1.17,1.3,2.54,3.65c1.29-1.19,1.85-3.74.99-4.69-.41-.45-1.98-.68-2.36-.26Z"/>
    </g>
  </g>
</svg>