<?xml version="1.0" encoding="UTF-8"?>
<svg id="Warstwa_2" data-name="Warstwa 2" xmlns="http://www.w3.org/2000/svg" viewBox="0 0 52.3 53.95">
  <defs>
    <style>
      .cls-1 {
        fill: #fff;
      }
    </style>
  </defs>
  <g id="game-icon-v6-elemental-pixarts-store">
    <g id="game-icon-v6-elemental-pixarts-store_387">
      <path class="cls-1" d="M42.82,33.08c-9.9-3.74-4.75-7.62-8.13-12.23.23,2.29.66,3.82-.27,6.1l-9.45-8.97,4.82-1.73c-2.9-1.21-4.99,2.13-9.13-2.36-.85-.92-1.93-1.98-2.72-3.02,1.66-3.45,3.77-5.98,6.96-8.32l1.84,5.25-.21-6.97c.43-.91,2.75-1.11,3.6-.47l4.61,3.47c.78.59.8,2.18.48,3.25l1.82-.86,8.38,7.82c-.02.51-.97,1.53-1.42,1.87,3.38-.82,5.56,1.91,7.97,5.19,2.17,2.96-6.84,10.63-9.14,11.98ZM46.2,23.74c2.35.08,3.45-.33,4.39-1.17-1.89.11-3.83.19-4.67-.42l-2-3.32c.96,3.45,1.31,6.23-1.74,8.31l-.16,4.57c.64-2.3,1.27-3.9,2.65-5.46l1.52-2.51Z"/>
      <path class="cls-1" d="M8.33,52.46c-.57.69-1.32,1.44-1.83,1.49-.6.05-1.96-.75-2.4-1.21l2.54-4.63-4.06,3.32c-1.07-.71-2.37-2.5-2.58-3.99,1.8-1.89,3.84-4.55,5.99-5.6l6.07-2.96-3.97.4,9.3-9.21,7.95-8.07c.58.06,2.49,1.32,2.21,1.91l-2.04,4.23c.94-.71,2.01-1.86,3.09-3.09.48-.34,1.94,1.14,1.75,1.89l-9.76,10.82c-.42-.76-.14-2.03.11-3.42-1.94.89-1.63,3.72-1.98,5.62l-10.4,12.51Z"/>
      <path class="cls-1" d="M45.16,11.44l-5.13-4.88c0-.46,1.52-1.77,2.02-1.43,1.34.9,6.41,4.59,3.11,6.31Z"/>
    </g>
  </g>
</svg>