<?xml version="1.0" encoding="UTF-8"?>
<svg id="Warstwa_2" data-name="Warstwa 2" xmlns="http://www.w3.org/2000/svg" viewBox="0 0 60.16 61.17">
  <defs>
    <style>
      .cls-1 {
        fill: #fff;
      }
    </style>
  </defs>
  <g id="game-icon-v6-elemental-pixarts-store">
    <g id="game-icon-v6-elemental-pixarts-store_478">
      <path class="cls-1" d="M9.42,43.98L0,34.79l4.63,15.85c.6,2.05.88,3.48-.58,5.49l7.13,1.92,4.33-1.65-.58,3.58,9.37-2.21,6.08,3.39,8.59-3.71,4.63-4.91c-.56,1.86-1.09,2.96-1.9,4.82l4.34,1.9,10.9-3.28c-2.83-3.74-.58-4.39-.45-7.86l-4.24,3.05c-1.28.92-2.28,2.99-3.43,4.13.43-2.76,2.22-4.9,4.29-6.41l1.05-3.95.19,3.54c1.2-.47,2.9-1.59,3.21-2.93l2.6-11.12-7.51,7.09c-1.43,1.43-1.54,3.84-3.28,5.38l2.16-15.36c-.3-.99-1.32-2.8-1.35-3.78l-.33-10.37-3.39,10.45,1.4,6.41,1.51-1.3-3.99,8.06c.03-2.2.79-4.06,1.56-6.39l-1.39-5.92c1.38-4.27,2.45-8.19,3.4-12.39l-6.88,10.98c-1.61,2.57-2.4,5.68-3.74,8.38l-1.86-10.57-1.44-3.41L29.85,0c-1.75,5.28-1.74,10.69-3.79,15.38-.7,1.6-2.06,2.54-2.3,4.54l-2.01,16.68-3.82-11.03c-.3.19-1.31.51-1.46.21l-7.92-15.03c.15,5.14.66,9.99,1.26,14.97.28,2.39-1.56,10.84.29,14.59l5.07,10.24-4.81-4.78c-1.56,3.15-.76,5.98-.13,9.65-1.73-3.22-3.47-6.25-4.87-10.21l3.09,4.46.98-5.68ZM41.12,35.56l1.47,12.21c.09.78-.49,2.47-.61,3.15l-.73-2.38c-2.86,1.11-3.45,3.76-3.75,6.97l-.52-5.08,3.9-4.13-1-6.73c-4.69,5.26-5.55,6.84-8.73,13.1.38-1.97.59-4.95,1.97-6.74l8-10.37ZM27.58,21.28l1.36-9.15c.84,2.5-.84,6.5.11,10.6.66,2.86,1.81,5.55,2.84,8.32l2.7-3.59-3.38,8.69,1.01,6.75c-.81-2.13-1.43-4.11-2.17-6.48l1.07-3.52c-.67-3.28-2.16-6.13-3.73-9.01l-1.83-3.36,2.02.74ZM24.11,39.88c2.21,4.67,4.72,9.41,4.59,14.21l-4.44-10.18-2.16,6.72c-.29.9.21,2.73.17,4.29l-1.59-3.92,3.42-11.11ZM12.95,32.24c-1.97-2.76-1.68-6.57-2.07-10.5l3.05,9.85c.28.9,1.62,2.24,2.3,3.08l1-2.44c.21,5.04.27,9.33.18,14.61-1.36-1.36-.42-8.95-1.5-10.47l-2.95-4.13Z"/>
    </g>
  </g>
</svg>