<?xml version="1.0" encoding="UTF-8"?>
<svg id="Warstwa_2" data-name="Warstwa 2" xmlns="http://www.w3.org/2000/svg" viewBox="0 0 52.72 55.73">
  <defs>
    <style>
      .cls-1 {
        fill: #fff;
      }
    </style>
  </defs>
  <g id="game-icon-v6-elemental-pixarts-store">
    <g id="game-icon-v6-elemental-pixarts-store_548">
      <path class="cls-1" d="M3.65,32.47c2.17.84,4.32,1.79,5.68,3.18-.18,4.91.59,9.11,2.35,13.84l-7.38-3.39,6.85,9.62c20.1-.59,14.75,2.18,32.53-6.22l-12.44,1.25,8.59-7.89,6.78.5c2.6-7.39.42-4.11,6.1-8.95l-5.55,2.11-2.23,4.85-6.29-.54-11.28,7.12,3.5-8.59-9.2,8.63,10.32-16.04c.84-1.3,2.83-2.43,4.05-3.21l-1.88.24,3.83-6.24.96,4.31.37-4.9,4.27-6.61-12.71,2.32.93-3.3.99-4.66.73,3.2,4.93-8.71,2.49-4.4-11.55.03-2.49,5.73-2.94,7.77c-3.76-5,2.24-7.69,1.04-11.52-1.55,6.28-4.1,5.74-3.25,10.23,1.32,6.91-2.98,9.57-3.53,14.77l11.24-2.75-8.75,20.59-.51-11.15-4.65,13.31c-2.84-4.24-3.98-8.29-4.42-13.25l-5.34-2.87-1.17-4.9-4.63-3.4,2.96,4.29.69,5.59Z"/>
    </g>
  </g>
</svg>