<?xml version="1.0" encoding="UTF-8"?>
<svg id="Warstwa_2" data-name="Warstwa 2" xmlns="http://www.w3.org/2000/svg" viewBox="0 0 53.34 53.8">
  <defs>
    <style>
      .cls-1 {
        fill: #fff;
      }
    </style>
  </defs>
  <g id="game-icon-v6-elemental-pixarts-store">
    <g id="game-icon-v6-elemental-pixarts-store_252">
      <path class="cls-1" d="M17.47,33.67c-2.46-1.37-19.19-8.32-12.45-12.47l8.53,6.82c-1.77-2.41-3.88-4.43-6.08-6.73-2.61-2.72-1.95-6.29-.56-7.65.58-.57,2.56-1.15,3.15-.55,2.3,4.04,4.45,8.12,7.23,11.79l-5.44-12.63c-.92-2.14,1.99-4.85,3.87-5.58,1.03-.4,2.76.11,2.97,1.02,1.19,5.07,2.12,9.62,3.57,14.44l-1.49-15.34c.99-1.78,3.71-3.12,5.56-3.29,2.27-.21,5.24,1.04,6.3,3.16.27,5.68-1.46,10.97-1.81,16.8l4.13-16.16c1.52-1.81,4.91,0,5.86,1.77.81,1.5,1.25,2.91.57,4.38l-5.72,12.3c3.13-4.03,5.13-8.3,7.88-12.59.75-1.17,3.41.23,3.77,1.47,2.03,6.91-4.15,7.65-6.83,12.85l8.02-6.48c6.23,4.63-9.03,10.79-12.47,12.74-.95-4.67-4.44-7.87-8.81-8-4.6-.14-8.36,2.47-9.77,7.94Z"/>
      <path class="cls-1" d="M21.98,3.55c-3.92,2.92-7.62-.68-10.52,4.75-.7,1.32-2.02,2.5-3.41,3.06-5.76,2.3-1.87,6.46-4.76,9.37-5.79,5.84,10.32,11.49,13.22,14.35-1.14,1.46-12.76-6.57-13.68-7.24-3.07-2.22-3.06-6.19-.7-8.66,1.45-1.52-.85-7.54,5.02-9.21,1.34-.38,2.48-1.55,3.09-2.79,3.2-6.45,7.83-2.44,10.71-4.93,3.47-2.99,8.18-3.02,11.62.02,2.64,2.33,7.93-1.38,10.82,5.24,1.46,3.34,7.57,1.95,7.17,9.04-.07,1.15.61,2.55,1.33,3.54,1.82,2.47,1.05,6.08-1.52,7.93-.8.57-13.38,9.23-13.31,6.69,4.25-2.91,19.07-8.82,12.58-14.79-1.76-1.62,1.21-6.91-4.52-8.7-1.14-.36-2.4-1.5-2.89-2.58-2.62-5.77-6.82-2.24-10.25-4.93-3-2.36-6.76-2.58-10.01-.16Z"/>
      <path class="cls-1" d="M34.31,34.84c0,4.17-3.38,7.55-7.55,7.55s-7.55-3.38-7.55-7.55,3.38-7.55,7.55-7.55,7.55,3.38,7.55,7.55ZM26.23,32.01c0-1.16-.94-2.1-2.1-2.1s-2.1.94-2.1,2.1.94,2.1,2.1,2.1,2.1-.94,2.1-2.1Z"/>
      <path class="cls-1" d="M51.76,40.82c-1.49-.94-2.98-1.58-4.56-1.81l-11.53-1.66c3.04-.65,16.75.38,17.59,3.32s-5.73,3.05-6.21,3.26c-2.45,1.06-3.95,2.39-6.86,1.48-3.41-1.06-4.99,3.41-10.15,1.16-6.02-2.62-7.7,2.85-12.68-.29-1.72-1.08-3.48-1.31-5.47-.71-1.72.52-3.09-.83-4.7-1.42C4.9,43.3.09,43.8,0,41.01c-.11-3.34,15.08-4.28,17.87-3.65l-12.32,1.82c-1.33.2-2.55.88-3.75,1.77,2.71,2.14,2.39.17,6.99,2.5,3.63,1.84,4.69-1.11,8.88,1.27,1.8,1.02,3.69,1.11,5.61.22,5.9-2.72,6.91,2.53,12.95-.5,4.88-2.44,3.63,1.7,10.49-1.84,1.53-.79,3.32.27,5.04-1.79Z"/>
      <path class="cls-1" d="M27.22,53.78c-4.19.36-4.7-3.28-6.56-4.67l1.2,3.56c-3.36,1.5-7.72-2.69-9.09-5.82,3.68-1.42,6.04,3.59,10.71,1.06,3.89-2.1,8.88,1,8.89.97-.96,2.14-2.39,4.65-5.15,4.89Z"/>
      <path class="cls-1" d="M40.47,43c-3.93-1.11-5.06,1.74-9,.92,2.25-.92,4.02-1.1,4.99-2.76l-2.49-.67,1.44-1.98c4.27.37,8.4,1.21,12.32,2.42l-2.7,1.45c-1.4.75-2.91,1.08-4.56.61Z"/>
      <path class="cls-1" d="M21.43,44.08c-5.17,0-4.11-2.57-10.66-.73l-4.65-2.4c3-.71,13.17-4.49,13.38-.41l-2.72.87,4.65,2.67Z"/>
      <path class="cls-1" d="M40.71,47.19c-2.07,2.9-5.06,6.66-9.25,5.54l1.54-3.88,4.64-1.93c1.08-.45,1.98-.44,3.06.26Z"/>
      <path class="cls-1" d="M38.75,51.26l2.89-3.94c2.21-.55,3.56-1.15,6.01-2.24-1.92,2.98-4.24,6.28-8.9,6.18Z"/>
      <path class="cls-1" d="M11.8,47.27l3.05,4.08c-4.42.03-7.02-3.08-8.92-6.43,2.04,1.02,3.42,1.68,5.87,2.35Z"/>
    </g>
  </g>
</svg>