<?xml version="1.0" encoding="UTF-8"?>
<svg id="Warstwa_2" data-name="Warstwa 2" xmlns="http://www.w3.org/2000/svg" viewBox="0 0 39.31 53.35">
  <defs>
    <style>
      .cls-1 {
        fill: #fff;
      }
    </style>
  </defs>
  <g id="game-icon-v6-elemental-pixarts-store">
    <g id="game-icon-v6-elemental-pixarts-store_87">
      <path class="cls-1" d="M24.31,18.79c.88,2.44,4.01,5.37,4.05,9.09l-4.96-8.24c-.26-.43-1.84,0-1.71.41.65,2.07,1.59,4.3,1.44,6.57l-3.13-6.6c-.42-.57-2.47-.52-2.89-.15-.61,2.78-1.11,5.6-3.06,7.64l1.46-6.89c.07-.33-.04-1-.23-1.17-.2-.17-1.07.04-1.27.28l-4.24,5.27c.3-2.53,2.73-4.23,2.89-6.15.03-.34-1.45-.32-1.8.03-3.92,3.98-8.1,10.32-9.97,16.05-1.39,4.26-1.3,8.45,1.08,12.08,2.95,4.51,14.48,7.13,20.02,6.12,5.73-1.05,9.91-5.9,11.41-11.12.4,4.13-2.35,6.28-4.56,9.41,4.36-.67,7.38-4.07,7.9-8.38,1.2-9.96-4.51-17.96-10.76-24.53-.23-.24-1.79,0-1.69.26ZM4.1,41.95c.8,2.33,1.83,4.44,3.12,6.4-2.56-1.28-3.55-3.9-3.12-6.4ZM16.03,43.59c-5.25.67-8.07-4.74-7.79-9.16,3.38-.26,6.46,1.23,7.96,4.32.59,1.21.36,3.42-.18,4.83ZM16.8,33.65c-.02-1.62.67-3.35,2.15-4.39,2.59,1.75,3.68,6.3.61,8.06-1.85.3-2.74-2.38-2.76-3.66ZM18.49,47.13c-1.23-1.71.94-4.38,2.24-5.29,1.8-1.26,4.26-1.41,6.23-.24-.63,4.83-6.73,7.95-8.47,5.53ZM27.8,36.96c-.89.86-2.98,1.61-3.97.79-.68-.57.16-2.62.81-3.21.89-.8,2.19-1.32,4.28-1.22.13,1.16-.41,2.94-1.13,3.64Z"/>
      <path class="cls-1" d="M31.58,5.45c-.69-1.25-1.8-2.04-2.57-2.1-1.08-.07-2.9-.39-2.78,1.51.89.24,2.62.11,4.11-.06-.53,1.89-2.78,1.93-4.7,1.29l-2.75,5.79c.14-3.48,1.57-5.93,2.31-8.99.28-1.16-2.22-1.34-3.08-1.04-2.76.99-5.09,2.3-7.98,1.34l4.89-2.37c-2.3-1.36-5.93-1.16-7.35,1.46l4.34,11.83c.2.55,1.77.9,1.87.57l-.1-4.54,1.53,4.67c2.63.26,4.47-1.59,5.85-4.15l-.89,3.23c1.48-.67,2.32-1.84,3.31-3.15l3.97-5.29Z"/>
      <path class="cls-1" d="M5.98,5.08c-.03,2.63,2.45,4.28,3.9,6.13,1.42,1.81,2.86,3.59,5.54,3.03l-3.72-7.92-3.6.13c-.15,0-.77-.69-.62-.72l.81-.19c.97-.22,2.3-.61,2.41-1.3-1.28-1.23-4.27-.41-4.73.84Z"/>
      <path class="cls-1" d="M26.15,15.22c-1.5-.83-6.91,2.39-13.62-.2l-.98-.38c-.19-.08-.22.68-.09.84l.44.54c.23.28.45.48.35.61l-.47.61c6.48,2.03,5.82.7,12.01-.89l-3.53,2.12c1.38.19,8.36-1.89,5.89-3.27Z"/>
      <path class="cls-1" d="M27.06,14.25c-.44.33,1.07,1.43,1.6,1.16,5.62-2.8,9.33,5.22,10.65.72-1.65-.58-2.92-1.19-4.45-2.13-2.24-1.38-5.57-1.42-7.81.24Z"/>
      <path class="cls-1" d="M27.57,17.25c.97.75,4.2.05,6.01,4.2.49,1.13,1.06,2.17,1.87,3.52.42.7,2.41.57,2.39-.09-1.03-1.29-2.12-2.68-2.71-4.12-2.34-5.65-9.39-4.93-7.56-3.52Z"/>
      <path class="cls-1" d="M11.02,36.05c1.71,1.48,3.07,2.86,4.53,4.64-.46-2.22-1.92-4.45-4.53-4.64Z"/>
    </g>
  </g>
</svg>