<?xml version="1.0" encoding="UTF-8"?>
<svg id="Warstwa_2" data-name="Warstwa 2" xmlns="http://www.w3.org/2000/svg" viewBox="0 0 64.55 56.9">
  <defs>
    <style>
      .cls-1 {
        fill: #fff;
      }
    </style>
  </defs>
  <g id="game-icon-v6-elemental-pixarts-store">
    <g id="game-icon-v6-elemental-pixarts-store_344">
      <path class="cls-1" d="M36.29,22.9c2.31.99,5.56,2.11,7.77.65-2.62.13-4.96-.12-6.81-1.86l.37-2.36c-2.01,2.95-4.72,5.24-8.34,5.88-2.84.5-5.44-.41-7.43-2.39.23.88.67,1.61,1.3,2.52-3.69,2.78-8.97,2.34-12.46-.83,2.77-.13,5.19-.19,7.64-1.04l-18.33-.17,2.58-1.27c-.18-2.34.28-3.33,2.61-3.98.15-1.88.96-3.6,2.34-4.51,1.69-1.1,3.62-1.34,5.54-.61-.88.81-1.87,1.52-1.99,2.78,1.68-1.7,3.53-2.23,5.7-2.44-1.34-.56-2.51-.86-3.46-1.6.09-2.18,1.28-4.22,2.78-5.28,1.97-1.39,4.07-1.72,6.37-1.12l-.1,2.29c-1.09.72-1.92,1.59-2,2.92,2-2.41,4.85-3.1,7.99-2.11-1.21-1.42-2.95-1.69-4.83-1.41.24-1.55.88-2.89,1.97-4.02,3.09-3.21,8.02-3.94,11.81-1.46,2.93,1.92,4.58,5.29,4.56,8.81-1.89-.22-3.52.02-4.89,1.21,3.67-.53,6.48-.12,8.08,3.38.29-1.79-.84-3.27-2.28-4.22l-.13-3.92c1.98-.88,4.31-.83,6.11.57,1.58,1.23,2.57,3.58,2.12,5.68l-2.14,1.11c1.28-.18,2.46-.43,3.61-.2,1.78.36,2.55,1.97,2.29,3.53.99-.01,1.82.1,2.42.62.5.43.73,1.27.85,2.14,1.31-.25,2.18.6,2.6,1.78l4.05,1.36-13.51.06.93-2.17c-2.74,3.29-6.49,5.7-10.97,5.51-1.81-.08-3.63-.56-5.46-.82-1.43,1.59-2.75,3.05-4.45,4.27l2.79-4.22c.14-.26.16-1.1.37-1.29l2.02-1.79Z"/>
      <path class="cls-1" d="M15.82,56.9l11.44-21.16-9.16,2.8,6.23-12.33c2.41.69,4.7.81,7.21-.08l-5.19,6.83,10.44-2.66-20.98,26.6Z"/>
      <path class="cls-1" d="M40.06,44.97l5.98-11.09-6.13,1.81,4.11-7.75c2.36-.54,4.15-1.81,6.28-3.05l-4.99,7.1,6.51-1.57-11.76,14.55Z"/>
      <path class="cls-1" d="M41.02,38.31c-2.3,1.97-4.74,3.64-7.33,5.31l-.14-3.36c-3.31,2.93-5.8,6.41-9.39,9.23l14.5-17.39c-1,3.08-3.18,5.64-3.96,9.21l6.31-3Z"/>
      <polygon class="cls-1" points="18.93 31.37 11.12 41.18 14.85 33.75 10.66 34.88 14.09 28.08 17.16 28.52 14.49 32.24 18.93 31.37"/>
      <polygon class="cls-1" points="18.78 43.36 9.33 46.47 17.9 42.08 22.11 39.64 16.55 50.8 18.78 43.36"/>
      <polygon class="cls-1" points="49.77 28.97 52.13 24.8 53.79 24.67 49.77 28.97"/>
    </g>
  </g>
</svg>