<?xml version="1.0" encoding="UTF-8"?>
<svg id="Warstwa_2" data-name="Warstwa 2" xmlns="http://www.w3.org/2000/svg" viewBox="0 0 50.46 61.88">
  <defs>
    <style>
      .cls-1 {
        fill: #fff;
      }
    </style>
  </defs>
  <g id="game-icon-v6-elemental-pixarts-store">
    <g id="game-icon-v6-elemental-pixarts-store_498">
      <path class="cls-1" d="M24.85,54.49c.38-1.41,1.05-3.57.66-4.66l-1.67-4.61c3.18,3.44,3.29,4.44,3.17,8.65,3.21-2.46,5.86-4.9,8.5-7.9-1-3.76-3.49-5.21-2.54-9.23,1.31-5.52-1.97-8.33-6.27-10.56-.97,2.35-1.52,4.3-2.58,6.25-.89,1.64-3.51,2.73-3.9,4.57l-1.2,5.68c-.35,1.64-1.79,2.89-2.82,4.44,2.48,3,5.4,5.52,8.65,7.38Z"/>
      <path class="cls-1" d="M14.74,12.4l3.03,4.82c-.36,3.19.13,5.23,2.33,7.4,1.42,1.41,2.2,4,3.5,5.61,1.08-2.02,1.82-4.09,3.06-5.63,1.56-1.93,5.06-2.32,6.28-4.76,1.16-2.32,1.45-5.48,2.06-7.81l-9.07-4.25-1.5,9.02c-.22-3.03-.09-5.93.08-8.93l-9.77,4.53Z"/>
      <path class="cls-1" d="M25.33,61.88l7.85-5.34,1.01,3.56c1.1-4.29,2.54-8.02,6.07-10.61l.92,5.23c.99-3.36.95-6.53,2.13-9.52,1.57-4,3.94-7.54,4.74-11.86l1.69-9.13c.04-.2-.03-.85-.05-.98-.01-.13-.46-.08-.61-.04-.76.89-1.95,1.7-3.2,2.21-1.08,7.03-3.17,13.9-7.14,19.79l-.16,5.09-1.32-3.29c-3.65,4.41-7.25,7.62-12.06,10.54l-7.18-5.14c-1.45,5.59,3.37,6.77,7.3,9.51Z"/>
      <path class="cls-1" d="M1.65,27.49l1.61-2.73,1.23-.26-.62-12.28c8.13-.83,14.98-3.44,21.41-7.6,3.2,2.09,6.51,3.74,9.58,4.82.89-.67,1.74-1.14,2.66-1.5l.66-1c-4.72-1.86-8.86-3.91-13-6.95-4.86,3.81-10.28,6.18-16.18,7.62l1.72,2.67-3.32-2.27L.2,8.99c-.5,4.46-.01,8.85.76,13.26.29,1.64-.26,3.42.69,5.24Z"/>
      <path class="cls-1" d="M23.25,31.6l-2.86-5.12c-1-1.79-2.86-3.44-5.01-3.53l-2.87,1.54c-1.88-1.51-3.72-2.72-6.15-2.84.5,6.3,1.78,12.23,4.51,17.71,2.52-2.32,4.91-3.17,8.05-3.69l4.33-4.07Z"/>
      <path class="cls-1" d="M44.47,14.13c-3.54,2.33-6.82,4.22-9.99,6.58l-6.6,4.91c1.62,1,3.5,2.18,5.43,3.22,1.35.73,4.86,1.4,6.06.43,1.37-1.12,2.68-2.32,4.22-3.29.65-3.73.86-7.82.9-11.84Z"/>
      <path class="cls-1" d="M1.83,29.27c.81,5.6,2.47,10.59,5.33,15.25l.71-.68c.48,1.44,1.66,3.06,1.95,4.4l2.82,12.6,1.48-6.95,2.72,1.87c.05-1.42-.02-3.55-.33-5.03-7.93-8.82-9.17-13.01-12.11-24.92-1.13,1.05-1.88,2.26-2.58,3.46Z"/>
      <path class="cls-1" d="M5.9,14.19l.48,6.56,6.45,2.64c1.11-.63,2.36-1.17,4.06-1.56l-.53-4.24-3.11-4.91-7.35,1.51Z"/>
      <path class="cls-1" d="M36.82,10.25l9.87,2.13-.36,11.54c5.42-4.4,3.99-8.46,3.89-14.88l-6.94-.98c-2.38-.34-5.1-.47-6.46,2.2Z"/>
      <path class="cls-1" d="M36.5,44.4c3.86-5.17,5.77-10.53,6.7-17.06l-4.13,3.05,2.81,2.58-3.94-1.99c-1.09-.55-3.22-.43-4.53-.63,2.65,7.38-2.11,5.95,3.1,14.05Z"/>
      <path class="cls-1" d="M18.72,37.46c-2.9,0-5.28.95-7.43,3.01l4.03,5.82c3.94-4.71,2.82-3.36,3.4-8.83Z"/>
      <polygon class="cls-1" points="34.52 19.02 43.11 14.04 36.14 12.3 34.52 19.02"/>
    </g>
  </g>
</svg>