<?xml version="1.0" encoding="UTF-8"?>
<svg id="Warstwa_2" data-name="Warstwa 2" xmlns="http://www.w3.org/2000/svg" viewBox="0 0 60.14 50.17">
  <defs>
    <style>
      .cls-1 {
        fill: #fff;
      }
    </style>
  </defs>
  <g id="game-icon-v6-elemental-pixarts-store">
    <g id="game-icon-v6-elemental-pixarts-store_416">
      <polygon class="cls-1" points="51.2 29.2 51.12 25.72 45.51 26.14 53.7 22.15 53.54 25.55 60.14 24.73 51.2 29.2"/>
      <path class="cls-1" d="M9.12,29.13L0,24.64l6.67.86-.24-3.21c2.97,1.19,5.25,2.18,8.22,3.84l-5.68-.46.16,3.46Z"/>
      <path class="cls-1" d="M14.05,18.95l-5.94-4.85,2.32-1.27-3.12-4.75c2.53,1.82,4.25,3.4,6.58,5.58l-2.32,1.11,2.48,4.18Z"/>
      <path class="cls-1" d="M13.76,38.68l-5.93,4.87c.62-1.9,1.41-2.75,2.55-4.2l-2.3-1.3,5.7-4.28-2.13,3.71,2.12,1.21Z"/>
      <path class="cls-1" d="M52.25,43.34l-5.72-4.67,2.21-1.29-2.66-3.94c2.14,1.39,3.94,2.91,5.78,4.56l-1.73,1.39,2.12,3.95Z"/>
      <path class="cls-1" d="M52.07,13.94l-5.07,4.08,1.5-3.03-1.74-1.43c1.53-1.79,3.18-3.54,5.67-5.03l-2.47,4.16,2.1,1.25Z"/>
      <g>
        <path class="cls-1" d="M39.82,50.17l-18.89-.05c-1.37,0-3.04-1.1-3.04-2.63l-.05-40.01c0-1.31,1.36-2.67,2.47-2.71l4.53-.18.64-4.4c2.96-.23,5.95-.24,8.92-.04.63,1.05.81,2.52,1.01,4.37l3.29.2c.78.05,2.24.32,2.74.74.5.42.9,1.75.9,2.59l-.03,39.09c0,1.14-1.08,3.04-2.48,3.04ZM39.82,7.35h-19.46s0,40.3,0,40.3h19.46s0-40.3,0-40.3Z"/>
        <path class="cls-1" d="M22.25,9.27h15.72s-.02,36.5-.02,36.5h-15.72s.02-36.5.02-36.5ZM27.24,38.4l8.71-13.18-5.29-.13,2.35-9.95-9.06,13.67,5.48.47c-.99,3.5-1.74,5.83-2.19,9.12Z"/>
      </g>
    </g>
  </g>
</svg>