<?xml version="1.0" encoding="UTF-8"?>
<svg id="Warstwa_2" data-name="Warstwa 2" xmlns="http://www.w3.org/2000/svg" viewBox="0 0 52.69 53.29">
  <defs>
    <style>
      .cls-1 {
        fill: #fff;
      }
    </style>
  </defs>
  <g id="game-icon-v6-elemental-pixarts-store">
    <g id="game-icon-v6-elemental-pixarts-store_521">
      <path class="cls-1" d="M24.13,9.88l4.28-2.17c.42-.21,1.67-.25,1.84.17.13.34,0,1.17-.23,1.54l-8.74,13.7,9.03.24-5.15,7.87-9.97,15.24c-.23.35-1.22,1.04-1.3.72-.07-.24-.31-1.13-.3-1.5l.11-7.17,5.49,1.75c-2.47-1.8-5.04-2.26-5.49-5.22-.15,2.27-.49,2.95-.91,4.33-.43,1.41.21,4.04-.64,5.81-.42.88.44,2.78.86,3.76l-1.81,4.35,10.77-10.99,6.75-2.48c.57.31,1.12,2.16,1.18,3.12,1.06-1.1.26-4.02-1.47-4.35-1.57.88-3.06,2.07-5.42,2.31,5.48-6.34,10.95-12.2,16.6-18.1,1.9,1.89,4.24,2.62,6.37,1.53l.64-2.82,6.07-3.24c-.85-.76-6.93,2.72-7.08,2.94-.31.45-.53,2.1-.96,2.44-.95.76-3.76-.38-4.69-1l4.95-5.61-11.17-.13,1.28-5.23.5,3.46c5.93-5.35,2.3-4.58,5.85-7.65,2.53-2.19,4.5-4.43,6.94-7.4l-12.23.04-4.14,6.34c-2.29.05-3.79.53-5.86,1.33l-3.07-2.81,1.56,3.61c-2.43.64-3.87.92-5.48,1.76,1.4.1,3.95.08,5.03-.47Z"/>
      <path class="cls-1" d="M9.01,13.63l-7.26.34,9.55,12.22-2.14,3.18,1.62-1.38c.31-.27,1.28-.34,1.62.04l5.41,6.05-6.78-15.81,6.56.16L9.16,0,0,.22l4.93,7.39,4.08,6.02Z"/>
      <path class="cls-1" d="M39.37,30.53c-.28-2.11-1.02-3.86-2.97-3.24l2.16,4.65,5.87.03c1.43,2.17,2.56,3.85,3.99,5.15l-3.11-6.08-5.95-.51Z"/>
    </g>
  </g>
</svg>