<?xml version="1.0" encoding="UTF-8"?>
<svg id="Warstwa_2" data-name="Warstwa 2" xmlns="http://www.w3.org/2000/svg" viewBox="0 0 52.1 58.38">
  <defs>
    <style>
      .cls-1 {
        fill: #fff;
      }
    </style>
  </defs>
  <g id="game-icon-v6-elemental-pixarts-store">
    <g id="game-icon-v6-elemental-pixarts-store_462">
      <path class="cls-1" d="M52.1,43.85l-8.23-8.76-.45,1.97-2.21-1.59,1.55-.53-8.38-2.82,4.58-2-.05,1.1c-.01.24,1.04.23,1.27.14l6.29-2.5-6.71-2.54-1.28,1.23-4.17-1.77,8.44-2.79-1.14-.69c-.11-.07.16-.29.28-.36l.63-.36c.43-.23.91-.63.98-.37l.44,1.5,8.1-8.59-11.74,2.68c2.07,3.02,5.22.1,6.76.1-3.62,3.54-5.69,4.08-10.7,5.98l6.16-4.31c-.76-.43-1.67-.16-2.63.16l-.15-1.49-6.53,5.98.25-6.61-5.8,3.38,1.8-8.21c-.26.18-1.21,1.26-1.26.93l-.25-1.62c-.04-.27.82,0,1.61.03-1.02-3.87-2.01-7.25-3.49-11.11l-3.43,11.04,1.67.53c.27.08-.25.96-.42,1.3l-1.12-.94,1.76,8.09-3.48-2.35c.18-.91.09-2.03-.61-2.6l-4.46-3.66c.45,2.68.04,5.23,2.1,7.84l.12-4.17,2.67,2.39-2.2-.6.42,6.37-3.9-3.11c-.89-.71-1.53-1.61-2.5-2.74l-.18,1.2c-1.03-.33-2.09-.44-3.07-.23l5.52,4.07c-3.24-.99-7.59-2.75-9.52-5.35l3.65,1.21c.73-.26,1.89-.95,2.7-1.56L.08,13.99l8.14,8.73.3-1.93,2.25,1.1-1.62.94,8.46,2.98-4.4,2.11-.23-1.2c-.05-.25-.99-.21-1.28-.1l-5.93,2.27,7.13,2.81.31-1.63c1.36.57,2.66,1.19,4.42,2.17l-8.71,2.68,2.05.39c-.61.4-1.57,1.21-2.36,1.94l-.34-2.04L0,43.86l11.75-2.63-1.31-1.23,2.13-1.03-.05,1.44,6.41-5.68c-.9,6.62,1.65,6.72-.93,8.33l.26-4.04c-.72.4-1.53,1.1-1.59,1.56l-.87,5.99,5.91-5.12c-.78-.15-1.09-.16-2.05-.19l4.82-3.35c-.23,3.07-1.26,5.88-2.05,8.48l3.64,11.99,3.69-12.08-2.2.76.56-2.29.59.78c.07.1.42-.32.39-.45l-1.44-7.17,4.9,3.24-2.01.21c2.1,2.18,3.57,3.48,5.86,5.24l-.87-5.7c-.1-.67-.79-1.42-1.65-1.89l.25,3.9-1.16-.9c-.29-.23.31-1.15.3-1.57l-.05-5.7,6.38,5.69.09-1.33,1.66.79-.65,1.34,11.38,2.59ZM10.09,39.18c-1.38.54-2.52.96-4.35,1.45,1.03-1.31,2.24-2.39,3.63-2.97l6.11-2.53-5.4,4.04ZM31.96,19.06l-.61,5.44-3.89,2.41c-.64-5.16.08-4.95,4.5-7.85ZM14.49,28.99c4.71-2.56,4.77-2.93,9.07-.02l-3.9,2.43-5.17-2.41ZM24.75,35.85l-4.45,3.16.35-5.36,4.16-2.57-.05,4.76ZM24.82,26.83l-4.05-2.31-.54-5.59c3.98,3.01,5.2,2.11,4.59,7.89ZM26.09,5.3c1.4,5.28.63,7.32,0,12.67l-.8-7.59c-.14-1.32.59-3.54.81-5.07ZM26.09,52.82c-1.21-5.29-.76-6.47.03-12.28l.79,7.28c.15,1.35-.51,3.41-.81,5ZM27.38,31.07l4.02,2.55.41,5.37c-4.23-3.18-5.1-2.49-4.43-7.92ZM32.86,31.33l-4.24-2.27c4.2-3.44,4.17-2.21,9.01-.1l-4.76,2.37ZM36.7,35.16l6.6,2.81c1.35.57,2.78,2.06,4.01,3.09-4.18-.98-7.38-3.19-10.61-5.9Z"/>
      <path class="cls-1" d="M34.79,19.05c.79-2.74,1.21-4.76,1.55-7.62l-4.12,3.24c-.78.61-1.28,1.83-1.17,2.93l3.19-2.52c.03,1.71-1.29,3.04.54,3.97Z"/>
    </g>
  </g>
</svg>