<?xml version="1.0" encoding="UTF-8"?>
<svg id="Warstwa_2" data-name="Warstwa 2" xmlns="http://www.w3.org/2000/svg" viewBox="0 0 54.15 52.67">
  <defs>
    <style>
      .cls-1 {
        fill: #fff;
      }
    </style>
  </defs>
  <g id="game-icon-v6-elemental-pixarts-store">
    <g id="game-icon-v6-elemental-pixarts-store_351">
      <path class="cls-1" d="M17.96,29.26L0,26.34l17.71-2.82c.04-1.98-1.57-2.63-3.34-3.44,2.89-.66,5.41.93,7.6,3.17.41-3.63-1.96-5.92-4.87-7.63,4.74-.31,8.47,2.48,10.51,6.68.23-5.12-2.95-9.44-8.05-11.62,6.95-.23,12.84,4.13,15.25,10.74-.1-7.62-5.06-13.74-12.35-16.09,9.81-.29,18.19,5.91,21.31,14.94C43.41,10.36,36.87,3.01,28.1,0c10.85-.21,20.22,6.81,23.98,16,4.21,10.31,1.91,21.68-5.96,29.35-5.11,4.98-11.7,7.87-18.9,7.23,9.5-2.24,16.14-10.75,16.56-20.4-3.31,9.34-11.39,15.49-21.38,15.23,6.95-2.33,11.92-8.19,12.42-15.77-3.04,6.36-8.78,10.79-15.73,10.43,5-2.1,8.51-5.96,8.55-11.29-2.31,3.64-5.82,6.65-10.56,6.21,2.95-1.79,5.43-4.19,4.77-7.46-2.06,1.94-4.21,3.32-7,3.2,1.31-1.04,2.02-1.25,3.11-3.47Z"/>
    </g>
  </g>
</svg>