<?xml version="1.0" encoding="UTF-8"?>
<svg id="Warstwa_2" data-name="Warstwa 2" xmlns="http://www.w3.org/2000/svg" viewBox="0 0 53.59 55.76">
  <defs>
    <style>
      .cls-1 {
        fill: #fff;
      }
    </style>
  </defs>
  <g id="game-icon-v6-elemental-pixarts-store">
    <g id="game-icon-v6-elemental-pixarts-store_509">
      <path class="cls-1" d="M44.09,51.81l-12.58.42,3.63-9.46-9.68,7.96,14.35-31.19-10.85,2.42,6.54-15.52c3.17-.17,5.2-.66,8.27-1.66l-.59,4.18c1.3-1.55,1.86-2.97,2.62-4.74l4.36-.69,3.43-3.54L0,.19c4.76,4.72,12.78,3.64,12.02,9.12,1.23.77,3.31,2.11,4.22,2.98-3.42,4.47-2.04,3.45-.71,8.09.09-1.56-.62-3.91.03-4.59l3.18-3.36-3.18-4.12c-.53-.68.37-2.81,1.09-2.7,1.87,1.64,3.33,2.76,6.2,4l-4.9,21.73,10.36-2.88-4.36,22.69-5.31-9.56.96,8.62-5.98-4.13,2.56,6.45-10.26-1.92,8.27,4.99c15.19-.28,15.96,1.74,29.92-3.81Z"/>
      <path class="cls-1" d="M37.87,47.28c2.48,1.78,6.21-1.21,8.23-3.56-3.15.29-5.54,1.71-8.23,3.56Z"/>
      <rect class="cls-1" x="4.73" y="39.27" width="1.47" height="6.85" transform="translate(-32.17 21.82) rotate(-53.69)"/>
    </g>
  </g>
</svg>