<?xml version="1.0" encoding="UTF-8"?>
<svg id="Warstwa_2" data-name="Warstwa 2" xmlns="http://www.w3.org/2000/svg" viewBox="0 0 48.02 48.22">
  <defs>
    <style>
      .cls-1 {
        fill: #fff;
      }
    </style>
  </defs>
  <g id="game-icon-v6-elemental-pixarts-store">
    <g id="game-icon-v6-elemental-pixarts-store_157">
      <path class="cls-1" d="M22.05,12.34c.59,1.5.78,3.39.34,4.97-1.84-1.98-3.39-3.58-5.77-3.69l-2.96,9.35c4.35-.78,3.51-2.06,5.06-6.22l1.14,3.32,3.14-.34c.7-.08,1.76-1.07,2.38-1.41,1.83-.99,2.99-1.89,3.97-3.77.81,4.04-7.01,6.39-9.53,7.33l-9.03,3.38c-4.34,1.62-7.45,5.26-8.66,9.51l-2.07.43,2.05,1.63c1.3,6.97,4.15,5.96,6.41,11.29l3.16-.19-1.37-3.5c.04-.2.18-.95.23-1.21.03-.16-.45-.05-.61.04l-.63.35c-.96-.75-2.46-2.28-2.86-3.29-.09-.23.49-1.52.26-1.44-3.07,1.16-2.29-7.66,1.39-9.01.28-.1,1.14-.3,1.38-.36.24-.06-.21-.7-.38-1.19,1.72-1.05,4.87-3.24,6.72-1.68.8-1.09,1.86-1.98,3.16-2.3,5.23-1.29,9.08-4.06,13-8.09-.35,1.15-.83,1.88-1.66,3.17.48,1.67,1.44,3.82,2.35,5.15l1.46-.6c.27-.11.6.69.63.98.15,1.44-5.07.92-8.21-1.67-.33-.27-.86-.54-1.12-.63-.2-.07-.74.77-.61.94.71.93,2.56,2.32,3.74,2.98.12.36.07.91.29.89,3.8-.35,7.12.8,11.06-.76.48-.19,1.26-.69,1.41-.39l.68,1.27c.17-.63.44-2.06.89-2.63l2.71-3.5,1.5.62c-2.09-3.15,2.24-3.65.48-7.57-1.44,1.6-2.35,2.17-4.13,1.51l1.26,2.08c-1.16,1.88-2.39,3.64-3.72,5.28l-1.54-.49c1.07,2.3-3.12,2.56-4.13,2.65-1.38-5.9-2.01-5.73-3.56-12.11-.76-3.1-5.21-3.03-5.69-4.5-.48-1.46,1.42-1.71.81-5.05-.22-1.19-1.1-2.31-1.98-2.52-1.14-.27-2.66.14-3.1,1.07-1.09,2.28-.52,4.09.86,6.29-.75.67-1.67,1.23-3.05,2.07l2.45,1.58Z"/>
      <path class="cls-1" d="M8.59,31.18c-.37-.11-1.21.5-1.3.93-.41,1.95,2.61,2.11,2.78,5.89l1.22-.8c.27-.18.97.24,1.45.52,4.17,2.4,11.74,2.21,11.27,3.13.09-.18.47-.98.67-1.02l6.37-1.26c.26-.05.88.93,1.03,1.15.15.22.61-1.25.87-1.33,2.11-.67,6.11.92,7.53,3.39l-1.02,1.86,2.22-.09.8,4.5,2.75-.03c1.43-2.1-1.91-7.03-2.79-8.69l.58-1.82c-1.4.6-2.05.9-3.07.16-3.5-2.52-3.16-.19-4.36-2.95-.85.72-1.72.98-2.92,1.24l-7.39,1.57-1.04-.67c-.16-.1-.74.74-.98.79-2.21.47-5.8-.11-7.83-1.32l.35-1.16c-3.33,1.24-5.25-2.19-7.19-3.99Z"/>
      <path class="cls-1" d="M23.68,24.32l-4.27,1.33c-.57,3.71-.88,6.78-1.08,10.74l4.1.45,1.62-6.54,1.74,6.22,4.03-1.08-.62-6.94-1.71.52.11-1.65-3.91-3.03Z"/>
      <path class="cls-1" d="M2.98,11.32l.99-1.65,3.43,1.24c.78.28,1.79,1.04,2.31,1.52,1.24-1.16,4.4-.31,4.51.12l.29,1.19,1.09-1.24c2.66.11,4.88,1.3,6.34,3.24.72-5.2-9.28-5.44-9.32-6.07l-.09-1.41c-2.08,2.45-7.21-.21-8.62-2.16l.72-1.86c-1.01.19-2.11.56-2.45.19L.27,2.26c-1.22,6.83,1.97,3,2.7,9.05Z"/>
      <path class="cls-1" d="M31.72,10.48c1.13,4.13,4.85.62,6.71,3.19l.39-1.26c2.39-.88,4.29-2.81,4.92-5.38l1.49-.09c-.75-1-1.3-2.41-.87-3.63.35-.99,1.44-1.93,2.57-2.88-.72-.17-2.71-.42-3.46.11-2.43,1.71-1.43,5.66-2.33,5.6l-1.4-.1,1.14,1.88c-.91,1.22-2.83,2.51-3.98,2.35-.14-.02-.52-.72-.62-.82-.09-.09-.29-.1-.33.03l-.32,1.11-3.91-.11Z"/>
      <path class="cls-1" d="M13.6,17.99c-1.46-.28-2.46-1.14-2.91-2.51l-.32,2.1c-6.31,1.14-3.49,4.28-8.05,4.82l1.72,1.22.46,4.22c2.9-1.14,1.21-4.4,2.53-4.44l1.41-.05-1.28-1.31c3.44-5.25,6.97-.12,6.43-4.03Z"/>
      <polygon class="cls-1" points="30.73 48.08 29.99 39.95 26.3 40.82 27.62 48.22 30.73 48.08"/>
      <path class="cls-1" d="M21.8,41.3l-3.79-.5-.33,7.34c.83.09,2.29.08,3-.12l1.11-6.72Z"/>
      <path class="cls-1" d="M11.2,4.05c2.11-1.71,4.48,1.64,6.04,3.21-.34-1.52-.99-2.78-1.83-4.09l-5.7-1.9c-.92-.31-1.78-2.03-3.1-.89l.54,1.81c1.49.06,3.2.84,4.04,1.85Z"/>
      <path class="cls-1" d="M34.9.08c-.21-.13-.89.28-1,.52l-.97,2.12c.59,1.35-.37,3.52-2.17,3.57l.54,1.75c3.02-1.41,5.91-6.46,3.6-7.95Z"/>
      <path class="cls-1" d="M14.41,29.33c.53,1.08.74,1.35.84.5.08-.88-.02-2.16-.44-2.47s-1.47-.11-2,.12c-1.06.46-.58,3.37.51,4.17l1.1-2.32Z"/>
      <path class="cls-1" d="M34.9,31.36c1.05-.16,1.63-2.22.84-2.77-.54-.37-1.99-.15-2.68.03l.66,2.32.85-1.75.33,2.16Z"/>
    </g>
  </g>
</svg>