<?xml version="1.0" encoding="UTF-8"?>
<svg id="Warstwa_2" data-name="Warstwa 2" xmlns="http://www.w3.org/2000/svg" viewBox="0 0 51.29 51.83">
  <defs>
    <style>
      .cls-1 {
        fill: #fff;
      }
    </style>
  </defs>
  <g id="game-icon-v6-elemental-pixarts-store">
    <g id="game-icon-v6-elemental-pixarts-store_302">
      <path class="cls-1" d="M25.59,49.25l-3.06-17.48-8.4,5.68c1.66-3.17,3.53-5.59,5.72-8.59L1.79,25.97l18.03-2.95c-2.11-2.99-3.99-5.47-5.84-8.8l8.55,5.97,3.04-18.07,2.94,18.05,8.67-5.8-5.98,8.6,17.99,3.01-17.86,2.87,5.64,8.48c-3.31-1.87-5.54-3.56-8.42-5.63l-2.97,17.56ZM25.58,38.94l1.7-11.45,11.18-1.48-11.3-1.56-1.51-11.46-1.77,11.49c-4.06.41-7.44.74-11.36,1.54l11.38,1.53,1.67,11.39ZM22.06,21.23l-3.84-2.46,2.53,3.74c.26.39,1.31.59,1.48.23.14-.29.08-1.34-.17-1.5ZM32.48,19.01c-2.33,1.45-4.11,1.88-3.52,3.87.33,1.09,3.34-3.01,3.52-3.87ZM22.02,30.77c.35-.23.3-1.51-.02-1.58s-1.1.04-1.29.32l-2.61,3.83,3.91-2.58ZM32.5,32.86l-2.89-4.19-.94.88c-.17.16.26,1.03.47,1.16l3.35,2.15Z"/>
      <path class="cls-1" d="M48.19,24.13c-1.02-11.35-9.4-19.73-20.46-20.88-.69-.57-1.05-2.23-.86-3.23,13.27.86,23.54,11.19,24.42,24.6-.93.06-1.91-.1-3.09-.5Z"/>
      <path class="cls-1" d="M26.94,51.83c-.03-1.12.14-2.1.53-3.18,11.23-1,19.75-9.81,20.73-20.99.86-.46,1.97-.61,3.09-.46-.82,13.27-11.06,23.59-24.35,24.63Z"/>
      <path class="cls-1" d="M23.75,3.23C12.48,4.16,3.92,12.84,3.16,23.91c-.9.46-1.87.63-3.14.66C.64,11.47,10.84.9,24.27,0c0,.95-.17,1.89-.52,3.23Z"/>
      <path class="cls-1" d="M23.45,48.62c.63.91.86,1.97.87,3.17C11.07,50.9.61,40.5,0,27.2c1.05-.04,2.1.16,3.06.64.88,10.85,9.12,19.67,20.38,20.77Z"/>
      <path class="cls-1" d="M44.15,23.9c-2.13-8.76-7.21-13.96-16.31-16.65,8.4.09,16.52,7.77,16.31,16.65Z"/>
      <path class="cls-1" d="M7.02,27.94c3.77,15.3,15.91,15.57,16.02,16.51.02.15.04.36-.1.39s-.87.04-1.18-.03c-7.21-1.65-15.14-8.39-14.73-16.88Z"/>
      <path class="cls-1" d="M22.83,7.85c-8.68,1.59-13.38,7.55-15.72,16.04-.32-8.63,7.09-15.34,15.43-17.06.29-.05.43.64.29,1.01Z"/>
      <path class="cls-1" d="M28.13,44.57c8.18-2.45,13.87-7.7,16.08-16.74.22,8.3-7.42,16.5-16.08,16.74Z"/>
    </g>
  </g>
</svg>