<?xml version="1.0" encoding="UTF-8"?>
<svg id="Warstwa_2" data-name="Warstwa 2" xmlns="http://www.w3.org/2000/svg" viewBox="0 0 67.91 35.43">
  <defs>
    <style>
      .cls-1 {
        fill: #fff;
      }
    </style>
  </defs>
  <g id="game-icon-v6-elemental-pixarts-store">
    <g id="game-icon-v6-elemental-pixarts-store_428">
      <path class="cls-1" d="M33.87,22.63l-18.71-2.22.16-3.13,12.12,1.77-.13-1.46c-.03-.34.82-.66,1.23-.7l6.52-.62-.87-3.73,18.38,2.08c.43.8.34,2.95-.31,3.17l-11.89-1.53-.21,2-7.08.57.8,3.79Z"/>
      <rect class="cls-1" x="-2.47" y="13.17" width="13.8" height="8.82" transform="translate(-13.16 21.96) rotate(-89.83)"/>
      <rect class="cls-1" x="59.14" y="10.72" width="8.78" height="13.8"/>
      <path class="cls-1" d="M38.74,34.79c-2.5,2.44-4.49-3.1-10.88-.5-1.55.63-3.86-.5-4.49-1.81,2.24.81,3.61,1.28,5.12.43,5.31-3.01,6.64,1.89,9.4-.38l4.86-3.99c.67-.55.68-2.85,1.44-3.18.76-.32,2.83-.7,3.5-1.19,1.31-.96,2.81-4.16,4.93-4.01.61.19.34,1.78-.06,2.27l-2.56,3.08c-1.25,1.5-1.33,3.3.25,4.91l-2.15,3.2c.4-2.83.75-5.03-1.21-7.13l-2.82,3.89c-1.26,1.74-3.63,2.77-5.32,4.43Z"/>
      <path class="cls-1" d="M20.36,11.14c-1.51,1.63-3.05,3.34-4.96,4.18-2.37-3.55,6.87-5.54,2.52-10.54l2.34-3.57-.71,3.33c-.21.98.8,3.02,1.11,3.93,2.82.99,2.08-2.62,2.99-3.37C29.02.72,30.05-1.32,34.2.92c5.49,2.96,5.83-2.39,8.93.45l-5.18,1.53c-1.84.55-4.72-.56-6.85-.74l-5.45,3.78-1.28,3.62c-.32.9-3.32.83-4.01,1.57Z"/>
      <rect class="cls-1" x="54.34" y="9.01" width="3.13" height="16.94"/>
      <rect class="cls-1" x="3.61" y="16.01" width="16.89" height="3.05" transform="translate(-5.51 29.56) rotate(-89.89)"/>
      <path class="cls-1" d="M52.77,10.9c-1.01.38-2.94-.9-3.27-2.17l-1.29-4.97,4.55,7.14Z"/>
    </g>
  </g>
</svg>