<?xml version="1.0" encoding="UTF-8"?>
<svg id="Warstwa_2" data-name="Warstwa 2" xmlns="http://www.w3.org/2000/svg" viewBox="0 0 60.83 51.35">
  <defs>
    <style>
      .cls-1 {
        fill: #fff;
      }
    </style>
  </defs>
  <g id="game-icon-v6-elemental-pixarts-store">
    <g id="game-icon-v6-elemental-pixarts-store_279">
      <path class="cls-1" d="M37.21,31.35c-2.58,1.16-4.09,1.32-6.87.31l2.66,2.32c-1.03,4.78-7.07,6.48-11.76,4.94-2.53-.83-4.99-3.12-6.52-6.39-2.07,3.3-6.35,2.44-9.68,1.02C1.63,32.09-.17,29.28.01,25.82c.18-3.47,2.36-6.01,5.83-6.95-.14-2.6.04-5.33,1.7-7.17s4.14-3.05,7.05-2.38l1.61,2.75c-.29-5.72,2.89-10.26,7.64-11.64,5.63-1.63,11.23,1.48,13.11,6.82-1.5.51-2.65,1.04-3.9,1.99,3.34-.68,5.23-.44,7.59,2.02-.18-1.69-1.58-2.81-3.15-3.94,2.01-2.53,4.62-1.97,7.2-1.23,2.33.67,3.21,3.58,4.88,5.29,1.58.45,4.01.94,5.16,1.96,1.56,1.38.8,3.84,1.6,5.4,1.11,2.17,4.08,3.3,4.43,6.1.43,3.39-1.3,6.05-3.71,7.61-2.96,1.91-6.01.95-9.05-.23-1.62,1.68-3.86,3.85-5.69,4.26-2.97.66-5.73-.5-7.75-2.36,1.04-1.02,1.75-1.7,2.65-2.78ZM51.21,16.86c1.05-2.39-.69-3.17-2.07-3.94-1.03-.57-2.79-.25-3.78.79,2.97-.17,5.28.45,5.85,3.15ZM22.09,15.89c-1.37-2.39-3.72-1.78-5.52-.81-1.42.76-2.69,2.33-2.37,4.38,1.31-3.2,4.42-4.84,7.9-3.57Z"/>
      <path class="cls-1" d="M41.5,40.83c.69.67-.03,5.08-2.31,6.11-.93.42-2.57-.43-3.65-.85-.67-.26-2.51-.08-3.05-.68-2.76-3.05,2.51-7.11,3.65-7.14,1.18-.03,4.47,1.69,5.36,2.56Z"/>
      <path class="cls-1" d="M18.14,42.02c.12,1.61-2.73,5.25-4.04,4.3-2.73-1.97-4.19-2.5-4.5-3.49-.19-.59,1-1.51,1.81-2.01l-.55-1.08c-.13-.26,1.12-1.62,3.22-1.62.47,0,1.1.85,1.03,1.33l-.21,1.59c-.05.41,1.31-.02,1.79-.15.48-.13,1.41.64,1.45,1.13Z"/>
      <path class="cls-1" d="M30.18,49.34c-1.18,1.63-3.76,2.04-5.61,2.01-.72-.01-.91-1.77-1.04-2.4l-.29-1.55c-.09-.46,1.99-2.99,3.23-3.15.63-.08,1.48,1.2,1.93,1.93.45.71,2.59,2.03,1.77,3.16Z"/>
      <path class="cls-1" d="M53.52,39.94c.59.55-1.68,3.83-5.1,3.07-.88-.19-2.52-1.81-1.96-2.51.96-1.15,1.6-1.96,2.41-3.1.47-.66,2.2.23,2.89.88l1.76,1.66Z"/>
    </g>
  </g>
</svg>