<?xml version="1.0" encoding="UTF-8"?>
<svg id="Warstwa_2" data-name="Warstwa 2" xmlns="http://www.w3.org/2000/svg" viewBox="0 0 61.01 61.53">
  <defs>
    <style>
      .cls-1 {
        fill: #fff;
      }
    </style>
  </defs>
  <g id="game-icon-v6-elemental-pixarts-store">
    <g id="game-icon-v6-elemental-pixarts-store_176">
      <path class="cls-1" d="M43.58,19.71c-3.28-1.9-3.79-5.25-2.56-8.42,3.1-7.93-16.39-7.44-20.67-4.14-2.54,2.75,3.56,8.71-3.13,12.66-3.56,2.1.7,4.95-5.45,8.5l3.29,11.89c5.93,1.57,10.67,4.24,15.56,7.95,4.75-4.15,9.87-6.09,15.37-8.04l3.08-11.57c-5.97-3.73-1.63-6.59-5.5-8.83ZM20.77,37.96l-1.87,1.08c-1.79,1.03-4.92-7.96-3.55-10.06.15-.23.68-.15.83.09,2.08,3.25.37,5.18,4.68,5.39l1.45,4.56-1.55-1.06ZM33.71,17.48l-3.1,5.6-2.55-4.41c-.37-2.79-.71-4.82-3.76-6.07-1.21-.5-2.76-3.58-1.07-4.32,4.88-2.12,11.03-1.81,15.61.53.82,5.07-9.61,4.49-5.13,8.67ZM46.29,31.32l-1.44,5.14c-.2.7-.77,1.51-1.07,1.86-.31.35-2.2-.33-2.02-.8l2.54-6.56c.17-.44.92-1.22,1.26-1.1.34.12.82,1.1.72,1.46Z"/>
      <path class="cls-1" d="M43.36,54.72l5.57-2.78-3.87-8.97c-5.31,1.72-10.17,4.59-14.43,8.32-4.4-3.82-9.33-6.5-14.7-8.29l-3.74,9.04,8.56,3.67-1.44-3.98,2.55-2.9.42,4.58c1.32,1.02,1.5,3.13,2.17,4.73,1.35,1.22,4.25,2.71,5.91,3.39,3.17-.31,4.41-3.32,6.94-4.49.87-.4,2.54-.47,2.98-1.06,1.96-2.61-2.31-4.44-.54-7.99,2.32,5.26,2.94.99,3.61,6.72Z"/>
      <path class="cls-1" d="M59.22,11.89c1.54-2.57,1.44-5.03.03-7.17-.34,1.97-.86,4.1-2.12,4.92-.64.42-2.7.26-2.89-.42-1.78-6.25-1.79-4.31-.44-8.87-1.58-.55-2.21,2.79-3.17,2.43l-1.36-.5-1.49,4.32-3.93-2.31-1.63,10.18c-.37,2.3,2.62,4.69,4.82,4.53,2.63-.19,4.61,1.3,6.23,2.79l7.75-2.69c.11-2.76-3.34-4.62-1.79-7.2Z"/>
      <path class="cls-1" d="M.04,19.12l7.61,2.55c2.19-1.79,3.91-2.97,6.49-2.77,2.49.19,5.08-2.39,4.62-4.83-.63-3.37-1.09-6.3-1.57-10.05l-4.01,2.52-1.35-3.71c-1.8.52-5.23-4.35-4.46-2.35l.42,1.09c1.08,2.81-.8,7.72-1.49,8.11-.61.34-2.47.06-2.89-.54-.68-.98-1.15-2.69-1.61-4.31-.62,1.25-1.59,3.96-.77,5.25C4.43,15.46-.51,15.73.04,19.12Z"/>
      <path class="cls-1" d="M53.01,26.01c2.24.74,6.09-.21,7.86-1.49.37-.59-.27-2.22-.9-2.5-2.99-1.31-5.55,2.42-7.61,1.02-1.61-1.1-2.6-1.76-4.18-2.64.67,2.84,2.31,4.76,4.82,5.6Z"/>
      <path class="cls-1" d="M7.58,26.05c2.66-.71,4.32-2.8,5.22-5.29-4.3.52-2.77,4.4-8.42,1.55-.81-.41-2.55-.66-3.26-.34-.61.27-1.3,1.94-1.01,2.6,2.01,1.08,5.42,2.03,7.48,1.48Z"/>
    </g>
  </g>
</svg>