<?xml version="1.0" encoding="UTF-8"?>
<svg id="Warstwa_2" data-name="Warstwa 2" xmlns="http://www.w3.org/2000/svg" viewBox="0 0 54.47 58.51">
  <defs>
    <style>
      .cls-1 {
        fill: #fff;
      }
    </style>
  </defs>
  <g id="game-icon-v6-elemental-pixarts-store">
    <g id="game-icon-v6-elemental-pixarts-store_45">
      <path class="cls-1" d="M26.45,1.78c-.07.08-.49,1.02-.66,1.3-1.17,1.37-2.28,3.98-2,6.26.42,3.38,3.24,5.94,6.77,5.34.96-.17,2.29-1.11,2.63-1.84.42-.89.38-2.45-.11-3.38-.24-.47-1.92-.71-1.87-.34.44.81.96,1.47.91,1.99-.05.51-1.34,1.25-1.92,1.22-1.48-.06-2.78-1.29-3.01-2.44-.27-1.33.12-2.95,1.07-3.81,1.65-1.51,3.81-1.78,6.01-1.06,1.41.46,3.09,1.93,3.86,3.75,3.39,8-3.85,15.23-10.69,17.71l-10.8,3.93c-3.56,1.29-6.93,3.7-9.56,6.46C1.5,42.71-.61,50.72.48,58.46l8.88-.06c-1.65-7.1-.66-14.27,4.32-19.6,6.4-6.86,14.66-6.43,22.67-13.59,5.12-4.58,7.48-12.37,4.36-18.45-2.17-4.23-6.31-6.02-10.47-5.53l.83-.71c.19-.16-.58-.73-1.2-.45l-1,.46c-.18.08-.02.41.16.5l.91.43c-.91.44-2.16.51-3.48.32Z"/>
      <path class="cls-1" d="M53.1,32.18c-1.31-2.03-3.94-4.22-6.4-3.66l-3.97.9c-2.2,1.07-1.86,4.94-.57,6.71,1.12,1.54,3.1,2.02,4.4.41-1.03-.37-2.27-.87-2.45-1.56-.19-.72.07-2.15.56-2.71.92-1.06,2.53-1.31,3.82-.92.99.3,2.25,1.44,2.73,2.63,1.34,3.32-.15,6.72-3.01,8.75-9.05,6.41-19.27,2.38-23.54,15.68h7.54c2.89-9.13,10.44-5.88,18.76-13.85,3.39-3.24,4.74-8.32,2.13-12.37Z"/>
      <path class="cls-1" d="M.69,27.2c1.43,3.4,5.27,5.2,8.27,3.7.37-.18.82-.95.85-1.26.09-1.14-2.12.62-4.51-2.35.06,1.61,1.54,2.11,3.05,2.63-2.08,1.02-4.59-.87-5.38-2.95-1.45-3.78.36-7.2,3.56-8.95,3.25-1.78,6.94-1.64,10.27.52,2.63,1.71,4.2,4.81,4.48,8.8l4.1-1.27c-1.04-3.33-2.05-5.79-4.18-8.14-4.89-5.4-13.3-5.96-18.48-.79C.02,19.86-.7,23.88.69,27.2Z"/>
      <path class="cls-1" d="M26.77,38.69c1.32,3.86,4.59,6.26,8.17,7.87l6.92-2.05-5.22-2.33c-5.6-2.5-5.56-5.1-8.26-5.12-.58,0-1.81,1.08-1.62,1.64Z"/>
      <path class="cls-1" d="M54,58.34c-.77-2.66-1.61-4.65-3.18-6.95l-7.19,4.11c.5,1.15,1.03,2.25,1.58,3.02l8.79-.18Z"/>
      <path class="cls-1" d="M12.87,44.29c-.32-.03-1.16.23-1.38.48-1.19,1.33-2.02,4.37-.45,5.33.27.17,1.16-.02,1.43-.28,2.07-1.94,1.75-5.4.4-5.53Z"/>
      <path class="cls-1" d="M11.04,58.21c.27.36,2.08.3,2.36-.1.88-1.28.21-4.96-1.99-5.17-1.36-.13-2,3.13-.37,5.28Z"/>
      <path class="cls-1" d="M16.29,58.2c.33.21,1.41.3,1.66.04,1.28-1.28-.22-6.04-2.15-5.23-1.87.79-.89,4.29.49,5.19Z"/>
      <path class="cls-1" d="M14.31,42.24c1.14.82,3.24-1.89,3.91-2.75.26-.34.1-1.69-.3-1.82-.32-.1-1.15-.15-1.48-.02-1.98.76-3.6,3.53-2.13,4.59Z"/>
      <path class="cls-1" d="M15.86,50.87c1.48-.12,2.49-2.81,1.82-4.44-.17-.41-.62-1.01-.87-.96-.25.05-.94.32-1.15.51-1.2,1.04-1.72,4.34.2,4.89Z"/>
      <path class="cls-1" d="M24.59,34.24c-.33-1.01-2.57-.72-3.53.08-.62.51-1.26,1.58-1.16,2.57,2.04.32,4.46-.54,4.7-2.64Z"/>
      <path class="cls-1" d="M20.76,41.73c.26-.43.01-1.9-.49-1.87-1.44.07-4.05,2.1-2.86,4.29,1.2.07,2.5-1.01,3.35-2.42Z"/>
      <path class="cls-1" d="M27.79,35.08c.82,1.92,5.08-.82,4.43-1.81-.86-1.31-4.03.9-4.43,1.81Z"/>
      <path class="cls-1" d="M26.13,36.31c-1.67-.9-4.38,1.15-3.88,2.64,1.42,1.05,3.8-.69,3.88-2.64Z"/>
      <path class="cls-1" d="M30.31,30.68c-1.04-.2-3.78.83-3.51,2.04.43,1.9,2.93.45,3.71-.73.17-.26.06-1.25-.2-1.3Z"/>
      <path class="cls-1" d="M33.73,31.33c-.23.2.22,1.06.49,1.47,1.23-.52,2.62-1.57,3.14-3.1-.56-.43-1.78-.03-2.32.45l-1.31,1.18Z"/>
      <path class="cls-1" d="M35.79,27.69c-.87-.34-2.63.82-3.1,1.56-.19.31.12,1.12.42,1.32.29.19,1.29-.16,1.32-.51l.09-1.38,1.09.71c.19.08.57-1.55.18-1.7Z"/>
      <path class="cls-1" d="M44.82,50.97c.12-.12-.44-.77-.61-.81-.82-.17-2.85.65-2.71,1.74.08.59,1.9.45,2.37-.01l.94-.92Z"/>
      <path class="cls-1" d="M41.19,24.86c-1.78.44-3.09,1.93-2.42,3.81,1.21-.98,2.09-2.08,2.42-3.81Z"/>
      <path class="cls-1" d="M43.93,52.24c-.55.2-.85.84-.91,2.13,1.57-.67,2.39-1.11,3.7-1.97-1.02-.52-1.79-.53-2.79-.16Z"/>
    </g>
  </g>
</svg>