<?xml version="1.0" encoding="UTF-8"?>
<svg id="Warstwa_2" data-name="Warstwa 2" xmlns="http://www.w3.org/2000/svg" viewBox="0 0 64.6 44.45">
  <defs>
    <style>
      .cls-1 {
        fill: #fff;
      }
    </style>
  </defs>
  <g id="game-icon-v6-elemental-pixarts-store">
    <g id="game-icon-v6-elemental-pixarts-store_02">
      <path class="cls-1" d="M50.93,13.87c-9.42,8.65-21.07,15.54-33.57,19.17-6.93-7.91-5.68-20.19,2.05-27.02C24.53,1.51,30.89-.23,37.86,1.62c5.46,1.45,10.63,5.51,13.07,12.25Z"/>
      <path class="cls-1" d="M11.54,26.1l-3.6,4.98c-.36.5-.3,2.32,0,2.82,1.37,2.21,7.23,1.31,9.46.62,12.13-3.74,23.22-9.82,32.79-18.1,2.2-1.91,7.74-7.5,6.11-10.18-1.24-2.05-5.9-1.07-8.2-.88-.91.08-2.28-1.31-3.19-2.32,3.91-1.69,16.13-5.21,19.04-1.18,2.75,3.82-3.99,10.67-6.99,13.42-10.9,9.99-28.06,20.04-42.59,24.01-1.31-2.15-3.05-3.66-5.3-3.48-2.4.2-4.04,1.91-4.71,4.51-1.22.15-3.23-.71-3.84-1.66-2.9-4.52,7.06-13.44,10.48-16.29.33.78,1.01,3.06.53,3.72Z"/>
      <path class="cls-1" d="M45.71,35.76c-6.45,5.94-15.72,6.86-23.11,2.34,10.7-4.53,20.27-9.81,29.59-16.96,0,5.52-2.32,10.78-6.49,14.62Z"/>
      <circle class="cls-1" cx="9.43" cy="40.92" r="3.52"/>
    </g>
  </g>
</svg>