<?xml version="1.0" encoding="UTF-8"?>
<svg id="Warstwa_2" data-name="Warstwa 2" xmlns="http://www.w3.org/2000/svg" viewBox="0 0 39 61.06">
  <defs>
    <style>
      .cls-1 {
        fill: #fff;
      }
    </style>
  </defs>
  <g id="game-icon-v6-elemental-pixarts-store">
    <g id="game-icon-v6-elemental-pixarts-store_558">
      <path class="cls-1" d="M33.4,41.56c.68-5.24,6.99-12.2,2.72-18.07-2.85,1.02-1.05,9.7-6.61,12.16l1.92-15.2c.02-.14-.38-4.67-2.68-4.2-.4.08-.78.9-.84,1.43-.24,2.27-1.58,14.97-3.13,15.35-.3.07-.78-.84-.79-1.2l-.59-16.77c-.03-.84-1.25-2.05-1.93-1.96-.6.08-1.84,1.16-1.84,1.78l-.19,16.37c0,.53-.74,1.51-1.09,1.32-.26-.14-.97-.81-1.07-1.24l-3.19-13.5c-.17-.71-1.24-1.55-1.79-1.42-2.87.71-.56,10.95.04,13.81.5,2.37,2.03,12.88-1.12,12.57-1.92-.19-3.7-2.52-3.97-5.13-.23-2.28-1.37-4.21-3.67-4.7l-.83,7.66,3.71,7.01c2.19,4.14,6.16,6.67,10.28,8.82l-2.62.07.56,3.92c4.82.66,8.76.86,13.09.23,1.35-.2,2.09-.91,2.14-2.45.02-.67-.5-1.49-1.48-1.72,4.57-3.4,4.23-9.12,4.99-14.94ZM21.79,50.35c-.33-4.24-3.11-7.25-7.42-8.68,2.5-.84,4.84.24,6.23,1.91,1.31,1.57,2.5,4.02,1.19,6.78ZM16.41,38.01c1.52-.99,12.15,3.46,13.56,4.65-4.8-.63-9.14-2.35-13.56-4.65Z"/>
      <path class="cls-1" d="M17.26,18.92c.62-4.07.42-7.25,5.22-8.05,1.78,1.04,2.5,3.45,2.75,5.54,2.2-2.94,2.04-7.05-.6-9.85l-.91,1.93-2.32-5.83c-.24-.6-.34-1.97-.45-2.65-4.48,3.15.78,8.51-3.4,9.5-.95-.11-1-2.37-1.09-4.07-1.44,1.69-2.3,4.5-1.47,6.91l2.27,6.57Z"/>
      <path class="cls-1" d="M1.48,35.61l.92-3.77c1.82-1.34,3.25-.09,5.16,1.01.16-2.47-.21-4.1-1.07-6l-1.17,2.38c-2.23-.67,1.49-4.74-2.44-7.01.99,5.01-5.76,7.58-1.4,13.39Z"/>
      <path class="cls-1" d="M8.99,20.3c.2-3.39,1.59-5.31,4.35-6.2-.55-.97-.57-1.1-.67-1l-.69.69c-.22-1.66-.5-3.21-1.35-4.56-1.22,4.07-4.61,6.72-1.64,11.07Z"/>
      <path class="cls-1" d="M38.85,21.81l-2.13-6.02-1.25,2.93c-.8,1.1-1.26,2.17-.92,3.74l1.54-1.7,2.74,4.09c.16-.77.26-2.34.01-3.04Z"/>
      <path class="cls-1" d="M30.53,13.87c1.01.58,1.45,1.7,2.11,3.25,1.72-3.77-1.53-3.75-2.09-8.97-1.36,1.58-1.79,4.69-.02,5.72Z"/>
    </g>
  </g>
</svg>