<?xml version="1.0" encoding="UTF-8"?>
<svg id="Warstwa_2" data-name="Warstwa 2" xmlns="http://www.w3.org/2000/svg" viewBox="0 0 63.62 62.05">
  <defs>
    <style>
      .cls-1 {
        fill: #fff;
      }
    </style>
  </defs>
  <g id="game-icon-v6-elemental-pixarts-store">
    <g id="game-icon-v6-elemental-pixarts-store_490">
      <path class="cls-1" d="M32.26,25.72c-7.45,1.78-17.75,2.57-24.97-.83-.06,3.19,2.28,5.38,4.95,6.67,8.15,3.94,17.15,3.98,26.32,2.58-6.14,3.21-13.06,3.4-19.88,1.96,4.73,5.29,12.96,5.82,19.91,4.83-4.72,2.73-10.06,2.24-15.27.54.48,3.06,3.03,4.68,5.62,5.29l4.16,1c-3.14,1.04-6.26.7-9.21-.74-1.28,2.65-.23,4.43.77,6.96l-2.49-2.38c-.66,4.38,1.76,8.27,5.46,10.46-.42-2.81-.01-5.26,2.08-6.95l2.83-2.29c-1.62-.07-3.31-.35-5.01-.97,7.78.08,13.74-3.56,18.1-9.34-3.63,1.35-6.65,2.24-10.26,2.19,4.79-1.61,14.64-4.09,14.79-10.85-4.13,2.45-8.49,4.01-13.15,4.15,6.01-2.03,18.9-6.2,17.89-14.48-7.53,6.51-19.92,8.68-29.04,7.09,9.41-1.25,24.84-3.42,30.01-11.37,1.66-2.55,1.31-6-1.59-7.44.96,2.96-.83,5.5-3.44,6.62.89-1.66,1.37-3.57.82-4.91-1.93-4.66-15.43-4.1-19.16-2.62,3.27-.18,15.77.13,15.95,4.14.28,6.22-32.73,9.16-33.06,1.29-.03-.77.65-2.5,1.36-2.93l5.95-3.61c-3.32.68-10.52,2.93-10.65,6.63-.04,1.02.66,2.24,1.49,3.22-2-.61-4.55-2.17-4.81-4.91-.57-5.87,10.88-9.13,14.91-10.69-6.87.17-18.6,3.22-19.68,11.25-1.03-1.39-.99-2.88-.85-4.89C.77,11.66-.94,14.93.57,17.64c4.45,7.99,23.37,8.38,31.69,8.08ZM43.74,23.05c.24-.29.69-.69,1.19-1.03.29-.2,1.16.1,1.49.24.33.14-.08,1.4-.42,1.51l-1.48.49c-.35.12-1.02-.93-.78-1.22Z"/>
      <path class="cls-1" d="M58.7,18.66c2.29-1.38,4.52-3.4,4.57-6.35.06-3.36-2.73-5.47-5.25-6.14-4.66-1.24-9.17-2.21-14.2-2.1-1.33.03-2.79-.28-3.91.5,5.76.66,11.15,1.13,15.91,4,3.77,2.26,4.89,6.2,2.88,10.09Z"/>
      <path class="cls-1" d="M23.51,19.07c4.99-2.64,10.88-3.98,16.17-1.81.59.24,1.23.7,1.47.47,2.4-2.28-8.51-5.31-16.93-.62-.7.39-1.13,1.58-.71,1.95Z"/>
      <path class="cls-1" d="M59.71,31.78l-.96-.67-3.87,2.68.79.54-1.42,1.96,1.52-.35c.76-.17-.77,2.6.06,1.89l.67-.58c.24-.21.77-.81,1-.68l.66.4,3.09-3.08-1.21-.46,3.59-4.18c-1.55.82-2.45,1.48-3.91,2.53Z"/>
      <path class="cls-1" d="M28.68,6.7l-.52,1.54c1.11-.72,1.8-1.1,2.6-1.03l3.59-2.58-.99-.51,4.53-4.12-4.96,2.42.24-.97-5.4,2.81.78.78-1.88,1.98,2.02-.33Z"/>
      <path class="cls-1" d="M13.76,48.2l3.59-5.6-3.23,2.65-.91-.71-3.85,4.37,2.07-.55-1.22,3.76c1.3-1.3,2.64-2.5,3.56-3.93Z"/>
      <path class="cls-1" d="M6.03,32.52l1.54,2.06c.17,4.31,2.47,3.2,3.75,4.75.05-.11.3-.95.49-.87l.72.3-.62-2.54c-3.17-3.74-2.28-.98-5.88-3.7Z"/>
      <path class="cls-1" d="M48.51,53.84l-1.18-1.17-1.1-1.1c-.21-.21-.81.28-.92.26l-2.29-1.42c.61,1.46,1.62,1.85,1.09,2.82.51.55,1.5,1.56,2.28,2.11l2.72,1.93-.99-2.36c.11-.3.61-.85.39-1.07Z"/>
    </g>
  </g>
</svg>