<?xml version="1.0" encoding="UTF-8"?>
<svg id="Warstwa_2" data-name="Warstwa 2" xmlns="http://www.w3.org/2000/svg" viewBox="0 0 53.79 52.6">
  <defs>
    <style>
      .cls-1 {
        fill: #fff;
      }
    </style>
  </defs>
  <g id="game-icon-v6-elemental-pixarts-store">
    <g id="game-icon-v6-elemental-pixarts-store_528">
      <path class="cls-1" d="M39.88,15.75c.33-1.49.96-3.89,1.96-4.4,1.55-.79,3.45.59,4.95,1.26,4.35-5.01.39-6.19,7-12.61-4.17,2.12-5.8,5.74-7.05,10.38-1.81-.5-2.88-1.05-4.89-2.26l-3.53,5.65-7.07,4.54,2.94-11.35-6.69,9.87-2.38-6.97,2.88-3.04-.42-5.13c-.56,3.4-1.57,5.79-4.14,7.64l.99,7.64-4.99-6.87,2.24,8.18c-1.86-.49-3.95-1.72-4.65-3.46l-2.45-6.12-6.4-.72c.45-1.29,1.18-2.39.76-2.74l-1.67-1.34C5.14,2.25,3.2.59.59.02c2.42,1.93,4.41,3.47,6.47,5.7l-2.26,2.99c2.54,1.15,5.22,1.44,8.47,1.29l3.11,8.37,2.42,3.11-9.43-3.49,7.82,7.31c-8.27,3.85-5.65-5.46-10.62-.89l-6.57,1.21c2.94.97,5.77.52,8.61-1.1l3.15,3.61,5.65.31-7.04,5.14,8.74-2.41-2.6,4.88-4.63.78c-3.6,2.49-.2,9.84-3.38,9.59-4.62-.36-5.21,1.1-7.89,6.17l4.29-4.34c1.11-1.12,4.33.81,6.44-1.43,1.74-1.85-1.03-4.92,1.84-8.65l4.47-.3,4.07-3.47-2.32,10.02,5.74-8.43c2.32,14.07-3.3.92,1.31,16.59l.52-4.31c-1.98-2.14.05-3.83.26-5.95l.74-7.63,4.4,7.03-1.35-7.43,4.89,3.82.09,4.67c.02.8,2.4,1.65,3.18,1.61l-1.78-1.22c-.48-.33-.34-1.96-.18-2.55,1.51-5.54-1.75-3.4-3.86-9.87l11.51,3.6-9.11-7.01c1.56-.84,3.28-1.42,4.64-1.12,1.19.26,2.31,1.83,3.2,3.19l9.09-2.6c-3.2-.45-6.05.04-9.03,1.08-.9-3.63-3.4-4.45-7.44-3.96l6.5-4.9-7.91,2.21c0-2.91,1.98-5.21,5.06-5.51Z"/>
      <path class="cls-1" d="M51.9,52.42l-9.05-6.57,2.71-2.03-1.42-2.32c-1.22-1.98-3.23-4.22-6-3.11,1.94.8,4.68,2.95,4.46,4.6-.18,1.39-6.42,2,9.29,9.43Z"/>
    </g>
  </g>
</svg>