<?xml version="1.0" encoding="UTF-8"?>
<svg id="Warstwa_2" data-name="Warstwa 2" xmlns="http://www.w3.org/2000/svg" viewBox="0 0 47.07 59.07">
  <defs>
    <style>
      .cls-1 {
        fill: #fff;
      }
    </style>
  </defs>
  <g id="game-icon-v6-elemental-pixarts-store">
    <g id="game-icon-v6-elemental-pixarts-store_468">
      <path class="cls-1" d="M2.36,34.76l1.29-7-.97-4.03,1.74,3.19c1.31-2.39.45-4.78-.06-7.83,1.46,2.36,2.25,5.67.91,8.44-3.41,7.07,1.05,5.56-3.95,10.41-.94.91.47,2.74,1,3.62,3.79,6.27,1.89,3.09,3.48,9.76.61-2.5.54-3.99,1.73-5.93l1.26,3.97.38-3.76c.99-.15,2.52-.03,3.27.75,1.93,1.98.09,4.91,1.41,5.3l1.88.56c3.38,1.01-1.17,5.96,3.35,5.93.49-1.14.32-3.62-.37-4.54-.17-.22-1.12.15-1.42.18-.13-.3,1.1-1.38,1.38-1.05l1,1.17c.81-.48,1.82-.92,2.63-.76-1.5.6-2.37,1.67-2.3,3.49.03.85.09,1.55.34,2,.25.45,2.15.61,2.5.25.89-.92.52-3.65.08-4.67.99,0,1.57-.63,2.42-1.29.4.09,1.52.79,2.12,1.15.27-.29,1.26-1.57,1.63-1.33l1.42.91.92-1.46c.17-.27.91.42,1.09.69.76,1.12-1.7.21-1.65,1.86.02.56.17,1.51.34,2.13,1.61-.29,2.94-1.65,2.86-3.3-.02-.37-.26-1-.53-1.01l-1.34-.06c.47-.53,1.58-.86,1.57-1.39l-.07-2.44c-.03-.93,1.08-2.17,1.91-2.5.91-.36,3.34-.43,3.78.33.36,1.44.33,3.25.39,4.95,1.99-2.06-1.18-2.23,2.78-6.77,1.14-1.3,2.19-2.97,3.18-4.6,1.7-2.79-2.41-2.47-2.41-6.27.01-7.5-4.42-5.95-.89-13.85-.26,2.62-.6,4.49.12,6.77l2.36-3.55c-.12,1.59-1.74,3.21-1.48,4.61l1.31,7.04c1.76-4.11,2.41-8.36,2.32-12.62-.46-.23-1.21-.54-1-.67,2.19-1.43-.21-8.77-2.16-11.34-2.87-3.78-6.47-6.4-10.95-8.09-1.13,6.98,1.59,4.91,4.17,9.08l-4.98-3.09c-.97.25-2.69,1.82-2.47,2.72.45,1.88,1.14,3.26,1.99,5.03l-1.25,2.19,2.7,5.06-1.04,4.18,1.82.7.08,2.76,1.43-2.77c2.18-.11,4.71,1.01,5.3,3.39.39,1.58-.34,6.34-2.24,7.4-.86.48-2.3.37-3.6.27,1.01,4.2,5.82,1.96,4.63,5.7-.89-1.54-2.05-2.25-3.7-2.5l-2.43-.37c-.35-.05-1.17-.21-1.39.02l-1.13,1.14.24-1.2c.06-.32.91-.45,1.32-.5l2.49-.35c-.78-2.13-2.14-2.77-3.95-3.59l-3.16-1.43c-1.94-3.23-.24-6.51,2.71-8.42,1.06-.68,1.89-3.38,1.55-4.56-.33-1.16-1.29-2.29-2.02-3.21l-3.81,3.48c2.55-4.75,6.12-5.73,2.12-11.97-7.09,1.88-3.35,3.23-6.26,5.23.46-1.38.98-2.65.97-3.63-.17-.44-1.7-.46-2.16-.39-.03,0-.06.01-.09.02.02,0,.05-.01.09-.02,5.9-1.13,6.88-1.73,10.46-6.11l.28-4.77C24.43-1.32,16.74-.05,10.35,4.01c-.38,1.46-.56,3.34-.56,4.75l2.98,1.75-2.54-.28c-1.93,4.94,2.96,5.17,1.96,6.97l-2.83-3.36c-.24-.28-1.24.12-1.59.34,2.33-4.91.37-3.66.99-9.1C-1.98,11.9-1.16,24.04,2.36,34.76ZM22.6,35.7c1.34.09,2.45.82,2.91,2.06l2.3,6.11c.21.55-.22,2.01-.55,2.47-.32.46-1.54.72-2.28.63l-1.56-2.83-1.23,2.68c-.35.36-1.62.09-2.01-.3-2.25-2.3,1.25-7.98,2.4-10.81ZM12.23,27.79c3.32-.93,6.48.64,7.84,3.96.55,1.34-.7,4.25-2.16,4.94-1.83.86-3.48,1.37-5.33,2.02l-1.76,2.44.14-1.94c-1.19-.18-2.89-.49-3.4-1.53-1.01-2.05-1.72-4.83-1.19-6.81.79-2.95,3.75-2.5,5.87-3.09Z"/>
      <path class="cls-1" d="M20.86,12.45s-.07.01-.09.02c.03,0,.06-.01.09-.02Z"/>
      <path class="cls-1" d="M25.4,53.57c-1.21,1.31-1.61,3.56-1.02,5.15.34.65,2.57.29,2.91-.48.85-1.9-.17-4-1.9-4.67Z"/>
      <path class="cls-1" d="M14.61,54.8c-.3-1.14-.43-1.71-.94-2.46-.56,1-.69,2.43-.18,3.01.42.49,1.48,1.03,2.24,1.35,1-1.12.79-2.9-.29-3.92l-.83,2.02Z"/>
      <path class="cls-1" d="M30.72,55.79c-.22-.64-1-1.68-1.81-2.42-.97,1.07-1.69,3.89-.07,4.57.99.41,2.11-1.49,1.88-2.14Z"/>
    </g>
  </g>
</svg>