<?xml version="1.0" encoding="UTF-8"?>
<svg id="Warstwa_2" data-name="Warstwa 2" xmlns="http://www.w3.org/2000/svg" viewBox="0 0 68.3 33.57">
  <defs>
    <style>
      .cls-1 {
        fill: #fff;
      }
    </style>
  </defs>
  <g id="game-icon-v6-elemental-pixarts-store">
    <g id="game-icon-v6-elemental-pixarts-store_412">
      <path class="cls-1" d="M28.1,10.94c-2.54,4.33-.32,5.39,1.12,10.35.38,1.32-.94,3.17-1.9,3.79l-4.07,2.64-1.5,4.3-3.73.09.11-2.07c-.74-1.29-1.47-2.3-2.5-3.38l1.28,3.74c.2.58-.29,2-.83,1.99-1.83-.02-1.96-1.92-5.77-4.44-.61-.41-2.06.46-3.02.97-.53-1.25-.47-3.03,0-4.46l-1.39-.71c1.17,2.14,1.05,7.77-2.09,8.07-1.19.11-2.2.13-3.63.18l.61-5.59,1.93-2.41-1.55-.11c-.39-3.29-.62-6.64-.46-10.07.76-.45,2.61-.71,3.16-.07l3.72,4.31,2.57,3.54c.78-1.29,1.64-1.69,3.03-2.22-.97-.09-2.18.27-3.44.75-.54-.18-1.01-1.58-1.4-2.12l-3.9-5.33-3.16-1.09L0,2.1l5.47,1.15c.99.21,1.66,1.04,2.58,1.98l-.03-1.35c1.6-1.59,4.35-2.11,6.49-1.01.54,1.22.88,3.37.38,4.71-.42,1.14-1.74,1.58-2.84,2.17l-1.11,3.18c1.34-1.69,2.96-2.94,5.1-3.66l2.29,4.05c1.27,2.23-1.63,3.76-1.06,5.26l2.08-3.86c3.61-.15,2.08,1.48,4.49,3.45l-1.48-4.48-2.64-.58c-1.13-2.58-3.42-6.63-2.41-9.43,5.77-.16,5.85-1.73,10.94-.27,3.18.91,1.38,2.42,3.93,7.49.75-2.64-1.55-3.6-.4-6.56l6.6-.97c-1.7-.81-4.04.41-6.31.12.32-1.1.53-1.73.9-2.49,3.05-.4,5.97-.88,8.91-.74,1.44,1.54,1.98,4.06,2.26,6.09.68,4.84-.47,5.14-.57,10.15,1.32-1.5,1.09-3.38,1.25-5.26l.22-2.58.31-6.21,7.14,1.06c1.64,3.44-1.76,6.81-4.44,8.42l2.91-.58,1.6,4.51c-3.04,4.75-1.5,5.48-4.52,7.85,1.33-.43,2.06-1.25,3.19-2.5l1.53,3.22c-.1-1.71-.46-3.13-1.03-4.89l2.39-3.37-1.55-4.87c.76-1.27,1.79-2.73,2.34-3.95.52-1.13.03-3.35.53-4.37.75-1.53,4.98.41,6.18.66,2.07.43,3.98-1.02,6.5-1.3l-.5,6.38-2.17,1.74h2.16s-.64,6.59-.64,6.59c-.11,1.15-1.19,2.58-1.9,3.9l-3.45-3.37-.16-4.49c-.69-.69-2.07-1.49-2.95-1.81.54,1.19,2.02,2.15,2.08,3.3.31,5.51,1.99,4.19,2.18,6.02.04.34-.4,1.09-.68,1.35-2.81,2.61.1,5.65-3.31,6.21-2.23.37-3.33,2.3-4.47,4.34-3.96.44-4.99-.94-9.72-.68l-.89-5.6c-.09-.55-.81-1.58-1.19-1.97-2.96-2.94-.49-5.26-2.16-6.13l.14,4.43c.07,2.34,2.65,2.14,2.22,9.24-4.5.13-6.77,2.06-10.12,1.56l-8.32-1.24c-.13-5.35,3.67-2.49,5.62-7.66.61-1.62,1.96-2.63,3.53-1.94l1.46,2.36-.57-3.62,2.37-1.96-5.74,1.58-2.28-4.62c-.75-1.52-.68-3.2-.57-5.32Z"/>
      <path class="cls-1" d="M68.3,31.41c-.97.33-2.12.56-3.01.65-.76-1.89-1.53-3.01-2.69-4.46-1.47-1.86-.68-5.1,1.1-6.24.31.18,1.03,1,1.32.82l1.83-1.12,1.46,10.35Z"/>
      <path class="cls-1" d="M25.57,2.27l-7.64.45c.13-.69.74-2.01,1.32-2.1,2.09-.3,4.45-.81,6.41-.5l6.08.96-1.17,2.61-5.01-1.43Z"/>
      <path class="cls-1" d="M15.87,3.08l-1.7-.92c-2.05-1.11-4.17.16-6.24.34-2.1.19-4.29-.36-6.58-.68C4.04-1.19,6.75.47,11,.36c1.95-.05,3.51-.45,5.57.42l-.7,2.3Z"/>
      <path class="cls-1" d="M57.54,33.42c-.43.03-1.7-.6-1.69-1.05.07-1.24,1.51-2.47,2.63-2.81l2.85-.85c1.41.98,2.72,2.21,2.67,4.33l-6.45.38Z"/>
      <path class="cls-1" d="M67.58,1.98c-8.58,2.53-9.06-2.04-12.92.51-.38-.59-.73-1.2-1.09-1.95,2.08-.27,3.43-.36,5.23-.36l6.04-.02,2.74,1.82Z"/>
      <path class="cls-1" d="M13.57,32.52c-3.47,1.62-4.62,1.24-7.89-.31,1.09-1.18,2.33-2.96,3.8-2.86,1.56.1,2.77,1.72,4.09,3.17Z"/>
      <path class="cls-1" d="M52.33,2.77l-6.56-.82c-.61.08-1.16.21-1.44-.06-.33-.32-.76-1.7-.38-1.83,1.54,0,3.27.24,4.76.43,1.57.2,3.09-.13,3.62,2.28Z"/>
    </g>
  </g>
</svg>