<?xml version="1.0" encoding="UTF-8"?>
<svg id="Warstwa_2" data-name="Warstwa 2" xmlns="http://www.w3.org/2000/svg" viewBox="0 0 51.26 52.8">
  <defs>
    <style>
      .cls-1 {
        fill: #fff;
      }
    </style>
  </defs>
  <g id="game-icon-v6-elemental-pixarts-store">
    <g id="game-icon-v6-elemental-pixarts-store_112">
      <path class="cls-1" d="M16.45,22.27l2.78,1.22.58-2.45,2.38-4.54c.24-.47,1.16-1.11,1.4-1.62.8-1.7,1.95-3.17,3.39-4.42.55-.48,1.99-.53,3.02-.75l-1.59-.87c2.09-2.21,11.03-6.95,12.84-2.15l.37-1.3c3.18.76,7.47,5.92,5.14,8.28l1.25.18c.05,3.58-1.58,7.27-4.11,9.61-.69.18-2.01.08-2.89.06l1.53,1.43c-2.46,1.76-7.23,5.64-9.86,4.36l.48,1.22c-4.17,2.07-5.7,4.94-8.72,5.95l.83.44c.19.1-2.89,4.59-1.23,8.48l-.8,1.59,1.63-.25c2.81,3.57,3.3,1.13,5.45,4.26,0-2.5,3.08-.3,7.24-3.29.56.06.96.23,1.06.02.07-.16.33-.86.5-1l5.29-4.37v3.05c1.8-1.66,2.82-3.7,3.72-5.98l1.27-3.24-5.78,2.37c-1.34.55-2.53,1.52-2.92,2.88l2.6-.08c-1.67,1.54-3.27,2.78-5.3,3.98-1.48.87-4.02,3.31-5.71,1.68.58.56-2.91,1.85-5.23-.37-.93-.9-1.98-2.79-1.53-4.14.84-2.51.37-4.66,4.83-7.61,1.08-.72,2.14-1.59,3.33-2.22l4.38-2.3.23,1.59c.77-1.75,1.44-2.69,2.89-3.55,2.93-1.74,5.32-3.96,7.01-6.9l1.59,1.04-.73-2.83c1.78-3.65,1.41-7.55-.28-11.25l2.49-.66-3.89-1.46c-3.04-3.05-6.8-4.89-11.24-4.14l.57-2.24-2.72,2.51c-2.81,1.05-5.29,2.29-7.63,3.98l-.89-2.26c-.43,1.25-.3,3.01-.91,3.83-2.42,3.3-4.5,6.32-6.36,10.03l-2.05-2.67.71,4.75-.4,2.1Z"/>
      <path class="cls-1" d="M18.35,28.11c.64-.31,1.48-1.1,1.64-1.66.15-.52-.6-1.6-1.15-1.86l-4.65-2.18c-.7.47-1.34,1.94-.93,2.47l5.09,3.23Z"/>
      <path class="cls-1" d="M4.97,52.77c1.31.29,2.21-2.35,1.35-2.56-3.97-.94-2.73-2.75-5.44-2.19-.56.11-1.11,1.45-.78,1.95,1.01,1.54,3.08,2.4,4.87,2.79Z"/>
      <path class="cls-1" d="M14.95,32.97l-2.72.65c-4.19.99-4.16,2-5.26,5.02l4.63-1.83c1.63-.65,2.74-2.26,3.36-3.83Z"/>
      <path class="cls-1" d="M12.67,37.73c-2.61.2-4.56,1.44-6.93,2.47l-1.28,2.69c2.29-.59,3.75-.91,6.02-1.76.66-.78,1.62-2.38,2.19-3.4Z"/>
      <path class="cls-1" d="M17.05,28.61l-6.09,1.56-1.04,3.12,3.47-.83c1.97-.47,3.37-1.9,3.66-3.85Z"/>
      <path class="cls-1" d="M8.03,46.49c1.62-4.01-.76-.38,1.67-3.97-2.94.36-6.23,1.25-7.53,4.68,1.78-.29,3.65-.9,5.24-1.49.08.16.53.99.61.78Z"/>
      <polygon class="cls-1" points="13.42 26.09 12.18 29.01 16.4 27.95 13.42 26.09"/>
      <path class="cls-1" d="M3.47,47.76c.9.66,2.31,1.51,3.3.52.28-.28.38-1.52.08-1.45l-3.38.94Z"/>
    </g>
  </g>
</svg>