<?xml version="1.0" encoding="UTF-8"?>
<svg id="Warstwa_2" data-name="Warstwa 2" xmlns="http://www.w3.org/2000/svg" viewBox="0 0 53.13 52.46">
  <defs>
    <style>
      .cls-1 {
        fill: #fff;
      }
    </style>
  </defs>
  <g id="game-icon-v6-elemental-pixarts-store">
    <g id="game-icon-v6-elemental-pixarts-store_465">
      <path class="cls-1" d="M4.99,3.43c1.75-.77,3.33-1.44,5.17-2.06l4.08-1.37c-2.84.18-8.46-.52-9.25,3.43Z"/>
      <path class="cls-1" d="M34.3,44.12c-2.08-.39-3.79-.56-4.77-2.15,3.16,2.14,7.88,1.13,9.07-2.65-2.66.05-4.68.14-6.43-1.18,3.03.44,6.02.62,8.29-1.39,1.77-1.57,1.68-4.15.9-6.18-3.07.86-6.12,1.7-9.26,1.22,3.16-.96,6.06-.59,8.49-2.53,1.43-1.14,2.07-2.96,1.28-4.63-2.72,1.08-5.3,1.88-8.13,1.93,4.39-1.4,9.78-2.6,10.67-8.27-5.34,4.74-18.13,5.35-24.53,3.43,7.38.29,14.29-.02,20.89-3.05,2.78-1.28,5.39-2.91,6.66-5.61-4.51,2.47-9.34,3.98-14.48,3.92,3.81-.99,7.55-1.92,11.14-3.69,2.48-1.23,7.33-4.61,6.4-7.36-1.1-3.25-10.06-5.32-13.35-4.88,2.07.71,9.66,2.03,10.09,4.74.84,5.26-21.87,7.01-25.99,5.35,1.24-2.07,3.3-1.92,5.27-2.87-1.4.14-2.82.31-4.43.55-4.4.67-3.29,3.91-8.07.46.28-2.85,8.4-3.55,10.22-4.42-3.55.14-6.75.89-10.05,2.15-.9.34-1.82,1.44-2.48,2.07-.81.78-10.3-4.71,17.49-7.58-6.65-.7-18.45.39-24.12,4.75-1.26.97-1.57,2.79-.42,3.98,1.56,1.61,3.43,2.62,5.33,3.75l-3.66-1.18c2.66,5.57,15.93,6.71,21.39,6.68-5.73,1.31-11.53.54-17.21-1.38-1.93,3.34,7.61,5.45,5.84,5.39-.15,0-.73.58-.7.72.84,3.98,16.45,4.89,20.1,4.47-5.44,1.89-10.77,1.09-16.32-.54,2.79,5.12,14.44,6.99,18.97,5.86-4.12,2.26-8.21.94-12.8-.02,1.63,2.11,3.26,3.91,5.03,5.66l-2.89-1.44c.42,1.36.99,2.42,1.84,3.92l-1.88-1.27c-.98,1.58-.39,2.79.23,4.82-.37.04-1-.35-1.83-1.01.1,2.3.32,4.84,1.71,7.33,1.75-5.31,3.6-4.85,6.49-7.87ZM24.57,15.93c-3.41-.45-6.73-.59-9.7-2.39,7.34,1.48,13.92,1.3,21.53.07-3.62,1.63-7.66,2-11.83,2.32ZM17.19,23.64c5.57.82,10.79,1.51,16.88.81-5.29,1.59-11.31,1.52-16.88-.81Z"/>
      <path class="cls-1" d="M22.13,46.45c-2.07-4.7-2.55-5.63-7.69-9.13-.12.26-.41,1.32-.1,1.54l1.1.78c.66,1.73,1.32,3.31,2.8,4.25l.22-1.71,1.89,3.94-4.07-2.75.76,2.18-3.48-3.22.6,2.2-3.01-1.78c-2.47-1.46-4.96-2.45-7.64-3.54,2.27,3.5,4.97,7.61,9.16,7.56l2.2,2.31c-1.59-.9-2.75-1.66-4.51-2.01.74,1.21,1.46,2.27,2.1,3.1l9.07,2.12-3.55-3.82,3.75,1.84,5.17,2.14c-1.58-2.94-2.87-5.22-4.72-7.93l-.07,1.92Z"/>
      <path class="cls-1" d="M38.32,44.85c3.79-.66,4.24-.39,5.67-4.56-2.03,1.21-3.83,2.55-5.67,4.56Z"/>
      <path class="cls-1" d="M42.16,44.76l-4.2.73c-.16.03-.69.76-.79.89-.09.13-.32-.21-.32-.37v-1.04c-2.96,1.9-5.54,4.44-7.96,7.16,6.29-1.62,1.35-2.76,10.25-3.34l-2.97,3.46,3.59-.81,6.47-1.45,6.89-9.67c-4.08,1.97-8.06,3.96-11.27,6.09l.3-1.67Z"/>
      <path class="cls-1" d="M18.16,32.74l-5.32-5.59c-.67-.7-2.2-.99-3.16-1.09l.79,1.72c-1.9,2.86,5.14,4.3,7.69,4.96Z"/>
      <path class="cls-1" d="M50.75,18.65c-2.52.37-5.42,4.89-6.02,7.36l5.08-2.94.94-4.42Z"/>
      <path class="cls-1" d="M41.02,8.74c.82-.06,2.41-.68,2.51-1.68.22-2.3-9.87-3.26-11.75-2.93l4.79,1.02c.25.05.89.32.87.57l-.08.88c1-1.01,2.27-.83,3.56-.07.3.18,1.07.8.88,1.08l-.77,1.13Z"/>
      <path class="cls-1" d="M6.12,16.23c-1.33-1.76-5.28-3.17-4.74-5.23-.12-.03-1.02.62-1.28,1.03-.94,1.49,4.24,4.31,6.01,4.21Z"/>
      <path class="cls-1" d="M48.22,32.33c-1.3.52-2.22,1.22-3.1,2.18l-1.81,2.23,4-1.25.91-3.16Z"/>
    </g>
  </g>
</svg>