<?xml version="1.0" encoding="UTF-8"?>
<svg id="Warstwa_2" data-name="Warstwa 2" xmlns="http://www.w3.org/2000/svg" viewBox="0 0 50.6 55.3">
  <defs>
    <style>
      .cls-1 {
        fill: #fff;
      }
    </style>
  </defs>
  <g id="game-icon-v6-elemental-pixarts-store">
    <g id="game-icon-v6-elemental-pixarts-store_524">
      <path class="cls-1" d="M1.66,44.53l.44-3.59,2.55,3.71c.39-2.43-.26-4.45,1.47-6,.85-.76,2.17,1.68,2.2,2.86,1.58-1.54,1.12-3.99-.56-5.61,3.2-6.21,1.64-4.59,7.53-9.22,1.18,2.5,2.42,5.36,3.03,7.63-1.98,2.57-3.95,11.05-4.7,10.99l-1.36-.1c.04,1.84.02,4.55-.24,6.16l-3.64,3.71,9.57.11c-.09-2.64.08-4.11,1.01-6.33l-.11-4.09,6.5-4.92c1.55.99,4.67,2.67,5.06,4.16l2.98,11.31,9.24-.24-4.07-3.59c-.4-1.73-.96-4.07-1.13-5.88l-.7-7.48-1.71,2.63-3.15-6.73,3.56-7.19c5.63,3.94,4.14,3.38,7.47,8.73-1.56,1.92-1.6,3.89-.84,5.85l1.87-3.29c2.59,1.75,1.86,3.61,2.22,6.74l2.42-3.96.36,4.07c4.04-7.98-.54-8.23-.7-11.11l-.3-5.72-1.49,2.2-2.4-7.86-1.48,4c-1.81-2.89-3.5-5.28-5.61-7.65,2.04-.49,5.42-2.78,4.77-5.17-.22-.83-1.62-2.87-.92-3.38,2.12-1.11,3.56-2.67,3.53-5.13-.76,1.04-1.87,2.67-2.79,3.26l-2.11,1.36c-1.38.89,1.68,4.27.49,5.48-2.42,2.49-2.94-.19-5.16,2.49l.21-4.7-1.61,2.15c-1.65-2.06-1.58-4.41-1.3-7.14l-4.07,2.67-1.83-5.93c.64-1.92,1.01-3.31.67-4.79l-3.81,5.64c-1.29,1.9-1.9,3.9-2.83,6.53l-2.66-1.8c-.89,2.41-1.15,5.02-.75,7.98l-6.53-1.59.44-3.55c-2.07-.75-3.23-2.32-3.88-5.14l-.07,4.54c.95.51,2.32.97,2.3,1.6l-.09,2.61c-.04,1.19,2.79,1.88,4.13,2.38l-5.96,7.17-1.12-3.55-2.37,8.5-1.3-2.15-.49,6.54c-2.4,2.65-2.49,5.97-.19,8.82ZM23.79,17.8l4.71-.28-2.62,6.26h4.43s-6.38,9.55-6.38,9.55l.97-6.15-4.1-.32,3-9.05Z"/>
    </g>
  </g>
</svg>