<?xml version="1.0" encoding="UTF-8"?>
<svg id="Warstwa_2" data-name="Warstwa 2" xmlns="http://www.w3.org/2000/svg" viewBox="0 0 55.24 55.81">
  <defs>
    <style>
      .cls-1 {
        fill: #fff;
      }
    </style>
  </defs>
  <g id="game-icon-v6-elemental-pixarts-store">
    <g id="game-icon-v6-elemental-pixarts-store_435">
      <path class="cls-1" d="M5.07,53.82l-5.07,1.99c.28-2.26.71-3.57,1.61-5.42l-1.51-2.08c1.13-.46,2.99-.47,4.46-.3l6.6-6.7c1.63-1.66,3.59-3.17,4.9-5.16l-4.73-7.43,2.55-3.54,2.69,5.52c.67,1.37,1.75,2.33,3.26,2.73l.37-3.56L48.61,2.29c2.09-.91,4.35-1.63,6.63-2.29-.73,2.25-.96,5.19-2.55,6.86l-26.98,28.19-3.97.62c1.49,3.64,4.69,3.9,8.01,5.55-1.1.95-2.57,2.03-3.67,2.64l-6.58-4.54c-2.21,1.29-3.75,3.16-5.46,4.84l-6.71,6.57c.21,1.53.23,2.92-.16,4.42l-2.1-1.33Z"/>
      <path class="cls-1" d="M34.77,28.75c1.93-1.48,3.86-1.76,6.28-2.52.91-.28.79-2.73.94-3.87,2.55-5.61,4.36-3.28,5.08-4.77l1.58-3.27-.59,4.65c-2.38.9-5.09,2.41-4.95,4.84l.12,2.12c.07,1.24-6.78,3.11-8.46,2.82Z"/>
      <path class="cls-1" d="M27.51,19.35c-.4-1.77,1-3.47,2.89-4.66l1.36-5.51,2.36-1.53c2.49.02,4.49-.35,7.01-.82-2.36,2.51-8.11.32-8.7,3.45l-.94,5.03c-1.77,1.11-2.48,1.86-3.99,4.03Z"/>
      <path class="cls-1" d="M18.81,28.7c-.49-2.28.36-3.34,2.31-4.1-.06-.97-.31-2.52-.56-3.91l3.12-3.39c.3-1.7.64-3.03,1.63-4.03l-.5,4.56-3.11,3.4c2.22,4.94-1.48,3.43-2.89,7.47Z"/>
      <path class="cls-1" d="M32.05,36.04c-2.03-.04-3.03.29-5.02,1.15.71-1.38,2.42-2.2,4.32-2.48l1.15-2.62c2.45-.63,5.16-1.12,7.91-1.27l-7.05,2.82-1.31,2.4Z"/>
    </g>
  </g>
</svg>