<?xml version="1.0" encoding="UTF-8"?>
<svg id="Warstwa_2" data-name="Warstwa 2" xmlns="http://www.w3.org/2000/svg" viewBox="0 0 122.83 40.42">
  <defs>
    <style>
      .cls-1 {
        fill: #fff;
      }
    </style>
  </defs>
  <g id="game-icon-v6-elemental-pixarts-store">
    <g id="game-icon-v6-elemental-pixarts-store_409">
      <g>
        <path class="cls-1" d="M9.96,29.38c14.33-1.44,29-10.8,40.72-18.63,3.61-2.41,6.81-4.76,11.01-6.75l-2.32,4.33c-1.99,3.7,5.34,5.79,7.01,9.25.59,1.22-1.78,2.48-2.79,2.66l-10.27,1.81c-.64.11-1.69,1.16-1.88,1.76-.22.68.53,2.27,1.27,2.61l7.09,3.27c.34.16.86.6,1.08.85,1.1,1.3-4.24,3.66-5.17,4.07l-14.13,3.29c4.6.11,19.98-2.09,22.26-5.7,2.71-4.3-9.99-4.41-10.82-7.73-.8-3.2,15-.83,15.94-5.61.78-3.96-8.41-6.29-8.47-9.49-.04-2.18.99-4,2.28-5.46l7.99,4.53,16.24,10.19c6.47,4.06,13.27,7.35,20.84,9.1-5.3-2.77-10.57-4.93-15.47-8.22,2.74-1,5.05-1.82,7.67-2.48l6.28,3.2c5.35,2.72,10.37,4.9,16.5,6.36v13.86s-122.79,0-122.79,0l-.03-16.78c3.83-1.2,7.33-2.35,10.76-4.13l10.45-5.43-2.86,4.54c-.2,2.27,4.03,2.68,4.14,2.95l.65,1.48.61-1.54c.37-.94-3.56-1.11-4.33-3.14,1.19-1.68,2.12-2.89,3.29-4.13l11.55,4.61-10.14,5.4-14.15,5.11Z"/>
        <path class="cls-1" d="M93.07,8.8l19.36-.25c1.85-.02,3.53-1.37,3.8-2.83.36-1.9-.48-3.85-2.59-4.38-1.08-.27-2.62.1-3.35.95s-.71,2.26-.63,3.69c-.66-.53-1.15-1.73-1.01-2.77.11-.81,1.01-2.12,1.88-2.6,2.87-1.57,6.07.09,6.96,2.74.98,2.88-1.05,6.66-4.49,6.61l-23.81-.36c-2.08-.03-4.07-.28-6.24-.51l10.1-.28Z"/>
        <path class="cls-1" d="M113.47,15.98c.03.97.11,2.22.58,2.81.49.61,2.22,1.03,2.98.84,1.76-.44,2.36-2.01,2.06-3.46-.28-1.35-1.6-2.5-3.23-2.52l-20.46-.3-7.76-.36,10.39-.41,17.42-.33c1.89-.04,3.64.84,4.44,2.27.88,1.59.85,3.81-.52,5.18-1.59,1.59-4.23,1.6-5.82.14-1.18-1.08-1.33-2.87-.09-3.85Z"/>
        <path class="cls-1" d="M75.81,5.55l27.3-.05c.39,0,1.12-.7,1.12-1.08,0-.46-.59-1.58-1.02-1.44l-1.89.62c.02-.93,1.26-1.7,2.32-1.45.83.19,1.62,1.36,1.6,2.27s-1.04,1.98-2.14,1.98l-23.07-.08c-1.09,0-2.6-.43-4.22-.78Z"/>
        <path class="cls-1" d="M38.1,10.15l-12.69-.24-11.14-.29,7.6-.46c5.58-.34,10.96-.18,16.66-.12.88,0,1.89,1.53,1.92,2.27.03.88-.69,1.98-1.65,2.16s-2.2-.44-2.35-1.45l1.63.74c.43.2,1.22-.65,1.35-1.1.13-.45-.68-1.49-1.32-1.5Z"/>
        <path class="cls-1" d="M20.28,6l19.61-.13c.94,0,2.06-1.28,2.14-2.01.1-.91-.73-2.15-1.51-2.22-1.5-.13-2.16.67-2.75,2.03-.24-.54-.21-1.67.26-2.07.63-.54,1.96-.86,2.71-.77,1.72.22,2.38,1.82,2.24,3.18-.1,1-1.15,2.75-2.82,2.75l-18.84.06c-.32,0-1.07-.7-1.03-.82Z"/>
      </g>
      <path class="cls-1" d="M28.85,3.03c-4.89.61-10.01.34-15.44.28.03-1.12,13.58-1.08,15.44-.28Z"/>
    </g>
  </g>
</svg>