<?xml version="1.0" encoding="UTF-8"?>
<svg id="Warstwa_2" data-name="Warstwa 2" xmlns="http://www.w3.org/2000/svg" viewBox="0 0 34.14 54.1">
  <defs>
    <style>
      .cls-1 {
        fill: #fff;
      }
    </style>
  </defs>
  <g id="game-icon-v6-elemental-pixarts-store">
    <g id="game-icon-v6-elemental-pixarts-store_268">
      <path class="cls-1" d="M26.68,51.15c-5.94,4.18-14.02,3.76-19.64-.35C.26,45.84-1.58,37.12,1.33,29.45c1.62-3.75,3.6-6.98,5.85-10.39C11.16,13.06,14.45,6.98,17.13,0c3.97,11.82,10.02,17.73,15.25,28.16,3.49,8.07,1.89,17.65-5.7,22.99ZM31.08,37.67c-1.01,1.9-1.57,4.03-3.67,4.45-1.2,2.5-5.46,5.11-7.37,2.94-.18-.21.45-.97.8-1.17,4.69-2.74,6.22-9.2,2.64-14-5.11-6.85-2.09-10.38-2.98-18.25l-1.82,8.7c-2.19,10.48,5.46,11.16,2.99,17.23-1.33,3.27-6.98,2.65-6.37,7.4.18,1.43,1.69,3.01,3.41,3.53,3.22.98,6.51-.31,9.03-2.52,2.19-1.93,3.69-5.25,3.34-8.31ZM10.02,22.4c1.11-2.32,2.09-4.56,2.59-7.25l-6.98,11.09c-2.72,4.32-2.7,9.62-.41,9.08,2.56-.6,1.38-5.77,4.8-12.92ZM29.56,28.9l-.33,3.04c-2.79-7.75-5.97-5.91-7.02-16.89-3.38,13.72,7.92,11.63,5.89,25.37,2.97-3.27,3.07-7.6,1.46-11.52ZM7.89,42c-.93,4.6,2.17,8.76,6.49,9.26-2.98-1.59-4.43-5.38-2.39-8.4l3.32-4.9c1.39-.26,2.9-.68,3.4-1.42.63-.94.56-2.32.2-3.29l-1.35,2.37c-.14.24-1.04-.93-1.27-.77l-1.04.7c-1.73,1.16-2.64,2.62-3.14,4.87-.42-.1-.9-.38-.91-.67l-.04-1.78c-1.4.93-2.92,2.25-3.28,4.04Z"/>
    </g>
  </g>
</svg>