<?xml version="1.0" encoding="UTF-8"?>
<svg id="Warstwa_2" data-name="Warstwa 2" xmlns="http://www.w3.org/2000/svg" viewBox="0 0 53.76 54.21">
  <defs>
    <style>
      .cls-1 {
        fill: #fff;
      }
    </style>
  </defs>
  <g id="game-icon-v6-elemental-pixarts-store">
    <g id="game-icon-v6-elemental-pixarts-store_132">
      <path class="cls-1" d="M4.63,46.76l-2.98,2.23c-.42.32-.77,1.85-.46,2.29.26.37,1,.66,1.58.77l1.07-3.28c.8-.16,1.56-.24.52.18l-.9,2.08c-.14.32,1.06.25.97.36-.21,1.23-.38,2.23.09,2.55.39.27,1.95.41,2.35.09,1.27-.99,2.13-3.5,2.69-5.15,1.09-1.16,2.71-2.28,3.56-3.41,3.23-4.28,6.53-8.24,10.36-11.78,2.51-2.32,5.09-2.88,8.5-3.97l-2.81-.51c.67-2.93,3.57-3.42,6.26-3.63,2.36-.18,4.51-.36,6.62.6l-6.13-.23c2.63,3.64,6.75,2.85,9.67.59l-3.36-2.16c-2.27-1.46-3.62-.17-5.77.15-1.41.21-3.34.14-4.83.24,3.69-3,6.24-3.14,9.61-2.08,4.68,1.46,10.33-4.15,12.52-8.58-8.66.33-12.65-3.23-17.31,6.6,1.42-.09,2.39-1.02,3.1-2.22l.78.9,2.32-2.19c.4,2.9,2.31-.91,3.58-1.21l-.32.95,2.65-.02-3.76,1.4c-1.26.47-2.62,1.07-3.79,1.58l2.66,1.75-3.02-1.23c-3.54.18-6.65,1.44-9.77,3.07,2.93-2.5,5.92-4.99,7.51-8.86-3.56,2.4-5.73,5.42-8.48,8.47.74-2.03,1.93-4.13,2.94-5.99.31-.85.52-4.52.15-4.53l1.21.04-.98-4.64,1.31,2.04c.33-1.18.4-2.43.33-3.81-.18-.17.48.43.42.42-.06-.01.46-.29.79-.5l-1.1,5.69c-.28,1.46-.98,2.66-1.79,4.47,5.48-2.56,6.27-5.19,5.85-10.69l-.43-5.58c-6.17,3.72-9.91,8.64-6.53,15.7.11,1.6-1.76,3.79-2.96,4.77l.03-4.59-1.21,4.33-2.27,3.45c-1.17,1.79-2.43,3.37-3.65,5.03l-.11-3.75-1.5.17c-.27.03-.56,1-.53,1.38.37,4.17-3.59,6.89-6.5,9.23-2.95,2.37-3.65,7.52-11.75,10.81-1.08.44-1.81,1.46-1.6,2.65l4.6-2.43Z"/>
      <path class="cls-1" d="M50.47,6.5l1.65-5.7c-7.22,2.11-12.59,2.96-12.16,11.27,1.74-1.42,2.11-3.64,2.83-5.96l-.39,4c1.24-1.07,2.04-2.2,2.35-3.76l.73.68c1.18-1.36,1.88-2.22,3.26-2.88l-2.35,2.74.82.9c-1.44.2-2.57.79-3.76,2.19l2.8.32c-2.78.57-5.38,1.23-6.97,3.61,5.24-1.1,9.47-1.44,11.2-7.41Z"/>
      <path class="cls-1" d="M28.21,15.75c1.97.58,1.39-5.69-.71-7.89-2.13,2.01-2.16,7.04.71,7.89Z"/>
      <path class="cls-1" d="M37.96,30.54c-1.44-1.76-3.62-2.6-5.7-1.07.34.64,1.56,1.87,2.34,1.97.93.11,2.22-.36,3.36-.9Z"/>
      <path class="cls-1" d="M26.93,20.25c.54-2.69-.87-4.1-2.59-5.02-.71,2.25.41,4.64,2.59,5.02Z"/>
    </g>
  </g>
</svg>