<?xml version="1.0" encoding="UTF-8"?>
<svg id="Warstwa_2" data-name="Warstwa 2" xmlns="http://www.w3.org/2000/svg" viewBox="0 0 52.27 53.55">
  <defs>
    <style>
      .cls-1 {
        fill: #fff;
      }
    </style>
  </defs>
  <g id="game-icon-v6-elemental-pixarts-store">
    <g id="game-icon-v6-elemental-pixarts-store_236">
      <path class="cls-1" d="M11.69,37.68c4.83,1.82,9.63.18,14.28-1.14,6.62-1.88,12.41-4.9,17.64-9.12-4.52,5.41-10.88,8.05-17.28,10.48-6.09,2.31-12.36,3.52-18.82,2.46-1.87-.31-3.73-1.09-4.42-2.57,3.38,1.09,6.53,1.72,9.57,1.49-2.81-.78-4.97-1.11-6.91-2.5-.81-.58-2-2.68-1.94-3.67.09-1.51.99-3.98,1.96-4.97l5.63-5.76c-4.51,2.29-8.09,5.79-10.48,9.99-1.88,3.3-.82,7.06,2.67,8.51,2.75,1.15,5.87,1.59,8.95,1.18,10.68-1.44,20.64-5.24,29.57-11.22,4.09-2.74,13.1-11.09,9.21-15.79-2.87-3.48-7.42-3.95-11.37-3.07,2.65.46,5.78.2,7.57,2.39,1.44,1.76,1.31,4.89.69,7.02l-.97-.72c-5.89,9.34-25.08,17.54-35.55,17.01Z"/>
      <path class="cls-1" d="M21.31,23.31l1.37,11.14,6.76-2.64c1.95-12.8,2.04-8.45-1.46-20.47l-5.37,7.35c-.83,1.13-1.48,3.12-1.29,4.62Z"/>
      <path class="cls-1" d="M14.49,16.78l6.07,2.25c2.38-3.2,5.73-5.76,6.58-9.93-.01-2.62-.9-5.59-1.37-8.08l-2.71,7.87,1.28-7.99c-4,5.17-6.9,10.18-9.85,15.88Z"/>
      <path class="cls-1" d="M31.98,21.04l1.9-1.08-1.82,2.7-1.55,8.61c1.97-.85,3.38-1.59,5.01-2.56l1.65-12.44-8.12-4.97,2.92,9.73Z"/>
      <path class="cls-1" d="M16.88,34.38c.07.45.4,1.05.57,1.27,2.44,3.36-1.13-9.68-.41-9.24,1.96,2.78.97,6.33,4.54,8.48l-1.65-13.67-5.53-3.61,2.48,16.76Z"/>
      <path class="cls-1" d="M26.81,0c.44,3.58,1.1,6.61,1.91,9.73l7.71,4.63-4.2-7.58c-1.38-2.49-3.37-4.51-5.42-6.77Z"/>
      <polygon class="cls-1" points="25.81 53.13 28.43 39.81 23.94 41.55 25.81 53.13"/>
      <path class="cls-1" d="M18.3,42.72l6.29,9.98c-.33-4.15-1.04-7.12-1.86-10.37l-4.43.39Z"/>
      <path class="cls-1" d="M45.44,16.82c-1.59-.95-4.47-1.55-6.28-1.5,1.74.96,3.01,1.55,3.54,2.35,2,3.03-3.12,7.03-4.62,9.06,2.12-.38,10.28-8.18,7.36-9.91Z"/>
      <path class="cls-1" d="M9.15,4.46c-.27,1.1-.59,2.97-1.24,3.55-.58.52-2.02.92-2.96,1.29,4.04,1.55,3.11,1.29,4.3,4.83.62-3.18,1.88-4.24,4.66-4.73-4.56-1.68-2.95-.5-4.76-4.93Z"/>
      <path class="cls-1" d="M26.97,53.55l6.48-10.34c-2.13.33-3.38.86-4.95,1.63l-1.53,8.7Z"/>
      <path class="cls-1" d="M8.64,30.94c.69-2.4,2.47-4.34,4.03-6.16-2.13,1.47-5.77,4.19-5.53,7.41.28,3.79,6.34,5.16,8.93,3.64-2-.21-8.41-1.47-7.43-4.89Z"/>
      <path class="cls-1" d="M33.59,42.28l.61-4.84c-3.76,1.78-5.19,1.19-5.43,5.93l3.93-1.01c-.62-.95-.08-.6.89-.09Z"/>
      <path class="cls-1" d="M41.58,40.89l1.11,2.83c.21-2.77,1.17-3.91,3.56-4.26-2.39-.63-3.35-2.15-3.57-4.48-.5,1.12-.72,2.97-1.42,3.3l-2.53,1.22c.86.36,2.57.68,2.85,1.39Z"/>
      <path class="cls-1" d="M42.24,6.13c-.75-.38-1.89-1.57-2.19-2.34-.47.87-1.59,2-2.31,2.32l2.3,1.83,2.19-1.81Z"/>
    </g>
  </g>
</svg>