<?xml version="1.0" encoding="UTF-8"?>
<svg id="Warstwa_2" data-name="Warstwa 2" xmlns="http://www.w3.org/2000/svg" viewBox="0 0 57.29 43.24">
  <defs>
    <style>
      .cls-1 {
        fill: #fff;
      }
    </style>
  </defs>
  <g id="game-icon-v6-elemental-pixarts-store">
    <g id="game-icon-v6-elemental-pixarts-store_209">
      <path class="cls-1" d="M21.01,17.82c.29,1.98,1.19,3.84,3.29,4.82,4.58,2.13,10.16,1.61,14.35-1.3,1.86-1.29,3.12-3.34,3.02-5.57-.93,3-3.51,5.4-6.99,5.65,1.88-1.32,3.54-2.69,3.64-4.88s-1.12-4.33-3.37-5.28c1.12,1.48,2.27,3.18,1.29,5.22-.56-5.56-9.07-7.42-13.51-6.54,2.63.57,5.07.56,7.08,2.14-4.64-1.04-9.11-.69-12.79,1.85-4.42,3.05-5.78,8.32-3.01,12.97,2.09,3.51,5.21,6.14,8.95,8.01,8.27,4.14,17.57,4.22,26.49,1.46-10.81,5.91-25,3.86-34.61-4.02,1.63,3.2,4.7,4.59,7.34,6.78-8.39-2.44-16.06-11.48-12.73-20.73-2.69,3.36-2.42,8-.76,11.91.98,2.31,2.77,3.92,4.17,6.15-2.28-1.6-4.01-3.62-5.4-5.92-4.19-6.94-1.78-15.28,5.2-19.37,4.38-2.57,9.29-3.04,14.56-3.21-6.97-1.49-14.47.6-19.96,5.16C2.2,17.32.21,23.33,1.47,29.82c-2.29-4.36-1.8-9.47.77-13.73C9.07,4.71,27.59,2.31,38.08,10.77c-.9-1.75-2.53-2.76-4.2-3.71-3.73-2.11-7.75-2.56-12.17-2.69,2.57-1.11,5.14-.33,8.12-.38-8.19-2.84-16.48-.98-24.05,2.05C15.55-.58,32.13-.44,41.01,7.13c2.68,2.28,4.25,5.38,3.92,8.86-.21,2.27-1.59,4.07-2.98,5.63,2.64-1.13,3.93-3.69,4.36-5.86.61-3.07-.5-5.47-2.24-7.96,3.26,1.45,4.64,4.5,4.86,8.16,2.72-5.46-1.2-11.18-5.52-14.5,6.79,2.85,11.31,11.15,6.95,17.98-4.03,6.32-12.41,8.08-19.67,7.71,4.51,1.59,9.14.64,13.87-.88-6.51,4.65-18.32,3.67-24.74-2.14,1.44,2.73,4.21,4.15,7.08,5.15,6.59,2.3,13.85,1.55,19.56-2.53,2.45-1.76,3.96-4.21,5.54-6.7-.23,3.28-2.4,5.37-4.59,7.74,5.86-2.56,9.58-8.33,9.41-14.73,2.16,7.6-3.42,14.42-10.18,17.63-6.74,3.19-14.04,3.7-21.11,1.4,2.7,2.63,6.15,2.61,9.32,3.91-5.35.02-10.43-1.66-14.2-5.04l.64.07c.08,0,.32-.13.27-.2-1.29-1.69-4.34-3.21-5.26-8.1-.42,2.66,1.4,4.7,2.84,7.05-2.82-1.78-4.66-4.96-4.69-8.38-.05-4.69,3.99-8.23,8.31-8.24-1.99,1.04-3.96,1.77-4.52,4.13l1.19-.84c-1.13,3.32.03,5.4,3.05,7.03-.97-1.91-2.69-3.28-1.45-5.68ZM48.48,18.49c.12-.23-.65-.98-.83-.79-.13.14-.5.52-.57.71l-.86,2.19c.74-.23,1.63-.91,2.26-2.11Z"/>
      <path class="cls-1" d="M54.09,29.64c-1.87,1.48-4,2.26-6.24,2.59l5.19-3.69c.17-.12.97-.06,1.18-.06.28,0,.09.99-.13,1.16Z"/>
      <circle class="cls-1" cx="44.92" cy="34.67" r="1.48"/>
      <path class="cls-1" d="M3.31,12.43c-.2.21-.96.39-1.23.33-1.68-.39,2.85-4.1,4.65-3.97l-3.42,3.64Z"/>
      <circle class="cls-1" cx="29.33" cy="41.77" r="1.47"/>
      <path class="cls-1" d="M38.36,3.1l-6.08-2.07c-.19-.06-.54-.38-.65-.5-.15-.17.56-.42.86-.53,2.19.54,4.35,1.22,5.88,3.1Z"/>
      <circle class="cls-1" cx="3.46" cy="26.82" r="1.32"/>
      <circle class="cls-1" cx="41.71" cy="3.42" r="1.33"/>
      <path class="cls-1" d="M22.45,42.14c-1.67.15-3.49-.42-4.34-2.16,1.62.23,3.01.92,4.34,2.16Z"/>
    </g>
  </g>
</svg>