<?xml version="1.0" encoding="UTF-8"?>
<svg id="Warstwa_2" data-name="Warstwa 2" xmlns="http://www.w3.org/2000/svg" viewBox="0 0 72.65 34.43">
  <defs>
    <style>
      .cls-1 {
        fill: #fff;
      }
    </style>
  </defs>
  <g id="game-icon-v6-elemental-pixarts-store">
    <g id="game-icon-v6-elemental-pixarts-store_426">
      <path class="cls-1" d="M37.6,34.36c-.44.09-1.09.08-1.71.02-7.83-.76-19.77-3.11-24.59-9.91-1.93-2.73-1.72-5.99.45-8.39,2.43-2.68,5.6-3.92,9.07-4.73l6.34-1.48c-4.24.14-8.5,1.05-12.55,2.68-2.96,1.18-5.15,3.2-7.02,5.75.75-4.59,8.26-7.64,12.24-8.56,8.1-1.87,18.64-2.15,26.06,2.09,1.43.82,2.32,2.14,2.65,3.61,2.49-3.79-3.9-6.91-7-7.58l1.57,1.36c-9.23-2.92-15.17-2.21-24.55-.77,1.71-.78,3.54-1.14,5.59-1.74-5.56.1-10.95,1.85-16.09,4.19C3.93,12.76.55,16.55.39,21.45c-1.92-5.69,3.62-10.48,8.54-12.59,8.83-3.78,18.55-4.79,28.1-3.57,3.9.5,7.23,1.65,11,2.91-3.45-2.83-13.78-4.88-18.16-5.12-2.88-.16-5.68-.08-8.53.01-1.08.04-2.19.4-3.1.04,9.18-1.85,28.22-.54,34.84,6.22,2.54,2.59,2.64,6.16,0,8.87,1.86-.33,3.35-1.88,3.98-3.61.87-2.36-.35-4.19-1.84-6.16,1.55.49,2.46,1.65,3.71,2.82-.02-3.64-5.36-6.67-8.55-8-3.89-1.63-7.91-2.4-11.95-3.27,6.88.12,13.39,2.13,19.29,5.47,3.71,2.11,5.5,5.72,5.54,9.87,1.36-1.97,1.16-3.93.37-6.08,2.48,2.26,2.15,6.03-.26,8.26-6.1,5.64-18.12,7.01-26.18,6.03,6.69,2.51,18.59.63,24.99-3.39-.56,1.28-1.84,1.79-2.95,2.85,3.84-1.04,7.24-3.09,9.93-5.76,2.36-2.33,2.8-5.28,1.73-8.65,2.27,2.45,2.34,6.27.24,9.04-1.43,1.88-3.23,3.33-5.32,4.47-9.72,5.28-23.12,6.25-33.54,3.05-2.18-.67-4.25-1.85-5.81-3.26-.55-.01-1.62-.19-1.88-.62l-1.53-2.5c-1.06,3.11,2.43,5.83,5.21,6.91l-1.13-1.81c7.03,4.6,15.43,4.77,23.58,4.37-2.59.55-5.17.69-8.03.97,8.77,1.05,17.44-.64,25.8-3.21-12.33,6.29-30.32,6.44-43.08.93,2.43,2.34,5.74,2.92,8.78,4.24-5.09-.66-11.48-3.17-14.62-7.04-2.12-2.6-1.71-5.92.72-8.1,2.72-2.44,6.13-3.44,9.63-4.06-4.13-.03-8.22,1.17-11.6,3.31-3.1,1.96-3.85,5.63-1.6,8.71-1.69-.63-2.56-2.27-3.19-4.17-1.73,5.38,5.9,9.49,10.14,11.22,4.47,1.82,9.06,2.49,13.94,3.34ZM44.92,19.03l-3.87.32c1.4-.86,2.78-1.29,3.42-2.63.67-1.4-.53-2.62-1.53-3.07.33.82.39,1.63-.12,2.26-3.17-3.09-7.63-3.21-11.39-2.71l4.07.61c-2.84.46-7.23.87-8.62,3.39.94-.48,1.68-.83,2.75-1.19-.62,1.76-.76,2.69.32,3.83.72.76,1.85,1.34,2.98,1.54-.82-.75-1.66-1.36-1.57-2.59,3.17,2.29,10.43,2.13,13.56.22ZM49.55,22.51c3.03.19,5.53-.61,7.86-2.31-.99.16-2.05.41-3.12.81l-4.74,1.5Z"/>
    </g>
  </g>
</svg>