<?xml version="1.0" encoding="UTF-8"?>
<svg id="Warstwa_2" data-name="Warstwa 2" xmlns="http://www.w3.org/2000/svg" viewBox="0 0 46.88 46.23">
  <defs>
    <style>
      .cls-1 {
        fill: #fff;
      }
    </style>
  </defs>
  <g id="game-icon-v6-elemental-pixarts-store">
    <g id="game-icon-v6-elemental-pixarts-store_141">
      <path class="cls-1" d="M38.6,15.81c-2.35-.51-3.3,4.09-3.47,6.03-.18,2-.58,3.27-2.06,4.55-3.06,2.66-3.84.41-5.55,2.09-.42.41-.77,1.72-.75,2.37.05,1.91-1.17,2.32-2.32,3.61l-3.41,3.83c-1.29,1.45-3.61,2.78-2.9,5.1,2.65,1.74,10.04.91,10.26-2.67,2.42,2.82,4.3-2.02,5.33-.41,3.1,4.67,2.22-1.41,6.75-.69l2.47-5.99c.59-1.42,1.28-3.05.93-4.72-.48-2.24-.46-5.29-1.6-7.13l-3.68-5.96ZM40.05,34.26c-1.03-1.93-1.9-3.86-3.06-5.49-.38-.53.04-1.65.56-2.36l2.27,4.89c.42.91.7,1.97.23,2.96Z"/>
      <path class="cls-1" d="M13.67,6.44c-1.37,1.06-3.02,1.62-3.71,3.33-.75,1.84-2.34,3.97-.83,6.29,1.69-2.47,4.15-3.96,6.59-2.86l1.12,1.99c.92-.28,1.34-.53,1.72-.38,1.75.69.59,3.2,2.61,4.12l2.06-4.86c.68-1.61,1.92-2.41,3.15-3.47,1.21-1.04,1.8-3.38,4.19-2.41l2.56-3.18,1.85,1.29,1.3-.65c.26-.13,1.05.71,1.09,1l.48,3.51c3.71,2.43.69,3.17,2.85,6.56l1.7,2.66c.77-3.07.68-6.08-.56-9.01l-2.84-6.72C37.49.1,33.33-.59,29.9.43c-2.21.65-4.27-1.26-9.09.73-.6.99-1.75,2.62-2.82,2.54-2.15-.16-2.94,1.68-4.32,2.75Z"/>
      <path class="cls-1" d="M3.59,29.85c-.13,3.03.31,7.08,2.25,9.35l5.68,3.09,3.03-.02-2.67-4.74c-.57-2.78-.91-5.04-2.09-7.67-.21-.47.06-1.28.17-1.76l1.45-6.16c.81.02,1.07.09,1.27-.09.16-.13.34-.83.36-1.08l.6-6.45-3.84,2.51-1.7-.02c-1.16,2.35-2.05,4.6-2.01,7.38.8-.76,1.02-1.19,1.7-2.31.39.76.76,1.81.95,2.85l-1.03-.63c.09.06-4.04,3.22-4.15,5.77Z"/>
      <path class="cls-1" d="M25.07,32.22l1.96-6.91-1.42.74c1.37-2.5,1-10,.06-13.21-1.75,3.66.05,6.81-2.76,10.78-2.19,3.11-2.07,6.78-.17,10.21,3.62-1.41-1.54-5.21,1.62-9.03-.15,2.8.01,5.16.72,7.41Z"/>
      <path class="cls-1" d="M30.74,9.29l-1.06,5.88c-.24,1.33-.59,2.61-.98,3.87-.51-2.38,2.12-8.06.18-9.33l-.46,4.78-.39-3.31c-2.28,2.09-.8,18.49.76,15.19l.34-.71-.03-4.92c2.65-3.25,3.77-7.63,1.64-11.46Z"/>
      <path class="cls-1" d="M20.13,28.11l3.32-7.24c.53-1.16.61-2.62.17-3.93l-1.09,3c-1.62.1-1.92,1.42-2.28,3.15l-1.72-6.38c-.45,2.81.01,5.24.13,8.06l.27,6.3c.07,1.72,1.38,3.72,2.04,5.69,2.13-3.7-1.59-7.04-.85-8.65Z"/>
      <path class="cls-1" d="M17.42,16.79c-1.05,1.62-.57,3.4-1.01,4.9-.64,2.19-.14,3.85.13,5.87.61,4.48-.97,9.04.42,13.49.8-1.38,1.01-3.05.71-4.49-.49-2.37.32-4.53.4-6.85.15-4.35-.25-8.65-.65-12.92Z"/>
      <path class="cls-1" d="M15.38,39.67l.38-7.56.29-4.36c-1.45.49-.21-5.89-.13-6.44.27-1.74-.13-3.88-.49-5.87-1.17,1.33-.93,2.76-.9,4.36.17,10.42-3.55,6.86-2.29,13.21l3.17-5.52c.06,3.85-3.4,5.41-2.01,9.36l1.44-2.94c.28,2.58-2.12,4.93.53,5.75Z"/>
      <path class="cls-1" d="M32.72,41.57c-.68,1.23-1.83,1.95-2.95,1.62l-.52.96c-.06.1-.24-.17-.57-.5l-1.98,1.61c3.43,1.17,6.39.89,9.42-.09-.21-2.15-1.58-.56-3.4-3.6Z"/>
      <path class="cls-1" d="M32.77,24.17c1.71-.18,1.07-7.14-.24-7.59l-2.28,4.55c-.62,1.23-.39,3.59-.15,5.03.53.05,1.68-.13,1.67-.6l-.02-1.86c-.02-1.82.11-3.47.47-5.11l.55,5.58Z"/>
      <path class="cls-1" d="M33.96,10.3c-.22-.9.54-2.64-1.02-2.91-.94,2.27-.92,5.02-.04,7.26l1.67,4.26c.22-1-.65-8.71-.62-8.61Z"/>
      <path class="cls-1" d="M2.89,43.38c2.44.8,4.59,1.12,7.1.37-.68-1.41-2.05-2.45-3.53-2.46-1.3-.01-2.56.93-3.57,2.09Z"/>
      <path class="cls-1" d="M37.09,12.37l-.71.84-.12-5.67c-1.89,2.74-2.01,6.05-.94,8.48l2.61-2.58c.19-.19.05-1-.17-1.16-.16-.11-.54-.07-.67.08Z"/>
      <path class="cls-1" d="M38.4,41.25l-1.69,2.28c1.91.94,4.04.62,5.69-.1-.7-1.97-2.63-2.4-4.01-2.17Z"/>
      <path class="cls-1" d="M10.58,45.84c2.37.55,3.89.51,6.19-.08-.89-1.34-2.01-2-3.26-1.96-1.14.04-2.31.79-2.93,2.04Z"/>
      <path class="cls-1" d="M3.62,41.62c.71-.03,1.27-1.57.9-2.21-1.02-1.74-2.4-3.1-4.14-3.7,1.31,1.52,2.35,2.72,3.08,4.13-1.5-.53-2.23-.85-3.45-1.03l3.62,2.8Z"/>
      <path class="cls-1" d="M41.72,40.54l1.76,1.45c.45.37,1.74-.07,2.3-.63l-2.1-.31,3.2-2.65c-1.5.2-2.37.55-3.85,1.14l2.9-4.98c-2.5,1.11-4.16,3.62-4.21,5.97Z"/>
      <path class="cls-1" d="M19.7,37.84c-.17-1.94-.53-3.23-1.06-4.74-.87,1.56-1.06,3.98,1.06,4.74Z"/>
    </g>
  </g>
</svg>