<?xml version="1.0" encoding="UTF-8"?>
<svg id="Warstwa_2" data-name="Warstwa 2" xmlns="http://www.w3.org/2000/svg" viewBox="0 0 57.57 45.81">
  <defs>
    <style>
      .cls-1 {
        fill: #fff;
      }
    </style>
  </defs>
  <g id="game-icon-v6-elemental-pixarts-store">
    <g id="game-icon-v6-elemental-pixarts-store_55">
      <path class="cls-1" d="M20.32,36.24v-11.96c2.64.54,2.49,2.96,3.24,4.55.64,1.35,1.5,2.72,2.35,4.02-2.05-6.28-2.68-4.44-2.89-12.08l-.26,4.16-2.43-1.47c.09-2.53-.32-5.44.41-7.8l3.16-10.24c1.73,3.98,2.95,7.33,4.25,11.21.5,1.49.21,3.57.18,5.28-2.97-5.11-2.24-5.91-3.3-11.28l.1,3.26c.19,6.37,3.6,6.26,3.41,13.6l-.19,7.43c3.06,6.96,1.17,3.44,5.98,8.4,1.44-.66,2.86-1.91,3.69-3.62l-2.6,2c-.28-2.72-.57-4.96-1.67-7.24l.87,7.85-2.72-2.29c-1.56-1.31-2.5-4.46-3-6.41,1.4-1.86,2.57-3.47,2.61-5.71l-2.26,4.25-.17-7.82c-.07-3.37.03-6.61,1-9.9L34.33,0c1.45,4.38,2.71,8.44,3.9,12.89.33,1.24.5,10.28.24,12.19l-2.2-.62,2.06,1.67.28,5.62c.07,1.37-.08,2.82-.2,4.2l-.3,3.65,3.38.69c1.36,2.31,2.97,3.4,5.26,5.05-2.66.18-5.3.08-7.9-.09l1.07-2.3-1.65,1.9-4.5-.86c-5.95-1.13-14.01,2.33-20.21,1.77,2.14-2.28,3.51-4.34,5.11-7.21l5.45,5.13c-1.23-2.66-3.71-4.4-5.99-7.09.32.96-.22,2.08-1.1,3.02-.68.27-2.08-.93-2.37-1.7l-.69.47c-.03-6.79-1.26-13.47-.6-20.11.35-3.55,2.61-6.79,3.24-10.09l1.85,6.58c.33,1.16.02,2-.5,3.29l1.04-1.17c.29,2.91.41,5.77.53,8.8l.23,5.71c.06,1.49.29,2.95.56,4.84ZM35.11,14.92l1.67-2.07c-1.35.72-1.88,1.31-2.84.59-1.82-1.37.54-5.25-.37-8.07l-.42,3.23c-.31,2.34-.69,4.37-1.45,6.67l1.33-1.96,2.08,1.62ZM27.23,39.57c.64-2.15,1.13-5.21-.46-5.68.87,1.82.73,5.43-1.09,6.15.02.25,1.43-.08,1.55-.47Z"/>
      <path class="cls-1" d="M42.22,7.7l2.95,7.44c.31.79.47,1.82.58,2.68.18,1.6.13,3.12.01,4.77-.23,3.15.13,5.99-.52,9.24-1.9-2.52-.25-4.03-3.45-6.07l1.47,2.71c.32.6-.18,2-.33,2.88l.73-.96c1.62,2.23,2.32,5.09,1,7.64l1.26-.16c.59.97,1.26,1.9,2.28,2.2l-2.04-2.77.04-8.84.32-6.75c.38-7.97,1.1-10.35,3.29-18.15,4.48,12.84,3.96,12.15,3.97,25.7-.73,1.89-1.49,3.69-1.97,5.46-.59,2.18,1.73,3.31,2.94,4.35l2.81,4.84c-1.8.02-3.7-.25-5.43-.76l.51.95-6.94-.51-3.17-3.18c.07-.39.51-1.19.69-1.43l-1.1.68c-.26.16-.62-.92-.7-1.04-.34.27-.84.65-1.2.77-.41.14-1.28-.83-1.27-1.34l.15-7.7.35-12.31,2.11-1.62-1.85.4,2.49-9.11ZM50.57,22.37c0-1.82.73-2.97,1.4-4.75l-1.34,1.47-.6-2.18-.26,1.48-1.37-1.82,1.55,3.37c.2.57-.08,1.97-.08,2.64l-.05,14.76c0,1.51-1.15,3.26.33,4.71l.22-12.25c.04-2.43.19-4.69.19-7.43Z"/>
      <path class="cls-1" d="M8.4,31.7l2.78,1.51-2.37-2.58c-.99-1.08-.61-3.41-.75-4.84l-.39-3.91c-.22-2.26.63-3.78,1.51-6.03l-1.89,2.51-1.57-2.07c.16,1.14,1.43,2.52,1.49,3.57l.39,7.11c.21,3.79.45,12.23-.31,15.82-2.46.83-4.74,1.31-7.28,1.17l3.33-6.17c.63-1.17,2.22-2.02,1.85-3.61-.38.98-.76,1.75-2.09,2.41l1.3-21.9c.28-4.64,2.54-8.73,3.69-13.37,3.41,9.86,3.88,14.62,4.5,24.77l.51,8.46c.09,1.51-.75,2.32-1.47,3.44l-2.08,3.25c2.55-.75,1-2.94,3.57-3.84,1.54,3.2,2.59,2.11,3.18,3.39.1.21-.1.9-.26,1.07l-2.76,2.95-7.62-.17c.78-.85,1.76-1.64,2.8-2.38l.48-.34c.07-.05.06-.21-.02-.2l-.9.07c.9-5.89-.23-4.49.38-10.09Z"/>
      <path class="cls-1" d="M54.28,37.92c-.69-.4-1.75-1.46-1.76-2.22-.02-1.72.42-3.13,1.52-4.34l.24,6.56Z"/>
    </g>
  </g>
</svg>