<?xml version="1.0" encoding="UTF-8"?>
<svg id="Warstwa_2" data-name="Warstwa 2" xmlns="http://www.w3.org/2000/svg" viewBox="0 0 61.18 62.41">
  <defs>
    <style>
      .cls-1 {
        fill: #fff;
      }
    </style>
  </defs>
  <g id="game-icon-v6-elemental-pixarts-store">
    <g id="game-icon-v6-elemental-pixarts-store_17">
      <path class="cls-1" d="M29.56,50.47l-2.09-12.91-4.65,5.59,2.81-5.96-3.95,2.02,2.52-4.52-4.2,1.17,3.39-2.31-12.55-2.32,12.95-2.05-7.1-4.99,7.26,3.61-2.78-4.46,5.06,2.95-1.26-4.49,2.4,3.39c1.28-3.89,1.15-9.96,2.37-12.82l2.01,12.85,4.99-6.49-3.4,7.26,5.15-3.19-3.05,4.97,4.41-1.29-4.12,2.63,13.43,2.13-13.54,2.3,7.19,5.19-7.58-3.7,2.48,4.52-4.72-2.68.69,3.31-1.92-2.58-2.2,12.87Z"/>
      <path class="cls-1" d="M16.34,19.15c-2.25-2.32-3.98-4.04-6.02-6.77l5.18,3.01.22-4.09c2.47,3.05,4.25,5.58,6.09,9.13-1.6-1.24-2.82-2.63-4.35-4.36l-1.12,3.08Z"/>
      <path class="cls-1" d="M49.33,50.84l-5.7-3.46-.42,4.13-6.34-9.41,4.84,4.38.88-2.75c2.39,2.25,4.68,4.45,6.73,7.11Z"/>
      <path class="cls-1" d="M17.31,44.03l-6.19,6.58c.5-2,1.31-2.97,2.43-5.41l-4.05-.29c3.05-2.23,5.77-4.32,9.21-6.28l-4.1,4.71,2.7.68Z"/>
      <path class="cls-1" d="M41.42,23.35c.92-1.78,2.15-2.75,3.59-4.11l-3.11-.71,7.01-7.35-3.28,6.11,3.46.78-7.66,5.28Z"/>
      <path class="cls-1" d="M7.04,22.29c-.26-1.81-1.19-3.13-3.4-3.67,2.21-.45,3.23-1.72,3.43-4.04.42,2.09,1.22,3.63,3.34,4.08-1.82.56-2.74,1.32-3.38,3.63Z"/>
      <path class="cls-1" d="M51.94,47.17c-.32-1.46-1.25-2.83-2.89-3.43,1.63-.7,2.6-1.87,2.95-3.72.39,1.75,1.18,3.19,3.19,3.68-1.53.5-2.39,1.37-3.25,3.47Z"/>
      <path class="cls-1" d="M41.08,10.87c-.18-1.28-1.11-2.53-2.22-2.92,1.27-.56,2.12-1.84,2.44-3.22.49,1.29,1.4,2.52,2.47,3.19-1.01.44-2.05,1.68-2.69,2.95Z"/>
      <path class="cls-1" d="M59.55,18.33c-3.98,2.08-7.93,4-12.29,4.82,3.83-2.6,7.89-3.94,12.29-4.82Z"/>
      <path class="cls-1" d="M12.22,39.2c-3.55,2.38-7.7,3.92-12.22,4.92,3.76-2.15,7.57-3.87,12.22-4.92Z"/>
      <path class="cls-1" d="M21.33,13.85c-2.43-3.52-4.42-7.16-5.33-11.78,2.3,3.48,3.97,7.41,5.33,11.78Z"/>
      <path class="cls-1" d="M43.58,61.24c-2.36-3.75-4.33-7.85-5.62-12.36,2.52,3.93,4.22,7.77,5.62,12.36Z"/>
      <path class="cls-1" d="M18.51,57.71c-.54-1.28-1.41-2.25-2.94-3.01,1.43.14,2.47-1.01,2.83-2.86l.79,2c.22.56,1.63.82,2.15.95-1.65.47-2.66,1.38-2.83,2.93Z"/>
      <path class="cls-1" d="M36,56.66c-1.44-3.64-2.26-7-2.75-10.79,1.66,3.39,2.62,6.89,2.75,10.79Z"/>
      <path class="cls-1" d="M53.96,25.7c-2.93,1.09-6.04,1.81-9.54,2.02,2.89-1.26,5.86-2.09,9.54-2.02Z"/>
      <path class="cls-1" d="M25.78,16.98c-1.18-3.59-2.01-6.88-2.5-10.54,1.49,3.4,2.51,6.92,2.5,10.54Z"/>
      <path class="cls-1" d="M4.69,55.36c1.16-2.45,2.79-4.52,5.22-6.13-1.26,2.35-3.09,4.28-5.22,6.13Z"/>
      <path class="cls-1" d="M15,34.72c-1.07.87-9.05,2.87-9.51,1.97,3.37-.93,6.21-1.62,9.51-1.97Z"/>
      <path class="cls-1" d="M61.18,31.25l-5.62.57c-1.07.11-2.9-2.56,5.62-.57Z"/>
      <path class="cls-1" d="M33.33,16.91c.09-2.98.74-5.75,1.99-8.65-.2,2.9-.81,5.73-1.99,8.65Z"/>
      <path class="cls-1" d="M24.2,53.72c.03-2.87.5-5.4,1.84-8.1-.02,3-.74,5.51-1.84,8.1Z"/>
      <path class="cls-1" d="M11.86,11.63c-2.52-1.59-4.4-3.54-6.12-5.47,2.72,1.69,4.63,3.13,6.12,5.47Z"/>
      <path class="cls-1" d="M29.46,6.76c-.57.28-.71-7.73.47-6.67.08,2.37.35,4.24-.47,6.67Z"/>
      <path class="cls-1" d="M14.59,27.59c-2.62-.11-5.24-.8-7.77-1.9,2.68.16,5.13.39,7.77,1.9Z"/>
      <path class="cls-1" d="M51.84,36.78c-2.73,0-5.1-.55-7.65-1.87,2.82.16,5.19.84,7.65,1.87Z"/>
      <path class="cls-1" d="M29.84,62.31c-.93,1.07-1.13-6.76-.19-6.35.46,2.27.41,3.66.19,6.35Z"/>
    </g>
  </g>
</svg>