<?xml version="1.0" encoding="UTF-8"?>
<svg id="Warstwa_2" data-name="Warstwa 2" xmlns="http://www.w3.org/2000/svg" viewBox="0 0 53.86 53.75">
  <defs>
    <style>
      .cls-1 {
        fill: #fff;
      }
    </style>
  </defs>
  <g id="game-icon-v6-elemental-pixarts-store">
    <g id="game-icon-v6-elemental-pixarts-store_59">
      <path class="cls-1" d="M15.01,38.31c-.6-.44.96-2.06,1.52-1.57.27.24.33,1.16.19,1.5-.14.33-1.27.39-1.7.08Z"/>
      <g>
        <path class="cls-1" d="M25.79,44.98c.49,1.13.89,1.95,1.44,2.79-.29-1.44-.51-2.23-.24-3.31l.46-1.83c1.29.87,2.97,1.46,4.34.8-6.02-1.03-2.4-2.1-5.2-4,3,.02,8.25.12,10.58-2.94-4.67,1.9-9.24,2.69-14.03,1.17-.81-.26-1.65-1.01-2.13-1.68l3.66.12c-8.22-2-6.74-3.35-7.85-4.36-1.27-1.15-3.2-1.47-4.41-2.91,1.97.48,3.75.97,5.8,1.21-1.68-.73-7.7-2.49-7.61-4.93.02-.52.59-1.4.99-1.77,1.02,1.85,2.27,2.75,4.15,3.51,6.86,2.79,14.55,2.77,21.52.25-6.21.59-12.11,1.39-18.15-.65,3.57-.32,7.05.43,10.67-.7-4.63.06-21.27-.77-22.65-6.84,2.58,1.11,4.8,2.48,7.72,2.64-2.61-1.16-5.03-2.19-7.44-3.77-.68-.44-1.05-1.49-1.46-1.99-.65-.78-1.61-1.58-2.34-2.35C.19,9.79,7.74,6.02,11.22,5.06c5.78-1.6,11.67-2.34,17.53-2.02l-5.52,1.07c7.96.49,15.9-.11,22.69,4.27,1.38.89,1.73,2.19,1.67,3.71.88-.87,1.52-2.05,1.39-3.2-.5-4.32-11.1-5.51-14.56-6.51,5.25.38,13.13,1.49,17.28,5.29,1.59,1.46,1.54,3.67.08,5.15-4.64,4.68-15.53,6.25-22.15,7.13,4.14.59,13.66-.99,17.6-2.89l2.99-1.43c-3.94,5.84-16.66,7.22-23.22,7.48,6.36.43,15.35.52,21.08-3.55-.12,1.28-1.01,2.27-2.08,2.97l-3.47,2.28c.33,3.52-11.26,5.75-13.52,6.16,3.71-.06,6.92-.89,10.51-1.86l-1.15,3.41.75.15c.22.04-.16.95-.08,1.16.24.64.94,2.05.73,2.7-.27.85-1.26,1.55-2.17,2.33.81-.16,1.79-.67,2.91-1.27-.4,3.45-8.7,4.18-11.49,3.43,3.4,2.04,7.26,1.1,10.48-.82.02,4.15-6.51,5.22-9.84,5.23,2,.55,3.91.38,6.29.19-2.25,1.85-4.73,1.93-7.67,2.23l3.84.73-3.02,1.2c-1.71.68-2.5,2-2.23,3.96-1.96-1.21-3.68-3.95-2.85-6.02.61.89,1.02,1.44,1.43,1.82-.68-1.7-.73-3.24.35-4.56ZM35.13,8.38c1.02.48,5.51,1.88,4.17,3.94-.27.41-1.18.91-1.64.84-2.53-3.12-9.54-2.83-13.35-2.46-2.59.25-4.76,1.09-7.03,2.44-.74-3.27,9.03-4.48,11.12-4.64-2.16-.88-17.43.37-13.85,5.08-1.11-.23-3.53-1.15-3.11-2.82.92-3.61,11.81-4.45,14.58-5.02-5.67-.23-11.76.19-16.24,3.06l1.2-1.76c-1.16.35-2.2,1-2.89,2.17-2.13,3.61,11.57,7.02,15.5,6.92.95-.02,1.92-.18,2.8-.14,5.01.23,9.57-.44,14.63-1.87l-2.94,2.54c1.81.18,2.52-1.11,3.51-2.24.63-.71,4.94-2.97,2.81-4.36-.03,1.34-.64,2.45-1.6,2.82.13-3.03-5.55-4.55-7.65-4.5ZM25.54,18.45l-2.34-.12c-4.26-.22-8.21-.78-12.6-1.61,1.42,1.13,3.14,1.87,4.76,2.5-.56-1.45,8.84.55,10.18-.77ZM22.03,22.63c-.54-2.2-2.73-2.82-4.27-2.18.33,2.37,2.99,3.06,4.27,2.18ZM38.01,24.01c-1.75-.53-3.51,0-3.88,1.63.56.5,1.96.62,2.6.12.43-.34.94-1.1,1.28-1.74ZM35.87,31.39c-5.77,1.77-11.35,1.87-17.46.6,3.06,3.85,14.06,1.96,17.46-.6Z"/>
        <path class="cls-1" d="M51.4,26.91l-4.86,1.67c-.1-2.87,4.96-6.72,4.38-4.74.28-.97,1.64-1.12,2.94-1.15l-1.73,3.25c-.14.25-1.08.24-1.53.27-.04-.04.14.13.8.7Z"/>
        <path class="cls-1" d="M1.59,22.25l1.04-1.14c-.43.16-1.5.49-1.76.18-.49-.74-.94-2.47-.87-3.43,4.25,1.86,4.23,1.73,5.78,5.74l-4.19-1.35Z"/>
        <path class="cls-1" d="M15.11,2.14l-3.31.42c.97-2.01,2.87-3.24,5.12-2.16-.08.62-1.1,1.64-1.81,1.73Z"/>
        <path class="cls-1" d="M11.99,32.36c-1.85.09-3.35-.76-3.95-2.88,1.72-.11,3.56.72,3.95,2.88Z"/>
        <path class="cls-1" d="M45.56,38.99c.09,2.32-1.37,3.08-3.01,3.26.44-1.68,1.48-3.4,3.01-3.26Z"/>
        <path class="cls-1" d="M4.48,5.72c-1.51,1.32-2.47,2.41-3.38,3.85-.45-2.24,1.75-3.66,3.38-3.85Z"/>
        <path class="cls-1" d="M29.52,14.71c1.78-1.32-5.19-1.23-6.28-.16-.24.32.49.84,1.01,1.15-.53,0-1.98-.28-2.27-.98-.3-.73,1.05-1.66,1.76-1.87,3.59-1.06,7.32-1,10.98.58-1.36,1.45-5.08,1.18-5.2,1.27Z"/>
        <path class="cls-1" d="M21.59,22.12c-1.48,1.16-3.13-.06-3.06-1.62,1.11.15,2.04.57,3.06,1.62Z"/>
      </g>
    </g>
  </g>
</svg>