<?xml version="1.0" encoding="UTF-8"?>
<svg id="Warstwa_2" data-name="Warstwa 2" xmlns="http://www.w3.org/2000/svg" viewBox="0 0 48.4 48.52">
  <defs>
    <style>
      .cls-1 {
        fill: #fff;
      }
    </style>
  </defs>
  <g id="game-icon-v6-elemental-pixarts-store">
    <g id="game-icon-v6-elemental-pixarts-store_539">
      <path class="cls-1" d="M2.72,45.76c3.92,3.97,9.79,3.53,13.58-.59,5.19-5.64,11.43-9.1,8.62-16.29-2.29,1.38-3.35,3.52-4.98,5.64-2.45,3.19-5.55,5.83-8.39,8.44-1.86,1.72-4.72.63-5.99-1-1.38-1.78-1.33-4.32.44-6.08,2.43-2.43,4.76-4.96,7.32-7.25,1.98-1.77,4.21-3.15,5.83-5.36-2.76-1.38-6.05-.86-8.11,1.16l-8.09,7.93c-3.91,3.83-3.88,9.7-.24,13.4Z"/>
      <path class="cls-1" d="M46.34,3.48c-3.03-3.68-9.01-4.89-12.76-1.43-2.83,2.6-5.39,5.26-8.04,7.99-2.31,2.38-3.21,5.68-2.16,8.98,1.99-1.52,3.45-3.42,5.16-5.38,2.42-2.77,5.1-5.32,7.78-7.87,1.98-1.88,4.99-1.06,6.28.59,1.61,2.05,1.56,4.65-.45,6.55-2.68,2.54-5.08,5.29-7.86,7.37-1.96,1.47-4.08,2.56-5.5,4.7,3.69,1.84,6.89.64,9.39-1.77l6.88-6.63c3.82-3.68,4.55-9.15,1.3-13.09Z"/>
      <path class="cls-1" d="M15.27,33.69c1.23.78,2.67.17,3.84-1.02l14.17-14.35c.89-.9.49-2.84-.25-3.46-.66-.55-2.55-.76-3.25-.06l-14.91,14.84c-1.21,1.21-.81,3.28.39,4.05Z"/>
      <path class="cls-1" d="M42.39,20.92l-2.13,8.13-6.53,1.6c-1.72,1.63,1.51,3.61-.17,8.25l-2.74-1.06c-4.29-1.67-1.28,4.06-9.48,4.69,1.17.37,4.29.92,5.04-.09l2.78-3.71,5.77,2.06c.42-2.71.65-5.84-.22-8.87l6.82-1.76c1.16-3,1.87-6.06.85-9.24Z"/>
      <path class="cls-1" d="M18.5,10.52c1.83-.43,2.88-1.92,4.11-3.46,1.06-.78,3.55-1.34,4.91-1.79h-3.73c-2.71.02-3.27,5.14-6.2,3.78-1.17-.54-2.33-1.39-3.23-2.06l-.79,5.33c-.13.84.21,2.47.35,3.87l-5.26,1.47c-2.53.71-2.83,4.46-2.67,6.57l-.18,2.42c3.14-.82,1.04-7.14,3.33-7.72l6.26-1.59c-.49-3.08-.65-5.62-.31-8.49l3.4,1.67Z"/>
    </g>
  </g>
</svg>