<?xml version="1.0" encoding="UTF-8"?>
<svg id="Warstwa_2" data-name="Warstwa 2" xmlns="http://www.w3.org/2000/svg" viewBox="0 0 55.98 53.99">
  <defs>
    <style>
      .cls-1 {
        fill: #fff;
      }
    </style>
  </defs>
  <g id="game-icon-v6-elemental-pixarts-store">
    <g id="game-icon-v6-elemental-pixarts-store_98">
      <path class="cls-1" d="M28.88,2.08c.61.59,1.87,1.43,2.95,1.81.39-1.49,2.53-2.73,3.24-1.75,1.05,1.47,1.75,2.15,3.29,2.87l.52-1.14c.68.76,1.17,1.25,1.91,1.89l-1.2.79c-.34.22-.42,1.49-.1,1.77l1.88,1.7c.8-1.48.62-2.87-.23-3.86l.37-.68c.11-.21-.22-.77-.47-1.07C37.18-.27,29.91-1.46,25.11,1.99c1.44.15,2.84.15,3.77.09Z"/>
      <path class="cls-1" d="M30.01,16.79c-3.9,1.67-7.68,3.59-10.57,6.56-4.07,4.18-4.6,10.06-1.48,15,2.9,4.58,8.58,5.88,13.9,4.81,6.48-1.29,10.25-7.12,9.09-13.69-.63-3.58-3.45-6.5-4.96-5.12-.23.21-.07,1.07.17,1.27l1.71,1.41c-.71,1.01-1.22,2.4-1.11,3.41l1.96,1.77-2.38,2.15c-.39.35-.47,1.54-.12,1.85.43.38,1.44.7,2.06.84-1.66.49-2.34,1.64-2.07,3.23-.3.89-.45,1.03-.41.07l-.39-1.64c-.09-.38-1.45.09-1.68.42l-2.56,3.64c-.55-.84-1.37-1.83-2.09-2.41-1.55.79-3.07,1.38-4.22,1.39.05-.82-.41-1.79-1.02-1.99l-5.73-1.8,3.3.18,1.13.09c.33.03.34-1.31.03-1.57-3.36-2.76-4.11-1.06-5.43-5.48l1.39,1.43,1.28-1.43c.85-.95-1.73-3.17-.78-5.62l.67,1.28c3.69-.23,2.06-3.72,3.35-6.03l.37,2.19c.69,0,2.37-.19,2.72-.81l1.34-2.41c.78.61,1.64,1.06,2.49.97,1.6-.17,1.03-3.11,2.4-4.31.26,1.04.82,1.6,1.49,1.46.65-.14,1.39-.8,1.94-1.41.51.44,1.38,1.13,2.02,1.01.93-.17,1.21-1.61.99-2.9l-3.07.16c.92-.42,1.84-.79,2.35-1.16.5-.36-.43-1.55-.46-2.73l1.56,2.29,2.28-2.1-3.85-2.88c.5-.29,1.28-.96,1.44-1.38.16-.42-.25-1.58-.73-1.8-1.03.19-1.72.59-2.15.93l-2.11-.4,1.05-1.67c.19-.3-.93-1.38-1.2-1.16-.7.57-2.08,1.85-3,2.69-.05-.9-1.22-2.52-2.35-1.94-.71.37-1.04,1.86-1.21,2.91l-4.15-1.67,3.08.2c.53.03,1.39-1.39,1.26-1.69l-2.48-1.23c-5.12,2.07-1.79,1.68-8.61,3.73-5.68,1.7-3.48.75-6.57,4.4l-3.12,3.69c-.28.33-.56,1.32-.5,1.71.07.47.75,1.22,1.23,1.43,5,2.25,7.54-2.35,12.78-2.73l-4.75,2.32c3.47-.24,9.94-3.53,8.36-7.6-.28-.73-1.97-1.25-2.76-1.59l3.09-.08.84,2.45c2.86-2.24,7.94-3.59,9.7-.48,1.9,3.37-1.63,6.22-4.78,7.57ZM18.04,10.18c-.23,1.01-.85,2.32-1.47,2.67-.86.48-2.35.5-3.76.18.85-1.02,1.9-2.32,2.79-3.26.46-.48,2.58-.19,2.44.41Z"/>
      <path class="cls-1" d="M7.46,43.88c-.77-.59-2.37-1.62-3.11-2.35l.87-3.15c.24-.86.2-1.89-.01-2.46,1.13-.04,2.12-1.12,2.45-2.58l1.18,1.49c-1.3.21-2.69,1.09-2.13,2.41.53,1.25,2.2,1.92,3.54,2.68l-1.64.18-.22.85c-.04.14-.65.26-.67.11l-.11-1.01c-.07-.67-.68-1.8-1.44-2.12-.73,1.14-1.05,2.64-.82,3.97,2.67,1.02,5.18,1.29,8.21,1.46l-2.24.51c-.12.34.05,1.72.5,1.97,1.16.63,4.48-.2,5.98-.62l-2.67,1.57c-.45.27-.03,1.55.34,1.92.36.37,1.72.44,1.96-.02.13-.26.14-1.22.13-1.32l1.19.73,3.03-1.62c-.66,1.23-1.85,1.56-2.92,2.35-.04.38.72,1.54,1.18,1.89.39.3,1.33-.08,2.16-.36l-1.02,1.19,1.92,1.88c-5.04-1.62-3-4.67-7.1-3.24-1.63.57-1.52-3.85-2.7-3.43l-1.55.54,1.31,3.26c-3.26-3.16-1.12-5.12-3.03-6.65-1.65-1.31-2.05,3.7.25,5.93.88.85,2.37.79,3.12,1.18,2.41,1.22,6.43,2.66,8.98,2.77l5.21.22c.28.01,5.04-.33,4.43-1.55-.14-.29-.58-.77-.96-1.05-.94-.71-2.02-.68-2.76.16-.36.41-.71.92-.48,1.08l1.19.83-2.08-.13-3.47-3.07c.88-.71,2.3,2.36,4.34,1.3.4-.21.87-1.13.7-1.38-.73-.69-1.51-1.57-1.59-1.92l3.96,2.11c.48.26,1.51.98,1.94.73.43-.25.93-1.25,1.3-2.04l-3.14-1.27c1.13-.22,2.05-.02,3.27.38l1.48-1.48c-.19.77-.65,1.67-.35,1.8l1.24.56c-.72.19-1.84.37-2.07.75s-.46,1.04-.63,1.6c5.33,2.38,12.07-3.92,13.5-8.44l-1.16.14c-.11.01,0-.14.06-.34l.37-1.2c-.36-.3-.11-.24.84.19,2.44-4.51.35-12.87-5.67-14.78,2.05,5.93.22,5.22,1.52,8.54,1.73-1.14,1.12-2.29.89-3.96.33.39,1.02,1.3,1.28,1.79.25.47-.46,1.51-.81,2.24-.44.91.47,2.05,1.56,2.47l-.19,1.69c-.88.37-1.75.83-2.11,1.32-.35.48-.23,1.77-.09,2.69l1.71.1c-1.49.57-2.31,1.68-2.75,3.26l-.25-1.77c-.05-.36-.93-.42-1.22-.54l1.49-.99c.34-.22.1-1.68-.3-1.74-.73-.12-2.32.45-2.31,1.08.02.87.14,1.92.31,2.51l-1.2,1.49c-.23.28.13,1.03.47,1.46-.75.28-1.69,1.03-2.22,1.82l-.22-1.25c.77-.63,1.41-1.66,1.45-2.95l-3.1.31-.17-.76c-.13-.58,1.84.48,3.71-.41.63-.3.19-2.2-.24-3.03-7.32,6.85-28.3,3.8-28.18-6.6.04-3.98,4.75-4.82,3.6-7.29-.2-.42-1.18-.57-1.77-.64l-.96,2.09-.31-2.1c-.05-.37-1.81.2-1.76.59l.49,3.51c-.25-.29-.53-.87-.8-.86l-.95.04c.55-.53.78-1.84.44-2.68-.24-.59-1.35-.5-2.18-.39l2.72-2.05c.07.41.77,1.35,1.27,1.38.56.03,1.32-.68,1.55-1.46.12-.42-.08-1.24-.22-1.71,1.14-1.07,3.98,1.09,4.8-.31l.84-1.42-1.66-.42c1.55-.27,2.54-.29,3.59-1.1-9.08.59-17.18,5.69-17.27,15.06l2.35-2.2c-1.36,2.85-2.74,4.32-1.04,8.11,1.17,2.61,2.65,4.88,5.06,6.62l-1.2-4.62Z"/>
      <path class="cls-1" d="M33.12,32.33c-.12.69-1.03,2.57-1.82,2.98-2.62,1.37-6.25-.21-6.71-3.31-.17-1.1.31-3.63,1.06-4.43l4.43-2.68c-.46-2.24-2.48-.79-3.48-.99-.91-.18-2.86-.81-3.48-.02-.25.32-.34,1.59-.02,1.73l1.62.74-3.14.56c-.51.09-1.41.91-1.45,1.42-.03.43.44,1.33.88,1.3l2.13-.18c-.62.57-1.95,1.46-1.56,1.83l1.66,1.59-.6,2.32,2.5.52-2.6.49,2.15,2.98c.48.66.78,1.64,1.4,1.61.96-.05,2.75-.6,1.48-1.89.75.11.93.2,1.32.1.27-.07,4.13-4.44,2.17-1.61l-.52.75c-.23.33-.56,1.08-.67,1.44-.11.36.84,1.07,1.23,1.17.44.11,1.49-1.02,1.41-1.47l-.36-1.84,2.07.53c.41.11,1.61-.67,1.49-1.07l-.35-1.12c-.25-.81-2.07,1.2-3.89-.07l2.46-.37c.32-.05,1.1-.67.97-.96l-.47-1.03c-.2-.44-.88-1.13-.67-1.45l.87-1.27c.11,1.26.13,1.82.28,2.51.14.65,1.5.61,1.97.2,2.21-1.93-3.53-3.75-5.28-4.31l1.54,3.28Z"/>
      <path class="cls-1" d="M45.84,16.42c-.77,1.28-1.48,3.44-.68,4.44.77.96,1.23,1.55,1.67,2.32l-2.02-1.31c.3,2.08,1.04,3.61,2.78,4.96.57-1.08,1.37-3.09.92-3.94-1.36-2.57-1.83-5.27.28-7.47,1.89-1.97,4.61-2.74,7.19-3.36-3.95-.93-8.12.99-10.14,4.36Z"/>
      <path class="cls-1" d="M49.08,43.5c3.11-1.16,5.35-3.96,6.03-6.65.82-3.26.03-6.73-2.16-9.01l-3.91-4.07-.66,3.22c1.64.27,2.93,1.12,2.59,2.38l-.44,1.62c-.07.27,1.15.45,1.27.19l.96-2.15c.06,2.03.55,3.21,1.78,4.92-.16.06-1.14.12-1.41.28-3.65,2.14-2.4,2.31-2.78,5.82l1.76-1.41c-.41,2.59-2.63,1.27-3.04,4.85Z"/>
      <path class="cls-1" d="M42.6,7.95c-.74,6.88-3.44,5.28-3.28,6.4l.4,2.72,1.68-1.11c-.95,1.02-1.68,2.15-2.33,3.43-.36-.92-.99-1.62-1.85-1.6-.72.02-1.91,1.11-1.93,1.87,0,.34.7.79,1.25,1.21-2.53,1.06-5.21-.32-5.44.78-.24,1.15-.36,2.14-.4,3.16,8.11-3.5,15.03-7.89,11.89-16.87Z"/>
      <path class="cls-1" d="M32.48,25.9c-2.01.89-3.53,1.62-5.25,2.78l3.49.83c.15-.46.24-.76.29-.91h0c.05-.16.05-.16,0,0,1.38.04,2.1-.09,2.38-.74.25-.59-.36-2.19-.9-1.95Z"/>
      <path class="cls-1" d="M7.19,16.73c-2.54,1.97-4.16,2.62-7.19,2.16l3.15.97-1.5.97c2.31-.56,4.65-1.43,5.54-4.11Z"/>
      <path class="cls-1" d="M36.48,27.61c-.06-.6-1.16-1.25-1.9-1.18-.67.89-.39,3.17.87,3.33.64.06,1.11-1.39,1.04-2.15Z"/>
      <path class="cls-1" d="M19.53,33.16c.03.48.71,1.21,1.09,1.5.38.29,1.99-.36,1.73-.9-.5-1.04-1.23-1.92-1.8-2.47-.57.76-1.05,1.39-1.02,1.87Z"/>
      <path class="cls-1" d="M32.33,18.21c-.36.13-.79,1.27-.62,1.6.17.33.88.55,1.36.59l1.54.12c.27.02.29-.81.28-1.67,0-.61-1.96-.85-2.56-.64Z"/>
      <path class="cls-1" d="M14.08,24.75c-.37.16-.83.67-1.27,1.33-.53.81.17,1.26,1.23,1.49.5.11.81-.34,1.49-1.76.22-.45-.94-1.28-1.46-1.06Z"/>
      <path class="cls-1" d="M45.28,39.13c.03-.58-.57-1.53-1.24-2.18-.31.27-.96.88-1.28,1.2s.21,1.61.59,1.98c.41.4,1.9-.42,1.93-1Z"/>
      <path class="cls-1" d="M29.4,23.11c.45.06.97-1.33.6-1.6-.73-.53-2.15-.9-2.46-.49-.26.34-.63,1.73-.21,1.79l2.07.3Z"/>
    </g>
  </g>
</svg>