<?xml version="1.0" encoding="UTF-8"?>
<svg id="Warstwa_2" data-name="Warstwa 2" xmlns="http://www.w3.org/2000/svg" viewBox="0 0 59.88 62.49">
  <defs>
    <style>
      .cls-1 {
        fill: #fff;
      }
    </style>
  </defs>
  <g id="game-icon-v6-elemental-pixarts-store">
    <g id="game-icon-v6-elemental-pixarts-store_260">
      <path class="cls-1" d="M51.62,14.26c-.86-1.28-1.14-1.06-2.67-1.61l1.89-1.78c.35.53.95,1.83,1.19,1.57.1-.1,4.84-6.61,3.66-7.88l-11.91,12-9.43,9.46c-.3.3-1.21.49-1.53.43-1.61,1.36-8.64,8.66-10.47,7.7-1.07,1.35-2.28,2.83-3.89,4.11.07-2.36.35-4.15.81-6.14,10.16-3.25,16.77-15.58,22.5-22.21,4.43-5.13,11.77-7.24,18.1-9.91-1.81,7.67-5.37,13.7-9.37,19.49-4.31,2.06-7.38,5.19-10.93,8.12-4.94,4.08-9.04,8.99-10.88,15.08l-6.49.71,4.96-3.19-2.58.19,6.13-8.12c2.65-3.51,5.77-6.33,8.62-9.59l2.83-3.24c1.92-2.19,4.16-4.29,6.24-6.06l3.2.85Z"/>
      <path class="cls-1" d="M9.29,55.78c-.97,1.69-4-.49-4.11-2.35.46-1.38,8.24-9.37,8.44-9.12l1.25,1.52c-.07-3.22-1.93-6-4.32-8.27-.09-2.43,2.66-4.77,4.88-5.17-.73,2.73-1.05,5.99,1.87,6.95,1.53.5,3.55-1.45,4.81-2.43l8.92-6.9-10.12,12.71c.84,3.02,4.48,4.92,7.89,3.56-.18,2.62-2.35,4.37-4.75,4.92-5.47-4.12-2.26-3.56-8.81-4.64l1.82,1.76-6.71,6.73-2.83-1.48,1.77,2.21Z"/>
      <path class="cls-1" d="M8.28,60.6l-8.28,1.9c.32-1.97.36-9.95,3.44-8.78,1.39.53,4.01,3.69,4.84,6.88ZM5.64,57.48c-1.12,1.12-1.82,1.79-2.51,2.21l.36-2.52c-.92.96-1.49,1.96-1.93,3.24,2.56.31,4.42-1.07,4.07-2.93Z"/>
    </g>
  </g>
</svg>