<?xml version="1.0" encoding="UTF-8"?>
<svg id="Warstwa_2" data-name="Warstwa 2" xmlns="http://www.w3.org/2000/svg" viewBox="0 0 56.64 60.54">
  <defs>
    <style>
      .cls-1 {
        fill: #fff;
      }
    </style>
  </defs>
  <g id="game-icon-v6-elemental-pixarts-store">
    <g id="game-icon-v6-elemental-pixarts-store_427">
      <path class="cls-1" d="M25.56,51.3c-3.85-5.17-6.5,2.42-10.75-.05-2.95-1.71-3.94.47-6.27,1.28-2.42.85-5.72.97-8.54.75l7.52-1.3,2.78-2.8c1.88-.13,4.07.39,6.36.98l4.47-3.2c-3.29-2.51-6.61-2.31-10.71-1.7l4.52-2.03c-2.68-2.44-8.45-.14-8.05-2.2l6.45.41c.55.03,2.26-.16,2.54.31l1.4,2.34,7.14-1.21-1.17-1.36,3.69-1.11,1.36,8.37c4.23-5.13.82-6.32,6.7-8.37l-.51,2.13c1.97.35,3.85-.98,5.46-1.88l7.1.1.15-1.77c.04-.44,1.38-.79,1.85-.78l2.29.05-2.46.94c-.48.18-.1,1.47-.04,2.34l-6.5.47c-1.57.11-4.04,1.99-5.08,2.71l7.24,3.06c1.31-.69,3.57-1.79,4.95-1.99,2.12,1.78,4.02,2.52,7.2,3.01-2.18,1.02-5.2.38-7.18-1.31-2.57-.59-4.08,3.75-6.99,1.25-1.97-1.68-4.05-1.54-6.13.56l8.08,4.09-2.53,2.58,6.25,3.04-9.22-2.33,1.97-2.8-10.04-4.32c-2.78,4.62-2.36,1.94-7.29,4.3l1.73,3.51-8.23,3.18,5.74-3.98-1.93-3.01,4.7-2.25Z"/>
      <polygon class="cls-1" points="38.07 15.12 29.39 44.35 31.25 24.26 24.53 28 27.73 .08 34.89 0 30.36 19 38.07 15.12"/>
      <path class="cls-1" d="M18.92,28.12c2.83,4.75,5.08,2.73,4.64,6.55-8.75-9.28-2.82-3.97-6.93-13.61,2,1.65,3.5,4.27,2.29,7.05Z"/>
      <path class="cls-1" d="M42.28,31.25l-2.35-4.01,3.63-4.03c-.31,1.34-1.12,2.5-2.03,3.6l.75,4.44Z"/>
    </g>
  </g>
</svg>