<?xml version="1.0" encoding="UTF-8"?>
<svg id="Warstwa_2" data-name="Warstwa 2" xmlns="http://www.w3.org/2000/svg" viewBox="0 0 48.85 50.53">
  <defs>
    <style>
      .cls-1 {
        fill: #fff;
      }
    </style>
  </defs>
  <g id="game-icon-v6-elemental-pixarts-store">
    <g id="game-icon-v6-elemental-pixarts-store_106">
      <path class="cls-1" d="M22.86,50.5l2.84.03c-.52-2.9-.55-6.09,1.32-8.71,3.31-4.63,9.51-3.12,10.39-16.25l-2.32,2.03c1.47-5.14.46-7.49-1.11-12.47l-1.93,2.2c-.33-3.86-1.24-7.07-3.04-10.52l-.72,2.03c-1.14-2.99-2.41-5.87-4.17-8.83l-2.79,7.26-1.15-.98-2.23,6.67-1.41-1.75-1.28,6.9-1.33-2.72c-1.09,2.87-1.34,5.83-.85,9.21l-1.66-1.54c-1.35,19.8,14.67,12.41,11.43,27.45ZM16.94,31.25c.11-2.04-.13-3.35-.42-5.23,3.02,4.02-.6,6.06,4.43,8.41v-2.54c.66,1.84,1.13,3.53,2.51,5.06.71-5.99-.18-9.03-4.87-13.1-1.46-1.27-2.63-2.59-3.3-4.29l4.86,4.19c.98-2.94-1.56-4.16-1.54-6.9l2.13,3.83c.63,1.13.52,2.8.71,4.31l2.09,2.86c2.06-12.82-2.74-7.58-3.04-15.35.85,2.23,1.92,3.92,3.5,5.85,1.09-4.96-.73-4.19-1.79-8.12l1.97,2.54.51-4.75.57,11.37c.67-.57,1.63-1.75,1.68-2.59l.22-3.67.72,3.13,1.28-2.26c-.92,6.99-4.75,3.65-3.98,13.96,3.38-3.31,1.61-4.61,4.75-7.69l-1.62,4.31c1.77-.55,2.82-1.63,4.26-2.9-1.22,5.17-8.47,2.73-7.22,14.11l2.83-2.18c.77-2.06,1.68-3.58,3.01-5.16l1.76-2.1c-.78,2.76-3.09,4.41-3.29,7.3l3.69-1.94c-1.83,3.81-7.39,2.02-8.68,8.51l-.55,2.77-1.2-3.98c-1.14-3.79-7.41-5.56-8.75-11.14l2.77,3.38Z"/>
      <path class="cls-1" d="M6.8,45.38c6.41,2.63,8.6-.68,13.92,2.47-4.22-8.25-11.16-2.83-13.9-7.12,1.18.45,2.54,1.23,3.58,1.17l3.44-.19c-2.19-1.37-4.08-2.57-6.22-3.58-1.77-.83-3.7-1.32-4.43-3.19.97.95,2.21,1.66,3.69,1.79-1.59-2.64-3.53-4.67-3.68-7.79l2.01,3.74.36-3.39.49,3.82c.15,1.14,1.18,2.4,2.03,3.15v-4.82c1.83,5.6-.5,5.49,5.58,8.74l-1.04-3.32-1.18-1.39c.45-1.57-1.38-5.87-2.13-7.33l-.51,1.33c-.08.22-.83-.27-1.01-.47l-2.48-2.7-.46,1.02c-1.41-2.03-2.26-3.87-3.03-6.12-1.48,3.37-1.4,6.63-.54,10.11l-1.29-.64c.15,3.13,1.52,5.83,3.35,8.34l-1.46.05c1.42,2.59,3.91,4.38,6.72,5.32l-1.81.97Z"/>
      <path class="cls-1" d="M47.27,31.7c1.14-3.64,1.11-7.16-.41-10.39-.12,1.11-2.66,6.57-3.09,5.51l-.28-.69-3.4,3.53-.6-1.31c-.89,1.43-2.56,5.72-1.77,6.59-1.08,1.44-2.04,3.16-2.63,5.1,6.02-2.65,3.63-3.76,5.65-8.49l-.12,4.51c.64-.46,1.83-1.45,1.91-2.13l.49-4.27.62,2.63c.61-.99,1.24-1.96,1.73-2.56-.1,3.15-2.18,4.45-3.3,6.81l2.72-.44c-2.4,2.2-5.93,2.25-9.31,5.46l3.99.27,2.6-1.14c-2.5,4.25-9.46-1.14-14.04,6.98,5.96-2.87,7.68.25,13.69-2.32l-1.62-1.05c3.01-.89,5.25-2.67,6.75-5.24h-1.38c1.86-2.66,3.06-5.09,3.38-8.28l-1.58.91Z"/>
      <path class="cls-1" d="M10.67,16.54c-5.36-4.74.69-7.12-.13-10.37l-2.75,3.56c-1.46,1.89-1.61,4.05-.35,6.19,3.14,5.32-1.96,6.5,1.87,10.01-.29-4.14,2.33-6.16,1.35-9.39Z"/>
      <path class="cls-1" d="M39.03,21.79l.5,4.28c1.63-1.53,1.75-3.3,2.09-5.4.34-2.09,1.92-4.21.83-6.37l-.3-.6c-.88-1.75-.1,4.18-1.67,4.51-.74-.04-1.29-1.14-1.54-2.07-.54.72-.27,1.86.59,2.67-.11.71-.58,2.22-.49,2.97Z"/>
      <path class="cls-1" d="M34.83,11.29c.9,1.01,1.51,2.18,2.23,3.46.23-1.81-.34-3.49-1.31-5.19-1.62-2.84,1.96-4.78-1.74-7.74,2.35,4.55-2.68,5.54.82,9.47Z"/>
      <path class="cls-1" d="M27.4,45.43c3.98-4.07,6.53-3.08,7.3-7.35l-5.16,3.72c-1.12.8-1.95,2.34-2.14,3.64Z"/>
      <path class="cls-1" d="M17.59,42.48c1.31.71,2.46,1.91,3.75,2.97-.12-1.87-1.44-3.18-2.88-4.19l-4.51-3.17c.26,2.39,1.84,3.42,3.64,4.4Z"/>
    </g>
  </g>
</svg>