<?xml version="1.0" encoding="UTF-8"?>
<svg id="Warstwa_2" data-name="Warstwa 2" xmlns="http://www.w3.org/2000/svg" viewBox="0 0 60.71 62.45">
  <defs>
    <style>
      .cls-1 {
        fill: #fff;
      }
    </style>
  </defs>
  <g id="game-icon-v6-elemental-pixarts-store">
    <path id="game-icon-v6-elemental-pixarts-store_505" class="cls-1" d="M43.5,27.66l6.88-4.72-8.47,1.39,10.26-15.05-15.08,10.59,1.7-9.33-5.07,7.53L30.46,0l-3.22,18.31-4.98-7.65,1.46,8.99c-5.36-3.37-9.27-7.18-14.88-10.11l10.14,14.8-8.63-1.57,7.21,5.11L0,30.91l17.47,3.49-7.07,4.43,8.73-1.26-10.16,14.92,14.81-10.14-1.57,9.27,5.03-7.99,3.22,18.82,3.24-18.54,4.66,7.71-1.32-9.19,14.85,9.94-10.02-14.63,8.63,1.52-7.35-5.03,17.56-3.39-17.21-3.17Z"/>
  </g>
</svg>