<?xml version="1.0" encoding="UTF-8"?>
<svg id="Warstwa_2" data-name="Warstwa 2" xmlns="http://www.w3.org/2000/svg" viewBox="0 0 49.02 48.51">
  <defs>
    <style>
      .cls-1 {
        fill: #fff;
      }
    </style>
  </defs>
  <g id="game-icon-v6-elemental-pixarts-store">
    <g id="game-icon-v6-elemental-pixarts-store_163">
      <path class="cls-1" d="M22.06,40.73l2.08,7.33.16-5.04c.1-3.24.47-6.38-.92-9.45-2.22-4.93-4.59-3.44-7.22-6.57l3.47,1.32-1-4.58-1.16-1.97,2.04,1.86c.2,1.87.65,3.47,1.72,4.77l3.06,3.71c.34-3.17.48-6.63-1.35-9.22l-3.22-4.57c1.96-.64-.45-2.2.66-3.39.78,2.47.69,4.95,3.22,6.84.21-2.38.36-4.78.2-6.99l-2.08-3.57,2.25,2.18.69-5.77.4,9.29c1.79-1.78,2.73-3.4,3.6-5.29.02,4.55-4.95,5.54-3.76,12.09l1.97-1.98,3.59-3.72c-1.04,2.57-2.92,4.29-4.79,6.59l.17,7.36c1.81-1.31,2.39-3.05,2.4-5.63l.48,1.89,3.45-5.3c.02-.79.11-.72.55.3l-3.06,4.74,1.41.12c-3.99,2.8-6.17,7.24-5.68,11.68l6.2-7.16c4.27-4.93,3.4-10.57,2.76-16.18l-1.24,1.57c-.11-2.73-.51-5.2-1.52-7.42l-.84.73c-.11.09-.26.11-.3-.02-1.04-4.28-3.34-7.35-6.04-11.28l-4.15,6.98c-.74,1.24-1.13,2.91-1.63,4.38l-1.06-1.47c-1.14,2.2-1.67,4.26-1.85,6.64l-1-.61c-.62,2.48-.16,4.36.84,6.97l-1.74-.51c-.34,12.88,11.22,12.77,9.96,19.29l-1.71-.93Z"/>
      <path class="cls-1" d="M37.03,32.11c-4.86,1.15-2.85,4.18-4.94,2.62l-2.17,2.5c-2.28,2.63-3.9,5.62-3.46,9.26,1.09-.81,2.26-2,2.62-3.07l1.52-4.49-.11,3.53c2.19-1.27,3.63-2.94,4.46-5.15l.06,1.79c1.82-1.32,2.99-2.63,4.06-4.13l.94.48,2.42-1.15-2.32,2.3c.55.16,1.15.34,1.32.39h0c.06.02.06.02,0,0-2.37.33-3.62.82-4.84,2.19l3.7.81c-5.48.31-4.07-.79-8.78,3.3l7.15.53c-1.75,1.21-6.95-.4-9.12,1.52l-3.6,3.18,5.33-.47c2.98-.27,6.32-.64,8.74-2.51.17-.13,4.12-4,2.87-4.82.9-1.23,2.01-2.9,2.82-4.42l3.31-6.2-8.45,1c-1.07.13-2.51.79-3.54,1.03Z"/>
      <path class="cls-1" d="M41.45,36.97h0c.06.02.06.02,0,0Z"/>
      <path class="cls-1" d="M5.56,41.09c3.53,7.04,9.16,6.82,17.1,7.19-.97-1.05-2.36-3.09-3.77-3.27l-8.66-1.1,7.19-.37c-.99-1.18-2.59-3.24-4.21-3.36l-3.99-.3,3.24-.74c-1.68-1.72-3.52-2.06-5.71-2.3l1.6-.55-2.75-2.87,4.73,2.77c1.06.62,2.24,1.9,3.8,2.97l-.75-3.57c1.21,2.87,2.67,5.41,5.19,7.34l-1.09-5.78c2.33,3.13.55,6.2,4.18,7.84,1.94-7.75-8.57-13.96-15.24-14.29l-6.43-.32c2.86,4.32,3.13,7.24,6.49,10.57-.01.02-1.04-.06-.93.16Z"/>
      <path class="cls-1" d="M35.42,30.41l5.64-1.64c.22-.06.86.3.93.12.99-2.54,2.2-3.91,2.17-6.98l-.08-10.14-7.97,4.19.93,7.32,1.3-5.35.39,1.78,2.42-3.58-2.07,5.04,2.54-.5c-2.67,1.34-4.54,3.21-5.06,6.57l5.13-2.32c-1.14,1.6-6.71,3.62-6.27,5.5Z"/>
      <path class="cls-1" d="M7.38,28.73l6.27,1.78c.03-2.37-4.01-2.84-5.52-5.15l4.31,1.78c-.4-3.75-2.83-4.85-5.65-6.97l3.32,1.27c-1.04-2.24-2.06-3.95-2.72-6.08l3.18,4.78.31-2.24c.33,2.14.5,3.69,1.31,5.17l.76-7.08-8.3-4.38c1.34,6.63-1.69,12.15,2.74,17.11Z"/>
    </g>
  </g>
</svg>