<?xml version="1.0" encoding="UTF-8"?>
<svg id="Warstwa_2" data-name="Warstwa 2" xmlns="http://www.w3.org/2000/svg" viewBox="0 0 45.94 47.17">
  <defs>
    <style>
      .cls-1 {
        fill: #fff;
      }
    </style>
  </defs>
  <g id="game-icon-v6-elemental-pixarts-store">
    <g id="game-icon-v6-elemental-pixarts-store_149">
      <path class="cls-1" d="M19.35,14.24l-3.15,3.93,1.2.26-2.35,7c2.95-1.65,4.98-3.2,7.11-5.18l.86.87,2.1-4.12,1.56,1.69,1.37-5.39,1.28,1.03,1.07-3.24-1.25-4.02-7.87,9.83c1.77-3.43,3.96-6.55,6.51-9.39,1.46-1.62,4.05-2.35,3.98-5.25l-3.35,3.96-5.41.41c-.17.01-.23.48-.1.6l.52.53-3.97,2.01,2.24.9-4.36,2.92,2.02.67Z"/>
      <path class="cls-1" d="M16.61,39.55l1.12.68c-1.29,2.32-2.1,4.34-2.65,6.94,2.19-.76,6.74-3.93,6.88-3.65l.51,1.02,2.21-3.81,1.13.74,1.14-4.06,1.17,1.27c.51-2.74.21-4.9-.69-7.19-2.15,2.84-3.55,5.26-5.75,7.61,1.55-3.1,3.36-5.71,5.41-8.51l-5.81,1.19c.32.61.75,1.12.53,1.26l-.85.55-2.5,1.63c.58.61,1.12,1.24.88,1.48l-2.74,2.85Z"/>
      <path class="cls-1" d="M38.28,21.29c.14-.09.64-.91.71-1.07.07-.15.29.27.39.43l.41.68,1.25-1.86c.19-.29.51-.77.71-.66l.92.45,1.45-3.9c.53.27.98.6,1.07.37.07-.18.33-.96.32-1.15l-.27-4.42-6.49,7.62c1.36-3.07,3.47-4.98,5.4-7.68-1.32-.42-2.57-.07-3.84.55l-2.27,1.1.71.93-2.74,1.89c.54.45,1.14.86.94,1.03l-.82.7-1.02.87c-.15.13.3.5.58.8l-2.01,6.04,4.6-2.72Z"/>
      <path class="cls-1" d="M4.77,34.6l1.15-.09c.28-.02.62-1.09.9-1.22,2.54-1.14,1.61-3.96,2.28-3.55l.94.57c.36-1.24.17-2.76-.45-4.19l2-3.83-2.87,2.66c-1.67.26-2.91.64-4.24,1.42l-.94.54c-.11.06.17.23.29.35l.55.57-2.8,1.68,1.05.83c.29.23-1.8,1.44-1.63,1.97l.35,1.07-1.19,3.94,4.64-2.7Z"/>
      <path class="cls-1" d="M5.89,8.22c-.09.21-.58.98-.64,1.25l-1.06,4.51c1.89-.83,3.08-1.65,4.45-2.79.21.07.69.4.78.21l.41-.89.67-1.42c.11-.24.8-.11,1.17-.16l.5-2.53,1.31.64-.58-4.18-1.72,1.3c-.18-.83,3.47-2.67,3.11-4.18l-2.06,2.21-4.63.99c.19.23.86.78.66.93l-.98.73-.82.61c-.16.12.48.59.65.78l-2.19,1.57c.39.15,1.06.17.97.39Z"/>
      <path class="cls-1" d="M40.51,29.33c.24.28.74.83.66.8-.04-.02-.57.11-.83.18-.18.04-.73.37-.61.5l.43.46-2,1.37c.17.54.48,1.02.27,1.24l-.88.92c-.11,1.24-.29,2.24-.69,4.18l3.12-1.64c1.02-.53,1.65-1.09,2.27-2.25.18.08.79.47.87.23l.36-1.05c.11-.32.2-1.13.43-1.23l.96-.43c-.34-2.14.02-3.87,1.07-5.64-1.94,1.47-3.47,2.09-5.43,2.36Z"/>
      <path class="cls-1" d="M8.38,42.61l2.22-5.34c-2.52,2.58-6.32,6.06-6.66,9.43,2.68-.4,3.64-2.15,4.45-4.09Z"/>
      <path class="cls-1" d="M44.63.1c-1.77,1.61-3.69,3.81-4.98,5.49-1.23,1.6,1.78,4.32,4.98-5.49Z"/>
      <path class="cls-1" d="M29.78,19.64c-.68-.16-6.88,7.64-5.15,7.46,2.38-.25,3.9-4.64,5.15-7.46Z"/>
      <path class="cls-1" d="M8.78,19.99c1.92.48,4.49-5.98,4.78-7.09-1.6,1.41-5.6,5.03-4.78,7.09Z"/>
      <path class="cls-1" d="M32.76,33.75c.56,1.63,4.08-5.83,3.89-6.7-1.79,1.37-4.64,4.53-3.89,6.7Z"/>
      <path class="cls-1" d="M31.37,45.6l1.98-4.87c-2.35,1.63-4.03,3.48-4.19,6.3.63-.1,1.98-.84,2.21-1.43Z"/>
      <path class="cls-1" d="M3.67,19.4c-1.37,1.03-2.84,2.81-3.45,3.95-1.2,2.24,2.75.82,3.45-3.95Z"/>
      <path class="cls-1" d="M13.72,34.08c1.42,1.44,3.58-3.91,3.69-4.7-1.83,1.26-3.05,2.84-3.69,4.7Z"/>
      <path class="cls-1" d="M16.24,8.3c1.97-.8,2.51-2.56,2.88-4.32-1.46,1.04-2.94,2.42-2.88,4.32Z"/>
      <path class="cls-1" d="M37.02,4.08c-1.46,1.21-2.71,2.58-2.94,4.56,1.95-.89,2.57-2.68,2.94-4.56Z"/>
    </g>
  </g>
</svg>