<?xml version="1.0" encoding="UTF-8"?>
<svg id="Warstwa_2" data-name="Warstwa 2" xmlns="http://www.w3.org/2000/svg" viewBox="0 0 48.53 53.58">
  <defs>
    <style>
      .cls-1 {
        fill: #fff;
      }
    </style>
  </defs>
  <g id="game-icon-v6-elemental-pixarts-store">
    <g id="game-icon-v6-elemental-pixarts-store_222">
      <path class="cls-1" d="M45.89,2.99c-5.73.46-5.77-.35-10.7-2.99-5.07,2.83-4.44,3.51-10.51,2.86-.31,6.31-.05,5.16-2.95,10.56l2.18,3.93c.57,1.02,1.01,3.1.38,3.74l-1.57.49c-.28.09-.23,1.31.01,1.54l3.78,3.63,2.31-2.88c2.13.5,4.64,1.74,6.24,3.34,4.43-3.02,4.5-3.76,10.67-3.51.08-6.84.02-4.44,2.8-10.41-2.3-2.99-3.2-6.31-2.64-10.29ZM41.54,5.22c.05-.48,1.59-.56,2.04-.37.62.25.68,2.14.09,2.47-.34.19-1.53.2-1.74-.13-.25-.41-.44-1.48-.4-1.97ZM33.83,3.08c.3-.03.97.55,1.21.47l1.52-.51c.63-.21,2.23.84,3.23,1.35.4.2-.04,1.75-.46,1.54-2.62-1.32-6.26-1.38-8.93.23-.42-2.08,2.3-2.97,3.44-3.07ZM27.52,4.64c.74,0,1.34.6,1.34,1.34s-.6,1.34-1.34,1.34-1.34-.6-1.34-1.34.6-1.34,1.34-1.34ZM25.31,13.73s-1.92-3.77,2.18-5.23c-1.13,3.62-.86,6.27-.14,10.04-1.66-.86-2.17-2.47-2.7-3.82l.67-.99ZM38.3,23.24l-1.52.72c-.33.16-1.04-.66-1.37-.83-3.51,2.33-3.86-2.9-8.15-.15-.34.22-1.7.34-1.63,0,.07-.33.27-1.07.42-1.4l.82-1.85c.18-.4,1.42-.46,1.62-.21l.73,1.6c.16.35,1.48-.23,1.83-.05,2.53,1.29,6.08,1.54,8.62-.45.81,1.59-.31,2.12-1.38,2.63ZM39.48,19.19c-3.24,2.54-7.33,1.21-10.4-1.55-1.08-2.79-1.4-6.36.48-8.53,2.01-2.33,5.05-3.33,7.78-2.43,2.57.85,4.64,3.43,4.77,6.52.1,2.45-.9,4.64-2.62,5.99ZM43.95,22.05l-2.31-.04.04-2.37,2.31.04-.04,2.37ZM42.93,18.25c.89-3.73.99-6.28-.18-9.75,3.25.55,2.67,4.71,2.67,4.89.01.56.76,3.67-2.5,4.86Z"/>
      <rect class="cls-1" x="-1.69" y="33.96" width="29.62" height="4.06" transform="translate(-21.74 20.11) rotate(-45.47)"/>
      <path class="cls-1" d="M11.02,53.58c.72-.51,1.94-1.7,2.3-2.34l-1.93-2.56c.08-.61-.1-1.73-.38-2.36-.15-.33.71-1.25,1-1.02l1.46,1.13,1.91-1.77,2.47,2.08,2.11-2.25c-.73-1.03-1.84-2.55-2.7-2.39l-1.87.36c-.28.05-.64-.68-.64-.95l.02-1.64c0-.29-1.15-.53-1.42-.27l-8.37,8.44c.44.57.9,1.16,1.14,1.03l1.02-.55c.44-.24,1.53.29,2.04.84.35.38-.25,1.04-.72,1.91l2.55,2.3Z"/>
      <path class="cls-1" d="M3.34,48.48l-2.65-2.27c-.35.47-.85,1.18-.64,1.43l.99,1.18c.24.29,1.04.75,1.38.9s1.09-.97.91-1.23Z"/>
      <path class="cls-1" d="M35.24,8.39c-2.81,0-5.09,2.28-5.09,5.09s2.28,5.09,5.09,5.09,5.09-2.28,5.09-5.09-2.28-5.09-5.09-5.09ZM35.22,16.25c-1.56,0-2.83-1.27-2.83-2.83s1.27-2.83,2.83-2.83,2.83,1.27,2.83,2.83-1.27,2.83-2.83,2.83Z"/>
    </g>
  </g>
</svg>