<?xml version="1.0" encoding="UTF-8"?>
<svg id="Warstwa_2" data-name="Warstwa 2" xmlns="http://www.w3.org/2000/svg" viewBox="0 0 66.03 55.81">
  <defs>
    <style>
      .cls-1 {
        fill: #fff;
      }
    </style>
  </defs>
  <g id="game-icon-v6-elemental-pixarts-store">
    <g id="game-icon-v6-elemental-pixarts-store_457">
      <path class="cls-1" d="M59.02,28.71l-2.84,1.38-2.39-5.86-2.88-1.82-3.08-8.18c-1.71-.27-4.82.37-5.67-1.43l-3.32-7.06c-1.17-.71-2.63-1.49-3.42-2.54l-2.43-3.21-5.45,7.08-3.93,6.53-2.75-1.17-3.89,7.76-2.64.71c-1.55,3.42-3.1,6.34-5.31,9.38l-2.05-2.11c-2.3,1.25-4.31,2.05-6.97,3.05l66.03-.03-7.02-2.5ZM22,22.48l-.64-8.69,1.62,1.39c.06,2.11-.18,4.88-.98,7.3ZM26.95,23.11l-2.76,4.87c.88-5.31,1.77-3.28,1.71-9.18,1.17,6.03,3.62,2.91,5.36,6.64l-4.31-2.33ZM36.77,20.33l-1.11-3.23c-.04-.11-.55-.58-.64-.51l-.73.57c-.29-1.75-.93-3.58-2.12-5.2l-1.5,1.07c2.31-3.7,1.13-7.95,2.41-12.31-.06,3.27.94,5.04,3.21,7.65-1.28-.71-2.04-1.83-3.15-3.1-.74,5.04-.44,5.86,2.14,10.4.82,1.44,1.92,2.62,1.51,4.65ZM46.73,15.02l-1.71,2.43-.25,4.26-1.76-7.06,3.71.37ZM42.91,23.28c1.3,3.16,3.94,3.46,4.1,6.65-.72.4-5.02-6.49-4.1-6.65Z"/>
      <path class="cls-1" d="M35.39,34.34c-2.39-3.24-10.91-2.21-15.04-2.13l-10.03.19,7.6,3.38c.82.43,1.35,2.53,1.55,3.23-1.71-2.77-2.79-3.01-6.57-4.2,1.98,1.97,3.72,3.49,5.05,5.78l2.68,4.61,2.93-.1.73-4.3c.74,3.65,1.53,7.31,4.11,10.27l4.13,4.74c1.03-4.82,2.15-5.31,3.09-10.17.09,1.94.31,4.22-.4,6.06l-1.02,2.66c3.29-1.63,2.99-4.24,5.32-6.36l4.86-.9,2.95-5.43-.38-1.62c2.56-4.38,6.22-2.43,8.52-7.74l-6.3,1.05.08-1.17c-4.72-.19-9.48.28-13.84,2.15ZM24.15,34.4l3.05,4.17,1.06-1.18c-.25,3.52,1.01,4.24.98,7.07-2.12-7-4.21-4.85-5.09-10.07ZM44.86,40.51l-.6-.98c-1.31.89-2.6,1.71-3.94,2.42,5.08-5.26,2.3-2.57,5.52-8.22l-.99,6.78Z"/>
    </g>
  </g>
</svg>