<?xml version="1.0" encoding="UTF-8"?>
<svg id="Warstwa_2" data-name="Warstwa 2" xmlns="http://www.w3.org/2000/svg" viewBox="0 0 47.03 58.99">
  <defs>
    <style>
      .cls-1 {
        fill: #fff;
      }
    </style>
  </defs>
  <g id="game-icon-v6-elemental-pixarts-store">
    <g id="game-icon-v6-elemental-pixarts-store_446">
      <path class="cls-1" d="M29.59,5.24L23.43,0c-6.09,6.09-4.16,3.65-9.74,6.42-5.77,2.86-2.67,3.66-13.13,5.42l.46.76C1.11,12.74-.01,13.19,0,13.4c.29,5.57,1.27,13.66,3.02,19.45,3,9.88,1.81,8.91,3.44,18.42l1.42-7.75c1.14,1.99,1.41,3.31,1.99,5.12l.49-1.15c.07-.17.68.42.78.61l2.22,4.1c.61-.23,1.25-.21,1.67.18,2.69,2.46,5.24,4.64,7.91,6.62.68-.79.96-1.12.85-.99-.07.09.83.58.92.51l8.32-7.05c.47-.4,1.44-.85,1.86-1.11l1.97-3.13,1.01,4.43,2.66-10.85,1.34,4.52c.59-3.57.87-7.1,1.82-10.61.69-2.59,1.09-4.7.94-7.54l.76.82c.78-5.1,1.34-10.31,1.65-15.91-5.22-.95-9.56-2.55-14.15-4.69-1.38-.65-2.12-1.17-3.29-2.16ZM43.1,22.57c-.04,1.01-.26,2.03-.42,3-2.16,13.05-8.42,22.03-19.2,29.78C9.03,44.57,3.6,32.62,3.67,14.86c1.57-.67,2.17.35,2.98,1.82l.7-2.99,4.73-1.65,1.85,3.48.81-4.75c3.1-1.85,5.99-3.88,8.86-6.24,7.06,5.49,10.67,8.04,19.8,10.28l-.29,7.77Z"/>
      <path class="cls-1" d="M15.43,11.82l-1.17,6.29-2.37-4.94-3.75,1.61-1.11,3.6c-.79-1.04-1.31-1.76-2.38-2.83.02,4.34.34,7.64.9,11.35l3.34,2.68-2.85-.96c1.53,7.37,5,13.45,9.79,18.65l1.22-4.24v5.62s6.12,5.27,6.12,5.27l.58-4.97.54,4.75c2.71-2.12,4.74-4,7.03-6.18,2.4-2.29-.9-3.07-.63-6.02l2.45,3.67c3.72-4.57,6.18-9.72,7.52-15.15-.91-.78-1.55-1.41-2.22-2.14l-.92-1.79,3.34,3.12c1.09-4.81,1.5-9.04,1.54-13.52l-5.28-1.87.66,5.05c-1.49-2.31.04-4.43-2.92-6.04l-2.43,3.75,1.03-3.97-9.28-6.2-.39,4.02-.67-4.12-7.68,5.53ZM24.22,19.31l2.69-1.92c.44,1.71-2.95,2.79-3.06,5.28l2.68-1.58c.43,2.09-3.3,2.11-2.05,6.33,3.98-1.41,1.97-3.72,4.26-5.35l-.31,3.19c2.55-1.06,1.31-4.49,3.28-5.17l-.35,3.35c1.39-.64,2.63-1.23,4.31-1.7-.82,1.59-2.2,2.13-3.69,3.06l3.18,1.17c-1.58,1.36-4.03-1.08-6.08.38l2.45,1.35c-1.63,1.2-4.49-1.88-6.16,1.3,2.16,2.38,3.71.18,6.23.97l-2.55,1.35c2.07,1.54,4.07-.72,5.93.16l-2.89,1.47c1.18.73,2.4,1.36,3.43,2.84-1.71-.29-2.98-.98-4.2-1.61l.39,3.33c-1.94-.8-.86-4.13-3.32-5.09l.34,2.83c-2.16-.02-.42-4.12-4.36-4.82-.89,3.69,2.22,3.87,2.13,6.14l-2.52-1.54c.27,2.83,2.78,2.63,2.86,5.21l-2.65-1.95-.16,2.85c-.02.44-.47,1.3-.77,1.66l-.6-4.78c-1.12,1.1-1.45,1.95-2.75,1.85l2.64-3.43c.1-.13.23-.91.25-1.08.02-.16-.49-.16-.61-.05l-.53.48-.51.46c-.12.11-.75.05-.71-.11.58-2.32,3.16-2.27,2.29-5.73-2.79.16-2.96,3.12-3.76,4.59-.08.15-.56.07-.56-.12l-.02-1.01-.03-1.27c0-.23-.83.52-.93.74l-1.75,4.17c-.34-1.23-.09-2.07.1-3.4-1.31.63-2.59,1.27-4.22,1.76.75-1.76,2.14-2.07,3.52-2.91l-3.12-1.49c2.45-.82,3.51,1.14,6.04-.14l-2.58-1.3c1.9-1.36,4.16,1.5,6.32-1.21-1.94-2.85-4.47.05-6.36-1.13l2.57-1.36c-2.32-1.31-4.06.57-5.87-.24l2.81-1.44c-1.11-.74-2.48-1.09-3.43-2.94l4.3,1.8-.45-3.22c1.79.27.86,3.54,2.9,4.91.14-1.55.18-2.35.33-2.92,1.44,2.3,1.47,4.51,3.98,5.02,1.67-3.31-1.97-3.81-2.16-6.18l2.59,1.31c-.18-2.71-3.38-3.29-2.69-5.01l2.48,1.94.7-4.87c.6,1.89.6,3.03.74,4.8Z"/>
    </g>
  </g>
</svg>