<?xml version="1.0" encoding="UTF-8"?>
<svg id="Warstwa_2" data-name="Warstwa 2" xmlns="http://www.w3.org/2000/svg" viewBox="0 0 52.79 52.65">
  <defs>
    <style>
      .cls-1 {
        fill: #fff;
      }
    </style>
  </defs>
  <g id="game-icon-v6-elemental-pixarts-store">
    <g id="game-icon-v6-elemental-pixarts-store_265">
      <path class="cls-1" d="M32.87,36.5v7.33c2.05.02.25,2.67,2.3,3.63.3-2.31-3.09-11.85-.99-12.41,1.41,2.6,2.2,5.19,2.95,7.93.32-1.48.68-2.88,1.55-3.9l14.1-16.38-2.32,9.57c-.41,1.71-.52,3.68-1.22,5.3-.92,2.12-1.77,4.54-1.32,6.74l3.25,3.76-10.73.88,2.23,2.43-9.65-.48c-4.04-.2-9.64,4.65-12.08-1.05l1.47-2.62c-1.23.77-2.27,1.7-3.2,2.56l-8.23,1.09c.47-2.9,6.17-6.41,8.9-7.49-1.02-1.52-1.51-3.14-1.17-4.8.92-4.39,2.04-8.67,2.41-13.07.28-3.31.64-6.2,1.42-9.41L26.44,0c1.48,5.3,1.4,10.18,3.13,14.94l1.58,4.37c-.23-.62,2.66,14.85,2.64,14.65.05.47-1.68.56-1.95.98l-5.06,7.88c-.5-1.4.05-12.88,1.75-12.93-2.2-2.63,1.08-3.38-1-3.72-2.24-6.97-.57-13.16-1.11-20.78l-3.45,17.47c-.57,2.88-.7,5.8-.95,8.9,1.28-4.74,1.38-8.81,3.06-14.35.51,7.89,2.06,8.89,1.01,17.39-.38,3.06-.49,7.55-.6,10.4-.02.42-1.02,1.14-1.28.92-1.85-1.59-1.38-3.31-2.22-2.7-.38.28-1.3.95-1.17.85,2.16,1.1,1.09,2.4,2.97,3.78l2.85-1.16,3.7-7.13c.58-1.12,1.29-2.03,2.53-3.25ZM40.6,46.3l5.98.05c-1.29-2.05-2.93-.59-4.67-.62l1.75-2.02c1.13-2.93,2.02-5.83,3.27-8.63,1.12-2.49,2.64-4.75,3.33-7.23l-2.82,4.41c-1.27,1.98-3.17,3.03-4.74,4.96l3.01-1.51-1.83,5.61c-.57,1.76-1.82,2.95-3.26,4.98Z"/>
      <path class="cls-1" d="M6.73,45.32c1.98-.3,4.32,1.13,4.36,2.01.02.39-1.02,1.3-1.49,1.25l-7.53-.76,3.19-4.27-.52-4.2c-.06-.46-1.03-1.48-1.14-1.93L0,22.59l8.73,9.75,7.41,8.15c.46.51,1,1.01,1.19,1.42.22.47-.54,1.73-.98,2.05l-4.21,3.11c-1.73-2.02-3.81-3.31-5.4-1.74ZM6.93,34.76l2.8,1.33c-1.23-1.35-2.48-2.12-3.5-3.44l-3.41-4.43,3.32,7.13,1.75,3.89c.75,1.68,1.42,3.45,2.74,4.49l-3.69-8.98Z"/>
      <path class="cls-1" d="M19.58,27.52c-.62,4.36-1.59,7.84-2.59,12.05l-3.9-4.7-2.45-23.96,6.71,12.1c.57,1.04,2.43,3.11,2.23,4.51ZM14.12,20.94c-.37-1.54-.95-3.01-1.75-4.35,1.19,5.57,2.23,10.77,4.56,16.12l-2.82-11.77Z"/>
      <path class="cls-1" d="M36.65,38.35c-1.3-4.12-2.35-8.09-3.13-11.96l8.72-15.62-2.05,23.3c-.29,1.96-1.16,3.49-3.54,4.29ZM37.65,23.6c-.09,1.96-.16,3.03-.08,4.35l2.75-11.3c-1.78,3.29-3.47,6.21-4.86,9.99.97-1.06,1.55-2.03,2.19-3.03Z"/>
      <path class="cls-1" d="M10.11,27.58c1.83.9,1.63,3.62,1.45,5.91-1.83-1.6-1.87-3.63-1.45-5.91Z"/>
      <path class="cls-1" d="M41.69,33.58l-.19-4.2c-.03-.71,1.02-1.67,1.85-1.88-.06,2.3-.1,3.99-1.66,6.08Z"/>
    </g>
  </g>
</svg>