<?xml version="1.0" encoding="UTF-8"?>
<svg id="Warstwa_2" data-name="Warstwa 2" xmlns="http://www.w3.org/2000/svg" viewBox="0 0 61.26 36.42">
  <defs>
    <style>
      .cls-1 {
        fill: #fff;
      }
    </style>
  </defs>
  <g id="game-icon-v6-elemental-pixarts-store">
    <g id="game-icon-v6-elemental-pixarts-store_323">
      <path class="cls-1" d="M22.46,36.42l7.76-13.51-25.59-4.4,25.67-5.08L22.66,0l38.6,18.04-17.95,8.78-5.32,2-15.52,7.6ZM29.54,30.17l12.85-7.13,10.4-4.94-32.42.32,14.92,2.68-5.75,9.07Z"/>
      <path class="cls-1" d="M8.7,13.59c-2.93.39-5.8.61-8.56.16l19.69-2.26c.38-.04,1.3.3,1.38.46l.27.53c.08.16-1.01.7-1.23.71l-11.54.4Z"/>
      <path class="cls-1" d="M21.53,24.42c-3.14,1.74-8.75.58-14.43,1-2.53.19-4.79.69-7.1.04l16.81-1.62c1.61-.16,2.88-.17,4.72.58Z"/>
      <path class="cls-1" d="M21.77,29.07l-13.07-.18c4.64-.95,9.01-1.09,14.44-.89.2-.1-1,1.08-1.37,1.07Z"/>
      <path class="cls-1" d="M23.03,9.01c-4.52.26-8.41.28-12.86-.05l5.94-.42c2.24-.12,4.65-1.42,6.92.47Z"/>
    </g>
  </g>
</svg>