<?xml version="1.0" encoding="UTF-8"?>
<svg id="Warstwa_2" data-name="Warstwa 2" xmlns="http://www.w3.org/2000/svg" viewBox="0 0 59.53 54.49">
  <defs>
    <style>
      .cls-1 {
        fill: #fff;
      }
    </style>
  </defs>
  <g id="game-icon-v6-elemental-pixarts-store">
    <g id="game-icon-v6-elemental-pixarts-store_469">
      <path class="cls-1" d="M11.06,48.35l10.63-4.32-2.97-2.3-5.69,1.04c-1.96-1.28-3.49-1.21-5.81-1.37,5.06-1.63,4.22.76,6.22.41,6.11-1.06,4.69-2.03,9.64.87l7.43-5.65c-2.29-4.3-6.57-4.41-11.15-3.46l3.67-1.12-1.49-2.64-1.32-1.16c4.27.48-1.25,2.47,8.34,3.88l3.33,3.15,8.81-4-5.48-4.08,3.73-1.68c.07-.15.5-1.05.5-1.07,0-.01.6.58.71.7l3.36-.74-5.69,2.96c1.97,1.6,3.73,2.86,5.85,3.74l-8.95,5.45c1.44.53,3.25,1.47,4.42,1.36l5.15-.49-4.19,1.44c.72,1.12,1.53,1.94,2.48,2.15l3.47.76c-3.12.73-5.31-.65-7.39-2.65l-5.95-.95-5.97,6.26,4.03,4.74c2.04-.81,4.22-1.87,6.38-2.45,1.94.32,4.16,1.17,5.89,1.94-1.88-.17-3.65-.77-5.53-1.14-1.93.65-3.7,1.62-5.47,2.73l4.59,3.74,22.88-.06v-12.68s-9.67-5.25-9.67-5.25c1.36-1.15,2.55-1.89,4.17-2.74l1.09,4.3c.19-2.7.17-4.67.05-6.92l-.84,2.14c-.17-.86-.06-1.58.17-2.4l1.13-4.09c-2.48-1.4-4.72-3.23-7.31-4.14-1.95-.68-3.84-.94-5.55-2.19-3.52-2.59-2.99-.17-8.44-2.33l-4.21-1.67c1.4-.47,5.63-.36,6.89,1.22l.71-4.7,5.74-3.49-1.39,4.34-.87,2.71,1.18-1.09c1.08.75,1.3,1.26,1.92,2.63,1.01-1.59-.05-7.34,1.67-10.48l1.09,4.31.76-6.26c.56.07,1.01.28,1.06.59l.23,1.35c.16-1.55.45-2.96,1.41-4.41l-11.23-3.09,4.59,3.3c-2.73.99-5.85,2-8.93,2.92-1.3.39-2.47.33-3.2,2.09l7.55.16c-.51,1-1.6.46-2.61.46-6.9.06-9.92-2.37-14.02,1.21l2.45,1.29c-1.23.25-3.3.2-4.36.64l-9.52,3.92,1.04,8c2.05-1.95.35-3.56.64-6.05,1.36,1.22,2.54,2.37,3.85,3.71,2.51,2.58,7.15-.63,9.4-.68-1.14.72-2.65,1.04-2.47,2.06-1.11.11-2.22.38-3.47.71l-12.6,3.35c2.71,2.95,1.26,2.73,3.23,5.34-1.59.7-3.59,1.46-5.01,2.29L.04,38.08l-.04,16.14c6.47,1.69,9.07-5.06,11.06-5.87ZM23.92,14.2c2.19-.55,4.31-.73,6.74.17-2.28.29-4.32.21-6.74-.17Z"/>
      <path class="cls-1" d="M22.81,46.53c-6.33,2.65-10.74,1.88-13.58,7.91l18.24-.15-3.07-3.92c-.62-.79-1.02-2.61-1.59-3.84Z"/>
    </g>
  </g>
</svg>