<?xml version="1.0" encoding="UTF-8"?>
<svg id="Warstwa_2" data-name="Warstwa 2" xmlns="http://www.w3.org/2000/svg" viewBox="0 0 59.17 59.08">
  <defs>
    <style>
      .cls-1 {
        fill: #fff;
      }
    </style>
  </defs>
  <g id="game-icon-v6-elemental-pixarts-store">
    <g id="game-icon-v6-elemental-pixarts-store_353">
      <path class="cls-1" d="M22.88,51.17c-2.68-1.11-4.87-2.02-6.91-3.16,2.28.02,4.26.32,6.76.04,7.13-.79,12.93-6.74,12.57-13.96-4.49,8.43-14.5,10.89-22.83,6.21.64,1.3,1.59,2.18,2.74,3.34-6.18-.7-11.05-4.7-15.22-9.43,2.99,10.2,13.09,17.59,22.88,16.96Z"/>
      <path class="cls-1" d="M59.17,24.26c-2.54-9.79-12.94-17.69-22.5-16.06,2.55.78,4.68,1.48,6.86,2.57-4.87,0-8.97-.19-12.82,2.27-3.99,2.55-7,6.64-6.53,11.64,4.94-8.99,14.45-10.37,23.4-5.79-1.24-1.55-2.39-2.53-3.83-3.82,6.43.73,11.42,4.41,15.42,9.18Z"/>
      <path class="cls-1" d="M50.69,24.22c.58,2.41,1.16,4.65,1.19,7.27-3.94-8.34-11.7-14.32-21.08-9.64,11.38,1.02,16.01,8.33,16.76,18.11l1.3-5.28c2.86,5.89,2.46,12.11.3,18.2,6.98-8.09,7.8-20.17,1.53-28.66Z"/>
      <path class="cls-1" d="M20.01,8.41c-1.38,3.11-2.96,5.31-3.54,8.37-1.09,5.72.89,11.91,6,14.96-4.43-9.06-1.2-18.72,7.02-23.13-2.03.24-3.17.6-4.76,1.03,3.34-5.13,8.42-7.46,14.23-9.27-9.43-1.78-19.74,3-24.02,12.17l5.07-4.13Z"/>
      <path class="cls-1" d="M44.72,45.93c-1.65,1.49-3.43,3.09-5.5,4.59,1.47-3.1,3.06-5.53,3.67-8.7,1.07-5.54-.75-11.46-5.85-14.43,4.25,8.95.99,18.26-7.1,23l4.59-.8c-3.38,5.36-8.99,7.65-15.06,9.18,9.99,1.58,20.85-2.87,25.25-12.84Z"/>
      <path class="cls-1" d="M28.25,37.21c-9.52-.65-16.05-7.98-16.35-17.96l-1.32,4.45c-2.78-5.17-2.24-11.1-.65-17.04-6.6,7.98-7.33,19.36-1.54,27.63l-1.04-7.24c3.73,7.59,11.28,15.15,20.9,10.17Z"/>
    </g>
  </g>
</svg>