<?xml version="1.0" encoding="UTF-8"?>
<svg id="Warstwa_2" data-name="Warstwa 2" xmlns="http://www.w3.org/2000/svg" viewBox="0 0 49.31 65.79">
  <defs>
    <style>
      .cls-1 {
        fill: #fff;
      }
    </style>
  </defs>
  <g id="game-icon-v6-elemental-pixarts-store">
    <g id="game-icon-v6-elemental-pixarts-store_166">
      <path class="cls-1" d="M1.27,38.26c1.67,10.3,17.54,19.09,23.79,27.53,2.24-2.57,4.68-5.09,7.27-7.4l7.25-6.46c8.39-7.48,10.59-13.41,9.45-23.97-.26-2.4,1.08-5.24-1.38-7.07-1.1-.82-1.47-3.33-1.46-4.66-2.43,2.21-.97,4.88-.41,8.21-1.55.01-3.01-1.36-3.47-2.62-1.77-4.76,4.82-6.82-.49-11.85-1.31-1.24-1.98-3.13-2.08-5.1-4.66,3.56,2.76,7.43-.73,10.48-1.78,1.55-2.64,2.71-4.03,4.78-6.44-4.62,3.68-6.81-.99-11.21-.15,2.08-.69,3.8-2.18,4.81-4.56,3.11-.12,6.05-2.67,8.69-1.57,1.62-2.9,3.47-4.08,5.38-.67-1.03-1.74-2.68-2.59-3.68l-3.07-3.59c.05-.03-.67.44-1,.67-1.37.91-4.57-4.09-5.18-6.46l-1.06,3.83c-4.4-2.79-1.22-6.78-1.6-10.33l-3.31,4.15c-4.23,5.31,2.06,7.95-.05,11.51-.63,1.07-2.04,2.15-2.93,2.27.16-3.51.5-5.98-2.36-7.24.78,2.99.56,5.23-.89,7.4-1.58,2.36-.96,4.48-.52,7.16l.77,4.75ZM7.78,33.44l1.29,2.53c.2-4.09.69-7.22,4.72-7.74l-.92,3.71c1.38-1.23,3.43-3.38,4.98-3.68,3.52.28,5.32,3.38,7.24,5.97,1.78-2.44,3.46-5.56,6.72-5.71,2.11-.1,3.55,2.16,5.31,3.51l-.99-3.76c3.45.42,4.47,3.32,4.54,7.39l1.65-2.97c.35,1.75.11,4.11-.35,6.1l.89.4c.92.42-2.27,6.55-3.49,8.15l-1.22-4.27-.63,3.4c-.37,1.96-1.01,3.52-2.34,5.25l-.74-2.31c-1.21,2.55-2.47,4.93-4.55,6.63l.22-3.11c-2.19,2.08-3.47,4.26-4.97,6.97l-4.82-6.96-.5,2.82c-1.98-1.88-3.06-4.39-3.9-6.96l-.7,3.13c-2.07-3.02-2.08-5.49-3.57-9.23l-.13,4.96c-1.75-2.35-3.2-5.09-4.31-7.8,3.06-.42-1.15-2.17.57-6.4Z"/>
      <path class="cls-1" d="M21.91,14.65l1.95-.41c1.46-.3,3.35-1.44,3.77-2.49,2.09-5.19-3.99-4.67-2.1-11.75-3.13,1.44-4.11,4.76-2.21,7.92,1.6,2.67-2.91,7.04-1.41,6.73Z"/>
      <path class="cls-1" d="M24.94,51.62c2.47-2.61,5.24-5.23,7.53-8.06,2.01-2.49.46-5.68-1.57-6.63-2.14-1-4.23.17-5.89,2.34-1.37-1.74-3.16-3.16-4.81-2.8-1.88.4-3.35,2.06-3.41,4.09-.06,1.99,1.11,3.86,2.43,5.21l5.72,5.85Z"/>
    </g>
  </g>
</svg>