<?xml version="1.0" encoding="UTF-8"?>
<svg id="Warstwa_2" data-name="Warstwa 2" xmlns="http://www.w3.org/2000/svg" viewBox="0 0 48.81 42.08">
  <defs>
    <style>
      .cls-1 {
        fill: #fff;
      }
    </style>
  </defs>
  <g id="game-icon-v6-elemental-pixarts-store">
    <g id="game-icon-v6-elemental-pixarts-store_119">
      <path class="cls-1" d="M25.22,38.85c-.35.86.23,2.08,1.04,2.74l1.38-2.78c-.98-.36-2.21-.47-2.42.04Z"/>
      <path class="cls-1" d="M41.75,35.43c.53-.14.88-1.69.67-2.15-.17-.38-.87-1.09-1.28-1.08-.71.01-1.92.76-2.43,1.24.34,1.08,1.64,2.36,3.04,1.98Z"/>
      <path class="cls-1" d="M23.93,9.65c-6.24,4.19-12.38,7.36-19.21,10.74,3.36,1.98,5.68-1.51,9.61-2.45l-5.42,3.37c.73.67,1.88,1.44,2.78,1.67,4.17-2.54,7.84-4.97,12.22-7l-11.18,8.15,1.96,2.39c1.54-.99,2.21-1.48,3.79-2.08l-3.37,2.77,1.5,2.59,8.97-5.93c-1.06,1.07-1.96,1.82-3,2.73l-5.32,4.71.66,2.62,2.68-1.37-2.81,3.41,1.83-.35c-1.11,1.09-2.06,2.52-2.24,4.18,4.83-4.68,9.46-8.69,14.59-12.66l13.82-10.71c.85-.66,1.45-1.72,1.57-2.78l-2.76,1.42,2.67-2.23c.3-.25.64-1.12.45-1.42-1.01-1.62-5.88,3.46-7.32,3.29l6.53-5.23c.36-.29.71-1.13.68-1.52-.31-4.2-10.27,6.51-11.77,7.3,1.32-2.8,8.32-7.51,9.96-10.33.39-.83-1.45-2.68-2.3-2.63l-7.87,4.97,6.14-6.12C39.87.26,38.27-.03,36.79,0l-6.18,5.06c-.65.53-.82,2.45-.79,3.13l2.22-1.36c-2.23,3.35-5.56,5.05-9.29,6.03l-2.45,1.32c1.45-1.49,3.06-2.47,3.63-4.52ZM20.88,22.33c2.96-2.62,5.97-4.62,9.64-6.22-2.98,2.39-6.19,4.6-9.64,6.22ZM31.74,22.74c-.51,1.45-2.35,1.78-3.47,2.79l-4.5,4.04c.89-2.44,5.21-5.45,7.97-6.83ZM25.28,30.7c1.76-2.02,3.91-4.03,6.64-5.47-1.89,2.11-3.86,3.74-6.64,5.47ZM29.73,21.8l2.21-.09-4.77,1.61,5.29-5.8.87,1.14-3.59,3.15ZM28.1,13.75l.83-.67c2.12-1.73,3.69-3.87,6.22-5.52-.04.66-5.68,6.14-6.46,6.35-.14.04-.69-.06-.58-.15Z"/>
      <path class="cls-1" d="M37.65,26.85l.37-1.33c-2.47.97-4.42,2.41-6.4,4.16l-4.03,3.56,4.87,2.25.12-1.5c0-.11,2.4.8,1.65-.04l-.81-.9c-.31-.35-.66-1.19-.87-1.99l16.26-1.34-10.34-2.14c-.26-.05-.88-.49-.82-.73Z"/>
      <path class="cls-1" d="M9.27,39.05c1.95.87,3.86.37,4.75-1.57,0,.07,0,.12,0,.19.96-6.21-2.99-12.08-8.71-13.07-.56.44-1.24.87-1.88,1.23-2.43,1.36-.4,10.44,5.83,13.22ZM6.51,26.69c1.83.4,3.68,1.58,4.31,3.19-1.01-.57-4.47-3.9-5.71-2.02-1.94,2.93,2.88,10.9,6.03,9.14.38-.21.86-1.23.83-1.74l-.24-3.68c.86,1.37,1.59,4.43.05,5.67-.47.38-2.08.52-2.69.24-3.28-1.49-5.13-5.13-5.07-8.78.02-1.16,1.32-2.28,2.49-2.02ZM10.31,35.41c-2.9-.28-4.9-3.28-3.82-5.85,2.99-.67,4.59,3.89,3.82,5.85Z"/>
      <path class="cls-1" d="M10.4,40.99c-.92.61,2.68,2.01,4.56.2.82-.78,1.24-2.29,1.29-3.41l-1.35-.96c.69-.26,1.75-.39,1.73-.83l-.06-1.72c-.04-1.31-1.23-2.76-2.4-2.11-.14,1.86,1.63,4.07-.14,5.56.09,2.41-1.84,2.07-3.63,3.27Z"/>
      <path class="cls-1" d="M14.03,37.72s0-.03,0-.04c0,.02,0,.03,0,.05,0,0,0,0,0,0Z"/>
      <path class="cls-1" d="M30.1.57c-.73.69-1.11,1.45-1.52,2.34l-.12-1.72c-.02-.3-.61-.39-1.13-.51l-3.27,10.75c1.87-.15,4.59-1.15,4.84-2.87l1.19-7.99Z"/>
      <path class="cls-1" d="M1.4,29.8c-1.86-1.23.62,7.68,3.28,7.6l-2.52-6.14c-2.35-5.75,3.29-6.27.53-9.19-2.3.93-4.04,5.93-1.3,7.74Z"/>
      <path class="cls-1" d="M4.9,24.08c4.04.12,5.19,2.98,5.65.83.3-1.4-4.87-3.78-6.39-2.89-.35.47.12,2.04.74,2.05Z"/>
      <path class="cls-1" d="M4.1,2.09l8.27,9.43.87-.34c1.26-.5-7.67-8.88-9.14-9.09Z"/>
      <path class="cls-1" d="M10.99,25.43c-.1.24-.22.97-.07,1.2l2.92,4.35c.15.22,1.14.13,1.21-.12.07-.26.06-1-.11-1.25l-2.68-3.95c-.16-.24-1.16-.48-1.27-.24Z"/>
      <path class="cls-1" d="M10.74.83l7.13,7.55c-.91-4.04-4.43-5.66-7.13-7.55Z"/>
      <path class="cls-1" d="M10.23,41.89c-.04-1.25-.39-1.61-1.05-1.88l-3.47-2.26c-1.24-.81-1.26,2.23,4.52,4.14Z"/>
      <path class="cls-1" d="M10.88,13.73c-1.82-1.98-3.35-3.57-5.09-4.74l3.45,4.98c.1.14.95.55,1.14.61.19.07.27-.27.51-.85Z"/>
      <path class="cls-1" d="M11.52,5.08l4.51,6.49c2.93.8-4.11-6.62-4.51-6.49Z"/>
      <path class="cls-1" d="M9.85,34.61c.12-2.45-.91-4.08-2.97-4.83-.4,2.28.98,4.36,2.97,4.83Z"/>
    </g>
  </g>
</svg>