<?xml version="1.0" encoding="UTF-8"?>
<svg id="Warstwa_2" data-name="Warstwa 2" xmlns="http://www.w3.org/2000/svg" viewBox="0 0 58.25 56.41">
  <defs>
    <style>
      .cls-1 {
        fill: #fff;
      }
    </style>
  </defs>
  <g id="game-icon-v6-elemental-pixarts-store">
    <g id="game-icon-v6-elemental-pixarts-store_473">
      <path class="cls-1" d="M41.2,25.45l7.59-4.48-10.01,2.34c2.04-2.24,4.01-4.49,5.74-6.94l8.85-12.5-11.41,9.31-.08-1.16-7.48,6.24,1.81-9.51-4.39,7.52L29.2,0l-2.89,16.47-4.29-7.86,1.7,9.58-7.38-6.24.53,1.72c-3.57-3.23-7.13-6.42-11.36-9.31l6.94,9.83c.29.4.36,1.49.78,1.92,2.25,2.31,3.99,4.56,5.76,7.06l-9.65-2.26,7.47,4.64L0,28.18l17.76,3.03c-3.35,1.75-5.89,2.34-8.44,4.38l10.26-2.45-5.75,6.99-.96,1.89-7.57,9.93,12.33-8.94c2.19-1.59,4.22-3.09,6.49-4.95l-2.09,10.14,4.52-8.08c.99,5.7,1.35,10.67,2.74,16.28l2.42-15.83c1.97,2.44,2.89,4.49,4.63,7.29l-1.96-9.69,7.12,5.97v-1.32c3.68,3.15,7.05,6.04,11.3,8.88-1.97-3.04-3.88-5.38-6.12-8.03-.58-.69-.91-2.08-1.46-2.76l-6.16-7.66,10.16,2.29-7.6-4.57,16.65-2.83-17.05-2.68Z"/>
      <path class="cls-1" d="M50.33,17.49l3.12-3.41c-2.79.45-5.24,1.2-6.68,3.86l3.56-.45Z"/>
      <path class="cls-1" d="M18.1,9.48c.28-3.34-1.77-5.07-4.05-6.41.33,2.91,1.98,4.9,4.05,6.41Z"/>
      <path class="cls-1" d="M10.12,39.92c-2.36-.87-3.94,1.54-5.21,3.14,2.28.03,4.19-.88,5.21-3.14Z"/>
      <path class="cls-1" d="M39.67,45.68c-.13,2.68,1.71,4.31,3.52,5.56-.55-2.58-1.69-4.25-3.52-5.56Z"/>
    </g>
  </g>
</svg>