<?xml version="1.0" encoding="UTF-8"?>
<svg id="Warstwa_2" data-name="Warstwa 2" xmlns="http://www.w3.org/2000/svg" viewBox="0 0 51.71 51.68">
  <defs>
    <style>
      .cls-1 {
        fill: #fff;
      }
    </style>
  </defs>
  <g id="game-icon-v6-elemental-pixarts-store">
    <g id="game-icon-v6-elemental-pixarts-store_251">
      <path class="cls-1" d="M46.88,48.42c0,1.79-1.45,3.24-3.24,3.24s-3.24-1.45-3.24-3.24,1.45-3.24,3.24-3.24,3.24,1.45,3.24,3.24ZM45.78,48.32c0-1.22-.99-2.21-2.21-2.21s-2.21.99-2.21,2.21.99,2.21,2.21,2.21,2.21-.99,2.21-2.21Z"/>
      <circle class="cls-1" cx="2.45" cy="48.07" r="1.76"/>
      <path class="cls-1" d="M51.28,20.96c-.5.85-3.34-1.2-2.71-1.63l1.29-.9c.39-.27,1.75.23,1.83.69.09.46-.12,1.35-.41,1.84Z"/>
      <g>
        <path class="cls-1" d="M45.23,32.16c-1.74,12.45-12.74,20.45-24.69,19.43C8.91,50.6-.27,40.38,0,28.4.33,14.23,13.23,3.9,27.13,6.86c1.06.23,2.63.25,3.38.54.84.32,1.96.96,2.88,1,1.77.08.57-4.82,2.72-3.46.33.21.78,1.01.8,1.46l.19,3.99c4.31-1.1,6.6-4.21,8.35-7.78.91-1.84,3.02-3.04,4.88-1.71.59.42.95,2.11.66,2.75-1.28,2.88-4.19.77-8.23,5.98-1.08,1.39-1,2.89-.3,4.4.2.44.09,1.68.52,1.77l2.28.46c-.14,1.16.36,2.17,1.41,3.23l-2.81,1.5c.75,3.62,1.92,7.11,1.36,11.18ZM33.27,25.19c.29-1.04.5-1.76.35-2.29-.13-.45-1.42-1.22-1.87-1.07l-3.03,1.02c.45-.55,1.01-1.24,1.11-1.81.09-.48-.53-1.93-.97-2.1l-3.14-1.19c1.29-.46,2.91-1.23,3.06-2.29.11-.8-.9-2.19-1.44-2.69l1.6-1c.51-.32-.9-2.93-4.61-3.39C11.63,6.77,1.34,17.37,1.74,29.29c.22,6.51,3.16,12.29,8.69,16.56,6.61,5.11,16.08,5.56,23.41,1.03,6.64-4.1,10.81-12.15,9.73-20.1l-1.05,2.4c-.34-1.5.04-3.52-1.69-3.77-.73-.11-.86,2.12-.42,2.78.94,1.42,1.03,2.96.32,4.05-.21-2.31-.85-3.35-1.59-4.8-.61-1.2-.61-2.71-2.03-3.22s-2.47.2-3.56,1.22c-.75.34-1.04.4-.28-.24ZM40.29,15.63l-.96,2.43c-.71-.94-.8-1.99-.16-3.25l-2.96-2.92-.82,1.13c-.58.8-.52-3.32-.88-1.09l-.18,1.12c-.04.24-.6.5-.94.61l-.47-2.92c-1.47-.32-3.37.93-3.14,2.4.54,3.49-.5,7.54,2.87,7.59.66,0,2.09.05,2.38.51l.99,1.53,4.73,1.33c.09-1.07.06-2.83-.02-4.05-.1-1.5,1.5-2.92-.44-4.42Z"/>
        <path class="cls-1" d="M7.35,6.21c0,1.8-1.46,3.25-3.25,3.25s-3.25-1.46-3.25-3.25,1.46-3.25,3.25-3.25,3.25,1.46,3.25,3.25ZM6.25,6.03c0-1.23-1-2.23-2.23-2.23s-2.23,1-2.23,2.23,1,2.23,2.23,2.23,2.23-1,2.23-2.23Z"/>
        <circle class="cls-1" cx="32.44" cy="1.49" r="1.49"/>
        <circle class="cls-1" cx="48.63" cy="12.3" r="1.35"/>
        <path class="cls-1" d="M18.41,12.95c1.25,2.51-7.35,8.74-9.33,7.13-.39-.32-.68-1.52-.56-2.03.89-3.73,4.11-6.26,8-6.23.54,0,1.67.69,1.9,1.14Z"/>
        <path class="cls-1" d="M36.37,41.28c-1.99,3.53-10.08,8.2-13.12,5.04,5.14,1.63,12.89-6.04,12.8-6.1.14.09.45.22.62.26.15.03-.16.55-.29.8Z"/>
        <path class="cls-1" d="M6.49,25.74c-1.27-1.35-1.26-3.07.44-3.69.64-.23,1.68,1,1.62,1.7-.08,1.04-.71,1.65-2.06,1.98Z"/>
      </g>
    </g>
  </g>
</svg>