<?xml version="1.0" encoding="UTF-8"?>
<svg id="Warstwa_2" data-name="Warstwa 2" xmlns="http://www.w3.org/2000/svg" viewBox="0 0 58.71 58.88">
  <defs>
    <style>
      .cls-1 {
        fill: #fff;
      }
    </style>
  </defs>
  <g id="game-icon-v6-elemental-pixarts-store">
    <g id="game-icon-v6-elemental-pixarts-store_379">
      <path class="cls-1" d="M33.47,40.93c-3.19,3.64-6.97,6.17-10.94,8.62,12.49-3.12,23.28-11.32,29.51-22.73-3.35,2.85-6.14,5.77-10.18,7.8C49.41,26.17,57.87,13.1,56.13.43c-1.72,7.24-4.95,13.55-9.49,19.47-11.51,15.03-27.92,25.19-46.64,27.57,11.3,3.21,23.68-1.3,33.47-6.53Z"/>
      <path class="cls-1" d="M28.1,24.03c-4.3,4.8-9.58,7.85-15.63,10.56,15.38-.55,33.16-18.81,29.77-34.59-1.03,6.66-3.42,12.61-8.1,17.19l1.04-6.36c-3.2,6.11-7.45,11.14-13.6,15.34,2.5-.16,4.29-1.27,6.53-2.15Z"/>
      <path class="cls-1" d="M50.01,48.37c-10.08,6.87-21.87,9.27-33.85,5.98,9.9,8.45,27.24,4.3,33.85-5.98Z"/>
      <path class="cls-1" d="M23.33,6.71C20,17.17,11.32,25.18.5,27.56c12.38,2.74,23.2-9.07,22.83-20.85Z"/>
      <path class="cls-1" d="M45.56,43.21c8-1.44,14-8.83,13.05-17.01-2.62,7.76-6.83,11.86-13.05,17.01Z"/>
    </g>
  </g>
</svg>