<?xml version="1.0" encoding="UTF-8"?>
<svg id="Warstwa_2" data-name="Warstwa 2" xmlns="http://www.w3.org/2000/svg" viewBox="0 0 37.96 50.33">
  <defs>
    <style>
      .cls-1 {
        fill: #fff;
      }
    </style>
  </defs>
  <g id="game-icon-v6-elemental-pixarts-store">
    <g id="game-icon-v6-elemental-pixarts-store_114">
      <path class="cls-1" d="M.23,21.44c.7,1.63,2.49,1.36,4.03,1.69.78.46,1.57,1.82,2.06,2.9-.76.16-1.95-3.17-3.81-1.5l4.21,5.48c1.69,2.2,3.25,4.34,6.43,4.2-1.61-4.91-2.27-2.68-4.38-5.61,1.26.54,2.17,1.29,3.07.83.02.95,2.6,4.66,3.72,5.12l3.07-.99-2.16,2.52c.66.71,1.26,1.9,1.22,2.86l-.23,4.93-.61-.85-.25-3.77c-.11-1.61-1.58-3.03-2.96-2.88.06,1.64.12,3.03-.24,4.52l-.7-3.72c-.17-.89-1.54-1.65-2.46-1.43l-.09,6.33c-.03,2.09-1.61,6.98-.52,6.56.19-.07.83-.43.83-.63v-4.56c1.59,2.59.49,5.77,3.08,5.19l-.32-4.17,1.69,4.63c1.03.42,2.63.66,3.85.72l.89-7.98c.62,2.98.71,5.53,1,8.49,2.23.02,4.19-.47,5.59-1.88l.43-3.19,1.16,1.97.79-3.75c.83-3.9,2.5-1.46,1.85-7.46-.78-.1-2.12.17-2.66.62-1.93,1.6-.51,3.75-1.69,5.77l-.29-5.73-3.44-2.28c.75-.08,1.59.06,2.3.46,1.21.68,3.66.59,3.9-1.04.74-4.99.89-5.38,4.59-8.19l1.24,1.52c1.01-3.86,1.52-6.74,1.46-10.56l-3.09,3.9c-2.9,3.65-5.25-1.16-8.78,1.15l2.94,5.36c-2.23-1.06-3.89-6.79-8.14-6.13,1.61,2.96,2.91,5.74,2.04,8.88-.75-4.16-2.31-7.97-6.16-9.7l-1.04,3.98-.21-4.11c-.04-.85-2.06-2.16-2.82-1.53-.79.65-1.07,1.88-1.67,2.99l-.05-1.71-1.8.45c1.15-1.38,1.92-2.26,2.55-3.8-2.55-.31-3.2-1.58-4.71-3.62l2.46,1.62c6.48,1.82,11-4.41,8.56-4.79-3.68-.57-7.19-1.28-10.74-1.42-2.52-.1-4.99,7.09-2.67,9.19l-1.51-.72c-.63,1.53-1.37,3.43-.76,4.85Z"/>
      <path class="cls-1" d="M21.26,15.99c-.21,1.43,1.41,2.7,2.59,2.63,1.57-.09,2.26-1.13,2.68-2.66.79-2.92,1.62-5.28,2.13-8.24.13-.76-1.73-1.06-2.46-1.43.6-.28,1.74-.08,2.91.19.4-1.77-.97-3.38-2.88-3.78-.71-.15-1.77-.33-2.21,0-.48.36-1.03,1.55-.93,1.94,1.04.67,1.97,1.3,2.19,2.43l-2.52-1.58-1.52,10.51Z"/>
      <path class="cls-1" d="M17.88,9.15c1.04,2.6-1.07,4.29-2.87,5.85-.27,1.13,1.3,2.22,2.43,2.25.86.02,2.35-.72,2.51-1.93l1.41-10.82c-1.72-1.34-3.87.79-4.17-.18l-.26-.85,4.63-.39c-.07-.47-.5-1.8-.93-2.29-.75-.84-4.24-1.07-5.03-.39-.38.33-.7,1.12-.85,1.64l.77.36c.11.05.11.17,0,.22-.11.06-.88.23-.92.34-.4,1.17-.56,3.7-.19,4.86,1.34.18,3.08.36,3.47,1.33Z"/>
      <path class="cls-1" d="M27.78,16.3c-.31.94.06,2.17.75,2.91.53.56,1.59.93,2.22.7.53-.2,1.33-1.01,1.36-1.59.04-.63-.54-1.44-1.19-2.05l.91-.62c.15.84.55,1.63,1.14,1.76,1.55-1.05,4.43-6.33,1.92-6.65-.67-.08-1.63.32-2.36.75-.31-1.17-.88-2.31-2.28-2.79l-2.47,7.58Z"/>
      <path class="cls-1" d="M7.68,1.13c-1.57,1.09-2.43,3.75-1.1,5.26,1.71.59,3.8.87,6.03,1.21.21-1.16.43-2.98.3-4.14-.17-.47-1.76-.73-2.18-.75l2.14-.74c-1.1-1.83-3.85-1.77-5.19-.84Z"/>
      <path class="cls-1" d="M32.79,26.86c-2.26,1.71-3.95,4.33-2.61,7.62,1.62-1.1,5.17-5.54,2.61-7.62Z"/>
      <path class="cls-1" d="M1.93,33.76c-.2,1.3.2,2.03,1.27,2.58.71.36,2.22-.42,2.28-1.69.04-1.04-1-2.84-1.88-3.25-.93,0-1.53,1.5-1.66,2.36Z"/>
      <path class="cls-1" d="M35.48,9.62c.42-1.63-2.51-3.6-3.64-3.14-.39.16-1.06.92-1.2,1.23l1.93,2.42c.48.6,2.73.18,2.91-.51Z"/>
      <path class="cls-1" d="M29.96,48.09c.32.29,1.57.24,1.76-.21l-.97-6.65c-1.97,1.8-2.05,5.72-.8,6.86Z"/>
      <path class="cls-1" d="M34.89,40.26c.55-2.22,1.5-2.67.3-4-.25-.28-1.16-.38-1.46-.13-.53.46-.84,1.88-.53,2.39.37.62,1.12,1.32,1.69,1.74Z"/>
      <path class="cls-1" d="M36.44,32.03c-.6.48-1.33,1.42-1.15,1.9.15.42,1.28,1.19,1.7,1.03.87-.34,1.16-1.45.85-1.97-.25-.42-1.02-1.27-1.4-.97Z"/>
    </g>
  </g>
</svg>