<?xml version="1.0" encoding="UTF-8"?>
<svg id="Warstwa_2" data-name="Warstwa 2" xmlns="http://www.w3.org/2000/svg" viewBox="0 0 57.83 61.43">
  <defs>
    <style>
      .cls-1 {
        fill: #fff;
      }
    </style>
  </defs>
  <g id="game-icon-v6-elemental-pixarts-store">
    <g id="game-icon-v6-elemental-pixarts-store_575">
      <path class="cls-1" d="M4.75,19.01l6.19,4.16c-3.9-.27-8.78-1.94-10.9-4.84,2.06,8.42,7.43,7.05,12.95,9.51-2.95.62-5.49.36-8.29.01,3.11,3.85,7.27,3.49,12.34,3.36l-4.9,2.35c2.42,1.21,4.96.43,7.89-.58l-2.17,2.63c2.49.06,4.7-2.76,6.61-1.29.56.43,1.17,1.88,1.06,2.68-.67,4.96-5.45,5.2-4.43,8.99l3.29-2.19c-2.43,4.53-3.45,9.02.34,12.35-.34-3.66-.74-6.3.75-8.96.32,8.95,4.01,6.41,3.16,14.25,5.82-4.62-1.07-9.76-.04-15.14l4.04,7.48c.02-2.07-.27-3.46-.64-5.62,2.73,1.44,3.77,4.14,3.61,7.07,2.08-2.13,1.67-5.2.27-7.39l-3.1-4.87c2.1.96,3.03,1.87,4.6,3.23.21-4.82-4.24-3.63-5.24-8.82-.16-.85.48-2.44,1.1-2.9,2.13-1.57,4.02,1.18,6.52,1.06l-1.86-2.45c2.95.94,5.5,1.78,7.91.52-2.02-.75-3.59-1.39-5.14-2.41,4.96.21,9.18.4,12.38-3.29-2.82.37-5.41.58-8.23-.05,5.29-2.48,10.41-1.02,12.79-9-3.22,2.42-6.45,3.98-10.53,4.18l6.41-4.42c3.37-2.32,5.12-6.45,3.93-10.2-1.5,4.85-4.51,6.96-9.33,9l4.17-4.86c3.13-3.64,3.6-8.9.45-12.53.53,6.59-2.62,9.81-7.23,13.5l.16-3.04c-1.25,1.99-3,3.78-5.12,5.04-4.93,2.93-2.11,5.86-4.52,8.63-.47.53-2.32.89-2.93.54-1.77-1.01-2.12-3.14-1.77-4.92.33-1.68,1.9-2.45,3.95-3.63-5.77-1.99-5.84.92-11.15,1.98l2.31.61-2.3,1.46,2.45.22c-.31,1.27-1.01,3.76-2.1,4.31-1.97.99-3.62-1.34-3.64-2.94-.08-6.52-4.64-5.52-8.7-11.12l-.04,2.81C7.21,8.97,5.2,7.51,4.88,0c-2.72,3.3-2.68,8.27,0,11.6l4.65,5.75C4.27,15.31,1.89,12.74.29,7.91c-1.05,4.43.8,8.64,4.46,11.1Z"/>
    </g>
  </g>
</svg>