<?xml version="1.0" encoding="UTF-8"?>
<svg id="Warstwa_2" data-name="Warstwa 2" xmlns="http://www.w3.org/2000/svg" viewBox="0 0 44.4 46.07">
  <defs>
    <style>
      .cls-1 {
        fill: #fff;
      }
    </style>
  </defs>
  <g id="game-icon-v6-elemental-pixarts-store">
    <g id="game-icon-v6-elemental-pixarts-store_130">
      <path class="cls-1" d="M44.4,14.02l-2.69-.47c-.69-2.32-1.45-4.33-2.46-6.35l.97-2.75-2.35,1.28-4.26-3.66-.58-2.07-1.29,1.51c-8.23-2.89-18.21.49-19.88,9.81,3.1-4.93,8.38-7.6,14.09-6.42,4.22.43,7.15,2.92,9.25,6.67,2.39,6.44.65,12.77-5.79,15.92-3.39,1.66-7.23.95-10.75-.51-.24.04-.18,1.86.28,2.03,1.09.4,3.2.84,4.68,1.18-1.51.07-3.01-.08-4.92-.36l-1.21,1.73c5.02,3.04,13.74,2.21,18.12-1.46l2.4,1.72c-.32-1-.69-1.84-1.18-2.8,1.62-1.86,3.18-4.18,4.21-6.41l3.06-.02-2.38-2.12.28-5,2.4-1.47ZM18.78,3.8c4.74-2.75,11.72-1.94,15.39,2.56-5.72-3.7-8.07-4.14-15.39-2.56ZM37.51,22.52c.52-3,.72-5.7.84-8.91.78,2.89.74,6.13-.84,8.91Z"/>
      <path class="cls-1" d="M4.86,44.93l-.3.98c-.05.16.94.22,1.02.07l2.99-5.26c1.27-2.23,3.4-2.45,4.93-4.16.28-.31-2.57-1.97-3.52-3.42-1.5.22-2.31,2.43-3.35,3.58-3.03,3.38-8.28,3.78-6.14,6.94l3.16-2.31-2.52,2.93c-.42.51,1.1,1.67,1.8,1.73.78.07,1.27-.38,1.92-1.07Z"/>
      <path class="cls-1" d="M12.57,30.39l2.85,2.79,1.94-3.35c.14-2.16-.15-3.79-.94-5.88-2.46,4.97-.25,1.66-3.85,6.44Z"/>
      <path class="cls-1" d="M10.54,31.53c.53,1.92,2.21,3.59,3.94,4.12l.63-1.94-3.32-3.03-1.26.85Z"/>
    </g>
  </g>
</svg>