<?xml version="1.0" encoding="UTF-8"?>
<svg id="Warstwa_2" data-name="Warstwa 2" xmlns="http://www.w3.org/2000/svg" viewBox="0 0 62.37 45.64">
  <defs>
    <style>
      .cls-1 {
        fill: #fff;
      }
    </style>
  </defs>
  <g id="game-icon-v6-elemental-pixarts-store">
    <g id="game-icon-v6-elemental-pixarts-store_303">
      <path class="cls-1" d="M16.64,14.83c-.43-.89-1.26-2.22-1.74-2.81l1.81-2.24.47,1.33c.13.38,1.04.55,1.55.72-.99.48-1.71,1.36-2.09,3Z"/>
      <g>
        <path class="cls-1" d="M41.86,8.14l-.73-2.63c-.2-.73-1.97-.99-2.9-1.37.78-.36,2.23-.72,2.68-1.28s.7-2.03.94-2.87l1.14,2.84c.27.67,1.92.83,2.99,1.24l-2.6.85c-.71.23-.98,1.75-1.51,3.2Z"/>
        <path class="cls-1" d="M54.94,21.8c-.77-.08-1.9-.19-2.28,0-.47.25-.74,1.29-.98,2.18l7.51,3.12-8.84-2.42-1.23,1.82-4.69-1.62,7.56,13.14-20.96,7.62-20.94-7.65,8.53-15.14c-6.57,2.16-11.83,4.82-18.62,6.25,4.48-2.4,9.28-4.15,14.28-5.98l5.33-1.96L30.96,1.41l8.77,15.05,9.15-5.58,1.82,2.27,8.49-2.92-7.62,3.87c.64,4.43,6.06.3,9.88,1.1l-9.61,2.56,1.36,2.81,8.82,1.41c.78,1.03.17.86-.67.55l-6.4-.71ZM25.64,21.53c.79.96,3.47.8,3.95-.56,1.06-2.96.81-9.17-.45-8.11l1.06-.89-.1-6.08-5.63,9.65,2.82,1.64c.86.01,1.58.03,1.99.11s.19,1.55-.15,1.79l-3.49,2.45ZM41.02,23.79c.29.29.9,1.42.54,1.54l-1.44.48-2.86,3.48c.39-2.82.29-4.01-.62-6.57l2.48,1.85.04-3.06c.01-.76.62-2.31.28-2.95-.39-.73-1.57-1.53-2.22-1.91-.05-.6-.23-2.1-.69-2.87l-4.75-8.01-.04,6.97-.11,17.52,17.69,6.08-3.99-7-2.29-.74c-.19-.06.09-.64.28-.57l1.14.41c-1.2-2.75-2.58-5.2-4.33-8.16-.35.55-.85,1.79-.5,2.13l1.39,1.37ZM30.04,25.23l-2.7,2.28c-.29.24-1.13.73-1.42.56l-1.15-.69-.88,2.02c.29-2.3-2.33-5.85-2.87-5.69-1.44.44-3.21,2.87-3.53,4.24l1.31.38c.19.06-.07.94-.17.76-1.62-2.69-5.46,6.28-5.59,6.96l17.25-5.7-.25-5.13ZM30.22,43.9c.29-4.54.3-8.29.02-12.38l-17.39,5.96,17.38,6.41ZM49.11,37.59l-17.44-6.06c-.32,4.4-.31,8.17.09,12.35l17.36-6.29Z"/>
      </g>
    </g>
  </g>
</svg>