<?xml version="1.0" encoding="UTF-8"?>
<svg id="Warstwa_2" data-name="Warstwa 2" xmlns="http://www.w3.org/2000/svg" viewBox="0 0 54.95 55.69">
  <defs>
    <style>
      .cls-1 {
        fill: #fff;
      }
    </style>
  </defs>
  <g id="game-icon-v6-elemental-pixarts-store">
    <g id="game-icon-v6-elemental-pixarts-store_534">
      <path class="cls-1" d="M36.92,30.07l7.91-5.58c.46-.32.55-2.11.09-2.12-3.38-.07-4.64,3.28-8.23,3.04l8.31-8.52c-1.27-3.7-7.6,4.83-10.62,4.89.45-2.22,9.54-9.92,7.12-11.02-2.76-1.26-7.24,7.25-10.47,8l4.36-8.64c.27-.53.22-1.82-.12-2.21-.34-.39-1.87.11-2.2.61l-7.53,11.47c1.06,2.27,1.35,4.79.1,6.7.23-6.49-3.73-5.62-1.4-10.47.77-1.59,1.05-3.51-.48-4.65-3.84,4.29-5.69,9.31-4.88,15.22.52,3.81,5.4,8.39,9.37,8.7,3.92.31,6.03-3.54,8.68-5.4Z"/>
      <path class="cls-1" d="M13.76,55.69c.78-.54,1.71-1.84,1.9-2.4-.86.1-1.44.3-1.44.07-.18-4.52-1.87-3.57.23-7.56l1.38,7.47,8.73-12.2-4.27-2.53c-1.03-.61-4.08.31-4.62,1.43-.56,1.19-1.32,3.25-2.45,3.61-1.38.45-2.79.47-4.42.49-.88.01-1.86,2.22-2.84.14l7.85-2.37.11-3.16,4.2-1.84-5.14-6.93c-1.24.02-2.38-.14-4.18-.57-2.53-.6-1.56,4.47-5.28,5.26.27.04,1.93-.2,2.51-.49.49-.24.67-1.23,1.04-2.21,1.1-2.89,3.42,0,6.38-.34L0,42.04c1.86,6.53,7.59,11.28,13.76,13.65Z"/>
      <path class="cls-1" d="M17.02,28.11l-1.31.88c-2.7,1.8,10.31,13.42,11.23,9.94l.42-1.6c-4.53-1.71-7.55-5.28-10.34-9.22Z"/>
      <path class="cls-1" d="M24.3,51.48c.2-8.98,5.02-5.75,1.15-10.16-.14,1.76-.05,3.1-.38,3.82-.19.41-1.82.95-1.71,1.39,1.6,5.93-.84,1.86.94,4.95Z"/>
      <path class="cls-1" d="M45.7,33.26l2.18.08-4.13-2.69c-.85,1.14-1.2,1.76-1.73,1.68l-2.21-.32,4.13,2.55c.82-.82,1.26-1.31,1.75-1.29Z"/>
      <path class="cls-1" d="M29.36,4.63c.85.51,1.36.69,1.41.97l.27,1.7,1.57-2.93c-1.04-1.56-.97-2.63-.67-4.37l-2.59,4.63Z"/>
      <path class="cls-1" d="M46.68,2.11l-3.99,3.06,1.6,1.04c.25.16,0,.84-.11,1.7l2.75-2.01c-.67-.87-1.02-1.29-.88-1.73l.64-2.06Z"/>
      <path class="cls-1" d="M23.69,7.11l1.08-.09-2.3-3.77c-.07,1.34-.22,2.09-1.02,3.54l1.77,2.29c.19-1.44.17-1.95.47-1.97Z"/>
      <path class="cls-1" d="M49.3,25.21l-.86,1.48,6.5-1.43-6.17-1.56c.24.68.69,1.22.52,1.5Z"/>
    </g>
  </g>
</svg>