<?xml version="1.0" encoding="UTF-8"?>
<svg id="Warstwa_2" data-name="Warstwa 2" xmlns="http://www.w3.org/2000/svg" viewBox="0 0 54.89 51.99">
  <defs>
    <style>
      .cls-1 {
        fill: #fff;
      }
    </style>
  </defs>
  <g id="game-icon-v6-elemental-pixarts-store">
    <g id="game-icon-v6-elemental-pixarts-store_186">
      <path class="cls-1" d="M23.2,8.7c1.32.82,2.8.85,3.69-.58l1.58-2.54c-2.79.58-1.66,1.94-5.26,3.12Z"/>
      <path class="cls-1" d="M50.74,19.2c1.22,1.05.81,2.19.84,3.53,1.83-1.12,1.89-2.84,1.97-4.66.12-2.76,2.1-5.08,1.04-6.89-.49.58-.8,1.04-1.13,1.13-.33.09-.97-.6-1.25-1.02,1.37-1.34,1.05-2.88.02-4.38-.85-1.23-.29-3.24-6-5.6l.86,3.27c-2.6-.18-1.98-5.98-7.04-4.28-3.65,1.22-3.48-1.3-6.73,1.47.57.11,1.34.21,1.71.36l2.93,1.14c-1.74,1.65-3.42-.99-6.7,1.37-4.65,3.36-2.62,7.38-8.91,9.38,2.27,1.46,4.74.75,6.43-1.6.61,2.78-1.92,3.59-3.86,4.47-1.04.47-1.57,2.2-2.88,2.39-2.81.4-4.58,2.97-4.27,5.62.85-1.28,2.98-2.94,3.37-1.94.1.25.18.88.07,1.14-1.47,3.55-4.96.88-7.44,7.19l-.28.72c-.04.1.32.21.4.13l.41-.45c.72-.79,1.36-1.42,2.19-2.03-.76,3.37-3.25,5.41-6.18,7.09-1.53.88-2.28,2.81-3.24,4.23l3.17-1.79L0,51.99l11.68-7.72-.82,1.98c4.97-2.15,4.04-5.65,10.52-7.62l-1.97,3.01,2.27-1.1c4.37-2.11,2.88-4.73,6.66-6.68.32-.16,1.18.03,1.34.33.13.25-.05,1-.27,1.2l-2.16,1.45c8.94.57,4.65-7.8,9.59-8.63.31-.05,1.14.1,1.07.35-.37,1.16-3.42,2.2-2.29,5.23.61-1.48,1.71-2.33,3.18-2.64,5.71-1.18,2.3-5.49,9.08-5.96,2.55-.18,1.96-4.98,2.86-5.99Z"/>
      <path class="cls-1" d="M43.13,32.63c1.12-2.42,2.51-2.79,2.71-4.95-2.22.7-3.39,2.86-2.71,4.95Z"/>
      <path class="cls-1" d="M18.76,17.72c1.71,1.19,3.16.16,4.48-1.21-.18-.16-1.24-.35-1.6-.17l-2.88,1.38Z"/>
    </g>
  </g>
</svg>