<?xml version="1.0" encoding="UTF-8"?>
<svg id="Warstwa_2" data-name="Warstwa 2" xmlns="http://www.w3.org/2000/svg" viewBox="0 0 40.04 59.2">
  <defs>
    <style>
      .cls-1 {
        fill: #fff;
      }
    </style>
  </defs>
  <g id="game-icon-v6-elemental-pixarts-store">
    <g id="game-icon-v6-elemental-pixarts-store_445">
      <path class="cls-1" d="M33.24,10.23c-2.44,1.93-1.6,4.8-2.27,7.09-.97,3.29-2.24,6.27-1.71,9.93-3.12,2.35-4.52,5.96-4.17,9.63,2.98-1.81,4.3-4.36,5.7-7.26.65-1.33,2.37-2.57,3.11-3.9,1-1.8,1.98-3.41,4.06-3.91l-3.67,4.67c-1.45,1.85-3.9,3.44-3.82,6.25l1.25,4.21c.69,2.32-1.2,4.81-2.38,6.71.62-2.91-.08-4.72-2.24-7.06-5.13,4.72-4.72,7.43-1.88,12.83-.76,3.21-1.48,6.27-.88,9.69,1.89-.37,5.48-.84,6.2-3.23.74-2.46.12-5.4.26-8.09-3.47,6.03-1.83,2.21-2.28,8.93l-.94-4.68,1.47-2.74-2.38.09c1.51-.81,3.52-1.47,4.47-2.93,3.99-6.14,1.45-10.84,7.14-23.63.67-1.51,3.07-9.7.8-9.87-.39-.03-1.3.51-1.47.93l-3.42,8.6c-.5,1.26-1.41,2.14-2.83,2.69l1.33-9.2c.29-1.99.48-3.99.56-5.77Z"/>
      <path class="cls-1" d="M13.37,3.64c-1.35-1.47-2.28,2.89-2.05,5.15.4,3.97.81,7.56,1.4,11.43.58,3.78.96,7.58-1,11.2-3.57,1.45-2.48-3.51-7.05-2.37-1.28,2.95,4.23,1.67,3.58,7.83l4.73,3.51-.79,2.85-.65-2.97c-1.24-.89-3.08-2.14-3.79-3.18.85-5.08-4.19-4.7-3.75-7.17l.62-3.46c.31.93.66,1.73,1.55,2.26.54-3.13-.72-5.81-3.45-7.35-.56-.32-1.77-.23-2.71-.05,1.81,2.51.44,5.76,1.55,8.09l3.66,7.76c1.52,3.22,4.86,5.74,7.17,8.57l5.96,2.76c1.15-1.2,3.09-2.52,3.53-4.28.47-1.87-.02-4.77-.98-6.03-1.37-1.8-3.71-2.76-5.67-3.27.63,1.5,1.34,2.62,1.02,3.52-1.49,4.14,1.5,4.05,1.15,6.85-1.08-1.71-1.95-3.05-3.15-3.96,2.98-3.31-.55-7.72-2.03-9.83,2.71,1.76,4.98,3.05,7.62,4.16-.69-2.1-1.72-4.09-3.32-5.25l-2.47-1.79,3.18.99c-.89-2.32-3.09-4.42-2.25-7.35.75,2.63,1.76,4.77,3.23,7.21.56.93.98,2.74,1.51,3.82l3.29,6.67c1.01-2.35,1.52-5.12.38-7.37-1.32-2.62-2.15-5.2-3.4-7.84l-2.12-4.5-3.62-15.36c-.09-.39-.63-1.01-.86-1.26ZM14.61,16.94c.97,1.23,2.14,2.11,1.91,3.88-.94-1.6-2.2-3.14-3.61-4.36,1.04-.7,1.1-2.04,1.42-3.52l.28,4Z"/>
      <path class="cls-1" d="M20.99,23.85c4.38-8.54-.64-8.97,1.41-12.25.89-1.42.55-2.82.17-4.46l.69.95c.07.1.14-.03.3-.12l.76-.44-1.39,4.72c-.42,1.41.2,2.75.56,4.2.21,4.7-3.53,8.27-1.23,12.36l2.2,3.89c.84-1.59,1.34-3.23,1.57-4.93l.58,1.28c4.45-4.69.16-5.72,2.55-9.37,1.48-2.26,1.85-7.05,1.45-9.68l.86,1.32c1.78-1.59,2.15-4.89.79-6.83-.32-.46-1.83.54-1.96,1.13-1.13,5.34-1.51,13.18-4.33,16.65-.91-1.65-.78-3.08-.81-4.67l-.2-12.21c-.03-2.01-.07-4-1.81-5.39-.45.22-1.57,1.32-1.69,1.98-1.41,7.76-.54,11.2-1.73,18.81-.2,1.29-.55,2.4,1.25,3.05Z"/>
      <path class="cls-1" d="M13.82,46.97l.49,9.29c2.06,2.46,6.02,2.84,9.29,2.94l.08-7.21c0-.71.23-2.01.33-2.75l-1.67-3.45-1.69,1.94c-2.78,3.18.41,4.39-.37,8.57l-1.3-4.28-1.55,2.23,1.02-4.76-4.63-2.53Z"/>
      <path class="cls-1" d="M29.88,33.46l-2.08,2.69,2.52,4.54c1.63-4.43.94-3.52-.44-7.22Z"/>
    </g>
  </g>
</svg>