<?xml version="1.0" encoding="UTF-8"?>
<svg id="Warstwa_2" data-name="Warstwa 2" xmlns="http://www.w3.org/2000/svg" viewBox="0 0 58.66 57.19">
  <defs>
    <style>
      .cls-1 {
        fill: #fff;
      }
    </style>
  </defs>
  <g id="game-icon-v6-elemental-pixarts-store">
    <g id="game-icon-v6-elemental-pixarts-store_50">
      <path class="cls-1" d="M39.85,54.48c2.3-2.29,5.49-3.7,6.16-7.53-2.67-.36-5.61.47-8.16,1.74-1.12.56-5.59-.78-4.87,1.83-1.69.83-4.51,2.03-6.59,2.18-1.78-1.1-2.91-2.4-5.05-2.62l2.47,3.59-3.15,2.38c5.78.85,3.29-2.24,8.43-.87,2.5.66,4.56.58,7.26.23l.07,1.74c1.72.39,2.41-1.65,3.43-2.67Z"/>
      <path class="cls-1" d="M50.38,8.78l1.52-1.43-3.97-.88c-2.74-.61-4.94-2.36-7.99-1.64,3.77,5.88,4,2.98,7.2,10.17.31-.38.49-1.21.54-1.9l5.04,3.66c2.16,1.57-.28,2.99,1.45,6.58l1.12-3.53,2.53,2.03c.68-2.2-1.84-3.16-2.51-4.66-1.33-3.03-2.42-5.99-4.93-8.4Z"/>
      <path class="cls-1" d="M18.31,38.65c-2.4-1.66-3.78-5.57-1.47-8.24l.6,1.89c.56-3.71,2.69-6.22,5.84-8.72-1.92-.21-4.17,1.27-4.95,2.83-.74,1.49-.58,3.25-2.85,3.25l-.11-3.5c-2.03,1.29-.55,3.74-1.2,5.54-1.07,3.01-1.7,5.72-.25,9l-2.14-.45c.84,1.74,6.94,6.28,9.23,7.19.8-2.4-2.32-5.59-2.71-8.79Z"/>
      <path class="cls-1" d="M52.05,29.56l1.55,1.49c-.84-4.39-1.7-11.94-6.32-13.51-.53,4.81,2.09,8.25-.51,11.69.48.35,1.09.68,1.16,1.09.06.33-.21,1.31-.39,1.65l-1.75,3.2-3.09,2.25c.63.35,1.33.71,1.24,1.14l-.48,2.16,2.66-3.91c2.84-1.63,5.09-3.78,5.92-7.26Z"/>
      <path class="cls-1" d="M20.82,16.81c-1.83,1.85-4.53,2.73-4.1,6.38l6.65-2.29c.78-.27,2.5-.09,3.58-.08l-.93-1.01c1.65-.31,3.35-.73,4.76-.64,2.92.18,3.17,2.86,3.79,5l.92-2.03,2.86.99c-.59-1.52-2.44-1.99-3.46-3.05-2.96-3.08-6.22-5.01-10.74-4.17l.02-1.95c-1.13.5-2.28,1.76-3.36,2.85Z"/>
      <path class="cls-1" d="M39.74,41.5l-9.64.45c-1.74-3.32-1.41,1.47-5.92-3.85l-.31-4.21-1.22,2.01-2-2.08c-.67,1.92,1.18,2.93,1.66,4.22,1.45,3.84,3.7,6.79,8.2,7.78l-1.45,1.24c3.56-.46,9.52-1.69,10.68-5.57Z"/>
      <path class="cls-1" d="M12.84,52.32c2.08.76,3.57,2.29,6.24,1.8-1.22-2.07-2.59-3.77-4.09-5.72-.76-.98-1.57-1.41-2.6-2.11l-5.49-3.71-1.93-4.59-.29,3.32-2.62-1.36c2.49,4.26,2.26.83,5.13,6.06.93,1.69,2.13,3.13,3.37,4.38l-1.5.54,3.8,1.39Z"/>
      <path class="cls-1" d="M14.64,9.8l-2.72,3.97c-.94,1.37-1.27,2.83-1.15,4.69,3.96-1.85,4.48-3.52,8.85-4.37l-1.08-.87,4.55-3.04,4.73,1.72-1.91-2.4,3.2-2.05c-1.96.02-3.55.59-5.35.99-1.8.4-3.99.16-5.71.84-1.2.47-2.05.6-3.41.53Z"/>
      <path class="cls-1" d="M11.19,22.73l-2.74-.54-.03-3.24c-.9,1.17-.81,3.18-1.42,4.48l-2.66,5.71-1.14-.08,1.06,3.6c.85,2.91,1.82,5.38,4.95,6.88l-.34-7.52c-.01-.25.34-.96.27-1.19-.07-.25-1.89-.43-.7-6.26l2.75-1.84Z"/>
      <path class="cls-1" d="M33.37,9.96c-1.67-.24-2.93-.16-4.65.99,3.6,2.72,4.9,1.55,7.07,4.83.17.25.56.61.61.44l.28-.98,4.11,2.47.66,4.32,1.14-2.67,2.14,2.45c.32-2.37-1.56-3.37-2.39-5.01-.97-1.91-2.18-3.65-3.63-5.11l.43-.93-5.78-.81Z"/>
      <path class="cls-1" d="M53.28,42c1.62-1.8,3.19-3.43,4.25-5.36l1.02.39c.16.06.11-.74.09-.93l-.45-5.19c-.13-1.47-.44-2.62-1.25-3.88-3.02,4.13-.88,4.55-4.44,9.06l1.09.12c-.42,1.38-.7,4.05-1.86,4.86l-2.81,1.95c.88,0,2.34-.04,2.3.5l-.18,2.29c1.12-1.02,1.4-2.88,2.24-3.81Z"/>
      <path class="cls-1" d="M31.31,2.5l-6.54-1.37-.77-1.13c-3.2,3.16-5.97,2.43-7.45,5.56,4.48.41,4.18.04,8.49.31.28.02.24-.98.59-1.02l5.4-.62c.84-.1,2.32,2.02,3.16,1.61l-.98-2.15,2.71-.73c-1.28-.81-3.18-.16-4.61-.46Z"/>
      <path class="cls-1" d="M6.32,17.28l-.48-.82,2.15-4.43,2.92-1.08-1.81-.76.9-2.62c-1.48.46-2.05,2.25-3.12,3.35l-4.77,4.91-.81-1.29-.43,4.01c-.23,2.17-.67,4.02.58,6.09,1.35-1.64,2.23-3.16,3.29-5.16l1.58-2.2Z"/>
      <path class="cls-1" d="M41.83,31.42c-3.91,1.15-3.09,2.57-6.68,3.53-.63.49-1.29,1.21-1.93,1.43-3.04,1.05-2.69-2.09-5.24-2.23l1.01,3.27c3.89.06,2.67,1.55,8.42,1.37,1.33-1.18,5.07-4.53,4.43-7.37Z"/>
      <path class="cls-1" d="M40.84,27.31c.54-2.99-.31-5.87-2.49-7.53,2.13,3.52,1.75,6.58.02,10.27.86-.55,2.3-1.82,2.47-2.74Z"/>
      <path class="cls-1" d="M48.27,39.1c-1.22,1.66-2.68,2.91-4.52,3.94l-3.95,2.2c4.13-.2,7.69-2.37,8.47-6.15Z"/>
      <path class="cls-1" d="M43.29,30.39c.48-1.43.55-1.27,1.13.08.87-1.64.87-3.74-.45-5.56-.5,1.99-.79,3.7-.68,5.48Z"/>
      <path class="cls-1" d="M1.72,33.4l-1.06-7.33c-1.35,2.64-.44,5.43,1.06,7.33Z"/>
      <path class="cls-1" d="M11.47,30.88l.17-5.87,1.27-3.07c-1.65,1.24-2.26,3.17-2.19,5.07l.75,3.87Z"/>
    </g>
  </g>
</svg>