<?xml version="1.0" encoding="UTF-8"?>
<svg id="Warstwa_2" data-name="Warstwa 2" xmlns="http://www.w3.org/2000/svg" viewBox="0 0 33.38 57.1">
  <defs>
    <style>
      .cls-1 {
        fill: #fff;
      }
    </style>
  </defs>
  <g id="game-icon-v6-elemental-pixarts-store">
    <g id="game-icon-v6-elemental-pixarts-store_13">
      <path class="cls-1" d="M26.9,42.33c-.39-1.3-.76-2.94-.81-4.13l2.59-2.39,1.55-18.14c-7.27,3.42-4.14,5.71-9.4,7.57-1.91.67-4.17,1.9-5.64,3.23.45,2.65,1.22,4.54,1.34,7.13l-1.82-4.69-2.99,4.15c1.15-2.93,2.14-4.75,2.81-7.42l3.66-2.96c3.46-.34,5.23-2.35,7.3-4.57,2.15-2.3,4.99-3.91,7.57-5.96l-1.92,23.24-3.2,1.49,1.07,2.89c.23.62-.02,2.11-.56,2.71l-11.23,12.61c-2.53-3-4.74-5.57-7.24-7.99l5.71-12.92c-.65,3.98-2.22,7.47-3.35,11.28-.26.87.86,2.57,1.21,3.29l.36-1.06,3.44,3.37,9.56-10.75Z"/>
      <path class="cls-1" d="M5.77,13.24c.91,5.79-3.49,2.93-2.92,7.7l2.17,18.25,6.28-4.38c.05,1.47-1.17,1.34-1.89,1.95l-6.59,5.6L0,17.92c1.27-.82,2.06-1.39,2.98-2.12,1.38-1.09,1.1-2.63.21-4.04L16.1,0c2.69,2.53,5.37,5.35,7.95,8.37-1.3,3.31-2.72,6.14-3.7,9.37-.48,1.59.87,3.69-.95,4.81.58-1.38-.34-3.53.01-4.74l2.55-8.59-5.97-5.41L5.77,13.24Z"/>
      <path class="cls-1" d="M5.04,50.95l-4.08-3.37,7.84-5.65c-1.05,3.16-2.24,5.64-3.76,9.02ZM4.84,49.63l1.92-4.97c-1.9,1-2.93,1.67-4.38,2.68l2.46,2.29Z"/>
      <path class="cls-1" d="M27.72,11.86l5.66-3.45c-2.41,2.61-5.12,4.66-8.44,6.42l3.77-8.53c.09-.2,1.03.05.99.22-.81,1.62-1.6,3.29-1.98,5.33Z"/>
      <path class="cls-1" d="M8.35,24.93c-.17-.59-.4-1.65-.76-2.07s-1.48-.58-2.3-.86l2.19-.81c.52-.19.66-1.62.81-2.24,1.37,2.9.52,2.07,3.52,3.04-1.89.36-2.92.72-3.46,2.93Z"/>
      <path class="cls-1" d="M24.67,35.04c-.45-.51-1.38-1.42-1.81-1.81.57-.47,1.48-1.38,1.8-1.84.31.9,1.43,1.69,2.38,1.86-.98.33-1.89.84-2.37,1.79Z"/>
    </g>
  </g>
</svg>