<?xml version="1.0" encoding="UTF-8"?>
<svg id="Warstwa_2" data-name="Warstwa 2" xmlns="http://www.w3.org/2000/svg" viewBox="0 0 54.42 53.01">
  <defs>
    <style>
      .cls-1 {
        fill: #fff;
      }
    </style>
  </defs>
  <g id="game-icon-v6-elemental-pixarts-store">
    <g id="game-icon-v6-elemental-pixarts-store_21">
      <path class="cls-1" d="M37.11,50.14c-2.44-1.09-7.52-3.46-7.43-6.33.18-5.51,16.92-5.71,17.7-11.8,1.09-8.5-24.21-7.97-24.03-12.73.1-2.63,5.57-3.63,7.14-5.77-3.73.48-17.67,2.81-16.88,7.68.75,4.59,15.71,5.09,14.75,8.91-.96,3.84-19.11,3.39-26.09,9.81-2.18,2-2.95,5.06-1.61,7.7,1.06,2.09,2.62,3.81,4.51,5.39l40.5-.07-8.57-2.79ZM39.9,27.46c1.46.33,3.01,1.14,4.38,2.25.85.69,1.01,2.34.11,3.18-1.5,1.4-3.25,2.24-5.06,2.51,1.38-1.19,3.51-2.01,3.44-4.28-.05-1.49-1.72-2.57-2.87-3.65ZM7.06,40.55c-2.26,1.96-3.44,3.95-3.06,7.05-2.31-2.48-1.41-5.62,1.12-7.54,2.87-1.56,5.98-2.68,9.37-3.08l-7.43,3.57Z"/>
      <path class="cls-1" d="M40.47,5.8c-2.18,1.35-4.46,2.34-5.81,4.28l-2.41,3.44c3.69,0,6.94-1.33,10.19-3.47-.55,1.55-1.07,2.72-.98,4.04L54.42,0c-6.53.75-11.81,3-17.71,5.03l3.76.78ZM43.26,8.6c-2.89-.97-4.06,2.25-6.06,1.8,2.91-2.63,6.07-4.08,9.67-5.6l-3.61,3.79Z"/>
      <path class="cls-1" d="M33.04,17.9c2.11-.19,3.55-1.99,5.31-3.52l-.16-.71c-2.07,1.07-4.07,1.79-5.15,4.23Z"/>
      <path class="cls-1" d="M32.73,9.74c-1.73-.35-3.71.66-5.27,2.17,1.87-.03,3.49-.81,5.27-2.17Z"/>
      <path class="cls-1" d="M34.92,6.54l-5.23,1.51c1.93,1.31,2.76-.32,4.86-.56l.37-.95Z"/>
      <path class="cls-1" d="M28.64,18.13c1.57-.17,2.64-1.21,3.3-2.64-1.45.33-3.15.92-3.3,2.64Z"/>
    </g>
  </g>
</svg>