<?xml version="1.0" encoding="UTF-8"?>
<svg id="Warstwa_2" data-name="Warstwa 2" xmlns="http://www.w3.org/2000/svg" viewBox="0 0 51.03 51.03">
  <defs>
    <style>
      .cls-1 {
        fill: #fff;
      }
    </style>
  </defs>
  <g id="game-icon-v6-elemental-pixarts-store">
    <g id="game-icon-v6-elemental-pixarts-store_466">
      <path class="cls-1" d="M25.51,0C11.42,0,0,11.42,0,25.52s11.42,25.51,25.51,25.51,25.52-11.42,25.52-25.51S39.61,0,25.51,0ZM11.58,7.75c1.31-1.04,1.76-2.64,3.26-4.1l-1.45,4.77c1.06.14,2.37.02,3.37-.5l4.96-2.55c1.27-.65,2.53-1.28,3.9-1.58l-3.92,2.52,2.89,2.01-3.82-.92c-1.71.63-3.72,1.5-5.58,2.43-1.03,1.88-.99,4.42-2.06,6.03-1.17,1.76-2.49,2.88-1.55,5.2l-.78-1.07c-.15-.21-.42-.16-.99-.26l2.06-3.89c.96-1.8,1.35-3.93,1.57-6.03-2.66-1.33-4.51,1.89-6.88,2.14,1.7-1.58,3.23-2.77,5.02-4.19ZM21.88,44.13c-2.12-.36-4.1-.56-6.18-.81l1.08,3.44-3.31-5.18-4.22-1.24.12,3.23c-2.24-5.44-1.26-3.78-5.03-8.08,5,2.4,1.4,2.54,9,5.33-.88-5.94-4.53-5.11-5.36-7.85-1.39-4.56-3.4-4.94-5.2-8.84l.7-.06c.16-.02.38-.48.44-.66l1.02-3.08c.56,2.81-1.75,4.58.96,7.33,4.09,4.15.93,4.83,5.66,7.41l2.24-2.87-.98,3.21,2.29,5.96c1.75.5,4.45,1.08,6.36,1.31,2.66-1.5,4.99-2.83,7.71-4.11,1.43-.68,2.28-1.75,3.41-3.02l-.9,2.49,4.71-.61c-1.68,1.23-3.86,1.1-5.85,1.87-2.51.97-4.78,2.42-7.33,3.96,1.47,1.92,3.59,2.4,5.72,2.74-3.83,1.66-5.75-1.63-7.05-1.85ZM43.72,37.9l-1.43,4.59.05-3.45-4.56,3.31c-.7.51-.93,2.48-1.25,3.31-2.05,1-4.23,1.94-6.35,2.51,1.67-1.62,3.57-2.3,5.6-3.24l1.05-3.04,5.66-4.29.29-3.77c.18-2.34.07-4.4-.11-6.91.61,1.12.94,2.4,1,3.7l.26,5.9,3.22-1.64-3.42,3.02ZM46.78,21.02c.29-1.47.61-2.76,1.12-4.03-1.15,5.74.37,7.67-.8,12.63l-.88-7.15c-2.09-2.28-3.93-4.32-5.76-6.91-.7,1.68-1.86,3.33-3.33,4.35,1.08-1.97,1.69-3.39,2.39-5.23.39-1.02,1.62-2.4.04-3.58-1.69-1.27-3.74-2.24-5.91-3.49,2.23.38,4.01,1.37,6.24,2.47l-1.28-4.04,2.95,3.53c-.87.96-.14,1.96-.02,2.93.44,3.56,2.1,6.68,5.23,8.52Z"/>
    </g>
  </g>
</svg>