<?xml version="1.0" encoding="UTF-8"?>
<svg id="Warstwa_2" data-name="Warstwa 2" xmlns="http://www.w3.org/2000/svg" viewBox="0 0 51.21 50.06">
  <defs>
    <style>
      .cls-1 {
        fill: #fff;
      }
    </style>
  </defs>
  <g id="game-icon-v6-elemental-pixarts-store">
    <g id="game-icon-v6-elemental-pixarts-store_192">
      <path class="cls-1" d="M28.83,37.38c-1.67-1.46-2.44-4.26-3.46-6.64-1.28,2.72-2.76,4.97-4.93,7.07-5.51,5.31-2.14.18-4.43,6.32l.94,2.34c.54,1.34,3,1.81,4.13.32.52-.68-.21-2.47-.7-3.22,1.78-.07,2.61,1.43,2.6,2.8,0,1.1-1.18,2.72-2.45,3.15-1.98.67-3.88.16-5.41-1.12-1.17-.98-2.13-2.91-2.21-4.82-.29-6.98,7.8-9.21,7.4-14.45-2.21,3.27-5.05,5.68-9.11,5.73-1.07.01-2.01,0-3.01.52l-1.21.02c-.17,0-1.83,2.46-1.66,3.59.12.83,1.03,2.19,1.66,2.55.41.23,2.07-.32,1.95-.77l-.63-2.33c1.3.14,2.18,1.44,1.97,2.83-.15.96-1.48,2.19-2.73,2.22-3.46.08-5.48-3.24-4.85-6.46,1.46-7.5,11.99-4.08,14.59-10.11-1.52.97-3.1,2.22-4.45,2.35-4.81.48-6.58-5.28-9.98-3.69-1.79.84-1.22,3-.57,4.77-2.45-.66-2.71-3.48-1.81-5.43.88-1.93,3.45-3.2,5.64-2.19,1.51.7,2.76,1.37,4.37,2.32,2.6,1.52,8.4.16,7.78-3.44l-1.01-5.79c-.57-3.27-2.05-6.34-.69-9.82C17.89,2.61,21.24.44,24.54.06c3.75-.43,7.23,1.47,9.21,4.49,2.4,3.68.62,7.17.07,10.8-.32,2.11-.47,3.96-1.25,6.24-.89,2.6,3.62,4.71,5.97,4.05,4.95-1.4,8.57-4.3,11.54-.52,1.36,1.73,1.73,4.47-.15,6.29-.47.45-1.95.93-2.6.87-.65-.06-1.57-1.02-1.94-1.75l1.81.7c.41.16,1.44-.75,1.6-1.16.32-.8.26-2.43-.16-3.07-.41-.64-2.45-.93-3.16-.59-6.05,2.93-5.76,4.22-11.61,1.63,3.08,4.48,9.19,2.77,11.61,7.17,1.11,2.03,1.3,4.31.01,6.32-.62.97-1.99,1.94-2.87,2.15-1.08.26-2.89-.35-3.48-1.3-.28-.45-.47-1.98-.34-2.47.15-.6,1.12-1.09,1.95-1.27l-.74,1.75c-.17.41.49,1.32.91,1.47.5.18,1.72-.26,2.12-.74,1.09-1.29.7-3.96-.53-4.57l-2.55-1.26c-4.42-.62-7.9-2.04-9.55-6.59-.9,3.54,1.51,5.84,3.62,8.07,2.76,2.91,4.18,6.98,2,10.5-1.79,2.88-5.86,3.95-8.16,1.31-.73-.84-1.05-2.5-.77-3.32.39-1.17,2.18-2.06,3.14-1.52-.9.74-1.77,1.2-1.76,1.79,0,.73.39,1.74.9,2.03s2.12.06,2.64-.29c1.78-1.21,1.8-3.21.99-5.16-.42-1.03-.92-1.84-1.72-2.54l-2.46-2.15ZM22.35,20.69c.57-1.24-1.09-3.61-2.51-3.08-.79.95.85,3.2,2.51,3.08ZM31.35,18.6c.11-.2-.07-1.28-.26-1.24-1.47.29-2.92,1.07-2.77,3.37,1.11-.06,2.45-1.03,3.03-2.13Z"/>
      <path class="cls-1" d="M42.05,18.72c.58,2.24-1.09,4.47-2.64,5.27-1.94,1.01-4.3,1.08-5.46-.86,1.54-.75,3.55-1.62,4.26-2.98,1.91-3.69-2.06-7.76.83-11.02,1-1.12,2.95-1.69,4.64-1.18.74.22,1.9,1.35,1.98,2.04s-.45,2.09-.81,2.6c-.17-1.16-.12-2.17-.7-2.56-.7-.48-2.33-.52-2.96-.21s-.92,2.05-.74,2.76l1.59,6.12Z"/>
      <path class="cls-1" d="M11.41,24.06c-2.83-1.68-3.05-5.41-1.71-8.15.69-1.42.98-2.77,1.09-4.49.08-1.24-1.6-2.15-2.6-2.01-1.42.21-2.03,1.78-1.95,3.32-.3-.55-.82-1.99-.81-2.7,0-.69,1.15-1.74,1.86-2.01,2.36-.89,5.01.35,5.55,2.89.83,3.9-1.96,6.46-.2,9.49.62,1.06,2.36,1.95,4.02,2.77-.61,1.75-3.24,2.1-5.26.9Z"/>
      <path class="cls-1" d="M50.87,17.39c-.49.4-2.21.12-2.49.57-.33.54-.57,1.4-1.02,2.7-.58-.5-1.32-1.86-1.43-2.71-.16-1.23.8-2.89,2.15-3.15.67-.13,1.83.05,2.34.23s.87,2.01.45,2.36Z"/>
      <path class="cls-1" d="M5.08,17.66l-2.1-1.33-1.15-.74c-.37-.23.33-1.67.77-1.71.71-.07,2.19.53,2.4,1.13s.17,1.81.08,2.64Z"/>
    </g>
  </g>
</svg>