<?xml version="1.0" encoding="UTF-8"?>
<svg id="Warstwa_2" data-name="Warstwa 2" xmlns="http://www.w3.org/2000/svg" viewBox="0 0 55.51 54.33">
  <defs>
    <style>
      .cls-1 {
        fill: #fff;
      }
    </style>
  </defs>
  <g id="game-icon-v6-elemental-pixarts-store">
    <g id="game-icon-v6-elemental-pixarts-store_70">
      <path class="cls-1" d="M20.81,36.49c.02-.78-.32-2.07-.47-2.85l-.84,5.53c-.9,5.97-.8,1.25-3.14,7.91-.64,1.84-2.89,2.46-4.53,3.22l-2.45,1.99c-3.22.42-6.35.49-9.38.42.84-.6,2.13-1.18,2.47-1.76l2.31-3.9,2.41.57,1.69-5,.87-.86c.66-.85,1.46-1.75,2.46-2.53l1.6,3.33c-.15-1.99-.19-3.83-.15-5.82l.14-8.27c1.05,2.36,1.79,4.36,2.55,6.57.08-1.77.13-3.58-.1-5.26l-.78-5.75.21,7.35-2.07-5.49-2.13-7.48c-.55-1.92-1.51-3.47-2.38-5.18l-.39,6.42s-.36-.56-.41-.9l-1.85-12.37c1.5.65,3.42,1.28,4.58,2.24,1.39,1.39,1.26,3.74,2.26,5.54l-.71-4.89c.48-.47,1.74-.92,2.51-1.06l2.59,9.19c.71,2.52,1.22,4.91,1.76,7.42.01-3.08-.28-5.87-.55-8.97-.05-.61.35-2.03.22-2.68l-1.06-5.31,3.39-2.98c-3.34,1.29-6,2.58-9.07,3.39l-5.71-2.48c2.49-1.04,4.47-1.6,6.67-2.04l-1.77-.48c1.02-.82,2.23-1.29,3.41-1.18l5.54.54.2-.91,4.88-1.68c1.15.34,6.17,1.15,6.01,2.5.02-.16.61-.57.81-.58l6.51-.31c1.74-.08,3.28.84,4.46,1.74l-1.77.84c1.36-.03,2.44-.22,3.38.12l4.69,1.7c-1.34,5.09-1.76,9.57-2.31,14.75l-1.29-8.13-2.34,6.97c-1.41,4.21-2.84,3.55-4.55,9.1-.54,1.77-.18,4.08-.11,5.98l.4-5.3,1.87-4.73c.21-.54,1.11-1.31,1.74-1.83l-.75,5.6c-.44,3.27.5,6.52.97,9.78.29,2.03-.5,3.99-.5,6.11l1.38-4.41c.27-.87,1.19-2.06,1.95-1.55l1.8,7.74,1.6-.16c.55-.05,1.26,4.89,5.97,6.52-9.38.52-4.93-2.01-10.41-3.7l4.46,4c-3.06.33-5.5.05-8.61-.49l3.17,2.1h-13.56c-3.94-.02-7.76-.15-11.73-.17l-12.44-.05c2.59-1.19,4.35-2.47,6.59-3.72l3.08-1.71c.51-.28,1.72.03,2.35.23l-1.23-.95c-.62-.48.95-4.12,2.43-4.12,1.33,1.52,2.37,2.32,3.95,2.95l-.41-4-.57,2.96c-.77-.56-2.01-1.74-1.98-2.5l.21-6.78ZM19.2,53.03c4.42-2.54,5.14-4.48,7.74-9.26.51-.94.1-3.12.43-4.17l3.75-4.3c.9,4.65,1.06,4.89.44,8.94l.8-1.17,1.73,2.28c-.45-.99-2.15-8.38-.59-7.95-1.54-3.27-2.31-6.73-1.88-10.4l2.97-3.97c2.71,5.21,1.06,4.4,2.17,9.31.19-2.27.71-4.44.07-6.5l-1.18-3.77c1.38-4.68,2.33-8.91,3.31-13.79l3.22,1.26c-.49,2.96-.92,5.03-1.08,7.79l2.19-7.89c1.83-.92,3.71-1.44,5.35-2.77l-6.18,2.14c-2.87-.74-5.22-1.88-7.95-3.14l1.9,2.26-6.83,2.82c-6.12-3.34-2.6-1.63-6.8-2.2-.73-.1-1.51-.13-1.93-.1,1.12.28,2.77.51,3.39,1.26l.9,6.88c.68-2.98-.49-4.63-.09-7.98l4.4,2.81c-.03,3.44-.07,6.46.1,9.63l.46-6.19.2-3.64,6.02-2.92-1.68,9.64c-.66,3.78-3.04,5.56-4.31,8.33l-1.24,2.71.95.13c.5,6.5-.28,4.87-3.49,10.14-.3,1.13.05,3.04-.36,4.12-.54,1.41-1.3,3.13-1.9,4.23-1.27,2.31-4.64,3.93-4.99,5.45ZM22.34,36.42c1.36-7.59,1.39-4.57.01-12.01l.32,6.65c.09,1.89-.68,3.63-.33,5.36ZM39,50.32l-1.55-4.78c-.31-.96.51-2.71.02-3.68l-.48,2.23c-.37.89.56,6.17,2.02,6.23Z"/>
      <path class="cls-1" d="M45.75,26.17c-.68-2.12-1.13-4.32,0-6.58v6.58Z"/>
    </g>
  </g>
</svg>