<?xml version="1.0" encoding="UTF-8"?>
<svg id="Warstwa_2" data-name="Warstwa 2" xmlns="http://www.w3.org/2000/svg" viewBox="0 0 61.99 62.3">
  <defs>
    <style>
      .cls-1 {
        fill: #fff;
      }
    </style>
  </defs>
  <g id="game-icon-v6-elemental-pixarts-store">
    <g id="game-icon-v6-elemental-pixarts-store_491">
      <path class="cls-1" d="M49.77,57.56c-.89-.64-1.19-2.58-2.55-2.22-1.01.27-2.08.7-3,1.15l1.7,2.46-4.58-2.1-3.55,2.75c-1.9-1.99-3.04-3.57-5.32-4.58-1.23-.55-5.11,2.54-4.51,3.14l1.2,1.22-2.49.88.71-1.28-4.79-5.75-3.59,4.39c-5.9-2.52-4.27-.9-9.01.84l2.95-2.73c1.51-1.4,3.34-1.37,5.28-.7l4.24-4.83c.85.52,1.94,1.51,2.83,2.38l7.34-13.1c.65,1.31-8.71,17.96-5.33,15.75l7.07-4.65,3.01-6.17-.16-2.66,3.19-3.62-1.93,3.84-.68,5.54,2.58-.51,11.75-25.1c1.04-7.07-.11-14.6.19-21.9l-17.07,13.31-9.81,25.76c1.6-12.08,4.6-9.41-.79-21.15-1.24,2.5-2.64,4.93-3.31,7.21l-2.01,27.13c-2.27-6.03,1.65-6.57-5.26-12.45-.19,2.16-1.05,4.56-.63,6.37l1.83,7.84c-1.29-.73-2.83-2.44-3.9-2.26-1.55.34-3.34,1.43-4.48,2.24-.32,1.6-.34,3.74-1.5,4.54l-5.4,3.76h57.54c-2.82-1.76-5.34-2.99-7.77-4.74ZM36.48,14.81c.18.36,1.15,1.6,1.73,1.41l7.04-2.31,4.02-7.21-4.75,12.22,1.6,5.58,4.4-1.59-3.74,2.83c-1.2.91-1.75,2.84-2.85,4.08l1.54-5.3-1.58-3.84-4.67,7.54c1.49-4.33,3.95-7.48,4.83-12.09-1.83-.21-4.45.1-6.11,1.06l-2.99,6.46c.73-3.34,1.67-5.87,1.54-8.85Z"/>
      <path class="cls-1" d="M32.66,52.83c1.95,1.06,4.53,5.23,5.35,4.79,2.85-1.57,1.77-2.56,5.1-2.29.99-.29,2.77-1.94,3.28-2.99l3.27-6.64-10.21,2.72c-3.33.89-3.25,3.09-6.79,4.42Z"/>
      <path class="cls-1" d="M57.03,45.97l4.24-2.54c.62-.37.93-2.16.55-2.41-2.73-1.42-6.05-.67-7.34,1.83-.33.63-.08,2.31.37,2.7.46.39,1.64.74,2.18.42Z"/>
      <path class="cls-1" d="M9.22,35.83c-.47-3.86.86-3.9-2.57-6.66-.85-.69-2.98-.23-3.22,1.19-.49,2.89,2.65,6.26,5.79,5.47Z"/>
      <path class="cls-1" d="M6.6,47.11c.35,1.35,3.41,2.27,3.93,1.2.9-1.82-.96-3.7-2.38-3.88-.66.26-1.75,1.93-1.56,2.68Z"/>
      <path class="cls-1" d="M51.45,50.61c-.9.36-1.83,1.94-.94,2.65,1.11.88,2.77.22,3.77-.9-.88-1.36-1.95-2.1-2.82-1.75Z"/>
      <path class="cls-1" d="M50.49,35.92c0,.77.63,1.4,1.4,1.4s1.4-.63,1.4-1.4-.63-1.4-1.4-1.4-1.4.63-1.4,1.4Z"/>
      <circle class="cls-1" cx="16.43" cy="35.61" r="1.29"/>
    </g>
  </g>
</svg>