<?xml version="1.0" encoding="UTF-8"?>
<svg id="Warstwa_2" data-name="Warstwa 2" xmlns="http://www.w3.org/2000/svg" viewBox="0 0 53.33 54.02">
  <defs>
    <style>
      .cls-1 {
        fill: #fff;
      }
    </style>
  </defs>
  <g id="game-icon-v6-elemental-pixarts-store">
    <g id="game-icon-v6-elemental-pixarts-store_144">
      <path class="cls-1" d="M.84,29.22c5.5-5.09,6.41-1.26,8.54-6.7.8-2.04,5.97-6.07,8.24-5.75-5.17,3.92-2.14,9.11-8.12,11.22-1.68.59-2.67,2.31-3.89,3.49-1.52,1.46-3.98,2.27-3.3,5.23,1.11-2.04,1.86-3.6,3.45-3.88.42.24.77.53.84.36l.28-.78c.5-1.4,1.65-2.76,2.89-2.97-.27,2.52-.37,4.47.55,6.32,2.08,4.2-2.48,4.64-1.83,7.9l2.13-3.41c.57-.91,1.04-1.94,1.55-3.02,2.88,4.63-1.2,6.45.73,9.37l.68-3.58c2.01,1.51,2.88,3.31,3.4,6.03.85-1.62.09-3.44-1.05-4.83-2.76-3.39-.4-4.91-3.18-8.38-2.41-3.02-1.43-6.52,1.5-8.76l2.65,4.56c2.55,4.39-1.03,4.96.2,7.28,1.24-2.51,1.78-4.15,1.91-6.18,2.01,2.74,2.4,5.29,1.84,8.09,2.36-2.94,1.06-6.91-1.45-9.45-2.29-2.32-4.26-4.97-3.24-8.23l.55,2c.07-2.77.42-5.14,2.54-6.55l.89.94,2.76-3.27.98.89c-.42-2.35-1.02-4.27.08-6.4-.07,7.6,1.93,3.12,2.32,11.02,4.91-3.5-.64-6.58.49-9.42,3.46,8.41,7.65,3.91,10.12,10.6,1.2,3.25-.92,6.63-3.74,8.46.46.51,1.13.95.89,1.12-.25.17-.88.61-1.07.76l-8.38,6.81c-3.58,2.91-4.32,7.03-1.51,10.61.67.85,1.19,2.28,1.71,3.3.41-2.78-3.53-7.6-1.62-9.97,1.8-2.24,3.85-3.89,5.95-5.31-2.19,6.41,5.05,4.92.63,12.83,6.81-3.72-1.46-10.29,1.17-13.36l3.78-4.41.67,3.87c.06.36.34,1.32.65,1.2.3-.12.83-.47,1.14-.7.45-.33-1.67-1.71-1.39-2.93.58-2.51,2.14-5.9,3.49-7.87,3.5,2.16,3.75,5.78,1.49,8.54-3.14,3.83-.39,4.35-3.3,8.22-1.25,1.66-1.97,3.63-.54,5.28-.37-2.89.82-4.85,2.92-6.72l1.26,3.88c.82-3.67-2.75-5.27.19-9.54.78,2.34,1.6,3.84,3.69,5.52.08.97.18.77.39-.39-6.41-6.48.28-4.9-1.73-12.7,2.04.25,2.92,2.03,3.18,4.01.52-.38.97-.8,1.35-.76.31.04,1.2.67,1.34.93l1.69,3.23c.58-2.73-1.72-3.88-3.28-5.42-1.47-1.46-2.41-2.87-4.49-3.61-1.97-.69-3.25-2.91-3.82-4.87-.82-2.85-2.41-4.51-4.46-6.81,13.36,4.91,6.78,8.21,12.49,10,1.63.51,2.84,1.42,4.17,2.43l-1.59-2.47,3.17-.94-4.35.21c-.82.04-2.46-.69-2.79-1.52l-1.38-3.45,3.3-.23c-.47-1.28-2.6,0-3.26-.34l-4.21-3.16c2.41-.07,4.27.09,6.65.32-3.88-3.02-9.31.45-13.53-4.12-1.92-2.08-1.78-4.93-2.13-7.94-2.3,3.92-.93,8.61,2.91,11.24-3.74-.72-5.31-5.23-4.39-8.7l1.91-7.16c-2.79,1-1.64,3.43-3.08,5.15l.81-5.02c-.24-.22-1.39.41-1.43.8l-.58,5.67c-.43-1.73-.51-4.07-.47-6.13,0-.51-1.51-.48-1.52.04l-.16,5.63c-1.11-2.36.57-5.28-2.65-6.45.99,3.7,1,7.06-.36,10.21-.05-3.54,1.55-7.13-1.35-10.18-.1,5.86,1.88,12.94-5.48,15.15-5.24,1.58-5.57-1.01-9.77,1.76,2.45-.31,4.5-.4,7.07-.2l-3.22,2.29c-.71.51-2.54.38-3.85.72l2.91.43-1.54,3.51c-1.32,2.99-5.82.9-7.39,1.49l3.14.89-2.3,3.14Z"/>
      <path class="cls-1" d="M33.44,26.71c1.15-2.26-.21-4.54-1.9-5.26-1.8-.76-3.63.86-4.89,2.22-1.39-1.29-3.13-3.41-5.33-2.01-2.1,1.34-2.46,4.66-.63,6.64l5.79,6.27c2.61-2.56,5.36-4.71,6.96-7.86Z"/>
    </g>
  </g>
</svg>