<?xml version="1.0" encoding="UTF-8"?>
<svg id="Warstwa_2" data-name="Warstwa 2" xmlns="http://www.w3.org/2000/svg" viewBox="0 0 49.98 47.75">
  <defs>
    <style>
      .cls-1 {
        fill: #fff;
      }
    </style>
  </defs>
  <g id="game-icon-v6-elemental-pixarts-store">
    <g id="game-icon-v6-elemental-pixarts-store_104">
      <path class="cls-1" d="M18.97,37.78c1.42.87,2.94,1.53,4.41,2.24,3.32-5.39-6.26-8.34-7.2-12.66l4.04,3.3c1.33,1.08,2.43,2.09,3.75,3.31,1.3-9.71-5.03-8.2-6.18-15.04.58.94,1.25,2.05,2.07,2.88l4.41,4.45c.84-8.5-.75-5.35-2.83-11.42l3.04,3.55.29-6.2c0-.12.51-.78.51-.65l.04.92.25,5.97,3-3.49c-2.15,5.84-3.57,3.16-2.68,11.13l6.12-6.01c-1.81,5.65-7.17,5.38-5.82,13.73,3.21-3.3,5.26-3.58,8.04-7.15-.62,4.22-7.01,6.16-7.95,9.93-.9,3.59-1.89,7.02-3.73,10.19.22.45,1.17,1.03,1.62,1,.45-.03,1.19-.81,1.31-1.27l1.69-6.47c2.41-1.24,4.97-2.43,6.82-4.46,3.98-4.38,4.46-10.45,2.44-15.93-3.17-7.43-8.2-11.96-11.53-19.63-3.17,8.42-7.85,11.87-11.28,19.89-2.83,6.64-.82,14.11,5.33,17.89Z"/>
      <path class="cls-1" d="M16.6,42.82l3.19,1.69c-.53-2.48-2.22-.86-1.37-4.72l-2.87-2.01c.4,1.24.85,2.21,1.44,3.52-3.4-1.82-5.16.02-8.91-1.7l6.03-.16c-5.24-4.75-4.17-1.53-8.62-3.85l4.12.13c-1.34-2.28-3.09-2.93-5.13-3.86l1.69.11-1.33-2.14,2.1,1.77-.13-2.51c.83,2.44,1.39,4.41,3.49,5.63l.2-3.84,1.14,4.81c.22.92,1.91,1.98,2.78,2.38-.02-1.58-.77-2.53-1.57-3.74-1.33-2.01-1.7-4.44-2.17-6.92l-4.75-1.49c-2.24-.7-3.89-1.85-5.92-3.38.99,6.36,1.71,13.32,6,17.91,2.8,3,6.84,3.81,10.61,2.36Z"/>
      <path class="cls-1" d="M36.44,35.77c-.55.72-.92,1.58-1.08,2.5,1.13-.59,2.64-1.6,2.89-2.67l1.28-5.38-.08,4.62c2.36-1.15,2.75-3.12,3.42-5.39l.24,2.03,1.47-.9-.68,1.28,1.74.02c-2.25.82-4.06,1.67-5.41,3.74l4.37-.11c-4.11,2.22-4.24-.48-8.34,3.69l5.36.42c-3.9,1.6-4.97-.56-9.31,2.08.92-1.08,1.76-1.9,1.83-3.64-.67.4-1.67,1.04-2.36,1.56-.45.34.27,1.96.43,2.2-.79.8-1.59,1.73-1.93,2.77l3.19-1.85c6.77,2.79,12.16-2.43,14.14-8.62,1.2-3.76,1.84-7.54,2.36-11.57-2.72,2.25-5.56,3.53-8.93,4.22-3.78.78-.26,3.33-4.61,8.99Z"/>
      <path class="cls-1" d="M11.91,13.59c2.32-3.24,1.89-3.78-.05-7.32-2.19,2.24-2.4,5.43.05,7.32Z"/>
      <path class="cls-1" d="M38.03,13.55c2.48-2.09,2.25-4.8.2-7.24-1.75,2.44-2.59,4.06-.2,7.24Z"/>
      <path class="cls-1" d="M8.64,21.61c1.45-1.75.19-4.95-1.97-5.7-1.24,2.29-.53,5.14,1.97,5.7Z"/>
      <path class="cls-1" d="M43.39,15.8c-2.21,1.11-3.2,3.8-1.99,5.94,2.67-1.03,3.12-3.59,1.99-5.94Z"/>
    </g>
  </g>
</svg>