<?xml version="1.0" encoding="UTF-8"?>
<svg id="Warstwa_2" data-name="Warstwa 2" xmlns="http://www.w3.org/2000/svg" viewBox="0 0 41.37 41.28">
  <defs>
    <style>
      .cls-1 {
        fill: #fff;
      }
    </style>
  </defs>
  <g id="game-icon-v6-elemental-pixarts-store">
    <g id="game-icon-v6-elemental-pixarts-store_158">
      <path class="cls-1" d="M27.3,12.06c-.2.35-1.27.59-1.86.69l1.76,1.99c.34,2.43-.18,5.01-1.2,7.3l-1.71-.7.71,2.36c-3,4.77-5.65,5.4-11.01,6.79l-1.04-1.47-1.01,1.83c-2.27.75-4.16,1.59-6.21,2.68l-1.61-1.24.02,2.66c-1.71,2.13-2.65,3.84-3.48,6.19,1.09.06,2.26.06,3.05-.07.59-1.06,1.34-2.71,2.08-3.33.38-.32,1.77-.17,2.34-.18l-.89-1.72c1.85-1.26,3.76-2.11,5.93-2.62l5.37-1.26,2.17,1.29-.47-1.9c-.08-.34.8-.8,1.13-.97,4.72-2.45,7.5-6.84,8.03-12.04l2.51-2.38-2.26.17-.33-8.34c-.11-2.74.33-5.24.95-7.7-.82-.02-1.44-.05-1.81.02-.37.07-.54,1.16-.71,1.82l-1.19-.21c.49,1.2.72,2.21.72,3.59l.04,6.75Z"/>
      <path class="cls-1" d="M13.31,13.4c.6,1.34.67,2.3.44,3.63-.46,2.72.5,5.59,2.24,7.71.53.65.82,1.5.96,2.32.64-.52,1.47-.44,2.41.17.58.37,1.92-.6,2.35-1.24-1.15-.61-2.58-1.47-3.42-2.5l-.12-2.94-.98,1.83c-1.64-2.17-1.77-5.18-.42-7.8,1.54-2.98,4.9-5.11,7.89-6.79l1.26,1.17.27-4.04-3.23,1.07-1.16-1.97-.49,2.89c-2.88,1.79-4.96,4.1-6.68,6.86l-1.32-.36Z"/>
      <path class="cls-1" d="M1.33,8.6c3.33,1.84,3.97,4.66,3.32,7.88l.71-1.43,2.67,3.39-.74,1.04c2.08-.06,3.72,1.04,5.68,2.4-.19-4.92-2.84-2.8-4.87-6.89.37-.42,1.08-1.07,1.43-1.38-.76.02-1.81.17-2.28-.07-.24-.12-2.56-4.07.06-6.58l-1.61.32c-.42-.81-1.04-5.07-.56-5.1l-.77.04L3.23.12H.7c1.71,2.83,2.58,5.64,2.97,8.71l-2.34-.22Z"/>
      <path class="cls-1" d="M35.85,24.77l.08,1.32c-3.46,1.61-6.02,4.6-6.75,8.53l-2.02,1.43,1.87.47.84,4.46c.73.1,1.8.11,2.38.02-2.89-5.85-.65-10,3.99-12.94l.67,1.6c.37-.68.7-1.31.96-1.72.35-.56,3.5-.01,3.49-.6l-.02-1.84h-3.51c-.62-.01-1.41-.38-2-.74Z"/>
      <path class="cls-1" d="M39.41,15.83l-1.38-.83.22,1.85c.05.47-3.85,2.5-4.33.43-.97,3.26-3.64-.38-3.77,3.74,1.81-.01,3.77-.17,5.86-.42l1.1,1.55.26-2.06,3.98-2.03v-2.87c-1.01.4-1.6.85-1.94.64Z"/>
      <path class="cls-1" d="M37.46,34.97c-1.04-1.03-2.38-2.26-3.43-3.08-.52.02-1.47,1.11-1.42,1.61.05.5.72,1.1,1.37,1.77l-1.04,1.5h2.3c.97,1.1,1.87,2.85,2.51,4.33.81.2,2.02.19,3.03.04l-1.85-4.02c-.24-.51.31-1.72.51-2.3l-1.97.15Z"/>
      <path class="cls-1" d="M35.34,4.96c.52-.14,1.21-.31,1.41-.07l1.04,1.25.28-2.5c1.15-1.19,1.98-2.11,3.08-3.55-1.12-.06-2.31-.06-3.26,0-.74,2.11-4.38,3.12-4.8,2.67l-1.16-1.25.14,1.86c-1.13.19-1.97.95-1.52,2.86l4.78-1.27Z"/>
      <path class="cls-1" d="M2.91,27.45c.09-.53.12-1.31.1-2.12,1.39.51,3.56,2.17,4.32,3.52.09.17-.21.91-.03.96l.67.19,1.35.39c.31.09.98-.68.91-.92-.96-1.06-1.75-2.4-.97-3.65-1.53.96-5-2.14-4.71-3.15C2,23.83-.23,21.34.02,24.06c.17,1.83,1.56-.52,2.89,3.39Z"/>
      <path class="cls-1" d="M11.02,6.23c1.19,1.54,2.7,3.21,4.24,4.59l2.17-2.55c-3.01,1.17-5.99-5.24-5.17-8.05-.44-.25-1.68-.32-1.78.01-.22.93-.65,1.62-1.51,2.12,3.23,1.17.35,4.08,2.05,3.88Z"/>
      <path class="cls-1" d="M22.18,18.64c.48-.47,3.01,1.55,3.32.93.16-.34.39-1.19.39-1.55,0-.36-.86-.57-1.22-.81l-2.76-1.81c-.7-.46-1.62-1.8-2.32-2.5-.35-.1-1.55.92-1.34,1.36.53,1.1,1.83,2.4,2.85,3.29l-.14,2.28,1.22-1.2Z"/>
      <path class="cls-1" d="M13.28,36.72c-.27.08-.55-.59-.72-1.13-.13-.42-1.11-.64-1.61-.4-.85.39.8,1.73.14,3.34l1.03,2.45c.23.55,2.12.33,1.82-.52-.68-1.9-.24-2.78.7-4.12l-1.36.38Z"/>
      <path class="cls-1" d="M30.07,29.52l-3.42-1.52c-.64.36-1.85,1.53-2.4,2.15l4.7,1.66,1.13-2.3Z"/>
    </g>
  </g>
</svg>