<?xml version="1.0" encoding="UTF-8"?>
<svg id="Warstwa_2" data-name="Warstwa 2" xmlns="http://www.w3.org/2000/svg" viewBox="0 0 43.67 64.57">
  <defs>
    <style>
      .cls-1 {
        fill: #fff;
      }
    </style>
  </defs>
  <g id="game-icon-v6-elemental-pixarts-store">
    <g id="game-icon-v6-elemental-pixarts-store_487">
      <path class="cls-1" d="M2.54,46.15l1.35-8c2.66,3.57,3.14,7.49,4.05,11.63l.95-4.59c8.02,4.89,5.22,7.72,6.9,16.51l2.24-8.12,1.37,3.62.79-.65c.16-.13.85.45.92.7l2.13,7.33c.89-2.42,1.7-12.22,5.57-9.25l1.66-2.08,1.9,5.43c.91-3.36.05-6.86,1.35-10.13l1.88-4.73c.21-.52-.16-1.62-.41-2.03-.19-.33-1.58-.16-1.82-.45l-2.65-3.23,5.51,2.65,1.01-4.23c.52-2.17,1.42-3.97,2.76-5.89l1.05,5.74c.87-3.02.65-6.17,1.71-8.97,1.68-4.43,1.19-8.93-2.59-12.39.49,6.91.46,9.83-5.5,13.66.48-3.74,1.87-6.43,3.02-9.76-.52-6.38-.05-9.57-6.52-12.95,2.75,8.44,3.23,11.69-1.92,19.07-1.49-3.54.69-6.67.61-10.07-.06-2.69-.69-5.56-1.3-8.38C28.38,5.76,23.72-.22,21.11,0c.6,1.83,1.24,3.19,1.29,4.56l.24,6.45,1.12-2.79c2.22,6.92.71,8.46-1.56,15.25-1.89-2.35-1.73-4.62-2.48-7.13-2.01-6.71-3.92-11.37-11.01-13.31.39,1.3,2.01,2.96,2.14,4.24l1.08,10.96,1.37-5.59,1.41,5.75c.73,2.98.27,6.39.39,9.5l2.3,1.21c3.79,5.27,6.97.17,9.1,3.96-1.94-.64-4.62-1.1-4.94.77.86,2.49,1.96,4.97,2.34,7.23l-2.7-4.86c-1.07-1.93-1.86-3.46-3.76-4.9-.58-.44-1.67-1.14-2.29-1.09-1.06.07-1.71,2.58-1.88,3.28.12-.51,2.97,4.06,3,5.33-3.91-2.81-.83-3.87-6.41-4.54-1.14-.14-3.29-1.92-3.44-3.07-.36-2.8-.95-5.02-2.95-7.04l-.42-5.02C.25,21.98.36,25.68.11,29.29c-.16,2.33-.26,3.56.55,5.7,1.33,3.54,1.09,7.51,1.88,11.15Z"/>
    </g>
  </g>
</svg>