<?xml version="1.0" encoding="UTF-8"?>
<svg id="Warstwa_2" data-name="Warstwa 2" xmlns="http://www.w3.org/2000/svg" viewBox="0 0 36.58 46.17">
  <defs>
    <style>
      .cls-1 {
        fill: #fff;
      }
    </style>
  </defs>
  <g id="game-icon-v6-elemental-pixarts-store">
    <g id="game-icon-v6-elemental-pixarts-store_133">
      <path class="cls-1" d="M4.33,42.2c4.83,3.38,10.98,4.88,16.75,3.41,4.14-1.05,5.88-5.09,6.3-8.91l.36,2.13,2.44-4.21c.44-.76.63-2.43.97-3.59.35,1.59-.13,3.4-.93,5l-1.76,3.48,2.1-.64c-1.72,1.62-3.23,3.06-4.46,5.16,3.73-.7,6.68-3.23,7.7-6.82,1.95-6.89-3.36-12.92-7.38-18.31-.26-.35-.88-1.2-1.18-.98l-1.16.85,2.87,5.27c.43.79.7,1.98.64,2.93l-3.98-6.96c-.17-.29-.81-.83-1.03-.74l-.88.34,2.39,5.58c1.58.72,2.65,1.59,2.17,3.44l-1.21-2.22c-.69.49-1.38,1.43-1.64,2.08-1.2-.7-.17-2.12-.37-2.74-.64-1.95-1.78-4.54-2.6-6.27l-6.69.22-2.73,6.06c-.88-1.36,2.26-7.15.61-6.55-.23.08-.94.37-1.12.59l-2.63,3.4c.44-1.54,1.02-2.69,1.65-4.02-.19-.2-1.13-.68-1.52-.55-1.27.44-6.01,8.08-7.04,10.47-2.05,4.75-.96,10.1,3.33,13.1ZM15.77,40.62l-.57-1.64c1.98-3.08,4.3-3.38,7.62-1.76-2.53,2.75-3.32,3.75-7.05,3.4ZM22.94,33.2c-.27.94-3.03,2.02-3.29.63-.25-1.34,2.62-1.48,3.29-.63ZM14.28,26.52l4.1-4.04c.62,2.4,1.2,4.91.22,7.21-.64,1.51-2.33,2.42-4.12,3.05l1.72-5.07-2.3,3.96c-1-1.25-1.07-3.68.38-5.11ZM13.52,33.6l.17,3.04c2.09-2.29,4.11-4.45,6.65-6.38-2.68,4.74-8.9,7.59-6.58,13.42-1.99-.86-3.08-5.62-3.79-5.63l-1.22-.02-1.61-2.4,3.32,1.25,1.7,2.25c.4-2.25.52-3.76,1.36-5.55ZM11.91,35.06c-1.52.02-3.53-.68-4.02-2.1-.51-1.5-.71-3.04-.87-4.52,3.3.51,5.77,2.94,4.89,6.62Z"/>
      <path class="cls-1" d="M11.04,13.84l-1.45-3.27c1.61.99,2.55,4.83,4.23,3.34-.9-2.51-2.07-5.1-3.35-7.34-2.51.57-4.28,1.54-6.61.35,2.05-2.33,4.91-3,7.28-3.19-.15.98,0,1.84.49,2.87l3.55,7.57c.17.37,1.44.06,1.59-.27l.5-1.11.85,1.48,2.65-.61c.86-1.38,1.77-2.79,3.09-3.95l-1.51,3.72c1.16-.14,2.22-.66,2.9-1.5l4.92-6.06c.33-.4.55-1.61.35-2.07-.17-.38-.92-1.06-1.38-1.12l-4.97-.68c-2.85-3.7-6.57-1.36-10.48-.24,1.81,2.58,3.59-1.44,8.03-.13l-.07,2.24c-2.59,1.22-5.81,1.98-8.61,1.32-.33-.08-1.17-1.04-.85-1.15l1.18-.41.67-.23c.12-.04-.04-.21-.16-.22l-.79-.1c-4.02-.52-7.89.06-10.44,3.54,1.91,2.32,5.91,7.33,8.4,7.23ZM22.06,6.79l.8-2.87c2.21-1.12,4.92-.83,6.88.53-2.16,2.78-5,.49-6.49,1.2-1.13.54-.86,4.47-2.45,5.96.26-1.77.81-3.17,1.27-4.83Z"/>
      <path class="cls-1" d="M25.81,15.43c-6.16,2.76-12.1,2.02-18.26.63-.09,3.31,19.11,3.42,18.26-.63Z"/>
      <path class="cls-1" d="M24.9,15.03c.24-.09.62-.64.75-.84.08-.13-.47-.58-.63-.51-4.72,1.88-10.91,2.14-16.24.47-.21-.07-.97-.2-.93.02s.43,1,.65,1.07c5.29,1.84,11.39,1.65,16.41-.21Z"/>
      <path class="cls-1" d="M33.6,12.65c-2.09.4-5.55-.91-7.25,1.05-.1.11.49.4.68.4l6.36-.12c1.46-.03,2.98-1.73,3.19-3.07-.99.21-2.15,1.13-2.98,1.76Z"/>
      <path class="cls-1" d="M26.29,15.58c1.63,1.61,3.74,2.21,5.32,3.45,1.34,1.05,2.21,2.54,4.08,1.56l-2.32-1.78c-2.06-1.57-4.08-3.58-7.08-3.23Z"/>
    </g>
  </g>
</svg>