<?xml version="1.0" encoding="UTF-8"?>
<svg id="Warstwa_2" data-name="Warstwa 2" xmlns="http://www.w3.org/2000/svg" viewBox="0 0 36.58 55.94">
  <defs>
    <style>
      .cls-1 {
        fill: #fff;
      }
    </style>
  </defs>
  <g id="game-icon-v6-elemental-pixarts-store">
    <g id="game-icon-v6-elemental-pixarts-store_386">
      <g>
        <path class="cls-1" d="M26.14,17.77h-14.79c-.12-1.47-.16-3.23-.09-4.49,2.06-1.03,2.87-2.32,3.22-4.64l4.07-2.51c2.34.08,3.77,2,5,3.63-.23-2.03-1-4.07-.73-6.01.17-1.26,2.19-2.83,3.32-3.64l3.29,3.25.4,5.74c3.23,1.58,5.09,5.15,3.39,8.37-1.45.33-3.66.33-5.16.19-.35-2.57-.93-4.43-2.81-5.87l.88,5.99Z"/>
        <path class="cls-1" d="M17.08,6.27c-5.32,1.14-2.75,4.36-5.59,5.44-2.25.86-4.93-3.13-5.02-3.63-.45-2.34-.67-4.89-.86-7.69C8.65.09,10.91,0,13.9,0l3.18,6.27Z"/>
        <path class="cls-1" d="M29.75,22.75c-7.94,1.69-14.79,3.59-22.37,6.05l-1.43-3.93,15.29-4.3c3.03-.85,6.68-.17,9.98-.16.03.97-.68,2.17-1.47,2.34Z"/>
        <polygon class="cls-1" points="10.36 36.77 8.89 33.23 28.68 28.21 27.37 31.74 10.36 36.77"/>
        <path class="cls-1" d="M32.73,25.31c-9.24,2.97-16.87,4-26.93,7.48-.54-1.45.91-2.66,2.27-3.09,6.89-2.2,13.73-3.78,20.81-5.49,1.54-.37,2.82-.6,3.85,1.1Z"/>
        <path class="cls-1" d="M9.85,17.71l-6.64.12c-2.43-4.59-.46-6.85,1.92-11.16,1.15,2.59,2.08,3.84,3.8,5.75.76,1.09.86,3.72.93,5.29Z"/>
        <path class="cls-1" d="M10.24,40.5c-.42.13-1.77-.02-1.65-.42.12-.4.78-1.61,1.28-1.79,5.09-1.76,11.64-3.63,17.27-5.17.91-.25,2.26.8,2.02,1.47l-18.92,5.91Z"/>
        <path class="cls-1" d="M23.62,41.21l-10.02,3.54c-.55-1-1-1.97-1.58-3.43l12.82-3.75c.1.89-.37,3.34-1.22,3.64Z"/>
        <polygon class="cls-1" points="18.02 55.94 14.85 49.19 22 46.67 18.02 55.94"/>
        <path class="cls-1" d="M14.03,48.25c-.52.2-1.77-.18-1.92-.6-.15-.42.59-1.35,1.15-1.54l10.73-3.73c.44-.15,1.76.36,1.59.65-.17.29-.78.97-1.11,1.1l-10.45,4.12Z"/>
        <path class="cls-1" d="M5,23.83c-.73.23-1.77.59-2.05.19-1.08-1.58,1.55-1.73,1.86-3.6,3.29-.15,7.02-.15,10.76.08l-10.57,3.33Z"/>
        <path class="cls-1" d="M34.81,11.37c-1.78-1.54-3.05-3.84-2.48-6.14.33-1.35,3.62-1.83,4.25-.39-.31,2.04-.94,4.05-1.77,6.53Z"/>
      </g>
      <polygon class="cls-1" points="3.16 5.87 1.1 10.33 0 5 3.16 5.87"/>
    </g>
  </g>
</svg>