<?xml version="1.0" encoding="UTF-8"?>
<svg id="Warstwa_2" data-name="Warstwa 2" xmlns="http://www.w3.org/2000/svg" viewBox="0 0 61.64 45.13">
  <defs>
    <style>
      .cls-1 {
        fill: #fff;
      }
    </style>
  </defs>
  <g id="game-icon-v6-elemental-pixarts-store">
    <g id="game-icon-v6-elemental-pixarts-store_181">
      <path class="cls-1" d="M12.26,43.29l-6.84,1.84,48.39-.04-6.78-2.02c2.22-.68,4.21-1.52,5.26-2.87,1.43-1.84,1.46-4.01,1.2-6.1l6.33-2.22-7.1.65c-.8-2.12-2.72-1.49-4.68-1.22l2.13-1.55c.89-2.47-.67-5.59-3.54-6.19l10.27-13.38-12.62,10.85c.14-1.98-.21-3.99-1.55-4.94-1.61-1.13-3.54-.95-5.45-.45-.36-2.64-1.92-4.79-4.04-5.69-2.35-1-4.71-.66-6.71,1.23L23.51,0c-.12,4.98.2,9.03.5,13.55-3.08-1.69-6.01-.99-8.15,1.09-2.04,1.99-2.3,4.69-1.13,7.85-4.1-3.26-7.68-6.5-11.92-9.34l8.78,11.34c-3.22.07-4.93,1.57-5.46,4.14-.94,4.6,4.23,5.75,3.74,6.48-.13.19-.59.46-.87.45l-9-.43,8.59,2.7c-.02,2.49,1.03,4.35,3.67,5.45ZM18.56,39.16c-.56-1.95-1.44-2.69-2.85-4.05l3.16-.6c-1.2-2.41-2.38-4.1-3.95-5.83,1.98,1.01,3.59,1.79,5.81,2.64l-.22-3.39c.9,1.17,1.84,2.4,3.27,3.07.72-.92,1.17-2.57,1.1-3.63l-.5-8.17c1.1,2.64,1.85,5.75,3.7,7.97,2.14.65,3.96-1.78,4.66-3.42l1.78-4.15.17,7.97c0,.23.41,1.02.55.95l.87-.45c.16.83.45,2.89,1.26,3.2,1.34.51,3.09-.67,4.5-1.29-1.12,2.11-1.84,3.23-2.49,5.59l5.08-.99c-1.12.76-2.61,2.53-2.79,3.9-.07.54,1.29,1.41,1.77,1.59l-3.37,3.06c-.76.69-3.13.21-4.28-.06l2.44-3.51-3.75.82c.62-2.24,1.17-3.67,2.04-5.76l-3.97,3.08-.72-5.91-2.5,5.17-2.74-6.15-.05,7.22c-1.52-.76-2.52-1.5-4-2.58l1.47,4.23-2.95-.48c.59,1.32,1.41,2.33,2.77,4.05-1.07.12-3.19.22-4.35.09-1.78-1.58-3.71-3.06-5.89-4.17l4.97-.02Z"/>
      <path class="cls-1" d="M45.17,9.07c1.91,2.11,3.57,1.75,4.8.67,1.52-1.33.29-2.88-.33-4.51-.35-.93-.49-2.76-1.24-3.13-1.09-.54-7.81-.93-8.36,2.82-.11.72.41,2.18.9,2.75.41.47,1.3.52,2.54.71l-1.64,5.05,3.32-4.34Z"/>
      <path class="cls-1" d="M9.17,9.91c-.75.31-1.39,1.77-1.12,2.39.23.53,1.63.95,2.22.75,1.23-.42,2.02-1.52,1.58-2.21-.57-.89-1.71-1.32-2.68-.93Z"/>
      <path class="cls-1" d="M61.64,26.89c-3.23.18-6.07.95-8.84,2.77,3.31.29,6.11-1.11,8.84-2.77Z"/>
      <path class="cls-1" d="M1.99,25.29l1.79.53c.39.12,1.09-1.08.97-1.47-.26-.87-1.89-1.87-2.76-1.81-.44.03-1.29.96-1.15,1.37.14.4.74,1.25,1.15,1.38Z"/>
      <path class="cls-1" d="M17.09,10.23c-.85-2.74-2.1-4.68-3.5-6.71.38,2.78,1.39,5.22,3.5,6.71Z"/>
      <path class="cls-1" d="M55.58,22.53c0-.74-.6-1.34-1.34-1.34s-1.34.6-1.34,1.34.6,1.34,1.34,1.34,1.34-.6,1.34-1.34Z"/>
    </g>
  </g>
</svg>