<?xml version="1.0" encoding="UTF-8"?>
<svg id="Warstwa_2" data-name="Warstwa 2" xmlns="http://www.w3.org/2000/svg" viewBox="0 0 70.01 52.12">
  <defs>
    <style>
      .cls-1 {
        fill: #fff;
      }
    </style>
  </defs>
  <g id="game-icon-v6-elemental-pixarts-store">
    <g id="game-icon-v6-elemental-pixarts-store_404">
      <g>
        <path class="cls-1" d="M27.91,37.55l-.09-4.02,3.6-2.09-4.27.22c-1.64.08-4.05-2.06-4.56-3.64l-2.17-6.77c-.59-1.85-.91-3.51-.32-5.46l1.93,3.2c5.29,3.1,4.35-1.03,7.11,1.04l-1.97,2.34,3.44-1.86c.72-.39,2.75.15,2.98.91-.29,1.95-.5,4.24.31,5.83.64-6.37,3.74-8.17,9.35-10.09l3.42,2.24c-.62-1.15-1.48-2.47-1.61-3.2.96-1.1,1.9-1.76,2.16-3.12-3.29,2.77-7.95,1.23-9.57-1.91-.2-.39-.09-1.57.13-1.84.28-.34,1-.67,1.55-.73l8.4-1c1.23-.15,2.39.55,2.88,1.7l2.79,6.47c.87,2.01.88,3.59-.52,5.39-5.01,6.44-5.87,10.97-15.93,10.25l2.73,1.8c.01,1.72.02,3.19.72,4.54l.52-4.2,4.12-1.82.97,11.09c-1.66-.09-3.03.37-4.14,1.15-2.11-.93-4.31-.68-6.38,1.55l-1.14-8.81c-.88,3.07.1,8.46-1.41,9.86-1.6,1.48-2.85-4.48-2.88-4.94-.26.67-.75,1.85-1.06,2.11l-4.49.14,1.19-10.17c.94,1.35,1.39,2.2,2.23,3.86Z"/>
        <path class="cls-1" d="M25.87,52l9.27-4.27c1.63-.75,2.71-2.72,4.69-3.04,3.32,2.01,4.29,5.02,8.07,5.35-1.88-1.42-3.57-2.79-4.94-4.61.85-1.34,2.36-1.07,3.69-.78,2.84.63,4.96,1.66,7.22,3.32,2.42,1.78,5.45,2.27,8.26,3.61l-11.1-.46c-.91-.04-2.73.72-3.77,1l-21.39-.12Z"/>
        <path class="cls-1" d="M20.78,44.61l-5.94,3.85c-4.79.98-9.63,1.09-14.84.87l7.5-2.56,6.59-4.91c1.58-1.18,4.01-2.11,5.78-3.05.74-.02,2.7.74,2.89,1.5.25,1.01-.05,2.7-.38,4.09l-2.96-3.02c-.38-.38-1.82-.52-2.21-.29l3.56,3.51Z"/>
        <path class="cls-1" d="M33.5,15.61c.15,1.42-2.01,2.04-2.94,1.84-1.07-.22-2.09-1.18-2.43-2.44-.88-3.22-2.15-6.24-2.28-9.69-.07-2.04,5-3.36,5.62-1.4,1.2,3.76,1.6,7.62,2.03,11.68Z"/>
        <path class="cls-1" d="M9.25,51.88l6.6-2.5,5.99-3.11c1.53-.79,3.75-.92,5.57-.89,1,.01,2.48,1.87,3.24,2.76-11.1,5.1-8.48,3.84-21.4,3.74Z"/>
        <path class="cls-1" d="M36.61,8.1c-2.08,2.41.38,5.95,2.63,7.65-1.15.53-3.26.4-4.17-.48-.67-4.29-1.75-8.51-1.64-12.87.06-2.38,4.98-2.98,6.23-1.09.88,1.34.83,4.11.38,5.5-1.18.31-2.85.62-3.43,1.29Z"/>
        <path class="cls-1" d="M56.82,48.69l-5.29-3.96.73-1.63-3.68.5c-.28-.57-.53-2.18-.56-2.89l5.6.99c4.99,3.44,10.3,5.14,16.41,7.2l-13.19-.21Z"/>
        <path class="cls-1" d="M26.99,16.64c.27,1.42-3.37,2.26-3.88,1.25l-3.61-7.11c-.41-.81.43-2.51,1.03-3.13.7-.74,2.45-1.09,3.6-.7,1.09,3,2.2,6.22,2.87,9.68Z"/>
        <path class="cls-1" d="M47.02,6.02l-5.11.69c-.21-1.75-.61-4.29.37-5.7,1.15-1.68,3.71-.98,5,.09,1.3,1.08,1.97,2.77,1.86,4.66l-1.01-.59c-.2-.12-.84.82-1.11.85Z"/>
        <path class="cls-1" d="M57.17,37.96c-1.03,1.04-3.24.69-4.5.13.78-2.31,2.8-3.5,5.19-3.68.07,1.02-.08,2.94-.69,3.56Z"/>
        <path class="cls-1" d="M18.45,31.26c1.89-.05,2.67,4.25,2.07,4.07-1.17-.34-2.43-.92-3.04-1.85-.33-.51.33-2.21.96-2.23Z"/>
      </g>
      <path class="cls-1" d="M14.3,31.04c-.26.78-2.4.4-3.07-.18-.55-.48-.52-1.86-.09-2.75,1.43-.03,2.84,1.34,3.16,2.93Z"/>
      <path class="cls-1" d="M54.25,30.75c-.14-.81,1.19-2.48,1.83-2.15.83.42.85,1.59.38,1.97-.53.43-2.1.79-2.2.18Z"/>
    </g>
  </g>
</svg>