<?xml version="1.0" encoding="UTF-8"?>
<svg id="Warstwa_2" data-name="Warstwa 2" xmlns="http://www.w3.org/2000/svg" viewBox="0 0 51.99 51.99">
  <defs>
    <style>
      .cls-1 {
        fill: #fff;
      }
    </style>
  </defs>
  <g id="game-icon-v6-elemental-pixarts-store">
    <g id="game-icon-v6-elemental-pixarts-store_526">
      <path class="cls-1" d="M25.99,51.99c14.36,0,25.99-11.64,25.99-25.99S40.35,0,25.99,0,0,11.64,0,25.99s11.64,25.99,25.99,25.99ZM46.75,26.98c1.63,11.6-7.85,20.76-19.39,20.14,10-2.56,17.67-9.93,19.39-20.14ZM31.43,7.51l-4.26,15.27,9.28.15-16.48,21.76c1.31-5.66,3.04-10.12,4.91-15.51l-9.59-.52L31.43,7.51ZM24.21,4.97C14.64,7.9,7.7,14.23,4.86,25.22,3.95,14.95,12.36,4.14,24.21,4.97Z"/>
    </g>
  </g>
</svg>