<?xml version="1.0" encoding="UTF-8"?>
<svg id="Warstwa_2" data-name="Warstwa 2" xmlns="http://www.w3.org/2000/svg" viewBox="0 0 63.86 43.98">
  <defs>
    <style>
      .cls-1 {
        fill: #fff;
      }
    </style>
  </defs>
  <g id="game-icon-v6-elemental-pixarts-store">
    <g id="game-icon-v6-elemental-pixarts-store_05">
      <path class="cls-1" d="M47.26,34.63c-9.52,4.23-19.39,4.41-28.94.72-7.12-2.92-13.22-7.43-18.32-13.37,5.29-5.83,11.24-10.43,18.29-13.14,9.4-3.48,18.97-3.47,28.18.4,6.81,2.82,12.54,7.32,17.38,12.87-4.8,5.31-10.15,9.43-16.6,12.52ZM44.53,21.79c0-6.97-5.65-12.62-12.62-12.62s-12.62,5.65-12.62,12.62,5.65,12.62,12.62,12.62,12.62-5.65,12.62-12.62ZM21.7,33.01c-6.05-6.43-6.27-15.18-.38-21.83-6.62,1.91-12.27,6.03-17.14,10.9,5.23,5.02,10.54,9.33,17.52,10.92ZM59.76,21.93c-5.25-4.88-10.55-8.79-17.34-10.85,6.08,6.73,5.88,15.64-.55,22.05,7.27-1.8,12.91-6.07,17.89-11.2Z"/>
      <path class="cls-1" d="M59.52,12.92C39.64-1.33,23.13-.6,4.04,13.06c15.43-17.7,41.01-17.08,55.49-.14Z"/>
      <path class="cls-1" d="M57.21,33c-5.19,5.66-12.7,9.69-20.69,10.7-11.02,1.39-22.7-2.39-30.26-10.87,15.75,11.22,34.8,11.64,50.95.17Z"/>
      <path class="cls-1" d="M28.79,27.1c-1.43-1.3-1.95-3.18-1.64-4.95.25-1.47,1.72-2.71,3.36-3.38-2.56-.81-4.67.37-6.13,1.91-1.6,1.69-1.86,3.83-2.01,6.37-2.03-4.56,1.7-9.84,6.73-10.15,2.76-.17,4.74,1.39,5.92,3.41-.5-5.18-5.39-5.18-9.21-5.12,2.93-1.32,6.62-.97,9.21,1.3,1.13.99,1.75,2.71,1.84,4.29.07,1.18-.98,2.59-2.05,3.83,4.21-.25,6.47-4.18,6.02-8.4,1.72,3.09.11,6.68-2.68,8.67-2.73,1.94-5.84,1.86-8.67-.1,1.66,4.1,5.94,3.47,9.79,2.29-2.8,2.39-7.39,2.81-10.45.04Z"/>
      <path class="cls-1" d="M52.27,23.87l-1.96-1.93c.64-.62,1.69-1.86,2.13-2.52.27.96,1.46,2.11,2.37,2.44-.66.38-1.83,1.32-2.55,2.01Z"/>
      <path class="cls-1" d="M11.59,24.41c-.31-.72-1.27-1.94-2.09-2.52.68-.33,1.65-1.68,1.85-2.57.51.91,1.4,2.04,2.14,2.68-.62.23-1.46,1.17-1.91,2.41Z"/>
    </g>
  </g>
</svg>