<?xml version="1.0" encoding="UTF-8"?>
<svg id="Warstwa_2" data-name="Warstwa 2" xmlns="http://www.w3.org/2000/svg" viewBox="0 0 61.2 59.76">
  <defs>
    <style>
      .cls-1 {
        fill: #fff;
      }
    </style>
  </defs>
  <g id="game-icon-v6-elemental-pixarts-store">
    <g id="game-icon-v6-elemental-pixarts-store_552">
      <path class="cls-1" d="M24.19,49.8l-3.88,1.05c2.17-2.81,4.28-5.58,6.93-7.73,1.57-1.27,3.2-2.19,3.85-4.2-1.14.72-2.4,1.69-3.64,2.22l-4.52,1.93,5.93-7.59c.8-1.02,1.13-2.79,1.31-3.96l10.07-11.45c2.13-2.42,4.14-4.61,6.02-7.14,2.21-2.98,4.99-5.23,6.96-8.61l-12.44,11.21-15.82,14.86c.42-2.79,2.02-4.78,3.81-7.43-5.04,2.53-8.85,10.32-14.64,14.19l1.29-5.76-8.31,8.76-.05-2.63-4.8,6.12c-2.17,2.77-2.87,6.73-1.75,10.02,1.06,3.1,3.84,5.17,6.2,5.74,7.92,1.92,12.09-4.26,17.46-9.6ZM3.2,47.43c1.43-2.29,3.64-4.07,5.89-5.56l-.22,2.57,5.23-3.58-.49,2.42,7.13-4.93-5.24,8.52,3.2-1.4-3.25,5.4,2.33-.52c-1.07,2.22-2.57,4.56-4.85,5.97-3.03,1.87-6.36,1.46-8.55-.67-2.06-2-2.89-5.47-1.18-8.22Z"/>
      <path class="cls-1" d="M47.09,41.79l1.61-3.43c-3.91,3.28-7.39,6.28-10.98,9.64-1.92,1.8-1.51,5.12.06,6.32,2.07,1.57,4.72.97,6.41-1.13l8.8-10.93-3.35,1.72,11.55-14.83-14.11,12.64ZM40.58,53.96c-1.6,0-2.9-1.3-2.9-2.9s1.3-2.9,2.9-2.9,2.9,1.3,2.9,2.9-1.3,2.9-2.9,2.9Z"/>
      <path class="cls-1" d="M4.11,23.8c1.64,1.07,4,.81,5.57-1.15l7.62-9.48-1.82.1L25.89,0l-13.03,11.51,1.27-2.92L3.74,17.91c-1.79,1.61-1.46,4.7.37,5.89ZM6.39,18.01c1.45,0,2.63,1.18,2.63,2.63s-1.18,2.63-2.63,2.63-2.63-1.18-2.63-2.63,1.18-2.63,2.63-2.63Z"/>
      <path class="cls-1" d="M50.77,20.59l-6.74,6.21c-1.22,1.12-.69,3.61.37,4.28,1.4.88,3.06.46,4.16-.92l4.96-6.23-.56-.96,6.99-9.25c-3.12,2.34-5.52,4.8-8.14,7.46l-1.04-.58ZM46.17,30.64c-1.07,0-1.93-.86-1.93-1.93s.86-1.93,1.93-1.93,1.93.86,1.93,1.93-.86,1.93-1.93,1.93Z"/>
      <path class="cls-1" d="M25.49,12.67c-1.14,1.03-1.01,3.25.08,4.17.96.81,3.1.72,4.11-.56l5.04-6.42-1.37.32,6.21-8.54-7.38,6.3.17-1.44-6.85,6.18ZM27.47,16.46c-1.02,0-1.85-.83-1.85-1.85s.83-1.85,1.85-1.85,1.85.83,1.85,1.85-.83,1.85-1.85,1.85Z"/>
      <path class="cls-1" d="M37.9,27.74c-2.5,1.79-5.78,3.45-6.65,7.19,2.82-1.77,4.8-4.44,6.65-7.19Z"/>
      <path class="cls-1" d="M5.96,47.63c-1.17,1.08-2.04,2.88-1.67,4.55.3,1.37,1.85,2.88,2.91,2.87.55-1.76.94-2.65,1.69-3.98l-2.96,1.72c-.14-1.95-.11-3.27.03-5.15Z"/>
    </g>
  </g>
</svg>