<?xml version="1.0" encoding="UTF-8"?>
<svg id="Warstwa_2" data-name="Warstwa 2" xmlns="http://www.w3.org/2000/svg" viewBox="0 0 57.08 56.97">
  <defs>
    <style>
      .cls-1 {
        fill: #fff;
      }
    </style>
  </defs>
  <g id="game-icon-v6-elemental-pixarts-store">
    <g id="game-icon-v6-elemental-pixarts-store_286">
      <path class="cls-1" d="M28.58,56.97l-2.79-10.73c-.09-.36-.57-1.11-.9-1.23-.42-.15-1.26.55-1.55.92l-4.14,5.22.66-8.74-11.15,5.9,5.69-9.59c2.04-3.44-6.55-.2-8.07-.87l6.38-5.78L0,28.53l11.8-3.09c.47-.12.42-1.26.12-1.51l-5.84-4.73,8.9.66-6.24-11.39,9.65,5.71c.36.21,1.58.01,1.56-.37l-.88-7.8c2.18,1.11,5.52,8.87,6.57,4.98L28.62,0l2.9,11.09c1.04,3.96,4.37-3.74,6.55-5.06l-.79,7.36.16.77c.05.21,1.14.23,1.41.07l9.64-5.72c-.98,3.15-6.2,8.87-5.65,11.38l8.36-.74-5.77,4.66c-.22.18-.69.59-.6.82.12.31.84.88,1.16.96l11.08,2.86-12.67,3.48,6.6,5.95-6.88-.74c-.27-.03-.71-.03-.92-.03-.29,0-.5,1.16-.31,1.49l5.62,9.74-9.59-5.5c-3.26-1.87-.25,6.45-.83,8.24l-5.68-6.7-3.85,12.58ZM30.29,11.57l-1.68-5.76-1.65,5.79,3.33-.03ZM17.86,15.42l-5.06-2.76,2.94,5.19,2.13-2.43ZM44.03,28.51c0-8.5-6.89-15.39-15.39-15.39s-15.39,6.89-15.39,15.39,6.89,15.39,15.39,15.39,15.39-6.89,15.39-15.39ZM41.63,17.85l2.61-5-4.83,2.74,2.22,2.26ZM11.81,30.2l-.08-3.36-6.07,1.74,6.15,1.62ZM51.47,28.58l-6.1-1.7v3.19s6.1-1.49,6.1-1.49ZM17.95,41.54l-2.22-2.31-2.86,5.07,5.09-2.76ZM44.48,44.32l-2.83-5.1-2.22,2.38,5.05,2.72ZM28.62,50.89l1.77-5.52-3.36.17,1.59,5.35Z"/>
      <path class="cls-1" d="M33.94,40.2c-1.86.39-3.67-1.33-5.23-1.68-2.11.68-4.05,1.78-6.36,2.08l5.54-2.82c-3.46-2.59-5.78-4.75-8.25-8.3l-2.88,5.97c.06-2.29,1.4-4.52,2.15-6.7-.53-2.28-2.23-4.66-2.1-6.87l2.73,5.69c2.67-3.39,4.86-5.62,8.08-8.29l-4.7-2.73c1.93.27,3.92,1.42,5.68,2.18,2.03-.74,3.91-2.59,6.18-2.07-1.8.7-3.53,1.46-5.45,2.59,3.36,2.58,5.56,4.97,8.27,8.58l2.74-6.05c.61,2.53-1.76,4.39-1.97,6.65.18,2.19,2.21,4.23,2.02,6.9l-2.58-5.92c-2.81,3.41-4.97,5.57-8.47,8.34l4.59,2.45ZM37.09,28.4c-2.68-3.54-5-6.28-8.46-8.61-3.57,2.34-6.19,5.12-8.55,8.62,2.27,3.76,5.05,6.72,8.71,8.74,3.39-2.59,6.25-5.13,8.3-8.75Z"/>
      <path class="cls-1" d="M28.42,34.05c-.28-1.08-.31-3.18-1.25-4.17s-3.12-1.09-4.22-1.25l4.37-1.41,1.3-4.13c.44,1.2.47,3.23,1.37,3.94,1.12.9,2.93,1.09,4.34,1.59-1.31.27-3.51.29-4.5,1.46-.69.81-.84,2.43-1.4,3.96Z"/>
    </g>
  </g>
</svg>