<?xml version="1.0" encoding="UTF-8"?>
<svg id="Warstwa_2" data-name="Warstwa 2" xmlns="http://www.w3.org/2000/svg" viewBox="0 0 39.36 52.7">
  <defs>
    <style>
      .cls-1 {
        fill: #fff;
      }
    </style>
  </defs>
  <g id="game-icon-v6-elemental-pixarts-store">
    <g id="game-icon-v6-elemental-pixarts-store_246">
      <path class="cls-1" d="M29.17,44.16c-.71-1.71-1.62-3.03-2.9-3.94l-5.85-4.14c-2.1-19.71,4.67-11.02,8.14-22.91l-7.58,2.62,4.06.79c-3.53,2.81-8.81-5.78-14.26-3.46.66,5.69,7.71,7.88,8.18,11.97.44,3.76.28,7.25.1,10.97l-4.54,3.26c-1.81,1.3-3.23,2.59-4.33,4.79l18.99.03Z"/>
      <path class="cls-1" d="M31.55,5.82l-23.57-.02c-2.97,14.67,8.84,16.69,8.23,20.71-.74,4.87-9.45,3.98-8.52,18.71l.09,1.45c.02.31,1.08.47,1.42.47h21.34c.31-.01,1.09-.23,1.12-.5l.13-1.13c.03-.27-.99-.24-1.33-.24l-21.7-.02.3-4.59c.58-8.94,8.89-9.61,8.57-14.47-.34-5.09-10.37-6.3-8.47-18.74h21.26c1.67,12.7-8.83,13.67-8.56,19.1.25,4.93,9.57,6.08,8.63,16.66-.05.56.34,1.4,1.06,1.97,2.19-12.9-7.87-14.32-8.23-18.66-.38-4.52,10.9-5.93,8.21-20.71Z"/>
      <rect class="cls-1" x=".03" width="39.33" height="4.58"/>
      <rect class="cls-1" y="48.08" width="39.32" height="4.62"/>
      <path class="cls-1" d="M32.92,20.7c-.12.83.28,2.36.93,2.66.69.31,2.31.35,2.91-.04s1-2.02.86-2.93l-1.41-8.99c-.32-2.04.26-3.46,1.35-5.65l-4.47.02c.98,2.01,1.59,3.14,1.33,4.88l-1.49,10.04Z"/>
      <path class="cls-1" d="M1.85,20.91c-.26,1.87.97,2.9,2.65,2.82,1.15-.06,2.26-1.21,1.98-3.05l-1.41-9.26c-.31-2.04.25-3.49,1.28-5.67l-4.32.02c.89,1.96,1.47,3.31,1.22,5.08l-1.39,10.05Z"/>
      <path class="cls-1" d="M6.54,31.81c.29-1.82-1.08-2.94-2.52-2.89-1.25.05-2.37,1.31-2.16,2.84l1.43,10.44c.24,1.73-.21,2.87-1.21,4.79l4.04.04c-1.04-2.57-1.19-3.45-1.14-5.32l1.56-9.91Z"/>
      <path class="cls-1" d="M37.67,31.77c.27-1.77-1.17-2.87-2.42-2.84-1.5.05-2.49,1.18-2.26,2.86l1.49,10.46c.25,1.72-.31,2.89-1.39,4.75l4.42.08c-1.27-2.38-1.5-3.03-1.44-4.77l1.6-10.55Z"/>
      <path class="cls-1" d="M35.23,24.43c-1.06,0-1.91.86-1.91,1.91s.86,1.91,1.91,1.91,1.91-.86,1.91-1.91-.86-1.91-1.91-1.91Z"/>
      <path class="cls-1" d="M4.2,24.41c-1.07,0-1.94.87-1.94,1.94s.87,1.94,1.94,1.94,1.94-.87,1.94-1.94-.87-1.94-1.94-1.94Z"/>
      <path class="cls-1" d="M15.39,32.97c-1.83,1.1-4.19,2.95-3.11,5.96,1.3-1.81,2.17-3.76,3.11-5.96Z"/>
    </g>
  </g>
</svg>