<?xml version="1.0" encoding="UTF-8"?>
<svg id="Warstwa_2" data-name="Warstwa 2" xmlns="http://www.w3.org/2000/svg" viewBox="0 0 54.21 58.88">
  <defs>
    <style>
      .cls-1 {
        fill: #fff;
      }
    </style>
  </defs>
  <g id="game-icon-v6-elemental-pixarts-store">
    <g id="game-icon-v6-elemental-pixarts-store_372">
      <path class="cls-1" d="M50,22.37c1.08-2.12,4.28-3.22,4.2-6.09-.07-2.47-.71-5.31-3.28-6.95-6.94-4.44-16-5.58-23.99-3.31-2.66.75-5.15,1.84-6.65,4.04,8.14-4.11,20.46-4.52,27.1,2,1.74,1.71,1.77,4.16.84,5.99l-.36-2.72c-1.24,2.25-3.12,3.77-5.81,4.64C21.12,26.72-1.86,16.09,5.72,7.75c.92-1.01,1.99-1.88,3-2.77-2.79.74-5.39,2.42-6.95,4.94-2.76,4.47,1.16,8.89,4.51,10.91,6.18,3.73,12.87,4.47,20.07,4.7-5.96,1.91-11.48.22-17.52-.64,10.53,6.23,25.09,4.34,36.32.4-1.6,1.51-3.38,2.74-5.42,3.63-9.06,3.94-18.86,4-28.23.96-4.12-1.33-10.36-3.15-10.27-8.47-2.3,2.1-1.09,4.91,1.15,6.7,3.54,2.82,8.21,3.09,12.18,5.01,2.68,1.3,4.92,3.16,8.1,3.81,5.51,1.14,10.85.91,16.84.28-6.71,4.55-20.15,4.36-26.13-1.74,1.31,6.04,9.87,7.33,14.65,7.72l-8.1.37c3.06,4.59,8.22,5.35,13.39,4.81-1.6.89-3.16,1.56-5.12,2.28,1.26,3.03-.67,5.73-2.3,8.22,5.69-2.2,8.32-7.43,9.78-12.65-3.14.2-5.67.18-8.35-.74,14.07-2.18,12.82-6.55,15.71-9.44,1.29-1.29,9.7-3.21,7.79-8.69-2.81,7.08-15.63,8.42-21.43,7.19,5.97-.43,11.46-2.22,16.38-5.1,2.99-1.75,2.94-4.53,4.24-7.08Z"/>
      <path class="cls-1" d="M9.31,7.54c-1.45,1.22-1.8,3.34-1.63,4.82,1.03-1.95,1.95-3.48,3.68-4-1.22,2.93-.81,5.49,1.75,7.12,5.54,3.54,12.76,4.69,19.09,2.52-5.24-.1-10.57-.18-14.94-3.4-1.07-.79-2.17-2.38-2.25-3.39-.3-3.82,5.08-6.46,8.4-7.6,7.13-2.45,14.18-2,22.1-.72C41.69.92,37.34.29,32.75.05c-8.63-.45-16.85,1.97-23.44,7.49Z"/>
      <path class="cls-1" d="M43.87,16.19c2.2-5.21-14.02-8.47-19.86-3.41,5.62-.39,10.59-1.18,15.58.97.66.28,1.72,1.03,1.96,1.58.24.55-.1,1.71-.39,2.68.75-.04,2.35-.97,2.71-1.82Z"/>
      <path class="cls-1" d="M42.65,39.6c-.44,1.21-1.07,2.71-2.02,3.42l-3.29,2.46c2.48-.29,4.07-1.14,5.45-2.52.93-.92.81-2.7-.14-3.37Z"/>
    </g>
  </g>
</svg>