<?xml version="1.0" encoding="UTF-8"?>
<svg id="Warstwa_2" data-name="Warstwa 2" xmlns="http://www.w3.org/2000/svg" viewBox="0 0 55.46 59.5">
  <defs>
    <style>
      .cls-1 {
        fill: #fff;
      }
    </style>
  </defs>
  <g id="game-icon-v6-elemental-pixarts-store">
    <g id="game-icon-v6-elemental-pixarts-store_438">
      <path class="cls-1" d="M37.01,26.21c-5,5.09-10.64,2.95-16.2,1.73-2.84-.62-6.31-.3-9.56-1.47-2.12-.76-5.59,2.57-8.3-.2-1.82-1.86-3.62-4.17-2.7-7.36.81-2.82,3.56-4.34,6.54-5.01.59-2.25,1.66-5.01,3.28-6.17,2.55-1.83,5.35-1.93,8.33-1.05C20.81,2.66,24.48-.34,29.31.03c4.65.35,8.97,3.13,10.26,8.1,4.83-1.5,8.2,1.77,9.48,5.98,2.76.71,5.75,2.14,6.23,4.71.61,3.25-.43,5.97-2.64,7.42-2.84,1.87-5.65.68-8.49-.43-1.84.23-4.65,1.61-7.14.4Z"/>
      <polygon class="cls-1" points="34.15 37.91 20.4 59.5 26.38 42.54 19.76 43.57 24.87 31.05 31.08 31.25 27.44 38.27 34.15 37.91"/>
      <polygon class="cls-1" points="44.32 37.37 49.78 47.13 37.76 34.96 42.17 34.11 38.15 28.5 43.16 28.06 48.4 36.63 44.32 37.37"/>
      <path class="cls-1" d="M18.1,34.99l-12.11,12.39c1.56-3.76,3.52-6.55,5.66-10.06l-4.23-.76,5.08-8,4.12,1.09-3,4.6,4.49.73Z"/>
    </g>
  </g>
</svg>