<?xml version="1.0" encoding="UTF-8"?>
<svg id="Warstwa_2" data-name="Warstwa 2" xmlns="http://www.w3.org/2000/svg" viewBox="0 0 53.16 54.83">
  <defs>
    <style>
      .cls-1 {
        fill: #fff;
      }
    </style>
  </defs>
  <g id="game-icon-v6-elemental-pixarts-store">
    <g id="game-icon-v6-elemental-pixarts-store_18">
      <path class="cls-1" d="M7.87,52.57l-.27-5.08-4.86-.22,6.14-5.87,4.22-.44,17.42-17.58c.39-.39,1.03-.52,1.21-.55s.15.96-.15,1.27l-17.36,17.57-.25,4.55-6.08,6.36Z"/>
      <path class="cls-1" d="M39.84,15.48c-.18.18-1.06.41-1.25.48s-.07-.68.01-.9l6.71-6.96-3.09-2.09,9.42-3.46-3.5,9.68-1.86-3.04-6.45,6.29Z"/>
      <path class="cls-1" d="M5.98,7.15c-1.69-.69-2.87-.69-4.53.45.65-2.08.52-3.32-1.45-4.48.86-.23,2.39-.24,2.71-.73.37-.56.85-1.53,1.3-2.38.31.79.65,1.81.95,2.25.35.52,1.76.61,2.62.85-1.41,1.19-2.04,1.83-1.6,4.04Z"/>
      <path class="cls-1" d="M37.81,21.99c-.73-.19-1.81-.95-2.31-.77l-2.38.86c.5-1.86.38-3.02-1.15-4.32,1.88-.06,2.93-.85,3.66-2.76.61,1.84,1.62,2.61,3.55,2.73-1.33,1.12-1.92,1.88-1.36,4.26Z"/>
      <path class="cls-1" d="M51.75,54.66c-3.28-1.05-.73-1.28-4.55.17.65-2.11.29-3.14-1.27-4.41.62-.19,2.08-.22,2.38-.67l1.38-2.12c.42,1.83,1.67,2.48,3.47,2.76-1.13,1.1-2.08,2.02-1.41,4.27Z"/>
      <rect class="cls-1" x="6.86" y="8.25" width="1.2" height="31.92" transform="translate(-3.97 1.6) rotate(-9.69)"/>
      <rect class="cls-1" x="29.49" y="32.91" width="1.14" height="29.55" transform="translate(-22.59 67.81) rotate(-78.69)"/>
      <path class="cls-1" d="M47.02,30.37c-1.71-.67-.85-.67-2.61,0-.14-1.03-.45-2.25-.74-2.79.55-.3,1.56-1.16,2.04-1.73l2.3,1.73-.98,2.8Z"/>
      <path class="cls-1" d="M28.52,10.14h-2.53c-.04-.69-.39-2.03-.69-2.55l2.1-1.53,2.16,1.56-1.03,2.52Z"/>
      <path class="cls-1" d="M46.46,42s-.73-.28-.98-.37c-.31-.12-.95.28-1.41.48-.18-.93-.54-2.03-.93-2.71l2.12-1.46,2.13,1.47c-.51.5-.78,1.34-.92,2.59Z"/>
      <path class="cls-1" d="M15.49,11.03l-2.23.06c-.35-1.61-.54-2.06.23-2.8.66-.64,1.71-.14,2.48.76l-.48,1.99Z"/>
      <rect class="cls-1" x="30.76" y="10.77" width=".94" height="5.65" transform="translate(-1.58 22.75) rotate(-39.12)"/>
    </g>
  </g>
</svg>