<?xml version="1.0" encoding="UTF-8"?>
<svg id="Warstwa_2" data-name="Warstwa 2" xmlns="http://www.w3.org/2000/svg" viewBox="0 0 57.21 35.32">
  <defs>
    <style>
      .cls-1 {
        fill: #fff;
      }
    </style>
  </defs>
  <g id="game-icon-v6-elemental-pixarts-store">
    <g id="game-icon-v6-elemental-pixarts-store_328">
      <path class="cls-1" d="M18.79,35.3c-4.77-.54-4.61-9.01-3.53-12.35l1.15,6.65,1.31,1.07c.34.28,1.48-.63,1.67-1.09,3.35-8.45,2.96-15.84,6.67-22.26.98-1.7,2.92-2.95,4.58-2.61,1.88.39,3.41,2.17,3.72,3.82-.96-.14-2.07-.34-2.54-.09-2.64,1.43-4.29,11.65-4.89,14.98-.74,4.1-3.13,12.44-8.12,11.87Z"/>
      <path class="cls-1" d="M13.11,18.19c-3.81,5.07-9.07,1.85-13.11-.49,8.77-1.06,10.44-2.02,13.66-10.36l-2.84,2.26C11.82,5.31,15.62-1.62,21.19.34c1.69.6,3.41,2.8,3.78,4.87l-2.28-1.44c-.56-.36-2.14.39-2.58.96-3.49,4.49-2.84,7.92-7,13.45Z"/>
      <path class="cls-1" d="M30.86,30.36c-1.25.31-2.67-1.1-2.96-1.93-.36-1.06-.36-2.63-.04-3.37l1.31,1.76c1.56,2.1,3.9-8.47,4.04-9.02.82-3.42,2.91-9.31,7.08-7.85,1.24.43,2.42,2.3,2.69,3.58-.99-.39-1.85-.77-2.49-.77-.71,0-2,1.4-2.2,2.15l-2.87,10.33c-.59,2.12-2.3,4.56-4.56,5.12Z"/>
      <path class="cls-1" d="M40.67,25.14c-.61.52-2.58-.17-2.84-.84-.34-.88-.43-2.39-.24-3.07l1.16,1.75c1.06,1.6,1.97-5.07,4.24-6.27,1.42-.75,3.62-.29,5.43-.28l-1.42-2.81,10.21,3.87-10.18,3.86,1.29-2.54c-6.02-.83-4.03,3.28-7.65,6.34Z"/>
      <path class="cls-1" d="M21.84,16.18c-1.01-6.39-4.81-7.7-.72-10.7,2.13,2.09,2.37,4.86,1.62,7.53l-.9,3.17Z"/>
      <path class="cls-1" d="M32.07,17.67l-1.15-4.84c-.21-.9.07-3.08,1.46-3.08.96,0,1.48,2.57,1.17,3.47l-1.48,4.44Z"/>
    </g>
  </g>
</svg>