<?xml version="1.0" encoding="UTF-8"?>
<svg id="Warstwa_2" data-name="Warstwa 2" xmlns="http://www.w3.org/2000/svg" viewBox="0 0 50.87 50.26">
  <defs>
    <style>
      .cls-1 {
        fill: #fff;
      }
    </style>
  </defs>
  <g id="game-icon-v6-elemental-pixarts-store">
    <g id="game-icon-v6-elemental-pixarts-store_148">
      <path class="cls-1" d="M15.08,27.71c1.72-2.09,4.33-2.87,6.65-1.58-1.61.81-2.69,1.37-3.72,2.06l4.26-1.15c-.76,1.65-2.53,3.39-4.32,3.16-4.23-.55-8.2,1.33-9.31,5.78-.55,2.2-.92,4.48-1.33,6.93,2.57-.38,4.94-.7,7.4-1.33,3.43-.87,5.72-4.05,5.39-7.57-.23-2.56.91-5.17,3.45-5.53l-1.91,4.77,2.94-4.49c.33,1.57.77,3.66,0,4.59l-3.7,4.44c-1.59,1.91-.71,5.2.64,7.1l3.8,5.36c3.06-4.23,8.38-9.75,3.08-14.29-2.68-2.3-2.91-3.36-2.31-7.25l2.53,3.49-1.51-3.85c2.23.32,3.51,2.58,3.37,4.82-.23,3.86,1.68,7.31,5.64,8.46,2.31.67,4.79.9,7.25,1.13-.35-2.64-.59-4.88-1.26-7.07-1.14-3.7-4.51-5.92-8.25-5.48-2.37.28-4.51-1.07-5.09-3.21l4.56,1.16-4.35-2.19c5.16-1.15,5.6.02,7.44,2.52,1.81,2.44,6,2.2,8.42.6l6.04-4.02-6.29-4.08c-2.31-1.5-6.58-1.63-8,.61-1.62,2.56-4.55,3.82-7.64,2.67l.77-.72c.1-.09.09-.26-.04-.26l-1.29-.05c1.27-2.91,3.8-3.63,6.87-3.28,3.19.36,6.28-2.86,7.02-5.92.56-2.33.78-4.28,1.16-6.84-5.27.79-13.38,1.58-12.81,8.77.21,2.67-.72,5.03-3.33,5.91l1.32-3.8-2.43,3.56c-1.24-5.83.93-5.85,3.08-8.17,1.86-2,1.65-5.49.13-7.67L25.34,0l-3.98,5.66c-1.21,1.72-1.82,4.69-.6,6.5,2.83,4.23,5.06,3.52,3.76,9.41l-2.46-4.06,1.44,4.62c-1.94-.65-3.62-2.76-3.37-4.87.51-4.18-1.78-7.9-6.02-8.73l-6.83-1.33,1.18,6.59c.68,3.8,4.08,6.32,7.81,6.18,2.47-.09,5.06.59,6.01,3.64l-5.15-2.37c1.18,1.31,2.59,1.98,4.62,2.98-2.67,1.04-5.42.37-7.15-2.04-3.9-5.41-11.21.25-14.62,2.9,4.37,3.37,10.55,8.13,15.08,2.6ZM18.95,34.92l-.45-2.13c-2.05,1.38-1.48,3.52-2.2,5.52l.18-3.72c-1.41.91-2.41,2.24-2.65,4.13l-.36-1.3-2.28,1.61,2.28-2.31-.54-.74,2.75-1.79-3.02-.36c2.1-.41,3.78-.31,5.27-1.75l-4.4-.4,6.18-.87c-.31,1.19-.52,2.45-.78,4.11ZM36.92,31.73l-3.93.1c.78,1.69,2.69,1.7,4.81,1.94l-2.68.6c1.11,1.14,2.63,1.66,4.3,2.05l-2.22.15,2.64,2.68-2.24-1.59-.54,1.04c-.31-1.55-1.15-2.92-2.55-3.87l-.15,3.7c-.83-2.63-.31-4.4-2.08-5.69l-.31,3.35-.92-5.27,5.87.81ZM37.56,23.33l-.63,1.43c1.8-.18,3.18-.65,4.96-1.34l-1.46,1.43c2.11-.23,3.46-.33,4.55.77l-4.26-.14.66,1.18c-1.58-.75-2.72-1.25-4.57-1.09l1.91,2.17-4.49-2.66,3.32-1.74ZM31.91,14.15l.4,3.19c1.92-1.29,1.48-3.63,2.24-5.71l-.04,3.9c1.4-1.15,2.06-2.61,2.61-4.31l.22,1.65,2.54-2.07-2.14,3.08c-.4.57-1.81,1.32-2.33,1.89l3.68.35c-2.44.75-4.68-.3-6.18,2.15l3.56.41-5.35.52.79-5.05ZM28.12,38.61l-2.22-2.03c-.26,1.54.07,2.86.83,4.39l-1.08-.59.32,4.41-.96-1.27c.06-1.34-.07-2.44-.3-3.62l.26-3.42-2.77,2.59,3.22-4.91,2.69,4.46ZM23.19,12.24l1.81,1.24c-.08-1.79-.51-2.85-1.34-4.68l1.44,1.06-.25-4.23s.61.54.59.53c-.02,0,.56-.51.59-.54l-.48,4.38,1.2-.73c-.7,1.38-1.06,2.96-.92,4.4l2.38-1.88-3.02,4.26-2-3.83ZM13.56,18.28l4.52.08c-2.28-2.67-3.93-1.41-6.63-2.61l3.97.52c-.89-1.46-2.17-2.06-3.96-2.71l1.17-.36-1.7-2.33,2.18,1.59.24-1.71c.76,2.21,1.52,3.95,3.08,5.1l-.17-4.23c1.46,7.71.47,2.51,3.51,7.83l-6.23-1.18ZM9.61,25.47l-3.77-.23c1.33-.5,2.72-.6,4.19-.48l-.69-1.11c8.5,3.31.99-2.51,7.38,1.6l-3.83,1.77.84-1.56-3.61.63s-.35-.61-.51-.62Z"/>
      <path class="cls-1" d="M18.11,9.24l-.17-1.9,1.1,1.16.48-2.55-3.34-2.64c-.19,1.85-.27,3.16-.2,4.62l2.13,1.31Z"/>
      <path class="cls-1" d="M32.83,7.36v1.82c.27-.15,1.92-1.06,2.01-1.71.14-1.05-.15-2.84-.36-3.94-1.06.71-2.57,1.83-3.08,2.62-.31.48.09,2.01.31,2.47l1.12-1.26Z"/>
      <path class="cls-1" d="M32.29,42.64l-.6-.65c-.64.88-.47,2.33.48,3.04l2.4,1.82.37-3.61c.07-.74-1.66-1.78-2.12-1.81l.13,1.35c.02.18-.53,0-.65-.14Z"/>
      <path class="cls-1" d="M47.19,33.94l-2.63-3.26-2.71.65,1.88,1.32h-1.99c1.17,2.71,2.71,1.68,5.46,1.3Z"/>
      <path class="cls-1" d="M15.95,42.75c-.19,1.02.01,2.83.32,4.14l3.38-2.84-.6-2.74-1.27,1.95.03-1.93c-.47.17-1.76.86-1.86,1.42Z"/>
      <path class="cls-1" d="M3.52,33.96c2.29.47,4.61,1.01,5.42-1.3l-2.36-.06,2.72-1.51c-3.87-.45-3.46-.36-5.78,2.87Z"/>
      <path class="cls-1" d="M6.06,19.24c.56.42,2.45-.23,2.83-.43l-2.22-1.06,2.65.14-1.58-1.7c-.68-.72-2.96-.3-4.02.23.61.91,1.56,2.21,2.35,2.81Z"/>
      <path class="cls-1" d="M42.05,17.13c-.11.17.28.43.47.44l1.23.06-2.15,1.21c.33.27,2.63.83,3.21.25.81-.82,1.59-1.84,2.44-2.81-2.89-.39-3.99-1.07-5.19.85Z"/>
    </g>
  </g>
</svg>