<?xml version="1.0" encoding="UTF-8"?>
<svg id="Warstwa_2" data-name="Warstwa 2" xmlns="http://www.w3.org/2000/svg" viewBox="0 0 49.97 53.96">
  <defs>
    <style>
      .cls-1 {
        fill: #fff;
      }
    </style>
  </defs>
  <g id="game-icon-v6-elemental-pixarts-store">
    <g id="game-icon-v6-elemental-pixarts-store_173">
      <path class="cls-1" d="M45.28,5.49c-.59.4-1.42,1.41-1.74,1.96l3,1.15c.83.32,1.95,4.67-.82,7.24-1.13,1.05-3.33,1.07-4.95.61-9.03-2.59-18.09-4.04-27.51-4.01l-.75,7.37,2.54,1.29-3.13.83-2.21,7.07c-.21.67.38,1.99.89,2.67-.81.16-2.67,1.12-2.83,2.02-.19,1.05-.31,2.35-.27,3.36,8.71,3.21,17.39,4.14,26.59,4.41,1.56.05,3.64.92,4.33,2.03,1.95,3.12-.53,7.16-1.83,6.95l-3.07-.5c-.59.54.43,2.75,1.32,3.32.87.56,2.89.37,3.68-.43,1.8-1.82,2.86-4.25,2.81-6.97l-.17-9.1c0-.26-1.28-.89-1.48-1.06-.2-.17.08-.59.29-.73.15-.1,1.35-.35,1.4-.52l2.03-7.23-2.91-1.41c1.36-.39,3.72-.55,4.14-1.38l4.05-7.89c1.68-3.27,1.73-7.65.15-10.24-.52-.85-2.86-1.26-3.55-.79ZM30.95,35.31c-.95,1.24-3.11,2.22-4.66,2.21,1.64-2.41,1.79-3.53.68-5.42l-2.66-4.5-3.4,4.62c-.69.95.09,3.42.48,4.82-4.29-1.41-5.12-6.13-3.13-9.79l2.49-4.58.45,2.79c2.91-2.28,4.48-5.06,3.94-8.83,5.83,3.15,1.43,8.35,3.61,12.07l2.09-5.01,1.04,5.92c.33,1.91.34,4.06-.92,5.69Z"/>
      <path class="cls-1" d="M34.54,3.89c-5.85-.21-11.62-1.27-17.06-3.37-3.31-1.28-6.38-.15-7.82,2.83-.91,1.87-.47,6.87,2.23,7.08,10.17.77,19.8.86,29.63,4.8-1.49-4.49-.89-8.06,2.63-10.98l-9.61-.34Z"/>
      <path class="cls-1" d="M33.08,43.11c-10.43.29-19.39-2.05-28.92-5.21-2.32-.02-4.24,3.34-4.16,5.26.08,1.95,1.23,5.34,3.83,5.43,10.21.38,19.45,2.29,29.71,5.37-3.05-3.59-3.2-6.9-.46-10.86Z"/>
      <path class="cls-1" d="M36.71,48.67c1.74-1.32.83-4.71-.83-5.01-.68-.12-2.08,1.04-2.31,1.6-.22.55.62,1.11,1.72,2.04l-2.52.9c1.38.22,2.94.42,3.94.47Z"/>
      <path class="cls-1" d="M43.03,14.76c1.46.93,3.12-1.31,2.85-2.73-.19-.98-.31-1.83-.8-1.95-.37-.09-1.76.08-2.08.29-.95.62-.96,3.75.03,4.39Z"/>
    </g>
  </g>
</svg>