<?xml version="1.0" encoding="UTF-8"?>
<svg id="Warstwa_2" data-name="Warstwa 2" xmlns="http://www.w3.org/2000/svg" viewBox="0 0 63.32 45.59">
  <defs>
    <style>
      .cls-1 {
        fill: #fff;
      }
    </style>
  </defs>
  <g id="game-icon-v6-elemental-pixarts-store">
    <g id="game-icon-v6-elemental-pixarts-store_269">
      <path class="cls-1" d="M40.35,18.13c.51,4.08-.71,7.59-3.69,9.5-3.01,1.94-6.89,2.11-9.81.05s-4.37-5.45-3.85-9.3c2.43-7.37,6.2-10.13,8.74-18.37,2.61,8.5,6.35,10.13,8.6,18.13ZM25.98,18.74c1.68-2.24,2.33-4.73,2.53-7.24-1.49,2.05-4.17,4.19-2.53,7.24ZM31.2,26.73c2.03.3,4.13-.24,5.48-1.69,1.36-1.46,1.83-3.77,1.43-5.68-.73,3.91-3,6.23-6.91,7.37Z"/>
      <path class="cls-1" d="M48.2,29.19l-7.19-2.9c3.58-.39,13.23,2.95,13.46,7.07.21,3.8-5.55,6.22-8.88,7.07-8.81,2.25-17.97,2.33-26.75.04-3.48-.91-9.68-3.32-9.57-7.14.12-4.51,9.91-7.78,13.78-6.98-3.5,1.04-6.29,1.78-9.14,3.44-.84,1.16-1.99,2.85-1.31,4.09,1.06,1.93,3.07,3.39,5.21,4.01,10.29,2.97,21.48,2.65,31.19-1.59,2.06-.9,3.48-2.92,2.52-4.74l-2.22,3.37c.61-2.29.59-3.87-1.1-5.74Z"/>
      <path class="cls-1" d="M34.92,45.57c7.76-1.24,15.76-2.86,22.6-7.43,2.03-1.36,3.82-3.44,2.65-5.81l-1.76,3.59c.57-2.81-.22-6.5-3.2-8.04-3.2-1.65-6.59-2.43-9.84-3.83,5.81.93,11.79,2.41,16.07,6.1,2.39,2.05,2.56,5.43.26,7.62-2.36,2.25-5.37,4.07-8.62,5-5.81,1.67-11.64,2.98-18.15,2.8Z"/>
      <path class="cls-1" d="M3.4,31.82c-4.1,6.06,14.86,11.79,18.8,12.2-4.7.31-9.03-.93-13.19-2.93l-.64,1.09C5.06,40.46-.15,38.14,0,33.88c.04-1.27,1.17-3.5,2.55-4.27,5.38-3.01,11.18-5.24,17.1-5.57-5.55,2.12-17.06,3.87-14.36,12.14l-1.89-4.36Z"/>
      <path class="cls-1" d="M40.46,30.66l-1.72-1.23c2.18-.75,5.11.48,5.86,2.84.3.96-1.63,2.57-2.7,2.94-10.79,3.7-23.68.26-22.75-3.01.68-2.39,4.05-3.58,6.09-2.81-.94.68-2.53,1.77-2.67,2.59,1.92,5.11,23.57,2.75,17.9-1.32Z"/>
    </g>
  </g>
</svg>