<?xml version="1.0" encoding="UTF-8"?>
<svg id="Warstwa_2" data-name="Warstwa 2" xmlns="http://www.w3.org/2000/svg" viewBox="0 0 59.86 43.3">
  <defs>
    <style>
      .cls-1 {
        fill: #fff;
      }
    </style>
  </defs>
  <g id="game-icon-v6-elemental-pixarts-store">
    <g id="game-icon-v6-elemental-pixarts-store_380">
      <path class="cls-1" d="M55.5,2.49c-2.65-1.68-5.58-2.1-8.53-.86-2.29.96-4.46,3.26-4.87,6.34-.22,1.63.46,3.46,1.46,4.5.54-2.22.95-4.17,2.22-5.43,1.89-1.87,4.42-2.22,6.61-.85,1.59,1,2.88,3.18,2.31,5.56-.37,1.56-2.06,3.83-4.33,3.96l-20.03,1.23-24.15,2.24c15.04,1.15,29.47,1.64,44.3,1.59,4.47-.01,8.21-3.89,9.04-7.41,1.02-4.33-.35-8.55-4.04-10.88Z"/>
      <path class="cls-1" d="M39.09,23.94L0,25.33c13.95,1.89,27.37,2.45,41.08,3.47,2.29.17,3.67,3.09,3.82,4.73.17,1.89-1.16,4.08-2.76,4.83-2.03.95-4.19.7-5.91-.87-1.52-1.38-1.92-3.51-2.24-5.71-2.13,1.91-2.04,4.93-.68,7.3,2.15,3.74,6.96,5.28,10.87,3.49,4.61-2.11,6.55-6.95,5.35-11.44-1.24-4.65-5.4-7.36-10.43-7.18Z"/>
      <path class="cls-1" d="M32.03,12.79c4.17-.33,6.75-4.29,5.63-8.23-.96-3.38-5.1-5.76-8.65-3.92-2.59,1.35-3.68,4.53-1.7,6.8l1.14-2.77c.46-1.11,2.46-1.77,3.66-1.43,1.13.32,2.12,1.73,2.21,2.99.06.91-.8,2.79-1.93,2.99l-21.39,3.79c7.18.6,13.98.34,21.03-.22Z"/>
      <path class="cls-1" d="M24.46,31.99c-4.88-.35-9.63-.52-14.41-.56,4.98,1.6,10.38,2.34,14.65,3.08.81.14,1.16,1.87.79,2.32-.37.46-1.56,1.09-2.06.78-.5-.31-1.16-1.22-1.76-2.04-.62.79-.25,2.98,1.07,3.69,2.61,1.4,5.07-.46,5.47-2.62.43-2.28-1.22-4.48-3.76-4.66Z"/>
    </g>
  </g>
</svg>