<?xml version="1.0" encoding="UTF-8"?>
<svg id="Warstwa_2" data-name="Warstwa 2" xmlns="http://www.w3.org/2000/svg" viewBox="0 0 45.42 53.22">
  <defs>
    <style>
      .cls-1 {
        fill: #fff;
      }
    </style>
  </defs>
  <g id="game-icon-v6-elemental-pixarts-store">
    <g id="game-icon-v6-elemental-pixarts-store_06">
      <path class="cls-1" d="M39.94,41.57c-11.32,2.06-22.8,1.79-34.48.15,1.64-9.81,1.94-19.53-.07-29.93,11.38-2.24,22.89-1.79,34.6-.13-1.78,9.92-1.91,19.51-.05,29.91ZM14.13,19.38c1.89-1.5,3.25-3,2.65-4.49l-2.25,3.08-.94-3.72-.85,3.67-2.33-3.52c-.86,2.57.87,3.88,3.13,5.06l-2.04,1.02,2.18,1.58,1.63-1.7-1.2-.98ZM29.45,19.17c-.1.45-.29,1.55.02,1.67l1.29.45c1.21.43,3.34-.82,3.93-1.87.9-1.57,1.05-3.45-.38-4.94l-3.96,1.69c1.04-.23,2.44-.58,3.2-.4s1.2,2.28.74,2.9c-.56.75-1.5,1.69-2.14,1.73s-1.51-.55-2.7-1.24ZM18.92,28.03l-1.35.39c-3.83,1.12,2.52-.13,3.13.42.64.57,2.44,1.49,3.12.96.6-.47,1.1-1.41,1.79-2.64.68-1.2,3.32-.69,4.85-.78-.43-1.02-2.84-.46-3.96-.37-.49.04-1.58-1.22-1.42-1.7.73-2.14,2.21-3.21,1.12-5.27l-1.43,4.18c-.88.02-2.74.03-3.91,0-.84-.03-.88-2.7-.97-3.38-3.07,1.19,3.09,5.55-.46,5.82l-4.26.33,4.58.59c.26.03.83.99.57,1.06l-1.4.41ZM11.6,36.97l2.3-4.21c.96,1.55,1.47,2.52,2.46,3.16-.66-2.22-1.29-3.07-2.45-4.75l-4.28,6.72c2.98.21,5.11.26,8.24-.12-2.24-1.02-3.67-.67-6.27-.8ZM23.47,38.48c-.11-2.29-.14-3.91.05-6.17l-1.49.02c1.07,4.82-.49,3.99.5,7.8.07.28,1-.29.99-.58l-.05-1.07ZM34.71,34.39l-3.38.23.99-1.97c-2.13.94-3.33,3.41-2.82,5.31.41,1.54,3.06,1.33,4.26.64s1.55-2.86.95-4.21Z"/>
      <path class="cls-1" d="M40.85,10.29c-12.3-1.78-23.89-2.1-36.18-.02-1.87-2.92-1.78-6.77-.13-10.09C16.85,1.77,28.74,1.85,40.92.04c1.57,3.5,1.54,6.76-.07,10.25Z"/>
      <path class="cls-1" d="M41.09,52.98c-12.37-1.32-24.22-1.62-36.44.14-1.8-3.12-1.72-6.8.01-9.99,12.08,1.62,23.78,1.97,36.1-.24,1.71,2.93,1.58,6.03.33,10.09Z"/>
      <path class="cls-1" d="M2.32,42.85l-.07,10.35c-2.73-.29-3.24-10.04.07-10.35Z"/>
      <path class="cls-1" d="M42.91,42.86c3.32-.11,3.37,10.11,0,10.36.5-3.75.55-6.73,0-10.36Z"/>
      <path class="cls-1" d="M42.94.2c3.07-.81,3.36,10.18,0,10.23.35-3.63.47-6.51,0-10.23Z"/>
      <path class="cls-1" d="M2.34,0c-.2,3.58-.24,6.62,0,10.17-2.84.35-3.38-9.96,0-10.17Z"/>
      <path class="cls-1" d="M34.21,35.92c-.15,1.32-1.29,2.36-1.95,2.3-.62-.06-2.01-.64-2.17-1.3-.14-.56,1.05-1.55,1.6-1.72.65-.19,2.6-.02,2.52.72Z"/>
    </g>
  </g>
</svg>