<?xml version="1.0" encoding="UTF-8"?>
<svg id="Warstwa_2" data-name="Warstwa 2" xmlns="http://www.w3.org/2000/svg" viewBox="0 0 31.07 58.84">
  <defs>
    <style>
      .cls-1 {
        fill: #fff;
      }
    </style>
  </defs>
  <g id="game-icon-v6-elemental-pixarts-store">
    <g id="game-icon-v6-elemental-pixarts-store_451">
      <path class="cls-1" d="M2.92,17.16c1.16-.86,1.06-2.56.12-3.63-1.07.67-1.15,2.85-.12,3.63Z"/>
      <path class="cls-1" d="M15.13,58.84l15.13-29.27-7.82-15.08v.04s.02.05.02.05h-.03s-.67,4.19-.67,4.19c-.64.07-.8,0-.88.22l-.44,1.22c-5.76-9.8-5.5-4.8-5.05-17.99l5.53,11.04c.12.24.12,1.13.35,1.16l1.17.16v-.04S15.14,0,15.14,0L0,29.46l7.21,13.87,7.92,15.51ZM8.1,42.07l.19-4.77,1.72,9.15c-.75-1.2-1.96-3.05-1.91-4.38ZM20.42,46.56l-5.08,10.3-.19-9.48c2.23-4.01,4.46-8.03,8.09-11.4-.15,8-.28,5.44-2.81,10.58ZM8.81,14.72l-.05,5.56-.64-1.88-2.64,2.72c1.37-2.35,2.38-3.91,3.33-6.4ZM9.72,22.1c2.53-2.04,3.43-6,5.51-8.78,2.84,5.07,5.57,9.96,8.99,14.9l-.81-3.56,6.35,4.81c-2.34,1.88-4.57,3.45-6.57,5.44-5.46,5.42-3.12,1.75-7.94,10.88l-5-8.67c.04-.05-.21.56-.37.49l-1.14-.5c-.5-.22-.85-1.41-1.31-1.8L.58,29.47l9.15-7.38Z"/>
      <polygon class="cls-1" points="22.46 14.58 22.43 14.53 22.43 14.57 22.46 14.58"/>
      <path class="cls-1" d="M29.38,15.56c-1.73,3.63-1.61,3.46.37,6.84,1.9-3.98,1.75-3.37-.37-6.84Z"/>
      <polygon class="cls-1" points="3.48 46.12 4.69 42.38 2.52 39.63 1.33 42.07 3.48 46.12"/>
      <path class="cls-1" d="M26.22,46.54c1.01-.94,1.73-2.55.44-3.95-1,.83-1.17,2.17-.44,3.95Z"/>
      <path class="cls-1" d="M15.14,40.13l5.96-10.69-5.84-10.4-5.04,8.86c-.72,1.26-.78,2.01-.05,3.23,1.74,2.92,3.35,5.91,4.97,9Z"/>
    </g>
  </g>
</svg>