<?xml version="1.0" encoding="UTF-8"?>
<svg id="Warstwa_2" data-name="Warstwa 2" xmlns="http://www.w3.org/2000/svg" viewBox="0 0 59.98 59.63">
  <defs>
    <style>
      .cls-1 {
        fill: #fff;
      }
    </style>
  </defs>
  <g id="game-icon-v6-elemental-pixarts-store">
    <g id="game-icon-v6-elemental-pixarts-store_256">
      <path class="cls-1" d="M56.76,38.71l-10.16-3.09c3.67-.12,7.1.59,10.16,3.09Z"/>
      <g>
        <path class="cls-1" d="M37.32,45.56c-5.23,3.28-11.65,2.53-16.13-.79-4.87-3.61-6.65-9.48-5.52-15.67,1.24-3.87,3.2-7.47,5.51-10.96,3.73-5.67,6.63-11.33,8.66-18.14,1.6,5.14,3.55,9.37,6.1,13.72l6.67,11.37c3.48,7.28,1.92,15.95-5.29,20.48ZM26.33,14.82c-3.45,5-11.22,15.41-6.26,21.09.45-8.61,4.21-13.45,6.26-21.09ZM41.1,35.34c.52-2.45.48-4.79-.66-6.68.31,7.94-4.74,14.26-12.67,14.83,5.87,1.77,11.99-1.77,13.33-8.15Z"/>
        <path class="cls-1" d="M44.05,49.43l-.43-.67c-.39-.61,1.64-2.37,1.01-2.95l-1.65-1.53c.47-1.41,2.36-1.09,3.56-.15.74.58,1.73,1.71,1.83,2.46.64,4.93-19.76,9.02-32.86,3.53-1.65-.69-3.39-2.07-3.44-3.88-.06-2.26,3.18-3.85,4.89-2.36l-1.78,2.5c.63,1.88,3.31,3.33,5.16,2.72-1.01-.88-1.19-1.04-.12-.93,6.94,3.03,13.9,3.04,20.44-.42l-1.93,2.34,5.34-.66Z"/>
        <path class="cls-1" d="M47.36,51.76c1.26-.56,2.37-1,3.57-1.45l4.24-1.59c1.6-.6,2.53-2.54,1.6-3.85l-3.09,3.14c.92-2.7.34-5.13-2.09-6.42l-5.55-2.94c3.98-.56,13.19,2.99,13.89,6.99.47,2.72-3.71,5.5-6.29,6.56-6.68,2.78-15.08,3.38-21.88,3.42,5.49-1.12,10.65-1.68,15.59-3.86Z"/>
        <path class="cls-1" d="M13.59,50.71l5.8,2.42-1.59.48,6.59,1.56C19.34,56.79-.6,52.09.01,45.98c.33-3.27,3.47-3.98,5.86-4.7,2.76-.83,5.18-3.48,8.34-1.98-4.16,1.59-7.85,3.29-8.89,7.19l-1.41-1.44c-.21-.22-.49.31-.81.9l5.52,4.4c.51.41,2.15.7,2.29.67l-1.89-3.82c1.65,1.43,2.79,2.77,4.57,3.51Z"/>
        <path class="cls-1" d="M8.28,55.48c15.16,2.79,24.71,3.15,40.75.49-13.04,4.93-27.6,4.98-40.75-.49Z"/>
        <path class="cls-1" d="M.26,41.17c1.22-2.84,4.14-3.69,6.9-4.58,1.8-.55,3.68-1.21,5.41-.85-4.64,1.96-8.37,3.12-12.32,5.43Z"/>
      </g>
    </g>
  </g>
</svg>