<?xml version="1.0" encoding="UTF-8"?>
<svg id="Warstwa_2" data-name="Warstwa 2" xmlns="http://www.w3.org/2000/svg" viewBox="0 0 35.89 58.23">
  <defs>
    <style>
      .cls-1 {
        fill: #fff;
      }
    </style>
  </defs>
  <g id="game-icon-v6-elemental-pixarts-store">
    <g id="game-icon-v6-elemental-pixarts-store_83">
      <path class="cls-1" d="M23.9,23.1l.02-10.25c2.12-.94,2.66-3.62,1.28-4.92-.23-.22-1.01-.65-1.28-.79-.27-.14-.8.93-1.11,1.08-2.55.84-6.21.87-9.01.21l-1.62-1.28c-1.42.42-2.24,1.45-2.31,2.99-.04.91,1.17,2.05,2.03,2.81l.12,10.15C4.03,26.28-.67,33.85.08,41.96c.78,8.39,7.33,15.07,15.29,16.11,8.58,1.11,16.66-3.53,19.49-11.72,3.29-9.51-1.61-19.71-10.97-23.25ZM11.35,10l13.08.23c-3.57,1.93-8.95,2.25-13.08-.23ZM30.18,51.01c-4.52,5.18-12.04,7.04-18.51,4.25-6.5-2.8-10.49-9.53-9.69-16.93.71-6.62,5.35-11.47,11.59-13.75.58-3.97.38-7.56.06-11.8,1.33,1.65,2.51,2.21,4.59,2.13,1.59-.06,2.64-.49,3.92-1.89l.1,11.36c4.28,1.51,7.31,3.8,9.46,7.4,3.69,6.17,3.15,13.88-1.52,19.23Z"/>
      <path class="cls-1" d="M12.86,2.69c.22,1.48.58,3.15,1.09,4.63,2.71.45,5.46.47,8.21-.05l.93-4.37c-4.04.69-6.7.76-10.23-.21Z"/>
      <path class="cls-1" d="M12.56,1.54c3.47,1.77,7.53,2.21,10.92,0-3.52-2.23-7.58-1.84-10.92,0Z"/>
      <path class="cls-1" d="M17.13,36.82c-3.07,3.85-2.61,9.04-.53,13.05.53-1.46,1.3-3.38,1.43-4.47l-.71-5.68,1.56,4.03c2.31-1.96,1.61-4.22,1.98-6.93l.82,3.27,3.75-4.89c-.77,2.26-1.93,3.72-2.91,5.28l3.56-.72-4,2.15c-1.05.56-2.05,2.43-2.53,3.62l4.67-1.17c-3.63,2.66-5.59,1.08-6.42,6.54l4.12-1.47c8.6-3.07,9.2-13.82,5.19-20.42-2.96,4.19-7.35,4.48-9.99,7.8Z"/>
      <path class="cls-1" d="M20.01,51.18l-2.93,2.66c-2.93-3.89-8-1.49-10.26-8.28-.88-2.64-.84-5.8.03-8.28l7.04,3.4,1.54-3.59-6.57-1.46c-1.45-.32-3.7.07-4.9,1-1.76,6.12.85,12.19,5.64,15.72,5.07,3.73,11.65,3.5,16.85.02,7.48-5.01,7.08-16.6,4.33-16.51-.89.03,2.22,12.64-10.77,15.33Z"/>
      <path class="cls-1" d="M13.64,41.83l-6.3-2.98c-.06,1.71-.05,3.7.31,5.47.79,3.9,4.1,5.99,7.6,6.27-.76-2.56-2.59-3.47-4.89-3.66l2.48-.6-2.77-2.27c.26-.17.69-.42.62-.65l-.26-.8,3.46,3.66-.26-4.44Z"/>
      <path class="cls-1" d="M12.47,28.3c-3.28-.61-6.03,2.49-6.12,5.65,2.24-1.5,4.18-3.36,6.12-5.65Z"/>
      <rect class="cls-1" x="12.41" y="19.34" width="6.82" height="1.38" transform="translate(-4.45 35.53) rotate(-89.1)"/>
    </g>
  </g>
</svg>