<?xml version="1.0" encoding="UTF-8"?>
<svg id="Warstwa_2" data-name="Warstwa 2" xmlns="http://www.w3.org/2000/svg" viewBox="0 0 57.22 54.24">
  <defs>
    <style>
      .cls-1 {
        fill: #fff;
      }
    </style>
  </defs>
  <g id="game-icon-v6-elemental-pixarts-store">
    <g id="game-icon-v6-elemental-pixarts-store_493">
      <path class="cls-1" d="M10.1,19.31c8.32,3.37,17.06,3.66,26.2,3.6-8.95,2.32-18.49,1.52-27.16-2.07.2,2.17,2.07,3.51,3.76,4.35l-.68,1.57c-.15.35.69,1.28,1.06,1.45l3.97,1.75-3.07-.12c2.87,5.23,15.57,5.19,20.44,5.03-4.41,2.05-8.92,1.37-13.96,1.09l4.47,3.37.36,2.68c-.39.51-1.05,2.14-.53,2.67l1.94,1.97-3.29-.71c-2.21,2.4-1.61,6.48,1.41,8.29.51-5.02,3.63-3.71,7.33-6.68l-2.67-.92c3.39-.39,6.64-.66,8.82-3.9l-4.07.12c3.09-1.16,6.22-1.83,7.56-5.12-3.68,1.58-7.07,2.21-10.56,1.63,3.25-.37,11.43-2.04,11.51-5.72.03-1.13-.38-2.56-.59-3.82-4.55,2.53-9.29,2.69-13.93,1.74,4.79-.39,11.75-.51,15.25-4.69-7.45,1.99-14.87,2.52-22.18.37,6.36,0,12.29.21,18.3-1.24,2.91-.7,9.3-2.81,8.75-6.46,1.18-1.1,3.38-2.14,3.94-3.87-7.78,3.36-16.09,5.04-24.56,3.5,8.65-.43,17.15-1.74,24.85-5.92,2.14-1.16,3.66-2.85,4.45-5.13-.01-4.92-7.35-7.21-11.62-8.12,1.8,1.47,9.16,4.55,6.69,8.3-1.13,1.71-3,2.79-4.63,3.14.66-.71,1.43-1.55,1.47-2.17.26-3.56-12.14-5.66-15.16-5.24,1.68.82,12.31,2.3,11.49,5.57-.72,2.89-10.67,3.97-13.56,4.26-6.38.63-12.58.29-18.5-2.12-.7-.28-1.75-1.36-1.62-1.96.65-3.2,8.82-4.17,11.17-4.92-3.07-.53-15.48,1.23-14.85,5.23.11.74.91,1.75,1.62,2.65-1.72-.53-3.66-1.52-5.17-2.99-2.49-2.44,3.12-5.92,5.14-6.5L19.1.54C13.47.41,5.64,2.07,1.43,5.59c-1.71,1.43-1.98,3.97-.3,5.48,1.64,1.47,3.51,2.49,5.4,3.49l-3.09-.63c1.31,3.08,3.92,4.27,6.66,5.37Z"/>
      <path class="cls-1" d="M35.79,11.26c-4.67-2.32-10.37-2.67-14.85.25,2.72,1.09,13.39,1.53,14.85-.25Z"/>
      <path class="cls-1" d="M50.43,23.87c-.27-.11-.86-.35-.83-.34l-2.91,3.58c.88-.1,2.86-.94,3.71-1.57.28-.21.37-1.52.03-1.66Z"/>
      <path class="cls-1" d="M6.12,21.51l-1.17,1.14c-.21.21.17,1.26.43,1.41l2.21,1.31-1.47-3.87Z"/>
    </g>
  </g>
</svg>