<?xml version="1.0" encoding="UTF-8"?>
<svg id="Warstwa_2" data-name="Warstwa 2" xmlns="http://www.w3.org/2000/svg" viewBox="0 0 50.7 50.31">
  <defs>
    <style>
      .cls-1 {
        fill: #fff;
      }
    </style>
  </defs>
  <g id="game-icon-v6-elemental-pixarts-store">
    <g id="game-icon-v6-elemental-pixarts-store_94">
      <path class="cls-1" d="M47.16,46.2c-1.45-.97-2.79-1.26-4.58-1.66.13-2.14,5.64-.28,8.12-1.04-1.55-1.59-3.45-1.7-5.11-2.82-1.01-.68-2.39-2.39-3.49-2.35-.33.02-.79,1.16-.5,1.31l.94.51-1.79.8,1.34,1.91c-4.77-1.64-5.07,1.72-8.12-1.25l-1.33-.45c.49-.27,1.6-.79,1.86-1.34l2.25-4.9-1.55-.97-.45,2.99c-1.3-.28-2.91-.14-4.07.32l-1.87-1.13v4.53s1.82.8,1.82.8c-.5.19-1.8.38-1.69.76.14.48.77,1.35,1.06,1.74-1.39.03-2.88.41-3.65,1.31l-.07,1.36c-1.77-1.63-3.26-2.04-5.43-1.64l.83-1.27c-1.32-1.22-2.52-.19-3.68.69.54-1.53,2.03-2.05,3.61-2.53l.08-5.25-2.09.55c-1.08-.22-2.63-.28-3.62.05-.05-.89-.18-2.07-.37-3.16l-1.78.75,1.52,3.53c.38.88,1.09,1.54,1.88,2.07-.32.23-.96.52-.86.73l.57,1.1-2.2.06-4,2.82,1.49-2.1-3.69-1.12,1.3-1-1.63-2.92c-1.44,1.05-2.38,2.24-3.63,2.88l-4.58,2.33,7.97-.45-5.05,2.71,4.66.81c2.06,2.3,2.61.2,7.41,1.04l1.76-2.19.02,1.46,2.06-.02-3.63,2.49,6.05-.2c1.72,1.47,6.27,1.86,8.43.99,1.85-.74,3.44-.94,5.85-1.23-.86-1.07-2.01-1.52-3.66-2.28,1.72-.97,5.21,1.56,8.11.86l-1.28-2.63c2.39,2.08,5.34,2.88,8.45,1.63Z"/>
      <path class="cls-1" d="M30.09,23.19l-2.64,2.62-.29-18.05c-1.69,1.92-1.62,4.06-2,6.25-.58-2.21-.11-4.19-1.79-6.11l-.22,4.61c-.42,8.9,1.63,5.59,1.48,9.49l-.55,14.39c-1.19-3.67,1.26-15.17-.83-17.35-1.3-1.36-2.63-2.39-4.16-3.44,1.25,2.66,2.83,5.24,3.95,8l-.21,19.63c.76.43,1.55.72,2.29.89l.37-7.05.45,6.14c.02.29.98.38,1.12.16.97-1.51-.27-11.42.44-13.32l2.58-6.88ZM26.74,34.18c-.73-2.28-1.22-4.64,0-7.06v7.06Z"/>
      <path class="cls-1" d="M19.76,35.71c.15.38,1.62-.08,1.51-.51l-1.8-7.28c-.28-1.12-.12-2.55-.29-3.67l-.82,1.09-4.75-17.32c-.53-1.94-2.03-3.74-2.77-5.48l.13,6.31c.09,4.37,3.13,9.89,1.65,10.68-.95-.83-1.67-1.44-3.24-1.95,2.31,4.1,4.22,3.63,5.32,8.11l2.32,9.47c.11.43,1.47.87,1.71.6l-2.71-8.71c-.89-2.86-1.34-5.65-2.28-8.24,3.73,5.7.31,4.54,4.34,11.99.7,1.29,1.11,3.4,1.68,4.89Z"/>
      <path class="cls-1" d="M4.4,20.61l1.56,4.1c.09.24.96.77,1.22.92l3.49,7.75-3.59-6.29c-.9-1.59-1.93-2.99-2.61-4.72-.52-1.31-.91-2.55-2.11-3.26.64,2.13,1.31,3.92,2.05,5.85l2.82,7.29-3.98-.64c1.77,1.55,3.34,2.4,5.32,3.67l2.58,6.08c.16.38,1.52.71,1.45.38l-1.92-5.35,2.72,4.55c.16.27.93.55,1.24.51.25-.03.65-.63.53-.9l-3.77-8.6-5.56-12.48c-1.19-2.68-3.21-4.93-4.95-7.28,1.01,9.26,2.23,5.05,3.51,8.43Z"/>
      <path class="cls-1" d="M32.56,35.8c1.98.09,1.41-3.86,2.63-5.41,1.27-1.62,2.56-2.84,3.77-4.66l-3.07,1.25,4.35-16.19c-1.42.93-1.76,2.39-2.38,3.92l.6-3.84c2.08,1.85,2.31-5.99,2.11-6.42-2.02,2.75-3.21,5.46-4.18,8.57l-5.89,18.91c-.43,1.39-.65,2.53-.65,4.15.83-1,1.01-1.52,1.61-2.68l.26,1.11,1.41-4.27,2-8.55c-.17,4.6-1.37,8.66-2.71,12.98-.08.26-.13,1.14.13,1.15Z"/>
      <path class="cls-1" d="M46.68,19.82l-2.09,5.17c.05-2.93,2.42-4.89,1.4-8.02l-10.61,23.51c-.22.48-.02,1.37.35,1.38,1.67.02,2.62-4.18,4.24-5.84l-2.18,5.47c.25.07,1.5-.13,1.65-.47l3.3-7.38c1.01-2.27,2.4-1.76,4.59-4.3l-3.53,1.2,4.72-11.72c-.81-.05-1.61.42-1.84,1Z"/>
      <path class="cls-1" d="M31.37,13.49l-2.53,9.48,1.83-.49-.88,5.84c2.21-6.28,3.36-8.08,1.57-14.84Z"/>
      <path class="cls-1" d="M23.59,7.13l1.54,2.66,1.68-2.99c-.34-2.3-.86-4.54-1.58-6.8-.72,2.54-1.25,4.85-1.65,7.13Z"/>
      <path class="cls-1" d="M48.63,18.05l1.13-6.22c-2.32,3.4-3.33,3.65-2.86,6.62.05.32,1.65-.09,1.72-.4Z"/>
    </g>
  </g>
</svg>