<?xml version="1.0" encoding="UTF-8"?>
<svg id="Warstwa_2" data-name="Warstwa 2" xmlns="http://www.w3.org/2000/svg" viewBox="0 0 52.55 55.76">
  <defs>
    <style>
      .cls-1 {
        fill: #fff;
      }
    </style>
  </defs>
  <g id="game-icon-v6-elemental-pixarts-store">
    <g id="game-icon-v6-elemental-pixarts-store_205">
      <path class="cls-1" d="M44.46,22.44C28.14,31.01,14.22,44.03,0,55.76c9.84-11.32,19.33-22.52,27.9-34.85,1.82-2.87,3.39-5.44,4.91-8.43,2.7-5.32,7.87-9.23,14.01-9.12,2.55.05,4.46,2.39,5.35,4.51.98,2.34-.08,4.7-1.12,7.05-1.43,3.26-3.14,5.7-6.59,7.52ZM40.37,8.22c-3.69,1.12-5.46,4.55-6.68,8.15,2.51-1.56,3.61-5.07,6.68-8.15ZM33.76,17.14c-2.74,2.83-4.52,5.56-6.28,8.44,2.98-2.32,4.98-5.3,6.28-8.44ZM35.78,22.68c-4.77,3.21-8.48,6.41-11.87,10.16l8.21-5.99c1.35-1.3,2.71-2.61,3.66-4.17ZM47.38,16.01l-4.4,2.93c-1.49.75-2.72,1.83-3.55,3.27,2.33-1.06,8.09-3.77,7.94-6.2Z"/>
      <path class="cls-1" d="M26.96,16.04c3.55-2.41-3.23,8.46-4.87,8.07l3.99-7.47.87-.59Z"/>
      <path class="cls-1" d="M20.79,28.19c-1.78,3.29-4.1,5.55-7.1,7.9-.1-.06,5.94-9.87,7.1-7.9Z"/>
      <path class="cls-1" d="M19.8,42.05c1.4-2.05,5.98-6.25,8.02-6.65,2.95-.57-7.72,7.23-8.02,6.65Z"/>
      <path class="cls-1" d="M31.7,33.49c.41-2.31,11-7.4,7.99-4.44-1.74,1.71-5.81,3.65-7.99,4.44Z"/>
      <path class="cls-1" d="M32.31,7.81c-.17,2.27-1.67,4.14-3.24,5.17-.62-5.32,3.34-6.61,3.24-5.17Z"/>
      <path class="cls-1" d="M48.67,23.5c-.44,3.01-3.49,3.39-5.76,3.22,1.42-1.79,3.41-3.15,5.76-3.22Z"/>
      <path class="cls-1" d="M44.97.65c-1.03,1.7-3.01,1.22-4.61,1.12,1.01-1.44,2.7-2.51,4.61-1.12Z"/>
      <path class="cls-1" d="M16.06,44.42c-1.49,2.26-3.6,3.61-5.88,4.72,1.7-1.94,3.32-3.64,5.88-4.72Z"/>
      <path class="cls-1" d="M11.37,40.76l-4.56,4.27c1.36-2.2,2.73-3.85,4.58-5.68.05-.04.11,1.29-.02,1.41Z"/>
    </g>
  </g>
</svg>