<?xml version="1.0" encoding="UTF-8"?>
<svg id="Warstwa_2" data-name="Warstwa 2" xmlns="http://www.w3.org/2000/svg" viewBox="0 0 58.5 58.37">
  <defs>
    <style>
      .cls-1 {
        fill: #fff;
      }
    </style>
  </defs>
  <g id="game-icon-v6-elemental-pixarts-store">
    <g id="game-icon-v6-elemental-pixarts-store_49">
      <path class="cls-1" d="M55.81,53.4c-3.91-.83-5.47,4.01-7.06,1.17,1.6-1.2,3.41-2.3,3.67-4.32.07-.56-1.48-1.18-1.88-.87-2.11,1.63-1.59,3.16-3.28,3.74-1.51.52-3.87-1.92-5.07-.98-1.47,1.16-.78,2.41-2.93,3.71-.56.34-2.5-.23-2.54-.98-.12-2.73-.09-5.54.06-8.47l1.2,6.27c.08.41.62,1.14.95,1.27,1.27.54,1.17-3.42,4.66-3.29.1-4.58-1.23-8.98-2.77-13.53,2.89,2.63,3.33,6.37,4.19,10.1l.81-.72c.24,1.56.45,3.22,1.28,4.5-.02-8.9-4.2-21-12.98-23.79l2.53,3.83-6.68-4.48c-.76-.51-2.39-.81-3.17-.87,4.68,3.51,8.83,7.6,9.62,13.26-2.71-5.16-5.73-9.2-11.24-11.13-.24,1.41.01,3.09.76,4.52,3.78,3.97,5.15,9.18,4.28,14.58-.15.96.2,2.94,1.2,3,.68.04,1.46-1.89,1.35-2.67l-1.61-11c3.15,4.16,3.44,9.25,3.1,14.33-.08,1.23-.38,2.29-1.47,2.64-3.03.99-5.17-5.5-8.2-3.2-.38.29-.25,1.71.32,1.82,1.97.39,4.37,1.69,5.95,3.96-1.66.77-4.03-3.38-6.44-1.37-3.36,2.8-4.79.11-4.82,3.91h36.13c1.18,0,2.02-1.87,1.9-2.7-.11-.81-.92-2.08-1.82-2.27Z"/>
      <path class="cls-1" d="M22.88,38.38l-2.7-2.82c-5.61-.65-9.07-5.93-8.02-11.15.83,4.39,2.68,8.16,6.84,8.92-.04-2.79-.01-4.78.67-6.81,1.99-5.92.25-8.93,1.89-9.96,6.67-4.19,5.85-6,12.81-6.75-2.85-3.41-7.02-4.11-11.04-2.51-11.57,4.62-17.52,20.11-10.05,27.68,2.38,2.41,5.95,3.7,9.59,3.4Z"/>
      <path class="cls-1" d="M45.62,18.64c-2.42-2.13-.69-4.31-3.28-6.33-.98-.76-2.54-.49-3.79-.67-7.17-1.04-9.06-.03-14.21,5.19,3.57,2.59,3.81-3.34,11.4-2.3l4.44.61c1.8,4.49,5.68,5.68,3.82,9.25-.3-4.59-4.41-6.49-8.65-6.83l4.26,2.48c1.63.95,2.47,3.64,2.07,5.08-1.86-2.44-3.04-4.43-5.55-4.03,3.05,1.32,4.39,4.36,3.32,7.19l3.05,2.81.32-1.74,1.27,4.92c3.91-2.91-.16-4.91,2.52-9.2,1.4-2.25,1-4.71-.97-6.43Z"/>
      <path class="cls-1" d="M23.27,6.01c-2.01-2.37-5.04-1.95-7.48-.77-4.67,2.26-7.91,6.09-9.35,11.14-.82,2.88-.46,5.97,2.35,7.78l.74-3.17c-1.66-1.34-1.95-3.49-1.41-5.14.55,1.77.87,2.77,1.73,3.49,3.35-6.31,6.66-10.67,13.42-13.34Z"/>
      <path class="cls-1" d="M24.77,38.27c1.21.82,1.19,3.28,3.79,2.71-.14-2.31-1.3-4.54-2.73-6.22-4.54-5.33-1.1-8.42-1.76-16.57-.03-.42-1-1.39-1.32-1.12-1.81,1.51.35,4.22-1.93,10.61-1.58,4.43.34,8.14,3.94,10.6Z"/>
      <path class="cls-1" d="M5.96,10.6l.79,1.93c2.17-3.63,4.59-6.22,8.3-8.27-1.02-1.1-2.73-1.46-4.15-.89C5.94,5.34,1.76,12.41,5.4,15.61c1.6-2.09-.36-3.24.56-5.01Z"/>
      <path class="cls-1" d="M9.36,3.03c-.81-.78-1.69-1.05-2.47-.82C3.31,3.28.93,7.25,3.13,10.39c1.48-3.33,3.41-5.42,6.24-7.36Z"/>
      <path class="cls-1" d="M0,0c.4,2.13.97,3.79,1.61,5.17l3.7-3.55C3.68.94,2.02.34,0,0Z"/>
      <path class="cls-1" d="M56.49,46.81l-1.37,1.23c-.34.31-.62,1.72-.27,2.02,1.13.84,4-.67,3.63-2.35-.13-.6-1.65-1.2-1.99-.9Z"/>
      <path class="cls-1" d="M20.01,53.78c.47-.25,1.31-.79,1.59-1.06-.81-1.31-2.94-1.69-3.38-.17-.18.64,1.22,1.53,1.79,1.22Z"/>
      <path class="cls-1" d="M34.52,24c2,.86,3.64,3.93,4.31,2.77-.1-2.33-2.6-3.07-4.31-2.77Z"/>
    </g>
  </g>
</svg>