<?xml version="1.0" encoding="UTF-8"?>
<svg id="Warstwa_2" data-name="Warstwa 2" xmlns="http://www.w3.org/2000/svg" viewBox="0 0 59.43 56.35">
  <defs>
    <style>
      .cls-1 {
        fill: #fff;
      }
    </style>
  </defs>
  <g id="game-icon-v6-elemental-pixarts-store">
    <g id="game-icon-v6-elemental-pixarts-store_463">
      <path class="cls-1" d="M26.38,17.57l-7.2.26c-4.05.15-7.74-1.12-11.65-2.17,2.8,5.57,12.93,7.01,18.41,7.33-4.07.55-8.16.22-12.4-.88,1.29,8.17,19.56,8.38,25.52,8.35-5.59,1.4-12.69,1.1-18.48-.41,3.7,4.55,12.3,4.76,17.19,5.11-3.5,1.17-6.94.65-10.75.25,2.41,3.13,6.26,2.75,9.5,4.59l-6.79-.75c2.09,4.52,15.75,2.67,16.05-3.03-3.01.99-5.73,1.62-8.58,1.58,4.41-1.66,8.77-1.09,9.12-6.87-1.85.74-3.61,1.41-5.71,1.52,1.45-.76,2.73-1.39,4.09-2.25,1.27-.81,1.73-3.5.48-4.07-4.07,1.28-8.36,2.41-11.8,1.9,5.25-1.27,12.36-1.54,14.77-7.31-7.82,4.22-16.35,5.75-25.18,4.8,7.79-.88,24.29-2.07,28.55-10.96-5.86,3.42-11.76,4.49-18.46,3.84,6.14-.66,16.16-1.95,19.86-7.26,1.76-2.53-4.62-5.84-6.76-5.57,1.21,1.17,3.56,2.26,2.8,4.1-.81,1.97-3.77,2.59-5.51,2.73.58-.56,1.16-1.14,1.35-1.54.7-1.47-7.75-3.44-8.79-2.68,2.17.53,4.69.98,6.28,2.49,1.52,3.67-15.98,3.48-17.95,2.58.12-.8.98-1.25,2.01-1.72-1.81-.57-3.68.47-5.17,1.76-1.1-.01-2.82-.58-3.77-1.33.19-.62,1.17-1.72,1.69-1.86l8.1-2.3c-3.9.15-8.81.61-11.97,2.7-.89.59-1.35,1.41-2.24,1.06-.62-.25-1.94-1.31-1.58-1.87,2.26-3.5,13.14-4.35,16.66-5.32-6.19-.24-18.09,1.3-22.74,5.27-.38,0-1.21-1.58-.85-1.9l2.38-2.14c-1.37-.05-4.29,1.43-3.58,3.32,2.63,6.99,17.07,8.13,23.08,8.65ZM36.81,20.81l-3.28.43c-2.81.64-11.64-.07-13.98-1.33l6.52.57,10.74.32Z"/>
      <path class="cls-1" d="M25.18,56.35c.59-3.02,2.24-4.7,5.06-6.31l-1.8-.26c2.96-.73,5.98-1.57,8.3-3.54l-5.42-.53c4.14-.45,7.9-.78,10.99-3.54l-5.88.38c-2.61.17-4.88-.53-7.14-1.95l-2.56,3.68c.51,1.07,1.44,2.48,2.11,3.54-1.23.06-2.22-1.18-3.07-2.1-1.16.56-1.16,2.47-.63,3.93l-1.64-.9c-.53,2.84.12,5.26,1.69,7.6Z"/>
      <path class="cls-1" d="M39.29,1.5c4.12,1.15,21.55,1.6,16.31,9.41,1.37-.54,3.37-1.67,3.78-3.62,1.07-5.11-17.56-6.3-20.1-5.79Z"/>
      <path class="cls-1" d="M12.79,30.38c-.87-.8-3.07-1.1-4.36-1.47.23,1.47.94,3.66,1.69,4.67.14.18,1.34-.52,1.23-.72l-.62-1.1,1.84.66-1.74,2.01,8.39,3.74c-2.11-3.07-3.9-5.43-6.43-7.78Z"/>
      <path class="cls-1" d="M46.52,47.72l1.59-4.06c-4.04.68-7,3.7-10.19,6.1,3.24-.36,5.48-1.09,8.6-2.04Z"/>
      <path class="cls-1" d="M56.89,17.14c-2.85,2.07-5.27,4.47-6.38,7.83l4.77-2.52c1.98-1.04,3.12-3.49,1.61-5.31Z"/>
      <path class="cls-1" d="M21.74.72l-4.67-.72c-1.35.93-2.81,2.15-4.08,3.28,3.13-.3,5.87-.93,8.76-2.56Z"/>
      <path class="cls-1" d="M5.63,16.37l-3.13-2.21c-.67-.47-.84-1.74-.69-2.67-.74.07-2.35,1.68-1.62,2.5,1.46,1.65,3.65,2.25,5.45,2.38Z"/>
    </g>
  </g>
</svg>