<?xml version="1.0" encoding="UTF-8"?>
<svg id="Warstwa_2" data-name="Warstwa 2" xmlns="http://www.w3.org/2000/svg" viewBox="0 0 56.92 61.59">
  <defs>
    <style>
      .cls-1 {
        fill: #fff;
      }
    </style>
  </defs>
  <g id="game-icon-v6-elemental-pixarts-store">
    <g id="game-icon-v6-elemental-pixarts-store_488">
      <path class="cls-1" d="M37.93,24.01l2.55-.98,5.72-11.56-12.27,6.5-2.1-6.07-1.47,1.7c1.71-4.57-.52-7.99-2.07-13.6l-4.47,15.33c-.49,1.69-.73,3.48-.99,5.1-.28-.77-.56-2.62-1.32-3.07-3.38-1.98-7.26-4.12-11.07-5.96l6.47,12.88-6.61,1.96,2.46,1.42-4.47-.8c-2.92.83-5.46,1.61-8.31,2.76l17.42,5.17c-.73.71-1.56,1.72-2.04,2.68l-4.97,9.99,10.19-5.31c1.35-.7,1.64-2.29,2.65-4.04.09,1.37-.26,3.07.03,4.19l4.96,19.29c1.22-3.41,2.07-6.59,2.86-10.14l-.88-4.34,1.45,2.25,2.34-8.34,12.37,6.42-5.31-10.8c-.57-1.15-1.94-1.94-3.16-2.67,3.01.41,5.44.23,7.83-1.19l-2.27-1.91c6.05,2.2,7.44.52,13.46-1.42l-10.36-3.26c-2.91-.92-5.59-1.53-8.62-2.18ZM31.91,30.99l6.81,8.76-8.78-6.53-1.66,14.17-1.41-14.13-8.37,6.14c1.98-3.24,3.97-5.36,6.38-8.46l-14.07-1.35,14.13-1.48-6.86-8.95,8.78,6.73,1.43-14.08,1.53,14.02,8.68-6.48c-1.91,3.35-4.1,5.43-6.63,8.57l13.82,1.66-13.79,1.42Z"/>
    </g>
  </g>
</svg>