<?xml version="1.0" encoding="UTF-8"?>
<svg id="Warstwa_2" data-name="Warstwa 2" xmlns="http://www.w3.org/2000/svg" viewBox="0 0 43.03 61.08">
  <defs>
    <style>
      .cls-1 {
        fill: #fff;
      }
    </style>
  </defs>
  <g id="game-icon-v6-elemental-pixarts-store">
    <g id="game-icon-v6-elemental-pixarts-store_249">
      <path class="cls-1" d="M4.71,20.47c-.59-.02-1.28-1.53-1.21-2.08.08-.64,1.13-1.72,1.74-1.47,1.56.62.61,3.59-.53,3.55Z"/>
      <g>
        <path class="cls-1" d="M17.86,50.29l1.51,1.67c-2.39-.78-2.87-2.73-3.06-5.1-.68.08-1.75.49-1.99.94s.01,1.74.37,2.16c2.45,2.9,4.47,6.17,5.2,10.1l-4.73-3.51-.77-3.16c-1.14-.81-2.02-1.82-2.66-2.84-.44-.48-2.52-.87-2.4-1.55l.4-2.26c.1-.57-1.23-1.27-1.84-1.72l-.36-4.69c-3.54,8.29,3.76,9.52,2.54,11.34-.78,1.17-5.2-2.12-5.57-4.62-.7-4.68,3.31-8.55-2.79-12.44-.57-.36-1.42-1.17-1.64-1.72-.26-.65.31-2.36.82-2.95l4.72-5.46c.37,2.18-2.64,5.53,1.06,6.99l2.11-4.64c.63-1.38,1.07-2.54,1.69-4.19l.98,1.64c6.17-5.12-5.26-8.25,1.78-14.66-.33,3.02.28,5.35,2.06,7.43,4.2,4.9-1.33,9.82-.04,11.48,1.03,1.32,4.94-.22,5.93-5.26.5-2.53-.76-4.65-2.3-6.63-5.18-6.69,7.17-6.77,1.4-16.63,3.47.63,6.25,4.6,5.44,8.44-.26,1.22-1.25,2.84-1.74,4.14.33,2.06,1.84,4.63,3.33,5.92,2.75-.82,3.11-3.98,2.32-6.24,2.17.72,4.21,3.75,3.15,6.09-1.66,3.67-2.91,10.94-1.02,12.15.81.52,3.03-.17,3.05-1.4.03-1.39-.26-2.56-.5-4.04l2.79,1.99c-.69-3.83-1.81-6.31-.36-9.53,1.22,6.52,6.41,7.34,6.28,12.45-.15,5.62-8.34,7.55-7.71,12.44,1.22-.79,2.12-1.69,3.68-3.16-.08,2.35.3,5.73-.66,8.05-2.49,6.03-10,8.21-14.19,13.42,3.24-11.47,8.95-4.33,7.83-12.45l1.99.9c2.01-.71,3.15-2.84,2.7-4.63-.62.96-1.74,2.55-2.65,2.77-.55.13-1.35-1.52-1.56-2.1l-2.99,2.95c.24,1.22.33,2.68-.03,3.46-.31.68-2.27.42-2.96.76-2.9,1.67-3.46,5.79-4.5,8.72-.75-2.39-1.64-5.35-2.13-7.52-.19-.83.7-2.74.37-3.69-.2-.59-2.49-.02-2.36.42ZM33.08,38.26c2.1-6.03-6.79-1.67-6.03-8.54l.6-5.46c-.82,2.21-3.7,5.07-2.58,7.3l4.12,8.24c.29-.36.66-1.8.32-2.27l-1.42-1.97c2.23.1,3.97.8,4.99,2.7ZM34.63,33.56c2.29.92,3.96.13,4.88-1.61.57-1.07.36-3.01-.38-4.31-1.13,2.65-2.39,4.38-4.5,5.92ZM19.06,32.7c.7-.11,1.77-.02,2.02-.51.29-.56.2-2.01-.09-2.51-1.99,1.71-3.2,2.84-4.53,4.53l2.6-1.51ZM15.72,41.8c-.22-1.67-.86-4.11-1.4-5.78-1.44.44-1.76,1.51-1.9,2.88-2.53-.94-2.14-3.55-1.79-6.58-2.77,2.4-.91,5.99.85,8.64.27,1.97-1.45,4.91,1.03,6.57.14-2.45,1.15-3.77,3.21-5.72Z"/>
        <path class="cls-1" d="M32.31,10.8l-1.44-2.94c-.35-.72-.18-2.77.76-3.01.97-.25,2.44,1.25,2.61,2.14.25,1.35-.31,2.67-1.92,3.81Z"/>
      </g>
    </g>
  </g>
</svg>