<?xml version="1.0" encoding="UTF-8"?>
<svg id="Warstwa_2" data-name="Warstwa 2" xmlns="http://www.w3.org/2000/svg" viewBox="0 0 50.17 60.55">
  <defs>
    <style>
      .cls-1 {
        fill: #fff;
      }
    </style>
  </defs>
  <g id="game-icon-v6-elemental-pixarts-store">
    <g id="game-icon-v6-elemental-pixarts-store_489">
      <path class="cls-1" d="M11.18,51.12c1.86.64,3.15,1.06,4.95.76l-3.17-2.98c2.33.51,4.15,1.02,6.43-.03l-4.72-2.58c2.81.53,5.42.96,7.63-.76l-6.19-2.3c3.46-.1,6.31.61,8.78-1.7l-8.06-1.8c4.08-.01,7.91-.03,10.3-3.43h-8.92c3.95-.96,8.26-1.39,10.1-5.62l-9.21,1.69c3.46-1.97,7.36-2.75,9.17-7.12l-8.71,2.68c2.82-2.24,6.12-3.74,6.67-7.84l-8.63,5.04c-1.27.74-2.96,3-3.36,4.44-1.3,4.63.89,11.1-1.64,15.33.02-1.95.91-3.99.66-5.74-.46-3.14-1.04-6.1-.41-9.11,1.12-5.37,10.18-6.71,11.29-15.62-3.77,3.04-7.22,5.65-11.08,8.31-.67.46-1.37,1.37-1.8,1.96l-.03-1.92c-5.36,6.69-2.63,9.07-2.02,14.53.56,5.06-2.46,9.8-7.49,11.12-.72,1.66-2.17,4.44-1.59,6.49l1.59,5.62c2.51-3.29,1.15-6.28,2.92-7.91l-.17,3.78c1.88-1.28,3.01-1.75,4.91-2.09l-1.16-2.21c1.62.88,2.48,1.31,4.32,1.89l-1.36-2.89Z"/>
      <path class="cls-1" d="M27.46,18.79l.32,2.23-2.13,3.62,4.35-.89.05,1.74,11.64-5.82c-.86-.71-1.43-.89-2.8-1.5l4.56-.29c3.21-2.17,5.02-5.75,5.63-9.52l-12.71,8.12c-2.68,1.71-5.22,3.24-8.3,4.28l4.85-3.17c1.25-.82,1.88-2.48.63-3.75,1.54-1.24,3.33-1.88,5.5-1.18,2.75-3.68,5.15-7.65,5.06-12.67-5.74,6.43-12.12,11.68-19.17,16.07l-1.85,4.67,4.39-1.95Z"/>
      <path class="cls-1" d="M44.77,20.48l-15.22,5.66-2.66,3.52,3.12-.12c.22.82.37,1.15.6,1.16l9.83-3.16c.47-.15,1.2-1.14,1.57-1.26,3.34-1.14,7.42-4.16,8.16-8.15-1.93.86-3.64,1.7-5.4,2.36Z"/>
      <path class="cls-1" d="M48.44,27.51l-18.8,3.69c-.99,1.4-2.16,2.8-3.22,3.72,3.64.72,6.43,2.19,9.47-1.05.19.42.33,1.05.53,1.01l1-.21c4.47-.96,8.54-2.94,11.02-7.15Z"/>
      <path class="cls-1" d="M45.39,36.68l-16.61-.2-4.11,3.81c1.88.31,7.09.6,8.85.15l-.7-.96c-.09-.12-.06-.53.06-.46l1.02.55c2.85,1.55,9.43-.38,11.5-2.88Z"/>
      <path class="cls-1" d="M33.98,49.47c-2.76-1.93-6.31-4.52-9.64-3.74-1.44.34-3.2,2.01-4.65,2.01.32.46.84.97.64,1.16l-1.1,1.06c2.96,2.03,6.29,3.61,10.02,3.16-2.38-2.4-5.03-3.74-7.9-5.12,4.52.63,8.3,2.8,12.63,1.48Z"/>
      <path class="cls-1" d="M26.8,41.19l-4.06,3.21c5.34,1.08,11.33,2.14,16.91-.37-4.19-1.42-8.48-3.01-12.85-2.83Z"/>
      <path class="cls-1" d="M16.7,50.92l1,1.87-4.13.41.69,1.86-4.55-.79c1.52,2.54,3.2,4.63,6.42,5.43l-1.94-4.51c2.62,1.63,4.05,2.89,6.71,3.17l-2.57-4.33c2.32.97,4.24,1.78,6.94,2.14-.74-2.13-6.12-6.58-8.56-5.24Z"/>
      <path class="cls-1" d="M35.49,13.58c-.32.43-.4,1.21-.43,2.24,1.22-.77,2.06-1.42,3.13-2.49-.82-.38-2.27-.33-2.7.24Z"/>
    </g>
  </g>
</svg>