<?xml version="1.0" encoding="UTF-8"?>
<svg id="Warstwa_2" data-name="Warstwa 2" xmlns="http://www.w3.org/2000/svg" viewBox="0 0 44.13 61.03">
  <defs>
    <style>
      .cls-1 {
        fill: #fff;
      }
    </style>
  </defs>
  <g id="game-icon-v6-elemental-pixarts-store">
    <g id="game-icon-v6-elemental-pixarts-store_259">
      <path class="cls-1" d="M35.61,53.78c.33,4.23-3.63,7.07-7.24,7.25-.97.05-2.83-.2-3.62-.6l-3.06-1.53-2.97-3.67c-.05-1.24-.65-3.15-1.36-4.36.34-1.38,1.5-3.61.28-5.16l1.92-1.95c.41-.42-.32-1.82-.54-2.42,2.87-1.74,2.48-6.16,1.71-5.92-1.2.38-2.75,2.4-3.53,3.84-.61-.74-2.36-2.3-2.71-3.24-2.73-7.24-.82-5.42.02-10.92.98.86,3,2.28,4.16,2.38.54.05,1.22-1.73.84-2.05l-1.95-1.68.35-2.33c.1-.64-1.56-1.46-1.77-2.03.26-.64.95-2,1.14-2.63.21-.72-1.14-1.94-1.54-2.56.69-.71,1.61-1.62,2.02-2.22s-.48-2.44-.73-2.81l2.63-1.27c.66-.32.37-2.08.33-2.73l3.04-.39c.64-.08.85-1.55,1.25-2.3l2.91.32c.69.08,1.17-1.39,1.63-2.8l2.08,2.04c.4.39,1,1.33,1.46,1.25l2.23-.42c-1.61,2.92,1.97,3.83,2.51,5.22,1.39,3.55,2.27,7.14,7.04,7.6-.56,1.62-1.78,2.92-3.3,3.14-8.23-8.01-11.41,1.13-14.73-8.89-1.52,6.76,3.2,8.28,6.68,11.95,2.67,3.81,3.72,9.44,1.73,13.35-2.37,4.65-3.47,3.92-7.85,8.2-2.79,2.73-4.39,6.5-3.13,10.24.7,2.07,2.47,3.54,4.24,3.87,2.13.4,4.31-.73,5.07-2.74.27-.72.14-2.52-.21-3.11-.4-.68-1.85-1.15-2.76-1.05-.48.05-1.62,1.07-1.4,1.49l1,1.86c-1.67.16-2.39-1.31-2.28-2.78.07-1.05,1.32-2.37,2.57-2.6,3.22-.57,5.58,1.76,5.84,5.17Z"/>
      <path class="cls-1" d="M7.01,14.67c0,1.94-1.57,3.51-3.51,3.51s-3.51-1.57-3.51-3.51,1.57-3.51,3.51-3.51,3.51,1.57,3.51,3.51ZM5.56,14.24c0-1.22-.99-2.21-2.21-2.21s-2.21.99-2.21,2.21.99,2.21,2.21,2.21,2.21-.99,2.21-2.21Z"/>
      <circle class="cls-1" cx="8.35" cy="38.66" r="2.18"/>
      <path class="cls-1" d="M10.63,23.02c0,1.45-1.18,2.63-2.63,2.63s-2.63-1.18-2.63-2.63,1.18-2.63,2.63-2.63,2.63,1.18,2.63,2.63ZM9.64,22.67c0-.97-.78-1.75-1.75-1.75s-1.75.78-1.75,1.75.78,1.75,1.75,1.75,1.75-.78,1.75-1.75Z"/>
      <path class="cls-1" d="M6.32,31.69c0,1.34-1.09,2.42-2.42,2.42s-2.42-1.09-2.42-2.42,1.09-2.42,2.42-2.42,2.42,1.09,2.42,2.42ZM5.24,31.66c0-.8-.65-1.45-1.45-1.45s-1.45.65-1.45,1.45.65,1.45,1.45,1.45,1.45-.65,1.45-1.45Z"/>
    </g>
  </g>
</svg>