<?xml version="1.0" encoding="UTF-8"?>
<svg id="Warstwa_2" data-name="Warstwa 2" xmlns="http://www.w3.org/2000/svg" viewBox="0 0 56.36 55.9">
  <defs>
    <style>
      .cls-1 {
        fill: #fff;
      }
    </style>
  </defs>
  <g id="game-icon-v6-elemental-pixarts-store">
    <g id="game-icon-v6-elemental-pixarts-store_496">
      <path class="cls-1" d="M11.34,23.96l-2.77,4.69,2.08,2.81c-1.01,4.25-1.32,3.26-4.76,5.1l-1.24,9.22c-.12.88-.99,2.23-1.3,3.27,3.07-1.21,5.15-3.37,7.72-5.33,1.49-1.14,3.29-2.07,4.71-3.29,1.47-1.26,2.68-2.18,4.21-3.34l-6.47.24c-1.15,1.55-1.95,3.2-3.49,4.19l2.78-5.04c2.48-.78,5.64-1.21,8.25-1.61.78-1.36.24-4.04-1.43-4.54l-3.65.29,4.01-1.43,2.21,1.87,3.27-5.47-3.74-5.06-5.89,4.62-4.5-1.18Z"/>
      <path class="cls-1" d="M26.86,41.44c-.84,3.11-.06,5.83,1.62,8.42-.97-.58-1.6-2-2.34-3.06-.61-.15-1.72.16-2.57.51-1.22.52-1.42,1.44-1.78,2.94.01,0,.03-.01.04-.02l-1.44,5.68,12.98-2.48,1.65-5.56c-.59-.95-1.13-2.02-1.24-2.88l-.48-3.56,2.27,4.86c1.14-1.43,2.96-4.34,1.87-5.94-1.28-1.89-2.61-2.98-2.9-5.44-1.31-.17-3-.29-4.28-.33-.51,3.17.11,5.37,1.97,7.33l-3.36-2.68-2,2.23Z"/>
      <path class="cls-1" d="M24.98,44.61c.3-1.33-.04-3.09.54-4.18,1.06-1.95,3.33-.5,2.71-8.35-2.59,1.14-3.66,3.13-4.68,5.35l-5.44,2.27.07,2.98c-1.45.46-2.66.85-3.32,1.44-1.05.93-.94,2.41-.72,3.83l-4.79,5.9c11.19-4.82,1.84,2,12.38-3.59-.98-3.92,2.7-3.24,3.24-5.67Z"/>
      <path class="cls-1" d="M21.76,50.35s.02-.06.02-.1c-.01,0-.03.01-.04.02,0,.03.01.05.02.08Z"/>
      <path class="cls-1" d="M0,26.97l2.07,11.4,2.36-2.26c.81-.77,2.6-1.1,4.15-1.67.9-.33,1.87-2.34,1.32-2.95l-2.47-2.72,2.49-5.02-4.01-1.06L0,26.97Z"/>
      <path class="cls-1" d="M39.54,15.45c.19-2.25,1.19-4.5,2.6-6.29,0-.65-.27-1.92-.45-2.51-1.36,1.82-2.24,3.08-3.65,4.57l2.77-4.77c-2.25.79-3.64,1.17-5.51,1.19l-5.74,16.12c4.14-2.9,6.06-5.7,9.98-8.31Z"/>
      <path class="cls-1" d="M55.16.92l-4.54,1.49-4.97,8.13c6.33-2.52,2.62,1.25,9.43-5.08l.08-4.54Z"/>
      <path class="cls-1" d="M45.22,21.37c1.85-.03,3.97-.94,6.14-1.65l-2.16-1.36-2.67-2.91-7.45,6.03,6.14-.12Z"/>
      <polygon class="cls-1" points="26.28 14.01 25.37 10.88 21.7 12.65 26.12 20.78 28.62 11.45 26.43 11.12 26.28 14.01"/>
      <polygon class="cls-1" points="15.76 23.61 19.08 21 15.5 18.82 7.88 21.33 15.76 23.61"/>
      <polygon class="cls-1" points="49.35 29.62 41.45 31.58 48.29 35.21 49.35 29.62"/>
      <path class="cls-1" d="M39.02,29.27l2.62-.85c-1.31,0-2.75.11-3.82.5l-5.45,1.96,5.16,2.81,1.49-4.41Z"/>
      <path class="cls-1" d="M47.46,24.95l5.77,1.48,3.13-2.21c-3.94-1.27-5.07-.44-8.89.73Z"/>
      <path class="cls-1" d="M33.52,0l-3.19,2.09.72,4.82c2.13-1.96,2.84-4.17,2.47-6.91Z"/>
      <path class="cls-1" d="M43.48,42.14l2.96-2.25-5.83-2.59c1.06,2.09,1.69,3.04,2.87,4.84Z"/>
      <path class="cls-1" d="M17.03,8.89l-2.88,2.57,4.26,3.24c-.22-2.62-.58-3.89-1.38-5.81Z"/>
      <path class="cls-1" d="M31.84,27.76c2.17-.74,3.53-1.43,5.33-2.46l-2.27-1.46-3.05,3.91Z"/>
    </g>
  </g>
</svg>