<?xml version="1.0" encoding="UTF-8"?>
<svg id="Warstwa_2" data-name="Warstwa 2" xmlns="http://www.w3.org/2000/svg" viewBox="0 0 51.18 63.88">
  <defs>
    <style>
      .cls-1 {
        fill: #fff;
      }
    </style>
  </defs>
  <g id="game-icon-v6-elemental-pixarts-store">
    <g id="game-icon-v6-elemental-pixarts-store_175">
      <path class="cls-1" d="M47.33,38.58c-1.28-2.56-1.6-5.83-.14-8.62,3.75-7.16-2.39-9.72-.81-14.9-.74.01-2.56,1.77-2.66,2.82l-.51,5.41c-4.96-4.42.16-10.08-8.25-14.63.43,1.37.96,3.1.54,4.3-.29.81-2.64-.65-2.87-1.48-1.95-6.89-7.41-4.12-6.12-11.47-.89.28-2.73,1.4-3.44,2.29-2.01,2.55,3.29,7.85-.38,9.53-.38.17-1.82.2-2.21.17-.39-.03,0-1.01.12-1.68l-.28-2.88c-.06-.6-1.26-.83-2.29-1.16,1.34,2.75-1.13,3.91-2.21,5.98-1.27,2.44-.72,5.5-4.05,6.89l-1.35-5.96c-5.74,5.37-1.06,8.45-2.71,14.62-.12.45-1.6.99-1.97.69-.36-.3-1.15-1.35-1.17-1.84l-.23-4.55c-7.31,9.02,3.13,4.69-.76,20.29-.87-2.02-1.3-3.74-1.97-6.38-6.24,12.31,7.72,13.01,7.05,19.61-2.02-.59-3.2-1.19-5.32-2.28.62,1.62,2.22,3.55,3.58,5.02,4.28,4.67,8.92,5.62,15.05,5.28,9.64-.54,23.65,3.36,26.81-8.02l-4.71,3.85c-2.01-7.16,8.33-6.59,6.57-17.32-.49-2.99.02-5.54.56-9.02l-3.84,5.44ZM40.26,46.32c-.64,4.57-1.55,7.72-6.82,10.85,2.59-.24,3.85-.86,5.9-1.65-1.57,2.54-4.32,5.71-7.31,5.92l-7.69.53c-4.04.28-5.55,1.8-10.5-5.16l4.12.5c-6.56-3.83-10.67-15.16-7.7-21.26l1.47,8.84c.18,1.06,2.12,2.77,2.9,3.21-1.55-7.43-3.03-15.01.62-21.77.15-.29.53.32,1.07,1.04,1.34-3.56,4.41-5.06,8.31-6.98l-5.32-.16c3.7-5.24,17.78-.2,18.45,5.34l-3.71-2.15c3.54,4.93,4.2,9.41,4.62,15.91l2.35-6.17c1.8,4.39-.15,8.76-.76,13.17Z"/>
    </g>
  </g>
</svg>