<?xml version="1.0" encoding="UTF-8"?>
<svg id="Warstwa_2" data-name="Warstwa 2" xmlns="http://www.w3.org/2000/svg" viewBox="0 0 44.85 44.85">
  <defs>
    <style>
      .cls-1 {
        fill: #fff;
      }
    </style>
  </defs>
  <g id="game-icon-v5-divine-pixarts-store">
    <g id="game-icon-v5-divine-pixarts-store_128">
      <path class="cls-1" d="M22.43,0C10.04,0,0,10.04,0,22.43s10.04,22.43,22.43,22.43,22.43-10.04,22.43-22.43S34.81,0,22.43,0ZM36.53,34.64l.39,1.23c.09.3-1.04.25-1.81.19-13.78,12.88-26.89-1.68-27.23.03l.29-1.46c-5.92-7.21-6-17.17-.02-24.32l-.29-1.83c.53-.02,1.87.06,2.24-.28,6.72-6.12,17.49-6.39,24.35-.09.44.4,1.91.4,2.31.36l-.03,1.92c5.78,7.25,5.67,17.17-.22,24.25Z"/>
      <path class="cls-1" d="M22.36,5.96c-9.09,0-16.45,7.37-16.45,16.45s7.37,16.45,16.45,16.45,16.45-7.37,16.45-16.45S31.45,5.96,22.36,5.96ZM25.85,26.04l-.14,7.36h-6.86s-.09-7.3-.09-7.3l-7.34-.3.05-6.94,7.32-.16.15-7.38,6.74.05.17,7.37,7.22.1.06,7.05-7.27.15Z"/>
    </g>
  </g>
</svg>