<?xml version="1.0" encoding="UTF-8"?>
<svg id="Warstwa_2" data-name="Warstwa 2" xmlns="http://www.w3.org/2000/svg" viewBox="0 0 52.48 40.23">
  <defs>
    <style>
      .cls-1 {
        fill: #fff;
      }
    </style>
  </defs>
  <g id="game-icon-v5-divine-pixarts-store">
    <g id="game-icon-v5-divine-pixarts-store_14">
      <path class="cls-1" d="M12.91,32.2l19.03-.04-.04-7.68c-1.02.23-2.61.63-3.07,1.26-1.2,2.01-2.03,4.61-4.36,5.34-.92-2.75,1.27-5.03,1.28-7.38.01-2.72-.49-5.36.97-7.92,1.54-2.71,3.1-5.09,4.83-7.78.65-1.01.98-7.87-3.44-7.87H5.33c1.04,1.76,1.76,3.31,1.75,5.18l-.13,29.82c0,2.23,1.55,4.44,3.5,4.99,1.82.51,3.37-.66,3.88-2.15.46-1.34.24-2.98-1.14-4.06-.54-.43-1.84.1-2.08.8-.15.45,0,1.39.46,1.46.76.12,1.83.29,2.11.36-.65,1.32-2.21,1.29-3.37.6-.79-.48-.72-2.48-.23-3.42.42-.8,1.73-1.5,2.82-1.5ZM22.61,27.76c-.15.18-.7.66-.96.66l-9.74-.04c-.31,0-.88-.45-1.04-.6-.16-.16.6-.72,1.02-.72l9.81.03c.29,0,1.06.49.92.67ZM17.42,8.13l.17-3.74h3.57s.17,3.74.17,3.74l3.88.09v3.77s-3.89.22-3.89.22l-.08,3.79-3.75.04-.07-3.85-3.82-.17-.04-3.8,3.87-.08ZM10.78,19.89c.16-.15.78-.59,1.06-.59l11.09.02c.35,0,.88.42,1.06.61.18.19-.73.73-1.02.73l-11.35.04c-.3,0-.98-.65-.83-.8ZM23.81,23.96c-.87.75-12.64,1.05-13.26-.12.49-.85,14.57-1,13.26.12Z"/>
      <path class="cls-1" d="M36.65,7.81v-2.77c-3.43,3.48-6.12,4.83-6.11,10.03l-1.15-1.9c-.61,2.21-.82,3.8-1.05,6.07l-.92-1.82c-.82,1.93-.58,4.02.05,5.91-.68,1.7-1.62,3.55-1.83,5.56l2.64-4.78c2.13-.67,3.79-1.18,5.26-2.14l-2.35-.76,3.84-1.11c1.02-.29,2.33-1.95,2.92-2.77l-.87-.36c-.13-.05-.1-.21.03-.25,2.57-.71,4.09-3.48,5.58-5.57l-3.77-.08c4.84-1.98,4.08-.3,6.97-4.68,1.75-2.65,3.89-4.56,6.57-6.04-4.75-.97-9.76.05-13.45,3.29-1,.88-1.61,2.83-2.37,4.17ZM28.37,23.41c1.89-7.01,7.01-13.11,13.06-17.72-4.99,5.27-8.86,11.08-13.06,17.72Z"/>
      <path class="cls-1" d="M35.43,40.15c1.34,0,2.17-2,2.39-2.89.25-.97-.23-2.85-1.17-3.7l-21.56.06c1.23,2.15,1.28,4.23-.44,6.59l20.77-.07Z"/>
      <path class="cls-1" d="M3.77,6.93c.64-.02,1.78-.17,1.87-.67.09-.46.07-1.44-.09-1.83-.34-.87-3.71.14-3.22-1.18l2.78-.65c-.14-.71-1.31-2.19-2.15-2.18C.8.44-.22,2.45.04,4.21c.25,1.73,1.68,2.79,3.73,2.72Z"/>
    </g>
  </g>
</svg>