<?xml version="1.0" encoding="UTF-8"?>
<svg id="Warstwa_2" data-name="Warstwa 2" xmlns="http://www.w3.org/2000/svg" viewBox="0 0 31.54 52.05">
  <defs>
    <style>
      .cls-1 {
        fill: #fff;
      }
    </style>
  </defs>
  <g id="game-icon-v5-divine-pixarts-store">
    <g id="game-icon-v5-divine-pixarts-store_97">
      <path class="cls-1" d="M19.4,2.48l-.07,28.49,8.34,1.34,3.49-9.38c2.37-6.35-6.78-16.94-11.76-20.44Z"/>
      <path class="cls-1" d="M.19,21.76c1.07,3.64,2.38,7.2,3.7,10.6l8.24-1.41-.04-28.54C7.34,5.8-1.41,16.27.19,21.76Z"/>
      <path class="cls-1" d="M16.11.07c-.72-.37-2.69.68-2.69,1.6l-.08,30.36-8.92,1.44c.39,1.3.71,2.18,1.27,3.52,6.95-1.56,13.33-1.48,20.28.02l1.18-3.49-9.03-1.48.02-29.35c0-1.34-.93-2.09-2.03-2.64Z"/>
      <path class="cls-1" d="M7.41,38.18c-1.38,4.37-3.53,7.48-6.3,11.35l4.06-.58,1.64,3.11c2.79-4.7,5.1-9.18,6.24-14.56-2.01.09-3.84.31-5.64.69Z"/>
      <path class="cls-1" d="M18.37,37.47c1.45,5.5,3.5,9.95,6.35,14.5l1.6-3.03,4.14.64c-2.73-3.7-5.06-7.07-6.4-11.44l-5.68-.68Z"/>
    </g>
  </g>
</svg>