<?xml version="1.0" encoding="UTF-8"?>
<svg id="Warstwa_2" data-name="Warstwa 2" xmlns="http://www.w3.org/2000/svg" viewBox="0 0 53.88 51.53">
  <defs>
    <style>
      .cls-1 {
        fill: #fff;
      }
    </style>
  </defs>
  <g id="game-icon-v5-divine-pixarts-store">
    <g id="game-icon-v5-divine-pixarts-store_143">
      <path class="cls-1" d="M14.11,34.44c-1.01.69-2.13,1.47-1.16,2.83l2.74-1.74,1.74,4.35,5.66-9.08c-.13,2.25-.45,4.36-.91,6.51l-3.08,14.21h15.69s-2.61-12.03-2.61-12.03c-.62-2.87-1.27-5.64-1.35-8.72,1.62,3.25,3.32,5.98,5.65,8.92l1.52-3.87c1.19.67,2,1.04,3.22,1.38.14-.75-.3-1.94-.89-2.34-8.86-6.09-5.82-10.85-12.16-12.65,1.89-1.13,2.27-2.57,1.59-4.32-.46-1.19-1.74-2.35-3.42-1.99-1.43.31-2.21,1.69-2.35,3.06-.12,1.14.57,2.24,1.66,3.36-5.59,1.07-4.33,7.2-11.54,12.11Z"/>
      <path class="cls-1" d="M9.15,15.6c-1.81-.62-3.33-1.45-5.18-2.44.86,3.49,3.7,5.31,6.54,7.21l-3.6-.5c1.29,2.14,3.5,3.05,5.79,3.85l-3.21.56c1.6,1.31,3.06,1.72,4.87,2.17l-.95,1.21,3.4.34-.53.87c1.37.17,2.39-.77,3.13-2.05l2.42-4.17c-4.91-3.25,1.21-5.94-4.24-9.86C12.54,9.16,7.83,5.27,4.51.03c-.48,4.51,1.94,7.79,4.57,10.9-2.16-1.33-3.93-2.9-6.12-4.84.29,4.14,3.13,6.72,6.19,9.5Z"/>
      <path class="cls-1" d="M35.31,28.32c.17.3,1.49.66,1.8.76.25.08.07-.85.07-.97l3.3-.26-1.42-1.29c2.16-.42,4.04-1.06,5.11-2.43l-2.89-.4c2.13-.96,4.17-1.64,5.81-3.91l-4.05.56c3-1.74,5.94-3.81,6.72-7.23-1.82,1.02-3.23,1.8-4.87,2.44,2.77-2.79,5.6-5.29,6.04-9.51-1.93,1.68-3.58,3.14-5.67,4.54,1.86-3.38,4.67-5.75,3.77-10.21-3.35,5.05-7.72,8.98-12.75,12.44-5.26,3.62.46,6.36-4.19,9.85l3.23,5.63Z"/>
      <path class="cls-1" d="M40.52,40.72l8.01,7.63c-.67-1.2-8.34-11.12-10.08-10.37.56,1.06,1.24,1.94,2.07,2.73Z"/>
      <path class="cls-1" d="M5.25,48.1c3.62-2.98,6.9-6.19,10.33-9.81-.32-2.82-9.96,9.14-10.33,9.81Z"/>
      <path class="cls-1" d="M31.84,12.88c-.97-2.32-8.51-2.05-9.6-.14,1.88,2.18,7.23,1.85,9.6.14ZM30.45,12.71c-2.07,1.08-4.57,1.09-6.92.08,1.99-1.23,4.42-1.48,6.92-.08Z"/>
      <path class="cls-1" d="M27.59,9.61v-1.11c-.02-3.01-.04-5.8-.85-8.5l-.64,9.15c-.03.37,1.49.73,1.49.46Z"/>
      <path class="cls-1" d="M41.2,29.54c3.62.93,6.54,1.65,10.17,2.13l-8.25-3.28c-.53-.21-1.6.46-1.92,1.15Z"/>
      <path class="cls-1" d="M10.83,28.28l-8.31,3.35c3.82-.38,6.78-1.29,10.25-2.31-.82-.85-1.31-1.05-1.95-1.04Z"/>
      <path class="cls-1" d="M15.52,30.69c-3.75,2.25-6.85,4.33-9.84,7.01.42,1.07,11.25-7.12,9.84-7.01Z"/>
      <path class="cls-1" d="M41.31,33.47c1.89,1.58,3.57,3.36,6.1,3.67-2.99-2.53-5.81-4.55-9.27-6.42.5,1.54,2.11,1.85,3.17,2.74Z"/>
      <path class="cls-1" d="M45.21,26.11c3.26.02,5.79-.18,8.67-.69l-7.05-.74c-.73.28-1.19.6-1.62,1.44Z"/>
      <path class="cls-1" d="M20.6,11.77l-4.91-6.64,2.61,5.71c.66.75,1.52,1.96,2.3.93Z"/>
      <path class="cls-1" d="M23.35,10.24c.16-.2.39-.92.29-1.17l-2.66-6.9c.08.94,1.18,9.56,2.37,8.07Z"/>
      <path class="cls-1" d="M33.63,12.39c1.89-.84,3.7-5,4.08-6.62-.45.12-5.82,7.39-4.08,6.62Z"/>
      <path class="cls-1" d="M8.67,26.02c-.53-.84-1.33-1.27-2-1.21l-6.67.6c2.95.5,5.71.74,8.67.61Z"/>
      <path class="cls-1" d="M31.38,9.89c.42-1.59,1.14-4.88,1.11-6.81l-2.2,5.75c-.1.25-.05,1.01-.04,1.23.01.22,1.04.14,1.12-.17Z"/>
      <path class="cls-1" d="M19.04,40.47c-1.69,1.89-3.12,4.19-3.66,6.93l3.87-6.23c.14-.23-.07-.85-.21-.7Z"/>
      <path class="cls-1" d="M34.53,40.39c1.1,2.44,2.28,4.54,3.66,6.41-.58-2.75-1.75-4.97-3.66-6.41Z"/>
    </g>
  </g>
</svg>