<?xml version="1.0" encoding="UTF-8"?>
<svg id="Warstwa_2" data-name="Warstwa 2" xmlns="http://www.w3.org/2000/svg" viewBox="0 0 36.8 43.97">
  <defs>
    <style>
      .cls-1 {
        fill: #fff;
      }
    </style>
  </defs>
  <g id="game-icon-v5-divine-pixarts-store">
    <g id="game-icon-v5-divine-pixarts-store_24">
      <path class="cls-1" d="M35.09,19.3h-15.67c-.13-6.04,2.76-12.99,9.31-14.29-3.1,2.2-5.97,4.51-7.07,8.39,9.11.75,12.17-5.27,13.51-13.41-4.32,1.3-7.46.92-10.92,2.55-7.44,3.5-2.97,9.72-6.19,12.97-.56-.87-1.03-1.92-1.05-2.95-.12-7.1-7.45-7.17-12.53-7.67l1.62,4.26c1.51,3.98,5.22,6.11,9.49,5.63-1.23-2.47-2.97-4.05-4.96-6.04,4.65,1.48,7.07,5.78,6.74,10.58l-15.18-.03C.95,19.29,0,20.06,0,21.32v8.55c.01.57,1.15,1.49,1.74,1.49h10.65s.04,11.06.04,11.06c0,.8,1.2,1.52,1.92,1.52l8.13.02c.98,0,1.91-.91,1.91-1.95v-10.65s10.26,0,10.26,0c1.2,0,2.14-.68,2.14-1.95v-8.55c0-.63-1.04-1.57-1.71-1.57Z"/>
    </g>
  </g>
</svg>