<?xml version="1.0" encoding="UTF-8"?>
<svg id="Warstwa_2" data-name="Warstwa 2" xmlns="http://www.w3.org/2000/svg" viewBox="0 0 53.83 51.43">
  <defs>
    <style>
      .cls-1 {
        fill: #fff;
      }
    </style>
  </defs>
  <g id="game-icon-v5-divine-pixarts-store">
    <g id="game-icon-v5-divine-pixarts-store_178">
      <path class="cls-1" d="M24.21,9.44l-.07-.73c-.01-.15-.72-.25-.89-.24l-5.67.26,6.63.71Z"/>
      <path class="cls-1" d="M43.03,23.34c.53-.53.99-1.17,1.11-1.81-3.64-3.98-9.57-4.9-14.5-2.45,2.25,4.41-1.31,6.65.88,8.02l2.22,1.38c1.67.24,10.75-2.82,9.36-5.24-.94-1.63-2.16-2.66-3.63-3.7,2.16.59,3.61,1.95,4.55,3.79ZM31.01,23.39l-.14-2.98c.77-.3,1.62-.38,2.51-.28-1.21.85-1.94,1.81-2.37,3.26ZM30.19,19.77c1.66-1.28,3.63-.99,5.79-.83l-5.79.83Z"/>
      <path class="cls-1" d="M33.71,29.4c-.26.06-.33.98-.12,1.09.2.11.57.18.91.14l6.64-.67c1.95-.2,3.6,1.56,5.14,2.56l1.95-2.85c-.27,1.54-1.08,2.72-1.83,3.69-4.91-4.07-5.98-2.88-12.01-2.14-.22.03-.63.35-.74.49-.11.14.27.66.45.64,3.79-.45,8.6-1.81,10.69,1.78,1.4,2.4-.62,4.28,2.49,5.4.26-1.09.38-2.35.18-3.3-.93-4.36,4.88-5.25-2.34-13.97-2.79,4.61-6.62,6.07-11.41,7.14ZM47.06,26.06l-.95-.61c.3,1.72.53,3.31.38,5.02-.34-1.8-.72-3.56-1.26-5.39-1.21,1.07-1.98,1.78-3.22,2.33,1.26-1.23,2.12-2.05,3.39-3.54.51.45,1.22,1.34,1.66,2.19Z"/>
      <path class="cls-1" d="M31.57,35.22c1.61,2.19,2.03,5,1.43,7.73,2.53,2.48,5.22,4.45,8.65,5.74l-.55-4.22-.72-5.51c-2.37-.66-4.24-1.94-5.49-3.96l-1.26-2.04c-.75.97-1.24,1.53-2.05,2.25ZM33.9,38.62l.62,3.28,1.77,2.82c-.95-.61-1.65-1.17-2.44-1.85l.05-4.25Z"/>
      <path class="cls-1" d="M44.01,51.43c-.82-4.8-1.41-9.51-1.78-14.2-1.53-.41-2.74-.81-4.19-1.37-2.32-1.95-1.6-4.04-3.53-2.9,1.12,3.01,3.48,4.94,6.49,5.51l1.33,11.05c-3.93-1.18-7.22-3.33-10.12-6.32,1.59-7.05-2.66-8.81-1.93-7.45,1.25,2.34,1.54,5.12.4,7.65,3.72,3.84,8.04,6.76,13.33,8.03Z"/>
      <path class="cls-1" d="M35.16,16.54c2.17.16,3.89.49,5.87.98-1.4-2.36-3.44-3.11-5.23-5.49l-.26.74-2.35-2.71c-2.5-2.88-4.17-6.12-5.2-10.05-2.42,6.24,2.98,12.49,7.16,16.54Z"/>
      <path class="cls-1" d="M18.42,12.62c-3.73-2.68-7.45-6.7-9.03-11.12-2,5.55,4.4,13.41,9.09,14.88l1.92.86c-.68-1.41-4.28-3.53-5.19-5.14l4.3,3.13c.14-1.14-.28-2.03-1.09-2.61Z"/>
      <path class="cls-1" d="M18.27,35.28l-7.58,7.13,3.89.31c-2.45,2.47-4.52,4.36-6.49,6.7,4.25-2.7,7.89-5.39,11.62-8.24l-4.25-.4,5.27-4.81c-.75-.31-1.63-.58-2.46-.68Z"/>
      <path class="cls-1" d="M20.01,12.66c.23,2.64,1.91,6.71,5.2,7.42l-1.59-2.42c6.65,4.01,1.36,6.47,4.05,10.7l1.54-.91c-.54-1.33-.64-2.45-.18-3.69,1.92-5.2-5.92-7.67-9.02-11.1Z"/>
      <path class="cls-1" d="M43.02,12.43l3.93.15-3.21,4.04c-.24.31-.45.93-.32,1.21.11.25.78.66,1.04.53l6.95-7.67-3.8-.19c1.74-2.52,3.29-4.29,4.65-6.82-3.41,2.84-6.19,5.68-9.24,8.73Z"/>
      <path class="cls-1" d="M16.2,16.27c-3.39-2.24-6.23-4.81-8.45-8.29-.54,6.23,6.38,11.41,11.58,12.84-.16-1.3-3.23-2.5-4.15-3.56l3.16,1.31c-.42-1.09-1.22-1.7-2.14-2.31Z"/>
      <path class="cls-1" d="M19.79,24.22c-.52-.82-1.22-1.24-1.98-1.59l-2.46-1.14,3.19.74c-.35-.79-.92-1.22-1.68-1.54-3.32-1.39-6.13-3.2-8.95-5.65.67,4.99,7.58,8.68,11.88,9.19Z"/>
      <path class="cls-1" d="M31.67,17.06l2.74-.61c-3.84-4.02-6.29-6.31-8.49-10.96-.33,5.12,2.22,8.4,5.75,11.57Z"/>
      <path class="cls-1" d="M27.19,41.41c1.45-.32,2.63-5.39.33-6.52l-1.61,3.55.45-3.04c-.78.25-1.31.86-1.62,1.65l-.68,1.7,3.46,1.79c-1.68.17-2.9-.64-3.87-1.88l-.87,1.14c1.23,1.04,2.66,2,4.41,1.61Z"/>
      <path class="cls-1" d="M20.54,27.32c-.84-.94-1.84-1.19-2.92-1.57l1.84.05c-.28-.58-.82-.98-1.47-1.15-2.72-.72-5.15-1.53-7.87-2.56,1.95,3.26,6.23,5.07,10.41,5.23Z"/>
      <path class="cls-1" d="M48.72,35.35c-1,4.15-1.07,8.09-.67,12.53-1.13-1.27-1.83-2.47-3.51-2.95l2.13,2.58c.85,1.03,1.59,1.94,2.63,2.6-.7-4.61-1.01-8.66-.08-13.14.09-.42-.19-1.23-.5-1.62Z"/>
      <path class="cls-1" d="M21.39,18.97l-2.52-1.44c.94,3.65,4.11,5.04,7.42,6.03-1.13-1.02-1.95-1.47-3-2.19l3.03,1.13c-1.45-1.62-3.15-2.51-4.93-3.52Z"/>
      <path class="cls-1" d="M31.89,33.6c.74-.79,1.22-2.08.63-3.44-.37-.86-1.18-1.61-1.8-1.73-.78-.15-1.82.06-2.39.54-1.64,1.35-1.64,3.96.12,5.11,1.11.72,2.58.44,3.43-.47ZM27.68,31.45c0-1.18.95-2.13,2.13-2.13s2.13.95,2.13,2.13-.95,2.13-2.13,2.13-2.13-.95-2.13-2.13Z"/>
      <path class="cls-1" d="M13.23,27.43c2.33,2.35,5.73,2.74,8.58,2.31l-1.62-1.66-6.96-.64Z"/>
      <path class="cls-1" d="M28.9,18.11l2.07-.94c-2-1.84-3.61-3.47-5.43-5.45.24,2.58,1.36,4.84,3.36,6.39Z"/>
      <path class="cls-1" d="M19.97,46.4l2.31.41-2.42,2.42,5.08-2.7-2.05-.55,3.02-2.72c-2.32.83-4.08,1.93-5.94,3.14Z"/>
      <path class="cls-1" d="M19.28,21.87c1.24,2.59,3.81,3.51,6.54,3.72-.69-.59-1.34-.89-2.25-1.35l2.21.36c-1.18-1.08-4.82-2.34-6.5-2.73Z"/>
      <path class="cls-1" d="M26.75,34.01l-.78-1.78c-.55-.04-1.78-.18-2.27.03l-3.35,1.46c1.69.83,2.99.12,4.59-.33l-.66,1.58,2.46-.96Z"/>
      <path class="cls-1" d="M0,28.41l11.5.28c-.3-.84-.91-1.14-1.88-1.1l-8.96.37C.51,27.96,0,28.36,0,28.41Z"/>
      <path class="cls-1" d="M23.91,31.53l-1.45-.44.57-.74c-1.31.15-2.21.27-3.33.5l-3,.62c2.19,1.18,4.84,1.39,7.21.06Z"/>
      <path class="cls-1" d="M26.48,27.49l-2.27-.75,1.72-.42-5.97-1.15c.83,2.23,4.71,2.82,6.52,2.32Z"/>
      <path class="cls-1" d="M48.94,18.42l1.78.78-2.5,2.17,4.66-2.38-1.71-.65,2.67-2.28c-1.91.76-3.21,1.44-4.9,2.36Z"/>
      <polygon class="cls-1" points="40.62 8.47 39.23 11.22 42.65 7.56 40.92 7.4 41.99 4.98 38.68 8.53 40.62 8.47"/>
      <path class="cls-1" d="M25.98,28.1l-4.6.14c1.38,1.65,3.37,1.59,5.29,1.15l.26-.85c.05-.16-.76-.45-.95-.45Z"/>
      <path class="cls-1" d="M14.81,35.63l-10,.64,7.84.44c1.02.05,1.91-.12,2.16-1.08Z"/>
      <path class="cls-1" d="M9.07,24.21c-1.51-.04-4.25.14-5.94.43l5.87.39c.2.01.7-.26.59-.33-.07-.05-.43-.49-.52-.49Z"/>
      <path class="cls-1" d="M6.22,31.51l8.01.09c.58-.92-4.41-.52-4.47-.51l-3.53.42Z"/>
      <path class="cls-1" d="M16.74,33.82c-.59-.59-1.2-.72-1.83-.71l-3.88.33c1.91.31,3.62.43,5.71.37Z"/>
      <path class="cls-1" d="M26.32,30.77c.04-.06-.09-.96-.1-.88l-2.14.54c.35.8,1.9.83,2.24.33Z"/>
      <circle class="cls-1" cx="29.72" cy="31.45" r="1.49"/>
    </g>
  </g>
</svg>