<?xml version="1.0" encoding="UTF-8"?>
<svg id="Warstwa_2" data-name="Warstwa 2" xmlns="http://www.w3.org/2000/svg" viewBox="0 0 39.07 49.26">
  <defs>
    <style>
      .cls-1 {
        fill: #fff;
      }
    </style>
  </defs>
  <g id="game-icon-v5-divine-pixarts-store">
    <g id="game-icon-v5-divine-pixarts-store_151">
      <path class="cls-1" d="M35.71,19.43H3.41c1.06,4.54,4.21,7.7,8.43,9.3,8.32,3.15,21.68,1.35,23.86-9.3ZM5.95,20.98c.53-.58,2.07-.31,2,.85,1.37,1.97,2.59,3.44,4.05,5.04-2.8-.85-4.89-3.23-6.05-5.89Z"/>
      <path class="cls-1" d="M26.06,43.32c-2.07-3.38-2.84-6.4-2.64-9.61l-7.54.05c.13,3.44-.82,6.61-2.77,9.58l12.95-.02Z"/>
      <rect class="cls-1" x="2.39" y="16.07" width="34.36" height="2.27"/>
      <path class="cls-1" d="M8.39,47.65c-.29.18.06,1.61.52,1.61h21.55c.29-.67.38-1.65.09-1.77-.29-.12-1.08-.32-1.4-.32H9.62c-.51.14-.95.31-1.23.49Z"/>
      <path class="cls-1" d="M22.23,10.18c-.54-1.92-1.49-3.57-2.55-5.16-1.3,1.95-2.5,3.8-2.67,5.78-.17,1.98,1.48,3.32,2.82,3.28,1.73-.05,3.01-1.75,2.4-3.9Z"/>
      <path class="cls-1" d="M10.4,46.1l18.33.02c-.39-1.26-1.41-1.73-2.59-1.77h-13.12c-1.14.01-2.22.58-2.61,1.75Z"/>
      <path class="cls-1" d="M25.67,31.52c.14-.19-.34-.87-.62-.82-3.13.54-8.03.52-11.32-.01-2.2,2.54,10.23,3.15,11.94.84Z"/>
      <path class="cls-1" d="M34.23,7.88c-3.15,1.67-5.7,3.48-8.32,5.84,3.54-.58,5.91-3.51,8.32-5.84Z"/>
      <path class="cls-1" d="M24.74,11.42l5.33-9.28c-.8.3-7.33,8.87-5.33,9.28Z"/>
      <path class="cls-1" d="M12.8,13.77v-.41c.02-.43-6.96-5.38-7.96-5.57.18.97,7.93,6.95,7.96,5.98Z"/>
      <path class="cls-1" d="M10.05,3.51c1.24,2.98,2.82,5.53,4.62,8.35,1.54-.77-3.59-7.61-4.62-8.35Z"/>
      <path class="cls-1" d="M16.03,6.76c.79-1.72-.61-5.02-1.56-6.72-.4.81,1.37,7.14,1.56,6.72Z"/>
      <path class="cls-1" d="M32.08,14.12c2.27.44,4.71.04,6.99-1.82-2.19.43-4.46,1.01-6.99,1.82Z"/>
      <path class="cls-1" d="M23.03,6.71c.94-2.22,1.39-4.29,1.7-6.71-1.01,2.06-2.19,4.1-1.7,6.71Z"/>
      <path class="cls-1" d="M7.43,14.14l-7.43-2c2.19,1.62,4.67,2.46,7.43,2Z"/>
    </g>
  </g>
</svg>