<?xml version="1.0" encoding="UTF-8"?>
<svg id="Warstwa_2" data-name="Warstwa 2" xmlns="http://www.w3.org/2000/svg" viewBox="0 0 43.75 48.53">
  <defs>
    <style>
      .cls-1 {
        fill: #fff;
      }
    </style>
  </defs>
  <g id="game-icon-v5-divine-pixarts-store">
    <g id="game-icon-v5-divine-pixarts-store_58">
      <path class="cls-1" d="M5.25,44.84c5.77,5.03,14.17,4.86,19.72-.19,5.48-4.98,6.28-12.93,2.25-19.36l7.77-10.48c.64-.42,2.47-.48,2.79-1.1.35-.68.59-1.75.42-2.6-3.83-.67-6.68-3.41-8.79-6.61-.86-.07-2,.66-2.29,1.34-.27.63-.15,1.75,0,2.59l-8.18,10.98c-7.27-1.99-14.09,1.19-17.3,7.35C-1.52,32.86,0,40.26,5.25,44.84ZM37.2,12.39c-3.83.14-7.63-3-8.71-6.52,2.94,2.6,5.48,4.61,8.71,6.52ZM5.52,24.08c3.67-3.57,8.6-4.7,13.78-3l6.04-7.73c1-1.28,1.94-2.73,2.79-4.12,1.82,1.76,4.15,3.53,6.25,4.88-.77.48-1.58,1.09-2,1.69l-6.88,9.69c5.08,7.09,2.86,16.09-4.36,19.98-7.14,3.84-16.12.27-18.83-7.58-1.71-4.97-.44-10.27,3.2-13.81Z"/>
      <path class="cls-1" d="M12.1,17.27l6.25.12,3.83-5.29-1.38-9.97-2.07,11.99L12.69,3.76l2.42,11.93-8.95-6.98c1.87,3.12,3.9,5.91,5.94,8.56Z"/>
      <path class="cls-1" d="M32.88,20.62c-1.18,1.23-2.74,3.41-3.5,4.82l2.24,6.37,9.84,2.25-9.42-5.87,11.71-1.99-11.66-1.84c3.37-2.59,6.38-4.04,9.7-6.04l-8.9,2.31Z"/>
      <path class="cls-1" d="M31.18,5.3c1.64,2.24,3.52,3.83,6.18,4.46l3.27-3.1c-3.35-1.37-5.54-2.97-7.49-5.86-.7,1.31-1.43,2.94-1.96,4.5Z"/>
      <path class="cls-1" d="M41.01,5.66c-1.14-3.14-3.97-5.19-7.19-5.66,1.43,2.71,4,4.99,7.19,5.66Z"/>
      <polygon class="cls-1" points="31.66 33.81 31.34 36.65 37.31 40.82 31.66 33.81"/>
      <path class="cls-1" d="M6.76,18.75c.78-.21,1.57-.5,2.51-.95l-7.46-2.64,4.95,3.59Z"/>
      <path class="cls-1" d="M20.11,44.25c5.07-2.61,7.8-8.25,6.09-13.72-3.87,2.64-8.82,1.82-12.12-1.4-1.25-1.21-2.75-2.24-4.15-3.12-2.26-.86-4.25-.24-5.38,1.89-2.44,4.6-1.64,10.31,1.98,13.95,3.5,3.53,9,4.77,13.59,2.4ZM22.46,34.55c.74,0,1.33.6,1.33,1.33s-.6,1.33-1.33,1.33-1.33-.6-1.33-1.33.6-1.33,1.33-1.33ZM18.72,39.01c.66,0,1.19.53,1.19,1.19s-.53,1.19-1.19,1.19-1.19-.53-1.19-1.19.53-1.19,1.19-1.19ZM9.74,34.63l.11-2.86c.54-.07,1.9-.12,2.68-.12l.13,2.98,3.07.18v2.6s-3.11.2-3.11.2l-.18,3.05-2.5.12-.2-3.19-3.06-.13-.06-2.66,3.1-.16Z"/>
      <path class="cls-1" d="M25.66,29.27c-1.53-2.02-7.9-1.07-9.64.09,3.57,3.09,10.53,1.07,9.64-.09Z"/>
      <path class="cls-1" d="M30.7,16.18l1.91-1.88c-1.83-1.4-3.14-2.42-4.6-3.92l-1.14,2.36c.81,1.24,2.26,2.42,3.84,3.43Z"/>
      <path class="cls-1" d="M16.53,23.53c.3.01,1.13-.67.94-.83-2.26-1.96-7.99-.09-9.67,2.02,2.99-.81,5.85-1.32,8.73-1.19Z"/>
      <path class="cls-1" d="M25.91,14.49l-.41.58-5.18,7.49c2.4.8,9.45-13.6,5.59-8.08Z"/>
    </g>
  </g>
</svg>