<?xml version="1.0" encoding="UTF-8"?>
<svg id="Warstwa_2" data-name="Warstwa 2" xmlns="http://www.w3.org/2000/svg" viewBox="0 0 47.79 47.29">
  <defs>
    <style>
      .cls-1 {
        fill: #fff;
      }
    </style>
  </defs>
  <g id="game-icon-v5-divine-pixarts-store">
    <g id="game-icon-v5-divine-pixarts-store_57">
      <path class="cls-1" d="M17.48,28.36c-.41.22-1.22.74-1.02,1.01l.72,1.02c-.34.36-.9.93-.87,1.28.17.77.26,1.75.12,2.65l.84.15c.15.03-.07,1.36-.14,1.93.09-.75,6.31,2.33,3.96,10.48,2.43-2.13,2.74-8.68-.42-11.18-1.96-1.55-1.93-4.25-.3-6.04,3.55-3.9.33-8.65-3.08-11.27l-3.44-2.64c.68,4.6,4.42,6.03,5.08,8.91-1.24-1.39-2.29-2.45-3.91-3.32.66,2.06,1.94,3.34,3.17,4.95l-1.98-.72,1.26,2.81Z"/>
      <path class="cls-1" d="M27.84,29.87c1.53,1.77,1.43,4.3-.44,5.79-3.43,2.73-2.66,8.8-.35,11.63-1.23-3.64-.86-10.1,3.47-10.53-.32-1.17.57-2.04.71-2.68l.55-2.62-.82-1.01c-.23-.28.86-1.65.36-1.76l-.88-.2c.66-1.19,1.18-2.29,1.54-3.29-.77.54-1.38.89-1.76.85,1.25-1.94,2.33-2.8,2.72-4.88l-3.74,3.14c1.09-2.95,4.29-3.88,4.74-8.44-4.14,3.17-10.93,8.37-6.09,14Z"/>
      <path class="cls-1" d="M14.31,19.4l-1.21-4.17C8.69,11.09,5.74,6.08,5.08.04c-3.22,4.5.73,13.28,4.7,15.93l-.43-2.36c1.43,2.14,2.78,4.2,4.96,5.8Z"/>
      <path class="cls-1" d="M43.02,0c-.9,6.14-3.75,11.39-8.26,15.52l-.94,3.92c2.32-1.75,3.48-3.76,5-5.9l-.42,2.23c4.2-2.71,7.46-10.94,4.63-15.78Z"/>
      <path class="cls-1" d="M33.86,11.84c-.19-.72-1.52-1.38-2.28-1.53-5.4-1.09-10.89-1.22-16.16.35-.48.14-1.26.85-1.23,1.26.03.42.79,1.2,1.23,1.32,5.34,1.45,10.76,1.47,16.36.28.8-.17,2.24-1.08,2.08-1.68ZM30.98,12.48c-4.37,1.09-9.57.96-13.69.03-.24-.05-.88-.49-.76-.61,2.47-2.37,17.51-1.41,14.45.58Z"/>
      <path class="cls-1" d="M8.38,15.99c-3.26-3.55-5.39-6.52-6.9-10.99-1.83,5.49,3.21,13.16,8.17,15.33l-1.2-2.24,1.25.5c-.23-1.05-.6-1.83-1.32-2.61Z"/>
      <path class="cls-1" d="M46.51,5.3c-1.6,4.22-3.7,7.67-6.85,10.65-.74.7-1.13,1.78-1.17,2.66l1.49-.89-1.49,2.54c5.08-2.16,9.62-9.66,8.02-14.96Z"/>
      <path class="cls-1" d="M39.12,21.06c-.17.12-.48.82-.55.99-.05.11.35.15.47.11l.62-.21-1.3,1.73c3.44-.59,10.01-6.45,9.4-10.32-2.42,2.86-5.82,5.68-8.63,7.69Z"/>
      <path class="cls-1" d="M10.18,24.02c-.8-.91-1.51-1.58-2.27-2.25l1.67.36c-.42-.81-.89-1.38-1.61-1.85-3.06-1.98-5.39-4.47-7.96-7.26.3,4.75,5.98,9.91,10.18,11Z"/>
      <path class="cls-1" d="M10.05,24.79c-1.64-.96-2.39-1.29-3.72-1.87-1.98-.87-3.75-2.26-5.62-3.35,1.69,4.47,5.92,6.89,10.14,7.51-.61-1.41-1.72-1.84-2.76-2.13.7.08,1.13.12,1.96-.15Z"/>
      <path class="cls-1" d="M38.14,24.82l2.16.09c-1.33.58-2.5,1.12-3.42,2.24,4.52-.48,8.66-3.12,10.34-7.38-3.11,2.11-5.95,3.4-9.09,5.05Z"/>
      <path class="cls-1" d="M45.61,25.13l-8.51,3.09,1.24.38-1.84,1.24c3.83.26,7.34-1.64,9.11-4.71Z"/>
      <path class="cls-1" d="M11.3,29.91l-1.72-1.23,1.14.12c.12.01.26-.3.19-.4-.07-.1-.45-.41-.66-.48l-7.73-2.74c1.49,3.11,5.29,4.7,8.77,4.73Z"/>
      <path class="cls-1" d="M10.21,16.86c-.11,3.17,2.02,5.06,4.52,6.2l-.65-2.81-3.87-3.39Z"/>
      <path class="cls-1" d="M15.46,26.14l-.44-.92c-.06-.12.43-.84.24-.98-1.3-.92-3.72-2.5-5.31-3.4.36,3,3.25,4.42,5.51,5.29Z"/>
      <path class="cls-1" d="M33.26,22.99c1.33-.24,5.61-3.83,4.52-6.04l-4.39,4.08c.36.58.53.68.42.89l-.55,1.07Z"/>
      <path class="cls-1" d="M32.39,25.94c2.95-.9,5.13-2.22,5.82-5.17l-5.05,3.05c-.42.91-.68,1.59-.77,2.12Z"/>
      <path class="cls-1" d="M42.81,29.95l-6.37.76c.15.88.25,1.08.09,1.21l-.73.58c2.76.16,5.33-.4,7.01-2.55Z"/>
      <path class="cls-1" d="M12.36,32.35l-1.45-.81c.45-.32.83-.51.71-.58-.12-.07-.62-.41-.79-.43l-5.58-.52c1.87,1.97,4.55,2.94,7.11,2.33Z"/>
      <path class="cls-1" d="M15.85,28.47c.33-.06.33-1.27,0-1.46-1.3-.72-3.63-1.69-5.38-2.06.09,1.86,4.13,3.73,5.38,3.51Z"/>
      <path class="cls-1" d="M37.55,24.41l-4.64,2.24c-.32.16-.76.79-.81,1.09-.22,1.44,6.17-1.15,5.45-3.33Z"/>
      <path class="cls-1" d="M7.73,33.86c1.69,1.46,3.99,1.5,5.57.19-.53-1.73-4.58-.43-5.57-.19Z"/>
      <path class="cls-1" d="M34.58,34.43c2.25.59,4.07.9,5.76-.63l-4.75-.78-1.01,1.4Z"/>
      <path class="cls-1" d="M36.71,28.04l-3.82.74c-.38.07-.79,1.13-.89,1.58,1.97.06,3.92-.16,4.72-2.32Z"/>
      <path class="cls-1" d="M35.36,39.04c-1.05-1.31-2.65-2.48-4.36-1.91.76,1.91,2.52,2.4,4.36,1.91Z"/>
      <path class="cls-1" d="M15.33,29.05l-3.72-.88c-.51,1.8,4.48,3.01,4.25,2.03-.04-.19-.34-1.1-.53-1.14Z"/>
      <path class="cls-1" d="M33.57,35.65c.09.21.31.97.5,1.08.82.48,2.86.6,3.72-.38l-2.97-1.07c-.28-.1-1.37.11-1.26.37Z"/>
      <path class="cls-1" d="M14.42,35.3l-4.05.89c.94,1.38,2.86.94,3.85.33.17-.11.31-1.13.19-1.22Z"/>
      <path class="cls-1" d="M12.93,38.93c1.37.67,3.34-.04,3.78-1.55-1.22-.78-2.88.23-3.78,1.55Z"/>
      <path class="cls-1" d="M18.31,38.38c-.13.07-.53.5-.59.36l-.42-.98-2.05,2.86c1.74.31,2.94-.88,3.06-2.25Z"/>
      <path class="cls-1" d="M30.31,39.93c.69.47,1.37.67,2.39.79-.77-1.47-1.46-2.37-2.59-2.96-.38.78-.27,1.86.2,2.18Z"/>
      <path class="cls-1" d="M35.85,30.78l-3.32.29.49,1.43c1.67.09,2.72-.23,2.82-1.72Z"/>
      <path class="cls-1" d="M13.87,32.52c.83.06,1.28-.3,1.7-1.31l-3.42-.29c.48,1.06,1.04,1.54,1.71,1.59Z"/>
    </g>
  </g>
</svg>