<?xml version="1.0" encoding="UTF-8"?>
<svg id="Warstwa_2" data-name="Warstwa 2" xmlns="http://www.w3.org/2000/svg" viewBox="0 0 44.05 46.78">
  <defs>
    <style>
      .cls-1 {
        fill: #fff;
      }
    </style>
  </defs>
  <g id="game-icon-v5-divine-pixarts-store">
    <g id="game-icon-v5-divine-pixarts-store_96">
      <path class="cls-1" d="M28.58,46.62v-29.3s-5.34-8.07-5.34-8.07c-.72-1.1-.95-2.56-.53-3.65.58-.02.9.05.9-.13,0-.23-.03-.66-.19-.71-.11-.04-.47-.1-.73-.15l-.52-1.28-1.85,1.9c.44.25,1.08.46,1.21.84.12.37.14,1.77-.17,2.26l-5.79,9.04-.03,28.79c0,.79,2.33.77,2.34.16l.09-5.96c.03-2.13,1.76-5.86,4.1-5.74,2.99.52,4.02,4.35,4.02,6.76v5.34s2.49-.1,2.49-.1ZM22.02,30.23c-3.04,0-5.51-2.47-5.51-5.51s2.47-5.51,5.51-5.51,5.51,2.47,5.51,5.51-2.47,5.51-5.51,5.51Z"/>
      <path class="cls-1" d="M32.06,46.24l.14-22.56c.02-3.29-.37-6.24-1.87-9.39-.55,1.84-.94,3.65-.94,5.66l.05,26.32c0,.66,2.49.69,2.63-.03Z"/>
      <path class="cls-1" d="M14.6,46.22l.02-25.89c0-2.22-.06-4.15-.96-6.29-.67,1.96-1.15,3.8-1.58,5.9l.05,26.43c.7.55,1.94.62,2.47-.14Z"/>
      <path class="cls-1" d="M11.19,29.46l-9.06.03-.58,2.74-.93-3.78c-.19,1.21-.6,2.62-.6,3.68l-.03,14.59,11.17-.04v-17.23ZM4.2,41.71v-6.73c0-.35.59-1.01.84-1.19.25-.18.95.82.96,1.15l.09,6.41c0,.5-1.55.66-1.89.36ZM8.81,41.55c0,.47-1.88.41-1.87-.07l.08-6.54c0-.26.54-.96.67-1.17.16-.26,1,.68,1.02,1.05.1,1.79.13,4.55.11,6.74Z"/>
      <path class="cls-1" d="M11.19,28.6l-.04-11.03-9.2.03.04,11.03,9.2-.03ZM7.03,21.2c0-.26.57-.96.73-1.15.2-.23.95.58.98.9.13,1.83.14,4.37.03,6.34-.03.47-1.83.19-1.82-.27l.09-5.82ZM5.03,20.03c1.1-1.31,2.27,9.78-.8,7.18.11-2.67-.68-5.41.8-7.18Z"/>
      <path class="cls-1" d="M3.59,15.58l-1.03-2.57-.59,3.66h9.22s-.64-3.77-.64-3.77l-1.09,2.71L6.85,3.55c-.13-.62.27-1.53.65-1.88l-.94-1.66-1.14,1.62c.41.22.89,1.04.78,1.57l-2.62,12.39Z"/>
      <path class="cls-1" d="M42.62,31.88l-.62-2.41-9.01.06.03,17.22h11.03s0-14.87,0-14.87c0-.95-.43-2.4-.66-3.38-.18,1.16-.39,2.21-.77,3.38ZM35.35,41.82c.22-2.24-.66-7.08.91-8.16.21-.14.84.83.85,1.13l.19,6.93-1.95.1ZM38.14,41.5l.02-6.51c0-.31.55-1,.68-1.22.17-.27,1.08.64,1.09,1.01l.09,6.78c0,.49-1.88.43-1.88-.06Z"/>
      <path class="cls-1" d="M33.07,28.61l9.16-.07-.05-10.94-9.14.03.03,10.97ZM38.19,21.22c0-.26.61-.96.76-1.15.18-.24.96.65.97,1.01l.09,6.21c-.32.15-1.4.16-1.84,0l.03-6.08ZM35.4,21.25c0-.34.6-1,.84-1.17.24-.17.92.77.92,1.11l.06,6.05c0,.43-1.81.44-1.83.01l.02-6Z"/>
      <path class="cls-1" d="M41.55,12.8l-.96,2.78-2.6-12.33c-.12-.56.53-1.42.84-1.65l-1.28-1.39-1.18,1.45c.35.13,1.08.98.98,1.5l-2.63,12.56-1.09-2.86c-.28,1.3-.4,2.3-.49,3.81h9.17s-.75-3.87-.75-3.87Z"/>
      <polygon class="cls-1" points="22.7 23.67 24.6 20.92 22.53 20.26 22.7 23.67"/>
      <polygon class="cls-1" points="22.67 29.36 24.42 28.63 22.52 25.92 22.67 29.36"/>
      <polygon class="cls-1" points="21.48 23.62 21.57 20.2 19.61 20.92 21.48 23.62"/>
    </g>
  </g>
</svg>