<?xml version="1.0" encoding="UTF-8"?>
<svg id="Warstwa_2" data-name="Warstwa 2" xmlns="http://www.w3.org/2000/svg" viewBox="0 0 44.22 45.21">
  <defs>
    <style>
      .cls-1 {
        fill: #fff;
      }
    </style>
  </defs>
  <g id="game-icon-v5-divine-pixarts-store">
    <g id="game-icon-v5-divine-pixarts-store_189">
      <path class="cls-1" d="M28.58,36.79c.39.1,1.43.09,1.83-.03l.03-21.87-8.41-10.19-8.33,10.21.06,22.04,1.93-.12.17-14.35c.05-3.99,3.09-7.36,6.29-9.72,9.13,7.38,5.72,13.83,6.43,24.02Z"/>
      <path class="cls-1" d="M22.05,14.2c-7.64,6.64-4.7,13.15-5.26,22.65.71.07,1.72.08,2.27.02l.02-9.26c0-2.09,1.09-3.9,3.1-4.84,2,1.29,2.83,3.11,2.84,5.26l.05,8.71c.43.34,2.09.31,2.32-.26-.54-9.63,2.41-15.48-5.33-22.28Z"/>
      <path class="cls-1" d="M31.73,36.89c1.49.15,2.94.15,4.38-.06v-18.78c-1.4-.99-2.67-1.77-4.34-2.6l-.04,21.44Z"/>
      <path class="cls-1" d="M8.01,36.97c1.85.04,3.09.02,4.42-.14l.04-21.45-4.51,2.75.05,18.84Z"/>
      <rect class="cls-1" x="0" y="43.28" width="44.22" height="1.93"/>
      <rect class="cls-1" x="1.7" y="40.82" width="40.79" height="1.66"/>
      <rect class="cls-1" x="3.29" y="38.19" width="37.63" height="1.53"/>
      <path class="cls-1" d="M11.64,12.86l-.11,1.19c-.02.22,1.25-.02,1.48-.3L22.04,2.86l8.7,10.49c.54.65,1.18,1.01,2.41.35L22.08,0l-10.43,12.86Z"/>
      <path class="cls-1" d="M39.45,36.77v-16.33c-.63-.52-1.3-.96-2.09-1.38v17.68c.39.45,1.69.4,2.09.03Z"/>
      <path class="cls-1" d="M4.74,21.58v15.29s2.01-.07,2.01-.07l-.02-17.4c-1.08.07-1.99,1.01-1.99,2.18Z"/>
      <polygon class="cls-1" points="33.94 12.96 33.92 15.1 40.84 19.64 42.1 17.9 33.94 12.96"/>
      <polygon class="cls-1" points="2.05 17.93 3.47 19.63 10.27 15 10.2 12.94 2.05 17.93"/>
    </g>
  </g>
</svg>