<?xml version="1.0" encoding="UTF-8"?>
<svg id="Warstwa_2" data-name="Warstwa 2" xmlns="http://www.w3.org/2000/svg" viewBox="0 0 54.06 50.16">
  <defs>
    <style>
      .cls-1 {
        fill: #fff;
      }
    </style>
  </defs>
  <g id="game-icon-v5-divine-pixarts-store">
    <g id="game-icon-v5-divine-pixarts-store_156">
      <path class="cls-1" d="M41.57,8.77c-2.52,5.19-9.05,6.09-9.76,9.43-.44,2.04-1.16,3.33-3.54,3.61-.84-3.68,2.94-4.74.39-7.1-.92-.86-2.67-.76-3.5.18-2.05,2.28,1.22,3.1.54,6.88-2.52-.27-3.8-1.94-3.76-4.49-3.6-3.57-6.7-3.75-9.71-8.63-1.65,10.2,7.21,6.58,9.03,13.76l3.44,3.48c.39,8.29.94,16.17,2.16,24.26,1.49-8.32,1.92-16.13,2.46-24.32l3.44-3.41c1.05-6.91,11.02-3.62,8.81-13.66Z"/>
      <path class="cls-1" d="M12.42,24.1c-2.38,1.08-4.82,1.59-7.66,2.16,3.19,2.52,6.69,1.2,10.71.86l-4.96,2.49c4.15,2.52,7.19-2.03,9.68-.29l-2.57,11.59,4.04-6.99,1.76,6.61c.37-4.8.5-9.57-.45-14.18-1.93-1.03-3.84-2.42-4.36-4.71-.74-1.42-2.01-2.22-3.6-1.82-5.01,1.26-9.91,1.75-15.01,1.93,3.56,3.54,7.81,2.6,12.42,2.36Z"/>
      <path class="cls-1" d="M31.12,26.32c-1.02,3.5-.79,7.45-.83,11.09l-.04,3.61,1.92-6.9,3.92,6.42-2.22-11.13c-.45-2.26,6.78,2.73,9.61.18-1.64-.69-3.18-1.34-4.74-2.43,3.78.36,7.35,1.44,10.56-.87-3.08-.55-5.47-1.11-8.03-2.22l4.83.32c2.96.19,5.73-.61,7.97-2.57-5.34-.26-10.07-.86-15.09-2-4.22-.96-2.82,4.05-7.85,6.51Z"/>
      <path class="cls-1" d="M26.89,0l-1.85,9.36-2.95-5.18.62,9.5c3.27-1.89,5.42-1.91,8.46.08l.63-9.86-2.83,5.41L26.89,0Z"/>
    </g>
  </g>
</svg>