<?xml version="1.0" encoding="UTF-8"?>
<svg id="Warstwa_2" data-name="Warstwa 2" xmlns="http://www.w3.org/2000/svg" viewBox="0 0 42.59 42.1">
  <defs>
    <style>
      .cls-1 {
        fill: #fff;
      }
    </style>
  </defs>
  <g id="game-icon-v5-divine-pixarts-store">
    <g id="game-icon-v5-divine-pixarts-store_127">
      <path class="cls-1" d="M22.14,35.63c-4.35,2.78-9.35,1.94-14.51.39,7.03,5.08,17.6,3.71,22.79-4.57-1.62,6.05-7.59,9.73-13.77,9.66l-3.79-.04c5.07,1.68,10.66,1.4,15.43-1.62,6.75-4.28,9.08-12.02,7.51-19.46,3.18,4.64,2.21,9.86.68,15.04,5.18-7.83,3.37-18.35-4.98-22.82,7.52,1.29,11.08,10.27,10,17.42,2.38-6.48.77-13.82-4.33-18.64-4.41-4.18-10.12-5.18-16.08-4.63,4.76-2.78,9.77-1.59,14.69.02-7.31-5.49-17.83-3.89-23.29,3.75,1-3.94,4.28-6.53,7.88-8.06,2.93-1.24,6.01-1.09,9.29-1.16-4.16-1.28-8.82-1.28-12.97.54-7.84,3.45-11.52,11.72-9.89,20.3-3.1-4.43-2.15-9.88-.45-14.65C.74,14.83,3.16,25.18,11.02,29.92c-4.49-.96-7.63-4.78-9.16-9.03-.97-2.7-.78-5.49-.89-8.46-1.2,3.85-1.42,7.95.09,11.89,3.27,8.53,11.91,12.97,21.08,11.33ZM10.15,26.31c-.95,0-2.25-1.01-2.26-1.99l-.04-6.19c0-1.33,1.03-2.31,2.33-2.31l5.76-.03v-5.67c0-1.11.87-2.4,2.1-2.4h6.02c1.63,0,2.53,1.3,2.52,2.79v5.22s5.75.1,5.75.1c1.17.02,2.42.94,2.41,2.23l-.04,6.3c0,.77-1.2,1.89-1.95,1.9l-6.14.06v5.62c.01,1.05-.86,2.46-2.18,2.46h-6.2c-1.08,0-2.21-1.06-2.22-2.12l-.08-5.96h-5.78Z"/>
      <polygon class="cls-1" points="17.71 32.75 24.9 32.64 24.96 24.72 32.98 24.62 33.02 17.5 24.97 17.4 24.84 9.44 17.66 9.51 17.58 17.38 9.54 17.5 9.56 24.57 17.6 24.75 17.71 32.75"/>
    </g>
  </g>
</svg>