<?xml version="1.0" encoding="UTF-8"?>
<svg id="Warstwa_2" data-name="Warstwa 2" xmlns="http://www.w3.org/2000/svg" viewBox="0 0 51.73 52.9">
  <defs>
    <style>
      .cls-1 {
        fill: #fff;
      }
    </style>
  </defs>
  <g id="game-icon-v5-divine-pixarts-store">
    <g id="game-icon-v5-divine-pixarts-store_182">
      <path class="cls-1" d="M39.84,22.59l4.94,1.24c1.17.29,3.61,1.56,3.05,2.42l-.64.98c-4.78,2.28-11.48,2.77-16.84,3.2.02-7.47-.25-14.64-1.49-21.89C28.52,6.59,27.07-.13,24.75,0c-2.62.15-4.19,9.69-3.82,11.97.45-2.49.99-4.89,1.97-7.27.49-.43,1.05-.92,1.46-.92,1.67-.03,2.72,5.44,2.94,6.9,1.47,9.67,1.64,19.38.43,29.09-.19,1.55-1.65,12.42-4.7,8.59-1.01-2.39-1.59-4.73-2.1-7.21-.32,2.36,1.2,11.42,3.81,11.74,2.16.26,3.56-5.26,3.96-7.09.97-4.49,1.23-9.01,1.61-13.71,5.01-.29,9.51-.84,14.14-1.63,2.31-.62,4.36-1.35,6.47-2.4,4.24-3.76-9.18-5.78-11.06-5.47Z"/>
      <path class="cls-1" d="M37.57,17.97c-.2.08-.86-.32-.73-.51.11-.16.36-.47.54-.68l9.56-10.84-10.15,8.75,1.89-3.2-3.47,3.76c-.13.14-.45.22-.62.17-.17-.05-.36-.71-.25-.93l3.32-6.8-4.83,6.34-2.03-.79.84,15.97,3.66-.38c1.04-3.22.75-6.63-1.05-9.69l-1.88-3.19c4.39,2.74,6.03,7.43,5.25,12.45l1.87-.39c.32-2.36.07-4.51-.64-6.77-.09-.28-.3-.87-.12-1.02l.9-.79-1.57.2,7.24-6.89-7.71,5.22Z"/>
      <path class="cls-1" d="M26.66,15.33c-.01-.76-.14-1.75-.37-2.44-3.05-.45-5.78.45-8.33,1.82-1.05-1.23-2.01-2.33-3.27-3.5l2.46,3.99-.9.86L4.44,5.61l9.94,11.15c4.6,5.16-7.6-5.27-6.98-4.14l6.37,6.42c-1.6,2.91-2.26,5.93-1.47,9.06l1.9.45c-1.03-3.94-.33-7.64,2.34-10.6,2.64-2.93,6.38-3.81,10.14-2.63Z"/>
      <path class="cls-1" d="M27.36,32.2c.04-.65.04-1.27-.02-1.63-6.19-.02-12.03-.41-17.97-1.69-1.28-.28-5.73-1.41-5.52-2.87.29-2.06,5.68-2.72,7.14-3.21C8.74,22.39.09,24.14,0,26.56c-.07,2.03,6.01,3.57,7.79,3.91,6.49,1.25,12.94,1.74,19.57,1.73Z"/>
      <path class="cls-1" d="M35.45,33.94c-1.27,1.73-2.79,3.3-4.21,4.82l1.37-.29,5.03,6.75-4.02-7.5,1.4-1.06,11.97,10.41-10.78-12.07c2.75.51,4.13,2.53,6.59,3.32l-5.46-4.93.41-.56c-1.44-.48-1.7.26-2.32,1.11Z"/>
      <path class="cls-1" d="M26.65,38.48c.25-.85.36-1.68.29-2.4-3.35,1.41-6.28.97-9.02-.79-1.14-.73-1.97-1.85-3.46-2.38,2.7,4.07,7.39,6.25,12.2,5.57Z"/>
      <path class="cls-1" d="M15.79,37.37c-.46-.56-.88-.95-1.25-1.16l-9.5,10.66,10.76-9.49Z"/>
      <path class="cls-1" d="M13.18,34.56l-7.61,7.17,8.41-5.94c.28-.23-.56-1.39-.81-1.23Z"/>
      <path class="cls-1" d="M31.09,36.43c1.61-1.14,2.18-1.98,2.93-3.48l-2.67.25-.26,3.23Z"/>
      <path class="cls-1" d="M16.87,38.32c-1.19,1.7-2.54,3.69-3.34,5.73l4.32-5.12c-.16-.3-.77-.79-.97-.61Z"/>
      <path class="cls-1" d="M8.73,33.51c.68-.26.58-.33-.15-.53l-6.18-1.13c1.93.99,4.03,1.73,6.33,1.65Z"/>
      <path class="cls-1" d="M32.01,41.94c-.49,2.29-.79,4.31-.89,6.24,1.09-2.23,1.77-4.27.89-6.24Z"/>
      <path class="cls-1" d="M42.36,20.36l6.65.93c-2.06-1.01-4.4-1.97-6.65-.93Z"/>
      <path class="cls-1" d="M30.84,3.78c.29,2.42.6,4.33,1.12,6.58.89-2.47-.28-4.57-1.12-6.58Z"/>
      <path class="cls-1" d="M48.64,32.14c-2.39.26-4.37.58-6.37,1.08,2.4.76,4.56-.18,6.37-1.08Z"/>
      <path class="cls-1" d="M2.49,21.3l6.82-.96c-2.28-.96-4.72,0-6.82.96Z"/>
    </g>
  </g>
</svg>