<?xml version="1.0" encoding="UTF-8"?>
<svg id="Warstwa_2" data-name="Warstwa 2" xmlns="http://www.w3.org/2000/svg" viewBox="0 0 44.11 44.34">
  <defs>
    <style>
      .cls-1 {
        fill: #fff;
      }
    </style>
  </defs>
  <g id="game-icon-v5-divine-pixarts-store">
    <g id="game-icon-v5-divine-pixarts-store_02">
      <path class="cls-1" d="M17.14,28.33c2.12,2.34,5.25,3.39,8.48,2.86,2.64-.43,5.36-2.15,6.86-5.02,2.36-4.53,1.32-10.96-2.84-13.66-1.79-1.16-3.94-1.94-5.89-2.23,4.45,1.94,7.66,6.21,6.76,11.29-.36,2.05-1.53,3.94-3.31,4.66,1.78-2.9,2.33-5.95.75-8.98-1.29-2.47-4.13-4.22-7.44-4.35-4.24-.17-7.79,2.5-9.39,6.06-1.7,3.79-.91,8.12,1.71,11.39l.83,3.44,1.37-1.6c1.64.79,3.26,1.49,5.05,1.76-3.58-1.87-6.49-4.83-6.75-9.13-.15-2.55.71-5.3,3.05-6.66-1.86,3.38-1.9,7.24.75,10.16Z"/>
      <path class="cls-1" d="M35.84,9.58C33.34,5.13,28.65.97,22.79.18,14.57-.93,5.89,3.09,2.23,10.68,8.4,3.77,17.17.6,25.67,4.11c9.1,3.76,13.19,13.14,10.41,22.66,3.01-5.27,2.88-11.64-.24-17.2Z"/>
      <path class="cls-1" d="M14.17,37.59c-6.09-4.64-8.34-12.12-6.49-19.67-3.41,6.12-2.12,13.56,2.11,19.07,5.8,7.55,15.74,9.49,24.04,4.87,3.28-1.82,6.16-4.29,7.76-7.73l-6.25,5.05c-6.79,3.83-15.03,3.36-21.16-1.59Z"/>
      <path class="cls-1" d="M3.52,32.29c-2.17-6.61-.65-13.24,3.64-18.48,5.15-6.31,13.1-8.12,20.83-5.01-5.53-4.05-12.88-3.77-18.78-.25C-.38,14.27-2.99,27.19,3.8,36.09c.38-1.44.08-2.68-.28-3.8Z"/>
      <path class="cls-1" d="M40.17,8.99c-.18-.14-.08-1.5.13-1.59l2.64-1.13c-.95-.31-2.36-.41-2.66-.97-.26-.49-.53-1.63-.73-2.39-1.02,2.08-.26,2.76-3.36,3.36l2.35,1.33c.11,1.49.39,2.51.9,3.61l.73-2.06.99,5.66c1.26,7.22-1.49,14.43-7.44,18.86-4.89,3.64-10.22,4-16.07,2.66,4.83,2.99,10.82,2.7,15.85.17,10.13-5.11,13.61-17.6,7.78-27.22-.67-.12-.88-.1-1.12-.28Z"/>
      <path class="cls-1" d="M5.29,34.39l-1.1,2.75c-.25.62-1.78.88-2.42,1.23.9.39,2.29.56,2.53,1.12l.94,2.27c.57-2.37,1.51-2.93,3.55-3.38-2.14-.56-3.23-1.65-3.51-3.98Z"/>
    </g>
  </g>
</svg>