<?xml version="1.0" encoding="UTF-8"?>
<svg id="Warstwa_2" data-name="Warstwa 2" xmlns="http://www.w3.org/2000/svg" viewBox="0 0 39.06 50.91">
  <defs>
    <style>
      .cls-1 {
        fill: #fff;
      }
    </style>
  </defs>
  <g id="game-icon-v5-divine-pixarts-store">
    <g id="game-icon-v5-divine-pixarts-store_147">
      <path class="cls-1" d="M16.73,24.11c-1.18,1.53-3.01,3.16-2.77,5.48,1.84.82,2.28-4.41,5.5-4.37,2.68.03,3.16,2.9,4.54,4.08,1.17,1.01,2.1,2.05,3.04,3.15,1.07,1.25,3.12,1.6,3.15,3.79.02,1.9-1.83,2.52-2.93,3.86-.88,1.08-1.85,2.09-3.06,3.23-1.48,1.4-2.07,5.7-4.94,5.5-2.27-.4-3.44-3.8-4.21-5.58l-2.79-2.17.81-1.15c-2.46-.11-4.53-1.88-4.14-4.02.4-2.19,2.34-3.27,4.67-3.18l-1.5-1.97c-2.11.6-4.5,2.14-5.05,4.41-1.37,5.66,5.96,6.32,6.59,8.52.78,2.73,2.24,7.04,5.66,7.21,3.54.17,5.82-4.51,5.64-7.75l3.77-1.94c1.99-1.02,3.73-3.21,3.29-5.55-.51-2.67-2.81-4.41-5.29-5.07-3.02-.79-.48-2.38-4.34-6.46.02-.99,0-2.63-.26-3.33-.64,1.16-.85,2.37-1.53,2.54-.63.16-2.18.11-2.62-.31-.44-.42-.51-1.65-.7-2.49-1.41.68-.73,2.46-.54,3.55Z"/>
      <path class="cls-1" d="M36.91,1.24c-2.09,4.39-4.75,8.38-8.22,11.78-4.18,4.1-7.48,3.47-6.26,5.83C30.45,16.02,36.35,7.18,39.06.23l-1.64-.05c-.26,0-.36.74-.51,1.07Z"/>
      <path class="cls-1" d="M7.84,10.48C5.46,7.53,3.54,4.47,2.02,1,1.85.62,1.43-.11,1.12.01L0,.45c2.88,7.21,8.98,15.78,16.29,18.26,2.35-1.99-3.07-1.56-8.46-8.23Z"/>
      <path class="cls-1" d="M19.75,22.17c1.6-.45,1.6-4.15,1.42-5.6-.11-.85-3.14-.94-3.26-.08-.19,1.4-.37,6.3,1.84,5.68Z"/>
      <path class="cls-1" d="M10.16,36.23c-.02,1.33,1.12,2.17,2.43,2.03l5.49-.61c-.15,4.28-3.1,6.87,1.62,10.13,1.2-1.25,2.56-2.84,2.32-4.17l-1.1-5.92,5.2.51c1.43.14,2.65-.43,2.67-1.98.01-.86-1.03-2.01-2.18-1.91l-5.75.49,1.12-5.44c.2-.96-1.43-2.78-2.4-2.74-1.97.07-2.68,2.32-2.37,3.9l.85,4.31-5.51-.52c-1.18-.11-2.38.93-2.39,1.94Z"/>
    </g>
  </g>
</svg>