<?xml version="1.0" encoding="UTF-8"?>
<svg id="Warstwa_2" data-name="Warstwa 2" xmlns="http://www.w3.org/2000/svg" viewBox="0 0 53.05 50.45">
  <defs>
    <style>
      .cls-1 {
        fill: #fff;
      }
    </style>
  </defs>
  <g id="game-icon-v5-divine-pixarts-store">
    <g id="game-icon-v5-divine-pixarts-store_171">
      <path class="cls-1" d="M40.2,13.38c-.59-.11-1.6,1.24-2.23,1.3-2.48.22-5.97.19-8.97.19-.16-3.54-.27-6.93.09-10.42.1-1.01,2.39-2.2.79-3.6-.78-.68-6.55-1.83-7.46.84-.23.68,1.17,1.94,1.31,2.67.6,3.22.37,7.01.26,10.54-2.96.01-6.55,0-8.9-.15-.68-.05-1.65-1.45-2.24-1.36-.59.09-2.04.6-2.13,1.18-.21,1.48-.21,3.96.05,5.2.13.62,1.87,1.41,2.37,1.05l1.79-1.3h9.14s.01,24.93.01,24.93c0,2.92-2.55,3.15-1.54,4.98.22.41,1.28,1.04,1.8,1.03l4.89-.12c.58-.01,1.54-1.05,1.53-1.51-.07-2.09-1.78-1.77-1.79-3.55l-.07-25.67c3.2-.13,6.68-.21,9.12.11.73.1,1.89,1.41,2.48,1.2,2.4-.86,2.14-2.07,1.76-6.15-.06-.61-1.47-1.28-2.06-1.39Z"/>
      <path class="cls-1" d="M18.32,24.9c1.21-.87,2.14-1.78,2.99-3.14-1.89.79-3.23,1.6-4.82,2.62l-14.34,11.39c5.79-3.25,10.85-7.03,16.16-10.87Z"/>
      <path class="cls-1" d="M32.52,21.94l-.93-.06c-.14,0-.1.2-.03.31l.45.72c6.21,4.47,12.13,9.04,18.89,12.87-5.84-5.2-12.01-9.52-18.38-13.85Z"/>
      <path class="cls-1" d="M22.19,24.34c-.59.14-1.35.46-1.56.72-4.35,5.45-8.59,10.51-12.33,16.26l11.01-12.38c1.12-1.51,1.94-2.72,2.89-4.6Z"/>
      <path class="cls-1" d="M35.63,29.21c-1.42-1.82-2.76-3.34-4.51-4.89.22,1.21.66,1.98,1.27,2.92l12.01,13.75c-2.72-4.23-5.73-7.88-8.77-11.78Z"/>
      <path class="cls-1" d="M19.93,12.92C15.41,8.61,11.17,4.79,6.16,1.43c1.39,1.24,12.41,13.32,13.77,11.5Z"/>
      <path class="cls-1" d="M36.18,11.75L46.91,1.38c-4.86,3.25-8.96,6.94-13.45,11.13.74.48,1.86.03,2.72-.76Z"/>
      <path class="cls-1" d="M22.03,28.75c-2.29,4.29-4.41,8.49-5.81,13.14,1.44-2.43,6.9-11.14,5.81-13.14Z"/>
      <path class="cls-1" d="M36.51,41.27c-1.56-4.74-3.5-8.51-5.53-12.57-1.43,1.38,5.01,12.28,5.53,12.57Z"/>
      <path class="cls-1" d="M52.26,6.6l-10.89,4.99c-.14,2.63,10.32-4.18,10.89-4.99Z"/>
      <path class="cls-1" d="M21.92,11.79c-1.76-4.13-4.56-6.89-7.09-9.9,1.73,3.81,4,7.4,7.09,9.9Z"/>
      <path class="cls-1" d="M11.83,11.6c-3.4-1.59-6.21-2.9-9.7-4.09,2.16,1.62,4.19,2.71,6.52,4.06,1.01.59,2.22.7,3.18.03Z"/>
      <path class="cls-1" d="M31.24,11.91c2.65-2.62,4.66-5.49,6.07-8.71-2.7,2.59-4.9,5.25-6.07,8.71Z"/>
      <path class="cls-1" d="M47.02,26.13c-3.19-1.98-6.51-3.53-10.17-3.72,3.41,1.7,6.59,2.81,10.17,3.72Z"/>
      <path class="cls-1" d="M17.04,21.93c-3.77.59-7.2,1.66-9.94,3.84,3.8-.98,6.85-2.27,9.94-3.84Z"/>
      <path class="cls-1" d="M9.49,20.11c-3.46-.81-6.47.13-9.49.68,3.26.19,6.39.53,9.49-.68Z"/>
      <path class="cls-1" d="M49.83,20.26c-1.98-.28-3.96-1.09-6.15-.03,3.22.76,6.27.9,9.37.59l-3.22-.56Z"/>
    </g>
  </g>
</svg>