<?xml version="1.0" encoding="UTF-8"?>
<svg id="Warstwa_2" data-name="Warstwa 2" xmlns="http://www.w3.org/2000/svg" viewBox="0 0 51.65 51.84">
  <defs>
    <style>
      .cls-1 {
        fill: #fff;
      }
    </style>
  </defs>
  <g id="game-icon-v5-divine-pixarts-store">
    <g id="game-icon-v5-divine-pixarts-store_161">
      <path class="cls-1" d="M16.82,25.03c.71,6.4-.58,12.51.7,19.02.65-6.74.31-12.78.23-19.62l1.49-.29c.32-.06.06.96.04,1.36-.07,6.22-.44,12.18.28,18.54,1.35-3.02-.48-18.7,1.15-20.09,2.41-2.05.09,18.38,1.47,20,1.05-6.39.12-12.95.59-19.47.04-.54,1.56-.5,1.56.03l.04,19c.23.41,2.27.39,2.27-.21l.09-18.8c0-.32,1.29-.73,1.36-.45.73,2.67-.46,16.07.62,20,1.45-2.13-.88-21.02,1.53-20.1,1.67.64-.22,17.24,1.09,20.05,1.48-2.49-.99-20.72,1.54-19.98,1.42.41.03,17.03.89,20.04,1.12-3.68.59-7.18.46-10.8l-.12-3.6c-.08-2.47-.02-4.64.38-7.33l-2.7-.52v-7.09c-.01-.27-.69-.93-.87-1.01l.06,7.38c0,.37-.73,1.09-1.07,1.01-1.54-.38-.08-8.38-1.06-10.07-1.56,2.2.55,8.74-1.07,10.14-.21.18-1.05-.39-1.06-.73l-.06-9.39c-.04-.56-2.24-.57-2.26-.03l-.02,9.05c0,.42-.61,1.15-.99,1.09-1.6-.26.04-8.8-1.15-10.06-1.33.58.74,11.58-1.51,10.04-.23-.16-.58-.68-.59-1.05l-.2-7.46c-1.68,1.57.05,8.5-.98,8.38l-1.29-.14.12-5.24c-1.2-.23-1.01,7.79-.94,8.4Z"/>
      <path class="cls-1" d="M12.59,43.95l2.6-.2.06-23.57c.01-5.85,5.68-10.18,10.93-9.76,5.94.48,9.74,5.27,9.73,11.08l-.04,22.31,2.6-.08-.05-23.06c-.01-7.35-5.87-12.81-12.96-12.82-6.51,0-12.79,5.31-12.81,12.34l-.06,23.74Z"/>
      <rect class="cls-1" x="6.38" y="50.02" width="38.29" height="1.82"/>
      <rect class="cls-1" x="8.37" y="47.46" width="34.38" height="1.58"/>
      <rect class="cls-1" x="24.71" y="30.58" width="1.57" height="30.21" transform="translate(-20.22 71.12) rotate(-89.93)"/>
      <path class="cls-1" d="M38.73,14.49c3.49-3.2,6.56-5.84,9.52-9.07-3.26,2.29-6.89,5.43-9.81,7.85-.27.23.05,1.45.29,1.23Z"/>
      <path class="cls-1" d="M13.03,14.37c-2.99-3.97-6.81-6.21-10.36-8.97,3.19,3.39,6.44,6.78,10.36,8.97Z"/>
      <path class="cls-1" d="M39.26,18.86c4.19-1.6,7.49-3.96,11.81-6.24.44.2-.37-.16-.7-.32-3.44,2.49-7.95,3.01-11.1,6.55Z"/>
      <path class="cls-1" d="M0,12.47c3.81,2.35,7.45,4.91,11.55,6.25-3.48-3.3-7.58-4.58-11.55-6.25Z"/>
      <path class="cls-1" d="M39.57,23.47c4.34-.36,8.31-1.5,12.08-2.64-4.34.59-8.35.46-12.08,2.64Z"/>
      <path class="cls-1" d="M11.04,22.81l-.92-.2c-3.14-.69-6.15-1.52-9.17-1.37,2.74.84,7.09,1.94,9.73,2.5.25.05.56-.88.36-.93Z"/>
      <path class="cls-1" d="M10.82,28.28c.27-.02.19-1.12-.08-1.08-3.12.45-7.48,1.07-10.63,2.02l10.71-.94Z"/>
      <path class="cls-1" d="M39.51,27.63c3.82,1.35,7.49,1.3,11.7,1.6-3.71-.76-7.45-2.19-11.7-1.6Z"/>
      <path class="cls-1" d="M49.5,43.22c-3.11-2.81-6.12-5.29-9.78-6.82,3,3.05,6.4,4.92,9.78,6.82Z"/>
      <path class="cls-1" d="M11.08,36.28c-1.28.52-7.3,4.74-8.37,6.09-.97,1.36,12.44-7.73,8.37-6.09Z"/>
      <rect class="cls-1" x="24.91" y=".01" width="1.1" height="6.45" transform="translate(-.07 .57) rotate(-1.27)"/>
      <path class="cls-1" d="M40.39,1.99c-2.29,2.66-4.51,5.1-5.54,8.37,2.64-2.5,4.15-5.49,5.54-8.37Z"/>
      <path class="cls-1" d="M11.21,31.46l-.73-.05-7.68,3.94c.72.24,10.61-3.72,8.41-3.89Z"/>
      <path class="cls-1" d="M10.86,2.4c1.44,2.97,3.07,5.79,5.08,7.75-.97-3.48-3.1-5.5-5.08-7.75Z"/>
      <path class="cls-1" d="M47.89,34.97c-2.57-1.5-5.17-2.85-8.13-3.44,2.5,1.95,5.26,2.82,8.13,3.44Z"/>
      <path class="cls-1" d="M18.38,1.06c.32,2.43.72,4.79,2.22,6.79-.09-2.66-1.1-4.77-2.22-6.79Z"/>
    </g>
  </g>
</svg>