<?xml version="1.0" encoding="UTF-8"?>
<svg id="Warstwa_2" data-name="Warstwa 2" xmlns="http://www.w3.org/2000/svg" viewBox="0 0 36.34 50.09">
  <defs>
    <style>
      .cls-1 {
        fill: #fff;
      }
    </style>
  </defs>
  <g id="game-icon-v5-divine-pixarts-store">
    <g id="game-icon-v5-divine-pixarts-store_187">
      <path class="cls-1" d="M26.37,33.83c4.07-1.59,7.41-4.52,8.31-8.9-6.51,1.74-12.34,1.9-18.51,1.8-5.1-.09-9.91-.59-14.79-2,2.48,10.57,16.82,12.15,25,9.1ZM4.55,26.6c1.35.63,1.71,3.13,6.19,5.87-1.63-.16-6.17-2.93-6.62-5.15-.05-.24.21-.83.43-.72Z"/>
      <path class="cls-1" d="M14.03,10.09c-1.85,3.19-1.58,7.33,1.77,9.21,1.91,1.07,4.11.6,5.62-.71,5.94-5.17-3.14-11.71-3.25-18.59-.98,3.77-2.31,6.95-4.14,10.09ZM14.62,15.98c-.4-1.12-.49-3.14.44-3.86,0,2.32.36,3.75,2.31,5.67-1.08.07-2.4-.84-2.75-1.82Z"/>
      <path class="cls-1" d="M.02,21.85c.12.56,1.03,1.51,1.68,1.69,9.35,2.61,23.69,2.72,33,.02.56-.16,1.46-1.19,1.6-1.72.71-2.85-9.4-3.81-11.81-3.73-.29,0-1.08.92-.83.96l1.3.23c3.2.56,6.04.22,8.81,2.06-4.78,1.55-9.29,1.8-14.02,1.85-1.62.02-17.22-.02-16.96-2.44,3.4-.88,6.5-1.21,9.66-1.54,2.04-2.39-13.13-.65-12.43,2.63Z"/>
      <path class="cls-1" d="M24.3,43.56l-1.82-4.9-8.61.11-1.96,4.84c3.81,1.48,8.74,1.56,12.39-.06Z"/>
      <path class="cls-1" d="M7.43,48.15c.24.27,1.04.73,1.42.82,6.15,1.44,12.5,1.58,18.82-.1.58-.15,1.56-.9,1.45-1.29l-.35-1.24c-7.07,2.07-14.54,2.18-21.36-.08-.12.64-.27,1.55.03,1.89Z"/>
      <path class="cls-1" d="M8.13,45.48c6.73,1.93,13.47,2.11,20.18-.04-.35-.53-1.26-1.35-1.82-1.52-1.07-.32-6.9,3.53-14.63.51-1.43-.56-2.99-.97-3.74,1.05Z"/>
      <path class="cls-1" d="M24.54,35.94c-4.47.19-8.27.33-12.46-.1-.14,2.78,11.15,3.03,12.46.1Z"/>
      <path class="cls-1" d="M10.86,11.2c1.16-.83.76-3.04-.09-4.3-.79.95-1.84,3.51.09,4.3Z"/>
      <path class="cls-1" d="M25.38,11.18c.9.18,1.72-2.18,0-4.44-.37.92-1.72,4.09,0,4.44Z"/>
    </g>
  </g>
</svg>