<?xml version="1.0" encoding="UTF-8"?>
<svg id="Warstwa_2" data-name="Warstwa 2" xmlns="http://www.w3.org/2000/svg" viewBox="0 0 36.86 52.58">
  <defs>
    <style>
      .cls-1 {
        fill: #fff;
      }
    </style>
  </defs>
  <g id="game-icon-v5-divine-pixarts-store">
    <g id="game-icon-v5-divine-pixarts-store_71">
      <path class="cls-1" d="M23.74,25.37c-4.93,1.89-5.05-.84-7.55,1.38-.27.24-.98.66-1.18.43l-.7-.83c-.4-.47-1.01-1.04-1.42-1.31-.34-.23-1.73.38-1.73.82l-.03,21.37c5.02,1,9.52.93,14.37.05l-.02-14.35c-2.78-1.39-.66-4.67-1.74-7.57ZM22.02,36.48c-1.08-.47-1.67-.68-2.71-.87l.14,5.8c.03,1.16,1.05,1.78.16,2.4-1.09.77-1.42,1.02-2.46.17-1.01-.82-.2-1.18-.08-2.43.2-2,.18-3.71.19-5.92-1.04.16-1.59.32-2.77.76l-1.67-1.62,1.71-1.84c.8.49,2.2,1.15,2.5.62.49-.88-.17-2.21-.53-2.99l1.63-1.79,1.89,1.65c-.5.99-.83,2.07-.59,3.39.85-.08,1.65-.42,2.42-.91l1.8,1.82-1.63,1.76Z"/>
      <path class="cls-1" d="M26.06,31.65c.08-.18.39-.83.38-1.12l-.21-6c-.05-1.51-1-2.64-2.64-2.4l-4.73.69-.7-2.54-.46,2.63-4.39-.96c-.59-.13-1.83.23-2.28.59-.38.3-.43,1.43-.22,1.83.93-.23,2.28-.52,3.06-.24.58.21,1.09,1.21,1.49,1.86,2.87-2.49,2.08-.24,7.62-1.44.34-.07,1.12,0,1.39.16.27.16.42.88.46,1.55l.28,4.69c.02.26.83.96.94.72Z"/>
      <path class="cls-1" d="M32.05,47.38c-1.46-1.73-3.38-2.11-5.37-1.83l2.16,2.02c-4.75,1.82-15.93,1.91-21.07-.07l2.24-2.04c-2.22-.06-4.01.28-5.69,1.84.92.88,1.93,1.48,3.04,1.68,7.03,1.25,14.05,1.29,21.09.15,1.34-.22,2.57-.8,3.6-1.73Z"/>
      <path class="cls-1" d="M16.46,20.63c.18-2.18.19-4.11,1.85-5.69,1.54,1.88,1.71,3.54,1.7,5.54,3.28-2.82,1.12-9.48-2.01-11.8.07,4.43-5.84,7.58-1.54,11.95Z"/>
      <path class="cls-1" d="M28.3,50.17c-8.25.85-12.48.85-20.1-.07,1.49,3.3,19.37,3.29,20.1.07Z"/>
      <path class="cls-1" d="M27.16,16.09c.14.15.64.47.83.46l8.87-.38c.21-.57-11.06-1.5-9.7-.08Z"/>
      <path class="cls-1" d="M9.33,15.47c-.16-.04-.7-.18-.95-.17l-6.84.27c-.68.03-1.25.23-1.54.7l8.55.21c.3,0,1.01-.94.78-1Z"/>
      <path class="cls-1" d="M30.34,3.19c-2.16,1.62-3.9,3.31-5.84,5.12l-.21.51c-1.29,3.17,6.45-5.63,6.05-5.63Z"/>
      <path class="cls-1" d="M17.6,6.33c0,.23.99.44,1.06.23l.29-.88-.57-5.68c-.66,1.92-.76,4.79-.78,6.33Z"/>
      <path class="cls-1" d="M9.77,12.67c.07-.41.09-.86.07-1.15l-7.65-2.93c2.48,1.73,4.66,2.68,7.58,4.08Z"/>
      <path class="cls-1" d="M12.42,8.9l-.49-.85L6.14,2.83c-1.71-1.37,9.28,11.28,6.28,6.07Z"/>
      <path class="cls-1" d="M9.89,19.29l-.63.04-7.33,3.98c-.11.51,11.16-4.22,7.96-4.02Z"/>
      <path class="cls-1" d="M33.61,8.99l-6.65,2.45-.41.47c-2.17,2.5,8.37-3.22,7.05-2.92Z"/>
      <path class="cls-1" d="M26.17,19.62c2.19,1.76,4.65,2.49,7.45,3.25-2.3-1.24-4.54-3.09-7.45-3.25Z"/>
      <path class="cls-1" d="M21.27,7.21c.07-.11.28-.52.31-.64l1.22-5.38c-.12-.82-3.61,8.98-1.53,6.03Z"/>
    </g>
  </g>
</svg>