<?xml version="1.0" encoding="UTF-8"?>
<svg id="Warstwa_2" data-name="Warstwa 2" xmlns="http://www.w3.org/2000/svg" viewBox="0 0 52.8 46.76">
  <defs>
    <style>
      .cls-1 {
        fill: #fff;
      }
    </style>
  </defs>
  <g id="game-icon-v5-divine-pixarts-store">
    <g id="game-icon-v5-divine-pixarts-store_163">
      <path class="cls-1" d="M.25,22.89c4.3.66,7.87.73,11.94.84,5.79-2.6-14.65-.96-11.94-.84Z"/>
      <path class="cls-1" d="M41.23,30.07c.85,1.12,7.16,4.2,8.55,4,.63.22-10.61-6.71-8.55-4Z"/>
      <path class="cls-1" d="M13.48,10.12c.87,8.85,1,17.45-.02,26.14,9.13,1,17.82,1.14,26.48.04-.69-8.85-.7-17.39.01-26.16-8.88-.88-17.61-.93-26.48-.02ZM34.93,26.29l-3.29-.06,2.23,3.92-3.8-2.15v2.97s-2.21-2.22-2.21-2.22l-1.04,5.08-1.26-5.1-2.15,2.33.25-3.1-4.06,2.18,2.26-3.82-3.35-.09c.84-.56,1.56-1.08,2.62-1.99l-4.51-1.15,4.5-1.24-2.66-2.28,3.46.52-2.48-4.28,4.04,2.38.02-3.08,2.06,2.32,1.12-4.54,1.37,4.46,2.04-2.2.04,3.17,3.85-2.32-2.25,3.91,2.71.06-2.05,1.88,4.83,1.23-4.84,1.22,2.55,1.99Z"/>
      <path class="cls-1" d="M40.92,45.34c.93-2.74.88-5.03.2-7.69-9.58.94-18.88,1.03-28.68-.1-1.02,2.63-1.02,5.54.2,7.79,9.65-1.34,18.75-1.24,28.28,0Z"/>
      <path class="cls-1" d="M41.02,1.33c-9.59,1.05-18.87,1.23-28.52-.09-1.08,2.56-1.06,5.24-.07,7.64,9.66-.98,18.81-.91,28.56-.06.79-2.5.75-4.9.02-7.49Z"/>
      <path class="cls-1" d="M10.43,36.16c-2.21,1.23-1.65,7.28-1.08,9.25.09.32.8.94,1.08,1.13,1.97,1.4-.74-4.3.8-9.49.08-.28-.56-1.02-.79-.89Z"/>
      <path class="cls-1" d="M43.1,46.4c.81.51,2.51-4.9.88-9.36-.14-.39-1.31-.97-1.43-.64-.63,1.74,1.02,5.12-.43,9.39l.98.61Z"/>
      <path class="cls-1" d="M42.9,10.17c2.29-.46,2.42-8.86.11-10.14-.23-.13-.9.54-.83.83,1.24,5.35-.61,9.57.71,9.3Z"/>
      <path class="cls-1" d="M10.08.04c-1.87,1.8-1.41,7.34-.51,9.48.13.31,1.11.96,1.22.66.82-2.31-.91-3.15.34-9.38.06-.31-.85-.97-1.06-.76Z"/>
      <path class="cls-1" d="M52.78,23.2c.15,0-.66-.66-.8-.66l-9.1-.33c-.49-.02-1.16,0-1.17.23l-.03.92c0,.23.83.38,1.13.36l9.07-.47.9-.05Z"/>
      <polygon class="cls-1" points="46.01 7.57 49.55 5.05 45.95 2.55 46.01 7.57"/>
      <polygon class="cls-1" points="7.52 7.64 7.44 2.68 3.77 5.07 7.52 7.64"/>
      <path class="cls-1" d="M3.37,11.62l8.64,5.26c2.68-1.17-7.4-5.04-8.64-5.26Z"/>
      <polygon class="cls-1" points="7.53 43.87 7.45 39.17 3.7 41.46 7.53 43.87"/>
      <path class="cls-1" d="M12,29.36c-3.04,1.66-6.03,3.27-8.76,5.19.54-.14,12-4.16,8.76-5.19Z"/>
      <polygon class="cls-1" points="45.94 43.95 49.66 41.52 46 39.17 45.94 43.95"/>
      <path class="cls-1" d="M41.96,15.11l-.65,1.04c-.09.15.33.48.49.58l8.48-5.05c-3.05.92-5.46,2.17-8.32,3.43Z"/>
      <path class="cls-1" d="M42.83,20.2l5.58-1.98c.26-.55-9.53,1.35-6.86,1.88.22.04,1,.2,1.28.11Z"/>
      <path class="cls-1" d="M12.1,25.96l-.73-.27-6.03,2.34,6.44-1.11c.21-.45.47-.91.32-.96Z"/>
      <path class="cls-1" d="M41.28,26.22c2.39,1.17,4.68,1.49,7.07,1.79-2.29-1.08-4.44-2.32-7.07-1.79Z"/>
      <path class="cls-1" d="M12.15,20.07c-2.07-1.9-4.47-1.72-6.74-1.83,2.2.83,4.41,1.95,6.74,1.83Z"/>
      <path class="cls-1" d="M26.81,17.9c-2.87,0-5.2,2.33-5.2,5.2s2.33,5.2,5.2,5.2,5.2-2.33,5.2-5.2-2.33-5.2-5.2-5.2ZM26.79,27.39c-2.38,0-4.3-1.93-4.3-4.3s1.93-4.3,4.3-4.3,4.3,1.93,4.3,4.3-1.93,4.3-4.3,4.3Z"/>
    </g>
  </g>
</svg>