<?xml version="1.0" encoding="UTF-8"?>
<svg id="Warstwa_2" data-name="Warstwa 2" xmlns="http://www.w3.org/2000/svg" viewBox="0 0 37.58 48.75">
  <defs>
    <style>
      .cls-1 {
        fill: #fff;
      }
    </style>
  </defs>
  <g id="game-icon-v5-divine-pixarts-store">
    <g id="game-icon-v5-divine-pixarts-store_124">
      <path class="cls-1" d="M27.25,12.17c-2.53-2.55-6.33-1.38-8.58,1.35-1.41-2.01-3.58-3.08-5.85-2.67-1.88.34-3.78,2-3.96,4.32-.44,5.51,6.08,9.79,9.95,13.02l5.59-4.7c3.35-2.81,6.09-8.09,2.87-11.33Z"/>
      <polygon class="cls-1" points="22.34 27.38 18.84 29.76 15.2 27.22 15.19 48.75 22.41 48.75 22.34 27.38"/>
      <polygon class="cls-1" points="15.26 9.44 18.74 11.27 22.38 9.38 22.36 .01 15.19 0 15.26 9.44"/>
      <path class="cls-1" d="M29.99,13.95c.4,2.85-.3,4.94-1.58,7.32l9.17-.07-.12-7.32-7.47.07Z"/>
      <path class="cls-1" d="M0,21.25h9.18c-1.54-2.8-2.05-4.61-1.61-7.32H.02s-.02,7.32-.02,7.32Z"/>
    </g>
  </g>
</svg>