<?xml version="1.0" encoding="UTF-8"?>
<svg id="Warstwa_2" data-name="Warstwa 2" xmlns="http://www.w3.org/2000/svg" viewBox="0 0 38.21 51.74">
  <defs>
    <style>
      .cls-1 {
        fill: #fff;
      }
    </style>
  </defs>
  <g id="game-icon-v5-divine-pixarts-store">
    <g id="game-icon-v5-divine-pixarts-store_63">
      <path class="cls-1" d="M33.15,24.52c-1.99-2.37-5.03-3.15-8.12-2.73-2.6.35-5,2.02-6.67,4.75-2.79-4.73-8.66-6.36-13.23-3.36-2.46,1.61-3.74,4.51-3.68,7.5.13,6.58,5.24,11.54,10.04,15.46l6.86,5.6,9.58-7.95c5.52-4.58,10.38-13.11,5.22-19.27ZM15.85,31.29c-.56,1-2.73-4.79-2.66-5.25,1.01,1.43,3.39,3.94,2.66,5.25ZM14.38,32.45l-.8.63-5.99-5.1c.82-.04,7.38,4,6.78,4.47ZM6.83,33.52c2.1-.09,4.49-.35,6.77,1.14-2.24.73-4.41-.54-6.77-1.14ZM7.61,38.23l4.92-1.83c1.33-.5,2.16,2.06-4.92,1.83ZM10.76,41.84l2.66-3.06.63-.16c.16-.04.23.18.61.84-1.52,1.03-2.4,1.63-3.9,2.39ZM14.3,44.12c-.1-1.29.82-3.14,1.69-4,1.21-1.19-.46,3.37-1.69,4ZM18.28,48.08l-.57-6.06c-.15-1.59,2.49-3.21.57,6.06ZM24.37,36.5l4.94,1.82c-7.77-.14-6.54-2.41-4.94-1.82ZM22.94,34.74c2.26-1.41,4.76-1.38,7.22-1.24-2.35.64-4.61,1.73-7.22,1.24ZM28.62,28.35c.07.28-6.77,6.32-6.26,4.36l.26-1.02c2-1.26,3.7-2.45,6-3.35ZM20.46,30.52c.61-1.18,1.96-3.38,2.94-4.49-.52,2-1.15,4.12-2.43,5.48-.15.16-.61-.79-.51-.99ZM21.99,38.71c1.88,0,2.91,1.7,4.02,3.01-1.51-.58-3.16-1.35-4.02-3.01Z"/>
      <path class="cls-1" d="M8.31,16.83c1.12,4.49,22.1,3.49,20.1-.6-2.12-4.34-21.1-3.39-20.1.6ZM11.68,17.44c-.28-.06-.89-.67-1.03-.92-.75-1.4,11.77-3.03,15.63-.02,1.02.79-6.51,2.84-14.61.94Z"/>
      <path class="cls-1" d="M17.95,11.29l1.04-.05c.24-.01.29-.88.25-1.32l-.95-9.91-.72,10.04c-.03.35.13,1.26.38,1.25Z"/>
      <path class="cls-1" d="M38.21,10.03c-2.35,1.74-4.87,3.86-7.08,5.73-.38.32-.17,1.64.06,1.97,2.51-2.55,4.78-4.93,7.02-7.7Z"/>
      <path class="cls-1" d="M0,11.35c1.41,2.27,3.24,4.08,5.33,6.19,2.05-1.52-3.58-5-5.33-6.19Z"/>
      <path class="cls-1" d="M11.78,11.71c-1.04-2.36-2.36-4.94-3.78-7.03.6,2.48,1.49,4.95,2.34,7.38.14.39,1.61.02,1.44-.35Z"/>
      <path class="cls-1" d="M25.63,12.37c1.04-.14,2.99-6.61,3.32-8.1-.38.74-5.32,8.36-3.32,8.1Z"/>
      <path class="cls-1" d="M.35,17.87c.26.59,4.62,4.11,4.28,2.31l-.13-.7c-1.47-.61-2.61-1.09-4.14-1.61Z"/>
      <path class="cls-1" d="M33.43,20.41l3.65-2.92c-7.41,2.62-4.32,3.45-3.65,2.92Z"/>
      <path class="cls-1" d="M15.41,11.1l-1.45-4.53c-.02,1.73.11,2.9.32,4.82.17.12,1.21-.03,1.13-.29Z"/>
    </g>
  </g>
</svg>