<?xml version="1.0" encoding="UTF-8"?>
<svg id="Warstwa_2" data-name="Warstwa 2" xmlns="http://www.w3.org/2000/svg" viewBox="0 0 46.29 51.59">
  <defs>
    <style>
      .cls-1 {
        fill: #fff;
      }
    </style>
  </defs>
  <g id="game-icon-v5-divine-pixarts-store">
    <g id="game-icon-v5-divine-pixarts-store_90">
      <path class="cls-1" d="M36.16,20.17c-.96.75-2.32,1.77-3.24,1.76l-7.21-.03-.02-7.6c0-1.17,1.04-2.63,1.8-3.73-1.35-1.12-2.93-2.52-3.21-4.23l-1.03-6.35-.84,5.59c-.34,2.24-1.61,3.8-3.6,5.02.5.76,1.93,2.17,1.93,3.05l.06,8.24-7.82-.03c-.74,0-2.03-1.28-2.62-1.68-1.45,1.64-3.06,3.07-5.13,3.4l-5.24.85,5.26.86c2.1.34,3.75,1.48,5.04,3.31.84-.66,2.12-1.8,3.01-1.79l7.44.04.05,11.35c0,1.03-1.4,2.39-2.1,3.29,1.53,1.16,3.29,2.49,3.59,4.33l.96,5.76.82-5.19c.35-2.23,1.97-3.83,3.8-5.06-1.43-1.17-2.2-2.42-2.2-4.02l.03-10.46,6.76-.03c1.43,0,2.69.87,3.69,1.9.93-1.38,2.28-2.88,3.89-3.16l6.23-1.07-5.88-1.14c-1.69-.33-3.11-2.01-4.25-3.2Z"/>
      <path class="cls-1" d="M19.06,28.6c-1.66.02-4.14-.32-5.51.25l-7.65,4.5,9.43-3.21-9.27,11.72,11.9-9.26-3.37,10.01c3.15-5.53,5.4-6.73,4.48-14Z"/>
      <path class="cls-1" d="M31.22,30.3l9.63,3.06-7.85-4.45c-1.33-.76-3.96-.2-5.63-.33-.36,7.3-.03,6.56,3.91,12.66l-2.73-8.76,12.71,10.33-10.05-12.5Z"/>
      <path class="cls-1" d="M19.24,20.22l-.16-5.55-4.56-7.68,3.17,9.31L5.19,6.39l10.02,12.4-8.85-2.72c6.29,3.43,5.96,4.74,12.88,4.15Z"/>
      <path class="cls-1" d="M28.8,16.27l2.84-8.56-4.37,7.42.13,5.12c6.55.57,6.81-.93,11.89-3.9l-8.07,2.52,9.45-11.86c-4.43,2.85-7.58,6.14-11.86,9.26Z"/>
    </g>
  </g>
</svg>