<?xml version="1.0" encoding="UTF-8"?>
<svg id="Warstwa_2" data-name="Warstwa 2" xmlns="http://www.w3.org/2000/svg" viewBox="0 0 50.05 45.76">
  <defs>
    <style>
      .cls-1 {
        fill: #fff;
      }
    </style>
  </defs>
  <g id="game-icon-v5-divine-pixarts-store">
    <g id="game-icon-v5-divine-pixarts-store_09">
      <path class="cls-1" d="M25.06,45.76c7.4-8.55,14.47-10.88,21.02-20.03,2.73-3.81,4.26-8.26,3.92-12.88-.45-6.17-4.37-11.06-9.9-12.43-5.93-1.47-11.53.99-15.02,6.39C21.59,1.53,15.96-.94,10.16.37,4.68,1.62.67,6.43.09,12.43c-.47,4.77,1,9.26,3.79,13.17,6.63,9.32,14.01,11.68,21.19,20.16ZM7.52,26.67l6.5,1.84-1.01,3.87c-1.77-1.68-3.53-3.35-5.5-5.71ZM23.99,41.1l-5.88-5.21c1.54-.34,2.37-1.47,2.06-3.36,2.7,1.7,4.4,4.82,3.82,8.57ZM24.94,37.1l-1.79-4.47c1.08.23,2.41.92,2.96,1.48l-1.17,2.99ZM36.89,32.42l-.78-3.87,6.56-1.97c-1.89,2.2-3.52,3.75-5.78,5.84ZM32.48,3.29c-.74,1.67-1.42,3.24-.7,4.98.35.86,1.65,1.78,2.41,1.92,1.06.19,2.56-.3,3.27-1.27.26-.35.44-1.45.28-1.85s-1.12-.9-1.4-.95c-.01.99,0,1.79-.08,2.34-.08.53-1.81.49-2.28.17-.63-.44-1.03-2.2-.76-2.98.25-.7,1.18-1.71,2.07-2.11,3.27-1.49,6.9-.33,9.33,2.23,1.86,1.97,2.84,4.68,2.88,7.61-1.86-2.23-4.51-3.33-7.01-1.72-1.39.89-2.3,2.72-2,4.21.33,1.64,1.77,3.36,3.79,3.28.55-.02,1.8-.75,2.05-1.23.29-.56.04-1.86-.32-2.29l-.9,2.06c-.6.28-2.1-.12-2.52-.65-.54-.7-.58-2.17.01-3.12.65-1.04,2.49-1.41,3.66-1.06.89.26,2.05,1.55,2.33,2.82.87,3.94-1.57,7.9-5.24,9.42l-7.74,3.2,1.56.94c.73.44.78,4.37-1.69,5-1.36.35-2.24-.48-3.14-1.75-.21.25-.66,1.42-.47,1.84.23.5,1.03,1,1.9,1.55l-5.77,5.44c-1.16-8.4,6.41-8.98,5.69-12.1l3.4-3.42c.33-.34.32-1.95.76-2.08l2.21-.69-1.93-.87c.41-1.42,1.45-1.67,3.29-2.01l-1.92-.54c-1.19-.34-1.03-4.3-2.82-6.3l.31-.89c-.9.36-1.65.95-1.93.69l-1.28-1.2c-.38-.36-1.27-1-1.23-1.44l.21-2.07-1.49,2.02-3.4-.32c1.44-3.28,3.48-5.58,6.61-6.83ZM29.44,14.9c1.93.52,3.35,1.89,3.33,4.22-.01,1.43-.94,3.43-2.15,4.51l-5.48,4.92-5.57-4.96c-1.14-1.01-2.08-3.01-2.09-4.52-.01-2.1,1.21-3.48,3.04-4.08,1.43-.47,3.33.97,4.51,1.99,1.18-1.09,2.92-2.49,4.42-2.08ZM6.3,12.82c1.09-.29,2.76.26,3.25,1.09.52.87.49,2.62-.28,3.36-.4.39-1.41.76-1.82.56-.49-.24-.86-1.29-1.2-2.3-.31.33-.7,1.66-.47,2.32.27.77,1.97,1.46,2.73,1.28,1.99-.47,2.98-1.96,3.08-3.76.08-1.45-.98-3.2-2.48-3.92-2.38-1.14-4.53-.09-6.51,1.73.07-3.75,2.04-7.41,5.44-9.31,2.3-1.28,4.93-1.45,7.16-.13,1.7,1.01,2.3,3.42.98,4.77-.43.43-2.1.38-2.42-.1-.31-.47-.12-1.21.1-2.31-.3.08-1,.32-1.36.51-.36.2-.3,1.57-.13,1.96.51,1.1,1.9,1.78,3.05,1.74,1.06-.04,2.65-.95,2.98-2.26.4-1.59-.21-3.17-.79-4.76,2.69,1.05,5.3,3.4,6.18,6.3-.37.88-2.36.77-2.97.3-.13-.1-.59.2-.75.16l-.7-.16c-.23,1.94-3.25,3.06-3.5,2.92l-1.81-1.04,1,1.63-2.03,5.77-2.08.99c.76.28,1.81.76,2.12,1.21.3.44-.29,1.46-.54,1.65.8.58,1.7,1.36,2.24,2.06l1.65,2.79.19-.15,1.09,1.06c.23.23-.28,1.21-.25,1.42l1.87,1.67c.49.44-.63,2.17-1.48,2.42-1.08.32-2.72-.53-3.25-1.24-.53-.7-.99-2.88-.33-3.43l2.12-1.72c-5.97-1.7-12.78-3.86-13.07-10.33-.09-2.08.88-4.21,2.97-4.77Z"/>
      <polygon class="cls-1" points="40.66 5.68 40.05 9.35 44.04 8.35 40.66 5.68"/>
      <polygon class="cls-1" points="6.11 8.52 9.83 9.29 9.29 5.63 6.11 8.52"/>
    </g>
  </g>
</svg>