<?xml version="1.0" encoding="UTF-8"?>
<svg id="Warstwa_2" data-name="Warstwa 2" xmlns="http://www.w3.org/2000/svg" viewBox="0 0 51.45 51.61">
  <defs>
    <style>
      .cls-1 {
        fill: #fff;
      }
    </style>
  </defs>
  <g id="game-icon-v5-divine-pixarts-store">
    <g id="game-icon-v5-divine-pixarts-store_89">
      <polygon class="cls-1" points="12.79 29.99 21.57 30.06 21.62 38.74 29.86 38.78 29.9 30.05 38.77 30.01 38.69 21.77 29.92 21.73 29.82 12.83 21.67 12.88 21.58 21.69 12.79 21.8 12.79 29.99"/>
      <path class="cls-1" d="M37.69,19.13c-.42.1-1.34-.26-1.48-.6-.66-1.63,5.67-7.28,6.66-9.79l-9.28,6.89c-.87-.13-1.24-1.55-1.05-2.3l2.42-9.56-4.27,7.31c.54.87.99,1.86.99,2.67l-.03,6.3,6.52-.04c.59,0,1.65.46,2.35.77l6.44-3.77-9.26,2.13Z"/>
      <path class="cls-1" d="M37.74,32.49l9.32,2.26-6.53-3.89c-1.17.64-2.34.95-3.55.94l-5.34-.05.02,6.59c0,.49-.5,1.39-.96,2.07l3.87,6.44-2.19-9.5c-.11-.5,1.01-1.52,1.41-1.22l9.61,7.34c-1.22-2.77-8.47-9.45-7.1-10.58.24-.2,1.09-.48,1.43-.39Z"/>
      <path class="cls-1" d="M13.37,19.21c-2.83-.78-5.38-1.44-8.8-2.14l6.36,3.68c.98-.42,2.13-.77,3.06-.76l5.83.09-.05-5.92c0-.94.29-1.88.91-2.89l-3.86-6.74,2.15,9.76c.07.32-.36,1.03-.58,1.09-.21.06-.93-.02-1.16-.2l-8.88-6.82,7.06,9.55c.47.64-1.43,1.48-2.05,1.31Z"/>
      <path class="cls-1" d="M17.5,36.32c.24-.18.94-.24,1.13-.07.2.17.49,1.07.42,1.36l-2.3,9.6,3.87-6.67-.77-1.93-.04-6.86h-6.82c-.51,0-1.53-.62-2.05-.89l-6.94,4.15,10.05-2.56c.33-.08,1.29.52,1.35.85.31,1.66-5.47,6.8-6.4,9.4l8.51-6.38Z"/>
      <path class="cls-1" d="M27.32,11.12l-1.66-11.12-1.49,11.03c.81.1,1.96.13,3.14.09Z"/>
      <polygon class="cls-1" points="24.09 40.56 25.8 51.61 27.26 40.56 24.09 40.56"/>
      <polygon class="cls-1" points="40.57 24.35 40.64 27.31 51.45 25.71 40.57 24.35"/>
      <path class="cls-1" d="M10.97,27.29l-.03-2.9-10.94,1.32c3.92.74,7.28,1.14,10.97,1.57Z"/>
    </g>
  </g>
</svg>