<?xml version="1.0" encoding="UTF-8"?>
<svg id="Warstwa_2" data-name="Warstwa 2" xmlns="http://www.w3.org/2000/svg" viewBox="0 0 56.43 40.15">
  <defs>
    <style>
      .cls-1 {
        fill: #fff;
      }
    </style>
  </defs>
  <g id="game-icon-v5-divine-pixarts-store">
    <g id="game-icon-v5-divine-pixarts-store_104">
      <path class="cls-1" d="M44.19,30.4c1.45-.92,2.55-2.88,1.63-4.53-.83-1.5-2.56-2.81-4.32-3.43-9.32-3.31-19.71-3.16-28.58,1.07-1.27.61-2.31,2.28-2.45,3.32-.93,7.23,24.03,9.69,33.71,3.58ZM14.99,26.11c4.92-2.09,10.12-2.47,15.46-2.28,2.98.1,12.19,1.05,12.93,4.2.82,3.46-15.42,7.26-28.37,2.28-.76-.29-1.7-1.36-1.8-1.98-.11-.7.95-1.87,1.79-2.22Z"/>
      <path class="cls-1" d="M28.04,18.45c.29-.05.97-.45,1.27-.73-.35-6.37-.32-11.62-1.03-17.72-.68,5.91-.6,11.21-.92,17.01.02.51.29,1.5.68,1.44Z"/>
      <path class="cls-1" d="M19.19,19.02c-3.86-4.21-7.73-8.29-11.57-11.76,3.29,4.68,6.53,8.19,9.93,12.19.32.37,1.56.07,1.64-.43Z"/>
      <path class="cls-1" d="M38.19,19.73c1.5-.32,8.74-9.43,9.97-11.44-.58.17-13.25,12.13-9.97,11.44Z"/>
      <path class="cls-1" d="M33.13,18.74c1.12-1.04,5-12.32,5.05-14.69l-5.94,13.93c-.12.27.67.95.88.76Z"/>
      <path class="cls-1" d="M24.34,18.46c-.04-.2-.11-.83-.27-1.19l-5.69-12.99c.88,4.71,3.19,10.2,4.47,13.96.14.41,1.54.51,1.49.23Z"/>
      <path class="cls-1" d="M7.95,27.72c.32.02,1.01-.67.89-.93-.12-.25-.67-.46-.99-.44l-7.86.32c.35.41,1.02.66,1.92.71l6.03.34Z"/>
      <path class="cls-1" d="M47.99,27.49c.2.08.82.26,1.09.24l7.35-.51c-.4-.53-.84-.64-1.61-.66l-6.41-.19c-.29,0-.68,1.02-.41,1.12Z"/>
      <path class="cls-1" d="M52.38,17.84c-2.89.81-5.42,1.93-8.21,3.1l-.22.64c-.65,1.85,8.2-3.33,8.44-3.74Z"/>
      <path class="cls-1" d="M12.82,21.19c-3.05-1.35-5.63-2.48-8.67-3.4.63.38,9.25,6.11,8.67,3.4Z"/>
      <path class="cls-1" d="M26.28,17.7c-.91-3.81-1.04-6.89-2.43-10.33.37,3.77.94,7.14,1.73,11.2.4-.05.59-.37.7-.86Z"/>
      <path class="cls-1" d="M16.23,10.71c1.48,2.99,2.74,6.09,5.31,8.55-.91-3.39-3.29-5.86-5.31-8.55Z"/>
      <path class="cls-1" d="M13.09,33.15c-.79-.7-1.62-.71-2.17-.4l-5.95,3.33c2.99-.75,5.26-1.71,8.12-2.94Z"/>
      <path class="cls-1" d="M32.74,7.37c-1.22,3.68-2.3,7.13-2.02,11.12,1.09-3.83,1.71-7.41,2.02-11.12Z"/>
      <path class="cls-1" d="M51.38,35.9c-2.13-1.43-5.93-3.54-7.6-3.25-2.01.34,8.47,3.91,7.6,3.25Z"/>
      <path class="cls-1" d="M35.52,19.04c.88-.93,3.64-5.44,3.92-6.93.36-1.67-7.84,11.08-3.92,6.93Z"/>
      <path class="cls-1" d="M37.84,35.14c.65,2.16,2.33,3.52,4.35,5.01-1.21-1.65-2.2-3.71-4.35-5.01Z"/>
      <path class="cls-1" d="M15.77,20.33c-1.52-1.8-3.52-3.02-5.69-4.08,1.54,1.72,3.15,3.32,5.69,4.08Z"/>
      <path class="cls-1" d="M46.57,16.1c-2.19,1.24-4.38,2.35-5.65,4.14,2.66-.79,4.11-2.45,5.65-4.14Z"/>
      <path class="cls-1" d="M17.99,35.33c-1.21,1.57-2.17,2.86-3.16,4.56.11-.13,5.94-4.92,3.16-4.56Z"/>
      <path class="cls-1" d="M15.24,34.11c-2.2,1.49-3.86,2.44-5.6,4.47l5.94-3.77-.34-.7Z"/>
      <path class="cls-1" d="M40.99,34.17c1.6,1.84,3.47,3.02,5.5,3.96-1.7-1.77-3.39-3.14-5.5-3.96Z"/>
    </g>
  </g>
</svg>