<?xml version="1.0" encoding="UTF-8"?>
<svg id="Warstwa_2" data-name="Warstwa 2" xmlns="http://www.w3.org/2000/svg" viewBox="0 0 43.88 45.26">
  <defs>
    <style>
      .cls-1 {
        fill: #fff;
      }
    </style>
  </defs>
  <g id="game-icon-v5-divine-pixarts-store">
    <g id="game-icon-v5-divine-pixarts-store_196">
      <path class="cls-1" d="M39.22,35.99c-2.69,2.33-5.33,4.31-8.53,4.81-.39-.43-.56-.59-.69-.4l-.7,1c-.09.76-.22.88-.52.23l-2.91-14.07c-.25-1.2.01-2.84.28-4.15.49,3.63,1.33,7.13,2.73,10.52l1.23-1.88c.73.82,1.33,1.43,2,1.78.41-1.12.32-2.3-.19-3.1-4.98-7.83-1.74-11.42-6.81-14.8l-.51-4.8c-.15-1.43-1.54-2.58-2.78-2.45-3.66.37-2.02,5.37-3.12,7.4-5.31,2.72-1.36,6.43-6.8,14.64-.55.83-.49,2.01-.14,3.3l2.17-1.98,1.14,1.95c1.21-3.43,2.06-6.76,2.76-10.56.4,2.3.2,4.64-.45,7.09-1.03,3.89-1.67,7.73-2.2,11.87-.68-.66-1.65-1.48-2.37-1.61-3.58-.65-5.67-2.73-8.46-5.23,4.7,8.19,15.13,11.69,24.54,8.67,4.5-1.44,8.04-4.37,10.32-8.2Z"/>
      <path class="cls-1" d="M35.08,4.71C31.46,2.11,27.07.33,22.61.03c-4.1-.27-8.05,1.3-11.62,3.28C3.07,7.69-2.31,18.47.99,27.11c.02-3.54.2-6.62,1.14-9.81l.94,5.09c.4-8.79,5.29-15.15,13.11-18.47-2.52-.04-4.15,1.52-6.15,2.39,1.46-2.76,4.15-4.19,7.15-4.58,4.27-.55,14.71-1.1,16.74,4.33-1.58-.6-3.02-1.41-4.8-1.83,7.19,3.62,11.56,10.5,11.53,18.46l1.13-5.04c1.22,3.18,1.14,6.34.79,9.83,3.64-7.41-.87-17.99-7.5-22.78Z"/>
      <path class="cls-1" d="M36.01,15.8c1.74,4.11,1.59,7.82.39,12.09,2.92-3.47,3.08-8.95-.39-12.09Z"/>
      <path class="cls-1" d="M6.95,26.76c-.47-4.27-.57-7.5.95-11-3.04,2.9-3.39,7.85-.95,11Z"/>
      <path class="cls-1" d="M25.43,5.16c3.64,1.4,5.78,3.23,7.6,6.49,1.18-4.19-5.23-6.74-7.6-6.49Z"/>
      <path class="cls-1" d="M38.42,29.34c-1.92,3.34-3.98,6.19-6.6,8.81,3.55-1.77,6.32-4.86,6.6-8.81Z"/>
      <path class="cls-1" d="M11.44,37.74c-2.6-2.81-4.34-5.32-5.81-8.37-.08,3.96,2.74,6.84,5.81,8.37Z"/>
      <path class="cls-1" d="M13.4,6.78c-1.43,1.28-3.06,2.48-2.57,4.74,1.74-2.99,4.14-4.83,7.05-6.07-1.83.22-3.1.72-4.48,1.33Z"/>
      <path class="cls-1" d="M11.16,19.19c2.11-4.81-.55-2.13,3.92-7.34-3.05,1.09-4.7,4.33-3.92,7.34Z"/>
      <path class="cls-1" d="M29.56,12.51c3.81,5.58,1.03,3.49,3.25,7.14.63-3.09-.68-5.88-3.25-7.14Z"/>
    </g>
  </g>
</svg>