<?xml version="1.0" encoding="UTF-8"?>
<svg id="Warstwa_2" data-name="Warstwa 2" xmlns="http://www.w3.org/2000/svg" viewBox="0 0 46.75 40.57">
  <defs>
    <style>
      .cls-1 {
        fill: #fff;
      }
    </style>
  </defs>
  <g id="game-icon-v5-divine-pixarts-store">
    <g id="game-icon-v5-divine-pixarts-store_53">
      <path class="cls-1" d="M5.85,25.66c6.54,6,12.99,8.09,17.54,14.92,4.82-7.19,11.9-9.16,18.01-15.29,3.95-3.96,6.04-9.24,5.14-14.71-.89-5.43-4.87-9.48-9.94-10.36-5.36-.92-10.43,1.63-13.22,6.66C20.18,1.05,13.45-1.64,7.37,1.04,2.92,3,.24,7.38.02,12.24c-.24,5.19,2.02,9.92,5.83,13.42ZM42.43,5.34c-1.86-.43-3.48-.48-5.1.31.29-1.75-.55-3.08-1.95-3.92,2.91.04,5.11,1.65,7.04,3.62ZM11.16,1.71c-1.07,1.11-1.6,1.82-1.88,3.9-1.52-.84-3.15-.73-5.22-.07,1.84-2.14,4.26-3.52,7.1-3.83ZM3.2,14.79l-.7,2.72c-.74-1.99-1.02-3.91-.63-5.79,1.35.6,1.63,1.92,1.34,3.07ZM7.02,14.11c1.16-.27,2.4.46,2.84,1.36.53,1.09.14,2.78-1.1,3.11-.31.08-1.15-.05-1.38-.2-.23-.16-.47-.76-.36-1.01.14-.32.58-.54,1.21-.96-.18-.17-.73-.51-1.08-.56-.35-.05-1.1.71-1.19,1.1-.21.84.24,2.08.99,2.53.66.39,1.91.5,2.74.1,1.23-.59,1.74-1.97,1.71-3.24-.03-1.2-.94-2.53-2.19-3.14-1.74-.86-3.7-.21-5.11.83l-.24-1.75c-.06-.45-1.14-.72-1.97-.87.03-1.39.76-3.04,1.78-4.18.15,1.65.23,2.99,1.29,3.83,1.03.81,2.6.75,3.2-.48-1.44-.06-2.57-.11-3.05-1.2-.36-.82-.07-2.16.84-2.8,1.08-.76,2.75-.34,3.61.61l3.36,3.69c-1.76-.29-3.07-1.25-4.03-2.37.23,2.7,1.96,3.41,4.11,4.32l-2.56-.09c.91,1.23,2.22,1.71,3.94,2.08l-1.63.94,2.04.41.05,1.57c1.18-.75,2.07-1.85,2.59-2.97l2.56.97-2.99-2.69c-.68-3.53-2.7-3-4.98-5.68l.85-2.22-1.53,1.06c-.25-.05-.61-1.32-.4-1.74.25-.52,1.16-1.02,1.81-1,.54.01,1.29.86,1.49,1.42l.31.89c.05.16.59-.36.65-.51.17-.44.04-1.57-.37-1.78l-1.91-.98c2.24-.89,4.73.33,6.47,2.34,1.18,1.37.72,3.78-.19,5.38,0,.41,1.17.92,1.58.77.4-.14.96-.68,1.23-1.07l-1.38-.89-.28-3.38,3,4.15,2.77-3.9c.77,4.76-1.54,3.42-1.22,4.37.11.33.83.91,1.14.76.5-.24,1.23-.66,1.6-.91-1.04-1.83-1.36-4.06.05-5.56,1.53-1.63,3.74-2.92,6.04-2.04-1.33.17-2.62,1.73-2.34,2.62.04.12.44.55.49.64.09.13.26-.34.32-.58.35-1.28,1.27-2.02,2.57-1.68.98.25,1.69,1.53.77,2.62l-.63-.73c-.15-.18-1.02-.2-.94,0l.57,1.42c.14.35-.34,1.17-.66,1.4l-3.46,2.54-.73,2.36-2.44,2.21,1.98-.55c.78,1.14,1.56,2.03,2.52,2.93l.3-1.38c.06-.3.71-.31,1.19-.43l.53-.14c.09-.02-.09-.36-.18-.38l-1.69-.51c1.71-.16,3.25-.65,4.54-2.15l-2.83.15c2.1-.97,4.14-1.7,4.16-4.16-1.26.93-2.36,1.77-3.72,2.13l2.79-3.23c.9-1.04,2.32-1.88,3.78-1.2.87.41,1.3,1.9,1.07,2.78-.31,1.15-1.57,1.26-3.04,1.64.42.61,1.47.94,2.2.76,2.11-.53,2.23-2.62,2.18-4.48,2.65,2.57,2.32,7.39,1.38,10.47l-.98-2.84c-.35-1.01.43-2.17,1.19-3.13-1.45-.36-1.84.98-2.19,2.15-1.47-.84-2.98-1.28-4.49-.69-1.19.47-2.5,1.78-2.55,3.37-.05,1.62.84,2.9,2.2,3.31,1.24.38,2.89-.1,3.3-1.65.13-.48-.13-1.53-.46-1.9-.38-.43-1.45-.23-1.91.24l1.09.72c.25.16.1.98-.12,1.18-.28.24-1.2.36-1.57.2-1.23-.53-1.45-1.95-.89-3.02.52-1,1.8-1.73,3.06-1.3,1.88.64,2.78,2.41,2.65,4.38-.18,2.65-1.77,4.87-3.64,6.47.87-1.66,1.63-2.96,1.56-4.59l-1.08.9c-.37.31-2.49-.67-2.2.16l.43,1.24.48-.67c.1-.14.55-.31.61-.14l.45,1.1c-.39,1.06-1.53,1.66-1,2.74l-3.58,2.88c2.5-4.15,2.26-6.92-.84-11.06-.73,2.03,1.38,3.47,1.22,5.54-1.05-1.04-1.81-1.64-2.99-1.37-1.21.27-1.53,1.98-1.04,2.71.11.17.82.52.92.36l.29-.47c-.19-.61-.3-.96-.26-1.25.04-.29,1.13-.22,1.33-.01.64.64.73,2.23.38,3.06l.9-.98c0,2.96-2.01,4.71-4.08,6.24.49-1.61,2-4.44-.04-5.88-.7-.5-2.13-.61-3.01-.07-.45.28-.88,1.18-.83,1.64.04.45.79,1.27,1.24,1.39.17.04.9-.27.92-.44l.04-.55-1.03.17c-.27.04-.49-.63-.46-.9.03-.27.71-.65.98-.64,3.53.16.51,6.95-2.22,8.61l.51-3.9.81.8-.08-1.09c-.02-.25-.71-.48-.94-.37-1.39.7.05,4.41-3.11,7.29-2.97-2.94-1.77-5.93-3.01-7.24-.19-.21-1.04-.07-1.05.22l-.02,1.49.63-1.14c.26,1.1.39,2.19.35,3.69-1.9-1.51-5.51-7.5-2.09-8.42.29-.08,1.07.14,1.13.38.07.3-.08,1.08-.31,1.28-.23.2-.5.01-1.21-.09.09.3.57.96.94.99.43.04,1.23-.82,1.3-1.3.17-1.17-.85-1.98-1.82-2.24-.76-.21-2.22.45-2.73,1.38-.86,1.53.09,3.25.77,4.98-1.92-1.21-3.76-2.89-3.99-5.49l1.6,1.99-1.03-2.72c-.28-.74.15-2.02.8-2.29.29-.12,1.32.18,1.22.45l-.5,1.36c.32-.04.86-.15,1.17-.3.31-.16.37-1.35.23-1.67-.31-.75-1.48-1.29-2.29-1.07-.65.17-1.28.9-1.92,1.72-.06-2.09,1.96-4.04,1.16-5.86l-1.43,2.51c-1.47,2.58-1.21,5.21.34,8.02-1.58-.69-2.38-1.89-3.1-3.32l-.98-1.95c-.08-.15.3-.79.41-.94.15-.19.37.18.88.76,1.99-2.75-.92,0-2.94-2.27.15,1.38.77,2.76,1.56,4.42-1.87-1.46-3.23-3.68-3.39-6.19-.13-2.06.89-4,2.95-4.48Z"/>
      <path class="cls-1" d="M22.4,19.35l-.08,6.64c-.01,1.17-.52,2.69-.83,3.74l1.86,3.16,1.9-3.18c-.11-.38-.67-1.54-.69-2.06l-.25-8.26c1.52-.41,2.97-.14,4.24.69l1.85-1.98-1.85-1.83c-1,.6-2.63,1.22-4.04.72-.39-1.18.19-3.07.68-4.37l-1.8-1.92-1.9,1.98c.77,1.34,1.19,3.07.74,4.43-1.59.05-2.95-.17-4.24-.59l-1.64,1.66,1.81,1.83c1.45-.73,2.85-.98,4.24-.67Z"/>
      <path class="cls-1" d="M28.36,11.33c.08.66,5.89-5.39,3.67-4.1l-.65.56c-.13.11-.28.13-.35,0l-.36-.74c-.18-.37-.6-.85-.92-.97-.27-.11-1.2.65-1.01.84l1.03,1.06c.19.19-.06.92-.2,1.17l-1.2,2.19Z"/>
      <path class="cls-1" d="M18.06,6.77c.17-.32-1.02-.67-1.35-.46-.28.18-.75.76-.83,1.14-.36,1.6.98,3.27,2.47,3.64l-1.47-2.65c-.23-.41.95-1.36,1.19-1.68Z"/>
      <path class="cls-1" d="M32,17.84l-2.43,3.53c.74,1.14,4.11-2.65,2.43-3.53Z"/>
      <path class="cls-1" d="M17.23,21.1l-1.94-2.4c-.2-.25-.46-.52-.59-.38-.09.09-.4.62-.37.75.17.93,1.7,2.7,2.91,2.04Z"/>
      <path class="cls-1" d="M19.78,24.93c-.01.18.89.26.92.05l.6-3.96-1.42,2.93c-.09.18-.09.8-.11.98Z"/>
    </g>
  </g>
</svg>