<?xml version="1.0" encoding="UTF-8"?>
<svg id="Warstwa_2" data-name="Warstwa 2" xmlns="http://www.w3.org/2000/svg" viewBox="0 0 50 50.71">
  <defs>
    <style>
      .cls-1 {
        fill: #fff;
      }
    </style>
  </defs>
  <g id="game-icon-v5-divine-pixarts-store">
    <g id="game-icon-v5-divine-pixarts-store_44">
      <path class="cls-1" d="M5.25,18.55l6.13,3.19c-3.87-.61-6.9-2.54-10.27-4.55,1.02,5.45,7.23,6.1,11.09,7.3-3.37.32-6.16-.88-9.31-1.88,2.09,4.25,7.36,4.27,11.36,4.66-2.55.48-5.02.33-8.11.19,2.71,3.02,6.34,2.04,9.74,1.82-1.82.96-3.6,1.29-5.63,1.77.65.48,2.09,1,3.03.87l4.43-.63-3.41,2.18c2.25.15,3.7-.46,5.39-.97l-1.08,1.72c1.65-.62,2.59-1.11,4.11-1.89-.84,1.59-2.9,2.28-4.18,3.16-2.13,2.63-4.34,4.58-8.07,5.2l-8.91,1.49c.84,1.41,2.09,2.15,3.24,1.9l6.69-1.42c-2.73,1.47-5.42,2.23-8.54,3.52.53,1.3,2.12,1.54,3.24,1.05l5.88-2.55-6.16,4.65c1.03,1.04,2.34.93,3.15.29l4.8-3.82-3.62,4.65c.67.56,2.19.22,2.74-.54l3.16-4.44-1.84,4.85c3.64.61,2.73-7.82,6.88-8.82,3.23-.78,6.53-1.1,9.24-3.08,6.33-4.6,2.34-12.65,9.39-12.59l-1.92-2.54c-.92-1.22-2.39-1.81-4.05-1.01-3.06,1.47-3.93,5.05-7.53,4.37-4.33-.81-3.06-5.68-9.53-9.95C10.58,12.59,6.08,7.16,3.12,0,.11,5.37,8.17,13,11.78,16.01,7,13.58,3.98,9.31.75,4.89c-1.46,6,5.89,10.49,9.61,13.52-4.1-1.43-6.9-4.62-10.36-7.28.25,3.26,2.41,5.94,5.25,7.42ZM25.65,28.84c-3.45-.91-5.63-4.05-6.35-7.25,2.12,2.8,3.92,5.1,6.35,7.25Z"/>
      <path class="cls-1" d="M26.53,13.73l-.7-5.52c-1.63,2.48-1.3,5.17-.86,8.82l-1.61-3.33c-.52,2.33-.15,3.84.15,5.85l-1.07-1.1c.03,2.49,1.01,4.92,3.21,6.56.75.56,2.49.44,3.19-.14,1.53-1.25,2.27-5.21,1.56-7.41-1.53-4.73-1.4-9.25-.39-14.17-3.41,2.72-2.79,6.53-3.47,10.45Z"/>
      <path class="cls-1" d="M31.04,14.72c.75,2.52,1.01,4.66.84,7.02,4.36-2.76,5.81-.54,8.28,1.3-.48-1.41-1.32-2.23-2-3.11l-.29-3.48-1.84.66c-1.34-3,3.34-3.77,2.81-6.41l-4.35,3.89c-.32.28-2,.47-1.91.1l.47-2.02-2.02,2.06Z"/>
      <path class="cls-1" d="M16.18,14.45l4.94,3.77c1.08-7.62,1.56-5.14,2.64-8.49l.84-2.6-.46-6.66c-1.63,2.92.65,10.8-2.73,10.47l-1.02-2.7.23,3.64-1.67.3-3.54-6.65,2.48,7.59c-1.48-.27-2.11-.69-3.26-1.41.12,1.03.71,2.1,1.54,2.74Z"/>
      <path class="cls-1" d="M39.66,16.72c-.67,1.83.7,4.45,2.73,4.93-.59,1.32-1.06,2.39-1.34,3.34,3.04-2.05,2.69-5.72,4.52-8.24,2.01-.71,4.43-2.33,3.56-4.87-2.08.25-3.25,2.43-3.63,4.61l-.63-2.2-.76,2.24c-.48-2.09-1.32-4.03-3.66-4.43-.5,2.62,1.1,4.53,3.92,4.88-.35,1.57-.84,3.09-1.49,4.52-.67-2.3-.81-4.5-3.21-4.78Z"/>
      <path class="cls-1" d="M37.14,32.77l6.82,2.82c-1.18-1.72-5.52-2.57-6.17-3.44-.83-1.11.62-3.1-.02-4.47-2.85,3.36-.41,5.17-4.17,9.56,2.51,2.47,4.86,4.9,7.82,6.89l-6.27-7.25.27-1.83,2.13.69c-.42-.44-1.33-1.29-1.22-1.67.1-.38.5-.99.82-1.31Z"/>
      <path class="cls-1" d="M43.84,6.87c-1.54,2.24-.97,4.94.91,6.75,1.32-2.17,1.4-5.07-.91-6.75Z"/>
      <path class="cls-1" d="M16.84,35.02l-2.78-.1c-.57-.02-1.45-.71-2.13-1.28l-1.23,1.79c.93-.42,2.41-.93,2.35.11-.08,1.33-1.28,2.2-2.03,3.34,2.54-.52,4.38-1.59,5.81-3.85Z"/>
      <path class="cls-1" d="M44.38,21.09c2.35,1.12,4.72-.58,5.13-2.88-2.48-.27-4.3.72-5.13,2.88Z"/>
      <path class="cls-1" d="M42.25,26.52c0,.16.08.5.23.55.16.04.94.16,1.11.14l6.41-.77-6.76-.55c-.3-.02-1,.4-.99.64Z"/>
      <path class="cls-1" d="M32,46.1l-1.59-5.37-.76-.12c-1.24-.19,2.08,5.44,2.36,5.48Z"/>
      <path class="cls-1" d="M3.14,35.93c2.5-.86,4.6-1.86,6.96-3.01.02-1.47-7.04,2.67-6.96,3.01Z"/>
    </g>
  </g>
</svg>