<?xml version="1.0" encoding="UTF-8"?>
<svg id="Warstwa_2" data-name="Warstwa 2" xmlns="http://www.w3.org/2000/svg" viewBox="0 0 50.91 49.18">
  <defs>
    <style>
      .cls-1 {
        fill: #fff;
      }
    </style>
  </defs>
  <g id="game-icon-v5-divine-pixarts-store">
    <g id="game-icon-v5-divine-pixarts-store_195">
      <path class="cls-1" d="M28.01,24.24c3.22.01,5.73.28,8.69,1.01.67-.91,1.78-2.49,2.02-3.54.24-1.03-1.51-2.91-2.37-3.33-2.78.77-5.34,1.07-8.32.83.15-3.2.44-5.8.93-8.7-.63-.84-2.26-2.23-3.4-2.22-1.16,0-2.92,1.5-3.36,2.38l.95,8.63c-3.3.11-5.58-.21-8.6-.95-.76.73-2.31,2.32-2.22,3.44.09,1.27,1.5,2.71,2.3,3.39,2.9-.66,5.33-.92,8.53-.98l-.56,18.15c-.04,1.18-.41,2.62-.58,4l3.61,2.82,3.67-3.2c-.49-2.45-.88-4.47-.93-6.73l-.36-15Z"/>
      <path class="cls-1" d="M13.41,16.79l1.32-1.12c2.04,1.37,4.19,2.43,6.57,1.5l-4.37-3.58c-2.78-2.28.36-10.31-4.98-8.68-5.01,1.54-6.43,8.54-9.8,12.8,2.97.09,4.2-2.35,6.02-4.66-.69,2.62-1.56,4.78-1.58,7.28,2.71-1.64,2.72-4.32,4.45-6.56l-1.9,6.66c2.78-1.12,2.98-3.58,3.8-5.72l.45,2.07Z"/>
      <path class="cls-1" d="M48.85,17.61c-3.6-4.62-4.4-10.86-9.45-12.71-.65-.24-2.3-.02-2.81.42-2.21,1.92,1.39,6.55-4.01,9.65-.94.54-1.97,1.44-2.85,2.4,2.67.65,4.77-.46,6.97-1.62l1.3,1.24.17-2.02c1.34,2.4.94,4.62,3.94,5.49l-2.16-7.08c2.04,2.31,1.32,4.58,4.59,6.65.42-3.62-1.96-5.63-2.8-9.31l2.37,3.81c1.06,1.71,2.88,3.15,4.75,3.06Z"/>
      <path class="cls-1" d="M42.79,19.89c-.13,4.19,2.97,15.06,7.23,16.45l-5.15-14.58-2.07-1.87Z"/>
      <path class="cls-1" d="M6.19,22c-1.47,4.75-3.22,9.52-5.08,14.45,4.3-1.57,7.28-11.87,7.19-15.87-.71.13-1.91.76-2.11,1.42Z"/>
      <path class="cls-1" d="M5.88,17.22c-.97.52-2.06,1.44-2.35,2.36-1.05,3.39-2.09,6.15-3.53,9.61,4.27-1.11,5.77-7.6,5.88-11.97Z"/>
      <path class="cls-1" d="M44.99,17.15c.73,4.25,1.5,10.52,5.93,11.88-1.19-3.07-2.16-5.64-2.97-8.53-.45-1.62-1.33-2.81-2.96-3.35Z"/>
      <path class="cls-1" d="M41.01,21.14c-1.9,2.7.67,9.97,3.65,11.83l-2.62-10.77c-.09-.37-.87-1.29-1.03-1.06Z"/>
      <path class="cls-1" d="M10.54,21.92l-.64-.86c-.09-.11-.61.63-.66.84l-2.6,10.96c3.51-2.8,4.46-7.15,3.9-10.94Z"/>
      <path class="cls-1" d="M20.9,28.86c-3.3,4.28-6.02,8.64-8.11,13.46,3.24-4.38,6.04-8.54,8.11-13.46Z"/>
      <path class="cls-1" d="M37.64,41.36c-2.24-5.2-5.09-9.53-8.02-13.58,2.31,5.15,4.99,9.58,8.02,13.58Z"/>
      <path class="cls-1" d="M18.12,27.45c-3.66,3.06-7.18,5.66-10.31,9.17,3.92-2.55,7.22-5.54,10.63-8.71.27-.67.29-.79-.32-.47Z"/>
      <path class="cls-1" d="M33.21,28.02c2.62,3.08,5.54,5.54,8.95,7.62-2.69-2.9-5.54-5.42-8.95-7.62Z"/>
      <path class="cls-1" d="M35.05,4.39c-2.1,2.6-3.73,5.3-4.35,8.61,1.87-2.87,3.17-5.52,4.35-8.61Z"/>
      <path class="cls-1" d="M24.88,6.08c-.03.31.98.68,1.07.44.08-.23.36-1.09.31-1.42l-.82-5.1-.56,6.08Z"/>
      <path class="cls-1" d="M38.16,27.06c.36,1.12,1.17,2.23,2.27,2.91l-1.14-5.01c-.5.36-1.3,1.54-1.12,2.1Z"/>
      <path class="cls-1" d="M13.02,26.64c.04-.4-.95-1.34-1.3-1.55l-.73,4.73c.92-.6,1.92-2.15,2.02-3.18Z"/>
      <path class="cls-1" d="M16.71,5.92c1.04,2.77,2.23,4.89,3.83,7.25-.65-2.79-2.06-5.26-3.83-7.25Z"/>
    </g>
  </g>
</svg>