<?xml version="1.0" encoding="UTF-8"?>
<svg id="Warstwa_2" data-name="Warstwa 2" xmlns="http://www.w3.org/2000/svg" viewBox="0 0 47.29 49.72">
  <defs>
    <style>
      .cls-1 {
        fill: #fff;
      }
    </style>
  </defs>
  <g id="game-icon-v5-divine-pixarts-store">
    <g id="game-icon-v5-divine-pixarts-store_87">
      <path class="cls-1" d="M26.95,21.58c2.78,4.96,3.17,3.79,5.94,7.62.25.34.75.91,1.06.78l1.08-.46-.73-2.2c-2.81-.76-4.85-5.44-5.71-8.18-.39-1.24-1.07-2.08-2.41-2.49-3.25-.99.94-2.92-1.22-5.85-.53-.73-2.33-.79-2.83.03-1.77,2.92,1.75,4.92-.99,5.73-3.66,1.08-1.9,5.02-6.38,9.75-.4.43-1.69,1.05-1.89,1.19l-.3,2.28c-.07.5,1.42.04,1.72-.41,2.64-3.94,3.27-2.52,5.87-7.58.67,1.99.38,4.06-.09,6.12-.76,3.3.68,6.34,1.04,9.55.23,2.07.13,3.99.83,6.02,1.1,3.17-1.15,6.41,1.96,6.23,2.54-.14.34-3.2,1.44-6.32.75-2.13.65-4.2.9-6.36.33-2.97,1.53-5.84.92-8.85-.46-2.22-.81-4.33-.21-6.6Z"/>
      <path class="cls-1" d="M47.18,0c-3.58,4.1-7.83,6.84-12.86,8.8-6.48,2.52-2.44,4.61-5.71,7.75,1.52,2.5.9,4.68,3.05,4.6l-.41-1.15,3.8.5-1.09-1.22c1.91-.07,3.14-.25,4.49-1.13l-3.54-1.03c2.71.11,5.3-.07,6.9-2.12h-4.65c3.27-.63,6.21-1.42,7.81-4.52-1.54.59-3.06,1.21-4.79,1.21,3.11-1.39,6.17-3.14,6.75-6.71-1.58,1.61-3.47,2.94-5.52,3.34,2.93-2.13,5.66-4.48,5.79-8.31Z"/>
      <path class="cls-1" d="M17.35,19.67l1.28-3.17c-2.67-2.64-.12-5.01-3.79-6.76l-6.63-3.17C5.15,5.11,2.81,2.6.15.11c-.05,3.64,2.93,5.9,5.54,8.2-2.02-.79-3.7-1.97-5.41-3.32.9,3.97,4.36,5.54,7.72,7.04-2.01-.31-3.79-.94-5.7-1.62,1.67,3.29,4.97,4.03,8.34,4.56-1.56.1-3.19.03-5.14-.1,1.55,2.13,4.45,2.4,6.96,2.27l-3.2,1.19c1.63.72,2.71.84,4.16.96l-1.07,1.15,3.49-.27-.09,1.16c.92-.51,1.32-.96,1.6-1.67Z"/>
      <path class="cls-1" d="M29.17,27.36l-.52,7.93c1.3,2.93,3.38,5.72,5.12,8.22l-3.71-10.38,8.18,8.01-9.06-13.78Z"/>
      <polygon class="cls-1" points="18.76 35.35 17.98 27.83 9.14 40.93 17.37 32.96 13.29 43.91 18.76 35.35"/>
      <path class="cls-1" d="M15.04,22.86c-5.68-1.64-5.97-3.22-12.75-3.97l9.96,4.58-12.24,1.59,10.21,1.01c2.26.22,4.32-1.37,4.83-3.22Z"/>
      <path class="cls-1" d="M44.07,19.33c-5.24.13-7,2.23-11.88,3.63.56,1.64,2.36,3.29,4.23,3.11l10.86-1.02-12.27-1.53,9.05-4.2Z"/>
      <polygon class="cls-1" points="29.31 2.27 26.56 9.34 27.7 12.95 29.31 2.27"/>
      <path class="cls-1" d="M18.12,2.81c.28,3.85.91,7.17,1.6,10.44,1.47-5.56.14-5.45-1.6-10.44Z"/>
      <polygon class="cls-1" points="36.93 29.59 45.16 31.19 36.62 27.5 36.93 29.59"/>
      <polygon class="cls-1" points="10.7 27.63 2.25 31.16 10.36 29.65 10.7 27.63"/>
      <path class="cls-1" d="M10.81,31.6l-5.92,5.26c2.96-1.47,5.15-2.82,8.06-4.67-.82-.44-1.42-.56-2.15-.59Z"/>
      <path class="cls-1" d="M34.19,32.08c2.66,1.68,4.48,2.92,7.17,4.04l-4.71-4.51c-.82.06-1.76.23-2.46.47Z"/>
      <path class="cls-1" d="M22.68,8.33l1.76-.12c-.26-2.95-.39-4.78-.92-7.47l-.84,7.59Z"/>
      <polygon class="cls-1" points="27.67 42.13 29.31 46.2 28.05 37.14 27.67 42.13"/>
      <path class="cls-1" d="M18.89,37.87l-.83,7.87c2.09-2.61.91-5.39,1.54-8,.04-.16-.68-.03-.7.14Z"/>
    </g>
  </g>
</svg>