<?xml version="1.0" encoding="UTF-8"?>
<svg id="Warstwa_2" data-name="Warstwa 2" xmlns="http://www.w3.org/2000/svg" viewBox="0 0 43.52 44.29">
  <defs>
    <style>
      .cls-1 {
        fill: #fff;
      }
    </style>
  </defs>
  <g id="game-icon-v5-divine-pixarts-store">
    <g id="game-icon-v5-divine-pixarts-store_123">
      <path class="cls-1" d="M35.53,25.49c-3.86-1.05-6.9-2.33-8.75-5.71-1.41-2.6-2.07-6.14-.71-9.45,1.46-3.58,4.57-5.74,8.05-6.33,3.35-.56,6.48.62,9.4,3.1-1.84-3.76-5.29-6.26-9.56-6.94-3.47-.56-7.57.39-10.52,3.19-4.44,4.21-5.22,10.63-2.43,15.71,2.8,5.11,8.6,8.12,14.52,6.44Z"/>
      <rect class="cls-1" x="-1.99" y="34.3" width="20.89" height="3.04" transform="translate(-22.86 16.49) rotate(-45.02)"/>
      <polygon class="cls-1" points="39.46 14.8 41 11.34 37.4 12.92 34.47 10.46 34.74 14.26 31.56 16.25 35.19 17.32 36.02 21 38.1 17.56 42 18.02 39.46 14.8"/>
      <path class="cls-1" d="M21.75,26.25c.64.08,1.82-1.49,1.5-2.08-.71-1.34-1.78-2.46-2.93-3.04-.65-.33-2.19.67-2.18,1.37.04,2.06,1.74,3.52,3.61,3.75Z"/>
      <path class="cls-1" d="M15.44,24.66c-.23.32-.33,1.49,0,1.78l3.21,2.96c.74-.41,1.72-1.4,1.43-1.8-.8-1.14-3.36-4.68-4.64-2.94Z"/>
    </g>
  </g>
</svg>