<?xml version="1.0" encoding="UTF-8"?>
<svg id="Warstwa_2" data-name="Warstwa 2" xmlns="http://www.w3.org/2000/svg" viewBox="0 0 35.57 50.42">
  <defs>
    <style>
      .cls-1 {
        fill: #fff;
      }
    </style>
  </defs>
  <g id="game-icon-v5-divine-pixarts-store">
    <g id="game-icon-v5-divine-pixarts-store_148">
      <path class="cls-1" d="M7.73,2.98l.05,18.15,20.18-.05-.05-18.15-20.18.05ZM22.24,13.17c-.79-.6-2.32-1.17-3.13-.69-.61,1.06,0,3.45.33,4.54.16.53-1.27,1.8-1.75,1.58-.48-.22-1.29-.94-1.73-1.45.64-1.44.99-3.29.6-4.76-.67-.23-2.18.05-2.84.39-.53.27-1.75-.81-1.82-1.39-.07-.59.99-1.56,1.57-1.96.66.48,2.27,1.26,2.97.67.64-.55.06-2.26-.57-3.01l1.8-1.78,2.04,1.58c-.63.83-1.23,2.76-.51,3.17.97.56,2.62-.08,2.84-.91l1.84,2.11-1.65,1.92Z"/>
      <path class="cls-1" d="M35.53,18.76l.04-14.19c-2.19-2.28-2.91-3.93-6.26-2.93l-.02,20.45c2.64,1.81,6.24-2.27,6.24-3.33Z"/>
      <path class="cls-1" d="M6.34,22.15l-.02-20.65c-3.98-.6-3.69.67-6.32,3.28v14.58s3.21,2.88,3.21,2.88c.51.45,2.58.1,3.14-.09Z"/>
      <path class="cls-1" d="M14.39,46.84c1.89.13,7.96.93,7.47-1.54-.1-.5-1.1-1.21-1.64-1.18l-5.72.26c-.69.03-.82,2.41-.1,2.46Z"/>
      <path class="cls-1" d="M21.36,22.01c-1.92-.34-5.12-.35-7.02-.06-.44.16-.06,2.03.44,2.05l6.21.18c.45-.77.76-1.87.37-2.16Z"/>
      <path class="cls-1" d="M19.93,35c.11-1.12.19-2.96-.13-3.86l-4-2.8c-1.04,4.41.78,4.26,4.13,6.66Z"/>
      <path class="cls-1" d="M19.77,40c1.2-4.26-.69-4.24-3.95-6.5-1.1,4.13.83,4.19,3.95,6.5Z"/>
      <path class="cls-1" d="M16.18,27.34l3.81,2.61.12-4.71-4.57-.08c-.06.39.18,1.88.64,2.19Z"/>
      <polygon class="cls-1" points="19.8 41.2 15.65 38.42 15.59 43.02 20.17 43.06 19.8 41.2"/>
      <path class="cls-1" d="M14.44,1.9c2.37.28,4.74.39,6.98-.15-2.02-2.4-5.69-2.32-6.98.15Z"/>
      <path class="cls-1" d="M17.75,50.42c1.3,0,2.82-.64,2.79-2.39l-5.38-.02c-.06,1.78,1.26,2.42,2.59,2.41Z"/>
    </g>
  </g>
</svg>