<?xml version="1.0" encoding="UTF-8"?>
<svg id="Warstwa_2" data-name="Warstwa 2" xmlns="http://www.w3.org/2000/svg" viewBox="0 0 46.89 44.98">
  <defs>
    <style>
      .cls-1 {
        fill: #fff;
      }
    </style>
  </defs>
  <g id="game-icon-v5-divine-pixarts-store">
    <g id="game-icon-v5-divine-pixarts-store_111">
      <path class="cls-1" d="M39.83,38.42l3.05-.07-.04-14.78-38.79.02v14.75s2.99.05,2.99.05l.13-8.5c.03-2.08,2.01-4.58,4.35-4.64,1.77-.05,4.1,2.2,4.14,3.95l.19,9.19,3.24.02.11-8.89c.02-1.92,2.32-4.41,4.45-4.22,2.35.21,4.08,2.63,4.11,4.57l.12,8.55,3.21-.04.12-8.89c.02-1.86,2.18-4.21,4.11-4.24,2.33-.03,4.42,2.46,4.43,4.61l.08,8.56Z"/>
      <rect class="cls-1" y="41.99" width="46.89" height="2.99"/>
      <path class="cls-1" d="M1.09,20.27c.39.21,1.36.46,1.93.46l34.47.06c2.86,0,5.76-.11,8.49-.29.46-.67.6-1.84.28-2.47l-45.64.03c-.11.85.02,1.97.48,2.21Z"/>
      <path class="cls-1" d="M11.77,26.4c-1.57-.18-3.4,1.76-3.42,3.26l-.09,8.73h6.47s-.1-8.84-.1-8.84c-.01-1.19-1.59-2.99-2.87-3.14Z"/>
      <path class="cls-1" d="M23.51,26.39c-1.31-.06-3.17,1.8-3.18,3.12l-.13,8.88,6.52-.02-.05-8.36c0-1.54-1.41-3.56-3.16-3.63Z"/>
      <path class="cls-1" d="M35.6,26.43c-2.08-.12-3.42,2.33-3.4,4.18l.09,7.79,6.4.02.03-7.81c0-1.72-1.11-4.07-3.11-4.18Z"/>
      <rect class="cls-1" x="2.15" y="39.35" width="42.51" height="1.74"/>
      <path class="cls-1" d="M27.2,6.21l1.23-1.23c.27-.27-.54-.95-.9-1.32-.74-.76-1.08.74-2.98.38-1.19-.22.69-2.94,0-3.54-.55-.48-1.5-.69-1.87-.28-1.31,1.46.91,3.24-.26,3.78-1.74.8-1.92-1.35-3.58.13-.38.34-.2,1.17.34,1.75.96,1.05,2.19-1.28,3.37.18.06,2.24.06,5.17-.1,7.13l-1.58,2.01c-.46.59-.75,1.07-1.02,1.76l7.36-.12-1.35-1.87c-.3-.42-1.03-1.3-1.42-1.74l-.18-7.5c1.06-.18,1.98.05,2.93.47Z"/>
      <rect class="cls-1" x="2.53" y="21.42" width="41.87" height="1.3"/>
      <path class="cls-1" d="M4.99,16.79c2.03.16,3.16.15,5.22.02-2.11-1.63-1.52-2.54-1.62-4.1-.11-1.83-.36-3.08,1.27-4.72l-4.58.04c1.95,1.5,1.31,2.93,1.31,4.61,0,1.66.49,2.66-1.6,4.14Z"/>
      <path class="cls-1" d="M38.25,12.76c-.26,1.57,1.6.26-1.26,4.19l4.74-.15c-2.03-2-1.3-2.66-1.39-4.1-.12-1.83-.49-3.09,1.44-4.71l-4.87.03c2.04,1.83,1.63,3,1.34,4.75Z"/>
      <path class="cls-1" d="M40.22,6.77l.06-1.64c.02-.47.05-1.39-.23-1.39l-1.44.02c-.29.84-.41,2.66.04,3.39.21.33,1.56,0,1.57-.39Z"/>
      <path class="cls-1" d="M8.45,6.96l.16-1.96c.03-.42-.28-1.3-.63-1.38-.28-.07-1.17.06-1.23.34-.17.77-.15,2.58.28,3.23.18.28,1.39.1,1.42-.24Z"/>
      <path class="cls-1" d="M7.8,2.94c.95-.45.73-2.05-.18-2.83-.24.28-.71,1.06-.91,1.52-.2.45.57,1.56,1.09,1.31Z"/>
      <path class="cls-1" d="M39.54,3.05c.3.08.89-.92.74-1.22l-.89-1.82c-.53.53-1.08,1.6-.96,2.23.06.31.81.72,1.11.8Z"/>
    </g>
  </g>
</svg>