<?xml version="1.0" encoding="UTF-8"?>
<svg id="Warstwa_2" data-name="Warstwa 2" xmlns="http://www.w3.org/2000/svg" viewBox="0 0 51.13 50.42">
  <defs>
    <style>
      .cls-1 {
        fill: #fff;
      }
    </style>
  </defs>
  <g id="game-icon-v5-divine-pixarts-store">
    <g id="game-icon-v5-divine-pixarts-store_164">
      <path class="cls-1" d="M33.8,48.93c-.12-.04-.69-.62-.83-.63-3.04-.26-6.3-4.52-5.74-7.7.05-.26-.66-.96-.48-1.06l1-.55c.63-.34,1.36-1.44.93-1.85-5.31-5.12,7.67-2.54,7.76-17.07H14.9c.14,3.48.96,6.64,2.98,9.4,2.26,3.09,8.1,4.7,5.9,6.71-.68.62-1.15,1.2-1.25,1.67-.08.39,1.33,1.01,1.45,1.39.69,2.09-.37,6.24-2.61,7.62l-3.89,2.29c2.78,2.48,19.36.73,16.33-.22ZM17.96,21.81l1.4,6.79c-4.24-5.11-1.98-9.62-1.4-6.79ZM23,25.63c-.23-.05-.4-.89-.18-.96l1.1-.32c.18-.05.94.02.96-.15l.13-1.15.09-.79c.03-.25.62-.39.86-.3.24.09.53.77.56,1.02l.09,1.05c.02.27.7.25,1.33.3.35.03.91.67.81,1-.1.33-.78.5-1.64.64-1.29.22-.26,1.21-.96,4.18-.07.29-1.11-.08-1.12-.38l-.06-3.67-1.98-.48Z"/>
      <path class="cls-1" d="M14.8,18.42c.05.36.77.68,1.37.68l19.7.02c.48,0,.91-1.33.57-1.52-.26-.14-.86-.32-1.2-.32l-19.22-.03c-.66,0-1.29.63-1.22,1.17Z"/>
      <path class="cls-1" d="M24.1,9.43c.82,1.5,1.33,3.05,1.77,5.01,2.03-1.54,1.71-4.12.31-5.84-3.21-3.94,2.05-5.24-.25-8.59.02,4.31-5.03,5.16-1.83,9.43Z"/>
      <path class="cls-1" d="M30.1,14.75c4.93-3.99-1.66-5.78.23-10.36-3.96,4.96.83,4.82-.23,10.36Z"/>
      <path class="cls-1" d="M15.35,30.2c-.14.02-.32.02-.61.04-3.34,3.59-6.56,6.73-9.65,10.54l10.5-9.43c0-.36-.03-1.18-.24-1.14Z"/>
      <path class="cls-1" d="M46.09,40.61l-9.22-10.07c-.24-.26-.84-.3-1.1-.26-1.68.27,9.91,10.19,10.32,10.33Z"/>
      <path class="cls-1" d="M21.17,14.42c3.78-4.46-3.32-4.4.04-9.79-5.15,4.12.28,5.78-.04,9.79Z"/>
      <path class="cls-1" d="M36.05,13.46c3.01-3.1,5.49-5.53,7.9-8.78-.43-.16-10.96,9.05-7.9,8.78Z"/>
      <path class="cls-1" d="M7.37,4.7c.37,1.19,7.43,8.45,7.74,8.31l.57-.26c.81-.37-7.25-7.56-8.31-8.05Z"/>
      <path class="cls-1" d="M10.82,22.28c.38.03,1.44-.51,1.23-.74l-.77-.88-11.29.81,10.82.81Z"/>
      <path class="cls-1" d="M40.36,20.61l-1.12.79c-.18.12.64.79.94.77l10.94-.67-10.76-.89Z"/>
      <path class="cls-1" d="M37.81,28.19c2.9,1.43,5.28,2.76,8.35,3.91l-7.2-4.69-.83-.03c-.17,0-.25.52-.32.81Z"/>
      <path class="cls-1" d="M13.27,15.43l-.1-.79-8.01-3.8c.54.56,8.25,5.74,8.11,4.59Z"/>
      <path class="cls-1" d="M18.37,32.91c-1.04.92-3.28,5.25-3.51,7.28l3.95-6.12c.17-.27-.27-1.31-.43-1.16Z"/>
      <path class="cls-1" d="M36.84,40.32l-2.88-6.52-.73-.71c-.16-.16-.78.49-.69.7-.09-.22,3.89,6.72,4.29,6.53Z"/>
      <path class="cls-1" d="M45.7,11.31c-2.85,1.02-5.59,1.93-7.99,4.06,3.1-.47,5.54-2.32,7.99-4.06Z"/>
      <path class="cls-1" d="M12.61,27.37l-6.64,4.3c2.62-.92,4.52-1.94,7.27-3.28.54-.52.06-1.44-.63-1.02Z"/>
      <path class="cls-1" d="M5.22,26.4c2.18-.28,5.26-.83,6.96-1.18.2-.04.21-1.09.01-1.08l-.91.05-6.07,2.2Z"/>
      <path class="cls-1" d="M45.91,16.66c-2.31.38-5.06.08-7.14,2.03,2.51.06,4.54-.98,7.14-2.03Z"/>
      <path class="cls-1" d="M38.64,24.19c2.05,2.16,4.88,1.57,7.44,2.19-2.26-1.11-4.65-2.11-7.44-2.19Z"/>
      <path class="cls-1" d="M34.14,9.61c1.84-2.11,3.06-4.32,4.04-6.58-1.84,2.04-3.46,3.98-4.04,6.58Z"/>
      <path class="cls-1" d="M6.04,17.07c2.06.78,4.07,1.46,6.43,1.73-1.85-1.97-4.2-1.74-6.43-1.73Z"/>
    </g>
  </g>
</svg>