<?xml version="1.0" encoding="UTF-8"?>
<svg id="Warstwa_2" data-name="Warstwa 2" xmlns="http://www.w3.org/2000/svg" viewBox="0 0 47.63 47.36">
  <defs>
    <style>
      .cls-1 {
        fill: #fff;
      }
    </style>
  </defs>
  <g id="game-icon-v5-divine-pixarts-store">
    <g id="game-icon-v5-divine-pixarts-store_198">
      <path class="cls-1" d="M47.62,6.45c-1.56,1.79-3.06,3.27-4.91,4.45,1.88-3.76,3.61-7.04,1.72-10.9-3.54,11.73-12.94,10.08-14.49,18.78l-4.07-2.13c.46-1.32,1.03-2.87,1.04-4.08,0-1.96-1.32-3.13-2.86-3.2-1.45-.06-2.96.86-3.18,2.74-.17,1.44.32,3.15.9,4.63l-4.09,2.21C16.33,10.27,7.39,11.98,3.05.15c-1.71,4.16.24,7.38,1.99,11.01L0,6.8c-.13,3.89,2.22,6.47,5.18,8.98-1.67-.22-3.21-.95-4.94-1.85.6,3.12,3.43,4.79,6.21,6.29l-3.53.42c1.61,2.17,4.01,2.2,6.58,2.84l-2.59,1.36c1.78,1.32,4.1.34,4.35.97l.38.94,4.02-2.05c-1.62,4.34-4.59,4.88-7.55,7.82,1.72,1.41,3.12-.03,4.71-.31,3.23-.57,4.76-2.38,6.39-5.57,1.04,5.06-2.98,8.43,2.12,13.85,1.76,1.87,2.68,4.23,2.31,6.88,2.56-1.65,2.19-4.33,1.63-7.14,1.52.97,1.61,2.92,1.64,4.97,1.83-1.28,2.44-3.71,1.84-5.89l-.96-3.48c1.6,1.33,2.38,2.85,3.19,4.72,1.58-5.28-4.7-7.25-2.48-14.23,1.18,3.31,3.38,5.17,6.5,6.02,1.56.42,2.74.95,4.53.47-2.76-3.37-5.44-3.01-7.55-8.28,1.5,1.23,2.83,1.98,4.54,1.86-.72-.71-.92-.99-.19-.56,1.96-.27,3.04-.43,4.65-.85l-2.79-1.54c2.75-.36,4.84-.81,6.51-2.81l-3.4-.4c2.65-1.45,5.31-3.13,6.18-6.21-1.7.74-3.18,1.34-4.89,1.78,2.9-2.5,5.25-5.24,5.04-9.35Z"/>
    </g>
  </g>
</svg>