<?xml version="1.0" encoding="UTF-8"?>
<svg id="Warstwa_2" data-name="Warstwa 2" xmlns="http://www.w3.org/2000/svg" viewBox="0 0 35.45 47.27">
  <defs>
    <style>
      .cls-1 {
        fill: #fff;
      }
    </style>
  </defs>
  <g id="game-icon-v5-divine-pixarts-store">
    <g id="game-icon-v5-divine-pixarts-store_121">
      <path class="cls-1" d="M28.37,24.33c-.18-1.55-.32-2.87-.41-4.23-.28-4.18-3.28-7.73-6.09-10.45l-4.19-4.06-4.87,4.86c-2.59,2.58-4.98,5.99-5.36,9.74l-.41,4.14c-.45,4.55-.29,9.49-.11,14.08-.07-1.72,1.63,8.31,1.66,2.59l.09-17.52c.03-6.25,3.4-11.73,9.07-14.6,5.63,3.02,8.99,8.47,9.05,14.59l.18,18.6c2.51-1.43,1.63-15.61,1.38-17.75Z"/>
      <path class="cls-1" d="M22.3,21.75c1.15.76,2,1.88,2,3.3l.04,16.36c0,.42,1.5.5,1.5-.02v-17.92c0-5.71-3.29-10.68-8.15-13.44-5.21,2.88-8.07,7.98-8.07,13.83v17.56c0,.37,1.5.48,1.5-.03v-16.14c0-1.4.8-2.49,1.87-3.46-.68-.83-1.82-2.01-1.08-3.1.66-.97,1.77-1.31,3.03-.94-1.07-2.28-.2-4.52,2.39-5.53.9-.35,2.45.85,2.96,1.66.7,1.12.49,2.46.26,3.74,1.49-.16,2.66.23,3.08,1.23.46,1.1-.25,2.18-1.34,2.92Z"/>
      <rect class="cls-1" x="0" y="45.32" width="35.45" height="1.94"/>
      <path class="cls-1" d="M7.04,16.92c1.24-2.34,2.69-4.77,4.74-6.8l5.95-5.89,6.07,5.94c2.01,1.97,3.46,4.35,4.5,6.87.62-2.21-.28-4.43-1.85-6.02L18.22,2.69l1.37-.6c.17-.07.1-.68-.06-.77-.16-.09-.54-.29-.71-.4l-1.38-.91c-.19.33-.46.93-.73,1l-.94.24c-.24.06-.16.87.07.97l1.33.58c-2.71,3.16-11.76,9.54-10.14,14.14Z"/>
      <rect class="cls-1" x="2.71" y="24.31" width="3.16" height="14.33"/>
      <rect class="cls-1" x="29.67" y="24.36" width="3.05" height="14.27"/>
      <rect class="cls-1" x="7.61" y="42.8" width="20.2" height="1.6"/>
      <polygon class="cls-1" points="28.8 44.43 33.7 44.38 33.55 39.56 28.99 39.6 28.8 44.43"/>
      <rect class="cls-1" x="1.08" y="15.89" width="6.49" height="3.46" transform="translate(-13.31 21.91) rotate(-89.89)"/>
      <polygon class="cls-1" points="1.77 44.42 6.68 44.37 6.51 39.6 1.83 39.62 1.77 44.42"/>
      <rect class="cls-1" x="29.4" y="14.42" width="3.41" height="6.5" transform="translate(-.03 .05) rotate(-.09)"/>
      <polygon class="cls-1" points="28.91 13.46 33.33 13.4 31.07 4.71 28.91 13.46"/>
      <polygon class="cls-1" points="4.33 5.03 2.14 13.33 6.56 13.42 4.33 5.03"/>
      <path class="cls-1" d="M29.53,23.36l3.67.13.39-1.71-4.64.09c-.18.28.17,1.48.58,1.49Z"/>
      <polygon class="cls-1" points="2.26 23.39 6.25 23.43 6.57 21.82 1.86 21.79 2.26 23.39"/>
    </g>
  </g>
</svg>