<?xml version="1.0" encoding="UTF-8"?>
<svg id="Warstwa_2" data-name="Warstwa 2" xmlns="http://www.w3.org/2000/svg" viewBox="0 0 46.79 49.35">
  <defs>
    <style>
      .cls-1 {
        fill: #fff;
      }
    </style>
  </defs>
  <g id="game-icon-v5-divine-pixarts-store">
    <g id="game-icon-v5-divine-pixarts-store_140">
      <path class="cls-1" d="M35.45,15.35l-12.25-3.9-12.23,4.13c-.78,13.13.68,25.19,12.22,33.78,11.53-7.67,13.23-21.54,12.25-34ZM23.25,47.16c-10.28-8.07-10.88-18.76-10.69-30.39,3.91-1.04,7.32-2.17,10.78-3.51l10.55,3.51c.19,11.38-.42,22.68-10.64,30.39Z"/>
      <path class="cls-1" d="M4.45,20.9c-.69,6.9.5,16.86,6.22,21.81,1.09-.83,1.98-1.72,2.57-2.67-3.13-6.53-3.83-13.19-3.85-20.42l-4.95,1.28Z"/>
      <path class="cls-1" d="M35.66,42.8c6.1-5.78,6.76-13.83,6.39-21.89l-5.02-1.13c-.01,7.39-.7,13.8-3.68,20.2.56,1.11,1.34,2.06,2.31,2.82Z"/>
      <path class="cls-1" d="M13.72,41.42l-2.91,2.69c-7.09-5.62-7.86-15.65-7.24-23.95l4.95-1.45c.27-.08.75-.48.91-.64.16-.16-.19-.97-.35-1.01l-6.94,1.83c-.46,10.16-.22,20.09,8.66,27.01l3.14-2.76c.21-.18.55-1.02.38-1.18l-.58-.55Z"/>
      <path class="cls-1" d="M37.55,17.17c-.25-.06-.65.83-.47.95.18.11.68.45.89.52l5.02,1.59c.31,8.69-.16,17.73-7.32,23.86l-2.89-2.59c-.19-.28-.57,1.14-.31,1.39l3.22,2.97c8.71-6.96,9.05-16.65,8.64-26.9l-6.79-1.78Z"/>
      <path class="cls-1" d="M44,4.4l-9.16,8.65c.11.09.75.54,1.07.73.68.43,7.49-8.2,8.1-9.38Z"/>
      <path class="cls-1" d="M9.35,12.99c.58.62,1.75.74,2.38.18L2.23,4.28l7.11,8.71Z"/>
      <path class="cls-1" d="M23.24,0l-.86,9.35c3.15,2.88.91-8.35.86-9.35Z"/>
      <path class="cls-1" d="M31.29,12.43l.69-.47,3.18-7.16c.12-.49-6.79,9.6-3.87,7.63Z"/>
      <path class="cls-1" d="M11.77,5.45c-.49.12,4.58,10.61,4.11,6.68-.03-.22-.15-1.03-.33-1.29l-3.78-5.39Z"/>
      <path class="cls-1" d="M42.32,15.85l4.48-3.2c-2.58.87-4.27,1.78-6.55,3,.58.34,1.64.51,2.07.2Z"/>
      <path class="cls-1" d="M27.54,11.07c.12-.13.55-.57.58-.81l.87-6.26-2.11,5.92c-.11.31.48,1.36.66,1.15Z"/>
      <path class="cls-1" d="M5.24,15.13L0,12.68c3.44,4.02,8.31,3.89,5.24,2.45Z"/>
      <path class="cls-1" d="M17.5,3.94c.29,2.54.61,4.91,1.69,7.31.79-2.84-.91-5-1.69-7.31Z"/>
      <path class="cls-1" d="M23.15,14.48c-3.17,1.29-6.17,2.27-9.54,3.14-.54,10.31.94,21.53,9.78,28.15,4.82-3.98,7.36-8.68,8.56-14.27.78-4.53,1.1-9.3.96-13.82l-9.77-3.19ZM26.95,28.99l-2.22-1.63-.38,8.81c-.06,1.46-.61,3-1.12,4.33-.91-2.04-1.08-3.71-1.16-5.7l-.32-7.56-6.31-1.69c1.83-.67,3.1-.9,5.16-1.3l-1.06-2.07,2.06,1.46c.54-2.58.85-4.27,1.64-6.38,1.01,2.44,1.21,4.32,1.56,6.71.79-.88,1.43-1.53,2.43-2.19l-1.44,2.35,5.2,1.36-5.13,1.56,1.07,1.91Z"/>
    </g>
  </g>
</svg>