<?xml version="1.0" encoding="UTF-8"?>
<svg id="Warstwa_2" data-name="Warstwa 2" xmlns="http://www.w3.org/2000/svg" viewBox="0 0 32.15 46.12">
  <defs>
    <style>
      .cls-1 {
        fill: #fff;
      }
    </style>
  </defs>
  <g id="game-icon-v5-divine-pixarts-store">
    <g id="game-icon-v5-divine-pixarts-store_38">
      <path class="cls-1" d="M3.28,23.03c1.14,2.02,3.07,3.58,5.35,4.36-1.27-2.37-2.78-4.44-1.27-6.88l1.15,1.86c.62-2.2,1.43-3.8,2.75-5.39l2.6-3.13c.88,2.09-.97,4.33.14,6.04.38.59,1.55,1.18,2.3,1.69,1.86,1.26,1.16,3.68.11,5.64,2.39-.7,4.67-2.64,5.72-5.14,1.27-3.05.11-6.35-1.96-8.52l-.44,2.63c-.09.54-1.31,1.14-1.76.95-2.37-.98,3.8-5.8-2.94-11.3-1.75-1.42-3.18-3.36-2.48-5.85-6.34,3.41,2.32,9.6-4,13.65-.14-1.98-.05-4.11-2.01-4.9.1,2.29-.63,4.17-2.09,5.85-2.06,2.36-2.74,5.63-1.17,8.43Z"/>
      <path class="cls-1" d="M26.29,27.55c-2.02.44-3.07,1.98-2.91,4.14l-22.65-.03c-.31.28-.69.79-.74,1.08-.04.3.86.95,1.21.95h23.98s-.31-3.04-.31-3.04c.9-1.87,3.12-1.75,4.31-.73,1.23,1.05,1.4,3.03.3,4.42-1.3,1.64-3.52,2.31-5.5,2.5l.15-1.96-23.53.03c1.86,5.88,6.85,7.94,12.08,7.85,3.75-.06,6.32-.6,9.23-3.2,1.87-1.08,5.01-1.52,7.08-2.5,2.52-1.19,3.6-3.77,2.96-6.01-.7-2.47-3.09-4.07-5.67-3.5Z"/>
      <path class="cls-1" d="M18.06,43.67l-11.11.1c-1.24.01-2.43,1.03-2.33,2.35h15.76c-.26-1.75-1.17-2.09-2.31-2.45Z"/>
      <path class="cls-1" d="M17.51,30.3c-1.19-1.12-2.19-1.21-4.02-1.69l1.05-2.82c-.56-.75-1.54-1.89-2.35-2.75-1.94,1.48-1.74,3.52-.8,5.52-1.55.51-2.59.86-3.81,1.64,3.53.45,6.11.43,9.93.11Z"/>
    </g>
  </g>
</svg>