<?xml version="1.0" encoding="UTF-8"?>
<svg id="Warstwa_2" data-name="Warstwa 2" xmlns="http://www.w3.org/2000/svg" viewBox="0 0 42.52 46.87">
  <defs>
    <style>
      .cls-1 {
        fill: #fff;
      }
    </style>
  </defs>
  <g id="game-icon-v5-divine-pixarts-store">
    <g id="game-icon-v5-divine-pixarts-store_157">
      <path class="cls-1" d="M7.61,3.86c.66,9.52,1.69,16.8,10.24,22.06,1.11,2.05,5.86,2.26,6.78-.08,8.48-4.85,9.93-12.91,10.16-21.99H7.61ZM25.54,12.74l-3.14-.13-.07,7.59c-.17.5-1.64.54-2.12.31l-.07-8.02-3.41.28v-2.75s3.37.46,3.37.46l.02-3.81,2.24-.04.11,3.71,3.01-.2c.58.11.47,2.44.06,2.59Z"/>
      <path class="cls-1" d="M12.48,43.38l17.47-.04c-4.47-2.52-6.42-5.28-6.35-10.23-1.36-.25-3.11-.32-4.5-.21-1.15,6.64-1.25,6.76-6.62,10.48Z"/>
      <rect class="cls-1" x="6.33" y=".03" width="29.85" height="2.67" transform="translate(0 .04) rotate(-.12)"/>
      <path class="cls-1" d="M30.56,44.44c-3.09-.09-18.81-.62-20.13.61-.31.29-.08,1.82.42,1.82l20.92-.03c.58,0,.78-1.44.47-1.69-.32-.25-1.17-.7-1.67-.71Z"/>
      <path class="cls-1" d="M36.41,4.78l-.38,1.93c1.17-.24,2.42-.35,3.25.13.61.35,1.2,1.87,1.16,2.68-.16,2.94-2.1,4.77-4.4,6.24-4.31,2.74-5.49,6.76-3.31,6.93,1.8.14-.12-2.4,1.78-3.58,3.82-2.36,9.08-5.58,7.82-11.09-.64-2.8-3.39-4.21-5.92-3.23Z"/>
      <path class="cls-1" d="M10.52,22.4c1.51-2.31-2.49-5.55-4.37-6.91C1.65,12.26,1.25,8.08,3.18,6.98c.83-.47,2.01-.46,3.3-.42l-.38-1.71c-.1-.43-1.32-.42-1.83-.38C.99,4.74-.62,7.99.22,11.09c.9,3.33,3.58,5.5,6.6,7.21,3.89,2.2,1.11,2.79,2.36,4.02.24.23,1.16.36,1.34.09Z"/>
      <path class="cls-1" d="M24.45,31.77c.63-.66,1.23-1.49,1.22-2.01-.01-.53-1.22-1.22-1.75-1.22l-5.49-.02c-.67,0-1.62.93-1.61,1.58,0,.5.82,1.57,1.37,1.58l6.27.09Z"/>
    </g>
  </g>
</svg>