<?xml version="1.0" encoding="UTF-8"?>
<svg id="Warstwa_2" data-name="Warstwa 2" xmlns="http://www.w3.org/2000/svg" viewBox="0 0 36.67 44.89">
  <defs>
    <style>
      .cls-1 {
        fill: #fff;
      }
    </style>
  </defs>
  <g id="game-icon-v5-divine-pixarts-store">
    <g id="game-icon-v5-divine-pixarts-store_16">
      <path class="cls-1" d="M34.55,23.64c0-.67-.86-1.73-1.54-1.73l-10.08.04-.04-10.03c0-.49-.83-1.55-1.36-1.55h-8.32c-.58-.01-1.48.99-1.48,1.49v10.01s-11.61.2-11.61.2L0,31.82c0,.54,1.24,1.33,1.77,1.33h9.89s.21,11.54.21,11.54l9.39.2c.78.02,1.66-1,1.66-1.74v-9.97s10.1-.05,10.1-.05c.49,0,1.49-.89,1.5-1.46l.03-8.03Z"/>
      <path class="cls-1" d="M7.68,6.23c6.64,1.87,13.78,1.96,20.4-.45.92-.33,1.8-1.8,1.54-2.39C27.45-1.67,4.31-.69,4.98,3.86c.15,1.02,1.63,2.06,2.7,2.36ZM26.93,3.51c1.58.92-8.33,3.89-18.24,1.09-.3-.09-.9-.65-1-.85-.76-1.48,13.48-3.62,19.24-.25Z"/>
      <path class="cls-1" d="M32.78,11.81l-1.26-3.1c-.51,2.97-1.66,4.08-4.44,4.48l3.14,1.26c.45.89,1.04,2.58,1.41,3.65.31-.89.6-2.59,1.3-3.37.9-1,2.78-1.14,3.74-1.32-1.32-.47-3.04-1.05-3.89-1.61Z"/>
      <path class="cls-1" d="M5.81,36.38c-.47,1.42-1.36,2.55-2.45,2.84,1.31.49,2.07,1.64,2.42,2.9.25-2.03,1.43-2.55,2.8-3.06-.69-.19-1.89-.34-2.11-.79-.22-.45-.51-1.38-.66-1.89Z"/>
      <path class="cls-1" d="M3.76,16.31l1.74,1.59,1.92-1.64-1.9-1.87c-.22.4-1.17,1.42-1.76,1.92Z"/>
    </g>
  </g>
</svg>