<?xml version="1.0" encoding="UTF-8"?>
<svg id="Warstwa_2" data-name="Warstwa 2" xmlns="http://www.w3.org/2000/svg" viewBox="0 0 32.89 43.24">
  <defs>
    <style>
      .cls-1 {
        fill: #fff;
      }
    </style>
  </defs>
  <g id="game-icon-v5-divine-pixarts-store">
    <g id="game-icon-v5-divine-pixarts-store_29">
      <path class="cls-1" d="M29.22,30.3c3.61-10.51-5.45-12.09-3.62-19.92-4.4,3.8-.81,7.38-2.85,8.31-.38.17-1.41-.11-1.7-.44-1.17-1.34-1.23-3.42-.68-5.14,1.62-5.11-.16-10.57-4.92-13.1,1.45,2.87,1.42,5.81-.38,8.3-3.73,5.16-5.43,5.52-5.75,12.65-.02.49-1.66.57-1.88.15-1.48-2.82.32-3.93-1.91-6.34-1.61,7.41-6.83,7.97-2.04,17.91-1.31-.67-2.2-1.6-3.48-2.84.13,7.36,6.29,12.08,13.02,13.4-5.19-4.02-9.19-9.62-4.45-15.82l2-2.62.75,2.24c5.93-2.03-.25-7.34,3.24-10.93.78,2.26,1.39,3.49,2.42,4.93,1.51,1.66,2.15,3.6,2.5,5.94,1.72-.81,1.98-2.48,2.01-4.38,3.09,3.04,5.15,6.85,4.59,11.07-.55,4.18-3.44,6.94-6.61,9.6,8.75-1.88,15.39-8.38,12.88-18.03-.61,1.97-1.21,3.98-3.14,5.09Z"/>
      <path class="cls-1" d="M22.02,35.61c1.42-1.73.73-4.28-.8-5.18-1.7-1.01-3.72-.6-4.95,1.26-1.29-1.86-3.18-2.17-4.8-1.2-1.31.78-2.08,3.03-1.02,4.73,1.45,2.33,3.73,4.08,5.97,5.92,2.03-1.78,3.89-3.45,5.6-5.53Z"/>
      <path class="cls-1" d="M9.02,12.88c1.62-3.72,4.65-5.49,2.03-9.06-.81,3.6-5.6,5.61-2.03,9.06Z"/>
    </g>
  </g>
</svg>