<?xml version="1.0" encoding="UTF-8"?>
<svg id="Warstwa_2" data-name="Warstwa 2" xmlns="http://www.w3.org/2000/svg" viewBox="0 0 53.64 54.46">
  <defs>
    <style>
      .cls-1 {
        fill: #fff;
      }
    </style>
  </defs>
  <g id="game-icon-v5-divine-pixarts-store">
    <g id="game-icon-v5-divine-pixarts-store_84">
      <path class="cls-1" d="M1.96,20.88l-1.96,6.44c2.53-.29,5.1-6.73,5.89-9.02,1.48-4.33,3.06-8.31,5.53-12.35l.07,1.57,3.89-2.45.43,1.78c.05.22-.59.67-.71.86-.12.18-.62-1.07-.84-.97-1.4.66-4.03,2.59-4.42,4.49,2.19.3,3.88-1.53,5.5-2.87-.18.97-.14,2.09-.02,2.82.05.36-.47,1.54-.16,1.72l.94.54c-.09.59-.28,1.47-.03,1.74l.78.84.63,1.66c.11.29.86-.13.99-.22l.46,1.63c.08.3.97-.17,1.27-.26l.64,1.57.95-.86c.15-.14.67.47.51.61l-.79.69c-.45.39-1.27,1.09-1.13,1.56l.56,1.86c1.35-1.12,1.18-1.94,1.22-3.88l1.68,1.35c.62-.52,1.4-1.93,1.37-2.83-.04-1.04-1.15-2.13-2.19-2.47-3.57-1.17-5-4.93-3.67-8.44.75-1.99,2.09-6-.57-7.52-4.03-2.29-10.26,4.43-12.72,7.97-1.34,1.93-2.82,3.44-4.94,5.02,3.29.67,5.29-1.96,7.58-4.01-5.15,7.39-3.55,1.01-6.72,11.44Z"/>
      <path class="cls-1" d="M8.47,39.84l-1.99-8.74c-.27.89-.49,1.99-.4,2.61l.94,6.34-1.44-4.89c-1.37,2.04-.6,4.06-.15,6.31.9,4.5,1.29,8.45.59,13,3.86-2.34,3.32-10.8,2.45-14.63Z"/>
      <path class="cls-1" d="M8.77,37.43c1.23,5.04,2.13,9.74,2.89,14.84,1.88-3.17,1.99-6.85,1.18-10.24l-2.88-12.09c-1.21,1.97-.26,3.95-.23,6.28l-1.57-3.7c-.22,1.77.16,3.11.6,4.92Z"/>
      <path class="cls-1" d="M11.88,35.05l3.43,11.55c2.28-4.35-1.12-14.44-2.59-18.24-.4,1.91-.05,3.35.09,5.14-.46-1.22-.77-2.16-1.52-3.49-.35,1.88.06,3.25.59,5.04Z"/>
      <path class="cls-1" d="M4.14,25.71l-.36-1.58c-1.03,1.9-1.35,3.91-1.42,6.42l-.23,8.42c2.2-2.04,2.86-5.15,3.11-8.14l.86-10.23c-.93,1.54-1.43,3.15-1.96,5.11Z"/>
      <path class="cls-1" d="M7.89,32.44c1.94-5.4.95-9.83,2.51-16.16-1.17,2.02-1.87,4.14-2.45,6.33l.16-3.1c-2.4.37-1.9,11.2-.22,12.92Z"/>
      <path class="cls-1" d="M15.75,25.63l-.83,2.94c-.26.03-.85-.07-.86.18,0,.2-.02,1.11.08,1.41l3.48,10.28c1.95-5.09-1.84-9.99-1.88-14.81Z"/>
      <path class="cls-1" d="M11.06,30.02c1.16-3.12,1.85-6.09,1.43-9.48l-1.08,2.77.36-3.35c.03-.25-.41-1.07-.61-.94-1.58,1.04-1.43,9.44-.1,11.01Z"/>
      <path class="cls-1" d="M10.63,12.4l-1.7-.21c-.9,2.25-1.68,4.48-2,7.17,2.77-1.47,3.05-4.2,3.7-6.96Z"/>
      <path class="cls-1" d="M17.42,24.05c-1.79,1.85-.06,7.44,1.51,9.09.2-2.82-.13-5.07-.59-7.82l-.69,1.23-.22-2.5Z"/>
      <path class="cls-1" d="M10.98,15.26l3.04-2.01c-.95,1.87-3.14,2.75-2.36,5.22,1.64-.48,3.6-2.27,3.34-3.96-.82-1.19-1.13-2.16-.51-4.15-2.18.77-3.53,2.51-3.5,4.9Z"/>
      <path class="cls-1" d="M15.33,16.2c-.65.28-3.68,4.54-1.09,5.52.83-1.41,1.73-3.2,2.04-4.17.11-.35-.63-1.49-.96-1.35Z"/>
      <path class="cls-1" d="M22.98,28.74l.5-5.46c.02-.24-.14-.95-.21-1.13-.08-.17-.35-.08-.76-.04l.5,1.86-1.28.4c-1.12.34.21,4.02,1.26,4.37Z"/>
      <path class="cls-1" d="M16.23,23.83c1.34-1.89,2.35-3.85.6-5.8-1.32,1.48-1.55,3.83-.6,5.8Z"/>
      <path class="cls-1" d="M20.97,30.22c.3-2.18.12-4.32-1.12-6.24-1.33,2.18-.61,4.63,1.12,6.24Z"/>
      <path class="cls-1" d="M13.39,22.71c-.11,2.08-.05,3.61.59,5.56,1.03-2.02,1.36-3.73,1.15-5.61-.52,1.04-.82,1.59-.53.24l-1.21-.2Z"/>
      <path class="cls-1" d="M18.78,19.69c-.84,1.7-.89,3.02-.09,4.68l1.26-2.71c.26-.56-.58-1.84-1.17-1.96Z"/>
      <path class="cls-1" d="M45.64,10.26c2.32,1.66,3.99,3.92,6.98,3.23-5.84-4.12-6.55-9.94-13.99-13.08-1.18-.5-3.03-.41-3.94.3-2.32,1.79-.83,5.7-.11,7.91,1.19,3.68-.7,7.06-4.45,8.07-.77.21-1.59,1.56-1.52,2.25.09.87.55,2,1.05,2.59l2.2-1.9c.22.13.92.66,1.03.39l.49-1.15c.12-.27,1.29.46,1.36.16l.38-1.61,1.08.61.82-2.29c.13-.35,1.02-.94.92-1.29l-.36-1.19.96-.18c.23-.04-.02-.84-.14-1.13-.18-.41.09-1.35.06-1.81-.26-3.96-.77-1.69-.4-5.08l4.48,2.61-.31-1.63c1.21,1.32,2.04,2.87,2.73,4.67l4.61,12.03c.77,2.01,1.98,3.84,4.05,4.62l-2.04-7.04c-2.52-8.71-1.56-4.37-5.96-10.07Z"/>
      <path class="cls-1" d="M45.27,39.51c-.86,3.73-1.5,11.99,2.29,14.94-.56-7.13-.1-8.45,1.19-15.41.25-1.36.04-2.73-.62-4.01l-1.05,3.03c-.1-2.71,1.1-4.61.13-7.02l-1.95,8.47Z"/>
      <path class="cls-1" d="M43.84,29.88c-1.39,5.47-5.52,16.88-1.8,22.43.71-4.61,1.43-8.78,2.55-13.1.56-2.16,1-4.04.94-6.39-.84,1.17-1.11,2.17-1.57,3.38.07-2.24,1.07-4.09-.12-6.32Z"/>
      <path class="cls-1" d="M39.29,33.52c-1.32,4.2-2.52,8.69-.9,13.22l3.55-11.92c.52-1.73.94-3.26.32-4.96l-1.72,5.1c-.24-2.62,1.66-4.26.41-6.72l-1.66,5.28Z"/>
      <path class="cls-1" d="M51.56,39.11l-.29-10.13c-.05-1.77-.56-3.26-1.31-4.46l-.42,1.18c-.47-1.64-1.01-3.2-1.97-5.02l.94,10.84c.24,2.8,1.05,5.62,3.05,7.6Z"/>
      <path class="cls-1" d="M45.74,19.75l-.03,2.47c-.55-1.98-1.06-3.53-2.16-5.16l.94,7.97c.31,2.63.48,5.14,1.3,7.62,1.85-1.94,2.1-12.77-.05-12.89Z"/>
      <path class="cls-1" d="M36.06,40.52l3.81-11.3c.07-.22-.09-.92-.22-1.03-.09-.08-.2.02-.31.13l-.57.55-.88-3.97c.22,5.16-3.87,11.63-1.83,15.61Z"/>
      <path class="cls-1" d="M41.1,20.06c-.13,3.24.03,6.52,1.63,9.85,1.39-3.78,1.15-7.64.02-11.13-1.37,1.16-.36,2.58-.49,4.19l-1.16-2.91Z"/>
      <path class="cls-1" d="M43.09,13.02c.56,2.27,1.25,5.22,3.73,6.6-.24-2.71-.98-5.19-2.17-7.61-.38.06-1.29.64-1.56,1.02Z"/>
      <path class="cls-1" d="M34.79,33.02c1.97-2.64,2.92-5.92,1.68-9.21l-.47,2.18-.9-.76c-.3,3.19-.46,5.14-.31,7.78Z"/>
      <path class="cls-1" d="M39.36,6.56c-.62.74-.83,1.82-.34,2.22l2.96,2.44c.26.22,1.22.06,1.37-.19.76-1.31-2.82-3.73-3.99-4.47Z"/>
      <path class="cls-1" d="M41.89,18.66c1.22-1.6-1.44-5.02-2.7-4.9-1.93.19.97,4.32,2.7,4.9Z"/>
      <path class="cls-1" d="M40.03,21.83c.87-2.37.06-4.98-2.45-5.44-.08,2.05.66,4.15,2.45,5.44Z"/>
      <path class="cls-1" d="M39.54,10.38c-.29.58-.32,2.16.24,2.63l2.75,2.28c.58-2.24-.88-3.86-2.99-4.9Z"/>
      <path class="cls-1" d="M35.86,18.93c-.13,1.63.1,3.76,1.94,4.71.25-2.08-.01-3.6-.54-5.22l-1.4.51Z"/>
      <path class="cls-1" d="M39.32,23.78l-.29-1.58c-.66,1.84-.95,4.16,1.05,5.76.2-2.06.24-3.64.18-5.36l-.94,1.17Z"/>
      <path class="cls-1" d="M32.72,30.27c1.87-1.65,2.23-3.91,1.25-6.13-1.26,1.69-1.59,3.86-1.25,6.13Z"/>
      <path class="cls-1" d="M30.66,28.93c1.91-1.44,2.11-5.37,1-4.72-1.44.84-1.34,2.92-1,4.72Z"/>
      <path class="cls-1" d="M35.09,24.3c.78-1.77.57-3.34-.6-4.69-1.34,1.45-.59,3.24.6,4.69Z"/>
      <path class="cls-1" d="M31.82,21.02c-.64.75-.3,2.06.96,3.15.38-.93.45-2.48.06-3.22-.23-.1-.87-.11-1.02.07Z"/>
    </g>
  </g>
</svg>