<?xml version="1.0" encoding="UTF-8"?>
<svg id="Warstwa_2" data-name="Warstwa 2" xmlns="http://www.w3.org/2000/svg" viewBox="0 0 51.88 53.1">
  <defs>
    <style>
      .cls-1 {
        fill: #fff;
      }
    </style>
  </defs>
  <g id="game-icon-v5-divine-pixarts-store">
    <g id="game-icon-v5-divine-pixarts-store_69">
      <path class="cls-1" d="M36.13,23.23l10.64-5.59-11.15,3.6c3.04-5.75,7.14-10.28,11.06-15.52l-9.14,7.03c-2,1.54-3.93,2.57-6.45,3.91l3.85-11.51-5.75,10.85c-2.23-5.76-1.98-10.16-3.49-16-.84,5.56-1.55,10.58-3.14,16.18l-5.3-9.69,3.23,10.09c-1.5-.73-2.76-1.26-3.9-2.11L5.5,6.27c3.74,5.15,7.54,9.37,10.61,14.87l-10.2-3.16,9.59,5.29c-5.29,1.58-10.2,2.26-15.49,3.22,5.48,1.34,10.35,1.46,15.4,3.44l-11.09,5.86,11.6-3.77c-1.02,1.9-1.89,3.58-3.17,5.24l-7.56,9.76c5.24-3.76,9.42-7.76,15.31-10.57l-3.56,10.86,5.61-10.31,3.35,16.11c.82-5.46,1.56-10.57,3.24-16.03l5.49,10-3.43-10.56c5.95,2.98,10.48,6.93,15.67,10.97-4.02-5.12-8.09-9.52-11.21-15.48l10.97,3.47-10.57-5.63c5.5-1.68,10.35-2.19,15.83-3.36-5.31-.93-10.26-1.48-15.75-3.24ZM31.98,29.18l5.89,9.36-9.25-5.61-2.81,10.85-2.69-10.86-9.1,5.34,5.67-9.13-10.73-2.65,10.59-2.53-5.67-9.38,9.16,5.78,2.78-10.46,2.67,10.45,9.05-5.58-5.48,9.17,10.33,2.59-10.43,2.64Z"/>
      <polygon class="cls-1" points="30.2 24.69 32.88 19.51 27.73 22.12 25.78 15.95 23.87 22.09 18.87 19.6 21.42 24.62 15.49 26.54 21.47 28.45 18.49 33.97 23.85 31.07 25.82 37.37 27.92 31.11 33.23 33.99 30.16 28.49 36.21 26.5 30.2 24.69"/>
    </g>
  </g>
</svg>